<?xml version="1.0" encoding="UTF-8"?><svg id="a" xmlns="http://www.w3.org/2000/svg" viewBox="0 0 200 200"><defs><style>.b{fill:#fff;}</style></defs><path class="b" d="m123.05,112.28l1.85-5.32,1.94-5.62.1-.3c-.74-2.39-1.94-4.46-3.53-6.22-1.49-1.65-3.33-3.03-5.48-4.18-2.56-1.35-5.36-1.84-8.2-1.85-13.34-.05-26.67-.02-40.01-.02-11.52,0-23.05-.01-34.57.02-.75.01-1.59.23-2.21.64-1.15.75-1.36,2.58-.43,3.94,2.24,3.3,4.42,6.65,6.62,9.97.13.2.3.42.31.64.15,2.15.27,4.31.4,6.47.12,2.22.24,4.44.36,6.66.13,2.53.25,5.07.39,7.6.11,2.22.24,4.44.36,6.66.19,3.71.4,7.41.57,11.12.09,1.92.11,3.84.18,5.76.05,1.24.11,2.48.19,3.71.18,2.86.4,5.72.56,8.59.1,1.86.11,3.72.19,5.58.04.73.07,1.48.23,2.19.58,2.56,1.75,4.78,3.9,6.4,1.6,1.21,3.38,2.11,5.4,2.12,12.52.04,25.05.02,37.57.01,1.05,0,2.1-.05,3.14-.19,3.04-.4,5.33-2.02,7.06-4.52,1.42-2.05,1.58-4.42,1.73-6.79.17-2.62.26-5.25.38-7.88.13-2.87.25-5.75.38-8.62.12-2.63.26-5.25.37-7.88.13-2.87.25-5.75.38-8.63.12-2.62.25-5.25.37-7.87.14-2.88.28-5.75.38-8.63.09-2.29.1-4.59.19-6.89.04-1.09.18-2.19.28-3.31,1.67,0,3.32-.01,4.97,0,1.36,0,1.68.31,1.68,1.68v24.45c0,.3.07.6.14.9.25,1.14.69,2.15,1.34,3.05.39.57.87,1.09,1.42,1.58,1.28,1.15,2.72,1.79,4.18,2.01v-5.86c-.86-.47-1.47-1.37-1.46-2.34.01-5.67.02-11.35,0-17.01.01-2.2,0-4.39-.01-6.59,0-1.91-.28-3.78-1.68-5.27-1.03-1.09-2.24-1.94-3.76-2.01-2.13-.1-4.27-.03-6.43-.03v-5.62c2.22,0,4.31-.03,6.41,0,2.16.04,4.07.82,5.82,2.05,1.82,1.3,3.24,2.86,4.11,4.72.55,1.19.89,2.5.94,3.96.12,3.08.16,6.17.19,9.26l.79-2.29Zm-23.99-15.52c-.08,2.3-.11,4.6-.19,6.89-.11,2.69-.25,5.38-.37,8.07-.13,2.87-.25,5.75-.38,8.62-.13,2.66-.25,5.32-.37,7.98-.13,2.78-.25,5.56-.38,8.34-.12,2.72-.25,5.44-.37,8.16-.13,2.78-.25,5.56-.38,8.34-.12,2.66-.24,5.31-.37,7.97-.11,2.13-.16,4.26-.41,6.37-.23,1.86-2.14,3.73-4.57,3.73-6.9.01-13.8.01-20.71,0-5.93,0-11.86.01-17.8-.01-2.17-.01-4.04-1.79-4.28-3.9-.26-2.27-.29-4.56-.41-6.84-.13-2.66-.24-5.31-.38-7.97-.11-2.1-.25-4.19-.36-6.29-.14-2.65-.25-5.31-.39-7.97-.1-1.91-.25-3.81-.37-5.72-.19-3.02-.38-6.03-.55-9.05-.09-1.45-.14-2.91-.19-4.36-.07-1.86-.09-3.72-.2-5.58-.15-2.73-.57-5.47-.5-8.2.07-2.45-.62-4.46-2.08-6.35-1.1-1.44-2.02-3.01-3.07-4.58h59.29c-.07.8-.18,1.57-.21,2.35Z"/><path class="b" d="m60.1,131.87v5.53c1.19.1,2.36.13,3.51.3,1.13.17,2.16,1.59,2.07,2.69-.1,1.32-1.36,2.68-2.56,2.71-.99.03-1.98,0-3.02,0v5.63c2.04,0,4.06-.01,6.08,0,.97,0,1.86.24,2.53,1.05.74.89.89,1.87.41,2.87-.45.95-1.22,1.66-2.34,1.68-2.21.04-4.42.01-6.68.01v5.53c1.17.09,2.34.1,3.48.3,1.42.25,2.06,1.51,2.07,2.67.02,1.3-1.32,2.71-2.52,2.73-2.12.04-4.25.03-6.37,0-1.07-.02-2.27-1.26-2.33-2.34-.02-.34,0-.69,0-1.03,0-18.36.03-36.72-.04-55.08,0-2.46,1.51-3.51,3.49-3.42,2.77.12,5.56.02,8.34.03,1.68,0,2.63.74,3.03,2.32.39,1.54-.92,3.28-2.51,3.29-2.18.02-4.37,0-6.62,0v5.63c.75,0,1.54,0,2.34,0,1.43,0,2.82.79,3.11,2.39.31,1.72-1.27,3.19-2.48,3.23-.97.03-1.94,0-2.97,0v5.63c.52,0,1.09-.01,1.67,0,1.82.05,3.66.03,5.47.21,1.53.16,2.15,1.61,2.13,2.69-.03,1.44-1.38,2.7-2.73,2.71-2.18.01-4.36,0-6.58,0Z"/><path class="b" d="m165.46,153.53h-.08v-25.7c-.09-1.5-.39-2.79-.62-3.57-.02-.1-.05-.17-.07-.25l-.12-.37c-.06-.14-.08-.22-.08-.22l-12.22-36.71c1.73-.6,1.9-2.15,1.9-3.79-.09-2.93,0-5.77,0-8.71,0-3.1-.78-3.96-3.88-3.96h-1.38c-.17-.17-.26-.17-.26-.26-.17-2.16.69-3.53,2.76-4.22,2.67-.95,5.34-1.82,8.19-2.76l.21-.06.13-.04c.46-.27,2.11-1.38,2.21-4.35.09-2.58-1.02-4.04-1.59-4.61l-.37-.25-.5-.35c-.78-.52-1.38-.86-1.9-1.29-5.09-3.8-10.09-7.59-15.17-11.3-.87-.69-2.16-1.12-3.28-1.12-11.38-.08-22.85-.08-34.23-.08-2.93,0-3.79.86-3.79,3.88s.09,5.86,0,8.7c-.08,1.99.35,3.54,2.5,4.23-.43,3.45-1.72,6.55-3.96,9.14-1.73,1.89-3.88,3.36-5.61,5.17-.69.78-1.29,2.15-1.03,3.02.26.86,1.46,1.89,2.41,1.98,10.69,1.21,20.35-5,23.88-15.09.17-.34.35-.69.61-1.38,1.63,3.8,3.1,7.33,4.65,10.87-3.53.43-4.05.94-4.05,4.39v6.81c0,3.54,1.81,5.43,5.43,5.69l-1.76,5.03-.98,2.82-2.26,6.47-.02.06-4.46,12.75-2.24,6.41-1.44,4.16c-.04.14-.07.28-.09.43-.25,1.27-.37,2.62-.37,4.03v39.83c0,3.19.77,3.96,3.96,3.96,14.92,0,29.92-.08,44.83,0,2.07,0,3.62-.51,4.14-2.75v-9.31c-.1-.52-.16-1.07-.17-1.64h.17v-5.69Zm-61.04-84.66c2.76-3.79,4.4-7.85,5.01-12.42h5.34c-.26,5-5.43,11.3-10.35,12.42Zm19.49-15c-.95-2.42-2.33-3.28-4.83-3.19-3.97.26-8.02.08-12.16.08v-5.43c.52,0,1.13-.08,1.64-.08,9.74,0,19.49-.09,29.23,0,.95,0,1.98.34,2.67.86,4.83,3.53,9.66,7.15,14.4,10.95.43.26.86.69,1.55,1.21-3.71,1.2-7.07,2.32-10.43,3.44-2.76.87-3.11,1.38-3.11,4.23v4.22h-12.06c-2.33-5.43-4.75-10.77-6.9-16.29Zm24.57,21.98v5.35h-21.99v-5.35h21.99Zm-29.35,47.79l.02-.05,3.11-9.02.79-2.29,1.85-5.32,1.94-5.62.1-.3,1.85-5.34,3.05-8.81c4.14,0,7.93-.09,11.72.08.13,0,.25.01.38.04h2.81s1.25,3.95,1.25,3.95l11.15,34.81h-40.76c.19-.76.44-1.47.74-2.13Zm40.38,43.77h-41.46v-5.35h41.46v5.35Zm.09-11.12h-41.47v-24.83h41.47v24.83Z"/><path class="b" d="m90.79,41.31c1.19-.24,1.99-.83,2.13-1.73.14-.86-.47-1.81-1.38-2-.79-.16-1.6-.17-2.4-.28-.79-.11-1.37.23-1.48.94-.09.57-.01,1.46.35,1.73.81.61,1.84.91,2.78,1.34Zm.09,11.46c-.73.19-1.45.4-2.19.58-.98.24-1.35.96-1.17,1.82.18.83.63,1.62,1.73,1.5.72-.08,1.47-.12,2.16-.3.94-.25,1.68-1.39,1.5-2.21-.24-1.08-1-1.37-2.03-1.39Zm-20.17,6.74c-.19-.61-.3-1.49-1.35-1.4-1.09.09-2.22.16-3.22.54-.79.3-1.11,1.16-.75,2.05.37.89,1.07,1.29,2.03,1.16.37-.05.74-.16,1.11-.24,1.39-.28,2.17-.99,2.18-2.12Zm8.94-20.55c1.1-.23,2.06-1.04,2.17-1.98.1-.79-.62-1.64-1.61-1.82-.75-.13-1.53-.14-2.29-.25-.77-.11-1.26.29-1.38.93-.1.54-.08,1.41.25,1.65.85.63,1.89.98,2.86,1.45Zm.11,16.5c-.68.1-1.39.12-2.04.32-.89.28-1.41.93-1.33,1.92.07.9.9,1.64,1.79,1.57.68-.05,1.36-.2,2.01-.39,1.12-.31,1.76-1.15,1.61-2.04-.19-1.18-1.02-1.43-2.05-1.37Zm-20.02-10.13c-.31,0-.63,0-.94,0-1.21,0-1.81.53-1.79,1.58.02.95.81,1.72,1.78,1.73.63,0,1.26,0,1.89,0,1.01-.01,1.77-.75,1.77-1.71,0-1.09-.55-1.6-1.76-1.6-.31,0-.63,0-.94,0Zm11.03,3.31c.66,0,1.1.03,1.52,0,1.09-.08,1.54-.65,1.49-1.9-.04-.98-.57-1.44-1.55-1.41-.78.02-1.57,0-2.35,0-.99.02-1.63.98-1.39,1.94.35,1.42,1.36,1.49,2.28,1.37Zm11.75-.01h0c.39,0,.79.04,1.18,0,.94-.08,1.8-.94,1.67-1.75-.15-.94-.58-1.65-1.74-1.57-.74.05-1.5.01-2.24,0-.88,0-1.36.43-1.44,1.3-.09.99.17,1.78,1.27,1.99.42.08.86.01,1.3.01Zm11.46-3.3c-.31,0-.63,0-.94,0-1.15,0-1.73.48-1.76,1.49-.03,1,.76,1.81,1.8,1.82.59,0,1.18,0,1.77,0,1.11,0,1.88-.72,1.87-1.73-.01-1.09-.55-1.57-1.79-1.58-.31,0-.63,0-.94,0Z"/><path class="b" d="m67.64,32.34c.45.16.88.35,1.34.46,1.37.33,1.87,1.08,1.5,2.36-.23.8-1.43,1.34-2.4,1.08-.18-.05-.37-.09-.56-.12-.94-.18-1.94-.31-2.24-1.42-.29-1.08.3-1.81,1.17-2.36.39,0,.79,0,1.18,0Z"/><path class="b" d="m90.79,41.31c-.94-.43-1.97-.74-2.78-1.34-.36-.27-.44-1.17-.35-1.73.11-.71.69-1.05,1.48-.94.8.12,1.61.12,2.4.28.91.19,1.52,1.13,1.38,2-.14.9-.95,1.49-2.13,1.73Z"/><path class="b" d="m90.88,52.77c1.03.02,1.8.32,2.03,1.39.18.82-.55,1.96-1.5,2.21-.7.19-1.44.22-2.16.3-1.1.12-1.55-.67-1.73-1.5-.18-.86.18-1.58,1.17-1.82.73-.18,1.46-.38,2.19-.58Z"/><path class="b" d="m70.71,59.51c0,1.12-.79,1.84-2.18,2.12-.37.07-.74.19-1.11.24-.96.12-1.66-.27-2.03-1.16-.37-.89-.04-1.76.75-2.05,1-.38,2.14-.45,3.22-.54,1.05-.09,1.16.8,1.35,1.4Z"/><path class="b" d="m79.65,38.96c-.97-.46-2.01-.82-2.86-1.45-.33-.24-.34-1.12-.25-1.65.12-.64.61-1.04,1.38-.93.76.11,1.53.11,2.29.25.99.17,1.71,1.02,1.61,1.82-.11.93-1.08,1.74-2.17,1.98Z"/><path class="b" d="m79.76,55.46c1.04-.05,1.86.2,2.05,1.37.14.9-.5,1.73-1.61,2.04-.66.19-1.34.33-2.01.39-.9.07-1.72-.67-1.79-1.57-.08-.98.45-1.64,1.33-1.92.65-.2,1.36-.22,2.04-.32Z"/><path class="b" d="m70.76,48.65c-.92.12-1.94.05-2.28-1.37-.23-.96.4-1.92,1.39-1.94.78-.01,1.57.01,2.35,0,.98-.02,1.52.43,1.55,1.41.04,1.25-.41,1.82-1.49,1.9-.43.03-.86,0-1.52,0Z"/><path class="b" d="m82.51,48.63c-.43,0-.88.06-1.3-.01-1.1-.2-1.36-1-1.27-1.99.08-.88.56-1.31,1.44-1.3.75,0,1.5.05,2.24,0,1.15-.08,1.58.63,1.74,1.57.13.81-.73,1.67-1.67,1.75-.39.03-.79,0-1.18,0h0Z"/><path class="b" d="m93.97,45.33c.31,0,.63,0,.94,0,1.23,0,1.78.48,1.79,1.58,0,1.01-.76,1.73-1.87,1.73-.59,0-1.18,0-1.77,0-1.04-.02-1.83-.83-1.8-1.82.03-1.01.61-1.49,1.76-1.49.31,0,.63,0,.94,0Z"/></svg>