<?xml version="1.0" encoding="utf-8"?>
<!-- Generator: Adobe Illustrator 27.8.1, SVG Export Plug-In . SVG Version: 6.00 Build 0)  -->
<!DOCTYPE svg PUBLIC "-//W3C//DTD SVG 1.1//EN" "http://www.w3.org/Graphics/SVG/1.1/DTD/svg11.dtd" [
	<!ENTITY ns_extend "http://ns.adobe.com/Extensibility/1.0/">
	<!ENTITY ns_ai "http://ns.adobe.com/AdobeIllustrator/10.0/">
	<!ENTITY ns_graphs "http://ns.adobe.com/Graphs/1.0/">
	<!ENTITY ns_vars "http://ns.adobe.com/Variables/1.0/">
	<!ENTITY ns_imrep "http://ns.adobe.com/ImageReplacement/1.0/">
	<!ENTITY ns_sfw "http://ns.adobe.com/SaveForWeb/1.0/">
	<!ENTITY ns_custom "http://ns.adobe.com/GenericCustomNamespace/1.0/">
	<!ENTITY ns_adobe_xpath "http://ns.adobe.com/XPath/1.0/">
]>
<svg version="1.1" id="Layer_1" xmlns:x="&ns_extend;" xmlns:i="&ns_ai;" xmlns:graph="&ns_graphs;"
	 xmlns="http://www.w3.org/2000/svg" xmlns:xlink="http://www.w3.org/1999/xlink" x="0px" y="0px" width="500px" height="500px"
	 viewBox="0 0 500 500" style="enable-background:new 0 0 500 500;" xml:space="preserve">
<style type="text/css">
	.st0{fill:#FF6600;}
	.st1{fill:#FFFFFF;}
</style>
<metadata>
	<sfw  xmlns="&ns_sfw;">
		<slices></slices>
		<sliceSourceBounds  bottomLeftOrigin="true" height="500" width="500" x="520" y="-500"></sliceSourceBounds>
	</sfw>
</metadata>
<path class="st0" d="M0,0v500h500V0H0z M464.49,336.91c0,9.64-7.84,17.47-17.49,17.47c-4.65,0-9.04-1.81-12.35-5.1
	c-2.51-2.51-4.16-5.64-4.81-9.05h-12.75c-2.57,15.71-8.71,30.64-17.95,43.64l10.15,10.4c2.86-1.93,6.22-2.96,9.74-2.96
	c0,0,0.01,0,0.01,0c4.66,0,9.05,1.83,12.34,5.13c3.28,3.24,5.11,7.63,5.11,12.34s-1.82,9.1-5.13,12.39l-19.34,19.34
	c-6.82,6.8-17.91,6.8-24.72-0.02c-3.3-3.29-5.11-7.68-5.11-12.34c-0.02-3.51,1.02-6.88,2.96-9.75l-10.29-10.09
	c-12.95,9.34-27.84,15.59-43.52,18.27v13.2c8.05,1.56,14.15,8.66,14.15,17.15c0,4.66-1.81,9.05-5.1,12.36
	c-3.36,3.32-7.75,5.13-12.38,5.13h-27.36c-9.63,0-17.46-7.85-17.46-17.49c0-4.68,1.82-9.07,5.12-12.36c2.46-2.5,5.59-4.16,9.01-4.81
	v-12.97c-15.89-2.47-30.99-8.58-44.15-17.86l-8.74,8.74c1.94,2.86,2.99,6.24,2.99,9.78c0,4.67-1.81,9.06-5.1,12.36
	c-3.31,3.31-7.7,5.14-12.37,5.14c-4.65,0-9.04-1.82-12.36-5.12l-19.34-19.35c-2.98-2.99-4.68-6.88-5.03-10.9
	c-0.14,0.01-0.28,0.03-0.41,0.03c-0.48,0-0.96-0.07-1.43-0.2c-39.38-11.36-83.5-48.04-113.58-76.81
	c-26.87-25.7-42.28-61.85-42.28-99.19V74.11c0-2.31,1.53-4.34,3.75-4.97l152.13-43.37c0.93-0.26,1.91-0.26,2.83,0l152.1,43.37
	c2.22,0.63,3.75,2.66,3.75,4.97v150.74c8.85,3.28,17.17,7.71,24.82,13.24l8.29-8.3c-4.59-6.8-3.88-16.14,2.13-22.14
	c3.31-3.31,7.7-5.13,12.37-5.13c4.7,0.02,9.08,1.85,12.36,5.14L429.38,227c6.8,6.8,6.8,17.89-0.01,24.72
	c-3.3,3.3-7.69,5.12-12.37,5.12c-0.03,0-0.05,0-0.08,0c-3.51,0-6.86-1.04-9.71-2.99l-8.33,8.33c9.39,13.1,15.62,28.17,18.21,44.04
	h12.74c1.56-8.05,8.66-14.15,17.16-14.15c4.67,0,9.07,1.82,12.37,5.13c0,0,0.01,0.01,0.01,0.01c3.29,3.31,5.1,7.7,5.1,12.35V336.91z
	"/>
<g>
	<g>
		<path class="st1" d="M459.38,297.2c0,0-0.01-0.01-0.01-0.01c-3.31-3.31-7.7-5.13-12.37-5.13c-8.5,0-15.6,6.1-17.16,14.15H417.1
			c-2.59-15.87-8.82-30.94-18.21-44.04l8.33-8.33c2.85,1.94,6.2,2.99,9.71,2.99c0.03,0,0.05,0,0.08,0c4.67,0,9.06-1.82,12.37-5.12
			c6.81-6.83,6.81-17.91,0.01-24.72l-19.35-19.34c-3.27-3.29-7.65-5.12-12.36-5.14c-4.67,0-9.07,1.82-12.37,5.13
			c-6,6-6.71,15.34-2.13,22.14l-8.29,8.3c-7.65-5.52-15.97-9.96-24.82-13.24V74.11c0-2.31-1.53-4.34-3.75-4.97l-152.1-43.37
			c-0.93-0.26-1.91-0.26-2.83,0L39.26,69.15c-2.22,0.63-3.75,2.66-3.75,4.97v159.33c0,37.34,15.41,73.49,42.28,99.19
			c30.08,28.77,74.2,65.45,113.58,76.81c0.47,0.13,0.95,0.2,1.43,0.2c0.14,0,0.28-0.02,0.41-0.03c0.34,4.02,2.05,7.91,5.03,10.9
			l19.34,19.35c3.32,3.3,7.71,5.12,12.36,5.12c4.66,0,9.05-1.82,12.37-5.14c3.29-3.3,5.11-7.69,5.1-12.36
			c0-3.54-1.05-6.92-2.99-9.78l8.74-8.74c13.16,9.28,28.26,15.39,44.15,17.86v12.97c-3.42,0.65-6.55,2.31-9.01,4.81
			c-3.3,3.28-5.12,7.67-5.12,12.36c0,9.64,7.83,17.49,17.46,17.49H328c4.64,0,9.02-1.81,12.38-5.13c3.29-3.31,5.1-7.7,5.1-12.36
			c0-8.5-6.1-15.6-14.15-17.15v-13.2c15.68-2.68,30.57-8.93,43.52-18.27l10.29,10.09c-1.94,2.87-2.97,6.24-2.96,9.75
			c0,4.67,1.82,9.05,5.11,12.34c6.81,6.81,17.9,6.82,24.72,0.02l19.34-19.34c3.31-3.28,5.13-7.68,5.13-12.39s-1.82-9.1-5.11-12.34
			c-3.29-3.31-7.68-5.13-12.34-5.13c-0.01,0-0.01,0-0.01,0c-3.52,0-6.88,1.03-9.74,2.96l-10.15-10.4
			c9.24-13,15.38-27.93,17.95-43.64h12.75c0.65,3.41,2.3,6.54,4.81,9.05c3.31,3.29,7.7,5.1,12.35,5.1c9.64,0,17.49-7.84,17.49-17.47
			v-27.36C464.49,304.9,462.67,300.51,459.38,297.2z M330.59,219.7v-13.46c3.42-0.65,6.55-2.31,9.01-4.8
			c0.05-0.05,0.09-0.1,0.14-0.15v20.35C336.72,220.86,333.67,220.2,330.59,219.7z M192.8,399.08c-37.02-11.26-79-46.31-107.86-73.92
			c-24.84-23.76-39.09-57.19-39.09-91.72V78.01l146.96-41.9l146.93,41.9v98.84c-3.17-3.24-7.59-5.26-12.47-5.26H299.9
			c-0.13,0-0.26,0.01-0.38,0.02c-13.58-47.55-56.8-80.34-106.73-80.34c-61.23,0-111.04,49.81-111.04,111.04
			c0,49.93,32.75,93.1,80.26,106.72c-0.03,0.42-0.07,0.84-0.07,1.27v27.36c0,4.68,1.82,9.07,5.11,12.36
			c3.31,3.31,7.7,5.13,12.36,5.13c8.49,0,15.59-6.09,17.15-14.14l14.23,0.04c3.78,12.57,10.42,32.07,18.22,43.98l-8.64,8.63
			c-1.58-1.07-3.31-1.87-5.08-2.35c-1.49-0.43-3.07-0.64-4.7-0.64c-4.65,0-9.04,1.81-12.36,5.11c-0.67,0.67-1.27,1.39-1.81,2.13
			C195.23,398.31,194.02,398.71,192.8,399.08z M196.53,250.77c3.29,3.29,7.68,5.11,12.35,5.11c0,0,0.01,0,0.01,0
			c1.7,0,3.36-0.25,4.95-0.71v1.66h-42.07v-28.32c0-2.85-2.31-5.17-5.17-5.17h-28.34v-42.08h28.34c2.85,0,5.17-2.31,5.17-5.17
			v-28.32h42.07v28.32c0,2.85,2.31,5.17,5.17,5.17h28.32v42.08h-2.15c0.35-1.38,0.54-2.82,0.54-4.28c0-4.69-1.82-9.09-5.11-12.36
			c-6.82-6.81-17.91-6.81-24.72,0l-19.36,19.35c-3.28,3.3-5.1,7.68-5.12,12.36C191.4,243.08,193.22,247.47,196.53,250.77z
			 M252.49,170.94h-28.32v-28.32c0-2.85-2.31-5.17-5.17-5.17H166.6c-2.85,0-5.17,2.31-5.17,5.17v28.32h-28.34
			c-2.85,0-5.17,2.31-5.17,5.17v52.41c0,2.85,2.31,5.17,5.17,5.17h28.34V262c0,2.85,2.31,5.17,5.17,5.17H219
			c2.85,0,5.17-2.31,5.17-5.17v-3.62l3.97,3.98c-9.02,12.66-15.16,27.26-17.82,42.47c-0.13,0.71-0.25,1.42-0.37,2.14h-13.37
			c-0.66-3.44-2.32-6.56-4.81-9.05c-3.31-3.29-7.7-5.1-12.35-5.1c-5.36,0-10.34,2.47-13.61,6.54
			c-43.59-12.04-73.72-51.43-73.72-97.05c0-55.53,45.18-100.71,100.71-100.71c45.44,0,84.75,29.95,96.92,73.31
			c-0.76,0.54-1.49,1.13-2.17,1.8c-3.31,3.31-5.13,7.7-5.13,12.37c0,8.49,6.1,15.59,14.15,17.15v13.47
			c-0.42,0.07-0.84,0.14-1.25,0.21c-15.57,2.73-30.42,9.03-43.22,18.31l-4.54-4.54h4.93c2.85,0,5.17-2.31,5.17-5.17v-52.41
			C257.65,173.25,255.34,170.94,252.49,170.94z M454.16,336.91c0,3.94-3.21,7.14-7.16,7.14c-1.9,0-3.7-0.75-5.06-2.09
			c-1.35-1.35-2.09-3.14-2.09-5.06v-1.84c0-2.85-2.31-5.17-5.17-5.17H412.6c-2.62,0-4.82,1.96-5.13,4.56
			c-2.01,17-8.65,33.15-19.18,46.7c-1.58,2.04-1.42,4.93,0.38,6.78l16.65,17.06c0.96,0.99,2.28,1.55,3.66,1.56c0.01,0,0.02,0,0.03,0
			c1.37,0,2.68-0.54,3.65-1.51l1.3-1.3c1.36-1.35,3.15-2.1,5.06-2.1c0,0,0,0,0.01,0c1.9,0,3.69,0.75,5.06,2.12
			c1.33,1.32,2.07,3.1,2.07,5.02c0,1.93-0.74,3.73-2.09,5.07l-19.34,19.34c-2.79,2.78-7.33,2.78-10.12-0.01
			c-1.34-1.34-2.09-3.13-2.09-5.06c-0.01-1.89,0.73-3.68,2.11-5.05l1.3-1.31c0.97-0.98,1.5-2.3,1.49-3.67
			c-0.01-1.37-0.57-2.69-1.55-3.65l-16.96-16.62c-1.86-1.82-4.77-1.98-6.82-0.36c-13.49,10.65-29.6,17.41-46.57,19.55
			c-2.58,0.33-4.52,2.52-4.52,5.12v22.51c0,2.85,2.31,5.17,5.17,5.17H328c3.95,0,7.16,3.2,7.16,7.14c0,1.91-0.75,3.72-2.07,5.05
			c-1.38,1.36-3.19,2.11-5.09,2.11h-27.36c-3.93,0-7.13-3.21-7.13-7.16c0-1.91,0.74-3.7,2.11-5.06c1.32-1.34,3.1-2.08,5.02-2.08
			h1.84c2.85,0,5.17-2.31,5.17-5.17v-22.34c0-2.63-1.98-4.85-4.6-5.13c-17.19-1.89-33.53-8.49-47.23-19.08
			c-2.06-1.59-4.98-1.4-6.81,0.44l-15.32,15.32c-2.02,2.02-2.02,5.29,0,7.3l1.3,1.3c1.35,1.34,2.09,3.14,2.09,5.05
			c0,1.91-0.74,3.71-2.08,5.06c-1.36,1.36-3.15,2.1-5.06,2.1c-1.91,0-3.71-0.75-5.07-2.1l-19.33-19.33
			c-2.24-2.25-2.74-5.74-1.16-8.59c0.29-0.54,0.68-1.06,1.15-1.53c1.84-1.84,4.49-2.56,7-1.83c1.14,0.31,2.23,0.94,3.1,1.8l1.3,1.31
			c0.97,0.98,2.28,1.53,3.66,1.53c0,0,0.01,0,0.01,0c1.37,0,2.68-0.54,3.65-1.51l15.17-15.17c1.85-1.85,2.02-4.78,0.41-6.84
			c-0.24-0.31-0.49-0.62-0.72-0.94c-6.02-8.05-13.03-24.87-19.24-46.14c-0.33-1.14-1.34-4.59-5.21-4.59l-22.93-0.06
			c0,0-0.01,0-0.01,0c-1.37,0-2.68,0.54-3.65,1.51c-0.97,0.97-1.52,2.29-1.52,3.66v1.83c0,3.95-3.2,7.16-7.14,7.16
			c-1.9,0-3.7-0.75-5.06-2.1c-1.35-1.35-2.09-3.14-2.09-5.05v-27.36c0-1.01,0.2-1.99,0.6-2.89c1.15-2.59,3.72-4.26,6.54-4.26
			c1.9,0,3.7,0.75,5.06,2.09c1.05,1.05,1.73,2.37,1.99,3.83c0.07,0.38,0.1,0.8,0.1,1.22v1.84c0,2.85,2.31,5.17,5.17,5.17h22.74
			c2.63,0,4.85-1.98,5.14-4.6c0.22-2.02,0.52-4.04,0.88-6.05c2.64-15.08,9.05-29.46,18.54-41.6c1.61-2.06,1.43-4.99-0.42-6.83
			l-15.95-15.95c0,0,0,0,0,0l-0.1-0.1c-2.02-2.02-5.29-2.02-7.3,0l-1.3,1.3c-1.35,1.35-3.15,2.1-5.06,2.1c0,0,0,0,0,0
			c-1.91,0-3.7-0.74-5.04-2.08c-1.36-1.36-2.1-3.15-2.1-5.03c0.01-1.93,0.76-3.74,2.1-5.09l19.35-19.34
			c2.79-2.79,7.33-2.79,10.12,0.01c1.34,1.33,2.08,3.12,2.08,5.04c0,1.91-0.75,3.71-2.09,5.06l-0.74,0.74c0,0,0,0,0,0l-0.56,0.56
			c-2.02,2.02-2.02,5.29,0,7.3l15.98,15.98c1.85,1.86,4.81,2.02,6.87,0.39c12.25-9.74,26.87-16.31,42.28-19.02
			c1.63-0.29,3.34-0.54,5.22-0.77c2.6-0.31,4.55-2.51,4.55-5.13v-22.8c0-2.85-2.31-5.17-5.17-5.17h-1.83c-3.95,0-7.16-3.2-7.16-7.14
			c0-1.91,0.75-3.71,2.08-5.05c0.77-0.76,1.67-1.33,2.67-1.68c0.78-0.28,1.59-0.43,2.41-0.43h27.36c3.94,0,7.14,3.21,7.14,7.16
			c0,1.9-0.74,3.69-2.13,5.06c-1.32,1.34-3.1,2.08-5.02,2.08h-1.84c-2.85,0-5.17,2.31-5.17,5.17v22.8c0,2.62,1.96,4.82,4.56,5.13
			c6.29,0.75,12.5,2.12,18.47,4.1c10.49,3.47,20.21,8.7,28.88,15.56c2.05,1.62,5,1.45,6.86-0.4l14.89-14.91
			c2.02-2.02,2.01-5.29,0-7.3l-1.29-1.29c-2.79-2.8-2.79-7.33-0.01-10.12c1.36-1.36,3.16-2.1,5.05-2.1c1.93,0.01,3.72,0.75,5.06,2.1
			l19.36,19.35c2.78,2.78,2.77,7.32-0.01,10.11c-1.35,1.35-3.14,2.09-5.08,2.09c-0.01,0-0.02,0-0.03,0c-1.88,0-3.64-0.74-4.98-2.09
			l-1.31-1.31c-2.02-2.02-5.29-2.02-7.3,0l-14.94,14.94c-1.85,1.85-2.02,4.79-0.41,6.84c10.72,13.65,17.45,29.93,19.48,47.11
			c0.31,2.6,2.51,4.56,5.13,4.56h22.08c2.85,0,5.17-2.31,5.17-5.17v-1.83c0-3.95,3.21-7.16,7.14-7.16c1.91,0,3.7,0.74,5.06,2.09
			c1.35,1.36,2.1,3.16,2.1,5.06V336.91z"/>
		<path class="st1" d="M328,480.93h-27.36c-13.21,0-23.96-10.76-23.96-23.99c0-6.43,2.5-12.45,7.04-16.97
			c2.04-2.07,4.45-3.74,7.09-4.92v-2.82c-13.02-2.71-25.58-7.8-36.83-14.92l-1.63,1.63c1.02,2.69,1.55,5.57,1.56,8.51
			c0,6.41-2.48,12.43-7,16.96c-4.55,4.55-10.57,7.05-16.97,7.05c-6.38,0-12.4-2.49-16.95-7.01l-19.36-19.36
			c-2.78-2.79-4.82-6.23-5.95-9.98c-40.16-12.32-84.26-48.97-114.39-77.8c-28.15-26.92-44.29-64.78-44.29-103.88V74.11
			c0-5.18,3.48-9.8,8.46-11.22l152.13-43.38c2.1-0.59,4.3-0.6,6.39,0L348.1,62.9c4.99,1.42,8.47,6.04,8.47,11.22v146.32
			c6.11,2.55,11.98,5.65,17.53,9.25l1.15-1.15c-3.28-8.66-1.32-18.7,5.46-25.47c4.54-4.53,10.56-7.03,16.97-7.03
			c6.46,0.03,12.47,2.54,16.97,7.06l19.33,19.32c9.33,9.33,9.33,24.54,0,33.9c-4.54,4.54-10.56,7.03-16.97,7.03
			c-2.97,0-5.85-0.53-8.54-1.55l-1.19,1.19c7.21,11.21,12.39,23.74,15.2,36.74h2.65c3.8-8.45,12.29-14.15,21.87-14.15
			c6.24,0,12.12,2.37,16.61,6.69l0.68,0.51l0.28,0.47c4.14,4.46,6.41,10.22,6.41,16.32v27.36c0,13.22-10.76,23.97-23.99,23.97
			c-6.38,0-12.39-2.48-16.93-6.99c-2.1-2.1-3.77-4.52-4.95-7.16h-2.65c-2.78,12.87-7.89,25.27-14.98,36.39l3.13,3.21
			c2.67-1,5.51-1.51,8.41-1.51c6.42,0,12.44,2.51,16.96,7.04c4.5,4.45,7.01,10.47,7.01,16.93c0,6.45-2.5,12.49-7.05,17l-19.32,19.32
			c-9.36,9.34-24.57,9.33-33.91-0.02c-4.52-4.52-7.02-10.54-7.02-16.94c-0.01-2.9,0.5-5.76,1.51-8.44l-3.08-3.02
			c-11.07,7.17-23.44,12.37-36.29,15.24v3.15c8.45,3.8,14.15,12.29,14.15,21.87c0,6.39-2.48,12.41-6.99,16.95
			C340.38,478.44,334.36,480.93,328,480.93z M300.64,456.29c-0.22,0-0.32,0.07-0.39,0.14c-0.19,0.19-0.24,0.31-0.24,0.5
			c0,0.36,0.29,0.66,0.63,0.66H328c0.07,0,0.28,0,0.53-0.24c0.07-0.07,0.13-0.23,0.13-0.42c0-0.35-0.3-0.64-0.66-0.64h-1.83
			c-6.43,0-11.67-5.23-11.67-11.67v-22.51c0-5.86,4.39-10.84,10.21-11.57c15.8-1.99,30.8-8.28,43.36-18.2
			c4.6-3.63,11.21-3.27,15.39,0.83l16.96,16.62c2.23,2.19,3.47,5.12,3.5,8.24c0.02,3.13-1.18,6.08-3.37,8.3l-1.3,1.31
			c-0.2,0.2-0.23,0.34-0.23,0.45c0,0.28,0.09,0.41,0.18,0.5c0.25,0.25,0.68,0.25,0.94,0l19.33-19.33c0.1-0.1,0.18-0.22,0.18-0.47
			c0-0.26-0.09-0.35-0.13-0.39c-0.22-0.22-0.37-0.25-0.5-0.25c-0.19,0-0.33,0.06-0.47,0.2l-1.3,1.29c-2.2,2.2-5.13,3.42-8.25,3.42
			c-3.17-0.02-6.19-1.3-8.35-3.52l-16.65-17.06c-4.05-4.15-4.42-10.73-0.86-15.31c9.81-12.61,15.98-27.65,17.86-43.47
			c0.7-5.87,5.68-10.29,11.58-10.29h22.09c6.43,0,11.67,5.23,11.67,11.67v1.84c0,0.19,0.06,0.33,0.19,0.46
			c0.12,0.12,0.27,0.18,0.46,0.18c0.36,0,0.66-0.29,0.66-0.64v-27.36c0-0.12-0.02-0.29-0.21-0.48c-0.11-0.11-0.26-0.17-0.45-0.17
			c-0.35,0-0.64,0.3-0.64,0.66v1.83c0,6.43-5.23,11.67-11.67,11.67h-22.08c-5.91,0-10.89-4.43-11.58-10.3
			c-1.89-15.99-8.16-31.15-18.13-43.85c-3.64-4.64-3.25-11.28,0.93-15.45l14.93-14.93c2.2-2.2,5.13-3.42,8.25-3.42
			s6.04,1.21,8.25,3.42l1.31,1.31c0.15,0.15,0.26,0.18,0.39,0.18c0.3,0,0.42-0.09,0.52-0.19c0.24-0.24,0.25-0.68,0.01-0.92
			l-19.36-19.34c-0.1-0.1-0.23-0.2-0.5-0.2c-0.14,0-0.29,0.07-0.42,0.2c-0.25,0.25-0.24,0.67,0.01,0.93l1.29,1.28
			c4.55,4.55,4.55,11.94,0,16.49l-14.89,14.9c-4.19,4.19-10.85,4.57-15.49,0.91c-8.08-6.38-17.13-11.26-26.89-14.49
			c-5.55-1.84-11.34-3.12-17.19-3.82c-5.87-0.7-10.29-5.68-10.29-11.58v-22.8c0-6.43,5.23-11.67,11.67-11.67h1.84
			c0.22,0,0.32-0.07,0.39-0.14c0.22-0.22,0.26-0.35,0.26-0.5c0-0.36-0.29-0.66-0.64-0.66h-27.36c-0.06,0-0.12,0.01-0.19,0.04
			c-0.17,0.06-0.26,0.14-0.32,0.2c-0.09,0.09-0.15,0.24-0.15,0.42c0,0.35,0.3,0.64,0.66,0.64h1.83c6.43,0,11.67,5.23,11.67,11.67
			v22.8c0,5.9-4.42,10.88-10.28,11.58c-1.75,0.21-3.34,0.44-4.85,0.71c-14.36,2.52-27.97,8.64-39.38,17.71
			c-4.65,3.69-11.32,3.31-15.51-0.89l-15.98-15.98c-2.2-2.2-3.42-5.13-3.42-8.25s1.21-6.05,3.42-8.25l1.3-1.3
			c0.12-0.12,0.18-0.27,0.18-0.46c0-0.24-0.08-0.36-0.16-0.43c-0.15-0.15-0.3-0.21-0.49-0.21l0,0c-0.18,0-0.33,0.06-0.46,0.19
			l-19.35,19.34c-0.12,0.12-0.2,0.31-0.2,0.52c0,0.13,0.07,0.27,0.2,0.41c0.25,0.25,0.65,0.25,0.92-0.02l1.3-1.3
			c2.2-2.2,5.13-3.42,8.25-3.42c3,0,5.82,1.12,7.99,3.17l0.03,0.02l16.28,16.28c4.16,4.16,4.57,10.79,0.94,15.43
			c-8.83,11.3-14.8,24.69-17.26,38.72c-0.35,1.91-0.62,3.79-0.82,5.63c-0.65,5.93-5.64,10.4-11.6,10.4h-22.74
			c-6.43,0-11.67-5.23-11.67-11.67v-1.84c0-0.07-0.01-0.11-0.01-0.11c-0.02-0.14-0.08-0.25-0.18-0.35
			c-0.27-0.27-0.88-0.19-1.06,0.22c-0.02,0.05-0.04,0.14-0.04,0.24v27.36c0,0.19,0.06,0.33,0.18,0.46c0.18,0.18,0.34,0.2,0.46,0.2
			c0.35,0,0.64-0.3,0.64-0.66v-1.83c0-3.12,1.22-6.05,3.43-8.26c2.2-2.2,5.13-3.41,8.24-3.41l22.96,0.06c2.61,0,8.99,0.9,11.43,9.27
			c5.91,20.25,12.72,36.72,18.21,44.07c0.21,0.28,0.42,0.55,0.63,0.81c3.64,4.65,3.24,11.29-0.93,15.45l-15.17,15.17
			c-2.2,2.2-5.13,3.42-8.25,3.42c-3.16-0.01-6.1-1.24-8.29-3.46l-1.3-1.31c-0.04-0.04-0.13-0.08-0.16-0.09l-0.11-0.03
			c-0.27-0.08-0.49,0.06-0.62,0.19c-0.21,0.37-0.18,0.71,0.03,0.93l19.32,19.32c0.13,0.13,0.29,0.2,0.47,0.2
			c0.11,0,0.28-0.02,0.46-0.2c0.12-0.12,0.18-0.27,0.18-0.46c0-0.18-0.06-0.32-0.18-0.45l-1.31-1.31c-2.2-2.2-3.42-5.13-3.42-8.25
			c0-3.12,1.21-6.04,3.42-8.25l15.32-15.32c4.13-4.14,10.75-4.56,15.38-0.99c12.76,9.86,27.97,16.01,43.97,17.77
			c5.92,0.65,10.39,5.64,10.39,11.59v22.34c0,6.43-5.23,11.67-11.67,11.67H300.64z M52.34,82.92v150.52
			c0,32.77,13.52,64.48,37.08,87.02c27.71,26.5,67.88,60.2,103.23,71.76c0.32-0.36,0.65-0.71,0.99-1.05
			c4.56-4.53,10.57-7.01,16.95-7.01c2.22,0,4.38,0.3,6.44,0.88c0.71,0.19,1.41,0.42,2.09,0.68l1.7-1.7
			c-6.01-10.71-11.14-24.81-14.83-36.5l-4.73-0.01c-3.81,8.43-12.29,14.13-21.86,14.13c-6.4,0-12.42-2.5-16.96-7.03
			c-4.53-4.52-7.02-10.54-7.02-16.96v-23.86c-22.68-7.52-42.16-21.49-56.57-40.6c-15.46-20.5-23.62-45.01-23.62-70.89
			c0-64.81,52.73-117.54,117.54-117.54c25.88,0,50.4,8.18,70.91,23.65c19.14,14.44,33.11,33.96,40.61,56.67h22.95
			c2.04,0,4.04,0.25,5.97,0.75V82.92L192.81,42.87L52.34,82.92z M201.3,300.46h3.24c1.91-9.23,5.05-18.28,9.28-26.8H166.6
			c-6.43,0-11.67-5.23-11.67-11.67v-21.82h-21.84c-6.43,0-11.67-5.23-11.67-11.67v-52.41c0-6.43,5.23-11.67,11.67-11.67h21.84
			v-21.82c0-6.43,5.23-11.67,11.67-11.67H219c6.43,0,11.67,5.23,11.67,11.67v21.82h21.82c6.43,0,11.67,5.23,11.67,11.67v47.28
			c8.23-4.07,16.96-7.14,25.92-9.07v-3.37c-8.45-3.8-14.15-12.29-14.15-21.87c0-6.09,2.25-11.83,6.37-16.28
			c-12.66-38.87-48.13-64.71-89.49-64.71c-51.95,0-94.21,42.26-94.21,94.21c0,40.97,26.68,77.32,65.34,89.7
			c4.3-3.66,9.75-5.69,15.5-5.69c6.38,0,12.39,2.48,16.93,6.99C198.44,295.4,200.11,297.82,201.3,300.46z M178.26,250.33h9.81
			c-2.07-3.59-3.17-7.67-3.17-11.92c0.03-6.42,2.52-12.43,7.01-16.95l19.38-19.36c4.52-4.52,10.54-7.01,16.95-7.01
			c4.52,0,8.84,1.24,12.58,3.55v-10.87H219c-6.43,0-11.67-5.23-11.67-11.67v-21.82h-29.08v21.82c0,6.43-5.23,11.67-11.67,11.67
			h-21.84v29.08h21.84c6.43,0,11.67,5.23,11.67,11.67V250.33z M340.78,187.21c0.08,0.61,0.13,1.23,0.13,1.87
			c0,0.65-0.04,1.29-0.13,1.92l1.87-1.89L340.78,187.21z"/>
	</g>
	<g>
		<path class="st1" d="M285.34,299.01c1.2,0.18,2.44,0.27,3.69,0.27c13.57,0,24.62-11.05,24.62-24.63c0-12.3-9.07-22.52-20.87-24.33
			c-1.22-0.19-2.47-0.28-3.74-0.28c-2.07,0-4.13,0.26-6.14,0.77c-10.89,2.79-18.49,12.6-18.49,23.85c0,0.28,0,0.54,0.02,0.81
			C264.8,287.57,273.7,297.29,285.34,299.01z M285.45,260.8c1.16-0.3,2.37-0.45,3.58-0.45c7.88,0,14.29,6.41,14.29,14.29
			c0,7.88-6.41,14.3-14.29,14.3c-7.79,0-14.07-6.1-14.29-13.88c0-0.08-0.01-0.14-0.01-0.22l0-0.19
			C274.73,268.12,279.14,262.42,285.45,260.8z"/>
		<path class="st1" d="M289.03,305.78c-1.56,0-3.12-0.11-4.64-0.34l0,0c-14.83-2.19-25.94-14.67-26.47-29.69
			c-0.02-0.37-0.03-0.72-0.03-1.1c0-14.22,9.61-26.61,23.38-30.15c4.09-1.04,8.36-1.24,12.48-0.61
			c15.04,2.3,26.39,15.53,26.39,30.76C320.14,291.81,306.19,305.78,289.03,305.78z M281.23,274.61c0,0.07,0.01,0.14,0.01,0.21
			c0.12,4.3,3.54,7.62,7.79,7.62c4.29,0,7.79-3.5,7.79-7.8c0-4.29-3.49-7.79-7.79-7.79c-0.67,0-1.34,0.08-1.97,0.24
			C283.63,267.98,281.24,271.07,281.23,274.61z"/>
	</g>
	<g>
		<path class="st1" d="M361.6,307.67c-2.72-0.85-5.62,0.67-6.47,3.39c-0.85,2.72,0.67,5.62,3.39,6.47
			c8.95,2.8,14.97,10.99,14.97,20.37c0,11.77-9.57,21.34-21.34,21.34c-7.56,0-14.62-4.06-18.44-10.59c-1.44-2.46-4.6-3.29-7.07-1.85
			c-2.46,1.44-3.29,4.6-1.85,7.07c5.66,9.69,16.15,15.71,27.36,15.71c17.46,0,31.67-14.21,31.67-31.67
			C383.81,323.98,374.89,311.83,361.6,307.67z"/>
		<path class="st1" d="M352.14,376.08c-13.51,0-26.14-7.25-32.97-18.92c-3.25-5.56-1.37-12.71,4.18-15.96
			c5.56-3.24,12.71-1.37,15.96,4.18c2.66,4.55,7.57,7.37,12.83,7.37c8.18,0,14.84-6.66,14.84-14.84c0-6.53-4.18-12.22-10.41-14.17
			c-6.14-1.92-9.57-8.47-7.65-14.61c1.92-6.14,8.47-9.58,14.61-7.66l0.01,0c16.01,5.01,26.77,19.65,26.77,36.44
			C390.31,358.96,373.19,376.08,352.14,376.08z"/>
	</g>
	<g>
		<path class="st1" d="M284.77,345.28c-3.53-2.64-7.74-4.04-12.17-4.04c-11.23,0-20.37,9.14-20.37,20.37c0,3.02,0.64,5.91,1.89,8.56
			c3.31,7.17,10.57,11.81,18.47,11.81c11.23,0,20.37-9.14,20.37-20.37C292.97,355.21,289.9,349.1,284.77,345.28z M272.6,371.64
			c-3.9,0-7.47-2.28-9.11-5.85c-0.61-1.29-0.92-2.7-0.92-4.18c0-5.53,4.5-10.04,10.04-10.04c2.18,0,4.25,0.68,5.99,1.99
			c2.57,1.92,4.05,4.85,4.05,8.05C282.64,367.13,278.14,371.64,272.6,371.64z"/>
		<path class="st1" d="M272.6,388.47c-10.43,0-20-6.12-24.38-15.58c-1.65-3.48-2.49-7.29-2.49-11.28
			c0-14.81,12.05-26.87,26.87-26.87c5.84,0,11.4,1.84,16.06,5.33c6.77,5.05,10.8,13.1,10.8,21.53
			C299.47,376.41,287.42,388.47,272.6,388.47z M272.6,358.06c-1.95,0-3.54,1.59-3.54,3.54c0,0.52,0.1,0.98,0.3,1.41
			c0.61,1.31,1.87,2.13,3.24,2.13c1.95,0,3.54-1.59,3.54-3.54c0-1.14-0.51-2.15-1.43-2.84C274.08,358.3,273.38,358.06,272.6,358.06z
			"/>
	</g>
	<g>
		<path class="st1" d="M258.68,323.23c0-7.47-6.08-13.55-13.55-13.55c-7.46,0-13.53,6.08-13.53,13.55s6.07,13.55,13.53,13.55
			C252.61,336.78,258.68,330.7,258.68,323.23z M245.14,326.45c-1.77,0-3.2-1.44-3.2-3.22s1.44-3.22,3.2-3.22
			c1.77,0,3.22,1.44,3.22,3.22S246.91,326.45,245.14,326.45z"/>
		<path class="st1" d="M245.14,343.28c-11.05,0-20.03-8.99-20.03-20.05c0-11.05,8.99-20.05,20.03-20.05
			c11.05,0,20.05,8.99,20.05,20.05C265.18,334.28,256.19,343.28,245.14,343.28z M245.14,319.95c-1.81,0-3.28,1.47-3.28,3.28
			s1.47,3.28,3.28,3.28c1.82,0,3.3-1.47,3.3-3.28S246.96,319.95,245.14,319.95z"/>
	</g>
	<g>
		<path class="st1" d="M331.75,333.32c7.47,0,13.55-6.08,13.55-13.55c0-7.47-6.08-13.55-13.55-13.55c-7.46,0-13.53,6.08-13.53,13.55
			C318.22,327.25,324.29,333.32,331.75,333.32z M331.75,316.56c1.77,0,3.22,1.44,3.22,3.22c0,1.77-1.44,3.22-3.22,3.22
			c-1.77,0-3.2-1.44-3.2-3.22C328.55,318,329.99,316.56,331.75,316.56z"/>
		<path class="st1" d="M331.75,339.82c-11.05,0-20.03-8.99-20.03-20.05c0-11.05,8.99-20.05,20.03-20.05
			c11.05,0,20.05,8.99,20.05,20.05C351.8,330.83,342.81,339.82,331.75,339.82z M331.75,316.49c-1.81,0-3.28,1.47-3.28,3.28
			c0,1.81,1.47,3.28,3.28,3.28c1.82,0,3.3-1.47,3.3-3.28C335.05,317.97,333.57,316.49,331.75,316.49z"/>
	</g>
	<g>
		<path class="st1" d="M345.54,288.19c7.47,0,13.55-6.08,13.55-13.55c0-7.46-6.08-13.53-13.55-13.53c-3.08,0-6.1,1.07-8.51,3.02
			c-3.19,2.57-5.03,6.4-5.03,10.52c0,1.3,0.18,2.6,0.56,3.91C334.29,284.23,339.62,288.19,345.54,288.19z M343.51,272.17
			c0.41-0.33,1.1-0.73,2.03-0.73c1.77,0,3.22,1.44,3.22,3.2c0,1.77-1.44,3.22-3.22,3.22c-1.4,0-2.67-0.95-3.07-2.25
			c-0.09-0.32-0.14-0.63-0.14-0.97C342.33,273.68,342.76,272.78,343.51,272.17z"/>
		<path class="st1" d="M345.54,294.69c-8.75,0-16.64-5.86-19.19-14.25c-0.57-1.96-0.84-3.88-0.84-5.79c0-6.09,2.72-11.77,7.45-15.58
			c3.56-2.87,8.03-4.45,12.58-4.45c11.05,0,20.05,8.99,20.05,20.03C365.58,285.7,356.59,294.69,345.54,294.69z M343.46,272.11
			c-0.73,0.6-1.2,1.52-1.2,2.54c0,1.82,1.47,3.3,3.28,3.3c0.74,0,1.49-0.26,2.05-0.71l0,0c0.78-0.63,1.25-1.6,1.25-2.59
			c0-0.27-0.04-0.56-0.12-0.83c-0.46-1.53-1.7-2.46-3.18-2.46C344.75,271.36,344.02,271.64,343.46,272.11l0.05,0.07L343.46,272.11z"
			/>
	</g>
	<g>
		<path class="st1" d="M312.51,379.88c-7.47,0-13.55,6.07-13.55,13.53c0,7.47,6.08,13.55,13.55,13.55c7.47,0,13.55-6.08,13.55-13.55
			C326.06,385.96,319.98,379.88,312.51,379.88z M312.51,396.64c-1.77,0-3.22-1.44-3.22-3.22c0-1.77,1.44-3.2,3.22-3.2
			c1.77,0,3.22,1.44,3.22,3.2C315.73,395.19,314.28,396.64,312.51,396.64z"/>
		<path class="st1" d="M312.51,413.47c-11.05,0-20.05-8.99-20.05-20.05c0-11.05,8.99-20.03,20.05-20.03s20.05,8.99,20.05,20.03
			C332.56,404.47,323.56,413.47,312.51,413.47z M312.51,390.14c-1.81,0-3.28,1.47-3.28,3.28c0,1.82,1.47,3.3,3.28,3.3
			c1.81,0,3.28-1.48,3.28-3.3C315.79,391.61,314.32,390.14,312.51,390.14z"/>
	</g>
</g>
<path class="st1" d="M330.59,219.7c3.08,0.5,6.13,1.16,9.15,1.93v-20.35c-0.05,0.05-0.09,0.1-0.14,0.15
	c-2.46,2.5-5.59,4.15-9.01,4.8V219.7z"/>
<g>
	<path class="st1" d="M345.54,277.86c1.77,0,3.22-1.44,3.22-3.22c0-1.77-1.44-3.2-3.22-3.2c-0.93,0-1.61,0.4-2.03,0.73
		c-0.75,0.6-1.18,1.5-1.18,2.47c0,0.34,0.04,0.66,0.14,0.97C342.86,276.91,344.13,277.86,345.54,277.86z"/>
	<path class="st1" d="M331.75,322.99c1.77,0,3.22-1.44,3.22-3.22c0-1.77-1.44-3.22-3.22-3.22c-1.77,0-3.2,1.44-3.2,3.22
		C328.55,321.55,329.99,322.99,331.75,322.99z"/>
	<path class="st1" d="M274.74,275.06c0.22,7.79,6.5,13.88,14.29,13.88c7.88,0,14.29-6.41,14.29-14.3c0-7.88-6.41-14.29-14.29-14.29
		c-1.21,0-2.42,0.15-3.58,0.45c-6.31,1.62-10.72,7.31-10.72,13.84l0,0.19C274.73,274.92,274.74,274.98,274.74,275.06z"/>
	<path class="st1" d="M247.32,223.35v-42.08H219c-2.85,0-5.17-2.31-5.17-5.17v-28.32h-42.07v28.32c0,2.85-2.31,5.17-5.17,5.17
		h-28.34v42.08h28.34c2.85,0,5.17,2.31,5.17,5.17v28.32h42.07v-1.66c-1.59,0.47-3.25,0.71-4.95,0.71c0,0-0.01,0-0.01,0
		c-4.67,0-9.05-1.81-12.35-5.11c-3.31-3.31-5.13-7.7-5.13-12.36c0.02-4.68,1.84-9.07,5.12-12.36l19.36-19.35
		c6.81-6.81,17.9-6.81,24.72,0c3.29,3.27,5.11,7.67,5.11,12.36c0,1.46-0.19,2.9-0.54,4.28H247.32z"/>
	<path class="st1" d="M215.31,391.3c1.77,0.48,3.5,1.28,5.08,2.35l8.64-8.63c-7.8-11.92-14.44-31.41-18.22-43.98L196.57,341
		c-1.57,8.05-8.66,14.14-17.15,14.14c-4.66,0-9.05-1.82-12.36-5.13c-3.3-3.29-5.11-7.68-5.11-12.36v-27.36
		c0-0.43,0.03-0.85,0.07-1.27C114.5,295.4,81.75,252.24,81.75,202.3c0-61.23,49.81-111.04,111.04-111.04
		c49.93,0,93.14,32.8,106.73,80.34c0.13,0,0.26-0.02,0.38-0.02h27.36c4.88,0,9.3,2.02,12.47,5.26V78.01l-146.93-41.9L45.84,78.01
		v155.43c0,34.53,14.25,67.96,39.09,91.72c28.87,27.61,70.85,62.66,107.86,73.92c1.22-0.37,2.43-0.77,3.64-1.18
		c0.53-0.74,1.13-1.46,1.81-2.13c3.32-3.3,7.71-5.11,12.36-5.11C212.24,390.66,213.82,390.88,215.31,391.3z"/>
	<path class="st1" d="M289.71,174.91c-12.17-43.36-51.48-73.31-96.92-73.31c-55.53,0-100.71,45.18-100.71,100.71
		c0,45.62,30.13,85,73.72,97.05c3.28-4.07,8.25-6.54,13.61-6.54c4.65,0,9.04,1.81,12.35,5.1c2.49,2.49,4.15,5.61,4.81,9.05h13.37
		c0.11-0.72,0.24-1.43,0.37-2.14c2.66-15.21,8.8-29.81,17.82-42.47l-3.97-3.98V262c0,2.85-2.31,5.17-5.17,5.17H166.6
		c-2.85,0-5.17-2.31-5.17-5.17v-28.32h-28.34c-2.85,0-5.17-2.31-5.17-5.17v-52.41c0-2.85,2.31-5.17,5.17-5.17h28.34v-28.32
		c0-2.85,2.31-5.17,5.17-5.17H219c2.85,0,5.17,2.31,5.17,5.17v28.32h28.32c2.85,0,5.17,2.31,5.17,5.17v52.41
		c0,2.85-2.31,5.17-5.17,5.17h-4.93l4.54,4.54c12.8-9.27,27.65-15.57,43.22-18.31c0.41-0.07,0.83-0.14,1.25-0.21v-13.47
		c-8.05-1.56-14.15-8.66-14.15-17.15c0-4.67,1.82-9.07,5.13-12.37C288.22,176.04,288.95,175.45,289.71,174.91z"/>
	<path class="st1" d="M245.14,320.01c-1.77,0-3.2,1.44-3.2,3.22s1.44,3.22,3.2,3.22c1.77,0,3.22-1.44,3.22-3.22
		S246.91,320.01,245.14,320.01z"/>
	<path class="st1" d="M312.51,390.22c-1.77,0-3.22,1.44-3.22,3.2c0,1.77,1.44,3.22,3.22,3.22c1.77,0,3.22-1.44,3.22-3.22
		C315.73,391.65,314.28,390.22,312.51,390.22z"/>
	<path class="st1" d="M278.59,353.55c-1.74-1.3-3.8-1.99-5.99-1.99c-5.53,0-10.04,4.5-10.04,10.04c0,1.48,0.31,2.89,0.92,4.18
		c1.65,3.57,5.22,5.85,9.11,5.85c5.53,0,10.04-4.5,10.04-10.04C282.64,358.4,281.16,355.47,278.59,353.55z"/>
	<path class="st1" d="M447,302.39c-3.94,0-7.14,3.21-7.14,7.16v1.83c0,2.85-2.31,5.17-5.17,5.17h-22.08c-2.62,0-4.82-1.96-5.13-4.56
		c-2.03-17.17-8.76-33.46-19.48-47.11c-1.61-2.06-1.44-4.99,0.41-6.84l14.94-14.94c2.02-2.02,5.29-2.02,7.3,0l1.31,1.31
		c1.34,1.35,3.11,2.09,4.98,2.09c0.01,0,0.02,0,0.03,0c1.94,0,3.73-0.74,5.08-2.09c2.78-2.79,2.79-7.33,0.01-10.11l-19.36-19.35
		c-1.34-1.35-3.14-2.1-5.06-2.1c-1.89,0-3.69,0.75-5.05,2.1c-2.78,2.78-2.78,7.32,0.01,10.12l1.29,1.29c2.02,2.02,2.02,5.28,0,7.3
		l-14.89,14.91c-1.85,1.85-4.8,2.02-6.86,0.4c-8.67-6.85-18.39-12.09-28.88-15.56c-5.97-1.98-12.18-3.36-18.47-4.1
		c-2.6-0.31-4.56-2.51-4.56-5.13v-22.8c0-2.85,2.31-5.17,5.17-5.17h1.84c1.91,0,3.69-0.74,5.02-2.08c1.39-1.37,2.13-3.16,2.13-5.06
		c0-3.95-3.2-7.16-7.14-7.16H299.9c-0.82,0-1.63,0.14-2.41,0.43c-1,0.35-1.9,0.93-2.67,1.68c-1.33,1.33-2.08,3.13-2.08,5.05
		c0,3.94,3.21,7.14,7.16,7.14h1.83c2.85,0,5.17,2.31,5.17,5.17v22.8c0,2.62-1.96,4.82-4.55,5.13c-1.88,0.22-3.59,0.48-5.22,0.77
		c-15.41,2.71-30.03,9.28-42.28,19.02c-2.06,1.63-5.01,1.47-6.87-0.39L232,232.73c-2.02-2.02-2.02-5.29,0-7.3l0.56-0.56c0,0,0,0,0,0
		l0.74-0.74c1.34-1.35,2.09-3.15,2.09-5.06c0-1.92-0.74-3.71-2.08-5.04c-2.79-2.8-7.33-2.8-10.12-0.01l-19.35,19.34
		c-1.34,1.35-2.09,3.16-2.1,5.09c0,1.88,0.75,3.68,2.1,5.03c1.34,1.34,3.13,2.08,5.04,2.08c0,0,0,0,0,0c1.91,0,3.71-0.75,5.06-2.1
		l1.3-1.3c2.02-2.02,5.29-2.02,7.3,0l0.1,0.1c0,0,0,0,0,0l15.95,15.95c1.85,1.84,2.02,4.78,0.42,6.83
		c-9.49,12.14-15.9,26.53-18.54,41.6c-0.37,2-0.66,4.03-0.88,6.05c-0.29,2.62-2.5,4.6-5.14,4.6h-22.74c-2.85,0-5.17-2.31-5.17-5.17
		v-1.84c0-0.43-0.03-0.84-0.1-1.22c-0.25-1.46-0.94-2.78-1.99-3.83c-1.35-1.34-3.15-2.09-5.06-2.09c-2.82,0-5.39,1.67-6.54,4.26
		c-0.4,0.9-0.6,1.87-0.6,2.89v27.36c0,1.91,0.74,3.71,2.09,5.05c1.36,1.36,3.15,2.1,5.06,2.1c3.94,0,7.14-3.21,7.14-7.16v-1.83
		c0-1.37,0.55-2.69,1.52-3.66c0.97-0.97,2.28-1.51,3.65-1.51c0,0,0.01,0,0.01,0l22.93,0.06c3.87,0,4.88,3.46,5.21,4.59
		c6.21,21.27,13.22,38.09,19.24,46.14c0.24,0.32,0.48,0.63,0.72,0.94c1.61,2.06,1.43,4.99-0.41,6.84l-15.17,15.17
		c-0.97,0.97-2.28,1.51-3.65,1.51c0,0-0.01,0-0.01,0c-1.37,0-2.69-0.56-3.66-1.53l-1.3-1.31c-0.87-0.86-1.95-1.49-3.1-1.8
		c-2.51-0.72-5.16-0.01-7,1.83c-0.47,0.47-0.86,0.99-1.15,1.53c-1.58,2.84-1.08,6.34,1.16,8.59l19.33,19.33
		c1.36,1.35,3.16,2.1,5.07,2.1c1.9,0,3.7-0.75,5.06-2.1c1.34-1.34,2.08-3.14,2.08-5.06c0-1.91-0.75-3.7-2.09-5.05l-1.3-1.3
		c-2.02-2.02-2.02-5.29,0-7.3l15.32-15.32c1.84-1.84,4.75-2.02,6.81-0.44c13.7,10.59,30.04,17.19,47.23,19.08
		c2.62,0.29,4.6,2.5,4.6,5.13v22.34c0,2.85-2.31,5.17-5.17,5.17h-1.84c-1.91,0-3.69,0.74-5.02,2.08c-1.37,1.37-2.11,3.15-2.11,5.06
		c0,3.95,3.2,7.16,7.13,7.16H328c1.9,0,3.71-0.75,5.09-2.11c1.32-1.33,2.07-3.13,2.07-5.05c0-3.94-3.21-7.14-7.16-7.14h-1.83
		c-2.85,0-5.17-2.31-5.17-5.17v-22.51c0-2.6,1.94-4.8,4.52-5.12c16.97-2.14,33.08-8.9,46.57-19.55c2.04-1.61,4.96-1.45,6.82,0.36
		l16.96,16.62c0.98,0.96,1.54,2.28,1.55,3.65c0.01,1.37-0.53,2.7-1.49,3.67l-1.3,1.31c-1.37,1.37-2.12,3.16-2.11,5.05
		c0,1.93,0.74,3.72,2.09,5.06c2.79,2.79,7.33,2.79,10.12,0.01l19.34-19.34c1.35-1.34,2.09-3.14,2.09-5.07c0-1.92-0.73-3.7-2.07-5.02
		c-1.37-1.38-3.16-2.12-5.06-2.12c0,0,0,0-0.01,0c-1.91,0-3.71,0.75-5.06,2.1l-1.3,1.3c-0.97,0.97-2.28,1.51-3.65,1.51
		c-0.01,0-0.02,0-0.03,0c-1.38-0.01-2.7-0.57-3.66-1.56l-16.65-17.06c-1.8-1.85-1.96-4.74-0.38-6.78
		c10.53-13.55,17.17-29.7,19.18-46.7c0.31-2.6,2.51-4.56,5.13-4.56h22.09c2.85,0,5.17,2.31,5.17,5.17v1.84
		c0,1.91,0.74,3.71,2.09,5.06c1.35,1.34,3.15,2.09,5.06,2.09c3.95,0,7.16-3.21,7.16-7.14v-27.36c0-1.9-0.75-3.7-2.1-5.06
		C450.7,303.13,448.91,302.39,447,302.39z M337.03,264.13c2.41-1.94,5.43-3.02,8.51-3.02c7.47,0,13.55,6.07,13.55,13.53
		c0,7.47-6.08,13.55-13.55,13.55c-5.91,0-11.25-3.96-12.97-9.64c-0.38-1.31-0.56-2.6-0.56-3.91
		C332,270.53,333.84,266.7,337.03,264.13z M331.75,306.23c7.47,0,13.55,6.08,13.55,13.55c0,7.47-6.08,13.55-13.55,13.55
		c-7.46,0-13.53-6.08-13.53-13.55C318.22,312.3,324.29,306.23,331.75,306.23z M282.89,250.8c2.01-0.51,4.07-0.77,6.14-0.77
		c1.27,0,2.52,0.1,3.74,0.28c11.8,1.81,20.87,12.03,20.87,24.33c0,13.58-11.04,24.63-24.62,24.63c-1.26,0-2.49-0.09-3.69-0.27
		c-11.63-1.72-20.53-11.44-20.92-23.55c-0.02-0.27-0.02-0.53-0.02-0.81C264.4,263.4,272,253.59,282.89,250.8z M245.14,336.78
		c-7.46,0-13.53-6.08-13.53-13.55s6.07-13.55,13.53-13.55c7.47,0,13.55,6.08,13.55,13.55S252.61,336.78,245.14,336.78z
		 M272.6,381.97c-7.91,0-15.16-4.63-18.47-11.81c-1.25-2.64-1.89-5.54-1.89-8.56c0-11.23,9.14-20.37,20.37-20.37
		c4.43,0,8.64,1.4,12.17,4.04c5.13,3.82,8.19,9.93,8.19,16.32C292.97,372.83,283.83,381.97,272.6,381.97z M312.51,406.97
		c-7.47,0-13.55-6.08-13.55-13.55c0-7.46,6.08-13.53,13.55-13.53c7.47,0,13.55,6.07,13.55,13.53
		C326.06,400.89,319.98,406.97,312.51,406.97z M352.14,369.58c-11.21,0-21.69-6.02-27.36-15.71c-1.44-2.46-0.61-5.63,1.85-7.07
		c2.46-1.44,5.63-0.61,7.07,1.85c3.82,6.53,10.88,10.59,18.44,10.59c11.77,0,21.34-9.57,21.34-21.34c0-9.39-6.01-17.58-14.97-20.37
		c-2.72-0.85-4.24-3.75-3.39-6.47c0.85-2.72,3.75-4.24,6.47-3.39c13.29,4.16,22.21,16.31,22.21,30.24
		C383.81,355.37,369.61,369.58,352.14,369.58z"/>
</g>
<path class="st0" d="M459.37,297.19c-3.31-3.31-7.7-5.13-12.37-5.13c-8.5,0-15.6,6.1-17.16,14.15H417.1
	c-2.59-15.87-8.82-30.94-18.21-44.04l8.33-8.33c2.85,1.94,6.2,2.99,9.71,2.99c0.03,0,0.05,0,0.08,0c4.67,0,9.06-1.82,12.37-5.12
	c6.81-6.83,6.81-17.91,0.01-24.72l-19.35-19.34c-3.27-3.29-7.65-5.12-12.36-5.14c-4.67,0-9.07,1.82-12.37,5.13
	c-6,6-6.71,15.34-2.13,22.14l-8.29,8.3c-7.65-5.52-15.97-9.96-24.82-13.24V74.11c0-2.31-1.53-4.34-3.75-4.97l-152.1-43.37
	c-0.93-0.26-1.91-0.26-2.83,0L39.26,69.15c-2.22,0.63-3.75,2.66-3.75,4.97v159.33c0,37.34,15.41,73.49,42.28,99.19
	c30.08,28.77,74.2,65.45,113.58,76.81c0.47,0.13,0.95,0.2,1.43,0.2c0.14,0,0.28-0.02,0.41-0.03c0.34,4.02,2.05,7.91,5.03,10.9
	l19.34,19.35c3.32,3.3,7.71,5.12,12.36,5.12c4.66,0,9.05-1.82,12.37-5.14c3.29-3.3,5.11-7.69,5.1-12.36c0-3.54-1.05-6.92-2.99-9.78
	l8.74-8.74c13.16,9.28,28.26,15.39,44.15,17.86v12.97c-3.42,0.65-6.55,2.31-9.01,4.81c-3.3,3.28-5.12,7.67-5.12,12.36
	c0,9.64,7.83,17.49,17.46,17.49H328c4.64,0,9.02-1.81,12.38-5.13c3.29-3.31,5.1-7.7,5.1-12.36c0-8.5-6.1-15.6-14.15-17.15v-13.2
	c15.68-2.68,30.57-8.93,43.52-18.27l10.29,10.09c-1.94,2.87-2.97,6.24-2.96,9.75c0,4.67,1.82,9.05,5.11,12.34
	c6.81,6.81,17.9,6.82,24.72,0.02l19.34-19.34c3.31-3.28,5.13-7.68,5.13-12.39s-1.82-9.1-5.11-12.34c-3.29-3.31-7.68-5.13-12.34-5.13
	c-0.01,0-0.01,0-0.01,0c-3.52,0-6.88,1.03-9.74,2.96l-10.15-10.4c9.24-13,15.38-27.93,17.95-43.64h12.75
	c0.65,3.41,2.3,6.54,4.81,9.05c3.31,3.29,7.7,5.1,12.35,5.1c9.64,0,17.49-7.84,17.49-17.47v-27.36c0-4.65-1.81-9.03-5.1-12.35
	C459.38,297.2,459.38,297.19,459.37,297.19z M196.44,397.9c-1.21,0.41-2.42,0.81-3.64,1.18c-37.02-11.26-79-46.31-107.86-73.92
	c-24.84-23.76-39.09-57.19-39.09-91.72V78.01l146.96-41.9l146.93,41.9v98.84c-3.17-3.24-7.59-5.26-12.47-5.26H299.9
	c-0.13,0-0.26,0.01-0.38,0.02c-13.58-47.55-56.8-80.34-106.73-80.34c-61.23,0-111.04,49.81-111.04,111.04
	c0,49.93,32.75,93.1,80.26,106.72c-0.03,0.42-0.07,0.84-0.07,1.27v27.36c0,4.68,1.82,9.07,5.11,12.36c3.31,3.31,7.7,5.13,12.36,5.13
	c8.49,0,15.59-6.09,17.15-14.14l14.23,0.04c3.78,12.57,10.42,32.07,18.22,43.98l-8.64,8.63c-1.58-1.07-3.31-1.87-5.08-2.35
	c-1.49-0.43-3.07-0.64-4.7-0.64c-4.65,0-9.04,1.81-12.36,5.11C197.57,396.44,196.97,397.16,196.44,397.9z M339.74,201.29v20.35
	c-3.02-0.77-6.07-1.43-9.15-1.93v-13.46c3.42-0.65,6.55-2.31,9.01-4.8C339.65,201.39,339.69,201.33,339.74,201.29z M296.57,206.23
	v13.47c-0.42,0.07-0.84,0.14-1.25,0.21c-15.57,2.73-30.42,9.03-43.22,18.31l-4.54-4.54h4.93c2.85,0,5.17-2.31,5.17-5.17v-52.41
	c0-2.85-2.31-5.17-5.17-5.17h-28.32v-28.32c0-2.85-2.31-5.17-5.17-5.17H166.6c-2.85,0-5.17,2.31-5.17,5.17v28.32h-28.34
	c-2.85,0-5.17,2.31-5.17,5.17v52.41c0,2.85,2.31,5.17,5.17,5.17h28.34V262c0,2.85,2.31,5.17,5.17,5.17H219
	c2.85,0,5.17-2.31,5.17-5.17v-3.62l3.97,3.98c-9.02,12.66-15.16,27.26-17.82,42.47c-0.13,0.71-0.25,1.42-0.37,2.14h-13.37
	c-0.66-3.44-2.32-6.56-4.81-9.05c-3.31-3.29-7.7-5.1-12.35-5.1c-5.36,0-10.34,2.47-13.61,6.54c-43.59-12.04-73.72-51.43-73.72-97.05
	c0-55.53,45.18-100.71,100.71-100.71c45.44,0,84.75,29.95,96.92,73.31c-0.76,0.54-1.49,1.13-2.17,1.8
	c-3.31,3.31-5.13,7.7-5.13,12.37C282.42,197.57,288.52,204.67,296.57,206.23z M240.6,206.71c-6.82-6.81-17.91-6.81-24.72,0
	l-19.36,19.35c-3.28,3.3-5.1,7.68-5.12,12.36c0,4.66,1.82,9.05,5.13,12.36c3.29,3.29,7.68,5.11,12.35,5.11c0,0,0.01,0,0.01,0
	c1.7,0,3.36-0.25,4.95-0.71v1.66h-42.07v-28.32c0-2.85-2.31-5.17-5.17-5.17h-28.34v-42.08h28.34c2.85,0,5.17-2.31,5.17-5.17v-28.32
	h42.07v28.32c0,2.85,2.31,5.17,5.17,5.17h28.32v42.08h-2.15c0.35-1.38,0.54-2.82,0.54-4.28
	C245.71,214.37,243.89,209.98,240.6,206.71z M454.16,336.91c0,3.94-3.21,7.14-7.16,7.14c-1.9,0-3.7-0.75-5.06-2.09
	c-1.35-1.35-2.09-3.14-2.09-5.06v-1.84c0-2.85-2.31-5.17-5.17-5.17H412.6c-2.62,0-4.82,1.96-5.13,4.56
	c-2.01,17-8.65,33.15-19.18,46.7c-1.58,2.04-1.42,4.93,0.38,6.78l16.65,17.06c0.96,0.99,2.28,1.55,3.66,1.56c0.01,0,0.02,0,0.03,0
	c1.37,0,2.68-0.54,3.65-1.51l1.3-1.3c1.36-1.35,3.15-2.1,5.06-2.1c0,0,0,0,0.01,0c1.9,0,3.69,0.75,5.06,2.12
	c1.33,1.32,2.07,3.1,2.07,5.02c0,1.93-0.74,3.73-2.09,5.07l-19.34,19.34c-2.79,2.78-7.33,2.78-10.12-0.01
	c-1.34-1.34-2.09-3.13-2.09-5.06c-0.01-1.89,0.73-3.68,2.11-5.05l1.3-1.31c0.97-0.98,1.5-2.3,1.49-3.67
	c-0.01-1.37-0.57-2.69-1.55-3.65l-16.96-16.62c-1.86-1.82-4.77-1.98-6.82-0.36c-13.49,10.65-29.6,17.41-46.57,19.55
	c-2.58,0.33-4.52,2.52-4.52,5.12v22.51c0,2.85,2.31,5.17,5.17,5.17H328c3.95,0,7.16,3.2,7.16,7.14c0,1.91-0.75,3.72-2.07,5.05
	c-1.38,1.36-3.19,2.11-5.09,2.11h-27.36c-3.93,0-7.13-3.21-7.13-7.16c0-1.91,0.74-3.7,2.11-5.06c1.32-1.34,3.1-2.08,5.02-2.08h1.84
	c2.85,0,5.17-2.31,5.17-5.17v-22.34c0-2.63-1.98-4.85-4.6-5.13c-17.19-1.89-33.53-8.49-47.23-19.08c-2.06-1.59-4.98-1.4-6.81,0.44
	l-15.32,15.32c-2.02,2.02-2.02,5.29,0,7.3l1.3,1.3c1.35,1.34,2.09,3.14,2.09,5.05c0,1.91-0.74,3.71-2.08,5.06
	c-1.36,1.36-3.15,2.1-5.06,2.1c-1.91,0-3.71-0.75-5.07-2.1l-19.33-19.33c-2.24-2.25-2.74-5.74-1.16-8.59
	c0.29-0.54,0.68-1.06,1.15-1.53c1.84-1.84,4.49-2.56,7-1.83c1.14,0.31,2.23,0.94,3.1,1.8l1.3,1.31c0.97,0.98,2.28,1.53,3.66,1.53
	c0,0,0.01,0,0.01,0c1.37,0,2.68-0.54,3.65-1.51l15.17-15.17c1.85-1.85,2.02-4.78,0.41-6.84c-0.24-0.31-0.49-0.62-0.72-0.94
	c-6.02-8.05-13.03-24.87-19.24-46.14c-0.33-1.14-1.34-4.59-5.21-4.59l-22.93-0.06c0,0-0.01,0-0.01,0c-1.37,0-2.68,0.54-3.65,1.51
	c-0.97,0.97-1.52,2.29-1.52,3.66v1.83c0,3.95-3.2,7.16-7.14,7.16c-1.9,0-3.7-0.75-5.06-2.1c-1.35-1.35-2.09-3.14-2.09-5.05v-27.36
	c0-1.01,0.2-1.99,0.6-2.89c1.15-2.59,3.72-4.26,6.54-4.26c1.9,0,3.7,0.75,5.06,2.09c1.05,1.05,1.73,2.37,1.99,3.83
	c0.07,0.38,0.1,0.8,0.1,1.22v1.84c0,2.85,2.31,5.17,5.17,5.17h22.74c2.63,0,4.85-1.98,5.14-4.6c0.22-2.02,0.52-4.04,0.88-6.05
	c2.64-15.08,9.05-29.46,18.54-41.6c1.61-2.06,1.43-4.99-0.42-6.83l-15.95-15.95c0,0,0,0,0,0l-0.1-0.1c-2.02-2.02-5.29-2.02-7.3,0
	l-1.3,1.3c-1.35,1.35-3.15,2.1-5.06,2.1c0,0,0,0,0,0c-1.91,0-3.7-0.74-5.04-2.08c-1.36-1.36-2.1-3.15-2.1-5.03
	c0.01-1.93,0.76-3.74,2.1-5.09l19.35-19.34c2.79-2.79,7.33-2.79,10.12,0.01c1.34,1.33,2.08,3.12,2.08,5.04
	c0,1.91-0.75,3.71-2.09,5.06l-0.74,0.74c0,0,0,0,0,0l-0.56,0.56c-2.02,2.02-2.02,5.29,0,7.3l15.98,15.98
	c1.85,1.86,4.81,2.02,6.87,0.39c12.25-9.74,26.87-16.31,42.28-19.02c1.63-0.29,3.34-0.54,5.22-0.77c2.6-0.31,4.55-2.51,4.55-5.13
	v-22.8c0-2.85-2.31-5.17-5.17-5.17h-1.83c-3.95,0-7.16-3.2-7.16-7.14c0-1.91,0.75-3.71,2.08-5.05c0.77-0.76,1.67-1.33,2.67-1.68
	c0.78-0.28,1.59-0.43,2.41-0.43h27.36c3.94,0,7.14,3.21,7.14,7.16c0,1.9-0.74,3.69-2.13,5.06c-1.32,1.34-3.1,2.08-5.02,2.08h-1.84
	c-2.85,0-5.17,2.31-5.17,5.17v22.8c0,2.62,1.96,4.82,4.56,5.13c6.29,0.75,12.5,2.12,18.47,4.1c10.49,3.47,20.21,8.7,28.88,15.56
	c2.05,1.62,5,1.45,6.86-0.4l14.89-14.91c2.02-2.02,2.01-5.29,0-7.3l-1.29-1.29c-2.79-2.8-2.79-7.33-0.01-10.12
	c1.36-1.36,3.16-2.1,5.05-2.1c1.93,0.01,3.72,0.75,5.06,2.1l19.36,19.35c2.78,2.78,2.77,7.32-0.01,10.11
	c-1.35,1.35-3.14,2.09-5.08,2.09c-0.01,0-0.02,0-0.03,0c-1.88,0-3.64-0.74-4.98-2.09l-1.31-1.31c-2.02-2.02-5.29-2.02-7.3,0
	l-14.94,14.94c-1.85,1.85-2.02,4.79-0.41,6.84c10.72,13.65,17.45,29.93,19.48,47.11c0.31,2.6,2.51,4.56,5.13,4.56h22.08
	c2.85,0,5.17-2.31,5.17-5.17v-1.83c0-3.95,3.21-7.16,7.14-7.16c1.91,0,3.7,0.74,5.06,2.09c1.35,1.36,2.1,3.16,2.1,5.06V336.91z"/>
<path class="st0" d="M285.34,299.01c1.2,0.18,2.44,0.27,3.69,0.27c13.57,0,24.62-11.05,24.62-24.63c0-12.3-9.07-22.52-20.87-24.33
	c-1.22-0.19-2.47-0.28-3.74-0.28c-2.07,0-4.13,0.26-6.14,0.77c-10.89,2.79-18.49,12.6-18.49,23.85c0,0.28,0,0.54,0.02,0.81
	C264.8,287.57,273.7,297.29,285.34,299.01z M285.45,260.8c1.16-0.3,2.37-0.45,3.58-0.45c7.88,0,14.29,6.41,14.29,14.29
	c0,7.88-6.41,14.3-14.29,14.3c-7.79,0-14.07-6.1-14.29-13.88c0-0.08-0.01-0.14-0.01-0.22l0-0.19
	C274.73,268.12,279.14,262.42,285.45,260.8z"/>
<path class="st0" d="M361.6,307.67c-2.72-0.85-5.62,0.67-6.47,3.39c-0.85,2.72,0.67,5.62,3.39,6.47
	c8.95,2.8,14.97,10.99,14.97,20.37c0,11.77-9.57,21.34-21.34,21.34c-7.56,0-14.62-4.06-18.44-10.59c-1.44-2.46-4.6-3.29-7.07-1.85
	c-2.46,1.44-3.29,4.6-1.85,7.07c5.66,9.69,16.15,15.71,27.36,15.71c17.46,0,31.67-14.21,31.67-31.67
	C383.81,323.98,374.89,311.83,361.6,307.67z"/>
<path class="st0" d="M284.77,345.28c-3.53-2.64-7.74-4.04-12.17-4.04c-11.23,0-20.37,9.14-20.37,20.37c0,3.02,0.64,5.91,1.89,8.56
	c3.31,7.17,10.57,11.81,18.47,11.81c11.23,0,20.37-9.14,20.37-20.37C292.97,355.21,289.9,349.1,284.77,345.28z M272.6,371.64
	c-3.9,0-7.47-2.28-9.11-5.85c-0.61-1.29-0.92-2.7-0.92-4.18c0-5.53,4.5-10.04,10.04-10.04c2.18,0,4.25,0.68,5.99,1.99
	c2.57,1.92,4.05,4.85,4.05,8.05C282.64,367.13,278.14,371.64,272.6,371.64z"/>
<path class="st0" d="M258.68,323.23c0-7.47-6.08-13.55-13.55-13.55c-7.46,0-13.53,6.08-13.53,13.55s6.07,13.55,13.53,13.55
	C252.61,336.78,258.68,330.7,258.68,323.23z M245.14,326.45c-1.77,0-3.2-1.44-3.2-3.22s1.44-3.22,3.2-3.22
	c1.77,0,3.22,1.44,3.22,3.22S246.91,326.45,245.14,326.45z"/>
<path class="st0" d="M331.75,333.32c7.47,0,13.55-6.08,13.55-13.55c0-7.47-6.08-13.55-13.55-13.55c-7.46,0-13.53,6.08-13.53,13.55
	C318.22,327.25,324.29,333.32,331.75,333.32z M331.75,316.56c1.77,0,3.22,1.44,3.22,3.22c0,1.77-1.44,3.22-3.22,3.22
	c-1.77,0-3.2-1.44-3.2-3.22C328.55,318,329.99,316.56,331.75,316.56z"/>
<path class="st0" d="M345.54,288.19c7.47,0,13.55-6.08,13.55-13.55c0-7.46-6.08-13.53-13.55-13.53c-3.08,0-6.1,1.07-8.51,3.02
	c-3.19,2.57-5.03,6.4-5.03,10.52c0,1.3,0.18,2.6,0.56,3.91C334.29,284.23,339.62,288.19,345.54,288.19z M343.51,272.17
	c0.41-0.33,1.1-0.73,2.03-0.73c1.77,0,3.22,1.44,3.22,3.2c0,1.77-1.44,3.22-3.22,3.22c-1.4,0-2.67-0.95-3.07-2.25
	c-0.09-0.32-0.14-0.63-0.14-0.97C342.33,273.68,342.76,272.78,343.51,272.17z"/>
<path class="st0" d="M312.51,379.88c-7.47,0-13.55,6.07-13.55,13.53c0,7.47,6.08,13.55,13.55,13.55c7.47,0,13.55-6.08,13.55-13.55
	C326.06,385.96,319.98,379.88,312.51,379.88z M312.51,396.64c-1.77,0-3.22-1.44-3.22-3.22c0-1.77,1.44-3.2,3.22-3.2
	c1.77,0,3.22,1.44,3.22,3.2C315.73,395.19,314.28,396.64,312.51,396.64z"/>
</svg>
