<?xml version="1.0" encoding="UTF-8"?><svg id="a" xmlns="http://www.w3.org/2000/svg" viewBox="0 0 200 200"><defs><style>.b{fill:#fff;}</style></defs><path class="b" d="m186.78,112.57l-16.73-4.65c-.69-.2-1.48-.2-2.18-.1,1.78-11.38,2.28-23.07,1.19-34.06.69.4,1.48.69,2.38.69h.3l14.85-.89c2.87-.2,5.05-2.67,4.85-5.44-.2-2.87-2.57-4.95-5.44-4.85l-14.85.89c-1.29.1-2.47.69-3.27,1.58-2.18-10.99-6.34-20.99-13.07-28.81.4-.2.79-.4,1.19-.59l13.96-10.2c2.28-1.68,2.77-4.95,1.09-7.23-1.68-2.28-4.95-2.77-7.23-1.09l-13.96,10.2c-.89.69-1.39,1.58-1.78,2.57-4.16-3.27-9.01-5.84-14.75-7.72l-1.78-.59c-3.76-.49-7.03-.49-10-.2.1-.4.2-.69.2-1.09V6.15c0-2.87-2.28-5.15-5.15-5.15s-5.15,2.28-5.15,5.15v14.85c0,1.39.59,2.57,1.39,3.46-8.32,3.96-13.27,11.98-17.23,21.38-.2-.2-.4-.4-.69-.49l-14.85-8.41c-2.47-1.39-5.64-.49-7.03,1.98s-.49,5.64,1.98,7.03l14.85,8.32c.69.4,1.39.59,2.18.59-4.26,11.68-8.51,24.16-16.53,33.36-.1-.2-.2-.49-.3-.69l-11.19-14.85c-1.68-2.28-4.95-2.77-7.23-.99-2.28,1.68-2.77,4.95-.99,7.23l11.19,14.85c.3.49.79.79,1.29,1.09-10.3,7.03-24.35,8.12-32.27,16.53l-12.87-15.64c-1.78-2.18-5.05-2.47-7.23-.69-2.18,1.78-2.47,5.05-.69,7.23l13.07,15.84c.79.99,1.98,1.48,3.07,1.68-2.08,6.24-2.18,11.88-.79,16.93-.2,0-.49-.1-.69-.1l-16.73,1.88c-2.77.3-4.85,2.87-4.55,5.74.3,2.67,2.47,4.55,5.15,4.55h.59l16.73-1.88c1.29-.2,2.47-.79,3.27-1.78,4.06,6.34,10.49,11.58,17.42,15.64-.2.2-.4.3-.49.49l-9.31,13.96c-1.58,2.38-.99,5.54,1.39,7.13.89.59,1.88.89,2.87.89,1.68,0,3.27-.79,4.26-2.28l9.31-13.96c.3-.49.49-1.09.69-1.68,1.19.49,2.38.99,3.46,1.48,7.13,2.97,14.35,5.15,21.58,6.53-.4.59-.59,1.29-.79,1.98l-2.87,17.62c-.4,2.77,1.48,5.44,4.26,5.94.3,0,.49.1.79.1,2.47,0,4.65-1.78,5.15-4.36l2.77-17.62c.1-.69.1-1.48-.1-2.18,8.81.89,17.42.49,25.34-1.48-.2.99-.2,2.08.3,3.17l8.32,17.62c.89,1.88,2.77,2.97,4.65,2.97.69,0,1.48-.2,2.18-.49,2.57-1.19,3.66-4.26,2.47-6.83l-8.32-17.62c-.3-.49-.59-.99-.99-1.39,8.71-3.46,16.43-9.11,22.67-17.03.4.69.99,1.39,1.78,1.88l15.84,9.31c.79.49,1.68.69,2.57.69,1.78,0,3.46-.89,4.45-2.57,1.48-2.47.59-5.64-1.78-7.03l-15.84-9.31c-.59-.4-1.29-.59-1.98-.69,2.18-3.96,4.16-8.22,5.64-12.97,1.58-4.95,3.07-10.2,4.26-15.64.4.2.69.49,1.09.59l16.73,4.65c.49.1.89.2,1.39.2,2.28,0,4.36-1.48,4.95-3.76.69-2.87-.89-5.74-3.66-6.53m-59.99-8.32c-2.77,8.41-9.4,13.27-18.22,13.27-3.56,0-7.33-.79-11.09-2.38-9.11-3.76-12.97-10.39-10.2-17.72,1.68-4.45,5.54-5.84,8.02-6.83.89-.3,1.88-.69,2.38-1.09,1.39-1.09,2.28-3.46,3.17-5.94,1.58-4.36,4.26-11.58,12.77-11.58.69,0,1.29,0,2.08.1l.49.1.49.1.4.1c4.16,1.39,7.42,4.16,9.5,8.12,4.36,9.11,1.19,20.49.2,23.76"/><path class="b" d="m115.3,77.53l-.4-.1c-.49-.1-.99-.1-1.39-.1-8.41,0-6.63,11.78-12.77,16.43-2.87,2.18-7.33,1.98-8.71,5.54-2.18,5.84,2.97,9.31,7.33,11.09,3.07,1.29,6.14,1.98,9.11,1.98,5.94,0,11.19-2.87,13.36-9.7,2.97-9.01,3.17-22.08-6.53-25.15"/></svg>