<?xml version="1.0" encoding="UTF-8"?><svg id="Layer_1" xmlns="http://www.w3.org/2000/svg" viewBox="0 0 200 200"><defs><style>.cls-1{fill:#666;}</style></defs><path class="cls-1" d="M200,101.56c-1.53,3.54-4.23,4.75-8.06,4.74-32.47-.09-64.95-.05-97.42-.05h-2.43c-.21,.59-.42,1.12-.59,1.65-3.5,10.8-13.43,18.09-24.71,18.13-11.14,.04-21.17-7.17-24.68-17.88-.49-1.51-1.12-1.96-2.69-1.95-10.93,.08-21.87,.06-32.8,.03-4.83-.02-7.94-4.49-6.06-8.71,1.19-2.66,3.37-3.8,6.26-3.79,10.87,.02,21.74-.03,32.6,.05,1.58,.01,2.19-.45,2.68-1.96,3.5-10.7,13.54-17.91,24.68-17.87,11.29,.04,21.21,7.32,24.71,18.13,.16,.49,.33,.98,.56,1.65h2.27c32.54,0,65.08,.04,97.62-.05,3.83-.01,6.53,1.19,8.06,4.74v3.12Zm-119.77-1.53c.02-7.47-5.99-13.53-13.45-13.57-7.38-.04-13.55,6.09-13.58,13.49-.03,7.39,6.1,13.54,13.5,13.57,7.42,.03,13.5-6.04,13.52-13.5Z"/><path class="cls-1" d="M200,155.46c-1.38,3.54-3.95,4.92-7.76,4.87-10.61-.14-21.22-.02-31.82-.08-1.4,0-1.98,.4-2.43,1.79-3.5,10.84-13.48,18.05-24.76,18.03-11.26-.02-21.19-7.25-24.65-18.14-.52-1.64-1.42-1.66-2.73-1.66-32.61,.02-65.21,.02-97.82,0-1.1,0-2.24,.03-3.3-.2-2.67-.56-4.69-3.22-4.7-5.99-.01-2.83,1.9-5.4,4.63-6.02,1.06-.24,2.19-.27,3.29-.27,32.48-.01,64.95-.03,97.43,.03,1.86,0,2.75-.35,3.41-2.32,3.55-10.52,13.48-17.45,24.57-17.42,11.12,.03,20.92,6.99,24.46,17.58,.6,1.79,1.42,2.18,3.16,2.17,10.15-.08,20.31,.07,30.46-.1,3.88-.06,6.86,.94,8.56,4.61v3.12Zm-80.2-1.49c-.05,7.47,5.97,13.57,13.41,13.6,7.43,.03,13.57-6.03,13.62-13.44,.05-7.42-6.02-13.53-13.46-13.56-7.52-.03-13.52,5.9-13.56,13.4Z"/><path class="cls-1" d="M200,47.66c-1.68,3.55-4.52,4.67-8.37,4.61-10.41-.16-20.83-.04-31.24-.08-1.25,0-1.91,.22-2.36,1.6-3.56,11.02-13.45,18.17-24.87,18.13-11.32-.04-21.09-7.19-24.62-18.17-.49-1.54-1.36-1.55-2.59-1.55-32.8,.02-65.6,.01-98.4,.01-4.01,0-6.37-1.5-7.27-4.59-1.07-3.64,1.44-7.42,5.22-7.83,.9-.1,1.82-.08,2.73-.08,32.35,0,64.69-.02,97.04,.03,1.92,0,2.85-.35,3.55-2.43,3.56-10.57,13.64-17.51,24.8-17.39,11.02,.11,20.82,7.25,24.3,17.84,.49,1.49,1.09,2,2.69,1.98,10.48-.08,20.96,.06,31.43-.1,3.87-.06,6.53,1.24,7.96,4.87v3.12Zm-66.78,11.76c7.47,.02,13.56-5.99,13.6-13.42,.04-7.4-6.06-13.55-13.48-13.58-7.47-.03-13.51,5.97-13.55,13.45-.04,7.49,5.94,13.52,13.42,13.54Z"/></svg>