<?xml version="1.0" encoding="UTF-8"?><svg id="Layer_1" xmlns="http://www.w3.org/2000/svg" viewBox="0 0 200 200"><defs><style>.cls-1{fill:#666;}</style></defs><path class="cls-1" d="M99.81,112.99c-28.45,0-56.91-.01-85.36,.01-3.58,0-6.92-.6-9.72-3-4.2-3.61-5.58-8.2-4.24-13.5,1.29-5.1,5.65-8.72,10.87-9.33,1.09-.13,2.2-.17,3.29-.17,56.91,0,113.82,0,170.72,0,7.82,0,12.94,3.79,14.35,10.57,1.45,6.95-3.48,14.1-10.51,15.15-1.5,.22-3.04,.25-4.56,.25-28.28,.01-56.57,.01-84.85,.01Z"/><path class="cls-1" d="M100.11,31.44c-28.79,0-57.59,.02-86.38-.01-8.61,0-14.4-6.2-13.61-14.41C.71,10.79,5.89,5.9,12.33,5.51c.93-.06,1.86-.04,2.79-.04,56.57,0,113.14,0,169.72,.03,2.09,0,4.28,.13,6.26,.74,5.95,1.81,9.71,8.04,8.76,14.08-1.01,6.46-6.21,11.07-12.86,11.09-22.36,.06-44.72,.03-67.07,.03-6.61,0-13.21,0-19.82,0Z"/><path class="cls-1" d="M100.2,168.56c28.62,0,57.25,0,85.87,0,6.67,0,11.67,3.5,13.35,9.23,2.35,8.03-3.25,16.07-11.64,16.69-.84,.06-1.69,.04-2.54,.04-56.83,0-113.65,0-170.48-.03-2,0-4.1-.16-6-.76-6.14-1.95-9.64-8.12-8.55-14.65,1-5.99,6.35-10.48,12.84-10.49,29.05-.04,58.1-.02,87.14-.02h0Z"/></svg>