<?xml version="1.0" encoding="UTF-8"?><svg id="Layer_1" xmlns="http://www.w3.org/2000/svg" viewBox="0 0 143 41"><defs><style>.cls-1{fill:#fff;}.cls-2{fill:#ff6000;}</style></defs><g><circle class="cls-1" cx="20.5" cy="20.5" r="20.5"/><path class="cls-2" d="M20.5,2.51C10.57,2.51,2.51,10.57,2.51,20.5s8.06,17.99,17.99,17.99,17.99-8.06,17.99-17.99S30.43,2.51,20.5,2.51Zm-7.94,13.71c0-1.09,.91-1.99,2-1.98,1.09,0,1.99,.92,1.97,2.01,0,1.09-.93,1.98-2.01,1.97-1.08-.02-1.97-.91-1.97-1.99Zm14.91,11.03c-.69,.67-1.45,1.24-2.28,1.69-1.42,.78-3.25,1.22-5.46,1.15-2.03-.07-4.28-1.01-6.18-2.81-.44-.43-.49-1.01-.11-1.44,.38-.42,1-.46,1.44-.04,.91,.85,1.93,1.52,3.14,1.86,2.9,.82,5.53,.34,7.85-1.64,.23-.2,.52-.4,.8-.48,.42-.12,.84,.14,1.02,.52,.21,.41,.13,.85-.23,1.19Zm-1.04-9.04c-1.08-.02-1.97-.9-1.97-1.98s.9-1.99,1.99-1.99,1.99,.91,1.98,2-.92,1.98-2.01,1.97Z"/></g><g><circle class="cls-1" cx="71.5" cy="20.5" r="20.5"/><path class="cls-2" d="M71.5,2.51c-9.93,0-17.99,8.06-17.99,17.99s8.06,17.99,17.99,17.99,17.99-8.06,17.99-17.99S81.43,2.51,71.5,2.51Zm-7.94,13.72c0-1.09,.9-1.99,1.99-1.99s1.99,.91,1.98,2-.92,1.98-2,1.97c-1.08-.02-1.97-.9-1.97-1.98Zm13.81,11.29c-.18,.44-.54,.62-1.01,.62-1.63,0-3.26,0-4.89,0s-3.24,0-4.86,0c-.77,0-1.27-.69-.98-1.37,.18-.42,.53-.62,.98-.62h3.31c2.16,0,4.32,0,6.48,0,.77,0,1.27,.69,.98,1.37Zm.07-9.3c-1.1,0-1.99-.92-1.97-2.01,0-1.08,.9-1.97,1.98-1.97s1.99,.9,1.99,1.99c0,1.09-.91,1.99-2,1.98Z"/></g><g><circle class="cls-1" cx="122.5" cy="20.5" r="20.5"/><path class="cls-2" d="M122.5,2.51c-9.93,0-17.99,8.06-17.99,17.99s8.06,17.99,17.99,17.99,17.99-8.06,17.99-17.99S132.43,2.51,122.5,2.51Zm-7.94,13.71c0-1.09,.91-1.99,2-1.98,1.09,0,1.99,.92,1.97,2.01,0,1.09-.93,1.98-2.01,1.97-1.08-.02-1.97-.91-1.97-1.99Zm14.99,12.21c-.35,.39-.92,.44-1.36,.1-.57-.43-1.1-.9-1.72-1.26-1.21-.74-2.58-1.02-3.99-1.04-2.08,.04-3.92,.7-5.46,2.13-.19,.17-.44,.32-.69,.38-.43,.1-.84-.14-1.03-.53-.19-.39-.13-.83,.19-1.15,.74-.73,1.56-1.36,2.49-1.82,2.65-1.31,5.38-1.45,8.16-.4,1.28,.49,2.39,1.25,3.36,2.21,.39,.39,.4,.97,.04,1.37Zm-1.11-10.22c-1.08-.02-1.97-.9-1.97-1.98s.9-1.99,1.99-1.99,1.99,.91,1.98,2-.92,1.98-2.01,1.97Z"/></g></svg>