<?xml version="1.0" encoding="UTF-8"?><svg id="Layer_1" xmlns="http://www.w3.org/2000/svg" viewBox="0 0 200 200"><defs><style>.cls-1{fill:#fff;}</style></defs><path class="cls-1" d="M84.38,0c3.33,.5,6.69,.86,9.99,1.53,16.84,3.4,31.21,11.32,42.82,24,15.42,16.85,22.44,36.78,20.89,59.56-1,14.66-5.98,28.02-14.54,40-.79,1.11-1.62,2.2-2.43,3.3-.08,.1-.12,.23-.28,.56,.46,.49,.97,1.05,1.51,1.59,18.14,18.14,36.26,36.28,54.42,54.4,2.58,2.58,3.98,5.45,2.88,9.13-1.66,5.55-8.32,7.72-12.93,4.21-.77-.59-1.47-1.28-2.16-1.97-17.96-17.95-35.92-35.9-53.86-53.86-.54-.55-.9-1.27-1.41-2-1.34,.99-2.22,1.63-3.09,2.28-10.08,7.53-21.34,12.47-33.74,14.42-25.04,3.95-47.22-2.47-66.18-19.32C12.22,125.36,3.98,109.6,.89,91.12c-.37-2.23-.6-4.49-.89-6.73,0-3.52,0-7.03,0-10.55,.32-2.31,.57-4.63,.96-6.93,3.2-18.92,11.96-34.78,26.39-47.42C37.9,10.25,50.11,4.29,63.86,1.55c3.3-.66,6.65-1.04,9.98-1.54,3.52,0,7.03,0,10.55,0Zm57.31,79.24c-.21-34.72-28.01-62.4-62.45-62.53-34.33-.13-62.43,27.92-62.53,62.4-.1,34.32,27.89,62.56,62.4,62.53,34.4-.03,62.21-27.44,62.57-62.4Z"/></svg>