<?xml version="1.0" encoding="UTF-8"?><svg id="Layer_1" xmlns="http://www.w3.org/2000/svg" viewBox="0 0 200 200"><defs><style>.cls-1{fill:#fff;stroke-width:0px;}</style></defs><path class="cls-1" d="m190.36,160.96c-12.48-7.44-19.2-18.81-22.23-32.66-6.49-29.66,1.95-55.01,22.37-76.86,2.75-2.94,2.81-3.95.24-7.03-4.08-4.89-8.19-9.75-12.2-14.68-1.38-1.69-2.88-2.34-5.12-2.06-9.03,1.13-17.96.74-26.53-2.67-10.39-4.13-17.4-11.62-21.51-21.96-.52-1.31-1.67-2.37-2.54-3.55h-45.67c-.81,1.05-1.91,1.99-2.39,3.18-6.01,15.14-17.31,23.36-33.28,25.07-5.1.55-10.33.02-15.49-.15-1.65-.05-2.95.29-4,1.57-4.48,5.4-9.01,10.77-13.47,16.19-1.7,2.07-1.5,3.48.58,5.68,9.26,9.79,16.67,20.78,20.9,33.64,6.28,19.08,5.28,38-2.51,56.46-3.51,8.32-9.52,14.69-17.22,19.42-3.23,1.99-3.57,3.29-1.75,6.59,4.29,7.74,8.58,15.47,12.89,23.2,1.68,3.02,2.79,3.38,6.09,2.15,10.98-4.14,22.25-7.01,34.06-7.31,11.35-.28,22.09,1.76,31.31,8.9,2.57,1.98,4.8,4.4,6.98,6.42,3.14-2.67,6.1-5.68,9.52-8.01,8.74-5.94,18.7-7.59,29.06-7.31,11.8.32,23.07,3.15,34.05,7.31,3.28,1.25,4.41.87,6.09-2.16,4.4-7.91,8.8-15.81,13.17-23.72,1.4-2.53,1.03-4.2-1.39-5.64Zm-27.35-122.2c2.67-.24,5.37-.31,8.04-.18.83.04,1.78.8,2.41,1.48,1.52,1.62,2.91,3.36,4.3,5.1,1.36,1.7,1.38,3.06.07,4.81-1.25,1.68-2.54,3.33-3.86,4.96-1.47,1.81-3.36,2.13-4.99.92-1.64-1.22-1.83-3.28-.45-5.21.68-.95,1.42-1.88,2.13-2.82-.8-1.85-1.99-2.54-3.82-2.28-1.16.16-2.36.11-3.53.02-1.8-.14-3.05-1.46-3.16-3.18-.12-1.86.97-3.43,2.86-3.6Zm-8,36.41c1.85-4.4,3.94-8.7,6.12-12.94.84-1.63,2.94-1.93,4.5-1.04,1.56.89,2.2,2.68,1.4,4.42-1.84,3.98-3.67,7.97-5.7,11.86-.51.96-1.77,1.53-2.24,1.92-2.95.05-4.94-2.18-4.08-4.22Zm.11,9.86c1.93.46,2.92,2.25,2.57,4.41-.64,3.94-1.24,7.89-1.8,11.84-.34,2.32-1.84,3.71-3.92,3.49-1.91-.19-3.15-1.75-3.31-3.91.76-4.38,1.45-8.77,2.32-13.13.41-2.03,2.32-3.13,4.15-2.69Zm-.87,45.9c-1.9.27-3.55-1.03-3.88-3.29-.6-4.01-1.09-8.04-1.62-12.06,0-2.7,1.2-4.41,3.35-4.59,2.12-.17,3.57,1.45,3.81,4.07.33,3.45.75,6.89,1.13,10.34.05.45.12.91.15,1.37.18,2.27-.95,3.87-2.94,4.16ZM78.84,17.28c.84-1.4,1.86-2.73,2.51-4.21,1.09-2.46,2.87-3.44,5.47-3.17.65.06,1.31.01,1.97.01v.05c1.18,0,2.37-.09,3.54.02,1.98.18,3.34,1.69,3.29,3.49-.04,1.82-1.53,3.58-3.42,3.3-3.84-.58-6.02,1.02-7.63,4.33-.94,1.94-3.27,2.29-4.89,1.2-1.65-1.1-1.98-3.08-.83-5.02Zm-29.78,70.59c.86,4.37,1.54,8.77,2.29,13.16-.19,2.12-1.49,3.69-3.4,3.87-1.86.18-3.47-1.17-3.79-3.24-.65-4.14-1.27-8.28-1.9-12.42-.31-2.01.8-3.72,2.71-4.15,1.83-.41,3.68.7,4.09,2.78Zm2.21,27.5c-.55,4.15-1.04,8.31-1.66,12.45-.33,2.2-2.04,3.47-3.97,3.16-1.91-.3-3.06-1.87-2.84-4.03.43-4.16.88-8.32,1.37-12.48.26-2.19,1.89-3.57,3.84-3.36,2.04.22,3.2,1.81,3.26,4.27ZM31.72,51.05c1.09,1.65.79,3.62-.64,4.76-1.54,1.22-3.5,1.02-4.87-.63-1.47-1.76-2.85-3.59-4.22-5.42-1.07-1.44-1.02-2.91.03-4.34.23-.32.49-.61.75-.91,6.45-7.55,3.42-5.91,13.29-5.83,2.42.02,3.82,1.48,3.73,3.61-.08,2.01-1.51,3.25-3.85,3.29-.92.02-1.85.11-2.75-.03-1.9-.29-3.14.43-3.9,2.25.79,1.06,1.66,2.12,2.41,3.26Zm1.28,14.63c-1.08-2.37.5-4.83,3.3-5.26.94.7,2.26,1.2,2.75,2.14,2.11,4.05,4.05,8.18,5.9,12.36.75,1.69-.18,3.48-1.81,4.22-1.69.77-3.62.15-4.5-1.61-1.93-3.92-3.82-7.87-5.63-11.85Zm4.27,112.64c-1.99.63-4,1.24-6.02,1.79-2.16.6-3.51.05-4.62-1.9-1.66-2.9-3.29-5.82-4.88-8.76-1.07-1.97-.8-3.4.82-4.94,1.47-1.4,2.95-2.8,4.44-4.18,1.58-1.45,3.57-1.53,4.96-.24,1.46,1.37,1.51,3.43-.03,5.08-.93,1-2.04,1.83-3.09,2.76,1,1.79,1.83,3.26,2.69,4.8,1.37-.38,2.61-.78,3.87-1.08,2.2-.53,3.95.41,4.53,2.36.57,1.89-.47,3.62-2.67,4.31Zm-1.48-23.18c-1.79-.99-2.18-2.94-1.16-5.1,1.69-3.61,3.32-7.24,4.97-10.87.84-1.85,2.25-2.66,4.05-2.28,1.59.33,2.74,1.76,2.73,3.62-.08.29-.15.83-.36,1.29-1.75,3.87-3.45,7.75-5.32,11.56-1.05,2.14-3.13,2.77-4.9,1.78Zm24.58,19.54c-4.02.44-8.06.77-12.09,1.14-1.96.1-3.44-1.15-3.64-3-.18-1.73.92-3.41,2.8-3.66,4.14-.55,8.3-.97,12.47-1.26,1.86-.12,3.22,1.37,3.37,3.17.15,1.69-1.13,3.41-2.91,3.61Zm-5.08-131.95c-.5.15-1.02.23-1.42.31-1.75,0-3.21-1.19-3.51-2.75-.34-1.77.43-3.26,2.16-3.95,1.76-.7,3.66-1.12,5.34-1.96,3.1-1.54,6.13-3.25,9.12-5,2.17-1.27,4.23-1.11,5.36.65,1.11,1.7.58,3.67-1.39,5.07-4.8,3.39-10.05,5.89-15.66,7.63Zm31.19,132.15c-.56,1.83-2.29,2.71-4.37,2.3-3.65-.72-7.31-1.4-10.97-2.1-1.92-.37-3.19-1.96-3.01-3.76.18-1.89,1.83-3.24,3.89-3.38,3.96.85,7.94,1.61,11.87,2.56,2.12.52,3.16,2.49,2.59,4.38Zm20.96,6.48c-1.73,1.28-3.62,2.33-5.46,3.45-1.36.83-2.71.8-4.06-.05-1.82-1.15-3.67-2.25-5.49-3.41-1.8-1.16-2.31-3.02-1.35-4.74.94-1.67,3.08-2.49,4.7-1.24,2.98,2.31,5.49,2.04,8.49-.03,2.25-1.55,5.17.41,5.08,3.74-.39.48-.99,1.59-1.91,2.27Zm.38-164.59c-1.9.26-3.39-1.47-3.44-3.29-.05-1.8,1.29-3.31,3.28-3.5,1.24-.12,2.49-.02,3.73-.02v-.06c.72,0,1.45.05,2.16-.01,2.29-.19,3.87.7,4.89,2.81.77,1.59,1.81,3.04,2.69,4.57,1.05,1.84.66,3.81-.93,4.88-1.67,1.12-3.9.8-4.88-1.2-1.6-3.28-3.82-4.68-7.52-4.18Zm21.3,158.25c-3.9.8-7.81,1.56-11.72,2.27-1.79.33-3.43-.8-3.91-2.53-.46-1.68.38-3.61,2.18-4.07,4.17-1.06,8.39-1.89,12.59-2.81,1.89.33,3.37,1.61,3.59,3.37.22,1.7-.94,3.41-2.72,3.78Zm-.32-140.07c-1.47-1.04-2.05-2.41-1.54-4.1.47-1.54,1.64-2.31,3.7-2.37.46.21,1.35.48,2.08.98,4.24,2.92,8.83,5.12,13.75,6.65,2.32.73,3.34,2.45,2.77,4.46-.54,1.93-2.49,2.87-4.76,2.19-5.75-1.74-11.09-4.34-16-7.81Zm26.54,138.08c-.36,2.09-2.05,3.11-4.62,2.83-3.39-.37-6.77-.75-10.16-1.08-2.4-.23-3.93-1.61-3.82-3.6.11-2.01,1.77-3.35,4.11-3.29.53.01,1.05.06,1.57.09,0-.05.01-.09.02-.14,3.12.37,6.25.68,9.36,1.14,2.55.37,3.9,2.02,3.55,4.05Zm-1.48-31.75c-.96-2.32.75-4.67,3.96-4.73.54.52,1.84,1.26,2.41,2.39,1.9,3.72,3.52,7.57,5.27,11.37.92,2,.35,3.99-1.42,4.88-1.7.86-3.73.31-4.66-1.6-1.97-4.05-3.86-8.14-5.58-12.3Zm24.41,28.12c-1.61,2.99-3.31,5.94-4.95,8.93-1.01,1.84-2.57,2.34-4.49,1.81-2.08-.57-4.15-1.18-6.2-1.84-2.07-.66-3.1-2.36-2.61-4.18.53-1.96,2.28-2.98,4.45-2.49,1.27.29,2.51.7,3.85,1.07.21-.22.32-.29.38-.4q2.34-3.77-.55-7c-1.53-1.71-1.64-3.69-.27-5.09,1.44-1.48,3.5-1.39,5.23.22,1.43,1.35,2.86,2.69,4.29,4.05,1.63,1.55,1.93,2.99.88,4.92Z"/></svg>