<?xml version="1.0" encoding="UTF-8"?><svg id="Layer_1" xmlns="http://www.w3.org/2000/svg" viewBox="0 0 200 200"><defs><style>.cls-1{fill:#fff;stroke-width:0px;}</style></defs><path class="cls-1" d="m134.27,200c-17.95,0-35.91,0-53.86,0-7.28,0-11.44-4.2-11.44-11.53,0-35.98,0-71.97,0-107.95,0-7.44,4.14-11.55,11.64-11.55,35.91,0,71.81,0,107.72,0,7.6,0,11.66,4.09,11.66,11.74,0,35.84,0,71.68,0,107.52,0,7.73-4.07,11.77-11.85,11.77-17.95,0-35.91,0-53.86,0Zm-34.28-110.4c-.02-5.63-4.65-10.26-10.28-10.28-5.72-.03-10.42,4.66-10.39,10.39.02,5.63,4.66,10.26,10.28,10.29,5.72.03,10.42-4.67,10.39-10.39Zm79.27,10.39c5.63.02,10.31-4.58,10.37-10.2.07-5.73-4.58-10.46-10.3-10.48-5.64-.02-10.31,4.57-10.37,10.19-.07,5.73,4.59,10.47,10.3,10.48Zm-89.52,68.98c-5.64-.04-10.34,4.53-10.42,10.14-.09,5.73,4.54,10.49,10.25,10.54,5.63.04,10.33-4.53,10.42-10.14.09-5.73-4.54-10.49-10.25-10.53Zm99.89,10.29c-.02-5.63-4.64-10.26-10.27-10.29-5.72-.03-10.42,4.66-10.4,10.38.02,5.63,4.65,10.27,10.27,10.3,5.72.03,10.42-4.66,10.4-10.38Z"/><path class="cls-1" d="m131.03,62.07c-17.3,0-34.24,0-51.19,0-6.27,0-11.26,2.51-14.83,7.68-2.11,3.04-2.95,6.48-2.95,10.17.02,16.16.01,32.31,0,48.47,0,.78,0,1.56,0,2.65h-2.39c-16.08,0-32.17,0-48.25,0-7.19,0-11.42-4.2-11.42-11.33,0-36.12,0-72.24,0-108.36C.02,4.2,4.24,0,11.43,0,47.47,0,83.52,0,119.56,0c7.31,0,11.46,4.17,11.47,11.5,0,16.09,0,32.17,0,48.26v2.31ZM31.04,20.77c.03-5.64-4.53-10.33-10.15-10.41-5.73-.09-10.49,4.55-10.52,10.26-.04,5.72,4.65,10.43,10.37,10.42,5.63-.01,10.27-4.64,10.31-10.26Zm89.64-.05c.01-5.64-4.58-10.3-10.2-10.37-5.73-.06-10.46,4.59-10.47,10.31-.01,5.72,4.69,10.41,10.41,10.37,5.62-.04,10.25-4.68,10.26-10.31ZM31.04,110.4c.03-5.64-4.55-10.32-10.17-10.39-5.73-.08-10.47,4.57-10.5,10.28-.03,5.72,4.67,10.42,10.39,10.4,5.63-.02,10.26-4.66,10.29-10.28Z"/><path class="cls-1" d="m89.58,86.22c1.87-.04,3.46,1.48,3.51,3.35.04,1.86-1.49,3.46-3.36,3.51-1.87.04-3.46-1.49-3.5-3.36-.04-1.87,1.48-3.46,3.35-3.5Z"/><path class="cls-1" d="m179.37,93.09c-1.87.04-3.46-1.49-3.5-3.36-.04-1.87,1.48-3.46,3.35-3.5,1.87-.04,3.46,1.48,3.51,3.35.04,1.86-1.49,3.46-3.36,3.51Z"/><path class="cls-1" d="m89.64,175.88c1.87,0,3.44,1.55,3.44,3.42,0,1.87-1.55,3.44-3.42,3.44-1.87,0-3.43-1.55-3.44-3.42,0-1.88,1.54-3.43,3.42-3.44Z"/><path class="cls-1" d="m179.24,182.74c-1.87-.03-3.4-1.62-3.37-3.49.03-1.88,1.62-3.4,3.49-3.37,1.87.03,3.41,1.62,3.37,3.49-.03,1.87-1.63,3.41-3.49,3.37Z"/><path class="cls-1" d="m20.66,24.12c-1.87-.02-3.41-1.6-3.39-3.47.02-1.88,1.59-3.41,3.46-3.39,1.87.02,3.42,1.6,3.4,3.46-.02,1.87-1.6,3.42-3.47,3.4Z"/><path class="cls-1" d="m113.77,20.76c-.04,1.87-1.65,3.4-3.51,3.36-1.87-.04-3.4-1.64-3.35-3.51.04-1.87,1.63-3.4,3.5-3.35,1.87.04,3.4,1.64,3.36,3.51Z"/><path class="cls-1" d="m20.78,113.78c-1.87.05-3.47-1.48-3.51-3.35-.05-1.87,1.47-3.47,3.34-3.51,1.87-.05,3.47,1.47,3.52,3.34.05,1.86-1.48,3.47-3.35,3.52Z"/></svg>