<?xml version="1.0" encoding="UTF-8"?><svg id="Layer_1" xmlns="http://www.w3.org/2000/svg" viewBox="0 0 200 200"><defs><style>.cls-1{fill:#fff;stroke-width:0px;}</style></defs><path class="cls-1" d="m139.89,200c-1.66-1.53-2.12-3.42-1.98-5.63.21-3.37.3-6.76.28-10.14,0-.54-.72-1.27-1.29-1.6-10.25-5.96-20.51-11.9-30.82-17.76-1.34-.76-1.89-1.55-1.88-3.15.07-15.13.06-30.26,0-45.38,0-1.41.39-2.18,1.64-2.9,13.01-7.57,25.98-15.19,38.93-22.86,1.1-.65,1.88-.66,3-.01,10.41,6.07,20.86,12.08,31.29,18.1.67.39,1.35.75,1.98,1.1,2.7-2.36,5.27-4.66,7.9-6.9,2.37-2.03,5-1.97,6.75.06,1.66,1.94,1.33,4.6-.85,6.58-2.17,1.97-4.34,3.95-6.6,5.83-.87.72-1.97,1.17-3.19,1.88v38.8c1.81,1.39,3.38,2.36,4.65,3.62,1.88,1.89,3.59,3.96,5.3,6.01,1.76,2.1,1.64,4.63-.2,6.3-1.81,1.64-4.45,1.52-6.29-.43-2.46-2.6-4.83-5.29-7.4-8.11-11.54,6.67-23.13,13.36-34.33,19.84,0,4.22-.03,8.11.01,12,.02,1.96-.62,3.56-2.21,4.75h-4.7Zm-26.82-56.15c0,2.35,0,4.69,0,7.04,0,1.92.85,3.35,2.54,4.31,3.57,2.02,7.11,4.09,10.68,6.11,2.64,1.49,5.14.99,6.48-1.24,1.39-2.3.59-4.84-2.05-6.42-2.52-1.5-5.04-2.99-7.61-4.39-.94-.51-1.25-1.1-1.23-2.14.07-3.19.04-6.38.02-9.58-.02-2.95-1.8-4.87-4.43-4.86-2.54.01-4.32,1.89-4.39,4.73-.05,2.15-.01,4.3,0,6.45Z"/><path class="cls-1" d="m55.73,200c-2.25-1.47-2.93-3.57-2.75-6.18.22-3.18.28-6.37.29-9.55,0-.47-.54-1.12-1.01-1.39-11.25-6.57-22.51-13.1-33.87-19.7-2.46,2.76-4.86,5.57-7.39,8.26-2.29,2.42-5.83,1.97-7.23-.82-.88-1.75-.64-3.44.63-4.91,2.13-2.47,4.2-5,6.51-7.29.93-.93,2.41-1.3,4.06-2.14v-1.34c0-12.45-.02-24.9.03-37.36,0-1.31-.45-2-1.48-2.81-2.77-2.17-5.4-4.52-7.96-6.92-1.75-1.64-1.74-4.26-.2-6.01,1.6-1.83,4.17-2.15,6.13-.49,2.44,2.06,4.71,4.31,7.03,6.5.47.44.81,1.02,1.23,1.56,5.62-3.24,10.98-6.33,16.33-9.42,5.25-3.03,10.51-6.03,15.72-9.11,1.03-.61,1.79-.6,2.82,0,13.12,7.62,26.26,15.22,39.42,22.77,1.05.6,1.42,1.28,1.42,2.46-.01,15.39,0,30.77.08,46.16,0,1.37-.62,1.93-1.65,2.53-10.22,5.87-20.43,11.77-30.64,17.67-.62.36-1.22.74-1.4.85,0,3.96-.04,7.6.01,11.23.04,2.43-.84,4.29-3.02,5.46h-3.13Zm-28.82-56.02c0,2.28,0,4.56,0,6.84,0,2,.87,3.46,2.63,4.45,3.51,1.98,6.99,4.02,10.5,6.01,2.71,1.54,5.3,1.02,6.62-1.29,1.33-2.31.48-4.8-2.2-6.39-2.46-1.46-4.92-2.93-7.44-4.29-1.01-.54-1.32-1.2-1.3-2.3.07-3.25.05-6.51.02-9.76-.03-3-1.75-4.93-4.35-4.96-2.61-.03-4.39,1.85-4.47,4.85-.06,2.28-.01,4.56-.01,6.83Z"/><path class="cls-1" d="m142.32,43.38c0,11.95-.02,24.2.03,36.46,0,1.46-.37,2.32-1.69,3.1-13.1,7.66-26.17,15.38-39.21,23.14-1.23.73-2.11.71-3.33,0-13.09-7.67-26.21-15.3-39.36-22.88-1.13-.65-1.47-1.36-1.47-2.62.05-11.87.03-23.73.03-35.6v-2.14c-.12.1-.24.2-.35.3-3.21-2.84-6.49-5.6-9.6-8.55-1.64-1.56-1.47-4.21.05-5.85,1.58-1.7,4.11-1.94,6-.37,2.86,2.37,5.6,4.87,8.52,7.43,3.16-1.83,6.36-3.68,9.57-5.53,7.67-4.44,15.32-8.9,23.01-13.29,1.05-.6,1.28-1.16,1.21-2.4-.21-3.57-.21-7.16-.11-10.74.06-2.16,2.01-3.79,4.2-3.84,2.19-.05,4.33,1.52,4.4,3.62.15,4.09.04,8.19.04,12.74,10.85,6.3,22.14,12.85,33.44,19.41,2.69-2.37,5.26-4.67,7.87-6.93,2.33-2.02,5.04-1.99,6.74.02,1.65,1.95,1.33,4.59-.89,6.56-2.91,2.59-5.88,5.13-9.11,7.94Zm-58.49-2.32c.42,3.55,3.46,5.72,6.37,4.39,2.36-1.07,4.67-2.33,6.82-3.78,1.95-1.32,3.56-1.6,5.58-.1,1.82,1.35,3.89,2.37,5.9,3.45,2.43,1.31,5.05.6,6.25-1.59,1.18-2.16.48-4.62-1.88-6.03-3.46-2.08-6.98-4.06-10.47-6.09-1.6-.93-3.19-.97-4.81-.04-3.67,2.11-7.41,4.1-10.97,6.38-1.18.75-1.88,2.25-2.79,3.41Z"/></svg>