<?xml version="1.0" encoding="utf-8"?>
<!-- Generator: Adobe Illustrator 27.7.0, SVG Export Plug-In . SVG Version: 6.00 Build 0)  -->
<!DOCTYPE svg PUBLIC "-//W3C//DTD SVG 1.1//EN" "http://www.w3.org/Graphics/SVG/1.1/DTD/svg11.dtd" [
	<!ENTITY ns_extend "http://ns.adobe.com/Extensibility/1.0/">
	<!ENTITY ns_ai "http://ns.adobe.com/AdobeIllustrator/10.0/">
	<!ENTITY ns_graphs "http://ns.adobe.com/Graphs/1.0/">
	<!ENTITY ns_vars "http://ns.adobe.com/Variables/1.0/">
	<!ENTITY ns_imrep "http://ns.adobe.com/ImageReplacement/1.0/">
	<!ENTITY ns_sfw "http://ns.adobe.com/SaveForWeb/1.0/">
	<!ENTITY ns_custom "http://ns.adobe.com/GenericCustomNamespace/1.0/">
	<!ENTITY ns_adobe_xpath "http://ns.adobe.com/XPath/1.0/">
]>
<svg version="1.1" id="Layer_1" xmlns:x="&ns_extend;" xmlns:i="&ns_ai;" xmlns:graph="&ns_graphs;"
	 xmlns="http://www.w3.org/2000/svg" xmlns:xlink="http://www.w3.org/1999/xlink" x="0px" y="0px" width="660px" height="440px"
	 viewBox="0 0 660 440" style="enable-background:new 0 0 660 440;" xml:space="preserve">
<style type="text/css">
	.st0{fill:#74ACDF;}
	.st1{fill:#FFFFFF;}
	.st2{fill:#F6B40E;}
	.st3{fill:#85340A;}
	.st4{fill:#843511;}
</style>
<metadata>
	<sfw  xmlns="&ns_sfw;">
		<slices></slices>
		<sliceSourceBounds  bottomLeftOrigin="true" height="440" width="660" x="-325.5" y="-217"></sliceSourceBounds>
	</sfw>
</metadata>
<g>
	<g>
		<path class="st0" d="M0,0h660v440H0V0z"/>
	</g>
	<g>
		<path class="st1" d="M0,146.6696h660v146.6696H0V146.6696z"/>
	</g>
	<g id="c">
		<g id="a">
			<path class="st2" d="M327.2192,221.1528l25.0395,54.5529c0,0,0.4312,1.0428,1.1264,0.756
				c0.6952-0.2878,0.2631-1.3306,0.2631-1.3306l-20.8692-56.2813 M332.1807,240.0755c-0.3054,8.2966,4.7978,12.8595,4.1307,20.2682
				c-0.6661,7.4096,3.403,11.5984,4.3472,14.4795c0.9442,2.8811-1.0208,4.6042-0.1743,5.0143
				c0.8474,0.4101,2.7016-1.8656,2.097-5.962c-0.6046-4.0964-3.7136-5.3125-2.9832-14.3616
				c0.7304-9.049-3.7013-11.1566-2.6224-19.4111"/>
			<path class="st3" d="M340.7009,280.3747c-0.1848,0-0.3308-0.049-0.4297-0.0963c-0.7425-0.3601-0.4735-1.1507-0.257-1.7858
				c0.2862-0.8413,0.6789-1.9929,0.1796-3.5174c-0.2398-0.7322-0.7098-1.5821-1.2538-2.567
				c-1.5262-2.7629-3.6162-6.5459-3.1161-12.1086c0.324-3.6025-0.7605-6.5192-1.9087-9.6078
				c-1.1696-3.1453-2.3796-6.398-2.2232-10.6348l0.978,0.0361c-0.1487,4.0416,1.0261,7.2024,2.1622,10.2584
				c1.1885,3.1952,2.31,6.2124,1.9662,10.0358c-0.4735,5.2637,1.5331,8.8962,2.9984,11.5483
				c0.5681,1.0269,1.0579,1.9147,1.3269,2.7354c0.6007,1.8348,0.1289,3.2201-0.183,4.137
				c-0.0636,0.1865-0.1452,0.4254-0.1745,0.5724c0.0653-0.0249,0.1719-0.0842,0.3085-0.2174
				c0.5818-0.5672,1.4523-2.304,1.0226-5.2164c-0.1951-1.3191-0.6566-2.3109-1.192-3.459
				c-1.0725-2.2997-2.2877-4.9062-1.7944-11.0137c0.3549-4.3992-0.5397-7.1268-1.4042-9.7642
				c-0.7511-2.2902-1.4678-4.4756-1.3862-7.5556l-9.5464-20.7969l0.8895-0.4091l8.8125,19.2001
				c0.0043-0.0361,0.0095-0.0722,0.0137-0.1091l0.9711,0.1272c-0.0833,0.6325-0.1324,1.228-0.1538,1.7926l15.3957,33.5431
				c0.0455,0.1074,0.3025,0.5878,0.4958,0.5079c0.0344-0.0146,0.1083-0.0447,0.0902-0.287c-0.0146-0.208-0.0919-0.403-0.0928-0.4048
				l-20.8759-56.2981l0.9178-0.3403l20.869,56.2809c0.0069,0.0172,0.1324,0.3274,0.1581,0.6927
				c0.043,0.6016-0.2097,1.0605-0.6927,1.2607c-0.7855,0.3274-1.4678-0.3008-1.766-1.0209l-14.3971-31.3655
				c0.2174,1.7978,0.7141,3.312,1.2272,4.8778c0.8946,2.7294,1.8202,5.5516,1.4489,10.1475
				c-0.4718,5.8498,0.6858,8.3316,1.7067,10.5213c0.544,1.167,1.0579,2.2688,1.2727,3.7297c0.4701,3.1788-0.4761,5.4794-1.5537,6.27
				C341.1985,280.3042,340.9227,280.3747,340.7009,280.3747z"/>
		</g>
		<g transform="rotate(22.5 400 250)">
			<g id="a_00000110466730385240436830000003840123096491793815_">
				<path class="st2" d="M326.9897,220.0009l2.257,59.9826c0,0-0.0007,1.1284,0.7514,1.1295
					c0.7524,0.0002,0.7523-1.1286,0.7523-1.1286l2.2573-59.9834 M324.3322,239.3818c-3.4571,7.5483-0.4886,13.7166-3.94,20.3061
					c-3.451,6.5907-1.2946,12.0178-1.5248,15.0409s-2.705,3.863-2.0799,4.5659c0.626,0.7032,3.2099-0.6897,4.219-4.7057
					c1.0091-4.016-1.3979-6.3293,2.7398-14.41c4.1377-8.0807,0.8499-11.7238,5.0055-18.937"/>
				<path class="st3" d="M329.9983,281.6019c-0.8534-0.0009-1.2414-0.8396-1.2409-1.6182l-1.2977-34.4876
					c-0.4873,1.7437-0.6084,3.3335-0.733,4.9758c-0.2179,2.8643-0.443,5.8266-2.5446,9.931
					c-2.6752,5.2233-2.5558,7.9595-2.4505,10.3735c0.0563,1.2856,0.1096,2.5008-0.2505,3.9325
					c-0.7833,3.1169-2.5378,4.8795-3.8358,5.1975c-0.6914,0.1727-1.0626-0.1057-1.2233-0.287
					c-0.5483-0.6161,0.003-1.2435,0.446-1.7471c0.5865-0.6677,1.39-1.5812,1.5116-3.1805c0.0584-0.7691-0.0503-1.7342-0.1757-2.8514
					c-0.3528-3.1367-0.8358-7.4319,1.7548-12.3793c1.6784-3.2046,1.7922-6.3147,1.9134-9.6078
					c0.1229-3.3533,0.2501-6.8209,2.0152-10.6752l0.8895,0.4073c-1.684,3.6773-1.8073,7.046-1.9267,10.3039
					c-0.125,3.4066-0.2432,6.6249-2.0243,10.0255c-2.4518,4.6819-1.9882,8.8051-1.6496,11.8164
					c0.131,1.1662,0.2445,2.1742,0.1787,3.0345c-0.1461,1.9258-1.1125,3.025-1.7518,3.752
					c-0.1302,0.1487-0.2973,0.3386-0.3803,0.4632c0.0666-0.0009,0.1895-0.0112,0.3669-0.0825
					c0.755-0.2999,2.2241-1.5709,2.9425-4.4283c0.3249-1.2934,0.2772-2.3857,0.2217-3.6506
					c-0.1104-2.5352-0.2359-5.4089,2.5566-10.8634c2.0122-3.9282,2.2296-6.7908,2.4402-9.558
					c0.1826-2.4037,0.3571-4.6974,1.6105-7.5109l-0.8607-22.8675l0.978-0.037l0.7945,21.111
					c0.0181-0.0318,0.0361-0.0636,0.0546-0.0954l0.8482,0.4881c-0.3188,0.5534-0.5921,1.0845-0.828,1.5976l1.3879,36.8818
					c0.0013,0.116,0.0529,0.6574,0.263,0.6583c0.2093,0,0.2617-0.5414,0.2625-0.6411l2.2576-60.0003l0.978,0.037l-2.2576,59.9831
					C331.2392,280.764,330.8508,281.6019,329.9983,281.6019z"/>
			</g>
		</g>
		<g transform="rotate(45 400 250)">
			<g id="a_00000021826487655195101620000001957545455761699756_">
				<path class="st2" d="M327.2185,218.8488l-20.8691,56.2804c0,0-0.4325,1.0423,0.262,1.331
					c0.695,0.2881,1.1269-0.7548,1.1269-0.7548l25.0401-54.5536 M317.3464,235.7375c-6.0825,5.6507-5.7005,12.4855-11.4109,17.2526
					c-5.7104,4.7683-5.795,10.6076-7.1646,13.3125c-1.3696,2.7049-3.9774,2.5338-3.6688,3.4224
					c0.3093,0.8892,3.2295,0.5911,5.6986-2.7329c2.4691-3.3241,1.1306-6.3824,8.0457-12.2646
					c6.9151-5.8822,5.2718-10.5061,11.8714-15.58"/>
				<path class="st3" d="M306.854,277.0016c-0.1384,0-0.2823-0.0284-0.4301-0.0894c-0.7876-0.3274-0.825-1.2513-0.5268-1.9706
					l11.999-32.3589c-1.1176,1.4248-1.8378,2.8471-2.5815,4.3166c-1.2972,2.5627-2.6387,5.213-6.151,8.201
					c-4.4701,3.8019-5.4068,6.3757-6.2335,8.6462c-0.4404,1.2091-0.8564,2.3513-1.7368,3.5372
					c-1.9164,2.5798-4.2161,3.544-5.5327,3.3344c-0.7038-0.1074-0.9415-0.5044-1.0205-0.7322
					c-0.2707-0.7794,0.4782-1.1481,1.0807-1.4446c0.7971-0.3919,1.8889-0.929,2.6133-2.3598
					c0.3485-0.6875,0.6175-1.6216,0.929-2.7019c0.8748-3.0327,2.0724-7.1861,6.3585-10.7654
					c2.7766-2.3177,4.0726-5.1477,5.4446-8.1434c1.3969-3.0517,2.8415-6.2064,5.9473-9.0913l0.666,0.7167
					c-2.9631,2.7526-4.3665,5.818-5.7239,8.782c-1.4193,3.0998-2.7599,6.0268-5.7067,8.4872
					c-4.0562,3.3876-5.2061,7.3743-6.0453,10.285c-0.3257,1.1284-0.6067,2.1029-0.9964,2.8729
					c-0.8723,1.7231-2.1854,2.3693-3.0547,2.7964c-0.1766,0.0868-0.4035,0.1985-0.5276,0.2819
					c0.0636,0.0284,0.1813,0.0619,0.3717,0.0645c0.8297,0.0344,2.6563-0.6024,4.4112-2.9657
					c0.7954-1.0708,1.1696-2.0986,1.6028-3.2888c0.868-2.3839,1.852-5.0866,6.5188-9.057c3.3623-2.86,4.6587-5.4201,5.912-7.8968
					c1.0884-2.1501,2.1274-4.2023,4.3626-6.3233l7.9557-21.4556l0.9178,0.3403l-7.3451,19.8073
					c0.0288-0.0224,0.058-0.0447,0.0872-0.067l0.5964,0.7751c-0.5057,0.3893-0.9621,0.7752-1.3763,1.1602l-12.8318,34.6045
					c-0.0434,0.1074-0.2028,0.6282-0.009,0.709c0.1972,0.0748,0.449-0.4005,0.4881-0.4916l25.0469-54.5694l0.8886,0.4082
					l-25.0396,54.5549C307.9467,276.4809,307.4534,277.0008,306.854,277.0016z"/>
			</g>
		</g>
		<g transform="rotate(67.5 400 250)">
			<g id="a_00000097470559462727444060000018362835837126660252_">
				<path class="st2" d="M327.8708,217.872l-40.8181,44.01c0,0-0.7984,0.7974-0.2673,1.33c0.5319,0.5322,1.33-0.2661,1.33-0.2661
					l44.0108-40.8185 M312.2872,229.6972c-7.782,2.8929-10.0446,9.3536-17.1446,11.5726
					c-7.1005,2.2201-9.4132,7.5824-11.7137,9.5574c-2.3005,1.9749-4.6443,0.8188-4.6992,1.7579
					c-0.0546,0.9399,2.7574,1.782,6.3107-0.3441s3.487-5.4639,12.1268-8.2521c8.6397-2.7881,8.891-7.689,16.9299-9.8511"/>
				<path class="st3" d="M287.2156,263.8833c-0.2926,0-0.5603-0.1092-0.776-0.3257c-0.6024-0.6042-0.2836-1.4713,0.2673-2.0221
					l23.4682-25.3034c-1.5778,0.8886-2.787,1.9267-4.0365,3.0001c-2.1794,1.8717-4.4326,3.8062-8.821,5.2224
					c-5.5855,1.8021-7.4362,3.8217-9.0685,5.6031c-0.8693,0.9487-1.6904,1.8451-2.9571,2.6039
					c-2.7581,1.6492-5.2448,1.6543-6.3882,0.9625c-0.6089-0.3687-0.6763-0.8267-0.6626-1.0674
					c0.0486-0.8241,0.8817-0.8774,1.5512-0.9204c0.8869-0.0576,2.1012-0.1358,3.3176-1.1808
					c0.5848-0.5019,1.1907-1.2616,1.8919-2.1398c1.9688-2.4673,4.6647-5.8463,9.9945-7.5126
					c3.4525-1.0794,5.7325-3.1977,8.1465-5.4407c2.4586-2.2842,5.0007-4.6466,8.974-6.1239l0.3412,0.9178
					c-3.7911,1.4085-6.2606,3.7039-8.6492,5.9228c-2.4973,2.3203-4.8563,4.5126-8.5203,5.6573
					c-5.0441,1.5778-7.6321,4.8211-9.5214,7.1895c-0.7326,0.9178-1.3647,1.7102-2.0195,2.2722
					c-1.4648,1.2581-2.9258,1.3526-3.8921,1.4145c-0.1968,0.0129-0.449,0.0292-0.5956,0.0584
					c0.0477,0.0507,0.1427,0.1263,0.3175,0.2011c0.7459,0.3223,2.6838,0.4615,5.2117-1.051
					c1.1443-0.6849,1.8829-1.491,2.7384-2.4243c1.7145-1.8709,3.6575-3.9918,9.4892-5.8738
					c4.201-1.3552,6.3787-3.2252,8.4842-5.0334c1.8287-1.5701,3.5737-3.0688,6.4496-4.1723l15.5616-16.778l0.7176,0.6652
					l-14.3661,15.4898c0.0352-0.0095,0.0709-0.0198,0.1061-0.0292l0.2544,0.9453c-0.6162,0.1659-1.1851,0.348-1.7153,0.544
					l-25.0972,27.06c-0.0816,0.0833-0.428,0.5036-0.2797,0.6523c0.0266,0.0266,0.0825,0.0816,0.299-0.0258
					c0.1865-0.0937,0.3369-0.2397,0.3386-0.2415l44.0241-40.8306l0.6652,0.7167l-44.0107,40.8186
					c-0.0129,0.0137-0.2518,0.2484-0.5792,0.4116C287.6448,263.8283,287.4236,263.8833,287.2156,263.8833z"/>
			</g>
		</g>
		<g id="b">
			<path class="st3" d="M333.7928,241.4808c0.3987,7.9675,4.9166,11.4954,4.0295,18.7563
				c1.9474-5.742-2.7491-10.1931-2.4816-18.6736 M328.6096,220.6573l17.1486,37.4678l-14.3695-38.6205"/>
		</g>
		<g transform="rotate(22.5 400 250)">
			<g id="b_00000086694253603511500160000003201518768936922291_">
				<path class="st3" d="M325.2838,241.2971c-2.6807,7.5136,0.1432,12.5019-3.4549,18.8706
					c3.9966-4.5596,1.3609-10.4692,4.8534-18.2018 M328.4639,220.0752l1.5049,41.1782l1.5038-41.1797"/>
			</g>
		</g>
		<g transform="rotate(45 400 250)">
			<g id="b_00000003822381322198512770000003222799175766188691_">
				<path class="st3" d="M317.4927,237.8712c-5.352,5.9158-4.652,11.605-10.4134,16.112c5.4373-2.6832,5.2637-9.1515,11.4495-14.959
					 M328.552,219.4817l-14.3679,38.6196l17.1481-37.4697"/>
			</g>
		</g>
		<g transform="rotate(67.5 400 250)">
			<g id="b_00000014634313836152709710000011215815309264650929_">
				<path class="st3" d="M311.6058,231.7244c-7.2085,3.4173-8.7389,8.9414-15.7865,10.9005
					c6.0502-0.3982,8.3651-6.4406,16.3025-9.4388 M328.8606,218.967l-28.0533,30.1815l30.1818-28.0552"/>
			</g>
		</g>
	</g>
	<g transform="rotate(90 400 250)">
		<g id="c_00000183948439559550698660000000071794467163529356_">
			<g id="a_00000109745807297429331760000006164849384429793940_">
				<path class="st2" d="M328.8472,217.2192l-54.5529,25.0395c0,0-1.0428,0.4312-0.756,1.1264
					c0.2878,0.6952,1.3306,0.2631,1.3306,0.2631l56.2813-20.8692 M309.9245,222.1807c-8.2966-0.3053-12.8594,4.7978-20.2682,4.1307
					c-7.4096-0.6662-11.5984,3.403-14.4795,4.3472c-2.8811,0.9442-4.6042-1.0208-5.0143-0.1742
					c-0.4101,0.8475,1.8656,2.7016,5.962,2.097c4.0964-0.6046,5.3125-3.7136,14.3616-2.9832
					c9.049,0.7304,11.1566-3.7013,19.411-2.6224"/>
				<path class="st3" d="M274.2171,244.2706c-0.5371,0-0.9453-0.2501-1.1309-0.6978c-0.3253-0.7889,0.3016-1.4687,1.0214-1.766
					l31.365-14.3971c-1.7978,0.2174-3.3124,0.7141-4.8778,1.2272c-2.7298,0.8955-5.5515,1.8236-10.1479,1.4489
					c-5.8498-0.4727-8.3321,0.6858-10.5222,1.7067c-1.1666,0.544-2.2683,1.057-3.7288,1.2727
					c-3.1767,0.4709-5.4794-0.477-6.27-1.5546c-0.4215-0.5732-0.3085-1.0227-0.2037-1.2392
					c0.3592-0.7416,1.1494-0.4744,1.7854-0.2569c0.84,0.2853,1.992,0.6789,3.5174,0.1796c0.7322-0.2398,1.5821-0.7098,2.5661-1.253
					c2.7629-1.5271,6.5454-3.6171,12.109-3.117c3.6029,0.3248,6.5205-0.7605,9.6087-1.9095
					c3.1453-1.1696,6.4053-2.3856,10.6339-2.2232l-0.0361,0.978c-4.0399-0.1444-7.2011,1.027-10.2567,2.1631
					c-3.196,1.1877-6.215,2.3091-10.0375,1.9662c-5.265-0.4718-8.8958,1.534-11.5479,2.9984
					c-1.0278,0.568-1.9151,1.0579-2.735,1.3269c-1.836,0.6007-3.2205,0.1289-4.1375-0.1831
					c-0.1865-0.0636-0.4258-0.1452-0.5724-0.1744c0.0249,0.0653,0.0842,0.1719,0.217,0.3085
					c0.5667,0.5809,2.3031,1.4515,5.2164,1.0227c1.3192-0.1951,2.3104-0.6574,3.4577-1.192
					c2.3001-1.0725,4.9053-2.2911,11.015-1.7944c4.4,0.3506,7.1268-0.5397,9.7642-1.4042c2.2902-0.7511,4.4717-1.4661,7.5556-1.3862
					l20.7973-9.5464l0.4082,0.8895l-19.1997,8.8125c0.0361,0.0043,0.0726,0.0095,0.1091,0.0137l-0.1272,0.9711
					c-0.6325-0.0834-1.2276-0.1323-1.7922-0.1538l-33.5427,15.3957c-0.107,0.0455-0.5883,0.3017-0.5079,0.4959
					c0.0791,0.1934,0.5999,0.0335,0.6931-0.0034l56.2959-20.8751l0.3403,0.9178l-56.2809,20.8691
					c-0.0172,0.0069-0.3274,0.1323-0.6927,0.1581C274.3026,244.2689,274.2592,244.2706,274.2171,244.2706z"/>
			</g>
			<g transform="rotate(22.5 400 250)">
				<g id="a_00000161589821789130627850000003455803791066154663_">
					<path class="st2" d="M329.9991,216.9897l-59.9826,2.257c0,0-1.1284-0.0007-1.1295,0.7514
						c-0.0002,0.7524,1.1286,0.7523,1.1286,0.7523l59.9834,2.2573 M310.6182,214.3322c-7.5482-3.4571-13.7166-0.4886-20.3061-3.94
						c-6.5907-3.451-12.0178-1.2946-15.0409-1.5248c-3.0232-0.2302-3.863-2.705-4.5659-2.0798
						c-0.7032,0.626,0.6897,3.2099,4.7057,4.219c4.016,1.0091,6.3293-1.3979,14.41,2.7398
						c8.0807,4.1377,11.7238,0.8499,18.937,5.0055"/>
					<path class="st3" d="M329.9807,223.497l-59.9835-2.2576c-0.0103,0.0009-0.3519-0.0026-0.7004-0.1186
						c-0.5715-0.1908-0.8989-0.5999-0.8989-1.1232c0.0013-0.8521,0.8387-1.2401,1.6173-1.2401c0.0004,0,0.0009,0,0.0017,0
						l34.4872-1.2977c-1.7445-0.4877-3.3335-0.6084-4.9762-0.7335c-2.8643-0.2179-5.8257-0.443-9.9301-2.5442
						c-5.2246-2.6752-7.9626-2.5562-10.3735-2.4505c-1.2869,0.0563-2.5012,0.1087-3.9329-0.2509
						c-3.1169-0.7829-4.8791-2.5373-5.1979-3.8354c-0.1693-0.6914,0.107-1.063,0.2866-1.2233
						c0.6166-0.547,1.2439,0.0026,1.748,0.446c0.6673,0.5865,1.5813,1.3896,3.1801,1.5116
						c0.7687,0.0576,1.7342-0.0503,2.8514-0.1758c3.1367-0.3536,7.4319-0.8362,12.3793,1.7549
						c3.2042,1.6783,6.3143,1.7922,9.6074,1.913c3.3537,0.1233,6.8217,0.2505,10.6756,2.0157l-0.4073,0.8895
						c-3.6773-1.6839-7.046-1.8077-10.3044-1.9272c-3.4066-0.125-6.6245-0.2428-10.025-2.0238
						c-4.6819-2.4514-8.8052-1.9877-11.816-1.6496c-1.1662,0.1315-2.1717,0.2471-3.0353,0.1788
						c-1.925-0.1465-3.0242-1.1125-3.7516-1.7518c-0.1483-0.1302-0.3382-0.2969-0.4623-0.3798
						c-0.0021,0.0696,0.012,0.1908,0.0829,0.3682c0.3017,0.7545,1.5735,2.2232,4.4271,2.9404
						c1.2938,0.3248,2.3878,0.2767,3.6515,0.2222c2.5365-0.1104,5.4085-0.2355,10.8625,2.5566
						c3.929,2.0118,6.7908,2.2296,9.558,2.4402c2.4037,0.1826,4.6974,0.3571,7.5114,1.6105l22.8675-0.8607l0.0365,0.978
						l-21.1105,0.7945c0.0318,0.018,0.0636,0.0361,0.0954,0.0546l-0.4881,0.8482c-0.553-0.3188-1.0845-0.5921-1.598-0.828
						l-36.8809,1.3879c-0.1165,0.0013-0.6583,0.0529-0.6583,0.2625c-0.0004,0.2097,0.5414,0.2617,0.6411,0.2625l59.9994,2.258
						L329.9807,223.497z"/>
				</g>
			</g>
			<g transform="rotate(45 400 250)">
				<g id="a_00000018933992795922951150000018266627311455269776_">
					<path class="st2" d="M331.1512,217.2185l-56.2804-20.8692c0,0-1.0423-0.4325-1.331,0.262
						c-0.2881,0.6951,0.7548,1.1269,0.7548,1.1269l54.5536,25.0401 M314.2625,207.3465
						c-5.6507-6.0825-12.4855-5.7005-17.2526-11.4109c-4.7683-5.7104-10.6076-5.795-13.3125-7.1646
						c-2.7049-1.3696-2.5338-3.9774-3.4224-3.6688c-0.8892,0.3093-0.5911,3.2295,2.7329,5.6986
						c3.3241,2.4691,6.3824,1.1306,12.2646,8.0457c5.8822,6.9151,10.5061,5.2717,15.58,11.8714"/>
					<path class="st3" d="M328.6439,223.2228l-54.5536-25.04c-0.0172-0.0069-0.3253-0.1379-0.602-0.3777
						c-0.455-0.3949-0.6007-0.898-0.4005-1.381c0.3283-0.7876,1.2521-0.8254,1.9701-0.5268l32.3589,11.9986
						c-1.4248-1.1176-2.8471-1.8373-4.3166-2.5816c-2.5627-1.2972-5.2126-2.6383-8.2002-6.1505
						c-3.8027-4.4705-6.3766-5.4076-8.647-6.2339c-1.2091-0.4404-2.3517-0.8559-3.5367-1.7364
						c-2.5803-1.9164-3.5376-4.2118-3.3348-5.5335c0.1078-0.7034,0.5053-0.941,0.7326-1.0201
						c0.7808-0.269,1.149,0.4791,1.4442,1.0811c0.3923,0.7971,0.9294,1.8889,2.3598,2.6134c0.6879,0.3481,1.6208,0.617,2.701,0.9286
						c3.0332,0.8744,7.1865,2.072,10.7663,6.3589c2.3181,2.7771,5.1481,4.0726,8.1443,5.4446
						c3.0512,1.3969,6.2064,2.8415,9.0913,5.9469l-0.7167,0.666c-2.7526-2.9627-5.8175-4.3661-8.782-5.723
						c-3.0998-1.4197-6.0281-2.7603-8.488-5.7071c-3.3877-4.0571-7.3747-5.2065-10.2863-6.0461
						c-1.1279-0.3248-2.1021-0.6059-2.8716-0.9956c-1.7226-0.8723-2.3684-2.1854-2.796-3.0546
						c-0.0872-0.177-0.1985-0.4035-0.2819-0.5281c-0.0288,0.064-0.0619,0.1813-0.0645,0.3721
						c-0.0099,0.8125,0.6033,2.6563,2.9657,4.4112c1.0704,0.7949,2.0982,1.1692,3.288,1.6023
						c2.3843,0.868,5.0871,1.852,9.0574,6.5192c2.86,3.3623,5.4205,4.6582,7.8968,5.9116c2.1506,1.0888,4.2028,2.1274,6.3228,4.3626
						l21.4569,7.9557l-0.3403,0.9178l-19.8082-7.3451c0.0223,0.0288,0.0447,0.058,0.0674,0.0872l-0.776,0.5964
						c-0.3889-0.5057-0.7747-0.9621-1.1593-1.3763l-34.6049-12.8313c-0.107-0.0434-0.6282-0.2015-0.709-0.009
						c-0.0799,0.1934,0.4005,0.4486,0.492,0.4877l54.5686,25.0473L328.6439,223.2228z"/>
				</g>
			</g>
			<g transform="rotate(67.5 400 250)">
				<g id="a_00000116208561633010675320000015573402869950266015_">
					<path class="st2" d="M332.128,217.8708l-44.01-40.8181c0,0-0.7974-0.7984-1.33-0.2673c-0.5322,0.5319,0.2661,1.33,0.2661,1.33
						l40.8185,44.0108 M320.3028,202.2872c-2.8929-7.782-9.3537-10.0446-11.5726-17.1446
						c-2.2201-7.1005-7.5824-9.4133-9.5574-11.7137c-1.9749-2.3004-0.8188-4.6443-1.7579-4.6992
						c-0.9399-0.0546-1.782,2.7574,0.3441,6.3107c2.1262,3.5532,5.4639,3.487,8.2521,12.1268
						c2.7881,8.6397,7.689,8.891,9.8511,16.9299"/>
					<path class="st3" d="M327.5138,222.4588l-40.8186-44.0112c-0.0133-0.0125-0.2475-0.2518-0.4116-0.5792
						c-0.2694-0.5384-0.2114-1.0596,0.1585-1.4296c0.6029-0.6011,1.4708-0.2836,2.0221,0.2677l25.3039,23.4691
						c-0.8886-1.5782-1.9272-2.7878-3.0005-4.0378c-1.8713-2.1789-3.8062-4.4326-5.2224-8.8206
						c-1.8021-5.5855-3.8212-7.4357-5.6027-9.0681c-0.9488-0.8697-1.8451-1.6908-2.6031-2.9575
						c-1.6504-2.7577-1.6564-5.2443-0.9638-6.3877c0.3691-0.6089,0.8293-0.6742,1.0678-0.6626
						c0.8237,0.0481,0.8774,0.8813,0.9208,1.5512c0.0572,0.8864,0.1353,2.1007,1.1799,3.3176
						c0.5019,0.5848,1.2611,1.1907,2.1403,1.8919c2.4673,1.9684,5.8463,4.6643,7.5127,9.9945
						c1.0789,3.4525,3.1977,5.7325,5.4407,8.1465c2.2842,2.4582,4.6466,5.0003,6.1235,8.9736l-0.917,0.3412
						c-1.4094-3.7907-3.7043-6.2605-5.9232-8.6487c-2.3207-2.4973-4.513-4.8563-5.6581-8.5203
						c-1.577-5.0445-4.8202-7.6321-7.1887-9.5219c-0.9178-0.7322-1.7106-1.3643-2.2726-2.0191
						c-1.2577-1.4652-1.3518-2.9258-1.4141-3.8925c-0.0129-0.1964-0.0288-0.4486-0.0584-0.5951
						c-0.0507,0.0477-0.1259,0.1431-0.2011,0.3175c-0.3214,0.7464-0.4615,2.6838,1.051,5.2113
						c0.6849,1.1443,1.491,1.8833,2.4247,2.7388c1.8708,1.7145,3.9914,3.6575,5.873,9.4888
						c1.3557,4.2006,3.2253,6.3783,5.0334,8.4842c1.5701,1.8288,3.0688,3.5741,4.1722,6.45l16.778,15.5611l-0.6652,0.7176
						l-15.4894-14.3657c0.0099,0.0352,0.0193,0.0709,0.0292,0.1061l-0.9453,0.2544c-0.1654-0.6162-0.3476-1.1851-0.5444-1.7153
						l-27.06-25.0976c-0.0833-0.0816-0.5023-0.4245-0.6518-0.2797c-0.1483,0.1482,0.1981,0.568,0.2677,0.6389l40.8302,44.0232
						L327.5138,222.4588z"/>
				</g>
			</g>
			<g id="b_00000089567804066475181660000005917532407903152543_">
				<path class="st3" d="M308.5192,223.7928c-7.9675,0.3986-11.4954,4.9166-18.7563,4.0295
					c5.742,1.9474,10.1931-2.7491,18.6736-2.4816 M329.3427,218.6096l-37.4678,17.1486l38.6205-14.3695"/>
			</g>
			<g transform="rotate(22.5 400 250)">
				<g id="b_00000093893703861296171490000007205720363597138305_">
					<path class="st3" d="M308.7029,215.2838c-7.5136-2.6807-12.5019,0.1432-18.8706-3.4549
						c4.5597,3.9966,10.4692,1.3609,18.2018,4.8534 M329.9248,218.4639l-41.1782,1.5049l41.1797,1.5037"/>
				</g>
			</g>
			<g transform="rotate(45 400 250)">
				<g id="b_00000080888122717307590520000004234601594809529759_">
					<path class="st3" d="M312.1288,207.4927c-5.9157-5.352-11.605-4.652-16.112-10.4134
						c2.6832,5.4373,9.1515,5.2637,14.959,11.4495 M330.5183,218.552l-38.6196-14.3678l37.4696,17.1481"/>
				</g>
			</g>
			<g transform="rotate(67.5 400 250)">
				<g id="b_00000112614070800457622790000015302356060254336190_">
					<path class="st3" d="M318.2756,201.6058c-3.4173-7.2085-8.9414-8.7389-10.9005-15.7865
						c0.3982,6.0502,6.4406,8.3651,9.4388,16.3025 M331.033,218.8606l-30.1815-28.0532l28.0551,30.1818"/>
				</g>
			</g>
		</g>
	</g>
	<g transform="rotate(180 400 250)">
		<g id="c_00000152945580299100490350000009938272709664942772_">
			<g id="a_00000114046166532861434420000009779178612526817207_">
				<path class="st2" d="M332.7808,218.8472l-25.0395-54.553c0,0-0.4312-1.0428-1.1264-0.7559
					c-0.6952,0.2878-0.2631,1.3306-0.2631,1.3306l20.8692,56.2813 M327.8193,199.9245c0.3054-8.2966-4.7978-12.8595-4.1307-20.2682
					c0.6661-7.4096-3.403-11.5984-4.3472-14.4795c-0.9442-2.8811,1.0208-4.6042,0.1743-5.0143
					c-0.8474-0.4101-2.7016,1.8656-2.097,5.962c0.6046,4.0964,3.7136,5.3125,2.9832,14.3616
					c-0.7304,9.049,3.7013,11.1566,2.6224,19.4111"/>
				<path class="st3" d="M326.7619,221.3202l-20.869-56.2813c-0.0073-0.0168-0.1324-0.3274-0.1586-0.6927
					c-0.0425-0.6003,0.2101-1.0596,0.6931-1.2598c0.7902-0.324,1.4687,0.3008,1.766,1.0209l14.3971,31.3655
					c-0.2174-1.7982-0.7141-3.3125-1.2272-4.8778c-0.8951-2.7294-1.8202-5.552-1.4493-10.1484
					c0.4722-5.8493-0.6849-8.3316-1.7063-10.5218c-0.5435-1.1666-1.0574-2.2683-1.2727-3.7288
					c-0.4697-3.1797,0.4765-5.4794,1.5542-6.2704c0.5749-0.422,1.024-0.3081,1.2397-0.2032
					c0.7425,0.3596,0.4735,1.1503,0.257,1.7854c-0.2866,0.8409-0.6789,1.9929-0.1792,3.5166
					c0.2402,0.7326,0.7098,1.583,1.2534,2.5674c1.5262,2.7625,3.6162,6.5463,3.1161,12.1086
					c-0.3244,3.6025,0.7605,6.5197,1.9091,9.6082c1.1696,3.1457,2.3792,6.398,2.2232,10.6343l-0.978-0.0361
					c0.1487-4.0416-1.0261-7.2011-2.1626-10.2571c-1.1881-3.1956-2.3109-6.2137-1.9662-10.0371
					c0.4731-5.2637-1.5331-8.8958-2.9979-11.5479c-0.5681-1.0278-1.0583-1.9156-1.3269-2.7354
					c-0.6016-1.8348-0.1293-3.2205,0.1826-4.1375c0.0636-0.1865,0.1452-0.4254,0.174-0.5719
					c-0.0653,0.0245-0.1714,0.0838-0.3076,0.2166c-0.5822,0.5672-1.4528,2.304-1.0231,5.2168
					c0.1951,1.3191,0.657,2.3104,1.192,3.4577c1.0725,2.3001,2.2877,4.907,1.7948,11.0146
					c-0.3549,4.3996,0.5392,7.1268,1.4038,9.7642c0.7507,2.2902,1.4674,4.4765,1.3862,7.5556l9.5459,20.7977l-0.8886,0.4082
					l-8.8129-19.1997c-0.0047,0.0361-0.0095,0.0726-0.0142,0.1091l-0.9702-0.1272c0.0825-0.6325,0.1319-1.228,0.1534-1.7926
					l-15.3961-33.5427c-0.0455-0.107-0.3029-0.5938-0.495-0.5075c-0.1934,0.0799-0.0344,0.5998,0.003,0.6922l20.8751,56.2968
					L326.7619,221.3202z"/>
			</g>
			<g transform="rotate(22.5 400 250)">
				<g id="a_00000060753035839430271240000016146124181676391096_">
					<path class="st2" d="M333.0103,219.9991l-2.257-59.9826c0,0,0.0007-1.1284-0.7514-1.1294
						c-0.7524-0.0002-0.7523,1.1286-0.7523,1.1286l-2.2573,59.9834 M335.6678,200.6182c3.4571-7.5483,0.4886-13.7166,3.94-20.3061
						c3.451-6.5907,1.2946-12.0178,1.5248-15.0409c0.2302-3.0231,2.705-3.8631,2.0799-4.5659
						c-0.626-0.7032-3.2099,0.6897-4.219,4.7057c-1.0091,4.0159,1.3979,6.3293-2.7398,14.41
						c-4.1377,8.0807-0.8499,11.7238-5.0055,18.937"/>
					<path class="st3" d="M327.4812,220.0178l-0.978-0.037l2.2576-59.9835c-0.0004-0.0185,0.003-0.3528,0.1186-0.7004
						c0.1904-0.5715,0.5994-0.8993,1.1223-0.8993c0.8534,0.0017,1.2409,0.8405,1.2409,1.6191l1.2977,34.4863
						c0.4873-1.7437,0.6084-3.3331,0.733-4.9749c0.2183-2.8643,0.4435-5.8257,2.5446-9.9301
						c2.6752-5.2237,2.5558-7.96,2.4501-10.3744c-0.0558-1.2856-0.1091-2.4999,0.2509-3.9316
						c0.7829-3.1169,2.5369-4.8795,3.8354-5.1983c0.6927-0.1689,1.0639,0.1066,1.2238,0.2866
						c0.5483,0.6166-0.0026,1.2435-0.446,1.7475c-0.5869,0.6673-1.3905,1.5813-1.5116,3.1805
						c-0.0584,0.7687,0.0498,1.7338,0.1753,2.8514c0.3532,3.1363,0.8362,7.4319-1.7549,12.3793
						c-1.6775,3.2042-1.7918,6.3147-1.913,9.6074c-0.1229,3.3537-0.2501,6.8217-2.0152,10.6756l-0.8903-0.4073
						c1.6844-3.6773,1.8081-7.046,1.9276-10.3043c0.1255-3.4066,0.2432-6.6245,2.0247-10.025
						c2.4518-4.6819,1.9877-8.8056,1.6491-11.816c-0.1315-1.167-0.2449-2.1747-0.1796-3.0353
						c0.1469-1.9254,1.1137-3.025,1.7531-3.7525c0.1298-0.1478,0.2965-0.3373,0.3799-0.4619
						c-0.0713-0.0026-0.1908,0.0125-0.3661,0.0821c-0.7554,0.3004-2.2249,1.5709-2.9434,4.4284
						c-0.3249,1.2934-0.2767,2.386-0.2217,3.651c0.1109,2.5352,0.2363,5.4089-2.5566,10.8629
						c-2.0118,3.9291-2.2301,6.7908-2.4406,9.558c-0.1822,2.4032-0.3566,4.6969-1.6096,7.5101l0.8603,22.8688l-0.978,0.037
						l-0.794-21.1123c-0.0189,0.0322-0.037,0.0645-0.0559,0.0967l-0.8474-0.4881c0.3188-0.5534,0.5921-1.085,0.8285-1.5989
						l-1.3879-36.8801c-0.0009-0.116-0.0533-0.6583-0.2638-0.6587c-0.2088,0-0.2608,0.5414-0.2617,0.6411L327.4812,220.0178z"/>
				</g>
			</g>
			<g transform="rotate(45 400 250)">
				<g id="a_00000009583639224484128210000016475469815766586509_">
					<path class="st2" d="M332.7815,221.1512l20.8691-56.2804c0,0,0.4325-1.0423-0.262-1.331
						c-0.695-0.2881-1.1269,0.7548-1.1269,0.7548l-25.0401,54.5536 M342.6536,204.2625
						c6.0825-5.6507,5.7005-12.4855,11.4109-17.2526c5.7104-4.7684,5.795-10.6076,7.1646-13.3125
						c1.3696-2.7049,3.9774-2.5338,3.6688-3.4224c-0.3093-0.8892-3.2295-0.5912-5.6986,2.7329
						c-2.4691,3.3241-1.1306,6.3824-8.0457,12.2646c-6.9151,5.8822-5.2718,10.5061-11.8714,15.58"/>
					<path class="st3" d="M333.2407,221.321l-0.9178-0.3403l7.3451-19.8082c-0.0292,0.0223-0.0584,0.0451-0.0876,0.0679
						l-0.5964-0.776c0.5062-0.3889,0.9625-0.7751,1.3767-1.1597l12.8313-34.604c0.0438-0.1078,0.2028-0.6286,0.0086-0.7094
						c-0.1925-0.0795-0.4478,0.4009-0.4873,0.4924l-25.0469,54.5686l-0.8895-0.4082l25.0409-54.5536
						c0.006-0.0172,0.1375-0.3248,0.3773-0.6016c0.3953-0.4563,0.9006-0.6007,1.381-0.4013
						c0.7881,0.3274,0.825,1.2513,0.5268,1.9706l-11.9986,32.3585c1.118-1.4253,1.8373-2.8471,2.5815-4.3166
						c1.2968-2.5627,2.6383-5.2125,6.1505-8.2002c4.4705-3.8027,5.4072-6.3761,6.2339-8.647
						c0.44-1.2092,0.8559-2.3517,1.7359-3.5368c1.9164-2.5803,4.2152-3.5381,5.5335-3.3344c0.7038,0.1083,0.941,0.5057,1.0201,0.733
						c0.2716,0.779-0.4787,1.1477-1.0811,1.4438c-0.7966,0.3923-1.8889,0.9294-2.6133,2.3598
						c-0.3481,0.6875-0.617,1.6204-0.9281,2.7002c-0.8748,3.0332-2.072,7.187-6.3594,10.7671
						c-2.7766,2.3182-4.0726,5.1477-5.4442,8.1439c-1.3973,3.0512-2.8419,6.2064-5.9477,9.0913l-0.6652-0.7167
						c2.9622-2.7526,4.3656-5.8175,5.7234-8.782c1.4188-3.0998,2.7594-6.0277,5.7062-8.4876
						c4.0571-3.3881,5.2069-7.3756,6.0466-10.2871c0.3248-1.1275,0.6058-2.1012,0.9951-2.8707
						c0.8723-1.7226,2.1854-2.3684,3.0551-2.796c0.177-0.0872,0.403-0.1985,0.5276-0.2819
						c-0.0636-0.0288-0.1813-0.0623-0.373-0.0645c-0.8207-0.0421-2.6572,0.605-4.4103,2.9653
						c-0.7949,1.0704-1.1687,2.0982-1.6019,3.288c-0.868,2.3848-1.852,5.0875-6.5192,9.0574
						c-3.3627,2.86-4.6587,5.4209-5.9116,7.8972c-1.0888,2.1501-2.1278,4.2023-4.3622,6.3224L333.2407,221.321z"/>
				</g>
			</g>
			<g transform="rotate(67.5 400 250)">
				<g id="a_00000058581609031228129190000001249400995177772937_">
					<path class="st2" d="M332.1292,222.128l40.8181-44.01c0,0,0.7984-0.7974,0.2673-1.3299c-0.5319-0.5322-1.33,0.2661-1.33,0.2661
						l-44.0108,40.8185 M347.7128,210.3028c7.782-2.8929,10.0446-9.3536,17.1446-11.5726
						c7.1005-2.2201,9.4132-7.5824,11.7137-9.5574c2.3005-1.9749,4.6443-0.8188,4.6992-1.7579
						c0.0546-0.9399-2.7574-1.782-6.3107,0.3441s-3.487,5.4639-12.1268,8.2521c-8.6397,2.7881-8.891,7.689-16.9299,9.8511"/>
					<path class="st3" d="M332.4879,222.4606l-0.7167-0.6652l14.3661-15.4898c-0.0361,0.0099-0.0713,0.0193-0.1074,0.0292
						l-0.2544-0.9453c0.6162-0.1654,1.1859-0.3481,1.7162-0.5444l25.0972-27.0596c0.0808-0.0834,0.4271-0.5032,0.2793-0.6518
						c-0.0258-0.0258-0.0808-0.0829-0.299,0.0253c-0.1865,0.0932-0.3369,0.2393-0.3377,0.2411l-44.0249,40.8315l-0.6652-0.7176
						l44.0112-40.8186c0.0129-0.0133,0.2518-0.2475,0.5792-0.4112c0.538-0.2711,1.0587-0.2114,1.4291,0.1581
						c0.6024,0.6041,0.2836,1.4713-0.2681,2.0221l-23.4678,25.303c1.5778-0.8886,2.787-1.9267,4.0374-2.9996
						c2.1785-1.8713,4.4326-3.8062,8.8206-5.2224c5.5851-1.8021,7.4353-3.8212,9.0673-5.6027
						c0.8697-0.9492,1.6913-1.8455,2.9588-2.6035c2.7586-1.6513,5.2465-1.656,6.3877-0.9634
						c0.6085,0.3691,0.6763,0.8271,0.6617,1.0678c-0.0481,0.8233-0.8817,0.8774-1.5511,0.9204
						c-0.886,0.0572-2.1003,0.1354-3.3172,1.1799c-0.5852,0.5019-1.1902,1.2611-1.8915,2.1403
						c-1.9688,2.4673-4.6647,5.8463-9.9954,7.5131c-3.4521,1.0789-5.732,3.1973-8.146,5.4403
						c-2.4586,2.2847-5.0007,4.6471-8.9745,6.1239l-0.3403-0.9169c3.7907-1.4094,6.2606-3.7043,8.6487-5.9237
						c2.4973-2.3207,4.8555-4.5126,8.5199-5.6577c5.0454-1.5774,7.633-4.8211,9.5227-7.1895
						c0.7322-0.9174,1.3638-1.7101,2.0186-2.2722c1.4652-1.2577,2.9253-1.3518,3.8921-1.4141
						c0.1968-0.0125,0.4495-0.0288,0.5956-0.058c-0.0481-0.0511-0.1435-0.1268-0.3188-0.202
						c-0.7477-0.3197-2.6847-0.4589-5.2104,1.0514c-1.1447,0.6849-1.8829,1.4915-2.7388,2.4247
						c-1.7145,1.8709-3.6575,3.9914-9.4884,5.8734c-4.2006,1.3557-6.3783,3.2252-8.4846,5.0334
						c-1.8279,1.5696-3.5733,3.068-6.4496,4.1714L332.4879,222.4606z"/>
				</g>
			</g>
			<g id="b_00000127032472352721770210000010036962815147088776_">
				<path class="st3" d="M326.2072,198.5192c-0.3987-7.9675-4.9166-11.4954-4.0295-18.7563
					c-1.9474,5.742,2.7491,10.1931,2.4816,18.6736 M331.3904,219.3427l-17.1486-37.4678l14.3695,38.6205"/>
			</g>
			<g transform="rotate(22.5 400 250)">
				<g id="b_00000073709780950297598840000008031176872452773562_">
					<path class="st3" d="M334.7162,198.7029c2.6807-7.5136-0.1432-12.5019,3.4549-18.8706
						c-3.9966,4.5596-1.3609,10.4692-4.8534,18.2018 M331.5361,219.9248l-1.5049-41.1782l-1.5038,41.1797"/>
				</g>
			</g>
			<g transform="rotate(45 400 250)">
				<g id="b_00000047747590726665027190000008584043819268371378_">
					<path class="st3" d="M342.5073,202.1288c5.352-5.9158,4.652-11.605,10.4134-16.112
						c-5.4373,2.6832-5.2637,9.1515-11.4495,14.959 M331.448,220.5183l14.3679-38.6196l-17.1481,37.4697"/>
				</g>
			</g>
			<g transform="rotate(67.5 400 250)">
				<g id="b_00000155118057611433982350000005950853369618658991_">
					<path class="st3" d="M348.3942,208.2756c7.2085-3.4173,8.7389-8.9414,15.7865-10.9005
						c-6.0502,0.3982-8.3651,6.4406-16.3025,9.4388 M331.1394,221.033l28.0533-30.1815l-30.1818,28.0552"/>
				</g>
			</g>
		</g>
	</g>
	<g transform="rotate(270 400 250)">
		<g id="c_00000128479979317309532060000011674236996808086671_">
			<g id="a_00000101798476159532778970000013990082594856206216_">
				<path class="st2" d="M331.1528,222.7808l54.5529-25.0395c0,0,1.0428-0.4312,0.756-1.1264
					c-0.2878-0.6952-1.3306-0.2631-1.3306-0.2631l-56.2813,20.8692 M350.0755,217.8193c8.2966,0.3053,12.8594-4.7978,20.2682-4.1307
					c7.4096,0.6662,11.5984-3.403,14.4795-4.3472c2.8811-0.9442,4.6042,1.0208,5.0143,0.1742
					c0.4101-0.8475-1.8656-2.7016-5.962-2.097c-4.0964,0.6046-5.3125,3.7136-14.3616,2.9832
					c-9.049-0.7304-11.1566,3.7013-19.411,2.6224"/>
				<path class="st3" d="M331.357,223.2254l-0.4091-0.8886l19.201-8.8133c-0.0361-0.0047-0.073-0.0095-0.11-0.0142l0.1272-0.9702
					c0.6325,0.0825,1.228,0.1324,1.7935,0.1534l33.5423-15.3957c0.1066-0.0455,0.5878-0.3012,0.5079-0.495
					s-0.6007-0.0348-0.6927,0.003l-56.2972,20.8751l-0.3403-0.9178l56.2818-20.8691c0.0172-0.0073,0.3274-0.1323,0.6927-0.1586
					c0.6033-0.0387,1.0596,0.2105,1.2598,0.6931c0.3257,0.7889-0.3008,1.4682-1.0209,1.766l-31.3654,14.3967
					c1.7978-0.2174,3.312-0.7137,4.8778-1.2272c2.7294-0.8942,5.549-1.8184,10.1483-1.4489
					c5.8472,0.4722,8.3316-0.6849,10.5222-1.7063c1.1662-0.544,2.2679-1.0579,3.728-1.2732c3.1857-0.4709,5.4794,0.477,6.27,1.5542
					c0.4219,0.5741,0.3094,1.0231,0.2045,1.2401c-0.3592,0.7416-1.1498,0.4735-1.7858,0.257
					c-0.8413-0.2858-1.992-0.6776-3.5174-0.1796c-0.7322,0.2402-1.5812,0.7094-2.5652,1.253
					c-2.7629,1.5267-6.5467,3.6188-12.1103,3.1165c-3.6008-0.3227-6.5192,0.761-9.6078,1.9091
					c-3.1462,1.1692-6.3937,2.3775-10.6339,2.2236l0.0361-0.978c4.0502,0.1521,7.2016-1.0265,10.2567-2.1626
					c3.196-1.1889,6.2193-2.31,10.0366-1.9667c5.2594,0.4709,8.8971-1.5331,11.5492-2.9984
					c1.0269-0.5676,1.9147-1.0579,2.7345-1.3264c1.8313-0.6007,3.2192-0.1293,4.137,0.1831
					c0.1865,0.0636,0.4254,0.1452,0.5724,0.174c-0.0249-0.0653-0.0842-0.171-0.2166-0.3072
					c-0.5663-0.5827-2.3048-1.4528-5.2173-1.0239c-1.3192,0.1951-2.31,0.657-3.4573,1.192
					c-2.2997,1.0729-4.9001,2.2885-11.0146,1.7952c-4.3991-0.3545-7.1277,0.5393-9.7642,1.4034
					c-2.2903,0.7511-4.4688,1.4575-7.5556,1.3866L331.357,223.2254z"/>
			</g>
			<g transform="rotate(22.5 400 250)">
				<g id="a_00000083061023245511876310000004341363820153922238_">
					<path class="st2" d="M330.0009,223.0103l59.9826-2.257c0,0,1.1284,0.0007,1.1295-0.7514
						c0.0002-0.7524-1.1286-0.7523-1.1286-0.7523l-59.9834-2.2573 M349.3818,225.6678c7.5482,3.4571,13.7166,0.4886,20.3061,3.94
						c6.5907,3.451,12.0178,1.2946,15.0409,1.5248c3.0232,0.2302,3.863,2.705,4.5659,2.0798
						c0.7032-0.626-0.6897-3.2099-4.7057-4.219c-4.016-1.0091-6.3293,1.3979-14.41-2.7398
						c-8.0807-4.1377-11.7238-0.8499-18.937-5.0055"/>
					<path class="st3" d="M389.0692,233.8069c-0.4288,0-0.843-0.3644-1.1971-0.6746c-0.6678-0.5869-1.5821-1.3905-3.1805-1.5116
						c-0.7726-0.0584-1.7334,0.0498-2.8514,0.1753c-3.135,0.3523-7.4319,0.8362-12.3793-1.7549
						c-3.2038-1.6775-6.3138-1.7918-9.607-1.913c-3.3541-0.1229-6.8217-0.2501-10.676-2.0152l0.4073-0.8903
						c3.6773,1.6844,7.046,1.8081,10.3048,1.9276c3.4066,0.1255,6.6249,0.2432,10.0246,2.0247
						c4.6827,2.4518,8.8043,1.986,11.8164,1.6491c1.1671-0.1315,2.1725-0.2441,3.0345-0.1796
						c1.925,0.147,3.025,1.1129,3.7529,1.7523c0.1478,0.1306,0.3377,0.2973,0.4623,0.3798c0.0026-0.0696-0.012-0.1908-0.0825-0.3687
						c-0.3025-0.7545-1.5744-2.2232-4.4284-2.9399c-1.2916-0.324-2.3848-0.2776-3.6506-0.2217
						c-2.536,0.1126-5.4089,0.2363-10.8634-2.5566c-3.9282-2.0118-6.7899-2.2301-9.558-2.4406
						c-2.4028-0.1822-4.6965-0.3566-7.5101-1.6105l-22.8688,0.8611l-0.0365-0.978l21.1118-0.7941
						c-0.0318-0.0189-0.0645-0.037-0.0963-0.0559l0.4881-0.8474c0.5534,0.318,1.0845,0.5921,1.5984,0.8276l36.8809-1.3875
						c0.116-0.0013,0.6574-0.0533,0.6583-0.263c0-0.2097-0.5414-0.2617-0.6411-0.2625l-60.0003-2.2576l0.0365-0.978l59.9835,2.2572
						c0.0009,0,0.0009,0,0.0017,0c0.7597,0,1.5976,0.3884,1.5976,1.2414c-0.0009,0.8525-0.8387,1.2409-1.6173,1.2409
						c-0.0009,0-0.0009,0-0.0009,0l-34.4867,1.2977c1.7437,0.4873,3.3335,0.6084,4.9758,0.733
						c2.8643,0.2183,5.8257,0.4435,9.9301,2.5446c5.2224,2.6752,7.9612,2.5566,10.3735,2.4501
						c1.2891-0.0541,2.5016-0.1091,3.9325,0.2509c3.1169,0.7829,4.8795,2.5369,5.1984,3.8354
						c0.1693,0.6918-0.1066,1.063-0.2862,1.2229C389.437,233.7416,389.2513,233.8069,389.0692,233.8069z"/>
				</g>
			</g>
			<g transform="rotate(45 400 250)">
				<g id="a_00000030486114025733974460000000765481075649473163_">
					<path class="st2" d="M328.8488,222.7815l56.2804,20.8692c0,0,1.0423,0.4325,1.331-0.262
						c0.2881-0.6951-0.7548-1.1269-0.7548-1.1269l-54.5536-25.0401 M345.7375,232.6535
						c5.6507,6.0825,12.4855,5.7005,17.2526,11.4109c4.7683,5.7104,10.6076,5.795,13.3125,7.1646
						c2.7049,1.3696,2.5338,3.9774,3.4224,3.6688c0.8892-0.3093,0.5911-3.2295-2.7329-5.6986
						c-3.3241-2.4691-6.3824-1.1306-12.2646-8.0457c-5.8822-6.9151-10.5061-5.2717-15.58-11.8714"/>
					<path class="st3" d="M379.5722,255.4167c-0.5706,0-0.8774-0.6222-1.1309-1.1378c-0.3919-0.7966-0.929-1.8889-2.3598-2.6134
						c-0.6875-0.3481-1.6216-0.6179-2.7019-0.929c-3.0327-0.8748-7.1861-2.072-10.7654-6.3585
						c-2.3177-2.7766-5.1476-4.0726-8.1434-5.4441c-3.0516-1.3974-6.2064-2.8419-9.0913-5.9477l0.7167-0.6652
						c2.7526,2.9623,5.818,4.3656,8.782,5.7234c3.0998,1.4188,6.0268,2.7594,8.4872,5.7062
						c3.3877,4.0563,7.3743,5.2061,10.285,6.0457c1.1284,0.3248,2.1029,0.6059,2.8729,0.996
						c1.7231,0.8723,2.3693,2.1854,2.7964,3.0551c0.0868,0.1762,0.1985,0.403,0.2819,0.5277
						c0.0284-0.0636,0.0619-0.1805,0.0645-0.3704c0.0112-0.813-0.6007-2.6563-2.9648-4.4129
						c-1.0708-0.7949-2.0986-1.1687-3.2888-1.6019c-2.3848-0.868-5.0875-1.852-9.0578-6.5192
						c-2.86-3.3627-5.4201-4.6587-7.8968-5.9125c-2.1501-1.0888-4.2023-2.127-6.3224-4.3622l-21.4565-7.9561l0.3403-0.9178
						l19.8082,7.3451c-0.0223-0.0284-0.0447-0.0576-0.067-0.0868l0.7751-0.5964c0.3893,0.5062,0.7751,0.9616,1.1593,1.3759
						l34.6045,12.8322c0.1074,0.0421,0.6273,0.2028,0.709,0.0086c0.0808-0.1934-0.4005-0.4495-0.4916-0.4881l-54.5695-25.0461
						l0.4082-0.8895l54.554,25.04c0.703,0.2905,1.3295,0.9711,1.0029,1.7591c-0.3274,0.7881-1.2504,0.8259-1.9706,0.5268
						l-32.358-11.9986c1.4248,1.1172,2.8463,1.8365,4.3158,2.5807c2.5627,1.2977,5.213,2.6391,8.201,6.1514
						c3.8027,4.4705,6.3757,5.4072,8.647,6.2339c1.2091,0.44,2.3513,0.8559,3.5363,1.7359
						c2.5807,1.9164,3.5372,4.2109,3.3352,5.5327c-0.1083,0.7038-0.5053,0.9419-0.733,1.0209
						C379.7733,255.3987,379.6693,255.4167,379.5722,255.4167z"/>
				</g>
			</g>
			<g transform="rotate(67.5 400 250)">
				<g id="a_00000041265109275452576600000003141957287615387051_">
					<path class="st2" d="M327.872,222.1292l44.01,40.8181c0,0,0.7974,0.7984,1.33,0.2673c0.5322-0.5319-0.2661-1.33-0.2661-1.33
						l-40.8185-44.0108 M339.6972,237.7128c2.8929,7.782,9.3537,10.0446,11.5726,17.1446
						c2.2201,7.1005,7.5824,9.4133,9.5574,11.7137c1.9749,2.3005,0.8188,4.6443,1.7579,4.6992
						c0.9399,0.0546,1.782-2.7574-0.3441-6.3107c-2.1262-3.5532-5.4639-3.487-8.2521-12.1268
						c-2.7881-8.6397-7.689-8.891-9.8511-16.9299"/>
					<path class="st3" d="M362.6107,271.7603c-0.0189,0-0.037,0-0.0542-0.0017c-0.8241-0.0481-0.8774-0.8817-0.9204-1.5512
						c-0.0576-0.886-0.1358-2.1003-1.1799-3.3172c-0.5019-0.5852-1.2615-1.1911-2.1407-1.8923
						c-2.4673-1.968-5.8463-4.6638-7.5127-9.9945c-1.0794-3.453-3.1977-5.7329-5.4407-8.1469
						c-2.2842-2.4578-4.6466-4.9998-6.1239-8.9736l0.9178-0.3403c1.4085,3.7898,3.703,6.2597,5.9228,8.6479
						c2.3203,2.4973,4.5126,4.8563,5.6573,8.5207c1.5778,5.0445,4.822,7.6321,7.1904,9.5219
						c0.9169,0.7322,1.7101,1.3647,2.2722,2.0195c1.2573,1.4652,1.3518,2.9253,1.4137,3.8921
						c0.0129,0.1968,0.0292,0.4486,0.0584,0.5956c0.0507-0.0481,0.1263-0.1426,0.2011-0.3171
						c0.3214-0.7468,0.4623-2.6847-1.051-5.2121c-0.6841-1.1447-1.491-1.8829-2.4243-2.7388
						c-1.8708-1.7144-3.9918-3.6584-5.8738-9.4892c-1.3553-4.2006-3.2253-6.3774-5.0325-8.4837
						c-1.571-1.8288-3.0697-3.5733-4.1731-6.4505l-16.7776-15.5616l0.6652-0.7167l15.4894,14.3653
						c-0.0103-0.0352-0.0198-0.0705-0.0292-0.1057l0.9453-0.2544c0.1659,0.6162,0.3481,1.1851,0.544,1.7153l27.06,25.0981
						c0.0833,0.0808,0.5036,0.4288,0.6523,0.2793c0.1478-0.1478-0.1985-0.5681-0.2681-0.6394l-40.8298-44.0224l0.7167-0.6652
						l40.8186,44.0103c0.5388,0.538,0.8568,1.4059,0.2544,2.0092c-0.6059,0.6016-1.4713,0.2827-2.023-0.2681l-25.3043-23.4687
						c0.8895,1.5778,1.9276,2.7878,3.0009,4.0382c1.8717,2.1785,3.8062,4.4318,5.2224,8.8198
						c1.8021,5.5851,3.8216,7.4362,5.6031,9.0681c0.9488,0.8697,1.8451,1.6913,2.6039,2.9588
						c1.6491,2.7569,1.656,5.243,0.9633,6.3869C363.2819,271.6624,362.8616,271.7603,362.6107,271.7603z"/>
				</g>
			</g>
			<g id="b_00000044875161658398132780000004067242669506681754_">
				<path class="st3" d="M351.4808,216.2072c7.9675-0.3986,11.4954-4.9166,18.7563-4.0295
					c-5.742-1.9474-10.1931,2.7491-18.6736,2.4816 M330.6573,221.3904l37.4678-17.1486l-38.6205,14.3695"/>
			</g>
			<g transform="rotate(22.5 400 250)">
				<g id="b_00000041991448334557181080000005778826500609549450_">
					<path class="st3" d="M351.2971,224.7162c7.5136,2.6807,12.5019-0.1432,18.8706,3.4549
						c-4.5597-3.9966-10.4692-1.3609-18.2018-4.8534 M330.0752,221.5361l41.1782-1.5049l-41.1797-1.5037"/>
				</g>
			</g>
			<g transform="rotate(45 400 250)">
				<g id="b_00000035500726555998200440000003231800380108973967_">
					<path class="st3" d="M347.8712,232.5073c5.9157,5.352,11.605,4.652,16.112,10.4134
						c-2.6832-5.4373-9.1515-5.2637-14.959-11.4495 M329.4817,221.448l38.6196,14.3678l-37.4696-17.1481"/>
				</g>
			</g>
			<g transform="rotate(67.5 400 250)">
				<g id="b_00000125604605219779343680000006552546872804745395_">
					<path class="st3" d="M341.7244,238.3942c3.4173,7.2085,8.9414,8.7389,10.9005,15.7865
						c-0.3982-6.0502-6.4406-8.3651-9.4388-16.3025 M328.967,221.1394l30.1815,28.0532l-28.0551-30.1818"/>
				</g>
			</g>
		</g>
	</g>
	<g>
		<circle class="st2" cx="330" cy="220" r="24.4447"/>
		<path class="st3" d="M330,245.1051c-13.8428,0-25.1045-11.2621-25.1045-25.1049c0-13.8428,11.2617-25.1049,25.1045-25.1049
			s25.1049,11.2621,25.1049,25.1049C355.1049,233.843,343.8428,245.1051,330,245.1051z M330,196.2152
			c-13.1149,0-23.7845,10.67-23.7845,23.7849c0,13.1149,10.6696,23.7849,23.7845,23.7849s23.7849-10.67,23.7849-23.7849
			C353.7849,206.8852,343.1149,196.2152,330,196.2152z"/>
	</g>
	<g id="h">
		<path class="st4" d="M338.3336,214.7728c-1.6693,0-3.2674,0.7234-4.2073,2.2273c1.8797,1.6922,6.0333,1.8762,8.8546-0.1927
			C341.7745,215.5232,340.0955,214.7881,338.3336,214.7728L338.3336,214.7728z M338.3063,215.1582
			c1.6245-0.0299,3.1425,0.7163,3.3546,1.4573c-1.8797,2.068-4.884,1.8885-6.7646,0.3846c0.8228-1.3156,2.1463-1.819,3.41-1.8427
			V215.1582z"/>
	</g>
	<g transform="matrix(-1 0 0 1 800.25 0)">
		<g id="d">
			<path class="st3" d="M338.6504,213.6112c-2.4438,0-3.0087,0.565-4.136,1.5048c-1.1299,0.9398-1.6931,0.7515-1.8806,0.9398
				c-0.1874,0.1892,0,0.7515,0.3749,0.5632s1.1299-0.5632,2.2563-1.503c1.129-0.9416,2.2554-0.9407,3.3845-0.9407
				c3.3845,0,5.265,2.8204,5.6408,2.6321c0.3749-0.1883-1.8806-3.1962-5.6408-3.1962H338.6504z"/>
		</g>
	</g>
	<g transform="matrix(-1 0 0 1 800.25 0)">
		<g id="e">
			<path class="st3" d="M345.4176,214.7376c-4.3252-3.7602-9.7768-4.3252-12.7864-1.5039
				c-0.7366,0.9865-1.2082,2.0416-1.4018,3.1416c-0.3784,2.141,0.2904,4.4546,1.9677,6.8253
				c-0.1892-0.0009-0.5658,0.1866-0.7533,0.3758c-1.4933-2.8547-2.0213-5.7878-1.5312-8.5765
				c0.1306-0.7311,0.328-1.4486,0.5896-2.1437c4.136-3.3836,9.7768-3.7594,13.9128,1.8814H345.4176z"/>
		</g>
	</g>
	<g transform="translate(18.862)">
		<g id="f">
			<circle class="st3" cx="338.2738" cy="216.612" r="1.6922"/>
		</g>
	</g>
	<g transform="matrix(-1 0 0 1 800.25 0)">
		<g id="g">
			<path class="st3" d="M343.1648,217.7472c-3.1971,2.4446-6.3932,2.2563-8.2738,1.1282c-1.8797-1.1282-1.8797-1.5039-1.5048-1.5039
				c0.3758,0,0.7506,0.3758,2.2563,1.1273c1.5048,0.7533,3.7603,0.7533,7.5205-0.7515H343.1648z"/>
		</g>
	</g>
	<g>
		<path class="st3" d="M326.26,223.3792c-0.8034,0.147-1.3754,0.8598-1.3754,1.6773c0,0.9346,0.7726,1.6773,1.7054,1.6773
			c0.5482,0.0031,1.0627-0.2643,1.3754-0.7146c0.6503,0.4893,1.5523,0.5412,2.0346,0.55c0.0739,0.0018,0.1698,0,0.22,0
			c0.4822-0.0088,1.3842-0.0607,2.0354-0.55c0.3168,0.4541,0.8228,0.7146,1.3746,0.7146c0.9328,0,1.7054-0.7427,1.7054-1.6773
			c0-0.8175-0.572-1.5312-1.3754-1.6773c0.4514,0.1584,0.7427,0.5949,0.7427,1.0727c0.0005,0.6221-0.5034,1.1268-1.1255,1.1273
			c-0.0006,0-0.0012,0-0.0018,0c-0.5984,0-1.093-0.4752-1.1282-1.0727c-0.183,0.367-0.9099,1.4564-2.3373,1.5127
			c-1.4274-0.0563-2.1534-1.1458-2.3373-1.5127c-0.0352,0.5975-0.528,1.0727-1.1273,1.0727
			c-0.6221,0.0005-1.1268-0.5034-1.1273-1.1255c0-0.0006,0-0.0012,0-0.0018C325.5181,223.9749,325.8085,223.5385,326.26,223.3792
			L326.26,223.3792z M328.0992,228.3864c-1.8814,0-2.625,1.7046-4.3173,2.8327c0.9398-0.3758,1.6808-1.1176,2.9973-1.87
			c1.3165-0.7524,2.4394,0.1646,3.19,0.1646h0.0273c0.7506,0,1.8744-0.9161,3.19-0.1646c1.3174,0.7533,2.0847,1.4942,3.0254,1.87
			c-1.6931-1.1282-2.464-2.8327-4.3454-2.8327c-0.3749,0-1.1185,0.2024-1.87,0.5773h-0.0273
			C329.2186,228.5888,328.4749,228.3864,328.0992,228.3864z"/>
	</g>
	<g>
		<path class="st3" d="M327.4656,230.6128c-0.7427,0.0325-1.7248,0.1822-3.1354,0.6054c3.3862-0.7524,4.1334,0.3846,5.6382,0.3846
			h0.0264c1.5048,0,2.2528-1.1369,5.6382-0.3854c-3.7611-1.1282-4.5091-0.3846-5.6373-0.3846h-0.0273
			C329.2626,230.8328,328.7038,230.5582,327.4656,230.6128L327.4656,230.6128z"/>
	</g>
	<g>
		<path class="st3" d="M324.5,231.1936c-0.2182,0.0026-0.4567,0.0044-0.7154,0.0273c3.9494,0.3766,2.0513,2.64,6.1882,2.64h0.0264
			c4.1378,0,2.266-2.2634,6.2154-2.64c-4.136-0.3749-2.8283,2.0627-6.2146,2.0627h-0.0273c-3.175,0-2.1965-2.1305-5.4736-2.09H324.5
			z M333.388,237.3008c-0.001-1.8688-1.5157-3.3835-3.3845-3.3845c-1.8691,0.0005-3.3844,1.5153-3.3853,3.3845
			c0.3729-1.568,1.7736-2.6749,3.3853-2.6752C331.6153,234.6253,333.0161,235.7325,333.388,237.3008z"/>
	</g>
	<g id="e_00000011013029911014632200000017954582560180943496_">
		<path class="st3" d="M314.8024,214.7376c4.3252-3.7602,9.7768-4.3252,12.7864-1.5039c0.7366,0.9865,1.2082,2.0416,1.4018,3.1416
			c0.3784,2.141-0.2904,4.4546-1.9677,6.8253c0.1892-0.0009,0.5659,0.1866,0.7533,0.3758c1.4933-2.8547,2.0213-5.7878,1.5312-8.5765
			c-0.1307-0.7311-0.328-1.4486-0.5896-2.1437c-4.136-3.3836-9.7768-3.7594-13.9128,1.8814H314.8024z"/>
	</g>
	<g id="d_00000052099915687439165330000015333494942914963338_">
		<path class="st3" d="M321.5696,213.6112c2.4438,0,3.0087,0.565,4.136,1.5048c1.1299,0.9398,1.6931,0.7515,1.8806,0.9398
			c0.1874,0.1892,0,0.7515-0.3749,0.5632s-1.1299-0.5632-2.2563-1.503c-1.129-0.9416-2.2554-0.9407-3.3845-0.9407
			c-3.3845,0-5.265,2.8204-5.6408,2.6321c-0.3749-0.1883,1.8806-3.1962,5.6408-3.1962H321.5696z"/>
	</g>
	<g transform="translate(-19.181)">
		<g id="h_00000152261685252461744770000001817769611822079108_">
			<path class="st4" d="M321.4543,214.7728c-1.6693,0-3.2675,0.7234-4.2073,2.2273c1.8797,1.6922,6.0333,1.8762,8.8546-0.1927
				C324.8952,215.5232,323.2162,214.7881,321.4543,214.7728L321.4543,214.7728z M321.427,215.1582
				c1.6245-0.0299,3.1425,0.7163,3.3546,1.4573c-1.8797,2.068-4.884,1.8885-6.7646,0.3846c0.8228-1.3156,2.1463-1.819,3.41-1.8427
				V215.1582z"/>
		</g>
	</g>
	<g id="f_00000116211680268888765480000014530284507898880899_">
		<circle class="st3" cx="321.6752" cy="216.612" r="1.6922"/>
	</g>
	<g id="g_00000111875396401125850960000002800767210783267993_">
		<path class="st3" d="M317.0552,217.7472c3.1971,2.4446,6.3932,2.2563,8.2738,1.1282c1.8797-1.1282,1.8797-1.5039,1.5048-1.5039
			c-0.3758,0-0.7506,0.3758-2.2563,1.1273c-1.5048,0.7533-3.7603,0.7533-7.5205-0.7515H317.0552z"/>
	</g>
</g>
</svg>
