<?xml version="1.0" encoding="UTF-8"?>
<!DOCTYPE svg PUBLIC "-//W3C//DTD SVG 1.1//EN" "http://www.w3.org/Graphics/SVG/1.1/DTD/svg11.dtd">
<svg xmlns="http://www.w3.org/2000/svg" version="1.1" width="200px" height="133px" style="shape-rendering:geometricPrecision; text-rendering:geometricPrecision; image-rendering:optimizeQuality; fill-rule:evenodd; clip-rule:evenodd" xmlns:xlink="http://www.w3.org/1999/xlink">
<g><path style="opacity:1" fill="#123182" d="M -0.5,-0.5 C 66.1667,-0.5 132.833,-0.5 199.5,-0.5C 199.5,7.16667 199.5,14.8333 199.5,22.5C 132.833,22.5 66.1667,22.5 -0.5,22.5C -0.5,14.8333 -0.5,7.16667 -0.5,-0.5 Z"/></g>
<g><path style="opacity:1" fill="#fefffe" d="M -0.5,22.5 C 66.1667,22.5 132.833,22.5 199.5,22.5C 199.5,29.8333 199.5,37.1667 199.5,44.5C 132.833,44.5 66.1667,44.5 -0.5,44.5C -0.5,37.1667 -0.5,29.8333 -0.5,22.5 Z"/></g>
<g><path style="opacity:1" fill="#ce1427" d="M -0.5,44.5 C 66.1667,44.5 132.833,44.5 199.5,44.5C 199.5,59.5 199.5,74.5 199.5,89.5C 132.833,89.5 66.1667,89.5 -0.5,89.5C -0.5,74.5 -0.5,59.5 -0.5,44.5 Z"/></g>
<g><path style="opacity:1" fill="#f8f2f2" d="M 49.5,47.5 C 60.2268,46.1076 67.3935,50.441 71,60.5C 73.5177,71.9588 69.6843,80.4588 59.5,86C 49.2272,87.6088 42.3939,83.4422 39,73.5C 36.3653,62.2165 39.8653,53.5499 49.5,47.5 Z"/></g>
<g><path style="opacity:1" fill="#707e86" d="M 60.5,53.5 C 61.7206,54.0283 62.8873,54.695 64,55.5C 64.5281,56.816 64.0281,57.4827 62.5,57.5C 60.7085,57.634 59.0418,57.3007 57.5,56.5C 57.9867,55.5266 58.4867,54.5266 59,53.5C 59.69,54.7383 60.19,54.7383 60.5,53.5 Z"/></g>
<g><path style="opacity:1" fill="#735927" d="M 57.5,56.5 C 59.0418,57.3007 60.7085,57.634 62.5,57.5C 62.5,58.8333 63.1667,59.5 64.5,59.5C 64.2648,60.0967 63.7648,60.4301 63,60.5C 59.924,59.2363 56.7573,58.2363 53.5,57.5C 54.4371,55.3576 55.7704,55.0243 57.5,56.5 Z"/></g>
<g><path style="opacity:1" fill="#180604" d="M 120.5,57.5 C 121.873,57.3433 123.207,57.51 124.5,58C 122.35,59.5899 120.017,60.2566 117.5,60C 118.942,59.6232 119.942,58.7899 120.5,57.5 Z"/></g>
<g><path style="opacity:1" fill="#32342f" d="M 60.5,53.5 C 60.19,54.7383 59.69,54.7383 59,53.5C 58.4867,54.5266 57.9867,55.5266 57.5,56.5C 55.7704,55.0243 54.4371,55.3576 53.5,57.5C 56.7573,58.2363 59.924,59.2363 63,60.5C 63.7648,60.4301 64.2648,60.0967 64.5,59.5C 67.1456,61.7939 67.1456,64.1273 64.5,66.5C 63.6618,66.8417 63.3284,67.5084 63.5,68.5C 61.9293,67.8031 60.4293,67.4698 59,67.5C 55.8826,69.0528 55.7159,70.7194 58.5,72.5C 58.5,73.8333 58.5,75.1667 58.5,76.5C 55.6544,76.9699 53.3211,76.1366 51.5,74C 52.056,73.6174 52.3893,73.1174 52.5,72.5C 53.4614,70.7354 53.7947,68.7354 53.5,66.5C 55.6839,64.3481 57.6839,64.3481 59.5,66.5C 63.4182,64.0173 63.0849,61.8506 58.5,60C 55.8424,59.9271 53.1757,60.2604 50.5,61C 48.9371,61.7589 47.9371,62.9256 47.5,64.5C 47.5,65.1667 47.5,65.8333 47.5,66.5C 47.9175,67.2216 48.5842,67.7216 49.5,68C 47.8588,69.129 46.8588,70.629 46.5,72.5C 47.4499,75.1149 49.1165,77.1149 51.5,78.5C 50.6618,78.8417 50.3284,79.5084 50.5,80.5C 46.9135,78.4203 43.7468,75.7537 41,72.5C 39.4874,68.2288 40.9874,65.8954 45.5,65.5C 42.9441,62.3822 43.6108,59.8822 47.5,58C 46.6919,57.6924 46.0253,57.1924 45.5,56.5C 49.0224,51.8121 53.6891,50.3121 59.5,52C 60.056,52.3826 60.3893,52.8826 60.5,53.5 Z"/></g>
<g><path style="opacity:1" fill="#9ec9dd" d="M 53.5,66.5 C 53.0269,65.0937 52.0269,64.427 50.5,64.5C 49.5,64.5 48.5,64.5 47.5,64.5C 47.9371,62.9256 48.9371,61.7589 50.5,61C 53.1757,60.2604 55.8424,59.9271 58.5,60C 63.0849,61.8506 63.4182,64.0173 59.5,66.5C 57.6839,64.3481 55.6839,64.3481 53.5,66.5 Z"/></g>
<g><path style="opacity:1" fill="#efda2c" d="M 47.5,64.5 C 48.5,64.5 49.5,64.5 50.5,64.5C 50.1788,66.0481 49.1788,66.7148 47.5,66.5C 47.5,65.8333 47.5,65.1667 47.5,64.5 Z"/></g>
<g><path style="opacity:1" fill="#d3a13f" d="M 64.5,66.5 C 65.209,67.404 66.209,67.7373 67.5,67.5C 68.0762,71.1125 67.0762,74.1125 64.5,76.5C 63.6618,76.1583 63.3284,75.4916 63.5,74.5C 63.5,74.1667 63.5,73.8333 63.5,73.5C 64.8333,71.8333 64.8333,70.1667 63.5,68.5C 63.3284,67.5084 63.6618,66.8417 64.5,66.5 Z"/></g>
<g><path style="opacity:1" fill="#215d2b" d="M 50.5,64.5 C 52.0269,64.427 53.0269,65.0937 53.5,66.5C 53.7947,68.7354 53.4614,70.7354 52.5,72.5C 50.5,72.5 48.5,72.5 46.5,72.5C 46.8588,70.629 47.8588,69.129 49.5,68C 48.5842,67.7216 47.9175,67.2216 47.5,66.5C 49.1788,66.7148 50.1788,66.0481 50.5,64.5 Z"/></g>
<g><path style="opacity:1" fill="#7a6540" d="M 64.5,66.5 C 69.7365,66.9902 70.9032,69.6569 68,74.5C 67.1841,75.8228 66.0174,76.4894 64.5,76.5C 67.0762,74.1125 68.0762,71.1125 67.5,67.5C 66.209,67.7373 65.209,67.404 64.5,66.5 Z"/></g>
<g><path style="opacity:1" fill="#1b5222" d="M 63.5,68.5 C 64.8333,70.1667 64.8333,71.8333 63.5,73.5C 62.0813,72.5489 60.4147,72.2155 58.5,72.5C 55.7159,70.7194 55.8826,69.0528 59,67.5C 60.4293,67.4698 61.9293,67.8031 63.5,68.5 Z"/></g>
<g><path style="opacity:1" fill="#10409f" d="M 46.5,72.5 C 48.5,72.5 50.5,72.5 52.5,72.5C 52.3893,73.1174 52.056,73.6174 51.5,74C 53.3211,76.1366 55.6544,76.9699 58.5,76.5C 58.5,75.1667 58.5,73.8333 58.5,72.5C 60.4147,72.2155 62.0813,72.5489 63.5,73.5C 63.5,73.8333 63.5,74.1667 63.5,74.5C 59.9403,77.6872 55.9403,79.0206 51.5,78.5C 49.1165,77.1149 47.4499,75.1149 46.5,72.5 Z"/></g>
<g><path style="opacity:1" fill="#281109" d="M 113.5,67.5 C 114.5,67.5 115.5,67.5 116.5,67.5C 115.549,72.772 117.549,76.272 122.5,78C 115.312,77.9836 112.312,74.4836 113.5,67.5 Z"/></g>
<g><path style="opacity:1" fill="#514124" d="M 63.5,74.5 C 63.3284,75.4916 63.6618,76.1583 64.5,76.5C 62.3962,78.0987 60.3962,79.932 58.5,82C 56.1667,82.6667 53.8333,82.6667 51.5,82C 50.944,81.6174 50.6107,81.1174 50.5,80.5C 50.3284,79.5084 50.6618,78.8417 51.5,78.5C 55.9403,79.0206 59.9403,77.6872 63.5,74.5 Z"/></g>
<g><path style="opacity:1" fill="#fefffe" d="M -0.5,89.5 C 66.1667,89.5 132.833,89.5 199.5,89.5C 199.5,96.8333 199.5,104.167 199.5,111.5C 132.833,111.5 66.1667,111.5 -0.5,111.5C -0.5,104.167 -0.5,96.8333 -0.5,89.5 Z"/></g>
<g><path style="opacity:1" fill="#002a7f" d="M -0.5,111.5 C 66.1667,111.5 132.833,111.5 199.5,111.5C 199.5,118.5 199.5,125.5 199.5,132.5C 132.833,132.5 66.1667,132.5 -0.5,132.5C -0.5,125.5 -0.5,118.5 -0.5,111.5 Z"/></g>
</svg>
