<?xml version="1.0" encoding="utf-8"?>
<!-- Generator: Adobe Illustrator 27.7.0, SVG Export Plug-In . SVG Version: 6.00 Build 0)  -->
<!DOCTYPE svg PUBLIC "-//W3C//DTD SVG 1.1//EN" "http://www.w3.org/Graphics/SVG/1.1/DTD/svg11.dtd" [
	<!ENTITY ns_extend "http://ns.adobe.com/Extensibility/1.0/">
	<!ENTITY ns_ai "http://ns.adobe.com/AdobeIllustrator/10.0/">
	<!ENTITY ns_graphs "http://ns.adobe.com/Graphs/1.0/">
	<!ENTITY ns_vars "http://ns.adobe.com/Variables/1.0/">
	<!ENTITY ns_imrep "http://ns.adobe.com/ImageReplacement/1.0/">
	<!ENTITY ns_sfw "http://ns.adobe.com/SaveForWeb/1.0/">
	<!ENTITY ns_custom "http://ns.adobe.com/GenericCustomNamespace/1.0/">
	<!ENTITY ns_adobe_xpath "http://ns.adobe.com/XPath/1.0/">
]>
<svg version="1.1" id="Layer_1" xmlns:x="&ns_extend;" xmlns:i="&ns_ai;" xmlns:graph="&ns_graphs;"
	 xmlns="http://www.w3.org/2000/svg" xmlns:xlink="http://www.w3.org/1999/xlink" x="0px" y="0px" width="660px" height="440px"
	 viewBox="0 0 660 440" style="enable-background:new 0 0 660 440;" xml:space="preserve">
<style type="text/css">
	.st0{fill:#4997D0;}
	.st1{fill:#FFFFFF;}
	.st2{fill:none;stroke:#24420E;stroke-width:0.44;}
	.st3{fill:#406325;stroke:#24420E;stroke-width:0.16;}
	.st4{fill:#67923D;stroke:#24420E;stroke-width:0.16;}
	.st5{fill:#BA1F3E;stroke:#511124;stroke-width:0.19;}
	.st6{fill:#BA1F3E;stroke:#511124;stroke-width:0.22;}
	.st7{fill:#8C959D;stroke:#485654;stroke-width:0.11;}
	.st8{fill:#8C959D;}
	.st9{fill:#485654;}
	.st10{fill:#6C301E;stroke:#351710;stroke-width:0.22;stroke-linejoin:round;}
	.st11{fill:#B2B6BA;stroke:#485654;stroke-width:0.22;}
	.st12{fill:none;stroke:#485654;stroke-width:0.16;}
	.st13{fill:#FAB81C;stroke:#6C301E;stroke-width:0.22;}
	.st14{fill:#FAB81C;stroke:#6C301E;stroke-width:0.11;}
	.st15{fill:#FAB81C;}
	.st16{fill:#6C301E;}
	.st17{fill:url(#SVGID_1_);stroke:#999270;stroke-width:0.16;}
	.st18{fill:url(#SVGID_00000021079060505516831870000006159660871816971141_);stroke:#999270;stroke-width:0.16;}
	.st19{fill:url(#SVGID_00000169534342803434918040000013162471089203789231_);stroke:#999270;stroke-width:0.16;}
	.st20{fill:url(#SVGID_00000018956734295906195430000009771914769606616199_);stroke:#999270;stroke-width:0.16;}
	.st21{fill:#F9F0AA;stroke:#999270;stroke-width:0.16;}
	.st22{fill:url(#SVGID_00000016794328932406207050000005416752453135197078_);stroke:#999270;stroke-width:0.16;}
	.st23{fill:url(#SVGID_00000087372337722871633840000016230838178938118801_);stroke:#999270;stroke-width:0.16;}
	.st24{fill:url(#SVGID_00000116918756064620423870000015495412212115924374_);stroke:#999270;stroke-width:0.16;}
	.st25{fill:url(#SVGID_00000128480374344905588800000016547184537574527658_);stroke:#999270;stroke-width:0.16;}
	.st26{fill:url(#SVGID_00000108271828871575308850000004355454557996672918_);stroke:#999270;stroke-width:0.16;}
	.st27{fill:#B07E09;}
	.st28{fill:url(#SVGID_00000176725570663132853380000007766590611426948740_);stroke:#4C0505;stroke-width:0.22;}
	.st29{fill:#448127;stroke:#34541F;stroke-width:0.22;}
	.st30{fill:#EAC102;stroke:#A08307;stroke-width:0.22;}
	.st31{fill:#A08307;}
	.st32{stroke:#000000;stroke-width:0.1;}
	.st33{fill:url(#SVGID_00000011734965664983340980000012582834161465203085_);}
	.st34{fill:#34541F;}
	.st35{fill:#448127;}
</style>
<metadata>
	<sfw  xmlns="&ns_sfw;">
		<slices></slices>
		<sliceSourceBounds  bottomLeftOrigin="true" height="440" width="660" x="-325.5" y="-217"></sliceSourceBounds>
	</sfw>
</metadata>
<g>
	<path class="st0" d="M0,0h660v440H0V0z"/>
	<path class="st1" d="M220,0h220v440H220V0z"/>
	<g>
		<g>
			<path class="st2" d="M310.8325,273.2675c1.8356-0.275,2.8875-0.7838,4.1525-1.2307 M316.5044,269.2525
				c0.9076,0.9037,1.611,1.9915,2.0625,3.19 M312.9844,268.95c0.8762,0.8217,1.6062,1.7865,2.1588,2.8531 M281.0569,177.9044
				c-0.715,1.1-2.1313,1.8769-3.2863,2.3581 M277.5369,180.125c0.0275-0.9419-0.165-2.0831,0.0344-3.025 M276.21,180.5581
				c0.0756,0.2544,0.3025,0.9625,0.4675,1.3956 M278.0663,182.5863c-0.2613,0.055-1.045,0.1787-1.3956,0.2337 M273.955,182.215
				c-0.0069,1.7325,0.1994,3.8156,0.3644,5.3763 M273.0887,186.9312c0.3231,0.5225,0.6531,1.0312,1.0588,1.2925 M270.9987,192.6719
				c0.3369,0.6463,0.6462,1.4575,0.8937,2.7225 M274.45,192.2112c-0.2819,0.1375-0.8319,0.6394-1.3269,1.0587 M274.2162,196.295
				c-0.6738,0.5981-1.5125,1.0312-2.3581,1.4575 M269.2387,225.5344c0.6913,1.2382,1.6158,2.3308,2.7225,3.2175 M272.36,229.9138
				c-0.7131-0.0877-1.4021-0.3143-2.0281-0.6669 M273.3569,235.0287l1.1619,0.6669 M274.2162,238.0812
				c0.8594,0.5638,1.7256,1.5675,2.5919,2.6537 M275.8112,242.6944c0.9556,0.2062,1.7188,0.44,2.2206,0.7287 M277.3031,245.0869
				l1.4575,0.0481 M279.5925,241.4362c-0.0688,1.0519-0.1719,2.0419-0.33,2.9219 M279.9569,245.4512l0.2956-1.1275
				 M283.4769,248.4419l-0.1031,2.2275 M310.3306,269.8506l-0.7975,1.1 M307.8763,268.2556l-0.4675-1.2581"/>
		</g>
		<g>
			<path class="st3" d="M334.2006,278.3894c-0.55-0.8663-1.4438-1.3956-2.255-1.8288c-5.3075-2.7844-10.5875-4.015-16.5756-4.9775
				c-1.3888-0.2338-2.7706-1.5262-4.1869-2.1931c-3.41-1.6225-7.2119-2.255-10.5256-3.9187
				c-0.5373-0.2693-1.0254-0.6272-1.4437-1.0588c-1.3269-1.5262-3.7125-1.9937-5.1906-3.4169
				c-5.7269-5.4106-11.8112-10.395-14.9669-17.5656c-3.8294-8.7313-8.5938-17.7306-7.9544-27.6581
				c0.4194-6.27-0.5156-12.6156,1.0312-18.59c2.2894-8.8687,5.2181-17.6275,10.5875-24.9631l-0.8937,0.5638
				c-5.4106,7.3356-8.3394,16.1012-10.6288,24.9631c-1.54,5.9813-0.6119,12.32-1.0312,18.59
				c-0.6394,9.9275,4.125,18.9269,7.9544,27.6925c3.1556,7.1363,9.2744,12.1137,14.9738,17.5656
				c1.4781,1.3888,3.8637,1.8563,5.1769,3.4169c0.3919,0.4331,1.2581,0.9625,1.4506,1.0587
				c3.3206,1.6638,7.1156,2.2962,10.5256,3.8844c1.4163,0.7012,2.805,1.9594,4.1938,2.2
				c5.9813,0.9625,11.2613,2.2206,16.5688,4.9706c0.9016,0.3972,1.6802,1.0287,2.255,1.8288L334.2006,278.3894"/>
			<g>
				<path class="st4" d="M279.3587,241.7387c-1.925-4.3312-0.935-14.85-0.1375-16.1769
					C283.7794,234.4994,282.2668,241.8831,279.3587,241.7387z M310.8875,272.9444c-4.8813,0.2475-14.1694,6.3937-15.0287,7.8375
					C306.2263,280.8575,312.3725,275.7494,310.8875,272.9444z M316.0163,269.995c-4.7094-3.7469-9.7556-16.2663-9.6456-18.2188
					C316.7519,259.2219,319.385,268.4688,316.0163,269.995z"/>
				<path class="st4" d="M312.5444,270.0363c-4.7781-2.915-10.8557-13.8257-10.9588-15.6406
					C312.0356,260.0262,315.4731,268.2281,312.5444,270.0363z M301.8469,265.375c0.6738-5.3763-3.8981-16.665-5.2181-17.8613
					C294.6006,258.8369,298.6913,266.4681,301.8469,265.375z M283.0712,248.6825c-1.5812-3.8844-0.4193-13.2825,0.3232-14.4375
					C287.1894,242.2888,285.6356,248.8338,283.0712,248.6825z M273.6456,195.8619c2.4681-4.5719,12.6363-10.8006,14.4306-10.9519
					C283.4219,194.9269,275.6737,198.5431,273.6456,195.8619z"/>
				<path class="st4" d="M274.1337,192.0394c1.4781-5.005,10.2231-13.2481,11.935-13.7706
					C283.5044,189.0419,276.6637,194.1981,274.1337,192.0394z M293.2531,260.205c-3.4375-4.2487-5.5069-16.4038-5.0119-18.1225
					C295.9893,250.6831,296.5119,259.4281,293.2531,260.205L293.2531,260.205z M273.5562,235.1387
					c-4.7437,0.7494-14.685-3.19-15.7575-4.3587C267.7881,228.6144,274.4981,232.2031,273.5562,235.1387z M272.03,228.4837
					c0.5638-3.8362,5.9606-10.8625,7.1225-11.4538C278.3962,225.2525,274.0306,229.8175,272.03,228.4837z M307.3194,268.73
					c-5.83,0.2956-16.9331,7.6313-17.9644,9.3637C301.7506,278.19,309.0863,272.085,307.3194,268.73z"/>
			</g>
			<g>
				<path class="st3" d="M279.4069,241.6356c2.9081,0.1444,4.4-7.15-0.1856-16.0737
					C280.0531,234.0319,280.0463,240.9,279.4069,241.6356z M287.0931,255.3787c-3.0731-3.7606-13.3237-7.7894-14.9256-7.6588
					C278.2725,256.025,285.835,258.1012,287.0931,255.3787z M270.3044,218.955c-0.7906-5.5275-8.4769-15.6131-10.1337-16.4794
					C261.2088,214.2869,267.4238,220.8319,270.3044,218.955z M276.0725,242.5294c-3.4375-2.53-13.0419-3.6712-14.3963-3.245
					C268.6475,244.9906,275.5706,245.1006,276.0725,242.5294z M269.6375,225.4588c-1.9869-3.9119-10.1819-9.2675-11.6187-9.4188
					C261.8206,224.5581,268.0356,227.6862,269.6375,225.4588z M271.5144,192.775c0.6187-5.2044-3.8019-16.1219-5.0463-17.2975
					C264.495,186.4294,268.4688,193.8131,271.5144,192.775z M274.5875,182.5175c1.8288-4.4688,0.5225-15.4206-0.3575-16.7888
					C269.83,175.0169,271.5969,182.6756,274.5875,182.5175z"/>
				<path class="st3" d="M278.0388,177.2581c2.1588-3.2794,2.86-12.155,2.3925-13.3856
					C275.4606,170.5481,275.6531,176.8938,278.0388,177.2581z M282.1294,173.0369c3.025-2.3925,6.3387-10.6562,6.2425-11.9831
					C281.6756,165.8319,279.9706,171.9438,282.1294,173.0369z M271.095,202.7369c0.0688,0.5981-0.6738-5.6237-6.9094-12.5881
					C264.4606,200.3306,268.4825,204.1875,271.095,202.7369z M293.48,261.7106c-4.2487-3.135-16.0807-4.6269-17.7169-4.0769
					C284.3981,264.7563,292.8681,264.8869,293.48,261.7106z M301.7781,265.3131c-3.1212,1.1-7.1775-6.4763-5.1837-17.7925
					C298.5262,257.1113,300.8431,264.7494,301.7781,265.3131z M310.9219,272.9788c1.4575,2.805-4.6063,7.865-14.9806,7.7756
					C304.1637,277.3925,310.5437,273.9756,310.9219,272.9788z M316.0025,269.9056c3.3412-1.5469,0.7563-10.6837-9.625-18.1294
					C312.2831,260.8581,316.3119,268.6956,316.0025,269.9056z"/>
				<path class="st3" d="M312.5169,269.9606c2.9425-1.8356-0.4744-9.9275-10.9312-15.565
					C308.055,262.0819,312.6544,268.8125,312.5169,269.9606L312.5169,269.9606z M283.0988,248.655
					c2.5644,0.1512,4.0975-6.3663,0.33-14.3825C283.9238,241.8144,283.7175,248.0019,283.0988,248.655z M273.6387,195.8963
					c2.0281,2.6812,9.6594-0.8938,14.3275-10.945C280.9744,191.3725,274.7456,195.9925,273.6387,195.8963z"/>
				<path class="st3" d="M274.2162,192.0394c2.53,2.1588,9.3087-2.9563,11.8731-13.7363
					C280.5206,186.0375,275.3369,191.8744,274.2162,192.0394z M293.2737,260.1638c3.2587-0.77,2.7156-9.4738-4.9844-18.0606
					C291.7269,251.3225,293.7962,259.1188,293.2737,260.1638z M273.4256,235.0975c0.9625-2.915-5.7062-6.4419-15.675-4.3038
					C266.1794,232.3062,272.9031,234.2587,273.4256,235.0975z M272.0919,228.4906c1.9937,1.2994,6.3112-3.2038,7.0744-11.4263
					C275.9488,223.3756,272.8619,228.25,272.0919,228.4906z M307.2919,268.8331c1.7737,3.355-5.4725,9.3981-17.9025,9.295
					C299.2137,274.1131,306.8381,270.0294,307.2919,268.8331z"/>
				<path class="st3" d="M274.56,238.0812c-1.8288-4.3038-10.175-10.6287-11.6738-10.89
					C266.2825,236.5688,272.6831,240.3569,274.56,238.0812z"/>
			</g>
			<g>
				<path class="st4" d="M269.7888,202.07c2.7981-3.2106,12.0106-6.2769,13.475-6.0912
					C277.7363,203.1288,270.93,204.5794,269.7888,202.07z M287.0244,255.4131c-1.2375,2.695-8.7312,0.6325-14.8844-7.6656
					C279.6269,252.4431,286.0619,255.6538,287.0244,255.4131z M270.2563,218.9412c-2.8875,1.8769-9.0269-4.6337-10.0994-16.4175
					C264.715,211.5988,269.1219,218.5975,270.2563,218.9412z M276.045,242.55c-0.5294,2.5644-7.3494,2.4681-14.3412-3.245
					C269.0737,241.6425,275.2681,242.9762,276.045,242.55L276.045,242.55z M269.5481,225.3969
					c-1.6019,2.2275-7.7619-0.8731-11.55-9.3913C263.6288,221.485,268.6407,225.4588,269.5481,225.3969z M271.4456,192.7062
					c-3.0456,1.0725-6.985-6.2425-5.0187-17.1875C268.2625,184.7862,270.5106,192.1356,271.4456,192.7062z M274.5187,182.49
					c-2.9562,0.1581-4.7231-7.4319-0.3231-16.72C273.6319,174.57,273.8519,181.7406,274.5187,182.49z M277.9837,177.2169
					c-2.3856-0.3644-2.5575-6.6413,2.42-13.3169C278.52,170.7613,277.5506,176.5294,277.9837,177.2169z M282.095,173.0369
					c-2.1588-1.1275-0.4813-7.1706,6.215-11.9212C284.5081,167.0625,281.9025,172.2394,282.095,173.0369z"/>
				<path class="st4" d="M271.0469,202.7437c-2.6125,1.4438-6.5862-2.4062-6.8681-12.595
					C267.685,198.1787,270.0912,202.3862,271.0469,202.7437z M293.4388,261.7313c-0.6119,3.1831-9.0338,3.025-17.655-4.0562
					C284.8381,260.6175,292.4556,262.2813,293.4388,261.7313z M287.8219,255.2137c-2.7637-2.9837-4.9225-11.9281-4.6406-13.2275
					C289.3756,247.995,290.2075,254.4713,287.8219,255.2137z M276.2169,238.0331c-2.4544-3.9806-2.6675-14.3687-2.0075-15.785
					C279.8881,230.3675,279.1937,237.7788,276.2169,238.0331z M274.4088,238.095c-1.8837,2.2687-8.2019-1.485-11.5981-10.8831
					C268.4,233.4681,273.4463,238.0744,274.4088,238.095z"/>
			</g>
			<g>
				<path class="st3" d="M269.7544,202.125c1.1137,2.4887,7.8719,1.0519,13.4062-6.105
					C274.9244,200.695,271.6656,202.7162,269.7544,202.125z M276.1756,237.9231c2.9769-0.2544,3.6644-7.59-2.0144-15.7094
					C275.99,230.3675,276.7669,237.1187,276.1756,237.9231z M287.8356,255.1862c2.3856-0.7356,1.5469-7.1844-4.6131-13.1862
					C286.2475,248.6894,288.1725,254.3819,287.8356,255.1862z"/>
				<path class="st3" d="M271.0331,214.3419c1.4162-5.7681-1.1688-15.5375-2.9562-17.5725
					C264.8319,207.3775,267.9119,215.0569,271.0331,214.3419z"/>
			</g>
			<path class="st4" d="M270.8269,215.7169c-4.0562,0.9212-5.94-8.2706-2.805-18.6175
				C268.7575,206.415,269.9675,215.0775,270.8269,215.7169z"/>
			<path class="st4" d="M270.0019,215.6825c-0.385-5.1769,4.7644-15.8744,6.1256-16.9812
				C277.5163,209.5637,273.0613,216.7825,270.0019,215.6825z"/>
			<path class="st3" d="M270.0775,215.6069c3.0319,1.1275,7.4594-6.0225,6.0706-16.885
				C273.7419,207.8381,271.0331,215.0569,270.0775,215.6069z"/>
			<path class="st4" d="M270.9644,222.2413c0-5.225,5.8231-15.2831,7.26-16.2388
				C278.8019,217.1125,273.8725,223.7606,270.9644,222.2413z"/>
			<path class="st3" d="M271.0194,222.3444c2.9081,1.5194,7.7687-5.06,7.1981-16.17
				C275.1925,215.0088,271.9956,221.9181,271.0194,222.3444z"/>
		</g>
		<g>
			<circle class="st5" cx="272.8206" cy="186.4981" r="0.7425"/>
			<circle class="st5" cx="278.575" cy="182.2356" r="0.7425"/>
			<circle class="st5" cx="276.0725" cy="179.9256" r="0.7494"/>
			<circle class="st6" cx="269.8438" cy="229.02" r="0.88"/>
			<circle class="st6" cx="271.5831" cy="218.0269" r="0.88"/>
			<circle class="st6" cx="280.6444" cy="243.6912" r="0.88"/>
			<circle class="st6" cx="276.6431" cy="245.0456" r="0.88"/>
			<circle class="st6" cx="307.1063" cy="266.4956" r="0.88"/>
			<circle class="st6" cx="309.1069" cy="271.3631" r="0.88"/>
		</g>
	</g>
	<g>
		<g>
			<path class="st2" d="M385.7906,191.7919c0.4262,0.4263,0.8044,0.55,1.5812,1.3062 M382.8138,180.07
				c-0.0275-0.9419-0.4331-2.475-0.6325-3.4169 M384.5531,178.7019c0.0413,1.3406-0.1512,2.6125-0.7287,3.7812 M380.9644,182.1187
				c1.2031,1.0863,2.4062,2.1175,3.6162,2.6812 M387.2069,185.6387c0.0642,1.3775-0.0937,2.7564-0.4675,4.0838 M386.9594,190.7606
				l0.9006-1.5537 M386.5812,197.6081c0.9625,0.2062,1.9319,1.3406,2.4062,2.3925 M389.3175,199.1137l1.1275-1.5056
				 M391.6206,218.735c-0.4916,0.8461-1.0576,1.6468-1.6913,2.3925 M387.2069,221.0794c0.5431,1.0038,1.0725,2.0281,1.7875,2.7706
				 M390.6788,227.8856c-0.7913,1.1456-1.8358,2.0937-3.0525,2.7706 M387.7225,233.75c-0.7562,0.5156-1.6706,2.0281-2.5369,3.2381
				 M390.9881,223.1144l-1.4575,0.5981 M388.5681,218.5631l0.8663,0.7631 M383.0406,245.0319c-0.5775-0.0688-1.0038,0-1.4575,0.0481
				 M380.2081,243.7531l0.4194,1.1275 M375.3269,248.4006c-0.1788,1.2856-0.0481,2.5644,0.1375,3.85 M378.4275,246.0494
				l0.7013,1.5469 M381.7619,247.4588l-1.7394,0.2819 M358.8131,265.1137l-0.6325,1.1963 M366.3619,263.6081
				c-1.0312,0.1306-1.9113-0.0275-2.8187-0.1375 M359.7894,267.5544c-0.6607-0.2581-1.3356-0.4784-2.0213-0.66 M347.6344,268.7231
				c-0.6187,0.5294-1.3681,1.6775-2.1106,2.8188 M345.1456,268.4c-1.6706,0.8594-2.1862,2.5506-3.0525,3.9875 M344.0181,274.3606
				c-1.2461-0.4029-2.4694-0.8734-3.6644-1.4094 M351.8831,272.4837c-1.595-0.825-3.2656-0.7494-4.9088-1.0106 M354.3719,271.2394
				c-2.4956-0.4813-4.8194-0.4194-7.0675-0.0963 M352.6531,269.3556l-0.9625-0.3987 M347.8887,272.7381l-1.595-0.8937
				 M386.1275,238.0262c-0.8662,0.5638-1.7256,1.5675-2.5919,2.6537 M384.7938,185.9413l-1.4781-0.495"/>
		</g>
		<g>
			<path class="st3" d="M326.1431,278.3344c0.55-0.8663,1.4438-1.3956,2.255-1.8288c5.3075-2.7844,10.5875-4.015,16.5756-4.9775
				c1.3888-0.2338,2.7706-1.5262,4.1938-2.1931c3.4031-1.6225,7.205-2.255,10.5188-3.9188
				c0.5398-0.2686,1.0302-0.6266,1.4506-1.0588c1.32-1.5262,3.6988-1.9937,5.1837-3.4169
				c5.7269-5.4106,11.8112-10.395,14.9669-17.5656c3.8294-8.7313,8.5938-17.7306,7.9544-27.6512
				c-0.4194-6.2769,0.5156-12.6156-1.0312-18.5969c-2.2894-8.8687-5.2181-17.6275-10.5875-24.9631l0.8937,0.5638
				c5.4106,7.3356,8.3394,16.1013,10.6288,24.9631c1.54,5.9812,0.6119,12.32,1.0312,18.5969
				c0.6394,9.9206-4.125,18.92-7.9544,27.6856c-3.1625,7.1363-9.2744,12.1206-14.9738,17.5656
				c-1.4781,1.3888-3.8637,1.8563-5.1837,3.4169c-0.4329,0.4144-0.9183,0.7704-1.4437,1.0587
				c-3.3206,1.6638-7.1156,2.2962-10.5256,3.8912c-1.4162,0.6875-2.805,1.9525-4.1938,2.1862
				c-5.9812,0.9625-11.2612,2.2275-16.5688,4.9844c-0.9007,0.3953-1.6793,1.0243-2.255,1.8219L326.1431,278.3344"/>
			<g>
				<path class="st3" d="M380.6344,243.7875c1.8837-5.1013,0-17.0775-1.0244-18.5281
					C375.0381,235.8262,377.3138,244.1656,380.6344,243.7875z"/>
				<path class="st3" d="M375.7462,248.6275c1.5812-3.8844,0.4193-13.2825-0.3231-14.4375
					C371.6281,242.2338,373.1819,248.7788,375.7462,248.6275z M387.3031,197.6494c-2.2687-4.1938-11.5981-9.9137-13.2412-10.0513
					C378.3312,196.79,385.44,200.1106,387.3031,197.6494z"/>
				<path class="st3" d="M386.21,192.1356c-1.2375-4.1731-8.525-11.0344-9.9481-11.4812
					C378.3931,189.64,384.0994,193.9369,386.21,192.1356z M389.4688,202.4206c-2.4337-2.7844-10.4225-5.4519-11.6944-5.2938
					C382.5731,203.3419,388.4788,204.6,389.4688,202.4206z M387.5438,234.2725c4.2144,0.6669,13.035-2.8325,13.9838-3.8706
					C392.6588,228.4769,386.7119,231.6669,387.5438,234.2725z M387.4406,230.395c-0.0275-3.8775-4.4-11.5912-5.4725-12.3269
					C381.59,226.3181,385.2681,231.44,387.4406,230.395z"/>
				<path class="st3" d="M387.7225,220.99c0-5.225-5.8231-15.2831-7.26-16.2388C379.885,215.8613,384.8144,222.5094,387.7225,220.99
					z M351.3606,272.7381c3.08,3.7812,13.5094,7.6519,15.1869,7.4937C360.4975,271.8237,352.7494,269.885,351.3606,272.7381
					L351.3606,272.7381z"/>
			</g>
			<g>
				<path class="st4" d="M380.5725,243.6706c-3.3138,0.3781-5.5619-7.865-0.9625-18.4181
					C379.2731,235.015,379.775,242.8731,380.5725,243.6706z M343.8806,273.6869c4.8813,0.2475,14.1694,6.3938,15.0287,7.8375
					C348.5419,281.6,342.3956,276.4919,343.8806,273.6869z M343.8806,268.2281c1.4438-5.4794,10.3125-14.5819,12.0381-15.2281
					C353.4438,264.7769,346.4725,270.5519,343.8806,268.2281z M358.5038,265.32c-0.6737-5.3763,3.8981-16.665,5.2113-17.8613
					C365.75,258.7819,361.6525,266.42,358.5038,265.32z M373.2575,255.3238c3.0731-3.7606,13.3238-7.7894,14.9257-7.6588
					C382.0781,255.97,374.5156,258.0462,373.2575,255.3238z M390.9881,218.7075c0.6188-4.3519,6.6757-12.2925,7.975-12.9731
					C398.145,215.0294,393.2569,220.1856,390.9881,218.7075z"/>
				<path class="st4" d="M382.9513,244.8737c4.0013-2.9494,15.1937-4.2831,16.775-3.7812
					C391.6069,247.7406,383.5357,247.8644,382.9513,244.8737z M390.0119,228.0163c2.0831-4.1113,10.7044-9.7419,12.2031-9.9
					C398.2275,227.0675,391.6962,230.3537,390.0119,228.0163z M388.9944,196.6938c-0.0688-5.2456,5.4862-15.6269,6.8543-16.665
					C396.6462,191.125,391.9094,198.0412,388.9944,196.6938z M384.23,178.8737c-1.595-3.63-0.7563-12.6569-0.0688-13.7981
					C387.9838,172.6106,386.6913,178.9425,384.23,178.8737z M381.3219,177.375c-3.6231-3.2175-7.315-13.585-7.1569-15.1938
					C382.2432,168.5475,384.0582,176.1787,381.3219,177.375z"/>
				<path class="st4" d="M389.3175,201.1213c-0.22,0.5638,2.0213-5.2938,9.7762-10.5188
					C396.3369,200.4063,391.5038,203.1631,389.3175,201.1213z M365.8737,262.9275c4.8125-3.5544,18.2394-5.2456,20.0956-4.62
					C376.1725,266.3788,366.5681,266.5369,365.8737,262.9275z M375.7256,248.6c-2.5644,0.1512-4.0975-6.3663-0.33-14.3825
					C374.9007,241.7594,375.1069,247.9469,375.7256,248.6z M387.31,197.6769c-1.8563,2.4612-8.8688-0.825-13.145-10.0444
					C380.5794,193.5244,386.2925,197.7663,387.31,197.6769z M386.1412,192.1356c-2.1106,1.8013-7.7619-2.4612-9.9-11.4469
					C380.8887,187.1306,385.2131,191.9981,386.1412,192.1356z M389.5031,202.4688c-0.9625,2.1656-6.8337,0.9144-11.6325-5.2938
					C385.0138,201.2244,387.8394,202.9844,389.5031,202.4688z M387.6537,234.2381c-0.8594-2.585,5.06-5.72,13.915-3.8225
					C394.0887,231.7563,388.1143,233.4956,387.6537,234.2381z M387.3788,230.3881c-2.1588,1.0106-5.8094-4.0425-5.4244-12.2925
					C384.2644,224.7919,386.65,230.0444,387.3788,230.3881z"/>
				<path class="st4" d="M387.6675,221.0931c-2.9081,1.5125-7.7687-5.06-7.1981-16.17
					C383.4944,213.7575,386.6913,220.6669,387.6675,221.0931z M351.4431,272.7038c1.3888-2.8531,9.0406-0.9488,15.1112,7.4869
					C358.9919,275.55,352.4675,272.4219,351.4431,272.7038L351.4431,272.7038z"/>
			</g>
			<g>
				<path class="st3" d="M358.5656,265.2581c3.1212,1.1,7.1775-6.4763,5.1837-17.7925
					C361.8175,257.0562,359.5006,264.6944,358.5656,265.2581z"/>
				<path class="st3" d="M365.6331,261.6556c2.9838-4.5719,3.8156-16.8781,3.1487-18.5419
					C361.9482,252.4637,362.3125,261.2156,365.6331,261.6556z M343.8463,273.7144c-1.4575,2.805,4.6063,7.865,14.9806,7.7756
					C350.6112,278.135,344.2244,274.7113,343.8463,273.7144L343.8463,273.7144z M343.9562,268.18
					c2.6056,2.2962,9.4875-3.4031,11.9625-15.18C350.3363,261.5388,345.1181,267.9875,343.9562,268.18L343.9562,268.18z
					 M373.3194,255.3581c1.2375,2.695,8.7312,0.6325,14.8844-7.6656C380.7169,252.3881,374.2819,255.6056,373.3194,255.3581z
					 M391.0225,218.6938c2.2687,1.4781,7.1088-3.6437,7.9475-12.925C395.3881,212.9188,391.9163,218.4188,391.0225,218.6938z
					 M382.9856,244.8944c0.6188,2.9906,8.5594,2.8737,16.7131-3.7812C391.105,243.8425,383.8863,245.3894,382.9856,244.8944z
					 M390.1081,227.9544c1.6844,2.3375,8.1606-0.9144,12.1412-9.8656C396.3369,223.8431,391.0568,228.0163,390.1081,227.9544z
					 M389.07,196.6319c2.915,1.3887,7.6038-5.4656,6.8063-16.5688C393.0712,189.0969,390.06,196.1644,389.07,196.6319z
					 M384.285,178.8463c2.4337,0.0688,3.7194-6.2081-0.0894-13.75C384.8488,172.315,384.8144,178.2137,384.285,178.8463z
					 M381.3769,177.3062c2.7293-1.1963,0.9144-8.7381-7.1637-15.1044C378.6612,169.7781,381.6725,176.3438,381.3769,177.3062z
					 M389.3588,201.1419c2.1794,2.0419,6.9713-0.7287,9.7281-10.5394C393.7244,197.5325,390.3694,201.0319,389.3588,201.1419z
					 M365.9219,262.955c0.6875,3.6094,10.2506,3.4375,20.0269-4.5994C375.6775,261.69,367.0425,263.5806,365.9219,262.955z"/>
				<path class="st3" d="M370.6588,257.6406c2.2481-3.3894,2.9356-12.5606,2.4475-13.805
					C367.9638,250.7656,368.1838,257.29,370.6588,257.6406z M384.1337,237.9713c2.4544-3.9806,2.6675-14.3687,2.0075-15.785
					C380.4625,230.3056,381.1569,237.7169,384.1337,237.9713z"/>
			</g>
			<g>
				<path class="st4" d="M365.6056,261.6212c-3.3206-0.44-3.6644-9.1506,3.1281-18.4731
					C366.245,252.67,364.9799,260.6381,365.6056,261.6212z M389.7781,214.6444c-0.6462-5.335,2.7362-13.8462,4.5581-15.4825
					C396.11,209.0481,392.5075,215.6275,389.7781,214.6444z M370.6381,257.6063c-2.475-0.3438-2.6813-6.8406,2.4337-13.75
					C371.1606,250.9375,370.1775,256.8706,370.6381,257.6063z M386.6981,185.9413c-1.4919-4.0425,0.0206-13.7775,0.8525-14.9669
					C391.1806,179.3963,389.3587,186.175,386.6981,185.9413z M346.7681,268.5444c1.6981-5.5688,11.1375-14.4925,12.925-15.0631
					C356.7162,265.4575,349.3394,271.0262,346.7681,268.5444z M384.2575,239.9512c1.8287-4.3038,10.175-10.6288,11.6737-10.89
					C392.535,238.4388,386.1343,242.22,384.2575,239.9512z M384.175,237.8681c-2.9769-0.2544-3.6644-7.59,2.0144-15.7094
					C384.3606,230.3125,383.5837,237.0637,384.175,237.8681z"/>
			</g>
			<path class="st3" d="M389.8125,215.9025c3.5475,1.265,6.2425-6.7994,4.5375-16.4381
				C392.6794,207.7556,390.6512,215.4144,389.8125,215.9025z"/>
			<path class="st3" d="M390.3419,215.6275c0.385-5.1769-4.7644-15.8744-6.1325-16.9812
				C382.8275,209.5087,387.2825,216.7275,390.3419,215.6275z M386.7531,185.9137c2.6331,0.2337,4.4481-6.4831,0.8181-14.9119
				C387.7981,178.8737,387.3719,185.2675,386.7531,185.9137z M346.8438,268.4894c2.6056,2.4887,9.8794-3.0388,12.8563-15.015
				C353.6225,261.965,348.04,268.3312,346.8438,268.4894z M384.4088,239.965c1.8838,2.2687,8.2019-1.485,11.5981-10.8831
				C390.4175,235.3382,385.3713,239.9444,384.4088,239.965z"/>
			<path class="st4" d="M390.2662,215.5519c-3.0319,1.1275-7.4594-6.0225-6.0706-16.885
				C386.6018,207.7831,389.3106,215.0019,390.2662,215.5519z"/>
		</g>
		<g>
			<circle class="st6" cx="388.1831" cy="188.9937" r="0.7425"/>
			<circle class="st6" cx="390.7819" cy="197.1888" r="0.7425"/>
			<circle class="st6" cx="391.71" cy="222.9562" r="0.88"/>
			<circle class="st6" cx="388.1969" cy="218.1369" r="0.88"/>
			<circle class="st6" cx="378.0631" cy="245.5544" r="0.88"/>
			<circle class="st6" cx="382.3875" cy="247.4312" r="0.88"/>
			<circle class="st6" cx="353.2375" cy="269.6788" r="0.88"/>
			<circle class="st6" cx="348.425" cy="273.1369" r="0.88"/>
			<circle class="st6" cx="382.9719" cy="185.1094" r="0.7425"/>
		</g>
	</g>
	<g id="b">
		<path class="st7" d="M298.5469,244.9356c-0.0894,0.7356,0.5775,1.6087,1.4644,1.4231c0.2613-0.055,0.4262-0.3987,0.0894-0.3369
			c-0.2956,0.0688-0.605-0.0481-0.825-0.2544c-0.3656-0.3353-0.4763-0.8666-0.275-1.32l-0.4538,0.4813V244.9356L298.5469,244.9356z"
			/>
		<path class="st8" d="M300.6025,246.3587c-0.7012,0.8044-1.7669,1.155-2.3581,0.5706c-0.3919-0.385-0.5294-0.825-0.3232-1.3062
			l-0.77,0.8387c0.0344,0.0688,0.495,0.9006,1.1756,1.21c0.8387,0.3781,2.0419-0.1925,2.7637-1.0725
			c0.5088-0.6256,1.0725-1.6706,0.6669-2.4819c-0.3077-0.5303-0.7847-0.9419-1.3544-1.1687l-0.7081,0.7562
			c0.3506-0.165,0.7906-0.0894,1.1688,0.2131C301.7369,244.6331,301.2281,245.6369,300.6025,246.3587z"/>
		<path class="st9" d="M300.6025,246.3587c-0.2216,0.2685-0.4923,0.4925-0.7975,0.66c-0.3094,0.1581-0.66,0.2681-1.0106,0.2131
			c-0.1788-0.0206-0.3506-0.0894-0.495-0.2063c-0.1375-0.11-0.2544-0.2406-0.3438-0.3919
			c-0.0982-0.1529-0.1572-0.3276-0.1719-0.5087c-0.0138-0.1788,0.0275-0.3644,0.0963-0.5294l0.0825,0.055l-0.7631,0.8525
			l0.0069-0.0688c0.1925,0.33,0.4331,0.6463,0.7219,0.8938c0.2735,0.2696,0.6477,0.4118,1.0312,0.3919
			c0.3644-0.0069,0.7356-0.1375,1.0725-0.3231c0.3355-0.1898,0.6375-0.4337,0.8937-0.7219c0.2544-0.2819,0.4744-0.605,0.6394-0.9487
			c0.165-0.3438,0.2819-0.7219,0.2612-1.1c-0.0128-0.186-0.0668-0.3668-0.1581-0.5294c-0.0894-0.165-0.2063-0.3162-0.3438-0.4538
			c-0.2682-0.275-0.5912-0.495-0.9419-0.6394l0.0688-0.0137l-0.715,0.7494l-0.0619-0.0825c0.165-0.0688,0.3438-0.0963,0.5225-0.0756
			c0.1719,0.0137,0.3438,0.0756,0.4881,0.165c0.2956,0.1788,0.55,0.4469,0.6394,0.7838c0.0894,0.3438,0,0.6944-0.1444,0.9969
			c-0.1518,0.3014-0.3463,0.5792-0.5775,0.825V246.3587L300.6025,246.3587z M300.6025,246.3587
			c0.2131-0.2613,0.4125-0.5363,0.55-0.8456c0.1306-0.3025,0.2062-0.6463,0.11-0.9625c-0.0894-0.3162-0.3438-0.5706-0.6187-0.7287
			c-0.275-0.165-0.6325-0.2062-0.9212-0.0688l-0.0619-0.0825l0.7013-0.7631l0.0275-0.0275l0.0344,0.0137
			c0.5631,0.2267,1.0398,0.6263,1.3613,1.1413c0.1031,0.1719,0.1581,0.3781,0.1719,0.5844
			c0.0344,0.4125-0.0894,0.8044-0.2613,1.1688c-0.1719,0.3575-0.3987,0.6875-0.66,0.99c-0.275,0.2956-0.5844,0.55-0.935,0.7425
			c-0.3499,0.2044-0.7435,0.3222-1.1482,0.3438c-0.4149,0.0146-0.8177-0.142-1.1137-0.4331
			c-0.2983-0.2686-0.5473-0.5874-0.7356-0.9419l-0.0206-0.0344l0.0275-0.0344l0.7769-0.8387l0.0825,0.055
			c-0.0688,0.1512-0.1031,0.3162-0.0963,0.4812c0.0069,0.165,0.0688,0.33,0.1512,0.4675c0.0825,0.1444,0.1994,0.275,0.3232,0.385
			c0.1306,0.11,0.2888,0.1719,0.4537,0.2063c0.3369,0.055,0.6875-0.0413,0.9831-0.1925
			C300.0938,246.8331,300.3687,246.6131,300.6025,246.3587z"/>
		<path class="st10" d="M354.2275,185.1094l-27.5963,27.17c-2.0969,2.0831-26.0975,25.0044-28.2563,27.0737
			c-0.7563,0.9075-2.9081,3.3412-3.135,3.6781c-1.4644,1.5881-3.0525,3.6644-4.95,5.5206c-0.3438,0.4262-0.7838,0.275-1.1894,0.5087
			c-1.2975,0.8296-2.4691,1.8414-3.4788,3.0044l-8.3875,9.2813c-0.55,0.5912-0.6875,0.9556-0.3232,1.2925l4.5513,6.0844
			c0.8456,0.825,1.8219,1.2581,2.2,0.5569c2.1656-3.74,7.535-9.4531,9.5631-13.9769c1.2169-2.7019,2.7363-7.6037,3.8225-8.7863
			c1.3337-1.485,4.9294-5.3144,8.1125-8.7313l0.6462-0.6875l0.6463-0.7012c16.1631-16.4656,34.87-36.4719,48.4893-50.5725
			C354.4062,185.2881,354.7431,185.6113,354.2275,185.1094L354.2275,185.1094z"/>
		<path class="st7" d="M296.9244,239.3256c-0.8456,0.0275-1.3887-0.4813-1.9594-0.9625c0.8044,0.2406,1.6156,0.55,2.3719,0.2337
			L296.9244,239.3256z"/>
		<path class="st11" d="M382.9719,165.0688l-21.8625,18.0262c-0.2131,0.2544-0.4331,0.1856-0.6394,0l-1.9938-1.6637l0.0138-0.0688
			c0-0.1169-0.0275-0.2269-0.0619-0.3231l0.9763-0.9969c0.1237-0.1513,0.0825-0.2063-0.0825-0.3781l-0.4056-0.4125
			c-0.1512-0.1169-0.2819-0.0206-0.44,0.1237L357.5,180.4c-0.5087,0.0206-0.9144,0.4331-0.9281,0.935
			c-13.2275,12.8769-24.6125,24.365-37.7713,37.0356l-15.5169,14.8156c-0.5569,0.7219-2.9562,2.0006-4.5375,3.0319
			c-0.4886,0.2616-0.9153,0.6249-1.2513,1.0656l-1.265,3.7331c-0.3987,0.825-1.6706,2.75-1.7256,2.8875
			c1.6225,1.6362,1.54,1.5125,2.6537,2.5575c1.2513-1.3887,4.6063-4.8813,7.645-8.1469c0.2406-0.2612,0.2613-0.2888,0.5706-0.6669
			c-0.5033-0.7096-1.1052-1.3439-1.7875-1.8837l-0.4262-0.3781c-0.1169-0.11,0.165-0.3025,0.2888-0.44
			c18.1981-17.5862,37.785-36.9188,53.8175-52.6625c0.2341,0.0659,0.4844,0.0413,0.7013-0.0688l1.9181,2.2138
			c0.4469,0.4469,0.825,0.4331,1.1893,0.275l21.9037-19.6281L382.9719,165.0688z"/>
		<path class="st9" d="M296.2781,240.8931c0.1375,0.0206,0.275,0.0344,0.4125,0.0206c0.1375-0.0137,0.275-0.0481,0.3987-0.11
			l-0.0138,0.0137c0.3176-1.0922,0.6545-2.1786,1.0107-3.2587l0.0069,0.0137c-0.1375-0.1512-0.2956-0.2888-0.5019-0.3438
			c0.2063,0.0412,0.385,0.1719,0.5294,0.3163l0.0069,0.0137v0.0069l-0.4881,1.6363l-0.5156,1.6294v0.0069H297.11
			c-0.1306,0.0688-0.275,0.1031-0.4125,0.1031S296.4156,240.9206,296.2781,240.8931L296.2781,240.8931z"/>
		<circle class="st12" cx="301.2487" cy="239.3394" r="0.4262"/>
		<circle class="st12" cx="298.6775" cy="241.9175" r="0.4262"/>
		<path class="st9" d="M303.1669,235.3863c-0.4357-0.332-0.8365-0.7075-1.1962-1.1206
			C302.4067,234.5972,302.8076,234.9727,303.1669,235.3863z"/>
		<path class="st7" d="M345.2419,191.8537l2.3994,2.3444l0.44-0.4056l-2.3925-2.3375L345.2419,191.8537z"/>
	</g>
	<g transform="scale(-1 1) rotate(-2.84 -9.26 19640.24)">
		<g id="b_00000037660468790636131290000003418984325043546774_">
			<path class="st7" d="M359.3904,246.1286c0.0528,0.7392-0.6565,1.5782-1.5331,1.3488c-0.2582-0.0679-0.406-0.4194-0.0726-0.3409
				c0.2918,0.0833,0.6066-0.0181,0.8366-0.2132c0.3818-0.3168,0.5187-0.8419,0.3401-1.3048l0.4294,0.5032L359.3904,246.1286
				L359.3904,246.1286z"/>
			<path class="st8" d="M357.2668,247.4481c0.6605,0.8381,1.7075,1.2411,2.3269,0.6868c0.4105-0.3651,0.5696-0.7978,0.3875-1.2886
				l0.7275,0.8759c-0.0378,0.067-0.539,0.875-1.2341,1.1503c-0.8564,0.3361-2.0298-0.2934-2.7072-1.2081
				c-0.4771-0.6501-0.9884-1.7217-0.5431-2.5119c0.3336-0.5144,0.8304-0.9019,1.4106-1.1002l0.6698,0.7904
				c-0.342-0.1822-0.7852-0.1284-1.1779,0.155C356.2193,245.6684,356.6776,246.6962,357.2668,247.4481z"/>
			<path class="st9" d="M357.2668,247.4481c0.2081,0.2791,0.4673,0.5163,0.7638,0.6987c0.3011,0.1733,0.6459,0.3005,0.9988,0.2629
				c0.1796-0.0117,0.3546-0.0719,0.5046-0.1815c0.1428-0.1031,0.266-0.2277,0.3628-0.3744
				c0.1057-0.1479,0.1732-0.3194,0.1969-0.4996c0.0226-0.1779-0.0094-0.3653-0.0699-0.5335l-0.0851,0.0508l0.7199,0.8893
				l-0.0035-0.069c-0.2086,0.3201-0.4646,0.624-0.7653,0.8569c-0.2865,0.2557-0.6674,0.3792-1.0494,0.3403
				c-0.3636-0.0249-0.7279-0.1738-1.0552-0.3759c-0.3257-0.2063-0.6153-0.4648-0.8569-0.7653
				c-0.2401-0.2941-0.4438-0.6278-0.5916-0.9793c-0.1477-0.3515-0.2458-0.7349-0.2064-1.1116
				c0.022-0.1851,0.0849-0.363,0.1842-0.5209c0.0974-0.1604,0.2216-0.3056,0.3658-0.4362c0.2814-0.2614,0.615-0.4651,0.9724-0.5919
				l-0.068-0.0171l0.677,0.7839l0.0659-0.0793c-0.1614-0.0768-0.3386-0.1132-0.5181-0.1014
				c-0.1723,0.0052-0.3471,0.0585-0.4957,0.1406c-0.3041,0.1639-0.5714,0.4191-0.6774,0.7511
				c-0.1063,0.3389-0.0344,0.6935,0.0948,1.0028c0.1367,0.3085,0.3172,0.5957,0.5359,0.8526L357.2668,247.4481L357.2668,247.4481z
				 M357.2668,247.4481c-0.1999-0.2715-0.3854-0.556-0.5074-0.8719c-0.1155-0.3086-0.174-0.6557-0.0622-0.9668
				c0.1049-0.3114,0.3716-0.5529,0.6541-0.6972c0.2828-0.1512,0.6419-0.1747,0.9235-0.023l0.0659-0.0793l-0.6626-0.7969
				l-0.0261-0.0288l-0.035,0.012c-0.5737,0.1985-1.0695,0.574-1.4161,1.0724c-0.1115,0.1666-0.1767,0.3698-0.2006,0.5751
				c-0.0547,0.4103,0.0494,0.8078,0.203,1.1803c0.1539,0.3656,0.3642,0.7064,0.6101,1.0215c0.26,0.3089,0.5564,0.5783,0.897,0.7879
				c0.3393,0.2215,0.7266,0.3587,1.1297,0.4002c0.4137,0.0352,0.8237-0.1013,1.1339-0.3774
				c0.3112-0.2535,0.5757-0.5595,0.7814-0.9043l0.0223-0.0333l-0.0258-0.0357l-0.7344-0.8762l-0.0851,0.0508
				c0.0612,0.1545,0.0873,0.321,0.0723,0.4854c-0.015,0.1644-0.085,0.3262-0.1742,0.4594
				c-0.0896,0.1401-0.2128,0.2648-0.3418,0.3685c-0.1359,0.1034-0.2969,0.1574-0.4634,0.1835
				c-0.3392,0.0382-0.6846-0.0753-0.9724-0.241C357.7514,247.9471,357.4876,247.7138,357.2668,247.4481z"/>
			<path class="st10" d="M306.7423,183.617l26.2162,28.5039c1.9911,2.1845,24.8266,26.2667,26.8801,28.4405
				c0.7104,0.9439,2.739,3.4812,2.9489,3.8289c1.3839,1.6587,2.8672,3.8111,4.6704,5.7591c0.3222,0.4427,0.7692,0.3135,1.1627,0.567
				c1.2548,0.8929,2.3748,1.9615,3.3256,3.173l7.9174,9.6854c0.52,0.6178,0.6393,0.9885,0.2587,1.3069l-4.8471,5.8514
				c-0.8855,0.7821-1.882,1.1663-2.2249,0.4472c-1.9777-3.8427-7.0574-9.8148-8.8589-14.4335
				c-1.0815-2.7589-2.3562-7.73-3.3825-8.9649c-1.2585-1.5493-4.66-5.5521-7.6699-9.1225l-0.6114-0.7187l-0.6107-0.7324
				c-15.3275-17.2462-33.0201-38.1548-45.9241-52.9129C306.555,183.7867,306.2025,184.0927,306.7423,183.617L306.7423,183.617z"/>
			<path class="st7" d="M361.2888,240.6059c0.8432,0.0694,1.4109-0.4119,2.0046-0.8642c-0.8153,0.2005-1.6409,0.4693-2.3805,0.116
				L361.2888,240.6059z"/>
			<path class="st11" d="M279.0262,162.1768l20.9425,19.0873c0.2003,0.2646,0.4234,0.2069,0.6386,0.0317l2.0738-1.5629
				l-0.0103-0.0694c0.0058-0.1167,0.0387-0.2252,0.0778-0.3197l-0.9257-1.044c-0.1161-0.1572-0.0722-0.2101,0.1011-0.3736
				l0.4256-0.3919c0.1568-0.1092,0.2825-0.0066,0.4333,0.1454l0.9243,1.0715c0.5071,0.0458,0.8918,0.4779,0.8806,0.9798
				c12.5732,13.5164,23.3751,25.5545,35.8899,38.8616l14.7637,15.5662c0.5204,0.7486,2.8535,2.1447,4.3817,3.253
				c0.475,0.2854,0.8832,0.6695,1.1969,1.1263l1.0785,3.7912c0.3574,0.8438,1.5323,2.8294,1.5804,2.9695
				c-1.7016,1.5539-1.613,1.4344-2.7772,2.4229c-1.1809-1.449-4.3587-5.1035-7.2319-8.5157
				c-0.2274-0.2728-0.2466-0.3013-0.5369-0.6943c0.5379-0.6838,1.1704-1.2875,1.8787-1.7929l0.4445-0.3565
				c0.1222-0.1041-0.1498-0.3103-0.2666-0.4538c-17.3044-18.4663-35.9094-38.7455-51.1422-55.2643
				c-0.2371,0.0542-0.4858,0.0173-0.697-0.1034l-2.0254,2.116c-0.4685,0.4242-0.8455,0.3917-1.2015,0.2157l-20.9043-20.6893
				L279.0262,162.1768z"/>
			<path class="st9" d="M361.8566,242.2035c-0.1384,0.0138-0.2764,0.0207-0.413,0.0002s-0.2723-0.0617-0.3928-0.1296l0.013,0.0144
				c-0.263-1.1065-0.5457-2.2083-0.8479-3.3048l-0.0076,0.0134c0.1448-0.1442,0.3096-0.2738,0.5183-0.3185
				c-0.208,0.031-0.393,0.1526-0.5444,0.2896l-0.0075,0.0134l-0.0003,0.0069l0.4064,1.6584l0.4343,1.6529l-0.0003,0.0069
				l0.0137,0.0007c0.127,0.0751,0.2695,0.1166,0.4069,0.1234C361.5727,242.2376,361.7179,242.2241,361.8566,242.2035
				L361.8566,242.2035z"/>
			<circle class="st12" cx="356.9691" cy="240.4054" r="0.4262"/>
			<circle class="st12" cx="359.4094" cy="243.1077" r="0.4262"/>
			<path class="st9" d="M355.2492,236.3621c0.4517-0.31,0.8706-0.6651,1.2503-1.06
				C356.0475,235.6116,355.6285,235.9668,355.2492,236.3621z"/>
			<path class="st7" d="M315.3828,190.7983l-2.5126,2.2226l-0.4194-0.4269l2.5054-2.2161L315.3828,190.7983z"/>
		</g>
	</g>
	<g>
		<path class="st4" d="M298.3131,264.935c-5.4106-2.2825-18.4869-0.4606-20.0888,0.6394
			C289.4238,271.0812,298.5331,268.7231,298.3131,264.935z M359.5144,267.2175c5.4106-2.2825,18.4869-0.4606,20.0887,0.6394
			C368.4037,273.3431,359.2944,271.0056,359.5144,267.2175z"/>
		<path class="st3" d="M298.21,265.0175c0.22,3.7812-8.7932,6.1119-19.9857,0.6187
			C288.7363,266.2825,297.33,265.8975,298.21,265.0175z M359.6175,267.2794c-0.22,3.7812,8.7931,6.1119,19.9856,0.6187
			C369.0913,268.5444,360.4975,268.18,359.6175,267.2794z"/>
	</g>
	<g id="c">
		<path class="st11" d="M349.5869,261.2431c-14.2519-20.7075-35.75-37.5444-52.3187-46.75c2.4406-0.11,7.8787,2.6744,10.0856,4.0975
			c16.4587,10.6013,30.4562,24.6125,45.1412,41.1263c-0.7418,0.7498-1.5318,1.4502-2.365,2.0969L349.5869,261.2431
			L349.5869,261.2431z"/>
		<path class="st8" d="M351.0031,261.0781l-0.9969,0.9625C334.1869,241.6631,312.125,222.2,297.2956,214.5
			c20.68,9.5287,38.0875,28.7169,53.6456,46.5094l0.0619,0.0619V261.0781z"/>
		<path class="st9" d="M351.01,261.0781l-0.9969,0.9625c-3.6705-4.6851-7.5401-9.2107-11.5981-13.5644
			c-4.0458-4.364-8.2587-8.5701-12.6294-12.6087c-4.3602-4.0455-8.9024-7.8903-13.6125-11.5225
			c-2.3596-1.8122-4.7787-3.5456-7.2531-5.1975c-2.475-1.65-5.0187-3.2038-7.6519-4.5719l0.0688-0.1375
			c5.4244,2.5094,10.5394,5.6375,15.3794,9.1369c4.8216,3.5234,9.4206,7.3418,13.7706,11.4331
			c4.3527,4.0862,8.556,8.3286,12.6019,12.7188c7.9937,8.8592,4.0012,4.4243-0.055,0.0481c-4.07-4.3656-8.25-8.635-12.6156-12.6981
			c-4.3725-4.0562-8.9375-7.9131-13.7775-11.4056c-4.819-3.5202-9.9672-6.5663-15.3725-9.0956l0.0688-0.1375
			c2.64,1.375,5.1837,2.9425,7.6588,4.5925c2.475,1.65,4.8881,3.4031,7.2531,5.2112c4.7107,3.6411,9.2529,7.4951,13.6125,11.55
			c4.364,4.0458,8.57,8.2588,12.6088,12.6294c4.043,4.3702,7.8965,8.9119,11.55,13.6125h-0.0069L351.01,261.0781
			C351.0099,261.0781,347.0844,256.5887,351.01,261.0781z"/>
		<g>
			<path class="st13" d="M355.7812,257.8606c-1.2782,0.3188-2.4984,0.8361-3.6163,1.5331
				c-0.1581,0.9625-1.3406,2.0281-2.4612,2.2687l-0.4125-0.5225c-0.0261-0.0378-0.0767-0.0497-0.1169-0.0275
				c-0.1343,0.0716-0.2651,0.1496-0.3919,0.2338c-0.4125-0.0688-0.9212,0.1375-1.1412,0.6669
				c-0.2613,0.6669,0.2681,1.5469,0.8456,2.1244c0.6325,0.5019,0.9487,0.7356,1.6844,0.6325
				c0.7494-0.1581,1.155-0.8387,1.3269-1.0519c2.5575,3.0938,4.4825,4.7644,7.7206,7.315c1.4437,0.0137,2.2137-0.8937,1.7325-1.925
				c-0.1581-0.3438-0.5775-0.5775-0.9144-0.4538c0.0275-0.1031,0.0138-0.2062,0-0.3094c1.6913-1.5537,2.4062-3.4925,0.6256-6.7856
				c-1.5262-2.7706-3.2381-3.7125-4.8744-3.6988H355.7812L355.7812,257.8606z M360.0781,260.975
				c0.2956,0.5087,0.4744,0.9488,0.7013,1.4094c1.0175,2.0625,0.1375,4.5375-1.6019,5.3006c-0.0894,0-0.0619-0.0138-0.1512,0.0137
				c0.2887-0.4744-0.5638-1.4781-1.0038-1.1275c0.2062-0.5225-0.4606-1.3887-1.0038-1.1688
				c0.2888-0.4813-0.3644-1.3062-0.9762-1.0312c0.3163-0.5294-0.22-1.2856-0.8525-1.1481c0.1856-0.5638-0.2887-1.21-0.9281-1.1
				c0.0481-0.495-0.11-0.77-0.3506-0.9969c0.7631-0.5844,1.6156-1.4781,2.365-1.8837c1.87-0.8112,3.025,0.7356,3.795,1.7325
				L360.0781,260.975z"/>
			<path class="st14" d="M360.8619,263.1544c-0.3575-0.1719-0.5225-0.5225-0.4056-0.7563c0.1169-0.2406,0.4813-0.3025,0.8387-0.1237
				c0.3575,0.1719,0.55,0.5088,0.4331,0.7494c-0.1169,0.2337-0.5087,0.3094-0.8662,0.1375L360.8619,263.1544L360.8619,263.1544z"/>
			<path class="st14" d="M360.6556,262.4531c-0.3575-0.1719-0.5225-0.5225-0.4056-0.7563c0.1169-0.2406,0.4813-0.3025,0.8387-0.1237
				c0.3575,0.1719,0.55,0.5088,0.4331,0.7494c-0.1169,0.2337-0.5087,0.3094-0.8662,0.1375L360.6556,262.4531L360.6556,262.4531z"/>
			<path class="st14" d="M360.2294,261.6762c-0.3575-0.1719-0.5225-0.5225-0.4057-0.7563c0.1169-0.2406,0.4813-0.3025,0.8387-0.1237
				c0.3575,0.1719,0.55,0.5088,0.4331,0.7494c-0.1169,0.2337-0.5088,0.3094-0.8663,0.1375L360.2294,261.6762L360.2294,261.6762z"/>
			<path class="st14" d="M359.6931,260.975c-0.3575-0.1719-0.5225-0.5225-0.4056-0.7563c0.1169-0.2406,0.4813-0.3025,0.8387-0.1237
				c0.3575,0.1719,0.55,0.5088,0.4331,0.7494c-0.1169,0.2337-0.5087,0.3025-0.8662,0.1375L359.6931,260.975L359.6931,260.975z"/>
			<path class="st14" d="M358.985,260.2944c-0.3575-0.1719-0.5225-0.5225-0.4056-0.7563c0.0206-0.0344,0.0069-0.0963,0.0412-0.0825
				c0.1375,0.0687,0.44,0.1306,0.4125-0.0963c-0.0482-0.0688-0.1031-0.1512-0.0482-0.0963c0.0963,0,0.3163,0.0963,0.4331,0.1512
				c0.3575,0.1788,0.55,0.5156,0.4331,0.7563c-0.1169,0.2269-0.5087,0.3025-0.8663,0.1306L358.985,260.2944L358.985,260.2944z"/>
		</g>
		<g>
			<path class="st15" d="M351.4981,263.725c0.4675-1.2169,1.4094-2.3444,2.4063-2.6125 M351.6562,263.8969
				c0.8663,0.1787,2.2687-0.8525,2.6125-1.7806 M352.4744,264.8937c1.1412,0.2613,2.2687-0.8387,2.7019-1.65 M353.4987,265.98
				c1.3475,0.0412,2.1725-0.9144,2.5712-1.6432 M354.5369,267.0319c1.1412,0.0069,2.1794-0.935,2.5094-1.6638 M355.5406,267.9944
				c1.2375-0.0482,2.1175-0.6187,2.4887-1.4232 M356.6681,268.9706c1.1412,0.0688,2.0625-0.6187,2.365-1.2787 M357.8919,269.9675
				c1.1412,0.0688,1.8563-0.6394,2.1588-1.3062"/>
		</g>
		<g>
			<path class="st16" d="M351.4981,263.725c0.3019-0.8791,0.851-1.6525,1.5813-2.2275c0.2475-0.1787,0.5294-0.3231,0.825-0.3919
				c-0.2887,0.0963-0.55,0.2544-0.7975,0.4331c-0.2406,0.1856-0.4537,0.3987-0.6531,0.6325
				C352.0621,262.6405,351.7403,263.1638,351.4981,263.725L351.4981,263.725z M351.6562,263.8969
				c0.275,0.0413,0.55-0.0275,0.8112-0.1375c0.5107-0.2211,0.9678-0.5493,1.3406-0.9625c0.1856-0.1994,0.3506-0.4262,0.4675-0.6806
				c-0.0894,0.275-0.2475,0.5087-0.4263,0.7287c-0.3711,0.4275-0.8373,0.7619-1.3612,0.9763
				C352.2244,263.9279,351.935,263.9542,351.6562,263.8969L351.6562,263.8969z M352.4744,264.8937
				c0.275,0.0481,0.5638,0.0275,0.825-0.0619c0.2681-0.0825,0.5156-0.2062,0.7425-0.3713c0.4539-0.3277,0.8393-0.7411,1.1344-1.2169
				c-0.2594,0.5079-0.6366,0.9464-1.1,1.2787c-0.2269,0.1581-0.4813,0.2956-0.7562,0.3644
				C353.045,264.9625,352.7426,264.9762,352.4744,264.8937L352.4744,264.8937z M353.4987,265.98
				c0.5362-0.0018,1.0591-0.1673,1.4987-0.4744c0.22-0.1443,0.4125-0.33,0.5912-0.5225c0.1787-0.2062,0.3438-0.4125,0.4812-0.6463
				c-0.2269,0.4813-0.5844,0.9213-1.0312,1.2307C354.5904,265.8828,354.0447,266.029,353.4987,265.98z M354.5369,267.0319
				c0.5234-0.038,1.0258-0.2213,1.4506-0.5294c0.4323-0.2953,0.7939-0.6827,1.0587-1.1344
				c-0.0963,0.2475-0.2475,0.4675-0.4194,0.6669c-0.3458,0.4099-0.7977,0.7167-1.3063,0.8869
				C355.0662,267.0044,354.7981,267.0457,354.5369,267.0319L354.5369,267.0319z M355.5406,267.9944
				c0.2475-0.0275,0.5019-0.0688,0.7425-0.1306c0.4815-0.1266,0.9265-0.3645,1.2994-0.6944c0.1787-0.1788,0.33-0.3781,0.4469-0.5981
				c-0.0894,0.2338-0.2338,0.4469-0.4125,0.6394c-0.1765,0.1822-0.3807,0.3354-0.605,0.4538
				C356.5582,267.8981,356.0494,268.0081,355.5406,267.9944L355.5406,267.9944z M356.6681,268.9706
				c0.4706-0.0065,0.9336-0.1193,1.3543-0.33c0.2062-0.1031,0.3988-0.2406,0.5775-0.3987c0.1788-0.1581,0.3231-0.3438,0.4331-0.55
				c-0.0825,0.22-0.2269,0.4194-0.3988,0.5912C358.113,268.792,357.3929,269.0438,356.6681,268.9706z M357.8919,269.9675
				c0.2269,0,0.4469-0.0275,0.66-0.0825c0.4299-0.1129,0.8172-0.3495,1.1138-0.6806c0.1512-0.1581,0.275-0.3438,0.385-0.5431
				C359.7204,269.5441,358.8271,270.0846,357.8919,269.9675z"/>
		</g>
	</g>
	<g transform="scale(-1 1) rotate(-3.41 -13.8 16470.84)">
		<g id="c_00000132047490675067086420000007357931943786552990_">
			<path class="st11" d="M309.8684,259.4963c15.4583-19.8231,37.9199-35.3515,55.0069-43.5553
				c-2.4298-0.255-8.0239,2.201-10.3115,3.4903c-17.0602,9.6035-31.8663,22.7574-47.5075,38.3684
				c0.6959,0.7925,1.4428,1.5387,2.2361,2.2338L309.8684,259.4963L309.8684,259.4963z"/>
			<path class="st8" d="M308.4645,259.2473l0.9379,1.0201c17.0034-19.4005,40.1839-37.5169,55.445-44.3212
				c-21.2101,8.2818-39.7281,26.4006-56.317,43.2361l-0.0654,0.0581L308.4645,259.2473z"/>
			<path class="st9" d="M308.4576,259.2469l0.9379,1.0201c3.9426-4.4585,8.0746-8.7459,12.3844-12.8505
				c4.2982-4.1156,8.7539-8.0637,13.357-11.8352c4.5931-3.779,9.356-7.3468,14.2738-10.6924
				c2.4632-1.6686,4.9811-3.2551,7.5494-4.7569c2.5688-1.4998,5.2004-2.8996,7.9103-4.1086l-0.0605-0.1414
				c-5.564,2.1823-10.856,5.0006-15.8956,8.2059c-5.0226,3.2304-9.8406,6.7684-14.4263,10.5938
				c-4.588,3.8201-9.0363,7.8049-13.3361,11.9467c-8.5065,8.3681-4.2573,4.1785,0.052,0.0513
				c4.3225-4.1158,8.749-8.129,13.3486-11.9253c4.606-3.789,9.3923-7.3675,14.4315-10.5659
				c5.0199-3.2274,10.3401-5.9618,15.8863-8.1652l-0.0605-0.1414c-2.7171,1.2155-5.3496,2.629-7.9183,4.1288
				c-2.5688,1.4999-5.0819,3.1064-7.5503,4.7706c-4.9189,3.3544-9.6823,6.9314-14.2754,10.7199
				c-4.5969,3.7791-9.0461,7.7344-13.3376,11.857c-4.2957,4.122-8.4126,8.4264-12.3392,12.9014l0.0069,0.0004L308.4576,259.2469
				C308.4577,259.2469,312.6433,254.999,308.4576,259.2469z"/>
			<g>
				<path class="st13" d="M303.8862,255.7513c1.257,0.3942,2.4443,0.9832,3.5187,1.7455c0.1006,0.9702,1.2176,2.1043,2.3219,2.4111
					l0.4428-0.497c0.0283-0.0363,0.0795-0.0451,0.1183-0.0205c0.1298,0.0794,0.2557,0.1651,0.3773,0.2567
					c0.4159-0.0441,0.9114,0.192,1.0995,0.7336c0.2211,0.6812-0.3596,1.5282-0.9705,2.0703
					c-0.6612,0.4634-0.9908,0.6779-1.719,0.5312c-0.7386-0.2024-1.1031-0.906-1.2619-1.1289
					c-2.737,2.9362-4.758,4.4893-8.1421,6.8428c-1.442-0.0722-2.1566-1.0238-1.6149-2.0246
					c0.1783-0.3337,0.6108-0.5421,0.9398-0.3986c-0.0213-0.1046-0.0015-0.2067,0.0184-0.3088
					c-1.5959-1.6516-2.1942-3.6295-0.2209-6.8108c1.6883-2.675,3.4532-3.5133,5.0858-3.4023L303.8862,255.7513L303.8862,255.7513z
					 M299.4117,258.6046c-0.3253,0.4902-0.53,0.9189-0.7838,1.3651c-1.1384,1.9983-0.4072,4.5213,1.2838,5.3865
					c0.0892,0.0053,0.0626-0.01,0.1501,0.0227c-0.26-0.4907,0.6507-1.442,1.0691-1.0658c-0.1748-0.5338,0.5424-1.3589,1.0715-1.107
					c-0.2596-0.4976,0.4414-1.2823,1.0359-0.9714c-0.2842-0.5472,0.2961-1.2703,0.9193-1.0954
					c-0.1518-0.5738,0.3602-1.1907,0.9919-1.0428c-0.0186-0.497,0.1556-0.7621,0.4093-0.9743
					c-0.727-0.6287-1.5248-1.5716-2.2487-2.0211c-1.8184-0.9211-3.0634,0.5544-3.8914,1.5037L299.4117,258.6046z"/>
				<path class="st14" d="M298.4997,260.7335c0.3671-0.1503,0.5526-0.4905,0.4499-0.7308
					c-0.1023-0.2471-0.4624-0.3306-0.8299-0.1734c-0.3671,0.1503-0.5793,0.4751-0.477,0.7223
					c0.1028,0.2403,0.4894,0.3391,0.8566,0.1888L298.4997,260.7335L298.4997,260.7335z"/>
				<path class="st14" d="M298.7473,260.0457c0.3671-0.1503,0.5526-0.4905,0.4499-0.7308
					c-0.1023-0.2472-0.4624-0.3306-0.8299-0.1734c-0.3671,0.1503-0.5793,0.4751-0.477,0.7223
					c0.1028,0.2403,0.4894,0.3391,0.8566,0.1888L298.7473,260.0457L298.7473,260.0457z"/>
				<path class="st14" d="M299.2191,259.2956c0.3671-0.1503,0.5526-0.4905,0.4499-0.7308
					c-0.1023-0.2472-0.4624-0.3306-0.8299-0.1734c-0.3671,0.1503-0.5793,0.4751-0.477,0.7223
					c0.1028,0.2403,0.4894,0.3391,0.8566,0.1888L299.2191,259.2956L299.2191,259.2956z"/>
				<path class="st14" d="M299.796,258.6275c0.3671-0.1503,0.5527-0.4905,0.4499-0.7308c-0.1024-0.2472-0.4624-0.3306-0.8299-0.1734
					c-0.3671,0.1503-0.5793,0.4751-0.4769,0.7223c0.1028,0.2403,0.4899,0.3322,0.8565,0.1888L299.796,258.6275L299.796,258.6275z"/>
				<path class="st14" d="M300.5434,257.9902c0.3671-0.1503,0.5527-0.4905,0.4499-0.7308
					c-0.0186-0.0355-0.0011-0.0965-0.0363-0.0848c-0.1414,0.0605-0.447,0.1042-0.406-0.1206
					c0.0521-0.0658,0.1119-0.1449,0.0538-0.0932c-0.0961-0.0057-0.3214,0.0773-0.4414,0.1252
					c-0.3675,0.1572-0.5797,0.482-0.4773,0.7292c0.1031,0.2334,0.4898,0.3322,0.8569,0.1819L300.5434,257.9902L300.5434,257.9902z"
					/>
			</g>
			<g>
				<path class="st15" d="M307.813,261.8601c-0.3943-1.2425-1.2675-2.4241-2.2466-2.751 M307.6449,262.0222
					c-0.8754,0.1269-2.214-0.9859-2.502-1.9329 M306.7689,262.9687c-1.1548,0.1929-2.2148-0.9722-2.5989-1.8078 M305.6818,263.9921
					c-1.3476-0.039-2.1143-1.042-2.469-1.7932 M304.5829,264.9803c-1.1396-0.061-2.1199-1.063-2.406-1.8101 M303.5237,265.8814
					c-1.2325-0.1216-2.077-0.7436-2.3997-1.5686 M302.3401,266.7889c-1.1433,0.0007-2.0221-0.7403-2.2848-1.4171 M301.0592,267.7112
					c-1.1433,0.0008-1.8149-0.7487-2.0772-1.4323"/>
			</g>
			<g>
				<path class="st16" d="M307.813,261.8601c-0.2491-0.8955-0.7512-1.7002-1.446-2.3176c-0.2364-0.1932-0.5092-0.3541-0.8003-0.4403
					c0.2825,0.1133,0.5339,0.2867,0.7703,0.4798c0.2291,0.1996,0.4292,0.425,0.6143,0.6703
					C307.3145,260.744,307.6046,261.2855,307.813,261.8601L307.813,261.8601z M307.6449,262.0222
					c-0.277,0.0248-0.5474-0.0602-0.8016-0.1855c-0.4966-0.2511-0.9335-0.606-1.281-1.0405
					c-0.1735-0.2101-0.3247-0.4464-0.4262-0.7072c0.0728,0.2798,0.2168,0.5226,0.3821,0.7528
					c0.345,0.4488,0.7905,0.8103,1.3008,1.0555C307.0759,262.0194,307.3633,262.0629,307.6449,262.0222L307.6449,262.0222z
					 M306.7689,262.9687c-0.2774,0.0317-0.5644-0.0061-0.8199-0.1108c-0.2628-0.0983-0.5024-0.2365-0.7191-0.4148
					c-0.4336-0.3542-0.7937-0.7897-1.06-1.2822c0.2288,0.5224,0.5792,0.9825,1.022,1.3419
					c0.2171,0.1713,0.4628,0.3237,0.7332,0.4087C306.1952,263.0034,306.4963,263.0351,306.7689,262.9687L306.7689,262.9687z
					 M305.6818,263.9921c-0.5352-0.0337-1.0473-0.23-1.4679-0.5627c-0.211-0.1572-0.3921-0.354-0.5591-0.5568
					c-0.1662-0.2165-0.3186-0.4322-0.442-0.6737c0.1978,0.4939,0.5285,0.9544,0.9562,1.2898
					C304.5978,263.8302,305.1339,264.0085,305.6818,263.9921z M304.5829,264.9803c-0.5202-0.0691-1.0108-0.282-1.4166-0.6147
					c-0.4139-0.3206-0.7519-0.7288-0.9894-1.1953c0.0814,0.2528,0.2192,0.4814,0.379,0.6906
					c0.3208,0.4297,0.7536,0.7629,1.2512,0.963C304.0561,264.9214,304.3213,264.9785,304.5829,264.9803L304.5829,264.9803z
					 M303.5237,265.8814c-0.2454-0.0422-0.4969-0.0985-0.7334-0.1746c-0.4731-0.1551-0.9032-0.419-1.2558-0.7704
					c-0.1678-0.1891-0.3069-0.3971-0.4105-0.6237c0.0753,0.2387,0.2068,0.46,0.3737,0.6628c0.1653,0.1924,0.36,0.3574,0.5769,0.489
					C302.5136,265.7248,303.015,265.8649,303.5237,265.8814L303.5237,265.8814z M302.3401,266.7889
					c-0.4694-0.0345-0.9248-0.1747-1.3323-0.41c-0.1997-0.1152-0.3837-0.2639-0.5528-0.4324s-0.3021-0.3624-0.3997-0.5748
					c0.0693,0.2245,0.2015,0.4321,0.3629,0.6139C300.9084,266.5247,301.6122,266.8188,302.3401,266.7889z M301.0592,267.7112
					c-0.2265-0.0135-0.4445-0.054-0.6539-0.1216c-0.4224-0.1382-0.795-0.3975-1.0713-0.7457
					c-0.1416-0.1668-0.2541-0.3595-0.352-0.5651C299.2591,267.1797,300.1187,267.7725,301.0592,267.7112z"/>
			</g>
		</g>
	</g>
	<g>
		<path class="st3" d="M281.3525,178.7637c4.9569-1.6294,12.8769-10.6219,13.3925-12.32
			C284.02,169.3038,279.0975,176.3094,281.3525,178.7637z M381.5487,181.995c-1.1688-4.84-9.13-13.0694-10.7044-13.6881
			C372.7487,178.7294,379.0393,183.9544,381.5487,181.995z"/>
		<path class="st4" d="M281.3525,178.7637c-2.2825-2.4544,2.6125-9.3981,13.2963-12.2512
			C287.1137,172.2875,281.4487,177.6363,281.3525,178.7637L281.3525,178.7637z M381.5487,181.995
			c-2.5162,1.9937-8.745-3.1969-10.6494-13.5919C375.8287,176.0137,380.4831,181.8162,381.5487,181.995z"/>
	</g>
	<g>
		
			<radialGradient id="SVGID_1_" cx="307.6013" cy="214.2042" r="11.3644" gradientTransform="matrix(1 0 0 -1 0 439.8898)" gradientUnits="userSpaceOnUse">
			<stop  offset="0.22" style="stop-color:#F9F0AA"/>
			<stop  offset="1" style="stop-color:#B07E09"/>
		</radialGradient>
		<path class="st17" d="M310.8944,232.4438c0,0-4.235,0.4538-5.4175-5.3831c-1.2719-6.2494,3.6437-6.9162,3.6437-6.9162
			s5.5688-0.5363,9.0406-0.6187l1.54,12.3406L310.8944,232.4438L310.8944,232.4438z"/>
		
			<radialGradient id="SVGID_00000150093549166252258730000005685765514897992330_" cx="310.4475" cy="210.9523" r="7.5006" gradientTransform="matrix(1 0 0 -1 0 439.8898)" gradientUnits="userSpaceOnUse">
			<stop  offset="0.22" style="stop-color:#F9F0AA"/>
			<stop  offset="1" style="stop-color:#B07E09"/>
		</radialGradient>
		<path style="fill:url(#SVGID_00000150093549166252258730000005685765514897992330_);stroke:#999270;stroke-width:0.16;" d="
			M311.4512,230.56c0,0-2.7362,0.5225-3.3-3.8156c-0.4056-3.08,1.4987-3.5131,1.4987-3.5131l6.3456,1.0725l0.0344,5.665
			L311.4512,230.56z"/>
		
			<radialGradient id="SVGID_00000023987670911989047460000004640857477834686106_" cx="312.2006" cy="213.9498" r="6.7237" gradientTransform="matrix(1 0 0 -1 0 439.8898)" gradientUnits="userSpaceOnUse">
			<stop  offset="0.22" style="stop-color:#F9F0AA"/>
			<stop  offset="1" style="stop-color:#B07E09"/>
		</radialGradient>
		<path style="fill:url(#SVGID_00000023987670911989047460000004640857477834686106_);stroke:#999270;stroke-width:0.16;" d="
			M309.65,223.2313c0,0,4.0562-0.2956,6.1806-0.5706l0.88,3.9256l-4.8813,0.3094
			C311.8293,226.8956,311.4925,223.3481,309.65,223.2313L309.65,223.2313z"/>
		
			<radialGradient id="SVGID_00000000181442501117865000000002092699075841260461_" cx="315.1431" cy="215.0361" r="11.9281" gradientTransform="matrix(1 0 0 -1 0 439.8898)" gradientUnits="userSpaceOnUse">
			<stop  offset="0.22" style="stop-color:#F9F0AA"/>
			<stop  offset="1" style="stop-color:#B07E09"/>
		</radialGradient>
		<path style="fill:url(#SVGID_00000000181442501117865000000002092699075841260461_);stroke:#999270;stroke-width:0.16;" d="
			M308.7975,220.2475c0,0,5.2112-1.2787,5.8575,4.4619c0.165,1.4987-0.6463,4.9294-3.2038,5.8506l9.5425-0.9969l-0.8662-10.3194
			l-3.2175,0.2681C316.91,219.5119,310.09,219.7456,308.7975,220.2475z"/>
		<path class="st21" d="M310.8875,232.4438c0.0344,0,35.6812-2.4062,39.3387-2.2481c10.8213-5.94-0.055-29.26-9.1781-42.3087
			c1.045-2.9356-20.5219-9.5494-30.2775-8.9513c-1.2238,0.0688-2.4062,0.1581-3.5475,0.2406
			c-5.2938,0.5638-5.3419,7.3562-3.1831,11.6394c2.09,4.1525,20.8381,37.895,7.6588,41.4631L310.8875,232.4438z"/>
		
			<linearGradient id="SVGID_00000177480243148975841710000017555090861325516684_" gradientUnits="userSpaceOnUse" x1="325.8069" y1="247.9601" x2="324.7413" y2="266.667" gradientTransform="matrix(1 0 0 -1 0 439.8898)">
			<stop  offset="0.22" style="stop-color:#B07E09;stop-opacity:0"/>
			<stop  offset="1" style="stop-color:#B07E09"/>
		</linearGradient>
		<path style="fill:url(#SVGID_00000177480243148975841710000017555090861325516684_);stroke:#999270;stroke-width:0.16;" d="
			M349.1056,201.6712c-2.3215-4.7983-5.0156-9.4072-8.0575-13.7844c1.045-2.9356-20.5287-9.5494-30.2775-8.9512
			c-1.2307,0.0687-2.4131,0.1581-3.5475,0.2406c-5.2938,0.5638-5.3419,7.3563-3.19,11.6394
			c0.66,1.3062,2.9562,5.5275,5.3969,10.8144"/>
		
			<linearGradient id="SVGID_00000109730362775172241430000000591544816067097506_" gradientUnits="userSpaceOnUse" x1="332.15" y1="222.1859" x2="333.7725" y2="201.6159" gradientTransform="matrix(1 0 0 -1 0 439.8898)">
			<stop  offset="0.22" style="stop-color:#B07E09;stop-opacity:0"/>
			<stop  offset="1" style="stop-color:#B07E09"/>
		</linearGradient>
		<path style="fill:url(#SVGID_00000109730362775172241430000000591544816067097506_);stroke:#999270;stroke-width:0.16;" d="
			M312.84,209.6531c3.8156,10.0719,5.9538,20.7075-1.1275,22.6187l-0.8112,0.165c0.0344,0,35.6812-2.3994,39.3387-2.2481
			c5.8712-3.2175,5.3625-11.55,2.2-20.5837"/>
		
			<radialGradient id="SVGID_00000101071258458234313280000015885041201189728934_" cx="306.6113" cy="252.6423" r="8.9513" gradientTransform="matrix(1 0 0 -1 0 439.8898)" gradientUnits="userSpaceOnUse">
			<stop  offset="0.22" style="stop-color:#F9F0AA"/>
			<stop  offset="1" style="stop-color:#B07E09"/>
		</radialGradient>
		<path style="fill:url(#SVGID_00000101071258458234313280000015885041201189728934_);stroke:#999270;stroke-width:0.16;" d="
			M307.5875,181.1494c-2.5438,0-3.2038,2.4475-3.1625,4.0013c0.0894,4.0562,3.1625,4.2556,3.1625,4.2556l4.0975-0.2269
			l1.9662-8.3669L307.5875,181.1494L307.5875,181.1494z"/>
		
			<linearGradient id="SVGID_00000112598127931362675740000002358902811542575238_" gradientUnits="userSpaceOnUse" x1="310.4343" y1="254.5946" x2="313.0674" y2="260.7408" gradientTransform="matrix(1 0 0 -1 0 439.8898)">
			<stop  offset="0.22" style="stop-color:#F9F0AA"/>
			<stop  offset="1" style="stop-color:#B07E09"/>
		</linearGradient>
		<path style="fill:url(#SVGID_00000112598127931362675740000002358902811542575238_);stroke:#999270;stroke-width:0.16;" d="
			M307.5875,181.1769l6.0638-0.3369l0.6256,6.2494l-5.2938,0.2337C308.9831,187.3231,310.7019,182.3181,307.5875,181.1769
			L307.5875,181.1769z"/>
		
			<linearGradient id="SVGID_00000140016677892397609370000016123882132614295974_" gradientUnits="userSpaceOnUse" x1="325.4082" y1="263.0311" x2="327.2095" y2="240.2061" gradientTransform="matrix(1 0 0 -1 0 439.8898)">
			<stop  offset="0.22" style="stop-color:#F9F0AA"/>
			<stop  offset="1" style="stop-color:#B07E09"/>
		</linearGradient>
		<path style="fill:url(#SVGID_00000140016677892397609370000016123882132614295974_);stroke:#999270;stroke-width:0.16;" d="
			M341.0825,187.8869c4.5994-0.7356,4.5375-6.9231,1.3956-9.3981c-10.6562-0.3919-24.6812-0.1031-34.8081,0.66
			c1.1481-0.0344,4.3519,0.2544,4.7094,4.4688c0.1345,1.8528-0.6524,3.6529-2.1037,4.8125
			c-0.7706,0.5991-1.7065,0.9471-2.6812,0.9969c0.165,0.0688,1.485,0.0069,2.475-0.055c0.5019-0.0344,1.7462-0.1856,2.0969-0.2269
			c14.4444-1.8975,28.8681-1.2581,28.8681-1.2581H341.0825z"/>
		<g>
			<path class="st27" d="M315.1981,197.6013c-0.0963-0.2269-0.22-0.5156-0.5019-0.55c-0.1719,0-0.4469-0.0412-0.3919-0.275
				c0.165-0.0756,0.3713-0.0275,0.55-0.0413c0.385,0,0.7631-0.0825,1.1481-0.1031c0.2337,0.0688,0.1787,0.3713-0.0688,0.3163
				c-0.2819,0.0688-0.1237,0.3919-0.055,0.5569c0.3025,0.715,0.5981,1.43,0.9144,2.1313c0.0825,0.2131,0.2612,0.3987,0.495,0.4194
				c0.2475,0.0275,0.5156,0.0344,0.7494-0.0756c0.2062-0.1375,0.165-0.4331,0.1375-0.6463
				c-0.0894-0.2475,0.3712-0.1925,0.3438,0.0275c0.0825,0.2956,0.1856,0.5912,0.3025,0.8731
				c-0.0137,0.1375-0.1925,0.1031-0.2888,0.1169c-0.6875,0.055-1.3681,0.0894-2.0487,0.1512c-0.22-0.0069-0.55,0.1925-0.6806-0.0688
				c-0.0825-0.2613,0.3506-0.11,0.4125-0.3094c0-0.2269-0.1375-0.4262-0.2131-0.6325L315.1981,197.6013L315.1981,197.6013z
				 M318.5187,197.3675c-0.0963-0.22-0.2062-0.495-0.4744-0.55c-0.165-0.0137-0.4469-0.0069-0.4194-0.2544
				c0.1031-0.11,0.3094-0.0412,0.4606-0.0688c0.4056,0.0206,0.8044-0.055,1.21-0.0963c0.1994-0.0137,0.275,0.3575,0.0137,0.3094
				c-0.2406,0.0069-0.2613,0.275-0.1581,0.4469c0.3231,0.7838,0.66,1.5675,0.99,2.3444c0.0688,0.1719,0.165,0.3781,0.3712,0.4056
				c0.1719,0.0344,0.4469-0.0206,0.4813,0.22c-0.0275,0.1788-0.2956,0.0756-0.4331,0.11c-0.3572-0.0147-0.7149,0.013-1.0656,0.0825
				c-0.1581,0.0413-0.3781,0.0137-0.385-0.1856c0.0344-0.1925,0.3987-0.0481,0.4125-0.275c-0.0206-0.2269-0.1375-0.4263-0.22-0.6394
				L318.5187,197.3675L318.5187,197.3675z M321.585,197.8556c0.0619,0.1581,0.275,0.0412,0.4056,0.055
				c0.1787-0.0206,0.3712-0.1512,0.3506-0.3506c-0.0275-0.3094-0.1787-0.6256-0.4331-0.8181
				c-0.2338-0.165-0.5363-0.1444-0.8044-0.11c-0.0138,0.11,0.0688,0.2062,0.1031,0.3094L321.585,197.8556L321.585,197.8556z
				 M322.0457,198.9556c0.11,0.2406,0.1925,0.5088,0.385,0.6944c0.1719,0.1169,0.3919,0.0687,0.5844,0.0481
				c0.2062-0.0137,0.33-0.2269,0.2613-0.4194c-0.0963-0.44-0.3781-0.8937-0.8525-0.99c-0.2062-0.0344-0.4193-0.0413-0.6256,0
				c-0.0137,0.1031,0.0619,0.2062,0.0894,0.2956L322.0457,198.9556L322.0457,198.9556z M320.6431,197.3194
				c-0.1031-0.2337-0.2062-0.5225-0.4675-0.6325c-0.1719-0.055-0.4469,0.0206-0.4812-0.22c0.0412-0.2063,0.385-0.0688,0.55-0.11
				c0.5912-0.0206,1.1962-0.1856,1.7875,0c0.5019,0.1169,0.9556,0.55,0.99,1.0862c0.0206,0.2613-0.1788,0.4675-0.3987,0.5775
				c-0.0275-0.0963,0.2544,0.0413,0.3438,0.055c0.4125,0.1306,0.7769,0.3987,0.9556,0.7838
				c0.1375,0.275,0.2406,0.6394,0.0275,0.9075c-0.2475,0.275-0.6463,0.2819-0.99,0.2956c-0.5156,0.0137-1.0312,0.0206-1.5469,0.1237
				c-0.1787,0.0275-0.3094-0.33-0.055-0.3094c0.2544-0.0137,0.275-0.2888,0.165-0.4606L320.6431,197.3194L320.6431,197.3194z
				 M325.7444,196.0131c0.2269-0.0344,0.2475,0.22,0.3162,0.3644c0.0688,0.1994,0.1856,0.3713,0.2406,0.5706
				c-0.1925,0.1925-0.3438-0.0963-0.4331-0.2475c-0.0963-0.165-0.2612-0.3231-0.4744-0.3094c-0.275,0-0.5569,0.0137-0.8387,0.0481
				c-0.0963,0.11,0.0481,0.275,0.0825,0.3987c0.1306,0.3094,0.2475,0.6187,0.385,0.9212c0.1856-0.0137,0.4262,0.0137,0.5569-0.1375
				c0.055-0.165-0.1856-0.5156,0.1444-0.4469c0.2062,0.1169,0.1788,0.4125,0.2888,0.6119c0.0825,0.2613,0.2613,0.495,0.3369,0.7631
				c-0.1788,0.1994-0.3644-0.0894-0.4263-0.2475c-0.1306-0.2406-0.4331-0.2062-0.66-0.2062
				c-0.165-0.0344-0.055,0.1169-0.0275,0.1925c0.1444,0.3438,0.2613,0.6944,0.4538,1.0175
				c0.1375,0.2337,0.4469,0.2062,0.6875,0.1925c0.22-0.0137,0.495-0.0206,0.6325-0.2337c0.1444-0.1719-0.1925-0.5156,0.0894-0.5706
				c0.2406-0.0206,0.2337,0.2612,0.2956,0.4125c0.0481,0.1994,0.1237,0.385,0.1925,0.5706c-0.0137,0.1375-0.1925,0.0963-0.2888,0.11
				c-0.7012,0.0481-1.4025,0.0756-2.1037,0.1375c-0.2062,0-0.55,0.1581-0.6187-0.1375c0.0137-0.2062,0.44-0.0963,0.3781-0.3781
				c-0.0481-0.2406-0.1719-0.4538-0.2544-0.6875c-0.2613-0.6119-0.5019-1.2375-0.77-1.8425
				c-0.0963-0.2062-0.2544-0.4263-0.5019-0.4331c-0.165,0.0275-0.4125-0.0894-0.3231-0.2819
				c0.2406-0.0481,0.495-0.0137,0.7356-0.0412L325.7444,196.0131L325.7444,196.0131z M327.3325,196.9206
				c-0.1031-0.2406-0.2062-0.5294-0.4675-0.6394c-0.1787-0.055-0.495,0.0069-0.4813-0.275c0.1719-0.1237,0.4538-0.0206,0.6669-0.055
				c0.55-0.0069,1.1137-0.165,1.6569,0c0.5638,0.1581,1.045,0.6669,1.0794,1.265c0.0206,0.2819-0.2062,0.5156-0.4675,0.5912
				c-0.2063,0.0137,0.1581,0.0688,0.2062,0.1375c0.44,0.2062,0.7425,0.5981,0.9694,1.0106c0.055,0.1581,0.3575,0.4813,0.4056,0.1719
				c-0.0206-0.3438,0.44-0.055,0.3369,0.1788c0,0.2475-0.2406,0.4056-0.4675,0.3987c-0.3231,0.0275-0.6187-0.1581-0.7838-0.4262
				c-0.2888-0.3781-0.4881-0.8388-0.8731-1.1413c-0.1581-0.1169-0.385-0.1856-0.5706-0.1031
				c-0.0344,0.0963,0.0481,0.1925,0.0688,0.2819c0.1306,0.2819,0.2131,0.5844,0.3781,0.8387
				c0.1375,0.2131,0.4125,0.2475,0.6462,0.2475c0.2475,0.0619,0.1719,0.3987-0.0894,0.2956c-0.3987,0-0.8044-0.0275-1.2031,0.055
				c-0.1856,0.0894-0.5981,0.0069-0.4469-0.2544c0.1925-0.0137,0.4606-0.1169,0.33-0.3644
				c-0.2269-0.5981-0.4813-1.1894-0.7219-1.7875L327.3325,196.9206L327.3325,196.9206z M328.295,197.5394
				c0.0963,0.22,0.4125,0.0963,0.5981,0.0688c0.2406-0.0481,0.2337-0.3438,0.1581-0.5294c-0.11-0.3231-0.2544-0.7081-0.6187-0.825
				c-0.1719-0.0206-0.5775-0.1375-0.605,0.11c0.1375,0.3644,0.2956,0.7219,0.4331,1.0862l0.0344,0.0825V197.5394z M333.2587,198.715
				c0.0688,0.1788,0.1444,0.4194,0.3713,0.4538c0.1719,0.0344,0.4537-0.0206,0.4881,0.2269
				c-0.0275,0.1788-0.2956,0.0688-0.4331,0.0963c-0.3676-0.0232-0.7366-0.0048-1.1,0.055c-0.165,0.0481-0.385-0.0206-0.3644-0.22
				c0.0894-0.1375,0.4469-0.0206,0.4262-0.275c-0.055-0.275-0.1856-0.5294-0.2819-0.7906l-0.7906-1.98
				c-0.0688-0.2131-0.3094-0.2062-0.4813-0.1925c-0.1925,0-0.4744,0.0413-0.4744,0.2819c-0.055,0.1581,0.1513,0.4262-0.0275,0.5087
				c-0.2062,0.0413-0.2475-0.1925-0.2956-0.3438c-0.0688-0.2131-0.1787-0.4125-0.2613-0.6325
				c0.0206-0.1444,0.22-0.1169,0.3369-0.1375l2.8394-0.11c0.2062-0.0344,0.3438,0.1306,0.3575,0.3231
				c0.0688,0.2337,0.1856,0.4538,0.2819,0.6738c-0.0756,0.2269-0.3438,0.0275-0.3781-0.1375
				c-0.1375-0.2406-0.3506-0.4813-0.6462-0.4813c-0.1787,0-0.44-0.0688-0.5638,0.0963c0.0069,0.165,0.1031,0.3094,0.1512,0.4606
				L333.2587,198.715L333.2587,198.715z M335.8231,198.0894c-0.1375,0-0.0688,0.165-0.0825,0.2544
				c0.0069,0.1925-0.0137,0.3919,0.0206,0.5844c0.0894,0.2062,0.3644,0.1581,0.5431,0.2131
				c0.1581,0.0894,0.1169,0.3438-0.0963,0.275c-0.2888-0.0206-0.5844-0.055-0.8731,0.0137
				c-0.1719,0.0963-0.4881-0.0825-0.3369-0.2681c0.1375-0.0206,0.3094-0.0687,0.3438-0.2269
				c0.0481-0.2888,0.0206-0.5775,0.0275-0.8663l0.0138-2.5506c0.0825-0.1925,0.3575-0.0344,0.4125,0.11
				c0.825,1.045,1.6362,2.0969,2.475,3.1213c0.1375,0.1581,0.3163,0.275,0.5294,0.2888c0.1787,0,0.275,0.3644,0.0206,0.2888
				c-0.3575-0.0206-0.7081-0.0412-1.0588,0.0206c-0.1581,0-0.3438,0.0688-0.4813-0.0206c-0.165-0.1169-0.0481-0.2956,0.1375-0.275
				c0.2406-0.0688,0-0.33-0.0825-0.4469c-0.1306-0.1788-0.2613-0.3575-0.4056-0.5156c-0.1169-0.0619-0.2544-0.0206-0.3781-0.0275
				L335.8231,198.0894L335.8231,198.0894z M336.6275,197.7387c0.1306,0.0069-0.0344-0.11-0.055-0.165l-0.88-1.1413
				c0.0619-0.0069,0.0138,0.1237,0.0275,0.1788v1.155L336.6275,197.7387L336.6275,197.7387z M338.7313,196.4669
				c-0.1031-0.275-0.2406-0.6119-0.5638-0.6738c-0.165,0.0275-0.4813-0.1237-0.3094-0.3025c0.3781,0,0.7563,0.0206,1.1344-0.0137
				c0.4813-0.0412,0.9763-0.0275,1.43,0.1375c1.0367,0.3398,1.806,1.2172,2.0075,2.2894c0.0688,0.4125-0.055,0.8937-0.4331,1.1275
				c-0.5019,0.3231-1.1275,0.2613-1.6981,0.2269c-0.3231-0.0137-0.6462,0.0275-0.9625,0.0619
				c-0.2062-0.0275-0.2338-0.3506,0.0137-0.3163c0.2544,0,0.2544-0.2888,0.1581-0.4538L338.7313,196.4669L338.7313,196.4669z
				 M340.0856,198.1856c0.1031,0.2269,0.165,0.5156,0.385,0.6669c0.2062,0.0963,0.4537,0.0825,0.6737,0.055
				c0.3025-0.0412,0.495-0.3438,0.495-0.6256c-0.0127-0.5178-0.1621-1.023-0.4331-1.4644c-0.2569-0.4897-0.7223-0.8362-1.265-0.9419
				c-0.2269-0.0344-0.4606-0.0688-0.6875-0.0344c-0.0481,0.0894,0.0413,0.1856,0.0688,0.275l0.7631,2.0625V198.1856z
				 M325.5725,206.7175c0.0825,0.2406,0.3025,0.4125,0.55,0.4331c0.1787,0.0344,0.4813-0.0069,0.495,0.2475
				c-0.0963,0.1581-0.3644,0.0481-0.5294,0.0825c-0.3575,0-0.715,0-1.0656,0.0688c-0.1925,0-0.3919,0.0825-0.5775,0.0275
				c-0.165-0.0825-0.1375-0.3231,0.0688-0.2956c0.1787-0.0344,0.4194-0.0894,0.4331-0.3025
				c-0.0138-0.1994-0.1237-0.3712-0.1925-0.55l-0.7906-1.8906c-0.0619-0.2269-0.3094-0.2337-0.4881-0.1994
				c-0.1719,0.0344-0.4262,0.0894-0.4675-0.1512c0.0206-0.1994,0.3438-0.165,0.4813-0.2681
				c0.2131-0.0825,0.4262-0.1719,0.6463-0.2406c0.1512-0.0344,0.22,0.1031,0.2612,0.22L325.5725,206.7175L325.5725,206.7175z
				 M326.0881,203.6169c0.4675-0.0206,0.9419,0.055,1.4094,0c0.2062-0.0206,0.0688-0.3438,0.2612-0.3231
				c0.2544,0.0137,0.2131,0.33,0.2269,0.5087c0.0235,0.196-0.1164,0.374-0.3124,0.3975c-0.0241,0.0029-0.0484,0.0033-0.0725,0.0013
				c-0.3712,0.0206-0.7356-0.0344-1.1-0.0137c0.0825,0.2888,0.1994,0.5569,0.3025,0.8319c0.0206-0.0894,0.3163-0.1031,0.44-0.1237
				c0.7548-0.0328,1.4581,0.3822,1.7944,1.0587c0.1512,0.33,0.2269,0.7563-0.0137,1.0656c-0.275,0.3094-0.7081,0.3713-1.1,0.3781
				c-0.3369,0-0.7288-0.0756-0.9281-0.3781c-0.1169-0.1512-0.0963-0.4675,0.1512-0.44c0.2062,0,0.4538,0.1788,0.4125,0.4125
				c0.1169,0.1512,0.3644,0.0963,0.5363,0.0894c0.2062,0,0.4056-0.165,0.3919-0.3781c0-0.3369-0.1237-0.6669-0.3094-0.935
				c-0.2062-0.2956-0.5363-0.4881-0.8937-0.4813c-0.2062-0.0344-0.3781,0.1031-0.5706,0.1031
				c-0.1994-0.0275-0.2337-0.2544-0.3025-0.3987c-0.1581-0.4125-0.3163-0.825-0.4469-1.2513
				C325.9506,203.6719,326.0194,203.6031,326.0881,203.6169z M330.7975,204.3181c-0.11-0.275-0.2544-0.605-0.5775-0.6669
				c-0.165,0.0413-0.4813-0.1169-0.3163-0.2956c0.3781-0.0137,0.7631,0,1.1481-0.0481c0.4813-0.055,0.9831-0.0481,1.4438,0.1237
				c1.0312,0.3438,1.8631,1.2513,2.0213,2.3306c0.0619,0.3987-0.0756,0.8525-0.4331,1.0725
				c-0.495,0.3231-1.1069,0.275-1.6706,0.2612c-0.3094,0-0.6187,0.0481-0.9212,0.0894c-0.2062-0.0275-0.2475-0.3438,0-0.3162
				c0.2613-0.0206,0.2406-0.3094,0.1375-0.4744L330.7975,204.3181L330.7975,204.3181z M332.1931,206.0094
				c0.11,0.2337,0.1788,0.5156,0.4056,0.6669c0.2062,0.0963,0.4469,0.0688,0.6669,0.0344c0.3025-0.0481,0.4744-0.3575,0.4675-0.6463
				c0-0.5225-0.22-1.0175-0.4813-1.4644c-0.2653-0.4831-0.7357-0.8195-1.2787-0.9144c-0.2223-0.0415-0.4499-0.0461-0.6737-0.0137
				c-0.0482,0.0894,0.0412,0.1856,0.0687,0.275L332.1931,206.0094z M336.6206,203.0806c0.2131-0.0344,0.2406,0.2063,0.3025,0.3438
				c0.0688,0.1994,0.165,0.3781,0.2338,0.5775c-0.1306,0.2063-0.3438-0.0412-0.4056-0.1994
				c-0.0963-0.165-0.2406-0.3575-0.4606-0.3438c-0.2819-0.0206-0.5638,0-0.8456,0.0206c-0.1581,0.0688,0.0069,0.2681,0.0344,0.385
				c0.1237,0.3094,0.2406,0.6325,0.3712,0.935c0.1856,0,0.3987,0.0069,0.55-0.1031c0.1237-0.1444-0.1856-0.5087,0.1444-0.4675
				c0.2269,0.0825,0.1925,0.3919,0.2888,0.5775c0.0825,0.275,0.2406,0.5087,0.3369,0.7838
				c-0.1237,0.2269-0.3712-0.0413-0.4125-0.2063c-0.0963-0.2269-0.3506-0.2544-0.5638-0.2475
				c-0.1375-0.0206-0.2544,0.0069-0.1581,0.1512c0.1513,0.3506,0.2613,0.7219,0.4538,1.0588
				c0.1375,0.2406,0.4469,0.2062,0.6875,0.2062c0.22-0.0069,0.5019,0,0.6394-0.22c0.1375-0.165-0.1375-0.4538,0.055-0.55
				c0.2337-0.0688,0.2888,0.1856,0.3231,0.3506c0.055,0.2131,0.1237,0.4125,0.1994,0.6187c-0.0206,0.1375-0.1925,0.0963-0.2956,0.11
				c-0.7081,0.0275-1.4162,0.0412-2.1244,0.0825c-0.1925-0.0069-0.4744,0.1444-0.5981-0.0688
				c-0.1237-0.275,0.3438-0.1306,0.3644-0.3644c0.0206-0.2062-0.1031-0.3987-0.1719-0.5912
				c-0.2613-0.66-0.5156-1.3337-0.7838-1.9937c-0.0963-0.2131-0.2475-0.4538-0.5087-0.4675
				c-0.165,0.0275-0.4125-0.0894-0.3163-0.275c0.2475-0.0481,0.5019-0.0069,0.7563-0.0275L336.6206,203.0806L336.6206,203.0806z
				 M317.8656,212.8981c0.1031,0.3369,0.4606,0.4744,0.7631,0.5638c0.5294,0.1788,1.1,0.3575,1.4781,0.7975
				c0.2062,0.2544,0.3575,0.5844,0.3438,0.9212c-0.0275,0.3438-0.3231,0.5981-0.6394,0.6806
				c-0.3919,0.1237-0.825,0.0894-1.1894-0.0687c-0.1856-0.0756-0.1169,0.3231-0.3438,0.1856c-0.165-0.1237-0.11-0.385-0.2062-0.5569
				c-0.0688-0.2269-0.165-0.4469-0.2613-0.6669c0.0069-0.22,0.33-0.1031,0.3438,0.0688c0.22,0.4125,0.6325,0.77,1.1206,0.7769
				c0.2475,0,0.55-0.1237,0.5706-0.4056c0.0069-0.3644-0.2819-0.6531-0.5912-0.8112c-0.44-0.2269-0.9488-0.3025-1.375-0.5569
				c-0.3902-0.2345-0.6339-0.6518-0.6462-1.1069c0.0069-0.3025,0.2544-0.5362,0.5294-0.6187
				c0.3438-0.1169,0.7219-0.1375,1.0725-0.0412c0.165,0.0894,0.2337-0.1856,0.4125-0.0481c0.0756,0.1375,0.055,0.3162,0.1375,0.4606
				c0.0481,0.1994,0.1787,0.3713,0.2269,0.5638c-0.11,0.1719-0.3232,0.0137-0.3575-0.1375c-0.1512-0.2475-0.3575-0.5294-0.6737-0.55
				c-0.2406-0.0206-0.5432-0.0206-0.6944,0.1994C317.8175,212.6507,317.8175,212.7882,317.8656,212.8981L317.8656,212.8981z
				 M322.465,211.7637c0.2269-0.0413,0.2338,0.2131,0.2888,0.3644c0.055,0.1856,0.1375,0.3644,0.1994,0.55
				c-0.0963,0.1925-0.3438,0.0137-0.3713-0.1444c-0.0963-0.1788-0.2337-0.3987-0.4606-0.385c-0.2819,0-0.5638,0.0206-0.8456,0.055
				c-0.1581,0.0688,0,0.2681,0.0206,0.3919l0.3163,0.935c0.1856-0.0137,0.3987-0.0069,0.55-0.1237
				c0.1375-0.1375-0.1306-0.4125,0.0963-0.4813c0.2613-0.0344,0.2406,0.3025,0.3025,0.4675
				c0.0688,0.3094,0.2269,0.5844,0.3163,0.8869c-0.0963,0.22-0.3644,0.0069-0.3781-0.1719c-0.0688-0.2269-0.33-0.275-0.5431-0.2544
				c-0.1169,0-0.2888,0-0.1856,0.1512c0.1237,0.3438,0.22,0.7012,0.3781,1.0312c0.0825,0.2062,0.3094,0.2406,0.5019,0.2269
				c0.2681-0.0206,0.5775,0.0069,0.7906-0.1925c0.165-0.165,0.0275-0.4056,0.0688-0.5844c0.165-0.1375,0.3575,0.0412,0.3438,0.2337
				c0.0412,0.2337,0.1031,0.4675,0.1787,0.7012c-0.0275,0.1375-0.2062,0.0963-0.3025,0.1169
				c-0.7013,0.055-1.4025,0.0894-2.1038,0.1581c-0.1925-0.0137-0.4675,0.1581-0.5844-0.0688
				c-0.11-0.2544,0.3094-0.1375,0.3644-0.3438c0.0619-0.1994-0.0688-0.3919-0.1169-0.5844
				c-0.2269-0.6738-0.4469-1.3475-0.6875-2.0213c-0.0825-0.2062-0.2269-0.4538-0.4813-0.4538
				c-0.165,0.0412-0.4125-0.0894-0.2956-0.275c0.2406-0.0481,0.4881-0.0206,0.7356-0.0481L322.465,211.7637L322.465,211.7637z
				 M325.3387,214.61c0.0688,0.2062,0.1856,0.44,0.4194,0.4813c0.1719,0.0619,0.4606-0.0481,0.5019,0.1994
				c0,0.22-0.3369,0.1031-0.4813,0.1375c-0.3575-0.0206-0.7081,0-1.0519,0.0688c-0.1512,0.0275-0.3781,0.0756-0.4125-0.1237
				c-0.0413-0.2337,0.3094-0.1031,0.385-0.275c0.055-0.1788-0.0413-0.3575-0.0894-0.5294
				c-0.2338-0.6875-0.4538-1.3819-0.6944-2.0694c-0.0756-0.2063-0.1856-0.4675-0.4331-0.4881
				c-0.1581-0.0069-0.4331-0.0206-0.385-0.2544c0.1237-0.11,0.3369-0.0344,0.4881-0.055c0.5087,0.0069,0.9969-0.1375,1.5056-0.1031
				c0.5156,0.0206,1.0175,0.3506,1.1894,0.8456c0.1169,0.275,0.1512,0.6325-0.055,0.88c-0.2681,0.3094-0.7013,0.3781-1.0862,0.4262
				c-0.1444-0.0206-0.0275,0.1375-0.0206,0.2063L325.3387,214.61L325.3387,214.61z M324.9469,213.4275
				c0.1375,0.0206,0.3163-0.0206,0.4606-0.055c0.22-0.0481,0.33-0.275,0.275-0.4813c-0.0423-0.2987-0.1714-0.5784-0.3712-0.8044
				c-0.2062-0.1788-0.5156-0.1788-0.77-0.1169c-0.0894,0.0825,0,0.22,0.0275,0.3231L324.9469,213.4275L324.9469,213.4275z
				 M329.175,214.4106c0.0619,0.1719,0.1169,0.4194,0.3438,0.4469c0.165,0.0412,0.4469-0.0206,0.4675,0.22
				c-0.0413,0.1856-0.3025,0.0825-0.44,0.11c-0.3681-0.0187-0.7371,0.0043-1.1,0.0688c-0.1581,0.0619-0.3781-0.0069-0.3438-0.2062
				c0.0963-0.1513,0.4469-0.0344,0.44-0.2888c-0.0344-0.2681-0.1444-0.5156-0.2269-0.7769l-0.6531-1.9937
				c-0.0481-0.2131-0.2956-0.2062-0.4675-0.1856c-0.1719,0.0137-0.4262,0.0344-0.4744,0.2406
				c-0.055,0.1719,0.0275,0.3644-0.0069,0.5363c-0.165,0.11-0.3232-0.0688-0.3163-0.2269c-0.055-0.2406-0.1375-0.4675-0.2338-0.6875
				c-0.0069-0.165,0.2063-0.1513,0.3232-0.165l2.8531-0.1719c0.2062-0.0344,0.3369,0.1306,0.33,0.3231
				c0.055,0.2337,0.1512,0.4538,0.2338,0.6738c-0.0413,0.1925-0.33,0.0894-0.3438-0.0825
				c-0.1169-0.2475-0.3025-0.5087-0.5981-0.5225c-0.1925,0-0.4331-0.0412-0.5912,0.0825c-0.0344,0.1375,0.055,0.275,0.0894,0.4125
				L329.175,214.4106L329.175,214.4106z M330.6187,212.1487c-0.0688-0.2062-0.1512-0.4813-0.3919-0.5431
				c-0.165-0.0412-0.4469,0.0069-0.4331-0.2406c0.0688-0.1512,0.2888-0.0619,0.4194-0.0825
				c0.4125,0.0137,0.825-0.0412,1.2306-0.0825c0.1788-0.0825,0.33,0.2888,0.1031,0.2888c-0.1719,0-0.3781,0.1306-0.3025,0.3231
				c0.0894,0.3644,0.22,0.7219,0.33,1.0794c0.165,0.5019,0.3231,1.0106,0.495,1.5125c0.0481,0.1581,0.1719,0.2956,0.3438,0.3025
				c0.165,0,0.4537,0.0275,0.4056,0.2612c-0.1237,0.11-0.33,0.0412-0.4881,0.055c-0.3713-0.0275-0.7357,0.0344-1.1,0.0756
				c-0.165,0.0688-0.3713-0.0894-0.275-0.2544c0.1375-0.0688,0.4469-0.0344,0.4262-0.2681c-0.055-0.275-0.165-0.55-0.2475-0.825
				L330.6187,212.1487z M334.5788,211.0488c0.22-0.0412,0.2268,0.2063,0.275,0.3575c0.055,0.1856,0.1375,0.3713,0.1925,0.5569
				c-0.0963,0.1994-0.3438,0.0137-0.3643-0.1512c-0.0894-0.1788-0.2269-0.3919-0.4606-0.385
				c-0.275-0.0069-0.5638,0.0137-0.8456,0.0344c-0.1581,0.0688-0.0069,0.275,0.0137,0.3919
				c0.0963,0.3094,0.1925,0.6256,0.3025,0.935c0.1856-0.0069,0.3987,0,0.55-0.11c0.1375-0.1375-0.1237-0.4194,0.11-0.4812
				c0.2544-0.0206,0.2338,0.3094,0.2888,0.4812c0.0619,0.3094,0.22,0.5844,0.3025,0.8869
				c-0.0756,0.1994-0.3575,0.0275-0.3575-0.1512c-0.0688-0.22-0.2956-0.3094-0.5087-0.2888
				c-0.1031,0.0137-0.3438-0.0481-0.2475,0.1169c0.1169,0.3575,0.2062,0.7219,0.3644,1.0656
				c0.0825,0.1925,0.3094,0.2406,0.5019,0.2269c0.275-0.0137,0.5844,0.0206,0.7975-0.1788
				c0.1719-0.1512,0.0344-0.3987,0.0756-0.5775c0.1787-0.1375,0.3644,0.0481,0.3438,0.2406
				c0.0413,0.2337,0.1031,0.4675,0.1719,0.7012c-0.0344,0.1375-0.1925,0.0963-0.2956,0.11
				c-0.7081,0.0344-1.4231,0.0687-2.1313,0.1169c-0.1856-0.0137-0.44,0.1375-0.5706-0.0481
				c-0.1512-0.2681,0.2613-0.1719,0.3438-0.33c0.0963-0.1856-0.0275-0.3781-0.0688-0.5569l-0.66-2.0625
				c-0.0825-0.2131-0.22-0.4813-0.4813-0.4813c-0.1719,0.0344-0.4125-0.1031-0.2956-0.2819
				c0.2337-0.0481,0.4813-0.0137,0.7219-0.0344L334.5788,211.0488L334.5788,211.0488z M335.9538,211.7088
				c-0.0482-0.2475-0.2338-0.4675-0.5019-0.4263c-0.2613,0.0688-0.3438-0.3919-0.0275-0.2956c0.3506,0,0.7081-0.055,1.0518,0.0206
				c0.1719,0.1856,0.3025,0.3987,0.4538,0.5912l1.4919,1.9937c-0.1031,0.0275-0.0206-0.1237-0.0344-0.2062l0.2475-2.4338
				c0.1856-0.1513,0.5019-0.0894,0.7356-0.1375c0.1994-0.0275,0.6394-0.0894,0.5156,0.2406
				c-0.2338,0.0412-0.5294,0.1512-0.3713,0.4469c0.2475,0.825,0.5088,1.6431,0.77,2.4612c0.0481,0.2819,0.3369,0.3713,0.5912,0.3575
				c0.2131,0.0137,0.2269,0.3919-0.0344,0.2956c-0.4125,0-0.825-0.0275-1.2238,0.0481c-0.1856,0.0619-0.5638,0.0412-0.44-0.2475
				c0.2062-0.0344,0.55-0.0963,0.3987-0.3919c-0.2131-0.7287-0.4469-1.4506-0.6738-2.1794c0.0482,0.0688-0.0069,0.1719,0,0.2612
				c-0.0687,0.6806-0.1581,1.3544-0.2062,2.0419c-0.0275,0.1788,0.0344,0.3919-0.0481,0.55
				c-0.165,0.0688-0.2681-0.0825-0.3438-0.1925l-1.9662-2.5438c0.0687-0.0275,0.0619,0.1375,0.0963,0.2063
				c0.2062,0.6531,0.4056,1.32,0.6256,1.9731c0.0688,0.2681,0.3438,0.3438,0.5844,0.3438c0.2613,0.1375,0.0688,0.3781-0.1581,0.2819
				c-0.3438-0.0481-0.6875,0.0206-1.0312,0.055c-0.2063,0-0.22-0.3438,0.0206-0.3025c0.3232,0,0.2269-0.3644,0.1513-0.55
				l-0.7013-2.255L335.9538,211.7088L335.9538,211.7088z M341.9625,212.2931c0.0413,0.1512,0.2475,0.0481,0.3644,0.0687
				c0.1925-0.0137,0.4262-0.1237,0.4331-0.3438c0.0069-0.3025-0.11-0.6187-0.3438-0.8181
				c-0.2269-0.1719-0.5294-0.1581-0.7975-0.1375c-0.0275,0.1031,0.0413,0.2131,0.0688,0.3162L341.9625,212.2931L341.9625,212.2931z
				 M342.2994,213.3931c0.0825,0.2406,0.1306,0.5088,0.3094,0.7012c0.165,0.1237,0.385,0.0688,0.5775,0.0619
				c0.1787-0.0137,0.3369-0.1581,0.3163-0.3438c-0.0206-0.4125-0.2131-0.8663-0.6188-1.0312
				c-0.2374-0.0759-0.4889-0.0971-0.7356-0.0619c-0.0825,0.0688,0.0206,0.2062,0.0344,0.2956L342.2994,213.3931L342.2994,213.3931z
				 M341.0756,211.7431c-0.0756-0.2406-0.1512-0.5294-0.3987-0.6462c-0.1581-0.0619-0.44,0.0137-0.4538-0.2337
				c0.055-0.1925,0.3713-0.0481,0.5294-0.0894c0.6119,0,1.2375-0.1581,1.8287,0.0412c0.4813,0.1237,0.88,0.5638,0.88,1.0725
				c0,0.275-0.2269,0.4881-0.4744,0.5912c-0.0138-0.0894,0.2475,0.0481,0.3438,0.0688c0.3643,0.1306,0.7012,0.3781,0.8456,0.7563
				c0.1169,0.275,0.1925,0.6463-0.0275,0.9075c-0.2475,0.275-0.6531,0.2956-0.9969,0.3025c-0.55,0-1.0931-0.0069-1.6294,0.0825
				c-0.1994,0.0206-0.275-0.3438-0.0275-0.3094c0.2475,0,0.3162-0.2613,0.22-0.4538L341.0756,211.7431L341.0756,211.7431z
				 M344.52,211.6194c-0.0756-0.2406-0.1512-0.5294-0.3987-0.6463c-0.165-0.0619-0.4744,0.0137-0.4537-0.2544
				c0.1306-0.1719,0.4469-0.0275,0.6531-0.0688c0.4675,0,0.935-0.0894,1.4025-0.0344c0.5431,0.0688,1.0587,0.4469,1.1962,0.9969
				c0.0963,0.2888,0.0344,0.6531-0.2475,0.8181c-0.0619,0.0688-0.3575,0.1375-0.3094,0.1306c0.4125,0.165,0.77,0.4744,0.9694,0.8731
				c0.11,0.1788,0.1719,0.3987,0.3232,0.55c0.1856,0.1375,0.2062-0.1169,0.2337-0.2269c0.2406-0.1237,0.3644,0.22,0.2681,0.3987
				c-0.1031,0.2888-0.4675,0.3438-0.7287,0.275c-0.2338-0.0481-0.4125-0.2337-0.5225-0.44
				c-0.2337-0.3713-0.3781-0.8044-0.7081-1.1069c-0.1512-0.1375-0.385-0.2131-0.5844-0.1375
				c-0.0481,0.0963,0.0275,0.1994,0.0413,0.2956c0.0894,0.275,0.1444,0.55,0.2681,0.8044c0.11,0.2269,0.3713,0.2819,0.5981,0.2819
				c0.22,0,0.2406,0.385-0.0206,0.2956c-0.4125,0-0.8388-0.0481-1.2581,0.0206c-0.1512,0-0.3644,0.0963-0.4606-0.0688
				c-0.1513-0.2888,0.2819-0.1513,0.3781-0.3162c0.0688-0.1925-0.0413-0.385-0.0825-0.5775L344.52,211.6194L344.52,211.6194z
				 M345.4206,212.2519c0.0688,0.22,0.385,0.1031,0.55,0.0963c0.2062-0.0206,0.3231-0.22,0.275-0.4125
				c-0.0481-0.3094-0.1306-0.6463-0.3712-0.8594c-0.2062-0.1581-0.495-0.1581-0.7425-0.11c-0.11,0.0825-0.0069,0.2337,0.0137,0.3438
				L345.4206,212.2519L345.4206,212.2519z M350.1575,210.5056c0.2131-0.0344,0.2269,0.2062,0.2613,0.3506
				c0.055,0.1925,0.1375,0.3781,0.1787,0.5706c-0.0894,0.1788-0.3369,0.0206-0.3506-0.1375
				c-0.0894-0.1788-0.2062-0.4125-0.4331-0.4125c-0.293-0.0198-0.587-0.0198-0.88,0c-0.165,0.055-0.0206,0.2613-0.0069,0.385
				c0.0894,0.3094,0.1719,0.6256,0.275,0.935c0.1719,0,0.3644,0,0.5294-0.0688c0.1994-0.11-0.0688-0.4125,0.1375-0.4813
				c0.2475-0.0619,0.2475,0.2681,0.2888,0.4331c0.0413,0.3231,0.2062,0.6187,0.275,0.9281
				c-0.0825,0.1925-0.3575,0.0137-0.3575-0.1581c-0.055-0.2062-0.2544-0.3162-0.4538-0.3025
				c-0.1031,0.0137-0.385-0.0825-0.3025,0.0894c0.11,0.3644,0.1856,0.7356,0.3369,1.0794c0.0688,0.2062,0.3025,0.2475,0.495,0.2475
				c0.275-0.0069,0.5844,0.0412,0.8112-0.1513c0.1788-0.1512,0.0482-0.3987,0.0963-0.5775
				c0.1787-0.1237,0.3644,0.0688,0.3369,0.2544c0.0344,0.2337,0.0825,0.4675,0.1444,0.7012
				c-0.0344,0.1375-0.2062,0.0825-0.3094,0.0963c-0.715,0.0137-1.4231,0.0206-2.1381,0.0481
				c-0.1856-0.0206-0.4125,0.1031-0.5638-0.0412c-0.1787-0.2612,0.2062-0.2062,0.3231-0.3231
				c0.1375-0.1513,0.0275-0.3438-0.0137-0.5156c-0.2062-0.7081-0.3987-1.4163-0.6119-2.1175
				c-0.0688-0.2063-0.1856-0.4675-0.4331-0.495c-0.165,0.0069-0.4194-0.0688-0.3369-0.275c0.2062-0.0688,0.4537,0,0.6737-0.0275
				L350.1575,210.5056L350.1575,210.5056z M327.5938,219.5325c-0.0688-0.2544-0.1512-0.5844-0.44-0.6531
				c-0.165,0-0.4469-0.0412-0.3438-0.275c0.2062-0.0825,0.4606-0.0137,0.6875-0.0481c0.5638-0.0275,1.1344-0.165,1.6912-0.0137
				c0.8384,0.1886,1.5151,0.8052,1.7806,1.6225c0.1512,0.5019,0.1787,1.1-0.1581,1.54c-0.3575,0.4606-0.9763,0.5844-1.5262,0.5912
				c-0.4194,0-0.8456,0-1.265,0.0825c-0.165,0.0963-0.4331-0.0688-0.2888-0.2475c0.1719-0.0481,0.4607-0.1031,0.4056-0.3575
				c-0.0688-0.3506-0.1719-0.6944-0.2475-1.045L327.5938,219.5325L327.5938,219.5325z M328.7213,221.21
				c0.0688,0.22,0.0963,0.4813,0.275,0.6463c0.1925,0.1169,0.4263,0.0688,0.6325,0.055c0.3232-0.0481,0.5638-0.33,0.6187-0.6463
				c0.0624-0.524-0.0309-1.0549-0.2681-1.5263c-0.1787-0.4125-0.55-0.7425-0.99-0.8387c-0.2615-0.0613-0.5324-0.0707-0.7975-0.0275
				c-0.055,0.0825,0.0138,0.1856,0.0275,0.275L328.7213,221.21L328.7213,221.21z M333.575,218.1644
				c0.22-0.0412,0.2131,0.2062,0.2475,0.3506c0.0412,0.1925,0.11,0.3713,0.1512,0.5638c-0.0894,0.1788-0.3438,0.0412-0.3438-0.1306
				c-0.0825-0.1719-0.1856-0.3987-0.4125-0.3987c-0.2888-0.0137-0.5844,0.0137-0.8731,0.0413
				c-0.165,0.055-0.0344,0.2612-0.0275,0.3919c0.0825,0.3094,0.1444,0.6187,0.2338,0.9281c0.1856-0.0069,0.3987,0,0.5638-0.1169
				c0.1443-0.1306-0.0894-0.4194,0.1375-0.4744c0.2612-0.0275,0.2062,0.3094,0.2544,0.4744
				c0.0344,0.3025,0.1719,0.5844,0.2337,0.8869c-0.0825,0.1925-0.3643,0.0344-0.3438-0.1444
				c-0.055-0.2269-0.2819-0.3162-0.4881-0.2888c-0.1031,0.0137-0.3438-0.0481-0.2544,0.1169
				c0.0894,0.3575,0.1513,0.7219,0.275,1.0656c0.0687,0.2063,0.3025,0.2406,0.4812,0.2269
				c0.2888-0.0137,0.6187,0.0137,0.8388-0.2062c0.1719-0.1581,0.0137-0.4194,0.1169-0.5775
				c0.2062-0.1169,0.3369,0.0963,0.3094,0.275c0.0206,0.2337,0.0619,0.4538,0.11,0.6806c-0.0413,0.1375-0.2062,0.0963-0.3231,0.11
				c-0.7012,0.0481-1.4094,0.0825-2.1106,0.1375c-0.1788-0.0069-0.385,0.1031-0.5363,0.0069
				c-0.1788-0.1856,0.0688-0.275,0.22-0.3025c0.2062-0.0688,0.1788-0.3025,0.1306-0.4675c-0.1856-0.7425-0.3506-1.485-0.5431-2.2275
				c-0.055-0.2063-0.1581-0.4606-0.4125-0.4813c-0.1581,0.0206-0.4125-0.055-0.3162-0.2681
				c0.2062-0.0825,0.4469-0.0206,0.6669-0.0481L333.575,218.1644L333.575,218.1644z M338.0369,220.9831
				c0.0275,0.2062,0.1925,0.3919,0.4125,0.4262c0.1581,0.0688,0.4125-0.0275,0.5019,0.165c0.0688,0.2406-0.2681,0.165-0.4125,0.1719
				c-0.385,0-0.7838-0.0137-1.1688,0.0481c-0.2062,0.0137-0.3987,0.0687-0.5981,0.0481c-0.1856-0.0825-0.1031-0.3438,0.1031-0.3094
				c0.1856-0.0412,0.4331-0.0894,0.4813-0.3025c0.0275-0.1856-0.0481-0.3644-0.0825-0.5431l-0.44-1.8975
				c-0.0206-0.2269-0.2681-0.2337-0.44-0.2063c-0.1512,0.0069-0.3987,0.1169-0.4537-0.11c-0.0206-0.2337,0.3231-0.1856,0.4606-0.275
				c0.2544-0.0894,0.5087-0.1925,0.7631-0.2612c0.1444-0.0344,0.2063,0.1031,0.22,0.22L338.0369,220.9831L338.0369,220.9831z
				 M340.5738,218.7006c-0.0481-0.2475-0.1925-0.5431-0.4744-0.5775c-0.2062-0.0344-0.4606,0.0206-0.5362,0.2337
				c-0.0688,0.2612,0.0275,0.5569,0.2544,0.7081c0.1925,0.1375,0.4125,0.2062,0.6187,0.3094
				c0.0412-0.0825,0.165-0.2406,0.1581-0.385C340.6081,218.8931,340.5944,218.79,340.5738,218.7006z M341.1512,220.6944
				c-0.0688-0.3438-0.3919-0.5363-0.6875-0.66c-0.1237-0.0206-0.3025-0.1856-0.385-0.1169c-0.2063,0.1856-0.3163,0.4881-0.22,0.7563
				c0.0825,0.3369,0.33,0.6669,0.6875,0.6875c0.2406,0.0344,0.5294-0.0688,0.5981-0.3231c0.0304-0.1126,0.0304-0.2312,0-0.3438
				H341.1512z M341.7631,220.5431c0.0919,0.3363-0.0374,0.694-0.3231,0.8938c-0.4156,0.2581-0.9243,0.3186-1.3887,0.165
				c-0.4167-0.1158-0.7329-0.456-0.8181-0.88c-0.0825-0.3369,0.055-0.715,0.3575-0.9006c0.0688-0.0688,0.3369-0.0963,0.1169-0.1513
				c-0.3438-0.165-0.6806-0.44-0.7494-0.8387c-0.0825-0.3369,0.0688-0.7081,0.3781-0.8731
				c0.5912-0.3231,1.4369-0.1375,1.7806,0.4606c0.1444,0.2544,0.1719,0.5912,0,0.8388c-0.1031,0.1375-0.2269,0.275-0.3919,0.3094
				c0.3369,0.0688,0.6394,0.275,0.8387,0.5431C341.66,220.2406,341.7288,220.385,341.7631,220.5431L341.7631,220.5431z
				 M344.0044,220.9281c0.165,0,0.3438-0.0963,0.3713-0.275c0.0619-0.1306-0.055-0.4125,0.1787-0.3987
				c0.2062,0.0137,0.1856,0.2544,0.2062,0.4125c0.0206,0.275,0,0.5981-0.2337,0.7769c-0.1719,0.11-0.385,0.0688-0.5775,0.0688
				c-0.385-0.0137-0.77-0.0963-1.155-0.0481c-0.165,0.0137-0.3438,0.1925-0.495,0.0688c-0.1306-0.1581-0.0481-0.3575,0-0.5294
				c0.1375-0.4194,0.4263-0.77,0.7563-1.0587c0.2269-0.2063,0.4813-0.4469,0.5225-0.7769c0.0275-0.2819-0.055-0.5775-0.2062-0.8181
				c-0.1925-0.3094-0.6463-0.4125-0.9625-0.22c-0.1513,0.1031-0.275,0.3438-0.1513,0.5156c0.1444,0.11,0.4125,0.0069,0.4813,0.2406
				c0.0894,0.1581,0,0.4125-0.2062,0.4125c-0.3025,0.0412-0.5775-0.1925-0.6531-0.4813c-0.1219-0.3617,0.0203-0.7598,0.3438-0.9625
				c0.3438-0.2062,0.7769-0.2062,1.155-0.1169c0.3919,0.0963,0.715,0.3987,0.8387,0.7838c0.1031,0.2956,0.11,0.6394-0.055,0.9212
				c-0.2612,0.495-0.7906,0.7356-1.1412,1.1481c-0.0963,0.11-0.1719,0.2613-0.1306,0.4056c0.055-0.1375,0.275-0.0894,0.3987-0.1169
				C343.53,220.8731,343.7707,220.935,344.0044,220.9281L344.0044,220.9281z M346.7131,220.6394
				c0.0275,0.2131,0.1856,0.3987,0.3987,0.4331c0.1581,0.0688,0.3919-0.0069,0.495,0.1581
				c0.0963,0.2337-0.2269,0.1925-0.3713,0.1856c-0.4056-0.0137-0.8112-0.0344-1.2169,0.0137
				c-0.1994,0.0137-0.3987,0.0619-0.5912,0.0344c-0.1925-0.0894-0.0894-0.3438,0.11-0.3025
				c0.1856-0.0344,0.4331-0.0756,0.495-0.2888c0.0206-0.1856-0.0481-0.3644-0.0756-0.5431l-0.3987-1.9044
				c-0.0137-0.1925-0.22-0.2337-0.3781-0.2062c-0.165-0.0206-0.385,0.11-0.4881-0.0688c-0.1237-0.2406,0.2337-0.2406,0.3781-0.3025
				c0.275-0.0825,0.55-0.1925,0.8387-0.2612c0.1444-0.0344,0.2062,0.1031,0.2131,0.22L346.7131,220.6394L346.7131,220.6394z"/>
		</g>
	</g>
	<g>
		
			<radialGradient id="SVGID_00000066494051111873089640000015237329250777288090_" cx="328.5287" cy="278.1417" r="0.2338" gradientTransform="matrix(1 0 0 -1 0 439.8898)" gradientUnits="userSpaceOnUse">
			<stop  offset="0.26" style="stop-color:#A50A0A"/>
			<stop  offset="1" style="stop-color:#4C0505"/>
		</radialGradient>
		<path style="fill:url(#SVGID_00000066494051111873089640000015237329250777288090_);stroke:#4C0505;stroke-width:0.22;" d="
			M327.1125,164.5944l-2.5919,3.08c-0.825,3.6025,1.2238,6.3181,5.2594,8.6762c3.2656,2.0281,9.3156,2.5369,11.2269,0.8938
			l-9.4325-8.9787L327.1125,164.5944z"/>
		<path class="st29" d="M346.2112,257.3106c-0.4606-0.5569-0.9281-1.1137-1.4025-1.6638
			c-5.8781,7.7687-13.2275,14.7263-22.4194,19.6419C332.75,272.3531,339.5356,264.7975,346.2112,257.3106z M335.5963,281.8613
			c3.6575-7.4044,8.0644-14.8088,12.5125-22.22c-0.4813-0.605-0.9763-1.21-1.4713-1.8081
			C341.5844,266.2069,335.6512,276.1756,335.5963,281.8613z M364.2856,203.1425c-0.6737-2.9219-1.5606-6.0775-2.9562-8.9719
			c-1.8356-3.74-4.5581-7.4525-8.14-11.55c-6.4488-6.9987-12.9044-13.75-21.9519-18.7412l0.0481-0.0963l0.055,0.0344h0.11
			l-0.11-0.1375h0.3231l-0.1719-0.1787h0.2956l-0.2406-0.275h0.3163l-0.22-0.2269h0.3369l-0.1925-0.2475l0.275,0.0206
			l-0.2544-0.2681l0.3781-0.0688l-0.3094-0.1925l0.33-0.0688l-0.275-0.1856l0.4056-0.1306l-0.3575-0.2063l0.4469-0.2063
			l-0.4331-0.3094l0.4606-0.1581l-0.5019-0.2063l0.4262-0.2131l-0.5019-0.0894l0.3438-0.3919l-0.4813,0.0275l0.2131-0.4125
			l-0.4606,0.0344l-0.0275-0.0344l0.2544-0.3094l-0.4675,0.0825l0.2062-0.4194l-0.4469,0.22l0.1237-0.4812l-0.4262,0.2956
			l0.0688-0.495l-0.4056,0.3438l0.0412-0.4812l-0.3438,0.3712l0.0275-0.495l-0.3438,0.4125l-0.0413-0.4812l-0.275,0.3781
			l-0.1375-0.4606l-0.2337,0.4606l-0.1169-0.4881l-0.22,0.4881l-0.1031-0.4881l-0.1856,0.4881l-0.1375-0.4606l-0.1512,0.4606
			l-0.11-0.4125l-0.165,0.495l-0.1581-0.4606l-0.165,0.5294l-0.1994-0.4744l-0.0894,0.5638l-0.2406-0.4606l-0.0275,0.55
			l-0.2612-0.4125l-0.0206,0.5363l-0.275-0.3919l0.0206,0.4812l-0.3025-0.2544l0.1512,0.5088l-0.3643-0.2063l0.1375,0.4469
			l-0.2956-0.165l0.1031,0.4331l-0.275-0.0894l0.1444,0.3231l-0.0206,0.0481l-0.2062-0.0412l0.1169,0.2475
			c-0.239,0.7829-0.3207,1.6054-0.2406,2.42c0.0138,0.1581,0.4125,0.3163,0.4744,0.4125c0.1925,0.3025,0.1581,0.4606,0.1581,0.4606
			c-1.1,1.7738-2.0762,3.1419-2.1862,5.1769c0.88-1.1137,1.7875-2.475,3.0662-2.475c-0.6325,1.0587-0.9281,4.2419-0.22,4.73
			l0.5294-0.935c0.0206,0.7425,0.1237,1.2375,0.2682,1.6019c0.22-0.4469,0.44-0.88,0.66-1.2031
			c0.0482,1.0381,0.1856,1.87,0.4813,2.2825c0.2956-0.5087,0.6944-0.825,1.1138-1.0794c-0.1375,0.5912-0.3575,1.1481-0.2682,1.8562
			c0.4469-0.7563,0.8937-1.2031,1.3338-1.7256c-0.2613,1.0862-0.0275,1.9044,0.2819,3.1075c0.275-1.43,0.385-1.5813,1.045-2.1794
			c0.0688,1.3062-0.1787,2.4956,0.0963,3.2312c0.605-1.155,1.0037-0.99,1.3612-1.7394c-0.0687,1.0863-0.2819,2.2688-0.0069,3.2312
			c0.1948-0.7593,0.6718-1.4158,1.3337-1.8356c0.0413,1.5125,0.3919,1.265-0.55,2.5437c0.3987,0.1856,1.7462-0.2544,2.475-0.5706
			c-0.3438,0.8112-0.2406,1.4438-0.5981,2.0213c0.7425-0.3712,1.375-0.9762,1.9937-1.595c-0.2888,0.9281-1.045,1.8562-0.6669,2.7844
			c0.1719-0.8663,0.88-1.5813,1.54-1.7119c-0.1031,0.4812-0.1719,1.4919-0.8731,1.98c1.6775,0.1719,2.3375-0.9625,3.19-1.8563
			c-0.11,0.935-0.0825,1.6775,1.0656,2.9906c-0.2337-1.6706,0.165-1.3269,0.9213-2.3306c0.3712,1.4781,0.7906,3.0456,2.3306,4.1387
			c-0.6394-1.5606-0.7563-2.365-0.3987-3.3481c0.1994,1.0175,1.1619,2.2344,1.3887,3.1969c0.1375-1.0656,0.3025-2.0969,0.66-2.7913
			c0.4469,1.21,0.825,2.4544,0.935,3.85c0.33-0.6875,0.605-1.3956,0.7975-2.1175c13.5644,14.1763,16.5894,32.2025,1.7188,51.2462
			c5.3488-3.6094,6.7238-9.3294,9.6938-14.2106c-2.8944,6.3938-4.1869,13.5712-9.2881,18.8581
			c4.9431-4.2625,5.9882-8.1744,8.9582-12.2856c-3.1625,8.5938-7.5487,18.0125-13.6263,26.6406
			c1.0794,1.1687,2.1588,2.365,3.245,3.5612l2.8188-4.7025C359.1018,241.4431,369.6068,226.2769,364.2856,203.1425
			L364.2856,203.1425z"/>
	</g>
	<path class="st30" d="M325.2975,161.7619c-0.6875,0.1581-0.9625,0.44-1.4506,0.99c0.6325,0.1375,1.1688,0.1719,1.7325,0.1856
		c0.1788-0.0206,0.2338-0.2406,0.1994-0.4056l-0.0894-0.6531c-0.0138-0.1512-0.4125-0.1375-0.5981-0.0619L325.2975,161.7619
		L325.2975,161.7619z"/>
	<path class="st31" d="M323.84,162.7519c0.4742-0.1661,0.9653-0.279,1.4644-0.3369
		C324.8303,162.5814,324.3391,162.6944,323.84,162.7519z"/>
	<ellipse class="st32" cx="328.405" cy="161.8512" rx="0.5362" ry="0.5569"/>
	
		<radialGradient id="SVGID_00000119089494875590447960000001916985640294936248_" cx="-234.3989" cy="429.7023" r="0.3438" gradientTransform="matrix(0.68 0 0 -0.7 487.92 462.5329)" gradientUnits="userSpaceOnUse">
		<stop  offset="0" style="stop-color:#FFFFFF"/>
		<stop  offset="1" style="stop-color:#FFFFFF;stop-opacity:0"/>
	</radialGradient>
	
		<ellipse style="fill:url(#SVGID_00000119089494875590447960000001916985640294936248_);" cx="328.5287" cy="161.7412" rx="0.2337" ry="0.2406"/>
	<g>
		<path class="st34" d="M335.6237,281.6619c0.6444-2.0555,1.4041-4.0731,2.2756-6.0431c0.8663-1.9662,1.8288-3.8981,2.8463-5.7956
			c1.5305-2.8433,3.1609-5.6317,4.8881-8.36l1.7256-2.7294l-1.6638,2.7706l-1.65,2.7706c-1.0862,1.8563-2.1588,3.7194-3.1694,5.6169
			c-1.0252,1.8908-1.9837,3.817-2.8737,5.775C337.1144,277.6261,336.3206,279.6268,335.6237,281.6619L335.6237,281.6619z
			 M322.6712,275.1581c6.8494-3.0309,12.965-7.5027,17.93-13.1106c1.6598-1.8543,3.2535-3.7668,4.7781-5.7338
			c-1.4702,2.0114-3.0373,3.9501-4.6956,5.8094c-1.6556,1.8644-3.4333,3.6169-5.3212,5.2456
			C331.5622,270.6084,327.2805,273.2364,322.6712,275.1581L322.6712,275.1581z M348.3012,254.9869
			c1.0296-1.4972,2.0155-3.0241,2.9562-4.5788c0.9419-1.5538,1.8494-3.1281,2.7225-4.7162
			c0.8785-1.5915,1.7379-3.1935,2.5781-4.8056l2.53-4.8331l-1.2031,2.4544l-1.2238,2.4337
			c-0.825,1.6156-1.6775,3.2313-2.5506,4.8194c-0.8869,1.5881-1.7875,3.1625-2.75,4.7094
			C350.4049,252.0181,349.3842,253.5251,348.3012,254.9869L348.3012,254.9869z M352.3506,237.7238
			c2.3459-2.7995,4.3109-5.8973,5.8438-9.2125c1.5162-3.3158,2.6642-6.7878,3.4237-10.3538l0.2819-1.3406
			c0.2263-1.3457,0.3869-2.7017,0.4813-4.0631c0.1169-1.8219,0.1169-3.6437-0.0275-5.4656
			c-0.302-3.6386-1.1454-7.2117-2.5025-10.6013c1.4218,3.3719,2.3012,6.9476,2.6056,10.5944c0.2287,2.736,0.155,5.4889-0.22,8.2087
			c-0.055,0.4538-0.1169,0.8938-0.1925,1.3544l-0.2819,1.3406c-0.7763,3.575-1.9428,7.054-3.4787,10.3744
			C356.7339,231.8708,354.7376,234.9543,352.3506,237.7238L352.3506,237.7238z"/>
		<path class="st34" d="M351.2231,233.7981c1.2626-1.2172,2.3919-2.5654,3.3688-4.0219c0.981-1.4511,1.8542-2.9723,2.6125-4.5512
			c0.7562-1.5812,1.4437-3.1969,2.0763-4.8262c0.3163-0.8112,0.6325-1.6362,0.935-2.4544l0.2269-0.6187l0.2063-0.6187
			c0.1237-0.4125,0.2406-0.8388,0.3987-1.2581v0.0137c0.3438-1.7394,0.5294-3.5063,0.55-5.2731
			c0.0207-1.7737-0.1169-3.5475-0.3919-5.2937c-0.275-1.7531-0.6875-3.4788-1.1894-5.1769c-0.5019-1.705-1.1-3.3756-1.76-5.0187
			c0.6875,1.6362,1.3062,3.3,1.8287,4.9981c0.5214,1.6987,0.9279,3.4305,1.2169,5.1838c0.2888,1.7531,0.4331,3.5269,0.4194,5.3075
			c-0.0128,1.7797-0.1924,3.5544-0.5363,5.3006v0.0137c-0.1512,0.4056-0.275,0.825-0.3988,1.2444l-0.2062,0.6256l-0.2338,0.6187
			c-0.3094,0.825-0.6256,1.6362-0.9488,2.4544c-0.6396,1.6337-1.3437,3.2415-2.1106,4.8194
			c-0.7661,1.5804-1.6485,3.1016-2.64,4.5513C353.6501,231.2622,352.5024,232.5965,351.2231,233.7981L351.2231,233.7981z"/>
		<path class="st34" d="M347.2219,253.8456c0.825-1.1413,1.6431-2.2894,2.4544-3.4375l1.2238-1.7188
			c0.4056-0.5775,0.825-1.1413,1.1894-1.7462c0.7196-1.2071,1.3849-2.4459,1.9937-3.7125c0.6188-1.2719,1.2513-2.53,1.8632-3.795
			c1.2238-2.5369,2.4062-5.0875,3.4168-7.7206c1.0091-2.6261,1.8023-5.33,2.3719-8.085c0.5844-2.75,0.9694-5.5413,1.2925-8.3394
			c0.2956-2.7912,0.33-5.6237,0.0275-8.4219c-0.3001-2.8-0.9277-5.5551-1.87-8.2088c-0.9503-2.6518-2.1232-5.2185-3.5062-7.6725
			c1.4057,2.4451,2.6017,5.0048,3.575,7.6519c0.9548,2.6567,1.594,5.4165,1.9044,8.2225c0.3025,2.805,0.2819,5.6375,0,8.4425
			c-0.3163,2.7981-0.7013,5.5963-1.2787,8.3531c-0.5804,2.7628-1.3851,5.4737-2.4062,8.1056
			c-1.0364,2.6186-2.1833,5.1922-3.4375,7.7137c-0.6188,1.2719-1.2513,2.5231-1.8769,3.7881
			c-0.6124,1.2674-1.2822,2.5062-2.0075,3.7125c-0.3644,0.6119-0.7975,1.1688-1.2031,1.7394l-1.2375,1.7188
			c-0.825,1.1344-1.65,2.2756-2.4888,3.41L347.2219,253.8456z"/>
		<path class="st34" d="M349.1194,255.9219c1.6225-2.64,3.2381-5.28,4.7781-7.9612c1.5469-2.6812,3.0869-5.3763,4.4481-8.1537
			c1.3804-2.7698,2.5302-5.6487,3.4375-8.6075c0.8952-2.9622,1.5188-5.9997,1.8631-9.075c0.4056-3.0662,0.6394-6.16,0.6394-9.2537
			s-0.2544-6.1875-0.825-9.2263c-0.5627-3.0463-1.4811-6.016-2.7362-8.8481c-1.258-2.8316-2.8655-5.4946-4.785-7.9269
			c1.9412,2.4203,3.5718,5.074,4.8538,7.8994c1.2651,2.8331,2.1927,5.8052,2.7638,8.855c0.5683,3.0495,0.8537,6.1449,0.8525,9.2469
			c0.0036,3.8762-0.3114,7.7461-0.9419,11.5706c-0.3671,2.2973-0.8908,4.5667-1.5675,6.7925
			c-0.9164,2.9617-2.0754,5.843-3.465,8.6144c-1.375,2.7844-2.915,5.4725-4.4688,8.1469
			C352.3911,250.6618,350.7752,253.3044,349.1194,255.9219L349.1194,255.9219z M330,165.5294
			c0.3231-0.0069,0.6531,0.0275,0.9763,0.0756c0.9645,0.1794,1.9055,0.4677,2.805,0.8594c1.1962,0.5294,2.3169,1.2169,3.3687,1.9937
			c1.5682,1.1785,2.99,2.5403,4.235,4.0562c0.4125,0.5087,0.825,1.0175,1.21,1.54c-0.8206-1.0092-1.6877-1.9797-2.5988-2.9081
			c-0.913-0.927-1.8943-1.7842-2.9356-2.5644c-1.0349-0.7871-2.1503-1.4623-3.3275-2.0144
			c-0.5912-0.275-1.1963-0.5087-1.8219-0.6875C331.2925,165.6944,330.6532,165.5569,330,165.5294L330,165.5294z"/>
	</g>
	<g>
		<path class="st35" d="M341.2613,172.9544c0,0,2.1037,1.2375,3.2519,3.0525c0,0-3.245-0.605-5.5481-3.1969"/>
		<path class="st34" d="M341.2613,172.9544c0.6571,0.3647,1.2706,0.803,1.8287,1.3062c0.5646,0.5038,1.0635,1.0766,1.485,1.705
			l0.0894,0.1512l-0.165-0.0412c-1.0657-0.2451-2.088-0.6508-3.0319-1.2031c-0.9419-0.5431-1.8081-1.2375-2.5025-2.0625
			c0.7454,0.7841,1.6082,1.4474,2.5575,1.9662c0.4675,0.2613,0.9625,0.495,1.4575,0.6875c0.5019,0.1925,1.0244,0.3575,1.5469,0.4675
			l-0.0825,0.1169c-0.1925-0.3163-0.4125-0.6188-0.66-0.8938c-0.4877-0.5645-1.0313-1.0781-1.6225-1.5331
			C341.8731,173.3875,341.5706,173.1606,341.2613,172.9544L341.2613,172.9544z"/>
		<path class="st35" d="M336.5862,172.3494c0,0,4.9706,3.1694,5.6856,3.4237c0,0-1.1-2.3925-3.4719-3.4169"/>
		<path class="st34" d="M336.5862,172.3494l2.8463,1.7119c0.7078,0.4299,1.4206,0.8516,2.1381,1.265
			c0.2406,0.1375,0.4813,0.275,0.7288,0.3781l-0.0894,0.0963c-0.3799-0.7272-0.8589-1.3981-1.4231-1.9937
			c-0.5764-0.5913-1.2481-1.0817-1.9869-1.4506c0.385,0.1512,0.7563,0.3438,1.1,0.5844c1.0337,0.718,1.8725,1.6819,2.4406,2.805
			l0.0825,0.165l-0.1719-0.0688c-0.5294-0.2269-0.99-0.5225-1.4713-0.8044l-1.4163-0.8731
			C338.4287,173.5731,337.5074,172.975,336.5862,172.3494L336.5862,172.3494z"/>
		<path class="st35" d="M338.5663,170.7475c0,0,2.585,1.1,3.1693,3.0113c0,0-4.6406-1.9525-5.4725-2.9906"/>
		<path class="st34" d="M338.5663,170.7475c0.6971,0.284,1.3464,0.6735,1.925,1.155c0.2956,0.2406,0.5569,0.5156,0.7838,0.825
			c0.2269,0.3025,0.4194,0.6394,0.5294,1.0106l0.0481,0.1513l-0.1443-0.0688c-0.9593-0.4142-1.9062-0.8567-2.8394-1.3269
			c-0.4675-0.2406-0.9281-0.4881-1.375-0.7631c-0.22-0.1375-0.44-0.275-0.6531-0.4331c-0.2062-0.1581-0.4125-0.3231-0.5775-0.5294
			c0.1719,0.1994,0.385,0.3438,0.5981,0.495c0.22,0.1444,0.4469,0.275,0.6738,0.4125c1.3837,0.7308,2.7966,1.4051,4.235,2.0213
			l-0.1031,0.0825c-0.11-0.3438-0.2819-0.6738-0.5019-0.9763c-0.2212-0.2955-0.4723-0.5673-0.7494-0.8112
			c-0.5629-0.4926-1.1868-0.9108-1.8563-1.2444H338.5663z"/>
		<path class="st35" d="M334.6475,172.7344c0,0,4.5719,3.2725,5.9193,3.2725c0,0-1.3406-2.2412-3.7056-3.2656"/>
		<path class="st34" d="M334.6475,172.7344c0.9457,0.6263,1.9038,1.2338,2.8737,1.8219c0.4813,0.2888,0.9763,0.5706,1.485,0.825
			c0.2544,0.1237,0.5087,0.2475,0.77,0.3438c0.2544,0.1031,0.5294,0.2063,0.7906,0.2063l-0.0619,0.11
			c-0.4569-0.6917-0.9922-1.3284-1.595-1.8975c-0.6143-0.5607-1.3038-1.0327-2.0488-1.4025
			c0.7769,0.3094,1.4919,0.7769,2.1244,1.3269c0.6369,0.5514,1.1924,1.1902,1.65,1.8975l0.0687,0.1169h-0.1375
			c-0.2919-0.0226-0.5779-0.0947-0.8456-0.2131c-0.2681-0.11-0.5294-0.2337-0.7769-0.3644c-0.5087-0.2613-1.0038-0.55-1.485-0.8388
			C336.4974,174.0589,335.5594,173.4145,334.6475,172.7344L334.6475,172.7344z"/>
		<path class="st35" d="M334.6475,173.7588c0,0,2.3787,2.0075,3.7331,2.0075c0,0-1.3406-2.2412-3.7125-3.2656"/>
		<path class="st34" d="M334.6475,173.7588c0.5738,0.4274,1.168,0.8266,1.7806,1.1962c0.3025,0.1788,0.6187,0.3438,0.9419,0.4812
			c0.165,0.0688,0.33,0.1375,0.5019,0.1788c0.165,0.0481,0.3369,0.0756,0.5087,0.0825l-0.0688,0.1031
			c-0.2062-0.3438-0.4606-0.6806-0.7287-0.9969c-0.7976-0.9626-1.7884-1.7473-2.9081-2.3031
			c0.7769,0.3094,1.485,0.7769,2.1175,1.3269c0.6375,0.5534,1.1931,1.1946,1.65,1.9044l0.0688,0.1031h-0.1375
			c-0.3712,0-0.7287-0.1237-1.0587-0.2681c-0.33-0.1375-0.6463-0.3163-0.9556-0.5088
			C335.7558,174.6702,335.1834,174.2357,334.6475,173.7588L334.6475,173.7588z"/>
		<path class="st35" d="M333.4581,169.2487c0,0,4.95,3.52,5.5412,5.4312c0,0-4.4825-2.0625-5.3144-3.0938"/>
		<path class="st34" d="M333.4581,169.2487c1.0746,0.7423,2.1074,1.5433,3.0938,2.3994c0.5019,0.4263,0.9763,0.88,1.4162,1.3681
			c0.22,0.2406,0.4331,0.4881,0.6256,0.7563c0.1925,0.275,0.3781,0.55,0.4813,0.88l0.0413,0.165l-0.1513-0.0688
			c-0.9297-0.4415-1.8467-0.9092-2.75-1.4025c-0.4537-0.2544-0.9006-0.5087-1.3337-0.7906c-0.22-0.1375-0.4262-0.2887-0.6325-0.4469
			c-0.2062-0.1581-0.4125-0.3231-0.5638-0.5294c0.1719,0.1994,0.3781,0.3438,0.5844,0.5019
			c0.2062,0.1444,0.4262,0.275,0.6462,0.4125c0.44,0.2681,0.8937,0.5156,1.3475,0.7562c0.9144,0.4744,1.8287,0.935,2.7637,1.3613
			l-0.0963,0.0894c-0.1088-0.3006-0.2617-0.5833-0.4538-0.8388c-0.1856-0.2681-0.3919-0.5156-0.6119-0.7563
			c-0.4331-0.4812-0.9075-0.9281-1.3887-1.375c-0.9747-0.8696-1.9839-1.6998-3.025-2.4887L333.4581,169.2487z"/>
	</g>
	<g>
		<path class="st3" d="M305.9512,268.3519c-3.3619,2.5025-12.7531,3.7331-14.0594,3.3
			C298.7256,265.9662,305.4562,265.8287,305.9512,268.3519z M353.9113,271.4044c3.6094,3.2794,14.5063,5.5344,16.1425,5.1288
			C362.8006,269.1288,354.86,268.3794,353.9113,271.4044z"/>
		<path class="st4" d="M305.9238,268.3312c-0.495-2.5231-7.1913-2.3719-14.0113,3.2863
			C299.0969,269.2456,305.14,267.8981,305.9238,268.3312z M353.9869,271.3631c0.9419-3.025,8.8-2.2963,16.06,5.1287
			C361.8794,273.0406,354.9631,270.9231,353.9869,271.3631z"/>
	</g>
</g>
</svg>
