<?xml version="1.0" encoding="UTF-8"?>
<!DOCTYPE svg PUBLIC "-//W3C//DTD SVG 1.1//EN" "http://www.w3.org/Graphics/SVG/1.1/DTD/svg11.dtd">
<svg xmlns="http://www.w3.org/2000/svg" version="1.1" width="200px" height="133px" style="shape-rendering:geometricPrecision; text-rendering:geometricPrecision; image-rendering:optimizeQuality; fill-rule:evenodd; clip-rule:evenodd" xmlns:xlink="http://www.w3.org/1999/xlink">
<g><path style="opacity:1" fill="#133c9a" d="M -0.5,-0.5 C 66.1667,-0.5 132.833,-0.5 199.5,-0.5C 199.5,14.5 199.5,29.5 199.5,44.5C 132.833,44.5 66.1667,44.5 -0.5,44.5C -0.5,29.5 -0.5,14.5 -0.5,-0.5 Z"/></g>
<g><path style="opacity:1" fill="#fdfdfe" d="M -0.5,44.5 C 66.1667,44.5 132.833,44.5 199.5,44.5C 199.5,59.5 199.5,74.5 199.5,89.5C 196.5,89.5 193.5,89.5 190.5,89.5C 189.833,85.5 189.167,85.5 188.5,89.5C 128.686,90.1575 69.0193,89.4908 9.5,87.5C 6.44389,89.2892 3.11056,89.9559 -0.5,89.5C -0.5,74.5 -0.5,59.5 -0.5,44.5 Z"/></g>
<g><path style="opacity:1" fill="#2747a0" d="M 98.5,59.5 C 100.085,60.4737 101.085,61.9737 101.5,64C 103.167,64.3333 104.833,64.6667 106.5,65C 102.718,66.3929 101.551,68.8929 103,72.5C 100.667,69.8333 98.3333,69.8333 96,72.5C 97.449,68.8929 96.2823,66.3929 92.5,65C 96.8981,65.5922 98.8981,63.7589 98.5,59.5 Z"/></g>
<g><path style="opacity:1" fill="#0d3b99" d="M 199.5,89.5 C 199.5,103.833 199.5,118.167 199.5,132.5C 132.833,132.5 66.1667,132.5 -0.5,132.5C -0.5,118.167 -0.5,103.833 -0.5,89.5C 3.11056,89.9559 6.44389,89.2892 9.5,87.5C 69.0193,89.4908 128.686,90.1575 188.5,89.5C 189.167,85.5 189.833,85.5 190.5,89.5C 193.5,89.5 196.5,89.5 199.5,89.5 Z"/></g>
</svg>
