<?xml version="1.0" encoding="UTF-8"?>
<!DOCTYPE svg PUBLIC "-//W3C//DTD SVG 1.1//EN" "http://www.w3.org/Graphics/SVG/1.1/DTD/svg11.dtd">
<svg xmlns="http://www.w3.org/2000/svg" version="1.1" width="200px" height="133px" style="shape-rendering:geometricPrecision; text-rendering:geometricPrecision; image-rendering:optimizeQuality; fill-rule:evenodd; clip-rule:evenodd" xmlns:xlink="http://www.w3.org/1999/xlink">
<g><path style="opacity:1" fill="#fefefe" d="M 66.5,-0.5 C 88.8333,-0.5 111.167,-0.5 133.5,-0.5C 132.506,43.7612 132.172,88.0945 132.5,132.5C 110.5,132.5 88.5,132.5 66.5,132.5C 66.5,88.1667 66.5,43.8333 66.5,-0.5 Z"/></g>
<g><path style="opacity:1" fill="#016847" d="M -0.5,-0.5 C 21.8333,-0.5 44.1667,-0.5 66.5,-0.5C 66.5,43.8333 66.5,88.1667 66.5,132.5C 44.1667,132.5 21.8333,132.5 -0.5,132.5C -0.5,88.1667 -0.5,43.8333 -0.5,-0.5 Z"/></g>
<g><path style="opacity:1" fill="#ce1728" d="M 133.5,-0.5 C 155.5,-0.5 177.5,-0.5 199.5,-0.5C 199.5,43.8333 199.5,88.1667 199.5,132.5C 177.167,132.5 154.833,132.5 132.5,132.5C 132.172,88.0945 132.506,43.7612 133.5,-0.5 Z"/></g>
<g><path style="opacity:1" fill="#855c3a" d="M 117.5,64.5 C 116.852,62.9142 116.352,61.2475 116,59.5C 113.607,61.994 112.44,61.3273 112.5,57.5C 114.908,54.3421 114.241,51.5088 110.5,49C 108.846,48.3923 107.179,47.8923 105.5,47.5C 103.712,46.3775 101.712,46.2109 99.5,47C 98.6198,48.3561 98.2865,49.8561 98.5,51.5C 97.8485,52.0906 97.1818,52.7573 96.5,53.5C 95.1502,52.0499 93.4835,51.3832 91.5,51.5C 90.8333,51.5 90.5,51.1667 90.5,50.5C 91.6633,47.7625 93.4967,46.7625 96,47.5C 96.3742,46.5838 96.8742,45.7504 97.5,45C 101.812,44.2264 105.978,44.7264 110,46.5C 115.988,51.3488 118.488,57.3488 117.5,64.5 Z"/></g>
<g><path style="opacity:1" fill="#432e21" d="M 105.5,47.5 C 107.179,47.8923 108.846,48.3923 110.5,49C 114.241,51.5088 114.908,54.3421 112.5,57.5C 111.828,56.7326 110.995,56.0659 110,55.5C 109,56.8333 108,56.8333 107,55.5C 105.238,52.8183 104.738,50.1517 105.5,47.5 Z"/></g>
<g><path style="opacity:1" fill="#b48149" d="M 91.5,51.5 C 93.4835,51.3832 95.1502,52.0499 96.5,53.5C 97.1818,52.7573 97.8485,52.0906 98.5,51.5C 99.1667,51.5 99.8333,51.5 100.5,51.5C 99.7101,52.7942 98.7101,53.9609 97.5,55C 99.229,56.7889 99.8957,58.9556 99.5,61.5C 97.64,62.0715 95.9733,62.0715 94.5,61.5C 93.8333,59.8333 93.1667,58.1667 92.5,56.5C 90.5989,55.065 90.2655,53.3983 91.5,51.5 Z"/></g>
<g><path style="opacity:1" fill="#a89f6a" d="M 90.5,50.5 C 90.5,51.1667 90.8333,51.5 91.5,51.5C 90.2655,53.3983 90.5989,55.065 92.5,56.5C 91.8783,57.6266 91.045,58.6266 90,59.5C 89.2599,60.7494 89.4265,61.7494 90.5,62.5C 90.5792,63.9305 90.2458,65.2638 89.5,66.5C 90.2427,67.1818 90.9094,67.8485 91.5,68.5C 90.1667,68.5 88.8333,68.5 87.5,68.5C 86.8333,68.5 86.5,68.1667 86.5,67.5C 85.9524,65.6064 84.9524,63.9397 83.5,62.5C 84.6469,60.4154 83.9803,58.9154 81.5,58C 83.0349,57.5038 84.5349,57.6705 86,58.5C 91.4376,56.9504 91.6042,55.4504 86.5,54C 84.8511,48.8041 86.1844,47.6374 90.5,50.5 Z"/></g>
<g><path style="opacity:1" fill="#5e3e27" d="M 105.5,47.5 C 104.738,50.1517 105.238,52.8183 107,55.5C 108,56.8333 109,56.8333 110,55.5C 110.995,56.0659 111.828,56.7326 112.5,57.5C 111.596,58.209 111.263,59.209 111.5,60.5C 109.901,60.2322 108.568,60.5655 107.5,61.5C 105.354,61.6964 105.188,62.6964 107,64.5C 109.287,66.0544 111.454,67.7211 113.5,69.5C 112.006,70.3986 110.506,70.0653 109,68.5C 108.667,69.1667 108.333,69.8333 108,70.5C 106.212,67.4037 103.712,66.7371 100.5,68.5C 98.7163,69.7199 97.0496,69.7199 95.5,68.5C 96.675,68.719 97.675,68.3857 98.5,67.5C 97.4787,65.812 96.1454,64.4787 94.5,63.5C 94.5,62.8333 94.5,62.1667 94.5,61.5C 95.9733,62.0715 97.64,62.0715 99.5,61.5C 99.8957,58.9556 99.229,56.7889 97.5,55C 98.7101,53.9609 99.7101,52.7942 100.5,51.5C 99.8333,51.5 99.1667,51.5 98.5,51.5C 98.2865,49.8561 98.6198,48.3561 99.5,47C 101.712,46.2109 103.712,46.3775 105.5,47.5 Z"/></g>
<g><path style="opacity:1" fill="#b68249" d="M 100.5,51.5 C 100.665,46.5983 101.665,46.5983 103.5,51.5C 103.523,53.0666 103.023,54.3999 102,55.5C 103.008,53.634 102.508,52.3007 100.5,51.5 Z"/></g>
<g><path style="opacity:1" fill="#ece9e0" d="M 92.5,56.5 C 93.1667,58.1667 93.8333,59.8333 94.5,61.5C 94.5,62.1667 94.5,62.8333 94.5,63.5C 94.5654,63.9382 94.3988,64.2716 94,64.5C 93.2904,63.0267 92.1238,62.3601 90.5,62.5C 89.4265,61.7494 89.2599,60.7494 90,59.5C 91.045,58.6266 91.8783,57.6266 92.5,56.5 Z"/></g>
<g><path style="opacity:1" fill="#53453b" d="M 112.5,57.5 C 112.44,61.3273 113.607,61.994 116,59.5C 116.352,61.2475 116.852,62.9142 117.5,64.5C 117.5,66.1667 117.5,67.8333 117.5,69.5C 116.842,68.6016 116.176,67.6016 115.5,66.5C 114.808,67.0253 114.308,67.6919 114,68.5C 111.704,65.5789 109.537,63.2456 107.5,61.5C 108.568,60.5655 109.901,60.2322 111.5,60.5C 111.263,59.209 111.596,58.209 112.5,57.5 Z"/></g>
<g><path style="opacity:1" fill="#b0863d" d="M 90.5,62.5 C 92.1238,62.3601 93.2904,63.0267 94,64.5C 94.3988,64.2716 94.5654,63.9382 94.5,63.5C 96.1454,64.4787 97.4787,65.812 98.5,67.5C 97.675,68.3857 96.675,68.719 95.5,68.5C 93.857,68.4802 92.5237,69.1468 91.5,70.5C 90.537,70.0302 90.537,69.3635 91.5,68.5C 90.9094,67.8485 90.2427,67.1818 89.5,66.5C 90.2458,65.2638 90.5792,63.9305 90.5,62.5 Z"/></g>
<g><path style="opacity:1" fill="#3a2c23" d="M 113.5,69.5 C 114.043,69.56 114.376,69.8933 114.5,70.5C 111.254,71.3179 108.254,71.6512 105.5,71.5C 104.167,71.5 102.833,71.5 101.5,71.5C 101.443,70.391 101.11,69.391 100.5,68.5C 103.712,66.7371 106.212,67.4037 108,70.5C 108.333,69.8333 108.667,69.1667 109,68.5C 110.506,70.0653 112.006,70.3986 113.5,69.5 Z"/></g>
<g><path style="opacity:1" fill="#eee2e1" d="M 87.5,68.5 C 88.8333,68.5 90.1667,68.5 91.5,68.5C 90.537,69.3635 90.537,70.0302 91.5,70.5C 92.5237,69.1468 93.857,68.4802 95.5,68.5C 97.0496,69.7199 98.7163,69.7199 100.5,68.5C 101.11,69.391 101.443,70.391 101.5,71.5C 100.833,71.5 100.5,71.8333 100.5,72.5C 97.6759,71.2369 94.8426,71.2369 92,72.5C 89.9009,71.7219 88.4009,70.3886 87.5,68.5 Z"/></g>
<g><path style="opacity:1" fill="#a68c3b" d="M 101.5,71.5 C 102.833,71.5 104.167,71.5 105.5,71.5C 106.167,72.1667 106.833,72.8333 107.5,73.5C 105.971,73.681 104.304,74.0143 102.5,74.5C 101.478,74.1445 100.811,73.4778 100.5,72.5C 100.5,71.8333 100.833,71.5 101.5,71.5 Z"/></g>
<g><path style="opacity:1" fill="#d1c3bd" d="M 107.5,61.5 C 109.537,63.2456 111.704,65.5789 114,68.5C 114.308,67.6919 114.808,67.0253 115.5,66.5C 116.176,67.6016 116.842,68.6016 117.5,69.5C 116.649,71.8816 115.316,73.8816 113.5,75.5C 111.703,73.5937 109.703,72.927 107.5,73.5C 106.833,72.8333 106.167,72.1667 105.5,71.5C 108.254,71.6512 111.254,71.3179 114.5,70.5C 114.376,69.8933 114.043,69.56 113.5,69.5C 111.454,67.7211 109.287,66.0544 107,64.5C 105.188,62.6964 105.354,61.6964 107.5,61.5 Z"/></g>
<g><path style="opacity:1" fill="#3a7473" d="M 86.5,67.5 C 86.5,68.1667 86.8333,68.5 87.5,68.5C 88.4009,70.3886 89.9009,71.7219 92,72.5C 94.8426,71.2369 97.6759,71.2369 100.5,72.5C 100.811,73.4778 101.478,74.1445 102.5,74.5C 104.304,74.0143 105.971,73.681 107.5,73.5C 109.703,72.927 111.703,73.5937 113.5,75.5C 113.167,76.1667 112.833,76.8333 112.5,77.5C 109.287,77.19 106.287,77.5233 103.5,78.5C 102.833,78.5 102.5,78.8333 102.5,79.5C 101.053,80.8852 100.053,80.5518 99.5,78.5C 97.8333,77.1667 96.1667,77.1667 94.5,78.5C 93.8999,77.0998 92.8999,76.0998 91.5,75.5C 87.6768,74.855 84.6768,73.0217 82.5,70C 83.4709,68.5187 84.8042,67.6854 86.5,67.5 Z"/></g>
<g><path style="opacity:1" fill="#95975e" d="M 117.5,78.5 C 116.925,76.6575 117.091,74.6575 118,72.5C 120.109,71.9647 120.609,70.9647 119.5,69.5C 119.909,67.0087 121.076,65.0087 123,63.5C 124.352,65.6399 124.852,67.8066 124.5,70C 121.536,70.8403 121.203,71.8403 123.5,73C 121.601,74.8972 120.101,77.0639 119,79.5C 118.617,78.944 118.117,78.6107 117.5,78.5 Z"/></g>
<g><path style="opacity:1" fill="#909256" d="M 96.5,84.5 C 97.3764,84.3691 98.0431,84.7025 98.5,85.5C 97.944,86.6634 97.6107,87.6634 97.5,88.5C 96.2257,86.6715 94.7257,86.3381 93,87.5C 87.0975,86.2551 82.5975,83.0884 79.5,78C 79.8333,77.6667 80.1667,77.3333 80.5,77C 77.2945,76.3753 76.2945,74.7086 77.5,72C 76.5,70.3333 75.5,68.6667 74.5,67C 77.5516,62.1341 78.5516,62.4675 77.5,68C 79.8175,73.2452 83.4841,78.0785 88.5,82.5C 91.0795,83.5488 93.7462,84.2155 96.5,84.5 Z"/></g>
<g><path style="opacity:1" fill="#40accc" d="M 91.5,75.5 C 92.8999,76.0998 93.8999,77.0998 94.5,78.5C 94.5,79.8333 94.5,81.1667 94.5,82.5C 92.2722,81.4073 89.9389,80.4073 87.5,79.5C 88.0079,77.0958 89.1745,76.4291 91,77.5C 91.4643,76.9056 91.631,76.2389 91.5,75.5 Z"/></g>
<g><path style="opacity:1" fill="#dad9c8" d="M 103.5,78.5 C 106.287,77.5233 109.287,77.19 112.5,77.5C 111.909,78.1515 111.243,78.8182 110.5,79.5C 110.957,80.2975 111.624,80.6309 112.5,80.5C 112.607,82.3786 112.107,82.7119 111,81.5C 108.605,83.0145 106.105,84.3478 103.5,85.5C 102.5,85.5 101.5,85.5 100.5,85.5C 100.5,85.1667 100.5,84.8333 100.5,84.5C 101.791,84.7373 102.791,84.404 103.5,83.5C 104.167,83.5 104.5,83.1667 104.5,82.5C 105.833,82.5 107.167,82.5 108.5,82.5C 108.87,78.8141 107.537,77.8141 104.5,79.5C 104.5,78.8333 104.167,78.5 103.5,78.5 Z"/></g>
<g><path style="opacity:1" fill="#929459" d="M 117.5,78.5 C 117.785,82.0379 116.118,83.8712 112.5,84C 113.34,85.6665 112.84,85.8331 111,84.5C 109.09,87.4357 106.59,88.1023 103.5,86.5C 103.5,86.1667 103.5,85.8333 103.5,85.5C 106.105,84.3478 108.605,83.0145 111,81.5C 112.107,82.7119 112.607,82.3786 112.5,80.5C 113.469,79.6906 114.302,78.6906 115,77.5C 115.671,78.2524 116.504,78.5858 117.5,78.5 Z"/></g>
<g><path style="opacity:1" fill="#4ca6c8" d="M 104.5,82.5 C 104.5,81.5 104.5,80.5 104.5,79.5C 107.537,77.8141 108.87,78.8141 108.5,82.5C 107.167,82.5 105.833,82.5 104.5,82.5 Z"/></g>
<g><path style="opacity:1" fill="#a75c3c" d="M 99.5,78.5 C 98.1667,78.5 96.8333,78.5 95.5,78.5C 95.1547,81.488 96.488,82.8213 99.5,82.5C 100.5,82.3333 101.5,82.1667 102.5,82C 103.774,81.0228 103.774,80.1894 102.5,79.5C 102.5,78.8333 102.833,78.5 103.5,78.5C 104.167,78.5 104.5,78.8333 104.5,79.5C 104.5,80.5 104.5,81.5 104.5,82.5C 104.5,83.1667 104.167,83.5 103.5,83.5C 101.167,83.5 98.8333,83.5 96.5,83.5C 95.5084,83.6716 94.8417,83.3382 94.5,82.5C 94.5,81.1667 94.5,79.8333 94.5,78.5C 96.1667,77.1667 97.8333,77.1667 99.5,78.5 Z"/></g>
<g><path style="opacity:1" fill="#dd8843" d="M 99.5,78.5 C 100.053,80.5518 101.053,80.8852 102.5,79.5C 103.774,80.1894 103.774,81.0228 102.5,82C 101.5,82.1667 100.5,82.3333 99.5,82.5C 96.488,82.8213 95.1547,81.488 95.5,78.5C 96.8333,78.5 98.1667,78.5 99.5,78.5 Z"/></g>
<g><path style="opacity:1" fill="#d9585c" d="M 100.5,84.5 C 100.5,84.8333 100.5,85.1667 100.5,85.5C 100.181,87.9882 100.181,87.6549 100.5,84.5 Z"/></g>
<g><path style="opacity:1" fill="#989688" d="M 96.5,84.5 C 96.5,84.1667 96.5,83.8333 96.5,83.5C 98.8333,83.5 101.167,83.5 103.5,83.5C 102.791,84.404 101.791,84.7373 100.5,84.5C 100.181,87.6549 100.181,87.9882 100.5,85.5C 101.5,85.5 102.5,85.5 103.5,85.5C 103.5,85.8333 103.5,86.1667 103.5,86.5C 103.586,87.4959 103.252,88.3292 102.5,89C 100.613,89.7796 98.9464,89.6129 97.5,88.5C 97.6107,87.6634 97.944,86.6634 98.5,85.5C 98.0431,84.7025 97.3764,84.3691 96.5,84.5 Z"/></g>
</svg>
