<?xml version="1.0" encoding="utf-8"?>
<!-- Generator: Adobe Illustrator 27.7.0, SVG Export Plug-In . SVG Version: 6.00 Build 0)  -->
<!DOCTYPE svg PUBLIC "-//W3C//DTD SVG 1.1//EN" "http://www.w3.org/Graphics/SVG/1.1/DTD/svg11.dtd" [
	<!ENTITY ns_extend "http://ns.adobe.com/Extensibility/1.0/">
	<!ENTITY ns_ai "http://ns.adobe.com/AdobeIllustrator/10.0/">
	<!ENTITY ns_graphs "http://ns.adobe.com/Graphs/1.0/">
	<!ENTITY ns_vars "http://ns.adobe.com/Variables/1.0/">
	<!ENTITY ns_imrep "http://ns.adobe.com/ImageReplacement/1.0/">
	<!ENTITY ns_sfw "http://ns.adobe.com/SaveForWeb/1.0/">
	<!ENTITY ns_custom "http://ns.adobe.com/GenericCustomNamespace/1.0/">
	<!ENTITY ns_adobe_xpath "http://ns.adobe.com/XPath/1.0/">
]>
<svg version="1.1" id="Layer_1" xmlns:x="&ns_extend;" xmlns:i="&ns_ai;" xmlns:graph="&ns_graphs;"
	 xmlns="http://www.w3.org/2000/svg" xmlns:xlink="http://www.w3.org/1999/xlink" x="0px" y="0px" width="660px" height="440px"
	 viewBox="0 0 660 440" style="enable-background:new 0 0 660 440;" xml:space="preserve">
<style type="text/css">
	.st0{fill:#B22234;}
	.st1{fill:#FFFFFF;}
	.st2{fill:#3C3B6E;}
</style>
<metadata>
	<sfw  xmlns="&ns_sfw;">
		<slices></slices>
		<sliceSourceBounds  bottomLeftOrigin="true" height="440" width="660" x="-325.5" y="-217"></sliceSourceBounds>
	</sfw>
</metadata>
<g>
	<g>
		<path class="st0" d="M0,0h660v440H0V0z"/>
	</g>
	<g>
		<path d="M0,50.7692h660 M660,118.4615H0 M0,186.1538h660 M660,253.8462H0 M0,321.5385h660 M660,389.2308H0"/>
		<path class="st1" d="M660,406.1539H0v-33.8462h660V406.1539z M660,338.4615H0v-33.8461h660V338.4615z M660,270.7693H0v-33.8462
			h660V270.7693z M660,203.077H0v-33.8462h660V203.077z M660,135.3846H0v-33.8462h660V135.3846z M660,67.6923H0V33.8462h660V67.6923
			z"/>
	</g>
	<g>
		<path class="st2" d="M0,0h334.4v236.9231H0V0z"/>
	</g>
	<g>
		<g id="d">
			<g id="c">
				<g id="e">
					<g id="b">
						<g id="a">
							<path class="st1" d="M27.8667,10.1538l7.9577,24.4913L14.9909,19.5087h25.7516L19.909,34.6451L27.8667,10.1538z"/>
						</g>
						<g>
							<g id="a_00000028327582658520875600000017243009813365950885_">
								<path class="st1" d="M27.8667,57.5385l7.9577,24.4913L14.9909,66.8933h25.7516L19.909,82.0298L27.8667,57.5385z"/>
							</g>
						</g>
						<g>
							<g id="a_00000096748206060555641700000005943576663346230668_">
								<path class="st1" d="M27.8667,104.9231l7.9577,24.4913l-20.8334-15.1365h25.7516L19.909,129.4144L27.8667,104.9231z"/>
							</g>
						</g>
						<g>
							<g id="a_00000143607579188147265890000003496702178678757262_">
								<path class="st1" d="M27.8667,152.3077l7.9577,24.4913l-20.8334-15.1365h25.7516L19.909,176.799L27.8667,152.3077z"/>
							</g>
						</g>
					</g>
					<g>
						<g id="a_00000088838929773363338400000008861086626627370146_">
							<path class="st1" d="M27.8667,199.6923l7.9577,24.4913l-20.8334-15.1364h25.7516L19.909,224.1836L27.8667,199.6923z"/>
						</g>
					</g>
				</g>
				<g>
					<g id="b_00000002370019528588010870000015513207118660328356_">
						<g id="a_00000033350276907499447260000011901001202689798580_">
							<path class="st1" d="M55.7333,33.8462l7.9577,24.4913L42.8576,43.201h25.7516L47.7757,58.3375L55.7333,33.8462z"/>
						</g>
						<g>
							<g id="a_00000008133907112891093430000008253314965003258496_">
								<path class="st1" d="M55.7333,81.2308l7.9577,24.4913L42.8576,90.5856h25.7516l-20.8335,15.1365L55.7333,81.2308z"/>
							</g>
						</g>
						<g>
							<g id="a_00000016061456340156569940000002293407696626323110_">
								<path class="st1" d="M55.7333,128.6154l7.9577,24.4913l-20.8334-15.1365h25.7516l-20.8335,15.1365L55.7333,128.6154z"/>
							</g>
						</g>
						<g>
							<g id="a_00000015355611013402669990000016195771055546386816_">
								<path class="st1" d="M55.7333,176l7.9577,24.4913l-20.8334-15.1364h25.7516l-20.8335,15.1364L55.7333,176z"/>
							</g>
						</g>
					</g>
				</g>
			</g>
			<g>
				<g id="c_00000025413724875383560600000011442583690434267020_">
					<g id="e_00000047764711403833403180000003541277442506703537_">
						<g id="b_00000049202781099113756890000012446885953100891541_">
							<g id="a_00000096044387417957108010000010418546172253244299_">
								<path class="st1" d="M83.6,10.1538l7.9577,24.4913L70.7242,19.5087h25.7516L75.6423,34.6451L83.6,10.1538z"/>
							</g>
							<g>
								<g id="a_00000101788949974222144020000007681124807075519126_">
									<path class="st1" d="M83.6,57.5385l7.9577,24.4913L70.7242,66.8933h25.7516L75.6423,82.0298L83.6,57.5385z"/>
								</g>
							</g>
							<g>
								<g id="a_00000171714457620582563400000005540941691176504998_">
									<path class="st1" d="M83.6,104.9231l7.9577,24.4913l-20.8334-15.1365h25.7516l-20.8335,15.1365L83.6,104.9231z"/>
								</g>
							</g>
							<g>
								<g id="a_00000083055602308775765740000006297954008763309232_">
									<path class="st1" d="M83.6,152.3077l7.9577,24.4913l-20.8334-15.1365h25.7516L75.6423,176.799L83.6,152.3077z"/>
								</g>
							</g>
						</g>
						<g>
							<g id="a_00000088826676977140859490000004370941816485771711_">
								<path class="st1" d="M83.6,199.6923l7.9577,24.4913l-20.8334-15.1364h25.7516l-20.8335,15.1364L83.6,199.6923z"/>
							</g>
						</g>
					</g>
					<g>
						<g id="b_00000091711543185456921760000007615644517598983040_">
							<g id="a_00000139259319873786443370000015352499301681980577_">
								<path class="st1" d="M111.4667,33.8462l7.9577,24.4913L98.5909,43.201h25.7516L103.509,58.3375L111.4667,33.8462z"/>
							</g>
							<g>
								<g id="a_00000083793029987497070440000015262353502256196027_">
									<path class="st1" d="M111.4667,81.2308l7.9577,24.4913L98.5909,90.5856h25.7516l-20.8335,15.1365L111.4667,81.2308z"/>
								</g>
							</g>
							<g>
								<g id="a_00000124144202137085640030000011639762529234287022_">
									<path class="st1" d="M111.4667,128.6154l7.9577,24.4913l-20.8334-15.1365h25.7516l-20.8335,15.1365L111.4667,128.6154z"/>
								</g>
							</g>
							<g>
								<g id="a_00000000924292613161475790000009795841137219014325_">
									<path class="st1" d="M111.4667,176l7.9577,24.4913l-20.8334-15.1364h25.7516l-20.8335,15.1364L111.4667,176z"/>
								</g>
							</g>
						</g>
					</g>
				</g>
			</g>
		</g>
		<g>
			<g id="d_00000082336246688941174080000015241018618368515999_">
				<g id="c_00000183235427668872039560000000168554499843747514_">
					<g id="e_00000160153297205867595290000003413013244362735269_">
						<g id="b_00000107564234529425838860000017720991229992964284_">
							<g id="a_00000119108816285907936110000017004558473078101133_">
								<path class="st1" d="M139.3333,10.1538l7.9577,24.4913l-20.8334-15.1365h25.7516l-20.8335,15.1365L139.3333,10.1538z"/>
							</g>
							<g>
								<g id="a_00000026144686367261923490000008398949067180978345_">
									<path class="st1" d="M139.3333,57.5385l7.9577,24.4913l-20.8334-15.1365h25.7516l-20.8335,15.1365L139.3333,57.5385z"/>
								</g>
							</g>
							<g>
								<g id="a_00000170263476049474947060000013329927556460575157_">
									<path class="st1" d="M139.3333,104.9231l7.9577,24.4913l-20.8334-15.1365h25.7516l-20.8335,15.1365L139.3333,104.9231z"/>
								</g>
							</g>
							<g>
								<g id="a_00000023985764654692902210000005856803353718809517_">
									<path class="st1" d="M139.3333,152.3077l7.9577,24.4913l-20.8334-15.1365h25.7516l-20.8335,15.1365L139.3333,152.3077z"/>
								</g>
							</g>
						</g>
						<g>
							<g id="a_00000176040734015283295970000000394593086629829261_">
								<path class="st1" d="M139.3333,199.6923l7.9577,24.4913l-20.8334-15.1364h25.7516l-20.8335,15.1364L139.3333,199.6923z"/>
							</g>
						</g>
					</g>
					<g>
						<g id="b_00000181794931585609472830000017338305173713825969_">
							<g id="a_00000118366503178405496350000017844850709303625900_">
								<path class="st1" d="M167.2,33.8462l7.9577,24.4913L154.3242,43.201h25.7516l-20.8335,15.1365L167.2,33.8462z"/>
							</g>
							<g>
								<g id="a_00000002377347543301256580000002146186771438103425_">
									<path class="st1" d="M167.2,81.2308l7.9577,24.4913l-20.8334-15.1365h25.7516l-20.8335,15.1365L167.2,81.2308z"/>
								</g>
							</g>
							<g>
								<g id="a_00000101782453147081113160000004882653511448042676_">
									<path class="st1" d="M167.2,128.6154l7.9577,24.4913l-20.8334-15.1365h25.7516l-20.8335,15.1365L167.2,128.6154z"/>
								</g>
							</g>
							<g>
								<g id="a_00000092448083767777415220000014270804110875647384_">
									<path class="st1" d="M167.2,176l7.9577,24.4913l-20.8334-15.1364h25.7516l-20.8335,15.1364L167.2,176z"/>
								</g>
							</g>
						</g>
					</g>
				</g>
				<g>
					<g id="c_00000069393546713630499490000001962439153347516565_">
						<g id="e_00000116931155247780327470000006395484753042266794_">
							<g id="b_00000046301268683674059160000011538299081942258565_">
								<g id="a_00000094618934937271436690000017497995617956544128_">
									<path class="st1" d="M195.0667,10.1538l7.9577,24.4913l-20.8334-15.1365h25.7516L187.109,34.6451L195.0667,10.1538z"/>
								</g>
								<g>
									<g id="a_00000083071601091567265400000017586569971902874809_">
										<path class="st1" d="M195.0667,57.5385l7.9577,24.4913l-20.8334-15.1365h25.7516L187.109,82.0298L195.0667,57.5385z"/>
									</g>
								</g>
								<g>
									<g id="a_00000014598358359548334160000004082492843591587214_">
										<path class="st1" d="M195.0667,104.9231l7.9577,24.4913l-20.8334-15.1365h25.7516l-20.8336,15.1365L195.0667,104.9231z"/>
									</g>
								</g>
								<g>
									<g id="a_00000007420770010599930260000001354765717192498566_">
										<path class="st1" d="M195.0667,152.3077l7.9577,24.4913l-20.8334-15.1365h25.7516L187.109,176.799L195.0667,152.3077z"/>
									</g>
								</g>
							</g>
							<g>
								<g id="a_00000078023449591955214260000009791988308390861978_">
									<path class="st1" d="M195.0667,199.6923l7.9577,24.4913l-20.8334-15.1364h25.7516l-20.8336,15.1364L195.0667,199.6923z"/>
								</g>
							</g>
						</g>
						<g>
							<g id="b_00000040536800731099139370000007242471798629440917_">
								<g id="a_00000126301329743760835040000006695389500849912248_">
									<path class="st1" d="M222.9333,33.8462l7.9577,24.4913L210.0576,43.201h25.7516l-20.8336,15.1365L222.9333,33.8462z"/>
								</g>
								<g>
									<g id="a_00000114766775934423778130000011602831461136475011_">
										<path class="st1" d="M222.9333,81.2308l7.9577,24.4913l-20.8335-15.1365h25.7516l-20.8336,15.1365L222.9333,81.2308z"/>
									</g>
								</g>
								<g>
									<g id="a_00000081614983045833887450000003045817213919022471_">
										<path class="st1" d="M222.9333,128.6154l7.9577,24.4913l-20.8335-15.1365h25.7516l-20.8336,15.1365L222.9333,128.6154z"/>
									</g>
								</g>
								<g>
									<g id="a_00000075152986006297714260000013224870613523888518_">
										<path class="st1" d="M222.9333,176l7.9577,24.4913l-20.8335-15.1364h25.7516l-20.8336,15.1364L222.9333,176z"/>
									</g>
								</g>
							</g>
						</g>
					</g>
				</g>
			</g>
		</g>
		<g>
			<g id="c_00000047776755919274324490000017839024576571915690_">
				<g id="e_00000054260361938980646300000004569049470024072857_">
					<g id="b_00000060014596470185822230000015747071022627849097_">
						<g id="a_00000080197213642308538180000006558666087459518143_">
							<path class="st1" d="M250.8,10.1538l7.9577,24.4913l-20.8335-15.1365h25.7516l-20.8336,15.1365L250.8,10.1538z"/>
						</g>
						<g>
							<g id="a_00000009586578166576813940000009241475058924410525_">
								<path class="st1" d="M250.8,57.5385l7.9577,24.4913l-20.8335-15.1365h25.7516l-20.8336,15.1365L250.8,57.5385z"/>
							</g>
						</g>
						<g>
							<g id="a_00000173881867530968409060000011494636168574274433_">
								<path class="st1" d="M250.8,104.9231l7.9577,24.4913l-20.8335-15.1365h25.7516l-20.8336,15.1365L250.8,104.9231z"/>
							</g>
						</g>
						<g>
							<g id="a_00000127006737018522969970000008406127446879188105_">
								<path class="st1" d="M250.8,152.3077l7.9577,24.4913l-20.8335-15.1365h25.7516l-20.8336,15.1365L250.8,152.3077z"/>
							</g>
						</g>
					</g>
					<g>
						<g id="a_00000137814914843509262410000007123200691390410157_">
							<path class="st1" d="M250.8,199.6923l7.9577,24.4913l-20.8335-15.1364h25.7516l-20.8336,15.1364L250.8,199.6923z"/>
						</g>
					</g>
				</g>
				<g>
					<g id="b_00000053516923001949053560000011103135706249951673_">
						<g id="a_00000176735542258091600650000016217494758862184110_">
							<path class="st1" d="M278.6667,33.8462l7.9577,24.4913L265.7909,43.201h25.7516L270.709,58.3375L278.6667,33.8462z"/>
						</g>
						<g>
							<g id="a_00000056407864149220525250000013683657338382586559_">
								<path class="st1" d="M278.6667,81.2308l7.9577,24.4913l-20.8334-15.1365h25.7516l-20.8336,15.1365L278.6667,81.2308z"/>
							</g>
						</g>
						<g>
							<g id="a_00000144296028050474934440000001591062568671433372_">
								<path class="st1" d="M278.6667,128.6154l7.9577,24.4913l-20.8334-15.1365h25.7516l-20.8336,15.1365L278.6667,128.6154z"/>
							</g>
						</g>
						<g>
							<g id="a_00000163070889534075603530000017585849944167818431_">
								<path class="st1" d="M278.6667,176l7.9577,24.4913l-20.8334-15.1364h25.7516l-20.8336,15.1364L278.6667,176z"/>
							</g>
						</g>
					</g>
				</g>
			</g>
		</g>
		<g>
			<g id="e_00000157300442464705445270000002640199113070279050_">
				<g id="b_00000026883732535834344330000015400651509138558875_">
					<g id="a_00000098201035685727175560000018293120142662750383_">
						<path class="st1" d="M306.5333,10.1538l7.9577,24.4913l-20.8334-15.1365h25.7516l-20.8336,15.1365L306.5333,10.1538z"/>
					</g>
					<g>
						<g id="a_00000105407900722742146250000002793359715321496448_">
							<path class="st1" d="M306.5333,57.5385l7.9577,24.4913l-20.8334-15.1365h25.7516l-20.8336,15.1365L306.5333,57.5385z"/>
						</g>
					</g>
					<g>
						<g id="a_00000028300732889719018660000005988240247622158763_">
							<path class="st1" d="M306.5333,104.9231l7.9577,24.4913l-20.8334-15.1365h25.7516l-20.8336,15.1365L306.5333,104.9231z"/>
						</g>
					</g>
					<g>
						<g id="a_00000009564559587011657280000009091994304253824170_">
							<path class="st1" d="M306.5333,152.3077l7.9577,24.4913l-20.8334-15.1365h25.7516l-20.8336,15.1365L306.5333,152.3077z"/>
						</g>
					</g>
				</g>
				<g>
					<g id="a_00000095316346993203827770000015191746754252423316_">
						<path class="st1" d="M306.5333,199.6923l7.9577,24.4913l-20.8334-15.1364h25.7516l-20.8336,15.1364L306.5333,199.6923z"/>
					</g>
				</g>
			</g>
		</g>
	</g>
</g>
</svg>
