<?xml version="1.0" encoding="utf-8"?>
<!-- Generator: Adobe Illustrator 27.7.0, SVG Export Plug-In . SVG Version: 6.00 Build 0)  -->
<!DOCTYPE svg PUBLIC "-//W3C//DTD SVG 1.1//EN" "http://www.w3.org/Graphics/SVG/1.1/DTD/svg11.dtd" [
	<!ENTITY ns_extend "http://ns.adobe.com/Extensibility/1.0/">
	<!ENTITY ns_ai "http://ns.adobe.com/AdobeIllustrator/10.0/">
	<!ENTITY ns_graphs "http://ns.adobe.com/Graphs/1.0/">
	<!ENTITY ns_vars "http://ns.adobe.com/Variables/1.0/">
	<!ENTITY ns_imrep "http://ns.adobe.com/ImageReplacement/1.0/">
	<!ENTITY ns_sfw "http://ns.adobe.com/SaveForWeb/1.0/">
	<!ENTITY ns_custom "http://ns.adobe.com/GenericCustomNamespace/1.0/">
	<!ENTITY ns_adobe_xpath "http://ns.adobe.com/XPath/1.0/">
]>
<svg version="1.1" id="Layer_1" xmlns:x="&ns_extend;" xmlns:i="&ns_ai;" xmlns:graph="&ns_graphs;"
	 xmlns="http://www.w3.org/2000/svg" xmlns:xlink="http://www.w3.org/1999/xlink" x="0px" y="0px" width="660px" height="440px"
	 viewBox="0 0 660 440" style="enable-background:new 0 0 660 440;" xml:space="preserve">
<style type="text/css">
	.st0{fill:#FFFFFF;}
	.st1{fill:#0038A8;}
	.st2{fill:#FCD116;}
	.st3{fill:#7B3F00;}
</style>
<metadata>
	<sfw  xmlns="&ns_sfw;">
		<slices></slices>
		<sliceSourceBounds  bottomLeftOrigin="true" height="440" width="660" x="-0.5" y="-0.3898"></sliceSourceBounds>
	</sfw>
</metadata>
<g>
	<g>
		<path class="st0" d="M-0.5,0.3898h660v440h-660V0.3898z"/>
	</g>
	<g>
		<path class="st1" d="M243.9444,49.2787H659.5v48.8889H243.9444V49.2787z M243.9444,147.0565H659.5v48.8889H243.9444V147.0565z
			 M-0.5,244.8343h660v48.8889h-660V244.8343z M-0.5,342.6121h660v48.8889h-660V342.6121z"/>
	</g>
	<g transform="translate(234.285 -392.52) scale(3.77953)">
		<g>
			<g>
				<g>
					<path class="st2" d="M-31.247,142.6192l2.1413,3.1973c-8.7979,6.366-3.4264,10.1312-9.6611,12.1691
						c3.8776-3.784-0.5126-4.3679,2.7545-12.255"/>
					<path class="st3" d="M-39.5721,158.4733l0.6562-0.6404c1.8726-1.8274,1.7476-2.8084,1.5405-4.4337
						c-0.2029-1.5929-0.4809-3.7744,1.166-7.7504l0.0817-0.1971l0.3943,0.1633l-0.0817,0.1972
						c-1.6036,3.8712-1.3339,5.9877-1.137,7.5331c0.1835,1.4403,0.3222,2.5287-1.0302,4.1175
						c2.0594-0.8957,2.374-2.086,2.7917-3.6663c0.5232-1.9801,1.2376-4.6832,5.7936-8.0317l-2.146-3.2043l0.3546-0.2375
						l2.3745,3.5456l-0.1667,0.1206c-4.5815,3.3152-5.2557,5.8664-5.7975,7.9162c-0.4849,1.835-0.8679,3.2844-3.9224,4.2829
						L-39.5721,158.4733z"/>
				</g>
				<g>
					<g>
						<path class="st2" d="M-35.2894,139.7312l-0.7473,3.7749c-10.722-1.7188-9.5864,4.7408-15.4356,1.774
							c5.4176,0.0656,2.8481-3.499,10.7353-6.7662"/>
						<path class="st3" d="M-48.7435,146.2834c-0.7703,0.0001-1.6702-0.2272-2.8253-0.813l-0.8177-0.4148l0.9168,0.0111
							c2.6164,0.0318,3.2889-0.8089,4.295-2.0818c1.0091-1.2769,2.3912-3.0257,6.3561-4.6682l0.1972-0.0817l0.1633,0.3943
							l-0.1971,0.0816c-3.8622,1.5999-5.15,3.2292-6.1846,4.5384c-0.9211,1.1655-1.617,2.046-3.7086,2.2153
							c2.0897,0.8231,3.1537,0.2038,4.5667-0.6182c1.7701-1.03,4.1864-2.4362,9.7756-1.5829l0.7489-3.7832l0.4187,0.0828
							l-0.8287,4.1862l-0.2031-0.0326c-5.5837-0.8951-7.8643,0.4321-9.6969,1.4984
							C-46.7464,145.7851-47.6027,146.2834-48.7435,146.2834z"/>
					</g>
					<g>
						<path class="st3" d="M-35.2894,139.7319l-1.6895-0.3045l0.0175,0.0699c-4.5069,1.1049-6.9541,2.9731-8.8705,4.393
							c-0.9589,0.7103-1.7865,1.3137-2.6833,1.6413c-0.5944,0.2201-1.2324,0.2966-1.862,0.2235
							c4.6528,1.6531,4.3448-3.8497,14.3412-2.2475L-35.2894,139.7319z"/>
						<path class="st3" d="M-48.7444,146.1661c-0.4898,0-1.0328-0.0949-1.6653-0.3196l-0.8072-0.2868l0.8509,0.0989
							c0.6114,0.0713,1.2397-0.0044,1.817-0.2181c0.9094-0.3321,1.7594-0.9617,2.6593-1.6283l0.1353-0.1003
							c1.9239-1.4267,4.3146-3.1996,8.6751-4.2856l-0.0304-0.1211l1.9346,0.3486l-0.7839,3.9644l-0.0924-0.0149
							c-5.6242-0.9017-7.9253,0.4358-9.7746,1.5103C-46.8028,145.6812-47.6374,146.1661-48.7444,146.1661z M-49.6396,145.8695
							c1.5367,0.343,2.4761-0.2031,3.7162-0.9237c1.8657-1.0839,4.185-2.4318,9.8103-1.5488l0.7093-3.587l-1.4443-0.2604
							l0.0047,0.0187l-0.0948,0.0233c-4.3824,1.0744-6.7766,2.8498-8.7004,4.2764l-0.1355,0.1004
							c-0.9115,0.6751-1.7725,1.3128-2.7078,1.6544C-48.853,145.7601-49.2444,145.843-49.6396,145.8695z"/>
					</g>
					<g>
						<path class="st3" d="M-49.9153,145.7848c-0.499,0-1.0338-0.0938-1.6282-0.3042l0.1424-0.4022
							c2.1991,0.778,3.4907-0.1793,5.4455-1.6288c1.8606-1.3797,4.4088-3.2693,8.8925-4.367l0.1014,0.4145
							c-4.4001,1.0772-6.8063,2.8615-8.7397,4.2953C-47.2017,144.9048-48.3885,145.7848-49.9153,145.7848z"/>
					</g>
				</g>
				<g>
					<path class="st2" d="M-29.7824,136.295l-3.0185-3.0179l-13.5827,19.6184l19.6198-13.582L-29.7824,136.295l-16.6013,16.6013"/>
					<path class="st3" d="M-47.2271,153.739l14.3963-20.7934l6.3987,6.3978L-47.2271,153.739z M-29.7824,136.5968l-14.7754,14.7754
						l17.4622-12.0885L-29.7824,136.5968z M-32.771,133.6088l-12.0915,17.4646l14.7784-14.7784L-32.771,133.6088z"/>
				</g>
				<g>
					<g>
						<path class="st2" d="M-36.1065,134.8312l-3.1966,2.1406c-6.3667-8.7972-10.1319-3.4264-12.1691-9.6611
							c3.784,3.8776,4.4035-0.505,12.2914,2.7622"/>
						<path class="st3" d="M-39.3554,137.2636l-0.1206-0.1667c-3.3154-4.5811-5.8666-5.2554-7.9166-5.7972
							c-1.835-0.485-3.2843-0.8681-4.2825-3.9228l-0.2847-0.8713l0.6402,0.6561c1.8285,1.8737,2.817,1.7493,4.4542,1.544
							c1.6002-0.2009,3.7917-0.4761,7.7661,1.1701l0.1972,0.0816l-0.1633,0.3943l-0.1972-0.0817
							c-3.87-1.6029-5.9102-1.3468-7.5496-1.141c-1.4503,0.1823-2.5463,0.3196-4.1375-1.0342
							c0.8955,2.0602,2.0857,2.3746,3.6663,2.7924c1.9801,0.5233,4.6832,1.2378,8.032,5.7933l3.2036-2.1454l0.2375,0.3546
							L-39.3554,137.2636z"/>
					</g>
					<g>
						<path class="st3" d="M-36.1065,134.8319l-0.9792-1.4101l-0.037,0.0615c-3.9684-2.406-7.0197-2.8146-9.3797-3.1666
							c-1.1796-0.176-2.1909-0.3338-3.057-0.7368c-0.576-0.2645-1.0814-0.6612-1.475-1.158
							c2.1218,4.4587,5.7947,0.3492,11.7305,8.5514L-36.1065,134.8319z"/>
						<path class="st3" d="M-39.3276,137.1059l-0.0549-0.0758c-3.3395-4.6147-5.9125-5.2964-7.9799-5.8441
							c-1.5753-0.4173-2.8195-0.747-3.7596-2.7225l-0.3675-0.7724l0.5313,0.6704c0.3823,0.4824,0.8801,0.8731,1.4395,1.13
							c0.8756,0.4074,1.9224,0.5637,3.0308,0.729l0.1727,0.0257c2.3683,0.3521,5.3116,0.7896,9.1596,3.1036l0.0643-0.1066
							l1.1209,1.6142L-39.3276,137.1059z M-50.5941,129.0237c0.8445,1.329,1.8948,1.6073,3.2813,1.9747
							c2.0858,0.5526,4.679,1.2397,8.0325,5.8422l3.0376-2.0344l-0.8374-1.206l-0.0099,0.0165l-0.0832-0.0504
							c-3.8555-2.3376-6.8026-2.7758-9.1707-3.1279l-0.1729-0.0257c-1.1226-0.1676-2.183-0.3257-3.0836-0.7447
							C-49.9601,129.5026-50.2957,129.2844-50.5941,129.0237z"/>
					</g>
					<g>
						<path class="st3" d="M-37.1231,133.4827c-3.8731-2.3499-6.8362-2.7896-9.2171-3.1429
							c-2.451-0.3637-4.2219-0.6264-5.3246-2.9372l0.3851-0.1837c1.0049,2.1057,2.5951,2.3416,5.0022,2.6988
							c2.2912,0.34,5.4291,0.8056,9.3758,3.2001L-37.1231,133.4827z"/>
					</g>
					<g>
						<path class="st2" d="M-29.7824,136.295v-4.2687l-23.4771,4.2687l23.4771,4.2687V136.295h-23.4771"/>
						<path class="st3" d="M-29.569,140.8194l-24.8833-4.5243l24.8833-4.5243V140.8194z M-50.8934,136.5084l20.8976,3.7997v-3.7997
							H-50.8934z M-50.8934,136.0816h20.8976v-3.7997L-50.8934,136.0816z"/>
					</g>
					<g>
						<path class="st3" d="M-29.7824,136.295v4.2687V136.295h-23.4771l23.4771,4.2687"/>
					</g>
					<g>
						<path class="st2" d="M-33.2186,130.7881l-3.7742-0.7466c1.7181-10.7227-4.7415-9.5871-1.774-15.4363
							c-0.0663,5.4176,3.682,3.2818,6.9492,11.169"/>
						<path class="st3" d="M-33.0507,131.0388l-4.1854-0.828l0.0326-0.2031c0.8947-5.5839-0.4325-7.8647-1.4989-9.6973
							c-0.9546-1.6404-1.7086-2.9361-0.2547-5.8018l0.4149-0.8177l-0.0112,0.9168c-0.0325,2.652,0.8612,3.4062,2.2141,4.5479
							c1.3048,1.1012,3.0919,2.6092,4.7189,6.5369l0.0817,0.1971l-0.3943,0.1633l-0.0817-0.1972
							c-1.5872-3.8318-3.2576-5.2415-4.5999-6.3741c-1.2304-1.0384-2.1594-1.8223-2.336-3.9554
							c-0.825,2.0917-0.2055,3.156,0.6171,4.5695c1.0301,1.7702,2.4363,4.1868,1.5832,9.7761l3.7826,0.7483L-33.0507,131.0388z"/>
					</g>
					<g>
						<path class="st3" d="M-33.2193,130.7888l0.3045-1.6902l-0.0698,0.0182c-1.1042-4.5075-2.9731-6.9548-4.393-8.8712
							c-0.7096-0.9589-1.313-1.7858-1.6406-2.6833c-0.22-0.5942-0.2965-1.2319-0.2235-1.8613
							c-1.6531,4.6521,3.8497,4.3441,2.2475,14.3412L-33.2193,130.7888z"/>
						<path class="st3" d="M-33.1412,130.9032l-3.9637-0.7839l0.0149-0.0924c0.9013-5.6245-0.4359-7.9259-1.5104-9.7753
							c-0.8186-1.4089-1.4652-2.5218-0.7327-4.5831l0.2867-0.8067l-0.0987,0.8504c-0.071,0.6112,0.0044,1.2393,0.2181,1.8163
							c0.331,0.9071,0.9608,1.7582,1.6275,2.6593l0.1011,0.1363c1.4265,1.9236,3.1995,4.3146,4.2846,8.674l0.1216-0.0318
							L-33.1412,130.9032z M-36.8837,129.965l3.5863,0.7093l0.2601-1.4435l-0.0182,0.0048l-0.0235-0.0957
							c-1.0735-4.3823-2.849-6.7764-4.2757-8.7002l-0.1011-0.1363c-0.6754-0.9128-1.3132-1.7749-1.6537-2.7079
							c-0.1373-0.371-0.2202-0.7623-0.2467-1.1573c-0.3427,1.5364,0.2031,2.4758,0.9236,3.7158
							C-37.3484,122.0199-36.0008,124.3394-36.8837,129.965z"/>
					</g>
					<g>
						<path class="st3" d="M-32.9844,129.1158c-1.077-4.4004-2.8613-6.8064-4.2952-8.7397
							c-1.4761-1.9904-2.5426-3.4283-1.6884-5.8421l0.4022,0.1424c-0.7783,2.1996,0.1793,3.4909,1.6289,5.4455
							c1.3798,1.8605,3.2694,4.4086,4.3669,8.8926L-32.9844,129.1158z"/>
					</g>
					<g>
						<path class="st2" d="M-29.7824,136.295l3.0185-3.0179l-19.6198-13.5827l13.5827,19.6191L-29.7824,136.295l-16.6013-16.6013"/>
						<path class="st3" d="M-32.8308,139.6453l-14.3962-20.7942l20.7948,14.3962L-32.8308,139.6453z M-44.8629,121.5163
							l12.0918,17.4657l2.6869-2.6869L-44.8629,121.5163z M-44.5572,121.2184l14.7749,14.7749l2.6868-2.6862L-44.5572,121.2184z"/>
					</g>
					<g>
						<path class="st3" d="M-29.7824,136.295l-3.0185,3.0185L-29.7824,136.295l-16.6013-16.6013l13.5827,19.6198"/>
					</g>
					<g>
						<path class="st2" d="M-28.3178,129.9716l-2.1413-3.1973c8.7979-6.3667,3.4264-10.1312,9.6611-12.1691
							c-3.8776,3.784,0.4903,4.4084-2.7769,12.2955"/>
						<path class="st3" d="M-28.3764,130.2677l-2.3746-3.5456l0.1667-0.1206c4.5816-3.3155,5.2558-5.8667,5.7976-7.9165
							c0.4849-1.8349,0.8679-3.2841,3.9223-4.2826l0.8716-0.2849l-0.6562,0.6404c-1.875,1.8298-1.7531,2.8198-1.5509,4.46
							c0.1971,1.6007,0.4673,3.7931-1.1778,7.7645l-0.0817,0.1971l-0.3943-0.1633l0.0817-0.1972
							c1.6021-3.8676,1.3506-5.9088,1.1486-7.5491c-0.1789-1.4523-0.3142-2.5497,1.0411-4.1421
							c-2.0597,0.8957-2.3741,2.0858-2.7918,3.6662c-0.5232,1.98-1.2377,4.683-5.7937,8.0319l2.1461,3.2043L-28.3764,130.2677z"/>
					</g>
					<g>
						<path class="st3" d="M-28.3185,129.9709l1.4094-0.9792l-0.0615-0.037c2.406-3.9677,2.8153-7.0191,3.1666-9.379
							c0.176-1.1803,0.3338-2.1916,0.7375-3.0576c0.2644-0.5757,0.6609-1.0808,1.1573-1.4743
							c-4.4587,2.1211-0.3492,5.794-8.5514,11.7298L-28.3185,129.9709z"/>
						<path class="st3" d="M-28.3442,130.107l-2.249-3.3571l0.0758-0.0549c4.6147-3.3395,5.2963-5.9124,5.8441-7.9797
							c0.4173-1.5751,0.7469-2.8193,2.7225-3.7591l0.7712-0.3669l-0.6691,0.5306c-0.4822,0.3823-0.8727,0.8798-1.1294,1.4388
							c-0.4082,0.8758-0.5644,1.9229-0.7298,3.0315l-0.0247,0.1667c-0.3517,2.3695-0.7886,5.3141-3.1045,9.1649l0.1066,0.0641
							L-28.3442,130.107z M-30.3278,126.7972l2.035,3.0376l1.2051-0.8372l-0.0164-0.0099l0.0505-0.0833
							c2.3396-3.8581,2.7771-6.8068,3.1288-9.1761l0.0248-0.1668c0.1675-1.123,0.3256-2.1837,0.7456-3.0845
							c0.1651-0.3596,0.3833-0.6951,0.6441-0.9934c-1.3297,0.8444-1.6079,1.8946-1.9753,3.2813
							C-25.0384,120.8507-25.7254,123.4437-30.3278,126.7972z"/>
					</g>
					<g>
						<path class="st3" d="M-26.6045,129.1757l-0.3649-0.2212c2.3495-3.8731,2.7891-6.8361,3.1422-9.2169
							c0.3637-2.4512,0.6264-4.2223,2.9372-5.3249l0.1837,0.3851c-2.1058,1.0049-2.3417,2.5952-2.6987,5.0024
							C-23.7448,122.0913-24.2103,125.2292-26.6045,129.1757z"/>
					</g>
					<g>
						<path class="st2" d="M-29.7824,136.295h4.2687l-4.2687-23.4771l-4.2687,23.4771H-29.7824v-23.4771"/>
						<path class="st3" d="M-25.2581,136.5084h-9.0487l4.5243-24.8833L-25.2581,136.5084z M-29.569,136.0816h3.7997l-3.7997-20.8976
							V136.0816z M-33.7955,136.0816h3.7997v-20.8976L-33.7955,136.0816z"/>
					</g>
					<g>
						<path class="st3" d="M-29.7824,136.295h-4.2687H-29.7824v-23.4771l-4.2687,23.4771"/>
					</g>
					<g>
						<path class="st2" d="M-24.2754,132.8589l0.7473-3.7742c10.722,1.7188,9.5864-4.7415,15.4363-1.774
							c-5.4183-0.0657-3.0046,3.5172-10.8917,6.7844"/>
						<path class="st3" d="M-19.0991,134.3739l-0.1633-0.3943l0.1972-0.0817c3.8468-1.5934,5.1793-3.2235,6.25-4.5332
							c0.9633-1.1784,1.6912-2.0684,3.7999-2.2388c-2.0904-0.8236-3.1545-0.2041-4.5676,0.6182
							c-1.7701,1.0302-4.1868,2.436-9.7756,1.583l-0.749,3.7825l-0.4186-0.0829l0.8287-4.1853l0.2031,0.0326
							c5.5842,0.8954,7.8642-0.4321,9.6967-1.4986c1.6405-0.9547,2.9361-1.7087,5.8024-0.2549l0.8176,0.4148l-0.9167-0.0111
							c-2.6404-0.0384-3.3358,0.8204-4.3904,2.1107c-1.0429,1.2757-2.4711,3.0228-6.4171,4.6574L-19.0991,134.3739z"/>
					</g>
					<g>
						<path class="st3" d="M-24.2754,132.8582l1.6895,0.3045l-0.0175-0.0699c4.5069-1.1042,6.9541-2.9724,8.8705-4.393
							c0.9589-0.7096,1.7865-1.313,2.6833-1.6406c0.5944-0.2201,1.2324-0.2966,1.862-0.2235
							c-4.6528-1.6532-4.3441,3.8496-14.3412,2.2475L-24.2754,132.8582z"/>
						<path class="st3" d="M-22.4552,133.2848l-1.9346-0.3486l0.7839-3.9637l0.0924,0.0149
							c5.6249,0.9015,7.9258-0.4359,9.7748-1.5103c1.4091-0.8187,2.5223-1.4651,4.5835-0.7328l0.8072,0.2868l-0.8509-0.0989
							c-0.6115-0.0715-1.2397,0.0043-1.817,0.2181c-0.908,0.3316-1.7586,0.9611-2.6593,1.6276l-0.1328,0.0985
							c-1.9242,1.4275-4.3153,3.2016-8.6776,4.2873L-22.4552,133.2848z M-24.161,132.7801l1.4443,0.2604l-0.0047-0.0188
							l0.0948-0.0232c4.3844-1.0742,6.7789-2.8507,8.7029-4.278l0.1329-0.0986c0.9123-0.6752,1.7739-1.3127,2.7079-1.6539
							c0.3711-0.1373,0.7625-0.2202,1.1576-0.2467c-1.5362-0.3426-2.4758,0.2031-3.7159,0.9237
							c-1.8656,1.084-4.1848,2.4322-9.8106,1.5488L-24.161,132.7801z"/>
					</g>
					<g>
						<path class="st3" d="M-22.5018,133.5075l-0.1014-0.4145c4.4003-1.0769,6.8065-2.8612,8.7399-4.295
							c1.9906-1.4762,3.4289-2.5425,5.8427-1.6884l-0.1424,0.4022c-2.2-0.7783-3.4912,0.1794-5.446,1.6289
							C-15.4697,130.5205-18.0179,132.4101-22.5018,133.5075z"/>
					</g>
					<g>
						<path class="st2" d="M-29.7824,136.295l3.0185,3.0185l13.582-19.6191l-19.6198,13.5827l3.0185,3.0178l16.6013-16.6013"/>
						<path class="st3" d="M-26.734,139.6453l-3.0487-3.0489l-0.0004,0.0004l-3.3502-3.3494l20.7948-14.3962L-26.734,139.6453z
							 M-29.481,136.2947l2.6873,2.6873l12.0914-17.4658L-29.481,136.2947z M-32.4699,133.3071l2.6868,2.6862l14.7748-14.7749
							L-32.4699,133.3071z"/>
					</g>
					<g>
						<path class="st3" d="M-29.7824,136.295l-3.0185-3.0179L-29.7824,136.295l16.6013-16.6013l-19.6198,13.5834"/>
					</g>
					<g>
						<path class="st2" d="M-23.4583,137.7596l3.1966-2.1406c6.3667,8.7972,10.1319,3.4264,12.1698,9.6604
							c-3.7847-3.8776-4.495,0.4617-12.3829-2.8055"/>
						<path class="st3" d="M-7.6041,146.0846l-0.6404-0.6561c-1.8335-1.8786-2.8995-1.7538-4.5127-1.5645
							c-1.6182,0.1897-3.8342,0.4492-7.7992-1.193l-0.1971-0.0817l0.1633-0.3943l0.1972,0.0816
							c3.8626,1.5999,5.9277,1.3582,7.5862,1.1635c1.4775-0.1732,2.5934-0.304,4.1926,1.0556
							c-0.8957-2.0599-2.0861-2.3745-3.6666-2.7922c-1.9802-0.5232-4.6835-1.2377-8.0323-5.7933l-3.2036,2.1454l-0.2375-0.3546
							l3.5449-2.3739l0.1206,0.1667c3.3155,4.5813,5.8668,5.2555,7.9168,5.7972c1.8351,0.4849,3.2845,0.8679,4.283,3.9221
							L-7.6041,146.0846z"/>
					</g>
					<g>
						<path class="st3" d="M-23.4583,137.7596l0.9792,1.4094l0.037-0.0622c3.9684,2.4061,7.0197,2.8153,9.3797,3.1666
							c1.1796,0.176,2.1916,0.3345,3.057,0.7375c0.576,0.2645,1.0814,0.6612,1.475,1.158
							c-2.1211-4.4587-5.7947-0.3499-11.7305-8.5514L-23.4583,137.7596z"/>
						<path class="st3" d="M-8.0755,144.8992l-0.531-0.67c-0.3824-0.4824-0.8801-0.8731-1.4395-1.1299
							c-0.877-0.4086-1.9231-0.5646-3.0308-0.7298l-0.1672-0.0248c-2.3692-0.3517-5.3138-0.7889-9.1647-3.1042l-0.0642,0.1077
							l-1.1215-1.6143l3.3571-2.249l0.0549,0.0758c3.3395,4.6141,5.9125,5.296,7.98,5.8438
							c1.5754,0.4174,2.8197,0.7472,3.7596,2.7227L-8.0755,144.8992z M-22.4755,138.9731l0.0837,0.0507
							c3.8585,2.3394,6.8071,2.7771,9.1763,3.1288l0.1673,0.0249c1.122,0.1673,2.1816,0.3254,3.0837,0.7456
							c0.3599,0.1652,0.6956,0.3834,0.994,0.6443c-0.8444-1.3293-1.8947-1.6078-3.2814-1.9752
							c-2.0859-0.5527-4.6792-1.2399-8.0326-5.8419l-3.0376,2.0351l0.8368,1.2045L-22.4755,138.9731z"/>
					</g>
					<g>
						<path class="st3" d="M-8.2843,145.3714c-1.0051-2.1058-2.5955-2.3417-5.0027-2.6989c-2.2913-0.34-5.4293-0.8057-9.3761-3.2002
							l0.2214-0.3649c3.8732,2.35,6.8364,2.7897,9.2173,3.143c2.4512,0.3637,4.2222,0.6265,5.3252,2.9371L-8.2843,145.3714z"/>
					</g>
					<g>
						<path class="st2" d="M-29.7824,136.295v4.2687l23.4771-4.2687l-23.4771-4.2687V136.295h23.4771"/>
						<path class="st3" d="M-29.9958,140.8194v-9.0487l24.8833,4.5243L-29.9958,140.8194z M-29.569,136.5084v3.7997l20.8976-3.7997
							H-29.569z M-29.569,136.0816h20.8976l-20.8976-3.7997V136.0816z"/>
					</g>
					<g>
						<path class="st3" d="M-29.7824,136.295v-4.2687V136.295h23.4771l-23.4771-4.2687"/>
					</g>
					<g>
						<path class="st2" d="M-26.3462,141.8027l3.7749,0.7466c-1.7195,10.7227,4.7408,9.5864,1.774,15.4363
							c0.0656-5.4176-3.5018-2.9089-6.7683-10.7961"/>
						<path class="st3" d="M-21.0218,158.8999l0.0111-0.9169c0.0319-2.6302-0.8127-3.3072-2.0911-4.3321
							c-1.2754-1.0224-3.022-2.4225-4.6609-6.3797l-0.0817-0.1972l0.3943-0.1633l0.0817,0.1972
							c1.597,3.856,3.2252,5.1613,4.5335,6.21c1.1695,0.9375,2.0529,1.6456,2.2223,3.7439
							c0.8232-2.0901,0.2038-3.1539-0.6184-4.5667c-1.0302-1.7701-2.4366-4.1865-1.5828-9.7762l-3.7831-0.7482l0.0828-0.4187
							l4.1861,0.8279l-0.0326,0.2031c-0.8955,5.5842,0.4318,7.8648,1.4983,9.6973c0.9547,1.6403,1.7087,2.936,0.2553,5.8018
							L-21.0218,158.8999z"/>
					</g>
					<g>
						<path class="st3" d="M-26.3455,141.802l-0.3045,1.6895l0.0698-0.0175c1.1049,4.5069,2.9731,6.9541,4.393,8.8712
							c0.7096,0.9589,1.313,1.7858,1.6406,2.6833c0.2202,0.5941,0.297,1.2318,0.2242,1.8613
							c1.6531-4.6528-3.8503-4.3441-2.2482-14.3412L-26.3455,141.802z"/>
						<path class="st3" d="M-20.5171,157.7277l0.0983-0.849c0.0707-0.6111-0.005-1.2392-0.2188-1.8163
							c-0.331-0.9072-0.9608-1.7583-1.6275-2.6593l-0.1011-0.1364c-1.4265-1.9241-3.1992-4.3152-4.2849-8.6748l-0.1211,0.0301
							l0.3486-1.9343l3.9637,0.7839l-0.0149,0.0924c-0.9014,5.6245,0.4361,7.9258,1.5107,9.7749
							c0.8189,1.409,1.4657,2.5219,0.7332,4.5834L-20.5171,157.7277z M-26.5091,143.3563l0.0232,0.0947
							c1.0742,4.3816,2.8492,6.776,4.2756,8.7l0.1012,0.1365c0.6753,0.9127,1.3131,1.7747,1.6537,2.7078
							c0.1375,0.3713,0.2206,0.7629,0.2471,1.1582c0.3431-1.5372-0.2028-2.4767-0.9237-3.7171
							c-1.0843-1.8656-2.4322-4.185-1.5492-9.8107l-3.5863-0.7093l-0.2604,1.4445L-26.5091,143.3563z"/>
					</g>
					<g>
						<path class="st3" d="M-20.5976,158.0568l-0.4022-0.1424c0.7783-2.1996-0.1791-3.491-1.6284-5.4455
							c-1.3795-1.8605-3.2689-4.4086-4.3659-8.8926l0.4145-0.1014c1.0765,4.4004,2.8606,6.8065,4.2942,8.7398
							C-20.8097,154.205-19.7435,155.6431-20.5976,158.0568z"/>
					</g>
					<g>
						<path class="st2" d="M-29.7824,136.295l-3.0185,3.0185l19.6198,13.5827l-13.5827-19.6191L-29.7824,136.295l16.6013,16.6013"/>
						<path class="st3" d="M-12.3378,153.7397l-20.7948-14.3962l6.3987-6.3978L-12.3378,153.7397z M-32.4692,139.2838
							l17.4641,12.0903l-14.7773-14.7773L-32.4692,139.2838z M-29.4807,136.295l14.7771,14.7771l-12.0903-17.4633L-29.4807,136.295z
							"/>
					</g>
					<g>
						<path class="st3" d="M-29.7824,136.295l3.0185-3.0179L-29.7824,136.295l16.6013,16.6013l-13.5827-19.6191"/>
					</g>
				</g>
			</g>
			<g>
				<path class="st3" d="M-31.2463,142.6192l-1.4094,0.9799l0.0615,0.037c-2.406,3.9677-2.8146,7.019-3.1666,9.379
					c-0.176,1.1803-0.3338,2.1916-0.7375,3.0569c-0.2643,0.5759-0.6608,1.0813-1.1573,1.4751
					c4.4587-2.1211,0.3492-5.7947,8.5514-11.7305L-31.2463,142.6192z"/>
				<path class="st3" d="M-38.3845,158.0013l0.6686-0.5304c0.4823-0.3825,0.8728-0.8803,1.1293-1.4395
					c0.4085-0.8756,0.5646-1.9224,0.7298-3.0308l0.0258-0.1732c0.3522-2.3682,0.7897-5.3112,3.1035-9.1585l-0.1066-0.0641
					l1.6136-1.1218l2.249,3.3571l-0.0758,0.0549c-4.6147,3.3395-5.2963,5.9127-5.8441,7.9802
					c-0.4173,1.5753-0.7469,2.8196-2.7225,3.7594L-38.3845,158.0013z M-32.4772,143.5932l0.0165,0.0099l-0.0505,0.0833
					c-2.3375,3.8546-2.7757,6.8017-3.1279,9.1698l-0.0258,0.1732c-0.1673,1.1226-0.3254,2.183-0.7456,3.0836
					c-0.1651,0.3599-0.3833,0.6958-0.6443,0.9944c1.33-0.8445,1.6082-1.8949,1.9756-3.2818
					c0.5527-2.086,1.2397-4.6793,5.8421-8.0328l-2.035-3.0376L-32.4772,143.5932z"/>
			</g>
			<g>
				<g>
					<path class="st3" d="M-38.6749,158.1782l-0.1839-0.3851c2.1058-1.0052,2.3418-2.5954,2.6989-5.0026
						c0.34-2.2912,0.8057-5.429,3.2002-9.3755l0.3649,0.2214c-2.35,3.8728-2.7897,6.8359-3.1429,9.2168
						C-36.1014,155.3042-36.3642,157.0751-38.6749,158.1782z"/>
				</g>
				<g>
					<path class="st2" d="M-29.7824,136.295h-4.2687l4.2687,23.4778l4.2687-23.4778H-29.7824v23.4778"/>
					<path class="st3" d="M-29.7824,160.9656l-4.5243-24.884h9.0487L-29.7824,160.9656z M-29.569,136.5084v20.8982l3.7997-20.8982
						H-29.569z M-33.7955,136.5084l3.7997,20.8982v-20.8982H-33.7955z"/>
				</g>
			</g>
		</g>
		<g>
			<path class="st3" d="M-29.7824,136.295h4.2687H-29.7824v23.4778l4.2687-23.4778"/>
		</g>
		<g>
			<path class="st3" d="M-29.7824,136.295l3.0185,3.0185L-29.7824,136.295l-16.6013,16.6013l19.6198-13.5827"/>
		</g>
		<g>
			<circle class="st2" cx="-29.7824" cy="136.295" r="7.8257"/>
			<path class="st3" d="M-29.7824,144.3341c-4.4328,0-8.0391-3.6063-8.0391-8.0391s3.6063-8.0391,8.0391-8.0391
				s8.0391,3.6064,8.0391,8.0391S-25.3496,144.3341-29.7824,144.3341z M-29.7824,128.6827c-4.1974,0-7.6123,3.4149-7.6123,7.6123
				s3.4149,7.6123,7.6123,7.6123s7.6123-3.4149,7.6123-7.6123S-25.585,128.6827-29.7824,128.6827z"/>
		</g>
		<g>
			<g>
				<path class="st3" d="M-24.0198,133.1648c-0.498,0.5692-0.7822-0.426-2.5611-0.426c-1.7789,0-2.0631,1.0665-2.3481,0.8528
					c-0.2843-0.213,1.4946-1.4939,2.0638-1.5644c0.5685-0.0712,2.2049,0.498,2.8453,1.1384 M-26.0829,133.8052
					c0.498,0.4267,0.0712,1.3521-0.4267,1.3521s-1.4227-0.8542-0.9959-1.4234"/>
			</g>
			<g>
				<path class="st3" d="M-28.431,134.4456c0.0712-0.8542,0.7829-0.9959,1.9206-0.9959c1.1384,0,1.6371,0.8535,2.0638,1.0672
					c-0.498,0-0.9247-0.7117-2.0631-0.7117s-1.1384,0-1.9206,0.7117 M-28.2173,134.6587c0.285-0.426,0.6404,0.4274,1.4227,0.4274
					c0.7822,0,1.2097-0.2137,1.7076-0.5692c0.498-0.3562-0.7117,0.8535-1.4939,0.8535
					C-27.3631,135.3703-28.431,134.9436-28.2173,134.6587 M-33.7662,133.734c-0.3562,0.1425-0.9254,0.8542,0,1.3521
					C-34.4785,134.5881-33.9086,133.8764-33.7662,133.734z"/>
			</g>
			<g>
				<path class="st3" d="M-25.798,133.734c0.1418,0.1425,0.711,0.8542,0,1.3521C-24.8733,134.5881-25.4425,133.8764-25.798,133.734z
					 M-30.9208,136.793c-0.6404,0.1425-0.4267,1.0672-0.9959,1.1384s-0.8535,0.7117-0.7822,0.6405
					c0.3555-0.2843,1.1384-0.498,1.7069-0.498c0.5692,0,0.7117,0.3562,1.2097,0.3562c0.498,0,0.6404-0.3562,1.2097-0.3562
					c0.5692,0,1.3514,0.2137,1.7076,0.498c0.0705,0.0712-0.2137-0.5692-0.7822-0.6405c-0.5699-0.0712-0.3562-0.9959-0.9966-1.1384
					c0,0.285,0.213,0.2137,0.2843,0.6405c0,0.3562-0.6397,0.3562-0.7822,0c0.1425,0.5692-0.285,0.5692-0.6404,0.5692
					c-0.3555,0-0.7822,0-0.6404-0.5692c-0.1418,0.3562-0.7822,0.3562-0.7822,0C-31.1338,137.0067-30.9208,137.0773-30.9208,136.793z
					 M-33.1264,139.2123c-0.5692,0.4267-0.711,0.6404-0.7822,1.1384c0.1704-0.2989,0.2542-0.4218,0.3841-0.5971l-0.0992-0.0433
					c0.0412,0.0049,0.0782,0.0112,0.1187,0.0168C-33.4197,139.6111-33.3429,139.5106-33.1264,139.2123L-33.1264,139.2123z"/>
			</g>
			<g>
				<path class="st3" d="M-33.5056,139.727l-0.0091,0.0126c0.0894,0.021,0.1837,0.03,0.2822,0.0307
					c-0.0905-0.0161-0.1813-0.0305-0.2724-0.0433L-33.5056,139.727z M-33.2326,139.7703c0.4442,0.0782,0.792,0.1802,1.1112,0.2836
					c0.3981-0.0293,0.9477-0.1306,2.3397-0.1306c1.3919,0,1.9402,0.1013,2.3383,0.1306c0.3192-0.1034,0.6677-0.2053,1.1105-0.2836
					c-0.7836,0.0028-1.8284-0.5587-2.3117-0.5587c-0.5685,0-0.711,0.1425-1.1377,0.1425c-0.4267,0-0.5692-0.1418-1.1384-0.1418
					C-31.4034,139.2123-32.4482,139.7731-33.2326,139.7703L-33.2326,139.7703z M-26.3329,139.7703
					c0.0992,0,0.1942-0.0105,0.2829-0.0307l-0.0091-0.0126c-0.095,0.014-0.1865,0.0279-0.2731,0.0433L-26.3329,139.7703z"/>
			</g>
			<g>
				<path class="st3" d="M-26.0592,139.727c0.0398-0.0056,0.0768-0.0119,0.1187-0.0168c-0.0356,0.0147-0.065,0.0279-0.0999,0.0433
					c0.1299,0.1753,0.2137,0.2982,0.3841,0.5972c-0.0712-0.498-0.213-0.7117-0.7822-1.1384
					C-26.2219,139.5105-26.1451,139.6104-26.0592,139.727L-26.0592,139.727z"/>
			</g>
			<g>
				<path class="st3" d="M-26.0396,139.7536c-0.0012-0.0018-0.0026-0.0034-0.0042-0.0049
					c-0.7424,0.2864-1.0036,0.3352-1.3996,0.3052c-0.6747,0.2186-1.2306,0.4393-2.339,0.4393c-1.1084,0-1.6643-0.2207-2.339-0.4393
					c-0.396,0.0293-0.6572-0.0188-1.3996-0.3052c-0.001,0.0018-0.0021,0.0034-0.0035,0.0049
					c2.2349,0.9617,1.9905,1.3081,3.7421,1.3081s1.5072-0.3464,3.7421-1.3081H-26.0396z M-33.521,139.7487
					c0.0023-0.003,0.0046-0.0061,0.007-0.0091c-0.0371-0.0074-0.0738-0.0173-0.1097-0.0293
					C-33.5832,139.7263-33.5587,139.734-33.521,139.7487L-33.521,139.7487z M-26.0438,139.7487
					c0.0377-0.0147,0.0629-0.0223,0.1034-0.0384c-0.0349,0.0126-0.0726,0.021-0.1096,0.0293
					c0.0023,0.0031,0.0046,0.0061,0.007,0.0091L-26.0438,139.7487z M-35.545,133.1648c0.498,0.5692,0.7822-0.426,2.5611-0.426
					c1.7789,0,2.0631,1.0665,2.3481,0.8528c0.285-0.2137-1.4946-1.4939-2.0631-1.5644c-0.5685-0.0706-2.2056,0.498-2.846,1.1384
					 M-33.4819,133.8052c-0.498,0.4267-0.0712,1.3521,0.4267,1.3521c0.498,0,1.4234-0.8542,0.9959-1.4234"/>
			</g>
			<g>
				<path class="st3" d="M-31.1338,134.4456c-0.0712-0.8542-0.7822-0.9959-1.9206-0.9959s-1.6371,0.8535-2.0638,1.0672
					c0.498,0,0.9247-0.7117,2.0631-0.7117c1.1384,0,1.1384,0,1.9206,0.7117 M-31.3475,134.6587
					c-0.2843-0.426-0.6404,0.4274-1.4227,0.4274c-0.7822,0-1.2097-0.2137-1.7076-0.5692c-0.498-0.3555,0.7117,0.8535,1.4946,0.8535
					S-31.1338,134.9436-31.3475,134.6587 M-29.7824,141.7022c-0.3562,0-1.2802,0.2137,0,0.2137
					C-28.5022,141.9159-29.4262,141.7022-29.7824,141.7022"/>
			</g>
		</g>
	</g>
</g>
</svg>
