<?xml version="1.0" encoding="UTF-8"?><svg id="Layer_1" xmlns="http://www.w3.org/2000/svg" viewBox="0 0 50 50"><defs><style>.cls-1{fill:none;stroke:#fff;stroke-miterlimit:10;stroke-width:1.5px;}</style></defs><path class="cls-1" d="M23.67,18.67c1.94,0,3.52-1.57,3.51-3.51,0-1.94-1.57-3.51-3.51-3.51-1.94,0-3.51,1.57-3.51,3.51,0,1.94,1.57,3.51,3.51,3.51h0Z"/><path class="cls-1" d="M22.48,25.13l2.39,3.43c.35,.53,.95,.71,1.45,.7h6.32c2.05,0,2.17-3.12-.04-3.12h-5.47l-3.16-4.6c-.91-1.29-2.04-1.88-3.47-1.88-2.14,0-3.57,1.51-3.93,2.7-.28,.92-1.82,5.96-2.5,8.19h7.35l1.07-5.41Z"/><path class="cls-1" d="M40.64,34.06c1.94,0,3.51-1.57,3.51-3.51,0-1.94-1.57-3.51-3.51-3.51-1.94,0-3.51,1.57-3.51,3.51,0,1.94,1.57,3.51,3.51,3.51Z"/><path class="cls-1" d="M34.41,36.64c0,.51-.41,.92-.92,.92H3.14c-.51,0-.92-.41-.92-.92h0c0-.51,.41-.92,.92-.92h30.35c.51,0,.92,.41,.92,.92h0Z"/><path class="cls-1" d="M45.06,32.77l-4.43,4.43-5.6-5.6c-.25-.25-.53-.39-.81-.45l-.02-.04H4.27c-2.71,0-2.74,3.94-.06,3.94l29.96,.08,5.16,5.16h.01c.33,.33,.79,.54,1.3,.54s.97-.2,1.3-.54h0l5.35-5.35c1.45-1.44-.67-3.74-2.23-2.18Z"/></svg>