<?xml version="1.0" encoding="UTF-8"?><svg id="Layer_1" xmlns="http://www.w3.org/2000/svg" viewBox="0 0 50 50"><defs><style>.cls-1{fill:none;stroke:#fff;stroke-miterlimit:10;stroke-width:1.5px;}</style></defs><path class="cls-1" d="M25,26.9c3.44,0,5.03,2.61,5.37,6.31,.08,.89,0,2.18-.12,3.68-.39,4.97-.83,11.08,2.48,11.08,2.8,0,4.24-5.37,5.07-11.5,.8-6.06-.05-9.08,.37-11.77,.8-5.1,5.25-9.67,3.87-16.17-.76-3.61-2.75-5.3-4.72-6.02-4.53-1.65-7.46,1.53-12.33,1.53s-7.79-3.18-12.33-1.53c-1.97,.71-3.95,2.41-4.72,6.02-1.37,6.5,3.08,11.07,3.87,16.17,.42,2.69-.43,5.71,.37,11.77,.83,6.12,2.27,11.5,5.07,11.5,3.31,0,2.87-6.11,2.48-11.08-.11-1.5-.2-2.79-.12-3.68,.33-3.71,1.95-6.31,5.37-6.31Z"/></svg>