<?xml version="1.0" encoding="UTF-8"?><svg id="Layer_1" xmlns="http://www.w3.org/2000/svg" viewBox="0 0 50 50"><defs><style>.cls-1{fill:none;stroke:#fff;stroke-miterlimit:10;stroke-width:1.5px;}</style></defs><g id="Layer_1-2"><path class="cls-1" d="M38.06,36.01s0,.1,0,.15c0,5.04-4.11,9.15-9.15,9.15s-9.15-4.11-9.15-9.15c0-3.05,1.5-5.76,3.8-7.42l-.31-2.73c-3.56,1.99-5.97,5.79-5.97,10.15,0,6.41,5.22,11.63,11.63,11.63,5.44,0,10.01-3.75,11.28-8.8l-2.13-2.98Z"/><path class="cls-1" d="M27.42,13.77c1.63,0,2.96,1.32,2.96,2.96s-1.32,2.96-2.96,2.96-2.96-1.33-2.96-2.96,1.33-2.96,2.96-2.96Z"/><path class="cls-1" d="M46.5,39.65l-6.64-9.28c-.35-.48-.93-.71-1.52-.66-.04,0-.09,0-.13,0h-7.58l-.19-1.65h5.64c.66,0,1.19-.53,1.19-1.19s-.53-1.19-1.19-1.19h-5.91l-.31-2.71c-.18-1.59-1.61-2.72-3.2-2.54-1.59,.18-2.73,1.61-2.54,3.2l.87,7.66c.17,1.48,1.43,2.57,2.88,2.56,0,0,0,0,.01,0h9.92l5.69,7.96c.54,.76,1.66,.9,2.48,.31,.83-.59,1.05-1.69,.51-2.45Z"/><path class="cls-1" d="M7.45,3.23c-1.35,1.35-1.34,3.53,0,4.87,1.34,1.34,3.52,1.34,4.87,0,1.34-1.34,1.35-3.52,0-4.87-1.35-1.35-3.53-1.35-4.87,0Z"/><path class="cls-1" d="M10.02,44.01c.09,.83-.42,1.63-1.24,1.91-.94,.31-1.95-.21-2.25-1.15,0,0,0-.02,0-.03l3.55-3.26-.05,2.53Z"/><polygon class="cls-1" points="10.2 35.1 6.2 39.2 5.99 27.27 10.24 33.43 10.2 35.1"/><path class="cls-1" d="M4.31,41.86l7.16-7.53-5.48-7.83h0s0,0,0,0c0,0-.77-.46-.79-2.7-.02-3.11-.27-11.28-.27-11.28,.2-1.73,1.77-2.49,1.77-2.49,1.7-.86,3.19,.54,3.19,.54l10.5,10.5c.56,.56,.56,1.47,0,2.04-.57,.57-1.48,.57-2.04,.01l-7.26-7.24-.02,6.13c0,.08-.01,.15-.02,.23,0,0,0,0,0,0l-.18,2.64,4.28,8.66c.66,1.26-.05,2.76-.92,3.56-.87,.79-.01,.01-.01,.01l-4.12,3.79h0l-4.25,3.91-.4,.37c-1.85,1.83-3.31-.89-1.11-3.32Z"/></g></svg>