<?xml version="1.0" encoding="UTF-8"?><svg id="a" xmlns="http://www.w3.org/2000/svg" viewBox="0 0 200 200"><defs><style>.b,.c{fill:#8f8f8f;}.c{stroke:#8f8f8f;stroke-miterlimit:10;}</style></defs><path class="b" d="m119.93,32.66c-7.78,0-15.55-.01-23.33,0-2.42,0-4.12-1.09-5.18-3.21-.98-1.96-.88-3.83.4-5.69,1.91-2.78,3.65-5.69,5.61-8.43,1.51-2.12,3.91-2.74,6.33-2.75,10.65-.07,21.29-.09,31.94,0,3.46.03,6.46,1.17,8.28,4.54,1.48,2.76,3.45,5.27,4.8,8.09,1.75,3.64-1.86,7.49-5.35,7.47-7.83-.05-15.67-.01-23.51-.02Zm23.48-5.82c-1.46-2.28-2.9-4.32-4.13-6.49-.83-1.46-2.01-2.05-3.58-2.05-10.58,0-21.15-.03-31.73.03-.85,0-2.06.31-2.49.91-1.71,2.38-3.19,4.94-4.85,7.59h46.77Z"/><path class="b" d="m144.24,63.86H59.3c-1.45,0-2.63-1.17-2.63-2.62s1.18-2.63,2.63-2.63h84.94c-.1.83-.58,3.68,0,5.25Z"/><path class="b" d="m72.94,173.46l-.1,5.71c17.17.02,34.33.02,51.49.02l.31-5.74c-17.24-.02-34.46-.02-51.7,0Z"/><path class="b" d="m166.38,30.77c-4.88-7.73-9.77-15.46-14.76-23.12-2.77-4.27-6.93-6.5-11.93-6.54-13.28-.14-26.57-.16-39.85.02-4.49.06-8.41,1.92-10.98,5.87-3.73,5.73-7.42,11.47-11.08,17.24-.24.38-.49.72-.76,1.01.01-3.38,0-6.75-.01-10.14,0-2.44-1.24-3.65-3.73-3.65-9.03,0-18.07,0-27.1,0-2.79,0-3.62.83-3.63,3.57v2.62c0,3.21,0,6.4-.04,9.61,0,.81-.3,1.76-.79,2.4-2.44,3.16-5.03,6.2-7.47,9.36-1.79,2.33-3.19,4.88-3.19,7.93v21.08l5.73-.08c-.01-6.49-.02-12.99-.03-19.49,0-2.67,1.02-4.73,2.6-6.67,2.18-2.7,4.49-5.31,6.54-8.12.66-.9,1.27-1.02,2.18-1.02,8.56.01,17.11.05,25.67,0,3.39-.03,6.22-1.39,8.12-4.28,3.76-5.75,7.5-11.52,11.16-17.33,1.8-2.85,4.41-4.18,7.62-4.2,12.74-.07,25.49-.05,38.23-.02,3.83.01,6.67,1.83,8.69,5.05,4.59,7.31,9.18,14.62,13.86,21.88,1.3,2.02,1.74,4.21,1.74,6.48.01,5.28.02,5.9.02,11.18l3.33-.07,2.42.13v-11.59c0-3.28-.82-6.35-2.56-9.11Zm-116.51-3.86c-.51,0-1.03-.06-1.46-.07v-9.59h22.78c.05.24.07.3.07.36,0,3.11,0,6.21.02,9.32-7.14-.04-14.28-.01-21.41-.02Z"/><path class="b" d="m74.95,179.6h-.09v-25.7c-.09-1.5-.39-2.78-.61-3.57-.03-.09-.05-.17-.08-.25l-.12-.37c-.05-.14-.08-.22-.08-.22l-12.22-36.71c1.72-.6,1.9-2.16,1.9-3.79-.09-2.93,0-5.78,0-8.71,0-3.1-.78-3.97-3.88-3.97h-1.38c-.17-.17-.26-.17-.26-.26-.17-2.16.69-3.53,2.76-4.22,2.67-.95,5.35-1.81,8.19-2.76l.21-.06.13-.03c.47-.27,2.11-1.38,2.22-4.35.09-2.58-1.03-4.03-1.59-4.61l-.36-.25-.51-.34c-.78-.52-1.38-.86-1.9-1.29-5.09-3.79-10.09-7.59-15.17-11.29-.86-.69-2.16-1.12-3.28-1.12-11.38-.09-22.85-.09-34.23-.09-2.93,0-3.79.86-3.79,3.88s.09,5.86,0,8.71c-.09,1.98.34,3.53,2.5,4.22-.43,3.45-1.72,6.55-3.97,9.14-1.72,1.9-3.88,3.36-5.6,5.17-.69.78-1.29,2.16-1.03,3.02s1.47,1.9,2.41,1.98c10.69,1.21,20.35-5,23.88-15.09.17-.34.34-.69.6-1.38,1.64,3.79,3.1,7.33,4.66,10.86-3.53.43-4.05.95-4.05,4.4v6.81c0,3.53,1.81,5.43,5.43,5.69l-1.76,5.03-3.24,9.29-6.72,19.22-1.45,4.16c-.03.14-.07.28-.09.42-.25,1.28-.37,2.62-.37,4.03v39.83c0,3.19.78,3.97,3.97,3.97,14.91,0,29.92-.09,44.83,0,2.07,0,3.62-.52,4.14-2.76v-9.3c-.1-.53-.16-1.08-.17-1.65h.17v-5.69ZM13.91,94.94c2.76-3.79,4.4-7.85,5-12.41h5.35c-.26,5-5.43,11.29-10.35,12.41Zm19.48-15c-.95-2.41-2.33-3.28-4.83-3.19-3.97.26-8.02.09-12.16.09v-5.43c.52,0,1.12-.09,1.64-.09,9.74,0,19.48-.09,29.23,0,.95,0,1.98.34,2.67.86,4.83,3.53,9.66,7.16,14.4,10.95.43.26.86.69,1.55,1.21-3.71,1.21-7.07,2.33-10.43,3.45-2.76.86-3.1,1.38-3.1,4.22v4.22h-12.07c-2.33-5.43-4.74-10.78-6.9-16.29Zm24.57,21.98v5.35h-21.98v-5.35h21.98Zm-29.35,47.79l.02-.05,3.91-11.31,1.84-5.32,1.94-5.62,1.95-5.64,3.05-8.81c4.14,0,7.93-.09,11.72.09.12,0,.25,0,.38.03l2.8.02,1.26,3.93,11.15,34.81H27.88c.19-.76.44-1.47.74-2.13Zm40.38,43.77H27.53v-5.35h41.47v5.35Zm.09-11.12H27.62v-24.83h41.47v24.83Z"/><path class="b" d="m87.05,192.5c-.11,0-.22,0-.32-.01.1.02.21.02.32.02h.02c.12,0,.23,0,.34-.01h-.36Z"/><path class="c" d="m197.88,76.78c-.01-2.13-2.47-4.37-4.24-4.62l-18.2-4.28v-2.45c-.04-3.87-.02-7.74-.05-11.61-.01-1.43-.96-2.84-2.25-3.42-7.24-.72-26.81-.28-26.81-.28-2.71.15-4.02,1.66-4.06,4.42v13.75c-2.66.5-12.26,2.3-13.68,2.73-1.45.43-2.66,1.39-2.94,1.62-.04.03-.06.05-.06.05-1.36.99-2.28,2.47-2.58,4.63-.15,1.09-.04,2.22-.05,3.34-.01,5.04-.03,10.09-.04,15.13-.01,15.39-.02,30.78-.03,46.17-.01,10.45-.02,20.91-.03,31.37v10.68c.12,1.4.6,3.4,2.33,4.43,2.84,1.66,10.41,4.75,10.41,4.75,0,0,.62.23,2.62.27h40.42l.03.02h.79l2.4-.29.03-.05c2.95-.46,5.86-1.46,8.76-2.29,4.3-1.24,5.83-4.54,5.95-8.02.17-5.32.21-10.66.27-15.99.11-7.44.17-14.88.27-22.32.08-5.12.17-10.23.25-15.34.09-5.04.16-10.08.23-15.12.11-7.4.23-14.79.29-22.19.04-5.03.03-10.05-.01-15.07Zm-52.58-21.5s.33-2.35,2.62-2.36h.16c2.8-.01,19.84,0,19.84,0h2.74s1.72.41,1.74,1.99c0,.09.03.17.03.26v.04c.01.15.02.3.02.48,0,.63.01,1.29,0,1.94-.03,3.01-.11,6.03-.08,9.04.02.99-.28,1.58-1.25,1.73-1.98.3-3.95.79-5.94.82-3.77.06-7.56.01-11.32-.26-2.9-.21-5.79-.83-8.57-1.25v-12.42Zm-13.71,107.04c0,7.68-.11,15.34-.16,23.02v1.51c-1.21-.64-2.26-1.11-3.22-1.72-1.2-.73-1.4-2.02-1.4-3.27-.01-14.06.01-28.11.04-42.16,0-2.38.12-4.74.13-7.12.02-17.06.02-34.13.03-51.21v-1.48c1.34.27,2.54.52,3.75.75.8.14.94.62.93,1.36-.05,5.91-.08,11.81-.09,17.72,0,20.86.02,41.73-.01,62.59Zm3.57-85.09c-2.25-.03-4.48-.78-6.73-1.2l-.48-.19v-.02s.01-.09.03-.13c-.01-.01-.01-.02.01-.03.28-1.36,2.28-1.97,3.29-2.19l.27-.05.17-.03c.1-.01.15-.02.15-.02l12.32-2.44,1.09-.21c.92.17,2.42.45,3.34.58,3.7.57,7.35.87,11.01.91,4.28.05,8.55-.28,12.93-1.03l7.63,1.82h.01s1.2.28,1.2.28h.01l9.29,2.21s.8.36.84.86c-.87.15-1.75.31-2.62.39-3.79.3-7.59.76-11.39.76-14.12.01-28.25-.08-42.38-.27Zm46.17,109.15h-.01s.22,2.14-2.09,2.14h-42.22c-1.08-.25-1.38-1.03-1.43-2.84v-.23c0-.6.03-1.22.03-1.84,0-14.52-.02-29.06,0-43.58.03-18.88.1-37.75.16-56.63.01-2.46-.01-1.98,2.04-1.99,7.58-.01,15.17-.01,22.75,0,6.23.01,12.46.04,18.68.08,2.19,0,2.62.41,2.59,2.63-.04,3.26-.15,6.52-.25,9.78v.94l-7.93,8.01c-.75,1.25-1.34,2.71-1.39,4.23-.14,4.28,0,31.26,0,31.26,0,0-.09,1.35,1.18,2.58h.01c2.41,2.35,4.83,4.66,7.22,7.02.32.31.63.85.63,1.29.03,12.38.02,24.76.02,37.14Zm1.4-42.44c-.52-.35-.81-.49-1.03-.69-1.84-1.75-3.68-3.49-5.46-5.28-.32-.32-.58-.87-.58-1.32.05-9.7.13-19.39.26-29.09.02-1.38.51-2.67,1.61-3.66,1.79-1.6,3.55-3.24,5.32-4.87.12.04.25.09.37.12-.16,14.83-.32,29.65-.49,44.79Zm11.09-54.79c-.01,2.49-.04,5-.08,7.49-.09,6.76-.17,13.51-.26,20.27-.09,6.23-.17,12.47-.26,18.7-.09,6.37-.17,12.74-.26,19.1-.09,6.28-.15,12.56-.26,18.84-.05,3.3-.16,6.61-.26,9.91-.05,1.52-1.13,2.87-2.61,3.3-1.38.4-2.78.8-4.36,1.25,0-.56-.01-1,0-1.45.02-6.47.05-12.94.05-19.4,0-5.59-.05-11.2-.03-16.8,0-.5.31-.99.48-1.5.27-.83.75-1.67.76-2.52.14-9.21.22-18.42.29-27.63.01-1.73-.02-3.46.01-5.18.08-4.93.15-9.88.26-14.83.03-1.59-.29-3.03-1.23-4.35-.23-.31-.28-.8-.28-1.21-.02-3.92-.01-7.84-.01-11.94,2.65-.3,5.24-.59,8.07-.91,0,3.09,0,5.96-.01,8.84Z"/><path class="b" d="m87.41,192.5c-.11.01-.22.01-.34.01h-.02s.36-.01.36-.01Z"/></svg>