<?xml version="1.0" encoding="utf-8"?>
<!-- Generator: Adobe Illustrator 27.8.1, SVG Export Plug-In . SVG Version: 6.00 Build 0)  -->
<!DOCTYPE svg PUBLIC "-//W3C//DTD SVG 1.1//EN" "http://www.w3.org/Graphics/SVG/1.1/DTD/svg11.dtd" [
	<!ENTITY ns_extend "http://ns.adobe.com/Extensibility/1.0/">
	<!ENTITY ns_ai "http://ns.adobe.com/AdobeIllustrator/10.0/">
	<!ENTITY ns_graphs "http://ns.adobe.com/Graphs/1.0/">
	<!ENTITY ns_vars "http://ns.adobe.com/Variables/1.0/">
	<!ENTITY ns_imrep "http://ns.adobe.com/ImageReplacement/1.0/">
	<!ENTITY ns_sfw "http://ns.adobe.com/SaveForWeb/1.0/">
	<!ENTITY ns_custom "http://ns.adobe.com/GenericCustomNamespace/1.0/">
	<!ENTITY ns_adobe_xpath "http://ns.adobe.com/XPath/1.0/">
]>
<svg version="1.1" id="Layer_1" xmlns:x="&ns_extend;" xmlns:i="&ns_ai;" xmlns:graph="&ns_graphs;"
	 xmlns="http://www.w3.org/2000/svg" xmlns:xlink="http://www.w3.org/1999/xlink" x="0px" y="0px" width="500px" height="500px"
	 viewBox="0 0 500 500" style="enable-background:new 0 0 500 500;" xml:space="preserve">
<style type="text/css">
	.st0{fill:#8D908F;}
</style>
<metadata>
	<sfw  xmlns="&ns_sfw;">
		<slices></slices>
		<sliceSourceBounds  bottomLeftOrigin="true" height="448.8508" width="428.9714" x="35.5143" y="-474.4254"></sliceSourceBounds>
	</sfw>
</metadata>
<g>
	<path class="st0" d="M459.3824,297.2008c-0.0029-0.0043-0.0072-0.0087-0.0115-0.0115c-3.3076-3.3076-7.7018-5.1293-12.3728-5.1293
		c-8.496,0-15.5954,6.0992-17.1562,14.1527H417.1c-2.5884-15.8706-8.8188-30.9371-18.2126-44.0406l8.3302-8.3288
		c2.8493,1.9442,6.2044,2.9891,9.7109,2.9891c0.0259,0,0.0533,0,0.0807,0c4.671,0,9.0609-1.8159,12.3656-5.1191
		c6.8054-6.8271,6.8098-17.9143,0.0072-24.7154l-19.3497-19.3353c-3.273-3.2932-7.6528-5.1177-12.3555-5.1393
		c-4.6724,0-9.0667,1.8217-12.3743,5.1278c-6.0041,6.0027-6.7131,15.3359-2.1258,22.14l-8.2899,8.2999
		c-7.6525-5.522-15.9732-9.9565-24.8206-13.2354V74.114c0-2.3074-1.5306-4.3352-3.7486-4.9679L194.2222,25.7713
		c-0.9253-0.2623-1.9082-0.2623-2.8334,0L39.2629,69.1461c-2.218,0.6327-3.7486,2.6605-3.7486,4.9679v159.3276
		c0,37.3375,15.4124,73.4889,42.2838,99.1872c30.0767,28.7695,74.1951,65.4484,113.5763,76.8066
		c0.4669,0.134,0.9498,0.2018,1.4311,0.2018c0.1382,0,0.276-0.0182,0.4141-0.0294c0.3425,4.0159,2.0459,7.9091,5.025,10.8976
		l19.3425,19.3454c3.3206,3.3004,7.712,5.1178,12.3642,5.1178c4.6609,0,9.0508-1.8217,12.3656-5.1351
		c3.2932-3.3033,5.1062-7.6932,5.1033-12.3613c-0.0029-3.5425-1.0492-6.9193-2.9905-9.7786l8.7424-8.7438
		c13.1554,9.2814,28.2593,15.3907,44.1501,17.8595v12.9651c-3.4214,0.6514-6.5504,2.3088-9.0134,4.8065
		c-3.3047,3.2831-5.1249,7.6716-5.1249,12.3555c0,9.6431,7.8315,17.4891,17.4589,17.4891h27.3614
		c4.6379,0,9.0234-1.8073,12.3844-5.1264c3.2917-3.312,5.1033-7.7018,5.1033-12.3627c0-8.496-6.0992-15.5954-14.1527-17.1548
		v-13.2044c15.6833-2.6792,30.5724-8.9283,43.5246-18.2703l10.2903,10.0856c-1.9399,2.8694-2.9747,6.2404-2.9588,9.7512
		c0,4.6652,1.8159,9.0494,5.1134,12.344c6.8098,6.8112,17.897,6.817,24.7197,0.0159l19.3353-19.3353
		c3.3061-3.2845,5.1263-7.6831,5.1263-12.3872s-1.8245-9.0955-5.1091-12.3383c-3.2946-3.3062-7.6788-5.1293-12.3425-5.1336
		c-0.0058,0-0.0101,0-0.0145,0c-3.5194,0-6.8832,1.0348-9.7411,2.9617l-10.1461-10.3984
		c9.2368-13.0012,15.3777-27.9321,17.946-43.6428h12.7533c0.65,3.407,2.3016,6.5402,4.8137,9.0508
		c3.3119,3.2917,7.6975,5.1033,12.3483,5.1033c9.6431,0,17.4877-7.8387,17.4877-17.4747v-27.3615
		C464.4857,304.8969,462.6741,300.5127,459.3824,297.2008z M330.5869,219.6995v-13.4595c3.42-0.6514,6.5474-2.3074,9.0119-4.805
		c0.0484-0.048,0.0892-0.1014,0.1369-0.15v20.3485C336.7193,220.859,333.6672,220.2028,330.5869,219.6995z M192.8011,399.0831
		c-37.0176-11.2587-78.9973-46.3091-107.8633-73.9199c-24.8436-23.7598-39.0929-57.1902-39.0929-91.7217V78.0124l146.9605-41.9018
		l146.9303,41.9018v98.8375c-3.1735-3.2408-7.5882-5.2595-12.4694-5.2595h-27.3615c-0.1288,0-0.256,0.0139-0.3845,0.0167
		c-13.5845-47.5466-56.7985-80.3441-106.7294-80.3441c-61.2271,0-111.0397,49.8112-111.0397,111.0383
		c0,49.9339,32.7511,93.1033,80.2599,106.7159c-0.03,0.4214-0.065,0.8419-0.065,1.2685v27.3615
		c0,4.6753,1.8174,9.0652,5.1149,12.3599c3.3076,3.3076,7.6961,5.1293,12.3584,5.1293c8.4916,0,15.5867-6.0934,17.1519-14.1398
		l14.2349,0.036c3.7846,12.5732,10.4185,32.0656,18.2198,43.9844l-8.6357,8.6343c-1.5825-1.0737-3.309-1.8735-5.0831-2.3492
		c-1.4888-0.4266-3.0712-0.6442-4.7042-0.6442c-4.6522,0-9.0364,1.813-12.3584,5.1149c-0.6729,0.6721-1.2737,1.3908-1.8065,2.1302
		C195.2309,398.3135,194.0176,398.7125,192.8011,399.0831z M196.5324,250.7736c3.2946,3.2946,7.6788,5.1091,12.3469,5.1091
		c0.0029,0,0.0058,0,0.0101,0c1.6993-0.0014,3.3597-0.2491,4.9462-0.715v1.6647h-42.0748v-28.3198
		c0-2.8522-2.3132-5.1653-5.1653-5.1653h-28.3357v-42.0762h28.3357c2.8522,0,5.1653-2.3132,5.1653-5.1653v-28.3198h42.0748v28.3198
		c0,2.8522,2.3132,5.1653,5.1653,5.1653h28.3199v42.0762h-2.1451c0.3477-1.3848,0.5367-2.818,0.5367-4.2805
		c0-4.6926-1.8203-9.0869-5.1135-12.3613c-6.8169-6.814-17.9056-6.814-24.7168,0l-19.3613,19.3454
		c-3.2787,3.299-5.0961,7.6817-5.1177,12.3642C191.4031,243.0775,193.2249,247.4659,196.5324,250.7736z M252.4861,170.9404h-28.3198
		v-28.3199c0-2.8521-2.3132-5.1653-5.1653-5.1653h-52.4054c-2.8522,0-5.1653,2.3132-5.1653,5.1653v28.3199h-28.3357
		c-2.8522,0-5.1653,2.3131-5.1653,5.1653v52.4069c0,2.8522,2.3132,5.1653,5.1653,5.1653h28.3357v28.3199
		c0,2.8522,2.3131,5.1653,5.1653,5.1653h52.4054c2.8522,0,5.1653-2.3131,5.1653-5.1653v-3.6152l3.9749,3.9755
		c-9.0234,12.6611-15.1601,27.2606-17.822,42.4683c-0.1298,0.7076-0.2523,1.421-0.3661,2.1387H196.58
		c-0.6629-3.4373-2.3189-6.5561-4.8122-9.0494c-3.3119-3.2917-7.6975-5.1033-12.3483-5.1033
		c-5.3629,0-10.3387,2.4704-13.6138,6.5355c-43.5892-12.0439-73.7237-51.4287-73.7237-97.0466
		c0-55.53,45.1777-100.7076,100.7091-100.7076c45.4432,0,84.7458,29.9531,96.9194,73.3136c-0.7578,0.545-1.492,1.1311-2.1667,1.7981
		c-3.3062,3.3076-5.1279,7.7018-5.1279,12.3728c0,8.4946,6.0992,15.5939,14.1527,17.1548v13.4653
		c-0.4208,0.0692-0.8359,0.1398-1.2466,0.2133c-15.5709,2.7339-30.4211,9.0349-43.2234,18.3077l-4.5413-4.5413h4.929
		c2.8522,0,5.1653-2.3131,5.1653-5.1653v-52.4069C257.6514,173.2535,255.3383,170.9404,252.4861,170.9404z M454.1551,336.9091
		c0,3.9388-3.211,7.1441-7.157,7.1441c-1.9039,0-3.7039-0.7466-5.0558-2.0883c-1.3461-1.3475-2.0883-3.1433-2.0883-5.0558v-1.8447
		c0-2.8522-2.3132-5.1653-5.1653-5.1653h-22.0923c-2.6172,0-4.8209,1.9586-5.1293,4.5571
		c-2.0148,17.0034-8.6473,33.1522-19.1811,46.6996c-1.5839,2.0378-1.4225,4.9304,0.3805,6.778l16.6475,17.0611
		c0.9641,0.9886,2.2843,1.5493,3.665,1.5579c0.0101,0,0.0216,0,0.0317,0c1.3692,0,2.6836-0.5433,3.652-1.5132l1.2986-1.2985
		c1.3561-1.3547,3.1533-2.1013,5.0629-2.1013c0.0015,0,0.0043,0,0.0058,0c1.9024,0.0015,3.6895,0.7466,5.0644,2.1244
		c1.3317,1.3158,2.0653,3.0972,2.0653,5.0168c0,1.9312-0.7379,3.727-2.0883,5.0702l-19.3411,19.3425
		c-2.7902,2.7786-7.3286,2.7786-10.1187-0.0115c-1.3447-1.3447-2.0854-3.1332-2.0854-5.0615
		c-0.0087-1.8895,0.7336-3.678,2.1071-5.0529l1.2985-1.3129c0.967-0.9772,1.5032-2.2988,1.4931-3.6722
		c-0.0115-1.3735-0.5693-2.6864-1.5493-3.6492l-16.9559-16.6172c-1.8563-1.8188-4.7747-1.9759-6.817-0.3646
		c-13.4941,10.6506-29.5982,17.4099-46.5728,19.5458c-2.5841,0.3257-4.5211,2.5221-4.5211,5.1249v22.506
		c0,2.8522,2.3131,5.1653,5.1653,5.1653h1.8303c3.946,0,7.1571,3.2039,7.1571,7.1427c0,1.9139-0.7466,3.7183-2.0652,5.0457
		c-1.3793,1.3619-3.188,2.1129-5.0919,2.1129h-27.3614c-3.9302,0-7.1282-3.2111-7.1282-7.1585c0-1.9125,0.7365-3.6982,2.1113-5.0645
		c1.3231-1.3403,3.1044-2.0782,5.0169-2.0782h1.8447c2.8522,0,5.1653-2.3131,5.1653-5.1653v-22.3431
		c0-2.6345-1.9817-4.8453-4.6004-5.1336c-17.1922-1.8937-33.5255-8.493-47.23-19.0845c-2.0566-1.5868-4.9751-1.4009-6.8112,0.4352
		l-15.3187,15.3201c-2.0177,2.0177-2.0177,5.2878,0,7.304l1.3043,1.3043c1.3475,1.3447,2.0912,3.1361,2.0927,5.0471
		c0,1.9125-0.7408,3.7111-2.0825,5.0558c-1.3577,1.3562-3.1534,2.1042-5.0558,2.1042c-1.9053,0-3.7097-0.7509-5.0702-2.1027
		l-19.3267-19.3281c-2.2411-2.2498-2.7383-5.7447-1.1616-8.5882c0.2897-0.5448,0.6788-1.0636,1.1458-1.5306
		c1.8447-1.8375,4.4908-2.5552,7.0043-1.8318c1.1443,0.307,2.2281,0.9426,3.0958,1.8001l1.2985,1.3129
		c0.967,0.9771,2.2829,1.5291,3.6578,1.5334c0.0043,0,0.0101,0,0.0144,0c1.3692,0,2.6835-0.5433,3.652-1.5132l15.1717-15.1702
		c1.8476-1.8462,2.0249-4.782,0.4136-6.8386c-0.2436-0.3099-0.4857-0.6183-0.725-0.9382
		c-6.017-8.0521-13.0286-24.8682-19.2388-46.1376c-0.3315-1.1357-1.3417-4.5931-5.2085-4.5931l-22.9341-0.0591
		c-0.0043,0-0.0086,0-0.0129,0c-1.3677,0-2.6792,0.5419-3.6477,1.5075c-0.9714,0.9699-1.5176,2.2858-1.5176,3.6578v1.8289
		c0,3.9474-3.2039,7.1585-7.1427,7.1585c-1.9024,0-3.6981-0.7466-5.0558-2.1042c-1.3461-1.3461-2.0869-3.1404-2.0869-5.0543
		v-27.3615c0-1.0132,0.2047-1.9889,0.601-2.8868c1.1515-2.5855,3.7183-4.2559,6.5416-4.2559c1.9039,0,3.7039,0.7465,5.0558,2.0883
		c1.0463,1.0477,1.7324,2.3708,1.986,3.8307c0.0663,0.3834,0.1009,0.7955,0.1009,1.2236v1.8447
		c0,2.8522,2.3131,5.1653,5.1653,5.1653h22.7424c2.6345,0,4.8468-1.9831,5.135-4.6018c0.2205-2.022,0.516-4.0426,0.882-6.0473
		c2.6403-15.0751,9.0508-29.4599,18.5369-41.6006c1.6069-2.0566,1.4282-4.988-0.418-6.8328l-15.9509-15.9509
		c-0.0012-0.0012-0.0026-0.0026-0.0038-0.0038l-0.1019-0.1019c-2.0177-2.0177-5.2864-2.0177-7.3041,0l-1.2985,1.2985
		c-1.3519,1.3504-3.149,2.0955-5.063,2.097c-0.0014,0-0.0029,0-0.0043,0c-1.9081,0-3.6996-0.7394-5.0428-2.0826
		c-1.3562-1.3562-2.1027-3.1519-2.1027-5.0312c0.0087-1.9283,0.7595-3.7414,2.1013-5.0919l19.3497-19.3353
		c2.7888-2.7888,7.3257-2.7859,10.1202,0.0115c1.3389,1.3303,2.0768,3.1217,2.0768,5.0443c0,1.9053-0.7451,3.7054-2.0869,5.0558
		l-0.7362,0.7361c-0.0012,0.0012-0.0024,0.0023-0.0035,0.0035l-0.5589,0.5589c-2.0177,2.0163-2.0177,5.2878,0,7.3041
		l15.9831,15.9831c1.8549,1.8577,4.8107,2.0249,6.8659,0.392c12.2518-9.7354,26.8671-16.3102,42.2795-19.0168
		c1.6314-0.2911,3.3393-0.5419,5.2215-0.7667c2.597-0.3099,4.5528-2.5135,4.5528-5.1293V201.386
		c0-2.8522-2.3132-5.1653-5.1653-5.1653h-1.8289c-3.9475,0-7.1585-3.2039-7.1585-7.1427c0-1.9125,0.748-3.7125,2.0797-5.0471
		c0.7682-0.7581,1.6718-1.3331,2.6691-1.6833c0.7769-0.2825,1.5883-0.4266,2.4097-0.4266h27.3615
		c3.9388,0,7.1426,3.211,7.1426,7.157c0,1.9039-0.7422,3.6895-2.1273,5.0645c-1.3216,1.3403-3.1029,2.0782-5.0154,2.0782h-1.8448
		c-2.8522,0-5.1653,2.3131-5.1653,5.1653v22.8015c0,2.6172,1.9586,4.8209,4.5571,5.1293
		c6.2851,0.7451,12.4968,2.1243,18.4662,4.1002c10.4891,3.4691,20.2058,8.7035,28.8805,15.5579
		c2.0537,1.6228,5.0024,1.4513,6.8573-0.4021l14.8892-14.905c2.0162-2.0177,2.0148-5.2864-0.0015-7.3026l-1.2927-1.2928
		c-2.7859-2.796-2.7888-7.3329-0.0058-10.1158c1.3562-1.3562,3.1577-2.1028,5.0471-2.1028
		c1.9255,0.0087,3.7198,0.7523,5.0645,2.1042l19.3613,19.3454c2.7786,2.7787,2.77,7.3171-0.0144,10.1101
		c-1.3461,1.3461-3.1418,2.0883-5.0789,2.0883c-0.0115,0-0.0231,0-0.0331,0c-1.8765,0-3.6405-0.7365-4.9837-2.0869l-1.3144-1.3144
		c-2.0177-2.0177-5.2864-2.0177-7.3041,0l-14.9353,14.9353c-1.8491,1.8477-2.0249,4.7863-0.4108,6.8414
		c10.7155,13.6454,17.4503,29.934,19.4766,47.1061c0.307,2.6,2.5106,4.56,5.1293,4.56h22.0779c2.8522,0,5.1653-2.3132,5.1653-5.1653
		v-1.8304c0-3.946,3.2053-7.157,7.1441-7.157c1.9081,0,3.7039,0.7437,5.0587,2.0941c1.3533,1.3619,2.0984,3.1606,2.0984,5.063
		V336.9091z"/>
	<path class="st0" d="M285.3366,299.0067c1.2034,0.1776,2.436,0.2695,3.6915,0.2695c13.5733,0,24.6159-11.0498,24.6159-24.6304
		c0-12.3021-9.0692-22.5246-20.8721-24.3332c-1.221-0.1871-2.4713-0.2842-3.7438-0.2842c-2.0725,0-4.1334,0.258-6.1396,0.7667
		c-10.8884,2.7945-18.4922,12.602-18.4922,23.8506c0,0.2767,0.0029,0.5361,0.0201,0.8071
		C264.8044,287.5683,273.7039,297.2903,285.3366,299.0067z M285.4467,260.8044c1.163-0.2954,2.3679-0.4453,3.5814-0.4453
		c7.8762,0,14.2853,6.4091,14.2853,14.2867c0,7.8849-6.4091,14.2997-14.2853,14.2997c-7.7927,0-14.0692-6.0992-14.2882-13.8846
		c-0.0029-0.0807-0.0057-0.1398-0.0115-0.2205l-0.0014-0.1946C274.7269,268.1157,279.1384,262.4229,285.4467,260.8044z"/>
	<path class="st0" d="M361.6018,307.6712c-2.7225-0.8489-5.6207,0.6658-6.4725,3.3883c-0.8503,2.7239,0.6658,5.6207,3.3883,6.4725
		c8.9514,2.7989,14.9655,10.9864,14.9655,20.3745c0,11.769-9.574,21.343-21.3415,21.343c-7.5563,0-14.6211-4.057-18.4403-10.59
		c-1.4398-2.4631-4.6032-3.2903-7.0663-1.852c-2.463,1.4398-3.2917,4.6032-1.8519,7.0663
		c5.6639,9.6878,16.1459,15.7064,27.3585,15.7064c17.4647,0,31.6721-14.2089,31.6721-31.6736
		C383.8138,323.9771,374.8869,311.8262,361.6018,307.6712z"/>
	<path class="st0" d="M284.7736,345.2754c-3.531-2.6432-7.7393-4.0412-12.1711-4.0412c-11.2299,0-20.3672,9.1359-20.3672,20.3658
		c0,3.0193,0.6428,5.9119,1.8923,8.5565c3.3148,7.1743,10.5656,11.8093,18.4749,11.8093c11.2299,0,20.3658-9.1358,20.3658-20.3658
		C292.9683,355.2053,289.9014,349.1003,284.7736,345.2754z M272.6025,371.6351c-3.8956,0-7.4655-2.2814-9.1142-5.8513
		c-0.6125-1.2942-0.9224-2.7023-0.9224-4.1838c0-5.5328,4.5024-10.0352,10.0366-10.0352c2.182,0,4.2487,0.6846,5.9868,1.986
		c2.5726,1.9182,4.0483,4.8525,4.0483,8.0491C282.6377,367.1328,278.1354,371.6351,272.6025,371.6351z"/>
	<path class="st0" d="M258.6848,323.2291c0-7.4698-6.0776-13.5474-13.5474-13.5474c-7.4626,0-13.533,6.0776-13.533,13.5474
		s6.0704,13.5474,13.533,13.5474C252.6072,336.7766,258.6848,330.6989,258.6848,323.2291z M245.1373,326.4459
		c-1.7654,0-3.2023-1.4427-3.2023-3.2168s1.4369-3.2168,3.2023-3.2168c1.7742,0,3.2168,1.4427,3.2168,3.2168
		S246.9115,326.4459,245.1373,326.4459z"/>
	<path class="st0" d="M331.7514,333.3234c7.4713,0,13.5488-6.0776,13.5488-13.5474c0-7.4713-6.0776-13.5489-13.5488-13.5489
		c-7.4626,0-13.533,6.0776-13.533,13.5489C318.2184,327.2458,324.2888,333.3234,331.7514,333.3234z M331.7514,316.5577
		c1.7741,0,3.2182,1.4441,3.2182,3.2183c0,1.7741-1.4441,3.2167-3.2182,3.2167c-1.7655,0-3.2024-1.4426-3.2024-3.2167
		C328.549,318.0018,329.9859,316.5577,331.7514,316.5577z"/>
	<path class="st0" d="M345.5366,288.1932c7.4698,0,13.5474-6.0776,13.5474-13.5474c0-7.4626-6.0776-13.533-13.5474-13.533
		c-3.0756,0-6.0992,1.0723-8.5075,3.0151c-3.1937,2.5696-5.0255,6.4033-5.0255,10.5179c0,1.3029,0.1816,2.5956,0.5606,3.9057
		C334.2879,284.2285,339.6219,288.1932,345.5366,288.1932z M343.5103,272.1727c0.4122-0.3329,1.0982-0.7292,2.0264-0.7292
		c1.7741,0,3.2168,1.4369,3.2168,3.2024c0,1.7741-1.4427,3.2168-3.2168,3.2168c-1.4037,0-2.6735-0.9498-3.0669-2.2454
		c-0.0908-0.3156-0.1355-0.6342-0.1355-0.9714C342.3342,273.6759,342.7608,272.7751,343.5103,272.1727z"/>
	<path class="st0" d="M312.5083,379.8846c-7.4713,0-13.5488,6.0704-13.5488,13.533c0,7.4713,6.0776,13.5488,13.5488,13.5488
		c7.4698,0,13.5474-6.0776,13.5474-13.5488C326.0557,385.9551,319.9781,379.8846,312.5083,379.8846z M312.5083,396.6359
		c-1.7741,0-3.2182-1.4441-3.2182-3.2182c0-1.7655,1.4441-3.2024,3.2182-3.2024c1.7742,0,3.2168,1.4369,3.2168,3.2024
		C315.7251,395.1918,314.2825,396.6359,312.5083,396.6359z"/>
</g>
</svg>
