<?xml version="1.0" encoding="UTF-8"?><svg id="a" xmlns="http://www.w3.org/2000/svg" viewBox="0 0 200 200"><defs><style>.b{fill:none;stroke-miterlimit:10;stroke-width:5.5px;}.b,.c,.d{stroke:#8f8f8f;}.c{stroke-width:.25px;}.c,.e,.d{fill:#8f8f8f;}.c,.d{stroke-linecap:round;stroke-linejoin:round;}</style></defs><path class="b" d="m108.05,105.17c.04-.2.08-.4.12-.6.21-1.08.44-2.32.64-3.77.67-4.86,1.02-12.09-.76-23.55-.54-1.82-1.44-4.24-2.39-6.81-.94-2.54-1.96-5.3-2.61-7.47-.4-1.34-.66-2.46-.68-3.17-.58-3.49-.01-7.06.68-10.2.17-.79.35-1.55.52-2.28.85-3.56,1.46-6.14.24-7.67-.22-.28-.47-.5-.76-.68-.81-.48-1.95-.55-3.67-.15-.39.08-.81.2-1.27.34-5.04,2.14-10.8,7.38-9.68,20.42,1.74,7.7.9,9.82.45,10.38-.39.49-.76.75-2.79-.41-3.8-2.08-7.55-6.32-7.55-6.32l-8.25-11c-.66-1.07-15.97-26.12-18.83-29.96-1.84-2.9-4.3-4.56-6.78-4.56-1.79,0-3.36.93-4.2,2.47-1.26,2.31-.78,5.51,1.3,8.73,6.07,10.53,13.46,24.41,15.52,28.42,1.56,3.06,1.08,4.25.9,4.55-.06.1-.25.41-.88.41-.72,0-1.6-.41-2.32-1.06-5.7-5.62-24.98-25.81-27.89-29.31-2.64-2.42-4.9-2.93-6.34-2.93-2.22,0-4.06,1.18-4.94,3.16-1.12,2.53-.36,5.69,1.99,8.27,1.6,1.68,7.69,8.24,13.58,14.6,12.38,13.38,12.44,13.43,12.48,13.43,1.44,1.46,2.04,2.85,2.01,3.02-.33,0-1.34-.14-3.57-1.35-3.74-2.53-23.67-14.1-29.78-17.65-2.61-1.61-6.45.16-7.56,3.29-.86,2.45-.01,4.93,2.37,6.86,4.35,3.12,10.98,7.28,16.82,10.94,4.76,2.99,9.26,5.81,12.02,7.75,5.29,3.21,5.05,4.72,5,4.88-.17.65-1.79,1.34-4.41,1.34-.53,0-1.06-.03-1.6-.09-5.73-.59-10.12-.43-10.17-.41-.93-.1-15.97-1.59-17.59-1.64-2.31.2-3.86,1.68-4.03,3.87-.19,2.38,1.4,5.29,4.38,6.02.96.24,2.7.47,5.12.77,8.06,1.04,23.07,2.97,30.19,8.58,2.52,1.98,4.66,3.86,6.72,5.68,5.8,5.09,9.16,7.44,22.32,14.47,1.1.7,31.27-9.63,38.02-9.63-2.25-2.14-2.84-6.13-2.09-9.98Z"/><path class="d" d="m194.68,98.6h1.2v-.24c-.38.14-.78.21-1.2.24Zm.16-72.47c.38.03.72.11,1.04.24v-.24h-1.04Z"/><path class="d" d="m197.2,27.5c-.34-.57-.8-.92-1.32-1.13-.32-.13-.66-.21-1.04-.24h-18.42c-.56-.78-.95-1.55-1.55-2.08-2.28-2-5-3.24-7.88-4.02-3.19-.87-6.43-1.56-9.69-2.07-3.85-.61-7.74-1.11-11.62-1.36-3.56-.22-7.14-.07-10.71-.03-2.53.02-5.05.13-7.57.22-1.29.05-2.57.06-3.82.27-3.47.54-6.93,1.07-10.36,1.81-3.73.8-7.39,1.89-10.61,4.05-1.94,1.31-3.24,2.94-3.24,5.48,0,3.47.01,6.95.01,10.42,1.72-.4,2.86-.33,3.67.15v-4.86c0-.15.02-.29.03-.45.04-.08.08-.16.12-.23.1.06.21.13.32.2,3.26,1.88,6.8,2.92,10.44,3.67,2.26.46,4.53.97,6.82,1.34,1.62.27,3.26.36,4.9.48,3.29.25,6.57.46,9.85.68.22.01.43-.06.75-.1,0,2.7-.05,5.36.05,8.01.02.55.51,1.4.96,1.53.61.17,1.55,0,2.03-.41.43-.39.57-1.28.59-1.94.06-2.39.02-4.78.02-7.18,11.33-.56,22.61-1.08,33.14-6.27v42.74c0,.96.65,1.95,1.36,2.05,1.05.15,2.1-.66,2.28-1.79.06-.4.06-.82.06-1.24V29.89h16.77c0,3.15-.14,6.31.05,9.44.12,1.82-.49,2.86-2.04,3.69-1.48.8-2.88,1.77-4.24,2.76-1.42,1-1.94,2.41.04,3.68,1.85,1.19,3.65,2.46,5.48,3.72-.58,1.34-1.59,2.69-1.65,4.08-.05,1.34.87,2.73,1.41,4.2-1.62.65-3.35,1.36-5.07,2.06-1.63.64-3.29,1.24-4.9,1.92-.79.34-1.43.84-1.39,1.91.04,1.06.66,1.51,1.48,1.85,3.36,1.37,6.75,2.72,10.1,4.12.31.14.7.57.7.86.03,6.81.02,13.61.02,20.41-.01.06-.04.13-.08.28h-16.6c-.02-.31-.07-.63-.07-.96-.01-2.28.04-4.55-.04-6.83-.02-.66-.27-1.49-.73-1.88-.42-.36-1.28-.41-1.9-.31-.78.13-1.05.79-1.04,1.6.02,3.19-.02,6.39.01,9.58.01,1.04-.45,1.72-1.28,2.31-3.13,2.29-6.79,3.29-10.5,4.08-2.91.61-5.86,1.12-8.81,1.59-1.61.25-3.25.41-4.9.46-2.51.07-5.03.02-7.66.02,0-1.47.02-3.09,0-4.71-.02-1.46-.81-2.37-1.97-2.36-1.15.02-1.65.48-1.68,1.75-.05,1.79-.01,3.57-.01,5.38-1.66,0-3.26.03-4.86-.01-1.39-.04-2.77-.14-4.15-.29-2.51-.27-5.03-.47-7.52-.93-3.42-.65-6.85-1.35-10.19-2.31-.25-.07-.5-.15-.74-.25-.2,1.45-.43,2.69-.64,3.77,1.24.43,2.51.77,3.79,1.06,3.44.79,6.95,1.35,10.46,1.83,3.21.44,6.45.87,9.69.9,5.59.03,11.17-.19,16.75-.45,2.86-.13,5.71-.45,8.53-.91,4.54-.74,9.04-1.7,13.26-3.62,1.98-.9,3.9-2.02,5.12-3.88.47-.72.94-.88,1.58-.9h.01c.1-.01.19-.01.29-.01,5.67.01,11.36.01,17.03.01.42-.03.82-.1,1.2-.24.48-.17.92-.45,1.32-.9v-25.75c-.58-.46-1.1-1.05-1.76-1.34-2.42-1.06-4.88-2.01-7.48-3.06,2.29-.93,4.42-1.75,6.52-2.68.95-.42,1.82-1.04,2.72-1.58v-1.13c-.72-1.39-1.46-2.76-2.18-4.15-.07-.12-.13-.32-.08-.42.75-1.37,1.51-2.74,2.26-4.1v-1.14c-1.58-1.21-3.16-2.43-4.75-3.64-.33-.27-.72-.47-1.23-.78,2.05-1.45,4.01-2.84,5.98-4.24v-15.95Zm-25.34,2.06c-3.07,2.24-6.61,3.31-10.24,4.05-3.4.69-6.85,1.11-10.28,1.63-.74.12-1.48.22-2.21.32-.01.07-.01.14-.02.22-5.65.05-11.31.21-16.96.11-3.13-.06-6.26-.47-9.36-.88-3.19-.43-6.38-.91-9.5-1.62-3.14-.73-6.23-1.66-8.9-3.59-1.73-1.26-1.76-2.5,0-3.67,3.11-2.06,6.65-3.07,10.23-3.83,2.93-.64,5.91-.97,8.88-1.41,7.16-1.07,14.38-.71,21.58-.63,3.45.04,6.88.72,10.32,1.08,3.64.38,7.22,1.06,10.66,2.32,1.97.72,3.88,1.68,5.71,2.73,1.68.94,1.6,2.06.09,3.17Z"/><path class="d" d="m103.52,33.63c-.14.01-.28.02-.44.03.04-.08.08-.16.12-.23.1.06.21.13.32.2Z"/><path class="d" d="m139.73,59.92c0,.72,0,1.44,0,2.16,0,1.22-.51,1.97-1.5,2.1-1.15.15-1.88-.52-1.94-1.53-.11-1.92-.09-3.86.08-5.78.1-1.15,1.14-1.25,2.09-1.1.9.15,1.31.73,1.28,1.65-.03.83,0,1.67,0,2.5Z"/><path class="d" d="m139.73,89.48c0,.83-.04,1.67.01,2.5.06.94-.54,1.4-1.25,1.57-.85.2-1.97.09-2.06-.97-.18-2.1-.17-4.23-.04-6.33.06-.98,1.03-1.26,1.89-1.06.8.19,1.53.6,1.46,1.67-.05.87-.01,1.75-.01,2.62Z"/><path class="d" d="m139.73,74.64c0,.76,0,1.52,0,2.27,0,1.25-.57,2.04-1.68,2.06-.98.01-1.73-.51-1.75-1.61-.03-1.89-.12-3.79.06-5.66.1-1.05.96-1.38,2.28-1.11.87.17,1.17.8,1.11,1.67-.05.79-.01,1.59-.01,2.39Z"/><path class="c" d="m137.64,23.75c3.83,0,7.62.16,11.32,1.25.56.16,1.1.4,1.61.68.9.48,1.48,1.14,1.48,2.29,0,1.16-.64,1.73-1.49,2.28-1.6,1.04-3.42,1.41-5.23,1.54-3.86.27-7.75.57-11.6.42-2.57-.11-5.12-.91-7.65-1.55-1.13-.29-1.96-1.1-2.11-2.42-.15-1.44.65-2.35,1.82-2.75,1.76-.61,3.58-1.11,5.42-1.36,2.12-.29,4.28-.26,6.42-.37Zm-6.67,4.17c0,.12,0,.24-.01.36,2.31.12,4.62.33,6.94.33,2.31,0,4.63-.23,6.94-.36,0-.12,0-.24,0-.35-4.62-.52-9.23-.68-13.85.02Z"/><path class="e" d="m41.49,123.4c.9-1.98,1.62-4.08,2.74-5.93,1.65-2.72,4.28-4.33,7.37-4.91,4.64-.88,8.76.37,12.13,3.71,1.57,1.56,2.59,3.5,3.2,5.65.08.29.52.67.81.68,5.64.23,11.12-.67,16.35-2.79,4.17-1.69,8.24-3.68,12.48-5.18,2.49-.88,5.21-1.27,7.86-1.55,8.33-.89,15.98,1.36,23.33,5.18,4.23,2.2,8.75,3.7,13.56,4.1,2.34.2,4.7.27,7.11.4.63-2.42,1.57-4.55,3.22-6.3,2.05-2.18,4.49-3.65,7.5-3.92,2.77-.24,5.53-.22,8.03,1.28,4.05,2.45,6.61,5.91,6.74,10.76.18,6.72.29,13.44.25,20.15-.02,3.88-.57,7.73-1.78,11.45-.45,1.38-2.05,2.3-3.27,1.9-1.33-.43-2.05-1.87-1.64-3.33,1.11-3.94,1.56-7.96,1.55-12.04-.01-5.53.04-11.06-.02-16.59-.03-2.62-.83-5.01-2.88-6.77-4.05-3.47-10.18-1.94-12.11,2.92-.38.95-.52,2.05-.52,3.08-.04,6.95.02,13.91-.04,20.86-.05,5.85-.65,11.6-2.82,17.12-1.71,4.34-3.97,8.33-6.92,11.94-.25.31-.44.67-.77,1.2,4.1-.89,7.73-2.26,11.02-4.47,1.86-1.25,4.33-.69,4.52,1.42.07.81-.39,2.06-1.02,2.48-4.37,2.91-9.13,5-14.37,5.79-1.84.28-3.73.23-5.56.58-.96.18-1.91.79-2.71,1.4-4.74,3.59-10.05,6-15.73,7.55-4.83,1.31-9.83,1.73-14.81,1.34-8.04-.63-15.42-3.35-22.17-7.76-.85-.55-1.58-1.29-2.45-1.8-.65-.38-1.44-.74-2.17-.75-6.41-.1-12.29-2.02-17.75-5.25-7.11-4.21-12.23-10.21-15.45-17.8-1.32-3.12-2.33-6.35-2.56-9.78,0-.13-.16-.25-.25-.37,0-8.55,0-17.11,0-25.66Zm25.92,4.79c0,.14,0,.56,0,.99,0,6.65-.06,13.3.04,19.95.04,2.4.29,4.83.77,7.18,1.37,6.69,4.57,12.5,9.11,17.55,4.36,4.84,9.62,8.46,15.71,10.8,4.38,1.68,8.89,2.91,13.64,2.75,2.38-.08,4.75-.26,7.12-.52,3.65-.4,7.1-1.51,10.44-3.02,6.04-2.73,11.14-6.64,15.36-11.74,2.41-2.91,4.29-6.13,5.79-9.57,2.26-5.2,2.84-10.72,2.88-16.32.04-5.7,0-11.4,0-17.1v-1.33c-1.58,0-3.06.12-4.5-.03-2.72-.28-5.48-.5-8.12-1.14-4.69-1.15-9.14-3.01-13.43-5.26-3.3-1.73-6.89-2.78-10.59-3.11-2.66-.24-5.37-.2-8.03.01-1.93.15-3.92.57-5.73,1.26-3.42,1.31-6.7,3-10.11,4.36-2.74,1.09-5.53,2.23-8.4,2.8-3.85.77-7.81,1.01-11.96,1.5Zm5.42,48.33c-.64-.74-1.11-1.22-1.51-1.75-2.54-3.38-4.67-6.99-6.22-10.93-1.64-4.2-2.81-8.53-2.87-13.06-.07-6.18,0-12.35-.03-18.53-.02-2.66-.08-5.32-.26-7.97-.33-4.68-4.59-7.19-8.44-6.77-4.27.46-6.78,3.85-6.82,7.9-.05,6.65-.08,13.3.02,19.95.04,2.31.28,4.66.79,6.91,1.68,7.45,5.72,13.5,11.69,18.18,3.9,3.06,8.37,5.1,13.64,6.07Z"/><path class="e" d="m113.5,171.87c-2.79,0-5.57.06-8.36-.01-5.16-.13-10.21-1.13-15.18-2.45-2.97-.79-5.88-1.78-8.8-2.74-1.51-.49-2.24-1.99-1.8-3.47.39-1.29,1.86-1.88,3.4-1.45,4.94,1.38,9.84,2.9,14.83,4.05,4.3.99,8.75,1.26,13.12.81,4.58-.47,9.14-1.35,13.65-2.31,2.84-.6,5.57-1.68,8.35-2.55,1.3-.41,2.96.22,3.33,1.26.49,1.41-.1,3-1.52,3.51-2.51.91-5.04,1.78-7.61,2.47-2.94.8-5.92,1.44-8.9,2.05-1.48.3-3.01.4-4.52.59,0,.08,0,.16,0,.24Z"/><path class="e" d="m103.4,135.65c-3.07.52-6.18.87-9.19,1.61-3.88.96-7.68,2.23-11.51,3.37-1.47.44-2.54-.03-3.15-1.35-.51-1.1-.15-2.78.83-3.28.96-.49,1.98-.88,3.02-1.16,4.26-1.16,8.51-2.44,12.83-3.33,2.85-.59,5.81-.67,8.73-.82,2.59-.13,5.22-.32,7.77.04,4.77.67,9.51,1.6,14.21,2.65,2.58.58,5.07,1.6,7.58,2.48,1.52.53,2.08,1.75,1.58,3.16-.49,1.4-1.91,2.06-3.39,1.62-3.79-1.12-7.55-2.34-11.37-3.3-2.44-.61-4.96-.92-7.46-1.21-2.45-.28-4.93-.42-7.39-.52-1.01-.04-2.03.19-3.04.29-.01-.09-.03-.17-.04-.26Z"/><path class="e" d="m107.73,153.73c-8.55,0-17.1,0-25.65,0-1.71,0-2.73-.91-2.74-2.45-.01-1.77.91-2.73,2.72-2.73,17.02,0,34.03-.01,51.05,0,2.3,0,3.47,1.36,2.99,3.35-.27,1.09-1.29,1.83-2.58,1.83-6.48,0-12.96,0-19.44,0-2.12,0-4.23,0-6.35,0Z"/><path class="e" d="m173.08,153.73c-4.4,14.3-11.83,19.74-16.58,22.8s-2-1.12-2-1.12c0,0-8.25.91-1.57-2.74,8.77-5.41,13.46-14.47,15.04-19.91s3.16-.65,3.16-.65l1.96,1.62Z"/></svg>