<?xml version="1.0" encoding="UTF-8"?><svg xmlns="http://www.w3.org/2000/svg" xmlns:xlink="http://www.w3.org/1999/xlink" viewBox="0 0 400 300"><defs><style>.cls-1{fill:url(#Degradado_sin_nombre_13);}.cls-1,.cls-2,.cls-3,.cls-4,.cls-5,.cls-6,.cls-7,.cls-8,.cls-9,.cls-10,.cls-11,.cls-12,.cls-13,.cls-14,.cls-15{stroke-width:0px;}.cls-2,.cls-16{opacity:.31;}.cls-2,.cls-16,.cls-9,.cls-14{mix-blend-mode:multiply;}.cls-2,.cls-8{fill:#8d908f;}.cls-3,.cls-17{fill:#f98200;}.cls-18{isolation:isolate;}.cls-4{fill:url(#Degradado_sin_nombre_13-4);}.cls-5{fill:#fff;}.cls-6{fill:#f60;}.cls-7{fill:url(#Degradado_sin_nombre_13-3);}.cls-9{opacity:.15;}.cls-9,.cls-14{fill:#2d4e7f;}.cls-10{fill:url(#Degradado_sin_nombre_13-5);}.cls-11{fill:url(#Degradado_sin_nombre_20);}.cls-12{fill:#f1f1f1;}.cls-13{fill:url(#Degradado_sin_nombre_10);}.cls-14{opacity:.13;}.cls-15{fill:url(#Degradado_sin_nombre_13-2);}</style><linearGradient id="Degradado_sin_nombre_10" x1="164.33" y1="118.89" x2="316.73" y2="118.89" gradientUnits="userSpaceOnUse"><stop offset="0" stop-color="#955df4"/><stop offset="1" stop-color="#5e61ee"/></linearGradient><linearGradient id="Degradado_sin_nombre_20" x1="155.22" y1="33.59" x2="325.84" y2="204.2" gradientUnits="userSpaceOnUse"><stop offset="0" stop-color="#95edf6"/><stop offset="1" stop-color="#477df0"/></linearGradient><linearGradient id="Degradado_sin_nombre_13" x1="1044.69" y1="159.99" x2="965.98" y2="86.7" gradientTransform="translate(1180) rotate(-180) scale(1 -1)" gradientUnits="userSpaceOnUse"><stop offset="0" stop-color="#fff"/><stop offset="1" stop-color="#cfe4fd"/></linearGradient><linearGradient id="Degradado_sin_nombre_13-2" x1="977.87" y1="140.35" x2="1049.47" y2="140.35" xlink:href="#Degradado_sin_nombre_13"/><linearGradient id="Degradado_sin_nombre_13-3" x1="229.9" y1="197.46" x2="265.47" y2="197.46" gradientTransform="matrix(1,0,0,1,0,0)" xlink:href="#Degradado_sin_nombre_13"/><linearGradient id="Degradado_sin_nombre_13-4" x1="260.73" y1="182.34" x2="231.64" y2="211.43" gradientTransform="matrix(1,0,0,1,0,0)" xlink:href="#Degradado_sin_nombre_13"/><linearGradient id="Degradado_sin_nombre_13-5" x1="235.49" y1="170.13" x2="261.31" y2="170.13" gradientTransform="matrix(1,0,0,1,0,0)" xlink:href="#Degradado_sin_nombre_13"/></defs><g class="cls-18"><g id="SSL_ILLUSTRATION"><rect class="cls-6" width="400" height="300"/><path class="cls-14" d="m326.46,229.29c3.31,1.93,3.29,6.72-.05,8.62l-100.7,57.15c-2.99,1.72-6.67,1.71-9.65-.02L61.86,205.57c-2.38-1.38-2.37-4.82.02-6.19l108.15-61.11,156.43,91.02Z"/><path class="cls-8" d="m322.48,228.64l-96.77,55.69c-2.99,1.72-6.67,1.71-9.65-.02L61.86,194.85c-2.38-1.38-2.96-6.06-.57-7.42l97.29-54.15,163.9,92.49v2.88Z"/><path class="cls-8" d="m326.32,223.37l-3.83,2.4-160.07-96.81-3.35-111.19c0-2.81,6.4-5.44,8.83-4.03l154.07,88.75c2.69,1.55,4.35,4.42,4.35,7.53v113.35Z"/><path class="cls-12" d="m322.48,225.76l-163.9-95.37V18.34c0-2.81,3.04-4.57,5.48-3.17l154.07,88.75c2.69,1.55,4.35,4.42,4.35,7.53v114.31Z"/><path class="cls-13" d="m316.73,213.3l-152.4-88.18V24.48c-.17.02,152.4,88.18,152.4,88.18v100.64Z"/><path class="cls-11" d="m316.73,213.3l-152.4-88.18V24.48c-.17.02,152.4,88.18,152.4,88.18v100.64Z"/><path class="cls-3" d="m316.73,213.3l-152.4-88.18V24.48c-.17.02,152.4,88.18,152.4,88.18v100.64Z"/><path class="cls-12" d="m322.48,225.76l-96.77,55.69c-2.99,1.72-6.67,1.71-9.65-.02L61.86,191.97c-2.38-1.38-2.37-4.82.02-6.19l96.7-55.39,163.9,95.37Z"/><polygon class="cls-2" points="125 223.94 145.92 212.13 170.58 227.1 150.63 239.38 125 223.94"/><g class="cls-16"><polygon class="cls-8" points="262.95 207.34 270.64 202.9 259.67 196.51 251.97 200.96 262.95 207.34"/><polygon class="cls-8" points="284.74 220 292.4 215.58 281.56 209.26 273.89 213.69 284.74 220"/><polygon class="cls-8" points="272.46 212.86 280.13 208.43 272.07 203.73 264.39 208.17 272.46 212.86"/><polygon class="cls-8" points="229.2 187.73 236.94 183.27 227.03 177.5 219.28 181.97 229.2 187.73"/><polygon class="cls-8" points="185.07 162.09 192.87 157.6 182.57 151.6 174.76 156.1 185.07 162.09"/><polygon class="cls-8" points="217.85 181.14 225.6 176.66 217.11 171.72 209.35 176.2 217.85 181.14"/><polygon class="cls-8" points="207.92 175.36 215.68 170.88 205.7 165.07 197.93 169.56 207.92 175.36"/><polygon class="cls-8" points="196.5 168.73 204.27 164.24 194.3 158.43 186.51 162.93 196.5 168.73"/><polygon class="cls-8" points="293.83 216.41 286.18 220.83 295.83 226.44 303.31 221.93 293.83 216.41"/><polygon class="cls-8" points="239.66 193.81 247.38 189.35 238.37 184.1 230.64 188.56 239.66 193.81"/><polygon class="cls-8" points="170.05 144.31 160.98 139.02 153.18 143.56 162.23 148.83 170.05 144.31"/><polygon class="cls-8" points="250.53 200.12 258.24 195.68 248.81 190.18 241.09 194.64 250.53 200.12"/><polygon class="cls-8" points="173.33 155.27 181.13 150.76 171.49 145.14 163.66 149.66 173.33 155.27"/><polygon class="cls-8" points="159.09 163.49 149.43 157.88 141.64 162.38 151.3 167.99 159.09 163.49"/><polygon class="cls-8" points="149.86 168.82 140.2 163.2 132.45 167.68 142.11 173.29 149.86 168.82"/><polygon class="cls-8" points="121.31 174.11 114.18 178.23 123.84 183.84 130.97 179.72 121.31 174.11"/><polygon class="cls-8" points="140.68 174.12 131.02 168.51 122.75 173.28 132.41 178.89 140.68 174.12"/><polygon class="cls-8" points="132.41 180.56 125.27 184.68 135.59 190.67 142.72 186.55 132.41 180.56"/><polygon class="cls-8" points="167.07 158.88 157.41 153.27 150.86 157.05 160.52 162.66 167.07 158.88"/><polygon class="cls-8" points="188.28 213.02 181.15 217.14 190.17 222.38 197.31 218.26 188.28 213.02"/><polygon class="cls-8" points="176.93 206.42 169.8 210.54 179.71 216.3 186.85 212.18 176.93 206.42"/><polygon class="cls-8" points="167 200.65 159.86 204.77 168.36 209.71 175.5 205.59 167 200.65"/><polygon class="cls-8" points="155.57 194.02 148.44 198.13 158.43 203.94 165.56 199.82 155.57 194.02"/><polygon class="cls-8" points="198.74 219.09 191.61 223.21 201.05 228.7 208.18 224.58 198.74 219.09"/><polygon class="cls-8" points="144.15 187.38 137.02 191.5 147.01 197.3 154.14 193.18 144.15 187.38"/><polygon class="cls-8" points="185.89 189.74 178.14 194.22 186.64 199.16 194.39 194.68 185.89 189.74"/><polygon class="cls-8" points="195.82 195.52 188.07 199.99 197.99 205.75 205.74 201.28 195.82 195.52"/><polygon class="cls-8" points="237.73 207.51 244.28 203.74 234.84 198.25 228.29 202.03 237.73 207.51"/><polygon class="cls-8" points="195.82 193.85 203.61 189.36 195.11 184.42 187.32 188.92 195.82 193.85"/><polygon class="cls-8" points="217.63 206.52 225.42 202.03 216.4 196.78 208.61 201.28 217.63 206.52"/><polygon class="cls-8" points="207.17 200.45 214.96 195.95 205.05 190.19 197.26 194.69 207.17 200.45"/><polygon class="cls-8" points="228.51 212.84 236.3 208.34 226.86 202.86 219.07 207.36 228.51 212.84"/><polygon class="cls-8" points="163.04 176.47 155.29 180.95 165.28 186.75 173.03 182.28 163.04 176.47"/><polygon class="cls-8" points="174.47 183.11 166.72 187.58 176.7 193.39 184.45 188.91 174.47 183.11"/><polygon class="cls-8" points="185.89 188.08 193.68 183.59 183.69 177.78 175.9 182.28 185.89 188.08"/><polygon class="cls-8" points="182.26 176.95 172.27 171.15 164.48 175.65 174.47 181.45 182.26 176.95"/><polygon class="cls-8" points="226.86 201.2 233.41 197.42 224.38 192.17 217.83 195.95 226.86 201.2"/><polygon class="cls-8" points="176.7 195.05 168.43 199.82 176.93 204.76 185.2 199.99 176.7 195.05"/><polygon class="cls-8" points="197.99 207.41 189.72 212.19 198.74 217.43 207.01 212.66 197.99 207.41"/><polygon class="cls-8" points="186.64 200.82 178.37 205.59 188.28 211.35 196.55 206.58 186.64 200.82"/><polygon class="cls-8" points="153.86 181.78 145.59 186.55 155.58 192.35 163.85 187.58 153.86 181.78"/><polygon class="cls-8" points="165.28 188.41 157.01 193.19 167 198.99 175.27 194.21 165.28 188.41"/><polygon class="cls-8" points="216.4 195.12 222.95 191.34 213.03 185.58 206.48 189.36 216.4 195.12"/><polygon class="cls-8" points="195.11 182.76 201.66 178.98 191.67 173.17 185.13 176.95 195.11 182.76"/><polygon class="cls-8" points="183.69 176.12 190.24 172.34 180.25 166.54 173.7 170.32 183.69 176.12"/><polygon class="cls-8" points="205.05 188.53 211.6 184.75 203.09 179.81 196.55 183.59 205.05 188.53"/><polygon class="cls-8" points="161.61 175.64 151.3 169.65 143.55 174.12 153.86 180.12 161.61 175.64"/><polygon class="cls-8" points="142.11 174.95 133.84 179.73 144.16 185.72 152.43 180.94 142.11 174.95"/><polygon class="cls-8" points="170.84 170.32 160.52 164.32 152.73 168.82 163.05 174.81 170.84 170.32"/><polygon class="cls-8" points="178.82 165.71 168.5 159.71 161.96 163.49 172.27 169.49 178.82 165.71"/><polygon class="cls-8" points="190.17 224.04 182.08 228.71 191.52 234.19 199.61 229.52 190.17 224.04"/><polygon class="cls-8" points="179.71 217.96 171.61 222.64 180.64 227.88 188.74 223.21 179.71 217.96"/><polygon class="cls-8" points="168.36 211.37 160.25 216.05 170.17 221.81 178.28 217.13 168.36 211.37"/><polygon class="cls-8" points="155.98 152.44 146.95 147.19 140.43 150.99 149.43 156.22 155.98 152.44"/><polygon class="cls-8" points="129.58 167.67 120.68 162.5 112.45 167.3 121.31 172.45 129.58 167.67"/><polygon class="cls-8" points="138.77 162.37 129.82 157.17 122.11 161.67 131.02 166.85 138.77 162.37"/><polygon class="cls-8" points="147.99 157.05 139 151.82 131.25 156.34 140.2 161.54 147.99 157.05"/><polygon class="cls-8" points="119.88 173.28 111.02 168.13 103.92 172.27 112.74 177.4 119.88 173.28"/><polygon class="cls-8" points="112.74 179.06 111.31 178.23 102.49 173.1 94.36 177.84 103.15 182.94 104.58 183.77 114.25 189.38 122.4 184.67 112.74 179.06"/><polygon class="cls-8" points="158.43 205.6 156.99 204.77 147 198.96 145.57 198.13 135.58 192.33 134.15 191.5 123.84 185.5 115.69 190.21 126.01 196.2 127.44 197.03 137.44 202.83 138.87 203.66 148.87 209.45 150.31 210.29 158.81 215.22 166.93 210.54 158.43 205.6"/><polygon class="cls-8" points="227.07 213.67 217.63 208.19 216.2 207.35 207.17 202.11 199.42 206.58 208.45 211.83 209.88 212.66 208.45 213.49 200.18 218.26 209.62 223.75 211.05 224.58 219.32 219.81 220.76 218.98 228.5 214.5 227.07 213.67"/><polygon class="cls-8" points="242.36 220.89 250.43 225.58 258.22 221.08 250.15 216.39 242.36 220.89"/><polygon class="cls-8" points="251.58 215.56 259.65 220.25 266.2 216.47 258.13 211.78 251.58 215.56"/><polygon class="cls-8" points="251.86 226.41 262.72 232.71 270.51 228.22 259.65 221.91 251.86 226.41"/><polygon class="cls-8" points="261.09 221.08 271.94 227.39 278.49 223.61 267.63 217.3 261.09 221.08"/><polygon class="cls-8" points="242.68 231.71 253.53 238.02 261.28 233.54 250.42 227.24 242.68 231.71"/><polygon class="cls-8" points="224.4 242.26 235.26 248.57 242.39 244.45 231.53 238.14 224.4 242.26"/><polygon class="cls-8" points="222.03 232.62 214.9 236.74 222.97 241.43 230.1 237.31 222.03 232.62"/><polygon class="cls-8" points="232.97 237.31 243.83 243.62 252.1 238.85 241.24 232.54 232.97 237.31"/><polygon class="cls-8" points="233.17 226.19 241.24 230.88 248.99 226.41 240.92 221.72 233.17 226.19"/><polygon class="cls-8" points="223.47 231.79 231.54 236.48 239.81 231.71 231.74 227.02 223.47 231.79"/><polygon class="cls-8" points="245.26 244.45 255.8 250.58 263.89 245.7 253.53 239.68 245.26 244.45"/><polygon class="cls-8" points="227.2 254.88 238.13 261.23 246.01 256.48 235.25 250.23 227.2 254.88"/><polygon class="cls-8" points="236.69 249.4 247.41 255.63 254.39 251.42 243.82 245.28 236.69 249.4"/><polygon class="cls-8" points="264.15 233.55 274.28 239.43 281.9 234.84 271.94 229.05 264.15 233.55"/><polygon class="cls-8" points="273.38 228.22 283.31 233.99 289.71 230.13 279.92 224.44 273.38 228.22"/><polygon class="cls-8" points="254.97 238.85 265.3 244.85 272.88 240.28 262.71 234.38 254.97 238.85"/><polygon class="cls-8" points="222.96 243.09 214.9 247.75 225.76 254.05 233.82 249.4 222.96 243.09"/><polygon class="cls-8" points="213.46 237.57 205.38 242.23 213.46 246.92 221.53 242.26 213.46 237.57"/></g><ellipse class="cls-9" cx="168.11" cy="201.98" rx="11.81" ry="25.06" transform="translate(-81.78 283.31) rotate(-68.26)"/><path class="cls-1" d="m130.53,81.78l3.21-2.01s18.05,12.03,35.7,6.82c0,0,11.63,21.26,35.9,33.9v39.31s.2,37.91-39.51,39.11c0,0-31.69-40.91-32.09-82.63v-30.22l-3.21-4.28Z"/><path class="cls-15" d="m202.13,122.49v39.31s-.6,36.3-36.3,37.1c0,0-34.9-38.91-35.3-80.63v-36.5s18.05,12.03,35.7,6.82c0,0,11.63,21.26,35.9,33.9Z"/><path class="cls-17" d="m196.71,125.94v33.93s-.52,31.33-31.42,32.02c0,0-30.21-33.58-30.55-69.58v-31.5s15.62,10.39,30.9,5.89c0,0,10.07,18.35,31.07,29.25Z"/><path class="cls-8" d="m203.92,157.39c-5.57-7.1-13.67-10.04-18.08-6.57-4.34,3.41-3.5,11.75,1.83,18.78,2.14,2.69,4.61,4.69,4.61,4.69,4.89,3.79,10.37,4.86,13.73,2.23,4.42-3.47,3.48-12.03-2.09-19.13Z"/><path class="cls-5" d="m189.55,164.9c1.33,1.19,2.67,2.38,4,3.57-.35,0-.7.02-1.05.03,3.37-2.59,6.73-5.17,10.1-7.76.91-.7,1.94.69,1.03,1.39-3.37,2.59-6.73,5.17-10.1,7.76-.3.23-.76.29-1.05.03-1.33-1.19-2.67-2.38-4-3.57-.82-.73.24-2.19,1.07-1.45h0Z"/><path class="cls-7" d="m235.41,167.41l29.32,17c.46.27.74.76.74,1.29v38.72c0,.68-4.62,3.58-5.62,3.02l-25.92-18.3c-.47-.26-.76-.76-.76-1.3l-3.28-38.92c0-.94,5.15-1.4,5.51-1.51Z"/><path class="cls-4" d="m231.2,168.82l29.32,17c.46.27.74.76.74,1.29v38.72c0,1.14-1.23,1.86-2.22,1.3l-29.32-16.57c-.47-.26-.76-.76-.76-1.3v-39.14c0-1.15,1.24-1.86,2.24-1.29Z"/><path class="cls-3" d="m250.7,191.42c-1.62-3.76-5.41-5.74-8.48-4.42s-4.23,5.43-2.61,9.19c.69,1.61,1.78,2.89,3.05,3.72l-1.89,8.98,6.59,3.29-1.66-11.19c.81.06,1.63-.06,2.39-.39,3.06-1.32,4.23-5.43,2.61-9.19Z"/><path class="cls-10" d="m261,183.74l-3.22-.61c1.07-5.62-1.3-13.7-5.5-18.79-1.71-2.07-4.47-4.54-7.87-4.54-1.83,0-3.17.54-4.09,1.65-1.98,2.4-1.63,7-1.33,8.57l-3.22.62c-.06-.29-1.34-7.22,2.02-11.28,1.56-1.88,3.78-2.84,6.61-2.84,3.7,0,7.29,1.98,10.39,5.73,4.85,5.86,7.45,14.9,6.2,21.49Z"/><polygon class="cls-9" points="229.68 214.51 224.4 217.7 257.18 237.57 264.04 233.84 229.68 214.51"/></g></g></svg>