<?xml version="1.0" encoding="UTF-8"?><svg xmlns="http://www.w3.org/2000/svg" xmlns:xlink="http://www.w3.org/1999/xlink" viewBox="0 0 1024 330"><defs><style>.cls-1{fill:url(#Degradado_sin_nombre_13);}.cls-1,.cls-2,.cls-3,.cls-4,.cls-5,.cls-6,.cls-7,.cls-8,.cls-9,.cls-10,.cls-11,.cls-12,.cls-13,.cls-14,.cls-15{stroke-width:0px;}.cls-2,.cls-16{opacity:.31;}.cls-2,.cls-16,.cls-9,.cls-14{mix-blend-mode:multiply;}.cls-2,.cls-8{fill:#8d908f;}.cls-3,.cls-17{fill:#f98200;}.cls-18{isolation:isolate;}.cls-4{fill:url(#Degradado_sin_nombre_13-4);}.cls-5{fill:#fff;}.cls-6{fill:#f60;}.cls-7{fill:url(#Degradado_sin_nombre_13-3);}.cls-9{opacity:.15;}.cls-9,.cls-14{fill:#2d4e7f;}.cls-10{fill:url(#Degradado_sin_nombre_13-5);}.cls-11{fill:url(#Degradado_sin_nombre_20);}.cls-12{fill:#f1f1f1;}.cls-13{fill:url(#Degradado_sin_nombre_10);}.cls-14{opacity:.13;}.cls-15{fill:url(#Degradado_sin_nombre_13-2);}</style><linearGradient id="Degradado_sin_nombre_10" x1="640.78" y1="128.11" x2="802.55" y2="128.11" gradientUnits="userSpaceOnUse"><stop offset="0" stop-color="#955df4"/><stop offset="1" stop-color="#5e61ee"/></linearGradient><linearGradient id="Degradado_sin_nombre_20" x1="631.11" y1="37.56" x2="812.21" y2="218.66" gradientUnits="userSpaceOnUse"><stop offset="0" stop-color="#95edf6"/><stop offset="1" stop-color="#477df0"/></linearGradient><linearGradient id="Degradado_sin_nombre_13" x1="570.02" y1="171.73" x2="486.48" y2="93.94" gradientTransform="translate(1180) rotate(-180) scale(1 -1)" gradientUnits="userSpaceOnUse"><stop offset="0" stop-color="#fff"/><stop offset="1" stop-color="#cfe4fd"/></linearGradient><linearGradient id="Degradado_sin_nombre_13-2" x1="499.1" y1="150.88" x2="575.1" y2="150.88" xlink:href="#Degradado_sin_nombre_13"/><linearGradient id="Degradado_sin_nombre_13-3" x1="710.38" y1="211.51" x2="748.14" y2="211.51" gradientTransform="matrix(1,0,0,1,0,0)" xlink:href="#Degradado_sin_nombre_13"/><linearGradient id="Degradado_sin_nombre_13-4" x1="743.11" y1="195.46" x2="712.22" y2="226.34" gradientTransform="matrix(1,0,0,1,0,0)" xlink:href="#Degradado_sin_nombre_13"/><linearGradient id="Degradado_sin_nombre_13-5" x1="716.31" y1="182.5" x2="743.72" y2="182.5" gradientTransform="matrix(1,0,0,1,0,0)" xlink:href="#Degradado_sin_nombre_13"/></defs><g class="cls-18"><g id="SSL_ILLUSTRATION"><rect class="cls-6" width="1024" height="330"/><path class="cls-14" d="m812.88,245.29c3.52,2.05,3.49,7.14-.05,9.14l-106.89,60.66c-3.17,1.83-7.08,1.82-10.24-.02l-163.67-94.96c-2.53-1.47-2.52-5.12.02-6.57l114.8-64.87,166.04,96.62Z"/><path class="cls-8" d="m808.65,244.6l-102.72,59.11c-3.17,1.83-7.08,1.82-10.24-.02l-163.67-94.96c-2.53-1.47-3.14-6.43-.61-7.88l103.27-57.48,173.97,98.18v3.05Z"/><path class="cls-8" d="m812.72,239.01l-4.07,2.54-169.91-102.76-3.56-118.02c0-2.98,6.79-5.77,9.37-4.28l163.54,94.2c2.86,1.65,4.62,4.69,4.62,7.99v120.32Z"/><path class="cls-12" d="m808.65,241.55l-173.97-101.23V21.38c0-2.98,3.23-4.85,5.81-3.36l163.54,94.2c2.86,1.65,4.62,4.69,4.62,7.99v121.33Z"/><path class="cls-13" d="m802.55,228.32l-161.77-93.6V27.9c-.18.02,161.77,93.6,161.77,93.6v106.83Z"/><path class="cls-11" d="m802.55,228.32l-161.77-93.6V27.9c-.18.02,161.77,93.6,161.77,93.6v106.83Z"/><path class="cls-3" d="m802.55,228.32l-161.77-93.6V27.9c-.18.02,161.77,93.6,161.77,93.6v106.83Z"/><path class="cls-12" d="m808.65,241.55l-102.72,59.11c-3.17,1.83-7.08,1.82-10.24-.02l-163.67-94.96c-2.53-1.47-2.52-5.12.02-6.57l102.64-58.79,173.97,101.23Z"/><polygon class="cls-2" points="599.03 239.62 621.23 227.08 647.42 242.97 626.24 256.01 599.03 239.62"/><g class="cls-16"><polygon class="cls-8" points="745.46 221.99 753.62 217.28 741.98 210.5 733.8 215.22 745.46 221.99"/><polygon class="cls-8" points="768.59 235.43 776.72 230.74 765.22 224.03 757.07 228.74 768.59 235.43"/><polygon class="cls-8" points="755.55 227.85 763.7 223.15 755.14 218.17 746.98 222.88 755.55 227.85"/><polygon class="cls-8" points="709.64 201.18 717.85 196.44 707.33 190.32 699.11 195.07 709.64 201.18"/><polygon class="cls-8" points="662.8 173.97 671.07 169.19 660.14 162.83 651.85 167.61 662.8 173.97"/><polygon class="cls-8" points="697.59 194.18 705.81 189.43 696.8 184.18 688.57 188.94 697.59 194.18"/><polygon class="cls-8" points="687.04 188.06 695.28 183.3 684.7 177.13 676.44 181.9 687.04 188.06"/><polygon class="cls-8" points="674.92 181.01 683.18 176.25 672.59 170.08 664.32 174.85 674.92 181.01"/><polygon class="cls-8" points="778.24 231.62 770.12 236.31 780.36 242.27 788.3 237.48 778.24 231.62"/><polygon class="cls-8" points="720.74 207.63 728.93 202.9 719.37 197.33 711.16 202.06 720.74 207.63"/><polygon class="cls-8" points="646.86 155.09 637.22 149.48 628.94 154.3 638.55 159.88 646.86 155.09"/><polygon class="cls-8" points="732.28 214.33 740.46 209.61 730.45 203.78 722.26 208.51 732.28 214.33"/><polygon class="cls-8" points="650.33 166.73 658.62 161.94 648.38 155.98 640.07 160.77 650.33 166.73"/><polygon class="cls-8" points="635.22 175.45 624.96 169.49 616.69 174.27 626.95 180.22 635.22 175.45"/><polygon class="cls-8" points="625.42 181.1 615.17 175.15 606.94 179.9 617.2 185.85 625.42 181.1"/><polygon class="cls-8" points="595.12 186.72 587.54 191.1 597.8 197.05 605.37 192.68 595.12 186.72"/><polygon class="cls-8" points="615.67 186.73 605.42 180.78 596.64 185.84 606.9 191.8 615.67 186.73"/><polygon class="cls-8" points="606.89 193.57 599.32 197.94 610.27 204.3 617.84 199.93 606.89 193.57"/><polygon class="cls-8" points="643.69 170.56 633.43 164.6 626.48 168.61 636.74 174.57 643.69 170.56"/><polygon class="cls-8" points="666.2 228.02 658.63 232.39 668.21 237.96 675.78 233.59 666.2 228.02"/><polygon class="cls-8" points="654.15 221.02 646.58 225.39 657.11 231.51 664.68 227.14 654.15 221.02"/><polygon class="cls-8" points="643.61 214.89 636.04 219.27 645.06 224.51 652.63 220.14 643.61 214.89"/><polygon class="cls-8" points="631.49 207.85 623.91 212.22 634.51 218.38 642.09 214.01 631.49 207.85"/><polygon class="cls-8" points="677.3 234.47 669.73 238.84 679.75 244.66 687.32 240.29 677.3 234.47"/><polygon class="cls-8" points="619.36 200.81 611.79 205.18 622.39 211.34 629.96 206.97 619.36 200.81"/><polygon class="cls-8" points="663.66 203.32 655.44 208.07 664.46 213.31 672.68 208.56 663.66 203.32"/><polygon class="cls-8" points="674.21 209.44 665.98 214.19 676.51 220.31 684.73 215.56 674.21 209.44"/><polygon class="cls-8" points="718.69 222.18 725.64 218.17 715.62 212.35 708.67 216.36 718.69 222.18"/><polygon class="cls-8" points="674.21 207.68 682.48 202.91 673.45 197.67 665.18 202.44 674.21 207.68"/><polygon class="cls-8" points="697.36 221.13 705.63 216.36 696.05 210.79 687.78 215.56 697.36 221.13"/><polygon class="cls-8" points="686.26 214.68 694.52 209.91 684 203.79 675.73 208.56 686.26 214.68"/><polygon class="cls-8" points="708.9 227.83 717.17 223.06 707.15 217.24 698.88 222.01 708.9 227.83"/><polygon class="cls-8" points="639.41 189.23 631.19 193.98 641.79 200.14 650.02 195.39 639.41 189.23"/><polygon class="cls-8" points="651.54 196.28 643.31 201.02 653.91 207.18 662.14 202.43 651.54 196.28"/><polygon class="cls-8" points="663.66 201.55 671.93 196.78 661.33 190.62 653.06 195.4 663.66 201.55"/><polygon class="cls-8" points="659.81 189.74 649.21 183.58 640.94 188.35 651.54 194.51 659.81 189.74"/><polygon class="cls-8" points="707.15 215.48 714.1 211.46 704.52 205.9 697.57 209.91 707.15 215.48"/><polygon class="cls-8" points="653.91 208.95 645.13 214.01 654.16 219.26 662.93 214.19 653.91 208.95"/><polygon class="cls-8" points="676.5 222.07 667.73 227.14 677.31 232.71 686.08 227.64 676.5 222.07"/><polygon class="cls-8" points="664.46 215.07 655.68 220.14 666.21 226.26 674.98 221.19 664.46 215.07"/><polygon class="cls-8" points="629.66 194.86 620.89 199.93 631.49 206.09 640.27 201.02 629.66 194.86"/><polygon class="cls-8" points="641.79 201.9 633.01 206.97 643.61 213.13 652.39 208.06 641.79 201.9"/><polygon class="cls-8" points="696.05 209.03 703 205.01 692.47 198.9 685.52 202.91 696.05 209.03"/><polygon class="cls-8" points="673.46 195.9 680.4 191.89 669.8 185.73 662.85 189.74 673.46 195.9"/><polygon class="cls-8" points="661.33 188.86 668.28 184.85 657.68 178.69 650.73 182.7 661.33 188.86"/><polygon class="cls-8" points="684 202.03 690.95 198.01 681.93 192.77 674.98 196.78 684 202.03"/><polygon class="cls-8" points="637.89 188.35 626.95 181.99 618.72 186.74 629.67 193.1 637.89 188.35"/><polygon class="cls-8" points="617.2 187.62 608.42 192.69 619.37 199.05 628.14 193.98 617.2 187.62"/><polygon class="cls-8" points="647.68 182.7 636.74 176.34 628.47 181.11 639.42 187.47 647.68 182.7"/><polygon class="cls-8" points="656.16 177.8 645.21 171.44 638.26 175.46 649.21 181.82 656.16 177.8"/><polygon class="cls-8" points="668.21 239.72 659.62 244.68 669.64 250.5 678.23 245.54 668.21 239.72"/><polygon class="cls-8" points="657.11 233.27 648.5 238.24 658.09 243.8 666.69 238.84 657.11 233.27"/><polygon class="cls-8" points="645.06 226.27 636.45 231.24 646.98 237.36 655.58 232.39 645.06 226.27"/><polygon class="cls-8" points="631.91 163.72 622.33 158.15 615.41 162.18 624.96 167.73 631.91 163.72"/><polygon class="cls-8" points="603.9 179.89 594.45 174.4 585.71 179.49 595.12 184.96 603.9 179.89"/><polygon class="cls-8" points="613.65 174.26 604.15 168.75 595.96 173.52 605.42 179.01 613.65 174.26"/><polygon class="cls-8" points="623.44 168.61 613.9 163.07 605.67 167.86 615.17 173.38 623.44 168.61"/><polygon class="cls-8" points="593.6 185.84 584.19 180.38 576.65 184.77 586.02 190.21 593.6 185.84"/><polygon class="cls-8" points="586.02 191.98 584.5 191.09 575.14 185.65 566.51 190.68 575.84 196.09 577.36 196.98 587.62 202.93 596.28 197.93 586.02 191.98"/><polygon class="cls-8" points="634.51 220.15 632.99 219.26 622.39 213.1 620.87 212.22 610.27 206.06 608.74 205.18 597.8 198.82 589.15 203.81 600.1 210.17 601.63 211.05 612.24 217.2 613.76 218.09 624.37 224.24 625.89 225.12 634.92 230.36 643.54 225.39 634.51 220.15"/><polygon class="cls-8" points="707.38 228.71 697.36 222.89 695.83 222.01 686.25 216.44 678.03 221.19 687.61 226.76 689.13 227.64 687.61 228.52 678.83 233.59 688.85 239.41 690.37 240.29 699.15 235.23 700.67 234.35 708.9 229.6 707.38 228.71"/><polygon class="cls-8" points="723.6 236.37 732.17 241.35 740.44 236.58 731.87 231.6 723.6 236.37"/><polygon class="cls-8" points="733.39 230.72 741.96 235.7 748.91 231.69 740.34 226.71 733.39 230.72"/><polygon class="cls-8" points="733.69 242.24 745.21 248.93 753.48 244.16 741.96 237.46 733.69 242.24"/><polygon class="cls-8" points="743.48 236.58 755 243.28 761.95 239.26 750.43 232.57 743.48 236.58"/><polygon class="cls-8" points="723.94 247.86 735.46 254.56 743.69 249.81 732.16 243.12 723.94 247.86"/><polygon class="cls-8" points="704.54 259.06 716.06 265.76 723.64 261.39 712.11 254.69 704.54 259.06"/><polygon class="cls-8" points="702.03 248.83 694.45 253.2 703.02 258.18 710.59 253.81 702.03 248.83"/><polygon class="cls-8" points="713.64 253.81 725.16 260.51 733.94 255.44 722.42 248.74 713.64 253.81"/><polygon class="cls-8" points="713.85 242 722.42 246.98 730.64 242.23 722.08 237.26 713.85 242"/><polygon class="cls-8" points="703.55 247.95 712.12 252.93 720.89 247.86 712.33 242.88 703.55 247.95"/><polygon class="cls-8" points="726.68 261.39 737.87 267.89 746.46 262.71 735.46 256.32 726.68 261.39"/><polygon class="cls-8" points="707.51 272.46 719.12 279.19 727.48 274.16 716.06 267.52 707.51 272.46"/><polygon class="cls-8" points="717.59 266.64 728.97 273.26 736.38 268.79 725.16 262.27 717.59 266.64"/><polygon class="cls-8" points="746.73 249.81 757.49 256.06 765.58 251.18 755 245.04 746.73 249.81"/><polygon class="cls-8" points="756.53 244.16 767.07 250.28 773.87 246.19 763.47 240.15 756.53 244.16"/><polygon class="cls-8" points="736.99 255.44 747.95 261.81 756 256.96 745.21 250.69 736.99 255.44"/><polygon class="cls-8" points="703.02 259.94 694.45 264.89 705.99 271.58 714.54 266.64 703.02 259.94"/><polygon class="cls-8" points="692.93 254.08 684.36 259.03 692.93 264.01 701.49 259.06 692.93 254.08"/></g><ellipse class="cls-9" cx="644.79" cy="216.31" rx="12.54" ry="26.6" transform="translate(205.01 735.09) rotate(-68.26)"/><path class="cls-1" d="m604.9,88.72l3.41-2.13s19.16,12.77,37.89,7.24c0,0,12.35,22.57,38.11,35.98v41.73s.21,40.24-41.94,41.51c0,0-33.64-43.43-34.06-87.71v-32.08l-3.41-4.54Z"/><path class="cls-15" d="m680.9,131.94v41.73s-.64,38.53-38.53,39.38c0,0-37.04-41.3-37.47-85.58v-38.75s19.16,12.77,37.89,7.24c0,0,12.35,22.57,38.11,35.98Z"/><path class="cls-17" d="m675.15,135.6v36.01s-.55,33.25-33.35,33.99c0,0-32.06-35.64-32.43-73.86v-33.44s16.58,11.02,32.8,6.25c0,0,10.69,19.47,32.98,31.05Z"/><path class="cls-8" d="m682.81,168.98c-5.91-7.53-14.51-10.65-19.2-6.97-4.61,3.62-3.71,12.47,1.95,19.93,2.28,2.85,4.89,4.98,4.89,4.98,5.19,4.02,11.01,5.16,14.58,2.36,4.69-3.68,3.69-12.77-2.22-20.3Z"/><path class="cls-5" d="m667.55,176.95c1.41,1.26,2.83,2.53,4.24,3.79-.37.01-.74.02-1.11.03,3.57-2.74,7.15-5.49,10.72-8.23.96-.74,2.06.74,1.09,1.48-3.57,2.74-7.15,5.49-10.72,8.23-.32.24-.81.3-1.11.03-1.41-1.26-2.83-2.53-4.24-3.79-.87-.78.25-2.33,1.13-1.54h0Z"/><path class="cls-7" d="m716.23,179.61l31.12,18.04c.49.28.79.8.79,1.37v41.1c0,.72-4.91,3.8-5.96,3.2l-27.52-19.42c-.5-.28-.8-.81-.8-1.38l-3.48-41.31c0-.99,5.47-1.49,5.85-1.61Z"/><path class="cls-4" d="m711.76,181.1l31.12,18.04c.49.28.79.8.79,1.37v41.1c0,1.21-1.3,1.97-2.36,1.38l-31.12-17.59c-.5-.28-.8-.81-.8-1.38v-41.55c0-1.22,1.32-1.98,2.37-1.37Z"/><path class="cls-3" d="m732.45,205.09c-1.72-3.99-5.75-6.09-9-4.69-3.25,1.4-4.49,5.77-2.78,9.76.73,1.71,1.89,3.06,3.23,3.95l-2.01,9.53,6.99,3.5-1.76-11.87c.86.06,1.73-.07,2.54-.42,3.25-1.4,4.49-5.77,2.78-9.76Z"/><path class="cls-10" d="m743.39,196.95l-3.42-.65c1.14-5.97-1.37-14.54-5.84-19.94-1.82-2.2-4.75-4.82-8.35-4.82-1.95,0-3.37.57-4.34,1.75-2.1,2.54-1.73,7.43-1.41,9.1l-3.42.66c-.06-.31-1.42-7.66,2.14-11.97,1.65-2,4.01-3.01,7.02-3.01,3.92,0,7.74,2.1,11.03,6.08,5.15,6.22,7.91,15.81,6.58,22.81Z"/><polygon class="cls-9" points="710.14 229.61 704.54 232.99 739.34 254.08 746.62 250.12 710.14 229.61"/></g></g></svg>