<?xml version="1.0" encoding="UTF-8"?><svg xmlns="http://www.w3.org/2000/svg" xmlns:xlink="http://www.w3.org/1999/xlink" viewBox="0 0 600 330"><defs><style>.cls-1{fill:url(#Degradado_sin_nombre_13);}.cls-1,.cls-2,.cls-3,.cls-4,.cls-5,.cls-6,.cls-7,.cls-8,.cls-9,.cls-10,.cls-11,.cls-12,.cls-13,.cls-14,.cls-15{stroke-width:0px;}.cls-2,.cls-16{opacity:.31;}.cls-2,.cls-16,.cls-9,.cls-14{mix-blend-mode:multiply;}.cls-2,.cls-8{fill:#8d908f;}.cls-3,.cls-17{fill:#f98200;}.cls-18{isolation:isolate;}.cls-4{fill:url(#Degradado_sin_nombre_13-4);}.cls-5{fill:#fff;}.cls-6{fill:#f60;}.cls-7{fill:url(#Degradado_sin_nombre_13-3);}.cls-9{opacity:.15;}.cls-9,.cls-14{fill:#2d4e7f;}.cls-10{fill:url(#Degradado_sin_nombre_13-5);}.cls-11{fill:url(#Degradado_sin_nombre_20);}.cls-12{fill:#f1f1f1;}.cls-13{fill:url(#Degradado_sin_nombre_10);}.cls-14{opacity:.13;}.cls-15{fill:url(#Degradado_sin_nombre_13-2);}</style><linearGradient id="Degradado_sin_nombre_10" x1="397.31" y1="133.82" x2="559.08" y2="133.82" gradientUnits="userSpaceOnUse"><stop offset="0" stop-color="#955df4"/><stop offset="1" stop-color="#5e61ee"/></linearGradient><linearGradient id="Degradado_sin_nombre_20" x1="387.65" y1="43.27" x2="568.74" y2="224.37" gradientUnits="userSpaceOnUse"><stop offset="0" stop-color="#95edf6"/><stop offset="1" stop-color="#477df0"/></linearGradient><linearGradient id="Degradado_sin_nombre_13" x1="813.49" y1="177.44" x2="729.95" y2="99.65" gradientTransform="translate(1180) rotate(-180) scale(1 -1)" gradientUnits="userSpaceOnUse"><stop offset="0" stop-color="#fff"/><stop offset="1" stop-color="#cfe4fd"/></linearGradient><linearGradient id="Degradado_sin_nombre_13-2" x1="742.57" y1="156.59" x2="818.57" y2="156.59" xlink:href="#Degradado_sin_nombre_13"/><linearGradient id="Degradado_sin_nombre_13-3" x1="466.91" y1="217.22" x2="504.67" y2="217.22" gradientTransform="matrix(1,0,0,1,0,0)" xlink:href="#Degradado_sin_nombre_13"/><linearGradient id="Degradado_sin_nombre_13-4" x1="499.64" y1="201.17" x2="468.76" y2="232.05" gradientTransform="matrix(1,0,0,1,0,0)" xlink:href="#Degradado_sin_nombre_13"/><linearGradient id="Degradado_sin_nombre_13-5" x1="472.85" y1="188.21" x2="500.25" y2="188.21" gradientTransform="matrix(1,0,0,1,0,0)" xlink:href="#Degradado_sin_nombre_13"/></defs><g class="cls-18"><g id="SSL_ILLUSTRATION"><rect class="cls-6" width="600" height="330"/><path class="cls-14" d="m569.41,251.01c3.52,2.05,3.49,7.14-.05,9.14l-106.89,60.66c-3.17,1.83-7.08,1.82-10.24-.02l-163.67-94.96c-2.53-1.47-2.52-5.12.02-6.57l114.8-64.87,166.04,96.62Z"/><path class="cls-8" d="m565.18,250.31l-102.72,59.11c-3.17,1.83-7.08,1.82-10.24-.02l-163.67-94.96c-2.53-1.47-3.14-6.43-.61-7.88l103.27-57.48,173.97,98.18v3.05Z"/><path class="cls-8" d="m569.25,244.72l-4.07,2.54-169.91-102.76-3.56-118.02c0-2.98,6.79-5.77,9.37-4.28l163.54,94.2c2.86,1.65,4.62,4.69,4.62,7.99v120.32Z"/><path class="cls-12" d="m565.18,247.26l-173.97-101.23V27.09c0-2.98,3.23-4.85,5.81-3.36l163.54,94.2c2.86,1.65,4.62,4.69,4.62,7.99v121.33Z"/><path class="cls-13" d="m559.08,234.04l-161.77-93.6V33.61c-.18.02,161.77,93.6,161.77,93.6v106.83Z"/><path class="cls-11" d="m559.08,234.04l-161.77-93.6V33.61c-.18.02,161.77,93.6,161.77,93.6v106.83Z"/><path class="cls-3" d="m559.08,234.04l-161.77-93.6V33.61c-.18.02,161.77,93.6,161.77,93.6v106.83Z"/><path class="cls-12" d="m565.18,247.26l-102.72,59.11c-3.17,1.83-7.08,1.82-10.24-.02l-163.67-94.96c-2.53-1.47-2.52-5.12.02-6.57l102.64-58.79,173.97,101.23Z"/><polygon class="cls-2" points="355.57 245.33 377.77 232.79 403.95 248.69 382.77 261.72 355.57 245.33"/><g class="cls-16"><polygon class="cls-8" points="501.99 227.7 510.15 222.99 498.51 216.21 490.33 220.93 501.99 227.7"/><polygon class="cls-8" points="525.13 241.14 533.26 236.45 521.75 229.74 513.6 234.45 525.13 241.14"/><polygon class="cls-8" points="512.08 233.56 520.23 228.86 511.67 223.88 503.52 228.59 512.08 233.56"/><polygon class="cls-8" points="466.17 206.89 474.38 202.15 463.87 196.03 455.64 200.78 466.17 206.89"/><polygon class="cls-8" points="419.33 179.68 427.6 174.91 416.67 168.54 408.38 173.32 419.33 179.68"/><polygon class="cls-8" points="454.12 199.89 462.35 195.14 453.33 189.89 445.1 194.65 454.12 199.89"/><polygon class="cls-8" points="443.58 193.77 451.81 189.01 441.23 182.84 432.97 187.61 443.58 193.77"/><polygon class="cls-8" points="431.45 186.72 439.71 181.96 429.12 175.79 420.85 180.56 431.45 186.72"/><polygon class="cls-8" points="534.77 237.33 526.65 242.03 536.9 247.98 544.83 243.19 534.77 237.33"/><polygon class="cls-8" points="477.27 213.34 485.47 208.61 475.9 203.04 467.69 207.78 477.27 213.34"/><polygon class="cls-8" points="403.39 160.8 393.75 155.19 385.47 160.01 395.08 165.6 403.39 160.8"/><polygon class="cls-8" points="488.81 220.05 496.99 215.32 486.98 209.5 478.79 214.23 488.81 220.05"/><polygon class="cls-8" points="406.86 172.44 415.15 167.65 404.91 161.69 396.61 166.48 406.86 172.44"/><polygon class="cls-8" points="391.75 181.16 381.49 175.21 373.22 179.98 383.48 185.94 391.75 181.16"/><polygon class="cls-8" points="381.96 186.82 371.7 180.86 363.47 185.61 373.73 191.57 381.96 186.82"/><polygon class="cls-8" points="351.65 192.44 344.08 196.81 354.33 202.77 361.9 198.39 351.65 192.44"/><polygon class="cls-8" points="372.21 192.44 361.95 186.49 353.17 191.55 363.43 197.51 372.21 192.44"/><polygon class="cls-8" points="363.43 199.28 355.85 203.65 366.8 210.01 374.37 205.64 363.43 199.28"/><polygon class="cls-8" points="400.22 176.27 389.97 170.31 383.02 174.33 393.27 180.28 400.22 176.27"/><polygon class="cls-8" points="422.73 233.73 415.16 238.1 424.74 243.67 432.31 239.3 422.73 233.73"/><polygon class="cls-8" points="410.69 226.73 403.11 231.1 413.64 237.22 421.21 232.85 410.69 226.73"/><polygon class="cls-8" points="400.14 220.61 392.57 224.98 401.59 230.22 409.16 225.85 400.14 220.61"/><polygon class="cls-8" points="388.02 213.56 380.44 217.94 391.05 224.09 398.62 219.72 388.02 213.56"/><polygon class="cls-8" points="433.84 240.18 426.26 244.55 436.28 250.37 443.86 246 433.84 240.18"/><polygon class="cls-8" points="375.89 206.52 368.32 210.89 378.92 217.05 386.5 212.68 375.89 206.52"/><polygon class="cls-8" points="420.19 209.03 411.97 213.78 420.99 219.02 429.22 214.27 420.19 209.03"/><polygon class="cls-8" points="430.74 215.16 422.51 219.9 433.04 226.02 441.26 221.27 430.74 215.16"/><polygon class="cls-8" points="475.22 227.89 482.17 223.88 472.15 218.06 465.2 222.07 475.22 227.89"/><polygon class="cls-8" points="430.74 213.39 439.01 208.62 429.98 203.38 421.72 208.15 430.74 213.39"/><polygon class="cls-8" points="453.89 226.84 462.16 222.07 452.58 216.5 444.31 221.27 453.89 226.84"/><polygon class="cls-8" points="442.79 220.39 451.06 215.62 440.53 209.5 432.26 214.28 442.79 220.39"/><polygon class="cls-8" points="465.43 233.55 473.7 228.77 463.68 222.95 455.41 227.72 465.43 233.55"/><polygon class="cls-8" points="395.95 194.94 387.72 199.69 398.32 205.85 406.55 201.1 395.95 194.94"/><polygon class="cls-8" points="408.07 201.99 399.84 206.74 410.45 212.89 418.67 208.15 408.07 201.99"/><polygon class="cls-8" points="420.2 207.27 428.46 202.49 417.86 196.33 409.59 201.11 420.2 207.27"/><polygon class="cls-8" points="416.34 195.45 405.74 189.29 397.47 194.06 408.07 200.22 416.34 195.45"/><polygon class="cls-8" points="463.68 221.19 470.63 217.18 461.05 211.61 454.1 215.62 463.68 221.19"/><polygon class="cls-8" points="410.44 214.66 401.67 219.73 410.69 224.97 419.47 219.9 410.44 214.66"/><polygon class="cls-8" points="433.04 227.78 424.26 232.85 433.84 238.42 442.62 233.35 433.04 227.78"/><polygon class="cls-8" points="420.99 220.78 412.21 225.85 422.74 231.97 431.51 226.9 420.99 220.78"/><polygon class="cls-8" points="386.2 200.57 377.42 205.64 388.02 211.8 396.8 206.73 386.2 200.57"/><polygon class="cls-8" points="398.32 207.62 389.54 212.68 400.14 218.84 408.92 213.77 398.32 207.62"/><polygon class="cls-8" points="452.58 214.74 459.53 210.73 449 204.61 442.05 208.62 452.58 214.74"/><polygon class="cls-8" points="429.99 201.61 436.94 197.6 426.33 191.44 419.39 195.45 429.99 201.61"/><polygon class="cls-8" points="417.86 194.57 424.81 190.56 414.21 184.4 407.26 188.41 417.86 194.57"/><polygon class="cls-8" points="440.53 207.74 447.48 203.73 438.46 198.48 431.51 202.5 440.53 207.74"/><polygon class="cls-8" points="394.42 194.06 383.48 187.7 375.25 192.45 386.2 198.81 394.42 194.06"/><polygon class="cls-8" points="373.73 193.33 364.95 198.4 375.9 204.76 384.68 199.69 373.73 193.33"/><polygon class="cls-8" points="404.22 188.41 393.27 182.05 385 186.82 395.95 193.18 404.22 188.41"/><polygon class="cls-8" points="412.69 183.51 401.74 177.15 394.79 181.17 405.74 187.53 412.69 183.51"/><polygon class="cls-8" points="424.74 245.43 416.15 250.39 426.18 256.21 434.76 251.25 424.74 245.43"/><polygon class="cls-8" points="413.64 238.98 405.04 243.95 414.62 249.51 423.22 244.55 413.64 238.98"/><polygon class="cls-8" points="401.59 231.98 392.98 236.96 403.51 243.07 412.12 238.1 401.59 231.98"/><polygon class="cls-8" points="388.44 169.43 378.86 163.86 371.95 167.89 381.49 173.44 388.44 169.43"/><polygon class="cls-8" points="360.43 185.6 350.98 180.11 342.24 185.2 351.65 190.67 360.43 185.6"/><polygon class="cls-8" points="370.18 179.97 360.68 174.46 352.49 179.23 361.95 184.72 370.18 179.97"/><polygon class="cls-8" points="379.97 174.32 370.43 168.78 362.2 173.57 371.7 179.09 379.97 174.32"/><polygon class="cls-8" points="350.13 191.55 340.72 186.09 333.19 190.48 342.55 195.92 350.13 191.55"/><polygon class="cls-8" points="342.55 197.69 341.03 196.8 331.67 191.36 323.04 196.39 332.37 201.8 333.89 202.69 344.16 208.64 352.81 203.65 342.55 197.69"/><polygon class="cls-8" points="391.04 225.86 389.52 224.97 378.92 218.82 377.4 217.93 366.8 211.77 365.28 210.89 354.33 204.53 345.68 209.52 356.64 215.88 358.16 216.76 368.77 222.91 370.29 223.8 380.9 229.95 382.42 230.83 391.46 236.07 400.07 231.1 391.04 225.86"/><polygon class="cls-8" points="463.91 234.43 453.89 228.6 452.37 227.72 442.79 222.15 434.56 226.9 444.14 232.47 445.66 233.35 444.14 234.23 435.36 239.3 445.38 245.12 446.9 246.01 455.68 240.94 457.2 240.06 465.43 235.31 463.91 234.43"/><polygon class="cls-8" points="480.13 242.09 488.7 247.06 496.97 242.29 488.4 237.31 480.13 242.09"/><polygon class="cls-8" points="489.93 236.43 498.49 241.41 505.44 237.4 496.87 232.42 489.93 236.43"/><polygon class="cls-8" points="490.22 247.95 501.75 254.64 510.01 249.87 498.49 243.17 490.22 247.95"/><polygon class="cls-8" points="500.01 242.29 511.54 248.99 518.49 244.98 506.96 238.28 500.01 242.29"/><polygon class="cls-8" points="480.47 253.57 492 260.27 500.22 255.52 488.7 248.83 480.47 253.57"/><polygon class="cls-8" points="461.07 264.78 472.6 271.47 480.17 267.1 468.65 260.4 461.07 264.78"/><polygon class="cls-8" points="458.56 254.54 450.99 258.91 459.55 263.89 467.12 259.52 458.56 254.54"/><polygon class="cls-8" points="470.17 259.52 481.69 266.22 490.47 261.15 478.95 254.46 470.17 259.52"/><polygon class="cls-8" points="470.38 247.71 478.95 252.69 487.18 247.94 478.61 242.97 470.38 247.71"/><polygon class="cls-8" points="460.08 253.66 468.65 258.64 477.43 253.57 468.86 248.6 460.08 253.66"/><polygon class="cls-8" points="483.22 267.1 494.4 273.6 502.99 268.42 491.99 262.03 483.22 267.1"/><polygon class="cls-8" points="464.04 278.17 475.65 284.91 484.01 279.87 472.59 273.23 464.04 278.17"/><polygon class="cls-8" points="474.12 272.35 485.5 278.97 492.91 274.5 481.69 267.98 474.12 272.35"/><polygon class="cls-8" points="503.27 255.52 514.02 261.77 522.11 256.9 511.53 250.75 503.27 255.52"/><polygon class="cls-8" points="513.06 249.87 523.6 256 530.4 251.9 520.01 245.86 513.06 249.87"/><polygon class="cls-8" points="493.52 261.15 504.48 267.52 512.53 262.67 501.74 256.4 493.52 261.15"/><polygon class="cls-8" points="459.55 265.66 450.99 270.6 462.52 277.29 471.07 272.35 459.55 265.66"/><polygon class="cls-8" points="449.46 259.8 440.89 264.74 449.46 269.72 458.03 264.77 449.46 259.8"/></g><ellipse class="cls-9" cx="401.33" cy="222.02" rx="12.54" ry="26.6" transform="translate(46.43 512.54) rotate(-68.26)"/><path class="cls-1" d="m361.43,94.43l3.41-2.13s19.16,12.77,37.89,7.24c0,0,12.35,22.57,38.11,35.98v41.73s.21,40.24-41.94,41.51c0,0-33.64-43.43-34.06-87.71v-32.08l-3.41-4.54Z"/><path class="cls-15" d="m437.43,137.65v41.73s-.64,38.53-38.53,39.38c0,0-37.04-41.3-37.47-85.58v-38.75s19.16,12.77,37.89,7.24c0,0,12.35,22.57,38.11,35.98Z"/><path class="cls-17" d="m431.69,141.31v36.01s-.55,33.25-33.35,33.99c0,0-32.06-35.64-32.43-73.86v-33.44s16.58,11.02,32.8,6.25c0,0,10.69,19.47,32.98,31.05Z"/><path class="cls-8" d="m439.34,174.69c-5.91-7.53-14.51-10.65-19.2-6.97-4.61,3.62-3.71,12.47,1.95,19.93,2.28,2.85,4.89,4.98,4.89,4.98,5.19,4.02,11.01,5.16,14.58,2.36,4.69-3.68,3.69-12.77-2.22-20.3Z"/><path class="cls-5" d="m424.08,182.66c1.41,1.26,2.83,2.53,4.24,3.79-.37.01-.74.02-1.11.03,3.57-2.74,7.15-5.49,10.72-8.23.96-.74,2.06.74,1.09,1.48-3.57,2.74-7.15,5.49-10.72,8.23-.32.24-.81.3-1.11.03-1.41-1.26-2.83-2.53-4.24-3.79-.87-.78.25-2.33,1.13-1.54h0Z"/><path class="cls-7" d="m472.76,185.32l31.12,18.04c.49.28.79.8.79,1.37v41.1c0,.72-4.91,3.8-5.96,3.2l-27.52-19.42c-.5-.28-.8-.81-.8-1.38l-3.48-41.31c0-.99,5.47-1.49,5.85-1.61Z"/><path class="cls-4" d="m468.29,186.81l31.12,18.04c.49.28.79.8.79,1.37v41.1c0,1.21-1.3,1.97-2.36,1.38l-31.12-17.59c-.5-.28-.8-.81-.8-1.38v-41.55c0-1.22,1.32-1.98,2.37-1.37Z"/><path class="cls-3" d="m488.99,210.8c-1.72-3.99-5.75-6.09-9-4.69-3.25,1.4-4.49,5.77-2.78,9.76.73,1.71,1.89,3.06,3.23,3.95l-2.01,9.53,6.99,3.5-1.76-11.87c.86.06,1.73-.07,2.54-.42,3.25-1.4,4.49-5.77,2.78-9.76Z"/><path class="cls-10" d="m499.92,202.66l-3.42-.65c1.14-5.97-1.37-14.54-5.84-19.94-1.82-2.2-4.75-4.82-8.35-4.82-1.95,0-3.37.57-4.34,1.75-2.1,2.54-1.73,7.43-1.41,9.1l-3.42.66c-.06-.31-1.42-7.66,2.14-11.97,1.65-2,4.01-3.01,7.02-3.01,3.92,0,7.74,2.1,11.03,6.08,5.15,6.22,7.91,15.81,6.58,22.81Z"/><polygon class="cls-9" points="466.68 235.32 461.07 238.7 495.87 259.8 503.15 255.83 466.68 235.32"/></g></g></svg>