<?xml version="1.0" encoding="UTF-8"?><svg xmlns="http://www.w3.org/2000/svg" xmlns:xlink="http://www.w3.org/1999/xlink" viewBox="0 0 2560 520"><defs><style>.cls-1{fill:url(#Degradado_sin_nombre_13);}.cls-1,.cls-2,.cls-3,.cls-4,.cls-5,.cls-6,.cls-7,.cls-8,.cls-9,.cls-10,.cls-11,.cls-12,.cls-13,.cls-14,.cls-15{stroke-width:0px;}.cls-2,.cls-16{opacity:.31;}.cls-2,.cls-16,.cls-9,.cls-14{mix-blend-mode:multiply;}.cls-2,.cls-8{fill:#8d908f;}.cls-3,.cls-17{fill:#f98200;}.cls-18{isolation:isolate;}.cls-4{fill:url(#Degradado_sin_nombre_13-4);}.cls-5{fill:#fff;}.cls-6{fill:#f60;}.cls-7{fill:url(#Degradado_sin_nombre_13-3);}.cls-9{opacity:.15;}.cls-9,.cls-14{fill:#2d4e7f;}.cls-10{fill:url(#Degradado_sin_nombre_13-5);}.cls-11{fill:url(#Degradado_sin_nombre_20);}.cls-12{fill:#f1f1f1;}.cls-13{fill:url(#Degradado_sin_nombre_10);}.cls-14{opacity:.13;}.cls-15{fill:url(#Degradado_sin_nombre_13-2);}</style><linearGradient id="Degradado_sin_nombre_10" x1="1567.56" y1="208.32" x2="1829.42" y2="208.32" gradientUnits="userSpaceOnUse"><stop offset="0" stop-color="#955df4"/><stop offset="1" stop-color="#5e61ee"/></linearGradient><linearGradient id="Degradado_sin_nombre_20" x1="1551.91" y1="61.74" x2="1845.06" y2="354.89" gradientUnits="userSpaceOnUse"><stop offset="0" stop-color="#95edf6"/><stop offset="1" stop-color="#477df0"/></linearGradient><linearGradient id="Degradado_sin_nombre_13" x1="-337.69" y1="278.93" x2="-472.93" y2="153.01" gradientTransform="translate(1180) rotate(-180) scale(1 -1)" gradientUnits="userSpaceOnUse"><stop offset="0" stop-color="#fff"/><stop offset="1" stop-color="#cfe4fd"/></linearGradient><linearGradient id="Degradado_sin_nombre_13-2" x1="-452.51" y1="245.18" x2="-329.48" y2="245.18" xlink:href="#Degradado_sin_nombre_13"/><linearGradient id="Degradado_sin_nombre_13-3" x1="1680.22" y1="343.32" x2="1741.34" y2="343.32" gradientTransform="matrix(1,0,0,1,0,0)" xlink:href="#Degradado_sin_nombre_13"/><linearGradient id="Degradado_sin_nombre_13-4" x1="1733.2" y1="317.34" x2="1683.21" y2="367.33" gradientTransform="matrix(1,0,0,1,0,0)" xlink:href="#Degradado_sin_nombre_13"/><linearGradient id="Degradado_sin_nombre_13-5" x1="1689.83" y1="296.36" x2="1734.19" y2="296.36" gradientTransform="matrix(1,0,0,1,0,0)" xlink:href="#Degradado_sin_nombre_13"/></defs><g class="cls-18"><g id="SSL_ILLUSTRATION"><rect class="cls-6" width="2560" height="520"/><path class="cls-14" d="m1846.14,398.01c5.69,3.31,5.65,11.55-.08,14.8l-173.03,98.19c-5.14,2.96-11.46,2.94-16.58-.03l-264.95-153.72c-4.09-2.37-4.08-8.29.03-10.64l185.83-105.01,268.78,156.4Z"/><path class="cls-8" d="m1839.3,396.89l-166.27,95.69c-5.14,2.96-11.46,2.94-16.58-.03l-264.95-153.72c-4.09-2.37-5.09-10.41-.98-12.76l167.16-93.05,281.62,158.93v4.94Z"/><path class="cls-8" d="m1845.89,387.83l-6.59,4.12-275.04-166.34-5.76-191.04c0-4.83,10.99-9.34,15.17-6.93l264.74,152.49c4.63,2.67,7.48,7.6,7.48,12.94v194.76Z"/><path class="cls-12" d="m1839.3,391.95l-281.62-163.87V35.54c0-4.83,5.22-7.85,9.41-5.44l264.74,152.49c4.63,2.67,7.48,7.6,7.48,12.94v196.41Z"/><path class="cls-13" d="m1829.42,370.54l-261.86-151.52V46.1c-.3.04,261.86,151.52,261.86,151.52v172.93Z"/><path class="cls-11" d="m1829.42,370.54l-261.86-151.52V46.1c-.3.04,261.86,151.52,261.86,151.52v172.93Z"/><path class="cls-3" d="m1829.42,370.54l-261.86-151.52V46.1c-.3.04,261.86,151.52,261.86,151.52v172.93Z"/><path class="cls-12" d="m1839.3,391.95l-166.27,95.69c-5.14,2.96-11.46,2.94-16.58-.03l-264.95-153.72c-4.09-2.37-4.08-8.29.03-10.64l166.15-95.17,281.62,163.87Z"/><polygon class="cls-2" points="1499.98 388.82 1535.92 368.53 1578.3 394.25 1544.02 415.35 1499.98 388.82"/><g class="cls-16"><polygon class="cls-8" points="1737.01 360.29 1750.22 352.66 1731.37 341.68 1718.14 349.32 1737.01 360.29"/><polygon class="cls-8" points="1774.46 382.04 1787.62 374.44 1768.99 363.59 1755.81 371.21 1774.46 382.04"/><polygon class="cls-8" points="1753.34 369.78 1766.53 362.16 1752.68 354.1 1739.48 361.72 1753.34 369.78"/><polygon class="cls-8" points="1679.02 326.6 1692.31 318.93 1675.29 309.02 1661.98 316.7 1679.02 326.6"/><polygon class="cls-8" points="1603.2 282.55 1616.59 274.82 1598.89 264.51 1585.48 272.26 1603.2 282.55"/><polygon class="cls-8" points="1659.52 315.27 1672.83 307.58 1658.24 299.09 1644.91 306.78 1659.52 315.27"/><polygon class="cls-8" points="1642.45 305.35 1655.79 297.65 1638.65 287.67 1625.29 295.38 1642.45 305.35"/><polygon class="cls-8" points="1622.82 293.95 1636.19 286.24 1619.05 276.25 1605.66 283.98 1622.82 293.95"/><polygon class="cls-8" points="1790.08 375.88 1776.92 383.47 1793.51 393.11 1806.36 385.36 1790.08 375.88"/><polygon class="cls-8" points="1696.99 337.04 1710.26 329.38 1694.77 320.36 1681.49 328.03 1696.99 337.04"/><polygon class="cls-8" points="1577.39 251.99 1561.79 242.9 1548.39 250.71 1563.95 259.75 1577.39 251.99"/><polygon class="cls-8" points="1715.68 347.89 1728.92 340.25 1712.72 330.82 1699.46 338.47 1715.68 347.89"/><polygon class="cls-8" points="1583.02 270.83 1596.43 263.08 1579.85 253.42 1566.41 261.18 1583.02 270.83"/><polygon class="cls-8" points="1558.55 284.95 1541.95 275.31 1528.57 283.03 1545.17 292.68 1558.55 284.95"/><polygon class="cls-8" points="1542.7 294.1 1526.1 284.46 1512.78 292.15 1529.38 301.79 1542.7 294.1"/><polygon class="cls-8" points="1493.64 303.2 1481.38 310.28 1497.98 319.92 1510.24 312.84 1493.64 303.2"/><polygon class="cls-8" points="1526.92 303.21 1510.32 293.57 1496.11 301.77 1512.71 311.42 1526.92 303.21"/><polygon class="cls-8" points="1512.7 314.27 1500.44 321.35 1518.17 331.65 1530.43 324.57 1512.7 314.27"/><polygon class="cls-8" points="1572.27 277.03 1555.67 267.39 1544.42 273.88 1561.02 283.53 1572.27 277.03"/><polygon class="cls-8" points="1608.71 370.05 1596.45 377.13 1611.96 386.13 1624.22 379.06 1608.71 370.05"/><polygon class="cls-8" points="1589.21 358.72 1576.95 365.79 1593.99 375.69 1606.25 368.62 1589.21 358.72"/><polygon class="cls-8" points="1572.14 348.8 1559.88 355.88 1574.49 364.36 1586.74 357.29 1572.14 348.8"/><polygon class="cls-8" points="1552.51 337.4 1540.25 344.48 1557.42 354.45 1569.67 347.37 1552.51 337.4"/><polygon class="cls-8" points="1626.68 380.49 1614.42 387.57 1630.64 396.99 1642.9 389.91 1626.68 380.49"/><polygon class="cls-8" points="1532.89 326 1520.63 333.08 1537.79 343.05 1550.05 335.97 1532.89 326"/><polygon class="cls-8" points="1604.6 330.06 1591.28 337.75 1605.89 346.23 1619.2 338.55 1604.6 330.06"/><polygon class="cls-8" points="1621.67 339.98 1608.35 347.66 1625.39 357.56 1638.71 349.88 1621.67 339.98"/><polygon class="cls-8" points="1693.68 360.59 1704.93 354.1 1688.71 344.68 1677.46 351.17 1693.68 360.59"/><polygon class="cls-8" points="1621.67 337.12 1635.05 329.4 1620.45 320.91 1607.06 328.64 1621.67 337.12"/><polygon class="cls-8" points="1659.15 358.89 1672.53 351.17 1657.02 342.16 1643.64 349.88 1659.15 358.89"/><polygon class="cls-8" points="1641.17 348.45 1654.56 340.73 1637.52 330.83 1624.13 338.55 1641.17 348.45"/><polygon class="cls-8" points="1677.83 369.75 1691.21 362.02 1674.99 352.6 1661.61 360.32 1677.83 369.75"/><polygon class="cls-8" points="1565.35 307.26 1552.03 314.95 1569.19 324.92 1582.51 317.23 1565.35 307.26"/><polygon class="cls-8" points="1584.97 318.66 1571.66 326.35 1588.82 336.32 1602.13 328.63 1584.97 318.66"/><polygon class="cls-8" points="1604.6 327.2 1617.98 319.48 1600.82 309.51 1587.44 317.24 1604.6 327.2"/><polygon class="cls-8" points="1598.36 308.08 1581.2 298.11 1567.81 305.83 1584.98 315.8 1598.36 308.08"/><polygon class="cls-8" points="1675 349.74 1686.25 343.25 1670.74 334.24 1659.49 340.73 1675 349.74"/><polygon class="cls-8" points="1588.81 339.17 1574.6 347.38 1589.21 355.86 1603.42 347.66 1588.81 339.17"/><polygon class="cls-8" points="1625.39 360.42 1611.18 368.62 1626.69 377.63 1640.9 369.43 1625.39 360.42"/><polygon class="cls-8" points="1605.88 349.09 1591.68 357.29 1608.72 367.19 1622.92 358.99 1605.88 349.09"/><polygon class="cls-8" points="1549.57 316.37 1535.36 324.57 1552.52 334.54 1566.73 326.34 1549.57 316.37"/><polygon class="cls-8" points="1569.19 327.77 1554.98 335.98 1572.14 345.94 1586.35 337.74 1569.19 327.77"/><polygon class="cls-8" points="1657.03 339.3 1668.27 332.81 1651.23 322.91 1639.98 329.4 1657.03 339.3"/><polygon class="cls-8" points="1620.45 318.05 1631.7 311.56 1614.54 301.59 1603.29 308.08 1620.45 318.05"/><polygon class="cls-8" points="1600.83 306.65 1612.08 300.16 1594.91 290.19 1583.66 296.68 1600.83 306.65"/><polygon class="cls-8" points="1637.52 327.97 1648.77 321.48 1634.16 312.99 1622.91 319.48 1637.52 327.97"/><polygon class="cls-8" points="1562.88 305.83 1545.16 295.53 1531.85 303.22 1549.57 313.52 1562.88 305.83"/><polygon class="cls-8" points="1529.38 304.65 1515.17 312.85 1532.89 323.14 1547.1 314.94 1529.38 304.65"/><polygon class="cls-8" points="1578.73 296.68 1561.01 286.38 1547.63 294.11 1565.35 304.4 1578.73 296.68"/><polygon class="cls-8" points="1592.45 288.76 1574.73 278.46 1563.48 284.96 1581.2 295.25 1592.45 288.76"/><polygon class="cls-8" points="1611.96 388.99 1598.05 397.02 1614.28 406.44 1628.18 398.41 1611.96 388.99"/><polygon class="cls-8" points="1593.98 378.55 1580.06 386.59 1595.58 395.59 1609.49 387.56 1593.98 378.55"/><polygon class="cls-8" points="1574.48 367.22 1560.54 375.27 1577.6 385.16 1591.52 377.12 1574.48 367.22"/><polygon class="cls-8" points="1553.2 265.96 1537.69 256.95 1526.5 263.47 1541.95 272.45 1553.2 265.96"/><polygon class="cls-8" points="1507.85 292.14 1492.55 283.25 1478.41 291.49 1493.64 300.34 1507.85 292.14"/><polygon class="cls-8" points="1523.64 283.03 1508.26 274.1 1495.01 281.82 1510.32 290.72 1523.64 283.03"/><polygon class="cls-8" points="1539.49 273.88 1524.04 264.9 1510.72 272.67 1526.1 281.6 1539.49 273.88"/><polygon class="cls-8" points="1491.18 301.77 1475.96 292.92 1463.75 300.03 1478.92 308.85 1491.18 301.77"/><polygon class="cls-8" points="1478.91 311.7 1476.45 310.27 1461.3 301.47 1447.33 309.6 1462.43 318.36 1464.9 319.79 1481.51 329.43 1495.52 321.34 1478.91 311.7"/><polygon class="cls-8" points="1557.41 357.3 1554.95 355.87 1537.79 345.9 1535.32 344.47 1518.16 334.5 1515.7 333.07 1497.98 322.78 1483.98 330.86 1501.71 341.15 1504.18 342.58 1521.35 352.54 1523.82 353.97 1540.99 363.93 1543.46 365.36 1558.08 373.84 1572.02 365.79 1557.41 357.3"/><polygon class="cls-8" points="1675.36 371.17 1659.14 361.75 1656.68 360.32 1641.17 351.31 1627.85 358.99 1643.36 368 1645.83 369.43 1643.36 370.86 1629.15 379.06 1645.37 388.49 1647.83 389.92 1662.04 381.71 1664.51 380.29 1677.82 372.6 1675.36 371.17"/><polygon class="cls-8" points="1701.63 383.57 1715.49 391.63 1728.88 383.9 1715.01 375.85 1701.63 383.57"/><polygon class="cls-8" points="1717.48 374.42 1731.35 382.48 1742.59 375.98 1728.73 367.93 1717.48 374.42"/><polygon class="cls-8" points="1717.96 393.06 1736.61 403.89 1749.99 396.17 1731.34 385.33 1717.96 393.06"/><polygon class="cls-8" points="1733.81 383.91 1752.46 394.74 1763.71 388.25 1745.06 377.41 1733.81 383.91"/><polygon class="cls-8" points="1702.18 402.17 1720.83 413.01 1734.14 405.32 1715.49 394.48 1702.18 402.17"/><polygon class="cls-8" points="1670.77 420.3 1689.43 431.14 1701.68 424.06 1683.03 413.22 1670.77 420.3"/><polygon class="cls-8" points="1666.7 403.74 1654.44 410.81 1668.31 418.87 1680.57 411.79 1666.7 403.74"/><polygon class="cls-8" points="1685.5 411.8 1704.15 422.63 1718.36 414.43 1699.71 403.6 1685.5 411.8"/><polygon class="cls-8" points="1685.85 392.68 1699.71 400.74 1713.03 393.05 1699.16 385 1685.85 392.68"/><polygon class="cls-8" points="1669.17 402.31 1683.04 410.37 1697.24 402.16 1683.38 394.11 1669.17 402.31"/><polygon class="cls-8" points="1706.61 424.06 1724.72 434.58 1738.62 426.2 1720.82 415.86 1706.61 424.06"/><polygon class="cls-8" points="1675.58 441.99 1694.37 452.89 1707.9 444.73 1689.42 433.99 1675.58 441.99"/><polygon class="cls-8" points="1691.89 432.57 1710.32 443.27 1722.31 436.04 1704.15 425.49 1691.89 432.57"/><polygon class="cls-8" points="1739.07 405.32 1756.48 415.44 1769.57 407.54 1752.45 397.6 1739.07 405.32"/><polygon class="cls-8" points="1754.92 396.17 1771.99 406.09 1782.99 399.45 1766.17 389.68 1754.92 396.17"/><polygon class="cls-8" points="1723.29 414.44 1741.04 424.75 1754.06 416.89 1736.6 406.75 1723.29 414.44"/><polygon class="cls-8" points="1668.3 421.73 1654.44 429.73 1673.11 440.56 1686.96 432.56 1668.3 421.73"/><polygon class="cls-8" points="1651.97 412.24 1638.1 420.25 1651.98 428.3 1665.84 420.29 1651.97 412.24"/></g><ellipse class="cls-9" cx="1574.06" cy="351.09" rx="20.3" ry="43.05" transform="translate(664.82 1683.08) rotate(-68.26)"/><path class="cls-1" d="m1509.48,144.55l5.51-3.45s31.02,20.68,61.34,11.72c0,0,19.99,36.53,61.69,58.24v67.54s.34,65.13-67.89,67.2c0,0-54.45-70.3-55.14-141.98v-51.92l-5.51-7.35Z"/><path class="cls-15" d="m1632.51,214.51v67.54s-1.03,62.38-62.38,63.75c0,0-59.96-66.86-60.65-138.54v-62.72s31.02,20.68,61.34,11.72c0,0,19.99,36.53,61.69,58.24Z"/><path class="cls-17" d="m1623.2,220.43v58.29s-.89,53.83-53.99,55.02c0,0-51.9-57.7-52.5-119.56v-54.13s26.85,17.84,53.09,10.11c0,0,17.3,31.53,53.39,50.26Z"/><path class="cls-8" d="m1635.59,274.47c-9.57-12.19-23.49-17.25-31.07-11.29-7.46,5.86-6.01,20.19,3.15,32.26,3.69,4.62,7.92,8.07,7.92,8.07,8.4,6.51,17.82,8.36,23.6,3.83,7.59-5.96,5.98-20.67-3.6-32.87Z"/><path class="cls-5" d="m1610.89,287.38c2.29,2.05,4.58,4.09,6.87,6.14-.6.02-1.2.03-1.8.05,5.78-4.44,11.57-8.88,17.35-13.33,1.56-1.2,3.34,1.19,1.77,2.39-5.78,4.44-11.57,8.88-17.35,13.33-.51.39-1.31.49-1.8.05-2.29-2.05-4.58-4.09-6.87-6.14-1.41-1.26.41-3.76,1.83-2.49h0Z"/><path class="cls-7" d="m1689.69,291.69l50.38,29.21c.79.46,1.27,1.3,1.27,2.21v66.53c0,1.17-7.95,6.15-9.65,5.19l-44.54-31.44c-.8-.45-1.3-1.3-1.3-2.23l-5.63-66.87c0-1.61,8.85-2.41,9.47-2.6Z"/><path class="cls-4" d="m1682.45,294.1l50.38,29.21c.79.46,1.27,1.3,1.27,2.21v66.53c0,1.96-2.11,3.19-3.82,2.23l-50.38-28.48c-.8-.45-1.3-1.3-1.3-2.23v-67.26c0-1.97,2.14-3.2,3.84-2.21Z"/><path class="cls-3" d="m1715.96,332.94c-2.78-6.46-9.3-9.86-14.56-7.59-5.26,2.27-7.27,9.34-4.49,15.8,1.19,2.76,3.07,4.96,5.23,6.4l-3.25,15.43,11.32,5.66-2.85-19.22c1.4.1,2.79-.11,4.11-.68,5.26-2.27,7.27-9.34,4.49-15.8Z"/><path class="cls-10" d="m1733.65,319.75l-5.53-1.05c1.84-9.66-2.23-23.54-9.46-32.28-2.95-3.56-7.68-7.8-13.51-7.8-3.15,0-5.45.93-7.02,2.83-3.4,4.12-2.8,12.03-2.28,14.73l-5.53,1.06c-.1-.5-2.3-12.4,3.46-19.38,2.67-3.24,6.5-4.88,11.36-4.88,6.35,0,12.52,3.4,17.85,9.85,8.33,10.07,12.81,25.6,10.65,36.93Z"/><polygon class="cls-9" points="1679.84 372.61 1670.77 378.09 1727.1 412.24 1738.88 405.83 1679.84 372.61"/></g></g></svg>