<?xml version="1.0" encoding="utf-8"?>
<!-- Generator: Adobe Illustrator 27.9.0, SVG Export Plug-In . SVG Version: 6.00 Build 0)  -->
<!DOCTYPE svg PUBLIC "-//W3C//DTD SVG 1.1//EN" "http://www.w3.org/Graphics/SVG/1.1/DTD/svg11.dtd" [
	<!ENTITY ns_extend "http://ns.adobe.com/Extensibility/1.0/">
	<!ENTITY ns_ai "http://ns.adobe.com/AdobeIllustrator/10.0/">
	<!ENTITY ns_graphs "http://ns.adobe.com/Graphs/1.0/">
	<!ENTITY ns_vars "http://ns.adobe.com/Variables/1.0/">
	<!ENTITY ns_imrep "http://ns.adobe.com/ImageReplacement/1.0/">
	<!ENTITY ns_sfw "http://ns.adobe.com/SaveForWeb/1.0/">
	<!ENTITY ns_custom "http://ns.adobe.com/GenericCustomNamespace/1.0/">
	<!ENTITY ns_adobe_xpath "http://ns.adobe.com/XPath/1.0/">
]>
<svg version="1.1" id="Layer_1" xmlns:x="&ns_extend;" xmlns:i="&ns_ai;" xmlns:graph="&ns_graphs;"
	 xmlns="http://www.w3.org/2000/svg" xmlns:xlink="http://www.w3.org/1999/xlink" x="0px" y="0px" width="400px" height="300px"
	 viewBox="0 0 400 300" style="enable-background:new 0 0 400 300;" xml:space="preserve">
<style type="text/css">
	.st0{fill:#FF6600;}
	.st1{opacity:0.13;fill:#2D4E7F;enable-background:new    ;}
	.st2{fill:#8D908F;}
	.st3{fill:#F1F1F1;}
	.st4{fill:url(#SVGID_1_);}
	.st5{fill:url(#SVGID_00000103946762758321073820000017200715545048709259_);}
	.st6{fill:#F98200;}
	.st7{opacity:0.31;fill:#8D908F;enable-background:new    ;}
	.st8{opacity:0.31;}
	.st9{opacity:0.15;fill:#2D4E7F;enable-background:new    ;}
	.st10{fill:url(#SVGID_00000074419347269538827040000004174300774934089896_);}
	.st11{fill:url(#SVGID_00000108279844401117177450000012003232884107599777_);}
	.st12{fill:#FFFFFF;}
	.st13{fill:url(#SVGID_00000031170973985382461090000017498061815486658704_);}
	.st14{fill:url(#SVGID_00000120544310987536076740000018441969705904717725_);}
	.st15{fill:url(#SVGID_00000028306152490751946590000000626145743673009338_);}
</style>
<metadata>
	<sfw  xmlns="&ns_sfw;">
		<slices></slices>
		<sliceSourceBounds  bottomLeftOrigin="true" height="300" width="400" x="0" y="0"></sliceSourceBounds>
	</sfw>
</metadata>
<rect class="st0" width="400" height="300"/>
<g>
	<path class="st1" d="M372.8,240.5c2.5,1.4,2.5,5,0,6.4l-75.3,42.7c-2.2,1.3-5,1.3-7.2,0L175,222.8c-1.8-1-1.8-3.6,0-4.6l80.9-45.7
		L372.8,240.5L372.8,240.5z"/>
	<path class="st2" d="M369.8,240l-72.3,41.6c-2.2,1.3-5,1.3-7.2,0L175,214.8c-1.8-1-2.2-4.5-0.4-5.5l72.7-40.5l122.5,69.1L369.8,240
		L369.8,240z"/>
	<path class="st2" d="M372.7,236.1l-2.9,1.8l-119.7-72.4l-2.5-83.1c0-2.1,4.8-4.1,6.6-3l115.2,66.4c2,1.2,3.3,3.3,3.3,5.6
		L372.7,236.1L372.7,236.1z"/>
	<path class="st3" d="M369.8,237.9l-122.5-71.3V82.8c0-2.1,2.3-3.4,4.1-2.4l115.2,66.4c2,1.2,3.3,3.3,3.3,5.6V237.9z"/>
	
		<linearGradient id="SVGID_1_" gradientUnits="userSpaceOnUse" x1="251.6078" y1="142.0033" x2="365.5438" y2="142.0033" gradientTransform="matrix(1 0 0 -1 0 300)">
		<stop  offset="0" style="stop-color:#955DF4"/>
		<stop  offset="1" style="stop-color:#5E61EE"/>
	</linearGradient>
	<path class="st4" d="M365.5,228.6l-113.9-65.9V87.4c-0.1,0,113.9,65.9,113.9,65.9V228.6z"/>
	
		<linearGradient id="SVGID_00000170965038619892289750000010917657865511344317_" gradientUnits="userSpaceOnUse" x1="244.7992" y1="205.7762" x2="372.3524" y2="78.2304" gradientTransform="matrix(1 0 0 -1 0 300)">
		<stop  offset="0" style="stop-color:#95EDF6"/>
		<stop  offset="1" style="stop-color:#477DF0"/>
	</linearGradient>
	<path style="fill:url(#SVGID_00000170965038619892289750000010917657865511344317_);" d="M365.5,228.6l-113.9-65.9V87.4
		c-0.1,0,113.9,65.9,113.9,65.9V228.6z"/>
	<path class="st6" d="M365.5,228.6l-113.9-65.9V87.4c-0.1,0,113.9,65.9,113.9,65.9V228.6z"/>
	<path class="st3" d="M369.8,237.9l-72.3,41.6c-2.2,1.3-5,1.3-7.2,0L175,212.6c-1.8-1-1.8-3.6,0-4.6l72.3-41.4L369.8,237.9
		L369.8,237.9z"/>
	<polygon class="st7" points="222.2,236.5 237.8,227.7 256.3,238.9 241.4,248.1 	"/>
	<g class="st8">
		<polygon class="st2" points="325.3,224.1 331.1,220.8 322.9,216 317.1,219.4 		"/>
		<polygon class="st2" points="341.6,233.6 347.4,230.3 339.3,225.6 333.5,228.9 		"/>
		<polygon class="st2" points="332.4,228.2 338.2,224.9 332.2,221.4 326.4,224.7 		"/>
		<polygon class="st2" points="300.1,209.5 305.9,206.1 298.5,201.8 292.7,205.2 		"/>
		<polygon class="st2" points="267.1,190.3 272.9,186.9 265.2,182.5 259.4,185.8 		"/>
		<polygon class="st2" points="291.6,204.5 297.4,201.2 291.1,197.5 285.3,200.8 		"/>
		<polygon class="st2" points="284.2,200.2 290,196.9 282.5,192.5 276.7,195.9 		"/>
		<polygon class="st2" points="275.7,195.3 281.5,191.9 274,187.6 268.2,190.9 		"/>
		<polygon class="st2" points="348.4,230.9 342.7,234.2 349.9,238.4 355.5,235 		"/>
		<polygon class="st2" points="307.9,214 313.7,210.7 307,206.7 301.2,210.1 		"/>
		<polygon class="st2" points="255.9,177 249.1,173 243.3,176.4 250,180.4 		"/>
		<polygon class="st2" points="316.1,218.7 321.8,215.4 314.8,211.3 309,214.6 		"/>
		<polygon class="st2" points="258.3,185.2 264.2,181.8 257,177.6 251.1,181 		"/>
		<polygon class="st2" points="247.7,191.3 240.5,187.1 234.6,190.5 241.9,194.7 		"/>
		<polygon class="st2" points="240.8,195.3 233.6,191.1 227.8,194.5 235,198.7 		"/>
		<polygon class="st2" points="219.4,199.3 214.1,202.4 221.3,206.6 226.7,203.5 		"/>
		<polygon class="st2" points="233.9,199.3 226.7,195.1 220.5,198.7 227.7,202.9 		"/>
		<polygon class="st2" points="227.7,204.1 222.4,207.2 230.1,211.7 235.5,208.6 		"/>
		<polygon class="st2" points="253.7,187.9 246.4,183.7 241.5,186.5 248.8,190.7 		"/>
		<polygon class="st2" points="269.5,228.4 264.2,231.4 270.9,235.4 276.3,232.3 		"/>
		<polygon class="st2" points="261,223.4 255.7,226.5 263.1,230.8 268.4,227.7 		"/>
		<polygon class="st2" points="253.6,219.1 248.3,222.2 254.6,225.9 260,222.8 		"/>
		<polygon class="st2" points="245.1,214.2 239.7,217.2 247.2,221.6 252.5,218.5 		"/>
		<polygon class="st2" points="277.3,232.9 272,236 279.1,240.1 284.4,237 		"/>
		<polygon class="st2" points="236.5,209.2 231.2,212.3 238.7,216.6 244,213.5 		"/>
		<polygon class="st2" points="267.7,211 261.9,214.3 268.3,218 274.1,214.7 		"/>
		<polygon class="st2" points="275.2,215.3 269.4,218.6 276.8,222.9 282.6,219.6 		"/>
		<polygon class="st2" points="306.5,224.2 311.4,221.4 304.3,217.3 299.4,220.2 		"/>
		<polygon class="st2" points="275.2,214 281,210.7 274.6,207 268.8,210.4 		"/>
		<polygon class="st2" points="291.5,223.5 297.3,220.2 290.5,216.2 284.7,219.6 		"/>
		<polygon class="st2" points="283.6,219 289.5,215.6 282.1,211.3 276.2,214.7 		"/>
		<polygon class="st2" points="299.6,228.2 305.4,224.9 298.4,220.8 292.5,224.1 		"/>
		<polygon class="st2" points="250.6,201 244.8,204.4 252.3,208.7 258.1,205.4 		"/>
		<polygon class="st2" points="259.2,206 253.4,209.4 260.9,213.7 266.6,210.3 		"/>
		<polygon class="st2" points="267.7,209.7 273.6,206.4 266.1,202 260.3,205.4 		"/>
		<polygon class="st2" points="265,201.4 257.5,197.1 251.7,200.4 259.2,204.8 		"/>
		<polygon class="st2" points="298.4,219.5 303.3,216.7 296.5,212.8 291.6,215.6 		"/>
		<polygon class="st2" points="260.9,214.9 254.7,218.5 261,222.2 267.2,218.6 		"/>
		<polygon class="st2" points="276.8,224.2 270.6,227.7 277.3,231.7 283.5,228.1 		"/>
		<polygon class="st2" points="268.3,219.2 262.1,222.8 269.5,227.1 275.7,223.6 		"/>
		<polygon class="st2" points="243.8,205 237.6,208.6 245.1,212.9 251.2,209.4 		"/>
		<polygon class="st2" points="252.3,210 246.1,213.5 253.6,217.9 259.8,214.3 		"/>
		<polygon class="st2" points="290.5,215 295.4,212.2 288,207.9 283.1,210.7 		"/>
		<polygon class="st2" points="274.6,205.7 279.5,202.9 272,198.6 267.2,201.4 		"/>
		<polygon class="st2" points="266.1,200.8 271,198 263.5,193.6 258.6,196.4 		"/>
		<polygon class="st2" points="282.1,210.1 286.9,207.2 280.6,203.5 275.7,206.4 		"/>
		<polygon class="st2" points="249.6,200.4 241.9,195.9 236.1,199.3 243.8,203.8 		"/>
		<polygon class="st2" points="235,199.9 228.8,203.5 236.5,208 242.7,204.4 		"/>
		<polygon class="st2" points="256.5,196.4 248.8,192 242.9,195.3 250.7,199.8 		"/>
		<polygon class="st2" points="262.4,193 254.7,188.5 249.8,191.3 257.5,195.8 		"/>
		<polygon class="st2" points="270.9,236.6 264.9,240.1 271.9,244.2 278,240.7 		"/>
		<polygon class="st2" points="263.1,232.1 257.1,235.6 263.8,239.5 269.9,236 		"/>
		<polygon class="st2" points="254.6,227.1 248.6,230.6 256,234.9 262,231.4 		"/>
		<polygon class="st2" points="245.4,183.1 238.6,179.2 233.7,182 240.5,185.9 		"/>
		<polygon class="st2" points="225.6,194.5 219,190.6 212.8,194.2 219.4,198 		"/>
		<polygon class="st2" points="232.5,190.5 225.8,186.6 220,190 226.7,193.9 		"/>
		<polygon class="st2" points="239.4,186.5 232.7,182.6 226.9,186 233.6,189.9 		"/>
		<polygon class="st2" points="218.4,198.7 211.8,194.8 206.4,197.9 213,201.7 		"/>
		<polygon class="st2" points="213,203 212,202.4 205.4,198.5 199.3,202.1 205.9,205.9 206.9,206.5 214.2,210.7 220.3,207.2 		"/>
		<polygon class="st2" points="247.2,222.8 246.1,222.2 238.7,217.9 237.6,217.2 230.1,212.9 229,212.3 221.3,207.8 215.2,211.3 
			223,215.8 224,216.4 231.5,220.8 232.6,221.4 240,225.7 241.1,226.3 247.5,230 253.6,226.5 		"/>
		<polygon class="st2" points="298.5,228.9 291.5,224.8 290.4,224.1 283.6,220.2 277.8,223.6 284.6,227.5 285.7,228.1 284.6,228.7 
			278.4,232.3 285.5,236.4 286.5,237 292.7,233.4 293.8,232.8 299.6,229.5 		"/>
		<polygon class="st2" points="309.9,234.3 316,237.8 321.8,234.4 315.8,230.9 		"/>
		<polygon class="st2" points="316.8,230.3 322.9,233.8 327.8,230.9 321.7,227.4 		"/>
		<polygon class="st2" points="317,238.4 325.2,243.1 331,239.7 322.9,235 		"/>
		<polygon class="st2" points="323.9,234.4 332.1,239.1 337,236.3 328.8,231.6 		"/>
		<polygon class="st2" points="310.2,242.3 318.3,247.1 324.1,243.7 316,239 		"/>
		<polygon class="st2" points="296.5,250.2 304.6,254.9 310,251.9 301.8,247.1 		"/>
		<polygon class="st2" points="294.7,243 289.4,246.1 295.4,249.6 300.8,246.5 		"/>
		<polygon class="st2" points="302.9,246.5 311,251.2 317.2,247.7 309.1,243 		"/>
		<polygon class="st2" points="303.1,238.2 309.1,241.7 314.9,238.4 308.9,234.9 		"/>
		<polygon class="st2" points="295.8,242.4 301.9,245.9 308,242.3 302,238.8 		"/>
		<polygon class="st2" points="312.1,251.9 320,256.4 326,252.8 318.3,248.3 		"/>
		<polygon class="st2" points="298.6,259.7 306.8,264.4 312.7,260.9 304.6,256.2 		"/>
		<polygon class="st2" points="305.7,255.6 313.7,260.2 318.9,257.1 311,252.5 		"/>
		<polygon class="st2" points="326.2,243.7 333.8,248.1 339.5,244.7 332.1,240.4 		"/>
		<polygon class="st2" points="333.1,239.7 340.6,244 345.3,241.2 338,236.9 		"/>
		<polygon class="st2" points="319.4,247.7 327.1,252.2 332.8,248.7 325.2,244.3 		"/>
		<polygon class="st2" points="295.4,250.8 289.4,254.3 297.5,259 303.6,255.6 		"/>
		<polygon class="st2" points="288.3,246.7 282.3,250.2 288.3,253.7 294.4,250.2 		"/>
	</g>
	
		<ellipse transform="matrix(0.3704 -0.9289 0.9289 0.3704 -44.2638 374.9118)" class="st9" cx="254.4" cy="220.1" rx="8.8" ry="18.7"/>
	
		<linearGradient id="SVGID_00000006680683510806316390000009478256099562801053_" gradientUnits="userSpaceOnUse" x1="1050.0881" y1="111.277" x2="991.2438" y2="166.0694" gradientTransform="matrix(-1 0 0 -1 1280 300)">
		<stop  offset="0" style="stop-color:#FFFFFF"/>
		<stop  offset="1" style="stop-color:#CFE4FD"/>
	</linearGradient>
	<path style="fill:url(#SVGID_00000006680683510806316390000009478256099562801053_);" d="M226.3,130.3l2.4-1.5c0,0,13.5,9,26.7,5.1
		c0,0,8.7,15.9,26.8,25.3v29.4c0,0,0.1,28.3-29.5,29.2c0,0-23.7-30.6-24-61.8v-22.6C228.7,133.5,226.3,130.3,226.3,130.3z"/>
	
		<linearGradient id="SVGID_00000078767649523560026180000004070181490210645416_" gradientUnits="userSpaceOnUse" x1="1000.1324" y1="125.9708" x2="1053.6614" y2="125.9708" gradientTransform="matrix(-1 0 0 -1 1280 300)">
		<stop  offset="0" style="stop-color:#FFFFFF"/>
		<stop  offset="1" style="stop-color:#CFE4FD"/>
	</linearGradient>
	<path style="fill:url(#SVGID_00000078767649523560026180000004070181490210645416_);" d="M279.9,160.7v29.4c0,0-0.4,27.1-27.1,27.7
		c0,0-26.1-29.1-26.4-60.3v-27.3c0,0,13.5,9,26.7,5.1C253,135.3,261.7,151.2,279.9,160.7z"/>
	<path class="st6" d="M275.8,163.3v25.4c0,0-0.4,23.4-23.5,23.9c0,0-22.6-25.1-22.8-52V137c0,0,11.7,7.8,23.1,4.4
		C252.6,141.4,260.1,155.1,275.8,163.3L275.8,163.3z"/>
	<path class="st2" d="M281.2,186.8c-4.2-5.3-10.2-7.5-13.5-4.9c-3.2,2.5-2.6,8.8,1.4,14c1.6,2,3.4,3.5,3.4,3.5
		c3.7,2.8,7.8,3.6,10.3,1.7C286.1,198.5,285.4,192.1,281.2,186.8L281.2,186.8z"/>
	<path class="st12" d="M270.5,192.4c1,0.9,2,1.8,3,2.7c-0.3,0-0.5,0-0.8,0c2.5-1.9,5-3.9,7.6-5.8c0.7-0.5,1.5,0.5,0.8,1
		c-2.5,1.9-5,3.9-7.6,5.8c-0.2,0.2-0.6,0.2-0.8,0c-1-0.9-2-1.8-3-2.7C269,192.9,269.8,191.8,270.5,192.4L270.5,192.4z"/>
	
		<linearGradient id="SVGID_00000085948010148393786070000005963051467194348434_" gradientUnits="userSpaceOnUse" x1="300.6213" y1="83.263" x2="327.2213" y2="83.263" gradientTransform="matrix(1 0 0 -1 0 300)">
		<stop  offset="0" style="stop-color:#FFFFFF"/>
		<stop  offset="1" style="stop-color:#CFE4FD"/>
	</linearGradient>
	<path style="fill:url(#SVGID_00000085948010148393786070000005963051467194348434_);" d="M304.7,194.3l21.9,12.7
		c0.3,0.2,0.6,0.6,0.6,1v28.9c0,0.5-3.5,2.7-4.2,2.3l-19.4-13.7c-0.4-0.2-0.6-0.6-0.6-1l-2.5-29.1
		C300.6,194.7,304.5,194.4,304.7,194.3L304.7,194.3z"/>
	
		<linearGradient id="SVGID_00000138536663505059632220000014984200563458918582_" gradientUnits="userSpaceOnUse" x1="323.6831" y1="94.5619" x2="301.9351" y2="72.8139" gradientTransform="matrix(1 0 0 -1 0 300)">
		<stop  offset="0" style="stop-color:#FFFFFF"/>
		<stop  offset="1" style="stop-color:#CFE4FD"/>
	</linearGradient>
	<path style="fill:url(#SVGID_00000138536663505059632220000014984200563458918582_);" d="M301.6,195.3l21.9,12.7
		c0.3,0.2,0.6,0.6,0.6,1v28.9c0,0.9-0.9,1.4-1.7,1l-21.9-12.4c-0.4-0.2-0.6-0.6-0.6-1v-29.3C299.9,195.4,300.9,194.9,301.6,195.3
		L301.6,195.3z"/>
	<path class="st6" d="M316.2,212.2c-1.2-2.8-4-4.3-6.3-3.3c-2.3,1-3.2,4.1-2,6.9c0.5,1.2,1.3,2.2,2.3,2.8l-1.4,6.7l4.9,2.5l-1.2-8.4
		c0.6,0,1.2,0,1.8-0.3C316.5,218.1,317.4,215,316.2,212.2L316.2,212.2z"/>
	
		<linearGradient id="SVGID_00000075128036565341627690000005890806938306207378_" gradientUnits="userSpaceOnUse" x1="304.8015" y1="103.6957" x2="324.1049" y2="103.6957" gradientTransform="matrix(1 0 0 -1 0 300)">
		<stop  offset="0" style="stop-color:#FFFFFF"/>
		<stop  offset="1" style="stop-color:#CFE4FD"/>
	</linearGradient>
	<path style="fill:url(#SVGID_00000075128036565341627690000005890806938306207378_);" d="M323.9,206.5l-2.4-0.5
		c0.8-4.2-1-10.2-4.1-14c-1.3-1.5-3.3-3.4-5.9-3.4c-1.4,0-2.4,0.4-3.1,1.2c-1.5,1.8-1.2,5.2-1,6.4l-2.4,0.5c0-0.2-1-5.4,1.5-8.4
		c1.2-1.4,2.8-2.1,4.9-2.1c2.8,0,5.5,1.5,7.8,4.3C322.9,194.8,324.8,201.6,323.9,206.5L323.9,206.5z"/>
	<polygon class="st9" points="300.5,229.5 296.5,231.9 321,246.7 326.2,243.9 	"/>
</g>
</svg>
