<?xml version="1.0" encoding="UTF-8"?><svg id="Layer_1" xmlns="http://www.w3.org/2000/svg" viewBox="0 0 200 200"><defs><style>.cls-1{fill:#fff;}</style></defs><path class="cls-1" d="m191.43,200h-90.06c-3.22-.99-6.19-2.6-7.23-5.93-.77-2.45-1.07-5.29-.68-7.82.66-4.31,2.02-8.51,3.12-12.89-.32,0-1.01,0-1.69,0-10.26,0-20.51.01-30.77,0-6.34-.01-10.83-4.2-10.84-10.04-.01-5.84,4.43-9.92,10.84-9.97.91,0,1.83.07,2.72-.03.45-.05,1.07-.29,1.26-.64,1.02-1.86,1.92-3.78,3.03-6.02-1.08,0-1.83,0-2.58,0-17.79,0-35.58,0-53.36,0-.97,0-1.95,0-2.92-.08-5.37-.4-9.84-3.9-11.56-9.04C.48,136.87.23,136.21,0,135.55c0-41.54,0-83.07,0-124.61,1-2.89,2.05-5.83,4.66-7.63C6.58,1.97,8.82,1.09,10.92,0c52.5,0,105.01,0,157.51,0,8.81,3.17,11.26,6.72,11.26,16.28,0,18.16-.02,36.32.05,54.47,0,1.06.42,2.3,1.04,3.16,5.46,7.53,8.56,15.86,8.78,25.19.12,5.07-.02,10.15.08,15.23.15,7.4-2.59,13.4-8.27,18.11-.54.45-1.04,1.19-1.17,1.87-1.23,6.55-4.62,11.64-10.13,15.35-1.76,1.19-3.52,2.39-5.63,3.82,1.83.32,3.28.52,4.7.84,13.35,3.03,23.29,10.29,28.27,23.39,1.14,3,1.71,6.28,2.07,9.48.78,6.86-1.41,10.15-8.04,12.82ZM39.72,103.41c.53-1.79-.05-2.99-1.32-4.2-5.39-5.17-9.66-11.05-11.16-18.59-.1-.51-.65-1.11-1.14-1.35-4.16-1.97-6.08-5.32-6.14-9.82-.05-3.45-.14-6.91.04-10.35.58-11.56,5.62-20.66,15.29-27.07.97-.64,1.37-1.27,1.39-2.46.15-9.01,7.6-16.26,16.59-16.25,9.07.01,16.48,7.36,16.53,16.5,0,1.18.32,1.85,1.31,2.5,5.64,3.71,9.71,8.75,12.44,14.91,3.57,8.03,3.42,16.47,2.59,24.93-.32,3.24-2.52,5.45-5.42,6.94-.61.31-1.36.94-1.48,1.53-1.53,7.62-5.86,13.53-11.32,18.72-1.34,1.28-1.56,2.52-1.17,4.05,13.57,2.33,23.05,9.18,26.28,23.08h13.21c-4.41-7.49-2.78-15.52-3.08-23.32-.31-8.04,1.21-15.73,4.97-23.13-1.57,0-2.8,0-4.03,0-6.82-.03-10.92-4.12-10.92-10.94,0-14.84,0-29.68,0-44.52,0-7.25,3.98-11.25,11.18-11.25,16.83,0,33.65,0,50.48,0,7.6,0,11.54,3.94,11.54,11.52,0,11.65,0,23.3.02,34.96,0,.68-.02,1.69.38,1.98,1.95,1.41,4.03,2.64,6.27,4.05v-2.08c0-16.34,0-32.68,0-49.02,0-5.6-2.49-8.07-8.1-8.07-50.09,0-100.19,0-150.28,0-5.53,0-8.02,2.46-8.02,7.94,0,36.58,0,73.17,0,109.75v2.17h6.79c3.33-14.02,12.79-20.79,26.28-23.1Zm106.62,29.76c2.92,0,5.85.14,8.76-.03,6.36-.36,12.7-.95,18.56-3.79,5.92-2.87,9.1-7.59,9.24-14.2.1-5.27.11-10.54,0-15.81-.06-2.39-.35-4.81-.84-7.15-3.61-17.04-19.51-29.41-36.98-28.86-17.14.54-32.49,13.95-34.62,31.07-.93,7.5-.35,15.18-.45,22.79,0,.25.09.51.14.77,1.35,7.13,6.21,10.84,12.68,12.87,7.67,2.4,15.6,2.46,23.53,2.34Zm-.13,60.18c14.16,0,28.31,0,42.47,0,3.16,0,4.4-1.25,4.27-4.4-.27-6.51-2.37-12.37-6.63-17.33-6.99-8.14-16.11-11.51-26.61-11.58-8.83-.06-17.67-.18-26.49.06-3.91.11-7.93.61-11.68,1.71-12.65,3.7-21.2,14.4-21.7,26.59-.16,3.81.92,4.95,4.68,4.95,13.9,0,27.79,0,41.69,0Zm-27.88-126.38c-.15-.1-.25-.22-.35-.22-1.36-.03-2.73-.02-4.09-.05-2.63-.05-4.08-1.3-4.04-3.45.04-2.07,1.42-3.2,4.02-3.21,4.74-.02,9.48.02,14.22-.03,1.01-.01,2.06-.22,3.02-.56,6.45-2.32,13.06-3.39,19.9-2.46,2.86.39,5.69,1.01,8.53,1.52.07-.17.15-.29.15-.41.01-11.52.05-23.03,0-34.55,0-2.32-1.38-3.55-3.76-3.56-17.47-.02-34.94-.03-52.41,0-2.45,0-3.7,1.32-3.7,3.8-.02,15.22-.02,30.45,0,45.67,0,2.58,1.24,3.84,3.82,3.89,2.6.05,5.2.05,7.79-.02.56-.02,1.25-.32,1.65-.73,1.77-1.81,3.46-3.7,5.26-5.64Zm-65.2,33.5c2.07-.85,4.04-1.29,5.59-2.35,7.37-5.05,12.86-11.48,14.29-20.69.48-3.07.87-3.41,3.97-4.12,2.15-.49,3.35-2.35,2.65-4.17-.67-1.74-2.03-2.4-3.83-2.43-5.68-.08-10.68-1.96-14.82-5.92-1.17-1.12-2.18-.81-3.5-.2-3.4,1.55-6.79,3.46-10.39,4.18-5.5,1.11-11.18,1.37-16.79,1.94-2.08.21-3.52,1.34-3.68,3.07-.16,1.74,1.11,3.19,3.14,3.58,2.58.49,3.23,1.06,3.62,3.79,1.3,9.01,6.56,15.4,13.62,20.5,1.78,1.28,4.03,1.89,6.12,2.83Zm26.75-40.03c-.74-10.34-5.13-18.48-14.06-23.61-9.29-5.33-18.74-4.73-27.57,1.23-7.81,5.26-11.48,12.91-11.66,22.25,3.49-.19,6.78-.29,10.07-.55,6.05-.48,11.99-1.42,17.27-4.74,4.31-2.71,7.83-2.45,11.67,1,2.72,2.44,5.86,3.77,9.49,3.99,1.48.09,2.96.26,4.78.43Zm34.3,79.55c-.51-1.72-1.16-3.18-1.33-4.7-.2-1.73-.98-2.01-2.53-2.01-33.83.04-67.66.03-101.49.03h-2.06c.19,4.41,2.87,6.67,7.63,6.67,32.6,0,65.19,0,97.79,0h1.99Zm6.06-2.34c1.63,1.85,3.01,4.04,4.95,5.47,3.75,2.77,7.7,5.29,11.76,7.58,6.09,3.45,12.43,3.6,18.56.14,4.22-2.39,8.34-5.01,12.26-7.87,1.88-1.37,3.18-3.54,4.74-5.34-17.57,3.54-34.71,3.53-52.28.02Zm-11.2,22.39h-2.11c-5.58,0-11.16,0-16.74,0-8.76,0-17.52-.01-26.28,0-2.5,0-3.83,1.09-3.95,3.08-.13,2.2,1.39,3.58,4.09,3.58,12.14.02,24.27.02,36.4-.03.69,0,1.52-.32,2.05-.77,2.12-1.8,4.15-3.71,6.54-5.88Zm-4.72-6.83c-1.03-2.08-1.89-3.96-2.91-5.74-.24-.42-1.02-.76-1.56-.76-6.68-.05-13.37-.05-20.05,0-.5,0-1.25.24-1.46.61-1.04,1.84-1.95,3.77-3.02,5.91h29Zm-45.83-37.17c2.67,2.73,5.19,5.32,7.7,7.89,2.16-3.8,4.46-7.85,6.98-12.28-2.73-.53-5.18-1.05-7.64-1.45-.48-.08-1.18.16-1.55.5-2.03,1.9-3.99,3.87-5.49,5.34Zm-25.01-4.08c2.4,4.21,4.75,8.34,7.21,12.65,2.56-2.59,4.89-4.93,7.21-7.29.18-.18.31-.4.72-.95-.98-.84-2.2-1.52-2.89-2.56-2.9-4.34-6.7-4.08-10.87-2.41-.41.16-.82.33-1.38.56ZM62.76,28.22c-.4-4.7-5.08-8.45-9.91-8.23-4.7.22-9.1,4.09-9,8,6.26-1.76,12.51-1.79,18.92.22Zm45.79,118.45c1.01,2.06,1.73,3.8,2.71,5.39.38.62,1.3,1.13,2.04,1.25,2.03.31,4.31-.1,6.11.66,3.1,1.32,5.68-.33,8.82-.39-3.2-2.37-6.05-4.49-8.92-6.59-.25-.18-.59-.31-.89-.31-3.16-.02-6.31-.01-9.87-.01Zm-80.9-31.46c-3.84,3.08-6.24,6.68-7.23,11.28h13.67c-2.2-3.86-4.28-7.49-6.44-11.28Zm58.46,11.34c-1.07-4.7-3.47-8.36-7.3-11.34-2.18,3.85-4.26,7.51-6.43,11.34h13.74Zm-39.34-21.37c2.44,2.42,4.49,4.46,6.28,6.23,2-1.97,4.06-4,6.06-5.98-3.85,1.61-7.87,1.62-12.34-.25Zm11.27,21.34c-1.73-1.7-3.34-3.29-4.63-4.55-1.56,1.49-3.16,3.03-4.74,4.55h9.37Z"/><path class="cls-1" d="m131.31,33.3c-5.78,0-11.56.01-17.34,0-2.7,0-4.12-1.18-4.12-3.31,0-2.14,1.45-3.34,4.13-3.35,11.63-.01,23.25,0,34.88,0,.32,0,.65,0,.97.03,2,.25,3.26,1.66,3.16,3.53-.1,1.79-1.37,3.06-3.36,3.08-6.1.05-12.21.02-18.31.02h0Z"/><path class="cls-1" d="m139.88,43.35c3.11,0,6.22-.02,9.34,0,2.32.02,3.77,1.29,3.79,3.26.03,1.98-1.42,3.36-3.7,3.37-6.35.03-12.71.03-19.06,0-2.28,0-3.79-1.35-3.82-3.28-.04-1.98,1.53-3.34,3.93-3.36,3.18-.02,6.35,0,9.53,0Z"/><path class="cls-1" d="m114.78,43.37c.65,0,1.3-.06,1.94.01,1.77.18,2.98,1.51,3.01,3.23.03,1.71-1.15,3.15-2.9,3.33-1.15.12-2.33.08-3.49.04-2.16-.08-3.5-1.4-3.48-3.36.02-1.95,1.37-3.2,3.56-3.27.45-.02.91,0,1.36,0,0,0,0,.01,0,.02Z"/></svg>