<?xml version="1.0" encoding="UTF-8"?><svg id="Layer_1" xmlns="http://www.w3.org/2000/svg" viewBox="0 0 200 200"><defs><style>.cls-1{fill:#fff;}</style></defs><path class="cls-1" d="m37.09,107.94v26c.61,0,1.23,0,1.84,0,5.59,0,11.18.01,16.76,0,6.68-.02,11.2,4.63,10.91,11.41-.32,7.35-.79,14.69-1.2,22.03-.38,6.95-.75,13.91-1.16,20.86-.33,5.53-5.05,8.92-10.36,7.48-3.15-.86-5.33-3.21-5.58-6.51-.59-7.59-1.03-15.19-1.53-22.79-.24-3.69-.49-7.39-.74-11.3-.83,0-1.53,0-2.23,0-8.06,0-16.11.02-24.17,0-9.97-.03-16.18-6.23-16.2-16.2-.02-13.34-.03-26.69,0-40.03.02-9.95,6.26-16.19,16.25-16.11,4.53.03,9.11.06,13.58.7,5.31.76,9.85,3.51,13.95,6.96,3.04,2.55,6.05,5.13,9.17,7.58.8.63,1.93,1.06,2.94,1.13,7.84.54,15.69.92,23.53,1.47,4.26.29,6.8,2.96,7.07,7.12.22,3.42-2.34,6.74-6.14,7.47-2.53.49-5.16.54-7.75.71-5.77.38-11.54.82-17.31,1.04-4.56.17-8.88-.83-12.78-3.37-2.82-1.84-5.68-3.62-8.85-5.64Zm-27.68,10.89c0,6.77-.02,13.54,0,20.31.02,4.58,2.45,8.16,6.49,9.42,1.28.4,2.68.53,4.03.54,9.36.04,18.71.01,28.07.03,2.82,0,3.71.91,3.86,3.71.1,1.88.25,3.77.38,5.65.65,9.61,1.31,19.22,1.94,28.83.1,1.48.77,2.35,2.26,2.37,1.47.02,1.98-.87,2.05-2.26.75-13.91,1.56-27.81,2.3-41.72.23-4.42-1.1-5.72-5.55-5.73-6.82,0-13.65.02-20.47-.01-2.51-.01-3.55-.97-3.56-3.35-.03-11.26-.04-22.52,0-33.78.01-3.22,2.48-4.47,5.18-2.71,3.97,2.59,7.95,5.18,11.86,7.85,3.24,2.21,6.76,3.21,10.67,2.94,4.6-.32,9.21-.59,13.81-.9,3.05-.2,6.1-.36,9.13-.69.57-.06,1.06-.83,1.59-1.28-.52-.47-1.01-.99-1.59-1.39-.22-.16-.63-.04-.96-.06-8.11-.48-16.22-.89-24.31-1.49-1.3-.1-2.75-.76-3.78-1.59-3.59-2.9-6.85-6.23-10.58-8.92-2.85-2.06-6.04-4.1-9.38-4.88-4.23-.99-8.75-.87-13.15-.93-6.4-.09-10.3,3.92-10.32,10.34-.02,6.57,0,13.15,0,19.72Z"/><path class="cls-1" d="m154.1,155.12c-.41,6.3-.82,12.39-1.21,18.48-.31,4.94-.56,9.88-.91,14.81-.32,4.53-3.57,7.59-8.02,7.65-4.32.06-7.63-2.86-7.96-7.43-.6-8.31-.98-16.63-1.45-24.94-.34-6.04-.62-12.09-1.04-18.13-.45-6.54,3.95-11.51,10.53-11.59,6.17-.08,12.34-.02,18.67-.02v-25.78c-.5.24-.95.4-1.35.65-2.47,1.56-4.95,3.11-7.39,4.71-3.83,2.5-8.09,3.61-12.57,3.41-7.92-.34-15.82-.92-23.73-1.46-4.43-.31-7.46-3.43-7.42-7.48.04-3.89,2.78-7.05,6.67-7.33,7.9-.57,15.82-.95,23.72-1.53,1.13-.08,2.4-.56,3.29-1.26,3.42-2.69,6.68-5.6,10.07-8.32,5.61-4.49,11.98-6.93,19.23-6.84,2.53.03,5.07-.01,7.6,0,8.94.08,15.41,6.08,15.55,15.07.23,14.06.22,28.12,0,42.18-.14,8.98-6.56,15.03-15.51,15.11-8.19.07-16.37.02-24.56.02-.7,0-1.4,0-2.22,0Zm-13.35,10.45s-.01,0-.02,0c.41,7.21.83,14.43,1.2,21.64.08,1.58.77,2.48,2.36,2.46,1.36-.01,1.87-.86,1.95-2.17.75-11.43,1.55-22.86,2.3-34.29.22-3.35.92-4.1,4.27-4.1,9.29,0,18.59.03,27.88-.01,6.04-.03,9.98-4.03,9.99-10.09.02-13.41.02-26.82,0-40.24,0-5.95-3.91-9.92-9.84-10.05-2.14-.05-4.29.03-6.43-.02-6.03-.13-11.39,1.75-16.09,5.45-3.93,3.1-7.72,6.38-11.68,9.44-1.01.78-2.4,1.39-3.65,1.48-8.29.6-16.6,1.01-24.9,1.58-.7.05-1.36.85-2.03,1.3.52.47,1,1.32,1.55,1.36,8.29.6,16.59,1.18,24.9,1.56,3.03.14,5.89-.88,8.45-2.56,4.24-2.78,8.44-5.61,12.7-8.37,2.42-1.57,4.71-.33,4.89,2.57.02.32.01.65.01.98,0,10.81,0,21.62,0,32.42,0,3.25-.77,4.02-4.03,4.02-6.37.01-12.74,0-19.11,0-4.74,0-6.02,1.3-5.78,6.1.32,6.5.73,13,1.1,19.5Z"/><path class="cls-1" d="m110.82,76.33c-1.81-.18-3.7-.07-5.4-.58-3.76-1.13-7.42-.5-11.14.05-6.72.99-13.06-.47-19.1-3.32-1.57-.74-2.98-.9-4.64-.54-4.5.98-9.03,1.85-13.55,2.73-3.37.66-5.11-1.37-3.96-4.64,1.49-4.23,3.09-8.42,4.5-12.67.31-.94.34-2.21-.03-3.11-9.43-22.93,5.86-46.15,28.18-49.51,4.54-.68,9.05-.37,13.55.63,1.2.27,2.58.28,3.78-.01,19.65-4.89,39.01,6.94,43.42,26.66,1.86,8.34.97,16.4-2.81,24.13-.4.82-.46,2.02-.21,2.91,1.23,4.31,2.64,8.57,3.97,12.85,1.11,3.6-.4,5.31-4.11,4.59-1.33-.26-2.64-.69-3.95-1.03-1.07-.28-2.16-.48-3.2-.84-5-1.74-9.79-2.33-14.96.04-3.07,1.41-6.81,1.34-10.25,1.93-.03-.09-.05-.17-.08-.26Zm-50.53-8.49c4.44-.85,8.43-1.68,12.45-2.34.98-.16,2.21-.05,3.07.41,3.77,2.02,7.72,3.53,11.96,3.91,20.1,1.83,35.23-15.84,32.85-33.53-2.23-16.56-18.52-28.81-34.91-25.61-19.79,3.86-30.21,23.92-21.98,42.37.69,1.54.77,2.94.2,4.5-1.2,3.28-2.33,6.6-3.63,10.29Zm79.87,1.51c-1.16-3.67-2.12-6.91-3.22-10.09-.62-1.8-.42-3.31.52-4.99,9.5-16.87.38-38.4-18.34-43.22-2.66-.69-5.47-.81-8.21-1.19-.03.19-.05.38-.08.57,10.15,7.35,15.7,17.26,15.8,29.82.1,12.59-5.51,22.44-16.14,30.04,5.2-.32,9.68-1.14,13.77-3.4,1.6-.89,3.09-1.04,4.83-.53,3.53,1.04,7.1,1.93,11.07,2.99Z"/><path class="cls-1" d="m21.44,196.08c-4.74,0-9.48.01-14.22,0-2.83-.01-3.78-.93-3.78-3.71-.01-9.37-.01-18.73,0-28.1,0-2.69.96-3.68,3.61-3.69,9.55-.02,19.09-.02,28.64,0,2.76,0,3.7.99,3.7,3.81.01,9.3.01,18.6,0,27.91,0,2.8-.95,3.77-3.73,3.78-4.74.02-9.48,0-14.22,0Zm-11.95-6.23h23.71v-22.98H9.49v22.98Z"/><path class="cls-1" d="m179.08,162.75c4.74,0,9.48-.02,14.22,0,2.85.01,3.69.87,3.7,3.75.01,8.59.01,17.18,0,25.76,0,2.89-.93,3.79-3.89,3.8-9.42.01-18.84.01-28.25,0-2.89,0-3.8-.95-3.81-3.9,0-8.52,0-17.05,0-25.57,0-2.97.85-3.84,3.81-3.85,4.74-.02,9.48,0,14.22,0Zm11.79,27.11v-20.99h-23.68v20.99h23.68Z"/><path class="cls-1" d="m100.22,128.49c-10.91,0-21.81.02-32.72-.04-1.03,0-2.35-.28-2.99-.95-.62-.65-.89-2.08-.64-2.98.22-.8,1.26-1.51,2.11-1.95.63-.32,1.52-.18,2.3-.18,21.29,0,42.59,0,63.88,0,.71,0,1.43,0,2.14.1,1.67.25,2.48,1.33,2.53,2.96.05,1.63-1.03,2.8-2.71,3.01-.58.07-1.17.04-1.75.04-10.71,0-21.42,0-32.14,0Z"/><path class="cls-1" d="m161.39,63.58c.01-7.58,6.37-13.95,13.89-13.94,7.52.02,13.88,6.42,13.87,13.98,0,7.56-6.39,13.95-13.92,13.93-7.55-.02-13.86-6.39-13.85-13.97Zm13.83-7.81c-4.21.01-7.83,3.63-7.85,7.83-.01,4.18,3.63,7.85,7.82,7.87,4.3.03,7.98-3.66,7.92-7.94-.06-4.25-3.65-7.77-7.89-7.76Z"/><path class="cls-1" d="m39.05,63.52c.04,7.6-6.2,13.95-13.79,14.03-7.5.08-13.95-6.32-13.97-13.87-.02-7.57,6.28-13.98,13.81-14.04,7.53-.05,13.91,6.3,13.95,13.88Zm-13.9-7.76c-4.24.01-7.81,3.58-7.83,7.82-.02,4.22,3.57,7.85,7.79,7.88,4.27.03,8.01-3.7,7.95-7.94-.06-4.21-3.69-7.78-7.91-7.76Z"/><path class="cls-1" d="m89.06,45.15c4.73,0,9.47-.05,14.2.04.96.02,2.28.31,2.75.96.58.8.86,2.31.48,3.17-.37.84-1.72,1.74-2.65,1.75-9.99.12-19.98.1-29.96.06-1.97,0-3.01-1.21-2.97-3.08.04-1.8,1.01-2.85,2.96-2.87,5.06-.06,10.12-.02,15.18-.02,0,0,0,0,0-.01Z"/><path class="cls-1" d="m88.76,35.44c-2.46,0-4.93.03-7.39,0-2.33-.03-3.47-1.05-3.48-3.01-.02-1.98,1.12-3.06,3.41-3.08,5.06-.04,10.12-.04,15.17,0,2.28.02,3.42,1.13,3.39,3.1-.03,1.95-1.18,2.95-3.52,2.98-2.53.03-5.06,0-7.59,0Z"/></svg>