<?xml version="1.0" encoding="UTF-8"?><svg id="Layer_1" xmlns="http://www.w3.org/2000/svg" viewBox="0 0 200 200"><defs><style>.cls-1{fill:#fff;}</style></defs><path class="cls-1" d="m59.24,199c-1.81-1.04-2.29-2.64-2.27-4.65.07-7.99.28-15.99-.02-23.96-.69-18.33,12.63-30.84,27.34-32.92,10.91-1.54,22.06-1.68,32.98.21,13.58,2.34,26.65,14.27,26.21,32.01-.2,8.21-.08,16.44,0,24.66.02,2.01-.47,3.61-2.27,4.65H59.24Zm62.56-6.56c0-1.03,0-1.86,0-2.69,0-7.15-.01-14.3.01-21.44,0-2.32,1.22-3.77,3.07-3.84,1.94-.07,3.26,1.44,3.36,3.85.02.54,0,1.08,0,1.61,0,6.69,0,13.37,0,20.06,0,.81,0,1.61,0,2.41h8.33c0-9.63.7-19.2-.18-28.62-1.01-10.81-13.18-20.43-24.04-20.16-.83,2.63-1.33,5.5-2.64,7.95-1.07,2.01-1.11,3.82-.93,5.91.6,6.89,1.16,13.78,1.55,20.68.07,1.23-.45,2.77-1.23,3.71-1.91,2.29-4.11,4.35-6.25,6.44-1.83,1.79-3.4,1.81-5.19.05-2.2-2.15-4.42-4.28-6.43-6.59-.72-.83-1.17-2.19-1.15-3.3.08-3.37.35-6.75.73-10.11.9-7.84,1.66-15.63-2.13-23.03-.3-.59-.49-1.24-.71-1.8-12.01.36-23.08,9.8-24.12,21.52-.8,8.92-.28,17.96-.33,26.95,0,.12.16.25.27.41h8.41c0-.93,0-1.75,0-2.57,0-7.15-.02-14.3.01-21.44.01-2.45,1.31-3.95,3.26-3.94,1.93,0,3.16,1.5,3.17,3.98.02,7.15,0,14.3,0,21.44,0,.82,0,1.64,0,2.55h43.15Zm-21.55-10.95c2.81-1.79,4.22-4.03,3.44-7.61-.6-2.74-.49-5.63-.72-8.46-.25-3.1-.53-6.2-.8-9.34h-3.8c-.13.98-.29,1.86-.36,2.76-.38,4.89-.45,9.82-1.21,14.64-.57,3.57.27,6.09,3.47,8.01Zm-5.15-38.21c.42,5,1.24,6.2,4.2,6.23,5.05.05,5.48-.38,6.07-6.23h-10.27Z"/><g><path class="cls-1" d="m140.2,15.32c-.9-3.28-1.7-6.23-2.52-9.19-.45-1.63-.63-3.18.87-4.43,1.44-1.19,2.86-.67,4.3-.01,9.78,4.45,19.56,8.89,29.34,13.36,3.43,1.57,3.89,3.21,1.76,6.28-6.17,8.89-12.32,17.8-18.61,26.6-.73,1.02-2.26,1.89-3.49,2.01-1.74.17-2.55-1.41-2.98-2.99-.83-3.04-1.66-6.07-2.6-9.48-1.83.5-3.56.98-5.3,1.45-2.44.67-4.85,1.52-7.33,1.97-3.83.69-6.25,3.04-8.1,6.21-3.6,6.18-5.54,12.96-7.19,19.85-.82,3.43-1.44,6.91-2.18,10.36-.35,1.6-1.42,2.85-3.01,2.58-1.15-.19-2.76-1.15-3.12-2.14-3.75-10.57-6.29-21.4-5.1-32.73,1.07-10.28,5.17-18.94,14.99-23.47,4.76-2.19,10.04-3.26,15.09-4.81,1.6-.49,3.23-.89,5.16-1.42Zm5.68-5.15c-.12.52-.17.6-.15.66.44,1.71.9,3.42,1.33,5.13.74,2.9.06,4.14-2.82,4.94-5.4,1.51-10.78,3.05-16.21,4.43-9.58,2.43-15,8.65-16.31,18.3-.54,3.99-.31,8.1-.22,12.15.05,2.19.54,4.37.84,6.56.91-1.6,1.33-3.15,1.81-4.68,1.79-5.66,3.82-11.21,7.36-16.05,2.02-2.77,4.4-5.18,7.8-6.16,5.97-1.71,11.97-3.34,17.98-4.95,2.41-.64,3.73.17,4.47,2.65.56,1.88,1.05,3.79,1.73,6.28,4.72-6.78,9.11-13.08,13.64-19.59-7.22-3.29-14.18-6.45-21.26-9.68Z"/><path class="cls-1" d="m64.96,16.75c5.05,1.55,10.33,2.62,15.09,4.81,9.82,4.52,13.91,13.18,14.99,23.47,1.18,11.33-1.35,22.15-5.1,32.73-.35.99-1.96,1.95-3.12,2.14-1.59.26-2.66-.98-3.01-2.58-.75-3.45-1.36-6.93-2.18-10.36-1.64-6.88-3.59-13.67-7.19-19.85-1.85-3.17-4.27-5.52-8.1-6.21-2.48-.45-4.89-1.3-7.33-1.97-1.74-.48-3.47-.95-5.3-1.45-.93,3.41-1.77,6.44-2.6,9.48-.43,1.58-1.23,3.16-2.98,2.99-1.24-.12-2.77-.99-3.49-2.01-6.29-8.8-12.44-17.71-18.61-26.6-2.13-3.08-1.67-4.71,1.76-6.28,9.77-4.47,19.56-8.91,29.34-13.36,1.44-.66,2.86-1.18,4.3.01,1.5,1.24,1.33,2.8.87,4.43-.82,2.95-1.62,5.91-2.52,9.19,1.93.53,3.56.93,5.16,1.42Zm-32.1,3.1c4.53,6.5,8.92,12.8,13.64,19.59.68-2.48,1.17-4.39,1.73-6.28.74-2.47,2.06-3.29,4.47-2.65,6,1.61,12,3.23,17.98,4.95,3.4.98,5.78,3.39,7.8,6.16,3.54,4.85,5.57,10.4,7.36,16.05.48,1.53.9,3.08,1.81,4.68.29-2.19.79-4.37.84-6.56.09-4.05.32-8.16-.22-12.15-1.3-9.65-6.72-15.87-16.31-18.3-5.43-1.38-10.81-2.93-16.21-4.43-2.88-.8-3.56-2.04-2.82-4.94.44-1.71.89-3.42,1.33-5.13.02-.06-.03-.14-.15-.66-7.09,3.22-14.04,6.39-21.26,9.68Z"/></g><path class="cls-1" d="m74.99,109.91c.12-14.03,11.48-25.32,25.44-25.27,13.76.05,25.13,11.61,25.03,25.43-.1,13.88-11.49,25.19-25.31,25.14-13.82-.05-25.27-11.57-25.16-25.3Zm25.32,18.84c10.29-.06,18.78-8.61,18.71-18.85-.07-10.43-8.62-18.88-18.99-18.8-10.23.08-18.67,8.7-18.59,18.97.08,10.29,8.63,18.74,18.88,18.68Z"/></svg>