<?xml version="1.0" encoding="UTF-8"?><svg id="Layer_1" xmlns="http://www.w3.org/2000/svg" viewBox="0 0 200 200"><defs><style>.cls-1{fill:#fff;}</style></defs><path class="cls-1" d="m52.63,200c-1.22-.42-2.49-.73-3.65-1.28-5.09-2.43-8.11-6.44-8.5-12.13-.23-3.37-.13-6.77-.09-10.15.02-2,1.22-3.24,2.89-3.24,1.67,0,2.85,1.24,2.9,3.24.07,2.8,0,5.6.03,8.4.07,5.84,3.58,9.29,9.43,9.3,21.64,0,43.27,0,64.91,0h2.01c-.73-.76-1.18-1.25-1.65-1.72-7.35-7.37-14.68-14.75-22.07-22.09-2.03-2.01-3.17-4.22-2.63-7.16.09-.47-.14-1.17-.48-1.53-1.58-1.72-3.24-3.36-4.86-5-26.89,18.98-61.62,10.97-78.85-12.43-16.57-22.52-14.23-54.42,5.64-74.11,20.22-20.03,51.93-22.05,74.44-4.86,23.44,17.9,30.08,52.42,11.68,78.45,1.72,1.68,3.44,3.43,5.24,5.1.29.27.95.31,1.39.23,2.43-.46,4.54.2,6.26,1.91,8.93,8.91,17.89,17.8,26.72,26.81,4.02,4.1,4.74,9.8,2.28,15.01-.19.39-.39.78-.71,1.41.89,0,1.51,0,2.14,0,12.02,0,24.04,0,36.06,0,6.09,0,9.59-3.43,9.59-9.53.02-46.35,0-92.71,0-139.06,0-.83-.12-1.66-.21-2.68-1.22,0-2.31,0-3.39,0-7.41,0-14.81.01-22.22,0-6.92-.02-11.03-4.14-11.04-11.05-.01-7.81,0-15.62,0-23.44,0-2.51,0-2.52-2.59-2.52-7.54,0-15.07,0-22.61,0-24.89,0-49.77,0-74.66,0-6.47,0-9.82,3.35-9.83,9.87-.01,8.98,0,17.97,0,26.95,0,.71.02,1.44-.08,2.14-.25,1.66-1.25,2.56-2.93,2.52-1.59-.04-2.53-.93-2.74-2.5-.1-.7-.08-1.43-.08-2.14,0-8.4.24-16.81-.07-25.19C39.97,8.94,43.39,2.35,52.63,0h103.7c4.52,1,7.72,3.95,10.85,7.14,8.56,8.72,17.17,17.4,25.91,25.94,3.89,3.8,5.58,8.16,5.57,13.58-.08,45.61-.04,91.22-.05,136.83,0,1.04-.01,2.08-.09,3.12-.44,5.94-4.32,10.85-9.98,12.67-.73.24-1.46.48-2.2.72H52.63Zm55.92-89.43c.15-28.04-22.56-51-50.6-51.16-28.11-.16-50.92,22.53-51.1,50.82-.18,27.89,22.49,50.98,50.19,51.12,28.54.14,51.36-22.35,51.52-50.78Zm32.67,76.3c.05-2.16-.8-3.92-2.29-5.41-8.58-8.6-17.18-17.19-25.73-25.82-1.01-1.02-1.72-1.05-2.71,0-2.38,2.49-4.79,4.96-7.31,7.3-1.37,1.28-1.39,2.11-.02,3.46,7.59,7.48,15.08,15.06,22.62,22.6,1.15,1.15,2.24,2.37,3.49,3.4,2.36,1.95,5.03,2.35,7.82,1.01,2.71-1.3,4.04-3.54,4.14-6.53Zm46.63-149.95c-8.68-8.69-17.4-17.43-26.09-26.13,0,.35,0,.92,0,1.48,0,6.44,0,12.88,0,19.33,0,3.95,1.45,5.4,5.41,5.41,6.43.01,12.86,0,19.29,0,.55,0,1.11-.07,1.39-.09Zm-87.52,111.55c-1.65,1.57-3.18,3.04-4.45,4.25,1.4,1.56,2.85,3.17,4.33,4.82,1.57-1.59,3.06-3.1,4.51-4.57-1.49-1.53-2.98-3.06-4.39-4.51Z"/><path class="cls-1" d="m94.04,19.04c9.35,0,18.7,0,28.05,0,4.69,0,7.1,2.38,7.15,7.04.03,3.32.05,6.64,0,9.95-.07,4.28-2.56,6.81-6.83,6.81-18.96.03-37.92.03-56.88,0-4.26,0-6.79-2.55-6.86-6.8-.06-3.45-.06-6.9,0-10.34.08-4.19,2.56-6.65,6.74-6.66,9.54-.03,19.09,0,28.63,0Zm-29.55,5.98c0,3.29.11,6.47-.04,9.63-.09,1.87.49,2.4,2.38,2.4,18.05-.07,36.1-.04,54.15-.04.45,0,.95.11,1.35-.04.4-.15,1-.56,1-.86.07-3.68.04-7.36.04-11.08h-58.88Z"/><path class="cls-1" d="m151.46,93.74c8.12,0,16.24,0,24.36,0,2.45,0,3.83,1.05,3.85,2.88.02,1.84-1.39,2.97-3.79,2.97-16.24,0-32.48,0-48.71,0-2.42,0-3.75-1.11-3.71-3.01.04-1.83,1.31-2.84,3.65-2.84,8.12,0,16.24,0,24.36,0Z"/><path class="cls-1" d="m151.51,117.22c-7.92,0-15.85,0-23.77,0-.58,0-1.18.04-1.75-.04-1.46-.21-2.36-1.07-2.51-2.55-.16-1.57.59-2.65,2.08-3.1.67-.2,1.41-.16,2.12-.16,15.85,0,31.69,0,47.54,0,2.96,0,4.42.96,4.44,2.92.02,1.97-1.41,2.94-4.38,2.94-7.92,0-15.85,0-23.77,0Z"/><path class="cls-1" d="m151.5,76.1c8.12,0,16.24,0,24.35,0,2.44,0,3.82,1.07,3.81,2.9-.02,1.82-1.43,2.94-3.84,2.94-16.24.01-32.47,0-48.71,0-1.69,0-3.13-.43-3.58-2.31-.48-2.02.87-3.53,3.22-3.53,7.79-.02,15.59-.01,23.38-.01.45,0,.91,0,1.36,0Z"/><path class="cls-1" d="m138.82,134.86c-3.96,0-7.93.02-11.89,0-2.23-.01-3.43-1.01-3.48-2.8-.05-1.85,1.23-3.03,3.49-3.04,7.99-.03,15.98-.03,23.97,0,2.28,0,3.54,1.19,3.49,3.05-.06,1.78-1.26,2.77-3.5,2.79-4.03.02-8.06,0-12.08,0Z"/><path class="cls-1" d="m28.01,136.03c4.33-7.41,12.11-7.08,18.94-8.76.35-2.22.24-4.03-1.67-5.64-2.32-1.96-3.57-4.73-4.41-7.67-.23-.79-.96-1.43-1.36-2.19-.73-1.38-1.91-2.77-1.99-4.21-.25-4.74-.18-9.5-.06-14.25.16-6.54,5.42-12.16,11.92-12.48,5.18-.26,10.39-.15,15.58-.07,3.1.05,5.18,1.73,6.46,4.54.28.6.92,1.18,1.54,1.46,2.95,1.33,4.66,3.5,4.7,6.78.06,4.62.14,9.25-.03,13.86-.05,1.32-.58,3-1.5,3.81-1.29,1.12-1.62,2.49-2.3,3.85-1.18,2.35-2.38,4.85-4.18,6.68-1.64,1.67-2.15,3.21-1.71,5.44,6.91,1.67,14.85,1.28,19.21,8.88.33-.28.64-.47.87-.74,18.82-22.33,6.02-58.13-22.66-63.43-22-4.06-42.37,9.91-46.27,31.73-.42,2.38-1.75,3.58-3.56,3.23-1.89-.37-2.7-1.88-2.19-4.47,2.86-14.43,10.69-25.32,23.73-32.04,27.06-13.94,59.23,1.99,64.95,31.98,4.81,25.21-13.2,49.81-38.68,52.83-23.84,2.83-45.12-12.57-49.87-36.08-.45-2.25.29-3.8,2.02-4.2,1.86-.42,3.19.63,3.68,3.02,1.4,6.74,4.2,12.78,8.84,18.15Zm29.63,13.64c8.68-.05,16.52-2.66,23.58-7.79,1.29-.94,1.37-1.82.69-3.09-1.02-1.9-2.61-3.08-4.63-3.59-2.82-.71-5.68-1.3-8.55-1.82-.52-.09-1.24.25-1.69.6-6.08,4.73-13.05,4.77-19.17.1-.46-.35-1.18-.67-1.69-.57-3.04.61-6.13,1.14-9.06,2.14-1.4.48-2.61,1.8-3.67,2.95-1.04,1.13-.8,2.18.58,3.19,7.04,5.14,14.87,7.81,23.62,7.89Zm14.2-48.62c-3.2-.36-6.36-1.2-9.11.46-4.64,2.82-9.64,3.19-14.81,3.01-1.52-.05-3.05,0-5.07,0,.47,1.21.56,2.36,1.11,2.67,1.72.96,2.17,2.43,2.41,4.17.77,5.57,5.56,9.71,11.17,9.72,5.69,0,10.27-3.99,11.23-9.88.27-1.68.65-3.17,2.37-3.96.32-.15.66-.66.67-1.01.07-1.68.03-3.36.03-5.17Zm-28.53-2.39c2.67,0,5.25-.04,7.83.01,2.85.06,5.5-.49,8-1.97,2.75-1.63,5.81-2.15,9-1.9,1.15.09,2.3.13,3.43.2.34-2.14.2-2.6-1.19-2.76-2.58-.3-3.89-1.7-4.42-4.18-.12-.59-1.05-1.42-1.62-1.43-4.87-.09-9.74-.15-14.6.06-3.37.14-6.09,2.95-6.41,6.29-.17,1.8-.03,3.62-.03,5.69Zm9.72,28.07c-.04.55.06,1.24-.16,1.81-.66,1.65.28,2.22,1.58,2.63,2.75.86,5.35.63,7.76-.96-.13-1.24-.26-2.38-.37-3.47h-8.8Z"/></svg>