<?xml version="1.0" encoding="UTF-8"?><svg id="Layer_1" xmlns="http://www.w3.org/2000/svg" viewBox="0 0 200 200"><defs><style>.cls-1{fill:#fff;}</style></defs><path class="cls-1" d="m200,139.45c-.79,1.4-1.4,2.93-2.39,4.16-2.09,2.6-5.05,3.19-8.24,3.19-33.2-.02-66.41,0-99.61,0-5.6,0-11.2.02-16.8,0-6.56-.02-10.36-3.76-10.37-10.27-.02-24.35-.02-48.7,0-73.05,0-6.52,3.81-10.27,10.37-10.27,38.87-.01,77.73.01,116.6-.03,5.33,0,8.67,2.49,10.43,7.37v78.91Zm-6.04-7.99v-62.92c-.98.75-1.76,1.34-2.53,1.94-14.87,11.51-29.72,23.05-44.62,34.52-9.81,7.55-21.34,7.5-31.12-.07-15.08-11.66-30.15-23.34-45.23-35.01-.54-.42-1.09-.81-1.85-1.38v62.87c.74-.53,1.27-.89,1.78-1.28,9.93-7.69,19.86-15.38,29.79-23.06.46-.36.92-.74,1.43-1.02,1.46-.81,2.83-.59,3.81.74.98,1.33.77,2.7-.4,3.87-.41.41-.9.75-1.36,1.11-6.64,5.14-13.27,10.28-19.91,15.42-4.99,3.86-9.97,7.72-14.97,11.59.97,2.08,2.7,2.16,4.51,2.16,38.67,0,77.33,0,116,0,.52,0,1.1.13,1.55-.05,1.07-.43,2.08-1.01,3.42-1.68-.93-.78-1.41-1.21-1.91-1.6-11.11-8.6-22.23-17.2-33.34-25.81-.61-.48-1.5-.94-1.67-1.57-.3-1.08-.5-2.45-.07-3.39.58-1.27,2.01-1.59,3.38-.96.7.32,1.33.81,1.94,1.29,10.4,8.04,20.78,16.09,31.39,24.3ZM68.25,60.91c.71.49.93.63,1.14.79,16.82,13.02,33.64,26.05,50.48,39.06,2.94,2.27,6.26,3.65,10.01,3.94,5.37.41,9.87-1.54,14.03-4.78,16.12-12.54,32.3-25.03,48.45-37.53.5-.39.97-.82,1.45-1.22-1-2.08-2.76-2.1-4.55-2.1-38.59,0-77.19,0-115.78,0-.59,0-1.23-.14-1.74.07-1.07.42-2.06,1.03-3.48,1.78Z"/><path class="cls-1" d="m0,124.22c.86-1.64,2.25-2.1,4.04-2.09,15.95.04,31.9.02,47.85.03.58,0,1.36-.15,1.71.15.86.73,2.06,1.66,2.12,2.57.06.92-.95,2.1-1.79,2.8-.53.45-1.62.32-2.45.32-15.69.02-31.38,0-47.07.03-1.79,0-3.3-.4-4.42-1.86v-1.95Z"/><path class="cls-1" d="m34.21,106.49c5.98,0,11.96-.07,17.94.06,1.1.02,2.47.55,3.2,1.32,1.27,1.35.4,3.67-1.41,4.22-.73.22-1.54.25-2.31.25-11.57.01-23.15.01-34.72,0-.45,0-.91,0-1.36-.04-1.83-.21-3.03-1.42-2.99-2.98.04-1.58,1.25-2.78,3.13-2.8,6.18-.05,12.35-.02,18.53-.02,0,0,0-.01,0-.02Z"/><path class="cls-1" d="m40.5,96.66c-3.7,0-7.4,0-11.1,0-.71,0-1.63.16-2.09-.21-.88-.7-2.05-1.71-2.08-2.62-.03-.91,1.05-2.03,1.91-2.74.49-.41,1.49-.27,2.27-.27,7.4-.02,14.8,0,22.21,0,.39,0,.78-.01,1.17.02,2.04.19,3.16,1.28,3.1,3.02-.05,1.66-1.14,2.68-3.12,2.79-1.29.07-2.6.03-3.9.03-2.79,0-5.58,0-8.38,0Z"/><path class="cls-1" d="m46.67,80.96c-2.02,0-4.03.02-6.05,0-1.78-.02-2.79-1.01-3-2.72-.18-1.47,1-2.94,2.7-2.99,4.29-.13,8.58-.13,12.87,0,1.79.06,2.76,1.37,2.69,2.98-.07,1.59-1.14,2.65-2.96,2.72-2.08.08-4.16.02-6.25.02Z"/></svg>