<?xml version="1.0" encoding="utf-8"?>
<!-- Generator: Adobe Illustrator 27.8.1, SVG Export Plug-In . SVG Version: 6.00 Build 0)  -->
<!DOCTYPE svg PUBLIC "-//W3C//DTD SVG 1.1//EN" "http://www.w3.org/Graphics/SVG/1.1/DTD/svg11.dtd" [
	<!ENTITY ns_extend "http://ns.adobe.com/Extensibility/1.0/">
	<!ENTITY ns_ai "http://ns.adobe.com/AdobeIllustrator/10.0/">
	<!ENTITY ns_graphs "http://ns.adobe.com/Graphs/1.0/">
	<!ENTITY ns_vars "http://ns.adobe.com/Variables/1.0/">
	<!ENTITY ns_imrep "http://ns.adobe.com/ImageReplacement/1.0/">
	<!ENTITY ns_sfw "http://ns.adobe.com/SaveForWeb/1.0/">
	<!ENTITY ns_custom "http://ns.adobe.com/GenericCustomNamespace/1.0/">
	<!ENTITY ns_adobe_xpath "http://ns.adobe.com/XPath/1.0/">
]>
<svg version="1.1" id="Layer_1" xmlns:x="&ns_extend;" xmlns:i="&ns_ai;" xmlns:graph="&ns_graphs;"
	 xmlns="http://www.w3.org/2000/svg" xmlns:xlink="http://www.w3.org/1999/xlink" x="0px" y="0px" width="50px" height="50px"
	 viewBox="0 0 50 50" style="enable-background:new 0 0 50 50;" xml:space="preserve">
<metadata>
	<sfw  xmlns="&ns_sfw;">
		<slices></slices>
		<sliceSourceBounds  bottomLeftOrigin="true" height="50.1" width="43.5249" x="3.1714" y="-0.1"></sliceSourceBounds>
	</sfw>
</metadata>
<g>
	<path d="M8.1,14.6c-0.4-0.4-0.9-0.8-1.3-1.3c-0.6-0.6-0.7-1.4-0.1-2.1c0.5-0.5,0.9-1,1.5-1.5s1.4-0.4,2,0.1
		c0.4,0.4,0.8,0.9,1.2,1.3c3.5-2.2,7.2-3.8,11.2-4.6V4.8c-0.3,0-0.6,0-0.8,0c-1.4,0-2.4-1.1-2.4-2.4s1-2.4,2.4-2.4
		c1.1,0,2.1,0,3.2,0c0.5,0,0.8,0.3,0.9,0.8c0,0.5-0.3,0.8-0.9,0.8c-1,0-2,0-3,0c-0.6,0-0.9,0.3-0.9,0.8s0.3,0.8,0.9,0.8
		c2.1,0,4.1,0,6.2,0C28.7,3.2,29,3,29,2.5s-0.2-0.8-0.8-0.8c-0.5-0.1-0.8-0.4-0.8-0.9s0.4-0.7,0.9-0.7c1.3,0,2.3,1.1,2.3,2.3
		c0,1.3-0.9,2.4-2.3,2.5c-0.3,0-0.6,0-1,0v1.8c2.1,0.2,4,0.7,5.9,1.5c1.9,0.8,3.6,1.9,5.3,3.2c0.4-0.4,0.8-0.9,1.3-1.3
		c0.6-0.6,1.4-0.7,2.1-0.1c0.4,0.4,0.8,0.8,1.3,1.2c0.6,0.7,0.7,1.5,0.1,2.2c-0.2,0.2-0.4,0.5-0.7,0.7c-0.2,0.2-0.5,0.4-0.7,0.6
		c1.3,1.7,2.3,3.3,3.1,5.2c3.9,9.2,0.9,20.1-7.2,26c-3.8,2.7-8,4.1-12.6,4.2c-0.4,0-0.7,0-0.9-0.4c-0.3-0.6,0.1-1.2,0.8-1.2
		c1.9,0,3.9-0.3,5.7-0.9c7.3-2.4,12.1-7.3,13.8-14.9C47,22.4,41.1,12.2,31,9C19.5,5.3,7.1,12.9,5.1,24.8C3.6,34.1,8.4,43,17,46.8
		c0.1,0,0.2,0.1,0.3,0.1c0.5,0.2,0.7,0.7,0.5,1.1c-0.2,0.4-0.6,0.6-1.1,0.3c-1.1-0.6-2.3-1.1-3.4-1.7c-5.8-3.8-9.2-9.2-10-16.1
		c-0.6-5.8,0.9-11,4.5-15.7C7.9,14.8,8,14.7,8.1,14.6L8.1,14.6z M40.9,11.1c-0.4,0.4-0.7,0.8-1.1,1.1c0.4,0.4,0.7,0.8,1,1.1
		c0.4-0.4,0.8-0.8,1.2-1.2C41.7,11.8,41.3,11.4,40.9,11.1z M8.9,11.2l-1.1,1.2c0.4,0.4,0.8,0.7,1.2,1.1l1.1-1.1L8.9,11.2z M25.8,6.4
		V4.9h-1.5v1.6h1.5V6.4z"/>
	<path d="M23.9,9.7C34,9.7,41.7,16.1,43.3,25c1.8,10.1-5,19.7-15,21.4S9,41.7,6.9,31.8c-0.2-1.1-0.3-2.3-0.4-3.4
		c-0.1-0.7,0.2-1,0.8-1.1c0.5,0,0.8,0.3,0.8,1C8.2,33,9.9,37,13.2,40.2c9.2,9,24.7,4.7,28.1-7.6c2.6-9.4-3.4-19.2-13-21.1
		c-9.2-1.8-18.1,4.1-19.9,13.2c0,0.1,0,0.2-0.1,0.3c-0.1,0.5-0.6,0.8-1,0.7c-0.4-0.1-0.7-0.6-0.6-1.1C7,23,7.5,21.5,8.2,20
		C11.8,13.4,17.5,10,23.9,9.7L23.9,9.7z"/>
	<path d="M40.3,27.5c0,3.7-0.8,6.5-2.5,9c-0.1,0.2-0.4,0.4-0.7,0.5c-0.6,0.2-1.1-0.5-0.8-1.1c0.1-0.1,0.1-0.3,0.2-0.4
		c3.5-5.6,2.6-12.8-2.2-17.3c-2.6-2.4-5.6-3.6-9.1-3.7c-0.3,0-0.7-0.1-0.9-0.3c-0.2-0.2-0.2-0.6-0.1-0.8c0.1-0.4,0.4-0.5,0.8-0.5
		c2.1,0,4.1,0.4,5.9,1.2C37,16.9,40,21.7,40.3,27.5L40.3,27.5z"/>
	<path d="M27.4,28.4c-0.1,0.3,0.1,0.5,0.4,0.7c2.3,1.5,4.7,3.1,7,4.6c0.1,0.1,0.2,0.1,0.2,0.2c0.5,0.4,0.7,0.7,0.4,1.1
		c-0.3,0.5-0.8,0.6-1.4,0.2c-2.4-1.6-4.8-3.2-7.3-4.8c-0.2-0.1-0.4-0.2-0.7-0.1c-1,0.6-2.2,0.3-2.9-0.5c-0.7-0.8-0.8-2-0.3-2.9
		c0.6-0.9,1.7-1.3,2.8-1C26.8,26.2,27.5,27.2,27.4,28.4L27.4,28.4z M25,29c0.5,0,0.8-0.3,0.8-0.8s-0.3-0.8-0.8-0.8s-0.8,0.4-0.8,0.8
		C24.2,28.7,24.6,29,25,29L25,29z"/>
	<path d="M21.3,49.6c-0.4-0.1-0.8-0.1-1.3-0.2c-0.5-0.1-0.7-0.5-0.6-0.9s0.4-0.7,0.9-0.6c0.4,0.1,0.9,0.2,1.3,0.3s0.7,0.4,0.6,0.9
		C22.1,49.4,21.7,49.6,21.3,49.6L21.3,49.6z"/>
	<path d="M11.3,28.2c0,0.4-0.4,0.8-0.8,0.8c-0.4,0-0.8-0.4-0.8-0.8s0.4-0.8,0.8-0.8C10.9,27.4,11.3,27.8,11.3,28.2z"/>
	<path d="M25.8,42.8c0,0.4-0.4,0.8-0.8,0.8s-0.8-0.4-0.8-0.8c0-0.4,0.4-0.8,0.8-0.8C25.5,42,25.8,42.3,25.8,42.8L25.8,42.8z"/>
	<path d="M13.2,21c0,0.4-0.3,0.8-0.8,0.8c-0.4,0-0.8-0.4-0.8-0.8s0.4-0.8,0.8-0.8C12.9,20.2,13.2,20.5,13.2,21z"/>
	<path d="M12.4,34.7c0.4,0,0.8,0.3,0.8,0.8c0,0.4-0.3,0.8-0.8,0.8c-0.4,0-0.8-0.4-0.8-0.8C11.6,35.1,12,34.7,12.4,34.7z"/>
	<path d="M17.7,14.8c0.4,0,0.8,0.4,0.8,0.8c0,0.4-0.4,0.8-0.8,0.8s-0.8-0.3-0.8-0.8C16.9,15.2,17.3,14.8,17.7,14.8L17.7,14.8z"/>
	<path d="M17.8,40c0.4,0,0.8,0.4,0.8,0.8c0,0.4-0.4,0.8-0.8,0.8S17,41.2,17,40.8C17,40.3,17.3,40,17.8,40L17.8,40z"/>
	<path d="M33.1,40.8c0,0.4-0.4,0.8-0.8,0.8c-0.4,0-0.8-0.4-0.8-0.8c0-0.4,0.4-0.8,0.8-0.8C32.7,40,33.1,40.4,33.1,40.8L33.1,40.8z"
		/>
</g>
</svg>
