<?xml version="1.0" encoding="utf-8"?>
<!-- Generator: Adobe Illustrator 27.5.0, SVG Export Plug-In . SVG Version: 6.00 Build 0)  -->
<svg version="1.1" id="Layer_1" xmlns="http://www.w3.org/2000/svg" xmlns:xlink="http://www.w3.org/1999/xlink" x="0px" y="0px"
	 viewBox="0 0 500 500" style="enable-background:new 0 0 500 500;" xml:space="preserve">
<g>
	<g>
		<path d="M260.9,0c27,0,62.9,8,95.9,24c1,0,2,1,2,1c5,3,6,7,4,11c-2,4-6,6-11,4c-9-4-17-8-26-11C193-16.9,48.2,65.9,22.3,203.8
			c-18,97.9,15,176.8,94.9,236.7c7,5,9,9,5,14c-3,5-8,5-15,0C47.2,411.5,11.3,353.6,2.3,279.7C-12.7,157.8,63.2,44,180.1,10
			C203,3,227,0,260.9,0z"/>
		<path d="M483.6,254.7c-3-83.9-35-147.8-99.9-195.7c-1-1-3-2-4-3c-4-3-4-8-2-11c2-4,7-5,11-2c6,4,11,8,17,12
			c51.9,42.9,82.9,97.9,91.9,164.8c16,126.8-66.9,244.7-191.7,273.6c-55.9,13-109.9,7-161.8-18h-1c-6-3-8-7-6-12s7-6,13-3
			c8,3,15,7,23,10c132.8,47.9,278.6-35,305.6-173.8C481.6,280.7,482.6,264.7,483.6,254.7L483.6,254.7z"/>
		<path d="M33.3,244.7c1-46.9,17-93.9,50.9-133.8c4-5,9-6,13-3c4,3,4,8,0,13c-23,28-37.9,59.9-43.9,95.9c-9,59.9,5,113.8,43.9,159.8
			c41.9,49.9,95.9,72.9,159.8,71.9c43.9-1,82.9-16,116.8-42.9c1-1,3-2,4-4c5-4,9-3,12,1c3,4,3,9-2,12c-11,8-22,17-34,23
			c-112.8,61.9-251.7,16-303.6-101.9C39.2,308.6,33.3,279.7,33.3,244.7L33.3,244.7z"/>
		<path d="M245,33c109.9,0,199.7,74.9,217.7,178.8c12,65.9-5,124.8-46.9,176.8c-4,5-9,6-13,3s-4-8,0-13c23-28,37.9-59.9,43.9-95.9
			c9-59.9-5-113.8-43.9-159.8C361.8,73.9,306.9,50,243,52c-43.9-1-82.9,14-116.8,40.9c-2,1-3,3-5,4c-4,3-9,3-12-1c-3-4-3-9,2-12
			c14-10,27-20,41.9-28C183.1,41,216,33,245,33L245,33z"/>
		<path d="M259.9,309.6c6-6,14-7,21-6c5,1,9,4,9,9c0,5-4,8-9,8c-7-1-11,2-14,8c-3,7-11,6-15-1c-12-18-33-25-51.9-16
			c-19,8-29,28-24,47.9c5,19,23,33,42.9,31c20-1,36-17,38.9-37c1-11,10-19,22-18c6,1,12,4,17,7c4,2,4,7,1,11c-3,4-6,5-10,3
			c-8-4-13-1-15,7c-1,2-1,5-2,7c-2,4,0,7,4,8c2,0,3,0,5,0c6,0,9,3,9,8c0,5-3,8-9,9c-8,1-15-1-21-6l-4,3c5,6,7,13,6,21c-1,6-4,9-9,9
			s-8-4-8-9c0-2,0-3,0-5c0-5-3-7-8-5c-3,1-5,2-8,3c1,8-1,15-6,22c-3,5-8,6-12,3c-4-3-5-7-2-12c1-1,2-3,3-4c2-4,0-7-4-8
			c-5-1-9-2-14-4c-4-1-7,0-7,4c0,2,0,4,0,7c0,5-3,8-8,8c-5,0-8-3-9-8c-1-8,0-16,6-22c-2-2-4-4-6-6c-3-4-8-4-11,0c2,1,2,2,1,3
			c-2,5-6,6-11,5c-4-2-6-6-5-11c3-8,8-13,17-16c0-4,0-8-1-11c-1-2-4-3-6-3c-2,0-4,2-6,3c-4,2-8,2-11-2c-3-3-3-8,1-11c5-5,11-7,18-7
			c2,0,3,0,5,0c1-4,3-7,4-11c1-4-2-5-4-6s-4,0-6,0c-5,0-9-3-9-8s3-8,9-9c8-1,15,1,21,6l3-3c0-1,0-1-1-2c-5-6-6-14-5-22c1-5,4-8,8-8
			c5,0,8,3,8,8c0,2,0,3,0,5c0,6,3,7,8,5c3-1,5-2,8-3c-1-8,1-15,6-22c3-4,8-6,12-3s5,7,2,12c-1,1-2,3-2,4c-2,5-1,7,4,8c2,0,3,0,5,1
			c1,0,3,1,5,1c3-8,8-14,16-16c2-1,5-1,7,0c2,1,5,4,5,7c0,2-2,5-4,8c-1,1-3,1-5,2c-4,3-4,7,0,10C255,305.6,257,307.6,259.9,309.6
			L259.9,309.6z"/>
		<path d="M324.9,172.8c0-4,1-7,0-10c0-2-3-3-4-5c-2-3-4-6-4-9c0-2,4-6,6-6c2-1,6,2,9,2c2,0,4,1,6,1c3-1,5-3,4-6c0-2,0-3,0-5
			c0-6,4-9,8-9c5,0,8,4,8,9c0,1,0,3,0,4c0,6,4,9,10,6c1,0,2-1,3-2c4-2,9-1,11,3c2,4,1,8-3,11c-5,3-6,8-3,13c2,4,8,7,12,5
			c1,0,3-2,4-3c4-5,9-7,13-3c4,3,4,8,0,13c-1,1-1,2-2,2c1,8,7,8,13,8c5,0,9,4,9,8c0,5-4,8-9,8c-1,0-1,0-2,0c-5-1-9,1-10,6
			c0,2-1,4,0,6c1,4,3,7,4,11c2,5,0,9-5,11c-4,2-8,0-10-4c-1-1-1-3-2-4c-2-5-7-8-13-7c-1,3-2,6-3,10c-1,5-6,8-10,6c-5-3-7-7-6-13
			c1-3,2-6,2-10c-4-2-8-5-13-8c-2,3-5,6-8,8c-4,4-9,4-13,1c-3-3-3-8,1-12c1-1,3-3,4-4c1-1,3-2,4-4l-8-13c-3,1-7,2-10,2
			c-5,1-9-2-10-6c-1-4,1-8,6-10c2-1,3-1,5-1C320.9,172.8,322.9,172.8,324.9,172.8L324.9,172.8z M380.8,207.8c6,0,10-3,10-8s-3-8-9-9
			c-13-1-23-10-24-24c0-6-4-10-9-9c-5,0-8,4-8,10C341.8,188.8,359.8,207.8,380.8,207.8L380.8,207.8z"/>
		<path d="M100.2,193.8c-3-1-7-2-10-3c-5-2-8-6-6-10c1-4,6-7,11-6c3,1,6,1,9,2h1l8-13c-3-2-6-5-9-8c-4-4-4-9,0-12c3-3,8-3,12,1
			c3,3,5,6,8,9c2-1,2-1,3-2c8-3,12-8,8-17c-2-4,2-8,6-9c4-1,8,1,10,6c1,3,2,7,3,11c4,0,7,1,11,1c2,0,3-3,4-4c3-2,5-4,8-4
			c2,0,6,3,6,5c1,3-1,6-1,10c0,2-1,4-1,7c0,3,3,4,6,4c2,0,4,0,6,0c5,0,8,4,8,8c0,4-3,8-8,8c-2,0-4,0-6,0c-6,0-9,4-6,10c0,1,1,2,2,3
			c2,5,1,9-3,11s-8,1-11-3c-3-5-8-6-13-3c-4,2-7,8-5,12c0,1,2,3,3,4c5,4,7,9,4,13c-3,4-8,5-14,0c-1-1-2-1-2-2c-8,1-7,7-7,13
			c0,5-4,9-8,9c-5,0-8-4-8-9c0-1,0-1,0-2c1-5-1-9-6-11c-2-1-4-1-6,0c-3,1-7,3-10,4c-5,2-9,0-11-5c-2-4,0-8,5-11c1-1,3-1,4-2
			C98.2,204.8,100.2,199.8,100.2,193.8L100.2,193.8z M117.1,197.8c0,6,3,10,8,10s8-3,9-9c1-15,10-23,25-25c5,0,9-4,9-9c0-5-4-8-10-8
			C136.1,157.8,117.1,176.8,117.1,197.8L117.1,197.8z"/>
		<path d="M240,155.8c-2,2-4,4-6,6c-2,2-6,4-8,3c-2,0-6-3-6-5c-1-3,0-6,2-9s5-5,7-8l-1-2c-3,0-6,0-10,0c-5,0-9-4-9-8c0-5,3-8,9-8
			c3,0,6,0,10,0l1-2c-2-2-4-4-6-6c-2-2-4-5-4-8c0-2,3-6,5-6c3-1,6,0,9,2c3,2,5,5,8,7l2-1c0-3,0-6,0-9c0-6,3-9,8-10c5,0,8,4,9,10
			c0,3,0,6,0,10c3-2,4-3,5-4c2-2,4-4,7-6c4-2,7-1,10,2c3,3,2,7,0,10c-2,3-5,5-7,8c0,0,0,1,0,2c3,0,6,0,9,0c6,0,10,3,10,8
			c0,5-4,8-9,8c-6,0-10,1-12,6c-1,3-4,5-7,7c-4,2-5,4-4,8c0,1,0,2,0,3c0,6-3,10-8,10s-8-4-8-10c0-3,0-5,0-8L240,155.8L240,155.8z
			 M242,132.9c0,4,3,8,8,9c5,0,9-3,9-8c0-4-4-8-8-8C246,124.9,242,127.9,242,132.9z"/>
		<path d="M398.8,322.6c2,2,5,5,7,7c4,4,4,9,0,12c-3,3-8,3-12,0c-2-2-5-4-7-6c0,3-1,6-1,10c0,5-4,9-8,9c-5,0-8-3-8-9c0-3,0-6-1-9
			c0,0,0,0-1-1c-2,2-4,4-7,7c-5,4-11,4-14-2c-2-4-1-7,2-10c2-2,4-5,6-7c-3,0-6-1-9-1c-4,0-8-2-9-6c0-3,1-7,3-9c2-2,6-2,9-2
			c4,0,6-1,8-4c2-4,6-7,9-9c3-2,4-3,4-7c0-2,0-5,0-7c1-4,4-7,8-7c5,0,7,3,8,8c0,4,0,7,0,11l2,1c2-2,4-4,7-6c4-4,9-4,12-1
			c4,4,3,8-1,13c-2,2-4,5-5,7c3,0,6,1,9,1c6,0,9,3,10,8c0,5-3,8-9,9c-3,0-6,0-9,0H398.8L398.8,322.6z M384.8,312.6c0-5-3-8-8-8
			c-5,0-8,3-8,8c0,4,4,8,8,8C380.8,321.6,383.8,317.6,384.8,312.6L384.8,312.6z"/>
		<path d="M277.9,241.7c-2,2-3,6-6,7c-3,1-7,0-9-1c-8-6-8-6-15,0c-9,7-22,7-30-1c-4-4-5-8-2-12s7-4,12-1c4,3,8,3,12-1
			c11-9,26-8,34,2C275.9,235.7,276.9,237.7,277.9,241.7L277.9,241.7z"/>
		<path d="M122.1,332.6c0,2-1,5-2,7c-2,4-5,6-10,5c-4-1-7-5-6-9c1-5-1-9-5-12c-10-8-12-22-6-32c3-5,8-6,12-4c4,2,5,7,3,12
			c-3,6-2,8,3,12C118.1,316.6,121.1,322.6,122.1,332.6z"/>
		<path d="M331.9,361.5c0,14-2,23-7,31c-3,5-7,7-12,5c-5-2-6-7-3-12c6-12,7-24,2-36c-2-5-1-10,4-12c4-2,9,0,11,5
			C328.9,350.6,330.9,358.6,331.9,361.5z"/>
		<path d="M223,374.5c-17-1-31-15-31-32c0-6,3-10,8-10c5,0,8,3,9,9c1,9,7,15,16,16c6,1,10,4,9,9C233,371.5,229,374.5,223,374.5
			L223,374.5z"/>
		<path d="M282.9,82.9c-5,0-8-4-8-8c0-5,4-8,8-8c5,0,8,4,8,8C290.9,79.9,287.9,82.9,282.9,82.9L282.9,82.9z"/>
		<path d="M282.9,199.8c-5,0-8-4-8-8c0-5,4-8,8-8c5,0,8,4,8,8C291.9,195.8,287.9,199.8,282.9,199.8z"/>
		<path d="M192,232.7c0,4-4,8-8,8c-4,0-8-4-8-8c0-5,4-8,8-8C188,224.7,192,228.7,192,232.7z"/>
		<path d="M142.1,266.7c5,0,8,4,8,9c0,4-4,8-9,8c-5,0-8-4-8-9C134.1,269.7,137.1,265.7,142.1,266.7z"/>
		<path d="M324.9,274.7c0,4-4,8-8,8c-5,0-8-4-8-8c0-5,4-8,8-8S324.9,270.7,324.9,274.7z"/>
		<path d="M242,340.6c0,4-4,8-8,8c-5,0-8-4-8-8c0-4,4-8,8-8C238,332.6,242,336.6,242,340.6z"/>
		<path d="M299.9,432.5c-5,0-8-4-8-8c0-5,4-8,8-8c5,0,8,4,8,8C307.9,428.5,303.9,432.5,299.9,432.5z"/>
	</g>
	<rect x="6.5" y="239.3" transform="matrix(0.7742 -0.633 0.633 0.7742 -101.4895 215.0907)" width="488.4" height="21"/>
</g>
</svg>
