<?xml version="1.0" encoding="utf-8"?>
<!-- Generator: Adobe Illustrator 27.5.0, SVG Export Plug-In . SVG Version: 6.00 Build 0)  -->
<svg version="1.1" id="Layer_1" xmlns="http://www.w3.org/2000/svg" xmlns:xlink="http://www.w3.org/1999/xlink" x="0px" y="0px"
	 viewBox="0 0 500 500" style="enable-background:new 0 0 500 500;" xml:space="preserve">
<style type="text/css">
	.st0{opacity:0.99;}
</style>
<g>
	<path d="M499,265c-1,10-2,19-4,29c-9,49-29.9,92-63.9,128c-4,4-8,4-11,1c-3-3-3-8,1-11c20-21,35.9-44,45.9-71
		c33.9-88,22-170-38.9-243c-36.9-46-86.9-73-144.8-81c-69.9-9-131.8,9-185.7,53c-43.9,37-70.9,83-79.9,139c-12,72,6,136,51.9,192
		c35.9,44,82.9,70,138.8,80c65.9,12,126.8-3,180.7-43c2-1,4-3,6-4c4-3,8-3,11,1c3,4,2,8-2,11c-12,8-24,17-36.9,24
		c-44.9,24-91.8,33-141.8,29c-108.8-10-199.7-93-220.6-201c-24-121,42.9-240,158.7-283c21-8,42.9-13,65.9-14c2,0,3-1,4-1
		c11,0,21,0,30.9,0c1,0,3,1,4,1c13,2,26,3,38.9,6C403.2,30,479,111,496,208c2,9,3,18,4,28L499,265L499,265z"/>
	<path d="M244.4,29c110.8,0,200.7,74,221.6,177c24,124-56.9,236-170.7,260c-112.8,22-223.6-42-256.6-152c-23-75-8-144,41.9-206
		c3-3,6-6,10-4c5,2,6,8,2,13c-11,13-20,28-28,43c-44.9,88-17,198,62.9,256c38.9,29,82.9,42,131.8,40c87.9-4,164.7-65,188.7-149
		C479,195,413.1,80,300.3,51c-65.9-17-125.8-3-179.7,39c-1,0-2,1-4,2c-4,3-8,2-11-1c-3-3-2-8,2-11c8-6,15-12,23-17
		C166.6,41,206.5,30,244.4,29L244.4,29z"/>
	<path d="M249.4,83c-16,16-31.9,30-46.9,44c-22,23-41.9,47-56.9,76c-8,16-14,32-16,49c-3,30,6,58,24,82c1,1,1,2,2,2c4,5,4,9,0,12
		c-4,3-8,2-12-3c-4-6-9-12-13-19c-21-40-22-80-3-121c15-34,37.9-62,62.9-88c16-16,32.9-31,49.9-46c6-5,8-5,14,0
		c24,19,44.9,39,64.9,61c1,1,2,2,2,3c2,4,2,7-1,10c-3,3-7,3-10,0c-3-3-6-6-9-9C285.4,118,267.4,101,249.4,83L249.4,83z"/>
	<path d="M217.5,252.5c0,7,0,13,0,20c-1,18-15,32-31.9,31c-18-1-30.9-15-30.9-32c0-6,3-9,7-9c5,0,7,3,8,9c1,11,8,18,18,18
		s17-8,17-19c0-12,0-25,0-37c0-11-7-18-17-18s-17,7-17,18c0,6-3,10-8,9c-5,0-7-4-7-9c0-18,14-32,31.9-32s31.9,14,31.9,32
		C218.5,239.5,218.5,246.5,217.5,252.5L217.5,252.5L217.5,252.5z"/>
	<path d="M383.2,263c-1,31-10,58-29,82c-4,5-8,6-12,3c-3-3-3-7,0-11c11-14,18-29,23-45c7-27,4-54-9-79c-7-14-16-27-23-40
		c-1-2-3-5-3-7c1-3,3-6,5-7c3-2,7,0,8,3c8,12,15,23,22,36C376.2,218,382.2,239,383.2,263L383.2,263z"/>
	<path d="M312.3,209.5c0,1-1,2-1,4c-12,27-23,55-34.9,82c0,1-1,2-1,2c-2,4-6,5-10,4c-4-2-6-6-4-10c5-12,10-23,15-35
		c7-17,14-33,21-50c2-3,3-6,7-6C309.3,201.5,313.3,204.5,312.3,209.5L312.3,209.5z"/>
	<path d="M344.3,282.5c0,12-10,22-22,22c-12,0-22-10-22-22s10-22,22-22C334.3,260.5,344.3,270.5,344.3,282.5z M329.3,282.5
		c0-4-4-7-7-7c-3,0-7,4-7,7c0,4,3,7,7,7C325.3,289.5,329.3,286.5,329.3,282.5z"/>
	<path d="M274.4,223.5c0,12-10,22-22,22s-22-9-22-22c0-12,10-22,22-22C265.4,201.5,274.4,211.5,274.4,223.5z M260.4,223.5
		c0-4-3-7-7-7c-4,0-7,3-7,7c0,4,3,7,7,7C257.4,230.5,260.4,227.5,260.4,223.5L260.4,223.5z"/>
</g>
<g>
	<path class="st0" d="M232.3,404.6c0,1.2-0.2,2.2-0.6,3.1c-0.4,0.9-0.9,1.6-1.5,2.2c-0.6,0.6-1.3,1-2.1,1.3
		c-0.8,0.3-1.6,0.5-2.4,0.5c-1.4,0-2.8-0.5-4-1.4c-1.2-0.9-2-2.3-2.4-4.1c-2.3,1.6-4.8,2.9-7.5,3.9c-2.7,1-5.6,1.6-8.6,1.6
		c-4,0-7.7-0.8-11.2-2.3c-3.5-1.5-6.6-3.6-9.2-6.2c-2.6-2.6-4.7-5.7-6.2-9.2c-1.5-3.5-2.3-7.2-2.3-11.2c0-2.7,0.4-5.2,1.1-7.7
		c0.7-2.4,1.6-4.7,2.9-6.9c1.3-2.1,2.8-4.1,4.6-5.9c1.8-1.8,3.7-3.3,5.9-4.6c2.1-1.2,4.4-2.2,6.9-2.9c2.4-0.7,5-1,7.7-1
		c3,0,5.8,0.4,8.6,1.3c2.7,0.9,5.2,2.1,7.5,3.6c0.3-1.8,1.1-3.2,2.4-4.1c1.2-0.9,2.6-1.4,4-1.4c0.8,0,1.6,0.1,2.4,0.5
		c0.8,0.3,1.5,0.7,2.1,1.3c0.6,0.6,1.1,1.3,1.5,2.2c0.4,0.9,0.6,1.9,0.6,3.1V404.6z M203.4,366.7c-2.2,0-4.2,0.4-6.2,1.3
		c-2,0.8-3.7,2-5.1,3.4c-1.5,1.5-2.6,3.2-3.5,5.1c-0.9,1.9-1.3,4-1.3,6.2s0.4,4.3,1.3,6.2c0.8,1.9,2,3.6,3.5,5.1
		c1.4,1.5,3.1,2.6,5.1,3.5c1.9,0.9,4,1.3,6.2,1.3c2.2,0,4.3-0.4,6.2-1.3c1.9-0.8,3.6-2,5.1-3.5c1.4-1.4,2.6-3.1,3.4-5.1
		c0.8-1.9,1.3-4,1.3-6.2s-0.4-4.3-1.3-6.2c-0.8-1.9-2-3.6-3.4-5.1c-1.5-1.4-3.2-2.6-5.1-3.4L203.4,366.7z"/>
	<path class="st0" d="M257.8,404.6c0,1.2-0.2,2.2-0.6,3.1c-0.4,0.9-0.9,1.6-1.5,2.2c-0.6,0.6-1.3,1-2.1,1.3
		c-0.8,0.3-1.6,0.5-2.4,0.5c-0.8,0-1.6-0.2-2.4-0.5c-0.8-0.3-1.5-0.7-2.1-1.3c-0.6-0.6-1.1-1.3-1.5-2.2c-0.4-0.9-0.6-1.9-0.6-3.1
		v-63c0-1.1,0.2-2.2,0.6-3.1c0.4-0.9,0.9-1.6,1.5-2.2c0.6-0.6,1.3-1,2.1-1.3c0.8-0.3,1.6-0.5,2.4-0.5c0.8,0,1.6,0.2,2.4,0.5
		c0.8,0.3,1.5,0.7,2.1,1.3c0.6,0.6,1.1,1.3,1.5,2.2c0.4,0.9,0.6,1.9,0.6,3.1V404.6z"/>
	<path class="st0" d="M313.3,372.6c-1.6-1.9-3.6-3.4-5.9-4.4c-2.3-1-4.7-1.5-7.2-1.5c-2.2,0-4.4,0.4-6.4,1.2c-2,0.8-3.8,2-5.4,3.4
		c-1.6,1.4-2.8,3.1-3.8,5.1c-0.9,2-1.4,4.1-1.4,6.4c0,2.3,0.5,4.4,1.4,6.4c0.9,2,2.2,3.7,3.8,5.1c1.5,1.4,3.3,2.6,5.4,3.4
		c2,0.8,4.2,1.2,6.4,1.2c2.6,0,5.1-0.6,7.4-1.7c2.3-1.1,4.3-2.6,6-4.7c0.8-1,1.7-1.7,2.7-2.1c0.9-0.4,1.8-0.7,2.7-0.7
		c0.8,0,1.7,0.2,2.5,0.5c0.8,0.3,1.5,0.8,2.1,1.4c0.6,0.6,1.1,1.3,1.5,2.1c0.4,0.8,0.6,1.6,0.6,2.5c0,1.4-0.6,2.9-1.8,4.5
		c-1.4,1.8-2.9,3.4-4.7,4.8c-1.8,1.4-3.7,2.6-5.7,3.5c-2,1-4.2,1.7-6.4,2.2c-2.2,0.5-4.5,0.8-6.8,0.8c-2.7,0-5.3-0.4-7.8-1.1
		c-2.5-0.7-4.9-1.6-7.1-2.9c-2.2-1.2-4.3-2.7-6.1-4.5c-1.8-1.7-3.4-3.7-4.7-5.8c-1.3-2.1-2.4-4.5-3.1-7c-0.7-2.5-1.1-5.1-1.1-7.8
		s0.4-5.3,1.1-7.8c0.7-2.5,1.8-4.8,3.1-6.9c1.3-2.1,2.9-4.1,4.7-5.9c1.8-1.7,3.9-3.2,6.1-4.5c2.2-1.2,4.6-2.2,7.1-2.9
		c2.5-0.7,5.1-1,7.8-1c2.2,0,4.3,0.2,6.5,0.7c2.1,0.5,4.1,1.1,6.1,2c1.9,0.9,3.8,2,5.6,3.3c1.7,1.3,3.3,2.8,4.8,4.4
		c0.7,0.8,1.2,1.5,1.5,2.3c0.3,0.8,0.4,1.5,0.4,2.3c0,0.9-0.2,1.7-0.5,2.5c-0.4,0.8-0.8,1.5-1.4,2.1c-0.6,0.6-1.3,1-2.1,1.4
		c-0.8,0.3-1.6,0.5-2.4,0.5c-0.9,0-1.8-0.2-2.7-0.6L313.3,372.6z"/>
</g>
</svg>
