<?xml version="1.0" encoding="utf-8"?>
<!-- Generator: Adobe Illustrator 27.5.0, SVG Export Plug-In . SVG Version: 6.00 Build 0)  -->
<svg version="1.1" id="Layer_1" xmlns="http://www.w3.org/2000/svg" xmlns:xlink="http://www.w3.org/1999/xlink" x="0px" y="0px"
	 viewBox="0 0 500 500" style="enable-background:new 0 0 500 500;" xml:space="preserve">
<g>
	<path d="M0,24.1c1-1,1-2,2-3c4-10,12-16,23-16c51,0,101.9,0,152.9,0c14,0,25,11,25,26c0,14,0,28,0,43c14-1,27,2,35,14
		c4,6,7,13,6,21c-1,10-5,19-13,25c-8,6-18,8-28,7c0,2,0,4,0,6c0,12,0,24,0,36c0,16-11,27-27,27c-14,0-27,0-42,0c1,14-2,26-14,35
		c-7,5-14,7-22,6c-10-1-19-5-25-13c-6-8-6-18-6-29c-7,0-13,0-20,0s-14,0-21,0c-13,0-21-6-26-18c1-2,0-2,0-3C0,132.1,0,78.1,0,24.1
		L0,24.1z M20,106.1c0,25,0,50,0,75c0,6,2,8,8,8c16,0,32,0,48,0c9,0,12,4,12,13c0,5,0,10,0,15c0,8,6,14,14,14s14-6,14-14
		c0-5,0-10,0-15c0-9,3-12,12-12c16,0,32,0,48,0c6,0,8-2,8-8c0-16,0-32,0-48c0-8,4-12,12-12c5,0,11,0,16,0c8,0,14-7,14-14
		c0-8-6-14-14-14c-5,0-10,0-15,0c-10,0-13-3-13-13c0-16,0-32,0-47c0-6-2-8-8-8c-50,0-99,0-147.9,0c-7-2-8,0-8,6
		C20,56.1,20,81.1,20,106.1L20,106.1z"/>
	<path d="M261.9,485.9c-6,5-13,6-21,6c-48,0-97,0-143.9,0c-18,0-28-10-28-28c0-49,0-99,0-146.9c0-17,10-27,27-27c16,0,32,0,48,0
		c9,0,13,3,13,13c0,4,0,8,0,13c0,9,6,16,14,16c9,0,14-6,14-16c0-5,0-10,0-15c0-7,4-11,11-11c19,0,39,0,58,0c0-18,0-36,0-54
		c0-12,3-15,15-15c4,0,8,0,13,0c8,0,14-7,14-14c0-8-6-14-14-14c-5,0-11,0-16,0c-7,0-11-4-11-11c0-17,0-34,0-52c0-15,11-25,26-25
		c51,0,101.9,0,151.9,0c15,0,25,10,26,25c0,12,0,24,0,37c0,2,0,4,0,6c14-1,27,2,35,14c5,7,7,14,6,22c-2,19-15,29-42,32
		c-3,19,4,39-5,59c5,6,5,14,5,23s0,17,0,26c0,7-4,12-10,12s-10-4-10-12c0-10,0-21,0-31c0-6-2-8-8-8c-13,0-27,0-41,0c1,14-2,26-13,35
		c-7,5-14,7-22,7c-10-1-19-5-25-13c-6-8-7-17-7-28c-6,0-12,0-18,0c-8,0-16,0-24,0c-4,0-7,2-7,6c0,14,0,28,0,43c14-1,27,2,36,15
		c4,6,6,14,6,21c-1,10-5,19-14,25c-8,6-18,7-28,7c0,2,0,3,0,4c0,12,0,24,0,36c0,6,2,8,8,8c50,0,100,0,147.9,0c6,0,8-2,8-8
		c0-9,0-18,0-27c0-8,7-12,13-10c4,2,6,5,6,10c0,9,0,18,0,27c0,17-11,27-27,27c-28,0-56,0-84,0c-20,0-41,0-62,0
		C275.9,490.9,268.9,489.9,261.9,485.9L261.9,485.9z M271.9,241c0,13,0,26,0,39c0,8,2,9,9,9c15,0,31,0,46,0c10,0,13,3,13,13
		c0,5,0,9,0,14c0,9,6,15,14,15c8,0,14-6,14-15c0-5,0-10,0-15c0-9,3-12,12-12c15,0,31,0,46,0c8,0,10-1,10-10c0-15,0-30,0-45
		c0-11,3-14,13-14c4,0,8,0,12,0c9,0,16-6,16-14c0-8-6-14-16-14c-4,0-9,0-13,0c-9,0-13-3-13-13c0-15,0-31,0-46c0-8-1-9-10-9
		c-43,0-85,0-126.9,0c-7,0-13,0-20,0c-6,0-8,2-8,8c0,13,0,26,0,39c0,1,0,2,0,2c7,1,14,2,20,4c7,2,12,7,16,13c4,6,6,12,5,19
		C311.8,228,298.9,238,271.9,241L271.9,241z M137.9,308c-14,0-28,0-41,0c-6,0-8,2-8,8c0,49,0,99,0,146.9c0,7,2,8,8,8
		c50,0,99,0,147.9,0c6,0,8-2,8-8c0-16,0-32,0-48c0-8,4-12,12-12c5,0,11,0,16,0c8,0,14-7,14-14c0-8-6-14-14-14c-5,0-10,0-15,0
		c-9,0-13-4-13-13c0-16,0-32,0-47c0-6-2-8-8-8c-9,0-17,0-26,0c-5,0-10,0-15,0c1,11,0,20-7,29c-7,8-16,13-26,13c-8,0-16-3-22-8
		C138.9,333,136.9,321,137.9,308L137.9,308z"/>
	<path d="M445.8,401.9c-5,0-10-4-10-9c0-6,4-10,10-10c5,0,10,4,10,10S450.8,401.9,445.8,401.9L445.8,401.9z"/>
	<path d="M99,111.1c9-11,17-22,25-33c2-2,4-4,7-5c4-1,8,0,10,4c2,4,2,8-1,11c-4,6-9,12-13,17c-6,8-12,16-18,24c-5,6-10,7-16,2
		c-6-5-13-11-19-16c-5-4-5-10-2-14c4-4,9-5,14-1C91,104.1,95,107.1,99,111.1L99,111.1z"/>
</g>
</svg>
