<?xml version="1.0" encoding="UTF-8"?><svg id="Layer_1" xmlns="http://www.w3.org/2000/svg" viewBox="0 0 200 200"><defs><style>.cls-1{fill:#8f8f8f;stroke:#fff;stroke-miterlimit:10;stroke-width:3px;}</style></defs><path class="cls-1" d="M119.2,176.21c-7.18,0-14.75-1.78-18.82-2.74l-.89-.21c-5.93-1.84-7.91-6.66-10.65-13.33-.4-.98-.83-2.01-1.28-3.09-5.22-14.66-1.02-19.82,5.94-28.38,1.44-1.76,3.01-3.7,4.67-5.92,5.17-6.59,5.66-14.26,5.54-15.06-.58-1.83-2.89-2.81-6.52-2.81-9,0-29.43,5.95-75.7,34.27l-.56,.35-1.03-.3c-1.3-.4-2.9-2.15-3.53-2.88l-12.29-12.76c-1.31-1.17-3.2-4.74-.41-9.33,26.5-40.96,54.58-61.72,83.48-61.72,8.26,0,16.36,1.75,24.07,5.21l.71,.47c1.92-3.31,5.06-4.98,9.34-4.98,1.49,0,2.87,.19,3.98,.34,.51,.12,.88,.16,1.28,.16,6.65,0,18.56-10.97,26.44-18.22,1.8-1.65,3.42-3.15,4.79-4.34,8.82-7.69,15.31-4.86,15.63-4.72h0s8.73,3.16,17.98,7.34c3.07,.86,4.97,2.43,5.44,4.59,.84,3.86-3.49,7.66-3.98,8.08l-21.63,20.05c-.22,.19-4.29,3.57-10.96,3.57-1.36,0-2.75-.14-4.13-.42-.73-.15-1.41-.22-2.03-.22-2.1,0-4.49,.71-6.51,5.88,12,23.47,8.1,41.28,3.97,60.12-.38,1.73-.76,3.46-1.13,5.21-2.78,13.15-8.41,29.58-19.41,33.32-2.97,1.62-6.94,2.45-11.79,2.45Zm-22.02-74.48c6.81,0,8.77,3.04,9.33,4.85,.53,1.17-.06,10.21-5.99,17.76-1.67,2.23-3.26,4.2-4.72,5.99-6.73,8.27-10.11,12.43-5.48,25.44,.43,1.01,.86,2.05,1.27,3.04,2.61,6.36,4.19,10.2,8.68,11.6l.79,.18c3.95,.93,11.31,2.66,18.14,2.66,3.98,0,7.24-.59,9.71-1.75l-.03-.06,4.43-3.65,.9,.81c7.47-6.09,11.46-20.11,13.29-28.77,.37-1.75,.76-3.5,1.14-5.23,4.02-18.35,7.81-35.68-3.84-58.39l-.42-1.05,.19-.53c1.5-4.09,4.63-9.61,12.13-8.08,1.18,.24,2.37,.37,3.53,.37,5.59,0,8.95-2.79,8.99-2.82l21.63-20.04c.96-.82,3.45-3.44,3.06-5.26-.28-1.26-2.09-2.03-3.57-2.45-9.34-4.22-17.96-7.33-18.05-7.36-.2-.07-5.43-2.02-12.58,4.2-1.35,1.18-2.95,2.65-4.72,4.28-8.71,8.02-20.65,19-28.45,19.01-.64,0-1.26-.07-1.83-.22-.93-.12-2.15-.29-3.43-.29-3.71,0-6.06,1.51-7.38,4.75l-.69,1.69-3.42-2.32c-7.1-3.16-14.79-4.83-22.63-4.83-27.44,0-55.43,20.86-80.97,60.33-2.13,3.49-.25,5.44-.03,5.65l12.41,12.88c.7,.81,1.55,1.61,2,1.92,36.76-22.46,63.25-34.32,76.62-34.32Z"/><path class="cls-1" d="M119.17,176.43c-7.21,0-14.61-1.74-18.73-2.71l-.9-.21c-6.18-1.91-8.31-7.08-10.99-13.61l-1.28-3.09c-5.32-14.95-1.06-20.19,6.01-28.88,1.43-1.76,3-3.69,4.65-5.9,3.26-5.56,5.13-10.29,5.6-14.1-.11-.23-.58-.98-2.04-1.56-4.79-1.84-22.12-2.4-79.58,32.78l-.05-.09c-1.5,.85-3.28-.02-5.71-2.85l-12.23-12.69c-1.49-1.39-3.44-5.18-.51-9.97,24.39-37.71,50.28-58.4,76.97-61.54,12.99-1.54,23.8,1.41,31.61,4.99,3.68-5.68,10.18-4.79,13.48-4.34,6.13,1.5,19.95-11.13,27.34-17.94,1.8-1.65,3.43-3.15,4.79-4.34,8.94-7.78,15.85-4.93,16.14-4.81h0s8.73,3.16,17.99,7.35c3.2,.89,5.21,2.59,5.72,4.94,.9,4.15-3.63,8.13-4.14,8.57l-21.61,20.03c-.31,.27-6.23,5.15-15.52,3.26-3.28-.68-5.78-.05-7.86,5.03,.08,.21,.17,.43,.24,.64,11.6,23.34,7.72,41.03,3.62,59.75l-1.12,5.18c-2.85,13.51-8.65,30.26-20.11,33.81-3.38,1.71-7.54,2.3-11.76,2.3Zm-9.82-4.86c6.7,1.16,14.95,1.8,20.12-1.04l-.02-.08c.11-.03,.21-.06,.32-.09,1.69-.99,3.02-2.38,3.82-4.28,6.96-23.89,10.73-42,12.42-55.71,.06-1.75-.33-3.82-1.15-5.94l-1.85-3.74c-3.15-5.23-11.5-14.48-31.07-16.12l-3.52-.2c-18.12-.22-33.77,4.94-33.92,4.99-7.08,2.07-14.47,4.72-22.05,7.93l-3.25,1.39c-2.38,1.04-6.23,2.89-10.03,4.77,7.25-3.15,16.27-6.23,27.1-9.25l.6-.13c19.02-3.95,31.95-2.8,37.57,3.31,11.03,1.01,18.4,5.22,21.91,12.54,9.09,18.94-11.21,52.68-17,61.64Zm-2.42-69.91c1.77,5.5-.14,13.05-5.7,22.54-1.81,2.44-3.41,4.41-4.87,6.22-6.82,8.39-9.93,12.22-5.4,24.97l1.26,3.02c2.77,6.74,4.28,10.04,8.37,11.31l.77,.17c1.05,.25,2.35,.55,3.81,.87,3.74-5.69,26.24-41.16,17.62-59.13-2.57-5.37-7.89-8.71-15.85-9.97Zm44.21-6.74c-.18,16.35-4.32,38.91-12.42,67.56,3.48-5.38,6.39-13.21,8.45-22.98l1.13-5.2c2.83-12.89,5.54-25.28,2.84-39.38Zm-64.73,.77c-5.21,0-11.5,.75-18.73,2.25-26.62,7.41-42.07,15.05-46.27,22.79-1.94,3.59-1.03,6.43-.23,8.94,.26,.83,.49,1.56,.6,2.2,.32,.76,.61,1.52,.85,2.25,52.13-31.59,72.58-34.59,80.52-31.32-.25-.74-.6-1.42-1.05-2.04-2.43-3.36-7.82-5.06-15.69-5.06ZM7.01,121.05l10.82,11.23c-.14-.54-.28-.96-.43-1.42-.88-2.76-2.22-6.95,.52-12.01,2.01-3.71,5.96-7.27,11.91-10.74-1.53,.77-2.51,1.26-2.54,1.28-6.49,3.48-13.32,7.41-20.29,11.66Zm7.58-16.86c-2.63,3.62-5.24,7.44-7.84,11.46-.29,.48-.5,.92-.65,1.34,6.63-4.02,13.13-7.74,19.36-11.08,.69-.35,15.95-8.11,22.16-10.83l3.27-1.41c7.74-3.27,15.27-5.98,22.41-8.06,.57-.2,16.4-5.48,35.26-5.17l3.66,.21c21.37,1.79,30.63,12.15,34.26,18.17l.49,.99c.6-11.17-.5-18.47-2.26-23.25-.06-.12-.12-.24-.18-.35l.04-.02c-1.3-3.36-2.92-5.42-4.47-6.67-6.16-4.97-14.63-.52-14.71-.47l-1.26,.67-1.04-.98c-.17-.16-17.05-15.81-42.33-12.8-21.44,2.56-42.5,17.23-62.77,43.69,2.14-.39,4.25,.91,4.83,3.03,.29,1.07,.15,2.2-.41,3.17-.56,.97-1.47,1.67-2.55,1.96-1.1,.29-2.24,.14-3.2-.42-.97-.56-1.66-1.47-1.95-2.55-.06-.2-.1-.41-.12-.62Zm118.54-40.97c3.04,0,6.41,.78,9.45,3.24,1.32,1.06,2.48,2.37,3.5,3.91,1.94-3.14,5.1-5.69,10.87-4.51,7.44,1.5,12.06-2.31,12.11-2.35l21.61-20.03c1.38-1.18,3.2-3.47,2.91-4.79-.17-.79-1.35-1.55-3.22-2.08-9.4-4.23-18-7.35-18.08-7.38-.29-.11-5.16-1.92-12.08,4.11-1.35,1.17-2.95,2.64-4.72,4.27-11.97,11.02-23.35,20.79-30.74,18.91-3.54-.47-6.99-.64-9.18,2.26,4.55,2.45,7.71,4.9,9.23,6.19,1.67-.7,4.79-1.76,8.34-1.76Zm-34.33,98.75c-.11,0-.22,0-.34-.01-1.12-.09-2.2-.67-2.96-1.58-.67-.78-1.06-1.77-1.07-2.77-.02-1.12,.44-2.16,1.25-2.86,1.61-1.35,4.13-1,5.62,.76,1.49,1.76,1.41,4.28-.19,5.63-.65,.54-1.46,.83-2.32,.83Zm9.92-18.13c-.24,0-.48-.02-.73-.07-.98-.18-1.89-.72-2.56-1.53-.76-.89-1.15-2.06-1.06-3.17,.08-.98,.52-1.86,1.25-2.46,.82-.7,1.93-.98,3.05-.76,.98,.19,1.89,.73,2.56,1.53,.77,.91,1.15,2.07,1.05,3.18-.09,.98-.53,1.85-1.26,2.45-.64,.53-1.45,.82-2.31,.82Zm6.72-14.02c-.93,0-1.87-.31-2.66-.89-1.86-1.37-2.37-3.85-1.14-5.52,1.25-1.68,3.77-1.92,5.63-.57,.96,.7,1.61,1.74,1.78,2.84,.15,.97-.07,1.93-.63,2.69-.54,.75-1.38,1.25-2.35,1.4-.21,.03-.41,.05-.62,.05Zm1.77-12.3c-.15,0-.3,0-.45-.02-1.18-.12-2.27-.68-2.98-1.54-.63-.76-.92-1.7-.83-2.63,.09-.94,.57-1.8,1.33-2.42,.87-.71,2.1-1.07,3.23-.93h0c2.31,.24,4.01,2.11,3.8,4.18-.19,1.92-1.98,3.36-4.1,3.36Zm-79.79-19.89c-1.84,0-3.53-1.23-4.04-3.09-.29-1.08-.15-2.21,.41-3.18,.57-.97,1.47-1.67,2.56-1.95,1.07-.29,2.2-.15,3.18,.41,.97,.56,1.67,1.46,1.96,2.54h0c.29,1.09,.14,2.22-.42,3.19-.57,.97-1.47,1.66-2.56,1.94-.36,.1-.73,.15-1.08,.15Zm26.07-11.19c-1.85,0-3.55-1.23-4.06-3.09-.29-1.09-.14-2.22,.42-3.19,.56-.97,1.47-1.66,2.56-1.95,2.24-.58,4.53,.73,5.14,2.95h0c.59,2.24-.75,4.54-2.98,5.13-.36,.09-.72,.14-1.08,.14Zm68.79-1.82c-1.62,0-3.14-1.27-3.69-3.21-.34-1.21-.22-2.46,.34-3.44,.44-.77,1.13-1.32,1.94-1.54,.79-.23,1.67-.11,2.43,.32,.98,.54,1.74,1.55,2.08,2.76,.63,2.28-.37,4.46-2.26,4.99-.28,.08-.56,.11-.83,.11Zm-39.42-5.64c-.62,0-1.25-.17-1.82-.49-.98-.56-1.71-1.54-2.03-2.69-.31-1.16-.16-2.37,.41-3.34,.49-.85,1.27-1.44,2.18-1.68,.89-.25,1.87-.12,2.73,.37,.97,.56,1.7,1.54,2.01,2.69,.31,1.14,.17,2.35-.39,3.32-.49,.85-1.26,1.45-2.18,1.69-.3,.08-.6,.12-.9,.12Zm21.03-1.07c-.56,0-1.12-.15-1.63-.44-.97-.55-1.72-1.56-2.06-2.77-.34-1.2-.22-2.45,.33-3.42,.43-.78,1.12-1.32,1.93-1.55,.8-.23,1.68-.11,2.46,.33,.98,.55,1.73,1.55,2.06,2.76,.26,.96,.24,1.95-.05,2.81-.38,1.1-1.19,1.89-2.22,2.17-.27,.07-.54,.11-.81,.11Zm48.5-24.89c-3.56,0-6.22-1.33-6.86-3.71-.89-3.3,2.62-6.81,8.35-8.34,3.64-.98,7.12-.81,9.28,.44,1.1,.64,1.83,1.55,2.12,2.62,.29,1.08,.11,2.23-.53,3.34-1.25,2.16-4.16,4.04-7.81,5.01-1.61,.43-3.15,.64-4.55,.64Zm6-8.74c-.96,0-2.13,.13-3.49,.49-3.94,1.05-5.59,3.06-5.55,3.52,.25,.51,2.87,1.27,6.57,.28,3.97-1.06,5.57-3.04,5.54-3.52h0c-.15-.28-1.23-.77-3.07-.77Z"/></svg>