<?xml version="1.0" encoding="UTF-8"?><svg id="Layer_1" xmlns="http://www.w3.org/2000/svg" viewBox="0 0 200 200"><defs><style>.cls-1{fill:#fff;}</style></defs><path class="cls-1" d="M107.68,196.03c-24.36-31.33-24.93-32.27-25.11-32.58-2.54-4.24-.98-7-.04-8.65,.38-.67,.68-1.2,.78-1.82-.2-1.66-5.94-10.68-16.66-22.8h-.01s-.7-.72-.7-.72c-10.99-12.78-18.31-16.84-26.79-21.55-1.55-.86-3.13-1.74-4.75-2.68l-.94-.59c-3.38-2.11-10.43-6.51-9.06-17.38,.24-4.73,9.01-48.08,11.69-61.25l.27-1.3,5.92,.71-.03,.92c-1,27.6-2,57.86-1.9,59.59,.06,3.82,3.7,6.35,10.67,10.85,5.88,3.8,13.85,8.95,21.78,17.37l.03-.03,.68,.75,.58,.68c.23,.26,.49,.54,.74,.83l.65,.75-.03,.02c6.16,7.26,10.57,12.96,13.52,16.77,3.37,4.33,5.65,7.28,7.52,8.92,.31-.14,.66-.3,.94-.42,1.35-.61,3.21-1.44,5.22-1.44,1.75,0,3.27,.65,4.5,1.92,.39,.41,1.23,1.49,6.19,7.89,3.98,5.13,10.31,13.3,20.07,25.82l1.93,2.48-25.82,19.32-1.85-2.38Zm-41.4-75.38c.98,1.05,24.07,25.75,23.12,33.03-.24,1.84-.99,3.16-1.53,4.13q-.74,1.3-.05,2.45c.12,.19,1.9,2.64,22.86,29.61l15.98-11.96c-8.67-11.14-14.44-18.57-18.14-23.36l-.67-.87c-2.92-3.76-4.85-6.26-5.13-6.57,0,0,0,0,0,0-.01,0-.05,0-.13,0-.54,0-1.64,.46-2.64,.9-1.25,.56-2.55,1.14-3.92,1.14-.47,0-.92-.07-1.36-.21l-.07-.02-.69-.34-.06-.04c-2.81-1.97-5.41-5.32-9.71-10.87-3.41-4.39-8.03-10.35-14.68-18.11-7.74-8.57-15.49-13.58-21.73-17.61-7.49-4.84-13.38-8.65-13.5-15.69-.04-.41-.08-2.51,.58-22.43-2.7,13.9-4.2,22.27-4.29,23.96-.9,7.19,3.04,9.64,6.2,11.61l.89,.57c1.31,.76,2.7,1.53,4.07,2.3l.46,.25c7.4,4.1,14.39,7.99,23.63,17.59h0s.52,.54,.52,.54Zm88.21,56.79c-9.27-11.56-15.64-19.49-15.95-19.86-2.11-2.47-1.64-5.63-1.26-8.17,.13-.88,.4-2.73,.15-3.14-8.2-11.12-21.43-27.43-31.09-39.34-2.79-3.44-5.27-6.5-7.31-9.04-16.36-3.71-35.58-17.73-36.4-45.22-.3-31.89,17.15-48.53,33.5-50.49,1.14-.14,2.3-.21,3.45-.21,13.3,0,31.14,9.93,37.64,37.91,.11,.62,.2,1.18,.28,1.74,.29,1.35,.55,2.8,.76,4.24l.02,.12c.39,4.83,.31,9.38-.25,13.6-1.52,13.85-7.96,25.05-19.15,33.27-1.4,.89-2.89,1.69-4.47,2.41l10.18,12.55c12.84,15.84,22.99,28.34,24.15,29.74,.21,.25,.63,.34,2.14,.46,2.02,.16,5.07,.41,8.07,2.97l.07,.06,.06,.07c1.17,1.43,6.07,7.63,12.86,16.2l4.22,5.33-19.64,17.31-2.01-2.51Zm-51.58-84.52c2.18,2.72,4.99,6.19,8.15,10.08,9.13,11.24,22.92,28.24,31.31,39.61,1.76,2.38,1.33,5.33,.98,7.69-.15,1.03-.43,2.93-.12,3.3,.33,.39,6.82,8.46,14.04,17.48l10.44-9.2-2.6-3.29c-5.51-6.97-9.54-12.05-10.5-13.29-1.18-.92-2.6-1.03-4.23-1.16-1.98-.16-4.45-.37-6.35-2.65-.99-1.18-8.3-10.19-19.82-24.39l-.67-.73-19.51-24.05,4.41-1.31s.18-.05,.47-.15c-.36,.01-.72,.02-1.08,.02-14.45,0-31.21-12.2-33.88-38.99-.96-22.32,6.16-35.17,15.02-41.22-10.9,5.36-20.41,19.21-20.19,41.88,.74,24.71,18.19,36.79,32.92,39.61l.46,.09,.14-.12,.14,.17,.25,.05-.04,.21,.29,.36Zm-.16-80.4c-.6,0-1.2,.03-1.76,.08-10.38,.98-22.1,11.75-20.94,38.86,2.29,22.97,15.55,33.28,27.67,33.28h0c.64,0,1.29-.03,1.93-.09,9.39-.86,20.93-8.8,22.53-28.37,.23-4.15-.01-8.7-.73-13.51-4.41-20.76-17.98-30.25-28.71-30.25Z"/><path class="cls-1" d="M99.58,2.98c14.46,0,30.61,11.1,36.67,37.13,.09,.56,.18,1.11,.26,1.66,.29,1.37,.55,2.78,.75,4.23l.02,.13c.39,4.85,.28,9.29-.25,13.32-1.49,13.61-7.76,24.52-18.75,32.6-1.98,1.26-3.95,2.19-5.48,2.83l9,11.09c13.76,16.97,24.94,30.75,26.17,32.22,.48,.58,1.15,.68,2.82,.82,2.01,.16,4.76,.39,7.5,2.73,1.29,1.59,7.33,9.21,15.25,19.23l1.22,1.54-18.14,15.99-1.35-1.69c-8.92-11.12-15.62-19.46-15.96-19.88-1.82-2.13-1.41-4.92-1.04-7.38,.22-1.5,.47-3.21-.03-3.88-8.23-11.16-21.48-27.5-31.16-39.43-2.85-3.51-5.41-6.67-7.49-9.25-16.34-3.57-35.15-17.16-35.96-44.35-.3-31.27,16.7-47.56,32.61-49.47,1.1-.13,2.21-.2,3.33-.2m1.71,91.25l.84-.68c2.19,2.72,4.99,6.19,8.15,10.08,9.71,11.96,22.99,28.34,31.28,39.57,1.51,2.05,1.13,4.65,.79,6.95-.24,1.67-.5,3.39,.11,4.1,.31,.37,6.89,8.56,14.68,18.27l11.94-10.52c-7.33-9.26-12.81-16.18-13.76-17.41-1.44-1.17-3.11-1.31-4.87-1.45-1.89-.16-4.03-.33-5.66-2.29-1.05-1.26-9.4-11.55-20.43-25.15l-.05,.04-18.57-22.89,2.97-.89s3.72-1.12,7.24-3.34c.06-.04,.12-.09,.18-.13-1.98,.67-4,1.1-6.02,1.29-.77,.07-1.54,.1-2.31,.1-14.93,0-30.35-12.6-32.89-38.09-1.32-30.83,12.96-43.13,25.58-44.32,.7-.07,1.42-.11,2.13-.11,.16,0,.33,0,.49,0-1.18-.16-2.35-.24-3.5-.24-.99,0-1.95,.06-2.9,.17-14.15,1.7-29.25,16.6-28.97,45.27,.75,25.31,18.64,37.69,33.73,40.58l-.21,1.08m6.44-8.5c.68,0,1.35-.03,2.02-.09,10.94-1,21.9-10.57,23.44-29.29,.24-4.28,0-8.85-.74-13.74-4.38-20.61-17.86-31.1-29.7-31.1-.62,0-1.24,.03-1.85,.09-10.82,1.03-23.03,12.09-21.84,39.9,2.38,23.83,16.06,34.23,28.67,34.23M37.15,25.8l4.09,.49c-.83,22.92-2.02,57.72-1.9,59.69,.06,4.29,3.86,6.93,11.13,11.63,6.04,3.9,14.19,9.17,22.25,17.92l.02-.02c.19,.23,.38,.45,.57,.67,.25,.28,.5,.56,.75,.84l-.02,.02c6.37,7.49,10.83,13.22,14.13,17.48,3.74,4.82,6.1,7.86,8.16,9.48,.28-.13,1-.45,1.51-.68,1.27-.57,3.02-1.35,4.81-1.35,1.3,0,2.61,.41,3.78,1.62,.36,.37,1.37,1.68,6.12,7.81,3.98,5.13,10.31,13.3,20.07,25.82l1.3,1.68-24.22,18.12-1.25-1.6c-16.14-20.76-24.57-31.69-25.05-32.48-2.24-3.73-.96-5.99-.03-7.64,.43-.76,.8-1.42,.91-2.27-.06-2.08-6.8-12.15-17.57-24.25l-.04,.03c-11.11-12.91-18.5-17.02-27.06-21.77-1.55-.86-3.12-1.73-4.74-2.67l-.9-.57c-3.46-2.16-9.89-6.17-8.6-16.41,.27-5.28,11.29-59.28,11.76-61.58m28.39,95.54h0c6.61,7.04,23.6,26.56,22.86,32.22-.22,1.66-.88,2.83-1.42,3.78-.78,1.38-1.02,1.8-.03,3.44,.2,.31,2.6,3.55,23.52,30.49l17.58-13.16c-9.02-11.59-14.97-19.26-18.77-24.16-3.58-4.62-5.55-7.16-5.85-7.5-.22-.22-.5-.33-.87-.33-.67,0-1.62,.35-3.04,.99-1.21,.54-2.36,1.05-3.51,1.05-.35,0-.7-.05-1.06-.16l-.55-.27c-2.68-1.88-5.25-5.19-9.49-10.66-3.4-4.38-8.02-10.34-14.71-18.15-7.86-8.7-15.66-13.74-21.97-17.82-7.51-4.85-12.93-8.36-13.02-14.9-.13-.91,.43-18.34,1-34.78-3.24,16.35-6.57,33.65-6.71,36.32-.97,7.75,3.44,10.5,6.67,12.51l.88,.56c1.5,.87,3.05,1.73,4.58,2.58,7.44,4.13,14.52,8.07,23.9,17.94M99.58,.98c-1.19,0-2.39,.07-3.57,.21-16.77,2.02-34.69,18.99-34.38,51.48,.38,12.81,4.77,23.99,12.7,32.38,6.35,6.72,14.9,11.58,24.13,13.74,2,2.48,4.4,5.45,7.06,8.72,9.64,11.88,22.79,28.09,30.99,39.21,.07,.51-.12,1.83-.23,2.55-.38,2.59-.91,6.14,1.5,8.97,.29,.34,6.5,8.07,15.93,19.83l1.35,1.69,1.31,1.64,1.57-1.39,18.14-15.99,1.42-1.25-1.18-1.49-1.22-1.54-2.37-2.99c-6.81-8.6-11.73-14.82-12.9-16.26l-.11-.14-.14-.12c-3.24-2.77-6.49-3.03-8.64-3.2-.37-.03-1.2-.1-1.51-.18-1.43-1.73-11.26-13.85-23.65-29.12l-2.43-3-7.37-9.09c1.19-.59,2.31-1.22,3.37-1.89l.06-.04,.06-.04c11.42-8.4,18-19.84,19.55-33.99,.56-4.24,.65-8.87,.25-13.7v-.07s-.02-.07-.02-.07l-.02-.13c-.21-1.44-.47-2.89-.76-4.29-.08-.54-.17-1.08-.26-1.63v-.06s-.03-.06-.03-.06c-2.89-12.41-8.34-22.56-15.78-29.35-6.59-6.01-14.7-9.33-22.84-9.33h0Zm-18.52,50.38c-1.11-26.36,10.1-36.82,20.04-37.76,.54-.05,1.08-.08,1.66-.08,10.33,0,23.41,9.22,27.73,29.46,.7,4.71,.93,9.16,.71,13.24-1.56,18.94-12.63,26.61-21.63,27.43-.61,.05-1.23,.08-1.84,.08-6.16,0-12.09-2.68-16.72-7.56-5.46-5.75-8.9-14.33-9.95-24.82h0Zm18.3,39.26c-13.76-3.59-28.91-15.36-29.58-38.11-.14-14.37,3.7-25.12,9.29-32.32-4.18,7.34-6.73,17.69-6.13,31.69v.06s0,.06,0,.06c1.22,12.3,5.49,22.59,12.34,29.78,4.06,4.26,8.89,7.27,14.07,8.84h0Zm44.76,62.49c-.09-.51,.11-1.84,.23-2.65,.35-2.37,.83-5.6-1.05-8.29,2.17,2.57,4.96,2.81,7,2.98,1.65,.13,2.73,.25,3.61,.88,1.06,1.36,4.81,6.1,9.9,12.53l2.54,3.21-8.94,7.88c-6.65-8.3-12.35-15.39-13.29-16.54h0ZM35.56,23.59l-.37,1.81-.07,.32c-2.67,13.13-11.39,56.2-11.72,61.47-1.41,11.45,5.98,16.07,9.53,18.29l.89,.56,.03,.02,.03,.02c1.62,.94,3.18,1.81,4.77,2.69,8.39,4.66,15.64,8.69,26.52,21.33l1.31,1.53,.06-.05c9.66,11.03,15.14,19.41,15.72,21.42-.09,.36-.3,.72-.62,1.3-.97,1.72-2.79,4.93,.06,9.66,.24,.39,.79,1.3,25.18,32.68l1.25,1.6,1.21,1.55,1.57-1.18,24.22-18.12,1.63-1.22-1.25-1.61-1.3-1.68c-10.23-13.13-16.87-21.7-20.07-25.82-5.16-6.66-5.84-7.53-6.26-7.97-1.43-1.49-3.19-2.24-5.22-2.24-2.22,0-4.27,.92-5.63,1.52-.11,.05-.22,.1-.34,.15-1.72-1.65-3.87-4.42-6.89-8.31l-.03-.04c-3.03-3.91-7.12-9.18-12.92-16.06l.02-.02-1.28-1.51c-.23-.27-.47-.53-.7-.79l-.05-.06-.47-.55-.09-.1-1.32-1.55-.09,.08c-7.78-8.08-15.53-13.09-21.27-16.8-7.24-4.68-10.18-6.89-10.23-9.99v-.05s0-.05,0-.05c-.1-1.71,.89-31.59,1.9-59.49l.07-1.84-1.83-.22-4.09-.49-1.83-.22h0Zm2.54,75.52l-.85-.54c-3.09-1.92-6.57-4.09-5.76-10.58v-.07s.01-.07,.01-.07c.04-.72,.39-3.28,1.89-11.36-.22,7.76-.21,9.36-.18,9.82,.14,7.56,6.23,11.5,13.93,16.48,6.21,4.01,13.9,8.98,21.56,17.46,6.62,7.73,11.22,13.66,14.58,18l.05,.06c4.36,5.62,6.99,9.02,9.93,11.07l.12,.09,.13,.07,.55,.27,.14,.07,.15,.05c.53,.17,1.09,.25,1.66,.25,1.59,0,3.04-.65,4.33-1.23,1.02-.46,1.6-.67,1.92-.76,.74,.94,2.61,3.34,5.03,6.46l.42,.54c4.81,6.21,10.7,13.79,17.52,22.55l-14.38,10.76c-19.62-25.27-21.94-28.4-22.21-28.79-.2-.34-.29-.53-.32-.62,.07-.17,.25-.49,.41-.76,.59-1.04,1.4-2.47,1.66-4.51,.25-1.94-.41-5.83-9.07-17.07-4.84-6.29-10.73-12.97-14.31-16.78l-1.11-1.18-.03,.02c-9.05-9.26-15.96-13.1-23.27-17.15l-.37-.21c-1.37-.76-2.78-1.55-4.14-2.33h0Z"/></svg>