<?xml version="1.0" encoding="UTF-8"?><svg id="Layer_1" xmlns="http://www.w3.org/2000/svg" viewBox="0 0 200 200"><defs><style>.cls-1{fill:#8f8f8f;stroke:#fff;stroke-miterlimit:10;stroke-width:4px;}</style></defs><path class="cls-1" d="M95.25,67.5l24.56,5.38,18.29-13.43-21.33-4.58-21.52,12.63Zm25.09,7.91l-31.46-6.89,27.49-16.13,27.34,5.86-23.37,17.16Zm5.68-1.13l26.38,5.58,13.5-14.52-21.42-4.55-18.46,13.49Zm27.2,8.15l-32.84-6.94,23.56-17.22,26.51,5.63-17.23,18.53Zm5.59-1.15l26.24,5.59,8.29-15.77-21.25-4.39-13.28,14.57Zm27.49,8.26l-31.99-6.82,16.94-18.59,25.62,5.29-10.56,20.11Zm-125.4-2.09l30.03,6.56,22.79-16.5-26.43-5.51-26.38,15.45Zm36.46,7.88l34.27,7.3,16.49-17.85-28.47-6.01-22.3,16.56Zm35.09,9.89l-40.68-8.67,13.88-10.31-14.21,10.28-36.94-8.06,32.35-18.95,32.54,6.78-.03,.02,33.29,7.03-20.21,21.88Zm5.96-1.08l33.62,7.34,9.85-19.27-27.55-5.8-15.93,17.73Zm34.89,10.02l-39.34-8.59,19.53-21.74,31.88,6.7-12.07,23.63Zm-161.67,2.13l38.35,7.86,35.29-25.81-31.72-6.45L11.64,116.3Zm44.49,9.14l45.73,9.55,25.3-27.54-35.75-7.72-35.27,25.71Zm46.55,12.12L5.13,117.37l48.02-27.95,37.82,7.69-9.28,6.78,9.17-6.69,40.79,8.81-28.98,31.55Zm6.37-.78l44.47,9.54,15.24-29.9-34.84-7.4-24.87,27.76Zm45.74,12.22l-50.19-10.77,28.48-31.8,39.17,8.32-17.46,34.24Z"/></svg>