<?xml version="1.0" encoding="UTF-8"?><svg id="Layer_1" xmlns="http://www.w3.org/2000/svg" viewBox="0 0 200 200"><defs><style>.cls-1{fill:#8f8f8f;}</style></defs><path class="cls-1" d="M0,155.55C0,117.81,0,80.08,0,42.34c.22-.68,.44-1.36,.67-2.03,1.79-5.15,5.33-8.27,10.74-8.99,2.37-.31,4.81-.29,7.21-.24,1.41,.03,2.31-.48,3.04-1.65,1.56-2.48,3.16-4.94,4.82-7.36,2.93-4.25,6.81-6.57,12.18-6.43,7.23,.18,14.46,.07,21.69,.04,4.13-.02,7.81,1.29,10.48,4.38,2.24,2.58,4.09,5.54,5.81,8.5,1.04,1.79,2.11,2.55,4.25,2.54,19.41-.09,38.83-.05,58.24-.05,9.45,0,18.89-.04,28.34,.01,8.46,.04,13.91,5.52,14.01,13.96,.02,1.5,.03,3,0,4.5-.03,1.46,.59,2.14,2.11,2.1,2.47-.06,4.96,.14,7.42-.04,7.09-.53,10.03,3,8.63,10.42-4.34,23.06-8.29,46.19-12.39,69.3-1.61,9.05-3.2,18.1-4.8,27.15-.57,3.23-2.3,5.65-5.17,7.2-3.91,2.1-7.99,1.46-11.1-1.66-1.29-1.29-2.58-2.58-3.87-3.88-2.53-2.54-2.55-2.55-1.04-5.89,3.78-8.36,5.06-17.06,3.73-26.15-3.91-26.76-30.67-44.74-56.99-38.3-31.88,7.8-46.09,44.67-27.69,71.89,.58,.86,1.22,1.7,1.75,2.59,.95,1.59,.62,2.26-1.16,2.49-.39,.05-.78,.05-1.17,.05-21.95,0-43.91,.03-65.86-.03-4.21-.01-8.04-1.45-10.66-4.85C1.79,160.08,1.05,157.69,0,155.55Zm10.52-21.99c.16,.02,.31,.03,.47,.05,.13-.45,.29-.9,.37-1.36,4.29-24.07,8.54-48.14,12.91-72.19,.32-1.78,1.2-3.61,2.3-5.06,2.09-2.75,5.15-3.43,8.53-3.43,43.45,.04,86.9,.04,130.36,0,6.06,0,5.53,1.21,5.56-5.64,.01-3.77-.62-4.37-4.48-4.37-28.79,0-57.59-.06-86.38,.05-5.67,.02-9.55-2.35-12.18-7.21-.99-1.83-2.05-3.63-3.15-5.4-1.18-1.89-2.79-2.88-5.17-2.84-6.45,.11-12.9,.15-19.35-.01-2.82-.07-4.74,1.03-6.2,3.27-1.21,1.86-2.38,3.74-3.57,5.61-2.81,4.4-6.65,6.88-12.04,6.55-1.3-.08-2.61-.01-3.91-.01-3.3,0-4.06,.75-4.06,3.98,0,28.33,0,56.66,0,84.99,0,1.01,0,2.01,0,3.02Z"/><path class="cls-1" d="M157.28,135.87c-.01,6.34-1.59,12.25-4.59,17.81-1.69,3.13-1.59,3.81,.91,6.32,6.03,6.05,12.14,12.02,18.05,18.19,1.52,1.58,2.87,3.63,3.5,5.71,1.43,4.71-3.18,9.28-7.86,7.78-2.07-.66-4.08-2.06-5.67-3.59-5.92-5.7-11.65-11.58-17.46-17.4-3.28-3.28-3.49-3.28-7.56-1.25-12.6,6.28-24.99,5.85-36.98-1.55-12.84-7.93-19.7-24.19-16.6-38.97,3.31-15.8,15.81-27.68,31.35-29.8,21.14-2.88,39.86,11.35,42.7,32.47,.19,1.42,.16,2.87,.23,4.3Zm-37.41,30.76c16.89-.06,30.38-13.65,30.3-30.53-.08-16.89-13.68-30.4-30.52-30.32-16.76,.08-30.2,13.63-30.19,30.45,0,16.9,13.57,30.47,30.42,30.4Z"/></svg>