<?xml version="1.0" encoding="utf-8"?>
<!-- Generator: Adobe Illustrator 26.0.2, SVG Export Plug-In . SVG Version: 6.00 Build 0)  -->
<svg version="1.1" id="Layer_1" xmlns="http://www.w3.org/2000/svg" xmlns:xlink="http://www.w3.org/1999/xlink" x="0px" y="0px"
	 viewBox="0 0 200 200" style="enable-background:new 0 0 200 200;" xml:space="preserve">
<style type="text/css">
	.st0{fill:#1D1D1B;}
</style>
<g>
	<g>
		<path class="st0" d="M82.7,14.2l0.6-0.4l0.4-0.2h-0.6l-0.4,0.2h-0.4L82,14l-0.6,0.2l-0.2,0.2h0.6L82.7,14.2z"/>
		<path class="st0" d="M40.9,47.3l0.4-0.6l-0.4,0.2l-0.2,0.4v1l0.2,0.2l0.6-0.4l-0.4-0.2L40.9,47.3z"/>
		<path class="st0" d="M81.6,15l0.6-0.2l0.2-0.2v-0.2l-0.6,0.2h-0.6l-0.2,0.2l0.2,0.2H81.6z"/>
		<path class="st0" d="M80.3,15.4l0.4-0.2V15h-0.4l-0.2,0.2v0.2H80.3z"/>
		<path class="st0" d="M85.3,15.2l-0.6,0.2l0.2,0.4L84.6,16H84l0.2-0.2v-0.2h-0.6L82.9,16h-0.6l-0.4-0.2h-0.4l-0.4,0.4l-0.9,0.4
			l0.6-0.6h-0.2l-1.1,0.2L79,16l-0.6,0.2l-0.2,0.4l-0.2,0.2l0.4,0.4l-0.4,0.4l1.1,0.2l0.4-0.2l-0.2-0.2h2.6l0.9-0.4h0.2l0.2-0.2
			l0.2,0.4h0.4l0.4,0.2l1.3-0.2h1.7L87,17.1h2.2l0.2-0.2V16L89,15.8h0.2L89,15.4h-1.3l0.4-0.2L87.4,15h-0.2v-0.2h-0.9L85.9,15
			L85.3,15.2z"/>
		<path class="st0" d="M49.3,44.2l-0.9,0.6l-2.4,1.4L45,46.7v0.6h-0.6l-0.2,0.4l0.9,0.8l0.6,0.4l0.2,0.6L45,49.9l0.4,0.2l1.5-0.6
			v0.2l-0.9,1l0.2,0.4l0.2,0.2l1.1-1l0.4-0.8l0.4-0.8H48l0.9-0.8l-0.2-0.8l-0.4,0.2L48,46.7l0.4-0.4v-0.4l-0.6,0.2l1.1-0.8l1.1-0.6
			l0.4-0.2l-0.2-0.2L49.3,44.2z"/>
		<path class="st0" d="M44.6,45l0.2-0.2V44l-0.2-0.8h-0.2L44.1,44l0.2,0.8L44.6,45z"/>
		<path class="st0" d="M77.7,15.2l0.6-0.2l0.9-0.2H79l0.2-0.2h-0.4l0.2-0.2l-1.1,0.2l-0.2,0.2h-0.9L76.6,15v0.4L77.7,15.2z"/>
		<path class="st0" d="M83.1,14.8V15H82l-0.6,0.2l-0.2,0.4v0.2h1.7l0.4-0.2l1.1-0.2l0.2-0.2l0.4-0.2l0.9-0.2v-0.2h-0.9l-0.6-0.2
			l-0.6,0.2L83.1,14.8z"/>
		<path class="st0" d="M73.6,18.9l-0.9,0.4v0.2h0.2v0.6l0.4-0.2l0.6-0.6l0.2-0.4L74,18.7L73.6,18.9z"/>
		<path class="st0" d="M58.6,24.8h0.4l0.4-0.4l-0.2-0.2l0.9-0.2l0.4-0.6L61,23l0.2-0.4H61l0.6-0.4l0.2-0.2l-1.3,0.4L59.3,23h-0.6
			l0.2,0.4L58,23.8h1.5l-0.6,0.4L58.6,24.8z"/>
		<path class="st0" d="M76.6,15.8l0.6-0.2h-0.9l-0.6,0.2L75.5,16h0.6L76.6,15.8z"/>
		<path class="st0" d="M57.1,24.6L56.7,25v0.2l0.9-0.2h0.2v-0.4H57.1z"/>
		<path class="st0" d="M66.7,27.1l-0.2-0.4l0.9-1v-0.4l0.4-1h1.1l1.1-0.8l0.4-0.6l0.4-0.6l0.6-0.6L71,21.3l0.6-0.4l0.4-0.4l0.6-0.8
			h-0.6l-0.4-0.2l0.9-0.2l1.5-0.8l-0.6-0.2l-1.3,0.2l1.1-0.6H74l-0.2-0.4h-0.6l-1.3,0.2l-1.7,0.4v0.4h-0.6l-0.6,0.2l-0.2,0.4
			l-0.4,0.6l-0.2,1l0.2,0.2h0.6l-0.4,0.4l-0.2,0.2l-0.6,0.6h-0.4L66.7,23l-0.4,0.6l-0.4,0.2l-0.6,0.4l-1.5,0.4L62.8,25l-0.4,0.2
			l-0.4-0.4l-0.2-0.4l-1.3,0.2l-0.2,0.6l0.4,0.6l0.4-0.2l-0.4,0.8l-0.4,0.8h-0.4l-0.6,0.8l-0.2,1v1.2l0.4-0.4l0.6-0.8l0.9-1.2
			l-0.6,1.4v0.6l1.1-0.6l1.3-1l0.2-0.2l0.2-0.8l0.6-0.6l0.9-0.4l0.4,0.2l-1.1,1l-0.2,0.6l2.2-0.4L66.7,27.1z"/>
		<path class="st0" d="M75.3,17.9l-0.2,0.4H76l0.6-0.2l0.6-0.2v-0.4L77,17.3l-0.2-0.2v-0.2l0.2-0.2l0.2-0.2l0.4-0.2l0.6-0.2l0.4-0.2
			l0.2-0.2l0.4-0.2l0.2-0.4h-0.4l-0.6,0.2l-0.2,0.4l-0.9,0.2L76.8,16L76,16.2l-0.6,0.6l-0.2,0.4v0.2L75.3,17.9z"/>
		<path class="st0" d="M56.7,26l-0.4,0.4v0.2l0.6-0.4l0.2-0.2v-0.2L56.7,26z"/>
		<path class="st0" d="M64.9,23.6l0.2-0.2l0.6-0.2l0.4-0.4h-0.4L64.9,23l-0.6,0.4l0.2,0.2H64.9z"/>
		<path class="st0" d="M72.9,17.1h1.3l0.4-0.4l0.2-0.4L74.4,16L74,16.2h-0.9l-1.3,0.4l-0.2,0.4l1.1-0.2L72.9,17.1z"/>
		<path class="st0" d="M137,77.5l1.1-0.8l-0.2-0.2v-0.2l0.4-0.8l-0.9,0.6l-0.9,0.2v0.4l-0.6,0.2l0.4,0.6L137,77.5z"/>
		<path class="st0" d="M107.6,50.8l0.4-1l-0.4-0.8l-1.3,0.6l0.2,0.6L107.6,50.8z"/>
		<path class="st0" d="M106.3,70.6l0.4-1.2l-0.4-1.2l-0.6,0.6l-0.2,0.4l0.4,1L106.3,70.6z"/>
		<path class="st0" d="M95.2,51.2l-0.6-1.6v-0.2l-1.1-0.2l1.1-1l0.2-1.2h-0.9l-0.9,0.2l1.1-1.4h-1.7l-0.9,1l-0.4,1.2l0.2,0.8
			l-0.2,1.2l0.6-0.6l0.2,0.4l-0.4,0.6l0.2,0.4l1.1,0.2v0.2l0.6,0.8l-0.4,0.8l-1.3-0.2l-0.2,0.8l0.4,0.8l-1.3,0.4l0.2,0.6l1.5,0.2
			h0.2l-1.1,0.4l-1.7,1.4l0.6,0.2l0.6-0.4l1.1,0.2l0.6-0.6l0.4,0.2l1.7-0.4l1.5,0.2l0.9-0.8L97,55.3l0.6-0.4l0.2-1l-1.3-0.2L96.3,53
			l-0.4-1.6L95.2,51.2z"/>
		<path class="st0" d="M126.9,79l1.7-0.4l0.2-0.6l-0.6,0.4v-0.4h-1.1l-0.9,0.4l-0.9-0.6v0.8h1.5L126.9,79z"/>
		<path class="st0" d="M68.4,36.3l0.6-0.8l1.5-0.6l1.1-0.6l0.6-0.6l1.1-0.6h2.2l1.7-0.2l1.7-1l0.9-0.2l0.4,0.2H82l1.9-0.6l1.9-0.6
			l-0.6-0.2l-1.1-0.2l0.9-0.4l0.4-0.8v0.6l0.2,0.6h0.9l0.4-1l-0.2-0.6l-0.4-0.4l0.4-0.2l0.6,0.6l0.2-0.4v-0.8H89l0.4-0.2l-0.2-0.6
			l0.9,0.2v-1h0.4l0.4-0.8l-0.2-0.6l0.9-0.2l0.4,0.2v-0.6l0.6-1l0.6-0.6l0.9-0.6h-0.6h0.9l0.4-0.2l1.3-0.4v-0.4l-0.4-0.2h-1.3
			l-0.9,0.2l0.6-0.4v-0.2l-0.6,0.2l-0.2-0.4l-0.6-0.2v-0.2l1.1,0.2l0.6,0.2l0.6-0.2l-0.4-0.8l-1.1-0.4l-0.6-0.2l-0.4,0.2L92,17.9
			l-1.3,0.2l-0.4,0.2l-0.4,0.4l0.2-0.2l-0.2-0.2l0.2-0.4L89,18.1l0.4-0.2L89,17.5h-0.6l-0.4-0.2l-0.6,0.4l-0.4-0.2h-1.3l-0.6,0.2
			l-0.2,0.4h-1.7l-1.1-0.4l-0.6,0.2l-0.4,0.6l0.2,0.6l-0.4-0.2l-0.6-0.2L79,19.3l-0.2,0.2l0.2,0.4l0.4,0.2l0.2,0.4l-0.2,0.8
			l-0.6,0.2L78.6,22l-1.3,1l-0.6,0.6L76.2,24l-1.5,0.4v0.4h0.4l-0.2,0.4L74.7,26l-0.4-0.4L74,25.4l-0.9,0.4l-0.9,0.4v0.6H74
			l-1.1,0.6l-0.6,0.2h-1.1l-1.7,0.8l-0.2,0.6l-1.1,0.4l-0.6,1.2l-1.1,0.8L66,32.4L65.1,34l-0.6,1.2l-0.2,0.8l0.9,0.4v1.4l0.9,0.2
			l1.3-1L68.4,36.3z"/>
		<path class="st0" d="M90.3,52l0.6-1L90,50.2h-0.6l-0.9,0.6L87,51.6l0.2,1.4l-1.1,1.4l1.3,0.4l1.9-0.6l0.9-1.2L90.3,52z"/>
		<path class="st0" d="M88.1,36.9l-0.2-0.8l0.4-0.8L87.2,35l-1.3,0.4L85.3,35l-1.1,0.4l-0.6-0.8h-0.9l-0.9,0.6l1.1,0.6l-0.2,0.2
			h-1.1l0.9,0.8l-0.9,0.4l1.7,0.8l0.6,0.2h0.6l2.4-0.6L88.1,36.9z"/>
		<path class="st0" d="M113.2,77.1l1.1,0.4l0.2-0.8l-0.2-0.4l0.2-1.2l-0.9,0.2l-1.3,0.2h-1.5v0.8l1.7,0.6L113.2,77.1z"/>
		<path class="st0" d="M105.6,74.1l0.4,0.4l0.4-0.6h0.6v-2l-0.9-1l-0.4,0.6l-0.9-0.2l0.4,1L105.6,74.1z"/>
		<path class="st0" d="M165,143.7l-0.2-0.4l-0.4-0.4l-0.4,0.8l-0.2,0.8l-0.6,1l-0.4,0.2v0.4l-0.4,0.8l-1.1,1.2l-0.9,1h-0.6l-0.4,0.4
			l-0.6,0.6l-0.6,0.2l-0.4,0.8l-0.4,0.8l-0.2,1.2v1.2l-0.2,0.8l-0.9,1.2l-0.2,0.4l-0.4,0.2l-0.6,1v1.6l-0.2,1v0.4l0.6,0.2h0.6
			l1.1-0.8l1.1-0.6l0.9-1.4l1.1-1.8l1.5-2.7l1.1-1.8l0.9-1.6l0.2-1.2l0.4-0.4l0.2-0.6v-0.8l0.4-0.4v0.6l0.4-0.4l0.2-0.8l-0.2-0.4
			l0.2-1.6L165,143.7z"/>
		<path class="st0" d="M106.1,23l-0.6,0.2l0.4,0.4l-0.2,0.2l0.9,0.2l0.4-0.6h-0.6L106.1,23z"/>
		<path class="st0" d="M104.5,22l0.2,0.2h0.9l0.6-0.2v-0.6l-0.6-0.2H105l-0.2,0.2l-0.4-0.2l-0.6,0.4l0.4,0.4L104.5,22z"/>
		<path class="st0" d="M103,23.8l0.6,0.2l-0.2,0.2l0.9,0.6h0.4V24l0.2-0.2l-0.2-0.8l0.6-0.4l-1.3-0.4l-0.4-0.4l-0.4,0.2v0.2h-0.4
			l-0.2-0.2l-0.6,0.4l0.2,0.6L103,23.8z"/>
		<path class="st0" d="M17.3,85.3v-0.4l-0.2-0.4l-0.4-0.4l-0.2,0.6l0.2,0.4l0.4,0.4L17.3,85.3z"/>
		<path class="st0" d="M110.6,20.1l0.4,0.2l0.2-0.2l-0.2-0.2v-0.2h0.2l-0.2-0.2h-0.4v0.2l0.2,0.2l-0.4-0.2h-0.2l-0.2,0.4l0.4-0.2
			L110.6,20.1z"/>
		<path class="st0" d="M115.6,15.8h1.9l0.4-0.2l-0.2-0.4l-1.3-0.2h-1.5l-0.9,0.2l0.4,0.2L115.6,15.8z"/>
		<path class="st0" d="M119.3,15.6l-0.9-0.8l-0.6-0.2l-0.6,0.2l-0.2,0.2h0.2L119.3,15.6z"/>
		<path class="st0" d="M118.8,20.5v0.4l-0.2,0.6v0.8l0.2,0.8l0.4,0.2l0.4,1h0.4l0.4,1l0.6,0.4v0.4l0.6,0.4h0.9l0.6,0.2l1.1-0.4
			l0.2-0.2l-1.7-0.4l-1.1-0.6l-0.6-1l-0.9-0.8l-0.4-1.2v-1.6l-0.4-0.2l-0.6-0.2V20.5z"/>
		<path class="st0" d="M16.8,98.8v0.6l-0.2,0.2v0.2l0.6,0.4l0.2-1.2l-0.2-0.2H16.8z"/>
		<path class="st0" d="M197,90l-1.7-10l-2.6-9.8l-3.7-9.6l-4.5-9L179,43l-6.3-8l-7.1-7.2l-7.8-6.5l-8.4-5.5l-9.1-4.7l-9.5-3.7
			l-10-2.7l-10.2-1.6L100,2.6L90,3.2L79.9,4.8l-10,2.7l-9.5,3.7l-9.1,4.7l-8.7,5.5l-8,6.3l-7.1,7.2l-6.5,8l-5.6,8.6l-4.5,9l-3.7,9.4
			l-2.4,9.8l-1.5,10L2.6,100L3,110l1.7,10l2.6,9.8l3.7,9.6l4.5,9L21,157l6.3,8l7.1,7.2l7.8,6.5l8.4,5.5l9.1,4.7l9.5,3.7l10,2.7
			l10.2,1.6l10.4,0.6l10-0.6l10.2-1.6l10-2.7l9.5-3.7l9.1-4.7l8.7-5.5l8-6.3l7.1-7.2l6.5-8l5.6-8.6l4.5-9l3.7-9.4l2.6-9.8l1.5-10
			l0.6-10.4L197,90z M156.7,67.3l-1.1,1l-1.5,0.2l-0.9-0.4h-1.1l-0.9-1l-0.4-0.6l0.2-0.4v-0.6l-0.4-1.2l0.6-0.4l-0.4-0.2h-0.4
			l-0.9-0.8l-0.9-0.6L147,61l-0.4-1l-1.5-1v-1.6l0.6-0.6l-0.2-1l0.6-0.6l0.4-1h0.9l0.6-0.4l0.6,0.8l0.6,1.4h-0.9l-0.4,0.4l0.6,1
			l-0.9,0.2l0.2,0.4l0.6,0.2l1.1,1h1.3l0.4,0.4l0.2,0.6l0.2,0.4l0.9,0.8l-0.4-1l0.4-0.6l0.6,0.6l1.1,0.6l-0.4,0.8h-0.9l0.4,1.2
			l0.6-0.2l0.4,1l0.9,0.2l0.6,1.6l0.6,1L156.7,67.3L156.7,67.3z M124.5,15l-0.6-0.2h-0.2C123.6,14.8,124.5,15,124.5,15z M186.8,84.7
			l0.2,1.6v-0.2L186.8,84.7z M73.4,15.6h0.4H73.4z M187.7,109.2l-1.5,9.2l-2.4,9l-3.2,8.6l-4.1,8.4l-5,7.8l-5.8,7.2l-6.5,6.5
			l-7.1,5.9l-7.8,5.1l-8.2,4.3l-8.7,3.3l-8.9,2.5l-9.1,1.4l-9.3,0.4l-9.1-0.4l-9.1-1.4l-8.9-2.5l-8.7-3.3l-8.2-4.3l-7.8-5.1
			l-7.1-5.9l-6.1-6.1l-0.4-1l-0.4-0.6l-0.4-0.8l0.2-0.8l0.6-0.4l0.9,0.2l0.4-0.2l1.3,0.2l1.1,0.4V156l0.6-0.2l-0.2-1.2l0.6-1.2
			l-0.2-1.6l0.2-0.4v-0.8l-0.2-1.8l-0.6-2.5l0.2-0.8h0.2l0.6-0.8l0.4-1.2l1.5-1.4l0.4-0.6l0.2-2.2l-0.2-1l-0.6-2l-0.4-0.6l-1.1-0.4
			l-0.9-0.8l-1.7-2.2l-1.7-1.8l-1.7-0.6l-2.2-1.6h-1.3l0.2-0.8l-0.6-1l-1.5-1.4l-1.3-1.2l-0.6,0.6v-1.4l-1.7-1.2l-0.4-0.6l0.6-0.8
			v-1l-0.4-0.6l-0.4-2.9l-0.2-1h-0.2l-0.2-0.6l-0.9-1.8L22,111l-0.2-0.4l-0.9-1l-0.6-0.4l-0.2,0.2l-0.9-1l-0.2-0.8l-0.4-1l-0.2-0.2
			v-0.8l-0.4-1.4l-0.2-0.6l-0.2-0.6l-0.4-0.2v-1.2l-0.4-1.2l-0.4-0.6v-0.8h0.6L16,98l-0.9-0.6v0.4L14.7,98l-0.4-0.6l-0.2-1l-0.6-0.4
			l-0.4-0.6v-0.6l-0.2-1.2l-0.2-0.4v-1.2L12.3,92v0.8h-0.2v-2.2l1.5-9.2l0.2-0.8L14,81l0.2,0.2l0.2,0.6l-0.2,0.4v0.4l0.4-0.8h0.2
			v0.4l0.2,0.2l0.2-0.2l0.2,0.2l0.2,0.2v0.6l0.4-0.4V82L16,81.6l0.2-0.4L16,81v-0.6l-0.2-0.2v-0.8h-0.2l-0.2,0.2l-0.2-0.8l-0.2-0.4
			l-0.2,0.2l0.2,0.6l-0.2,0.6v0.8l-0.2,0.2l-0.2-0.6l1.9-7.8l3.2-8.6l3.9-7.6l0.2-0.2l0.2,0.2l0.6-0.4l0.4,0.2l0.9-0.6l0.9-1.4
			l0.2-0.4v-0.2l0.9-1.2l0.2-0.8V52l0.6-0.8l0.4-0.4l-0.9,1l-0.2,0.8l-0.6,0.6l0.9-0.8l0.4-0.4l0.4-0.4l0.2-0.4l0.4-0.8l-0.2,0.4V51
			l-0.2,0.4l0.9-0.6l0.9-0.8v-0.2l0.4-0.2l-0.2,0.2l0.2,0.2l0.6,0.2l0.2-0.4l-0.6-0.4H32l0.2,0.2l0.2,0.2l0.4,0.2l0.2,0.2l0.4,0.2
			l0.2-0.4l0.2-0.4l-0.4,0.4l-0.2-0.2l0.4-0.8l0.6-0.6l0.2-0.2l0.9-0.4l0.6,0.2h0.6l0.9-0.2l0.2-0.4l0.6,0.4l0.6,0.6l-1.5,0.6
			l-0.9,1l0.2,0.4l1.3-0.4h0.9l1.7,0.2l1.3-0.4v-0.6l0.6-0.8l-1.7,0.6l-0.9-0.4v-1.2l0.6-1l1.1-1.4l1.1-0.4l0.2-0.8l-0.6-0.4
			l-1.7,0.2l-1.9,0.8L38.5,44l1.3-0.6l1.9-0.8h0.9l1.1-0.4l0.4,0.4l0.6,0.6l0.6,1l0.9,0.4l1.5-0.4l1.1,0.2l0.6-0.2l0.9-0.2l1.3-1.2
			l0.2-0.6l-0.2-0.4l0.9-1v-0.6l-0.4-0.8l0.2-0.8l0.2-1l0.9-0.6l1.1-1.6l1.3-1.6l0.9-1l-0.9,0.2l-1.7,0.8H53l0.6-0.8v-0.4l1.5-1.2
			l1.1-0.8l0.4-0.8l0.4-0.4l0.6-0.8l0.2-0.6h-0.4v-0.4l0.2-0.6h-0.4l-2.2,1.4l-1.3,0.8l-1.5,0.4l-0.9,1l-1.1,1L49.5,32l-1.1,0.4
			l-1.1,0.2l-0.9-0.2l-0.6,0.8l-1.9,1.6l-1.3,0.8h-0.4l1.1-1.4l1.3-1.4l1.3-1l1.1-0.8v-1l0.6-0.8l0.4-0.6l0.6-0.6l7.1-4.7l1.9-1v0.2
			l0.9-0.4h0.6v0.4l0.9-0.2l0.6-0.2l1.3-0.2l0.6-0.2L62.3,22l0.2,0.2h1.1l0.6-0.2l0.9-0.4l0.9-0.2l0.6-0.2l0.6-0.6l0.2-0.4v-0.4
			l-1.1,0.6l-1.3,0.2l-1.1,0.2l1.1-0.6l1.1-0.4l1.1-0.6h-1.1l1.5-0.4l0.4-0.4h0.6l1.7-0.8l0.6-0.4l0.4-0.4h-1.1l-1.7,0.4l-0.6,0.4
			l-1.1,0.8l-1.5,0.4v-0.2l1.3-0.4h0.2l0.6-0.2l0.2-0.2l2.6-1l0.4,0.2l1.7-0.6l0.9-0.4h0.6l0.4-0.2v-0.2l0.4-0.2h-0.4l7.1-1.8h1.5
			l0.2,0.2l0.4-0.2h0.2l7.1-1l8.7-1l9.1,0.4l9.1,1.4l2.6,0.6l-0.4,0.4l0.2,0.4l0.4,0.2h-0.6V15l-0.4-0.2l-0.4,0.2l0.9,0.4l0.6,0.2
			l0.6,0.2V16l0.9,0.4h-0.4l0.2,0.4l0.4,0.2l0.2,0.4l0.6,0.6v0.2l0.9,0.4l0.9,0.2v0.4l-0.2,0.4l0.2,0.4l1.5,0.6l1.3,0.4h-1.1
			l-0.2,0.4l0.4,0.6l1.1,0.4h-0.4l-1.3-0.6l-0.6-0.2V22l1.1,0.4l0.6,0.8l1.3,0.4l1.3,0.8l0.9,0.4l0.4-0.2l0.9,0.6l0.9,0.2l0.4,0.6
			l0.6,0.4l0.2,0.4l0.4,0.4l-0.4,0.2l-1.5-1.6l-0.9-0.6l-1.1-0.2l-1.9-1l-1.1-0.4l-0.6-0.2l-1.1-0.8l-0.9-0.4l-0.9,0.2l0.2,0.2
			l1.1,0.8l0.9,1l0.4,0.2l1.3,0.4l0.6,0.4l0.4-0.2l0.2,0.2l1.1,0.2l0.6,0.6L129,26h-0.9l-1.5,0.4l0.2,0.4l1.1,0.2l0.4,0.8l-1.1-0.4
			v0.6l-0.6,0.4l0.2,0.4l-0.6,0.2l-0.2-0.6h-0.4l-0.4,1.4l-0.4,0.8l0.6,0.6l-0.4,0.4l-0.6-0.2l-0.6-0.6l0.4-0.4h-2.4l0.9,0.6
			l0.4,0.6l0.9,0.4l0.4,0.8l-0.9-0.2H123l-0.4,1.4l1.1,0.6l-0.2,0.4l-1.9-0.4v0.6l0.6,0.4l0.2,0.6h-0.6l-1.1-0.2l-0.9-1.2l-0.2-0.4
			L118,34l0.2-0.2l3,0.2l0.6-0.6l0.2-0.8l-0.6-0.6l-0.9-0.4l-2.8-0.6h-1.5l-1.3-0.4l-0.2,0.4l-0.9-0.4l0.4-0.4l-1.9-0.4l-0.6,0.4
			h-0.9l-0.4,1h-0.9l-1.1,0.6l-1.1,1.6l-0.9,0.8l-1.1,2.2l-0.9,1.6l-1.3,1.2l-1.7,1.4l-0.6,0.8l0.2,2.9l0.4,1.4l1.3,0.6l1.1-0.4
			l1.5-1.6l0.6,0.8l0.9,1.8l0.9,1.4l0.4,1.2l1.1-0.2l0.2-1h1.1l0.2-1.2l-0.2-2.2l0.9-0.4l0.4-1.4l-1.1-0.6l-0.9-0.8v-1.8l1.1-1.2
			l0.6-1l-0.4-0.6l0.2-0.8l0.9-0.4l1.1,0.4l0.2,0.4l-0.2,0.4l-0.4,1.2l-0.4,0.8v0.8l0.6,1l0.2,1.2l0.9,0.4l0.6,0.6l1.1-0.4l1.1-0.6
			l1.3-0.4l1.1,0.4l-0.4,0.8l-0.9,0.2h-0.9l-0.9,0.4l-0.9,0.4l0.4,0.8l0.6,0.4l0.2-0.2l0.2,0.8l0.2,1h-0.6l-1.1-0.8l-0.4,0.4
			l-0.2,0.8l0.2,1l0.4,1l-1.1,0.6v0.6h-0.9l-0.2-0.4l-0.9-0.2l-1.1,1l-1.3,0.8l-0.6,0.4l-0.4-0.4l-1.1-0.4l-0.4,0.4l-1.1,0.2v-0.4
			l-1.1-0.2v-0.6l-0.2-0.6l0.6-1l0.2,0.2l0.2-0.6l-0.4-0.2l-0.2-0.4l0.2-0.4v-0.6l-0.6,0.4l-0.2,0.4l-0.9,0.2l-0.2,0.4l-0.2,0.4
			l0.2,1.4l0.4,0.8V52l0.2,0.6l-0.6,0.6l-0.2-0.2h-0.9l-0.2,0.2h-0.9l-1.3,0.6l-0.9,2l-0.4,0.4l-0.9,0.2l-0.9,0.2L97,57.9l-2.6,1
			l-0.9-0.6l0.2,1.6l-1.5-0.8l-1.3,0.2v1l1.5,0.6l0.6,0.8l1.1,1.6l-0.4,3.1l-0.6,0.8h-2.8L89,66.9h-1.5l-1.3-0.4l-1.7,1l0.4,0.6
			l-0.2,1v0.6l0.2,0.6V71l-0.4,0.8l-0.2,0.6L83.5,73l-0.2,1l0.2,0.6l0.4,0.2v1l-0.4,1.2l0.6-0.2l0.6,0.2l0.6-0.4l1.1,0.4l0.2,1
			l0.4,0.6l0.6,0.2l0.6-0.6l0.9-0.4h3l1.1-1.2l1.1-0.2l0.4-1l0.9-0.6l-0.4-0.8l0.4-1.2l0.9-0.8l0.2-0.6l1.5-0.2l1.1-1v-0.8l0.2-1
			l1.7-0.4l2.4,0.4l1.1-0.8l0.4-0.2l0.6-0.8l0.4-0.2l1.1,0.4l0.6,0.2l0.4,1.4l0.9,0.8l1.1,1l1.1,0.6h0.9l0.6,0.6H113l0.4,0.6
			l0.4,0.2l0.4,0.8l0.6,0.8l-0.2,0.4l-0.2,0.8v0.4l0.4-0.2l0.4-1.4l0.4-0.2v-0.8l-0.9-0.4l0.4-1l1.1,0.2l0.9,0.6l0.2-0.6v-0.2
			l-1.1-0.6l-0.9-0.4l-1.1-0.4l0.2-0.4l-0.4-0.4h-0.9l-1.5-1.2l-0.6-1.2l-1.1-0.6l-0.4-0.8v-0.4l-0.2-0.8l0.9-0.6l0.9,0.2l-0.2,0.2
			v0.6l0.4,0.4l0.2-0.6l0.6,0.2v0.4l0.6,0.6v0.4l1.1,1l1.1,0.4l0.9,0.4l1.1,0.4l0.6,0.2l0.4,0.4h0.2l0.2,0.2v1.4l0.2,0.8l0.6,0.4V72
			h0.2l0.2,0.4l0.9,0.8l0.6,0.6l0.4,1l0.6,1.2l1.1,0.6l0.9-0.2l-0.6-1l0.6-0.2l-0.4-0.8l1.3,0.2l-0.2-0.8l-0.9-0.4l-0.9-0.6l0.4-0.4
			l-0.6-0.6l-0.4-0.8l0.2-0.4l0.9,0.6h0.6l0.4-0.4l-1.1-0.6l1.3-0.6h1.3V70l0.6,0.6l0.6-1l0.4-0.6l1.3-0.4v-0.4l-1.1-0.4l-0.2-0.4
			l-0.6-0.8v-1.2l0.4-0.6l-0.2-1.8h0.4l0.4-0.4l-0.4-0.2l0.4-1.2v-0.8l0.9-0.4l0.2,0.6h1.7l0.4,0.2l-0.6,0.6v0.4l1.3,0.2v0.8
			l0.6,0.2l1.1-1.2l0.9-0.4v-0.6l-0.9,0.4l-0.6-0.2l-0.4-0.8l0.6-0.8l0.9-0.2l0.4-0.6l0.6-0.2l0.6-0.4l0.2,0.2l-1.1,1l0.9,0.4
			l-0.2,1.4l-0.6,0.4l1.3,0.6l1.3,0.2l1.7,0.8l0.6,0.4h0.6l0.9,0.4l0.6,0.8l0.2,0.6l-0.9,1l-0.9,0.2l-1.1,0.6l-1.7-0.2l-2.2-0.6
			l-1.7,0.4l-1.1,0.6l-0.9,1.2l-2.2,0.2l-0.2,1.2l-1.7,0.4l-0.9,1.6l0.9,0.6l-0.6,1l1.1,0.6l1.1,1.4l1.3-0.2l1.3,0.6l0.9-0.4v-0.6
			l1.3-0.2l1.1,0.6l1.7-0.6l0.4-1l1.1,0.2l0.6-0.2l-0.2,0.6l0.6,0.6v0.6l0.4,1.2l-0.2,1.2V81l-0.2,0.8l-0.2,0.6l-0.4,0.6l-0.9,0.2
			l-1.1-0.2l-0.2,0.6l-0.4-0.8h-0.9l-1.1,0.4l-0.4,0.4l-0.9,0.6l-0.6-0.2l-1.3-0.2h-1.3l-1.7,0.2l-0.4-0.4h-1.3l-0.4-0.2H126
			l-0.6-0.6h-1.7l-0.9,0.4l-0.9,0.8l-0.2,0.8l0.4,1.2l-0.4,0.8l-0.6,0.4l-1.5-0.6l-2.2-0.6l-1.3-0.2l-0.9-1.4l-1.9-0.6l-0.9-0.2
			l-0.6,0.2l-1.5-0.4l-0.4-0.2l-0.4-0.8h-0.6l-0.4-0.8l0.9-0.8v-1.4l-0.4-0.4v-0.8l0.6-0.8l-0.2-0.2l-1.1,0.6v-0.8l-0.9-0.2
			l-1.5,0.8h-0.9l-0.4-0.2H103l-1.3,0.6l-0.6-0.2l-2.2,0.2l-2.2,0.2l-1.3,0.4l-0.9,0.6l-1.5,0.2l-1.3,0.8h-0.6l-1.3-0.4h-1.3
			L87.9,79H87l-0.4,1l-1.1,1.6l-1.1,0.6l-1.5,0.6L82,83.7l-0.2,0.8l-0.6,1.2v2L79.9,89l-0.6,0.4l-1.3,1h-1.3L75.7,91l-1.1,1.4
			l-1.1,0.4l-0.6,1l-0.2,0.8l-0.4,0.8l-0.4,0.4L71,96.7L70.3,98v0.6l-0.6,0.6L69,99.6l-0.2,0.8l-0.2,0.6l0.6,0.8l0.2,0.8l-0.2,0.8
			v2.5l-0.4,1.4l-0.4,0.8v0.8l-0.4,0.8l-0.4,0.8l-0.6,0.2l0.6,0.6l0.4,1.4l-0.2,0.6l0.2,1.2v0.4l0.4,0.4v0.2l0.2,0.4l0.6,0.2
			l0.9,0.8l0.4,0.4l0.2,0.4l0.2,0.8l0.4,0.4l0.4,0.2l0.6,0.6l0.6,1l0.2,1.2l0.2,0.6l0.9,1l1.1,0.8l0.4,0.2l1.1,1l1.3,1l1.3,1.2
			l1.5,0.8h0.6l1.5-0.4l1.1-0.4l1.9-0.2h1.1l1.1,0.4h0.6l1.5,0.4l1.5-0.4l0.9-0.4l2.6-0.8L97,127l1.3-0.2h2.8l1.1,1l0.4,1l0.9,1h1.3
			l0.6-0.4h0.6l1.7-0.6v0.4l0.4,0.2l0.4,0.6l0.6,0.2l0.6,1l-0.9,1.4l-0.4,1.8l0.2,0.2l-0.2,1l-0.4,1l-0.4,0.4v0.4l1.1,1.4l1.1,1.2
			l1.7,1.4l1.3,1.4l0.4,1l0.2,0.4l-0.2,0.2l0.9,0.8l0.2,0.8l0.4,1.2l-0.4,0.6v0.2l0.4,0.8l0.4,0.8l0.4,0.4v0.8l-0.6,1.6l-0.4,0.6
			l-0.9,0.8l-0.4,0.6l-0.6,1.2l-0.2,0.6l-0.6,1.2l-0.2,1v1.8l1.1,1l0.2,0.8l0.6,1.4l0.6,0.8l0.4,0.4l0.2,0.6v1.4l0.2,1.6l0.2,0.8
			l0.2,1l0.4,0.6l0.9,0.6l0.9,1.2l0.4,0.8l0.6,0.8l0.4,0.6l-0.4,0.2l0.2,0.6l-0.2,0.6l0.2,0.2V177l0.4,0.4h0.4l0.4,0.2h0.6l0.9-0.4
			l1.1-0.2l1.5-0.6h0.4l0.9-0.2h1.3l0.6-0.2h0.6l0.2-0.2l0.6-0.2l1.5-0.6l1.1-0.6l1.1-0.8l1.7-1.2l0.9-0.8l0.4-0.6l0.6-0.6l0.2-0.2
			l1.1-0.6l0.4-0.6l0.4-0.8l0.6-0.8l0.2-0.6h-0.2v-0.4l0.6-0.6l1.7-1l1.1-0.6l0.6-0.6l0.4-0.6l-0.2-0.2l0.4-0.6l0.4-1.2l-0.2,0.2
			v-1.6l0.2-0.8l0.6-0.4l1.1-1l0.6-0.4l1.7-1.6l1.5-1l1.3-0.8l0.9-1l0.6-1l0.6-1v-0.6l0.2-2v-1.2l0.2-1.4v-0.6l-0.4-0.2l-0.4-1.2
			l-0.4-0.8l0.2-0.6v-0.4l0.4-1v-0.4l-0.9-0.2v-0.8l0.6-2l0.6-0.6l0.2-1l0.4-0.6l0.2-1l0.4-0.2l0.4-0.6l0.9-0.8l0.2-0.4l0.2-0.8
			l1.3-2.2l1.1-1.4l1.7-2l1.7-2l1.3-2.7l0.9-2l0.9-2.7l0.4-2.2l0.4-2V109l0.2-0.6l-0.2-0.8v-1.4l-0.4,0.2l-0.4,0.8l-0.6,0.4
			l-0.4,0.6l-0.4,0.2l-0.6,0.2l-0.4,0.4l-0.4,0.4l-1.1,0.8l-1.3,0.6l-1.1,0.8l-0.6,0.2l-0.6-0.4l-0.2-0.6l-0.4-0.2l-0.6-0.2l0.6-0.6
			v-0.6l-0.4-0.4l-0.6-0.2l-0.4-0.4l-0.9-0.6l-0.9-0.6l-1.9-1l-0.9-0.6l-0.6-1.4l-0.9-1.8l-0.9-0.4l-0.6-0.2l-0.6-1.8l-0.4-1.6
			l0.2-0.4l-0.6-1.4l-0.4-0.2l-1.7-1l-0.2-1l0.2-0.4l-1.5-1.4l-0.6-0.8l-0.6-0.8l-1.5-2.2l-1.1-1.4l-0.9-1.6v-0.2l1.5,2l0.6,0.6
			l0.4,0.4l0.2-0.2l0.2-0.8v-1.2l0.2-0.6v2.2l0.6-0.2l0.9,1l1.1,1l0.9,1l0.4,0.2l0.4,0.8v0.4l0.6,0.8l0.6,0.2l0.6,0.4l1.1,1.6l0.2,1
			l0.4,1l1.1,1.2h0.6l1.1,0.8l0.6,1.2l0.9,1.2l0.6,0.4l0.2,0.6l0.4,0.4l0.2,0.6l0.2,0.6v0.4l0.2,0.6l-0.2,0.2l0.4,0.6l0.4,1l0.2,0.4
			v0.8l0.4,0.8l0.9-0.2l0.4-0.4l0.6-0.2l0.2-0.4l0.2-0.2l0.2-0.4l0.2-0.2l0.9-0.4l0.6-0.6l0.6-0.8h0.4l0.4-0.2l0.9-1.4l1.5-1.4
			l0.9-1v-1.4l0.6-0.8l0.4-0.2l0.6-0.8l0.6-0.2l0.4-0.6l-0.2-0.6l0.2-0.6l0.6-0.2l0.2-0.4v-0.8l0.4-0.8l0.4-0.2v-0.2l-0.4-1v-1.2
			l0.4-0.2v-1.2l0.2-0.6v-1.4l-0.2-0.4h-0.4l-0.2-1l-0.6-0.6h-0.6l-0.6,0.2l-0.6-0.2l-0.9-0.8L166,83v-0.4l-0.2-0.6h-0.2v1.6
			l-0.4,1.2l-0.2,1.4l-0.6,0.2l-0.9,0.4l-0.6,0.6l-0.2-0.4l-0.2,0.2l-0.4-0.4v-1l-0.2-0.8l-0.4-0.4l-0.2,0.2v0.8l0.4,1l-0.2-0.4
			l-0.2-0.4l-0.6-0.2l-0.2-0.4v-0.6l-0.2-0.6l-1.1-0.4l-0.4-0.4l-0.6-0.2l-0.9-1.2l-0.6-1v-0.4l-0.4-0.6l0.6-0.2l0.2-0.8l0.9,0.2
			l0.4-0.4l1.5,1.6l1.1,1.4h1.1l1.3,0.8h1.3l0.6-1.2l0.6-0.6h0.4l1.1,1.6l1.1-0.4l1.1-0.2l1.7-0.4l1.1-0.8l1.1-0.8l1.1-1.2l1.1,0.8
			L176,80h0.6l1.3,0.6l0.4,0.4v0.8l1.5,1l0.4-0.2l0.4-1.6l0.6,1.2l0.6,1.8l0.9,1.8l1.1,2.7l1.1,1.6l0.4,0.8l0.6,1.6l0.6,1.2l0.2,0.4
			l0.4,1.2l0.6,1.8l0.6,0.8v1.6L187.7,109.2L187.7,109.2z M132.3,121.5l-1.1-0.6h0.2L132.3,121.5z"/>
	</g>
</g>
</svg>
