<?xml version="1.0" encoding="utf-8"?>
<!-- Generator: Adobe Illustrator 27.8.1, SVG Export Plug-In . SVG Version: 6.00 Build 0)  -->
<!DOCTYPE svg PUBLIC "-//W3C//DTD SVG 1.1//EN" "http://www.w3.org/Graphics/SVG/1.1/DTD/svg11.dtd" [
	<!ENTITY ns_extend "http://ns.adobe.com/Extensibility/1.0/">
	<!ENTITY ns_ai "http://ns.adobe.com/AdobeIllustrator/10.0/">
	<!ENTITY ns_graphs "http://ns.adobe.com/Graphs/1.0/">
	<!ENTITY ns_vars "http://ns.adobe.com/Variables/1.0/">
	<!ENTITY ns_imrep "http://ns.adobe.com/ImageReplacement/1.0/">
	<!ENTITY ns_sfw "http://ns.adobe.com/SaveForWeb/1.0/">
	<!ENTITY ns_custom "http://ns.adobe.com/GenericCustomNamespace/1.0/">
	<!ENTITY ns_adobe_xpath "http://ns.adobe.com/XPath/1.0/">
]>
<svg version="1.1" id="Layer_1" xmlns:x="&ns_extend;" xmlns:i="&ns_ai;" xmlns:graph="&ns_graphs;"
	 xmlns="http://www.w3.org/2000/svg" xmlns:xlink="http://www.w3.org/1999/xlink" x="0px" y="0px" width="354px"
	 height="317.8661px" viewBox="0 0 354 317.8661" style="enable-background:new 0 0 354 317.8661;" xml:space="preserve">
<metadata>
	<sfw  xmlns="&ns_sfw;">
		<slices></slices>
		<sliceSourceBounds  bottomLeftOrigin="true" height="313.8719" width="357.0975" x="-1.5488" y="107.131"></sliceSourceBounds>
	</sfw>
</metadata>
<g>
	<path d="M-1.5488,57.1176c2.5342,8.4141,5.1683,16.7906,7.5776,25.2296c11.4226,39.8106,22.7828,79.6463,34.1805,119.4694
		c2.0224,7.0658,5.1932,9.4377,12.5711,9.4377c58.5862,0.0125,117.1599,0.0374,175.7461-0.0874
		c3.6452-0.0125,5.5053,1.0611,7.0283,4.3568c4.2694,9.238-0.2871,16.6533-10.5737,16.6533
		c-57.3004,0.0125-114.6007,0-171.9011,0.0125c-1.5105,0-3.0585-0.0499-4.5066,0.2746c-5.1683,1.1485-8.6637,5.8923-8.2393,10.9857
		c0.4494,5.4304,4.8437,9.575,10.5363,9.625c11.0481,0.0999,22.0837,0.025,33.1318,0.0375h3.9449
		c-18.7631,5.6427-28.8999,19.5495-26.4655,35.304c2.4967,16.2164,15.5048,27.5766,31.4341,27.4517
		c15.6921-0.1248,28.7126-11.7097,30.8598-27.7014c1.6229-12.1467-4.6065-29.6863-26.2907-34.8671h95.2135
		c-17.9391,5.1807-28.1384,18.9877-25.9662,34.7672c2.2221,16.1415,15.2676,27.7763,31.1469,27.8013
		c15.8793,0.025,29.0372-11.5599,31.2093-27.6889c1.6479-12.284-4.7313-29.7487-25.5043-35.0668c7.1158,0,14.219,0,21.3347-0.0125
		c16.7157-0.0125,29.1121-9.3753,32.595-24.7927c1.7477-7.6775,0.6866-15.1428-3.3082-21.8715
		c-2.709-4.5441-2.8089-8.6387-1.3483-13.6947c16.0416-55.5152,31.8211-111.0928,47.6879-166.6579
		c0.2871-0.9737,0.6367-1.935,1.0362-3.1459c9.575,0,19.0876,0,28.6127,0c4.8812,0,9.7623,0.0749,14.6434-0.0125
		c6.167-0.1124,10.7485-4.6814,10.7111-10.5238c-0.0499-5.8299-4.6564-10.3365-10.8608-10.3615
		c-16.8531-0.0624-33.7061-0.0499-50.5592,0c-5.755,0.0125-9.2879,2.8962-10.9857,8.8135
		c-3.1459,10.9108-6.2294,21.8465-9.4128,33.007h-4.5815c-85.6634,0-171.3268,0.0499-256.9902-0.0874
		C5.7667,43.76,1.1477,45.6326-1.5488,51.5374V57.1176z"/>
</g>
</svg>
