<?xml version="1.0" encoding="UTF-8"?><svg id="Layer_1" xmlns="http://www.w3.org/2000/svg" viewBox="0 0 200 200"><defs><style>.cls-1{fill:red;}.cls-1,.cls-2{stroke-width:0px;}.cls-2{fill:#fff;}</style></defs><path class="cls-2" d="m149.51,78.01c-.92,0-1.82-.02-2.73,0h33.28c-10.18-.05-20.37,0-30.55,0Zm7.16,8.97h-8.76c2.92.05,5.84,0,8.76,0Zm-8.76,0c2.92.05,5.84,0,8.76,0h-8.76Zm1.6-8.97c-.92,0-1.82-.02-2.73,0h33.28c-10.18-.05-20.37,0-30.55,0Z"/><path class="cls-2" d="m189.89,43.84h-20.95c.13-5.14.12-10.3,0-15.46-.05-1.9-.86-3.53-2.24-4.75-1.37-1.23-3.31-2.04-5.62-2.32-.6-.06-1.2-.15-1.93-.24-.06-.01-.12-.01-.18-.02H41.15c-.38.08-.63.15-.89.18-6.32.76-8.8,3.12-8.81,8.39,0,4.44-.01,8.89,0,13.34,0,.3,0,.6.04.88H10.31c-5.84,1.04-9.8,4.91-9.93,10.09-.09,3.72-.14,7.45-.14,11.18s.05,7.66.14,11.49c.14,5.54,4.72,9.46,11.42,10.27.95.11,1.89.24,3.07.38v79.23c0,8.48,4.82,12.47,15.08,12.47h140.78c10.19,0,14.96-3.88,14.96-12.2,0-11.8.01-23.6,0-35.4.01-13.49.01-26.98.01-40.48v-3.52c.8-.17,1.25-.3,1.72-.36,9.18-1.12,12.8-4.55,12.81-12.2.01-6.46.02-12.92,0-19.39-.02-6.66-3.44-10.5-10.34-11.56ZM41.33,27.4c.21-.02.44-.02.68-.02,1.67.02,3.34.02,5.01.03h12.17c2.39-.01,4.77-.01,7.16-.01.43,0,.86.01,1.29.01h89.84c2.63,0,3.94,1.04,3.94,3.12,0,4.1-.06,8.2.03,12.3,0,.4-.03.74-.13,1.01H39.06c-.1-.3-.14-.67-.12-1.12.11-4.31.15-8.62-.02-12.93-.06-1.77.7-2.31,2.41-2.39Zm130.77,119.32H28.38c-.88,0-1.73.05-2.53.14v-59.67c1.79-.07,3.32-.19,4.84-.19,29.91-.01,59.82-.01,89.72-.01.19,0,.38,0,.56-.01h35.7c5.83.01,11.66.01,17.9.01.08,1.37.18,2.35.18,3.33.01,13.68-.02,27.36,0,41.03h-.01c0,5.17,0,10.35.02,15.52-.84-.1-1.74-.15-2.66-.15Zm12.78-68.67h-.6c-1.41-.02-2.81-.03-4.22-.03H17.03c-3.82,0-5.73-1.51-5.73-4.54,0-5.96.09-11.93-.04-17.89-.05-2.32.96-3.13,3.82-3.12,56.77.04,113.55.05,170.33-.01,3.05,0,4,.86,3.93,3.3-.08,3.28-.14,6.57-.14,9.86,0,2.98.05,5.95.17,8.93.11,2.89-1.31,3.53-4.49,3.5Z"/><path class="cls-1" d="m200.7,178.07h1.06s0,0,0,0h-1.06Zm-15.91,1.71l-.02.27.07.05-.05-.32Z"/><polygon class="cls-1" points="184.84 180.1 184.77 180.05 184.79 179.78 184.84 180.1"/><path class="cls-2" d="m47.02,27.41h-5.69c.21-.03.44-.03.68-.03,1.67.02,3.34.02,5.01.03Z"/><path class="cls-2" d="m67.64,27.41h-8.45c2.39-.01,4.77-.01,7.16-.01.43,0,.86.01,1.29.01Z"/><path class="cls-2" d="m184.28,78.02v.03c-1.41-.02-2.81-.03-4.22-.03h4.22Z"/></svg>