<?xml version="1.0" encoding="UTF-8"?><svg id="Layer_1" xmlns="http://www.w3.org/2000/svg" viewBox="0 0 200 200"><defs><style>.cls-1{fill:#fff;stroke-width:0px;}</style></defs><path class="cls-1" d="m149.27,78.01c-.92,0-1.82-.02-2.73,0h33.28c-10.18-.05-20.37,0-30.55,0Zm-1.6,8.97c2.92.05,5.84,0,8.76,0h-8.76Zm1.6-8.97c-.92,0-1.82-.02-2.73,0h33.28c-10.18-.05-20.37,0-30.55,0Zm7.16,8.97h-8.76c2.92.05,5.84,0,8.76,0Z"/><path class="cls-1" d="m189.65,43.84h-20.95c.13-5.14.12-10.3,0-15.46-.05-1.9-.86-3.53-2.24-4.75-1.37-1.23-3.31-2.04-5.62-2.32-.65-.07-1.3-.16-2.11-.26H40.91c-.26.05-.46.11-.64.14-.09.02-.17.03-.25.04-6.32.76-8.8,3.12-8.81,8.39,0,4.44-.01,8.89,0,13.34,0,.3,0,.6.04.88H10.07C4.23,44.88.27,48.75.14,53.93.05,57.65,0,61.38,0,65.11s.05,7.66.14,11.49c.14,5.54,4.72,9.46,11.42,10.27.95.11,1.89.24,3.07.38v79.23c0,8.48,4.82,12.47,15.08,12.47h140.78c10.19,0,14.96-3.88,14.96-12.2,0-11.8.01-23.6,0-35.4.01-13.49.01-26.98.01-40.48v-3.52c.8-.17,1.25-.3,1.72-.36,9.18-1.12,12.8-4.55,12.81-12.2.01-6.46.02-12.92,0-19.39-.02-6.66-3.44-10.5-10.34-11.56ZM40.82,27.41c.29-.02.6-.03.95-.03,1.67.02,3.34.02,5.01.03h12.17c2.39-.01,4.77-.01,7.16-.01.43,0,.86.01,1.29.01h89.84c2.63,0,3.94,1.04,3.94,3.12,0,4.1-.06,8.2.03,12.3,0,.4-.03.74-.13,1.01H38.82c-.1-.3-.14-.67-.12-1.12.11-4.31.15-8.62-.02-12.93-.06-1.67.62-2.25,2.14-2.38Zm129,142.65c-46.44-.09-92.88-.06-139.33-.06-3.24,0-4.87-1.33-4.88-3.98v-78.83c1.79-.07,3.32-.19,4.84-.19,29.91-.01,59.82-.01,89.72-.01.19,0,.38,0,.56-.01h35.7c5.83.01,11.66.01,17.9.01.08,1.37.18,2.35.18,3.33.01,13.68-.02,27.36,0,41.03h-.01c0,11.62.02,23.23.1,34.85.02,3.03-1.1,3.87-4.78,3.86Zm14.82-92.01h-.68c-1.38-.02-2.76-.03-4.14-.03H16.79c-3.82,0-5.73-1.51-5.73-4.54,0-5.96.09-11.93-.04-17.89-.05-2.32.96-3.13,3.82-3.12,56.77.04,113.55.05,170.33-.01,3.05,0,4,.86,3.93,3.3-.08,3.28-.14,6.57-.14,9.86,0,2.98.05,5.95.17,8.93.11,2.89-1.31,3.53-4.49,3.5Z"/></svg>