<?xml version="1.0" encoding="UTF-8"?><svg id="Layer_1" xmlns="http://www.w3.org/2000/svg" viewBox="0 0 200 200"><defs><style>.cls-1{fill:#fff;stroke-width:0px;}</style></defs><path class="cls-1" d="m184.07,202.49c-8.62,0-15.63-7.01-15.63-15.63,0-3.36,1.05-6.56,3.03-9.25.45-.67,11.33-16.82,11.44-16.99l1.16-1.72,1.16,1.72c.11.17,11,16.32,11.44,16.99,1.98,2.7,3.03,5.89,3.03,9.25,0,4.24-1.67,8.21-4.72,11.18-.25.24-.37.36-.44.43-.19.19-.24.23-.47.4l-.19.14c-2.77,2.24-6.26,3.48-9.82,3.48Zm0-32.97q-7.58,11.25-7.6,11.28h0c-1.2,1.63-1.84,3.57-1.84,5.6,0,5.21,4.24,9.44,9.44,9.44,2.16,0,4.27-.75,5.94-2.11l.19-.14s.06-.05.08-.06l.03-.03c.06-.06.16-.16.36-.35,1.83-1.79,2.84-4.19,2.84-6.75,0-2.03-.64-3.97-1.84-5.6t-7.6-11.28Z"/><path class="cls-1" d="m198.7,150.41l-2.15-40.51c-3.41-20.4-24.33-18.61-24.33-18.61h-43.99c-7.57-.9-9.58-6.68-10.12-9.82,0-.02,0-.04-.01-.07l-.18-1.92v-.03l-2.04-21.39h-1.46l-.07.03v-.03h-1.17v-16.82h56.95V12H24.23v29.24h62.76v16.82h-3.3l-2.2,22.62s-1.94,9.49-10.69,10.61c-1.29.09-2.15,0-2.15,0H.18v39.29h158.39s10.42.54,10.42,10.18v18.15h30.16l-.45-8.5ZM32.73,32.74v-12.24h128.9v12.24h-56.95v25.32h-9.19v-25.32h-62.76Zm71.95,25.63h0s-1.06,0-1.06,0h1.06Zm-16.92,2.03l-.07-.05.02-.27.05.32Zm89.73,90.01v-8.29s1.2-19.91-18.92-20.04H8.68v-22.29h62.65c4.88-.06,11.11-3.04,15.03-8.98,3.66-5.53,4.15-20.61,4.62-24.25h16.99c.47,3.64.96,18.72,4.62,24.25,3.92,5.94,10.14,8.92,15.02,8.98h44.61c11.23,0,15.85,10.56,15.85,10.56l2.12,40.06h-12.7Z"/></svg>