<?xml version="1.0" encoding="UTF-8"?><svg id="Layer_1" xmlns="http://www.w3.org/2000/svg" xmlns:xlink="http://www.w3.org/1999/xlink" viewBox="0 0 600 330"><defs><style>.cls-1{clip-path:url(#clippath-2);}.cls-2{fill:none;}.cls-2,.cls-3,.cls-4,.cls-5,.cls-6{stroke-width:0px;}.cls-7{clip-path:url(#clippath-1);}.cls-3{fill:#e0001f;}.cls-4{fill:#fff;}.cls-5{fill:#f60;}.cls-6{fill:#8d908f;}.cls-8{clip-path:url(#clippath);}</style><clipPath id="clippath"><rect class="cls-2" x="-1256" width="1024" height="330"/></clipPath><clipPath id="clippath-1"><rect class="cls-2" width="600" height="330"/></clipPath><clipPath id="clippath-2"><rect class="cls-2" x="720" y="15" width="400" height="300"/></clipPath></defs><rect class="cls-4" width="600" height="330"/><g class="cls-8"><path class="cls-5" d="m96.66,223.85c-.09-.12-.17-.24-.26-.36,1.34-.84,2.68-1.68,4.01-2.52.11.15.23.3.34.45-1.37.81-2.73,1.61-4.1,2.42m-115.05,24.99c-.11-.11-.22-.22-.33-.33,1.77-1.44,3.19-3.33,5.58-3.96.09.12.19.24.28.36-1.84,1.31-3.69,2.61-5.53,3.92m-92.09,23.56c.87.78,1.66,1.63,2.31,2.67-3.23-1.43-6.47-2.84-9.69-4.28-1.76-.79-3.52-1.61-5.24-2.47-.03-.01-.05-.02-.08-.04-.57-.29-1.03-.78-1.64-1.25-.51.03-1.41.34-1.78.05-.49-.37-.56-1.21-.82-1.85.23-.09.45-.19.68-.28.28.45.56.9.99,1.58.23-.45.69-.95.57-1.18-.7-1.33-1.21-3.08-2.39-3.79-2.75-1.64-3.22-4.15-3.76-6.84,1.67,1.14,3.38,2.25,5.01,3.44,2.83,2.07,5.94,3.56,9.46,4.25,1.25.24,1.79.64,1.21,1.95-.27.61.04,1.43.1,2.36-1.94-.56-1.36-3.22-3.89-3.02.42.41.68.65,1.02.97-.19.21-.4.43-.61.65.12.15.18.29.25.3,1.44.1,2.19,1,2.85,2.06.11.17.24.36.4.53.18.2.39.36.6.39,2.39.37,3.01,2.49,4.46,3.79m-21.54-10.88c-.57-1.81-1.11-3.55-1.66-5.3-.18.03-.36.06-.54.09-.06.4-.11.79-.19,1.36-.81-.53-1.49-.97-2.49-1.61.43,1.5,1.01,2.9-.44,3.91-.47-.62-.92-1.2-1.37-1.78-.17.13-.35.26-.52.4.02,1.14.03,2.28.05,3.42-.16.11-.31.22-.47.32-1.22-.73-2.45-1.45-3.71-2.21.55-1.12,1.35-2.14.18-3.34-.38.32-.7.6-1.37,1.17-.07-1.01-.12-1.68-.17-2.37-.36.21-.82.39-1.16.69-.28.25-.61.65-.6.96.05.79.28,1.56.51,2.7-5.48-2.4-10.81-4.12-14.23-8.6-.14-.18-.28-.36-.41-.55-.52-.75-1.82-1.1-2.83-1.47-1.51-.56-3.09-.99-4.84-1.53,2.29-1.73,4.27-3.22,6.25-4.73,2.28-1.74,4.55-3.51,6.84-5.25.49-.37,1.05-.74,1.64-.93.82-.26,1.69-.35,2.55-.51.16.91.6,1.88.41,2.72-.29,1.28-.28,1.58,1.36,1.82,1.59.23,3.5.27,4.78,1.78.89,1.05,2.25,1.74,3.31,2.68.08.08.15.17.2.28.16.32.21.74.34,1.09h0s-.01,0-.02,0c.58,1.44,1.14,2.89,1.74,4.32.07.17.14.34.21.51.49,1.14,1.09,2.23,1.64,3.35l.48-.09c.05-.64.1-1.29.15-1.92,1.34.51,2.67,1.03,4.09,1.57-.11.42-.37.9-.35,1.37.03.77-.05,1.91.43,2.23,1.79,1.21.69,2.27.22,3.44m-55.46-15.6c-.53-1.73-1.07-3.49-1.62-5.26-.12.01-.25.03-.37.04-.08.38-.15.76-.29,1.44-.82-.51-1.52-.95-2.14-1.33-.1,1.14-.2,2.38-.31,3.62-.26.11-.52.21-.77.32-.4-.71-.79-1.42-1.19-2.13-.2.13-.41.26-.61.39.02,1.13.03,2.27.05,3.4l-.42.33c-1.16-.71-2.33-1.41-3.43-2.08.15-.7.31-1.23.37-1.77.05-.45-.03-.91-.05-1.37-.51.11-1.02.23-1.71.38,0-.57-.02-1.22-.03-1.91-.48.26-.98.46-1.37.78-.25.2-.5.8-.47.82,1.19.76-.34,1.69.28,2.52-5.38-2.06-10.75-3.93-14.28-8.57-.63-.83-1.89-1.33-2.97-1.76-1.49-.59-3.07-.97-4.64-1.74,6.1-3.37,9.95-9.4,17.27-11.79.03,1.91.04,3.35.06,4.78,1.42.3,2.96.63,4.52.96.26.05.59,0,.78.13,2.97,2.02,5.34,4.38,6.11,7.97.39,1.84,1.44,3.56,2.19,5.33.24-.07.49-.13.73-.19-.07-.67-.14-1.35-.19-1.89,1.22.39,2.47.76,3.68,1.22.23.09.51.61.43.8-.64,1.4-.23,2.6.65,3.74.81,1.05.46,1.97-.25,2.81m381.1-12.94c-7.09-2.4-14.31-4.43-21.21-7.32-.1-.23-.15-.52-.17-.91-.07-1.41-.05-2.83-.07-4.25,0-.04.03-.08.05-.14.13.11.24.21.36.31.36.32.73.59,1.24.56.35-.02.71-.12.95.25.59-.58,1.11-1.14,1.18-1.99.16.27.33.54.51.85.17-.2.31-.36.49-.57.22.56.52.34.87.17.33-.15.71-.24,1.09.07-.07-.28-.12-.49-.2-.8.35.11.63.18.89.29.3.13.59.21.91.1.31-.11.63-.2.96-.31-.02-.45.01-.48.5-.68.15-.06.28-.2.39-.32.27-.29.52-.6.77-.9.03-.04.05-.08.08-.11-1.2.2-2.41.41-3.6.61-.2-.62.32-.75.63-1.06-.34.02-.63.04-1,.06.37-.4.68-.72,1.04-1.11-.98.22-1.87.42-2.82.64.02-.31.03-.58.06-.84.01-.1.05-.21.12-.27.46-.4.67-.38,1.04.09.03.04.07.09.14.17.13-.18.22-.34.34-.47.16-.16.33-.33.53-.44.3-.18.63-.31.93-.48.08-.04.12-.15.18-.22-.08-.03-.16-.09-.24-.1-.59-.05-1.19-.09-1.78-.13-.08,0-.16-.03-.32-.07.79-.44,1.5-.84,2.21-1.24-.01-.03-.02-.07-.03-.1-.11,0-.22-.02-.33-.02-.49,0-.98.02-1.47.01-.12,0-.25-.07-.37-.11.08-.09.16-.19.26-.27.09-.07.21-.11.31-.16.38-.19.75-.39,1.22-.62-.3-.1-.51-.16-.76-.24.22-.36.43-.7.67-1.1-.59.13-1.11.24-1.64.36-.02-.1-.04-.16-.04-.21.02-.47.44-.78,1-.76.33.02.65.02.98.02.06,0,.12-.07.17-.11-.05-.05-.1-.11-.16-.14-.08-.03-.18-.04-.27-.05-.48-.08-.96-.16-1.47-.24.1-.18.17-.31.27-.48-.17,0-.29,0-.42,0-.68,0-1.35.02-2.03.02-.11,0-.21-.08-.4-.16.57-.25.85-.75,1.4-.75.04,0,.09-.07.13-.11.37-.47.74-.94,1.1-1.41.05-.06.06-.16.08-.24-.09.01-.2,0-.27.05-.46.3-.9.62-1.35.93-.35.24-.72.22-1.09-.1.44-.28.86-.55,1.29-.82-.02-.03-.03-.06-.05-.09-.29.09-.58.18-.87.27-.19-.58-.12-.73.4-.9.57-.19.89-.66,1.26-1.06l-.05-.1c-.59.19-1.18.38-1.79.57,0-.1,0-.14,0-.17.12-.39.44-.52.78-.64.25-.09.53-.15.65-.48-.3,0-.56-.01-.93-.02.38-.31.67-.55.97-.8-.89-.14-1.75-.28-2.62-.42.15-.78.2-.81.9-.64.22-.94,1.23-1.17,1.78-1.9-.75-.04-1.3.69-2.11.33.35-.13.63-.24.9-.34,0-.04,0-.08,0-.13-.18,0-.36-.03-.53,0-.19.03-.37.14-.56.19-.3.08-.53,0-.66-.35.46-.22.92-.43,1.42-.67-.29-.13-.52-.23-.81-.36.33-.24.62-.45.91-.66,0-.01-.02-.03-.03-.04-.15.04-.3.08-.46.13-.02-.16-.03-.29-.05-.44-.29.03-.57.08-.84.1-.07,0-.21-.04-.22-.09-.01-.07.03-.21.09-.23.2-.09.43-.22.64-.21.32,0,.43-.13.48-.44-.87.13-1.7.25-2.6.38.08-.18.13-.29.17-.39.1-.26.24-.41.57-.45.6-.07.92-.54,1.18-1.06l-2.31.89s-.05-.07-.07-.1c.09-.18.17-.35.27-.55-.17-.04-.31-.08-.47-.13.32-.67,1.06-.56,1.6-.94-.49,0-.9,0-1.41,0,.39-.38.7-.68,1.02-.98-.01-.04-.03-.08-.04-.12-.45-.04-.89.17-1.39.18.21-.49.4-.94.63-1.48-.27.29-.47.51-.68.73-.04-.03-.07-.06-.11-.09.11-.25.22-.5.34-.75-.25.15-.45.33-.66.49-.05.04-.14.03-.21.05,0-.07-.01-.16.02-.21.08-.14.18-.26.3-.42-.13-.01-.22-.02-.36-.03.08-.42.16-.82.25-1.27-.25.21-.45.38-.71.6,0-.38-.02-.66-.03-.98-.16.11-.27.2-.42.3-.05-.26-.1-.49-.16-.76-.4.46-.55.93-.38,1.57-.24-.18-.38-.28-.56-.41,0,.17,0,.28,0,.41-.12,0-.21,0-.38,0,.08.27.15.49.23.76-.37-.05-.65-.08-.93-.12,0,.02-.01.05-.02.07.35.25.69.5,1.04.75,0,.02-.01.04-.02.06-.35-.03-.71-.06-1.16-.1.22.19.36.3.48.43.08.09.12.21.18.32-.13,0-.26.04-.38.01-.4-.1-.79-.23-1.24-.36.05.22.09.38.14.57-.32-.05-.59-.1-.86-.14l-.02.08c.49.46.98.92,1.47,1.38-.02.02-.03.05-.05.07-.44-.1-.89-.21-1.39-.32.33.38.61.71.94,1.1-.66.01-1.22.03-1.78.04-.01.04-.03.07-.04.11.17.12.35.35.5.34.35-.03.4.19.52.45-.55.07-1.07.13-1.7.21.47.17.83.3,1.26.46-.22.13-.38.21-.58.32.27.11.49.19.69.29.1.05.17.16.26.24-.1.07-.18.17-.29.21-.31.12-.63.21-.94.32,0,.03,0,.07,0,.1.61.11,1.19.35,1.9.38.03.05.11.19.21.35-.52.15-1,.29-1.47.42.18.14.35.19.52.26.09.04.24.13.24.19,0,.15-.03.36-.13.44-.42.33-.88.53-1.43.36-.32-.1-.64-.21-.97-.3-.09-.02-.19,0-.28,0v.08c.43.31.86.63,1.33.97-.28.12-.5.22-.73.32.55.17,1.02.62,1.68.45-.16.29-.35.54-.56.78-.2.23-.44.28-.72.16-.25-.1-.51-.16-.82-.26.18.23.29.45.46.58.2.15.45.33.69.34.47.02.65.37,1.03.63-.22.06-.34.1-.46.13-.71.15-1.34-.08-1.92-.47-.38-.25-.74-.53-1.12-.8l-.08.1c.26.53.51,1.07.8,1.59.07.13.23.25.38.29.41.12.82.2,1.26.3-.17.45-.4.81-.8.96-.65.24-.96-.38-1.44-.7.03.29.05.53.08.82-.29-.11-.5-.22-.74-.28-.19-.05-.39-.03-.59-.05.06.19.1.39.2.56.12.21.28.39.45.64-.44,0-.81,0-1.18,0-.01.05-.03.09-.04.14.6.43,1.2.87,1.86,1.34.12-.03.34-.09.55-.13.08-.02.21,0,.25.04.23.29.44.6.7.98-.22-.01-.35-.02-.48-.03-.95-.08-1.91-.17-2.86-.25-.12-.01-.24.03-.36.05.05.12.09.25.16.36.11.16.25.3.36.42.22-.08.48-.24.56-.18.31.25.55.57.84.88-.55.32-1.06.18-1.64.12.39.33.71.61,1.04.88l-.03.08c-.34-.03-.68-.06-1.06-.09.12.39.24.74.33,1.09.06.23.17.32.41.32.83,0,1.66.02,2.49.04.12,0,.24.01.4.02-.15.38-.4.44-.72.44-.93,0-1.86.04-2.79.06-.01,0-.02.03-.06.09.34.26.85.23,1.13.66-.41.03-.82.06-1.29.09.76.69,1.68.65,2.64.81-1.26.69-2.35.67-3.35-.37.08.59.16,1.11.23,1.64-.29.06-.58.13-.88.19-.3.07-.6.13-.99.22.19.13.3.19.39.28.23.25.46.26.73.07.22-.15.48-.27.75-.41.14.44.27.83.4,1.23-.48.11-.91.21-1.41.32.38.19.69.34,1.05.52.27-.16.61-.51,1-.05.01.02.07,0,.1,0,.27-.05.36.1.38.33.03.34.27.48.62.59-.07-.18-.13-.36-.22-.6.21.06.31.1.42.13.08-.24.15-.45.25-.76.21.38.36.67.53.97.28-.14.52-.27.78-.41.04.07.05.11.08.14.1.11.19.24.31.3.22.11.3-.1.39-.23.17-.23.33-.47.53-.74.06.18.1.29.13.41.18-.11.33-.2.58-.35-.06.3-.1.5-.14.69.21-.13.35-.3.5-.45.08-.08.2-.19.27-.17.73.2,1.23-.29,1.78-.59.46-.25.81-.19,1.03.3.17.37.33.75.51,1.12.24.5.33,1.01.27,1.57-.06.5-.06,1-.08,1.51-.01.41,0,.82-.02,1.23-.02.25-.03.51-.16.71-.47-.21-.95-.41-1.42-.63-7.95-3.73-16.25-6.81-24.33-10.3-.49-.21-.97-.42-1.46-.62-.49-1.7-.67-3.92-.72-4.91-.09-1.96-.07-3.93-.1-5.9,0-.05.04-.11.07-.19.18.16.34.29.49.43.5.44,1.02.82,1.73.77.48-.03.98-.16,1.31.35.83-.8,1.54-1.59,1.64-2.76.23.38.46.75.71,1.17.24-.28.42-.49.68-.79.31.78.72.47,1.21.24.45-.21.99-.34,1.52.09-.09-.38-.17-.68-.27-1.12.49.16.87.25,1.23.41.41.18.81.3,1.26.14.43-.16.87-.28,1.33-.43-.03-.62.02-.67.69-.95.21-.09.39-.27.55-.45.37-.41.72-.83,1.07-1.25.04-.05.08-.11.11-.16-1.67.28-3.34.56-5.01.84-.28-.87.44-1.04.88-1.48-.48.03-.88.06-1.39.09.52-.55.94-1,1.45-1.54-1.36.31-2.6.59-3.92.88.03-.44.04-.81.08-1.17.01-.13.07-.3.16-.38.63-.56.93-.52,1.45.12.05.06.1.12.2.24.18-.24.3-.47.48-.65.22-.23.46-.46.73-.62.42-.25.87-.43,1.29-.67.11-.06.16-.2.24-.31-.11-.05-.22-.13-.34-.14-.82-.07-1.65-.12-2.47-.18-.11,0-.23-.05-.45-.1,1.09-.61,2.08-1.17,3.07-1.72-.02-.05-.03-.1-.05-.14-.15,0-.31-.03-.46-.02-.68,0-1.36.03-2.04.02-.17,0-.34-.1-.51-.16.12-.13.22-.27.35-.37.13-.1.29-.15.43-.22.52-.27,1.05-.54,1.69-.86-.42-.13-.71-.22-1.06-.33.31-.5.59-.97.93-1.52-.82.18-1.54.33-2.28.49-.03-.14-.06-.22-.06-.29.02-.65.61-1.08,1.39-1.05.45.02.91.03,1.36.02.08,0,.16-.1.24-.15-.07-.07-.14-.16-.23-.19-.12-.05-.25-.05-.38-.07-.67-.11-1.33-.22-2.05-.34.14-.25.24-.43.37-.66-.23,0-.41,0-.58,0-.94.01-1.88.03-2.82.03-.15,0-.29-.11-.56-.22.79-.34,1.18-1.04,1.95-1.05.06,0,.13-.09.18-.15.51-.65,1.02-1.3,1.52-1.96.07-.09.08-.23.12-.34-.13.02-.28,0-.38.07-.63.42-1.25.87-1.88,1.3-.49.34-.99.3-1.52-.13.61-.38,1.2-.76,1.79-1.13-.02-.04-.04-.08-.06-.12-.41.12-.81.25-1.21.37-.27-.8-.16-1.01.56-1.25.79-.26,1.23-.92,1.75-1.47-.02-.05-.05-.1-.07-.14-.82.26-1.63.52-2.48.79,0-.14,0-.19,0-.23.16-.54.61-.72,1.08-.89.35-.12.73-.21.9-.67-.41,0-.78-.02-1.3-.03.52-.43.92-.76,1.35-1.11-1.24-.2-2.44-.39-3.64-.59.21-1.09.28-1.13,1.25-.89.31-1.3,1.7-1.62,2.48-2.64-1.04-.05-1.8.95-2.93.46.49-.19.87-.33,1.25-.48v-.18c-.25,0-.51-.05-.74,0-.27.05-.52.19-.78.26-.41.11-.73,0-.92-.49.64-.3,1.27-.6,1.98-.93-.41-.18-.72-.32-1.13-.5.46-.33.86-.62,1.26-.91-.01-.02-.03-.04-.04-.05-.21.06-.41.12-.64.18-.02-.23-.04-.4-.07-.62-.4.05-.79.11-1.17.13-.1,0-.29-.06-.3-.12-.02-.1.04-.29.12-.33.28-.13.59-.3.89-.29.45.01.59-.18.66-.61-1.21.18-2.36.35-3.61.53.11-.26.18-.4.24-.54.14-.37.33-.57.79-.62.83-.1,1.28-.76,1.64-1.48-1.07.41-2.14.82-3.21,1.23-.03-.05-.06-.09-.1-.14.12-.25.24-.49.37-.76-.23-.06-.42-.11-.65-.17.44-.93,1.47-.78,2.22-1.3-.68,0-1.25,0-1.96,0,.54-.52.98-.94,1.41-1.36-.02-.06-.04-.11-.05-.17-.62-.05-1.23.23-1.93.25.29-.68.55-1.3.87-2.06-.38.4-.66.71-.94,1.01l-.15-.13c.15-.35.31-.69.47-1.04-.35.2-.63.45-.92.69-.07.06-.19.05-.29.07,0-.1-.02-.22.03-.29.11-.19.25-.37.41-.58-.18-.01-.31-.03-.49-.04.11-.58.22-1.14.35-1.76-.35.29-.62.52-.98.83-.01-.52-.02-.92-.03-1.36-.22.16-.38.27-.58.41-.07-.36-.14-.67-.22-1.05-.56.64-.77,1.29-.53,2.19-.34-.24-.53-.39-.78-.56,0,.23,0,.39,0,.57-.16,0-.3,0-.53,0,.11.37.2.69.31,1.05-.51-.07-.9-.12-1.29-.16-.01.03-.02.06-.03.1.48.35.96.69,1.44,1.04,0,.03-.02.06-.02.09-.49-.04-.98-.09-1.61-.15.3.27.5.42.66.6.11.12.17.29.25.44-.18,0-.36.06-.52.02-.56-.14-1.1-.32-1.72-.5.08.3.13.53.2.8-.44-.07-.82-.13-1.2-.19l-.03.1c.68.64,1.36,1.28,2.04,1.92-.02.03-.04.07-.06.1-.62-.14-1.23-.28-1.94-.45.46.53.84.99,1.3,1.52-.91.02-1.69.04-2.47.05-.02.05-.04.1-.05.15.23.17.48.49.7.48.49-.04.56.26.72.63-.76.09-1.49.18-2.35.29.65.24,1.15.42,1.75.64-.31.17-.53.29-.8.45.37.15.67.26.96.41.14.07.24.22.36.33-.13.1-.25.23-.4.29-.43.16-.87.29-1.3.44,0,.05,0,.09,0,.14.85.15,1.66.49,2.63.53.04.08.15.26.28.49-.72.21-1.38.4-2.04.59.24.19.49.26.72.36.13.06.34.18.33.26,0,.21-.05.5-.19.61-.58.45-1.23.74-1.99.51-.45-.14-.89-.29-1.34-.42-.12-.03-.26,0-.39,0,0,.04,0,.07-.01.11.6.43,1.21.87,1.86,1.34-.38.17-.7.31-1.02.44.77.24,1.42.86,2.33.62-.23.4-.49.75-.77,1.09-.27.32-.61.38-1.01.23-.34-.14-.71-.23-1.15-.37.25.33.4.62.64.8.28.22.63.46.96.47.65.03.91.51,1.42.88-.31.09-.47.15-.64.18-.99.21-1.86-.11-2.66-.65-.53-.35-1.03-.74-1.55-1.11l-.11.13c.37.74.71,1.49,1.11,2.21.1.18.32.34.52.4.56.17,1.14.27,1.75.41-.24.62-.56,1.12-1.11,1.33-.91.34-1.34-.53-2-.97.04.41.07.73.11,1.14-.4-.15-.7-.31-1.02-.39-.26-.07-.54-.05-.81-.06.09.26.15.54.28.78.16.29.38.55.62.88-.61,0-1.12,0-1.64.01-.02.06-.04.13-.05.19.84.6,1.67,1.21,2.59,1.86.17-.04.47-.13.77-.18.11-.02.29-.01.35.06.32.41.61.84.98,1.36-.31-.02-.49-.03-.66-.04-1.32-.12-2.65-.24-3.97-.35-.16-.01-.33.04-.5.06.07.17.12.35.23.49.16.22.35.42.49.59.3-.1.67-.34.78-.25.42.34.76.79,1.16,1.23-.76.44-1.48.25-2.28.16.55.46.99.85,1.44,1.23-.02.04-.03.08-.05.11-.47-.04-.94-.08-1.47-.13.17.55.34,1.02.46,1.51.08.32.23.45.57.45,1.15,0,2.3.03,3.45.05.17,0,.34.01.55.02-.21.52-.56.61-1,.61-1.29,0-2.59.05-3.88.08-.02,0-.03.05-.08.12.48.36,1.18.31,1.57.92-.57.04-1.13.08-1.79.13,1.06.96,2.34.91,3.67,1.12-1.75.96-3.26.93-4.66-.51.12.82.22,1.54.32,2.28-.4.09-.81.18-1.22.27-.42.09-.83.18-1.37.3.26.19.42.27.54.4.32.34.64.35,1.02.09.31-.21.66-.37,1.04-.57.2.62.37,1.15.55,1.71-.67.15-1.27.29-1.95.45.52.26.96.47,1.46.72.38-.22.84-.71,1.39-.07.02.02.09,0,.14,0,.37-.07.51.15.53.46.04.47.38.67.86.82-.09-.25-.19-.51-.3-.83.29.09.43.13.58.18.11-.33.21-.63.35-1.05.29.53.5.93.73,1.35.39-.2.73-.38,1.08-.56.05.09.08.15.12.2.14.15.26.34.43.42.3.15.41-.13.55-.32.23-.32.46-.65.73-1.02.08.24.13.4.19.57.25-.15.46-.28.81-.48-.08.42-.14.69-.19.96.29-.18.48-.41.69-.62.11-.11.28-.27.38-.24,1.01.28,1.71-.4,2.47-.82.63-.35,1.13-.26,1.43.42.23.52.46,1.04.7,1.55.33.69.46,1.4.37,2.18-.08.69-.09,1.39-.11,2.09-.02.57.01,1.14-.03,1.71-.03.37-.04,2.76-.25,4.45-4.16-1.77-8.23-3.69-11.58-6.86-2.55-2.41-4.41-2.31-7.45-.24-1.73,1.18-3.21,2.66-4.84,3.97-1.38,1.11-2.74,2.27-4.24,3.23-6.45,4.13-13.07,8.04-19.38,12.35-4.62,3.16-9.28,6.15-14.53,8.3-1.51.62-3,.63-4.51-.03-2.67-1.17-5.35-2.33-8.04-3.46-2.04-.85-4.14-1.57-6.13-2.51-1.95-.93-3.79-2.07-5.69-3.1-1.07-.58-2.03-.46-3.17.09-4.63,2.24-9.31,4.39-14.02,6.48-.67.3-1.78.38-2.37.06-4.98-2.69-9.82-5.52-13.29-10.03-2.12-2.75-4.97-3.11-7.71-1.17-1.66,1.18-3.15,2.59-4.55,4.03-3.12,3.23-5.79,6.82-9.95,9.13-2.32,1.29-4.27,3.18-6.36,4.83-3.9,3.09-7.82,6.15-11.64,9.31-1.19.98-2.34,2-3.49,3.03-2.28,2.04-4.55,4.09-7.03,5.89-3.71,2.69-7.85,4.86-11.84,7.21-1.29.76-2.68.56-3.98-.08-.85-.42-1.68-.89-2.53-1.32-2.82-1.43-5.64-2.85-8.46-4.27-2.11-1.06-4.31-1.99-6.3-3.21-1.88-1.15-3.7-2.38-5.51-3.62-1.04-.71-2.08-1.41-3.13-2.1-.83-.54-1.58-.4-2.48.16-1.12.69-2.24,1.38-3.37,2.07-4.99,3.04-10.08,5.9-15.77,7.75-3.73,1.21-7.3,2.95-11.33,3.11-2.83.12-5.67.02-8.5.08-3.9.08-7.36-1.1-10.59-3.03-3.33-1.99-6.1-4.52-8.72-7.19-2.31-2.35-4.5-4.81-6.87-7.11-3.07-2.99-6.47-5.71-9.81-8.45-1.52-1.25-3.36-1.18-5.12-.28-.85.43-1.74.83-2.48,1.39-3.24,2.48-6.33,5.15-9.68,7.49-5.03,3.52-5.72,3.32-9.81.71-1.97-1.26-3.89-2.7-5.61-4.16-4.78-4.08-9.02-8.72-13.61-13.01-2.88-2.69-5.94-5.21-9.04-7.68-1.51-1.2-3.4-1.29-5.13-.29-1.82,1.05-3.59,2.18-5.27,3.42-3,2.2-5.89,4.52-8.86,6.74-2.25,1.68-4.71,1.86-6.87.03-3.55-2.98-6.84-6.22-10.38-9.21-2.25-1.9-4.58-3.85-7.21-5.2-1.99-1.03-3.99-1.92-5.49-3.53-1.34-1.43-2.64-2.9-3.88-4.41-2.23-2.72-4.77-4.99-8.44-5.94-1.48-.38-2.95-.93-4.29-1.62-2.76-1.43-5.42-3.02-8.14-4.52-2.22-1.23-4.45-1.18-6.66.05-.78.44-1.58.87-2.29,1.41-5.91,4.5-11.77,9.07-17.72,13.52-1.91,1.43-3.92,3-6.17,3.72-.01,0-.02,0-.03.01-.07-1.39-.05-2.79-.07-4.19,0-.04.03-.08.05-.14.13.11.24.21.36.31.36.32.73.59,1.24.56.35-.02.71-.12.95.25.59-.58,1.11-1.14,1.18-1.99.16.27.33.54.51.85.17-.2.31-.36.49-.57.22.56.52.34.87.17.33-.15.71-.24,1.09.07-.07-.28-.12-.49-.2-.8.35.11,2.09-1.53.89-1.33-.2-.62.32-.75.63-1.06-.34.02-.63.04-1,.06.37-.4.68-.72,1.04-1.11-.98.22-1.87.42-2.82.64.02-.31.03-.58.06-.84.01-.1.05-.21.12-.27.46-.4.67-.38,1.04.09.03.04.07.09.14.17.13-.18.22-.34.34-.47.16-.16.33-.33.53-.45.3-.18.63-.31.93-.48.08-.04.12-.15.18-.22-.08-.04-.16-.09-.24-.1-.59-.05-1.19-.09-1.78-.13-.08,0-.16-.03-.32-.07.79-.44,1.5-.84,2.21-1.24l-.03-.1c-.11,0-.22-.02-.33-.02-.49,0-.98.02-1.47.01-.12,0-.25-.07-.37-.11.08-.09.16-.19.26-.27.09-.07.21-.11.31-.16.38-.19.75-.39,1.22-.62-.3-.1-.51-.16-.76-.24.22-.36.43-.7.67-1.1-.59.13-1.11.24-1.64.36-.02-.1-.04-.16-.04-.21.02-.47.44-.78,1-.76.33.02.65.02.98.02.06,0,.12-.07.17-.11-.05-.05-.1-.11-.16-.14-.08-.03-.18-.04-.27-.05-.48-.08-.96-.16-1.47-.24.1-.18.17-.31.27-.48-.17,0-.29,0-.42,0-.68,0-1.35.02-2.03.02-.11,0-.21-.08-.4-.16.57-.25.85-.75,1.4-.75.04,0,.09-.07.13-.11.37-.47.74-.94,1.1-1.41.05-.06.06-.16.08-.24-.09.01-.2,0-.27.05-.46.31-.9.63-1.35.94-.35.24-.72.22-1.09-.1.44-.28.86-.55,1.29-.82-.02-.03-.03-.06-.05-.09-.29.09-.58.18-.87.27-.19-.58-.12-.73.4-.9.57-.19.89-.66,1.26-1.06-.02-.03-.04-.07-.05-.1-.59.19-1.17.38-1.79.57,0-.1,0-.14,0-.17.12-.39.44-.52.78-.64.25-.09.53-.15.65-.48-.3,0-.56-.01-.93-.02.37-.31.66-.55.97-.8-.89-.14-1.75-.28-2.62-.42.15-.78.2-.81.9-.64.22-.94,1.23-1.17,1.78-1.9-.75-.04-1.3.69-2.11.33.35-.13.63-.24.9-.34,0-.04,0-.09,0-.13-.18,0-.36-.03-.53,0-.19.03-.37.14-.56.19-.3.08-.53,0-.66-.35.46-.22.92-.43,1.42-.67-.29-.13-.52-.23-.81-.36.33-.24.62-.45.91-.66,0-.01-.02-.03-.03-.04-.15.04-.3.08-.46.13-.02-.16-.03-.29-.05-.44-.29.03-.57.08-.84.1-.07,0-.21-.04-.22-.09-.01-.07.03-.21.09-.23.2-.09.43-.22.64-.21.32,0,.43-.13.48-.44-.87.13-1.7.25-2.6.38.08-.18.13-.29.17-.39.1-.26.24-.41.57-.45.6-.07.92-.54,1.18-1.06-.77.3-1.54.59-2.31.89-.02-.03-.05-.07-.07-.1.09-.18.17-.35.27-.55-.17-.04-.31-.08-.47-.13.32-.67,1.06-.56,1.6-.94-.49,0-.9,0-1.41,0,.39-.38.7-.68,1.02-.98-.01-.04-.03-.08-.04-.12-.45-.04-.89.17-1.39.18.21-.49.4-.94.63-1.48-.27.29-.47.51-.68.73-.04-.03-.07-.06-.11-.09l.34-.75c-.26.15-.45.33-.66.49-.05.04-.14.03-.21.05,0-.07-.01-.16.02-.21.08-.14.18-.26.3-.42-.13-.01-.22-.02-.36-.03.08-.42.16-.82.25-1.27-.25.21-.45.38-.71.6,0-.38-.02-.66-.03-.98-.16.11-.27.2-.42.3-.05-.26-.1-.48-.16-.76-.4.46-.55.93-.38,1.57-.24-.18-.38-.28-.56-.41,0,.17,0,.28,0,.41-.12,0-.21,0-.38,0,.08.27.15.5.23.76-.37-.05-.65-.08-.93-.12,0,.02-.01.05-.02.07l1.04.75s-.01.04-.02.06c-.35-.03-.71-.06-1.16-.1.22.19.36.3.48.43.08.09.12.21.18.32-.13,0-.26.04-.38.01-.4-.1-.79-.23-1.24-.36.05.22.09.38.14.57-.32-.05-.59-.1-.86-.14,0,.03-.02.05-.02.08.49.46.98.92,1.47,1.38l-.05.07c-.44-.1-.89-.21-1.39-.32.33.38.61.71.94,1.1-.66.01-1.22.03-1.78.04-.01.04-.03.07-.04.11.17.12.35.35.5.34.35-.03.4.19.52.45-.55.07-1.07.13-1.7.21.47.17.83.3,1.26.46-.23.13-.38.21-.58.32.27.11.49.19.69.29.1.05.17.16.26.24-.1.07-.18.17-.29.21-.31.12-.63.21-.94.32,0,.03,0,.07,0,.1.61.11,1.19.35,1.9.38.03.05.11.19.21.35-.52.15-1,.29-1.47.42.18.14.35.19.52.26.09.04.24.13.24.19,0,.15-.03.36-.13.44-.42.33-.88.53-1.43.36-.32-.1-.64-.21-.97-.3-.09-.02-.19,0-.28,0v.08c.43.31.86.63,1.33.97-.28.12-.5.22-.73.32.55.17,1.02.62,1.68.44-.16.29-.35.54-.56.78-.2.23-.44.28-.72.16-.25-.1-.51-.16-.82-.26.18.23.29.45.46.58.2.15.45.33.69.34.47.02.65.37,1.03.63-.22.06-.34.1-.46.13-.71.15-1.34-.08-1.92-.47-.38-.25-.74-.53-1.12-.8-.03.03-.05.06-.08.1.26.53.51,1.07.8,1.59.07.13.23.25.38.29.41.12.82.2,1.26.3-.17.45-.4.81-.8.96-.65.24-.96-.38-1.44-.7.03.29.05.53.08.82-.29-.11-.5-.22-.74-.28-.19-.05-.39-.03-.59-.05.06.19.1.39.2.56.12.21.28.39.45.64-.44,0-.81,0-1.18,0l-.04.14c.6.43,1.2.87,1.86,1.34.12-.03.34-.09.55-.13.08-.01.21,0,.25.04.23.29.44.6.7.98-.22-.01-.35-.02-.48-.03-.95-.08-1.91-.17-2.86-.25-.12-.01-.24.03-.36.05.05.12.09.25.16.36.11.16.25.3.36.42.22-.08.48-.24.56-.18.31.25.55.57.84.88-.55.32-1.06.18-1.64.12.39.33.71.61,1.04.88-.01.03-.02.05-.03.08-.34-.03-.68-.06-1.06-.09.12.39.24.74.33,1.09.06.23.17.32.41.32.83,0,1.66.02,2.49.04.12,0,.24.01.4.02-.15.38-.4.44-.72.44-.93,0-1.86.04-2.79.06-.01,0-.02.03-.06.09.34.26.85.23,1.13.66-.41.03-.82.06-1.29.09.76.69,1.68.65,2.64.81-1.26.69-2.35.67-3.35-.37.08.59.16,1.11.23,1.64-.29.06-.58.13-.88.19-.3.07-.6.13-.99.22.19.13.3.19.39.28.23.25.46.26.73.07.23-.15.48-.27.75-.41.14.44.27.83.4,1.23-.48.11-.91.21-1.41.32.38.19.69.34,1.05.52.27-.16.61-.51,1-.05.01.02.07,0,.1,0,.27-.05.36.1.38.33.03.34.27.48.62.59-.07-.18-.13-.36-.22-.6.21.06.31.1.42.13.08-.24.15-.45.25-.76.21.38.36.67.53.97.28-.14.52-.27.78-.41.04.07.05.11.08.14.1.11.19.24.31.3.22.11.3-.1.39-.23.17-.23.33-.47.53-.74.06.18.1.29.13.41.18-.11.33-.2.58-.35-.06.31-.1.5-.14.69.21-.13.35-.3.5-.45.08-.08.2-.19.27-.17.73.2,1.23-.29,1.78-.59.46-.25.81-.19,1.03.3.17.37.33.75.51,1.12.24.5.33,1.01.27,1.57-.06.5-.06,1-.08,1.51-.01.41,0,.82-.02,1.23-.03.41-.03.87-.59.98-.03,0-.07.06-.09.09-.01.03-.02.07-.02.1-5.1,1.57-10.05,3.03-14.44,6.17-4.38,3.13-8.36,5.25-12.32,8.22-1.84,1.37-6.2,4.52-28.13,16.94-.16.07-.3.15-.45.23.06.43.01.31,0,.74,11.11-5.77,27.91-15.53,31.26-18.11,1.76-1.36,5.71-3.45,7.87-5.07,4.62-3.48,8.22-5.27,13.79-6.83,2.7-.75,5.56-1.37,7.92-2.71,3.05-1.73,5.68-4.11,8.47-6.23,1.69-1.29,3.33-2.62,5.07-3.99.35,2.29-1.4,4.37-3.79,4.95-.8.19-1.48.8-2.21,1.22.09.08.19.16.28.23,2.35.09,4.69.19,7.04.28.15-.27.29-.54.44-.81-.84-.42-1.68-.84-2.87-1.43,3.01-1.73,5.45-3.13,7.9-4.53-.11-.19-.22-.39-.34-.58-1.28.57-2.56,1.14-4.16,1.85,1.19-1.48-.21-1.77-.82-2.41,3.61-2.47,6.74-5.51,11.2-6.92.48,4.35,1.75,8.22,5.69,11.14-.37-1.42-.68-2.6-1-3.78.98.92,1.52,2.01,2.27,2.97.65.83.94,2.29,2.48,1.85,1.37,3.22,2.84,6.38,4.08,9.63,1.32,3.47,2.54,6.99,3.58,10.54.42,1.42.25,3,.37,4.88-1.16-1.1-1.99-1.89-3.09-2.95.42,2.81.77,5.17,1.15,7.53.03.22.31.39.45.6.72,1.1,1.67,2.13,2.11,3.32,1.25,3.34,3.41,6.12,5.76,8.8.66.75,1.57,1.32,2.63,2.14h.21c-1.68-4.05-3.19-7.71-4.71-11.36.15-.07.3-.14.46-.2,1.39,1.38,2.74,2.78,4.18,4.11.91.84,1.9,1.63,2.96,2.29.39.25,1.13.21,1.6.03.19-.07.24-.91.08-1.3-.94-2.29-1.99-4.53-2.94-6.82-.43-1.03-.71-2.11-1.12-3.39,2.48.51,3.12,3.37,5.72,2.87,2.63,1.91,5.35,3.73,7.86,5.77,1.98,1.61,3.7,3.5,5.55,5.25.22.2.53.32,1.04.61-.2-.69-.31-1.09-.43-1.49l.41-.28c.93,1.02,1.88,2.03,2.79,3.08.15.17.29.34.44.5,2.32,2.63,4.81,4.99,8.88,5.02-.12-.1-.31-.19-.42-.34-.39-.49-.75-.99-1.12-1.49.58,0,1.17-.05,1.75,0,1.17.11,1.72-.35,1.31-1.39-.26-.66-.56-1.3-.88-1.94-.32-.65-.65-1.3-.97-1.95,1.6-.71,3.55.93,5.28-.63-1.14-.96-2.18-1.89-3.28-2.77-2.26-1.81-4.38-3.71-5.72-6.26-.92-1.76-.36-2.85,1.71-3.28.35-.07.71-.09,1.33-.17-.27-.95-.5-1.77-.75-2.64.15.04.33.05.42.13,3.73,3.2,7.78,5.98,12.23,8.25.22.11.55.35.53.49-.22,1.62,1.08,2.47,2.1,3.29.77.62,1.95.8,3.05,1.22-.05-.47-.08-.79-.16-1.55,1.11.8,1.91,1.37,2.85,2.05-.3-2.05-2.67-1.78-3.81-3.24.88.35,1.42.55,1.94.79,4.21,1.94,8.11,4.55,12.82,5.44.7.13,1.66.12,2.19-.23,2.3-1.52,4.49-3.19,6.84-4.88-3.06-1.55-3.66-4.23-4.15-7.02,2.23,2.17,6.02,2.73,7.02,6.14.09.31.45.55.66.84,1.31,1.78,2.89,3.44,3.87,5.36.04.08.09.16.13.25.88,1.84,2.16,2.85,4.14,3.54-.28-1.5.64-2.29,1.97-2.41,1.49-.13,1.5-.73,1.23-1.48-.07-.19-.15-.38-.23-.58-.13-.31-.26-.62-.4-.95.71.51,1.41,1,2.12,1.51,2.09,1.49,4.17,2.97,6.25,4.43,2.06,1.44,4.77,2.13,5.67,4.83.6,1.81,2.59,1.98,4.16,2.59.07.03.19-.06.35-.11-.08-.3-.15-.6-.23-.9.1-.09.2-.17.3-.26.81.61,1.63,1.21,2.52,1.88-.07-1.92-2.19-1.73-3.04-2.8,1.47.49,2.84,1.12,4.23,1.72,3,1.28,6.01,2.54,9.01,3.82,1.61.69,3.36,1.01,4.93,1.82.54.28,1.05.62,1.53,1.05,1.2,1.08,2.9,1.9,4.52,2.33,3.62.96,7.36,1.71,10.4,3.81,3.07,2.12,6.53,3.12,10.05,4.16,1.2.36,1.74.04,2.56.86,2.03,2.02.92,1.11,3.57,1.91.56.17,1.21.07,1.82.04,2.02-.07,4.41-.04,6.43,0,2.26.04,3.57-.25,5.82-.1.74-.12,1.1,0,1.18-.25-2.79-1.26-1.4-.25-4.31-1.57.34-.31.6-.55.84-.77-.72-.59-1.84-1.08-1.89-1.65-.12-1.43-.65-2.43-2.22-2.98.07-.11.14-.23.22-.34,1.02-.27,2.04-.53,3.68-.96-2.45-1.24-3.9-2.69-3.43-5.05.07-.34.16-.69.25-1.03.02-.09.04-.18.07-.27.22-.76.69-1.52.63-2.25-.12-1.45-.54-2.88-.92-4.74-.46.96-.92,1.6-1.06,2.3-.33,1.65-.47,3.33-.76,4.99,0,.03,0,.06-.01.09-.19,1.02-.67,2.01-.78,3.04-.13,1.23,0,2.49.02,4.23-2.44-1.21-4.39-2.17-6.33-3.13.01-.2.03-.41.04-.61.87-.19,1.74-.38,2.85-.63.15-.96.31-1.98.46-2.94.08-.51.16-1,.23-1.46-2.26-.6-4.23-1.12-6.26-1.66,0,.32,0,.64.01.79-.92.29-1.75.54-2.8.87-.49-.34-1.24-.85-2.12-1.46-.24,1.52-1.04,1.33-1.88.71-.55-.4-1.36-.87-1.42-1.38-.15-1.24-.7-1.33-1.75-.99-.18.06-.47-.17-.7-.26,15.32,1.06,27.63-5.66,39.88-12.96.44-.26.89-.53,1.33-.79.11.26.22.51.33.77.89,2.11,1.76,4.16,2.62,6.2,1.81-1.59,3.31-1.12,4.45,1.47,1.63-.6,3.12-.58,4.12,1.06.08.13.38.12.56.22,1.18.64,2.43,1.19,3.5,1.96,1.06.76,1.88,1.81,2.92,2.59.31.23,1.37.16,1.5-.06.8-1.44,1.68-.97,2.54-.18,1.39,1.27,2.74,2.58,4.12,3.87.68.63,1.36,1.26,2.06,1.87,1.08.95,2.37,1.69,3.56,2.53.12-.12.24-.25.36-.37-.5-.69-1-1.39-1.57-2.18,2.47,0,4.5.41,6.36,1.72.98.69,2.33.92,3.49,1.41,1.2.51,2.39,1.03,3.53,1.65,1.29.7,2.41,1.8,3.78,2.22,3.2.96,6.5,1.61,9.53,2.33-2.64-1.68-5.54-3.52-8.43-5.36.04-.05.08-.11.13-.16,2.55.49,5.09.98,7.64,1.47.1-.18.2-.36.3-.54-3.46-1.84-6.88-3.71-9-6.88-.37-.55-.71-1.14-.99-1.78.56-.14,1.01-.25,1.47-.37.42.72.81,1.41,1.22,2.12h.73c.21-.17.39-.32.59-.47.14.15.28.3.42.44.88.92,1.62,1.82.98,3.27.87.32,1.73.63,2.59.95.92.34,1.97,1.32,2.33-.56.04-.2.68-.3,1.04-.45.8,1.12-.34,2.9,1.38,3.44.28-.59.49-1.06.71-1.53-.13.06-.25.13-.38.19-.38-.94-.78-1.87-1.12-2.82-.38-1.05-.71-2.08-2.05-2.45-.1-.03-.2-.07-.3-.11-.48-.18-.93-.44-1.42-.62-.68-.25-1.38-.44-2.4-.77-.06-.64-.15-1.65-.25-2.79-2.15.45-1.85-1.7-3.15-2.81,1.37.17,2.65,1.52,3.4-.65-1.64-.31-3.25-.61-4.85-.91-.46.45-1.04.76-1.54.68-1.43-.22-2.82-.59-4.42-.95,1.82-1.49,3.51-2.8,5.09-4.21,1.01-.9,1.88-1.88,3.64-.59.04-.9.07-1.51.1-2.18.71.02,1.42.04,2.47.08-.47.48-.65.7-.87.89-.33.28-.67.53-1.01.8.43,0,.89.09,1.3,0,2.39-.49,4.31-2.56,7.07-1.9.13.03.58-.45.54-.55-.15-.32-.44-.76-.73-.8-.55-.08-1.13.1-1.8.18-.01-.14-.02-.28-.03-.41-.02-.29-.04-.55-.06-.73,1.1.13,2.11.25,3.12.37-.1-.16-.2-.32-.3-.48.65-.69,1.31-1.39,1.83-1.94-.2-.49-.75-1.19-.56-1.52.31-.53,1.1-.82,1.78-1.27-1.09-.64-2.16-1.41-1.11-2.46.64-.63,1.89-.72,2.9-1.06.29.36.6.75.92,1.14.62-.61,1.17-1.13,1.71-1.66.11.09.23.19.34.28.25-.48.49-.96.66-1.28-.61-.42-1.4-.7-1.52-1.13-.09-.36.56-.95.98-1.35.44-.43,1-.75,1.51-1.12l.57,3.52.35-.05c.04-.56.08-1.11.15-2.04.26.64.38.92.49,1.21.12,0,.24-.01.36-.02.04-.62.08-1.23.11-1.81.53-.3,1.04-.59,1.56-.88-.13-.17-.25-.31-.35-.44-.06-.08-.12-.15-.18-.21-.23-.26-.41-.36-.6-.3-.06.02-.13.06-.2.11-.07.06-.15.12-.23.22-.1.11-.2.24-.32.39-.12.16-.25.34-.41.54h0s0,0,0,0c-.2-.17-.4-.34-.6-.51,0,0-.02-.02-.03-.03.27-.23.53-.47.8-.71.27-.24.54-.47.82-.69,1.69-1.3,3.55-2.44,5.07-3.89,2.63-2.52,4.98-5.28,7.57-7.84,1.17-1.16,2.5-2.32,4.58-1.95-.08.26-.11.4-.16.53-.71,1.86-2.19,3.74.18,5.51.14.11.21.36.21.55.08,2.13.3,4.28.17,6.4-.12,1.88-.02,3.59,1.05,5.08.4-1.62,1.07-3.19,1.12-4.78.05-1.76-.51-3.54-.72-5.31-.11-.98-.04-1.98-.06-2.97.22-.02.44-.03.67-.05.37,1.8.72,3.6,1.11,5.39.08.37.3.72.49,1.06.43.78,1.01,1.51,1.31,2.33.66,1.79,1.21,3.62,1.76,5.44.15.49.14,1.03.2,1.54-.09.03-.18.05-.27.08-.4-.52-.8-1.05-1.2-1.57-.18.08-.36.17-.54.25.36.69.66,1.42,1.09,2.07.73,1.1,1.88,2.06,2.24,3.25.62,2.03,2.17,3.13,3.77,4.2l1.91-.03c-.01-1.03-.03-2.06-.04-3.1.1-.02.2-.04.3-.07.38.96.75,1.92,1.12,2.87.1-.03.21-.06.31-.09.07-.96.14-1.91.21-2.74,3.68.14,3.37-2.23,3.21-4.69,1.7,2.25,1.58,2.98.36,4.83-.62.93-1.29,1.88-1.64,2.94-.19.59-.28,1.22-.2,1.9.02.18-.02.5-.11.52-1.38.37-.83,1.33-.68,2.07.14.67.39,1.31.64,2.01-.75-2.55,1.17-3.35,1.17-3.35,2.94-.72,4.4-2.96,4.95-4.05.19-.37.27-.61.27-.61.38-3.67,3.92-4.19,3.92-4.19,6.23-1.21,1.61-2.22,1.61-2.22,2.5.05,4.15-.05,4.15-.05,8.13,3.12,13.16,5.25,13.16,5.25-3.99-2.17-5.93-3.2-9.93-5.35-2.87-1.54-5.84-2.92-8.78-4.38.77-.94,1.46-1.77,2.29-2.77-.43-.18-.77-.32-1.11-.46,2.69-1.03,3.26-3.22,4.28-5.11-.79.36-1.61.81-1.92,1.46-.72,1.54-1.61,2.44-3.44,1.7.42-.97.85-1.98,1.4-3.25-1.04.58-1.88,1.05-2.57,1.43,1.26,2.47-1.94,1.84-2.29,3.21.84.21,1.64.42,2.48.64.06.86.11,1.68.18,2.82-3.1-1.61-5.95-3.09-8.69-4.52,5.46-2.32,10.78-4.58,16.18-6.87.76,1.45,1.52,2.88,2.02,3.84,1.21.17,2.35.02,2.93.48.79.64,1.4,1.09,2.47.84.27-.06.65.05.91.2,2.07,1.18,4.12,2.41,6.2,3.58.41.23,1.25.47,1.38.32,1.16-1.37,2.03-.46,2.94.22,1.3.97,2.56,1.98,3.89,2.9,1.03.72,2.14,1.34,3.21,2.01.08-.1.15-.19.23-.29-.29-.42-.57-.84-.86-1.27.07-.11.13-.22.2-.33,1.46.4,2.93.76,4.38,1.2.81.24,1.57.61,2.36.91,1.51.58,2.99,1.23,4.55,1.69,3.11.92,6.26,1.73,9.4,2.58.04-.1.08-.21.12-.31-2.04-1.06-4.08-2.11-6.11-3.17.04-.06.08-.12.12-.18,1.97.32,3.93.64,5.9.96.05-.15.1-.3.16-.45-2.99-1.32-6.02-2.6-7.62-5.61.6.06,1.05.33,1.5.61.31.2.74.66.9.58,1.2-.55,1.68.47,1.69.99.04,1.37,1.14,1.29,1.98,1.74,1.25.69,1.95-.17,2.73-.67.38.86.71,1.6,1.05,2.35.25-.12.49-.24.74-.36-.35-.56-.99-1.12-1-1.69-.05-2.4-2.24-2.84-3.8-3.09-1.75-.28-1.64-1.02-1.46-2.12-.59-.06-1.06-.1-1.54-.15-.23-.54-.45-1.05-.67-1.55.68,0,1.37-.02,2.07-.03,0-.22.02-.44.02-.66-2.82-.14-5.64-.28-8.46-.42-.04-.14-.07-.29-.11-.43,2.49-.8,3.89-3.47,7.04-3.38.03-.25.06-.57.1-.88.56,0,1.09-.01,2.01-.03-.71.46-1.09.69-1.46.93.98.08,1.82-.16,2.67-.37,1.11-.27,2.23-.48,3.34-.76.39-.1.76-.31,1.13-.48-.35-.15-.68-.33-1.04-.44-.38-.12-.79-.17-1.18-.26-.02-.24-.04-.47-.06-.71,2.12,1.55,2.9-.18,3.97-1.06-.18-.2-.45-.48-.8-.85.64-.35,1.17-.63,1.73-.93-1.2-.86-1.37-1.68-.44-1.9.92-.21,1.93-.07,3.22-.09.38-.26,1.05-.72,1.73-1.2-.61-.44-1.01-.73-1.58-1.15.24-.13.47-.26.69-.38.44-.24.84-.46,1.23-.68.2-.11.39-.22.58-.32.06-.04.12-.08.17-.13.17-.1.34-.2.52-.29.67-.38,1.35-.76,2.02-1.14.84-.48,1.67-.98,2.43-1.56,2.21-1.67,4.21-3.59,6.37-5.34,1.18-.96,2.39-2.01,3.92-1.71-.13,1.17-.78,2.65-.28,3.19,1.62,1.76,1.35,3.56.95,5.5-.27,1.32.03,2.18.75,2.79,1.82-2.53.57-5.36.53-8.19.62.85.93,1.72,1.2,2.6.15.47.15.99.37,1.42,1.04,2.07,2.14,4.12,3.22,6.18-.14.07-.28.14-.41.21-.42-.29-.84-.58-1.26-.87-.1.11-.2.21-.31.32,2.44,2.12,3.31,5.68,7.25,6.61-.01-.98-.02-1.86-.04-2.74.1,0,.19-.02.29-.02.28.55.56,1.1,1.02,2.02.13-.99.2-1.56.23-1.79.95-.37,1.88-.48,2.32-.97.45-.5.42-1.39.62-2.17.91,1.05,1.3,1.99.05,3.03-.5.42-1.05,1.01-1.16,1.59-.23,1.26-1.73,2.31-.79,3.85,1.48-.38,2.69-.94,3.42-2.23.67-1.17,1.78-1.54,3.19-1.67,2.29-.21,3.16,1.33,4.31,2.62.4.45.96.77,1.44,1.16-.45-1.66-1.16-3.01-1.69-4.43-.58-1.53-.1-3.05,1.15-3.34,1.13-.26,2.52-.41,3.56-.04,3.06,1.08,6.02,2.39,8.97,3.71,2.8,1.25,5.41,2.96,8.32,3.9,10.29,3.34,14.61,4.58,24.96,7.76.85.26,1.72.48,2.6.69.01-.05.03-.1.06-.14-3.14-1.22-2.37-.96-6.48-2.36"/></g><g class="cls-7"><polygon class="cls-6" points="182.53 59.32 182.53 71.62 163.9 71.38 163.9 142.67 148.38 142.67 148.38 71.38 129.63 71.62 129.63 59.32 182.53 59.32"/><polygon class="cls-6" points="249.01 142.67 233.6 142.67 233.6 105.77 208.17 105.77 208.17 142.67 192.88 142.67 192.88 59.32 208.17 59.32 208.17 93.35 233.6 93.35 233.6 59.32 249.01 59.32 249.01 142.67"/><path class="cls-6" d="m304.3,110.91c-7.4-25.2-9.43-33.44-10.51-38.93h-.24c-1.07,5.49-3.22,13.61-11.11,38.93h21.85Zm-1.67-51.59l26.75,83.36h-16.12l-5.85-19.94h-27.94l-6.21,19.94h-15.29l27.47-83.36h17.2Z"/><path class="cls-6" d="m385.38,59.32h13.61v83.36h-19.35c-21.02-47.89-25.2-58.87-27.94-68.31h-.24c.48,7.88.72,20.18.72,27.71v40.6h-13.73V59.32h20.42c20.42,47.65,25.08,60.55,26.99,66.64h.24c-.36-6.81-.72-20.54-.72-28.3v-38.33Z"/><path class="cls-5" d="m486.24,120.54c-8.47.51-16.84,1.53-25.01,3.16l2.65,3.98c7.35-1.43,14.8-2.35,22.35-2.76,3.27-.2,3.27-4.59,0-4.39m-39,6.6c-5.1,1.33-10.52,3.07-15.31,4.8-.41.1-1.6.61-2,.82v4.8c6.12-2.14,13.54-4.7,19.87-6.54l-2.55-3.88Zm-334.67,12.56c-2.86,1.33-.31,5,2.55,3.67,10.31-4.9,21.64-7.76,33.27-8.17v-4.29c-12.55.41-24.8,3.57-35.82,8.78"/><path class="cls-5" d="m317.61,132.24c-.1.71-.31,1.43-.51,2.14v.2c-.1.31-.1.51-.41.61-.41.1-.71-.1-1.02-.51h-.1c-.61-.51-.71-1.63-.41-2.65.31-.92.92-1.53,1.63-1.74h.51c.1.1.2.31.2.51s0,.41.2.61l-.1.82Zm-63.48,37.46c-7.14,15-14.49,30.52-29.5,42.36-.51-1.73-.1-2.96.31-4.08l.1-.31c1.84-5.61,5-10.61,7.86-14.8,5.51-8.16,12.25-17.56,21.13-25.52.1-.1.31-.2.41-.41.41-.41.82-.82,1.43-1.02-.61,1.33-1.12,2.55-1.73,3.78m161.05-28.21v-2.86c-11.45,4.81-23.63,9.21-35.39,7.36-.82-.2-1.64-.51-2.35-.92-.72-.41-1.23-.92-1.64-1.43-1.02-1.02-1.74-2.45-2.05-3.68-1.02-4.4.31-8.69,1.94-13.09,1.84-5.01,4.5-9.82,6.85-13.81,1.43-2.35,1.23-4.09-.61-5.01-1.94-1.02-3.68-.41-5.63,1.94-.61.82-1.23,1.64-1.74,2.35-5.22,8.59-12.89,15.75-20.35,22.71l-.72.72c-3.07,2.86-6.24,4.91-9.51,6.03-1.64.61-2.56.72-3.07.41-.51-.31-.72-1.02-.72-2.45,0-1.74.31-3.58,1.13-5.73,1.94-5.52,4.91-10.84,7.77-15.96l.61-1.13c.82-1.53,1.23-2.86,1.23-4.19,0-.92-.41-1.64-1.23-2.05-.72-.31-1.74-.2-2.66.31-1.64.92-2.86,2.05-3.68,3.37-5.01,7.98-13.4,13.71-20.86,18.72-.41.31-.51.2-.51.2-.1,0-.1-.41-.1-.51v-.1c0-.92-.1-1.94-.1-2.86v-1.23c-1.02-1.64-2.05-2.66-3.27-2.97-1.02-.2-2.05-.1-3.17.41-3.07,1.43-5.11,4.09-5.22,6.75-.1,1.53.51,3.89,3.89,5.73.61.41.92.51.61,1.12-2.86,4.81-6.55,10.23-12.78,13.6-.2.1-.51.31-.72.41-1.12.72-2.35,1.43-3.48.92-1.33-.51-1.13-1.84-1.02-3.17,0-.2,0-.41.1-.61.61-8.39,4.81-15.75,8.9-21.89,1.64-2.45,3.68-5.22,6.65-7.47l.1-.1c.61-.51,1.23-.92,1.84-.82.41.1.82.41,1.12.92.41.72,1.33,1.02,2.25.61.92-.31,1.43-1.02,1.33-1.94,0-1.33-.82-2.35-2.45-3.07-4.19-2.05-8.28-1.53-11.66,1.53-3.37,3.07-6.03,6.65-8.18,9.82-.82,1.23-1.84,2.15-3.17,2.97-6.55,4.09-11.97,7.57-17.18,11.35l-.1.1c-.31.2-.61.41-.92.31.61-1.53,1.23-3.17,1.94-4.7,1.53-3.78,3.07-7.67,4.7-11.45,1.74-4.19,3.27-8.39,4.6-12.68.41-1.33.61-3.17-1.74-4.09-1.94-.72-3.58,0-4.81,2.15-.51.82-.92,1.64-1.43,2.45-.61,1.02-1.13,2.05-1.74,3.07-7.26,11.66-17.9,21.27-27.21,29.25-2.05,1.74-4.5,3.78-7.47,5.22-.1.1-.31.1-.41.2-.61.41-1.02.61-1.43.41-.51-.31-.31-.92-.2-1.53,0-.1.1-.2.1-.31.61-2.97,1.84-5.73,2.86-8.08,1.64-3.48,3.37-6.95,5.11-10.33,2.66-5.11,5.32-10.43,7.47-15.85l.31-.72c.82-2.05,1.64-4.19,1.74-6.44,0-1.43-.1-2.66-1.74-3.38-1.53-.61-3.07-.41-4.7.82-1.43,1.13-2.76,2.35-3.99,3.38-2.76,2.56-5.11,5.42-7.36,8.18-1.94,2.35-3.89,4.7-6.03,6.96-5.83,5.83-14.05,11.5-25.36,13.4-4.6.43,0,0,0,0l-15.85-1.23h-.2c-9.51-1.84-18.92-5.22-28.54-6.75v4.3c2.15.31,4.19.72,6.34,1.13,9.21,2.05,18,5.32,27.51,6.65,4.7.61,9.72.82,14.42-.2,10.94-2.88,18.34-8.08,20.35-10.02,2.01-1.95,8.69-8.39,10.94-10.74.92-.92,1.74-1.84,2.66-2.86l.92-1.23.61-1.33c.1.72-.1,1.13-.51,1.53l-.82,1.33c-.92,1.74-1.84,3.37-2.76,5.11-2.25,3.99-4.5,8.08-6.65,12.17-2.45,4.6-3.89,8.39-4.7,12.17-.51,2.76.31,4.81,2.56,5.93,2.45,1.33,5.32,2.86,8.8,1.02,3.48-1.84,6.14-3.58,8.49-5.52,6.34-5.32,12.48-11.05,18.31-16.98l.1-.2c.2-.31.31-.61.72-.82.1.51-.2.82-.61,1.13-3.07,6.85-6.14,13.6-9.2,20.46-.41.82-1.13,1.43-1.84,2.05l-.1.1c-10.64,8.9-17.8,16.26-23.42,24.03l-.41.51c-5.11,6.95-10.33,14.22-13.81,22.09-1.13,2.56-2.15,5.32-1.94,8.18.1,1.74.92,3.07,2.25,3.89.92.61,2.05.82,3.27.82.61,0,1.23-.1,1.84-.2,3.07-.61,5.63-1.94,7.88-4.09,6.03-5.63,11.56-11.97,16.36-18.92,8.18-11.66,14.93-24.65,19.94-38.66,1.02-2.86,2.35-4.7,4.5-6.14,1.53-1.02,3.07-2.15,4.5-3.27,1.53-1.12,3.07-2.25,4.7-3.38.41-.2.72-.51,1.13-.72,1.33-.92,2.66-1.84,4.19-2.56.1.51-.1.82-.31,1.23-.1.1-.2.31-.2.41-1.33,3.27-2.76,7.67-2.15,12.48.41,3.07,2.15,4.7,5.83,5.52,4.19,1.02,8.18.2,12.38-2.45,6.75-4.19,10.74-10.23,13.81-15.55.1-.2.2-.31.31-.51.31-.61.51-1.12,1.33-1.43,4.19-1.64,7.67-4.3,11.05-6.75.72-.51,1.43-1.13,2.15-1.64l.31-.31c.41-.41.61-.51.92-.31.2.2.2.41,0,.92,0,.1-.1.1-.1.2-1.13,3.27-1.84,6.34-2.05,9.51-.2,3.17,2.35,5.83,6.03,6.14,5.22.51,9.31-1.53,12.89-3.99,4.91-3.27,8.9-7.16,12.17-10.53l.31-.31c.31-.31.51-.61,1.12-.72-.1.51-.2,1.02-.31,1.64-.31,1.33-.51,2.56-.72,3.89-.72,4.4,1.74,8.9,5.52,11.15.1.1.2.1.31.2.1,0,.1.1.2.1,1.02.41,2.05.82,2.97,1.33,15.14,4.6,29.76-1.12,43.88-6.75h-2.86v.2Z"/><polygon class="cls-6" points="208.17 107.43 208.17 144.33 192.88 144.33 192.88 60.98 208.17 95.01 208.17 107.43"/><path class="cls-6" d="m430.41,142.67h-15.41V59.32h15.41v36.78h.24c3.34-5.73,7.17-11.94,23.65-36.78h18.15l-27.94,38.93,29.97,44.42h-18.87c-17.91-27.82-21.73-34.87-24.96-41.08h-.24v41.08Z"/><path class="cls-6" d="m472.85,279.47c-2.01-.95-2.68-1.57-2.68-2.68,0-1.29,1.13-2.1,2.62-2.1.81,0,1.6.16,2.37.52l.16-1.13c-.79-.3-1.66-.45-2.57-.45-2.34,0-3.86,1.37-3.86,3.24,0,1.67.95,2.52,3.09,3.53,2.05.97,2.65,1.65,2.65,2.79,0,1.4-1.13,2.32-2.84,2.32-.9,0-1.76-.2-2.71-.66l-.14,1.22c.84.34,1.87.52,2.9.52,2.41,0,4.08-1.4,4.08-3.52,0-1.6-.93-2.57-3.06-3.58"/><path class="cls-6" d="m490.62,283.14c-.14.5-.39,1.53-.52,2.19h-.04c-.16-.68-.45-1.78-.58-2.19l-2.73-9.31h-1.71l-2.64,9.31c-.14.49-.4,1.51-.54,2.19h-.04c-.14-.68-.41-1.78-.54-2.19l-2.66-9.31h-1.35l3.76,12.55h1.57l2.75-9.51c.16-.58.4-1.53.5-2.1h.04c.13.58.36,1.57.52,2.1l2.81,9.51h1.56l3.83-12.55h-1.29l-2.7,9.31Z"/><rect class="cls-6" x="496.68" y="273.83" width="1.24" height="12.55"/><path class="cls-6" d="m504.75,279.47c-2.01-.95-2.68-1.57-2.68-2.68,0-1.29,1.13-2.1,2.62-2.1.81,0,1.6.16,2.37.52l.16-1.13c-.79-.3-1.66-.45-2.57-.45-2.34,0-3.86,1.37-3.86,3.24,0,1.67.95,2.52,3.09,3.53,2.05.97,2.65,1.65,2.65,2.79,0,1.4-1.13,2.32-2.84,2.32-.9,0-1.76-.2-2.71-.66l-.14,1.22c.85.34,1.87.52,2.9.52,2.41,0,4.08-1.4,4.08-3.52,0-1.6-.93-2.57-3.06-3.58"/><path class="cls-6" d="m513.92,279.47c-2.01-.95-2.68-1.57-2.68-2.68,0-1.29,1.13-2.1,2.62-2.1.81,0,1.6.16,2.37.52l.16-1.13c-.79-.3-1.66-.45-2.57-.45-2.34,0-3.86,1.37-3.86,3.24,0,1.67.95,2.52,3.09,3.53,2.05.97,2.64,1.65,2.64,2.79,0,1.4-1.13,2.32-2.84,2.32-.9,0-1.76-.2-2.71-.66l-.14,1.22c.84.34,1.87.52,2.9.52,2.41,0,4.08-1.4,4.08-3.52,0-1.6-.93-2.57-3.06-3.58"/><path class="cls-3" d="m534.36,281.51h-3.75v3.69h-2.84v-3.69h-3.75v-2.79h3.75v-3.69h2.84v3.69h3.75v2.79Zm-.75-8.31h-8.85s-2.61,0-2.61,2.57v8.7s0,2.57,2.61,2.57h8.85s2.61,0,2.61-2.57v-8.7s0-2.57-2.61-2.57"/><path class="cls-6" d="m548.93,282.63c-.22.57-.69,1.85-.95,2.63h-.03c-.24-.8-.68-2.05-.92-2.63l-3.53-8.81h-2.1v12.76h1.23v-8.81c0-.6,0-2.05-.04-3.02h.04c.24.79.77,2.12.99,2.69l3.73,9.14h1.12l3.85-9.34c.24-.55.68-1.64.97-2.48h.03c-.03.97-.03,2.41-.03,3.02v8.81h1.26v-12.76h-2.05l-3.57,8.81Z"/><path class="cls-6" d="m565.38,282.08h-5.65l1.85-4.62c.26-.64.69-1.85.95-2.56h.04c.22.71.71,1.97.95,2.56l1.86,4.62Zm-3.47-8.26l-5.34,12.76h1.35l1.41-3.45h6.47l1.43,3.45h1.39c-1.77-4.26-3.58-8.5-5.37-12.76h-1.33Z"/><path class="cls-6" d="m573.2,285.48h-1.26v-10.56h1.26c3.6,0,6.17,1.35,6.17,5.32,0,3.67-2.43,5.25-6.17,5.25m.07-11.66h-2.59v12.76h2.59c4,0,7.4-1.76,7.4-6.36s-3.11-6.4-7.4-6.4"/><polygon class="cls-6" points="584.8 280.51 589.72 280.51 589.72 279.45 584.8 279.45 584.8 274.91 590.05 274.91 590.05 273.82 583.54 273.82 583.54 286.57 590.19 286.57 590.19 285.48 584.8 285.48 584.8 280.51"/><path class="cls-5" d="m219.79,252.32c.41.18.97.57,1.58.66.43.07,1.14-.14,1.35-.44.66-.99,1.15-2.08,1.77-3.28-.59.23-1.33.37-1.88.74-.91.62-1.71,1.39-2.81,2.32"/><rect class="cls-5" x="571.74" y="167.48" width="3.06" height="36.06"/><path class="cls-5" d="m478.08,236.77c.92,0,2.07.32,2.72-.08.76-.46,1.08-1.55,1.86-2.79-1.71.91-3.12,1.66-4.53,2.42-.02.15-.03.3-.05.45"/><path class="cls-5" d="m52.61,208.73c-1.59-.59-3.22-1.1-5.08-1.72,1.01-1.15,1.69-1.94,2.38-2.73,1.06-1.21,1-2.82-.31-3.21-2.07-.61-1.34-1.54-.53-2.51.55-.65,1.24-1.2,1.88-1.78,2.94-2.66,3.1-5.23.35-8.58-1.17,1.42-.24,2.58.17,3.71.84,2.31.69,2.76-1.61,3.88-.7.34-1.63.57-2.02,1.12-1.44,2.04-2.71,4.2-4.05,6.31.12.16.24.32.36.48,1.43-.39,2.87-.78,4.78-1.29-1.23,1.53-2.09,2.89-3.26,3.97-.92.85-1.92.93-.97,2.78.87,1.67,1.43,2.56,3.57,2.63-1.21.81-2.42,1.62-3.75,2.51-.49-.72-.93-1.37-1.31-1.93-1.73,1.13-3.39,2.21-5.58,3.64.55-1.53.92-2.54,1.28-3.56-.18-.07-.37-.15-.55-.23-1.27,1.01-2.55,2.03-3.86,3.07.31.47.58.88.75,1.15-.84.9-1.56,1.66-2.28,2.43.11.17.21.33.32.49.77-.08,1.54-.16,2.71-.28-.88.95-1.65,2.34-2.19,2.26-2.29-.32-2.52,1.38-3.44,2.5.67.43,1.28.84,1.69,1.1,4.14-3.39,8.11-6.63,12.08-9.87.16.11.32.22.48.33-.59,1.04-.95,2.32-1.82,3.06-1.87,1.57-4.04,2.82-6.03,4.27-.45.33-.65.94-.93,1.35,1.25.1,2.22.17,2.78.22.39-1.05.74-2.02,1.1-2.99.22.05.43.1.65.14.24.95.48,1.9.67,2.64,1.97.38,2.11-3.41,4.36-1.51.76-.35,1.36-.71,2.01-.89,2.17-.6,3.44-2.67,2.67-4.86.88.15,1.65.27,2.76.45-.16-.84-.31-1.56-.39-1.94-1.17.13-2.02.13-2.8.34-.88.23-1.66.65-1.12,1.79.8,1.67.36,2.69-1.6,3.7v-1.99c-.83.32-1.51.58-2.2.85-.16-.13-.33-.26-.49-.39.42-.95.57-2.47,1.3-2.76,3.19-1.31,4.28-4.8,7.47-6.03.37-.14.77-.83.7-1.19-.07-.36-.66-.74-1.11-.91"/><path class="cls-5" d="m213.86,272.77c-.84-.75-1.83-1.42-2.43-2.31-1.61-2.4-2.35-5.35-5.24-6.92-.45-.24-.79-.72-1.08-1.15-1.12-1.69-2.85-1.97-4.66-1.61-.91.19-2.16.78-2.41,1.46-.24.63.48,1.76,1.08,2.44,2.13,2.42,4.29,4.85,6.63,7.09,2.77,2.65,5.09,6.07,9.94,6.01-.51-1.17-1.02-2.32-1.52-3.47.1-.07.2-.14.29-.2,1.72,1.52,3.43,3.04,5.15,4.57.13-.09.25-.19.38-.28-.26-.28-.5-.57-.78-.83-1.77-1.6-3.57-3.2-5.34-4.8"/><path class="cls-5" d="m141.24,249.7c-1.8-2.34-2.47-5.43-5.37-7.05-.45-.26-.8-.71-1.14-1.11-1.45-1.73-3.71-2.22-5.79-1.22-1.52.73-1.83,1.73-.68,2.93,3.65,3.82,7.4,7.55,11.07,11.36,1.63,1.7,3.66,2.28,6.04,2.35-.46-1.17-.87-2.23-1.28-3.29.1-.07.2-.14.3-.22,1.65,1.44,3.29,2.89,4.94,4.33.13-.13.26-.26.38-.39-1.72-1.53-3.44-3.04-5.15-4.58-1.13-1.02-2.42-1.94-3.32-3.12"/><path class="cls-5" d="m572.72,219.24c-1.09.83-1.92,1.47-2.75,2.1-.11-.14-.22-.27-.32-.41.46-.81.93-1.63,1.61-2.81-1.95.79-3.51,1.43-5.06,2.07.37-.85,1.06-1.35,1.63-1.95.54-.56.94-1.24,1.4-1.86-.77-.18-1.53-.36-2.67-.62.01.02-.24-.38-.49-.78.38,2.7-1.74,3.39-3.64,4.26-.35-.31-.71-.63-1.07-.95-1.72,2.13-1.55,3.29.39,4.87.31.25.3.95.29,1.44,0,1.32-.74,2.78.5,3.55,1.25-.74,2.26-1.34,3.39-2.01-.17-.79-.39-1.81-.6-2.83.13-.08.26-.16.39-.25,2.71,2.65,5.43,5.31,8.14,7.96,2.28-.85,2.08-2.48,1.34-4.4-.91-2.37-1.62-4.79-2.47-7.37"/><path class="cls-5" d="m318.92,264.22c-4.13.57-3.54,4.66-5.63,6.3-1.46-.1-2.61-.18-4.05-.28.76-.75,1.67-1.28,1.93-2.02.24-.68-.23-1.57-.4-2.46.56-.32,1.23-.71,1.9-1.09-.13-.24-.26-.48-.39-.72-1.52.94-3.04,1.88-4.85,3,.88.23,1.34.35,2.55.65-1.51,1.35-2.66,2.37-3.78,3.4-.48.43-.91.92-1.35,1.38.62.29,1.22.81,1.85.82,1.44.03,1.91.62,1.87,1.91-.04,1.18.11,2.38.17,3.49-.47.62-.94,1.25-1.41,1.88h.59c1.82-1.14,3.39-2.37,4.52-4.28.87-1.49.29-1.71-.82-2.69,4.45-1.87,5.08-6.06,7.31-9.29"/><path class="cls-5" d="m427.82,242.16h-4.57c.49-.67,1.23-1.7,2.07-2.85-1.1-.24-1.7-.37-1.86-.41-.98,1-1.75,2.11-2.85,2.72-.33.18-1.44-.5-1.58.62-.1.77-.26,1.98.16,2.26,1.28.88.98,1.95.98,3.07,0,.62.17,1.25.27,1.93.95-.73,1.64-1.26,2.38-1.82-.11-.62-.24-1.35-.36-2.09.17-.05.35-.1.52-.14,1.77,2.14,3.55,4.27,5.5,6.62,2.22-3.67-.92-6.57-.66-9.9"/><path class="cls-5" d="m404.16,263.71c-.38-.14-.91-.56-.9-.84.04-1.03.35-2.05.42-3.09.04-.54-.02-1.09-.08-1.64h-.58c-.13,1.19-.27,2.4-.42,3.71-1.66-.79-3.24-1.26-4.57.68,1.28.83,1.76,2.45,4.01,2.17.95-.12,2.37,1.13,3.1,2.08.65.84.62,2.12.94,3.2.06.21.34.36.52.53.2-.03.4-.06.59-.08-.16-1.5-.33-3-.49-4.52,2.21-.39,1.14,1.52,1.76,2.35.69-.23,1.34-.44,2.69-.88-1.28-1.01-2.05-1.86-3.03-2.34-1.23-.6-2.65-.87-3.95-1.35"/><path class="cls-5" d="m590.47,235.88c.23,1.16.51,2.64.83,4.25,1.77-1.06,1.46-2.27-.83-4.25"/><path class="cls-5" d="m223.74,260.3c-.15-.08-.3-.16-.46-.25.22-.64.43-1.27.64-1.9h-1.13c-.35.52-.69,1.04-1.05,1.57-.32-.53-.61-1.02-.95-1.57h-1.11c-.17.8-.32,1.47-.29,2.12.01.51.73,1.44,1.05,1.41,3.22-.3.62,1.15.65,1.84.5.35,1.03.71,1.44.99.76-1.3,1.46-2.34,2.01-3.46.45-.94.78-1.93,1.15-2.9h-.58l-1.38,2.15Z"/><path class="cls-5" d="m230.99,254.55q-2.08-2.91-2.62-2.54c.91,2.09,1.8,4.11,2.68,6.13h2.18c.03-.07.05-.15.08-.22.73-1.76-1-3.64.33-5.34-2.11-.88-1.31,1.88-2.65,1.98"/><path class="cls-5" d="m225.65,251c.44.77-.43,2.2-.71,3.33.23.07.46.14.7.21.55-1.55,1.29-3.08,1.56-4.67.12-.68-.75-1.51-1.43-2.74-1,1.69-.84,2.6-.12,3.88"/><path class="cls-5" d="m153.28,239.5c-.14-.1-.28-.19-.42-.29.37-.9.74-1.8,1.11-2.7-.24-.11-.49-.22-.73-.33-.54.88-1.09,1.76-1.59,2.57-.66-.89-1.23-1.65-2.02-2.72-.81,4.28-.61,4.73,2.14,5.03-.36.56-.68,1.05-1.03,1.6.68.39,1.32.75,1.83,1.04,1.09-2.34,2.09-4.47,3.08-6.61-.17-.03-.35-.07-.52-.1-.62.83-1.23,1.66-1.84,2.49"/><path class="cls-5" d="m160.76,233.85q-1.96-2.98-2.5-2.68c1.17,2.9,2.31,5.71,3.56,8.81,2.33-2.63.73-5.51.71-8.46-.58.76-1.15,1.52-1.77,2.34"/><path class="cls-5" d="m154.88,227.27c-.23,2.04,1.07,4.16-.35,6.14-.01.02.07.1.25.37,2.22-1.04,1.38-3.36,2.22-4.9.22-.4-.88-1.43-1.55-2.42-.36.51-.55.66-.57.82"/><path class="cls-5" d="m467.06,257.53c.44.77-.43,2.2-.71,3.33.23.07.46.14.7.21.55-1.55,1.29-3.08,1.56-4.67.12-.68-.75-1.51-1.43-2.74-1,1.69-.84,2.6-.12,3.88"/><path class="cls-5" d="m536.06,227.37c-.11-.16-.21-.31-.32-.46,1.72-1.05,3.43-2.1,5.15-3.15.14.19.28.39.42.59-1.75,1.01-3.5,2.01-5.25,3.02m-146.85,29.99c-.14-.14-.28-.28-.41-.42,2.28-1.8,4.11-4.2,7.16-4.96.12.16.24.31.35.47-2.37,1.64-4.73,3.27-7.1,4.91m-117.6,28.55c1.09,1.01,2.08,2.11,2.9,3.45-4.08-1.88-8.18-3.74-12.25-5.63-2.23-1.04-4.45-2.11-6.62-3.24h0s-.06-.03-.09-.05c-.72-.38-1.3-1.01-2.06-1.62-.66.03-1.79.41-2.27.04-.62-.48-.7-1.56-1.01-2.38.29-.12.58-.24.87-.35.35.58.7,1.16,1.23,2.04.3-.57.89-1.2.74-1.5-.87-1.71-1.49-3.95-2.98-4.88-3.47-2.15-4.03-5.35-4.67-8.8,2.11,1.49,4.26,2.93,6.32,4.48,3.56,2.69,7.5,4.65,11.97,5.59,1.58.33,2.26.85,1.51,2.51-.35.77.02,1.83.08,3.02-2.46-.75-1.67-4.13-4.89-3.92.53.52.85.84,1.28,1.25-.25.26-.52.55-.79.83.15.19.22.38.31.38,1.83.15,2.77,1.31,3.59,2.68.13.22.31.46.5.68h0c.23.26.49.47.75.51,3.03.51,3.79,3.23,5.61,4.91m-27.23-14.26c-.69-2.32-1.36-4.56-2.02-6.8-.23.04-.46.07-.69.1-.08.51-.16,1.01-.27,1.73-1.02-.68-1.89-1.26-3.14-2.1.52,1.93,1.24,3.72-.63,4.99-.59-.79-1.15-1.55-1.71-2.31-.22.17-.45.33-.67.5v4.37c-.2.13-.4.27-.6.41-1.54-.95-3.09-1.9-4.69-2.89.71-1.42,1.76-2.71.29-4.26-.49.4-.89.75-1.76,1.47-.07-1.29-.13-2.15-.18-3.04-.46.26-1.05.48-1.49.86-.36.31-.79.82-.78,1.22.05,1.01.33,2,.61,3.46-6.94-3.16-13.69-5.45-17.96-11.23-.16-.22-.36-.49-.51-.71-.65-.97-2.3-1.44-3.58-1.93-1.92-.75-3.91-1.31-6.13-2.04,2.94-2.17,5.49-4.04,8.03-5.94,2.94-2.19,5.85-4.41,8.8-6.59.64-.47,1.34-.92,2.1-1.15,1.04-.32,2.16-.42,3.25-.61.19,1.17.74,2.41.47,3.48-.39,1.63-.38,2.01,1.7,2.35,2.02.32,4.45.41,6.06,2.35,1.12,1.35,2.84,2.26,4.17,3.49.11.1.19.22.26.36.2.41.25.95.41,1.4h0s-.02,0-.03-.01c.71,1.85,1.53,4.05,2.27,5.89h0c.04.11.08.22.13.32.61,1.46,1.34,2.87,2.03,4.31.2-.03.4-.07.61-.1.07-.82.15-1.65.22-2.45,1.69.68,3.38,1.36,5.18,2.08-.15.54-.48,1.14-.46,1.75.03.98-.1,2.44.51,2.86,2.26,1.57.84,2.91.23,4.4m-70.32-20.87c-.65-2.22-1.31-4.48-1.97-6.74-.16.01-.32.03-.48.04-.1.49-.21.97-.39,1.83-1.04-.67-1.92-1.24-2.7-1.74-.14,1.45-.3,3.03-.45,4.62-.33.13-.66.26-.99.39-.49-.91-.99-1.83-1.48-2.74-.26.16-.52.33-.78.49v4.34c-.18.14-.36.28-.55.42-1.47-.92-2.93-1.84-4.33-2.71.2-.89.42-1.57.49-2.26.07-.58-.02-1.17-.04-1.75-.65.14-1.3.28-2.18.46v-2.44c-.62.33-1.25.57-1.76.97-.32.25-.65,1.01-.61,1.05,1.5.99-.46,2.16.32,3.22-6.82-2.72-13.61-5.2-18.03-11.19-.79-1.07-2.38-1.73-3.74-2.29-1.88-.78-3.9-1.3-5.87-2.29,7.82-4.2,12.82-11.85,22.18-14.77v6.11c1.8.41,3.76.86,5.73,1.3.33.07.75.01.99.18,3.74,2.64,6.72,5.69,7.64,10.28.47,2.35,1.77,4.57,2.69,6.84.31-.08.62-.16.93-.24-.07-.86-.15-1.72-.22-2.41,1.54.52,3.13,1.01,4.66,1.62.29.12.64.79.53,1.03-.83,1.77-.33,3.32.77,4.78,1.01,1.35.55,2.53-.36,3.59m501.79-4.72c-17.27-5.54-40.3-13.44-47.45-16.93-10.06-4.9-20.57-8.97-30.79-13.58-7.11-3.2-14.54-5.87-20.25-11.43-3.21-3.12-5.58-3.03-9.47-.43-2.22,1.47-4.13,3.35-6.23,4.99-1.78,1.4-3.53,2.85-5.45,4.05-8.28,5.17-16.77,10.05-24.87,15.45-5.93,3.95-11.92,7.7-18.63,10.36-1.93.76-3.83.75-5.74-.12-3.38-1.54-6.77-3.06-10.18-4.55-2.58-1.13-5.25-2.08-7.76-3.31-2.47-1.22-4.79-2.71-7.18-4.06-1.35-.76-2.58-.62-4.04.06-5.93,2.78-11.93,5.45-17.95,8.05-.86.37-2.27.46-3.02.04-6.29-3.53-12.41-7.22-16.75-13.04-2.65-3.55-6.27-4.07-9.79-1.63-2.13,1.47-4.06,3.25-5.86,5.08-4.02,4.08-7.49,8.61-12.82,11.5-2.98,1.61-5.49,3.99-8.18,6.07-5.01,3.88-10.05,7.72-14.97,11.7-1.37,1.11-2.71,2.27-4.04,3.43h0c-2.94,2.57-6.3,5.54-9.49,7.79-4.77,3.37-10.07,6.08-15.19,9.01-1.65.94-3.42.67-5.07-.17-1.08-.55-2.12-1.16-3.19-1.73-3.56-1.88-7.12-3.74-10.69-5.6-2.66-1.4-5.45-2.62-7.97-4.21-2.37-1.5-4.66-3.1-6.95-4.71h0c-1.31-.92-2.63-1.84-3.95-2.74-1.04-.71-2.01-.53-3.15.16-1.44.86-2.88,1.73-4.32,2.59h0c-6.4,3.79-12.92,7.37-20.21,9.64-4.77,1.48-9.34,3.64-14.47,3.78-3.61.1-7.21-.07-10.82-.04-4.96.03-9.35-1.53-13.42-4.05-4.11-2.55-7.53-5.74-10.76-9.11-2.86-3-5.92-6.49-8.83-9.42-3.86-3.88-8.13-7.4-12.35-10.96-1.92-1.62-4.25-1.56-6.51-.45-1.09.53-2.23,1.03-3.19,1.74-4.17,3.11-8.14,6.47-12.44,9.41-6.46,4.41-7.34,4.15-12.5.74-2.48-1.64-4.91-3.52-7.07-5.42-6.02-5.29-11.34-11.29-17.11-16.85-3.62-3.48-7.47-6.76-11.38-9.97-1.9-1.56-4.31-1.7-6.52-.46-2.33,1.31-4.61,2.73-6.77,4.27-3.85,2.76-7.57,5.68-11.4,8.47-2.9,2.11-6.02,2.29-8.75-.07-4.46-3.87-8.6-8.06-13.06-11.94-2.84-2.47-5.77-4.99-9.09-6.77-2.52-1.35-5.04-2.52-6.93-4.6-1.68-1.86-3.31-3.75-4.86-5.7-2.79-3.52-5.99-6.45-10.64-7.73-1.88-.52-3.74-1.23-5.44-2.14-3.49-1.87-6.85-3.95-10.28-5.92-2.8-1.61-5.64-1.59-8.47-.04-1.01.55-2.03,1.08-2.94,1.76-7.6,5.65-15.13,11.4-22.79,16.98-2.46,1.79-5.04,3.77-7.92,4.64-7.48,2.28-15.11,4.19-22.78,5.89-6.2,1.37-11.89,3.45-16.98,7.16-2.36,1.72-5.26,3.02-8.12,3.87-8.15,2.44-16.42,4.54-24.63,6.79-4.19,1.15-8.37,2.33-12.56,3.49,0,.07-.01.14-.04.2.38.17.72.18,1.03.11,9.95-2.29,19.88-4.7,29.87-6.84,6.87-1.47,13.26-3.64,18.86-7.86,2.26-1.7,5.21-2.82,8.03-3.61,7.08-2,14.29-3.61,21.41-5.5,3.45-.91,7.1-1.65,10.12-3.32,3.91-2.16,7.3-5.15,10.88-7.82,2.17-1.62,4.29-3.29,6.52-5.01.41,2.93-1.85,5.56-4.91,6.26-1.01.23-1.89,1-2.84,1.52.12.1.24.2.36.3,2.98.16,5.97.32,8.95.48.19-.34.38-.69.58-1.03-1.06-.55-2.12-1.1-3.63-1.88,3.87-2.15,7-3.9,10.13-5.65-.14-.25-.28-.5-.42-.75-1.64.7-3.28,1.41-5.32,2.29,1.53-1.87-.23-2.26-1.01-3.1,4.63-3.09,8.67-6.93,14.37-8.65.53,5.57,2.08,10.53,7.06,14.32-.45-1.82-.83-3.33-1.21-4.85,1.23,1.19,1.91,2.6,2.84,3.83.82,1.07,1.16,2.93,3.13,2.41,1.69,4.13,3.5,8.2,5.02,12.37,1.63,4.46,3.11,8.97,4.38,13.53.51,1.83.26,3.83.39,6.25-1.45-1.43-2.5-2.45-3.88-3.82.49,3.6.89,6.62,1.33,9.65.04.28.39.51.56.78.9,1.42,2.08,2.75,2.63,4.28,1.54,4.28,4.24,7.87,7.18,11.34.82.97,1.97,1.71,3.32,2.77h.26c-2.06-5.2-3.93-9.9-5.8-14.59.19-.09.39-.17.58-.26,1.75,1.78,3.44,3.61,5.25,5.33,1.15,1.09,2.39,2.11,3.73,2.98.49.32,1.44.28,2.04.07.24-.08.32-1.16.12-1.66-1.16-2.94-2.46-5.83-3.63-8.76-.53-1.32-.86-2.71-1.37-4.36,3.14.7,3.92,4.35,7.24,3.76,3.31,2.49,6.74,4.86,9.9,7.5,2.5,2.09,4.65,4.54,6.98,6.81.27.26.67.42,1.31.8-.24-.88-.38-1.4-.52-1.92.18-.12.35-.23.53-.35,1.17,1.32,2.36,2.63,3.5,3.98.18.22.37.43.55.65h0c2.91,3.4,6.04,6.46,11.22,6.57-.16-.13-.39-.25-.53-.44-.48-.63-.93-1.28-1.4-1.92.74,0,1.49-.05,2.23.03,1.48.16,2.19-.42,1.69-1.75-.32-.84-.69-1.67-1.08-2.49h0c-.4-.84-.81-1.67-1.2-2.51,2.05-.88,4.5,1.25,6.73-.71-1.43-1.25-2.75-2.45-4.13-3.59-2.85-2.35-5.51-4.82-7.17-8.09-1.15-2.26-.42-3.65,2.23-4.16.45-.09.91-.11,1.7-.2-.33-1.22-.61-2.27-.91-3.39.2.06.42.07.53.17,4.69,4.15,9.8,7.77,15.42,10.75.27.15.7.45.67.64-.31,2.07,1.33,3.17,2.62,4.24.97.81,2.47,1.06,3.87,1.61-.06-.6-.09-1.01-.18-1.98,1.4,1.04,2.4,1.78,3.6,2.67-.35-2.63-3.36-2.32-4.79-4.2,1.11.47,1.8.72,2.46,1.04,5.33,2.55,10.24,5.94,16.22,7.16.89.18,2.11.19,2.79-.25,2.96-1.9,5.77-4,8.78-6.13-3.87-2.03-4.59-5.46-5.16-9.04,2.8,2.82,7.61,3.59,8.83,7.97.11.4.56.71.83,1.08,1.63,2.29,3.65,4.52,4.86,6.97.04.08.09.17.13.26,1.08,2.36,2.71,3.68,5.21,4.59-.33-1.92.85-2.91,2.55-3.04,1.85-.14,1.92-.87,1.62-1.8h0s0-.01,0-.02c0-.02-.01-.03-.02-.05h0c-.08-.23-.19-.51-.28-.75-.16-.4-.32-.79-.49-1.21.9.66,1.85,1.37,2.75,2.02,2.62,1.92,5.21,3.83,7.81,5.71,2.6,1.87,6.04,2.81,7.14,6.27.74,2.33,3.26,2.57,5.25,3.37.09.04.24-.07.44-.13-.09-.38-.19-.77-.28-1.16.13-.11.26-.22.38-.33,1.02.79,2.05,1.58,3.18,2.45-.06-2.45-2.76-2.25-3.82-3.62,1.86.65,3.59,1.48,5.35,2.26,3.79,1.69,7.6,3.35,11.4,5.04,2.03.9,4.26,1.35,6.24,2.41h0c.68.37,1.33.81,1.93,1.36,1.51,1.4,3.65,2.47,5.72,3.05,4.59,1.28,9.33,2.31,13.17,5.05,3.87,2.76,8.26,4.09,12.72,5.49,1.52.48,2.21.08,3.25,1.14,2.55,2.62,1.15,1.44,4.51,2.51.7.23,1.54.11,2.32.09,2.57-.06,5.61.02,8.18.1,2.87.09,4.55-.26,7.42-.03.94-.14,1.4.02,1.51-.3-3.53-1.66-1.77-.34-5.46-2.08.44-.39.77-.69,1.09-.97-.9-.77-2.33-1.41-2.38-2.14-.13-1.83-.78-3.12-2.78-3.84.09-.14.19-.29.28-.43,1.3-.32,2.61-.65,4.7-1.16-3.1-1.63-4.92-3.5-4.28-6.51.09-.44.22-.88.34-1.31.03-.11.06-.23.09-.34.29-.96.91-1.93.84-2.87-.13-1.85-.63-3.69-1.09-6.07-.6,1.22-1.2,2.03-1.39,2.93-.45,2.1-.65,4.25-1.05,6.36h0s-.01.08-.02.12c-.25,1.3-.89,2.55-1.04,3.87-.19,1.57-.04,3.17-.04,5.41-3.09-1.59-5.54-2.85-8-4.11.02-.26.04-.52.06-.78,1.11-.23,2.23-.46,3.64-.75.2-1.22.42-2.52.63-3.75h0c.11-.65.22-1.28.31-1.86-2.87-.8-5.37-1.5-7.94-2.22v1.01c-1.18.35-2.24.66-3.58,1.06-.62-.44-1.57-1.11-2.67-1.89-.33,1.93-1.34,1.67-2.4.88-.69-.52-1.72-1.13-1.79-1.78-.16-1.59-.87-1.71-2.21-1.29-.23.07-.59-.22-.89-.35,19.48,1.61,35.26-6.76,50.97-15.88h0c.57-.33,1.14-.66,1.71-1,.14.34.27.66.4,1h0c1.1,2.71,2.16,5.34,3.23,7.97,2.32-2,4.24-1.37,5.64,1.95,2.08-.74,3.98-.69,5.23,1.42.1.17.49.17.71.29,1.49.84,3.07,1.56,4.43,2.57,1.34.99,2.36,2.34,3.68,3.36.39.3,1.75.23,1.91-.06,1.05-1.83,2.16-1.21,3.24-.19,1.59,1.5,3.14,3.04,4.72,4.56h0c.09.09.19.18.29.28.06.06.12.12.18.17h0c.82.78,1.85,1.77,2.58,2.43,1.36,1.23,2.98,2.2,4.49,3.29.16-.16.31-.31.47-.47-.62-.89-1.25-1.79-1.96-2.81,3.14.04,5.72.6,8.06,2.31,1.24.9,2.95,1.21,4.41,1.86,1.51.67,3.03,1.36,4.46,2.17,1.63.92,3.03,2.35,4.77,2.9,4.05,1.28,8.25,2.17,12.09,3.14-3.33-2.19-6.99-4.59-10.64-6.99.06-.07.11-.14.16-.2,3.23.67,6.47,1.33,9.7,2,.13-.23.26-.45.39-.68-4.31-2.37-8.85-5.23-11.52-9.24-.39-.63-.75-1.28-1.06-1.99.71-.17,1.29-.3,1.88-.45.52.93,1.01,1.82,1.51,2.73h.93c.26-.2.51-.38.75-.57.18.19.36.38.53.57h0c1.1,1.2,2.03,2.35,1.18,4.19,1.1.42,2.19.83,3.28,1.26,1.16.46,2.48,1.72,2.97-.67.05-.26.87-.37,1.34-.56,1,1.44-.48,3.7,1.7,4.41.36-.76.64-1.35.93-1.95-.16.08-.32.16-.49.24-.46-1.21-.96-2.4-1.38-3.62-.46-1.35-.87-2.67-2.56-3.17-.13-.04-.26-.09-.39-.14h0c-.61-.24-1.18-.58-1.79-.81-.86-.33-1.75-.59-3.04-1.02-.06-.82-.16-2.11-.28-3.57-2.74.53-2.32-2.21-3.97-3.64,1.73.24,3.34,1.99,4.33-.77-2.09-.42-4.13-.84-6.16-1.25-.59.56-1.33.95-1.98.85-1.81-.3-3.59-.8-5.61-1.28,2.34-1.88,4.52-3.52,6.55-5.29,1.3-1.14,2.43-2.37,4.64-.69.07-1.16.11-1.93.16-2.78.9.04,1.8.08,3.14.14-.6.6-.84.88-1.12,1.12-.42.35-.87.67-1.3,1,.55.02,1.12.13,1.65.03,3.06-.59,5.53-3.2,9.03-2.31.17.04.75-.57.69-.69-.19-.4-.54-.98-.91-1.03-.69-.11-1.44.1-2.29.19-.01-.18-.04-.61-.05-.78h0c-.02-.26-.03-.5-.05-.68,1.4.19,2.68.35,3.97.52-.13-.2-.25-.41-.38-.62.85-.88,1.69-1.75,2.36-2.45-.25-.63-.93-1.54-.68-1.95.4-.67,1.41-1.02,2.29-1.59-1.38-.83-2.73-1.84-1.38-3.16.82-.8,2.42-.89,3.71-1.31.36.47.75.96,1.15,1.47.81-.76,1.5-1.43,2.21-2.09.14.12.29.24.43.36.32-.61.65-1.21.87-1.63-.77-.55-1.78-.92-1.91-1.47-.11-.46.73-1.2,1.27-1.7.57-.54,1.28-.95,1.94-1.41.22,1.5.44,3,.66,4.51.15-.02.3-.04.44-.06.06-.71.12-1.42.22-2.6.32.82.46,1.19.61,1.55.15,0,.3-.01.45-.02.06-.79.12-1.58.17-2.31.68-.37,1.33-.73,2.01-1.1-.16-.22-.31-.41-.43-.57-.08-.1-.16-.19-.23-.27-.3-.33-.52-.46-.76-.4-.08.03-.16.07-.26.14-.09.07-.19.16-.3.28-.12.13-.26.3-.42.49-.15.2-.33.43-.53.69-.25-.22-.5-.44-.76-.66-.01-.01-.03-.02-.04-.03-.24.1-.49.21-.74.31.24-.1.49-.21.73-.31.35-.29.69-.6,1.04-.9.34-.3.69-.59,1.06-.87,2.17-1.63,4.56-3.05,6.52-4.89,3.38-3.17,6.43-6.66,9.77-9.89,1.51-1.46,3.23-2.92,5.87-2.41-.11.33-.15.51-.22.68-.93,2.36-2.85,4.73.14,7.04.18.14.26.47.26.71.07,2.73.31,5.47.1,8.18-.19,2.4-.08,4.59,1.25,6.51.54-2.06,1.41-4.06,1.5-6.08.09-2.25-.59-4.53-.82-6.8-.13-1.26-.02-2.53-.02-3.8.28-.02.57-.03.85-.05.43,2.3.85,4.61,1.32,6.91.1.48.37.92.61,1.37.54,1,1.26,1.95,1.63,3,.81,2.3,1.48,4.64,2.15,6.98.18.63.16,1.31.23,1.98-.12.03-.23.06-.34.1-.51-.68-1.01-1.35-1.51-2.02-.23.1-.46.21-.69.31.44.89.81,1.82,1.34,2.66.91,1.42,2.36,2.67,2.8,4.19.75,2.61,2.71,4.03,4.72,5.42h2.43v-3.97c.13-.03.25-.05.38-.08.46,1.23.92,2.46,1.38,3.69.13-.04.27-.08.4-.12.11-1.22.22-2.44.31-3.49,4.69.24,4.33-2.79,4.16-5.94,2.12,2.9,1.97,3.83.38,6.17-.8,1.18-1.68,2.39-2.13,3.74h.02s-.02,0-.02,0c-.26.75-.38,1.56-.29,2.42.03.23-.04.64-.14.67-1.76.45-1.08,1.68-.89,2.64.16.85.47,1.68.78,2.57-.91-3.27,1.55-4.26,1.55-4.26,3.45-.81,5.48-3.57,6.35-5.08h.02c.07-.14.13-.26.18-.36,0,0,0,0,0,0h0c.12-.25.18-.4.18-.4.54-4.68,5.06-5.28,5.06-5.28,7.95-1.43,2.09-2.81,2.09-2.81,3.18.1,5.28,0,5.28,0,10.3,4.12,16.66,6.92,16.66,6.92-5.04-2.84-7.49-4.19-12.55-7-3.63-2.02-7.38-3.83-11.09-5.75,1-1.18,1.89-2.24,2.96-3.5-.55-.23-.98-.42-1.4-.6,3.43-1.28,4.21-4.06,5.54-6.45-1.01.45-2.07,1-2.47,1.83-.94,1.96-2.09,3.09-4.41,2.11.55-1.23,1.12-2.51,1.83-4.12-1.33.72-2.41,1.31-3.29,1.79,1.57,3.18-2.5,2.32-2.97,4.06,1.07.29,2.09.57,3.15.85.06,1.11.11,2.16.19,3.61-3.92-2.11-7.53-4.05-10.99-5.92,6.98-2.87,13.8-5.67,20.71-8.5.94,1.86,1.88,3.71,2.51,4.94,1.54.23,3,.06,3.72.66,1,.83,1.77,1.42,3.13,1.11.35-.08.83.08,1.16.27,2.62,1.55,5.2,3.16,7.83,4.68.52.3,1.59.62,1.75.43,1.5-1.73,2.59-.55,3.74.33,1.63,1.26,3.23,2.57,4.9,3.78,1.3.94,2.7,1.75,4.06,2.62.1-.12.19-.25.29-.37-.36-.55-.71-1.09-1.07-1.63.09-.14.17-.27.26-.41,1.85.53,3.72,1.02,5.55,1.61,1.02.33,1.99.81,2.99,1.21,1.92.76,3.79,1.63,5.76,2.24,3.95,1.23,7.94,2.32,11.92,3.46.05-.13.1-.26.16-.4-2.57-1.39-5.15-2.77-7.73-4.16.05-.07.1-.15.16-.23,2.5.45,4.99.89,7.49,1.33.07-.19.14-.38.21-.58-3.79-1.74-7.62-3.43-9.6-7.29.77.09,1.33.44,1.89.81.4.26.93.85,1.14.76,1.54-.68,2.13.62,2.14,1.3.02,1.76,1.43,1.66,2.48,2.26,1.58.9,2.49-.19,3.49-.81.48,1.11.88,2.06,1.29,3.02.32-.15.63-.3.94-.45-.43-.73-1.24-1.45-1.24-2.18-.02-3.07-2.8-3.67-4.79-4.01-2.23-.38-2.07-1.33-1.82-2.73-.75-.08-1.35-.15-1.95-.22-.29-.7-.56-1.35-.82-1.99h2.64c.01-.28.03-.56.04-.84-3.59-.22-7.18-.45-10.76-.68-.04-.18-.09-.37-.13-.55,3.19-.98,5-4.37,9.02-4.2.04-.32.09-.72.14-1.12h2.56c-.92.57-1.4.87-1.88,1.17,1.25.12,2.32-.18,3.4-.42,1.42-.32,2.86-.58,4.27-.91.5-.12.97-.39,1.45-.59-.44-.2-.87-.43-1.32-.58-.48-.16-1-.24-1.5-.35-.02-.3-.04-.6-.06-.9,2.67,2.02,3.69-.18,5.06-1.28-.23-.26-.57-.62-1-1.1.82-.43,1.5-.79,2.22-1.16-1.51-1.12-1.72-2.17-.53-2.43,1.17-.26,2.46-.06,4.1-.06.49-.33,1.34-.91,2.22-1.5-.76-.57-1.27-.95-1.99-1.49.3-.16.6-.32.88-.47.56-.3,1.08-.58,1.58-.85.25-.13.5-.27.74-.4.1.92.21,1.84.32,2.76.45-.27.34-.58.44-.67.75-.62,1.57-1.17,2.3-1.81.17-.15.2-.75.1-.8-.3-.14-.7-.2-1.04-.14-.32.05-.64.13-.95.22-.31.09-.63.18-.94.27.22-.13.44-.24.66-.37.86-.48,1.73-.95,2.6-1.43,1.08-.6,2.14-1.23,3.12-1.95,2.85-2.1,5.42-4.52,8.19-6.71,1.52-1.21,3.08-2.53,5.02-2.12-.19,1.49-1.04,3.37-.41,4.07,2.03,2.27,1.66,4.57,1.11,7.05-.37,1.68,0,2.79.9,3.58,2.36-3.19.81-6.84.81-10.45.78,1.09,1.15,2.22,1.49,3.35.17.6.17,1.27.45,1.82,1.29,2.67,2.65,5.31,3.99,7.95-.17.09-.35.18-.53.26-.53-.38-1.06-.75-1.59-1.13-.13.14-.26.27-.39.41,3.07,2.75,4.11,7.31,9.11,8.57v-3.5c.12-.01.25-.02.37-.03.35.71.69,1.42,1.26,2.6.18-1.26.28-1.98.32-2.28,1.21-.46,2.4-.58,2.97-1.2.58-.64.56-1.76.82-2.77,1.14,1.35,1.63,2.56,0,3.88-.65.53-1.36,1.27-1.5,2.01-.32,1.6-2.24,2.92-1.07,4.91,1.88-.46,3.43-1.16,4.39-2.79.88-1.48,2.29-1.94,4.1-2.07,2.91-.23,4,1.75,5.44,3.42.5.58,1.21,1.01,1.82,1.5-.55-2.13-1.43-3.87-2.08-5.68-.71-1.96-.07-3.9,1.52-4.25,1.45-.32,3.21-.48,4.53.02,3.87,1.43,7.63,3.15,11.36,4.89,3.54,1.65,6.84,3.88,10.52,5.13,8.66,2.95,26.86,9.22,43.25,14.35.03-.33.06-.67.08-1"/><rect class="cls-5" x="553.17" y="169.06" width="19.66" height="19.66"/><polygon class="cls-4" points="568.3 177.11 564.77 177.11 564.77 173.58 561.22 173.58 561.22 177.11 557.69 177.11 557.69 180.66 561.22 180.66 561.22 184.19 564.77 184.19 564.77 180.66 568.3 180.66 568.3 177.11"/></g><g class="cls-1"><path class="cls-5" d="m1059.88,224.67c-.08-.12-.16-.24-.25-.36,1.34-.82,2.67-1.63,4.01-2.45.11.15.22.3.33.46-1.36.78-2.73,1.57-4.09,2.35m-114.3,23.34c-.11-.11-.21-.22-.32-.33,1.77-1.4,3.2-3.27,5.57-3.86.09.12.19.24.27.36-1.84,1.27-3.68,2.55-5.53,3.82m-91.54,22.22c.85.78,1.62,1.64,2.26,2.68-3.18-1.46-6.37-2.91-9.54-4.38-1.74-.81-3.46-1.64-5.16-2.53h0s-.05-.02-.07-.04c-.56-.29-1.01-.79-1.6-1.26-.51.03-1.4.32-1.77.03-.48-.37-.54-1.21-.79-1.85.23-.09.45-.19.67-.27.27.45.55.9.96,1.59.23-.44.69-.94.58-1.17-.68-1.33-1.16-3.07-2.32-3.8-2.7-1.67-3.14-4.17-3.64-6.85,1.64,1.16,3.31,2.28,4.92,3.49,2.77,2.09,5.84,3.62,9.32,4.35,1.23.26,1.76.66,1.17,1.95-.27.6.02,1.43.06,2.35-1.92-.58-1.3-3.22-3.81-3.05.42.41.66.65.99.98-.2.21-.4.42-.61.64.12.15.17.29.24.3,1.43.12,2.16,1.02,2.79,2.08.1.17.24.36.39.53h0c.18.2.38.37.59.4,2.36.4,2.95,2.52,4.36,3.82m-21.19-11.1c-.54-1.81-1.06-3.55-1.58-5.29-.18.03-.36.05-.54.08-.06.39-.12.79-.21,1.35-.8-.53-1.47-.98-2.45-1.64.4,1.5.97,2.9-.49,3.89-.46-.62-.9-1.21-1.33-1.79-.17.13-.35.26-.52.39v3.4c-.16.1-.31.21-.47.32-1.2-.74-2.4-1.48-3.65-2.25.56-1.11,1.37-2.11.23-3.31-.38.31-.7.58-1.37,1.15-.06-1-.1-1.67-.14-2.36-.36.2-.82.38-1.16.67-.28.24-.62.64-.6.95.04.78.26,1.56.47,2.69-5.4-2.46-10.65-4.24-13.98-8.74-.13-.17-.28-.38-.4-.55-.51-.76-1.79-1.12-2.79-1.5-1.49-.58-3.05-1.02-4.77-1.59,2.29-1.69,4.27-3.15,6.25-4.62,2.29-1.7,4.55-3.43,6.85-5.13.49-.36,1.05-.72,1.64-.9.81-.25,1.68-.32,2.53-.47.14.91.57,1.88.37,2.71-.31,1.27-.29,1.57,1.32,1.83,1.58.25,3.47.32,4.71,1.83.87,1.05,2.21,1.76,3.24,2.71.08.08.15.17.2.28.15.32.2.74.32,1.09h0s-.01,0-.02,0c.56,1.44,1.19,3.15,1.77,4.58h0c.03.08.07.17.1.25.47,1.14,1.05,2.24,1.58,3.35.16-.03.31-.06.47-.08.06-.64.12-1.28.17-1.9,1.32.53,2.63,1.06,4.03,1.62-.12.42-.37.89-.36,1.36.02.77-.08,1.9.39,2.23,1.76,1.23.65,2.26.18,3.43m-54.74-16.24c-.5-1.73-1.02-3.49-1.53-5.25-.12,0-.25.02-.37.03-.08.38-.16.75-.31,1.43-.81-.52-1.5-.96-2.1-1.36-.11,1.13-.23,2.36-.35,3.6-.26.1-.51.21-.77.31-.38-.71-.77-1.42-1.15-2.13-.2.13-.4.25-.61.38v3.38c-.14.11-.28.22-.43.32-1.14-.72-2.28-1.43-3.37-2.11.16-.7.32-1.22.38-1.76.05-.45-.02-.91-.03-1.36-.51.11-1.01.21-1.7.36v-1.9c-.48.25-.98.44-1.37.75-.25.19-.51.79-.47.81,1.17.77-.36,1.68.25,2.51-5.31-2.12-10.6-4.05-14.03-8.71-.62-.83-1.86-1.35-2.91-1.79-1.47-.61-3.03-1.01-4.57-1.79,6.08-3.27,9.98-9.22,17.26-11.49v4.76c1.4.32,2.93.67,4.46,1.01.26.06.58,0,.77.14,2.91,2.05,5.23,4.43,5.94,8.01.37,1.83,1.38,3.55,2.1,5.33.24-.06.49-.12.73-.19-.06-.67-.12-1.34-.17-1.88,1.2.41,2.43.79,3.63,1.26.23.09.5.62.41.8-.65,1.38-.26,2.58.6,3.72.79,1.05.43,1.97-.28,2.79m390.58-3.67c-13.44-4.31-31.36-10.46-36.93-13.18-7.83-3.81-16.01-6.99-23.97-10.57-5.54-2.49-11.31-4.57-15.76-8.9-2.5-2.43-4.34-2.36-7.37-.34-1.73,1.15-3.22,2.61-4.85,3.89-1.38,1.09-2.75,2.22-4.25,3.16-6.44,4.03-13.05,7.82-19.36,12.03-4.62,3.08-9.28,5.99-14.5,8.06-1.5.59-2.98.58-4.47-.09-2.63-1.2-5.27-2.38-7.92-3.54-2.01-.88-4.08-1.62-6.04-2.58-1.92-.95-3.73-2.11-5.59-3.16-1.05-.59-2.01-.48-3.14.05-4.62,2.16-9.28,4.24-13.97,6.26-.67.29-1.77.36-2.35.03-4.89-2.75-9.66-5.62-13.04-10.15-2.06-2.76-4.88-3.16-7.62-1.27-1.66,1.15-3.16,2.53-4.56,3.95-3.13,3.17-5.83,6.7-9.98,8.95-2.32,1.26-4.27,3.1-6.36,4.72-3.9,3.02-7.82,6.01-11.65,9.1-1.07.87-2.11,1.76-3.15,2.67h0c-2.29,2-4.91,4.31-7.39,6.07-3.71,2.62-7.84,4.73-11.82,7.01-1.28.73-2.66.52-3.95-.13-.84-.43-1.65-.9-2.49-1.34-2.77-1.46-5.55-2.91-8.32-4.36-2.07-1.09-4.24-2.04-6.2-3.27-1.85-1.16-3.63-2.42-5.41-3.67h0c-1.02-.72-2.04-1.43-3.08-2.14-.81-.55-1.56-.42-2.45.12-1.12.67-2.24,1.35-3.36,2.01h0c-4.98,2.95-10.06,5.74-15.73,7.5-3.71,1.16-7.27,2.84-11.27,2.95-2.81.08-5.62-.06-8.42-.03-3.86.03-7.28-1.19-10.45-3.15-3.2-1.98-5.86-4.47-8.38-7.09-2.22-2.34-4.6-5.05-6.87-7.33-3.01-3.02-6.33-5.76-9.61-8.53-1.49-1.26-3.31-1.21-5.07-.35-.85.42-1.74.8-2.48,1.36-3.25,2.42-6.34,5.03-9.68,7.32-5.03,3.44-5.71,3.23-9.73.58-1.93-1.28-3.82-2.74-5.5-4.22-4.68-4.12-8.82-8.79-13.31-13.11-2.81-2.71-5.82-5.26-8.86-7.76-1.48-1.21-3.36-1.32-5.07-.36-1.81,1.02-3.59,2.12-5.27,3.33-3,2.14-5.89,4.42-8.87,6.59-2.25,1.64-4.69,1.78-6.81-.06-3.47-3.01-6.7-6.27-10.16-9.29-2.21-1.92-4.49-3.88-7.07-5.27-1.96-1.05-3.92-1.96-5.39-3.58-1.31-1.44-2.58-2.92-3.78-4.44-2.17-2.74-4.66-5.02-8.29-6.01-1.46-.4-2.91-.96-4.23-1.67-2.71-1.46-5.33-3.07-8-4.61-2.18-1.26-4.39-1.24-6.59-.03-.78.42-1.58.84-2.29,1.37-5.92,4.4-11.77,8.87-17.74,13.22-1.91,1.39-3.92,2.93-6.16,3.61-5.82,1.78-11.76,3.26-17.73,4.58-4.83,1.07-9.25,2.68-13.22,5.57-1.84,1.34-4.09,2.35-6.32,3.01-6.34,1.9-12.78,3.54-19.17,5.29-3.26.89-6.52,1.81-9.77,2.72,0,.05-.01.11-.03.16.29.13.56.14.81.09,7.75-1.78,15.47-3.66,23.25-5.32,5.35-1.14,10.32-2.83,14.68-6.12,1.76-1.32,4.05-2.19,6.25-2.81,5.51-1.56,11.12-2.81,16.67-4.28,2.68-.71,5.53-1.29,7.88-2.59,3.04-1.68,5.68-4.01,8.47-6.08,1.69-1.26,3.34-2.56,5.08-3.9.32,2.28-1.44,4.33-3.82,4.87-.79.18-1.47.78-2.21,1.18.09.08.19.16.28.23,2.32.12,4.64.25,6.97.37.15-.27.3-.53.45-.8-.83-.43-1.65-.86-2.82-1.47,3.01-1.68,5.45-3.04,7.88-4.4-.11-.19-.22-.39-.33-.58-1.28.55-2.55,1.1-4.14,1.78,1.19-1.46-.18-1.76-.78-2.41,3.6-2.41,6.75-5.4,11.19-6.73.42,4.33,1.62,8.2,5.49,11.15-.35-1.41-.64-2.59-.94-3.77.96.93,1.48,2.02,2.21,2.98.64.84.9,2.28,2.43,1.88,1.32,3.22,2.73,6.38,3.91,9.63,1.27,3.47,2.42,6.98,3.41,10.53.4,1.42.21,2.98.3,4.86-1.13-1.11-1.94-1.91-3.02-2.97.38,2.8.69,5.16,1.04,7.51.03.22.3.4.43.61.7,1.1,1.62,2.14,2.05,3.33,1.2,3.33,3.3,6.13,5.59,8.82.64.75,1.53,1.33,2.58,2.16h.21c-1.61-4.05-3.06-7.7-4.51-11.36.15-.07.3-.13.45-.2,1.36,1.39,2.68,2.81,4.09,4.15.89.85,1.86,1.64,2.9,2.32.38.25,1.12.22,1.59.06.19-.06.25-.9.09-1.29-.9-2.29-1.92-4.53-2.83-6.82-.41-1.03-.67-2.11-1.07-3.39,2.45.55,3.05,3.39,5.63,2.93,2.58,1.94,5.25,3.78,7.7,5.84,1.94,1.63,3.62,3.53,5.43,5.3.21.21.52.32,1.02.62-.19-.69-.3-1.09-.41-1.49.14-.09.27-.18.41-.27.91,1.03,1.84,2.05,2.72,3.1.14.17.29.34.43.51h0c2.26,2.64,4.7,5.03,8.73,5.12-.12-.1-.3-.2-.41-.34-.37-.49-.73-1-1.09-1.49.58,0,1.16-.04,1.73.02,1.15.12,1.71-.33,1.31-1.36-.25-.66-.54-1.3-.84-1.94h0c-.31-.65-.63-1.3-.93-1.95,1.6-.69,3.5.97,5.24-.55-1.12-.97-2.14-1.91-3.21-2.79-2.22-1.83-4.29-3.75-5.58-6.3-.89-1.76-.32-2.84,1.74-3.24.35-.07.71-.08,1.32-.15-.25-.95-.47-1.77-.71-2.64.15.05.32.05.42.14,3.65,3.23,7.63,6.05,12.01,8.37.21.11.54.35.52.49-.24,1.61,1.03,2.47,2.04,3.3.76.63,1.92.83,3.01,1.25-.04-.47-.07-.78-.14-1.54,1.09.81,1.87,1.39,2.8,2.08-.27-2.05-2.62-1.8-3.73-3.27.87.36,1.4.56,1.91.81,4.15,1.98,7.97,4.63,12.63,5.57.69.14,1.64.14,2.17-.2,2.3-1.48,4.49-3.11,6.83-4.77-3.01-1.58-3.57-4.25-4.02-7.04,2.18,2.19,5.92,2.79,6.87,6.21.09.31.44.55.64.84,1.27,1.78,2.84,3.52,3.79,5.43.03.07.07.13.1.2.84,1.84,2.11,2.86,4.05,3.58-.25-1.49.66-2.27,1.99-2.37,1.44-.11,1.49-.68,1.26-1.4h0s0-.01,0-.02c0-.01,0-.03-.01-.04h0c-.06-.18-.15-.4-.22-.58-.12-.31-.25-.62-.38-.94.7.51,1.44,1.06,2.14,1.57,2.04,1.5,4.05,2.98,6.08,4.44,2.02,1.46,4.7,2.19,5.56,4.88.58,1.81,2.54,2,4.09,2.63.07.03.19-.05.34-.1-.07-.3-.14-.6-.22-.9.1-.08.2-.17.3-.25.8.61,1.6,1.23,2.48,1.91-.05-1.91-2.15-1.75-2.97-2.82,1.45.51,2.8,1.15,4.17,1.76,2.95,1.32,5.92,2.61,8.88,3.92,1.58.7,3.32,1.05,4.86,1.88h0c.53.29,1.03.63,1.5,1.06,1.18,1.09,2.84,1.92,4.45,2.37,3.57,1,7.26,1.8,10.25,3.93,3.01,2.14,6.43,3.19,9.9,4.27,1.19.37,1.72.06,2.53.89,1.99,2.04.89,1.12,3.51,1.95.55.18,1.2.08,1.81.07,2-.04,4.37.02,6.36.08,2.24.07,3.54-.2,5.77-.03.73-.11,1.09.02,1.17-.23-2.75-1.29-1.38-.27-4.25-1.62.34-.3.6-.54.85-.76-.7-.6-1.81-1.1-1.85-1.66-.1-1.42-.61-2.43-2.16-2.99.07-.11.14-.23.22-.34,1.01-.25,2.03-.5,3.66-.9-2.41-1.27-3.83-2.73-3.33-5.07.07-.34.17-.68.26-1.02.03-.09.04-.18.07-.26.23-.75.71-1.51.65-2.23-.1-1.44-.49-2.87-.85-4.73-.47.95-.94,1.58-1.08,2.28-.35,1.64-.51,3.31-.82,4.95h0s-.01.06-.02.1c-.2,1.01-.69,1.99-.81,3.01-.14,1.22-.03,2.47-.03,4.21-2.4-1.23-4.31-2.22-6.23-3.2.01-.21.03-.41.05-.61.87-.18,1.73-.36,2.83-.59.16-.95.33-1.96.49-2.92h0c.08-.5.17-.99.24-1.45-2.23-.62-4.18-1.17-6.18-1.73v.79c-.92.27-1.75.52-2.79.83-.48-.34-1.22-.86-2.08-1.47-.26,1.51-1.05,1.3-1.87.69-.54-.4-1.34-.88-1.39-1.39-.13-1.24-.68-1.33-1.72-1.01-.18.06-.46-.17-.7-.27,15.16,1.25,27.44-5.26,39.68-12.36h0c.44-.26.89-.51,1.33-.77.11.26.21.51.31.77h0c.85,2.11,1.68,4.16,2.51,6.2,1.81-1.56,3.3-1.07,4.39,1.52,1.62-.57,3.1-.53,4.07,1.11.08.13.38.13.55.23,1.16.65,2.39,1.22,3.45,2,1.04.77,1.84,1.82,2.86,2.61.3.23,1.36.18,1.49-.04.82-1.42,1.68-.94,2.52-.14,1.24,1.17,2.45,2.37,3.67,3.55h0c.07.07.15.14.22.22.05.05.09.09.14.14h0c.64.61,1.44,1.38,2.01,1.89,1.06.96,2.32,1.71,3.49,2.56.12-.12.24-.24.36-.36-.49-.69-.97-1.39-1.53-2.18,2.44.03,4.45.47,6.27,1.8.96.7,2.3.94,3.44,1.45,1.18.52,2.36,1.06,3.47,1.69,1.27.71,2.36,1.83,3.72,2.25,3.16,1,6.42,1.69,9.41,2.45-2.59-1.7-5.44-3.57-8.28-5.44.04-.05.08-.11.13-.16,2.52.52,5.03,1.04,7.55,1.56.1-.18.21-.35.31-.53-3.36-1.85-6.89-4.07-8.97-7.19-.3-.49-.58-1-.82-1.55.56-.13,1-.24,1.46-.35.4.73.79,1.42,1.18,2.12h.73c.21-.16.39-.3.59-.44.14.15.28.3.41.44h0c.86.93,1.58,1.83.92,3.26.85.33,1.71.65,2.55.98.9.36,1.93,1.34,2.31-.52.04-.2.67-.29,1.04-.43.78,1.12-.38,2.88,1.32,3.44.28-.59.5-1.05.72-1.51-.13.06-.25.12-.38.19-.36-.94-.75-1.87-1.07-2.82-.36-1.05-.68-2.08-1.99-2.47-.1-.03-.2-.07-.3-.11h0c-.47-.18-.92-.45-1.39-.63-.67-.25-1.36-.46-2.37-.79-.05-.64-.13-1.64-.21-2.78-2.14.42-1.81-1.72-3.09-2.83,1.35.19,2.6,1.55,3.37-.6-1.62-.33-3.21-.65-4.8-.97-.46.44-1.04.74-1.54.66-1.41-.23-2.79-.62-4.37-1,1.82-1.46,3.51-2.74,5.1-4.12,1.01-.88,1.89-1.84,3.61-.54.05-.9.09-1.5.12-2.16.7.03,1.4.06,2.45.11-.47.47-.66.69-.87.87-.33.27-.67.52-1.01.78.43.01.88.1,1.29.03,2.38-.46,4.3-2.49,7.03-1.8.13.03.58-.44.54-.54-.15-.31-.42-.76-.71-.8-.54-.08-1.12.08-1.78.15,0-.14-.03-.48-.04-.61h0c-.01-.2-.03-.39-.04-.53,1.09.14,2.09.27,3.09.41-.1-.16-.2-.32-.29-.48.66-.68,1.32-1.36,1.84-1.91-.19-.49-.72-1.2-.53-1.52.31-.52,1.1-.8,1.78-1.24-1.08-.64-2.13-1.43-1.07-2.46.64-.62,1.88-.69,2.88-1.02.28.36.58.75.89,1.15.63-.59,1.17-1.11,1.72-1.63.11.09.23.19.34.28.25-.47.5-.95.67-1.27-.6-.43-1.38-.71-1.49-1.14-.09-.36.57-.93.99-1.33.44-.42,1-.74,1.51-1.1.17,1.17.34,2.34.51,3.51.12-.01.23-.03.34-.04.05-.55.09-1.1.17-2.03.25.64.36.93.47,1.21.12,0,.24,0,.35-.01.05-.62.09-1.23.14-1.8.53-.29,1.04-.57,1.56-.86-.13-.17-.24-.32-.34-.44-.06-.08-.12-.15-.18-.21-.23-.26-.4-.36-.59-.31-.06.02-.13.05-.2.11-.07.06-.14.12-.23.21-.1.1-.2.23-.32.38-.12.15-.25.33-.41.54-.2-.17-.39-.34-.59-.51,0,0-.02-.02-.03-.03-.19.08-.38.16-.57.24.19-.08.38-.16.57-.24.27-.23.54-.47.81-.7.27-.23.54-.46.82-.67,1.69-1.27,3.55-2.38,5.07-3.81,2.63-2.47,5.01-5.19,7.6-7.7,1.18-1.14,2.51-2.27,4.57-1.88-.08.26-.12.4-.17.53-.73,1.84-2.22,3.68.11,5.48.14.11.2.36.2.56.05,2.12.24,4.26.08,6.37-.14,1.87-.06,3.58.97,5.06.42-1.61,1.1-3.16,1.17-4.73.07-1.75-.46-3.52-.64-5.29-.1-.98-.02-1.97-.02-2.96.22-.01.44-.03.66-.04.34,1.79.66,3.59,1.03,5.38.08.37.29.72.47,1.06.42.78.98,1.51,1.27,2.33.63,1.79,1.15,3.62,1.67,5.44.14.49.12,1.02.18,1.54-.09.03-.18.05-.27.08-.39-.53-.78-1.05-1.17-1.58-.18.08-.36.16-.54.25.34.69.63,1.42,1.05,2.07.71,1.11,1.84,2.08,2.18,3.26.59,2.03,2.11,3.14,3.68,4.22h1.89v-3.09c.1-.02.2-.04.29-.06.36.96.72,1.92,1.08,2.88.1-.03.21-.06.31-.09.08-.95.17-1.9.24-2.72,3.65.19,3.37-2.17,3.24-4.62,1.65,2.25,1.53,2.98.29,4.8-.62.92-1.31,1.86-1.66,2.91h.02s-.02,0-.02,0c-.2.59-.3,1.21-.22,1.89.02.18-.03.5-.11.52-1.37.35-.84,1.31-.7,2.05.13.66.36,1.31.61,2-.71-2.55,1.21-3.32,1.21-3.32,2.69-.63,4.27-2.78,4.94-3.96h.02c.06-.11.1-.2.14-.28,0,0,0,0,0,0h0c.09-.19.14-.31.14-.31.42-3.64,3.94-4.11,3.94-4.11,6.18-1.12,1.63-2.18,1.63-2.18,2.47.08,4.11,0,4.11,0,8.02,3.2,12.97,5.39,12.97,5.39-3.92-2.21-5.83-3.26-9.77-5.45-2.82-1.57-5.74-2.98-8.64-4.48.78-.92,1.47-1.75,2.3-2.72-.43-.18-.76-.32-1.09-.47,2.67-.99,3.27-3.16,4.31-5.02-.79.35-1.61.78-1.92,1.42-.73,1.52-1.63,2.4-3.43,1.64.43-.96.87-1.95,1.43-3.21-1.04.56-1.87,1.02-2.56,1.39,1.22,2.48-1.94,1.8-2.31,3.16.83.23,1.62.44,2.45.66.04.86.09,1.68.14,2.81-3.05-1.64-5.86-3.16-8.55-4.61,5.44-2.23,10.74-4.41,16.12-6.62.73,1.45,1.46,2.88,1.95,3.85,1.2.18,2.33.05,2.89.51.77.65,1.38,1.1,2.43.86.27-.06.65.06.9.21,2.04,1.21,4.05,2.46,6.09,3.64.4.23,1.24.49,1.36.34,1.16-1.35,2.01-.43,2.91.26,1.27.98,2.51,2,3.81,2.94,1.01.73,2.1,1.36,3.16,2.04.08-.1.15-.19.23-.29-.28-.42-.55-.85-.83-1.27.07-.11.14-.21.2-.32,1.44.41,2.89.8,4.32,1.25.79.25,1.55.63,2.33.94,1.49.59,2.95,1.27,4.48,1.74,3.07.96,6.18,1.8,9.28,2.69.04-.1.08-.21.12-.31-2-1.08-4.01-2.16-6.01-3.23.04-.06.08-.12.12-.18,1.95.35,3.89.69,5.83,1.04.06-.15.11-.3.16-.45-2.95-1.35-5.93-2.67-7.47-5.68.6.07,1.04.34,1.47.63.31.2.73.66.89.59,1.2-.53,1.66.49,1.66,1.01.02,1.37,1.12,1.29,1.93,1.76,1.23.7,1.94-.14,2.71-.63.37.86.69,1.6,1.01,2.35.25-.12.49-.23.73-.35-.34-.57-.96-1.13-.97-1.7-.02-2.39-2.18-2.86-3.72-3.12-1.73-.3-1.61-1.03-1.42-2.13-.59-.06-1.05-.12-1.52-.17-.23-.54-.43-1.05-.64-1.55h2.05c.01-.22.02-.43.03-.65-2.79-.17-5.59-.35-8.38-.53-.03-.14-.07-.29-.1-.43,2.48-.76,3.9-3.4,7.02-3.27.03-.25.07-.56.11-.87h1.99c-.71.44-1.09.68-1.46.91.97.1,1.8-.14,2.65-.33,1.1-.25,2.22-.45,3.32-.71.39-.1.75-.3,1.13-.46-.34-.15-.67-.34-1.03-.45-.38-.12-.78-.19-1.17-.27-.02-.23-.03-.47-.05-.7,2.08,1.57,2.87-.14,3.94-1-.18-.2-.44-.49-.78-.86.64-.34,1.16-.61,1.73-.9-1.18-.88-1.34-1.69-.41-1.89.91-.2,1.92-.04,3.19-.04.38-.25,1.05-.71,1.73-1.17-.59-.44-.99-.74-1.55-1.16.24-.13.47-.25.68-.37.44-.24.84-.45,1.23-.66.19-.1.39-.21.58-.31.08.72.16,1.43.25,2.15.35-.21.26-.45.34-.52.58-.49,1.22-.91,1.79-1.41.13-.12.16-.59.08-.62-.23-.11-.55-.16-.81-.11-.25.04-.5.1-.74.17-.24.07-.49.14-.73.21.17-.1.34-.19.51-.28.67-.37,1.35-.74,2.02-1.11.84-.47,1.67-.95,2.43-1.52,2.22-1.63,4.22-3.51,6.38-5.23,1.18-.94,2.4-1.97,3.91-1.65-.15,1.16-.81,2.62-.32,3.17,1.58,1.77,1.29,3.56.87,5.49-.29,1.31,0,2.17.7,2.79,1.84-2.49.63-5.32.63-8.13.61.85.9,1.73,1.16,2.6.14.47.14.99.35,1.42,1.01,2.07,2.06,4.13,3.1,6.19-.14.07-.27.14-.41.21-.41-.29-.83-.59-1.24-.88-.1.11-.21.21-.31.32,2.39,2.14,3.2,5.69,7.09,6.67v-2.73c.1,0,.19-.01.29-.02.27.56.54,1.11.98,2.03.14-.98.22-1.54.25-1.78.94-.36,1.87-.45,2.31-.94.45-.5.43-1.37.64-2.15.89,1.05,1.27,1.99,0,3.02-.51.41-1.06.99-1.17,1.56-.25,1.25-1.74,2.27-.84,3.82,1.47-.36,2.67-.9,3.42-2.17.68-1.16,1.79-1.51,3.19-1.61,2.27-.18,3.11,1.36,4.23,2.66.39.45.94.78,1.42,1.17-.43-1.66-1.11-3.01-1.62-4.42-.55-1.53-.06-3.03,1.19-3.31,1.13-.25,2.5-.37,3.53.01,3.01,1.11,5.94,2.45,8.84,3.8,2.76,1.29,5.32,3.02,8.19,3.99,6.74,2.3,20.91,7.17,33.67,11.17.03-.26.05-.52.07-.78"/></g></svg>