<?xml version="1.0" encoding="UTF-8"?><svg id="Layer_1" xmlns="http://www.w3.org/2000/svg" viewBox="0 0 200 199.67"><defs><style>.cls-1{fill:#8f8f8f;}</style></defs><g><path class="cls-1" d="M120.78,165.62l.07,.04c-4.12,1.81-8.31,3.25-12.52,4.35-44.62,11.8-92.11-14.01-105.12-60.52C-1.54,92.56-.93,75.74,4.47,59.05c.76-2.3,2.31-3.36,4.04-2.74,1.86,.65,2.43,2.33,1.66,4.75-8.65,27.66-4.33,53.26,13.76,75.79,17.67,22.01,41.23,31.91,69.51,29.94,3.23-.22,6.43-.72,9.58-1.43,4.06-.92,8.08-2.21,12.09-3.78,0,0,3.61,1.5,10.5,1.88-2.35,1.07-4.83,2.15-4.83,2.15Z"/><path class="cls-1" d="M170.91,102.98c-1.17,6.15-3.05,12.19-5.7,18.11,0,0-.05,.1-.13,.28-.04,.08-.09,.17-.13,.28-.42,.84-1.24,2.52-2.1,4.12-.75-5.36-2.3-9.92-2.3-9.92,.81-1.73,1.54-3.58,2.19-5.51,1.24-3.68,2.18-7.69,2.77-11.92,2.38-16.64-.43-36.63-10.55-52.69-.6,.29-1.23,.58-1.86,.89-9.5,4.72-19.36,6.19-29.76,3.63-4.31-1.05-7.13-3.42-8.04-7.94-.15-.78-1.03-1.9-1.71-2.02-5.92-1-11.9-2.06-17.83-.41-1.98,.55-3.8,1.74-5.63,2.74-1.03,.56-1.19,1.49-.55,2.52,3.66,5.96,5.23,12.46,5.03,19.42-.06,1.73,1.02,2.79,2.28,3.71,8.63,6.32,18.24,8.58,28.78,7.07,1.11-.16,2.23-.3,3.34-.32,3.26-.06,5.04,1.42,5.56,4.67,.25,1.54,.47,3.08,.68,4.63,.14,1.06,.28,2.13,.4,3.2,.1,.81-.09,1.58-.48,2.19-1.78-.57-3.61-1-5.49-1.29-.3-1.74-.51-3.49-.74-5.3-.07-.58-.14-1.18-.22-1.77-1.59,.19-3,.38-4.44,.54-11.08,1.14-21.16-1.54-30.26-8-3.52-2.51-5.46-5.75-5.4-10.17,.07-5.04-1.26-9.74-3.58-14.23-3.21-6.2-2.24-9.31,3.78-12.89,5.62-3.34,11.81-3.44,18.04-2.96,2.69,.2,5.39,.55,8,1.16,3.31,.78,5.74,2.78,6.28,6.33,.36,2.37,1.8,3.37,3.89,3.82,9.42,2.06,18.32,.74,27-4.11-8.46-12.24-19.38-21.34-32.85-27.33-16.16-7.18-32.91-8.78-50.33-4.85,1.03,1.19,1.99,2.17,2.83,3.25,4.94,6.41,4.97,14.42,.07,20.86-1.23,1.63-2.58,3.17-3.85,4.77-2.79,3.54-3.32,7.36-1.36,11.47,.63,1.31,1.33,2.58,1.89,3.91,2.01,4.74,1.2,9.27-2.78,12.52-2.57,2.08-5.58,3.72-8.58,5.18-6.03,2.95-9.93,7.45-11.31,14.08-.3,1.42-.75,2.81-1.3,4.14-2.38,5.72-8.26,7.41-13.3,3.78-4.26-3.06-6.13-7.61-7.37-12.49-.22-.89-.39-1.82-.44-2.73-.09-1.71,1.12-3.24,2.62-3.47,1.37-.22,2.77,.91,3.25,2.61,.56,2.02,.9,4.15,1.76,6.04,.82,1.82,1.97,3.61,3.39,5,1.87,1.84,3.81,1.2,4.73-1.26,.6-1.6,1.08-3.25,1.54-4.9,2.08-7.37,6.64-12.59,13.51-15.89,2.13-1.03,4.26-2.11,6.24-3.39,3.24-2.09,3.75-4.04,2.23-7.58-.62-1.45-1.36-2.85-1.96-4.31-2.19-5.34-1.78-10.46,1.49-15.23,1.38-2.01,3.02-3.83,4.51-5.75,3.94-5.07,3.47-10.86-1.24-15.17-.73-.67-1.56-1.22-2.28-1.9-1.47-1.39-3.03-1.52-4.89-.76-2.46,1.01-4.09,.51-4.82-1.27-.74-1.77,.2-3.39,2.66-4.26,29.73-10.52,57.47-6.59,82.64,12.36,18.17,13.67,28.98,32.22,32.49,54.7,1.6,10.2,1.55,20.24-.32,30.03Z"/><path class="cls-1" d="M26.2,0c15.44,.29,27.96,13.98,26.04,28.82-.64,4.91-2.88,9.29-5.2,13.58-5.13,9.49-11.53,18.11-18.24,26.52-1.64,2.05-3.67,1.98-5.4-.4-5.22-7.19-10.48-14.38-15.41-21.78-2.28-3.43-3.95-7.28-5.72-11.03C-4.3,21.82,4.45,5.54,18.47,1.48c2.51-.73,5.15-1,7.73-1.48Zm.04,62.62c6.68-8.98,13.23-17.67,17.84-27.61,1.54-3.31,2.77-6.7,2.29-10.47-1.05-8.37-5.49-14.24-13.38-17.05-8.08-2.89-15.47-1.07-21.36,5.13-5.65,5.95-7.29,12.97-3.94,20.77,4.58,10.63,11.52,19.76,18.56,29.23Z"/><path class="cls-1" d="M55.34,108.91c-.08,4.58,1.65,8.69,3.82,12.53,3.46,6.13,7.26,12.07,11.1,18.39,4.55-4.88,10.01-3.87,15.4-3.28,.1,0,.19,.02,.29,.04,.5,.06,.98,.13,1.47,.21,1.79,.3,3.04,1.65,2.83,3.21-.18,1.36-.92,2.23-2.03,2.55-.33,.1-.7,.14-1.09,.13-1.9-.02-3.81-.26-5.69-.55-2.95-.45-5.49-.14-7.76,2.21-2.48,2.56-5.77,2.37-7.66-.47-5.72-8.53-11.5-17.04-15.19-26.73-1.26-3.33-2.08-6.81-1.49-10.44,.91-5.55,6.04-9.26,11.55-8.09,2.23,.47,4.45,1.31,6.44,2.4,5.36,2.93,10.99,4.31,17.1,3.81,1.24-.11,2.5-.14,3.75-.11,.79,.02,1.59,.07,2.37,.15,1.24,.12,2.18,.68,2.68,1.45-.78,1.42-1.48,2.9-2.08,4.43-1.84,0-3.68,.05-5.53,.06-3.09,.03-6.17-.02-9.19-.46-3.76-.55-7.33-2.41-10.97-3.71-1.66-.6-3.26-1.46-4.97-1.86-2.9-.67-5.1,1.17-5.14,4.13Z"/><path class="cls-1" d="M13.77,25.23c.03-7.05,5.52-12.44,12.61-12.38,6.83,.06,12.41,5.71,12.38,12.53-.03,6.77-5.72,12.45-12.5,12.47-6.89,.02-12.52-5.67-12.5-12.61Zm12.44,6.32c3.57,.02,6.58-2.95,6.6-6.49,.02-3.53-2.99-6.56-6.53-6.58-3.59-.02-6.54,2.91-6.55,6.51-.01,3.62,2.88,6.55,6.48,6.57Z"/></g><g><path class="cls-1" d="M197.67,180.47c-4.11-3.7-7.93-7.73-11.83-11.67l-.14-.14-6.88-6.76c-2.31-2.37-4.42-4.47-6.45-6.62-1.9-2.02-4.12-3.07-6.95-2.78-.47,.05-1.1-.17-1.45-.5-1.95-1.8-3.84-3.67-5.87-5.62,3.79-5.8,6.01-11.98,6.74-18.67,0,0,.21-2.93,.11-6.06-.05-1.6-.18-3.24-.46-4.59,0-.03-.02-.06-.02-.09-.52-2.24-1.03-4.47-1.74-6.63-.08-.26-.16-.52-.25-.77-2.79-7.98-7.76-14.33-14.57-19.15-.06-.04-.11-.08-.17-.11,0,0,0,0,0,0-.47-.33-.94-.64-1.42-.95-.19-.13-.38-.26-.55-.4h0c-3.44-2.13-7.71-3.78-8.02-3.9h-.02c-.83-.27-1.66-.51-2.49-.72-2.12-.56-4.22-.96-6.3-1.2-8.65-1-17,.7-25.17,5.2,0,0-4.65,3.11-7.59,5.8,0,0-.02,.02-.03,.03-.54,.52-1.05,1.03-1.54,1.57-2.6,2.76-4.73,5.76-6.42,8.99-1.02,1.94-1.87,3.98-2.55,6.09-.99,3.01-1.65,6.21-1.99,9.55,0,.12-.06,.24-.12,.49,0,0-.14,6.38,1.22,11.68,0,.03,0,.05,.02,.08,.1,.33,.18,.65,.28,.97,.02,.1,.06,.19,.09,.29,.03,.1,.06,.19,.08,.28,.24,.82,.49,1.64,.76,2.45,.43,1.36,.9,2.69,1.42,4.01,.27,.67,.55,1.33,.86,1.97,1.87,3.87,4.55,7.25,7.68,10.26,0,0,.03,.02,.07,.05,.56,.5,4.67,4.11,7.81,5.97,.05,.03,.11,.06,.15,.09,.34,.18,.68,.36,1.01,.54,.12,.06,.25,.12,.38,.19,2.38,1.2,4.77,2.17,7.19,2.9h0c3.7,1.14,7.43,1.71,11.25,1.74,3.83,.04,7.74-.48,11.72-1.55,0,0,.02,0,.04,0,0,0,.02,0,.03,0,.02,0,.06-.02,.09-.03,.93-.33,5.75-2.01,9.71-4.13,.43-.44,1-.77,1.77-1.02,1.83,1.86,3.76,3.77,5.61,5.76,.32,.33,.44,.99,.41,1.48-.21,2.67,.74,4.83,2.62,6.67,2.26,2.21,4.48,4.45,6.7,6.67l2.51,2.52,5.77,5.78,2.6,2.6c2.73,2.73,5.45,5.47,8.2,8.18,3.36,3.31,7.7,3.31,11.09,.03,1.69-1.64,3.19-3.51,5.03-4.96,3.2-2.52,3.02-9.07,0-11.78Zm-73.37-21.33c-19.63,0-35.57-15.98-35.54-35.64,0-4.48,.85-8.79,2.39-12.74,.59-1.53,1.29-3.01,2.08-4.43,6.08-10.9,17.73-18.29,31.07-18.29,1.83,0,3.61,.13,5.36,.4,1.88,.29,3.71,.72,5.49,1.29,14.32,4.6,24.71,18.07,24.68,33.95-.03,19.54-15.98,35.46-35.53,35.46Zm27.19-5.09c1-.97,2.2-2.13,3.27-3.17,1.54,1.58,3.16,3.23,4.89,5.01-.94,.78-2.25,1.89-3.41,2.89-1.39-1.38-3.06-3.05-4.74-4.73Zm42.75,34.19c-1.71,1.79-3.47,3.54-5.26,5.25-1.27,1.22-2.51,1.25-3.74,.02-8.69-8.65-17.36-17.34-26.03-26.02-1.18-1.17-1.2-2.41-.05-3.6,1.79-1.82,3.58-3.61,5.4-5.37,.47-.44,1.13-.68,1.84-1.09,.68,.42,1.39,.71,1.88,1.2,8.64,8.62,17.29,17.24,25.9,25.9,1.32,1.31,1.32,2.4,.06,3.72Z"/><path class="cls-1" d="M124.35,155.24c-17.5,.02-31.76-14.18-31.76-31.64,0-17.46,14.24-31.68,31.74-31.66,17.48,.01,31.74,14.29,31.67,31.73-.07,17.41-14.24,31.56-31.65,31.58Zm-.02-5.21c14.61-.01,26.53-11.97,26.46-26.53-.07-14.54-11.91-26.34-26.45-26.36-14.64-.02-26.55,11.84-26.55,26.44,0,14.59,11.91,26.47,26.54,26.46Z"/></g></svg>