<?xml version="1.0" encoding="UTF-8"?><svg id="Layer_1" xmlns="http://www.w3.org/2000/svg" viewBox="0 0 200 200"><defs><style>.cls-1{fill:#fff;stroke-width:0px;}</style></defs><path class="cls-1" d="m46.43,39.27c0,4.39,0,8.54,0,12.69,0,3.94-.03,7.88.01,11.83.03,2.65,1.35,4.02,3.96,4.05,4.46.05,8.92.04,13.38,0,2.74-.03,4.05-1.38,4.06-4.18.03-7.21.01-14.43.01-21.64,0-.81,0-1.62,0-2.57.68-.06,1.24-.16,1.81-.16,7.44-.01,14.87-.02,22.31,0,3.2,0,4.45,1.26,4.45,4.47,0,23.21,0,46.41,0,69.62,0,3.22-1.25,4.49-4.43,4.49-23.2.01-46.4,0-69.6,0-3.31,0-4.52-1.25-4.52-4.62,0-23.13,0-46.26,0-69.39,0-3.35,1.22-4.55,4.58-4.56,7.88-.01,15.76,0,23.98,0Zm28.42,64.28c1.26,0,2.53.07,3.79-.02,2.09-.14,3.52-1.68,3.48-3.62-.04-1.86-1.42-3.36-3.41-3.45-2.45-.11-4.91-.1-7.36,0-2.1.09-3.52,1.66-3.47,3.61.04,1.86,1.42,3.31,3.41,3.46,1.18.09,2.38.02,3.57.02Z"/><path class="cls-1" d="m132.14,39.27c0,4.54,0,8.84,0,13.13,0,3.87-.04,7.74.02,11.6.04,2.39,1.38,3.78,3.73,3.81,4.61.07,9.22.06,13.83,0,2.54-.03,3.83-1.46,3.84-4.17.03-7.21,0-14.43.01-21.64,0-.81,0-1.62,0-2.57.68-.06,1.24-.16,1.81-.16,7.44-.01,14.87-.02,22.31,0,3.19,0,4.45,1.26,4.45,4.47,0,23.21,0,46.41,0,69.62,0,3.22-1.25,4.48-4.44,4.49-23.2.01-46.4,0-69.6,0-3.31,0-4.52-1.25-4.52-4.62,0-23.13,0-46.26,0-69.39,0-3.35,1.22-4.55,4.58-4.56,7.88-.01,15.76,0,23.98,0Zm28.55,64.27c1.26,0,2.54.08,3.79-.02,1.98-.16,3.34-1.66,3.35-3.52,0-1.86-1.35-3.44-3.32-3.53-2.52-.12-5.06-.12-7.58,0-1.98.09-3.34,1.64-3.35,3.51,0,1.86,1.35,3.38,3.32,3.55,1.25.11,2.53.02,3.79.02Z"/><path class="cls-1" d="m178.57,146.53h-67.85c0,3.27.01,6.45,0,9.62-.02,3.34-1.23,4.55-4.59,4.56-4.17.01-8.33.02-12.5,0-3.06-.02-4.31-1.29-4.34-4.36-.02-3.19,0-6.39,0-9.75H21.43c0,3.06,0,6.15,0,9.25,0,3.76-1.13,4.86-4.96,4.87-3.94,0-7.88.01-11.83,0-3.39-.01-4.63-1.21-4.64-4.51-.01-8.93-.02-17.85,0-26.78,0-3.19,1.26-4.42,4.49-4.42,63.67,0,127.34,0,191.01,0,3.21,0,4.47,1.25,4.47,4.44.02,8.93.02,17.85,0,26.78,0,3.21-1.25,4.47-4.44,4.48-4.24.02-8.48.03-12.72,0-2.93-.02-4.22-1.31-4.25-4.21-.03-3.26,0-6.52,0-9.97Z"/><path class="cls-1" d="m60.58,60.66h-6.82v-21.22h6.82v21.22Z"/><path class="cls-1" d="m146.27,60.6h-6.87v-21.15h6.87v21.15Z"/></svg>