<?xml version="1.0" encoding="UTF-8"?><svg id="Layer_1" xmlns="http://www.w3.org/2000/svg" viewBox="0 0 200 200"><defs><style>.cls-1{fill:#fff;stroke-width:0px;}</style></defs><path class="cls-1" d="m133.31.05c19.07,0,37.1-.14,55.12.07,7.48.09,11.45,4.64,11.49,12.69.1,18.73.04,37.47.04,56.21,0,38.4,0,76.79,0,115.19,0,12.4-3.32,15.8-15.44,15.8-56.43.01-112.85.01-169.28,0-11.76,0-15.2-3.48-15.21-15.32-.01-56.44-.01-112.87,0-169.31C.03,3.49,3.46.05,15.22.03c16.85-.02,33.69,0,51.45,0,0,5.88,0,11.34,0,16.8,0,12.26-.07,24.52.03,36.78.07,8.73,4.09,12.96,12.58,13.04,13.87.14,27.75.14,41.63,0,8.14-.09,12.3-4.31,12.37-12.55.13-15.5.04-30.99.04-46.49,0-2.26,0-4.53,0-7.56Zm-.15,155.47s0-.02,0-.02c3.93,0,7.88.25,11.79-.06,6.17-.48,10.43-5.08,10.51-10.85.08-5.77-4.13-10.77-10.23-11.08-7.84-.39-15.73-.37-23.58-.03-6.19.27-10.42,5.01-10.5,10.82-.08,6.05,4.35,10.74,10.91,11.18,3.68.25,7.4.04,11.1.04Z"/><path class="cls-1" d="m89.02,44.01V.6h21.58v43.41h-21.58Z"/></svg>