<?xml version="1.0" encoding="utf-8"?>
<!-- Generator: Adobe Illustrator 27.9.0, SVG Export Plug-In . SVG Version: 6.00 Build 0)  -->
<!DOCTYPE svg PUBLIC "-//W3C//DTD SVG 1.1//EN" "http://www.w3.org/Graphics/SVG/1.1/DTD/svg11.dtd" [
	<!ENTITY ns_extend "http://ns.adobe.com/Extensibility/1.0/">
	<!ENTITY ns_ai "http://ns.adobe.com/AdobeIllustrator/10.0/">
	<!ENTITY ns_graphs "http://ns.adobe.com/Graphs/1.0/">
	<!ENTITY ns_vars "http://ns.adobe.com/Variables/1.0/">
	<!ENTITY ns_imrep "http://ns.adobe.com/ImageReplacement/1.0/">
	<!ENTITY ns_sfw "http://ns.adobe.com/SaveForWeb/1.0/">
	<!ENTITY ns_custom "http://ns.adobe.com/GenericCustomNamespace/1.0/">
	<!ENTITY ns_adobe_xpath "http://ns.adobe.com/XPath/1.0/">
]>
<svg version="1.1" id="Layer_1" xmlns:x="&ns_extend;" xmlns:i="&ns_ai;" xmlns:graph="&ns_graphs;"
	 xmlns="http://www.w3.org/2000/svg" xmlns:xlink="http://www.w3.org/1999/xlink" x="0px" y="0px" width="200px" height="200px"
	 viewBox="0 0 200 200" style="enable-background:new 0 0 200 200;" xml:space="preserve">
<style type="text/css">
	.st0{fill:#FF5A00;}
	.st1{fill:#FFFFFF;}
</style>
<metadata>
	<sfw  xmlns="&ns_sfw;">
		<slices></slices>
		<sliceSourceBounds  bottomLeftOrigin="true" height="170" width="95.3" x="52.3" y="15"></sliceSourceBounds>
	</sfw>
</metadata>
<g>
	<g>
		<path class="st0" d="M77.8,44.1c7.2,2,14.8,2.3,13.9,2.3c2.9,0.2,6.3,0.4,10.2,0.4c20.9,0.4,23.3-3,23.4-3v-3.4l-0.1,0.1
			c-1.3,1.3-5.6,3.3-20.7,3.3c-0.9,0-1.8,0-2.8,0c-17.5-0.3-24-3-25.6-3.8c0,0.8,0,2.5,0,3.5c0.3,0.2,0.8,0.2,0.9,0.3
			C77.2,43.9,77.4,44,77.8,44.1z"/>
		<path class="st0" d="M123.1,38.3V19.1c-0.1,0-0.1,0-0.2,0.1c-0.3-0.5-1.1-2-2.9-2.1c-2.5-0.4-13.6-1.2-18.8-1.2
			c-5.2,0-19,0.9-20.5,1.3c-0.8,0.2-1.3,0.9-1.7,1.4c-0.1,0-0.2-0.1-0.3-0.1v0.1l-0.4,19.8c-0.8,0.2-2,1-2.2,1.2
			c1.2,0.6,7.6,3.5,25.4,3.8c21.2,0.4,23.3-3,23.4-3.6C125,39.6,124,38.8,123.1,38.3z"/>
		<path class="st0" d="M142.2,46.7l-16.8-2.2c-0.1,0.1-0.3,0.3-0.4,0.4c0,0.1-0.3,0.3-0.4,0.3c-2.7,1.6-8.3,2.3-18,2.3
			c-1.4,0-3,0-4.7-0.1C80.8,46.8,76,44.1,75.8,44l-0.2-0.1v-0.2c-4.5,0.4-17.7,1.6-19,2.7c-0.1,0-2,1.3-2.9,3.8h-0.2
			c-0.1,0.4-0.1,0.8-0.1,1.2c-0.1,4.2-0.4,120.5-0.4,121.6c0,0,0.2,3.1,2.1,5.2c1.3,1.3,10.7,5.1,10.7,5.1l0.1,0.1H66
			c0.2,0,0.3,0,0.4,0c0.1,0.1,0.1,0.1,0.1,0.2c1.8,0.4,5.6,0.4,5.6,0.4c4.2,0.1,50.2,0.3,50.6,0.3c0.1,0,4.1,0.1,5.6-0.1
			c0.1,0,0.2-0.1,0.3-0.2c0.1,0,0.1-0.1,0.2-0.1c0.2,0,0.3,0.1,0.4,0.1h0.1c0,0,0,0-0.1,0.1c0.1,0,0.2,0,0.3,0
			c0.7-0.1,1.5-0.2,2-0.3c2.7-0.8,9-2.6,9-2.6s4.1-2,4.2-7.4c0.1-5.5,1.8-117.5,1.9-122.3l0,0h0.3C146.9,50.4,146.2,47.1,142.2,46.7
			z M132.6,141.5c0,0,0,0.4,0,0.5v0.1c0,0.1-0.1,0.5-0.2,1.1c0,0.1-0.1,0.2-0.1,0.3c-0.3,0.8-1.1,1.2-1.6,1l-0.1-0.1l-11.4-11.1
			v-0.1L119,86.4c0,0.1-0.1-0.6-0.1-1c0.4-0.8,0.4-0.7,0.8-1.2l0.1-0.1l9.7-9l0.8-1l0.3-0.4c0.2-0.1,0.3-0.1,0.4,0
			c0.1,0,0.3,0,0.4,0h0.1c1.8,0.9,1.9,4.2,1.9,4.4L132.6,141.5z"/>
	</g>
	<path class="st1" d="M129.6,75.8l-9.7,8.9l-0.1,0.1l0,0c-0.4,0.4-0.4,0.3-0.8,1.2c0,0.4,0.1,1.1,0.1,1l0.2,46.5v0.1l11.4,11
		l0.1,0.1c0.5,0.2,1.3-0.2,1.6-1c0-0.1,0.1-0.2,0.1-0.3c0.2-0.5,0.2-1,0.2-1.1v-0.1c0-0.2,0-0.5,0-0.5l0.7-62.9
		c0-0.2-0.1-3.5-1.9-4.4l0,0h-0.1c-0.1,0-0.3,0-0.4,0c-0.1,0-0.2-0.1-0.3,0c0,0-0.1,0-0.1-0.1l0,0v0.1l-0.3,0.3l0,0L129.6,75.8z
		 M130.9,74.9c1.7,0.4,1.8,3.9,1.8,4l-0.7,62.9c0,0,0,0.4,0,0.4v0.1c0,0,0,0.4-0.2,0.9c0,0.1-0.1,0.2-0.1,0.2
		c-0.2,0.5-0.6,0.7-0.9,0.6l-11.2-10.6l-0.2-47.6c0.3-0.2,0.4-0.4,0.7-0.6l0.1-0.1l9.7-8.9L130.9,74.9z"/>
	<path class="st1" d="M130.9,144.9c-0.1,0-0.3,0-0.4-0.1h-0.1l-0.2-0.1l-11.5-11.1v-0.2L118.6,87c-0.1-0.2-0.1-0.4-0.1-1.1v-0.1
		c0.3-0.6,0.4-0.7,0.6-1c0.1-0.1,0.1-0.1,0.2-0.2l0.2-0.2l9.7-8.9l0.5-0.6l0,0l0.5-0.5l0.4-0.2c0.1,0,0.2,0,0.3,0c0.2,0,0.3,0,0.4,0
		l0.5,0.3c1.5,1.2,1.7,4,1.7,4.4l-0.7,62.9l0,0c0,0,0,0.4,0,0.5v0.1c0,0.1-0.1,0.5-0.3,1.1c0,0.1-0.1,0.2-0.1,0.3
		C132.3,144.6,131.6,144.9,130.9,144.9z M130.9,144.4c0.1,0,0.3,0,0.4-0.1C131.1,144.4,130.9,144.5,130.9,144.4L130.9,144.4z
		 M119.9,133.2l11.1,10.6c0.2,0,0.4-0.2,0.5-0.5c0-0.1,0.1-0.2,0.1-0.2c0.2-0.4,0.2-0.9,0.2-0.9v-0.1c0-0.2,0-0.4,0-0.4l0.7-62.9
		c0-1.1-0.4-3.2-1.4-3.7l-0.9,1.1l-9.7,8.9l-0.1,0.1c-0.2,0.2-0.4,0.4-0.6,0.5L119.9,133.2z M132,143.5
		C132,143.6,132,143.6,132,143.5c0,0.1-0.1,0.2-0.1,0.2C132,143.7,132,143.7,132,143.5C132,143.6,132,143.6,132,143.5z M132.3,141.8
		L132.3,141.8L132.3,141.8z M133.1,78.9C133.1,78.9,133.1,78.9,133.1,78.9l-0.7,62.9l0,0L133.1,78.9
		C133.1,78.9,133.1,78.9,133.1,78.9z M119.4,133.5l7.7,7.4L119.4,133.5z M119.2,85.8l0.1,13L119.2,85.8L119.2,85.8z M119.9,84.9
		L119.9,84.9C119.9,85,119.9,84.9,119.9,84.9L119.9,84.9z M119.9,84.9L119.9,84.9L119.9,84.9l2.1-1.9L119.9,84.9z M130.5,75.1
		l-0.7,0.9l0,0L130.5,75.1z M131.3,74.7c0.3,0.1,0.4,0.3,0.6,0.4C131.7,75,131.6,74.9,131.3,74.7L131.3,74.7L131.3,74.7z
		 M130.8,74.8l-0.1,0.2L130.8,74.8C130.8,74.7,130.8,74.7,130.8,74.8L130.8,74.8z"/>
	<g>
		<path class="st1" d="M147.6,50.6c-0.3-2.1-1.6-4.5-5.2-4.9l-16.3-2.1v-4c0-0.2-0.4-1-2.1-1.6V19.1c-0.1-0.1-0.9-2.6-3.7-3
			c-2.5-0.3-13.6-1.2-18.9-1.2c-5.3,0-19.1,0.9-20.7,1.3c-1.7,0.4-2.6,2.4-2.7,2.7l-0.4,19c-1,0.3-2.1,0.7-2.2,1.4
			c-0.1,0.4,0,2.3,0,3.5C73.4,43,58,44.2,56.3,45.6c-0.1,0.1-2.4,1.3-3.3,4.1c0,0-0.3,0.8-0.3,1.1v1.4c-0.1,4.2-0.4,119.7-0.4,120.8
			c0,0.2,0.1,3.5,2.2,5.7c1.7,1.9,8.7,4.5,11.7,5.5l0.2,0.1c1.9,0.4,5.9,0.4,5.9,0.4c3.6,0.1,36.1,0.2,49.9,0.3h2.9
			c1.2,0,2.2,0,3-0.4c0.2,0,0.4,0,0.5-0.1c0.1,0,0.2,0,0.2,0c0.3,0,0.7-0.1,1.2-0.1c0.7-0.1,1.6-0.1,2.1-0.3
			c1.3-0.4,3.1-0.9,4.9-1.4c2.1-0.6,4-1.2,4-1.2s0.6-0.4,1.4-1c1.3-1.2,3.2-3.4,3.3-7.2c0.1-4.3,1.3-76,1.7-106.7
			c0.2-8.9,0.3-14.7,0.3-14.8L147.6,50.6z M78.1,38.8c0.2-0.1,0.5-0.4,0.5-0.4l0.4-18.9c0,0,0-0.1,0-0.2c0.2-1,1.2-1.8,1.5-2
			c1.5-0.4,15.3-1.3,20.5-1.3c5.3,0,16.3,0.8,18.8,1.2c1.3,0.2,2.4,1.2,2.8,1.8c0.4,0.2,0.2,19.3,0.2,19.7c0,0,0.1,0,0.1,0.1
			c0,0,0,0,0.1,0.1c0,0,0.1,0.1,0.2,0.1s0.1,0,0.2,0.1c0,0,0.5,0.2,0.5,0.3c0.4,0.2,0.7,0.4,0.9,0.5c-0.4,0.7-3.5,3.6-23.1,3.3
			c-13.6-0.3-20.6-2-23.6-3c-0.1,0-0.5-0.1-0.5-0.2c-0.3-0.1-0.5-0.3-0.7-0.4C77,39.3,77.9,38.9,78.1,38.8z M76.3,40.4
			c2.1,1,8.9,3.4,25.3,3.7c16.3,0.3,21.6-1.7,23.3-3v2.7c-0.4,0.5-4,3.3-23.2,2.9c-3.7-0.1-7.1-0.2-10.1-0.4
			c-2.3-0.2-8.2-0.7-13.9-2.3c-0.3-0.1-0.5-0.2-0.7-0.2c-0.1-0.1-0.2-0.1-0.3-0.1c-0.2-0.1-0.4-0.1-0.5-0.2
			C76.3,43.3,76.3,40.4,76.3,40.4z M146.6,52.3l-0.1,3c-1.2,73.1-1.9,115.2-1.9,118.4c-0.1,4.9-3.6,6.9-4,7.2
			c-0.4,0.1-6.3,1.8-8.9,2.6c-0.3,0.1-0.9,0.1-1.4,0.2l0.2-0.2l-1,0.2c-0.1,0-0.3-0.1-0.4-0.1H129l-0.1,0.1l-0.2,0.1
			c0,0-0.1,0.1-0.2,0.1c-1.5,0.2-5.5,0.1-5.5,0.1h-0.7c-13.8-0.1-46.3-0.3-49.9-0.3h-3.5c-0.8-0.1-1.5-0.2-2.1-0.3
			c0-0.1-0.1-0.1-0.1-0.2h-0.5l-0.1-0.1c0,0-9.6-3.8-10.7-5.1c-1.9-2.1-2.1-5.2-2.1-5.2c0-1.2,0.3-116.6,0.4-120.7v-0.3
			c0.1-0.7,0.2-1.5,0.2-1.5c0.7-2.4,2.5-3.6,2.8-3.8c1.1-0.9,12.5-2.1,18.6-2.6l0.3,0.2c0.2,0.2,5,3,26.2,3.4
			c1.6,0.1,3.2,0.1,4.7,0.1c9.8,0,15.5-0.7,18.2-2.3c0.2-0.1,0.4-0.2,0.5-0.4c0.2-0.1,0.3-0.2,0.4-0.3l16.7,2.2
			c3.5,0.4,4.4,2.8,4.5,4.3L146.6,52.3L146.6,52.3z"/>
		<path class="st1" d="M91.7,46.1C91.7,46,91.6,46,91.7,46.1L91.7,46.1z"/>
	</g>
</g>
</svg>
