<?xml version="1.0" encoding="utf-8"?>
<!-- Generator: Adobe Illustrator 27.9.0, SVG Export Plug-In . SVG Version: 6.00 Build 0)  -->
<!DOCTYPE svg PUBLIC "-//W3C//DTD SVG 1.1//EN" "http://www.w3.org/Graphics/SVG/1.1/DTD/svg11.dtd" [
	<!ENTITY ns_extend "http://ns.adobe.com/Extensibility/1.0/">
	<!ENTITY ns_ai "http://ns.adobe.com/AdobeIllustrator/10.0/">
	<!ENTITY ns_graphs "http://ns.adobe.com/Graphs/1.0/">
	<!ENTITY ns_vars "http://ns.adobe.com/Variables/1.0/">
	<!ENTITY ns_imrep "http://ns.adobe.com/ImageReplacement/1.0/">
	<!ENTITY ns_sfw "http://ns.adobe.com/SaveForWeb/1.0/">
	<!ENTITY ns_custom "http://ns.adobe.com/GenericCustomNamespace/1.0/">
	<!ENTITY ns_adobe_xpath "http://ns.adobe.com/XPath/1.0/">
]>
<svg version="1.1" id="Layer_1" xmlns:x="&ns_extend;" xmlns:i="&ns_ai;" xmlns:graph="&ns_graphs;"
	 xmlns="http://www.w3.org/2000/svg" xmlns:xlink="http://www.w3.org/1999/xlink" x="0px" y="0px" width="200px" height="200px"
	 viewBox="0 0 200 200" style="enable-background:new 0 0 200 200;" xml:space="preserve">
<style type="text/css">
	.st0{fill:#221E1F;}
	.st1{fill:#FFFFFF;}
	.st2{fill:#FF5A00;}
</style>
<metadata>
	<sfw  xmlns="&ns_sfw;">
		<slices></slices>
		<sliceSourceBounds  bottomLeftOrigin="true" height="190" width="97.2" x="51.4" y="5"></sliceSourceBounds>
	</sfw>
</metadata>
<g>
	<g>
		<path class="st0" d="M75.7,34.1c0.1,0,0.1,0,0.2,0c0.2,0.3,0.5,0.6,0.7,0.7c0.1,0,0.4,0.1,0.7,0.2c2,0.5,8.1,2.2,24.3,1.9
			c10.5-0.2,12-1,12.1-1.7c0.1-0.6-0.7-1-1.7-1.4c0.8,0,1.9,0.1,2.9,0.2c3,0.2,4.2,0.3,4.7,0.3c0-0.1,0-0.3,0.1-0.4l-0.1,0l0,0
			c-0.6,0-2.8-0.2-4.7-0.3c-4.1-0.3-4.1-0.3-4.2-0.2l-0.1,0.1l0,0.1c0,0.1,0.1,0.2,0.6,0.3c1.5,0.5,2.2,0.9,2.1,1.2
			c-0.1,0.3-1.3,1.2-11.7,1.3c-16.2,0.3-22.2-1.4-24.2-1.9c-0.4-0.1-0.6-0.2-0.8-0.2c-0.1-0.1-0.4-0.4-0.4-0.5l0-0.2l-0.2,0
			c-0.1,0-0.2,0-0.3,0C75.7,33.9,75.7,34,75.7,34.1z"/>
	</g>
	<g>
		<path class="st1" d="M77.4,28.8c0,0-1.9,0.5-2,1.1c-0.1,0.6,0,4.3,0,4.3s4.2,2.9,23.4,3.4c13.3,0.3,19.6-0.7,21.3-3.2v-4.2
			c0,0-0.2-0.8-2-1.4V9.4c0,0-0.7-2.3-2.9-2.6c-2.2-0.3-12.3-1.2-17-1.2c-4.7,0-17.2,1-18.5,1.3c-1.3,0.3-2,2.3-2,2.3L77.4,28.8z"/>
	</g>
	<g>
		<path class="st2" d="M119.9,30c-0.2-0.2-0.6-0.6-1.4-0.9c0,0.1-0.2,0-0.4-0.1c0,0,0,0,0,0l0,0V9.4c-0.1-0.2-0.8-2.2-2.7-2.4
			c-2.3-0.3-12.2-1.2-17-1.2c-4.7,0-17.1,1-18.5,1.3C78.7,7.3,78,9,77.9,9.3l-0.3,19.5c0,0,0,0,0,0.1c-0.2,0.1-0.3,0.3-0.3,0.2
			c-0.6,0.2-1.4,0.5-1.6,0.8c0.9,0.5,6.5,3.6,23,3.9C118.3,34.1,119.8,30.5,119.9,30z"/>
		<path class="st2" d="M98.8,37.4c12.8,0.3,19.3-0.7,21.1-3.1l-0.1,0c0-0.1,0-0.3,0.1-0.4l0,0v-3.2c-0.1,0.1-0.2,0.2-0.3,0.3
			c-1.2,1.2-5.3,3.2-18.6,3.2c-0.8,0-1.6,0-2.5,0c-16-0.3-21.8-3.1-23.1-3.9c0,1,0,3.3,0,3.8C76.3,34.5,81.4,37,98.8,37.4z"/>
		<path class="st2" d="M147.7,42.5C147.7,42.5,147.7,42.5,147.7,42.5c0-0.1,0-0.2,0-0.2c0,0,0-0.1,0-0.1c0,0,0-0.1,0-0.1
			c-0.1-1-0.8-4.4-4.9-4.9l-22.5-2.7v0.1l0,0.1c-1.6,2.3-6.9,3.4-17.3,3.4c-1.3,0-2.7,0-4.2,0c-19-0.4-23.3-3.3-23.5-3.4l-0.1-0.1
			l0-0.1c0,0,0,0,0-0.1c-4.6,0.3-18.1,1.6-19.4,2.7c0,0-2.3,1.4-3.1,4.4l0.1,0c-0.1,0.1-0.1,0.2-0.1,0.4l0,0
			c-0.1,0.4-0.1,0.8-0.1,1.3c-0.1,4.2-0.3,138.5-0.3,139.9c0,0,0.1,3.2,2.1,5.3c1.3,1.4,6.5,3.5,11.1,5.2c0,0,0,0,0,0
			c0.1,0.1,0.2,0.1,0.3,0.1c0.1,0,0.2,0,0.3,0.1c0,0,0,0,0,0c0,0,0,0,0,0c1.8,0.4,5.7,0.3,5.8,0.3c4.3,0.1,51,0.2,51.5,0.2
			c0,0,4.1,0.1,5.7-0.1c0,0,0,0,0,0c0.5,0,1,0,1.5-0.2c0.7-0.1,1.5-0.1,1.9-0.3c2.8-0.8,9.1-2.6,9.1-2.6c0,0,4.2-2,4.3-7.6
			c0.1-5.7,1.9-139.5,1.9-140.8C147.8,42.6,147.8,42.6,147.7,42.5L147.7,42.5z M133.1,134.4l0,0.1c0,0.1-0.1,0.5-0.2,1
			c0,0.1-0.1,0.2-0.1,0.3c-0.3,0.8-1,1.1-1.5,0.9l-0.1,0l-11.6-11.2l0-0.1L119.3,78c0,0,0-0.1,0-0.1l0,0c0,0,0,0,0,0c0,0,0,0,0-0.1
			c-0.1-0.3,0-0.7,0.1-1c0.1-0.1,0.1-0.2,0.2-0.3l0.1-0.1l0,0c0.1-0.2,0.2-0.3,0.4-0.4l0-0.1l0.1-0.1l10-9.1l0.9-1.1l0,0l0.2-0.2
			c0,0,0,0,0,0c0,0,0,0,0,0c0,0,0,0,0,0c0,0,0,0,0,0c0,0,0.1,0,0.1,0c0,0,0,0,0,0c0,0,0,0,0.1,0c0,0,0.1,0,0.1,0c0.1,0,0.2,0,0.4,0
			c0,0,0,0,0,0c1.9,0.8,2,4.3,2,4.4l-0.8,63.9C133.1,133.9,133.1,134.2,133.1,134.4z"/>
	</g>
	<g>
		<path class="st1" d="M131.8,65.5C131.8,65.5,131.9,65.5,131.8,65.5c-0.1,0-0.2,0-0.3,0c0,0-0.1,0-0.1,0c0,0,0,0-0.1,0c0,0,0,0,0,0
			c0,0-0.1,0-0.1,0c0,0,0,0,0,0c0,0,0,0,0,0c0,0,0,0,0,0c0,0,0,0,0,0l-0.2,0.2l0,0l-0.9,1.1l-10,9.1l-0.1,0.1l0,0.1
			c-0.1,0.1-0.2,0.3-0.4,0.4l0,0l-0.1,0.1c-0.1,0.1-0.1,0.2-0.2,0.3c-0.1,0.3-0.2,0.7-0.1,1c0,0,0,0,0,0.1c0,0,0,0,0,0l0,0
			c0,0,0,0.1,0,0.1l0.2,47.4l0,0.1l11.6,11.2l0.1,0c0.5,0.2,1.3-0.2,1.5-0.9c0-0.1,0.1-0.2,0.1-0.3c0.2-0.5,0.2-1,0.2-1l0-0.1
			c0-0.2,0-0.5,0-0.5l0.8-63.9C133.8,69.8,133.7,66.3,131.8,65.5z M132.7,133.9c0,0.1,0,0.4,0,0.5l0,0.1c0,0,0,0.4-0.2,1
			c0,0.1,0,0.2-0.1,0.2c-0.2,0.6-0.7,0.8-1,0.7l-11.5-11l-0.2-48.2c0.2-0.4,0.5-0.7,0.7-0.9l0.1-0.1l0,0l9.9-9l1.1-1.3
			c1.8,0.5,1.9,4.1,1.9,4.1L132.7,133.9z"/>
		<path class="st1" d="M131.5,137.2c-0.1,0-0.3,0-0.4-0.1l-0.1,0l-0.1-0.1l-11.7-11.3l0-0.3l-0.2-45.9c0,0,0-1.7,0-1.7
			c0-1,0.2-1.2,0.2-1.2c0.1-0.1,0.1-0.2,0.2-0.3l0.8-0.9l10.6-9.9l0.3-0.3l0,0c0,0,0.2-0.1,0.2-0.1l0.1,0c0,0,0.2,0,0.2,0
			c0,0,0.2,0,0.2,0c0,0,0,0,0,0c0,0,0.8,0.4,0.8,0.4c1.5,1.2,1.7,4.1,1.7,4.5l-0.8,63.9c0,0.1,0,0.3,0,0.6l0,0.1
			c0,0.1-0.1,0.6-0.2,1.1c0,0.1-0.1,0.2-0.1,0.3C132.8,136.8,132.1,137.2,131.5,137.2z M120.3,125.2l11.2,10.8
			c0.1,0,0.4-0.2,0.5-0.5c0-0.1,0-0.1,0.1-0.2c0.1-0.5,0.2-0.9,0.2-0.9l0-0.1c0-0.1,0-0.3,0-0.5l0,0l0,0L133,70
			c0-0.9-0.3-3.1-1.4-3.7l-0.9,1.1l-9.8,8.9l0,0l-0.2,0.2c-0.2,0.2-0.4,0.5-0.6,0.8L120.3,125.2z"/>
	</g>
	<path class="st1" d="M148.6,42.3l0-0.7l-0.1,0c-0.3-2.2-1.9-4.8-5.5-5.3l-22.2-2.7v-3.4l0-0.1c0-0.1-0.3-1-2-1.7v-19l0-0.2
		c0-0.1-0.8-2.7-3.4-3C113.1,5.9,103.1,5,98.3,5C93.6,5,81,6,79.6,6.3C78,6.7,77.3,8.8,77.2,9l0,0.1l-0.3,19.3
		c-0.9,0.3-1.9,0.8-2,1.5c-0.1,0.5,0,2.3,0,3.5c-2.6,0.2-17.6,1.5-19.5,2.9c-0.3,0.2-2.3,1.5-3.2,4.2l-0.1,0l-0.3,1.5l0,0
		c0,0.4-0.1,0.7-0.1,1c0,4.2-0.3,138.6-0.3,139.9c0,0.1,0.2,3.5,2.3,5.8c1.7,1.8,8.8,4.5,11.9,5.6l0,0l0.4,0.1l0.1,0
		c0.1,0,0.2,0,0.3,0l1,0.1c1.7,0.2,3.8,0.2,4.5,0.1c3.9,0,43.3,0.2,51.2,0.2l0.3,0c0.1,0,1,0,2.2,0c0.8,0,1.9,0,2.8-0.1l0.1,0
		c0.2,0,0.5,0,0.7,0l0.1,0c0.3,0,0.7-0.1,1.2-0.1l0,0c0.8-0.1,1.6-0.2,2.1-0.3c1.9-0.6,5.6-1.6,7.7-2.2c1.5-0.4,1.5-0.4,1.6-0.5
		c0,0,4.7-2.3,4.8-8.3c0-4.1,1.1-77.1,1.6-116.3c0.2-13.7,0.3-23.3,0.3-24.4l0.1,0L148.6,42.3z M77.8,29.2c0.1,0,0.2-0.1,0.2-0.1
		c0,0,0,0,0,0c0-0.1,0-0.3,0-0.3l0.3-18.9c0-0.4,0.1-0.7,0.3-1c0.3-0.6,0.8-1.2,1.3-1.3c1.4-0.3,11.3-1.3,18.4-1.3
		c4.7,0,14.6,0.9,16.9,1.2c0.8,0.1,1.4,0.6,1.8,1c0.4,0.5,0.6,1.2,0.6,1.8v18.7l0,0c0,0,0,0,0.1,0c0.2,0.1,0.4,0.3,0.6,0.4
		c0.1,0,0.5,0.3,0.5,0.3c0.3,0.1,0.5,0.3,0.6,0.4c-0.4,0.7-3.2,3.6-20.7,3.3c-14.4-0.2-20.4-2.6-22.3-3.6
		C76.6,29.7,77.7,29.2,77.8,29.2z M76,31c2.2,1.1,8.4,3.4,22.7,3.6c0.9,0,1.7,0,2.5,0c11.8,0,16.6-1.5,18.4-3v2.2c0,0.1,0,0.1,0,0.2
		c0,0.1,0,0.1,0,0.2c-1.9,2.1-8.5,3-20.7,2.7c-16.2-0.4-21.7-2.6-22.8-3.1C76,33.3,76,31.9,76,31z M147.4,42.9l0,0.6
		c-0.3,22.5-1.9,134.8-1.9,140c-0.1,4.9-3.5,6.9-4.1,7.2c-0.5,0.2-6.5,1.9-9.1,2.6c-0.4,0.1-1.2,0.2-1.8,0.2l-0.1,0
		c-0.5,0.1-0.9,0.1-1.4,0.1l-0.1,0l0,0c-1.6,0.1-5.5,0.1-5.6,0.1l-0.2,0c-7.9,0-47.3-0.2-51.2-0.2c0,0-3.7,0-5.5-0.3l-0.2-0.1
		c-0.1,0-0.2,0-0.3-0.1c-0.1,0-0.2-0.1-0.2-0.1l-1.4-0.5c-5.1-1.9-8.7-3.6-9.7-4.7c-1.8-1.9-2-4.9-2-5c0-1.3,0.3-135.7,0.3-139.9
		c0-0.3,0-0.5,0.1-0.8l0,0l0-0.5c0-0.1,0-0.1,0.1-0.2l0.3-0.5l-0.2,0c0.7-2.4,2.6-3.6,2.8-3.7l0,0c1.1-0.9,12.7-2.2,18.9-2.6
		l0.2,0.1c0.2,0.1,4.6,3,23.7,3.5c1.5,0,2.9,0,4.2,0c10.5,0,15.8-1,17.6-3.4l22.2,2.7c3.8,0.5,4.4,3.6,4.5,4.6l0,0c0,0,0,0.1,0,0.1
		c0,0.1,0,0.1,0,0.2L147.4,42.9L147.4,42.9z"/>
</g>
</svg>
