<?xml version="1.0" encoding="utf-8"?>
<!-- Generator: Adobe Illustrator 27.9.0, SVG Export Plug-In . SVG Version: 6.00 Build 0)  -->
<!DOCTYPE svg PUBLIC "-//W3C//DTD SVG 1.1//EN" "http://www.w3.org/Graphics/SVG/1.1/DTD/svg11.dtd" [
	<!ENTITY ns_extend "http://ns.adobe.com/Extensibility/1.0/">
	<!ENTITY ns_ai "http://ns.adobe.com/AdobeIllustrator/10.0/">
	<!ENTITY ns_graphs "http://ns.adobe.com/Graphs/1.0/">
	<!ENTITY ns_vars "http://ns.adobe.com/Variables/1.0/">
	<!ENTITY ns_imrep "http://ns.adobe.com/ImageReplacement/1.0/">
	<!ENTITY ns_sfw "http://ns.adobe.com/SaveForWeb/1.0/">
	<!ENTITY ns_custom "http://ns.adobe.com/GenericCustomNamespace/1.0/">
	<!ENTITY ns_adobe_xpath "http://ns.adobe.com/XPath/1.0/">
]>
<svg version="1.1" id="Layer_1" xmlns:x="&ns_extend;" xmlns:i="&ns_ai;" xmlns:graph="&ns_graphs;"
	 xmlns="http://www.w3.org/2000/svg" xmlns:xlink="http://www.w3.org/1999/xlink" x="0px" y="0px" width="200px" height="200px"
	 viewBox="0 0 200 200" style="enable-background:new 0 0 200 200;" xml:space="preserve">
<style type="text/css">
	.st0{fill:#FF5A00;}
	.st1{fill:#FFFFFF;stroke:#FFFFFF;stroke-miterlimit:10;}
</style>
<metadata>
	<sfw  xmlns="&ns_sfw;">
		<slices></slices>
		<sliceSourceBounds  bottomLeftOrigin="true" height="191" width="49.5" x="75.3" y="4.5"></sliceSourceBounds>
	</sfw>
</metadata>
<g>
	<path class="st0" d="M78,43.9c0,0.4,0.2,0.7,0.6,1.1c0,0,0,0,0.1,0.1s0.1,0.1,0.2,0.2c0,0,0,0,0.1,0.1c0.2,0.1,0.3,0.3,0.6,0.4
		c1.3,0.8,3.2,1.3,4.5,1.7c4.3,1.1,9.9,1.7,15.9,1.7c0.1,0,0.2,0,0.2,0c6.1,0,11.8-0.6,16.1-1.8c1.1-0.3,2.2-0.6,3.1-1
		c1.3-0.6,2.4-1.2,2.8-2.3v-0.8c0-6.9-8.8-9-10.7-9.3v0.2l-0.2,0.1c-0.7,0.4-2.8,0.8-5.8,1c-0.3,0-0.6,0-0.9,0.1l0,0h-0.1
		c-1,0.1-2.1,0.1-3.9,0.1c-0.1,0-0.1,0-0.2,0l0,0c-2,0-4.6-0.1-6.8-0.3c-2-0.2-3.4-0.5-3.9-0.9h-0.2V34l0,0C86.3,34,78,35.5,78,42
		V43.9L78,43.9z"/>
	<path class="st0" d="M89.9,33.2c0.3,0.4,1.3,0.7,2.8,0.9c1.7,0.2,4.3,0.4,7.5,0.4c0.1,0,0.1,0,0.2,0h0.1c2.2,0,4.1-0.1,5.7-0.2h0.1
		c0.1,0,0.2,0,0.2,0h0.1c0.1,0,0.2,0,0.2,0c0.2,0,0.4,0,0.6-0.1c1.3-0.1,2.4-0.3,3.4-1V15.5c-0.1,0-0.2,0.1-0.3,0.1
		c-0.6,0.2-1.5,0.3-2.6,0.3c-0.7,0-1.6,0-2.5-0.1c-1.3-0.1-2.5-0.3-3.7-0.6c-0.1,0-0.1,0-0.2,0c-0.4-0.1-0.8-0.2-1.2-0.3
		C92.6,13,86.9,8.8,84.7,7c-0.2,0.9-0.2,1.8-0.2,2.3c0,1.1,0.5,2.4,0.7,2.7l4.7,2.3L89.9,33.2z"/>
	<path class="st0" d="M110.8,14.8c-0.1-1.8-1.3-2.9-4.5-4.5c-3.2-1.5-10.4-3.5-14-4.3c-3-0.7-5.4-0.7-6.7-0.1
		c-0.2,0.1-0.5,0.3-0.7,0.5c2.4,2,10.2,7.9,20.5,8.8C108,15.4,109.8,15.3,110.8,14.8z"/>
	<path class="st0" d="M121,45.9C121,45.9,121,46,121,45.9c-1.2,0.7-2.8,1.4-4.9,1.9c-4.3,1.1-10,1.7-16.1,1.8c-0.1,0-0.2,0-0.2,0
		c-6,0-11.6-0.6-15.8-1.7c-2-0.5-3.6-1.1-4.8-1.8c0,0-0.1,0-0.1-0.1c-0.3-0.2-0.6-0.4-0.9-0.7c-0.1-0.1-0.1-0.1-0.2-0.2l0,0v13.1
		l0,0v0.2c2,2.4,11,4.3,21,4.4c0.1,0,0.2,0,0.4,0c0.2,0,0.5,0,0.7,0c0.5,0,1,0,1.4,0c0.1,0,0.2,0,0.3,0c0.4,0,0.8,0,1.2,0
		c0.1,0,0.2,0,0.2,0c0.5,0,0.9,0,1.4-0.1l0,0c0.5,0,1,0,1.4-0.1h0.1c0.4,0,0.7-0.1,1.1-0.1c0.2,0,0.4,0,0.6-0.1c0.1,0,0.2,0,0.4,0
		c5.3-0.5,9.3-1.4,11.6-2.3c1-0.4,1.8-1.2,2.3-1.8c-0.1-1.9-0.1-8.1,0-13.4C121.9,45.4,121.5,45.7,121,45.9z"/>
	<path class="st0" d="M100.1,67.2c-0.1,0-0.1,0-0.2,0h-0.1l0,0l0,0l0,0c-0.6,0-1.1,0-1.7,0c-5.5-0.1-10.1-0.5-13.9-1.4
		c-0.5-0.1-0.9-0.2-1.3-0.3c-0.5-0.1-1.1-0.3-1.6-0.4c-2.3-0.6-4-1.2-4.8-1.9v121.4c0.4,6.7,7.9,9.9,23.7,9.9c0.1,0,0.2,0,0.3,0
		c15.7,0,22.9-3.1,23.2-10V63.4C121.1,65.6,112,67.1,100.1,67.2z"/>
	<path class="st0" d="M120.2,60.8c-0.1,0-0.1,0.1-0.2,0.1c-3.6,1.5-10,2.4-17.3,2.6c-0.2,0-0.4,0-0.6,0s-0.4,0-0.6,0
		c-0.4,0-0.9,0-1.4,0c-0.1,0-0.2,0-0.2,0c-11.4,0-21-2-22.3-4.4c-0.9,0.9-1,2.2-1.1,2.8c0,0.1,0,0.3,0,0.3l0,0c1.1,1,3.1,1.7,5,2.2
		c0.7,0.2,1.5,0.4,2.2,0.5c0.2,0,0.4,0.1,0.6,0.1c3.9,0.8,8.8,1.3,14,1.4c0.6,0,1.2,0,1.8,0c8.6,0,16.6-1.1,20.8-2.9
		c1.3-0.5,2.2-1.1,2.8-1.7c0.1-1.2-0.5-2.4-1-3C122.2,59.7,121.4,60.2,120.2,60.8z"/>
</g>
<path class="st1" d="M122.8,58.4c-0.1-2.1-0.1-9,0-14.5V43l0,0v-0.9v0.1c-0.7-6.9-9.6-8.8-11.3-9.1V14.6h-0.1
	c-0.2-1.9-1.5-3.1-4.7-4.7c-3.4-1.6-10.5-3.6-14.2-4.4c-3.1-0.7-5.6-0.7-7-0.1c-0.3,0.1-0.6,0.3-0.8,0.6l-0.2-0.1l-0.1,0.4
	C84.1,7.4,84,8.7,84,9.2c0,1.5,0.8,3,0.8,3.1v0.1l4.5,2.2v18.5c-3.1,0.3-12,1.9-11.9,8.9v2.7l0,0v13.8c-1.2,1-1.5,2.5-1.5,3.3
	l-0.1-0.1v122.9c0.5,9.3,14,10.4,24.2,10.4c0.1,0,0.2,0,0.4,0c10.8,0,23.4-1.3,23.8-10.6v-122c0-0.1,0.1-0.2,0.1-0.3
	C124.4,60.6,123.5,59,122.8,58.4z M122.2,58.5c-0.5,0.6-1.3,1.3-2.3,1.8c-2.3,0.9-6.3,1.8-11.6,2.3c-0.1,0-0.2,0-0.4,0
	c-0.2,0-0.4,0-0.6,0.1c-0.4,0-0.7,0.1-1.1,0.1h-0.1c-0.5,0-0.9,0.1-1.4,0.1l0,0c-0.4,0-0.9,0-1.4,0.1c-0.1,0-0.2,0-0.2,0
	c-0.4,0-0.8,0-1.2,0c-0.1,0-0.2,0-0.3,0c-0.5,0-1,0-1.4,0c-0.2,0-0.5,0-0.7,0c-0.1,0-0.2,0-0.4,0c-10-0.1-19-2-21-4.4v-0.2l0,0V45.3
	l0,0c0.1,0.1,0.1,0.1,0.2,0.2c0.3,0.3,0.6,0.5,0.9,0.7c0,0,0.1,0,0.1,0.1c1.1,0.7,2.7,1.3,4.8,1.8c4.2,1.1,9.9,1.7,15.8,1.7
	c0.1,0,0.2,0,0.2,0c6.1,0,11.8-0.6,16.1-1.8c2.1-0.5,3.7-1.2,4.8-1.9l0,0c0.5-0.3,0.8-0.6,1.1-0.9C122.1,50.4,122.1,56.6,122.2,58.5
	z M85.6,5.8c1.3-0.6,3.7-0.5,6.7,0.1c3.6,0.8,10.7,2.8,14.1,4.4c3.2,1.5,4.3,2.7,4.5,4.5c-1,0.4-2.9,0.5-5.4,0.3
	c-10.3-1-18.1-6.8-20.5-8.8C85.1,6.1,85.4,5.9,85.6,5.8z M85.2,11.9c-0.2-0.3-0.7-1.6-0.7-2.7c0-0.4,0-1.3,0.2-2.3
	c2.2,1.8,7.9,6,15.6,7.9c0.4,0.1,0.8,0.2,1.2,0.3c0.1,0,0.1,0,0.2,0c1.2,0.3,2.4,0.5,3.7,0.6c0.9,0.1,1.8,0.1,2.5,0.1
	c1.1,0,1.9-0.1,2.6-0.3c0.1,0,0.2,0,0.3-0.1v17.7c-1,0.8-2.1,0.9-3.4,1c-0.2,0-0.4,0-0.6,0.1c-0.1,0-0.2,0-0.2,0h-0.1
	c-0.1,0-0.2,0-0.2,0h-0.1c-1.6,0.1-3.5,0.2-5.7,0.2h-0.1c-0.1,0-0.1,0-0.2,0c-3.3,0-5.8-0.2-7.5-0.4c-1.5-0.2-2.5-0.6-2.8-0.9v-19
	L85.2,11.9z M89.3,33.7L89.3,33.7V34h0.2c0.5,0.3,1.9,0.6,3.9,0.9c2.2,0.3,4.8,0.3,6.8,0.3l0,0c0.1,0,0.1,0,0.2,0
	c1.8,0,2.9-0.1,3.9-0.1h0.1l0,0c0.3,0,0.6,0,0.9-0.1c3.1-0.2,5.1-0.6,5.8-1l0.2-0.1v-0.2c1.9,0.4,10.7,2.4,10.7,9.3v0.8
	c-0.4,1.1-1.5,1.7-2.8,2.3c-1,0.4-2,0.7-3.1,1c-4.3,1.1-10,1.7-16.1,1.8c-0.1,0-0.2,0-0.2,0c-6,0-11.6-0.6-15.9-1.7
	c-1.3-0.3-3.2-0.9-4.5-1.7c-0.2-0.1-0.4-0.3-0.6-0.4c0,0,0,0-0.1-0.1s-0.1-0.1-0.2-0.2c0,0,0,0-0.1-0.1c-0.4-0.3-0.5-0.7-0.6-1.1
	l0,0v-1.9C78,35.5,86.3,34,89.3,33.7z M100.3,194.4c-0.1,0-0.2,0-0.3,0c-15.8,0-23.3-3.1-23.7-9.9V63.1c0.8,0.7,2.4,1.3,4.8,1.9
	c0.6,0.2,1.1,0.3,1.6,0.4c0.4,0.1,0.9,0.2,1.3,0.3c3.8,0.8,8.4,1.3,13.9,1.4c0.6,0,1.1,0,1.7,0l0,0l0,0l0,0h0.1c0.1,0,0.1,0,0.2,0
	c12,0,21-1.6,23.5-3.9v121.1C123.2,191.3,116,194.4,100.3,194.4z M123.6,62c-0.6,0.6-1.5,1.2-2.8,1.7c-4.3,1.7-12.2,2.8-20.8,2.9
	c-0.6,0-1.2,0-1.8,0c-5.2-0.1-10.1-0.5-14-1.4c-0.2,0-0.4-0.1-0.6-0.1c-0.7-0.2-1.5-0.4-2.2-0.5c-1.8-0.5-3.9-1.2-5-2.2l0,0
	c0-0.1,0-0.2,0-0.3c0.1-0.6,0.2-1.9,1.1-2.8c1.2,2.4,10.9,4.4,22.3,4.4c0.1,0,0.2,0,0.2,0c0.5,0,0.9,0,1.4,0c0.2,0,0.4,0,0.6,0
	s0.4,0,0.6,0c7.3-0.2,13.7-1.1,17.3-2.6c0.1,0,0.1-0.1,0.2-0.1c1.2-0.5,2.1-1.1,2.4-1.7C123.1,59.6,123.8,60.8,123.6,62z"/>
</svg>
