<?xml version="1.0" encoding="utf-8"?>
<!-- Generator: Adobe Illustrator 27.9.0, SVG Export Plug-In . SVG Version: 6.00 Build 0)  -->
<!DOCTYPE svg PUBLIC "-//W3C//DTD SVG 1.1//EN" "http://www.w3.org/Graphics/SVG/1.1/DTD/svg11.dtd" [
	<!ENTITY ns_extend "http://ns.adobe.com/Extensibility/1.0/">
	<!ENTITY ns_ai "http://ns.adobe.com/AdobeIllustrator/10.0/">
	<!ENTITY ns_graphs "http://ns.adobe.com/Graphs/1.0/">
	<!ENTITY ns_vars "http://ns.adobe.com/Variables/1.0/">
	<!ENTITY ns_imrep "http://ns.adobe.com/ImageReplacement/1.0/">
	<!ENTITY ns_sfw "http://ns.adobe.com/SaveForWeb/1.0/">
	<!ENTITY ns_custom "http://ns.adobe.com/GenericCustomNamespace/1.0/">
	<!ENTITY ns_adobe_xpath "http://ns.adobe.com/XPath/1.0/">
]>
<svg version="1.1" id="Layer_1" xmlns:x="&ns_extend;" xmlns:i="&ns_ai;" xmlns:graph="&ns_graphs;"
	 xmlns="http://www.w3.org/2000/svg" xmlns:xlink="http://www.w3.org/1999/xlink" x="0px" y="0px" width="200px" height="200px"
	 viewBox="0 0 200 200" style="enable-background:new 0 0 200 200;" xml:space="preserve">
<style type="text/css">
	.st0{fill:#FF6600;}
	.st1{fill:none;}
</style>
<metadata>
	<sfw  xmlns="&ns_sfw;">
		<slices></slices>
		<sliceSourceBounds  bottomLeftOrigin="true" height="190" width="156.9" x="21.6" y="5"></sliceSourceBounds>
	</sfw>
</metadata>
<g>
	<path class="st0" d="M95.9,27.8c1.7-2.5,3.3-4.9,5-7.3c0.4-0.5,0.7-0.9,1.1-1.4c0.5-0.7,2-1,3.1-1c13.1-0.1,26.2,0,39.3,0
		c1.9,0,3.4,0.7,4.4,2.3c0,0,0.1,0.1,0.1,0.1c1.5,2.4,3.2,4.7,5,7.3C153.9,27.8,95.9,27.8,95.9,27.8z M178.4,107.8c0-13,0-26,0-38.9
		c0-8.6,0-17.1,0-25.7c0-2.6-0.5-5.1-2.2-7.4c-5.8-8.3-11.5-16.6-17.2-24.9c-2.5-3.7-6-5.7-10.8-5.7c-15.8,0-31.6-0.1-47.4,0
		c-4,0-7.2,1.5-9.4,4.8c-4,5.8-8.1,11.6-12.2,17.4H54.5c-6.3,0-12.6,0-18.8,0c-1.1,0-1.9,0.1-2.7,1.2c-2.5,3.2-5.4,6.2-8.1,9.3
		c-1.9,2.2-3.2,4.6-3.2,7.6c0,2.2,0,4.5,0,6.7V52c0,0.2,0,0.3,0,0.5c0,10.5,0,20.9,0,31.4c0,17.6,0,35.2,0,52.8c0,9.7,0,19.4,0,29.2
		v0.2c0,2.2,0,4.4,0,6.6c0,3.4,1.4,6.1,3.8,8.4c3.8,3.5,7.6,7.1,11.5,10.6c2.4,2.2,5.3,3.4,8.9,3.4c36.1-0.1,72.3,0,108.4,0
		c3.2,0,5.9-1.1,8.2-3.2c3.9-3.6,7.7-7.2,11.7-10.7c3.1-2.7,4.3-5.9,4.3-9.7c0-2.3,0-4.6,0-6.9C178.4,145.6,178.4,126.7,178.4,107.8
		"/>
	<path class="st0" d="M69.5,21.3c-10.5,0-20.9,0-31.4,0c-0.8,0-1.5-0.1-2.1-0.1V8.4h33.4c0.1,0.3,0.1,0.4,0.1,0.5
		C69.5,13,69.5,17.1,69.5,21.3"/>
	<rect x="21.6" y="5" class="st1" width="156.9" height="190"/>
</g>
</svg>
