<?xml version="1.0" encoding="UTF-8"?><svg id="a" xmlns="http://www.w3.org/2000/svg" viewBox="0 0 200 200"><defs><style>.b{fill:#fff;}</style></defs><path class="b" d="m103.74,0c2.66.63,5.32,1.24,7.98,1.89,5.96,1.44,11.31,4.2,16.08,7.97,8.12,6.42,14.19,14.34,17.08,24.44,1.85,6.48,2.21,13.04,1.48,19.75-.76,6.97-2.93,13.35-6.63,19.28-3.51,5.61-7.98,10.28-13.33,14.16-4.32,3.13-8.98,5.63-14.12,6.97-7.06,1.85-14.18,2.64-21.54,1.31-7.07-1.28-13.54-3.74-19.34-7.9-10.61-7.62-17.75-17.62-19.91-30.66-.74-4.47-1.11-9.14-.75-13.64.74-9.11,3.96-17.42,9.69-24.67,4.28-5.42,9.35-9.99,15.39-13.28,4.63-2.52,9.62-4.3,14.96-4.86C91.73.66,92.65.26,93.58,0c3.38,0,6.77,0,10.15,0Zm31.24,48.15c1.04-17.94-15.51-38.59-40.71-36.16-14.79,1.42-33.17,15.92-32.01,38.25.93,17.96,16.45,33.82,34.68,34.51,21.24.81,38.93-16.98,38.05-36.61Z"/><path class="b" d="m99.62,199.94c-16.99,0-33.97.17-50.96-.08-7.55-.11-14.38-2.78-20.39-7.58-6.28-5.01-9.66-11.64-11.14-19.28-.58-3-.36-6.17-.45-9.26-.22-7.46.58-14.82,1.87-22.17,1.46-8.32,3.87-16.26,7.75-23.8,5.6-10.88,14.12-17.98,26.14-20.39,4.45-.89,9.16-1.57,13.45,1.05,2.69,1.64,5.38,3.29,7.97,5.08,6.17,4.27,13.05,6.76,20.34,8.13,5.68,1.07,11.31.13,16.84-1.29,6.97-1.8,13.05-5.45,18.93-9.47,1.25-.86,2.56-1.62,3.82-2.46,3.29-2.23,7.08-1.95,10.59-1.41,3.98.62,7.88,2.01,11.7,3.39,5.13,1.85,9.01,5.54,12.44,9.62,4.45,5.28,7.43,11.46,9.49,17.98,1.51,4.79,2.41,9.77,3.43,14.7,1.59,7.7,2.04,15.53,1.91,23.35-.13,7.92-1.93,15.5-7.19,21.73-4.8,5.7-10.89,9.36-18.26,11.08-4.65,1.09-9.28,1.09-13.96,1.09-14.77,0-29.55,0-44.32,0Zm.14-11.72c16.07,0,32.14.03,48.21-.03,2.47-.01,4.99-.25,7.39-.79,6.92-1.56,12.12-5.46,14.64-12.23,1.56-4.18,2.02-8.56,1.38-13.11-.62-4.37-.47-8.85-.89-13.26-.64-6.67-2.03-13.2-4.43-19.49-1.86-4.89-4.37-9.44-7.88-13.32-4.22-4.66-9.75-6.78-15.9-7.42-1.61-.17-3.01.2-4.45,1.18-3.85,2.61-7.72,5.27-11.87,7.33-7.2,3.59-14.82,5.78-22.96,6.44-5.01.41-9.79-.14-14.58-1.17-8.73-1.88-16.58-5.74-23.84-10.89-1.57-1.12-3.29-2.62-5.04-2.77-5.71-.52-10.91,1.38-15.33,4.97-5.38,4.36-8.46,10.33-10.75,16.7-2.75,7.66-4.36,15.58-4.65,23.71-.2,5.65-.53,11.37.08,16.96,1.11,10.25,10.18,16.95,19.92,17.11,16.98.28,33.96.08,50.94.08Z"/></svg>