<?xml version="1.0" encoding="utf-8"?>
<!-- Generator: Adobe Illustrator 27.9.0, SVG Export Plug-In . SVG Version: 6.00 Build 0)  -->
<!DOCTYPE svg PUBLIC "-//W3C//DTD SVG 1.1//EN" "http://www.w3.org/Graphics/SVG/1.1/DTD/svg11.dtd" [
	<!ENTITY ns_extend "http://ns.adobe.com/Extensibility/1.0/">
	<!ENTITY ns_ai "http://ns.adobe.com/AdobeIllustrator/10.0/">
	<!ENTITY ns_graphs "http://ns.adobe.com/Graphs/1.0/">
	<!ENTITY ns_vars "http://ns.adobe.com/Variables/1.0/">
	<!ENTITY ns_imrep "http://ns.adobe.com/ImageReplacement/1.0/">
	<!ENTITY ns_sfw "http://ns.adobe.com/SaveForWeb/1.0/">
	<!ENTITY ns_custom "http://ns.adobe.com/GenericCustomNamespace/1.0/">
	<!ENTITY ns_adobe_xpath "http://ns.adobe.com/XPath/1.0/">
]>
<svg version="1.1" id="Layer_1" xmlns:x="&ns_extend;" xmlns:i="&ns_ai;" xmlns:graph="&ns_graphs;"
	 xmlns="http://www.w3.org/2000/svg" xmlns:xlink="http://www.w3.org/1999/xlink" x="0px" y="0px" width="200px" height="200px"
	 viewBox="0 0 200 200" style="enable-background:new 0 0 200 200;" xml:space="preserve">
<style type="text/css">
	.st0{fill:#FF5A00;}
</style>
<metadata>
	<sfw  xmlns="&ns_sfw;">
		<slices></slices>
		<sliceSourceBounds  bottomLeftOrigin="true" height="197" width="83.1" x="55.1" y="0"></sliceSourceBounds>
	</sfw>
</metadata>
<path class="st0" d="M138,186.2v-0.2l0,0v-0.4l0,0V68.3c0-0.1-0.1-0.2-0.1-0.2s-0.7-0.5-0.7-3.4c0-2,0.3-2.4,0.5-2.5
	c0.1,0,0.1,0,0.1,0c0.1,0,0.2,0,0.2,0c0.1,0,0.1-0.1,0.1-0.2v-0.2v-0.4v-4.1v-0.1l0,0c0,0,0,0,0-0.1l0,0l-0.6-0.6l0.1-3.8v-0.1
	l-0.9-2.2h0.2v-0.4h-0.3l-0.2-0.3v-1.6c0-0.1-0.1-0.2-0.2-0.2H99.9H63.7c-0.1,0-0.2,0.1-0.2,0.2v1.7l-1.1,2.8V53l0.1,3.8l-0.6,0.6
	l0,0c0,0,0,0,0,0.1l0,0v0.1v4.2V62c0,0.1,0,0.2,0.1,0.2s0.2,0,0.2,0h0.1c0.1,0.1,0.5,0.5,0.5,2.5c0,1.4-0.2,2.2-0.3,2.7
	c-0.1,0.2-0.2,0.3-0.2,0.4C62,68,62,68.1,62,68.1c-0.1,0-0.1,0.1-0.1,0.2v117.9c0,0.1,0,0.1,0,0.1c0.4,0.6,0.6,1,0.5,1.2
	c-0.1,0.2-0.3,0.2-0.3,0.2c-0.1,0-0.2,0.1-0.2,0.2v7.4c0,0,0,0,0,0.1c1.3,5,8.9,4.7,9,4.7h0.1l3.7-1.4l25.4-0.4l25.4,0.4l3.7,1.4
	h0.1c0,0,0.1,0,0.2,0c1.3,0,7.5-0.2,8.7-4.7c0,0,0,0,0-0.1v-1.1l0,0v-0.4l0,0v-5l0,0v-0.4l0,0v-0.4c0-0.1-0.1-0.2-0.2-0.2
	c0,0-0.2-0.1-0.3-0.2c-0.1-0.2,0.1-0.7,0.5-1.2C138,186.3,138,186.2,138,186.2z"/>
<path class="st0" d="M125,14.8L61.8,57.7l-5-7.3c-3.2-4.7-2-11.1,2.7-14.3l46.2-31.3c4.7-3.2,11.1-2,14.3,2.7L125,14.8z"/>
</svg>
