<?xml version="1.0" encoding="utf-8"?>
<!-- Generator: Adobe Illustrator 27.9.0, SVG Export Plug-In . SVG Version: 6.00 Build 0)  -->
<!DOCTYPE svg PUBLIC "-//W3C//DTD SVG 1.1//EN" "http://www.w3.org/Graphics/SVG/1.1/DTD/svg11.dtd" [
	<!ENTITY ns_extend "http://ns.adobe.com/Extensibility/1.0/">
	<!ENTITY ns_ai "http://ns.adobe.com/AdobeIllustrator/10.0/">
	<!ENTITY ns_graphs "http://ns.adobe.com/Graphs/1.0/">
	<!ENTITY ns_vars "http://ns.adobe.com/Variables/1.0/">
	<!ENTITY ns_imrep "http://ns.adobe.com/ImageReplacement/1.0/">
	<!ENTITY ns_sfw "http://ns.adobe.com/SaveForWeb/1.0/">
	<!ENTITY ns_custom "http://ns.adobe.com/GenericCustomNamespace/1.0/">
	<!ENTITY ns_adobe_xpath "http://ns.adobe.com/XPath/1.0/">
]>
<svg version="1.1" id="Layer_1" xmlns:x="&ns_extend;" xmlns:i="&ns_ai;" xmlns:graph="&ns_graphs;"
	 xmlns="http://www.w3.org/2000/svg" xmlns:xlink="http://www.w3.org/1999/xlink" x="0px" y="0px" width="200px" height="200px"
	 viewBox="0 0 200 200" style="enable-background:new 0 0 200 200;" xml:space="preserve">
<style type="text/css">
	.st0{fill:#FF5A00;}
</style>
<metadata>
	<sfw  xmlns="&ns_sfw;">
		<slices></slices>
		<sliceSourceBounds  bottomLeftOrigin="true" height="196.3" width="103.1" x="44.7" y="0"></sliceSourceBounds>
	</sfw>
</metadata>
<path class="st0" d="M147.8,73l-0.2-0.2c0,0,0,0-0.1-0.1h-0.1h-0.1l0,0l0,0c0,0,0,0-0.1,0c0,0,0,0-0.1,0l0,0h-0.6v-4.5l0,0l0,0
	l-1.1-3.8v-3.1c0-0.2-0.1-0.2-0.2-0.2H54.7c-0.2,0-0.2,0.1-0.2,0.2v3.1l-1.1,3.8l0,0l0,0v4.5h-0.6l0,0c0,0,0,0-0.1,0c0,0,0,0-0.1,0
	l0,0l0,0h-0.1h-0.1c0,0-0.1,0-0.1,0.1l0,0.1c0,0,0,0-0.1,0.1v0.1l-0.1,0.1v0.1v0.1v0.1v7.4v109.6l0,0l0,0l0.1,1.5l0.3,1.4l0.6,1.4
	l0.8,1.3l1,1.1l1.1,1l1.3,0.8l1.4,0.6l1.4,0.3l1.4,0.1l0,0l0,0l0,0h33.6h0.2h0.1l0,0c0.1,0,0.2,0,0.2-0.1l0,0h0.1l0,0l0.2-0.2
	l1.5-0.6l1.3-0.2l1.4-0.1l1.4,0.2l1.3,0.3l0.9,0.3l0.4,0.2l0,0l0.1,0.1h0.1l0.1,0.1h0.1l0,0h0.1h0.2h33.6l0,0l1.5-0.1l1.4-0.3
	l1.4-0.6l1.2-0.8l1.1-1l1-1.1l0.7-1.3l0.6-1.4l0.3-1.4l0.1-1.5l0,0l0,0V80.9v-7.4v-0.2C147.9,73.1,147.9,73.1,147.8,73z"/>
<path class="st0" d="M128.1,14.7L52.2,72.9l-5.4-7c-3.5-4.5-2.6-11,1.9-14.4l59.6-45.6c4.5-3.5,11-2.6,14.4,1.9L128.1,14.7z"/>
</svg>
