<?xml version="1.0" encoding="utf-8"?>
<!-- Generator: Adobe Illustrator 27.9.0, SVG Export Plug-In . SVG Version: 6.00 Build 0)  -->
<!DOCTYPE svg PUBLIC "-//W3C//DTD SVG 1.1//EN" "http://www.w3.org/Graphics/SVG/1.1/DTD/svg11.dtd" [
	<!ENTITY ns_extend "http://ns.adobe.com/Extensibility/1.0/">
	<!ENTITY ns_ai "http://ns.adobe.com/AdobeIllustrator/10.0/">
	<!ENTITY ns_graphs "http://ns.adobe.com/Graphs/1.0/">
	<!ENTITY ns_vars "http://ns.adobe.com/Variables/1.0/">
	<!ENTITY ns_imrep "http://ns.adobe.com/ImageReplacement/1.0/">
	<!ENTITY ns_sfw "http://ns.adobe.com/SaveForWeb/1.0/">
	<!ENTITY ns_custom "http://ns.adobe.com/GenericCustomNamespace/1.0/">
	<!ENTITY ns_adobe_xpath "http://ns.adobe.com/XPath/1.0/">
]>
<svg version="1.1" id="Layer_1" xmlns:x="&ns_extend;" xmlns:i="&ns_ai;" xmlns:graph="&ns_graphs;"
	 xmlns="http://www.w3.org/2000/svg" xmlns:xlink="http://www.w3.org/1999/xlink" x="0px" y="0px" width="200px" height="200px"
	 viewBox="0 0 200 200" style="enable-background:new 0 0 200 200;" xml:space="preserve">
<style type="text/css">
	.st0{fill:#FF5A00;}
</style>
<metadata>
	<sfw  xmlns="&ns_sfw;">
		<slices></slices>
		<sliceSourceBounds  bottomLeftOrigin="true" height="187" width="101.7" x="44.5" y="0"></sliceSourceBounds>
	</sfw>
</metadata>
<path class="st0" d="M146.2,87.5c0-0.1,0-0.1-0.1-0.2l-0.1-0.1c-0.1-0.1-0.1-0.1-0.2-0.1l0,0c-0.1,0-0.2-0.1-0.2-0.1h-0.4v-3.4l0,0
	l0,0l-1-3v-2.4c0-0.1-0.1-0.2-0.2-0.2l0,0l0,0H56c-0.2,0-0.2,0.1-0.2,0.2v2.4l-1,3l0,0l0,0v3.4h-0.4h-0.1c-0.1,0-0.1,0-0.2,0.1
	c0,0-0.1,0-0.1,0.1L54,87.4c0,0,0,0-0.1,0.1l-0.1,0.1c0,0,0,0.1,0,0.2v0.1v4.1v0.2v0.1v0.1v0.1l0.1,0.2c0,0,0,0,0.1,0.1l0.1,0.1v0.1
	l0,0l0,0l0.4,0.6l0.3,0.6l0.2,0.6l0.1,0.7L55,96.1l-0.1,0.6l-0.3,0.6l-0.4,0.6l0,0l0,0l-0.1,0.1c0,0,0,0-0.1,0.1L54,98.2v0.1v0.2
	v0.1v0.2v86.9v0.2c0,0.1,0,0.1,0.1,0.2l0.1,0.2c0,0,0,0,0.1,0.1l0.1,0.1c0,0,0,0,0.1,0.1h0.1l0.4,0.2l0.1,0.1l0,0v0.1l0,0l0,0l0,0
	l-0.4,0.2h-0.1c0,0-0.1,0-0.1,0.1l-0.1,0.1c0,0,0,0-0.1,0.1l-0.1,0.1c0,0,0,0-0.1,0.1l-0.1,0.1c-0.1,0.1-0.1,0.1-0.1,0.2v0.2v5.9
	l0,0l0,0l0.1,0.7l0.2,0.7l0.2,0.7l0.3,0.7l0.4,0.6l0.5,0.6l0.6,0.6l0.6,0.5h0.1l0,0l0,0c0,0,0.1,0,0.1,0.1l0.6,0.3l0.2,0.1l1,0.3
	l1,0.2l0.9,0.1l0,0h78.8l0,0l1.3-0.1l1-0.2l0.8-0.3l0.2-0.1l0,0c0.1,0,0.1,0,0.2,0l0.2-0.1l0.1-0.1c0,0,0,0,0.1,0l0.1-0.1l0,0
	c0,0,0.1,0,0.1-0.1l0,0h0.1l0.6-0.5l0.6-0.6l0.5-0.6l0.4-0.6l0.3-0.7l0.2-0.7l0.2-0.7l0.1-0.7l0,0l0,0v-5.9v-0.1v-0.1v-0.1v-0.1
	l-0.1-0.1c0,0,0-0.1-0.1-0.1l-0.1-0.1c0-0.1-0.1-0.1-0.1-0.1l-0.1-0.1l0,0l0,0l-0.5-0.2l-0.1-0.1v-0.1l0.1-0.1l0,0l0.4-0.2l0,0l0,0
	l0.1-0.1c0,0,0.1,0,0.1-0.1l0.1-0.1c0,0,0,0,0.1-0.1l0.1-0.2v-0.1v-0.1v-0.1v-0.1V98.8v-0.1v-0.1v-0.1v-0.1l-0.2-0.4
	c0,0,0,0-0.1-0.1l-0.1-0.1l-0.4-0.6l-0.3-0.6l-0.2-0.6l-0.1-0.6l0.1-0.7l0.2-0.6l0.3-0.6l0.4-0.6l0.1-0.1c0,0,0,0,0.1-0.1l0.2-0.4
	v-0.1v-0.2V92v-0.2v-4.1v-0.1C146.2,87.6,146.2,87.5,146.2,87.5z"/>
<path class="st0" d="M119.1,22.2L53.8,87.6l-6.3-6.3c-4-4-4-10.5,0-14.6L98.3,16c4-4,10.5-4,14.6,0L119.1,22.2z"/>
</svg>
