<?xml version="1.0" encoding="utf-8"?>
<!-- Generator: Adobe Illustrator 27.8.1, SVG Export Plug-In . SVG Version: 6.00 Build 0)  -->
<!DOCTYPE svg PUBLIC "-//W3C//DTD SVG 1.1//EN" "http://www.w3.org/Graphics/SVG/1.1/DTD/svg11.dtd" [
	<!ENTITY ns_extend "http://ns.adobe.com/Extensibility/1.0/">
	<!ENTITY ns_ai "http://ns.adobe.com/AdobeIllustrator/10.0/">
	<!ENTITY ns_graphs "http://ns.adobe.com/Graphs/1.0/">
	<!ENTITY ns_vars "http://ns.adobe.com/Variables/1.0/">
	<!ENTITY ns_imrep "http://ns.adobe.com/ImageReplacement/1.0/">
	<!ENTITY ns_sfw "http://ns.adobe.com/SaveForWeb/1.0/">
	<!ENTITY ns_custom "http://ns.adobe.com/GenericCustomNamespace/1.0/">
	<!ENTITY ns_adobe_xpath "http://ns.adobe.com/XPath/1.0/">
]>
<svg version="1.1" id="Layer_1" xmlns:x="&ns_extend;" xmlns:i="&ns_ai;" xmlns:graph="&ns_graphs;"
	 xmlns="http://www.w3.org/2000/svg" xmlns:xlink="http://www.w3.org/1999/xlink" x="0px" y="0px" width="500px" height="500px"
	 viewBox="0 0 500 500" style="enable-background:new 0 0 500 500;" xml:space="preserve">
<style type="text/css">
	.st0{fill:#FF6600;}
	.st1{fill:#FFFFFF;}
</style>
<metadata>
	<sfw  xmlns="&ns_sfw;">
		<slices></slices>
		<sliceSourceBounds  bottomLeftOrigin="true" height="500" width="500" x="520" y="-500"></sliceSourceBounds>
	</sfw>
</metadata>
<path class="st0" d="M0,0v500h500V0H0z M435.9714,440.4516c0,17.9067-14.5682,32.4749-32.475,32.4749H131.5361
	c-17.9068,0-32.475-14.5682-32.475-32.4749v-93.8428c-32.7913-18.2274-55.0326-53.2278-55.0326-93.33s22.2413-75.1025,55.0326-93.33
	V59.7071c0-17.9068,14.5682-32.475,32.475-32.475h205.053c1.8801-0.4543,3.8865,0.0878,5.2788,1.4842l0.1495,0.1498
	c0.0045,0.0045,0.0089,0.0089,0.0133,0.0134l92.144,92.303c1.0483,1.0499,1.6373,2.4731,1.6373,3.9557v0.6146
	c0.1005,0.4196,0.1594,0.8552,0.1594,1.3055V440.4516z"/>
<g>
	<g>
		<path class="st1" d="M435.8121,125.7527v-0.6146c0-1.4826-0.589-2.9058-1.6373-3.9557l-92.144-92.303
			c-0.0045-0.0045-0.0089-0.0089-0.0133-0.0134l-0.1495-0.1498c-1.3923-1.3964-3.3987-1.9385-5.2788-1.4842h-205.053
			c-17.9068,0-32.475,14.5682-32.475,32.475v100.2418c-32.7913,18.2274-55.0326,53.2278-55.0326,93.33
			s22.2413,75.1025,55.0326,93.33v93.8428c0,17.9067,14.5682,32.4749,32.475,32.4749h271.9603
			c17.9068,0,32.475-14.5682,32.475-32.4749V127.0582C435.9714,126.6079,435.9125,126.1723,435.8121,125.7527z M355.6581,121.2981
			c-4.9465-0.3016-9.2054-3.4885-11.1092-7.8638c-0.564-1.4315-0.8844-2.9847-0.8844-4.6141V46.3655l74.8032,74.9326H355.6581z
			 M55.2269,253.2789c0-36.7083,20.8201-68.6401,51.2686-84.6222c0.504-0.1751,0.9748-0.4185,1.4017-0.7219
			c12.8909-6.4965,27.4426-10.1623,42.8361-10.1623c52.6626,0,95.5063,42.8438,95.5063,95.5064
			c0,52.6626-42.8438,95.5064-95.5063,95.5064c-15.3936,0-29.9453-3.6658-42.8361-10.1623
			c-0.4269-0.3034-0.8977-0.5468-1.4017-0.7219C76.047,321.919,55.2269,289.9871,55.2269,253.2789z M237.6299,315.1384
			l83.199,83.199c5.8444,5.8445,5.8444,15.354,0,21.1985c-5.8476,5.8444-15.354,5.8413-21.1985,0l-82.6609-82.6609
			C224.828,330.6353,231.7918,323.3157,237.6299,315.1384z M424.7731,440.4516c0,11.7327-9.5439,21.2766-21.2766,21.2766H131.5361
			c-11.7327,0-21.2766-9.5439-21.2766-21.2766v-88.4489c12.4882,5.1387,26.1544,7.981,40.4738,7.981
			c20.9384,0,40.4845-6.0667,56.9815-16.5281l83.9979,83.998c4.9258,4.9258,11.5015,7.6395,18.5161,7.6395
			c7.0162,0,13.5918-2.7136,18.5176-7.6395s7.6395-11.5015,7.6395-18.5161c0-7.0162-2.7136-13.5918-7.6395-18.5176l-84.9651-84.9651
			c8.6899-15.436,13.6567-33.2356,13.6567-52.1758c0-58.8367-47.868-106.7048-106.7048-106.7048
			c-14.3195,0-27.9857,2.8422-40.4738,7.981v-94.848c0-11.7327,9.5439-21.2766,21.2766-21.2766h200.7708v70.8694
			c0,0.0953,0.0031,0.189,0.0078,0.2843c0.1235,2.4349,0.6358,4.7774,1.4511,6.9832c3.2238,9.3508,12.106,16.0901,22.5376,16.0901
			h68.4697V440.4516z"/>
		<path class="st1" d="M403.4961,479.4268h-271.96c-21.4902,0-38.9746-17.4844-38.9746-38.9756v-90.0938
			c-34.0439-20.46-55.0332-57.3057-55.0332-97.0781s20.9893-76.6182,55.0332-97.0796V59.707
			c0-21.4907,17.4844-38.9751,38.9746-38.9751h204.4316c3.8096-0.6133,7.7627,0.6465,10.5029,3.3945l0.1611,0.1606l92.1436,92.3032
			c2.2783,2.2832,3.5342,5.3149,3.5371,8.5376c0.1055,0.6465,0.1592,1.2925,0.1592,1.9302v313.3931
			C442.4717,461.9424,424.9873,479.4268,403.4961,479.4268z M116.7598,361.2725v79.1787c0,8.1484,6.6289,14.7773,14.7764,14.7773
			h271.96c8.1484,0,14.7773-6.6289,14.7773-14.7773V139.1572h-61.9697c-12.9102,0-24.418-8.1958-28.6592-20.4023
			c-1.0566-2.8784-1.6699-5.8521-1.8213-8.8403c-0.0107-0.2046-0.0166-0.4082-0.0166-0.6147V44.9307H131.5361
			c-8.1475,0-14.7764,6.6284-14.7764,14.7764v85.5786c10.957-3.4614,22.3457-5.2114,33.9736-5.2114
			c62.4219,0,113.2051,50.7837,113.2051,113.2051c0,17.7178-4.1895,35.2402-12.1543,50.9863l81.5586,81.5586
			c6.1533,6.1533,9.543,14.3623,9.543,23.1133c0,8.75-3.3896,16.958-9.543,23.1123c-6.1543,6.1533-14.3633,9.543-23.1143,9.543
			c-8.75,0-16.958-3.3896-23.1113-9.543l-80.4053-80.4053c-17.0244,9.7227-36.2686,14.8389-55.9785,14.8389
			C139.1045,366.4834,127.7158,364.7334,116.7598,361.2725z M226.5557,337.2686l77.6719,77.6719
			c3.3066,3.3066,8.6943,3.3076,12.0068-0.002c3.3086-3.3086,3.3086-8.6943-0.001-12.0039l-77.9561-77.9561
			C234.6826,329.3584,230.7646,333.4668,226.5557,337.2686z M111.1719,332.9932c12.3662,6.166,25.6748,9.292,39.5615,9.292
			c49.0781,0,89.0059-39.9277,89.0059-89.0059c0-49.0786-39.9277-89.0068-89.0059-89.0068c-13.8867,0-27.1953,3.126-39.5615,9.292
			c-0.6318,0.4033-1.2998,0.7471-1.9971,1.0278c-29.2783,15.5254-47.4482,45.6401-47.4482,78.687
			c0,33.0439,18.1709,63.1592,47.4473,78.6855C109.8711,332.2451,110.54,332.5898,111.1719,332.9932z M355.8916,114.7979h46.9023
			l-52.6299-52.7207v46.7432c0,0.7153,0.1318,1.4297,0.3916,2.126C351.54,113.104,353.6104,114.5972,355.8916,114.7979z"/>
	</g>
	<g>
		<path class="st1" d="M299.3507,115.0599V79.8651c0-3.0917-2.5074-5.5992-5.5992-5.5992H148.3337
			c-3.0917,0-5.5992,2.5075-5.5992,5.5992v35.1948c0,3.0917,2.5074,5.5992,5.5992,5.5992h145.4178
			C296.8433,120.6591,299.3507,118.1517,299.3507,115.0599z M288.1523,109.4608H153.9329V85.4643h134.2195V109.4608z"/>
		<path class="st1" d="M293.752,127.1592H148.334c-6.6719,0-12.0996-5.4277-12.0996-12.0991V79.8652
			c0-6.6719,5.4277-12.0996,12.0996-12.0996h145.418c6.6709,0,12.0986,5.4277,12.0986,12.0996v35.1948
			C305.8506,121.7314,300.4229,127.1592,293.752,127.1592z M160.4326,102.9609h121.2197V91.9644H160.4326V102.9609z"/>
	</g>
	<g>
		<path class="st1" d="M150.7333,328.9475c41.7236,0,75.6686-33.9451,75.6686-75.6686c0-41.7236-33.9451-75.6686-75.6686-75.6686
			c-41.7236,0-75.6686,33.945-75.6686,75.6686C75.0647,295.0024,109.0097,328.9475,150.7333,328.9475z M150.7333,188.8086
			c35.5495,0,64.4703,28.9208,64.4703,64.4703s-28.9208,64.4703-64.4703,64.4703s-64.4703-28.9208-64.4703-64.4703
			S115.1838,188.8086,150.7333,188.8086z"/>
		<path class="st1" d="M150.7334,335.4473c-45.3086,0-82.1689-36.8604-82.1689-82.168c0-45.3081,36.8604-82.1689,82.1689-82.1689
			s82.1689,36.8608,82.1689,82.1689C232.9023,298.5869,196.042,335.4473,150.7334,335.4473z M150.7334,195.3086
			c-31.9648,0-57.9707,26.0054-57.9707,57.9707c0,31.9648,26.0059,57.9697,57.9707,57.9697s57.9697-26.0049,57.9697-57.9697
			C208.7031,221.314,182.6982,195.3086,150.7334,195.3086z"/>
	</g>
	<g>
		<path class="st1" d="M288.1523,198.4072c0,3.0917,2.5074,5.5992,5.5992,5.5992h86.7077c3.0917,0,5.5992-2.5074,5.5992-5.5992
			s-2.5074-5.5992-5.5992-5.5992h-86.7077C290.6598,192.808,288.1523,195.3154,288.1523,198.4072z"/>
		<path class="st1" d="M380.459,210.5063h-86.707c-6.6719,0-12.0996-5.4277-12.0996-12.0991s5.4277-12.0991,12.0996-12.0991h86.707
			c6.6719,0,12.0996,5.4277,12.0996,12.0991S387.1309,210.5063,380.459,210.5063z"/>
	</g>
	<g>
		<path class="st1" d="M380.4592,242.4008h-86.7077c-3.0917,0-5.5992,2.5074-5.5992,5.5992s2.5074,5.5992,5.5992,5.5992h86.7077
			c3.0917,0,5.5992-2.5074,5.5992-5.5992S383.551,242.4008,380.4592,242.4008z"/>
		<path class="st1" d="M380.459,260.0996h-86.707c-6.6719,0-12.0996-5.4277-12.0996-12.0996
			c0-6.6714,5.4277-12.0991,12.0996-12.0991h86.707c6.6719,0,12.0996,5.4277,12.0996,12.0991
			C392.5586,254.6719,387.1309,260.0996,380.459,260.0996z"/>
	</g>
	<g>
		<path class="st1" d="M380.4592,292.1529h-86.7077c-3.0917,0-5.5992,2.5074-5.5992,5.5992s2.5074,5.5992,5.5992,5.5992h86.7077
			c3.0917,0,5.5992-2.5074,5.5992-5.5992S383.551,292.1529,380.4592,292.1529z"/>
		<path class="st1" d="M380.459,309.8516h-86.707c-6.6719,0-12.0996-5.4277-12.0996-12.0996
			c0-6.6709,5.4277-12.0986,12.0996-12.0986h86.707c6.6719,0,12.0996,5.4277,12.0996,12.0986
			C392.5586,304.4238,387.1309,309.8516,380.459,309.8516z"/>
	</g>
	<g>
		<path class="st1" d="M130.0957,300.1517h41.4346c8.5894,0,16.2148-4.8322,19.9003-12.6107
			c3.6479-7.6973,2.5871-16.5445-2.709-23.0154c-6.3418-8.0234-14.8789-13.681-24.4464-16.4167
			c7.506-4.5449,12.534-12.7888,12.534-22.1855c0-14.2901-11.6264-25.9165-25.9165-25.9165s-25.9166,11.6264-25.9166,25.9165
			c0,9.398,5.0294,17.6428,12.5371,22.1873c-9.7747,2.7897-18.4911,8.6179-24.9337,16.9008
			c-5.0992,6.4725-6.0085,15.1462-2.3731,22.6357C113.9496,295.3602,121.5704,300.1517,130.0957,300.1517z M150.8927,211.2053
			c8.116,0,14.7181,6.6022,14.7181,14.7181c0,8.116-6.6022,14.7182-14.7181,14.7182c-8.116,0-14.7182-6.6022-14.7182-14.7182
			C136.1745,217.8075,142.7767,211.2053,150.8927,211.2053z M121.397,271.9152c7.1552-9.2003,17.9068-14.476,29.4957-14.476
			c11.4108,0,21.9968,5.1133,29.102,14.1026c2.6277,3.212,3.1199,7.3989,1.317,11.2031c-1.8435,3.8885-5.4992,6.2085-9.7814,6.2085
			h-41.4346c-5.0196,0-8.3613-3.2011-9.8142-6.196C118.5084,279.1048,118.9177,275.0616,121.397,271.9152z"/>
		<path class="st1" d="M171.5303,306.6514h-41.4346c-11.0361,0-20.8984-6.1943-25.7373-16.166
			c-4.7314-9.748-3.5381-21.0508,3.1143-29.4961c4.9229-6.3281,11.0283-11.4194,17.9736-15.0376
			c-4.4316-5.6489-6.9697-12.7046-6.9697-20.0283c0-17.8745,14.542-32.4165,32.416-32.4165c17.875,0,32.417,14.542,32.417,32.4165
			c0,7.3262-2.54,14.3853-6.9766,20.0356c6.7178,3.5132,12.6406,8.415,17.4551,14.4941c6.8936,8.458,8.2422,19.8984,3.5166,29.8711
			C192.5332,300.3955,182.6562,306.6514,171.5303,306.6514z M150.8926,263.9395c-9.5703,0-18.4512,4.3613-24.3652,11.9658
			l-0.0244,0.0322c-1.1797,1.4971-0.8545,2.9922-0.374,3.9834c0.2881,0.5928,1.4268,2.5322,3.9668,2.5322h41.4346
			c1.7832,0,3.1348-0.8623,3.9082-2.4932c0.7305-1.541,0.5664-3.0293-0.4746-4.3027l-0.0684-0.085
			C169.0518,268.1797,160.3027,263.9395,150.8926,263.9395z M148.1797,246.9692l2.7148,1.6431l2.7148-1.644
			C151.833,247.1963,149.96,247.1978,148.1797,246.9692z M150.8926,217.7051c-4.5312,0-8.2178,3.6865-8.2178,8.2183
			s3.6865,8.2183,8.2178,8.2183c4.5322,0,8.2188-3.6865,8.2188-8.2183S155.4248,217.7051,150.8926,217.7051z"/>
	</g>
</g>
<path class="st1" d="M246.2397,253.2789c0-52.6627-42.8438-95.5064-95.5063-95.5064c-15.3936,0-29.9453,3.6658-42.8361,10.1623
	c-0.4269,0.3034-0.8977,0.5468-1.4017,0.7219c-30.4485,15.9821-51.2686,47.9139-51.2686,84.6222
	c0,36.7083,20.8201,68.6401,51.2686,84.6222c0.504,0.1751,0.9748,0.4185,1.4017,0.7219
	c12.8909,6.4965,27.4426,10.1623,42.8361,10.1623C203.3959,348.7853,246.2397,305.9415,246.2397,253.2789z M75.0647,253.2789
	c0-41.7236,33.945-75.6686,75.6686-75.6686c41.7236,0,75.6686,33.945,75.6686,75.6686c0,41.7236-33.9451,75.6686-75.6686,75.6686
	C109.0097,328.9475,75.0647,295.0024,75.0647,253.2789z"/>
<path class="st1" d="M299.6304,419.5359c5.8445,5.8413,15.3509,5.8444,21.1985,0c5.8444-5.8445,5.8444-15.354,0-21.1985
	l-83.199-83.199c-5.8381,8.1773-12.8019,15.4969-20.6604,21.7366L299.6304,419.5359z"/>
<path class="st1" d="M355.6581,121.2981h62.8096l-74.8032-74.9326v62.4547c0,1.6294,0.3204,3.1826,0.8844,4.6141
	C346.4527,117.8096,350.7117,120.9965,355.6581,121.2981z"/>
<rect x="153.9329" y="85.4643" class="st1" width="134.2195" height="23.9965"/>
<path class="st0" d="M181.3117,282.7449c1.8029-3.8041,1.3107-7.991-1.317-11.2031c-7.1052-8.9893-17.6912-14.1026-29.102-14.1026
	c-11.5889,0-22.3405,5.2758-29.4957,14.476c-2.4793,3.1464-2.8886,7.1896-1.1155,10.8422c1.4529,2.9949,4.7946,6.196,9.8142,6.196
	h41.4346C175.8125,288.9534,179.4682,286.6334,181.3117,282.7449z"/>
<ellipse transform="matrix(0.7071 -0.7071 0.7071 0.7071 -115.5566 172.8687)" class="st0" cx="150.8927" cy="225.9235" rx="14.7181" ry="14.7182"/>
<path class="st1" d="M215.2036,253.2789c0-35.5495-28.9208-64.4703-64.4703-64.4703s-64.4703,28.9208-64.4703,64.4703
	s28.9208,64.4703,64.4703,64.4703S215.2036,288.8284,215.2036,253.2789z M110.2064,287.6473
	c-3.6354-7.4895-2.7261-16.1633,2.3731-22.6357c6.4426-8.2829,15.1591-14.1111,24.9337-16.9008
	c-7.5078-4.5444-12.5371-12.7892-12.5371-22.1873c0-14.2901,11.6265-25.9165,25.9166-25.9165s25.9165,11.6264,25.9165,25.9165
	c0,9.3967-5.028,17.6406-12.534,22.1855c9.5674,2.7357,18.1046,8.3932,24.4464,16.4167c5.2961,6.4709,6.3569,15.3181,2.709,23.0154
	c-3.6854,7.7785-11.3109,12.6107-19.9003,12.6107h-41.4346C121.5704,300.1517,113.9496,295.3602,110.2064,287.6473z"/>
<path class="st1" d="M333.7657,116.5673c-0.8153-2.2057-1.3276-4.5483-1.4511-6.9832c-0.0046-0.0953-0.0078-0.189-0.0078-0.2843
	V38.4305H131.5361c-11.7327,0-21.2766,9.5439-21.2766,21.2766v94.848c12.4882-5.1387,26.1544-7.981,40.4738-7.981
	c58.8367,0,106.7048,47.868,106.7048,106.7048c0,18.9402-4.9668,36.7398-13.6567,52.1758l84.9651,84.9651
	c4.9258,4.9258,7.6395,11.5015,7.6395,18.5176c0,7.0146-2.7136,13.5902-7.6395,18.5161s-11.5015,7.6395-18.5176,7.6395
	c-7.0146,0-13.5902-2.7136-18.5161-7.6395l-83.9979-83.998c-16.497,10.4614-36.0432,16.5281-56.9815,16.5281
	c-14.3195,0-27.9857-2.8422-40.4738-7.981v88.4489c0,11.7327,9.5439,21.2766,21.2766,21.2766h271.9603
	c11.7327,0,21.2766-9.5439,21.2766-21.2766V132.6574h-68.4697C345.8717,132.6574,336.9895,125.9182,333.7657,116.5673z
	 M148.3337,120.6591c-3.0917,0-5.5992-2.5074-5.5992-5.5992V79.8651c0-3.0917,2.5074-5.5992,5.5992-5.5992h145.4178
	c3.0917,0,5.5992,2.5075,5.5992,5.5992v35.1948c0,3.0917-2.5074,5.5992-5.5992,5.5992H148.3337z M380.4592,303.3513h-86.7077
	c-3.0917,0-5.5992-2.5074-5.5992-5.5992s2.5074-5.5992,5.5992-5.5992h86.7077c3.0917,0,5.5992,2.5074,5.5992,5.5992
	S383.551,303.3513,380.4592,303.3513z M380.4592,253.5991h-86.7077c-3.0917,0-5.5992-2.5074-5.5992-5.5992
	s2.5074-5.5992,5.5992-5.5992h86.7077c3.0917,0,5.5992,2.5074,5.5992,5.5992S383.551,253.5991,380.4592,253.5991z
	 M386.0584,198.4072c0,3.0917-2.5074,5.5992-5.5992,5.5992h-86.7077c-3.0917,0-5.5992-2.5074-5.5992-5.5992
	s2.5074-5.5992,5.5992-5.5992h86.7077C383.551,192.808,386.0584,195.3154,386.0584,198.4072z"/>
<g>
	<path class="st0" d="M435.8121,125.1382c0-1.4826-0.589-2.9058-1.6373-3.9557l-92.144-92.303
		c-0.0045-0.0045-0.0089-0.0089-0.0133-0.0134l-0.1495-0.1498c-1.3923-1.3964-3.3987-1.9385-5.2788-1.4842h-205.053
		c-17.9068,0-32.475,14.5682-32.475,32.475v100.2418c-32.7913,18.2274-55.0326,53.2278-55.0326,93.33s22.2413,75.1025,55.0326,93.33
		v93.8428c0,17.9067,14.5682,32.4749,32.475,32.4749h271.9603c17.9068,0,32.475-14.5682,32.475-32.4749V127.0582
		c0-0.4503-0.0589-0.8859-0.1594-1.3055V125.1382z M343.6646,46.3655l74.8032,74.9326h-62.8096
		c-4.9465-0.3016-9.2054-3.4885-11.1092-7.8638c-0.564-1.4315-0.8844-2.9847-0.8844-4.6141V46.3655z M107.8972,338.623
		c-0.4269-0.3034-0.8977-0.5468-1.4017-0.7219c-30.4485-15.9821-51.2686-47.9139-51.2686-84.6222
		c0-36.7083,20.8201-68.6401,51.2686-84.6222c0.504-0.1751,0.9748-0.4185,1.4017-0.7219
		c12.8909-6.4965,27.4426-10.1623,42.8361-10.1623c52.6626,0,95.5063,42.8438,95.5063,95.5064
		c0,52.6626-42.8438,95.5064-95.5063,95.5064C135.3398,348.7853,120.7881,345.1195,107.8972,338.623z M237.6299,315.1384
		l83.199,83.199c5.8444,5.8445,5.8444,15.354,0,21.1985c-5.8476,5.8444-15.354,5.8413-21.1985,0l-82.6609-82.6609
		C224.828,330.6353,231.7918,323.3157,237.6299,315.1384z M424.7731,440.4516c0,11.7327-9.5439,21.2766-21.2766,21.2766H131.5361
		c-11.7327,0-21.2766-9.5439-21.2766-21.2766v-88.4489c12.4882,5.1387,26.1544,7.981,40.4738,7.981
		c20.9384,0,40.4845-6.0667,56.9815-16.5281l83.9979,83.998c4.9258,4.9258,11.5015,7.6395,18.5161,7.6395
		c7.0162,0,13.5918-2.7136,18.5176-7.6395s7.6395-11.5015,7.6395-18.5161c0-7.0162-2.7136-13.5918-7.6395-18.5176l-84.9651-84.9651
		c8.6899-15.436,13.6567-33.2356,13.6567-52.1758c0-58.8367-47.868-106.7048-106.7048-106.7048
		c-14.3195,0-27.9857,2.8422-40.4738,7.981v-94.848c0-11.7327,9.5439-21.2766,21.2766-21.2766h200.7708v70.8694
		c0,0.0953,0.0031,0.189,0.0078,0.2843c0.1235,2.4349,0.6358,4.7774,1.4511,6.9832c3.2238,9.3508,12.106,16.0901,22.5376,16.0901
		h68.4697V440.4516z"/>
	<path class="st0" d="M299.3507,115.0599V79.8651c0-3.0917-2.5074-5.5992-5.5992-5.5992H148.3337
		c-3.0917,0-5.5992,2.5075-5.5992,5.5992v35.1948c0,3.0917,2.5074,5.5992,5.5992,5.5992h145.4178
		C296.8433,120.6591,299.3507,118.1517,299.3507,115.0599z M288.1523,109.4608H153.9329V85.4643h134.2195V109.4608z"/>
	<path class="st0" d="M226.402,253.2789c0-41.7236-33.9451-75.6686-75.6686-75.6686c-41.7236,0-75.6686,33.945-75.6686,75.6686
		c0,41.7236,33.945,75.6686,75.6686,75.6686C192.4569,328.9475,226.402,295.0024,226.402,253.2789z M86.2631,253.2789
		c0-35.5495,28.9208-64.4703,64.4703-64.4703s64.4703,28.9208,64.4703,64.4703s-28.9208,64.4703-64.4703,64.4703
		S86.2631,288.8284,86.2631,253.2789z"/>
	<path class="st0" d="M288.1523,198.4072c0,3.0917,2.5074,5.5992,5.5992,5.5992h86.7077c3.0917,0,5.5992-2.5074,5.5992-5.5992
		s-2.5074-5.5992-5.5992-5.5992h-86.7077C290.6598,192.808,288.1523,195.3154,288.1523,198.4072z"/>
	<path class="st0" d="M380.4592,242.4008h-86.7077c-3.0917,0-5.5992,2.5074-5.5992,5.5992s2.5074,5.5992,5.5992,5.5992h86.7077
		c3.0917,0,5.5992-2.5074,5.5992-5.5992S383.551,242.4008,380.4592,242.4008z"/>
	<path class="st0" d="M380.4592,292.1529h-86.7077c-3.0917,0-5.5992,2.5074-5.5992,5.5992s2.5074,5.5992,5.5992,5.5992h86.7077
		c3.0917,0,5.5992-2.5074,5.5992-5.5992S383.551,292.1529,380.4592,292.1529z"/>
	<path class="st0" d="M191.4305,287.5411c3.6479-7.6973,2.5871-16.5445-2.709-23.0154
		c-6.3418-8.0234-14.8789-13.681-24.4464-16.4167c7.506-4.5449,12.534-12.7888,12.534-22.1855
		c0-14.2901-11.6264-25.9165-25.9165-25.9165s-25.9166,11.6264-25.9166,25.9165c0,9.398,5.0294,17.6428,12.5371,22.1873
		c-9.7747,2.7897-18.4911,8.6179-24.9337,16.9008c-5.0992,6.4725-6.0085,15.1462-2.3731,22.6357
		c3.7432,7.713,11.364,12.5045,19.8893,12.5045h41.4346C180.1197,300.1517,187.7451,295.3196,191.4305,287.5411z M136.1745,225.9235
		c0-8.116,6.6022-14.7181,14.7182-14.7181c8.116,0,14.7181,6.6022,14.7181,14.7181c0,8.116-6.6022,14.7182-14.7181,14.7182
		C142.7767,240.6417,136.1745,234.0395,136.1745,225.9235z M120.2815,282.7574c-1.7731-3.6526-1.3638-7.6957,1.1155-10.8422
		c7.1552-9.2003,17.9068-14.476,29.4957-14.476c11.4108,0,21.9968,5.1133,29.102,14.1026c2.6277,3.212,3.1199,7.3989,1.317,11.2031
		c-1.8435,3.8885-5.4992,6.2085-9.7814,6.2085h-41.4346C125.0761,288.9534,121.7344,285.7523,120.2815,282.7574z"/>
</g>
</svg>
