<?xml version="1.0" encoding="utf-8"?>
<!-- Generator: Adobe Illustrator 27.9.0, SVG Export Plug-In . SVG Version: 6.00 Build 0)  -->
<!DOCTYPE svg PUBLIC "-//W3C//DTD SVG 1.1//EN" "http://www.w3.org/Graphics/SVG/1.1/DTD/svg11.dtd" [
	<!ENTITY ns_extend "http://ns.adobe.com/Extensibility/1.0/">
	<!ENTITY ns_ai "http://ns.adobe.com/AdobeIllustrator/10.0/">
	<!ENTITY ns_graphs "http://ns.adobe.com/Graphs/1.0/">
	<!ENTITY ns_vars "http://ns.adobe.com/Variables/1.0/">
	<!ENTITY ns_imrep "http://ns.adobe.com/ImageReplacement/1.0/">
	<!ENTITY ns_sfw "http://ns.adobe.com/SaveForWeb/1.0/">
	<!ENTITY ns_custom "http://ns.adobe.com/GenericCustomNamespace/1.0/">
	<!ENTITY ns_adobe_xpath "http://ns.adobe.com/XPath/1.0/">
]>
<svg version="1.1" id="Layer_1" xmlns:x="&ns_extend;" xmlns:i="&ns_ai;" xmlns:graph="&ns_graphs;"
	 xmlns="http://www.w3.org/2000/svg" xmlns:xlink="http://www.w3.org/1999/xlink" x="0px" y="0px" width="200px" height="200px"
	 viewBox="0 0 200 200" style="enable-background:new 0 0 200 200;" xml:space="preserve">
<style type="text/css">
	.st0{fill:#FF5A00;}
	.st1{fill:#FFFFFF;}
</style>
<metadata>
	<sfw  xmlns="&ns_sfw;">
		<slices></slices>
		<sliceSourceBounds  bottomLeftOrigin="true" height="188.7" width="133.6" x="33.2" y="5.7"></sliceSourceBounds>
	</sfw>
</metadata>
<g>
	<g>
		<path class="st0" d="M33.6,6.1c0,0,25.1,0,25.6,0c0.5,0,68.9,0.6,68.9,0.6l38.2-0.3c0,0-0.1,9.6,0,15.2c0.1,5.6-0.4,26.9-0.5,29.4
			c-0.1,2.4-0.1,78.5-0.1,80.8c0,2.3-1.5,59.5-1.5,59.5s-5.5,0.4-9.7,0s-8.8,2.3-10.6,2.3c-1.8,0-73.3,0.5-80.4,0s-8.3-1-12.7-2
			c-4.4-1-13-1.8-15.3-2.1c0,0,0.4-34.5,1.1-39.4c0.7-4.9-1.2-57.7-1-61.7S35,56.9,34.9,53.4C34.8,49.8,33.6,6.1,33.6,6.1z"/>
		<path class="st1" d="M86.9,194.3c-13.4,0-21.2-0.1-23.4-0.2c-6-0.4-7.9-0.8-11-1.6c-0.6-0.1-1.2-0.3-1.8-0.4
			c-4.1-0.9-11.8-1.7-14.7-2L35,190l0-0.4c0-1.4,0.4-34.6,1.1-39.5c0.4-2.9-0.1-23.7-0.6-40.4c-0.3-11-0.5-19.6-0.4-21.2
			c0.2-4-0.6-31.3-0.7-35.1c-0.1-3.5-1.2-46.8-1.2-47.3l0-0.5h26c0.5,0,66.1,0.6,68.9,0.6L166.8,6l0,0.5c0,0.1-0.1,9.7,0,15.2
			c0.1,5.7-0.4,27-0.5,29.4c-0.1,2.4-0.1,77.6-0.1,80.8c0,2.3-1.4,57.2-1.5,59.5l0,0.4l-0.4,0c-0.1,0-5.6,0.4-9.7,0
			c-2.5-0.2-5.2,0.7-7.4,1.5c-1.4,0.5-2.4,0.8-3.2,0.8c-0.2,0-1.5,0-3.6,0C117.5,194.3,99.6,194.3,86.9,194.3z M35.9,189.2l0.1,0
			c2.9,0.3,10.7,1.1,14.8,2c0.7,0.2,1.3,0.3,1.8,0.4c3.1,0.7,4.9,1.1,10.8,1.5c4.1,0.3,29.9,0.3,76.7,0c2.1,0,3.4,0,3.6,0
			c0.6,0,1.7-0.4,2.9-0.8c2.3-0.8,5.1-1.8,7.8-1.5c3.4,0.3,7.8,0.1,9.2,0c0.1-5.2,1.5-56.9,1.5-59.1c0-8,0-78.4,0.1-80.8
			c0.1-2.4,0.6-23.6,0.5-29.3c-0.1-4.9,0-12.8,0-14.8l-37.7,0.3c-0.7,0-68.4-0.6-68.9-0.6H34.1c0.1,4.7,1.1,43.5,1.2,46.8
			c0.1,3.8,1,31.1,0.7,35.2c-0.1,1.6,0.1,10.6,0.4,21.2c0.4,16.7,1,37.5,0.5,40.6C36.4,154.8,36,185.3,35.9,189.2z"/>
	</g>
	<g>
		<path class="st0" d="M41,21.8c0,0,22.3,0,22.8,0c0.4,0,61.3,0.6,61.3,0.6l34-0.3c0,0-0.1,8.5,0,13.5s-0.3,24-0.4,26.1
			s-0.1,69.8-0.1,71.9s-1.3,52.9-1.3,52.9s-4.9,0.3-8.6,0s-7.8,2.1-9.5,2.1c-1.6,0-65.2,0.4-71.6,0s-7.4-0.9-11.3-1.7
			c-3.9-0.9-11.5-1.6-13.6-1.9c0,0,0.3-30.7,1-35.1c0.7-4.4-1.1-51.3-0.9-54.9c0.2-3.6-0.5-28.1-0.7-31.3C41.9,60.7,41,21.8,41,21.8
			z"/>
		<path class="st1" d="M88.3,189.3c-12,0-18.9-0.1-20.8-0.2c-5.4-0.4-7-0.8-9.8-1.4c-0.5-0.1-1-0.2-1.6-0.4
			c-3.6-0.8-10.5-1.5-13.1-1.8l-0.9-0.1l0-0.4c0-1.3,0.3-30.8,1-35.1c0.4-2.6-0.1-21.1-0.5-36c-0.3-9.8-0.5-17.5-0.4-18.9
			c0.2-3.6-0.5-27.9-0.7-31.2c-0.1-3.1-1.1-41.7-1.1-42l0-0.5h23.2c0.4,0,58.8,0.5,61.3,0.6l34.4-0.3l0,0.5c0,0.1-0.1,8.6,0,13.5
			c0.1,5.1-0.3,24.1-0.4,26.2c-0.1,2.1-0.1,69-0.1,71.9c0,2.1-1.3,50.9-1.3,52.9l0,0.4l-0.4,0c0,0-5,0.3-8.7,0
			c-2.2-0.2-4.6,0.6-6.6,1.3c-1.2,0.4-2.2,0.8-2.9,0.8c-0.2,0-1.4,0-3.2,0C115.6,189.3,99.7,189.3,88.3,189.3z M43.1,184.7
			L43.1,184.7c2.7,0.3,9.6,1,13.3,1.8c0.6,0.1,1.1,0.3,1.6,0.4c2.8,0.6,4.3,1,9.6,1.4c3.7,0.3,26.6,0.3,68.3,0c1.9,0,3,0,3.2,0
			c0.5,0,1.5-0.3,2.6-0.7c2-0.7,4.5-1.6,6.9-1.4c3,0.3,6.9,0.1,8.1,0c0.1-4.9,1.3-50.6,1.3-52.5c0-7.1,0-69.8,0.1-71.9
			c0.1-2.1,0.5-21,0.4-26.1c-0.1-4.3,0-11.3,0-13.1l-33.5,0.3c-0.6,0-60.9-0.6-61.3-0.6H41.4c0.1,4.4,1,38.6,1.1,41.6
			c0.1,3.3,0.9,27.7,0.7,31.3c-0.1,1.4,0.1,9.5,0.4,18.8c0.4,14.9,0.9,33.4,0.5,36.1C43.4,154.1,43.1,181,43.1,184.7z"/>
	</g>
</g>
</svg>
