<?xml version="1.0" encoding="utf-8"?>
<!-- Generator: Adobe Illustrator 27.9.0, SVG Export Plug-In . SVG Version: 6.00 Build 0)  -->
<!DOCTYPE svg PUBLIC "-//W3C//DTD SVG 1.1//EN" "http://www.w3.org/Graphics/SVG/1.1/DTD/svg11.dtd" [
	<!ENTITY ns_extend "http://ns.adobe.com/Extensibility/1.0/">
	<!ENTITY ns_ai "http://ns.adobe.com/AdobeIllustrator/10.0/">
	<!ENTITY ns_graphs "http://ns.adobe.com/Graphs/1.0/">
	<!ENTITY ns_vars "http://ns.adobe.com/Variables/1.0/">
	<!ENTITY ns_imrep "http://ns.adobe.com/ImageReplacement/1.0/">
	<!ENTITY ns_sfw "http://ns.adobe.com/SaveForWeb/1.0/">
	<!ENTITY ns_custom "http://ns.adobe.com/GenericCustomNamespace/1.0/">
	<!ENTITY ns_adobe_xpath "http://ns.adobe.com/XPath/1.0/">
]>
<svg version="1.1" id="SSL_ILLUSTRATION" xmlns:x="&ns_extend;" xmlns:i="&ns_ai;" xmlns:graph="&ns_graphs;"
	 xmlns="http://www.w3.org/2000/svg" xmlns:xlink="http://www.w3.org/1999/xlink" x="0px" y="0px" width="600px" height="330px"
	 viewBox="0 0 600 330" style="enable-background:new 0 0 600 330;" xml:space="preserve">
<style type="text/css">
	.st0{fill:#FF6600;}
	.st1{fill:url(#SVGID_1_);}
	.st2{fill:#FFFFFF;}
	.st3{fill:none;stroke:#FFFFFF;stroke-width:2.798;}
	.st4{fill:url(#SVGID_00000168094028520199444240000005905404118001639304_);}
	.st5{fill:url(#SVGID_00000137818703353548437490000002303860299513595527_);}
	.st6{fill:url(#SVGID_00000020390580614053130400000001613021600656296368_);}
	.st7{fill:url(#SVGID_00000124841467355780322310000009819357984637432214_);}
	.st8{fill:url(#SVGID_00000018201294236183507510000009764649774765154698_);}
	.st9{fill:url(#SVGID_00000101807341086734449990000015158067835498258348_);}
</style>
<metadata>
	<sfw  xmlns="&ns_sfw;">
		<slices></slices>
		<sliceSourceBounds  bottomLeftOrigin="true" height="367.2" width="600" x="0" y="0"></sliceSourceBounds>
	</sfw>
</metadata>
<rect y="0" class="st0" width="600" height="330"/>
<g>
	<g>
		
			<radialGradient id="SVGID_1_" cx="244.1807" cy="234.9994" r="37.8047" gradientTransform="matrix(1 0 0 -1 0 331.2756)" gradientUnits="userSpaceOnUse">
			<stop  offset="4.475343e-07" style="stop-color:#FFFFFF;stop-opacity:0"/>
			<stop  offset="0.1022" style="stop-color:#F3F3F3;stop-opacity:3.070000e-02"/>
			<stop  offset="0.2882" style="stop-color:#D3D2D2;stop-opacity:8.650000e-02"/>
			<stop  offset="0.537" style="stop-color:#9F9E9E;stop-opacity:0.1611"/>
			<stop  offset="0.8358" style="stop-color:#595656;stop-opacity:0.2507"/>
			<stop  offset="1" style="stop-color:#2F2B2C;stop-opacity:0.3"/>
		</radialGradient>
		<path class="st1" d="M219.9,53.2h48.5c4,0,7.4,3.3,7.4,7.4V132c0,4-3.3,7.4-7.4,7.4h-48.5c-4,0-7.4-3.3-7.4-7.4V60.6
			C212.5,56.5,215.8,53.2,219.9,53.2z"/>
		<path class="st2" d="M218,51.5h48.5c4,0,7.4,3.3,7.4,7.4v71.4c0,4-3.3,7.4-7.4,7.4H218c-4,0-7.4-3.3-7.4-7.4V58.9
			C210.6,54.8,213.9,51.5,218,51.5z"/>
		<path class="st0" d="M250.6,76.1c-4.3,0-8.5,0-12.8,0c-0.7,0-1.3-0.3-1.5-0.9c-0.2-0.6-0.1-1.5,0.4-1.8c0.3-0.2,0.8-0.3,1.2-0.3
			c4.5,0,9.1,0,13.7,0c3.8,0,7.7,0,11.6,0c1.1,0,1.7,0.6,1.7,1.6c0,0.8-0.6,1.5-1.5,1.5c-2,0-4,0-6.1,0
			C255.2,76.1,252.9,76.1,250.6,76.1L250.6,76.1z"/>
		<path class="st0" d="M250.6,91.8c-4.1,0-8.2,0-12.4,0c-0.3,0-0.7,0-1-0.1c-0.7-0.2-1-0.9-0.9-1.7c0.1-0.7,0.6-1.3,1.3-1.3
			c0.6-0.1,1.2,0,1.8,0c7.9,0,15.8,0,23.7,0c1.1,0,1.7,0.6,1.7,1.5c0,0.9-0.6,1.5-1.5,1.5c-2.4,0-4.7,0-7.1,0
			C254.4,91.8,252.5,91.8,250.6,91.8"/>
		<path class="st0" d="M250.6,107.5c-4.3,0-8.4,0-12.7,0c-1.1,0-1.7-0.8-1.5-1.9c0.1-0.7,0.6-1.2,1.5-1.2s1.7,0,2.4,0
			c7.6,0,15.3,0,22.9,0c0.3,0,0.7,0.1,1,0.2c0.6,0.3,0.9,1,0.8,1.7c-0.1,0.7-0.7,1.1-1.5,1.1c-2.7,0-5.4,0-8.2,0L250.6,107.5
			L250.6,107.5z"/>
		<path class="st0" d="M225.3,106.4L225.3,106.4c-0.7,0-1.5,0-2.2,0c-0.9,0-2.1,0.6-2,2c0.1,1.3,0,2.7,0,4c0,1.3,0.8,2.1,2.1,2.1
			c1.3,0,2.7,0,4,0c1.2,0,2-0.6,2-1.8c0.1-1.5,0.1-3.1,0-4.6c-0.1-1-0.8-1.6-1.8-1.7C226.7,106.4,226,106.4,225.3,106.4
			 M231.2,110.5c0,0.7,0,1.5,0,2.2c0,2-1.4,3.6-3.3,3.8c-1.7,0.1-3.6,0.1-5.4,0c-1.9-0.1-3.3-1.9-3.3-3.8c0-1.4,0-2.9,0-4.3
			c0-2.1,1.5-3.8,3.6-3.9c1.7-0.1,3.4-0.1,5.2,0c1.7,0.1,3.2,1.7,3.3,3.5C231.2,108.8,231.2,109.6,231.2,110.5L231.2,110.5
			L231.2,110.5z"/>
		<path class="st0" d="M225.3,90.7L225.3,90.7c-0.8,0.1-1.5,0-2.2,0.1c-1.3,0-2,0.8-2,2c0,1.3,0,2.7,0,4c0,1.2,0.9,2,2.1,2.1
			c1.4,0,2.7,0,4.1,0c0.8,0,1.3-0.3,1.7-1.1c0.1-0.3,0.2-0.8,0.2-1.1c0-1.3,0-2.7,0-4c0-0.2,0-0.4-0.1-0.6c-0.1-0.8-0.9-1.3-1.6-1.3
			C226.8,90.7,226.1,90.7,225.3,90.7 M231.1,94.6c0,1,0.1,2,0,3c-0.3,1.7-1.6,3-3.3,3.1c-1.7,0.1-3.4,0.1-5.1-0.1
			c-1.9-0.1-3.3-1.9-3.4-3.8c0-1.3,0.1-2.7,0-4c-0.1-2.4,1.9-3.9,3.6-4c1.7-0.1,3.4-0.1,5.1,0c1.8,0.1,3.2,1.6,3.3,3.5
			c0,0.8,0,1.5,0,2.3C231.1,94.6,231.1,94.6,231.1,94.6"/>
		<path class="st0" d="M228.8,73.2c-0.6,0.6-1,1-1.5,1.5c-0.1,0.1-0.3,0.1-0.5,0.1c-1.2,0-2.4,0-3.6,0c-1.3,0-2.1,0.8-2.1,2.1
			s0,2.6,0,3.9c0,1.3,0.8,2.1,2.1,2.1c1.3,0,2.7,0,4,0c1.3,0,2-0.7,2-2c0-0.6,0-1.1,0-1.7c0-0.1,0.1-0.3,0.1-0.4
			c0.6-0.6,1.1-1.2,1.7-1.8c0.1,0.2,0.1,0.3,0.1,0.3c0,1.3,0,2.4,0,3.7c-0.1,2-1.5,3.6-3.5,3.8c-1.7,0.1-3.3,0.1-5,0
			c-2-0.1-3.4-1.9-3.5-3.8c0-1.5,0-2.9,0-4.3c0-1.8,1.5-3.6,3.3-3.6c1.9-0.1,3.8,0,5.7,0C228.3,73.1,228.5,73.1,228.8,73.2"/>
		<path class="st0" d="M244.4,97.1c-2.2,0-4.4,0-6.6,0c-1.3,0-2-1.3-1.3-2.4c0.3-0.5,0.8-0.7,1.3-0.7c3.1,0,6.3,0,9.4,0
			c1.2,0,2.4,0,3.6,0c1,0,1.7,0.6,1.7,1.5c0,1-0.6,1.5-1.7,1.5C248.7,97.1,246.5,97.1,244.4,97.1"/>
		<path class="st0" d="M244.4,78.2c2.2,0,4.3,0,6.5,0c0.9,0,1.5,0.6,1.5,1.5c0,1-0.6,1.6-1.5,1.6c-4.4,0-8.7,0-13.1,0
			c-0.9,0-1.5-0.6-1.5-1.6c0-0.9,0.6-1.5,1.5-1.5C240,78.2,242.3,78.2,244.4,78.2"/>
		<path class="st0" d="M244.4,109.7c2.2,0,4.3,0,6.5,0c1,0,1.6,0.6,1.6,1.5s-0.6,1.6-1.6,1.6c-4.3,0-8.7,0-13,0
			c-1.2,0-1.9-1.1-1.5-2.2c0.3-0.6,0.8-0.9,1.4-0.9C240,109.7,242.2,109.7,244.4,109.7"/>
		<path class="st0" d="M225.2,78.6c0.5-0.6,1-1,1.4-1.5c1.4-1.4,2.8-2.9,4.3-4.3c0.3-0.3,0.7-0.4,1.1-0.2c0.4,0.2,0.6,0.6,0.6,1
			c-0.1,0.2-0.1,0.5-0.3,0.6c-2.1,2.1-4.1,4.2-6.2,6.3c-0.5,0.5-1,0.5-1.5,0s-0.9-0.9-1.4-1.4c-0.4-0.4-0.4-1,0-1.4
			c0.4-0.3,1-0.3,1.4,0C224.7,78,225,78.3,225.2,78.6"/>
		<line class="st3" x1="241.1" y1="64.7" x2="241.1" y2="-37.2"/>
	</g>
	<g>
		
			<radialGradient id="SVGID_00000093172733039607711970000003387689835091196581_" cx="182.4065" cy="267.4927" r="41.0776" gradientTransform="matrix(1 0 0 -1 0 331.2756)" gradientUnits="userSpaceOnUse">
			<stop  offset="4.475343e-07" style="stop-color:#FFFFFF;stop-opacity:0"/>
			<stop  offset="0.1022" style="stop-color:#F3F3F3;stop-opacity:3.070000e-02"/>
			<stop  offset="0.2882" style="stop-color:#D3D2D2;stop-opacity:8.650000e-02"/>
			<stop  offset="0.537" style="stop-color:#9F9E9E;stop-opacity:0.1611"/>
			<stop  offset="0.8358" style="stop-color:#595656;stop-opacity:0.2507"/>
			<stop  offset="1" style="stop-color:#2F2B2C;stop-opacity:0.3"/>
		</radialGradient>
		<path style="fill:url(#SVGID_00000093172733039607711970000003387689835091196581_);" d="M151,29.4c0,0-6.7,1.5-5.2,8.2l15.1,65.7
			c0,0,1.5,6.7,8.2,5.2l44.7-10.3c0,0,6.7-1.5,5.2-8.2l-15.1-65.7c0,0-1.5-6.7-8.2-5.2C195.6,19.1,151,29.4,151,29.4z"/>
		<line class="st3" x1="175" y1="43.4" x2="175" y2="-35.7"/>
		<path class="st2" d="M149.1,27.7c0,0-6.7,1.5-5.2,8.2l15.1,65.7c0,0,1.5,6.7,8.2,5.2L212,96.5c0,0,6.7-1.5,5.2-8.2l-15.1-65.7
			c0,0-1.5-6.7-8.2-5.2C193.7,17.4,149.1,27.7,149.1,27.7z"/>
		<path class="st0" d="M176.4,72.1c0.3-1.4,0.6-2.7,0.9-4.1c0.1-0.7,0.5-1.2,1.1-1.4c0.2-0.1,0.1-0.2,0.2-0.3c0.6-3.1,1-6.3,1.6-9.4
			c0.4-2.5,0.8-5,1.3-7.5c0.1-0.3,0.1-0.3,0.3-0.3c0.3,0.1,0.6,0.1,0.9,0.1s0.3,0.1,0.3,0.4c-0.8,4.7-1.6,9.4-2.4,14.1
			c-0.1,0.9-0.3,1.8-0.5,2.7c-0.1,0.2,0,0.3,0.1,0.5c0.5,0.4,0.6,1,0.5,1.7c-0.6,2.5-1.1,5-1.7,7.5c-0.3,1.4-1.6,1.9-2.9,1
			c-0.7-0.5-1.2-1.1-1.7-1.7c-0.5-0.5-1-1-1.5-1.5c-0.2-0.2-0.3-0.3-0.6-0.1c-0.5,0.3-0.5,0.3-0.3,0.8c0.8,1.5,1.5,3,2.3,4.5
			c0.6,1.2,1.3,2.4,1.9,3.6c0.1,0.2,0.1,0.3-0.1,0.5c-4.2,2.1-8.4,4.3-12.6,6.4c-0.2,0.1-0.3,0.1-0.4-0.1c-1.6-3.2-3.2-6.4-4.8-9.6
			c-0.6-1.1-0.8-2.3-0.6-3.5c0.3-1.3,1-2.2,2.1-2.9c1-0.7,2.2-1.1,3.2-1.7c1.5-0.8,3-1.5,4.5-2.3c2.7-1.3,5.6-0.8,7.6,1.3
			C175.7,71.3,176,71.6,176.4,72.1"/>
		<path class="st0" d="M173.5,45c5.7-2.9,11.4-5.8,17.1-8.7c0.9-0.5,1.7-0.1,2.1,0.7c4.9,9.6,9.8,19.3,14.7,28.9
			c0.5,0.9,0.2,1.6-0.7,2.1c-8.9,4.5-17.8,9.1-26.7,13.6c-0.3,0.1-0.4,0.1-0.6-0.2c-0.3-0.6-0.6-1.2-0.9-1.7
			c-0.1-0.1-0.1-0.3,0.1-0.3c0.1,0,0.1-0.1,0.3-0.1c8.4-4.3,16.8-8.6,25.2-12.8c0.5-0.2,0.4-0.1,0.2-0.6
			c-4.5-8.7-8.9-17.4-13.3-26.1c-0.1-0.3-0.3-0.3-0.6-0.2c-10.5,5.4-21,10.7-31.5,16.1c-0.5,0.2-0.4,0.1-0.2,0.6
			c0.4,0.8,0.8,1.5,1.2,2.3c0.1,0.2,0.1,0.3-0.1,0.4c-0.6,0.3-1.2,0.6-1.8,0.9c-0.2,0.1-0.3,0.1-0.4-0.1c-0.6-1.3-1.3-2.6-2-3.9
			c-0.3-0.8-0.1-1.5,0.6-1.9C162,50.8,167.8,47.9,173.5,45"/>
		<path class="st0" d="M160.3,61.9c2.2-1.2,5-0.3,6.2,2c1.2,2.2,0.3,5-2,6.2c-2.2,1.1-5,0.2-6.1-2C157.1,65.8,158,63.1,160.3,61.9"
			/>
	</g>
	<g>
		
			<radialGradient id="SVGID_00000180334152532446250060000012920537119066692254_" cx="369.0071" cy="263.4104" r="39.5027" gradientTransform="matrix(1 0 0 -1 0 331.2756)" gradientUnits="userSpaceOnUse">
			<stop  offset="4.475343e-07" style="stop-color:#FFFFFF;stop-opacity:0"/>
			<stop  offset="0.1022" style="stop-color:#F3F3F3;stop-opacity:3.070000e-02"/>
			<stop  offset="0.2882" style="stop-color:#D3D2D2;stop-opacity:8.650000e-02"/>
			<stop  offset="0.537" style="stop-color:#9F9E9E;stop-opacity:0.1611"/>
			<stop  offset="0.8358" style="stop-color:#595656;stop-opacity:0.2507"/>
			<stop  offset="1" style="stop-color:#2F2B2C;stop-opacity:0.3"/>
		</radialGradient>
		<path style="fill:url(#SVGID_00000180334152532446250060000012920537119066692254_);" d="M341.5,27.8c0,0-7.1,0.6-6.5,7.7
			l6.1,70.1c0,0,0.6,7.1,7.7,6.5l47.7-4.2c0,0,7.1-0.6,6.5-7.7l-6.1-70.1c0,0-0.6-7.1-7.7-6.5C389.1,23.7,341.5,27.8,341.5,27.8z"/>
		<line class="st3" x1="366.7" y1="43.4" x2="366.7" y2="-35.7"/>
		<path class="st2" d="M339.6,26.1c0,0-7.1,0.6-6.5,7.7l6.1,70.1c0,0,0.6,7.1,7.7,6.5l47.7-4.2c0,0,7.1-0.6,6.5-7.7L395,28.4
			c0,0-0.6-7.1-7.7-6.5C387.3,22,339.6,26.1,339.6,26.1z"/>
		<path class="st0" d="M367.4,77.6L367.4,77.6c0.5,0,1-0.1,1.5,0c0.5,0.1,0.7-0.1,0.8-0.7c0.6-2.7,1.7-5,3.6-7c1-1,1.7-2.2,2.5-3.3
			c1.1-1.9,1.5-4,1.1-6.3c-1.3-6.8-8.4-10.8-14.6-8.1c-4.5,2-6.9,7.1-5.7,11.9c0.6,2.3,2,4.3,3.8,5.8c2.2,2,3.8,4.5,4.7,7.3
			c0.1,0.3,0.2,0.4,0.5,0.3C366.2,77.6,366.7,77.6,367.4,77.6 M372.7,80.9c-3.4,0.1-6.8,0.1-10.1,0.2c-0.2-1-0.3-2.1-0.6-3.1
			c-0.6-2-1.6-3.6-3.1-5c-2.2-2-4.1-4.3-5.2-7.2c-2.1-6,0.3-12.8,5.9-16.1c8.2-4.8,18.9,0.3,20.7,9.9c0.7,3.7-0.1,7-2.2,10
			c-0.7,1-1.4,2-2.3,2.8c-1.8,1.8-2.6,4-2.9,6.6C372.8,79.7,372.8,80.3,372.7,80.9"/>
		<path class="st0" d="M371.6,91.5c-0.3,1.4-0.6,1.7-2,1.7c-1,0-1.9,0.1-2.9,0.1c-1.3,0-1.7-0.4-2-1.6c-1.3-0.3-1.7-0.8-1.8-1.8
			c0-1,0.6-1.7,1.5-1.7c2.4-0.1,4.7-0.1,7.1-0.1c0.8,0,1.5,0.6,1.6,1.5c0.1,0.9-0.3,1.7-1.1,1.9C371.9,91.4,371.8,91.5,371.6,91.5"
			/>
		<path class="st0" d="M341,64.2c-0.1-1.2-0.1-2.2-0.1-3.4c3.4-0.1,6.8-0.1,10.3-0.2c0.1,1.1,0.1,2.2,0.1,3.4
			C347.8,64,344.4,64.1,341,64.2"/>
		<path class="st0" d="M392.3,59.6c0.1,1.1,0.1,2.2,0.1,3.3c-3.4,0.1-6.8,0.1-10.3,0.2c-0.1-1.1-0.1-2.2-0.1-3.3
			C385.5,59.8,388.9,59.7,392.3,59.6"/>
		<path class="st0" d="M367.9,86.3c-1.1,0-2.2,0.1-3.3,0.1c-1.2,0-1.9-0.6-2-1.7c-0.1-1,0.6-1.7,1.7-1.7c2.2-0.1,4.5-0.1,6.6-0.1
			c1.3,0,2.2,1,1.7,2.4c-0.2,0.7-0.8,1-1.5,1.1C370.2,86.2,369,86.3,367.9,86.3"/>
		<path class="st0" d="M354.9,48.7c-0.7,0.8-1.4,1.5-2.2,2.3c-2.1-2-4.3-4-6.4-6c0.7-0.8,1.4-1.5,2.1-2.4
			C350.7,44.6,352.9,46.7,354.9,48.7"/>
		<path class="st0" d="M379.4,50.4c-0.8-0.8-1.6-1.5-2.4-2.2c2-2.1,3.8-4.3,5.8-6.4c0.8,0.7,1.5,1.5,2.3,2.2
			C383.3,46.2,381.3,48.3,379.4,50.4"/>
		<path class="st0" d="M356.4,75.6c-1.9,2-3.8,4.2-5.7,6.2c-0.8-0.8-1.6-1.5-2.4-2.3c1.9-2,3.8-4.2,5.7-6.3
			C354.8,74,355.6,74.8,356.4,75.6"/>
		<path class="st0" d="M378.3,75c0.7-0.8,1.5-1.6,2.3-2.5c2.1,2,4.3,4,6.4,6.1c-0.8,0.8-1.5,1.7-2.2,2.4C382.5,79,380.4,77,378.3,75
			"/>
		<path class="st0" d="M367.6,46.1c-1.1,0-2.2,0.1-3.3,0.1c-0.1-2.3-0.2-4.5-0.3-6.9c1.1,0,2.2-0.1,3.3-0.1
			C367.3,41.5,367.4,43.8,367.6,46.1"/>
	</g>
	<g>
		
			<radialGradient id="SVGID_00000158010193049805349030000011001578124477998513_" cx="506.658" cy="252.9427" r="34.712" gradientTransform="matrix(1 0 0 -1 0 331.2756)" gradientUnits="userSpaceOnUse">
			<stop  offset="4.475343e-07" style="stop-color:#FFFFFF;stop-opacity:0"/>
			<stop  offset="0.1022" style="stop-color:#F3F3F3;stop-opacity:3.070000e-02"/>
			<stop  offset="0.2882" style="stop-color:#D3D2D2;stop-opacity:8.650000e-02"/>
			<stop  offset="0.537" style="stop-color:#9F9E9E;stop-opacity:0.1611"/>
			<stop  offset="0.8358" style="stop-color:#595656;stop-opacity:0.2507"/>
			<stop  offset="1" style="stop-color:#2F2B2C;stop-opacity:0.3"/>
		</radialGradient>
		<path style="fill:url(#SVGID_00000158010193049805349030000011001578124477998513_);" d="M482.5,43.1c0,0-6.3,0.6-5.7,6.8
			l5.4,61.5c0,0,0.6,6.3,6.8,5.7l41.9-3.6c0,0,6.3-0.6,5.7-6.8l-5.4-61.5c0,0-0.6-6.3-6.8-5.7C524.3,39.5,482.5,43.1,482.5,43.1z"/>
		<line class="st3" x1="500.8" y1="43.4" x2="500.8" y2="-37"/>
		<path class="st2" d="M480.6,41.4c0,0-6.3,0.6-5.7,6.8l5.4,61.5c0,0,0.6,6.3,6.8,5.7l41.9-3.6c0,0,6.3-0.6,5.7-6.8l-5.4-61.5
			c0,0-0.6-6.3-6.8-5.7L480.6,41.4z"/>
		<path class="st0" d="M510.6,101.2l-10,0.9l-0.9-10l10-0.9L510.6,101.2z M489.3,54.9c3.6-1.7,7.3-2.7,11-2.9
			c9.5-0.8,15.9,2.7,16.7,11.2c0.3,4.1-0.8,7.2-4.5,12.6c-3.6,5-4,7-3.8,9.7l0.1,0.6l-9.1,0.8l-0.1-0.8c-0.4-4.4,0.1-6.5,4-12.5
			c2-3.1,3-5.3,2.8-7.7c-0.3-4-3.3-5.5-7.6-5.2c-2.8,0.3-5.7,1.2-8.2,2.7L489.3,54.9L489.3,54.9z"/>
	</g>
	<g>
		
			<radialGradient id="SVGID_00000016053918792193361130000001842471670150597539_" cx="305.3879" cy="236.1947" r="39.0053" gradientTransform="matrix(1 0 0 -1 0 331.2756)" gradientUnits="userSpaceOnUse">
			<stop  offset="4.475343e-07" style="stop-color:#FFFFFF;stop-opacity:0"/>
			<stop  offset="0.1022" style="stop-color:#F3F3F3;stop-opacity:3.070000e-02"/>
			<stop  offset="0.2882" style="stop-color:#D3D2D2;stop-opacity:8.650000e-02"/>
			<stop  offset="0.537" style="stop-color:#9F9E9E;stop-opacity:0.1611"/>
			<stop  offset="0.8358" style="stop-color:#595656;stop-opacity:0.2507"/>
			<stop  offset="1" style="stop-color:#2F2B2C;stop-opacity:0.3"/>
		</radialGradient>
		<path style="fill:url(#SVGID_00000016053918792193361130000001842471670150597539_);" d="M300,54c0,0-5.7-2.3-8,3.3l-22.5,55.6
			c0,0-2.3,5.7,3.3,8l37.8,15.3c0,0,5.7,2.3,8-3.3l22.5-55.6c0,0,2.3-5.7-3.3-8L300,54z"/>
		<line class="st3" x1="314.8" y1="66.7" x2="314.8" y2="-37"/>
		<path class="st2" d="M298.1,52.3c0,0-5.7-2.3-8,3.3l-22.5,55.6c0,0-2.3,5.7,3.3,8l37.8,15.3c0,0,5.7,2.3,8-3.3l22.5-55.6
			c0,0,2.3-5.7-3.3-8C336,67.6,298.1,52.3,298.1,52.3z"/>
		<path class="st0" d="M280.6,103.4c0.8,0.3,1.6,0.6,2.5,1c-0.1,0.3-0.2,0.5-0.3,0.7c-0.6,1.4-1.1,2.7-1.7,4.1
			c-0.3,0.9-0.1,1.6,0.8,2c8.2,3.3,16.4,6.6,24.6,10c1,0.4,1.6,0.1,2-0.8c0.6-1.5,1.3-3.1,2-4.7c0.8,0.3,1.6,0.6,2.4,1
			c-0.1,0.1-0.1,0.3-0.1,0.4c-0.6,1.5-1.2,3-1.8,4.5c-0.9,2.2-3.1,3.2-5.4,2.3c-8.3-3.3-16.6-6.7-24.9-10c-1.7-0.7-2.7-2.2-2.6-4.1
			c0-0.1,0-0.3,0-0.5L280.6,103.4L280.6,103.4z"/>
		<path class="st0" d="M311.2,85.7c-1.1-0.4-2.2,0.8-3.6,4.4c-1.3,3.3-1.4,5-0.3,5.4c1.1,0.4,2.2-0.8,3.6-4.1
			C312.3,87.7,312.3,86.1,311.2,85.7"/>
		<path class="st0" d="M306.3,97.7c-3.1-1.3-3.6-4.5-1.7-9.1c1.8-4.5,4.4-6.6,7.6-5.3c3.2,1.3,3.4,4.6,1.6,9.1
			C312,97,309.6,99.1,306.3,97.7 M300.2,94.9l-3.1-1.3l3-7.4c0.5-1.2,1.2-2.7,1.5-3.3h-0.1c-0.6,0.2-1.7,0.5-2.9,0.8l-0.3-2.8l4.8-1
			l2.8,1.1L300.2,94.9L300.2,94.9z M323.6,100c-1.5-0.8-3-1.4-4.5-2c-1.3-0.6-2.7-1.1-4.2-1.7c0.2-0.6,0.4-1,0.6-1.4
			c2.1-5.2,4.1-10.3,6.3-15.5c0.9-2.2,1-4.4-0.3-6.5c-0.6-1-1.5-1.7-2.2-2.6c-3.6-1.5-7.3-2.9-11-4.5c-0.1,0-0.2,0.1-0.3,0.1
			c-4.1-0.2-6.3,1.2-7.9,5c-2,5-4,10.1-6.1,15.1c-0.1,0.4-0.3,0.8-0.6,1.4c-0.6-0.2-1-0.4-1.4-0.6c-2.4-0.9-4.9-1.9-7.3-2.7
			c-1.1-0.4-1.6,0.1-1.3,1.3c0.2,0.8,0.5,1.6,0.8,2.4c3,7.1,6,14.2,9.1,21.4c0.4,0.9,0.9,1.8,1.5,2.7c0.6,0.9,1.4,1.2,2.4,1
			c0.6-0.1,1.2-0.3,1.7-0.5c7.9-3.3,15.8-6.6,23.7-10c0.4-0.2,0.8-0.4,1.3-0.7C324.5,101.1,324.5,100.5,323.6,100"/>
	</g>
	<g>
		
			<radialGradient id="SVGID_00000120550679929425466180000007149887503580430214_" cx="108.7491" cy="246.9064" r="49.6806" gradientTransform="matrix(1 0 0 -1 0 331.2756)" gradientUnits="userSpaceOnUse">
			<stop  offset="4.475343e-07" style="stop-color:#FFFFFF;stop-opacity:0"/>
			<stop  offset="0.1022" style="stop-color:#F3F3F3;stop-opacity:3.070000e-02"/>
			<stop  offset="0.2882" style="stop-color:#D3D2D2;stop-opacity:8.650000e-02"/>
			<stop  offset="0.537" style="stop-color:#9F9E9E;stop-opacity:0.1611"/>
			<stop  offset="0.8358" style="stop-color:#595656;stop-opacity:0.2507"/>
			<stop  offset="1" style="stop-color:#2F2B2C;stop-opacity:0.3"/>
		</radialGradient>
		<path style="fill:url(#SVGID_00000120550679929425466180000007149887503580430214_);" d="M87,29.3c0,0-8.7-1.2-9.8,7.5l-11.9,84.8
			c0,0-1.2,8.7,7.5,9.8l57.7,8.1c0,0,8.7,1.2,9.8-7.5l11.9-84.8c0,0,1.2-8.7-7.5-9.8L87,29.3L87,29.3z"/>
		<line class="st3" x1="112" y1="43.4" x2="112" y2="-35.7"/>
		<path class="st2" d="M85.2,27.6c0,0-8.7-1.2-9.8,7.5l-11.9,84.8c0,0-1.2,8.7,7.5,9.8l57.7,8.1c0,0,8.7,1.2,9.8-7.5l11.9-84.7
			c0,0,1.2-8.7-7.5-9.8L85.2,27.6L85.2,27.6z"/>
		<path class="st0" d="M84.9,106.9c11.7,1.9,23.4,3.7,35,5.5c2.2-13.7,4.3-27.3,6.5-40.9c-11.7-1.9-23.3-3.7-35-5.5
			C89.2,79.6,87,93.1,84.9,106.9 M99,55.7c-0.4,4.5,1,6.4,5.2,7c3.8,0.6,7.6,1.2,11.4,1.8c3.7,0.6,5.7-0.8,6.6-4.5
			c0.1-0.1,0.1-0.3,0.2-0.4c2.6,0.4,5.2,0.6,7.7,1.3c2.2,0.6,2.9,2.5,2.5,5c-2.1,13.1-4.1,26.2-6.2,39.4c-0.4,2.9-0.9,5.7-1.3,8.5
			c-0.5,3.1-2.2,4.4-5.3,3.9c-12-1.9-24-3.8-36.1-5.7c-3.1-0.5-4.3-2.2-3.8-5.2c2.5-16.1,5.1-32.3,7.7-48.4c0.5-3,2-4,5-3.6
			C94.6,55,96.7,55.4,99,55.7"/>
		<path class="st0" d="M108.4,101.3c2.4,0.4,5,0.8,7.4,1.2c1,0.1,1.6,0.6,1.4,1.7s-0.8,1.5-2,1.3c-4.9-0.8-9.8-1.6-14.7-2.3
			c-1-0.1-1.7-0.5-1.5-1.8c0.2-1.4,1-1.5,2.1-1.3C103.5,100.5,106,100.9,108.4,101.3C108.4,101.2,108.4,101.3,108.4,101.3"/>
		<path class="st0" d="M110,92.1c2.4,0.4,4.8,0.8,7.3,1.1c1,0.1,1.6,0.6,1.4,1.7c-0.2,1.2-0.8,1.5-2,1.3c-4.9-0.8-9.8-1.5-14.7-2.3
			c-1-0.1-1.7-0.5-1.5-1.7c0.2-1.4,1-1.5,2.1-1.3C105.1,91.3,107.6,91.7,110,92.1L110,92.1"/>
		<path class="st0" d="M110.7,86.8c-2.5-0.4-5-0.8-7.5-1.2c-1-0.1-1.5-0.6-1.3-1.7c0.1-1.1,0.7-1.5,1.8-1.3c5,0.8,10,1.6,15.1,2.4
			c1,0.1,1.4,0.6,1.2,1.7c-0.1,1-0.6,1.4-1.7,1.3C115.7,87.6,113.2,87.3,110.7,86.8"/>
		<path class="st0" d="M112.7,74.7c2.4,0.4,5,0.8,7.4,1.2c1,0.1,1.5,0.6,1.3,1.7c-0.1,1-0.6,1.5-1.7,1.3c-5.1-0.8-10.2-1.6-15.3-2.4
			c-1-0.1-1.4-0.7-1.2-1.7c0.1-1,0.7-1.4,1.7-1.2C107.6,73.9,110.1,74.3,112.7,74.7"/>
		<path class="st0" d="M96.9,73.7c1.2-1,2.3-2,3.4-2.8c0.3-0.3,1-0.1,1.5-0.1c-0.1,0.5-0.1,1.1-0.5,1.4c-1.2,1.1-2.5,2.2-3.8,3.2
			c-0.6,0.6-1.2,0.5-1.7-0.1c-0.5-0.6-1.2-1.2-1.6-1.9c-0.2-0.3,0-0.9,0-1.3c0.4,0.1,0.9,0,1.2,0.2C96,72.6,96.3,73.2,96.9,73.7"/>
		<path class="st0" d="M94.1,91.5c1.3-1,2.3-2,3.5-2.8c0.3-0.2,1-0.1,1.5-0.1c-0.1,0.4-0.1,1-0.4,1.3c-1.3,1.2-2.5,2.3-3.9,3.3
			c-0.3,0.2-1.1,0.3-1.5,0c-0.7-0.6-1.3-1.3-1.8-2c-0.2-0.3-0.1-0.8-0.1-1.3c0.4,0.1,1-0.1,1.3,0.1C93.2,90.4,93.5,91,94.1,91.5"/>
		<path class="st0" d="M95.5,82.9c1.2-1,2.2-1.9,3.3-2.7c0.4-0.3,1-0.2,1.6-0.3c-0.1,0.5-0.2,1.2-0.6,1.5c-1.2,1.1-2.4,2.2-3.7,3.1
			c-0.3,0.3-1.3,0.2-1.7-0.1c-0.7-0.5-1.3-1.2-1.7-2c-0.2-0.3,0-0.8,0.1-1.3c0.4,0,0.9-0.1,1.2,0.1C94.5,81.7,94.9,82.2,95.5,82.9"
			/>
		<path class="st0" d="M92.7,100.3c1.1-0.9,2.2-1.8,3.3-2.7c0.4-0.3,1-0.2,1.5-0.3c-0.2,0.6-0.2,1.3-0.6,1.6c-1.1,1-2.4,2-3.5,3
			c-0.7,0.6-1.2,0.6-1.8-0.1c-0.5-0.6-1.1-1.1-1.5-1.7c-0.2-0.3-0.1-1-0.1-1.5c0.4,0.1,1,0.1,1.3,0.3
			C91.9,99.3,92.2,99.8,92.7,100.3"/>
		<path class="st0" d="M117.4,56.6c-1.7-0.3-2.5-1.3-2.7-3c-0.1-1.7-1.5-3.1-3-3.2c-1.6-0.2-3.1,0.8-3.7,2.2c-0.6,1.5-1.7,2.2-3.2,2
			c-2-0.3-3.5,0.6-3.8,2.4c-0.3,1.8,0.7,3.1,2.8,3.6c2,0.3,4.1,0.7,6.2,1c2.2,0.3,4.3,0.8,6.5,1c2,0.2,3.3-0.8,3.6-2.6
			C120.3,58.2,119.2,56.9,117.4,56.6"/>
	</g>
	<g>
		
			<radialGradient id="SVGID_00000121269122212427312050000016019191498663296945_" cx="439.8932" cy="227.7857" r="49.6806" gradientTransform="matrix(1 0 0 -1 0 331.2756)" gradientUnits="userSpaceOnUse">
			<stop  offset="4.475343e-07" style="stop-color:#FFFFFF;stop-opacity:0"/>
			<stop  offset="0.1022" style="stop-color:#F3F3F3;stop-opacity:3.070000e-02"/>
			<stop  offset="0.2882" style="stop-color:#D3D2D2;stop-opacity:8.650000e-02"/>
			<stop  offset="0.537" style="stop-color:#9F9E9E;stop-opacity:0.1611"/>
			<stop  offset="0.8358" style="stop-color:#595656;stop-opacity:0.2507"/>
			<stop  offset="1" style="stop-color:#2F2B2C;stop-opacity:0.3"/>
		</radialGradient>
		<path style="fill:url(#SVGID_00000121269122212427312050000016019191498663296945_);" d="M418.2,48.4c0,0-8.7-1.2-9.8,7.5
			l-11.9,84.8c0,0-1.2,8.7,7.5,9.8l57.7,8.1c0,0,8.7,1.2,9.8-7.5l11.9-84.8c0,0,1.2-8.7-7.5-9.8L418.2,48.4L418.2,48.4z"/>
		<line class="st3" x1="444.8" y1="69.8" x2="444.8" y2="-35.7"/>
		<path class="st2" d="M416.3,46.7c0,0-8.7-1.2-9.8,7.5L394.5,139c0,0-1.2,8.7,7.5,9.8l57.7,8.1c0,0,8.7,1.2,9.8-7.5l11.9-84.7
			c0,0,1.2-8.7-7.5-9.8L416.3,46.7L416.3,46.7z"/>
		<path class="st0" d="M419.3,113.7c4,7.5,11.7,7.8,16.9,2.4c1.9,1.1,3.8,2.2,5.8,3.4c1.3,0.8,2.7,1.7,3.8,2.8
			c2.8,2.4,3.8,5.8,4.2,9.4c0.1,1.4,0.1,2.9,0.1,4.3c0,0.6-0.3,1-1,1.1c-2.9,0.7-5.9,1-8.9,1c-7.5,0-14.8-0.8-22.1-2.2
			c-5.3-1-10.6-2.3-15.5-4.7c-0.6-0.3-1.2-0.6-1.7-1c-0.3-0.2-0.5-0.6-0.4-0.9c1-5,3-9.4,7.7-12.1c1.1-0.6,2.3-1,3.6-1.4
			C414.2,115,416.8,114.4,419.3,113.7"/>
		<path class="st0" d="M439.4,109.6c-0.1,0.1-0.1,0.2-0.2,0.3c-1.5,1.3-2.4,2.9-3.5,4.5c-0.9,1.4-2.2,2.4-3.7,3.1
			c-3.5,1.7-7.2,0.9-9.8-2.1c-1.4-1.6-2.2-3.5-2.6-5.5c-0.1-0.4-0.2-0.8-0.5-1.1c-1.4-2.2-2.2-4.6-1.6-7.3c0.1-0.8,0.4-1.6,1.2-2.1
			c0.2-0.1,0.3-0.4,0.3-0.7c0.3-1.5,0.4-3.1,0.8-4.5c0.6-2,1.8-3.7,3.3-5.2c0.3-0.2,0.6-0.5,0.9-0.6c3.6-1.6,7.3-1.5,11-0.1
			c-0.5,1-0.4,2,0.1,2.9c-0.2,0.7-0.6,1-1.4,0.9c-1-0.1-1.9,0.5-2.2,1.5c-0.3,1-0.6,2.2-0.6,3.2c0,1,0.6,1.7,1.6,2
			c0.3,0.1,0.5,0.5,0.6,0.8c0.1,0.2-0.1,0.6-0.3,0.8c-1,0.8-1.3,1.7-0.7,2.9c0.5,0.9,1.1,1.9,1.8,2.7c0.8,0.8,1.6,0.8,2.5,0.3
			c0.4-0.2,0.6-0.1,1,0.1c0.3,0.2,0.4,0.4,0.3,0.8C437.9,108.1,438.4,109,439.4,109.6"/>
		<path class="st0" d="M448.5,98.4c0.4-2.7-1.4-5.1-4-5.5c-2.7-0.4-5.2,1.4-5.6,4c-0.4,2.6,1.5,5.2,4.1,5.6
			C445.6,102.9,448.1,101.1,448.5,98.4 M447.8,88.7c-0.3,0.6,0,1,0.6,1.3c0.1,0.1,0.2,0.1,0.3,0.1c0.8,0.8,1.7,1.1,2.7,0.2
			c0.1-0.1,0.8,0,1,0.2c0.6,0.6,1,1.3,1.4,2c0.3,0.6,0.1,1-0.4,1.3c-1,0.6-1,0.6-0.8,1.9c0,0.1,0.1,0.2,0.1,0.3
			c-0.1,1,0.5,1.5,1.5,1.7c0.6,0.1,0.8,0.5,0.8,1c-0.1,0.8-0.3,1.6-0.5,2.4c-0.1,0.6-0.6,0.8-1.2,0.6c-1.2-0.3-1.2-0.3-1.9,0.8
			c-0.1,0.1-0.1,0.3-0.3,0.3c-0.8,0.6-0.8,1.3-0.1,2.1c0.4,0.5,0.3,1-0.2,1.3c-0.6,0.5-1.3,0.9-2,1.3c-0.6,0.3-1.1,0.2-1.4-0.4
			c-0.3-0.8-0.9-1.1-1.8-0.8c-0.1,0.1-0.2,0.1-0.3,0.1c-1.1-0.1-1.6,0.5-1.7,1.5c-0.1,0.3-0.6,0.7-0.8,0.6c-0.9-0.1-1.9-0.3-2.8-0.6
			c-0.5-0.1-0.6-0.6-0.5-1c0.3-1,0.1-1.7-0.9-2.1c-0.1,0-0.1-0.1-0.2-0.1c-0.7-0.7-1.4-0.8-2.2-0.1c-0.4,0.4-0.9,0.3-1.3-0.1
			c-0.5-0.7-0.9-1.4-1.3-2.1c-0.3-0.6-0.1-1,0.4-1.3c0.9-0.4,1.2-1,0.8-2c-0.1-0.1-0.1-0.2-0.1-0.3c0.1-1-0.3-1.5-1.4-1.5
			c-0.6,0-0.9-0.4-0.8-1c0.1-0.8,0.3-1.6,0.5-2.4c0.1-0.6,0.6-0.9,1.2-0.6c1,0.3,1.6,0,2-0.9c0.1-0.1,0.1-0.1,0.1-0.2
			c0.7-1,0.8-1,0.1-2c-0.3-0.6-0.3-1,0.2-1.4c0.6-0.4,1.3-0.9,2-1.3c0.6-0.3,1-0.2,1.3,0.4c0.8,1.3,0.8,1,2,0.8
			c0.1,0,0.2-0.1,0.3-0.1c1,0,1.5-0.3,1.5-1.4c0-0.6,0.5-0.9,1-0.8c0.8,0.1,1.5,0.3,2.3,0.5C447.9,87.3,448,87.5,447.8,88.7"/>
		<path class="st0" d="M443.5,77.1c-0.3,2.3,1.3,4.4,3.6,4.7c2.2,0.3,4.5-1.3,4.7-3.6s-1.3-4.5-3.6-4.7
			C445.9,73.1,443.8,74.8,443.5,77.1 M446.1,68.5c0.3,0.3,0.5,0.6,0.6,0.8c0.2,0.6,0.6,0.9,1.3,0.8c0.6,0,1.1,0.1,1.7,0.3
			c0.6,0.2,1,0.1,1.3-0.4c0.3-0.6,0.8-0.6,1.4-0.3c0.7,0.6,1.4,1.1,2,1.7c0.4,0.3,0.4,0.8,0.1,1.2c-0.5,0.5-0.4,1-0.1,1.5
			c0.3,0.5,0.5,1,0.6,1.6c0.1,0.6,0.4,0.8,1,0.8c0.8,0,1,0.5,1,1.2c-0.1,0.8-0.2,1.7-0.3,2.4c-0.1,0.6-0.4,0.8-1,0.7
			c-0.6-0.1-1,0.1-1.3,0.6c-0.3,0.5-0.7,1-1.1,1.4c-0.4,0.4-0.6,0.8-0.3,1.4c0.3,0.6,0.1,1-0.4,1.3c-0.8,0.3-1.7,0.7-2.5,1
			c-0.6,0.2-0.9,0-1-0.6c-0.2-0.6-0.6-0.9-1.3-0.8c-0.6,0-1.1-0.1-1.7-0.3c-0.6-0.1-1-0.1-1.3,0.4c-0.4,0.6-0.9,0.7-1.5,0.3
			c-0.7-0.5-1.3-1-2-1.6c-0.4-0.3-0.5-0.8-0.1-1.2c0.5-0.5,0.5-0.9,0.1-1.5c-0.3-0.5-0.5-1-0.6-1.6c-0.1-0.6-0.4-0.8-1-0.8
			c-0.8,0-1-0.5-1-1.2c0.1-0.8,0.3-1.7,0.4-2.6c0.1-0.5,0.4-0.7,0.9-0.6c0.7,0.2,1.1-0.1,1.5-0.7c0.3-0.5,0.6-0.9,1-1.3
			c0.3-0.3,0.5-0.8,0.3-1.3c-0.3-0.7-0.1-1.1,0.6-1.4C444.2,69.3,445.1,68.9,446.1,68.5"/>
		<path class="st0" d="M457.3,105.8c-0.3,2.4,1.3,4.4,3.7,4.7c2.2,0.3,4.4-1.3,4.7-3.6c0.3-2.3-1.3-4.5-3.6-4.7
			C459.6,101.9,457.5,103.5,457.3,105.8 M456.7,100.4c-0.1-0.3-0.1-0.6-0.2-0.8c-0.3-0.6-0.1-1,0.4-1.2c0.8-0.3,1.7-0.7,2.6-1
			c0.5-0.2,0.8,0,1,0.6c0.2,0.7,0.6,0.9,1.3,1c0.6,0,1.2,0.1,1.7,0.3c0.5,0.1,0.9,0.1,1.2-0.4c0.4-0.6,0.9-0.6,1.4-0.2
			c0.7,0.6,1.3,1,2,1.6c0.4,0.4,0.5,0.8,0.1,1.3c-0.4,0.4-0.5,0.9-0.1,1.5c0.3,0.5,0.5,1,0.6,1.7c0.1,0.6,0.5,0.9,1,0.9
			c0.7,0.1,0.9,0.4,0.8,1c-0.1,0.8-0.2,1.7-0.3,2.4c-0.1,0.6-0.5,1-1.2,0.8c-0.6-0.1-0.9,0.1-1.3,0.6c-0.3,0.5-0.7,1-1.2,1.4
			c-0.4,0.4-0.6,0.8-0.3,1.3c0.3,0.6,0.1,1.1-0.6,1.3c-0.8,0.3-1.6,0.6-2.4,0.9c-0.5,0.2-0.8-0.1-1-0.6c-0.2-0.7-0.6-1-1.3-1
			c-0.6,0-1-0.1-1.6-0.3c-0.6-0.1-1-0.1-1.3,0.4c-0.3,0.5-0.8,0.6-1.3,0.2c-0.8-0.6-1.5-1.1-2.2-1.7c-0.4-0.3-0.4-0.8,0-1.2
			c0.6-0.5,0.5-1,0.1-1.7c-0.3-0.4-0.4-1-0.6-1.5c-0.1-0.6-0.4-1-1-1c-0.7-0.1-0.9-0.5-0.8-1c0.1-0.9,0.3-1.8,0.5-2.7
			c0.1-0.6,0.5-0.7,1-0.6c0.7,0.1,1.1-0.1,1.5-0.6c0.3-0.5,0.8-0.9,1.1-1.3C456.4,100.7,456.6,100.6,456.7,100.4"/>
	</g>
</g>
</svg>
