<?xml version="1.0" encoding="utf-8"?>
<!-- Generator: Adobe Illustrator 27.9.0, SVG Export Plug-In . SVG Version: 6.00 Build 0)  -->
<!DOCTYPE svg PUBLIC "-//W3C//DTD SVG 1.1//EN" "http://www.w3.org/Graphics/SVG/1.1/DTD/svg11.dtd" [
	<!ENTITY ns_extend "http://ns.adobe.com/Extensibility/1.0/">
	<!ENTITY ns_ai "http://ns.adobe.com/AdobeIllustrator/10.0/">
	<!ENTITY ns_graphs "http://ns.adobe.com/Graphs/1.0/">
	<!ENTITY ns_vars "http://ns.adobe.com/Variables/1.0/">
	<!ENTITY ns_imrep "http://ns.adobe.com/ImageReplacement/1.0/">
	<!ENTITY ns_sfw "http://ns.adobe.com/SaveForWeb/1.0/">
	<!ENTITY ns_custom "http://ns.adobe.com/GenericCustomNamespace/1.0/">
	<!ENTITY ns_adobe_xpath "http://ns.adobe.com/XPath/1.0/">
]>
<svg version="1.1" id="SSL_ILLUSTRATION" xmlns:x="&ns_extend;" xmlns:i="&ns_ai;" xmlns:graph="&ns_graphs;"
	 xmlns="http://www.w3.org/2000/svg" xmlns:xlink="http://www.w3.org/1999/xlink" x="0px" y="0px" width="2560px" height="520px"
	 viewBox="0 0 2560 520" style="enable-background:new 0 0 2560 520;" xml:space="preserve">
<style type="text/css">
	.st0{fill:#FF6600;}
	.st1{opacity:0.43;}
	.st2{clip-path:url(#SVGID_00000134220668331642648180000007666791938846499001_);}
	.st3{fill:#FFFFFF;}
	.st4{clip-path:url(#SVGID_00000125588388034078977830000005434338789981959857_);}
	.st5{fill:#E5E8E8;}
	.st6{clip-path:url(#SVGID_00000163754686085225342900000012651813367465966233_);}
	.st7{fill:#F27021;}
	.st8{fill:#F2F2F2;}
	.st9{clip-path:url(#SVGID_00000104699217175193602820000007584046199872413853_);}
	.st10{fill:#E6E7E8;}
	.st11{fill:#F1F2F2;}
	.st12{clip-path:url(#SVGID_00000129164179820778358200000010773690760642342565_);}
	.st13{clip-path:url(#SVGID_00000109008676140941943190000017543958574974328751_);}
	.st14{clip-path:url(#SVGID_00000028301150351234873500000004538190322517604257_);}
	.st15{fill:url(#SVGID_00000005245473096761364910000002063397946441267892_);}
	.st16{fill:url(#SVGID_00000075136968080178653260000010608278261526006407_);}
	.st17{fill:url(#SVGID_00000044146491070160388830000003046012721515008938_);}
	.st18{fill:url(#SVGID_00000029020636051595550370000006000551626603516815_);}
	.st19{fill:url(#SVGID_00000107564527836851935990000012010807486937445300_);}
	.st20{fill:url(#SVGID_00000112596502982713918950000017490891721943463337_);}
	.st21{fill:url(#SVGID_00000067236608435719022630000015601956666131486605_);}
	.st22{fill:none;stroke:#FFFFFF;stroke-width:2.798;}
	.st23{opacity:0.38;}
	.st24{clip-path:url(#SVGID_00000145753823722874840360000013361493499505335208_);}
</style>
<metadata>
	<sfw  xmlns="&ns_sfw;">
		<slices></slices>
		<sliceSourceBounds  bottomLeftOrigin="true" height="533.7" width="2560" x="0" y="-2.3"></sliceSourceBounds>
	</sfw>
</metadata>
<rect class="st0" width="2560" height="520"/>
<g class="st1">
	<g>
		<g>
			<g>
				<defs>
					<rect id="SVGID_1_" x="1723.2" y="361.9" width="174.9" height="160.4"/>
				</defs>
				<clipPath id="SVGID_00000104673600089471822470000017954783340092461974_">
					<use xlink:href="#SVGID_1_"  style="overflow:visible;"/>
				</clipPath>
				<g style="clip-path:url(#SVGID_00000104673600089471822470000017954783340092461974_);">
					<polygon class="st3" points="1773.9,393.9 1773.2,395.4 1766,461.9 1766,461.9 1826,460.5 1826,460.5 1832.6,392.1 
						1831.2,391.5 					"/>
					<g>
						<g>
							<defs>
								<polygon id="SVGID_00000124159977039763348400000012190740938973305019_" points="1773.9,393.9 1773.2,395.4 1766,461.9 
									1766,461.9 1826,460.5 1832.6,392.1 1831.2,391.5 								"/>
							</defs>
							<clipPath id="SVGID_00000034082631742654156780000014110794483197751983_">
								<use xlink:href="#SVGID_00000124159977039763348400000012190740938973305019_"  style="overflow:visible;"/>
							</clipPath>
							<g style="clip-path:url(#SVGID_00000034082631742654156780000014110794483197751983_);">
								<path class="st0" d="M1817.5,447.3l-4.3,0.9l-31.5-42.6l4.2-0.9L1817.5,447.3L1817.5,447.3z M1785.1,432.7
									c-0.9,0.2-1.7,0.5-2.3,1c-0.7,0.5-1.2,1.1-1.7,1.9c-0.4,0.8-0.8,1.6-0.9,2.6c-0.2,1-0.2,2.1-0.2,3.3
									c0.1,1.3,0.3,2.4,0.6,3.3c0.3,0.9,0.7,1.7,1.2,2.3c0.5,0.6,1.1,1,1.9,1.2c0.7,0.2,1.5,0.2,2.4,0.1c0.9-0.2,1.7-0.5,2.3-1
									c0.7-0.5,1.2-1.1,1.7-1.9c0.4-0.8,0.7-1.7,0.9-2.7c0.2-1,0.2-2.2,0.2-3.4c-0.1-1.2-0.3-2.3-0.6-3.2s-0.7-1.7-1.3-2.2
									c-0.5-0.6-1.1-1-1.8-1.1C1786.8,432.5,1786,432.5,1785.1,432.7 M1812.5,403.5c-0.9,0.2-1.7,0.5-2.4,1
									c-0.7,0.5-1.2,1.1-1.7,1.9c-0.4,0.7-0.7,1.6-0.9,2.6c-0.2,1-0.2,2.1-0.2,3.2c0.1,1.2,0.3,2.3,0.6,3.3s0.7,1.7,1.3,2.3
									c0.5,0.6,1.2,1,1.9,1.2c0.7,0.2,1.5,0.2,2.4,0s1.7-0.5,2.3-1c0.7-0.5,1.2-1.1,1.7-1.9s0.7-1.7,0.9-2.7
									c0.2-1,0.2-2.2,0.1-3.4c-0.1-1.2-0.3-2.3-0.6-3.2c-0.3-0.9-0.8-1.6-1.3-2.2s-1.2-0.9-1.9-1.1
									C1814.2,403.3,1813.4,403.3,1812.5,403.5 M1814.1,422.7c-1.7,0.4-3.3,0.4-4.6,0.2c-1.4-0.2-2.6-0.8-3.6-1.5
									c-1-0.8-1.8-1.9-2.4-3.2c-0.6-1.3-0.9-2.9-1.1-4.7c-0.1-1.8,0-3.5,0.4-5s1-2.9,1.9-4.1c0.8-1.2,1.9-2.2,3.2-3
									c1.3-0.8,2.7-1.4,4.3-1.7c1.6-0.4,3.1-0.4,4.5-0.2c1.3,0.2,2.5,0.8,3.5,1.6c1,0.8,1.8,1.9,2.4,3.2c0.6,1.3,1,2.9,1.1,4.7
									c0.1,1.8,0,3.5-0.3,5c-0.4,1.5-1,2.9-1.8,4c-0.8,1.2-1.9,2.2-3.1,2.9C1817.2,421.8,1815.7,422.4,1814.1,422.7 M1786.5,452
									c-1.7,0.3-3.2,0.4-4.6,0.1c-1.4-0.2-2.5-0.8-3.5-1.6c-1-0.8-1.8-1.9-2.3-3.2c-0.6-1.3-0.9-2.9-1-4.7c-0.1-1.8,0-3.5,0.4-5
									s1-2.9,1.9-4.1c0.8-1.2,1.9-2.2,3.2-3c1.3-0.8,2.7-1.4,4.3-1.7c1.6-0.3,3.1-0.4,4.4-0.1s2.5,0.8,3.5,1.6
									c1,0.8,1.8,1.9,2.3,3.2s0.9,2.9,1.1,4.7c0.1,1.8,0,3.5-0.4,5s-1,2.9-1.8,4.1s-1.9,2.2-3.1,2.9
									C1789.6,451.1,1788.2,451.7,1786.5,452"/>
							</g>
						</g>
					</g>
					<polygon class="st5" points="1766,461.9 1766,461.9 1793.9,482.1 1793.9,482.1 1851.9,481.1 1826,460.5 					"/>
					<g>
						<g>
							<defs>
								<polygon id="SVGID_00000141426688205000381330000000136229816552465569_" points="1793.9,482.1 1766,461.9 1826,460.5 
									1852,481.1 								"/>
							</defs>
							<clipPath id="SVGID_00000170250919684286691730000016290259900016780428_">
								<use xlink:href="#SVGID_00000141426688205000381330000000136229816552465569_"  style="overflow:visible;"/>
							</clipPath>
							<g style="clip-path:url(#SVGID_00000170250919684286691730000016290259900016780428_);">
								<path class="st7" d="M1801.5,478l-2.5-1.1l18.2-11.7l2.5,1.1L1801.5,478L1801.5,478z M1798.1,468.2
									c-0.5-0.2-1.1-0.4-1.8-0.6c-0.7-0.1-1.4-0.3-2.1-0.3s-1.6-0.1-2.4-0.1s-1.7,0.1-2.5,0.2c-0.9,0.1-1.6,0.3-2.2,0.4
									s-0.9,0.3-1.1,0.5s-0.2,0.4-0.1,0.6c0.2,0.2,0.5,0.4,1.1,0.7c0.5,0.2,1.1,0.4,1.8,0.6c0.7,0.1,1.4,0.3,2.1,0.3
									c0.8,0.1,1.6,0.1,2.4,0.1s1.7-0.1,2.6-0.2s1.6-0.2,2.1-0.4c0.5-0.2,0.9-0.3,1.1-0.5s0.2-0.4,0-0.6
									C1799,468.7,1798.6,468.5,1798.1,468.2 M1832.1,473.6c-0.5-0.2-1.1-0.4-1.8-0.6c-0.7-0.1-1.4-0.3-2.1-0.3
									c-0.8-0.1-1.6-0.1-2.4-0.1s-1.7,0.1-2.5,0.2c-0.9,0.1-1.7,0.2-2.2,0.4c-0.6,0.2-1,0.3-1.2,0.5s-0.3,0.4-0.1,0.6
									c0.1,0.2,0.5,0.4,1,0.7c0.5,0.2,1.1,0.4,1.7,0.6c0.6,0.1,1.4,0.2,2.1,0.3c0.8,0.1,1.6,0.1,2.4,0.1s1.7-0.1,2.6-0.2
									s1.6-0.2,2.2-0.4c0.6-0.1,0.9-0.3,1.1-0.5s0.2-0.4,0.1-0.6C1832.9,474.1,1832.6,473.9,1832.1,473.6 M1818.2,475.4
									c-1-0.4-1.7-0.8-2.1-1.2c-0.4-0.4-0.5-0.7-0.4-1.1c0.2-0.3,0.6-0.6,1.4-0.9s1.8-0.5,3.1-0.6c1.3-0.2,2.7-0.2,4-0.3
									c1.3,0,2.6,0.1,3.9,0.2s2.5,0.4,3.6,0.7c1.1,0.3,2.2,0.6,3.1,1.1c0.9,0.4,1.6,0.8,2,1.2c0.4,0.4,0.4,0.7,0.2,1.1
									c-0.2,0.3-0.7,0.6-1.5,0.9c-0.8,0.2-1.8,0.5-3.1,0.6c-1.3,0.2-2.6,0.2-3.9,0.2s-2.6-0.1-3.8-0.2c-1.2-0.1-2.4-0.3-3.5-0.6
									C1820.2,476.2,1819.1,475.8,1818.2,475.4 M1784.4,470.1c-1-0.4-1.8-0.9-2.2-1.2c-0.4-0.4-0.6-0.8-0.4-1.1
									c0.1-0.3,0.6-0.6,1.3-0.9c0.7-0.3,1.7-0.5,3.1-0.6c1.3-0.2,2.6-0.3,4-0.3c1.3,0,2.6,0.1,3.9,0.2s2.5,0.4,3.7,0.7
									c1.2,0.3,2.2,0.7,3.2,1.1s1.7,0.8,2.1,1.2s0.5,0.7,0.3,1.1c-0.2,0.3-0.6,0.6-1.4,0.9s-1.8,0.5-3.1,0.6s-2.6,0.2-3.9,0.3
									c-1.3,0-2.6-0.1-3.8-0.2c-1.2-0.1-2.4-0.4-3.5-0.6C1786.5,470.8,1785.4,470.5,1784.4,470.1"/>
							</g>
						</g>
					</g>
					<polygon class="st8" points="1826,460.5 1851.9,481.1 1852,481.1 1858,414.5 1834.2,392.8 1832.6,392.1 					"/>
					<polygon class="st8" points="1826,460.5 1851.9,481.1 1852,481.1 1858,414.5 1834.2,392.8 1832.6,392.1 					"/>
					<g>
						<g>
							<defs>
								<polygon id="SVGID_00000078761604085117279050000017689141681396009653_" points="1826,460.5 1851.9,481.1 1858,414.5 
									1834.2,392.8 1832.6,392.1 								"/>
							</defs>
							<clipPath id="SVGID_00000033371242047799264190000009054976238030753200_">
								<use xlink:href="#SVGID_00000078761604085117279050000017689141681396009653_"  style="overflow:visible;"/>
							</clipPath>
							<g style="clip-path:url(#SVGID_00000033371242047799264190000009054976238030753200_);">
								<path class="st7" d="M1848.9,466.5l-1.7-0.7l-9.4-58l1.7,0.9L1848.9,466.5L1848.9,466.5z M1837.3,438.1
									c-0.4-0.2-0.7-0.1-1,0.1s-0.6,0.7-0.8,1.3c-0.2,0.6-0.4,1.4-0.6,2.4c-0.1,1-0.2,2.1-0.3,3.4c-0.1,1.4-0.1,2.6,0,3.8
									c0.1,1.1,0.2,2.1,0.3,3c0.2,0.8,0.4,1.5,0.7,2.1c0.3,0.5,0.6,0.9,1,1c0.4,0.2,0.7,0.1,1-0.1s0.6-0.7,0.8-1.3
									c0.2-0.6,0.4-1.5,0.6-2.5c0.1-1,0.2-2.2,0.3-3.6c0.1-1.4,0-2.6,0-3.7c-0.1-1.1-0.2-2.1-0.3-2.9c-0.2-0.8-0.4-1.5-0.7-2
									C1838,438.7,1837.6,438.3,1837.3,438.1 M1850,418.8c-0.4-0.2-0.7-0.2-1,0.1c-0.3,0.2-0.5,0.6-0.8,1.2
									c-0.2,0.6-0.4,1.4-0.5,2.3s-0.2,2.1-0.3,3.3c-0.1,1.3-0.1,2.6,0,3.7s0.2,2.1,0.3,2.9c0.2,0.8,0.4,1.5,0.6,2
									c0.3,0.5,0.6,0.9,0.9,1c0.3,0.2,0.7,0.1,1-0.1s0.5-0.7,0.8-1.3c0.2-0.6,0.4-1.4,0.5-2.4s0.2-2.2,0.3-3.5
									c0.1-1.3,0-2.5,0-3.6c-0.1-1.1-0.2-2-0.3-2.8c-0.2-0.8-0.4-1.5-0.6-2C1850.7,419.4,1850.4,419,1850,418.8 M1849.3,439.5
									c-0.7-0.3-1.3-0.9-1.8-1.7c-0.5-0.8-0.9-1.8-1.3-3.1c-0.3-1.2-0.6-2.7-0.7-4.3c-0.1-1.6-0.2-3.4-0.1-5.4s0.2-3.7,0.5-5.1
									s0.6-2.6,1-3.5s0.9-1.5,1.4-1.8s1.1-0.3,1.8,0.1c0.6,0.3,1.2,0.9,1.7,1.7c0.5,0.8,0.9,1.9,1.2,3.1c0.3,1.3,0.5,2.7,0.7,4.3
									c0.1,1.6,0.2,3.4,0.1,5.3s-0.2,3.6-0.5,5c-0.2,1.4-0.6,2.6-0.9,3.5c-0.4,0.9-0.9,1.5-1.4,1.8
									C1850.5,439.8,1849.9,439.9,1849.3,439.5 M1836.5,459.4c-0.7-0.3-1.3-0.9-1.9-1.7c-0.5-0.8-1-1.8-1.3-3.1
									c-0.3-1.3-0.6-2.7-0.7-4.4c-0.1-1.7-0.2-3.5-0.1-5.5s0.3-3.8,0.5-5.2c0.3-1.5,0.6-2.7,1.1-3.6c0.4-0.9,0.9-1.5,1.5-1.9
									c0.6-0.3,1.2-0.3,1.9,0c0.7,0.3,1.3,0.9,1.8,1.7c0.5,0.8,0.9,1.9,1.3,3.2s0.6,2.7,0.7,4.4c0.1,1.6,0.2,3.5,0.1,5.4
									c-0.1,2-0.2,3.7-0.5,5.2s-0.6,2.7-1,3.6s-0.9,1.5-1.4,1.9C1837.8,459.6,1837.2,459.7,1836.5,459.4"/>
							</g>
						</g>
					</g>
				</g>
			</g>
		</g>
	</g>
</g>
<g>
	<polygon class="st3" points="1657.3,487.1 1566.5,423.5 1623.9,311.3 1717,373.9 	"/>
	<polygon class="st10" points="1717,373.9 1623.9,311.3 1688.4,308.4 1778.7,368.3 	"/>
	<polygon class="st11" points="1778.7,368.3 1720.5,477 1657.3,487.1 1717,373.9 	"/>
	<polygon class="st11" points="1778.7,368.3 1720.5,477 1657.3,487.1 1717,373.9 	"/>
	<path class="st0" d="M1717.2,359.8c9.9-0.6,19.8-1.1,29.6-1.7c-13.7-9.3-27.6-18.8-41.8-28.4c-10.3,0.6-20.4,1.1-30.7,1.7
		C1688.9,341.1,1703.1,350.5,1717.2,359.8 M1667.3,323c5.1,3.2,8.4,4.3,12,4.1c3.3-0.2,6.7-0.4,10-0.6c3.2-0.2,3-1.5-0.8-4.2
		c-0.1-0.1-0.2-0.2-0.4-0.3c2.3-0.1,4.3-0.4,6.9-0.3c2.2,0.1,5,1.3,7.7,3.1c13.8,9.4,27.3,18.7,40.6,27.7c2.8,1.9,5.6,3.8,8.4,5.7
		c3,2.1,3.3,3.2,0.7,3.3c-10.1,0.6-20.2,1.2-30.4,1.7c-2.6,0.1-5.2-0.7-8.3-2.8c-16.6-11-33.7-22.2-51.2-33.8
		c-3.3-2.2-3.6-3.2-1-3.3C1663.3,323.2,1665.3,323.1,1667.3,323"/>
	<path class="st0" d="M1726.8,352.6c2.1-0.1,4.2-0.2,6.3-0.4c0.9-0.1,1.7,0.1,2.9,0.9c1.2,0.8,1.2,1.1,0.2,1.2
		c-4.2,0.2-8.4,0.5-12.5,0.7c-0.9,0.1-1.7-0.1-3-0.9c-1.4-0.9-1.1-1.1-0.1-1.2C1722.6,352.8,1724.7,352.7,1726.8,352.6L1726.8,352.6
		z"/>
	<path class="st0" d="M1717.5,346.2c2.1-0.1,4.2-0.2,6.2-0.4c0.9-0.1,1.7,0.1,2.9,0.9c1.2,0.8,1.2,1.1,0.2,1.2
		c-4.2,0.2-8.4,0.5-12.6,0.7c-0.9,0.1-1.7,0-3.1-0.9s-1.1-1.2-0.1-1.2C1713.2,346.5,1715.3,346.4,1717.5,346.2L1717.5,346.2
		L1717.5,346.2z"/>
	<path class="st0" d="M1712,342.6c-2.2,0.1-4.4,0.2-6.5,0.4c-0.8,0.1-1.6-0.1-2.8-0.9c-1.2-0.8-1.2-1.1-0.3-1.2
		c4.4-0.2,8.8-0.5,13.1-0.7c0.9-0.1,1.7,0.2,2.8,1c1.1,0.7,1.2,1.1,0.3,1.1C1716.3,342.4,1714.2,342.5,1712,342.6"/>
	<path class="st0" d="M1699.3,334c2.2-0.1,4.3-0.2,6.5-0.4c0.9-0.1,1.7,0.2,2.8,0.9c1.1,0.7,1.3,1.1,0.4,1.2
		c-4.4,0.2-8.9,0.5-13.3,0.7c-0.9,0.1-1.8-0.3-2.8-1c-1.1-0.8-1.1-1.1-0.2-1.1C1694.9,334.3,1697.1,334.2,1699.3,334"/>
	<path class="st0" d="M1687.4,335.9c-0.3-0.9-0.7-1.7-0.9-2.4c0-0.2,0.5-0.2,0.8-0.3c0.5,0.4,1.2,0.8,1.3,1.1c0.5,1,0.8,1.9,1.2,2.8
		c0.2,0.5-0.2,0.5-1.3,0.2c-1.1-0.4-2.2-0.6-3.3-1c-0.5-0.2-1.1-0.6-1.6-0.9c0.3,0,0.6-0.2,1-0.1
		C1685.4,335.3,1686.3,335.6,1687.4,335.9"/>
	<path class="st0" d="M1706.1,348.3c-0.3-0.9-0.7-1.7-0.8-2.4c0-0.2,0.6-0.2,0.9-0.3c0.4,0.3,1.1,0.7,1.2,0.9c0.5,1,0.9,1.9,1.1,2.8
		c0.1,0.2-0.5,0.3-1,0.2c-1.1-0.3-2.4-0.7-3.6-1.1c-0.5-0.2-1-0.5-1.5-0.8c0.3,0,0.6-0.2,1.1-0.1
		C1704.2,347.7,1705,348,1706.1,348.3"/>
	<path class="st0" d="M1697,342.3c-0.3-0.8-0.7-1.6-0.8-2.3c-0.1-0.3,0.5-0.3,0.7-0.5c0.5,0.4,1.3,0.8,1.4,1.1
		c0.5,0.9,0.9,1.8,1,2.6c0,0.2-0.6,0.3-1.2,0.2c-1-0.2-2.3-0.6-3.4-1c-0.4-0.2-0.9-0.6-1.4-0.8c0.3,0,0.5-0.2,1-0.1
		C1695,341.7,1696,342,1697,342.3"/>
	<path class="st0" d="M1715.2,354.4c-0.3-0.8-0.6-1.5-0.8-2.2c0-0.2,0.4-0.3,0.7-0.5c0.5,0.4,1.3,0.9,1.4,1.2c0.5,0.9,0.7,1.7,1,2.5
		c0.2,0.5-0.1,0.6-1.3,0.2c-1-0.3-2-0.5-3-0.9c-0.6-0.2-1.2-0.6-1.7-1c0.4,0,0.7-0.1,1.2,0C1713.4,353.8,1714.2,354.1,1715.2,354.4"
		/>
	<path class="st0" d="M1681,320.6c-1.5,0-3.4-0.5-5.4-1.7c-2.1-1.2-4.7-1.9-6-1.8s-1.3,1.1,0.1,2.2c1.5,1.2,1.5,1.8,0.2,1.9
		c-1.8,0.1-1.7,1,0.3,2.3s4.3,2.1,6.2,2c1.9-0.1,3.7-0.2,5.5-0.3c1.9-0.1,3.9-0.2,5.7-0.3c1.6-0.1,1.3-1.1-0.6-2.4
		C1685,321.3,1682.7,320.6,1681,320.6"/>
	<path class="st0" d="M1622.2,413.2c2.5-1.6,4.9-3.1,7.2-4.7c1.2-0.8,2.2-0.9,3.1-0.1c0.2,0.2,0.4,0,0.7-0.2c5.5-4,11.1-8,16.7-12.1
		c4.5-3.2,9-6.5,13.5-9.8c0.5-0.4,0.6-0.3,0.7,0.3c0.1,0.7,0.2,1.4,0.4,2.1c0.2,0.6,0,0.9-0.5,1.2c-8.5,6.1-16.9,12.2-25.3,18.2
		c-1.6,1.2-3.2,2.3-4.8,3.5c-0.3,0.2-0.6,0.5-0.7,1.1c-0.4,1.6-1.2,2.8-2.3,3.5c-4.4,2.9-8.8,5.8-13.2,8.6c-2.5,1.6-4.2-0.1-3.7-3.6
		c0.3-2,0.9-3.9,1.4-5.9c0.4-1.7,0.9-3.5,1.3-5.2c0.2-0.7,0.1-1.1-0.3-1.3c-0.8-0.5-0.8-0.5-1.4,0.7c-1.8,3.8-3.6,7.5-5.4,11.3
		c-1.4,3-2.9,6-4.3,9c-0.3,0.6-0.5,0.7-0.8,0.5c-6.3-4.5-12.6-9-18.9-13.4c-0.4-0.2-0.4-0.5-0.1-1.1c3.7-7.9,7.4-15.9,11.1-23.9
		c1.3-2.8,3-5.2,5.1-6.7c2.2-1.6,4.3-1.7,6.2-0.8c1.8,0.8,3.4,2.2,5,3.3c2.3,1.6,4.6,3.2,6.9,4.8c4.1,2.9,5.4,9.3,3.3,16.5
		C1622.9,410.3,1622.6,411.7,1622.2,413.2"/>
	<path class="st0" d="M1664.9,363.1c9.2,6.3,18.4,12.7,27.7,19c1.5,1,1.3,3.3,0.3,5.2c-13.2,25.4-26,50.1-38.5,74.1
		c-1.2,2.2-2.4,2.8-3.8,1.8c-13.7-9.7-27.2-19.4-40.7-28.9c-0.5-0.3-0.5-0.6-0.1-1.3c0.7-1.4,1.4-2.9,2.1-4.3
		c0.2-0.4,0.4-0.6,0.6-0.3l0.4,0.3c12.8,9.1,25.6,18.2,38.6,27.4c0.7,0.5,0.6,0.6,1.1-0.5c11.2-21.7,22.7-44.1,34.6-67
		c0.4-0.7,0.3-1.2-0.1-1.5c-16.9-11.7-33.8-23.2-50.4-34.7c-0.7-0.5-0.6-0.6-1.1,0.7c-1,2.1-2,4.2-3,6.2c-0.3,0.7-0.5,0.7-0.8,0.5
		c-0.9-0.7-1.9-1.3-2.8-2c-0.3-0.2-0.4-0.4-0.1-1c1.7-3.5,3.3-7,5-10.5c1-2,2.3-2.8,3.6-1.9C1646.4,350.5,1655.6,356.8,1664.9,363.1
		"/>
	<path class="st0" d="M1626.8,365.9c3.6,2.5,4.1,9.3,1.3,15.2c-2.8,5.9-8,8.7-11.5,6.2c-3.5-2.4-4.1-9.2-1.3-15.1
		C1618.2,366.2,1623.3,363.4,1626.8,365.9"/>
	<path class="st0" d="M1742.1,397.7c-3.8,0.4-7.5,0.7-11.4,1.1c-0.6,0.1-0.9-0.4-0.6-1.3s1-2.2,1.7-2.8c0.5-0.4,1-0.6,1.3-0.6
		c4.1-0.4,8.1-0.8,12.1-1.1c3.4-0.3,6.7-0.6,10-0.9c0.9-0.1,1,0.7,0.3,2.2c-0.6,1.3-1.5,2.2-2.3,2.3c-1.7,0.2-3.5,0.3-5.2,0.5
		C1746.1,397.3,1744.1,397.5,1742.1,397.7L1742.1,397.7L1742.1,397.7z"/>
	<path class="st0" d="M1730.4,421.9c-3.7,0.5-7.5,0.9-11.3,1.4c-0.3,0-0.7,0.1-0.9,0c-0.5-0.3-0.3-1.3,0.4-2.6
		c0.7-1.1,1.5-2,2.2-2.1c0.6-0.1,1.1-0.2,1.7-0.2c7.2-0.8,14.3-1.7,21.3-2.5c1-0.1,1.2,0.6,0.4,2.2c-0.7,1.4-1.6,2.4-2.4,2.5
		c-2.1,0.3-4.2,0.5-6.3,0.8C1733.8,421.4,1732.1,421.6,1730.4,421.9"/>
	<path class="st0" d="M1718.4,446.5c-3.9,0.6-7.9,1.2-11.9,1.8c-1.1,0.2-1.1-1,0-2.8c0.7-1.2,1.6-2,2.3-2.2c0.8-0.1,1.6-0.2,2.3-0.4
		c7.1-1,14.2-2,21.1-3c0.3,0,0.6,0,0.8,0.1c0.4,0.4,0,1.5-0.6,2.6c-0.7,1.1-1.5,1.9-2.2,2c-2.5,0.4-5,0.7-7.5,1.1
		C1721.3,446.1,1719.9,446.3,1718.4,446.5L1718.4,446.5z"/>
	<path class="st0" d="M1695.2,448.2L1695.2,448.2c-0.7,0.1-1.4,0.2-2.1,0.3c-0.9,0.1-2.6,1.4-3.6,3.6s-2.2,4.4-3.3,6.6
		c-1,2.1-0.9,3.3,0.3,3.2c1.3-0.2,2.6-0.4,3.9-0.6c1.1-0.2,2.4-1.4,3.4-3.3c1.3-2.5,2.6-5.1,3.7-7.6c0.8-1.6,0.6-2.5-0.4-2.4
		C1696.6,448,1695.9,448.1,1695.2,448.2 M1697.6,454c-0.6,1.2-1.2,2.4-1.7,3.5c-1.7,3.3-4.3,6.2-6.4,6.7c-1.9,0.5-3.6,0.8-5.3,0.8
		c-1.8,0.1-1.7-2.6-0.1-5.7c1.2-2.4,2.4-4.7,3.5-7.1c1.7-3.4,4.6-6.4,6.7-6.9c1.8-0.4,3.4-0.6,5-0.7s1.7,2.3,0.4,5.2
		C1699,451.3,1698.3,452.7,1697.6,454L1697.6,454L1697.6,454z"/>
	<path class="st0" d="M1707.8,422.9L1707.8,422.9c-0.7,0.1-1.4,0.2-2.2,0.3c-1.2,0.2-2.5,1.4-3.4,3.4c-1.1,2.2-2.2,4.3-3.2,6.5
		c-0.9,1.9-0.8,3.2,0.3,3.1c1.3-0.2,2.7-0.4,4-0.5c0.8-0.1,1.6-0.8,2.4-2c0.4-0.6,0.8-1.2,1.1-1.8c1.1-2.1,2.1-4.2,3.2-6.4
		c0.2-0.3,0.3-0.7,0.4-1c0.4-1.2,0.2-2-0.5-1.9C1709.2,422.7,1708.5,422.8,1707.8,422.9 M1710.2,428.4c-0.8,1.6-1.5,3.2-2.4,4.7
		c-1.7,2.9-3.9,5-5.7,5.4c-1.7,0.4-3.4,0.6-4.9,0.6c-1.7,0-1.7-2.7-0.2-5.7c1.1-2.2,2.2-4.4,3.3-6.6c1.9-4,4.9-6.5,6.6-6.7
		c1.7-0.3,3.3-0.5,4.8-0.5c1.6-0.1,1.7,2.2,0.4,5.1C1711.5,426,1710.9,427.2,1710.2,428.4L1710.2,428.4L1710.2,428.4z"/>
	<path class="st0" d="M1724.6,395.2c-0.9,0.9-1.7,1.7-2.6,2.5c-0.2,0.2-0.4,0.2-0.5,0.2c-1.1,0.1-2.2,0.2-3.3,0.3
		c-1.2,0.1-2.6,1.4-3.6,3.5c-1,2-2,4.1-3,6.1s-0.8,3.2,0.3,3.1c1.2-0.1,2.5-0.3,3.7-0.4s2.4-1.3,3.4-3.3c0.4-0.9,0.9-1.8,1.3-2.6
		c0.1-0.2,0.3-0.5,0.5-0.7c0.9-1,1.9-1.9,3-3c-0.1,0.3-0.2,0.5-0.2,0.6c-0.9,1.9-1.9,3.8-2.8,5.8c-1.6,3.2-4.2,5.9-6.2,6.2
		c-1.6,0.3-3.2,0.5-4.7,0.5c-1.7,0-1.8-2.6-0.3-5.7c1.1-2.3,2.2-4.5,3.4-6.8c1.4-2.9,4.1-5.6,5.9-6c1.8-0.3,3.5-0.4,5.2-0.5
		C1724.3,395,1724.4,395.1,1724.6,395.2"/>
	<path class="st0" d="M1720.7,430.8c-2,0.3-4.1,0.5-6.1,0.8c-1.2,0.1-0.8-1.9,0.6-3.6c0.7-0.8,1.3-1.2,1.8-1.3
		c2.9-0.4,5.8-0.7,8.7-1.1c1.1-0.1,2.1-0.3,3.2-0.4c1-0.1,1.1,0.7,0.3,2.2c-0.7,1.5-1.7,2.5-2.7,2.6
		C1724.6,430.3,1722.7,430.6,1720.7,430.8"/>
	<path class="st0" d="M1735.1,401.4c1.9-0.2,3.9-0.4,5.8-0.6c0.8-0.1,0.9,0.7,0.3,2.1c-0.7,1.4-1.7,2.5-2.5,2.6
		c-3.9,0.4-7.8,0.8-11.8,1.2c-0.8,0.1-0.9-0.9-0.2-2.3c0.7-1.4,1.7-2.4,2.5-2.4C1731.1,401.8,1733.1,401.6,1735.1,401.4"/>
	<path class="st0" d="M1710.9,450.8c2-0.3,4-0.6,6.1-0.9c0.9-0.1,1.1,0.7,0.3,2.2c-0.7,1.5-1.8,2.6-2.7,2.8
		c-4.1,0.6-8.2,1.3-12.3,1.9c-1.2,0.2-1-1.5,0.4-3.4c0.7-1,1.4-1.6,2.1-1.6C1706.8,451.5,1708.9,451.2,1710.9,450.8"/>
	<path class="st0" d="M1717.2,403.8c0.9-0.9,1.6-1.6,2.4-2.4c2.4-2.3,4.8-4.6,7.1-6.9c0.5-0.5,1-0.7,1.2-0.4
		c0.2,0.3,0.2,0.8-0.2,1.4c-0.2,0.3-0.5,0.7-0.8,1c-3.5,3.4-7,6.8-10.5,10.3c-0.8,0.8-1.3,0.8-1.4,0.2c-0.1-0.7-0.2-1.4-0.2-2.1
		c0-0.6,0.4-1.5,1.1-2.2c0.7-0.6,1.2-0.7,1.3-0.1C1717.2,403,1717.2,403.4,1717.2,403.8"/>
</g>
<g>
	<polygon class="st3" points="1358.1,268.1 1374.9,389.2 1376.2,392 1477.8,396.2 1480.3,395 1464.5,270.5 1464.5,270.5 
		1358.2,268.1 	"/>
	<g>
		<g>
			<defs>
				<polygon id="SVGID_00000112606032210167204890000010016916669036450984_" points="1374.9,389.2 1376.2,392 1477.8,396.2 
					1480.3,395 1464.5,270.5 1358.2,268.1 				"/>
			</defs>
			<clipPath id="SVGID_00000183229966266159646730000006529105278825200550_">
				<use xlink:href="#SVGID_00000112606032210167204890000010016916669036450984_"  style="overflow:visible;"/>
			</clipPath>
			<g style="clip-path:url(#SVGID_00000183229966266159646730000006529105278825200550_);">
				<path class="st0" d="M1450.3,294.5l-7.6-1.6l-53.2,77.6l7.4,1.6L1450.3,294.5z M1393.8,321.3c-1.6-0.3-3-1-4.2-1.8
					c-1.2-0.9-2.2-2-3-3.4s-1.4-3-1.8-4.8s-0.6-3.8-0.5-6c0.1-2.3,0.3-4.3,0.8-6s1.2-3.1,2.1-4.2s2-1.8,3.2-2.2
					c1.3-0.4,2.7-0.5,4.3-0.1c1.6,0.3,3,0.9,4.2,1.8s2.2,2,3,3.4s1.4,3,1.8,4.9s0.6,3.9,0.5,6.2c-0.1,2.3-0.4,4.2-0.9,5.9
					c-0.5,1.7-1.2,3-2.1,4s-2,1.7-3.2,2.1C1396.7,321.6,1395.3,321.6,1393.8,321.3 M1444,374.3c-1.6-0.3-3-1-4.2-1.9s-2.2-2-3.1-3.4
					c-0.8-1.4-1.4-2.9-1.8-4.7c-0.4-1.8-0.5-3.8-0.5-5.9c0.1-2.3,0.4-4.3,0.9-6s1.2-3.1,2.1-4.2s2-1.8,3.3-2.2
					c1.3-0.4,2.7-0.4,4.3-0.1c1.6,0.3,3,1,4.2,1.8c1.2,0.9,2.2,2,3,3.4s1.4,3,1.8,4.9s0.5,3.9,0.4,6.2c-0.1,2.2-0.4,4.2-0.9,5.8
					c-0.5,1.6-1.2,3-2.1,4s-2,1.7-3.2,2.1C1447,374.7,1445.6,374.7,1444,374.3 M1445.6,339.3c-3.1-0.6-5.8-0.7-8.2-0.3
					c-2.4,0.4-4.5,1.4-6.2,2.8s-3,3.4-4,5.8c-0.9,2.4-1.5,5.3-1.6,8.6c-0.1,3.3,0.3,6.3,1,9.1c0.8,2.8,2,5.2,3.5,7.4
					c1.6,2.1,3.5,4,5.8,5.4s4.9,2.5,7.8,3.1s5.6,0.7,7.9,0.3c2.4-0.4,4.4-1.4,6.1-2.9s3.1-3.4,4-5.8c1-2.4,1.5-5.3,1.7-8.6
					c0.1-3.3-0.2-6.3-0.9-9.1c-0.7-2.8-1.9-5.2-3.4-7.4c-1.5-2.1-3.4-3.9-5.7-5.4C1451.2,341,1448.6,340,1445.6,339.3 M1395.1,286.1
					c-3-0.6-5.8-0.7-8.2-0.3c-2.4,0.4-4.4,1.4-6.1,2.9s-3,3.4-3.9,5.9c-0.9,2.4-1.4,5.3-1.5,8.6c-0.1,3.3,0.3,6.4,1.1,9.2
					c0.8,2.8,2,5.3,3.6,7.4c1.6,2.2,3.5,4,5.8,5.4s4.9,2.5,7.7,3.1c2.9,0.6,5.5,0.7,7.8,0.2s4.3-1.5,6-3s3-3.5,3.9-5.9
					s1.5-5.3,1.6-8.6c0.1-3.3-0.2-6.4-1-9.1c-0.7-2.8-1.9-5.2-3.4-7.4c-1.5-2.1-3.4-3.9-5.7-5.3
					C1400.6,287.7,1398,286.7,1395.1,286.1"/>
			</g>
		</g>
	</g>
	<polygon class="st5" points="1406.4,231.3 1358.2,268.1 1464.5,270.5 1509.2,233 	"/>
	<g>
		<g>
			<defs>
				<polygon id="SVGID_00000024688735834888443370000017416495318943612590_" points="1358.2,268.1 1464.5,270.5 1509.2,233 
					1406.4,231.3 				"/>
			</defs>
			<clipPath id="SVGID_00000131334240443634151950000002567171104302941831_">
				<use xlink:href="#SVGID_00000024688735834888443370000017416495318943612590_"  style="overflow:visible;"/>
			</clipPath>
			<g style="clip-path:url(#SVGID_00000131334240443634151950000002567171104302941831_);">
				<path class="st0" d="M1420.1,238.8l-4.3,1.9l32.9,21.2l4.4-2L1420.1,238.8L1420.1,238.8z M1414.7,256.5c-0.9,0.4-2,0.8-3.2,1.1
					c-1.2,0.3-2.4,0.5-3.8,0.6c-1.3,0.1-2.8,0.2-4.2,0.1c-1.5,0-3-0.2-4.5-0.4c-1.6-0.2-2.9-0.5-3.9-0.7c-1-0.3-1.7-0.6-2-0.9
					c-0.4-0.3-0.4-0.7-0.1-1.1c0.3-0.4,0.9-0.8,1.8-1.2s2-0.8,3.1-1c1.2-0.3,2.4-0.5,3.7-0.6c1.3-0.1,2.8-0.2,4.2-0.1
					c1.5,0,3,0.2,4.6,0.4s2.8,0.4,3.8,0.7s1.6,0.6,2,0.9c0.3,0.3,0.4,0.7,0.1,1.1C1416.2,255.7,1415.6,256.1,1414.7,256.5
					 M1474.5,246.6c-0.9,0.4-2,0.8-3.1,1c-1.1,0.3-2.4,0.5-3.7,0.6c-1.3,0.1-2.7,0.2-4.2,0.1c-1.5,0-3-0.1-4.5-0.3
					c-1.6-0.2-2.9-0.4-4-0.7c-1-0.3-1.7-0.6-2.1-0.9s-0.5-0.7-0.2-1.1c0.2-0.4,0.8-0.8,1.7-1.2c0.9-0.4,1.9-0.7,3.1-1
					c1.1-0.3,2.4-0.5,3.7-0.6c1.3-0.1,2.8-0.2,4.3-0.1c1.5,0,3.1,0.2,4.7,0.4s2.9,0.4,3.9,0.7s1.7,0.6,2,0.9
					c0.4,0.3,0.4,0.7,0.2,1.1C1475.9,245.8,1475.4,246.2,1474.5,246.6 M1449.8,243.5c-1.7,0.8-3,1.5-3.7,2.2s-0.9,1.4-0.6,1.9
					c0.3,0.6,1.2,1.1,2.5,1.6s3.2,0.8,5.6,1.1c2.3,0.3,4.7,0.4,7.1,0.4c2.3,0,4.7-0.1,6.9-0.4c2.2-0.3,4.4-0.7,6.4-1.2
					s3.9-1.2,5.5-1.9c1.7-0.8,2.8-1.5,3.4-2.2s0.7-1.3,0.3-1.9c-0.4-0.6-1.3-1.1-2.6-1.6c-1.4-0.4-3.2-0.8-5.6-1.1
					c-2.3-0.3-4.7-0.4-6.9-0.4c-2.3,0-4.5,0.1-6.7,0.4c-2.2,0.3-4.2,0.6-6.2,1.1C1453.3,242.1,1451.5,242.7,1449.8,243.5
					 M1390.3,253.3c-1.8,0.8-3.1,1.6-3.8,2.3c-0.8,0.7-1,1.4-0.7,2s1.1,1.1,2.4,1.6s3.1,0.9,5.4,1.2c2.3,0.3,4.7,0.5,7,0.5
					s4.7-0.1,6.9-0.4c2.3-0.3,4.4-0.7,6.5-1.2c2-0.5,3.9-1.2,5.6-2s2.9-1.5,3.6-2.2s0.8-1.4,0.5-1.9c-0.3-0.6-1.2-1.1-2.5-1.6
					s-3.2-0.8-5.5-1.1s-4.6-0.4-6.9-0.5c-2.3,0-4.5,0.1-6.7,0.4c-2.2,0.3-4.3,0.6-6.2,1.2C1393.9,251.9,1392,252.5,1390.3,253.3"/>
			</g>
		</g>
	</g>
	<polygon class="st8" points="1509.2,233 1464.5,270.5 1480.3,395 1483.1,393.7 1523.9,354.2 	"/>
	<polygon class="st8" points="1509.2,233 1464.5,270.5 1480.3,395 1483.1,393.7 1523.9,354.2 	"/>
	<g>
		<g>
			<defs>
				<polygon id="SVGID_00000068679328446827323150000003050884842316215180_" points="1464.5,270.5 1480.3,395 1483.1,393.7 
					1523.9,354.2 1509.2,233 				"/>
			</defs>
			<clipPath id="SVGID_00000144325273894449963490000007451699588659608736_">
				<use xlink:href="#SVGID_00000068679328446827323150000003050884842316215180_"  style="overflow:visible;"/>
			</clipPath>
			<g style="clip-path:url(#SVGID_00000144325273894449963490000007451699588659608736_);">
				<path class="st0" d="M1504.7,259.6l-2.9,1.3l-13.2,105.6l3-1.6L1504.7,259.6L1504.7,259.6z M1485.8,311.2
					c-0.6,0.3-1.2,0.2-1.8-0.2c-0.6-0.4-1.1-1.2-1.5-2.4c-0.4-1.1-0.8-2.6-1.1-4.4c-0.3-1.8-0.6-3.9-0.7-6.3
					c-0.2-2.5-0.2-4.8-0.2-6.9s0.2-3.9,0.4-5.4c0.2-1.5,0.6-2.8,1.1-3.8s1-1.6,1.7-1.9c0.6-0.3,1.2-0.2,1.8,0.3
					c0.5,0.5,1,1.3,1.5,2.4c0.4,1.2,0.8,2.7,1.1,4.5c0.3,1.8,0.6,4,0.7,6.5c0.2,2.5,0.2,4.7,0.2,6.7s-0.2,3.8-0.4,5.2
					c-0.3,1.5-0.6,2.7-1,3.6C1487,310.3,1486.4,310.9,1485.8,311.2 M1509.5,346.3c-0.6,0.3-1.2,0.3-1.7-0.1s-1-1.2-1.4-2.3
					c-0.4-1.1-0.8-2.5-1.1-4.2c-0.3-1.7-0.5-3.8-0.7-6.1c-0.2-2.4-0.2-4.7-0.2-6.7s0.2-3.8,0.4-5.3c0.2-1.5,0.6-2.8,1-3.7
					c0.4-1,1-1.6,1.6-1.9s1.2-0.2,1.7,0.2c0.5,0.4,1,1.2,1.4,2.3c0.4,1.1,0.8,2.6,1.1,4.4c0.3,1.8,0.5,3.9,0.7,6.4
					c0.2,2.4,0.2,4.6,0.2,6.5s-0.2,3.7-0.4,5.1c-0.2,1.5-0.6,2.7-1,3.6C1510.6,345.4,1510.1,346,1509.5,346.3 M1507,308.6
					c-1.2,0.6-2.2,1.6-3.1,3.1s-1.5,3.3-2.1,5.6c-0.5,2.3-0.8,4.9-1,7.9c-0.1,3-0.1,6.3,0.2,9.9c0.3,3.5,0.7,6.6,1.2,9.3
					c0.5,2.6,1.2,4.7,2,6.3c0.8,1.6,1.7,2.7,2.6,3.2c1,0.5,2,0.5,3.2-0.1c1.1-0.6,2.1-1.7,2.9-3.2s1.5-3.4,2-5.7
					c0.5-2.3,0.8-4.9,0.9-7.9c0.1-2.9,0.1-6.2-0.2-9.7c-0.2-3.5-0.6-6.6-1.1-9.1c-0.5-2.6-1.1-4.7-1.9-6.3c-0.7-1.6-1.6-2.7-2.5-3.3
					C1509.2,308.1,1508.1,308.1,1507,308.6 M1483.2,272.6c-1.2,0.6-2.3,1.6-3.2,3.1c-0.9,1.5-1.6,3.4-2.2,5.7c-0.5,2.3-0.9,5-1,8
					s-0.1,6.4,0.2,10.1c0.3,3.7,0.7,6.8,1.3,9.5c0.6,2.7,1.3,4.9,2.1,6.6c0.8,1.7,1.7,2.8,2.8,3.4c1,0.6,2.1,0.6,3.3,0
					c1.2-0.6,2.2-1.7,3-3.2c0.9-1.5,1.5-3.4,2-5.8c0.5-2.3,0.8-5,1-8c0.1-3,0.1-6.3-0.2-9.9c-0.3-3.6-0.7-6.7-1.2-9.4
					c-0.5-2.7-1.2-4.8-2-6.5s-1.7-2.8-2.7-3.4C1485.4,272.1,1484.3,272,1483.2,272.6"/>
			</g>
		</g>
	</g>
</g>
<g>
	
		<radialGradient id="SVGID_00000080164990100955382210000010609751814522155152_" cx="1567.65" cy="399.25" r="54.1742" gradientTransform="matrix(1 0 0 -1 0 520)" gradientUnits="userSpaceOnUse">
		<stop  offset="4.475343e-07" style="stop-color:#FFFFFF;stop-opacity:0"/>
		<stop  offset="0.1022" style="stop-color:#F3F3F3;stop-opacity:3.065731e-02"/>
		<stop  offset="0.2882" style="stop-color:#D3D2D2;stop-opacity:8.645798e-02"/>
		<stop  offset="0.537" style="stop-color:#9F9E9E;stop-opacity:0.1611"/>
		<stop  offset="0.8358" style="stop-color:#595656;stop-opacity:0.2507"/>
		<stop  offset="1" style="stop-color:#2F2B2C;stop-opacity:0.3"/>
	</radialGradient>
	<path style="fill:url(#SVGID_00000080164990100955382210000010609751814522155152_);" d="M1532.9,59h69.5c5.8,0,10.6,4.7,10.6,10.6
		v102.3c0,5.8-4.7,10.6-10.6,10.6h-69.5c-5.8,0-10.6-4.7-10.6-10.6V69.6C1522.3,63.7,1527,59,1532.9,59z"/>
	
		<radialGradient id="SVGID_00000136411743072864214750000010093634549614517669_" cx="1483.25" cy="447.95" r="58.8641" gradientTransform="matrix(1 0 0 -1 0 520)" gradientUnits="userSpaceOnUse">
		<stop  offset="4.475343e-07" style="stop-color:#FFFFFF;stop-opacity:0"/>
		<stop  offset="0.1022" style="stop-color:#F3F3F3;stop-opacity:3.065731e-02"/>
		<stop  offset="0.2882" style="stop-color:#D3D2D2;stop-opacity:8.645798e-02"/>
		<stop  offset="0.537" style="stop-color:#9F9E9E;stop-opacity:0.1611"/>
		<stop  offset="0.8358" style="stop-color:#595656;stop-opacity:0.2507"/>
		<stop  offset="1" style="stop-color:#2F2B2C;stop-opacity:0.3"/>
	</radialGradient>
	<path style="fill:url(#SVGID_00000136411743072864214750000010093634549614517669_);" d="M1438.2,22.8c0,0-9.6,2.2-7.4,11.8
		l21.7,94.1c0,0,2.2,9.6,11.8,7.4l64-14.8c0,0,9.6-2.2,7.4-11.8L1514,15.4c0,0-2.2-9.6-11.8-7.4C1502.2,8,1438.2,22.8,1438.2,22.8z"
		/>
	
		<radialGradient id="SVGID_00000005962106320251359720000016492961478943242376_" cx="1722.45" cy="442.1" r="56.6072" gradientTransform="matrix(1 0 0 -1 0 520)" gradientUnits="userSpaceOnUse">
		<stop  offset="4.475343e-07" style="stop-color:#FFFFFF;stop-opacity:0"/>
		<stop  offset="0.1022" style="stop-color:#F3F3F3;stop-opacity:3.065731e-02"/>
		<stop  offset="0.2882" style="stop-color:#D3D2D2;stop-opacity:8.645798e-02"/>
		<stop  offset="0.537" style="stop-color:#9F9E9E;stop-opacity:0.1611"/>
		<stop  offset="0.8358" style="stop-color:#595656;stop-opacity:0.2507"/>
		<stop  offset="1" style="stop-color:#2F2B2C;stop-opacity:0.3"/>
	</radialGradient>
	<path style="fill:url(#SVGID_00000005962106320251359720000016492961478943242376_);" d="M1683,20.5c0,0-10.2,0.9-9.3,11.1
		l8.8,100.4c0,0,0.9,10.2,11.1,9.3l68.3-6c0,0,10.2-0.9,9.3-11.1l-8.8-100.4c0,0-0.9-10.2-11.1-9.3C1751.2,14.6,1683,20.5,1683,20.5
		z"/>
	
		<radialGradient id="SVGID_00000129910865680966842220000011127708244844274073_" cx="1918.9501" cy="427.1" r="49.742" gradientTransform="matrix(1 0 0 -1 0 520)" gradientUnits="userSpaceOnUse">
		<stop  offset="4.475343e-07" style="stop-color:#FFFFFF;stop-opacity:0"/>
		<stop  offset="0.1022" style="stop-color:#F3F3F3;stop-opacity:3.065731e-02"/>
		<stop  offset="0.2882" style="stop-color:#D3D2D2;stop-opacity:8.645798e-02"/>
		<stop  offset="0.537" style="stop-color:#9F9E9E;stop-opacity:0.1611"/>
		<stop  offset="0.8358" style="stop-color:#595656;stop-opacity:0.2507"/>
		<stop  offset="1" style="stop-color:#2F2B2C;stop-opacity:0.3"/>
	</radialGradient>
	<path style="fill:url(#SVGID_00000129910865680966842220000011127708244844274073_);" d="M1884.3,42.4c0,0-9,0.8-8.2,9.8l7.7,88.2
		c0,0,0.8,9,9.8,8.2l60-5.2c0,0,9-0.8,8.2-9.8l-7.7-88.2c0,0-0.8-9-9.8-8.2C1944.3,37.2,1884.3,42.4,1884.3,42.4z"/>
	
		<radialGradient id="SVGID_00000122706692326153256520000009344318474053923253_" cx="1644.6001" cy="403.1" r="55.8945" gradientTransform="matrix(1 0 0 -1 0 520)" gradientUnits="userSpaceOnUse">
		<stop  offset="4.475343e-07" style="stop-color:#FFFFFF;stop-opacity:0"/>
		<stop  offset="0.1022" style="stop-color:#F3F3F3;stop-opacity:3.065731e-02"/>
		<stop  offset="0.2882" style="stop-color:#D3D2D2;stop-opacity:8.645798e-02"/>
		<stop  offset="0.537" style="stop-color:#9F9E9E;stop-opacity:0.1611"/>
		<stop  offset="0.8358" style="stop-color:#595656;stop-opacity:0.2507"/>
		<stop  offset="1" style="stop-color:#2F2B2C;stop-opacity:0.3"/>
	</radialGradient>
	<path style="fill:url(#SVGID_00000122706692326153256520000009344318474053923253_);" d="M1636.9,58c0,0-8.1-3.3-11.4,4.8
		l-32.2,79.7c0,0-3.3,8.1,4.8,11.4l54.2,21.9c0,0,8.1,3.3,11.4-4.8l32.2-79.7c0,0,3.3-8.1-4.8-11.4C1691.1,79.9,1636.9,58,1636.9,58
		z"/>
	
		<radialGradient id="SVGID_00000129886348071615211810000004901531602977072035_" cx="1390.6" cy="418.45" r="71.1921" gradientTransform="matrix(1 0 0 -1 0 520)" gradientUnits="userSpaceOnUse">
		<stop  offset="4.475343e-07" style="stop-color:#FFFFFF;stop-opacity:0"/>
		<stop  offset="0.1022" style="stop-color:#F3F3F3;stop-opacity:3.065731e-02"/>
		<stop  offset="0.2882" style="stop-color:#D3D2D2;stop-opacity:8.645798e-02"/>
		<stop  offset="0.537" style="stop-color:#9F9E9E;stop-opacity:0.1611"/>
		<stop  offset="0.8358" style="stop-color:#595656;stop-opacity:0.2507"/>
		<stop  offset="1" style="stop-color:#2F2B2C;stop-opacity:0.3"/>
	</radialGradient>
	<path style="fill:url(#SVGID_00000129886348071615211810000004901531602977072035_);" d="M1359.5,22.6c0,0-12.4-1.7-14.1,10.7
		l-17.1,121.5c0,0-1.7,12.4,10.7,14.1l82.7,11.6c0,0,12.4,1.7,14.1-10.7l17.1-121.5c0,0,1.7-12.4-10.7-14.1L1359.5,22.6L1359.5,22.6
		z"/>
	
		<radialGradient id="SVGID_00000123435867257761533280000009876407959944242062_" cx="1815.5" cy="391.05" r="71.1921" gradientTransform="matrix(1 0 0 -1 0 520)" gradientUnits="userSpaceOnUse">
		<stop  offset="4.475343e-07" style="stop-color:#FFFFFF;stop-opacity:0"/>
		<stop  offset="0.1022" style="stop-color:#F3F3F3;stop-opacity:3.065731e-02"/>
		<stop  offset="0.2882" style="stop-color:#D3D2D2;stop-opacity:8.645798e-02"/>
		<stop  offset="0.537" style="stop-color:#9F9E9E;stop-opacity:0.1611"/>
		<stop  offset="0.8358" style="stop-color:#595656;stop-opacity:0.2507"/>
		<stop  offset="1" style="stop-color:#2F2B2C;stop-opacity:0.3"/>
	</radialGradient>
	<path style="fill:url(#SVGID_00000123435867257761533280000009876407959944242062_);" d="M1784.4,50c0,0-12.4-1.7-14.1,10.7
		l-17.1,121.5c0,0-1.7,12.4,10.7,14.1l82.7,11.6c0,0,12.4,1.7,14.1-10.7l17.1-121.5c0,0,1.7-12.4-10.7-14.1L1784.4,50L1784.4,50z"/>
	<path class="st3" d="M1530.2,56.6h69.5c5.8,0,10.6,4.7,10.6,10.6v102.3c0,5.8-4.7,10.6-10.6,10.6h-69.5c-5.8,0-10.6-4.7-10.6-10.6
		V67.2C1519.6,61.3,1524.3,56.6,1530.2,56.6z"/>
	<path class="st0" d="M1576.9,91.8c-6.1,0-12.2,0-18.3,0c-1,0-1.8-0.5-2.1-1.3c-0.3-0.9-0.1-2.1,0.6-2.6c0.5-0.3,1.1-0.5,1.7-0.5
		c6.5,0,13.1,0,19.6,0c5.5,0,11.1,0,16.6,0c1.6,0,2.4,0.8,2.4,2.3c0,1.2-0.8,2.1-2.1,2.1c-2.9,0-5.8,0-8.7,0
		C1583.4,91.8,1580.1,91.8,1576.9,91.8L1576.9,91.8z"/>
	<path class="st0" d="M1576.9,114.4c-5.9,0-11.8,0-17.7,0c-0.5,0-1,0-1.5-0.1c-1-0.3-1.5-1.3-1.3-2.4c0.1-1,0.9-1.8,1.9-1.8
		c0.9-0.1,1.7,0,2.6,0c11.3,0,22.6,0,33.9,0c1.6,0,2.5,0.8,2.5,2.2c0,1.3-0.8,2.2-2.2,2.2c-3.4,0-6.8,0-10.2,0
		C1582.3,114.4,1579.6,114.4,1576.9,114.4"/>
	<path class="st0" d="M1576.9,136.9c-6.1,0-12.1,0-18.2,0c-1.6,0-2.5-1.1-2.2-2.7c0.2-1,0.9-1.7,2.1-1.7s2.4,0,3.5,0
		c10.9,0,21.9,0,32.8,0c0.5,0,1,0.1,1.5,0.3c0.9,0.4,1.3,1.5,1.1,2.5c-0.2,1-1,1.6-2.1,1.6c-3.9,0-7.8,0-11.8,0L1576.9,136.9
		L1576.9,136.9z"/>
	<path class="st0" d="M1540.6,135.3L1540.6,135.3c-1,0-2.1,0-3.1,0c-1.3,0-3,0.9-2.9,2.9c0.1,1.9,0,3.8,0,5.7c0,1.8,1.2,3,3,3
		c1.9,0,3.8,0,5.7,0c1.7,0,2.8-0.9,2.8-2.6c0.1-2.2,0.1-4.4,0-6.6c-0.1-1.4-1.1-2.3-2.6-2.4C1542.6,135.3,1541.6,135.3,1540.6,135.3
		 M1549,141.1c0,1,0,2.1,0,3.1c0,2.9-2,5.2-4.8,5.4c-2.5,0.2-5.1,0.2-7.7,0c-2.7-0.2-4.7-2.7-4.7-5.4c0-2,0-4.1,0-6.1
		c0-3,2.1-5.4,5.1-5.6c2.5-0.1,4.9-0.1,7.4,0s4.6,2.4,4.7,5C1549,138.7,1549,139.9,1549,141.1L1549,141.1L1549,141.1z"/>
	<path class="st0" d="M1540.6,112.8L1540.6,112.8c-1.1,0.1-2.1,0-3.2,0.1c-1.8,0-2.8,1.1-2.8,2.8c0,1.9,0,3.9,0,5.8
		c0,1.7,1.3,2.9,3,3c2,0,3.9,0,5.9,0c1.1,0,1.9-0.5,2.4-1.6c0.2-0.5,0.3-1.1,0.3-1.6c0-1.9,0-3.8,0-5.7c0-0.3,0-0.6-0.1-0.9
		c-0.2-1.1-1.3-1.9-2.3-1.9C1542.7,112.8,1541.7,112.8,1540.6,112.8 M1548.9,118.4c0,1.4,0.2,2.9,0,4.3c-0.4,2.5-2.3,4.3-4.8,4.4
		c-2.4,0.1-4.9,0.1-7.3-0.1c-2.7-0.2-4.8-2.7-4.9-5.4c0-1.9,0.1-3.9,0-5.8c-0.1-3.5,2.7-5.6,5.2-5.7c2.4-0.1,4.9-0.1,7.3,0
		c2.6,0.1,4.6,2.3,4.7,5c0,1.1,0,2.2,0,3.3C1548.9,118.4,1548.9,118.4,1548.9,118.4"/>
	<path class="st0" d="M1545.6,87.7c-0.8,0.8-1.4,1.5-2.2,2.2c-0.1,0.1-0.4,0.2-0.7,0.2c-1.7,0-3.4,0-5.1,0c-1.9,0-3,1.1-3,3
		s0,3.7,0,5.6c0,1.8,1.2,3,3,3c1.9,0,3.8,0,5.7,0c1.8,0,2.9-1,2.9-2.8c0-0.8,0-1.6,0-2.4c0-0.2,0.1-0.5,0.2-0.6
		c0.8-0.8,1.6-1.7,2.5-2.6c0.1,0.3,0.1,0.4,0.1,0.5c0,1.8,0,3.5,0,5.3c-0.1,2.9-2.1,5.2-5,5.4c-2.4,0.1-4.8,0.1-7.2,0
		c-2.8-0.2-4.9-2.7-5-5.5c0-2.1,0-4.1,0-6.2c0-2.6,2.1-5.1,4.7-5.2c2.7-0.2,5.4,0,8.1,0C1544.9,87.5,1545.2,87.6,1545.6,87.7"/>
	<path class="st0" d="M1568,122c-3.1,0-6.3,0-9.4,0c-1.8,0-2.8-1.9-1.9-3.4c0.4-0.7,1.1-1,1.9-1c4.5,0,9,0,13.5,0c1.7,0,3.4,0,5.1,0
		c1.5,0,2.4,0.8,2.4,2.2c0,1.4-0.9,2.2-2.4,2.2C1574.1,122,1571,122,1568,122"/>
	<path class="st0" d="M1568,94.8c3.1,0,6.2,0,9.3,0c1.3,0,2.2,0.8,2.2,2.1c0,1.4-0.8,2.3-2.2,2.3c-6.3,0-12.5,0-18.8,0
		c-1.3,0-2.2-0.9-2.2-2.3c0-1.3,0.9-2.1,2.2-2.1C1561.7,94.8,1564.9,94.8,1568,94.8"/>
	<path class="st0" d="M1568,140c3.1,0,6.2,0,9.3,0c1.4,0,2.3,0.8,2.3,2.2s-0.9,2.3-2.3,2.3c-6.2,0-12.4,0-18.6,0
		c-1.7,0-2.7-1.6-2.1-3.2c0.4-0.9,1.1-1.3,2-1.3C1561.7,140,1564.8,140,1568,140"/>
	<path class="st0" d="M1540.4,95.4c0.7-0.8,1.4-1.4,2-2.1c2-2,4-4.1,6.1-6.1c0.5-0.5,1-0.6,1.6-0.3c0.6,0.3,0.9,0.8,0.8,1.4
		c-0.1,0.3-0.2,0.7-0.5,0.9c-3,3-5.9,6-8.9,9c-0.7,0.7-1.4,0.7-2.1,0s-1.3-1.3-2-2c-0.6-0.6-0.6-1.4,0-2c0.6-0.5,1.4-0.5,2,0
		C1539.8,94.6,1540.1,95,1540.4,95.4"/>
	<line class="st22" x1="1563.3" y1="56.6" x2="1563.3" y2="-10.3"/>
	<line class="st22" x1="1472.6" y1="56.6" x2="1472.6" y2="-10.3"/>
	<line class="st22" x1="1658.1" y1="76.3" x2="1658.1" y2="-11.4"/>
	<path class="st3" d="M1435.5,20.4c0,0-9.6,2.2-7.4,11.8l21.7,94.1c0,0,2.2,9.6,11.8,7.4l64-14.8c0,0,9.6-2.2,7.4-11.8L1511.4,13
		c0,0-2.2-9.6-11.8-7.4C1499.5,5.6,1435.5,20.4,1435.5,20.4z"/>
	<path class="st0" d="M1474.7,84c0.5-2,0.9-3.9,1.3-5.9c0.2-1,0.7-1.7,1.6-2c0.3-0.1,0.2-0.3,0.3-0.5c0.8-4.5,1.5-9,2.3-13.5
		c0.6-3.6,1.2-7.1,1.8-10.7c0.1-0.4,0.2-0.5,0.5-0.4c0.4,0.1,0.9,0.2,1.3,0.2s0.5,0.2,0.4,0.6c-1.2,6.7-2.3,13.5-3.5,20.2
		c-0.2,1.3-0.4,2.6-0.7,3.9c-0.1,0.3,0,0.5,0.2,0.7c0.7,0.6,0.9,1.5,0.7,2.4c-0.8,3.6-1.6,7.2-2.4,10.8c-0.5,2-2.3,2.7-4.1,1.5
		c-1-0.7-1.7-1.6-2.5-2.4c-0.7-0.7-1.5-1.4-2.1-2.2c-0.3-0.3-0.5-0.4-0.9-0.1c-0.7,0.4-0.7,0.4-0.4,1.1c1.1,2.1,2.2,4.3,3.3,6.4
		c0.9,1.7,1.8,3.4,2.7,5.2c0.2,0.3,0.2,0.5-0.2,0.7c-6,3-12,6.1-18,9.2c-0.3,0.2-0.5,0.1-0.6-0.2c-2.3-4.6-4.6-9.1-6.9-13.7
		c-0.8-1.6-1.2-3.3-0.8-5c0.4-1.9,1.5-3.2,3-4.2s3.1-1.6,4.6-2.4c2.1-1.1,4.3-2.2,6.4-3.3c3.8-1.9,8-1.2,10.9,1.9
		C1473.6,82.8,1474.1,83.3,1474.7,84"/>
	<path class="st0" d="M1470.5,45.1c8.2-4.2,16.3-8.3,24.5-12.5c1.3-0.7,2.5-0.1,3,1c7,13.8,14.1,27.6,21.1,41.4c0.7,1.3,0.3,2.3-1,3
		c-12.8,6.5-25.5,13-38.3,19.5c-0.4,0.2-0.6,0.2-0.8-0.3c-0.4-0.9-0.8-1.7-1.3-2.5c-0.1-0.2-0.1-0.4,0.2-0.5c0.1,0,0.2-0.1,0.4-0.2
		c12-6.1,24.1-12.3,36.1-18.4c0.7-0.3,0.6-0.2,0.3-0.9c-6.4-12.5-12.7-24.9-19.1-37.4c-0.2-0.4-0.5-0.5-0.9-0.3
		c-15,7.7-30.1,15.3-45.1,23c-0.7,0.3-0.6,0.2-0.3,0.9c0.6,1.1,1.1,2.2,1.7,3.3c0.2,0.3,0.1,0.5-0.2,0.6c-0.9,0.4-1.7,0.9-2.6,1.3
		c-0.3,0.1-0.4,0.1-0.6-0.2c-0.9-1.9-1.9-3.7-2.8-5.6c-0.5-1.1-0.2-2.1,0.9-2.7C1454,53.5,1462.3,49.3,1470.5,45.1"/>
	<path class="st0" d="M1451.6,69.4c3.2-1.7,7.2-0.4,8.9,2.8c1.7,3.2,0.4,7.2-2.9,8.9c-3.2,1.6-7.2,0.3-8.8-2.9
		C1447,75,1448.3,71,1451.6,69.4"/>
	<line class="st22" x1="1719.2" y1="56.6" x2="1719.2" y2="-10.3"/>
	<path class="st3" d="M1680.3,18.1c0,0-10.2,0.9-9.3,11.1l8.8,100.4c0,0,0.9,10.2,11.1,9.3l68.3-6c0,0,10.2-0.9,9.3-11.1l-8.8-100.4
		c0,0-0.9-10.2-11.1-9.3C1748.6,12.2,1680.3,18.1,1680.3,18.1z"/>
	<path class="st0" d="M1720.1,91.9L1720.1,91.9c0.7,0,1.4-0.1,2.2,0c0.7,0.1,1-0.2,1.2-1c0.8-3.8,2.4-7.2,5.1-10
		c1.4-1.4,2.5-3.1,3.6-4.8c1.6-2.7,2.2-5.7,1.6-9c-1.8-9.8-12-15.5-20.9-11.6c-6.4,2.8-9.9,10.2-8.1,17.1c0.9,3.3,2.9,6.1,5.4,8.3
		c3.2,2.9,5.4,6.4,6.7,10.5c0.1,0.4,0.3,0.6,0.7,0.5C1718.4,91.9,1719.2,91.9,1720.1,91.9 M1727.8,96.6c-4.9,0.1-9.8,0.2-14.5,0.3
		c-0.3-1.5-0.5-3-0.9-4.4c-0.8-2.8-2.3-5.2-4.5-7.2c-3.2-2.9-5.9-6.2-7.4-10.3c-3-8.6,0.5-18.4,8.4-23c11.7-6.9,27.1,0.4,29.6,14.2
		c1,5.3-0.1,10.1-3.1,14.4c-1,1.4-2,2.8-3.3,4c-2.6,2.6-3.7,5.8-4.1,9.4C1727.9,94.8,1727.9,95.7,1727.8,96.6"/>
	<path class="st0" d="M1726.2,111.7c-0.4,2-0.9,2.5-2.9,2.5c-1.4,0-2.7,0.1-4.1,0.1c-1.8,0-2.5-0.6-2.9-2.3
		c-1.8-0.5-2.5-1.2-2.6-2.6c0-1.4,0.8-2.4,2.1-2.4c3.4-0.1,6.8-0.2,10.2-0.2c1.2,0,2.2,0.9,2.3,2.1c0.2,1.3-0.4,2.4-1.6,2.7
		C1726.6,111.6,1726.4,111.7,1726.2,111.7"/>
	<path class="st0" d="M1682.3,72.6c-0.1-1.7-0.2-3.2-0.2-4.9c4.9-0.1,9.8-0.2,14.7-0.3c0.1,1.6,0.2,3.2,0.2,4.9
		C1692.1,72.4,1687.2,72.5,1682.3,72.6"/>
	<path class="st0" d="M1755.9,66c0.1,1.6,0.2,3.2,0.2,4.8c-4.9,0.1-9.7,0.2-14.7,0.3c-0.1-1.6-0.2-3.2-0.2-4.8
		C1746.1,66.3,1751,66.2,1755.9,66"/>
	<path class="st0" d="M1720.9,104.3c-1.6,0-3.1,0.1-4.7,0.1c-1.7,0-2.7-0.8-2.8-2.4c-0.1-1.5,0.9-2.5,2.5-2.5
		c3.2-0.1,6.4-0.2,9.5-0.2c1.9,0,3.1,1.5,2.5,3.4c-0.3,1-1.1,1.5-2.2,1.6C1724.1,104.2,1722.5,104.3,1720.9,104.3"/>
	<path class="st0" d="M1702.3,50.4c-1,1.1-2,2.2-3.1,3.3c-3-2.9-6.1-5.8-9.1-8.6c1-1.1,2-2.2,3-3.4
		C1696.2,44.6,1699.3,47.5,1702.3,50.4"/>
	<path class="st0" d="M1737.3,52.9c-1.1-1.1-2.3-2.1-3.4-3.2c2.8-3,5.5-6.1,8.3-9.1c1.1,1,2.2,2.1,3.3,3.2
		C1742.9,46.8,1740.1,49.8,1737.3,52.9"/>
	<path class="st0" d="M1704.4,89c-2.7,2.9-5.4,6-8.2,8.9c-1.1-1.1-2.3-2.2-3.5-3.3c2.7-2.9,5.4-6,8.2-9
		C1702.1,86.7,1703.2,87.8,1704.4,89"/>
	<path class="st0" d="M1735.7,88.1c1-1.1,2.1-2.3,3.3-3.6c3,2.9,6.1,5.8,9.1,8.7c-1.1,1.2-2.2,2.4-3.2,3.5
		C1741.8,93.9,1738.8,91,1735.7,88.1"/>
	<path class="st0" d="M1720.4,46.7c-1.6,0-3.1,0.1-4.7,0.1c-0.2-3.3-0.3-6.5-0.5-9.9c1.6,0,3.1-0.1,4.7-0.1
		C1720,40.1,1720.2,43.4,1720.4,46.7"/>
	<line class="st22" x1="1910.5" y1="56.6" x2="1910.5" y2="-11.4"/>
	<path class="st3" d="M1881.6,40c0,0-9,0.8-8.2,9.8l7.7,88.2c0,0,0.8,9,9.8,8.2l60-5.2c0,0,9-0.8,8.2-9.8l-7.7-88.2
		c0,0-0.8-9-9.8-8.2L1881.6,40z"/>
	<path class="st0" d="M1924.6,125.7l-14.4,1.3l-1.3-14.4l14.4-1.3L1924.6,125.7z M1894.1,59.3c5.2-2.5,10.5-3.8,15.7-4.2
		c13.6-1.2,22.8,3.8,23.9,16c0.5,5.9-1.1,10.3-6.5,18c-5.2,7.2-5.7,10-5.4,13.9l0.1,0.8l-13.1,1.1l-0.1-1.2
		c-0.6-6.3,0.2-9.3,5.8-17.9c2.9-4.4,4.3-7.6,4-11.1c-0.5-5.8-4.8-7.9-10.9-7.4c-4,0.4-8.1,1.7-11.8,3.9L1894.1,59.3L1894.1,59.3z"
		/>
	<path class="st3" d="M1634.2,55.6c0,0-8.1-3.3-11.4,4.8l-32.2,79.7c0,0-3.3,8.1,4.8,11.4l54.2,21.9c0,0,8.1,3.3,11.4-4.8l32.2-79.7
		c0,0,3.3-8.1-4.8-11.4C1688.4,77.5,1634.2,55.6,1634.2,55.6z"/>
	<path class="st0" d="M1609.1,128.8c1.2,0.5,2.3,0.9,3.6,1.5c-0.2,0.4-0.3,0.7-0.4,1c-0.8,2-1.6,3.9-2.4,5.9
		c-0.5,1.3-0.1,2.3,1.2,2.8c11.8,4.8,23.5,9.5,35.3,14.3c1.4,0.6,2.3,0.2,2.9-1.2c0.9-2.2,1.8-4.5,2.8-6.8c1.2,0.5,2.3,0.9,3.5,1.4
		c-0.1,0.2-0.1,0.4-0.2,0.6c-0.9,2.1-1.7,4.3-2.6,6.4c-1.3,3.2-4.5,4.6-7.7,3.3c-11.9-4.8-23.8-9.6-35.7-14.4
		c-2.5-1-3.8-3.2-3.7-5.9c0-0.2,0-0.4,0-0.7L1609.1,128.8L1609.1,128.8z"/>
	<path class="st0" d="M1652.9,103.4c-1.6-0.6-3.1,1.1-5.2,6.3c-1.9,4.7-2,7.1-0.4,7.8c1.6,0.6,3.1-1.1,5.1-5.9
		C1654.5,106.3,1654.5,104,1652.9,103.4"/>
	<path class="st0" d="M1645.9,120.7c-4.5-1.8-5.1-6.5-2.5-13c2.6-6.4,6.3-9.4,10.9-7.6c4.6,1.9,4.9,6.6,2.3,13
		C1654.1,119.6,1650.6,122.6,1645.9,120.7 M1637.1,116.7l-4.5-1.8l4.3-10.6c0.7-1.7,1.7-3.8,2.1-4.8h-0.1c-0.8,0.3-2.4,0.7-4.2,1.2
		l-0.5-4l6.9-1.4l4,1.6L1637.1,116.7L1637.1,116.7z M1670.7,124c-2.1-1.1-4.3-2-6.5-2.9c-1.9-0.8-3.8-1.6-6-2.4
		c0.3-0.8,0.6-1.4,0.8-2c3-7.4,5.9-14.8,9-22.2c1.3-3.2,1.4-6.3-0.4-9.3c-0.8-1.4-2.1-2.5-3.2-3.7c-5.2-2.1-10.5-4.2-15.7-6.4
		c-0.2,0-0.3,0.1-0.5,0.1c-5.9-0.3-9,1.7-11.3,7.2c-2.9,7.2-5.8,14.5-8.8,21.7c-0.2,0.6-0.5,1.2-0.8,2c-0.8-0.3-1.4-0.6-2-0.8
		c-3.5-1.3-7-2.7-10.5-3.9c-1.6-0.6-2.3,0.1-1.9,1.8c0.3,1.1,0.7,2.3,1.2,3.4c4.3,10.2,8.6,20.4,13,30.6c0.6,1.3,1.3,2.6,2.1,3.9
		c0.8,1.3,2,1.7,3.5,1.5c0.8-0.2,1.7-0.4,2.4-0.7c11.3-4.8,22.6-9.5,33.9-14.3c0.6-0.3,1.2-0.6,1.8-1
		C1672,125.5,1672,124.6,1670.7,124"/>
	<line class="st22" x1="1395.3" y1="56.6" x2="1395.3" y2="-10.3"/>
	<path class="st3" d="M1356.9,20.2c0,0-12.4-1.7-14.1,10.7l-17.1,121.5c0,0-1.7,12.4,10.7,14.1l82.7,11.6c0,0,12.4,1.7,14.1-10.7
		l17-121.4c0,0,1.7-12.4-10.7-14.1L1356.9,20.2L1356.9,20.2z"/>
	<path class="st0" d="M1356.4,133.8c16.7,2.7,33.5,5.3,50.2,7.9c3.1-19.6,6.2-39.1,9.3-58.6c-16.8-2.7-33.4-5.3-50.2-7.9
		C1362.6,94.7,1359.5,114,1356.4,133.8 M1376.6,60.5c-0.6,6.4,1.5,9.1,7.4,10.1c5.4,0.9,10.9,1.7,16.3,2.6c5.3,0.8,8.2-1.1,9.5-6.5
		c0.1-0.2,0.2-0.4,0.3-0.6c3.7,0.6,7.4,0.9,11,1.8c3.1,0.8,4.2,3.6,3.6,7.2c-3,18.8-5.9,37.6-8.9,56.4c-0.6,4.1-1.3,8.1-1.9,12.2
		c-0.7,4.5-3.2,6.3-7.6,5.6c-17.2-2.7-34.4-5.4-51.7-8.2c-4.4-0.7-6.1-3.1-5.5-7.4c3.6-23.1,7.3-46.3,11-69.4
		c0.7-4.3,2.9-5.8,7.1-5.2C1370.3,59.5,1373.4,60,1376.6,60.5"/>
	<path class="st0" d="M1390.1,125.8c3.5,0.6,7.1,1.2,10.6,1.7c1.5,0.2,2.3,0.8,2,2.5s-1.1,2.2-2.8,1.9c-7-1.2-14-2.3-21-3.3
		c-1.5-0.2-2.5-0.7-2.2-2.6c0.3-2,1.4-2.2,3-1.9C1383.1,124.7,1386.6,125.2,1390.1,125.8C1390.1,125.7,1390.1,125.8,1390.1,125.8"/>
	<path class="st0" d="M1392.4,112.6c3.5,0.6,6.9,1.1,10.4,1.6c1.5,0.2,2.3,0.8,2,2.5s-1.1,2.2-2.8,1.9c-7-1.1-14-2.2-21-3.3
		c-1.5-0.2-2.5-0.7-2.2-2.5c0.3-2,1.4-2.2,3-1.9C1385.3,111.5,1388.9,112,1392.4,112.6L1392.4,112.6"/>
	<path class="st0" d="M1393.4,105.1c-3.6-0.6-7.2-1.2-10.8-1.7c-1.4-0.2-2.1-0.8-1.9-2.4s1-2.1,2.6-1.9c7.2,1.2,14.4,2.3,21.7,3.4
		c1.5,0.2,2,0.9,1.7,2.4c-0.2,1.5-0.9,2-2.4,1.8C1400.6,106.2,1397,105.7,1393.4,105.1"/>
	<path class="st0" d="M1396.3,87.7c3.5,0.6,7.1,1.2,10.6,1.7c1.4,0.2,2.1,0.9,1.8,2.4c-0.2,1.4-0.9,2.1-2.4,1.9
		c-7.3-1.2-14.6-2.3-21.9-3.5c-1.5-0.2-2-1-1.7-2.5c0.2-1.5,1-2,2.5-1.7C1388.9,86.5,1392.6,87.1,1396.3,87.7"/>
	<path class="st0" d="M1373.6,86.3c1.7-1.4,3.3-2.8,4.9-4c0.5-0.4,1.4-0.1,2.1-0.2c-0.2,0.7-0.2,1.6-0.7,2c-1.7,1.6-3.6,3.1-5.4,4.6
		c-0.9,0.8-1.7,0.7-2.4-0.2c-0.7-0.9-1.7-1.7-2.3-2.7c-0.3-0.5,0-1.3,0-1.9c0.6,0.1,1.3,0,1.7,0.3
		C1372.3,84.7,1372.8,85.5,1373.6,86.3"/>
	<path class="st0" d="M1369.6,111.8c1.8-1.4,3.3-2.8,5-4c0.5-0.3,1.4-0.1,2.1-0.1c-0.2,0.6-0.2,1.5-0.6,1.9
		c-1.8,1.7-3.6,3.3-5.6,4.7c-0.5,0.3-1.6,0.4-2.1,0c-1-0.8-1.9-1.9-2.6-2.9c-0.3-0.4-0.1-1.2-0.1-1.8c0.6,0.1,1.4-0.1,1.9,0.2
		C1368.3,110.2,1368.8,111,1369.6,111.8"/>
	<path class="st0" d="M1371.6,99.4c1.7-1.4,3.1-2.7,4.7-3.8c0.6-0.4,1.5-0.3,2.3-0.5c-0.2,0.7-0.3,1.7-0.8,2.2
		c-1.7,1.6-3.4,3.1-5.3,4.4c-0.5,0.4-1.8,0.3-2.4-0.1c-1-0.7-1.8-1.7-2.5-2.8c-0.3-0.4,0-1.2,0.1-1.8c0.6,0,1.3-0.1,1.7,0.2
		C1370.2,97.7,1370.8,98.5,1371.6,99.4"/>
	<path class="st0" d="M1367.6,124.4c1.6-1.3,3.1-2.6,4.7-3.8c0.6-0.4,1.5-0.3,2.2-0.5c-0.3,0.8-0.3,1.8-0.9,2.3
		c-1.6,1.5-3.4,2.9-5,4.3c-1,0.8-1.7,0.9-2.6-0.2c-0.7-0.9-1.6-1.6-2.2-2.5c-0.3-0.5-0.1-1.4-0.1-2.1c0.6,0.1,1.4,0.1,1.9,0.4
		C1366.4,122.9,1366.9,123.7,1367.6,124.4"/>
	<path class="st0" d="M1403,61.7c-2.4-0.5-3.6-1.9-3.8-4.3c-0.2-2.4-2.1-4.4-4.3-4.6c-2.3-0.3-4.5,1.1-5.3,3.2
		c-0.8,2.2-2.4,3.2-4.6,2.8c-2.9-0.4-5,0.9-5.4,3.5c-0.5,2.6,1,4.5,4,5.1c2.9,0.5,5.9,1,8.9,1.4c3.1,0.5,6.2,1.1,9.3,1.4
		c2.8,0.3,4.7-1.2,5.1-3.7C1407.1,64.1,1405.6,62.2,1403,61.7"/>
	<line class="st22" x1="1822.6" y1="56.6" x2="1822.6" y2="-10.3"/>
	<path class="st3" d="M1781.7,47.6c0,0-12.4-1.7-14.1,10.7l-17.1,121.5c0,0-1.7,12.4,10.7,14.1l82.7,11.6c0,0,12.4,1.7,14.1-10.7
		l17-121.4c0,0,1.7-12.4-10.7-14.1L1781.7,47.6L1781.7,47.6z"/>
	<path class="st0" d="M1786,143.6c5.8,10.7,16.8,11.2,24.2,3.4c2.7,1.6,5.5,3.2,8.3,4.9c1.9,1.2,3.9,2.5,5.5,4c4,3.5,5.4,8.3,6,13.4
		c0.2,2,0.1,4.1,0.1,6.2c0,0.9-0.5,1.4-1.4,1.6c-4.2,1-8.4,1.4-12.7,1.4c-10.7,0-21.2-1.2-31.7-3.2c-7.6-1.5-15.2-3.3-22.2-6.7
		c-0.8-0.4-1.7-0.8-2.5-1.4c-0.4-0.3-0.7-0.9-0.6-1.3c1.5-7.2,4.3-13.5,11-17.4c1.6-0.9,3.3-1.5,5.1-2
		C1778.7,145.5,1782.4,144.6,1786,143.6"/>
	<path class="st0" d="M1814.8,137.7c-0.1,0.2-0.2,0.3-0.3,0.4c-2.1,1.8-3.5,4.2-5,6.4c-1.3,2-3.2,3.5-5.3,4.5c-5,2.5-10.3,1.3-14-3
		c-2-2.3-3.1-5-3.7-7.9c-0.1-0.6-0.3-1.1-0.7-1.6c-2-3.2-3.1-6.6-2.3-10.4c0.2-1.2,0.6-2.3,1.7-3c0.3-0.2,0.4-0.6,0.5-1
		c0.4-2.2,0.6-4.4,1.2-6.5c0.8-2.9,2.6-5.3,4.8-7.4c0.4-0.3,0.8-0.7,1.3-0.9c5.2-2.3,10.5-2.1,15.8-0.1c-0.7,1.5-0.6,2.8,0.2,4.1
		c-0.3,1-0.9,1.4-2,1.3c-1.5-0.2-2.7,0.7-3.2,2.2c-0.4,1.5-0.8,3.1-0.8,4.6c0,1.4,0.8,2.4,2.3,2.8c0.4,0.1,0.7,0.7,0.9,1.1
		c0.1,0.3-0.2,0.9-0.5,1.1c-1.4,1.2-1.8,2.5-1,4.1c0.7,1.3,1.6,2.7,2.6,3.8c1.1,1.1,2.3,1.2,3.6,0.4c0.6-0.3,0.9-0.2,1.4,0.1
		s0.6,0.6,0.5,1.2C1812.7,135.6,1813.3,136.8,1814.8,137.7"/>
	<path class="st0" d="M1827.8,121.6c0.6-3.8-2-7.3-5.8-7.9c-3.9-0.6-7.4,2-8,5.8c-0.6,3.7,2.1,7.4,5.9,8
		C1823.7,128.1,1827.2,125.5,1827.8,121.6 M1826.8,107.7c-0.4,0.8,0,1.5,0.9,1.9c0.1,0.1,0.3,0.1,0.4,0.2c1.2,1.1,2.4,1.6,3.8,0.3
		c0.2-0.2,1.2,0,1.4,0.3c0.8,0.9,1.4,1.9,2,2.9c0.5,0.8,0.2,1.4-0.6,1.9c-1.4,0.9-1.4,0.9-1.1,2.7c0,0.2,0.1,0.3,0.1,0.5
		c-0.1,1.5,0.7,2.2,2.1,2.4c0.8,0.1,1.2,0.7,1.1,1.4c-0.2,1.2-0.4,2.3-0.7,3.5c-0.2,0.8-0.9,1.1-1.7,0.9c-1.7-0.4-1.7-0.4-2.7,1.1
		c-0.1,0.2-0.2,0.4-0.4,0.5c-1.1,0.9-1.1,1.9-0.2,3c0.6,0.7,0.4,1.4-0.3,1.9c-0.9,0.7-1.8,1.3-2.8,1.8c-0.8,0.5-1.6,0.3-2-0.6
		c-0.5-1.2-1.3-1.6-2.6-1.1c-0.2,0.1-0.3,0.1-0.5,0.1c-1.6-0.1-2.3,0.7-2.5,2.2c-0.1,0.4-0.8,1-1.1,0.9c-1.3-0.1-2.7-0.4-4-0.8
		c-0.7-0.2-0.9-0.8-0.7-1.4c0.5-1.4,0.1-2.4-1.3-3c-0.1,0-0.2-0.1-0.3-0.2c-1-1-2-1.2-3.1-0.2c-0.6,0.6-1.3,0.4-1.8-0.2
		c-0.7-1-1.3-2-1.9-3c-0.5-0.8-0.2-1.5,0.6-1.8c1.3-0.6,1.7-1.5,1.1-2.8c-0.1-0.2-0.1-0.3-0.1-0.5c0.1-1.4-0.5-2.1-2-2.2
		c-0.9,0-1.3-0.6-1.2-1.5c0.2-1.1,0.4-2.3,0.7-3.4c0.2-0.9,0.8-1.3,1.7-0.9c1.4,0.5,2.3,0,2.9-1.3c0.1-0.1,0.2-0.2,0.2-0.3
		c1-1.4,1.1-1.4,0.1-2.9c-0.5-0.8-0.5-1.5,0.3-2c0.9-0.6,1.8-1.3,2.8-1.8c0.8-0.5,1.5-0.3,1.9,0.6c1.1,1.8,1.1,1.5,2.8,1.1
		c0.2,0,0.3-0.1,0.5-0.1c1.4,0,2.1-0.5,2.2-2c0-0.9,0.7-1.3,1.5-1.2c1.1,0.2,2.2,0.4,3.3,0.7C1827,105.7,1827.1,106.1,1826.8,107.7"
		/>
	<path class="st0" d="M1820.6,91.1c-0.4,3.3,1.8,6.3,5.2,6.8c3.2,0.5,6.4-1.9,6.8-5.2c0.4-3.3-1.9-6.4-5.1-6.8
		C1824.1,85.4,1821.1,87.8,1820.6,91.1 M1824.4,78.8c0.4,0.5,0.7,0.8,0.8,1.2c0.3,0.9,0.8,1.3,1.8,1.2c0.8,0,1.6,0.1,2.4,0.4
		s1.4,0.1,1.9-0.6c0.5-0.8,1.2-0.9,2-0.4c1,0.8,2,1.6,2.9,2.4c0.6,0.5,0.6,1.2,0.1,1.7c-0.7,0.7-0.6,1.4-0.2,2.2
		c0.4,0.7,0.7,1.5,0.9,2.3c0.2,0.8,0.6,1.2,1.4,1.2c1.1,0,1.5,0.7,1.4,1.7c-0.2,1.2-0.3,2.4-0.5,3.5c-0.2,0.8-0.6,1.2-1.5,1
		s-1.4,0.1-1.9,0.9c-0.4,0.7-1,1.4-1.6,2s-0.8,1.2-0.4,2s0.2,1.4-0.6,1.8c-1.2,0.5-2.4,1-3.6,1.4c-0.8,0.3-1.3,0-1.5-0.8
		c-0.3-0.9-0.8-1.3-1.8-1.2c-0.8,0-1.6-0.1-2.4-0.4c-0.8-0.2-1.4-0.1-1.8,0.6c-0.6,0.9-1.3,1-2.1,0.4c-1-0.7-1.9-1.5-2.8-2.3
		c-0.6-0.5-0.7-1.1-0.1-1.7c0.7-0.7,0.7-1.3,0.2-2.2c-0.4-0.7-0.7-1.5-0.9-2.3c-0.2-0.8-0.6-1.2-1.4-1.2c-1.1,0-1.5-0.7-1.4-1.7
		c0.2-1.2,0.4-2.5,0.6-3.7c0.1-0.7,0.6-1,1.3-0.8c1,0.3,1.6-0.1,2.2-1c0.4-0.7,0.9-1.3,1.5-1.9c0.5-0.5,0.7-1.1,0.4-1.8
		c-0.5-1-0.2-1.6,0.8-2C1821.6,79.9,1822.9,79.4,1824.4,78.8"/>
	<path class="st0" d="M1840.4,132.3c-0.5,3.4,1.8,6.3,5.3,6.8c3.2,0.4,6.3-1.9,6.7-5.1c0.4-3.3-1.9-6.4-5.2-6.8
		C1843.8,126.7,1840.8,129,1840.4,132.3 M1839.6,124.5c-0.1-0.4-0.1-0.8-0.3-1.1c-0.4-0.8-0.1-1.4,0.6-1.7c1.2-0.5,2.5-1,3.7-1.4
		c0.7-0.3,1.2,0,1.4,0.8c0.3,1,0.8,1.3,1.8,1.4c0.8,0,1.7,0.2,2.5,0.4c0.7,0.2,1.3,0.1,1.7-0.6c0.6-0.9,1.3-0.9,2-0.3
		c1,0.8,1.9,1.5,2.8,2.3c0.6,0.6,0.7,1.2,0.1,1.8c-0.6,0.6-0.7,1.3-0.2,2.1c0.4,0.7,0.7,1.5,0.9,2.4c0.2,0.9,0.7,1.3,1.5,1.3
		c1,0.1,1.3,0.6,1.2,1.5c-0.2,1.2-0.3,2.4-0.5,3.5c-0.2,0.9-0.7,1.4-1.7,1.2c-0.8-0.2-1.3,0.1-1.8,0.8s-1,1.4-1.7,2
		c-0.6,0.6-0.8,1.1-0.4,1.9c0.5,0.9,0.1,1.6-0.8,1.9c-1.2,0.5-2.3,0.9-3.5,1.3c-0.7,0.3-1.2-0.1-1.5-0.8c-0.3-1-0.9-1.4-1.9-1.4
		c-0.8,0-1.5-0.2-2.3-0.4s-1.4-0.1-1.9,0.6c-0.5,0.7-1.1,0.9-1.8,0.3c-1.1-0.8-2.1-1.6-3.1-2.5c-0.6-0.5-0.6-1.1,0-1.7
		c0.8-0.7,0.7-1.5,0.2-2.4c-0.4-0.6-0.6-1.4-0.8-2.1c-0.2-0.9-0.6-1.4-1.5-1.4c-1-0.1-1.3-0.7-1.2-1.5c0.2-1.3,0.4-2.6,0.7-3.8
		c0.2-0.8,0.7-1,1.4-0.8c1,0.2,1.6-0.1,2.1-0.9c0.4-0.7,1.1-1.3,1.6-1.9C1839.2,125,1839.4,124.8,1839.6,124.5"/>
</g>
<g class="st23">
	<g>
		<g>
			<g>
				<defs>
					<rect id="SVGID_00000026842413439187036710000007468211481725006470_" x="1761.9" y="152.1" width="256.8" height="247.1"/>
				</defs>
				<clipPath id="SVGID_00000071549221945462940050000006289833854519510969_">
					<use xlink:href="#SVGID_00000026842413439187036710000007468211481725006470_"  style="overflow:visible;"/>
				</clipPath>
				<g style="clip-path:url(#SVGID_00000071549221945462940050000006289833854519510969_);">
					<polygon class="st3" points="1951.6,290.4 1909,356.5 1824.7,319.9 1866.6,252.2 					"/>
					<polygon class="st10" points="1866.6,252.2 1824.7,319.9 1819.9,274.6 1860,208.9 					"/>
					<polygon class="st11" points="1860,208.9 1941.7,246.2 1951.6,290.4 1866.6,252.2 					"/>
					<polygon class="st11" points="1860,208.9 1941.7,246.2 1951.6,290.4 1866.6,252.2 					"/>
					<path class="st0" d="M1856.3,252.5c-0.8-6.9-1.6-13.9-2.4-20.8c-6.2,10-12.6,20.1-19,30.4c0.8,7.2,1.7,14.4,2.5,21.6
						C1843.8,273.1,1850,262.8,1856.3,252.5 M1831.5,289c2.1-3.7,2.8-6.1,2.5-8.6c-0.3-2.3-0.5-4.7-0.8-7s-1.2-2.1-3.1,0.7
						c-0.1,0.1-0.1,0.2-0.2,0.3c-0.2-1.6-0.5-3-0.5-4.8c0-1.5,0.7-3.6,2-5.5c6.3-10.1,12.5-19.9,18.5-29.5c1.3-2,2.6-4.1,3.8-6.1
						c1.4-2.2,2.2-2.4,2.4-0.6c0.8,7.1,1.7,14.2,2.5,21.3c0.2,1.8-0.3,3.7-1.7,6c-7.3,12.1-14.8,24.5-22.6,37.3
						c-1.5,2.4-2.2,2.6-2.4,0.8C1831.8,291.7,1831.6,290.4,1831.5,289"/>
					<path class="st0" d="M1850.6,246c-0.2-1.5-0.3-3-0.5-4.4c-0.1-0.6,0-1.2,0.5-2c0.6-0.9,0.8-0.9,0.8-0.2c0.3,2.9,0.7,5.9,1,8.8
						c0.1,0.6,0,1.2-0.6,2.2s-0.8,0.8-0.9,0.1C1851,248.9,1850.8,247.5,1850.6,246L1850.6,246L1850.6,246z"/>
					<path class="st0" d="M1846.4,252.8c-0.2-1.5-0.3-2.9-0.5-4.4c-0.1-0.6,0-1.2,0.6-2.1c0.6-0.9,0.8-0.9,0.9-0.2
						c0.3,3,0.7,5.9,1,8.8c0.1,0.6,0,1.2-0.6,2.2s-0.8,0.8-0.9,0.1C1846.7,255.8,1846.5,254.3,1846.4,252.8L1846.4,252.8
						L1846.4,252.8z"/>
					<path class="st0" d="M1844,256.8c0.2,1.5,0.4,3.1,0.5,4.6c0.1,0.6,0,1.2-0.5,2c-0.5,0.9-0.8,0.9-0.8,0.2
						c-0.3-3.1-0.7-6.1-1.1-9.2c-0.1-0.6,0.1-1.2,0.6-2s0.7-0.9,0.8-0.2C1843.6,253.7,1843.8,255.2,1844,256.8"/>
					<path class="st0" d="M1838.2,266c-0.2-1.5-0.3-3-0.5-4.5c-0.1-0.6,0.1-1.2,0.6-2s0.8-1,0.8-0.3c0.4,3.1,0.7,6.2,1.1,9.3
						c0.1,0.6-0.1,1.3-0.6,2c-0.5,0.8-0.7,0.8-0.8,0.2C1838.6,269.1,1838.4,267.6,1838.2,266"/>
					<path class="st0" d="M1840.1,274.3c-0.6,0.3-1.2,0.6-1.7,0.7c-0.2,0-0.2-0.4-0.3-0.6c0.2-0.3,0.5-0.9,0.7-1
						c0.7-0.4,1.3-0.6,2-0.9c0.3-0.2,0.4,0.1,0.2,0.9c-0.2,0.8-0.4,1.6-0.6,2.4c-0.1,0.4-0.4,0.8-0.6,1.2c0-0.2-0.1-0.4-0.1-0.7
						C1839.7,275.8,1839.9,275.1,1840.1,274.3"/>
					<path class="st0" d="M1848.4,260.7c-0.6,0.3-1.2,0.5-1.7,0.7c-0.2,0-0.2-0.4-0.2-0.6c0.2-0.3,0.5-0.8,0.6-0.9
						c0.7-0.4,1.4-0.7,2-0.9c0.2,0,0.3,0.3,0.2,0.7c-0.1,0.8-0.4,1.7-0.6,2.6c-0.1,0.3-0.4,0.7-0.5,1.1c0-0.2-0.2-0.4-0.1-0.7
						C1848,262.1,1848.2,261.5,1848.4,260.7"/>
					<path class="st0" d="M1844.3,267.3c-0.6,0.3-1.1,0.5-1.6,0.7c-0.2,0-0.3-0.3-0.4-0.5c0.3-0.4,0.6-0.9,0.8-1
						c0.7-0.4,1.3-0.7,1.9-0.8c0.2,0,0.3,0.4,0.2,0.9c-0.1,0.7-0.4,1.6-0.6,2.5c-0.1,0.3-0.4,0.7-0.6,1c0-0.2-0.2-0.4-0.1-0.7
						C1844,268.7,1844.2,268.1,1844.3,267.3"/>
					<path class="st0" d="M1852.4,254.1c-0.6,0.2-1.1,0.5-1.6,0.6c-0.2,0-0.2-0.3-0.4-0.5c0.3-0.4,0.6-0.9,0.8-1
						c0.6-0.4,1.2-0.5,1.8-0.8c0.3-0.2,0.4,0,0.2,0.9c-0.2,0.7-0.3,1.4-0.5,2.1c-0.1,0.4-0.4,0.8-0.6,1.3c0-0.3-0.1-0.5-0.1-0.9
						C1852.1,255.4,1852.2,254.8,1852.4,254.1"/>
					<path class="st0" d="M1829.1,279.3c0.1,1.1-0.2,2.4-1,3.9s-1.2,3.4-1.1,4.3s0.8,0.8,1.6-0.2c0.8-1.1,1.3-1.1,1.4-0.2
						c0.2,1.2,0.8,1.1,1.7-0.3c0.9-1.4,1.4-3.1,1.2-4.4c-0.1-1.3-0.3-2.6-0.4-3.8c-0.2-1.3-0.3-2.7-0.5-4c-0.2-1.1-0.9-0.9-1.7,0.5
						C1829.5,276.5,1829.1,278.1,1829.1,279.3"/>
					<path class="st0" d="M1899.1,317.6c-1.3-1.7-2.5-3.3-3.7-4.9c-0.6-0.8-0.7-1.5-0.2-2.2c0.2-0.2,0-0.3-0.1-0.5
						c-3.1-3.8-6.3-7.5-9.5-11.3c-2.5-3-5.1-6.1-7.7-9.2c-0.3-0.3-0.2-0.4,0.2-0.5c0.5-0.1,1-0.2,1.5-0.4c0.4-0.2,0.6,0,0.9,0.3
						c4.8,5.8,9.6,11.5,14.3,17.2c0.9,1.1,1.8,2.2,2.7,3.3c0.2,0.2,0.4,0.4,0.8,0.5c1.2,0.2,2.1,0.8,2.6,1.5c2.3,3,4.6,6,6.8,9
						c1.3,1.7,0.1,2.9-2.5,2.7c-1.4-0.1-2.9-0.5-4.3-0.8c-1.3-0.2-2.6-0.5-3.9-0.8c-0.6-0.1-0.8-0.1-1,0.2c-0.3,0.6-0.4,0.6,0.6,1
						c2.8,1.1,5.6,2.3,8.5,3.4c2.3,0.9,4.5,1.8,6.7,2.7c0.5,0.2,0.6,0.3,0.4,0.6c-3,4.6-6,9.2-9,13.7c-0.2,0.3-0.3,0.3-0.8,0.1
						c-5.9-2.3-11.9-4.6-17.9-7c-2.1-0.8-3.9-1.9-5.1-3.3c-1.3-1.5-1.4-3-0.8-4.3c0.5-1.3,1.5-2.4,2.2-3.7c1.1-1.7,2.2-3.4,3.3-5
						c1.9-3,6.5-4.1,11.9-2.9C1897,317.2,1898,317.4,1899.1,317.6"/>
					<path class="st0" d="M1860.9,289.2c4.2-6.7,8.5-13.4,12.7-20.2c0.7-1.1,2.3-1.1,3.8-0.4c19.1,8.5,37.7,16.6,55.7,24.6
						c1.7,0.7,2.2,1.6,1.5,2.6c-6.5,10-13,19.8-19.4,29.7c-0.2,0.3-0.4,0.4-1,0.1c-1.1-0.5-2.2-0.9-3.3-1.3
						c-0.3-0.1-0.4-0.2-0.3-0.4l0.2-0.3c6.1-9.3,12.2-18.7,18.4-28.1c0.3-0.5,0.4-0.4-0.4-0.8c-16.3-7.2-33.1-14.5-50.3-22.1
						c-0.5-0.2-0.9-0.2-1.1,0.1c-7.8,12.3-15.6,24.6-23.3,36.7c-0.3,0.5-0.4,0.4,0.5,0.8c1.6,0.6,3.1,1.3,4.7,1.9
						c0.5,0.2,0.5,0.3,0.4,0.6c-0.5,0.7-0.9,1.4-1.3,2.1c-0.1,0.2-0.3,0.3-0.7,0.1c-2.6-1.1-5.2-2.1-7.9-3.1
						c-1.5-0.6-2.1-1.5-1.6-2.4C1852.4,302.7,1856.6,296,1860.9,289.2"/>
					<path class="st0" d="M1864.4,316c1.7-2.6,6.6-3.2,11-1.4c4.4,1.8,6.7,5.3,5,7.9c-1.6,2.5-6.5,3.2-11,1.4
						C1865,322.1,1862.8,318.6,1864.4,316"/>
					<path class="st0" d="M1882.9,233.7c0.4,2.6,0.8,5.3,1.3,8c0.1,0.5-0.3,0.6-0.9,0.5c-0.7-0.1-1.7-0.6-2.1-1.1
						c-0.3-0.3-0.5-0.7-0.5-0.9c-0.5-2.9-0.9-5.7-1.3-8.5c-0.4-2.4-0.7-4.7-1.1-7c-0.1-0.7,0.5-0.8,1.6-0.3c1,0.4,1.7,1,1.8,1.5
						c0.2,1.2,0.4,2.4,0.6,3.7S1882.7,232.3,1882.9,233.7L1882.9,233.7L1882.9,233.7z"/>
					<path class="st0" d="M1901,241.1c0.5,2.6,1,5.2,1.5,7.9c0,0.2,0.1,0.5,0,0.6c-0.2,0.3-0.9,0.2-1.9-0.2c-0.9-0.4-1.5-1-1.7-1.5
						c-0.1-0.4-0.2-0.8-0.2-1.2c-0.9-5-1.8-10-2.7-14.9c-0.1-0.7,0.4-0.8,1.6-0.4c1,0.4,1.8,1.1,1.9,1.6c0.3,1.5,0.6,3,0.8,4.4
						C1900.6,238.7,1900.8,239.9,1901,241.1"/>
					<path class="st0" d="M1919.5,248.7c0.6,2.8,1.2,5.5,1.8,8.3c0.2,0.7-0.7,0.8-2,0.1c-0.9-0.5-1.5-1-1.7-1.6
						c-0.1-0.6-0.2-1.1-0.4-1.6c-1-5-2.1-9.9-3.1-14.8c0-0.2,0-0.4,0.1-0.6c0.2-0.3,1.1-0.1,2,0.4c0.8,0.4,1.4,1,1.5,1.5
						c0.4,1.7,0.7,3.5,1.1,5.2C1919.1,246.7,1919.3,247.7,1919.5,248.7L1919.5,248.7L1919.5,248.7z"/>
					<path class="st0" d="M1921.7,265L1921.7,265c0.1,0.5,0.2,1,0.3,1.5c0.1,0.6,1.1,1.8,2.8,2.4c1.6,0.7,3.3,1.4,4.9,2.1
						s2.5,0.5,2.3-0.4s-0.4-1.8-0.6-2.8c-0.2-0.8-1.1-1.7-2.6-2.3c-1.9-0.8-3.8-1.6-5.7-2.4c-1.2-0.5-1.9-0.3-1.8,0.4
						C1921.5,264,1921.6,264.5,1921.7,265 M1925.9,263.1c0.9,0.4,1.8,0.7,2.6,1.1c2.5,1.1,4.7,2.8,5.2,4.3c0.4,1.3,0.7,2.5,0.8,3.7
						c0.1,1.2-1.8,1.3-4.2,0.3c-1.8-0.7-3.5-1.5-5.3-2.2c-2.6-1.1-4.9-3-5.3-4.5c-0.4-1.2-0.6-2.4-0.7-3.5s1.6-1.3,3.8-0.4
						C1923.8,262.2,1924.8,262.7,1925.9,263.1L1925.9,263.1L1925.9,263.1z"/>
					<path class="st0" d="M1902.7,257L1902.7,257c0.1,0.5,0.2,1,0.3,1.5c0.2,0.8,1.1,1.7,2.6,2.3c1.6,0.7,3.2,1.4,4.9,2.1
						c1.4,0.6,2.4,0.4,2.2-0.3c-0.2-0.9-0.4-1.9-0.5-2.8c-0.1-0.5-0.6-1.1-1.5-1.7c-0.4-0.3-0.9-0.5-1.4-0.7c-1.6-0.7-3.2-1.3-4.8-2
						c-0.3-0.1-0.5-0.2-0.8-0.3c-0.9-0.3-1.5-0.1-1.4,0.4C1902.5,256,1902.6,256.5,1902.7,257 M1906.7,255.1
						c1.2,0.5,2.4,0.9,3.6,1.5c2.1,1.1,3.8,2.6,4.2,3.8c0.3,1.2,0.6,2.4,0.6,3.4c0.1,1.2-1.9,1.3-4.1,0.4c-1.6-0.7-3.3-1.4-4.9-2.1
						c-3-1.2-4.9-3.3-5.2-4.4c-0.3-1.2-0.5-2.3-0.6-3.4c-0.1-1.2,1.5-1.3,3.7-0.4C1904.8,254.3,1905.7,254.7,1906.7,255.1
						L1906.7,255.1z"/>
					<path class="st0" d="M1881.8,246.1c0.7,0.6,1.3,1.2,1.9,1.7c0.1,0.1,0.2,0.2,0.2,0.4c0.1,0.8,0.2,1.5,0.4,2.3
						c0.1,0.9,1.1,1.8,2.7,2.4c1.5,0.6,3,1.3,4.6,1.9c1.5,0.6,2.4,0.5,2.2-0.3c-0.1-0.9-0.3-1.7-0.4-2.6c-0.1-0.8-1.1-1.7-2.5-2.3
						c-0.7-0.3-1.3-0.5-2-0.8c-0.2-0.1-0.4-0.2-0.5-0.3c-0.7-0.6-1.5-1.3-2.3-2c0.3,0.1,0.3,0.1,0.4,0.1c1.4,0.6,2.9,1.2,4.3,1.8
						c2.4,1,4.4,2.7,4.8,4.1c0.3,1.1,0.5,2.3,0.5,3.3c0.1,1.2-1.8,1.3-4.1,0.4c-1.7-0.7-3.4-1.4-5.1-2.1c-2.2-0.9-4.3-2.7-4.6-3.9
						c-0.3-1.3-0.4-2.4-0.6-3.7C1881.7,246.3,1881.8,246.2,1881.8,246.1"/>
					<path class="st0" d="M1908,247.6c0.3,1.4,0.6,2.8,0.8,4.3c0.1,0.8-1.3,0.6-2.7-0.3c-0.6-0.4-0.9-0.8-1-1.2
						c-0.4-2-0.8-4.1-1.1-6.1c-0.1-0.8-0.3-1.5-0.4-2.2s0.5-0.8,1.6-0.3s1.9,1.1,2,1.8C1907.4,244.9,1907.7,246.2,1908,247.6"/>
					<path class="st0" d="M1885.9,238.5c-0.2-1.4-0.4-2.7-0.7-4.1c-0.1-0.6,0.5-0.7,1.5-0.3c1.1,0.4,1.9,1.1,2,1.7
						c0.5,2.7,0.9,5.5,1.4,8.3c0.1,0.6-0.6,0.7-1.7,0.2s-1.8-1.1-1.9-1.7C1886.4,241.3,1886.1,239.9,1885.9,238.5"/>
					<path class="st0" d="M1923,253.8c-0.3-1.4-0.6-2.8-0.9-4.2c-0.1-0.7,0.5-0.8,1.6-0.3c1.2,0.5,2,1.2,2.1,1.8
						c0.6,2.8,1.3,5.7,1.9,8.6c0.2,0.8-1,0.7-2.5-0.1c-0.8-0.5-1.2-1-1.3-1.4C1923.6,256.7,1923.3,255.3,1923,253.8"/>
					<path class="st0" d="M1888.4,251c-0.7-0.6-1.3-1.1-1.8-1.6c-1.8-1.6-3.6-3.2-5.3-4.8c-0.4-0.4-0.6-0.7-0.4-0.8
						c0.2-0.2,0.5-0.1,1.1,0.1c0.3,0.1,0.6,0.3,0.8,0.5c2.6,2.3,5.3,4.7,7.9,7.1c0.6,0.5,0.7,0.9,0.2,1s-1,0.2-1.5,0.2
						c-0.5,0.1-1.1-0.2-1.6-0.7c-0.5-0.4-0.5-0.8-0.1-0.9C1887.8,251.1,1888.1,251,1888.4,251"/>
				</g>
			</g>
		</g>
	</g>
</g>
</svg>
