<?xml version="1.0" encoding="utf-8"?>
<!-- Generator: Adobe Illustrator 27.9.0, SVG Export Plug-In . SVG Version: 6.00 Build 0)  -->
<!DOCTYPE svg PUBLIC "-//W3C//DTD SVG 1.1//EN" "http://www.w3.org/Graphics/SVG/1.1/DTD/svg11.dtd" [
	<!ENTITY ns_extend "http://ns.adobe.com/Extensibility/1.0/">
	<!ENTITY ns_ai "http://ns.adobe.com/AdobeIllustrator/10.0/">
	<!ENTITY ns_graphs "http://ns.adobe.com/Graphs/1.0/">
	<!ENTITY ns_vars "http://ns.adobe.com/Variables/1.0/">
	<!ENTITY ns_imrep "http://ns.adobe.com/ImageReplacement/1.0/">
	<!ENTITY ns_sfw "http://ns.adobe.com/SaveForWeb/1.0/">
	<!ENTITY ns_custom "http://ns.adobe.com/GenericCustomNamespace/1.0/">
	<!ENTITY ns_adobe_xpath "http://ns.adobe.com/XPath/1.0/">
]>
<svg version="1.1" id="SSL_ILLUSTRATION" xmlns:x="&ns_extend;" xmlns:i="&ns_ai;" xmlns:graph="&ns_graphs;"
	 xmlns="http://www.w3.org/2000/svg" xmlns:xlink="http://www.w3.org/1999/xlink" x="0px" y="0px" width="400px" height="300px"
	 viewBox="0 0 400 300" style="enable-background:new 0 0 400 300;" xml:space="preserve">
<style type="text/css">
	.st0{fill:#FF6600;}
	.st1{fill:url(#SVGID_1_);}
	.st2{fill:#FFFFFF;}
	.st3{fill:none;stroke:#FFFFFF;stroke-width:2.798;}
	.st4{fill:url(#SVGID_00000065040814525548940420000010946715607962592183_);}
	.st5{fill:url(#SVGID_00000078727193957954541280000016110059014597777837_);}
	.st6{fill:url(#SVGID_00000158020116763596033570000012039943784929340596_);}
	.st7{fill:url(#SVGID_00000005977618001964547330000005690803210193936062_);}
	.st8{fill:url(#SVGID_00000098909864319451779650000001531306059439861663_);}
	.st9{fill:url(#SVGID_00000100380464149586415850000004151148719863842456_);}
</style>
<metadata>
	<sfw  xmlns="&ns_sfw;">
		<slices></slices>
		<sliceSourceBounds  bottomLeftOrigin="true" height="329.6406" width="400" x="0" y="0"></sliceSourceBounds>
	</sfw>
</metadata>
<rect class="st0" width="400" height="300"/>
<g>
	<g>
		
			<radialGradient id="SVGID_1_" cx="157.3198" cy="233.2809" r="27.2892" gradientTransform="matrix(1 0 0 -1 0 300)" gradientUnits="userSpaceOnUse">
			<stop  offset="4.475343e-07" style="stop-color:#FFFFFF;stop-opacity:0"/>
			<stop  offset="0.1022" style="stop-color:#F3F3F3;stop-opacity:0.0307"/>
			<stop  offset="0.2882" style="stop-color:#D3D2D2;stop-opacity:0.0865"/>
			<stop  offset="0.537" style="stop-color:#9F9E9E;stop-opacity:0.1611"/>
			<stop  offset="0.8358" style="stop-color:#595656;stop-opacity:0.2507"/>
			<stop  offset="1" style="stop-color:#2F2B2C;stop-opacity:0.3"/>
		</radialGradient>
		<path class="st1" d="M139.8152,35.6137h35.0092c2.9217,0,5.3395,2.3675,5.3395,5.3395v51.5316
			c0,2.9216-2.3675,5.3395-5.3395,5.3395h-35.0092c-2.9217,0-5.3395-2.3675-5.3395-5.3395V40.9533
			C134.4757,37.9813,136.8432,35.6137,139.8152,35.6137z"/>
		<path class="st2" d="M138.4551,34.4048h35.0092c2.9217,0,5.3395,2.3675,5.3395,5.3395v51.5316
			c0,2.9216-2.3675,5.3395-5.3395,5.3395h-35.0092c-2.9217,0-5.3395-2.3675-5.3395-5.3395V39.7443
			C133.1156,36.7723,135.4832,34.4048,138.4551,34.4048z"/>
		<path class="st0" d="M161.9793,52.1361c-3.0727,0-6.1455,0-9.2183,0c-0.5037,0-0.9067-0.2519-1.0578-0.6549
			c-0.1512-0.4534-0.0504-1.0578,0.3022-1.3097c0.2519-0.1511,0.5541-0.2519,0.8563-0.2519c3.2742,0,6.5988,0,9.8731,0
			c2.7705,0,5.5914,0,8.3619,0c0.806,0,1.209,0.403,1.209,1.1586c0,0.6045-0.403,1.0578-1.0578,1.0578c-1.4608,0-2.9217,0-4.3824,0
			C165.2536,52.1361,163.5912,52.1361,161.9793,52.1361L161.9793,52.1361z"/>
		<path class="st0" d="M161.9793,63.5204c-2.972,0-5.944,0-8.916,0c-0.2519,0-0.5037,0-0.7556-0.0504
			c-0.5037-0.1511-0.7556-0.6549-0.6549-1.209c0.0504-0.5037,0.4534-0.9067,0.9571-0.9067c0.4534-0.0504,0.8563,0,1.3097,0
			c5.6922,0,11.3843,0,17.0765,0c0.806,0,1.2593,0.403,1.2593,1.1082c0,0.6549-0.403,1.1082-1.1082,1.1082
			c-1.7127,0-3.4254,0-5.138,0C164.6995,63.5204,163.3394,63.5204,161.9793,63.5204"/>
		<path class="st0" d="M161.9793,74.8543c-3.0727,0-6.0951,0-9.1678,0c-0.806,0-1.2593-0.5541-1.1082-1.3601
			c0.1007-0.5037,0.4534-0.8563,1.0578-0.8563s1.209,0,1.7631,0c5.4907,0,11.0317,0,16.5224,0c0.2519,0,0.5037,0.0504,0.7556,0.1511
			c0.4534,0.2015,0.6549,0.7556,0.5541,1.2593c-0.1007,0.5037-0.5037,0.806-1.0578,0.806c-1.9646,0-3.9291,0-5.944,0
			L161.9793,74.8543L161.9793,74.8543z"/>
		<path class="st0" d="M143.6939,74.0483L143.6939,74.0483c-0.5037,0-1.0578,0-1.5616,0c-0.6549,0-1.5112,0.4534-1.4608,1.4608
			c0.0504,0.9571,0,1.9142,0,2.8713c0,0.9067,0.6045,1.5112,1.5112,1.5112c0.9571,0,1.9142,0,2.8712,0
			c0.8563,0,1.4105-0.4534,1.4105-1.3097c0.0504-1.1082,0.0504-2.2164,0-3.3246c-0.0504-0.7052-0.5541-1.1586-1.3097-1.209
			C144.7014,74.0483,144.1976,74.0483,143.6939,74.0483 M147.9252,76.97c0,0.5037,0,1.0578,0,1.5616
			c0,1.4608-1.0074,2.6194-2.4179,2.7201c-1.2593,0.1007-2.569,0.1007-3.8787,0c-1.36-0.1007-2.3675-1.3601-2.3675-2.7201
			c0-1.0075,0-2.0653,0-3.0728c0-1.5112,1.0578-2.7201,2.569-2.8209c1.2593-0.0504,2.4683-0.0504,3.7276,0
			c1.2593,0.0504,2.3171,1.2089,2.3675,2.5186C147.9252,75.761,147.9252,76.3655,147.9252,76.97L147.9252,76.97L147.9252,76.97z"/>
		<path class="st0" d="M143.6939,62.7144L143.6939,62.7144c-0.5541,0.0504-1.0578,0-1.6119,0.0504
			c-0.9067,0-1.4105,0.5541-1.4105,1.4104c0,0.9571,0,1.9645,0,2.9216c0,0.8563,0.6549,1.4608,1.5112,1.5112
			c1.0075,0,1.9646,0,2.972,0c0.5541,0,0.9571-0.2519,1.209-0.806c0.1007-0.2519,0.1511-0.5541,0.1511-0.806
			c0-0.9571,0-1.9142,0-2.8713c0-0.1511,0-0.3022-0.0504-0.4534c-0.1007-0.5541-0.6549-0.9571-1.1586-0.9571
			C144.7517,62.7144,144.248,62.7144,143.6939,62.7144 M147.8749,65.5353c0,0.7052,0.1007,1.4608,0,2.166
			c-0.2015,1.2593-1.1586,2.166-2.4179,2.2164c-1.209,0.0504-2.4683,0.0504-3.6773-0.0504c-1.36-0.1007-2.4179-1.3601-2.4683-2.7201
			c0-0.9571,0.0504-1.9646,0-2.9216c-0.0504-1.7631,1.36-2.8209,2.6194-2.8713c1.209-0.0504,2.4683-0.0504,3.6773,0
			c1.3097,0.0504,2.3171,1.1586,2.3675,2.5187c0,0.5541,0,1.1082,0,1.6623C147.8749,65.5353,147.8749,65.5353,147.8749,65.5353"/>
		<path class="st0" d="M146.2126,50.0708c-0.403,0.403-0.7052,0.7556-1.1082,1.1082c-0.0504,0.0504-0.2015,0.1007-0.3526,0.1007
			c-0.8563,0-1.7127,0-2.569,0c-0.9571,0-1.5112,0.5541-1.5112,1.5112s0,1.8638,0,2.8209c0,0.9067,0.6045,1.5112,1.5112,1.5112
			c0.9571,0,1.9142,0,2.8712,0c0.9067,0,1.4608-0.5037,1.4608-1.4104c0-0.403,0-0.806,0-1.209c0-0.1007,0.0504-0.2519,0.1007-0.3022
			c0.403-0.403,0.806-0.8563,1.2593-1.3097c0.0504,0.1511,0.0504,0.2015,0.0504,0.2519c0,0.9067,0,1.7631,0,2.6698
			c-0.0504,1.4608-1.0578,2.6194-2.5186,2.7201c-1.209,0.0504-2.4179,0.0504-3.6268,0c-1.4105-0.1007-2.4683-1.3601-2.5186-2.7705
			c0-1.0578,0-2.0653,0-3.1231c0-1.3097,1.0578-2.569,2.3675-2.6194c1.36-0.1007,2.7202,0,4.0802,0
			C145.86,49.97,146.011,50.0204,146.2126,50.0708"/>
		<path class="st0" d="M157.4961,67.3487c-1.5616,0-3.1735,0-4.7351,0c-0.9067,0-1.4105-0.9571-0.9571-1.7127
			c0.2015-0.3526,0.5541-0.5037,0.9571-0.5037c2.2668,0,4.5336,0,6.8004,0c0.8563,0,1.7127,0,2.569,0
			c0.7556,0,1.209,0.403,1.209,1.1082c0,0.7052-0.4534,1.1082-1.209,1.1082C160.5689,67.3487,159.0073,67.3487,157.4961,67.3487"/>
		<path class="st0" d="M157.4961,53.6473c1.5616,0,3.1231,0,4.6847,0c0.6549,0,1.1082,0.403,1.1082,1.0578
			c0,0.7052-0.403,1.1586-1.1082,1.1586c-3.1735,0-6.2966,0-9.4701,0c-0.6549,0-1.1082-0.4534-1.1082-1.1586
			c0-0.6549,0.4534-1.0578,1.1082-1.0578C154.3226,53.6473,155.9346,53.6473,157.4961,53.6473"/>
		<path class="st0" d="M157.4961,76.4159c1.5616,0,3.1231,0,4.6847,0c0.7052,0,1.1586,0.403,1.1586,1.1082
			c0,0.7052-0.4534,1.1586-1.1586,1.1586c-3.1231,0-6.2463,0-9.3694,0c-0.8563,0-1.36-0.806-1.0578-1.6119
			c0.2015-0.4534,0.5541-0.6549,1.0075-0.6549C154.3226,76.4159,155.8842,76.4159,157.4961,76.4159"/>
		<path class="st0" d="M143.5932,53.9495c0.3526-0.403,0.7052-0.7052,1.0075-1.0578c1.0075-1.0075,2.0149-2.0653,3.0727-3.0728
			c0.2519-0.2519,0.5037-0.3022,0.806-0.1511c0.3022,0.1511,0.4534,0.403,0.403,0.7052c-0.0504,0.1511-0.1007,0.3526-0.2519,0.4534
			c-1.5112,1.5112-2.972,3.0224-4.4832,4.5336c-0.3526,0.3526-0.7052,0.3526-1.0578,0c-0.3526-0.3526-0.6549-0.6549-1.0075-1.0075
			c-0.3022-0.3022-0.3022-0.7052,0-1.0075c0.3022-0.2519,0.7052-0.2519,1.0075,0C143.291,53.5465,143.442,53.748,143.5932,53.9495"
			/>
		<line class="st3" x1="155.1286" y1="43.9253" x2="155.1286" y2="-29.6406"/>
	</g>
	<g>
		
			<radialGradient id="SVGID_00000068659296755772742770000012282412264182306221_" cx="112.7285" cy="256.7361" r="29.6516" gradientTransform="matrix(1 0 0 -1 0 300)" gradientUnits="userSpaceOnUse">
			<stop  offset="4.475343e-07" style="stop-color:#FFFFFF;stop-opacity:0"/>
			<stop  offset="0.1022" style="stop-color:#F3F3F3;stop-opacity:0.0307"/>
			<stop  offset="0.2882" style="stop-color:#D3D2D2;stop-opacity:0.0865"/>
			<stop  offset="0.537" style="stop-color:#9F9E9E;stop-opacity:0.1611"/>
			<stop  offset="0.8358" style="stop-color:#595656;stop-opacity:0.2507"/>
			<stop  offset="1" style="stop-color:#2F2B2C;stop-opacity:0.3"/>
		</radialGradient>
		<path style="fill:url(#SVGID_00000068659296755772742770000012282412264182306221_);" d="M90.0355,18.4552
			c0,0-4.8358,1.1082-3.7276,5.944l10.9309,47.401c0,0,1.1082,4.8358,5.944,3.7276l32.2387-7.4552c0,0,4.8358-1.1082,3.7276-5.944
			l-10.9309-47.401c0,0-1.1082-4.8358-5.944-3.7276C122.2742,11,90.0355,18.4552,90.0355,18.4552z"/>
		<line class="st3" x1="107.3638" y1="28.5782" x2="107.3638" y2="-28.5641"/>
		<path class="st2" d="M88.6755,17.2463c0,0-4.8358,1.1082-3.7276,5.944l10.9309,47.401c0,0,1.1082,4.8358,5.944,3.7276
			l32.2387-7.4552c0,0,4.8358-1.1082,3.7276-5.944l-10.8806-47.401c0,0-1.1082-4.8358-5.944-3.7276
			C120.9142,9.7911,88.6755,17.2463,88.6755,17.2463z"/>
		<path class="st0" d="M108.4216,49.2835c0.2519-1.0075,0.4534-1.9645,0.6549-2.972c0.1007-0.5037,0.3526-0.8563,0.806-1.0075
			c0.1511-0.0504,0.1007-0.1511,0.1511-0.2519c0.403-2.2668,0.7556-4.5336,1.1586-6.8004c0.3022-1.8134,0.6044-3.5765,0.9067-5.3899
			c0.0504-0.2015,0.1007-0.2519,0.2519-0.2015c0.2015,0.0504,0.4534,0.1007,0.6549,0.1007c0.2015,0,0.2519,0.1007,0.2015,0.3022
			c-0.6044,3.375-1.1586,6.8004-1.7631,10.1754c-0.1007,0.6549-0.2015,1.3097-0.3526,1.9645c-0.0504,0.1511,0,0.2519,0.1007,0.3526
			c0.3526,0.3022,0.4534,0.7556,0.3526,1.209c-0.403,1.8134-0.806,3.6269-1.209,5.4403c-0.2519,1.0075-1.1586,1.3601-2.0653,0.7556
			c-0.5037-0.3526-0.8563-0.806-1.2593-1.209c-0.3526-0.3526-0.7556-0.7052-1.0578-1.1082
			c-0.1511-0.1511-0.2519-0.2015-0.4534-0.0504c-0.3526,0.2015-0.3526,0.2015-0.2015,0.5541
			c0.5541,1.0578,1.1082,2.166,1.6623,3.2239c0.4534,0.8563,0.9067,1.7127,1.36,2.6194c0.1007,0.1511,0.1007,0.2519-0.1007,0.3526
			c-3.0224,1.5112-6.0448,3.0728-9.0671,4.6343c-0.1511,0.1007-0.2519,0.0504-0.3022-0.1007
			c-1.1586-2.3172-2.3171-4.5839-3.4757-6.9011c-0.403-0.806-0.6045-1.6623-0.403-2.5187c0.2015-0.9571,0.7556-1.6119,1.5112-2.1157
			c0.7556-0.5037,1.5616-0.806,2.3171-1.209c1.0578-0.5541,2.1661-1.1082,3.2239-1.6623c1.9142-0.9571,4.0298-0.6045,5.4907,0.9571
			C107.8676,48.6791,108.1194,48.9309,108.4216,49.2835"/>
		<path class="st0" d="M106.306,29.6884c4.1306-2.1157,8.2108-4.181,12.3414-6.2966c0.6549-0.3526,1.2593-0.0504,1.5112,0.5037
			c3.5261,6.9515,7.1026,13.9029,10.6287,20.8544c0.3526,0.6549,0.1512,1.1586-0.5037,1.5112
			c-6.4478,3.2742-12.8451,6.5485-19.2929,9.8227c-0.2015,0.1007-0.3022,0.1007-0.403-0.1511
			c-0.2015-0.4534-0.403-0.8563-0.6549-1.2593c-0.0504-0.1007-0.0504-0.2015,0.1007-0.2519c0.0504,0,0.1007-0.0504,0.2015-0.1007
			c6.0448-3.0728,12.1399-6.1959,18.1846-9.2686c0.3526-0.1511,0.3022-0.1007,0.1512-0.4534
			c-3.2239-6.2966-6.3973-12.5429-9.6212-18.8395c-0.1007-0.2015-0.2519-0.2519-0.4534-0.1511
			c-7.556,3.8787-15.1623,7.7071-22.7182,11.5858c-0.3526,0.1511-0.3022,0.1007-0.1511,0.4534
			c0.3022,0.5541,0.5541,1.1082,0.8563,1.6623c0.1007,0.1511,0.0504,0.2519-0.1007,0.3022
			c-0.4534,0.2015-0.8563,0.4534-1.3097,0.6549c-0.1511,0.0504-0.2015,0.0504-0.3022-0.1007
			c-0.4534-0.9571-0.9571-1.8638-1.4105-2.8209c-0.2519-0.5541-0.1007-1.0578,0.4534-1.3601
			C97.9945,33.9198,102.1754,31.8041,106.306,29.6884"/>
		<path class="st0" d="M96.7855,41.9291c1.6119-0.8563,3.6268-0.2015,4.4832,1.4104c0.8563,1.6119,0.2015,3.6269-1.4608,4.4832
			c-1.6119,0.806-3.6268,0.1511-4.4329-1.4608C94.4683,44.75,95.1232,42.735,96.7855,41.9291"/>
	</g>
	<g>
		
			<radialGradient id="SVGID_00000127735970514999482650000004287308699032337324_" cx="247.425" cy="253.7892" r="28.5147" gradientTransform="matrix(1 0 0 -1 0 300)" gradientUnits="userSpaceOnUse">
			<stop  offset="4.475343e-07" style="stop-color:#FFFFFF;stop-opacity:0"/>
			<stop  offset="0.1022" style="stop-color:#F3F3F3;stop-opacity:0.0307"/>
			<stop  offset="0.2882" style="stop-color:#D3D2D2;stop-opacity:0.0865"/>
			<stop  offset="0.537" style="stop-color:#9F9E9E;stop-opacity:0.1611"/>
			<stop  offset="0.8358" style="stop-color:#595656;stop-opacity:0.2507"/>
			<stop  offset="1" style="stop-color:#2F2B2C;stop-opacity:0.3"/>
		</radialGradient>
		<path style="fill:url(#SVGID_00000127735970514999482650000004287308699032337324_);" d="M227.5528,17.2967
			c0,0-5.138,0.4534-4.6847,5.5914l4.4328,50.5745c0,0,0.4534,5.138,5.5914,4.6847l34.4048-3.0224c0,0,5.138-0.4534,4.6847-5.5914
			L267.549,18.959c0,0-0.4534-5.138-5.5914-4.6847C261.9072,14.3247,227.5528,17.2967,227.5528,17.2967z"/>
		<line class="st3" x1="245.7878" y1="28.5782" x2="245.7878" y2="-28.5641"/>
		<path class="st2" d="M226.1927,16.0877c0,0-5.138,0.4534-4.6847,5.5914l4.4328,50.5745c0,0,0.4534,5.138,5.5914,4.6847
			l34.4048-3.0224c0,0,5.138-0.4534,4.6847-5.5914L266.1889,17.75c0,0-0.4534-5.138-5.5914-4.6847
			C260.5975,13.1157,226.1927,16.0877,226.1927,16.0877z"/>
		<path class="st0" d="M246.2412,53.263L246.2412,53.263c0.3526,0,0.7052-0.0504,1.1082,0
			c0.3526,0.0504,0.5037-0.1007,0.6044-0.5037c0.403-1.9142,1.209-3.6269,2.569-5.0373c0.7052-0.7052,1.2593-1.5616,1.8134-2.4179
			c0.806-1.3601,1.1082-2.8713,0.806-4.5336c-0.9067-4.9366-6.0448-7.8078-10.528-5.8433c-3.2239,1.4104-4.9869,5.138-4.0802,8.6138
			c0.4534,1.6623,1.4608,3.0728,2.7202,4.181c1.6119,1.4608,2.7202,3.2239,3.375,5.2892c0.0504,0.2015,0.1511,0.3022,0.3526,0.2519
			C245.3849,53.263,245.7878,53.263,246.2412,53.263 M250.1199,55.6305c-2.4683,0.0504-4.9366,0.1007-7.3041,0.1511
			c-0.1511-0.7556-0.2519-1.5112-0.4534-2.2164c-0.403-1.4104-1.1586-2.6194-2.2668-3.6269
			c-1.6119-1.4608-2.972-3.1231-3.7276-5.1884c-1.5112-4.3321,0.2519-9.2686,4.2313-11.5858
			c5.8936-3.4757,13.6511,0.2015,14.9104,7.153c0.5037,2.6698-0.0504,5.0877-1.5616,7.2537
			c-0.5037,0.7052-1.0075,1.4104-1.6623,2.0149c-1.3097,1.3097-1.8638,2.9216-2.0653,4.7351
			C250.1703,54.7238,250.1703,55.1772,250.1199,55.6305"/>
		<path class="st0" d="M249.3139,63.2368c-0.2015,1.0075-0.4534,1.2593-1.4608,1.2593c-0.7052,0-1.36,0.0504-2.0653,0.0504
			c-0.9067,0-1.2593-0.3022-1.4608-1.1586c-0.9067-0.2519-1.2593-0.6045-1.3097-1.3097c0-0.7052,0.403-1.209,1.0578-1.209
			c1.7127-0.0504,3.4254-0.1007,5.138-0.1007c0.6045,0,1.1082,0.4534,1.1586,1.0578c0.1007,0.6549-0.2015,1.209-0.806,1.3601
			C249.5154,63.1865,249.4147,63.2368,249.3139,63.2368"/>
		<path class="st0" d="M227.2002,43.541c-0.0504-0.8563-0.1007-1.6119-0.1007-2.4683c2.4683-0.0504,4.9366-0.1007,7.4048-0.1511
			c0.0504,0.806,0.1007,1.6119,0.1007,2.4683C232.1367,43.4403,229.6684,43.4906,227.2002,43.541"/>
		<path class="st0" d="M264.2747,40.2164c0.0504,0.806,0.1007,1.6119,0.1007,2.4179c-2.4683,0.0504-4.8862,0.1007-7.4048,0.1511
			c-0.0504-0.806-0.1007-1.6119-0.1007-2.4179C259.3381,40.3675,261.8064,40.3171,264.2747,40.2164"/>
		<path class="st0" d="M246.6442,59.5092c-0.806,0-1.5616,0.0504-2.3675,0.0504c-0.8563,0-1.36-0.403-1.4105-1.209
			c-0.0504-0.7556,0.4534-1.2593,1.2593-1.2593c1.6119-0.0504,3.2239-0.1007,4.7854-0.1007c0.9571,0,1.5616,0.7556,1.2593,1.7127
			c-0.1511,0.5037-0.5541,0.7556-1.1082,0.806C248.2561,59.4589,247.4501,59.5092,246.6442,59.5092"/>
		<path class="st0" d="M237.2748,32.3582c-0.5037,0.5541-1.0075,1.1082-1.5616,1.6623c-1.5112-1.4608-3.0727-2.9216-4.5839-4.3321
			c0.5037-0.5541,1.0075-1.1082,1.5112-1.7127C234.202,29.4366,235.7636,30.8974,237.2748,32.3582"/>
		<path class="st0" d="M254.9054,33.6175c-0.5541-0.5541-1.1586-1.0578-1.7127-1.6119c1.4105-1.5112,2.7705-3.0728,4.181-4.5839
			c0.5541,0.5037,1.1082,1.0578,1.6623,1.6119C257.7262,30.5448,256.3158,32.056,254.9054,33.6175"/>
		<path class="st0" d="M238.3326,51.8022c-1.36,1.4608-2.7202,3.0224-4.1306,4.4832c-0.5541-0.5541-1.1586-1.1082-1.7631-1.6623
			c1.36-1.4608,2.7202-3.0224,4.1306-4.5336C237.174,50.6436,237.7281,51.1977,238.3326,51.8022"/>
		<path class="st0" d="M254.0993,51.3488c0.5037-0.5541,1.0578-1.1586,1.6623-1.8134c1.5112,1.4608,3.0727,2.9216,4.5839,4.3825
			c-0.5541,0.6045-1.1082,1.209-1.6119,1.7631C257.1721,54.2705,255.6609,52.8096,254.0993,51.3488"/>
		<path class="st0" d="M246.3923,30.4944c-0.806,0-1.5616,0.0504-2.3675,0.0504c-0.1007-1.6623-0.1512-3.2742-0.2519-4.9869
			c0.806,0,1.5616-0.0504,2.3675-0.0504C246.1908,27.1698,246.2915,28.8321,246.3923,30.4944"/>
	</g>
	<g>
		
			<radialGradient id="SVGID_00000010274268022065492230000004082511053898944923_" cx="346.7873" cy="246.2333" r="25.0565" gradientTransform="matrix(1 0 0 -1 0 300)" gradientUnits="userSpaceOnUse">
			<stop  offset="4.475343e-07" style="stop-color:#FFFFFF;stop-opacity:0"/>
			<stop  offset="0.1022" style="stop-color:#F3F3F3;stop-opacity:0.0307"/>
			<stop  offset="0.2882" style="stop-color:#D3D2D2;stop-opacity:0.0865"/>
			<stop  offset="0.537" style="stop-color:#9F9E9E;stop-opacity:0.1611"/>
			<stop  offset="0.8358" style="stop-color:#595656;stop-opacity:0.2507"/>
			<stop  offset="1" style="stop-color:#2F2B2C;stop-opacity:0.3"/>
		</radialGradient>
		<path style="fill:url(#SVGID_00000010274268022065492230000004082511053898944923_);" d="M329.333,28.3284
			c0,0-4.5336,0.403-4.1306,4.9366l3.8787,44.429c0,0,0.403,4.5336,4.9366,4.1306l30.2238-2.6194c0,0,4.5336-0.403,4.1306-4.9366
			l-3.8787-44.429c0,0-0.403-4.5336-4.9366-4.1306C359.5568,25.709,329.333,28.3284,329.333,28.3284z"/>
		<line class="st3" x1="342.5307" y1="28.5782" x2="342.5307" y2="-29.5036"/>
		<path class="st2" d="M327.9729,27.1194c0,0-4.5336,0.403-4.1306,4.9366l3.8787,44.429c0,0,0.403,4.5336,4.9366,4.1306
			l30.2238-2.6194c0,0,4.5336-0.403,4.1306-4.9366l-3.8787-44.429c0,0-0.403-4.5336-4.9366-4.1306L327.9729,27.1194z"/>
		<path class="st0" d="M349.6333,70.2891l-7.2537,0.6549l-0.6549-7.2537l7.2537-0.6549L349.6333,70.2891z M334.2695,36.8414
			c2.6194-1.2593,5.2892-1.9142,7.9085-2.1157c6.8507-0.6045,11.4851,1.9142,12.0392,8.0597
			c0.2519,2.972-0.5541,5.1884-3.2742,9.0671c-2.6194,3.6269-2.8712,5.0373-2.7202,7.0018l0.0504,0.403l-6.5988,0.5541
			l-0.0504-0.6045c-0.3022-3.1735,0.1007-4.6847,2.9217-9.0168c1.4608-2.2164,2.166-3.8283,2.0149-5.5914
			c-0.2519-2.9216-2.4179-3.9795-5.4907-3.7276c-2.0149,0.2015-4.0802,0.8563-5.944,1.9645L334.2695,36.8414L334.2695,36.8414z"/>
	</g>
	<g>
		
			<radialGradient id="SVGID_00000044864800847897839500000004193091074756315783_" cx="201.5019" cy="234.1438" r="28.1558" gradientTransform="matrix(1 0 0 -1 0 300)" gradientUnits="userSpaceOnUse">
			<stop  offset="4.475343e-07" style="stop-color:#FFFFFF;stop-opacity:0"/>
			<stop  offset="0.1022" style="stop-color:#F3F3F3;stop-opacity:0.0307"/>
			<stop  offset="0.2882" style="stop-color:#D3D2D2;stop-opacity:0.0865"/>
			<stop  offset="0.537" style="stop-color:#9F9E9E;stop-opacity:0.1611"/>
			<stop  offset="0.8358" style="stop-color:#595656;stop-opacity:0.2507"/>
			<stop  offset="1" style="stop-color:#2F2B2C;stop-opacity:0.3"/>
		</radialGradient>
		<path style="fill:url(#SVGID_00000044864800847897839500000004193091074756315783_);" d="M197.6232,36.1865
			c0,0-4.0802-1.6623-5.7425,2.4179l-16.2201,40.1473c0,0-1.6623,4.0802,2.4179,5.7425l27.3021,11.0317
			c0,0,4.0802,1.6623,5.7425-2.4179l16.2201-40.1473c0,0,1.6623-4.0802-2.4179-5.7425
			C224.9253,47.2182,197.6232,36.1865,197.6232,36.1865z"/>
		<line class="st3" x1="208.3022" y1="45.4048" x2="208.3022" y2="-29.5036"/>
		<path class="st2" d="M196.2631,34.9776c0,0-4.0802-1.6623-5.7425,2.4179l-16.2201,40.1473c0,0-1.6623,4.0802,2.4179,5.7425
			l27.3021,11.0317c0,0,4.0802,1.6623,5.7425-2.4179l16.2201-40.1473c0,0,1.6623-4.0802-2.4179-5.7425
			C223.5653,46.0093,196.2631,34.9776,196.2631,34.9776z"/>
		<path class="st0" d="M183.6194,71.8506c0.6045,0.2519,1.1586,0.4534,1.8134,0.7556c-0.1007,0.2015-0.1511,0.3526-0.2015,0.5037
			c-0.403,1.0075-0.806,1.9645-1.209,2.972c-0.2519,0.6549-0.0504,1.1586,0.6044,1.4104c5.944,2.4179,11.8377,4.7854,17.7817,7.2033
			c0.7052,0.3022,1.1586,0.1007,1.4608-0.6045c0.4534-1.1082,0.9067-2.2668,1.4105-3.4254c0.6044,0.2519,1.1586,0.4534,1.763,0.7052
			c-0.0504,0.1007-0.0504,0.2015-0.1007,0.3022c-0.4534,1.0578-0.8563,2.166-1.3097,3.2239
			c-0.6549,1.6119-2.2668,2.3172-3.8787,1.6623c-5.9944-2.4179-11.9888-4.8358-17.9831-7.2537
			c-1.2593-0.5037-1.9142-1.6119-1.8638-2.972c0-0.1007,0-0.2015,0-0.3526L183.6194,71.8506L183.6194,71.8506z"/>
		<path class="st0" d="M205.6828,59.0559c-0.806-0.3022-1.5616,0.5541-2.6194,3.1735c-0.9571,2.3675-1.0075,3.5765-0.2015,3.9291
			c0.806,0.3022,1.5616-0.5541,2.569-2.972C206.4888,60.5167,206.4888,59.3581,205.6828,59.0559"/>
		<path class="st0" d="M202.1567,67.7704c-2.2668-0.9067-2.569-3.2742-1.2593-6.5485c1.3097-3.2239,3.1735-4.7351,5.4907-3.8283
			c2.3172,0.9571,2.4683,3.3246,1.1586,6.5485C206.2873,67.2163,204.5242,68.7275,202.1567,67.7704 M197.7239,65.7555
			l-2.2668-0.9067l2.1661-5.3395c0.3526-0.8563,0.8563-1.9142,1.0578-2.4179h-0.0504c-0.403,0.1511-1.209,0.3526-2.1156,0.6045
			l-0.2519-2.0149l3.4758-0.7052l2.0149,0.806L197.7239,65.7555L197.7239,65.7555z M214.6492,69.4327
			c-1.0578-0.5541-2.1661-1.0075-3.2742-1.4608c-0.9571-0.403-1.9142-0.806-3.0224-1.209c0.1511-0.403,0.3022-0.7052,0.403-1.0075
			c1.5112-3.7276,2.972-7.4552,4.5336-11.1828c0.6549-1.6119,0.7052-3.1735-0.2015-4.6847
			c-0.403-0.7052-1.0578-1.2593-1.6119-1.8638c-2.6194-1.0578-5.2892-2.1157-7.9085-3.2239c-0.1007,0-0.1512,0.0504-0.2519,0.0504
			c-2.972-0.1511-4.5336,0.8563-5.6922,3.6269c-1.4608,3.6269-2.9217,7.3041-4.4328,10.9309
			c-0.1007,0.3022-0.2519,0.6045-0.403,1.0075c-0.403-0.1511-0.7052-0.3022-1.0075-0.403c-1.763-0.6549-3.5261-1.3601-5.2892-1.9645
			c-0.806-0.3022-1.1586,0.0504-0.9571,0.9067c0.1512,0.5541,0.3526,1.1586,0.6045,1.7127
			c2.1661,5.138,4.3321,10.2761,6.5485,15.4141c0.3022,0.6549,0.6549,1.3097,1.0578,1.9645c0.403,0.6548,1.0075,0.8563,1.763,0.7556
			c0.403-0.1007,0.8563-0.2015,1.209-0.3526c5.6922-2.4179,11.3843-4.7854,17.0765-7.2033
			c0.3022-0.1511,0.6044-0.3022,0.9067-0.5037C215.3041,70.1883,215.3041,69.735,214.6492,69.4327"/>
	</g>
	<g>
		
			<radialGradient id="SVGID_00000064323028445825104720000006988551655809408411_" cx="59.5594" cy="241.876" r="35.8616" gradientTransform="matrix(1 0 0 -1 0 300)" gradientUnits="userSpaceOnUse">
			<stop  offset="4.475343e-07" style="stop-color:#FFFFFF;stop-opacity:0"/>
			<stop  offset="0.1022" style="stop-color:#F3F3F3;stop-opacity:0.0307"/>
			<stop  offset="0.2882" style="stop-color:#D3D2D2;stop-opacity:0.0865"/>
			<stop  offset="0.537" style="stop-color:#9F9E9E;stop-opacity:0.1611"/>
			<stop  offset="0.8358" style="stop-color:#595656;stop-opacity:0.2507"/>
			<stop  offset="1" style="stop-color:#2F2B2C;stop-opacity:0.3"/>
		</radialGradient>
		<path style="fill:url(#SVGID_00000064323028445825104720000006988551655809408411_);" d="M43.8935,18.3545
			c0,0-6.2463-0.8563-7.1026,5.3899l-8.6138,61.2032c0,0-0.8563,6.2462,5.3899,7.1026l41.6584,5.8433
			c0,0,6.2463,0.8563,7.1026-5.3899l8.6138-61.2032c0,0,0.8563-6.2463-5.3899-7.1026L43.8935,18.3545L43.8935,18.3545z"/>
		<line class="st3" x1="61.927" y1="28.5782" x2="61.927" y2="-28.5641"/>
		<path class="st2" d="M42.5838,17.1456c0,0-6.2463-0.8563-7.1026,5.3899l-8.6138,61.2032c0,0-0.8563,6.2463,5.3899,7.1026
			l41.6584,5.8433c0,0,6.2463,0.8563,7.1026-5.3899l8.5634-61.1528c0,0,0.8563-6.2463-5.3899-7.1026L42.5838,17.1456
			L42.5838,17.1456z"/>
		<path class="st0" d="M42.3319,74.3693c8.4123,1.3601,16.875,2.6698,25.2872,3.9795c1.5616-9.8731,3.1231-19.6958,4.6847-29.5186
			c-8.4627-1.3601-16.8246-2.6698-25.2872-3.9795C45.455,54.6734,43.8935,64.3954,42.3319,74.3693 M52.5072,37.4459
			c-0.3022,3.2239,0.7556,4.5839,3.7276,5.0877c2.7202,0.4534,5.4907,0.8563,8.2108,1.3097
			c2.6698,0.403,4.1306-0.5541,4.7854-3.2742c0.0504-0.1007,0.1007-0.2015,0.1511-0.3022c1.8638,0.3022,3.7276,0.4534,5.541,0.9067
			c1.5616,0.403,2.1156,1.8134,1.8134,3.6269c-1.5112,9.4701-2.972,18.9402-4.4832,28.4104
			c-0.3022,2.0653-0.6549,4.0802-0.9571,6.1455c-0.3526,2.2668-1.6119,3.1735-3.8283,2.8209
			c-8.6641-1.3601-17.3283-2.7201-26.0428-4.1306c-2.2164-0.3526-3.0727-1.5616-2.7705-3.7276
			c1.8134-11.6362,3.6773-23.3227,5.541-34.9589c0.3526-2.166,1.4608-2.9216,3.5765-2.6194
			C49.3338,36.9421,50.8953,37.194,52.5072,37.4459"/>
		<path class="st0" d="M59.3076,70.3394c1.7631,0.3022,3.5765,0.6045,5.3395,0.8563c0.7556,0.1007,1.1586,0.403,1.0075,1.2593
			c-0.1511,0.8563-0.5541,1.1082-1.4105,0.9571c-3.5261-0.6045-7.0522-1.1586-10.5783-1.6623
			c-0.7556-0.1007-1.2593-0.3526-1.1082-1.3097c0.1511-1.0075,0.7052-1.1082,1.5112-0.9571
			C55.7815,69.7853,57.5445,70.0372,59.3076,70.3394C59.3076,70.2891,59.3076,70.3394,59.3076,70.3394"/>
		<path class="st0" d="M60.4662,63.6902c1.7631,0.3022,3.4757,0.5541,5.2388,0.806c0.7556,0.1007,1.1586,0.403,1.0075,1.2593
			c-0.1511,0.8563-0.5541,1.1082-1.4105,0.9571c-3.5261-0.5541-7.0522-1.1082-10.5783-1.6623
			c-0.7556-0.1007-1.2593-0.3526-1.1082-1.2593c0.1511-1.0075,0.7052-1.1082,1.5112-0.9571
			C56.8897,63.1361,58.7031,63.388,60.4662,63.6902L60.4662,63.6902"/>
		<path class="st0" d="M60.9699,59.9122c-1.8134-0.3022-3.6268-0.6045-5.4403-0.8563c-0.7052-0.1007-1.0578-0.403-0.9571-1.209
			c0.1007-0.806,0.5037-1.0578,1.3097-0.9571c3.6268,0.6045,7.2537,1.1586,10.9309,1.7127c0.7556,0.1007,1.0075,0.4534,0.8563,1.209
			c-0.1007,0.7556-0.4534,1.0075-1.209,0.9067C64.5967,60.4663,62.7833,60.2145,60.9699,59.9122"/>
		<path class="st0" d="M62.4307,51.1473c1.7631,0.3022,3.5765,0.6045,5.3395,0.8563c0.7052,0.1007,1.0578,0.4534,0.9067,1.209
			c-0.1007,0.7052-0.4534,1.0578-1.209,0.9571c-3.6773-0.6045-7.3544-1.1586-11.0317-1.7631
			c-0.7556-0.1007-1.0075-0.5037-0.8563-1.2593c0.1007-0.7556,0.5037-1.0075,1.2593-0.8563
			C58.7031,50.5429,60.5669,50.8451,62.4307,51.1473"/>
		<path class="st0" d="M50.996,50.4421c0.8563-0.7052,1.6623-1.4104,2.4683-2.0149c0.2519-0.2015,0.7052-0.0504,1.0578-0.1007
			c-0.1007,0.3526-0.1007,0.806-0.3526,1.0075c-0.8563,0.806-1.8134,1.5616-2.7202,2.3172c-0.4534,0.403-0.8563,0.3526-1.209-0.1007
			c-0.3526-0.4534-0.8563-0.8563-1.1586-1.3601c-0.1511-0.2519,0-0.6549,0-0.9571c0.3022,0.0504,0.6549,0,0.8563,0.1511
			C50.3412,49.6361,50.5931,50.0391,50.996,50.4421"/>
		<path class="st0" d="M48.9811,63.2872c0.9067-0.7052,1.6623-1.4104,2.5187-2.0149c0.2519-0.1511,0.7052-0.0504,1.0578-0.0504
			c-0.1007,0.3022-0.1007,0.7556-0.3022,0.9571c-0.9067,0.8563-1.8134,1.6623-2.8209,2.3675c-0.2519,0.1511-0.806,0.2015-1.0578,0
			c-0.5037-0.403-0.9571-0.9571-1.3097-1.4608c-0.1511-0.2015-0.0504-0.6045-0.0504-0.9067
			c0.3022,0.0504,0.7052-0.0504,0.9571,0.1007C48.3263,62.4812,48.5782,62.8842,48.9811,63.2872"/>
		<path class="st0" d="M49.9886,57.041c0.8563-0.7052,1.5616-1.3601,2.3675-1.9142c0.3022-0.2015,0.7556-0.1511,1.1586-0.2519
			c-0.1007,0.3526-0.1511,0.8563-0.403,1.1082c-0.8563,0.806-1.7127,1.5616-2.6698,2.2164
			c-0.2519,0.2015-0.9067,0.1511-1.209-0.0504c-0.5037-0.3526-0.9067-0.8563-1.2593-1.4104c-0.1511-0.2015,0-0.6045,0.0504-0.9067
			c0.3022,0,0.6549-0.0504,0.8563,0.1007C49.2833,56.1846,49.5856,56.5876,49.9886,57.041"/>
		<path class="st0" d="M47.9737,69.6342c0.806-0.6549,1.5616-1.3097,2.3675-1.9142c0.3022-0.2015,0.7556-0.1511,1.1082-0.2519
			c-0.1511,0.403-0.1511,0.9067-0.4534,1.1586c-0.806,0.7556-1.7127,1.4608-2.5187,2.166c-0.5037,0.403-0.8563,0.4534-1.3097-0.1007
			c-0.3526-0.4534-0.806-0.806-1.1082-1.2593c-0.1511-0.2519-0.0504-0.7052-0.0504-1.0578
			c0.3022,0.0504,0.7052,0.0504,0.9571,0.2015C47.3692,68.8786,47.6211,69.2816,47.9737,69.6342"/>
		<path class="st0" d="M65.8057,38.0503c-1.209-0.2519-1.8134-0.9571-1.9142-2.166c-0.1007-1.209-1.0578-2.2164-2.1661-2.3172
			c-1.1586-0.1511-2.2668,0.5541-2.6698,1.6119c-0.403,1.1082-1.209,1.6119-2.3171,1.4104
			c-1.4608-0.2015-2.5187,0.4534-2.7202,1.7631c-0.2519,1.3097,0.5037,2.2668,2.0149,2.569
			c1.4608,0.2519,2.972,0.5037,4.4832,0.7052c1.5616,0.2519,3.1231,0.5541,4.6847,0.7052c1.4105,0.1511,2.3675-0.6045,2.569-1.8638
			C67.871,39.2593,67.1154,38.3022,65.8057,38.0503"/>
	</g>
	<g>
		
			<radialGradient id="SVGID_00000096769141622202552550000008333412550994231960_" cx="298.5936" cy="228.0738" r="35.8616" gradientTransform="matrix(1 0 0 -1 0 300)" gradientUnits="userSpaceOnUse">
			<stop  offset="4.475343e-07" style="stop-color:#FFFFFF;stop-opacity:0"/>
			<stop  offset="0.1022" style="stop-color:#F3F3F3;stop-opacity:0.0307"/>
			<stop  offset="0.2882" style="stop-color:#D3D2D2;stop-opacity:0.0865"/>
			<stop  offset="0.537" style="stop-color:#9F9E9E;stop-opacity:0.1611"/>
			<stop  offset="0.8358" style="stop-color:#595656;stop-opacity:0.2507"/>
			<stop  offset="1" style="stop-color:#2F2B2C;stop-opacity:0.3"/>
		</radialGradient>
		<path style="fill:url(#SVGID_00000096769141622202552550000008333412550994231960_);" d="M282.9276,32.1567
			c0,0-6.2463-0.8563-7.1026,5.3899l-8.6138,61.2032c0,0-0.8563,6.2463,5.3899,7.1026l41.6584,5.8433
			c0,0,6.2462,0.8563,7.1026-5.3899l8.6138-61.2032c0,0,0.8563-6.2463-5.3899-7.1026L282.9276,32.1567L282.9276,32.1567z"/>
		<line class="st3" x1="302.1701" y1="47.6212" x2="302.1701" y2="-28.5641"/>
		<path class="st2" d="M281.5675,30.9478c0,0-6.2463-0.8563-7.1026,5.3899l-8.6138,61.2032c0,0-0.8563,6.2462,5.3899,7.1026
			l41.6584,5.8433c0,0,6.2462,0.8563,7.1026-5.3899l8.5635-61.1528c0,0,0.8563-6.2463-5.3899-7.1026L281.5675,30.9478
			L281.5675,30.9478z"/>
		<path class="st0" d="M283.7336,79.3058c2.9217,5.3899,8.4627,5.6418,12.1902,1.7127c1.36,0.806,2.7705,1.6119,4.181,2.4683
			c0.9571,0.6045,1.9646,1.2593,2.7705,2.0149c2.0149,1.7631,2.7202,4.181,3.0224,6.75c0.1007,1.0075,0.0504,2.0653,0.0504,3.1231
			c0,0.4534-0.2519,0.7052-0.7052,0.806c-2.1156,0.5037-4.2314,0.7052-6.3973,0.7052c-5.3899,0-10.679-0.6045-15.9682-1.6119
			c-3.8283-0.7556-7.6566-1.6623-11.1828-3.375c-0.403-0.2015-0.8563-0.403-1.2593-0.7052
			c-0.2015-0.1511-0.3526-0.4534-0.3022-0.6549c0.7556-3.6269,2.1661-6.8004,5.541-8.7649c0.8059-0.4534,1.6623-0.7556,2.569-1.0075
			C280.0563,80.2629,281.9202,79.8096,283.7336,79.3058"/>
		<path class="st0" d="M298.241,76.3338c-0.0504,0.1007-0.1007,0.1511-0.1511,0.2015c-1.0578,0.9067-1.7631,2.1157-2.5187,3.2239
			c-0.6549,1.0075-1.6119,1.7631-2.6698,2.2668c-2.5187,1.2593-5.1884,0.6549-7.0522-1.5112
			c-1.0074-1.1586-1.5615-2.5186-1.8638-3.9795c-0.0504-0.3022-0.1511-0.5541-0.3526-0.806
			c-1.0075-1.6119-1.5616-3.3246-1.1586-5.2388c0.1007-0.6045,0.3022-1.1586,0.8563-1.5112
			c0.1512-0.1007,0.2015-0.3022,0.2519-0.5037c0.2015-1.1082,0.3022-2.2164,0.6045-3.2742c0.403-1.4608,1.3097-2.6698,2.4179-3.7276
			c0.2015-0.1511,0.403-0.3526,0.6549-0.4534c2.6194-1.1586,5.2892-1.0578,7.959-0.0504c-0.3526,0.7556-0.3022,1.4104,0.1007,2.0653
			c-0.1511,0.5037-0.4534,0.7052-1.0074,0.6549c-0.7556-0.1007-1.36,0.3526-1.6119,1.1082c-0.2015,0.7556-0.403,1.5616-0.403,2.3172
			c0,0.7052,0.403,1.209,1.1586,1.4104c0.2015,0.0504,0.3526,0.3526,0.4534,0.5541c0.0504,0.1511-0.1007,0.4534-0.2519,0.5541
			c-0.7052,0.6045-0.9067,1.2593-0.5037,2.0653c0.3526,0.6548,0.8059,1.3601,1.3097,1.9142
			c0.5541,0.5541,1.1586,0.6045,1.8134,0.2015c0.3022-0.1511,0.4534-0.1007,0.7052,0.0504s0.3022,0.3022,0.2519,0.6045
			C297.1831,75.276,297.4854,75.8805,298.241,76.3338"/>
		<path class="st0" d="M304.7895,68.2238c0.3022-1.9142-1.0074-3.6772-2.9217-3.9795c-1.9645-0.3022-3.7276,1.0075-4.0298,2.9216
			c-0.3022,1.8638,1.0578,3.7276,2.972,4.0298C302.7242,71.498,304.4872,70.1883,304.7895,68.2238 M304.2858,61.2219
			c-0.2015,0.403,0,0.7556,0.4534,0.9571c0.0504,0.0504,0.1512,0.0504,0.2015,0.1007c0.6044,0.5541,1.209,0.806,1.9142,0.1511
			c0.1007-0.1007,0.6045,0,0.7052,0.1511c0.403,0.4534,0.7052,0.9571,1.0075,1.4608c0.2519,0.403,0.1007,0.7052-0.3022,0.9571
			c-0.7052,0.4534-0.7052,0.4534-0.5541,1.3601c0,0.1007,0.0504,0.1511,0.0504,0.2519c-0.0504,0.7556,0.3526,1.1082,1.0578,1.2089
			c0.403,0.0504,0.6045,0.3526,0.5541,0.7052c-0.1007,0.6045-0.2015,1.1586-0.3526,1.7631
			c-0.1007,0.403-0.4534,0.5541-0.8563,0.4534c-0.8563-0.2015-0.8563-0.2015-1.36,0.5541
			c-0.0504,0.1007-0.1007,0.2015-0.2015,0.2519c-0.5541,0.4534-0.5541,0.9571-0.1007,1.5112
			c0.3022,0.3526,0.2015,0.7052-0.1512,0.9571c-0.4534,0.3526-0.9067,0.6548-1.4105,0.9067
			c-0.403,0.2519-0.806,0.1511-1.0075-0.3022c-0.2519-0.6045-0.6549-0.806-1.3097-0.5541
			c-0.1007,0.0504-0.1512,0.0504-0.2519,0.0504c-0.8059-0.0504-1.1586,0.3526-1.2593,1.1082
			c-0.0504,0.2015-0.403,0.5037-0.5541,0.4534c-0.6548-0.0504-1.36-0.2015-2.0149-0.403c-0.3526-0.1007-0.4534-0.403-0.3526-0.7052
			c0.2519-0.7052,0.0504-1.209-0.6549-1.5112c-0.0504,0-0.1007-0.0504-0.1512-0.1007c-0.5037-0.5037-1.0074-0.6045-1.5615-0.1007
			c-0.3022,0.3022-0.6549,0.2015-0.9067-0.1007c-0.3526-0.5037-0.6549-1.0075-0.9571-1.5112
			c-0.2519-0.403-0.1007-0.7556,0.3022-0.9067c0.6549-0.3022,0.8563-0.7556,0.5541-1.4104
			c-0.0504-0.1007-0.0504-0.1511-0.0504-0.2519c0.0504-0.7052-0.2519-1.0578-1.0075-1.1082c-0.4534,0-0.6548-0.3022-0.6044-0.7556
			c0.1007-0.5541,0.2015-1.1586,0.3526-1.7127c0.1007-0.4534,0.403-0.6549,0.8563-0.4534c0.7052,0.2519,1.1586,0,1.4608-0.6548
			c0.0504-0.0504,0.1007-0.1007,0.1007-0.1511c0.5037-0.7052,0.5541-0.7052,0.0504-1.4608
			c-0.2519-0.403-0.2519-0.7556,0.1512-1.0075c0.4534-0.3022,0.9067-0.6549,1.4105-0.9067c0.403-0.2519,0.7556-0.1511,0.9571,0.3022
			c0.5541,0.9067,0.5541,0.7556,1.4105,0.5541c0.1007,0,0.1511-0.0504,0.2519-0.0504c0.7052,0,1.0578-0.2519,1.1082-1.0075
			c0-0.4534,0.3526-0.6549,0.7556-0.6045c0.5541,0.1007,1.1082,0.2015,1.6623,0.3526
			C304.3865,60.2145,304.4369,60.416,304.2858,61.2219"/>
		<path class="st0" d="M301.1626,52.86c-0.2015,1.6623,0.9067,3.1735,2.6194,3.4254c1.6119,0.2519,3.2239-0.9571,3.4254-2.6194
			c0.2015-1.6623-0.9571-3.2239-2.569-3.4254C302.9257,49.9887,301.4145,51.1977,301.1626,52.86 M303.0768,46.6641
			c0.2015,0.2519,0.3526,0.403,0.403,0.6045c0.1512,0.4534,0.403,0.6549,0.9067,0.6045c0.403,0,0.806,0.0504,1.209,0.2015
			c0.403,0.1511,0.7052,0.0504,0.9571-0.3022c0.2519-0.403,0.6045-0.4534,1.0074-0.2015c0.5038,0.403,1.0075,0.806,1.4608,1.209
			c0.3022,0.2519,0.3022,0.6045,0.0504,0.8563c-0.3526,0.3526-0.3022,0.7052-0.1007,1.1082
			c0.2015,0.3526,0.3526,0.7556,0.4534,1.1586c0.1007,0.403,0.3022,0.6045,0.7052,0.6045c0.5541,0,0.7556,0.3526,0.7052,0.8563
			c-0.1007,0.6045-0.1512,1.209-0.2519,1.7631c-0.1007,0.403-0.3022,0.6045-0.7556,0.5037
			c-0.4534-0.1007-0.7052,0.0504-0.9571,0.4534c-0.2015,0.3526-0.5037,0.7052-0.8059,1.0075
			c-0.3022,0.3022-0.403,0.6045-0.2015,1.0075c0.2015,0.403,0.1007,0.7052-0.3022,0.9067c-0.6044,0.2519-1.209,0.5037-1.8134,0.7052
			c-0.403,0.1511-0.6549,0-0.7556-0.403c-0.1512-0.4534-0.403-0.6549-0.9067-0.6045c-0.403,0-0.806-0.0504-1.209-0.2015
			c-0.403-0.1007-0.7052-0.0504-0.9067,0.3022c-0.3022,0.4534-0.6549,0.5037-1.0578,0.2015
			c-0.5037-0.3526-0.9571-0.7556-1.4105-1.1586c-0.3022-0.2519-0.3526-0.5541-0.0504-0.8563
			c0.3526-0.3526,0.3526-0.6549,0.1007-1.1082c-0.2015-0.3526-0.3526-0.7556-0.4534-1.1586
			c-0.1007-0.403-0.3022-0.6045-0.7052-0.6045c-0.5541,0-0.7556-0.3526-0.7052-0.8563c0.1007-0.6045,0.2015-1.2593,0.3022-1.8638
			c0.0504-0.3526,0.3022-0.5037,0.6549-0.403c0.5037,0.1511,0.806-0.0504,1.1082-0.5037c0.2015-0.3526,0.4534-0.6549,0.7556-0.9571
			c0.2519-0.2519,0.3526-0.5541,0.2015-0.9067c-0.2519-0.5037-0.1007-0.806,0.403-1.0075
			C301.6664,47.2182,302.3212,46.9664,303.0768,46.6641"/>
		<path class="st0" d="M311.1365,73.6137c-0.2519,1.7127,0.9067,3.1735,2.6698,3.4254c1.6119,0.2015,3.1735-0.9571,3.375-2.569
			c0.2015-1.6623-0.9571-3.2239-2.6194-3.4254C312.8492,70.7928,311.338,71.9514,311.1365,73.6137 M310.7335,69.6846
			c-0.0504-0.2015-0.0504-0.403-0.1511-0.5541c-0.2015-0.403-0.0504-0.7052,0.3022-0.8563
			c0.6045-0.2519,1.2593-0.5037,1.8638-0.7052c0.3526-0.1511,0.6045,0,0.7052,0.403c0.1512,0.5037,0.403,0.6549,0.9067,0.7052
			c0.403,0,0.8563,0.1007,1.2593,0.2015c0.3526,0.1007,0.6549,0.0504,0.8563-0.3022c0.3022-0.4534,0.6549-0.4534,1.0074-0.1511
			c0.5037,0.403,0.9571,0.7556,1.4105,1.1586c0.3022,0.3022,0.3526,0.6045,0.0504,0.9067
			c-0.3022,0.3022-0.3526,0.6549-0.1007,1.0578c0.2015,0.3526,0.3526,0.7556,0.4534,1.209
			c0.1007,0.4534,0.3526,0.6548,0.7556,0.6548c0.5038,0.0504,0.6549,0.3022,0.6045,0.7556
			c-0.1007,0.6045-0.1512,1.209-0.2519,1.7631c-0.1007,0.4534-0.3526,0.7052-0.8563,0.6045
			c-0.403-0.1007-0.6549,0.0504-0.9067,0.403c-0.2519,0.3526-0.5037,0.7052-0.8563,1.0075
			c-0.3022,0.3022-0.403,0.5541-0.2015,0.9571c0.2519,0.4534,0.0504,0.806-0.403,0.9571c-0.6045,0.2519-1.1586,0.4534-1.7631,0.6549
			c-0.3526,0.1511-0.6045-0.0504-0.7556-0.403c-0.1512-0.5037-0.4534-0.7052-0.9571-0.7052c-0.403,0-0.7556-0.1007-1.1586-0.2015
			c-0.403-0.1007-0.7052-0.0504-0.9571,0.3022c-0.2519,0.3526-0.5541,0.4534-0.9067,0.1511
			c-0.5541-0.403-1.0578-0.806-1.5616-1.2593c-0.3022-0.2519-0.3022-0.5541,0-0.8563c0.403-0.3526,0.3526-0.7556,0.1007-1.2089
			c-0.2015-0.3022-0.3022-0.7052-0.403-1.0578c-0.1007-0.4534-0.3022-0.7052-0.7556-0.7052
			c-0.5037-0.0504-0.6548-0.3526-0.6044-0.7556c0.1007-0.6548,0.2015-1.3097,0.3526-1.9142c0.1007-0.403,0.3526-0.5037,0.7052-0.403
			c0.5038,0.1007,0.806-0.0504,1.0578-0.4534c0.2015-0.3526,0.5541-0.6549,0.806-0.9571
			C310.532,69.9365,310.6328,69.8357,310.7335,69.6846"/>
	</g>
</g>
</svg>
