<?xml version="1.0" encoding="UTF-8"?><svg id="SSL_ILLUSTRATION" xmlns="http://www.w3.org/2000/svg" xmlns:xlink="http://www.w3.org/1999/xlink" viewBox="0 0 400 300"><defs><style>.cls-1{fill:#fff;}.cls-1,.cls-2,.cls-3,.cls-4,.cls-5,.cls-6,.cls-7,.cls-8,.cls-9{stroke-width:0px;}.cls-2{fill:#f60;}.cls-3{fill:url(#radial-gradient-2);}.cls-4{fill:url(#radial-gradient-7);}.cls-5{fill:url(#radial-gradient-5);}.cls-6{fill:url(#radial-gradient);}.cls-7{fill:url(#radial-gradient-6);}.cls-8{fill:url(#radial-gradient-3);}.cls-9{fill:url(#radial-gradient-4);}</style><radialGradient id="radial-gradient" cx="161" cy="151.52" fx="161" fy="151.52" r="27.29" gradientTransform="translate(-5.02 107.09) rotate(-2.03)" gradientUnits="userSpaceOnUse"><stop offset="0" stop-color="#fff" stop-opacity="0"/><stop offset=".1" stop-color="#f3f3f3" stop-opacity=".03"/><stop offset=".29" stop-color="#d3d2d2" stop-opacity=".09"/><stop offset=".54" stop-color="#9f9e9e" stop-opacity=".16"/><stop offset=".84" stop-color="#595656" stop-opacity=".25"/><stop offset="1" stop-color="#2f2b2c" stop-opacity=".3"/></radialGradient><radialGradient id="radial-gradient-2" cx="116.41" cy="128.06" fx="116.41" fy="128.06" r="29.65" gradientTransform="translate(-5.02 107.09) rotate(-2.03)" gradientUnits="userSpaceOnUse"><stop offset="0" stop-color="#fff" stop-opacity="0"/><stop offset=".1" stop-color="#f3f3f3" stop-opacity=".03"/><stop offset=".29" stop-color="#d3d2d2" stop-opacity=".09"/><stop offset=".54" stop-color="#9f9e9e" stop-opacity=".16"/><stop offset=".84" stop-color="#595656" stop-opacity=".25"/><stop offset="1" stop-color="#2f2b2c" stop-opacity=".3"/></radialGradient><radialGradient id="radial-gradient-3" cx="251.11" cy="131.01" fx="251.11" fy="131.01" r="28.51" gradientTransform="translate(-5.02 107.09) rotate(-2.03)" gradientUnits="userSpaceOnUse"><stop offset="0" stop-color="#fff" stop-opacity="0"/><stop offset=".1" stop-color="#f3f3f3" stop-opacity=".03"/><stop offset=".29" stop-color="#d3d2d2" stop-opacity=".09"/><stop offset=".54" stop-color="#9f9e9e" stop-opacity=".16"/><stop offset=".84" stop-color="#595656" stop-opacity=".25"/><stop offset="1" stop-color="#2f2b2c" stop-opacity=".3"/></radialGradient><radialGradient id="radial-gradient-4" cx="350.47" cy="138.56" fx="350.47" fy="138.56" r="25.06" gradientTransform="translate(-5.02 107.09) rotate(-2.03)" gradientUnits="userSpaceOnUse"><stop offset="0" stop-color="#fff" stop-opacity="0"/><stop offset=".1" stop-color="#f3f3f3" stop-opacity=".03"/><stop offset=".29" stop-color="#d3d2d2" stop-opacity=".09"/><stop offset=".54" stop-color="#9f9e9e" stop-opacity=".16"/><stop offset=".84" stop-color="#595656" stop-opacity=".25"/><stop offset="1" stop-color="#2f2b2c" stop-opacity=".3"/></radialGradient><radialGradient id="radial-gradient-5" cx="205.19" cy="150.65" fx="205.19" fy="150.65" r="28.16" gradientTransform="translate(-5.02 107.09) rotate(-2.03)" gradientUnits="userSpaceOnUse"><stop offset="0" stop-color="#fff" stop-opacity="0"/><stop offset=".1" stop-color="#f3f3f3" stop-opacity=".03"/><stop offset=".29" stop-color="#d3d2d2" stop-opacity=".09"/><stop offset=".54" stop-color="#9f9e9e" stop-opacity=".16"/><stop offset=".84" stop-color="#595656" stop-opacity=".25"/><stop offset="1" stop-color="#2f2b2c" stop-opacity=".3"/></radialGradient><radialGradient id="radial-gradient-6" cx="63.24" cy="142.92" fx="63.24" fy="142.92" r="35.86" gradientTransform="translate(-5.02 107.09) rotate(-2.03)" gradientUnits="userSpaceOnUse"><stop offset="0" stop-color="#fff" stop-opacity="0"/><stop offset=".1" stop-color="#f3f3f3" stop-opacity=".03"/><stop offset=".29" stop-color="#d3d2d2" stop-opacity=".09"/><stop offset=".54" stop-color="#9f9e9e" stop-opacity=".16"/><stop offset=".84" stop-color="#595656" stop-opacity=".25"/><stop offset="1" stop-color="#2f2b2c" stop-opacity=".3"/></radialGradient><radialGradient id="radial-gradient-7" cx="302.28" cy="156.72" fx="302.28" fy="156.72" r="35.86" gradientTransform="translate(-5.02 107.09) rotate(-2.03)" gradientUnits="userSpaceOnUse"><stop offset="0" stop-color="#fff" stop-opacity="0"/><stop offset=".1" stop-color="#f3f3f3" stop-opacity=".03"/><stop offset=".29" stop-color="#d3d2d2" stop-opacity=".09"/><stop offset=".54" stop-color="#9f9e9e" stop-opacity=".16"/><stop offset=".84" stop-color="#595656" stop-opacity=".25"/><stop offset="1" stop-color="#2f2b2c" stop-opacity=".3"/></radialGradient></defs><rect class="cls-2" width="400" height="300"/><path class="cls-6" d="m142.65,222.34l34.99-1.24c2.92-.1,5.42,2.18,5.53,5.15l1.83,51.5c.1,2.92-2.18,5.42-5.15,5.53l-34.99,1.24c-2.92.1-5.42-2.18-5.53-5.15l-1.83-51.5c-.11-2.97,2.18-5.42,5.15-5.53Z"/><path class="cls-1" d="m141.25,221.18l34.99-1.24c2.92-.1,5.42,2.18,5.53,5.15l1.83,51.5c.1,2.92-2.18,5.42-5.15,5.53l-34.99,1.24c-2.92.1-5.42-2.18-5.53-5.15l-1.83-51.5c-.11-2.97,2.18-5.42,5.15-5.53Z"/><path class="cls-2" d="m165.39,238.07c-3.07.11-6.14.22-9.21.33-.5.02-.92-.22-1.08-.62-.17-.45-.09-1.06.26-1.32.25-.16.54-.27.85-.28l9.87-.35,8.36-.3c.81-.03,1.22.36,1.25,1.12.02.6-.37,1.07-1.02,1.09l-4.38.16c-1.61.06-3.27.12-4.88.17h0Z"/><path class="cls-2" d="m165.79,249.45l-8.91.32c-.25,0-.5.02-.76-.02-.51-.13-.78-.63-.7-1.19.03-.51.42-.92.92-.94.45-.07.86-.03,1.31-.05,5.69-.2,11.38-.4,17.07-.6.81-.03,1.27.36,1.3,1.06.02.65-.36,1.12-1.07,1.15l-5.13.18c-1.31,0-2.67.04-4.03.09"/><path class="cls-2" d="m166.19,260.77c-3.07.11-6.09.22-9.16.32-.81.03-1.28-.51-1.16-1.32.08-.51.42-.87,1.03-.89l1.76-.06c5.49-.19,11.02-.39,16.51-.59.25,0,.51.03.76.12.46.19.68.73.6,1.24-.08.51-.47.82-1.03.84l-5.94.21-3.37.12h0Z"/><path class="cls-2" d="m147.89,260.62h0l-1.56.06c-.65.02-1.49.51-1.41,1.51.08.95.07,1.91.1,2.87.03.91.66,1.49,1.56,1.46l2.87-.1c.86-.03,1.39-.5,1.36-1.36.01-1.11-.03-2.22-.12-3.32-.08-.7-.59-1.14-1.35-1.16l-1.46.05m4.33,2.77l.06,1.56c.05,1.46-.91,2.65-2.32,2.8-1.25.15-2.56.19-3.88.14-1.36-.05-2.41-1.28-2.46-2.63l-.11-3.07c-.05-1.51.96-2.76,2.47-2.91,1.26-.09,2.46-.14,3.73-.13s2.36,1.13,2.46,2.43l.06,1.81h0Z"/><path class="cls-2" d="m147.49,249.29h0c-.55.07-1.06.04-1.61.11-.91.03-1.39.6-1.36,1.46l.1,2.92c.03.86.71,1.44,1.56,1.46l2.97-.11c.55-.02.95-.29,1.18-.85.09-.26.13-.56.12-.81l-.1-2.87c0-.15-.01-.3-.07-.45-.12-.55-.69-.93-1.19-.92-.55.02-1.06.04-1.61.06m4.28,2.67c.02.7.15,1.46.08,2.16-.16,1.27-1.08,2.21-2.34,2.3-1.21.09-2.46.14-3.68.08-1.36-.05-2.46-1.27-2.56-2.63-.03-.96-.02-1.97-.1-2.92-.11-1.76,1.26-2.87,2.52-2.96,1.21-.09,2.46-.14,3.67-.13,1.31,0,2.36,1.08,2.46,2.43l.06,1.66h-.1"/><path class="cls-2" d="m149.56,236.56c-.39.42-.68.78-1.07,1.15-.05.05-.2.11-.35.11l-2.57.09c-.96.03-1.49.61-1.46,1.56l.1,2.82c.03.91.66,1.49,1.56,1.46l2.87-.1c.91-.03,1.44-.56,1.41-1.46l-.04-1.21c0-.1.04-.25.09-.31.39-.42.78-.88,1.21-1.35.06.15.06.2.06.25l.09,2.67c0,1.46-.96,2.66-2.42,2.81-1.21.09-2.41.14-3.62.13-1.41-.05-2.51-1.27-2.62-2.68l-.11-3.12c-.05-1.31.97-2.6,2.27-2.7,1.36-.15,2.72-.1,4.08-.14.15-.06.3-.01.51.03"/><path class="cls-2" d="m161.44,253.43l-4.73.17c-.91.03-1.44-.91-1.02-1.68.19-.36.54-.52.94-.54l6.8-.24,2.57-.09c.76-.03,1.22.36,1.25,1.06s-.41,1.12-1.17,1.15l-4.63.16"/><path class="cls-2" d="m160.96,239.74l4.68-.17c.65-.02,1.12.36,1.14,1.02.02.7-.36,1.17-1.07,1.2l-9.46.34c-.65.02-1.12-.41-1.15-1.12-.02-.65.42-1.07,1.07-1.1l4.78-.17"/><path class="cls-2" d="m161.77,262.49l4.68-.17c.7-.02,1.17.36,1.2,1.07s-.41,1.17-1.12,1.2l-9.36.33c-.86.03-1.39-.76-1.11-1.57.19-.46.53-.67.98-.69l4.73-.17"/><path class="cls-2" d="m147.08,240.53c.34-.42.68-.73.97-1.09.97-1.04,1.94-2.14,2.96-3.18.24-.26.49-.32.8-.18.31.14.47.39.43.69-.05.15-.09.36-.24.46-1.46,1.56-2.86,3.13-4.32,4.69-.34.36-.69.38-1.06.04s-.68-.63-1.04-.97c-.31-.29-.33-.69-.04-1.01.29-.26.7-.28,1.01-.04.21.19.37.39.52.59"/><path class="cls-3" d="m92.29,206.96s-4.79,1.28-3.51,6.07l12.6,46.98s1.28,4.79,6.07,3.51l31.95-8.59s4.79-1.28,3.51-6.07l-12.6-46.98s-1.28-4.79-6.07-3.51c0,0-31.95,8.59-31.95,8.59Z"/><path class="cls-1" d="m90.89,205.8s-4.79,1.28-3.51,6.07l12.6,46.98s1.28,4.79,6.07,3.51l31.95-8.59s4.79-1.28,3.51-6.07l-12.55-46.99s-1.28-4.79-6.07-3.51c-.05,0-32,8.59-32,8.59Z"/><path class="cls-2" d="m111.76,237.12c.22-1.02.38-1.98.55-2.99.08-.51.32-.87.77-1.04.15-.06.1-.15.14-.26.32-2.28.59-4.56.92-6.84.24-1.82.48-3.6.72-5.42.04-.2.09-.26.24-.21.2.04.46.08.66.08s.26.09.21.29c-.48,3.39-.92,6.84-1.4,10.23-.08.66-.15,1.32-.28,1.98-.05.15,0,.25.11.35.36.29.48.74.4,1.2-.34,1.83-.68,3.65-1.02,5.48-.22,1.02-1.11,1.4-2.04.83-.52-.33-.88-.78-1.3-1.16-.36-.34-.78-.68-1.1-1.07-.16-.15-.26-.19-.45-.03q-.35.21-.18.56c.59,1.04,1.18,2.13,1.78,3.16.48.84.97,1.68,1.45,2.57.11.15.11.25-.09.36-2.97,1.62-5.93,3.28-8.9,4.95-.15.11-.25.06-.31-.09-1.24-2.27-2.48-4.5-3.72-6.77-.43-.79-.66-1.64-.49-2.5.17-.96.7-1.64,1.44-2.17.74-.53,1.53-.86,2.27-1.29,1.04-.59,2.13-1.18,3.16-1.78,1.88-1.02,4.01-.75,5.52.76.36.24.62.48.94.82"/><path class="cls-2" d="m108.95,217.61c4.05-2.26,8.06-4.47,12.11-6.73.64-.38,1.26-.09,1.53.45,3.77,6.82,7.59,13.64,11.36,20.46.38.64.19,1.15-.45,1.53-6.33,3.5-12.61,7-18.93,10.5-.2.11-.3.11-.41-.14-.22-.45-.43-.84-.7-1.24-.05-.1-.06-.2.09-.26.05,0,.1-.05.2-.11,5.93-3.28,11.91-6.62,17.84-9.91.35-.16.3-.11.14-.46-3.44-6.18-6.84-12.31-10.28-18.49-.11-.2-.26-.24-.46-.13-7.41,4.14-14.88,8.24-22.29,12.38-.35.16-.3.11-.13.46.32.54.59,1.09.91,1.63.11.15.06.25-.09.31-.45.22-.84.48-1.29.7-.15.06-.2.06-.31-.09-.49-.94-1.02-1.83-1.51-2.77-.27-.54-.14-1.05.4-1.38,4.11-2.21,8.21-4.47,12.26-6.74"/><path class="cls-2" d="m99.87,230.18c1.58-.91,3.62-.33,4.53,1.25.91,1.58.33,3.62-1.3,4.53-1.58.86-3.62.28-4.48-1.3-.96-1.58-.38-3.62,1.25-4.48"/><path class="cls-8" d="m229.68,200.93s-5.12.64-4.48,5.75l6.22,50.39s.64,5.12,5.75,4.48l34.28-4.24s5.12-.64,4.48-5.75l-6.22-50.39s-.64-5.12-5.75-4.48c-.05.05-34.28,4.24-34.28,4.24Z"/><path class="cls-1" d="m228.28,199.77s-5.12.64-4.48,5.75l6.22,50.39s.64,5.12,5.75,4.48l34.28-4.24s5.12-.64,4.48-5.75l-6.22-50.39s-.64-5.12-5.75-4.48c0,.05-34.28,4.24-34.28,4.24Z"/><path class="cls-2" d="m249.64,236.21h0c.35-.01.7-.08,1.11-.04.35.04.5-.12.59-.52.33-1.93,1.08-3.67,2.39-5.13.68-.73,1.2-1.61,1.73-2.48.76-1.39,1.01-2.91.64-4.56-1.08-4.9-6.32-7.59-10.73-5.47-3.17,1.52-4.8,5.31-3.77,8.75.51,1.65,1.57,3.02,2.87,4.08,1.66,1.4,2.83,3.13,3.56,5.17.06.2.16.3.36.24.4-.01.81-.03,1.26-.04m3.96,2.23c-2.46.14-4.93.28-7.29.41-.18-.75-.31-1.5-.53-2.2-.45-1.4-1.25-2.58-2.39-3.54-1.66-1.4-3.08-3.02-3.91-5.05-1.66-4.28-.08-9.27,3.82-11.73,5.77-3.68,13.65-.28,15.15,6.62.6,2.65.13,5.09-1.3,7.3-.48.72-.96,1.45-1.59,2.07-1.26,1.36-1.76,2.99-1.9,4.81-.04.4-.02.86-.05,1.31"/><path class="cls-2" d="m253.06,246.07c-.17,1.01-.41,1.27-1.42,1.31-.7.02-1.36.1-2.06.12-.91.03-1.27-.26-1.5-1.11-.92-.22-1.28-.56-1.36-1.26-.02-.7.36-1.22,1.01-1.25,1.71-.11,3.42-.22,5.13-.28.6-.02,1.12.41,1.2,1.02.12.65-.16,1.22-.76,1.39-.05,0-.15.06-.25.06"/><path class="cls-2" d="m230.26,227.17c-.08-.85-.16-1.61-.19-2.46,2.46-.14,4.93-.28,7.39-.41.08.8.16,1.61.19,2.46-2.46.14-4.93.28-7.39.41"/><path class="cls-2" d="m267.2,222.53c.08.8.16,1.61.19,2.41-2.46.14-4.88.27-7.39.41-.08-.8-.16-1.61-.19-2.41,2.47-.09,4.93-.23,7.39-.41"/><path class="cls-2" d="m250.26,242.44c-.81.03-1.56.11-2.36.13-.86.03-1.37-.35-1.45-1.16-.08-.75.41-1.27,1.21-1.3,1.61-.11,3.22-.21,4.78-.27.96-.03,1.59.7,1.32,1.67-.13.51-.53.77-1.08.84-.81-.02-1.61.06-2.42.09"/><path class="cls-2" d="m239.93,215.64c-.48.57-.97,1.14-1.5,1.72-1.56-1.41-3.17-2.81-4.73-4.17.48-.57.97-1.14,1.45-1.77,1.61,1.4,3.22,2.81,4.79,4.22"/><path class="cls-2" d="m257.6,216.27c-.57-.53-1.2-1.02-1.77-1.55,1.36-1.56,2.66-3.17,4.02-4.73.57.48,1.14,1.02,1.72,1.55-1.26,1.56-2.61,3.12-3.97,4.73"/><path class="cls-2" d="m241.68,235.03c-1.31,1.51-2.61,3.12-3.97,4.63-.57-.53-1.2-1.07-1.82-1.6,1.31-1.51,2.61-3.12,3.97-4.68.62.53,1.2,1.07,1.82,1.65"/><path class="cls-2" d="m257.42,234.02c.48-.57,1.02-1.2,1.6-1.87,1.56,1.41,3.17,2.81,4.74,4.22-.53.62-1.06,1.25-1.55,1.82-1.61-1.35-3.17-2.76-4.78-4.17"/><path class="cls-2" d="m248.98,213.45c-.81.03-1.56.11-2.36.13-.16-1.66-.27-3.27-.43-4.97.81-.03,1.56-.11,2.36-.13.11,1.66.27,3.32.43,4.97"/><path class="cls-9" d="m331.79,208.35s-4.52.56-3.95,5.08l5.45,44.26s.56,4.52,5.08,3.95l30.11-3.69s4.52-.56,3.95-5.08l-5.45-44.26s-.56-4.52-5.08-3.95c0,0-30.11,3.69-30.11,3.69Z"/><path class="cls-1" d="m330.39,207.19s-4.52.56-3.95,5.08l5.45,44.26s.56,4.52,5.08,3.95l30.11-3.69s4.52-.56,3.95-5.08l-5.45-44.26s-.56-4.52-5.08-3.95l-30.11,3.69Z"/><path class="cls-2" d="m353.57,249.56l-7.23.91-.91-7.23,7.23-.91.91,7.23Zm-16.54-32.88c2.57-1.35,5.22-2.1,7.83-2.39,6.82-.85,11.55,1.51,12.32,7.63.36,2.96-.37,5.2-2.95,9.18-2.49,3.72-2.69,5.14-2.47,7.09l.06.4-6.58.79-.07-.6c-.41-3.16-.07-4.69,2.6-9.11,1.38-2.27,2.03-3.9,1.82-5.66-.36-2.91-2.56-3.89-5.62-3.53-2.01.27-4.05,1-5.87,2.17l-1.07-5.96h0Z"/><path class="cls-5" d="m200.44,220.87s-4.14-1.52-5.65,2.62l-14.79,40.7s-1.52,4.14,2.62,5.65l27.68,10.06s4.14,1.52,5.65-2.62l14.79-40.7s1.52-4.14-2.62-5.65l-27.68-10.06Z"/><path class="cls-1" d="m199.04,219.71s-4.14-1.52-5.65,2.62l-14.79,40.7s-1.52,4.14,2.62,5.65l27.68,10.06s4.14,1.52,5.65-2.62l14.79-40.7s1.52-4.14-2.62-5.65c0,0-27.68-10.06-27.68-10.06Z"/><path class="cls-2" d="m187.71,257.01c.61.23,1.17.41,1.84.69-.09.2-.14.36-.18.51-.37,1.02-.74,1.99-1.1,3.01-.23.66,0,1.16.65,1.39,6.03,2.21,12,4.36,18.03,6.57.72.28,1.16.06,1.44-.66.41-1.12.83-2.3,1.29-3.47.61.23,1.17.41,1.79.64-.05.1-.04.2-.09.31-.42,1.07-.78,2.19-1.19,3.27-.6,1.63-2.18,2.4-3.82,1.8-6.08-2.2-12.15-4.41-18.23-6.61-1.28-.46-1.97-1.54-1.97-2.9v-.35s1.55-4.19,1.55-4.19h0Z"/><path class="cls-2" d="m209.31,243.44c-.82-.27-1.54.61-2.51,3.26-.87,2.4-.88,3.61-.06,3.93.82.27,1.54-.61,2.46-3.06.96-2.71.92-3.86.11-4.14"/><path class="cls-2" d="m206.09,252.27c-2.3-.83-2.68-3.18-1.49-6.5,1.19-3.27,3-4.84,5.35-4.02,2.35.87,2.58,3.24,1.39,6.5-1.14,3.32-2.85,4.89-5.25,4.02m-4.5-1.86l-2.3-.83,1.98-5.41c.32-.87.79-1.94.97-2.45h-.05c-.4.17-1.2.4-2.09.68l-.32-2,3.45-.83,2.04.73-3.67,10.11h0Zm17.04,3.08c-1.08-.52-2.2-.93-3.32-1.34-.97-.37-1.94-.74-3.06-1.1.14-.41.28-.72.37-1.02,1.38-3.78,2.71-7.56,4.13-11.34.6-1.63.59-3.2-.37-4.67-.43-.69-1.1-1.22-1.68-1.81-2.66-.96-5.36-1.93-8.02-2.94-.1,0-.15.06-.25.06-2.98-.05-4.5,1.02-5.56,3.83-1.33,3.68-2.66,7.4-4.04,11.08-.09.31-.23.61-.37,1.02-.41-.14-.72-.28-1.02-.37-1.79-.59-3.57-1.23-5.36-1.78-.82-.27-1.16.09-.92.94.17.55.39,1.15.66,1.69,2.35,5.06,4.69,10.12,7.09,15.17.33.64.7,1.29,1.13,1.93.43.64,1.04.82,1.79.69.4-.11.85-.23,1.2-.4,5.6-2.62,11.21-5.19,16.81-7.8.3-.16.59-.32.89-.54.58-.58.57-1.03-.1-1.31"/><path class="cls-7" d="m46.18,208.49s-6.27-.63-6.91,5.64l-6.44,61.47s-.63,6.27,5.64,6.91l41.84,4.36s6.27.63,6.91-5.64l6.44-61.47s.63-6.27-5.64-6.91l-41.84-4.36h0Z"/><path class="cls-1" d="m44.83,207.33s-6.27-.63-6.91,5.64l-6.44,61.47s-.63,6.27,5.64,6.91l41.84,4.36s6.27.63,6.91-5.64l6.39-61.42s.63-6.27-5.64-6.91l-41.79-4.42h0Z"/><path class="cls-2" d="m46.6,264.53c8.46,1.06,16.96,2.07,25.41,3.08,1.21-9.92,2.42-19.79,3.64-29.67-8.51-1.06-16.91-2.07-25.41-3.08-1.21,9.87-2.43,19.64-3.64,29.67m8.86-37.26c-.19,3.23.92,4.55,3.91,4.95,2.73.36,5.52.66,8.25,1.02,2.68.31,4.11-.7,4.67-3.44.05-.1.09-.2.14-.31,1.87.24,3.74.32,5.57.71,1.57.35,2.18,1.74,1.94,3.56-1.17,9.52-2.3,19.03-3.47,28.55-.23,2.07-.51,4.1-.74,6.18-.27,2.28-1.5,3.23-3.73,2.95-8.71-1.05-17.41-2.1-26.17-3.21-2.23-.27-3.13-1.45-2.9-3.63,1.4-11.69,2.85-23.44,4.3-35.13.28-2.18,1.36-2.97,3.48-2.74,1.57.15,3.14.34,4.76.54"/><path class="cls-2" d="m63.42,259.9c1.77.24,3.6.48,5.37.67.76.07,1.17.36,1.05,1.22s-.51,1.13-1.38,1.01c-3.55-.48-7.09-.91-10.63-1.29-.76-.07-1.27-.31-1.15-1.27.12-1.01.67-1.13,1.48-1.01,1.72.24,3.49.43,5.27.67,0-.05,0,0,0,0"/><path class="cls-2" d="m64.35,253.21c1.77.24,3.49.43,5.26.62.76.07,1.17.36,1.05,1.22s-.51,1.13-1.38,1.01l-10.63-1.29c-.76-.07-1.27-.31-1.15-1.22.12-1.01.67-1.13,1.48-1.01,1.77.24,3.59.43,5.37.67h0"/><path class="cls-2" d="m64.72,249.42c-1.82-.24-3.65-.48-5.47-.66-.71-.08-1.07-.37-1-1.17s.47-1.07,1.27-1c3.65.48,7.29.9,10.98,1.32.76.07,1.02.42.9,1.18-.07.76-.42,1.02-1.18.95-1.87-.19-3.69-.37-5.52-.61"/><path class="cls-2" d="m65.87,240.61c1.77.24,3.6.48,5.37.67.71.08,1.07.42.95,1.18-.08.71-.42,1.07-1.17,1-3.7-.47-7.39-.9-11.09-1.37-.76-.07-1.02-.47-.9-1.23.07-.76.47-1.02,1.23-.9,1.87.19,3.74.42,5.62.66"/><path class="cls-2" d="m54.41,240.31c.83-.74,1.61-1.47,2.4-2.1.24-.21.7-.08,1.05-.14-.09.36-.07.81-.32,1.02-.83.84-1.76,1.62-2.64,2.41-.44.42-.84.38-1.21-.06-.37-.44-.89-.83-1.21-1.32-.16-.25-.02-.65-.03-.96.3.04.65-.02.86.12.41.24.68.63,1.09,1.02"/><path class="cls-2" d="m52.85,253.22c.88-.74,1.61-1.47,2.45-2.1.25-.16.7-.08,1.06-.09-.09.31-.07.76-.27.97-.88.89-1.75,1.73-2.74,2.47-.25.16-.8.23-1.06.04-.52-.38-.99-.92-1.36-1.41-.16-.2-.07-.6-.08-.9.3.04.7-.08.96.07.36.19.63.58,1.04.97"/><path class="cls-2" d="m53.64,246.94c.83-.74,1.51-1.41,2.3-2,.29-.21.75-.18,1.15-.29-.09.36-.12.86-.36,1.12-.83.84-1.66,1.62-2.59,2.31-.24.21-.9.18-1.21,0-.52-.33-.94-.82-1.31-1.36-.16-.2-.02-.6.02-.91.3-.01.65-.07.86.07.41.24.73.63,1.15,1.07"/><path class="cls-2" d="m52.07,259.6c.78-.68,1.51-1.36,2.3-2,.29-.21.75-.18,1.1-.29-.14.41-.12.91-.41,1.17-.78.78-1.66,1.52-2.44,2.25-.49.42-.84.48-1.31-.05-.37-.44-.83-.78-1.15-1.22-.16-.25-.08-.7-.09-1.06.3.04.71.03.96.17.41.29.68.68,1.04,1.02"/><path class="cls-2" d="m68.77,227.4c-1.22-.21-1.85-.89-1.99-2.1-.14-1.2-1.14-2.18-2.25-2.24-1.16-.11-2.25.63-2.61,1.71-.36,1.12-1.15,1.65-2.27,1.49-1.47-.15-2.5.54-2.66,1.86-.21,1.32.58,2.25,2.1,2.5,1.47.2,2.99.4,4.51.55,1.57.2,3.14.44,4.71.54,1.41.1,2.34-.69,2.5-1.95.06-1.21-.73-2.14-2.05-2.35"/><path class="cls-4" d="m285.55,213.82s-6.27-.63-6.91,5.64l-6.44,61.47s-.63,6.27,5.64,6.91l41.84,4.36s6.27.63,6.91-5.64l6.44-61.47s.63-6.27-5.64-6.91l-41.84-4.36h0Z"/><path class="cls-1" d="m284.15,212.66s-6.27-.63-6.91,5.64l-6.44,61.47s-.63,6.27,5.64,6.91l41.84,4.36s6.27.63,6.91-5.64l6.39-61.42s.63-6.27-5.64-6.91l-41.79-4.42h0Z"/><path class="cls-2" d="m288.03,260.91c3.11,5.28,8.66,5.34,12.24,1.28,1.39.76,2.83,1.51,4.27,2.32.98.57,2.01,1.19,2.84,1.92,2.08,1.69,2.87,4.08,3.26,6.64.14,1,.12,2.06.16,3.12.02.45-.23.71-.68.83-2.1.58-4.2.85-6.37.93-5.39.19-10.69-.23-16.02-1.05-3.85-.62-7.71-1.39-11.3-2.98-.41-.19-.87-.37-1.28-.66-.21-.14-.37-.44-.33-.64.63-3.65,1.92-6.87,5.23-8.96.79-.48,1.63-.81,2.53-1.1,1.79-.57,3.64-1.09,5.44-1.65"/><path class="cls-2" d="m302.42,257.43c-.05.1-.1.15-.14.21-1.03.94-1.69,2.18-2.4,3.31-.62,1.03-1.55,1.82-2.59,2.36-2.47,1.35-5.16.84-7.1-1.26-1.05-1.12-1.65-2.46-2-3.91-.06-.3-.17-.55-.38-.79-1.06-1.58-1.68-3.27-1.34-5.19.08-.61.26-1.17.8-1.54.15-.11.19-.31.23-.51.16-1.11.22-2.23.49-3.29.35-1.47,1.21-2.71,2.28-3.81.2-.16.39-.37.64-.48,2.58-1.25,5.25-1.24,7.95-.33-.33.77-.25,1.42.17,2.06-.13.51-.43.72-.98.69-.76-.07-1.35.4-1.57,1.16-.17.76-.35,1.57-.32,2.33.02.7.45,1.19,1.21,1.37.2.04.36.34.47.54.06.15-.08.46-.23.56-.68.63-.86,1.29-.43,2.08.38.64.85,1.33,1.38,1.87.57.53,1.18.56,1.82.14.3-.16.45-.12.71.03s.31.29.27.6c-.02.81.3,1.4,1.07,1.83"/><path class="cls-2" d="m308.68,249.09c.23-1.92-1.14-3.64-3.06-3.87-1.97-.23-3.69,1.14-3.92,3.06-.24,1.87,1.19,3.69,3.11,3.92,1.92.23,3.64-1.14,3.87-3.11m-.75-6.98c-.19.41.03.76.49.94.05.05.15.05.2.09.62.53,1.24.76,1.92.08.1-.1.6-.02.71.13.42.44.74.93,1.06,1.42.27.39.13.7-.27.97q-.69.48-.51,1.38c0,.1.06.15.06.25-.02.76.39,1.1,1.1,1.17.4.04.62.33.58.69-.08.61-.16,1.17-.29,1.77-.09.41-.43.57-.84.48q-.86-.17-1.34.6c-.05.1-.09.2-.19.26-.54.47-.52.98-.05,1.51.31.34.23.7-.12.96-.44.37-.88.69-1.38.96-.39.27-.8.18-1.02-.27-.27-.6-.68-.78-1.33-.51-.1.05-.15.06-.25.06-.81-.02-1.15.39-1.22,1.15-.04.2-.38.52-.54.47-.66-.03-1.37-.15-2.03-.33-.36-.09-.47-.39-.38-.69.23-.71,0-1.21-.71-1.49-.05,0-.1-.05-.15-.1-.52-.49-1.03-.57-1.56-.05-.29.31-.65.22-.91-.07-.37-.49-.69-.98-1.01-1.48-.27-.39-.13-.75.27-.92.64-.33.83-.79.5-1.43-.05-.1-.06-.15-.06-.25.03-.71-.29-1.05-1.05-1.07-.45.02-.67-.28-.63-.73.08-.56.16-1.17.29-1.72.08-.46.38-.67.84-.48.71.23,1.16-.04,1.44-.71.05-.05.1-.1.1-.15.48-.72.53-.72,0-1.46-.27-.39-.28-.75.12-1.01.44-.32.88-.69,1.38-.96.39-.27.75-.18.97.27.59.89.58.74,1.43.5.1,0,.15-.06.25-.06.7-.02,1.05-.29,1.07-1.05-.02-.45.33-.67.73-.63.56.08,1.11.16,1.67.29.71.18.77.38.65,1.19"/><path class="cls-2" d="m304.51,233.86c-.14,1.67,1.02,3.14,2.74,3.33,1.62.19,3.19-1.07,3.33-2.74s-1.07-3.19-2.69-3.33c-1.72-.19-3.19,1.07-3.38,2.74m1.69-6.26c.21.24.37.39.42.59.17.45.43.64.93.57.4-.01.81.02,1.22.16s.71.03.95-.34c.24-.41.59-.47,1-.24.52.38,1.04.77,1.5,1.16.31.24.32.59.08.85-.34.36-.28.72-.06,1.11.21.35.38.74.49,1.14.11.4.32.59.73.58.55-.02.77.33.74.83-.08.61-.11,1.21-.19,1.77-.09.41-.28.61-.74.53-.46-.08-.7.08-.94.49-.19.36-.48.72-.77,1.04-.29.31-.38.62-.17,1.01s.13.7-.27.92c-.6.27-1.19.55-1.79.77-.4.17-.65.02-.77-.38-.17-.45-.43-.64-.93-.57-.4.01-.81-.02-1.22-.16-.41-.09-.71-.03-.9.33-.29.46-.64.53-1.05.24-.52-.33-.98-.72-1.45-1.11-.31-.24-.37-.54-.08-.85.34-.36.33-.67.06-1.11-.21-.35-.38-.74-.49-1.14-.11-.4-.32-.59-.73-.58-.55.02-.77-.33-.74-.83.08-.61.16-1.27.24-1.87.04-.35.28-.51.64-.43.51.13.8-.08,1.09-.54.19-.36.43-.67.72-.98.24-.26.33-.57.17-.91-.27-.49-.13-.8.37-1.02.54-.42,1.18-.7,1.93-1.03"/><path class="cls-2" d="m315.21,254.25c-.19,1.72,1.02,3.14,2.79,3.33,1.62.14,3.14-1.07,3.28-2.69.14-1.67-1.07-3.19-2.74-3.33-1.72-.19-3.19,1.02-3.33,2.69m-.54-3.91c-.06-.2-.06-.4-.17-.55-.22-.4-.08-.7.27-.87.6-.27,1.24-.55,1.84-.77.35-.16.6-.02.72.38.17.5.43.64.93.67.4-.01.86.07,1.27.16.36.09.66.03.85-.33.29-.46.64-.48,1-.19.52.38.98.72,1.45,1.11.31.29.37.59.08.9s-.33.67-.06,1.06c.21.35.38.74.5,1.19.12.45.38.64.78.63.51.03.67.28.63.73-.08.61-.11,1.21-.19,1.77-.08.46-.33.72-.83.63-.41-.09-.65.07-.89.43-.24.36-.48.72-.82,1.04-.29.31-.38.57-.17.96.27.44.08.8-.37.97-.6.27-1.14.49-1.74.72-.35.16-.61-.03-.77-.38-.17-.5-.48-.69-.98-.67-.4.01-.76-.07-1.17-.16-.41-.09-.71-.03-.95.34s-.54.47-.9.18c-.57-.38-1.09-.77-1.61-1.2-.31-.24-.32-.54-.03-.86.39-.37.33-.77.06-1.21-.21-.29-.33-.69-.44-1.04-.12-.45-.33-.69-.78-.68-.51-.03-.67-.33-.63-.73.08-.66.15-1.32.28-1.93.09-.41.33-.52.69-.43.51.08.8-.08,1.04-.49.19-.36.53-.67.77-.99.15-.16.24-.26.34-.42"/></svg>