<?xml version="1.0" encoding="UTF-8"?><svg id="SSL_ILLUSTRATION" xmlns="http://www.w3.org/2000/svg" xmlns:xlink="http://www.w3.org/1999/xlink" viewBox="0 0 600 330"><defs><style>.cls-1{fill:#fff;}.cls-1,.cls-2,.cls-3,.cls-4,.cls-5,.cls-6,.cls-7,.cls-8,.cls-9{stroke-width:0px;}.cls-2{fill:#f60;}.cls-3{fill:url(#radial-gradient-2);}.cls-4{fill:url(#radial-gradient-7);}.cls-5{fill:url(#radial-gradient-5);}.cls-6{fill:url(#radial-gradient);}.cls-7{fill:url(#radial-gradient-6);}.cls-8{fill:url(#radial-gradient-3);}.cls-9{fill:url(#radial-gradient-4);}</style><radialGradient id="radial-gradient" cx="246.86" cy="68.59" fx="246.86" fy="68.59" r="37.8" gradientTransform="translate(3.6 342.84) rotate(-2.47) scale(1 -1)" gradientUnits="userSpaceOnUse"><stop offset="0" stop-color="#fff" stop-opacity="0"/><stop offset=".1" stop-color="#f3f3f3" stop-opacity=".03"/><stop offset=".29" stop-color="#d3d2d2" stop-opacity=".09"/><stop offset=".54" stop-color="#9f9e9e" stop-opacity=".16"/><stop offset=".84" stop-color="#595656" stop-opacity=".25"/><stop offset="1" stop-color="#2f2b2c" stop-opacity=".3"/></radialGradient><radialGradient id="radial-gradient-2" cx="185.08" cy="101.08" fx="185.08" fy="101.08" r="41.08" gradientTransform="translate(3.6 342.84) rotate(-2.47) scale(1 -1)" gradientUnits="userSpaceOnUse"><stop offset="0" stop-color="#fff" stop-opacity="0"/><stop offset=".1" stop-color="#f3f3f3" stop-opacity=".03"/><stop offset=".29" stop-color="#d3d2d2" stop-opacity=".09"/><stop offset=".54" stop-color="#9f9e9e" stop-opacity=".16"/><stop offset=".84" stop-color="#595656" stop-opacity=".25"/><stop offset="1" stop-color="#2f2b2c" stop-opacity=".3"/></radialGradient><radialGradient id="radial-gradient-3" cx="371.68" cy="97" fx="371.68" fy="97" r="39.5" gradientTransform="translate(3.6 342.84) rotate(-2.47) scale(1 -1)" gradientUnits="userSpaceOnUse"><stop offset="0" stop-color="#fff" stop-opacity="0"/><stop offset=".1" stop-color="#f3f3f3" stop-opacity=".03"/><stop offset=".29" stop-color="#d3d2d2" stop-opacity=".09"/><stop offset=".54" stop-color="#9f9e9e" stop-opacity=".16"/><stop offset=".84" stop-color="#595656" stop-opacity=".25"/><stop offset="1" stop-color="#2f2b2c" stop-opacity=".3"/></radialGradient><radialGradient id="radial-gradient-4" cx="509.34" cy="86.53" fx="509.34" fy="86.53" r="34.71" gradientTransform="translate(3.6 342.84) rotate(-2.47) scale(1 -1)" gradientUnits="userSpaceOnUse"><stop offset="0" stop-color="#fff" stop-opacity="0"/><stop offset=".1" stop-color="#f3f3f3" stop-opacity=".03"/><stop offset=".29" stop-color="#d3d2d2" stop-opacity=".09"/><stop offset=".54" stop-color="#9f9e9e" stop-opacity=".16"/><stop offset=".84" stop-color="#595656" stop-opacity=".25"/><stop offset="1" stop-color="#2f2b2c" stop-opacity=".3"/></radialGradient><radialGradient id="radial-gradient-5" cx="308.06" cy="69.78" fx="308.06" fy="69.78" r="39.01" gradientTransform="translate(3.6 342.84) rotate(-2.47) scale(1 -1)" gradientUnits="userSpaceOnUse"><stop offset="0" stop-color="#fff" stop-opacity="0"/><stop offset=".1" stop-color="#f3f3f3" stop-opacity=".03"/><stop offset=".29" stop-color="#d3d2d2" stop-opacity=".09"/><stop offset=".54" stop-color="#9f9e9e" stop-opacity=".16"/><stop offset=".84" stop-color="#595656" stop-opacity=".25"/><stop offset="1" stop-color="#2f2b2c" stop-opacity=".3"/></radialGradient><radialGradient id="radial-gradient-6" cx="111.43" cy="80.49" fx="111.43" fy="80.49" r="49.68" gradientTransform="translate(3.6 342.84) rotate(-2.47) scale(1 -1)" gradientUnits="userSpaceOnUse"><stop offset="0" stop-color="#fff" stop-opacity="0"/><stop offset=".1" stop-color="#f3f3f3" stop-opacity=".03"/><stop offset=".29" stop-color="#d3d2d2" stop-opacity=".09"/><stop offset=".54" stop-color="#9f9e9e" stop-opacity=".16"/><stop offset=".84" stop-color="#595656" stop-opacity=".25"/><stop offset="1" stop-color="#2f2b2c" stop-opacity=".3"/></radialGradient><radialGradient id="radial-gradient-7" cx="442.57" cy="61.37" fx="442.57" fy="61.37" r="49.68" gradientTransform="translate(3.6 342.84) rotate(-2.47) scale(1 -1)" gradientUnits="userSpaceOnUse"><stop offset="0" stop-color="#fff" stop-opacity="0"/><stop offset=".1" stop-color="#f3f3f3" stop-opacity=".03"/><stop offset=".29" stop-color="#d3d2d2" stop-opacity=".09"/><stop offset=".54" stop-color="#9f9e9e" stop-opacity=".16"/><stop offset=".84" stop-color="#595656" stop-opacity=".25"/><stop offset="1" stop-color="#2f2b2c" stop-opacity=".3"/></radialGradient></defs><rect class="cls-2" width="600" height="330"/><path class="cls-6" d="m221.19,221.69l48.45-2.09c4.04-.17,7.53,2.96,7.71,7.07l3.07,71.32c.17,4.04-2.96,7.53-7.07,7.71l-48.45,2.09c-4.04.17-7.53-2.96-7.71-7.07l-3.07-71.32c-.18-4.11,2.96-7.53,7.07-7.71Z"/><path class="cls-1" d="m219.24,220.09l48.45-2.09c4.04-.17,7.53,2.96,7.71,7.07l3.07,71.32c.17,4.04-2.96,7.53-7.07,7.71l-48.45,2.09c-4.04.17-7.53-2.96-7.71-7.07l-3.07-71.32c-.18-4.11,2.96-7.53,7.07-7.71Z"/><path class="cls-2" d="m252.85,243.23l-12.76.55c-.7.03-1.27-.29-1.5-.84-.24-.62-.13-1.46.34-1.83.34-.22.75-.38,1.17-.4,4.53-.2,9.13-.39,13.66-.59l11.57-.5c1.12-.05,1.7.49,1.74,1.53.04.84-.49,1.49-1.4,1.53l-6.07.26c-2.23.1-4.53.2-6.76.29h0Z"/><path class="cls-2" d="m253.53,258.99c-4.11.18-8.23.35-12.34.53-.35.02-.7.03-1.05-.02-.71-.18-1.08-.86-.98-1.63.04-.7.57-1.28,1.27-1.31.62-.1,1.19-.05,1.81-.08,7.88-.34,15.76-.68,23.63-1.02,1.12-.05,1.77.48,1.81,1.46.04.91-.49,1.56-1.47,1.6l-7.11.31c-1.82,0-3.7.09-5.58.17"/><path class="cls-2" d="m254.21,274.67l-12.69.55c-1.12.05-1.78-.69-1.61-1.82.11-.7.58-1.21,1.41-1.25l2.44-.11c7.6-.33,15.27-.66,22.87-.99.35-.02.7.04,1.05.16.64.25.95,1.01.84,1.71-.11.7-.65,1.15-1.42,1.18l-8.23.35-4.67.2h0Z"/><path class="cls-2" d="m228.85,274.65h0l-2.16.09c-.91.04-2.06.72-1.93,2.11.13,1.32.11,2.65.17,3.97.05,1.25.93,2.06,2.18,2l3.97-.17c1.19-.05,1.93-.71,1.87-1.9,0-1.54-.06-3.07-.2-4.6-.11-.97-.84-1.57-1.88-1.6-.63.03-1.32.06-2.02.09m6.03,3.79l.09,2.16c.09,2.02-1.24,3.69-3.18,3.91-1.74.21-3.55.29-5.37.23-1.89-.06-3.36-1.74-3.44-3.62l-.18-4.25c-.09-2.09,1.3-3.83,3.39-4.06,1.74-.14,3.41-.22,5.16-.22,1.75,0,3.28,1.53,3.43,3.34l.11,2.51h0Z"/><path class="cls-2" d="m228.17,258.96h0c-.76.1-1.46.06-2.23.17-1.25.05-1.92.85-1.87,2.04l.17,4.04c.05,1.19.99,1.98,2.18,2l4.11-.18c.77-.03,1.31-.41,1.63-1.19.12-.35.18-.78.16-1.12l-.17-3.97c0-.21-.02-.42-.1-.62-.17-.76-.96-1.29-1.66-1.26-.77.03-1.46.06-2.23.1m5.95,3.65c.04.98.23,2.02.13,3-.2,1.75-1.47,3.07-3.21,3.21-1.67.14-3.41.22-5.09.15-1.89-.06-3.43-1.74-3.58-3.62-.06-1.32-.05-2.72-.17-4.04-.17-2.44,1.71-3.99,3.45-4.13,1.67-.14,3.41-.22,5.09-.22,1.82,0,3.28,1.47,3.43,3.34l.1,2.3h-.14"/><path class="cls-2" d="m230.91,241.31c-.53.58-.93,1.09-1.47,1.6-.07.07-.27.15-.48.16l-3.56.15c-1.32.06-2.06.86-2,2.18l.17,3.9c.05,1.25.93,2.06,2.18,2l3.97-.17c1.25-.05,1.99-.78,1.94-2.04l-.07-1.67c0-.14.05-.35.12-.42.53-.58,1.06-1.23,1.66-1.89.08.21.08.28.08.35l.16,3.7c.02,2.02-1.31,3.69-3.32,3.91-1.67.14-3.34.21-5.02.22-1.96-.06-3.5-1.74-3.65-3.68l-.19-4.32c-.08-1.81,1.31-3.62,3.12-3.77,1.88-.22,3.76-.16,5.65-.24.21-.08.42-.02.7.04"/><path class="cls-2" d="m247.55,264.55l-6.55.28c-1.25.05-2.01-1.24-1.43-2.31.26-.5.74-.73,1.29-.75l9.41-.41,3.56-.15c1.05-.05,1.7.49,1.74,1.46s-.56,1.56-1.61,1.61c-2.16.09-4.32.19-6.41.28"/><path class="cls-2" d="m246.74,245.59l6.48-.28c.91-.04,1.56.49,1.6,1.4.04.98-.49,1.63-1.46,1.67-4.39.19-8.71.38-13.11.56-.91.04-1.56-.56-1.6-1.54-.04-.91.56-1.49,1.47-1.53l6.62-.29"/><path class="cls-2" d="m248.09,277.1l6.48-.28c.98-.04,1.63.49,1.67,1.46s-.56,1.63-1.53,1.67c-4.32.19-8.65.37-12.97.56-1.19.05-1.93-1.03-1.56-2.17.25-.64.73-.94,1.36-.97l6.55-.28"/><path class="cls-2" d="m227.51,246.84c.46-.58.93-1.02,1.33-1.52,1.33-1.45,2.67-2.98,4.07-4.44.33-.36.68-.45,1.11-.26.43.19.65.53.6.95-.06.21-.12.49-.32.64-2,2.18-3.93,4.36-5.93,6.54-.47.51-.95.53-1.46.06s-.95-.87-1.45-1.33c-.44-.4-.46-.96-.06-1.39.4-.37.96-.39,1.39-.06.29.27.51.54.73.81"/><path class="cls-3" d="m151.27,200.9s-6.63,1.82-4.8,8.45l17.96,64.95s1.82,6.63,8.45,4.8l44.18-12.24s6.63-1.82,4.8-8.45l-17.96-64.95s-1.82-6.63-8.45-4.8c0,0-44.18,12.24-44.18,12.24Z"/><path class="cls-1" d="m149.31,199.31s-6.63,1.82-4.8,8.45l17.96,64.95s1.82,6.63,8.45,4.8l44.18-12.24s6.63-1.82,4.8-8.45l-17.89-64.96s-1.82-6.63-8.45-4.8c-.07,0-44.25,12.24-44.25,12.24Z"/><path class="cls-2" d="m178.55,242.48c.29-1.41.51-2.75.73-4.15.11-.7.44-1.21,1.06-1.44.21-.08.13-.22.19-.36.42-3.16.78-6.32,1.2-9.48.31-2.53.62-4.99.93-7.51.06-.28.12-.35.34-.29.28.06.63.11.91.1s.35.12.3.41c-.64,4.71-1.2,9.48-1.83,14.19-.1.91-.2,1.82-.37,2.74-.06.21.02.35.16.48.51.4.67,1.02.56,1.65-.45,2.53-.9,5.07-1.35,7.6-.29,1.41-1.52,1.95-2.81,1.17-.72-.46-1.23-1.06-1.82-1.6-.51-.47-1.09-.93-1.53-1.47-.22-.2-.36-.26-.63-.04q-.48.3-.25.78c.83,1.43,1.66,2.93,2.49,4.36.68,1.16,1.36,2.32,2.04,3.54.15.2.15.34-.12.49-4.09,2.27-8.18,4.61-12.27,6.95-.2.15-.35.08-.42-.12-1.74-3.14-3.48-6.21-5.22-9.34-.61-1.09-.94-2.26-.71-3.46.22-1.34.95-2.28,1.97-3.02,1.02-.74,2.11-1.21,3.13-1.81,1.43-.83,2.93-1.66,4.36-2.49,2.59-1.44,5.54-1.08,7.66,1,.5.33.87.66,1.31,1.13"/><path class="cls-2" d="m174.46,215.48c5.59-3.17,11.11-6.28,16.71-9.45.89-.53,1.74-.14,2.12.61,5.29,9.41,10.66,18.82,15.95,28.23.53.89.28,1.59-.61,2.12-8.73,4.92-17.39,9.83-26.12,14.75-.27.15-.41.16-.57-.19-.31-.62-.61-1.16-.98-1.7-.08-.14-.08-.28.12-.35.07,0,.14-.08.27-.15,8.18-4.61,16.43-9.3,24.62-13.91.48-.23.41-.16.18-.64-4.84-8.52-9.6-16.98-14.44-25.5-.15-.27-.36-.33-.64-.18-10.23,5.82-20.53,11.57-30.75,17.39-.48.23-.41.16-.18.64.45.75.83,1.5,1.28,2.25.15.2.08.35-.12.42-.62.31-1.16.68-1.77.98-.21.08-.28.08-.42-.12-.68-1.3-1.44-2.52-2.12-3.82-.38-.75-.2-1.46.55-1.91,5.66-3.11,11.32-6.29,16.92-9.46"/><path class="cls-2" d="m162.01,232.99c2.18-1.28,5.01-.5,6.29,1.68,1.28,2.18.5,5.01-1.75,6.29-2.18,1.21-5.01.43-6.22-1.76-1.35-2.18-.56-5,1.69-6.22"/><path class="cls-8" d="m341.53,191.1s-7.08.93-6.15,8.02l9.15,69.73s.93,7.08,8.02,6.15l47.44-6.23s7.08-.93,6.15-8.02l-9.15-69.73s-.93-7.08-8.02-6.15c-.07.07-47.44,6.23-47.44,6.23Z"/><path class="cls-1" d="m339.58,189.51s-7.08.93-6.15,8.02l9.15,69.73s.93,7.08,8.02,6.15l47.44-6.23s7.08-.93,6.15-8.02l-9.15-69.73s-.93-7.08-8.02-6.15c0,.07-47.44,6.23-47.44,6.23Z"/><path class="cls-2" d="m369.54,239.77h0c.49-.02.97-.11,1.53-.07.49.05.69-.17.81-.73.44-2.67,1.46-5.09,3.26-7.13.93-1.02,1.65-2.24,2.37-3.45,1.03-1.93,1.36-4.04.85-6.32-1.55-6.78-8.83-10.45-14.92-7.46-4.38,2.14-6.6,7.41-5.13,12.17.73,2.27,2.21,4.17,4.01,5.62,2.32,1.93,3.96,4.3,4.99,7.12.08.28.23.41.5.33.56-.02,1.12-.05,1.74-.08m5.51,3.05c-3.41.22-6.83.43-10.1.64-.25-1.04-.44-2.08-.76-3.04-.64-1.93-1.76-3.56-3.35-4.88-2.32-1.93-4.3-4.15-5.47-6.96-2.35-5.91-.2-12.84,5.17-16.29,7.95-5.16,18.91-.54,21.06,9.01.86,3.67.23,7.04-1.73,10.13-.66,1.01-1.31,2.01-2.18,2.89-1.73,1.89-2.41,4.15-2.58,6.68-.05.56-.02,1.19-.06,1.82"/><path class="cls-2" d="m374.39,253.39c-.22,1.41-.55,1.77-1.95,1.83-.98.04-1.88.15-2.86.19-1.25.05-1.76-.34-2.09-1.52-1.27-.29-1.78-.76-1.89-1.73-.04-.98.49-1.7,1.39-1.74,2.37-.17,4.73-.34,7.11-.45.84-.04,1.56.56,1.67,1.39.18.9-.21,1.69-1.03,1.93-.07,0-.21.08-.35.08"/><path class="cls-2" d="m342.61,227.45c-.12-1.18-.24-2.22-.29-3.41,3.41-.22,6.83-.43,10.24-.65.12,1.11.24,2.22.29,3.41-3.41.22-6.83.43-10.24.65"/><path class="cls-2" d="m393.72,220.63c.12,1.11.24,2.22.28,3.34-3.41.22-6.76.43-10.24.65-.12-1.11-.24-2.22-.28-3.34,3.42-.15,6.83-.36,10.24-.65"/><path class="cls-2" d="m370.47,248.39c-1.12.05-2.16.16-3.27.21-1.19.05-1.91-.48-2.02-1.59-.11-1.04.55-1.77,1.67-1.82,2.23-.17,4.46-.33,6.62-.42,1.32-.06,2.21.95,1.85,2.3-.18.71-.72,1.08-1.49,1.18-1.12-.02-2.23.1-3.35.14"/><path class="cls-2" d="m355.89,211.37c-.66.8-1.33,1.59-2.06,2.39-2.18-1.93-4.43-3.86-6.6-5.72.66-.8,1.33-1.59,1.99-2.46,2.25,1.93,4.5,3.86,6.68,5.79"/><path class="cls-2" d="m380.36,212.06c-.8-.73-1.67-1.39-2.47-2.13,1.86-2.18,3.65-4.42,5.51-6.59.8.66,1.6,1.4,2.4,2.13-1.72,2.17-3.58,4.35-5.44,6.59"/><path class="cls-2" d="m358.51,238.22c-1.8,2.1-3.58,4.35-5.45,6.45-.8-.73-1.67-1.46-2.54-2.2,1.8-2.1,3.58-4.35,5.45-6.52.87.73,1.67,1.46,2.54,2.27"/><path class="cls-2" d="m380.3,236.65c.66-.8,1.39-1.67,2.19-2.61,2.18,1.93,4.43,3.86,6.61,5.79-.73.87-1.46,1.74-2.13,2.54-2.25-1.86-4.42-3.79-6.67-5.72"/><path class="cls-2" d="m368.39,208.24c-1.12.05-2.16.16-3.27.21-.24-2.29-.4-4.52-.65-6.89,1.12-.05,2.16-.16,3.27-.21.17,2.3.41,4.59.65,6.89"/><path class="cls-9" d="m483.06,200.3s-6.25.83-5.42,7.08l8.02,61.26s.83,6.25,7.08,5.42l41.68-5.43s6.25-.83,5.42-7.08l-8.02-61.26s-.83-6.25-7.08-5.42c0,0-41.68,5.43-41.68,5.43Z"/><path class="cls-1" d="m481.1,198.71s-6.25.83-5.42,7.08l8.02,61.26s.83,6.25,7.08,5.42l41.68-5.43s6.25-.83,5.42-7.08l-8.02-61.26s-.83-6.25-7.08-5.42l-41.68,5.43Z"/><path class="cls-2" d="m513.66,257.17l-10,1.34-1.34-10,10-1.34,1.34,10Zm-23.26-45.38c3.55-1.9,7.21-2.96,10.82-3.4,9.45-1.25,16.01,1.96,17.14,10.44.53,4.1-.46,7.21-3.99,12.74-3.41,5.18-3.67,7.14-3.35,9.85l.09.55-9.1,1.16-.11-.83c-.61-4.37-.14-6.49,3.51-12.65,1.89-3.15,2.77-5.43,2.46-7.86-.52-4.03-3.58-5.36-7.82-4.83-2.78.4-5.6,1.43-8.11,3.07l-1.54-8.25h0Z"/><path class="cls-5" d="m301.23,219.03s-5.75-2.06-7.8,3.69l-20.06,56.53s-2.06,5.75,3.69,7.8l38.45,13.64s5.75,2.06,7.8-3.69l20.06-56.53s2.06-5.75-3.69-7.8l-38.45-13.64Z"/><path class="cls-1" d="m299.28,217.44s-5.75-2.06-7.8,3.69l-20.06,56.53s-2.06,5.75,3.69,7.8l38.45,13.64s5.75,2.06,7.8-3.69l20.06-56.53s2.06-5.75-3.69-7.8c0,0-38.45-13.64-38.45-13.64Z"/><path class="cls-2" d="m283.98,269.23c.85.31,1.63.56,2.55.94-.13.28-.19.5-.25.71-.5,1.42-1,2.77-1.5,4.19-.31.92,0,1.61.92,1.92,8.37,2.99,16.67,5.92,25.04,8.91.99.38,1.61.07,1.99-.92.56-1.56,1.12-3.19,1.75-4.83.85.31,1.63.56,2.48.87-.06.14-.06.28-.12.42-.56,1.49-1.06,3.05-1.62,4.54-.81,2.27-3,3.34-5.27,2.53-8.44-2.99-16.88-5.98-25.32-8.97-1.77-.62-2.75-2.12-2.76-4l-.02-.49,2.12-5.82h0Z"/><path class="cls-2" d="m313.75,250.2c-1.13-.37-2.13.86-3.44,4.55-1.18,3.33-1.18,5.01-.04,5.45,1.13.37,2.13-.86,3.38-4.27,1.3-3.76,1.24-5.36.1-5.73"/><path class="cls-2" d="m309.39,262.47c-3.19-1.12-3.75-4.38-2.13-8.99,1.62-4.54,4.11-6.74,7.37-5.63,3.26,1.19,3.61,4.45,1.99,8.99-1.55,4.61-3.9,6.8-7.23,5.62m-6.26-2.52l-3.19-1.12,2.68-7.52c.44-1.21,1.07-2.7,1.32-3.41h-.07c-.55.24-1.65.56-2.89.97l-.47-2.77,4.77-1.18,2.84,1-4.98,14.04h0Zm23.64,4.08c-1.5-.7-3.06-1.27-4.62-1.83-1.35-.5-2.7-1-4.26-1.49.19-.57.38-.99.5-1.42,1.87-5.25,3.67-10.5,5.61-15.75.81-2.27.79-4.43-.56-6.47-.6-.95-1.54-1.68-2.34-2.48-3.69-1.31-7.45-2.61-11.14-3.99-.14,0-.21.08-.35.08-4.12-.03-6.22,1.46-7.66,5.36-1.81,5.11-3.61,10.28-5.48,15.39-.12.42-.31.85-.5,1.42-.57-.19-.99-.38-1.42-.5-2.48-.8-4.96-1.67-7.44-2.4-1.13-.37-1.6.14-1.27,1.31.24.76.56,1.58.94,2.33,3.3,6.98,6.61,13.96,9.98,20.94.46.89.98,1.77,1.58,2.66.6.88,1.45,1.13,2.49.94.55-.16,1.17-.33,1.65-.56,7.73-3.69,15.47-7.3,23.21-10.99.41-.23.82-.45,1.22-.75.8-.8.78-1.43-.15-1.81"/><path class="cls-7" d="m87.4,203.52s-8.7-.81-9.51,7.88l-8.27,85.22s-.81,8.7,7.88,9.51l58.01,5.6s8.7.81,9.51-7.88l8.27-85.22s.81-8.7-7.88-9.51l-58.01-5.6h0Z"/><path class="cls-1" d="m85.51,201.92s-8.7-.81-9.51,7.88l-8.27,85.22s-.81,8.7,7.88,9.51l58.01,5.6s8.7.81,9.51-7.88l8.21-85.15s.81-8.7-7.88-9.51l-57.94-5.68h0Z"/><path class="cls-2" d="m88.58,281.14c11.72,1.38,23.52,2.69,35.24,4,1.57-13.76,3.15-27.45,4.72-41.13-11.79-1.38-23.45-2.69-35.24-4-1.58,13.69-3.16,27.24-4.72,41.13m11.88-51.71c-.23,4.48,1.32,6.3,5.46,6.82,3.79.47,7.65.86,11.44,1.32,3.72.4,5.68-1.01,6.43-4.82.06-.14.13-.28.19-.43,2.6.31,5.19.41,7.72.92,2.19.46,3.04,2.38,2.73,4.91-1.53,13.2-2.98,26.39-4.51,39.59-.3,2.88-.66,5.69-.96,8.56-.35,3.16-2.04,4.49-5.13,4.13-12.07-1.37-24.15-2.73-36.29-4.16-3.09-.36-4.35-1.98-4.06-4.99,1.82-16.21,3.7-32.5,5.58-48.72.36-3.02,1.85-4.13,4.79-3.84,2.17.19,4.35.44,6.6.69"/><path class="cls-2" d="m111.83,274.55c2.46.31,4.99.62,7.44.87,1.05.09,1.63.49,1.47,1.68s-.7,1.57-1.9,1.41c-4.92-.63-9.83-1.18-14.74-1.67-1.05-.09-1.76-.41-1.61-1.75.15-1.4.91-1.58,2.03-1.41,2.39.32,4.84.56,7.3.87,0-.07,0,0,0,0"/><path class="cls-2" d="m113.04,265.28c2.46.31,4.84.56,7.3.8,1.05.09,1.63.49,1.47,1.68-.16,1.19-.7,1.57-1.9,1.41-4.91-.56-9.83-1.11-14.74-1.67-1.05-.09-1.76-.41-1.61-1.68.15-1.4.91-1.58,2.03-1.41,2.46.31,4.98.55,7.44.87h0"/><path class="cls-2" d="m113.51,260.02c-2.53-.31-5.06-.62-7.58-.86-.98-.1-1.49-.49-1.4-1.62.09-1.12.63-1.49,1.76-1.4,5.06.62,10.11,1.17,15.23,1.72,1.05.09,1.42.57,1.26,1.62-.09,1.05-.57,1.42-1.62,1.33-2.59-.24-5.12-.48-7.65-.79"/><path class="cls-2" d="m115.01,247.8c2.46.31,4.99.62,7.44.87.98.1,1.49.56,1.33,1.62-.1.98-.56,1.49-1.62,1.4-5.13-.62-10.25-1.17-15.37-1.78-1.05-.09-1.42-.64-1.26-1.69.09-1.05.64-1.42,1.69-1.26,2.59.24,5.19.54,7.79.85"/><path class="cls-2" d="m99.14,247.5c1.14-1.03,2.22-2.05,3.3-2.94.34-.29.97-.11,1.46-.2-.12.49-.09,1.12-.43,1.42-1.14,1.17-2.42,2.27-3.63,3.37-.6.58-1.16.54-1.68-.07-.52-.61-1.24-1.13-1.68-1.81-.22-.34-.04-.91-.06-1.32.42.05.91-.04,1.19.16.57.32.95.87,1.53,1.4"/><path class="cls-2" d="m97.12,265.4c1.21-1.03,2.22-2.05,3.37-2.94.34-.22.97-.11,1.46-.13-.12.42-.09,1.05-.36,1.34-1.2,1.24-2.41,2.41-3.76,3.44-.34.22-1.1.33-1.46.06-.72-.53-1.38-1.27-1.9-1.94-.22-.27-.11-.83-.12-1.25.42.05.97-.11,1.33.08.5.26.87.8,1.45,1.33"/><path class="cls-2" d="m98.14,256.7c1.14-1.03,2.08-1.98,3.16-2.79.41-.3,1.04-.25,1.59-.42-.12.49-.16,1.19-.49,1.56-1.14,1.17-2.28,2.26-3.56,3.23-.34.29-1.25.26-1.68,0-.72-.46-1.31-1.13-1.83-1.88-.22-.27-.04-.84.02-1.26.42-.02.9-.11,1.19.09.57.32,1.02.86,1.6,1.47"/><path class="cls-2" d="m96.1,274.25c1.08-.95,2.08-1.91,3.16-2.79.41-.3,1.04-.25,1.52-.41-.19.57-.16,1.26-.56,1.63-1.07,1.09-2.28,2.12-3.36,3.15-.67.59-1.16.68-1.82-.06-.52-.61-1.16-1.07-1.61-1.68-.22-.34-.11-.97-.13-1.46.42.05.98.03,1.34.22.58.39.95.94,1.46,1.4"/><path class="cls-2" d="m118.9,229.47c-1.69-.28-2.57-1.22-2.78-2.88-.21-1.67-1.6-3-3.14-3.08-1.61-.14-3.1.9-3.6,2.39-.49,1.56-1.58,2.3-3.12,2.09-2.03-.19-3.46.78-3.66,2.6-.27,1.83.83,3.11,2.94,3.44,2.04.26,4.14.52,6.25.71,2.18.26,4.36.58,6.53.7,1.96.13,3.24-.98,3.44-2.73.07-1.68-1.04-2.96-2.86-3.23"/><path class="cls-4" d="m419.06,208.37s-8.7-.81-9.51,7.88l-8.27,85.22s-.81,8.7,7.88,9.51l58.01,5.6s8.7.81,9.51-7.88l8.27-85.22s.81-8.7-7.88-9.51l-58.01-5.6h0Z"/><path class="cls-1" d="m417.11,206.77s-8.7-.81-9.51,7.88l-8.27,85.22s-.81,8.7,7.88,9.51l58.01,5.6s8.7.81,9.51-7.88l8.21-85.15s.81-8.7-7.88-9.51l-57.94-5.68h0Z"/><path class="cls-2" d="m422.99,273.58c4.37,7.29,12.05,7.3,16.97,1.64,1.93,1.03,3.93,2.07,5.93,3.17,1.36.78,2.79,1.63,3.95,2.62,2.89,2.32,4.01,5.62,4.59,9.16.2,1.39.19,2.86.26,4.32.03.63-.31.99-.93,1.16-2.9.82-5.81,1.23-8.81,1.36-7.46.32-14.82-.2-22.2-1.28-5.34-.82-10.7-1.84-15.68-4-.57-.25-1.21-.51-1.79-.9-.29-.2-.52-.61-.46-.89.83-5.06,2.59-9.54,7.15-12.46,1.09-.68,2.26-1.14,3.5-1.55,2.48-.81,5.03-1.54,7.51-2.35"/><path class="cls-2" d="m442.89,268.6c-.06.14-.13.22-.2.29-1.41,1.32-2.31,3.03-3.29,4.61-.85,1.43-2.13,2.54-3.56,3.3-3.41,1.89-7.14,1.22-9.85-1.67-1.46-1.54-2.31-3.39-2.82-5.4-.09-.42-.24-.76-.54-1.09-1.49-2.17-2.36-4.51-1.92-7.18.1-.84.35-1.62,1.09-2.14.2-.15.26-.43.32-.71.21-1.55.29-3.09.64-4.57.47-2.05,1.65-3.77,3.12-5.3.27-.22.54-.51.88-.67,3.56-1.76,7.26-1.78,11.01-.54-.44,1.07-.33,1.97.26,2.85-.18.71-.59,1-1.36.97-1.05-.09-1.86.57-2.16,1.63-.23,1.06-.46,2.19-.42,3.23.04.98.63,1.65,1.69,1.88.28.06.51.47.66.74.08.21-.11.63-.32.78-.94.88-1.18,1.8-.57,2.89.53.89,1.2,1.83,1.93,2.57.8.73,1.64.77,2.52.17.41-.23.62-.17.98.03.36.19.44.4.38.82-.02,1.12.43,1.94,1.51,2.52"/><path class="cls-2" d="m451.47,256.98c.3-2.67-1.61-5.03-4.28-5.33-2.74-.3-5.1,1.62-5.4,4.28-.31,2.6,1.69,5.1,4.35,5.4,2.67.3,5.03-1.61,5.33-4.35m-1.11-9.66c-.25.57.05,1.05.68,1.3.07.07.21.06.28.13.87.73,1.72,1.04,2.66.09.13-.15.84-.04.99.17.58.6,1.03,1.28,1.48,1.96.37.54.18.97-.36,1.34q-.95.67-.69,1.92c0,.14.08.21.08.35-.02,1.05.55,1.51,1.54,1.61.56.05.86.45.81.94-.1.84-.21,1.62-.38,2.46-.12.56-.59.79-1.16.68q-1.2-.23-1.85.85c-.06.14-.13.28-.26.36-.74.66-.71,1.36-.05,2.1.44.47.32.96-.15,1.33-.61.52-1.22.96-1.9,1.34-.54.37-1.11.26-1.41-.36-.38-.82-.95-1.08-1.85-.69-.14.08-.21.08-.35.08-1.12-.02-1.58.56-1.68,1.61-.06.28-.53.72-.74.66-.91-.03-1.89-.2-2.81-.44-.49-.12-.65-.53-.53-.95.31-.99,0-1.68-1-2.05-.07,0-.14-.06-.22-.13-.73-.67-1.43-.78-2.17-.05-.4.44-.89.32-1.26-.09-.52-.68-.97-1.36-1.41-2.03-.37-.54-.18-1.04.36-1.27.89-.46,1.14-1.1.68-1.99-.08-.14-.08-.21-.08-.35.03-.98-.41-1.45-1.46-1.47-.63.03-.92-.38-.88-1.01.11-.77.21-1.62.39-2.39.11-.63.52-.93,1.16-.68.99.31,1.6-.07,1.98-.99.07-.07.13-.15.13-.22.66-1.01.72-1.01-.02-2.02-.37-.54-.39-1.03.15-1.4.61-.45,1.22-.96,1.9-1.34.54-.37,1.04-.25,1.34.36.82,1.22.81,1.01,1.99.68.14,0,.21-.08.35-.08.98-.04,1.45-.41,1.47-1.46-.03-.63.45-.93,1.01-.88.77.11,1.55.21,2.32.39.99.24,1.07.51.91,1.64"/><path class="cls-2" d="m445.53,235.93c-.18,2.31,1.44,4.34,3.83,4.58,2.25.25,4.4-1.52,4.58-3.83s-1.52-4.4-3.76-4.59c-2.39-.25-4.41,1.52-4.65,3.83m2.28-8.69c.29.34.51.54.59.81.24.62.6.88,1.29.78.56-.02,1.12.02,1.69.21.57.19.98.03,1.31-.48.32-.57.81-.66,1.38-.34.72.53,1.44,1.06,2.09,1.59.43.33.45.82.12,1.18-.47.51-.38.99-.07,1.54.3.48.53,1.02.7,1.58.16.55.45.82,1.01.79.77-.03,1.07.44,1.03,1.14-.1.84-.14,1.68-.24,2.46-.12.56-.38.85-1.02.74-.63-.11-.97.11-1.3.68-.26.5-.66,1.01-1.06,1.44-.4.44-.52.86-.22,1.41.3.55.18.97-.36,1.27-.82.38-1.64.77-2.47,1.08-.55.23-.91.04-1.07-.51-.24-.62-.6-.88-1.29-.78-.56.02-1.12-.02-1.69-.21-.56-.12-.98-.03-1.24.47-.39.65-.88.74-1.45.34-.72-.46-1.37-.99-2.02-1.52-.43-.33-.52-.75-.12-1.18.47-.51.45-.93.07-1.54-.3-.48-.53-1.02-.7-1.58-.16-.55-.45-.82-1.01-.79-.77.03-1.07-.44-1.03-1.14.1-.84.2-1.75.31-2.6.05-.49.39-.72.88-.6.71.18,1.11-.12,1.5-.76.26-.5.59-.93.99-1.37.33-.36.46-.79.22-1.27-.38-.68-.19-1.11.5-1.42.74-.59,1.63-.98,2.66-1.44"/><path class="cls-2" d="m460.57,264.06c-.25,2.39,1.44,4.34,3.9,4.58,2.24.18,4.34-1.51,4.52-3.76.18-2.31-1.52-4.4-3.83-4.58-2.39-.25-4.41,1.45-4.59,3.76m-.79-5.41c-.08-.28-.09-.55-.24-.76-.3-.55-.11-.97.37-1.2.82-.38,1.71-.77,2.54-1.09.48-.23.84-.04,1,.52.24.69.6.88,1.3.92.56-.02,1.19.09,1.75.2.49.12.91.03,1.17-.47.39-.65.88-.67,1.39-.27.72.53,1.37.99,2.02,1.52.44.4.52.82.12,1.25-.4.44-.45.93-.08,1.47.3.48.53,1.02.7,1.65.17.62.53.89,1.08.86.7.04.92.38.88,1.01-.1.84-.14,1.68-.24,2.46-.11.63-.45,1-1.15.89-.56-.12-.9.11-1.23.61-.33.5-.66,1.01-1.13,1.45-.4.44-.52.79-.22,1.34.38.61.12,1.11-.5,1.35-.82.38-1.58.7-2.4,1.01-.48.23-.84-.03-1.07-.51-.24-.69-.67-.95-1.37-.92-.56.02-1.05-.09-1.62-.21-.56-.12-.98-.03-1.31.48-.33.5-.74.66-1.25.26-.79-.52-1.51-1.05-2.24-1.65-.43-.33-.45-.75-.05-1.19.54-.51.44-1.07.07-1.68-.3-.41-.46-.96-.62-1.44-.17-.62-.46-.96-1.09-.93-.7-.04-.93-.45-.88-1.01.1-.91.2-1.82.37-2.67.12-.56.46-.72.95-.6.7.11,1.11-.12,1.44-.69.26-.5.73-.94,1.06-1.37.2-.22.33-.36.46-.58"/></svg>