<?xml version="1.0" encoding="utf-8"?>
<!-- Generator: Adobe Illustrator 27.9.0, SVG Export Plug-In . SVG Version: 6.00 Build 0)  -->
<!DOCTYPE svg PUBLIC "-//W3C//DTD SVG 1.1//EN" "http://www.w3.org/Graphics/SVG/1.1/DTD/svg11.dtd" [
	<!ENTITY ns_extend "http://ns.adobe.com/Extensibility/1.0/">
	<!ENTITY ns_ai "http://ns.adobe.com/AdobeIllustrator/10.0/">
	<!ENTITY ns_graphs "http://ns.adobe.com/Graphs/1.0/">
	<!ENTITY ns_vars "http://ns.adobe.com/Variables/1.0/">
	<!ENTITY ns_imrep "http://ns.adobe.com/ImageReplacement/1.0/">
	<!ENTITY ns_sfw "http://ns.adobe.com/SaveForWeb/1.0/">
	<!ENTITY ns_custom "http://ns.adobe.com/GenericCustomNamespace/1.0/">
	<!ENTITY ns_adobe_xpath "http://ns.adobe.com/XPath/1.0/">
]>
<svg version="1.1" id="SSL_ILLUSTRATION" xmlns:x="&ns_extend;" xmlns:i="&ns_ai;" xmlns:graph="&ns_graphs;"
	 xmlns="http://www.w3.org/2000/svg" xmlns:xlink="http://www.w3.org/1999/xlink" x="0px" y="0px" width="2560px" height="520px"
	 viewBox="0 0 2560 520" style="enable-background:new 0 0 2560 520;" xml:space="preserve">
<style type="text/css">
	.st0{fill:#FF6600;}
	.st1{opacity:0.43;}
	.st2{clip-path:url(#SVGID_00000018950511326525065560000017513588364245588366_);}
	.st3{fill:#FFFFFF;}
	.st4{clip-path:url(#SVGID_00000073715763713515316660000009233388486043829898_);}
	.st5{fill:#E5E8E8;}
	.st6{clip-path:url(#SVGID_00000131350351428294141570000002075530673841834419_);}
	.st7{fill:#F27021;}
	.st8{fill:#F2F2F2;}
	.st9{clip-path:url(#SVGID_00000080926633435981079940000008528771341406126243_);}
	.st10{fill:#E6E7E8;}
	.st11{fill:#F1F2F2;}
	.st12{clip-path:url(#SVGID_00000178883140208143588560000010048224292046851727_);}
	.st13{clip-path:url(#SVGID_00000153690215953898068520000011022602254219132335_);}
	.st14{clip-path:url(#SVGID_00000063616317270856024790000017061126704867093923_);}
	.st15{fill:url(#SVGID_00000176001753447154699280000002029111540685888404_);}
	.st16{fill:url(#SVGID_00000045595759647185864540000008907258774178845597_);}
	.st17{fill:url(#SVGID_00000036949565476950680090000012716926431185438626_);}
	.st18{fill:url(#SVGID_00000075876766105427745880000002158994186193777560_);}
	.st19{fill:url(#SVGID_00000119811260739430395370000005879188984437431948_);}
	.st20{fill:url(#SVGID_00000147940683070746530430000014826608283812796330_);}
	.st21{fill:url(#SVGID_00000093139071236672713190000011469409019976474262_);}
	.st22{fill:none;stroke:#FFFFFF;stroke-width:2.798;}
	.st23{opacity:0.38;}
	.st24{clip-path:url(#SVGID_00000050636148832167793700000008202137630596822454_);}
</style>
<metadata>
	<sfw  xmlns="&ns_sfw;">
		<slices></slices>
		<sliceSourceBounds  bottomLeftOrigin="true" height="531.4" width="2560" x="0" y="0"></sliceSourceBounds>
	</sfw>
</metadata>
<rect y="0" class="st0" width="2560" height="520"/>
<g class="st1">
	<g>
		<g>
			<g>
				<g>
					<defs>
						<rect id="SVGID_1_" x="1756.8" y="359.1" width="151.7" height="139.2"/>
					</defs>
					<clipPath id="SVGID_00000165955278408275692870000012046160422233059976_">
						<use xlink:href="#SVGID_1_"  style="overflow:visible;"/>
					</clipPath>
					<g style="clip-path:url(#SVGID_00000165955278408275692870000012046160422233059976_);">
						<polygon class="st3" points="1800.8,386.9 1800.2,388.2 1793.9,445.8 1793.9,445.8 1846,444.6 1846,444.6 1851.7,385.3 
							1850.5,384.8 						"/>
						<g>
							<g>
								<g>
									<defs>
										<polygon id="SVGID_00000030465821419375284970000013103918748083640229_" points="1800.8,386.9 1800.2,388.2 
											1793.9,445.8 1793.9,445.8 1846,444.6 1851.7,385.3 1850.5,384.8 										"/>
									</defs>
									<clipPath id="SVGID_00000153671600148719841750000002335041023743834520_">
										<use xlink:href="#SVGID_00000030465821419375284970000013103918748083640229_"  style="overflow:visible;"/>
									</clipPath>
									<g style="clip-path:url(#SVGID_00000153671600148719841750000002335041023743834520_);">
										<path class="st0" d="M1838.6,433.2l-3.7,0.8l-27.3-37l3.6-0.8L1838.6,433.2L1838.6,433.2z M1810.5,420.5
											c-0.8,0.2-1.5,0.4-2,0.9c-0.6,0.4-1,1-1.5,1.6c-0.3,0.7-0.7,1.4-0.8,2.3c-0.2,0.9-0.2,1.8-0.2,2.9
											c0.1,1.1,0.3,2.1,0.5,2.9c0.3,0.8,0.6,1.5,1,2c0.4,0.5,1,0.9,1.6,1c0.6,0.2,1.3,0.2,2.1,0.1c0.8-0.2,1.5-0.4,2-0.9
											c0.6-0.4,1-1,1.5-1.6c0.3-0.7,0.6-1.5,0.8-2.3c0.2-0.9,0.2-1.9,0.2-2.9c-0.1-1-0.3-2-0.5-2.8c-0.3-0.8-0.6-1.5-1.1-1.9
											c-0.4-0.5-1-0.9-1.6-1C1812,420.3,1811.3,420.3,1810.5,420.5 M1834.3,395.2c-0.8,0.2-1.5,0.4-2.1,0.9
											c-0.6,0.4-1,1-1.5,1.6c-0.3,0.6-0.6,1.4-0.8,2.3c-0.2,0.9-0.2,1.8-0.2,2.8c0.1,1,0.3,2,0.5,2.9c0.3,0.9,0.6,1.5,1.1,2
											c0.4,0.5,1,0.9,1.6,1c0.6,0.2,1.3,0.2,2.1,0s1.5-0.4,2-0.9c0.6-0.4,1-1,1.5-1.6c0.4-0.7,0.6-1.5,0.8-2.3
											c0.2-0.9,0.2-1.9,0.1-2.9c-0.1-1-0.3-2-0.5-2.8c-0.3-0.8-0.7-1.4-1.1-1.9s-1-0.8-1.6-1C1835.7,395,1835,395,1834.3,395.2
											 M1835.7,411.8c-1.5,0.3-2.9,0.3-4,0.2c-1.2-0.2-2.3-0.7-3.1-1.3c-0.9-0.7-1.6-1.6-2.1-2.8c-0.5-1.1-0.8-2.5-1-4.1
											c-0.1-1.6,0-3,0.3-4.3s0.9-2.5,1.6-3.6c0.7-1,1.6-1.9,2.8-2.6c1.1-0.7,2.3-1.2,3.7-1.5c1.4-0.3,2.7-0.3,3.9-0.2
											c1.1,0.2,2.2,0.7,3,1.4c0.9,0.7,1.6,1.6,2.1,2.8c0.5,1.1,0.9,2.5,1,4.1c0.1,1.6,0,3-0.3,4.3c-0.3,1.3-0.9,2.5-1.6,3.5
											c-0.7,1-1.6,1.9-2.7,2.5C1838.3,411.1,1837,411.6,1835.7,411.8 M1811.7,437.3c-1.5,0.3-2.8,0.3-4,0.1
											c-1.2-0.2-2.2-0.7-3-1.4c-0.9-0.7-1.6-1.6-2-2.8c-0.5-1.1-0.8-2.5-0.9-4.1c-0.1-1.6,0-3,0.3-4.3s0.9-2.5,1.6-3.6
											c0.7-1,1.6-1.9,2.8-2.6c1.1-0.7,2.3-1.2,3.7-1.5c1.4-0.3,2.7-0.3,3.8-0.1c1.1,0.3,2.2,0.7,3,1.4s1.6,1.6,2,2.8
											c0.4,1.1,0.8,2.5,1,4.1c0.1,1.6,0,3-0.3,4.3c-0.3,1.3-0.9,2.5-1.6,3.6c-0.7,1-1.6,1.9-2.7,2.5
											C1814.4,436.5,1813.2,437,1811.7,437.3"/>
									</g>
								</g>
							</g>
						</g>
						<polygon class="st5" points="1793.9,445.8 1793.9,445.8 1818.1,463.4 1818.1,463.4 1868.5,462.5 1846,444.6 						"/>
						<g>
							<g>
								<g>
									<defs>
										<polygon id="SVGID_00000006671312456649398360000011725061917506799251_" points="1818.1,463.4 1793.9,445.8 1846,444.6 
											1868.5,462.5 										"/>
									</defs>
									<clipPath id="SVGID_00000015314554654782632150000017178723333500355470_">
										<use xlink:href="#SVGID_00000006671312456649398360000011725061917506799251_"  style="overflow:visible;"/>
									</clipPath>
									<g style="clip-path:url(#SVGID_00000015314554654782632150000017178723333500355470_);">
										<path class="st7" d="M1824.7,459.8l-2.2-1l15.8-10.2l2.2,1L1824.7,459.8L1824.7,459.8z M1821.8,451.3
											c-0.4-0.2-1-0.3-1.6-0.5c-0.6-0.1-1.2-0.3-1.8-0.3c-0.6,0-1.4-0.1-2.1-0.1s-1.5,0.1-2.2,0.2c-0.8,0.1-1.4,0.3-1.9,0.3
											s-0.8,0.3-1,0.4s-0.2,0.3-0.1,0.5c0.2,0.2,0.4,0.3,1,0.6c0.4,0.2,1,0.3,1.6,0.5c0.6,0.1,1.2,0.3,1.8,0.3
											c0.7,0.1,1.4,0.1,2.1,0.1s1.5-0.1,2.3-0.2c0.8-0.1,1.4-0.2,1.8-0.3c0.4-0.2,0.8-0.3,1-0.4s0.2-0.3,0-0.5
											C1822.6,451.7,1822.2,451.6,1821.8,451.3 M1851.3,456c-0.4-0.2-1-0.3-1.6-0.5c-0.6-0.1-1.2-0.3-1.8-0.3
											c-0.7-0.1-1.4-0.1-2.1-0.1s-1.5,0.1-2.2,0.2c-0.8,0.1-1.5,0.2-1.9,0.3c-0.5,0.2-0.9,0.3-1,0.4s-0.3,0.3-0.1,0.5
											c0.1,0.2,0.4,0.3,0.9,0.6c0.4,0.2,1,0.3,1.5,0.5c0.5,0.1,1.2,0.2,1.8,0.3c0.7,0.1,1.4,0.1,2.1,0.1s1.5-0.1,2.3-0.2
											c0.8-0.1,1.4-0.2,1.9-0.3c0.5-0.1,0.8-0.3,1-0.4c0.2-0.2,0.2-0.3,0.1-0.5S1851.7,456.3,1851.3,456 M1839.2,457.6
											c-0.9-0.3-1.5-0.7-1.8-1c-0.3-0.3-0.4-0.6-0.3-1c0.2-0.3,0.5-0.5,1.2-0.8s1.6-0.4,2.7-0.5c1.1-0.2,2.3-0.2,3.5-0.3
											c1.1,0,2.3,0.1,3.4,0.2c1.1,0.1,2.2,0.3,3.1,0.6c1,0.3,1.9,0.5,2.7,1c0.8,0.3,1.4,0.7,1.7,1s0.3,0.6,0.2,1
											c-0.2,0.3-0.6,0.5-1.3,0.8c-0.7,0.2-1.6,0.4-2.7,0.5c-1.1,0.2-2.3,0.2-3.4,0.2c-1.1,0-2.3-0.1-3.3-0.2
											c-1-0.1-2.1-0.3-3-0.5C1840.9,458.3,1840,457.9,1839.2,457.6 M1809.9,453c-0.9-0.3-1.6-0.8-1.9-1c-0.3-0.3-0.5-0.7-0.3-1
											c0.1-0.3,0.5-0.5,1.1-0.8c0.6-0.3,1.5-0.4,2.7-0.5c1.1-0.2,2.3-0.3,3.5-0.3c1.1,0,2.3,0.1,3.4,0.2s2.2,0.3,3.2,0.6
											s1.9,0.6,2.8,1c0.9,0.3,1.5,0.7,1.8,1s0.4,0.6,0.3,1c-0.2,0.3-0.5,0.5-1.2,0.8s-1.6,0.4-2.7,0.5c-1.1,0.1-2.3,0.2-3.4,0.3
											c-1.1,0-2.3-0.1-3.3-0.2c-1-0.1-2.1-0.3-3-0.5C1811.7,453.6,1810.8,453.3,1809.9,453"/>
									</g>
								</g>
							</g>
						</g>
						<polygon class="st8" points="1846,444.6 1868.5,462.5 1868.5,462.5 1873.7,404.7 1853.1,385.9 1851.7,385.3 						"/>
						<polygon class="st8" points="1846,444.6 1868.5,462.5 1868.5,462.5 1873.7,404.7 1853.1,385.9 1851.7,385.3 						"/>
						<g>
							<g>
								<g>
									<defs>
										<polygon id="SVGID_00000057130030350428957380000013798589580626885284_" points="1846,444.6 1868.5,462.5 1873.7,404.7 
											1853.1,385.9 1851.7,385.3 										"/>
									</defs>
									<clipPath id="SVGID_00000152952127840283459580000007481040079775685791_">
										<use xlink:href="#SVGID_00000057130030350428957380000013798589580626885284_"  style="overflow:visible;"/>
									</clipPath>
									<g style="clip-path:url(#SVGID_00000152952127840283459580000007481040079775685791_);">
										<path class="st7" d="M1865.8,449.8l-1.5-0.6l-8.2-50.3l1.5,0.8L1865.8,449.8L1865.8,449.8z M1855.8,425.2
											c-0.3-0.2-0.6-0.1-0.9,0.1c-0.3,0.2-0.5,0.6-0.7,1.1c-0.2,0.5-0.3,1.2-0.5,2.1c-0.1,0.9-0.2,1.8-0.3,2.9
											c-0.1,1.2-0.1,2.3,0,3.3c0.1,1,0.2,1.8,0.3,2.6c0.2,0.7,0.3,1.3,0.6,1.8c0.3,0.4,0.5,0.8,0.9,0.9c0.3,0.2,0.6,0.1,0.9-0.1
											c0.3-0.2,0.5-0.6,0.7-1.1c0.2-0.5,0.3-1.3,0.5-2.2c0.1-0.9,0.2-1.9,0.3-3.1s0-2.3,0-3.2c-0.1-1-0.2-1.8-0.3-2.5
											c-0.2-0.7-0.3-1.3-0.6-1.7C1856.4,425.7,1856,425.4,1855.8,425.2 M1866.8,408.5c-0.3-0.2-0.6-0.2-0.9,0.1
											c-0.3,0.2-0.4,0.5-0.7,1c-0.2,0.5-0.3,1.2-0.4,2c-0.1,0.8-0.2,1.8-0.3,2.9c-0.1,1.1-0.1,2.3,0,3.2c0.1,1,0.2,1.8,0.3,2.5
											c0.2,0.7,0.3,1.3,0.5,1.7c0.3,0.4,0.5,0.8,0.8,0.9c0.3,0.2,0.6,0.1,0.9-0.1c0.3-0.2,0.4-0.6,0.7-1.1
											c0.2-0.5,0.3-1.2,0.4-2.1c0.1-0.9,0.2-1.9,0.3-3c0.1-1.1,0-2.2,0-3.1c-0.1-1-0.2-1.7-0.3-2.4c-0.2-0.7-0.3-1.3-0.5-1.7
											C1867.4,409,1867.2,408.6,1866.8,408.5 M1866.2,426.4c-0.6-0.3-1.1-0.8-1.6-1.5c-0.4-0.7-0.8-1.6-1.1-2.7
											c-0.3-1-0.5-2.3-0.6-3.7c-0.1-1.4-0.2-2.9-0.1-4.7c0.1-1.7,0.2-3.2,0.4-4.4c0.3-1.2,0.5-2.3,0.9-3
											c0.3-0.8,0.8-1.3,1.2-1.6c0.4-0.3,1-0.3,1.6,0.1c0.5,0.3,1,0.8,1.5,1.5c0.4,0.7,0.8,1.6,1,2.7c0.3,1.1,0.4,2.3,0.6,3.7
											c0.1,1.4,0.2,2.9,0.1,4.6c-0.1,1.6-0.2,3.1-0.4,4.3c-0.2,1.2-0.5,2.3-0.8,3c-0.3,0.8-0.8,1.3-1.2,1.6
											C1867.2,426.7,1866.7,426.8,1866.2,426.4 M1855.1,443.7c-0.6-0.3-1.1-0.8-1.6-1.5c-0.4-0.7-0.9-1.6-1.1-2.7
											c-0.3-1.1-0.5-2.3-0.6-3.8c-0.1-1.5-0.2-3-0.1-4.8c0.1-1.7,0.3-3.3,0.4-4.5c0.3-1.3,0.5-2.3,1-3.1
											c0.3-0.8,0.8-1.3,1.3-1.6c0.5-0.3,1-0.3,1.6,0c0.6,0.3,1.1,0.8,1.6,1.5c0.4,0.7,0.8,1.6,1.1,2.8c0.3,1.1,0.5,2.3,0.6,3.8
											c0.1,1.4,0.2,3,0.1,4.7c-0.1,1.7-0.2,3.2-0.4,4.5c-0.3,1.3-0.5,2.3-0.9,3.1c-0.3,0.8-0.8,1.3-1.2,1.6
											C1856.2,443.9,1855.7,443.9,1855.1,443.7"/>
									</g>
								</g>
							</g>
						</g>
					</g>
				</g>
			</g>
		</g>
	</g>
</g>
<g>
	<polygon class="st3" points="1705.3,436.9 1630.7,384.7 1677.9,292.5 1754.3,343.9 	"/>
	<polygon class="st10" points="1754.3,343.9 1677.9,292.5 1730.9,290.1 1805,339.3 	"/>
	<polygon class="st11" points="1805,339.3 1757.2,428.6 1705.3,436.9 1754.3,343.9 	"/>
	<polygon class="st11" points="1805,339.3 1757.2,428.6 1705.3,436.9 1754.3,343.9 	"/>
	<path class="st0" d="M1754.5,332.3c8.1-0.5,16.3-0.9,24.3-1.4c-11.3-7.6-22.7-15.4-34.3-23.3c-8.5,0.5-16.8,0.9-25.2,1.4
		C1731.3,317,1742.9,324.7,1754.5,332.3 M1713.5,302.1c4.2,2.6,6.9,3.5,9.9,3.4c2.7-0.2,5.5-0.3,8.2-0.5c2.6-0.2,2.5-1.2-0.7-3.4
		c-0.1-0.1-0.2-0.2-0.3-0.2c1.9-0.1,3.5-0.3,5.7-0.2c1.8,0.1,4.1,1.1,6.3,2.5c11.3,7.7,22.4,15.4,33.3,22.8c2.3,1.6,4.6,3.1,6.9,4.7
		c2.5,1.7,2.7,2.6,0.6,2.7c-8.3,0.5-16.6,1-25,1.4c-2.1,0.1-4.3-0.6-6.8-2.3c-13.6-9-27.7-18.2-42.1-27.8c-2.7-1.8-3-2.6-0.8-2.7
		C1710.2,302.3,1711.9,302.2,1713.5,302.1"/>
	<path class="st0" d="M1762.4,326.4c1.7-0.1,3.4-0.2,5.2-0.3c0.7-0.1,1.4,0.1,2.4,0.7c1,0.7,1,0.9,0.2,1c-3.4,0.2-6.9,0.4-10.3,0.6
		c-0.7,0.1-1.4-0.1-2.5-0.7c-1.1-0.7-0.9-0.9-0.1-1C1758.9,326.6,1760.7,326.5,1762.4,326.4L1762.4,326.4z"/>
	<path class="st0" d="M1754.8,321.2c1.7-0.1,3.4-0.2,5.1-0.3c0.7-0.1,1.4,0.1,2.4,0.7c1,0.7,1,0.9,0.2,1c-3.4,0.2-6.9,0.4-10.3,0.6
		c-0.7,0.1-1.4,0-2.5-0.7s-0.9-1-0.1-1C1751.2,321.4,1752.9,321.3,1754.8,321.2L1754.8,321.2L1754.8,321.2z"/>
	<path class="st0" d="M1750.2,318.2c-1.8,0.1-3.6,0.2-5.3,0.3c-0.7,0.1-1.3-0.1-2.3-0.7c-1-0.7-1-0.9-0.2-1
		c3.6-0.2,7.2-0.4,10.8-0.6c0.7-0.1,1.4,0.2,2.3,0.8c0.9,0.6,1,0.9,0.2,0.9C1753.8,318,1752,318.1,1750.2,318.2"/>
	<path class="st0" d="M1739.8,311.1c1.8-0.1,3.5-0.2,5.3-0.3c0.7-0.1,1.4,0.2,2.3,0.7c0.9,0.6,1.1,0.9,0.3,1
		c-3.6,0.2-7.3,0.4-10.9,0.6c-0.7,0.1-1.5-0.2-2.3-0.8c-0.9-0.7-0.9-0.9-0.2-0.9C1736.2,311.4,1738,311.3,1739.8,311.1"/>
	<path class="st0" d="M1730,312.7c-0.2-0.7-0.6-1.4-0.7-2c0-0.2,0.4-0.2,0.7-0.2c0.4,0.3,1,0.7,1.1,0.9c0.4,0.8,0.7,1.6,1,2.3
		c0.2,0.4-0.2,0.4-1.1,0.2c-0.9-0.3-1.8-0.5-2.7-0.8c-0.4-0.2-0.9-0.5-1.3-0.7c0.2,0,0.5-0.2,0.8-0.1
		C1728.4,312.2,1729.1,312.5,1730,312.7"/>
	<path class="st0" d="M1745.4,322.9c-0.2-0.7-0.6-1.4-0.7-2c0-0.2,0.5-0.2,0.7-0.2c0.3,0.2,0.9,0.6,1,0.7c0.4,0.8,0.7,1.6,0.9,2.3
		c0.1,0.2-0.4,0.2-0.8,0.2c-0.9-0.2-2-0.6-3-0.9c-0.4-0.2-0.8-0.4-1.2-0.7c0.2,0,0.5-0.2,0.9-0.1
		C1743.8,322.4,1744.5,322.6,1745.4,322.9"/>
	<path class="st0" d="M1737.9,318c-0.2-0.7-0.6-1.3-0.7-1.9c-0.1-0.2,0.4-0.2,0.6-0.4c0.4,0.3,1.1,0.7,1.1,0.9
		c0.4,0.7,0.7,1.5,0.8,2.1c0,0.2-0.5,0.2-1,0.2c-0.8-0.2-1.9-0.5-2.8-0.8c-0.3-0.2-0.7-0.5-1.1-0.7c0.2,0,0.4-0.2,0.8-0.1
		C1736.3,317.5,1737.1,317.7,1737.9,318"/>
	<path class="st0" d="M1752.9,327.9c-0.2-0.7-0.5-1.2-0.7-1.8c0-0.2,0.3-0.2,0.6-0.4c0.4,0.3,1.1,0.7,1.1,1c0.4,0.7,0.6,1.4,0.8,2.1
		c0.2,0.4-0.1,0.5-1.1,0.2c-0.8-0.2-1.6-0.4-2.5-0.7c-0.5-0.2-1-0.5-1.4-0.8c0.3,0,0.6-0.1,1,0
		C1751.4,327.4,1752,327.7,1752.9,327.9"/>
	<path class="st0" d="M1724.8,300.1c-1.2,0-2.8-0.4-4.4-1.4c-1.7-1-3.9-1.6-4.9-1.5c-1.1,0.1-1.1,0.9,0.1,1.8c1.2,1,1.2,1.5,0.2,1.6
		c-1.5,0.1-1.4,0.8,0.2,1.9c1.6,1.1,3.5,1.7,5.1,1.6c1.6-0.1,3-0.2,4.5-0.2c1.6-0.1,3.2-0.2,4.7-0.2c1.3-0.1,1.1-0.9-0.5-2
		C1728.1,300.7,1726.2,300.1,1724.8,300.1"/>
	<path class="st0" d="M1676.5,376.2c2.1-1.3,4-2.5,5.9-3.9c1-0.7,1.8-0.7,2.5-0.1c0.2,0.2,0.3,0,0.6-0.2c4.5-3.3,9.1-6.6,13.7-9.9
		c3.7-2.6,7.4-5.3,11.1-8c0.4-0.3,0.5-0.2,0.6,0.2c0.1,0.6,0.2,1.1,0.3,1.7c0.2,0.5,0,0.7-0.4,1c-7,5-13.9,10-20.8,14.9
		c-1.3,1-2.6,1.9-3.9,2.9c-0.2,0.2-0.5,0.4-0.6,0.9c-0.3,1.3-1,2.3-1.9,2.9c-3.6,2.4-7.2,4.8-10.8,7.1c-2.1,1.3-3.4-0.1-3-3
		c0.2-1.6,0.7-3.2,1.1-4.8c0.3-1.4,0.7-2.9,1.1-4.3c0.2-0.6,0.1-0.9-0.2-1.1c-0.7-0.4-0.7-0.4-1.1,0.6c-1.5,3.1-3,6.2-4.4,9.3
		c-1.1,2.5-2.4,4.9-3.5,7.4c-0.2,0.5-0.4,0.6-0.7,0.4c-5.2-3.7-10.3-7.4-15.5-11c-0.3-0.2-0.3-0.4-0.1-0.9c3-6.5,6.1-13.1,9.1-19.6
		c1.1-2.3,2.5-4.3,4.2-5.5c1.8-1.3,3.5-1.4,5.1-0.7c1.5,0.7,2.8,1.8,4.1,2.7c1.9,1.3,3.8,2.6,5.7,3.9c3.4,2.4,4.4,7.6,2.7,13.6
		C1677.1,373.8,1676.8,375,1676.5,376.2"/>
	<path class="st0" d="M1711.6,335c7.6,5.2,15.1,10.4,22.8,15.6c1.2,0.8,1.1,2.7,0.2,4.3c-10.8,20.9-21.4,41.1-31.6,60.9
		c-1,1.8-2,2.3-3.1,1.5c-11.3-8-22.3-15.9-33.4-23.7c-0.4-0.2-0.4-0.5-0.1-1.1c0.6-1.1,1.1-2.4,1.7-3.5c0.2-0.3,0.3-0.5,0.5-0.2
		l0.3,0.2c10.5,7.5,21,14.9,31.7,22.5c0.6,0.4,0.5,0.5,0.9-0.4c9.2-17.8,18.6-36.2,28.4-55c0.3-0.6,0.2-1-0.1-1.2
		c-13.9-9.6-27.8-19.1-41.4-28.5c-0.6-0.4-0.5-0.5-0.9,0.6c-0.8,1.7-1.6,3.4-2.5,5.1c-0.2,0.6-0.4,0.6-0.7,0.4
		c-0.7-0.6-1.6-1.1-2.3-1.6c-0.2-0.2-0.3-0.3-0.1-0.8c1.4-2.9,2.7-5.7,4.1-8.6c0.8-1.6,1.9-2.3,3-1.6
		C1696.4,324.7,1703.9,329.9,1711.6,335"/>
	<path class="st0" d="M1680.3,337.3c3,2.1,3.4,7.6,1.1,12.5c-2.3,4.8-6.6,7.1-9.4,5.1c-2.9-2-3.4-7.6-1.1-12.4
		C1673.2,337.6,1677.4,335.3,1680.3,337.3"/>
	<path class="st0" d="M1775,363.5c-3.1,0.3-6.2,0.6-9.4,0.9c-0.5,0.1-0.7-0.3-0.5-1.1s0.8-1.8,1.4-2.3c0.4-0.3,0.8-0.5,1.1-0.5
		c3.4-0.3,6.7-0.7,9.9-0.9c2.8-0.2,5.5-0.5,8.2-0.7c0.7-0.1,0.8,0.6,0.2,1.8c-0.5,1.1-1.2,1.8-1.9,1.9c-1.4,0.2-2.9,0.2-4.3,0.4
		C1778.2,363.1,1776.6,363.3,1775,363.5L1775,363.5L1775,363.5z"/>
	<path class="st0" d="M1765.4,383.3c-3,0.4-6.2,0.7-9.3,1.1c-0.2,0-0.6,0.1-0.7,0c-0.4-0.2-0.2-1.1,0.3-2.1c0.6-0.9,1.2-1.6,1.8-1.7
		c0.5-0.1,0.9-0.2,1.4-0.2c5.9-0.7,11.7-1.4,17.5-2.1c0.8-0.1,1,0.5,0.3,1.8c-0.6,1.1-1.3,2-2,2.1c-1.7,0.2-3.4,0.4-5.2,0.7
		C1768.1,382.9,1766.7,383.1,1765.4,383.3"/>
	<path class="st0" d="M1755.5,403.5c-3.2,0.5-6.5,1-9.8,1.5c-0.9,0.2-0.9-0.8,0-2.3c0.6-1,1.3-1.6,1.9-1.8c0.7-0.1,1.3-0.2,1.9-0.3
		c5.8-0.8,11.7-1.6,17.3-2.5c0.2,0,0.5,0,0.7,0.1c0.3,0.3,0,1.2-0.5,2.1c-0.6,0.9-1.2,1.6-1.8,1.6c-2.1,0.3-4.1,0.6-6.2,0.9
		C1757.9,403.2,1756.7,403.4,1755.5,403.5L1755.5,403.5z"/>
	<path class="st0" d="M1736.4,404.9L1736.4,404.9c-0.6,0.1-1.1,0.2-1.7,0.2c-0.7,0.1-2.1,1.1-3,3c-0.8,1.8-1.8,3.6-2.7,5.4
		c-0.8,1.7-0.7,2.7,0.2,2.6c1.1-0.2,2.1-0.3,3.2-0.5c0.9-0.2,2-1.1,2.8-2.7c1.1-2.1,2.1-4.2,3-6.2c0.7-1.3,0.5-2.1-0.3-2
		C1737.6,404.8,1737,404.9,1736.4,404.9 M1738.4,409.7c-0.5,1-1,2-1.4,2.9c-1.4,2.7-3.5,5.1-5.3,5.5c-1.6,0.4-3,0.7-4.4,0.7
		c-1.5,0.1-1.4-2.1-0.1-4.7c1-2,2-3.9,2.9-5.8c1.4-2.8,3.8-5.3,5.5-5.7c1.5-0.3,2.8-0.5,4.1-0.6c1.3-0.1,1.4,1.9,0.3,4.3
		C1739.6,407.5,1739,408.6,1738.4,409.7L1738.4,409.7L1738.4,409.7z"/>
	<path class="st0" d="M1746.8,384.2L1746.8,384.2c-0.6,0.1-1.1,0.2-1.8,0.2c-1,0.2-2.1,1.1-2.8,2.8c-0.9,1.8-1.8,3.5-2.6,5.3
		c-0.7,1.6-0.7,2.6,0.2,2.5c1.1-0.2,2.2-0.3,3.3-0.4c0.7-0.1,1.3-0.7,2-1.6c0.3-0.5,0.7-1,0.9-1.5c0.9-1.7,1.7-3.4,2.6-5.3
		c0.2-0.2,0.2-0.6,0.3-0.8c0.3-1,0.2-1.6-0.4-1.6C1747.9,384,1747.4,384.1,1746.8,384.2 M1748.8,388.7c-0.7,1.3-1.2,2.6-2,3.9
		c-1.4,2.4-3.2,4.1-4.7,4.4c-1.4,0.3-2.8,0.5-4,0.5c-1.4,0-1.4-2.2-0.2-4.7c0.9-1.8,1.8-3.6,2.7-5.4c1.6-3.3,4-5.3,5.4-5.5
		c1.4-0.2,2.7-0.4,3.9-0.4c1.3-0.1,1.4,1.8,0.3,4.2C1749.8,386.7,1749.3,387.7,1748.8,388.7L1748.8,388.7L1748.8,388.7z"/>
	<path class="st0" d="M1760.6,361.4c-0.7,0.7-1.4,1.4-2.1,2.1c-0.2,0.2-0.3,0.2-0.4,0.2c-0.9,0.1-1.8,0.2-2.7,0.2
		c-1,0.1-2.1,1.1-3,2.9c-0.8,1.6-1.6,3.4-2.5,5c-0.8,1.6-0.7,2.6,0.2,2.5c1-0.1,2.1-0.2,3-0.3s2-1.1,2.8-2.7
		c0.3-0.7,0.7-1.5,1.1-2.1c0.1-0.2,0.2-0.4,0.4-0.6c0.7-0.8,1.6-1.6,2.5-2.5c-0.1,0.2-0.2,0.4-0.2,0.5c-0.7,1.6-1.6,3.1-2.3,4.8
		c-1.3,2.6-3.4,4.8-5.1,5.1c-1.3,0.2-2.6,0.4-3.9,0.4c-1.4,0-1.5-2.1-0.2-4.7c0.9-1.9,1.8-3.7,2.8-5.6c1.1-2.4,3.4-4.6,4.8-4.9
		c1.5-0.2,2.9-0.3,4.3-0.4C1760.3,361.2,1760.4,361.3,1760.6,361.4"/>
	<path class="st0" d="M1757.4,390.7c-1.6,0.2-3.4,0.4-5,0.7c-1,0.1-0.7-1.6,0.5-3c0.6-0.7,1.1-1,1.5-1.1c2.4-0.3,4.8-0.6,7.1-0.9
		c0.9-0.1,1.7-0.2,2.6-0.3c0.8-0.1,0.9,0.6,0.2,1.8c-0.6,1.2-1.4,2.1-2.2,2.1C1760.6,390.2,1759,390.5,1757.4,390.7"/>
	<path class="st0" d="M1769.2,366.5c1.6-0.2,3.2-0.3,4.8-0.5c0.7-0.1,0.7,0.6,0.2,1.7c-0.6,1.1-1.4,2.1-2.1,2.1
		c-3.2,0.3-6.4,0.7-9.7,1c-0.7,0.1-0.7-0.7-0.2-1.9c0.6-1.1,1.4-2,2.1-2C1765.9,366.8,1767.6,366.7,1769.2,366.5"/>
	<path class="st0" d="M1749.3,407.1c1.6-0.2,3.3-0.5,5-0.7c0.7-0.1,0.9,0.6,0.2,1.8c-0.6,1.2-1.5,2.1-2.2,2.3
		c-3.4,0.5-6.7,1.1-10.1,1.6c-1,0.2-0.8-1.2,0.3-2.8c0.6-0.8,1.1-1.3,1.7-1.3C1746,407.7,1747.7,407.4,1749.3,407.1"/>
	<path class="st0" d="M1754.5,368.5c0.7-0.7,1.3-1.3,2-2c2-1.9,3.9-3.8,5.8-5.7c0.4-0.4,0.8-0.6,1-0.3c0.2,0.2,0.2,0.7-0.2,1.1
		c-0.2,0.2-0.4,0.6-0.7,0.8c-2.9,2.8-5.7,5.6-8.6,8.5c-0.7,0.7-1.1,0.7-1.1,0.2c-0.1-0.6-0.2-1.1-0.2-1.7c0-0.5,0.3-1.2,0.9-1.8
		c0.6-0.5,1-0.6,1.1-0.1C1754.5,367.8,1754.5,368.1,1754.5,368.5"/>
</g>
<g>
	<polygon class="st3" points="1495.1,257 1508.9,356.5 1509.9,358.8 1593.4,362.2 1595.4,361.2 1582.5,259 1582.5,259 1495.2,257 	
		"/>
	<g>
		<g>
			<g>
				<defs>
					<polygon id="SVGID_00000140698447883141742880000000817549606021562241_" points="1508.9,356.5 1509.9,358.8 1593.4,362.2 
						1595.4,361.2 1582.5,259 1495.2,257 					"/>
				</defs>
				<clipPath id="SVGID_00000080196348595983621440000004767270615092419467_">
					<use xlink:href="#SVGID_00000140698447883141742880000000817549606021562241_"  style="overflow:visible;"/>
				</clipPath>
				<g style="clip-path:url(#SVGID_00000080196348595983621440000004767270615092419467_);">
					<path class="st0" d="M1570.8,278.7l-6.2-1.3l-43.7,63.7l6.1,1.3L1570.8,278.7z M1524.4,300.7c-1.3-0.2-2.5-0.8-3.4-1.5
						c-1-0.7-1.8-1.6-2.5-2.8c-0.7-1.1-1.1-2.5-1.5-3.9c-0.3-1.5-0.5-3.1-0.4-4.9c0.1-1.9,0.2-3.5,0.7-4.9s1-2.5,1.7-3.4
						c0.7-0.9,1.6-1.5,2.6-1.8c1.1-0.3,2.2-0.4,3.5-0.1c1.3,0.2,2.5,0.7,3.4,1.5s1.8,1.6,2.5,2.8s1.1,2.5,1.5,4
						c0.3,1.6,0.5,3.2,0.4,5.1c-0.1,1.9-0.3,3.4-0.7,4.8c-0.4,1.4-1,2.5-1.7,3.3c-0.7,0.8-1.6,1.4-2.6,1.7
						C1526.8,301,1525.6,301,1524.4,300.7 M1565.6,344.2c-1.3-0.2-2.5-0.8-3.4-1.6c-1-0.7-1.8-1.6-2.5-2.8c-0.7-1.1-1.1-2.4-1.5-3.9
						c-0.3-1.5-0.4-3.1-0.4-4.8c0.1-1.9,0.3-3.5,0.7-4.9c0.4-1.4,1-2.5,1.7-3.4s1.6-1.5,2.7-1.8s2.2-0.3,3.5-0.1
						c1.3,0.2,2.5,0.8,3.4,1.5c1,0.7,1.8,1.6,2.5,2.8s1.1,2.5,1.5,4c0.3,1.6,0.4,3.2,0.3,5.1c-0.1,1.8-0.3,3.4-0.7,4.8
						c-0.4,1.3-1,2.5-1.7,3.3c-0.7,0.8-1.6,1.4-2.6,1.7C1568.1,344.6,1566.9,344.6,1565.6,344.2 M1566.9,315.5
						c-2.5-0.5-4.8-0.6-6.7-0.2c-2,0.3-3.7,1.1-5.1,2.3s-2.5,2.8-3.3,4.8c-0.7,2-1.2,4.4-1.3,7.1c-0.1,2.7,0.2,5.2,0.8,7.5
						c0.7,2.3,1.6,4.3,2.9,6.1c1.3,1.7,2.9,3.3,4.8,4.4c1.9,1.1,4,2.1,6.4,2.5c2.4,0.5,4.6,0.6,6.5,0.2c2-0.3,3.6-1.1,5-2.4
						c1.4-1.2,2.5-2.8,3.3-4.8c0.8-2,1.2-4.4,1.4-7.1c0.1-2.7-0.2-5.2-0.7-7.5c-0.6-2.3-1.6-4.3-2.8-6.1c-1.2-1.7-2.8-3.2-4.7-4.4
						C1571.5,316.9,1569.4,316.1,1566.9,315.5 M1525.5,271.8c-2.5-0.5-4.8-0.6-6.7-0.2c-2,0.3-3.6,1.1-5,2.4s-2.5,2.8-3.2,4.8
						c-0.7,2-1.1,4.4-1.2,7.1c-0.1,2.7,0.2,5.3,0.9,7.6c0.7,2.3,1.6,4.4,3,6.1c1.3,1.8,2.9,3.3,4.8,4.4c1.9,1.1,4,2.1,6.3,2.5
						c2.4,0.5,4.5,0.6,6.4,0.2s3.5-1.2,4.9-2.5s2.5-2.9,3.2-4.8c0.7-2,1.2-4.4,1.3-7.1c0.1-2.7-0.2-5.3-0.8-7.5
						c-0.6-2.3-1.6-4.3-2.8-6.1c-1.2-1.7-2.8-3.2-4.7-4.4C1530,273.1,1527.8,272.3,1525.5,271.8"/>
				</g>
			</g>
		</g>
	</g>
	<polygon class="st5" points="1534.7,226.8 1495.2,257 1582.5,259 1619.2,228.2 	"/>
	<g>
		<g>
			<g>
				<defs>
					<polygon id="SVGID_00000060716620466141271970000011536287739434627211_" points="1495.2,257 1582.5,259 1619.2,228.2 
						1534.7,226.8 					"/>
				</defs>
				<clipPath id="SVGID_00000127020589703079341360000016540732710436057016_">
					<use xlink:href="#SVGID_00000060716620466141271970000011536287739434627211_"  style="overflow:visible;"/>
				</clipPath>
				<g style="clip-path:url(#SVGID_00000127020589703079341360000016540732710436057016_);">
					<path class="st0" d="M1546,233l-3.5,1.6l27,17.4l3.6-1.6L1546,233L1546,233z M1541.6,247.5c-0.7,0.3-1.6,0.7-2.6,0.9
						c-1,0.2-2,0.4-3.1,0.5c-1.1,0.1-2.3,0.2-3.4,0.1c-1.2,0-2.5-0.2-3.7-0.3c-1.3-0.2-2.4-0.4-3.2-0.6c-0.8-0.2-1.4-0.5-1.6-0.7
						c-0.3-0.2-0.3-0.6-0.1-0.9s0.7-0.7,1.5-1c0.7-0.3,1.6-0.7,2.5-0.8c1-0.2,2-0.4,3-0.5c1.1-0.1,2.3-0.2,3.4-0.1
						c1.2,0,2.5,0.2,3.8,0.3s2.3,0.3,3.1,0.6c0.8,0.2,1.3,0.5,1.6,0.7c0.2,0.2,0.3,0.6,0.1,0.9
						C1542.8,246.8,1542.3,247.2,1541.6,247.5 M1590.7,239.4c-0.7,0.3-1.6,0.7-2.5,0.8c-0.9,0.2-2,0.4-3,0.5
						c-1.1,0.1-2.2,0.2-3.4,0.1c-1.2,0-2.5-0.1-3.7-0.2c-1.3-0.2-2.4-0.3-3.3-0.6c-0.8-0.2-1.4-0.5-1.7-0.7
						c-0.3-0.2-0.4-0.6-0.2-0.9c0.2-0.3,0.7-0.7,1.4-1c0.7-0.3,1.6-0.6,2.5-0.8c0.9-0.2,2-0.4,3-0.5c1.1-0.1,2.3-0.2,3.5-0.1
						c1.2,0,2.5,0.2,3.9,0.3s2.4,0.3,3.2,0.6c0.8,0.2,1.4,0.5,1.6,0.7c0.3,0.2,0.3,0.6,0.2,0.9
						C1591.8,238.7,1591.4,239,1590.7,239.4 M1570.4,236.8c-1.4,0.7-2.5,1.2-3,1.8c-0.6,0.6-0.7,1.1-0.5,1.6c0.2,0.5,1,0.9,2.1,1.3
						s2.6,0.7,4.6,0.9c1.9,0.2,3.9,0.3,5.8,0.3c1.9,0,3.9-0.1,5.7-0.3c1.8-0.2,3.6-0.6,5.3-1c1.6-0.4,3.2-1,4.5-1.6
						c1.4-0.7,2.3-1.2,2.8-1.8s0.6-1.1,0.2-1.6c-0.3-0.5-1.1-0.9-2.1-1.3c-1.1-0.3-2.6-0.7-4.6-0.9c-1.9-0.2-3.9-0.3-5.7-0.3
						c-1.9,0-3.7,0.1-5.5,0.3c-1.8,0.2-3.4,0.5-5.1,0.9C1573.3,235.7,1571.8,236.2,1570.4,236.8 M1521.5,244.9
						c-1.5,0.7-2.5,1.3-3.1,1.9c-0.7,0.6-0.8,1.1-0.6,1.6c0.2,0.5,0.9,0.9,2,1.3s2.5,0.7,4.4,1c1.9,0.2,3.9,0.4,5.7,0.4
						c1.9,0,3.9-0.1,5.7-0.3c1.9-0.2,3.6-0.6,5.3-1c1.6-0.4,3.2-1,4.6-1.6s2.4-1.2,3-1.8c0.6-0.6,0.7-1.1,0.4-1.6
						c-0.2-0.5-1-0.9-2.1-1.3c-1.1-0.4-2.6-0.7-4.5-0.9c-1.9-0.2-3.8-0.3-5.7-0.4c-1.9,0-3.7,0.1-5.5,0.3c-1.8,0.2-3.5,0.5-5.1,1
						C1524.5,243.7,1522.9,244.2,1521.5,244.9"/>
				</g>
			</g>
		</g>
	</g>
	<polygon class="st8" points="1619.2,228.2 1582.5,259 1595.4,361.2 1597.7,360.2 1631.3,327.7 	"/>
	<polygon class="st8" points="1619.2,228.2 1582.5,259 1595.4,361.2 1597.7,360.2 1631.3,327.7 	"/>
	<g>
		<g>
			<g>
				<defs>
					<polygon id="SVGID_00000012431971580871109480000004742876293005631124_" points="1582.5,259 1595.4,361.2 1597.7,360.2 
						1631.3,327.7 1619.2,228.2 					"/>
				</defs>
				<clipPath id="SVGID_00000052813727490387711030000018313883112581529272_">
					<use xlink:href="#SVGID_00000012431971580871109480000004742876293005631124_"  style="overflow:visible;"/>
				</clipPath>
				<g style="clip-path:url(#SVGID_00000052813727490387711030000018313883112581529272_);">
					<path class="st0" d="M1615.5,250l-2.4,1.1l-10.8,86.7l2.5-1.3L1615.5,250L1615.5,250z M1600,292.4c-0.5,0.2-1,0.2-1.5-0.2
						c-0.5-0.3-0.9-1-1.2-2c-0.3-0.9-0.7-2.1-0.9-3.6c-0.2-1.5-0.5-3.2-0.6-5.2c-0.2-2.1-0.2-3.9-0.2-5.7s0.2-3.2,0.3-4.4
						c0.2-1.2,0.5-2.3,0.9-3.1s0.8-1.3,1.4-1.6c0.5-0.2,1-0.2,1.5,0.2c0.4,0.4,0.8,1.1,1.2,2c0.3,1,0.7,2.2,0.9,3.7
						c0.2,1.5,0.5,3.3,0.6,5.3c0.2,2.1,0.2,3.9,0.2,5.5c0,1.6-0.2,3.1-0.3,4.3c-0.2,1.2-0.5,2.2-0.8,3
						C1600.9,291.7,1600.5,292.2,1600,292.4 M1619.4,321.2c-0.5,0.2-1,0.2-1.4-0.1c-0.4-0.3-0.8-1-1.1-1.9c-0.3-0.9-0.7-2.1-0.9-3.4
						c-0.2-1.4-0.4-3.1-0.6-5c-0.2-2-0.2-3.9-0.2-5.5c0-1.6,0.2-3.1,0.3-4.4c0.2-1.2,0.5-2.3,0.8-3c0.3-0.8,0.8-1.3,1.3-1.6
						c0.5-0.2,1-0.2,1.4,0.2c0.4,0.3,0.8,1,1.1,1.9c0.3,0.9,0.7,2.1,0.9,3.6c0.2,1.5,0.4,3.2,0.6,5.3c0.2,2,0.2,3.8,0.2,5.3
						s-0.2,3-0.3,4.2c-0.2,1.2-0.5,2.2-0.8,3C1620.3,320.5,1619.9,321,1619.4,321.2 M1617.4,290.3c-1,0.5-1.8,1.3-2.5,2.5
						c-0.7,1.2-1.2,2.7-1.7,4.6c-0.4,1.9-0.7,4-0.8,6.5c-0.1,2.5-0.1,5.2,0.2,8.1c0.2,2.9,0.6,5.4,1,7.6c0.4,2.1,1,3.9,1.6,5.2
						s1.4,2.2,2.1,2.6c0.8,0.4,1.6,0.4,2.6-0.1c0.9-0.5,1.7-1.4,2.4-2.6s1.2-2.8,1.6-4.7c0.4-1.9,0.7-4,0.7-6.5
						c0.1-2.4,0.1-5.1-0.2-8c-0.2-2.9-0.5-5.4-0.9-7.5c-0.4-2.1-0.9-3.9-1.6-5.2c-0.6-1.3-1.3-2.2-2.1-2.7
						C1619.2,289.9,1618.3,289.9,1617.4,290.3 M1597.8,260.7c-1,0.5-1.9,1.3-2.6,2.5s-1.3,2.8-1.8,4.7c-0.4,1.9-0.7,4.1-0.8,6.6
						c-0.1,2.5-0.1,5.3,0.2,8.3c0.2,3,0.6,5.6,1.1,7.8c0.5,2.2,1.1,4,1.7,5.4c0.7,1.4,1.4,2.3,2.3,2.8c0.8,0.5,1.7,0.5,2.7,0
						c1-0.5,1.8-1.4,2.5-2.6c0.7-1.2,1.2-2.8,1.6-4.8c0.4-1.9,0.7-4.1,0.8-6.6c0.1-2.5,0.1-5.2-0.2-8.1c-0.2-3-0.6-5.5-1-7.7
						c-0.4-2.2-1-3.9-1.6-5.3c-0.7-1.4-1.4-2.3-2.2-2.8C1599.6,260.3,1598.7,260.2,1597.8,260.7"/>
				</g>
			</g>
		</g>
	</g>
</g>
<g>
	
		<radialGradient id="SVGID_00000133518514191912422800000000663336670408138115_" cx="1567.65" cy="196.0256" r="54.1742" gradientTransform="matrix(1 0 0 1 0 -75.2756)" gradientUnits="userSpaceOnUse">
		<stop  offset="4.475343e-07" style="stop-color:#FFFFFF;stop-opacity:0"/>
		<stop  offset="0.1022" style="stop-color:#F3F3F3;stop-opacity:3.065731e-02"/>
		<stop  offset="0.2882" style="stop-color:#D3D2D2;stop-opacity:8.645798e-02"/>
		<stop  offset="0.537" style="stop-color:#9F9E9E;stop-opacity:0.1611"/>
		<stop  offset="0.8358" style="stop-color:#595656;stop-opacity:0.2507"/>
		<stop  offset="1" style="stop-color:#2F2B2C;stop-opacity:0.3"/>
	</radialGradient>
	<path style="fill:url(#SVGID_00000133518514191912422800000000663336670408138115_);" d="M1532.9,59h69.5c5.8,0,10.6,4.7,10.6,10.6
		v102.3c0,5.8-4.7,10.6-10.6,10.6h-69.5c-5.8,0-10.6-4.7-10.6-10.6V69.6C1522.3,63.7,1527,59,1532.9,59z"/>
	
		<radialGradient id="SVGID_00000005959602208150970150000005690572613088622735_" cx="1483.25" cy="147.3256" r="58.8641" gradientTransform="matrix(1 0 0 1 0 -75.2756)" gradientUnits="userSpaceOnUse">
		<stop  offset="4.475343e-07" style="stop-color:#FFFFFF;stop-opacity:0"/>
		<stop  offset="0.1022" style="stop-color:#F3F3F3;stop-opacity:3.065731e-02"/>
		<stop  offset="0.2882" style="stop-color:#D3D2D2;stop-opacity:8.645798e-02"/>
		<stop  offset="0.537" style="stop-color:#9F9E9E;stop-opacity:0.1611"/>
		<stop  offset="0.8358" style="stop-color:#595656;stop-opacity:0.2507"/>
		<stop  offset="1" style="stop-color:#2F2B2C;stop-opacity:0.3"/>
	</radialGradient>
	<path style="fill:url(#SVGID_00000005959602208150970150000005690572613088622735_);" d="M1438.2,22.8c0,0-9.6,2.2-7.4,11.8
		l21.7,94.1c0,0,2.2,9.6,11.8,7.4l64-14.8c0,0,9.6-2.2,7.4-11.8L1514,15.4c0,0-2.2-9.6-11.8-7.4C1502.2,8,1438.2,22.8,1438.2,22.8z"
		/>
	
		<radialGradient id="SVGID_00000070801664225481012720000007116706437612541836_" cx="1722.45" cy="153.1756" r="56.6072" gradientTransform="matrix(1 0 0 1 0 -75.2756)" gradientUnits="userSpaceOnUse">
		<stop  offset="4.475343e-07" style="stop-color:#FFFFFF;stop-opacity:0"/>
		<stop  offset="0.1022" style="stop-color:#F3F3F3;stop-opacity:3.065731e-02"/>
		<stop  offset="0.2882" style="stop-color:#D3D2D2;stop-opacity:8.645798e-02"/>
		<stop  offset="0.537" style="stop-color:#9F9E9E;stop-opacity:0.1611"/>
		<stop  offset="0.8358" style="stop-color:#595656;stop-opacity:0.2507"/>
		<stop  offset="1" style="stop-color:#2F2B2C;stop-opacity:0.3"/>
	</radialGradient>
	<path style="fill:url(#SVGID_00000070801664225481012720000007116706437612541836_);" d="M1683,20.5c0,0-10.2,0.9-9.3,11.1
		l8.8,100.4c0,0,0.9,10.2,11.1,9.3l68.3-6c0,0,10.2-0.9,9.3-11.1l-8.8-100.4c0,0-0.9-10.2-11.1-9.3C1751.2,14.6,1683,20.5,1683,20.5
		z"/>
	
		<radialGradient id="SVGID_00000121974272075331094060000003886466929080419508_" cx="1918.9501" cy="168.1756" r="49.742" gradientTransform="matrix(1 0 0 1 0 -75.2756)" gradientUnits="userSpaceOnUse">
		<stop  offset="4.475343e-07" style="stop-color:#FFFFFF;stop-opacity:0"/>
		<stop  offset="0.1022" style="stop-color:#F3F3F3;stop-opacity:3.065731e-02"/>
		<stop  offset="0.2882" style="stop-color:#D3D2D2;stop-opacity:8.645798e-02"/>
		<stop  offset="0.537" style="stop-color:#9F9E9E;stop-opacity:0.1611"/>
		<stop  offset="0.8358" style="stop-color:#595656;stop-opacity:0.2507"/>
		<stop  offset="1" style="stop-color:#2F2B2C;stop-opacity:0.3"/>
	</radialGradient>
	<path style="fill:url(#SVGID_00000121974272075331094060000003886466929080419508_);" d="M1884.3,42.4c0,0-9,0.8-8.2,9.8l7.7,88.2
		c0,0,0.8,9,9.8,8.2l60-5.2c0,0,9-0.8,8.2-9.8l-7.7-88.2c0,0-0.8-9-9.8-8.2C1944.3,37.2,1884.3,42.4,1884.3,42.4z"/>
	
		<radialGradient id="SVGID_00000098911525429272257110000009280612454800502966_" cx="1644.6001" cy="192.1756" r="55.8945" gradientTransform="matrix(1 0 0 1 0 -75.2756)" gradientUnits="userSpaceOnUse">
		<stop  offset="4.475343e-07" style="stop-color:#FFFFFF;stop-opacity:0"/>
		<stop  offset="0.1022" style="stop-color:#F3F3F3;stop-opacity:3.065731e-02"/>
		<stop  offset="0.2882" style="stop-color:#D3D2D2;stop-opacity:8.645798e-02"/>
		<stop  offset="0.537" style="stop-color:#9F9E9E;stop-opacity:0.1611"/>
		<stop  offset="0.8358" style="stop-color:#595656;stop-opacity:0.2507"/>
		<stop  offset="1" style="stop-color:#2F2B2C;stop-opacity:0.3"/>
	</radialGradient>
	<path style="fill:url(#SVGID_00000098911525429272257110000009280612454800502966_);" d="M1636.9,58c0,0-8.1-3.3-11.4,4.8
		l-32.2,79.7c0,0-3.3,8.1,4.8,11.4l54.2,21.9c0,0,8.1,3.3,11.4-4.8l32.2-79.7c0,0,3.3-8.1-4.8-11.4C1691.1,79.9,1636.9,58,1636.9,58
		z"/>
	
		<radialGradient id="SVGID_00000183944416086463877960000004110746367177674880_" cx="1390.6" cy="176.8256" r="71.1921" gradientTransform="matrix(1 0 0 1 0 -75.2756)" gradientUnits="userSpaceOnUse">
		<stop  offset="4.475343e-07" style="stop-color:#FFFFFF;stop-opacity:0"/>
		<stop  offset="0.1022" style="stop-color:#F3F3F3;stop-opacity:3.065731e-02"/>
		<stop  offset="0.2882" style="stop-color:#D3D2D2;stop-opacity:8.645798e-02"/>
		<stop  offset="0.537" style="stop-color:#9F9E9E;stop-opacity:0.1611"/>
		<stop  offset="0.8358" style="stop-color:#595656;stop-opacity:0.2507"/>
		<stop  offset="1" style="stop-color:#2F2B2C;stop-opacity:0.3"/>
	</radialGradient>
	<path style="fill:url(#SVGID_00000183944416086463877960000004110746367177674880_);" d="M1359.5,22.6c0,0-12.4-1.7-14.1,10.7
		l-17.1,121.5c0,0-1.7,12.4,10.7,14.1l82.7,11.6c0,0,12.4,1.7,14.1-10.7l17.1-121.5c0,0,1.7-12.4-10.7-14.1L1359.5,22.6L1359.5,22.6
		z"/>
	
		<radialGradient id="SVGID_00000082358028584182262890000015392973029260633011_" cx="1815.5" cy="204.2256" r="71.1921" gradientTransform="matrix(1 0 0 1 0 -75.2756)" gradientUnits="userSpaceOnUse">
		<stop  offset="4.475343e-07" style="stop-color:#FFFFFF;stop-opacity:0"/>
		<stop  offset="0.1022" style="stop-color:#F3F3F3;stop-opacity:3.065731e-02"/>
		<stop  offset="0.2882" style="stop-color:#D3D2D2;stop-opacity:8.645798e-02"/>
		<stop  offset="0.537" style="stop-color:#9F9E9E;stop-opacity:0.1611"/>
		<stop  offset="0.8358" style="stop-color:#595656;stop-opacity:0.2507"/>
		<stop  offset="1" style="stop-color:#2F2B2C;stop-opacity:0.3"/>
	</radialGradient>
	<path style="fill:url(#SVGID_00000082358028584182262890000015392973029260633011_);" d="M1784.4,50c0,0-12.4-1.7-14.1,10.7
		l-17.1,121.5c0,0-1.7,12.4,10.7,14.1l82.7,11.6c0,0,12.4,1.7,14.1-10.7l17.1-121.5c0,0,1.7-12.4-10.7-14.1L1784.4,50L1784.4,50z"/>
	<path class="st3" d="M1530.2,56.6h69.5c5.8,0,10.6,4.7,10.6,10.6v102.3c0,5.8-4.7,10.6-10.6,10.6h-69.5c-5.8,0-10.6-4.7-10.6-10.6
		V67.2C1519.6,61.3,1524.3,56.6,1530.2,56.6z"/>
	<path class="st0" d="M1576.9,91.8c-6.1,0-12.2,0-18.3,0c-1,0-1.8-0.5-2.1-1.3c-0.3-0.9-0.1-2.1,0.6-2.6c0.5-0.3,1.1-0.5,1.7-0.5
		c6.5,0,13.1,0,19.6,0c5.5,0,11.1,0,16.6,0c1.6,0,2.4,0.8,2.4,2.3c0,1.2-0.8,2.1-2.1,2.1c-2.9,0-5.8,0-8.7,0
		C1583.4,91.8,1580.1,91.8,1576.9,91.8L1576.9,91.8z"/>
	<path class="st0" d="M1576.9,114.4c-5.9,0-11.8,0-17.7,0c-0.5,0-1,0-1.5-0.1c-1-0.3-1.5-1.3-1.3-2.4c0.1-1,0.9-1.8,1.9-1.8
		c0.9-0.1,1.7,0,2.6,0c11.3,0,22.6,0,33.9,0c1.6,0,2.5,0.8,2.5,2.2c0,1.3-0.8,2.2-2.2,2.2c-3.4,0-6.8,0-10.2,0
		C1582.3,114.4,1579.6,114.4,1576.9,114.4"/>
	<path class="st0" d="M1576.9,136.9c-6.1,0-12.1,0-18.2,0c-1.6,0-2.5-1.1-2.2-2.7c0.2-1,0.9-1.7,2.1-1.7s2.4,0,3.5,0
		c10.9,0,21.9,0,32.8,0c0.5,0,1,0.1,1.5,0.3c0.9,0.4,1.3,1.5,1.1,2.5c-0.2,1-1,1.6-2.1,1.6c-3.9,0-7.8,0-11.8,0L1576.9,136.9
		L1576.9,136.9z"/>
	<path class="st0" d="M1540.6,135.3L1540.6,135.3c-1,0-2.1,0-3.1,0c-1.3,0-3,0.9-2.9,2.9c0.1,1.9,0,3.8,0,5.7c0,1.8,1.2,3,3,3
		c1.9,0,3.8,0,5.7,0c1.7,0,2.8-0.9,2.8-2.6c0.1-2.2,0.1-4.4,0-6.6c-0.1-1.4-1.1-2.3-2.6-2.4C1542.6,135.3,1541.6,135.3,1540.6,135.3
		 M1549,141.1c0,1,0,2.1,0,3.1c0,2.9-2,5.2-4.8,5.4c-2.5,0.2-5.1,0.2-7.7,0c-2.7-0.2-4.7-2.7-4.7-5.4c0-2,0-4.1,0-6.1
		c0-3,2.1-5.4,5.1-5.6c2.5-0.1,4.9-0.1,7.4,0s4.6,2.4,4.7,5C1549,138.7,1549,139.9,1549,141.1L1549,141.1L1549,141.1z"/>
	<path class="st0" d="M1540.6,112.8L1540.6,112.8c-1.1,0.1-2.1,0-3.2,0.1c-1.8,0-2.8,1.1-2.8,2.8c0,1.9,0,3.9,0,5.8
		c0,1.7,1.3,2.9,3,3c2,0,3.9,0,5.9,0c1.1,0,1.9-0.5,2.4-1.6c0.2-0.5,0.3-1.1,0.3-1.6c0-1.9,0-3.8,0-5.7c0-0.3,0-0.6-0.1-0.9
		c-0.2-1.1-1.3-1.9-2.3-1.9C1542.7,112.8,1541.7,112.8,1540.6,112.8 M1548.9,118.4c0,1.4,0.2,2.9,0,4.3c-0.4,2.5-2.3,4.3-4.8,4.4
		c-2.4,0.1-4.9,0.1-7.3-0.1c-2.7-0.2-4.8-2.7-4.9-5.4c0-1.9,0.1-3.9,0-5.8c-0.1-3.5,2.7-5.6,5.2-5.7c2.4-0.1,4.9-0.1,7.3,0
		c2.6,0.1,4.6,2.3,4.7,5c0,1.1,0,2.2,0,3.3C1548.9,118.4,1548.9,118.4,1548.9,118.4"/>
	<path class="st0" d="M1545.6,87.7c-0.8,0.8-1.4,1.5-2.2,2.2c-0.1,0.1-0.4,0.2-0.7,0.2c-1.7,0-3.4,0-5.1,0c-1.9,0-3,1.1-3,3
		s0,3.7,0,5.6c0,1.8,1.2,3,3,3c1.9,0,3.8,0,5.7,0c1.8,0,2.9-1,2.9-2.8c0-0.8,0-1.6,0-2.4c0-0.2,0.1-0.5,0.2-0.6
		c0.8-0.8,1.6-1.7,2.5-2.6c0.1,0.3,0.1,0.4,0.1,0.5c0,1.8,0,3.5,0,5.3c-0.1,2.9-2.1,5.2-5,5.4c-2.4,0.1-4.8,0.1-7.2,0
		c-2.8-0.2-4.9-2.7-5-5.5c0-2.1,0-4.1,0-6.2c0-2.6,2.1-5.1,4.7-5.2c2.7-0.2,5.4,0,8.1,0C1544.9,87.5,1545.2,87.6,1545.6,87.7"/>
	<path class="st0" d="M1568,122c-3.1,0-6.3,0-9.4,0c-1.8,0-2.8-1.9-1.9-3.4c0.4-0.7,1.1-1,1.9-1c4.5,0,9,0,13.5,0c1.7,0,3.4,0,5.1,0
		c1.5,0,2.4,0.8,2.4,2.2c0,1.4-0.9,2.2-2.4,2.2C1574.1,122,1571,122,1568,122"/>
	<path class="st0" d="M1568,94.8c3.1,0,6.2,0,9.3,0c1.3,0,2.2,0.8,2.2,2.1c0,1.4-0.8,2.3-2.2,2.3c-6.3,0-12.5,0-18.8,0
		c-1.3,0-2.2-0.9-2.2-2.3c0-1.3,0.9-2.1,2.2-2.1C1561.7,94.8,1564.9,94.8,1568,94.8"/>
	<path class="st0" d="M1568,140c3.1,0,6.2,0,9.3,0c1.4,0,2.3,0.8,2.3,2.2s-0.9,2.3-2.3,2.3c-6.2,0-12.4,0-18.6,0
		c-1.7,0-2.7-1.6-2.1-3.2c0.4-0.9,1.1-1.3,2-1.3C1561.7,140,1564.8,140,1568,140"/>
	<path class="st0" d="M1540.4,95.4c0.7-0.8,1.4-1.4,2-2.1c2-2,4-4.1,6.1-6.1c0.5-0.5,1-0.6,1.6-0.3c0.6,0.3,0.9,0.8,0.8,1.4
		c-0.1,0.3-0.2,0.7-0.5,0.9c-3,3-5.9,6-8.9,9c-0.7,0.7-1.4,0.7-2.1,0s-1.3-1.3-2-2c-0.6-0.6-0.6-1.4,0-2c0.6-0.5,1.4-0.5,2,0
		C1539.8,94.6,1540.1,95,1540.4,95.4"/>
	<line class="st22" x1="1563.3" y1="56.6" x2="1563.3" y2="-10.3"/>
	<line class="st22" x1="1472.6" y1="56.6" x2="1472.6" y2="-10.3"/>
	<line class="st22" x1="1658.1" y1="76.3" x2="1658.1" y2="-11.4"/>
	<path class="st3" d="M1435.5,20.4c0,0-9.6,2.2-7.4,11.8l21.7,94.1c0,0,2.2,9.6,11.8,7.4l64-14.8c0,0,9.6-2.2,7.4-11.8L1511.4,13
		c0,0-2.2-9.6-11.8-7.4C1499.5,5.6,1435.5,20.4,1435.5,20.4z"/>
	<path class="st0" d="M1474.7,84c0.5-2,0.9-3.9,1.3-5.9c0.2-1,0.7-1.7,1.6-2c0.3-0.1,0.2-0.3,0.3-0.5c0.8-4.5,1.5-9,2.3-13.5
		c0.6-3.6,1.2-7.1,1.8-10.7c0.1-0.4,0.2-0.5,0.5-0.4c0.4,0.1,0.9,0.2,1.3,0.2s0.5,0.2,0.4,0.6c-1.2,6.7-2.3,13.5-3.5,20.2
		c-0.2,1.3-0.4,2.6-0.7,3.9c-0.1,0.3,0,0.5,0.2,0.7c0.7,0.6,0.9,1.5,0.7,2.4c-0.8,3.6-1.6,7.2-2.4,10.8c-0.5,2-2.3,2.7-4.1,1.5
		c-1-0.7-1.7-1.6-2.5-2.4c-0.7-0.7-1.5-1.4-2.1-2.2c-0.3-0.3-0.5-0.4-0.9-0.1c-0.7,0.4-0.7,0.4-0.4,1.1c1.1,2.1,2.2,4.3,3.3,6.4
		c0.9,1.7,1.8,3.4,2.7,5.2c0.2,0.3,0.2,0.5-0.2,0.7c-6,3-12,6.1-18,9.2c-0.3,0.2-0.5,0.1-0.6-0.2c-2.3-4.6-4.6-9.1-6.9-13.7
		c-0.8-1.6-1.2-3.3-0.8-5c0.4-1.9,1.5-3.2,3-4.2s3.1-1.6,4.6-2.4c2.1-1.1,4.3-2.2,6.4-3.3c3.8-1.9,8-1.2,10.9,1.9
		C1473.6,82.8,1474.1,83.3,1474.7,84"/>
	<path class="st0" d="M1470.5,45.1c8.2-4.2,16.3-8.3,24.5-12.5c1.3-0.7,2.5-0.1,3,1c7,13.8,14.1,27.6,21.1,41.4c0.7,1.3,0.3,2.3-1,3
		c-12.8,6.5-25.5,13-38.3,19.5c-0.4,0.2-0.6,0.2-0.8-0.3c-0.4-0.9-0.8-1.7-1.3-2.5c-0.1-0.2-0.1-0.4,0.2-0.5c0.1,0,0.2-0.1,0.4-0.2
		c12-6.1,24.1-12.3,36.1-18.4c0.7-0.3,0.6-0.2,0.3-0.9c-6.4-12.5-12.7-24.9-19.1-37.4c-0.2-0.4-0.5-0.5-0.9-0.3
		c-15,7.7-30.1,15.3-45.1,23c-0.7,0.3-0.6,0.2-0.3,0.9c0.6,1.1,1.1,2.2,1.7,3.3c0.2,0.3,0.1,0.5-0.2,0.6c-0.9,0.4-1.7,0.9-2.6,1.3
		c-0.3,0.1-0.4,0.1-0.6-0.2c-0.9-1.9-1.9-3.7-2.8-5.6c-0.5-1.1-0.2-2.1,0.9-2.7C1454,53.5,1462.3,49.3,1470.5,45.1"/>
	<path class="st0" d="M1451.6,69.4c3.2-1.7,7.2-0.4,8.9,2.8c1.7,3.2,0.4,7.2-2.9,8.9c-3.2,1.6-7.2,0.3-8.8-2.9
		C1447,75,1448.3,71,1451.6,69.4"/>
	<line class="st22" x1="1719.2" y1="56.6" x2="1719.2" y2="-10.3"/>
	<path class="st3" d="M1680.3,18.1c0,0-10.2,0.9-9.3,11.1l8.8,100.4c0,0,0.9,10.2,11.1,9.3l68.3-6c0,0,10.2-0.9,9.3-11.1l-8.8-100.4
		c0,0-0.9-10.2-11.1-9.3C1748.6,12.2,1680.3,18.1,1680.3,18.1z"/>
	<path class="st0" d="M1720.1,91.9L1720.1,91.9c0.7,0,1.4-0.1,2.2,0c0.7,0.1,1-0.2,1.2-1c0.8-3.8,2.4-7.2,5.1-10
		c1.4-1.4,2.5-3.1,3.6-4.8c1.6-2.7,2.2-5.7,1.6-9c-1.8-9.8-12-15.5-20.9-11.6c-6.4,2.8-9.9,10.2-8.1,17.1c0.9,3.3,2.9,6.1,5.4,8.3
		c3.2,2.9,5.4,6.4,6.7,10.5c0.1,0.4,0.3,0.6,0.7,0.5C1718.4,91.9,1719.2,91.9,1720.1,91.9 M1727.8,96.6c-4.9,0.1-9.8,0.2-14.5,0.3
		c-0.3-1.5-0.5-3-0.9-4.4c-0.8-2.8-2.3-5.2-4.5-7.2c-3.2-2.9-5.9-6.2-7.4-10.3c-3-8.6,0.5-18.4,8.4-23c11.7-6.9,27.1,0.4,29.6,14.2
		c1,5.3-0.1,10.1-3.1,14.4c-1,1.4-2,2.8-3.3,4c-2.6,2.6-3.7,5.8-4.1,9.4C1727.9,94.8,1727.9,95.7,1727.8,96.6"/>
	<path class="st0" d="M1726.2,111.7c-0.4,2-0.9,2.5-2.9,2.5c-1.4,0-2.7,0.1-4.1,0.1c-1.8,0-2.5-0.6-2.9-2.3
		c-1.8-0.5-2.5-1.2-2.6-2.6c0-1.4,0.8-2.4,2.1-2.4c3.4-0.1,6.8-0.2,10.2-0.2c1.2,0,2.2,0.9,2.3,2.1c0.2,1.3-0.4,2.4-1.6,2.7
		C1726.6,111.6,1726.4,111.7,1726.2,111.7"/>
	<path class="st0" d="M1682.3,72.6c-0.1-1.7-0.2-3.2-0.2-4.9c4.9-0.1,9.8-0.2,14.7-0.3c0.1,1.6,0.2,3.2,0.2,4.9
		C1692.1,72.4,1687.2,72.5,1682.3,72.6"/>
	<path class="st0" d="M1755.9,66c0.1,1.6,0.2,3.2,0.2,4.8c-4.9,0.1-9.7,0.2-14.7,0.3c-0.1-1.6-0.2-3.2-0.2-4.8
		C1746.1,66.3,1751,66.2,1755.9,66"/>
	<path class="st0" d="M1720.9,104.3c-1.6,0-3.1,0.1-4.7,0.1c-1.7,0-2.7-0.8-2.8-2.4c-0.1-1.5,0.9-2.5,2.5-2.5
		c3.2-0.1,6.4-0.2,9.5-0.2c1.9,0,3.1,1.5,2.5,3.4c-0.3,1-1.1,1.5-2.2,1.6C1724.1,104.2,1722.5,104.3,1720.9,104.3"/>
	<path class="st0" d="M1702.3,50.4c-1,1.1-2,2.2-3.1,3.3c-3-2.9-6.1-5.8-9.1-8.6c1-1.1,2-2.2,3-3.4
		C1696.2,44.6,1699.3,47.5,1702.3,50.4"/>
	<path class="st0" d="M1737.3,52.9c-1.1-1.1-2.3-2.1-3.4-3.2c2.8-3,5.5-6.1,8.3-9.1c1.1,1,2.2,2.1,3.3,3.2
		C1742.9,46.8,1740.1,49.8,1737.3,52.9"/>
	<path class="st0" d="M1704.4,89c-2.7,2.9-5.4,6-8.2,8.9c-1.1-1.1-2.3-2.2-3.5-3.3c2.7-2.9,5.4-6,8.2-9
		C1702.1,86.7,1703.2,87.8,1704.4,89"/>
	<path class="st0" d="M1735.7,88.1c1-1.1,2.1-2.3,3.3-3.6c3,2.9,6.1,5.8,9.1,8.7c-1.1,1.2-2.2,2.4-3.2,3.5
		C1741.8,93.9,1738.8,91,1735.7,88.1"/>
	<path class="st0" d="M1720.4,46.7c-1.6,0-3.1,0.1-4.7,0.1c-0.2-3.3-0.3-6.5-0.5-9.9c1.6,0,3.1-0.1,4.7-0.1
		C1720,40.1,1720.2,43.4,1720.4,46.7"/>
	<line class="st22" x1="1910.5" y1="56.6" x2="1910.5" y2="-11.4"/>
	<path class="st3" d="M1881.6,40c0,0-9,0.8-8.2,9.8l7.7,88.2c0,0,0.8,9,9.8,8.2l60-5.2c0,0,9-0.8,8.2-9.8l-7.7-88.2
		c0,0-0.8-9-9.8-8.2L1881.6,40z"/>
	<path class="st0" d="M1924.6,125.7l-14.4,1.3l-1.3-14.4l14.4-1.3L1924.6,125.7z M1894.1,59.3c5.2-2.5,10.5-3.8,15.7-4.2
		c13.6-1.2,22.8,3.8,23.9,16c0.5,5.9-1.1,10.3-6.5,18c-5.2,7.2-5.7,10-5.4,13.9l0.1,0.8l-13.1,1.1l-0.1-1.2
		c-0.6-6.3,0.2-9.3,5.8-17.9c2.9-4.4,4.3-7.6,4-11.1c-0.5-5.8-4.8-7.9-10.9-7.4c-4,0.4-8.1,1.7-11.8,3.9L1894.1,59.3L1894.1,59.3z"
		/>
	<path class="st3" d="M1634.2,55.6c0,0-8.1-3.3-11.4,4.8l-32.2,79.7c0,0-3.3,8.1,4.8,11.4l54.2,21.9c0,0,8.1,3.3,11.4-4.8l32.2-79.7
		c0,0,3.3-8.1-4.8-11.4C1688.4,77.5,1634.2,55.6,1634.2,55.6z"/>
	<path class="st0" d="M1609.1,128.8c1.2,0.5,2.3,0.9,3.6,1.5c-0.2,0.4-0.3,0.7-0.4,1c-0.8,2-1.6,3.9-2.4,5.9
		c-0.5,1.3-0.1,2.3,1.2,2.8c11.8,4.8,23.5,9.5,35.3,14.3c1.4,0.6,2.3,0.2,2.9-1.2c0.9-2.2,1.8-4.5,2.8-6.8c1.2,0.5,2.3,0.9,3.5,1.4
		c-0.1,0.2-0.1,0.4-0.2,0.6c-0.9,2.1-1.7,4.3-2.6,6.4c-1.3,3.2-4.5,4.6-7.7,3.3c-11.9-4.8-23.8-9.6-35.7-14.4
		c-2.5-1-3.8-3.2-3.7-5.9c0-0.2,0-0.4,0-0.7L1609.1,128.8L1609.1,128.8z"/>
	<path class="st0" d="M1652.9,103.4c-1.6-0.6-3.1,1.1-5.2,6.3c-1.9,4.7-2,7.1-0.4,7.8c1.6,0.6,3.1-1.1,5.1-5.9
		C1654.5,106.3,1654.5,104,1652.9,103.4"/>
	<path class="st0" d="M1645.9,120.7c-4.5-1.8-5.1-6.5-2.5-13c2.6-6.4,6.3-9.4,10.9-7.6c4.6,1.9,4.9,6.6,2.3,13
		C1654.1,119.6,1650.6,122.6,1645.9,120.7 M1637.1,116.7l-4.5-1.8l4.3-10.6c0.7-1.7,1.7-3.8,2.1-4.8h-0.1c-0.8,0.3-2.4,0.7-4.2,1.2
		l-0.5-4l6.9-1.4l4,1.6L1637.1,116.7L1637.1,116.7z M1670.7,124c-2.1-1.1-4.3-2-6.5-2.9c-1.9-0.8-3.8-1.6-6-2.4
		c0.3-0.8,0.6-1.4,0.8-2c3-7.4,5.9-14.8,9-22.2c1.3-3.2,1.4-6.3-0.4-9.3c-0.8-1.4-2.1-2.5-3.2-3.7c-5.2-2.1-10.5-4.2-15.7-6.4
		c-0.2,0-0.3,0.1-0.5,0.1c-5.9-0.3-9,1.7-11.3,7.2c-2.9,7.2-5.8,14.5-8.8,21.7c-0.2,0.6-0.5,1.2-0.8,2c-0.8-0.3-1.4-0.6-2-0.8
		c-3.5-1.3-7-2.7-10.5-3.9c-1.6-0.6-2.3,0.1-1.9,1.8c0.3,1.1,0.7,2.3,1.2,3.4c4.3,10.2,8.6,20.4,13,30.6c0.6,1.3,1.3,2.6,2.1,3.9
		c0.8,1.3,2,1.7,3.5,1.5c0.8-0.2,1.7-0.4,2.4-0.7c11.3-4.8,22.6-9.5,33.9-14.3c0.6-0.3,1.2-0.6,1.8-1
		C1672,125.5,1672,124.6,1670.7,124"/>
	<line class="st22" x1="1395.3" y1="56.6" x2="1395.3" y2="-10.3"/>
	<path class="st3" d="M1356.9,20.2c0,0-12.4-1.7-14.1,10.7l-17.1,121.5c0,0-1.7,12.4,10.7,14.1l82.7,11.6c0,0,12.4,1.7,14.1-10.7
		l17-121.4c0,0,1.7-12.4-10.7-14.1L1356.9,20.2L1356.9,20.2z"/>
	<path class="st0" d="M1356.4,133.8c16.7,2.7,33.5,5.3,50.2,7.9c3.1-19.6,6.2-39.1,9.3-58.6c-16.8-2.7-33.4-5.3-50.2-7.9
		C1362.6,94.7,1359.5,114,1356.4,133.8 M1376.6,60.5c-0.6,6.4,1.5,9.1,7.4,10.1c5.4,0.9,10.9,1.7,16.3,2.6c5.3,0.8,8.2-1.1,9.5-6.5
		c0.1-0.2,0.2-0.4,0.3-0.6c3.7,0.6,7.4,0.9,11,1.8c3.1,0.8,4.2,3.6,3.6,7.2c-3,18.8-5.9,37.6-8.9,56.4c-0.6,4.1-1.3,8.1-1.9,12.2
		c-0.7,4.5-3.2,6.3-7.6,5.6c-17.2-2.7-34.4-5.4-51.7-8.2c-4.4-0.7-6.1-3.1-5.5-7.4c3.6-23.1,7.3-46.3,11-69.4
		c0.7-4.3,2.9-5.8,7.1-5.2C1370.3,59.5,1373.4,60,1376.6,60.5"/>
	<path class="st0" d="M1390.1,125.8c3.5,0.6,7.1,1.2,10.6,1.7c1.5,0.2,2.3,0.8,2,2.5s-1.1,2.2-2.8,1.9c-7-1.2-14-2.3-21-3.3
		c-1.5-0.2-2.5-0.7-2.2-2.6c0.3-2,1.4-2.2,3-1.9C1383.1,124.7,1386.6,125.2,1390.1,125.8C1390.1,125.7,1390.1,125.8,1390.1,125.8"/>
	<path class="st0" d="M1392.4,112.6c3.5,0.6,6.9,1.1,10.4,1.6c1.5,0.2,2.3,0.8,2,2.5s-1.1,2.2-2.8,1.9c-7-1.1-14-2.2-21-3.3
		c-1.5-0.2-2.5-0.7-2.2-2.5c0.3-2,1.4-2.2,3-1.9C1385.3,111.5,1388.9,112,1392.4,112.6L1392.4,112.6"/>
	<path class="st0" d="M1393.4,105.1c-3.6-0.6-7.2-1.2-10.8-1.7c-1.4-0.2-2.1-0.8-1.9-2.4s1-2.1,2.6-1.9c7.2,1.2,14.4,2.3,21.7,3.4
		c1.5,0.2,2,0.9,1.7,2.4c-0.2,1.5-0.9,2-2.4,1.8C1400.6,106.2,1397,105.7,1393.4,105.1"/>
	<path class="st0" d="M1396.3,87.7c3.5,0.6,7.1,1.2,10.6,1.7c1.4,0.2,2.1,0.9,1.8,2.4c-0.2,1.4-0.9,2.1-2.4,1.9
		c-7.3-1.2-14.6-2.3-21.9-3.5c-1.5-0.2-2-1-1.7-2.5c0.2-1.5,1-2,2.5-1.7C1388.9,86.5,1392.6,87.1,1396.3,87.7"/>
	<path class="st0" d="M1373.6,86.3c1.7-1.4,3.3-2.8,4.9-4c0.5-0.4,1.4-0.1,2.1-0.2c-0.2,0.7-0.2,1.6-0.7,2c-1.7,1.6-3.6,3.1-5.4,4.6
		c-0.9,0.8-1.7,0.7-2.4-0.2c-0.7-0.9-1.7-1.7-2.3-2.7c-0.3-0.5,0-1.3,0-1.9c0.6,0.1,1.3,0,1.7,0.3
		C1372.3,84.7,1372.8,85.5,1373.6,86.3"/>
	<path class="st0" d="M1369.6,111.8c1.8-1.4,3.3-2.8,5-4c0.5-0.3,1.4-0.1,2.1-0.1c-0.2,0.6-0.2,1.5-0.6,1.9
		c-1.8,1.7-3.6,3.3-5.6,4.7c-0.5,0.3-1.6,0.4-2.1,0c-1-0.8-1.9-1.9-2.6-2.9c-0.3-0.4-0.1-1.2-0.1-1.8c0.6,0.1,1.4-0.1,1.9,0.2
		C1368.3,110.2,1368.8,111,1369.6,111.8"/>
	<path class="st0" d="M1371.6,99.4c1.7-1.4,3.1-2.7,4.7-3.8c0.6-0.4,1.5-0.3,2.3-0.5c-0.2,0.7-0.3,1.7-0.8,2.2
		c-1.7,1.6-3.4,3.1-5.3,4.4c-0.5,0.4-1.8,0.3-2.4-0.1c-1-0.7-1.8-1.7-2.5-2.8c-0.3-0.4,0-1.2,0.1-1.8c0.6,0,1.3-0.1,1.7,0.2
		C1370.2,97.7,1370.8,98.5,1371.6,99.4"/>
	<path class="st0" d="M1367.6,124.4c1.6-1.3,3.1-2.6,4.7-3.8c0.6-0.4,1.5-0.3,2.2-0.5c-0.3,0.8-0.3,1.8-0.9,2.3
		c-1.6,1.5-3.4,2.9-5,4.3c-1,0.8-1.7,0.9-2.6-0.2c-0.7-0.9-1.6-1.6-2.2-2.5c-0.3-0.5-0.1-1.4-0.1-2.1c0.6,0.1,1.4,0.1,1.9,0.4
		C1366.4,122.9,1366.9,123.7,1367.6,124.4"/>
	<path class="st0" d="M1403,61.7c-2.4-0.5-3.6-1.9-3.8-4.3c-0.2-2.4-2.1-4.4-4.3-4.6c-2.3-0.3-4.5,1.1-5.3,3.2
		c-0.8,2.2-2.4,3.2-4.6,2.8c-2.9-0.4-5,0.9-5.4,3.5c-0.5,2.6,1,4.5,4,5.1c2.9,0.5,5.9,1,8.9,1.4c3.1,0.5,6.2,1.1,9.3,1.4
		c2.8,0.3,4.7-1.2,5.1-3.7C1407.1,64.1,1405.6,62.2,1403,61.7"/>
	<line class="st22" x1="1822.6" y1="56.6" x2="1822.6" y2="-10.3"/>
	<path class="st3" d="M1781.7,47.6c0,0-12.4-1.7-14.1,10.7l-17.1,121.5c0,0-1.7,12.4,10.7,14.1l82.7,11.6c0,0,12.4,1.7,14.1-10.7
		l17-121.4c0,0,1.7-12.4-10.7-14.1L1781.7,47.6L1781.7,47.6z"/>
	<path class="st0" d="M1786,143.6c5.8,10.7,16.8,11.2,24.2,3.4c2.7,1.6,5.5,3.2,8.3,4.9c1.9,1.2,3.9,2.5,5.5,4c4,3.5,5.4,8.3,6,13.4
		c0.2,2,0.1,4.1,0.1,6.2c0,0.9-0.5,1.4-1.4,1.6c-4.2,1-8.4,1.4-12.7,1.4c-10.7,0-21.2-1.2-31.7-3.2c-7.6-1.5-15.2-3.3-22.2-6.7
		c-0.8-0.4-1.7-0.8-2.5-1.4c-0.4-0.3-0.7-0.9-0.6-1.3c1.5-7.2,4.3-13.5,11-17.4c1.6-0.9,3.3-1.5,5.1-2
		C1778.7,145.5,1782.4,144.6,1786,143.6"/>
	<path class="st0" d="M1814.8,137.7c-0.1,0.2-0.2,0.3-0.3,0.4c-2.1,1.8-3.5,4.2-5,6.4c-1.3,2-3.2,3.5-5.3,4.5c-5,2.5-10.3,1.3-14-3
		c-2-2.3-3.1-5-3.7-7.9c-0.1-0.6-0.3-1.1-0.7-1.6c-2-3.2-3.1-6.6-2.3-10.4c0.2-1.2,0.6-2.3,1.7-3c0.3-0.2,0.4-0.6,0.5-1
		c0.4-2.2,0.6-4.4,1.2-6.5c0.8-2.9,2.6-5.3,4.8-7.4c0.4-0.3,0.8-0.7,1.3-0.9c5.2-2.3,10.5-2.1,15.8-0.1c-0.7,1.5-0.6,2.8,0.2,4.1
		c-0.3,1-0.9,1.4-2,1.3c-1.5-0.2-2.7,0.7-3.2,2.2c-0.4,1.5-0.8,3.1-0.8,4.6c0,1.4,0.8,2.4,2.3,2.8c0.4,0.1,0.7,0.7,0.9,1.1
		c0.1,0.3-0.2,0.9-0.5,1.1c-1.4,1.2-1.8,2.5-1,4.1c0.7,1.3,1.6,2.7,2.6,3.8c1.1,1.1,2.3,1.2,3.6,0.4c0.6-0.3,0.9-0.2,1.4,0.1
		s0.6,0.6,0.5,1.2C1812.7,135.6,1813.3,136.8,1814.8,137.7"/>
	<path class="st0" d="M1827.8,121.6c0.6-3.8-2-7.3-5.8-7.9c-3.9-0.6-7.4,2-8,5.8c-0.6,3.7,2.1,7.4,5.9,8
		C1823.7,128.1,1827.2,125.5,1827.8,121.6 M1826.8,107.7c-0.4,0.8,0,1.5,0.9,1.9c0.1,0.1,0.3,0.1,0.4,0.2c1.2,1.1,2.4,1.6,3.8,0.3
		c0.2-0.2,1.2,0,1.4,0.3c0.8,0.9,1.4,1.9,2,2.9c0.5,0.8,0.2,1.4-0.6,1.9c-1.4,0.9-1.4,0.9-1.1,2.7c0,0.2,0.1,0.3,0.1,0.5
		c-0.1,1.5,0.7,2.2,2.1,2.4c0.8,0.1,1.2,0.7,1.1,1.4c-0.2,1.2-0.4,2.3-0.7,3.5c-0.2,0.8-0.9,1.1-1.7,0.9c-1.7-0.4-1.7-0.4-2.7,1.1
		c-0.1,0.2-0.2,0.4-0.4,0.5c-1.1,0.9-1.1,1.9-0.2,3c0.6,0.7,0.4,1.4-0.3,1.9c-0.9,0.7-1.8,1.3-2.8,1.8c-0.8,0.5-1.6,0.3-2-0.6
		c-0.5-1.2-1.3-1.6-2.6-1.1c-0.2,0.1-0.3,0.1-0.5,0.1c-1.6-0.1-2.3,0.7-2.5,2.2c-0.1,0.4-0.8,1-1.1,0.9c-1.3-0.1-2.7-0.4-4-0.8
		c-0.7-0.2-0.9-0.8-0.7-1.4c0.5-1.4,0.1-2.4-1.3-3c-0.1,0-0.2-0.1-0.3-0.2c-1-1-2-1.2-3.1-0.2c-0.6,0.6-1.3,0.4-1.8-0.2
		c-0.7-1-1.3-2-1.9-3c-0.5-0.8-0.2-1.5,0.6-1.8c1.3-0.6,1.7-1.5,1.1-2.8c-0.1-0.2-0.1-0.3-0.1-0.5c0.1-1.4-0.5-2.1-2-2.2
		c-0.9,0-1.3-0.6-1.2-1.5c0.2-1.1,0.4-2.3,0.7-3.4c0.2-0.9,0.8-1.3,1.7-0.9c1.4,0.5,2.3,0,2.9-1.3c0.1-0.1,0.2-0.2,0.2-0.3
		c1-1.4,1.1-1.4,0.1-2.9c-0.5-0.8-0.5-1.5,0.3-2c0.9-0.6,1.8-1.3,2.8-1.8c0.8-0.5,1.5-0.3,1.9,0.6c1.1,1.8,1.1,1.5,2.8,1.1
		c0.2,0,0.3-0.1,0.5-0.1c1.4,0,2.1-0.5,2.2-2c0-0.9,0.7-1.3,1.5-1.2c1.1,0.2,2.2,0.4,3.3,0.7C1827,105.7,1827.1,106.1,1826.8,107.7"
		/>
	<path class="st0" d="M1820.6,91.1c-0.4,3.3,1.8,6.3,5.2,6.8c3.2,0.5,6.4-1.9,6.8-5.2c0.4-3.3-1.9-6.4-5.1-6.8
		C1824.1,85.4,1821.1,87.8,1820.6,91.1 M1824.4,78.8c0.4,0.5,0.7,0.8,0.8,1.2c0.3,0.9,0.8,1.3,1.8,1.2c0.8,0,1.6,0.1,2.4,0.4
		s1.4,0.1,1.9-0.6c0.5-0.8,1.2-0.9,2-0.4c1,0.8,2,1.6,2.9,2.4c0.6,0.5,0.6,1.2,0.1,1.7c-0.7,0.7-0.6,1.4-0.2,2.2
		c0.4,0.7,0.7,1.5,0.9,2.3c0.2,0.8,0.6,1.2,1.4,1.2c1.1,0,1.5,0.7,1.4,1.7c-0.2,1.2-0.3,2.4-0.5,3.5c-0.2,0.8-0.6,1.2-1.5,1
		s-1.4,0.1-1.9,0.9c-0.4,0.7-1,1.4-1.6,2s-0.8,1.2-0.4,2s0.2,1.4-0.6,1.8c-1.2,0.5-2.4,1-3.6,1.4c-0.8,0.3-1.3,0-1.5-0.8
		c-0.3-0.9-0.8-1.3-1.8-1.2c-0.8,0-1.6-0.1-2.4-0.4c-0.8-0.2-1.4-0.1-1.8,0.6c-0.6,0.9-1.3,1-2.1,0.4c-1-0.7-1.9-1.5-2.8-2.3
		c-0.6-0.5-0.7-1.1-0.1-1.7c0.7-0.7,0.7-1.3,0.2-2.2c-0.4-0.7-0.7-1.5-0.9-2.3c-0.2-0.8-0.6-1.2-1.4-1.2c-1.1,0-1.5-0.7-1.4-1.7
		c0.2-1.2,0.4-2.5,0.6-3.7c0.1-0.7,0.6-1,1.3-0.8c1,0.3,1.6-0.1,2.2-1c0.4-0.7,0.9-1.3,1.5-1.9c0.5-0.5,0.7-1.1,0.4-1.8
		c-0.5-1-0.2-1.6,0.8-2C1821.6,79.9,1822.9,79.4,1824.4,78.8"/>
	<path class="st0" d="M1840.4,132.3c-0.5,3.4,1.8,6.3,5.3,6.8c3.2,0.4,6.3-1.9,6.7-5.1c0.4-3.3-1.9-6.4-5.2-6.8
		C1843.8,126.7,1840.8,129,1840.4,132.3 M1839.6,124.5c-0.1-0.4-0.1-0.8-0.3-1.1c-0.4-0.8-0.1-1.4,0.6-1.7c1.2-0.5,2.5-1,3.7-1.4
		c0.7-0.3,1.2,0,1.4,0.8c0.3,1,0.8,1.3,1.8,1.4c0.8,0,1.7,0.2,2.5,0.4c0.7,0.2,1.3,0.1,1.7-0.6c0.6-0.9,1.3-0.9,2-0.3
		c1,0.8,1.9,1.5,2.8,2.3c0.6,0.6,0.7,1.2,0.1,1.8c-0.6,0.6-0.7,1.3-0.2,2.1c0.4,0.7,0.7,1.5,0.9,2.4c0.2,0.9,0.7,1.3,1.5,1.3
		c1,0.1,1.3,0.6,1.2,1.5c-0.2,1.2-0.3,2.4-0.5,3.5c-0.2,0.9-0.7,1.4-1.7,1.2c-0.8-0.2-1.3,0.1-1.8,0.8s-1,1.4-1.7,2
		c-0.6,0.6-0.8,1.1-0.4,1.9c0.5,0.9,0.1,1.6-0.8,1.9c-1.2,0.5-2.3,0.9-3.5,1.3c-0.7,0.3-1.2-0.1-1.5-0.8c-0.3-1-0.9-1.4-1.9-1.4
		c-0.8,0-1.5-0.2-2.3-0.4s-1.4-0.1-1.9,0.6c-0.5,0.7-1.1,0.9-1.8,0.3c-1.1-0.8-2.1-1.6-3.1-2.5c-0.6-0.5-0.6-1.1,0-1.7
		c0.8-0.7,0.7-1.5,0.2-2.4c-0.4-0.6-0.6-1.4-0.8-2.1c-0.2-0.9-0.6-1.4-1.5-1.4c-1-0.1-1.3-0.7-1.2-1.5c0.2-1.3,0.4-2.6,0.7-3.8
		c0.2-0.8,0.7-1,1.4-0.8c1,0.2,1.6-0.1,2.1-0.9c0.4-0.7,1.1-1.3,1.6-1.9C1839.2,125,1839.4,124.8,1839.6,124.5"/>
</g>
<g class="st23">
	<g>
		<g>
			<g>
				<g>
					<defs>
						<rect id="SVGID_00000101094743620974926160000012041926040991988889_" x="1790.4" y="177.1" width="222.8" height="214.4"/>
					</defs>
					<clipPath id="SVGID_00000076603802859030448090000002304284718159512234_">
						<use xlink:href="#SVGID_00000101094743620974926160000012041926040991988889_"  style="overflow:visible;"/>
					</clipPath>
					<g style="clip-path:url(#SVGID_00000076603802859030448090000002304284718159512234_);">
						<polygon class="st3" points="1954.9,297.1 1918,354.4 1844.9,322.7 1881.2,263.9 						"/>
						<polygon class="st10" points="1881.2,263.9 1844.9,322.7 1840.7,283.4 1875.5,226.4 						"/>
						<polygon class="st11" points="1875.5,226.4 1946.4,258.7 1954.9,297.1 1881.2,263.9 						"/>
						<polygon class="st11" points="1875.5,226.4 1946.4,258.7 1954.9,297.1 1881.2,263.9 						"/>
						<path class="st0" d="M1872.3,264.2c-0.7-6-1.4-12.1-2.1-18c-5.4,8.7-10.9,17.4-16.5,26.4c0.7,6.2,1.5,12.5,2.2,18.7
							C1861.4,282,1866.8,273.1,1872.3,264.2 M1850.8,295.8c1.8-3.2,2.4-5.3,2.2-7.5c-0.3-2-0.4-4.1-0.7-6.1c-0.3-2-1-1.8-2.7,0.6
							c-0.1,0.1-0.1,0.2-0.2,0.3c-0.2-1.4-0.4-2.6-0.4-4.2c0-1.3,0.6-3.1,1.7-4.8c5.5-8.8,10.8-17.3,16.1-25.6
							c1.1-1.7,2.3-3.6,3.3-5.3c1.2-1.9,1.9-2.1,2.1-0.5c0.7,6.2,1.5,12.3,2.2,18.5c0.2,1.6-0.3,3.2-1.5,5.2
							c-6.3,10.5-12.8,21.3-19.6,32.4c-1.3,2.1-1.9,2.3-2.1,0.7C1851,298.2,1850.8,297.1,1850.8,295.8"/>
						<path class="st0" d="M1867.3,258.5c-0.2-1.3-0.3-2.6-0.4-3.8c-0.1-0.5,0-1,0.4-1.7c0.5-0.8,0.7-0.8,0.7-0.2
							c0.3,2.5,0.6,5.1,0.9,7.6c0.1,0.5,0,1-0.5,1.9c-0.5,0.9-0.7,0.7-0.8,0.1C1867.7,261.1,1867.5,259.8,1867.3,258.5L1867.3,258.5
							L1867.3,258.5z"/>
						<path class="st0" d="M1863.7,264.4c-0.2-1.3-0.3-2.5-0.4-3.8c-0.1-0.5,0-1,0.5-1.8c0.5-0.8,0.7-0.8,0.8-0.2
							c0.3,2.6,0.6,5.1,0.9,7.6c0.1,0.5,0,1-0.5,1.9c-0.5,0.9-0.7,0.7-0.8,0.1C1863.9,267,1863.8,265.7,1863.7,264.4L1863.7,264.4
							L1863.7,264.4z"/>
						<path class="st0" d="M1861.6,267.9c0.2,1.3,0.3,2.7,0.4,4c0.1,0.5,0,1-0.4,1.7c-0.4,0.8-0.7,0.8-0.7,0.2c-0.3-2.7-0.6-5.3-1-8
							c-0.1-0.5,0.1-1,0.5-1.7c0.4-0.7,0.6-0.8,0.7-0.2C1861.3,265.2,1861.4,266.5,1861.6,267.9"/>
						<path class="st0" d="M1856.6,275.9c-0.2-1.3-0.3-2.6-0.4-3.9c-0.1-0.5,0.1-1,0.5-1.7c0.4-0.7,0.7-0.9,0.7-0.3
							c0.3,2.7,0.6,5.4,1,8.1c0.1,0.5-0.1,1.1-0.5,1.7c-0.4,0.7-0.6,0.7-0.7,0.2C1856.9,278.6,1856.7,277.3,1856.6,275.9"/>
						<path class="st0" d="M1858.2,283.1c-0.5,0.3-1,0.5-1.5,0.6c-0.2,0-0.2-0.3-0.3-0.5c0.2-0.3,0.4-0.8,0.6-0.9
							c0.6-0.3,1.1-0.5,1.7-0.8c0.3-0.2,0.3,0.1,0.2,0.8c-0.2,0.7-0.3,1.4-0.5,2.1c-0.1,0.3-0.3,0.7-0.5,1c0-0.2-0.1-0.3-0.1-0.6
							C1857.9,284.4,1858,283.8,1858.2,283.1"/>
						<path class="st0" d="M1865.4,271.3c-0.5,0.3-1,0.4-1.5,0.6c-0.2,0-0.2-0.3-0.2-0.5c0.2-0.3,0.4-0.7,0.5-0.8
							c0.6-0.3,1.2-0.6,1.7-0.8c0.2,0,0.3,0.3,0.2,0.6c-0.1,0.7-0.3,1.5-0.5,2.3c-0.1,0.3-0.3,0.6-0.4,1c0-0.2-0.2-0.3-0.1-0.6
							C1865.1,272.5,1865.2,272,1865.4,271.3"/>
						<path class="st0" d="M1861.9,277c-0.5,0.3-1,0.4-1.4,0.6c-0.2,0-0.3-0.3-0.3-0.4c0.3-0.3,0.5-0.8,0.7-0.9
							c0.6-0.3,1.1-0.6,1.6-0.7c0.2,0,0.3,0.3,0.2,0.8c-0.1,0.6-0.3,1.4-0.5,2.2c-0.1,0.3-0.3,0.6-0.5,0.9c0-0.2-0.2-0.3-0.1-0.6
							C1861.6,278.2,1861.8,277.7,1861.9,277"/>
						<path class="st0" d="M1868.9,265.6c-0.5,0.2-1,0.4-1.4,0.5c-0.2,0-0.2-0.3-0.3-0.4c0.3-0.3,0.5-0.8,0.7-0.9
							c0.5-0.3,1-0.4,1.6-0.7c0.3-0.2,0.3,0,0.2,0.8c-0.2,0.6-0.3,1.2-0.4,1.8c-0.1,0.3-0.3,0.7-0.5,1.1c0-0.3-0.1-0.4-0.1-0.8
							C1868.6,266.7,1868.7,266.2,1868.9,265.6"/>
						<path class="st0" d="M1848.7,287.4c0.1,1-0.2,2.1-0.9,3.4s-1,2.9-1,3.7c0.1,0.8,0.7,0.7,1.4-0.2c0.7-1,1.1-1,1.2-0.2
							c0.2,1,0.7,1,1.5-0.3c0.8-1.2,1.2-2.7,1-3.8c-0.1-1.1-0.3-2.3-0.3-3.3c-0.2-1.1-0.3-2.3-0.4-3.5c-0.2-1-0.8-0.8-1.5,0.4
							C1849,285,1848.7,286.4,1848.7,287.4"/>
						<path class="st0" d="M1909.4,320.7c-1.1-1.5-2.2-2.9-3.2-4.3c-0.5-0.7-0.6-1.3-0.2-1.9c0.2-0.2,0-0.3-0.1-0.4
							c-2.7-3.3-5.5-6.5-8.2-9.8c-2.2-2.6-4.4-5.3-6.7-8c-0.3-0.3-0.2-0.3,0.2-0.4c0.4-0.1,0.9-0.2,1.3-0.3c0.3-0.2,0.5,0,0.8,0.3
							c4.2,5,8.3,10,12.4,14.9c0.8,1,1.6,1.9,2.3,2.9c0.2,0.2,0.3,0.3,0.7,0.4c1,0.2,1.8,0.7,2.3,1.3c2,2.6,4,5.2,5.9,7.8
							c1.1,1.5,0.1,2.5-2.2,2.3c-1.2-0.1-2.5-0.4-3.7-0.7c-1.1-0.2-2.3-0.4-3.4-0.7c-0.5-0.1-0.7-0.1-0.9,0.2
							c-0.3,0.5-0.3,0.5,0.5,0.9c2.4,1,4.9,2,7.4,2.9c2,0.8,3.9,1.6,5.8,2.3c0.4,0.2,0.5,0.3,0.3,0.5c-2.6,4-5.2,8-7.8,11.9
							c-0.2,0.3-0.3,0.3-0.7,0.1c-5.1-2-10.3-4-15.5-6.1c-1.8-0.7-3.4-1.6-4.4-2.9c-1.1-1.3-1.2-2.6-0.7-3.7
							c0.4-1.1,1.3-2.1,1.9-3.2c1-1.5,1.9-2.9,2.9-4.3c1.6-2.6,5.6-3.6,10.3-2.5C1907.6,320.3,1908.4,320.5,1909.4,320.7"/>
						<path class="st0" d="M1876.3,296c3.6-5.8,7.4-11.6,11-17.5c0.6-1,2-1,3.3-0.3c16.6,7.4,32.7,14.4,48.3,21.3
							c1.5,0.6,1.9,1.4,1.3,2.3c-5.6,8.7-11.3,17.2-16.8,25.8c-0.2,0.3-0.3,0.3-0.9,0.1c-1-0.4-1.9-0.8-2.9-1.1
							c-0.3-0.1-0.3-0.2-0.3-0.3l0.2-0.3c5.3-8.1,10.6-16.2,16-24.4c0.3-0.4,0.3-0.3-0.3-0.7c-14.1-6.2-28.7-12.6-43.6-19.2
							c-0.4-0.2-0.8-0.2-1,0.1c-6.8,10.7-13.5,21.3-20.2,31.8c-0.3,0.4-0.3,0.3,0.4,0.7c1.4,0.5,2.7,1.1,4.1,1.6
							c0.4,0.2,0.4,0.3,0.3,0.5c-0.4,0.6-0.8,1.2-1.1,1.8c-0.1,0.2-0.3,0.3-0.6,0.1c-2.3-1-4.5-1.8-6.9-2.7
							c-1.3-0.5-1.8-1.3-1.4-2.1C1868.9,307.7,1872.5,301.9,1876.3,296"/>
						<path class="st0" d="M1879.3,319.3c1.5-2.3,5.7-2.8,9.5-1.2c3.8,1.6,5.8,4.6,4.3,6.9c-1.4,2.2-5.6,2.8-9.5,1.2
							C1879.8,324.6,1877.9,321.5,1879.3,319.3"/>
						<path class="st0" d="M1895.3,247.9c0.3,2.3,0.7,4.6,1.1,6.9c0.1,0.4-0.3,0.5-0.8,0.4c-0.6-0.1-1.5-0.5-1.8-1
							c-0.3-0.3-0.4-0.6-0.4-0.8c-0.4-2.5-0.8-4.9-1.1-7.4c-0.3-2.1-0.6-4.1-1-6.1c-0.1-0.6,0.4-0.7,1.4-0.3
							c0.9,0.3,1.5,0.9,1.6,1.3c0.2,1,0.3,2.1,0.5,3.2C1895,245.4,1895.2,246.7,1895.3,247.9L1895.3,247.9L1895.3,247.9z"/>
						<path class="st0" d="M1911,254.3c0.4,2.3,0.9,4.5,1.3,6.9c0,0.2,0.1,0.4,0,0.5c-0.2,0.3-0.8,0.2-1.6-0.2
							c-0.8-0.3-1.3-0.9-1.5-1.3c-0.1-0.3-0.2-0.7-0.2-1c-0.8-4.3-1.6-8.7-2.3-12.9c-0.1-0.6,0.3-0.7,1.4-0.3c0.9,0.3,1.6,1,1.6,1.4
							c0.3,1.3,0.5,2.6,0.7,3.8C1910.7,252.2,1910.9,253.2,1911,254.3"/>
						<path class="st0" d="M1927.1,260.9c0.5,2.4,1,4.8,1.6,7.2c0.2,0.6-0.6,0.7-1.7,0.1c-0.8-0.4-1.3-0.9-1.5-1.4
							c-0.1-0.5-0.2-1-0.3-1.4c-0.9-4.3-1.8-8.6-2.7-12.8c0-0.2,0-0.3,0.1-0.5c0.2-0.3,1-0.1,1.7,0.3c0.7,0.3,1.2,0.9,1.3,1.3
							c0.3,1.5,0.6,3,1,4.5C1926.8,259.1,1926.9,260,1927.1,260.9L1927.1,260.9L1927.1,260.9z"/>
						<path class="st0" d="M1929,275L1929,275c0.1,0.4,0.2,0.9,0.3,1.3c0.1,0.5,1,1.6,2.4,2.1c1.4,0.6,2.9,1.2,4.3,1.8
							c1.4,0.6,2.2,0.4,2-0.3c-0.2-0.8-0.3-1.6-0.5-2.4c-0.2-0.7-1-1.5-2.3-2c-1.6-0.7-3.3-1.4-4.9-2.1c-1-0.4-1.6-0.3-1.6,0.3
							C1928.8,274.2,1928.9,274.6,1929,275 M1932.7,273.4c0.8,0.3,1.6,0.6,2.3,1c2.2,1,4.1,2.4,4.5,3.7c0.3,1.1,0.6,2.2,0.7,3.2
							c0.1,1-1.6,1.1-3.6,0.3c-1.6-0.6-3-1.3-4.6-1.9c-2.3-1-4.3-2.6-4.6-3.9c-0.3-1-0.5-2.1-0.6-3c-0.1-1,1.4-1.1,3.3-0.3
							C1930.8,272.6,1931.7,273,1932.7,273.4L1932.7,273.4L1932.7,273.4z"/>
						<path class="st0" d="M1912.5,268.1L1912.5,268.1c0.1,0.4,0.2,0.9,0.3,1.3c0.2,0.7,1,1.5,2.3,2c1.4,0.6,2.8,1.2,4.3,1.8
							c1.2,0.5,2.1,0.3,1.9-0.3c-0.2-0.8-0.3-1.6-0.4-2.4c-0.1-0.4-0.5-1-1.3-1.5c-0.3-0.3-0.8-0.4-1.2-0.6
							c-1.4-0.6-2.8-1.1-4.2-1.7c-0.3-0.1-0.4-0.2-0.7-0.3c-0.8-0.3-1.3-0.1-1.2,0.3C1912.4,267.2,1912.4,267.6,1912.5,268.1
							 M1916,266.4c1,0.4,2.1,0.8,3.1,1.3c1.8,1,3.3,2.3,3.6,3.3c0.3,1,0.5,2.1,0.5,2.9c0.1,1-1.6,1.1-3.6,0.3
							c-1.4-0.6-2.9-1.2-4.3-1.8c-2.6-1-4.3-2.9-4.5-3.8c-0.3-1-0.4-2-0.5-2.9c-0.1-1,1.3-1.1,3.2-0.3
							C1914.3,265.7,1915.1,266.1,1916,266.4L1916,266.4z"/>
						<path class="st0" d="M1894.4,258.6c0.6,0.5,1.1,1,1.6,1.5c0.1,0.1,0.2,0.2,0.2,0.3c0.1,0.7,0.2,1.3,0.3,2
							c0.1,0.8,1,1.6,2.3,2.1c1.3,0.5,2.6,1.1,4,1.6c1.3,0.5,2.1,0.4,1.9-0.3c-0.1-0.8-0.3-1.5-0.3-2.3c-0.1-0.7-1-1.5-2.2-2
							c-0.6-0.3-1.1-0.4-1.7-0.7c-0.2-0.1-0.3-0.2-0.4-0.3c-0.6-0.5-1.3-1.1-2-1.7c0.3,0.1,0.3,0.1,0.3,0.1c1.2,0.5,2.5,1,3.7,1.6
							c2.1,0.9,3.8,2.3,4.2,3.6c0.3,1,0.4,2,0.4,2.9c0.1,1-1.6,1.1-3.6,0.3c-1.5-0.6-2.9-1.2-4.4-1.8c-1.9-0.8-3.7-2.3-4-3.4
							c-0.3-1.1-0.3-2.1-0.5-3.2C1894.3,258.8,1894.4,258.7,1894.4,258.6"/>
						<path class="st0" d="M1917.1,259.9c0.3,1.2,0.5,2.4,0.7,3.7c0.1,0.7-1.1,0.5-2.3-0.3c-0.5-0.3-0.8-0.7-0.9-1
							c-0.3-1.7-0.7-3.6-1-5.3c-0.1-0.7-0.3-1.3-0.3-1.9c-0.1-0.6,0.4-0.7,1.4-0.3c1,0.4,1.6,1,1.7,1.6
							C1916.6,257.6,1916.9,258.7,1917.1,259.9"/>
						<path class="st0" d="M1897.9,252c-0.2-1.2-0.3-2.3-0.6-3.6c-0.1-0.5,0.4-0.6,1.3-0.3c1,0.3,1.6,1,1.7,1.5
							c0.4,2.3,0.8,4.8,1.2,7.2c0.1,0.5-0.5,0.6-1.5,0.2c-1-0.4-1.6-1-1.6-1.5C1898.4,254.5,1898.1,253.2,1897.9,252"/>
						<path class="st0" d="M1930.1,265.3c-0.3-1.2-0.5-2.4-0.8-3.6c-0.1-0.6,0.4-0.7,1.4-0.3c1,0.4,1.7,1,1.8,1.6
							c0.5,2.4,1.1,4.9,1.6,7.5c0.2,0.7-0.9,0.6-2.2-0.1c-0.7-0.4-1-0.9-1.1-1.2C1930.7,267.8,1930.4,266.6,1930.1,265.3"/>
						<path class="st0" d="M1900.1,262.9c-0.6-0.5-1.1-1-1.6-1.4c-1.6-1.4-3.1-2.8-4.6-4.2c-0.3-0.3-0.5-0.6-0.3-0.7
							c0.2-0.2,0.4-0.1,1,0.1c0.3,0.1,0.5,0.3,0.7,0.4c2.3,2,4.6,4.1,6.9,6.2c0.5,0.4,0.6,0.8,0.2,0.9c-0.4,0.1-0.9,0.2-1.3,0.2
							c-0.4,0.1-1-0.2-1.4-0.6c-0.4-0.3-0.4-0.7-0.1-0.8C1899.6,263,1899.9,262.9,1900.1,262.9"/>
					</g>
				</g>
			</g>
		</g>
	</g>
</g>
</svg>
