<?xml version="1.0" encoding="utf-8"?>
<!-- Generator: Adobe Illustrator 27.9.0, SVG Export Plug-In . SVG Version: 6.00 Build 0)  -->
<!DOCTYPE svg PUBLIC "-//W3C//DTD SVG 1.1//EN" "http://www.w3.org/Graphics/SVG/1.1/DTD/svg11.dtd" [
	<!ENTITY ns_extend "http://ns.adobe.com/Extensibility/1.0/">
	<!ENTITY ns_ai "http://ns.adobe.com/AdobeIllustrator/10.0/">
	<!ENTITY ns_graphs "http://ns.adobe.com/Graphs/1.0/">
	<!ENTITY ns_vars "http://ns.adobe.com/Variables/1.0/">
	<!ENTITY ns_imrep "http://ns.adobe.com/ImageReplacement/1.0/">
	<!ENTITY ns_sfw "http://ns.adobe.com/SaveForWeb/1.0/">
	<!ENTITY ns_custom "http://ns.adobe.com/GenericCustomNamespace/1.0/">
	<!ENTITY ns_adobe_xpath "http://ns.adobe.com/XPath/1.0/">
]>
<svg version="1.1" id="SSL_ILLUSTRATION" xmlns:x="&ns_extend;" xmlns:i="&ns_ai;" xmlns:graph="&ns_graphs;"
	 xmlns="http://www.w3.org/2000/svg" xmlns:xlink="http://www.w3.org/1999/xlink" x="0px" y="0px" width="1024px" height="330px"
	 viewBox="0 0 1024 330" style="enable-background:new 0 0 1024 330;" xml:space="preserve">
<style type="text/css">
	.st0{fill:#FF6600;}
	.st1{opacity:0.43;}
	.st2{clip-path:url(#SVGID_00000029047408688234648030000000607807152770424756_);}
	.st3{fill:#FFFFFF;}
	.st4{clip-path:url(#SVGID_00000039843658358750490260000008727411158059340705_);}
	.st5{fill:#F27021;}
	.st6{fill:#E5E8E8;}
	.st7{clip-path:url(#SVGID_00000011719211242336494150000016583141563814533294_);}
	.st8{fill:#F2F2F2;}
	.st9{clip-path:url(#SVGID_00000006705273272571393940000016344350998906502300_);}
	.st10{fill:#E6E7E8;}
	.st11{fill:#F1F2F2;}
	.st12{clip-path:url(#SVGID_00000130640274840659447860000007674651558565588359_);}
	.st13{clip-path:url(#SVGID_00000008861594074375952190000016476579381676409744_);}
	.st14{clip-path:url(#SVGID_00000098182153834575665830000016186501598738248329_);}
	.st15{opacity:0.38;}
	.st16{clip-path:url(#SVGID_00000096024373561633300250000004931858388603759235_);}
	.st17{fill:url(#SVGID_00000160898352595668349220000002001268208731700669_);}
	.st18{fill:url(#SVGID_00000031898665710211100000000011766471451015210401_);}
	.st19{fill:url(#SVGID_00000116923653917494763730000017382185611114288028_);}
	.st20{fill:url(#SVGID_00000136410582563435725820000011262655197128047275_);}
	.st21{fill:url(#SVGID_00000104676049633416019460000007710616021037964946_);}
	.st22{fill:url(#SVGID_00000180339597336530514400000002590134403714699423_);}
	.st23{fill:url(#SVGID_00000021804227896918290990000006878291789320010163_);}
	.st24{fill:none;stroke:#FFFFFF;stroke-width:2.798;}
</style>
<metadata>
	<sfw  xmlns="&ns_sfw;">
		<slices></slices>
		<sliceSourceBounds  bottomLeftOrigin="true" height="331.8" width="1024" x="0" y="0"></sliceSourceBounds>
	</sfw>
</metadata>
<rect class="st0" width="1024" height="330"/>
<g class="st1">
	<g>
		<g>
			<defs>
				<rect id="SVGID_1_" x="721.2" y="214.2" width="101.1" height="92.7"/>
			</defs>
			<clipPath id="SVGID_00000074400607638080518880000009233240495984819628_">
				<use xlink:href="#SVGID_1_"  style="overflow:visible;"/>
			</clipPath>
			<g style="clip-path:url(#SVGID_00000074400607638080518880000009233240495984819628_);">
				<polygon class="st3" points="750.5,232.6 750.2,233.5 746,272 746,272 780.7,271.2 780.7,271.2 784.5,231.6 783.7,231.2 				"/>
				<g>
					<defs>
						<polygon id="SVGID_00000174591114682891268380000013083356998755041951_" points="750.5,232.6 750.2,233.5 746,272 746,272 
							780.7,271.2 784.5,231.6 783.7,231.2 						"/>
					</defs>
					<clipPath id="SVGID_00000176031683383287571900000008827866015833920687_">
						<use xlink:href="#SVGID_00000174591114682891268380000013083356998755041951_"  style="overflow:visible;"/>
					</clipPath>
					<g style="clip-path:url(#SVGID_00000176031683383287571900000008827866015833920687_);">
						<path class="st5" d="M775.8,263.5l-2.5,0.5l-18.2-24.6l2.4-0.5L775.8,263.5z M757,255c-0.5,0.1-1,0.3-1.4,0.6
							c-0.4,0.3-0.7,0.6-1,1.1c-0.3,0.4-0.4,0.9-0.5,1.5c-0.1,0.6-0.1,1.2-0.1,1.9c0,0.7,0.2,1.4,0.3,1.9s0.4,1,0.7,1.3
							c0.3,0.3,0.7,0.6,1.1,0.7c0.4,0.1,0.9,0.1,1.4,0c0.5-0.1,1-0.3,1.3-0.6c0.4-0.3,0.7-0.6,1-1.1c0.3-0.4,0.4-1,0.5-1.6
							c0.1-0.6,0.1-1.3,0.1-2c0-0.7-0.2-1.3-0.3-1.9c-0.2-0.5-0.4-1-0.7-1.3c-0.3-0.3-0.7-0.5-1.1-0.7C758,255,757.5,254.9,757,255
							 M772.9,238.2c-0.5,0.1-1,0.3-1.4,0.6c-0.4,0.3-0.7,0.6-1,1.1c-0.3,0.4-0.4,0.9-0.5,1.5c-0.1,0.6-0.1,1.2-0.1,1.9
							c0,0.7,0.2,1.4,0.4,1.9c0.2,0.5,0.4,1,0.7,1.3c0.3,0.3,0.7,0.6,1.1,0.7c0.4,0.1,0.9,0.1,1.4,0c0.5-0.1,1-0.3,1.3-0.6
							c0.4-0.3,0.7-0.6,1-1.1c0.2-0.4,0.4-1,0.5-1.6c0.1-0.6,0.1-1.3,0.1-2c-0.1-0.7-0.2-1.3-0.4-1.8c-0.2-0.5-0.4-0.9-0.7-1.3
							c-0.3-0.3-0.7-0.5-1.1-0.7C773.8,238.1,773.4,238.1,772.9,238.2 M773.8,249.3c-1,0.2-1.9,0.2-2.7,0.1
							c-0.8-0.1-1.5-0.4-2.1-0.9c-0.6-0.5-1-1.1-1.4-1.8c-0.3-0.8-0.5-1.7-0.6-2.7c-0.1-1,0-2,0.2-2.9c0.2-0.9,0.6-1.7,1.1-2.4
							c0.5-0.7,1.1-1.3,1.8-1.7c0.7-0.5,1.6-0.8,2.5-1c0.9-0.2,1.8-0.2,2.6-0.1c0.8,0.1,1.5,0.4,2,0.9c0.6,0.5,1,1.1,1.4,1.8
							c0.3,0.8,0.6,1.7,0.6,2.7c0.1,1,0,2-0.2,2.9c-0.2,0.9-0.6,1.7-1,2.3c-0.5,0.7-1.1,1.2-1.8,1.7
							C775.6,248.8,774.7,249.1,773.8,249.3 M757.9,266.2c-1,0.2-1.9,0.2-2.7,0.1c-0.8-0.1-1.5-0.4-2-0.9c-0.6-0.5-1-1.1-1.3-1.9
							c-0.3-0.8-0.5-1.7-0.6-2.7c-0.1-1.1,0-2,0.3-2.9c0.2-0.9,0.6-1.7,1.1-2.4c0.5-0.7,1.1-1.3,1.8-1.7c0.7-0.5,1.6-0.8,2.5-1
							c0.9-0.2,1.8-0.2,2.6-0.1c0.8,0.1,1.4,0.5,2,0.9c0.6,0.5,1,1.1,1.3,1.9s0.5,1.7,0.6,2.7c0.1,1.1,0,2-0.2,2.9s-0.6,1.7-1,2.3
							c-0.5,0.7-1.1,1.2-1.8,1.7C759.6,265.7,758.8,266,757.9,266.2"/>
					</g>
				</g>
				<polygon class="st6" points="746,272 746,272 762.1,283.6 762.1,283.6 795.7,283 780.7,271.2 				"/>
				<g>
					<defs>
						<polygon id="SVGID_00000077304507393207253370000001292045497136190909_" points="762.1,283.6 746,272 780.7,271.2 795.7,283 
													"/>
					</defs>
					<clipPath id="SVGID_00000042717359127056736290000000870087790507925916_">
						<use xlink:href="#SVGID_00000077304507393207253370000001292045497136190909_"  style="overflow:visible;"/>
					</clipPath>
					<g style="clip-path:url(#SVGID_00000042717359127056736290000000870087790507925916_);">
						<path class="st5" d="M766.5,281.2l-1.4-0.6l10.5-6.8l1.5,0.6L766.5,281.2L766.5,281.2z M764.6,275.6c-0.3-0.1-0.7-0.2-1-0.3
							c-0.4-0.1-0.8-0.1-1.2-0.2c-0.4,0-0.9-0.1-1.4,0c-0.5,0-1,0-1.5,0.1c-0.5,0.1-0.9,0.1-1.3,0.2c-0.3,0.1-0.5,0.2-0.7,0.3
							c-0.1,0.1-0.1,0.2,0,0.3c0.1,0.1,0.3,0.3,0.6,0.4c0.3,0.1,0.7,0.2,1,0.3c0.4,0.1,0.8,0.1,1.2,0.2c0.4,0,0.9,0,1.4,0
							c0.5,0,1-0.1,1.5-0.1c0.5-0.1,0.9-0.1,1.2-0.2c0.3-0.1,0.5-0.2,0.6-0.3c0.1-0.1,0.1-0.2,0-0.3
							C765.1,275.9,764.9,275.7,764.6,275.6 M784.2,278.7c-0.3-0.1-0.6-0.2-1-0.3c-0.4-0.1-0.8-0.1-1.2-0.2c-0.4,0-0.9-0.1-1.4,0
							c-0.5,0-1,0-1.5,0.1c-0.5,0.1-1,0.1-1.3,0.2c-0.3,0.1-0.6,0.2-0.7,0.3c-0.1,0.1-0.2,0.2-0.1,0.3c0.1,0.1,0.3,0.2,0.6,0.4
							c0.3,0.1,0.6,0.2,1,0.3c0.4,0.1,0.8,0.1,1.2,0.2c0.4,0,0.9,0,1.4,0c0.5,0,1-0.1,1.5-0.1c0.5-0.1,0.9-0.1,1.2-0.2
							c0.3-0.1,0.5-0.2,0.7-0.3c0.1-0.1,0.1-0.2,0-0.3C784.7,279,784.5,278.9,784.2,278.7 M776.2,279.7c-0.6-0.3-1-0.5-1.2-0.7
							c-0.2-0.2-0.3-0.4-0.2-0.6c0.1-0.2,0.4-0.4,0.8-0.5c0.4-0.1,1-0.3,1.8-0.4c0.8-0.1,1.5-0.1,2.3-0.1c0.8,0,1.5,0,2.3,0.1
							c0.7,0.1,1.4,0.2,2.1,0.4c0.7,0.2,1.3,0.4,1.8,0.6c0.5,0.2,0.9,0.5,1.1,0.7c0.2,0.2,0.3,0.4,0.1,0.6c-0.1,0.2-0.4,0.4-0.8,0.5
							c-0.4,0.1-1,0.3-1.8,0.4c-0.8,0.1-1.5,0.1-2.3,0.1c-0.7,0-1.5,0-2.2-0.1c-0.7-0.1-1.4-0.2-2-0.4
							C777.3,280.2,776.7,280,776.2,279.7 M756.6,276.7c-0.6-0.3-1-0.5-1.3-0.7c-0.3-0.2-0.3-0.4-0.3-0.6c0.1-0.2,0.3-0.4,0.8-0.5
							c0.4-0.1,1-0.3,1.8-0.4c0.8-0.1,1.5-0.1,2.3-0.2c0.8,0,1.5,0,2.3,0.1c0.7,0.1,1.5,0.2,2.1,0.4c0.7,0.2,1.3,0.4,1.9,0.6
							c0.6,0.2,1,0.5,1.2,0.7c0.2,0.2,0.3,0.4,0.2,0.6c-0.1,0.2-0.4,0.4-0.8,0.5c-0.4,0.1-1,0.3-1.8,0.4c-0.7,0.1-1.5,0.1-2.2,0.1
							c-0.7,0-1.5,0-2.2-0.1c-0.7-0.1-1.4-0.2-2.1-0.4C757.8,277.1,757.2,276.9,756.6,276.7"/>
					</g>
				</g>
				<polygon class="st8" points="780.7,271.2 795.7,283 795.7,283 799.2,244.5 785.4,232 784.5,231.6 				"/>
				<polygon class="st8" points="780.7,271.2 795.7,283 795.7,283 799.2,244.5 785.4,232 784.5,231.6 				"/>
				<g>
					<defs>
						<polygon id="SVGID_00000167384424928054208240000006503368203933130134_" points="780.7,271.2 795.7,283 799.2,244.5 
							785.4,232 784.5,231.6 						"/>
					</defs>
					<clipPath id="SVGID_00000044162700381786015420000016320872011180795322_">
						<use xlink:href="#SVGID_00000167384424928054208240000006503368203933130134_"  style="overflow:visible;"/>
					</clipPath>
					<g style="clip-path:url(#SVGID_00000044162700381786015420000016320872011180795322_);">
						<path class="st5" d="M793.9,274.6l-1-0.4l-5.4-33.5l1,0.5L793.9,274.6L793.9,274.6z M787.2,258.2c-0.2-0.1-0.4-0.1-0.6,0.1
							c-0.2,0.1-0.3,0.4-0.5,0.8c-0.1,0.4-0.2,0.8-0.3,1.4c-0.1,0.6-0.1,1.2-0.2,2c0,0.8,0,1.5,0,2.2c0,0.7,0.1,1.2,0.2,1.7
							c0.1,0.5,0.2,0.9,0.4,1.2c0.2,0.3,0.3,0.5,0.6,0.6c0.2,0.1,0.4,0.1,0.6-0.1c0.2-0.1,0.3-0.4,0.5-0.8c0.1-0.4,0.2-0.9,0.3-1.4
							c0.1-0.6,0.1-1.3,0.2-2.1c0-0.8,0-1.5,0-2.1c0-0.6-0.1-1.2-0.2-1.7c-0.1-0.5-0.2-0.9-0.4-1.1S787.4,258.3,787.2,258.2
							 M794.6,247.1c-0.2-0.1-0.4-0.1-0.6,0c-0.2,0.1-0.3,0.4-0.4,0.7c-0.1,0.3-0.2,0.8-0.3,1.3c-0.1,0.5-0.1,1.2-0.2,1.9
							c0,0.8,0,1.5,0,2.1c0,0.6,0.1,1.2,0.2,1.7c0.1,0.5,0.2,0.9,0.4,1.2c0.2,0.3,0.3,0.5,0.5,0.6c0.2,0.1,0.4,0.1,0.6-0.1
							c0.2-0.1,0.3-0.4,0.4-0.7c0.1-0.4,0.2-0.8,0.3-1.4c0.1-0.6,0.1-1.2,0.2-2c0-0.8,0-1.4,0-2.1c0-0.6-0.1-1.2-0.2-1.6
							c-0.1-0.5-0.2-0.8-0.4-1.1C794.9,247.4,794.8,247.2,794.6,247.1 M794.1,259c-0.4-0.2-0.7-0.5-1-1c-0.3-0.5-0.5-1.1-0.7-1.8
							c-0.2-0.7-0.3-1.6-0.4-2.5c-0.1-0.9-0.1-2,0-3.1c0-1.1,0.1-2.1,0.3-2.9c0.1-0.8,0.3-1.5,0.6-2c0.2-0.5,0.5-0.9,0.8-1
							c0.3-0.2,0.7-0.2,1,0c0.4,0.2,0.7,0.5,1,1c0.3,0.5,0.5,1.1,0.7,1.8c0.2,0.7,0.3,1.6,0.4,2.5c0.1,0.9,0.1,2,0,3.1
							c0,1.1-0.1,2.1-0.3,2.9c-0.1,0.8-0.3,1.5-0.5,2c-0.2,0.5-0.5,0.9-0.8,1C794.9,259.2,794.5,259.2,794.1,259 M786.7,270.5
							c-0.4-0.2-0.8-0.5-1.1-1c-0.3-0.5-0.6-1.1-0.8-1.8c-0.2-0.7-0.3-1.6-0.4-2.5c-0.1-1-0.1-2,0-3.2c0-1.2,0.2-2.2,0.3-3
							c0.2-0.9,0.4-1.6,0.6-2.1c0.2-0.5,0.5-0.9,0.9-1.1c0.3-0.2,0.7-0.2,1.1,0c0.4,0.2,0.7,0.5,1,1c0.3,0.5,0.5,1.1,0.7,1.8
							s0.3,1.6,0.4,2.5c0.1,1,0.1,2,0.1,3.1c0,1.1-0.1,2.1-0.3,3c-0.1,0.8-0.3,1.5-0.6,2.1c-0.2,0.5-0.5,0.9-0.8,1.1
							C787.5,270.6,787.1,270.7,786.7,270.5"/>
					</g>
				</g>
			</g>
		</g>
	</g>
</g>
<g>
	<polygon class="st3" points="683.2,286.5 630.7,249.8 663.9,184.9 717.7,221.1 	"/>
	<polygon class="st10" points="717.7,221.1 663.9,184.9 701.1,183.2 753.3,217.9 	"/>
	<polygon class="st11" points="753.3,217.9 719.7,280.7 683.2,286.5 717.7,221.1 	"/>
	<polygon class="st11" points="753.3,217.9 719.7,280.7 683.2,286.5 717.7,221.1 	"/>
	<path class="st0" d="M717.8,212.9c5.7-0.3,11.4-0.6,17.1-1c-7.9-5.4-16-10.8-24.2-16.4c-5.9,0.3-11.8,0.7-17.7,1
		C701.5,202.1,709.6,207.5,717.8,212.9 M688.9,191.7c3,1.9,4.8,2.5,7,2.4c1.9-0.1,3.9-0.2,5.8-0.3c1.9-0.1,1.7-0.9-0.4-2.4
		c-0.1-0.1-0.1-0.1-0.2-0.2c1.3-0.1,2.5-0.2,4-0.2c1.3,0,2.9,0.8,4.4,1.8c8,5.5,15.8,10.8,23.4,16c1.6,1.1,3.3,2.2,4.9,3.3
		c1.8,1.2,1.9,1.8,0.4,1.9c-5.8,0.3-11.7,0.7-17.6,1c-1.5,0.1-3-0.4-4.8-1.6c-9.6-6.3-19.5-12.8-29.6-19.5c-1.9-1.3-2.1-1.8-0.6-1.9
		C686.7,191.8,687.8,191.7,688.9,191.7"/>
	<path class="st0" d="M723.3,208.8c1.2-0.1,2.5-0.1,3.6-0.2c0.5,0,1,0.1,1.7,0.5c0.7,0.5,0.7,0.7,0.1,0.7c-2.4,0.1-4.8,0.3-7.2,0.4
		c-0.5,0-1,0-1.8-0.5c-0.8-0.5-0.6-0.7,0-0.7C720.9,208.9,722.1,208.8,723.3,208.8L723.3,208.8L723.3,208.8z"/>
	<path class="st0" d="M718,205.1c1.2-0.1,2.4-0.1,3.6-0.2c0.5,0,1,0.1,1.7,0.5c0.7,0.5,0.7,0.7,0.1,0.7c-2.4,0.1-4.9,0.3-7.3,0.4
		c-0.5,0-1,0-1.8-0.5c-0.8-0.5-0.6-0.7,0-0.7C715.5,205.3,716.7,205.2,718,205.1L718,205.1L718,205.1z"/>
	<path class="st0" d="M714.8,203c-1.3,0.1-2.5,0.1-3.8,0.2c-0.5,0-0.9-0.1-1.6-0.5c-0.7-0.5-0.7-0.6-0.2-0.7
		c2.5-0.1,5.1-0.3,7.6-0.4c0.5,0,1,0.1,1.6,0.6c0.6,0.4,0.7,0.6,0.2,0.6C717.3,202.9,716,202.9,714.8,203"/>
	<path class="st0" d="M707.5,198.1c1.2-0.1,2.5-0.1,3.7-0.2c0.5,0,1,0.1,1.6,0.5c0.6,0.4,0.7,0.6,0.2,0.7c-2.6,0.1-5.1,0.3-7.7,0.4
		c-0.5,0-1-0.2-1.6-0.6c-0.6-0.4-0.6-0.6-0.1-0.6C704.9,198.2,706.2,198.1,707.5,198.1"/>
	<path class="st0" d="M700.6,199.1c-0.2-0.5-0.4-1-0.5-1.4c0-0.1,0.3-0.1,0.5-0.2c0.3,0.2,0.7,0.5,0.8,0.6c0.3,0.6,0.5,1.1,0.7,1.6
		c0.1,0.3-0.1,0.3-0.8,0.1c-0.6-0.2-1.3-0.4-1.9-0.6c-0.3-0.1-0.6-0.4-0.9-0.5c0.2,0,0.3-0.1,0.6,0
		C699.4,198.8,699.9,198.9,700.6,199.1"/>
	<path class="st0" d="M711.4,206.3c-0.2-0.5-0.4-1-0.5-1.4c0-0.1,0.3-0.1,0.5-0.2c0.2,0.2,0.6,0.4,0.7,0.5c0.3,0.6,0.5,1.1,0.6,1.6
		c0,0.1-0.3,0.2-0.6,0.1c-0.6-0.2-1.4-0.4-2.1-0.6c-0.3-0.1-0.6-0.3-0.8-0.5c0.2,0,0.3-0.1,0.6-0.1
		C710.3,206,710.8,206.1,711.4,206.3"/>
	<path class="st0" d="M706.1,202.8c-0.2-0.5-0.4-0.9-0.5-1.3c0-0.2,0.3-0.2,0.4-0.3c0.3,0.2,0.7,0.5,0.8,0.6
		c0.3,0.5,0.5,1.1,0.6,1.5c0,0.1-0.4,0.2-0.7,0.1c-0.6-0.1-1.3-0.4-2-0.6c-0.3-0.1-0.5-0.3-0.8-0.5c0.2,0,0.3-0.1,0.6-0.1
		C705,202.5,705.5,202.7,706.1,202.8"/>
	<path class="st0" d="M716.6,209.8c-0.2-0.4-0.4-0.9-0.4-1.3c0-0.1,0.3-0.2,0.4-0.3c0.3,0.2,0.7,0.5,0.8,0.7c0.3,0.5,0.4,1,0.6,1.4
		c0.1,0.3-0.1,0.3-0.8,0.1c-0.6-0.2-1.1-0.3-1.7-0.5c-0.3-0.1-0.7-0.4-1-0.6c0.2,0,0.4-0.1,0.7,0
		C715.6,209.5,716.1,209.7,716.6,209.8"/>
	<path class="st0" d="M696.9,190.3c-0.9,0-1.9-0.3-3.1-1c-1.2-0.7-2.7-1.1-3.5-1c-0.8,0.1-0.7,0.6,0.1,1.3c0.8,0.7,0.9,1.1,0.1,1.1
		c-1,0.1-1,0.6,0.2,1.3c1.1,0.8,2.5,1.2,3.6,1.2c1.1,0,2.1-0.1,3.2-0.2c1.1-0.1,2.2-0.1,3.3-0.2c0.9-0.1,0.8-0.6-0.4-1.4
		C699.2,190.7,697.9,190.3,696.9,190.3"/>
	<path class="st0" d="M662.9,243.8c1.4-0.9,2.8-1.8,4.2-2.7c0.7-0.4,1.3-0.5,1.8,0c0.1,0.1,0.3,0,0.4-0.1c3.2-2.3,6.4-4.6,9.6-7
		c2.6-1.9,5.2-3.7,7.8-5.7c0.3-0.2,0.4-0.2,0.4,0.2c0.1,0.4,0.1,0.8,0.3,1.2c0.1,0.4,0,0.5-0.3,0.7c-4.9,3.5-9.8,7.1-14.6,10.5
		c-0.9,0.7-1.9,1.3-2.8,2c-0.2,0.1-0.3,0.3-0.4,0.6c-0.2,0.9-0.7,1.6-1.3,2c-2.6,1.7-5.1,3.3-7.6,5c-1.4,0.9-2.4-0.1-2.1-2.1
		c0.1-1.1,0.5-2.3,0.8-3.4c0.2-1,0.5-2,0.8-3c0.1-0.4,0.1-0.6-0.2-0.8c-0.5-0.3-0.5-0.3-0.8,0.4c-1,2.2-2.1,4.3-3.1,6.5
		c-0.8,1.8-1.7,3.5-2.5,5.2c-0.2,0.3-0.3,0.4-0.5,0.3c-3.6-2.6-7.3-5.2-10.9-7.8c-0.2-0.1-0.2-0.3-0.1-0.6c2.1-4.6,4.3-9.2,6.4-13.8
		c0.8-1.6,1.7-3,2.9-3.9c1.3-0.9,2.5-1,3.6-0.5c1,0.5,1.9,1.3,2.9,1.9c1.3,0.9,2.7,1.9,4,2.8c2.4,1.7,3.1,5.4,1.9,9.6
		C663.3,242.1,663.1,242.9,662.9,243.8"/>
	<path class="st0" d="M687.6,214.9c5.3,3.6,10.6,7.3,16,11c0.9,0.6,0.8,1.9,0.2,3c-7.6,14.7-15.1,29-22.2,42.8
		c-0.7,1.3-1.4,1.6-2.2,1.1c-7.9-5.6-15.7-11.2-23.5-16.7c-0.3-0.2-0.3-0.3-0.1-0.8c0.4-0.8,0.8-1.7,1.2-2.5
		c0.1-0.3,0.2-0.3,0.4-0.2l0.2,0.2c7.4,5.2,14.8,10.5,22.3,15.8c0.4,0.3,0.3,0.3,0.7-0.3c6.5-12.6,13.1-25.5,20-38.7
		c0.2-0.4,0.2-0.7-0.1-0.9c-9.8-6.7-19.5-13.4-29.2-20.1c-0.4-0.3-0.3-0.3-0.7,0.4c-0.6,1.2-1.2,2.4-1.7,3.6
		c-0.2,0.4-0.3,0.4-0.5,0.3c-0.5-0.4-1.1-0.8-1.6-1.1c-0.2-0.1-0.2-0.2-0.1-0.6c1-2,1.9-4,2.9-6.1c0.6-1.2,1.3-1.6,2.1-1.1
		C676.9,207.6,682.2,211.2,687.6,214.9"/>
	<path class="st0" d="M665.6,216.5c2.1,1.4,2.4,5.4,0.8,8.8c-1.6,3.4-4.6,5-6.6,3.6c-2-1.4-2.3-5.3-0.7-8.7
		C660.6,216.7,663.5,215,665.6,216.5"/>
	<path class="st0" d="M732.2,234.9c-2.2,0.2-4.4,0.4-6.6,0.6c-0.4,0-0.5-0.2-0.4-0.7c0.1-0.5,0.6-1.3,1-1.6c0.3-0.2,0.6-0.4,0.8-0.4
		c2.4-0.2,4.7-0.4,7-0.7c1.9-0.2,3.9-0.4,5.8-0.5c0.5,0,0.6,0.4,0.2,1.3c-0.4,0.7-0.9,1.3-1.3,1.3c-1,0.1-2,0.2-3,0.3
		C734.5,234.6,733.3,234.7,732.2,234.9L732.2,234.9L732.2,234.9z"/>
	<path class="st0" d="M725.4,248.8c-2.2,0.3-4.3,0.5-6.5,0.8c-0.2,0-0.4,0-0.5,0c-0.3-0.1-0.2-0.8,0.3-1.5c0.4-0.7,0.9-1.2,1.3-1.2
		c0.3-0.1,0.7-0.1,1-0.1c4.2-0.5,8.3-1,12.3-1.4c0.6-0.1,0.7,0.4,0.2,1.3c-0.4,0.8-0.9,1.4-1.4,1.4c-1.2,0.2-2.4,0.3-3.7,0.5
		C727.4,248.6,726.4,248.7,725.4,248.8"/>
	<path class="st0" d="M718.5,263c-2.3,0.3-4.6,0.7-6.9,1c-0.6,0.1-0.6-0.6,0-1.6c0.4-0.7,0.9-1.2,1.3-1.2c0.5-0.1,0.9-0.1,1.4-0.2
		c4.1-0.6,8.2-1.2,12.2-1.7c0.2,0,0.4,0,0.5,0.1c0.2,0.2,0,0.9-0.4,1.5c-0.4,0.6-0.9,1.1-1.3,1.1c-1.4,0.2-2.9,0.4-4.3,0.6
		C720.2,262.8,719.3,262.9,718.5,263L718.5,263L718.5,263z"/>
	<path class="st0" d="M705.1,264L705.1,264c-0.4,0.1-0.8,0.1-1.2,0.2c-0.5,0.1-1.5,0.8-2.1,2.1c-0.6,1.3-1.3,2.5-1.9,3.8
		c-0.6,1.2-0.5,1.9,0.2,1.8c0.8-0.1,1.5-0.2,2.3-0.4c0.7-0.1,1.4-0.8,2-1.9c0.8-1.5,1.5-2.9,2.2-4.4c0.5-0.9,0.3-1.5-0.2-1.4
		C705.9,263.9,705.5,264,705.1,264 M706.5,267.4c-0.3,0.7-0.7,1.4-1,2c-1,1.9-2.5,3.6-3.7,3.9c-1.1,0.3-2.1,0.4-3.1,0.5
		c-1,0-1-1.5-0.1-3.3c0.7-1.4,1.4-2.7,2-4.1c1-2,2.6-3.7,3.9-4c1-0.2,2-0.4,2.9-0.4c0.9,0,1,1.3,0.2,3
		C707.3,265.8,706.9,266.6,706.5,267.4L706.5,267.4L706.5,267.4z"/>
	<path class="st0" d="M712.4,249.4L712.4,249.4c-0.4,0.1-0.8,0.1-1.3,0.2c-0.7,0.1-1.4,0.8-2,2c-0.6,1.2-1.3,2.5-1.9,3.8
		c-0.5,1.1-0.4,1.9,0.2,1.8c0.8-0.1,1.5-0.2,2.3-0.3c0.4-0.1,0.9-0.5,1.4-1.1c0.2-0.3,0.5-0.7,0.6-1c0.6-1.2,1.2-2.5,1.8-3.7
		c0.1-0.2,0.2-0.4,0.3-0.6c0.3-0.7,0.1-1.1-0.3-1.1C713.2,249.3,712.8,249.3,712.4,249.4 M713.8,252.6c-0.5,0.9-0.8,1.8-1.4,2.7
		c-1,1.6-2.3,2.9-3.3,3.1c-1,0.2-1.9,0.3-2.8,0.3c-1,0-1-1.5-0.1-3.3c0.6-1.3,1.3-2.5,1.9-3.8c1.1-2.3,2.9-3.7,3.8-3.9
		c1-0.1,1.9-0.3,2.8-0.3c0.9,0,1,1.3,0.2,2.9C714.5,251.2,714.1,251.9,713.8,252.6L713.8,252.6L713.8,252.6z"/>
	<path class="st0" d="M722.1,233.4c-0.5,0.5-1,1-1.5,1.5c-0.1,0.1-0.2,0.1-0.3,0.1c-0.6,0.1-1.3,0.1-1.9,0.2c-0.7,0.1-1.5,0.8-2.1,2
		c-0.6,1.2-1.2,2.3-1.8,3.5c-0.6,1.2-0.5,1.8,0.2,1.8c0.7-0.1,1.4-0.2,2.1-0.2c0.7-0.1,1.4-0.8,2-1.9c0.3-0.5,0.5-1,0.8-1.5
		c0.1-0.1,0.2-0.3,0.3-0.4c0.5-0.6,1.1-1.1,1.7-1.7c-0.1,0.2-0.1,0.3-0.1,0.3c-0.5,1.1-1.1,2.2-1.6,3.3c-0.9,1.8-2.4,3.4-3.6,3.6
		c-1,0.2-1.9,0.3-2.7,0.3c-1,0-1-1.5-0.2-3.3c0.6-1.3,1.3-2.6,2-3.9c0.8-1.7,2.4-3.3,3.4-3.4c1.1-0.2,2-0.2,3-0.3
		C721.9,233.3,722,233.3,722.1,233.4"/>
	<path class="st0" d="M719.8,254c-1.2,0.2-2.3,0.3-3.5,0.5c-0.7,0.1-0.5-1.1,0.4-2.1c0.4-0.5,0.7-0.7,1-0.7c1.7-0.2,3.3-0.4,5-0.6
		c0.6-0.1,1.2-0.2,1.9-0.2c0.6-0.1,0.6,0.4,0.2,1.3c-0.4,0.8-1,1.4-1.5,1.5C722.1,253.7,721,253.8,719.8,254"/>
	<path class="st0" d="M728.1,237c1.1-0.1,2.2-0.2,3.3-0.3c0.5,0,0.5,0.4,0.2,1.2c-0.4,0.8-1,1.4-1.5,1.5c-2.3,0.2-4.5,0.5-6.8,0.7
		c-0.5,0-0.5-0.5-0.1-1.3c0.4-0.8,1-1.4,1.5-1.4C725.8,237.2,727,237.1,728.1,237"/>
	<path class="st0" d="M714.2,265.6c1.2-0.2,2.3-0.4,3.5-0.5c0.5-0.1,0.6,0.4,0.2,1.3c-0.4,0.9-1,1.5-1.6,1.6
		c-2.4,0.4-4.7,0.7-7.1,1.1c-0.7,0.1-0.6-0.9,0.2-1.9c0.4-0.6,0.8-0.9,1.2-1C711.8,265.9,713,265.7,714.2,265.6"/>
	<path class="st0" d="M717.8,238.4c0.5-0.5,0.9-0.9,1.4-1.4c1.4-1.3,2.8-2.7,4.1-4c0.3-0.3,0.6-0.4,0.7-0.3c0.1,0.2,0.1,0.4-0.1,0.8
		c-0.1,0.2-0.3,0.4-0.4,0.6c-2,2-4,3.9-6.1,5.9c-0.5,0.4-0.7,0.5-0.8,0.1c-0.1-0.4-0.1-0.8-0.1-1.2c0-0.4,0.2-0.9,0.6-1.3
		c0.4-0.4,0.7-0.4,0.7,0C717.8,237.9,717.8,238.1,717.8,238.4"/>
</g>
<g>
	<polygon class="st3" points="510.3,160 520,229.9 520.7,231.5 579.4,234 580.9,233.3 571.8,161.3 571.8,161.3 510.3,160 	"/>
	<g>
		<defs>
			<polygon id="SVGID_00000039133126497551374030000006185485035062840234_" points="520,229.9 520.7,231.5 579.4,234 580.9,233.3 
				571.8,161.3 510.3,160 			"/>
		</defs>
		<clipPath id="SVGID_00000003819468373108671420000007637873843207776681_">
			<use xlink:href="#SVGID_00000039133126497551374030000006185485035062840234_"  style="overflow:visible;"/>
		</clipPath>
		<g style="clip-path:url(#SVGID_00000003819468373108671420000007637873843207776681_);">
			<path class="st0" d="M563.5,175.2l-4.4-0.9l-30.7,44.8l4.3,0.9L563.5,175.2L563.5,175.2z M530.9,190.7c-0.9-0.2-1.7-0.6-2.4-1.1
				c-0.7-0.5-1.3-1.2-1.8-1.9c-0.5-0.8-0.8-1.7-1.1-2.7c-0.2-1-0.3-2.2-0.3-3.4c0-1.3,0.2-2.5,0.5-3.5c0.3-1,0.7-1.8,1.2-2.4
				c0.5-0.6,1.1-1.1,1.9-1.3c0.7-0.2,1.6-0.3,2.5-0.1c0.9,0.2,1.7,0.5,2.4,1.1c0.7,0.5,1.3,1.2,1.8,2c0.5,0.8,0.8,1.8,1,2.8
				c0.2,1.1,0.3,2.3,0.3,3.6c0,1.3-0.2,2.4-0.5,3.4c-0.3,1-0.7,1.7-1.2,2.3c-0.5,0.6-1.1,1-1.8,1.2
				C532.6,190.9,531.8,190.9,530.9,190.7 M559.9,221.3c-0.9-0.2-1.7-0.6-2.4-1.1c-0.7-0.5-1.3-1.2-1.8-2c-0.5-0.8-0.8-1.7-1-2.7
				c-0.2-1-0.3-2.2-0.3-3.4c0-1.3,0.2-2.5,0.5-3.4c0.3-1,0.7-1.8,1.2-2.4c0.5-0.6,1.2-1.1,1.9-1.3c0.7-0.2,1.6-0.3,2.5-0.1
				c0.9,0.2,1.7,0.6,2.4,1.1c0.7,0.5,1.3,1.2,1.8,2c0.5,0.8,0.8,1.8,1,2.8c0.2,1.1,0.3,2.3,0.3,3.6c0,1.3-0.2,2.4-0.5,3.4
				c-0.3,0.9-0.7,1.7-1.2,2.3c-0.5,0.6-1.2,1-1.9,1.2C561.6,221.5,560.8,221.5,559.9,221.3 M560.9,201.1c-1.8-0.4-3.4-0.4-4.8-0.2
				c-1.4,0.2-2.6,0.8-3.6,1.6c-1,0.8-1.8,2-2.3,3.4c-0.5,1.4-0.9,3.1-0.9,5c-0.1,1.9,0.1,3.7,0.6,5.2c0.4,1.6,1.1,3,2.1,4.3
				c0.9,1.2,2,2.3,3.4,3.1c1.3,0.8,2.8,1.4,4.5,1.8c1.7,0.4,3.2,0.4,4.6,0.2c1.4-0.3,2.5-0.8,3.5-1.7c1-0.8,1.8-2,2.3-3.4
				c0.6-1.4,0.9-3.1,1-5c0.1-1.9-0.1-3.7-0.5-5.3c-0.4-1.6-1.1-3-2-4.3c-0.9-1.2-2-2.3-3.3-3.1C564.1,202.1,562.5,201.5,560.9,201.1
				 M531.7,170.4c-1.8-0.4-3.3-0.4-4.7-0.1c-1.4,0.3-2.6,0.8-3.5,1.7c-1,0.8-1.7,2-2.3,3.4c-0.5,1.4-0.8,3.1-0.9,5
				c0,1.9,0.2,3.7,0.6,5.3c0.5,1.6,1.2,3,2.1,4.3c0.9,1.2,2,2.3,3.3,3.1c1.3,0.8,2.8,1.4,4.5,1.8c1.7,0.4,3.2,0.4,4.5,0.1
				c1.3-0.3,2.5-0.9,3.5-1.7c1-0.9,1.7-2,2.3-3.4c0.5-1.4,0.9-3.1,0.9-5c0.1-1.9-0.1-3.7-0.6-5.3c-0.4-1.6-1.1-3-2-4.3
				c-0.9-1.2-2-2.3-3.3-3.1C534.8,171.3,533.3,170.7,531.7,170.4"/>
		</g>
	</g>
	<polygon class="st6" points="538.2,138.7 510.3,160 571.8,161.3 597.6,139.6 538.2,138.7 	"/>
	<g>
		<defs>
			<polygon id="SVGID_00000030474114644021214760000013438025061118285456_" points="510.3,160 571.8,161.3 597.6,139.6 
				538.2,138.7 			"/>
		</defs>
		<clipPath id="SVGID_00000049211089488677126880000017786804102204691636_">
			<use xlink:href="#SVGID_00000030474114644021214760000013438025061118285456_"  style="overflow:visible;"/>
		</clipPath>
		<g style="clip-path:url(#SVGID_00000049211089488677126880000017786804102204691636_);">
			<path class="st0" d="M546.1,143l-2.5,1.1l19,12.3l2.5-1.2L546.1,143z M543,153.3c-0.5,0.2-1.2,0.4-1.8,0.6
				c-0.7,0.2-1.4,0.3-2.2,0.3c-0.8,0.1-1.6,0.1-2.4,0.1c-0.8,0-1.7-0.1-2.6-0.2c-0.9-0.1-1.7-0.3-2.2-0.4c-0.6-0.2-1-0.3-1.2-0.5
				c-0.2-0.2-0.2-0.4-0.1-0.6c0.2-0.2,0.5-0.5,1.1-0.7c0.5-0.2,1.1-0.4,1.8-0.6c0.7-0.2,1.4-0.3,2.2-0.3c0.8-0.1,1.6-0.1,2.5-0.1
				c0.9,0,1.8,0.1,2.7,0.2c0.9,0.1,1.6,0.3,2.2,0.4c0.6,0.2,0.9,0.3,1.1,0.5c0.2,0.2,0.2,0.4,0.1,0.6
				C543.8,152.8,543.5,153,543,153.3 M577.5,147.5c-0.5,0.2-1.1,0.4-1.8,0.6c-0.7,0.2-1.4,0.3-2.2,0.3c-0.8,0.1-1.6,0.1-2.4,0.1
				c-0.8,0-1.7-0.1-2.6-0.2c-0.9-0.1-1.7-0.3-2.3-0.4c-0.6-0.2-1-0.3-1.2-0.5c-0.2-0.2-0.3-0.4-0.1-0.6c0.1-0.2,0.5-0.5,1-0.7
				c0.5-0.2,1.1-0.4,1.8-0.6c0.7-0.2,1.4-0.3,2.1-0.3c0.8-0.1,1.6-0.1,2.5-0.1c0.9,0,1.8,0.1,2.7,0.2c0.9,0.1,1.7,0.2,2.2,0.4
				c0.6,0.2,1,0.3,1.2,0.5c0.2,0.2,0.3,0.4,0.1,0.6C578.4,147.1,578,147.3,577.5,147.5 M563.3,145.7c-1,0.5-1.7,0.9-2.1,1.3
				c-0.4,0.4-0.5,0.8-0.3,1.1c0.2,0.3,0.7,0.6,1.4,0.9c0.8,0.3,1.9,0.5,3.2,0.7c1.4,0.2,2.7,0.3,4.1,0.3c1.4,0,2.7-0.1,4-0.2
				c1.3-0.2,2.5-0.4,3.7-0.7c1.2-0.3,2.2-0.7,3.2-1.1c1-0.4,1.6-0.9,2-1.3c0.4-0.4,0.4-0.8,0.2-1.1c-0.2-0.3-0.7-0.6-1.5-0.9
				c-0.8-0.3-1.9-0.5-3.2-0.6c-1.3-0.2-2.7-0.2-4-0.3c-1.3,0-2.6,0.1-3.9,0.2c-1.2,0.1-2.4,0.4-3.6,0.7
				C565.3,144.9,564.2,145.3,563.3,145.7 M528.9,151.4c-1,0.5-1.8,0.9-2.2,1.3c-0.4,0.4-0.6,0.8-0.4,1.1c0.2,0.3,0.6,0.7,1.4,0.9
				c0.8,0.3,1.8,0.5,3.1,0.7c1.3,0.2,2.7,0.3,4.1,0.3c1.4,0,2.7-0.1,4-0.2c1.3-0.2,2.6-0.4,3.7-0.7c1.2-0.3,2.3-0.7,3.3-1.1
				c1-0.4,1.7-0.9,2.1-1.3c0.4-0.4,0.5-0.8,0.3-1.1c-0.2-0.3-0.7-0.7-1.5-0.9c-0.8-0.3-1.8-0.5-3.2-0.7c-1.3-0.2-2.7-0.3-4-0.3
				c-1.3,0-2.6,0.1-3.9,0.2c-1.3,0.1-2.5,0.4-3.6,0.7C531,150.6,529.9,150.9,528.9,151.4"/>
		</g>
	</g>
	<polygon class="st8" points="597.6,139.6 571.8,161.3 580.9,233.3 582.5,232.5 606.1,209.7 	"/>
	<polygon class="st8" points="597.6,139.7 571.8,161.3 580.9,233.3 582.5,232.5 606.1,209.7 597.6,139.7 	"/>
	<g>
		<defs>
			<polygon id="SVGID_00000014626875832911018600000005884478067528509326_" points="571.8,161.3 580.9,233.3 582.5,232.5 
				606.1,209.7 597.6,139.6 			"/>
		</defs>
		<clipPath id="SVGID_00000149376183438642926330000012358352282882798263_">
			<use xlink:href="#SVGID_00000014626875832911018600000005884478067528509326_"  style="overflow:visible;"/>
		</clipPath>
		<g style="clip-path:url(#SVGID_00000149376183438642926330000012358352282882798263_);">
			<path class="st0" d="M595,155.1l-1.7,0.8l-7.6,61l1.7-0.9L595,155.1L595,155.1z M584.1,184.9c-0.4,0.2-0.7,0.1-1-0.1
				c-0.3-0.2-0.6-0.7-0.9-1.4c-0.3-0.7-0.5-1.5-0.7-2.5c-0.2-1-0.3-2.2-0.4-3.6c-0.1-1.4-0.1-2.8-0.1-4c0-1.2,0.1-2.2,0.3-3.1
				c0.1-0.9,0.3-1.6,0.6-2.2c0.3-0.5,0.6-0.9,1-1.1c0.4-0.2,0.7-0.1,1,0.1c0.3,0.3,0.6,0.7,0.9,1.4c0.3,0.7,0.5,1.5,0.7,2.6
				c0.2,1.1,0.3,2.3,0.4,3.8c0.1,1.4,0.1,2.7,0.1,3.9c0,1.2-0.1,2.2-0.3,3c-0.1,0.9-0.3,1.6-0.6,2.1
				C584.7,184.3,584.4,184.7,584.1,184.9 M597.8,205.1c-0.4,0.2-0.7,0.2-1-0.1c-0.3-0.2-0.6-0.7-0.8-1.3c-0.2-0.6-0.5-1.5-0.6-2.5
				c-0.2-1-0.3-2.2-0.4-3.5c-0.1-1.4-0.1-2.7-0.1-3.9c0-1.2,0.1-2.2,0.2-3.1c0.1-0.9,0.3-1.6,0.6-2.1c0.2-0.5,0.6-0.9,0.9-1.1
				c0.4-0.2,0.7-0.1,1,0.1c0.3,0.2,0.6,0.7,0.8,1.4c0.2,0.7,0.5,1.5,0.6,2.5c0.2,1,0.3,2.3,0.4,3.7c0.1,1.4,0.1,2.6,0.1,3.8
				c0,1.1-0.1,2.1-0.2,3c-0.1,0.8-0.3,1.5-0.6,2.1C598.4,204.6,598.1,205,597.8,205.1 M596.3,183.4c-0.7,0.3-1.3,0.9-1.8,1.8
				c-0.5,0.8-0.9,1.9-1.2,3.2c-0.3,1.3-0.5,2.8-0.6,4.5c-0.1,1.7,0,3.6,0.1,5.7c0.1,2.1,0.4,3.8,0.7,5.4c0.3,1.5,0.7,2.7,1.1,3.7
				c0.5,0.9,1,1.6,1.5,1.9c0.6,0.3,1.2,0.3,1.8-0.1c0.6-0.3,1.2-1,1.7-1.8c0.5-0.9,0.9-2,1.1-3.3c0.3-1.3,0.5-2.8,0.5-4.5
				c0.1-1.7,0-3.6-0.1-5.6c-0.1-2-0.4-3.8-0.7-5.3c-0.3-1.5-0.7-2.7-1.1-3.6c-0.4-0.9-0.9-1.6-1.5-1.9
				C597.6,183,597,183,596.3,183.4 M582.5,162.5c-0.7,0.3-1.3,0.9-1.9,1.8c-0.5,0.8-0.9,1.9-1.2,3.3c-0.3,1.3-0.5,2.9-0.6,4.6
				c-0.1,1.7,0,3.7,0.1,5.8c0.2,2.1,0.4,4,0.7,5.5c0.3,1.6,0.7,2.8,1.2,3.8c0.5,1,1,1.6,1.6,2c0.6,0.3,1.2,0.3,1.9,0
				c0.7-0.3,1.3-1,1.8-1.8c0.5-0.9,0.9-2,1.2-3.3c0.3-1.3,0.5-2.9,0.6-4.6c0.1-1.7,0-3.7-0.1-5.7c-0.1-2.1-0.4-3.9-0.7-5.4
				c-0.3-1.5-0.7-2.8-1.1-3.8c-0.4-1-1-1.6-1.5-2C583.9,162.3,583.2,162.2,582.5,162.5"/>
		</g>
	</g>
</g>
<g class="st15">
	<g>
		<g>
			<defs>
				<rect id="SVGID_00000080900664684559548930000010007589212716253831_" x="736" y="89.9" width="148.4" height="142.8"/>
			</defs>
			<clipPath id="SVGID_00000168816012040856930560000009060045920755372178_">
				<use xlink:href="#SVGID_00000080900664684559548930000010007589212716253831_"  style="overflow:visible;"/>
			</clipPath>
			<g style="clip-path:url(#SVGID_00000168816012040856930560000009060045920755372178_);">
				<polygon class="st3" points="853.3,172.8 828.6,211 779.9,189.9 804.1,150.8 				"/>
				<polygon class="st10" points="804.1,150.8 779.9,189.9 777.2,163.7 800.3,125.8 				"/>
				<polygon class="st11" points="800.3,125.8 847.5,147.3 853.3,172.8 804.1,150.8 				"/>
				<polygon class="st11" points="800.3,125.8 847.5,147.3 853.3,172.8 804.1,150.8 				"/>
				<path class="st0" d="M798.2,150.9c-0.5-4-0.9-8-1.4-12c-3.6,5.8-7.3,11.6-11,17.6c0.5,4.2,1,8.3,1.5,12.5
					C790.9,162.8,794.6,156.9,798.2,150.9 M783.8,172c1.2-2.1,1.6-3.5,1.4-5c-0.2-1.4-0.3-2.7-0.5-4.1c-0.2-1.3-0.7-1.2-1.8,0.4
					c0,0.1-0.1,0.1-0.1,0.2c-0.1-0.9-0.3-1.8-0.3-2.8c0-0.9,0.4-2.1,1.1-3.2c3.7-5.8,7.2-11.5,10.7-17.1c0.7-1.2,1.5-2.4,2.2-3.5
					c0.8-1.3,1.3-1.4,1.4-0.3c0.5,4.1,1,8.2,1.4,12.3c0.1,1-0.2,2.1-1,3.4c-4.2,7-8.6,14.2-13,21.5c-0.8,1.4-1.3,1.5-1.4,0.5
					C784,173.6,783.9,172.8,783.8,172"/>
				<path class="st0" d="M794.9,147.2c-0.1-0.9-0.2-1.7-0.3-2.6c0-0.4,0-0.7,0.3-1.2c0.3-0.5,0.4-0.5,0.5-0.1
					c0.2,1.7,0.4,3.4,0.6,5.1c0,0.4,0,0.7-0.3,1.3c-0.4,0.6-0.5,0.4-0.5,0.1C795.1,148.9,795,148,794.9,147.2L794.9,147.2
					L794.9,147.2z"/>
				<path class="st0" d="M792.4,151.1c-0.1-0.8-0.2-1.7-0.3-2.5c0-0.4,0-0.7,0.3-1.2c0.3-0.5,0.4-0.5,0.5-0.1
					c0.2,1.7,0.4,3.4,0.6,5.1c0,0.4,0,0.7-0.3,1.3c-0.4,0.6-0.5,0.5-0.5,0.1C792.6,152.8,792.5,152,792.4,151.1L792.4,151.1
					L792.4,151.1z"/>
				<path class="st0" d="M791,153.4c0.1,0.9,0.2,1.8,0.3,2.6c0,0.3,0,0.7-0.3,1.2c-0.3,0.5-0.4,0.5-0.5,0.1
					c-0.2-1.8-0.4-3.6-0.6-5.3c0-0.4,0.1-0.7,0.3-1.1c0.3-0.4,0.4-0.5,0.5-0.1C790.8,151.6,790.9,152.5,791,153.4"/>
				<path class="st0" d="M787.7,158.7c-0.1-0.9-0.2-1.8-0.3-2.6c0-0.3,0-0.7,0.3-1.2c0.3-0.4,0.4-0.5,0.5-0.2
					c0.2,1.8,0.4,3.6,0.6,5.4c0,0.4-0.1,0.7-0.4,1.2c-0.3,0.5-0.4,0.5-0.5,0.1C787.9,160.5,787.8,159.6,787.7,158.7"/>
				<path class="st0" d="M788.8,163.6c-0.4,0.2-0.7,0.3-1,0.4c-0.1,0-0.1-0.2-0.2-0.3c0.1-0.2,0.3-0.5,0.4-0.6
					c0.4-0.2,0.8-0.4,1.2-0.5c0.2-0.1,0.2,0.1,0.1,0.5c-0.1,0.5-0.2,0.9-0.4,1.4c-0.1,0.2-0.2,0.4-0.4,0.7c0-0.1-0.1-0.2-0.1-0.4
					C788.6,164.4,788.7,164,788.8,163.6"/>
				<path class="st0" d="M793.6,155.7c-0.4,0.1-0.7,0.3-1,0.4c-0.1,0-0.1-0.2-0.1-0.3c0.1-0.2,0.3-0.5,0.4-0.5
					c0.4-0.2,0.8-0.4,1.2-0.5c0.1,0,0.2,0.2,0.1,0.4c-0.1,0.5-0.2,1-0.4,1.5c-0.1,0.2-0.2,0.4-0.3,0.6c0-0.1-0.1-0.2-0.1-0.4
					C793.4,156.5,793.5,156.1,793.6,155.7"/>
				<path class="st0" d="M791.3,159.5c-0.3,0.1-0.7,0.3-0.9,0.4c-0.1,0-0.1-0.2-0.2-0.3c0.1-0.2,0.3-0.5,0.4-0.6
					c0.4-0.2,0.8-0.4,1.1-0.5c0.1,0,0.2,0.3,0.1,0.5c-0.1,0.4-0.2,0.9-0.4,1.4c-0.1,0.2-0.2,0.4-0.3,0.6c0-0.1-0.1-0.2-0.1-0.4
					C791.1,160.3,791.2,159.9,791.3,159.5"/>
				<path class="st0" d="M795.9,151.9c-0.3,0.1-0.6,0.3-0.9,0.4c-0.1,0-0.1-0.2-0.2-0.3c0.2-0.2,0.3-0.5,0.5-0.6
					c0.4-0.2,0.7-0.3,1-0.5c0.2-0.1,0.3,0,0.1,0.5c-0.1,0.4-0.2,0.8-0.3,1.2c-0.1,0.2-0.2,0.5-0.4,0.7c0-0.2-0.1-0.3,0-0.5
					C795.7,152.6,795.8,152.3,795.9,151.9"/>
				<path class="st0" d="M782.5,166.4c0.1,0.6-0.1,1.4-0.6,2.2c-0.4,0.9-0.7,2-0.6,2.5c0.1,0.5,0.5,0.5,0.9-0.1
					c0.5-0.6,0.7-0.7,0.8-0.1c0.1,0.7,0.5,0.7,1-0.2c0.5-0.8,0.8-1.8,0.7-2.6c-0.1-0.8-0.2-1.5-0.3-2.2c-0.1-0.8-0.2-1.6-0.3-2.3
					c-0.1-0.7-0.5-0.5-1,0.3C782.7,164.8,782.4,165.7,782.5,166.4"/>
				<path class="st0" d="M822.9,188.6c-0.7-1-1.4-1.9-2.1-2.9c-0.4-0.5-0.4-0.9-0.1-1.3c0.1-0.1,0-0.2-0.1-0.3
					c-1.8-2.2-3.6-4.4-5.5-6.6c-1.5-1.8-2.9-3.5-4.4-5.3c-0.2-0.2-0.1-0.3,0.1-0.3c0.3-0.1,0.6-0.1,0.9-0.2c0.3-0.1,0.4,0,0.5,0.2
					c2.8,3.3,5.5,6.7,8.3,9.9c0.5,0.6,1.1,1.3,1.6,1.9c0.1,0.1,0.2,0.2,0.5,0.3c0.7,0.1,1.2,0.4,1.5,0.9c1.3,1.7,2.6,3.5,3.9,5.2
					c0.7,1,0.1,1.7-1.4,1.6c-0.8-0.1-1.7-0.3-2.5-0.5c-0.7-0.1-1.5-0.3-2.2-0.4c-0.3-0.1-0.5,0-0.6,0.1c-0.2,0.3-0.2,0.3,0.3,0.6
					c1.6,0.7,3.3,1.3,4.9,2c1.3,0.5,2.6,1,3.9,1.6c0.3,0.1,0.3,0.2,0.2,0.3c-1.7,2.7-3.5,5.3-5.2,7.9c-0.1,0.1-0.2,0.2-0.4,0.1
					c-3.4-1.3-6.9-2.7-10.4-4.1c-1.2-0.5-2.2-1.1-3-1.9c-0.7-0.9-0.8-1.7-0.5-2.5c0.3-0.7,0.9-1.4,1.3-2.1c0.6-1,1.3-1.9,1.9-2.9
					c1.1-1.7,3.8-2.4,6.9-1.7C821.7,188.3,822.3,188.4,822.9,188.6"/>
				<path class="st0" d="M800.8,172.2c2.4-3.9,4.9-7.7,7.3-11.7c0.4-0.6,1.4-0.6,2.2-0.2c11,4.9,21.8,9.6,32.2,14.2
					c1,0.4,1.3,0.9,0.9,1.5c-3.8,5.8-7.5,11.5-11.2,17.1c-0.1,0.2-0.2,0.2-0.6,0.1c-0.6-0.3-1.2-0.5-1.9-0.8
					c-0.2-0.1-0.3-0.1-0.2-0.3l0.1-0.2c3.5-5.4,7.1-10.8,10.6-16.2c0.2-0.3,0.2-0.2-0.3-0.4c-9.4-4.1-19.1-8.4-29.1-12.7
					c-0.3-0.1-0.5-0.1-0.6,0.1c-4.5,7.1-9,14.2-13.4,21.2c-0.2,0.3-0.2,0.2,0.3,0.5c0.9,0.4,1.8,0.7,2.7,1.1
					c0.3,0.1,0.3,0.2,0.2,0.3c-0.3,0.4-0.5,0.8-0.8,1.2c-0.1,0.1-0.2,0.2-0.4,0.1c-1.5-0.6-3-1.2-4.5-1.8c-0.9-0.4-1.2-0.9-0.9-1.4
					C795.9,179.9,798.4,176.1,800.8,172.2"/>
				<path class="st0" d="M802.9,187.6c1-1.5,3.8-1.9,6.4-0.8c2.6,1,3.9,3.1,2.9,4.5c-0.9,1.5-3.8,1.8-6.3,0.8
					C803.2,191.1,801.9,189.1,802.9,187.6"/>
				<path class="st0" d="M813.6,140.1c0.2,1.5,0.5,3.1,0.7,4.6c0,0.3-0.2,0.4-0.5,0.3c-0.4-0.1-1-0.4-1.2-0.6
					c-0.2-0.2-0.3-0.4-0.3-0.5c-0.3-1.7-0.5-3.3-0.8-4.9c-0.2-1.4-0.4-2.7-0.6-4.1c-0.1-0.4,0.3-0.4,0.9-0.2c0.6,0.2,1,0.6,1,0.9
					c0.1,0.7,0.2,1.4,0.3,2.1C813.3,138.4,813.4,139.3,813.6,140.1L813.6,140.1L813.6,140.1z"/>
				<path class="st0" d="M824,144.3c0.3,1.5,0.6,3,0.8,4.6c0,0.1,0,0.3,0,0.4c-0.1,0.2-0.5,0.1-1.1-0.1c-0.5-0.2-0.9-0.6-1-0.9
					c-0.1-0.2-0.1-0.5-0.1-0.7c-0.5-2.9-1-5.8-1.6-8.6c-0.1-0.4,0.2-0.5,0.9-0.2c0.6,0.2,1,0.6,1.1,0.9c0.2,0.9,0.3,1.7,0.5,2.6
					C823.8,143,823.9,143.7,824,144.3"/>
				<path class="st0" d="M834.7,148.7c0.3,1.6,0.7,3.2,1,4.8c0.1,0.4-0.4,0.4-1.2,0.1c-0.5-0.3-0.9-0.6-1-0.9
					c-0.1-0.3-0.1-0.6-0.2-0.9c-0.6-2.9-1.2-5.7-1.8-8.5c0-0.1,0-0.2,0-0.3c0.1-0.2,0.6,0,1.1,0.2c0.5,0.2,0.8,0.6,0.9,0.8
					c0.2,1,0.4,2,0.6,3C834.5,147.6,834.6,148.1,834.7,148.7L834.7,148.7L834.7,148.7z"/>
				<path class="st0" d="M836,158.2L836,158.2c0.1,0.3,0.1,0.6,0.2,0.8c0.1,0.4,0.6,1,1.6,1.4c0.9,0.4,1.9,0.8,2.9,1.2
					c0.9,0.4,1.4,0.3,1.3-0.2c-0.1-0.5-0.2-1.1-0.4-1.6c-0.1-0.5-0.6-1-1.5-1.3c-1.1-0.5-2.2-0.9-3.3-1.4c-0.7-0.3-1.1-0.2-1,0.2
					C835.9,157.6,835.9,157.9,836,158.2 M838.4,157.1c0.5,0.2,1,0.4,1.5,0.6c1.4,0.6,2.7,1.6,3,2.5c0.2,0.7,0.4,1.5,0.5,2.1
					c0.1,0.7-1.1,0.8-2.4,0.2c-1-0.4-2-0.9-3.1-1.3c-1.5-0.6-2.8-1.7-3.1-2.6c-0.2-0.7-0.3-1.4-0.4-2c-0.1-0.7,0.9-0.7,2.2-0.3
					C837.2,156.5,837.8,156.8,838.4,157.1L838.4,157.1L838.4,157.1z"/>
				<path class="st0" d="M825,153.5L825,153.5c0.1,0.3,0.1,0.6,0.2,0.9c0.1,0.5,0.7,1,1.5,1.3c0.9,0.4,1.9,0.8,2.8,1.2
					c0.8,0.3,1.4,0.3,1.3-0.2c-0.1-0.5-0.2-1.1-0.3-1.6c-0.1-0.3-0.4-0.6-0.9-1c-0.2-0.2-0.5-0.3-0.8-0.4c-0.9-0.4-1.8-0.8-2.8-1.2
					c-0.1-0.1-0.3-0.1-0.4-0.2c-0.5-0.2-0.8,0-0.8,0.2C824.9,152.9,824.9,153.2,825,153.5 M827.3,152.4c0.7,0.3,1.4,0.5,2.1,0.9
					c1.2,0.6,2.2,1.5,2.4,2.2c0.2,0.7,0.3,1.4,0.4,2c0.1,0.7-1.1,0.8-2.4,0.2c-1-0.4-1.9-0.8-2.9-1.2c-1.7-0.7-2.8-1.9-3-2.6
					c-0.1-0.7-0.3-1.3-0.3-2c-0.1-0.7,0.9-0.8,2.1-0.2C826.2,152,826.7,152.2,827.3,152.4L827.3,152.4z"/>
				<path class="st0" d="M812.9,147.2c0.4,0.4,0.8,0.7,1.1,1c0.1,0.1,0.1,0.1,0.1,0.2c0.1,0.4,0.1,0.9,0.2,1.3
					c0.1,0.5,0.6,1,1.5,1.4c0.9,0.4,1.8,0.7,2.6,1.1c0.9,0.4,1.4,0.3,1.3-0.2c-0.1-0.5-0.2-1-0.3-1.5c-0.1-0.5-0.6-1-1.5-1.3
					c-0.4-0.2-0.8-0.3-1.1-0.5c-0.1,0-0.2-0.1-0.3-0.2c-0.4-0.4-0.8-0.7-1.3-1.1c0.1,0,0.2,0.1,0.3,0.1c0.8,0.3,1.7,0.7,2.5,1
					c1.4,0.6,2.6,1.6,2.8,2.4c0.2,0.7,0.3,1.3,0.3,1.9c0,0.7-1.1,0.8-2.4,0.2c-1-0.4-2-0.8-2.9-1.2c-1.2-0.5-2.5-1.6-2.7-2.3
					c-0.2-0.7-0.2-1.4-0.3-2.1C812.8,147.4,812.9,147.3,812.9,147.2"/>
				<path class="st0" d="M828,148.1c0.2,0.8,0.3,1.6,0.5,2.5c0.1,0.5-0.8,0.4-1.6-0.2c-0.4-0.3-0.5-0.5-0.6-0.7
					c-0.2-1.2-0.4-2.3-0.7-3.5c-0.1-0.4-0.2-0.9-0.2-1.3c-0.1-0.4,0.3-0.5,0.9-0.2c0.6,0.3,1.1,0.7,1.2,1
					C827.7,146.5,827.9,147.3,828,148.1"/>
				<path class="st0" d="M815.3,142.9c-0.1-0.8-0.3-1.6-0.4-2.3c-0.1-0.3,0.3-0.4,0.9-0.2c0.6,0.2,1.1,0.6,1.2,1
					c0.3,1.6,0.5,3.2,0.8,4.8c0.1,0.3-0.3,0.4-1,0.1c-0.6-0.3-1-0.6-1.1-1C815.6,144.4,815.4,143.7,815.3,142.9"/>
				<path class="st0" d="M836.7,151.7c-0.2-0.8-0.4-1.6-0.5-2.4c-0.1-0.4,0.3-0.4,0.9-0.2c0.7,0.3,1.1,0.7,1.2,1.1
					c0.4,1.6,0.7,3.3,1.1,5c0.1,0.5-0.6,0.4-1.4-0.1c-0.5-0.3-0.7-0.5-0.7-0.8C837.1,153.4,836.9,152.5,836.7,151.7"/>
				<path class="st0" d="M816.7,150.1c-0.4-0.3-0.7-0.6-1.1-0.9c-1-0.9-2.1-1.8-3.1-2.8c-0.2-0.2-0.3-0.4-0.2-0.5
					c0.1-0.1,0.3-0.1,0.6,0.1c0.2,0.1,0.3,0.2,0.4,0.3c1.5,1.4,3,2.7,4.6,4.1c0.3,0.3,0.4,0.5,0.1,0.6c-0.3,0-0.6,0.1-0.9,0.1
					c-0.3,0-0.7-0.1-0.9-0.4c-0.3-0.3-0.3-0.5-0.1-0.5C816.4,150.1,816.6,150.1,816.7,150.1"/>
			</g>
		</g>
	</g>
</g>
<g>
	<g>
		
			<radialGradient id="SVGID_00000031192261602551717370000004183032284228734390_" cx="631.5721" cy="255.5173" r="31.2712" gradientTransform="matrix(1 0 0 -1 0 330)" gradientUnits="userSpaceOnUse">
			<stop  offset="4.475343e-07" style="stop-color:#FFFFFF;stop-opacity:0"/>
			<stop  offset="0.1022" style="stop-color:#F3F3F3;stop-opacity:3.065731e-02"/>
			<stop  offset="0.2882" style="stop-color:#D3D2D2;stop-opacity:8.645798e-02"/>
			<stop  offset="0.537" style="stop-color:#9F9E9E;stop-opacity:0.1611"/>
			<stop  offset="0.8358" style="stop-color:#595656;stop-opacity:0.2507"/>
			<stop  offset="1" style="stop-color:#2F2B2C;stop-opacity:0.3"/>
		</radialGradient>
		<path style="fill:url(#SVGID_00000031192261602551717370000004183032284228734390_);" d="M611.5,38.8h40.1c3.3,0,6.1,2.7,6.1,6.1
			V104c0,3.3-2.7,6.1-6.1,6.1h-40.1c-3.3,0-6.1-2.7-6.1-6.1V45C605.4,41.6,608.1,38.8,611.5,38.8z"/>
		
			<radialGradient id="SVGID_00000023250112983568671790000003898739680833694106_" cx="582.8535" cy="283.6286" r="33.9784" gradientTransform="matrix(1 0 0 -1 0 330)" gradientUnits="userSpaceOnUse">
			<stop  offset="4.475343e-07" style="stop-color:#FFFFFF;stop-opacity:0"/>
			<stop  offset="0.1022" style="stop-color:#F3F3F3;stop-opacity:3.065731e-02"/>
			<stop  offset="0.2882" style="stop-color:#D3D2D2;stop-opacity:8.645798e-02"/>
			<stop  offset="0.537" style="stop-color:#9F9E9E;stop-opacity:0.1611"/>
			<stop  offset="0.8358" style="stop-color:#595656;stop-opacity:0.2507"/>
			<stop  offset="1" style="stop-color:#2F2B2C;stop-opacity:0.3"/>
		</radialGradient>
		<path style="fill:url(#SVGID_00000023250112983568671790000003898739680833694106_);" d="M556.8,17.9c0,0-5.5,1.3-4.3,6.8
			l12.5,54.3c0,0,1.3,5.5,6.8,4.3l36.9-8.5c0,0,5.5-1.3,4.3-6.8l-12.5-54.3c0,0-1.3-5.5-6.8-4.3C593.8,9.4,556.8,17.9,556.8,17.9z"
			/>
		
			<radialGradient id="SVGID_00000072963267148198437730000018133453192840651920_" cx="720.928" cy="280.2518" r="32.6756" gradientTransform="matrix(1 0 0 -1 0 330)" gradientUnits="userSpaceOnUse">
			<stop  offset="4.475343e-07" style="stop-color:#FFFFFF;stop-opacity:0"/>
			<stop  offset="0.1022" style="stop-color:#F3F3F3;stop-opacity:3.065731e-02"/>
			<stop  offset="0.2882" style="stop-color:#D3D2D2;stop-opacity:8.645798e-02"/>
			<stop  offset="0.537" style="stop-color:#9F9E9E;stop-opacity:0.1611"/>
			<stop  offset="0.8358" style="stop-color:#595656;stop-opacity:0.2507"/>
			<stop  offset="1" style="stop-color:#2F2B2C;stop-opacity:0.3"/>
		</radialGradient>
		<path style="fill:url(#SVGID_00000072963267148198437730000018133453192840651920_);" d="M698.2,16.6c0,0-5.9,0.5-5.4,6.4l5.1,58
			c0,0,0.5,5.9,6.4,5.4l39.4-3.5c0,0,5.9-0.5,5.4-6.4l-5.1-58c0,0-0.5-5.9-6.4-5.4C737.5,13.2,698.2,16.6,698.2,16.6z"/>
		
			<radialGradient id="SVGID_00000075871784203308542340000000308607311020691640_" cx="834.3547" cy="271.5933" r="28.7128" gradientTransform="matrix(1 0 0 -1 0 330)" gradientUnits="userSpaceOnUse">
			<stop  offset="4.475343e-07" style="stop-color:#FFFFFF;stop-opacity:0"/>
			<stop  offset="0.1022" style="stop-color:#F3F3F3;stop-opacity:3.065731e-02"/>
			<stop  offset="0.2882" style="stop-color:#D3D2D2;stop-opacity:8.645798e-02"/>
			<stop  offset="0.537" style="stop-color:#9F9E9E;stop-opacity:0.1611"/>
			<stop  offset="0.8358" style="stop-color:#595656;stop-opacity:0.2507"/>
			<stop  offset="1" style="stop-color:#2F2B2C;stop-opacity:0.3"/>
		</radialGradient>
		<path style="fill:url(#SVGID_00000075871784203308542340000000308607311020691640_);" d="M814.4,29.3c0,0-5.2,0.5-4.7,5.7
			l4.4,50.9c0,0,0.5,5.2,5.7,4.7l34.6-3c0,0,5.2-0.5,4.7-5.7L854.6,31c0,0-0.5-5.2-5.7-4.7C849,26.3,814.4,29.3,814.4,29.3z"/>
		
			<radialGradient id="SVGID_00000077308560661827305580000013869432529129229220_" cx="675.9904" cy="257.7397" r="32.2643" gradientTransform="matrix(1 0 0 -1 0 330)" gradientUnits="userSpaceOnUse">
			<stop  offset="4.475343e-07" style="stop-color:#FFFFFF;stop-opacity:0"/>
			<stop  offset="0.1022" style="stop-color:#F3F3F3;stop-opacity:3.065731e-02"/>
			<stop  offset="0.2882" style="stop-color:#D3D2D2;stop-opacity:8.645798e-02"/>
			<stop  offset="0.537" style="stop-color:#9F9E9E;stop-opacity:0.1611"/>
			<stop  offset="0.8358" style="stop-color:#595656;stop-opacity:0.2507"/>
			<stop  offset="1" style="stop-color:#2F2B2C;stop-opacity:0.3"/>
		</radialGradient>
		<path style="fill:url(#SVGID_00000077308560661827305580000013869432529129229220_);" d="M671.5,38.3c0,0-4.7-1.9-6.6,2.8
			l-18.6,46c0,0-1.9,4.7,2.8,6.6l31.3,12.6c0,0,4.7,1.9,6.6-2.8l18.6-46c0,0,1.9-4.7-2.8-6.6C702.8,50.9,671.5,38.3,671.5,38.3z"/>
		
			<radialGradient id="SVGID_00000168823237378703641030000017521798071134779286_" cx="529.3726" cy="266.6002" r="41.0946" gradientTransform="matrix(1 0 0 -1 0 330)" gradientUnits="userSpaceOnUse">
			<stop  offset="4.475343e-07" style="stop-color:#FFFFFF;stop-opacity:0"/>
			<stop  offset="0.1022" style="stop-color:#F3F3F3;stop-opacity:3.065731e-02"/>
			<stop  offset="0.2882" style="stop-color:#D3D2D2;stop-opacity:8.645798e-02"/>
			<stop  offset="0.537" style="stop-color:#9F9E9E;stop-opacity:0.1611"/>
			<stop  offset="0.8358" style="stop-color:#595656;stop-opacity:0.2507"/>
			<stop  offset="1" style="stop-color:#2F2B2C;stop-opacity:0.3"/>
		</radialGradient>
		<path style="fill:url(#SVGID_00000168823237378703641030000017521798071134779286_);" d="M511.4,17.8c0,0-7.2-1-8.1,6.2l-9.9,70.1
			c0,0-1,7.2,6.2,8.1l47.7,6.7c0,0,7.2,1,8.1-6.2l9.9-70.1c0,0,1-7.2-6.2-8.1L511.4,17.8L511.4,17.8z"/>
		
			<radialGradient id="SVGID_00000056390955006408344380000010309746516280012957_" cx="774.6398" cy="250.784" r="41.0946" gradientTransform="matrix(1 0 0 -1 0 330)" gradientUnits="userSpaceOnUse">
			<stop  offset="4.475343e-07" style="stop-color:#FFFFFF;stop-opacity:0"/>
			<stop  offset="0.1022" style="stop-color:#F3F3F3;stop-opacity:3.065731e-02"/>
			<stop  offset="0.2882" style="stop-color:#D3D2D2;stop-opacity:8.645798e-02"/>
			<stop  offset="0.537" style="stop-color:#9F9E9E;stop-opacity:0.1611"/>
			<stop  offset="0.8358" style="stop-color:#595656;stop-opacity:0.2507"/>
			<stop  offset="1" style="stop-color:#2F2B2C;stop-opacity:0.3"/>
		</radialGradient>
		<path style="fill:url(#SVGID_00000056390955006408344380000010309746516280012957_);" d="M756.7,33.6c0,0-7.2-1-8.1,6.2l-9.9,70.1
			c0,0-1,7.2,6.2,8.1l47.7,6.7c0,0,7.2,1,8.1-6.2l9.9-70.1c0,0,1-7.2-6.2-8.1L756.7,33.6L756.7,33.6z"/>
		<path class="st3" d="M610,37.5h40.1c3.3,0,6.1,2.7,6.1,6.1v59.1c0,3.3-2.7,6.1-6.1,6.1H610c-3.3,0-6.1-2.7-6.1-6.1V43.6
			C603.8,40.2,606.5,37.5,610,37.5z"/>
		<path class="st0" d="M636.9,57.8c-3.5,0-7,0-10.6,0c-0.6,0-1-0.3-1.2-0.8c-0.2-0.5-0.1-1.2,0.3-1.5c0.3-0.2,0.6-0.3,1-0.3
			c3.8,0,7.6,0,11.3,0c3.2,0,6.4,0,9.6,0c0.9,0,1.4,0.5,1.4,1.3c0,0.7-0.5,1.2-1.2,1.2c-1.7,0-3.3,0-5,0
			C640.7,57.8,638.8,57.8,636.9,57.8L636.9,57.8z"/>
		<path class="st0" d="M636.9,70.8c-3.4,0-6.8,0-10.2,0c-0.3,0-0.6,0-0.9-0.1c-0.6-0.2-0.9-0.8-0.8-1.4c0.1-0.6,0.5-1,1.1-1
			c0.5-0.1,1,0,1.5,0c6.5,0,13,0,19.6,0c0.9,0,1.4,0.5,1.4,1.3c0,0.8-0.5,1.3-1.3,1.3c-2,0-3.9,0-5.9,0
			C640,70.8,638.5,70.8,636.9,70.8"/>
		<path class="st0" d="M616,69.9L616,69.9c-0.6,0.1-1.2,0-1.8,0.1c-1,0-1.6,0.6-1.6,1.6c0,1.1,0,2.3,0,3.3c0,1,0.8,1.7,1.7,1.7
			c1.2,0,2.3,0,3.4,0c0.6,0,1.1-0.3,1.4-0.9c0.1-0.3,0.2-0.6,0.2-0.9c0-1.1,0-2.2,0-3.3c0-0.2,0-0.3-0.1-0.5
			c-0.1-0.6-0.8-1.1-1.3-1.1C617.2,69.9,616.6,69.9,616,69.9 M620.7,73.1c0,0.8,0.1,1.7,0,2.5c-0.2,1.4-1.3,2.5-2.8,2.5
			c-1.4,0.1-2.8,0.1-4.2-0.1c-1.6-0.1-2.8-1.6-2.8-3.1c0-1.1,0.1-2.3,0-3.3c-0.1-2,1.6-3.2,3-3.3c1.4-0.1,2.8-0.1,4.2,0
			c1.5,0.1,2.7,1.3,2.7,2.9c0,0.6,0,1.3,0,1.9C620.7,73.1,620.7,73.1,620.7,73.1"/>
		<path class="st0" d="M618.8,55.4c-0.5,0.5-0.8,0.9-1.3,1.3c-0.1,0.1-0.2,0.1-0.4,0.1c-1,0-2,0-2.9,0c-1.1,0-1.7,0.6-1.7,1.7
			c0,1.1,0,2.1,0,3.2c0,1,0.7,1.7,1.7,1.7c1.1,0,2.2,0,3.3,0c1,0,1.7-0.6,1.7-1.6c0-0.5,0-0.9,0-1.4c0-0.1,0.1-0.3,0.1-0.3
			c0.5-0.5,0.9-1,1.4-1.5c0.1,0.2,0.1,0.2,0.1,0.3c0,1,0,2,0,3.1c-0.1,1.7-1.2,3-2.9,3.1c-1.4,0.1-2.8,0.1-4.2,0
			c-1.6-0.1-2.8-1.6-2.9-3.2c0-1.2,0-2.4,0-3.6c0-1.5,1.2-2.9,2.7-3c1.6-0.1,3.1,0,4.7,0C618.4,55.3,618.6,55.3,618.8,55.4"/>
		<path class="st0" d="M631.8,59.5c1.8,0,3.6,0,5.4,0c0.8,0,1.3,0.5,1.3,1.2c0,0.8-0.5,1.3-1.3,1.3c-3.6,0-7.2,0-10.9,0
			c-0.8,0-1.3-0.5-1.3-1.3c0-0.8,0.5-1.2,1.3-1.2C628.1,59.5,630,59.5,631.8,59.5"/>
		<path class="st0" d="M615.8,59.8c0.4-0.5,0.8-0.8,1.2-1.2c1.2-1.2,2.3-2.4,3.5-3.5c0.3-0.3,0.6-0.3,0.9-0.2
			c0.3,0.2,0.5,0.5,0.5,0.8c-0.1,0.2-0.1,0.4-0.3,0.5c-1.7,1.7-3.4,3.5-5.1,5.2c-0.4,0.4-0.8,0.4-1.2,0c-0.4-0.4-0.8-0.8-1.2-1.2
			c-0.3-0.3-0.3-0.8,0-1.2c0.3-0.3,0.8-0.3,1.2,0C615.5,59.4,615.7,59.6,615.8,59.8"/>
		<line class="st24" x1="629.1" y1="37.5" x2="629.1" y2="-1.2"/>
		<line class="st24" x1="576.7" y1="37.5" x2="576.7" y2="-1.2"/>
		<line class="st24" x1="683.8" y1="48.8" x2="683.8" y2="-1.8"/>
		<path class="st3" d="M555.3,16.6c0,0-5.5,1.3-4.3,6.8l12.5,54.3c0,0,1.3,5.5,6.8,4.3l36.9-8.5c0,0,5.5-1.3,4.3-6.8l-12.5-54.3
			c0,0-1.3-5.5-6.8-4.3C592.2,8,555.3,16.6,555.3,16.6z"/>
		<path class="st0" d="M577.9,53.3c0.3-1.2,0.5-2.3,0.8-3.4c0.1-0.6,0.4-1,0.9-1.2c0.2-0.1,0.1-0.2,0.2-0.3c0.5-2.6,0.9-5.2,1.3-7.8
			c0.3-2.1,0.7-4.1,1-6.2c0.1-0.2,0.1-0.3,0.3-0.2c0.2,0.1,0.5,0.1,0.8,0.1c0.2,0,0.3,0.1,0.2,0.3c-0.7,3.9-1.3,7.8-2,11.7
			c-0.1,0.8-0.2,1.5-0.4,2.3c-0.1,0.2,0,0.3,0.1,0.4c0.4,0.3,0.5,0.9,0.4,1.4c-0.5,2.1-0.9,4.2-1.4,6.2c-0.3,1.2-1.3,1.6-2.4,0.9
			c-0.6-0.4-1-0.9-1.4-1.4c-0.4-0.4-0.9-0.8-1.2-1.3c-0.2-0.2-0.3-0.2-0.5-0.1c-0.4,0.2-0.4,0.2-0.2,0.6c0.6,1.2,1.3,2.5,1.9,3.7
			c0.5,1,1,2,1.6,3c0.1,0.2,0.1,0.3-0.1,0.4c-3.5,1.7-6.9,3.5-10.4,5.3c-0.2,0.1-0.3,0.1-0.3-0.1c-1.3-2.7-2.7-5.3-4-7.9
			c-0.5-0.9-0.7-1.9-0.5-2.9c0.2-1.1,0.9-1.8,1.7-2.4c0.9-0.6,1.8-0.9,2.7-1.4c1.2-0.6,2.5-1.3,3.7-1.9c2.2-1.1,4.6-0.7,6.3,1.1
			C577.3,52.6,577.6,52.9,577.9,53.3"/>
		<path class="st0" d="M575.5,30.8c4.7-2.4,9.4-4.8,14.1-7.2c0.8-0.4,1.4-0.1,1.7,0.6c4,8,8.1,15.9,12.2,23.9
			c0.4,0.8,0.2,1.3-0.6,1.7c-7.4,3.8-14.7,7.5-22.1,11.3c-0.2,0.1-0.3,0.1-0.5-0.2c-0.2-0.5-0.5-1-0.8-1.4c-0.1-0.1-0.1-0.2,0.1-0.3
			c0.1,0,0.1-0.1,0.2-0.1c6.9-3.5,13.9-7.1,20.8-10.6c0.4-0.2,0.3-0.1,0.2-0.5c-3.7-7.2-7.3-14.4-11-21.6c-0.1-0.2-0.3-0.3-0.5-0.2
			c-8.7,4.4-17.4,8.8-26,13.3c-0.4,0.2-0.3,0.1-0.2,0.5c0.3,0.6,0.6,1.3,1,1.9c0.1,0.2,0.1,0.3-0.1,0.3c-0.5,0.2-1,0.5-1.5,0.8
			c-0.2,0.1-0.2,0.1-0.3-0.1c-0.5-1.1-1.1-2.1-1.6-3.2c-0.3-0.6-0.1-1.2,0.5-1.6C566,35.7,570.8,33.2,575.5,30.8"/>
		<path class="st0" d="M564.6,44.8c1.8-1,4.2-0.2,5.1,1.6c1,1.8,0.2,4.2-1.7,5.1c-1.8,0.9-4.2,0.2-5.1-1.7
			C561.9,48.1,562.7,45.8,564.6,44.8"/>
		<line class="st24" x1="719.1" y1="37.5" x2="719.1" y2="-1.2"/>
		<path class="st3" d="M696.6,15.2c0,0-5.9,0.5-5.4,6.4l5.1,58c0,0,0.5,5.9,6.4,5.4l39.4-3.5c0,0,5.9-0.5,5.4-6.4l-5.1-58
			c0,0-0.5-5.9-6.4-5.4C736,11.8,696.6,15.2,696.6,15.2z"/>
		<path class="st0" d="M719.6,57.8L719.6,57.8c0.4,0,0.8-0.1,1.3,0c0.4,0.1,0.6-0.1,0.7-0.6c0.5-2.2,1.4-4.2,2.9-5.8
			c0.8-0.8,1.4-1.8,2.1-2.8c0.9-1.6,1.3-3.3,0.9-5.2c-1-5.7-6.9-8.9-12.1-6.7c-3.7,1.6-5.7,5.9-4.7,9.9c0.5,1.9,1.7,3.5,3.1,4.8
			c1.8,1.7,3.1,3.7,3.9,6.1c0.1,0.2,0.2,0.3,0.4,0.3C718.6,57.8,719.1,57.8,719.6,57.8 M724,60.5c-2.8,0.1-5.7,0.1-8.4,0.2
			c-0.2-0.9-0.3-1.7-0.5-2.5c-0.5-1.6-1.3-3-2.6-4.2c-1.8-1.7-3.4-3.6-4.3-5.9c-1.7-5,0.3-10.6,4.8-13.3c6.8-4,15.6,0.2,17.1,8.2
			c0.6,3.1-0.1,5.8-1.8,8.3c-0.6,0.8-1.2,1.6-1.9,2.3c-1.5,1.5-2.1,3.3-2.4,5.4C724.1,59.5,724.1,60,724,60.5"/>
		<path class="st0" d="M723.1,69.3c-0.2,1.2-0.5,1.4-1.7,1.4c-0.8,0-1.6,0.1-2.4,0.1c-1,0-1.4-0.3-1.7-1.3c-1-0.3-1.4-0.7-1.5-1.5
			c0-0.8,0.5-1.4,1.2-1.4c2-0.1,3.9-0.1,5.9-0.1c0.7,0,1.3,0.5,1.3,1.2c0.1,0.8-0.2,1.4-0.9,1.6C723.3,69.2,723.2,69.3,723.1,69.3"
			/>
		<path class="st0" d="M697.8,46.7c-0.1-1-0.1-1.8-0.1-2.8c2.8-0.1,5.7-0.1,8.5-0.2c0.1,0.9,0.1,1.8,0.1,2.8
			C703.4,46.6,700.6,46.6,697.8,46.7"/>
		<path class="st0" d="M740.2,42.9c0.1,0.9,0.1,1.8,0.1,2.8c-2.8,0.1-5.6,0.1-8.5,0.2c-0.1-0.9-0.1-1.8-0.1-2.8
			C734.6,43.1,737.4,43,740.2,42.9"/>
		<path class="st0" d="M720,65c-0.9,0-1.8,0.1-2.7,0.1c-1,0-1.6-0.5-1.6-1.4c-0.1-0.9,0.5-1.4,1.4-1.4c1.8-0.1,3.7-0.1,5.5-0.1
			c1.1,0,1.8,0.9,1.4,2c-0.2,0.6-0.6,0.9-1.3,0.9C721.9,64.9,721,65,720,65"/>
		<path class="st0" d="M709.3,33.9c-0.6,0.6-1.2,1.3-1.8,1.9c-1.7-1.7-3.5-3.3-5.3-5c0.6-0.6,1.2-1.3,1.7-2
			C705.8,30.5,707.6,32.2,709.3,33.9"/>
		<path class="st0" d="M729.5,35.3c-0.6-0.6-1.3-1.2-2-1.8c1.6-1.7,3.2-3.5,4.8-5.3c0.6,0.6,1.3,1.2,1.9,1.8
			C732.7,31.8,731.1,33.5,729.5,35.3"/>
		<path class="st0" d="M710.5,56.2c-1.6,1.7-3.1,3.5-4.7,5.1c-0.6-0.6-1.3-1.3-2-1.9c1.6-1.7,3.1-3.5,4.7-5.2
			C709.2,54.8,709.8,55.5,710.5,56.2"/>
		<path class="st0" d="M728.6,55.6c0.6-0.6,1.2-1.3,1.9-2.1c1.7,1.7,3.5,3.3,5.3,5c-0.6,0.7-1.3,1.4-1.8,2
			C732.1,59,730.4,57.3,728.6,55.6"/>
		<path class="st0" d="M719.7,31.7c-0.9,0-1.8,0.1-2.7,0.1c-0.1-1.9-0.2-3.8-0.3-5.7c0.9,0,1.8-0.1,2.7-0.1
			C719.5,27.9,719.6,29.8,719.7,31.7"/>
		<line class="st24" x1="829.5" y1="37.5" x2="829.5" y2="-1.8"/>
		<path class="st3" d="M812.8,27.9c0,0-5.2,0.5-4.7,5.7l4.4,50.9c0,0,0.5,5.2,5.7,4.7l34.6-3c0,0,5.2-0.5,4.7-5.7l-4.4-50.9
			c0,0-0.5-5.2-5.7-4.7L812.8,27.9z"/>
		<path class="st0" d="M837.6,77.3l-8.3,0.8l-0.8-8.3l8.3-0.8L837.6,77.3z M820,39c3-1.4,6.1-2.2,9.1-2.4c7.9-0.7,13.2,2.2,13.8,9.2
			c0.3,3.4-0.6,5.9-3.8,10.4c-3,4.2-3.3,5.8-3.1,8l0.1,0.5l-7.6,0.6l-0.1-0.7c-0.3-3.6,0.1-5.4,3.3-10.3c1.7-2.5,2.5-4.4,2.3-6.4
			c-0.3-3.3-2.8-4.6-6.3-4.3c-2.3,0.2-4.7,1-6.8,2.3L820,39L820,39z"/>
		<path class="st3" d="M670,36.9c0,0-4.7-1.9-6.6,2.8l-18.6,46c0,0-1.9,4.7,2.8,6.6l31.3,12.6c0,0,4.7,1.9,6.6-2.8l18.6-46
			c0,0,1.9-4.7-2.8-6.6C701.3,49.5,670,36.9,670,36.9z"/>
		<path class="st0" d="M680.8,64.5c-0.9-0.3-1.8,0.6-3,3.6c-1.1,2.7-1.2,4.1-0.2,4.5c0.9,0.3,1.8-0.6,2.9-3.4
			C681.7,66.1,681.7,64.8,680.8,64.5"/>
		<path class="st0" d="M676.7,74.5c-2.6-1-2.9-3.8-1.4-7.5c1.5-3.7,3.6-5.4,6.3-4.4c2.7,1.1,2.8,3.8,1.3,7.5
			C681.5,73.8,679.5,75.6,676.7,74.5 M671.7,72.1l-2.6-1l2.5-6.1c0.4-1,1-2.2,1.2-2.8h-0.1c-0.5,0.2-1.4,0.4-2.4,0.7l-0.3-2.3l4-0.8
			l2.3,0.9L671.7,72.1L671.7,72.1z M691.1,76.4c-1.2-0.6-2.5-1.2-3.8-1.7c-1.1-0.5-2.2-0.9-3.5-1.4c0.2-0.5,0.3-0.8,0.5-1.2
			c1.7-4.3,3.4-8.5,5.2-12.8c0.8-1.8,0.8-3.6-0.2-5.4c-0.5-0.8-1.2-1.4-1.8-2.1c-3-1.2-6.1-2.4-9.1-3.7c-0.1,0-0.2,0.1-0.3,0.1
			c-3.4-0.2-5.2,1-6.5,4.2c-1.7,4.2-3.3,8.4-5.1,12.5c-0.1,0.3-0.3,0.7-0.5,1.2c-0.5-0.2-0.8-0.3-1.2-0.5c-2-0.8-4-1.6-6.1-2.3
			c-0.9-0.3-1.3,0.1-1.1,1c0.2,0.6,0.4,1.3,0.7,2c2.5,5.9,5,11.8,7.5,17.7c0.3,0.8,0.8,1.5,1.2,2.3c0.5,0.8,1.2,1,2,0.9
			c0.5-0.1,1-0.2,1.4-0.4c6.5-2.8,13-5.5,19.6-8.3c0.3-0.2,0.7-0.3,1-0.6C691.8,77.2,691.8,76.7,691.1,76.4"/>
		<line class="st24" x1="532.1" y1="37.5" x2="532.1" y2="-1.2"/>
		<path class="st3" d="M509.9,16.4c0,0-7.2-1-8.1,6.2l-9.9,70.1c0,0-1,7.2,6.2,8.1l47.7,6.7c0,0,7.2,1,8.1-6.2l9.8-70.1
			c0,0,1-7.2-6.2-8.1L509.9,16.4L509.9,16.4z"/>
		<path class="st0" d="M509.6,82c9.6,1.6,19.3,3.1,29,4.6c1.8-11.3,3.6-22.6,5.4-33.8c-9.7-1.6-19.3-3.1-29-4.6
			C513.2,59.4,511.4,70.6,509.6,82 M521.3,39.7c-0.3,3.7,0.9,5.3,4.3,5.8c3.1,0.5,6.3,1,9.4,1.5c3.1,0.5,4.7-0.6,5.5-3.8
			c0.1-0.1,0.1-0.2,0.2-0.3c2.1,0.3,4.3,0.5,6.3,1c1.8,0.5,2.4,2.1,2.1,4.2c-1.7,10.9-3.4,21.7-5.1,32.6c-0.3,2.4-0.8,4.7-1.1,7
			c-0.4,2.6-1.8,3.6-4.4,3.2c-9.9-1.6-19.9-3.1-29.8-4.7c-2.5-0.4-3.5-1.8-3.2-4.3c2.1-13.3,4.2-26.7,6.3-40.1
			c0.4-2.5,1.7-3.3,4.1-3C517.7,39.1,519.4,39.4,521.3,39.7"/>
		<path class="st0" d="M530.4,69.8c2,0.3,4,0.6,6,0.9c0.9,0.1,1.3,0.5,1.2,1.4c-0.2,1-0.6,1.3-1.6,1.1c-4-0.6-8.1-1.3-12.1-1.9
			c-0.9-0.1-1.4-0.4-1.3-1.4c0.2-1.2,0.8-1.3,1.7-1.1C526.3,69.1,528.4,69.4,530.4,69.8L530.4,69.8"/>
		<path class="st0" d="M531,65.4c-2.1-0.3-4.2-0.7-6.2-1c-0.8-0.1-1.2-0.5-1.1-1.4c0.1-0.9,0.6-1.2,1.5-1.1c4.2,0.7,8.3,1.3,12.5,2
			c0.9,0.1,1.2,0.5,1,1.4c-0.1,0.9-0.5,1.2-1.4,1C535.1,66.1,533.1,65.8,531,65.4"/>
		<path class="st0" d="M532.7,55.4c2,0.3,4.1,0.7,6.1,1c0.8,0.1,1.2,0.5,1,1.4c-0.1,0.8-0.5,1.2-1.4,1.1c-4.2-0.7-8.4-1.3-12.6-2
			c-0.9-0.1-1.2-0.6-1-1.4c0.1-0.9,0.6-1.2,1.4-1C528.4,54.7,530.5,55.1,532.7,55.4"/>
		<path class="st0" d="M519.6,54.6c1-0.8,1.9-1.6,2.8-2.3c0.3-0.2,0.8-0.1,1.2-0.1c-0.1,0.4-0.1,0.9-0.4,1.2c-1,0.9-2.1,1.8-3.1,2.7
			c-0.5,0.5-1,0.4-1.4-0.1c-0.4-0.5-1-1-1.3-1.6c-0.2-0.3,0-0.8,0-1.1c0.3,0.1,0.8,0,1,0.2C518.8,53.7,519.1,54.1,519.6,54.6"/>
		<path class="st0" d="M517.3,69.3c1-0.8,1.9-1.6,2.9-2.3c0.3-0.2,0.8-0.1,1.2-0.1c-0.1,0.3-0.1,0.9-0.3,1.1c-1,1-2.1,1.9-3.2,2.7
			c-0.3,0.2-0.9,0.2-1.2,0c-0.6-0.5-1.1-1.1-1.5-1.7c-0.2-0.2-0.1-0.7-0.1-1c0.3,0.1,0.8-0.1,1.1,0.1
			C516.5,68.4,516.8,68.9,517.3,69.3"/>
		<path class="st0" d="M518.4,62.2c1-0.8,1.8-1.6,2.7-2.2c0.3-0.2,0.9-0.2,1.3-0.3c-0.1,0.4-0.2,1-0.5,1.3c-1,0.9-2,1.8-3.1,2.5
			c-0.3,0.2-1,0.2-1.4-0.1c-0.6-0.4-1-1-1.4-1.6c-0.2-0.2,0-0.7,0.1-1c0.3,0,0.8-0.1,1,0.1C517.6,61.2,517.9,61.6,518.4,62.2"/>
		<path class="st0" d="M536.5,40.4c-1.4-0.3-2.1-1.1-2.2-2.5c-0.1-1.4-1.2-2.5-2.5-2.7c-1.3-0.2-2.6,0.6-3.1,1.8
			c-0.5,1.3-1.4,1.8-2.7,1.6c-1.7-0.2-2.9,0.5-3.1,2c-0.3,1.5,0.6,2.6,2.3,2.9c1.7,0.3,3.4,0.6,5.1,0.8c1.8,0.3,3.6,0.6,5.4,0.8
			c1.6,0.2,2.7-0.7,2.9-2.1C538.9,41.8,538,40.7,536.5,40.4"/>
		<line class="st24" x1="778.7" y1="37.5" x2="778.7" y2="-1.2"/>
		<path class="st3" d="M755.1,32.3c0,0-7.2-1-8.1,6.2l-9.9,70.1c0,0-1,7.2,6.2,8.1l47.7,6.7c0,0,7.2,1,8.1-6.2l9.8-70.1
			c0,0,1-7.2-6.2-8.1L755.1,32.3L755.1,32.3z"/>
		<path class="st0" d="M774.2,84.3c-0.1,0.1-0.1,0.2-0.2,0.2c-1.2,1-2,2.4-2.9,3.7c-0.8,1.2-1.8,2-3.1,2.6c-2.9,1.4-5.9,0.8-8.1-1.7
			c-1.2-1.3-1.8-2.9-2.1-4.6c-0.1-0.3-0.2-0.6-0.4-0.9c-1.2-1.8-1.8-3.8-1.3-6c0.1-0.7,0.3-1.3,1-1.7c0.2-0.1,0.2-0.3,0.3-0.6
			c0.2-1.3,0.3-2.5,0.7-3.8c0.5-1.7,1.5-3.1,2.8-4.3c0.2-0.2,0.5-0.4,0.8-0.5c3-1.3,6.1-1.2,9.1-0.1c-0.4,0.9-0.3,1.6,0.1,2.4
			c-0.2,0.6-0.5,0.8-1.2,0.8c-0.9-0.1-1.6,0.4-1.8,1.3c-0.2,0.9-0.5,1.8-0.5,2.7c0,0.8,0.5,1.4,1.3,1.6c0.2,0.1,0.4,0.4,0.5,0.6
			c0.1,0.2-0.1,0.5-0.3,0.6c-0.8,0.7-1,1.4-0.6,2.4c0.4,0.8,0.9,1.6,1.5,2.2c0.6,0.6,1.3,0.7,2.1,0.2c0.3-0.2,0.5-0.1,0.8,0.1
			c0.3,0.2,0.3,0.3,0.3,0.7C773,83.1,773.4,83.7,774.2,84.3"/>
		<path class="st0" d="M781.7,75c0.3-2.2-1.2-4.2-3.3-4.6c-2.3-0.3-4.3,1.2-4.6,3.3c-0.3,2.1,1.2,4.3,3.4,4.6
			C779.4,78.7,781.4,77.2,781.7,75 M781.2,66.9c-0.2,0.5,0,0.9,0.5,1.1c0.1,0.1,0.2,0.1,0.2,0.1c0.7,0.6,1.4,0.9,2.2,0.2
			c0.1-0.1,0.7,0,0.8,0.2c0.5,0.5,0.8,1.1,1.2,1.7c0.3,0.5,0.1,0.8-0.3,1.1c-0.8,0.5-0.8,0.5-0.6,1.6c0,0.1,0.1,0.2,0.1,0.3
			c-0.1,0.9,0.4,1.3,1.2,1.4c0.5,0.1,0.7,0.4,0.6,0.8c-0.1,0.7-0.2,1.3-0.4,2c-0.1,0.5-0.5,0.6-1,0.5c-1-0.2-1-0.2-1.6,0.6
			c-0.1,0.1-0.1,0.2-0.2,0.3c-0.6,0.5-0.6,1.1-0.1,1.7c0.3,0.4,0.2,0.8-0.2,1.1c-0.5,0.4-1,0.8-1.6,1c-0.5,0.3-0.9,0.2-1.2-0.3
			c-0.3-0.7-0.8-0.9-1.5-0.6c-0.1,0.1-0.2,0.1-0.3,0.1c-0.9-0.1-1.3,0.4-1.4,1.3c-0.1,0.2-0.5,0.6-0.6,0.5c-0.8-0.1-1.6-0.2-2.3-0.5
			c-0.4-0.1-0.5-0.5-0.4-0.8c0.3-0.8,0.1-1.4-0.8-1.7c-0.1,0-0.1-0.1-0.2-0.1c-0.6-0.6-1.2-0.7-1.8-0.1c-0.3,0.3-0.8,0.2-1-0.1
			c-0.4-0.6-0.8-1.2-1.1-1.7c-0.3-0.5-0.1-0.9,0.3-1c0.8-0.3,1-0.9,0.6-1.6c-0.1-0.1-0.1-0.2-0.1-0.3c0.1-0.8-0.3-1.2-1.2-1.3
			c-0.5,0-0.8-0.3-0.7-0.9c0.1-0.6,0.2-1.3,0.4-2c0.1-0.5,0.5-0.8,1-0.5c0.8,0.3,1.3,0,1.7-0.8c0.1-0.1,0.1-0.1,0.1-0.2
			c0.6-0.8,0.6-0.8,0.1-1.7c-0.3-0.5-0.3-0.9,0.2-1.2c0.5-0.3,1-0.8,1.6-1c0.5-0.3,0.9-0.2,1.1,0.3c0.6,1,0.6,0.9,1.6,0.6
			c0.1,0,0.2-0.1,0.3-0.1c0.8,0,1.2-0.3,1.3-1.2c0-0.5,0.4-0.8,0.9-0.7c0.6,0.1,1.3,0.2,1.9,0.4C781.3,65.8,781.3,66,781.2,66.9"/>
		<path class="st0" d="M777.6,57.4c-0.2,1.9,1,3.6,3,3.9c1.8,0.3,3.7-1.1,3.9-3c0.2-1.9-1.1-3.7-2.9-3.9
			C779.6,54.1,777.9,55.5,777.6,57.4 M779.8,50.3c0.2,0.3,0.4,0.5,0.5,0.7c0.2,0.5,0.5,0.8,1,0.7c0.5,0,0.9,0.1,1.4,0.2
			c0.5,0.2,0.8,0.1,1.1-0.3c0.3-0.5,0.7-0.5,1.2-0.2c0.6,0.5,1.2,0.9,1.7,1.4c0.3,0.3,0.3,0.7,0.1,1c-0.4,0.4-0.3,0.8-0.1,1.3
			c0.2,0.4,0.4,0.9,0.5,1.3c0.1,0.5,0.3,0.7,0.8,0.7c0.6,0,0.9,0.4,0.8,1c-0.1,0.7-0.2,1.4-0.3,2c-0.1,0.5-0.3,0.7-0.9,0.6
			s-0.8,0.1-1.1,0.5c-0.2,0.4-0.6,0.8-0.9,1.2s-0.5,0.7-0.2,1.2c0.2,0.5,0.1,0.8-0.3,1c-0.7,0.3-1.4,0.6-2.1,0.8
			c-0.5,0.2-0.8,0-0.9-0.5c-0.2-0.5-0.5-0.8-1-0.7c-0.5,0-0.9-0.1-1.4-0.2c-0.5-0.1-0.8-0.1-1,0.3c-0.3,0.5-0.8,0.6-1.2,0.2
			c-0.6-0.4-1.1-0.9-1.6-1.3c-0.3-0.3-0.4-0.6-0.1-1c0.4-0.4,0.4-0.8,0.1-1.3c-0.2-0.4-0.4-0.9-0.5-1.3c-0.1-0.5-0.3-0.7-0.8-0.7
			c-0.6,0-0.9-0.4-0.8-1c0.1-0.7,0.2-1.4,0.3-2.1c0.1-0.4,0.3-0.6,0.8-0.5c0.6,0.2,0.9-0.1,1.3-0.6c0.2-0.4,0.5-0.8,0.9-1.1
			c0.3-0.3,0.4-0.6,0.2-1c-0.3-0.6-0.1-0.9,0.5-1.2C778.2,50.9,778.9,50.6,779.8,50.3"/>
	</g>
	<path class="st0" d="M636.7,84.1c-3.5,0-7,0-10.5,0c-0.9,0-1.4-0.6-1.3-1.5c0.1-0.6,0.5-1,1.2-1c0.7,0,1.4,0,2,0c6.3,0,12.6,0,19,0
		c0.3,0,0.6,0,0.8,0.1c0.5,0.2,0.8,0.9,0.6,1.5c-0.1,0.6-0.6,0.9-1.2,0.9c-2.3,0-4.5,0-6.8,0L636.7,84.1L636.7,84.1L636.7,84.1z"/>
	<path class="st0" d="M615.7,83.2L615.7,83.2c-0.6,0-1.2,0-1.8,0c-0.8,0-1.7,0.5-1.7,1.7c0,1.1,0,2.2,0,3.3c0,1.1,0.7,1.7,1.7,1.7
		c1.1,0,2.2,0,3.3,0c1,0,1.6-0.5,1.6-1.5c0-1.3,0-2.6,0-3.8c0-0.8-0.6-1.3-1.5-1.4C616.9,83.2,616.3,83.2,615.7,83.2 M620.6,86.6
		c0,0.6,0,1.2,0,1.8c0,1.7-1.1,3-2.8,3.1c-1.5,0.1-3,0.1-4.4,0c-1.6-0.1-2.7-1.5-2.7-3.1c0-1.2,0-2.4,0-3.5c0-1.7,1.2-3.1,3-3.2
		c1.4-0.1,2.9-0.1,4.3,0c1.4,0.1,2.6,1.4,2.7,2.9C620.6,85.2,620.6,85.9,620.6,86.6L620.6,86.6L620.6,86.6z"/>
	<path class="st0" d="M631.6,75.5c-1.8,0-3.6,0-5.4,0c-1,0-1.6-1.1-1.1-2c0.3-0.4,0.6-0.6,1.1-0.6c2.6,0,5.2,0,7.8,0
		c1,0,1.9,0,2.9,0c0.9,0,1.4,0.5,1.4,1.3c0,0.8-0.5,1.3-1.4,1.3C635.1,75.5,633.3,75.5,631.6,75.5"/>
	<path class="st0" d="M631.6,85.9c1.8,0,3.6,0,5.3,0c0.8,0,1.3,0.5,1.3,1.3c0,0.8-0.5,1.3-1.3,1.3c-3.6,0-7.2,0-10.7,0
		c-1,0-1.6-0.9-1.2-1.8c0.2-0.5,0.6-0.7,1.2-0.7C627.9,85.9,629.7,85.9,631.6,85.9"/>
	<path class="st0" d="M655.3,79.4c0.7,0.3,1.3,0.5,2.1,0.8c-0.1,0.2-0.2,0.4-0.2,0.6c-0.5,1.1-0.9,2.3-1.4,3.4
		c-0.3,0.8-0.1,1.3,0.7,1.6c6.8,2.8,13.6,5.5,20.4,8.2c0.8,0.3,1.3,0.1,1.7-0.7c0.5-1.3,1-2.6,1.6-3.9c0.7,0.3,1.3,0.5,2,0.8
		c0,0.1-0.1,0.2-0.1,0.4c-0.5,1.2-1,2.5-1.5,3.7c-0.8,1.8-2.6,2.6-4.4,1.9c-6.9-2.8-13.7-5.5-20.6-8.3c-1.4-0.6-2.2-1.9-2.1-3.4
		c0-0.1,0-0.3,0-0.4L655.3,79.4L655.3,79.4z"/>
	<path class="st0" d="M528.8,77.7c2,0.3,4.1,0.7,6.1,1c0.9,0.1,1.3,0.4,1.2,1.4c-0.1,1-0.7,1.3-1.6,1.1c-4.1-0.7-8.1-1.3-12.2-1.9
		c-0.9-0.1-1.4-0.4-1.3-1.5c0.2-1.1,0.8-1.2,1.7-1.1C524.7,77.1,526.8,77.4,528.8,77.7C528.8,77.7,528.8,77.7,528.8,77.7"/>
	<path class="st0" d="M515.8,76.9c0.9-0.8,1.8-1.5,2.7-2.2c0.3-0.2,0.9-0.2,1.3-0.3c-0.2,0.5-0.2,1-0.5,1.3
		c-0.9,0.9-1.9,1.7-2.9,2.5c-0.6,0.5-1,0.5-1.5-0.1c-0.4-0.5-0.9-0.9-1.2-1.4c-0.2-0.3-0.1-0.8-0.1-1.2c0.4,0.1,0.8,0,1.1,0.2
		C515,76.1,515.3,76.5,515.8,76.9"/>
	<path class="st0" d="M757.6,88c3.4,6.2,9.7,6.5,14,2c1.6,0.9,3.2,1.8,4.8,2.8c1.1,0.7,2.2,1.4,3.2,2.3c2.3,2,3.1,4.8,3.5,7.8
		c0.1,1.2,0,2.4,0,3.6c0,0.5-0.3,0.8-0.8,0.9c-2.4,0.6-4.9,0.8-7.4,0.8c-6.2,0-12.3-0.7-18.3-1.9c-4.4-0.9-8.8-1.9-12.8-3.9
		c-0.5-0.2-1-0.5-1.4-0.8c-0.2-0.2-0.4-0.5-0.4-0.7c0.8-4.1,2.5-7.8,6.4-10c0.9-0.5,1.9-0.8,2.9-1.1C753.4,89.1,755.5,88.6,757.6,88
		"/>
	<path class="st0" d="M789,81.5c-0.3,1.9,1.1,3.7,3,3.9c1.8,0.2,3.6-1.1,3.9-3c0.3-1.9-1.1-3.7-3-4C791,78.2,789.2,79.6,789,81.5
		 M788.5,76.9c-0.1-0.2-0.1-0.4-0.2-0.6c-0.2-0.5-0.1-0.8,0.4-1c0.7-0.3,1.4-0.6,2.1-0.8c0.4-0.1,0.7,0,0.8,0.5
		c0.1,0.6,0.5,0.8,1.1,0.8c0.5,0,1,0.1,1.4,0.2c0.4,0.1,0.8,0,1-0.3c0.3-0.5,0.7-0.5,1.2-0.2c0.6,0.4,1.1,0.9,1.6,1.4
		c0.4,0.3,0.4,0.7,0,1.1c-0.4,0.4-0.4,0.7-0.1,1.2c0.2,0.4,0.4,0.9,0.5,1.4c0.1,0.5,0.4,0.7,0.9,0.8c0.6,0,0.8,0.3,0.7,0.8
		c-0.1,0.7-0.2,1.4-0.3,2c-0.1,0.5-0.4,0.8-1,0.7c-0.4-0.1-0.8,0-1,0.4c-0.3,0.4-0.6,0.8-1,1.2c-0.3,0.3-0.5,0.7-0.2,1.1
		c0.3,0.5,0.1,0.9-0.4,1.1c-0.7,0.3-1.4,0.5-2,0.7c-0.4,0.1-0.7,0-0.8-0.5c-0.2-0.6-0.5-0.8-1.1-0.8c-0.4,0-0.9-0.1-1.3-0.2
		c-0.5-0.1-0.8,0-1.1,0.4c-0.3,0.4-0.6,0.5-1,0.2c-0.6-0.5-1.2-0.9-1.8-1.4c-0.3-0.3-0.3-0.6,0-1c0.4-0.4,0.4-0.9,0.1-1.4
		c-0.2-0.4-0.4-0.8-0.4-1.2c-0.1-0.5-0.4-0.8-0.9-0.8c-0.6,0-0.8-0.4-0.7-0.9c0.1-0.7,0.2-1.5,0.4-2.2c0.1-0.4,0.4-0.6,0.8-0.5
		c0.6,0.1,0.9-0.1,1.2-0.5c0.2-0.4,0.6-0.7,0.9-1.1C788.3,77.3,788.4,77.1,788.5,76.9"/>
</g>
</svg>
