<?xml version="1.0" encoding="utf-8"?>
<!-- Generator: Adobe Illustrator 27.9.0, SVG Export Plug-In . SVG Version: 6.00 Build 0)  -->
<!DOCTYPE svg PUBLIC "-//W3C//DTD SVG 1.1//EN" "http://www.w3.org/Graphics/SVG/1.1/DTD/svg11.dtd" [
	<!ENTITY ns_extend "http://ns.adobe.com/Extensibility/1.0/">
	<!ENTITY ns_ai "http://ns.adobe.com/AdobeIllustrator/10.0/">
	<!ENTITY ns_graphs "http://ns.adobe.com/Graphs/1.0/">
	<!ENTITY ns_vars "http://ns.adobe.com/Variables/1.0/">
	<!ENTITY ns_imrep "http://ns.adobe.com/ImageReplacement/1.0/">
	<!ENTITY ns_sfw "http://ns.adobe.com/SaveForWeb/1.0/">
	<!ENTITY ns_custom "http://ns.adobe.com/GenericCustomNamespace/1.0/">
	<!ENTITY ns_adobe_xpath "http://ns.adobe.com/XPath/1.0/">
]>
<svg version="1.1" id="SSL_ILLUSTRATION" xmlns:x="&ns_extend;" xmlns:i="&ns_ai;" xmlns:graph="&ns_graphs;"
	 xmlns="http://www.w3.org/2000/svg" xmlns:xlink="http://www.w3.org/1999/xlink" x="0px" y="0px" width="1024px" height="330px"
	 viewBox="0 0 1024 330" style="enable-background:new 0 0 1024 330;" xml:space="preserve">
<style type="text/css">
	.st0{fill:#FF6600;}
	.st1{opacity:0.43;}
	.st2{clip-path:url(#SVGID_00000141457881904730889760000002548193514347926685_);}
	.st3{fill:#FFFFFF;}
	.st4{clip-path:url(#SVGID_00000111166054064918532230000002025797810738149285_);}
	.st5{fill:#F27021;}
	.st6{fill:#E5E8E8;}
	.st7{clip-path:url(#SVGID_00000008132023746125056280000010109472026335230337_);}
	.st8{fill:#F2F2F2;}
	.st9{clip-path:url(#SVGID_00000075883810102005848710000005571106497203493515_);}
	.st10{fill:#E6E7E8;}
	.st11{fill:#F1F2F2;}
	.st12{clip-path:url(#SVGID_00000039104965175574857150000014100713787454175659_);}
	.st13{clip-path:url(#SVGID_00000170260428825633548010000004225002804174451091_);}
	.st14{clip-path:url(#SVGID_00000103950491220485422160000011363727003945408435_);}
	.st15{opacity:0.38;}
	.st16{clip-path:url(#SVGID_00000080173986584635786060000010769676696490763186_);}
	.st17{fill:url(#SVGID_00000183948408210565322910000016803847732052486798_);}
	.st18{fill:url(#SVGID_00000119096185358552150190000010549425868029331357_);}
	.st19{fill:url(#SVGID_00000109747444493557554750000007831300492210578367_);}
	.st20{fill:url(#SVGID_00000150816239552070373390000017117834862107605130_);}
	.st21{fill:url(#SVGID_00000120531696831685838820000001361292341476823428_);}
	.st22{fill:url(#SVGID_00000014594811774255247140000003474147024845355967_);}
	.st23{fill:url(#SVGID_00000125575375699923392830000012266026116073458865_);}
	.st24{fill:none;stroke:#FFFFFF;stroke-width:2.798;}
</style>
<metadata>
	<sfw  xmlns="&ns_sfw;">
		<slices></slices>
		<sliceSourceBounds  bottomLeftOrigin="true" height="331.8" width="1024" x="0" y="0"></sliceSourceBounds>
	</sfw>
</metadata>
<rect y="0" class="st0" width="1024" height="330"/>
<g class="st1">
	<g>
		<g>
			<g>
				<defs>
					<rect id="SVGID_1_" x="738.2" y="223.8" width="90.6" height="83.1"/>
				</defs>
				<clipPath id="SVGID_00000174603614215863836490000005246969033386121393_">
					<use xlink:href="#SVGID_1_"  style="overflow:visible;"/>
				</clipPath>
				<g style="clip-path:url(#SVGID_00000174603614215863836490000005246969033386121393_);">
					<polygon class="st3" points="764.4,240.3 764.1,241.1 760.4,275.6 760.4,275.6 791.5,274.9 791.5,274.9 794.9,239.4 
						794.2,239.1 					"/>
					<g>
						<g>
							<defs>
								<polygon id="SVGID_00000159436092326393252740000007130122128544421020_" points="764.4,240.3 764.1,241.1 760.4,275.6 
									760.4,275.6 791.5,274.9 794.9,239.4 794.2,239.1 								"/>
							</defs>
							<clipPath id="SVGID_00000086672389127090007470000013005308259890968221_">
								<use xlink:href="#SVGID_00000159436092326393252740000007130122128544421020_"  style="overflow:visible;"/>
							</clipPath>
							<g style="clip-path:url(#SVGID_00000086672389127090007470000013005308259890968221_);">
								<path class="st5" d="M787.1,268l-2.2,0.4l-16.3-22l2.2-0.4L787.1,268z M770.2,260.4c-0.4,0.1-0.9,0.3-1.3,0.5
									s-0.6,0.5-0.9,1c-0.3,0.4-0.4,0.8-0.4,1.3c-0.1,0.5-0.1,1.1-0.1,1.7c0,0.6,0.2,1.3,0.3,1.7s0.4,0.9,0.6,1.2
									c0.3,0.3,0.6,0.5,1,0.6c0.4,0.1,0.8,0.1,1.3,0c0.4-0.1,0.9-0.3,1.2-0.5c0.4-0.3,0.6-0.5,0.9-1c0.3-0.4,0.4-0.9,0.4-1.4
									s0.1-1.2,0.1-1.8c0-0.6-0.2-1.2-0.3-1.7c-0.2-0.4-0.4-0.9-0.6-1.2c-0.3-0.3-0.6-0.4-1-0.6
									C771.1,260.4,770.7,260.3,770.2,260.4 M784.5,245.3c-0.4,0.1-0.9,0.3-1.3,0.5c-0.4,0.3-0.6,0.5-0.9,1
									c-0.3,0.4-0.4,0.8-0.4,1.3c-0.1,0.5-0.1,1.1-0.1,1.7c0,0.6,0.2,1.3,0.4,1.7c0.2,0.4,0.4,0.9,0.6,1.2c0.3,0.3,0.6,0.5,1,0.6
									c0.4,0.1,0.8,0.1,1.3,0s0.9-0.3,1.2-0.5c0.4-0.3,0.6-0.5,0.9-1c0.2-0.4,0.4-0.9,0.4-1.4s0.1-1.2,0.1-1.8
									c-0.1-0.6-0.2-1.2-0.4-1.6c-0.2-0.4-0.4-0.8-0.6-1.2c-0.3-0.3-0.6-0.4-1-0.6C785.3,245.2,784.9,245.2,784.5,245.3
									 M785.3,255.3c-0.9,0.2-1.7,0.2-2.4,0.1c-0.7-0.1-1.3-0.4-1.9-0.8c-0.5-0.4-0.9-1-1.3-1.6c-0.3-0.7-0.4-1.5-0.5-2.4
									c-0.1-0.9,0-1.8,0.2-2.6c0.2-0.8,0.5-1.5,1-2.2c0.4-0.6,1-1.2,1.6-1.5c0.6-0.4,1.4-0.7,2.2-0.9c0.8-0.2,1.6-0.2,2.3-0.1
									c0.7,0.1,1.3,0.4,1.8,0.8c0.5,0.4,0.9,1,1.3,1.6c0.3,0.7,0.5,1.5,0.5,2.4c0.1,0.9,0,1.8-0.2,2.6c-0.2,0.8-0.5,1.5-0.9,2.1
									c-0.4,0.6-1,1.1-1.6,1.5C786.9,254.8,786.1,255.1,785.3,255.3 M771,270.4c-0.9,0.2-1.7,0.2-2.4,0.1
									c-0.7-0.1-1.3-0.4-1.8-0.8c-0.5-0.4-0.9-1-1.2-1.7c-0.3-0.7-0.4-1.5-0.5-2.4c-0.1-1,0-1.8,0.3-2.6c0.2-0.8,0.5-1.5,1-2.2
									s1-1.2,1.6-1.5c0.6-0.4,1.4-0.7,2.2-0.9c0.8-0.2,1.6-0.2,2.3-0.1s1.3,0.4,1.8,0.8c0.5,0.4,0.9,1,1.2,1.7s0.4,1.5,0.5,2.4
									c0.1,1,0,1.8-0.2,2.6c-0.2,0.8-0.5,1.5-0.9,2.1c-0.4,0.6-1,1.1-1.6,1.5C772.6,270,771.9,270.2,771,270.4"/>
							</g>
						</g>
					</g>
					<polygon class="st6" points="760.4,275.6 760.4,275.6 774.8,286 774.8,286 804.9,285.5 791.5,274.9 					"/>
					<g>
						<g>
							<defs>
								<polygon id="SVGID_00000003819128485930204110000007475381933097311150_" points="774.8,286 760.4,275.6 791.5,274.9 
									804.9,285.5 								"/>
							</defs>
							<clipPath id="SVGID_00000013179176291523073250000015450296422510625702_">
								<use xlink:href="#SVGID_00000003819128485930204110000007475381933097311150_"  style="overflow:visible;"/>
							</clipPath>
							<g style="clip-path:url(#SVGID_00000013179176291523073250000015450296422510625702_);">
								<path class="st5" d="M778.8,283.9l-1.3-0.5l9.4-6.1l1.3,0.5L778.8,283.9L778.8,283.9z M777,278.9c-0.3-0.1-0.6-0.2-0.9-0.3
									c-0.4-0.1-0.7-0.1-1.1-0.2c-0.4,0-0.8-0.1-1.3,0c-0.4,0-0.9,0-1.3,0.1c-0.4,0.1-0.8,0.1-1.2,0.2c-0.3,0.1-0.4,0.2-0.6,0.3
									c-0.1,0.1-0.1,0.2,0,0.3s0.3,0.3,0.5,0.4c0.3,0.1,0.6,0.2,0.9,0.3c0.4,0.1,0.7,0.1,1.1,0.2c0.4,0,0.8,0,1.3,0
									s0.9-0.1,1.3-0.1c0.4-0.1,0.8-0.1,1.1-0.2c0.3-0.1,0.4-0.2,0.5-0.3c0.1-0.1,0.1-0.2,0-0.3
									C777.5,279.1,777.3,278.9,777,278.9 M794.6,281.6c-0.3-0.1-0.5-0.2-0.9-0.3c-0.4-0.1-0.7-0.1-1.1-0.2c-0.4,0-0.8-0.1-1.3,0
									c-0.4,0-0.9,0-1.3,0.1c-0.4,0.1-0.9,0.1-1.2,0.2c-0.3,0.1-0.5,0.2-0.6,0.3c-0.1,0.1-0.2,0.2-0.1,0.3
									c0.1,0.1,0.3,0.2,0.5,0.4c0.3,0.1,0.5,0.2,0.9,0.3c0.4,0.1,0.7,0.1,1.1,0.2c0.4,0,0.8,0,1.3,0c0.4,0,0.9-0.1,1.3-0.1
									c0.4-0.1,0.8-0.1,1.1-0.2c0.3-0.1,0.4-0.2,0.6-0.3c0.1-0.1,0.1-0.2,0-0.3C795.1,281.9,794.9,281.8,794.6,281.6 M787.4,282.5
									c-0.5-0.3-0.9-0.4-1.1-0.6c-0.2-0.2-0.3-0.4-0.2-0.5c0.1-0.2,0.4-0.4,0.7-0.4c0.4-0.1,0.9-0.3,1.6-0.4
									c0.7-0.1,1.3-0.1,2.1-0.1s1.3,0,2.1,0.1c0.6,0.1,1.3,0.2,1.9,0.4c0.6,0.2,1.2,0.4,1.6,0.5c0.4,0.2,0.8,0.4,1,0.6
									c0.2,0.2,0.3,0.4,0.1,0.5c-0.1,0.2-0.4,0.4-0.7,0.4c-0.4,0.1-0.9,0.3-1.6,0.4c-0.7,0.1-1.3,0.1-2.1,0.1c-0.6,0-1.3,0-2-0.1
									c-0.6-0.1-1.3-0.2-1.8-0.4C788.4,283,787.9,282.8,787.4,282.5 M769.9,279.8c-0.5-0.3-0.9-0.4-1.2-0.6
									c-0.3-0.2-0.3-0.4-0.3-0.5c0.1-0.2,0.3-0.4,0.7-0.4c0.4-0.1,0.9-0.3,1.6-0.4c0.7-0.1,1.3-0.1,2.1-0.2c0.7,0,1.3,0,2.1,0.1
									c0.6,0.1,1.3,0.2,1.9,0.4c0.6,0.2,1.2,0.4,1.7,0.5s0.9,0.4,1.1,0.6c0.2,0.2,0.3,0.4,0.2,0.5s-0.4,0.4-0.7,0.4
									c-0.4,0.1-0.9,0.3-1.6,0.4c-0.6,0.1-1.3,0.1-2,0.1c-0.6,0-1.3,0-2-0.1c-0.6-0.1-1.3-0.2-1.9-0.4
									C771,280.2,770.4,280,769.9,279.8"/>
							</g>
						</g>
					</g>
					<polygon class="st8" points="791.5,274.9 804.9,285.5 804.9,285.5 808.1,251 795.7,239.8 794.9,239.4 					"/>
					<polygon class="st8" points="791.5,274.9 804.9,285.5 804.9,285.5 808.1,251 795.7,239.8 794.9,239.4 					"/>
					<g>
						<g>
							<defs>
								<polygon id="SVGID_00000119808177910205001450000008560880121781133740_" points="791.5,274.9 804.9,285.5 808.1,251 
									795.7,239.8 794.9,239.4 								"/>
							</defs>
							<clipPath id="SVGID_00000018930181549766782600000015976682908100218815_">
								<use xlink:href="#SVGID_00000119808177910205001450000008560880121781133740_"  style="overflow:visible;"/>
							</clipPath>
							<g style="clip-path:url(#SVGID_00000018930181549766782600000015976682908100218815_);">
								<path class="st5" d="M803.3,278l-0.9-0.4l-4.8-30l0.9,0.4L803.3,278L803.3,278z M797.3,263.3c-0.2-0.1-0.4-0.1-0.5,0.1
									c-0.2,0.1-0.3,0.4-0.4,0.7c-0.1,0.4-0.2,0.7-0.3,1.3c-0.1,0.5-0.1,1.1-0.2,1.8c0,0.7,0,1.3,0,2c0,0.6,0.1,1.1,0.2,1.5
									c0.1,0.4,0.2,0.8,0.4,1.1c0.2,0.3,0.3,0.4,0.5,0.5c0.2,0.1,0.4,0.1,0.5-0.1c0.2-0.1,0.3-0.4,0.4-0.7
									c0.1-0.4,0.2-0.8,0.3-1.3c0.1-0.5,0.1-1.2,0.2-1.9c0-0.7,0-1.3,0-1.9c0-0.5-0.1-1.1-0.2-1.5c-0.1-0.4-0.2-0.8-0.4-1
									C797.7,263.7,797.5,263.3,797.3,263.3 M803.9,253.3c-0.2-0.1-0.4-0.1-0.5,0c-0.2,0.1-0.3,0.4-0.4,0.6
									c-0.1,0.3-0.2,0.7-0.3,1.2c-0.1,0.4-0.1,1.1-0.2,1.7c0,0.7,0,1.3,0,1.9c0,0.5,0.1,1.1,0.2,1.5s0.2,0.8,0.4,1.1
									c0.2,0.3,0.3,0.4,0.4,0.5c0.2,0.1,0.4,0.1,0.5-0.1c0.2-0.1,0.3-0.4,0.4-0.6c0.1-0.4,0.2-0.7,0.3-1.3s0.1-1.1,0.2-1.8
									c0-0.7,0-1.3,0-1.9c0-0.5-0.1-1.1-0.2-1.4c-0.1-0.4-0.2-0.7-0.4-1C804.2,253.6,804.1,253.4,803.9,253.3 M803.5,264
									c-0.4-0.2-0.6-0.4-0.9-0.9c-0.3-0.4-0.4-1-0.6-1.6c-0.2-0.6-0.3-1.4-0.4-2.2c-0.1-0.8-0.1-1.8,0-2.8c0-1,0.1-1.9,0.3-2.6
									c0.1-0.7,0.3-1.3,0.5-1.8c0.2-0.4,0.4-0.8,0.7-0.9c0.3-0.2,0.6-0.2,0.9,0c0.4,0.2,0.6,0.4,0.9,0.9c0.3,0.4,0.4,1,0.6,1.6
									c0.2,0.6,0.3,1.4,0.4,2.2c0.1,0.8,0.1,1.8,0,2.8c0,1-0.1,1.9-0.3,2.6c-0.1,0.7-0.3,1.3-0.4,1.8c-0.2,0.4-0.4,0.8-0.7,0.9
									C804.2,264.2,803.8,264.2,803.5,264 M796.9,274.3c-0.4-0.2-0.7-0.4-1-0.9c-0.3-0.4-0.5-1-0.7-1.6c-0.2-0.6-0.3-1.4-0.4-2.2
									c-0.1-0.9-0.1-1.8,0-2.9c0-1.1,0.2-2,0.3-2.7c0.2-0.8,0.4-1.4,0.5-1.9s0.4-0.8,0.8-1c0.3-0.2,0.6-0.2,1,0
									c0.4,0.2,0.6,0.4,0.9,0.9c0.3,0.4,0.4,1,0.6,1.6c0.2,0.6,0.3,1.4,0.4,2.2c0.1,0.9,0.1,1.8,0.1,2.8s-0.1,1.9-0.3,2.7
									c-0.1,0.7-0.3,1.3-0.5,1.9c-0.2,0.4-0.4,0.8-0.7,1C797.6,274.4,797.2,274.5,796.9,274.3"/>
							</g>
						</g>
					</g>
				</g>
			</g>
		</g>
	</g>
</g>
<g>
	<polygon class="st3" points="704.1,288.6 657.1,255.7 686.8,197.6 735,230 	"/>
	<polygon class="st10" points="735,230 686.8,197.6 720.1,196.1 766.9,227.1 	"/>
	<polygon class="st11" points="766.9,227.1 736.8,283.4 704.1,288.6 735,230 	"/>
	<polygon class="st11" points="766.9,227.1 736.8,283.4 704.1,288.6 735,230 	"/>
	<path class="st0" d="M735.1,222.7c5.1-0.3,10.2-0.5,15.3-0.9c-7.1-4.8-14.3-9.7-21.7-14.7c-5.3,0.3-10.6,0.6-15.9,0.9
		C720.5,213,727.8,217.8,735.1,222.7 M709.2,203.7c2.7,1.7,4.3,2.2,6.3,2.2c1.7-0.1,3.5-0.2,5.2-0.3s1.5-0.8-0.4-2.2
		c-0.1-0.1-0.1-0.1-0.2-0.2c1.2-0.1,2.2-0.2,3.6-0.2c1.2,0,2.6,0.7,3.9,1.6c7.2,4.9,14.2,9.7,21,14.3c1.4,1,3,2,4.4,3
		c1.6,1.1,1.7,1.6,0.4,1.7c-5.2,0.3-10.5,0.6-15.8,0.9c-1.3,0.1-2.7-0.4-4.3-1.4c-8.6-5.6-17.5-11.5-26.5-17.5
		c-1.7-1.2-1.9-1.6-0.5-1.7C707.2,203.8,708.2,203.7,709.2,203.7"/>
	<path class="st0" d="M740,219c1.1-0.1,2.2-0.1,3.2-0.2c0.4,0,0.9,0.1,1.5,0.4c0.6,0.4,0.6,0.6,0.1,0.6c-2.2,0.1-4.3,0.3-6.5,0.4
		c-0.4,0-0.9,0-1.6-0.4c-0.7-0.4-0.5-0.6,0-0.6C737.9,219.1,739,219,740,219L740,219L740,219z"/>
	<path class="st0" d="M735.3,215.7c1.1-0.1,2.2-0.1,3.2-0.2c0.4,0,0.9,0.1,1.5,0.4c0.6,0.4,0.6,0.6,0.1,0.6
		c-2.2,0.1-4.4,0.3-6.5,0.4c-0.4,0-0.9,0-1.6-0.4s-0.5-0.6,0-0.6C733,215.9,734.1,215.8,735.3,215.7L735.3,215.7L735.3,215.7z"/>
	<path class="st0" d="M732.4,213.8c-1.2,0.1-2.2,0.1-3.4,0.2c-0.4,0-0.8-0.1-1.4-0.4c-0.6-0.4-0.6-0.5-0.2-0.6
		c2.2-0.1,4.6-0.3,6.8-0.4c0.4,0,0.9,0.1,1.4,0.5c0.5,0.4,0.6,0.5,0.2,0.5C734.7,213.7,733.5,213.7,732.4,213.8"/>
	<path class="st0" d="M725.9,209.4c1.1-0.1,2.2-0.1,3.3-0.2c0.4,0,0.9,0.1,1.4,0.4c0.5,0.4,0.6,0.5,0.2,0.6
		c-2.3,0.1-4.6,0.3-6.9,0.4c-0.4,0-0.9-0.2-1.4-0.5c-0.5-0.4-0.5-0.5-0.1-0.5C723.6,209.5,724.7,209.4,725.9,209.4"/>
	<path class="st0" d="M719.7,210.3c-0.2-0.4-0.4-0.9-0.4-1.3c0-0.1,0.3-0.1,0.4-0.2c0.3,0.2,0.6,0.4,0.7,0.5c0.3,0.5,0.4,1,0.6,1.4
		c0.1,0.3-0.1,0.3-0.7,0.1c-0.5-0.2-1.2-0.4-1.7-0.5c-0.3-0.1-0.5-0.4-0.8-0.4c0.2,0,0.3-0.1,0.5,0
		C718.6,210,719.1,210.1,719.7,210.3"/>
	<path class="st0" d="M729.4,216.8c-0.2-0.4-0.4-0.9-0.4-1.3c0-0.1,0.3-0.1,0.4-0.2c0.2,0.2,0.5,0.4,0.6,0.4c0.3,0.5,0.4,1,0.5,1.4
		c0,0.1-0.3,0.2-0.5,0.1c-0.5-0.2-1.3-0.4-1.9-0.5c-0.3-0.1-0.5-0.3-0.7-0.4c0.2,0,0.3-0.1,0.5-0.1
		C728.4,216.5,728.8,216.6,729.4,216.8"/>
	<path class="st0" d="M724.6,213.6c-0.2-0.4-0.4-0.8-0.4-1.2c0-0.2,0.3-0.2,0.4-0.3c0.3,0.2,0.6,0.4,0.7,0.5c0.3,0.4,0.4,1,0.5,1.3
		c0,0.1-0.4,0.2-0.6,0.1c-0.5-0.1-1.2-0.4-1.8-0.5c-0.3-0.1-0.4-0.3-0.7-0.4c0.2,0,0.3-0.1,0.5-0.1
		C723.6,213.3,724.1,213.5,724.6,213.6"/>
	<path class="st0" d="M734,219.9c-0.2-0.4-0.4-0.8-0.4-1.2c0-0.1,0.3-0.2,0.4-0.3c0.3,0.2,0.6,0.4,0.7,0.6c0.3,0.4,0.4,0.9,0.5,1.3
		c0.1,0.3-0.1,0.3-0.7,0.1c-0.5-0.2-1-0.3-1.5-0.4c-0.3-0.1-0.6-0.4-0.9-0.5c0.2,0,0.4-0.1,0.6,0C733.1,219.6,733.6,219.8,734,219.9
		"/>
	<path class="st0" d="M716.4,202.4c-0.8,0-1.7-0.3-2.8-0.9c-1.1-0.6-2.4-1-3.1-0.9s-0.6,0.5,0.1,1.2c0.7,0.6,0.8,1,0.1,1
		c-0.9,0.1-0.9,0.5,0.2,1.2c1,0.7,2.2,1.1,3.2,1.1c1,0,1.9-0.1,2.9-0.2c1-0.1,2-0.1,3-0.2c0.8-0.1,0.7-0.5-0.4-1.3
		C718.4,202.8,717.3,202.4,716.4,202.4"/>
	<path class="st0" d="M685.9,250.4c1.3-0.8,2.5-1.6,3.8-2.4c0.6-0.4,1.2-0.4,1.6,0c0.1,0.1,0.3,0,0.4-0.1c2.9-2.1,5.7-4.1,8.6-6.3
		c2.3-1.7,4.7-3.3,7-5.1c0.3-0.2,0.4-0.2,0.4,0.2c0.1,0.4,0.1,0.7,0.3,1.1c0.1,0.4,0,0.4-0.3,0.6c-4.4,3.1-8.8,6.4-13.1,9.4
		c-0.8,0.6-1.7,1.2-2.5,1.8c-0.2,0.1-0.3,0.3-0.4,0.5c-0.2,0.8-0.6,1.4-1.2,1.8c-2.3,1.5-4.6,3-6.8,4.5c-1.3,0.8-2.2-0.1-1.9-1.9
		c0.1-1,0.4-2.1,0.7-3c0.2-0.9,0.4-1.8,0.7-2.7c0.1-0.4,0.1-0.5-0.2-0.7c-0.4-0.3-0.4-0.3-0.7,0.4c-0.9,2-1.9,3.9-2.8,5.8
		c-0.7,1.6-1.5,3.1-2.2,4.7c-0.2,0.3-0.3,0.4-0.4,0.3c-3.2-2.3-6.5-4.7-9.8-7c-0.2-0.1-0.2-0.3-0.1-0.5c1.9-4.1,3.9-8.2,5.7-12.4
		c0.7-1.4,1.5-2.7,2.6-3.5c1.2-0.8,2.2-0.9,3.2-0.4c0.9,0.4,1.7,1.2,2.6,1.7c1.2,0.8,2.4,1.7,3.6,2.5c2.2,1.5,2.8,4.8,1.7,8.6
		C686.3,248.8,686.1,249.5,685.9,250.4"/>
	<path class="st0" d="M708,224.5c4.7,3.2,9.5,6.5,14.3,9.9c0.8,0.5,0.7,1.7,0.2,2.7c-6.8,13.2-13.5,26-19.9,38.4
		c-0.6,1.2-1.3,1.4-2,1c-7.1-5-14.1-10-21.1-15c-0.3-0.2-0.3-0.3-0.1-0.7c0.4-0.7,0.7-1.5,1.1-2.2c0.1-0.3,0.2-0.3,0.4-0.2l0.2,0.2
		c6.6,4.7,13.3,9.4,20,14.2c0.4,0.3,0.3,0.3,0.6-0.3c5.8-11.3,11.7-22.9,17.9-34.7c0.2-0.4,0.2-0.6-0.1-0.8c-8.8-6-17.5-12-26.2-18
		c-0.4-0.3-0.3-0.3-0.6,0.4c-0.5,1.1-1.1,2.2-1.5,3.2c-0.2,0.4-0.3,0.4-0.4,0.3c-0.4-0.4-1-0.7-1.4-1c-0.2-0.1-0.2-0.2-0.1-0.5
		c0.9-1.8,1.7-3.6,2.6-5.5c0.5-1.1,1.2-1.4,1.9-1C698.5,217.9,703.2,221.1,708,224.5"/>
	<path class="st0" d="M688.3,225.9c1.9,1.3,2.2,4.8,0.7,7.9c-1.4,3-4.1,4.5-5.9,3.2c-1.8-1.3-2.1-4.7-0.6-7.8
		C683.9,226.1,686.5,224.5,688.3,225.9"/>
	<path class="st0" d="M748,242.4c-2,0.2-3.9,0.4-5.9,0.5c-0.4,0-0.4-0.2-0.4-0.6c0.1-0.4,0.5-1.2,0.9-1.4c0.3-0.2,0.5-0.4,0.7-0.4
		c2.2-0.2,4.2-0.4,6.3-0.6c1.7-0.2,3.5-0.4,5.2-0.4c0.4,0,0.5,0.4,0.2,1.2c-0.4,0.6-0.8,1.2-1.2,1.2c-0.9,0.1-1.8,0.2-2.7,0.3
		C750.1,242.1,749,242.2,748,242.4L748,242.4L748,242.4z"/>
	<path class="st0" d="M741.9,254.8c-2,0.3-3.9,0.4-5.8,0.7c-0.2,0-0.4,0-0.4,0c-0.3-0.1-0.2-0.7,0.3-1.3c0.4-0.6,0.8-1.1,1.2-1.1
		c0.3-0.1,0.6-0.1,0.9-0.1c3.8-0.4,7.4-0.9,11-1.3c0.5-0.1,0.6,0.4,0.2,1.2c-0.4,0.7-0.8,1.3-1.3,1.3c-1.1,0.2-2.2,0.3-3.3,0.4
		C743.7,254.7,742.8,254.7,741.9,254.8"/>
	<path class="st0" d="M735.7,267.6c-2.1,0.3-4.1,0.6-6.2,0.9c-0.5,0.1-0.5-0.5,0-1.4c0.4-0.6,0.8-1.1,1.2-1.1
		c0.4-0.1,0.8-0.1,1.3-0.2c3.7-0.5,7.3-1.1,10.9-1.5c0.2,0,0.4,0,0.4,0.1c0.2,0.2,0,0.8-0.4,1.3c-0.4,0.5-0.8,1-1.2,1
		c-1.3,0.2-2.6,0.4-3.9,0.5C737.3,267.4,736.5,267.5,735.7,267.6L735.7,267.6L735.7,267.6z"/>
	<path class="st0" d="M723.7,268.5L723.7,268.5c-0.4,0.1-0.7,0.1-1.1,0.2c-0.4,0.1-1.3,0.7-1.9,1.9c-0.5,1.2-1.2,2.2-1.7,3.4
		c-0.5,1.1-0.4,1.7,0.2,1.6c0.7-0.1,1.3-0.2,2.1-0.4c0.6-0.1,1.3-0.7,1.8-1.7c0.7-1.3,1.3-2.6,2-3.9c0.4-0.8,0.3-1.3-0.2-1.3
		C724.4,268.4,724.1,268.5,723.7,268.5 M725,271.5c-0.3,0.6-0.6,1.3-0.9,1.8c-0.9,1.7-2.2,3.2-3.3,3.5c-1,0.3-1.9,0.4-2.8,0.4
		c-0.9,0-0.9-1.3-0.1-3c0.6-1.3,1.3-2.4,1.8-3.7c0.9-1.8,2.3-3.3,3.5-3.6c0.9-0.2,1.8-0.4,2.6-0.4s0.9,1.2,0.2,2.7
		C725.7,270.1,725.3,270.8,725,271.5L725,271.5L725,271.5z"/>
	<path class="st0" d="M730.3,255.4L730.3,255.4c-0.4,0.1-0.7,0.1-1.2,0.2c-0.6,0.1-1.3,0.7-1.8,1.8c-0.5,1.1-1.2,2.2-1.7,3.4
		c-0.4,1-0.4,1.7,0.2,1.6c0.7-0.1,1.3-0.2,2.1-0.3c0.4-0.1,0.8-0.4,1.3-1c0.2-0.3,0.4-0.6,0.5-0.9c0.5-1.1,1.1-2.2,1.6-3.3
		c0.1-0.2,0.2-0.4,0.3-0.5c0.3-0.6,0.1-1-0.3-1C731,255.3,730.6,255.3,730.3,255.4 M731.5,258.2c-0.4,0.8-0.7,1.6-1.3,2.4
		c-0.9,1.4-2.1,2.6-3,2.8c-0.9,0.2-1.7,0.3-2.5,0.3c-0.9,0-0.9-1.3-0.1-3c0.5-1.2,1.2-2.2,1.7-3.4c1-2.1,2.6-3.3,3.4-3.5
		c0.9-0.1,1.7-0.3,2.5-0.3c0.8,0,0.9,1.2,0.2,2.6C732.2,257,731.8,257.6,731.5,258.2L731.5,258.2L731.5,258.2z"/>
	<path class="st0" d="M739,241c-0.4,0.4-0.9,0.9-1.3,1.3c-0.1,0.1-0.2,0.1-0.3,0.1c-0.5,0.1-1.2,0.1-1.7,0.2
		c-0.6,0.1-1.3,0.7-1.9,1.8c-0.5,1.1-1.1,2.1-1.6,3.1c-0.5,1.1-0.4,1.6,0.2,1.6c0.6-0.1,1.3-0.2,1.9-0.2c0.6-0.1,1.3-0.7,1.8-1.7
		c0.3-0.4,0.4-0.9,0.7-1.3c0.1-0.1,0.2-0.3,0.3-0.4c0.4-0.5,1-1,1.5-1.5c-0.1,0.2-0.1,0.3-0.1,0.3c-0.4,1-1,2-1.4,3
		c-0.8,1.6-2.2,3-3.2,3.2c-0.9,0.2-1.7,0.3-2.4,0.3c-0.9,0-0.9-1.3-0.2-3c0.5-1.2,1.2-2.3,1.8-3.5c0.7-1.5,2.2-3,3-3
		c1-0.2,1.8-0.2,2.7-0.3C738.8,240.9,738.9,240.9,739,241"/>
	<path class="st0" d="M736.9,259.5c-1.1,0.2-2.1,0.3-3.1,0.4c-0.6,0.1-0.4-1,0.4-1.9c0.4-0.4,0.6-0.6,0.9-0.6c1.5-0.2,3-0.4,4.5-0.5
		c0.5-0.1,1.1-0.2,1.7-0.2c0.5-0.1,0.5,0.4,0.2,1.2c-0.4,0.7-0.9,1.3-1.3,1.3C739,259.2,738,259.3,736.9,259.5"/>
	<path class="st0" d="M744.3,244.3c1-0.1,2-0.2,3-0.3c0.4,0,0.4,0.4,0.2,1.1c-0.4,0.7-0.9,1.3-1.3,1.3c-2.1,0.2-4,0.4-6.1,0.6
		c-0.4,0-0.4-0.4-0.1-1.2c0.4-0.7,0.9-1.3,1.3-1.3C742.3,244.4,743.4,244.4,744.3,244.3"/>
	<path class="st0" d="M731.9,269.9c1.1-0.2,2.1-0.4,3.1-0.4c0.4-0.1,0.5,0.4,0.2,1.2c-0.4,0.8-0.9,1.3-1.4,1.4
		c-2.2,0.4-4.2,0.6-6.4,1c-0.6,0.1-0.5-0.8,0.2-1.7c0.4-0.5,0.7-0.8,1.1-0.9C729.7,270.2,730.8,270,731.9,269.9"/>
	<path class="st0" d="M735.1,245.5c0.4-0.4,0.8-0.8,1.3-1.3c1.3-1.2,2.5-2.4,3.7-3.6c0.3-0.3,0.5-0.4,0.6-0.3
		c0.1,0.2,0.1,0.4-0.1,0.7c-0.1,0.2-0.3,0.4-0.4,0.5c-1.8,1.8-3.6,3.5-5.5,5.3c-0.4,0.4-0.6,0.4-0.7,0.1c-0.1-0.4-0.1-0.7-0.1-1.1
		c0-0.4,0.2-0.8,0.5-1.2s0.6-0.4,0.6,0C735.1,245.1,735.1,245.2,735.1,245.5"/>
</g>
<g>
	<polygon class="st3" points="581.2,165.7 589.9,228.3 590.6,229.7 643.2,232 644.5,231.4 636.4,166.8 636.4,166.8 	"/>
	<g>
		<g>
			<defs>
				<polygon id="SVGID_00000081646141010951989320000014471146543125240731_" points="589.9,228.3 590.6,229.7 643.2,232 
					644.5,231.4 636.4,166.8 581.2,165.7 				"/>
			</defs>
			<clipPath id="SVGID_00000146482820023729854470000014239199122685200802_">
				<use xlink:href="#SVGID_00000081646141010951989320000014471146543125240731_"  style="overflow:visible;"/>
			</clipPath>
			<g style="clip-path:url(#SVGID_00000146482820023729854470000014239199122685200802_);">
				<path class="st0" d="M628.9,179.3l-3.9-0.8l-27.5,40.1l3.9,0.8L628.9,179.3L628.9,179.3z M599.7,193.2c-0.8-0.2-1.5-0.5-2.2-1
					c-0.6-0.4-1.2-1.1-1.6-1.7c-0.4-0.7-0.7-1.5-1-2.4c-0.2-0.9-0.3-2-0.3-3c0-1.2,0.2-2.2,0.4-3.1c0.3-0.9,0.6-1.6,1.1-2.2
					s1-1,1.7-1.2c0.6-0.2,1.4-0.3,2.2-0.1s1.5,0.4,2.2,1c0.6,0.4,1.2,1.1,1.6,1.8c0.4,0.7,0.7,1.6,0.9,2.5c0.2,1,0.3,2.1,0.3,3.2
					c0,1.2-0.2,2.2-0.4,3s-0.6,1.5-1.1,2.1c-0.4,0.5-1,0.9-1.6,1.1C601.2,193.4,600.5,193.4,599.7,193.2 M625.7,220.6
					c-0.8-0.2-1.5-0.5-2.2-1c-0.6-0.4-1.2-1.1-1.6-1.8c-0.4-0.7-0.7-1.5-0.9-2.4c-0.2-0.9-0.3-2-0.3-3c0-1.2,0.2-2.2,0.4-3
					c0.3-0.9,0.6-1.6,1.1-2.2c0.4-0.5,1.1-1,1.7-1.2c0.6-0.2,1.4-0.3,2.2-0.1s1.5,0.5,2.2,1c0.6,0.4,1.2,1.1,1.6,1.8
					c0.4,0.7,0.7,1.6,0.9,2.5c0.2,1,0.3,2.1,0.3,3.2c0,1.2-0.2,2.2-0.4,3c-0.3,0.8-0.6,1.5-1.1,2.1c-0.4,0.5-1.1,0.9-1.7,1.1
					C627.2,220.8,626.5,220.8,625.7,220.6 M626.6,202.5c-1.6-0.4-3-0.4-4.3-0.2s-2.3,0.7-3.2,1.4c-0.9,0.7-1.6,1.8-2.1,3
					s-0.8,2.8-0.8,4.5c-0.1,1.7,0.1,3.3,0.5,4.7c0.4,1.4,1,2.7,1.9,3.9c0.8,1.1,1.8,2.1,3,2.8c1.2,0.7,2.5,1.3,4,1.6
					c1.5,0.4,2.9,0.4,4.1,0.2c1.3-0.3,2.2-0.7,3.1-1.5c0.9-0.7,1.6-1.8,2.1-3c0.5-1.3,0.8-2.8,0.9-4.5s-0.1-3.3-0.4-4.7
					c-0.4-1.4-1-2.7-1.8-3.9c-0.8-1.1-1.8-2.1-3-2.8C629.5,203.4,628,202.9,626.6,202.5 M600.4,175c-1.6-0.4-3-0.4-4.2-0.1
					s-2.3,0.7-3.1,1.5c-0.9,0.7-1.5,1.8-2.1,3c-0.4,1.3-0.7,2.8-0.8,4.5c0,1.7,0.2,3.3,0.5,4.7c0.4,1.4,1.1,2.7,1.9,3.9
					c0.8,1.1,1.8,2.1,3,2.8c1.2,0.7,2.5,1.3,4,1.6s2.9,0.4,4,0.1s2.2-0.8,3.1-1.5c0.9-0.8,1.5-1.8,2.1-3c0.4-1.3,0.8-2.8,0.8-4.5
					c0.1-1.7-0.1-3.3-0.5-4.7c-0.4-1.4-1-2.7-1.8-3.9c-0.8-1.1-1.8-2.1-3-2.8C603.2,175.8,601.9,175.3,600.4,175"/>
			</g>
		</g>
	</g>
	<polygon class="st6" points="606.3,146.6 581.2,165.7 636.4,166.8 659.5,147.4 	"/>
	<g>
		<g>
			<defs>
				<polygon id="SVGID_00000049913059099858232920000005608708435110343333_" points="581.2,165.7 636.4,166.8 659.5,147.4 
					606.3,146.6 				"/>
			</defs>
			<clipPath id="SVGID_00000174563837879637528510000012425803908722892705_">
				<use xlink:href="#SVGID_00000049913059099858232920000005608708435110343333_"  style="overflow:visible;"/>
			</clipPath>
			<g style="clip-path:url(#SVGID_00000174563837879637528510000012425803908722892705_);">
				<path class="st0" d="M613.3,150.4l-2.2,1l17,11l2.2-1.1L613.3,150.4z M610.6,159.7c-0.4,0.2-1.1,0.4-1.6,0.5
					c-0.6,0.2-1.3,0.3-2,0.3c-0.7,0.1-1.4,0.1-2.2,0.1c-0.7,0-1.5-0.1-2.3-0.2c-0.8-0.1-1.5-0.3-2-0.4c-0.5-0.2-0.9-0.3-1.1-0.4
					c-0.2-0.2-0.2-0.4-0.1-0.5c0.2-0.2,0.4-0.4,1-0.6c0.4-0.2,1-0.4,1.6-0.5c0.6-0.2,1.3-0.3,2-0.3c0.7-0.1,1.4-0.1,2.2-0.1
					s1.6,0.1,2.4,0.2c0.8,0.1,1.4,0.3,2,0.4c0.5,0.2,0.8,0.3,1,0.4c0.2,0.2,0.2,0.4,0.1,0.5C611.3,159.2,611,159.4,610.6,159.7
					 M641.5,154.5c-0.4,0.2-1,0.4-1.6,0.5c-0.6,0.2-1.3,0.3-2,0.3c-0.7,0.1-1.4,0.1-2.2,0.1c-0.7,0-1.5-0.1-2.3-0.2
					c-0.8-0.1-1.5-0.3-2.1-0.4c-0.5-0.2-0.9-0.3-1.1-0.4c-0.2-0.2-0.3-0.4-0.1-0.5c0.1-0.2,0.4-0.4,0.9-0.6c0.4-0.2,1-0.4,1.6-0.5
					c0.6-0.2,1.3-0.3,1.9-0.3c0.7-0.1,1.4-0.1,2.2-0.1c0.8,0,1.6,0.1,2.4,0.2c0.8,0.1,1.5,0.2,2,0.4c0.5,0.2,0.9,0.3,1.1,0.4
					c0.2,0.2,0.3,0.4,0.1,0.5C642.3,154.1,641.9,154.3,641.5,154.5 M628.7,152.9c-0.9,0.4-1.5,0.8-1.9,1.2s-0.4,0.7-0.3,1
					c0.2,0.3,0.6,0.5,1.3,0.8c0.7,0.3,1.7,0.4,2.9,0.6c1.3,0.2,2.4,0.3,3.7,0.3c1.3,0,2.4-0.1,3.6-0.2c1.2-0.2,2.2-0.4,3.3-0.6
					s2-0.6,2.9-1c0.9-0.4,1.4-0.8,1.8-1.2c0.4-0.4,0.4-0.7,0.2-1c-0.2-0.3-0.6-0.5-1.3-0.8c-0.7-0.3-1.7-0.4-2.9-0.5
					c-1.2-0.2-2.4-0.2-3.6-0.3c-1.2,0-2.3,0.1-3.5,0.2c-1.1,0.1-2.2,0.4-3.2,0.6C630.5,152.1,629.5,152.5,628.7,152.9 M597.9,158
					c-0.9,0.4-1.6,0.8-2,1.2s-0.5,0.7-0.4,1s0.5,0.6,1.3,0.8c0.7,0.3,1.6,0.4,2.8,0.6s2.4,0.3,3.7,0.3s2.4-0.1,3.6-0.2
					c1.2-0.2,2.3-0.4,3.3-0.6c1.1-0.3,2.1-0.6,3-1c0.9-0.4,1.5-0.8,1.9-1.2c0.4-0.4,0.4-0.7,0.3-1c-0.2-0.3-0.6-0.6-1.3-0.8
					c-0.7-0.3-1.6-0.4-2.9-0.6c-1.2-0.2-2.4-0.3-3.6-0.3s-2.3,0.1-3.5,0.2c-1.2,0.1-2.2,0.4-3.2,0.6
					C599.8,157.3,598.8,157.5,597.9,158"/>
			</g>
		</g>
	</g>
	<polygon class="st8" points="659.5,147.4 636.4,166.8 644.5,231.4 645.9,230.6 667.1,210.2 	"/>
	<polygon class="st8" points="659.5,147.5 636.4,166.8 644.5,231.4 645.9,230.6 667.1,210.2 	"/>
	<g>
		<g>
			<defs>
				<polygon id="SVGID_00000068644295047611189690000013493559181658191758_" points="636.4,166.8 644.5,231.4 645.9,230.6 
					667.1,210.2 659.5,147.4 				"/>
			</defs>
			<clipPath id="SVGID_00000008837187795461061960000002595484152784796574_">
				<use xlink:href="#SVGID_00000068644295047611189690000013493559181658191758_"  style="overflow:visible;"/>
			</clipPath>
			<g style="clip-path:url(#SVGID_00000008837187795461061960000002595484152784796574_);">
				<path class="st0" d="M657.1,161.3l-1.5,0.7l-6.8,54.7l1.5-0.8L657.1,161.3L657.1,161.3z M647.4,188c-0.4,0.2-0.6,0.1-0.9-0.1
					c-0.3-0.2-0.5-0.6-0.8-1.3c-0.3-0.6-0.4-1.3-0.6-2.2c-0.2-0.9-0.3-2-0.4-3.2c-0.1-1.3-0.1-2.5-0.1-3.6c0-1.1,0.1-2,0.3-2.8
					c0.1-0.8,0.3-1.4,0.5-2c0.3-0.4,0.5-0.8,0.9-1c0.4-0.2,0.6-0.1,0.9,0.1c0.3,0.3,0.5,0.6,0.8,1.3c0.3,0.6,0.4,1.3,0.6,2.3
					c0.2,1,0.3,2.1,0.4,3.4c0.1,1.3,0.1,2.4,0.1,3.5s-0.1,2-0.3,2.7c-0.1,0.8-0.3,1.4-0.5,1.9C647.9,187.5,647.7,187.8,647.4,188
					 M659.7,206.1c-0.4,0.2-0.6,0.2-0.9-0.1c-0.3-0.2-0.5-0.6-0.7-1.2c-0.2-0.5-0.4-1.3-0.5-2.2c-0.2-0.9-0.3-2-0.4-3.1
					c-0.1-1.3-0.1-2.4-0.1-3.5c0-1.1,0.1-2,0.2-2.8c0.1-0.8,0.3-1.4,0.5-1.9c0.2-0.4,0.5-0.8,0.8-1c0.4-0.2,0.6-0.1,0.9,0.1
					c0.3,0.2,0.5,0.6,0.7,1.3c0.2,0.6,0.4,1.3,0.5,2.2c0.2,0.9,0.3,2.1,0.4,3.3s0.1,2.3,0.1,3.4c0,1-0.1,1.9-0.2,2.7
					c-0.1,0.7-0.3,1.3-0.5,1.9C660.2,205.6,659.9,206,659.7,206.1 M658.3,186.6c-0.6,0.3-1.2,0.8-1.6,1.6c-0.4,0.7-0.8,1.7-1.1,2.9
					c-0.3,1.2-0.4,2.5-0.5,4s0,3.2,0.1,5.1s0.4,3.4,0.6,4.8c0.3,1.3,0.6,2.4,1,3.3c0.4,0.8,0.9,1.4,1.3,1.7c0.5,0.3,1.1,0.3,1.6-0.1
					c0.5-0.3,1.1-0.9,1.5-1.6c0.4-0.8,0.8-1.8,1-3c0.3-1.2,0.4-2.5,0.4-4c0.1-1.5,0-3.2-0.1-5c-0.1-1.8-0.4-3.4-0.6-4.7
					c-0.3-1.3-0.6-2.4-1-3.2c-0.4-0.8-0.8-1.4-1.3-1.7C659.5,186.3,658.9,186.3,658.3,186.6 M645.9,167.9c-0.6,0.3-1.2,0.8-1.7,1.6
					c-0.4,0.7-0.8,1.7-1.1,3c-0.3,1.2-0.4,2.6-0.5,4.1c-0.1,1.5,0,3.3,0.1,5.2c0.2,1.9,0.4,3.6,0.6,4.9c0.3,1.4,0.6,2.5,1.1,3.4
					s0.9,1.4,1.4,1.8c0.5,0.3,1.1,0.3,1.7,0c0.6-0.3,1.2-0.9,1.6-1.6c0.4-0.8,0.8-1.8,1.1-3c0.3-1.2,0.4-2.6,0.5-4.1
					c0.1-1.5,0-3.3-0.1-5.1c-0.1-1.9-0.4-3.5-0.6-4.8s-0.6-2.5-1-3.4c-0.4-0.9-0.9-1.4-1.3-1.8C647.2,167.7,646.6,167.6,645.9,167.9
					"/>
			</g>
		</g>
	</g>
</g>
<g class="st15">
	<g>
		<g>
			<g>
				<defs>
					<rect id="SVGID_00000038411762997607108660000011981870892000062877_" x="751.4" y="112.4" width="133" height="128"/>
				</defs>
				<clipPath id="SVGID_00000166642842334630170260000006090373529362659484_">
					<use xlink:href="#SVGID_00000038411762997607108660000011981870892000062877_"  style="overflow:visible;"/>
				</clipPath>
				<g style="clip-path:url(#SVGID_00000166642842334630170260000006090373529362659484_);">
					<polygon class="st3" points="856.5,186.7 834.4,221 790.8,202.1 812.4,167 					"/>
					<polygon class="st10" points="812.4,167 790.8,202.1 788.3,178.6 809,144.6 					"/>
					<polygon class="st11" points="809,144.6 851.3,163.9 856.5,186.7 812.4,167 					"/>
					<polygon class="st11" points="809,144.6 851.3,163.9 856.5,186.7 812.4,167 					"/>
					<path class="st0" d="M807.2,167.1c-0.4-3.6-0.8-7.2-1.3-10.8c-3.2,5.2-6.5,10.4-9.9,15.8c0.4,3.8,0.9,7.4,1.3,11.2
						C800.6,177.8,803.9,172.5,807.2,167.1 M794.3,186c1.1-1.9,1.4-3.1,1.3-4.5c-0.2-1.3-0.3-2.4-0.4-3.7c-0.2-1.2-0.6-1.1-1.6,0.4
						c0,0.1-0.1,0.1-0.1,0.2c-0.1-0.8-0.3-1.6-0.3-2.5c0-0.8,0.4-1.9,1-2.9c3.3-5.2,6.5-10.3,9.6-15.3c0.6-1.1,1.3-2.2,2-3.1
						c0.7-1.2,1.2-1.3,1.3-0.3c0.4,3.7,0.9,7.3,1.3,11c0.1,0.9-0.2,1.9-0.9,3c-3.8,6.3-7.7,12.7-11.6,19.3c-0.7,1.3-1.2,1.3-1.3,0.4
						C794.4,187.5,794.3,186.7,794.3,186"/>
					<path class="st0" d="M804.2,163.8c-0.1-0.8-0.2-1.5-0.3-2.3c0-0.4,0-0.6,0.3-1.1c0.3-0.4,0.4-0.4,0.4-0.1
						c0.2,1.5,0.4,3,0.5,4.6c0,0.4,0,0.6-0.3,1.2c-0.4,0.5-0.4,0.4-0.4,0.1C804.4,165.3,804.3,164.5,804.2,163.8L804.2,163.8
						L804.2,163.8z"/>
					<path class="st0" d="M802,167.3c-0.1-0.7-0.2-1.5-0.3-2.2c0-0.4,0-0.6,0.3-1.1c0.3-0.4,0.4-0.4,0.4-0.1c0.2,1.5,0.4,3,0.5,4.6
						c0,0.4,0,0.6-0.3,1.2c-0.4,0.5-0.4,0.4-0.4,0.1C802.1,168.8,802,168.1,802,167.3L802,167.3L802,167.3z"/>
					<path class="st0" d="M800.7,169.3c0.1,0.8,0.2,1.6,0.3,2.3c0,0.3,0,0.6-0.3,1.1c-0.3,0.4-0.4,0.4-0.4,0.1
						c-0.2-1.6-0.4-3.2-0.5-4.7c0-0.4,0.1-0.6,0.3-1c0.3-0.4,0.4-0.4,0.4-0.1C800.5,167.7,800.6,168.5,800.7,169.3"/>
					<path class="st0" d="M797.7,174.1c-0.1-0.8-0.2-1.6-0.3-2.3c0-0.3,0-0.6,0.3-1.1c0.3-0.4,0.4-0.4,0.4-0.2
						c0.2,1.6,0.4,3.2,0.5,4.8c0,0.4-0.1,0.6-0.4,1.1c-0.3,0.4-0.4,0.4-0.4,0.1C797.9,175.7,797.8,174.9,797.7,174.1"/>
					<path class="st0" d="M798.7,178.5c-0.4,0.2-0.6,0.3-0.9,0.4c-0.1,0-0.1-0.2-0.2-0.3c0.1-0.2,0.3-0.4,0.4-0.5
						c0.4-0.2,0.7-0.4,1.1-0.4c0.2-0.1,0.2,0.1,0.1,0.4c-0.1,0.4-0.2,0.8-0.4,1.3c-0.1,0.2-0.2,0.4-0.4,0.6c0-0.1-0.1-0.2-0.1-0.4
						C798.6,179.2,798.6,178.8,798.7,178.5"/>
					<path class="st0" d="M803,171.4c-0.4,0.1-0.6,0.3-0.9,0.4c-0.1,0-0.1-0.2-0.1-0.3c0.1-0.2,0.3-0.4,0.4-0.4
						c0.4-0.2,0.7-0.4,1.1-0.4c0.1,0,0.2,0.2,0.1,0.4c-0.1,0.4-0.2,0.9-0.4,1.3c-0.1,0.2-0.2,0.4-0.3,0.5c0-0.1-0.1-0.2-0.1-0.4
						C802.9,172.1,802.9,171.8,803,171.4"/>
					<path class="st0" d="M801,174.8c-0.3,0.1-0.6,0.3-0.8,0.4c-0.1,0-0.1-0.2-0.2-0.3c0.1-0.2,0.3-0.4,0.4-0.5
						c0.4-0.2,0.7-0.4,1-0.4c0.1,0,0.2,0.3,0.1,0.4c-0.1,0.4-0.2,0.8-0.4,1.3c-0.1,0.2-0.2,0.4-0.3,0.5c0-0.1-0.1-0.2-0.1-0.4
						C800.8,175.5,800.9,175.2,801,174.8"/>
					<path class="st0" d="M805.1,168c-0.3,0.1-0.5,0.3-0.8,0.4c-0.1,0-0.1-0.2-0.2-0.3c0.2-0.2,0.3-0.4,0.4-0.5
						c0.4-0.2,0.6-0.3,0.9-0.4c0.2-0.1,0.3,0,0.1,0.4c-0.1,0.4-0.2,0.7-0.3,1.1c-0.1,0.2-0.2,0.4-0.4,0.6c0-0.2-0.1-0.3,0-0.4
						C804.9,168.6,805,168.4,805.1,168"/>
					<path class="st0" d="M793.1,181c0.1,0.5-0.1,1.3-0.5,2c-0.4,0.8-0.6,1.8-0.5,2.2c0.1,0.4,0.4,0.4,0.8-0.1
						c0.4-0.5,0.6-0.6,0.7-0.1c0.1,0.6,0.4,0.6,0.9-0.2c0.4-0.7,0.7-1.6,0.6-2.3c-0.1-0.7-0.2-1.3-0.3-2c-0.1-0.7-0.2-1.4-0.3-2.1
						c-0.1-0.6-0.4-0.4-0.9,0.3C793.3,179.6,793,180.4,793.1,181"/>
					<path class="st0" d="M829.3,200.9c-0.6-0.9-1.3-1.7-1.9-2.6c-0.4-0.4-0.4-0.8-0.1-1.2c0.1-0.1,0-0.2-0.1-0.3
						c-1.6-2-3.2-3.9-4.9-5.9c-1.3-1.6-2.6-3.1-3.9-4.7c-0.2-0.2-0.1-0.3,0.1-0.3c0.3-0.1,0.5-0.1,0.8-0.2c0.3-0.1,0.4,0,0.4,0.2
						c2.5,3,4.9,6,7.4,8.9c0.4,0.5,1,1.2,1.4,1.7c0.1,0.1,0.2,0.2,0.4,0.3c0.6,0.1,1.1,0.4,1.3,0.8c1.2,1.5,2.3,3.1,3.5,4.7
						c0.6,0.9,0.1,1.5-1.3,1.4c-0.7-0.1-1.5-0.3-2.2-0.4c-0.6-0.1-1.3-0.3-2-0.4c-0.3-0.1-0.4,0-0.5,0.1c-0.2,0.3-0.2,0.3,0.3,0.5
						c1.4,0.6,3,1.2,4.4,1.8c1.2,0.4,2.3,0.9,3.5,1.4c0.3,0.1,0.3,0.2,0.2,0.3c-1.5,2.4-3.1,4.7-4.7,7.1c-0.1,0.1-0.2,0.2-0.4,0.1
						c-3-1.2-6.2-2.4-9.3-3.7c-1.1-0.4-2-1-2.7-1.7c-0.6-0.8-0.7-1.5-0.4-2.2c0.3-0.6,0.8-1.3,1.2-1.9c0.5-0.9,1.2-1.7,1.7-2.6
						c1-1.5,3.4-2.2,6.2-1.5C828.2,200.6,828.8,200.7,829.3,200.9"/>
					<path class="st0" d="M809.5,186.2c2.2-3.5,4.4-6.9,6.5-10.5c0.4-0.5,1.3-0.5,2-0.2c9.9,4.4,19.5,8.6,28.9,12.7
						c0.9,0.4,1.2,0.8,0.8,1.3c-3.4,5.2-6.7,10.3-10,15.3c-0.1,0.2-0.2,0.2-0.5,0.1c-0.5-0.3-1.1-0.4-1.7-0.7
						c-0.2-0.1-0.3-0.1-0.2-0.3l0.1-0.2c3.1-4.8,6.4-9.7,9.5-14.5c0.2-0.3,0.2-0.2-0.3-0.4c-8.4-3.7-17.1-7.5-26.1-11.4
						c-0.3-0.1-0.4-0.1-0.5,0.1c-4,6.4-8.1,12.7-12,19c-0.2,0.3-0.2,0.2,0.3,0.4c0.8,0.4,1.6,0.6,2.4,1c0.3,0.1,0.3,0.2,0.2,0.3
						c-0.3,0.4-0.4,0.7-0.7,1.1c-0.1,0.1-0.2,0.2-0.4,0.1c-1.3-0.5-2.7-1.1-4-1.6c-0.8-0.4-1.1-0.8-0.8-1.3
						C805.1,193.1,807.3,189.7,809.5,186.2"/>
					<path class="st0" d="M811.4,200c0.9-1.3,3.4-1.7,5.7-0.7c2.3,0.9,3.5,2.8,2.6,4c-0.8,1.3-3.4,1.6-5.6,0.7
						C811.6,203.1,810.5,201.3,811.4,200"/>
					<path class="st0" d="M821,157.4c0.2,1.3,0.4,2.8,0.6,4.1c0,0.3-0.2,0.4-0.4,0.3c-0.4-0.1-0.9-0.4-1.1-0.5
						c-0.2-0.2-0.3-0.4-0.3-0.4c-0.3-1.5-0.4-3-0.7-4.4c-0.2-1.3-0.4-2.4-0.5-3.7c-0.1-0.4,0.3-0.4,0.8-0.2s0.9,0.5,0.9,0.8
						c0.1,0.6,0.2,1.3,0.3,1.9C820.7,155.9,820.8,156.7,821,157.4L821,157.4L821,157.4z"/>
					<path class="st0" d="M830.3,161.2c0.3,1.3,0.5,2.7,0.7,4.1c0,0.1,0,0.3,0,0.4c-0.1,0.2-0.4,0.1-1-0.1c-0.4-0.2-0.8-0.5-0.9-0.8
						c-0.1-0.2-0.1-0.4-0.1-0.6c-0.4-2.6-0.9-5.2-1.4-7.7c-0.1-0.4,0.2-0.4,0.8-0.2c0.5,0.2,0.9,0.5,1,0.8c0.2,0.8,0.3,1.5,0.4,2.3
						C830.1,160,830.2,160.7,830.3,161.2"/>
					<path class="st0" d="M839.9,165.1c0.3,1.4,0.6,2.9,0.9,4.3c0.1,0.4-0.4,0.4-1.1,0.1c-0.4-0.3-0.8-0.5-0.9-0.8
						c-0.1-0.3-0.1-0.5-0.2-0.8c-0.5-2.6-1.1-5.1-1.6-7.6c0-0.1,0-0.2,0-0.3c0.1-0.2,0.5,0,1,0.2s0.7,0.5,0.8,0.7
						c0.2,0.9,0.4,1.8,0.5,2.7C839.7,164.2,839.8,164.6,839.9,165.1L839.9,165.1L839.9,165.1z"/>
					<path class="st0" d="M841,173.7L841,173.7c0.1,0.3,0.1,0.5,0.2,0.7c0.1,0.4,0.5,0.9,1.4,1.3c0.8,0.4,1.7,0.7,2.6,1.1
						c0.8,0.4,1.3,0.3,1.2-0.2c-0.1-0.4-0.2-1-0.4-1.4c-0.1-0.4-0.5-0.9-1.3-1.2c-1-0.4-2-0.8-3-1.3c-0.6-0.3-1-0.2-0.9,0.2
						C840.9,173.1,840.9,173.4,841,173.7 M843.2,172.7c0.4,0.2,0.9,0.4,1.3,0.5c1.3,0.5,2.4,1.4,2.7,2.2c0.2,0.6,0.4,1.3,0.4,1.9
						c0.1,0.6-1,0.7-2.2,0.2c-0.9-0.4-1.8-0.8-2.8-1.2c-1.3-0.5-2.5-1.5-2.8-2.3c-0.2-0.6-0.3-1.3-0.4-1.8c-0.1-0.6,0.8-0.6,2-0.3
						C842.1,172.1,842.6,172.4,843.2,172.7L843.2,172.7L843.2,172.7z"/>
					<path class="st0" d="M831.2,169.4L831.2,169.4c0.1,0.3,0.1,0.5,0.2,0.8c0.1,0.4,0.6,0.9,1.3,1.2c0.8,0.4,1.7,0.7,2.5,1.1
						c0.7,0.3,1.3,0.3,1.2-0.2c-0.1-0.4-0.2-1-0.3-1.4c-0.1-0.3-0.4-0.5-0.8-0.9c-0.2-0.2-0.4-0.3-0.7-0.4c-0.8-0.4-1.6-0.7-2.5-1.1
						c-0.1-0.1-0.3-0.1-0.4-0.2c-0.4-0.2-0.7,0-0.7,0.2C831.1,168.9,831.1,169.2,831.2,169.4 M833.2,168.5c0.6,0.3,1.3,0.4,1.9,0.8
						c1.1,0.5,2,1.3,2.2,2c0.2,0.6,0.3,1.3,0.4,1.8c0.1,0.6-1,0.7-2.2,0.2c-0.9-0.4-1.7-0.7-2.6-1.1c-1.5-0.6-2.5-1.7-2.7-2.3
						c-0.1-0.6-0.3-1.2-0.3-1.8c-0.1-0.6,0.8-0.7,1.9-0.2C832.2,168.1,832.7,168.3,833.2,168.5L833.2,168.5z"/>
					<path class="st0" d="M820.3,163.8c0.4,0.4,0.7,0.6,1,0.9c0.1,0.1,0.1,0.1,0.1,0.2c0.1,0.4,0.1,0.8,0.2,1.2
						c0.1,0.4,0.5,0.9,1.3,1.3c0.8,0.4,1.6,0.6,2.3,1c0.8,0.4,1.3,0.3,1.2-0.2c-0.1-0.4-0.2-0.9-0.3-1.3c-0.1-0.4-0.5-0.9-1.3-1.2
						c-0.4-0.2-0.7-0.3-1-0.4c-0.1,0-0.2-0.1-0.3-0.2c-0.4-0.4-0.7-0.6-1.2-1c0.1,0,0.2,0.1,0.3,0.1c0.7,0.3,1.5,0.6,2.2,0.9
						c1.3,0.5,2.3,1.4,2.5,2.2c0.2,0.6,0.3,1.2,0.3,1.7c0,0.6-1,0.7-2.2,0.2c-0.9-0.4-1.8-0.7-2.6-1.1c-1.1-0.4-2.2-1.4-2.4-2.1
						c-0.2-0.6-0.2-1.3-0.3-1.9C820.2,164,820.3,163.9,820.3,163.8"/>
					<path class="st0" d="M833.9,164.6c0.2,0.7,0.3,1.4,0.4,2.2c0.1,0.4-0.7,0.4-1.4-0.2c-0.4-0.3-0.4-0.4-0.5-0.6
						c-0.2-1.1-0.4-2.1-0.6-3.1c-0.1-0.4-0.2-0.8-0.2-1.2c-0.1-0.4,0.3-0.4,0.8-0.2s1,0.6,1.1,0.9
						C833.6,163.2,833.8,163.9,833.9,164.6"/>
					<path class="st0" d="M822.5,159.9c-0.1-0.7-0.3-1.4-0.4-2.1c-0.1-0.3,0.3-0.4,0.8-0.2c0.5,0.2,1,0.5,1.1,0.9
						c0.3,1.4,0.4,2.9,0.7,4.3c0.1,0.3-0.3,0.4-0.9,0.1c-0.5-0.3-0.9-0.5-1-0.9C822.7,161.3,822.6,160.7,822.5,159.9"/>
					<path class="st0" d="M841.7,167.8c-0.2-0.7-0.4-1.4-0.4-2.2c-0.1-0.4,0.3-0.4,0.8-0.2c0.6,0.3,1,0.6,1.1,1c0.4,1.4,0.6,3,1,4.5
						c0.1,0.4-0.5,0.4-1.3-0.1c-0.4-0.3-0.6-0.4-0.6-0.7C842,169.3,841.8,168.5,841.7,167.8"/>
					<path class="st0" d="M823.7,166.4c-0.4-0.3-0.6-0.5-1-0.8c-0.9-0.8-1.9-1.6-2.8-2.5c-0.2-0.2-0.3-0.4-0.2-0.4s0.3-0.1,0.5,0.1
						c0.2,0.1,0.3,0.2,0.4,0.3c1.3,1.3,2.7,2.4,4.1,3.7c0.3,0.3,0.4,0.4,0.1,0.5c-0.3,0-0.5,0.1-0.8,0.1c-0.3,0-0.6-0.1-0.8-0.4
						c-0.3-0.3-0.3-0.4-0.1-0.4C823.5,166.4,823.6,166.4,823.7,166.4"/>
				</g>
			</g>
		</g>
	</g>
</g>
<g>
	<g>
		
			<radialGradient id="SVGID_00000003791197888788898770000007229656315589915022_" cx="631.55" cy="339.7256" r="31.2991" gradientTransform="matrix(1 0 0 1 0 -265.2756)" gradientUnits="userSpaceOnUse">
			<stop  offset="4.475343e-07" style="stop-color:#FFFFFF;stop-opacity:0"/>
			<stop  offset="0.1022" style="stop-color:#F3F3F3;stop-opacity:3.065731e-02"/>
			<stop  offset="0.2882" style="stop-color:#D3D2D2;stop-opacity:8.645798e-02"/>
			<stop  offset="0.537" style="stop-color:#9F9E9E;stop-opacity:0.1611"/>
			<stop  offset="0.8358" style="stop-color:#595656;stop-opacity:0.2507"/>
			<stop  offset="1" style="stop-color:#2F2B2C;stop-opacity:0.3"/>
		</radialGradient>
		<path style="fill:url(#SVGID_00000003791197888788898770000007229656315589915022_);" d="M611.5,38.8h40.1c3.3,0,6.1,2.7,6.1,6.1
			V104c0,3.3-2.7,6.1-6.1,6.1h-40.1c-3.3,0-6.1-2.7-6.1-6.1V45C605.4,41.6,608.1,38.8,611.5,38.8z"/>
		
			<radialGradient id="SVGID_00000178900383961757761910000018326634903565591230_" cx="582.8535" cy="311.6256" r="33.9902" gradientTransform="matrix(1 0 0 1 0 -265.2756)" gradientUnits="userSpaceOnUse">
			<stop  offset="4.475343e-07" style="stop-color:#FFFFFF;stop-opacity:0"/>
			<stop  offset="0.1022" style="stop-color:#F3F3F3;stop-opacity:3.065731e-02"/>
			<stop  offset="0.2882" style="stop-color:#D3D2D2;stop-opacity:8.645798e-02"/>
			<stop  offset="0.537" style="stop-color:#9F9E9E;stop-opacity:0.1611"/>
			<stop  offset="0.8358" style="stop-color:#595656;stop-opacity:0.2507"/>
			<stop  offset="1" style="stop-color:#2F2B2C;stop-opacity:0.3"/>
		</radialGradient>
		<path style="fill:url(#SVGID_00000178900383961757761910000018326634903565591230_);" d="M556.8,17.9c0,0-5.5,1.3-4.3,6.8L565,79
			c0,0,1.3,5.5,6.8,4.3l36.9-8.5c0,0,5.5-1.3,4.3-6.8l-12.5-54.3c0,0-1.3-5.5-6.8-4.3C593.8,9.4,556.8,17.9,556.8,17.9z"/>
		
			<radialGradient id="SVGID_00000120534640416940275240000012881413435197699223_" cx="720.95" cy="315.0256" r="32.6651" gradientTransform="matrix(1 0 0 1 0 -265.2756)" gradientUnits="userSpaceOnUse">
			<stop  offset="4.475343e-07" style="stop-color:#FFFFFF;stop-opacity:0"/>
			<stop  offset="0.1022" style="stop-color:#F3F3F3;stop-opacity:3.065731e-02"/>
			<stop  offset="0.2882" style="stop-color:#D3D2D2;stop-opacity:8.645798e-02"/>
			<stop  offset="0.537" style="stop-color:#9F9E9E;stop-opacity:0.1611"/>
			<stop  offset="0.8358" style="stop-color:#595656;stop-opacity:0.2507"/>
			<stop  offset="1" style="stop-color:#2F2B2C;stop-opacity:0.3"/>
		</radialGradient>
		<path style="fill:url(#SVGID_00000120534640416940275240000012881413435197699223_);" d="M698.2,16.6c0,0-5.9,0.5-5.4,6.4l5.1,58
			c0,0,0.5,5.9,6.4,5.4l39.4-3.5c0,0,5.9-0.5,5.4-6.4l-5.1-58c0,0-0.5-5.9-6.4-5.4C737.5,13.2,698.2,16.6,698.2,16.6z"/>
		
			<radialGradient id="SVGID_00000023992192406474944060000014502997461905004678_" cx="834.4" cy="323.7256" r="28.669" gradientTransform="matrix(1 0 0 1 0 -265.2756)" gradientUnits="userSpaceOnUse">
			<stop  offset="4.475343e-07" style="stop-color:#FFFFFF;stop-opacity:0"/>
			<stop  offset="0.1022" style="stop-color:#F3F3F3;stop-opacity:3.065731e-02"/>
			<stop  offset="0.2882" style="stop-color:#D3D2D2;stop-opacity:8.645798e-02"/>
			<stop  offset="0.537" style="stop-color:#9F9E9E;stop-opacity:0.1611"/>
			<stop  offset="0.8358" style="stop-color:#595656;stop-opacity:0.2507"/>
			<stop  offset="1" style="stop-color:#2F2B2C;stop-opacity:0.3"/>
		</radialGradient>
		<path style="fill:url(#SVGID_00000023992192406474944060000014502997461905004678_);" d="M814.4,29.3c0,0-5.2,0.5-4.7,5.7
			l4.4,50.9c0,0,0.5,5.2,5.7,4.7l34.6-3c0,0,5.2-0.5,4.7-5.7L854.6,31c0,0-0.5-5.2-5.7-4.7C849,26.3,814.4,29.3,814.4,29.3z"/>
		
			<radialGradient id="SVGID_00000082349144573137863270000001652770797503589290_" cx="675.95" cy="337.5756" r="32.2781" gradientTransform="matrix(1 0 0 1 0 -265.2756)" gradientUnits="userSpaceOnUse">
			<stop  offset="4.475343e-07" style="stop-color:#FFFFFF;stop-opacity:0"/>
			<stop  offset="0.1022" style="stop-color:#F3F3F3;stop-opacity:3.065731e-02"/>
			<stop  offset="0.2882" style="stop-color:#D3D2D2;stop-opacity:8.645798e-02"/>
			<stop  offset="0.537" style="stop-color:#9F9E9E;stop-opacity:0.1611"/>
			<stop  offset="0.8358" style="stop-color:#595656;stop-opacity:0.2507"/>
			<stop  offset="1" style="stop-color:#2F2B2C;stop-opacity:0.3"/>
		</radialGradient>
		<path style="fill:url(#SVGID_00000082349144573137863270000001652770797503589290_);" d="M671.5,38.3c0,0-4.7-1.9-6.6,2.8
			l-18.6,46c0,0-1.9,4.7,2.8,6.6l31.3,12.6c0,0,4.7,1.9,6.6-2.8l18.6-46c0,0,1.9-4.7-2.8-6.6C702.8,50.9,671.5,38.3,671.5,38.3z"/>
		
			<radialGradient id="SVGID_00000062163958944111683160000018411368223476464571_" cx="529.35" cy="328.6256" r="41.1322" gradientTransform="matrix(1 0 0 1 0 -265.2756)" gradientUnits="userSpaceOnUse">
			<stop  offset="4.475343e-07" style="stop-color:#FFFFFF;stop-opacity:0"/>
			<stop  offset="0.1022" style="stop-color:#F3F3F3;stop-opacity:3.065731e-02"/>
			<stop  offset="0.2882" style="stop-color:#D3D2D2;stop-opacity:8.645798e-02"/>
			<stop  offset="0.537" style="stop-color:#9F9E9E;stop-opacity:0.1611"/>
			<stop  offset="0.8358" style="stop-color:#595656;stop-opacity:0.2507"/>
			<stop  offset="1" style="stop-color:#2F2B2C;stop-opacity:0.3"/>
		</radialGradient>
		<path style="fill:url(#SVGID_00000062163958944111683160000018411368223476464571_);" d="M511.4,17.8c0,0-7.2-1-8.1,6.2l-9.9,70.1
			c0,0-1,7.2,6.2,8.1l47.7,6.7c0,0,7.2,1,8.1-6.2l9.9-70.1c0,0,1-7.2-6.2-8.1L511.4,17.8L511.4,17.8z"/>
		
			<radialGradient id="SVGID_00000108996519106723369700000003793811895934203318_" cx="774.65" cy="344.4256" r="41.1268" gradientTransform="matrix(1 0 0 1 0 -265.2756)" gradientUnits="userSpaceOnUse">
			<stop  offset="4.475343e-07" style="stop-color:#FFFFFF;stop-opacity:0"/>
			<stop  offset="0.1022" style="stop-color:#F3F3F3;stop-opacity:3.065731e-02"/>
			<stop  offset="0.2882" style="stop-color:#D3D2D2;stop-opacity:8.645798e-02"/>
			<stop  offset="0.537" style="stop-color:#9F9E9E;stop-opacity:0.1611"/>
			<stop  offset="0.8358" style="stop-color:#595656;stop-opacity:0.2507"/>
			<stop  offset="1" style="stop-color:#2F2B2C;stop-opacity:0.3"/>
		</radialGradient>
		<path style="fill:url(#SVGID_00000108996519106723369700000003793811895934203318_);" d="M756.7,33.6c0,0-7.2-1-8.1,6.2l-9.9,70.1
			c0,0-1,7.2,6.2,8.1l47.7,6.7c0,0,7.2,1,8.1-6.2l9.9-70.1c0,0,1-7.2-6.2-8.1L756.7,33.6L756.7,33.6z"/>
		<path class="st3" d="M610,37.5h40.1c3.3,0,6.1,2.7,6.1,6.1v59.1c0,3.3-2.7,6.1-6.1,6.1H610c-3.3,0-6.1-2.7-6.1-6.1V43.6
			C603.8,40.2,606.5,37.5,610,37.5z"/>
		<path class="st0" d="M636.9,57.8c-3.5,0-7,0-10.6,0c-0.6,0-1-0.3-1.2-0.8s-0.1-1.2,0.3-1.5c0.3-0.2,0.6-0.3,1-0.3
			c3.8,0,7.6,0,11.3,0c3.2,0,6.4,0,9.6,0c0.9,0,1.4,0.5,1.4,1.3c0,0.7-0.5,1.2-1.2,1.2c-1.7,0-3.3,0-5,0
			C640.7,57.8,638.8,57.8,636.9,57.8L636.9,57.8z"/>
		<path class="st0" d="M636.9,70.8c-3.4,0-6.8,0-10.2,0c-0.3,0-0.6,0-0.9-0.1c-0.6-0.2-0.9-0.8-0.8-1.4c0.1-0.6,0.5-1,1.1-1
			c0.5-0.1,1,0,1.5,0c6.5,0,13,0,19.6,0c0.9,0,1.4,0.5,1.4,1.3s-0.5,1.3-1.3,1.3c-2,0-3.9,0-5.9,0C640,70.8,638.5,70.8,636.9,70.8"
			/>
		<path class="st0" d="M616,69.9L616,69.9c-0.6,0.1-1.2,0-1.8,0.1c-1,0-1.6,0.6-1.6,1.6c0,1.1,0,2.3,0,3.3s0.8,1.7,1.7,1.7
			c1.2,0,2.3,0,3.4,0c0.6,0,1.1-0.3,1.4-0.9c0.1-0.3,0.2-0.6,0.2-0.9c0-1.1,0-2.2,0-3.3c0-0.2,0-0.3-0.1-0.5
			c-0.1-0.6-0.8-1.1-1.3-1.1C617.2,69.9,616.6,69.9,616,69.9 M620.7,73.1c0,0.8,0.1,1.7,0,2.5c-0.2,1.4-1.3,2.5-2.8,2.5
			c-1.4,0.1-2.8,0.1-4.2-0.1c-1.6-0.1-2.8-1.6-2.8-3.1c0-1.1,0.1-2.3,0-3.3c-0.1-2,1.6-3.2,3-3.3c1.4-0.1,2.8-0.1,4.2,0
			c1.5,0.1,2.7,1.3,2.7,2.9c0,0.6,0,1.3,0,1.9C620.7,73.1,620.7,73.1,620.7,73.1"/>
		<path class="st0" d="M618.8,55.4c-0.5,0.5-0.8,0.9-1.3,1.3c-0.1,0.1-0.2,0.1-0.4,0.1c-1,0-2,0-2.9,0c-1.1,0-1.7,0.6-1.7,1.7
			c0,1.1,0,2.1,0,3.2c0,1,0.7,1.7,1.7,1.7c1.1,0,2.2,0,3.3,0c1,0,1.7-0.6,1.7-1.6c0-0.5,0-0.9,0-1.4c0-0.1,0.1-0.3,0.1-0.3
			c0.5-0.5,0.9-1,1.4-1.5c0.1,0.2,0.1,0.2,0.1,0.3c0,1,0,2,0,3.1c-0.1,1.7-1.2,3-2.9,3.1c-1.4,0.1-2.8,0.1-4.2,0
			c-1.6-0.1-2.8-1.6-2.9-3.2c0-1.2,0-2.4,0-3.6c0-1.5,1.2-2.9,2.7-3c1.6-0.1,3.1,0,4.7,0C618.4,55.3,618.6,55.3,618.8,55.4"/>
		<path class="st0" d="M631.8,59.5c1.8,0,3.6,0,5.4,0c0.8,0,1.3,0.5,1.3,1.2c0,0.8-0.5,1.3-1.3,1.3c-3.6,0-7.2,0-10.9,0
			c-0.8,0-1.3-0.5-1.3-1.3s0.5-1.2,1.3-1.2C628.1,59.5,630,59.5,631.8,59.5"/>
		<path class="st0" d="M615.8,59.8c0.4-0.5,0.8-0.8,1.2-1.2c1.2-1.2,2.3-2.4,3.5-3.5c0.3-0.3,0.6-0.3,0.9-0.2
			c0.3,0.2,0.5,0.5,0.5,0.8c-0.1,0.2-0.1,0.4-0.3,0.5c-1.7,1.7-3.4,3.5-5.1,5.2c-0.4,0.4-0.8,0.4-1.2,0s-0.8-0.8-1.2-1.2
			c-0.3-0.3-0.3-0.8,0-1.2c0.3-0.3,0.8-0.3,1.2,0C615.5,59.4,615.7,59.6,615.8,59.8"/>
		<line class="st24" x1="629.1" y1="37.5" x2="629.1" y2="-1.2"/>
		<line class="st24" x1="576.7" y1="37.5" x2="576.7" y2="-1.2"/>
		<line class="st24" x1="683.8" y1="48.8" x2="683.8" y2="-1.8"/>
		<path class="st3" d="M555.3,16.6c0,0-5.5,1.3-4.3,6.8l12.5,54.3c0,0,1.3,5.5,6.8,4.3l36.9-8.5c0,0,5.5-1.3,4.3-6.8L599,12.4
			c0,0-1.3-5.5-6.8-4.3C592.2,8,555.3,16.6,555.3,16.6z"/>
		<path class="st0" d="M577.9,53.3c0.3-1.2,0.5-2.3,0.8-3.4c0.1-0.6,0.4-1,0.9-1.2c0.2-0.1,0.1-0.2,0.2-0.3c0.5-2.6,0.9-5.2,1.3-7.8
			c0.3-2.1,0.7-4.1,1-6.2c0.1-0.2,0.1-0.3,0.3-0.2s0.5,0.1,0.8,0.1c0.2,0,0.3,0.1,0.2,0.3c-0.7,3.9-1.3,7.8-2,11.7
			c-0.1,0.8-0.2,1.5-0.4,2.3c-0.1,0.2,0,0.3,0.1,0.4c0.4,0.3,0.5,0.9,0.4,1.4c-0.5,2.1-0.9,4.2-1.4,6.2c-0.3,1.2-1.3,1.6-2.4,0.9
			c-0.6-0.4-1-0.9-1.4-1.4c-0.4-0.4-0.9-0.8-1.2-1.3c-0.2-0.2-0.3-0.2-0.5-0.1c-0.4,0.2-0.4,0.2-0.2,0.6c0.6,1.2,1.3,2.5,1.9,3.7
			c0.5,1,1,2,1.6,3c0.1,0.2,0.1,0.3-0.1,0.4c-3.5,1.7-6.9,3.5-10.4,5.3c-0.2,0.1-0.3,0.1-0.3-0.1c-1.3-2.7-2.7-5.3-4-7.9
			c-0.5-0.9-0.7-1.9-0.5-2.9c0.2-1.1,0.9-1.8,1.7-2.4c0.9-0.6,1.8-0.9,2.7-1.4c1.2-0.6,2.5-1.3,3.7-1.9c2.2-1.1,4.6-0.7,6.3,1.1
			C577.3,52.6,577.6,52.9,577.9,53.3"/>
		<path class="st0" d="M575.5,30.8c4.7-2.4,9.4-4.8,14.1-7.2c0.8-0.4,1.4-0.1,1.7,0.6c4,8,8.1,15.9,12.2,23.9
			c0.4,0.8,0.2,1.3-0.6,1.7c-7.4,3.8-14.7,7.5-22.1,11.3c-0.2,0.1-0.3,0.1-0.5-0.2c-0.2-0.5-0.5-1-0.8-1.4c-0.1-0.1-0.1-0.2,0.1-0.3
			c0.1,0,0.1-0.1,0.2-0.1c6.9-3.5,13.9-7.1,20.8-10.6c0.4-0.2,0.3-0.1,0.2-0.5c-3.7-7.2-7.3-14.4-11-21.6c-0.1-0.2-0.3-0.3-0.5-0.2
			c-8.7,4.4-17.4,8.8-26,13.3c-0.4,0.2-0.3,0.1-0.2,0.5c0.3,0.6,0.6,1.3,1,1.9c0.1,0.2,0.1,0.3-0.1,0.3c-0.5,0.2-1,0.5-1.5,0.8
			c-0.2,0.1-0.2,0.1-0.3-0.1c-0.5-1.1-1.1-2.1-1.6-3.2c-0.3-0.6-0.1-1.2,0.5-1.6C566,35.7,570.8,33.2,575.5,30.8"/>
		<path class="st0" d="M564.6,44.8c1.8-1,4.2-0.2,5.1,1.6c1,1.8,0.2,4.2-1.7,5.1c-1.8,0.9-4.2,0.2-5.1-1.7
			C561.9,48.1,562.7,45.8,564.6,44.8"/>
		<line class="st24" x1="719.1" y1="37.5" x2="719.1" y2="-1.2"/>
		<path class="st3" d="M696.6,15.2c0,0-5.9,0.5-5.4,6.4l5.1,58c0,0,0.5,5.9,6.4,5.4l39.4-3.5c0,0,5.9-0.5,5.4-6.4l-5.1-58
			c0,0-0.5-5.9-6.4-5.4C736,11.8,696.6,15.2,696.6,15.2z"/>
		<path class="st0" d="M719.6,57.8L719.6,57.8c0.4,0,0.8-0.1,1.3,0c0.4,0.1,0.6-0.1,0.7-0.6c0.5-2.2,1.4-4.2,2.9-5.8
			c0.8-0.8,1.4-1.8,2.1-2.8c0.9-1.6,1.3-3.3,0.9-5.2c-1-5.7-6.9-8.9-12.1-6.7c-3.7,1.6-5.7,5.9-4.7,9.9c0.5,1.9,1.7,3.5,3.1,4.8
			c1.8,1.7,3.1,3.7,3.9,6.1c0.1,0.2,0.2,0.3,0.4,0.3C718.6,57.8,719.1,57.8,719.6,57.8 M724,60.5c-2.8,0.1-5.7,0.1-8.4,0.2
			c-0.2-0.9-0.3-1.7-0.5-2.5c-0.5-1.6-1.3-3-2.6-4.2c-1.8-1.7-3.4-3.6-4.3-5.9c-1.7-5,0.3-10.6,4.8-13.3c6.8-4,15.6,0.2,17.1,8.2
			c0.6,3.1-0.1,5.8-1.8,8.3c-0.6,0.8-1.2,1.6-1.9,2.3c-1.5,1.5-2.1,3.3-2.4,5.4C724.1,59.5,724.1,60,724,60.5"/>
		<path class="st0" d="M723.1,69.3c-0.2,1.2-0.5,1.4-1.7,1.4c-0.8,0-1.6,0.1-2.4,0.1c-1,0-1.4-0.3-1.7-1.3c-1-0.3-1.4-0.7-1.5-1.5
			c0-0.8,0.5-1.4,1.2-1.4c2-0.1,3.9-0.1,5.9-0.1c0.7,0,1.3,0.5,1.3,1.2c0.1,0.8-0.2,1.4-0.9,1.6C723.3,69.2,723.2,69.3,723.1,69.3"
			/>
		<path class="st0" d="M697.8,46.7c-0.1-1-0.1-1.8-0.1-2.8c2.8-0.1,5.7-0.1,8.5-0.2c0.1,0.9,0.1,1.8,0.1,2.8
			C703.4,46.6,700.6,46.6,697.8,46.7"/>
		<path class="st0" d="M740.2,42.9c0.1,0.9,0.1,1.8,0.1,2.8c-2.8,0.1-5.6,0.1-8.5,0.2c-0.1-0.9-0.1-1.8-0.1-2.8
			C734.6,43.1,737.4,43,740.2,42.9"/>
		<path class="st0" d="M720,65c-0.9,0-1.8,0.1-2.7,0.1c-1,0-1.6-0.5-1.6-1.4c-0.1-0.9,0.5-1.4,1.4-1.4c1.8-0.1,3.7-0.1,5.5-0.1
			c1.1,0,1.8,0.9,1.4,2c-0.2,0.6-0.6,0.9-1.3,0.9C721.9,64.9,721,65,720,65"/>
		<path class="st0" d="M709.3,33.9c-0.6,0.6-1.2,1.3-1.8,1.9c-1.7-1.7-3.5-3.3-5.3-5c0.6-0.6,1.2-1.3,1.7-2
			C705.8,30.5,707.6,32.2,709.3,33.9"/>
		<path class="st0" d="M729.5,35.3c-0.6-0.6-1.3-1.2-2-1.8c1.6-1.7,3.2-3.5,4.8-5.3c0.6,0.6,1.3,1.2,1.9,1.8
			C732.7,31.8,731.1,33.5,729.5,35.3"/>
		<path class="st0" d="M710.5,56.2c-1.6,1.7-3.1,3.5-4.7,5.1c-0.6-0.6-1.3-1.3-2-1.9c1.6-1.7,3.1-3.5,4.7-5.2
			C709.2,54.8,709.8,55.5,710.5,56.2"/>
		<path class="st0" d="M728.6,55.6c0.6-0.6,1.2-1.3,1.9-2.1c1.7,1.7,3.5,3.3,5.3,5c-0.6,0.7-1.3,1.4-1.8,2
			C732.1,59,730.4,57.3,728.6,55.6"/>
		<path class="st0" d="M719.7,31.7c-0.9,0-1.8,0.1-2.7,0.1c-0.1-1.9-0.2-3.8-0.3-5.7c0.9,0,1.8-0.1,2.7-0.1
			C719.5,27.9,719.6,29.8,719.7,31.7"/>
		<line class="st24" x1="829.5" y1="37.5" x2="829.5" y2="-1.8"/>
		<path class="st3" d="M812.8,27.9c0,0-5.2,0.5-4.7,5.7l4.4,50.9c0,0,0.5,5.2,5.7,4.7l34.6-3c0,0,5.2-0.5,4.7-5.7l-4.4-50.9
			c0,0-0.5-5.2-5.7-4.7L812.8,27.9z"/>
		<path class="st0" d="M837.6,77.3l-8.3,0.8l-0.8-8.3l8.3-0.8L837.6,77.3z M820,39c3-1.4,6.1-2.2,9.1-2.4c7.9-0.7,13.2,2.2,13.8,9.2
			c0.3,3.4-0.6,5.9-3.8,10.4c-3,4.2-3.3,5.8-3.1,8l0.1,0.5l-7.6,0.6l-0.1-0.7c-0.3-3.6,0.1-5.4,3.3-10.3c1.7-2.5,2.5-4.4,2.3-6.4
			c-0.3-3.3-2.8-4.6-6.3-4.3c-2.3,0.2-4.7,1-6.8,2.3L820,39L820,39z"/>
		<path class="st3" d="M670,36.9c0,0-4.7-1.9-6.6,2.8l-18.6,46c0,0-1.9,4.7,2.8,6.6l31.3,12.6c0,0,4.7,1.9,6.6-2.8l18.6-46
			c0,0,1.9-4.7-2.8-6.6C701.3,49.5,670,36.9,670,36.9z"/>
		<path class="st0" d="M680.8,64.5c-0.9-0.3-1.8,0.6-3,3.6c-1.1,2.7-1.2,4.1-0.2,4.5c0.9,0.3,1.8-0.6,2.9-3.4
			C681.7,66.1,681.7,64.8,680.8,64.5"/>
		<path class="st0" d="M676.7,74.5c-2.6-1-2.9-3.8-1.4-7.5c1.5-3.7,3.6-5.4,6.3-4.4c2.7,1.1,2.8,3.8,1.3,7.5
			C681.5,73.8,679.5,75.6,676.7,74.5 M671.7,72.1l-2.6-1l2.5-6.1c0.4-1,1-2.2,1.2-2.8h-0.1c-0.5,0.2-1.4,0.4-2.4,0.7l-0.3-2.3l4-0.8
			l2.3,0.9L671.7,72.1L671.7,72.1z M691.1,76.4c-1.2-0.6-2.5-1.2-3.8-1.7c-1.1-0.5-2.2-0.9-3.5-1.4c0.2-0.5,0.3-0.8,0.5-1.2
			c1.7-4.3,3.4-8.5,5.2-12.8c0.8-1.8,0.8-3.6-0.2-5.4c-0.5-0.8-1.2-1.4-1.8-2.1c-3-1.2-6.1-2.4-9.1-3.7c-0.1,0-0.2,0.1-0.3,0.1
			c-3.4-0.2-5.2,1-6.5,4.2c-1.7,4.2-3.3,8.4-5.1,12.5c-0.1,0.3-0.3,0.7-0.5,1.2c-0.5-0.2-0.8-0.3-1.2-0.5c-2-0.8-4-1.6-6.1-2.3
			c-0.9-0.3-1.3,0.1-1.1,1c0.2,0.6,0.4,1.3,0.7,2c2.5,5.9,5,11.8,7.5,17.7c0.3,0.8,0.8,1.5,1.2,2.3c0.5,0.8,1.2,1,2,0.9
			c0.5-0.1,1-0.2,1.4-0.4c6.5-2.8,13-5.5,19.6-8.3c0.3-0.2,0.7-0.3,1-0.6C691.8,77.2,691.8,76.7,691.1,76.4"/>
		<line class="st24" x1="532.1" y1="37.5" x2="532.1" y2="-1.2"/>
		<path class="st3" d="M509.9,16.4c0,0-7.2-1-8.1,6.2l-9.9,70.1c0,0-1,7.2,6.2,8.1l47.7,6.7c0,0,7.2,1,8.1-6.2l9.8-70.1
			c0,0,1-7.2-6.2-8.1L509.9,16.4L509.9,16.4z"/>
		<path class="st0" d="M509.6,82c9.6,1.6,19.3,3.1,29,4.6c1.8-11.3,3.6-22.6,5.4-33.8c-9.7-1.6-19.3-3.1-29-4.6
			C513.2,59.4,511.4,70.6,509.6,82 M521.3,39.7c-0.3,3.7,0.9,5.3,4.3,5.8c3.1,0.5,6.3,1,9.4,1.5c3.1,0.5,4.7-0.6,5.5-3.8
			c0.1-0.1,0.1-0.2,0.2-0.3c2.1,0.3,4.3,0.5,6.3,1c1.8,0.5,2.4,2.1,2.1,4.2c-1.7,10.9-3.4,21.7-5.1,32.6c-0.3,2.4-0.8,4.7-1.1,7
			c-0.4,2.6-1.8,3.6-4.4,3.2c-9.9-1.6-19.9-3.1-29.8-4.7c-2.5-0.4-3.5-1.8-3.2-4.3c2.1-13.3,4.2-26.7,6.3-40.1
			c0.4-2.5,1.7-3.3,4.1-3C517.7,39.1,519.4,39.4,521.3,39.7"/>
		<path class="st0" d="M530.4,69.8c2,0.3,4,0.6,6,0.9c0.9,0.1,1.3,0.5,1.2,1.4c-0.2,1-0.6,1.3-1.6,1.1c-4-0.6-8.1-1.3-12.1-1.9
			c-0.9-0.1-1.4-0.4-1.3-1.4c0.2-1.2,0.8-1.3,1.7-1.1C526.3,69.1,528.4,69.4,530.4,69.8L530.4,69.8"/>
		<path class="st0" d="M531,65.4c-2.1-0.3-4.2-0.7-6.2-1c-0.8-0.1-1.2-0.5-1.1-1.4c0.1-0.9,0.6-1.2,1.5-1.1c4.2,0.7,8.3,1.3,12.5,2
			c0.9,0.1,1.2,0.5,1,1.4c-0.1,0.9-0.5,1.2-1.4,1C535.1,66.1,533.1,65.8,531,65.4"/>
		<path class="st0" d="M532.7,55.4c2,0.3,4.1,0.7,6.1,1c0.8,0.1,1.2,0.5,1,1.4c-0.1,0.8-0.5,1.2-1.4,1.1c-4.2-0.7-8.4-1.3-12.6-2
			c-0.9-0.1-1.2-0.6-1-1.4c0.1-0.9,0.6-1.2,1.4-1C528.4,54.7,530.5,55.1,532.7,55.4"/>
		<path class="st0" d="M519.6,54.6c1-0.8,1.9-1.6,2.8-2.3c0.3-0.2,0.8-0.1,1.2-0.1c-0.1,0.4-0.1,0.9-0.4,1.2c-1,0.9-2.1,1.8-3.1,2.7
			c-0.5,0.5-1,0.4-1.4-0.1s-1-1-1.3-1.6c-0.2-0.3,0-0.8,0-1.1c0.3,0.1,0.8,0,1,0.2C518.8,53.7,519.1,54.1,519.6,54.6"/>
		<path class="st0" d="M517.3,69.3c1-0.8,1.9-1.6,2.9-2.3c0.3-0.2,0.8-0.1,1.2-0.1c-0.1,0.3-0.1,0.9-0.3,1.1c-1,1-2.1,1.9-3.2,2.7
			c-0.3,0.2-0.9,0.2-1.2,0c-0.6-0.5-1.1-1.1-1.5-1.7c-0.2-0.2-0.1-0.7-0.1-1c0.3,0.1,0.8-0.1,1.1,0.1
			C516.5,68.4,516.8,68.9,517.3,69.3"/>
		<path class="st0" d="M518.4,62.2c1-0.8,1.8-1.6,2.7-2.2c0.3-0.2,0.9-0.2,1.3-0.3c-0.1,0.4-0.2,1-0.5,1.3c-1,0.9-2,1.8-3.1,2.5
			c-0.3,0.2-1,0.2-1.4-0.1c-0.6-0.4-1-1-1.4-1.6c-0.2-0.2,0-0.7,0.1-1c0.3,0,0.8-0.1,1,0.1C517.6,61.2,517.9,61.6,518.4,62.2"/>
		<path class="st0" d="M536.5,40.4c-1.4-0.3-2.1-1.1-2.2-2.5c-0.1-1.4-1.2-2.5-2.5-2.7s-2.6,0.6-3.1,1.8c-0.5,1.3-1.4,1.8-2.7,1.6
			c-1.7-0.2-2.9,0.5-3.1,2c-0.3,1.5,0.6,2.6,2.3,2.9c1.7,0.3,3.4,0.6,5.1,0.8c1.8,0.3,3.6,0.6,5.4,0.8c1.6,0.2,2.7-0.7,2.9-2.1
			C538.9,41.8,538,40.7,536.5,40.4"/>
		<line class="st24" x1="778.7" y1="37.5" x2="778.7" y2="-1.2"/>
		<path class="st3" d="M755.1,32.3c0,0-7.2-1-8.1,6.2l-9.9,70.1c0,0-1,7.2,6.2,8.1l47.7,6.7c0,0,7.2,1,8.1-6.2l9.8-70.1
			c0,0,1-7.2-6.2-8.1L755.1,32.3L755.1,32.3z"/>
		<path class="st0" d="M774.2,84.3c-0.1,0.1-0.1,0.2-0.2,0.2c-1.2,1-2,2.4-2.9,3.7c-0.8,1.2-1.8,2-3.1,2.6c-2.9,1.4-5.9,0.8-8.1-1.7
			c-1.2-1.3-1.8-2.9-2.1-4.6c-0.1-0.3-0.2-0.6-0.4-0.9c-1.2-1.8-1.8-3.8-1.3-6c0.1-0.7,0.3-1.3,1-1.7c0.2-0.1,0.2-0.3,0.3-0.6
			c0.2-1.3,0.3-2.5,0.7-3.8c0.5-1.7,1.5-3.1,2.8-4.3c0.2-0.2,0.5-0.4,0.8-0.5c3-1.3,6.1-1.2,9.1-0.1c-0.4,0.9-0.3,1.6,0.1,2.4
			c-0.2,0.6-0.5,0.8-1.2,0.8c-0.9-0.1-1.6,0.4-1.8,1.3s-0.5,1.8-0.5,2.7c0,0.8,0.5,1.4,1.3,1.6c0.2,0.1,0.4,0.4,0.5,0.6
			s-0.1,0.5-0.3,0.6c-0.8,0.7-1,1.4-0.6,2.4c0.4,0.8,0.9,1.6,1.5,2.2s1.3,0.7,2.1,0.2c0.3-0.2,0.5-0.1,0.8,0.1s0.3,0.3,0.3,0.7
			C773,83.1,773.4,83.7,774.2,84.3"/>
		<path class="st0" d="M781.7,75c0.3-2.2-1.2-4.2-3.3-4.6c-2.3-0.3-4.3,1.2-4.6,3.3c-0.3,2.1,1.2,4.3,3.4,4.6
			C779.4,78.7,781.4,77.2,781.7,75 M781.2,66.9c-0.2,0.5,0,0.9,0.5,1.1c0.1,0.1,0.2,0.1,0.2,0.1c0.7,0.6,1.4,0.9,2.2,0.2
			c0.1-0.1,0.7,0,0.8,0.2c0.5,0.5,0.8,1.1,1.2,1.7c0.3,0.5,0.1,0.8-0.3,1.1c-0.8,0.5-0.8,0.5-0.6,1.6c0,0.1,0.1,0.2,0.1,0.3
			c-0.1,0.9,0.4,1.3,1.2,1.4c0.5,0.1,0.7,0.4,0.6,0.8c-0.1,0.7-0.2,1.3-0.4,2c-0.1,0.5-0.5,0.6-1,0.5c-1-0.2-1-0.2-1.6,0.6
			c-0.1,0.1-0.1,0.2-0.2,0.3c-0.6,0.5-0.6,1.1-0.1,1.7c0.3,0.4,0.2,0.8-0.2,1.1c-0.5,0.4-1,0.8-1.6,1c-0.5,0.3-0.9,0.2-1.2-0.3
			c-0.3-0.7-0.8-0.9-1.5-0.6c-0.1,0.1-0.2,0.1-0.3,0.1c-0.9-0.1-1.3,0.4-1.4,1.3c-0.1,0.2-0.5,0.6-0.6,0.5c-0.8-0.1-1.6-0.2-2.3-0.5
			c-0.4-0.1-0.5-0.5-0.4-0.8c0.3-0.8,0.1-1.4-0.8-1.7c-0.1,0-0.1-0.1-0.2-0.1c-0.6-0.6-1.2-0.7-1.8-0.1c-0.3,0.3-0.8,0.2-1-0.1
			c-0.4-0.6-0.8-1.2-1.1-1.7s-0.1-0.9,0.3-1c0.8-0.3,1-0.9,0.6-1.6c-0.1-0.1-0.1-0.2-0.1-0.3c0.1-0.8-0.3-1.2-1.2-1.3
			c-0.5,0-0.8-0.3-0.7-0.9s0.2-1.3,0.4-2c0.1-0.5,0.5-0.8,1-0.5c0.8,0.3,1.3,0,1.7-0.8c0.1-0.1,0.1-0.1,0.1-0.2
			c0.6-0.8,0.6-0.8,0.1-1.7c-0.3-0.5-0.3-0.9,0.2-1.2c0.5-0.3,1-0.8,1.6-1c0.5-0.3,0.9-0.2,1.1,0.3c0.6,1,0.6,0.9,1.6,0.6
			c0.1,0,0.2-0.1,0.3-0.1c0.8,0,1.2-0.3,1.3-1.2c0-0.5,0.4-0.8,0.9-0.7c0.6,0.1,1.3,0.2,1.9,0.4C781.3,65.8,781.3,66,781.2,66.9"/>
		<path class="st0" d="M777.6,57.4c-0.2,1.9,1,3.6,3,3.9c1.8,0.3,3.7-1.1,3.9-3s-1.1-3.7-2.9-3.9C779.6,54.1,777.9,55.5,777.6,57.4
			 M779.8,50.3c0.2,0.3,0.4,0.5,0.5,0.7c0.2,0.5,0.5,0.8,1,0.7c0.5,0,0.9,0.1,1.4,0.2c0.5,0.2,0.8,0.1,1.1-0.3
			c0.3-0.5,0.7-0.5,1.2-0.2c0.6,0.5,1.2,0.9,1.7,1.4c0.3,0.3,0.3,0.7,0.1,1c-0.4,0.4-0.3,0.8-0.1,1.3c0.2,0.4,0.4,0.9,0.5,1.3
			c0.1,0.5,0.3,0.7,0.8,0.7c0.6,0,0.9,0.4,0.8,1c-0.1,0.7-0.2,1.4-0.3,2c-0.1,0.5-0.3,0.7-0.9,0.6s-0.8,0.1-1.1,0.5
			c-0.2,0.4-0.6,0.8-0.9,1.2s-0.5,0.7-0.2,1.2c0.2,0.5,0.1,0.8-0.3,1c-0.7,0.3-1.4,0.6-2.1,0.8c-0.5,0.2-0.8,0-0.9-0.5
			c-0.2-0.5-0.5-0.8-1-0.7c-0.5,0-0.9-0.1-1.4-0.2s-0.8-0.1-1,0.3c-0.3,0.5-0.8,0.6-1.2,0.2c-0.6-0.4-1.1-0.9-1.6-1.3
			c-0.3-0.3-0.4-0.6-0.1-1c0.4-0.4,0.4-0.8,0.1-1.3c-0.2-0.4-0.4-0.9-0.5-1.3c-0.1-0.5-0.3-0.7-0.8-0.7c-0.6,0-0.9-0.4-0.8-1
			c0.1-0.7,0.2-1.4,0.3-2.1c0.1-0.4,0.3-0.6,0.8-0.5c0.6,0.2,0.9-0.1,1.3-0.6c0.2-0.4,0.5-0.8,0.9-1.1c0.3-0.3,0.4-0.6,0.2-1
			c-0.3-0.6-0.1-0.9,0.5-1.2C778.2,50.9,778.9,50.6,779.8,50.3"/>
	</g>
	<path class="st0" d="M636.7,84.1c-3.5,0-7,0-10.5,0c-0.9,0-1.4-0.6-1.3-1.5c0.1-0.6,0.5-1,1.2-1s1.4,0,2,0c6.3,0,12.6,0,19,0
		c0.3,0,0.6,0,0.8,0.1c0.5,0.2,0.8,0.9,0.6,1.5c-0.1,0.6-0.6,0.9-1.2,0.9c-2.3,0-4.5,0-6.8,0H636.7L636.7,84.1L636.7,84.1z"/>
	<path class="st0" d="M615.7,83.2L615.7,83.2c-0.6,0-1.2,0-1.8,0c-0.8,0-1.7,0.5-1.7,1.7c0,1.1,0,2.2,0,3.3c0,1.1,0.7,1.7,1.7,1.7
		c1.1,0,2.2,0,3.3,0c1,0,1.6-0.5,1.6-1.5c0-1.3,0-2.6,0-3.8c0-0.8-0.6-1.3-1.5-1.4C616.9,83.2,616.3,83.2,615.7,83.2 M620.6,86.6
		c0,0.6,0,1.2,0,1.8c0,1.7-1.1,3-2.8,3.1c-1.5,0.1-3,0.1-4.4,0c-1.6-0.1-2.7-1.5-2.7-3.1c0-1.2,0-2.4,0-3.5c0-1.7,1.2-3.1,3-3.2
		c1.4-0.1,2.9-0.1,4.3,0c1.4,0.1,2.6,1.4,2.7,2.9C620.6,85.2,620.6,85.9,620.6,86.6L620.6,86.6L620.6,86.6z"/>
	<path class="st0" d="M631.6,75.5c-1.8,0-3.6,0-5.4,0c-1,0-1.6-1.1-1.1-2c0.3-0.4,0.6-0.6,1.1-0.6c2.6,0,5.2,0,7.8,0
		c1,0,1.9,0,2.9,0c0.9,0,1.4,0.5,1.4,1.3s-0.5,1.3-1.4,1.3C635.1,75.5,633.3,75.5,631.6,75.5"/>
	<path class="st0" d="M631.6,85.9c1.8,0,3.6,0,5.3,0c0.8,0,1.3,0.5,1.3,1.3s-0.5,1.3-1.3,1.3c-3.6,0-7.2,0-10.7,0
		c-1,0-1.6-0.9-1.2-1.8c0.2-0.5,0.6-0.7,1.2-0.7C627.9,85.9,629.7,85.9,631.6,85.9"/>
	<path class="st0" d="M655.3,79.4c0.7,0.3,1.3,0.5,2.1,0.8c-0.1,0.2-0.2,0.4-0.2,0.6c-0.5,1.1-0.9,2.3-1.4,3.4
		c-0.3,0.8-0.1,1.3,0.7,1.6c6.8,2.8,13.6,5.5,20.4,8.2c0.8,0.3,1.3,0.1,1.7-0.7c0.5-1.3,1-2.6,1.6-3.9c0.7,0.3,1.3,0.5,2,0.8
		c0,0.1-0.1,0.2-0.1,0.4c-0.5,1.2-1,2.5-1.5,3.7c-0.8,1.8-2.6,2.6-4.4,1.9c-6.9-2.8-13.7-5.5-20.6-8.3c-1.4-0.6-2.2-1.9-2.1-3.4
		c0-0.1,0-0.3,0-0.4L655.3,79.4L655.3,79.4z"/>
	<path class="st0" d="M528.8,77.7c2,0.3,4.1,0.7,6.1,1c0.9,0.1,1.3,0.4,1.2,1.4s-0.7,1.3-1.6,1.1c-4.1-0.7-8.1-1.3-12.2-1.9
		c-0.9-0.1-1.4-0.4-1.3-1.5c0.2-1.1,0.8-1.2,1.7-1.1C524.7,77.1,526.8,77.4,528.8,77.7L528.8,77.7"/>
	<path class="st0" d="M515.8,76.9c0.9-0.8,1.8-1.5,2.7-2.2c0.3-0.2,0.9-0.2,1.3-0.3c-0.2,0.5-0.2,1-0.5,1.3
		c-0.9,0.9-1.9,1.7-2.9,2.5c-0.6,0.5-1,0.5-1.5-0.1c-0.4-0.5-0.9-0.9-1.2-1.4c-0.2-0.3-0.1-0.8-0.1-1.2c0.4,0.1,0.8,0,1.1,0.2
		C515,76.1,515.3,76.5,515.8,76.9"/>
	<path class="st0" d="M757.6,88c3.4,6.2,9.7,6.5,14,2c1.6,0.9,3.2,1.8,4.8,2.8c1.1,0.7,2.2,1.4,3.2,2.3c2.3,2,3.1,4.8,3.5,7.8
		c0.1,1.2,0,2.4,0,3.6c0,0.5-0.3,0.8-0.8,0.9c-2.4,0.6-4.9,0.8-7.4,0.8c-6.2,0-12.3-0.7-18.3-1.9c-4.4-0.9-8.8-1.9-12.8-3.9
		c-0.5-0.2-1-0.5-1.4-0.8c-0.2-0.2-0.4-0.5-0.4-0.7c0.8-4.1,2.5-7.8,6.4-10c0.9-0.5,1.9-0.8,2.9-1.1C753.4,89.1,755.5,88.6,757.6,88
		"/>
	<path class="st0" d="M789,81.5c-0.3,1.9,1.1,3.7,3,3.9c1.8,0.2,3.6-1.1,3.9-3c0.3-1.9-1.1-3.7-3-4C791,78.2,789.2,79.6,789,81.5
		 M788.5,76.9c-0.1-0.2-0.1-0.4-0.2-0.6c-0.2-0.5-0.1-0.8,0.4-1c0.7-0.3,1.4-0.6,2.1-0.8c0.4-0.1,0.7,0,0.8,0.5
		c0.1,0.6,0.5,0.8,1.1,0.8c0.5,0,1,0.1,1.4,0.2s0.8,0,1-0.3c0.3-0.5,0.7-0.5,1.2-0.2c0.6,0.4,1.1,0.9,1.6,1.4c0.4,0.3,0.4,0.7,0,1.1
		s-0.4,0.7-0.1,1.2c0.2,0.4,0.4,0.9,0.5,1.4s0.4,0.7,0.9,0.8c0.6,0,0.8,0.3,0.7,0.8c-0.1,0.7-0.2,1.4-0.3,2c-0.1,0.5-0.4,0.8-1,0.7
		c-0.4-0.1-0.8,0-1,0.4c-0.3,0.4-0.6,0.8-1,1.2c-0.3,0.3-0.5,0.7-0.2,1.1c0.3,0.5,0.1,0.9-0.4,1.1c-0.7,0.3-1.4,0.5-2,0.7
		c-0.4,0.1-0.7,0-0.8-0.5c-0.2-0.6-0.5-0.8-1.1-0.8c-0.4,0-0.9-0.1-1.3-0.2c-0.5-0.1-0.8,0-1.1,0.4s-0.6,0.5-1,0.2
		c-0.6-0.5-1.2-0.9-1.8-1.4c-0.3-0.3-0.3-0.6,0-1c0.4-0.4,0.4-0.9,0.1-1.4c-0.2-0.4-0.4-0.8-0.4-1.2c-0.1-0.5-0.4-0.8-0.9-0.8
		c-0.6,0-0.8-0.4-0.7-0.9c0.1-0.7,0.2-1.5,0.4-2.2c0.1-0.4,0.4-0.6,0.8-0.5c0.6,0.1,0.9-0.1,1.2-0.5c0.2-0.4,0.6-0.7,0.9-1.1
		C788.3,77.3,788.4,77.1,788.5,76.9"/>
</g>
</svg>
