<?xml version="1.0" encoding="utf-8"?>
<!-- Generator: Adobe Illustrator 27.7.0, SVG Export Plug-In . SVG Version: 6.00 Build 0)  -->
<!DOCTYPE svg PUBLIC "-//W3C//DTD SVG 1.1//EN" "http://www.w3.org/Graphics/SVG/1.1/DTD/svg11.dtd" [
	<!ENTITY ns_extend "http://ns.adobe.com/Extensibility/1.0/">
	<!ENTITY ns_ai "http://ns.adobe.com/AdobeIllustrator/10.0/">
	<!ENTITY ns_graphs "http://ns.adobe.com/Graphs/1.0/">
	<!ENTITY ns_vars "http://ns.adobe.com/Variables/1.0/">
	<!ENTITY ns_imrep "http://ns.adobe.com/ImageReplacement/1.0/">
	<!ENTITY ns_sfw "http://ns.adobe.com/SaveForWeb/1.0/">
	<!ENTITY ns_custom "http://ns.adobe.com/GenericCustomNamespace/1.0/">
	<!ENTITY ns_adobe_xpath "http://ns.adobe.com/XPath/1.0/">
]>
<svg version="1.1" id="Layer_1" xmlns:x="&ns_extend;" xmlns:i="&ns_ai;" xmlns:graph="&ns_graphs;"
	 xmlns="http://www.w3.org/2000/svg" xmlns:xlink="http://www.w3.org/1999/xlink" x="0px" y="0px" width="660px" height="440px"
	 viewBox="0 0 660 440" style="enable-background:new 0 0 660 440;" xml:space="preserve">
<style type="text/css">
	.st0{fill:#012169;}
	.st1{clip-path:url(#SVGID_00000097475554600974388830000007132063901454103704_);}
	.st2{fill:#FFFFFF;}
	.st3{clip-path:url(#SVGID_00000179610394217008703560000000939378311000979889_);}
	.st4{fill:#E4002B;}
</style>
<metadata>
	<sfw  xmlns="&ns_sfw;">
		<slices></slices>
		<sliceSourceBounds  bottomLeftOrigin="true" height="456.9062" width="668.4531" x="-333.9531" y="-217"></sliceSourceBounds>
	</sfw>
</metadata>
<g>
	<g>
		<path class="st0" d="M0,0h660v440H0V0z"/>
	</g>
	<g>
		<defs>
			<rect id="SVGID_1_" x="0" width="378.0329" height="189.0164"/>
		</defs>
		<clipPath id="SVGID_00000163049631983838772300000017574768886553804416_">
			<use xlink:href="#SVGID_1_"  style="overflow:visible;"/>
		</clipPath>
		<g style="clip-path:url(#SVGID_00000163049631983838772300000017574768886553804416_);">
			<path d="M0,0l378.0329,189.0164 M378.0328,0L0,189.0164"/>
			<polygon class="st2" points="369.5798,205.9226 189.0164,115.6409 8.453,205.9226 -8.4531,172.1103 146.7511,94.5082 
				-8.4531,16.9062 8.453,-16.9062 189.0164,73.3755 369.5798,-16.9062 386.4859,16.9062 231.2818,94.5082 386.4859,172.1103 			"/>
		</g>
	</g>
	<g>
		<defs>
			<path id="SVGID_00000140715140039697604890000013996650920620249242_" d="M0,0v94.5082h378.0329v94.5082L0,0z M378.0328,0
				H189.0164v189.0164H0L378.0328,0z"/>
		</defs>
		<clipPath id="SVGID_00000172410936546830043540000012530257088118603196_">
			<use xlink:href="#SVGID_00000140715140039697604890000013996650920620249242_"  style="overflow:visible;"/>
		</clipPath>
		<g style="clip-path:url(#SVGID_00000172410936546830043540000012530257088118603196_);">
			<path d="M0,0l378.0329,189.0164 M378.0328,0L0,189.0164"/>
			<polygon class="st4" points="372.3975,200.2872 189.0164,108.5967 5.6353,200.2872 -5.6354,177.7457 160.8395,94.5082 
				-5.6354,11.2708 5.6353,-11.2707 189.0164,80.4198 372.3975,-11.2707 383.6682,11.2708 217.1933,94.5082 383.6682,177.7457 			
				"/>
		</g>
	</g>
	<g>
		<path d="M189.0164,0v189.0164 M0,94.5082h378.0329"/>
		<polygon class="st2" points="220.5191,189.0164 157.5137,189.0164 157.5137,126.0109 0,126.0109 0,63.0055 157.5137,63.0055 
			157.5137,0 220.5191,0 220.5191,63.0055 378.0328,63.0055 378.0328,126.0109 220.5191,126.0109 		"/>
	</g>
	<g>
		<path d="M189.0164,0v189.0164 M0,94.5082h378.0329"/>
		<polygon class="st4" points="207.918,189.0164 170.1148,189.0164 170.1148,113.4099 0,113.4099 0,75.6066 170.1148,75.6066 
			170.1148,0 207.918,0 207.918,75.6066 378.0328,75.6066 378.0328,113.4099 207.918,113.4099 		"/>
	</g>
	<g>
		<g>
			<g id="d" transform="scale(2.1)">
				<g id="a_00000175286767579020461060000006242207948737600677_">
					<path class="st2" d="M175.4375,271.6166l10.1492,31.5561l30.9995-11.7398l-18.3433,27.6099l28.5064,16.9166l-33.0233,2.8729
						l4.5475,32.8346l-22.836-24.0273l-22.8358,24.0275l4.5475-32.8346l-33.0233-2.873l28.5065-16.9167l-18.3436-27.6099
						l30.9995,11.7398L175.4375,271.6166z"/>
				</g>
			</g>
		</g>
		<g>
			<g id="a_00000008111906797994343440000014782216995848979107_">
				<path class="st2" d="M526.3126,328.4249l4.8329,15.0267l14.7617-5.5904l-8.7349,13.1476l13.5745,8.0555l-15.7254,1.3681
					l2.1655,15.6355l-10.8743-11.4416l-10.8742,11.4417l2.1655-15.6355l-15.7254-1.368l13.5745-8.0556l-8.735-13.1476
					l14.7617,5.5904L526.3126,328.4249z"/>
			</g>
		</g>
		<g>
			<g id="a_00000182513186875072544800000015802822484694881466_">
				<path class="st2" d="M438.5938,189.5369l4.8329,15.0267l14.7617-5.5904l-8.7349,13.1476l13.5745,8.0555l-15.7254,1.3681
					l2.1655,15.6355l-10.8743-11.4416l-10.8742,11.4417l2.1655-15.6355l-15.7254-1.3681l13.5745-8.0556l-8.735-13.1476
					l14.7617,5.5904L438.5938,189.5369z"/>
			</g>
		</g>
		<g>
			<g id="a_00000016065352332969419640000012075287919549256110_">
				<path class="st2" d="M526.3126,94.5082l4.8329,15.0267l14.7617-5.5904l-8.7349,13.1476l13.5745,8.0555l-15.7254,1.3681
					l2.1655,15.6355l-10.8743-11.4416l-10.8742,11.4417l2.1655-15.6355l-15.7254-1.3681l13.5745-8.0556l-8.735-13.1476
					l14.7617,5.5904L526.3126,94.5082z"/>
			</g>
		</g>
		<g>
			<g id="a_00000121993226538940939470000014783371293704199296_">
				<path class="st2" d="M604.2848,166.1452l4.8329,15.0267l14.7617-5.5904l-8.7349,13.1476l13.5745,8.0555l-15.7254,1.3681
					l2.1655,15.6355l-10.8743-11.4416l-10.8742,11.4417l2.1655-15.6355l-15.7254-1.3681l13.5745-8.0556l-8.735-13.1476
					l14.7617,5.5904L604.2848,166.1452z"/>
			</g>
		</g>
		<g>
			<g id="e">
				<path class="st2" d="M561.4,236.5291l3.8193,9.3631l10.085,0.7389l-7.7246,6.5257l2.4136,9.8198l-8.5933-5.33l-8.5933,5.33
					l2.4136-9.8198l-7.7246-6.5257l10.085-0.7389L561.4,236.5291z"/>
			</g>
		</g>
	</g>
</g>
</svg>
