<?xml version="1.0" encoding="utf-8"?>
<!-- Generator: Adobe Illustrator 27.7.0, SVG Export Plug-In . SVG Version: 6.00 Build 0)  -->
<!DOCTYPE svg PUBLIC "-//W3C//DTD SVG 1.1//EN" "http://www.w3.org/Graphics/SVG/1.1/DTD/svg11.dtd" [
	<!ENTITY ns_extend "http://ns.adobe.com/Extensibility/1.0/">
	<!ENTITY ns_ai "http://ns.adobe.com/AdobeIllustrator/10.0/">
	<!ENTITY ns_graphs "http://ns.adobe.com/Graphs/1.0/">
	<!ENTITY ns_vars "http://ns.adobe.com/Variables/1.0/">
	<!ENTITY ns_imrep "http://ns.adobe.com/ImageReplacement/1.0/">
	<!ENTITY ns_sfw "http://ns.adobe.com/SaveForWeb/1.0/">
	<!ENTITY ns_custom "http://ns.adobe.com/GenericCustomNamespace/1.0/">
	<!ENTITY ns_adobe_xpath "http://ns.adobe.com/XPath/1.0/">
]>
<svg version="1.1" id="Layer_1" xmlns:x="&ns_extend;" xmlns:i="&ns_ai;" xmlns:graph="&ns_graphs;"
	 xmlns="http://www.w3.org/2000/svg" xmlns:xlink="http://www.w3.org/1999/xlink" x="0px" y="0px" width="660px" height="440px"
	 viewBox="0 0 660 440" style="enable-background:new 0 0 660 440;" xml:space="preserve">
<style type="text/css">
	.st0{fill:#3F9C35;}
	.st1{fill:#ED2939;}
	.st2{fill:#00B9E4;}
	.st3{fill:#FFFFFF;}
</style>
<metadata>
	<sfw  xmlns="&ns_sfw;">
		<slices></slices>
		<sliceSourceBounds  bottomLeftOrigin="true" height="440" width="660" x="-325.5" y="-216.8095"></sliceSourceBounds>
	</sfw>
</metadata>
<g>
	<path class="st0" d="M0-0.1905h660v440H0V-0.1905z"/>
	<path class="st1" d="M0-0.1905h660v293.3333H0V-0.1905z"/>
	<path class="st2" d="M0-0.1905h660v146.6667H0V-0.1905z"/>
	<circle class="st3" cx="315.3333" cy="219.8095" r="66"/>
	<circle class="st1" cx="330" cy="219.8095" r="55"/>
	<path class="st3" d="M388.6667,183.1429l7.0158,19.7289l18.9112-8.9892l-8.9892,18.9112l19.7289,7.0158l-19.7289,7.0158
		l8.9892,18.9112l-18.9112-8.9892l-7.0158,19.7289l-7.0158-19.7289l-18.9112,8.9892l8.9892-18.9112L352,219.8095l19.7289-7.0158
		l-8.9892-18.9112l18.9112,8.9892L388.6667,183.1429z"/>
</g>
</svg>
