<?xml version="1.0" encoding="utf-8"?>
<!-- Generator: Adobe Illustrator 27.7.0, SVG Export Plug-In . SVG Version: 6.00 Build 0)  -->
<!DOCTYPE svg PUBLIC "-//W3C//DTD SVG 1.1//EN" "http://www.w3.org/Graphics/SVG/1.1/DTD/svg11.dtd" [
	<!ENTITY ns_extend "http://ns.adobe.com/Extensibility/1.0/">
	<!ENTITY ns_ai "http://ns.adobe.com/AdobeIllustrator/10.0/">
	<!ENTITY ns_graphs "http://ns.adobe.com/Graphs/1.0/">
	<!ENTITY ns_vars "http://ns.adobe.com/Variables/1.0/">
	<!ENTITY ns_imrep "http://ns.adobe.com/ImageReplacement/1.0/">
	<!ENTITY ns_sfw "http://ns.adobe.com/SaveForWeb/1.0/">
	<!ENTITY ns_custom "http://ns.adobe.com/GenericCustomNamespace/1.0/">
	<!ENTITY ns_adobe_xpath "http://ns.adobe.com/XPath/1.0/">
]>
<svg version="1.1" id="Layer_1" xmlns:x="&ns_extend;" xmlns:i="&ns_ai;" xmlns:graph="&ns_graphs;"
	 xmlns="http://www.w3.org/2000/svg" xmlns:xlink="http://www.w3.org/1999/xlink" x="0px" y="0px" width="660px" height="440px"
	 viewBox="0 0 660 440" style="enable-background:new 0 0 660 440;" xml:space="preserve">
<style type="text/css">
	.st0{fill:#EE1C25;}
	.st1{fill:#FFFF00;}
</style>
<metadata>
	<sfw  xmlns="&ns_sfw;">
		<slices></slices>
		<sliceSourceBounds  bottomLeftOrigin="true" height="440" width="660" x="-325.5" y="-216.8095"></sliceSourceBounds>
	</sfw>
</metadata>
<g>
	<path class="st0" d="M0-0.1905h660v440H0V-0.1905z"/>
	<g transform="matrix(3 0 0 3 5 5)">
		<path id="a" class="st1" d="M110,43.8095l38.808,119.394l-101.64-73.788h125.664l-101.64,73.788L110,43.8095z"/>
	</g>
	<g transform="rotate(23.036 .093 25.536)">
		<path id="a_00000137828804703853762530000005044232526185914033_" class="st1" d="M228.6065,23.561l-3.6689,41.6865
			l-21.5537-35.8923l38.5478,16.3912l-40.803,9.3771L228.6065,23.561z"/>
	</g>
	<g transform="rotate(45.87 1.273 16.18)">
		<path id="a_00000021090360080598187820000009722184253817589418_" class="st1" d="M279.791,72.4986l-19.5583,36.9959
			l-5.9362-41.4437l29.1661,30.0656l-41.2443-7.1919L279.791,72.4986z"/>
	</g>
	<g transform="rotate(69.945 .996 12.078)">
		<path id="a_00000047761302259846550380000004055490355250818970_" class="st1" d="M284.6679,146.278l-32.9488,25.7992
			l11.4864-40.2602l14.3643,39.3481l-34.7228-23.3911L284.6679,146.278z"/>
	</g>
	<g transform="rotate(20.66 -19.689 31.932)">
		<path id="a_00000070809461998300752390000000967243838259863943_" class="st1" d="M227.7646,177.2295l-1.9375,41.8027
			l-23.0232-34.9678l39.1942,14.779l-40.3792,11.0606L227.7646,177.2295z"/>
	</g>
</g>
</svg>
