<?xml version="1.0" encoding="utf-8"?>
<!-- Generator: Adobe Illustrator 27.7.0, SVG Export Plug-In . SVG Version: 6.00 Build 0)  -->
<!DOCTYPE svg PUBLIC "-//W3C//DTD SVG 1.1//EN" "http://www.w3.org/Graphics/SVG/1.1/DTD/svg11.dtd" [
	<!ENTITY ns_extend "http://ns.adobe.com/Extensibility/1.0/">
	<!ENTITY ns_ai "http://ns.adobe.com/AdobeIllustrator/10.0/">
	<!ENTITY ns_graphs "http://ns.adobe.com/Graphs/1.0/">
	<!ENTITY ns_vars "http://ns.adobe.com/Variables/1.0/">
	<!ENTITY ns_imrep "http://ns.adobe.com/ImageReplacement/1.0/">
	<!ENTITY ns_sfw "http://ns.adobe.com/SaveForWeb/1.0/">
	<!ENTITY ns_custom "http://ns.adobe.com/GenericCustomNamespace/1.0/">
	<!ENTITY ns_adobe_xpath "http://ns.adobe.com/XPath/1.0/">
]>
<svg version="1.1" id="Layer_1" xmlns:x="&ns_extend;" xmlns:i="&ns_ai;" xmlns:graph="&ns_graphs;"
	 xmlns="http://www.w3.org/2000/svg" xmlns:xlink="http://www.w3.org/1999/xlink" x="0px" y="0px" width="660px" height="440px"
	 viewBox="0 0 660 440" style="enable-background:new 0 0 660 440;" xml:space="preserve">
<style type="text/css">
	.st0{fill:#EE1C25;}
	.st1{fill:#FFFFFF;}
</style>
<metadata>
	<sfw  xmlns="&ns_sfw;">
		<slices></slices>
		<sliceSourceBounds  bottomLeftOrigin="true" height="440" width="660" x="-325.5" y="-216.8095"></sliceSourceBounds>
	</sfw>
</metadata>
<g>
	<path class="st0" d="M0-0.1905h660v440H0V-0.1905z"/>
	<g id="a">
		<path class="st1" d="M329.9736,219.7457c-77.1929-32.6231-42.9748-133.1594,30.8513-128.106
			c-14.9351,7.6758-17.0999,21.9978-8.5705,35.266c9.5509,14.8544-0.88,38.7552-13.7911,44.5625
			C317.2444,181.0199,312.9962,206.4849,329.9736,219.7457z"/>
		<path class="st0" d="M325.7995,147.1509l-4.3413,6.8156l-1.5723-7.931l-7.8313-2.0233l7.0583-3.9527l-0.492-8.0659l5.929,5.4927
			l7.5211-2.9649l-3.3806,7.3407l5.1341,6.237L325.7995,147.1509z M330.4107,218.8995
			c-9.3361-4.7916-16.8637-14.7803-20.1432-26.7161c-3.751-13.6913-1.5935-28.4115,5.9275-40.3612l-1.6192-1.0223
			c-7.8027,12.4146-10.0415,27.6782-6.1497,41.888c3.4672,12.6287,11.1569,22.8045,21.1104,27.9136L330.4107,218.8995z"/>
	</g>
	<g transform="rotate(72 450 300)">
		<g id="a_00000094592528447803798070000001516675791040180649_">
			<path class="st1" d="M330.0525,219.7647c7.1725-83.4959,113.3622-82.02,131.3697-10.2456
				c-11.9153-11.8321-26.2053-9.4653-36.1884,2.7468c-11.176,13.6737-37.1303,11.1391-46.6431,0.6545
				C362.9495,195.6916,337.418,199.5204,330.0525,219.7647z"/>
			<path class="st0" d="M397.8044,193.3618l-7.8236-2.0227l7.057-3.9461l-0.4958-8.0732l5.9404,5.4914l7.5191-2.9605l-3.3917,7.3361
				l5.1439,6.2368l-8.0261-0.9468l-4.3452,6.8101L397.8044,193.3618z M330.9924,219.9189
				c1.6721-10.3598,8.8458-20.6057,19.1839-27.413c11.8621-7.7982,26.5285-10.2952,40.2175-6.8349l0.4719-1.8559
				c-14.2181-3.5845-29.4265-0.997-41.7382,7.0954c-10.9392,7.2-18.2407,17.6578-20.0239,28.703L330.9924,219.9189z"/>
		</g>
	</g>
	<g transform="rotate(144 450 300)">
		<g id="a_00000124849354747358735430000001312088016597519286_">
			<path class="st1" d="M330.0588,219.8456c81.6257-18.9802,113.0365,82.4682,50.3396,121.7739
				c7.571-14.9885,0.9041-27.8476-13.7952-33.5684c-16.4581-6.4036-22.0678-31.8708-15.0359-44.158
				C363.1195,243.6935,351.5884,220.5948,330.0588,219.8456z"/>
			<path class="st0" d="M376.106,276.1226l-0.4939-8.0657l5.9337,5.4922l7.5249-2.9662l-3.387,7.3466l5.1391,6.2362l-8.0251-0.9587
				l-4.342,6.8194l-1.5797-7.9258l-7.8195-2.0281L376.106,276.1226z M330.2027,220.7872
				c10.3694-1.6111,22.3307,2.0453,31.9995,9.7739c11.0822,8.8717,17.9891,22.0488,18.9283,36.137l1.9108-0.1247
				c-0.9846-14.6299-8.1451-28.2944-19.6459-37.5028c-10.228-8.1789-22.4303-11.8913-33.4859-10.1741L330.2027,220.7872z"/>
		</g>
	</g>
	<g transform="rotate(216 450 300)">
		<g id="a_00000070810018988738747430000010739955978426088608_">
			<path class="st1" d="M329.9838,219.8767c43.275,71.7654-43.5018,132.9882-100.2581,85.506
				c16.5944,2.5688,26.764-7.7455,27.6625-23.4932c1.0043-17.6313,23.4917-30.8363,37.3504-27.9456
				C317.5195,258.6886,335.9243,240.584,329.9838,219.8767z"/>
			<path class="st0" d="M290.6906,281.0606l7.5183-2.9622l-3.3897,7.3405l5.1464,6.24l-8.0336-0.951l-4.3429,6.8147l-1.5681-7.9286
				l-7.8274-2.0222l7.0497-3.9516l-0.4875-8.0636L290.6906,281.0606z M329.1328,220.3044
				c4.7366,9.3641,4.9554,21.8698,0.5929,33.4536c-5.013,13.2813-15.4107,23.9221-28.5192,29.1688l0.7091,1.7788
				c13.6096-5.4573,24.3926-16.4899,29.5964-30.2734c4.618-12.2548,4.378-25.0071-0.6715-34.991L329.1328,220.3044z"/>
		</g>
	</g>
	<g transform="rotate(288 450 300)">
		<g id="a_00000116922561706662451750000013148410680515332746_">
			<path class="st1" d="M329.9312,219.8149c-54.8803,63.3337-139.922-0.2771-112.3024-68.9283
				c2.6849,16.576,15.637,23.0606,30.8915,19.0488c17.0788-4.4932,36.5865,12.813,38.1198,26.8866
				C289.1671,219.9542,312.073,231.8636,329.9312,219.8149z"/>
			<path class="st0" d="M259.5995,201.3517l5.1405,6.235l-8.0287-0.9555l-4.3442,6.8228l-1.5781-7.9343l-7.8232-2.0245l7.056-3.9415
				l-0.4956-8.0692l5.9367,5.4836l7.5183-2.9554L259.5995,201.3517z M329.2614,219.1377
				c-7.4421,7.3984-19.2681,11.471-31.6331,10.9016c-14.1803-0.6635-27.5134-7.2641-36.554-18.1097l-1.4726,1.2241
				c9.3958,11.2571,23.2205,18.1031,37.9375,18.7928c13.0821,0.605,25.136-3.5639,33.0709-11.4515L329.2614,219.1377z"/>
		</g>
	</g>
</g>
</svg>
