<?xml version="1.0" encoding="utf-8"?>
<!-- Generator: Adobe Illustrator 27.7.0, SVG Export Plug-In . SVG Version: 6.00 Build 0)  -->
<!DOCTYPE svg PUBLIC "-//W3C//DTD SVG 1.1//EN" "http://www.w3.org/Graphics/SVG/1.1/DTD/svg11.dtd" [
	<!ENTITY ns_extend "http://ns.adobe.com/Extensibility/1.0/">
	<!ENTITY ns_ai "http://ns.adobe.com/AdobeIllustrator/10.0/">
	<!ENTITY ns_graphs "http://ns.adobe.com/Graphs/1.0/">
	<!ENTITY ns_vars "http://ns.adobe.com/Variables/1.0/">
	<!ENTITY ns_imrep "http://ns.adobe.com/ImageReplacement/1.0/">
	<!ENTITY ns_sfw "http://ns.adobe.com/SaveForWeb/1.0/">
	<!ENTITY ns_custom "http://ns.adobe.com/GenericCustomNamespace/1.0/">
	<!ENTITY ns_adobe_xpath "http://ns.adobe.com/XPath/1.0/">
]>
<svg version="1.1" id="Layer_1" xmlns:x="&ns_extend;" xmlns:i="&ns_ai;" xmlns:graph="&ns_graphs;"
	 xmlns="http://www.w3.org/2000/svg" xmlns:xlink="http://www.w3.org/1999/xlink" x="0px" y="0px" width="660px" height="440px"
	 viewBox="0 0 660 440" style="enable-background:new 0 0 660 440;" xml:space="preserve">
<style type="text/css">
	.st0{fill:#FF9933;}
	.st1{fill:#FFFFFF;}
	.st2{fill:#128807;}
	.st3{fill:#000088;}
</style>
<metadata>
	<sfw  xmlns="&ns_sfw;">
		<slices></slices>
		<sliceSourceBounds  bottomLeftOrigin="true" height="440" width="660" x="-325.5" y="-216.8095"></sliceSourceBounds>
	</sfw>
</metadata>
<g>
	<path class="st0" d="M0-0.1905h660v146.6667H0V-0.1905z"/>
	<path class="st1" d="M0,146.4762h660v146.6667H0V146.4762z"/>
	<path class="st2" d="M0,293.1429h660v146.6667H0V293.1429z"/>
	<g transform="translate(450 300)">
		<circle class="st3" cx="-120" cy="-80.1905" r="67.8333"/>
		<circle class="st1" cx="-120" cy="-80.1905" r="58.6667"/>
		<circle class="st3" cx="-120" cy="-80.1905" r="11.7333"/>
		<g id="d">
			<g id="c">
				<g id="b">
					<g id="a">
						<circle class="st3" cx="-61.8353" cy="-72.5329" r="2.5667"/>
						<path class="st3" d="M-120-21.5238l2.2-35.2l-1.4667-11.7561v-0.7106h-1.4667v0.7106L-122.2-56.7238L-120-21.5238z"/>
					</g>
					<g transform="rotate(15)">
						<g id="a_00000164473699106973471240000008324415352208623500_">
							<circle class="st3" cx="-65.7991" cy="-57.7397" r="2.5667"/>
							<path class="st3" d="M-135.1841-23.5228l11.2355-33.4312l1.626-11.7351l0.1839-0.6864l-1.4167-0.3796l-0.1839,0.6864
								l-4.4594,10.9759L-135.1841-23.5228z"/>
						</g>
					</g>
				</g>
				<g transform="rotate(30)">
					<g id="b_00000020386054101303729900000010721710561901649824_">
						<g id="a_00000085214184934533667210000004751228893349502113_">
							<circle class="st3" cx="-73.4566" cy="-44.4765" r="2.5667"/>
							<path class="st3" d="M-149.3333-29.3836l19.5052-29.3841l4.6079-10.9144l0.3553-0.6154l-1.2702-0.7333l-0.3553,0.6154
								l-7.1482,9.4477L-149.3333-29.3836z"/>
						</g>
						<g transform="rotate(15)">
							<g id="a_00000062908021074430300700000002970607543406875810_">
								<circle class="st3" cx="-84.286" cy="-33.6471" r="2.5667"/>
								<path class="st3" d="M-161.4836-38.7069l26.4458-23.3345l7.2757-9.3499l0.5025-0.5025l-1.0371-1.0371l-0.5025,0.5025
									l-9.3499,7.2757L-161.4836-38.7069z"/>
							</g>
						</g>
					</g>
				</g>
			</g>
			<g transform="rotate(60)">
				<g id="c_00000050625756999466906270000006667049579953479351_">
					<g id="b_00000108303788423602399990000002939055693081927608_">
						<g id="a_00000130633603425527136270000010481614309086685083_">
							<circle class="st3" cx="-97.5492" cy="-25.9895" r="2.5667"/>
							<path class="st3" d="M-170.8068-50.8571l31.5841-15.6947l9.4477-7.1482l0.6154-0.3553l-0.7333-1.2702l-0.6154,0.3553
								l-10.9144,4.6079L-170.8068-50.8571z"/>
						</g>
						<g transform="rotate(15)">
							<g id="a_00000129907896719682468650000008159409396226977701_">
								<circle class="st3" cx="-112.3425" cy="-22.0257" r="2.5667"/>
								<path class="st3" d="M-176.6676-65.0064l34.57-6.9854l10.9759-4.4594l0.6864-0.1839l-0.3796-1.4167l-0.6864,0.1839
									l-11.7351,1.626L-176.6676-65.0064z"/>
							</g>
						</g>
					</g>
					<g transform="rotate(30)">
						<g id="b_00000002365416602202568490000013971136111656550079_">
							<g id="a_00000116214082866981463310000000311474207362044830_">
								<circle class="st3" cx="-127.6575" cy="-22.0257" r="2.5667"/>
								<path class="st3" d="M-178.6667-80.1905l35.2,2.2l11.7561-1.4667H-131v-1.4667h-0.7106l-11.7561-1.4667L-178.6667-80.1905z"
									/>
							</g>
							<g transform="rotate(15)">
								<g id="a_00000139259562486959175940000011484247042409629834_">
									<circle class="st3" cx="-142.4507" cy="-25.9895" r="2.5667"/>
									<path class="st3" d="M-176.6676-95.3745l33.4312,11.2355l11.7351,1.626l0.6864,0.1839l0.3796-1.4167l-0.6864-0.1839
										l-10.9759-4.4594L-176.6676-95.3745z"/>
								</g>
							</g>
						</g>
					</g>
				</g>
			</g>
		</g>
		<g transform="rotate(120)">
			<g id="d_00000152957033877411995420000000257678658440088210_">
				<g id="c_00000058588834842863456360000012151444440053447854_">
					<g id="b_00000006693484704615052930000002858878794358756523_">
						<g id="a_00000070100355896556481010000009096367646203504297_">
							<circle class="st3" cx="-155.714" cy="-33.6471" r="2.5667"/>
							<path class="st3" d="M-170.8068-109.5238l29.3841,19.5053l10.9144,4.6079l0.6154,0.3553l0.7333-1.2702l-0.6154-0.3553
								l-9.4477-7.1482L-170.8068-109.5238z"/>
						</g>
						<g transform="rotate(15)">
							<g id="a_00000047019388677284068880000004814214624225138081_">
								<circle class="st3" cx="-166.5434" cy="-44.4765" r="2.5667"/>
								<path class="st3" d="M-161.4836-121.6741l23.3345,26.4458l9.3499,7.2757l0.5025,0.5025l1.0371-1.0371l-0.5025-0.5025
									l-7.2757-9.3499L-161.4836-121.6741z"/>
							</g>
						</g>
					</g>
					<g transform="rotate(30)">
						<g id="b_00000095312703290654136450000011567377818864445612_">
							<g id="a_00000143601615450583544940000015625072794726165900_">
								<circle class="st3" cx="-174.2009" cy="-57.7397" r="2.5667"/>
								<path class="st3" d="M-149.3333-130.9973l15.6947,31.5841l7.1482,9.4477l0.3553,0.6154l1.2702-0.7333l-0.3553-0.6154
									l-4.6079-10.9144L-149.3333-130.9973z"/>
							</g>
							<g transform="rotate(15)">
								<g id="a_00000131330490894209698020000003100716370944621728_">
									<circle class="st3" cx="-178.1647" cy="-72.5329" r="2.5667"/>
									<path class="st3" d="M-135.1841-136.8581l6.9854,34.57l4.4594,10.9759l0.1839,0.6864l1.4167-0.3796l-0.1839-0.6864
										l-1.626-11.7351L-135.1841-136.8581z"/>
								</g>
							</g>
						</g>
					</g>
				</g>
				<g transform="rotate(60)">
					<g id="c_00000072272354371126797990000009226173342569791372_">
						<g id="b_00000178173415691912009640000002828831384023632773_">
							<g id="a_00000019666047771665423490000001115079199980541581_">
								<circle class="st3" cx="-178.1647" cy="-87.848" r="2.5667"/>
								<path class="st3" d="M-120-138.8571l-2.2,35.2l1.4667,11.7561v0.7106h1.4667v-0.7106l1.4667-11.7561L-120-138.8571z"/>
							</g>
							<g transform="rotate(15)">
								<g id="a_00000121987540586918118150000010851455175406498218_">
									<circle class="st3" cx="-174.2009" cy="-102.6412" r="2.5667"/>
									<path class="st3" d="M-104.8159-136.8581l-11.2355,33.4312l-1.626,11.7351l-0.1839,0.6864l1.4167,0.3796l0.1839-0.6864
										l4.4594-10.9759L-104.8159-136.8581z"/>
								</g>
							</g>
						</g>
						<g transform="rotate(30)">
							<g id="b_00000061465547559182187670000015097188497497204625_">
								<g id="a_00000141415433032375113450000002396778051702273934_">
									<circle class="st3" cx="-166.5434" cy="-115.9044" r="2.5667"/>
									<path class="st3" d="M-90.6667-130.9973l-19.5053,29.3841l-4.6079,10.9144l-0.3553,0.6154l1.2702,0.7333l0.3553-0.6154
										l7.1482-9.4477L-90.6667-130.9973z"/>
								</g>
								<g transform="rotate(15)">
									<g id="a_00000090287784877696598370000011544726947388372158_">
										<circle class="st3" cx="-155.714" cy="-126.7338" r="2.5667"/>
										<path class="st3" d="M-78.5164-121.6741l-26.4458,23.3345l-7.2757,9.3499l-0.5025,0.5025l1.0371,1.0371l0.5025-0.5025
											l9.3499-7.2757L-78.5164-121.6741z"/>
									</g>
								</g>
							</g>
						</g>
					</g>
				</g>
			</g>
		</g>
		<g transform="rotate(-120)">
			<g id="d_00000019655960577438098850000009464574688497974974_">
				<g id="c_00000183247147766367376590000007359694915165794948_">
					<g id="b_00000141438088143501344720000013959363396218710680_">
						<g id="a_00000139291819196111930850000003743039272869694349_">
							<circle class="st3" cx="-142.4508" cy="-134.3914" r="2.5667"/>
							<path class="st3" d="M-69.1932-109.5238l-31.5841,15.6947l-9.4477,7.1482l-0.6154,0.3553l0.7333,1.2702l0.6154-0.3553
								l10.9144-4.6079L-69.1932-109.5238z"/>
						</g>
						<g transform="rotate(15)">
							<g id="a_00000155844192642939292720000011592044902784762804_">
								<circle class="st3" cx="-127.6575" cy="-138.3552" r="2.5667"/>
								<path class="st3" d="M-63.3324-95.3745l-34.57,6.9854l-10.9759,4.4594l-0.6864,0.1839l0.3796,1.4167l0.6864-0.1839
									l11.7351-1.626L-63.3324-95.3745z"/>
							</g>
						</g>
					</g>
					<g transform="rotate(30)">
						<g id="b_00000171701429678982296580000004887543802848619163_">
							<g id="a_00000162338476681141724280000011066816811385924744_">
								<circle class="st3" cx="-112.3425" cy="-138.3552" r="2.5667"/>
								<path class="st3" d="M-61.3333-80.1905l-35.2-2.2l-11.7561,1.4667H-109v1.4667h0.7106l11.7561,1.4667L-61.3333-80.1905z"/>
							</g>
							<g transform="rotate(15)">
								<g id="a_00000159467834973991865450000003300608509541599930_">
									<circle class="st3" cx="-97.5493" cy="-134.3914" r="2.5667"/>
									<path class="st3" d="M-63.3324-65.0064l-33.4312-11.2355l-11.7351-1.626l-0.6864-0.1839l-0.3796,1.4167l0.6864,0.1839
										l10.9759,4.4594L-63.3324-65.0064z"/>
								</g>
							</g>
						</g>
					</g>
				</g>
				<g transform="rotate(60)">
					<g id="c_00000039848279184241173590000000332560644479713466_">
						<g id="b_00000086650472646634293330000013660798433978294153_">
							<g id="a_00000005953224211997644730000016194207874416464034_">
								<circle class="st3" cx="-84.286" cy="-126.7338" r="2.5667"/>
								<path class="st3" d="M-69.1932-50.8571l-29.3841-19.5053l-10.9144-4.6079l-0.6154-0.3553l-0.7333,1.2702l0.6154,0.3553
									l9.4477,7.1482L-69.1932-50.8571z"/>
							</g>
							<g transform="rotate(15)">
								<g id="a_00000160185228043225200430000015464365675906304697_">
									<circle class="st3" cx="-73.4566" cy="-115.9045" r="2.5667"/>
									<path class="st3" d="M-78.5164-38.7069l-23.3345-26.4458l-9.3499-7.2757l-0.5025-0.5025l-1.0371,1.0371l0.5025,0.5025
										l7.2757,9.3499L-78.5164-38.7069z"/>
								</g>
							</g>
						</g>
						<g transform="rotate(30)">
							<g id="b_00000175321356236256931730000012908582079683625914_">
								<g id="a_00000005985975985354863420000011602925199985263039_">
									<circle class="st3" cx="-65.7991" cy="-102.6412" r="2.5667"/>
									<path class="st3" d="M-90.6667-29.3836l-15.6947-31.5841l-7.1482-9.4477l-0.3553-0.6154l-1.2702,0.7333l0.3553,0.6154
										l4.6079,10.9144L-90.6667-29.3836z"/>
								</g>
								<g transform="rotate(15)">
									<g id="a_00000129913519616961438340000000928817799715203231_">
										<circle class="st3" cx="-61.8353" cy="-87.848" r="2.5667"/>
										<path class="st3" d="M-104.8159-23.5228l-6.9854-34.57l-4.4594-10.9759l-0.1839-0.6864l-1.4167,0.3796l0.1839,0.6864
											l1.626,11.7351L-104.8159-23.5228z"/>
									</g>
								</g>
							</g>
						</g>
					</g>
				</g>
			</g>
		</g>
	</g>
</g>
</svg>
