<?xml version="1.0" encoding="utf-8"?>
<!-- Generator: Adobe Illustrator 27.7.0, SVG Export Plug-In . SVG Version: 6.00 Build 0)  -->
<!DOCTYPE svg PUBLIC "-//W3C//DTD SVG 1.1//EN" "http://www.w3.org/Graphics/SVG/1.1/DTD/svg11.dtd" [
	<!ENTITY ns_extend "http://ns.adobe.com/Extensibility/1.0/">
	<!ENTITY ns_ai "http://ns.adobe.com/AdobeIllustrator/10.0/">
	<!ENTITY ns_graphs "http://ns.adobe.com/Graphs/1.0/">
	<!ENTITY ns_vars "http://ns.adobe.com/Variables/1.0/">
	<!ENTITY ns_imrep "http://ns.adobe.com/ImageReplacement/1.0/">
	<!ENTITY ns_sfw "http://ns.adobe.com/SaveForWeb/1.0/">
	<!ENTITY ns_custom "http://ns.adobe.com/GenericCustomNamespace/1.0/">
	<!ENTITY ns_adobe_xpath "http://ns.adobe.com/XPath/1.0/">
]>
<svg version="1.1" id="Layer_1" xmlns:x="&ns_extend;" xmlns:i="&ns_ai;" xmlns:graph="&ns_graphs;"
	 xmlns="http://www.w3.org/2000/svg" xmlns:xlink="http://www.w3.org/1999/xlink" x="0px" y="0px" width="660px" height="440px"
	 viewBox="0 0 660 440" style="enable-background:new 0 0 660 440;" xml:space="preserve">
<style type="text/css">
	.st0{fill:#FFFFFF;}
	.st1{fill:#00AFCA;}
	.st2{fill:#FEC50C;}
</style>
<metadata>
	<sfw  xmlns="&ns_sfw;">
		<slices></slices>
		<sliceSourceBounds  bottomLeftOrigin="true" height="440" width="660" x="-325.5" y="-216.8095"></sliceSourceBounds>
	</sfw>
</metadata>
<rect y="-0.1905" class="st0" width="660" height="440"/>
<g>
	<g>
		<rect y="-0.1905" class="st1" width="660" height="440"/>
	</g>
	<g id="sun" transform="translate(1080.4716,420)">
		<g>
			<circle class="st2" cx="-605.0641" cy="-235.3905" r="59.2019"/>
		</g>
		<g id="r16">
			<g id="r4">
				<g id="r">
					<path class="st2" d="M-605.0641-302.6664c3.52-0.044,4.84-2.244,4.84-4.884c0-3.52-4.84-20.284-4.84-20.284
						s-4.84,16.764-4.84,20.284C-609.9041-304.9105-608.584-302.6664-605.0641-302.6664z"/>
				</g>
				<g transform="rotate(90)">
					<g id="r_00000109027984007414521430000009422778616390434998_">
						<path class="st2" d="M-537.7881-235.3905c0.044,3.52,2.244,4.84,4.884,4.84c3.52,0,20.284-4.84,20.284-4.84
							s-16.764-4.84-20.284-4.84C-535.5441-240.2305-537.7881-238.9105-537.7881-235.3905z"/>
					</g>
				</g>
				<g transform="rotate(180)">
					<g id="r_00000115491345686423831400000010629249132708738181_">
						<path class="st2" d="M-605.0641-168.1145c-3.52,0.044-4.84,2.244-4.84,4.884c0,3.52,4.84,20.284,4.84,20.284
							s4.84-16.764,4.84-20.284C-600.2241-165.8705-601.5441-168.1145-605.0641-168.1145z"/>
					</g>
				</g>
				<g transform="rotate(270)">
					<g id="r_00000176755720911500277340000016657721908177408695_">
						<path class="st2" d="M-672.3401-235.3905c-0.044-3.52-2.244-4.84-4.884-4.84c-3.52,0-20.284,4.84-20.284,4.84
							s16.764,4.84,20.284,4.84C-674.584-230.5505-672.3401-231.8705-672.3401-235.3905z"/>
					</g>
				</g>
			</g>
			<g transform="rotate(22.5)">
				<g id="r4_00000135657854195323586070000014398358888409161880_">
					<g id="r_00000000204230161998820420000012121692866525899454_">
						<path class="st2" d="M-579.3187-297.5454c3.2689,1.3064,5.3303-0.221,6.3406-2.66c1.347-3.252,3.2908-20.5922,3.2908-20.5922
							s-10.8869,13.6357-12.2339,16.8878C-582.9315-301.4708-582.5707-298.8924-579.3187-297.5454z"/>
					</g>
					<g transform="rotate(90)">
						<g id="r_00000127763643969627348670000009063995888840696994_">
							<path class="st2" d="M-542.9092-209.6451c-1.3064,3.2689,0.221,5.3303,2.66,6.3406
								c3.2521,1.347,20.5922,3.2908,20.5922,3.2908s-13.6357-10.8869-16.8878-12.2339
								C-538.9838-213.2579-541.5621-212.8971-542.9092-209.6451z"/>
						</g>
					</g>
					<g transform="rotate(180)">
						<g id="r_00000008117613787980617920000008398854512201150118_">
							<path class="st2" d="M-630.8095-173.2355c-3.2689-1.3064-5.3303,0.221-6.3406,2.66
								c-1.347,3.2521-3.2908,20.5922-3.2908,20.5922s10.8869-13.6357,12.2339-16.8878
								C-627.1967-169.3102-627.5574-171.8885-630.8095-173.2355z"/>
						</g>
					</g>
					<g transform="rotate(270)">
						<g id="r_00000091007177442845868810000016513531908775560332_">
							<path class="st2" d="M-667.219-261.1359c1.3064-3.2689-0.221-5.3303-2.66-6.3406
								c-3.2521-1.347-20.5922-3.2908-20.5922-3.2908s13.6357,10.8869,16.8878,12.2339
								C-671.1443-257.523-668.566-257.8838-667.219-261.1359z"/>
						</g>
					</g>
				</g>
			</g>
			<g transform="rotate(45)">
				<g id="r4_00000110435534534274574870000007920937740007801523_">
					<g id="r_00000132079322046997002490000017520825896082762893_">
						<path class="st2" d="M-557.4927-282.9618c2.5201,2.4579,5.0091,1.8356,6.8759-0.0311
							c2.489-2.489,10.9205-17.7654,10.9205-17.7654s-15.2764,8.4315-17.7654,10.9206
							C-559.3284-287.9709-559.9818-285.4508-557.4927-282.9618z"/>
					</g>
					<g transform="rotate(90)">
						<g id="r_00000182504311558855667360000017776636223807761839_">
							<path class="st2" d="M-557.4927-187.8192c-2.4579,2.5201-1.8357,5.0092,0.0311,6.8759
								c2.489,2.489,17.7654,10.9206,17.7654,10.9206s-8.4315-15.2763-10.9205-17.7654
								C-552.4836-189.6548-555.0037-190.3082-557.4927-187.8192z"/>
						</g>
					</g>
					<g transform="rotate(180)">
						<g id="r_00000153693995556072058080000006407977438747071119_">
							<path class="st2" d="M-652.6354-187.8192c-2.5201-2.4579-5.0092-1.8356-6.8759,0.0311
								c-2.489,2.489-10.9205,17.7654-10.9205,17.7654s15.2763-8.4315,17.7653-10.9206
								C-650.7997-182.81-650.1464-185.3301-652.6354-187.8192z"/>
						</g>
					</g>
					<g transform="rotate(270)">
						<g id="r_00000007408221028128344550000004197180736523056571_">
							<path class="st2" d="M-652.6354-282.9618c2.4579-2.5201,1.8356-5.0092-0.0311-6.8759
								c-2.489-2.489-17.7653-10.9206-17.7653-10.9206s8.4315,15.2763,10.9205,17.7654
								C-657.6445-281.1261-655.1244-280.4727-652.6354-282.9618z"/>
						</g>
					</g>
				</g>
			</g>
			<g transform="rotate(67.5)">
				<g id="r4_00000169532180723608262490000008757888825493877906_">
					<g id="r_00000020357054593132091150000009101580860100583317_">
						<path class="st2" d="M-542.9092-261.1359c1.3877,3.2352,3.9254,3.6128,6.3644,2.6025
							c3.2521-1.347,16.8878-12.2339,16.8878-12.2339s-17.3401,1.9437-20.5922,3.2908
							C-542.6882-266.4662-544.2562-264.3879-542.9092-261.1359z"/>
					</g>
					<g transform="rotate(90)">
						<g id="r_00000087379418294464709390000004282047228465228428_">
							<path class="st2" d="M-579.3187-173.2355c-3.2352,1.3877-3.6129,3.9254-2.6025,6.3644
								c1.347,3.2521,12.2339,16.8878,12.2339,16.8878s-1.9438-17.3401-3.2908-20.5922
								C-573.9883-173.0145-576.0666-174.5826-579.3187-173.2355z"/>
						</g>
					</g>
					<g transform="rotate(180)">
						<g id="r_00000175291590109610047530000003291150520145578156_">
							<path class="st2" d="M-667.219-209.6451c-1.3877-3.2352-3.9254-3.6128-6.3644-2.6026
								c-3.252,1.347-16.8878,12.2339-16.8878,12.2339s17.3401-1.9437,20.5922-3.2908
								C-667.44-204.3147-665.8719-206.393-667.219-209.6451z"/>
						</g>
					</g>
					<g transform="rotate(270)">
						<g id="r_00000170996170860511210880000002101590847513621406_">
							<path class="st2" d="M-630.8095-297.5454c3.2352-1.3877,3.6129-3.9254,2.6026-6.3644
								c-1.347-3.252-12.2339-16.8878-12.2339-16.8878s1.9437,17.3401,3.2908,20.5922
								C-636.1398-297.7664-634.0615-296.1983-630.8095-297.5454z"/>
						</g>
					</g>
				</g>
			</g>
		</g>
		<g transform="rotate(11.25)">
			<g id="r16_00000109023357270143174340000007225120827538685568_">
				<g id="r4_00000031897886379700670430000010436796401307940019_">
					<g id="r_00000116199050354426049220000013373815352569786544_">
						<path class="st2" d="M-591.9391-301.3738c3.4609,0.6436,5.1848-1.2566,5.6998-3.8459
							c0.6868-3.4524-0.7897-20.8385-0.7897-20.8385s-8.0175,15.4977-8.7042,18.95
							C-596.2484-304.5189-595.3915-302.0605-591.9391-301.3738z"/>
					</g>
					<g transform="rotate(90)">
						<g id="r_00000156577999374950077600000017949108239736069764_">
							<path class="st2" d="M-539.0807-222.2656c-0.6436,3.461,1.2567,5.1848,3.8459,5.6998
								c3.4524,0.6867,20.8385-0.7898,20.8385-0.7898s-15.4976-8.0175-18.95-8.7042
								C-535.9357-226.5748-538.394-225.7179-539.0807-222.2656z"/>
						</g>
					</g>
					<g transform="rotate(180)">
						<g id="r_00000021108507922610355320000013258343047237512358_">
							<path class="st2" d="M-618.189-169.4072c-3.4609-0.6436-5.1848,1.2566-5.6998,3.8459
								c-0.6867,3.4524,0.7898,20.8385,0.7898,20.8385s8.0175-15.4977,8.7042-18.95
								C-613.8798-166.262-614.7366-168.7204-618.189-169.4072z"/>
						</g>
					</g>
					<g transform="rotate(270)">
						<g id="r_00000133529044054577440940000017221412554450519486_">
							<path class="st2" d="M-671.0474-248.5154c0.6436-3.461-1.2567-5.1848-3.8459-5.6998
								c-3.4523-0.6867-20.8385,0.7898-20.8385,0.7898s15.4977,8.0175,18.95,8.7042
								C-674.1925-244.2061-671.7341-245.063-671.0474-248.5154z"/>
						</g>
					</g>
				</g>
				<g transform="rotate(22.5)">
					<g id="r4_00000031906757087945590800000015172111943438911144_">
						<g id="r_00000083066797728707355650000011944684588895368597_">
							<path class="st2" d="M-567.6876-291.3284c2.9512,1.919,5.2711,0.8232,6.7377-1.3719
								c1.9556-2.9268,7.2449-19.5545,7.2449-19.5545s-13.3379,11.2498-15.2935,14.1765
								C-570.4651-295.8832-570.6143-293.284-567.6876-291.3284z"/>
						</g>
						<g transform="rotate(90)">
							<g id="r_00000026154479899217674470000013533551785475219847_">
								<path class="st2" d="M-549.1261-198.0139c-1.9191,2.9512-0.8232,5.271,1.3719,6.7377
									c2.9268,1.9556,19.5545,7.2449,19.5545,7.2449s-11.2498-13.3379-14.1766-15.2935
									C-544.5714-200.7915-547.1705-200.9407-549.1261-198.0139z"/>
							</g>
						</g>
						<g transform="rotate(180)">
							<g id="r_00000178200715857750298340000006391317069071901568_">
								<path class="st2" d="M-642.4406-179.4525c-2.9512-1.919-5.271-0.8231-6.7377,1.3719
									c-1.9556,2.9268-7.2449,19.5545-7.2449,19.5545s13.3379-11.2498,15.2935-14.1766
									C-639.663-174.8977-639.5139-177.4969-642.4406-179.4525z"/>
							</g>
						</g>
						<g transform="rotate(270)">
							<g id="r_00000147924956888774478600000010198541277013133965_">
								<path class="st2" d="M-661.002-272.767c1.919-2.9512,0.8231-5.271-1.3719-6.7377
									c-2.9268-1.9556-19.5545-7.2449-19.5545-7.2449s11.2498,13.3379,14.1766,15.2935
									C-665.5568-269.9894-662.9576-269.8402-661.002-272.767z"/>
							</g>
						</g>
					</g>
				</g>
				<g transform="rotate(45)">
					<g id="r4_00000059310424664390965880000009524345660613433991_">
						<g id="r_00000145753201327012627180000015143453110510974651_">
							<path class="st2" d="M-549.1261-272.767c1.9922,2.9023,4.5547,2.7776,6.7498,1.3109
								c2.9268-1.9556,14.1766-15.2935,14.1766-15.2935s-16.6277,5.2893-19.5545,7.2449
								C-549.9493-278.038-551.0817-275.6938-549.1261-272.767z"/>
						</g>
						<g transform="rotate(90)">
							<g id="r_00000112598310537692041940000012230445818543675288_">
								<path class="st2" d="M-567.6876-179.4525c-2.9023,1.9922-2.7776,4.5548-1.3109,6.7499
									c1.9556,2.9268,15.2935,14.1766,15.2935,14.1766s-5.2892-16.6277-7.2449-19.5545
									C-562.4165-180.2757-564.7607-181.4081-567.6876-179.4525z"/>
							</g>
						</g>
						<g transform="rotate(180)">
							<g id="r_00000139277169932800442670000009764592359951091629_">
								<path class="st2" d="M-661.002-198.0139c-1.9922-2.9023-4.5548-2.7776-6.7499-1.3109
									c-2.9268,1.9556-14.1766,15.2935-14.1766,15.2935s16.6277-5.2893,19.5545-7.2449
									C-660.1789-192.7429-659.0464-195.0871-661.002-198.0139z"/>
							</g>
						</g>
						<g transform="rotate(270)">
							<g id="r_00000110429345534497812410000002647137477243872443_">
								<path class="st2" d="M-642.4406-291.3284c2.9023-1.9922,2.7776-4.5548,1.3109-6.7499
									c-1.9556-2.9268-15.2935-14.1765-15.2935-14.1765s5.2893,16.6277,7.2449,19.5545
									C-647.7116-290.5053-645.3674-289.3728-642.4406-291.3284z"/>
							</g>
						</g>
					</g>
				</g>
				<g transform="rotate(67.5)">
					<g id="r4_00000041260588086396913740000005106014081800833966_">
						<g id="r_00000140732819066176440190000006185477993037421710_">
							<path class="st2" d="M-539.0807-248.5154c0.7299,3.4438,3.1451,4.3092,5.7344,3.7942
								c3.4524-0.6867,18.95-8.7042,18.95-8.7042s-17.3861-1.4765-20.8385-0.7898
								C-537.8241-253.7001-539.7675-251.9677-539.0807-248.5154z"/>
						</g>
						<g transform="rotate(90)">
							<g id="r_00000070821004602663641720000007832326163893937567_">
								<path class="st2" d="M-591.9391-169.4072c-3.4438,0.7299-4.3093,3.1451-3.7942,5.7344
									c0.6867,3.4524,8.7042,18.95,8.7042,18.95s1.4765-17.3861,0.7897-20.8385
									C-586.7544-168.1505-588.4868-170.0939-591.9391-169.4072z"/>
							</g>
						</g>
						<g transform="rotate(180)">
							<g id="r_00000103255335915297012260000012030275287917687970_">
								<path class="st2" d="M-671.0474-222.2656c-0.7299-3.4438-3.1451-4.3092-5.7344-3.7942
									c-3.4523,0.6867-18.95,8.7042-18.95,8.7042s17.3862,1.4765,20.8385,0.7898
									C-672.304-217.0808-670.3607-218.8132-671.0474-222.2656z"/>
							</g>
						</g>
						<g transform="rotate(270)">
							<g id="r_00000031914910457653949210000015795357051061707961_">
								<path class="st2" d="M-618.189-301.3738c3.4438-0.7299,4.3092-3.1451,3.7942-5.7344
									c-0.6867-3.4524-8.7042-18.95-8.7042-18.95s-1.4765,17.3861-0.7898,20.8385
									C-623.3738-302.6304-621.6414-300.687-618.189-301.3738z"/>
							</g>
						</g>
					</g>
				</g>
			</g>
		</g>
	</g>
	<g id="bird">
		<g>
			<path class="st2" d="M464.8453,312.8549c-1.584,0.088-3.124,0.2933-4.6347,0.7773c-2.068,0.2787-4.048,0.9973-6.1013,1.3347
				l-0.8213,0.132l-1.3787,0.132c0.088,0.3813,0.1467,0.7627,0.1467,1.144c0,0.396-0.044,0.7773-0.1467,1.1
				c-0.088,0.308-0.3666,0.6893-0.5866,0.924c-0.2934,0.3227-0.6013,0.6013-0.968,0.7773c-0.352,0.176-0.748,0.2493-1.144,0.2787
				c-0.396,0.0146-0.8067,0-1.188-0.1467c-0.396-0.132-0.7626-0.3813-1.1-0.6747c-0.4107,0.1027-0.836,0.176-1.232,0.22
				c-0.4107,0.044-0.792,0.044-1.1587,0c-0.4107-0.1173-0.836-0.2493-1.232-0.4107s-0.7773-0.3667-1.144-0.6013
				c-1.496,0.88-3.168,1.716-4.0773,3.256c-0.5134,0.704-0.616,1.5107-0.7333,2.3467c-0.0733,1.0267,0.1907,2.112,0.6306,3.0653
				c0.1613,0.2787,0.2934-1.012,0.792-1.188c0.836-0.6893,1.8773-1.188,2.9333-1.4666c0.8947-0.4547,0.7773,0.0293,0.4107,0.7333
				c-0.088,0.3667-0.5867,1.76,0.088,1.056c2.9773-1.32,6.2773-1.584,9.4893-1.8333c4.664-0.484,9.3427-0.5867,14.0213-0.6454
				c4.4,0.0587,8.8,0.1173,13.2,0.2787c2.0973,0.0587,4.2093,0.528,6.2773,0.176c0.4987-0.132,1.276-0.1613,1.5693-0.4547
				c-0.9387-0.5426-2.0387-0.5573-3.08-0.6893h-8.3893c-2.332-0.2346-4.7667-0.264-6.9667-1.144
				c-0.5867-0.2347-1.1293-0.792-1.6866-0.1907c-0.836,0.2933-1.7307,0.4987-2.6107,0.5573c-1.54,0.1173-3.08-0.2054-4.5027-0.7773
				c1.0267-1.4227,2.2587-2.6693,3.388-3.9893c-0.9093-0.1467-1.7893-0.3373-2.6986-0.5573
				C461.8093,315.2748,463.2906,314.0282,464.8453,312.8549L464.8453,312.8549z"/>
		</g>
		<g>
			<path class="st2" d="M533.368,328.054c-3.1879,1.9141-5.621-1.4794-8.2856-2.4971c-1.903,1.0335-2.0807,4.4915-3.8591,6.1292
				c-2.1271,2.4208-4.7344-0.676-4.5399-3.0645c-2.5443,2.1446-3.8309,7.0057-7.9451,6.3562
				c-1.9496-1.5907-3.3977-4.9284-4.8866-1.128c-1.215,1.8577-4.4484,4.5008-6.123,1.6954c-0.5185-2.4766-1.7604-5.39-3.1079-1.4554
				c-0.9251,2.7829-3.8943,4.8304-6.7668,3.6119c-1.5724-1.2855,1.2606-6.0399-0.741-5.7015
				c-2.9919,1.9781-4.7313,6.8895-8.9064,6.4962c-1.6213-1.8198,0.9838-4.9034-0.7945-6.9234
				c-2.0993,2.6943-4.4277,6.6392-8.0586,6.9234c-1.7549-1.422,0.0691-5.5005-1.0513-6.1041
				c-3.7258,2.2344-7.6569,6.2163-12.342,4.9694c1.8259-6.9841,9.4556-9.4345,15.8717-9.9792
				c11.0392-1.3568,22.653,1.138,33.2746-2.8464c1.7162-1.0443,5.874-2.5252,4.3933-4.9474
				c-1.3114-1.9124,3.4113-1.1647,3.8657-3.3985c-0.2812-2.8293,2.1677-2.4399,4.5601-2.6875
				c10.7255-0.4627,21.3202,1.796,32.0135,2.18c0.8078,5.2105-4.9724,8.8691-9.6254,7.26c-2.2228,0.36-5.5558-5.1106-4.9025-1.1307
				c-0.4481,2.0888-0.1344,4.8475-2.043,6.2427 M442.112,317.3855c2.4831,2.2727,4.2242-0.4279,6.545-1.4148
				c7.7845-2.6774,14.5764-7.3564,21.2722-12.0313c4.0572-3.3574,7.5742-7.711,13.0227-8.8
				c10.6282-3.2133,21.9261-2.8236,32.5957-5.7891c8.1241-11.1237,21.923-15.0916,33.4822-21.4857
				c2.5956-0.8059,3.5983-2.9421,4.4272-5.3007c4.4123-6.9652,10.4232-13.1371,17.5318-17.3532
				c3.3634-1.8377,7.3762-2.8963,11.1839-2.0556c-0.2728,4.5351-2.8745,8.5545-6.0157,11.6908
				c2.5705-0.0566,4.7797-1.6804,7.3775-1.589c0.8903,4.6543-4.1364,7.0901-6.8104,9.988c1.4896,0.3465,7.1953,0.7781,4.0861,2.27
				c-3.9623,2.7498-8.4871,4.638-12.1449,7.8315c3.3746,0.6062,3.7592,1.3236,0.3276,2.5441
				c-1.8575,1.2592-5.43,1.6991-5.7754,4.1525c2.5493,1.5667-1.1741,3.1224-2.6105,3.632c-2.7462,0.6395-5.6311,1.8327-1.983,3.9191
				c-1.3801,2.0849-4.3408,2.5294-6.7566,2.3234c0.7331,2.3629,1.7941,5.0063-1.2724,6.0487
				c-6.8746,5.1968-14.9424,8.9769-23.5845,9.8415c10.7959,0.8301,21.9151-1.174,31.1401-7.0449
				c1.2179-1.44,7.6041-2.9874,4.032-4.1984c-1.6817-0.6998-5.287-1.477-5.5308-2.7591c4.9962-3.0826,11.2922-1.9861,16.6672-3.8174
				c0.1392-1.7402-4.0882-1.256-5.6646-1.6523c-3.7588-0.3079-3.5383-1.2673,0.086-1.6228c4.5857-1.214,9.7794-1.4532,13.637-4.4431
				c-3.1409-1.4549-7.091-0.1739-10.4421-1.362c5.6808-2.4859,12.3824-2.7354,17.4794-6.4698
				c2.3216-2.5832-2.9743-1.7757-4.5175-1.713c-3.1464,0.5477-4.6006-0.9583-1.0262-2.2655
				c6.1032-4.4999,13.8305-7.4232,18.1174-13.9467c1.0154-1.4602,2.3904-5.8603-0.8482-4.2775
				c-4.2596,1.4162-8.0071,6.2045-12.8603,4.7234c9.5625-7.4114,18.6617-15.8488,25.1974-26.1052
				c0.3377-2.9582-4.3055-3.2784-5.5141-0.9557c-6.1437,5.9198-11.704,12.9074-19.5699,16.6188
				c7.5333-7.271,13.7615-15.8805,19.1954-24.8037c1.1649-2.6541,4.2962-5.8458,2.5969-8.7925
				c-2.7392-2.2674-6.1657-0.1919-7.5891,2.5214c-4.7758,6.2344-8.4022,13.5115-14.5438,18.59
				c5.3763-10.2617,10.9432-21.1851,11.0787-33.0207c-0.0163-2.4368-0.5057-6.0254-3.8145-5.57
				c-2.6234,0.47-2.0004,4.3961-3.0818,6.3818c-2.3809,8.0859-3.4984,16.8428-8.382,23.9232
				c1.0987-6.571,3.0211-13.42,1.5452-20.0552c-0.6893-2.9654-5.478-1.6901-4.8611,1.2447
				c-5.7209,28.9784-25.1653,54.3224-50.5956,68.9832c-11.6442,6.5881-24.6501,10.8354-37.8822,12.7609
				c-3.5595,0.7796-7.4092,0.3221-10.8117,1.5359c-8.2438,6.3215-13.2347,16.8991-23.6729,20.2114
				c-4.678,2.3247-10.7782,2.7965-14.1231,7.1425c-0.2896,0.5558-0.3516,1.1997-0.3405,1.816"/>
		</g>
		<g>
			<path class="st2" d="M473.352,287.9875c-1.5403,2.7957-2.446,6.0095-4.4264,8.5127c-5.958-5.4212-14.5952-5.2422-22.1527-5.603
				c-6.2379-0.3329-13.0214-0.9084-17.8477-5.3575c-5.0771-4.1589-9.2215-9.5586-14.8949-12.9329
				c-5.1783-1.408-10.3985-3.1699-14.5618-6.7192c-8.8968-7.2521-13.992-18.0123-22.6855-25.4905
				c-1.6574-1.6314-3.6119-2.8957-5.4688-4.2798c-1.7642,0.4298-0.966,4.2377-3.125,2.2965
				c-1.1745-0.8358-4.1131-0.9171-4.3777,0.2505c2.6578,3.5024,5.3183,7.5016,5.6866,11.9812
				c-1.8127,0.1859-5.0358-0.3831-5.9343,0.2921c2.4075,3.6082,5.493,6.8081,8.9989,9.3557
				c-1.6815,0.2704-4.9953,0.1232-5.6399,0.8008c3.48,2.8363,7.212,5.735,11.7687,6.4636c0.9328,1.2297-1.3636,3.6036,0.5675,4.6534
				c1.1201,0.4576,4.8158,1.2232,2.2701,2.497c-1.747,1.1772-1.0987,3.9209,1.1351,3.8591
				c1.4124,0.7212,4.5839,0.8981,4.8321,2.1468c-1.2519,1.2741-5.1471,2.7847-1.832,3.978
				c3.0972,1.7178,6.6295,2.8329,10.1662,2.9554c-1.7748,1.4932-3.9618,2.3411-5.7887,3.7456
				c8.162,4.7859,17.2097,7.9332,26.1505,10.9644c3.56,1.1894,7.1606,2.2984,10.8509,2.9965
				c-10.7224-0.6189-21.0857-3.7933-30.851-8.1378c-5.0613-2.2199-10.157-4.3647-15.3441-6.2766
				c2.2744-1.1835,4.9051-1.4727,7.2639-2.4971c-4.8963-0.9808-10.2454-1.3026-14.5495-3.9938
				c0.6599-1.1773,3.1605-1.2329,4.5434-1.8322c2.601-0.623,4.2143-1.3789,0.5473-1.6049
				c-3.6985-1.0037-7.9398-0.5534-11.1989-2.7842c0.2098-1.3376,3.6204-0.8718,5.0098-1.4491
				c1.7491-0.3005,3.6942-0.5521,5.0921-1.7289c-5.7173-2.3707-13.1956-0.6911-17.6739-5.7402
				c-1.0329-1.9233,3.2069-0.374,4.4145-0.6944c3.0678,0,6.3655,0.975,9.2871-0.2621c-8.331-3.6574-17.2546-7.0818-23.6082-13.8472
				c-0.7057-1.0875-2.8191-4.059-1.1139-4.4264c4.9452,0.6542,8.5246,6.0513,13.8142,5.2114
				c0.7028-0.9471-3.0728-2.4996-4.0152-3.8536c-7.7123-6.6181-15.198-13.8002-20.603-22.469
				c-0.3718-2.8949,4.1787-3.3286,5.3768-1.0926c5.8982,5.6808,11.2262,12.3099,18.572,16.188
				c2.6069,1.2639-1.4965-1.496-2.0431-2.497c-6.7879-7.8822-13.2497-16.207-17.9938-25.4901
				c-0.8492-1.6732-2.2565-4.7018,0.2844-5.5924c2.5398-1.2724,5.0604,0.461,6.3483,2.6429
				c4.9904,6.2942,8.6627,13.7751,14.8795,19.019c-5.2963-10.278-10.9512-21.0971-11.088-32.9243
				c0.1242-2.2928,0.2716-5.7605,3.3806-5.6663c2.6106-0.3957,2.1983,2.9462,3.054,4.5399
				c2.5718,8.6887,3.6936,18.0932,8.8532,25.7646c-1.1398-6.4455-2.817-13.0834-1.7025-19.6359
				c0.257-2.1515,2.6789-2.8028,4.26-1.5021c1.278,3.1284,1.5447,6.9912,2.7093,10.336
				c6.6264,22.6684,21.505,42.6061,40.894,55.9856c15.9685,10.952,34.9193,17.4896,54.2608,18.63
				c1.7467,0.1523,3.5005,0.2048,5.2501,0.3122"/>
		</g>
		<g>
			<circle class="st2" cx="448.8" cy="316.9998" r="1.0415"/>
		</g>
		<g>
			<circle class="st2" cx="448.712" cy="316.8326" r="0.4246"/>
			<path class="st1" d="M448.7119,317.3409c-0.2802,0-0.5083-0.2281-0.5083-0.5083c0-0.2802,0.2282-0.5083,0.5083-0.5083
				s0.5083,0.2281,0.5083,0.5083C449.2202,317.1128,448.9921,317.3409,448.7119,317.3409z M448.7119,316.4919
				c-0.1878,0-0.3407,0.153-0.3407,0.3408s0.153,0.3407,0.3407,0.3407s0.3407-0.153,0.3407-0.3407
				S448.8997,316.4919,448.7119,316.4919z"/>
		</g>
	</g>
	<g id="ornament">
		<g id="oh">
			<g id="oq">
				<g>
					<path class="st2" d="M52.8,31.8952c0,0-4.2288-3.5535-5.6646-1.7711C44.8257,32.9909,54.237,47.27,54.237,52.2983
						c0,8.254-5.5075,10.4988-12.3081,11.6772c-4.5632,0.7912-11.994-0.3309-11.994-0.3309c1.399-1.8799,2.309-2.4339,4.6666-2.5842
						c-2.6245-1.3626-5.2972-4.3203-5.2972-8.925c0-7.1007,2.9231-10.0272,2.9231-18.0325c0-4.4409-3.6414-10.094-3.6414-10.094
						c6.4363,0.6442,9.6263,6.604,7.8113,11.367c1.0246,0.1476,1.9548-0.083,2.7538-0.8401
						c0.4711,1.3202-0.2726,2.8526-1.2687,4.1728c0.8023,0.4287,1.3915,0.1716,2.6691-0.0921
						c-0.1212,1.3603-0.9362,2.8054-2.9303,4.1655c5.7864-1.5023,9.3469,2.5307,9.3469,6.7527c0,3.1891-2.2348,5.4749-4.4194,5.4749
						c-0.7059,0-1.7429-0.2907-2.328-0.7274c-0.4124,0.8777-0.1999,2.0524,0.2249,2.9302
						c-1.6011-0.4232-2.6173-1.3741-1.8939-3.3533c-1.2297-0.113-2.208-0.5285-2.8734-1.3202
						c0.6742-0.8635,1.697-1.3608,2.8734-1.3202c-0.8954-1.8477,0.1025-2.8822,1.5564-3.7206c0,0-0.9247,3.7206,1.4368,3.7206
						c1.0619,0,2.0294-0.3457,2.0294-1.9105c0-1.3627-1.1913-3.2503-3.945-3.1302c-2.7538,0.12-4.9861,1.8987-4.9861,6.2946
						c0,4.0551,3.2707,6.072,7.5808,6.2022c3.8869,0.12,6.8204-1.9855,6.8204-5.995c0-5.3363-7.7035-17.5001-7.7035-22.2556
						c0-3.568,3.2086-5.5594,6.3479-5.5594c4.0708,0,7.5055,4.0309,7.5055,4.0309l-2.3915,2.9984L52.8,31.8952z"/>
				</g>
				<g id="op">
					<path class="st2" d="M53.6888,128.3512c0,8.9188-8.0071,13.5027-14.2991,13.5027c-8.477,0-12.9906-5.0684-12.9906-11.7031
						c0-3.7609,0.6891-6.1208,2.4233-9.7205c0,0,13.9832-29.08,19.4273-40.3273c0.6789-1.4028,0.898-2.9997,0.898-5.3407
						c0-3.6155-3.5068-6.5705-7.1839-6.6612c-3.3519-0.0838-7.0039,3.125-7.0039,6.7813c0,4.4409,2.3038,6.4209,4.6693,6.4209
						c2.9109,0,4.0708-1.1967,4.0708-3.2406c0-1.4241-0.6878-2.0403-1.6762-2.0403c-2.4967,0-1.7959,3.3605-1.7959,3.3605
						c-1.2401-0.2715-2.2587-1.5385-1.6762-3.1205c-0.9071-0.202-1.7569-0.6782-2.4245-1.4403
						c0.6693-0.6489,1.437-1.1498,2.4245-1.3202c-0.5847-1.9304,0.1966-2.8736,1.8857-3.2705
						c-0.3409,0.7425-0.3526,1.4256-0.2395,2.0704c2.6592-0.7562,6.7346,0.4472,6.7346,5.0406c0,4.5606-3.1651,8.4009-9.0996,7.4413
						c1.4118,0.675,2.1299,2.0562,2.2748,3.6006c-1.0776-0.4201-2.2748-0.4801-2.2748-0.4801
						c0.6939,1.2236,1.6576,2.2781,1.6163,4.6807c-1.1003-0.5002-2.122-1.4264-3.532-0.8401
						c2.2129,4.3546-0.5059,10.3448-7.4232,11.7621c2.5316-2.9675,3.7714-6.1719,3.7714-9.3619
						c0-10.3382-2.8734-12.0758-2.8734-19.2632c0-3.0071,1.5459-6.2546,4.6094-8.4616v0.12
						c-2.0249-0.5423-3.3221-1.5393-4.0677-2.8941c4.6266-1.3119,11.3516-1.2878,14.9626,0.1329
						c4.151,0.4807,7.0484,3.6656,7.902,5.2818c0.8539,1.6152,2.5122,7.4593,0,12.7213
						c-2.7494,5.7587-15.7128,33.246-19.7547,41.8871c-0.8573,1.8328-1.3769,3.7764-1.3769,5.881
						c0,5.2932,4.8488,7.1412,7.6028,7.1412c3.2925,0,6.6449-2.5083,6.6449-5.6408c0-1.9849-1.0776-3.1805-2.634-3.1805
						c-3.7218,0-3.4958,3.1661-2.7538,5.1608c-2.3163-1.0414-3.6627-2.9003-3.2925-4.8607
						c-1.3114-0.1796-2.5597-0.8017-3.7115-2.1003c0.9063-1.1444,2.0118-2.0095,3.7115-2.0403
						c-0.7424-3.0412,1.2939-4.3275,3.2925-5.0406c-0.6323,2.2321-1.0473,4.8008,2.7538,4.8008c2.7714,0,4.9535,0.4801,6.226,2.2804
						c0.0748-2.4003,0.2993-11.8822,0.2993-11.8822c0.1596-3.563-4.7692-3.4611-7.902-2.4004
						c1.1823-4.1041,3.6071-6.3232,9.2189-5.7609c-1.3619-0.5701-2.8136-1.8517-2.8136-4.3207
						c0.0009-3.3409,2.7113-7.0422,4.4906-8.1365l0.8897,34.7824L53.6888,128.3512z"/>
				</g>
				<g transform="matrix(1,0,0,-1,0,645.08)">
					<g id="op_00000173855485037813682510000004183471835483186820_">
						<path class="st2" d="M53.6888,155.1031c0-8.9188-8.0071-13.5027-14.2991-13.5027c-8.477,0-12.9906,5.0684-12.9906,11.7031
							c0,3.7609,0.6891,6.1208,2.4233,9.7205c0,0,13.9832,29.08,19.4273,40.3273c0.6789,1.4028,0.898,2.9997,0.898,5.3407
							c0,3.6155-3.5068,6.5705-7.1839,6.6612c-3.3519,0.0838-7.0039-3.125-7.0039-6.7813c0-4.4409,2.3038-6.4209,4.6693-6.4209
							c2.9109,0,4.0708,1.1967,4.0708,3.2406c0,1.4241-0.6878,2.0403-1.6762,2.0403c-2.4967,0-1.7959-3.3605-1.7959-3.3605
							c-1.2401,0.2715-2.2587,1.5385-1.6762,3.1205c-0.9071,0.202-1.7569,0.6782-2.4245,1.4402
							c0.6693,0.6489,1.437,1.1498,2.4245,1.3202c-0.5847,1.9304,0.1966,2.8736,1.8857,3.2705
							c-0.3409-0.7425-0.3526-1.4256-0.2395-2.0704c2.6592,0.7562,6.7346-0.4472,6.7346-5.0406
							c0-4.5606-3.1651-8.4009-9.0996-7.4413c1.4118-0.675,2.1299-2.0562,2.2748-3.6006c-1.0776,0.4201-2.2748,0.4801-2.2748,0.4801
							c0.6939-1.2236,1.6576-2.2781,1.6163-4.6807c-1.1003,0.5002-2.122,1.4264-3.532,0.8401
							c2.2129-4.3546-0.5059-10.3448-7.4232-11.7621c2.5316,2.9675,3.7714,6.1719,3.7714,9.3619
							c0,10.3382-2.8734,12.0758-2.8734,19.2632c0,3.0071,1.5459,6.2546,4.6094,8.4616v-0.12
							c-2.0249,0.5423-3.3221,1.5394-4.0677,2.8941c4.6266,1.3119,11.3516,1.2878,14.9626-0.1329
							c4.151-0.4807,7.0484-3.6655,7.902-5.2818c0.8539-1.6152,2.5122-7.4593,0-12.7213
							c-2.7494-5.7587-15.7128-33.246-19.7547-41.8871c-0.8573-1.8328-1.3769-3.7764-1.3769-5.881
							c0-5.2932,4.8488-7.1412,7.6028-7.1412c3.2925,0,6.6449,2.5083,6.6449,5.6408c0,1.9849-1.0776,3.1805-2.634,3.1805
							c-3.7218,0-3.4958-3.1661-2.7538-5.1608c-2.3163,1.0414-3.6627,2.9004-3.2925,4.8607
							c-1.3114,0.1796-2.5597,0.8017-3.7115,2.1003c0.9063,1.1444,2.0118,2.0095,3.7115,2.0403
							c-0.7424,3.0412,1.2939,4.3275,3.2925,5.0406c-0.6323-2.2321-1.0473-4.8008,2.7538-4.8008
							c2.7714,0,4.9535-0.4801,6.226-2.2804c0.0748,2.4003,0.2993,11.8822,0.2993,11.8822c0.1596,3.563-4.7692,3.4611-7.902,2.4004
							c1.1823,4.1041,3.6071,6.3232,9.2189,5.7609c-1.3619,0.5701-2.8136,1.8517-2.8136,4.3207
							c0.0009,3.3409,2.7113,7.0422,4.4906,8.1365l0.8897-34.7824L53.6888,155.1031z"/>
					</g>
				</g>
			</g>
			<g transform="matrix(-1,0,0,1,240,0)">
				<g id="oq_00000134947396852354064460000007065790822305731508_">
					<g>
						<path class="st2" d="M52.8,31.8952c0,0,4.2288-3.5535,5.6646-1.7711c2.3097,2.8668-7.1016,17.1459-7.1016,22.1742
							c0,8.254,5.5075,10.4988,12.3081,11.6772c4.5632,0.7912,11.994-0.3309,11.994-0.3309
							c-1.399-1.8799-2.309-2.4339-4.6666-2.5842c2.6245-1.3626,5.2972-4.3203,5.2972-8.925c0-7.1007-2.9231-10.0272-2.9231-18.0325
							c0-4.4409,3.6414-10.094,3.6414-10.094c-6.4363,0.6442-9.6263,6.604-7.8113,11.367c-1.0246,0.1476-1.9548-0.083-2.7538-0.8401
							c-0.4711,1.3202,0.2726,2.8526,1.2687,4.1728c-0.8023,0.4287-1.3915,0.1716-2.6691-0.0921
							c0.1212,1.3603,0.9362,2.8054,2.9303,4.1655c-5.7864-1.5023-9.3469,2.5307-9.3469,6.7527
							c0,3.1891,2.2348,5.4749,4.4194,5.4749c0.7059,0,1.7429-0.2907,2.3279-0.7274c0.4124,0.8777,0.1999,2.0524-0.2249,2.9302
							c1.6011-0.4232,2.6173-1.3741,1.8939-3.3533c1.2297-0.113,2.208-0.5285,2.8734-1.3202
							c-0.6742-0.8635-1.697-1.3608-2.8734-1.3202c0.8954-1.8477-0.1024-2.8822-1.5564-3.7206c0,0,0.9247,3.7206-1.4368,3.7206
							c-1.0618,0-2.0294-0.3457-2.0294-1.9105c0-1.3627,1.1913-3.2503,3.945-3.1302c2.7538,0.12,4.9861,1.8987,4.9861,6.2946
							c0,4.0551-3.2707,6.072-7.5808,6.2022c-3.8869,0.12-6.8204-1.9855-6.8204-5.995c0-5.3363,7.7035-17.5001,7.7035-22.2556
							c0-3.568-3.2086-5.5594-6.3479-5.5594c-4.0708,0-7.5055,4.0309-7.5055,4.0309l2.3915,2.9984L52.8,31.8952z"/>
					</g>
					<g id="op_00000148647113052299931430000009989707283135789226_">
						<path class="st2" d="M51.9112,128.3512c0,8.9188,8.0071,13.5027,14.2991,13.5027c8.477,0,12.9906-5.0684,12.9906-11.7031
							c0-3.7609-0.6891-6.1208-2.4233-9.7205c0,0-13.9832-29.08-19.4273-40.3273c-0.6789-1.4028-0.898-2.9997-0.898-5.3407
							c0-3.6155,3.5068-6.5705,7.1839-6.6612c3.3519-0.0838,7.0039,3.125,7.0039,6.7813c0,4.4409-2.3037,6.4209-4.6693,6.4209
							c-2.9109,0-4.0708-1.1967-4.0708-3.2406c0-1.4241,0.6878-2.0403,1.6762-2.0403c2.4967,0,1.796,3.3605,1.796,3.3605
							c1.2401-0.2715,2.2587-1.5385,1.6762-3.1205c0.9072-0.202,1.7569-0.6782,2.4245-1.4403
							c-0.6693-0.6489-1.437-1.1498-2.4245-1.3202c0.5847-1.9304-0.1966-2.8736-1.8857-3.2705
							c0.3409,0.7425,0.3526,1.4256,0.2394,2.0704c-2.6592-0.7562-6.7346,0.4472-6.7346,5.0406
							c0,4.5606,3.1651,8.4009,9.0996,7.4413c-1.4118,0.675-2.1299,2.0562-2.2748,3.6006c1.0776-0.4201,2.2748-0.4801,2.2748-0.4801
							c-0.6939,1.2236-1.6576,2.2781-1.6163,4.6807c1.1003-0.5002,2.122-1.4264,3.532-0.8401
							c-2.2129,4.3546,0.5059,10.3448,7.4232,11.7621c-2.5316-2.9675-3.7714-6.1719-3.7714-9.3619
							c0-10.3382,2.8734-12.0758,2.8734-19.2632c0-3.0071-1.5459-6.2546-4.6094-8.4616v0.12
							c2.0249-0.5423,3.3221-1.5393,4.0677-2.8941c-4.6266-1.3119-11.3516-1.2878-14.9626,0.1329
							c-4.151,0.4807-7.0484,3.6656-7.902,5.2818c-0.8539,1.6152-2.5122,7.4593,0,12.7213
							c2.7494,5.7587,15.7128,33.246,19.7547,41.8871c0.8573,1.8328,1.3769,3.7764,1.3769,5.881
							c0,5.2932-4.8488,7.1412-7.6028,7.1412c-3.2925,0-6.6449-2.5083-6.6449-5.6408c0-1.9849,1.0776-3.1805,2.634-3.1805
							c3.7218,0,3.4958,3.1661,2.7538,5.1608c2.3163-1.0414,3.6627-2.9003,3.2925-4.8607c1.3114-0.1796,2.5597-0.8017,3.7115-2.1003
							c-0.9063-1.1444-2.0118-2.0095-3.7115-2.0403c0.7424-3.0412-1.2939-4.3275-3.2925-5.0406
							c0.6323,2.2321,1.0473,4.8008-2.7538,4.8008c-2.7714,0-4.9535,0.4801-6.226,2.2804
							c-0.0748-2.4003-0.2993-11.8822-0.2993-11.8822c-0.1596-3.563,4.7692-3.4611,7.902-2.4004
							c-1.1823-4.1041-3.6071-6.3232-9.2189-5.7609c1.3619-0.5701,2.8136-1.8517,2.8136-4.3207
							c-0.0009-3.3409-2.7113-7.0422-4.4906-8.1365l-0.8897,34.7824L51.9112,128.3512z"/>
					</g>
					<g transform="matrix(1,0,0,-1,0,645.08)">
						<g id="op_00000042695197870956100660000015038168701518101895_">
							<path class="st2" d="M51.9112,155.1031c0-8.9188,8.0071-13.5027,14.2991-13.5027c8.477,0,12.9906,5.0684,12.9906,11.7031
								c0,3.7609-0.6891,6.1208-2.4233,9.7205c0,0-13.9832,29.08-19.4273,40.3273c-0.6789,1.4028-0.898,2.9997-0.898,5.3407
								c0,3.6155,3.5068,6.5705,7.1839,6.6612c3.3519,0.0838,7.0039-3.125,7.0039-6.7813c0-4.4409-2.3037-6.4209-4.6693-6.4209
								c-2.9109,0-4.0708,1.1967-4.0708,3.2406c0,1.4241,0.6878,2.0403,1.6762,2.0403c2.4967,0,1.796-3.3605,1.796-3.3605
								c1.2401,0.2715,2.2587,1.5385,1.6762,3.1205c0.9072,0.202,1.7569,0.6782,2.4245,1.4402
								c-0.6693,0.6489-1.437,1.1498-2.4245,1.3202c0.5847,1.9304-0.1966,2.8736-1.8857,3.2705
								c0.3409-0.7425,0.3526-1.4256,0.2394-2.0704c-2.6592,0.7562-6.7346-0.4472-6.7346-5.0406
								c0-4.5606,3.1651-8.4009,9.0996-7.4413c-1.4118-0.675-2.1299-2.0562-2.2748-3.6006
								c1.0776,0.4201,2.2748,0.4801,2.2748,0.4801c-0.6939-1.2236-1.6576-2.2781-1.6163-4.6807
								c1.1003,0.5002,2.122,1.4264,3.532,0.8401c-2.2129-4.3546,0.5059-10.3448,7.4232-11.7621
								c-2.5316,2.9675-3.7714,6.1719-3.7714,9.3619c0,10.3382,2.8734,12.0758,2.8734,19.2632c0,3.0071-1.5459,6.2546-4.6094,8.4616
								v-0.12c2.0249,0.5423,3.3221,1.5394,4.0677,2.8941c-4.6266,1.3119-11.3516,1.2878-14.9626-0.1329
								c-4.151-0.4807-7.0484-3.6655-7.902-5.2818c-0.8539-1.6152-2.5122-7.4593,0-12.7213
								c2.7494-5.7587,15.7128-33.246,19.7547-41.8871c0.8573-1.8328,1.3769-3.7764,1.3769-5.881
								c0-5.2932-4.8488-7.1412-7.6028-7.1412c-3.2925,0-6.6449,2.5083-6.6449,5.6408c0,1.9849,1.0776,3.1805,2.634,3.1805
								c3.7218,0,3.4958-3.1661,2.7538-5.1608c2.3163,1.0414,3.6627,2.9004,3.2925,4.8607
								c1.3114,0.1796,2.5597,0.8017,3.7115,2.1003c-0.9063,1.1444-2.0118,2.0095-3.7115,2.0403
								c0.7424,3.0412-1.2939,4.3275-3.2925,5.0406c0.6323-2.2321,1.0473-4.8008-2.7538-4.8008
								c-2.7714,0-4.9535-0.4801-6.226-2.2804c-0.0748,2.4003-0.2993,11.8822-0.2993,11.8822
								c-0.1596,3.563,4.7692,3.4611,7.902,2.4004c-1.1823,4.1041-3.6071,6.3232-9.2189,5.7609
								c1.3619,0.5701,2.8136,1.8517,2.8136,4.3207c-0.0009,3.3409-2.7113,7.0422-4.4906,8.1365l-0.8897-34.7824L51.9112,155.1031z"
								/>
						</g>
					</g>
				</g>
			</g>
		</g>
		<g transform="matrix(1,0,0,-1,0,1000)">
			<g id="oh_00000085967874714301702420000013704770752010307757_">
				<g id="oq_00000013183625357778589920000011743810405203829165_">
					<g>
						<path class="st2" d="M52.8,407.7238c0,0-4.2288,3.5536-5.6646,1.7711c-2.3097-2.8668,7.1016-17.1459,7.1016-22.1743
							c0-8.2539-5.5075-10.4988-12.3081-11.6772c-4.5632-0.7912-11.994,0.3309-11.994,0.3309
							c1.399,1.8799,2.309,2.4339,4.6666,2.5841c-2.6245,1.3626-5.2972,4.3203-5.2972,8.925c0,7.1007,2.9231,10.0272,2.9231,18.0325
							c0,4.4409-3.6414,10.0941-3.6414,10.0941c6.4363-0.6442,9.6263-6.604,7.8113-11.367c1.0246-0.1476,1.9548,0.083,2.7538,0.8401
							c0.4711-1.3202-0.2726-2.8526-1.2687-4.1729c0.8023-0.4287,1.3915-0.1716,2.6691,0.0922
							c-0.1212-1.3603-0.9362-2.8054-2.9303-4.1655c5.7864,1.5023,9.3469-2.5308,9.3469-6.7527
							c0-3.1891-2.2348-5.4749-4.4194-5.4749c-0.7059,0-1.7429,0.2907-2.328,0.7274c-0.4124-0.8777-0.1999-2.0524,0.2249-2.9302
							c-1.6011,0.4232-2.6173,1.3741-1.8939,3.3533c-1.2297,0.1129-2.208,0.5285-2.8734,1.3202
							c0.6742,0.8634,1.697,1.3608,2.8734,1.3202c-0.8954,1.8477,0.1025,2.8822,1.5564,3.7206c0,0-0.9247-3.7206,1.4368-3.7206
							c1.0619,0,2.0294,0.3456,2.0294,1.9105c0,1.3627-1.1913,3.2503-3.945,3.1302c-2.7538-0.12-4.9861-1.8987-4.9861-6.2946
							c0-4.0551,3.2707-6.072,7.5808-6.2022c3.8869-0.12,6.8204,1.9855,6.8204,5.995c0,5.3363-7.7035,17.5001-7.7035,22.2556
							c0,3.568,3.2086,5.5594,6.3479,5.5594c4.0708,0,7.5055-4.0309,7.5055-4.0309l-2.3915-2.9984L52.8,407.7238z"/>
					</g>
					<g id="op_00000111167640060369023550000001524182763439628729_">
						<path class="st2" d="M53.6888,311.2679c0-8.9188-8.0071-13.5027-14.2991-13.5027c-8.477,0-12.9906,5.0684-12.9906,11.7031
							c0,3.7609,0.6891,6.1208,2.4233,9.7205c0,0,13.9832,29.08,19.4273,40.3273c0.6789,1.4028,0.898,2.9997,0.898,5.3407
							c0,3.6155-3.5068,6.5705-7.1839,6.6611c-3.3519,0.0838-7.0039-3.125-7.0039-6.7813c0-4.4409,2.3038-6.4209,4.6693-6.4209
							c2.9109,0,4.0708,1.1967,4.0708,3.2405c0,1.4241-0.6878,2.0403-1.6762,2.0403c-2.4967,0-1.7959-3.3605-1.7959-3.3605
							c-1.2401,0.2715-2.2587,1.5385-1.6762,3.1205c-0.9071,0.202-1.7569,0.6782-2.4245,1.4403
							c0.6693,0.6489,1.437,1.1498,2.4245,1.3202c-0.5847,1.9304,0.1966,2.8735,1.8857,3.2705
							c-0.3409-0.7426-0.3526-1.4256-0.2395-2.0704c2.6592,0.7562,6.7346-0.4472,6.7346-5.0406
							c0-4.5606-3.1651-8.4009-9.0996-7.4413c1.4118-0.675,2.1299-2.0562,2.2748-3.6006c-1.0776,0.4201-2.2748,0.4801-2.2748,0.4801
							c0.6939-1.2235,1.6576-2.2781,1.6163-4.6807c-1.1003,0.5002-2.122,1.4265-3.532,0.8401
							c2.2129-4.3546-0.5059-10.3448-7.4232-11.7621c2.5316,2.9675,3.7714,6.1719,3.7714,9.3619
							c0,10.3383-2.8734,12.0758-2.8734,19.2632c0,3.0071,1.5459,6.2546,4.6094,8.4616v-0.12
							c-2.0249,0.5423-3.3221,1.5393-4.0677,2.8941c4.6266,1.3119,11.3516,1.2878,14.9626-0.1329
							c4.151-0.4807,7.0484-3.6655,7.902-5.2817c0.8539-1.6152,2.5122-7.4593,0-12.7213
							c-2.7494-5.7587-15.7128-33.246-19.7547-41.8871c-0.8573-1.8328-1.3769-3.7764-1.3769-5.881
							c0-5.2932,4.8488-7.1412,7.6028-7.1412c3.2925,0,6.6449,2.5084,6.6449,5.6408c0,1.9849-1.0776,3.1805-2.634,3.1805
							c-3.7218,0-3.4958-3.1661-2.7538-5.1607c-2.3163,1.0413-3.6627,2.9003-3.2925,4.8607
							c-1.3114,0.1796-2.5597,0.8017-3.7115,2.1003c0.9063,1.1444,2.0118,2.0095,3.7115,2.0403
							c-0.7424,3.0412,1.2939,4.3275,3.2925,5.0406c-0.6323-2.2321-1.0473-4.8008,2.7538-4.8008
							c2.7714,0,4.9535-0.4801,6.226-2.2804c0.0748,2.4003,0.2993,11.8822,0.2993,11.8822c0.1596,3.563-4.7692,3.4612-7.902,2.4004
							c1.1823,4.1042,3.6071,6.3232,9.2189,5.7609c-1.3619,0.5701-2.8136,1.8517-2.8136,4.3207
							c0.0009,3.3409,2.7113,7.0422,4.4906,8.1365l0.8897-34.7824L53.6888,311.2679z"/>
					</g>
					<g transform="matrix(1,0,0,-1,0,645.08)">
						<g id="op_00000174598583706120177160000007531110952753716640_">
							<path class="st2" d="M53.6888,284.5159c0,8.9188-8.0071,13.5027-14.2991,13.5027c-8.477,0-12.9906-5.0684-12.9906-11.7031
								c0-3.7609,0.6891-6.1208,2.4233-9.7205c0,0,13.9832-29.08,19.4273-40.3273c0.6789-1.4028,0.898-2.9997,0.898-5.3407
								c0-3.6155-3.5068-6.5705-7.1839-6.6612c-3.3519-0.0838-7.0039,3.125-7.0039,6.7813c0,4.4409,2.3038,6.4209,4.6693,6.4209
								c2.9109,0,4.0708-1.1967,4.0708-3.2406c0-1.4241-0.6878-2.0403-1.6762-2.0403c-2.4967,0-1.7959,3.3605-1.7959,3.3605
								c-1.2401-0.2715-2.2587-1.5385-1.6762-3.1205c-0.9071-0.202-1.7569-0.6782-2.4245-1.4402
								c0.6693-0.6489,1.437-1.1498,2.4245-1.3202c-0.5847-1.9304,0.1966-2.8736,1.8857-3.2705
								c-0.3409,0.7425-0.3526,1.4256-0.2395,2.0704c2.6592-0.7562,6.7346,0.4472,6.7346,5.0406
								c0,4.5606-3.1651,8.4009-9.0996,7.4413c1.4118,0.675,2.1299,2.0562,2.2748,3.6006
								c-1.0776-0.4201-2.2748-0.4801-2.2748-0.4801c0.6939,1.2236,1.6576,2.2781,1.6163,4.6807
								c-1.1003-0.5002-2.122-1.4264-3.532-0.8401c2.2129,4.3546-0.5059,10.3448-7.4232,11.7621
								c2.5316-2.9675,3.7714-6.1719,3.7714-9.3619c0-10.3382-2.8734-12.0758-2.8734-19.2632c0-3.0071,1.5459-6.2546,4.6094-8.4616
								v0.12c-2.0249-0.5423-3.3221-1.5394-4.0677-2.8941c4.6266-1.3119,11.3516-1.2878,14.9626,0.1329
								c4.151,0.4807,7.0484,3.6655,7.902,5.2818c0.8539,1.6152,2.5122,7.4593,0,12.7213
								c-2.7494,5.7587-15.7128,33.246-19.7547,41.8871c-0.8573,1.8328-1.3769,3.7764-1.3769,5.881
								c0,5.2932,4.8488,7.1412,7.6028,7.1412c3.2925,0,6.6449-2.5084,6.6449-5.6408c0-1.9849-1.0776-3.1805-2.634-3.1805
								c-3.7218,0-3.4958,3.1661-2.7538,5.1607c-2.3163-1.0414-3.6627-2.9003-3.2925-4.8607
								c-1.3114-0.1796-2.5597-0.8017-3.7115-2.1003c0.9063-1.1444,2.0118-2.0095,3.7115-2.0403
								c-0.7424-3.0412,1.2939-4.3275,3.2925-5.0406c-0.6323,2.2321-1.0473,4.8008,2.7538,4.8008
								c2.7714,0,4.9535,0.4801,6.226,2.2804c0.0748-2.4003,0.2993-11.8822,0.2993-11.8822c0.1596-3.563-4.7692-3.4612-7.902-2.4004
								c1.1823-4.1042,3.6071-6.3232,9.2189-5.7609c-1.3619-0.5701-2.8136-1.8517-2.8136-4.3207
								c0.0009-3.3409,2.7113-7.0422,4.4906-8.1365l0.8897,34.7824L53.6888,284.5159z"/>
						</g>
					</g>
				</g>
				<g transform="matrix(-1,0,0,1,240,0)">
					<g id="oq_00000119807763566968915360000011238779253337540247_">
						<g>
							<path class="st2" d="M52.8,407.7238c0,0,4.2288,3.5536,5.6646,1.7711c2.3097-2.8668-7.1016-17.1459-7.1016-22.1743
								c0-8.2539,5.5075-10.4988,12.3081-11.6772c4.5632-0.7912,11.994,0.3309,11.994,0.3309
								c-1.399,1.8799-2.309,2.4339-4.6666,2.5841c2.6245,1.3626,5.2972,4.3203,5.2972,8.925
								c0,7.1007-2.9231,10.0272-2.9231,18.0325c0,4.4409,3.6414,10.0941,3.6414,10.0941c-6.4363-0.6442-9.6263-6.604-7.8113-11.367
								c-1.0246-0.1476-1.9548,0.083-2.7538,0.8401c-0.4711-1.3202,0.2726-2.8526,1.2687-4.1729
								c-0.8023-0.4287-1.3915-0.1716-2.6691,0.0922c0.1212-1.3603,0.9362-2.8054,2.9303-4.1655
								c-5.7864,1.5023-9.3469-2.5308-9.3469-6.7527c0-3.1891,2.2348-5.4749,4.4194-5.4749c0.7059,0,1.7429,0.2907,2.3279,0.7274
								c0.4124-0.8777,0.1999-2.0524-0.2249-2.9302c1.6011,0.4232,2.6173,1.3741,1.8939,3.3533
								c1.2297,0.1129,2.208,0.5285,2.8734,1.3202c-0.6742,0.8634-1.697,1.3608-2.8734,1.3202
								c0.8954,1.8477-0.1024,2.8822-1.5564,3.7206c0,0,0.9247-3.7206-1.4368-3.7206c-1.0618,0-2.0294,0.3456-2.0294,1.9105
								c0,1.3627,1.1913,3.2503,3.945,3.1302c2.7538-0.12,4.9861-1.8987,4.9861-6.2946c0-4.0551-3.2707-6.072-7.5808-6.2022
								c-3.8869-0.12-6.8204,1.9855-6.8204,5.995c0,5.3363,7.7035,17.5001,7.7035,22.2556c0,3.568-3.2086,5.5594-6.3479,5.5594
								c-4.0708,0-7.5055-4.0309-7.5055-4.0309l2.3915-2.9984L52.8,407.7238z"/>
						</g>
						<g id="op_00000180344695331889187730000013622000481942630534_">
							<path class="st2" d="M51.9112,311.2679c0-8.9188,8.0071-13.5027,14.2991-13.5027c8.477,0,12.9906,5.0684,12.9906,11.7031
								c0,3.7609-0.6891,6.1208-2.4233,9.7205c0,0-13.9832,29.08-19.4273,40.3273c-0.6789,1.4028-0.898,2.9997-0.898,5.3407
								c0,3.6155,3.5068,6.5705,7.1839,6.6611c3.3519,0.0838,7.0039-3.125,7.0039-6.7813c0-4.4409-2.3037-6.4209-4.6693-6.4209
								c-2.9109,0-4.0708,1.1967-4.0708,3.2405c0,1.4241,0.6878,2.0403,1.6762,2.0403c2.4967,0,1.796-3.3605,1.796-3.3605
								c1.2401,0.2715,2.2587,1.5385,1.6762,3.1205c0.9072,0.202,1.7569,0.6782,2.4245,1.4403
								c-0.6693,0.6489-1.437,1.1498-2.4245,1.3202c0.5847,1.9304-0.1966,2.8735-1.8857,3.2705
								c0.3409-0.7426,0.3526-1.4256,0.2394-2.0704c-2.6592,0.7562-6.7346-0.4472-6.7346-5.0406
								c0-4.5606,3.1651-8.4009,9.0996-7.4413c-1.4118-0.675-2.1299-2.0562-2.2748-3.6006
								c1.0776,0.4201,2.2748,0.4801,2.2748,0.4801c-0.6939-1.2235-1.6576-2.2781-1.6163-4.6807
								c1.1003,0.5002,2.122,1.4265,3.532,0.8401c-2.2129-4.3546,0.5059-10.3448,7.4232-11.7621
								c-2.5316,2.9675-3.7714,6.1719-3.7714,9.3619c0,10.3383,2.8734,12.0758,2.8734,19.2632c0,3.0071-1.5459,6.2546-4.6094,8.4616
								v-0.12c2.0249,0.5423,3.3221,1.5393,4.0677,2.8941c-4.6266,1.3119-11.3516,1.2878-14.9626-0.1329
								c-4.151-0.4807-7.0484-3.6655-7.902-5.2817c-0.8539-1.6152-2.5122-7.4593,0-12.7213
								c2.7494-5.7587,15.7128-33.246,19.7547-41.8871c0.8573-1.8328,1.3769-3.7764,1.3769-5.881
								c0-5.2932-4.8488-7.1412-7.6028-7.1412c-3.2925,0-6.6449,2.5084-6.6449,5.6408c0,1.9849,1.0776,3.1805,2.634,3.1805
								c3.7218,0,3.4958-3.1661,2.7538-5.1607c2.3163,1.0413,3.6627,2.9003,3.2925,4.8607
								c1.3114,0.1796,2.5597,0.8017,3.7115,2.1003c-0.9063,1.1444-2.0118,2.0095-3.7115,2.0403
								c0.7424,3.0412-1.2939,4.3275-3.2925,5.0406c0.6323-2.2321,1.0473-4.8008-2.7538-4.8008
								c-2.7714,0-4.9535-0.4801-6.226-2.2804c-0.0748,2.4003-0.2993,11.8822-0.2993,11.8822
								c-0.1596,3.563,4.7692,3.4612,7.902,2.4004c-1.1823,4.1042-3.6071,6.3232-9.2189,5.7609
								c1.3619,0.5701,2.8136,1.8517,2.8136,4.3207c-0.0009,3.3409-2.7113,7.0422-4.4906,8.1365l-0.8897-34.7824L51.9112,311.2679z"
								/>
						</g>
						<g transform="matrix(1,0,0,-1,0,645.08)">
							<g id="op_00000138545529818549367920000013922876860730120638_">
								<path class="st2" d="M51.9112,284.5159c0,8.9188,8.0071,13.5027,14.2991,13.5027c8.477,0,12.9906-5.0684,12.9906-11.7031
									c0-3.7609-0.6891-6.1208-2.4233-9.7205c0,0-13.9832-29.08-19.4273-40.3273c-0.6789-1.4028-0.898-2.9997-0.898-5.3407
									c0-3.6155,3.5068-6.5705,7.1839-6.6612c3.3519-0.0838,7.0039,3.125,7.0039,6.7813c0,4.4409-2.3037,6.4209-4.6693,6.4209
									c-2.9109,0-4.0708-1.1967-4.0708-3.2406c0-1.4241,0.6878-2.0403,1.6762-2.0403c2.4967,0,1.796,3.3605,1.796,3.3605
									c1.2401-0.2715,2.2587-1.5385,1.6762-3.1205c0.9072-0.202,1.7569-0.6782,2.4245-1.4402
									c-0.6693-0.6489-1.437-1.1498-2.4245-1.3202c0.5847-1.9304-0.1966-2.8736-1.8857-3.2705
									c0.3409,0.7425,0.3526,1.4256,0.2394,2.0704c-2.6592-0.7562-6.7346,0.4472-6.7346,5.0406
									c0,4.5606,3.1651,8.4009,9.0996,7.4413c-1.4118,0.675-2.1299,2.0562-2.2748,3.6006
									c1.0776-0.4201,2.2748-0.4801,2.2748-0.4801c-0.6939,1.2236-1.6576,2.2781-1.6163,4.6807
									c1.1003-0.5002,2.122-1.4264,3.532-0.8401c-2.2129,4.3546,0.5059,10.3448,7.4232,11.7621
									c-2.5316-2.9675-3.7714-6.1719-3.7714-9.3619c0-10.3382,2.8734-12.0758,2.8734-19.2632
									c0-3.0071-1.5459-6.2546-4.6094-8.4616v0.12c2.0249-0.5423,3.3221-1.5394,4.0677-2.8941
									c-4.6266-1.3119-11.3516-1.2878-14.9626,0.1329c-4.151,0.4807-7.0484,3.6655-7.902,5.2818
									c-0.8539,1.6152-2.5122,7.4593,0,12.7213c2.7494,5.7587,15.7128,33.246,19.7547,41.8871
									c0.8573,1.8328,1.3769,3.7764,1.3769,5.881c0,5.2932-4.8488,7.1412-7.6028,7.1412c-3.2925,0-6.6449-2.5084-6.6449-5.6408
									c0-1.9849,1.0776-3.1805,2.634-3.1805c3.7218,0,3.4958,3.1661,2.7538,5.1607c2.3163-1.0414,3.6627-2.9003,3.2925-4.8607
									c1.3114-0.1796,2.5597-0.8017,3.7115-2.1003c-0.9063-1.1444-2.0118-2.0095-3.7115-2.0403
									c0.7424-3.0412-1.2939-4.3275-3.2925-5.0406c0.6323,2.2321,1.0473,4.8008-2.7538,4.8008
									c-2.7714,0-4.9535,0.4801-6.226,2.2804c-0.0748-2.4003-0.2993-11.8822-0.2993-11.8822
									c-0.1596-3.563,4.7692-3.4612,7.902-2.4004c-1.1823-4.1042-3.6071-6.3232-9.2189-5.7609
									c1.3619-0.5701,2.8136-1.8517,2.8136-4.3207c-0.0009-3.3409-2.7113-7.0422-4.4906-8.1365l-0.8897,34.7824L51.9112,284.5159z
									"/>
							</g>
						</g>
					</g>
				</g>
			</g>
		</g>
	</g>
</g>
</svg>
