<?xml version="1.0" encoding="utf-8"?>
<!-- Generator: Adobe Illustrator 27.7.0, SVG Export Plug-In . SVG Version: 6.00 Build 0)  -->
<!DOCTYPE svg PUBLIC "-//W3C//DTD SVG 1.1//EN" "http://www.w3.org/Graphics/SVG/1.1/DTD/svg11.dtd" [
	<!ENTITY ns_extend "http://ns.adobe.com/Extensibility/1.0/">
	<!ENTITY ns_ai "http://ns.adobe.com/AdobeIllustrator/10.0/">
	<!ENTITY ns_graphs "http://ns.adobe.com/Graphs/1.0/">
	<!ENTITY ns_vars "http://ns.adobe.com/Variables/1.0/">
	<!ENTITY ns_imrep "http://ns.adobe.com/ImageReplacement/1.0/">
	<!ENTITY ns_sfw "http://ns.adobe.com/SaveForWeb/1.0/">
	<!ENTITY ns_custom "http://ns.adobe.com/GenericCustomNamespace/1.0/">
	<!ENTITY ns_adobe_xpath "http://ns.adobe.com/XPath/1.0/">
]>
<svg version="1.1" id="Layer_1" xmlns:x="&ns_extend;" xmlns:i="&ns_ai;" xmlns:graph="&ns_graphs;"
	 xmlns="http://www.w3.org/2000/svg" xmlns:xlink="http://www.w3.org/1999/xlink" x="0px" y="0px" width="660px" height="440px"
	 viewBox="0 0 660 440" style="enable-background:new 0 0 660 440;" xml:space="preserve">
<style type="text/css">
	.st0{fill:#FFFFFF;}
	.st1{fill:#CC0000;}
	.st2{fill:#000066;}
	.st3{fill:#FFCC00;}
</style>
<metadata>
	<sfw  xmlns="&ns_sfw;">
		<slices></slices>
		<sliceSourceBounds  bottomLeftOrigin="true" height="440" width="660" x="-325.5" y="-216.8095"></sliceSourceBounds>
	</sfw>
</metadata>
<rect y="-0.1905" class="st0" width="660" height="440"/>
<g>
	<path class="st0" d="M0-0.1905h660v440H0V-0.1905z"/>
</g>
<g>
	<path d="M23.5714,15.5238H660 M660,78.381H23.5714 M23.5714,141.2381H660 M660,204.0953H23.5714"/>
	<path class="st1" d="M660,219.8096H23.5715v-31.4286H660V219.8096z M660,156.9524H23.5715v-31.4287H660V156.9524z M660,94.0952
		H23.5715V62.6667H660V94.0952z M660,31.2382H23.5715V-0.1904H660V31.2382z"/>
</g>
<g>
	<path d="M0,266.9524h660 M660,329.8095H0 M0,392.6667h660"/>
	<path class="st1" d="M660,408.381H0v-31.4286h660V408.381z M660,345.5239H0v-31.4286h660V345.5239z M660,282.6667H0v-31.4285h660
		V282.6667z"/>
</g>
<g>
	<g>
		<path class="st2" d="M0,0h347.3869v251.4286H0V0z"/>
	</g>
	<path class="st3" d="M216.7379,65.2832l5.3882,36.8613l20.8478-30.8688l-11.1792,35.552l32.1781-18.7831l-25.4806,27.1927
		l37.1634-2.9711l-34.7463,13.4453l34.7463,13.4453l-37.1634-2.9711l25.4806,27.1927l-32.1781-18.7831l11.1792,35.552
		l-20.8478-30.8688l-5.3882,36.8613l-5.3882-36.8613l-20.8478,30.8688l11.1792-35.552l-32.1781,18.7831l25.4806-27.1927
		l-37.1634,2.9711l34.7463-13.4453l-34.7463-13.4453l37.1634,2.9711l-25.4806-27.1927l32.1781,18.7831l-11.1792-35.552
		l20.8478,30.8688L216.7379,65.2832z M186.5237,66.7939c-32.5393-14.4378-70.6218,0.2363-85.0596,32.7756
		s0.2363,70.6218,32.7756,85.0596c16.6455,7.3857,35.6385,7.3857,52.284,0c-32.5393,23.3466-77.8438,15.8945-101.1905-16.6448
		S69.4387,90.1406,101.978,66.7939C127.2446,48.6654,161.2572,48.6654,186.5237,66.7939z"/>
</g>
</svg>
