<?xml version="1.0" encoding="utf-8"?>
<!-- Generator: Adobe Illustrator 27.7.0, SVG Export Plug-In . SVG Version: 6.00 Build 0)  -->
<!DOCTYPE svg PUBLIC "-//W3C//DTD SVG 1.1//EN" "http://www.w3.org/Graphics/SVG/1.1/DTD/svg11.dtd" [
	<!ENTITY ns_extend "http://ns.adobe.com/Extensibility/1.0/">
	<!ENTITY ns_ai "http://ns.adobe.com/AdobeIllustrator/10.0/">
	<!ENTITY ns_graphs "http://ns.adobe.com/Graphs/1.0/">
	<!ENTITY ns_vars "http://ns.adobe.com/Variables/1.0/">
	<!ENTITY ns_imrep "http://ns.adobe.com/ImageReplacement/1.0/">
	<!ENTITY ns_sfw "http://ns.adobe.com/SaveForWeb/1.0/">
	<!ENTITY ns_custom "http://ns.adobe.com/GenericCustomNamespace/1.0/">
	<!ENTITY ns_adobe_xpath "http://ns.adobe.com/XPath/1.0/">
]>
<svg version="1.1" id="Layer_1" xmlns:x="&ns_extend;" xmlns:i="&ns_ai;" xmlns:graph="&ns_graphs;"
	 xmlns="http://www.w3.org/2000/svg" xmlns:xlink="http://www.w3.org/1999/xlink" x="0px" y="0px" width="660px" height="440px"
	 viewBox="0 0 660 440" style="enable-background:new 0 0 660 440;" xml:space="preserve">
<style type="text/css">
	.st0{fill:#012169;}
	.st1{clip-path:url(#SVGID_00000056386701799863354080000016349388819461552553_);}
	.st2{fill:#FFFFFF;}
	.st3{clip-path:url(#SVGID_00000155854038848218131230000000942023284199875734_);}
	.st4{fill:#E4002B;}
	.st5{fill:#C8102E;}
</style>
<metadata>
	<sfw  xmlns="&ns_sfw;">
		<slices></slices>
		<sliceSourceBounds  bottomLeftOrigin="true" height="456.9062" width="668.4531" x="-333.9531" y="-217"></sliceSourceBounds>
	</sfw>
</metadata>
<g>
	<g>
		<g>
			<path class="st0" d="M0,0h660v440H0V0z"/>
		</g>
		<g>
			<defs>
				<rect id="SVGID_1_" x="0" width="378.0329" height="189.0164"/>
			</defs>
			<clipPath id="SVGID_00000157287816510414015480000015004256981225811585_">
				<use xlink:href="#SVGID_1_"  style="overflow:visible;"/>
			</clipPath>
			<g style="clip-path:url(#SVGID_00000157287816510414015480000015004256981225811585_);">
				<path d="M0,0l378.0329,189.0164 M378.0328,0L0,189.0164"/>
				<polygon class="st2" points="369.5798,205.9226 189.0164,115.6409 8.453,205.9226 -8.4531,172.1103 146.7511,94.5082 
					-8.4531,16.9062 8.453,-16.9062 189.0164,73.3755 369.5798,-16.9062 386.4859,16.9062 231.2818,94.5082 386.4859,172.1103 				
					"/>
			</g>
		</g>
		<g>
			<defs>
				<path id="SVGID_00000119106594563095382470000003221346263030064785_" d="M0,0v94.5082h378.0329v94.5082L0,0z M378.0328,0
					H189.0164v189.0164H0L378.0328,0z"/>
			</defs>
			<clipPath id="SVGID_00000088825755695274820480000016563936065888104345_">
				<use xlink:href="#SVGID_00000119106594563095382470000003221346263030064785_"  style="overflow:visible;"/>
			</clipPath>
			<g style="clip-path:url(#SVGID_00000088825755695274820480000016563936065888104345_);">
				<path d="M0,0l378.0329,189.0164 M378.0328,0L0,189.0164"/>
				<polygon class="st4" points="372.3975,200.2872 189.0164,108.5967 5.6353,200.2872 -5.6354,177.7457 160.8395,94.5082 
					-5.6354,11.2708 5.6353,-11.2707 189.0164,80.4198 372.3975,-11.2707 383.6682,11.2708 217.1933,94.5082 383.6682,177.7457 				
					"/>
			</g>
		</g>
		<g>
			<path d="M189.0164,0v189.0164 M0,94.5082h378.0329"/>
			<polygon class="st2" points="220.5191,189.0164 157.5137,189.0164 157.5137,126.0109 0,126.0109 0,63.0055 157.5137,63.0055 
				157.5137,0 220.5191,0 220.5191,63.0055 378.0328,63.0055 378.0328,126.0109 220.5191,126.0109 			"/>
		</g>
		<g>
			<path d="M189.0164,0v189.0164 M0,94.5082h378.0329"/>
			<polygon class="st4" points="207.918,189.0164 170.1148,189.0164 170.1148,113.4099 0,113.4099 0,75.6066 170.1148,75.6066 
				170.1148,0 207.918,0 207.918,75.6066 378.0328,75.6066 378.0328,113.4099 207.918,113.4099 			"/>
		</g>
	</g>
	<g>
		<g transform="matrix(45.4 0 0 45.4 900 120)">
			<g id="d_00000072982656038457676540000005347110465095023275_">
				<g id="a">
					<path class="st2" d="M536.5418,69.6985v13.9052l27.8104-13.9052H536.5418z"/>
					<path class="st2" d="M541.8456,86.0497l-8.1733-11.2495l30.6724-5.097L541.8456,86.0497z"/>
				</g>
				<g transform="scale(-1 1)">
					<g id="a_00000062871827668662400120000003758149038901855138_">
						<path class="st2" d="M536.5418,69.6985v13.9052l-27.8104-13.9052H536.5418z"/>
						<path class="st2" d="M531.238,86.0497l8.1733-11.2495l-30.6724-5.097L531.238,86.0497z"/>
					</g>
				</g>
				<g transform="rotate(72 0 0)">
					<g id="a_00000045587280537232105880000011227341007719147948_">
						<path class="st2" d="M545.1378,75.9439l-13.2246,4.2969l21.8185,22.1523L545.1378,75.9439z"/>
						<path class="st2" d="M531.2259,86.0409l8.1732-11.2495l14.3259,27.5961L531.2259,86.0409z"/>
					</g>
				</g>
				<g transform="rotate(-72 0 0)">
					<g id="a_00000131325115852298056280000010479046957310884750_">
						<path class="st2" d="M527.9458,75.9439l13.2247,4.2969l-4.6308-30.7462L527.9458,75.9439z"/>
						<path class="st2" d="M545.1357,75.9525l-13.2246,4.2969l4.6307-30.7462L545.1357,75.9525z"/>
					</g>
				</g>
				<g transform="scale(-1 1) rotate(72)">
					<g id="a_00000145759095613665245900000013134711068653745802_">
						<path class="st2" d="M527.9458,75.9439l13.2247,4.2969l-21.8185,22.1523L527.9458,75.9439z"/>
						<path class="st2" d="M541.8578,86.0409l-8.1733-11.2495l-14.3258,27.5961L541.8578,86.0409z"/>
					</g>
				</g>
			</g>
		</g>
		<g transform="matrix(30 0 0 30 900 120)">
			<g id="d_00000162328242434991856030000007693937687776366471_">
				<g id="a_00000150795949400394066690000010011867581847574943_">
					<path class="st5" d="M536.5418,72.7644v9.1885l18.377-9.1885H536.5418z"/>
					<path class="st5" d="M540.0465,83.5692l-5.4008-7.4336l20.2681-3.3681L540.0465,83.5692z"/>
				</g>
				<g transform="scale(-1 1)">
					<g id="a_00000088814946083192601310000004163577579352486029_">
						<path class="st5" d="M536.5418,72.7644v9.1885l-18.3769-9.1885H536.5418z"/>
						<path class="st5" d="M533.0371,83.5692l5.4008-7.4336l-20.2681-3.3681L533.0371,83.5692z"/>
					</g>
				</g>
				<g transform="rotate(72 0 0)">
					<g id="a_00000049923335972127383020000016284652728789967266_">
						<path class="st5" d="M542.222,76.8913l-8.7387,2.8394l14.4175,14.6381L542.222,76.8913z"/>
						<path class="st5" d="M533.0291,83.5633l5.4009-7.4336l9.4664,18.2353L533.0291,83.5633z"/>
					</g>
				</g>
				<g transform="rotate(-72 0 0)">
					<g id="a_00000071517187456426495580000012517555566793292465_">
						<path class="st5" d="M530.8616,76.8913l8.7388,2.8394l-3.06-20.3169L530.8616,76.8913z"/>
						<path class="st5" d="M542.2206,76.897l-8.7387,2.8394l3.0599-20.3169L542.2206,76.897z"/>
					</g>
				</g>
				<g transform="scale(-1 1) rotate(72)">
					<g id="a_00000055669656692200035700000012140840179997443729_">
						<path class="st5" d="M530.8616,76.8913l8.7388,2.8394l-14.4175,14.6381L530.8616,76.8913z"/>
						<path class="st5" d="M540.0546,83.5633l-5.4008-7.4336l-9.4664,18.2353L540.0546,83.5633z"/>
					</g>
				</g>
			</g>
		</g>
		<g transform="rotate(82 900 240)">
			<g transform="rotate(-82 519.022 -457.666) scale(40.4)">
				<g id="d_00000123419488853953212270000016873796378227266235_">
					<g id="a_00000042706437134275297050000015318777654003601551_">
						<path class="st2" d="M754.5504,513.0806l12.2534,1.7221l-8.8092-26.2289L754.5504,513.0806z"/>
						<path class="st2" d="M769.6161,510.4319l-10.9254,5.8091l-0.6929-27.66L769.6161,510.4319z"/>
					</g>
					<g transform="scale(-1 1)">
						<g id="a_00000137828107429278848170000016184490249984535735_">
							<path class="st2" d="M754.5504,513.0806l12.2534,1.7221l-15.6976,22.7846L754.5504,513.0806z"/>
							<path class="st2" d="M768.3024,519.7794l-8.901-8.5956l-8.2902,26.3975L768.3024,519.7794z"/>
						</g>
					</g>
					<g transform="rotate(72 0 0)">
						<g id="a_00000142861062248292982430000016522369286662614917_">
							<path class="st2" d="M761.1185,506.2792l2.1487,12.1858l22.223-16.4832L761.1185,506.2792z"/>
							<path class="st2" d="M768.2931,519.789l-8.9009-8.5956l26.0921-9.2064L768.2931,519.789z"/>
						</g>
					</g>
					<g transform="rotate(-72 0 0)">
						<g id="a_00000167386164577644299090000006914236012025818806_">
							<path class="st2" d="M758.9893,521.429l5.4243-11.1215l-27.6673,0.2729L758.9893,521.429z"/>
							<path class="st2" d="M761.1258,506.2821l2.1487,12.1858l-26.5203-7.8885L761.1258,506.2821z"/>
						</g>
					</g>
					<g transform="scale(-1 1) rotate(72)">
						<g id="a_00000138540757284404157820000000388424346324994960_">
							<path class="st2" d="M758.9893,521.429l5.4243-11.1215l16.8187,21.9702L758.9893,521.429z"/>
							<path class="st2" d="M769.6098,510.4201l-10.9254,5.8092l22.5437,16.0416L769.6098,510.4201z"/>
						</g>
					</g>
				</g>
			</g>
			<g transform="rotate(-82 519.022 -457.666) scale(25)">
				<g id="d_00000061459628134358359670000002366428968704083074_">
					<g id="a_00000175289655383130331890000002707463275210444947_">
						<path class="st5" d="M757.5865,513.5073l7.5825,1.0656l-5.4512-16.2307L757.5865,513.5073z"/>
						<path class="st5" d="M766.9093,511.8682l-6.7608,3.5948l-0.4287-17.1163L766.9093,511.8682z"/>
					</g>
					<g transform="scale(-1 1)">
						<g id="a_00000051360207042253307270000002227337581629718972_">
							<path class="st5" d="M757.5865,513.5073l7.5825,1.0656l-9.7138,14.0994L757.5865,513.5073z"/>
							<path class="st5" d="M766.0964,517.6526l-5.5081-5.319l-5.13,16.3351L766.0964,517.6526z"/>
						</g>
					</g>
					<g transform="rotate(72 0 0)">
						<g id="a_00000176003196845294686780000016160259736509245337_">
							<path class="st5" d="M761.6509,509.2985l1.3296,7.5407l13.7518-10.2L761.6509,509.2985z"/>
							<path class="st5" d="M766.0906,517.6585l-5.5081-5.319l16.1461-5.697L766.0906,517.6585z"/>
						</g>
					</g>
					<g transform="rotate(-72 0 0)">
						<g id="a_00000108297192212113750550000004809249271422695059_">
							<path class="st5" d="M760.3333,518.6733l3.3566-6.8821l-17.1208,0.1689L760.3333,518.6733z"/>
							<path class="st5" d="M761.6554,509.3003l1.3297,7.5407l-16.4111-4.8815L761.6554,509.3003z"/>
						</g>
					</g>
					<g transform="scale(-1 1) rotate(72)">
						<g id="a_00000121279237965644531710000002363131981187571112_">
							<path class="st5" d="M760.3333,518.6733l3.3566-6.8821l10.4076,13.5954L760.3333,518.6733z"/>
							<path class="st5" d="M766.9054,511.8609l-6.7607,3.5948l13.9503,9.9268L766.9054,511.8609z"/>
						</g>
					</g>
				</g>
			</g>
		</g>
		<g transform="rotate(82 900 240)">
			<g transform="rotate(-82 668.57 -327.666) scale(45.4)">
				<g id="d_00000049220288908146799690000007968357706362179775_">
					<g id="a_00000136380970026426481510000009521794894265710747_">
						<path class="st2" d="M753.5648,672.2088l13.7698,1.9352l-9.8994-29.475L753.5648,672.2088z"/>
						<path class="st2" d="M770.4951,669.2322l-12.2776,6.5281l-0.7786-31.0832L770.4951,669.2322z"/>
					</g>
					<g transform="scale(-1 1)">
						<g id="a_00000003100670290759251820000013022864731103902128_">
							<path class="st2" d="M753.5648,672.2088l13.7698,1.9352l-17.6403,25.6046L753.5648,672.2088z"/>
							<path class="st2" d="M769.0187,679.7366l-10.0026-9.6594L749.7,699.7418L769.0187,679.7366z"/>
						</g>
					</g>
					<g transform="rotate(72 0 0)">
						<g id="a_00000048471912784975801450000010510993344409279905_">
							<path class="st2" d="M760.9457,664.5656l2.4146,13.694l24.9733-18.5232L760.9457,664.5656z"/>
							<path class="st2" d="M769.0083,679.7474l-10.0026-9.6594l29.3213-10.3458L769.0083,679.7474z"/>
						</g>
					</g>
					<g transform="rotate(-72 0 0)">
						<g id="a_00000156575967399052237340000003388331566112202900_">
							<path class="st2" d="M758.553,681.5903l6.0956-12.4979l-31.0914,0.3066L758.553,681.5903z"/>
							<path class="st2" d="M760.9539,664.5689l2.4146,13.694l-29.8025-8.8647L760.9539,664.5689z"/>
						</g>
					</g>
					<g transform="scale(-1 1) rotate(72)">
						<g id="a_00000110461900865604778920000003205070582594391695_">
							<path class="st2" d="M758.553,681.5903l6.0956-12.4979l18.9002,24.6892L758.553,681.5903z"/>
							<path class="st2" d="M770.488,669.219l-12.2776,6.5281l25.3338,18.027L770.488,669.219z"/>
						</g>
					</g>
				</g>
			</g>
			<g transform="rotate(-82 668.57 -327.666) scale(30)">
				<g id="d_00000177485563942236635150000006849543674286390400_">
					<g id="a_00000005979087912732447660000004921353475312026042_">
						<path class="st5" d="M756.6008,672.6354l9.0991,1.2788l-6.5415-19.4769L756.6008,672.6354z"/>
						<path class="st5" d="M767.7882,670.6686l-8.1129,4.3137l-0.5145-20.5396L767.7882,670.6686z"/>
					</g>
					<g transform="scale(-1 1)">
						<g id="a_00000031209345845239278590000010727522686951103881_">
							<path class="st5" d="M756.6008,672.6354l9.0991,1.2788l-11.6566,16.9193L756.6008,672.6354z"/>
							<path class="st5" d="M766.8127,677.6098l-6.6096-6.3828l-6.1561,19.6021L766.8127,677.6098z"/>
						</g>
					</g>
					<g transform="rotate(72 0 0)">
						<g id="a_00000061451883528664306050000005782005625356001939_">
							<path class="st5" d="M761.4781,667.5849l1.5956,9.0489l16.5021-12.24L761.4781,667.5849z"/>
							<path class="st5" d="M766.8058,677.6169l-6.6096-6.3828l19.3753-6.8364L766.8058,677.6169z"/>
						</g>
					</g>
					<g transform="rotate(-72 0 0)">
						<g id="a_00000013189392708933010840000017848305610724485037_">
							<path class="st5" d="M759.897,678.8347l4.028-8.2585l-20.545,0.2026L759.897,678.8347z"/>
							<path class="st5" d="M761.4835,667.5871l1.5956,9.0489l-19.6933-5.8578L761.4835,667.5871z"/>
						</g>
					</g>
					<g transform="scale(-1 1) rotate(72)">
						<g id="a_00000139257249131334175300000004669150020171831225_">
							<path class="st5" d="M759.897,678.8347l4.028-8.2585l12.4891,16.3145L759.897,678.8347z"/>
							<path class="st5" d="M767.7836,670.6599l-8.1129,4.3137l16.7404,11.9121L767.7836,670.6599z"/>
						</g>
					</g>
				</g>
			</g>
		</g>
		<g transform="matrix(50.4 0 0 50.4 900 480)">
			<g id="d_00000072241175243107571210000010789002477931022465_">
				<g id="a_00000126309792796506183370000014067068776925626245_">
					<path class="st2" d="M536.5418,289.2261v15.4366l30.8732-15.4366H536.5418z"/>
					<path class="st2" d="M542.4297,307.3781l-9.0734-12.4885l34.0504-5.6584L542.4297,307.3781z"/>
				</g>
				<g transform="scale(-1 1)">
					<g id="a_00000073693068973178424150000011854080194477216947_">
						<path class="st2" d="M536.5418,289.2261v15.4366l-30.8732-15.4366H536.5418z"/>
						<path class="st2" d="M530.6539,307.3781l9.0734-12.4885l-34.0504-5.6584L530.6539,307.3781z"/>
					</g>
				</g>
				<g transform="rotate(72 0 0)">
					<g id="a_00000049202313010963411900000001460917747902949787_">
						<path class="st2" d="M546.0845,296.1593l-14.6811,4.7702l24.2214,24.592L546.0845,296.1593z"/>
						<path class="st2" d="M530.6404,307.3683l9.0734-12.4885l15.9036,30.6353L530.6404,307.3683z"/>
					</g>
				</g>
				<g transform="rotate(-72 0 0)">
					<g id="a_00000093883147885347791340000017660661743934841489_">
						<path class="st2" d="M526.9991,296.1593l14.6811,4.7702l-5.1407-34.1324L526.9991,296.1593z"/>
						<path class="st2" d="M546.0822,296.1688l-14.6811,4.7702l5.1407-34.1324L546.0822,296.1688z"/>
					</g>
				</g>
				<g transform="scale(-1 1) rotate(72)">
					<g id="a_00000085943106504677855040000000169561572856991652_">
						<path class="st2" d="M526.9991,296.1593l14.6811,4.7702l-24.2214,24.592L526.9991,296.1593z"/>
						<path class="st2" d="M542.4432,307.3683l-9.0734-12.4885l-15.9036,30.6353L542.4432,307.3683z"/>
					</g>
				</g>
			</g>
		</g>
		<g transform="matrix(35 0 0 35 900 480)">
			<g id="d_00000126325024490020670210000005913625896891121334_">
				<g id="a_00000103249396898631475460000003011977001496018334_">
					<path class="st5" d="M536.5418,292.292v10.7198l21.4398-10.7198H536.5418z"/>
					<path class="st5" d="M540.6307,304.8976l-6.301-8.6725l23.6461-3.9294L540.6307,304.8976z"/>
				</g>
				<g transform="scale(-1 1)">
					<g id="a_00000141417048315145401920000010642477656620920481_">
						<path class="st5" d="M536.5418,292.292v10.7198l-21.4397-10.7198H536.5418z"/>
						<path class="st5" d="M532.453,304.8976l6.301-8.6725l-23.6461-3.9294L532.453,304.8976z"/>
					</g>
				</g>
				<g transform="rotate(72 0 0)">
					<g id="a_00000121972280942307144910000008161728586059304382_">
						<path class="st5" d="M543.1687,297.1067l-10.1952,3.3126l16.8204,17.0778L543.1687,297.1067z"/>
						<path class="st5" d="M532.4436,304.8907l6.301-8.6726l11.0441,21.2745L532.4436,304.8907z"/>
					</g>
				</g>
				<g transform="rotate(-72 0 0)">
					<g id="a_00000078751075660169771630000008209045791961766555_">
						<path class="st5" d="M529.9149,297.1067l10.1953,3.3126l-3.57-23.703L529.9149,297.1067z"/>
						<path class="st5" d="M543.1671,297.1133l-10.1952,3.3126l3.5699-23.703L543.1671,297.1133z"/>
					</g>
				</g>
				<g transform="scale(-1 1) rotate(72)">
					<g id="a_00000113330861662383427250000010415663999428020913_">
						<path class="st5" d="M529.9149,297.1067l10.1953,3.3126l-16.8205,17.0778L529.9149,297.1067z"/>
						<path class="st5" d="M540.64,304.8907l-6.301-8.6726l-11.0441,21.2745L540.64,304.8907z"/>
					</g>
				</g>
			</g>
		</g>
	</g>
</g>
</svg>
