<?xml version="1.0" encoding="utf-8"?>
<!-- Generator: Adobe Illustrator 27.7.0, SVG Export Plug-In . SVG Version: 6.00 Build 0)  -->
<!DOCTYPE svg PUBLIC "-//W3C//DTD SVG 1.1//EN" "http://www.w3.org/Graphics/SVG/1.1/DTD/svg11.dtd" [
	<!ENTITY ns_extend "http://ns.adobe.com/Extensibility/1.0/">
	<!ENTITY ns_ai "http://ns.adobe.com/AdobeIllustrator/10.0/">
	<!ENTITY ns_graphs "http://ns.adobe.com/Graphs/1.0/">
	<!ENTITY ns_vars "http://ns.adobe.com/Variables/1.0/">
	<!ENTITY ns_imrep "http://ns.adobe.com/ImageReplacement/1.0/">
	<!ENTITY ns_sfw "http://ns.adobe.com/SaveForWeb/1.0/">
	<!ENTITY ns_custom "http://ns.adobe.com/GenericCustomNamespace/1.0/">
	<!ENTITY ns_adobe_xpath "http://ns.adobe.com/XPath/1.0/">
]>
<svg version="1.1" id="Layer_1" xmlns:x="&ns_extend;" xmlns:i="&ns_ai;" xmlns:graph="&ns_graphs;"
	 xmlns="http://www.w3.org/2000/svg" xmlns:xlink="http://www.w3.org/1999/xlink" x="0px" y="0px" width="660px" height="440px"
	 viewBox="0 0 660 440" style="enable-background:new 0 0 660 440;" xml:space="preserve">
<style type="text/css">
	.st0{fill:#0038A8;}
	.st1{fill:#CE1126;}
	.st2{fill:#FFFFFF;}
	.st3{fill:#FCD116;}
</style>
<metadata>
	<sfw  xmlns="&ns_sfw;">
		<slices></slices>
		<sliceSourceBounds  bottomLeftOrigin="true" height="440" width="660" x="-325.5" y="-217"></sliceSourceBounds>
	</sfw>
</metadata>
<g>
	<path class="st0" d="M0,0h660v440H0V0z"/>
	<path class="st1" d="M0,220h660v220H0V220z"/>
	<path class="st2" d="M381.0498,220L0,440V0"/>
	<g transform="translate(28 45)">
		<circle class="st3" cx="108.8889" cy="175" r="44"/>
		<g id="d">
			<g id="c">
				<g id="b">
					<path class="st3" d="M16,175l5.7591,5.7591L108.8889,175l-87.1298-5.7591L16,175z"/>
					<path id="a" class="st3" d="M25.7461,185.9101l4.7026,4.7027L108.8889,175L25.7461,185.9101z"/>
					<g transform="scale(1 -1)">
						<path id="a_00000088093085785472710910000001319456097417982907_" class="st3" d="M25.7461,164.0899l4.7026-4.7027
							L108.8889,175L25.7461,164.0899z"/>
					</g>
				</g>
				<g transform="rotate(45)">
					<g id="b_00000171705872591807104960000004663419272890470557_">
						<path class="st3" d="M43.2065,109.3176l0,8.1446L108.8889,175l-57.5377-65.6824H43.2065z"/>
						<path id="a_00000031888969233111914250000006169597736180108188_" class="st3" d="M42.3834,123.9238v6.6506L108.8889,175
							L42.3834,123.9238z"/>
						<g transform="scale(1 -1)">
							<path id="a_00000009585290581645624640000016135679334993728914_" class="st3" d="M57.8127,108.4945h6.6505L108.8889,175
								L57.8127,108.4945z"/>
						</g>
					</g>
				</g>
			</g>
			<g transform="rotate(90)">
				<g id="c_00000031914608741038303550000017749341520847183770_">
					<g id="b_00000062879052591794963290000011412253845144656043_">
						<path class="st3" d="M108.8889,82.1111l-5.7591,5.7591L108.8889,175l5.7591-87.1298L108.8889,82.1111z"/>
						<path id="a_00000134207865222755702280000018178217818832794508_" class="st3" d="M97.9788,91.8572l-4.7027,4.7026
							L108.8889,175L97.9788,91.8572z"/>
						<g transform="scale(1 -1)">
							<path id="a_00000010269755169098568750000018346202877906911647_" class="st3" d="M119.799,91.8572l4.7027,4.7026
								L108.8889,175L119.799,91.8572z"/>
						</g>
					</g>
					<g transform="rotate(45)">
						<g id="b_00000087376502525218542550000015847317875869789873_">
							<path class="st3" d="M174.5713,109.3176h-8.1446L108.8889,175l65.6824-57.5378V109.3176z"/>
							<path id="a_00000134216150460315787950000001158432048909640127_" class="st3" d="M159.9651,108.4945h-6.6505L108.8889,175
								L159.9651,108.4945z"/>
							<g transform="scale(1 -1)">
								<path id="a_00000085241686679633117200000017178280808086812063_" class="st3" d="M175.3943,123.9238v6.6506L108.8889,175
									L175.3943,123.9238z"/>
							</g>
						</g>
					</g>
				</g>
			</g>
		</g>
		<g transform="rotate(180)">
			<g id="d_00000150102238424313094740000004429039524256267933_">
				<g id="c_00000014620699471520202870000006162566543572273044_">
					<g id="b_00000034063775302556409350000006078524614153625790_">
						<path class="st3" d="M201.7778,175l-5.7591-5.7591L108.8889,175l87.1298,5.7591L201.7778,175z"/>
						<path id="a_00000135688906121707325650000008231806358077249408_" class="st3" d="M192.0317,164.0899l-4.7026-4.7027
							L108.8889,175L192.0317,164.0899z"/>
						<g transform="scale(1 -1)">
							<path id="a_00000168114542220438363460000005688142480513972399_" class="st3" d="M192.0317,185.9101l-4.7026,4.7027
								L108.8889,175L192.0317,185.9101z"/>
						</g>
					</g>
					<g transform="rotate(45)">
						<g id="b_00000039821939717483926270000010614341110845716414_">
							<path class="st3" d="M174.5713,240.6824v-8.1446L108.8889,175l57.5378,65.6824H174.5713z"/>
							<path id="a_00000131334643863236573900000000346336130177168060_" class="st3" d="M175.3943,226.0762v-6.6506L108.8889,175
								L175.3943,226.0762z"/>
							<g transform="scale(1 -1)">
								<path id="a_00000001648292339296452790000007614049361566987184_" class="st3" d="M159.9651,241.5055h-6.6505L108.8889,175
									L159.9651,241.5055z"/>
							</g>
						</g>
					</g>
				</g>
				<g transform="rotate(90)">
					<g id="c_00000152949110370734329020000005762792446392080823_">
						<g id="b_00000109726561996038953170000004938417142031695026_">
							<path class="st3" d="M108.8889,267.8889l5.7591-5.7591L108.8889,175l-5.7591,87.1298L108.8889,267.8889z"/>
							<path id="a_00000085936086051408953490000013250001873431248816_" class="st3" d="M119.799,258.1428l4.7027-4.7027
								L108.8889,175L119.799,258.1428z"/>
							<g transform="scale(1 -1)">
								<path id="a_00000065788062848250272170000012989188159447491251_" class="st3" d="M97.9788,258.1428l-4.7027-4.7027
									L108.8889,175L97.9788,258.1428z"/>
							</g>
						</g>
						<g transform="rotate(45)">
							<g id="b_00000119840559916610859480000012267016671183125645_">
								<path class="st3" d="M43.2065,240.6824h8.1446L108.8889,175l-65.6824,57.5378L43.2065,240.6824z"/>
								<path id="a_00000114061884807072049900000012086417113314664066_" class="st3" d="M57.8127,241.5055h6.6505L108.8889,175
									L57.8127,241.5055z"/>
								<g transform="scale(1 -1)">
									<path id="a_00000026140365941534895390000000978509374089552296_" class="st3" d="M42.3834,226.0762v-6.6506L108.8889,175
										L42.3834,226.0762z"/>
								</g>
							</g>
						</g>
					</g>
				</g>
			</g>
		</g>
		<g transform="translate(-2.02)">
			<g id="f" transform="translate(37.962)">
				<path id="e" class="st3" d="M273.1078,175l-16.5342,5.7493l-0.3569,17.5022l-10.5747-13.9529l-16.7542,5.0698L238.8856,175
					H273.1078z"/>
				<g transform="scale(1 -1)">
					<path id="e_00000044173129241306298400000006055772392208655269_" class="st3" d="M273.1078,175l-16.5342-5.7493
						l-0.3569-17.5022l-10.5747,13.9529l-16.7542-5.0698L238.8856,175H273.1078z"/>
				</g>
			</g>
			<g transform="rotate(120)">
				<g id="f_00000141429746494364847590000015684026808194356612_" transform="translate(37.962)">
					<path id="e_00000020358362033019296780000015098730836322534311_" class="st3" d="M-41.9469,356.8969l3.288-17.1937
						l-14.9789-9.0602l17.3709-2.1815l3.9866-17.0445l7.4445,15.8426L-41.9469,356.8969z"/>
					<g transform="scale(1 -1)">
						<path id="e_00000163755261796940906640000010656042006137485213_" class="st3" d="M-41.9469,356.8969l13.2462-11.4444
							l15.3358,8.442l-6.7962-16.1344l12.7677-11.9747l-17.4423,1.4741L-41.9469,356.8969z"/>
					</g>
				</g>
			</g>
			<g transform="rotate(-120)">
				<g id="f_00000079481544352291785970000006280973056534922160_" transform="translate(37.962)">
					<path id="e_00000049209891891241398500000017038072202940350373_" class="st3" d="M-41.9469-6.8969l13.2462,11.4444
						l15.3358-8.442l-6.7962,16.1344l12.7677,11.9747l-17.4423-1.4741L-41.9469-6.8969z"/>
					<g transform="scale(1 -1)">
						<path id="e_00000117647862685533194630000006888634177346743190_" class="st3" d="M-41.9469-6.8969l3.288,17.1937
							l-14.9789,9.0602l17.3709,2.1815l3.9866,17.0445l7.4445-15.8426L-41.9469-6.8969z"/>
					</g>
				</g>
			</g>
		</g>
	</g>
</g>
</svg>
