<?xml version="1.0" encoding="utf-8"?>
<!-- Generator: Adobe Illustrator 27.7.0, SVG Export Plug-In . SVG Version: 6.00 Build 0)  -->
<!DOCTYPE svg PUBLIC "-//W3C//DTD SVG 1.1//EN" "http://www.w3.org/Graphics/SVG/1.1/DTD/svg11.dtd" [
	<!ENTITY ns_extend "http://ns.adobe.com/Extensibility/1.0/">
	<!ENTITY ns_ai "http://ns.adobe.com/AdobeIllustrator/10.0/">
	<!ENTITY ns_graphs "http://ns.adobe.com/Graphs/1.0/">
	<!ENTITY ns_vars "http://ns.adobe.com/Variables/1.0/">
	<!ENTITY ns_imrep "http://ns.adobe.com/ImageReplacement/1.0/">
	<!ENTITY ns_sfw "http://ns.adobe.com/SaveForWeb/1.0/">
	<!ENTITY ns_custom "http://ns.adobe.com/GenericCustomNamespace/1.0/">
	<!ENTITY ns_adobe_xpath "http://ns.adobe.com/XPath/1.0/">
]>
<svg version="1.1" id="Layer_1" xmlns:x="&ns_extend;" xmlns:i="&ns_ai;" xmlns:graph="&ns_graphs;"
	 xmlns="http://www.w3.org/2000/svg" xmlns:xlink="http://www.w3.org/1999/xlink" x="0px" y="0px" width="660px" height="440px"
	 viewBox="0 0 660 440" style="enable-background:new 0 0 660 440;" xml:space="preserve">
<style type="text/css">
	.st0{fill-rule:evenodd;clip-rule:evenodd;fill:#FE0000;}
	.st1{fill-rule:evenodd;clip-rule:evenodd;fill:#000095;}
	.st2{fill:#FFFFFF;}
	.st3{fill:#000095;}
</style>
<metadata>
	<sfw  xmlns="&ns_sfw;">
		<slices></slices>
		<sliceSourceBounds  bottomLeftOrigin="true" height="440" width="660" x="-325.5" y="-217"></sliceSourceBounds>
	</sfw>
</metadata>
<g>
	<g>
		<g>
			<path class="st0" d="M0,0h660v440H0V0z"/>
		</g>
		<g>
			<path class="st1" d="M0,0h330v220H0V0z"/>
		</g>
	</g>
	<g>
		<path class="st2" d="M165,27.5l-41.25,153.9472L236.4472,68.75L82.5,110l153.9472,41.25L123.75,38.5528L165,192.5l41.25-153.9472
			L93.5528,151.25L247.5,110L93.5528,68.75L206.25,181.4472L165,27.5"/>
	</g>
	<g>
		<circle class="st2" cx="165" cy="110" r="44"/>
		<path class="st3" d="M165,156.7501c-25.778,0-46.75-20.972-46.75-46.75s20.972-46.75,46.75-46.75s46.75,20.972,46.75,46.75
			S190.778,156.7501,165,156.7501z M165,68.7501c-22.7455,0-41.25,18.5045-41.25,41.25s18.5045,41.25,41.25,41.25
			s41.25-18.5045,41.25-41.25S187.7455,68.7501,165,68.7501z"/>
	</g>
</g>
</svg>
