<?xml version="1.0" encoding="utf-8"?>
<!-- Generator: Adobe Illustrator 27.7.0, SVG Export Plug-In . SVG Version: 6.00 Build 0)  -->
<!DOCTYPE svg PUBLIC "-//W3C//DTD SVG 1.1//EN" "http://www.w3.org/Graphics/SVG/1.1/DTD/svg11.dtd" [
	<!ENTITY ns_extend "http://ns.adobe.com/Extensibility/1.0/">
	<!ENTITY ns_ai "http://ns.adobe.com/AdobeIllustrator/10.0/">
	<!ENTITY ns_graphs "http://ns.adobe.com/Graphs/1.0/">
	<!ENTITY ns_vars "http://ns.adobe.com/Variables/1.0/">
	<!ENTITY ns_imrep "http://ns.adobe.com/ImageReplacement/1.0/">
	<!ENTITY ns_sfw "http://ns.adobe.com/SaveForWeb/1.0/">
	<!ENTITY ns_custom "http://ns.adobe.com/GenericCustomNamespace/1.0/">
	<!ENTITY ns_adobe_xpath "http://ns.adobe.com/XPath/1.0/">
]>
<svg version="1.1" id="Layer_1" xmlns:x="&ns_extend;" xmlns:i="&ns_ai;" xmlns:graph="&ns_graphs;"
	 xmlns="http://www.w3.org/2000/svg" xmlns:xlink="http://www.w3.org/1999/xlink" x="0px" y="0px" width="660px" height="440px"
	 viewBox="0 0 660 440" style="enable-background:new 0 0 660 440;" xml:space="preserve">
<style type="text/css">
	.st0{fill:#1EB53A;}
	.st1{fill:#0099B5;}
	.st2{fill:#CE1126;}
	.st3{fill:#FFFFFF;}
</style>
<metadata>
	<sfw  xmlns="&ns_sfw;">
		<slices></slices>
		<sliceSourceBounds  bottomLeftOrigin="true" height="440" width="660" x="-325.5" y="-217"></sliceSourceBounds>
	</sfw>
</metadata>
<g>
	<path class="st0" d="M0,0h660v440H0V0z"/>
	<path class="st1" d="M0,0h660v220H0V0z"/>
	<path class="st2" d="M0,140.8h660v158.4H0V140.8z"/>
	<path class="st3" d="M0,149.6h660v140.8H0V149.6z"/>
	<circle class="st3" cx="123.2" cy="70.4" r="52.8"/>
	<circle class="st1" cx="140.8" cy="70.4" r="52.8"/>
	<g transform="translate(136 64)">
		<g id="e">
			<g id="d">
				<g id="c">
					<g id="b">
						<path id="a" class="st3" d="M103.36,38.08l-3.2632,10.0432l5.0216,1.6316"/>
						<g transform="scale(-1 1)">
							<path id="a_00000180368971249951765750000014545751804511778196_" class="st3" d="M103.36,38.08l3.2632,10.0432
								l-5.0216,1.6316"/>
						</g>
					</g>
					<g transform="rotate(72)">
						<g id="b_00000062176302980634549500000001973747992172977555_">
							<path id="a_00000163763224148918670260000011937838731614018746_" class="st3" d="M113.4032,45.3768h-10.56v5.28"/>
							<g transform="scale(-1 1)">
								<path id="a_00000137819359038581233750000014491002357089210788_" class="st3" d="M113.4032,45.3768l-8.5432,6.207
									l-3.1035-4.2716"/>
							</g>
						</g>
					</g>
				</g>
				<g transform="rotate(-72)">
					<g id="b_00000070829958254328379420000004980883663776218263_">
						<path id="a_00000135652238263882663670000012084281455249988246_" class="st3" d="M93.3168,45.3768l8.5432,6.207
							l3.1035-4.2716"/>
						<g transform="scale(-1 1)">
							<path id="a_00000072278299798289134410000003339039352420286868_" class="st3" d="M93.3168,45.3768h10.56v5.28"/>
						</g>
					</g>
				</g>
				<g transform="rotate(144)">
					<g id="c_00000091732029967453922980000002123944899132611982_">
						<g id="b_00000086680079650854044630000014206285187445943985_">
							<path id="a_00000178194370874357971500000013628977341527370629_" class="st3" d="M109.567,57.1832l-3.2632-10.0432
								l-5.0216,1.6316"/>
							<g transform="scale(-1 1)">
								<path id="a_00000061458033377767785360000000413575066715889338_" class="st3" d="M109.567,57.1832l-8.5432-6.207
									l3.1035-4.2716"/>
							</g>
						</g>
						<g transform="rotate(72)">
							<g id="b_00000027606539820610534200000005856346988597359804_">
								<path id="a_00000176754935865540687020000004639873855706719118_" class="st3" d="M97.153,57.1832l8.5432-6.207
									l-3.1035-4.2716"/>
								<g transform="scale(-1 1)">
									<path id="a_00000122701730062253289430000016592880738846121621_" class="st3" d="M97.153,57.1832l3.2632-10.0432
										l5.0216,1.6316"/>
								</g>
							</g>
						</g>
					</g>
				</g>
			</g>
			<g>
				<g id="d_00000176738077149000189210000000798318266575701686_">
					<g id="c_00000106109130096039453550000011094116687952678821_">
						<g id="b_00000085233793400081907160000001995290197834813886_">
							<path id="a_00000159465705292053167430000013218581418760078231_" class="st3" d="M103.36-4.16l-3.2632,10.0432
								l5.0216,1.6316"/>
							<g transform="scale(-1 1)">
								<path id="a_00000046301914662753153390000001286901403299194297_" class="st3" d="M103.36-4.16l3.2632,10.0432
									l-5.0216,1.6316"/>
							</g>
						</g>
						<g transform="rotate(72)">
							<g id="b_00000173853888072607091140000013932788692510475904_">
								<path id="a_00000130640837235135648450000017612552417853374378_" class="st3" d="M113.4032,3.1368h-10.56v5.28"/>
								<g transform="scale(-1 1)">
									<path id="a_00000076585709992868836040000011420870689343479961_" class="st3" d="M113.4032,3.1368l-8.5432,6.207
										l-3.1035-4.2716"/>
								</g>
							</g>
						</g>
					</g>
					<g transform="rotate(-72)">
						<g id="b_00000055665815994740386100000009927734489743724703_">
							<path id="a_00000026131270529824691290000010140670383363270537_" class="st3" d="M93.3168,3.1368l8.5432,6.207
								l3.1035-4.2716"/>
							<g transform="scale(-1 1)">
								<path id="a_00000057853336405555727600000002852357422855752614_" class="st3" d="M93.3168,3.1368h10.56v5.28"/>
							</g>
						</g>
					</g>
					<g transform="rotate(144)">
						<g id="c_00000029758849120267575570000001205396146397171128_">
							<g id="b_00000108266778654286791180000013505974581699413893_">
								<path id="a_00000168801968523954092870000014040674542906181306_" class="st3" d="M109.567,14.9432l-3.2632-10.0432
									l-5.0216,1.6316"/>
								<g transform="scale(-1 1)">
									<path id="a_00000126307251603899889690000001769319085251702151_" class="st3" d="M109.567,14.9432l-8.5432-6.207
										l3.1035-4.2716"/>
								</g>
							</g>
							<g transform="rotate(72)">
								<g id="b_00000158725881763754287220000007021832729624452756_">
									<path id="a_00000176765558441826704770000002586575737047493813_" class="st3" d="M97.153,14.9432l8.5432-6.207
										l-3.1035-4.2716"/>
									<g transform="scale(-1 1)">
										<path id="a_00000032618002336949833390000009342341780912727936_" class="st3" d="M97.153,14.9432l3.2632-10.0432
											l5.0216,1.6316"/>
									</g>
								</g>
							</g>
						</g>
					</g>
				</g>
			</g>
			<g>
				<g id="d_00000104697433907025410560000011276359565103370631_">
					<g id="c_00000168833165531869414360000005175095930938820778_">
						<g id="b_00000165198841271223596450000016090670338344764561_">
							<path id="a_00000008831399772951784630000007025513105418173355_" class="st3" d="M103.36-46.4l-3.2632,10.0432
								l5.0216,1.6316"/>
							<g transform="scale(-1 1)">
								<path id="a_00000140735582299770896040000016158917694648119447_" class="st3" d="M103.36-46.4l3.2632,10.0432
									l-5.0216,1.6316"/>
							</g>
						</g>
						<g transform="rotate(72)">
							<g id="b_00000111173974611616584060000005892240309885419158_">
								<path id="a_00000032607420009243131530000009636761318947211700_" class="st3" d="M113.4032-39.1032h-10.56v5.28"/>
								<g transform="scale(-1 1)">
									<path id="a_00000173844783626762927940000002525713595927112363_" class="st3" d="M113.4032-39.1032l-8.5432,6.207
										l-3.1035-4.2716"/>
								</g>
							</g>
						</g>
					</g>
					<g transform="rotate(-72)">
						<g id="b_00000126324569981651329640000004660441344075814324_">
							<path id="a_00000038372455303180670170000002257133845040913825_" class="st3" d="M93.3168-39.1032l8.5432,6.207
								l3.1035-4.2716"/>
							<g transform="scale(-1 1)">
								<path id="a_00000033349002859722172450000014825820036477750934_" class="st3" d="M93.3168-39.1032h10.56v5.28"/>
							</g>
						</g>
					</g>
					<g transform="rotate(144)">
						<g id="c_00000119108926528902554280000000105142107617524384_">
							<g id="b_00000011711495009518150290000011617608946507227054_">
								<path id="a_00000087378170216387008340000005698753624198863763_" class="st3" d="M109.567-27.2968l-3.2632-10.0432
									l-5.0216,1.6316"/>
								<g transform="scale(-1 1)">
									<path id="a_00000109749438576931162630000016123259474290261646_" class="st3" d="M109.567-27.2968l-8.5432-6.207
										l3.1035-4.2716"/>
								</g>
							</g>
							<g transform="rotate(72)">
								<g id="b_00000094580716328968795290000008290108963186177413_">
									<path id="a_00000087413068088445298420000013514043090051130511_" class="st3" d="M97.153-27.2968l8.5432-6.207
										l-3.1035-4.2716"/>
									<g transform="scale(-1 1)">
										<path id="a_00000164472082152228938510000001271471859116730014_" class="st3" d="M97.153-27.2968l3.2632-10.0432
											l5.0216,1.6316"/>
									</g>
								</g>
							</g>
						</g>
					</g>
				</g>
			</g>
		</g>
		<g>
			<g id="e_00000018209928565595018090000015090562967098071480_">
				<g id="d_00000108301348229134060190000002285460282498175377_">
					<g id="c_00000113337919055505975120000000191602946192104366_">
						<g id="b_00000072265559981140599520000004050573105073257100_">
							<path id="a_00000083785334797312979100000002004473845623377343_" class="st3" d="M145.6,38.08l-3.2632,10.0432
								l5.0216,1.6316"/>
							<g transform="scale(-1 1)">
								<path id="a_00000039104141259217691740000008281210256431665593_" class="st3" d="M145.6,38.08l3.2632,10.0432
									l-5.0216,1.6316"/>
							</g>
						</g>
						<g transform="rotate(72)">
							<g id="b_00000106827217311648110710000003255865774178842811_">
								<path id="a_00000016762808364161742550000006264159532802610843_" class="st3" d="M155.6432,45.3768h-10.56v5.28"/>
								<g transform="scale(-1 1)">
									<path id="a_00000167369788058481639730000001134967034206429620_" class="st3" d="M155.6432,45.3768l-8.5432,6.207
										l-3.1035-4.2716"/>
								</g>
							</g>
						</g>
					</g>
					<g transform="rotate(-72)">
						<g id="b_00000114049064165078848570000004392999563559567278_">
							<path id="a_00000101788942880397967770000006303281948925643195_" class="st3" d="M135.5568,45.3768l8.5432,6.207
								l3.1035-4.2716"/>
							<g transform="scale(-1 1)">
								<path id="a_00000024708358489089779200000000312345488487905705_" class="st3" d="M135.5568,45.3768h10.56v5.28"/>
							</g>
						</g>
					</g>
					<g transform="rotate(144)">
						<g id="c_00000068651323868875118970000000468198662668742586_">
							<g id="b_00000114754953044912151500000008192103896676209321_">
								<path id="a_00000114069225005113139990000011992427223580882597_" class="st3" d="M151.807,57.1832l-3.2632-10.0432
									l-5.0216,1.6316"/>
								<g transform="scale(-1 1)">
									<path id="a_00000144304944945676725900000008267798928803087528_" class="st3" d="M151.807,57.1832l-8.5432-6.207
										l3.1035-4.2716"/>
								</g>
							</g>
							<g transform="rotate(72)">
								<g id="b_00000059269385864151689440000001860937813132435628_">
									<path id="a_00000034788203462911843000000013375443638425081020_" class="st3" d="M139.393,57.1832l8.5432-6.207
										l-3.1035-4.2716"/>
									<g transform="scale(-1 1)">
										<path id="a_00000180337964096751274550000011616731306674239403_" class="st3" d="M139.393,57.1832l3.2632-10.0432
											l5.0216,1.6316"/>
									</g>
								</g>
							</g>
						</g>
					</g>
				</g>
				<g>
					<g id="d_00000106849538233031239430000016902585710703548070_">
						<g id="c_00000053524676852071140320000014515130082882750138_">
							<g id="b_00000072968919733537635050000006693050331169940388_">
								<path id="a_00000107565553893574004410000015477743759333459378_" class="st3" d="M145.6-4.16l-3.2632,10.0432
									l5.0216,1.6316"/>
								<g transform="scale(-1 1)">
									<path id="a_00000040554434914786437940000017620761349903514259_" class="st3" d="M145.6-4.16l3.2632,10.0432
										l-5.0216,1.6316"/>
								</g>
							</g>
							<g transform="rotate(72)">
								<g id="b_00000134245541372830752320000000733796948488254135_">
									<path id="a_00000107546835717524632000000003441506925218760842_" class="st3" d="M155.6432,3.1368h-10.56v5.28"/>
									<g transform="scale(-1 1)">
										<path id="a_00000049938982645727513680000011624951880498583976_" class="st3" d="M155.6432,3.1368l-8.5432,6.207
											l-3.1035-4.2716"/>
									</g>
								</g>
							</g>
						</g>
						<g transform="rotate(-72)">
							<g id="b_00000177461729638645241650000003798304589757028515_">
								<path id="a_00000005233600504192621960000007198041732617192870_" class="st3" d="M135.5568,3.1368l8.5432,6.207
									l3.1035-4.2716"/>
								<g transform="scale(-1 1)">
									<path id="a_00000074432230904495521010000003808436046465020821_" class="st3" d="M135.5568,3.1368h10.56v5.28"/>
								</g>
							</g>
						</g>
						<g transform="rotate(144)">
							<g id="c_00000012461970331774800440000003080883844352564375_">
								<g id="b_00000107552785066569453950000001168647316959475388_">
									<path id="a_00000104691117301709217860000006399649307964807315_" class="st3" d="M151.807,14.9432l-3.2632-10.0432
										l-5.0216,1.6316"/>
									<g transform="scale(-1 1)">
										<path id="a_00000049915207371730689660000018066066524120079540_" class="st3" d="M151.807,14.9432l-8.5432-6.207
											l3.1035-4.2716"/>
									</g>
								</g>
								<g transform="rotate(72)">
									<g id="b_00000157992111968556663730000001555909364411849130_">
										<path id="a_00000004526621613859060830000004302004741319324862_" class="st3" d="M139.393,14.9432l8.5432-6.207
											l-3.1035-4.2716"/>
										<g transform="scale(-1 1)">
											<path id="a_00000071537974438259331130000013231867427514986383_" class="st3" d="M139.393,14.9432l3.2632-10.0432
												l5.0216,1.6316"/>
										</g>
									</g>
								</g>
							</g>
						</g>
					</g>
				</g>
				<g>
					<g id="d_00000147220402297255449850000011131901576552522421_">
						<g id="c_00000089563905080811695320000018149964872832245943_">
							<g id="b_00000138565171725131532450000009213391104523501699_">
								<path id="a_00000093173674419792368930000014533251589576808348_" class="st3" d="M145.6-46.4l-3.2632,10.0432
									l5.0216,1.6316"/>
								<g transform="scale(-1 1)">
									<path id="a_00000013877862944455072330000008103907800557194368_" class="st3" d="M145.6-46.4l3.2632,10.0432
										l-5.0216,1.6316"/>
								</g>
							</g>
							<g transform="rotate(72)">
								<g id="b_00000018932095343977151870000009787962893647341702_">
									<path id="a_00000160900459667412826220000003549574405860936344_" class="st3" d="M155.6432-39.1032h-10.56v5.28"/>
									<g transform="scale(-1 1)">
										<path id="a_00000050628315442711763310000009932491451113170847_" class="st3" d="M155.6432-39.1032l-8.5432,6.207
											l-3.1035-4.2716"/>
									</g>
								</g>
							</g>
						</g>
						<g transform="rotate(-72)">
							<g id="b_00000085930519133021923520000014710035750015885968_">
								<path id="a_00000011722272058118213840000009009827517471658938_" class="st3" d="M135.5568-39.1032l8.5432,6.207
									l3.1035-4.2716"/>
								<g transform="scale(-1 1)">
									<path id="a_00000034079743733625792180000001103385713075406783_" class="st3" d="M135.5568-39.1032h10.56v5.28"/>
								</g>
							</g>
						</g>
						<g transform="rotate(144)">
							<g id="c_00000142142975690050131440000005213491687037439901_">
								<g id="b_00000044135693313795771780000010995575305677104796_">
									<path id="a_00000018950350142250357550000011663891706303180961_" class="st3" d="M151.807-27.2968l-3.2632-10.0432
										l-5.0216,1.6316"/>
									<g transform="scale(-1 1)">
										<path id="a_00000180360596057216954930000008370363073233771657_" class="st3" d="M151.807-27.2968l-8.5432-6.207
											l3.1035-4.2716"/>
									</g>
								</g>
								<g transform="rotate(72)">
									<g id="b_00000165213552477732147800000011280206803049814941_">
										<path id="a_00000129173406790704360530000008836096039524951708_" class="st3" d="M139.393-27.2968l8.5432-6.207
											l-3.1035-4.2716"/>
										<g transform="scale(-1 1)">
											<path id="a_00000088844560615483702420000008265764842416949141_" class="st3" d="M139.393-27.2968l3.2632-10.0432
												l5.0216,1.6316"/>
										</g>
									</g>
								</g>
							</g>
						</g>
					</g>
				</g>
			</g>
		</g>
		<g>
			<g id="e_00000049206864096399911000000009692170766419278251_">
				<g id="d_00000058562865955648029070000005897759333128469397_">
					<g id="c_00000132055530458634976990000010258728965466906777_">
						<g id="b_00000038378814891244591330000008123496236207771036_">
							<path id="a_00000058585652747604383430000018156159134061984897_" class="st3" d="M187.84,38.08l-3.2632,10.0432
								l5.0216,1.6316"/>
							<g transform="scale(-1 1)">
								<path id="a_00000153668194681980640550000014921834093185616262_" class="st3" d="M187.84,38.08l3.2632,10.0432
									l-5.0216,1.6316"/>
							</g>
						</g>
						<g transform="rotate(72)">
							<g id="b_00000011018974688020132550000017879095862134592128_">
								<path id="a_00000058583676829031139270000002589903905910645172_" class="st3" d="M197.8832,45.3768h-10.56v5.28"/>
								<g transform="scale(-1 1)">
									<path id="a_00000170248781743950655130000004342960920749263804_" class="st3" d="M197.8832,45.3768l-8.5432,6.207
										l-3.1035-4.2716"/>
								</g>
							</g>
						</g>
					</g>
					<g transform="rotate(-72)">
						<g id="b_00000123415604782188320190000004167989164931935151_">
							<path id="a_00000002350852789600717310000000030172217294869646_" class="st3" d="M177.7968,45.3768l8.5432,6.207
								l3.1035-4.2716"/>
							<g transform="scale(-1 1)">
								<path id="a_00000134971499130048073280000012185523962241615750_" class="st3" d="M177.7968,45.3768h10.56v5.28"/>
							</g>
						</g>
					</g>
					<g transform="rotate(144)">
						<g id="c_00000118383831982789501460000006944766141000174492_">
							<g id="b_00000155867813430196939750000009312546118584885166_">
								<path id="a_00000163763554538666778770000011380972584751009925_" class="st3" d="M194.047,57.1832l-3.2632-10.0432
									l-5.0216,1.6316"/>
								<g transform="scale(-1 1)">
									<path id="a_00000148641035334575213160000007416570352814127527_" class="st3" d="M194.047,57.1832l-8.5432-6.207
										l3.1035-4.2716"/>
								</g>
							</g>
							<g transform="rotate(72)">
								<g id="b_00000062878224451416128250000013668829416074205834_">
									<path id="a_00000141417117768083592160000006489602768767276167_" class="st3" d="M181.633,57.1832l8.5432-6.207
										l-3.1035-4.2716"/>
									<g transform="scale(-1 1)">
										<path id="a_00000118388414229759104890000003288860064511522450_" class="st3" d="M181.633,57.1832l3.2632-10.0432
											l5.0216,1.6316"/>
									</g>
								</g>
							</g>
						</g>
					</g>
				</g>
				<g>
					<g id="d_00000008124103682196633990000012178788435062788996_">
						<g id="c_00000048475822754896925320000004640427003124823940_">
							<g id="b_00000072977656141045844050000014121395314645804183_">
								<path id="a_00000058589685639676223960000016460583452874792367_" class="st3" d="M187.84-4.16l-3.2632,10.0432
									l5.0216,1.6316"/>
								<g transform="scale(-1 1)">
									<path id="a_00000176727075415317940490000004953372257714538883_" class="st3" d="M187.84-4.16l3.2632,10.0432
										l-5.0216,1.6316"/>
								</g>
							</g>
							<g transform="rotate(72)">
								<g id="b_00000080885979281276169230000016540706162277396352_">
									<path id="a_00000161611791875574342210000016674490217041803198_" class="st3" d="M197.8832,3.1368h-10.56v5.28"/>
									<g transform="scale(-1 1)">
										<path id="a_00000018212528148848547390000001197196174162247044_" class="st3" d="M197.8832,3.1368l-8.5432,6.207
											l-3.1035-4.2716"/>
									</g>
								</g>
							</g>
						</g>
						<g transform="rotate(-72)">
							<g id="b_00000123406890369846823280000011961343071446510757_">
								<path id="a_00000026130659627102233900000003905174325882231706_" class="st3" d="M177.7968,3.1368l8.5432,6.207
									l3.1035-4.2716"/>
								<g transform="scale(-1 1)">
									<path id="a_00000039830247527128993120000014406390400432641417_" class="st3" d="M177.7968,3.1368h10.56v5.28"/>
								</g>
							</g>
						</g>
						<g transform="rotate(144)">
							<g id="c_00000027562993179004491640000007416433146746314941_">
								<g id="b_00000080203451011988596210000000195987029765892236_">
									<path id="a_00000072996731087356935010000015887799406798208687_" class="st3" d="M194.047,14.9432l-3.2632-10.0432
										l-5.0216,1.6316"/>
									<g transform="scale(-1 1)">
										<path id="a_00000054257734499325864160000008460895022618123413_" class="st3" d="M194.047,14.9432l-8.5432-6.207
											l3.1035-4.2716"/>
									</g>
								</g>
								<g transform="rotate(72)">
									<g id="b_00000079453290664453799240000001337633686595401372_">
										<path id="a_00000091005723719268630020000002863555144721216655_" class="st3" d="M181.633,14.9432l8.5432-6.207
											l-3.1035-4.2716"/>
										<g transform="scale(-1 1)">
											<path id="a_00000111870118629939730240000009402680475293411763_" class="st3" d="M181.633,14.9432l3.2632-10.0432
												l5.0216,1.6316"/>
										</g>
									</g>
								</g>
							</g>
						</g>
					</g>
				</g>
				<g>
					<g id="d_00000018945728318540275080000011126165088034491528_">
						<g id="c_00000038381957676223021640000014131156117587910590_">
							<g id="b_00000062908263352915128390000013081654026526017461_">
								<path id="a_00000117667504736293110060000018192392612523697062_" class="st3" d="M187.84-46.4l-3.2632,10.0432
									l5.0216,1.6316"/>
								<g transform="scale(-1 1)">
									<path id="a_00000028311554770179773640000006145531396614851771_" class="st3" d="M187.84-46.4l3.2632,10.0432
										l-5.0216,1.6316"/>
								</g>
							</g>
							<g transform="rotate(72)">
								<g id="b_00000179631456032867997620000006986247037244052887_">
									<path id="a_00000059308527725238325770000013431452923387669175_" class="st3" d="M197.8832-39.1032h-10.56v5.28"/>
									<g transform="scale(-1 1)">
										<path id="a_00000059990500158292808450000014481702611386023821_" class="st3" d="M197.8832-39.1032l-8.5432,6.207
											l-3.1035-4.2716"/>
									</g>
								</g>
							</g>
						</g>
						<g transform="rotate(-72)">
							<g id="b_00000090981599384745318710000004723851220986065542_">
								<path id="a_00000141457325733750614990000013883097150132601755_" class="st3" d="M177.7968-39.1032l8.5432,6.207
									l3.1035-4.2716"/>
								<g transform="scale(-1 1)">
									<path id="a_00000175305755889901504950000005270613797376346511_" class="st3" d="M177.7968-39.1032h10.56v5.28"/>
								</g>
							</g>
						</g>
						<g transform="rotate(144)">
							<g id="c_00000150072049216534439290000015932838359438292388_">
								<g id="b_00000117638981940545048440000008519368911226115716_">
									<path id="a_00000052810959518180288510000011394563922956994187_" class="st3" d="M194.047-27.2968l-3.2632-10.0432
										l-5.0216,1.6316"/>
									<g transform="scale(-1 1)">
										<path id="a_00000174601427729139611910000009183952946493265838_" class="st3" d="M194.047-27.2968l-8.5432-6.207
											l3.1035-4.2716"/>
									</g>
								</g>
								<g transform="rotate(72)">
									<g id="b_00000129919050434473600780000001603997957756208777_">
										<path id="a_00000052801270634315485950000015718652729993691009_" class="st3" d="M181.633-27.2968l8.5432-6.207
											l-3.1035-4.2716"/>
										<g transform="scale(-1 1)">
											<path id="a_00000170993551932976520640000017916976777639066532_" class="st3" d="M181.633-27.2968l3.2632-10.0432
												l5.0216,1.6316"/>
										</g>
									</g>
								</g>
							</g>
						</g>
					</g>
				</g>
			</g>
		</g>
		<g>
			<g id="d_00000127752803361357600920000000608802487571882133_">
				<g id="c_00000026125388492608115270000008050144025823561366_">
					<g id="b_00000116918657772011279520000017047015053558580670_">
						<path id="a_00000088812000825648745430000010525457072567092654_" class="st3" d="M18.88,38.08l-3.2632,10.0432l5.0216,1.6316
							"/>
						<g transform="scale(-1 1)">
							<path id="a_00000107572128647548773090000000339435327316723630_" class="st3" d="M18.88,38.08l3.2632,10.0432
								l-5.0216,1.6316"/>
						</g>
					</g>
					<g transform="rotate(72)">
						<g id="b_00000049941766641616554300000005325422976284257965_">
							<path id="a_00000023968741687463554940000016762540102378112158_" class="st3" d="M28.9232,45.3768h-10.56v5.28"/>
							<g transform="scale(-1 1)">
								<path id="a_00000026885752320403254290000002434571948240185492_" class="st3" d="M28.9232,45.3768l-8.5432,6.207
									l-3.1035-4.2716"/>
							</g>
						</g>
					</g>
				</g>
				<g transform="rotate(-72)">
					<g id="b_00000155134762248448757780000012575675970401930664_">
						<path id="a_00000094584598377312862690000015377880115777047178_" class="st3" d="M8.8368,45.3768l8.5432,6.207l3.1035-4.2716
							"/>
						<g transform="scale(-1 1)">
							<path id="a_00000046327214804467646770000013939256288801350554_" class="st3" d="M8.8368,45.3768h10.56v5.28"/>
						</g>
					</g>
				</g>
				<g transform="rotate(144)">
					<g id="c_00000041996169523708490060000006800263958658507942_">
						<g id="b_00000137126472429436775470000015284409966975773857_">
							<path id="a_00000175314608934794313740000016271116352678774931_" class="st3" d="M25.087,57.1832l-3.2632-10.0432
								l-5.0216,1.6316"/>
							<g transform="scale(-1 1)">
								<path id="a_00000163786583142515077760000003160265897250099092_" class="st3" d="M25.087,57.1832l-8.5432-6.207
									l3.1035-4.2716"/>
							</g>
						</g>
						<g transform="rotate(72)">
							<g id="b_00000023259842304996963620000012116086482628173750_">
								<path id="a_00000066490107430468473340000001666546649884992144_" class="st3" d="M12.673,57.1832l8.5432-6.207
									l-3.1035-4.2716"/>
								<g transform="scale(-1 1)">
									<path id="a_00000048484207680138229950000017627396051338275519_" class="st3" d="M12.673,57.1832l3.2632-10.0432
										l5.0216,1.6316"/>
								</g>
							</g>
						</g>
					</g>
				</g>
			</g>
		</g>
		<g>
			<g id="d_00000163793731303110827260000002369672917958293416_">
				<g id="c_00000018921197739629420340000004826054135205917372_">
					<g id="b_00000039100558447562035470000013284006711770987398_">
						<path id="a_00000095311790548613923510000003269684397227770282_" class="st3" d="M61.12,38.08l-3.2632,10.0432l5.0216,1.6316
							"/>
						<g transform="scale(-1 1)">
							<path id="a_00000118397933311714088770000010775267568811714189_" class="st3" d="M61.12,38.08l3.2632,10.0432
								l-5.0216,1.6316"/>
						</g>
					</g>
					<g transform="rotate(72)">
						<g id="b_00000028285024613903082320000008804632386429476994_">
							<path id="a_00000098929465867764372970000003806090797580072863_" class="st3" d="M71.1632,45.3768h-10.56v5.28"/>
							<g transform="scale(-1 1)">
								<path id="a_00000162319225032289191190000018252926959623413632_" class="st3" d="M71.1632,45.3768l-8.5432,6.207
									l-3.1035-4.2716"/>
							</g>
						</g>
					</g>
				</g>
				<g transform="rotate(-72)">
					<g id="b_00000164500903530405178910000002579014568069001098_">
						<path id="a_00000180334203218871905980000008839923619327408295_" class="st3" d="M51.0768,45.3768l8.5432,6.207
							l3.1035-4.2716"/>
						<g transform="scale(-1 1)">
							<path id="a_00000034785187039387392210000016814441297618061221_" class="st3" d="M51.0768,45.3768h10.56v5.28"/>
						</g>
					</g>
				</g>
				<g transform="rotate(144)">
					<g id="c_00000154419384474676435770000014999546045785910688_">
						<g id="b_00000173151261585270874510000013432747907701205133_">
							<path id="a_00000016037935636959070790000009813662011711631253_" class="st3" d="M67.327,57.1832l-3.2632-10.0432
								l-5.0216,1.6316"/>
							<g transform="scale(-1 1)">
								<path id="a_00000013877612621462011870000012991813916820300223_" class="st3" d="M67.327,57.1832l-8.5432-6.207
									l3.1035-4.2716"/>
							</g>
						</g>
						<g transform="rotate(72)">
							<g id="b_00000051375631185835273640000006989679752397002377_">
								<path id="a_00000035524379749359084220000012212622508753693367_" class="st3" d="M54.913,57.1832l8.5432-6.207
									l-3.1035-4.2716"/>
								<g transform="scale(-1 1)">
									<path id="a_00000029024059625338263110000003031548877904045467_" class="st3" d="M54.913,57.1832l3.2632-10.0432
										l5.0216,1.6316"/>
								</g>
							</g>
						</g>
					</g>
				</g>
			</g>
		</g>
		<g>
			<g id="d_00000111898956652448624300000005127969129822505088_">
				<g id="c_00000080197655168414686850000004078450317031984520_">
					<g id="b_00000031895066422341082060000015959043532872238985_">
						<path id="a_00000166676367092500067880000013394630345699098046_" class="st3" d="M61.12-4.16L57.8568,5.8832l5.0216,1.6316"
							/>
						<g transform="scale(-1 1)">
							<path id="a_00000126316397825523722440000006283309672888435384_" class="st3" d="M61.12-4.16l3.2632,10.0432l-5.0216,1.6316
								"/>
						</g>
					</g>
					<g transform="rotate(72)">
						<g id="b_00000176037711704849337580000010423792538388017049_">
							<path id="a_00000124846496216189093710000006093801651866931850_" class="st3" d="M71.1632,3.1368h-10.56v5.28"/>
							<g transform="scale(-1 1)">
								<path id="a_00000052101684424400900750000013473868743702890886_" class="st3" d="M71.1632,3.1368l-8.5432,6.207
									l-3.1035-4.2716"/>
							</g>
						</g>
					</g>
				</g>
				<g transform="rotate(-72)">
					<g id="b_00000010304096641621000190000000587241696177912717_">
						<path id="a_00000162327625235595809430000000344587656262529455_" class="st3" d="M51.0768,3.1368l8.5432,6.207l3.1035-4.2716
							"/>
						<g transform="scale(-1 1)">
							<path id="a_00000000222393221512144160000003476819793540170429_" class="st3" d="M51.0768,3.1368h10.56v5.28"/>
						</g>
					</g>
				</g>
				<g transform="rotate(144)">
					<g id="c_00000130631276928528663840000012557643804141611919_">
						<g id="b_00000174571031751201799080000018123716728820873622_">
							<path id="a_00000103981223737091363330000009023936406918828694_" class="st3" d="M67.327,14.9432L64.0638,4.9001
								l-5.0216,1.6316"/>
							<g transform="scale(-1 1)">
								<path id="a_00000043419024862696451110000014620140989870500776_" class="st3" d="M67.327,14.9432l-8.5432-6.207
									l3.1035-4.2716"/>
							</g>
						</g>
						<g transform="rotate(72)">
							<g id="b_00000021093104939209533250000011204154909981431964_">
								<path id="a_00000067218866937478237370000010295269571718408860_" class="st3" d="M54.913,14.9432l8.5432-6.207
									l-3.1035-4.2716"/>
								<g transform="scale(-1 1)">
									<path id="a_00000126294714780214090220000017172267133084080036_" class="st3" d="M54.913,14.9432l3.2632-10.0432
										l5.0216,1.6316"/>
								</g>
							</g>
						</g>
					</g>
				</g>
			</g>
		</g>
	</g>
</g>
</svg>
