<?xml version="1.0" encoding="utf-8"?>
<!-- Generator: Adobe Illustrator 27.9.0, SVG Export Plug-In . SVG Version: 6.00 Build 0)  -->
<!DOCTYPE svg PUBLIC "-//W3C//DTD SVG 1.1//EN" "http://www.w3.org/Graphics/SVG/1.1/DTD/svg11.dtd" [
	<!ENTITY ns_extend "http://ns.adobe.com/Extensibility/1.0/">
	<!ENTITY ns_ai "http://ns.adobe.com/AdobeIllustrator/10.0/">
	<!ENTITY ns_graphs "http://ns.adobe.com/Graphs/1.0/">
	<!ENTITY ns_vars "http://ns.adobe.com/Variables/1.0/">
	<!ENTITY ns_imrep "http://ns.adobe.com/ImageReplacement/1.0/">
	<!ENTITY ns_sfw "http://ns.adobe.com/SaveForWeb/1.0/">
	<!ENTITY ns_custom "http://ns.adobe.com/GenericCustomNamespace/1.0/">
	<!ENTITY ns_adobe_xpath "http://ns.adobe.com/XPath/1.0/">
]>
<svg version="1.1" id="Layer_1" xmlns:x="&ns_extend;" xmlns:i="&ns_ai;" xmlns:graph="&ns_graphs;"
	 xmlns="http://www.w3.org/2000/svg" xmlns:xlink="http://www.w3.org/1999/xlink" x="0px" y="0px" width="100px" height="100px"
	 viewBox="0 0 100 100" style="enable-background:new 0 0 100 100;" xml:space="preserve">
<style type="text/css">
	.st0{fill:#231F20;}
</style>
<metadata>
	<sfw  xmlns="&ns_sfw;">
		<slices></slices>
		<sliceSourceBounds  bottomLeftOrigin="true" height="87.562" width="99.9972" x="35.6005" y="6.2187"></sliceSourceBounds>
	</sfw>
</metadata>
<path class="st0" d="M85.7734,85.2058c-0.5436,0.0298-0.9804,0.0745-1.4172,0.0745c-7.4336,0.005-14.8697,0.005-22.3033,0.0025
	c-1.5016,0-1.4693-0.0099-1.4644-1.5537c0.0149-5.2867,0.144-10.5758-0.0422-15.855c-0.1092-3.0851-0.8141-6.143-1.1144-9.2281
	c-0.479-4.9243-1.0697-9.856-1.2063-14.7977c-0.2035-7.3194-0.0571-14.6513-0.0496-21.9782
	c0.0025-1.6853,0.9556-2.8618,2.3604-2.9859c1.7051-0.1489,2.9908,0.9928,3.0231,2.7674c0.0372,2.0328,0.0099,4.0705,0.0099,6.1057
	c0,5.0683,0,10.139,0.0025,15.2073c0,0.3351-0.1191,0.7669,0.0447,0.9779c0.3028,0.3872,0.7545,0.8488,1.1814,0.8886
	c0.35,0.0323,0.891-0.4269,1.0921-0.8066c0.206-0.3847,0.1216-0.9357,0.1216-1.4147c0.005-8.9923,0.005-17.9846,0.0074-26.9769
	c0-0.5187-0.0099-1.04,0.0472-1.5513c0.1812-1.5761,1.4296-2.6235,2.966-2.5217c1.4644,0.0968,2.5366,1.2633,2.5391,2.8295
	c0.0074,9.6947,0.0025,19.3894,0.0099,29.0866c0,0.4368-0.072,0.9829,0.1514,1.2882c0.278,0.3773,0.834,0.7694,1.2584,0.7595
	c0.3698-0.0074,0.8166-0.5138,1.0598-0.9059c0.1688-0.2705,0.0546-0.7198,0.0546-1.0896
	C74.108,32.2795,74.108,21.0285,74.108,9.7801c0-0.4071-0.0223-0.8191,0.0248-1.2211c0.139-1.1938,1.1616-2.1941,2.3356-2.3232
	c1.2584-0.139,2.4969,0.6155,2.8295,1.8317c0.1713,0.6304,0.2135,1.313,0.2135,1.9732c0.0124,11.0275,0.0099,22.0551,0.0099,33.0826
	c0,0.3698-0.1216,0.8116,0.0372,1.0946c0.2408,0.4219,0.69,1.0325,1.0276,1.0176c0.4443-0.0199,0.9829-0.489,1.2584-0.9109
	c0.206-0.3152,0.0745-0.8613,0.0745-1.3055c0.0025-9.1785,0.0025-18.3544,0.0025-27.5329c0-0.2954-0.0025-0.5907,0-0.8886
	c0.0223-1.8987,1.1541-3.2241,2.7749-3.239c1.658-0.0174,2.8369,1.3353,2.8419,3.2986c0.0099,3.0702,0.0025,6.1405,0.0025,9.2132
	c0,6.4755-0.0348,12.9511,0.0273,19.4267c0.0149,1.4619-0.7521,2.5192-1.4048,3.651c-0.1564,0.2705-0.6825,0.3797-1.0623,0.4592
	c-3.5542,0.7595-6.7535,2.1618-9.1338,5.0335c-1.9459,2.3505-2.7774,5.0906-2.7327,8.1186
	c0.0124,0.8191,0.3475,1.4023,1.2261,1.3775c0.7719-0.0223,1.2063-0.5262,1.2087-1.308c0.0149-6.2869,4.2492-9.5681,9.2057-10.5436
	c2.2388-0.4393,3.4177-1.452,4.3659-3.3855c1.6605-3.378,3.5418-6.6493,5.3562-9.9528c0.7769-1.4123,2.0923-1.9782,3.4252-1.5562
	c1.514,0.4815,2.3281,2.0228,1.8292,3.6485c-1.3725,4.48-2.4944,9.0692-4.269,13.3855c-1.6481,4.0084-3.9985,7.7314-6.0685,11.5637
	c-0.6875,1.2658-1.4148,2.5168-2.2239,3.7081c-1.0822,1.5959-1.4966,3.3706-1.514,5.242c-0.0348,3.7305-0.005,7.4609-0.0025,11.1938
	C85.7734,84.3321,85.7734,84.7292,85.7734,85.2058"/>
<path class="st0" d="M89.0948,93.7813H57.7074c0-1.8565-0.0248-3.656,0.0323-5.4505c0.0074-0.206,0.4418-0.5411,0.7024-0.5684
	c0.7669-0.0769,1.5488-0.0298,2.3232-0.0298c9.0519,0,18.1013,0.0124,27.1507-0.0174c0.9035-0.0025,1.2385,0.2358,1.1988,1.174
	C89.0452,90.4728,89.0948,92.0588,89.0948,93.7813"/>
<path class="st0" d="M39.3035,85.1953H14.347c0-2.2561,0.0521-4.4602-0.0149-6.6617c-0.0819-2.7302-0.211-5.4604-0.4368-8.1807
	c-0.0596-0.7347-0.4617-1.4793-0.8389-2.142c-2.3058-4.0457-4.6835-8.0491-6.972-12.1072
	c-2.3256-4.1251-3.2341-8.7764-4.7381-13.2067c-0.4021-1.1889-0.7496-2.3951-1.1119-3.5939
	c-0.5858-1.931-0.0596-3.3582,1.4693-4.0084c1.4793-0.6279,2.8493-0.0223,3.8,1.7151c2.0551,3.7602,4.1251,7.513,6.1157,11.308
	c0.4939,0.9382,1.1442,1.308,2.142,1.4495c2.487,0.3524,4.7853,1.2187,6.7833,2.7873c2.4622,1.9335,3.6039,4.5148,3.7379,7.5949
	c0.0074,0.1464,0,0.2954,0.005,0.4443c0.0273,0.8315,0.4393,1.3552,1.2857,1.3428c0.8141-0.0124,1.1392-0.5684,1.1517-1.3378
	c0.0596-3.6659-1.1517-6.823-3.8421-9.3423c-2.1047-1.9732-4.6711-3.0678-7.446-3.7205c-1.7275-0.407-3.0107-2.0352-3.0156-3.867
	c-0.0099-4.8101-0.0025-9.6203-0.0025-14.4304c0-4.9218-0.005-9.8436,0.0025-14.7654c0.0025-1.2906,0.5237-2.2884,1.7349-2.8543
	c1.0623-0.4964,2.0303-0.2482,2.8891,0.4592c0.8389,0.695,1.0027,1.6605,1.0002,2.7029c-0.0124,9.3994-0.0074,18.7987-0.005,28.1981
	c0,0.4071-0.0149,0.8166,0.0273,1.2211c0.0745,0.7446,0.5659,1.236,1.2509,1.0598c0.4368-0.1117,0.8141-0.6751,1.0871-1.1169
	c0.1514-0.2407,0.0323-0.6503,0.0323-0.9829c0.0025-11.0648-0.0025-22.1296,0.0099-33.1943c0-0.623,0.0447-1.2658,0.206-1.864
	c0.3301-1.2261,1.5364-1.9906,2.7997-1.8689c1.2187,0.1166,2.2586,1.1541,2.3802,2.4001c0.0347,0.3673,0.0174,0.7396,0.0174,1.1095
	c0.0025,11.2509,0.0025,22.4994,0.0025,33.7478c0,0.2978-0.0174,0.5957,0.0074,0.8886c0.0596,0.7198,0.4244,1.1715,1.179,1.2162
	c0.7669,0.0447,1.1665-0.3996,1.3006-1.0921c0.0695-0.3574,0.0422-0.7347,0.0422-1.1045c0.0025-9.6227,0.0099-19.243-0.0099-28.8632
	c-0.0025-1.1988,0.4443-2.0874,1.4718-2.6533c0.9556-0.5262,1.9856-0.5262,2.8096,0.1737c0.5262,0.4443,0.9109,1.1318,1.1715,1.7846
	c0.1961,0.4865,0.1142,1.0946,0.1142,1.6481c0.005,9.0271,0.0025,18.0566,0.0074,27.0861c0,0.479-0.0993,1.0449,0.1167,1.4147
	c0.2283,0.3971,0.7868,0.8563,1.1765,0.834c0.3946-0.0223,0.829-0.551,1.107-0.9531c0.1588-0.2283,0.0422-0.6478,0.0422-0.9804
	c0-6.9943-0.005-13.9886,0.0025-20.9829c0.0025-1.7275,0.9928-2.9288,2.4423-3.0231c1.7498-0.1167,2.9437,1.0524,2.9486,2.9511
	c0.0124,5.6615-0.0397,11.3229,0.0149,16.9844c0.0844,8.414-0.6974,16.7585-1.9533,25.0633
	c-0.8811,5.8129-0.7074,11.6431-0.546,17.4832C39.3333,82.6116,39.3035,83.86,39.3035,85.1953"/>
<path class="st0" d="M10.8712,93.7674c0-1.8615-0.0273-3.6287,0.0347-5.3934c0.0099-0.2209,0.484-0.5808,0.7694-0.6106
	c0.8414-0.0819,1.6977-0.0323,2.5465-0.0323c8.9749,0.0025,17.9523,0.0149,26.9273-0.0124
	c0.8786-0.0025,1.1641,0.2482,1.1293,1.1268c-0.0596,1.6133-0.0174,3.2316-0.0174,4.9218H10.8712z"/>
</svg>
