<?xml version="1.0" encoding="UTF-8"?><svg id="Layer_1" xmlns="http://www.w3.org/2000/svg" viewBox="0 0 200 200"><defs><style>.cls-1{fill:#fff;}.cls-1,.cls-2{stroke-width:0px;}.cls-2{fill:#f60;}</style></defs><circle class="cls-2" cx="100" cy="100" r="100"/><path class="cls-1" d="m73.83,51.36c5.21-4.21,12.34-4.94,17.73-1.88,1.32.75,2.26.49,3.28-.55,2.82-2.86,6.52-3.58,9.53-1.94.34.18.63.44,1.04.73-1.83,1.99-3.14,4.15-3.49,6.82-.32,2.5.25,4.77,1.28,7.03,1.3,2.86,2.47,5.78,3.58,8.72.53,1.4.28,2.74-.93,3.85-.98.9-1.05,2.01-.1,2.98.96.98,2.03.81,3.02-.01,2.31-1.92,2.92-4.53,2.16-7.19-.92-3.22-2.17-6.38-3.6-9.42-2.44-5.19-1.21-9.12,3.95-11.72,8.28-4.16,17.33-2.56,23.71,4.04.67.7,1.95,1.1,2.97,1.14,5.14.19,9.58,1.91,13.1,5.71,2.25,2.43,3.52,5.32,3.73,8.66.06.96-.12,1.46-1.25,1.72-3.67.87-6.31,3.12-7.87,6.57-.72,1.58-.38,2.75.87,3.3,1.17.51,2.17-.01,2.9-1.5.22-.45.42-.94.71-1.34,2.26-3.03,6.26-5.02,9.74-.32,2.35,3.18,2.55,7.02.32,10.23-1,1.44-.97,2.54.16,3.91,3.59,4.4,2.82,9.72-1.82,12.57-2.69-2.71-5.92-4.36-9.82-4.53-3.2-.14-6.12.68-8.79,2.46-1.17.78-1.56,1.78-.91,3.03.6,1.15,1.86,1.33,3.22.45,2.33-1.51,4.87-2.23,7.56-1.6,5.81,1.35,7.35,4.09,7.47,10,.16,8.06-5.9,14.95-13.9,15.92-1.68.2-2.78.97-3.99,2.11-1.94,1.82-4.08,3.64-6.47,4.73-5.7,2.59-10.79-.62-11.28-6.89-.13-1.72.09-3.48.26-5.21.11-1.13.17-2.21-.99-2.8-1.2-.61-2.11-.05-2.96.87-5.76,6.29-14.14,6.83-20.49,1.29-1.25-1.09-2.39-1.15-3.84-.49-4.77,2.17-11.17.96-14.34-2.64,2.73-5.66,7.96-8.63,14.11-8.04,4.82.46,9.39-.25,13.17-3.51,1.33-1.15,2.39-2.68,3.35-4.17.67-1.05.46-2.27-.76-2.9-1.16-.59-2.19-.26-2.86.92-2.58,4.57-6.79,6.04-11.63,5.48-8.18-.94-14.08,2.42-18.46,9.01-1.95,2.93-4.23,3.84-7.72,2.88-2.51-.69-4.42-2.17-5.73-4.42-1.29-2.21-2.08-2.4-4.14-1.04-3.63,2.41-8.23,1.43-10.35-2.37-.85-1.52-1.82-1.94-3.52-1.84-6.39.39-11.37-5.62-9.97-11.85.88-3.93,5.91-7.04,10.36-6.23,1.86.34,3.69,1,5.43,1.77,3.54,1.56,7.15,1.98,10.89,1.08,3.16-.76,5.36-2.76,6.79-5.63.57-1.13.31-2.12-.76-2.77-1.1-.67-2.05-.33-2.79.67-3.2,4.29-7.22,5.11-12.43,2.83-2.19-.96-4.54-1.76-6.89-2.1-4.58-.66-8.52.97-11.9,4.38-1.11-2.52-.98-4.92-.27-7.31,1.14-3.85,3.59-6.62,7.32-8.1,1.61-.64,2.23-1.57,2.26-3.29.09-5.43,3.6-9.79,8.91-11.11,1.26-.31,2.03-.94,2.63-2.1,2.61-5.04,7.9-7.36,13.38-6.01.71.17,1.43.31,2.15.41,5.16.72,9,3.33,11.48,7.93.86,1.6,1.87,2.06,3.07,1.45,1.23-.63,1.43-1.86.53-3.5-2.22-4.05-5.48-6.95-9.72-8.77-.4-.17-.8-.35-1.37-.6Zm59.27,29.68c.07-2.03-.65-3.15-1.92-3.2-1.15-.04-2.12.52-2.14,1.69-.06,3.24-2.07,4.89-4.62,6.27-3.39,1.83-5.12,4.78-5.44,8.58-.11,1.37.49,2.39,1.89,2.53,1.41.14,2.2-.75,2.27-2.14.13-2.51,1.57-4.12,3.53-5.42,1.12-.74,2.29-1.45,3.3-2.33,1.9-1.65,2.98-3.77,3.14-5.98Zm-8.17-22.16c-2-.04-3.09.66-3.15,1.93-.05,1.15.54,2.18,1.68,2.15,2.76-.07,4.08,1.65,5.43,3.63,1.76,2.59,4.34,3.87,7.48,3.88,1.18,0,2.1-.52,2.22-1.84.12-1.28-.56-2.26-1.75-2.25-2.8.02-4.23-1.66-5.52-3.77-1.5-2.44-3.85-3.52-6.38-3.74Zm-64.79,5.33c-.46.04-1.09-.1-1.33.14-.61.62-1.42,1.4-1.43,2.13-.01.61,1,1.77,1.55,1.76,2.68-.03,4,1.61,5.32,3.55,1.87,2.75,4.53,4.15,7.91,3.98,1.2-.06,1.87-.81,1.9-1.96.03-1.15-.61-2.1-1.77-2.08-2.72.05-4.16-1.57-5.43-3.63-1.53-2.48-3.85-3.68-6.72-3.89Zm30.94,33.93c1.97.1,3.12-.27,3.3-1.83.14-1.16-.54-2.2-1.63-2.19-2.94.02-4.37-1.79-5.79-3.96-1.71-2.6-4.29-3.74-7.4-3.54-1.13.07-1.92.69-1.98,1.91-.06,1.18.53,2.16,1.69,2.12,2.69-.08,4.01,1.58,5.31,3.52,1.67,2.49,4.08,3.81,6.51,3.96Z"/><path class="cls-1" d="m130.91,141.02c.29,4.28.51,8.37.87,12.45.16,1.84.6,3.66.95,5.48.28,1.41-.19,2.18-1.68,2.24-1.86.08-3.72.29-5.56.19-.63-.03-1.47-.71-1.77-1.31-.52-1.03-.72-2.24-1.03-3.38-1.09-4.13-3.68-6.86-7.67-8.31-5.32-1.94-10.04-4.83-13.94-8.95-2.88-3.04-3.96-6.83-4.2-11.17,6.81,3.98,13.49,4.04,20.38.05.23,3.79,1.44,7.02,4.07,9.64,2.68,2.67,5.95,3.46,9.57,3.08Z"/></svg>