<?xml version="1.0" encoding="UTF-8"?><svg id="Layer_1" xmlns="http://www.w3.org/2000/svg" viewBox="0 0 200 200"><defs><style>.cls-1{stroke-width:0px;}</style></defs><path class="cls-1" d="m125.4,0c2.79,1.14,5.86,1.88,8.32,3.52,5,3.33,7.16,8.41,7.3,14.36.04,1.75,0,3.51,0,5.56.76,0,1.45,0,2.13,0,8.85,0,17.71-.04,26.56.01,8.5.05,15.04,4.86,17.42,12.7,2.52,8.31-1.68,17.41-9.72,20.85-1.17.5-1.66,1.06-1.77,2.37-1.08,13.68-2.24,27.36-3.38,41.04-1.25,14.98-2.51,29.95-3.75,44.93-.98,11.8-2.03,23.6-2.86,35.41-.46,6.47-2.28,12.11-7.84,16.01-3.08,2.16-6.53,3.21-10.26,3.21-31.7.02-63.41.06-95.11-.02-9.49-.02-16.8-6.67-17.71-16.11-1.17-12.11-2.08-24.24-3.09-36.37-1.13-13.55-2.26-27.1-3.38-40.65-1.1-13.29-2.18-26.58-3.28-39.88-.22-2.66-.39-5.33-.75-7.96-.09-.65-.72-1.5-1.32-1.77-8.99-4.09-13.01-13.61-9.53-22.75,2.52-6.61,9.16-10.98,16.91-11.02,8.79-.04,17.58-.01,26.37-.01.7,0,1.4,0,2.53,0,0-2.73-.25-5.34.05-7.89.96-8.11,6.61-13.87,14.66-15.27.25-.04.47-.19.71-.28C91.54,0,108.47,0,125.4,0ZM36.07,58.68c.23,2.83.44,5.43.65,8.02.96,11.67,1.92,23.34,2.89,35.01,1.11,13.42,2.24,26.84,3.36,40.26,1.1,13.23,2.14,26.46,3.28,39.68.42,4.87,2.46,6.62,7.34,6.62,21.35,0,42.7,0,64.05,0,9.89,0,19.79.01,29.68,0,3.66,0,5.91-1.95,6.31-5.55.43-3.88.72-7.77,1.04-11.66,1.36-16.47,2.68-32.94,4.05-49.41,1.5-18.02,3.02-36.04,4.53-54.07.25-2.95.44-5.9.67-8.89H36.07Zm63.94-11.81c22.85,0,45.71,0,68.56,0,.78,0,1.57.04,2.34-.05,4.02-.45,6.43-4.65,4.7-8.26-1.29-2.69-3.62-3.43-6.46-3.43-46.1.03-92.19.02-138.29.02-.59,0-1.18-.02-1.76.05-3,.34-5.27,2.85-5.26,5.81,0,2.96,2.26,5.48,5.27,5.81.77.08,1.56.05,2.34.05,22.85,0,45.71,0,68.56,0Zm-29.27-23.57h58.57c0-1.75.01-3.37,0-4.98-.03-4.29-2.34-6.58-6.67-6.6-6.37-.02-12.75,0-19.12,0-8.85,0-17.69-.02-26.54.01-3.49.01-6.01,2.19-6.22,5.44-.13,2-.02,4.01-.02,6.14Z"/><path class="cls-1" d="m76.57,170.75c.1,2.84-2.11,5.6-5.58,5.78-3.44.18-5.93-2.41-6.17-6.33-1.37-22.13-2.77-44.26-4.16-66.39-.55-8.83-1.08-17.65-1.64-26.48-.18-2.86.7-5.16,3.39-6.45,3.76-1.8,8,.79,8.29,5.09.7,10.58,1.32,21.16,1.98,31.74.99,15.84,1.98,31.67,2.97,47.51.3,4.8.58,9.61.94,15.53Z"/><path class="cls-1" d="m140.57,83.85c-1.38,22-2.76,44-4.14,66-.43,6.81-.85,13.63-1.25,20.45-.22,3.81-2.67,6.35-6.07,6.24-3.48-.11-5.86-2.88-5.63-6.81.65-11.17,1.37-22.33,2.07-33.49.73-11.68,1.46-23.36,2.19-35.05.53-8.44,1.02-16.88,1.59-25.31.22-3.34,2.92-5.71,6.12-5.55,3.13.15,5.56,2.66,5.53,5.92-.02,2.53-.27,5.06-.42,7.59,0,0,0,0,0,0Z"/><path class="cls-1" d="m105.86,123.63c0,15.49.01,30.98,0,46.48,0,4.58-3.77,7.51-7.76,6.08-2.38-.85-3.65-2.62-3.92-5.11-.07-.64-.03-1.3-.03-1.95,0-30.46,0-60.93,0-91.39,0-4.68,2.16-7.41,5.86-7.41,3.7,0,5.86,2.72,5.86,7.41,0,15.3,0,30.59,0,45.89Z"/></svg>