<?xml version="1.0" encoding="UTF-8"?><svg id="Layer_1" xmlns="http://www.w3.org/2000/svg" viewBox="0 0 200 200"><defs><style>.cls-1{stroke-width:0px;}</style></defs><path class="cls-1" d="m0,32.8c.31-1.11.6-2.23.93-3.33,2.61-8.6,10.34-14.64,19.33-15.11.91-.05,1.82-.07,2.73-.07,27.47,0,54.94,0,82.41,0,1.17,0,2.37-.01,3.5.23,3.24.71,5.52,3.88,5.33,7.24-.19,3.49-2.82,6.34-6.22,6.7-.9.1-1.82.06-2.73.06-27.6,0-55.2,0-82.8,0-4.11,0-6.95,1.81-7.83,5.12-.33,1.23-.33,2.58-.33,3.87-.02,28.71-.01,57.41-.01,86.12,0,17.71,0,35.41,0,53.12,0,.97,0,1.96.13,2.92.39,3.02,2.91,5.5,5.94,5.87.9.11,1.82.12,2.73.12,41.73,0,83.45,0,125.18,0,.91,0,1.83-.01,2.73-.12,3.18-.38,5.74-3.01,6.03-6.21.08-.91.07-1.82.07-2.73,0-22.65,0-45.31.02-67.96,0-1.35.12-2.76.54-4.03.95-2.91,3.93-4.78,6.98-4.62,3.09.16,5.74,2.28,6.47,5.31.25,1.06.32,2.19.32,3.28.02,22.91.02,45.83.01,68.74,0,11.82-6.63,19.94-18.22,22.36-.18.04-.33.18-.5.28H18.75c-.36-.12-.71-.29-1.08-.36-6.06-1.13-10.96-4.19-14.11-9.45C1.93,187.46,1.16,184.24,0,181.24,0,131.76,0,82.28,0,32.8Z"/><path class="cls-1" d="m200,28.25c-.12,6.65-2.82,13.22-8.23,18.63-31.11,31.12-62.22,62.23-93.37,93.3-1.15,1.15-2.72,2.07-4.26,2.59-13.59,4.61-27.23,9.11-40.85,13.65-2.6.87-5.12,1-7.45-.68-2.77-2-3.58-5.12-2.32-8.92,3.77-11.34,7.82-22.6,11.25-34.05,1.99-6.64,5.44-11.87,10.36-16.74,29.24-28.93,58.27-58.07,87.33-87.19C158.11,3.18,164.76,0,172.8,0c14.97.03,27.16,12.29,27.2,28.24ZM61.35,138.58c.64-.16,1.01-.23,1.36-.34,8.44-2.82,16.89-5.63,25.31-8.51.87-.3,1.68-.96,2.35-1.63,30.12-30.09,60.22-60.2,90.32-90.31.83-.83,1.65-1.68,2.34-2.61,3-4.06,3.53-8.52,1.49-13.08-2.07-4.63-5.79-7.24-10.91-7.66-4.57-.38-8.13,1.61-11.27,4.75-27.6,27.63-55.11,55.37-82.95,82.76-6.16,6.06-10.87,12.44-12.9,20.92-1.26,5.26-3.34,10.33-5.13,15.72Z"/></svg>