<?xml version="1.0" encoding="UTF-8"?><svg id="Layer_1" xmlns="http://www.w3.org/2000/svg" viewBox="0 0 200 200"><defs><style>.cls-1{stroke-width:0px;}</style></defs><path class="cls-1" d="m0,98.44c17.89-29.47,42.55-50.22,76.67-58.21,22.39-5.24,44.34-2.96,65.5,6.12,1.53.66,2.37.44,3.48-.69,6.12-6.21,12.31-12.34,18.48-18.49,1.81-1.8,3.93-2.48,6.42-1.73,2.32.7,3.76,2.3,4.28,4.63.56,2.52-.44,4.52-2.23,6.3-8.45,8.38-16.86,16.81-25.28,25.21-36.92,36.85-73.84,73.7-110.74,110.56-1.8,1.8-3.73,3.1-6.37,2.62-2.43-.44-4.12-1.86-4.89-4.25-.79-2.47-.16-4.62,1.65-6.43,5.19-5.2,10.39-10.39,15.61-15.58.51-.5,1.1-.92,1.88-1.56C25.89,135.16,10.88,120.36,0,101.56v-3.12Zm69.3,23.11c-11.36-16.77-7.18-35.81,3.26-47.09,10.24-11.06,30.61-17.57,49-5.19,4.19-4.19,8.37-8.36,12.57-12.55-.18-.09-.45-.26-.74-.37-21.33-8.06-42.85-8.5-64.33-.91-23.16,8.18-40.72,23.58-54.7,43.4-.75,1.07-.41,1.7.18,2.54,7.19,10.31,15.7,19.4,25.69,27.04,4.27,3.26,8.8,6.17,13.1,9.15,5.5-5.51,10.69-10.71,15.97-16.01Zm9.27-9.27c11.3-11.28,22.51-22.47,33.7-33.64-6.99-5.03-20.29-5.57-29.63,3.44-9.24,8.92-9.49,22.27-4.08,30.21Z"/><path class="cls-1" d="m200,101.56c-17.19,28.42-40.88,48.69-73.41,57.45-18.95,5.11-37.98,4.45-56.82-1.02-.24-.07-.46-.22-.94-.46,3.31-3.28,6.5-6.48,9.76-9.62.32-.31,1.11-.34,1.62-.24,31.18,6.51,58.53-1.67,82.77-21.6,8.69-7.14,16.1-15.48,22.54-24.7.71-1.01.73-1.69,0-2.71-7.39-10.49-16.07-19.74-26.24-27.6-.66-.51-1.32-1.03-1.91-1.49,3.03-3,5.98-5.91,9.13-9.02,13.4,10.45,24.92,22.86,33.5,37.89v3.12Z"/><path class="cls-1" d="m90.41,135.99c3.7-3.68,7.18-7.17,10.72-10.6.46-.44,1.25-.68,1.91-.76,11.34-1.41,20.23-10.27,21.62-21.56.08-.67.31-1.46.75-1.92,3.44-3.54,6.94-7,10.46-10.53,3.31,7.97,1.78,22.7-6.93,33.17-10.31,12.38-26.39,15.91-38.54,12.2Z"/></svg>