<?xml version="1.0" encoding="UTF-8"?><svg id="Layer_1" xmlns="http://www.w3.org/2000/svg" viewBox="0 0 200 200"><defs><style>.cls-1{fill:#fff;}.cls-1,.cls-2{stroke-width:0px;}.cls-2{fill:#ff6600;}</style></defs><path class="cls-2" d="m100.12,0c55.3.13,100.08,45.04,99.88,100.17-.2,55.33-45.16,100.1-100.23,99.83C44.48,199.72-.07,155.03,0,99.93.07,44.67,44.96-.13,100.12,0Zm11.78,117.1c0-9.38-.08-18.76.04-28.13.04-3.25-1.36-5.39-4.14-6.64-5-2.25-10.12-2.31-15.18-.23-3,1.23-4.46,3.49-4.45,6.91.08,18.6.08,37.21,0,55.81-.01,3.12,1.28,5.26,3.87,6.64,5.5,2.93,11.03,2.79,16.42-.31,2.39-1.37,3.53-3.45,3.49-6.37-.12-9.22-.05-18.45-.05-27.68Zm-11.62-50.58c.48-.04,1.17-.02,1.83-.15,4.62-.89,8.14-3.25,9.72-7.83,1.31-3.79.27-7.16-2.45-10-5-5.22-14.24-5.09-19.14.22-3.61,3.91-3.71,9.36-.2,13.36,2.65,3.02,6.05,4.4,10.24,4.4Z"/><path class="cls-1" d="m111.9,117.1c0,9.23-.08,18.45.05,27.68.04,2.93-1.1,5-3.49,6.37-5.39,3.1-10.92,3.24-16.42.31-2.58-1.38-3.88-3.52-3.87-6.64.08-18.6.08-37.21,0-55.81-.01-3.42,1.45-5.68,4.45-6.91,5.06-2.08,10.19-2.02,15.18.23,2.78,1.25,4.18,3.39,4.14,6.64-.12,9.38-.04,18.75-.04,28.13Z"/><path class="cls-1" d="m100.29,66.52c-4.19,0-7.59-1.38-10.24-4.4-3.51-4-3.41-9.45.2-13.36,4.91-5.31,14.14-5.44,19.14-.22,2.72,2.84,3.76,6.21,2.45,10-1.58,4.59-5.1,6.94-9.72,7.83-.66.13-1.35.11-1.83.15Z"/></svg>