<?xml version="1.0" encoding="utf-8"?>
<!-- Generator: Adobe Illustrator 27.9.0, SVG Export Plug-In . SVG Version: 6.00 Build 0)  -->
<!DOCTYPE svg PUBLIC "-//W3C//DTD SVG 1.1//EN" "http://www.w3.org/Graphics/SVG/1.1/DTD/svg11.dtd" [
	<!ENTITY ns_extend "http://ns.adobe.com/Extensibility/1.0/">
	<!ENTITY ns_ai "http://ns.adobe.com/AdobeIllustrator/10.0/">
	<!ENTITY ns_graphs "http://ns.adobe.com/Graphs/1.0/">
	<!ENTITY ns_vars "http://ns.adobe.com/Variables/1.0/">
	<!ENTITY ns_imrep "http://ns.adobe.com/ImageReplacement/1.0/">
	<!ENTITY ns_sfw "http://ns.adobe.com/SaveForWeb/1.0/">
	<!ENTITY ns_custom "http://ns.adobe.com/GenericCustomNamespace/1.0/">
	<!ENTITY ns_adobe_xpath "http://ns.adobe.com/XPath/1.0/">
]>
<svg version="1.1" id="Layer_1" xmlns:x="&ns_extend;" xmlns:i="&ns_ai;" xmlns:graph="&ns_graphs;"
	 xmlns="http://www.w3.org/2000/svg" xmlns:xlink="http://www.w3.org/1999/xlink" x="0px" y="0px" width="200px" height="200px"
	 viewBox="0 0 200 200" style="enable-background:new 0 0 200 200;" xml:space="preserve">
<style type="text/css">
	.st0{fill:#8F8F8F;}
	.st1{fill:#FFFFFF;}
</style>
<metadata>
	<sfw  xmlns="&ns_sfw;">
		<slices></slices>
		<sliceSourceBounds  bottomLeftOrigin="true" height="200.0015" width="200.0007" x="-0.0001" y="-0.0012"></sliceSourceBounds>
	</sfw>
</metadata>
<path class="st0" d="M100.12,0C155.42,0.13,200.2,45.04,200,100.17c-0.2,55.33-45.16,100.1-100.23,99.83
	C44.48,199.72-0.07,155.03,0,99.93C0.07,44.67,44.96-0.13,100.12,0z"/>
<g>
	<path class="st1" d="M65.7981,80.6616c-3.4552,0-6.1493-3.0575-5.6441-6.4755C63.1004,54.2508,77.7118,40.353,99.2723,40.353
		c30.8438,0,40.6348,18.9302,40.6348,31.4961c0,15.8301-6.6904,22.1943-13.708,27.5801
		c-6.8947,5.1302-14.2616,9.3159-15.9105,18.5919c-0.0586,0.33-0.0827,0.6695-0.0827,1.0046v0c0,3.1472-2.5513,5.6985-5.6985,5.6985
		H93.874c-3.1472,0-5.6985-2.5513-5.6985-5.6985v-1.4042c0-0.1602,0.0056-0.3242,0.0174-0.4839
		c1.0377-14.0282,7.6899-20.3486,14.1799-25.3792c6.3643-5.0586,11.9131-8.812,11.9131-17.6245
		c0-9.9546-5.2217-14.687-13.8711-14.687c-10.0521,0-15.0876,7.0468-16.435,16.3379c-0.4059,2.799-2.7973,4.8769-5.6256,4.8769
		C74.655,80.6616,69.6884,80.6616,65.7981,80.6616z M91.5889,134.5151h14.2242c3.1472,0,5.6985,2.5513,5.6985,5.6985v13.7349
		c0,3.1472-2.5513,5.6985-5.6985,5.6985H91.5889c-3.1472,0-5.6985-2.5513-5.6985-5.6985v-13.7349
		C85.8904,137.0664,88.4417,134.5151,91.5889,134.5151z"/>
</g>
</svg>
