<?xml version="1.0" encoding="UTF-8"?><svg id="Layer_1" xmlns="http://www.w3.org/2000/svg" viewBox="0 0 200 200"><defs><style>.cls-1{stroke-width:0px;}</style></defs><path class="cls-1" d="m103.14,38.1c2.94.63,5.96,1.03,8.81,1.94,16.9,5.43,28.2,22.1,26.82,39.38-1.46,18.41-14.69,32.98-32.58,35.88-22.08,3.58-42.59-12.17-44.87-34.45-2.16-21.16,13.29-40.26,34.38-42.51.37-.04.74-.16,1.1-.25h6.34Z"/><path class="cls-1" d="m100,0C44.77,0,0,44.77,0,100c0,27.43,11.05,52.29,28.94,70.35,18.12,18.31,43.27,29.65,71.06,29.65h.01c27.8-.01,52.94-11.34,71.07-29.66,17.88-18.06,28.92-42.91,28.92-70.34C200,44.77,155.23,0,100,0Zm60.78,160.14h-.01c-8.31-21.04-28.79-35.43-51.78-35.66-6.23-.05-12.47-.05-18.71.03-2.48.04-4.99.23-7.44.63-20.1,3.25-36.39,16.98-43.6,35.01.37.37.74.74,1.11,1.1-.37-.36-.74-.72-1.11-1.09h0c-15.3-15.46-24.74-36.71-24.74-60.16C14.5,52.78,52.78,14.5,100,14.5s85.5,38.28,85.5,85.5c0,23.46-9.44,44.7-24.72,60.14Z"/></svg>