<?xml version="1.0" encoding="UTF-8"?><svg id="Layer_1" xmlns="http://www.w3.org/2000/svg" viewBox="0 0 200 200"><defs><style>.cls-1{fill:#fff;}.cls-1,.cls-2{stroke-width:0px;}.cls-2{fill:#f60;}</style></defs><path class="cls-2" d="m200,100c0,27.43-11.04,52.28-28.92,70.34-18.12,18.31-43.27,29.65-71.07,29.66h-.01c-27.79,0-52.94-11.34-71.06-29.64C11.05,152.29,0,127.43,0,100,0,44.77,44.77,0,100,0s100,44.77,100,100"/><path class="cls-1" d="m103.17,52.59c2.94.64,5.96,1.03,8.81,1.95,16.91,5.43,28.21,22.09,26.83,39.38-1.47,18.41-14.69,32.97-32.57,35.88-22.08,3.59-42.6-12.16-44.87-34.45-2.16-21.16,13.29-40.26,34.37-42.51.37-.04.74-.16,1.11-.25h6.33Z"/><path class="cls-1" d="m166.67,174.64c-17,15.66-40.59,25.35-66.66,25.36h-.01c-26.07,0-49.66-9.7-66.66-25.35,7.9-18.04,25.78-31.77,47.83-35.02,2.69-.39,5.44-.59,8.16-.62,6.84-.09,13.69-.09,20.52-.03,25.22.23,47.69,14.62,56.81,35.67"/></svg>