<?xml version="1.0" encoding="UTF-8"?><svg id="Layer_1" xmlns="http://www.w3.org/2000/svg" viewBox="0 0 200 200"><defs><style>.cls-1{stroke-width:0px;}</style></defs><path class="cls-1" d="m200,101.16c-.96,1.61-1.75,3.35-2.91,4.8-14.1,17.65-30.43,32.8-50.09,44.11-12.94,7.45-26.74,12.46-41.76,13.48-12.25.83-24.11-1.25-35.56-5.6-17.28-6.57-32.13-16.95-45.7-29.32-7.95-7.25-15.23-15.14-21.84-23.62-2.84-3.64-2.86-6.42,0-10.04,14.2-18,30.71-33.44,50.65-44.94,15.65-9.03,32.37-14.48,50.7-13.67,12.59.56,24.47,3.96,35.74,9.49,23.67,11.62,42.6,28.91,58.82,49.41.83,1.05,1.31,2.37,1.95,3.56v2.34Zm-14.68-1.05c-4.07-4.4-7.67-8.51-11.5-12.4-12.88-13.07-27.14-24.29-44.11-31.65-8.46-3.67-17.27-6.08-26.55-6.52-14.19-.67-27.25,3.29-39.68,9.72-13.89,7.18-25.91,16.88-36.85,27.95-4.01,4.06-7.77,8.36-11.85,12.77,3.95,4.27,7.59,8.42,11.46,12.35,12.85,13.01,27.04,24.2,43.95,31.54,8.46,3.67,17.26,6.1,26.54,6.55,14.19.69,27.25-3.27,39.69-9.66,12.07-6.21,22.78-14.35,32.53-23.72,5.57-5.35,10.76-11.11,16.36-16.93Z"/><path class="cls-1" d="m139.51,100.02c-.03,21.87-17.85,39.61-39.65,39.48-21.84-.13-39.42-17.77-39.39-39.55.03-21.87,17.84-39.61,39.65-39.48,21.84.12,39.42,17.78,39.39,39.55Zm-13.18-.07c-.04-14.54-11.81-26.31-26.33-26.32-14.49-.01-26.29,11.75-26.37,26.3-.08,14.51,11.95,26.54,26.45,26.42,14.58-.12,26.3-11.9,26.25-26.4Z"/></svg>