<?xml version="1.0" encoding="utf-8"?>
<!-- Generator: Adobe Illustrator 27.8.1, SVG Export Plug-In . SVG Version: 6.00 Build 0)  -->
<!DOCTYPE svg PUBLIC "-//W3C//DTD SVG 1.1//EN" "http://www.w3.org/Graphics/SVG/1.1/DTD/svg11.dtd" [
	<!ENTITY ns_extend "http://ns.adobe.com/Extensibility/1.0/">
	<!ENTITY ns_ai "http://ns.adobe.com/AdobeIllustrator/10.0/">
	<!ENTITY ns_graphs "http://ns.adobe.com/Graphs/1.0/">
	<!ENTITY ns_vars "http://ns.adobe.com/Variables/1.0/">
	<!ENTITY ns_imrep "http://ns.adobe.com/ImageReplacement/1.0/">
	<!ENTITY ns_sfw "http://ns.adobe.com/SaveForWeb/1.0/">
	<!ENTITY ns_custom "http://ns.adobe.com/GenericCustomNamespace/1.0/">
	<!ENTITY ns_adobe_xpath "http://ns.adobe.com/XPath/1.0/">
]>
<svg version="1.1" id="Layer_1" xmlns:x="&ns_extend;" xmlns:i="&ns_ai;" xmlns:graph="&ns_graphs;"
	 xmlns="http://www.w3.org/2000/svg" xmlns:xlink="http://www.w3.org/1999/xlink" x="0px" y="0px" width="500px" height="500px"
	 viewBox="0 0 500 500" style="enable-background:new 0 0 500 500;" xml:space="preserve">
<style type="text/css">
	.st0{fill:#FF6600;}
	.st1{fill:#FFFFFF;}
</style>
<metadata>
	<sfw  xmlns="&ns_sfw;">
		<slices></slices>
		<sliceSourceBounds  bottomLeftOrigin="true" height="500" width="500" x="520" y="-500"></sliceSourceBounds>
	</sfw>
</metadata>
<path class="st0" d="M0,0v500h500V0H0z M219.6501,25.2286c50.2778,0,91.1812,40.9033,91.1812,91.1812
	c0,50.2778-40.9033,91.1812-91.1812,91.1812c-50.2778,0-91.1812-40.9034-91.1812-91.1812
	C128.469,66.1319,169.3724,25.2286,219.6501,25.2286z M440.2442,378.8989l-26.8047,23.079
	c-0.4581,1.1839-0.9442,2.3563-1.4565,3.509l2.6306,35.3024c0.1281,1.7077-0.4959,3.3875-1.7077,4.5977
	c-1.2102,1.2118-2.8736,1.8555-4.5977,1.7077l-35.2991-2.6306c-1.1511,0.5107-2.3251,0.9984-3.5123,1.4565l-23.079,26.8047
	c-1.1182,1.2989-2.7455,2.046-4.4598,2.046c-1.7126,0-3.3416-0.7471-4.4598-2.0444l-23.0856-26.8113
	c-1.1839-0.4598-2.353-0.9459-3.4926-1.4532l-35.2958,2.6322c-1.7077,0.1478-3.3875-0.4959-4.5977-1.7077
	c-1.2119-1.2102-1.8358-2.89-1.7077-4.5977l0.954-12.7982H132.9304c-28.7834,0-54.6013-16.1347-67.3781-42.1102
	c-12.6618-25.7407-9.8671-54.5504,7.4796-77.0629c35.3877-45.7966,88.9036-72.0579,146.8301-72.0579
	c42.3726,0,83.4219,14.5255,116.2623,41.0039l1.3755-1.5965c1.1182-1.2988,2.7455-2.0443,4.4581-2.0443s3.3399,0.7455,4.4581,2.0443
	l23.0806,26.7883c1.1937,0.4631,2.3793,0.954,3.5435,1.473l35.2679-2.6289c1.7241-0.1363,3.3875,0.4958,4.5977,1.7077
	c1.2118,1.2119,1.8358,2.89,1.7077,4.5977l-2.6306,35.2843c0.5123,1.1527,0.9984,2.3251,1.4565,3.509l26.8064,23.0806
	c1.2972,1.1183,2.0444,2.7472,2.0444,4.4598C442.2902,376.1534,441.5431,377.7807,440.2442,378.8989z"/>
<g>
	<path class="st1" d="M219.6504,214.0908c53.8613,0,97.6807-43.8193,97.6807-97.6812s-43.8193-97.6812-97.6807-97.6812
		c-53.8623,0-97.6816,43.8193-97.6816,97.6812S165.7881,214.0908,219.6504,214.0908z M219.6504,189.3208
		c-40.2031,0-72.9111-32.708-72.9111-72.9111s32.708-72.9111,72.9111-72.9111s72.9111,32.708,72.9111,72.9111
		S259.8535,189.3208,219.6504,189.3208z"/>
	<path class="st1" d="M444.4902,365.0566l-25.6016-22.0439c-0.1006-0.2451-0.2021-0.4893-0.3047-0.7334l2.5107-33.6885
		c0.2695-3.5967-1.0391-7.124-3.5908-9.6777c-2.5654-2.5674-6.1035-3.8672-9.6797-3.5957l-33.6719,2.5107
		c-0.2549-0.1074-0.5107-0.2139-0.7695-0.3203l-22.041-25.5811c-2.3545-2.7354-5.7754-4.3037-9.3838-4.3037
		c-2.1865,0-4.3037,0.5762-6.1562,1.6377c-33.1992-25.1875-74.1494-39.0005-115.9395-39.0005
		c-59.9561,0-115.3477,27.1851-151.9785,74.5903c-18.8936,24.5195-21.9453,55.8828-8.1641,83.8994
		c13.8779,28.2139,41.9307,45.7412,73.2109,45.7412h130.3389l-0.4326,5.8125c-0.2705,3.6016,1.041,7.1309,3.5898,9.6758
		c2.5898,2.5938,6.1484,3.8936,9.6807,3.5977l33.7002-2.5137c0.2383,0.1006,0.4766,0.2002,0.7158,0.2979l22.0498,25.6074
		c2.3564,2.7344,5.7764,4.3027,9.3848,4.3027c3.6094,0,7.0303-1.5693,9.3857-4.3047l22.0391-25.5967
		c0.2451-0.1006,0.4912-0.2021,0.7363-0.3057l33.6348,2.5068c3.6084,0.3047,7.1621-1,9.7471-3.5869
		c2.5537-2.5518,3.8643-6.0801,3.5947-9.6777l-2.5117-33.71c0.1025-0.2441,0.2041-0.4883,0.3047-0.7334l25.5967-22.0391
		c2.7354-2.3555,4.3047-5.7754,4.3047-9.3848C448.79,370.832,447.2227,367.4121,444.4902,365.0566z M400.3799,389.1133
		c-1.6055,1.3818-2.8369,3.1641-3.5576,5.1475c-0.6133,1.6826-1.3027,3.3408-2.0459,4.9258
		c-1.0078,2.1445-1.377,4.5078-1.0732,6.8535l1.623,21.7666l-21.792-1.624c-2.3398-0.3037-4.6953,0.0703-6.8213,1.0742
		c-1.5947,0.7471-3.2529,1.4346-4.9297,2.0449c-1.9893,0.7236-3.7705,1.9551-5.1504,3.5586l-14.6748,17.0439l-14.6797-17.0498
		c-1.3711-1.5889-3.1377-2.8125-5.1182-3.542c-1.7021-0.624-3.3643-1.3154-4.9385-2.0547
		c-1.6543-0.7754-3.4189-1.1689-5.2471-1.1689c-0.4717,0-0.9443,0.0273-1.4092,0.0801l-21.959,1.6367l1.6729-22.4336
		c0.1572-2.1172-0.2363-4.2539-1.1396-6.1816c-0.7451-1.5889-1.4346-3.2471-2.0469-4.9277
		c-0.7256-1.9912-1.9561-3.7725-3.5537-5.1455l-17.0371-14.6777l17.0342-14.6777c1.6025-1.3789,2.832-3.1592,3.5566-5.1465
		c0.6113-1.6777,1.2998-3.3369,2.0469-4.9297c0.9033-1.9258,1.2969-4.0635,1.1396-6.1816l-1.6709-22.415l22.3779,1.6689
		c2.126,0.168,4.2715-0.2227,6.2188-1.1377c1.582-0.7422,3.2402-1.4307,4.9277-2.0459c1.9883-0.7246,3.7686-1.9541,5.1445-3.5537
		l14.6807-17.0381l14.6758,17.0352c1.3789,1.6025,3.1592,2.832,5.1465,3.5566c1.6855,0.6143,3.3438,1.3027,4.9375,2.0498
		c1.957,0.916,4.1094,1.3037,6.1738,1.1367l22.4326-1.6729l-1.6211,21.749c-0.3047,2.3457,0.0645,4.709,1.0703,6.8467
		c0.748,1.5947,1.4365,3.2539,2.0479,4.9307c0.7256,1.9922,1.957,3.7734,3.5557,5.1475l17.0469,14.6777L400.3799,389.1133z
		 M310.5352,297.5059c-0.2578,0.1055-0.5156,0.2119-0.7734,0.3213l-33.623-2.5068c-3.5996-0.2949-7.1445,1.0234-9.7051,3.5879
		c-2.5557,2.5518-3.8672,6.0811-3.5977,9.6807l2.5098,33.6553c-0.1084,0.2559-0.2148,0.5137-0.3213,0.7715l-25.5811,22.041
		c-2.7334,2.3555-4.3018,5.7754-4.3018,9.3828c0,3.6084,1.5684,7.0293,4.3018,9.3828l25.583,22.041
		c0.1055,0.2588,0.2129,0.5156,0.3203,0.7715l-0.2305,3.0859H132.9307c-21.7686,0-41.3047-12.2246-50.9834-31.9023
		c-9.5195-19.3525-7.4443-40.9766,5.5469-57.8369c31.8965-41.2773,80.1426-64.9512,132.3682-64.9512
		c35.6309,0,70.585,11.54,99.167,32.6162L310.5352,297.5059z"/>
	<path class="st1" d="M367.9072,343.8535l-34.9131,34.9121l-16.9697-16.9678c-4.8262-4.8271-12.6826-4.8281-17.5127,0
		c-2.3398,2.3389-3.6289,5.4492-3.6289,8.7578c0,3.3096,1.29,6.4209,3.6279,8.7578l25.7266,25.7256
		c2.3389,2.3389,5.4492,3.6279,8.7568,3.6279s6.418-1.2891,8.7568-3.6279l43.668-43.6689c2.3408-2.3379,3.6309-5.4492,3.6309-8.7588
		c0-3.3086-1.2891-6.4189-3.6279-8.7578C380.5918,339.0254,372.7354,339.0254,367.9072,343.8535z"/>
</g>
<ellipse transform="matrix(0.7071 -0.7071 0.7071 0.7071 -17.9801 189.4117)" class="st1" cx="219.6502" cy="116.4097" rx="79.411" ry="79.411"/>
<path class="st1" d="M243.6864,378.8973c-1.2988-1.1182-2.0443-2.7455-2.0443-4.4581s0.7455-3.3399,2.0443-4.4582l26.7884-23.0806
	c0.4614-1.1954,0.954-2.381,1.4713-3.5452l-2.6273-35.2498c-0.1281-1.7077,0.4958-3.3875,1.7077-4.5977
	c1.2102-1.2119,2.89-1.844,4.5977-1.7077l35.2498,2.6273c1.1642-0.5173,2.3497-1.0099,3.5452-1.4713l14.0184-16.2704
	c-30.7025-24.6401-69.0213-38.1552-108.5756-38.1552c-54.2532,0-104.375,24.5946-137.5115,67.4766
	c-14.5403,18.872-16.8737,43.0544-6.2365,64.6802c10.7817,21.918,32.5536,35.5339,56.8164,35.5339h138.2197l0.7975-10.6996
	c-0.5189-1.1642-1.0099-2.3498-1.4729-3.5435L243.6864,378.8973z"/>
<path class="st1" d="M402.9288,352.3898c-0.6766-1.8572-1.4401-3.6963-2.2693-5.4648c-0.5057-1.0755-0.665-2.2578-0.4893-3.3957
	l2.1971-29.4846l-29.9592,2.2332c-0.9934,0.0821-2.0181-0.1117-2.9376-0.5419c-1.7684-0.8293-3.6075-1.5928-5.4647-2.2693
	c-0.9458-0.3448-1.7881-0.9261-2.445-1.6896l-19.6027-22.7522l-19.6044,22.7522c-0.6569,0.7635-1.4992,1.3448-2.445,1.6896
	c-1.8572,0.6765-3.6963,1.4401-5.4647,2.2693c-0.9163,0.4302-1.9393,0.6223-2.9376,0.5419l-29.9411-2.2316l2.2316,29.9411
	c0.0755,1.0082-0.1117,2.0213-0.5419,2.9376c-0.8292,1.7685-1.5928,3.6076-2.2693,5.4648c-0.3448,0.9458-0.9261,1.7881-1.6896,2.445
	l-22.7522,19.6044l22.7522,19.6027c0.7635,0.6568,1.3448,1.4992,1.6896,2.445c0.6766,1.8572,1.4401,3.6962,2.2693,5.4647
	c0.4302,0.9163,0.6174,1.9278,0.5419,2.9376l-2.2332,29.9591l29.6373-2.2085c0.2562-0.0345,0.5156-0.0509,0.7734-0.0509
	c0.844,0,1.6913,0.1806,2.4861,0.5533c1.7422,0.8177,3.5813,1.5829,5.4631,2.2726c0.9409,0.3465,1.7783,0.9261,2.4319,1.6848
	l19.6027,22.767l19.6011-22.7653c0.6569-0.7635,1.4992-1.3465,2.4467-1.6913c1.8687-0.6798,3.7061-1.4434,5.4647-2.2676
	c1.0673-0.5041,2.243-0.6667,3.3745-0.4926l29.5239,2.2003l-2.1987-29.5026c-0.1757-1.1379-0.0164-2.3202,0.4893-3.3958
	c0.8292-1.7685,1.5928-3.6075,2.2693-5.4647c0.3448-0.9474,0.9277-1.7898,1.6913-2.4467l22.7653-19.6011l-22.767-19.6028
	C403.8549,354.1796,403.2736,353.3356,402.9288,352.3898z M380.8251,356.7723l-43.6702,43.6702
	c-1.1494,1.1494-2.6552,1.7242-4.1609,1.7242s-3.0115-0.5748-4.1609-1.7242l-25.726-25.726c-2.2988-2.2972-2.2988-6.0247,0-8.3218
	c2.2989-2.2989,6.0231-2.2989,8.3219,0l21.565,21.5633l39.5093-39.5076c2.2988-2.2989,6.023-2.2989,8.3218,0
	C383.124,350.7477,383.124,354.4752,380.8251,356.7723z"/>
<path class="st0" d="M219.6501,207.5909c50.2778,0,91.1812-40.9034,91.1812-91.1812c0-50.2778-40.9033-91.1812-91.1812-91.1812
	c-50.2778,0-91.1812,40.9033-91.1812,91.1812C128.469,166.6875,169.3724,207.5909,219.6501,207.5909z M219.6501,36.9987
	c43.7868,0,79.411,35.6242,79.411,79.411s-35.6242,79.4109-79.411,79.4109c-43.7867,0-79.4109-35.6241-79.4109-79.4109
	S175.8634,36.9987,219.6501,36.9987z"/>
<path class="st0" d="M440.2458,369.9793l-26.8064-23.0806c-0.4581-1.1839-0.9442-2.3563-1.4565-3.509l2.6306-35.2843
	c0.1281-1.7077-0.4959-3.3859-1.7077-4.5977c-1.2102-1.2119-2.8736-1.844-4.5977-1.7077l-35.2679,2.6289
	c-1.1642-0.5189-2.3498-1.0099-3.5435-1.473l-23.0806-26.7883c-1.1182-1.2988-2.7455-2.0443-4.4581-2.0443
	s-3.3399,0.7455-4.4581,2.0443l-1.3755,1.5965c-32.8404-26.4785-73.8897-41.0039-116.2623-41.0039
	c-57.9265,0-111.4424,26.2612-146.8301,72.0579c-17.3466,22.5125-20.1414,51.3221-7.4796,77.0629
	c12.7768,25.9755,38.5947,42.1102,67.3781,42.1102h137.3423l-0.954,12.7982c-0.1281,1.7077,0.4958,3.3875,1.7077,4.5977
	c1.2102,1.2118,2.89,1.8555,4.5977,1.7077l35.2958-2.6322c1.1396,0.5074,2.3087,0.9935,3.4926,1.4532l23.0856,26.8113
	c1.1182,1.2972,2.7471,2.0444,4.4598,2.0444c1.7143,0,3.3416-0.7471,4.4598-2.046l23.079-26.8047
	c1.1872-0.4581,2.3613-0.9458,3.5123-1.4565l35.2991,2.6306c1.7241,0.1478,3.3875-0.4959,4.5977-1.7077
	c1.2118-1.2102,1.8358-2.89,1.7077-4.5977l-2.6306-35.3024c0.5123-1.1527,0.9984-2.3251,1.4565-3.509l26.8047-23.079
	c1.2989-1.1182,2.046-2.7455,2.046-4.4598C442.2902,372.7265,441.5431,371.0976,440.2458,369.9793z M271.1501,416.221H132.9304
	c-24.2628,0-46.0347-13.6158-56.8164-35.5339c-10.6371-21.6257-8.3038-45.8082,6.2365-64.6802
	c33.1365-42.882,83.2583-67.4766,137.5115-67.4766c39.5543,0,77.8732,13.5151,108.5756,38.1552l-14.0184,16.2704
	c-1.1954,0.4614-2.381,0.954-3.5452,1.4713L275.6242,301.8c-1.7077-0.1363-3.3875,0.4958-4.5977,1.7077
	c-1.2119,1.2102-1.8358,2.89-1.7077,4.5977l2.6273,35.2498c-0.5173,1.1642-1.0099,2.3497-1.4713,3.5452l-26.7884,23.0806
	c-1.2988,1.1183-2.0443,2.7455-2.0443,4.4582s0.7455,3.3399,2.0443,4.4581l26.7884,23.0806c0.463,1.1937,0.954,2.3793,1.4729,3.5435
	L271.1501,416.221z M404.6201,394.0402c-0.7635,0.6569-1.3465,1.4992-1.6913,2.4467c-0.6766,1.8572-1.4401,3.6962-2.2693,5.4647
	c-0.5057,1.0756-0.665,2.2578-0.4893,3.3958l2.1987,29.5026l-29.5239-2.2003c-1.1314-0.1741-2.3071-0.0115-3.3745,0.4926
	c-1.7586,0.8243-3.5961,1.5878-5.4647,2.2676c-0.9474,0.3448-1.7898,0.9278-2.4467,1.6913l-19.6011,22.7653l-19.6027-22.767
	c-0.6536-0.7586-1.491-1.3383-2.4319-1.6848c-1.8818-0.6896-3.7209-1.4548-5.4631-2.2726
	c-0.7948-0.3727-1.6421-0.5533-2.4861-0.5533c-0.2578,0-0.5172,0.0164-0.7734,0.0509l-29.6373,2.2085l2.2332-29.9591
	c0.0755-1.0098-0.1117-2.0214-0.5419-2.9376c-0.8292-1.7685-1.5928-3.6075-2.2693-5.4647c-0.3448-0.9458-0.9261-1.7882-1.6896-2.445
	l-22.7522-19.6027l22.7522-19.6044c0.7635-0.6569,1.3448-1.4992,1.6896-2.445c0.6766-1.8572,1.4401-3.6963,2.2693-5.4648
	c0.4302-0.9163,0.6174-1.9294,0.5419-2.9376l-2.2316-29.9411l29.9411,2.2316c0.9984,0.0804,2.0214-0.1117,2.9376-0.5419
	c1.7684-0.8293,3.6075-1.5928,5.4647-2.2693c0.9458-0.3448,1.7881-0.9261,2.445-1.6896l19.6044-22.7522l19.6027,22.7522
	c0.6569,0.7635,1.4992,1.3448,2.445,1.6896c1.8572,0.6765,3.6963,1.4401,5.4647,2.2693c0.9196,0.4302,1.9442,0.624,2.9376,0.5419
	l29.9592-2.2332l-2.1971,29.4846c-0.1757,1.1379-0.0164,2.3202,0.4893,3.3957c0.8292,1.7685,1.5928,3.6076,2.2693,5.4648
	c0.3448,0.9458,0.9261,1.7898,1.6896,2.4466l22.767,19.6028L404.6201,394.0402z"/>
<path class="st0" d="M372.5033,348.4505l-39.5093,39.5076l-21.565-21.5633c-2.2988-2.2989-6.023-2.2989-8.3219,0
	c-2.2988,2.2972-2.2988,6.0247,0,8.3218l25.726,25.726c1.1494,1.1494,2.6552,1.7242,4.1609,1.7242s3.0115-0.5748,4.1609-1.7242
	l43.6702-43.6702c2.2989-2.2972,2.2989-6.0247,0-8.3218C378.5263,346.1516,374.8021,346.1516,372.5033,348.4505z"/>
</svg>
