<?xml version="1.0" encoding="utf-8"?>
<!-- Generator: Adobe Illustrator 27.8.1, SVG Export Plug-In . SVG Version: 6.00 Build 0)  -->
<!DOCTYPE svg PUBLIC "-//W3C//DTD SVG 1.1//EN" "http://www.w3.org/Graphics/SVG/1.1/DTD/svg11.dtd" [
	<!ENTITY ns_extend "http://ns.adobe.com/Extensibility/1.0/">
	<!ENTITY ns_ai "http://ns.adobe.com/AdobeIllustrator/10.0/">
	<!ENTITY ns_graphs "http://ns.adobe.com/Graphs/1.0/">
	<!ENTITY ns_vars "http://ns.adobe.com/Variables/1.0/">
	<!ENTITY ns_imrep "http://ns.adobe.com/ImageReplacement/1.0/">
	<!ENTITY ns_sfw "http://ns.adobe.com/SaveForWeb/1.0/">
	<!ENTITY ns_custom "http://ns.adobe.com/GenericCustomNamespace/1.0/">
	<!ENTITY ns_adobe_xpath "http://ns.adobe.com/XPath/1.0/">
]>
<svg version="1.1" id="Layer_1" xmlns:x="&ns_extend;" xmlns:i="&ns_ai;" xmlns:graph="&ns_graphs;"
	 xmlns="http://www.w3.org/2000/svg" xmlns:xlink="http://www.w3.org/1999/xlink" x="0px" y="0px" width="500px" height="500px"
	 viewBox="0 0 500 500" style="enable-background:new 0 0 500 500;" xml:space="preserve">
<style type="text/css">
	.st0{fill:#FF6600;}
	.st1{fill:#FFFFFF;}
</style>
<metadata>
	<sfw  xmlns="&ns_sfw;">
		<slices></slices>
		<sliceSourceBounds  bottomLeftOrigin="true" height="500" width="500" x="520" y="-500"></sliceSourceBounds>
	</sfw>
</metadata>
<path class="st0" d="M0,0v500h500V0H0z M479.9143,248.5283c0,25.8813-21.0566,46.9379-46.9379,46.9379H269.9466v9.7238
	c2.5923-1.5595,5.5596-2.533,8.7379-2.7384c5.5775-0.3682,10.8889,1.5374,14.9524,5.3472c1.8105,1.6973,3.2734,3.7105,4.3311,5.9139
	c3.0169-2.2806,6.6902-3.6774,10.6489-3.796c5.2107-0.1655,10.1677,1.7594,13.9155,5.3954c0.2468,0.2386,0.4854,0.4826,0.717,0.7322
	c3.2183-3.6292,7.7837-5.976,12.84-6.1276c4.9735-0.1365,9.6603,1.6698,13.2205,5.1252c3.5602,3.4554,5.5209,8.0898,5.5209,13.0495
	c0.0014,5.5293,0.1076,11.1799,0.2124,16.6443c0.2509,13.2853,0.5115,27.0229-0.7032,40.6268
	c-1.3913,15.5632-3.2982,36.8777-22.2755,46.0389c-10.8282,5.2259-24.097,7.1563-36.624,7.1563
	c-8.0402,0-15.7728-0.7943-22.3638-2.0242c-13.5598-2.5289-31.7904-9.0716-41.6396-25.8758
	c-3.4417-5.8712-5.5858-12.5959-6.3731-19.9838c-0.4391-4.1738-2.2262-7.876-5.0397-10.511l-26.9023-25.1849
	c-8.0795-7.563-8.913-20.2858-1.8587-28.3577c3.5864-4.1035,8.5469-6.5455,13.9678-6.8751
	c5.4272-0.3295,10.6373,1.4865,14.6808,5.1143l12.2463,10.9881v-40.3813H67.0043c-25.8709,0-46.9186-21.0566-46.9186-46.9379
	V148.3802c0-25.8813,21.0477-46.9379,46.9186-46.9379h365.9722c25.8812,0,46.9379,21.0566,46.9379,46.9379V248.5283z"/>
<g>
	<path class="st1" d="M432.9766,94.9424H67.0039c-29.4551,0-53.418,23.9722-53.418,53.438v100.1479
		c0,29.4658,23.9629,53.4375,53.418,53.4375h158.6543v19.3164l-1.4053-1.2607c-5.3477-4.7979-12.2412-7.1943-19.417-6.7646
		c-7.1699,0.4365-13.7285,3.6641-18.4668,9.0859c-9.334,10.6807-8.2979,27.4502,2.3105,37.3799l26.9014,25.1846
		c1.6748,1.5684,2.7461,3.8574,3.0195,6.4551c0.8857,8.3135,3.3184,15.9121,7.2295,22.583
		c11.0889,18.9209,31.165,26.2012,46.0537,28.9775c7.4814,1.3965,15.627,2.1348,23.5566,2.1348
		c10.6211,0,26.0869-1.3535,39.4502-7.8027c22.2979-10.7637,24.4795-35.166,25.9238-51.3145
		c1.2451-13.9414,0.9824-27.8467,0.7275-41.3291c-0.0986-5.1406-0.21-10.9678-0.2109-16.5195
		c0-6.7334-2.6621-13.0244-7.4941-17.7139c-4.8135-4.6719-11.1758-7.1504-17.9424-6.958
		c-4.5215,0.1357-8.9326,1.5918-12.7109,4.1221c-4.3525-2.8477-9.4316-4.2822-14.7607-4.1221
		c-2.8818,0.0859-5.6963,0.6689-8.3516,1.7158c-0.6221-0.7266-1.2861-1.4199-1.9893-2.0791
		c-0.4033-0.3779-0.8145-0.7412-1.2363-1.0908h136.1309c29.4658,0,53.4375-23.9717,53.4375-53.4375V148.3804
		C486.4141,118.9146,462.4424,94.9424,432.9766,94.9424z M432.9766,279.082H276.4463v-17.7734c0-0.6133-0.0225-1.2256-0.0664-1.8359
		c24.2139-10.4473,40.1162-34.2964,40.1162-61.0176c0-36.6611-29.834-66.4873-66.5059-66.4873
		c-36.6611,0-66.4863,29.8262-66.4863,66.4873c0,27.3931,17.0859,52.0576,42.2002,61.8965
		c-0.0303,0.5137-0.0459,1.0273-0.0459,1.542v17.1885H67.0039c-16.8369,0-30.5342-13.7061-30.5342-30.5537V148.3804
		c0-16.8477,13.6973-30.5542,30.5342-30.5542h365.9727c16.8477,0,30.5537,13.7065,30.5537,30.5542v100.1479
		C463.5303,265.376,449.8242,279.082,432.9766,279.082z M306.4424,351.0684v-21.4229c0-1.7441,1.2451-3.3105,2.6807-3.3545
		c0.8008-0.0127,1.4336,0.2305,2,0.7793c0.5479,0.5322,0.8379,1.2168,0.8379,1.9795v25.2109
		c0,6.3096,5.1328,11.4424,11.4414,11.4424s11.4414-5.1328,11.4414-11.4424v-25.6123c0-1.291,0.8799-2.2891,1.6865-2.3535
		c0.5732,0.0078,1.0332,0.1777,1.3691,0.5039c0.3633,0.3525,0.5479,0.7881,0.5479,1.2949
		c0.001,5.7715,0.1143,11.7119,0.2158,16.9902c0.2422,12.8369,0.4932,26.1113-0.6426,38.8193
		c-1.6729,18.7148-4.0557,28.3877-13.0781,32.7422c-14.2021,6.8545-34.5547,6.4492-48.8613,3.7832
		c-10.2061-1.9043-23.7842-6.582-30.5088-18.0537c-2.2588-3.8535-3.6797-8.3994-4.2236-13.5
		c-0.8428-8.0068-4.4395-15.3486-10.127-20.6719l-26.9023-25.1846c-1.6777-1.5713-2.0078-4.1436-0.7207-5.6162
		c0.6914-0.79,1.5986-1.2402,2.6162-1.3027c0.0859-0.0049,0.1699-0.0078,0.2549-0.0078c0.9336,0,1.7988,0.333,2.501,0.9629
		l20.4922,18.3867c3.3525,3.0029,8.1748,3.7607,12.3047,1.9268c4.1152-1.8398,6.7744-5.9404,6.7744-10.4473v-56.0537
		c0.0059-0.1143,0.0088-0.2275,0.0088-0.3428l-0.0088-28.6309c0-0.6924,0.207-1.373,0.5869-1.9346
		c0.0771-0.0938,0.1533-0.1895,0.2275-0.2861c0.292-0.3408,0.8516-0.8506,1.5732-0.8721c0.4941-0.0273,1.2451,0.0996,1.8691,0.7051
		c0.5068,0.4922,0.7637,1.0986,0.7637,1.8027v89.9199c0,6.3096,5.1328,11.4424,11.4424,11.4424
		c6.3086,0,11.4414-5.1328,11.4414-11.4424v-28.3652c0-2.1221,1.4795-3.9443,3.2979-4.0625l0.0146-0.001
		c1.0215-0.0654,1.9268,0.252,2.6729,0.9502c0.7373,0.6914,1.127,1.5898,1.127,2.5986v28.7197
		c0,6.3096,5.1328,11.4424,11.4424,11.4424C301.3096,362.5107,306.4424,357.3779,306.4424,351.0684z M249.9902,154.8511
		c24.0537,0,43.6221,19.5605,43.6221,43.604c0,18.6465-11.917,35.1777-29.3262,41.1938c-4.1855-2.5664-9.0127-3.8721-14.0059-3.7217
		c-4.6338,0.1382-9.1582,1.6182-13.0498,4.2271c-18.3047-5.5151-30.8428-22.2573-30.8428-41.6992
		C206.3877,174.4116,225.9473,154.8511,249.9902,154.8511z"/>
	<path class="st1" d="M109.0986,131.9648c-36.6621,0-66.4883,29.8271-66.4883,66.4902c0,36.6616,29.8262,66.4883,66.4883,66.4883
		s66.4893-29.8267,66.4893-66.4883C175.5879,161.792,145.7607,131.9648,109.0986,131.9648z M109.0986,154.8486
		c24.0449,0,43.6064,19.562,43.6064,43.6064c0,24.0439-19.5615,43.605-43.6064,43.605c-24.0439,0-43.6045-19.561-43.6045-43.605
		C65.4941,174.4106,85.0547,154.8486,109.0986,154.8486z"/>
	<path class="st1" d="M93.9014,199.8438c7.2324,0,13.1172-5.8843,13.1172-13.1172s-5.8848-13.1172-13.1172-13.1172
		s-13.1172,5.8843-13.1172,13.1172S86.6689,199.8438,93.9014,199.8438z M93.7842,186.7266c0-0.0581,0.0596-0.1172,0.1172-0.1172
		s0.1172,0.0591,0.1172,0.1172C94.0186,186.8428,93.7842,186.8428,93.7842,186.7266z"/>
	<path class="st1" d="M124.2969,199.8438c7.2324,0,13.1172-5.8843,13.1172-13.1172s-5.8848-13.1172-13.1172-13.1172
		s-13.1172,5.8843-13.1172,13.1172S117.0645,199.8438,124.2969,199.8438z M124.1797,186.7266c0-0.0581,0.0596-0.1172,0.1172-0.1172
		c0.0596,0,0.1172,0.0581,0.1172,0.1172C124.4141,186.8428,124.1797,186.8447,124.1797,186.7266z"/>
	<path class="st1" d="M81.2451,225.0547c1.3857,1.0889,13.9424,10.6367,27.8535,10.6367c13.9121,0,26.4688-9.5479,27.8584-10.6396
		c4.9463-3.8916,5.8115-11.0903,1.9268-16.0493c-3.8838-4.9512-11.0674-5.832-16.0322-1.9707
		c-1.96,1.5034-8.6719,5.7759-13.7529,5.7759c-5.0859,0-11.8057-4.2808-13.7236-5.7539
		c-4.9551-3.8853-12.1553-3.0186-16.0518,1.9312C75.4238,213.9429,76.2842,221.1499,81.2451,225.0547z"/>
	<path class="st1" d="M390.8975,131.9648c-36.6631,0-66.4902,29.8271-66.4902,66.4902c0,36.6616,29.8271,66.4883,66.4902,66.4883
		c36.6621,0,66.4893-29.8267,66.4893-66.4883C457.3867,161.792,427.5596,131.9648,390.8975,131.9648z M370.1211,235.687
		c2.5361,0,5.0361-0.8604,7.0225-2.4097c1.9512-1.4985,8.666-5.7764,13.7539-5.7764c5.1104,0,11.667,4.1753,13.7275,5.7568
		c2.0049,1.5693,4.5098,2.4336,7.0518,2.4336c0.7673,0,1.5187-0.0887,2.2534-0.2347c-6.689,4.1788-14.5812,6.6034-23.0327,6.6034
		c-8.4563,0-16.3526-2.4272-23.044-6.6102C368.5925,235.5975,369.3487,235.687,370.1211,235.687z M423.041,222.8921
		c-0.3623-3.0322-1.8828-5.7427-4.2822-7.6318c-1.3818-1.0894-13.9062-10.6431-27.8613-10.6431
		c-13.9561,0-26.4805,9.5537-27.8564,10.6382c-4.1726,3.2811-5.4292,8.9079-3.3987,13.5624
		c-7.6357-7.8575-12.3513-18.567-12.3513-30.3627c0-24.0444,19.5615-43.6064,43.6064-43.6064
		c24.0439,0,43.6055,19.562,43.6055,43.6064c0,11.7864-4.7083,22.4881-12.3333,30.3439
		C422.9711,226.9594,423.2858,224.9373,423.041,222.8921z"/>
	<path class="st1" d="M375.7002,173.6094c-7.2344,0-13.1191,5.8843-13.1191,13.1172s5.8848,13.1172,13.1191,13.1172
		c7.2324,0,13.1172-5.8843,13.1172-13.1172S382.9326,173.6094,375.7002,173.6094z M375.7002,186.6094
		c0.0576,0,0.1172,0.0591,0.1172,0.1172c0,0.1191-0.2363,0.1152-0.2363,0C375.5811,186.6675,375.6396,186.6094,375.7002,186.6094z"
		/>
	<path class="st1" d="M406.0957,173.6094c-7.2324,0-13.1172,5.8843-13.1172,13.1172s5.8848,13.1172,13.1172,13.1172
		s13.1172-5.8843,13.1172-13.1172S413.3281,173.6094,406.0957,173.6094z M406.0957,186.6094c0.0576,0,0.1172,0.0591,0.1172,0.1172
		c0,0.1162-0.2344,0.1162-0.2344,0C405.9785,186.6685,406.0381,186.6094,406.0957,186.6094z"/>
	<path class="st1" d="M234.7998,199.8438c7.2324,0,13.1172-5.8843,13.1172-13.1172s-5.8848-13.1172-13.1172-13.1172
		s-13.1172,5.8843-13.1172,13.1172S227.5674,199.8438,234.7998,199.8438z M234.6826,186.7266c0-0.0581,0.0596-0.1172,0.1172-0.1172
		s0.1172,0.0591,0.1172,0.1172C234.917,186.8428,234.6826,186.8428,234.6826,186.7266z"/>
	<path class="st1" d="M265.1963,199.8438c7.2324,0,13.1172-5.8843,13.1172-13.1172s-5.8848-13.1172-13.1172-13.1172
		s-13.1172,5.8843-13.1172,13.1172S257.9639,199.8438,265.1963,199.8438z M265.0791,186.7266c0-0.0581,0.0596-0.1172,0.1172-0.1172
		s0.1172,0.0591,0.1172,0.1172C265.3135,186.8428,265.0791,186.8428,265.0791,186.7266z"/>
	<path class="st1" d="M229.2158,229.2021h41.5654c6.3086,0,11.4414-5.1328,11.4414-11.4419s-5.1328-11.4419-11.4414-11.4419
		h-41.5654c-6.3096,0-11.4424,5.1328-11.4424,11.4419S222.9062,229.2021,229.2158,229.2021z"/>
</g>
<path class="st0" d="M406.0955,189.9929c1.8008,0,3.2665-1.4657,3.2665-3.2665c0-1.8008-1.4657-3.2665-3.2665-3.2665
	s-3.2665,1.4657-3.2665,3.2665C402.829,188.5272,404.2947,189.9929,406.0955,189.9929z"/>
<path class="st0" d="M124.2967,189.9929c1.8015,0,3.2665-1.4657,3.2665-3.2665c0-1.8008-1.465-3.2665-3.2665-3.2665
	c-1.8008,0-3.2658,1.4657-3.2658,3.2665C121.0309,188.5272,122.4959,189.9929,124.2967,189.9929z"/>
<path class="st1" d="M250.475,242.4241c4.672-0.1425,9.1093,1.4144,12.6547,4.3766c21.5776-5.8344,36.9822-25.7567,36.9822-48.3458
	c0-27.6269-22.4851-50.1038-50.1216-50.1038c-27.6262,0-50.1024,22.4769-50.1024,50.1038c0,23.4945,16.1602,43.6151,38.7806,48.8008
	C241.8599,244.3719,245.9777,242.5586,250.475,242.4241z M265.1965,180.1092c3.6484,0,6.6171,2.9687,6.6171,6.6171
	c0,3.6485-2.9687,6.6172-6.6171,6.6172c-3.6485,0-6.6172-2.9687-6.6172-6.6172
	C258.5793,183.0779,261.548,180.1092,265.1965,180.1092z M234.8001,180.1092c3.6485,0,6.6172,2.9687,6.6172,6.6171
	c0,3.6485-2.9687,6.6172-6.6172,6.6172s-6.6172-2.9687-6.6172-6.6172C228.1829,183.0779,231.1516,180.1092,234.8001,180.1092z
	 M224.2739,217.7604c0-2.7288,2.2124-4.9418,4.9418-4.9418h41.5651c2.7288,0,4.9418,2.2131,4.9418,4.9418
	c0,2.7288-2.2131,4.9419-4.9418,4.9419h-41.5651C226.4863,222.7023,224.2739,220.4892,224.2739,217.7604z"/>
<path class="st0" d="M93.9011,189.9929c1.8015,0,3.2665-1.4657,3.2665-3.2665c0-1.8008-1.4651-3.2665-3.2665-3.2665
	c-1.8015,0-3.2665,1.4657-3.2665,3.2665C90.6345,188.5272,92.0995,189.9929,93.9011,189.9929z"/>
<path class="st1" d="M109.0989,148.3484c-27.6283,0-50.1051,22.4782-50.1051,50.1065c0,27.6282,22.4768,50.1051,50.1051,50.1051
	c27.6282,0,50.1058-22.4769,50.1058-50.1051C159.2047,170.8267,136.7271,148.3484,109.0989,148.3484z M124.2967,180.1092
	c3.6492,0,6.6179,2.9687,6.6179,6.6171c0,3.6485-2.9687,6.6172-6.6179,6.6172c-3.6485,0-6.6172-2.9687-6.6172-6.6172
	C117.6795,183.0779,120.6482,180.1092,124.2967,180.1092z M93.9011,180.1092c3.6484,0,6.6171,2.9687,6.6171,6.6171
	c0,3.6485-2.9687,6.6172-6.6171,6.6172c-3.6485,0-6.6172-2.9687-6.6172-6.6172C87.2839,183.0779,90.2526,180.1092,93.9011,180.1092z
	 M132.9373,219.9431c-0.4798,0.3778-11.8934,9.248-23.8384,9.248c-11.9444,0-23.3579-8.8702-23.8378-9.248
	c-2.1448-1.6877-2.5157-4.7943-0.8287-6.9398c1.6864-2.1427,4.7881-2.515,6.9323-0.8342c0.0917,0.0717,9.2439,7.1384,17.7343,7.1384
	c8.491,0,17.6432-7.0667,17.7349-7.1384c2.1483-1.6794,5.2527-1.3003,6.9343,0.8439
	C135.4489,215.1585,135.0794,218.2582,132.9373,219.9431z"/>
<path class="st1" d="M269.9466,351.2288c0,2.7288-2.2131,4.9418-4.9418,4.9418s-4.9418-2.2131-4.9418-4.9418V261.309
	c0-2.4585-0.9721-4.7543-2.7371-6.4669c-1.7635-1.7112-4.1049-2.5992-6.5544-2.5399c-2.5793,0.0776-4.8937,1.3557-6.4932,3.3105
	c-0.0889,0.1175-0.1777,0.2335-0.2763,0.3421c-1.2237,1.6427-1.9601,3.7109-1.9601,5.9387v28.5417
	c0.0005,0.0303,0.009,0.0585,0.009,0.089s-0.0084,0.0587-0.009,0.089v56.3079c0,1.9497-1.1472,3.7174-2.928,4.513
	c-1.7815,0.7928-3.8622,0.4661-5.3141-0.8342l-20.4885-18.383c-1.9008-1.7057-4.3096-2.6254-6.8419-2.6254
	c-0.2123,0-0.4254,0.0069-0.6391,0.0193c-2.7612,0.1682-5.2914,1.4161-7.1246,3.512c-3.5892,4.1077-3.0638,10.6752,1.1713,14.6407
	l26.9023,25.1849c4.5475,4.2565,7.4258,10.1553,8.1056,16.6071c0.6453,6.0559,2.3517,11.4501,5.079,16.1051
	c7.9644,13.5873,23.3876,19.0048,34.9246,21.1572c15.3192,2.8542,37.2555,3.2224,52.8793-4.3186
	c12.9034-6.2283,15.1427-20.2858,16.727-38.0166c1.1679-13.0716,0.9128-26.5376,0.666-39.5596
	c-0.1048-5.5099-0.2123-11.2087-0.2137-16.8304c0-2.2654-0.8949-4.3806-2.5206-5.9581c-1.6243-1.5774-3.7739-2.3633-6.0408-2.3399
	c-4.433,0.1337-8.0416,4.1049-8.0416,8.8536v25.6124c0,2.7288-2.2131,4.9419-4.9418,4.9419s-4.9418-2.2131-4.9418-4.9419v-25.2111
	c0-2.5261-0.9983-4.8853-2.8115-6.6447c-1.8118-1.7581-4.1794-2.6929-6.7371-2.6102c-4.946,0.1489-8.9695,4.5682-8.9695,9.8506
	v21.4234c0,2.7288-2.2131,4.9418-4.9418,4.9418s-4.9418-2.2131-4.9418-4.9418v-28.7203c0-2.8101-1.1293-5.4162-3.181-7.3397
	c-2.0476-1.918-4.7033-2.8859-7.5548-2.6943c-5.2576,0.3406-9.3763,4.9736-9.3763,10.5483V351.2288z"/>
<path class="st0" d="M265.1965,189.9929c1.8008,0,3.2665-1.4657,3.2665-3.2665c0-1.8008-1.4657-3.2665-3.2665-3.2665
	c-1.8008,0-3.2665,1.4657-3.2665,3.2665C261.9299,188.5272,263.3956,189.9929,265.1965,189.9929z"/>
<path class="st0" d="M234.8001,189.9929c1.8015,0,3.2665-1.4657,3.2665-3.2665c0-1.8008-1.465-3.2665-3.2665-3.2665
	s-3.2665,1.4657-3.2665,3.2665C231.5336,188.5272,232.9986,189.9929,234.8001,189.9929z"/>
<path class="st1" d="M432.9764,111.326H67.0043c-20.421,0-37.0349,16.6222-37.0349,37.0542v100.1481
	c0,20.432,16.6139,37.0542,37.0349,37.0542h165.1539v-23.6888c0-2.0483,0.3265-4.0267,0.912-5.8931
	c-25.3049-7.3712-43.0659-30.6026-43.0659-57.5457c0-33.0775,26.9099-59.9874,59.986-59.9874
	c33.0872,0,60.0053,26.9099,60.0053,59.9874c0,25.8865-16.9078,48.8451-41.0178,56.8925c0.6284,1.8969,0.9687,3.8994,0.9687,5.9615
	v24.2735h163.0298c20.4319,0,37.0541-16.6222,37.0541-37.0542V148.3802C470.0306,127.9482,453.4084,111.326,432.9764,111.326z
	 M109.0989,258.4437c-33.0782,0-59.9888-26.9113-59.9888-59.9888c0-33.0789,26.9105-59.9902,59.9888-59.9902
	c33.0782,0,59.9895,26.9113,59.9895,59.9902C169.0884,231.5325,142.1771,258.4437,109.0989,258.4437z M390.8977,258.4437
	c-33.0789,0-59.9902-26.9113-59.9902-59.9888c0-33.0789,26.9113-59.9902,59.9902-59.9902c33.0775,0,59.9888,26.9113,59.9888,59.9902
	C450.8865,231.5325,423.9752,258.4437,390.8977,258.4437z"/>
<path class="st1" d="M390.8977,148.3484c-27.6283,0-50.1065,22.4782-50.1065,50.1065c0,27.6282,22.4782,50.1051,50.1065,50.1051
	c27.6282,0,50.1051-22.4769,50.1051-50.1051C441.0028,170.8267,418.5259,148.3484,390.8977,148.3484z M406.0955,180.1092
	c3.6484,0,6.6171,2.9687,6.6171,6.6171c0,3.6485-2.9687,6.6172-6.6171,6.6172c-3.6485,0-6.6172-2.9687-6.6172-6.6172
	C399.4783,183.0779,402.447,180.1092,406.0955,180.1092z M375.6999,180.1092c3.6484,0,6.6171,2.9687,6.6171,6.6171
	c0,3.6485-2.9687,6.6172-6.6171,6.6172c-3.6499,0-6.6186-2.9687-6.6186-6.6172C369.0813,183.0779,372.05,180.1092,375.6999,180.1092
	z M415.5641,227.3049c-0.9749,1.2396-2.424,1.8863-3.887,1.8863c-1.0672,0-2.1414-0.3433-3.0459-1.0521
	c-0.1337-0.1034-9.2632-7.1384-17.7335-7.1384c-8.491,0-17.6439,7.0667-17.7349,7.1384c-0.9045,0.706-1.9773,1.0479-3.0418,1.0479
	c-1.4671,0-2.9191-0.6494-3.8925-1.8931c-1.6822-2.1455-1.3127-5.2438,0.8301-6.9288c0.4799-0.3778,11.894-9.248,23.8392-9.248
	c11.9437,0,23.3579,8.8702,23.8378,9.248C416.881,222.0528,417.2519,225.1594,415.5641,227.3049z"/>
<path class="st0" d="M375.6999,189.9929c1.8008,0,3.2651-1.4657,3.2651-3.2665c0-1.8008-1.4644-3.2665-3.2651-3.2665
	c-1.8008,0-3.2665,1.4657-3.2665,3.2665C372.4333,188.5272,373.899,189.9929,375.6999,189.9929z"/>
<g>
	<path class="st0" d="M432.9764,101.4423H67.0043c-25.8709,0-46.9186,21.0566-46.9186,46.9379v100.1481
		c0,25.8813,21.0477,46.9379,46.9186,46.9379h165.1539v40.3813l-12.2463-10.9881c-4.0435-3.6278-9.2535-5.4438-14.6808-5.1143
		c-5.421,0.3296-10.3815,2.7715-13.9678,6.8751c-7.0543,8.0718-6.2208,20.7946,1.8587,28.3577l26.9023,25.1849
		c2.8135,2.635,4.6006,6.3372,5.0397,10.511c0.7874,7.3879,2.9315,14.1127,6.3731,19.9838
		c9.8492,16.8042,28.0798,23.3469,41.6396,25.8758c6.5909,1.2299,14.3236,2.0242,22.3638,2.0242
		c12.527,0,25.7957-1.9304,36.624-7.1563c18.9773-9.1612,20.8842-30.4756,22.2755-46.0389
		c1.2148-13.6038,0.9542-27.3414,0.7032-40.6268c-0.1048-5.4644-0.211-11.115-0.2124-16.6443c0-4.9597-1.9607-9.5941-5.5209-13.0495
		c-3.5602-3.4554-8.247-5.2618-13.2205-5.1252c-5.0563,0.1517-9.6217,2.4985-12.84,6.1276
		c-0.2317-0.2496-0.4702-0.4936-0.717-0.7322c-3.7477-3.636-8.7048-5.5609-13.9155-5.3954
		c-3.9587,0.1186-7.632,1.5154-10.6489,3.796c-1.0576-2.2034-2.5206-4.2166-4.3311-5.9139
		c-4.0635-3.8098-9.3749-5.7154-14.9524-5.3472c-3.1782,0.2054-6.1456,1.1789-8.7379,2.7384v-9.7238h163.0298
		c25.8812,0,46.9379-21.0566,46.9379-46.9379V148.3802C479.9143,122.4989,458.8577,101.4423,432.9764,101.4423z M279.3229,312.3145
		c2.8515-0.1917,5.5072,0.7763,7.5548,2.6943c2.0518,1.9235,3.181,4.5296,3.181,7.3397v28.7203
		c0,2.7288,2.2131,4.9418,4.9418,4.9418s4.9418-2.2131,4.9418-4.9418v-21.4234c0-5.2824,4.0236-9.7017,8.9695-9.8506
		c2.5577-0.0828,4.9253,0.8521,6.7371,2.6102c1.8132,1.7595,2.8115,4.1187,2.8115,6.6447v25.2111
		c0,2.7288,2.2131,4.9419,4.9418,4.9419s4.9418-2.2131,4.9418-4.9419v-25.6124c0-4.7488,3.6085-8.7199,8.0416-8.8536
		c2.2668-0.0234,4.4165,0.7625,6.0408,2.3399c1.6257,1.5775,2.5206,3.6926,2.5206,5.9581
		c0.0014,5.6216,0.1089,11.3205,0.2137,16.8304c0.2468,13.022,0.5019,26.488-0.666,39.5596
		c-1.5843,17.7308-3.8235,31.7883-16.727,38.0166c-15.6238,7.541-37.5602,7.1729-52.8793,4.3186
		c-11.537-2.1524-26.9602-7.5699-34.9246-21.1572c-2.7274-4.655-4.4337-10.0492-5.079-16.1051
		c-0.6797-6.4517-3.5581-12.3505-8.1056-16.6071l-26.9023-25.1849c-4.2352-3.9656-4.7605-10.5331-1.1713-14.6407
		c1.8332-2.0959,4.3634-3.3438,7.1246-3.512c0.2137-0.0124,0.4268-0.0193,0.6391-0.0193c2.5323,0,4.9412,0.9197,6.8419,2.6254
		l20.4885,18.383c1.452,1.3002,3.5327,1.627,5.3141,0.8342c1.7808-0.7956,2.928-2.5633,2.928-4.513v-56.3079
		c0.0005-0.0303,0.009-0.0585,0.009-0.089s-0.0084-0.0587-0.009-0.089v-28.5417c0-2.2278,0.7365-4.296,1.9601-5.9387
		c0.0986-0.1086,0.1874-0.2246,0.2763-0.3421c1.5995-1.9549,3.9139-3.233,6.4932-3.3105c2.4495-0.0593,4.7908,0.8287,6.5544,2.5399
		c1.765,1.7125,2.7371,4.0084,2.7371,6.4669v89.9197c0,2.7288,2.2131,4.9418,4.9418,4.9418s4.9418-2.2131,4.9418-4.9418v-28.366
		C269.9466,317.2881,274.0653,312.6551,279.3229,312.3145z M199.888,198.455c0-27.6269,22.4761-50.1038,50.1024-50.1038
		c27.6365,0,50.1216,22.4769,50.1216,50.1038c0,22.5891-15.4047,42.5114-36.9822,48.3458
		c-3.5454-2.9622-7.9827-4.5192-12.6547-4.3766c-4.4973,0.1345-8.6151,1.9478-11.8065,4.8316
		C216.0482,242.07,199.888,221.9495,199.888,198.455z M470.0306,248.5283c0,20.432-16.6222,37.0542-37.0541,37.0542H269.9466
		V261.309c0-2.0621-0.3403-4.0646-0.9687-5.9615c24.11-8.0474,41.0178-31.006,41.0178-56.8925
		c0-33.0775-26.9182-59.9874-60.0053-59.9874c-33.0762,0-59.986,26.9099-59.986,59.9874c0,26.9431,17.761,50.1745,43.0659,57.5457
		c-0.5856,1.8664-0.912,3.8448-0.912,5.8931v23.6888H67.0043c-20.421,0-37.0349-16.6222-37.0349-37.0542V148.3802
		c0-20.432,16.6139-37.0542,37.0349-37.0542h365.9722c20.4319,0,37.0541,16.6222,37.0541,37.0542V248.5283z"/>
	<path class="st0" d="M109.0989,138.4648c-33.0782,0-59.9888,26.9113-59.9888,59.9902c0,33.0775,26.9105,59.9888,59.9888,59.9888
		c33.0782,0,59.9895-26.9113,59.9895-59.9888C169.0884,165.376,142.1771,138.4648,109.0989,138.4648z M109.0989,248.5601
		c-27.6283,0-50.1051-22.4769-50.1051-50.1051c0-27.6283,22.4768-50.1065,50.1051-50.1065
		c27.6282,0,50.1058,22.4782,50.1058,50.1065C159.2047,226.0832,136.7271,248.5601,109.0989,248.5601z"/>
	<path class="st0" d="M93.9011,193.3435c3.6484,0,6.6171-2.9687,6.6171-6.6172c0-3.6484-2.9687-6.6171-6.6171-6.6171
		c-3.6485,0-6.6172,2.9687-6.6172,6.6171C87.2839,190.3748,90.2526,193.3435,93.9011,193.3435z M93.9011,183.4598
		c1.8015,0,3.2665,1.4657,3.2665,3.2665c0,1.8008-1.4651,3.2665-3.2665,3.2665c-1.8015,0-3.2665-1.4657-3.2665-3.2665
		C90.6345,184.9255,92.0995,183.4598,93.9011,183.4598z"/>
	<path class="st0" d="M124.2967,193.3435c3.6492,0,6.6179-2.9687,6.6179-6.6172c0-3.6484-2.9687-6.6171-6.6179-6.6171
		c-3.6485,0-6.6172,2.9687-6.6172,6.6171C117.6795,190.3748,120.6482,193.3435,124.2967,193.3435z M124.2967,183.4598
		c1.8015,0,3.2665,1.4657,3.2665,3.2665c0,1.8008-1.465,3.2665-3.2665,3.2665c-1.8008,0-3.2658-1.4657-3.2658-3.2665
		C121.0309,184.9255,122.4959,183.4598,124.2967,183.4598z"/>
	<path class="st0" d="M126.8338,212.1691c-0.0917,0.0717-9.2439,7.1384-17.7349,7.1384c-8.4904,0-17.6426-7.0667-17.7343-7.1384
		c-2.1441-1.6808-5.2458-1.3085-6.9323,0.8342c-1.687,2.1456-1.3161,5.2521,0.8287,6.9398
		c0.4799,0.3778,11.8934,9.248,23.8378,9.248c11.9451,0,23.3586-8.8702,23.8384-9.248c2.1421-1.6849,2.5116-4.7846,0.8308-6.9301
		C132.0865,210.8688,128.9821,210.4897,126.8338,212.1691z"/>
	<path class="st0" d="M390.8977,138.4648c-33.0789,0-59.9902,26.9113-59.9902,59.9902c0,33.0775,26.9113,59.9888,59.9902,59.9888
		c33.0775,0,59.9888-26.9113,59.9888-59.9888C450.8865,165.376,423.9752,138.4648,390.8977,138.4648z M390.8977,248.5601
		c-27.6283,0-50.1065-22.4769-50.1065-50.1051c0-27.6283,22.4782-50.1065,50.1065-50.1065
		c27.6282,0,50.1051,22.4782,50.1051,50.1065C441.0028,226.0832,418.5259,248.5601,390.8977,248.5601z"/>
	<path class="st0" d="M375.6999,193.3435c3.6484,0,6.6171-2.9687,6.6171-6.6172c0-3.6484-2.9687-6.6171-6.6171-6.6171
		c-3.6499,0-6.6186,2.9687-6.6186,6.6171C369.0813,190.3748,372.05,193.3435,375.6999,193.3435z M375.6999,183.4598
		c1.8008,0,3.2651,1.4657,3.2651,3.2665c0,1.8008-1.4644,3.2665-3.2651,3.2665c-1.8008,0-3.2665-1.4657-3.2665-3.2665
		C372.4333,184.9255,373.899,183.4598,375.6999,183.4598z"/>
	<path class="st0" d="M406.0955,193.3435c3.6484,0,6.6171-2.9687,6.6171-6.6172c0-3.6484-2.9687-6.6171-6.6171-6.6171
		c-3.6485,0-6.6172,2.9687-6.6172,6.6171C399.4783,190.3748,402.447,193.3435,406.0955,193.3435z M406.0955,183.4598
		c1.8008,0,3.2665,1.4657,3.2665,3.2665c0,1.8008-1.4657,3.2665-3.2665,3.2665s-3.2665-1.4657-3.2665-3.2665
		C402.829,184.9255,404.2947,183.4598,406.0955,183.4598z"/>
	<path class="st0" d="M414.7355,220.3651c-0.4799-0.3778-11.8941-9.248-23.8378-9.248c-11.9451,0-23.3593,8.8702-23.8392,9.248
		c-2.1428,1.685-2.5123,4.7833-0.8301,6.9288c0.9734,1.2437,2.4254,1.8931,3.8925,1.8931c1.0645,0,2.1373-0.3419,3.0418-1.0479
		c0.091-0.0717,9.2439-7.1384,17.7349-7.1384c8.4703,0,17.5998,7.035,17.7335,7.1384c0.9045,0.7087,1.9787,1.0521,3.0459,1.0521
		c1.463,0,2.9122-0.6467,3.887-1.8863C417.2519,225.1594,416.881,222.0528,414.7355,220.3651z"/>
	<path class="st0" d="M234.8001,193.3435c3.6485,0,6.6172-2.9687,6.6172-6.6172c0-3.6484-2.9687-6.6171-6.6172-6.6171
		s-6.6172,2.9687-6.6172,6.6171C228.1829,190.3748,231.1516,193.3435,234.8001,193.3435z M234.8001,183.4598
		c1.8015,0,3.2665,1.4657,3.2665,3.2665c0,1.8008-1.465,3.2665-3.2665,3.2665s-3.2665-1.4657-3.2665-3.2665
		C231.5336,184.9255,232.9986,183.4598,234.8001,183.4598z"/>
	<path class="st0" d="M265.1965,193.3435c3.6484,0,6.6171-2.9687,6.6171-6.6172c0-3.6484-2.9687-6.6171-6.6171-6.6171
		c-3.6485,0-6.6172,2.9687-6.6172,6.6171C258.5793,190.3748,261.548,193.3435,265.1965,193.3435z M265.1965,183.4598
		c1.8008,0,3.2665,1.4657,3.2665,3.2665c0,1.8008-1.4657,3.2665-3.2665,3.2665c-1.8008,0-3.2665-1.4657-3.2665-3.2665
		C261.9299,184.9255,263.3956,183.4598,265.1965,183.4598z"/>
	<path class="st0" d="M275.7227,217.7604c0-2.7288-2.2131-4.9418-4.9418-4.9418h-41.5651c-2.7294,0-4.9418,2.2131-4.9418,4.9418
		c0,2.7288,2.2124,4.9419,4.9418,4.9419h41.5651C273.5096,222.7023,275.7227,220.4892,275.7227,217.7604z"/>
</g>
</svg>
