<?xml version="1.0" encoding="utf-8"?>
<!-- Generator: Adobe Illustrator 27.8.1, SVG Export Plug-In . SVG Version: 6.00 Build 0)  -->
<!DOCTYPE svg PUBLIC "-//W3C//DTD SVG 1.1//EN" "http://www.w3.org/Graphics/SVG/1.1/DTD/svg11.dtd" [
	<!ENTITY ns_extend "http://ns.adobe.com/Extensibility/1.0/">
	<!ENTITY ns_ai "http://ns.adobe.com/AdobeIllustrator/10.0/">
	<!ENTITY ns_graphs "http://ns.adobe.com/Graphs/1.0/">
	<!ENTITY ns_vars "http://ns.adobe.com/Variables/1.0/">
	<!ENTITY ns_imrep "http://ns.adobe.com/ImageReplacement/1.0/">
	<!ENTITY ns_sfw "http://ns.adobe.com/SaveForWeb/1.0/">
	<!ENTITY ns_custom "http://ns.adobe.com/GenericCustomNamespace/1.0/">
	<!ENTITY ns_adobe_xpath "http://ns.adobe.com/XPath/1.0/">
]>
<svg version="1.1" id="Layer_1" xmlns:x="&ns_extend;" xmlns:i="&ns_ai;" xmlns:graph="&ns_graphs;"
	 xmlns="http://www.w3.org/2000/svg" xmlns:xlink="http://www.w3.org/1999/xlink" x="0px" y="0px" width="500px" height="500px"
	 viewBox="0 0 500 500" style="enable-background:new 0 0 500 500;" xml:space="preserve">
<style type="text/css">
	.st0{fill:#FF6600;}
	.st1{fill:#FFFFFF;}
</style>
<metadata>
	<sfw  xmlns="&ns_sfw;">
		<slices></slices>
		<sliceSourceBounds  bottomLeftOrigin="true" height="500" width="500" x="520" y="-500"></sliceSourceBounds>
	</sfw>
</metadata>
<path class="st0" d="M0,0v500h500V0H0z M161.9744,59.5133c2.2399-3.0815,5.85-4.9214,9.6585-4.9214h18.7469
	c-1.5472-12.5884-1.6832-21.8251-1.6941-23.0768c-0.0139-1.6625,0.6365-3.2624,1.8068-4.4414
	c1.1704-1.1808,2.7633-1.8451,4.4258-1.8451H250h55.0816c1.6625,0,3.2554,0.6643,4.4258,1.8451
	c1.1703,1.179,1.8207,2.7789,1.8068,4.4414c-0.0109,1.2517-0.1469,10.4884-1.6941,23.0768h18.7469
	c3.8085,0,7.4186,1.8399,9.6585,4.9214c2.2399,3.0798,2.8746,7.0812,1.699,10.7036l-3.9354,12.1296
	c-5.4066,16.672-19.3622,29.5338-36.4167,33.5682l-10.7468,2.5433c-7.8043,10.9238-18.2949,18.9523-32.393,20.785v22.1367h15.3398
	c3.4415,0,6.2326,2.7911,6.2326,6.2326s-2.7911,6.2327-6.2326,6.2327h-43.145c-3.4415,0-6.2326-2.7911-6.2326-6.2327
	s2.7911-6.2326,6.2326-6.2326h15.3398V139.243c-14.0981-1.8326-24.5887-9.8611-32.393-20.785l-10.7468-2.5433
	c-17.0546-4.0345-31.0101-16.8962-36.4167-33.5682l-3.9354-12.1296C159.0999,66.5945,159.7346,62.5931,161.9744,59.5133z
	 M476.0287,468.5388c0,3.4415-2.7911,6.2327-6.2327,6.2327H323.2648H176.7352H30.2039c-3.4415,0-6.2327-2.7911-6.2327-6.2327
	V322.0092c0-3.4415,2.7911-6.2327,6.2327-6.2327h140.2986V198.9059c0-3.4415,2.7911-6.2327,6.2327-6.2327h146.5295
	c3.4415,0,6.2327,2.7911,6.2327,6.2327v116.8706h140.2986c3.4415,0,6.2327,2.7911,6.2327,6.2327V468.5388z"/>
<g>
	<g>
		<path class="st1" d="M469.7961,315.7766H329.4974V198.9059c0-3.4415-2.7911-6.2327-6.2327-6.2327H176.7352
			c-3.4415,0-6.2327,2.7911-6.2327,6.2327v116.8706H30.2039c-3.4415,0-6.2327,2.7911-6.2327,6.2327v146.5295
			c0,3.4415,2.7911,6.2327,6.2327,6.2327h146.5313h146.5295h146.5313c3.4415,0,6.2327-2.7911,6.2327-6.2327V322.0092
			C476.0287,318.5677,473.2376,315.7766,469.7961,315.7766z M170.5026,462.3062H36.4365V328.2418h134.066V462.3062z
			 M317.0322,322.0092v140.2969H182.9678V322.0092V205.1385h134.0643V322.0092z M463.5635,462.3062h-134.066V328.2418h134.066
			V462.3062z"/>
		<path class="st1" d="M469.7959,481.2715H30.2041c-7.0205,0-12.7324-5.7119-12.7324-12.7324V322.0088
			c0-7.0205,5.7119-12.7324,12.7324-12.7324h133.7988V198.9058c0-7.0205,5.7119-12.7324,12.7324-12.7324h146.5293
			c7.0205,0,12.7324,5.7119,12.7324,12.7324v110.3706h133.7988c7.0205,0,12.7324,5.7119,12.7324,12.7324v146.5303
			C482.5283,475.5596,476.8164,481.2715,469.7959,481.2715z M335.9971,455.8066h121.0664V334.7422H335.9971V455.8066z
			 M189.4678,455.8066h121.0645v-244.168H189.4678V455.8066z M42.9365,455.8066h121.0664V334.7422H42.9365V455.8066z"/>
	</g>
	<g>
		<path class="st1" d="M236.1331,319.6876c0.473,1.8625,1.7773,3.4033,3.5355,4.1754c1.7581,0.7722,3.7771,0.6904,5.4657-0.2226
			l0.6434-0.3478v38.2305c0,3.4415,2.7911,6.2327,6.2327,6.2327h7.2691c3.4415,0,6.2326-2.7911,6.2326-6.2327v-55.5999
			c0-3.4415-2.7911-6.2326-6.2326-6.2326h-6.4135c-1.026,0-2.0364,0.2539-2.9407,0.7373l-12.1453,6.5005
			c-2.5268,1.3512-3.8049,4.2519-3.1006,7.0273L236.1331,319.6876z"/>
		<path class="st1" d="M259.2793,374.2559h-7.2686c-7.0215,0-12.7334-5.7119-12.7334-12.7324v-30.9727
			c-0.7578-0.1748-1.501-0.4199-2.2207-0.7354c-3.6172-1.5889-6.249-4.6963-7.2236-8.5254l-0.001-0.0049l-1.4531-5.7314
			c-1.4443-5.6865,1.1611-11.5918,6.3379-14.3574l12.1406-6.499c1.8447-0.9863,3.9219-1.5068,6.0088-1.5068h6.4131
			c7.0205,0,12.7324,5.7119,12.7324,12.7324v55.6006C272.0117,368.5439,266.2998,374.2559,259.2793,374.2559z M252.2773,361.2559
			h6.7344v-55.0654h-6.0791l-11.9014,6.3701l1.3174,5.1963l9.9287-5.3633V361.2559z"/>
	</g>
	<g>
		<path class="st1" d="M85.7203,429.7761h35.4985c3.4415,0,6.2327-2.7911,6.2327-6.2326v-6.2448
			c0-3.4415-2.7911-6.2327-6.2327-6.2327h-9.7124c8.6012-8.9298,14.5765-17.3745,14.5765-27.8956
			c0-10.7888-7.2778-22.4003-23.2542-22.4003c-7.3074,0-14.326,2.5268-19.7604,7.1143c-2.1286,1.7982-2.8068,4.791-1.6591,7.33
			l2.3964,5.304c0.8017,1.7738,2.3877,3.0728,4.285,3.5076c1.9042,0.4382,3.8919-0.04,5.3857-1.2869
			c1.459-1.2173,4.4153-3.2589,7.8134-3.2589c3.6346,0,4.8015,1.1252,4.8015,4.5684c-0.0591,5.8483-5.8361,12.3244-18.811,24.6732
			l-5.9022,5.7318c-1.2086,1.1738-1.8903,2.7859-1.8903,4.471v4.6188C79.4877,426.985,82.2787,429.7761,85.7203,429.7761z"/>
		<path class="st1" d="M121.2188,436.2764h-35.498c-7.0215,0-12.7334-5.7119-12.7334-12.7334v-4.6182
			c0-3.4219,1.4082-6.752,3.8623-9.1348l5.9023-5.7314c6.3271-6.0225,12.9541-12.5176,15.6211-16.8877
			c-0.2461,0.1719-0.4912,0.3584-0.7314,0.5586c-3.0361,2.5342-7.1514,3.5146-11.0059,2.6318
			c-3.8516-0.8838-7.124-3.5625-8.7529-7.165l-2.3975-5.3047c-2.332-5.1611-0.9385-11.3184,3.3896-14.9727
			c6.6055-5.5771,15.1133-8.6484,23.9541-8.6484c19.5332,0,29.7539,14.5381,29.7539,28.8994c0,8.5137-3.125,15.6494-7.5654,21.9746
			c5.1709,1.6201,8.9336,6.4561,8.9336,12.1543v6.2441C133.9512,430.5645,128.2393,436.2764,121.2188,436.2764z M85.9873,423.2764
			h34.9639v-5.71H96.2227l10.6025-11.0088c9.1807-9.5332,12.7578-16.0908,12.7578-23.3877c0-7.335-4.3877-15.8994-16.7539-15.8994
			c-5.7061,0-11.1719,1.9346-15.4131,5.4521l2.1689,4.8018c2.2227-1.7959,6.4775-4.5439,11.7051-4.5439
			c7.1816,0,11.3008,4.0342,11.3008,11.0684c-0.0898,9.0039-7.9287,17.1035-20.8291,29.3809l-5.7744,5.6074V423.2764z"/>
	</g>
	<g>
		<path class="st1" d="M375.7483,425.4616c3.5233,2.3146,10.0707,4.7858,17.8754,4.7858c18.211,0,26.5044-11.8775,26.5044-22.9116
			c0-6.0275-2.4833-11.3732-6.6935-15.1503c2.9407-3.4224,4.5545-7.6812,4.5545-12.394c0-9.3872-6.93-19.4909-22.1429-19.4909
			c-6.5404,0-13.6965,2.1529-18.2319,5.4866c-2.2224,1.6346-3.1058,4.5336-2.1738,7.1299l1.9669,5.4744
			c0.6608,1.8364,2.1425,3.2589,4.0067,3.8415c1.859,0.5791,3.8884,0.2591,5.4796-0.8765c1.7564-1.2538,4.7562-2.5181,7.4987-2.5181
			c3.5198,0,3.5198,1.2433,3.5198,2.1511c0,2.2433-4.0189,3.1755-6.1718,3.1755h-4.191c-3.4415,0-6.2327,2.7911-6.2327,6.2326
			v5.6466c0,3.4415,2.7911,6.2327,6.2327,6.2327h4.191c1.8973,0,8.0882,0.3564,8.1404,5.0014
			c0.0087,0.5269-0.0748,1.8607-1.066,2.8711c-1.266,1.2886-3.5685,1.5599-5.2779,1.5599c-3.652,0-7.4326-1.5494-8.9577-2.525
			c-1.6034-1.0243-3.5841-1.2643-5.3875-0.6434c-1.7982,0.6191-3.2172,2.0259-3.8502,3.8206l-2.052,5.817
			C372.3364,420.8828,373.3502,423.8895,375.7483,425.4616z"/>
		<path class="st1" d="M393.624,436.7471c-7.8477,0-15.8623-2.1865-21.4404-5.8496l0,0c-4.9111-3.2207-6.9775-9.3398-5.0244-14.8799
			l2.0527-5.8193c1.2451-3.5303,3.9287-6.29,7.4033-7.6348c-1.1426-1.9082-1.7988-4.1387-1.7988-6.5195v-5.6465
			c0-1.417,0.2324-2.7812,0.6621-4.0557c-1.8906-1.4688-3.3633-3.458-4.1875-5.749l-1.9678-5.4785
			c-1.8896-5.2637-0.0635-11.251,4.4395-14.5635c5.6641-4.1641,14.126-6.75,22.083-6.75c18.8047,0,28.6436,13.0752,28.6436,25.9902
			c0,4.2236-0.9775,8.2324-2.8613,11.832c3.2529,4.5049,5,9.9229,5,15.7129C426.6279,421.9512,415.291,436.7471,393.624,436.7471z
			 M379.4893,420.1406c2.668,1.6895,7.8896,3.6064,14.1348,3.6064c13.8184,0,20.0039-8.2422,20.0039-16.4111
			c0-4.0264-1.6104-7.6885-4.5342-10.3125l-4.7354-4.248l4.1455-4.8252c1.9814-2.3057,2.9854-5.0508,2.9854-8.1592
			c0-5.9922-4.0967-12.9902-15.6436-12.9902c-5.0859,0-10.7666,1.6455-14.2207,4.1064l1.7812,4.957
			c2.5547-1.7412,6.6895-3.5254,10.9863-3.5254c7.3877,0,10.0195,4.4688,10.0195,8.6504c0,6.3525-6.375,9.6758-12.6719,9.6758
			h-3.9238v5.1123h3.9238c8.8145,0,14.5615,4.4854,14.6406,11.4268c0.0469,2.8076-1.0195,5.5527-2.9258,7.4961
			c-2.2861,2.3291-5.6221,3.5088-9.918,3.5088c-5.2197,0-9.9697-2.041-12.1758-3.3721L379.4893,420.1406z M394.9014,385.3613
			L394.9014,385.3613L394.9014,385.3613z"/>
	</g>
	<g>
		<path class="st1" d="M164.2108,82.3466c5.4066,16.672,19.3622,29.5338,36.4167,33.5682l10.7468,2.5433
			c7.8043,10.9238,18.2949,18.9523,32.393,20.785v22.1367h-15.3398c-3.4415,0-6.2326,2.7911-6.2326,6.2326
			s2.7911,6.2327,6.2326,6.2327h43.145c3.4415,0,6.2326-2.7911,6.2326-6.2327s-2.7911-6.2326-6.2326-6.2326h-15.3398V139.243
			c14.0981-1.8326,24.5887-9.8611,32.393-20.785l10.7468-2.5433c17.0546-4.0345,31.0101-16.8962,36.4167-33.5682l3.9354-12.1296
			c1.1755-3.6224,0.5408-7.6238-1.699-10.7036c-2.2399-3.0815-5.85-4.9214-9.6585-4.9214h-18.7469
			c1.5472-12.5884,1.6832-21.8251,1.6941-23.0768c0.0139-1.6625-0.6365-3.2624-1.8068-4.4414
			c-1.1704-1.1808-2.7633-1.8451-4.4258-1.8451H250h-55.0816c-1.6625,0-3.2554,0.6643-4.4258,1.8451
			c-1.1703,1.179-1.8207,2.7789-1.8068,4.4414c0.0109,1.2517,0.1469,10.4884,1.6941,23.0768h-18.7469
			c-3.8085,0-7.4186,1.8399-9.6585,4.9214c-2.2399,3.0798-2.8746,7.0812-1.699,10.7036L164.2108,82.3466z M307.7467,67.0571h19.8987
			l-3.7128,11.4427c-4.019,12.3918-14.312,21.9766-26.9271,25.1471C302.3074,91.8716,305.6464,78.8088,307.7467,67.0571z
			 M250,37.6938h48.5899c-0.8342,14.2446-4.3019,49.3952-18.496,71.1638c-0.3594,0.4105-0.6675,0.8629-0.9085,1.3511
			C272.2148,120.2933,262.78,127.1888,250,127.1888s-22.2148-6.8955-29.1854-16.9801c-0.241-0.4883-0.5491-0.9407-0.9085-1.3511
			c-14.1941-21.7686-17.6619-56.9192-18.496-71.1638H250z M192.2533,67.0571c2.1003,11.7516,5.4393,24.8145,10.7413,36.5898
			c-12.6152-3.1705-22.9081-12.7553-26.9271-25.1471l-3.7128-11.4427H192.2533z"/>
		<path class="st1" d="M271.5723,180.3447h-43.1445c-7.0205,0-12.7324-5.7119-12.7324-12.7324s5.7119-12.7324,12.7324-12.7324
			h8.8398v-10.2505c-11.5361-2.8467-21.501-9.6846-29.7041-20.3936l-8.4326-1.9956c-19.251-4.5542-35.001-19.0723-41.1025-37.8887
			l-3.9355-12.1289c-1.8164-5.5947-0.835-11.7754,2.625-16.5327c3.457-4.7568,9.0332-7.5981,14.915-7.5981h11.5078
			c-0.8643-9.2642-0.9473-15.6694-0.9551-16.521c-0.0273-3.375,1.3184-6.6821,3.6924-9.0752c2.374-2.3936,5.6689-3.7671,9.04-3.7671
			H305.082c3.3711,0,6.666,1.3735,9.041,3.7681c2.373,2.3921,3.7188,5.6992,3.6914,9.0718
			c-0.0078,0.8535-0.0908,7.2593-0.9551,16.5234h11.5078c5.8818,0,11.458,2.8413,14.917,7.6006
			c3.458,4.7549,4.4395,10.9355,2.623,16.5312l-3.9355,12.1289c-6.1016,18.8154-21.8516,33.3335-41.1035,37.8877l-8.4316,1.9956
			c-8.2031,10.709-18.168,17.5469-29.7041,20.3936v10.2505h8.8398c7.0205,0,12.7324,5.7119,12.7324,12.7324
			S278.5928,180.3447,271.5723,180.3447z M226.376,106.8203c6.5479,9.3315,14.2783,13.8687,23.624,13.8687
			s17.0762-4.5371,23.624-13.8687c0.3525-0.6372,0.7627-1.2476,1.2256-1.8232c11.3213-17.6074,15.332-44.8623,16.7432-60.8032
			h-83.1855c1.4111,15.9409,5.4219,43.1958,16.7432,60.8032C225.6133,105.5728,226.0234,106.1831,226.376,106.8203z
			 M214.0713,112.4165l0.4707,0.1118l-0.0801-0.1206c-0.4824-0.7388-0.9531-1.4922-1.4111-2.2573L214.0713,112.4165z
			 M286.9492,110.1504c-0.458,0.7651-0.9287,1.5186-1.4111,2.2573l-0.0781,0.1201l0.4688-0.1113L286.9492,110.1504z
			 M313.1191,73.5571c-1.1875,5.7979-2.5713,11.2988-4.1445,16.478c4-3.645,7.0752-8.2988,8.7754-13.5405l0.9531-2.9375H313.1191z
			 M181.2969,73.5571l0.9531,2.9365c1.7002,5.2427,4.7754,9.896,8.7754,13.5415c-1.5732-5.1792-2.957-10.6802-4.1445-16.478
			H181.2969z"/>
	</g>
</g>
<path class="st1" d="M202.9946,103.647c-5.3019-11.7754-8.641-24.8382-10.7413-36.5898h-19.8987l3.7128,11.4427
	C180.0865,90.8917,190.3794,100.4765,202.9946,103.647z"/>
<path class="st1" d="M36.4365,462.3062h134.066V328.2418H36.4365V462.3062z M79.4877,418.9246c0-1.6851,0.6816-3.2972,1.8903-4.471
	l5.9022-5.7318c12.9749-12.3488,18.7518-18.8248,18.811-24.6732c0-3.4432-1.1669-4.5684-4.8015-4.5684
	c-3.398,0-6.3544,2.0416-7.8134,3.2589c-1.4938,1.2469-3.4815,1.7251-5.3857,1.2869c-1.8973-0.4348-3.4833-1.7338-4.285-3.5076
	l-2.3964-5.304c-1.1478-2.5389-0.4695-5.5318,1.6591-7.33c5.4344-4.5875,12.4531-7.1143,19.7604-7.1143
	c15.9763,0,23.2542,11.6115,23.2542,22.4003c0,10.5211-5.9753,18.9658-14.5765,27.8956h9.7124c3.4415,0,6.2327,2.7911,6.2327,6.2327
	v6.2448c0,3.4415-2.7911,6.2326-6.2327,6.2326H85.7203c-3.4415,0-6.2326-2.7911-6.2326-6.2326V418.9246z"/>
<path class="st1" d="M220.8146,110.2087c6.9706,10.0846,16.4054,16.9801,29.1854,16.9801s22.2148-6.8955,29.1854-16.9801
	c0.241-0.4883,0.5491-0.9407,0.9085-1.3511c14.1941-21.7686,17.6619-56.9192,18.496-71.1638H250h-48.5899
	c0.8342,14.2446,4.3019,49.3952,18.496,71.1638C220.2655,109.2681,220.5737,109.7205,220.8146,110.2087z"/>
<path class="st1" d="M323.9326,78.4999l3.7128-11.4427h-19.8987c-2.1003,11.7516-5.4393,24.8145-10.7413,36.5898
	C309.6206,100.4765,319.9135,90.8917,323.9326,78.4999z"/>
<path class="st1" d="M182.9678,322.0092v140.2969h134.0643V322.0092V205.1385H182.9678V322.0092z M237.7799,306.9285l12.1453-6.5005
	c0.9043-0.4834,1.9147-0.7373,2.9407-0.7373h6.4135c3.4415,0,6.2326,2.7911,6.2326,6.2326v55.5999
	c0,3.4415-2.7911,6.2327-6.2326,6.2327h-7.2691c-3.4415,0-6.2327-2.7911-6.2327-6.2327v-38.2305l-0.6434,0.3478
	c-1.6886,0.913-3.7076,0.9948-5.4657,0.2226c-1.7582-0.7721-3.0624-2.3129-3.5355-4.1754l-1.4538-5.7318
	C233.975,311.1804,235.2531,308.2797,237.7799,306.9285z"/>
<path class="st1" d="M329.4974,462.3062h134.066V328.2418h-134.066V462.3062z M373.2894,418.1786l2.052-5.817
	c0.633-1.7947,2.0521-3.2015,3.8502-3.8206c1.8033-0.6208,3.7841-0.3809,5.3875,0.6434c1.5251,0.9756,5.3057,2.525,8.9577,2.525
	c1.7094,0,4.0119-0.2712,5.2779-1.5599c0.9913-1.0104,1.0747-2.3442,1.066-2.8711c-0.0522-4.645-6.2431-5.0014-8.1404-5.0014h-4.191
	c-3.4415,0-6.2327-2.7911-6.2327-6.2327v-5.6466c0-3.4415,2.7911-6.2326,6.2327-6.2326h4.191c2.153,0,6.1718-0.9321,6.1718-3.1755
	c0-0.9078,0-2.1511-3.5198-2.1511c-2.7424,0-5.7422,1.2642-7.4987,2.5181c-1.5912,1.1356-3.6206,1.4556-5.4796,0.8765
	c-1.8643-0.5826-3.3459-2.0051-4.0067-3.8415l-1.9669-5.4744c-0.9321-2.5963-0.0486-5.4953,2.1738-7.1299
	c4.5354-3.3337,11.6915-5.4866,18.2319-5.4866c15.213,0,22.1429,10.1037,22.1429,19.4909c0,4.7128-1.6138,8.9716-4.5545,12.394
	c4.2101,3.7772,6.6935,9.1229,6.6935,15.1503c0,11.0341-8.2934,22.9116-26.5044,22.9116c-7.8047,0-14.3521-2.4711-17.8754-4.7858
	C373.3502,423.8895,372.3364,420.8828,373.2894,418.1786z"/>
<g>
	<path class="st0" d="M469.7961,315.7766H329.4974V198.9059c0-3.4415-2.7911-6.2327-6.2327-6.2327H176.7352
		c-3.4415,0-6.2327,2.7911-6.2327,6.2327v116.8706H30.2039c-3.4415,0-6.2327,2.7911-6.2327,6.2327v146.5295
		c0,3.4415,2.7911,6.2327,6.2327,6.2327h146.5313h146.5295h146.5313c3.4415,0,6.2327-2.7911,6.2327-6.2327V322.0092
		C476.0287,318.5677,473.2376,315.7766,469.7961,315.7766z M170.5026,462.3062H36.4365V328.2418h134.066V462.3062z
		 M317.0322,322.0092v140.2969H182.9678V322.0092V205.1385h134.0643V322.0092z M463.5635,462.3062h-134.066V328.2418h134.066
		V462.3062z"/>
	<path class="st0" d="M236.1331,319.6876c0.473,1.8625,1.7773,3.4033,3.5355,4.1754c1.7581,0.7722,3.7771,0.6904,5.4657-0.2226
		l0.6434-0.3478v38.2305c0,3.4415,2.7911,6.2327,6.2327,6.2327h7.2691c3.4415,0,6.2326-2.7911,6.2326-6.2327v-55.5999
		c0-3.4415-2.7911-6.2326-6.2326-6.2326h-6.4135c-1.026,0-2.0364,0.2539-2.9407,0.7373l-12.1453,6.5005
		c-2.5268,1.3512-3.8049,4.2519-3.1006,7.0273L236.1331,319.6876z"/>
	<path class="st0" d="M85.7203,429.7761h35.4985c3.4415,0,6.2327-2.7911,6.2327-6.2326v-6.2448
		c0-3.4415-2.7911-6.2327-6.2327-6.2327h-9.7124c8.6012-8.9298,14.5765-17.3745,14.5765-27.8956
		c0-10.7888-7.2778-22.4003-23.2542-22.4003c-7.3074,0-14.326,2.5268-19.7604,7.1143c-2.1286,1.7982-2.8068,4.791-1.6591,7.33
		l2.3964,5.304c0.8017,1.7738,2.3877,3.0728,4.285,3.5076c1.9042,0.4382,3.8919-0.04,5.3857-1.2869
		c1.459-1.2173,4.4153-3.2589,7.8134-3.2589c3.6346,0,4.8015,1.1252,4.8015,4.5684c-0.0591,5.8483-5.8361,12.3244-18.811,24.6732
		l-5.9022,5.7318c-1.2086,1.1738-1.8903,2.7859-1.8903,4.471v4.6188C79.4877,426.985,82.2787,429.7761,85.7203,429.7761z"/>
	<path class="st0" d="M375.7483,425.4616c3.5233,2.3146,10.0707,4.7858,17.8754,4.7858c18.211,0,26.5044-11.8775,26.5044-22.9116
		c0-6.0275-2.4833-11.3732-6.6935-15.1503c2.9407-3.4224,4.5545-7.6812,4.5545-12.394c0-9.3872-6.93-19.4909-22.1429-19.4909
		c-6.5404,0-13.6965,2.1529-18.2319,5.4866c-2.2224,1.6346-3.1058,4.5336-2.1738,7.1299l1.9669,5.4744
		c0.6608,1.8364,2.1425,3.2589,4.0067,3.8415c1.859,0.5791,3.8884,0.2591,5.4796-0.8765c1.7564-1.2538,4.7562-2.5181,7.4987-2.5181
		c3.5198,0,3.5198,1.2433,3.5198,2.1511c0,2.2433-4.0189,3.1755-6.1718,3.1755h-4.191c-3.4415,0-6.2327,2.7911-6.2327,6.2326v5.6466
		c0,3.4415,2.7911,6.2327,6.2327,6.2327h4.191c1.8973,0,8.0882,0.3564,8.1404,5.0014c0.0087,0.5269-0.0748,1.8607-1.066,2.8711
		c-1.266,1.2886-3.5685,1.5599-5.2779,1.5599c-3.652,0-7.4326-1.5494-8.9577-2.525c-1.6034-1.0243-3.5841-1.2643-5.3875-0.6434
		c-1.7982,0.6191-3.2172,2.0259-3.8502,3.8206l-2.052,5.817C372.3364,420.8828,373.3502,423.8895,375.7483,425.4616z"/>
	<path class="st0" d="M164.2108,82.3466c5.4066,16.672,19.3622,29.5338,36.4167,33.5682l10.7468,2.5433
		c7.8043,10.9238,18.2949,18.9523,32.393,20.785v22.1367h-15.3398c-3.4415,0-6.2326,2.7911-6.2326,6.2326
		s2.7911,6.2327,6.2326,6.2327h43.145c3.4415,0,6.2326-2.7911,6.2326-6.2327s-2.7911-6.2326-6.2326-6.2326h-15.3398V139.243
		c14.0981-1.8326,24.5887-9.8611,32.393-20.785l10.7468-2.5433c17.0546-4.0345,31.0101-16.8962,36.4167-33.5682l3.9354-12.1296
		c1.1755-3.6224,0.5408-7.6238-1.699-10.7036c-2.2399-3.0815-5.85-4.9214-9.6585-4.9214h-18.7469
		c1.5472-12.5884,1.6832-21.8251,1.6941-23.0768c0.0139-1.6625-0.6365-3.2624-1.8068-4.4414
		c-1.1704-1.1808-2.7633-1.8451-4.4258-1.8451H250h-55.0816c-1.6625,0-3.2554,0.6643-4.4258,1.8451
		c-1.1703,1.179-1.8207,2.7789-1.8068,4.4414c0.0109,1.2517,0.1469,10.4884,1.6941,23.0768h-18.7469
		c-3.8085,0-7.4186,1.8399-9.6585,4.9214c-2.2399,3.0798-2.8746,7.0812-1.699,10.7036L164.2108,82.3466z M307.7467,67.0571h19.8987
		l-3.7128,11.4427c-4.019,12.3918-14.312,21.9766-26.9271,25.1471C302.3074,91.8716,305.6464,78.8088,307.7467,67.0571z
		 M250,37.6938h48.5899c-0.8342,14.2446-4.3019,49.3952-18.496,71.1638c-0.3594,0.4105-0.6675,0.8629-0.9085,1.3511
		C272.2148,120.2933,262.78,127.1888,250,127.1888s-22.2148-6.8955-29.1854-16.9801c-0.241-0.4883-0.5491-0.9407-0.9085-1.3511
		c-14.1941-21.7686-17.6619-56.9192-18.496-71.1638H250z M192.2533,67.0571c2.1003,11.7516,5.4393,24.8145,10.7413,36.5898
		c-12.6152-3.1705-22.9081-12.7553-26.9271-25.1471l-3.7128-11.4427H192.2533z"/>
</g>
</svg>
