<?xml version="1.0" encoding="utf-8"?>
<!-- Generator: Adobe Illustrator 27.8.1, SVG Export Plug-In . SVG Version: 6.00 Build 0)  -->
<!DOCTYPE svg PUBLIC "-//W3C//DTD SVG 1.1//EN" "http://www.w3.org/Graphics/SVG/1.1/DTD/svg11.dtd" [
	<!ENTITY ns_extend "http://ns.adobe.com/Extensibility/1.0/">
	<!ENTITY ns_ai "http://ns.adobe.com/AdobeIllustrator/10.0/">
	<!ENTITY ns_graphs "http://ns.adobe.com/Graphs/1.0/">
	<!ENTITY ns_vars "http://ns.adobe.com/Variables/1.0/">
	<!ENTITY ns_imrep "http://ns.adobe.com/ImageReplacement/1.0/">
	<!ENTITY ns_sfw "http://ns.adobe.com/SaveForWeb/1.0/">
	<!ENTITY ns_custom "http://ns.adobe.com/GenericCustomNamespace/1.0/">
	<!ENTITY ns_adobe_xpath "http://ns.adobe.com/XPath/1.0/">
]>
<svg version="1.1" id="Layer_1" xmlns:x="&ns_extend;" xmlns:i="&ns_ai;" xmlns:graph="&ns_graphs;"
	 xmlns="http://www.w3.org/2000/svg" xmlns:xlink="http://www.w3.org/1999/xlink" x="0px" y="0px" width="500px" height="500px"
	 viewBox="0 0 500 500" style="enable-background:new 0 0 500 500;" xml:space="preserve">
<style type="text/css">
	.st0{fill:#FF6600;}
	.st1{fill:#FFFFFF;}
</style>
<metadata>
	<sfw  xmlns="&ns_sfw;">
		<slices></slices>
		<sliceSourceBounds  bottomLeftOrigin="true" height="500" width="500" x="520" y="-500"></sliceSourceBounds>
	</sfw>
</metadata>
<path class="st0" d="M0,0v500h500V0H0z M413.6,459.8c-1.3,1.7-3.5,2.5-5.6,1.9l-26.7-7L375,479c-0.5,2.1-2.3,3.6-4.5,3.9
	c-0.2,0-0.5,0-0.7,0c-1.9,0-3.7-1-4.6-2.7l-31.8-55.7c-2.4,0.2-4.8,0.3-7.3,0.3c-2.4,0-4.9-0.1-7.3-0.3l-31.8,55.7
	c-1,1.7-2.7,2.7-4.6,2.7c-0.2,0-0.5,0-0.7,0c-2.1-0.3-3.9-1.8-4.5-3.9l-6.4-24.3l-26.7,7c-2.1,0.5-4.3-0.2-5.6-1.9
	c-1.3-1.7-1.5-4-0.4-5.9l30.1-52.8c-0.1-0.1-0.2-0.2-0.3-0.3c-4.3-4.3-8-8.9-11.1-13.9H112.8c-15.2,0-27.5-12.4-27.5-27.5V44.7
	c0-15.2,12.4-27.5,27.5-27.5h169.5c1.8-0.4,3.6,0.1,4.9,1.4L363.6,95c1,1,1.6,2.4,1.6,3.8v0.5c0.1,0.4,0.1,0.7,0.1,1.1v170.3
	c25.6,13.9,43,41,43,72.2c0,22.8-9.3,43.4-24.3,58.3l30.1,52.8C415.1,455.8,414.9,458.1,413.6,459.8z"/>
<g>
	<g>
		<g>
			<path class="st1" d="M126.7,95.8H247c2.9,0,5.3-2.4,5.3-5.3V61.3c0-2.9-2.4-5.3-5.3-5.3H126.7c-2.9,0-5.3,2.4-5.3,5.3v29.1
				C121.4,93.4,123.8,95.8,126.7,95.8z M132,66.7h109.6v18.5H132V66.7z"/>
			<path class="st1" d="M247,102.3H126.7c-6.5,0-11.8-5.3-11.8-11.8V61.3c0-6.5,5.3-11.8,11.8-11.8H247c6.5,0,11.8,5.3,11.8,11.8
				v29.1C258.8,97,253.5,102.3,247,102.3z M138.5,78.6h96.6v-5.5h-96.6V78.6z"/>
		</g>
		<g>
			<path class="st1" d="M126.7,164.7h180c2.9,0,5.3-2.4,5.3-5.3c0-2.9-2.4-5.3-5.3-5.3h-180c-2.9,0-5.3,2.4-5.3,5.3
				C121.4,162.3,123.8,164.7,126.7,164.7z"/>
			<path class="st1" d="M306.7,171.2h-180c-6.5,0-11.8-5.3-11.8-11.8c0-6.5,5.3-11.8,11.8-11.8h180c6.5,0,11.8,5.3,11.8,11.8
				C318.6,165.9,313.2,171.2,306.7,171.2z"/>
		</g>
		<g>
			<path class="st1" d="M126.7,205.7h180c2.9,0,5.3-2.4,5.3-5.3c0-2.9-2.4-5.3-5.3-5.3h-180c-2.9,0-5.3,2.4-5.3,5.3
				C121.4,203.3,123.8,205.7,126.7,205.7z"/>
			<path class="st1" d="M306.7,212.2h-180c-6.5,0-11.8-5.3-11.8-11.8s5.3-11.8,11.8-11.8h180c6.5,0,11.8,5.3,11.8,11.8
				S313.2,212.2,306.7,212.2z"/>
		</g>
		<g>
			<path class="st1" d="M126.7,246.8h180c2.9,0,5.3-2.4,5.3-5.3c0-2.9-2.4-5.3-5.3-5.3h-180c-2.9,0-5.3,2.4-5.3,5.3
				C121.4,244.5,123.8,246.8,126.7,246.8z"/>
			<path class="st1" d="M306.7,253.3h-180c-6.5,0-11.8-5.3-11.8-11.8s5.3-11.8,11.8-11.8h180c6.5,0,11.8,5.3,11.8,11.8
				S313.2,253.3,306.7,253.3z"/>
		</g>
		<g>
			<path class="st1" d="M246.4,282.7c0-2.9-2.4-5.3-5.3-5.3H126.7c-2.9,0-5.3,2.4-5.3,5.3s2.4,5.3,5.3,5.3h114.4
				C244,288,246.4,285.6,246.4,282.7z"/>
			<path class="st1" d="M241.1,294.5H126.7c-6.5,0-11.8-5.3-11.8-11.8s5.3-11.8,11.8-11.8h114.4c6.5,0,11.8,5.3,11.8,11.8
				S247.6,294.5,241.1,294.5z"/>
		</g>
		<g>
			<path class="st1" d="M221.7,318.5h-95c-2.9,0-5.3,2.4-5.3,5.3c0,2.9,2.4,5.3,5.3,5.3h95c2.9,0,5.3-2.4,5.3-5.3
				C227,320.9,224.6,318.5,221.7,318.5z"/>
			<path class="st1" d="M221.7,335.6h-95c-6.5,0-11.8-5.3-11.8-11.8s5.3-11.8,11.8-11.8h95c6.5,0,11.8,5.3,11.8,11.8
				S228.2,335.6,221.7,335.6z"/>
		</g>
		<g>
			<path class="st1" d="M326.2,280.3c-34.5,0-62.6,28.1-62.6,62.6c0,34.5,28.1,62.6,62.6,62.6c2.4,0,4.7-0.1,7-0.4
				c31.6-3.5,55.5-30.3,55.5-62.2C388.8,308.4,360.7,280.3,326.2,280.3z M332.1,394.5C332,394.5,332,394.5,332.1,394.5
				c-1.9,0.2-3.9,0.3-5.9,0.3c-28.6,0-51.9-23.3-51.9-51.9s23.3-51.9,51.9-51.9c28.6,0,51.9,23.3,51.9,51.9
				C378.1,369.4,358.3,391.5,332.1,394.5z"/>
			<path class="st1" d="M326.2,411.9c-38.1,0-69.1-31-69.1-69.1s31-69.1,69.1-69.1s69.1,31,69.1,69.1c0,35.2-26.3,64.7-61.3,68.6
				C331.4,411.8,328.8,411.9,326.2,411.9z M326.2,297.5c-25,0-45.4,20.4-45.4,45.4c0,25,20.4,45.4,45.4,45.4c1.6,0,3.2-0.1,4.8-0.3
				l0.4,0c23-2.6,40.3-22,40.3-45.1C371.6,317.8,351.2,297.5,326.2,297.5z"/>
		</g>
		<g>
			<path class="st1" d="M414,453.9l-30.1-52.8c15-14.9,24.3-35.5,24.3-58.3c0-31.1-17.4-58.3-43-72.2V100.4c0-0.4,0-0.8-0.1-1.1
				v-0.5c0-1.4-0.6-2.8-1.6-3.8l-76.3-76.5c-1.3-1.3-3.1-1.8-4.9-1.4H112.8c-15.2,0-27.5,12.4-27.5,27.5v314.8
				c0,15.2,12.4,27.5,27.5,27.5H257c3.2,4.9,6.9,9.6,11.1,13.9c0.1,0.1,0.2,0.2,0.3,0.3l-30.1,52.8c-1.1,1.9-0.9,4.2,0.4,5.9
				c1.3,1.7,3.5,2.5,5.6,1.9l26.7-7l6.4,24.3c0.5,2.1,2.3,3.6,4.5,3.9c0.2,0,0.5,0,0.7,0c1.9,0,3.7-1,4.6-2.7l31.8-55.7
				c2.4,0.2,4.9,0.3,7.3,0.3c2.5,0,4.9-0.1,7.3-0.3l31.8,55.7c1,1.7,2.7,2.7,4.6,2.7c0.2,0,0.5,0,0.7,0c2.1-0.3,3.9-1.8,4.5-3.9
				l6.4-24.3l26.7,7c2.1,0.5,4.3-0.2,5.6-1.9C414.9,458.1,415.1,455.8,414,453.9z M298.2,94.9c-3.9-0.2-7.2-2.7-8.6-6.2
				c-0.4-1.1-0.6-2.2-0.6-3.5v-50l59.5,59.6H298.2z M112.8,376.4c-9.3,0-16.9-7.6-16.9-16.9V44.7c0-9.3,7.6-16.9,16.9-16.9h165.3
				v57.9c0,0.1,0,0.2,0,0.3c0.1,2.2,0.6,4.3,1.3,6.2c2.8,7.9,10.3,13.5,19.2,13.5h55.9v160.2c-8.9-3.3-18.4-5.1-28.4-5.1
				c-45.3,0-82.1,36.8-82.1,82.1c0,11.8,2.5,23.1,7.1,33.5H112.8z M276.6,408.3c3.4,2.6,6.9,4.9,10.6,6.9l-16,28.5l-17.4,4.6
				L276.6,408.3z M284.4,463.7l-3.9-14.7l16.5-29.4c3.5,1.3,7,2.4,10.7,3.2L284.4,463.7z M314.6,413.4c-14.8-2.4-28.3-9.3-38.9-20
				c-13.5-13.5-20.9-31.4-20.9-50.5c0-39.4,32-71.4,71.4-71.4c39.4,0,71.4,32,71.4,71.4c0,39.4-32,71.4-71.4,71.4
				C322.3,414.3,318.4,414,314.6,413.4z M368,463.7l-23.3-40.9c3.7-0.8,7.2-1.9,10.7-3.3l16.5,29.4L368,463.7z M381.1,443.7
				l-16-28.5c3.7-2,7.3-4.3,10.6-6.9l22.8,40L381.1,443.7z"/>
			<path class="st1" d="M369.9,489.5c-4.2,0-8.2-2.3-10.3-6l-29.8-52.2c-2.5,0.1-4.8,0.1-7.3,0l-29.8,52.2c-2.1,3.7-6,6-10.3,6
				c-0.5,0-1,0-1.6-0.1c-4.8-0.6-8.7-4.1-9.9-8.7l-4.7-18L246,468c-4.6,1.2-9.5-0.5-12.4-4.2c-2.9-3.8-3.3-8.9-0.9-13l27.7-48.6
				c-2.4-2.7-4.7-5.6-6.8-8.6H112.8c-18.8,0-34-15.3-34-34V44.7c0-18.8,15.3-34,34-34h169c3.7-0.5,7.4,0.7,10.1,3.3l76.3,76.5
				c2.2,2.2,3.4,5.1,3.5,8.2c0.1,0.6,0.1,1.1,0.1,1.7v166.6c26.6,16,43,44.8,43,75.9c0,22.1-8.1,42.9-22.8,59.3l27.7,48.6
				c2.4,4.1,2,9.3-0.9,13c-2.9,3.8-7.8,5.5-12.4,4.2l-20.4-5.3l-4.7,18c-1.2,4.7-5.1,8.1-9.9,8.7
				C370.9,489.5,370.4,489.5,369.9,489.5z M326.2,278c-35.8,0-64.9,29.1-64.9,64.9c0,17.3,6.8,33.7,19,45.9
				c9.7,9.7,21.9,16,35.4,18.2l0,0c3.5,0.6,7,0.9,10.5,0.9c35.8,0,64.9-29.1,64.9-64.9C391.1,307.1,362,278,326.2,278z M112.8,34.3
				c-5.7,0-10.4,4.7-10.4,10.4v314.8c0,5.7,4.7,10.4,10.4,10.4h129c-2.8-8.7-4.2-17.7-4.2-27c0-48.8,39.7-88.6,88.6-88.6
				c7.4,0,14.8,0.9,21.9,2.7V112.2h-49.4c-11.3,0-21.4-7.1-25.3-17.7c-1-2.7-1.6-5.4-1.7-8.2c0-0.2,0-0.4,0-0.6V34.3H112.8z
				 M298.4,88.4h34.3L295.4,51v34.3c0,0.3,0.1,0.7,0.2,1C296.1,87.5,297.2,88.3,298.4,88.4z"/>
		</g>
	</g>
	<g>
		<path class="st1" d="M280.5,449l3.9,14.7l23.3-40.9c-3.7-0.8-7.2-1.9-10.7-3.2L280.5,449z"/>
	</g>
	<g>
		<path class="st1" d="M276.6,408.3l-22.8,39.9l17.4-4.6l16-28.5C283.6,413.2,280,410.9,276.6,408.3z"/>
	</g>
	<g>
		<path class="st1" d="M326.2,260.8c10,0,19.6,1.8,28.4,5.1V105.7h-55.9c-8.8,0-16.3-5.6-19.2-13.5c-0.8-2-1.2-4.1-1.3-6.2
			c0-0.1,0-0.2,0-0.3V27.8H112.8c-9.3,0-16.9,7.6-16.9,16.9v314.8c0,9.3,7.6,16.9,16.9,16.9h138.4c-4.7-10.4-7.1-21.8-7.1-33.5
			C244.1,297.6,280.9,260.8,326.2,260.8z M121.4,61.3c0-2.9,2.4-5.3,5.3-5.3H247c2.9,0,5.3,2.4,5.3,5.3v29.1c0,2.9-2.4,5.3-5.3,5.3
			H126.7c-2.9,0-5.3-2.4-5.3-5.3V61.3z M126.7,154h180c2.9,0,5.3,2.4,5.3,5.3c0,2.9-2.4,5.3-5.3,5.3h-180c-2.9,0-5.3-2.4-5.3-5.3
			C121.4,156.4,123.8,154,126.7,154z M126.7,195.1h180c2.9,0,5.3,2.4,5.3,5.3c0,2.9-2.4,5.3-5.3,5.3h-180c-2.9,0-5.3-2.4-5.3-5.3
			C121.4,197.4,123.8,195.1,126.7,195.1z M126.7,236.2h180c2.9,0,5.3,2.4,5.3,5.3c0,2.9-2.4,5.3-5.3,5.3h-180
			c-2.9,0-5.3-2.4-5.3-5.3C121.4,238.6,123.8,236.2,126.7,236.2z M221.7,329.1h-95c-2.9,0-5.3-2.4-5.3-5.3c0-2.9,2.4-5.3,5.3-5.3h95
			c2.9,0,5.3,2.4,5.3,5.3C227,326.7,224.6,329.1,221.7,329.1z M126.7,288c-2.9,0-5.3-2.4-5.3-5.3s2.4-5.3,5.3-5.3h114.4
			c2.9,0,5.3,2.4,5.3,5.3s-2.4,5.3-5.3,5.3H126.7z"/>
	</g>
	<g>
		<path class="st1" d="M298.2,94.9h50.2l-59.5-59.6v50c0,1.2,0.2,2.4,0.6,3.5C291,92.2,294.3,94.7,298.2,94.9z"/>
	</g>
	<g>
		<path class="st1" d="M326.2,291c-28.6,0-51.9,23.3-51.9,51.9s23.3,51.9,51.9,51.9c1.9,0,3.9-0.1,5.8-0.3c0,0,0,0,0,0
			c26.3-2.9,46.1-25.1,46.1-51.6C378.1,314.3,354.8,291,326.2,291z"/>
	</g>
	<g>
		<rect x="132" y="66.7" class="st1" width="109.6" height="18.5"/>
	</g>
	<g>
		<path class="st1" d="M397.6,342.9c0-39.4-32-71.4-71.4-71.4c-39.4,0-71.4,32-71.4,71.4c0,19.1,7.4,37,20.9,50.5
			c10.7,10.7,24.1,17.6,38.9,20c3.8,0.6,7.7,0.9,11.6,0.9C365.6,414.3,397.6,382.3,397.6,342.9z M333.2,405c-2.3,0.3-4.7,0.4-7,0.4
			c-34.5,0-62.6-28.1-62.6-62.6c0-34.5,28.1-62.6,62.6-62.6c34.5,0,62.6,28.1,62.6,62.6C388.8,374.8,364.9,401.5,333.2,405z"/>
	</g>
	<g>
		<path class="st1" d="M365.1,415.1l16,28.5l17.4,4.6l-22.8-40C372.4,410.8,368.8,413.1,365.1,415.1z"/>
	</g>
	<g>
		<path class="st1" d="M344.7,422.8l23.3,40.9l3.9-14.7l-16.5-29.4C351.9,420.9,348.4,422,344.7,422.8z"/>
	</g>
	<g>
		<path class="st0" d="M126.7,95.8H247c2.9,0,5.3-2.4,5.3-5.3V61.3c0-2.9-2.4-5.3-5.3-5.3H126.7c-2.9,0-5.3,2.4-5.3,5.3v29.1
			C121.4,93.4,123.8,95.8,126.7,95.8z M132,66.7h109.6v18.5H132V66.7z"/>
	</g>
	<g>
		<path class="st0" d="M126.7,164.7h180c2.9,0,5.3-2.4,5.3-5.3c0-2.9-2.4-5.3-5.3-5.3h-180c-2.9,0-5.3,2.4-5.3,5.3
			C121.4,162.3,123.8,164.7,126.7,164.7z"/>
	</g>
	<g>
		<path class="st0" d="M126.7,205.7h180c2.9,0,5.3-2.4,5.3-5.3c0-2.9-2.4-5.3-5.3-5.3h-180c-2.9,0-5.3,2.4-5.3,5.3
			C121.4,203.3,123.8,205.7,126.7,205.7z"/>
	</g>
	<g>
		<path class="st0" d="M126.7,246.8h180c2.9,0,5.3-2.4,5.3-5.3c0-2.9-2.4-5.3-5.3-5.3h-180c-2.9,0-5.3,2.4-5.3,5.3
			C121.4,244.5,123.8,246.8,126.7,246.8z"/>
	</g>
	<g>
		<path class="st0" d="M246.4,282.7c0-2.9-2.4-5.3-5.3-5.3H126.7c-2.9,0-5.3,2.4-5.3,5.3s2.4,5.3,5.3,5.3h114.4
			C244,288,246.4,285.6,246.4,282.7z"/>
	</g>
	<g>
		<path class="st0" d="M221.7,318.5h-95c-2.9,0-5.3,2.4-5.3,5.3c0,2.9,2.4,5.3,5.3,5.3h95c2.9,0,5.3-2.4,5.3-5.3
			C227,320.9,224.6,318.5,221.7,318.5z"/>
	</g>
	<g>
		<path class="st0" d="M326.2,280.3c-34.5,0-62.6,28.1-62.6,62.6c0,34.5,28.1,62.6,62.6,62.6c2.4,0,4.7-0.1,7-0.4
			c31.6-3.5,55.5-30.3,55.5-62.2C388.8,308.4,360.7,280.3,326.2,280.3z M332.1,394.5C332,394.5,332,394.5,332.1,394.5
			c-1.9,0.2-3.9,0.3-5.9,0.3c-28.6,0-51.9-23.3-51.9-51.9s23.3-51.9,51.9-51.9c28.6,0,51.9,23.3,51.9,51.9
			C378.1,369.4,358.3,391.5,332.1,394.5z"/>
	</g>
</g>
<path class="st0" d="M383.9,401.2c15-14.9,24.3-35.5,24.3-58.3c0-31.1-17.4-58.3-43-72.2V100.4c0-0.4,0-0.8-0.1-1.1v-0.5
	c0-1.4-0.6-2.8-1.6-3.8l-76.3-76.5c-1.3-1.3-3.1-1.8-4.9-1.4H112.8c-15.2,0-27.5,12.4-27.5,27.5v314.8c0,15.2,12.4,27.5,27.5,27.5
	H257c3.2,4.9,6.9,9.6,11.1,13.9c0.1,0.1,0.2,0.2,0.3,0.3l-30.1,52.8c-1.1,1.9-0.9,4.2,0.4,5.9c1.3,1.7,3.5,2.5,5.6,1.9l26.7-7
	l6.4,24.3c0.5,2.1,2.3,3.6,4.5,3.9c0.2,0,0.5,0,0.7,0c1.9,0,3.7-1,4.6-2.7l31.8-55.7c2.4,0.2,4.9,0.3,7.3,0.3c2.5,0,4.9-0.1,7.3-0.3
	l31.8,55.7c1,1.7,2.7,2.7,4.6,2.7c0.2,0,0.5,0,0.7,0c2.1-0.3,3.9-1.8,4.5-3.9l6.4-24.3l26.7,7c2.1,0.5,4.3-0.2,5.6-1.9
	c1.3-1.7,1.5-4,0.4-5.9L383.9,401.2z M288.9,35.3l59.5,59.6h-50.2c-3.9-0.2-7.2-2.7-8.6-6.2c-0.4-1.1-0.6-2.2-0.6-3.5V35.3z
	 M112.8,376.4c-9.3,0-16.9-7.6-16.9-16.9V44.7c0-9.3,7.6-16.9,16.9-16.9h165.3v57.9c0,0.1,0,0.2,0,0.3c0.1,2.2,0.6,4.3,1.3,6.2
	c2.8,7.9,10.3,13.5,19.2,13.5h55.9v160.2c-8.9-3.3-18.4-5.1-28.4-5.1c-45.3,0-82.1,36.8-82.1,82.1c0,11.8,2.5,23.1,7.1,33.5H112.8z
	 M271.3,443.7l-17.4,4.6l22.8-39.9c3.4,2.6,6.9,4.9,10.6,6.9L271.3,443.7z M284.4,463.7l-3.9-14.7l16.5-29.4c3.5,1.3,7,2.4,10.7,3.2
	L284.4,463.7z M326.2,414.3c-3.9,0-7.8-0.3-11.6-0.9c-14.8-2.4-28.3-9.3-38.9-20c-13.5-13.5-20.9-31.4-20.9-50.5
	c0-39.4,32-71.4,71.4-71.4c39.4,0,71.4,32,71.4,71.4C397.6,382.3,365.6,414.3,326.2,414.3z M368,463.7l-23.3-40.9
	c3.7-0.8,7.2-1.9,10.7-3.3l16.5,29.4L368,463.7z M381.1,443.7l-16-28.5c3.7-2,7.3-4.3,10.6-6.9l22.8,40L381.1,443.7z"/>
</svg>
