<?xml version="1.0" encoding="utf-8"?>
<!-- Generator: Adobe Illustrator 27.8.1, SVG Export Plug-In . SVG Version: 6.00 Build 0)  -->
<!DOCTYPE svg PUBLIC "-//W3C//DTD SVG 1.1//EN" "http://www.w3.org/Graphics/SVG/1.1/DTD/svg11.dtd" [
	<!ENTITY ns_extend "http://ns.adobe.com/Extensibility/1.0/">
	<!ENTITY ns_ai "http://ns.adobe.com/AdobeIllustrator/10.0/">
	<!ENTITY ns_graphs "http://ns.adobe.com/Graphs/1.0/">
	<!ENTITY ns_vars "http://ns.adobe.com/Variables/1.0/">
	<!ENTITY ns_imrep "http://ns.adobe.com/ImageReplacement/1.0/">
	<!ENTITY ns_sfw "http://ns.adobe.com/SaveForWeb/1.0/">
	<!ENTITY ns_custom "http://ns.adobe.com/GenericCustomNamespace/1.0/">
	<!ENTITY ns_adobe_xpath "http://ns.adobe.com/XPath/1.0/">
]>
<svg version="1.1" id="Layer_1" xmlns:x="&ns_extend;" xmlns:i="&ns_ai;" xmlns:graph="&ns_graphs;"
	 xmlns="http://www.w3.org/2000/svg" xmlns:xlink="http://www.w3.org/1999/xlink" x="0px" y="0px" width="500px" height="500px"
	 viewBox="0 0 500 500" style="enable-background:new 0 0 500 500;" xml:space="preserve">
<style type="text/css">
	.st0{fill:#FF6600;}
	.st1{fill:#FFFFFF;}
</style>
<metadata>
	<sfw  xmlns="&ns_sfw;">
		<slices></slices>
		<sliceSourceBounds  bottomLeftOrigin="true" height="500" width="500" x="520" y="-500"></sliceSourceBounds>
	</sfw>
</metadata>
<path class="st0" d="M0,0v500h500V0H0z M456.9222,339.0005c-12.636,11.3439-26.7535,14.1238-34.9914,14.6887
	c0.261,9.0541-2.1514,25.2036-19.1076,40.1629c-20.4363,18.0065-71.5055,13.6926-88.5286,11.6638
	c-4.6703,18.8562-24.3635,63.1324-43.2117,64.0935c-0.2451,0.0128-0.4885,0.0191-0.7288,0.0191
	c-15.6116,0-18.2945-26.222-19.184-34.9277c-6.7198-65.9219-33.4193-88.9089-39.2893-93.2116
	c-46.4069-0.2451-78.5006-10.2619-95.398-29.7817c-8.9396-10.3255-11.3089-20.8643-11.8181-27.3725
	c-51.6484-1.666-69.5435-25.716-73.4723-32.2687c-19.4799-13.0736-13.9154-39.3529-7.4295-53.3765
	c-1.2443-5.4564-2.5205-18.7177,0.4138-49.8265c3.8762-40.8296,64.1635-60.4559,78.5372-64.5677
	c10.7727-26.8156,42.6882-30.8271,60.7726-28.9781c9.0159-7.7748,26.4559-14.3991,28.5786-15.1884
	c0.0717-0.027,0.1432-0.0525,0.2148-0.0748c52.7639-17.2554,93.1304-8.2522,117.7008,2.3391
	c21.2542,9.1608,34.5458,20.8961,39.4245,25.6842c42.5816-3.4403,60.3621,36.8133,64.6282,48.5757
	c38.0195,11.7322,43.0128,64.4611,43.6636,77.0558c16.3086,14.6791,24.5751,38.6019,24.5751,71.1586
	C482.2722,298.957,473.7432,323.8997,456.9222,339.0005z"/>
<g>
	<g>
		<path class="st1" d="M457.6971,193.7093c-0.6508-12.5947-5.6441-65.3236-43.6636-77.0558
			c-4.2661-11.7625-22.0466-52.0161-64.6282-48.5757c-4.8787-4.7881-18.1703-16.5234-39.4245-25.6842
			C285.4104,31.8022,245.0439,22.799,192.28,40.0544c-0.0716,0.0223-0.1432,0.0477-0.2148,0.0748
			c-2.1227,0.7892-19.5627,7.4136-28.5786,15.1884c-18.0845-1.849-49.9999,2.1625-60.7726,28.9781
			c-14.3737,4.1118-74.6609,23.7381-78.5372,64.5677c-2.9343,31.1088-1.6581,44.3701-0.4138,49.8265
			c-6.4859,14.0236-12.0504,40.3029,7.4295,53.3765c3.9288,6.5527,21.8239,30.6027,73.4723,32.2687
			c0.5092,6.5082,2.8785,17.047,11.8181,27.3725c16.8974,19.5198,48.9911,29.5366,95.398,29.7817
			c5.8701,4.3027,32.5695,27.2897,39.2893,93.2116c0.8895,8.7056,3.5723,34.9277,19.184,34.9277
			c0.2403,0,0.4837-0.0063,0.7288-0.0191c18.8483-0.9611,38.5414-45.2373,43.2117-64.0935
			c17.0231,2.0288,68.0923,6.3427,88.5286-11.6638c16.9562-14.9593,19.3686-31.1088,19.1076-40.1629
			c8.2379-0.5649,22.3553-3.3448,34.9914-14.6887c16.821-15.1009,25.35-40.0435,25.35-74.1327
			C482.2722,232.3112,474.0057,208.3884,457.6971,193.7093z M449.4529,330.3776c-12.3923,11.2234-26.9074,12.0762-31.6904,12.0231
			c-21.4909-18.3643-46.05-24.0228-56.6823-26.4684c-1.1409-0.2626-2.3996-0.5522-3.1347-0.7479
			c-0.8959-0.5856-1.9652-0.9245-3.1141-0.9245c-3.149,0-5.703,2.554-5.703,5.703c0,4.9249,4.1452,5.8781,9.3947,7.0858
			c9.7956,2.2532,32.4147,7.4631,51.7805,23.978c0.6743,4.7468,1.2652,19.9-15.0228,34.2693
			c-16.7621,14.7682-66.8973,10.9334-84.7955,8.2123c-1.6485-0.2482-3.3145,0.2292-4.5764,1.3128
			c-1.2603,1.0836-1.9858,2.6621-1.9858,4.325c0,3.9638-4.8597,18.7209-12.7729,33.7502
			c-10.3876,19.7266-18.0479,25.1893-20.6479,25.3214c-0.0128,0.0016-0.0271,0.0016-0.0398,0.0016
			c-1.5483,0-5.8701-4.387-7.9451-24.6769c-5.817-57.0648-26.1829-84.6346-37.7864-95.9879
			c12.9307-4.6526,38.6331-12.3398,66.3364-11.8885c3.1857,0.0986,5.7428-2.4617,5.7937-5.6123
			c0.0494-3.149-2.4616-5.7428-5.6123-5.7937c-38.4122-0.5753-72.0598,12.9335-78.7901,15.8186
			c-53.5262-0.2013-76.9257-13.9849-87.1188-25.5697c-10.8045-12.2764-9.3788-24.4987-9.3199-24.9697
			c0.2371-1.6374-0.2482-3.2971-1.3318-4.5494c-1.0837-1.2507-2.6574-1.9699-4.3123-1.9699
			c-55.4802,0-69.2126-26.351-69.7457-27.425c-0.4789-1.0104-1.2443-1.8586-2.2007-2.4393
			c-18.5745-11.2501-3.6519-41.0524-3.5039-41.3436c0.9182-1.7853,1.1537-3.3559,0.1146-5.0251
			c-0.4487-1.5021-2.8356-11.562,0.4916-46.8493c3.5501-37.3989,72.2375-55.2128,72.9313-55.3878
			c1.9016-0.4822,3.4244-1.9079,4.0291-3.7728c8.3145-25.6836,40.1682-24.9211,49.5704-24.1087
			c3.8808,6.8279,14.8519,29.6968,7.746,59.6379c-0.7272,3.0647,1.168,6.139,4.2311,6.8662
			c0.4439,0.105,0.8863,0.1559,1.3223,0.1559c2.5826,0,4.9217-1.7663,5.5438-4.3871c2.8793-12.132,3.1704-23.1812,2.1478-32.7726
			c10.232-1.7623,33.5523-3.2825,40.6868,17.4728c0.8115,2.3646,3.025,3.8508,5.3927,3.8508c0.6143,0,1.2396-0.1002,1.8538-0.3119
			c2.9788-1.0231,4.5637-4.2677,3.5389-7.2465c-8.8749-25.8192-36.0612-28.0319-53.3651-25.0437
			c-2.3596-10.2124-5.9222-17.9415-8.3627-22.4306c6.6556-4.867,18.3665-9.8155,23.1386-11.6005
			c39.3848-12.8588,76.058-12.2557,109.0126,1.7869c24.661,10.507,37.9144,25.0477,38.0386,25.1846
			c1.2459,1.3971,3.0966,2.1068,4.9615,1.8618c33.6046-4.1943,49.0313,24.7335,54.1371,37.4625
			c-13.7047,3.3658-43.1924,12.8157-46.2908,32.3388c-0.4933,3.1109,1.6278,6.0324,4.7387,6.5273
			c0.304,0.0477,0.6047,0.0716,0.9006,0.0716c2.756,0,5.1811-2.0034,5.6266-4.8103c2.0929-13.1897,30.7855-21.7311,42.3494-24.0838
			c29.2734,7.9872,35.399,49.2316,36.6562,64.0123c-14.244,2.2164-34.6011,12.259-37.2006,39.799
			c-0.296,3.1363,2.0066,5.9178,5.1413,6.2137c0.183,0.0175,0.3629,0.0255,0.5427,0.0255c2.9088,0,5.3927-2.2134,5.6711-5.1668
			c2.3619-25.0297,23.1402-29.1552,29.8589-29.8356c13.7812,12.4402,20.7855,33.4744,20.7855,62.6215
			C470.8662,295.4706,463.6611,317.5109,449.4529,330.3776z"/>
		<path class="st1" d="M270.3545,476.1289c-21.4844,0-24.6201-30.6836-25.6514-40.7666
			c-5.9551-58.4219-27.75-81.2578-35.0918-87.3926c-47.168-0.5723-80.1494-11.3369-98.043-32.0078
			c-7.7539-8.9561-11.1777-18.085-12.6025-25.3945c-47.8799-3.084-66.9121-25.2344-72.5781-33.9287
			c-19.5117-14.1362-17.4785-39.8599-9.3984-58.7153c-1.6729-9.8359-1.4307-26.9067,0.7158-49.6704
			c4-42.1304,59.0645-62.8833,80.2754-69.3364c11.8809-24.854,40.6855-31.8989,63.4639-30.2983
			c9.9336-7.5269,25.1992-13.4082,28.3564-14.5815c0.1338-0.0518,0.3164-0.1157,0.5068-0.1753
			c54.6719-17.8657,96.6543-8.4678,122.2461,2.563c19.7227,8.5005,32.9932,19.2202,39.2764,24.9961
			c41.8477-1.6836,60.9795,34.6108,67.1855,50.0654c36.7344,13.7158,43.7031,60.9941,45.0098,79.2495
			c16.4248,16.0571,24.7471,40.9785,24.7471,74.1328c0,36.0137-9.2549,62.583-27.5078,78.9697
			c-11.4834,10.3086-24.1416,14.2139-33.0273,15.6562c-0.9326,10.2773-5.3721,25.3438-21.1133,39.2324
			c-20.2646,17.8535-64.8828,16.1621-88.085,13.8467c-6.4707,20.5791-25.3594,62.3926-47.625,63.5273
			C271.0605,476.1191,270.7061,476.1289,270.3545,476.1289z M236.2236,340.585c12.1641,15.0488,27.7656,43.3018,32.7607,92.2979
			c0.8867,8.6797,2.1514,13.7676,3.1465,16.6367c2.7539-2.7354,7.335-8.3838,13.2686-19.6514
			c8.083-15.3535,11.9268-28.3926,12.0244-30.7578c-0.001-3.5234,1.5479-6.8965,4.248-9.2178
			c2.6992-2.3203,6.2725-3.3447,9.7842-2.8105c25.4912,3.875,67.0068,4.3672,79.5273-6.6631
			c11.7344-10.3516,13.2031-20.9043,13.0723-26.124c-17.7207-14.1797-38.0986-18.8662-46.9893-20.9111
			c-5.4014-1.2432-14.4375-3.3223-14.4375-13.4209c0-6.7285,5.4736-12.2031,12.2021-12.2031c1.9463,0,3.8447,0.459,5.5576,1.3369
			c0.6396,0.1543,1.4209,0.334,2.1504,0.502c10.6777,2.4551,35.2852,8.1162,57.5156,26.248
			c5.2314-0.2949,15.8691-1.9863,25.0352-10.2871c12.791-11.583,19.2764-32.0029,19.2764-60.6914
			c0-25.5815-5.5518-44.3081-16.5127-55.7319c-7.4395,1.4272-19.541,6.3989-21.1602,23.5566
			c-0.6309,6.686-6.4551,11.6538-13.3047,11.0005c-3.2363-0.3052-6.168-1.8569-8.2461-4.3677
			c-2.0781-2.5117-3.0537-5.6826-2.7461-8.9282c2.457-26.042,19.5439-39.6099,36.5791-44.3003
			c-2.001-15.2852-8.6064-45.1895-29.8408-52.1963c-16.3613,3.603-34.6094,11.8159-35.6533,18.3999
			c-0.9463,5.9634-6.0127,10.2915-12.0459,10.2915c-0.6338,0-1.2773-0.0508-1.9131-0.1509
			c-6.6523-1.0581-11.1992-7.3223-10.1465-13.9653c3.127-19.6997,26.1377-30.3047,43.6426-35.5815
			c-6.9189-13.519-20.335-29.7295-44.2646-26.7524c-3.9365,0.5229-7.9287-0.9697-10.6182-3.9868
			c-0.0762-0.082-12.7168-13.7227-35.7344-23.5293c-31.4287-13.3936-66.5234-13.9434-104.3145-1.6313
			c-4.3311,1.6279-11.3525,4.6753-16.8701,7.8076c1.6035,3.5288,3.2969,7.8516,4.7744,12.8867
			c21.7266-2.0825,45.9619,4.7686,54.6807,30.1318c1.0605,3.0806,0.8574,6.3921-0.5732,9.3218s-3.917,5.126-7,6.1851
			c-1.2793,0.4404-2.6152,0.6646-3.9658,0.6646c-5.2109,0-9.8486-3.312-11.541-8.2412
			c-4.4268-12.8804-17.4639-14.6685-27.5977-13.9053c0.4121,9.52-0.5127,19.1113-2.7637,28.5962
			c-1.3135,5.5273-6.1943,9.3862-11.8682,9.3862c-0.9443,0-1.8936-0.1113-2.8203-0.3306
			c-6.5498-1.5557-10.6113-8.1465-9.0576-14.6929c5.7393-24.1851-1.3379-43.4199-5.4688-51.8721
			c-10.8047-0.3979-33.2881,1.1523-39.3398,19.8462c-1.3018,4.0166-4.5215,7.0332-8.6143,8.0713
			c-18.0557,4.6191-65.4814,22.5522-68.0596,49.7017c-2.9209,30.9824-1.3438,41.5508-0.8564,43.8623
			c1.1846,2.4424,1.8145,5.9868-0.4385,10.3696c-0.1025,0.2046-12.2021,24.7612,1.0898,32.812
			c2.0293,1.2329,3.6377,3.0034,4.665,5.1284c0.6279,1.208,13.0752,23.7954,63.9141,23.7954c3.543,0,6.9062,1.5371,9.2256,4.2158
			c2.2969,2.6523,3.3379,6.1562,2.8652,9.6299c-0.0664,0.6406-0.8701,10.0527,7.752,19.8496
			c9.2061,10.4609,30.7158,22.9541,80.9463,23.3555c9.0186-3.7354,42.376-16.3789,80.1816-15.8096
			c6.7314,0.1084,12.1182,5.668,12.0137,12.3936c-0.0537,3.3193-1.3975,6.3994-3.7852,8.6768
			c-2.3574,2.25-5.4346,3.4307-8.709,3.332C269.8496,331.8096,249.8203,336.4268,236.2236,340.585z M291.165,319.167
			c0.0039,0,0.0049,0,0.0078,0c-0.002,0-0.0049,0-0.0068,0H291.165z"/>
	</g>
	<g>
		<path class="st1" d="M309.7596,126.6735c3.1188-0.4344,5.2957-3.3162,4.8612-6.4365
			c-1.8745-13.4444-7.4485-23.3387-16.5712-29.4061c-15.4748-10.2921-35.23-5.232-36.0623-5.0124
			c-3.0392,0.8036-4.8469,3.9128-4.0513,6.9537c0.7956,3.0409,3.9144,4.8724,6.9505,4.0768
			c0.1575-0.0414,15.7485-3.9495,26.8999,3.5151c6.2568,4.1865,10.1378,11.4028,11.5365,21.4483
			c0.3978,2.8515,2.8404,4.9169,5.6409,4.9153C309.2265,126.7277,309.4922,126.7101,309.7596,126.6735z"/>
		<path class="st1" d="M308.9551,133.2275c-6.0439,0-11.2334-4.52-12.0693-10.5176c-1.1328-8.1323-4.0645-13.8325-8.7139-16.9434
			c-8.6025-5.7583-21.5645-2.6484-21.6934-2.6152c-3.0957,0.8091-6.3818,0.3555-9.1973-1.2959
			c-2.8096-1.6489-4.8105-4.291-5.6338-7.4395c-1.6982-6.4902,2.1943-13.167,8.6777-14.8818
			c2.3818-0.6274,23.7539-5.8018,41.3242,5.8848c10.7363,7.1406,17.2666,18.5532,19.4092,33.9199
			c0.4502,3.23-0.3848,6.4404-2.3486,9.041c-1.9648,2.6021-4.8252,4.2822-8.0547,4.7314l-0.0137,0.002
			c-0.5547,0.0757-1.1182,0.1143-1.6777,0.1143C308.9609,133.2275,308.958,133.2275,308.9551,133.2275z"/>
	</g>
	<g>
		<path class="st1" d="M429.2871,259.5118c-6.9442,6.9362-13.8581,9.9405-20.5397,8.9762
			c-14.3434-2.1036-24.7056-21.0283-24.809-21.2192c-1.4894-2.7704-4.9408-3.811-7.7143-2.3296
			c-2.7767,1.4862-3.8238,4.9424-2.3375,7.7191c0.4739,0.8864,10.7305,19.7148,27.3728,25.6426
			c-1.3055,10.9008-2.3594,36.3643,14.2699,46.5281c0.9277,0.5681,1.954,0.8386,2.9692,0.8386
			c1.9207-0.0016,3.7951-0.9722,4.8708-2.7305c1.6422-2.6876,0.7957-6.1979-1.892-7.8401
			c-10.082-6.1623-10.2005-24.5097-8.9639-35.0463c8.5446-0.3494,16.877-4.5193,24.8349-12.4681
			c2.2277-2.2261,2.2309-5.8367,0.0048-8.066S431.5164,257.2872,429.2871,259.5118z"/>
		<path class="st1" d="M418.5049,332.168c-2.252,0-4.4531-0.6211-6.3711-1.7959c-17.5381-10.7207-18.7227-34.4062-17.7861-47.9775
			c-15.8379-7.9648-25.1045-24.6338-26.1943-26.6738c-1.5352-2.8682-1.8623-6.1694-0.918-9.2896
			c0.9453-3.1196,3.0479-5.6846,5.9209-7.2227c5.9268-3.165,13.3291-0.9287,16.5068,4.9819
			c2.4648,4.4922,10.9062,16.5293,20.0273,17.8662c4.5479,0.665,9.6006-1.7461,15.0029-7.1436l0.0029-0.0029
			c4.7617-4.752,12.5029-4.7461,17.2568,0.0137c4.7529,4.7617,4.748,12.502-0.0107,17.2568
			c-7.3926,7.3848-15.2373,11.959-23.3887,13.6504c-0.4961,10.249,1.1816,20.583,6.3135,23.7197
			c5.7402,3.5078,7.5566,11.0342,4.0488,16.7754C426.6807,329.9805,422.7891,332.1641,418.5049,332.168z M433.8779,264.1133
			l-0.001,0.001C433.8779,264.1133,433.8779,264.1133,433.8779,264.1133L433.8779,264.1133z M378.2207,250.3608
			c0.001,0.001,0.002,0.002,0.002,0.0029C378.2227,250.3628,378.2217,250.3618,378.2207,250.3608z"/>
	</g>
	<g>
		<path class="st1" d="M281.4976,257.4559c-2.6033-1.7678-6.1501-1.0963-7.9228,1.5101
			c-21.6472,31.8375-62.6948,18.8689-64.4324,18.2977c-2.982-0.9786-6.2074,0.6396-7.1956,3.6264
			c-0.9898,2.9899,0.6317,6.217,3.6216,7.2051c0.2291,0.0764,10.7504,3.445,24.6547,3.445c16.7096,0,38.3043-4.866,52.7845-26.1616
			C284.7787,262.7738,284.1024,259.2269,281.4976,257.4559z"/>
		<path class="st1" d="M230.2227,298.04c-15.1523,0-26.5879-3.7373-26.7021-3.7754c-3.0879-1.0205-5.5996-3.1885-7.0635-6.1035
			c-1.4639-2.9121-1.7051-6.2207-0.6807-9.3145c2.1074-6.3711,9.0127-9.8525,15.3926-7.7588
			c1.5498,0.5078,38.0605,12.1221,57.0312-15.7764c3.7803-5.5615,11.3848-7.0107,16.9492-3.2334l0.0029,0.002
			c5.5635,3.7822,7.0137,11.3867,3.2314,16.9521C272.0811,293.0078,247.7568,298.04,230.2227,298.04z"/>
	</g>
	<g>
		<path class="st1" d="M167.533,206.7797c0.0589-3.1443-2.4426-5.7365-5.5869-5.8001c-0.0382,0-0.0779-0.0016-0.1161-0.0016
			c-3.0918,0-5.6314,2.4776-5.6998,5.5837c-0.006,0.2751-0.7896,26.2126-17.7096,41.1725
			c-9.2539-5.9357-21.3679-9.0815-36.1984-9.3525c-0.0366-0.0016-0.0716-0.0016-0.1066-0.0016c-3.1013,0-5.6442,2.4855-5.6998,5.598
			c-0.0589,3.1507,2.4473,5.7491,5.5964,5.8065c16.8337,0.3087,29.1976,4.6814,36.7497,12.9957
			c9,9.9102,8.1646,22.4969,8.1503,22.707c-0.2626,3.1252,2.0495,5.8796,5.1779,6.1565c0.1719,0.0159,0.3421,0.0223,0.5108,0.0223
			c2.9215,0,5.4118-2.2325,5.6744-5.1986c0.062-0.7081,1.3955-17.4829-10.9207-31.1899c-0.0426-0.0474-0.0895-0.0908-0.1323-0.1381
			C166.7302,236.791,167.5095,208.0924,167.533,206.7797z"/>
		<path class="st1" d="M152.6006,298.166c-0.3633,0-0.7295-0.0156-1.0996-0.0488c-6.623-0.5859-11.5791-6.4424-11.0742-13.0781
			c0.0244-0.5293,0.3604-10.3604-6.4766-17.8887c-6.2998-6.9365-17.0859-10.5928-32.0576-10.8672
			c-3.2588-0.0596-6.2998-1.3838-8.5615-3.7305c-2.2627-2.3477-3.4756-5.4365-3.4141-8.6978
			c0.1182-6.6001,5.5898-11.9751,12.1982-11.9751c0.0947,0,0.1904,0.001,0.2871,0.0044
			c13.6729,0.2568,25.3936,2.8569,34.9287,7.7383c11.5469-13.2305,12.2949-33.021,12.3008-33.2363
			c0.1445-6.5518,5.6172-11.9082,12.1982-11.9082l0.1797,0.002c6.7852,0.1377,12.1475,5.709,12.0225,12.4209
			c-0.0244,1.3018-0.7432,28.562-18.1904,48.6382c10.0391,14.3682,9.0713,29.6299,8.9092,31.4912
			C164.1885,293.3838,158.9648,298.166,152.6006,298.166z M153.3975,285.9219c0,0.0068-0.001,0.0127-0.001,0.0176
			C153.3965,285.9336,153.3975,285.9277,153.3975,285.9219z"/>
	</g>
	<g>
		<path class="st1" d="M146.064,175.9972c2.6653-1.6772,3.4673-5.197,1.7885-7.8639c-1.6787-2.6653-5.2001-3.4658-7.8639-1.7886
			c-19.092,12.0098-37.2213,8.3454-45.9363,5.3221c4.293-9.3436,5.1152-20.626,2.4334-33.6478
			c-0.6349-3.0854-3.6567-5.084-6.7357-4.4348c-3.0838,0.6349-5.0713,3.6503-4.4348,6.7357
			c2.6271,12.7633,1.2667,23.1382-4.0465,30.8382c-7.4995,10.8746-20.7354,13.15-20.9438,13.1834
			c-3.1014,0.4854-5.2288,3.3878-4.7546,6.4939c0.4312,2.8228,2.861,4.8453,5.6314,4.8453c0.2848,0,0.5744-0.0223,0.8656-0.0668
			c0.6703-0.1016,15.165-2.4459,25.5939-14.1691c4.9344,1.9618,13.5859,4.6216,24.2246,4.6216
			C121.9854,186.0665,133.8735,183.6685,146.064,175.9972z"/>
		<path class="st1" d="M61.2012,202.1807c-6.0674,0-11.1377-4.3579-12.0566-10.3628c-1.0127-6.627,3.5527-12.8613,10.1758-13.8979
			c0.0215-0.0049,10.7656-1.9951,16.5977-10.4517c4.2676-6.1846,5.2871-14.8774,3.0312-25.8379
			c-0.6582-3.1904-0.0342-6.4492,1.7598-9.1724c1.793-2.7222,4.5381-4.583,7.7305-5.2402c3.1553-0.666,6.4131-0.0508,9.1436,1.7373
			c2.7383,1.7944,4.6094,4.5479,5.2686,7.7539c2.3252,11.2856,2.2246,21.5234-0.2881,30.5435
			c8.6064,1.7065,21.0195,1.7339,33.9639-6.4097c5.6924-3.583,13.2402-1.8667,16.8252,3.8267
			c1.7373,2.7607,2.2959,6.0308,1.5732,9.209c-0.7236,3.1777-2.6406,5.8838-5.3994,7.6196v0.0005
			c-11.6719,7.3442-24.3359,11.0679-37.6406,11.0679c-9.043,0-16.7812-1.7261-22.5068-3.5938
			c-11.3037,10.5127-24.7158,12.8218-26.3369,13.0679C62.4443,202.1323,61.8193,202.1807,61.2012,202.1807z M61.373,190.7568
			c-0.0029,0.0005-0.0059,0.001-0.0088,0.0015C61.3672,190.7578,61.3701,190.7573,61.373,190.7568z M142.6025,170.4961
			c-0.001,0.0005-0.002,0.001-0.0029,0.0015C142.5996,170.4976,142.6016,170.4961,142.6025,170.4961L142.6025,170.4961z"/>
	</g>
	<g>
		<path class="st1" d="M291.874,205.1025c-11.724-1.4833-21.5144-4.6394-29.2777-9.3585c-0.3167-0.2442-0.6598-0.4581-1.0294-0.6335
			c-11.4399-7.3307-18.2347-18.2245-19.9904-32.3604c-0.132-1.0725-0.2211-1.7822-0.5505-2.6064
			c-1.1711-2.9247-4.4968-4.3457-7.4152-3.173c-2.6701,1.0693-4.0863,3.9304-3.4196,6.645
			c0.0191,0.1448,0.0398,0.3246,0.0668,0.5394c2.0419,16.4412,9.6887,29.5048,22.2405,38.5844
			c-6.1752,18.118-23.8218,22.2955-24.6178,22.4747c-3.0726,0.6921-5.0028,3.7441-4.3123,6.8168
			c0.5983,2.651,2.9502,4.4523,5.5598,4.4523c0.4137,0,0.8354-0.0461,1.2571-0.14c1.0325-0.2331,23.2601-5.4987,32.0962-27.7242
			c7.9938,3.8199,17.3435,6.4571,27.9604,7.8004c0.2434,0.0302,0.4853,0.0446,0.724,0.0446c2.8292,0,5.2861-2.1052,5.6505-4.9869
			C297.2111,208.3519,294.9992,205.4988,291.874,205.1025z"/>
		<path class="st1" d="M229.1279,242.9834c-5.7402,0-10.6338-3.915-11.9004-9.5205c-1.4756-6.5698,2.6631-13.1118,9.2256-14.5898
			c0.542-0.124,12.1426-2.9004,18.1143-14.1167c-11.6064-9.9727-18.751-23.6284-20.7598-39.7998l-0.0293-0.2354
			c-1.1797-5.7271,1.9473-11.5947,7.417-13.7847c3.0166-1.2119,6.333-1.1753,9.3301,0.106c3.001,1.2817,5.3213,3.6558,6.5352,6.6836
			c0.6455,1.6187,0.8096,2.9468,0.9668,4.2305c1.4873,11.9688,7.1318,21.2251,16.7793,27.5088
			c0.4854,0.2559,0.9551,0.5469,1.4053,0.8691c6.9736,4.1797,15.8799,6.9785,26.4785,8.3193l0.002,0.0005
			c6.6719,0.8467,11.415,6.9639,10.5732,13.6367c-0.7695,6.085-5.9707,10.6729-12.0996,10.6729
			c-0.5107,0-1.0244-0.0317-1.5264-0.0942c-8.7197-1.103-16.7559-3.0562-23.9814-5.8223
			c-11.3691,20.3413-32.8516,25.4131-33.8418,25.6367C230.915,242.8843,230.0176,242.9834,229.1279,242.9834z"/>
	</g>
	<g>
		<path class="st1" d="M315.5724,161.0093c-2.8802-1.2745-6.2473,0.0239-7.525,2.9041c-1.2762,2.8801,0.0239,6.2488,2.904,7.525
			c0.1893,0.0827,18.9994,8.6086,24.9077,27.7098c4.2645,13.7865,0.802,29.8755-10.2921,47.8199
			c-1.6565,2.6797-0.8275,6.1947,1.8506,7.8496c0.9357,0.5776,1.9716,0.8529,2.9948,0.8529c1.9095,0,3.7776-0.9595,4.8549-2.7035
			c12.9049-20.8739,16.7701-40.1152,11.4887-57.1891C339.3312,171.7756,316.5383,161.4373,315.5724,161.0093z"/>
		<path class="st1" d="M330.4121,262.1709c-2.2627,0-4.4795-0.6309-6.4111-1.8242c-2.7725-1.7119-4.7119-4.4033-5.4609-7.5781
			c-0.748-3.1729-0.2158-6.4468,1.499-9.2197c10.0615-16.2749,13.2959-30.5679,9.6104-42.48
			c-4.9629-16.0454-21.2021-23.6284-21.3662-23.7031c-6.1172-2.7109-8.9043-9.9341-6.1777-16.0859
			c2.7275-6.1489,9.9512-8.9355,16.0967-6.2144l0.0049,0.002c1.0771,0.4775,26.4727,12.0029,34.7588,38.7896
			c5.8604,18.9482,1.7666,39.9858-12.1699,62.5278C338.5566,260.0078,334.6748,262.1709,330.4121,262.1709z"/>
	</g>
</g>
<g>
	<path class="st1" d="M450.0807,202.2464c-6.7187,0.6804-27.4969,4.8059-29.8589,29.8356
		c-0.2784,2.9534-2.7624,5.1668-5.6711,5.1668c-0.1798,0-0.3596-0.008-0.5427-0.0255c-3.1347-0.296-5.4373-3.0775-5.1413-6.2137
		c2.5995-27.5399,22.9566-37.5825,37.2006-39.799c-1.2571-14.7808-7.3828-56.0251-36.6562-64.0123
		c-11.5639,2.3527-40.2565,10.8941-42.3494,24.0838c-0.4456,2.8069-2.8706,4.8103-5.6266,4.8103
		c-0.296,0-0.5967-0.0239-0.9006-0.0716c-3.1109-0.4949-5.232-3.4164-4.7387-6.5273c3.0983-19.5231,32.5861-28.973,46.2908-32.3388
		c-5.1058-12.729-20.5326-41.6568-54.1371-37.4625c-1.8649,0.2451-3.7156-0.4647-4.9615-1.8618
		c-0.1241-0.1368-13.3776-14.6776-38.0386-25.1846c-32.9546-14.0427-69.6279-14.6458-109.0126-1.7869
		c-4.7721,1.785-16.483,6.7335-23.1386,11.6005c2.4404,4.4891,6.0031,12.2182,8.3627,22.4306
		c17.3038-2.9882,44.4902-0.7755,53.3651,25.0437c1.0248,2.9788-0.5601,6.2233-3.5389,7.2465
		c-0.6143,0.2117-1.2396,0.3119-1.8538,0.3119c-2.3677,0-4.5812-1.4862-5.3927-3.8508
		c-7.1345-20.7553-30.4548-19.2352-40.6868-17.4728c1.0226,9.5914,0.7316,20.6406-2.1478,32.7726
		c-0.6221,2.6208-2.9612,4.3871-5.5438,4.3871c-0.436,0-0.8784-0.051-1.3223-0.1559c-3.0632-0.7272-4.9583-3.8015-4.2311-6.8662
		c7.1059-29.9411-3.8652-52.8099-7.746-59.6379c-9.4022-0.8124-41.2559-1.5749-49.5704,24.1087
		c-0.6047,1.8649-2.1275,3.2906-4.0291,3.7728c-0.6938,0.175-69.3812,17.989-72.9313,55.3878
		c-3.3273,35.2874-0.9404,45.3472-0.4916,46.8493c1.0391,1.6692,0.8035,3.2397-0.1146,5.0251
		c-0.1479,0.2912-15.0706,30.0936,3.5039,41.3436c0.9564,0.5807,1.7217,1.4289,2.2007,2.4393
		c0.5331,1.0741,14.2655,27.425,69.7457,27.425c1.6548,0,3.2286,0.7192,4.3123,1.9699c1.0836,1.2523,1.5689,2.912,1.3318,4.5494
		c-0.0589,0.471-1.4846,12.6933,9.3199,24.9697c10.1931,11.5848,33.5927,25.3684,87.1188,25.5697
		c6.7303-2.8851,40.3779-16.3939,78.7901-15.8186c3.1507,0.0509,5.6617,2.6447,5.6123,5.7937
		c-0.0509,3.1506-2.608,5.7109-5.7937,5.6123c-27.7034-0.4513-53.4057,7.236-66.3364,11.8885
		c11.6036,11.3533,31.9695,38.9231,37.7864,95.9879c2.075,20.2899,6.3968,24.6769,7.9451,24.6769c0.0127,0,0.027,0,0.0398-0.0016
		c2.6-0.1321,10.2603-5.5948,20.6479-25.3214c7.9132-15.0292,12.7729-29.7864,12.7729-33.7502c0-1.6628,0.7256-3.2413,1.9858-4.325
		c1.2619-1.0836,2.9279-1.561,4.5764-1.3128c17.8983,2.7211,68.0334,6.5559,84.7955-8.2123
		c16.288-14.3693,15.6971-29.5225,15.0228-34.2693c-19.3658-16.5148-41.9849-21.7248-51.7805-23.978
		c-5.2495-1.2078-9.3947-2.1609-9.3947-7.0858c0-3.149,2.554-5.703,5.703-5.703c1.1489,0,2.2182,0.3389,3.1141,0.9245
		c0.7351,0.1957,1.9938,0.4854,3.1347,0.7479c10.6322,2.4456,35.1913,8.1041,56.6823,26.4684
		c4.783,0.0531,19.2982-0.7997,31.6904-12.0231c14.2082-12.8668,21.4133-34.907,21.4133-65.5098
		C470.8662,235.7208,463.8619,214.6866,450.0807,202.2464z M62.0673,195.614c-0.2912,0.0446-0.5808,0.0668-0.8656,0.0668
		c-2.7704,0-5.2002-2.0225-5.6314-4.8453c-0.4742-3.1061,1.6533-6.0085,4.7546-6.4939c0.2084-0.0334,13.4443-2.3088,20.9438-13.1834
		c5.3132-7.7,6.6736-18.0749,4.0465-30.8382c-0.6365-3.0854,1.351-6.1008,4.4348-6.7357c3.079-0.6492,6.1008,1.3494,6.7357,4.4348
		c2.6818,13.0219,1.8596,24.3043-2.4334,33.6478c8.715,3.0233,26.8442,6.6876,45.9363-5.3221
		c2.6638-1.6772,6.1852-0.8768,7.8639,1.7886c1.6788,2.6669,0.8768,6.1867-1.7885,7.8639
		c-12.1905,7.6713-24.0786,10.0693-34.1782,10.0693c-10.6387,0-19.2902-2.6599-24.2246-4.6216
		C77.2322,193.168,62.7375,195.5124,62.0673,195.614z M147.3545,255.2775c12.3162,13.707,10.9827,30.4818,10.9207,31.1899
		c-0.2626,2.9661-2.7529,5.1986-5.6744,5.1986c-0.1687,0-0.3389-0.0063-0.5108-0.0223c-3.1284-0.2769-5.4404-3.0313-5.1779-6.1565
		c0.0143-0.2101,0.8497-12.7968-8.1503-22.707c-7.5521-8.3143-19.916-12.687-36.7497-12.9957
		c-3.149-0.0573-5.6553-2.6558-5.5964-5.8065c0.0557-3.1124,2.5985-5.598,5.6998-5.598c0.035,0,0.07,0,0.1066,0.0016
		c14.8305,0.2709,26.9445,3.4168,36.1984,9.3525c16.92-14.9599,17.7036-40.8974,17.7096-41.1725
		c0.0684-3.1061,2.608-5.5837,5.6998-5.5837c0.0382,0,0.0779,0.0016,0.1161,0.0016c3.1443,0.0637,5.6458,2.6558,5.5869,5.8001
		c-0.0235,1.3127-0.8029,30.0113-20.3108,48.3597C147.265,255.1866,147.3119,255.23,147.3545,255.2775z M283.0076,265.3787
		c-14.4802,21.2956-36.075,26.1616-52.7845,26.1616c-13.9042,0-24.4255-3.3687-24.6547-3.445
		c-2.9899-0.9882-4.6115-4.2152-3.6216-7.2051c0.9882-2.9868,4.2136-4.605,7.1956-3.6264
		c1.7376,0.5712,42.7852,13.5399,64.4324-18.2977c1.7726-2.6064,5.3195-3.278,7.9228-1.5101
		C284.1024,259.2269,284.7787,262.7738,283.0076,265.3787z M296.8164,211.4771c-0.3644,2.8817-2.8212,4.9869-5.6505,4.9869
		c-0.2387,0-0.4806-0.0143-0.724-0.0446c-10.6169-1.3433-19.9666-3.9805-27.9604-7.8004
		c-8.8361,22.2255-31.0637,27.4911-32.0962,27.7242c-0.4217,0.0939-0.8434,0.14-1.2571,0.14c-2.6096,0-4.9615-1.8013-5.5598-4.4523
		c-0.6906-3.0727,1.2396-6.1247,4.3123-6.8168c0.796-0.1792,18.4426-4.3566,24.6178-22.4747
		c-12.5518-9.0796-20.1986-22.1432-22.2405-38.5844c-0.027-0.2148-0.0477-0.3946-0.0668-0.5394
		c-0.6667-2.7147,0.7495-5.5757,3.4196-6.645c2.9183-1.1727,6.244,0.2482,7.4152,3.173c0.3294,0.8242,0.4185,1.5339,0.5505,2.6064
		c1.7556,14.1359,8.5505,25.0297,19.9904,32.3604c0.3696,0.1754,0.7128,0.3893,1.0294,0.6335
		c7.7633,4.7191,17.5537,7.8752,29.2777,9.3585C294.9992,205.4988,297.2111,208.3519,296.8164,211.4771z M303.323,121.8123
		c-1.3987-10.0455-5.2797-17.2618-11.5365-21.4483c-11.1514-7.4645-26.7424-3.5565-26.8999-3.5151
		c-3.0361,0.7956-6.1549-1.0359-6.9505-4.0768c-0.7956-3.0408,1.012-6.1501,4.0513-6.9537
		c0.8322-0.2196,20.5875-5.2797,36.0623,5.0124c9.1226,6.0674,14.6967,15.9617,16.5712,29.4061
		c0.4344,3.1204-1.7424,6.0021-4.8612,6.4365c-0.2673,0.0366-0.5331,0.0541-0.7957,0.0541
		C306.1634,126.7292,303.7208,124.6638,303.323,121.8123z M335.2672,252.967c-1.0773,1.744-2.9454,2.7035-4.8549,2.7035
		c-1.0232,0-2.0591-0.2753-2.9948-0.8529c-2.678-1.6549-3.5071-5.1699-1.8506-7.8496
		c11.0941-17.9444,14.5566-34.0334,10.2921-47.8199c-5.9083-19.1013-24.7183-27.6271-24.9077-27.7098
		c-2.8801-1.2762-4.1802-4.6448-2.904-7.525c1.2777-2.8802,4.6448-4.1786,7.525-2.9041
		c0.9659,0.428,23.7588,10.7664,31.1835,34.7686C352.0372,212.8519,348.1721,232.0931,335.2672,252.967z M437.3483,267.5825
		c-7.9579,7.9488-16.2903,12.1188-24.8349,12.4681c-1.2366,10.5366-1.1182,28.884,8.9639,35.0463
		c2.6876,1.6422,3.5341,5.1525,1.892,7.8401c-1.0757,1.7583-2.9501,2.7289-4.8708,2.7305c-1.0152,0-2.0416-0.2705-2.9692-0.8386
		c-16.6293-10.1638-15.5754-35.6273-14.2699-46.5281c-16.6423-5.9277-26.8989-24.7562-27.3728-25.6426
		c-1.4863-2.7767-0.4392-6.2329,2.3375-7.7191c2.7735-1.4814,6.2249-0.4408,7.7143,2.3296
		c0.1035,0.1909,10.4656,19.1155,24.809,21.2192c6.6816,0.9643,13.5956-2.04,20.5397-8.9762
		c2.2293-2.2245,5.8398-2.2245,8.066,0.0048S439.576,265.3564,437.3483,267.5825z"/>
</g>
<g>
	<g>
		<path class="st0" d="M457.6971,193.7093c-0.6508-12.5947-5.6441-65.3236-43.6636-77.0558
			c-4.2661-11.7625-22.0466-52.0161-64.6282-48.5757c-4.8787-4.7881-18.1703-16.5234-39.4245-25.6842
			C285.4104,31.8022,245.0439,22.799,192.28,40.0544c-0.0716,0.0223-0.1432,0.0477-0.2148,0.0748
			c-2.1227,0.7892-19.5627,7.4136-28.5786,15.1884c-18.0845-1.849-49.9999,2.1625-60.7726,28.9781
			c-14.3737,4.1118-74.6609,23.7381-78.5372,64.5677c-2.9343,31.1088-1.6581,44.3701-0.4138,49.8265
			c-6.4859,14.0236-12.0504,40.3029,7.4295,53.3765c3.9288,6.5527,21.8239,30.6027,73.4723,32.2687
			c0.5092,6.5082,2.8785,17.047,11.8181,27.3725c16.8974,19.5198,48.9911,29.5366,95.398,29.7817
			c5.8701,4.3027,32.5695,27.2897,39.2893,93.2116c0.8895,8.7056,3.5723,34.9277,19.184,34.9277
			c0.2403,0,0.4837-0.0063,0.7288-0.0191c18.8483-0.9611,38.5414-45.2373,43.2117-64.0935
			c17.0231,2.0288,68.0923,6.3427,88.5286-11.6638c16.9562-14.9593,19.3686-31.1088,19.1076-40.1629
			c8.2379-0.5649,22.3553-3.3448,34.9914-14.6887c16.821-15.1009,25.35-40.0435,25.35-74.1327
			C482.2722,232.3112,474.0057,208.3884,457.6971,193.7093z M449.4529,330.3776c-12.3923,11.2234-26.9074,12.0762-31.6904,12.0231
			c-21.4909-18.3643-46.05-24.0228-56.6823-26.4684c-1.1409-0.2626-2.3996-0.5522-3.1347-0.7479
			c-0.8959-0.5856-1.9652-0.9245-3.1141-0.9245c-3.149,0-5.703,2.554-5.703,5.703c0,4.9249,4.1452,5.8781,9.3947,7.0858
			c9.7956,2.2532,32.4147,7.4631,51.7805,23.978c0.6743,4.7468,1.2652,19.9-15.0228,34.2693
			c-16.7621,14.7682-66.8973,10.9334-84.7955,8.2123c-1.6485-0.2482-3.3145,0.2292-4.5764,1.3128
			c-1.2603,1.0836-1.9858,2.6621-1.9858,4.325c0,3.9638-4.8597,18.7209-12.7729,33.7502
			c-10.3876,19.7266-18.0479,25.1893-20.6479,25.3214c-0.0128,0.0016-0.0271,0.0016-0.0398,0.0016
			c-1.5483,0-5.8701-4.387-7.9451-24.6769c-5.817-57.0648-26.1829-84.6346-37.7864-95.9879
			c12.9307-4.6526,38.6331-12.3398,66.3364-11.8885c3.1857,0.0986,5.7428-2.4617,5.7937-5.6123
			c0.0494-3.149-2.4616-5.7428-5.6123-5.7937c-38.4122-0.5753-72.0598,12.9335-78.7901,15.8186
			c-53.5262-0.2013-76.9257-13.9849-87.1188-25.5697c-10.8045-12.2764-9.3788-24.4987-9.3199-24.9697
			c0.2371-1.6374-0.2482-3.2971-1.3318-4.5494c-1.0837-1.2507-2.6574-1.9699-4.3123-1.9699
			c-55.4802,0-69.2126-26.351-69.7457-27.425c-0.4789-1.0104-1.2443-1.8586-2.2007-2.4393
			c-18.5745-11.2501-3.6519-41.0524-3.5039-41.3436c0.9182-1.7853,1.1537-3.3559,0.1146-5.0251
			c-0.4487-1.5021-2.8356-11.562,0.4916-46.8493c3.5501-37.3989,72.2375-55.2128,72.9313-55.3878
			c1.9016-0.4822,3.4244-1.9079,4.0291-3.7728c8.3145-25.6836,40.1682-24.9211,49.5704-24.1087
			c3.8808,6.8279,14.8519,29.6968,7.746,59.6379c-0.7272,3.0647,1.168,6.139,4.2311,6.8662
			c0.4439,0.105,0.8863,0.1559,1.3223,0.1559c2.5826,0,4.9217-1.7663,5.5438-4.3871c2.8793-12.132,3.1704-23.1812,2.1478-32.7726
			c10.232-1.7623,33.5523-3.2825,40.6868,17.4728c0.8115,2.3646,3.025,3.8508,5.3927,3.8508c0.6143,0,1.2396-0.1002,1.8538-0.3119
			c2.9788-1.0231,4.5637-4.2677,3.5389-7.2465c-8.8749-25.8192-36.0612-28.0319-53.3651-25.0437
			c-2.3596-10.2124-5.9222-17.9415-8.3627-22.4306c6.6556-4.867,18.3665-9.8155,23.1386-11.6005
			c39.3848-12.8588,76.058-12.2557,109.0126,1.7869c24.661,10.507,37.9144,25.0477,38.0386,25.1846
			c1.2459,1.3971,3.0966,2.1068,4.9615,1.8618c33.6046-4.1943,49.0313,24.7335,54.1371,37.4625
			c-13.7047,3.3658-43.1924,12.8157-46.2908,32.3388c-0.4933,3.1109,1.6278,6.0324,4.7387,6.5273
			c0.304,0.0477,0.6047,0.0716,0.9006,0.0716c2.756,0,5.1811-2.0034,5.6266-4.8103c2.0929-13.1897,30.7855-21.7311,42.3494-24.0838
			c29.2734,7.9872,35.399,49.2316,36.6562,64.0123c-14.244,2.2164-34.6011,12.259-37.2006,39.799
			c-0.296,3.1363,2.0066,5.9178,5.1413,6.2137c0.183,0.0175,0.3629,0.0255,0.5427,0.0255c2.9088,0,5.3927-2.2134,5.6711-5.1668
			c2.3619-25.0297,23.1402-29.1552,29.8589-29.8356c13.7812,12.4402,20.7855,33.4744,20.7855,62.6215
			C470.8662,295.4706,463.6611,317.5109,449.4529,330.3776z"/>
	</g>
	<g>
		<path class="st0" d="M309.7596,126.6735c3.1188-0.4344,5.2957-3.3162,4.8612-6.4365
			c-1.8745-13.4444-7.4485-23.3387-16.5712-29.4061c-15.4748-10.2921-35.23-5.232-36.0623-5.0124
			c-3.0392,0.8036-4.8469,3.9128-4.0513,6.9537c0.7956,3.0409,3.9144,4.8724,6.9505,4.0768
			c0.1575-0.0414,15.7485-3.9495,26.8999,3.5151c6.2568,4.1865,10.1378,11.4028,11.5365,21.4483
			c0.3978,2.8515,2.8404,4.9169,5.6409,4.9153C309.2265,126.7277,309.4922,126.7101,309.7596,126.6735z"/>
	</g>
	<g>
		<path class="st0" d="M429.2871,259.5118c-6.9442,6.9362-13.8581,9.9405-20.5397,8.9762
			c-14.3434-2.1036-24.7056-21.0283-24.809-21.2192c-1.4894-2.7704-4.9408-3.811-7.7143-2.3296
			c-2.7767,1.4862-3.8238,4.9424-2.3375,7.7191c0.4739,0.8864,10.7305,19.7148,27.3728,25.6426
			c-1.3055,10.9008-2.3594,36.3643,14.2699,46.5281c0.9277,0.5681,1.954,0.8386,2.9692,0.8386
			c1.9207-0.0016,3.7951-0.9722,4.8708-2.7305c1.6422-2.6876,0.7957-6.1979-1.892-7.8401
			c-10.082-6.1623-10.2005-24.5097-8.9639-35.0463c8.5446-0.3494,16.877-4.5193,24.8349-12.4681
			c2.2277-2.2261,2.2309-5.8367,0.0048-8.066S431.5164,257.2872,429.2871,259.5118z"/>
	</g>
	<g>
		<path class="st0" d="M281.4976,257.4559c-2.6033-1.7678-6.1501-1.0963-7.9228,1.5101
			c-21.6472,31.8375-62.6948,18.8689-64.4324,18.2977c-2.982-0.9786-6.2074,0.6396-7.1956,3.6264
			c-0.9898,2.9899,0.6317,6.217,3.6216,7.2051c0.2291,0.0764,10.7504,3.445,24.6547,3.445c16.7096,0,38.3043-4.866,52.7845-26.1616
			C284.7787,262.7738,284.1024,259.2269,281.4976,257.4559z"/>
	</g>
	<g>
		<path class="st0" d="M167.533,206.7797c0.0589-3.1443-2.4426-5.7365-5.5869-5.8001c-0.0382,0-0.0779-0.0016-0.1161-0.0016
			c-3.0918,0-5.6314,2.4776-5.6998,5.5837c-0.006,0.2751-0.7896,26.2126-17.7096,41.1725
			c-9.2539-5.9357-21.3679-9.0815-36.1984-9.3525c-0.0366-0.0016-0.0716-0.0016-0.1066-0.0016c-3.1013,0-5.6442,2.4855-5.6998,5.598
			c-0.0589,3.1507,2.4473,5.7491,5.5964,5.8065c16.8337,0.3087,29.1976,4.6814,36.7497,12.9957
			c9,9.9102,8.1646,22.4969,8.1503,22.707c-0.2626,3.1252,2.0495,5.8796,5.1779,6.1565c0.1719,0.0159,0.3421,0.0223,0.5108,0.0223
			c2.9215,0,5.4118-2.2325,5.6744-5.1986c0.062-0.7081,1.3955-17.4829-10.9207-31.1899c-0.0426-0.0474-0.0895-0.0908-0.1323-0.1381
			C166.7302,236.791,167.5095,208.0924,167.533,206.7797z"/>
	</g>
	<g>
		<path class="st0" d="M146.064,175.9972c2.6653-1.6772,3.4673-5.197,1.7885-7.8639c-1.6787-2.6653-5.2001-3.4658-7.8639-1.7886
			c-19.092,12.0098-37.2213,8.3454-45.9363,5.3221c4.293-9.3436,5.1152-20.626,2.4334-33.6478
			c-0.6349-3.0854-3.6567-5.084-6.7357-4.4348c-3.0838,0.6349-5.0713,3.6503-4.4348,6.7357
			c2.6271,12.7633,1.2667,23.1382-4.0465,30.8382c-7.4995,10.8746-20.7354,13.15-20.9438,13.1834
			c-3.1014,0.4854-5.2288,3.3878-4.7546,6.4939c0.4312,2.8228,2.861,4.8453,5.6314,4.8453c0.2848,0,0.5744-0.0223,0.8656-0.0668
			c0.6703-0.1016,15.165-2.4459,25.5939-14.1691c4.9344,1.9618,13.5859,4.6216,24.2246,4.6216
			C121.9854,186.0665,133.8735,183.6685,146.064,175.9972z"/>
	</g>
	<g>
		<path class="st0" d="M291.874,205.1025c-11.724-1.4833-21.5144-4.6394-29.2777-9.3585c-0.3167-0.2442-0.6598-0.4581-1.0294-0.6335
			c-11.4399-7.3307-18.2347-18.2245-19.9904-32.3604c-0.132-1.0725-0.2211-1.7822-0.5505-2.6064
			c-1.1711-2.9247-4.4968-4.3457-7.4152-3.173c-2.6701,1.0693-4.0863,3.9304-3.4196,6.645
			c0.0191,0.1448,0.0398,0.3246,0.0668,0.5394c2.0419,16.4412,9.6887,29.5048,22.2405,38.5844
			c-6.1752,18.118-23.8218,22.2955-24.6178,22.4747c-3.0726,0.6921-5.0028,3.7441-4.3123,6.8168
			c0.5983,2.651,2.9502,4.4523,5.5598,4.4523c0.4137,0,0.8354-0.0461,1.2571-0.14c1.0325-0.2331,23.2601-5.4987,32.0962-27.7242
			c7.9938,3.8199,17.3435,6.4571,27.9604,7.8004c0.2434,0.0302,0.4853,0.0446,0.724,0.0446c2.8292,0,5.2861-2.1052,5.6505-4.9869
			C297.2111,208.3519,294.9992,205.4988,291.874,205.1025z"/>
	</g>
	<g>
		<path class="st0" d="M315.5724,161.0093c-2.8802-1.2745-6.2473,0.0239-7.525,2.9041c-1.2762,2.8801,0.0239,6.2488,2.904,7.525
			c0.1893,0.0827,18.9994,8.6086,24.9077,27.7098c4.2645,13.7865,0.802,29.8755-10.2921,47.8199
			c-1.6565,2.6797-0.8275,6.1947,1.8506,7.8496c0.9357,0.5776,1.9716,0.8529,2.9948,0.8529c1.9095,0,3.7776-0.9595,4.8549-2.7035
			c12.9049-20.8739,16.7701-40.1152,11.4887-57.1891C339.3312,171.7756,316.5383,161.4373,315.5724,161.0093z"/>
	</g>
</g>
</svg>
