<?xml version="1.0" encoding="UTF-8"?><svg id="Layer_1" xmlns="http://www.w3.org/2000/svg" viewBox="0 0 200 200"><defs><style>.cls-1{opacity:.55;}.cls-1,.cls-2{fill:#f60;}.cls-1,.cls-2,.cls-3,.cls-4{stroke-width:0px;}.cls-3{fill:#231f20;}.cls-4{fill:#959091;}</style></defs><path class="cls-2" d="m41.8308,71.6391c.0375-.0145.0769-.0301.114-.0444-.0033.0013-.0061.0023-.0095.0035-.0341.0132-.0703.0275-.1046.0409Z"/><path class="cls-2" d="m95.6203,75.4106c-.0203.0781-.0361.1469-.0568.2257-.0419.1549-.2009.2484-.3572.2079-.1564-.0419-.2499-.201-.208-.3574.0028-.0106.0048-.0198.0076-.0304-1.0146.0908-2.0977.2666-3.1682.5081.1409-.2847.2847-.5751.4271-.871.0923-.1934.1852-.3918.278-.5897-.0922.1964-.1843.3934-.277.5856-.0006.0012-.0012.0026-.0018.0038-.1332.2767-.2664.5478-.399.8136-.0094.0189-.0189.0388-.0283.0576-.0004,0-.0007.0002-.0011.0002-.6862,1.3715-1.3541,2.5859-1.933,3.5869h.0003s.0001-.0002.0002-.0003c.2778-.0153.5639-.0237.8612-.0237.5638,0,1.1627.0293,1.7977.0865,1.9387-2.6338,7.3207-3.4698,8.5225-3.6248.0934-.0126.2065-.0307.3112-.0474-1.1068-.1452-2.3281-.3071-3.5215-.4717-.4187-.0587-.8835-.0851-1.3804-.0851-.2804,0-.572.0084-.8718.0251,0,0,0,.0002,0,.0002-.0006,0-.0012,0-.0018.0001Z"/><path class="cls-2" d="m88.4263,80.8833c.0104-.0168.0217-.0355.0323-.0526-.1132.1833-.2174.3499-.3101.4972.0054-.0085.0106-.0167.0161-.0254.0795-.1257.1681-.2678.2618-.4193Z"/><path class="cls-2" d="m41.8173,71.0182c.0098-.0037.0183-.0069.028-.0106.1932-.0743.3753-.1428.558-.2113.0221-.0083.0455-.0173.0674-.0255-.2122.0794-.4262.16-.6533.2474Z"/><path class="cls-2" d="m88.8125,80.2499c.0306-.051.059-.0972.0905-.15.0031-.0052.007-.0121.0101-.0173-.0032.0054-.0068.0115-.01.0169-.1429.2395-.2758.4573-.3997.6584.0125-.0203.0247-.0402.0375-.0609.0854-.1392.177-.2904.2715-.4472Z"/><path class="cls-2" d="m52.5349,68.4657c.8751-.2945,1.7656-.6616,2.4062-1.0789.4285-.275.7342-.5723.8737-.8304.0823-.1494.1158-.2805.1172-.4215,0-.1172-.0251-.2485-.0977-.4104-.0208-.0472-.0347-.0945-.0431-.1431-.6409.2385-1.2889.4901-1.8566.7949-1.7839.9541-5.2018,2.5621-7.7784,3.634,1.614-.3013,3.2302-.6277,4.0268-.851.6127-.1702,1.4739-.3978,2.3519-.6937Z"/><path class="cls-2" d="m26.1889,79.7094c-.1144-.0488-.2666-.0768-.4481-.0754-.4662-.0027-1.1068.1829-1.7153.4522-.6113.268-1.199.6169-1.5898.9142-.1176.0865-.2143.173-.2889.2468.5389.0017,1.6329-.1923,2.5612-.1937.5053.0042.9714.0474,1.3372.275.4313.2777.9393.6044,1.3539,1.0203.4131.4118.7453.9352.7453,1.5772,0,.2233-.0405.4578-.127.6965-.1536.4257-.2582.9519-.2582,1.5088.0056,1.1641.4383,2.437,1.8298,3.3512,2.2011,1.439,4.0658,2.8795,5.1364,3.5368.4285.2639,1.2185.6951,2.1118,1.0566.8919.3615,1.894.6504,2.7245.649.3964,0,.7509-.0641,1.0398-.2023,1.6609-.7872,2.6436-2.4747,3.3065-4.3855.1968-.5638.4313-1.0314.6086-1.425.1801-.3922.2917-.7076.2889-.9407-.0028-.1857-.0488-.3295-.2163-.5207-.1675-.187-.4704-.4019-.9533-.6336-2.1365-1.0292-5.8694-3.0613-6.36-3.3289-.8001-.0162-1.7215-.0961-2.5535-.4016-.8843-.3195-1.6609-.9539-1.962-1.9969-.6661-.0817-3.1402-.3926-4.9244-.7476-.6951-.1382-1.2785-.2791-1.647-.4327Z"/><path class="cls-2" d="m20.9354,82.2963c-.5052.3908-1.0859.8765-1.3273,1.1738-.0698.0809-.1047.1493-.1019.1507-.0922.2848-.2568.5011-.3796.7119-.1257.2094-.208.395-.2066.5918,0,.0977.0181.2037.0712.3308.032.0795.0488.1647.0488.247-.0042.275-.1591.476-.3364.6393-.1801.1647-.4076.3043-.6574.4355-.4997.261-1.0956.4773-1.5465.6365-.2959.1046-.543.1884-.6071.2205-.0154.0029-.1172.081-.2206.2289-.1074.1494-.2289.3657-.3405.649-.2219.5653-.409,1.3944-.409,2.4886,0,.2889.0126.5974.0419.924.1215,1.3832.6393,2.9701,1.1864,4.5571.5471,1.5897,1.1222,3.1809,1.3413,4.6157.0991.6574.1256,1.2925.1256,1.9011,0,.6909-.0335,1.3455-.0335,1.9596,0,1.2045.127,2.2164.8165,3.0832.73.9184,1.2436,1.439,1.6121,1.9918.3713.5527.561,1.1417.6016,2.0546.0405.8583.2275,2.0671.5374,3.1823.3057,1.1152.7537,2.1411,1.2324,2.6115,1.1027,1.1096,3.3861,3.4684,4.1929,5.6723.187.5164.3057.9672.4061,1.3148.0977.3475.194.5918.268.6727l.113.0558c.0726.0042.2485-.0447.5081-.194.2596-.1465.603-.3838,1.0427-.7173.8416-.6379,1.7237-1.5912,2.5556-2.5347.8347-.9435,1.6176-1.8745,2.3085-2.4914.4648-.4048.8751-.6993,1.3441-.7119.0921,0,.187.014.2778.0461h-.0014c.1717.0587.3364.074.5164.074.1424,0,.2931-.0098.4578-.0098.395-.0098.8947.0907,1.3287.575.4396.4788.8654,1.2897,1.3622,2.7455.7161,2.1076,1.2422,3.6024,1.5898,4.5696.3475.9686.5137,1.4055.5151,1.4069.0572.1508-.0195.3196-.1703.3769-.1508.0586-.3196-.0182-.3768-.1689-.0014-.0028-.677-1.7768-2.1104-5.9961-.4829-1.4209-.8975-2.1718-1.238-2.5361-.3448-.3573-.5625-.3796-.9003-.3894-.1368,0-.2889.0098-.4578.0112-.2122,0-.4536-.0182-.709-.1075h-.0014l-.0823-.014c-.1647-.0112-.5346.1815-.9561.5652-.4243.3783-.9156.9156-1.4432,1.5131-.8338.9428-1.7536,2.0227-2.6967,2.8903.1397.1673.3361.4153.548.7326.3782.5695.7872,1.3232.8835,2.1188.0837.7133.1647,1.2352.381,1.9875.2164.7523.5709,1.7363,1.2031,3.3358.6504,1.647.6951,2.9855.7467,4.1202.053,1.1418.1158,2.0518.7426,2.9925.6588.9882,1.8382,2.423,3.0497,3.9193,1.2142,1.499,2.4621,3.0623,3.2772,4.3491.6755,1.0677,1.7475,1.848,2.9255,2.3588,1.1766.5109,2.4565.7495,3.5131.7495.2471,0,.4829-.014.7007-.0377.7258-.0837,1.4739-.2149,2.1089-.4424.6379-.2261,1.1529-.5457,1.4516-.9798.1996-.2903.3168-.6351.3182-1.0817,0-.2066-.0266-.4327-.0823-.684-.3015-1.3287-.3238-2.1815-.3867-3.0037-.0628-.8221-.1619-1.6232-.6169-2.952-.3252-.9449-.744-1.8145-1.0887-2.5696-.3405-.7593-.6197-1.3846-.6266-1.9429-.0014-.2205.053-.4452.1926-.6281.1395-.1843.3489-.3071.596-.3783.2484-.0753.3907-.2163.5108-.4814.1144-.2652.1703-.6505.1703-1.1125.0014-1.0859-.2959-2.5654-.5248-3.9807-.2094-1.2952-.9045-4.9228-1.7266-8.7123-.8193-3.7866-1.7712-7.752-2.4761-9.7004-.7272-2.0113-1.8494-6.3758-2.7985-10.2546-.9127-3.7383-1.6571-7.005-1.709-7.233-.1494.0907-.2966.184-.4581.2611-.3922.1856-.8333.2582-1.291.2582-.9603-.0014-2.0113-.3154-2.9437-.6909-.9324-.3769-1.7419-.8193-2.1983-1.0999-1.1222-.6923-2.9673-2.1188-5.1503-3.5466-1.0829-.705-1.662-1.6407-1.9207-2.5822-.0034.0032-.0023.0085-.0059.0115-.0014.0014-.4187.3601-1.0175.9003-.5974.5402-1.3748,1.259-2.0866,1.9708-.7175.7188-.9561.9951-1.185,1.4599-.2331.4718-.462,1.1794-1.0733,2.6603-1.1738,2.8305-2.0532,4.7232-2.0448,6.2501l.0042.201c.028.5472.0363,1.1766.0363,1.781,0,1.2841-.0419,2.4565-.0419,2.4593-.0056.1605-.141.2875-.3015.2819-.1619-.0056-.2875-.141-.282-.3029,0-.0027.0419-1.1654.0419-2.4383,0-.5988-.0098-1.2213-.0363-1.7531-.0042-.0754-.0056-.1521-.0056-.2289.007-1.7475.9296-3.6526,2.0894-6.4734.6072-1.4698.8235-2.1537,1.0887-2.6938.268-.5471.5821-.9031,1.2967-1.6163,1.4446-1.4446,3.1334-2.8975,3.1362-2.9003.0834-.0711.1882-.0684.2841-.0335-.0443-.2684-.0712-.535-.0701-.7931,0-.6295.1172-1.217.2917-1.7056.0656-.1829.0921-.3475.0935-.4997,0-.4299-.2205-.8067-.575-1.1654-.3531-.3546-.8277-.6672-1.2562-.9407-.1703-.1173-.5612-.1857-1.0217-.1815-.8611-.0014-1.9289.1898-2.5668.1926-.1116,0-.2108-.0056-.3085-.0237-.0541-.012-.1109-.0297-.1686-.0573-.0238.0173-.0372.0268-.0644.0466-.173.127-.4103.3029-.6644.4997Zm17.1751,53.1961c-.0823.1382-.2624.1829-.4006.1005-.1396-.0907-.201-.1982-.2722-.3265-.0684-.1299-.1298-.2848-.1898-.4677-.1215-.3643-.2373-.8375-.3392-1.3846-.2024-1.0928-.3517-2.4774-.3517-3.8062.0028-1.8913-.7495-4.6381-1.1263-5.8761-.1256-.4146-.2079-.6602-.2079-.6602-.0517-.1535.0306-.3182.1842-.3699.1522-.0516.3182.0307.3699.1842.0014.0154,1.3594,4.0226,1.3636,6.722,0,1.0901.1047,2.2303.2568,3.1962.1507.9631.3559,1.7656.5262,2.1271.046.1019.0935.1661.0991.1689l-.0028.003c.128.0856.1718.2554.0907.3892Zm-.3787-37.2593c.1451-.0712.3196-.0112.3908.134.596,1.2171,1.2743,3.4991,1.9932,6.3283.716,2.8264,1.4641,6.1859,2.1675,9.5092,1.4083,6.641,2.6464,13.1508,3.0972,14.8829.91,3.5075,2.6282,9.2105,3.2242,13.1242.113.7495.2401,1.2771.3643,1.6344.1215.3574.2457.5388.3155.596l.053.0334.0321-.0125.0795-.0642.1215-.1633.0042-.007c.0753-.1424.2512-.1982.395-.1228.1423.074.1968.2512.1228.3936-.0153.0181-.1312.2722-.402.4522-.0921.0587-.2121.1075-.3531.1075-.1563.0014-.3168-.067-.4425-.1814-.1284-.1144-.233-.2708-.3336-.4802-.1982-.4201-.3768-1.0677-.5345-2.0978-.5834-3.8425-2.296-9.5441-3.2116-13.0656-.3489-1.3413-1.1264-5.315-2.0895-10.0284-.9616-4.7092-2.1075-10.1471-3.1767-14.3665-.7119-2.811-1.3972-5.0917-1.9512-6.2152-.0712-.1438-.0112-.3196.134-.3908Zm-6.4906-4.6609c.1116-.1172.2958-.1214.4131-.0098.1158.1117.1215.296.0098.4131l-.007.0084-.0293.0321-.1103.1368c-.0935.1214-.2191.3015-.3447.529-.2512.4564-.4997,1.1026-.4997,1.8633,0,.4355.0809.9086.2903,1.4167.3406.8277,1.0999,1.8912,1.9177,2.9813.8179,1.0942,1.6931,2.222,2.2751,3.2451.3853.6839.6518,1.319.6546,1.9136,0,.0963-.007.1912-.0237.2847-.0195.1103-.0293.2513-.0293.4146-.0014.7481.2108,1.9401.4271,3.2032.2163,1.266.4354,2.61.4354,3.7267,0,.5499-.0516,1.0468-.1982,1.4641-.1437.416-.4047.7719-.8095.9393-.1494.0629-.321-.0083-.3824-.1577-.0628-.1479.0084-.3196.1563-.381.215-.0908.3685-.2722.4843-.5933.1131-.3196.1661-.7606.1661-1.2715,0-1.0412-.2122-2.3672-.4271-3.6276-.215-1.2645-.4341-2.4579-.4355-3.3023,0-.187.0098-.3574.0377-.5137l.0154-.1856c.0028-.4075-.2122-.984-.5792-1.626-.3657-.6434-.8723-1.3566-1.4111-2.0839-1.0817-1.4614-2.2946-2.9632-2.8138-4.2068-.2387-.5778-.3336-1.1334-.3336-1.64.0056-1.7809,1.132-2.9478,1.1516-2.973Z"/><path class="cls-2" d="m43.8897,86.0907c.4064.1967.7161.3887.9518.5945.0348-.0811.0936-.1492.1865-.1714l.0502-.014.1522-.0447c.1298-.0419.3112-.1047.5136-.1898.4062-.1689.8947-.4355,1.2171-.7747.2163-.2275.3573-.4774.3894-.7593.0865-.7202.1242-1.1766.2694-1.5842.1465-.4117.4145-.7216.8514-1.0677.1256-.1019.3085-.0809.4103.0447.1005.1256.0796.3099-.046.4103-.4062.328-.5597.5234-.6672.8109-.0904.2454-.1384.6041-.2009,1.14.0591.0015.124.0025.1957.0025.3852,0,.9352-.0251,1.4376-.127.5039-.0977.9435-.2903,1.1222-.5318.3043-.3866.7649-.7676,1.1431-1.2073.381-.4396.6602-.91.6588-1.432,0-.3451-.1271-.7432-.4598-1.2126-3.5585.7399-6.0684,1.3579-7.6243,1.85-.7956.2513-1.8535.61-2.8724.9073-1.0245.2972-1.9987.5359-2.6966.5388-.1041,0-.2377.0033-.3834.0071.3808.2057.8456.4557,1.3565.728,1.3148.7007,2.9144,1.5381,4.0449,2.0825Z"/><path class="cls-1" d="m92.6682,74.2381c.9321-.1686,1.8558-.2844,2.7294-.3373,1.3519-5.4645,1.7947-9.0427,1.7947-11.3384,0-1.9568-.3154-2.9925-.6169-3.5173-.0747-.1295-.147-.2279-.2138-.3044.0338.4408.0728.8804.0728,1.3289-.0026,4.7912-1.8349,9.98-3.7753,14.1703.0029-.0005.006-.0012.0089-.0018,0,0,0,0,0,0Z"/><path class="cls-2" d="m42.8881,71.2374c-.0024.0009-.0052.002-.0076.0029.0736-.0273.1441-.053.2153-.079h0c-.0687.0251-.1368.0499-.2077.0761Z"/><path class="cls-1" d="m93.6257,80.7629l-.014.0237c-.088.1619-.1605.3279-.1968.4982-.1285.596-.0936,1.0287.0893,1.3022.3867-.5374.7076-1.0398.7593-1.2031.113-.582.7676-.8207,1.3929-.9728.0195-.0042,1.0524-.2457,2.1062-.2457.7983,0,1.6093.1396,1.9959.6239.5625.7048.769,1.4558.6379,2.2137,2.624-.2401,5.6877-.5974,7.1364-.7677l.476-.0558c1.721-.1995,3.8858-.6141,3.9067-.6183.0475-.0084.095-.0126.1424-.0126.212,0,.4115.0918.5549.2437.0491-.2481.081-.498.0815-.751.0014-.7635-.1996-1.5395-.4089-2.2346-.2066-.6992-.4285-1.2994-.4341-1.8116.0042-.1591-.0991-.6155-.2792-1.192-.0671-.2186-.1522-.4747-.2368-.73-1.3469.3752-7.6545,2.1113-10.0554,2.421-3.174.4103-6.715,1.587-7.6542,3.2689Z"/><path class="cls-2" d="m84.3279,82.6119c.8119-1.7269,2.4185-2.715,4.8602-2.9988.5593-.9524,1.2128-2.1217,1.9004-3.4702-2.2542.5737-4.3655,1.4163-5.5443,2.3354-1.9903,1.5549-7.2049,3.4335-9.8777,4.3366-.0003-.0001-.0007-.0001-.001-.0002-.0007.0002-.0012.0004-.0019.0007.7578.1571,1.4056.4756,2.0573,1.3372.582.7606,1.5912,1.4125,2.6087,1.8731,1.0146.462,2.0447.7397,2.6268.7969.4061.0405.8905.0544,1.4376.0544.1011,0,.2152-.0024.3206-.0032-.465-.7477-1.2501-2.4266-.3868-4.2619Z"/><path class="cls-2" d="m73.3881,82.363c.004.001.0085.0025.0124.0035.1207.0308.2419.062.3545.0875.001.0002.0018.0003.0028.0005-.1174-.0266-.2435-.0591-.3697-.0915Z"/><path class="cls-1" d="m90.3882,84.8688c-.3224-.1243-.6546-.1703-.9505-.1703-.3992,0-.7314.0823-.8849.1633-.2024.6253-.7188,1.4558-1.0566,1.9652h-.0009s-.0004.0006-.0007.001c.2854-.0035.5722-.0068.8716-.0068.5493,0,1.8113-.038,3.4286-.0952-.1787-.9417-.6518-1.5655-1.4067-1.8571Z"/><path class="cls-1" d="m41.0373,71.3218c.1156-.0457.2223-.0862.3356-.1305.0259-.0102.0534-.0212.0792-.0312-.1395.0544-.2722.1049-.4154.1613.0377-.2429.2261-.4453.4815-.4885.0014,0,.416-.0698,1.0733-.1828.1187-.021.2443-.0419.3783-.0657-.0286.0104-.0623.0236-.0913.0341.0106-.0038.019-.0066.0295-.0104.0197-.0072.0428-.0162.0624-.0233.0021-.0004.0049-.0009.0071-.0012.2743-.0995.5439-.1965.7766-.2742,1.9099-.6342,6.0565-2.5073,8.6889-3.8231-.0671-.0013-.1354-.0176-.1899-.0657-.0057-.0045-.63-.5619-1.4043-1.4198-.4305.0842-1.7032.3085-3.186.3085-.9086,0-1.8912-.0851-2.8013-.3475-1.0566-.3057-1.9345-.4271-2.6714-.4271-1.051.0013-1.8131.2443-2.4202.5722-.5639.3043-1.2715.6183-1.8577.9938-.5905.3741-1.0231.8012-1.1152,1.259-.2582,1.2031-1.0161,3.8118-1.185,4.4036l-.0167.1535c-.0014.2024.0642.5122.1508.8054.076.2589.1639.4962.2332.6731,1.5454-.6449,3.4009-1.417,5.0582-2.0715.0001-.0006-.0001-.0013,0-.0019Z"/><path class="cls-1" d="m107.7088,83.7428c-2.1718.254-7.9446.9296-10.5505,1.0091-.3224.0098-.642.0168-.9547.0168-1.6023,0-3.0302-.1843-3.8271-1.1417-.5178-.6211-.6657-1.4795-.462-2.5444-.4103-.0293-.8011-.0433-1.1738-.0433-.6641,0-1.2668.0461-1.8068.1353,0,.0001-.0001.0002-.0002.0003-.0004,0-.0006.0002-.001.0002-.5091.8226-.8286,1.2929-.8307,1.2961-.0908.134-.2722.1675-.4062.0768-.1326-.0908-.1675-.2722-.0768-.4062,0,0,.127-.1856.3517-.5345.0483-.0753.1031-.1616.1601-.2515-1.1888.3461-1.9955.9769-2.4295,1.9008-.621,1.3232.1285,2.5724.3839,2.9409.4062-.5904.9407-1.4628,1.0385-1.8564.2038-.8165,1.3148-1.1613,2.3267-1.1613.067,0,.134.0014.201.0042,1.9916.1005,3.3647,1.4025,3.6735,3.486,1.3401-.0501,2.819-.1078,4.294-.1658,4.0505-.1577,8.0577-.3154,9.0863-.3154.9756-.0014,1.8019-.1801,2.6268-.6281.8249-.4494,1.6525-1.1808,2.5877-2.303.0478-.0577.0778-.1174.1204-.1757-.5414.1026-2.3333.4294-3.8553.6063l-.476.0544Z"/><path class="cls-1" d="m97.1122,83.2348c.4578-.014,1.0217-.0475,1.647-.0935.2485-.4983.201-.9184-.187-1.4041-.1061-.0573-.3447-.0823-.6462-.0823-.7328,0-1.8326.1479-2.2751.335-.1466.3447-.4215.7802-.7076,1.192.4327.053.9017.0684,1.3315.0684.3085,0,.596-.0084.8375-.0153Z"/><polygon class="cls-2" points="111.492 73.7154 111.4918 73.7155 111.4919 73.7156 111.492 73.7154"/><path class="cls-1" d="m40.4189,75.6169l-.0641-.0489h-.0098c-.0391,0-.208.0433-.469.1256h-.0014l-.014.0042s-.1103.0293-.3057.0865c-.1968.0558-.4745.1396-.7983.2429-.6448.2079-1.4767.5025-2.1899.8347-.4745.2191-.8989.4606-1.1641.6741-.1521.1215-.247.2345-.2791.2932l-.0195.0432c-.0363.2554-.0656.5318-.0656.7997-.0014.3489.0516.6728.1717.9142.1242.2401.2847.4174.6323.5583.2331.0907.5583.1549.9979.1549.2275,0,.4844-.0167.7719-.0544,2.4453-.3168,3.6973-.5681,4.1928-.6797.0447-.1396.0922-.3531.0922-.6406-.0014-.441-.1103-1.0622-.5485-1.8675-.469-.8696-.7816-1.3176-.9296-1.4404Z"/><path class="cls-1" d="m73.5939,81.8965c.0865-.0266,8.5629-2.6994,11.0166-4.6143,1.5816-1.2343,4.4479-2.3054,7.3418-2.9058,1.9878-4.2111,3.9-9.5207,3.8974-14.3068,0-.6253-.0322-1.2408-.1005-1.8438l-.0405-.3573.3573.0334c.0698,0,.5374.0908.9407.7286.4062.6351.7691,1.7809.7691,3.9318,0,2.3445-.4427,5.9094-1.7687,11.3102l.0038-.0002s0-.0002,0-.0003c.1549-.0042.3085-.007.4592-.007.5751,0,1.118.0335,1.6121.1019,3.6624.5052,7.6068.9924,7.6082.9938l.0628.0209c2.1508-.5388,4.2919-1.1264,5.0903-1.3469.004.0106.0076.0208.0113.0312-.5532-1.5794-1.2136-3.4135-1.6598-4.931-.2973-1.0217-.5025-1.8871-.5052-2.4901.007-.9561-.6253-2.2053-1.3372-3.4531-.7076-1.2562-1.4823-2.5081-1.6945-3.6414-.1459-.8079-.527-1.5906-.9972-2.2142-.0008-.0007-.0012-.0018-.002-.0026-.0645-.0854-.125-.1779-.1927-.2565-.5611-.6602-1.2241-1.0482-1.7001-1.0398l-.1772.0167c-.187.0377-.2861.0977-.335.1508-.0474.0544-.0726.1116-.0753.2317-.0042.2136.1284.5876.3894,1.0328.2596.4453.6351.9687,1.0789,1.5325,1.4502,1.855,1.6986,4.1705,1.7042,4.1956.0181.1605-.0977.3043-.2582.3224-.1605.0181-.3043-.0977-.3224-.2582l-.0126-.0907c-.0084-.0629-.0237-.1549-.0461-.2708-.0433-.233-.1158-.5625-.2317-.9463-.2289-.7676-.6295-1.7475-1.2925-2.5905-.4536-.5764-.8416-1.1152-1.1235-1.6009-.1403-.2443-.2565-.4735-.3381-.6928-.3967.013-.7938.0236-1.1936.0236-6.9089-.0014-14.0901-1.8647-15.3574-2.1802-.3099-.0782-1.2339-.2387-2.4356-.4299-1.2045-.1926-2.7007-.4188-4.197-.6393-2.9911-.4425-5.9864-.8654-6.6535-.9478-.7133-.0907-2.5361-.5122-4.7581-1.0719-2.2165-.5597-4.8112-1.2548-7.0081-1.8885-1.2548-.3629-2.5444-.4996-3.7587-.4996-2.1913,0-4.1412.4466-5.1852.7886-.3448.1131-.596.2178-.6979.275-.1313.0726-.4202.194-.8864.3866-.462.1885-1.0817.4369-1.8173.7286-1.4683.5834-3.3917,1.3371-5.4044,2.1271-4.0253,1.58-8.4121,3.3107-10.2126,4.1049-1.788.7914-2.8431,1.5688-3.5368,2.342-.6923.7733-1.0329,1.5507-1.3693,2.3909-.3098.7662-.4662,2.2123-.5374,4.0449-.074,1.8354-.074,4.0686-.1158,6.4749-.0042.2512-.007.4941-.007.73,0,3.9736.5946,5.7197.656,5.8901l.0056.0139c.011.0284-.0037.0556-.0017.0845.4994.1183,1.1272.2393,1.778.3485,1.1277.1898,2.3337.3559,3.1167.4564.18.0236.3268.0423.4558.0585-.1834-.9155-.3235-1.8071-.3235-2.6332,0-.7816.1228-1.5116.4634-2.1425.3406-.6309.9031-1.1445,1.7154-1.4781.2971-.123.6275-.2606.9789-.4071-.0458-.1174-.0992-.2592-.1549-.424-.1312-.3964-.2693-.8709-.2722-1.2799,0-.1061.0098-.2108.0391-.314.1675-.589.9268-3.2075,1.1752-4.3659.1605-.7216.7397-1.2227,1.372-1.6288.6365-.4061,1.3622-.7258,1.894-1.0147.6826-.3713,1.5562-.6434,2.698-.6434.8011,0,1.7349.1326,2.8347.4508.8333.2415,1.767.3253,2.638.3253,1.1344,0,2.1612-.1403,2.738-.2377-.0323-.0382-.0637-.0732-.0962-.1123-1.0035-1.2115-2.0866-2.7915-2.3616-4.3632-.0265-.1591.0796-.3099.2387-.3378s.3098.0796.3378.2386c.2038,1.206,1.0119,2.5375,1.8675,3.6332.8542,1.0984,1.7475,1.9666,2.0992,2.2946.1005.0948.155.1423.155.1423.113.1011.1205.2673.0336.3868.3648-.1841.6971-.3559.9836-.5094.7928-.4243,1.6917-.7397,2.4998-1.0398.8082-.2973,1.527-.5891,1.9247-.9086.268-.2178.3769-.4048.3783-.6239,0-.1437-.0503-.3266-.1926-.5597-.0837-.1382-.0405-.3182.0977-.402s.3169-.0405.402.0977c.1801.2959.2764.5834.2764.864.0013.4494-.2554.8137-.5974,1.0803-.3462.2736-.7942.4899-1.298.6965-.0914.0374-.1922.0738-.287.1107.0007.0012.0023.0016.003.0028,0,0-.0002,0-.0002.0001.0139.0208.0263.0443.0359.0679.1312.2917.1996.5931.1996.8877.0014.3559-.0991.6937-.2625.9854-.1619.2945-.3839.5485-.6365.7761-.508.4536-1.1528.8096-1.8423,1.118-1.3734.6099-2.9436,1.0147-3.8634,1.2715-1.072.2973-3.2466.716-5.181,1.0691-1.9303.3503-3.6024.6309-3.6038.6309-.0321.0056-.0643.0084-.0963.0084-.1346,0-.2606-.0471-.3622-.1272-1.7429.6883-3.7248,1.5146-5.317,2.1786-.0005.0002-.0006.0009-.0011.0011-.0005.0002-.0011-.0002-.0016,0-.4512.1882-.8797.3668-1.2495.5198-.709.296-1.1459.7063-1.425,1.2185-.2778.5123-.3936,1.1417-.3936,1.8633,0,.8723.1703,1.8689.3908,2.9115.2079.9534.8333,1.4628,1.6693,1.7796.8347.3085,1.8549.3741,2.6924.3727.5095,0,.9477-.0223,1.2548-.0223.5681.0014,1.5325-.2219,2.5333-.5164,1.0035-.2917,2.0545-.649,2.8599-.9045,1.6205-.5108,4.197-1.1445,7.8706-1.9037,1.8633-.3853,3.7783-.4802,5.5132-.4802,1.7335,0,3.2869.0949,4.4105.0949,1.2241.0042,3.1488.5834,5.1531,1.2645.9686.3301,1.9496.6856,2.8618,1.0148.0266.0023.0667.0054.1339.0096.113.007.2792.0126.4899.0126,1.5423.0014,5.4155-.3587,8.1707-3.6318,3.1279-3.707,4.4859-8.0828,4.7706-9.1044.0405-.1451.0587-.2205.0587-.2205.0391-.1564.1968-.2527.3531-.2136.1563.0391.2526.1968.215.3531-.0084.0224-1.2757,5.1992-4.9507,9.5623-2.4607,2.9128-5.7131,3.6385-7.655,3.7974.3537.123.688.2366.9857.3314.1788.0569.3291.0927.4922.1378.0874-.1821.2477-.3318.4556-.3965Zm-30.8818-1.5131l-.12.1842-.2122.06c-.0391.0112-1.1836.3308-4.6171.7761-.3322.0433-.6379.0642-.9226.0642-.5513,0-1.0217-.0781-1.4222-.2344-.3992-.155-.7272-.3936-.9645-.6797-.4774-.5792-.5834-1.2785-.5834-1.8815,0-.3517.0363-.6811.0768-.9658.0516-.3405.2303-.5988.4313-.8137.2066-.2164.4523-.4006.7272-.5736.5485-.3434,1.2144-.6421,1.8717-.9003,1.2325-.4815,2.423-.8067,2.5696-.8458.2443-.067.4662-.1661.8054-.1731h.0125c.1829,0,.3922.0516.5695.1535.1814.1033.3308.2415.4731.409.2847.335.5667.8039.9672,1.5353.5234.9575.6923,1.7851.6909,2.4272,0,.8793-.3099,1.3915-.3531,1.4586Z"/><polygon class="cls-2" points="111.7302 73.6147 111.7257 73.6153 111.7182 73.6185 111.7255 73.6155 111.7302 73.6147"/><path class="cls-2" d="m111.272,74.8779c-.0046-.0137-.0076-.024-.0123-.0378-.0034-.0102-.007-.0208-.0105-.031-.0077-.0229-.0173-.0499-.0252-.0731.016.0474.0323.0954.048.1419Z"/><path class="cls-3" d="m41.8173,71.0182c-.1193.046-.2426.0941-.3652.1418-.0258.0101-.0533.0211-.0792.0312.1595-.0624.3184-.1244.4724-.1837-.0096.0037-.0182.0069-.028.0106Z"/><path class="cls-3" d="m42.4033,70.7963c.1706-.064.3451-.1302.5047-.1882-.0105.0038-.0189.0066-.0295.0104-.1294.0473-.2711.1011-.4078.1523-.0219.0082-.0453.0172-.0674.0255Z"/><path class="cls-3" d="m111.7606,74.762c-.0005,0-.0011,0-.0016,0,.0248.0033.048.0131.0735.0131.0015,0,.0032-.0002.0049-.0003h-.0048c-.025,0-.0476-.0096-.072-.0127Z"/><path class="cls-3" d="m111.6338,74.7396c.0134.0049.0286.0038.0424.0077-.0003-.0001-.0005-.0002-.0009-.0004-.0134-.0038-.0284-.0026-.0415-.0073Z"/><path class="cls-3" d="m73.1337,82.3006c.0958.0267.176.0427.2668.0659-.0039-.001-.0084-.0024-.0124-.0035-.087-.0223-.1633-.0375-.2549-.0631.0012-.0026.0038-.0043.0051-.0068-.1631-.0451-.3134-.0809-.4922-.1378-.2977-.0947-.632-.2084-.9857-.3314-.3723.0305-.7017.0423-.9623.0423-.4467,0-.7119-.028-.7202-.0294-.1605-.0167-.2764-.1619-.2596-.3224.0181-.1591.1619-.2764.3224-.2582,0,0,.0154.0014.0336.003-.9121-.3292-1.8931-.6847-2.8618-1.0148-2.0043-.6811-3.9291-1.2603-5.1531-1.2645-1.1236,0-2.6771-.0949-4.4105-.0949-1.7349,0-3.6499.0949-5.5132.4802-3.6736.7592-6.2501,1.3929-7.8706,1.9037-.8054.2554-1.8563.6127-2.8599.9045-1.0008.2945-1.9653.5178-2.5333.5164-.3071,0-.7453.0223-1.2548.0223-.8375.0014-1.8577-.0642-2.6924-.3727-.8361-.3168-1.4614-.8262-1.6693-1.7796-.2205-1.0426-.3908-2.0392-.3908-2.9115,0-.7216.1158-1.3511.3936-1.8633.2791-.5122.716-.9225,1.425-1.2185.3698-.153.7983-.3316,1.2495-.5198-.1476.063-.3182-.0047-.3822-.1521-.0016-.0024-.0485-.1118-.1117-.2739-.3514.1465-.6818.2841-.9789.4071-.8123.3336-1.3748.8472-1.7154,1.4781-.3406.6309-.4634,1.3608-.4634,2.1425,0,.8261.1401,1.7177.3235,2.6332.2453.0308.3989.049.3998.049.1605.0195.275.1647.2554.3239-.0181.1605-.1633.275-.3238.2568-.0006-.0002-.0665-.0081-.1757-.0215.3011,1.043,1.0777,1.6774,1.962,1.9969.832.3054,1.7534.3853,2.5535.4016-.035-.0191-.0561-.0306-.0563-.0307-.1409-.0781-.194-.2554-.1158-.3964.0768-.1423.254-.194.3964-.1172.0017.0009.389.2129.9883.5366.1458-.0038.2794-.0071.3834-.0071.6979-.0028,1.6721-.2415,2.6966-.5388,1.0189-.2973,2.0768-.656,2.8724-.9073,1.5559-.4921,4.0658-1.1101,7.6243-1.85-.0347-.049-.0602-.0948-.0999-.1455-.1005-.127-.0782-.3112.0488-.4103.1271-.1005.3099-.0782.4104.0488.1042.1326.1902.2631.2694.3927,1.6676-.3036,3.3804-.3945,4.9549-.3945,1.7125,0,3.2576.095,4.4105.095,1.0524-.0042,2.9855.5555,4.9647,1.2338,1.9861.6769,4.0379,1.4669,5.4448,1.915.2334.0743.4357.1248.6447.1804-.0057-.0149-.0114-.0298-.016-.0447-.0587-.1884-.0405-.381.0363-.5472Z"/><path class="cls-3" d="m102.2298,56.3625c.0056.1605-.1201.2959-.2806.3029-.074.0029-.1489.002-.2231.0044.0816.2193.1979.4485.3381.6928.2819.4857.67,1.0245,1.1235,1.6009.663.843,1.0635,1.8229,1.2925,2.5905.1158.3838.1884.7133.2317.9463.0223.1159.0377.2079.0461.2708l.0126.0907c.0181.1605.1619.2764.3224.2582.1605-.0182.2764-.1619.2582-.3224-.0056-.0251-.254-2.3406-1.7042-4.1956-.4438-.5638-.8193-1.0873-1.0789-1.5325-.261-.4452-.3936-.8193-.3894-1.0328.0027-.1201.0279-.1772.0753-.2317.0489-.053.148-.113.335-.1508l.1772-.0167c.476-.0084,1.139.3796,1.7001,1.0398.0677.0786.1282.1711.1927.2565-.1057-.1043-.1722-.2487-.1736-.4095-.0024-.1804.0822-.3362.2094-.4447-.5844-.6031-1.249-1.0195-1.9285-1.027-.0991,0-.1954.0098-.2917.0293-.2638.0516-.4871.1535-.6476.3267-.1619.1716-.2331.4033-.2317.6281.0002.017.0051.0345.0059.0515.1078-.0032.2171-.002.3243-.0062.1619-.007.2972.1187.3043.2806Z"/><path class="cls-3" d="m92.0111,87.3022c-.0963-.1074-.1633-.2428-.1856-.3964-.0084-.0612-.0181-.121-.0292-.1794-.0004,0-.0008,0-.0012,0,0-.0002-.0001-.0004-.0002-.0006-1.6172.0573-2.8793.0952-3.4286.0952-.2994,0-.5862.0034-.8716.0068-.1279.193-.2308.3391-.2808.4087-.0516.0725-.113.1325-.1813.1813.43-.0074.8712-.0134,1.3338-.0134.6154,0,2.0638-.045,3.8922-.1108.1141-.0042.2335-.0088.3504-.0131-.1996.0071-.4069.015-.5979.0215Z"/><path class="cls-3" d="m111.3384,75.0723c-.0245-.0739-.0529-.1558-.0787-.2322.0046.0138.0076.0242.0123.0378.0214.0637.0452.1326.0657.1945-.0007.0002-.0018.0005-.0024.0007.0846.2553.1697.5115.2368.73.1801.5764.2833,1.0328.2792,1.192.0056.5122.2275,1.1124.4341,1.8116.2094.6951.4103,1.4711.4089,2.2346-.0005.2531-.0324.5029-.0815.751.003.0032.0075.0043.0104.0076,0,.0002-.0001.0004-.0002.0007.082.0906.1433.2019.174.3272-.0001.0004-.0001.0007-.0002.0011.0019.0076.0033.0156.0047.0236.0577-.2051.2156-.3576.42-.4058.0375-.2367.058-.4727.0577-.7053-.0014-.8654-.2219-1.6917-.4341-2.4021-.215-.7048-.4146-1.3134-.409-1.6442-.0028-.215-.0573-.4746-.1465-.8123-.0977-.3682-.243-.8285-.413-1.339-.0823.0723-.1824.1295-.2952.1616-.028.007-.1117.0307-.2429.067Z"/><path class="cls-3" d="m109.6501,68.2033c-.2331-.8361-.3782-1.5465-.3768-1.9583-.007-1.1948-.7021-2.4761-1.4125-3.7406-.716-1.259-1.4586-2.504-1.6274-3.4587-.1275-.6985-.4058-1.3616-.7601-1.9485-.2555.0031-.3974.0048-.3974.0048-.1611.0021-.3079-.0613-.4148-.1657.4702.6235.8513,1.4062.9972,2.2142.2122,1.1333.9868,2.3853,1.6945,3.6414.7119,1.2479,1.3441,2.497,1.3372,3.4531.0027.603.2079,1.4683.5052,2.4901.4462,1.5175,1.1066,3.3516,1.6598,4.931.004.0115.0081.0234.0125.0344.1279.3641.2455.707.3567,1.0356.0079.0231.0175.0501.0252.0731-.118-.3495-.2449-.7173-.3812-1.1074-.0084-.0223-.0167-.0447-.0237-.067.201-.0558.3168-.0893.3253-.0921.0698-.0181.1382-.0279.2065-.0279.015,0,.03.0012.0449.0013-.2794-.7979-.5848-1.6555-.8776-2.5087-.3391-.9896-.6588-1.9651-.8932-2.804Z"/><path class="cls-3" d="m52.443,66.4864c-2.6324,1.3158-6.779,3.1888-8.6889,3.8231-.2327.0777-.5023.1747-.7766.2742.6031-.1059,1.344-.2365,2.1284-.3798.3424-.0612.6932-.1266,1.0455-.1921.0007-.0003.0014-.0005.0021-.0009.0009-.0002.0018-.0003.0027-.0005,2.5766-1.072,5.9946-2.6799,7.7784-3.634.5677-.3048,1.2157-.5564,1.8566-.7949,0-.0002-.0001-.0004-.0002-.0007.199-.0742.3879-.1458.582-.218-.1942.0721-.3833.1437-.5814.217-.0419-.2554.0907-.5164.3377-.6267.0768-.0349.1577-.0516.2387-.0516.1968,0,.3859.1014.4939.275.0948-.0369.1956-.0733.287-.1107.5038-.2065.9518-.4229,1.298-.6965.342-.2665.5988-.6309.5974-1.0803,0-.2806-.0963-.5681-.2764-.864-.0851-.1382-.2639-.1814-.402-.0977s-.1814.2638-.0977.402c.1423.2331.1926.416.1926.5597-.0014.2191-.1103.4061-.3783.6239-.3978.3196-1.1166.6113-1.9247.9086-.8081.3-1.707.6155-2.4998,1.0398-.2864.1535-.6188.3253-.9836.5094-.0054.0075-.0023.0178-.0085.0249-.0593.067-.1406.0924-.2232.0909Z"/><path class="cls-3" d="m41.2508,71.8661h0s-.0004-.0002-.0005-.0004c0,0,.0002,0,.0002,0-.1086-.0865-.1868-.2119-.2118-.3597-.0097-.0621-.0108-.1229-.0014-.1823-1.6573.6545-3.5128,1.4266-5.0582,2.0715.0095.0244.0219.0591.0305.0806.0461.1173.0754.1857.0768.1857.064.1475-.004.3195-.151.3841,1.5922-.664,3.574-1.4904,5.317-2.1786-.0004-.0004-.0011-.0004-.0015-.0008h0Z"/><path class="cls-3" d="m73.755,82.4539c.0388.0088.0841.0219.1219.0301-.0369-.0081-.0814-.0209-.1191-.0295-.001-.0002-.0018-.0004-.0028-.0005Z"/><polygon class="cls-3" points="43.0958 71.1614 43.0959 71.1613 43.0979 71.1606 43.0958 71.1614"/><path class="cls-3" d="m41.9353,71.5982c.0034-.0013.0062-.0023.0095-.0035.3289-.1272.6395-.2446.9358-.3544.0024-.0009.0052-.002.0076-.0029-.3014.1115-.6177.231-.9528.3608Z"/><path class="cls-3" d="m111.2595,74.2918s.0001-.0007,0-.0011c.0004.0024-.0012.0045-.0007.007.0036.0189.0145.0339.0198.052-.0052-.0182-.0162-.0333-.0197-.0522-.0004-.002.0009-.0037.0005-.0056Z"/><path class="cls-3" d="m111.2923,73.9682c-.0047.0114.0001.0256-.0039.0373,0-.0001.0001-.0003.0002-.0005.0039-.0115-.0009-.0256.0037-.0368Z"/><path class="cls-3" d="m112.797,82.4714c-.0009.0038.0007.0079-.0002.0117.0002.0006,0,.0014.0002.002-.0684.2805-.2932.5081-.5946.5667-.0126.0028-.0614.0126-.1438.028.0009-.0012.0012-.0024.0021-.0036-.0005.0007-.0008.0016-.0013.0023-.0049.0009-.0141.0026-.0193.0036-.0427.0583-.0726.118-.1204.1757-.9352,1.1222-1.7628,1.8536-2.5877,2.303-.8249.4481-1.6512.6267-2.6268.6281-1.0286,0-5.0358.1577-9.0863.3154-1.475.058-2.9539.1157-4.294.1658,0,.0002.0001.0004.0001.0005h-.0002c.0013.0054.0026.0107.0026.0161.0307.212-.0292.4157-.1492.5735,1.384-.0513,2.9252-.1111,4.4645-.1711,4.0435-.1591,8.0674-.3169,9.0626-.3169,1.0468.0014,1.9918-.1995,2.9059-.6992.0886-.0483.1759-.1125.264-.1664-.0496-.0926-.0836-.1941-.0762-.3063.0209-.3224.2973-.5667.6197-.5458.0008,0,.2087.0131.5626.0352.4516-.4018.9089-.8839,1.3867-1.4579.2498-.2983.4217-.6115.5612-.9285-.0613-.0657-.1058-.144-.1318-.2319Z"/><path class="cls-3" d="m86.0931,87.3483l-.0266.0335c-.0251.0209-.0516.0391-.0781.0558-.2708.007-.5318.0126-.7844.0153-.0768-.0432-.1465-.1019-.2065-.1744-.0182-.0223-.1324-.1645-.2814-.4026h-.0001c-.0004-.0006-.0009-.0015-.0012-.0021-.1054.0009-.2195.0032-.3206.0032-.5471,0-1.0315-.014-1.4376-.0544-.582-.0572-1.6121-.335-2.6268-.7969-1.0175-.4606-2.0267-1.1125-2.6087-1.8731-.6517-.8615-1.2995-1.1801-2.0573-1.3372-.4798.162-.8778.2926-1.1603.3844.3916.0677.7382.1205,1.0262.1837.6937.1591,1.118.3461,1.728,1.125.6826.8835,1.7601,1.5604,2.8306,2.049,1.072.4857,2.1285.776,2.811.8458.4369.0447.9366.0586,1.4949.0586.2625,0,.5401-.0035.8273-.0084.1829-.0031.3749-.0071.5672-.0112.1319-.0027.2582-.0051.3943-.0081-.0093-.0067-.0176-.0134-.027-.0189l-.0628-.067Z"/><path class="cls-3" d="m50.8897,64.3965c.1577-.0349.314.0643.3489.222.0349.1577-.0643.3126-.222.3489-.0023.0002-.0708.0145-.1679.0334.7743.8579,1.3986,1.4153,1.4043,1.4198.0544.0482.1228.0645.1899.0657.0771-.0386.1573-.0782.2318-.1158.0869-.1196.0793-.2857-.0336-.3868,0,0-.0544-.0475-.155-.1423-.3517-.328-1.245-1.1962-2.0992-2.2946-.8556-1.0956-1.6637-2.4272-1.8675-3.6332-.028-.1591-.1786-.2665-.3378-.2386s-.2652.1786-.2387.3378c.275,1.5717,1.3581,3.1516,2.3616,4.3632.0325.0391.0638.0741.0962.1123.0889-.015.1688-.0292.2349-.0414.1661-.0307.254-.0503.254-.0503Z"/><path class="cls-3" d="m52.6662,66.3955c.0063-.0071.0031-.0174.0085-.0249-.0744.0375-.1547.0772-.2318.1158.0826.0015.1639-.0239.2232-.0909Z"/><path class="cls-3" d="m35.7459,72.7222c-.0865-.2932-.1522-.603-.1508-.8054l.0167-.1535c.1689-.5919.9268-3.2005,1.185-4.4036.0921-.4578.5248-.8849,1.1152-1.259.5862-.3754,1.2938-.6895,1.8577-.9938.6071-.3279,1.3692-.5709,2.4202-.5722.7369,0,1.6149.1214,2.6714.4271.91.2623,1.8926.3475,2.8013.3475,1.4828,0,2.7556-.2242,3.186-.3085-.1455-.1613-.2948-.3314-.448-.5126-.5768.0975-1.6036.2377-2.738.2377-.871,0-1.8047-.0837-2.638-.3253-1.0999-.3182-2.0336-.4508-2.8347-.4508-1.1418,0-2.0154.2722-2.698.6434-.5318.2889-1.2576.6086-1.894,1.0147-.6323.4062-1.2115.9072-1.372,1.6288-.2484,1.1584-1.0078,3.7769-1.1752,4.3659-.0293.1033-.0391.2079-.0391.314.0028.409.141.8835.2722,1.2799.0557.1647.1091.3065.1549.424.1707-.0712.3596-.15.5403-.2254-.0693-.1769-.1572-.4142-.2332-.6731Z"/><polygon class="cls-3" points="35.9354 74.0456 35.9326 74.0467 35.9343 74.0467 35.9354 74.0456"/><path class="cls-3" d="m36.0864,73.6615c-.0014,0-.0307-.0684-.0768-.1857-.0086-.0214-.021-.0562-.0305-.0806-.1807.0754-.3697.1542-.5403.2254.0632.1621.11.2715.1117.2739.064.1474.2346.2151.3822.1521.0009-.0004.0018-.0007.0027-.0011.147-.0646.215-.2366.151-.3841Z"/><path class="cls-3" d="m51.0167,64.9674c.1577-.0363.2568-.1913.222-.3489-.035-.1577-.1913-.2568-.3489-.222,0,0-.088.0196-.254.0503-.0662.0123-.1461.0264-.2349.0414.1532.1813.3025.3514.448.5126.0971-.019.1656-.0332.1679-.0334Z"/><path class="cls-3" d="m27.2558,79.3337l-.0056-.0139c-.0614-.1703-.656-1.9164-.656-5.8901,0-.2359.0028-.4788.007-.73.0419-2.4063.0419-4.6395.1158-6.4749.0712-1.8326.2275-3.2786.5374-4.0449.3364-.8403.6769-1.6176,1.3693-2.3909.6937-.7732,1.7488-1.5507,3.5368-2.342,1.8005-.7942,6.1873-2.5249,10.2126-4.1049,2.0127-.79,3.936-1.5438,5.4044-2.1271.7356-.2917,1.3553-.5402,1.8173-.7286.4662-.1926.7551-.314.8864-.3866.1019-.0572.3531-.1619.6979-.275,1.0439-.342,2.9938-.7886,5.1852-.7886,1.2143,0,2.5039.1368,3.7587.4996,2.1969.6337,4.7916,1.3288,7.0081,1.8885,2.222.5597,4.0449.9812,4.7581,1.0719.6671.0824,3.6624.5052,6.6535.9478,1.4963.2205,2.9925.4467,4.197.6393,1.2017.1912,2.1257.3517,2.4356.4299,1.2673.3154,8.4484,2.1788,15.3574,2.1802.3998,0,.7969-.0106,1.1936-.0236-.0749-.2011-.1162-.3934-.1249-.5817-.3552.0105-.7111.0204-1.0687.0204-6.8112.0014-13.9575-1.8466-15.215-2.162-.3643-.0907-1.2743-.2471-2.4858-.4396-3.6262-.5792-9.8497-1.4627-10.8715-1.5911-.6351-.0782-2.4802-.4997-4.6855-1.058-2.2108-.5569-4.8014-1.252-6.9885-1.8843-1.3204-.381-2.6645-.5206-3.9221-.5206-1.5144,0-2.9059.2038-3.9905.4453-.543.1214-1.0091.2512-1.3762.3713-.3685.1215-.6337.2289-.7998.3196-.0587.0349-.3699.1702-.8249.3559-3.2144,1.319-14.2589,5.5593-17.4482,6.9689-1.8382.811-2.9743,1.6345-3.735,2.4858-.7621.8486-1.1389,1.7154-1.4767,2.5626-.3643.9198-.5025,2.3825-.5793,4.2388-.074,1.8536-.074,4.0882-.1158,6.4889-.0056.254-.007.5011-.007.7397,0,3.3359.4122,5.1487.604,5.8146.1693.0561.3893.1146.6393.1738-.002-.0289.0128-.056.0017-.0845Z"/><path class="cls-3" d="m101.9492,56.6653c.1605-.007.2861-.1424.2806-.3029-.007-.1619-.1424-.2875-.3043-.2806-.1072.0042-.2166.003-.3243.0062.0087.1883.05.3806.1249.5817.0742-.0024.149-.0015.2231-.0044Z"/><path class="cls-3" d="m88.1646,81.3026c-.0055.0087-.0107.0168-.0161.0254-.0052.0082-.0122.0197-.0173.0277-.0002,0-.0003.0001-.0005.0002-.0569.0899-.1118.1762-.1601.2515-.2247.3489-.3517.5345-.3517.5345-.0907.134-.0558.3154.0768.4062.134.0907.3154.0572.4062-.0768.0021-.0032.3217-.4736.8307-1.2961-.2843.0474-.5521.1073-.8016.1812.0099-.0157.0234-.0377.0336-.0538Z"/><path class="cls-3" d="m88.8125,80.2499c.0319-.053.0588-.0962.0917-.1511.0921-.1536.1884-.3168.2875-.4857.23-.0264.4671-.0474.7109-.0614.5789-1.0009,1.2468-2.2153,1.933-3.5869-.2481.0558-.4962.1143-.7429.177.065-.1274.1309-.266.1962-.3963-.0654.1303-.1317.2689-.1967.3963-.0013.0003-.0026.0007-.0038.001-.6876,1.3484-1.3411,2.5178-1.9004,3.4702.0013-.0002.0026-.0004.0039-.0006-.0956.1644-.1884.3201-.2789.4702-.0032.0052-.007.0121-.0101.0173-.0315.0527-.0599.099-.0905.15Z"/><polygon class="cls-3" points="96.0241 58.3639 96.0235 58.3675 96.013 58.4826 96.0241 58.3639"/><polygon class="cls-3" points="96.0235 58.3675 96.0018 58.4826 96.013 58.4826 96.0235 58.3675"/><path class="cls-3" d="m88.541,80.6971c-.0128.0207-.025.0405-.0375.0609-.0153.0249-.0298.0486-.0449.0729-.0106.0171-.0219.0357-.0323.0526.0375-.0605.075-.1218.1146-.1863Z"/><path class="cls-3" d="m91.865,75.907c.1326-.2658.2658-.5369.399-.8136.0006-.0012.0012-.0026.0018-.0038-.0007.0013-.0013.0028-.002.0042-.1329.2762-.2658.5467-.3988.8133Z"/><path class="cls-3" d="m91.892,74.5163c.0225-.0475.045-.0939.0676-.1415.2328-.0482.4667-.0935.6996-.1349,1.9404-4.1903,3.7726-9.3792,3.7753-14.1703,0-.4485-.039-.8881-.0728-1.3289-.204-.2336-.3557-.2538-.3599-.2581l.0217-.1151.016-.1752.2903-.0334c.0217.1912.0171.3889.0319.5818.0668.0765.1391.1749.2138.3044.3015.5248.6169,1.5605.6169,3.5173,0,2.2957-.4429,5.8739-1.7947,11.3384.0016-.0001.0032-.0003.0048-.0004-.1242.5024-.2568,1.0203-.3964,1.5562h-.0002c-.0028.0106-.0048.0198-.0076.0304-.0419.1564.0516.3155.208.3574.1563.0405.3154-.053.3572-.2079.0206-.0788.0364-.1476.0568-.2257-.2018.0111-.4064.0264-.6138.0459.1395-.5359.2722-1.0538.3964-1.5562.2037-.0125.4059-.0222.6042-.0277,1.326-5.4008,1.7687-8.9657,1.7687-11.3102,0-2.1509-.3629-3.2968-.7691-3.9318-.4034-.6379-.871-.7286-.9407-.7286l-.3573-.0334.0405.3573c.0684.603.1005,1.2185.1005,1.8438.0026,4.7861-1.9096,10.0958-3.8974,14.3068.0023-.0005.0046-.001.0068-.0015-.0225.0475-.0448.0942-.0671.1415Z"/><path class="cls-3" d="m96.0394,58.1922l-.016.1752.0007-.0035-.0112.1187h-.0112c.0042.0042.1558.0245.3599.2581-.0148-.193-.0102-.3906-.0319-.5818l-.2903.0334Z"/><path class="cls-3" d="m79.3153,78.0264c3.675-4.3631,4.9424-9.5399,4.9507-9.5623.0377-.1563-.0587-.314-.215-.3531-.1563-.0391-.314.0572-.3531.2136,0,0-.0182.0754-.0587.2205-.2847,1.0217-1.6428,5.3974-4.7706,9.1044-2.7552,3.2731-6.6284,3.6332-8.1707,3.6318-.2108,0-.3769-.0056-.4899-.0126-.0672-.0042-.1073-.0073-.1339-.0096.5634.2032,1.0963.3943,1.5862.5647,1.9419-.1589,5.1943-.8846,7.655-3.7974Z"/><path class="cls-3" d="m70.0406,81.2561c-.1605-.0181-.3043.0991-.3224.2582-.0168.1605.0991.3057.2596.3224.0084.0014.2736.0294.7202.0294.2607,0,.59-.0118.9623-.0423-.4899-.1703-1.0228-.3615-1.5862-.5647-.0182-.0016-.0336-.003-.0336-.003Z"/><path class="cls-3" d="m185.3017,80.0816c-.0014-.0013-.5276-.2205-1.3665-.5834-1.2576-.5444-3.2102-1.4111-5.1028-2.3351-1.8884-.9198-3.7294-1.9108-4.7023-2.645-.5402-.4075-.8625-.7621-1.0426-1.0607-.1801-.3015-.2359-.5458-.2386-.8263-.0029-.3894.1409-.8668.3364-1.4543.1912-.5862.4201-1.28.501-2.109.0712-.7272.1242-1.3385.1242-1.9024.0014-.7258-.0935-1.3818-.3685-2.0252-.2736-.6421-.7076-1.2506-1.3385-1.9443-.7537-.8304-1.0775-1.7293-1.312-2.6086-.1158-.4382-.208-.8682-.3252-1.2798-.1187-.409-.2596-.8054-.5137-1.1613-.2736-.3853-.4103-.7677-.4145-1.3036-.0016-.382.0934-.8601.2831-1.4265l-.3762.0355c-.321.0307-.6058-.2051-.6365-.5262-.0067-.0699.0043-.1367.021-.2009-.1411.3745-.2476.7277-.3214,1.062.1792-.0699.293-.1127.2954-.1135.3015-.1131.6392.039.7523.3419.1131.3015-.0405.6379-.3433.7523,0,0-.0712.0265-.2024.0767-.1312.0517-.3196.1256-.5485.2178-.0226.0092-.0499.0207-.0732.0303.0436.6582.2598,1.2475.6166,1.7369.1256.1717.2372.4438.3378.7997.3126,1.0635.4969,2.8124,1.8968,4.3533.5834.642.9268,1.1445,1.1278,1.6163.1982.4718.2736.9352.275,1.5674,0,.4871-.0489,1.0692-.1187,1.788-.067.6797-.2568,1.2743-.4495,1.8605-.1884.5848-.3908,1.1627-.3936,1.8173-.0028.4648.1187.9603.4061,1.4306.2876.4731.7216.9226,1.3413,1.3888.744.5597,1.8145,1.1794,3.0176,1.8159,3.6066,1.8983,8.3996,3.89,8.408,3.8942.2973.1228.6393-.0182.7635-.3154.1243-.2987-.0167-.6407-.3154-.7635Z"/><path class="cls-3" d="m170.9209,52.08c.1409.2903.0209.6406-.2694.7816,0,0-.134.0656-.3615.1815-.2289.1158-.5485.2805-.9128.476-.0109.0058-.0233.0128-.0342.0187-.1949.3961-.3524.7637-.488,1.1157.0795-.1952.2557-.3442.4798-.3646l.9921-.0938c.0349-.0724.0586-.1348.0961-.2097.4089-.8193.6141-1.5339.6155-2.1843.0056-.6755-.2485-1.2785-.6672-1.7056-.4173-.4299-.9617-.7021-1.559-.8918-.416-.1312-.878-.194-1.3776-.1954-1.8005.0042-4.0979.8304-6.119,2.7775-.951.9116-1.5818,1.9169-1.9576,2.9858.0336-.0029.0726-.0057.1042-.0086.321-.0294.6058.2079.6337.5303.0293.321-.2079.6044-.529.6337-.1524.0137-.3312.0273-.5218.0408-.0762.4503-.1169.9087-.115,1.3758,0,1.1278.2038,2.3016.5416,3.5327.2108.7649.2917,1.5325.2917,2.257,0,.2515-.0126.4954-.03.7343.024-.0312.0662-.072.0851-.1003.1801-.2679.543-.3391.8109-.1591.1998.1342.2886.3699.2467.5923.0321-.3422.0551-.6956.0555-1.0673,0-.811-.0907-1.6833-.3336-2.5668-.3196-1.1626-.4997-2.236-.4997-3.2228.0098-1.7907.5597-3.287,2.0294-4.7176,1.8103-1.7531,3.8634-2.4523,5.3066-2.4482.3978-.0014.7467.0517,1.0244.1396.4844.1522.8486.3574,1.0706.589.2192.2359.3336.483.3392.8947.0002.0461-.0083.1016-.012.152.1717-.0866.2806-.1401.2823-.141.2903-.1409.6392-.0209.7816.268Z"/><path class="cls-3" d="m159.4363,65.7385c-.0209.0854-.0409.1797-.062.2587-.0977.3643-.194.6573-.2665.8569-.0363.1005-.0656.1759-.0851.2261l-.0223.0558-.0056.014c-.1298.2945.0056.6393.3015.7676.296.1299.6407-.0056.7691-.3015.0131-.0356.6254-1.4474.8106-3.4101-.0147.0739-.0436.1464-.0883.2129-.302.4419-.7675.8707-1.3512,1.3195Z"/><path class="cls-3" d="m160.8765,64.2004c-.0002.002-.0005.0037-.0007.0057.0004-.002.0003-.0038.0007-.0057Z"/><path class="cls-3" d="m158.9758,64.6158c-1.4236,1.1697-4.1495,2.6799-6.7819,3.9514-1.3176.6364-2.6157,1.2184-3.7267,1.6804-1.1096.462-2.0419.8054-2.5863.9575-.4718.1354-1.372.2401-2.4942.2959-1.1264.06-2.4914.0809-3.9611.0809-3.1404,0-6.7666-.0935-9.6712-.0935-.8974,0-1.7251.0084-2.4523.0321-2.6687.0865-6.5447.6113-9.7758,1.1124-3.0975.4823-5.5825.9427-5.7812.979l.0005.0002s.0002,0,.0005-.0001c.0002.0001.0003.0003.0005.0004h0,0c.1699.095.3024.2538.3596.4561.0698.2512.0056.5066-.1494.6923-.0038.001-.0032.0009-.0058.0015.0026-.0004.0021-.0005.0064-.0011h0c.0833-.0152.6931-.1284,1.6609-.2983,3.1167-.5458,9.8749-1.6526,13.7216-1.774.7076-.0237,1.5256-.032,2.4146-.032,2.8823,0,6.5098.0934,9.6712.0934,1.4809,0,2.8613-.0209,4.0225-.0809,1.1641-.0642,2.095-.1577,2.7482-.3392.7258-.2051,1.8605-.6364,3.2158-1.2129,2.028-.864,4.5222-2.049,6.6758-3.2493,1.0775-.6016,2.0685-1.2046,2.8795-1.7796.1658-.1187.3187-.2344.4688-.3498.1287-.5267.2457-1.1617.2974-1.8711-.1587.2062-.4064.4623-.7579.7484Z"/><path class="cls-3" d="m111.7266,73.6163s.0073-.0015.0134-.0029c-.0044.0005-.0083.001-.0097.0013-.0005,0-.0046.0009-.0047.0009-.0027.0005-.0046.0024-.0073.003-.0793.0165-.152.0488-.2159.0925.0651-.0455.1401-.0801.2243-.0947Z"/><path class="cls-3" d="m111.6753,74.7469s.0005.0002.0009.0004c.0269.0077.0548.0109.0828.0146.0005,0,.0011,0,.0016,0-.0289-.0037-.0577-.0072-.0853-.0151Z"/><path class="cls-3" d="m111.2886,74.005s-.0001.0004-.0002.0005c-.0303.0896-.0463.1855-.0289.2852,0,.0004-.0001.0007,0,.0011-.0178-.1003-.0014-.1967.0291-.2868Z"/><path class="cls-3" d="m160.6298,63.6081c-.2679-.1801-.6309-.1089-.8109.1591-.0189.0283-.0611.0691-.0851.1003-.0517.7094-.1687,1.3444-.2974,1.8711.5837-.4488,1.0492-.8776,1.3512-1.3195.0447-.0665.0736-.139.0883-.2129.0002-.002.0005-.0038.0007-.0057.0419-.2224-.0469-.4581-.2467-.5923Z"/><path class="cls-3" d="m113.3117,82.8897c.0013,0,5.957.4216,8.916.5905.4703.0265.9952.0377,1.5507.0377,3.0525,0,7.0388-.3336,7.0471-.3336.3224-.0266.5611-.3085.5346-.6309-.028-.321-.3099-.5597-.6309-.5331,0,0-.2456.0195-.6644.0516-1.2548.0921-4.056.2778-6.2864.2778-.5388,0-1.0454-.0112-1.4837-.0363-1.4711-.0837-3.6973-.2303-5.5536-.3573-1.8577-.127-3.3428-.2317-3.347-.2317-.0603-.0042-.1166.0092-.1727.0224-.0508.3207-.1536.6406-.2926.9567.0972.1041.23.1757.3829.1863Z"/><path class="cls-3" d="m112.8014,82.1525c.0007.0037.0018.0074.0022.0109.0214.1053.0155.2089-.0067.308.0261.0879.0705.1663.1318.2319.139-.316.2418-.636.2926-.9567-.2044.0482-.3622.2007-.42.4058Z"/><path class="cls-3" d="m110.3445,86.22c.0042,0,9.9335.6323,12.2323.7174,1.0831.0391,3.5591.3336,6.0869.6812,2.5333.3461,5.1461.7467,6.5656.9979.677.1187,1.8606.4118,3.2661.783,2.1104.5583,4.7344,1.2925,7.0486,1.8969,1.1584.3015,2.2388.5709,3.1432.7704.91.1996,1.6274.3308,2.1369.3517,2.2472.0796,9.9001.5123,15.423,2.4956,2.8236,1.0119,6.1121,2.1927,8.6942,3.1195,1.2911.4634,2.4062.864,3.1976,1.1487.7914.2847,1.259.4536,1.2604.4536.3043.1088.6379-.0489.7481-.3517.1089-.3043-.0488-.6393-.3531-.7482,0,0-7.5035-2.6979-13.1536-4.7218-5.7756-2.0629-13.4689-2.4746-15.7747-2.5626-.4648-.014-1.5479-.2247-2.8668-.543-1.9904-.476-4.5837-1.1891-6.9467-1.8312-2.3685-.6434-4.4901-1.2115-5.6206-1.4125-1.4474-.2555-4.0616-.656-6.6089-1.0049-2.5515-.3489-5.0093-.6449-6.2027-.6896-1.1222-.0419-4.1817-.2205-6.9481-.3894-1.3846-.0851-2.698-.1661-3.6652-.2275-.4147-.0257-.7602-.0473-1.0258-.0639-.3695.3288-.7363.5909-1.106.8169.0921.1721.2599.2997.4695.3134Z"/><path class="cls-3" d="m109.7987,85.6003c-.0073.1122.0267.2137.0762.3063.3698-.226.7365-.4881,1.106-.8169-.3538-.0222-.5618-.0352-.5626-.0352-.3224-.0209-.5988.2233-.6197.5458Z"/><path class="cls-3" d="m168.5081,55.7862c-.4381.1708-1.3115.5217-2.2267.9486-.1424.067-.2443.0837-.3029.0837-.0922-.007-.0922-.0168-.1298-.053-.0336-.0405-.0796-.1437-.0796-.3001-.0014-.2094.0823-.4955.2917-.7607.127-.1702.5067-.4871.9728-.8011.6931-.4703,1.585-.9772,2.3093-1.3659.0129-.0264.0214-.0493.0347-.0758.3169-.63.4516-1.1274.4793-1.5089-.3722.1877-1.0702.5468-1.8295.9756-.5555.3141-1.1403.6616-1.6512,1.0091-.5108.3517-.9421.6797-1.2352,1.0468-.3601.4606-.5388.9841-.5402,1.4809,0,.3671.0991.7328.3364,1.0301.2318.3001.6281.4969,1.0413.4913.2638,0,.5318-.0698.7956-.1926.5902-.2746,1.1674-.5193,1.6142-.7025-.0056-.0834-.0189-.1636-.0184-.2493.001-.3325.0568-.6877.1382-1.0562Z"/><path class="cls-3" d="m169.0101,56.8437c.1312-.0502.2024-.0767.2024-.0767.3029-.1144.4564-.4508.3433-.7523-.113-.3029-.4508-.455-.7523-.3419-.0024.0008-.1162.0436-.2954.1135-.0815.3685-.1373.7237-.1382,1.0562-.0005.0857.0129.1659.0184.2493.0234-.0096.0506-.0211.0732-.0303.2289-.0922.4174-.1661.5485-.2178Z"/><path class="cls-3" d="m169.343,53.5377c.0109-.0059.0233-.0129.0342-.0187.3643-.1954.6839-.3601.9128-.476.2275-.1158.3615-.1815.3615-.1815.2903-.141.4103-.4913.2694-.7816-.1424-.2889-.4913-.4089-.7816-.268-.0018.0009-.1107.0544-.2823.141-.0277.3815-.1624.8789-.4793,1.5089-.0132.0266-.0217.0494-.0347.0758Z"/><path class="cls-3" d="m105.4732,57.0973c2.1514-.0261,12.8834-.1593,24.2975-.3539,6.3856-.1089,12.9805-.2359,18.4044-.374,4.9489-.1273,8.9013-.2615,10.8703-.4016.0688-.4072.1754-.8055.3128-1.1963-1.7132.1465-5.9037.2941-11.2125.4296-8.1274.208-18.8984.3909-27.6385.522-4.3687.0656-8.2307.1187-10.9999.1549-2.7692.0363-4.4413.0558-4.4455.0558-.1421.0018-.2669.0602-.3671.1457.071.0733.1456.1378.2139.2166.2061.2405.3915.5145.5645.8011Z"/><path class="cls-3" d="m104.661,56.9363c-.0007-.0009-.0013-.0017-.002-.0026.0008.0008.0012.0019.002.0026Z"/><path class="cls-3" d="m104.4854,56.5242c.0013.1608.0679.3052.1736.4095.0007.0009.0013.0017.002.0026.1069.1044.2537.1678.4148.1657,0,0,.1419-.0016.3974-.0048-.173-.2867-.3584-.5607-.5645-.8011-.0684-.0788-.1429-.1433-.2139-.2166-.1271.1085-.2117.2643-.2094.4447Z"/><path class="cls-3" d="m159.5672,55.9269c.321-.0293.5583-.3127.529-.6337-.028-.3224-.3127-.5597-.6337-.5303-.0316.0029-.0707.0057-.1042.0086-.1374.3907-.244.7891-.3128,1.1963.1906-.0135.3694-.0272.5218-.0408Z"/><path class="cls-4" d="m110.8672,73.7011c-.004-.0113-.0084-.0237-.0123-.035-.0037-.0105-.0073-.0206-.0113-.0312-.7984.2205-2.9395.8082-5.0903,1.3469l-.0628-.0209c-.0014-.0014-3.9458-.4885-7.6082-.9938-.4941-.0684-1.037-.1019-1.6121-.1019-.1507,0-.3043.0028-.4592.007,0,.0001,0,.0002,0,.0003h.0004c-.1227.4968-.2526,1.0089-.3893,1.5378.2999-.0168.5914-.0251.8718-.0251.4969,0,.9617.0265,1.3804.0851,1.1934.1647,2.4147.3265,3.5215.4717-.1047.0167-.2178.0349-.3112.0474-1.2017.155-6.5838.991-8.5225,3.6248-.6351-.0573-1.2339-.0865-1.7977-.0865-.2973,0-.5834.0084-.8612.0237,0,.0001-.0001.0002-.0002.0003.0002,0,.0004,0,.0007,0-.0222.0385-.0411.0695-.0631.1073-.1505.2591-.2968.5084-.4329.736-.036.0601-.0673.1113-.1022.1691-.1058.1756-.2057.3396-.3002.4931-.0224.0364-.0498.0824-.0715.1175.54-.0892,1.1427-.1353,1.8068-.1353.3727,0,.7635.014,1.1738.0433-.2037,1.0649-.0558,1.9233.462,2.5444.797.9575,2.2249,1.1417,3.8271,1.1417.3127,0,.6323-.007.9547-.0168,2.6058-.0795,8.3787-.7551,10.5505-1.0091l.476-.0544c1.522-.1769,3.3139-.5037,3.8553-.6063.0374-.0511.072-.1025.1055-.1541.0795-.1224.1526-.2455.2122-.3701.0371-.0775.0715-.1554.1014-.2337.0485-.1263.0872-.2535.1188-.3815.0123-.05.0248-.1.0347-.1503-.1434-.1519-.3429-.2437-.5549-.2437-.0474,0-.0949.0042-.1424.0126-.0209.0042-2.1857.4188-3.9067.6183l-.476.0558c-1.4487.1703-4.5125.5276-7.1364.7677.1312-.7579-.0754-1.5089-.6379-2.2137-.3867-.4843-1.1976-.6239-1.9959-.6239-1.0538,0-2.0867.2415-2.1062.2457-.6253.1522-1.2799.3908-1.3929.9728-.0516.1633-.3726.6658-.7593,1.2031-.1829-.2736-.2178-.7062-.0893-1.3022.0363-.1703.1088-.3364.1968-.4982l.014-.0237c.9393-1.6819,4.4803-2.8585,7.6542-3.2689,2.4009-.3096,8.7084-2.0457,10.0554-2.421-.0226-.0682-.0396-.1247-.0633-.1952-.0156-.0465-.032-.0945-.048-.1419-.111-.3279-.2296-.6719-.3568-1.0349Zm-15.2163,8.2887c.4424-.1871,1.5423-.335,2.2751-.335.3015,0,.5401.0251.6462.0823.3881.4857.4355.9058.187,1.4041-.6252.046-1.1891.0795-1.647.0935-.2415.007-.529.0153-.8375.0153-.4298,0-.8988-.0153-1.3315-.0684.2861-.4117.561-.8472.7076-1.192Z"/><path class="cls-4" d="m111.4918,73.7155s.0001,0,.0002,0c0,0,0-.0001,0-.0001.0029-.0021.0072-.0022.0101-.0043.0634-.044.1358-.0762.216-.0925.0027-.0005.0048-.0027.0075-.0032,0,0,.0038-.0005.0045-.0006.0016-.0003.0085-.0015.0148-.0027-.0985-.0552-.208-.0885-.3228-.0956.0237.0668.0459.1337.0696.1991Z"/><path class="cls-4" d="m111.9401,74.7649c-.0278.0056-.057.0084-.0849.0098.0036.0122.0075.024.0115.0359.0036.0109.0072.0217.0112.0329.028-.0251.0544-.053.0795-.0823-.0031.0006-.0068.0012-.0084.0015-.0031.0008-.0089.0022-.0089.0022Z"/><path class="cls-4" d="m112.6225,81.7998s.0002.0006.0005.0009c0-.0002.0001-.0004.0002-.0007-.0029-.0032-.0074-.0044-.0104-.0076-.0099.0502-.0225.1003-.0347.1503.0118-.0479.0348-.0947.0445-.1429Z"/><path class="cls-4" d="m111.3377,75.0724c-.0206-.0619-.0444-.1309-.0657-.1945.0237.0705.0406.127.0633.1952.0007-.0002.0018-.0005.0024-.0007Z"/><path class="cls-4" d="m112.3577,82.5579c.0371-.0776.0714-.1554.1014-.2337-.03.0783-.0643.1562-.1014.2337Z"/><path class="cls-4" d="m112.04,83.0821c.0052-.001.0143-.0027.0193-.0036.0005-.0007.0008-.0016.0013-.0023.0353-.0486.053-.0991.0849-.1481-.0336.0516-.0682.103-.1055.1541Z"/><path class="cls-4" d="m111.224,74.736c-.1111-.3286-.2288-.6715-.3567-1.0356-.0044-.011-.0084-.0228-.0125-.0344.004.0113.0084.0237.0123.035.1272.363.2458.707.3568,1.0349Z"/><path class="cls-4" d="m89.3055,80.564c-.1057.1752-.2061.3401-.3002.4931.0945-.1535.1943-.3175.3002-.4931Z"/><path class="cls-4" d="m89.8405,79.6589c-.1505.2596-.2966.5081-.4329.736.1361-.2275.2824-.4769.4329-.736Z"/><path class="cls-4" d="m111.7399,73.6134c.0026-.0005.0021-.0004.0057-.0012l-.0005-.0002c-.0063.0012-.0132.0024-.0148.0027.0014-.0002.0053-.0007.0097-.0013Z"/><path class="cls-4" d="m111.7182,73.6185c-.0802.0164-.1526.0485-.216.0925,0,0,0,0,0,0,.064-.0437.1366-.076.2159-.0925Z"/><path class="cls-4" d="m111.951,74.7623c-.0009.0002-.0013.0003-.0021.0005.0016-.0003.0053-.0009.0084-.0015h0c-.0043.0005-.0038.0006-.0064.001Z"/><path class="cls-3" d="m111.4918,73.7155s-.0004.0001-.0006.0002c-.0223-.0656-.0461-.1326-.0698-.1996.0003,0,.0005.0002.0008.0002,0-.0001,0-.0002-.0001-.0004-.0004,0-.0008,0-.0012,0,.0235.0671.0471.1345.0702.2006.0004-.0002.0004-.0008.0008-.001,0,0,0,0,0,0Z"/><path class="cls-3" d="m112.576,81.9515c-.0308.1232-.0681.2457-.1144.3672.0463-.1215.0838-.244.1144-.3672Z"/><path class="cls-3" d="m111.8534,74.7747c.0078.0234.0153.046.023.0691.0002-.0002.0005-.0002.0007-.0004-.0032-.0112-.0069-.022-.0105-.0328-.004-.0119-.0079-.0237-.0122-.0359h-.001Z"/><path class="cls-3" d="m111.2492,74.8091c.0035.0103.0071.0208.0105.031-.0034-.0101-.007-.0208-.0105-.031Z"/><path class="cls-3" d="m112.3561,82.5616c-.0591.1229-.1311.2444-.2097.3651.0786-.1207.1506-.2421.2097-.3651Z"/><path class="cls-3" d="m112.4616,82.3188c-.0311.0814-.0667.1623-.1055.2429-.0591.1229-.1311.2444-.2097.3651-.0322.0494-.0501.1005-.0858.1495-.0009.0012-.0012.0024-.0021.0036.0824-.0154.1312-.0251.1438-.028.3015-.0586.5262-.2861.5946-.5667-.0002-.0006,0-.0014-.0002-.002-.0002.0009.0001.0018,0,.0027-.0222-.0694-.0319-.1431-.0264-.2195,0-.0002,0-.0003,0-.0005h0s0-.0004,0-.0005c.0042-.0474.0126-.0935.0266-.1368,0,.0001,0,.0003,0,.0004.0001-.0004.0001-.0007.0002-.0011-.0306-.1253-.092-.2366-.174-.3272-.0103.0508-.0344.1003-.047.1509-.0306.1233-.0682.2457-.1144.3672Z"/><path class="cls-3" d="m111.8374,74.7747c-.0016.0001-.0034.0003-.0049.0003-.0255,0-.0486-.0098-.0735-.0131-.0285-.0037-.0555-.0069-.0828-.0146-.0137-.0039-.029-.0028-.0424-.0077-.028-.0102-.0507-.0295-.0766-.0437-.0244-.0133-.0488-.024-.071-.0406-.0384-.0286-.0694-.0641-.0999-.1014-.0146-.0179-.0322-.0321-.0446-.0518-.0291-.0458-.0475-.0982-.063-.1524-.0052-.0181-.0162-.0331-.0198-.052-.0005-.0024.0012-.0045.0007-.007-.0176-.1003-.0017-.1953.0289-.2852.004-.0117-.0008-.0259.0039-.0373.0056-.0135.0203-.0209.0269-.0339.0373-.0748.087-.1401.1524-.193.0083-.0067.0108-.0184.0195-.0247-.0231-.0662-.0467-.1335-.0702-.2006-.0149-.0001-.0299-.0013-.0449-.0013-.0684,0-.1368.0098-.2065.0279-.0084.0028-.1242.0363-.3253.0921.007.0223.0154.0447.0237.067.1364.39.2632.7578.3812,1.1074.0035.0102.0071.0209.0105.031.0258.0765.0541.1583.0787.2322.1312-.0363.2149-.06.2429-.067.1127-.0321.2129-.0893.2952-.1616-.0077-.0231-.0152-.0457-.023-.0691h-.0161Z"/><path class="cls-3" d="m111.3192,73.9342c.0371-.0741.0875-.1403.1524-.193-.0654.0529-.1151.1182-.1524.193Z"/><path class="cls-3" d="m111.2595,74.2907c-.0175-.0997-.0015-.1956.0289-.2852-.0306.0899-.0464.1849-.0289.2852Z"/><path class="cls-3" d="m111.5572,74.6959c-.024-.0132-.0491-.0242-.071-.0406.0222.0166.0467.0273.071.0406Z"/><path class="cls-3" d="m111.3862,74.5539c-.0145-.0178-.0322-.0323-.0446-.0518.0125.0197.03.0339.0446.0518Z"/><path class="cls-3" d="m111.759,74.7619c-.028-.0037-.0559-.007-.0828-.0146.0273.0078.0543.011.0828.0146Z"/><polygon class="cls-3" points="112.7702 82.2659 112.7702 82.2663 112.7702 82.2659 112.7702 82.2659"/><path class="cls-3" d="m111.8549,74.7747h-.0005c.0043.0123.0082.024.0122.0359-.004-.0119-.0079-.0237-.0115-.0359h-.0002Z"/><path class="cls-3" d="m111.4912,73.7157s.0004-.0001.0006-.0002c-.0237-.0654-.0459-.1323-.0696-.1991-.0003,0-.0005-.0002-.0008-.0002.0237.067.0474.134.0698.1996Z"/><path class="cls-3" d="m112.3561,82.5616c.0006-.0012.001-.0025.0016-.0037-.0596.1246-.1327.2477-.2122.3701.0003-.0004.0006-.0009.0009-.0013.0786-.1207.1506-.2421.2097-.3651Z"/><path class="cls-3" d="m112.576,81.9515c.0008-.0029.0013-.0059.002-.0089-.0316.128-.0704.2552-.1188.3815.0007-.0018.0016-.0036.0024-.0054.0463-.1216.0836-.2441.1144-.3672Z"/><path class="cls-3" d="m112.4616,82.3188c-.0007.0018-.0016.0036-.0024.0054-.03.0783-.0643.1561-.1014.2337-.0006.0012-.001.0025-.0016.0037.0388-.0806.0743-.1614.1055-.2429Z"/><path class="cls-3" d="m112.1455,82.928c-.0319.049-.0496.0995-.0849.1481.0357-.049.0536-.1.0858-.1495-.0003.0004-.0006.0009-.0009.0013Z"/><path class="cls-3" d="m112.578,81.9427c-.0007.003-.0012.0059-.002.0089.0126-.0506.0367-.1.047-.1509-.0002-.0002-.0002-.0006-.0005-.0009-.0097.0482-.0327.095-.0445.1429Z"/><path class="cls-4" d="m74.137,83.1316c-.1566-.0301-.321-.0654-.4955-.1047-.1033-.0233-.2054-.0475-.3154-.075-.0719-.0179-.1342-.0298-.2091-.0497.1161.2926.4004.4766.7043.4766.0754,0,.1522-.0097.2275-.0334.0432-.014.2007-.0642.4496-.1448-.0261-.0045-.0579-.0114-.0845-.0161-.0896-.0159-.1813-.0345-.277-.0529Z"/><polygon class="cls-4" points="73.1165 82.9014 73.1169 82.902 73.1167 82.9015 73.1165 82.9014"/><path class="cls-4" d="m92.6682,74.2381s0,0,0,0c.0002,0,.0003,0,.0005,0-.0421.0902-.0839.1767-.1258.2659-.0928.1978-.1857.3963-.278.5897-.1424.2959-.2861.5862-.4271.871,1.0704-.2415,2.1535-.4173,3.1682-.5081.1423-.5427.2658-1.0468.3917-1.5558-.8737.053-1.7974.1688-2.7294.3373Z"/><path class="cls-4" d="m74.1862,82.5448c.1143.0222.2339.0472.3405.0659.0753.0132.1455.0252.2174.0374.3292.0554.6319.1032.9104.1633.0042.0014.0084.0028.0125.0028-.0005.0002-.0009.0002-.0013.0004.0003.0001.0007.0001.001.0002,2.6728-.9031,7.8874-2.7817,9.8777-4.3366,1.1788-.9192,3.2901-1.7617,5.5443-2.3354.2151-.422.4318-.8514.6492-1.3035.072-.1492.1427-.3108.2145-.463-2.8939.6004-5.7602,1.6715-7.3418,2.9058-2.4537,1.9149-10.9301,4.5878-11.0166,4.6143-.2078.0647-.3682.2144-.4556.3965.0828.0229.1708.0497.2498.0699.1262.0324.2523.0649.3697.0915.1494.0338.2917.0637.4283.0904Z"/><path class="cls-4" d="m73.6415,83.0268c-.1019-.023-.2069-.048-.3154-.075.11.0275.2121.0517.3154.075Z"/><path class="cls-4" d="m74.744,82.6481c-.0719-.0121-.1421-.0241-.2174-.0374.0762.0134.1447.0251.2174.0374Z"/><path class="cls-4" d="m73.7578,82.4545c.0378.0086.0822.0215.1191.0295.11.0239.2063.0408.3092.0609-.1366-.0267-.279-.0566-.4283-.0904Z"/><path class="cls-4" d="m73.1333,82.2998c.0916.0256.1678.0408.2549.0631-.079-.0203-.1671-.0471-.2498-.0699-.0012.0026-.0038.0043-.0051.0068Z"/><path class="cls-4" d="m74.4141,83.1844c-.0873-.0154-.1838-.035-.277-.0529.0958.0184.1874.037.277.0529Z"/><path class="cls-4" d="m95.4024,73.9003c-.0016.0001-.0032.0003-.0048.0004-.1259.509-.2495,1.0131-.3917,1.5558h.0002c.1396-.5359.2722-1.0538.3964-1.5562Z"/><path class="cls-4" d="m91.289,75.7455c.1495-.2978.2991-.5933.4486-.9059.0515-.1058.1029-.2148.1544-.3233.0223-.0473.0446-.0939.0671-.1415-.0023.0005-.0046.001-.0068.0015-.0718.1522-.1426.3138-.2145.463-.2175.4521-.4341.8815-.6492,1.3035.0013-.0003.0026-.0007.0038-.001.065-.1274.1312-.266.1967-.3963Z"/><path class="cls-3" d="m73.755,82.4539c-.1126-.0255-.2338-.0567-.3545-.0875.1219.0311.2408.0617.3545.0875Z"/><path class="cls-3" d="m75.654,82.8121c-.2214-.0478-.4606-.0881-.7115-.1299.2513.0419.4898.0825.7114.1304.0034.0007.0065.0021.0098.0027.0007-.0002.0012-.0004.0019-.0007-.0039-.0013-.0078-.0026-.0116-.0026Z"/><polygon class="cls-3" points="73.117 82.9022 73.117 82.9022 73.1169 82.902 73.117 82.9022"/><path class="cls-3" d="m74.5043,82.6069c-.0953-.0169-.2018-.0392-.3033-.059.1033.02.2064.0417.3033.059Z"/><path class="cls-3" d="m73.6511,83.0289c.1656.0373.3218.071.4713.0997-.1483-.0285-.3072-.0628-.4713-.0997Z"/><path class="cls-3" d="m73.1134,82.8924c.0012.003.0021.006.0033.009.0704.0189.129.0299.1968.0469-.0626-.0157-.1353-.0388-.2001-.056Z"/><path class="cls-3" d="m74.4997,83.2002s-.0007.0002-.0012.0004c.0005,0,.0011.0002.0016.0003l.0033-.0011c-.0209-.0036-.0396-.0067-.0609-.0104.0179.0031.0395.0078.0571.0109Z"/><path class="cls-3" d="m75.6539,82.8126c-.2216-.048-.4601-.0886-.7114-.1304-.1409-.0235-.2836-.0479-.4382-.0753-.0969-.0172-.2-.0389-.3033-.059-.1075-.0209-.2087-.0388-.324-.064-.0378-.0082-.0832-.0213-.1219-.0301-.1136-.0258-.2326-.0563-.3545-.0875-.0909-.0231-.171-.0392-.2668-.0659-.0768.1661-.0949.3588-.0363.5472.0046.0149.0103.0298.016.0447.0649.0172.1375.0403.2001.056.1164.0292.2286.056.3376.0804.1641.0369.323.0712.4713.0997.1082.0208.2201.0432.3202.0608.0212.0037.04.0068.0609.0104.2825-.0918.6805-.2224,1.1603-.3844-.0034-.0007-.0065-.0021-.0098-.0027Z"/><path class="cls-3" d="m75.6656,82.8147s.0009-.0002.0013-.0004c-.0042,0-.0084-.0014-.0125-.0028-.2785-.0601-.5812-.1079-.9104-.1633.0656.011.1354.0235.1984.0341.251.0418.4902.0822.7115.1299.0038,0,.0077.0013.0116.0026Z"/><path class="cls-3" d="m74.137,83.1316c-.0046-.0009-.0101-.0022-.0146-.0031-.1494-.0287-.3056-.0624-.4713-.0997-.0034-.0007-.0063-.0012-.0096-.002.1746.0394.3389.0746.4955.1047Z"/><path class="cls-3" d="m74.4426,83.1893c-.0099-.0018-.0185-.0031-.0285-.0049.0266.0047.0584.0116.0845.0161.0005-.0002.0007-.0002.0012-.0004-.0176-.0031-.0392-.0078-.0571-.0109Z"/><path class="cls-3" d="m73.3136,82.9484c-.0678-.017-.1264-.0281-.1968-.0469.0001.0002,0,.0004.0002.0005,0,0,.0001.0001.0001.0002.0749.0198.1372.0318.2091.0497-.0039-.001-.0087-.0024-.0126-.0035Z"/><path class="cls-3" d="m74.1862,82.5448c.0048.0009.0101.0022.0148.0031.1015.0197.208.0421.3033.059.0078.0013.0146.0025.0223.0038-.1066-.0187-.2262-.0437-.3405-.0659Z"/><path class="cls-3" d="m74.5266,82.6108c-.0078-.0013-.0146-.0025-.0223-.0038.1546.0274.2972.0518.4382.0753-.063-.0106-.1328-.023-.1984-.0341-.0727-.0122-.1412-.024-.2174-.0374Z"/><path class="cls-3" d="m74.4141,83.1844c.01.0018.0186.0031.0285.0049-.1001-.0176-.212-.04-.3202-.0608.0046.0009.01.0022.0146.0031.0933.0179.1898.0374.277.0529Z"/><path class="cls-3" d="m73.6415,83.0268c.0034.0008.0063.0013.0096.002-.1089-.0245-.2212-.0512-.3376-.0804.0039.001.0087.0025.0126.0035.1085.027.2134.0519.3154.075Z"/><path class="cls-3" d="m73.877,82.484c.1154.0252.2165.043.324.064-.0048-.0009-.0101-.0022-.0148-.0031-.1029-.02-.1992-.0369-.3092-.0609Z"/><path class="cls-4" d="m86.596,87.5556c.1544,0,.306-.0473.4355-.1375-.2894.0042-.5717.0098-.8458.0167.1267.0817.2684.1208.4103.1208Z"/><path class="cls-4" d="m85.2044,87.4537c.1158.067.2484.1019.3796.1019.1396,0,.2805-.0391.4048-.1172-.0692.0014-.1324.0025-.2003.0039-.1912.004-.3853.0081-.5672.0112-.0055.0001-.0115.0002-.017.0003Z"/><path class="cls-4" d="m89.6513,83.1841c-.067-.0028-.134-.0042-.201-.0042-1.012,0-2.1229.3448-2.3267,1.1613-.0977.3936-.6323,1.266-1.0385,1.8564-.2554-.3685-1.0049-1.6177-.3839-2.9409.434-.9239,1.2407-1.5547,2.4295-1.9008.0063-.0099.0114-.0178.0178-.0279.0927-.1473.1969-.3139.3101-.4972.0146-.0237.0298-.0486.0449-.0729.1239-.2012.2567-.4189.3997-.6584.0032-.0054.0068-.0115.01-.0169.0853-.1428.1837-.3141.275-.4695-2.4418.2839-4.0483,1.2719-4.8602,2.9988-.8633,1.8353-.0782,3.5142.3868,4.2619.0658-.0005.1326-.0012.2001-.002.3721-.0045.7606-.0114,1.179-.0202.3933-.0083.8034-.0162,1.2334-.0222.0585-.0008.1096-.0023.1688-.0031-.0002.0003-.0003.0004-.0005.0007h.0009c.3378-.5094.8542-1.3399,1.0566-1.9652.1535-.0809.4857-.1633.8849-.1633.2959,0,.6281.046.9505.1703.7549.2916,1.228.9155,1.4067,1.8571.0004,0,.0008,0,.0012,0h0c.4801-.0168.9938-.0364,1.5283-.056,0,0,0,.0001,0,.0002h.0002c-.3087-2.0836-1.6819-3.3856-3.6735-3.486Z"/><path class="cls-4" d="m92.2586,87.2938c-.0805.003-.1681.0062-.2471.0092.141.1563.3434.2526.5639.2526l.1103-.0084c.202-.0292.3746-.1366.4904-.2868-.0394.0015-.0745.0026-.1135.0041-.2754.0102-.5429.0199-.804.0293Z"/><polygon class="cls-4" points="93.3246 86.6707 93.3248 86.6707 93.3247 86.6701 93.3245 86.6701 93.3246 86.6707"/><path class="cls-4" d="m85.7886,87.4422c-.1923.004-.3843.0081-.5672.0112.1819-.0031.376-.0071.5672-.0112Z"/><path class="cls-4" d="m84.9148,86.8717c-.0674.0008-.1343.0015-.2001.002.0004.0006.0009.0015.0012.0021h.0001s-.0003-.0004-.0005-.0007c.0619-.0005.1359-.0026.1992-.0034Z"/><path class="cls-4" d="m86.0937,86.8515c.3914-.0082.8059-.0162,1.2334-.0222-.43.006-.8401.0139-1.2334.0222Z"/><polygon class="cls-4" points="91.7949 86.7259 91.7951 86.7265 91.7963 86.7265 91.7962 86.7259 91.7949 86.7259"/><path class="cls-4" d="m92.609,87.2807c-.1169.0043-.2363.0089-.3504.0131.261-.0094.5286-.0191.804-.0293-.1561.0059-.3022.0108-.4536.0162Z"/><path class="cls-4" d="m88.4586,80.8308c.0151-.0243.0295-.048.0449-.0729-.015.0243-.0302.0491-.0449.0729Z"/><path class="cls-4" d="m89.1881,79.613c-.0912.1554-.1896.3267-.275.4695.0905-.15.1832-.3058.2789-.4702-.0013.0002-.0026.0004-.0039.0006Z"/><path class="cls-4" d="m88.1485,81.328c-.0064.0101-.0115.0179-.0178.0279.0002,0,.0003-.0001.0005-.0002.0051-.0081.0121-.0195.0173-.0277Z"/><path class="cls-3" d="m86.3522,87.4309c-.0562.0012-.1138.0021-.1693.0033.0004.0002.0006.0004.001.0007.0005,0,.0012,0,.0018,0-.0004-.0003-.001-.0003-.0014-.0006.0544-.0011.113-.0022.168-.0033Z"/><polygon class="cls-3" points="87.0315 87.4181 87.0324 87.4181 87.0326 87.418 87.0318 87.418 87.0315 87.4181"/><path class="cls-3" d="m86.0064,86.8533c-.3559.0076-.6817.0131-1.0036.0176.3184-.0043.6519-.0101,1.0036-.0176Z"/><polygon class="cls-3" points="93.176 87.2604 93.1779 87.2604 93.178 87.2602 93.1762 87.2603 93.176 87.2604"/><path class="cls-3" d="m87.3961,86.8288c.0321-.0004.0663-.0004.0986-.0008.0002-.0004.0004-.0006.0007-.001-.0348.0004-.0648.0013-.0993.0018Z"/><path class="cls-3" d="m87.4947,86.828c-.0323.0004-.0665.0004-.0986.0008-.4845.0059-.9512.0151-1.3897.0245-.3517.0074-.6852.0132-1.0036.0176-.092.0013-.1978.0042-.2867.005.149.2382.2632.3803.2814.4026.06.0726.1298.1312.2065.1744.2526-.0027.5136-.0084.7844-.0153.0266-.0167.053-.0349.0781-.0558l.0266-.0335.0628.067c.0094.0054.0176.0121.027.0189.0555-.0012.1132-.0021.1693-.0033.2228-.0045.4467-.009.6807-.0135-.0004.0002-.0007.0003-.0011.0005h.0008c.0683-.0488.1298-.1088.1813-.1813.05-.0696.1529-.2157.2808-.4087Z"/><path class="cls-3" d="m93.3246,86.6707c-.5341.0195-1.0472.0377-1.5283.0558.011.0583.0208.1182.0292.1794.0223.1536.0893.2889.1856.3964.191-.0065.3983-.0143.5979-.0215.1896-.007.3714-.0135.5679-.0211-.0002.0002-.0005.0004-.0007.0006.0006,0,.0012,0,.0018,0,.12-.1578.1799-.3615.1492-.5735,0-.0053-.0013-.0107-.0026-.0161Z"/><path class="cls-3" d="m93.0625,87.2645c.0391-.0015.0742-.0026.1135-.0041h.0001c-.0385.0013-.0754.0027-.1136.0041Z"/><path class="cls-3" d="m87.4959,86.8263c-.0591.0007-.1103.0023-.1688.0031.0223-.0003.0465-.0002.069-.0005.0345-.0004.0645-.0014.0993-.0018.0002-.0003.0003-.0004.0005-.0007Z"/><path class="cls-3" d="m84.9148,86.8717c.0297-.0004.058-.0005.088-.0009.3219-.0045.6477-.01,1.0036-.0176.0298-.0006.0573-.0012.0873-.0018-.4183.0088-.8069.0157-1.179.0202Z"/><path class="cls-3" d="m86.3522,87.4309c-.055.0011-.1135.0022-.168.0033.0004.0003.001.0003.0014.0006.2742-.007.5565-.0125.8458-.0167,0,0,.0002,0,.0003-.0001-.2308.004-.459.0082-.6796.0129Z"/><path class="cls-3" d="m93.3245,86.67c-.5345.0195-1.0482.0391-1.5283.0558h0c.4811-.0169.9932-.0357,1.5284-.0557,0,0,0-.0001,0-.0002Z"/><path class="cls-3" d="m93.1762,87.2603s.0005-.0004.0007-.0006c-.1965.0075-.3783.014-.5679.0211.1514-.0054.2974-.0104.4536-.0162.0383-.0014.0751-.0028.1136-.0042Z"/><path class="cls-3" d="m91.7962,86.7259s0,.0004.0001.0005c.4811-.0181.9943-.0363,1.5283-.0558,0-.0002,0-.0004,0-.0005-.5352.02-1.0472.0388-1.5284.0558Z"/><path class="cls-3" d="m87.0329,87.4174c-.234.0045-.4578.009-.6807.0135.2205-.0047.4487-.009.6796-.0129.0004-.0002.0007-.0003.0011-.0005Z"/><path class="cls-3" d="m84.7155,86.8752s.0003.0004.0005.0007c.089-.0008.1948-.0037.2867-.005-.03.0004-.0583.0005-.088.0009-.0633.0008-.1373.0029-.1992.0034Z"/><path class="cls-3" d="m86.0937,86.8515c-.03.0006-.0575.0012-.0873.0018.4385-.0094.9052-.0187,1.3897-.0245-.0225.0003-.0466.0002-.069.0005-.4275.006-.842.014-1.2334.0222Z"/><path class="cls-3" d="m89.3842,80.4338c-.0009.0015-.0016.0027-.0025.0042.0009-.0015.0016-.0026.0025-.0042Z"/><path class="cls-3" d="m91.8367,75.9646c.0094-.0189.0189-.0388.0283-.0576-.0098.0197-.0195.0382-.0294.0579.0004,0,.0007-.0002.0011-.0002Z"/><path class="cls-3" d="m92.6592,74.2399c-.1313.2835-.2617.5758-.3934.8496.0927-.1921.1848-.3892.277-.5856.0418-.0892.0837-.1757.1253-.2658-.0029.0005-.006.0012-.0089.0018Z"/><path class="cls-3" d="m88.8125,80.2499c-.0945.1568-.1862.308-.2715.4472.0861-.1402.1765-.2891.2715-.4472Z"/><path class="cls-3" d="m89.8822,79.587c.0073-.0126.0134-.0226.0208-.0353h-.0003c-.0068.0119-.0136.0235-.0204.0353Z"/><path class="cls-3" d="m95.6203,75.4106c.0006,0,.0012,0,.0018-.0001,0,0,0-.0002,0-.0002h-.0005c.1381-.5275.2679-1.0411.3893-1.5378l-.0038.0002c-.1227.4998-.2485,1.0059-.3868,1.538Z"/><path class="cls-3" d="m88.4263,80.8833c-.0937.1515-.1823.2936-.2618.4193.0794-.1258.1682-.268.2618-.4193Z"/><path class="cls-3" d="m88.9546,81.1395c-.0071.0116-.0148.0242-.022.0356.0004,0,.0006-.0002.001-.0002,0-.0001.0001-.0002.0002-.0003-.0002,0-.0004,0-.0006,0,.0065-.0105.0148-.0245.0214-.0352Z"/><path class="cls-3" d="m89.3817,80.438c.0009-.0015.0016-.0027.0025-.0042.1559-.2601.3234-.5447.498-.8469.0068-.0118.0136-.0234.0204-.0353-.2438.014-.4808.035-.7109.0614-.0991.1689-.1954.3322-.2875.4857-.0329.0549-.0598.0981-.0917.1511-.0951.1581-.1855.307-.2715.4472-.0396.0645-.0771.1257-.1146.1863-.0936.1512-.1824.2935-.2618.4193-.0102.0161-.0236.0381-.0336.0538.2496-.0739.5173-.1338.8016-.1812.0071-.0115.0148-.024.022-.0356.1309-.2121.2731-.4445.4271-.7015Z"/><path class="cls-3" d="m91.9596,74.3749c-.0225.0475-.045.094-.0676.1415-.051.1082-.1019.2165-.1534.3233-.1505.3126-.3.6081-.4496.9059-.0654.1303-.1312.2689-.1962.3963.2467-.0627.4948-.1212.7429-.177.0098-.0197.0195-.0381.0294-.0579.133-.2666.2659-.537.3988-.8133.0007-.0013.0013-.0028.002-.0042.1317-.2738.2621-.5661.3934-.8496-.2329.0414-.4669.0867-.6996.1349Z"/><path class="cls-3" d="m95.0065,75.4565c.2073-.0195.412-.0348.6138-.0459.1384-.5321.2641-1.0383.3868-1.538-.1983.0055-.4005.0152-.6042.0277-.1242.5024-.2568,1.0203-.3964,1.5562Z"/><path class="cls-3" d="m89.8405,79.6589c.022-.0378.0409-.0688.0631-.1073-.0002,0-.0004,0-.0007,0-.0073.0126-.0135.0227-.0208.0353-.0139.024-.0278.0482-.0417.072Z"/><path class="cls-3" d="m89.3817,80.438c-.0264.0439-.0505.0834-.0762.126.0349-.0578.0662-.109.1022-.1691-.0081.0135-.0154.0255-.0235.0389-.0009.0015-.0016.0027-.0025.0042Z"/><path class="cls-3" d="m88.9332,81.1747s.0004,0,.0006,0c.0217-.0351.0491-.0811.0715-.1175-.017.0276-.0341.0555-.0507.0824-.0066.0106-.0149.0247-.0214.0352Z"/><path class="cls-3" d="m95.6221,75.4103c.1367-.5289.2665-1.0411.3893-1.5378h-.0004c-.1215.4968-.2512,1.0103-.3893,1.5378h.0005Z"/><path class="cls-3" d="m89.3842,80.4338c.0081-.0135.0154-.0254.0235-.0389.1363-.2278.2823-.4764.4329-.736.0139-.0238.0278-.0479.0417-.072-.1746.3021-.3421.5867-.498.8469Z"/><path class="cls-3" d="m88.9546,81.1395c.0166-.0269.0338-.0548.0507-.0824.0941-.153.1945-.3179.3002-.4931.0257-.0427.0498-.0821.0762-.126-.154.257-.2961.4894-.4271.7015Z"/><path class="cls-3" d="m92.6681,74.2381c-.0416.0901-.0835.1766-.1253.2658.0419-.0892.0837-.1757.1258-.2659-.0002,0-.0003,0-.0005,0Z"/><path class="cls-3" d="m91.892,74.5163c-.0515.1085-.1029.2175-.1544.3233-.1495.3126-.2991.6081-.4486.9059.1496-.2978.2991-.5933.4496-.9059.0515-.1068.1024-.2151.1534-.3233Z"/><polygon class="cls-3" points="111.4919 73.7156 111.4911 73.7166 111.4925 73.7206 111.5022 73.711 111.492 73.7154 111.4919 73.7156 111.4919 73.7156"/><path class="cls-3" d="m111.8548,74.7736h0c.0282,0,.0552-.0041.0834-.0093-.0303.0056-.0588-.002-.0886-.0012.0012.0036.0023.007.0035.0106.0005,0,.0012-.0001.0017-.0001Z"/><path class="cls-3" d="m111.3191,73.9342c-.0065.0131-.0212.0204-.0268.0339-.0046.0112.0002.0253-.0037.0368.0084-.0245.019-.0477.0305-.0707Z"/><path class="cls-3" d="m111.5582,74.6963c.0256.014.0481.0332.0756.0433.0131.0048.0281.0035.0415.0073-.0414-.0118-.0797-.0303-.1171-.0506Z"/><path class="cls-3" d="m111.4857,74.6548c-.0362-.0272-.066-.0615-.0952-.0966.0294.0352.0587.0693.0952.0966Z"/><path class="cls-3" d="m111.2594,74.2981c-.0004-.0021.0004-.0042,0-.0063.0004.002-.0009.0037-.0005.0056.0035.019.0144.0341.0197.0522.0156.0537.0338.1058.0626.1514-.0383-.0607-.0679-.1282-.0818-.2029Z"/><path class="cls-3" d="m111.8496,74.7631c-.03.0009-.0598.0026-.0889-.0011.0244.0031.047.0127.072.0127h.0048c.0052-.0003.0107-.0008.0157-.001-.0012-.0036-.0023-.007-.0035-.0106Z"/><path class="cls-3" d="m111.4718,73.741c.0076-.0062.0128-.0146.0207-.0204-.0004-.0013-.001-.0027-.0014-.004-.0086.0062-.0111.0178-.0193.0244Z"/><polygon class="cls-3" points="111.7461 73.612 111.7456 73.6122 111.7466 73.6125 111.7461 73.612"/><path class="cls-3" d="m111.7266,73.6163c-.0842.0146-.1592.0492-.2243.0947,0,0,0,0,0,0-.0038.0026-.006.0068-.0097.0096.1277.366.2471.7141.3571,1.0425.0298-.0009.0583.0068.0886.0012.0008-.0002.0016-.0001.0024-.0003,0,0,.0061-.001.0104-.0017.0026-.0006.002-.0005.0058-.0015.155-.1857.2192-.441.1494-.6923-.0572-.2022-.1897-.3611-.3596-.4561-.0045.0004-.0036.0005-.0067.0009-.0061.0013-.0134.0029-.0134.0029Z"/><path class="cls-3" d="m111.3191,73.9342c-.0115.0231-.0222.0463-.0305.0707-.0305.0901-.0469.1865-.0291.2868.0004.0021-.0005.0042,0,.0063.0139.0748.0435.1423.0818.2029.0137.0216.0331.0378.0494.0573.0292.035.059.0694.0952.0966.0223.0167.0479.0281.0724.0415.0374.0203.0757.0388.1171.0506.0276.0079.0564.0114.0853.0151.0291.0037.059.002.0889.0011-.11-.3284-.2294-.6765-.3571-1.0425-.0079.0058-.0131.0142-.0207.0204-.0651.0527-.1155.1191-.1527.1932Z"/><polygon class="cls-3" points="111.5022 73.711 111.4921 73.7153 111.492 73.7154 111.5022 73.711 111.5022 73.711"/><path class="cls-3" d="m111.9382,74.7643c-.0282.0052-.0552.0093-.0834.0094.0001.0004.0002.0007.0004.001.0279-.0014.0571-.0042.0849-.0098,0,0,.0057-.0014.0089-.0022-.0016.0003-.0083.0015-.0084.0015-.0008.0002-.0016-.0001-.0024,0Z"/><polygon class="cls-3" points="111.5023 73.711 111.5022 73.711 111.5022 73.711 111.5023 73.711"/><path class="cls-3" d="m111.7466,73.6125h0s-.0007-.0001-.001-.0003c-.0036.0008-.0031.0007-.0057.0012.0031-.0004.0022-.0005.0067-.0009Z"/><path class="cls-3" d="m111.9382,74.7643c.0008-.0001.0016.0002.0024,0,0,0,.0068-.0012.0084-.0015.0007-.0002.0012-.0002.0021-.0005-.0043.0007-.0104.0017-.0104.0017-.0009.0002-.0016.0001-.0024.0003Z"/><polygon class="cls-3" points="111.4919 73.7156 111.4919 73.7156 111.4911 73.7166 111.4911 73.7166 111.4919 73.7156"/><polygon class="cls-3" points="111.8548 74.7737 111.8548 74.7736 111.8531 74.7737 111.8534 74.7747 111.8544 74.7747 111.8541 74.7737 111.8548 74.7737"/><path class="cls-3" d="m111.3192,73.9342c-.0066.0131-.0213.0204-.0269.0339.0056-.0135.0203-.0209.0268-.0339h0Z"/><path class="cls-3" d="m111.4911,73.7166s0,0,0,0c-.0087.0063-.0112.0179-.0195.0247,0-.0001.0002-.0002.0002-.0002.0082-.0067.0107-.0182.0193-.0244Z"/><path class="cls-3" d="m111.5572,74.6959c.0259.0142.0486.0335.0766.0437-.0275-.0101-.05-.0293-.0756-.0433-.0004-.0002-.0006-.0003-.001-.0004Z"/><path class="cls-3" d="m111.8374,74.7747h.0161s-.0002-.0007-.0003-.001c-.0051.0002-.0105.0007-.0157.001Z"/><path class="cls-3" d="m111.2786,74.3497c.0156.0542.0339.1066.063.1524-.0002-.0003-.0002-.0007-.0004-.001-.0289-.0455-.047-.0977-.0626-.1514Z"/><path class="cls-3" d="m111.3906,74.5583c-.0013-.0016-.003-.0028-.0043-.0044.0305.0373.0615.0729.0999.1014-.0002-.0001-.0002-.0004-.0004-.0005-.0364-.0273-.0658-.0613-.0952-.0966Z"/><path class="cls-3" d="m111.4718,73.741s-.0002.0001-.0002.0002c-.0649.0527-.1153.1189-.1524.193h0c.0372-.0742.0876-.1406.1527-.1932Z"/><path class="cls-3" d="m111.4857,74.6548s.0002.0004.0004.0005c.0219.0164.0471.0274.071.0406.0004.0001.0006.0002.001.0004-.0245-.0134-.0501-.0248-.0724-.0415Z"/><path class="cls-3" d="m111.3412,74.501s.0002.0007.0004.001c.0124.0195.0302.0341.0446.0518.0013.0016.003.0028.0043.0044-.0162-.0195-.0357-.0356-.0494-.0573Z"/><polygon class="cls-3" points="111.8541 74.7737 111.8544 74.7747 111.8549 74.7747 111.8552 74.7747 111.8548 74.7737 111.8541 74.7737"/><path class="cls-3" d="m112.7967,82.4831c.0009-.0038-.0006-.0079.0002-.0117-.017-.0574-.0251-.1179-.0236-.1807-.0019.0668.0039.1323.0233.1924Z"/><path class="cls-3" d="m112.8014,82.1525c-.0014-.008-.0028-.0159-.0047-.0236-.0134.0432-.0226.088-.0257.1337.003-.0396.02-.0734.0304-.1102Z"/><path class="cls-3" d="m112.7704,82.266c-.0006.0087.0032.0161.003.0247-.0016.0628.0065.1234.0236.1807.0222-.0991.028-.2027.0067-.308-.0004-.0035-.0015-.0073-.0022-.0109-.0104.0368-.0274.0706-.0304.1102,0,.0012-.0005.0021-.0006.0033Z"/><path class="cls-3" d="m112.7701,82.2653s0,.0004,0,.0005c0-.0012.0008-.002.0009-.0032.0031-.0458.0123-.0905.0257-.1337,0-.0001,0-.0003,0-.0004-.014.0433-.0223.0894-.0266.1368Z"/><path class="cls-3" d="m112.7702,82.2663c-.0054.0764.0042.1501.0264.2195.0002-.0009-.0001-.0018,0-.0027-.0194-.0602-.0252-.1257-.0233-.1924.0002-.0084-.0038-.0159-.0032-.0244Z"/><path class="cls-3" d="m112.7704,82.266c0-.0012.0005-.0021.0006-.0033,0,.0012-.0008.002-.0009.0032,0,.0002,0,.0003,0,.0005-.0006.0085.0034.0159.0032.0244.0002-.0086-.0036-.0161-.003-.0247Z"/><path class="cls-4" d="m42.4707,70.7708c.1372-.0514.278-.1048.4078-.1523.029-.0106.0627-.0237.0913-.0341-.134.0238-.2596.0447-.3783.0657-.6573.113-1.0719.1828-1.0733.1828-.2554.0433-.4438.2457-.4815.4885.1432-.0565.2759-.1069.4154-.1613.1235-.0482.2451-.0955.3652-.1418.2271-.0874.4411-.168.6533-.2474Z"/><path class="cls-4" d="m55.7913,65.5813c.0084.0486.0223.0959.0431.1431.0726.1619.0977.2932.0977.4104-.0014.141-.0349.2722-.1172.4215-.1395.2582-.4453.5555-.8737.8304-.6407.4174-1.5311.7844-2.4062,1.0789-.8779.2959-1.7391.5234-2.3519.6937-.7966.2232-2.4128.5496-4.0268.851-.0628.0261-.1216.0497-.1833.0752-.7886.3258-1.4938.5984-2.0339.7785-.009.003-.02.007-.029.0101-.2448.0819-.5217.1805-.8141.2872-.0712.026-.1417.0517-.2153.079-.296.1096-.6072.2273-.9358.3544-.0371.0143-.0765.0299-.114.0444-.0449.0175-.0912.0358-.1366.0535-.1436.056-.2941.116-.4418.1743.1016.0801.2276.1272.3622.1272.032,0,.0642-.0027.0963-.0084.0014,0,1.6735-.2806,3.6038-.6309,1.9344-.3531,4.1091-.7718,5.181-1.0691.9198-.2568,2.49-.6616,3.8634-1.2715.6895-.3084,1.3344-.6644,1.8423-1.118.2526-.2275.4745-.4816.6365-.7761.1633-.2917.2639-.6295.2625-.9854,0-.2946-.0684-.596-.1996-.8877-.0096-.0236-.0221-.0471-.0359-.0679-.1019.0393-.2134.0795-.3184.1188-.2476.0931-.4988.1879-.7551.2833Z"/><path class="cls-4" d="m41.2508,71.8661s.0011.0004.0015.0008c.1478-.0583.2982-.1183.4418-.1743-.1472.0575-.2919.1135-.4434.1735Z"/><polygon class="cls-4" points="41.2502 71.8658 41.2508 71.8661 41.2504 71.8657 41.2502 71.8658"/><path class="cls-4" d="m42.8785,70.6185c-.1299.0475-.2706.1009-.4078.1523.1368-.0512.2784-.105.4078-.1523Z"/><path class="cls-4" d="m41.4521,71.1601c.1227-.0478.246-.0959.3652-.1418-.1201.0464-.2417.0936-.3652.1418Z"/><path class="cls-4" d="m56.3731,65.3627c-.1941.0722-.3829.1438-.582.218,0,.0002.0001.0004.0002.0007.2562-.0954.5074-.1902.7551-.2833-.0572.0215-.1154.0432-.1733.0646Z"/><path class="cls-4" d="m43.0959,71.1613c.2924-.1067.5693-.2053.8141-.2872-.244.0817-.5206.1802-.8121.2865-.0007.0002-.0013.0004-.002.0007Z"/><path class="cls-4" d="m42.8806,71.2403c-.2963.1098-.6069.2272-.9358.3544.3286-.1271.6398-.2448.9358-.3544Z"/><path class="cls-4" d="m45.9729,70.0855c.0617-.0255.1205-.0491.1833-.0752-.0009.0002-.0018.0003-.0027.0005-.0007.0003-.0014.0005-.0021.0009.0009-.0002.0018-.0003.0027-.0005-.0623.0259-.1199.0491-.1812.0743Z"/><path class="cls-3" d="m41.0373,71.3218c-.0001.0006.0001.0013,0,.0019.1122-.0443.2256-.0894.3356-.1324-.1133.0443-.22.0848-.3356.1305Z"/><path class="cls-3" d="m42.4033,70.7963c-.1827.0685-.3648.137-.558.2113.1937-.0746.3751-.1426.558-.2113Z"/><path class="cls-3" d="m42.908,70.6081c.0248-.0091.045-.0156.0695-.0245-.0021.0004-.0049.0009-.0071.0012-.0195.0071-.0427.0161-.0624.0233Z"/><path class="cls-3" d="m41.728,71.6793c.0341-.0132.069-.027.1028-.0402.0343-.0134.0705-.0277.1046-.0409-.0677.0262-.1385.0543-.2073.0811Z"/><path class="cls-3" d="m56.8645,65.1787s.0002.0004.0003.0005c0,0,.0002,0,.0002-.0001-.0007-.0012-.0023-.0016-.003-.0028-.0977.038-.1952.0762-.2957.1141.0981-.037.2028-.0745.2982-.1117Z"/><path class="cls-3" d="m42.8881,71.2374c.0709-.0262.139-.051.2077-.076-.0688.0251-.1365.0497-.2077.076Z"/><path class="cls-3" d="m44.0585,70.822c-.0383.0131-.0821.0293-.1188.0416-.0029.001-.0068.0024-.0097.0034.0031-.001.0068-.0024.0099-.0034.0367-.0123.0805-.0285.1187-.0416Z"/><polygon class="cls-3" points="41.2508 71.8661 41.2508 71.8661 41.2508 71.8661 41.2508 71.8661"/><path class="cls-3" d="m42.4033,70.7963c-.1829.0687-.3643.1367-.558.2113-.1541.0593-.3129.1213-.4724.1837-.11.043-.2234.0881-.3356.1324-.0094.0594-.0083.1202.0014.1823.025.1478.1032.2732.2118.3597.1633-.0644.3194-.1248.4775-.1864.0688-.0268.1396-.0548.2073-.0811.3351-.1298.6514-.2493.9528-.3608.0712-.0264.1389-.0509.2077-.076.0007-.0002.0014-.0005.0021-.0008.2987-.1091.5829-.2106.832-.2936.0029-.001.0068-.0024.0097-.0034.0367-.0123.0806-.0284.1188-.0416.5654-.1938,1.2843-.4734,2.0928-.8104-.3522.0655-.7031.1309-1.0455.1921-.7844.1433-1.5253.2739-2.1284.3798-.0245.0089-.0446.0154-.0695.0245-.1596.058-.3341.1242-.5047.1882Z"/><path class="cls-3" d="m56.1294,64.953c-.247.1103-.3796.3713-.3377.6267.1981-.0733.3872-.1448.5814-.217.0645-.024.1297-.0483.1932-.0723.1005-.0378.198-.076.2957-.1141-.108-.1736-.2971-.275-.4939-.275-.081,0-.1619.0168-.2387.0516Z"/><path class="cls-3" d="m43.9398,70.8636c-.0031.001-.0068.0024-.0099.0034-.0059.002-.014.0051-.02.0071.009-.0031.02-.0071.029-.0101.5401-.1801,1.2453-.4527,2.0339-.7785-.735.3031-1.3917.5576-1.9144.7365-.0381.0131-.082.0293-.1187.0416Z"/><path class="cls-3" d="m56.5663,65.2904c-.0068.0025-.0132.0051-.02.0077.105-.0394.2166-.0795.3184-.1188-.0001-.0002-.0002-.0004-.0003-.0005-.0954.0372-.2001.0747-.2982.1117Z"/><path class="cls-3" d="m41.6942,71.6926c.0453-.0177.0917-.036.1366-.0535-.0338.0131-.0687.0269-.1028.0402-.011.0043-.0228.009-.0338.0133Z"/><path class="cls-3" d="m56.5663,65.2904c-.0635.024-.1288.0483-.1932.0723.0579-.0215.1161-.0432.1733-.0646.0068-.0026.0132-.0052.02-.0077Z"/><path class="cls-3" d="m43.0979,71.1606c.2915-.1063.5681-.2048.8121-.2865.006-.002.014-.0051.02-.0071-.2491.0829-.5333.1844-.832.2936Z"/><path class="cls-3" d="m41.2504,71.8657s.0001.0002.0003.0004h0c.1515-.0599.2961-.116.4434-.1735.011-.0043.0228-.009.0338-.0133-.1581.0616-.3143.122-.4775.1864Z"/><path class="cls-3" d="m45.9729,70.0855c.0612-.0253.1189-.0484.1812-.0743-.0009.0002-.0018.0003-.0027.0005-.8085.3369-1.5274.6166-2.0928.8104.5228-.179,1.1794-.4334,1.9144-.7365Z"/><path class="cls-4" d="m41.4071,74.9623c-.1423-.1675-.2917-.3057-.4731-.409-.1773-.1019-.3867-.1535-.5695-.1535h-.0125c-.3392.007-.5611.1061-.8054.1731-.1465.0391-1.3371.3643-2.5696.8458-.6573.2582-1.3232.5569-1.8717.9003-.2749.173-.5206.3572-.7272.5736-.201.2149-.3796.4732-.4313.8137-.0405.2847-.0768.6141-.0768.9658,0,.603.1061,1.3023.5834,1.8815.2373.2861.5653.5248.9645.6797.4006.1563.8709.2344,1.4222.2344.2847,0,.5904-.0209.9226-.0642,3.4335-.4453,4.5781-.7648,4.6171-.7761l.2122-.06.12-.1842c.0433-.067.3531-.5793.3531-1.4586.0014-.6421-.1675-1.4697-.6909-2.4272-.4006-.7314-.6825-1.2004-.9672-1.5353Zm.3978,4.6031c-.4955.1116-1.7475.3629-4.1928.6797-.2875.0377-.5443.0544-.7719.0544-.4396,0-.7648-.0642-.9979-.1549-.3475-.141-.5081-.3182-.6323-.5583-.1201-.2415-.1731-.5653-.1717-.9142,0-.2679.0293-.5443.0656-.7997l.0195-.0432c.0321-.0587.127-.1717.2791-.2932.2652-.2135.6895-.455,1.1641-.6741.7133-.3322,1.5451-.6267,2.1899-.8347.3238-.1033.6016-.187.7983-.2429.1954-.0573.3057-.0865.3057-.0865l.014-.0042h.0014c.261-.0823.4299-.1256.469-.1256h.0098l.0641.0489c.148.1228.4606.5709.9296,1.4404.4382.8053.5471,1.4265.5485,1.8675,0,.2875-.0475.501-.0922.6406Z"/><path class="cls-3" d="m177.1231,54.727c.321-.0307.5569-.3154.5262-.6365-.0307-.321-.3154-.5569-.6364-.5276l-6.6859.632c-.2174.4515-.3837.8566-.5057,1.2209l7.3018-.6889Z"/><path class="cls-3" d="m168.8295,54.7243c.009-.024.0161-.0467.0255-.0709-.0096.0236-.019.0459-.0255.0709Z"/><path class="cls-3" d="m168.855,54.6534c-.0093.0242-.0164.0469-.0255.0709-.0167.0643-.0276.131-.021.2009.0308.321.3155.5569.6365.5262l.3762-.0355c.122-.3643.2883-.7695.5057-1.2209l-.9921.0938c-.2241.0204-.4003.1694-.4798.3646Z"/><path class="cls-3" d="m21.9988,81.4178l.0015-.0123c-.0008.0042-.006.0068-.0069.0109l.0054.0013Z"/><path class="cls-3" d="m21.9642,81.2359c.0161.0356.0232.072.0244.1097l.0144.0387-.0021.0166c-.0003.0016-.0003.003-.0006.0047l-.0015.0123-.0013.0056c.0038-.019.0601-.0881.1493-.1761-.0015,0-.004.0003-.0056.0003-.0807,0-.137-.0057-.177-.0117Z"/><path class="cls-3" d="m21.9529,81.1853c.0107.0154.0039.0341.0113.0506.04.0059.0963.0117.177.0117.0015,0,.004-.0003.0056-.0003.0746-.0737.1713-.1603.2889-.2468.3908-.2973.9785-.6462,1.5898-.9142.6085-.2693,1.2491-.455,1.7153-.4522.1815-.0014.3336.0266.4481.0754.3685.1536.9519.2945,1.647.4327,1.7842.3549,4.2583.6658,4.9244.7476-.0211-.0732-.0597-.131-.0758-.2084-.0284-.1343-.0532-.2665-.0799-.3998-.129-.0162-.2758-.0349-.4558-.0585-.783-.1005-1.989-.2665-3.1167-.4564-.6508-.1093-1.2786-.2302-1.778-.3485.0085.1241-.0421.2462-.1644.2938-.1494.0586-.3196-.0154-.3783-.1647-.0031-.0088-.0411-.1104-.0966-.3029-.0757-.0251-.1429-.0497-.1984-.0737-.2094-.0879-.4383-.1215-.6756-.1215-.8346.0056-1.8298.402-2.6658.8542-.4174.2276-.79.4704-1.0748.6951-.1423.1144-.2638.2233-.3601.3294-.0633.0735-.1136.1478-.1554.2308.0242-.0172.0602-.043.0607-.0432.1312-.0935.314-.0613.4075.0698Z"/><path class="cls-3" d="m44.8144,86.8669c-.0161-.0642.0029-.1251.0271-.1816-.2357-.2058-.5453-.3979-.9518-.5945-1.1306-.5443-2.7301-1.3818-4.0449-2.0825-.5109-.2722-.9757-.5222-1.3565-.728-.2472.0065-.5412.0151-.8713.0151-.108,0-.2273-.0051-.3412-.0074.4906.2676,4.2235,2.2997,6.36,3.3289.4829.2317.7858.4466.9533.6336.1675.1912.2135.335.2163.5207.0028.233-.1088.5485-.2889.9407-.1773.3936-.4118.8612-.6086,1.425-.663,1.9108-1.6456,3.5983-3.3065,4.3855-.2889.1382-.6434.2023-1.0398.2023-.8305.0014-1.8326-.2875-2.7245-.649-.8932-.3615-1.6832-.7928-2.1118-1.0566-1.0706-.6573-2.9352-2.0978-5.1364-3.5368-1.3915-.9142-1.8242-2.1871-1.8298-3.3512,0-.5569.1047-1.0831.2582-1.5088.0865-.2386.127-.4731.127-.6965,0-.642-.3322-1.1654-.7453-1.5772-.4146-.4159-.9226-.7426-1.3539-1.0203-.3657-.2275-.8318-.2708-1.3372-.275-.9283.0014-2.0223.1954-2.5612.1937-.0892.0881-.1455.1572-.1493.1761l-.0066-.0029c-.0162.0662-.0488.1297-.1091.1723,0,0-.0887.0637-.2176.1572.0577.0275.1144.0453.1686.0573.0977.0181.1968.0237.3085.0237.6379-.0027,1.7056-.194,2.5668-.1926.4606-.0042.8514.0641,1.0217.1815.4285.2735.903.5862,1.2562.9407.3545.3587.575.7355.575,1.1654-.0014.1522-.0279.3168-.0935.4997-.1745.4885-.2917,1.0761-.2917,1.7056-.0011.2581.0258.5247.0701.7931.0453.0165.0941.0253.1277.0642.103.1193.0883.2943-.0248.4002.2587.9415.8378,1.8773,1.9207,2.5822,2.183,1.4279,4.0281,2.8543,5.1503,3.5466.4564.2805,1.2659.723,2.1983,1.0999.9324.3754,1.9833.6895,2.9437.6909.4578,0,.8988-.0726,1.291-.2582.1615-.0771.3087-.1704.4581-.2611-.0019-.0084-.005-.0221-.005-.0221-.0363-.1578.0628-.3141.2206-.3503.0894-.0208.1712.0104.2381.0638,1.3176-.9966,2.132-2.5314,2.6963-4.1521.1815-.5221.4034-.9673.5876-1.3749.1828-.4089.3391-.7816.3419-1.1821.0021-.2375-.0888-.4714-.2277-.6917-.1545.0356-.3108-.0582-.3481-.2127Z"/><polygon class="cls-3" points="21.9934 81.4166 21.9909 81.4205 21.9975 81.4234 21.9988 81.4178 21.9934 81.4166"/><polygon class="cls-3" points="21.9934 81.4166 21.9988 81.4178 21.9934 81.4165 21.9934 81.4166"/><path class="cls-3" d="m22.0009,81.4009l.0021-.0166h-.0058c-.0005.0057.0046.011.0037.0166Z"/><path class="cls-3" d="m22.003,81.3843l-.0144-.0387c.0004.0133.01.0255.0086.0387h.0058Z"/><path class="cls-3" d="m38.4883,83.2803c-.5992-.3237-.9866-.5357-.9883-.5366-.1424-.0768-.3196-.0251-.3964.1172-.0781.1409-.0251.3182.1158.3964.0002.0001.0212.0116.0563.0307.114.0023.2332.0074.3412.0074.3301,0,.6241-.0086.8713-.0151Z"/><path class="cls-3" d="m32.7602,80.8896c.1093.0134.1751.0213.1757.0215.1605.0182.3057-.0963.3238-.2568.0195-.1591-.0949-.3043-.2554-.3239-.0009,0-.1545-.0182-.3998-.049.0267.1333.0515.2655.0799.3998.0161.0774.0547.1352.0758.2084Z"/><path class="cls-3" d="m27.0897,79.712c.1223-.0476.1729-.1697.1644-.2938-.25-.0592-.47-.1177-.6393-.1738.0555.1925.0935.2941.0966.3029.0587.1494.2289.2233.3783.1647Z"/><path class="cls-3" d="m47.3495,84.7433c.0126-.1605.1521-.2819.3127-.2708,0,0,.046.0042.134.007.0465.0022.1052.0043.1714.0059.0624-.5359.1105-.8946.2009-1.14.1075-.2875.261-.4829.6672-.8109.1256-.1005.1465-.2847.046-.4103-.1019-.1256-.2847-.1465-.4103-.0447-.4369.3461-.7048.656-.8514,1.0677-.1452.4076-.1829.864-.2694,1.5842-.0321.2819-.1731.5318-.3894.7593-.3224.3392-.8109.6058-1.2171.7747-.2024.0851-.3839.1479-.5136.1898l-.1522.0447-.0502.014c-.0929.0222-.1517.0903-.1865.1714.0654.0571.1276.1148.1816.1745.0626.0682.093.1462.1394.2198.0018-.0004.0032.0012.0051.0008.0139-.0042.6239-.1535,1.2757-.4996.3252-.1731.663-.3964.9407-.6867.2177-.2276.3971-.5054.4896-.8273-.1519-.0046-.2496-.0109-.2532-.0109-.1606-.0111-.282-.1521-.2708-.3126Z"/><path class="cls-3" d="m44.8415,86.6853c-.0242.0565-.0432.1174-.0271.1816.0373.1545.1935.2484.3481.2127-.0464-.0736-.0768-.1517-.1394-.2198-.054-.0597-.1161-.1174-.1816-.1745Z"/><path class="cls-3" d="m52.0651,79.9772c.3327.4694.4598.8675.4598,1.2126.0014.522-.2778.9924-.6588,1.432-.3782.4397-.8389.8207-1.1431,1.2073-.1787.2415-.6183.4341-1.1222.5318-.5024.1019-1.0524.127-1.4376.127-.0717,0-.1366-.001-.1957-.0025-.0118.1013-.0231.1976-.0364.313-.0107.0933-.0327.1816-.0576.2683.0823.0024.1759.0045.2897.0045.4089,0,.9896-.0237,1.5535-.1381.5611-.1173,1.1194-.3113,1.4669-.7454.2359-.3057.7062-.7034,1.125-1.1836.4159-.4815.7997-1.0761.8011-1.8145,0-.4179-.1324-.8629-.4159-1.3269-.1463.0266-.2943.0444-.4397.0745-.0655.0135-.1243.0263-.1891.0398Z"/><path class="cls-3" d="m52.0141,79.4213c-.127.0991-.1493.2833-.0488.4103.0396.0507.0651.0965.0999.1455.0648-.0135.1236-.0262.1891-.0398.1454-.0302.2934-.0479.4397-.0745-.0792-.1296-.1652-.2601-.2694-.3927-.1005-.127-.2833-.1493-.4104-.0488Z"/><path class="cls-3" d="m47.9675,84.4854c-.0662-.0016-.1249-.0037-.1714-.0059-.088-.0027-.134-.007-.134-.007-.1606-.0112-.3001.1103-.3127.2708-.0112.1605.1102.3015.2708.3126.0036,0,.1013.0063.2532.0109.0249-.0867.0469-.175.0576-.2683.0133-.1154.0247-.2117.0364-.313Z"/><path class="cls-3" d="m26.9617,86.9578c-.0028.0028-1.6917,1.4557-3.1362,2.9003-.7146.7133-1.0287,1.0692-1.2967,1.6163-.2652.5401-.4815,1.224-1.0887,2.6938-1.1599,2.8208-2.0825,4.726-2.0894,6.4734,0,.0768.0014.1535.0056.2289.0265.5318.0363,1.1543.0363,1.7531,0,1.2729-.0419,2.4355-.0419,2.4383-.0056.1619.1201.2974.282.3029.1605.0056.2959-.1215.3015-.2819,0-.0028.0419-1.1752.0419-2.4593,0-.6044-.0084-1.2338-.0363-1.781l-.0042-.201c-.0084-1.5269.871-3.4196,2.0448-6.2501.6113-1.4809.8402-2.1885,1.0733-2.6603.2289-.4648.4675-.7411,1.185-1.4599.7118-.7119,1.4893-1.4307,2.0866-1.9708.5988-.5402,1.0161-.8989,1.0175-.9003.0035-.0031.0025-.0084.0059-.0115-.0427-.1553-.0773-.3098-.1028-.4644-.0959-.0349-.2006-.0376-.2841.0335Z"/><path class="cls-3" d="m27.3734,86.9885c-.0336-.0389-.0824-.0477-.1277-.0642.0255.1547.0602.3091.1028.4644.1132-.1059.1279-.2809.0248-.4002Z"/><path class="cls-3" d="m29.4097,124.4781c-.1103-.1172-.1033-.3029.014-.4131.1172-.1103.3029-.1033.4131.014.0031.0037.0806.0892.1904.2206.9431-.8676,1.8629-1.9474,2.6967-2.8903.5276-.5974,1.0189-1.1348,1.4432-1.5131.4214-.3838.7913-.5764.9561-.5652l.0823.014h.0014c.2554.0893.4969.1075.709.1075.1689-.0014.321-.0112.4578-.0112.3378.0098.5555.0321.9003.3894.3405.3643.7551,1.1152,1.238,2.5361,1.4334,4.2193,2.109,5.9933,2.1104,5.9961.0572.1508.2261.2275.3768.1689.1508-.0573.2275-.2261.1703-.3769-.0014-.0014-.1675-.4383-.5151-1.4069-.3475-.9672-.8737-2.462-1.5898-4.5696-.4968-1.4558-.9225-2.2667-1.3622-2.7455-.4341-.4843-.9338-.5848-1.3287-.575-.1647,0-.3154.0098-.4578.0098-.1801,0-.3447-.0153-.5164-.074h.0014c-.0908-.0321-.1857-.0461-.2778-.0461-.469.0126-.8793.3071-1.3441.7119-.6909.6169-1.4739,1.5479-2.3085,2.4914-.8319.9435-1.714,1.8969-2.5556,2.5347-.4397.3336-.783.5709-1.0427.7173-.2596.1494-.4355.1982-.5081.194l-.113-.0558c-.074-.0809-.1703-.3252-.268-.6727-.1005-.3475-.2191-.7983-.4061-1.3148-.8068-2.2039-3.0902-4.5627-4.1929-5.6723-.4787-.4704-.9268-1.4963-1.2324-2.6115-.3099-1.1152-.4969-2.324-.5374-3.1823-.0405-.9128-.2303-1.5019-.6016-2.0546-.3685-.5527-.8821-1.0734-1.6121-1.9918-.6895-.8668-.8165-1.8787-.8165-3.0832,0-.6141.0335-1.2687.0335-1.9596,0-.6085-.0265-1.2437-.1256-1.9011-.2191-1.4348-.7942-3.0259-1.3413-4.6157-.5471-1.587-1.0649-3.174-1.1864-4.5571-.0293-.3267-.0419-.6351-.0419-.924,0-1.0942.1871-1.9233.409-2.4886.1116-.2833.2331-.4996.3405-.649.1033-.1479.2052-.2261.2206-.2289.0641-.032.3112-.1158.6071-.2205.4509-.1592,1.0468-.3755,1.5465-.6365.2498-.1312.4774-.2708.6574-.4355.1772-.1633.3322-.3643.3364-.6393,0-.0823-.0168-.1675-.0488-.247-.0531-.1271-.0712-.2331-.0712-.3308-.0014-.1968.0809-.3824.2066-.5918.1228-.2108.2875-.4271.3796-.7119-.0028-.0014.0321-.0698.1019-.1507.2415-.2973.8221-.783,1.3273-1.1738.254-.1968.4913-.3727.6644-.4997.0272-.0198.0406-.0294.0644-.0466-.0434-.0207-.0872-.0448-.1315-.088-.0684-.0641-.1172-.1786-.1145-.2778l.0098-.0934c.013-.0516.0358-.0906.0567-.1321-.1385.0987-.6146.4418-1.1327.8529-.3043.2415-.6155.501-.8668.7411-.127.1201-.2387.2359-.3294.3462-.0908.113-.1633.2135-.2079.3489-.0447.1535-.1801.3489-.3224.5848-.1396.2358-.2889.5276-.2903.8918,0,.1758.0363.3629.1158.5541l.0056.0237-.0516.1075c-.0796.1061-.2722.2554-.5206.3908-.3713.208-.8598.402-1.2869.5569-.2122.0781-.4103.1465-.5737.2037-.1647.0587-.2861.1005-.3782.1438-.1703.0823-.3043.2205-.4481.4173-.4201.5862-.8569,1.7363-.8597,3.4782,0,.3071.0139.6323.0447.9756.1326,1.4837.6685,3.1014,1.2157,4.6967.5499,1.5926,1.1124,3.1642,1.3162,4.5111.0935.6183.1187,1.2227.1187,1.8145,0,.6713-.0335,1.3259-.0335,1.9596,0,1.2339.1284,2.4216.9435,3.4475.7467.9365,1.2659,1.4697,1.5828,1.9498.314.4802.4606.9031.5052,1.7601.0433.9128.2359,2.1495.5583,3.3107.3266,1.1626.7649,2.2429,1.3818,2.8696,1.0887,1.0817,3.3331,3.4461,4.0574,5.4574.2359.6518.356,1.1962.4983,1.6149.0726.2094.1479.3922.2764.5485.1242.1577.3406.2708.5611.2652.2526-.0028.4955-.1019.7956-.2693.3-.1703.6574-.4202,1.1082-.7621.106-.0804.2107-.1832.3163-.2711-.0486-.0584-.0908-.1076-.1202-.141l-.0544-.0601Z"/><polygon class="cls-3" points="21.9934 81.4165 21.9654 81.4094 21.969 81.411 21.9934 81.4166 21.9934 81.4165"/><path class="cls-3" d="m21.9934,81.4165c.0009-.0042.0061-.0067.0069-.0109l.0006-.0047c.0009-.0056-.0043-.0109-.0037-.0166h-.145l.1168.0267-.0037-.0016.0281.0071Z"/><polygon class="cls-3" points="21.969 81.411 21.9909 81.4205 21.9934 81.4166 21.969 81.411"/><path class="cls-3" d="m21.9886,81.3456l-.0303-.0813-.0935.0768v-.0003s-.053.0435-.053.0435h.1854c.0014-.0132-.0082-.0254-.0086-.0387Z"/><path class="cls-3" d="m21.4182,81.3843c-.0027.0991.0461.2136.1145.2778.0443.0432.0881.0673.1315.088.1288-.0934.2176-.1572.2176-.1572.0604-.0426.093-.1061.1091-.1723l-.0219-.0095-.1168-.0267h-.0405l.0532-.0435.0487-.1141.0028.0013c.0058.0023.0289.0051.0477.0079-.0074-.0165-.0006-.0352-.0113-.0506-.0935-.1312-.2764-.1633-.4075-.0698-.0004.0002-.0365.026-.0607.0432-.0209.0415-.0437.0805-.0567.1321l-.0098.0934Z"/><path class="cls-3" d="m21.9886,81.3456c-.0012-.0377-.0084-.074-.0244-.1097-.0188-.0028-.0419-.0057-.0477-.0079l-.0028-.0013.0447.0377.0303.0813Z"/><path class="cls-3" d="m22.0009,81.4009l-.0006.0047c.0003-.0017.0003-.0031.0006-.0047Z"/><polygon class="cls-3" points="21.9137 81.2266 21.8649 81.3407 21.9583 81.2643 21.9137 81.2266"/><polygon class="cls-3" points="21.9583 81.2643 21.8649 81.3407 21.8648 81.341 21.9583 81.2643"/><path class="cls-3" d="m43.0196,102.022c.9491,3.8788,2.0713,8.2433,2.7985,10.2546.7048,1.9484,1.6567,5.9138,2.4761,9.7004.8221,3.7895,1.5172,7.4171,1.7266,8.7123.2289,1.4153.5262,2.8948.5248,3.9807,0,.462-.0558.8473-.1703,1.1125-.1201.2651-.2624.4061-.5108.4814-.2471.0712-.4565.194-.596.3783-.1396.1829-.194.4075-.1926.6281.007.5583.2861,1.1836.6266,1.9429.3448.7551.7635,1.6247,1.0887,2.5696.455,1.3288.5541,2.1299.6169,2.952.0629.8221.0851,1.6749.3867,3.0037.0558.2512.0823.4774.0823.684-.0014.4466-.1187.7913-.3182,1.0817-.2987.4341-.8137.7537-1.4516.9798-.6351.2275-1.3832.3587-2.1089.4424-.2178.0237-.4536.0377-.7007.0377-1.0566,0-2.3365-.2386-3.5131-.7495-1.178-.5109-2.2499-1.2911-2.9255-2.3588-.8151-1.2869-2.0629-2.8502-3.2772-4.3491-1.2115-1.4963-2.3909-2.9311-3.0497-3.9193-.6267-.9407-.6895-1.8507-.7426-2.9925-.0516-1.1347-.0963-2.4732-.7467-4.1202-.6323-1.5995-.9868-2.5835-1.2031-3.3358-.2163-.7523-.2973-1.2743-.381-1.9875-.0963-.7956-.5052-1.5493-.8835-2.1188-.2119-.3173-.4083-.5653-.548-.7326-.147.1353-.2949.2566-.4428.3796.1586.1909.4025.5038.6376.882.3085.4955.5932,1.1013.656,1.6582.0851.7216.1731,1.2952.4006,2.0811.2261.7858.5876,1.7838,1.2199,3.3889.6141,1.5563.6546,2.7901.7076,3.9318.0517,1.1347.1159,2.2067.8389,3.2897.6909,1.0343,1.8717,2.4663,3.0833,3.9639,1.2115,1.4935,2.4509,3.0511,3.2367,4.2933.7593,1.1948,1.9304,2.0364,3.1865,2.5822,1.259.5457,2.6044.797,3.7462.797.268,0,.5248-.014.7677-.0419.9993-.1159,2.0615-.3141,2.9101-.7635.4229-.2261.7956-.5192,1.0635-.9059.268-.3852.423-.8611.4216-1.4138,0-.2541-.0308-.5248-.0963-.8124-.2889-1.2841-.3085-2.0754-.3727-2.9199-.0642-.8417-.1759-1.7266-.6476-3.0972-.3392-.9868-.769-1.8759-1.1096-2.6213-.3433-.7411-.582-1.358-.575-1.7014.0013-.1353.0293-.2149.0739-.2749.0461-.0601.127-.1215.2932-.1703.4243-.1187.7272-.4313.8849-.8124.1633-.3824.2177-.8375.2177-1.3427-.0013-1.1836-.3071-2.67-.5317-4.0742-.2136-1.319-.9086-4.9423-1.7321-8.7416-.8235-3.802-1.7698-7.7617-2.497-9.7758-.7076-1.9527-1.8354-6.327-2.7803-10.1946-.4731-1.9359-.9016-3.7476-1.2115-5.0749-.3099-1.3288-.501-2.1705-.501-2.1718-.0156-.0675-.0607-.1167-.1108-.1567-.145.1097-.2959.2128-.4537.3086.0519.228.7963,3.4946,1.709,7.233Z"/><path class="cls-3" d="m41.5262,94.4165c-.1578.0363-.2569.1926-.2206.3503,0,0,.0031.0137.005.0221.1578-.0958.3087-.1989.4537-.3086-.0669-.0535-.1487-.0846-.2381-.0638Z"/><path class="cls-3" d="m29.8368,124.079c-.1103-.1172-.296-.1243-.4131-.014-.1172.1103-.1243.2959-.014.4131l.0544.0601c.0294.0334.0717.0826.1202.141.1479-.123.2958-.2443.4428-.3796-.1097-.1314-.1873-.217-.1904-.2206Z"/><path class="cls-3" d="m37.9779,135.1476l.0334-.0558.0112.0084c-.0056-.0027-.0531-.067-.0991-.1689-.1703-.3615-.3755-1.1641-.5262-2.1271-.1522-.9659-.2568-2.1061-.2568-3.1962-.0042-2.6994-1.3622-6.7066-1.3636-6.722-.0516-.1535-.2177-.2358-.3699-.1842-.1536.0516-.2359.2164-.1842.3699,0,0,.0823.2457.2079.6602.3768,1.238,1.1292,3.9848,1.1263,5.8761,0,1.3287.1494,2.7133.3517,3.8062.1019.5471.2177,1.0203.3392,1.3846.06.1829.1214.3378.1898.4677.0712.1284.1326.2358.2722.3265.1382.0824.3182.0377.4006-.1005.0811-.1338.0373-.3036-.0907-.3892l-.0419.0444Z"/><path class="cls-3" d="m37.9779,135.1476l.0419-.0444c-.0042-.0028-.004-.0087-.0084-.0114l-.0334.0558Z"/><path class="cls-3" d="m38.0198,135.1032l.0028-.003-.0112-.0084c.0044.0026.0042.0085.0084.0114Z"/><path class="cls-3" d="m33.2371,102.392c.5388.7272,1.0453,1.4404,1.4111,2.0839.3671.642.582,1.2185.5792,1.626l-.0154.1856c-.0279.1563-.0377.3267-.0377.5137.0014.8444.2205,2.0378.4355,3.3023.215,1.2604.4271,2.5864.4271,3.6276,0,.5109-.053.9518-.1661,1.2715-.1158.321-.2693.5025-.4843.5933-.1479.0614-.2191.233-.1563.381.0614.1494.2331.2206.3824.1577.4048-.1675.6658-.5234.8095-.9393.1465-.4173.1982-.9142.1982-1.4641,0-1.1166-.2191-2.4607-.4354-3.7267-.2164-1.2631-.4285-2.4551-.4271-3.2032,0-.1633.0098-.3043.0293-.4146.0168-.0934.0237-.1884.0237-.2847-.0028-.5946-.2693-1.2297-.6546-1.9136-.582-1.0231-1.4572-2.1509-2.2751-3.2451-.8179-1.0901-1.5771-2.1536-1.9177-2.9813-.2094-.5081-.2903-.9812-.2903-1.4167,0-.7607.2485-1.4069.4997-1.8633.1256-.2275.2512-.4076.3447-.529l.1103-.1368.0293-.0321.007-.0084c.1117-.1172.1061-.3015-.0098-.4131-.1172-.1116-.3015-.1074-.4131.0098-.0196.0251-1.1459,1.192-1.1516,2.973,0,.5067.0949,1.0622.3336,1.64.5192,1.2436,1.7321,2.7454,2.8138,4.2068Z"/><path class="cls-3" d="m39.5491,104.8391c1.0692,4.2194,2.2151,9.6572,3.1767,14.3665.9631,4.7134,1.7405,8.6871,2.0895,10.0284.9156,3.5215,2.6282,9.2231,3.2116,13.0656.1577,1.03.3364,1.6777.5345,2.0978.1005.2094.2052.3657.3336.4802.1257.1144.2862.1828.4425.1814.141,0,.261-.0488.3531-.1075.2708-.18.3867-.4341.402-.4522.074-.1423.0195-.3196-.1228-.3936-.1437-.0754-.3196-.0196-.395.1228l-.0042.007-.1215.1633-.0795.0642-.0321.0125-.053-.0334c-.0698-.0572-.194-.2386-.3155-.596-.1242-.3573-.2512-.8849-.3643-1.6344-.5959-3.9137-2.3141-9.6167-3.2242-13.1242-.4508-1.7321-1.6888-8.2419-3.0972-14.8829-.7034-3.3233-1.4515-6.6828-2.1675-9.5092-.7189-2.8292-1.3972-5.1112-1.9932-6.3283-.0712-.1451-.2457-.2051-.3908-.134s-.2051.247-.134.3908c.5541,1.1235,1.2394,3.4042,1.9512,6.2152Z"/></svg>