<?xml version="1.0" encoding="UTF-8"?><svg id="Layer_1" xmlns="http://www.w3.org/2000/svg" viewBox="0 0 200 200"><defs><style>.cls-1{fill:#f60;}.cls-1,.cls-2{stroke-width:0px;}.cls-2{fill:#231f20;}</style></defs><path class="cls-1" d="m51.1423,156.7225c.4756-3.4043,1.0322-13.4033,1.082-14.3115-1.8604-2.5508-2.665-6.9336-2.8848-11.2588-.2695.458-1.6182,2.6982-4.0625,5.957-2.7754,3.7002-5.0176,14.7041-5.4043,17.4873-.2666,1.9258-1.2881,4.5215-3.1748,6.2988.2334.7959,1.8779,5.8145,6.2637,5.9619,4.7832.1475,8.1895-3.7461,8.2236-3.7861.0254-.0303.0596-.0498.0957-.0586-.5605-2.5576-.2832-5.2549-.1387-6.29Z"/><path class="cls-1" d="m37.9314,127.7157c1.9033-3.6309,3.5479-6.7676,4.1055-7.9473,1.2588-2.666,2.1348-8.7373,2.2988-9.9434-.6768.0127-1.3057.0312-1.8955.0488-2.293.0674-4.0352.1182-5.6611-.2295,0,.0215-.0049.0439-.0146.0654-.082.1924-2.0459,4.7402-4.1367,6.916-2.1172,2.2031-4.1494,7.3623-2.6582,9.5605,1.3984,2.0605,6.2832,2.957,7.1387,3.0996.2764-.5273.5518-1.0518.8232-1.5703Z"/><path class="cls-1" d="m55.3552,146.8924c-.873-1.2959-1.7734-2.6309-2.79-4.0195-.123,2.1826-.625,10.7832-1.0596,13.9004-.2119,1.5146-.7188,6.6777,1.6475,9.5107.958,1.1475,2.2881,1.7627,3.9512,1.8291,5.7637.2217,10.2217-.5195,10.7646-12.1396-1.4521-.1221-3.0742-.5459-4.7178-1.0596-3.0225-.9434-5.1289-4.0674-7.7959-8.0215Z"/><path class="cls-1" d="m44.9841,136.8905c2.7207-3.6289,4.0752-5.9824,4.0879-6.0059.0508-.0889.165-.1162.25-.0684q.001.001.002.001c-.2402-5.4727.4395-10.7734,1.082-12.0586.9512-1.9004,2.2158-7.9375,2.4844-9.2549-2.8398.4043-5.3652.2676-8.1836.3145-.1465,1.0957-1.0195,7.3125-2.3398,10.1064-.5596,1.1875-2.2061,4.3262-4.1113,7.9609-.2871.5479-.5811,1.1084-.8789,1.6758-.0029.0078-.0068.0146-.0107.0205-2.6582,5.0752-5.6016,10.7285-6.376,12.5938-1.3877,3.3486-3.0762,13.667-2.832,15.2979.0312.208.0547.4521.0811.7188.1143,1.1895.2715,2.8174,1.3633,3.7031.6699.5439,1.6367.749,2.873.6123,1.5576-.1729,2.8408-.8486,3.8672-1.7793.0146-.0205.0332-.0381.0557-.0508,1.8506-1.7109,2.8516-4.252,3.1113-6.1318.3906-2.8037,2.6562-13.8984,5.4746-17.6553Z"/><path class="cls-1" d="m27.5651,83.5008c-.1973.6299-.2812,1.6748-.3701,2.7803-.0986,1.2207-.2002,2.4824-.4629,3.4863-.1582.6055-.459,1.1689-.75,1.7129-.6523,1.2217-1.2686,2.374-.2783,3.917.5859.9102,1.1719,1.7578,1.7383,2.5781.8916,1.2881,1.7324,2.5059,2.4521,3.79.2412.4316.4854.9229.7432,1.4443.9824,1.9844,2.2051,4.4531,4.2783,5.4238,2.1973,1.0303,4.1943.9727,7.5137.874.6514-.0186,1.3506-.0391,2.1094-.0527h.0059c.7695-.0146,1.5156-.0146,2.25-.0146,3.5967-.001,6.9941-.001,11.4912-1.7314,1.6768-.6445,3.2881-1.3184,4.71-1.9121,3.2773-1.3701,5.8652-2.4512,7.4053-2.4512,2.1738,0,6.0107-.3574,7.2871-2.749.3848-.7217.9619-1.5479,1.5732-2.4219,1.5703-2.2461,3.3496-4.792,3.1748-7.1836-.1836-2.5146.1152-3.6348.4951-5.0527.1426-.5342.291-1.0879.4277-1.7754.4971-2.4834.168-3.3984-1.9551-5.4395-1.8195-1.7509-1.6196-4.2241-1.4675-5.1438-2.3403-.5588-5.0524-.8132-6.0189-.8132h-10.126c-.374.0498-2.2676,1.5762-3.0439,3.1709-.335.6895-.3877,1.2383-.1543,1.6309.2979.5068.3359,1.0791.1123,1.7031-.6025,1.6807-3.0859,3.3926-4.5713,3.9326-.9531.3457-1.8027.3232-2.6006-.0635-1.4238-.6924-2.6172-2.5527-3.6465-5.6885-.2129-.6494-.3379-1.3086-.3906-1.9688-.5537,1.8086-1.3877,4.5049-1.7607,5.5723-.6777,1.9355-4.2334,2.7549-5.5342,2.7549-1.5938,0-2.793-2.4551-2.793-4.0469,0-.4738-.1208-1.4249-.2803-2.5421-.7743.3327-5.047,2.15-6.5303,2.3067-1.5762.1641-4.6494,2.7451-5.0332,3.9727Zm20.5928,3.373c.0908-.04.2002.0068.2383.0996.0322.0771,3.2373,7.7002,11.0703,8.8438.0996.0146.1689.1074.1543.207-.0127.0908-.0908.1562-.1807.1562-.0088,0-.0176,0-.0264-.002-8.0439-1.1729-11.3242-8.9873-11.3555-9.0664-.0391-.0938.0059-.2002.0996-.2383Zm-3.9199.499c.0938-.0303.1982.0215.2305.1172.0352.1064,3.6387,10.6904,17.5078,12.6777.0996.0137.1689.1064.1543.207-.0127.0908-.0908.1562-.1807.1562-.0088,0-.0176,0-.0264-.001-14.1016-2.0205-17.7676-12.8184-17.8027-12.9268-.0312-.0957.0215-.1992.1172-.2305Z"/><path class="cls-1" d="m81.6579,78.4598c2.1924,2.1084,2.5781,3.1875,2.0605,5.7754-.1396.6982-.2891,1.2578-.4336,1.7979-.3701,1.3848-.6631,2.4785-.4834,4.9307.1846,2.5225-1.7139,5.2383-3.2402,7.4199-.6045.8652-1.1758,1.6826-1.5508,2.3848-1.2979,2.4326-4.8545,2.9424-7.6094,2.9424-1.4668,0-4.0254,1.0693-7.2637,2.4229-1.4248.5957-3.0381,1.2695-4.7207,1.917-1.873.7207-3.5566,1.1455-5.1406,1.3955-.2041,1.0156-1.5215,7.4355-2.542,9.4766-1.1484,2.2959-2.4189,17.6113,1.8232,23.3223,0,.001.001.002.001.002,1.1465,1.543,2.1396,3.0156,3.1006,4.4404,2.627,3.8955,4.7021,6.9717,7.6016,7.877,4.1885,1.3105,8.2266,2.0283,9.3945-1.5547,1.1602-3.5576.5938-6.9082.0938-9.8643l-.1006-.5938c-.1768-1.0645-.2295-2.3027-.2891-3.7354-.1123-2.666-.2383-5.6865-1.2109-8.875-1.2383-4.0557-1.1299-6.666-1.042-7.5254-2.2246.752-5.4727,1.0576-9.8047,1.4648l-.8438.0801c-5.9951.5654-7.9375,7.8232-7.957,7.8965-.0244.0967-.1201.1611-.2227.1309-.0977-.0244-.1562-.125-.1309-.2227.0195-.0752,2.0273-7.5791,8.2754-8.1699l.8447-.0791c5.6074-.5273,9.6592-.9092,11.6133-2.3936.5967-.4531,1.3545-1.0586,2.1562-1.6992,2.0869-1.667,4.4531-3.5576,5.9014-4.3428,1.3311-.7197.918-1.915.0078-4.1406-.2588-.6328-.5264-1.2881-.7637-2-.1768-.5293-.3818-1.1006-.5889-1.6768-.9941-2.7646-1.5576-4.4805-1-4.9932.1992-.1855.5088-.1855.918.0039,1.2305.5635,4.083,3.8301,6.8418,6.9902,1.8467,2.1152,3.5918,4.1133,4.6689,5.0898,2.6006,2.3574,7.167,1.3027,9.3613.7979.5479-.127,1.2246-.1846,1.9414-.2461,1.5713-.1357,3.3525-.2891,4.0059-1.1748.2617-.3545.3291-.8047.2051-1.377-.207-.957-.5186-1.7275-.7686-2.3477-.3428-.8457-.5898-1.4561-.3506-1.9795.1729-.3779.5742-.6572,1.3027-.9053.8516-.292,1.333-.666,1.4727-1.1455.2246-.7715-.4795-1.7871-1.1182-2.585-1.3643-1.7061-4.5498-7.3359-4.9658-8.417-.3809-.9893-2.6396-3.1104-2.8643-3.3193-1.0947.3926-2.1045.7676-2.4785.9854l-.2275.1338c-1.2646.7432-5.1133,3.0039-7.0244,3.4023-1.0879.2275-3.3477,1.0117-5.1631,1.6719.9482,1.0664,5.167,5.9033,5.4746,7.8252.3115,1.9531,3.0645,6.3027,5.333,7.3105.0928.041.1338.1484.0928.2412s-.1494.1328-.2412.0928c-2.4062-1.0684-5.2148-5.5127-5.5459-7.5859-.2998-1.875-4.8135-6.9971-5.4834-7.749-1.293.4736-2.2803.8535-2.3047.8633-.0938.0352-.2002-.0098-.2363-.1055-.0361-.0938.0107-.2002.1055-.2363.2393-.0928,5.8945-2.2686,7.8945-2.6855,1.8516-.3867,5.6611-2.625,6.9131-3.3604l.2285-.1348c.4824-.2803,1.8203-.7578,3.2373-1.2637,1.293-.4609,3.0625-1.0918,3.2383-1.2871.4336-.5391,1.6992-2.4941-.2422-4.9766-.0272-.035-.0342-.0776-.0327-.1191-6.1917-3.0443-17.0378-8.8256-18.7778-9.962-.645-.4225-1.6221-.7701-2.7065-1.049-.1349.8773-.298,3.1976,1.3608,4.7931Zm10.5967,18.6396c-.0547-.0859-.0293-.1992.0557-.2529.0869-.0537.1982-.0303.2529.0557.0469.0742,4.6953,7.3682,6.335,9.0068,1.458,1.458,3.3984,4.7842,3.0352,6.1328-.0869.3213-.2969.5342-.6074.6162-.168.0439-.334.0645-.499.0645-1.4932,0-2.8096-1.6406-2.8711-1.7178-.0625-.0791-.0488-.1943.0303-.2568.0781-.0615.1943-.0498.2568.0303.0156.0186,1.5371,1.9092,2.9893,1.5264.1846-.0488.2949-.1621.3477-.3584.2998-1.1094-1.459-4.2969-2.9404-5.7773-1.668-1.668-6.1934-8.7686-6.3848-9.0693Z"/><path class="cls-2" d="m174.9382,49.7801c-.207.0352-20.7646,3.5127-23.5576,3.6777-1.1943.0713-2.8096.0225-4.6816-.0342-2.5078-.0732-5.3535-.1592-7.876.0342-4.0605.3154-13.8076-.4287-19.0273-3.6289-5.1064-3.1299-21.4053-12.7227-24.335-13.7549-.7012-.248-1.5684-.7793-2.5732-1.3945-3.0107-1.8447-7.1338-4.3701-12.3711-2.9648-5.3613,1.4375-8.1133,3.4248-11.0273,5.5293-.8506.6143-1.7305,1.249-2.6904,1.8809l-1.2285.8027c-4.6914,3.0596-11.1172,7.249-11.7588,10.1348-.0068.0312-.0098.0635-.0088.0947-1.8105,1.0469-2.7461,1.6494-2.9521,1.958-.0898.1348-.0752.3047.0225.4238-1.2061.3359-2.3701.9561-3.0508,2.1963-.9639,1.7588-2.6162,3.8594-3.9434,5.5479-.6133.7793-1.1621,1.4785-1.5557,2.0293-.041.0576-4.1094,5.7861-4.001,8.5947.0439,1.1426.3281,3.0654.6035,4.9248.0511.3453.1011.6838.149,1.0139.0082-.0035.0264-.0114.0277-.012.0938-.0371.2002.0029.2412.0947.04.0928-.002.2012-.0947.2412-.0149.0064-.0599.0258-.1201.0517.1595,1.1171.2803,2.0682.2803,2.5421,0,1.5918,1.1992,4.0469,2.793,4.0469,1.3008,0,4.8564-.8193,5.5342-2.7549.373-1.0674,1.207-3.7637,1.7607-5.5723.0527.6602.1777,1.3193.3906,1.9688,1.0293,3.1357,2.2227,4.9961,3.6465,5.6885.7979.3867,1.6475.4092,2.6006.0635,1.4854-.54,3.9688-2.252,4.5713-3.9326.2236-.624.1855-1.1963-.1123-1.7031-.2334-.3926-.1807-.9414.1543-1.6309.7764-1.5947,2.6699-3.1211,3.0439-3.1709h10.126c.9664,0,3.6785.2545,6.0189.8132.034-.2053.0657-.3351.072-.3601.0254-.0977.125-.1602.2227-.1309.0986.0244.1572.124.1328.2217-.0018.0064-.0334.1387-.0669.3563,1.0844.2789,2.0615.6264,2.7065,1.049,1.74,1.1364,12.5861,6.9177,18.7778,9.962.0018-.0522.0203-.1029.0649-.1378.0811-.0605.1953-.0479.2568.0322.1066.1362.1981.27.2873.4033,1.2042.5857,2.197,1.048,2.8494,1.3174.5176.2139,1.0938.4707,1.7236.75,3.4248,1.5225,8.2949,3.6865,13.8262,3.6865,1.1611,0,2.3525-.0957,3.5654-.3125,1.4521-.2598,2.9404-.5371,4.4395-.8154,6.6797-1.2422,13.5859-2.5264,18.3398-2.5264,5.7666,0,25.5273,2.5645,25.7266,2.5908.1982.0215.3838-.1162.4102-.3164.0254-.2002-.1152-.3838-.3164-.4102-.1992-.0254-20.0068-2.5967-25.8203-2.5967-4.8213,0-11.7617,1.291-18.4736,2.5391-1.4971.2783-2.9844.5547-4.4346.8145-6.7695,1.208-12.9033-1.5166-16.9658-3.3223-.6357-.2822-1.2188-.541-1.7412-.7568-3.915-1.6182-19.9717-10.1143-22.1152-11.5146-2.334-1.5283-8.1982-2.0684-9.4863-2.0684h-10.126c-.7656,0-2.6797,1.7666-3.5303,3.2598-.5986,1.0498-.7021,1.9648-.2988,2.6465.1855.3145.2031.6689.0537,1.084-.5078,1.417-2.749,2.9883-4.1318,3.4922-.7559.2744-1.4189.2617-2.0303-.0342-1.2197-.5928-2.3203-2.3623-3.2715-5.2588-1.6338-4.9775,2.5312-10.9678,3.9004-12.9355.1318-.1895.2412-.3477.3242-.4717.9482-1.4199,5.7568-4.458,8.6562-5.2031,2.8398-.7305,15.4082.0039,15.5361.0107.2021.0176.375-.1426.3867-.3438s-.1416-.375-.3438-.3867c-.5225-.0322-12.8125-.749-15.7607.0107-3.0879.7939-8.0498,3.959-9.084,5.5059-.0801.1211-.1875.2754-.3164.46-1.165,1.6748-3.7617,5.4082-4.3105,9.3984-.1113.0352-.2031.123-.2393.2432-.0166.0557-1.7109,5.6553-2.2871,7.3018-.4834,1.3828-3.4521,2.2646-4.8428,2.2646-1.0225,0-2.0605-1.9287-2.0605-3.3145,0-.7158-.2393-2.3301-.4922-4.0391-.2715-1.8398-.5527-3.7422-.5947-4.8447-.0732-1.8887,2.3311-5.9961,3.8643-8.1416.3887-.5439.9307-1.2334,1.5352-2.0029,1.3447-1.709,3.0176-3.8369,4.0107-5.6484,1.0107-1.8428,3.4736-2.082,5.1035-2.2402.5088-.0488.9482-.0918,1.2744-.1729.7695-.1934,2.8594-.5596,4.8799-.9141,1.4434-.2529,2.8506-.5,3.7217-.6738,2.0908-.417,8.3965-2.5166,8.6641-2.6055.1914-.0645.2949-.2715.2314-.4639-.0645-.1904-.2676-.2949-.4639-.2314-.0645.0225-6.5293,2.1748-8.5742,2.582-.8682.1738-2.2686.4189-3.7061.6719-2.0332.3564-4.1357.7246-4.9307.9238-.2734.0684-.6875.1084-1.167.1553-.5566.0537-1.2021.1172-1.8633.2441.75-.5859,3.4863-2.123,5.7305-3.3848,2.1094-1.1855,4.29-2.4111,5.374-3.1328,2.4512-1.6348,9.3193-4.374,9.3887-4.4014.1875-.0742.2793-.2871.2041-.4746-.0742-.1885-.2881-.2812-.4746-.2051-.2852.1133-7.0098,2.7949-9.5244,4.4717-1.0605.707-3.2285,1.9258-5.3262,3.1045-.8418.4727-1.5908.8955-2.251,1.2715,1.3467-2.6367,7.4531-6.6172,11.2139-9.0703l1.2314-.8047c.9736-.6406,1.8594-1.2803,2.7168-1.8994,2.8574-2.0635,5.5566-4.0127,10.7881-5.415,4.9346-1.3252,8.9014,1.1064,11.7988,2.8818,1.04.6367,1.9385,1.1875,2.7119,1.46,2.835,1,19.2666,10.668,24.1963,13.6904,5.3633,3.2861,15.3174,4.0508,19.4668,3.7344,2.4834-.1914,5.3076-.1064,7.7979-.0322,1.8896.0566,3.5225.1055,4.7461.0322,2.833-.167,22.7891-3.542,23.6377-3.6855.1992-.0342.333-.2227.2998-.4229-.0332-.1973-.2051-.3291-.4229-.2998Z"/><path class="cls-2" d="m59.4138,96.1786c.0088.002.0176.002.0264.002.0898,0,.168-.0654.1807-.1562.0146-.0996-.0547-.1924-.1543-.207-7.833-1.1436-11.0381-8.7666-11.0703-8.8438-.0381-.0928-.1475-.1396-.2383-.0996-.0938.0381-.1387.1445-.0996.2383.0312.0791,3.3115,7.8936,11.3555,9.0664Z"/><path class="cls-2" d="m101.8142,84.7967c1.9414,2.4824.6758,4.4375.2422,4.9766-.1758.1953-1.9453.8262-3.2383,1.2871-1.417.5059-2.7549.9834-3.2373,1.2637l-.2285.1348c-1.252.7354-5.0615,2.9736-6.9131,3.3604-2,.417-7.6553,2.5928-7.8945,2.6855-.0947.0361-.1416.1426-.1055.2363.0361.0957.1426.1406.2363.1055.0244-.0098,1.0117-.3896,2.3047-.8633.6699.752,5.1836,5.874,5.4834,7.749.3311,2.0732,3.1396,6.5176,5.5459,7.5859.0918.04.2002,0,.2412-.0928s0-.2002-.0928-.2412c-2.2686-1.0078-5.0215-5.3574-5.333-7.3105-.3076-1.9219-4.5264-6.7588-5.4746-7.8252,1.8154-.6602,4.0752-1.4443,5.1631-1.6719,1.9111-.3984,5.7598-2.6592,7.0244-3.4023l.2275-.1338c.374-.2178,1.3838-.5928,2.4785-.9854.2246.209,2.4834,2.3301,2.8643,3.3193.416,1.0811,3.6016,6.7109,4.9658,8.417.6387.7979,1.3428,1.8135,1.1182,2.585-.1396.4795-.6211.8535-1.4727,1.1455-.7285.248-1.1299.5273-1.3027.9053-.2393.5234.0078,1.1338.3506,1.9795.25.6201.5615,1.3906.7686,2.3477.124.5723.0566,1.0225-.2051,1.377-.6533.8857-2.4346,1.0391-4.0059,1.1748-.7168.0615-1.3936.1191-1.9414.2461-2.1943.5049-6.7607,1.5596-9.3613-.7979-1.0771-.9766-2.8223-2.9746-4.6689-5.0898-2.7588-3.1602-5.6113-6.4268-6.8418-6.9902-.4092-.1895-.7188-.1895-.918-.0039-.5576.5127.0059,2.2285,1,4.9932.207.5762.4121,1.1475.5889,1.6768.2373.7119.5049,1.3672.7637,2,.9102,2.2256,1.3232,3.4209-.0078,4.1406-1.4482.7852-3.8145,2.6758-5.9014,4.3428-.8018.6406-1.5596,1.2461-2.1562,1.6992-1.9541,1.4844-6.0059,1.8662-11.6133,2.3936l-.8447.0791c-6.248.5908-8.2559,8.0947-8.2754,8.1699-.0254.0977.0332.1982.1309.2227.1025.0303.1982-.0342.2227-.1309.0195-.0732,1.9619-7.3311,7.957-7.8965l.8438-.0801c4.332-.4072,7.5801-.7129,9.8047-1.4648-.0879.8594-.1963,3.4697,1.042,7.5254.9727,3.1885,1.0986,6.209,1.2109,8.875.0596,1.4326.1123,2.6709.2891,3.7354l.1006.5938c.5,2.9561,1.0664,6.3066-.0938,9.8643-1.168,3.583-5.2061,2.8652-9.3945,1.5547-2.8994-.9053-4.9746-3.9814-7.6016-7.877-.9609-1.4248-1.9541-2.8975-3.1006-4.4404,0,0-.001-.001-.001-.002-4.2422-5.7109-2.9717-21.0264-1.8232-23.3223,1.0205-2.041,2.3379-8.4609,2.542-9.4766,1.584-.25,3.2676-.6748,5.1406-1.3955,1.6826-.6475,3.2959-1.3213,4.7207-1.917,3.2383-1.3535,5.7969-2.4229,7.2637-2.4229,2.7549,0,6.3115-.5098,7.6094-2.9424.375-.7021.9463-1.5195,1.5508-2.3848,1.5264-2.1816,3.4248-4.8975,3.2402-7.4199-.1797-2.4521.1133-3.5459.4834-4.9307.1445-.54.2939-1.0996.4336-1.7979.5176-2.5879.1318-3.667-2.0605-5.7754-1.6589-1.5955-1.4957-3.9158-1.3608-4.7931-.1183-.0305-.2399-.0582-.3605-.087-.1522.9197-.3521,3.3929,1.4675,5.1438,2.123,2.041,2.4521,2.9561,1.9551,5.4395-.1367.6875-.2852,1.2412-.4277,1.7754-.3799,1.418-.6787,2.5381-.4951,5.0527.1748,2.3916-1.6045,4.9375-3.1748,7.1836-.6113.874-1.1885,1.7002-1.5732,2.4219-1.2764,2.3916-5.1133,2.749-7.2871,2.749-1.54,0-4.1279,1.0811-7.4053,2.4512-1.4219.5938-3.0332,1.2676-4.71,1.9121-4.4971,1.7305-7.8945,1.7305-11.4912,1.7314-.7344,0-1.4805,0-2.25.0146h-.0059c-.7588.0137-1.458.0342-2.1094.0527-3.3193.0986-5.3164.1562-7.5137-.874-2.0732-.9707-3.2959-3.4395-4.2783-5.4238-.2578-.5215-.502-1.0127-.7432-1.4443-.7197-1.2842-1.5605-2.502-2.4521-3.79-.5664-.8203-1.1523-1.668-1.7383-2.5781-.9902-1.543-.374-2.6953.2783-3.917.291-.5439.5918-1.1074.75-1.7129.2627-1.0039.3643-2.2656.4629-3.4863.0889-1.1055.1729-2.1504.3701-2.7803.3838-1.2275,3.457-3.8086,5.0332-3.9727,1.4833-.1567,5.756-1.974,6.5303-2.3067-.0176-.1235-.0356-.2485-.0541-.3757-.2982.1289-5.0126,2.1604-6.5143,2.3191-1.5928.165-4.8896,2.7725-5.3447,4.2266-.209.6689-.2949,1.7334-.3857,2.8604-.0967,1.2051-.1973,2.4502-.4512,3.4238-.1475.5635-.4385,1.1064-.7188,1.6328-.6738,1.2598-1.3701,2.5635-.2646,4.2861.5898.916,1.1777,1.7666,1.7461,2.5889.8857,1.2812,1.7227,2.4922,2.4336,3.7617.2373.4219.4785.9102.7344,1.4268,1.0078,2.0352,2.2627,4.5684,4.4512,5.5938.5586.2617,1.1084.4551,1.6689.5967,0,.001-.001.002-.001.0029-.0205.0469-2.0205,4.6797-4.0645,6.8066-2.1895,2.2783-4.334,7.6074-2.6973,10.0195,1.4424,2.126,6.1055,3.0391,7.2627,3.2363-2.7217,5.1953-5.5049,10.5459-6.2773,12.4072-1.4463,3.4883-3.1113,13.791-2.8555,15.4932.0303.2021.0527.4395.0781.6992.1211,1.2539.2861,2.9697,1.4971,3.9521.748.6084,1.8057.8408,3.1445.6914,1.5479-.1719,2.8369-.8135,3.8818-1.7061.3867,1.2158,2.1631,5.9102,6.5518,6.0576,4.5117.166,7.8486-3.1934,8.4248-3.8154.291,1.1387.7617,2.2305,1.498,3.1123,1.0273,1.2295,2.4463,1.8887,4.2178,1.959.4971.0205.9844.0332,1.4619.0332,5.248,0,9.1689-1.5596,9.6816-12.5137,2.2373.1035,4.0195-.5752,4.7686-2.875,1.1885-3.6426.5889-7.1895.1064-10.0381l-.0996-.5938c-.1738-1.042-.2256-2.2695-.2852-3.6904-.1064-2.5547-.2402-5.7334-1.2266-8.9668-1.3154-4.3096-1.0762-7.0078-1.0059-7.5566.627-.2402,1.1631-.5234,1.6094-.8633.6006-.4561,1.3604-1.0625,2.1641-1.7041,1.9727-1.5762,4.4277-3.5371,5.8467-4.3066,1.6826-.9102,1.0166-2.5391.1729-4.6016-.2568-.627-.5225-1.2764-.7549-1.9766-.1777-.5322-.3838-1.1064-.5928-1.6855-.6387-1.7783-1.5146-4.2148-1.0967-4.5996.1094-.0986.3721-.001.5186.0664,1.1592.5312,4.1123,3.9141,6.7188,6.8984,1.8535,2.124,3.6055,4.1299,4.6982,5.1211,2.7422,2.4863,7.4355,1.4014,9.7031.8799.5098-.1172,1.1738-.1748,1.877-.2354,1.6484-.1416,3.5176-.3027,4.2695-1.3213.3232-.4375.4131-1.001.2676-1.6729-.2129-.9873-.5312-1.7744-.7871-2.4062-.3076-.7607-.5303-1.3105-.3564-1.6904.126-.2744.4717-.501,1.0889-.7119.9717-.332,1.5303-.7871,1.7051-1.3896.2705-.9277-.4473-1.9941-1.1846-2.915-1.3496-1.6875-4.498-7.252-4.9092-8.3193-.3721-.9658-2.2549-2.7939-2.8184-3.3271.1025-.0371.207-.0742.3096-.1113,2.1689-.7734,3.2109-1.1641,3.4004-1.4023.4525-.5628,1.7236-2.5255.049-5.0274-.198-.0963-.4-.1949-.6091-.2977-.0015.0414.0055.0841.0327.1191ZM29.9694,126.1864c-1.4912-2.1982.541-7.3574,2.6582-9.5605,2.0908-2.1758,4.0547-6.7236,4.1367-6.916.0098-.0215.0146-.0439.0146-.0654,1.626.3477,3.3682.2969,5.6611.2295.5898-.0176,1.2188-.0361,1.8955-.0488-.1641,1.2061-1.04,7.2773-2.2988,9.9434-.5576,1.1797-2.2021,4.3164-4.1055,7.9473-.2715.5186-.5469,1.043-.8232,1.5703-.8555-.1426-5.7402-1.0391-7.1387-3.0996Zm6.373,34.542c-1.0264.9307-2.3096,1.6064-3.8672,1.7793-1.2363.1367-2.2031-.0684-2.873-.6123-1.0918-.8857-1.249-2.5137-1.3633-3.7031-.0264-.2666-.0498-.5107-.0811-.7188-.2441-1.6309,1.4443-11.9492,2.832-15.2979.7744-1.8652,3.7178-7.5186,6.376-12.5938.0039-.0059.0078-.0127.0107-.0205.2979-.5674.5918-1.1279.8789-1.6758,1.9053-3.6348,3.5518-6.7734,4.1113-7.9609,1.3203-2.7939,2.1934-9.0107,2.3398-10.1064,2.8184-.0469,5.3438.0898,8.1836-.3145-.2686,1.3174-1.5332,7.3545-2.4844,9.2549-.6426,1.2852-1.3223,6.5859-1.082,12.0586q-.001,0-.002-.001c-.085-.0479-.1992-.0205-.25.0684-.0127.0234-1.3672,2.377-4.0879,6.0059-2.8184,3.7568-5.084,14.8516-5.4746,17.6553-.2598,1.8799-1.2607,4.4209-3.1113,6.1318-.0225.0127-.041.0303-.0557.0508Zm14.8428,2.3428c-.0342.04-3.4404,3.9336-8.2236,3.7861-4.3857-.1475-6.0303-5.166-6.2637-5.9619,1.8867-1.7773,2.9082-4.373,3.1748-6.2988.3867-2.7832,2.6289-13.7871,5.4043-17.4873,2.4443-3.2588,3.793-5.499,4.0625-5.957.2197,4.3252,1.0244,8.708,2.8848,11.2588-.0498.9082-.6064,10.9072-1.082,14.3115-.1445,1.0352-.4219,3.7324.1387,6.29-.0361.0088-.0703.0283-.0957.0586Zm5.9189,5.042c-1.6631-.0664-2.9932-.6816-3.9512-1.8291-2.3662-2.833-1.8594-7.9961-1.6475-9.5107.4346-3.1172.9365-11.7178,1.0596-13.9004,1.0166,1.3887,1.917,2.7236,2.79,4.0195,2.667,3.9541,4.7734,7.0781,7.7959,8.0215,1.6436.5137,3.2656.9375,4.7178,1.0596-.543,11.6201-5.001,12.3613-10.7646,12.1396Z"/><path class="cls-2" d="m101.5798,111.9461c-.0527.1963-.1631.3096-.3477.3584-1.4521.3828-2.9736-1.5078-2.9893-1.5264-.0625-.0801-.1787-.0918-.2568-.0303-.0791.0625-.0928.1777-.0303.2568.0615.0771,1.3779,1.7178,2.8711,1.7178.165,0,.3311-.0205.499-.0645.3105-.082.5205-.2949.6074-.6162.3633-1.3486-1.5771-4.6748-3.0352-6.1328-1.6396-1.6387-6.2881-8.9326-6.335-9.0068-.0547-.0859-.166-.1094-.2529-.0557-.085.0537-.1104.167-.0557.2529.1914.3008,4.7168,7.4014,6.3848,9.0693,1.4814,1.4805,3.2402,4.668,2.9404,5.7773Z"/><path class="cls-2" d="m61.9235,100.5301c.0088.001.0176.001.0264.001.0898,0,.168-.0654.1807-.1562.0146-.1006-.0547-.1934-.1543-.207-13.8691-1.9873-17.4727-12.5713-17.5078-12.6777-.0322-.0957-.1367-.1475-.2305-.1172-.0957.0312-.1484.1348-.1172.2305.0352.1084,3.7012,10.9062,17.8027,12.9268Z"/><path class="cls-2" d="m39.2487,77.1698c.0928-.04.1348-.1484.0947-.2412-.041-.0918-.1475-.1318-.2412-.0947-.0013.0005-.0195.0084-.0277.012.0185.1271.0364.2522.0541.3757.0602-.0259.1052-.0453.1201-.0517Z"/><path class="cls-2" d="m80.364,73.3104c.0244-.0977-.0342-.1973-.1328-.2217-.0977-.0293-.1973.0332-.2227.1309-.0062.025-.038.1548-.072.3601.1206.0288.2422.0566.3605.087.0334-.2176.0651-.3499.0669-.3563Z"/><path class="cls-2" d="m101.8464,84.5399c-.0447.0349-.0631.0855-.0649.1378.2091.1028.4111.2015.6091.2977-.0892-.1333-.1807-.267-.2873-.4033-.0615-.0801-.1758-.0928-.2568-.0322Z"/></svg>