<?xml version="1.0" encoding="UTF-8"?><svg id="Layer_1" xmlns="http://www.w3.org/2000/svg" viewBox="0 0 200 200"><defs><style>.cls-1{opacity:.55;}.cls-1,.cls-2{fill:#f60;}.cls-1,.cls-2,.cls-3,.cls-4{stroke-width:0px;}.cls-3{fill:#231f20;}.cls-4{fill:#959091;}</style></defs><path class="cls-1" d="m111.4824,103.3505c-.1545,0-.3111-.0541-.4366-.1642l-.0078-.0077-.0425-.0348-.1778-.1353c-.1546-.114-.3845-.2704-.6608-.4231-.5507-.3092-1.2907-.599-2.0075-.599h-.0116c-.4599.002-.9101.1063-1.368.3942-.8695.5488-1.5245,1.0608-1.936,1.5805-.4096.5236-.6068,1.0298-.6125,1.7448,0,.456.0908,1.0009.3053,1.6597.4271,1.2985,1.1613,2.0289,2.0192,2.5293.8579.4966,1.8472.7227,2.6877.8772.1291.0255.2423.0891.3311.1734.543-.1633,1.0713-.3571,1.5472-.6201.5256-.2917.8521-.6859,1.0666-1.1805.2145-.4927.3014-1.0898.3014-1.7448,0-1.0376-.2203-2.2104-.4482-3.3079-.063-.3102-.1253-.6115-.1845-.9059.0034.017.0051.0313.0085.0483-.1121.0773-.2415.116-.3729.116Z"/><path class="cls-2" d="m123.0524,33.9629c-.0071-.0023-.014-.0048-.0211-.0071-.486-.1527-.9861-.2813-1.488-.4063.5096.1268,1.0176.2569,1.5091.4134Z"/><path class="cls-2" d="m64.0402,137.8435c-.7864-.854-1.0685-1.7448-1.1747-2.6355-.0773-.5971-.1044-1.2135-.199-1.9515-.029-.2145-.0406-.4271-.0406-.6377.0038-1.197.4091-2.275.9072-3.1671-1.006,1.0052-1.6926,2.3277-1.8206,4.2934-.0096.1642-.0154.3246-.0154.4791.0096,2.2105.9816,3.5456,2.4172,4.419.5295.3195,1.137.5475,1.7676.7364-.8057-.5542-1.3972-1.0485-1.8416-1.5361Z"/><path class="cls-2" d="m123.4317,63.4969c-.0111-.2902-.0308-.5823-.0628-.8778.0004.0035.0002.0068.0005.0104.0315.2918.053.5809.0621.8676-.0072-.0007-.0099-.0012-.0165-.0018.0056.1587.0251.3207.0251.4777-.0009,1.7074-.3112,3.2822-.6228,4.4348.1708-.1428.3492-.2835.5424-.4208.8811-.6183,1.9844-1.1864,3.163-1.7216,1.8867-.8581,3.9584-1.637,5.5555-2.3626-.2241.002-.4483.0038-.6705.0038-3.8702,0-7.3018-.3381-7.9761-.4096Z"/><path class="cls-1" d="m73.971,130.1279l-.2164.0059h-.0309l-.0328-.002c-.0058,0-.1392-.0058-.3749-.0135-.2396-.0058-.5797-.0135-.9816-.0135-.6743,0-1.5206.0212-2.3322.0908-.8096.0676-1.5921.1932-2.0926.3729-.3265.1082-.5043.2551-.512.2802-.2203.483-.4174,1.339-.4154,2.193,0,.5874.0908,1.1768.2898,1.6617.2029.4888.4947.8676.9294,1.1265.7941.4753,2.0655.7361,3.3813.7361h.0521c1.4163,0,2.8809-.2936,3.849-.7632.284-.1295.6299-.5024.8772-1.0376.2493-.5294.4038-1.198.4038-1.8453,0-.7555-.2067-1.4626-.626-1.9515-.4193-.4849-1.0531-.8328-2.168-.8405Z"/><path class="cls-2" d="m108.371,111.2262c.3121-.0535.6204-.1216.9247-.2034.0007-.0002.0015-.0004.0023-.0007-.3058.0822-.6158.1508-.9296.2045.0009-.0001.0018-.0002.0027-.0004Z"/><path class="cls-2" d="m122.4387,33.0813c.1523.0426.304.0864.4547.132.0065.002.0132.0034.0197.0053-.1569-.0474-.3151-.0927-.4744-.1373Z"/><path class="cls-2" d="m134.3305,63.4079c.0392-.0295.0839-.0527.1224-.0829l-.0004-.0004c-.0364.0286-.0787.0505-.1157.0785-.0021.0016-.0042.0032-.0063.0048Z"/><path class="cls-1" d="m133.5493,114.2084s-.1487,0-.4328.0057c-.2821.0059-.6956.0174-1.2134.0387-1.0356.0464-2.4868.1352-4.1446.3169-1.8609.2007-3.9824.5192-6.0557,1.0093,1.4297,1.1682,3.3474,2.2808,4.2437,2.7703.313.1739.4985.2686.4985.2686l-.3053.5912c-.0097-.0078-3.0626-1.5805-5.0837-3.2983-.0452-.0386-.0991-.0908-.147-.1337-.001.0002-.002.0005-.0031.0008-.0284-.0255-.063-.0608-.0924-.0876-.0031-.0028-.006-.0054-.0092-.0082.032.0294.0696.0677.1006.0953-.4541.1198-.9023.2454-1.3448.3826-.0002-.0001-.0003-.0002-.0005-.0004-.0007.0002-.0012.0004-.0019.0006.5275.4634,1.0394.9602,1.5192,1.4926l-.4927.4424c-.5496-.6113-1.1481-1.1743-1.7653-1.6945-.5979.2025-1.1765.4244-1.73.6674-3.306,1.4433-7.4139,3.5475-11.5469,5.358-4.1388,1.8085-8.2949,3.3369-11.8115,3.6036-.0174.0019-.0348.0019-.0502.0019-.1392,0-.2705-.0425-.3787-.1178l.0011-.0005c-.0012-.0009-.0019-.0023-.0031-.0032-1.4541.64-3.074.9932-4.7023.9932-.8772,0-1.7583-.1024-2.6143-.3149-1.741-.4386-6.2932-.9294-10.3392-.9294-2.5737-.002-4.9658.2048-6.2662.7072-.9135.3484-1.8435.6905-2.7256,1.0827-.016.1614-.0889.3189-.2216.4362l-.0019.0019-.0174.0155-.0754.0715c-.0676.0638-.1661.1623-.284.2879-.2358.2493-.5546.6164-.8695,1.0607-.6357.8907-1.2347,2.0926-1.2289,3.2963,0,.1566.0096.3111.0309.4695.114.8965.1372,1.5902.2261,2.1351.0908.5507.2164.941.5526,1.4066.2241.3092.5565.6512,1.0511,1.0511.6608.5314,1.6115,1.1574,2.9562,1.9341.114.0654.1978.1616.2558.2708.08.0034.1619.0148.2414.0169,1.8858.0522,4.5426.0792,7.0352.2241,2.4984.1488,4.8093.4,6.1135.9584.4.1758,1.1748.3691,2.1332.543.9603.1758,2.1158.342,3.3234.4927,2.4133.3014,5.0334.5391,6.7415.6821,1.14.0947,1.8704.1468,1.8723.1468l-.0463.6628c-.0058,0-6.6217-.4734-10.973-1.1555-1.4568-.2299-2.6452-.4734-3.3157-.7613-.6442-.2841-1.6959-.4945-2.9402-.6498l.0349.0397c-.0096.0058-4.2025,3.7117-7.2052,5.3232-2.9562,1.5844-13.8713,6.8323-21.1113,10.7141-2.736,1.4666-6.0188,2.8809-9.1006,4.3204-3.08,1.4357-5.9589,2.9003-7.8641,4.4344-1.2714,1.0201-2.0906,2.0655-2.2974,3.0973-.1411.6879-.2029,1.2714-.2029,1.768.0096,1.3873.4541,2.0597,1.1362,2.5408.6879.4772,1.6791.7091,2.7109.9757.1893.0503.4406.0773.7381.0773,1.4356.0039,3.8644-.6221,6.2062-1.4183,2.3457-.7941,4.6315-1.7602,5.8391-2.4113.5352-.2879,1.6945-.8154,3.2693-1.5033,1.5728-.6859,3.5552-1.5245,5.7039-2.4191,4.2992-1.7872,9.2669-3.791,12.9844-5.2092,2.4829-.9448,4.39-1.6269,5.2228-1.8221,1.5612-.3652,5.1609-1.337,8.7123-2.3843,3.5475-1.0472,7.0777-2.1833,8.4457-2.8442,1.48-.7091,4.3301-1.4357,7.2303-2.2394,2.8925-.7961,5.8295-1.6713,7.3347-2.5776,1.2308-.7342,3.7407-1.7776,6.5251-2.8596,2.7823-1.0801,5.8275-2.1891,8.0728-3.0162,1.4936-.5507,2.6413-.9797,3.0915-1.1805.9912-.4387,2.3419-.7671,3.7137-1.0705,1.3699-.2995,2.7592-.5699,3.7872-.8637,1.5187-.4328,3.1765-1.3796,3.8992-1.822.0339-.0209.0489-.0306.0786-.0491-.6553-.9006-1.2946-2.3484-2-4.8325-1.5438-5.4508-4.3668-9.0814-5.0353-9.889-.0966-.114-.145-.1681-.145-.1681l.4946-.4424c.0193.0232,3.5167,3.9417,5.3232,10.3179.6647,2.3457,1.2695,3.7214,1.8259,4.5272.5604.8057,1.0319,1.0531,1.5729,1.2289.3632.114.7651.1816,1.2134.3188.7613.2415,2.365.7999,3.65.7961.5777.0019,1.0685-.1121,1.3892-.3633.3169-.2512.5333-.6356.5372-1.3699.002-.5275-.1237-1.2212-.4232-2.1042-1.0492-3.0974-1.7293-4.9465-2.5118-6.3821-.7806-1.4337-1.6694-2.4752-3.1862-3.9939-1.5284-1.5303-2.2665-2.4191-2.678-3.3118-.4116-.8984-.4618-1.7216-.6705-3.0684-.2126-1.3815-.2667-2.3592-.4193-3.2789-.1463-.8706-.3865-1.7098-.935-2.8463-.0962.2481-.3373.4235-.6191.4235Zm-55.9864,21.123c-.3401.7149-.8212,1.3332-1.5032,1.6694-1.2308.5875-2.8462.8907-4.446.8927-1.4878-.0039-2.9582-.2589-4.0866-.9197-.7227-.4251-1.2018-1.0724-1.4839-1.7679-.284-.6956-.3884-1.4453-.3884-2.1641.0039-1.0492.2183-2.0288.5294-2.734.116-.2609.3015-.4502.4985-.5971.199-.1468.4174-.255.6531-.3458.4676-.1816,1.0086-.2975,1.5844-.3826,1.1516-.1682,2.4481-.2048,3.4142-.2048.7227,0,1.256.0212,1.3893.027.085-.0038.1681-.0058.2473-.0058h.0328c1.3912,0,2.4771.5101,3.1476,1.3101.6801.8038.941,1.8259.941,2.8113,0,.8521-.1913,1.6907-.5294,2.4114Zm5.6177,16.2343l-.5352-.3923c2.9389-3.9977,3.2191-5.9106,3.2171-6.4671,0-.116-.0116-.1758-.0135-.1836l.1063-.0231-.1044.0309.6376-.1874c.0097.0309.0386.1488.0386.3633-.0038.7748-.3652,2.7997-3.3466,6.8594Zm3.8215,1.048l-.628-.2125c.997-2.9659,1.2424-4.8208,1.2424-5.9184,0-.7902-.1275-1.1863-.1855-1.3273l-.029-.0638.1567-.0958.3978-.2694c.0425.0657.3246.5333.3246,1.7563-.002,1.1961-.2647,3.1167-1.2791,6.1309Zm31.1286-17.9252c-4.2026,4.3977-5.588,7.6824-5.7329,8.0457l-.0135.0329-.6222-.2319c.0135-.0367,1.3371-3.5437,5.8875-8.3066,4.0615-4.2547,4.2064-7.5047,4.2103-7.9877l-.002-.0502v-.0097l.6628-.0405.0019.1005c.0039.626-.2125,4.077-4.3918,8.4476Z"/><path class="cls-2" d="m122.4387,33.0813c.1592.0447.3175.09.4744.1373.0179.0054.0361.0103.0541.0157.0131.004.0267.0075.0399.0115l-.0541-.2048c-.0928-.0502-.199-.0773-.3091-.0773-.0599,0-.1179.0078-.1778.0232-.0019.002-.0637.0193-.1797.0502.0008.0002.0015.0004.0023.0007,0,0,.0001,0,.0002,0,.0504.0137.0997.0295.1499.0435Z"/><path class="cls-2" d="m107.9087,111.3009c-.3693.0471-.7372.0742-1.1009.0847.0001,0,.0003,0,.0004,0,.3635-.0104.7313-.0375,1.1003-.0845t.0001,0Z"/><path class="cls-2" d="m121.4693,115.3885c-.1118-.0958-.2374-.2112-.3704-.3379.074.0709.1385.1275.2063.189.0544.0492.114.1061.1641.1489Z"/><path class="cls-2" d="m98.8593,88.8901c.0019-1.0646-.0986-2.4152-.3807-3.6693-.2802-1.2559-.7555-2.4094-1.4434-3.0915-.4598-.4541-.9951-.713-1.6887-.7169-.1024,0-.2087.0058-.3169.0193-.5062.0561-.8927.228-1.2115.4889-.3149.2608-.5642.6202-.7555,1.0646-.3845.8888-.5217,2.1099-.5198,3.3948-.0019,2.2897.4154,4.7474.4174,6.0652-.0096,2.5254,1.6694,5.0121,3.5688,7.8505.2739.4111.5025.8174.7103,1.2208.1633-3.575,1.2513-9.3911,1.5214-11.0171.056-.3324.1005-.912.0986-1.6096Z"/><path class="cls-2" d="m64.292,128.7837c-.005.0038-.0095.0081-.0145.012-.0773.0587-.1443.128-.2192.1894.0798-.0654.1511-.1389.2337-.2014Z"/><path class="cls-2" d="m95.2983,124.7284c-.002.0018-.0043.0031-.0063.0049-.1181.1058-.2422.2029-.3716.2922-.0128.0089-.0239.0202-.0368.0289.1457-.0977.2831-.2078.4148-.326Z"/><path class="cls-2" d="m118.3266,116.011c.1493.1183.3004.2275.4478.3511-.0049-.0042-.0097-.0085-.0146-.0126-.1425-.1191-.2889-.2242-.4332-.3384Z"/><path class="cls-1" d="m106.4666,111.4035c.0387,0,.0791-.0058.118-.0062-.2346-.1014-.4691-.2173-.7017-.3509-1.0859-.6182-2.1022-1.6559-2.62-3.2712-.2454-.7555-.371-1.4357-.371-2.0694-.0058-.9932.3304-1.8646.9023-2.5718.57-.713,1.3448-1.2907,2.2645-1.8761l-.1874.1178.1874-.1178c.6763-.431,1.3989-.599,2.0675-.599h.0116c1.0627.0019,1.9921.3922,2.6645.7651.3517.1951.6357.3903.8289.5333,0,.0002,0,.0005.0001.0008.002.0014.0027.0021.0046.0035-.0369-.2822-.0639-.5535-.0645-.799,0-1.0228.067-2.0158.1709-2.9713l-.0165-.051c-.0193-.0619-.0541-.1565-.1082-.2821-.1063-.2551-.2859-.6377-.5815-1.14-.5913-1.0028-1.6404-2.4828-3.4645-4.3571-1.8008-1.8511-3.1901-3.1766-4.1542-4.4769-.9642-1.2985-1.4859-2.6007-1.482-4.2837l.002-.1971.6627.0155-.002.1816c.0058,1.5477.4483,2.6568,1.3545,3.8876.9062,1.2289,2.2858,2.5505,4.0963,4.4093,2.2138,2.2748,3.3226,3.9976,3.8639,5.0353.1371-.8489.3021-1.66.5128-2.3762.5082-1.7294.512-3.2616.5101-5.7889-.0039-1.314.3439-2.1119.7052-2.8268.3594-.7188.7207-1.3622.8734-2.5698.0637-.5368.1925-.9606.3508-1.3372l-.0026-.0142c-.0115-.0502-.0309-.1314-.0715-.2358-.0792-.2087-.2357-.5178-.5468-.8849-.6183-.7323-1.8569-1.7023-4.3359-2.5293-3.362-1.1264-7.124-3.4837-8.863-5.4971-.5758-.6762-.9525-1.3158-.9603-1.9554-.0058-.3748.1603-.7419.4714-.9951l.4251.5101c-.172.1507-.228.2822-.2319.485-.0097.344.2628.9062.7999,1.5226.5314.6183,1.3023,1.3004,2.2124,1.967,1.8201,1.3333,4.1987,2.6143,6.355,3.3331,2.5621.854,3.9185,1.8839,4.6354,2.7302.2483.2932.4144.5611.5306.7921.1471-.2061.3044-.3981.4757-.5749.6047-.628,1.3043-1.1748,2.0674-2.2936,1.5438-2.2626,2.906-5.6072,3.7388-8.3142.0035-.0111.0109-.0209.0146-.032l-.0038-.0016s.0174-.0386.0502-.1198c.0309-.0811.0773-.2028.1353-.3593.1121-.315.2628-.7671.4135-1.3255.3015-1.113.601-2.6375.601-4.2683,0-.4348-.0213-.8771-.0696-1.3216-.1372-1.2849-.5739-2.8597-.9796-4.3629-.4058-1.509-.7845-2.9351-.7864-4.0113,0-.4753.0696-.8965.2995-1.2366.2299-.3439.6434-.5391,1.1149-.5314l.1662.0078-.0522.6608-.114-.0038c-.3246.0078-.454.0908-.5661.2435-.1121.1584-.1874.454-.1855.8598-.002.9236.3574,2.3399.7651,3.8374.3646,1.3573.7524,2.7789.936,4.0521.0034-.0004.0063-.0024.0098-.0028.0195.1298.035.257.048.382.0002.0025.0009.0052.0012.0078-.0134-.1274-.0308-.2575-.049-.3899.0232-.0019.0463-.0038.0715-.0038.0232,0,.0483.002.0734.0038.002,0,.228.0251.6415.0657.4135.0386,1.0106.0889,1.741.1411,1.4607.1044,3.4528.2087,5.5667.2087.8231,0,1.6675-.0174,2.5042-.0541h.0289c.1169,0,.2234.0318.3191.0853.8506-.7321,1.5317-1.6688,2.0398-2.588.6069-1.0934.9784-2.139,1.1588-2.715-.9326.088-1.9557.1378-3.0661.1786-1.8433.0638-3.6693.8598-5.1319,1.7467-1.4647.8868-2.566,1.8588-2.9775,2.2414-.1179.1101-.1758.168-.1758.168l-.4695-.4695c.0097-.0096,1.0473-1.0472,2.651-2.11,1.6038-1.0607,3.7736-2.1563,6.0787-2.2413,2.2007-.0773,4.0364-.199,5.4236-.5603,1.3932-.3671,2.3013-.9429,2.7998-1.9342.0953-.1871.1236-.3105.1259-.3575-.0304-.0108-.0984-.0266-.2167-.0251-.2802-.0019-.7343.0715-1.2579.1508-.5256.0753-1.1284.1565-1.7487.1565-.9699,0-2.0095-.1971-2.819-.9507-1.2308-1.1477-1.8975-2.4442-2.4153-4.1658-.5198-1.7235-.912-3.8856-1.6212-6.8729-.6762-2.8654-2.9543-5.2054-6.0729-6.8535-.9028-.4766-1.8802-.8861-2.8998-1.2402l-.3886.1023-.0671-.255c-.0079-.0026-.0156-.0053-.0234-.0079-.0076.0107-.0192.0181-.0274.0283-.0853.107-.1975.194-.3392.2338-.0019,0-.3652.0986-.9777.2764-.6125.1758-1.4685.4308-2.4481.7361-1.9593.6086-4.4093,1.426-6.3415,2.2375-1.6172.6762-4.1523,2.3186-6.4362,3.9378-2.2916,1.6211-4.3629,3.2249-5.1667,3.8547-.2299.1797-.3555.2783-.3574.2783-.1218.0985-.2667.1448-.4116.1448-.1522,0-.3021-.0521-.4257-.1537-4.2354,4.5117-10.3283,11.0892-13.3829,14.0179-1.6501,1.5786-4.5986,4.5214-7.4448,7.497-2.8442,2.9736-5.5918,5.9956-6.813,7.6978-.3497.4812-.57.8695-.6221,1.0473-.2203.713-.3633,1.623-.3613,2.6452-.002,1.7698.425,3.8741,1.5921,5.9164.0599.1047.1159.2267.1746.3377h.0112c.0434.0821.0844.1699.1264.2547-.0419-.0848-.0828-.173-.126-.2549.1835.0135.3613.1005.483.257.0058.0057,1.1651,1.4994,2.4771,3.4355,1.3139,1.9438,2.7785,4.301,3.418,6.1599.5912,1.7351,1.5516,4.6238,2.8887,7.4641,1.3293,2.8423,3.0548,5.6208,5.043,7.1085.28.2125.3456.6044.1548.8941.0004.0002.0009.0005.0013.0008-.0006.0007-.0011.0015-.0017.0023.5468.3439,1.0744.6819,1.5357,1.0009.8019.5584,1.426,1.0473,1.7583,1.5148,1.0801,1.54,2.9196,3.5341,5.9976,4.7668,3.0742,1.2308,6.5057,1.2366,7.124,1.2366.1372,0,.7381-.0502,1.3873-.2048.6531-.1507,1.3757-.4135,1.7969-.7806.2841-.2473.4309-.5005.4328-.8289.0039-.3884-.2338-.9623-.9699-1.7197-1.6656-1.7178-2.7959-2.566-3.8084-3.335-1.0105-.767-1.9128-1.4665-3.0355-2.8287-1.1381-1.3835-1.7061-2.7688-2.2201-4.131-.514-1.368-.9777-2.7128-1.8955-4.0885-1.882-2.8346-3.6693-5.3909-3.6789-8.2196.0019-1.2038-.4174-3.7099-.4193-6.0652,0-.9989.0754-1.9747.2975-2.8364.2222-.8599.5952-1.6192,1.2212-2.1371.4154-.3439.939-.568,1.5593-.6356.1314-.0135.2628-.0213.3903-.0213.8714-.0038,1.6037.3517,2.1583.9101.5565.5565.9564,1.3042,1.2521,2.1293.5912,1.6501.7671,3.6268.7671,5.101,0,.7266-.0425,1.3255-.1082,1.7197-.2937,1.7563-1.5361,8.4225-1.5342,11.7247,0,.2364.0079.4519.0201.6486.2088.5187.4026,1.0323.5923,1.5347.5101,1.3546,1.0434,2.6472,2.1119,3.9437.7056.8565,1.3033,1.4254,1.9133,1.931.2977.2777.8331.5395,1.5146.7194.6976.1854,1.5419.2917,2.4327.2917Z"/><path class="cls-2" d="m120.2825,115.1778c-.0024-.0024-.0046-.0046-.0071-.007.0745.0753.1468.1467.2178.2161-.002-.002-.0041-.0041-.0061-.006-.0669-.0654-.1346-.1326-.2046-.2031Z"/><path class="cls-2" d="m94.1342,125.5039s-.0004.0002-.0006.0003c-.0109.0059-.0209.0131-.0319.019.0112-.006.0214-.0132.0325-.0193Z"/><path class="cls-2" d="m103.3215,42.3179c.0955-.1077.1952-.2112.2881-.321,1.5651-1.1613,3.4799-2.5293,5.273-3.6751,1.339-.8521,2.6046-1.5844,3.6557-2.0269,1.981-.8305,4.4213-1.6445,6.3908-2.2587.7824-.244,1.4965-.4592,2.0681-.6271-1.7435-.3934-3.5613-.6232-5.3722-.6591-.0947-.002-.1894-.0039-.2822-.0039-3.7156.0097-5.8101,1.4801-7.5201,3.4684-1.5026,1.7548-2.6567,3.9277-4.2196,5.7869.0018-.0013.0034-.0026.0051-.0038-.0919.1097-.1918.2132-.2868.3205Z"/><path class="cls-2" d="m123.1588,34.0361c.0082-.0103.0198-.0176.0274-.0283-.045-.0145-.0887-.0306-.1339-.0449-.4915-.1565-.9995-.2866-1.5091-.4134-.1366-.034-.2675-.0787-.405-.1106-.0466-.0108-.0942-.0194-.1411-.03-.5717.1679-1.2857.3831-2.0681.6271h4.2297Z"/><path class="cls-2" d="m86.6265,109.2882c-.1307-.0803-.2589-.1598-.3901-.2402.0662.0406.1309.0808.1971.1214.0438.0268.0865.0533.1302.0801.0211.0129.0417.0258.0628.0387Z"/><path class="cls-2" d="m78.5292,95.0223c-.4733-1.4028-1.6288-3.3795-2.7727-5.1127-.2744-.4173-.5487-.8231-.8115-1.2057-.0753-.2456-.1569-.4846-.2361-.7263.0048.0146.0092.0295.0139.0441.0742.2275.151.4518.2218.6825-.0038-.0056-.0075-.0107-.0114-.0163.3556,1.155.6741,2.335.9444,3.4193.4657,1.8684.8096,3.4606.9971,4.0132.3458,1.0414,1.8549,5.0334,3.364,7.7191.5004.8946,1.0067,1.6462,1.4395,2.0771.612.6157,1.8143,1.4241,3.1519,2.2615-1.3226-1.6111-2.4273-3.5827-3.3581-5.5544-1.3757-2.9293-2.3515-5.8701-2.9428-7.6013Z"/><path class="cls-2" d="m74.584,87.5935c-.0977-.287-.2007-.5618-.3041-.8374.1021.2728.204.5446.3007.8283.0011.0031.0023.0059.0034.0091Z"/><path class="cls-2" d="m112.6825,103.9568c.228,1.1071.4599,2.3128.4619,3.4432,0,.7111-.0928,1.397-.3555,2.0076-.2609.6105-.7014,1.14-1.3564,1.4994-.5236.2882-1.0933.4976-1.6755.673-.0016.0076-.0032.0157-.0048.0229-.0003.0001-.0007.0001-.001.0002-.0793.2899-.3439.4868-.6395.4868-.0406,0-.0811-.0039-.1218-.0117-.2241-.0405-.4656-.0889-.7188-.1468.0961-.0145.1895-.0463.2853-.0634-.0008.0002-.0015.0002-.0023.0004-.0955.0169-.1885.0485-.2841.063-.013-.0029-.0275-.0077-.0406-.0107-.593.0874-1.1865.1455-1.7629.1455-.7397,0-1.428-.0853-2.0673-.212.8217.6454,1.781,1.4586,3.0139,2.7322.7922.8193,1.1536,1.5265,1.1574,2.1815.0019.5565-.2841,1.0125-.6647,1.3332-.3826.3265-.8656.5507-1.3525.7169-.9816.3304-1.967.425-2.2646.427-.5783-.0018-3.4489-.0003-6.3612-.9256-.0747.5158-.2355,1.462-.5389,2.5167-.3651,1.2501-.9171,2.6398-1.8057,3.6014.0052-.001.0099-.0014.0151-.0024-.0539.0585-.1132.1099-.1696.1652-.005.0049-.0096.0106-.0146.0154.0618-.0599.1262-.1163.185-.1802,2.8345-.5488,6.1232-1.7834,9.4098-3.2249,4.0867-1.7911,8.1849-3.8895,11.5488-5.3599.3344-.1461.6766-.2844,1.0244-.4171-2.573-1.8718-5.1801-2.9832-5.9708-3.2935-.1584-.0638-.2415-.0928-.2415-.0928l.226-.6241c.018.009,3.4449,1.2486,6.734,3.7411.0021-.0007.0042-.0016.0063-.0023.0002.0001.0003.0002.0005.0004.4865-.1679.9807-.3223,1.4807-.4633.053.0561.0999.102.1516.156-.0049-.0051-.01-.0106-.015-.0157-.0471-.0493-.0895-.0906-.1376-.1417.0007-.0002.0015-.0004.0022-.0006-.9382-.9932-2.0541-2.288-3.0711-3.501-1.5206-1.8143-2.7921-3.4181-2.7939-3.42l.5197-.4135c.002.002.3169.4.8231,1.026s1.2038,1.4781,1.9593,2.3824c1.0988,1.3123,2.332,2.7356,3.2898,3.7266,2.4188-.6335,4.9164-1.0141,7.0703-1.2498,3.3832-.3671,5.9183-.3671,5.9338-.3671.0256,0,.0508.0022.0754.0048-.6243-.8309-1.5121-1.5274-2.4533-2.1806-1.198-.8367-2.4559-1.5999-3.25-2.6162-.7632-.9777-1.1245-1.8395-1.3429-2.5486-.2144-.7092-.3014-1.2598-.4772-1.6038-.0135-.0309-.0831-.116-.2048-.2067-.1198-.0928-.2879-.1971-.4869-.2995-.3961-.2087-.9178-.4232-1.4589-.6164-1.0801-.3865-2.2548-.7014-2.7457-.7999-1.1071-.2299-3.3427-1.1786-5.1647-2.2452-.9005-.5333-2.0231-.6647-2.8481-.6628-.3704,0-.6763.0249-.8772.0473-.0487.6567-.0808,1.326-.0808,2.0095-.002.6763.2203,1.6907.4482,2.794Z"/><path class="cls-1" d="m75.4334,140.7467c-1.5814,1.1038-4.2332,2.3698-6.9735,3.4954-2.7939,1.1478-5.6575,2.137-7.5201,2.6163-3.6152.9274-11.7208,4.502-15.5891,6.384-1.6115.7864-2.4442,1.7737-2.8925,2.6432-.3321.6483-.4449,1.2346-.4808,1.6163,5.9377-2.239,14.7252-6.4963,20.7655-8.535,2.058-.6917,3.7872-1.1314,5.0397-1.1382,1.7472-.8713,3.1494-1.5771,3.9452-2.0032,2.1563-1.1536,5.072-3.5302,6.3821-4.6392.1021-.0863.192-.163.2736-.2328-.6765-.0674-1.3885-.1224-2.1196-.1637-.2749-.0159-.5525-.0299-.8305-.0432Z"/><path class="cls-1" d="m56.0652,152.2807c-4.9561,2.0888-10.3199,4.5446-14.3157,6.017-2.8384,1.0453-4.4267,2.1737-5.2962,3.1553-.8676.9854-1.0338,1.8201-1.0356,2.3611-.0005.0869.0044.1649.0114.236.9494-.5959,1.9926-1.1784,3.1132-1.7504,3.8528-1.967,8.4746-3.8315,12.0743-5.7619,4.6334-2.4839,10.7585-5.5219,15.3476-7.8036-.876.1907-1.8923.4839-3.0107.8628-2.0385.6879-4.4112,1.6385-6.8883,2.6838Z"/><path class="cls-2" d="m93.0581,125.2915s.0009-.0004.0013-.0005c.072-.0318.1362-.0753.2073-.1086-.0717.0336-.136.0772-.2086.1092Z"/><path class="cls-2" d="m100.0698,44.8081c.0032-.0035.0064-.0067.0096-.0102v-.0024c-.0022.0047-.0076.0079-.0096.0126Z"/><polygon class="cls-3" points="142.7396 53.9713 142.7538 53.9566 142.7551 53.9539 142.7396 53.9713"/><polygon class="cls-3" points="142.7435 53.9771 142.7538 53.9566 142.7396 53.9713 142.7435 53.9771"/><path class="cls-3" d="m123.6654,34.1684c1.0197.3541,1.9971.7636,2.8998,1.2402,3.1186,1.6481,5.3967,3.9881,6.0729,6.8535.7092,2.9872,1.1014,5.1494,1.6212,6.8729.5178,1.7216,1.1844,3.0181,2.4153,4.1658.8096.7536,1.8491.9507,2.819.9507.6202,0,1.2231-.0812,1.7487-.1565.5236-.0793.9777-.1526,1.2579-.1508.1183-.0015.1863.0143.2167.0251.0002-.0035.0037-.0148.0035-.0173v-.0116l.027-.0058-.027.0116.0696-.027-.0361.0375-.0103.0204c-.0011-.0015-.0194-.0052-.0267-.0078-.0023.0469-.0306.1704-.1259.3575-.4985.9913-1.4066,1.5671-2.7998,1.9342-1.3873.3613-3.2229.483-5.4236.5603-2.3052.085-4.475,1.1806-6.0787,2.2413-1.6037,1.0627-2.6413,2.1003-2.651,2.11l.4695.4695s.058-.0579.1758-.168c.4116-.3826,1.5129-1.3546,2.9775-2.2414,1.4626-.8869,3.2886-1.6829,5.1319-1.7467,1.1104-.0408,2.1335-.0906,3.0661-.1786.0309-.0988.058-.1879.0778-.2567.0386-.1353.056-.2049.056-.2049l.6453.1584c-.0009.0037-.0206.0823-.0585.2146.6359-.0798,1.241-.1754,1.7799-.3145,1.482-.3826,2.6201-1.0666,3.2249-2.28.1237-.2492.1971-.4559.2009-.6724,0-.1082-.0232-.2222-.0811-.3246-.087-.1565-.2377-.2473-.3749-.2918-.1391-.0425-.2782-.0541-.429-.056-.3768.0019-.8347.0812-1.3545.1584-.5178.0754-1.0878.1488-1.652.1488-.8888,0-1.7332-.1797-2.3669-.7729-1.1303-1.0588-1.7254-2.2047-2.2317-3.8702-.5043-1.6636-.8984-3.8335-1.6095-6.8342-.742-3.1205-3.1882-5.5861-6.4111-7.2864-.6646-.351-1.3698-.6619-2.0947-.9481l-1.1143.2933Z"/><polygon class="cls-3" points="142.7204 53.9404 142.7204 53.9461 142.7474 53.9346 142.7204 53.9404"/><path class="cls-3" d="m122.8934,33.2133c.0275.0083.0554.0156.0827.024-.003-.0009-.0059-.0021-.0089-.003-.0179-.0054-.0362-.0103-.0541-.0157-.0065-.002-.0132-.0034-.0197-.0053Z"/><polygon class="cls-3" points="142.7551 53.9539 142.7538 53.9566 142.7899 53.9191 142.7204 53.9461 142.7396 53.9713 142.7551 53.9539"/><path class="cls-3" d="m86.5637,109.2495c.1093.067.2137.1326.3224.1995-.0875-.054-.1716-.1068-.2596-.1608-.0211-.0129-.0417-.0258-.0628-.0387Z"/><path class="cls-3" d="m74.7228,88.0217c-.0048-.0146-.0092-.0295-.0139-.0441-.0419-.1279-.0818-.2579-.1249-.3842-.001-.0032-.0023-.006-.0034-.0091.049.1437.0946.2916.1422.4373Z"/><path class="cls-3" d="m121.0136,33.4049s.0005-.0002.0008-.0002c-.0005-.0001-.0009-.0002-.0013-.0004-.0048.0014-.0109.0033-.0157.0047.0468.0106.0944.0192.1411.03-.0424-.0098-.0823-.0244-.1248-.0341Z"/><path class="cls-3" d="m123.1925,34.0013c-.0017.0024-.0045.004-.0063.0065.0078.0026.0155.0053.0234.0079l-.0074-.0284c-.0036.0039-.0073.0091-.0091.0128-.0526-.0169-.1089-.0276-.1618-.0442.0071.0023.014.0048.0211.0071.0457.0145.0947.0236.1401.0384Z"/><path class="cls-3" d="m123.0524,33.9629c.0451.0143.0889.0303.1339.0449.0018-.0024.0046-.004.0063-.0065-.0455-.0148-.0945-.0239-.1401-.0384Z"/><path class="cls-3" d="m142.7396,53.9713l-.0193-.0251v.0058c.0001.0025-.0034.0139-.0035.0173.0073.0026.0256.0063.0267.0078l-.0039-.0058Z"/><path class="cls-3" d="m107.8228,36.2143c1.71-1.9883,3.8046-3.4587,7.5201-3.4684.0928,0,.1874.002.2822.0039,1.8109.0359,3.6287.2657,5.3722.6591.0048-.0014.011-.0033.0157-.0047.0005.0001.0009.0002.0013.0004.5808-.1717,1.0165-.2944,1.2545-.3613-2.1237-.5795-4.3802-.9124-6.6302-.9583-.0986-.0019-.1971-.0019-.2957-.0019-3.903-.0096-6.2584,1.6192-8.0244,3.7001-1.7719,2.081-3.0239,4.5948-4.846,6.4883-.5752.599-1.2689,1.3322-2.0291,2.1398.435-.3419,1.6319-1.2767,3.1597-2.4103,1.5629-1.8592,2.717-4.032,4.2196-5.7869Z"/><path class="cls-3" d="m97.2169,102.3344c0,.2628.0077.5062.0251.7303l.6608-.0464c-.0007-.0106-.0004-.0247-.0011-.0354-.1943-.4827-.4072-.9706-.6624-1.4662-.0131.2866-.0221.5633-.0224.8177Z"/><path class="cls-3" d="m97.3211,117.8392l.6608.0696c-.0006.0038-.0182.161-.0543.4106,2.9124.9253,5.7829.9238,6.3612.9256.2976-.002,1.283-.0966,2.2646-.427.4869-.1662.9699-.3903,1.3525-.7169.3807-.3207.6666-.7767.6647-1.3332-.0038-.655-.3652-1.3622-1.1574-2.1815-1.2328-1.2736-2.1922-2.0867-3.0139-2.7322-.1772-.0351-.3698-.0569-.5354-.101-.7632-.2048-1.397-.4927-1.824-.8966l.4579-.4811c.0059.0057.0153.0111.0214.0168-.6099-.5056-1.2077-1.0745-1.9133-1.931-1.0685-1.2964-1.6017-2.5891-2.1119-3.9437-.1898-.5024-.3835-1.016-.5923-1.5347.0007.0107.0004.0248.0011.0354l-.6608.0464c-.0174-.2241-.0251-.4676-.0251-.7303.0003-.2544.0093-.5311.0224-.8177-.2078-.4034-.4363-.8097-.7103-1.2208-1.8994-2.8384-3.5784-5.3251-3.5688-7.8505-.002-1.3178-.4193-3.7756-.4174-6.0652-.0019-1.2849.1353-2.506.5198-3.3948.1913-.4445.4406-.8038.7555-1.0646.3188-.2609.7053-.4328,1.2115-.4889.1082-.0135.2145-.0193.3169-.0193.6937.0038,1.2289.2628,1.6887.7169.6879.6821,1.1632,1.8356,1.4434,3.0915.2821,1.254.3826,2.6046.3807,3.6693.0019.6975-.0425,1.2772-.0986,1.6096-.2701,1.626-1.3581,7.4421-1.5214,11.0171.2552.4956.4681.9835.6624,1.4662-.0123-.1967-.0201-.4122-.0201-.6486-.002-3.3022,1.2405-9.9683,1.5342-11.7247.0657-.3942.1082-.9931.1082-1.7197,0-1.4742-.1758-3.4509-.7671-5.101-.2957-.8251-.6956-1.5728-1.2521-2.1293-.5546-.5584-1.2869-.9139-2.1583-.9101-.1275,0-.2589.0078-.3903.0213-.6202.0676-1.1439.2917-1.5593.6356-.626.5179-.999,1.2772-1.2212,2.1371-.2222.8617-.2975,1.8375-.2975,2.8364.002,2.3553.4212,4.8615.4193,6.0652.0096,2.8287,1.7969,5.385,3.6789,8.2196.9178,1.3757,1.3815,2.7205,1.8955,4.0885.514,1.3622,1.082,2.7476,2.2201,4.131,1.1226,1.3622,2.025,2.0617,3.0355,2.8287,1.0125.769,2.1428,1.6172,3.8084,3.335.7361.7574.9738,1.3313.9699,1.7197-.0019.3284-.1487.5816-.4328.8289-.4212.3671-1.1439.6299-1.7969.7806-.6492.1546-1.2501.2048-1.3873.2048-.6183,0-4.0499-.0058-7.124-1.2366-3.078-1.2327-4.9174-3.2267-5.9976-4.7668-.3323-.4675-.9564-.9564-1.7583-1.5148-.4613-.3189-.9889-.657-1.5357-1.0009-.0088.0108-.0163.0217-.0253.0325-.1295.1739-.3284.2647-.5294.2647-.1391,0-.2802-.0425-.4-.1334-.7516-.5681-1.4453-1.2656-2.0868-2.0462.1044.0657.2106.1314.3169.199.4224.2614.8547.5258,1.2849.7895-.0662-.0406-.1309-.0807-.1971-.1214-.3643-.2233-.73-.4471-1.0875-.6683-.1063-.0676-.2125-.1333-.3169-.199-.0007-.0008-.0013-.0018-.002-.0026-1.3376-.8374-2.5399-1.6458-3.1519-2.2615-.4329-.4308-.9391-1.1825-1.4395-2.0771-1.509-2.6857-3.0181-6.6777-3.364-7.7191-.1874-.5526-.5314-2.1448-.9971-4.0132-.2703-1.0844-.5888-2.2643-.9444-3.4193-.4999-.7253-.9653-1.369-1.3276-1.8618-.0161-.0416-.0327-.0824-.0488-.1238.0165.042.033.0829.0492.1255-.0069-.0093-.0118-.0158-.0186-.025.6497,1.6956,1.2068,3.7051,1.645,5.4648.4676,1.8685.7999,3.4239,1.0106,4.0634.2435.7245.9912,2.736,1.9225,4.817.4656,1.0395.9777,2.0964,1.4936,3.0181.5178.9216,1.0356,1.7061,1.5496,2.22,1.0067,1.0009,3.0915,2.251,5.0817,3.4761.9951.6086,1.9612,1.2076,2.7399,1.7467.7787.5352,1.3757,1.0298,1.5941,1.3506,1.1265,1.6095,3.0683,3.7117,6.2932,5.0024.1233.0492.2474.093.3713.1384.0015-.011.0038-.0267.0052-.0371.0193-.1469.027-.2242.027-.2242Z"/><path class="cls-3" d="m72.8134,85.0368c.0386-.0579.087-.112.1469-.1565.1198-.0946.2628-.1391.4058-.1391h.0314c-.0587-.111-.1146-.233-.1746-.3377-1.1671-2.0424-1.5941-4.1466-1.5921-5.9164-.002-1.0222.1411-1.9323.3613-2.6452.0521-.1778.2724-.5661.6221-1.0473,1.2212-1.7022,3.9688-4.7242,6.813-7.6978,2.8461-2.9756,5.7947-5.9184,7.4448-7.497,3.0546-2.9287,9.1475-9.5063,13.3829-14.0179-.0002-.0002-.0004-.0002-.0006-.0004l-.0002.0002-.0006-.0006h0c-.0327-.0288-.0652-.0596-.0941-.096-.1566-.1971-.1836-.4598-.0889-.6763.0378-.0402.074-.0789.1112-.1188-.0173.0182-.0342.0363-.0516.0546-4.2482,4.5194-10.6041,11.3917-13.7179,14.376-1.8955,1.8163-5.4817,5.4025-8.6776,8.7954-1.5979,1.6945-3.0973,3.3427-4.2412,4.6991-.5719.6801-1.0549,1.285-1.4202,1.7912-.3632.512-.6086.9062-.7149,1.2404-.2435.7864-.3922,1.7564-.3922,2.8404,0,1.8742.4502,4.0924,1.681,6.2449.0553.0964.1079.2115.1622.3146.0019-.0029.0024-.0065.0043-.0094l-.0002-.0004Z"/><path class="cls-3" d="m122.9672,33.2343c-.0179-.0054-.0361-.0103-.0541-.0157.0179.0054.0362.0103.0541.0157Z"/><path class="cls-3" d="m121.5794,70.0475c-.0037.011-.0111.0209-.0146.032-.8328,2.707-2.195,6.0516-3.7388,8.3142-.7632,1.1188-1.4627,1.6656-2.0674,2.2936-.1713.1768-.3286.3688-.4757.5749.2192.4359.2507.7332.252.7711l-.6627.0425.1313-.0078-.1313.0116v-.0077l-.0071-.038c-.1583.3766-.287.8004-.3508,1.3372-.1527,1.2076-.514,1.851-.8734,2.5698-.3613.7149-.7091,1.5129-.7052,2.8268.0019,2.5273-.002,4.0595-.5101,5.7889-.2107.7162-.3757,1.5273-.5128,2.3762.3663.7021.4754,1.0938.4817,1.1187l-.6415.1681-.0058-.0135-.0048-.0147c-.1039.9555-.1709,1.9485-.1709,2.9713.0006.2454.0276.5167.0645.799.1714.1266.2727.2141.2841.2236.2763.2416.3033.6609.0637.9371-.0386.0444-.0811.0812-.1275.1121-.0466-.2263-.0751-.4275-.1136-.6421.0355.1984.0623.3851.1042.5938.0592.2944.1215.5956.1845.9059.228,1.0975.4482,2.2703.4482,3.3079,0,.655-.0869,1.2521-.3014,1.7448-.2145.4946-.541.8888-1.0666,1.1805-.476.2631-1.0043.4568-1.5472.6201.0056.0053.0133.0085.0187.014-.0926.028-.1913.0375-.2851.0627-.0008.0002-.0015.0005-.0023.0007.0948-.0255.1947-.0352.2883-.0634.1469.1489.2203.3652.1797.5875-.0023.0114-.0046.0221-.0068.0331.5822-.1755,1.1519-.3848,1.6755-.673.655-.3594,1.0956-.8889,1.3564-1.4994.2628-.6106.3555-1.2965.3555-2.0076-.002-1.1304-.2338-2.3361-.4619-3.4432-.228-1.1033-.4502-2.1177-.4482-2.794,0-.6835.0321-1.3528.0808-2.0095-.0736.0082-.1353.0161-.1778.0223l-.0773.0115-.116-.6531c.0074-.0021.1748-.0295.4365-.0541.1381-1.3766.3653-2.664.6807-3.7359.541-1.8414.5391-3.4587.5391-5.9763.0038-1.2057.2859-1.826.6337-2.5293.3497-.6975.7767-1.4724.939-2.7843.1584-1.2038.5179-1.7235,1.0666-2.307.5507-.5797,1.3217-1.1864,2.1351-2.3806,1.6041-2.3541,2.9692-5.7215,3.8179-8.4735-.0018.0044-.0062.0149-.0063.0155l-.6068-.2611Z"/><path class="cls-3" d="m132.0841,63.9026c-.002,0-.0038,0-.0057,0-1.5972.7256-3.6689,1.5045-5.5555,2.3626-1.1786.5352-2.2819,1.1033-3.163,1.7216-.1932.1373-.3716.2781-.5424.4208-.2639.9761-.5266,1.6437-.6054,1.8376.1782-.554.7213-1.1476,1.5304-1.7155,1.2328-.8695,3.0336-1.6791,4.8383-2.4327,1.8066-.7556,3.6152-1.4531,4.9059-2.1389.0526-.0281.0997-.0631.1512-.0926-.5193.019-1.0385.0324-1.5522.0363-.0005.0002-.0009.0004-.0014.0007Z"/><polygon class="cls-3" points="134.3012 62.9794 134.3004 62.9862 134.3035 62.9932 134.3008 62.9854 134.3012 62.9794"/><path class="cls-3" d="m134.3367,63.4031c-.1686.1271-.3451.2453-.5272.3574.0032-.002.0063-.0038.0095-.0058.1763-.1091.3477-.2236.5114-.3467.0021-.0016.0042-.0032.0063-.0048Z"/><path class="cls-3" d="m133.7887,62.9898c-.0303.0215-.0609.0424-.0916.0633.0307-.0209.0613-.0418.0916-.0633Z"/><path class="cls-3" d="m108.5542,111.8685c.0008-.0001.0015-.0002.0023-.0004.1608-.0285.3188-.0706.4786-.1062-.1606.0358-.3193.078-.4808.1066Z"/><path class="cls-3" d="m108.371,111.2262c-.0009.0002-.0018.0003-.0027.0004-.1545.0265-.3045.0545-.4596.0743t-.0001,0c.1559-.0199.307-.0482.4624-.0748Z"/><path class="cls-3" d="m136.2998,60.0223c-.5081.9192-1.1891,1.856-2.0398,2.588.0038.0021.0089.0012.0126.0034.0002-.0002.0005-.0003.0007-.0005.0232.0135.0444.027.0657.0425-.0001.0003,0,.0007-.0001.001.0026.002.0038.0055.0065.0075.083-.2198.2722-.3927.5215-.4285.0004,0,.2963-.0413.8063-.1116.6303-.7559,1.1264-1.5855,1.5076-2.351.5645-1.1376.8783-2.134.9985-2.5543-.239.03-.4683.0648-.7207.0886-.1804.576-.5519,1.6216-1.1588,2.715Z"/><path class="cls-3" d="m108.2295,111.9208c-.513-.1172-1.0712-.2757-1.6346-.5188.07-.0007.1429-.0144.2134-.0164-.0001,0-.0003,0-.0004,0-.0707.002-.1437.0157-.2139.0164-.0031-.0013-.0063-.0034-.0094-.0047-.0389.0004-.0793.0062-.118.0062-.8907,0-1.7351-.1063-2.4327-.2917-.6816-.1799-1.2169-.4417-1.5146-.7194.3271.2712.6574.5249,1.0102.7934.2745.2084.5634.4277.8699.6685.6392.1267,1.3275.212,2.0673.212.5764,0,1.1699-.0581,1.7629-.1455Z"/><path class="cls-3" d="m102.5192,110.3924c-.0061-.0057-.0155-.011-.0214-.0168l-.4579.4811c.4271.4039,1.0608.6918,1.824.8966.1656.044.3582.0659.5354.101-.3065-.2407-.5953-.4601-.8699-.6685-.3528-.2685-.6831-.5222-1.0102-.7934Z"/><path class="cls-3" d="m137.5925,56.8457s-.0174.0696-.056.2049c-.0198.0688-.0469.1579-.0778.2567.2524-.0238.4818-.0585.7207-.0886.0378-.1323.0576-.2109.0585-.2146l-.6453-.1584Z"/><path class="cls-3" d="m123.4151,63.4952c-.0638-.0067-.1016-.0117-.1033-.0117-.2917-.0309-.5178-.2493-.5758-.5217-.0038-.0522-.0096-.1063-.0135-.1584,0-.0174.0019-.0348.0038-.0522.0344-.3113.2789-.5475.5776-.5847-.1836-1.2732-.5714-2.6948-.936-4.0521-.4077-1.4975-.7671-2.9138-.7651-3.8374-.002-.4058.0734-.7014.1855-.8598.1121-.1526.2415-.2357.5661-.2435l.114.0038.0522-.6608-.1662-.0078c-.4714-.0077-.8849.1874-1.1149.5314-.2299.34-.2995.7612-.2995,1.2366.002,1.0762.3806,2.5023.7864,4.0113.4057,1.5032.8424,3.078.9796,4.3629.0483.4445.0696.8868.0696,1.3216,0,1.6308-.2995,3.1553-.601,4.2683-.1507.5584-.3014,1.0105-.4135,1.3255-.058.1565-.1044.2782-.1353.3593-.0328.0812-.0502.1198-.0502.1198l.0038.0016c.201-.611.6458-1.1447,1.238-1.6398.3116-1.1526.6219-2.7274.6228-4.4348,0-.157-.0195-.319-.0251-.4777Z"/><path class="cls-3" d="m122.1926,70.2931c.0037-.009.0096-.0236.0194-.0478-.0031.0096-.0106.0197-.0134.0293-.0018.006-.0042.0125-.006.0185Z"/><path class="cls-3" d="m123.3695,62.6294c-.0004-.0035-.0002-.0068-.0005-.0104-.0015-.0134-.0013-.0266-.0029-.04-.0009-.0083-.0024-.0172-.0032-.0256-.0003-.0025-.0009-.0052-.0012-.0078.0012.0109.0031.0226.0042.0335.0019.0169.0018.0333.0036.0502Z"/><path class="cls-3" d="m121.5794,70.0475l.6068.2611c.0002-.0006.0045-.0111.0063-.0155.0018-.006.0042-.0125.006-.0185.0029-.0096.0103-.0197.0134-.0293.0789-.1939.3416-.8615.6054-1.8376-.5922.4951-1.0369,1.0288-1.238,1.6398Z"/><path class="cls-3" d="m110.1169,77.7399c-2.1563-.7188-4.5349-1.9998-6.355-3.3331-.9101-.6666-1.681-1.3486-2.2124-1.967-.5372-.6164-.8096-1.1786-.7999-1.5226.0038-.2028.0599-.3343.2319-.485l-.4251-.5101c-.3111.2531-.4772.6202-.4714.9951.0078.6396.3845,1.2792.9603,1.9554,1.739,2.0134,5.501,4.3707,8.863,5.4971,2.479.827,3.7176,1.797,4.3359,2.5293.3111.3671.4676.6762.5468.8849.0406.1044.0599.1855.0715.2358l.0026.0142c.1202-.2862.2571-.5466.4178-.7717-.1161-.231-.2823-.4989-.5306-.7921-.7169-.8463-2.0732-1.8762-4.6354-2.7302Z"/><polygon class="cls-3" points="115.0034 82.068 114.8721 82.0758 114.8721 82.0796 115.0034 82.068"/><path class="cls-3" d="m114.8721,82.0719v.0038l.6627-.0425c-.0012-.0379-.0327-.3351-.252-.7711-.1607.2252-.2976.4855-.4178.7717l.0071.038Z"/><path class="cls-3" d="m103.9526,87.4883c-.9062-1.2308-1.3487-2.3399-1.3545-3.8876l.002-.1816-.6627-.0155-.002.1971c-.0039,1.683.5178,2.9852,1.482,4.2837.9642,1.3004,2.3534,2.6259,4.1542,4.4769,1.824,1.8743,2.8732,3.3543,3.4645,4.3571.2956.5023.4753.8849.5815,1.14.0541.1256.0889.2202.1082.2821l.0165.051c.047-.4322.1042-.8489.1704-1.2586-.5413-1.0377-1.6501-2.7605-3.8639-5.0353-1.8104-1.8588-3.1901-3.1804-4.0963-4.4093Z"/><path class="cls-3" d="m111.7471,98.2062l.0058.0135.6415-.1681c-.0063-.025-.1154-.4166-.4817-1.1187-.0662.4097-.1234.8264-.1704,1.2586l.0048.0147Z"/><path class="cls-3" d="m145.3259,138.0699h.2724c-.0671-.4751-.194-1.0059-.4011-1.6182-1.0511-3.0992-1.7371-4.9793-2.5563-6.4844-.8192-1.5071-1.7699-2.6182-3.3002-4.1465-1.5167-1.5149-2.1969-2.3593-2.5447-3.1205-.3517-.7555-.4058-1.509-.6164-2.8925-.2087-1.3487-.2609-2.3148-.4212-3.2867-.1604-.9699-.4386-1.9341-1.082-3.217-.6782-1.3526-1.9109-2.2975-3.1263-3.1437-1.2173-.8444-2.4307-1.6037-3.105-2.479-.7091-.912-1.0279-1.6791-1.2308-2.3361-.2048-.657-.2762-1.2076-.5197-1.7042-.0908-.1797-.23-.3111-.3942-.4387-.572-.4347-1.5593-.8251-2.5467-1.1593-.9835-.3304-1.9438-.5835-2.4152-.6802-.9545-.1913-3.2113-1.1342-4.96-2.166-1.0665-.626-2.2954-.7535-3.1862-.7554-.3268,0-.5988.0185-.8118.0386-.0225.2241-.0484.4443-.0654.6734.2009-.0224.5068-.0473.8772-.0473.825-.002,1.9476.1295,2.8481.6628,1.822,1.0666,4.0576,2.0153,5.1647,2.2452.4908.0985,1.6656.4135,2.7457.7999.541.1932,1.0627.4077,1.4589.6164.199.1024.3671.2067.4869.2995.1218.0908.1913.1758.2048.2067.1758.3439.2628.8946.4772,1.6038.2184.7091.5797,1.5709,1.3429,2.5486.7941,1.0163,2.052,1.7795,3.25,2.6162.9412.6532,1.829,1.3497,2.4533,2.1806.0049.0005.0103.0003.0152.001,0,0,0-.0001-.0001-.0002.3246.0444.5739.3227.5739.6589,0,.0811-.0156.1602-.0425.2334.0001.0002.0002.0004.0003.0006-.0007.002-.0023.0035-.0031.0054.5485,1.1365.7887,1.9757.935,2.8463.1526.9197.2067,1.8974.4193,3.2789.2087,1.3468.2589,2.1699.6705,3.0684.4116.8927,1.1497,1.7815,2.678,3.3118,1.5168,1.5187,2.4056,2.5602,3.1862,3.9939.7825,1.4356,1.4626,3.2847,2.5118,6.3821.2995.883.4251,1.5767.4232,2.1042-.0038.7343-.2203,1.1187-.5372,1.3699-.3207.2512-.8115.3652-1.3892.3633-1.285.0038-2.8887-.5546-3.65-.7961-.4482-.1371-.8502-.2048-1.2134-.3188-.541-.1758-1.0125-.4232-1.5729-1.2289-.5565-.8057-1.1613-2.1815-1.8259-4.5272-1.8066-6.3763-5.3039-10.2947-5.3232-10.3179l-.4946.4424s.0483.0541.145.1681c.6685.8077,3.4915,4.4382,5.0353,9.889.7054,2.4841,1.3447,3.9319,2,4.8325.1818-.113.3001-.1886.3001-.1886l.3652.5526c-.0024.0014-.0994.0639-.2348.149.0394.0403.0784.0873.1181.1246.4251.398.8676.6067,1.2888.738.4232.1315.8212.1971,1.2134.3208.7497.2299,2.394.8212,3.849.8251.655-.002,1.2946-.1199,1.795-.5024.3723-.2835.6315-.7128.7393-1.2685h-.2744v-1.3275Z"/><path class="cls-3" d="m112.06,99.1872l.0773-.0115c.0425-.0062.1042-.014.1778-.0223.017-.2291.0429-.4493.0654-.6734-.2617.0247-.429.052-.4365.0541l.116.6531Z"/><path class="cls-3" d="m67.6233,140.4382c.4301.0554.8594.0919,1.2834.1127.0048.0002.0095.0004.0142.0007-.4324-.0194-.8705-.0578-1.3092-.1149.0038.0005.0077.0011.0115.0016Z"/><path class="cls-3" d="m64.2992,128.7776c.1736-.1313.3712-.2399.5573-.3595-.186.1194-.3833.2277-.5573.3589-.0076.0057-.014.0129-.0216.0187.005-.0038.0095-.0081.0145-.012.0025-.0019.0046-.0043.0071-.0062Z"/><path class="cls-3" d="m64.9935,127.5433c-.0029.0016-.0054.0037-.0084.0054.3018-.1727.6174-.3239.9332-.4748-.313.1494-.6255.2991-.9249.4694Z"/><path class="cls-3" d="m94.3017,124.6399c.4163-.0496.8443-.1188,1.2814-.2025.8885-.9617,1.4406-2.3514,1.8057-3.6014.3033-1.0546.4642-2.0009.5389-2.5167-.2132-.0677-.426-.1409-.6388-.2189-.0718.5297-.2782,1.8103-.7135,3.1201-.4406,1.3409-1.1362,2.6915-2.0791,3.2964-.0674.044-.1398.0824-.2086.1249.0044-.0005.0086-.0007.013-.0013.0003-.0002.0007-.0004.001-.0005Z"/><path class="cls-3" d="m65.9415,139.4221c-.0214-.0145-.0386-.028-.0597-.0425-.6306-.1888-1.2381-.4169-1.7676-.7364-1.4356-.8734-2.4075-2.2085-2.4172-4.419,0-.1545.0058-.3149.0154-.4791.1279-1.9657.8146-3.2881,1.8206-4.2934.0044-.0079.0081-.017.0125-.0249.0005-.0005.0012-.001.0018-.0015.1774-.3156.364-.6067.5508-.8705.2437-.3445.4855-.6398.6995-.8856-.3062.1827-.6138.3635-.8979.5768-1.5458,1.1535-2.6935,2.8481-2.85,5.4565-.0115.1777-.0154.3517-.0154.5217-.0096,2.4211,1.14,4.0403,2.7379,4.989,1.1107.6664,2.4299,1.031,3.757,1.2119-.6064-.3607-1.1309-.6914-1.5863-1.0026-.0004-.0001-.001-.0002-.0014-.0003Z"/><path class="cls-3" d="m75.5318,140.6811c-.0302.0215-.0674.044-.0984.0657.278.0132.5556.0272.8305.0432.7311.0413,1.4432.0963,2.1196.1637.2691-.2302.4239-.3663.4239-.3663l.4037.4589c1.2443.1553,2.296.3657,2.9402.6498.6705.2879,1.8588.5314,3.3157.7613,4.3513.6821,10.9672,1.1555,10.973,1.1555l.0463-.6628c-.0019,0-.7323-.0521-1.8723-.1468-1.7081-.143-4.3282-.3807-6.7415-.6821-1.2076-.1508-2.363-.3169-3.3234-.4927-.9584-.1739-1.7332-.3671-2.1332-.543-1.3042-.5584-3.6151-.8096-6.1135-.9584-2.4926-.1449-5.1494-.1719-7.0352-.2241-.0795-.0021-.1614-.0135-.2414-.0169.0019.0035.0065.0052.0084.0088.0002,0,.0004,0,.0005,0,.0928.1931.0928.4269-.0212.626-.0072.0126-.0143.0234-.0215.0341.0858.0037.1727.0101.2579.0126,1.3939.0384,3.1947.0635,5.0328.1308.3151-.1911.6118-.3791.8625-.5584l.3865.541Z"/><path class="cls-3" d="m95.2983,124.7284c.0399-.0358.0769-.0752.1156-.1127.005-.0049.0096-.0106.0146-.0154-.0455.0445-.0895.0909-.1366.1331.002-.0018.0043-.0031.0063-.0049Z"/><path class="cls-3" d="m94.8588,125.0732c.0086-.0057.0161-.013.0247-.0187.0129-.0087.024-.02.0368-.0289-.0214.0148-.0405.033-.0622.0472-.234.1536-.4764.2965-.7245.4315.0002-.0001.0004-.0002.0006-.0003.2482-.1351.4906-.2781.7246-.4307Z"/><path class="cls-3" d="m66.6525,127.4457c-.2471.11-.479.2352-.7169.3545.2379-.1191.4699-.2444.7169-.3538,0,.0008-.0006.0016-.0007.0024.8821-.3922,1.8121-.7343,2.7256-1.0827,1.3004-.5024,3.6924-.7092,6.2662-.7072,4.046,0,8.5983.4908,10.3392.9294.856.2125,1.7371.3149,2.6143.3149,1.6283,0,3.2482-.3533,4.7023-.9932-.1583-.1103-.2656-.2861-.2828-.4932-.0019-.0348-.0019-.0696.002-.1044.0142-.0062.0266-.0151.0408-.0214-.0004.0002-.0009.0004-.0013.0005-.0141.0062-.0264.0151-.0406.0212.0001-.0018.0012-.0033.0013-.0051-1.3658.5987-2.8936.9322-4.4216.9308-.827,0-1.652-.0947-2.452-.2957-1.8549-.4598-6.3937-.9448-10.5015-.9468-2.6143.002-5.0276.1893-6.5038.7497-.9082.3485-1.8519.6932-2.765,1.0994.0396.0286.0776.0624.1135.1021.1256.1411.1797.3227.1642.4985Z"/><path class="cls-3" d="m97.9819,117.9087l-.6608-.0696s-.0078.0773-.027.2242c-.0014.0104-.0037.0261-.0052.0371.2128.0781.4256.1512.6388.2189.0361-.2496.0537-.4069.0543-.4106Z"/><path class="cls-3" d="m136.0877,138.6958c-.7227.4424-2.3805,1.3892-3.8992,1.822-1.028.2938-2.4172.5642-3.7872.8637-1.3718.3034-2.7225.6318-3.7137,1.0705-.4502.2009-1.5979.6298-3.0915,1.1805-2.2452.827-5.2904,1.936-8.0728,3.0162-2.7844,1.082-5.2943,2.1254-6.5251,2.8596-1.5052.9062-4.4421,1.7815-7.3347,2.5776-2.9002.8038-5.7502,1.5303-7.2303,2.2394-1.368.6608-4.8981,1.7969-8.4457,2.8442-3.5514,1.0473-7.1511,2.0192-8.7123,2.3843-.8328.1952-2.7399.8773-5.2228,1.8221-3.7175,1.4183-8.6852,3.422-12.9844,5.2092-2.1486.8947-4.131,1.7332-5.7039,2.4191-1.5748.6879-2.7341,1.2154-3.2693,1.5033-1.2076.6511-3.4934,1.6172-5.8391,2.4113-2.3419.7961-4.7706,1.4222-6.2062,1.4183-.2975,0-.5488-.027-.7381-.0773-1.0318-.2666-2.023-.4985-2.7109-.9757-.6821-.4811-1.1265-1.1535-1.1362-2.5408,0-.4966.0618-1.0801.2029-1.768.2068-1.0318,1.026-2.0771,2.2974-3.0973,1.9052-1.5342,4.7841-2.9988,7.8641-4.4344,3.0818-1.4395,6.3647-2.8538,9.1006-4.3204,7.24-3.8818,18.155-9.1297,21.1113-10.7141,3.0027-1.6115,7.1956-5.3174,7.2052-5.3232l-.0349-.0397c-.2678-.0334-.5433-.0643-.8276-.0927-.0816.0698-.1716.1465-.2736.2328-1.3101,1.1091-4.2258,3.4857-6.3821,4.6392-.7958.4261-2.198,1.1319-3.9452,2.0032.0069,0,.0157-.0018.0226-.0018h.0676l-.0174.6647-.0502-.0019c-.4957-.0009-1.122.0878-1.8411.2443-4.5891,2.2817-10.7142,5.3197-15.3476,7.8036-3.5997,1.9304-8.2216,3.7949-12.0743,5.7619-1.1205.572-2.1638,1.1545-3.1132,1.7504.0226.2291.0729.3723.0833.3959v.0019l-.6106.2609c-.0068-.0157-.045-.1104-.0811-.2682-.452.3025-.8833.608-1.2713.9198-1.3274,1.0704-2.2684,2.2046-2.5331,3.4838-.1469.7188-.2164,1.3467-.2164,1.8994-.0116,1.5341.57,2.5118,1.4241,3.0876.8463.5778,1.9032.8038,2.9196,1.0724.2686.0696.57.0966.9062.0966,1.6018-.0039,4.0383-.6473,6.4207-1.4511,2.3766-.8076,4.674-1.7757,5.9396-2.4558.655-.3536,2.4984-1.1786,4.9155-2.2104,3.6306-1.5535,8.5771-3.5901,12.9091-5.3058,2.166-.8579,4.1774-1.6365,5.7947-2.2336,1.6133-.597,2.8442-1.0144,3.3968-1.1439,1.5902-.371,5.186-1.3409,8.749-2.394,3.5688-1.053,7.0776-2.1757,8.5461-2.8809,1.3545-.655,4.2219-1.3989,7.1201-2.1989,2.9061-.8038,5.8469-1.6636,7.499-2.6472.7574-.454,2.1331-1.0782,3.7813-1.7563,2.4732-1.0221,5.5744-2.1776,8.2312-3.1572,2.6625-.9816,4.8653-1.7776,5.6033-2.1061.9005-.4,2.2278-.7304,3.5862-1.028,1.3622-.2995,2.7554-.5681,3.8277-.8753,1.782-.5116,3.6105-1.6084,4.2267-1.9957-.1447-.1481-.2881-.3174-.4305-.5131-.0297.0184-.0447.0281-.0786.0491Z"/><path class="cls-3" d="m136.4664,138.4581s-.1183.0756-.3001.1886c.1424.1957.2858.365.4305.5131.1354-.0851.2324-.1476.2348-.149l-.3652-.5526Z"/><path class="cls-3" d="m78.3836,140.9536c.2842.0283.5598.0592.8276.0927l-.4037-.4589s-.1548.1361-.4239.3663Z"/><polygon class="cls-3" points="85.9553 144.4996 85.849 144.5227 85.8509 144.5304 85.9553 144.4996"/><path class="cls-3" d="m86.4885,144.343l-.6376.1874-.0019-.0078c.0019.0078.0135.0676.0135.1836.002.5565-.2782,2.4694-3.2171,6.4671l.5352.3923c2.9814-4.0596,3.3427-6.0846,3.3466-6.8594,0-.2145-.0289-.3323-.0386-.3633Z"/><polygon class="cls-3" points="87.576 144.9853 87.5589 144.9958 87.406 145.0993 87.576 144.9853"/><path class="cls-3" d="m87.5589,144.9958l.0172-.0105-.17.114-.0038-.0078.029.0638c.058.141.1855.5371.1855,1.3273,0,1.0976-.2454,2.9525-1.2424,5.9184l.628.2125c1.0144-3.0142,1.2772-4.9348,1.2791-6.1309,0-1.223-.2821-1.6907-.3246-1.7563l-.3978.2694Z"/><polygon class="cls-3" points="87.5589 144.9958 87.4021 145.0915 87.406 145.0993 87.5589 144.9958"/><path class="cls-3" d="m121.8579,126.1808v.0097l.002.0502c-.0038.483-.1488,3.733-4.2103,7.9877-4.5504,4.7629-5.8739,8.2698-5.8875,8.3066l.6222.2319.0135-.0329c.1449-.3632,1.5303-3.6479,5.7329-8.0457,4.1793-4.3707,4.3958-7.8216,4.3918-8.4476l-.0019-.1005-.6628.0405Z"/><path class="cls-3" d="m120.2825,115.1778c-.1061-.1069-.2162-.2206-.3287-.3383.0049.0051.01.0106.015.0157.1047.1094.2075.2155.3066.3156.0024.0024.0046.0046.0071.007Z"/><path class="cls-3" d="m121.4856,115.405c.0634.0528.1285.1071.1937.1603-.0651-.0531-.1291-.1061-.1927-.1609-.0052-.0044-.0121-.0114-.0173-.0158-.05-.0427-.1097-.0997-.1641-.1489.0593.0538.1263.1193.1804.1653Z"/><path class="cls-3" d="m121.6981,115.5809c-.2637.0635-.5274.1288-.7891.1962.048.0429.1018.0952.147.1337,2.0211,1.7178,5.074,3.2905,5.0837,3.2983l.3053-.5912s-.1855-.0947-.4985-.2686c-.8963-.4895-2.814-1.6021-4.2437-2.7703-.0018.0004-.0037.0008-.0056.0012.0003.0002.0005.0004.0009.0007Z"/><path class="cls-3" d="m120.4932,115.3869c.1083.106.212.2043.3112.2951.0031.0028.0061.0054.0092.0082-.1037-.095-.2126-.1981-.3265-.3094.002.002.0041.0041.0061.006Z"/><path class="cls-3" d="m120.5437,114.4982s.0011-.0002.0016-.0004c-.9578-.991-2.191-2.4143-3.2898-3.7266-.7555-.9044-1.4531-1.7564-1.9593-2.3824s-.8212-1.024-.8231-1.026l-.5197.4135c.0019.002,1.2733,1.6057,2.7939,3.42,1.017,1.213,2.1329,2.5078,3.0711,3.501.2407-.0694.4833-.1348.726-.1984l-.0007-.0007Z"/><path class="cls-3" d="m117.588,115.432c.2446-.0936.4911-.1816.7416-.2676-3.2891-2.4925-6.716-3.7321-6.734-3.7411l-.226.6241s.0831.029.2415.0928c.7908.3103,3.3978,1.4218,5.9708,3.2935.0018-.0007.0036-.0015.0054-.0022.0002.0002.0004.0004.0007.0005Z"/><path class="cls-3" d="m118.7598,116.3495c.0049.0041.0096.0085.0146.0126.0157.0131.032.0242.0477.0374-.001.0004-.0021.0008-.0031.0012.6172.5202,1.2158,1.0833,1.7653,1.6945l.4927-.4424c-.4797-.5323-.9917-1.0291-1.5192-1.4926-.2482.0771-.4944.1558-.7349.2386-.0207-.0175-.0423-.0319-.063-.0493Z"/><path class="cls-3" d="m35.4177,163.8141c.0019-.541.1681-1.3757,1.0356-2.3611.8695-.9816,2.4578-2.11,5.2962-3.1553,3.9958-1.4724,9.3596-3.9282,14.3157-6.017,2.4771-1.0453,4.8499-1.9959,6.8883-2.6838,1.1184-.3788,2.1347-.6721,3.0107-.8628.6406-.3185,1.2463-.62,1.8185-.9053-1.2525.0068-2.9817.4465-5.0397,1.1382-6.0403,2.0386-14.8278,6.296-20.7655,8.535-.0121.1291-.0158.2354-.0158.312l.002.1101.002.029-.6608.0657c-.002-.0097-.0077-.0812-.0077-.2048,0-.0134.0023-.0375.0025-.0521-2.7658,1.0471-4.3986,2.186-5.3428,3.2524-.97,1.0917-1.2057,2.1138-1.2037,2.7997,0,.2621.0328.4738.0677.6263.1959-.1311.4019-.2608.6084-.3904-.007-.071-.0119-.1491-.0114-.236Z"/><path class="cls-3" d="m67.8053,148.4898l.0502.0019.0174-.6647h-.0676c-.0069,0-.0157.0017-.0226.0018-.5721.2853-1.1779.5868-1.8185.9053.7191-.1565,1.3455-.2452,1.8411-.2443Z"/><path class="cls-3" d="m35.5123,164.4478v-.0019c-.0103-.0236-.0607-.1668-.0833-.3959-.2065.1296-.4125.2593-.6084.3904.036.1579.0742.2526.0811.2682l.6106-.2609Z"/><path class="cls-3" d="m41.9774,157.5019c.0359-.3818.1487-.968.4808-1.6163.4483-.8695,1.2811-1.8568,2.8925-2.6432,3.8683-1.882,11.9739-5.4566,15.5891-6.384,1.8627-.4792,4.7262-1.4685,7.5201-2.6163,2.7403-1.1256,5.3921-2.3916,6.9735-3.4954-.3832-.0182-.7673-.0342-1.1506-.0483-1.5425.9355-3.7785,1.9875-6.076,2.9293-2.7669,1.138-5.6208,2.1215-7.4332,2.5872-3.7369.9642-11.8077,4.533-15.7126,6.4304-1.7313.8405-2.6877,1.9457-3.192,2.937-.4902.9544-.5646,1.7817-.5694,2.1796.0756-.0286.1427-.0579.22-.0864.1479-.0545.3062-.1163.4579-.1735Z"/><path class="cls-3" d="m75.5318,140.6811l-.3865-.541c-.2508.1793-.5474.3673-.8625.5584.3833.014.7674.0301,1.1506.0483.031-.0217.0682-.0442.0984-.0657Z"/><path class="cls-3" d="m41.3047,158.0188l.6608-.0657-.002-.029-.002-.1101c0-.0767.0037-.1829.0158-.312-.1517.0572-.31.119-.4579.1735-.0773.0285-.1444.0578-.22.0864-.0002.0145-.0025.0387-.0025.0521,0,.1237.0057.1951.0077.2048Z"/><path class="cls-3" d="m134.5983,63.2001c-.0018.0784-.0098.1557-.0357.2256.1352.1005.308.1508.4879.1259.0038,0,1.4395-.2009,3.6924-.5043,3.3813-.4559,8.5925-1.1458,13.5157-1.7332,4.9194-.5893,9.5721-1.0763,11.7594-1.1342.3652-.0097.655-.313.6453-.6801-.0096-.3671-.3149-.657-.6801-.6473-3.0664.0831-10.3083.9274-16.8334,1.7524-5.0745.6426-9.6807,1.2717-11.4767,1.5192-.3212.3853-.6797.7482-1.075,1.076Z"/><path class="cls-3" d="m134.5594,63.4241c-.0014-.0011-.0025-.0025-.0039-.0036.0014.0011.0024.0025.0039.0036Z"/><path class="cls-3" d="m134.3015,62.9864c-.0105-.0701.0109-.1338.0222-.1998-.011.0637-.0309.1252-.0226.1929.0002.0021-.0007.0039-.0004.006.0004.0029.0023.005.0027.0078.0112.0696.0527.1227.0826.1829-.0308-.0624-.0748-.1171-.0846-.1897Z"/><path class="cls-3" d="m134.3454,62.6642c.1496.1161.25.2913.2595.4941.0006.0147-.0063.0272-.0066.0417.3952-.3278.7537-.6907,1.075-1.076-.51.0703-.8059.1116-.8063.1116-.2493.0358-.4385.2087-.5215.4285Z"/><path class="cls-3" d="m122.9533,33.0416c.1129.0599.1964.1597.26.2753.5345.1686,1.0555.3564,1.5663.5581l28.8327-7.5901-.3381-1.2849-30.3356,7.9858.0685.2605s.0001,0,.0002,0l-.0541-.2048Z"/><path class="cls-3" d="m123.2768,34.2707l.3886-.1023c-.1509-.0524-.3029-.1031-.4557-.1527l.0671.255Z"/><path class="cls-3" d="m123.2837,33.4532c.0502.1873.0154.3802-.081.533v.0003s-.0003.0006-.0005.0009l.0074.0284c.1529.0496.3049.1003.4557.1527l1.1143-.2933c-.5108-.2017-1.0318-.3895-1.5663-.5581.0246.0447.0558.0845.0704.1362Z"/><path class="cls-3" d="m145.6571,138.7704c.0015.2246-.0192.4328-.0568.627h23.6v-1.3275h-23.6019c.035.2476.0588.4847.0588.7005Z"/><path class="cls-3" d="m145.5983,138.0699h-.2724v1.3275h.2744c.0377-.1942.0583-.4023.0568-.627,0-.2158-.0237-.4529-.0588-.7005Z"/><path class="cls-4" d="m100.4314,44.4232c-.1061.0811-.1645.1279-.1645.1279-.0846.0681-.1448.1533-.1874.2444v.0024c.0171-.0181.0334-.0353.0505-.0533.0352-.0374.0684-.0727.1032-.1097.066-.0707.1328-.142.1982-.2117Z"/><path class="cls-4" d="m101.092,45.5907c.0019,0,.1275-.0986.3574-.2783.8038-.6298,2.8751-2.2336,5.1667-3.8547,2.2839-1.6192,4.819-3.2616,6.4362-3.9378,1.9322-.8115,4.3822-1.6289,6.3415-2.2375.9796-.3052,1.8356-.5603,2.4481-.7361.6125-.1778.9758-.2764.9777-.2764.1417-.0397.2539-.1268.3392-.2338h-4.2297c-1.9695.6143-4.4098,1.4282-6.3908,2.2587-1.0511.4425-2.3167,1.1748-3.6557,2.0269-1.7931,1.1458-3.7079,2.5139-5.273,3.6751-.093.1098-.1927.2133-.2881.321-.0844.0953-.1675.1915-.2546.2846-.0394.0422-.0752.0873-.1152.1292-.2331.2427-.4848.5066-.7516.7875-.0101.0106-.0207.0219-.0308.0325-.5728.6033-1.2198,1.2904-1.9144,2.0302.1235.1016.2735.1537.4257.1537.1449,0,.2898-.0463.4116-.1448Z"/><path class="cls-4" d="m102.2,43.5191c.2668-.2809.5186-.5448.7516-.7875.04-.0418.0758-.0869.1152-.1292-.0396.0422-.0755.0873-.1156.1292-.2314.2411-.4863.5086-.7513.7875Z"/><path class="cls-4" d="m100.2542,45.5815s.0004.0002.0006.0004c.6946-.7398,1.3416-1.4269,1.9144-2.0302-.575.6055-1.2168,1.2859-1.915,2.0298Z"/><path class="cls-4" d="m100.2332,44.6349c-.0349.037-.0681.0723-.1032.1097.0174-.0184.0343-.0364.0516-.0546.0173-.0184.0344-.0367.0516-.0551Z"/><path class="cls-3" d="m123.0072,33.2463c-.0103-.0032-.0208-.0059-.0311-.009.0107.0033.0208.0073.0315.0106l-.0004-.0015Z"/><path class="cls-3" d="m122.2888,33.0378s-.0001,0-.0002,0c.0507.014.0997.0294.1501.0435-.0502-.014-.0995-.0298-.1499-.0435Z"/><path class="cls-3" d="m103.6083,41.9974c-.0018.0013-.0034.0026-.0051.0038-.1331.1583-.2741.3104-.4136.4637.0444-.0486.0881-.0977.1319-.147.095-.1073.1949-.2108.2868-.3205Z"/><path class="cls-3" d="m123.0313,33.9559c-.6158-.1945-1.2452-.3669-1.8872-.5157.1359.0315.2644.0758.3992.1094.5018.125,1.002.2536,1.488.4063Z"/><path class="cls-3" d="m121.5433,33.5495c-.1348-.0336-.2633-.0779-.3992-.1094-.0019-.0004-.0038-.0008-.0057-.0012.1375.0319.2684.0766.405.1106Z"/><path class="cls-3" d="m122.4387,33.0813c-.0504-.0141-.0994-.0294-.1501-.0435-.0054.0015-.0142.004-.0198.0056.2081.0568.4192.1082.6246.1699-.1507-.0457-.3024-.0894-.4547-.132Z"/><polygon class="cls-3" points="100.4434 44.4115 100.4395 44.4146 100.4314 44.4232 100.4351 44.4204 100.4434 44.4115"/><path class="cls-3" d="m100.4408,44.4159c-.085.0904-.1722.1823-.2592.274-.0372.0399-.0734.0786-.1112.1188-.0947.2164-.0676.4792.0889.6763.0288.0364.0614.0672.0941.096,1.0338-1.1014,1.9573-2.0771,2.6974-2.85.0826-.0854.1586-.178.2388-.2661.1395-.1533.2805-.3054.4136-.4637-1.5278,1.1336-2.7247,2.0684-3.1597,2.4103-.0027.0029-.0056.0059-.0084.0089.0024-.0019.0032-.0026.0057-.0045Z"/><polygon class="cls-3" points="100.254 45.5816 100.2542 45.5815 100.2534 45.581 100.254 45.5816"/><path class="cls-3" d="m121.1441,33.4402c.642.1487,1.2714.3212,1.8872.5157.0529.0166.1092.0273.1618.0442.0018-.0037.0055-.0089.0091-.0128l-.1946-.7394c-.0107-.0033-.0208-.0073-.0315-.0106-.0273-.0084-.0552-.0157-.0827-.024-.2054-.0617-.4164-.1131-.6246-.1699-.2379.0668-.6736.1896-1.2545.3613.0443.01.0856.0253.1297.0355Z"/><path class="cls-3" d="m121.1383,33.4389c.002.0004.0038.0008.0057.0012-.0441-.0102-.0854-.0255-.1297-.0355-.0003,0-.0005.0002-.0008.0002.0425.0096.0823.0242.1248.0341Z"/><polygon class="cls-3" points="123.0078 33.2479 123.0074 33.2464 123.0074 33.2464 123.0072 33.2463 123.0076 33.2478 123.0078 33.2479"/><polygon class="cls-3" points="123.2027 33.9861 123.2026 33.9864 123.0078 33.2479 123.0076 33.2478 123.2022 33.9873 123.2028 33.9864 123.2027 33.9861"/><path class="cls-3" d="m102.2,43.5191c-.0101.0106-.0206.0218-.0308.0325.0101-.0106.0208-.0219.0308-.0325Z"/><path class="cls-3" d="m103.3215,42.3179c-.0438.0493-.0875.0984-.1319.147-.0414.0455-.0807.0926-.1227.1376.087-.0931.1702-.1893.2546-.2846Z"/><path class="cls-3" d="m100.4351,44.4204c-.0016.0012-.0021.0016-.0037.0028-.0654.0696-.1322.141-.1982.2117.0682-.0725.1349-.1433.2019-.2145Z"/><path class="cls-3" d="m100.4351,44.4204c-.067.0712-.1337.142-.2019.2145-.0172.0184-.0342.0367-.0516.0551.087-.0918.1742-.1837.2592-.274-.0025.0019-.0033.0026-.0057.0045Z"/><path class="cls-3" d="m102.2,43.5191c.265-.2789.5199-.5464.7513-.7875.0401-.0418.076-.0869.1156-.1292.042-.045.0813-.0921.1227-.1376-.0803.0881-.1562.1807-.2388.2661-.7401.7729-1.6636,1.7487-2.6974,2.85h0s.0005.0002.0008.0004c.6982-.7439,1.34-1.4244,1.915-2.0298.0102-.0107.0208-.0219.0308-.0325Z"/><path class="cls-3" d="m123.0081,33.248c.0696.0212.136.0471.2053.0689-.0637-.1157-.1472-.2154-.26-.2753l.0541.2048s.0002,0,.0002,0l.0004.0016Z"/><path class="cls-3" d="m123.2027,33.9861c.0964-.1527.1312-.3456.081-.533-.0146-.0518-.0458-.0915-.0704-.1362-.0692-.0219-.1357-.0477-.2053-.0689l.1946.7381Z"/><polygon class="cls-3" points="123.0076 33.2464 123.0074 33.2464 123.0074 33.2464 123.0078 33.2479 123.0081 33.248 123.0076 33.2464"/><polygon class="cls-3" points="123.2027 33.9861 123.0081 33.248 123.0078 33.2479 123.2026 33.9864 123.2027 33.9861"/><path class="cls-4" d="m133.912,62.525c-.8367.0367-1.681.0541-2.5042.0541-2.1138,0-4.106-.1043-5.5667-.2087-.7304-.0522-1.3275-.1025-1.741-.1411-.4135-.0406-.6395-.0657-.6415-.0657-.0251-.0019-.0502-.0038-.0734-.0038-.0251,0-.0483.002-.0715.0038.0181.1324.0356.2625.049.3899.0009.0085.0031.0178.004.0263.0014.0132.0007.0261.0021.0392.032.2955.0517.5876.0628.8778.6743.0715,4.1059.4096,7.9761.4096.2222,0,.4464-.0018.6705-.0038.0689-.0313.1379-.0627.2049-.0938.1006-.0466.2018-.0932.298-.1393.2034-.0978.3995-.1949.5803-.2908.0039-.0021.0085-.0042.0124-.0063.3182-.1686.6127-.3757.8939-.5997.0405-.0323.083-.0621.1228-.0954.0247-.0206.045-.0461.0694-.0671-.0957-.0535-.2022-.0853-.3191-.0853h-.0289Z"/><path class="cls-4" d="m134.3305,63.4079c-.1639.1234-.3348.2379-.5114.3467-.0566.035-.1061.0779-.1641.1113.1044-.0039.2106-.0097.3169-.0135.2705-.0135.4985-.1874.5894-.4251-.0317-.0253-.0607-.054-.0889-.0841-.0061-.0065-.0137-.0113-.0195-.0182-.0385.0302-.0832.0535-.1224.0829Z"/><path class="cls-4" d="m133.8191,63.7547c.1765-.1088.3474-.2234.5114-.3467-.1637.1232-.3351.2377-.5114.3467Z"/><path class="cls-4" d="m132.2833,63.8089c-.067.0311-.136.0625-.2049.0938.002,0,.0038,0,.0057,0,.0005-.0002.0009-.0004.0014-.0007-.0004,0-.001,0-.0014,0,.0691-.0314.1319-.062.1992-.0931Z"/><path class="cls-4" d="m133.1739,63.3725h0c.1807-.0956.3541-.2044.5232-.3195.0307-.0209.0613-.0418.0916-.0633.0962-.0681.1869-.1434.2791-.2169-.2812.2239-.5757.431-.8939.5997Z"/><path class="cls-4" d="m132.5813,63.6696c.2038-.0977.3992-.1946.5803-.2908-.1808.0959-.3769.193-.5803.2908Z"/><path class="cls-4" d="m134.2727,62.6137c-.0038-.0022-.0089-.0012-.0126-.0034-.0244.021-.0447.0465-.0694.0671.0266-.0222.0558-.0411.082-.0638Z"/><path class="cls-4" d="m123.3689,62.6191c-.0013-.0132-.0007-.026-.0021-.0392-.0009-.0085-.0031-.0178-.004-.0263.0009.0084.0024.0173.0032.0256.0015.0134.0014.0266.0029.04Z"/><path class="cls-3" d="m133.655,63.8653c.0546-.0314.1012-.072.1545-.1048-.0572.0352-.1132.0718-.1718.1052.0058-.0002.0115-.0002.0173-.0004Z"/><path class="cls-3" d="m134.1878,62.6803c-.0377.0314-.0778.0596-.1162.0901.0385-.0307.0784-.0585.1162-.0901Z"/><path class="cls-3" d="m132.5615,63.6794c-.0695.0332-.1428.0669-.2145.1003.0715-.0334.1453-.0672.2145-.1003Z"/><path class="cls-3" d="m134.4486,63.3163c-.0371.0292-.0741.0583-.1119.0869.037-.028.0793-.0499.1157-.0785,0,0-.0001,0-.0002-.0001-.002-.0023-.0018-.006-.0037-.0082Z"/><path class="cls-3" d="m134.4486,63.3163c-.0067-.0081-.0067-.0207-.013-.0291-.0645-.0852-.1151-.1811-.1321-.2939-.0004-.0027-.0027-.0043-.0032-.007-.0003-.0024.0011-.0044.0008-.0068-.0133-.1033.0026-.2014.0338-.2939.0031-.0093-.0002-.0204.0033-.0296.0003.0002.0004.0006.0007.0008.0001-.0003,0-.0007.0001-.001-.0213-.0155-.0425-.029-.0657-.0425-.0002.0002-.0005.0003-.0007.0005.0002.0001.0005,0,.0007.0002-.0273.0236-.0578.0433-.0856.0664-.0378.0316-.0777.0594-.1162.0901-.0934.0744-.1854.1505-.2828.2194-.0303.0215-.0609.0424-.0916.0633-.1691.1149-.3425.2236-.5232.3201-.19.1012-.3972.2033-.6124.3062-.0692.0331-.143.0669-.2145.1003-.0875.0408-.1708.0811-.2615.1222.5137-.0038,1.033-.0172,1.5522-.0363.0586-.0334.1146-.0701.1718-.1052.1821-.1121.3586-.2302.5272-.3574.0378-.0285.0748-.0577.1119-.0869Z"/><path class="cls-3" d="m134.3035,62.9932c.017.1129.0676.2087.1321.2939-.0242-.0321-.0314-.0745-.0495-.1111-.0299-.0601-.0714-.1132-.0826-.1829Z"/><path class="cls-3" d="m134.335,62.6855c-.0312.0925-.0471.1906-.0338.2939-.0083-.0676.0116-.1292.0226-.1929.0057-.0334.0007-.0692.0112-.101Z"/><polygon class="cls-3" points="133.1739 63.3725 133.1615 63.3788 133.1735 63.3728 133.1739 63.3725"/><path class="cls-3" d="m134.0678,62.7729c.0012-.001.0026-.0015.0037-.0024.0384-.0305.0786-.0587.1162-.0901.001-.0009.0018-.002.0029-.0028-.0398.0333-.0823.0631-.1228.0954Z"/><path class="cls-3" d="m132.2833,63.8089c.0209-.0097.043-.0195.0637-.0291.0718-.0334.145-.0671.2145-.1003.0069-.0034.0128-.0065.0197-.0098-.0962.0461-.1973.0927-.298.1393Z"/><path class="cls-3" d="m132.0841,63.902s.001,0,.0014,0c.0907-.0411.174-.0814.2615-.1222-.0207.0096-.0428.0194-.0637.0291-.0673.0311-.1301.0618-.1992.0931Z"/><path class="cls-3" d="m134.1878,62.6803c.0278-.0231.0582-.0428.0856-.0664-.0002-.0001-.0005,0-.0007-.0002-.0262.0226-.0554.0416-.082.0638-.001.0009-.0018.002-.0029.0028Z"/><path class="cls-3" d="m133.1739,63.3725s-.0002.0002-.0004.0002c-.0037.002-.0083.004-.012.006-.181.0961-.3765.1931-.5803.2908-.0069.0034-.0128.0065-.0197.0098.2152-.1029.4224-.205.6124-.3062.1807-.0966.3541-.2053.5232-.3201-.1691.1151-.3425.2238-.5232.3195h0Z"/><path class="cls-3" d="m133.7887,62.9898c.0975-.0688.1895-.145.2828-.2194-.0012.0009-.0026.0015-.0037.0024-.0922.0735-.1829.1488-.2791.2169Z"/><path class="cls-3" d="m123.4315,63.4971c-.0091-.2867-.0306-.5758-.0621-.8676.03.2916.0355.5781.0456.8658.0066.0007.0093.0011.0165.0018Z"/><path class="cls-3" d="m123.3137,62.1638c-.0034.0004-.0063.0024-.0098.0028.0181.1256.0441.2568.0577.3792-.013-.1249-.0284-.2522-.048-.382Z"/><path class="cls-3" d="m122.7263,62.7513c-.002.0174-.0038.0348-.0038.0522.0038.0521.0096.1063.0135.1584.058.2724.2841.4907.5758.5217.0018,0,.0395.005.1033.0117-.0101-.2877-.0156-.5742-.0456-.8658-.0018-.0168-.0017-.0333-.0036-.0502-.0011-.0109-.0031-.0226-.0042-.0335-.0137-.1223-.0397-.2535-.0577-.3792-.2987.0372-.5432.2733-.5776.5847Zm-.0037.0519c-.0019.0541.002.1082.0135.1584-.0116-.0502-.0154-.1043-.0135-.1584Z"/><polygon class="cls-3" points="134.5624 63.4269 134.5626 63.4257 134.5594 63.4241 134.5624 63.4269"/><path class="cls-3" d="m134.4492,63.3158c.002.0023.0018.0061.0038.0084l-.0005.0004.0004.0004s.0001,0,.0002-.0001c.0059.0069.0132.0117.0193.0183.0259.0276.0529.0538.0831.0773-.0394-.0301-.0673-.0721-.0991-.1103-.0024.0018-.0048.0037-.0071.0056Z"/><path class="cls-3" d="m134.3454,62.6642c-.0026-.002-.0038-.0055-.0065-.0075-.0034.0084-.0002.0187-.0032.0272.0024-.007.007-.0128.0096-.0197Z"/><path class="cls-3" d="m134.4492,63.3158c.0024-.0019.0048-.0038.0071-.0056-.0063-.0075-.0135-.0139-.0195-.0217.006.0079.006.0197.0123.0273Z"/><path class="cls-3" d="m134.4564,63.3102c.0318.0382.0598.0802.0991.1103.0014.0011.0025.0025.0039.0036.001.0007.0023.0009.0032.0016.0259-.0699.0339-.1472.0357-.2256-.046.0381-.0949.0731-.1419.1101Z"/><path class="cls-3" d="m134.3237,62.7865c-.0114.066-.0327.1298-.0222.1998.0098.0726.0538.1273.0846.1897.0184.037.0262.0801.0508.1125.006.0078.0132.0142.0195.0217.047-.037.0959-.072.1419-.1101.0003-.0145.0072-.027.0066-.0417-.0095-.2028-.1099-.378-.2595-.4941-.0026.0069-.0073.0128-.0096.0197-.0112.0323-.0062.0687-.012.1026Z"/><path class="cls-3" d="m134.4528,63.325c.0058.0069.0134.0117.0195.0182-.0061-.0066-.0135-.0114-.0193-.0183,0,0-.0001,0-.0002.0001Z"/><polygon class="cls-3" points="134.4523 63.3245 134.4525 63.3246 134.453 63.3243 134.4492 63.3158 134.4486 63.3163 134.4523 63.3245"/><path class="cls-3" d="m134.4356,63.2872c.0063.0084.0063.021.013.0291.0002-.0001.0004-.0002.0006-.0004-.0063-.0076-.0063-.0194-.0123-.0273-.0004-.0005-.0009-.0009-.0013-.0014Z"/><path class="cls-3" d="m134.335,62.6855c.0002-.0005.0005-.001.0008-.0016.0029-.0085-.0002-.0188.0032-.0272-.0003-.0002-.0004-.0006-.0007-.0008-.0035.0092-.0002.0203-.0033.0296Z"/><path class="cls-3" d="m134.3861,63.1761c.0181.0366.0253.079.0495.1111.0004.0005.0009.0009.0013.0014-.0245-.0324-.0324-.0754-.0508-.1125Z"/><path class="cls-3" d="m134.3358,62.6839c-.0002.0006-.0006.001-.0008.0016-.0106.0319-.0055.0676-.0112.101.0059-.0339.0009-.0703.012-.1026Z"/><path class="cls-4" d="m87.5864,109.8824c.0945.0589.1942.1193.2872.1777.1908-.2897.1252-.6816-.1548-.8941-1.9882-1.4877-3.7137-4.2662-5.043-7.1085-1.3371-2.8403-2.2974-5.729-2.8887-7.4641-.6395-1.8588-2.1041-4.2161-3.418-6.1599-1.312-1.9361-2.4713-3.4297-2.4771-3.4355-.1217-.1565-.2995-.2435-.483-.257.0433.0818.0842.1701.126.2549.044.0889.089.175.1325.267.1469.313.2879.6434.425.9874.0649.1625.1246.3378.1874.5057.1033.2756.2064.5504.3041.8374.0431.1265.0828.256.1249.3842.0792.2418.1608.4807.2361.7263.2628.3826.5372.7884.8115,1.2057,1.1439,1.7332,2.2994,3.7099,2.7727,5.1127.5913,1.7313,1.5671,4.6721,2.9428,7.6013.9308,1.9717,2.0355,3.9434,3.3581,5.5544.1066.0667.2122.1332.3203.2002.3571.222.7217.446,1.0861.6697.1312.0804.2593.1599.3901.2402.3249.1996.6447.3976.96.5942Z"/><path class="cls-4" d="m73.0663,85.5454c-.0841-.1789-.1711-.3353-.2571-.4988-.1484.2308-.1438.538.0335.7648,0,0,.0696.0889.1952.257.1295.1707.3192.4227.5494.7343-.038-.0992-.0728-.2079-.1115-.3047-.1333-.3343-.2705-.6531-.4096-.9526Z"/><path class="cls-4" d="m86.6265,109.2882c.088.0541.1721.1069.2596.1608.2361.1453.47.2899.7004.4334-.3152-.1966-.6351-.3947-.96-.5942Z"/><path class="cls-4" d="m73.5568,86.7023c-.0267-.0684-.0529-.1372-.0806-.2047-.1334-.3343-.2705-.6531-.4097-.9526-.083-.1757-.168-.3456-.2529-.5078-.002.0029-.0024.0065-.0043.0094.086.1635.173.3199.2571.4988.1391.2995.2763.6183.4096.9526.0386.0969.0734.2056.1115.3047.0068.0092.0117.0157.0186.025-.0162-.0425-.0327-.0835-.0492-.1255Z"/><path class="cls-4" d="m74.584,87.5935c.043.1263.083.2563.1249.3842-.0421-.1282-.0818-.2576-.1249-.3842Z"/><path class="cls-4" d="m84.8301,108.1781c.0007.0008.0013.0018.002.0026.1044.0657.2106.1313.3169.199.3575.2213.7232.445,1.0875.6683-.3644-.2237-.729-.4476-1.0861-.6697-.108-.067-.2137-.1335-.3203-.2002Z"/><path class="cls-3" d="m74.7228,88.0217c.072.2205.1416.4427.2104.6662.0038.0056.0075.0107.0114.0163-.0708-.2307-.1476-.455-.2218-.6825Z"/><path class="cls-3" d="m87.8736,110.0601s-.0001.0004-.0002.0005c-.078-.0491-.1619-.0999-.2409-.1492.0817.051.1602.1011.2407.1517.0006-.0007.0011-.0015.0017-.0023-.0004-.0002-.0009-.0005-.0013-.0008Z"/><path class="cls-3" d="m74.0925,86.2511c.17.4258.332.8749.4882,1.3333-.0967-.2838-.1986-.5555-.3007-.8283-.0627-.1674-.1223-.3422-.1871-.504l-.0004-.0009Z"/><path class="cls-3" d="m73.5349,84.996c-.042-.0848-.083-.1726-.1264-.2547h-.0112c.0896.1695.1808.3327.2665.5156-.0424-.0904-.0861-.1741-.129-.2609Z"/><path class="cls-3" d="m86.4335,109.1694c.0437.0269.0865.0533.1302.0801-.0437-.0269-.0864-.0533-.1302-.0801Z"/><path class="cls-3" d="m74.5806,87.5844c-.1562-.4583-.3181-.9074-.4882-1.3333-.137-.3436-.278-.6757-.4247-.9865-.0013-.0027-.0026-.0051-.0039-.0078-.0858-.1829-.1769-.3461-.2665-.5156h-.0314c-.1429,0-.2859.0445-.4058.1391-.0599.0445-.1082.0986-.1469.1565l.0002.0004s.0001-.0004.0002-.0005c.085.1623.17.3324.2531.5081.1391.2996.2762.6183.4096.9526.0264.0671.0533.1363.0803.2049.0161.0414.0328.0823.0488.1238.3624.4927.8277,1.1364,1.3276,1.8618-.0688-.2235-.1385-.4457-.2104-.6662-.0475-.1457-.0932-.2936-.1422-.4373Z"/><path class="cls-3" d="m86.8861,109.449c-.1087-.0669-.2131-.1325-.3224-.1995-.0436-.0268-.0865-.0533-.1302-.0801-.4302-.2637-.8625-.5281-1.2849-.7895-.1063-.0676-.2125-.1333-.3169-.199.6415.7806,1.3351,1.4781,2.0868,2.0462.1198.0908.2609.1334.4.1334.201,0,.4-.0908.5294-.2647.009-.0109.0165-.0217.0253-.0325-.0806-.0507-.159-.1008-.2407-.1517-.2448-.153-.4946-.3074-.7464-.4624Z"/><path class="cls-3" d="m87.6325,109.9114c.079.0494.1629.1002.2409.1492.0001-.0002.0001-.0004.0002-.0005-.093-.0584-.1927-.1188-.2872-.1777.0156.0097.0304.0192.046.029Z"/><path class="cls-3" d="m73.6673,85.2633c.1469.313.2878.6434.425.9874,0,.0001.0001.0003.0002.0004l.0004.0009c.0648.1618.1243.3367.1871.504-.0629-.1679-.1225-.3432-.1874-.5057-.1371-.3439-.2782-.6743-.425-.9874-.0435-.092-.0885-.1781-.1325-.267.0428.0868.0866.1705.129.2609.0011.0023.0023.0042.0034.0064Z"/><path class="cls-3" d="m73.0669,85.5448c-.0831-.1757-.1682-.3458-.2531-.5081-.0001.0002-.0001.0004-.0002.0005.085.1622.1699.3321.2529.5078.1392.2995.2763.6183.4097.9526.0277.0674.054.1362.0806.2047-.027-.0686-.0539-.1378-.0803-.2049-.1334-.3343-.2705-.6531-.4096-.9526Z"/><path class="cls-3" d="m86.8861,109.449c.2518.155.5016.3094.7464.4624-.0156-.0098-.0304-.0193-.046-.029-.2304-.1435-.4642-.2881-.7004-.4334Z"/><path class="cls-3" d="m73.6673,85.2633c-.0011-.0023-.0023-.0042-.0034-.0064.0013.0027.0026.0051.0039.0078.1467.3108.2877.6428.4247.9865,0-.0001-.0001-.0003-.0002-.0004-.1372-.344-.2782-.6744-.425-.9874Z"/><path class="cls-4" d="m108.5564,111.8681c-.0959.017-.1893.0488-.2853.0634.2531.0579.4946.1063.7188.1468.0406.0078.0812.0117.1218.0117.2955,0,.5601-.1969.6395-.4868-.1052.0314-.2151.0432-.3214.0712-.2896.0767-.5787.1415-.8733.1937Z"/><path class="cls-4" d="m111.6302,101.9574s.0006.0005.0011.0009c0-.0002,0-.0005-.0001-.0008-.1932-.143-.4772-.3382-.8289-.5333-.6724-.3729-1.6018-.7632-2.6645-.7651h-.0116c-.6686,0-1.3912.168-2.0675.599-.9197.5854-1.6945,1.1631-2.2645,1.8761-.572.7072-.9081,1.5786-.9023,2.5718,0,.6337.1256,1.3139.371,2.0694.5178,1.6153,1.5341,2.653,2.62,3.2712.2327.1335.4672.2495.7017.3509.0735-.0007.1492-.0095.2233-.0117.3636-.0104.7316-.0376,1.1009-.0847.1538-.0197.3063-.048.4596-.0743.3138-.0537.6238-.1223.9296-.2045.0895-.0241.178-.0501.2664-.0767-.0887-.0844-.202-.1479-.3311-.1734-.8405-.1545-1.8298-.3806-2.6877-.8772-.8579-.5004-1.5921-1.2308-2.0192-2.5293-.2145-.6589-.3053-1.2037-.3053-1.6597.0058-.715.2029-1.2212.6125-1.7448.4116-.5197,1.0665-1.0317,1.936-1.5805.4579-.2879.9081-.3922,1.368-.3942h.0116c.7168,0,1.4568.2898,2.0075.599.2764.1526.5062.3091.6608.4231l.1778.1353.0425.0348.0078.0077c.1255.1102.2821.1642.4366.1642.1314,0,.2609-.0386.3729-.116-.0034-.017-.0051-.0314-.0085-.0483-.0742-.3691-.136-.7181-.1852-1.0513-.0083-.0563-.0242-.1224-.0314-.1775Z"/><path class="cls-4" d="m106.594,111.402c.0702-.0007.1432-.0144.2139-.0164-.0741.0022-.1498.011-.2233.0117.0031.0013.0063.0034.0094.0047Z"/><path class="cls-4" d="m107.9087,111.3009c.1551-.0198.3051-.0478.4596-.0743-.1533.0262-.3058.0546-.4596.0743Z"/><path class="cls-4" d="m109.583,110.9595c-.0054-.0055-.0131-.0087-.0187-.014-.0884.0266-.1769.0526-.2664.0767.0938-.0252.1925-.0347.2851-.0627Z"/><path class="cls-4" d="m109.035,111.7619c-.1598.0356-.3177.0777-.4786.1062.2946-.0522.5837-.117.8733-.1937-.1306.0344-.2629.0581-.3947.0875Z"/><path class="cls-4" d="m111.8468,103.1862c-.0419-.2086-.0687-.3953-.1042-.5938-.0275-.153-.0595-.3123-.081-.4576.0492.3333.111.6823.1852,1.0513Z"/><path class="cls-3" d="m111.6578,102.1091c-.0071-.0488-.0156-.0994-.0219-.1473-.0019-.0014-.0027-.0021-.0046-.0035.0062.0468.0196.1031.0265.1509Z"/><path class="cls-3" d="m106.8082,111.3855c.3644-.0109.7303-.0374,1.1003-.0845-.369.047-.7368.0742-1.1003.0845Z"/><path class="cls-3" d="m108.2701,111.9314c.0956-.0145.1886-.0461.2841-.063-.1082.0192-.2162.0363-.3246.0523.0131.003.0276.0078.0406.0107Z"/><path class="cls-3" d="m109.7512,111.6029s-.0001.0002-.0001.0002c.0003-.0001.0007-.0001.001-.0002.0016-.0071.0032-.0153.0048-.0229-.1082.0326-.2161.0649-.3254.0939.1058-.028.215-.0397.3198-.071Z"/><path class="cls-3" d="m109.2957,111.0229c-.3043.0817-.6126.1498-.9247.2034.3132-.0536.6193-.1213.9247-.2034Z"/><path class="cls-3" d="m107.9086,111.301c-.37.0472-.7359.0737-1.1003.0845-.0705.002-.1434.0157-.2134.0164.5634.2431,1.1216.4016,1.6346.5188.1084-.016.2165-.0331.3246-.0523.1616-.0286.3203-.0708.4808-.1066.1323-.0295.2653-.0534.3964-.088.1094-.029.2173-.0613.3254-.0939.0023-.011.0046-.0217.0068-.0331.0406-.2222-.0328-.4386-.1797-.5875-.0936.0283-.1935.038-.2883.0634-.3054.082-.6115.1498-.9247.2034-.1554.0266-.3065.0549-.4624.0748Z"/><path class="cls-3" d="m111.7426,102.5925c.0386.2146.067.4158.1136.6421.0464-.0309.0889-.0676.1275-.1121.2396-.2762.2126-.6956-.0637-.9371-.0114-.0095-.1127-.097-.2841-.2236.0063.0479.0148.0985.0219.1473.0223.153.056.3218.0848.4833Z"/><path class="cls-3" d="m111.6616,102.1349c-.0012-.0086-.0026-.0172-.0038-.0258-.0069-.0477-.0203-.1041-.0265-.1509-.0005-.0004-.0006-.0005-.0011-.0009.0073.0551.0231.1212.0314.1775Z"/><path class="cls-3" d="m109.4314,111.6739c-.0005.0001-.0012.0004-.0017.0005.1063-.028.2161-.0399.3214-.0712,0,0,.0001-.0002.0001-.0002-.1048.0313-.214.043-.3198.071Z"/><path class="cls-3" d="m109.4314,111.6739c-.1311.0346-.2642.0585-.3964.088.1318-.0294.2641-.0531.3947-.0875.0005-.0001.0012-.0004.0017-.0005Z"/><path class="cls-3" d="m111.6616,102.1349c.0215.1453.0535.3046.081.4576-.0289-.1615-.0626-.3304-.0848-.4833.0013.0085.0026.0172.0038.0258Z"/><path class="cls-4" d="m127.6156,113.248c-2.1539.2357-4.6516.6162-7.0703,1.2498.0106.011.0223.0237.0328.0345.1234.1269.2374.2399.35.351.0464.0457.0971.0978.1415.1405.0106.0102.0187.0168.0292.0268.1329.1266.2585.2421.3704.3379.0054.0046.0123.0115.0177.0161.0687.0585.1446.1161.2159.1744,2.0733-.4901,4.1948-.8085,6.0557-1.0093,1.6578-.1817,3.1089-.2705,4.1446-.3169.5178-.0213.9313-.0328,1.2134-.0387.2841-.0057.4328-.0057.4328-.0057.2818,0,.5229-.1754.6191-.4235-.0263-.0545-.0446-.1014-.0724-.1574-.0047-.0094-.009-.0183-.0138-.0279-.0078-.0156-.0198-.0292-.0278-.0447-.1205-.2344-.2689-.455-.4297-.6691-.0245-.0026-.0497-.0048-.0754-.0048-.0154,0-2.5505,0-5.9338.3671Z"/><path class="cls-4" d="m119.4184,116.0431c.0469.0404.0958.0751.1425.116-.0004.0001-.0009.0003-.0013.0004.0002.0001.0003.0002.0005.0004.4425-.1372.8907-.2628,1.3448-.3826-.031-.0276-.0685-.066-.1006-.0953-.0995-.0916-.2022-.1884-.3112-.2951-.071-.0695-.1432-.1408-.2178-.2161-.0992-.1003-.2018-.2061-.3066-.3156-.0518-.054-.0986-.0999-.1516-.156-.5.1409-.9943.2953-1.4807.4633.0495.0375.0973.0814.1467.1194.3148.2427.6272.4954.9353.7613Z"/><path class="cls-4" d="m93.2667,125.1823c.3246-.1526.6448-.3132.9467-.4961.0247-.015.0497-.0293.0743-.0444-.2228.0262-.4421.0491-.6577.0643-.3286.025-.5818.2833-.6111.6016.0129-.0057.0264-.0104.0392-.0162.0726-.032.137-.0756.2086-.1092Z"/><path class="cls-4" d="m95.2983,124.7284c-.1317.1183-.2691.2284-.4148.326-.0084.0057-.0156.0133-.024.0189-.2344.1526-.477.2955-.7252.4305-.0111.0061-.0213.0133-.0325.0193-.0771.0416-.1588.0759-.2371.1157-.1649.0839-.3296.1677-.4994.2437-.0213.0095-.0413.0212-.0626.0306,0,0,0-.0001,0-.0001l-.0011.0005c.1082.0753.2396.1178.3787.1178.0154,0,.0328,0,.0502-.0019,3.5166-.2667,7.6727-1.795,11.8115-3.6036,4.133-1.8105,8.2408-3.9147,11.5469-5.358.5535-.243,1.1321-.4649,1.73-.6674-.015-.0126-.0295-.0259-.0446-.0385-.1474-.1235-.2985-.2327-.4478-.3511-.2165-.1714-.4316-.3476-.6498-.5077-.0316-.0233-.0632-.0467-.0948-.0697-.3478.1328-.69.271-1.0244.4171-3.364,1.4703-7.4622,3.5687-11.5488,5.3599-3.2866,1.4415-6.5753,2.6761-9.4098,3.2249-.0588.0638-.1232.1202-.185.1802-.0387.0375-.0757.0768-.1156.1127Z"/><path class="cls-4" d="m134.096,113.6274c.0278.056.0461.1029.0724.1574.0008-.002.0023-.0035.0031-.0054-.0001-.0002-.0002-.0004-.0003-.0006,0,.0001,0,.0002,0,.0004-.0245-.0505-.0494-.1004-.0751-.1517Z"/><path class="cls-4" d="m133.6399,112.8867c-.0049-.0007-.0103-.0004-.0152-.001.1609.2141.3092.4346.4297.6691-.1188-.2322-.2553-.4562-.4146-.6681Z"/><path class="cls-4" d="m93.8647,125.639c-.1649.0839-.3297.1678-.4994.2437.1698-.076.3345-.1599.4994-.2437Z"/><path class="cls-4" d="m95.4139,124.6157c-.0387.0375-.0757.0768-.1156.1127.0399-.0358.0769-.0751.1156-.1127Z"/><path class="cls-4" d="m94.1342,125.5039c.2482-.135.4908-.2779.7252-.4305.0085-.0056.0156-.0132.024-.0189-.0085.0057-.0161.0131-.0247.0187-.234.1526-.4764.2956-.7246.4307Z"/><path class="cls-4" d="m93.0581,125.2915c-.0129.0057-.0263.0105-.0392.0162-.0002.0018-.0012.0033-.0013.0051.0142-.0062.0265-.015.0406-.0212Z"/><path class="cls-4" d="m94.3006,124.6405c-.0044.0005-.0086.0007-.013.0013-.0245.0151-.0496.0295-.0743.0444.0278-.0168.0596-.0286.0873-.0457Z"/><path class="cls-4" d="m121.0697,115.0238c-.0444-.0427-.0952-.0948-.1415-.1405.0465.0458.0971.0977.1415.1405Z"/><path class="cls-4" d="m120.5443,114.4988s.0002,0,.0003,0c.0119.0123.0217.0214.0334.0336-.0106-.0109-.0222-.0236-.0328-.0345-.0005.0001-.0011.0002-.0016.0004l.0007.0007Z"/><path class="cls-4" d="m120.2754,115.1708c-.0991-.1002-.2019-.2062-.3066-.3156.1049.1095.2074.2153.3066.3156Z"/><path class="cls-4" d="m121.6793,115.5653c.006.0049.012.01.0179.0149.0018-.0004.0037-.0008.0056-.0012-.0713-.0583-.1472-.1159-.2159-.1744-.0054-.0045-.0123-.0114-.0177-.0161.0052.0045.0121.0114.0173.0158.0637.0549.1276.1078.1927.1609Z"/><path class="cls-4" d="m120.8044,115.682c-.0992-.0908-.2029-.1891-.3112-.2951.109.1068.2117.2036.3112.2951Z"/><path class="cls-4" d="m118.7744,116.3621c.015.0126.0296.0259.0446.0385.001-.0004.0021-.0008.0031-.0012-.0157-.0132-.032-.0242-.0477-.0374Z"/><path class="cls-4" d="m117.5863,115.4326c.0006-.0002.0012-.0004.0018-.0006-.0002-.0002-.0004-.0004-.0007-.0005-.0018.0007-.0036.0015-.0054.0022.0316.023.0632.0464.0948.0697-.0304-.0223-.0601-.0487-.0905-.0707Z"/><path class="cls-4" d="m118.4831,115.2818c.3149.2426.6271.4962.9353.7613-.3081-.2659-.6205-.5186-.9353-.7613Z"/><path class="cls-3" d="m134.0918,113.6181c-.0033-.0066-.0052-.012-.0085-.0186-.0054-.0107-.0142-.0198-.0196-.0305.0054.0107.0137.02.019.0307.0032.0063.006.0121.0091.0184Z"/><path class="cls-3" d="m134.0636,113.569c.0054.0107.0142.0198.0196.0305.0033.0066.0052.012.0085.0186.0272.0547.0535.1071.0794.1607.0269-.0732.0425-.1523.0425-.2334,0-.3362-.2493-.6144-.5739-.6589,0,0,0,.0001.0001.0002h.0002c.1627.2164.303.4447.4235.6823Z"/><path class="cls-3" d="m134.0827,113.5997c-.0053-.0107-.0136-.02-.019-.0307-.0026-.005-.0066-.0092-.0092-.0142.0079.0156.02.0291.0278.0447.0048.0096.0091.0185.0138.0279-.0016-.0033-.0026-.006-.0043-.0093-.0031-.0062-.0059-.0121-.0091-.0184Z"/><path class="cls-3" d="m134.0636,113.569c-.1205-.2376-.2607-.4659-.4235-.6823h-.0002c.1592.2119.2957.4359.4146.6681.0026.005.0066.0092.0092.0142Z"/><path class="cls-3" d="m134.096,113.6274c.0256.0513.0506.1012.0751.1517,0-.0001,0-.0002,0-.0004-.0259-.0536-.0522-.106-.0794-.1607.0016.0034.0026.006.0043.0093Z"/><path class="cls-3" d="m94.9203,125.0255c.1294-.0893.2535-.1864.3716-.2922-.118.1057-.2425.2025-.3716.2922Z"/><path class="cls-3" d="m95.5982,124.4351c-.0052.001-.0099.0014-.0151.0024-.0508.0551-.1013.1107-.1545.1628.0564-.0552.1157-.1066.1696-.1652Z"/><path class="cls-3" d="m94.1336,125.5042c-.0861.0468-.1761.0875-.2637.1321.0765-.0389.1566-.0724.2319-.1131.0109-.0059.0209-.0131.0319-.019Z"/><path class="cls-3" d="m93.3635,125.8834c-.0211.0094-.043.0172-.064.0265.0012.0009.0019.0024.0031.0032.0208-.0091.0402-.0205.0609-.0297Z"/><path class="cls-3" d="m93.2667,125.1823c-.0711.0334-.1353.0768-.2073.1086.3982-.1765.7792-.3784,1.1448-.5992-.2988.1804-.6156.3396-.9376.4906Z"/><path class="cls-3" d="m93.8699,125.6363c.0876-.0446.1777-.0853.2637-.1321.248-.1349.4905-.2779.7245-.4315.0217-.0143.0408-.0325.0622-.0472.1292-.0897.2536-.1865.3716-.2922.0471-.0422.0911-.0886.1366-.1331.0532-.0521.1036-.1077.1545-.1628-.4371.0837-.8651.1528-1.2814.2025-.0003.0002-.0007.0004-.001.0005.0006,0,.0012-.0001.0018-.0002-.031.0192-.0668.0325-.0981.0514-.3657.2208-.7466.4227-1.1448.5992-.0142.0063-.0266.0151-.0408.0214-.0038.0348-.0038.0696-.002.1044.0173.2071.1246.3829.2828.4932.0211-.0093.043-.0171.064-.0265.1723-.0768.3394-.162.5063-.2471Z"/><path class="cls-3" d="m94.2133,124.6862c-.3019.1829-.622.3434-.9467.4961.322-.151.6387-.3102.9376-.4906.003-.0018.006-.0037.0091-.0055Z"/><path class="cls-3" d="m93.3653,125.8827c-.0006.0002-.0012.0005-.0018.0007-.0208.0092-.0401.0206-.0609.0297,0,0,0,.0001,0,.0001.0214-.0094.0413-.0211.0626-.0306Z"/><path class="cls-3" d="m94.1018,125.5232c-.0753.0406-.1554.0742-.2319.1131-.0017.0009-.0035.0017-.0052.0026.0782-.0398.16-.0742.2371-.1157Z"/><path class="cls-3" d="m94.3024,124.6403c-.0006,0-.0012.0001-.0018.0002-.0276.0171-.0594.0289-.0873.0457-.0031.0018-.0061.0037-.0091.0055.0313-.0189.0671-.0322.0981-.0514Z"/><path class="cls-3" d="m93.8647,125.639c.0017-.0009.0035-.0018.0052-.0026-.167.0851-.334.1702-.5063.2471.0005-.0002.0012-.0005.0018-.0007.1697-.0759.3345-.1599.4994-.2437Z"/><path class="cls-3" d="m120.904,114.8594c-.1033-.1019-.2067-.2038-.3185-.3192.112.1154.2151.2171.3185.3192Z"/><path class="cls-3" d="m119.8162,114.6978c.0481.0511.0905.0923.1376.1417-.0449-.0469-.0897-.0939-.1354-.1423-.0007.0002-.0015.0004-.0022.0006Z"/><path class="cls-3" d="m120.906,115.7779c.001-.0002.002-.0005.0031-.0008-.0311-.0278-.0632-.0573-.0955-.0869.0294.0269.064.0622.0924.0876Z"/><path class="cls-3" d="m120.4871,115.3808c-.0669-.0656-.1345-.1324-.2046-.2031.07.0705.1377.1377.2046.2031Z"/><path class="cls-3" d="m121.3052,115.2397c-.0677-.0615-.1323-.1182-.2063-.189-.01-.0095-.0177-.0157-.0278-.0253.0843.0809.1575.1452.2341.2144Z"/><path class="cls-3" d="m120.4871,115.3808c.1139.1113.2228.2144.3265.3094.0323.0296.0643.059.0955.0869.2617-.0674.5255-.1328.7891-.1962-.0003-.0002-.0005-.0004-.0009-.0007h-.0001c-.006-.0049-.0118-.01-.0178-.0149-.0652-.0532-.1303-.1075-.1937-.1603-.0541-.046-.1212-.1116-.1804-.1653-.0765-.0692-.1498-.1335-.2341-.2144-.0525-.0503-.1119-.1115-.1671-.166-.1034-.1021-.2065-.2039-.3185-.3192-.0145-.015-.0266-.0262-.0412-.0413-.2426.0636-.4853.129-.726.1984.0458.0484.0906.0953.1354.1423.1124.1177.2225.2314.3287.3383.0701.0707.1377.1375.2046.2031Z"/><path class="cls-3" d="m121.0989,115.0506c-.0105-.01-.0186-.0166-.0292-.0268.0005.0004.001.001.0015.0015.0101.0096.0178.0159.0278.0253Z"/><path class="cls-3" d="m120.904,114.8594c.008.0079.0162.0162.0241.024-.1127-.1111-.2267-.2241-.35-.351.0024.0025.0051.0054.0074.0078.1118.1154.2151.2173.3185.3192Z"/><path class="cls-3" d="m120.5443,114.4988c.0146.0151.0267.0264.0412.0413-.0024-.0024-.005-.0053-.0074-.0078-.0118-.0121-.0215-.0213-.0334-.0336-.0001,0-.0002,0-.0003,0Z"/><path class="cls-3" d="m121.0711,115.0253s-.001-.001-.0015-.0015c-.0444-.0428-.095-.0947-.1415-.1405-.0079-.0078-.0161-.0161-.0241-.024.0552.0545.1146.1157.1671.166Z"/><path class="cls-3" d="m121.6972,115.5802h.0001c-.006-.0049-.012-.01-.0179-.0149.006.0049.0118.01.0178.0149Z"/><path class="cls-3" d="m118.3352,115.1628s.0009-.0003.0013-.0004c-.0002-.0001-.0003-.0002-.0005-.0004-.0021.0007-.0042.0016-.0063.0023.0414.0314.0826.063.124.0948-.0399-.0305-.0784-.0663-.1184-.0964Z"/><path class="cls-3" d="m117.7128,115.5298c.2057.1528.4091.3189.6138.4812.1443.1142.2907.2193.4332.3384-.3447-.2883-.695-.5599-1.0469-.8196Z"/><path class="cls-3" d="m119.5578,116.1601c.0007-.0002.0012-.0004.0019-.0006-.0283-.0247-.0578-.0455-.0861-.0701.0278.0242.0565.0463.0842.0707Z"/><path class="cls-3" d="m117.7128,115.5298c.3519.2598.7022.5313,1.0469.8196.0208.0173.0424.0318.063.0493.2405-.0828.4868-.1614.7349-.2386-.0278-.0244-.0564-.0466-.0842-.0707-.3355-.2907-.6763-.5676-1.02-.8302-.0413-.0318-.0826-.0635-.124-.0948-.2504.0861-.497.1741-.7416.2676.0418.0306.083.0668.1248.0978Z"/><path class="cls-3" d="m118.4536,115.2592c.0099.0076.0197.015.0295.0226-.0494-.0381-.0972-.082-.1467-.1194-.0004.0001-.0009.0003-.0013.0004.04.0301.0785.0659.1184.0964Z"/><path class="cls-3" d="m119.4184,116.0431c.0182.0157.0369.0304.0551.0463.0283.0246.0579.0454.0861.0701.0004-.0001.0009-.0003.0013-.0004-.0468-.0409-.0956-.0756-.1425-.116Z"/><path class="cls-3" d="m117.6768,115.5033c.2183.1601.4333.3362.6498.5077-.2047-.1623-.4081-.3284-.6138-.4812-.012-.0089-.024-.0176-.0361-.0265Z"/><path class="cls-3" d="m117.588,115.432c-.0006.0002-.0012.0004-.0018.0006.0304.022.0601.0485.0905.0707.012.0089.024.0176.0361.0265-.0418-.0311-.083-.0672-.1248-.0978Z"/><path class="cls-3" d="m118.4831,115.2818c-.0099-.0076-.0197-.0151-.0295-.0226.3436.2626.6844.5395,1.02.8302-.0182-.0159-.0369-.0305-.0551-.0463-.3082-.2651-.6204-.5187-.9353-.7613Z"/><path class="cls-4" d="m67.5375,140.4307c.1816.1082.371.2203.5681.3342.1044.0599.2203.0889.3323.0889.2164,0,.4271-.1063.5526-.2957-.0276-.0012-.0561-.006-.0837-.0073-.4242-.0205-.8532-.0569-1.2834-.1127-.0287-.0037-.0571-.0036-.0858-.0075Z"/><path class="cls-4" d="m66.3718,126.8432c-.1138-.079-.2469-.1196-.382-.1196-.1566,0-.313.0541-.4406.1662-.0154.0154-.313.2783-.7149.7343.051-.03.1077-.0515.1592-.0808.3823-.218.7778-.415,1.1808-.5997.0674-.0309.1298-.0701.1974-.1004Z"/><path class="cls-4" d="m65.814,137.6812c-.4946-.4-.827-.7419-1.0511-1.0511-.3362-.4656-.4618-.856-.5526-1.4066-.0889-.5449-.1121-1.2386-.2261-2.1351-.0212-.1584-.0309-.313-.0309-.4695-.0058-1.2037.5932-2.4056,1.2289-3.2963.3149-.4443.6337-.8115.8695-1.0607.1179-.1256.2164-.2241.284-.2879l.0754-.0715.0174-.0155.0019-.0019c.1327-.1173.2056-.2748.2216-.4362-.2837.1261-.5536.2663-.8248.4052-.1301.0666-.2683.1251-.3948.1953-.3993.2216-.7798.4617-1.1326.7283-.0027.002-.005.0043-.0077.0063-.0826.0624-.1539.136-.2337.2014-.1453.1191-.291.2379-.4255.3677-.0338.0324-.0666.0659-.0997.0989-.4982.892-.9034,1.9701-.9072,3.1671,0,.2106.0116.4232.0406.6377.0947.738.1218,1.3544.199,1.9515.1063.8907.3884,1.7815,1.1747,2.6355.4444.4877,1.0359.9819,1.8416,1.5361.1185.0355.2349.0742.3557.1055.2894.0751.584.137.8825.1898.1882.0333.375.0701.5649.0952.3276.0431.6553.0699.9824.0908.1197.0077.2397.0202.3587.0251-.058-.1092-.1418-.2054-.2558-.2708-1.3448-.7767-2.2954-1.4027-2.9562-1.9341Z"/><path class="cls-4" d="m68.9068,140.5509c-.424-.0208-.8533-.0573-1.2834-.1127.4302.0558.8593.0922,1.2834.1127Z"/><path class="cls-4" d="m66.6519,127.4487c0-.0008.0006-.0016.0007-.0024-.2469.1094-.4789.2347-.7169.3538-.036.0181-.0728.0354-.1086.0537.2712-.1389.5411-.2791.8248-.4052Z"/><path class="cls-4" d="m63.5456,129.4281c.0005-.001.0012-.0018.0018-.0028-.0005.0005-.0012.001-.0018.0015-.0045.0079-.0081.017-.0125.0249.0331-.0331.0659-.0665.0997-.0989-.0276.0266-.0602.0483-.0872.0753Z"/><path class="cls-4" d="m66.2375,139.4852c-.1208-.0314-.2372-.07-.3557-.1055.0211.0145.0383.028.0597.0425.0004.0001.001.0002.0014.0003-.0004-.0003-.001-.0006-.0014-.0009.0956.0279.199.0385.296.0637Z"/><path class="cls-4" d="m67.12,139.6749c.1894.0334.3737.07.5649.0952-.1899-.0251-.3768-.0619-.5649-.0952Z"/><path class="cls-4" d="m64.292,128.7837c.0027-.002.005-.0043.0077-.0063.3528-.2665.7333-.5067,1.1326-.7283-.2027.1124-.3842.2458-.5759.369-.186.1196-.3836.2282-.5573.3595-.0025.0019-.0046.0043-.0071.0062Z"/><path class="cls-4" d="m69.0344,139.8949c-.0018-.0036-.0065-.0052-.0084-.0088-.119-.0049-.239-.0175-.3587-.0251.1223.0078.2456.0289.3671.0339Z"/><path class="cls-4" d="m66.1744,126.9436c-.403.1847-.7985.3817-1.1808.5997.2993-.1703.6119-.3201.9249-.4694.0866-.0414.1686-.0901.256-.1302Z"/><path class="cls-3" d="m65.4355,128.047c.1118-.062.2341-.113.3488-.1721-.1146.0591-.2371.1102-.3488.1721Z"/><path class="cls-3" d="m68.6421,139.8592c-.3162-.0208-.6326-.0463-.9492-.0878.3176.0418.632.0669.9492.0878Z"/><path class="cls-3" d="m67.107,139.6727c-.2914-.0519-.5793-.1122-.862-.1854.2838.0734.5696.1333.862.1854Z"/><path class="cls-3" d="m66.1939,126.934c.0612-.028.1193-.0615.1809-.0889-.0009-.0006-.0016-.0016-.0024-.0022-.0002,0-.0004.0002-.0005.0003.0002.0001.0004.0001.0005.0002-.0612.0271-.1176.0628-.1785.0906Z"/><path class="cls-3" d="m68.9905,140.5577c.0005-.0009.0011-.0018.0016-.0026-.0236-.001-.0474-.0024-.0712-.0035.0229.001.0466.0052.0695.0061Z"/><path class="cls-3" d="m67.5375,140.4301c.0249.0034.0494.0033.0743.0065-.0275-.0036-.055-.0078-.0826-.0116.0029.0018.0054.0033.0083.0051Z"/><path class="cls-3" d="m64.8343,127.6254c-.0115.0131-.025.0304-.0367.0438.064-.0381.1228-.0836.1876-.1205-.0488.028-.1025.0482-.1509.0768Z"/><path class="cls-3" d="m64.2775,128.7957c-.2246.1712-.4347.3561-.6366.549.1321-.1262.2749-.2427.4174-.3596.0749-.0614.1418-.1307.2192-.1894Z"/><path class="cls-3" d="m69.0349,139.8949s-.0004,0-.0005,0c.0001.0002.0004.0004.0005.0006-.13-.0053-.262-.0277-.3928-.0363-.3172-.0209-.6316-.046-.9492-.0878-.1983-.026-.3896-.0638-.5859-.0987-.2924-.0521-.5782-.1119-.862-.1854-.0991-.0256-.2045-.0365-.3021-.0649.4554.3112.9799.6419,1.5863,1.0026.0276.0038.0551.008.0826.0116.4387.0571.8768.0955,1.3092.1149.0237.0011.0475.0024.0712.0035.0072-.0107.0143-.0215.0215-.0341.114-.199.114-.4329.0212-.626Z"/><path class="cls-3" d="m63.5473,129.4253c.0291-.0287.0639-.0523.0936-.0806.2019-.1928.412-.3777.6366-.549.0076-.0058.014-.0129.0216-.0187.174-.1312.3713-.2395.5573-.3589.1928-.124.3751-.2579.5791-.371.1117-.062.2342-.113.3488-.1721.0497-.0256.1012-.0496.1514-.0748.2379-.1193.4698-.2444.7169-.3545.0154-.1758-.0386-.3574-.1642-.4985-.0359-.0397-.0739-.0735-.1135-.1021-.0616.0274-.1197.0609-.1809.0889-.0941.0428-.1823.0953-.2755.1398-.3158.1509-.6314.3021-.9332.4748-.0648.037-.1236.0824-.1876.1205-.214.2458-.4557.5411-.6995.8856-.1868.2638-.3735.5549-.5508.8705Z"/><path class="cls-3" d="m64.0583,128.9851c-.1425.1168-.2853.2333-.4174.3596-.0028.0027-.0053.0055-.0081.0081.1345-.1298.2802-.2485.4255-.3677Z"/><path class="cls-3" d="m65.8271,127.8539c-.0141.0072-.0288.0138-.0428.0211-.1146.0591-.237.1101-.3488.1721-.0011.0006-.002.0015-.0032.0021.1265-.0702.2647-.1287.3948-.1953Z"/><path class="cls-3" d="m66.2375,139.4852c.0026.0007.0049.0015.0074.0022.2827.0732.5706.1335.862.1854.0043.0007.0087.0015.0131.0022-.2985-.0528-.5931-.1146-.8825-.1898Z"/><path class="cls-3" d="m67.685,139.7701c.0026.0004.0052.0009.0079.0013.3166.0415.6331.067.9492.0878.0084.0005.0168.0013.0252.0018-.3271-.0209-.6548-.0477-.9824-.0908Z"/><path class="cls-3" d="m66.1939,126.934c.0609-.0278.1172-.0635.1785-.0906-.0002-.0001-.0004-.0001-.0005-.0002-.0677.0303-.1301.0695-.1974.1004.0066-.0031.0129-.0065.0195-.0096Z"/><path class="cls-3" d="m65.4355,128.047c-.204.1131-.3863.2471-.5791.371.1918-.1231.3732-.2565.5759-.369.0012-.0006.0021-.0015.0032-.0021Z"/><path class="cls-3" d="m68.6421,139.8592c.1309.0086.2628.031.3928.0363-.0001-.0002-.0004-.0004-.0005-.0006-.1215-.005-.2448-.0261-.3671-.0339-.0084-.0005-.0168-.0012-.0252-.0018Z"/><path class="cls-3" d="m65.9357,127.8002c-.0502.0251-.1017.0491-.1514.0748.014-.0073.0287-.0139.0428-.0211.0358-.0183.0726-.0356.1086-.0537Z"/><path class="cls-3" d="m65.9184,127.0738c.0933-.0445.1815-.097.2755-.1398-.0067.0031-.0129.0065-.0195.0096-.0873.0402-.1694.0889-.256.1302Z"/><path class="cls-3" d="m67.12,139.6749c-.0044-.0007-.0087-.0015-.0131-.0022.1964.0349.3876.0727.5859.0987-.0027-.0004-.0053-.0009-.0079-.0013-.1912-.0252-.3755-.0618-.5649-.0952Z"/><path class="cls-3" d="m63.6328,129.3528c.0028-.0026.0053-.0054.0081-.0081-.0297.0283-.0645.0519-.0936.0806-.0005.001-.0012.0018-.0018.0028.027-.027.0596-.0487.0872-.0753Z"/><path class="cls-3" d="m65.9415,139.4215s.001.0006.0014.0009c.0976.0284.2029.0393.3021.0649-.0026-.0007-.0049-.0015-.0074-.0022-.097-.0252-.2004-.0358-.296-.0637Z"/><path class="cls-4" d="m74.0038,128.7986h-.0328c-.0792,0-.1623.002-.2473.0058-.1333-.0058-.6666-.027-1.3893-.027-.9661,0-2.2626.0366-3.4142.2048-.5758.085-1.1168.2009-1.5844.3826-.2357.0908-.454.199-.6531.3458-.1971.1469-.3826.3362-.4985.5971-.3111.7052-.5255,1.6848-.5294,2.734,0,.7188.1044,1.4685.3884,2.1641.2821.6956.7613,1.3428,1.4839,1.7679,1.1284.6608,2.5988.9158,4.0866.9197,1.5999-.002,3.2152-.3052,4.446-.8927.6821-.3362,1.1631-.9545,1.5032-1.6694.3381-.7208.5294-1.5593.5294-2.4114,0-.9854-.2609-2.0076-.941-2.8113-.6705-.7999-1.7564-1.3101-3.1476-1.3101Zm2.3573,5.9667c-.2473.5352-.5932.9081-.8772,1.0376-.9681.4695-2.4327.7632-3.849.7632h-.0521c-1.3159,0-2.5873-.2608-3.3813-.7361-.4348-.2589-.7266-.6376-.9294-1.1265-.199-.485-.2898-1.0743-.2898-1.6617-.002-.854.1951-1.71.4154-2.193.0078-.0251.1855-.172.512-.2802.5005-.1797,1.283-.3053,2.0926-.3729.8115-.0695,1.6578-.0908,2.3322-.0908.4019,0,.742.0077.9816.0135.2357.0078.3691.0135.3749.0135l.0328.002h.0309l.2164-.0059c1.1149.0078,1.7487.3556,2.168.8405.4193.4889.626,1.196.626,1.9515,0,.6473-.1545,1.3159-.4038,1.8453Z"/></svg>