<?xml version="1.0" encoding="UTF-8"?><svg id="Layer_1" xmlns="http://www.w3.org/2000/svg" viewBox="0 0 200 200"><defs><style>.cls-1{fill:#231f20;stroke-width:0px;}</style></defs><path class="cls-1" d="m87.123,124.1142c-.5025,0-1.8981-.1405-3.1581-1.5577-1.1615-1.3069-.9469-3.098-.7485-3.9653-.5605.0545-1.5242.2097-2.402.6485-1.5396.7701-5.3623.6143-6.7369-1.9393-.9609-1.7849-.1181-4.075.4654-5.2749-1.3851.3955-4.0988.9218-5.8997-.3257-1.9037-1.3173-1.6737-2.9275-1.4208-3.6829-2.5892-.7883-3.0009-4.0708-3.2035-5.6907-.2027-1.6241,2.0434-4.7787,4.7759-8.4302.3739-.499.7198-.9609,1.0147-1.3663.5276-.7254,1.1818-1.8541,2.0106-3.2832,2.0553-3.546,5.1617-8.9055,9.4757-13.2188,3.272-3.272,5.3036-5.6614,6.9368-7.5811,1.3264-1.5605,2.3747-2.7926,3.5718-3.8807,2.599-2.3628,7.6384-6.2393,10.8692-7.2331,2.8974-.8938,7.6937,2.715,8.8908,3.6655.4445-.4074,1.5193-1.0581,3.8577-1.0581,1.947,0,7.9536,4.1652,16.2266,10.0502,3.5837,2.5487,6.9682,4.957,8.7587,5.9794,2.2293,1.274,4.2784,2.7542,6.0863,4.0596,2.0889,1.5081,3.8926,2.8108,4.7096,2.8108,1.3271,0,13.2914-3.4328,17.79-4.7557l.2013.6863c-.6639.1957-16.2895,4.785-17.9912,4.785-1.0483,0-2.7598-1.2356-5.1282-2.9464-1.794-1.295-3.8269-2.7633-6.0227-4.0177-1.8212-1.0413-5.2204-3.4586-8.8188-6.0185-6.2121-4.4181-13.9428-9.9174-15.8115-9.9174-2.8066,0-3.5075,1.0154-3.5138,1.0252l-.2208.3347-.3117-.2502c-.0559-.0461-5.6104-4.632-8.491-3.7493-3.0973.9532-8.1451,4.8479-10.5995,7.0794-1.1629,1.0574-2.1979,2.2741-3.5075,3.8143-1.6409,1.9295-3.6836,4.3315-6.9759,7.6238-4.2476,4.2476-7.3261,9.5575-9.3625,13.0713-.8393,1.4473-1.5018,2.5899-2.0511,3.3454-.2963.4074-.6443.8729-1.0203,1.3746-1.9204,2.5655-4.8228,6.4427-4.639,7.9124.3075,2.4572.8903,4.7857,3.0491,5.1785l.5039.0922-.26.4417c-.0398.0699-.9847,1.7681,1.028,3.1616,2.142,1.4823,6.0674-.0238,6.1073-.0391l1.0112-.3949-.5786.919c-.0203.0321-2.0197,3.2518-.882,5.3644,1.13,2.098,4.43,2.3181,5.7865,1.6388,1.49-.745,3.1323-.7534,3.2014-.7534h.506l-.1691.478c-.0077.0231-.803,2.3279.4675,3.757,1.281,1.4417,2.6794,1.3173,2.736,1.3131l.0776.7114c-.0133.0014-.0811.0084-.1908.0084Z"/><path class="cls-1" d="m67.9856,108.0007l-.5437-.4654c.1475-.1719,3.6207-4.2183,4.9514-5.1855.7268-.5283,4.7718-5.5174,8.0221-9.526,2.8101-3.4663,4.5523-5.6083,4.9535-5.9591.9358-.8191,17.2351-16.6452,17.3993-16.8046l.499.513c-.6723.6534-16.4775,15.9988-17.4272,16.8297-.3753.3285-2.5578,3.0211-4.8689,5.871-4.3063,5.312-7.412,9.113-8.157,9.6546-1.2628.919-4.7927,5.031-4.8284,5.0723Z"/><path class="cls-1" d="m75.9043,111.4663l-.492-.5185c.1635-.1558,4.0352-3.8227,5.458-4.6488.7771-.4508,5.3127-4.9975,8.9579-8.6504,3.1518-3.1595,5.1051-5.1107,5.5398-5.4189,1.0161-.7184,18.855-14.7856,19.0353-14.9275l.4431.5619c-.7359.58-18.0339,14.2202-19.0647,14.9498-.4067.2879-2.8548,2.7416-5.4468,5.3399-4.8291,4.8402-8.3086,8.3024-9.1053,8.7643-1.3516.7841-5.2854,4.5111-5.3252,4.5481Z"/><path class="cls-1" d="m83.6036,118.8749l-.4375-.5661c.1789-.1384,4.3979-3.3992,5.8955-4.0785.8184-.3704,5.7823-4.4356,9.7713-7.702,3.4579-2.8317,5.6006-4.5803,6.0653-4.8437,1.0818-.6129,20.2408-12.8204,20.4344-12.9441l.3844.6038c-.7904.5032-19.368,12.341-20.4666,12.963-.434.2467-3.1204,2.446-5.964,4.7746-5.2854,4.328-9.0907,7.4204-9.9293,7.7999-1.4222.6457-5.7103,3.9597-5.7536,3.9932Z"/><path class="cls-1" d="m64.6675,102.4854l-.587-.4081c.1153-.167,2.8597-4.0799,4.9835-4.4223.4626-.072.8701.014,1.2167.2607.3788.1768,3.0449,1.5431,2.0665,4.4789l-.6793-.2264c.8393-2.518-1.6025-3.5683-1.7066-3.6117l-.0769-.044c-.1964-.1468-.4256-.1957-.7065-.151-1.5165.2446-3.7696,3.0603-4.5104,4.1239Z"/><path class="cls-1" d="m75.5661,111.6299l-.5577-.4487c2.9792-3.7081,2.9254-5.0359,1.2509-7.1416-1.6786-2.1126-3.4006-1.1363-3.4726-1.093l-.3676-.6143c.0224-.0133,2.3209-1.353,4.4007,1.2614,2.0316,2.5557,1.7618,4.2826-1.2537,8.0361Z"/><path class="cls-1" d="m77.8303,119.5702l-.1244-.7044c2.6284-.464,3.1029-1.1217,3.9639-2.3146.1978-.2733.413-.5717.673-.8966,1.5018-1.8771,1.5046-3.3328.0112-5.0261-1.6004-1.8163-4.9688-.5486-5.0031-.5353l-.2572-.6681c.1558-.0608,3.8646-1.4599,5.797.7296,1.7297,1.961,1.7332,3.7948.0112,5.9472-.2523.3145-.4605.6038-.6513.8687-.9071,1.2558-1.5053,2.0854-4.4202,2.5997Z"/><path class="cls-1" d="m93.5042,119.457l-.5325-.478c.0349-.0398.875-1.0329-.0405-2.5592-.9511-1.585-3.6781-1.5053-3.7088-1.506l-.0259-.7156c.1279,0,3.1784-.095,4.3483,1.8541,1.1957,1.9924.0105,3.3482-.0405,3.4048Z"/><path class="cls-1" d="m79.3608,142.8084c-2.9324,0-5.3832-1.6528-6.3812-2.4369-.622-.4885-1.8331-1.3551-3.1155-2.2727-2.2258-1.592-4.7487-3.3971-5.7327-4.3056-.594-.5486-2.2035-1.6982-3.9073-2.9163-3.4957-2.4991-5.8151-4.1924-6.189-4.9395-.5521-1.1035-9.3569-14.4844-11.7812-17.9647-1.824-2.62-13.0734-3.6305-17.2539-3.7983l.0294-.7156c.6276.0259,15.4118.6583,17.8116,4.1044,2.2838,3.2783,11.218,16.8213,11.8343,18.0541.3222.6436,3.5837,2.975,5.9654,4.6774,1.7967,1.2845,3.3489,2.3943,3.9758,2.9729.9518.8778,3.4551,2.6689,5.6642,4.2497,1.3453.9616,2.5068,1.7933,3.1406,2.2908,1.0609.8344,3.8716,2.7157,7.0493,2.1951,2.1259-.348,7.4106-4.6781,10.568-7.2646,1.0706-.8778,1.9169-1.5703,2.4635-1.9736,2.5508-1.8792,7.7083-6.0521,10.691-9.2535,1.0112-1.0846,1.4662-1.8953,1.3907-2.4795-.0881-.6863-.9448-1.2286-2.0288-1.9156-.3837-.2425-.7953-.5039-1.2181-.7981-1.9589-1.3621-3.3503-.9099-4.9597-.3879-.499.1621-1.014.3292-1.5605.4445-1.7716.3732-5.8075,4.191-7.2135,5.6306l-.0783.0804-.1104.021c-1.8387.3508-10.4017,4.5726-10.4877,4.6152l-.3173-.6415c.3494-.1726,8.4323-4.1575,10.5582-4.6523.6744-.6835,5.2826-5.2868,7.5008-5.7536.5095-.1076,1.007-.2691,1.4879-.4249,1.6409-.5339,3.3377-1.0853,5.5887.4815.4144.2879.8177.543,1.1929.7806,1.2426.7869,2.2244,1.4089,2.3558,2.4292.1069.8302-.3795,1.7737-1.5766,3.0582-3.0162,3.2364-8.2192,7.4477-10.7903,9.3415-.5325.3921-1.4138,1.1147-2.4348,1.9512-3.4209,2.8024-8.5903,7.0381-10.9056,7.4169-.4158.0685-.8253.0992-1.2258.0992Z"/><path class="cls-1" d="m95.3778,137.6754c-2.9009,0-5.4881-1.1741-5.6132-1.2314l.2991-.6499c.0342.0154,3.3859,1.5347,6.5825,1.079,2.2699-.3236,4.0317-2.2978,5.319-3.7389.5332-.5975.9546-1.0692,1.325-1.3285.4815-.3368,1.6381-1.383,2.8625-2.49,1.7828-1.6122,3.8031-3.4397,4.8186-4.0792.8778-.5535,2.1755-2.2887,3.5495-4.126,1.1922-1.5934,2.425-3.242,3.627-4.474.9309-.9539,1.346-1.7122,1.2684-2.3174-.1125-.8799-1.2614-1.6353-2.8716-2.6074-2.1867-1.3173-5.1345.2194-6.8963,1.1377-.3962.2062-.738.3851-1.0063.4969-1.1224.4668-4.604,3.7207-5.8515,4.9353l-.499-.513c.1866-.1817,4.5977-4.4678,6.0751-5.0834.2474-.1027.5703-.2719.9504-.4703,1.8953-.9882,5.0674-2.6424,7.5965-1.1154,1.8408,1.1098,3.0589,1.9274,3.2126,3.1288.1083.8477-.3578,1.7716-1.4669,2.9086-1.1685,1.1978-2.3873,2.8269-3.5655,4.4028-1.476,1.9736-2.7507,3.6788-3.7409,4.3021-.963.6066-2.9589,2.4117-4.72,4.0044-1.2957,1.1713-2.4138,2.1832-2.9324,2.5459-.3019.2118-.7191.6786-1.202,1.2188-1.2831,1.4375-3.2231,3.6103-5.7515,3.9709-.4584.0657-.9176.0936-1.369.0936Z"/><path class="cls-1" d="m103.1392,136.1791c-2.0351,0-2.917-.5528-2.9631-.5821l.3886-.601c.0098.0063,1.2887.7743,4.4195.3271,2.2699-.3236,4.0331-2.2978,5.3197-3.7396.5332-.5968.9539-1.0685,1.3236-1.3271.4822-.3375,1.6388-1.3837,2.8632-2.4907,1.7828-1.6122,3.8038-3.4397,4.8193-4.0792.8778-.5528,2.1748-2.2873,3.5481-4.1239,1.1922-1.5948,2.4257-3.2434,3.6284-4.4761.9309-.9539,1.3453-1.7122,1.2677-2.3174-.1125-.8799-1.2614-1.6353-2.8716-2.6074-2.1874-1.3187-5.1359.2201-6.8963,1.1377-.3962.2069-.738.3851-1.0063.4969l-.2753-.6611c.2467-.1027.5703-.2719.9504-.4703,1.8953-.9882,5.0674-2.6438,7.5965-1.1154,1.8408,1.1098,3.0589,1.9274,3.2126,3.1288.1083.8477-.3571,1.7716-1.4662,2.9086-1.1692,1.1985-2.388,2.8283-3.5669,4.4042-1.4753,1.9729-2.75,3.6774-3.7396,4.3007-.963.6066-2.9596,2.4117-4.7207,4.0044-1.2957,1.1713-2.4145,2.1832-2.9324,2.5459-.3019.2111-.7184.6779-1.2006,1.2181-1.2838,1.4375-3.2238,3.6103-5.7529,3.9716-.7394.1055-1.3858.1475-1.9456.1475Z"/><path class="cls-1" d="m151.0308,117.2766c-.2753,0-.5451-.0112-.8121-.0335-9.2304-.7743-17.6334-5.4301-19.0332-7.1625-.803-.9931-4.1155-.4536-6.015.1174l-.2069-.6849c.5507-.1656,5.4154-1.5703,6.7782.1174,1.1908,1.4732,9.4128,6.1338,18.537,6.8998,9.0138.7645,24.088-12.8407,24.239-12.9784l.4822.5297c-.608.5535-14.5983,13.1943-23.9692,13.195Z"/><path class="cls-1" d="m67.11,127.8474c-3.1357,0-7.7153-4.7368-8.7231-5.8221l-.2187-.2348c-2.165-2.3286-3.4719-3.734-5.5747-8.8167-2.0917-5.0555-7.7293-10.3779-7.7859-10.4318l.4892-.522c.2362.2215,5.8061,5.4804,7.9578,10.6798,2.0539,4.9639,3.2559,6.2561,5.4378,8.6029l.2187.2362c2.446,2.634,7.1332,6.716,9.1745,5.3155.2977-.2041.5996-.3997.8973-.5933,2.0686-1.3411,3.7025-2.4013,2.8758-5.2742-1.0133-3.5208-3.3216-9.3912-3.3447-9.4499l.6653-.2628c.0238.0594,2.3439,5.9612,3.3671,9.5142.9735,3.3838-1.1349,4.7508-3.1742,6.0737-.2928.1894-.5891.3816-.8813.5821-.4088.2802-.8764.4032-1.3809.4032Z"/><path class="cls-1" d="m53.4321,73.8157c-.4591,0-.8994-.0524-1.3222-.1733-3.6822-1.0518-23.7064-2.9505-23.9084-2.9694l.0671-.7128c.8267.0783,20.2925,1.9239,24.0384,2.9946,1.4403.4116,3.2552-.1237,5.356-.7415,3.1511-.9267,7.0724-2.0798,11.8169-.7499l-.1929.6891c-4.5481-1.2747-8.359-.1523-11.422.7478-1.6388.4822-3.1127.9155-4.4328.9155Z"/><path class="cls-1" d="m75.0014,82.9085c-4.8605-2.9261-5.1324-4.2336-5.6265-6.6083-.0922-.4452-.1936-.9316-.3375-1.4795-.3613-1.3732-.1265-2.6521.6793-3.6976,1.0273-1.3327,2.6801-1.9393,3.7815-1.9393,1.8282,0,11.0789,3.1812,11.4716,3.3167l-.2334.6765c-2.6452-.9113-9.8196-3.2776-11.2382-3.2776-.9616,0-2.3747.5703-3.2147,1.6605-.6751.8757-.861,1.9114-.5542,3.0791.1475.5612.2516,1.0595.3466,1.5158.4675,2.2475.7023,3.3761,5.2945,6.1401l-.369.6136Z"/><path class="cls-1" d="m71.8335,124.7739h-.7156c0-2.1867-1.8247-5.7159-5.2064-7.9494-.5151-.3396-1.0357-.42-1.592-.246-2.4173.7569-4.4775,5.8515-4.4985,5.9032l-.6646-.2656c.0895-.2222,2.2084-5.4615,4.9486-6.3204.7631-.2404,1.5039-.1279,2.2007.332,3.6291,2.3964,5.5279,6.1135,5.5279,8.5462Z"/><path class="cls-1" d="m99.6471,128.4149c-.8456-.5395-2.838-2.6361-3.4502-4.2057-.6506-1.6675,3.9988-6.1939,4.9381-7.0843l.492.5185c-2.5354,2.4061-5.0772,5.5007-4.7634,6.3057.5437,1.3928,2.4306,3.3922,3.1679,3.8619l-.3844.6038Z"/><path class="cls-1" d="m114.8792,121.3754c-3.2608-1.3593-3.6788-3.5159-3.6788-5.2435,0-1.5759,3.6885-4.6117,4.4279-5.2043l.4473.5591c-1.6081,1.2887-4.1596,3.6899-4.1596,4.6453,0,1.6793.3921,3.3964,3.2385,4.5824l-.2753.6611Z"/><path class="cls-1" d="m123.4017,119.5374c-.0985-.0496-2.4089-1.2426-2.5396-3.3894-.1286-2.1119,4.5188-5.2533,5.0492-5.6048l.3955.5968c-1.8701,1.2391-4.8081,3.6829-4.7305,4.9646.1055,1.7338,2.1287,2.7842,2.149,2.794l-.3236.6387Z"/><path class="cls-1" d="m68.0129,89.4001c-1.5927,0-2.8884-1.2957-2.8884-2.8884s1.2957-2.8884,2.8884-2.8884,2.8884,1.2957,2.8884,2.8884-1.2957,2.8884-2.8884,2.8884Zm0-5.0611c-1.1978,0-2.1727.9749-2.1727,2.1727s.9749,2.1727,2.1727,2.1727,2.1727-.9749,2.1727-2.1727-.9749-2.1727-2.1727-2.1727Z"/><path class="cls-1" d="m65.3642,94.7533c-1.23,0-2.23-1.0001-2.23-2.2293,0-1.23,1.0001-2.23,2.23-2.23,1.2293,0,2.2293,1.0001,2.2293,2.23,0,1.2293-1.0001,2.2293-2.2293,2.2293Zm0-3.7437c-.8351,0-1.5144.6793-1.5144,1.5144,0,.8344.6793,1.5137,1.5144,1.5137.8344,0,1.5137-.6793,1.5137-1.5137,0-.8351-.6793-1.5144-1.5137-1.5144Z"/><path class="cls-1" d="m58.006,103.6609c-2.2363,0-4.0554-1.8191-4.0554-4.0554s1.8191-4.0547,4.0554-4.0547,4.0547,1.8191,4.0547,4.0547-1.8191,4.0554-4.0547,4.0554Zm0-7.3945c-1.8415,0-3.3398,1.4976-3.3398,3.3391s1.4983,3.3398,3.3398,3.3398,3.3391-1.4983,3.3391-3.3398-1.4976-3.3391-3.3391-3.3391Z"/><path class="cls-1" d="m80.8333,103.4491c-1.6039,0-2.9093-1.3055-2.9093-2.9093s1.3055-2.91,2.9093-2.91,2.9093,1.3055,2.9093,2.91-1.3055,2.9093-2.9093,2.9093Zm0-5.1037c-1.2097,0-2.1937.9847-2.1937,2.1944s.984,2.1937,2.1937,2.1937,2.1937-.984,2.1937-2.1937-.984-2.1944-2.1937-2.1944Z"/><path class="cls-1" d="m85.8944,82.9595c-1.5808,0-2.8674-1.2859-2.8674-2.8667s1.2866-2.8674,2.8674-2.8674,2.8667,1.2866,2.8667,2.8674-1.2859,2.8667-2.8667,2.8667Zm0-5.0184c-1.1866,0-2.1518.9651-2.1518,2.1518,0,1.186.9651,2.1511,2.1518,2.1511,1.186,0,2.1511-.9651,2.1511-2.1511,0-1.1866-.9651-2.1518-2.1511-2.1518Z"/><path class="cls-1" d="m73.2123,66.8307c-2.3083,0-4.1868-1.8785-4.1868-4.1868s1.8785-4.1868,4.1868-4.1868,4.1868,1.8785,4.1868,4.1868-1.8785,4.1868-4.1868,4.1868Zm0-7.658c-1.9142,0-3.4712,1.557-3.4712,3.4712s1.557,3.4712,3.4712,3.4712,3.4712-1.557,3.4712-3.4712-1.557-3.4712-3.4712-3.4712Z"/><path class="cls-1" d="m54.9646,88.0367c-2.7954,0-5.0695-2.2741-5.0695-5.0695s2.2741-5.0688,5.0695-5.0688,5.0688,2.2741,5.0688,5.0688-2.2741,5.0695-5.0688,5.0695Zm0-9.4226c-2.4006,0-4.3538,1.9526-4.3538,4.3531s1.9533,4.3538,4.3538,4.3538,4.3531-1.9533,4.3531-4.3538-1.9526-4.3531-4.3531-4.3531Z"/><path class="cls-1" d="m109.5309,77.3023c-1.8415,0-3.3398-1.4983-3.3398-3.3398s1.4983-3.3398,3.3398-3.3398,3.3391,1.4983,3.3391,3.3398-1.4976,3.3398-3.3391,3.3398Zm0-5.964c-1.4473,0-2.6242,1.1769-2.6242,2.6242s1.1769,2.6242,2.6242,2.6242,2.6235-1.1769,2.6235-2.6242-1.1769-2.6242-2.6235-2.6242Z"/><path class="cls-1" d="m121.4533,128.4708c-1.1182,0-2.0274-.9092-2.0274-2.0274s.9092-2.0274,2.0274-2.0274,2.0274.9092,2.0274,2.0274-.9092,2.0274-2.0274,2.0274Zm0-3.3391c-.7233,0-1.3117.5884-1.3117,1.3117s.5884,1.3117,1.3117,1.3117,1.3117-.5884,1.3117-1.3117-.5884-1.3117-1.3117-1.3117Z"/><path class="cls-1" d="m122.8042,136.1798c-1.8624,0-3.3782-1.5158-3.3782-3.3782s1.5158-3.3782,3.3782-3.3782,3.3782,1.5158,3.3782,3.3782-1.5158,3.3782-3.3782,3.3782Zm0-6.0409c-1.4683,0-2.6626,1.1943-2.6626,2.6626s1.1943,2.6626,2.6626,2.6626,2.6626-1.1943,2.6626-2.6626-1.1943-2.6626-2.6626-2.6626Z"/><path class="cls-1" d="m125.8847,125.8452c-1.4222,0-2.5795-1.1573-2.5795-2.5795s1.1573-2.5788,2.5795-2.5788,2.5788,1.1566,2.5788,2.5788-1.1566,2.5795-2.5788,2.5795Zm0-4.4426c-1.028,0-1.8638.8358-1.8638,1.8631,0,1.028.8358,1.8638,1.8638,1.8638,1.0273,0,1.8631-.8358,1.8631-1.8638,0-1.0273-.8358-1.8631-1.8631-1.8631Z"/><path class="cls-1" d="m129.4482,131.5702c-1.5123,0-2.7423-1.23-2.7423-2.7423s1.23-2.7423,2.7423-2.7423,2.7423,1.23,2.7423,2.7423-1.23,2.7423-2.7423,2.7423Zm0-4.769c-1.1175,0-2.0267.9092-2.0267,2.0267s.9092,2.0267,2.0267,2.0267,2.0267-.9092,2.0267-2.0267-.9092-2.0267-2.0267-2.0267Z"/><path class="cls-1" d="m135.4932,127.8481c-2.4781,0-4.4936-2.0155-4.4936-4.4936s2.0155-4.4943,4.4936-4.4943,4.4943,2.0162,4.4943,4.4943-2.0162,4.4936-4.4943,4.4936Zm0-8.2723c-2.0833,0-3.778,1.6954-3.778,3.7787s1.6947,3.778,3.778,3.778,3.7787-1.6947,3.7787-3.778-1.6954-3.7787-3.7787-3.7787Z"/><path class="cls-1" d="m132.6909,118.9496c-1.3928,0-2.5263-1.1335-2.5263-2.5263s1.1335-2.5263,2.5263-2.5263,2.5263,1.1335,2.5263,2.5263-1.1335,2.5263-2.5263,2.5263Zm0-4.3371c-.9987,0-1.8107.8121-1.8107,1.8107s.8121,1.8107,1.8107,1.8107,1.8107-.8121,1.8107-1.8107-.8121-1.8107-1.8107-1.8107Z"/><path class="cls-1" d="m149.9196,126.8012c-1.6856,0-3.0575-1.3718-3.0575-3.0575s1.3718-3.0568,3.0575-3.0568,3.0575,1.3711,3.0575,3.0568-1.3718,3.0575-3.0575,3.0575Zm0-5.3986c-1.2915,0-2.3418,1.0504-2.3418,2.3412,0,1.2915,1.0504,2.3418,2.3418,2.3418s2.3418-1.0504,2.3418-2.3418c0-1.2908-1.0504-2.3412-2.3418-2.3412Z"/><path class="cls-1" d="m77.3467,125.1317c-1.3886,0-2.5187-1.13-2.5187-2.5187s1.13-2.518,2.5187-2.518,2.518,1.1293,2.518,2.518-1.1293,2.5187-2.518,2.5187Zm0-4.321c-.9945,0-1.803.8086-1.803,1.8023,0,.9945.8086,1.803,1.803,1.803.9938,0,1.8023-.8086,1.8023-1.803,0-.9938-.8086-1.8023-1.8023-1.8023Z"/></svg>