<?xml version="1.0" encoding="utf-8"?>
<!-- Generator: Adobe Illustrator 27.1.1, SVG Export Plug-In . SVG Version: 6.00 Build 0)  -->
<svg version="1.1" id="Layer_1" xmlns="http://www.w3.org/2000/svg" xmlns:xlink="http://www.w3.org/1999/xlink" x="0px" y="0px"
	 viewBox="0 0 383.3 236.6" style="enable-background:new 0 0 383.3 236.6;" xml:space="preserve">
<style type="text/css">
	.st0{fill:#8F8F8F;}
</style>
<g>
	<path class="st0" d="M0,105.6c0.7-1.5,1.6-3,2.2-4.6C14.3,70.4,26.3,39.8,38.4,9.2c3.4-8.6,9-11,17.5-7.7
		C65,5.1,74.2,8.7,83.3,12.3c5.6,2.2,8.6,6.1,8.6,12.3c0,0.9,0.9,2.2,1.7,2.6c7.1,3.5,14.5,5.2,22.6,5.4c15.6,0.3,31.5,0,46.7,4.9
		c0.9,0.3,2.3-0.2,3.2-0.8c1.4-1,2.6-2.4,3.8-3.6c7.6-7.9,16.8-10.7,27.6-8.9c6,1,12.1,1.9,18.1,2.9c4,0.7,6.3,3,6,6.3
		c-0.4,3.5-3.2,5.4-7.5,4.8c-6.8-0.9-13.5-2.1-20.3-3.1c-5.7-0.9-10.7,0.7-14.7,4.8c-16.2,16.1-33.4,31.1-52.5,43.8
		c-3.3,2.2-3.3,4.3-0.3,6.8c6.5,5.4,13.8,5.8,21.5,3.5c9.9-3,18-9,25.7-15.6c7.7-6.6,13.7-6.5,20.9,0.5
		c15.7,15.3,34.3,22.2,56.2,19.1c3.2-0.4,5.7,0.4,8.3,2.3c14.8,11,29.7,21.9,44.7,33.1c7.9-5.1,15.9-10.2,24.1-15.5
		c-10.6-27-21.2-53.8-31.9-80.9c-3.7,1.3-7.1,2.3-10.4,3.8c-11.2,5.1-22.8,6.1-34.7,3.4c-2.9-0.7-5.9-0.9-8.8-1.5
		c-3.8-0.7-5.8-3-5.4-6.4c0.4-3.3,2.9-5.2,6.8-4.7c4.1,0.5,8.2,1.1,12.2,1.9c7.8,1.6,15.3,1.1,22.7-2c3.8-1.6,7.7-2.8,11.5-4.4
		c0.8-0.3,1.7-1.7,1.7-2.6c0-6,2.7-9.9,8.3-12c9.6-3.7,19.2-7.7,28.8-11.4c7-2.7,13.1-0.1,15.8,6.8c4.8,11.9,9.5,23.8,14.1,35.8
		c1.5,3.9,0.4,7.1-2.9,8.4c-3.1,1.2-5.9-0.4-7.5-4.3c-4.3-10.8-8.5-21.5-12.8-32.3c-0.5-1.4-1.2-2.7-1.8-4.3
		c-10.3,4.1-20.5,8.1-30.9,12.2c12.9,32.7,25.6,64.9,38.5,97.7c10.4-4.1,20.5-8.1,31-12.2c-4-10.1-7.8-19.9-11.7-29.7
		c-0.8-2-1.7-3.9-2.3-5.9c-1-3.1,0.3-6.1,3-7.2c2.9-1.2,6.1,0,7.4,3.2c4.8,12,9.6,24,14.2,36.2c2,5.3-0.6,11.3-5.8,13.5
		c-10.6,4.5-21.2,8.6-31.9,12.7c-3.7,1.4-7.3,0.6-10.7-1.7c-0.9-0.6-2.7-1-3.4-0.5c-6.7,4.1-13.2,8.4-19.8,12.6
		c4.2,21.4-5.6,33-26.1,31.5c-4.3,15.5-10.1,20-26.9,20.6c-0.7,7.3-3.6,13.6-9.9,17.8c-6.2,4.1-13,4.7-20.3,2.6
		c-2.1,10.3-7.9,17.1-18.4,19.4c-10.6,2.3-18-4-25.9-10.1c-1.7,2-3.4,4-5.1,5.8c-5.7,6.1-12.6,8.4-20.7,6.3
		c-8.1-2.2-12.9-7.6-14.8-15.7c-0.3-1.1-1.6-2.5-2.5-2.6c-11.9-1.4-17.4-6.1-20.4-17.9c-0.1-0.3-0.2-0.7-0.4-1
		c-14.4-1.9-20.1-6.7-22.5-19.2c-19.7-3.2-27.1-14.9-19.6-31.7c-1.3-0.9-2.6-2-4-2.9c-7.3-4.6-14.5-9.3-21.9-13.7
		c-1.1-0.6-2.8-0.3-4.2-0.2c-3.3,0.1-6.8,1.3-9.7,0.3c-10.2-3.5-20.2-7.8-30.3-11.7c-3.8-1.5-5.7-4.6-7.4-7.9
		C0,109.6,0,107.6,0,105.6z M190.5,215.5c4.1,2.5,7.5,5.2,11.5,6.9c5.1,2.1,10.8-0.6,13.2-5.4c2.4-4.9,1.2-9.6-3.3-13.1
		c-2.9-2.2-5.8-4.4-8.6-6.7c-3-2.5-3.6-5.5-1.6-8.2c2-2.7,5.3-2.9,8.6-0.6c1.4,1,2.7,2.2,4.1,3.2c4.8,3.6,9.4,7.4,14.4,10.7
		c5.4,3.7,12.1,2.4,15.6-2.5c3.6-5,2.4-11.3-2.9-15.4c-4.6-3.6-9.3-7.1-13.9-10.8c-3-2.4-3.6-5.6-1.7-8.2c2-2.8,5.2-3.1,8.5-0.7
		c1.6,1.2,3.2,2.4,4.7,3.6c5.5,4.1,10.8,8.5,16.4,12.4c5.3,3.6,12.2,2.1,15.6-2.9c3.4-5.1,2.3-11-3-15.1
		c-5.4-4.2-10.9-8.4-16.3-12.6c-2.1-1.7-3.7-4-2.2-6.5c1.1-1.7,3.3-3.2,5.3-3.7c1.3-0.3,3.2,1,4.6,2c7.6,5.7,15,11.5,22.6,17.2
		c6.2,4.6,12.8,3.9,16.8-1.5c3.8-5.1,2.4-12.1-3.4-16.4C282,131.2,268,120.9,254,110.8c-1.3-0.9-3.2-1.4-4.8-1.3
		c-24.3,2.3-44.9-5.7-62.3-22.4c-2.4-2.3-3.9-2.4-6.4-0.2c-8.4,7.5-17.6,13.9-28.5,17.4c-11.2,3.6-21.9,2.9-31.6-4.3
		c-10.5-7.8-10-18.8,0.5-26.5c10.7-7.7,20.9-16.1,31.4-24.2c0.9-0.7,2-1,2.9-1.5c-0.3-0.6-0.6-1.2-1-1.8c-7.6-0.6-15.3-1.4-22.9-1.9
		c-9.3-0.6-18.7-0.4-27.9-1.7c-5.4-0.7-10.5-3.5-16.2-5.5c-10.8,27.5-21.7,55-32.5,82.5c10.3,6.5,20.1,12.8,30.2,19.2
		c3.1-3.5,6-7.1,9.1-10.5c10.8-11.4,29.8-6.9,34.4,8c0.5,1.5,0.8,3.1,1.1,4.6c13.8,1.1,18.9,5.5,22.8,19.2
		c12.8,0.2,20.3,6.8,22.5,19.4c9.4-0.2,16.6,3.4,20.5,11.9C199.3,200,197.2,207.9,190.5,215.5z M42.1,121.1
		c13-32.9,25.7-65.2,38.5-97.7c-10.6-4.2-20.7-8.1-31-12.2C36.8,43.9,24,76.3,11.2,108.8C21.6,113,31.6,116.9,42.1,121.1z
		 M96.2,167.8c1-0.5,3.5-0.9,4.8-2.4c5.4-5.9,10.6-11.9,15.5-18.2c2.9-3.8,1.8-9.1-1.9-12c-3.5-2.9-8.8-2.9-11.9,0.5
		c-5.3,5.8-10.4,11.8-15.3,17.9c-2.3,2.9-2.2,6.3-0.4,9.5C88.7,166.1,91.4,167.7,96.2,167.8z M141.2,161.7c-0.5-4-2.8-7.4-6.2-8.7
		c-3.9-1.4-7.5-0.8-10.2,2.3c-4.7,5.3-9.3,10.7-13.8,16.2c-3.6,4.4-3.2,9.9,0.9,13.3c4,3.3,9.3,2.9,13-1.3c4.6-5.2,9.2-10.5,13.5-16
		C139.7,165.9,140.3,163.7,141.2,161.7z M164.3,225.4c1-0.5,3.4-1.1,4.8-2.6c5.3-5.8,10.4-11.7,15.3-17.9c2.9-3.7,1.9-9.1-1.6-12.1
		c-3.4-2.9-8.8-3.1-11.9,0.2c-5.4,5.8-10.6,11.9-15.5,18.2c-2.3,2.8-2.1,6.3-0.3,9.5C156.8,223.8,159.5,225.3,164.3,225.4z
		 M163.9,181c-0.6-4.1-2.7-7.3-6.2-8.8c-3.7-1.5-7.6-0.7-10.5,2.6c-4.6,5.2-9.2,10.5-13.6,15.9c-3.7,4.5-3.3,9.9,0.8,13.3
		c3.9,3.3,9.5,2.8,13.3-1.5c4.4-5,8.9-10.1,13.1-15.4C162.1,185.4,162.8,183.1,163.9,181z"/>
</g>
</svg>
