<?xml version="1.0" encoding="utf-8"?>
<!-- Generator: Adobe Illustrator 27.8.1, SVG Export Plug-In . SVG Version: 6.00 Build 0)  -->
<!DOCTYPE svg PUBLIC "-//W3C//DTD SVG 1.1//EN" "http://www.w3.org/Graphics/SVG/1.1/DTD/svg11.dtd" [
	<!ENTITY ns_extend "http://ns.adobe.com/Extensibility/1.0/">
	<!ENTITY ns_ai "http://ns.adobe.com/AdobeIllustrator/10.0/">
	<!ENTITY ns_graphs "http://ns.adobe.com/Graphs/1.0/">
	<!ENTITY ns_vars "http://ns.adobe.com/Variables/1.0/">
	<!ENTITY ns_imrep "http://ns.adobe.com/ImageReplacement/1.0/">
	<!ENTITY ns_sfw "http://ns.adobe.com/SaveForWeb/1.0/">
	<!ENTITY ns_custom "http://ns.adobe.com/GenericCustomNamespace/1.0/">
	<!ENTITY ns_adobe_xpath "http://ns.adobe.com/XPath/1.0/">
]>
<svg version="1.1" id="Layer_1" xmlns:x="&ns_extend;" xmlns:i="&ns_ai;" xmlns:graph="&ns_graphs;"
	 xmlns="http://www.w3.org/2000/svg" xmlns:xlink="http://www.w3.org/1999/xlink" x="0px" y="0px" width="500px" height="500px"
	 viewBox="0 0 500 500" style="enable-background:new 0 0 500 500;" xml:space="preserve">
<style type="text/css">
	.st0{fill:#8D908F;}
</style>
<metadata>
	<sfw  xmlns="&ns_sfw;">
		<slices></slices>
		<sliceSourceBounds  bottomLeftOrigin="true" height="280.8571" width="450.725" x="24.6375" y="-390.4285"></sliceSourceBounds>
	</sfw>
</metadata>
<path class="st0" d="M469.8269,129.9138c-3.0893-0.1686-76.1724-3.9811-116.5167,19.7467
	c-2.5101,1.4759-3.5573,4.5701-2.4577,7.2684c0.0499,0.1222,0.5974,1.4672,1.5358,3.7854
	c-16.9307-5.8017-47.5782-16.4553-65.0908-23.4601c-23.2689-9.3092-48.5427-13.8372-76.9096,11.3323
	c-19.9452-3.1082-64.5502-2.3762-82.1609-1.9399c1.0882-6.1252,1.7363-10.0447,1.8691-10.8536
	c0.4222-2.5739-0.9073-5.1183-3.262-6.2424c-41.3874-19.7516-94.1085-19.9791-96.3323-19.9791c-3.239,0-5.8644,2.6262-5.8644,5.8644
	v172.3648c0,3.2382,2.6254,5.8644,5.8644,5.8644h53.6039c2.11,0,4.0572-1.1339,5.0995-2.9682
	c2.2521-3.9657,4.4713-8.7537,6.642-14.1383c10.3244,10.6192,30.4117,31.0825,40.8873,40.4203l2.2482,2.0159
	c53.329,47.9514,90.3754,71.4337,112.804,71.4337c2.2875,0,4.4229-0.2454,6.4077-0.7314c4.7346-1.1633,8.6259-3.7063,11.5193-7.4614
	c3.9186,2.1085,8.247,3.1711,12.5815,3.1711c6.5337,0,13.0756-2.4021,18.2167-7.2193c4.4769-4.1938,7.2979-9.6279,8.1504-15.5791
	c9.5117,4.0515,20.9854,2.2417,28.7365-5.4276c3.9631-3.9222,6.5108-8.8605,7.4042-14.2341
	c10.847,6.5779,25.0221,5.2345,34.4979-3.9729c5.6484-5.4897,8.7869-13.1541,8.6085-21.0295
	c-0.0747-3.2999-0.7363-6.5342-1.9051-9.5662l17.9539-11.5297c1.3414,4.3144,2.3646,7.9554,2.9763,10.7087
	c0.5972,2.6819,2.9764,4.5914,5.7253,4.5914h56.8381c3.2382,0,5.8644-2.6263,5.8644-5.8644V135.7684
	C475.3625,132.6578,472.9326,130.0872,469.8269,129.9138z M80.601,281.9362H36.3664V121.4705
	c14.0844,0.6234,50.8943,3.5065,81.4045,16.8341c-3.0645,17.705-15.1436,84.5259-29.5208,125.2132
	c-0.011,0.0255-0.017,0.0523-0.0275,0.0779C85.7387,270.6177,83.1871,276.8647,80.601,281.9362z M371.1261,330.5634
	c-6.4518,6.2719-16.6148,6.3292-23.1387,0.1375l-7.6087-7.2193c-1.0178-1.4333-2.1877-2.7767-3.5049-4.0089l-51.7509-48.4308
	c-2.3578-2.209-6.0591-2.0895-8.2747,0.2602c-2.2156,2.3513-2.1125,6.051,0.2307,8.2763l54.2543,51.4874
	c1.332,2.1779,2.0617,4.683,2.0977,7.3142c0.054,3.9614-1.4661,7.6774-4.2822,10.4624c-5.5912,5.5339-14.7004,5.5388-20.3014,0.0114
	l-3.4476-3.4051c-1.2584-2.1746-2.8373-4.1856-4.7158-5.9757l-39.2414-37.4317c-2.3268-2.2188-6.0117-2.1517-8.2567,0.1588
	c-2.2417,2.3104-2.2025,5.9953,0.0884,8.2567l42.5745,42.0444c0.9,1.9488,1.3679,4.0891,1.3581,6.3127
	c-0.018,4.1415-1.6919,7.9835-4.7158,10.8159c-5.8334,5.4619-14.8787,5.3719-20.5927-0.1964
	c-0.0193-0.0189-0.0377-0.0368-0.0571-0.0557c-0.0053-0.0051-0.0103-0.0103-0.0157-0.0153
	c-32.3971-31.5822-46.231-45.8046-48.5643-48.7983c-0.8148-1.7165-2.4479-3.0059-4.4711-3.2955
	c-3.2112-0.4647-6.177,1.7704-6.6351,4.976c-0.5419,3.795-0.6559,4.6534,48.4688,52.5764
	c-1.3034,1.8123-2.9882,2.9351-5.2258,3.4844c-9.659,2.3776-36.6005-3.3168-108.5734-68.0319l-2.2859-2.0503
	c-11.5964-10.3365-36.286-35.7058-44.1852-43.867c11.1922-32.8035,20.6329-78.7126,25.7217-105.9176
	c13.2707-0.3474,51.3699-1.1214,73.7857,0.7344c-0.9545,1.0742-1.912,2.1788-2.8735,3.3242
	c-21.3445,25.4246-31.0404,45.3185-28.8175,59.1255c0.9172,5.6959,3.8592,10.2252,8.5087,13.0952
	c7.6046,4.6978,21.3085,5.385,33.3262,1.6755c11.1088-3.4313,19.8048-10.2088,24.811-19.2526
	c6.1794-1.1241,18.5906-3.7781,26.4318-8.0865l109.3252,97.04c3.5115,3.1188,5.5045,7.4205,5.6108,12.1151
	C376.2902,322.9039,374.4936,327.2908,371.1261,330.5634z M379.6287,298.5317c-0.4113-0.4135-0.8318-0.8189-1.2701-1.2078
	l-112.7598-100.09c-2.3121-2.0535-5.8186-1.957-8.0145,0.2144c-3.158,3.1204-16.7866,6.9052-27.6025,8.6216
	c-1.9619,0.3126-3.6342,1.5954-4.4409,3.41c-4.1889,9.425-12.6436,13.7448-18.9981,15.7067
	c-9.5862,2.96-19.5798,2.0961-23.7007-0.4467c-1.7353-1.0718-2.7179-2.6541-3.0918-4.9808
	c-0.751-4.6651,0.3011-18.8452,26.2207-49.7219c3.3418-3.9805,6.6052-7.4675,9.8105-10.5193
	c0.3196-0.2443,0.6163-0.5169,0.8811-0.8235c22.8684-21.2643,42.784-19.9519,66.2792-10.549
	c22.041,8.8152,64.401,23.2617,75.2298,26.9326c10.8552,27.0899,31.1031,78.3102,42.0089,110.2559L379.6287,298.5317z
	 M463.6336,300.4197h-46.4051c-8.6478-31.5443-44.5659-120.8921-53.541-143.0589c31.7898-15.9865,83.1135-16.304,99.946-15.9243
	V300.4197z"/>
</svg>
