<?xml version="1.0" encoding="utf-8"?>
<!-- Generator: Adobe Illustrator 27.8.1, SVG Export Plug-In . SVG Version: 6.00 Build 0)  -->
<!DOCTYPE svg PUBLIC "-//W3C//DTD SVG 1.1//EN" "http://www.w3.org/Graphics/SVG/1.1/DTD/svg11.dtd" [
	<!ENTITY ns_extend "http://ns.adobe.com/Extensibility/1.0/">
	<!ENTITY ns_ai "http://ns.adobe.com/AdobeIllustrator/10.0/">
	<!ENTITY ns_graphs "http://ns.adobe.com/Graphs/1.0/">
	<!ENTITY ns_vars "http://ns.adobe.com/Variables/1.0/">
	<!ENTITY ns_imrep "http://ns.adobe.com/ImageReplacement/1.0/">
	<!ENTITY ns_sfw "http://ns.adobe.com/SaveForWeb/1.0/">
	<!ENTITY ns_custom "http://ns.adobe.com/GenericCustomNamespace/1.0/">
	<!ENTITY ns_adobe_xpath "http://ns.adobe.com/XPath/1.0/">
]>
<svg version="1.1" id="Layer_1" xmlns:x="&ns_extend;" xmlns:i="&ns_ai;" xmlns:graph="&ns_graphs;"
	 xmlns="http://www.w3.org/2000/svg" xmlns:xlink="http://www.w3.org/1999/xlink" x="0px" y="0px" width="500px" height="500px"
	 viewBox="0 0 500 500" style="enable-background:new 0 0 500 500;" xml:space="preserve">
<style type="text/css">
	.st0{fill:#8D908F;}
</style>
<metadata>
	<sfw  xmlns="&ns_sfw;">
		<slices></slices>
		<sliceSourceBounds  bottomLeftOrigin="true" height="372.1375" width="447.4843" x="26.2571" y="-436.0687"></sliceSourceBounds>
	</sfw>
</metadata>
<g>
	<path class="st0" d="M473.7413,156.4412v-0.0813c0-0.0306-0.0052-0.0604-0.0056-0.0909c-0.003-0.195-0.0148-0.3888-0.0359-0.5815
		c-0.0076-0.0697-0.0172-0.1386-0.027-0.2078c-0.024-0.1663-0.0551-0.3308-0.0923-0.4941c-0.0157-0.069-0.0294-0.1382-0.0474-0.2065
		c-0.054-0.2043-0.1168-0.4058-0.191-0.6035c-0.0066-0.0176-0.011-0.0359-0.0178-0.0533c-0.0818-0.212-0.1782-0.4181-0.2828-0.6202
		c-0.0319-0.0616-0.0678-0.1204-0.1017-0.1809c-0.0806-0.1438-0.1659-0.2845-0.2579-0.4218
		c-0.0406-0.0606-0.0821-0.1202-0.1249-0.1794c-0.1031-0.1427-0.213-0.2805-0.3286-0.4146
		c-0.0359-0.0417-0.0696-0.0847-0.1068-0.1254c-0.317-0.3487-0.6763-0.6633-1.0754-0.937
		c-0.0138-0.0095-0.0257-0.0211-0.0396-0.0305c-0.0335-0.0226-0.0699-0.0391-0.1038-0.061
		c-0.1502-0.0971-0.3048-0.1888-0.4655-0.2739c-0.0666-0.0353-0.1335-0.0687-0.2012-0.1014
		c-0.0652-0.0316-0.1265-0.0679-0.1932-0.0975l-194.9632-86.217c-1.6014-0.7072-3.4247-0.7072-5.0261,0l-194.9633,86.217
		c-2.3991,1.0617-3.7872,3.4567-3.6898,5.9285v81.7132c-27.0463,16.4841-45.1432,46.2601-45.1432,80.184
		c0,51.7396,42.0946,93.8342,93.8342,93.8342c19.4227,0,37.4857-5.9326,52.4731-16.08l97.6813,39.3544
		c0.0982,0.0396,0.1985,0.0694,0.298,0.1037c0.1241,0.0428,0.2477,0.0844,0.3739,0.1192c0.1929,0.0532,0.3871,0.0968,0.5827,0.131
		c0.1104,0.0192,0.2205,0.0344,0.3317,0.0477c0.1785,0.0213,0.3572,0.0339,0.5364,0.0396c0.0662,0.0021,0.1317,0.0146,0.1981,0.0146
		c0.2949,0,0.5894-0.0281,0.8826-0.0703c0.0184-0.0027,0.0368-0.0051,0.0552-0.0079c0.4688-0.0718,0.933-0.1912,1.3828-0.3724
		l194.9633-78.534c2.3519-0.9463,3.8909-3.2271,3.8909-5.761V156.4748C473.7415,156.4636,473.7412,156.4524,473.7413,156.4412z
		 M272.5665,76.9351l179.0014,79.1587l-49.7696,20.048L223.0366,98.8384L272.5665,76.9351z M272.5623,228.1999L93.5629,156.0947
		l56.8665-25.1477l175.3342,75.8226L272.5623,228.1999z M207.5596,105.6827l178.0325,76.9871l-43.6225,17.5717l-176.0634-76.1387
		L207.5596,105.6827z M348.0953,211.1666l45.9197-18.4968v53.0719l-45.9197,20.2726V211.1666z M38.6803,318.5043
		c0-44.8884,36.5209-81.4093,81.4111-81.4093c44.8884,0,81.4093,36.5209,81.4093,81.4093c0,44.8902-36.5209,81.411-81.4093,81.411
		C75.2012,399.9153,38.6803,363.3945,38.6803,318.5043z M213.9238,318.5043c0-51.7396-42.0929-93.8325-93.8325-93.8325
		c-12.8503,0-25.1046,2.5989-36.2678,7.2948v-66.402l182.5314,73.5269v181.5609l-82.6045-33.2792
		C202.2932,370.2197,213.9238,345.6962,213.9238,318.5043z M461.3182,347.1289l-182.54,73.5287V239.0881l56.8939-22.9174v59.3759
		c0,2.1005,1.0607,4.0573,2.8198,5.2046c1.0243,0.6673,2.2046,1.007,3.3918,1.007c0.851,0,1.7072-0.175,2.5096-0.5286
		l58.3429-25.7581c2.2496-0.9948,3.702-3.2219,3.702-5.683v-62.1229l54.8801-22.1061V347.1289z"/>
	<path class="st0" d="M127.8975,291.3563H99.4584l14.8591-14.8505H96.4343l-21.061,21.0612l21.061,21.0612h17.8832l-14.8574-14.8487
		h28.4373c13.0125,0,23.6002,10.5861,23.6002,23.5985c0,13.0142-10.5878,23.602-23.6002,23.602h-21.9485
		c-3.4299,0-6.2116,2.7817-6.2116,6.2115c0,3.4299,2.7817,6.2116,6.2116,6.2116h21.9485c19.8635,0,36.0234-16.1616,36.0234-36.0251
		C163.9208,307.5161,147.761,291.3563,127.8975,291.3563z"/>
</g>
</svg>
