<?xml version="1.0" encoding="UTF-8"?><svg id="Layer_1" xmlns="http://www.w3.org/2000/svg" viewBox="0 0 20 20"><defs><style>.cls-1{fill:#8f8f8f;}</style></defs><path class="cls-1" d="M4.8,20c-.4-.09-.81-.17-1.21-.27-.21-.05-.4-.15-.6-.24-.23-.11-.32-.32-.22-.53,.09-.21,.31-.29,.54-.18,.63,.29,1.3,.44,2,.43,2.17-.03,4.03-1.7,4.29-3.87,.28-2.38-1.31-4.52-3.67-4.91-2.46-.41-4.8,1.37-5.08,3.86-.09,.82,.04,1.59,.37,2.34,.02,.04,.03,.07,.05,.11,.08,.22,0,.43-.2,.52-.2,.08-.4,0-.5-.2-.25-.5-.41-1.03-.48-1.58-.28-2.29,.88-4.4,2.94-5.39,.15-.07,.3-.14,.45-.18,.15-.04,.2-.11,.2-.27,0-1.58,0-3.16-.01-4.74,0-.34,.11-.53,.41-.69,1.45-.78,2.89-1.58,4.34-2.38C9.52,1.22,10.63,.61,11.73,0c.08,0,.16,0,.23,0,.03,.02,.06,.05,.09,.07,2.52,1.39,5.05,2.78,7.57,4.17,.14,.08,.25,.2,.37,.3v2.97c-.16,.23-.31,.31-.49,.26-.2-.06-.29-.21-.29-.51,0-.31,0-.61,0-.92v-.99s-.07,.03-.09,.04c-.68,.37-1.36,.74-2.03,1.12-.06,.04-.11,.15-.11,.23,0,.72,0,1.44,0,2.17,0,.23-.08,.38-.28,.49-.51,.27-1.01,.56-1.52,.83-.36,.2-.64,.03-.64-.38,0-.39,0-.78,0-1.17,0-.24,0-.49,0-.76-.08,.04-.14,.07-.2,.1-.64,.35-1.28,.71-1.93,1.06-.14,.08-.18,.16-.18,.32,0,2.4,0,4.8,0,7.2v.23c.07-.03,.11-.04,.15-.06,2.24-1.23,4.47-2.46,6.71-3.69,.11-.06,.14-.12,.14-.24,0-.75,0-1.51,0-2.26,0-.27,.16-.44,.39-.45,.2,0,.3,.13,.39,.27v2.97c-.13,.1-.25,.22-.39,.31-.16,.1-.33,.18-.49,.27-2.33,1.28-4.66,2.56-6.99,3.85-.21,.11-.38,.12-.58,0-.45-.26-.91-.5-1.36-.75-.07-.04-.14-.07-.21-.11-.03,.06-.06,.11-.08,.15-.7,1.38-1.79,2.29-3.27,2.72-.32,.09-.65,.13-.97,.2h-.86Zm-.34-10.35c.08,0,.14,0,.2-.01,2.1-.25,4.2,.87,5.17,2.77,.59,1.15,.73,2.35,.44,3.6-.03,.12-.01,.19,.11,.25,.21,.1,.41,.22,.61,.34,.14,.08,.29,.15,.45,.24,0-.06,.01-.08,.01-.11,0-2.47,0-4.93,0-7.4,0-.13-.07-.18-.16-.23-2.21-1.22-4.42-2.43-6.64-3.65-.06-.03-.12-.06-.19-.09v4.31Zm.43-4.99s.05,.04,.06,.05c2.26,1.24,4.51,2.49,6.78,3.72,.06,.03,.16,.03,.23,0,.25-.12,.49-.26,.74-.4,.47-.26,.93-.51,1.41-.78-.07-.04-.11-.07-.16-.1-.74-.41-1.49-.82-2.23-1.23-1.47-.81-2.93-1.62-4.4-2.42-.07-.04-.18-.06-.24-.03-.72,.39-1.44,.78-2.17,1.19Zm13.9,.01s-.07-.05-.09-.06c-2.25-1.24-4.49-2.47-6.74-3.7-.07-.04-.19-.03-.26,0-.64,.34-1.26,.69-1.89,1.04-.05,.03-.09,.06-.15,.1,.49,.27,.96,.53,1.42,.78,1.79,.99,3.58,1.97,5.37,2.95,.07,.04,.17,.07,.23,.04,.7-.38,1.4-.76,2.12-1.16ZM7.96,2.97c.63,.35,1.23,.68,1.83,1.01,1.65,.91,3.31,1.82,4.97,2.73,.07,.04,.17,.08,.22,.06,.27-.13,.52-.28,.81-.44-.09-.05-.15-.09-.21-.12-.86-.48-1.73-.95-2.59-1.43-1.34-.74-2.67-1.47-4.01-2.2-.06-.03-.16-.06-.21-.04-.26,.13-.51,.27-.8,.44Zm8.24,4.02c-.28,.15-.52,.29-.76,.42-.1,.05-.12,.11-.12,.21,0,.42,0,.84,0,1.27,0,.11,0,.23,0,.37,.27-.15,.51-.29,.75-.41,.11-.06,.14-.13,.14-.25,0-.42,0-.83,0-1.25,0-.11,0-.22,0-.37Z"/><path class="cls-1" d="M20,9.06s-.04,.05-.06,.08c-.12,.17-.28,.23-.45,.17-.18-.06-.28-.19-.27-.38,0-.18,.1-.3,.27-.36,.17-.06,.34,.01,.45,.18,.02,.03,.04,.05,.05,.08v.23Z"/><path class="cls-1" d="M3.94,14.31c.08,.07,.17,.13,.24,.21,.15,.16,.16,.4,.01,.55-.15,.16-.38,.17-.56,0-.32-.31-.63-.62-.94-.94-.16-.16-.15-.38,0-.54,.31-.32,.62-.63,.94-.94,.16-.16,.39-.15,.54,0,.15,.15,.16,.38,0,.55-.08,.08-.17,.15-.26,.23,.01,.02,.02,.04,.04,.05,.06,0,.12,0,.19,0,.69,0,1.38,0,2.07,0,.99,0,1.79,.8,1.79,1.78,0,.97-.77,1.78-1.76,1.8-.45,.01-.91,0-1.36,0-.27,0-.43-.16-.43-.4,0-.23,.17-.37,.43-.38,.42,0,.84,0,1.27,0,.61,0,1.06-.44,1.07-1.01,0-.58-.46-1.02-1.07-1.02-.68,0-1.35,0-2.03,0-.06,0-.11,0-.17,0-.01,.02-.02,.04-.03,.05Z"/><path class="cls-1" d="M2.22,18.2c0,.21-.17,.39-.37,.39-.21,0-.4-.17-.4-.39,0-.22,.18-.39,.39-.39,.21,0,.38,.17,.38,.38Z"/></svg>