<?xml version="1.0" encoding="utf-8"?>
<!-- Generator: Adobe Illustrator 27.8.1, SVG Export Plug-In . SVG Version: 6.00 Build 0)  -->
<!DOCTYPE svg PUBLIC "-//W3C//DTD SVG 1.1//EN" "http://www.w3.org/Graphics/SVG/1.1/DTD/svg11.dtd" [
	<!ENTITY ns_extend "http://ns.adobe.com/Extensibility/1.0/">
	<!ENTITY ns_ai "http://ns.adobe.com/AdobeIllustrator/10.0/">
	<!ENTITY ns_graphs "http://ns.adobe.com/Graphs/1.0/">
	<!ENTITY ns_vars "http://ns.adobe.com/Variables/1.0/">
	<!ENTITY ns_imrep "http://ns.adobe.com/ImageReplacement/1.0/">
	<!ENTITY ns_sfw "http://ns.adobe.com/SaveForWeb/1.0/">
	<!ENTITY ns_custom "http://ns.adobe.com/GenericCustomNamespace/1.0/">
	<!ENTITY ns_adobe_xpath "http://ns.adobe.com/XPath/1.0/">
]>
<svg version="1.1" id="Layer_1" xmlns:x="&ns_extend;" xmlns:i="&ns_ai;" xmlns:graph="&ns_graphs;"
	 xmlns="http://www.w3.org/2000/svg" xmlns:xlink="http://www.w3.org/1999/xlink" x="0px" y="0px" width="500px" height="500px"
	 viewBox="0 0 500 500" style="enable-background:new 0 0 500 500;" xml:space="preserve">
<style type="text/css">
	.st0{fill:#8D908F;}
</style>
<metadata>
	<sfw  xmlns="&ns_sfw;">
		<slices></slices>
		<sliceSourceBounds  bottomLeftOrigin="true" height="468.1" width="351.3" x="74.3" y="-484"></sliceSourceBounds>
	</sfw>
</metadata>
<g>
	<path class="st0" d="M369,293.8V75.3c0-14.8-12.1-26.9-26.9-26.9h-89.7v-1.8c0-16.9-13.8-30.7-30.7-30.7
		C204.7,16,191,29.7,191,46.6v1.8h-88.1c-15.7,0-28.5,12.8-28.5,28.5v332.6c0,15.7,12.8,28.5,28.5,28.5h138.7
		c17.8,27.6,48.9,46,84.1,46c55.2,0,100-44.9,100-100C425.7,344.3,402.5,310,369,293.8z M221.6,26c11.4,0,20.6,9.2,20.6,20.6v6.8
		c0,2.8,2.3,5,5,5h35.1v24.9H160.9V58.5H196c2.1,0,3.9-1.3,4.6-3.1c0.3-0.6,0.4-1.3,0.4-2c0,0,0,0,0,0v-6.8
		C201,35.3,210.3,26,221.6,26z M102.8,428c-10.2,0-18.4-8.3-18.4-18.4V76.9c0-10.2,8.3-18.4,18.4-18.4h48v29.9c0,2.8,2.3,5,5,5
		h131.5c2.8,0,5-2.3,5-5V58.5h49.6c9.3,0,16.8,7.6,16.8,16.8v214.3c-10.4-3.7-21.6-5.7-33.3-5.7c-33.7,0-63.6,16.8-81.7,42.4
		c-0.5-0.2-1-0.3-1.5-0.3H205c-2.8,0-5,2.3-5,5c0,2.8,2.3,5,5,5h32.8c-7.8,14.2-12.2,30.5-12.2,47.8c0,15.8,3.7,30.7,10.2,44H102.8z
		 M325.6,474c-49.6,0-90-40.4-90-90c0-49.6,40.4-90,90-90c49.6,0,90,40.4,90,90C415.6,433.6,375.2,474,325.6,474z"/>
	<path class="st0" d="M205,176.3h100.6c2.8,0,5-2.3,5-5s-2.3-5-5-5H205c-2.8,0-5,2.3-5,5S202.2,176.3,205,176.3z"/>
	<path class="st0" d="M205,256.2h100.6c2.8,0,5-2.3,5-5c0-2.8-2.3-5-5-5H205c-2.8,0-5,2.3-5,5C199.9,254,202.2,256.2,205,256.2z"/>
	<path class="st0" d="M162.4,143.2h-46c-2.8,0-5,2.3-5,5v46c0,2.8,2.3,5,5,5h46c2.8,0,5-2.3,5-5v-46
		C167.4,145.5,165.1,143.2,162.4,143.2z M157.3,189.2h-35.9v-35.9h35.9V189.2z"/>
	<path class="st0" d="M162.4,223.2h-46c-2.8,0-5,2.3-5,5v46c0,2.8,2.3,5,5,5h46c2.8,0,5-2.3,5-5v-46
		C167.4,225.4,165.1,223.2,162.4,223.2z M157.3,269.2h-35.9v-35.9h35.9V269.2z"/>
	<path class="st0" d="M162.4,303.1h-46c-2.8,0-5,2.3-5,5v46c0,2.8,2.3,5,5,5h46c2.8,0,5-2.3,5-5v-46
		C167.4,305.4,165.1,303.1,162.4,303.1z M157.3,349.1h-35.9v-35.9h35.9V349.1z"/>
	<path class="st0" d="M395,353.2L395,353.2c0-0.3,0-0.6-0.1-0.9c0-0.1,0-0.1,0-0.2c-0.1-0.3-0.1-0.6-0.2-0.8c0,0,0,0,0,0
		c-0.1-0.3-0.2-0.5-0.4-0.8c0-0.1-0.1-0.1-0.1-0.2c-0.2-0.2-0.3-0.5-0.5-0.7c0,0-0.1-0.1-0.1-0.1c-0.2-0.2-0.4-0.3-0.6-0.5
		c0,0-0.1-0.1-0.1-0.1c0,0,0,0-0.1,0c-0.2-0.2-0.5-0.3-0.7-0.4c0,0-0.1,0-0.1,0l-64.3-28.4c-1.3-0.6-2.8-0.6-4.1,0l-64.3,28.4
		c0,0-0.1,0-0.1,0c-0.2,0.1-0.5,0.2-0.7,0.4c0,0,0,0-0.1,0c0,0-0.1,0.1-0.1,0.1c-0.2,0.2-0.4,0.3-0.6,0.5c0,0-0.1,0.1-0.1,0.1
		c-0.2,0.2-0.4,0.4-0.5,0.7c0,0.1-0.1,0.1-0.1,0.2c-0.1,0.2-0.3,0.5-0.4,0.8c0,0,0,0,0,0c-0.1,0.3-0.2,0.5-0.2,0.8
		c0,0.1,0,0.1,0,0.2c0,0.3-0.1,0.5-0.1,0.8v0.1c0,0,0,0,0,0v64.2c0,2.1,1.2,3.9,3.2,4.7l64.3,25.9c0,0,0.1,0,0.1,0
		c0.2,0.1,0.4,0.1,0.6,0.2c0.1,0,0.2,0,0.2,0.1c0.3,0,0.6,0.1,0.9,0.1s0.6,0,0.9-0.1c0.1,0,0.2,0,0.2-0.1c0.2,0,0.4-0.1,0.6-0.2
		c0,0,0.1,0,0.1,0l64.3-25.9c1.9-0.8,3.2-2.6,3.2-4.7V353.2C395,353.2,395,353.2,395,353.2z M325.6,330.2l51.4,22.7l-8.7,3.5
		l-51.6-22.3L325.6,330.2z M325.6,373.6l-51.4-20.7l11.1-4.9l50.1,21.7L325.6,373.6z M304.2,339.6l51,22l-6.6,2.7l-50.7-21.9
		L304.2,339.6z M353.5,373.2l9.2-3.7v11.1l-9.2,4.1V373.2z M266.4,360.6l54.2,21.9v53.5L266.4,414V360.6z M384.9,414l-54.2,21.9
		v-53.5l12.8-5.2v15.2c0,1.7,0.9,3.3,2.3,4.2c0.8,0.5,1.8,0.8,2.7,0.8c0.7,0,1.4-0.1,2-0.4l19.2-8.5c1.8-0.8,3-2.6,3-4.6v-18.5
		l12.1-4.9V414z"/>
</g>
</svg>
