<?xml version="1.0" encoding="utf-8"?>
<!-- Generator: Adobe Illustrator 27.8.1, SVG Export Plug-In . SVG Version: 6.00 Build 0)  -->
<!DOCTYPE svg PUBLIC "-//W3C//DTD SVG 1.1//EN" "http://www.w3.org/Graphics/SVG/1.1/DTD/svg11.dtd" [
	<!ENTITY ns_extend "http://ns.adobe.com/Extensibility/1.0/">
	<!ENTITY ns_ai "http://ns.adobe.com/AdobeIllustrator/10.0/">
	<!ENTITY ns_graphs "http://ns.adobe.com/Graphs/1.0/">
	<!ENTITY ns_vars "http://ns.adobe.com/Variables/1.0/">
	<!ENTITY ns_imrep "http://ns.adobe.com/ImageReplacement/1.0/">
	<!ENTITY ns_sfw "http://ns.adobe.com/SaveForWeb/1.0/">
	<!ENTITY ns_custom "http://ns.adobe.com/GenericCustomNamespace/1.0/">
	<!ENTITY ns_adobe_xpath "http://ns.adobe.com/XPath/1.0/">
]>
<svg version="1.1" id="Layer_1" xmlns:x="&ns_extend;" xmlns:i="&ns_ai;" xmlns:graph="&ns_graphs;"
	 xmlns="http://www.w3.org/2000/svg" xmlns:xlink="http://www.w3.org/1999/xlink" x="0px" y="0px" width="500px" height="500px"
	 viewBox="0 0 500 500" style="enable-background:new 0 0 500 500;" xml:space="preserve">
<style type="text/css">
	.st0{fill:#8D908F;}
</style>
<metadata>
	<sfw  xmlns="&ns_sfw;">
		<slices></slices>
		<sliceSourceBounds  bottomLeftOrigin="true" height="363.1429" width="457.1549" x="21.4225" y="-431.5714"></sliceSourceBounds>
	</sfw>
</metadata>
<g>
	<path class="st0" d="M96.1384,290.0115h30.6724c16.2859,0,29.5343-13.2484,29.5343-29.5343v-9.1242
		c0-16.2859-13.2484-29.5343-29.5343-29.5343H96.1384c-16.2859,0-29.5343,13.2484-29.5343,29.5343v9.1242
		C66.6041,276.7631,79.8525,290.0115,96.1384,290.0115z M78.4954,251.353c0-9.7281,7.9149-17.6429,17.6429-17.6429h30.6724
		c9.7281,0,17.6429,7.9149,17.6429,17.6429v9.1242c0,9.7281-7.9149,17.6429-17.6429,17.6429H96.1384
		c-9.7281,0-17.6429-7.9149-17.6429-17.6429V251.353z"/>
	<path class="st0" d="M72.5497,321.9861h10.1926c3.283,0,5.9457-2.6626,5.9457-5.9457s-2.6627-5.9457-5.9457-5.9457H72.5497
		c-3.2831,0-5.9457,2.6626-5.9457,5.9457S69.2667,321.9861,72.5497,321.9861z"/>
	<path class="st0" d="M260.5587,321.9861h19.7581c3.2831,0,5.9457-2.6626,5.9457-5.9457s-2.6626-5.9457-5.9457-5.9457h-19.7581
		c-3.2831,0-5.9457,2.6626-5.9457,5.9457S257.2756,321.9861,260.5587,321.9861z"/>
	<path class="st0" d="M221.0441,321.9861h19.7581c3.283,0,5.9457-2.6626,5.9457-5.9457s-2.6627-5.9457-5.9457-5.9457h-19.7581
		c-3.2831,0-5.9457,2.6626-5.9457,5.9457S217.761,321.9861,221.0441,321.9861z"/>
	<path class="st0" d="M181.5295,321.9861h19.7565c3.2831,0,5.9457-2.6626,5.9457-5.9457s-2.6626-5.9457-5.9457-5.9457h-19.7565
		c-3.283,0-5.9457,2.6626-5.9457,5.9457S178.2465,321.9861,181.5295,321.9861z"/>
	<path class="st0" d="M136.0677,316.0404c0,3.2831,2.6626,5.9457,5.9457,5.9457h19.7581c3.283,0,5.9457-2.6626,5.9457-5.9457
		s-2.6627-5.9457-5.9457-5.9457h-19.7581C138.7303,310.0947,136.0677,312.7573,136.0677,316.0404z"/>
	<path class="st0" d="M128.2026,316.0404c0-3.2831-2.6626-5.9457-5.9457-5.9457h-19.7581c-3.283,0-5.9457,2.6626-5.9457,5.9457
		s2.6627,5.9457,5.9457,5.9457h19.7581C125.54,321.9861,128.2026,319.3235,128.2026,316.0404z"/>
	<path class="st0" d="M300.0749,321.9861h10.1926c3.2831,0,5.9457-2.6626,5.9457-5.9457s-2.6626-5.9457-5.9457-5.9457h-10.1926
		c-3.2831,0-5.9457,2.6626-5.9457,5.9457S296.7918,321.9861,300.0749,321.9861z"/>
	<path class="st0" d="M72.5497,353.959h13.5901c3.2831,0,5.9457-2.6626,5.9457-5.9457s-2.6626-5.9457-5.9457-5.9457H72.5497
		c-3.2831,0-5.9457,2.6626-5.9457,5.9457S69.2667,353.959,72.5497,353.959z"/>
	<path class="st0" d="M176.3702,353.959h30.0768c3.283,0,5.9457-2.6626,5.9457-5.9457s-2.6627-5.9457-5.9457-5.9457h-30.0768
		c-3.2831,0-5.9457,2.6626-5.9457,5.9457S173.0872,353.959,176.3702,353.959z"/>
	<path class="st0" d="M116.2167,353.959h30.0768c3.283,0,5.9457-2.6626,5.9457-5.9457s-2.6627-5.9457-5.9457-5.9457h-30.0768
		c-3.2831,0-5.9457,2.6626-5.9457,5.9457S112.9336,353.959,116.2167,353.959z"/>
	<path class="st0" d="M236.5238,342.0677c-3.2831,0-5.9457,2.6626-5.9457,5.9457s2.6626,5.9457,5.9457,5.9457h30.0768
		c3.283,0,5.9457-2.6626,5.9457-5.9457s-2.6627-5.9457-5.9457-5.9457H236.5238z"/>
	<path class="st0" d="M296.6774,353.959h13.5901c3.2831,0,5.9457-2.6626,5.9457-5.9457s-2.6626-5.9457-5.9457-5.9457h-13.5901
		c-3.2831,0-5.9457,2.6626-5.9457,5.9457S293.3943,353.959,296.6774,353.959z"/>
	<path class="st0" d="M313.743,367.7864H72.5497c-3.2831,0-5.9457,2.6626-5.9457,5.9457c0,3.283,2.6626,5.9457,5.9457,5.9457
		H313.743c3.2831,0,5.9457-2.6627,5.9457-5.9457C319.6887,370.449,317.0261,367.7864,313.743,367.7864z"/>
	<path class="st0" d="M475.4492,255.419l-48.705-126.3083l-7.837-20.3513c-0.012-0.0312-0.0322-0.0579-0.0447-0.0889
		l-3.9882-10.3426c-4.4709-11.6276-13.2036-20.8149-24.589-25.8664c-11.3887-5.0548-24.0663-5.3683-35.6873-0.8826L99.5201,169.9233
		H61.4613c-22.0773,0-40.0388,17.9615-40.0388,40.0388v181.5722c0,22.0773,17.9615,40.0371,40.0388,40.0371h294.9748
		c22.0773,0,40.0388-17.9598,40.0388-40.0371v-55.6744l52.252-20.1446C472.7186,306.4567,484.7062,279.4075,475.4492,255.419z
		 M423.2055,153.012l-51.6196,19.8969c-4.6765-1.9192-9.7899-2.9855-15.1498-2.9855h-79.6508l133.1562-51.3373l5.0707,13.1503
		L423.2055,153.012z M358.8764,82.6741c8.658-3.3444,18.0991-3.1089,26.5847,0.6553c8.4806,3.7642,14.9836,10.6057,18.3182,19.2753
		l1.8841,4.8862l-161.9326,62.4324H132.5746L358.8764,82.6741z M384.5835,391.5343c0,15.5195-12.6263,28.1458-28.1474,28.1458
		H61.4613c-15.5211,0-28.1474-12.6263-28.1474-28.1458V209.9621c0-15.5211,12.6263-28.1474,28.1474-28.1474h38.8806
		c0.1368,0.0061,0.2745,0.0035,0.4124,0H244.618c0.0293,0.001,0.0588-0.0006,0.0882,0h111.7299
		c15.5211,0,28.1474,12.6263,28.1474,28.1474V391.5343z M444.4484,304.6202l-47.9735,18.4957V209.9621
		c0-11.4384-4.8292-21.7639-12.5465-29.067l43.5646-16.7913l36.8611,95.5953C471.2521,277.5726,462.3203,297.7239,444.4484,304.6202
		z"/>
</g>
</svg>
