<?xml version="1.0" encoding="UTF-8"?><svg id="Layer_1" xmlns="http://www.w3.org/2000/svg" viewBox="0 0 200 200"><defs><style>.cls-1{fill:none;}.cls-1,.cls-2{stroke-width:0px;}.cls-2{fill:#f60;}</style></defs><path class="cls-2" d="m154.69,127.42c-.03,8.43-.03,16.86-.03,25.29,0,2.89,0,5.77,0,8.65v1.39c0,8.84.01,17.68,0,26.52,0,6.75-4.47,10.71-12.07,10.72-14.2,0-28.39,0-42.59,0s-28.39,0-42.59,0c-7.69,0-12.09-3.97-12.09-10.9,0-8.85.01-17.68,0-26.53,0-.48,0-.96,0-1.43v-8.47c0-8.48.01-16.95-.02-25.43,0-.37,0-.74.02-1.11,0-10.73.02-21.46-.02-32.19-.02-4.35.87-8.5,2.75-12.49,7.95-16.88,15.92-33.75,23.82-50.65.59-1.27,1.31-1.67,2.84-1.66,16.85.05,33.71.06,50.55,0,1.65,0,2.36.49,2.97,1.81,7.79,16.71,15.64,33.41,23.51,50.1,1.97,4.19,2.95,8.51,2.93,13.07-.05,10.68-.02,21.37-.03,32.05.02.41.03.83.03,1.25"/><path class="cls-2" d="m45.33,152.67v8.47c0-2.44-.01-4.87-.02-7.31,0-.39,0-.77.02-1.15"/><path class="cls-2" d="m154.69,154c-.01,2.45-.02,4.91-.03,7.36,0-2.89,0-5.77,0-8.65.02.43.03.86.03,1.29"/><path class="cls-2" d="m125.48,21.82h-50.62c0-4.54-.48-9.11.13-13.52C75.65,3.46,80.17.11,85.07.07c9.93-.09,19.87-.09,29.79,0,5.57.05,10.25,4.43,10.57,9.93.22,3.85.04,7.71.04,11.81"/><rect class="cls-1" x="45.31" width="109.38" height="200"/></svg>