<svg id="Layer_1" data-name="Layer 1" xmlns="http://www.w3.org/2000/svg" viewBox="0 0 109.39 200"><defs><style>.cls-1{fill:#231f20;}.cls-2{fill:#f60;}.cls-3{fill:none;}</style></defs><title>1-litre_bottle_black</title><path class="cls-1" d="M154.69,127.42q0,12.64,0,25.29v10q0,13.26,0,26.52c0,6.75-4.47,10.71-12.07,10.72H57.41c-7.69,0-12.09-4-12.09-10.9q0-13.28,0-26.53v-9.9c0-8.48,0-16.95,0-25.43,0-.37,0-.74,0-1.11,0-10.73,0-21.46,0-32.19a28.57,28.57,0,0,1,2.75-12.49Q60,56.12,71.87,30.79a2.58,2.58,0,0,1,2.84-1.66q25.28.07,50.55,0a2.73,2.73,0,0,1,3,1.81Q139.92,56,151.74,81a29.94,29.94,0,0,1,2.93,13.07c0,10.68,0,21.37,0,32.05,0,.41,0,.83,0,1.25" transform="translate(-45.3)"/><path class="cls-2" d="M45.33,152.67v8.47c0-2.44,0-4.87,0-7.31,0-.39,0-.77,0-1.15" transform="translate(-45.3)"/><path class="cls-2" d="M154.69,154l0,7.36v-8.65q0,.64,0,1.29" transform="translate(-45.3)"/><path class="cls-1" d="M125.48,21.82H74.86c0-4.54-.48-9.11.13-13.52C75.65,3.46,80.17.11,85.07.07q14.9-.13,29.79,0A10.68,10.68,0,0,1,125.43,10c.22,3.85,0,7.71,0,11.81" transform="translate(-45.3)"/><rect class="cls-3" x="0.01" width="109.38" height="200"/></svg>