<?xml version="1.0" encoding="UTF-8"?><svg id="Layer_1" xmlns="http://www.w3.org/2000/svg" viewBox="0 0 200 200"><defs><style>.cls-1,.cls-2{stroke-width:0px;}.cls-2{fill:none;}</style></defs><path class="cls-1" d="m116.03,0c2.89,1.9,3.91,5.33,3.73,10.05-.16,4.11,0,8.25-.04,12.37-.04,4.89-2.06,8.01-5.24,8.03-9.65.03-19.31.03-28.97,0-3.18-.01-5.2-3.14-5.24-8.03-.03-4.12.12-8.26-.04-12.37-.18-4.73.85-8.15,3.73-10.05h32.06Z"/><path class="cls-1" d="m134.07,53.29v95.58c0,12.52,0,25.03,0,37.54,0,8.33-4.07,13.58-10.51,13.58-15.72.01-31.43.01-47.13,0-6.37,0-10.47-5.26-10.47-13.45-.01-12.55,0-25.1,0-37.66h-.01V53.29s1.42-15.13,17.03-15.9c.13-.01.27-.03.41-.03,11.09-.03,22.17-.04,33.26.01h0c15.99.51,17.44,15.91,17.44,15.91"/><rect class="cls-2" x="65.93" width="68.14" height="200"/></svg>