<?xml version="1.0" encoding="UTF-8"?><svg id="Layer_1" xmlns="http://www.w3.org/2000/svg" viewBox="0 0 200 200"><defs><style>.cls-1,.cls-2{stroke-width:0px;}.cls-2{fill:none;}</style></defs><path class="cls-1" d="m95.72,24.05c1.81-2.65,3.44-5.21,5.23-7.64.37-.49.73-.98,1.11-1.46.57-.73,2.13-1.1,3.25-1.1,13.8-.08,27.62-.05,41.42-.04,2.05,0,3.58.69,4.67,2.46.03.05.06.09.1.14,1.58,2.55,3.41,4.97,5.29,7.64h-61.07Zm86.89,84.15c0-13.66.01-27.33.01-40.99,0-9.03-.01-18.05-.03-27.09-.01-2.73-.57-5.36-2.27-7.79-6.11-8.71-12.1-17.47-18.09-26.24-2.65-3.86-6.35-6.05-11.36-6.05-16.63-.04-33.27-.07-49.92,0-4.19.03-7.59,1.62-9.93,5.05-4.22,6.13-8.51,12.23-12.83,18.32h-26.04c-6.61,0-13.22-.01-19.83-.03-1.19,0-1.97.15-2.84,1.23-2.67,3.37-5.7,6.51-8.56,9.75-2.05,2.32-3.38,4.81-3.38,8.01,0,2.35.01,4.7.01,7.05v.08c-.01.17-.01.34-.01.51.01,11.01.04,22.03.05,33.05.01,18.52.01,37.05,0,55.58,0,10.23-.01,20.47-.03,30.69v.19c-.01,2.31-.01,4.61-.01,6.93-.01,3.6,1.43,6.39,4.03,8.83,3.99,3.73,8.02,7.46,12.11,11.11,2.57,2.3,5.53,3.62,9.37,3.61,38.05-.09,76.1-.05,114.15-.04,3.4,0,6.24-1.17,8.6-3.33,4.11-3.75,8.1-7.6,12.29-11.24,3.24-2.82,4.55-6.17,4.53-10.19,0-2.43-.01-4.87,0-7.3-.04-19.91-.03-39.81-.03-59.7"/><path class="cls-1" d="m68.01,17.13c-11.01-.05-22.01-.02-33.02-.02-.79,0-1.58-.08-2.25-.11V3.54h35.13c.07.34.1.42.1.49,0,4.38,0,8.74.03,13.1"/><rect class="cls-2" x="17.53" y="0" width="165.11" height="200"/></svg>