<?xml version="1.0" encoding="utf-8"?>
<!-- Generator: Adobe Illustrator 26.3.1, SVG Export Plug-In . SVG Version: 6.00 Build 0)  -->
<svg version="1.1" id="Layer_1" xmlns="http://www.w3.org/2000/svg" xmlns:xlink="http://www.w3.org/1999/xlink" x="0px" y="0px"
	 viewBox="0 0 500 544.5" style="enable-background:new 0 0 500 544.5;" xml:space="preserve">
<g>
	<path d="M259.8,43.1c0.1-0.7,0.2-1.3,0.2-2V20.5h43.8c5.5,0,10-4.5,10-10s-4.5-10-10-10H196.2c-5.5,0-10,4.5-10,10s4.5,10,10,10
		H240V41c0,0.7,0.1,1.4,0.2,2c-50.4,2-97,18.9-135.5,46.5l-6.2-7.3c-0.2-0.2-0.4-0.4-0.6-0.6c-10.5-10.5-27.5-10.5-38,0l-20.9,20.9
		c-10.5,10.5-10.5,27.5,0,38c0,0.1,0.1,0.1,0.2,0.1l7.4,7.1C17.3,188.8,0,239.1,0,293.4c0,138.1,112.2,250.5,250,250.5
		s250-112.4,250-250.5C500,158.5,393.1,48.2,259.8,43.1z M53.3,116.6l20.9-20.9c1.3-1.3,3.1-2,4.9-2c1.7,0,3.4,0.6,4.7,1.8l4.4,5.3
		c-4.1,3.3-9.2,7.6-13.9,12.1c-5.7,5.4-12.1,12.3-16.7,17.6l-4.3-4.1C50.5,123.6,50.6,119.2,53.3,116.6z M250,524
		C123.1,524,19.9,420.5,19.9,293.4S123.1,62.8,250,62.8s230.1,103.5,230.1,230.6S376.9,524,250,524z"/>
	<path d="M311.9,283.4H260V182.6c0-5.5-4.5-10-10-10s-10,4.5-10,10v110.8c0,5.5,4.5,10,10,10h61.9c5.5,0,10-4.5,10-10
		S317.4,283.4,311.9,283.4z"/>
	<path d="M455.6,293.4c0-0.5,0-1-0.1-1.5C454.6,179,362.8,87.4,249.9,87.4c-113.3,0-205.6,92.4-205.6,206s92.2,206,205.6,206
		c112.8,0,204.7-91.6,205.5-204.5C455.6,294.4,455.6,293.9,455.6,293.4z M259.9,479.2v-23.1c0-5.5-4.5-10-10-10s-10,4.5-10,10v23.1
		c-94.5-5-170.4-81.2-175.4-175.9h23.3c5.5,0,10-4.5,10-10s-4.5-10-10-10H64.6c5-94.7,81-170.8,175.4-175.9v23.1c0,5.5,4.5,10,10,10
		s10-4.5,10-10v-23.2c94.5,5,170.4,81.2,175.4,175.9h-23c-5.5,0-10,4.5-10,10s4.5,10,10,10h23C430.3,398,354.4,474.2,259.9,479.2z"
		/>
</g>
</svg>
