<?xml version="1.0" encoding="utf-8"?>
<!-- Generator: Adobe Illustrator 26.3.1, SVG Export Plug-In . SVG Version: 6.00 Build 0)  -->
<svg version="1.1" id="Layer_1" xmlns="http://www.w3.org/2000/svg" xmlns:xlink="http://www.w3.org/1999/xlink" x="0px" y="0px"
	 viewBox="0 0 500 500" style="enable-background:new 0 0 500 500;" xml:space="preserve">
<g>
	<path d="M497.5,149.3h-73.6v-67c0-1.4-1.1-2.5-2.5-2.5H78.7c-1.4,0-2.5,1.1-2.5,2.5v67.1H22.9c-6.1,0-12.3,0-18.4,0
		c-0.5,0-1,0-1.5,0.1l-0.5,0C1,149.5,0,150.6,0,151.9v43.5c0,1.4,1.1,2.5,2.5,2.5h18.7v22.5c0,16.6,0,33.1,0,49.7v24.1
		c0,27.6,0,56.1-0.1,84.1c0,16.7,0.8,39.5,23.9,41.9c0,0,0,0,0,0c45.5,0,91.1,0,136.6,0l62.3,0c70.3,0,140.6,0,210.9,0
		c14.9,0,24.3-9.5,24.3-41.1v-0.8c0-15.4,0-30.9,0-46.3c0-16.3,0-32.7,0-49c0-20.5,0.1-40.9,0.1-61.4l0-8.8c0-5,0-10,0.1-15h18.2
		c1.4,0,2.5-1.1,2.5-2.5v-43.5C500,150.4,498.9,149.3,497.5,149.3z M414.3,89.3v60H85.9v-60H414.3z M490.4,159.1v29.1H9.5v-29.1
		H490.4z M454.2,410.6L454.2,410.6c-136.5,0-274.1,0-409,0c-7,0-14.5-5.5-14.5-30.9c0-0.5,0-1,0-1.4c0-0.1,0-0.3,0-0.4v-51.1H115
		c1.4,0,2.5-1.1,2.5-2.5v-4.5c0-1.4-1.1-2.5-2.5-2.5H30.9v-65c1.6,0,3.1,0,4.7,0c1.6,0,3.2,0,4.9,0H115c1.4,0,2.5-1.1,2.5-2.5v-4.6
		c0-1.4-1.1-2.5-2.5-2.5H31c-0.2-8-0.3-36.2-0.2-44.3c32.5-0.3,406.9-0.4,438.8-0.1c0,20.6,0,41.1-0.1,61.7l0,9.5c0,5.7,0,11.4,0,17
		l0,20.3c0,10.7,0,21.4,0,32.2c0,4.9,0,9.7,0,14.6c0,8.4,0,16.8,0,25.1v0.2C469.5,395.3,467.9,410.6,454.2,410.6z"/>
	<path d="M456.5,277.6c-10.3,6.1-23.3,6.1-33.6,0c-2.3-1.4-4.5-3.1-6.6-5.1c-6.2-6.2-14.6-9.7-23.3-9.7s-17.1,3.5-23.3,9.7
		c-2,2-4.2,3.7-6.6,5.1c-10.3,6.1-23.3,6.1-33.6,0c-2.3-1.4-4.5-3.1-6.5-5.1c-12.9-12.9-33.8-12.9-46.7,0c-1.6,1.6-3.3,3-5.1,4.2
		c-11.3,7.5-26.1,7.3-37.2-0.5c-1.5-1.1-3-2.3-4.3-3.6c-12.9-12.9-33.8-12.9-46.7,0c-1.2,1.2-2.6,2.4-3.9,3.4
		c-10.4,7.6-24.4,8.3-35.5,2.1c-2.6-1.5-5.1-3.3-7.3-5.5c-12.9-12.9-33.8-12.9-46.7,0c0,0,0,0,0,0c-6.2,6.2-14.6,9.7-23.3,9.7
		c-6.7,0-13.1-2-18.5-5.7c-1.7-1.2-3.3-2.5-4.8-4v5.1v18.5v12c0,0,71.2,0,80.6,0s9.4,4.7,9.4,14.1s-7.8,15.6-7.8,15.6H42.8
		c0,0,0,11.7,0,42.2c0,24.6,15.8,23.2,15.8,23.2s350.5,0,382.6,0c21.3,0,21.9-30.2,21.9-30.2v-77v-18.5v-5.1
		C461.1,274.6,458.9,276.2,456.5,277.6z"/>
</g>
</svg>
