<?xml version="1.0" encoding="utf-8"?>
<!-- Generator: Adobe Illustrator 26.3.1, SVG Export Plug-In . SVG Version: 6.00 Build 0)  -->
<svg version="1.1" id="Layer_1" xmlns="http://www.w3.org/2000/svg" xmlns:xlink="http://www.w3.org/1999/xlink" x="0px" y="0px"
	 viewBox="0 0 500 500" style="enable-background:new 0 0 500 500;" xml:space="preserve">
<path d="M465.6,1H34.4C15.4,1,0,16.4,0,35.4V78c0,19,15.4,34.4,34.3,34.4h0.1L47,458.7c0.3,12.5,8.5,36.9,37.2,40.1l315.3,0.1
	c0.5,0,1.2,0.1,2.1,0.1c5,0,14.7-0.9,23.7-6.7c8.1-5.3,17.9-15.9,17.9-36.6l12.5-343.3h10.1c19,0,34.4-15.4,34.4-34.4V35.4
	C500,16.4,484.6,1,465.6,1z M414.4,455.5c0,9.6-3.6,11.9-4.8,12.7c-3,1.9-6.9,2.1-8.1,2.1l-314.9-0.1c-9-1.3-10.7-8.3-10.9-12.1
	l-13-345.7h29.9L99,447.6l6.6-0.2l-1.5-335h25l6.4,335.2l6.6-0.2l-1.5-335h25l6.3,335.2l6.6-0.2l-1.5-335h25l6.4,335.2l6.6-0.2
	l-1.5-335H239l4.6,335.2l6.6-0.2l0.3-335h25.6l3.3,334.5l6.6-0.2l1.4-334.4h25l3.4,335l6.6-0.2l1.4-334.8h25l3.4,335.4l6.6-0.2
	l1.4-335.2h25l3.4,335.8l6.6-0.2l1.4-335.6h29.2L414.4,455.5z M471.3,78c0,3.1-2.5,5.7-5.6,5.7h-9l0,0H34.3c-3.1,0-5.5-2.5-5.5-5.7
	V35.4c0-3.1,2.5-5.6,5.6-5.6h431.3c3.1,0,5.6,2.6,5.6,5.6V78L471.3,78z"/>
</svg>
