<?xml version="1.0" encoding="utf-8"?>
<!-- Generator: Adobe Illustrator 25.2.0, SVG Export Plug-In . SVG Version: 6.00 Build 0)  -->
<svg version="1.1" id="Layer_1" xmlns="http://www.w3.org/2000/svg" xmlns:xlink="http://www.w3.org/1999/xlink" x="0px" y="0px"
	 viewBox="0 0 500 500" style="enable-background:new 0 0 500 500;" xml:space="preserve">
<style type="text/css">
	.st0{stroke:#000000;stroke-width:3;}
</style>
<g>
	<g>
		<g>
			<g>
				<path class="st0" d="M443.5,472.5c-0.3,0-0.7-0.1-0.9-0.3c-0.3-0.2-7-5.4-8.3-13c-1.5-8.7,0.8-16.3,0.9-16.6
					c0.3-0.8,1.1-1.3,1.9-1c0.8,0.3,1.3,1.1,1,1.9c0,0.1-2.1,7.2-0.8,15.2c1.1,6.4,7,11,7.1,11.1c0.7,0.5,0.8,1.5,0.3,2.2
					C444.4,472.3,443.9,472.5,443.5,472.5z"/>
				<path class="st0" d="M443.5,473c-0.4,0-0.9-0.1-1.2-0.4c-0.3-0.2-7.1-5.5-8.4-13.3c-1.5-8.8,0.8-16.5,0.9-16.8
					c0.2-0.5,0.5-1,1-1.2c0.5-0.3,1-0.3,1.6-0.1c1.1,0.3,1.7,1.5,1.4,2.6c0,0.1-2.1,7.1-0.8,15c1.1,6.2,6.8,10.7,6.9,10.7
					c0.9,0.7,1.1,2,0.4,2.9C444.7,472.7,444.1,473,443.5,473z M436.6,442c-0.2,0-0.3,0-0.5,0.1c-0.2,0.1-0.4,0.4-0.5,0.6
					c-0.1,0.3-2.3,7.8-0.9,16.4c1.3,7.5,7.8,12.5,8.1,12.7c0.5,0.3,1.1,0.2,1.5-0.2c0.4-0.5,0.3-1.1-0.2-1.5
					c-0.1,0-6.1-4.7-7.3-11.4c-1.4-8.1,0.8-15.3,0.8-15.4c0.2-0.6-0.1-1.1-0.7-1.3C436.8,442,436.7,442,436.6,442z"/>
			</g>
		</g>
		<g>
			<circle class="st0" cx="448.5" cy="475.2" r="1.5"/>
			<path class="st0" d="M448.5,477.2c-1.1,0-2-0.9-2-2c0-1.1,0.9-2,2-2c1.1,0,2,0.9,2,2C450.5,476.3,449.6,477.2,448.5,477.2z
				 M448.5,474.2c-0.6,0-1,0.5-1,1c0,0.6,0.5,1,1,1s1-0.5,1-1C449.5,474.7,449,474.2,448.5,474.2z"/>
		</g>
	</g>
	<g>
		<g>
			<path class="st0" d="M489.3,271c-0.1-1-1.1-14-7.4-27.3c-8.6-17.9-22.8-27.4-41.2-27.6c-14.1-0.8-105.7-1.1-106.5-1.1
				c0,0-0.1,0-0.2,0c-1.2,0.1-2.4,0.1-3.3,0.1c-8.4,0-28.3-2-32.3-20.1l0-0.2c-5.4-16.8-10.7-58.7-11-60.5l-0.5-3.7l-15.4,0.4
				l-0.2-17.4l-39.6-0.2v18.9L213,132l-7.2,65.8c-0.5,1.7-6.2,18.3-29.8,18.3c-13.9-0.4-168.4-1-169.7-1l-4.1,0v100.8h4.1
				c2.2,0,306-1.6,378.5-1.6c6.9,0,11.8,0,14,0c20.6,0.3,23.3,16.1,23.5,17.6L423,382l75-0.1L489.3,271z M239.9,140.6v-18.9
				l23.3,0.1l0.2,17.6l16.3-0.4c1.5,11.6,6,43.3,10.8,58c5.3,23.7,29.9,26.3,40.2,26.3c2,0,3.1-0.1,3.7-0.1l1.4,0
				c27.7,0.1,93.3,0.4,104.6,1.1l0.1,0c37.2,0.4,40.6,45.4,40.7,47.4l7.9,102l-58,0.1l-0.6-42.3l0-0.1c0-0.2-3.3-24.7-31.6-25.2
				c-2.1,0-7,0-14.1,0c-67.1,0-336.1,1.4-374.4,1.6v-84.4c17.5,0.1,152.6,0.6,166,1c31,0,37.4-24.6,37.5-24.9l0-0.1l6.5-59
				L239.9,140.6z"/>
			<path class="st0" d="M231.5,40.3l-0.4,66.6l40.2,0.4l-0.8-66.5h155.1v-31l-344.3,1h-4.1l0.3,29.6L231.5,40.3z M85.7,32.1
				l-0.2-13.2l332-1v14.6H262.3l0.8,66.4l-23.7-0.2l0.4-66.6L85.7,32.1z"/>
		</g>
		<g>
			<path class="st0" d="M460.5,490.3c-21.4,0-38.9-17.4-38.9-38.9c0-8.3,2.6-16.3,7.5-23c1.1-1.7,28.2-41.8,28.4-42.2l2.9-4.3
				l2.9,4.3c0.3,0.4,27.3,40.6,28.4,42.2c4.9,6.7,7.5,14.7,7.5,23c0,10.5-4.2,20.4-11.7,27.8c-0.6,0.6-0.9,0.9-1.1,1.1
				c-0.5,0.5-0.6,0.6-1.2,1l-0.5,0.3C478,487.2,469.3,490.3,460.5,490.3z M460.5,394.3c-25.6,38-25.6,38.1-25.7,38.1l0,0
				c-4.1,5.5-6.2,12.1-6.2,18.9c0,17.6,14.3,31.9,31.9,31.9c7.3,0,14.4-2.5,20.1-7.1l0.6-0.5c0.1-0.1,0.2-0.2,0.3-0.2l0.1-0.1
				c0.2-0.2,0.5-0.5,1.2-1.2c6.2-6,9.6-14.2,9.6-22.8c0-6.9-2.2-13.4-6.2-18.9C486.1,432.4,486.1,432.3,460.5,394.3z"/>
		</g>
	</g>
</g>
</svg>
