<?xml version="1.0" encoding="utf-8"?>
<!-- Generator: Adobe Illustrator 27.7.0, SVG Export Plug-In . SVG Version: 6.00 Build 0)  -->
<!DOCTYPE svg PUBLIC "-//W3C//DTD SVG 1.1//EN" "http://www.w3.org/Graphics/SVG/1.1/DTD/svg11.dtd" [
	<!ENTITY ns_extend "http://ns.adobe.com/Extensibility/1.0/">
	<!ENTITY ns_ai "http://ns.adobe.com/AdobeIllustrator/10.0/">
	<!ENTITY ns_graphs "http://ns.adobe.com/Graphs/1.0/">
	<!ENTITY ns_vars "http://ns.adobe.com/Variables/1.0/">
	<!ENTITY ns_imrep "http://ns.adobe.com/ImageReplacement/1.0/">
	<!ENTITY ns_sfw "http://ns.adobe.com/SaveForWeb/1.0/">
	<!ENTITY ns_custom "http://ns.adobe.com/GenericCustomNamespace/1.0/">
	<!ENTITY ns_adobe_xpath "http://ns.adobe.com/XPath/1.0/">
]>
<svg version="1.1" id="Layer_1" xmlns:x="&ns_extend;" xmlns:i="&ns_ai;" xmlns:graph="&ns_graphs;"
	 xmlns="http://www.w3.org/2000/svg" xmlns:xlink="http://www.w3.org/1999/xlink" x="0px" y="0px" width="660px" height="440px"
	 viewBox="0 0 660 440" style="enable-background:new 0 0 660 440;" xml:space="preserve">
<style type="text/css">
	.st0{fill:#FF0000;}
	.st1{fill-rule:evenodd;clip-rule:evenodd;}
</style>
<metadata>
	<sfw  xmlns="&ns_sfw;">
		<slices></slices>
		<sliceSourceBounds  bottomLeftOrigin="true" height="440" width="660" x="0" y="0"></sliceSourceBounds>
	</sfw>
</metadata>
<g>
	<path class="st0" d="M660,0H0v440h660V0z"/>
	<path class="st1" d="M346.6634,332.4791c-3.8657-3.3515-8.5517-10.1389-8.4857-16.681c0.3457-4.8783,3.6916-7.7126,5.8532-1.7575
		c3.0561,6.573,9.6108,17.4423,18.6434,11.066c3.9462-2.8964,3.8846-7.1607-1.5262-6.6717
		c-6.6817-0.4576-10.7863-4.1341-13.7764-13.5998c-0.5437-5.2058,1.6217-5.0757,4.6432-1.7267
		c3.8846,4.4566,11.6148,11.1924,20.1432,7.5825c4.7394-1.9863,6.0771-6.0846-1.083-7.0934
		c-6.7785,0.0987-12.3118-4.2957-17.82-10.9987c-3.0203-3.7086,1.4344-7.4523,4.1089-4.2957
		c2.3854,2.0492,5.7263,5.8243,8.5894,6.3448c3.3107,0.6499,7.4146,0.3268,11.9617-2.0806c4.9016-4.1027,3.3101-7.0626-2.64-7.744
		c-4.6125,0.2288-7.1248,1.9819-13.0742-1.9863c-10.6945-7.2286-19.1966-16.8866-20.5248-28.5038
		c-0.8724-7.6409,3.2359-9.9547,6.6516-9.0753c9.2903,2.3898,15.3679,19.751,21.7957,29.2883
		c2.1045,2.7487,4.038,2.7934,5.4057,1.9461c2.5784-2.2107,4.6376-4.0279,7.216-6.4994c0,0,18.9106,3.398,29.2085,6.7546
		l-11.4664,4.075c-4.3416-2.3974-9.5813,0.1873-9.5813,4.3466c-4.1084,2.8411-3.7777,6.1719-2.0052,9.3864
		c0.5406-2.2383,1.002-5.1455,4.2473-5.532c4.6319,1.9159,10.0288-0.8184,10.0288-4.4358l13.5262-5.3165l13.6651,7.7365
		c0,5.2297,4.955,6.8866,10.1106,5.4749c2.4294,1.5086,3.9914,4.1259,4.8142,6.925c1.5211-4.0367,1.2037-6.8866-1.1786-8.8672
		c1.3671-5.2191-5.9463-10.2375-11.6078-6.8954l-9.8309-5.6446l16.8269-0.4714c1.953,3.4571,9.0118,3.6476,11.071,0
		c1.76-0.4821,3.2472-0.7889,6.6786,1.7619c-1.0811-4.1272-3.1856-5.8916-6.3423-5.8916
		c-2.3986-4.2498-11.0792-4.2303-12.3326,0.5544l-17.5252,0.4872l10.3985-7.4033c3.8814,2.2918,9.328-0.2558,10.4186-4.4189
		c1.5475-1.8398,3.4559-2.7041,7.2122-1.4558c-1.936-3.4288-4.664-4.4522-9.5907-2.1246
		c-4.4943-3.4056-10.4179,0.7248-9.5191,4.1536l-13.8349,9.4129c-10.0421-2.9964-28.2291-7.6623-28.2291-7.6623
		c2.1654-2.2779,4.3623-4.3943,6.524-6.7037c0.7807-1.3527-0.4124-2.9279-2.0699-3.256
		c-16.2272-3.349-25.5181-9.8905-31.1476-26.5169c-2.3546-6.9633,2.7362-9.0439,4.4855-4.7847
		c2.42,5.9237,5.0902,12.3979,12.3766,17.4114c2.513,1.7575,9.9937,0.3224,5.5691-3.8745
		c-4.5823-3.7752-6.5547-5.3982-8.8126-14.5766c0-4.6502,4.7394-6.7351,7.3832-2.2779c2.8286,9.1426,3.1177,13.0793,8.2387,18.9703
		c3.8802,4.4578,8.9402,7.453,11.4525,7.3857c4.5207-0.0629,9.0716-4.9469,3.0253-8.4926
		c-8.8786-3.5464-12.1232-8.3933-13.4301-13.0165c-1.4294-8.0665,0.132-11.9718,4.9984-8.0036
		c6.9017,7.8421,20.0766,22.4507,26.9783,29.2525c7.7346,5.9237,16.6087,6.116,23.672,0.0987
		c4.043-4.6539,2.6086-9.6624-3.7218-8.5907c-14.2849,1.2056-25.102-5.8878-36.9707-25.0561
		c-2.3238-4.3271-2.9606-10.5418,2.1654-5.9186c5.9149,8.0036,14.5389,14.8054,22.5594,17.7333
		c8.0495,2.8927,14.696,1.2949,17.2738-1.237c3.107-3.1064,2.2899-10.9321-3.0863-9.0452
		c-4.4239,1.5614-10.6587,1.9511-17.1474-0.555c-6.4938-2.5382-13.2377-8.0036-20.3972-17.2763
		c-2.4514-5.2373-1.6531-9.663,3.3094-6.9646c11.7417,9.9597,26.8871,18.0262,34.6167,13.1793
		c5.6961-3.547,5.7923-12.6582-1.4294-12.0711c-14.5433,1.9819-20.0457-1.237-34.0151-13.5677
		c-3.1793-2.3766-2.9593-8.3983,2.0995-4.5559c11.7417,7.5825,27.7766,10.5411,34.0774,6.5736
		c5.6653-3.547,4.8362-14.3849-4.7086-10.5462c-7.6378,4.6539-16.0694,4.5238-32.9636-7.5466
		c-4.2617-3.5464-1.083-8.1695,2.4162-6.1833c13.5878,7.744,33.3797,11.0616,38.5314-4.6854
		c2.0039-6.0179-1.6217-9.5329-6.9363-5.368c-11.6763,10.802-24.9134,5.4975-32.323,0.0629
		c-2.122-1.2509-6.0154-7.5818,0.8234-6.407c17.6924,4.0354,35.1912,0.5205,38.3743-12.0076
		c1.8461-4.0669-1.7852-11.259-8.2424-5.2373c-8.4933,8.394-17.4995,8.685-28.8244,8.6221
		c-5.7615-1.2056-5.8224-7.5504-0.9869-8.492c8.9402,0.1923,17.7534-3.713,24.8173-7.6811
		c6.9055-3.9682,12.6318-9.5329,14.4471-17.2449c1.1126-6.8967-5.5377-14.2183-9.5455-6.8967
		c-5.9193,10.7033-19.0287,20.7919-33.6034,22.6129c-0.7587-1.2697-2.6702-4.5245-5.0248-3.6099
		c-4.2793,1.6594-9.3783,3.8795-14.6281,6.3731c-11.3168,5.3737-16.033,7.9634-14.674,17.248
		c1.4187,9.6882-6.0506,15.8105-12.2194,14.1196c-5.3806-1.4482-8.3487-6.3083-7.3845-14.7381
		c0.7725-6.7169,7.5158-14.8418,15.1147-19.1023c4.9192-2.7532,12.3464-4.2592,21.2866-6.2455
		c5.4409-1.0717,8.2123-3.1881,8.5285-5.4032c0,0-3.7193,2.7217-9.6725,2.3131c-2.8148-0.2011-4.7005-1.4394-5.4107-2.7029
		c2.0699-0.4211,5.8231,0.0673,9.1947,0.0673c4.4849-0.0358,14.8984-1.0403,17.6609-7.3543
		c0.8593-4.1649-1.8775-4.9135-4.4239-2.2459c-2.7362,2.8833-3.8632,5.4749-9.3531,6.4429
		c-3.3402,0.5877-6.6817,1.2697-10.9786,0.2294c2.42-2.8745,6.2656-5.8155,9.5455-5.2737c1.0786,0.1798,2.5124,1.1754,3.6608,2.9643
		c0.7015-4.5559-0.5437-9.6989-12.7286-7.551c0.1936-3.4477-7.0639-4.9456-11.4211-4.8783
		c-2.4816,0.0629-7.5416,1.5293-11.1986,3.2824c-5.7917,1.7933-11.5179,3.0938-18.2663,3.5829
		c3.916,3.349,4.6483,3.5464,8.5587,6.3756c-5.9148,2.2107-10.4971,6.7666-12.5658,9.7617c0,0,6.9055-0.193,8.6554,0.5871
		c-7.2261,2.112-10.4714,3.3811-14.2893,7.2864c1.337,0.2288,3.3402,0.6185,4.2001,0.946c0.8945,0.3231,0.6619,0.9102-0.0616,1.4621
		c-1.5564,1.188-7.9879,8.6579-9.8648,10.4469c-1.8769-1.7889-8.3084-9.2589-9.8648-10.4469
		c-0.7235-0.5519-0.9561-1.139-0.0616-1.4621c0.8593-0.3269,2.8631-0.7172,4.2001-0.946
		c-3.8186-3.9053-7.0632-5.1744-14.2893-7.2864c1.7499-0.7801,8.6554-0.5871,8.6554-0.5871
		c-2.0699-2.9951-6.6516-7.551-12.5664-9.7617c3.911-2.8292,4.6432-3.0266,8.5586-6.3762
		c-6.7477-0.4884-12.474-1.7889-18.2663-3.5829c-3.6564-1.7525-8.7164-3.2189-11.198-3.2818
		c-4.3579-0.0673-11.6147,1.4306-11.4211,4.8777c-12.1848-2.1472-13.4301,2.9958-12.7286,7.5517
		c1.1484-1.7889,2.5822-2.7846,3.6608-2.9637c3.2799-0.5425,7.1248,2.3986,9.5455,5.2731
		c-4.2969,1.0403-7.6384,0.3583-10.9792-0.2288c-5.4893-0.968-6.6164-3.5602-9.3532-6.4429
		c-2.5463-2.6683-5.2825-1.9197-4.4232,2.2459c2.7626,6.3134,13.1749,7.3178,17.661,7.3537c3.3717,0,7.1248-0.489,9.1947-0.0673
		c-0.7103,1.2647-2.596,2.5017-5.4107,2.7029c-5.9538,0.4086-9.6725-2.3131-9.6725-2.3131
		c0.3162,2.2151,3.0863,4.3309,8.5284,5.4032c8.9402,1.9863,16.3674,3.493,21.2866,6.2461
		c7.5988,4.2598,14.3421,12.3847,15.114,19.1017c0.9642,8.4292-2.0039,13.2899-7.3838,14.7381
		c-6.1688,1.6909-13.6381-4.4314-12.2195-14.1196c1.359-9.2846-3.3572-11.8744-14.674-17.248
		c-5.2498-2.4935-10.3488-4.7143-14.6281-6.3737c-2.3546-0.9139-4.2661,2.3414-5.0248,3.6105
		c-14.5747-1.821-27.6842-11.9096-33.6034-22.6129c-4.0078-7.3216-10.6587,0-9.5455,6.8967
		c1.8153,7.7126,7.5416,13.2767,14.4471,17.2449c7.0639,3.9682,15.8771,7.8735,24.8173,7.6811
		c4.8356,0.9416,4.7746,7.2864-0.9869,8.492c-11.3256,0.0629-20.3311-0.2282-28.8244-8.6221
		c-6.4579-6.0217-10.0886,1.1704-8.2425,5.2373c3.1831,12.5274,20.6819,16.043,38.3737,12.0076
		c6.8389-1.1754,2.9461,5.1568,0.8234,6.4077c-7.409,5.434-20.6461,10.7385-32.3224-0.0629
		c-5.3139-4.1655-8.9408-0.6506-6.9363,5.3674c5.1518,15.747,24.9436,12.4294,38.5314,4.6854
		c3.4993-1.9863,6.6779,2.6369,2.4162,6.1833c-16.8941,12.0704-25.3251,12.2006-32.9635,7.5466
		c-9.5449-3.8387-10.3739,6.9991-4.7086,10.5462c6.3002,3.9682,22.335,1.0089,34.0768-6.5736
		c5.06-3.8425,5.2788,2.1793,2.0994,4.5559c-13.9687,12.3307-19.4712,15.5496-34.0145,13.5677
		c-7.2223-0.5871-7.1255,8.5234-1.4294,12.0711c7.7295,4.8463,22.8737-3.2196,34.6154-13.1786
		c4.9638-2.6991,5.7615,1.7267,3.3107,6.9639c-7.1594,9.2727-13.904,14.7381-20.3972,17.2763
		c-6.4887,2.5061-12.7235,2.1164-17.1474,0.5556c-5.3762-1.8876-6.1933,5.9381-3.0869,9.0445
		c2.579,2.5319,9.2249,4.1297,17.275,1.237c8.0193-2.9279,16.644-9.7303,22.5588-17.7333c5.1254-4.6231,4.4893,1.5916,2.1654,5.9186
		c-11.8687,19.1683-22.6851,26.2617-36.9707,25.0561c-6.331-1.0717-7.7647,3.9367-3.7224,8.5907
		c7.0639,6.0173,15.938,5.825,23.672-0.0987c6.9017-6.8018,20.0766-21.4104,26.9783-29.2525
		c4.867-3.9682,6.4284-0.0629,4.999,8.0036c-1.3074,4.6232-4.5508,9.4701-13.4301,13.0165c-6.0469,3.547-1.496,8.4291,3.0253,8.492
		c2.5124,0.0679,7.5724-2.9273,11.4526-7.3844c5.121-5.8916,5.4107-9.8283,8.2387-18.9709
		c2.6438-4.4572,7.3832-2.3722,7.3832,2.2773c-2.2578,9.179-4.2309,10.802-8.8126,14.5766
		c-4.4252,4.1976,3.0561,5.632,5.5685,3.8751c7.287-5.0135,9.9566-11.4878,12.3766-17.4114c1.75-4.2592,6.8408-2.1786,4.4861,4.7847
		c-5.6295,16.6257-14.9204,23.1679-31.1476,26.5175c-1.6576,0.3268-2.8506,1.9027-2.0705,3.2554
		c2.1623,2.3094,4.3591,4.4251,6.5246,6.7037c0,0-18.1877,4.6659-28.2298,7.6623l-13.8349-9.4129
		c0.8988-3.4288-5.0242-7.5592-9.5191-4.1548c-4.9274-2.3263-7.6548-1.303-9.5907,2.1258c3.7563-1.2483,5.6647-0.3841,7.2122,1.4551
		c1.0906,4.1637,6.5371,6.7113,10.4186,4.4189l10.3985,7.4046l-17.5246-0.4878c-1.254-4.7841-9.9346-4.8042-12.3338-0.5544
		c-3.1554,0-5.2611,1.7644-6.3423,5.8916c3.432-2.5508,4.9198-2.244,6.6792-1.7619c2.0592,3.6476,9.1181,3.4571,11.0704,0
		l16.8275,0.4714l-9.8309,5.6446c-5.6615-3.3421-12.975,1.6764-11.6078,6.8954c-2.3823,1.98-2.7003,4.8306-1.1786,8.8673
		c0.8222-2.799,2.3848-5.4164,4.8149-6.9256c5.1543,1.4124,10.1099-0.2439,10.1099-5.4749l13.6651-7.7358l13.5268,5.3165
		c0,3.6174,5.3963,6.3517,10.0283,4.4358c3.2453,0.3866,3.7067,3.2937,4.2472,5.5314c1.7726-3.2139,2.1032-6.5447-2.0051-9.3858
		c0-4.1593-5.2398-6.7446-9.5813-4.3466l-11.4664-4.075c10.2979-3.3566,29.2091-6.754,29.2091-6.754
		c2.5778,2.4703,4.637,4.2881,7.216,6.4995c1.3678,0.8466,3.3013,0.802,5.4057-1.9467
		c6.4278-9.5373,12.5048-26.8985,21.7957-29.2883c3.4156-0.88,7.524,1.4344,6.6515,9.0753
		c-1.3288,11.6172-9.8308,21.2759-20.5241,28.5038c-5.95,3.9682-8.4625,2.2151-13.0749,1.9863
		c-5.95,0.6814-7.5416,3.6413-2.64,7.744c4.5471,2.4074,8.651,2.7305,11.9617,2.0806c2.8631-0.5204,6.204-4.2957,8.5894-6.3448
		c2.6746-3.1567,7.1292,0.5871,4.1083,4.2957c-5.5075,6.7031-11.0409,11.0974-17.82,10.9987
		c-7.1594,1.0089-5.8218,5.1071-1.0824,7.0934c8.5285,3.6099,16.258-3.1253,20.1432-7.5825c3.0209-3.349,5.187-3.4792,4.6432,1.7267
		c-2.9908,9.4657-7.0947,13.1422-13.7764,13.5998c-5.4108-0.489-5.4724,3.7752-1.5262,6.6717
		c9.0326,6.3762,15.5873-4.493,18.6434-11.066c2.1617-5.9545,5.5063-3.1208,5.8533,1.7575c0.066,6.5422-4.62,13.3295-8.4857,16.681
		C309.4734,335.8319,330,357.1417,330,357.1417s20.5273-21.3111,16.6628-24.6633L346.6634,332.4791z M374.1716,91.1453
		c-3.195,0-5.1688,1.1189-5.1688,2.4766c0,1.3791,1.9737,2.503,5.1688,2.503c3.1762,0,5.1933-1.2257,5.1933-2.6067
		c0-1.3577-2.0177-2.3735-5.1933-2.3735V91.1453z M285.8297,91.1453c3.195,0,5.1687,1.1189,5.1687,2.4766
		c0,1.3791-1.9737,2.503-5.1687,2.503c-3.1762,0-5.1932-1.2257-5.1932-2.6067c0-1.3577,2.0177-2.3735,5.1932-2.3735V91.1453z"/>
</g>
</svg>
