<?xml version="1.0" encoding="utf-8"?>
<!-- Generator: Adobe Illustrator 27.7.0, SVG Export Plug-In . SVG Version: 6.00 Build 0)  -->
<!DOCTYPE svg PUBLIC "-//W3C//DTD SVG 1.1//EN" "http://www.w3.org/Graphics/SVG/1.1/DTD/svg11.dtd" [
	<!ENTITY ns_extend "http://ns.adobe.com/Extensibility/1.0/">
	<!ENTITY ns_ai "http://ns.adobe.com/AdobeIllustrator/10.0/">
	<!ENTITY ns_graphs "http://ns.adobe.com/Graphs/1.0/">
	<!ENTITY ns_vars "http://ns.adobe.com/Variables/1.0/">
	<!ENTITY ns_imrep "http://ns.adobe.com/ImageReplacement/1.0/">
	<!ENTITY ns_sfw "http://ns.adobe.com/SaveForWeb/1.0/">
	<!ENTITY ns_custom "http://ns.adobe.com/GenericCustomNamespace/1.0/">
	<!ENTITY ns_adobe_xpath "http://ns.adobe.com/XPath/1.0/">
]>
<svg version="1.1" id="Layer_1" xmlns:x="&ns_extend;" xmlns:i="&ns_ai;" xmlns:graph="&ns_graphs;"
	 xmlns="http://www.w3.org/2000/svg" xmlns:xlink="http://www.w3.org/1999/xlink" x="0px" y="0px" width="660px" height="440px"
	 viewBox="0 0 660 440" style="enable-background:new 0 0 660 440;" xml:space="preserve">
<style type="text/css">
	.st0{fill:#D22730;}
	.st1{fill:#FFFFFF;}
	.st2{fill:#009739;}
</style>
<metadata>
	<sfw  xmlns="&ns_sfw;">
		<slices></slices>
		<sliceSourceBounds  bottomLeftOrigin="true" height="440" width="660" x="0" y="-0.3898"></sliceSourceBounds>
	</sfw>
</metadata>
<g>
	<rect y="0.3898" class="st0" width="660" height="440"/>
	<path class="st1" d="M4.8889,0.3898h97.7778v440H4.8889V0.3898z"/>
	<g id="b">
		<path id="a" class="st0" d="M55.9289,0.3898v15.9378h-4.3022V0.3898H55.9289z M0.9778,28.2565h7.7244v-6.3556h3.9111v-7.7244
			h5.4756V7.4298h4.4978v-7.04h13.5911v7.04h4.4v6.7467h5.4756v7.7244h3.9111v6.3556h5.9644v9.8756h-5.9644v6.3556h-3.9111v7.7244
			h-5.4756v6.7467h-4.4v7.2356h-3.1289v6.0622h-7.3333v-6.0622h-3.1289v-7.2356h-4.4978v-6.7467h-5.4756v-7.7244H8.7022v-6.3556
			H0.9778 M0.9778,3.7143h7.7244v8.8H0.9778 M31.2889,15.1543H27.28v5.9644h-3.8133v7.5289h-3.7156v9.2889h3.7156v7.5289H27.28
			v5.8667h4.0089v-5.8667h3.8133v-7.5289h3.8133v-9.2889h-3.8133v-7.5289h-3.8133V15.1543z M31.68,28.7454v8.8h-4.7911v-8.8H31.68z
			 M0.9778,51.8209h7.7244v9.4844H0.9778 M55.9289,52.7009v13.3956h-4.3022V52.7009H55.9289z M45.3689,67.5632v6.6489h4.6933v6.8444
			h5.8667v8.9956h-5.8667v6.9422h-4.6933v6.6489h-5.4756v-6.6489H35.2v-6.9422h-3.9111v-8.9956H35.2v-6.8444h4.6933v-6.6489H45.3689
			z M0.9778,81.0565h7.7244v-6.8444h4.6933v-6.6489h5.3778v6.6489h4.6933v6.8444h3.9111v8.9956h-3.9111v6.9422h-4.6933v6.6489
			h-5.3778v-6.6489H8.7022v-6.9422H0.9778 M44.6844,81.2521h-4.0089v8.5067h4.0089V81.2521z M18.1867,81.2521h-4.0089v8.5067h4.0089
			V81.2521z M19.7511,222.1498v-4.5956h-3.3244v-6.9422h-4.4v-4.2045H8.7022v-6.7467H0.9778v-15.6445h7.7244v4.4978h3.3244v6.5511
			h4.4v7.8222h6.2578v-7.04H27.28v-5.1822h3.3244v-6.16h4.4v-6.5511h3.2267v-6.6489H41.36v-6.8445h4.2044v-9.1911h-5.5733v-8.3111
			h-6.0622v-4.9867H23.76v7.2355h5.8667v6.5511h-3.9111v8.0178H21.12v7.04h-5.7689v-7.04H10.56v-8.0178H7.6267v-6.5511H0.9778
			v-12.4178h7.7244v-8.0178h2.9333v-6.16h2.7378v-7.04h3.9111v-6.9422h3.8133v-4.5956h4.5956v-6.9422h5.5733v6.9422h4.5956v4.5956
			h3.9111v6.9422h3.8133v7.04h3.1289v6.0622h3.1289v5.28h5.0844v38.8178H50.16v6.5511h-1.6622v6.8445h-4.3022v6.6489h-2.64v4.8889
			h-2.7378v5.1822h-4.6933v5.0844h-6.7467v14.1778 M55.9289,103.5454v13.3956h-4.3022v-13.3956H55.9289z M0.9778,106.0876h7.7244
			v9.4844H0.9778 M0.9778,163.0921h7.7244v9.4845H0.9778V163.0921z M55.7333,187.1454v8.6044h-4.1067v-8.6044H55.7333z
			 M50.0622,222.1498v-5.3778H47.52v-4.2045h-3.7156v-12.6133H47.52v5.0844h3.9111v7.4311h4.3022v9.5822 M34.8089,222.0521v-6.2578
			h4.1067v6.2578"/>
		<g transform="matrix(-1 0 0 1 110 0)">
			<path id="a_00000001634617295127942680000003251951038024049024_" class="st0" d="M51.6267,0.3898v15.9378h4.3022V0.3898H51.6267
				z M106.5778,28.2565h-7.7244v-6.3556h-3.9111v-7.7244h-5.4756V7.4298h-4.4978v-7.04H71.3778v7.04h-4.4v6.7467h-5.4756v7.7244
				h-3.9111v6.3556h-5.9644v9.8756h5.9644v6.3556h3.9111v7.7244h5.4756v6.7467h4.4v7.2356h3.1289v6.0622H81.84v-6.0622h3.1289
				v-7.2356h4.4978v-6.7467h5.4756v-7.7244h3.9111v-6.3556h7.7244 M106.5778,3.7143h-7.7244v8.8h7.7244 M76.2667,15.1543h4.0089
				v5.9644h3.8133v7.5289h3.7156v9.2889h-3.7156v7.5289h-3.8133v5.8667h-4.0089v-5.8667h-3.8133v-7.5289H68.64v-9.2889h3.8133
				v-7.5289h3.8133V15.1543z M75.8756,28.7454v8.8h4.7911v-8.8H75.8756z M106.5778,51.8209h-7.7244v9.4844h7.7244 M51.6267,52.7009
				v13.3956h4.3022V52.7009H51.6267z M62.1867,67.5632v6.6489h-4.6933v6.8444h-5.8667v8.9956h5.8667v6.9422h4.6933v6.6489h5.4756
				v-6.6489h4.6933v-6.9422h3.9111v-8.9956h-3.9111v-6.8444h-4.6933v-6.6489H62.1867z M106.5778,81.0565h-7.7244v-6.8444H94.16
				v-6.6489h-5.3778v6.6489h-4.6933v6.8444h-3.9111v8.9956h3.9111v6.9422h4.6933v6.6489H94.16v-6.6489h4.6933v-6.9422h7.7244
				 M62.8711,81.2521H66.88v8.5067h-4.0089V81.2521z M89.3689,81.2521h4.0089v8.5067h-4.0089V81.2521z M87.8044,222.1498v-4.5956
				h3.3244v-6.9422h4.4v-4.2045h3.3244v-6.7467h7.7244v-15.6445h-7.7244v4.4978h-3.3244v6.5511h-4.4v7.8222h-6.2578v-7.04h-4.5956
				v-5.1822h-3.3244v-6.16h-4.4v-6.5511h-3.2267v-6.6489h-3.1289v-6.8445h-4.2044v-9.1911h5.5733v-8.3111h6.0622v-4.9867h10.1689
				v7.2355h-5.8667v6.5511H81.84v8.0178h4.5956v7.04h5.7689v-7.04h4.7911v-8.0178h2.9333v-6.5511h6.6489v-12.4178h-7.7244v-8.0178
				H95.92v-6.16h-2.7378v-7.04h-3.9111v-6.9422h-3.8133v-4.5956h-4.5956v-6.9422h-5.5733v6.9422h-4.5956v4.5956h-3.9111v6.9422
				h-3.8133v7.04H59.84v6.0622h-3.1289v5.28h-5.0844v38.8178h5.7689v6.5511h1.6622v6.8445H63.36v6.6489H66v4.8889h2.7378v5.1822
				h4.6933v5.0844h6.7467v14.1778 M51.6267,103.5454v13.3956h4.3022v-13.3956H51.6267z M106.5778,106.0876h-7.7244v9.4844h7.7244
				 M106.5778,163.0921h-7.7244v9.4845h7.7244V163.0921z M51.8222,187.1454v8.6044h4.1067v-8.6044H51.8222z M57.4933,222.1498
				v-5.3778h2.5422v-4.2045h3.7156v-12.6133h-3.7156v5.0844h-3.9111v7.4311h-4.3022v9.5822 M72.7467,222.0521v-6.2578H68.64v6.2578"
				/>
		</g>
	</g>
	<g transform="matrix(1 0 0 -1 0 450)">
		<g id="b_00000177446652259673552020000015686699260844093607_">
			<path id="a_00000073690907101608328840000014812869631901261754_" class="st0" d="M55.9289,440.3898v-15.9378h-4.3022v15.9378
				H55.9289z M0.9778,412.5232h7.7244v6.3556h3.9111v7.7244h5.4756v6.7467h4.4978v7.04h13.5911v-7.04h4.4v-6.7467h5.4756v-7.7244
				h3.9111v-6.3556h5.9644v-9.8755h-5.9644v-6.3556h-3.9111v-7.7245h-5.4756v-6.7466h-4.4v-7.2356h-3.1289v-6.0622h-7.3333v6.0622
				h-3.1289v7.2356h-4.4978v6.7466h-5.4756v7.7245H8.7022v6.3556H0.9778 M0.9778,437.0654h7.7244v-8.8H0.9778 M31.2889,425.6254
				H27.28v-5.9644h-3.8133v-7.5289h-3.7156v-9.2889h3.7156v-7.5289H27.28v-5.8667h4.0089v5.8667h3.8133v7.5289h3.8133v9.2889
				h-3.8133v7.5289h-3.8133V425.6254z M31.68,412.0343v-8.8h-4.7911v8.8H31.68z M0.9778,388.9587h7.7244v-9.4844H0.9778
				 M55.9289,388.0787v-13.3955h-4.3022v13.3955H55.9289z M45.3689,373.2165v-6.6489h4.6933v-6.8444h5.8667v-8.9956h-5.8667v-6.9422
				h-4.6933v-6.6489h-5.4756v6.6489H35.2v6.9422h-3.9111v8.9956H35.2v6.8444h4.6933v6.6489H45.3689z M0.9778,359.7232h7.7244v6.8444
				h4.6933v6.6489h5.3778v-6.6489h4.6933v-6.8444h3.9111v-8.9956h-3.9111v-6.9422h-4.6933v-6.6489h-5.3778v6.6489H8.7022v6.9422
				H0.9778 M44.6844,359.5276h-4.0089v-8.5067h4.0089V359.5276z M18.1867,359.5276h-4.0089v-8.5067h4.0089V359.5276z
				 M19.7511,218.6298v4.5956h-3.3244v6.9422h-4.4v4.2045H8.7022v6.7467H0.9778v15.6444h7.7244v-4.4978h3.3244v-6.5511h4.4v-7.8222
				h6.2578v7.04H27.28v5.1822h3.3244v6.16h4.4v6.5511h3.2267v6.6489H41.36v6.8445h4.2044v9.1911h-5.5733v8.3111h-6.0622v4.9867
				H23.76v-7.2356h5.8667v-6.5511h-3.9111v-8.0178H21.12v-7.04h-5.7689v7.04H10.56v8.0178H7.6267v6.5511H0.9778v12.4178h7.7244
				v8.0178h2.9333v6.16h2.7378v7.04h3.9111v6.9422h3.8133v4.5956h4.5956v6.9422h5.5733v-6.9422h4.5956v-4.5956h3.9111v-6.9422
				h3.8133v-7.04h3.1289v-6.0622h3.1289v-5.28h5.0844v-38.8178H50.16v-6.5511h-1.6622v-6.8444h-4.3022v-6.6489h-2.64v-4.8889
				h-2.7378v-5.1822h-4.6933v-5.0844h-6.7467v-14.1778 M55.9289,337.2343v-13.3956h-4.3022v13.3956H55.9289z M0.9778,334.692h7.7244
				v-9.4844H0.9778 M0.9778,277.6876h7.7244v-9.4845H0.9778V277.6876z M55.7333,253.6343v-8.6044h-4.1067v8.6044H55.7333z
				 M50.0622,218.6298v5.3778H47.52v4.2045h-3.7156v12.6133H47.52v-5.0844h3.9111v-7.4311h4.3022v-9.5822 M34.8089,218.7276v6.2578
				h4.1067v-6.2578"/>
			<g transform="matrix(-1 0 0 1 110 0)">
				<path id="a_00000161629542196690667830000017552790196303266706_" class="st0" d="M51.6267,440.3898v-15.9378h4.3022v15.9378
					H51.6267z M106.5778,412.5232h-7.7244v6.3556h-3.9111v7.7244h-5.4756v6.7467h-4.4978v7.04H71.3778v-7.04h-4.4v-6.7467h-5.4756
					v-7.7244h-3.9111v-6.3556h-5.9644v-9.8755h5.9644v-6.3556h3.9111v-7.7245h5.4756v-6.7466h4.4v-7.2356h3.1289v-6.0622H81.84
					v6.0622h3.1289v7.2356h4.4978v6.7466h5.4756v7.7245h3.9111v6.3556h7.7244 M106.5778,437.0654h-7.7244v-8.8h7.7244
					 M76.2667,425.6254h4.0089v-5.9644h3.8133v-7.5289h3.7156v-9.2889h-3.7156v-7.5289h-3.8133v-5.8667h-4.0089v5.8667h-3.8133
					v7.5289H68.64v9.2889h3.8133v7.5289h3.8133V425.6254z M75.8756,412.0343v-8.8h4.7911v8.8H75.8756z M106.5778,388.9587h-7.7244
					v-9.4844h7.7244 M51.6267,388.0787v-13.3955h4.3022v13.3955H51.6267z M62.1867,373.2165v-6.6489h-4.6933v-6.8444h-5.8667
					v-8.9956h5.8667v-6.9422h4.6933v-6.6489h5.4756v6.6489h4.6933v6.9422h3.9111v8.9956h-3.9111v6.8444h-4.6933v6.6489H62.1867z
					 M106.5778,359.7232h-7.7244v6.8444H94.16v6.6489h-5.3778v-6.6489h-4.6933v-6.8444h-3.9111v-8.9956h3.9111v-6.9422h4.6933
					v-6.6489H94.16v6.6489h4.6933v6.9422h7.7244 M62.8711,359.5276H66.88v-8.5067h-4.0089V359.5276z M89.3689,359.5276h4.0089
					v-8.5067h-4.0089V359.5276z M87.8044,218.6298v4.5956h3.3244v6.9422h4.4v4.2045h3.3244v6.7467h7.7244v15.6444h-7.7244v-4.4978
					h-3.3244v-6.5511h-4.4v-7.8222h-6.2578v7.04h-4.5956v5.1822h-3.3244v6.16h-4.4v6.5511h-3.2267v6.6489h-3.1289v6.8445h-4.2044
					v9.1911h5.5733v8.3111h6.0622v4.9867h10.1689v-7.2356h-5.8667v-6.5511H81.84v-8.0178h4.5956v-7.04h5.7689v7.04h4.7911v8.0178
					h2.9333v6.5511h6.6489v12.4178h-7.7244v8.0178H95.92v6.16h-2.7378v7.04h-3.9111v6.9422h-3.8133v4.5956h-4.5956v6.9422h-5.5733
					v-6.9422h-4.5956v-4.5956h-3.9111v-6.9422h-3.8133v-7.04H59.84v-6.0622h-3.1289v-5.28h-5.0844v-38.8178h5.7689v-6.5511h1.6622
					v-6.8444H63.36v-6.6489H66v-4.8889h2.7378v-5.1822h4.6933v-5.0844h6.7467v-14.1778 M51.6267,337.2343v-13.3956h4.3022v13.3956
					H51.6267z M106.5778,334.692h-7.7244v-9.4844h7.7244 M106.5778,277.6876h-7.7244v-9.4845h7.7244V277.6876z M51.8222,253.6343
					v-8.6044h4.1067v8.6044H51.8222z M57.4933,218.6298v5.3778h2.5422v4.2045h3.7156v12.6133h-3.7156v-5.0844h-3.9111v-7.4311
					h-4.3022v-9.5822 M72.7467,218.7276v6.2578H68.64v-6.2578"/>
			</g>
		</g>
	</g>
	<path class="st2" d="M102.6667,293.7232H660v146.6667H102.6667V293.7232z"/>
</g>
</svg>
