<?xml version="1.0" encoding="utf-8"?>
<!-- Generator: Adobe Illustrator 27.7.0, SVG Export Plug-In . SVG Version: 6.00 Build 0)  -->
<!DOCTYPE svg PUBLIC "-//W3C//DTD SVG 1.1//EN" "http://www.w3.org/Graphics/SVG/1.1/DTD/svg11.dtd" [
	<!ENTITY ns_extend "http://ns.adobe.com/Extensibility/1.0/">
	<!ENTITY ns_ai "http://ns.adobe.com/AdobeIllustrator/10.0/">
	<!ENTITY ns_graphs "http://ns.adobe.com/Graphs/1.0/">
	<!ENTITY ns_vars "http://ns.adobe.com/Variables/1.0/">
	<!ENTITY ns_imrep "http://ns.adobe.com/ImageReplacement/1.0/">
	<!ENTITY ns_sfw "http://ns.adobe.com/SaveForWeb/1.0/">
	<!ENTITY ns_custom "http://ns.adobe.com/GenericCustomNamespace/1.0/">
	<!ENTITY ns_adobe_xpath "http://ns.adobe.com/XPath/1.0/">
]>
<svg version="1.1" id="Layer_1" xmlns:x="&ns_extend;" xmlns:i="&ns_ai;" xmlns:graph="&ns_graphs;"
	 xmlns="http://www.w3.org/2000/svg" xmlns:xlink="http://www.w3.org/1999/xlink" x="0px" y="0px" width="660px" height="440px"
	 viewBox="0 0 660 440" style="enable-background:new 0 0 660 440;" xml:space="preserve">
<style type="text/css">
	.st0{fill:#003087;}
	.st1{fill:#FFFFFF;}
	.st2{fill:#D50032;}
</style>
<metadata>
	<sfw  xmlns="&ns_sfw;">
		<slices></slices>
		<sliceSourceBounds  bottomLeftOrigin="true" height="440.0048" width="660" x="0" y="-0.0024"></sliceSourceBounds>
	</sfw>
</metadata>
<g>
	<g>
		<path class="st0" d="M0-0.0024h660v440H0V-0.0024z"/>
	</g>
	<g>
		<path d="M0,219.9976h660 M237.6-0.0024v440"/>
		<polygon class="st1" points="290.4,440.0024 184.8,440.0024 184.8,272.8024 0,272.8024 0,167.2024 184.8,167.2024 184.8,0.0024 
			290.4,0.0024 290.4,167.2024 660,167.2024 660,272.8024 290.4,272.8024 		"/>
	</g>
	<g>
		<path d="M0,219.9976h660 M237.6-0.0024v440"/>
		<polygon class="st2" points="264,440.0024 211.2,440.0024 211.2,246.4024 0,246.4024 0,193.6024 211.2,193.6024 211.2,0.0024 
			264,0.0024 264,193.6024 660,193.6024 660,246.4024 264,246.4024 		"/>
	</g>
</g>
</svg>
