<?xml version="1.0" encoding="utf-8"?>
<!-- Generator: Adobe Illustrator 27.7.0, SVG Export Plug-In . SVG Version: 6.00 Build 0)  -->
<!DOCTYPE svg PUBLIC "-//W3C//DTD SVG 1.1//EN" "http://www.w3.org/Graphics/SVG/1.1/DTD/svg11.dtd" [
	<!ENTITY ns_extend "http://ns.adobe.com/Extensibility/1.0/">
	<!ENTITY ns_ai "http://ns.adobe.com/AdobeIllustrator/10.0/">
	<!ENTITY ns_graphs "http://ns.adobe.com/Graphs/1.0/">
	<!ENTITY ns_vars "http://ns.adobe.com/Variables/1.0/">
	<!ENTITY ns_imrep "http://ns.adobe.com/ImageReplacement/1.0/">
	<!ENTITY ns_sfw "http://ns.adobe.com/SaveForWeb/1.0/">
	<!ENTITY ns_custom "http://ns.adobe.com/GenericCustomNamespace/1.0/">
	<!ENTITY ns_adobe_xpath "http://ns.adobe.com/XPath/1.0/">
]>
<svg version="1.1" id="Layer_1" xmlns:x="&ns_extend;" xmlns:i="&ns_ai;" xmlns:graph="&ns_graphs;"
	 xmlns="http://www.w3.org/2000/svg" xmlns:xlink="http://www.w3.org/1999/xlink" x="0px" y="0px" width="660px" height="440px"
	 viewBox="0 0 660 440" style="enable-background:new 0 0 660 440;" xml:space="preserve">
<style type="text/css">
	.st0{fill:#002B7F;}
	.st1{fill:#CE1126;}
	.st2{fill:#FFD83D;}
</style>
<metadata>
	<sfw  xmlns="&ns_sfw;">
		<slices></slices>
		<sliceSourceBounds  bottomLeftOrigin="true" height="440" width="660" x="0" y="0"></sliceSourceBounds>
	</sfw>
</metadata>
<g>
	<g>
		<rect class="st0" width="660" height="440"/>
	</g>
	<g>
		<rect y="220" class="st1" width="660" height="220"/>
	</g>
	<g>
		<g id="half">
			<g>
				<path class="st2" d="M158.6765,89.6783l-1.3481,45.8333h-46.5073c-5.7219-11.1234-10.4473-20.5709-10.4473-33.364
					c0-10.7064,8.4209-19.2096,20.5576-19.2096C133.7792,82.9381,147.8951,87.2674,158.6765,89.6783z"/>
			</g>
			<g>
				<g>
					<path class="st2" d="M105.9345,91.7846v26.4553"/>
					<path d="M105.9344,118.7897c-0.3036,0-0.55-0.2464-0.55-0.55V91.7846c0-0.3036,0.2464-0.55,0.55-0.55
						c0.3036,0,0.55,0.2464,0.55,0.55v26.4551C106.4844,118.5434,106.2381,118.7897,105.9344,118.7897z"/>
				</g>
				<g>
					<path class="st2" d="M109.6697,89.0848v35.2249"/>
					<path d="M109.6699,124.8598c-0.3036,0-0.55-0.2464-0.55-0.55V89.0847c0-0.3036,0.2464-0.55,0.55-0.55
						c0.3036,0,0.55,0.2464,0.55,0.55v35.2251C110.2199,124.6134,109.9735,124.8598,109.6699,124.8598z"/>
				</g>
				<g>
					<path class="st2" d="M113.4049,87.2313v41.9651"/>
					<path d="M113.4049,129.7464c-0.3036,0-0.55-0.2464-0.55-0.55V87.2314c0-0.3036,0.2464-0.55,0.55-0.55
						c0.3036,0,0.55,0.2464,0.55,0.55v41.9651C113.9549,129.5001,113.7086,129.7464,113.4049,129.7464z"/>
				</g>
				<g>
					<path class="st2" d="M117.1401,86.3653v32.9129"/>
					<path d="M117.14,119.8282c-0.3036,0-0.55-0.2464-0.55-0.55v-32.913c0-0.3036,0.2464-0.55,0.55-0.55
						c0.3036,0,0.55,0.2464,0.55,0.55v32.913C117.69,119.5818,117.4436,119.8282,117.14,119.8282z"/>
				</g>
				<g>
					<path class="st2" d="M120.8753,86.202v33.2394"/>
					<path d="M120.8754,119.9914c-0.3036,0-0.55-0.2464-0.55-0.55V86.2019c0-0.3036,0.2464-0.55,0.55-0.55
						c0.3036,0,0.55,0.2464,0.55,0.55v33.2396C121.4254,119.7451,121.179,119.9914,120.8754,119.9914z"/>
				</g>
				<g>
					<path class="st2" d="M124.6105,85.0407v34.3824"/>
					<path d="M124.6105,119.9732c-0.3036,0-0.55-0.2464-0.55-0.55V85.0407c0-0.3036,0.2464-0.55,0.55-0.55
						c0.3036,0,0.55,0.2464,0.55,0.55v34.3825C125.1604,119.7268,124.9141,119.9732,124.6105,119.9732z"/>
				</g>
				<g>
					<path class="st2" d="M128.3456,85.0407v34.3824"/>
					<path d="M128.3455,119.9732c-0.3036,0-0.55-0.2464-0.55-0.55V85.0407c0-0.3036,0.2463-0.55,0.55-0.55s0.55,0.2464,0.55,0.55
						v34.3825C128.8955,119.7268,128.6492,119.9732,128.3455,119.9732z"/>
				</g>
				<g>
					<path class="st2" d="M132.0808,85.3777v34.3824"/>
					<path d="M132.0809,120.3101c-0.3036,0-0.55-0.2464-0.55-0.55V85.3776c0-0.3036,0.2464-0.55,0.55-0.55
						c0.3036,0,0.55,0.2464,0.55,0.55v34.3825C132.6309,120.0638,132.3846,120.3101,132.0809,120.3101z"/>
				</g>
				<g>
					<path class="st2" d="M135.816,85.7148v34.3824"/>
					<path d="M135.816,120.6471c-0.3036,0-0.55-0.2464-0.55-0.55V85.7149c0-0.3036,0.2464-0.55,0.55-0.55
						c0.3036,0,0.55,0.2464,0.55,0.55v34.3822C136.366,120.4007,136.1196,120.6471,135.816,120.6471z"/>
				</g>
				<g>
					<path class="st2" d="M139.5512,87.9053v34.3824"/>
					<path d="M139.551,122.8378c-0.3036,0-0.55-0.2464-0.55-0.55V87.9052c0-0.3036,0.2464-0.55,0.55-0.55s0.55,0.2464,0.55,0.55
						v34.3825C140.101,122.5914,139.8547,122.8378,139.551,122.8378z"/>
				</g>
				<g>
					<path class="st2" d="M143.2864,88.2423v38.7635"/>
					<path d="M143.2865,127.5557c-0.3036,0-0.55-0.2464-0.55-0.55V88.2422c0-0.3036,0.2464-0.55,0.55-0.55
						c0.3036,0,0.55,0.2464,0.55,0.55v38.7635C143.8365,127.3094,143.5901,127.5557,143.2865,127.5557z"/>
				</g>
				<g>
					<path class="st2" d="M147.0216,88.2423v34.3824"/>
					<path d="M147.0215,123.1747c-0.3036,0-0.55-0.2464-0.55-0.55V88.2422c0-0.3036,0.2464-0.55,0.55-0.55s0.55,0.2464,0.55,0.55
						v34.3825C147.5715,122.9284,147.3252,123.1747,147.0215,123.1747z"/>
				</g>
				<g>
					<path class="st2" d="M150.7568,88.2423v34.3824"/>
					<path d="M150.7569,123.1747c-0.3036,0-0.55-0.2464-0.55-0.55V88.2422c0-0.3036,0.2464-0.55,0.55-0.55
						c0.3036,0,0.55,0.2464,0.55,0.55v34.3825C151.3069,122.9284,151.0606,123.1747,150.7569,123.1747z"/>
				</g>
				<g>
					<path d="M129.3567,86.4767c7.8932,1.302,25.2311,9.4139,23.2537,20.3891c-2.8023,15.5535-11.8857,9.3116-23.9277,7.0772
						l-9.0993,3.0331c-3.2559,3.3233-8.0504,6.3679-11.2898,2.3591h-5.3922v21.0631h59.6507V89.5098L129.3567,86.4767z"/>
					<path d="M162.5522,140.9484h-59.6507c-0.3036,0-0.55-0.2464-0.55-0.55v-21.0633c0-0.3036,0.2464-0.55,0.55-0.55h5.3919
						c0.1661,0,0.3233,0.0752,0.4279,0.2045c0.878,1.0864,1.8874,1.6428,3.0859,1.7001c2.8087,0.1192,5.8273-2.5108,7.3835-4.0985
						c0.0609-0.0623,0.1361-0.1092,0.2188-0.1368l9.0993-3.0332c0.0881-0.0301,0.1823-0.0365,0.2743-0.019
						c2.3293,0.4322,4.5092,1.0026,6.6176,1.5544c5.0349,1.3174,9.3826,2.4564,12.3406,0.5672
						c2.0911-1.3353,3.507-4.1991,4.3277-8.7552c0.4752-2.6368-0.207-5.2819-2.0278-7.8622
						c-4.6091-6.5316-15.1211-10.9542-20.774-11.8866c-0.2922-0.0483-0.4938-0.319-0.4562-0.6127
						c0.0376-0.294,0.2972-0.5063,0.5958-0.478l33.1955,3.0329c0.2832,0.0261,0.4999,0.2635,0.4999,0.5479v50.8886
						C163.1022,140.702,162.8559,140.9484,162.5522,140.9484z M103.4516,139.8484h58.5507V90.0118l-26.689-2.4385
						c5.5981,2.0761,12.1827,5.8187,15.6267,10.6989c1.997,2.8298,2.741,5.7539,2.2118,8.6911
						c-0.8905,4.9425-2.4216,7.9571-4.8186,9.4875c-3.3627,2.1466-7.9267,0.9521-13.2111-0.43
						c-2.0468-0.5357-4.1619-1.0893-6.4002-1.5111l-8.8394,2.9466c-1.7116,1.7277-4.9514,4.4842-8.1275,4.332
						c-1.4298-0.0684-2.6791-0.7083-3.7182-1.9032h-4.5851V139.8484z"/>
				</g>
			</g>
			<g>
				<circle class="st2" cx="156.0647" cy="82.8539" r="3.6229"/>
				<path d="M156.0647,87.2102c-2.402,0-4.3563-1.9544-4.3563-4.3563s1.9544-4.3563,4.3563-4.3563
					c2.4019,0,4.3563,1.9544,4.3563,4.3563S158.4666,87.2102,156.0647,87.2102z M156.0647,79.9643
					c-1.5934,0-2.8896,1.2962-2.8896,2.8896c0,1.5934,1.2962,2.8896,2.8896,2.8896c1.5934,0,2.8896-1.2962,2.8896-2.8896
					C158.9543,81.2605,157.6581,79.9643,156.0647,79.9643z"/>
			</g>
			<g>
				<circle class="st2" cx="147.9229" cy="80.8944" r="3.6229"/>
				<path d="M147.9228,85.2505c-2.402,0-4.356-1.954-4.356-4.356c0-2.402,1.954-4.3563,4.356-4.3563
					c2.4019,0,4.3563,1.9544,4.3563,4.3563C152.2791,83.2965,150.3247,85.2505,147.9228,85.2505z M147.9228,78.0049
					c-1.5931,0-2.8893,1.2962-2.8893,2.8896c0,1.5931,1.2962,2.8893,2.8893,2.8893c1.5934,0,2.8896-1.2962,2.8896-2.8893
					C150.8124,79.3011,149.5162,78.0049,147.9228,78.0049z"/>
			</g>
			<g>
				<circle class="st2" cx="139.6631" cy="78.82" r="3.6229"/>
				<path d="M139.6631,83.1762c-2.4019,0-4.3563-1.9544-4.3563-4.3563s1.9544-4.356,4.3563-4.356c2.402,0,4.3563,1.954,4.3563,4.356
					S142.0651,83.1762,139.6631,83.1762z M139.6631,75.9306c-1.5934,0-2.8896,1.2962-2.8896,2.8893
					c0,1.5934,1.2962,2.8896,2.8896,2.8896s2.8896-1.2962,2.8896-2.8896C142.5528,77.2268,141.2565,75.9306,139.6631,75.9306z"/>
			</g>
			<g>
				<circle class="st2" cx="131.3715" cy="77.437" r="3.6229"/>
				<path d="M131.3716,81.7933c-2.4019,0-4.3563-1.9544-4.3563-4.3563s1.9544-4.3563,4.3563-4.3563s4.356,1.9544,4.356,4.3563
					S133.7735,81.7933,131.3716,81.7933z M131.3716,74.5473c-1.5934,0-2.8896,1.2962-2.8896,2.8896
					c0,1.5934,1.2962,2.8896,2.8896,2.8896c1.5931,0,2.8893-1.2962,2.8893-2.8896
					C134.2609,75.8436,132.9646,74.5473,131.3716,74.5473z"/>
			</g>
			<g>
				<circle class="st2" cx="123.0799" cy="76.6192" r="3.6229"/>
				<path d="M123.0797,80.9755c-2.402,0-4.356-1.9544-4.356-4.3563c0-2.402,1.954-4.3563,4.356-4.3563s4.3563,1.9544,4.3563,4.3563
					C127.436,79.0211,125.4816,80.9755,123.0797,80.9755z M123.0797,73.7295c-1.5931,0-2.8893,1.2962-2.8893,2.8896
					c0,1.5934,1.2962,2.8896,2.8893,2.8896c1.5934,0,2.8896-1.2962,2.8896-2.8896
					C125.9693,75.0257,124.6731,73.7295,123.0797,73.7295z"/>
			</g>
			<g>
				<circle class="st2" cx="114.9495" cy="77.0826" r="3.6229"/>
				<path d="M114.9496,81.4388c-2.4019,0-4.3563-1.9544-4.3563-4.3563s1.9544-4.356,4.3563-4.356c2.402,0,4.356,1.954,4.356,4.356
					S117.3516,81.4388,114.9496,81.4388z M114.9496,74.1932c-1.5934,0-2.8896,1.2962-2.8896,2.8893
					c0,1.5934,1.2962,2.8896,2.8896,2.8896c1.5931,0,2.8893-1.2962,2.8893-2.8896
					C117.8389,75.4894,116.5427,74.1932,114.9496,74.1932z"/>
			</g>
			<g>
				<circle class="st2" cx="107.1983" cy="79.7365" r="3.6229"/>
				<path d="M107.1984,84.0928c-2.402,0-4.3563-1.9544-4.3563-4.3563s1.9544-4.3563,4.3563-4.3563
					c2.4019,0,4.356,1.9544,4.356,4.3563S109.6004,84.0928,107.1984,84.0928z M107.1984,76.8469
					c-1.5934,0-2.8896,1.2962-2.8896,2.8896s1.2962,2.8896,2.8896,2.8896c1.5931,0,2.8893-1.2962,2.8893-2.8896
					S108.7915,76.8469,107.1984,76.8469z"/>
			</g>
			<g>
				<circle class="st2" cx="100.6687" cy="84.5389" r="3.6229"/>
				<path d="M100.6686,88.895c-2.4019,0-4.356-1.954-4.356-4.356s1.954-4.3563,4.356-4.3563c2.402,0,4.3563,1.9544,4.3563,4.3563
					S103.0706,88.895,100.6686,88.895z M100.6686,81.6494c-1.5931,0-2.8893,1.2962-2.8893,2.8896
					c0,1.5931,1.2962,2.8893,2.8893,2.8893c1.5934,0,2.8896-1.2962,2.8896-2.8893
					C103.5583,82.9456,102.262,81.6494,100.6686,81.6494z"/>
			</g>
			<g>
				<circle class="st2" cx="96.0348" cy="91.237" r="3.6229"/>
				<path d="M96.0348,95.5931c-2.402,0-4.3563-1.954-4.3563-4.356s1.9544-4.3563,4.3563-4.3563s4.3563,1.9544,4.3563,4.3563
					S98.4368,95.5931,96.0348,95.5931z M96.0348,88.3475c-1.5934,0-2.8896,1.2962-2.8896,2.8896
					c0,1.5931,1.2962,2.8893,2.8896,2.8893s2.8896-1.2962,2.8896-2.8893C98.9244,89.6437,97.6282,88.3475,96.0348,88.3475z"/>
			</g>
			<g>
				<circle class="st2" cx="93.8021" cy="99.1146" r="3.6229"/>
				<path d="M93.8022,103.4707c-2.402,0-4.3563-1.954-4.3563-4.356s1.9544-4.3563,4.3563-4.3563s4.356,1.9544,4.356,4.3563
					S96.2042,103.4707,93.8022,103.4707z M93.8022,96.2251c-1.5934,0-2.8896,1.2962-2.8896,2.8896
					c0,1.5931,1.2962,2.8893,2.8896,2.8893c1.5931,0,2.8893-1.2962,2.8893-2.8893C96.6915,97.5213,95.3953,96.2251,93.8022,96.2251z
					"/>
			</g>
			<g>
				<circle class="st2" cx="93.8864" cy="107.2871" r="3.6229"/>
				<path d="M93.8864,111.6433c-2.402,0-4.3563-1.9544-4.3563-4.3563s1.9544-4.356,4.3563-4.356s4.3563,1.954,4.3563,4.356
					S96.2883,111.6433,93.8864,111.6433z M93.8864,104.3977c-1.5934,0-2.8896,1.2962-2.8896,2.8893
					c0,1.5934,1.2962,2.8896,2.8896,2.8896s2.8896-1.2962,2.8896-2.8896C96.776,105.6939,95.4798,104.3977,93.8864,104.3977z"/>
			</g>
			<g>
				<circle class="st2" cx="95.4451" cy="115.2911" r="3.6229"/>
				<path d="M95.4451,119.6473c-2.402,0-4.3563-1.9544-4.3563-4.3563c0-2.402,1.9544-4.3563,4.3563-4.3563
					s4.3563,1.9544,4.3563,4.3563C99.8014,117.693,97.847,119.6473,95.4451,119.6473z M95.4451,112.4014
					c-1.5934,0-2.8896,1.2962-2.8896,2.8896c0,1.5934,1.2962,2.8896,2.8896,2.8896s2.8896-1.2962,2.8896-2.8896
					C98.3347,113.6976,97.0385,112.4014,95.4451,112.4014z"/>
			</g>
			<g>
				<path class="st2" d="M157.6655,87.6562l-0.337,4.7181c-9.0134-1.381-21.7909-6.4032-33.701-6.4032
					c-11.0047,0-19.5466,4.402-19.5466,15.5024c0,10.9402,4.633,20.8892,10.7843,31.0049l-6.4032,3.0331
					c-5.7219-11.1234-10.4473-20.5709-10.4473-33.364c0-10.7064,8.4209-21.2316,22.9167-21.2316
					C133.7792,80.9161,146.884,85.2453,157.6655,87.6562z"/>
				<path d="M108.4624,136.2451c-0.2664,0-0.5228-0.1457-0.6524-0.3978c-5.4144-10.5259-10.5288-20.4678-10.5288-33.6997
					c0-10.648,8.2887-21.9649,23.65-21.9649c9.8835,0,19.9658,2.5506,28.8614,4.801c2.8173,0.7126,5.4785,1.3857,8.033,1.9569
					c0.3541,0.0795,0.5973,0.4061,0.5715,0.7681l-0.3369,4.718c-0.0147,0.2041-0.1139,0.3932-0.2739,0.521
					c-0.1601,0.1275-0.367,0.1819-0.5686,0.1515c-3.2567-0.4988-7-1.4681-10.9628-2.494
					c-7.0616-1.8283-15.0656-3.9005-22.6273-3.9005c-7.0261,0-18.8132,1.9186-18.8132,14.7691
					c0,11.5131,5.3976,21.9413,10.6774,30.6238c0.1078,0.1776,0.1353,0.3924,0.0759,0.5915
					c-0.0598,0.1987-0.2009,0.3631-0.3885,0.4522l-6.4031,3.0332C108.6748,136.2225,108.5677,136.2451,108.4624,136.2451z
					 M120.9313,81.6494c-14.4085,0-22.1833,10.5614-22.1833,20.4982c0,12.6149,4.8329,22.2664,10.0418,32.3977l5.0277-2.3819
					c-5.2476-8.7162-10.4697-19.124-10.4697-30.6897c0-10.3179,7.3917-16.2357,20.2798-16.2357
					c7.7487,0,15.8487,2.0972,22.9951,3.9474c3.6072,0.9339,7.0304,1.8201,10.0318,2.3361l0.2349-3.2885
					c-2.3841-0.5443-4.8537-1.1691-7.4562-1.8272C140.6206,84.1763,130.6322,81.6494,120.9313,81.6494z"/>
			</g>
		</g>
		<g transform="translate(443.9375) scale(-1,1)">
			<g id="half_00000059300262449577578310000012852080743378330789_">
				<g>
					<path class="st2" d="M166.8777,89.6783l1.348,45.8333h46.5074c5.7219-11.1234,10.4473-20.5709,10.4473-33.364
						c0-10.7064-8.4209-19.2096-20.5576-19.2096C191.775,82.9381,177.6591,87.2674,166.8777,89.6783z"/>
				</g>
				<g>
					<g>
						<path class="st2" d="M219.6197,91.7846v26.4553"/>
						<path d="M219.6197,118.7897c-0.3036,0-0.55-0.2464-0.55-0.55V91.7846c0-0.3036,0.2464-0.55,0.55-0.55
							c0.3036,0,0.55,0.2464,0.55,0.55v26.4551C220.1697,118.5434,219.9234,118.7897,219.6197,118.7897z"/>
					</g>
					<g>
						<path class="st2" d="M215.8845,89.0848v35.2249"/>
						<path d="M215.8843,124.8598c-0.3036,0-0.55-0.2464-0.55-0.55V89.0847c0-0.3036,0.2464-0.55,0.55-0.55s0.55,0.2464,0.55,0.55
							v35.2251C216.4343,124.6134,216.188,124.8598,215.8843,124.8598z"/>
					</g>
					<g>
						<path class="st2" d="M212.1493,87.2313v41.9651"/>
						<path d="M212.1492,129.7464c-0.3036,0-0.55-0.2464-0.55-0.55V87.2314c0-0.3036,0.2464-0.55,0.55-0.55
							c0.3036,0,0.55,0.2464,0.55,0.55v41.9651C212.6992,129.5001,212.4529,129.7464,212.1492,129.7464z"/>
					</g>
					<g>
						<path class="st2" d="M208.4141,86.3653v32.9129"/>
						<path d="M208.4142,119.8282c-0.3036,0-0.55-0.2464-0.55-0.55v-32.913c0-0.3036,0.2464-0.55,0.55-0.55
							c0.3036,0,0.55,0.2464,0.55,0.55v32.913C208.9642,119.5818,208.7178,119.8282,208.4142,119.8282z"/>
					</g>
					<g>
						<path class="st2" d="M204.6789,86.202v33.2394"/>
						<path d="M204.6788,119.9914c-0.3036,0-0.55-0.2464-0.55-0.55V86.2019c0-0.3036,0.2464-0.55,0.55-0.55
							c0.3036,0,0.55,0.2464,0.55,0.55v33.2396C205.2288,119.7451,204.9824,119.9914,204.6788,119.9914z"/>
					</g>
					<g>
						<path class="st2" d="M200.9437,85.0407v34.3824"/>
						<path d="M200.9437,119.9732c-0.3036,0-0.55-0.2464-0.55-0.55V85.0407c0-0.3036,0.2464-0.55,0.55-0.55
							c0.3036,0,0.55,0.2464,0.55,0.55v34.3825C201.4937,119.7268,201.2474,119.9732,200.9437,119.9732z"/>
					</g>
					<g>
						<path class="st2" d="M197.2085,85.0407v34.3824"/>
						<path d="M197.2087,119.9732c-0.3036,0-0.55-0.2464-0.55-0.55V85.0407c0-0.3036,0.2464-0.55,0.55-0.55
							c0.3036,0,0.55,0.2464,0.55,0.55v34.3825C197.7587,119.7268,197.5123,119.9732,197.2087,119.9732z"/>
					</g>
					<g>
						<path class="st2" d="M193.4733,85.3777v34.3824"/>
						<path d="M193.4732,120.3101c-0.3036,0-0.55-0.2464-0.55-0.55V85.3776c0-0.3036,0.2464-0.55,0.55-0.55
							c0.3036,0,0.55,0.2464,0.55,0.55v34.3825C194.0232,120.0638,193.7769,120.3101,193.4732,120.3101z"/>
					</g>
					<g>
						<path class="st2" d="M189.7381,85.7148v34.3824"/>
						<path d="M189.7382,120.6471c-0.3036,0-0.55-0.2464-0.55-0.55V85.7149c0-0.3036,0.2464-0.55,0.55-0.55
							c0.3036,0,0.55,0.2464,0.55,0.55v34.3822C190.2882,120.4007,190.0418,120.6471,189.7382,120.6471z"/>
					</g>
					<g>
						<path class="st2" d="M186.0029,87.9053v34.3824"/>
						<path d="M186.0031,122.8378c-0.3036,0-0.55-0.2464-0.55-0.55V87.9052c0-0.3036,0.2464-0.55,0.55-0.55s0.55,0.2464,0.55,0.55
							v34.3825C186.5531,122.5914,186.3068,122.8378,186.0031,122.8378z"/>
					</g>
					<g>
						<path class="st2" d="M182.2677,88.2423v38.7635"/>
						<path d="M182.2677,127.5557c-0.3036,0-0.55-0.2464-0.55-0.55V88.2422c0-0.3036,0.2464-0.55,0.55-0.55
							c0.3036,0,0.55,0.2464,0.55,0.55v38.7635C182.8177,127.3094,182.5714,127.5557,182.2677,127.5557z"/>
					</g>
					<g>
						<path class="st2" d="M178.5325,88.2423v34.3824"/>
						<path d="M178.5327,123.1747c-0.3036,0-0.55-0.2464-0.55-0.55V88.2422c0-0.3036,0.2464-0.55,0.55-0.55
							c0.3036,0,0.55,0.2464,0.55,0.55v34.3825C179.0827,122.9284,178.8363,123.1747,178.5327,123.1747z"/>
					</g>
					<g>
						<path class="st2" d="M174.7974,88.2423v34.3824"/>
						<path d="M174.7972,123.1747c-0.3036,0-0.55-0.2464-0.55-0.55V88.2422c0-0.3036,0.2464-0.55,0.55-0.55
							c0.3036,0,0.55,0.2464,0.55,0.55v34.3825C175.3472,122.9284,175.1009,123.1747,174.7972,123.1747z"/>
					</g>
					<g>
						<path d="M196.1975,86.4767c-7.8932,1.302-25.2311,9.4139-23.2537,20.3891c2.8023,15.5535,11.8857,9.3116,23.9277,7.0772
							l9.0993,3.0331c3.2559,3.3233,8.0504,6.3679,11.2898,2.3591h5.3922v21.0631H163.002V89.5098L196.1975,86.4767z"/>
						<path d="M222.6526,140.9484H163.002c-0.3036,0-0.55-0.2464-0.55-0.55V89.5098c0-0.2843,0.2166-0.5217,0.4999-0.5479
							l33.1955-3.0329c0.2943-0.0297,0.5579,0.1841,0.5958,0.478c0.0376,0.2936-0.164,0.5643-0.4562,0.6127
							c-5.6529,0.9324-16.1648,5.355-20.774,11.8866c-1.8208,2.5803-2.5029,5.2254-2.0278,7.8622
							c0.8207,4.5561,2.2365,7.42,4.3277,8.7552c2.958,1.8881,7.3061,0.7505,12.3406-0.5672
							c2.1083-0.5518,4.2883-1.1222,6.6175-1.5544c0.092-0.0165,0.1859-0.0111,0.2743,0.019l9.0993,3.0332
							c0.0827,0.0276,0.1579,0.0745,0.2188,0.1368c1.5562,1.5881,4.5844,4.2331,7.3835,4.0985
							c1.1985-0.0573,2.2079-0.6137,3.0859-1.7001c0.1046-0.1293,0.2617-0.2045,0.4279-0.2045h5.3919
							c0.3036,0,0.55,0.2464,0.55,0.55v21.0633C223.2026,140.702,222.9563,140.9484,222.6526,140.9484z M163.552,139.8484h58.5506
							v-19.9633h-4.5851c-1.0391,1.1949-2.2885,1.8348-3.7182,1.9032c-3.1697,0.1432-6.4163-2.6046-8.1275-4.332l-8.8394-2.9466
							c-2.2383,0.4218-4.3535,0.9754-6.4002,1.5111c-5.2852,1.3832-9.8488,2.5774-13.2111,0.43
							c-2.3969-1.5304-3.9281-4.545-4.8186-9.4875c-0.5292-2.9373,0.2148-5.8613,2.2118-8.6911
							c3.4439-4.8802,10.0285-8.6227,15.6267-10.6989l-26.689,2.4385V139.8484z"/>
					</g>
				</g>
				<g>
					<circle class="st2" cx="169.4895" cy="82.8539" r="3.6229"/>
					<path d="M169.4895,87.2102c-2.4019,0-4.3563-1.9544-4.3563-4.3563s1.9544-4.3563,4.3563-4.3563s4.3563,1.9544,4.3563,4.3563
						S171.8915,87.2102,169.4895,87.2102z M169.4895,79.9643c-1.5934,0-2.8896,1.2962-2.8896,2.8896
						c0,1.5934,1.2962,2.8896,2.8896,2.8896s2.8896-1.2962,2.8896-2.8896C172.3792,81.2605,171.0829,79.9643,169.4895,79.9643z"/>
				</g>
				<g>
					<circle class="st2" cx="177.6313" cy="80.8944" r="3.6229"/>
					<path d="M177.6314,85.2505c-2.4019,0-4.3563-1.954-4.3563-4.356c0-2.402,1.9544-4.3563,4.3563-4.3563
						c2.402,0,4.356,1.9544,4.356,4.3563C181.9873,83.2965,180.0333,85.2505,177.6314,85.2505z M177.6314,78.0049
						c-1.5934,0-2.8896,1.2962-2.8896,2.8896c0,1.5931,1.2962,2.8893,2.8896,2.8893c1.5931,0,2.8893-1.2962,2.8893-2.8893
						C180.5207,79.3011,179.2244,78.0049,177.6314,78.0049z"/>
				</g>
				<g>
					<circle class="st2" cx="185.891" cy="78.82" r="3.6229"/>
					<path d="M185.8911,83.1762c-2.402,0-4.3563-1.9544-4.3563-4.3563s1.9544-4.356,4.3563-4.356
						c2.4019,0,4.3563,1.954,4.3563,4.356S188.293,83.1762,185.8911,83.1762z M185.8911,75.9306
						c-1.5934,0-2.8896,1.2962-2.8896,2.8893c0,1.5934,1.2962,2.8896,2.8896,2.8896c1.5934,0,2.8896-1.2962,2.8896-2.8896
						C188.7807,77.2268,187.4845,75.9306,185.8911,75.9306z"/>
				</g>
				<g>
					<circle class="st2" cx="194.1827" cy="77.437" r="3.6229"/>
					<path d="M194.1826,81.7933c-2.402,0-4.356-1.9544-4.356-4.3563s1.954-4.3563,4.356-4.3563
						c2.4019,0,4.3563,1.9544,4.3563,4.3563S196.5845,81.7933,194.1826,81.7933z M194.1826,74.5473
						c-1.5931,0-2.8893,1.2962-2.8893,2.8896c0,1.5934,1.2962,2.8896,2.8893,2.8896c1.5934,0,2.8896-1.2962,2.8896-2.8896
						C197.0722,75.8436,195.776,74.5473,194.1826,74.5473z"/>
				</g>
				<g>
					<circle class="st2" cx="202.4743" cy="76.6192" r="3.6229"/>
					<path d="M202.4745,80.9755c-2.4019,0-4.3563-1.9544-4.3563-4.3563c0-2.402,1.9544-4.3563,4.3563-4.3563
						c2.402,0,4.356,1.9544,4.356,4.3563C206.8304,79.0211,204.8764,80.9755,202.4745,80.9755z M202.4745,73.7295
						c-1.5934,0-2.8896,1.2962-2.8896,2.8896c0,1.5934,1.2962,2.8896,2.8896,2.8896c1.5931,0,2.8893-1.2962,2.8893-2.8896
						C205.3638,75.0257,204.0676,73.7295,202.4745,73.7295z"/>
				</g>
				<g>
					<circle class="st2" cx="210.6047" cy="77.0826" r="3.6229"/>
					<path d="M210.6045,81.4388c-2.4019,0-4.356-1.9544-4.356-4.3563s1.954-4.356,4.356-4.356c2.402,0,4.3563,1.954,4.3563,4.356
						S213.0065,81.4388,210.6045,81.4388z M210.6045,74.1932c-1.5931,0-2.8893,1.2962-2.8893,2.8893
						c0,1.5934,1.2962,2.8896,2.8893,2.8896c1.5934,0,2.8896-1.2962,2.8896-2.8896
						C213.4942,75.4894,212.198,74.1932,210.6045,74.1932z"/>
				</g>
				<g>
					<circle class="st2" cx="218.3559" cy="79.7365" r="3.6229"/>
					<path d="M218.3557,84.0928c-2.4019,0-4.356-1.9544-4.356-4.3563s1.954-4.3563,4.356-4.3563s4.3563,1.9544,4.3563,4.3563
						S220.7577,84.0928,218.3557,84.0928z M218.3557,76.8469c-1.5931,0-2.8893,1.2962-2.8893,2.8896s1.2962,2.8896,2.8893,2.8896
						c1.5934,0,2.8896-1.2962,2.8896-2.8896S219.9492,76.8469,218.3557,76.8469z"/>
				</g>
				<g>
					<circle class="st2" cx="224.8855" cy="84.5389" r="3.6229"/>
					<path d="M224.8855,88.895c-2.4019,0-4.3563-1.954-4.3563-4.356s1.9544-4.3563,4.3563-4.3563c2.402,0,4.356,1.9544,4.356,4.3563
						S227.2875,88.895,224.8855,88.895z M224.8855,81.6494c-1.5934,0-2.8896,1.2962-2.8896,2.8896
						c0,1.5931,1.2962,2.8893,2.8896,2.8893c1.5931,0,2.8893-1.2962,2.8893-2.8893
						C227.7748,82.9456,226.4786,81.6494,224.8855,81.6494z"/>
				</g>
				<g>
					<circle class="st2" cx="229.5193" cy="91.237" r="3.6229"/>
					<path d="M229.5194,95.5931c-2.4019,0-4.3563-1.954-4.3563-4.356s1.9544-4.3563,4.3563-4.3563
						c2.402,0,4.3563,1.9544,4.3563,4.3563S231.9213,95.5931,229.5194,95.5931z M229.5194,88.3475
						c-1.5934,0-2.8896,1.2962-2.8896,2.8896c0,1.5931,1.2962,2.8893,2.8896,2.8893c1.5934,0,2.8896-1.2962,2.8896-2.8893
						C232.409,89.6437,231.1128,88.3475,229.5194,88.3475z"/>
				</g>
				<g>
					<circle class="st2" cx="231.752" cy="99.1146" r="3.6229"/>
					<path d="M231.752,103.4707c-2.4019,0-4.356-1.954-4.356-4.356s1.954-4.3563,4.356-4.3563s4.3563,1.9544,4.3563,4.3563
						S234.1539,103.4707,231.752,103.4707z M231.752,96.2251c-1.5931,0-2.8893,1.2962-2.8893,2.8896
						c0,1.5931,1.2962,2.8893,2.8893,2.8893c1.5934,0,2.8896-1.2962,2.8896-2.8893
						C234.6416,97.5213,233.3454,96.2251,231.752,96.2251z"/>
				</g>
				<g>
					<circle class="st2" cx="231.6678" cy="107.2871" r="3.6229"/>
					<path d="M231.6678,111.6433c-2.4019,0-4.3563-1.9544-4.3563-4.3563s1.9544-4.356,4.3563-4.356
						c2.402,0,4.3563,1.954,4.3563,4.356S234.0698,111.6433,231.6678,111.6433z M231.6678,104.3977
						c-1.5934,0-2.8896,1.2962-2.8896,2.8893c0,1.5934,1.2962,2.8896,2.8896,2.8896c1.5934,0,2.8896-1.2962,2.8896-2.8896
						C234.5574,105.6939,233.2612,104.3977,231.6678,104.3977z"/>
				</g>
				<g>
					<circle class="st2" cx="230.1091" cy="115.2911" r="3.6229"/>
					<path d="M230.1091,119.6473c-2.4019,0-4.3563-1.9544-4.3563-4.3563c0-2.402,1.9544-4.3563,4.3563-4.3563
						s4.3563,1.9544,4.3563,4.3563C234.4654,117.693,232.5111,119.6473,230.1091,119.6473z M230.1091,112.4014
						c-1.5934,0-2.8896,1.2962-2.8896,2.8896c0,1.5934,1.2962,2.8896,2.8896,2.8896s2.8896-1.2962,2.8896-2.8896
						C232.9988,113.6976,231.7025,112.4014,230.1091,112.4014z"/>
				</g>
				<g>
					<path class="st2" d="M167.8887,87.6562l0.337,4.7181c9.0134-1.381,21.7909-6.4032,33.701-6.4032
						c11.0047,0,19.5466,4.402,19.5466,15.5024c0,10.9402-4.633,20.8892-10.7843,31.0049l6.4032,3.0331
						c5.7219-11.1234,10.4473-20.5709,10.4473-33.364c0-10.7064-8.4209-21.2316-22.9167-21.2316
						C191.775,80.9161,178.6701,85.2453,167.8887,87.6562z"/>
					<path d="M217.0917,136.2451c-0.1053,0-0.2123-0.0226-0.3137-0.0705l-6.4031-3.0332c-0.1876-0.0892-0.3287-0.2535-0.3885-0.4522
						c-0.0594-0.1991-0.0319-0.4139,0.0759-0.5915c5.2798-8.6826,10.6774-19.1107,10.6774-30.6238
						c0-12.8505-11.787-14.7691-18.8132-14.7691c-7.5618,0-15.5658,2.0722-22.6273,3.9005
						c-3.9628,1.0259-7.7061,1.9952-10.9628,2.494c-0.202,0.0304-0.4089-0.024-0.5686-0.1515
						c-0.16-0.1278-0.2592-0.3169-0.2739-0.521l-0.3369-4.718c-0.0258-0.362,0.2173-0.6886,0.5715-0.7681
						c2.5545-0.5711,5.2157-1.2443,8.033-1.9569c8.8956-2.2505,18.9779-4.801,28.8614-4.801c15.3613,0,23.65,11.3169,23.65,21.9649
						c0,13.2319-5.1144,23.1738-10.5288,33.6997C217.6145,136.0993,217.3581,136.2451,217.0917,136.2451z M211.7368,132.1634
						l5.0277,2.3819c5.2089-10.1313,10.0418-19.7828,10.0418-32.3977c0-9.9369-7.7748-20.4982-22.1833-20.4982
						c-9.7009,0-19.6893,2.5269-28.5019,4.7563c-2.6025,0.6581-5.0721,1.283-7.4562,1.8272l0.2349,3.2885
						c3.0014-0.516,6.4245-1.4022,10.0318-2.3361c7.1464-1.8502,15.2464-3.9474,22.9951-3.9474
						c12.8881,0,20.2798,5.9179,20.2798,16.2357C222.2065,113.0395,216.9843,123.4472,211.7368,132.1634z"/>
				</g>
			</g>
		</g>
		<g>
			<path class="st2" d="M162.7771,38.9583l-3.7812,7.0813l3.7812,7.0583l3.7812-7.0583L162.7771,38.9583z M162.7771,56.8333
				l-3.7812,7.0583l3.7812,7.0812l3.7812-7.0812L162.7771,56.8333z"/>
			<path d="M162.7771,71.7064c-0.2707,0-0.5192-0.149-0.647-0.3878l-3.7812-7.0812c-0.1153-0.2163-0.1149-0.4759,0.0007-0.6918
				l3.7812-7.0583c0.2549-0.477,1.0377-0.477,1.2926,0l3.7812,7.0583c0.1157,0.2159,0.116,0.4755,0.0007,0.6918l-3.7812,7.0812
				C163.2963,71.5574,163.0478,71.7064,162.7771,71.7064z M159.8276,63.8925l2.9494,5.5236l2.9494-5.5236l-2.9494-5.5061
				L159.8276,63.8925z M162.7771,53.8314c-0.2703,0-0.5188-0.1486-0.6463-0.3871l-3.7812-7.0583
				c-0.1157-0.2159-0.116-0.4755-0.0007-0.6918l3.7812-7.0812c0.2557-0.4777,1.0384-0.4777,1.2941,0l3.7812,7.0812
				c0.1153,0.2163,0.1149,0.4759-0.0007,0.6918l-3.7812,7.0583C163.2959,53.6828,163.0474,53.8314,162.7771,53.8314z
				 M159.8276,46.039l2.9494,5.5061l2.9494-5.5061l-2.9494-5.5236L159.8276,46.039z"/>
		</g>
		<g>
			<path class="st2" d="M149.2974,54.9656l5.9631,3.7812l5.9438-3.7812l-5.9438-3.7812L149.2974,54.9656z M164.3499,54.9656
				l5.9438,3.7812l5.9631-3.7812l-5.9631-3.7812L164.3499,54.9656z"/>
			<path d="M170.2937,59.4803c-0.1368,0-0.2736-0.0383-0.3935-0.1146l-5.944-3.7812c-0.2116-0.1346-0.3398-0.3681-0.3398-0.6188
				s0.1282-0.4841,0.3398-0.6188l5.944-3.7812c0.2399-0.1522,0.5464-0.1522,0.7863-0.0007l5.963,3.7812
				c0.212,0.1346,0.3405,0.3685,0.3405,0.6195s-0.1285,0.4848-0.3405,0.6195l-5.963,3.7812
				C170.5666,59.4424,170.4302,59.4803,170.2937,59.4803z M165.7161,54.9658l4.5783,2.9126l4.593-2.9126l-4.593-2.9126
				L165.7161,54.9658z M155.2604,59.4803c-0.1364,0-0.2729-0.038-0.3928-0.1139l-5.963-3.7812
				c-0.212-0.1346-0.3405-0.3685-0.3405-0.6195s0.1285-0.4848,0.3405-0.6195l5.963-3.7812
				c0.2403-0.1518,0.5468-0.1518,0.7863,0.0007l5.944,3.7812c0.2116,0.1346,0.3398,0.3681,0.3398,0.6188
				s-0.1282,0.4841-0.3398,0.6188l-5.944,3.7812C155.534,59.442,155.3972,59.4803,155.2604,59.4803z M150.6667,54.9658l4.593,2.9126
				l4.5783-2.9126l-4.5783-2.9126L150.6667,54.9658z"/>
		</g>
		<g>
			<circle class="st2" cx="162.7771" cy="55.0505" r="2.8646"/>
			<path d="M162.7771,58.6485c-1.9837,0-3.5979-1.6142-3.5979-3.5979c0-1.9837,1.6142-3.5979,3.5979-3.5979
				s3.5979,1.6142,3.5979,3.5979C166.375,57.0343,164.7608,58.6485,162.7771,58.6485z M162.7771,52.9194
				c-1.1752,0-2.1313,0.9561-2.1313,2.1312c0,1.1752,0.9561,2.1313,2.1313,2.1313s2.1313-0.9561,2.1313-2.1313
				C164.9083,53.8754,163.9523,52.9194,162.7771,52.9194z"/>
		</g>
		<g>
			<circle class="st2" cx="162.7771" cy="73.3333" r="7.667"/>
			<path d="M162.7771,81.7335c-4.632,0-8.4004-3.7684-8.4004-8.4c0-4.632,3.7684-8.4004,8.4004-8.4004s8.4004,3.7684,8.4004,8.4004
				C171.1775,77.9651,167.4091,81.7335,162.7771,81.7335z M162.7771,66.3997c-3.8232,0-6.9337,3.1106-6.9337,6.9337
				s3.1106,6.9334,6.9337,6.9334s6.9337-3.1102,6.9337-6.9334S166.6002,66.3997,162.7771,66.3997z"/>
		</g>
		<g>
			<path d="M170.2028,75.7626c-0.0301,0-0.0605-0.0025-0.0913-0.0075c-4.8569-0.8114-9.8119-0.8114-14.6688,0
				c-0.3015,0.0491-0.5833-0.1525-0.6331-0.4519c-0.0501-0.2997,0.1522-0.5829,0.4519-0.6331
				c4.9765-0.8314,10.0547-0.8314,15.0312,0c0.2997,0.0501,0.502,0.3334,0.4519,0.6331
				C170.6998,75.5721,170.4667,75.7626,170.2028,75.7626z M170.1799,71.8897c-0.0301,0-0.0605-0.0025-0.091-0.0075
				c-1.7767-0.2958-3.5897-0.4863-5.3883-0.5661c-0.294-0.0129-0.5257-0.255-0.5257-0.5493v-4.8583c0-0.3036,0.2464-0.55,0.55-0.55
				c0.3036,0,0.55,0.2464,0.55,0.55v4.3352c1.6697,0.0935,3.3473,0.2793,4.9944,0.5536c0.2997,0.0498,0.502,0.333,0.4523,0.6327
				C170.6769,71.6992,170.4438,71.8897,170.1799,71.8897z M155.3743,71.8897c-0.2639,0-0.497-0.1905-0.5418-0.4598
				c-0.0498-0.2997,0.1525-0.5829,0.4522-0.6327c1.6486-0.2746,3.3272-0.4605,4.998-0.5536l0.0036-0.5407
				c0.0072-0.9843,0.0157-2.1373,0.0157-3.7945c0-0.3036,0.2464-0.55,0.55-0.55s0.55,0.2464,0.55,0.55
				c0,1.6607-0.0086,2.8159-0.0158,3.8027l-0.0072,1.0585c-0.0014,0.2933-0.2327,0.5335-0.5257,0.5464
				c-1.7986,0.0798-3.6115,0.2703-5.3883,0.5661C155.4348,71.8872,155.4044,71.8897,155.3743,71.8897z"/>
		</g>
		<g>
			<path class="st2" d="M155.2833,86.3042c-0.7274,12.5269-2.2063,25.2847-7.0813,34.5583l7.9292-3.2083
				c2.7694-10.5078,3.3512-24.0846,4.1937-30.5021L155.2833,86.3042z M170.2708,86.3042l-5.0417,0.8479
				c0.8425,6.4175,1.4243,19.9943,4.1937,30.5021l7.9292,3.2083C172.4771,111.5889,170.9982,98.8311,170.2708,86.3042z"/>
			<path d="M177.3517,121.596c-0.0924,0-0.1855-0.0175-0.2746-0.0537l-7.9292-3.2083c-0.2145-0.0867-0.3753-0.2693-0.434-0.4927
				c-2.0328-7.7125-2.9022-17.1334-3.537-24.0124c-0.2403-2.6035-0.448-4.8519-0.675-6.581
				c-0.0512-0.3914,0.2163-0.7534,0.6055-0.8189l5.0417-0.8479c0.2059-0.0347,0.4161,0.0201,0.579,0.15
				c0.1629,0.1296,0.2628,0.3226,0.275,0.5307c0.6757,11.6438,2.036,24.8198,6.9982,34.2597
				c0.1432,0.2725,0.101,0.6051-0.1056,0.8332C177.7538,121.5115,177.5551,121.596,177.3517,121.596z M170.0399,117.1129
				l5.8044,2.3486c-4.2868-9.2766-5.597-21.3981-6.257-32.2985l-3.5431,0.5958c0.1969,1.6421,0.3824,3.6531,0.5933,5.9354
				C167.2576,100.416,168.1038,109.583,170.0399,117.1129z M148.2024,121.596c-0.2034,0-0.4021-0.0845-0.5439-0.2413
				c-0.2066-0.2281-0.2489-0.5607-0.1056-0.8332c4.9622-9.4399,6.3225-22.6159,6.9982-34.2597
				c0.0122-0.208,0.1121-0.401,0.275-0.5307c0.1629-0.1303,0.3727-0.1862,0.579-0.15l5.0417,0.8479
				c0.3892,0.0655,0.6567,0.4275,0.6055,0.8189c-0.227,1.7291-0.4347,3.9775-0.675,6.581
				c-0.6349,6.8789-1.5043,16.2998-3.537,24.0124c-0.0587,0.2234-0.2195,0.4061-0.434,0.4927l-7.9292,3.2083
				C148.3879,121.5784,148.2948,121.596,148.2024,121.596z M155.9669,87.163c-0.6599,10.9005-1.9701,23.0219-6.257,32.2985
				l5.8044-2.3486c1.9361-7.5299,2.7822-16.6969,3.4024-23.4187c0.2109-2.2824,0.3964-4.2933,0.5933-5.9354L155.9669,87.163z"/>
		</g>
		<g>
			<path class="st2" d="M162.7656,113.4375c-9.4698,0-16.426,4.4635-16.8438,15.8354
				c-2.3149-4.0736-12.1075-16.8855-21.2438-15.1708c-5.4339,1.0198-10.2352,8.555-9.4187,17.1875
				c-4.4989-12.9286-17.6783-15.0473-27.2937-7.4021c8.5376,7.0198,12.3355,27.7455,19.525,36.7354h55.275h55.275
				c7.1895-8.9899,11.0103-29.7156,19.5479-36.7354c-9.6154-7.6452-22.7948-5.5265-27.2938,7.4021
				c0.8165-8.6325-4.0078-16.1677-9.4417-17.1875c-9.1363-1.7147-18.9059,11.0973-21.2208,15.1708
				C179.2146,117.901,172.2354,113.4375,162.7656,113.4375z"/>
			<path d="M218.0406,161.3564h-110.55c-0.2227,0-0.4336-0.1013-0.5726-0.2754c-3.2431-4.0552-5.7238-10.233-8.3503-16.7736
				c-3.1693-7.8923-6.4464-16.0535-11.068-19.8534c-0.1708-0.1407-0.2693-0.3509-0.2675-0.5726
				c0.0018-0.2213,0.1035-0.43,0.2768-0.5679c5.1949-4.1304,11.3839-5.5687,16.9773-3.9474
				c4.2586,1.2343,7.7218,4.1493,10.0017,8.3503c0.5665-7.6846,5.2325-13.4299,10.0547-14.3351
				c8.6235-1.6185,17.3157,8.5243,20.8205,13.644c1.1372-9.2587,7.2445-14.3211,17.4023-14.3211
				c10.1718,0,16.2873,5.0621,17.4253,14.3211c3.503-5.119,12.187-15.2586,20.7976-13.644
				c4.8322,0.907,9.5083,6.6523,10.0769,14.3362c2.2802-4.2013,5.7435-7.1171,10.0024-8.3513
				c5.5924-1.6228,11.7817-0.1833,16.9773,3.9474c0.1733,0.1379,0.275,0.3466,0.2768,0.5679
				c0.0018,0.2216-0.0967,0.4318-0.2675,0.5726c-4.6231,3.8009-7.9073,11.9643-11.0838,19.8591
				c-2.6308,6.5381-5.1154,12.7137-8.3574,16.7678C218.4743,161.2551,218.2634,161.3564,218.0406,161.3564z M107.8473,159.8897
				h109.8371c3.0049-3.8937,5.3969-9.8388,7.9256-16.124c3.0905-7.6814,6.2813-15.612,10.8217-19.839
				c-4.6639-3.4182-10.0701-4.5672-14.9556-3.1518c-4.8379,1.4022-8.563,5.2218-10.4887,10.7558
				c-0.1217,0.3506-0.4841,0.5564-0.8486,0.4755c-0.3624-0.0791-0.6087-0.4161-0.574-0.7856
				c0.8071-8.5336-4.0147-15.4906-8.8469-16.3976c-8.9346-1.6794-18.5478,11.4687-20.4478,14.8124
				c-0.1622,0.2847-0.4931,0.4283-0.8121,0.3498c-0.3183-0.0777-0.5464-0.3577-0.5586-0.6853
				c-0.4591-12.5043-9.027-15.1289-16.1337-15.1289c-7.0959,0-15.6514,2.6247-16.1108,15.1289
				c-0.0122,0.3276-0.2403,0.6077-0.5586,0.6853c-0.3194,0.0784-0.6503-0.0652-0.8121-0.3498
				c-1.9007-3.3444-11.511-16.4946-20.4707-14.8124c-4.8214,0.9048-9.6314,7.8618-8.824,16.3976
				c0.0347,0.3695-0.2116,0.7065-0.574,0.7856c-0.3627,0.0784-0.7269-0.1257-0.8486-0.4755
				c-1.9257-5.534-5.6507-9.3536-10.4887-10.7558c-4.8848-1.4147-10.2917-0.2661-14.9556,3.1518
				c4.5389,4.226,7.7226,12.1544,10.8063,19.834C102.4536,150.0481,104.8416,155.995,107.8473,159.8897z"/>
		</g>
		<g>
			<g>
				<path d="M217.8782,160.6189c0,4.0927-24.6853,8.5938-55.1011,8.5938s-55.1011-4.5011-55.1011-8.5938
					c0-4.0926,24.6853-6.2347,55.1011-6.2347S217.8782,156.5262,217.8782,160.6189z"/>
				<path d="M162.7771,169.7625c-29.6459,0-55.651-4.2729-55.651-9.1437c0-6.2953,42.596-6.7844,55.651-6.7844
					s55.651,0.4891,55.651,6.7844C218.4281,165.4896,192.423,169.7625,162.7771,169.7625z M162.7771,154.9343
					c-35.813,0-54.551,2.8596-54.551,5.6844c0,3.2391,22.9063,8.0437,54.551,8.0437s54.551-4.8046,54.551-8.0437
					C217.3281,157.7939,198.5901,154.9343,162.7771,154.9343z"/>
			</g>
			<g>
				<circle class="st2" cx="162.7771" cy="83.926" r="2.5697"/>
				<path d="M162.7771,87.0459c-1.7202,0-3.1195-1.3997-3.1195-3.1199s1.3994-3.1195,3.1195-3.1195s3.1195,1.3993,3.1195,3.1195
					S164.4973,87.0459,162.7771,87.0459z M162.7771,81.9064c-1.1136,0-2.0195,0.9059-2.0195,2.0195s0.9059,2.0199,2.0195,2.0199
					s2.0195-0.9063,2.0195-2.0199S163.8907,81.9064,162.7771,81.9064z"/>
			</g>
			<g>
				<circle class="st2" cx="162.7771" cy="89.4867" r="2.7382"/>
				<path d="M162.7771,92.775c-1.8133,0-3.2882-1.4749-3.2882-3.2882c0-1.8133,1.4749-3.2885,3.2882-3.2885
					s3.2882,1.4753,3.2882,3.2885C166.0653,91.3001,164.5904,92.775,162.7771,92.775z M162.7771,87.2983
					c-1.2067,0-2.1882,0.9818-2.1882,2.1885c0,1.2067,0.9815,2.1882,2.1882,2.1882s2.1882-0.9815,2.1882-2.1882
					C164.9653,88.2801,163.9838,87.2983,162.7771,87.2983z"/>
			</g>
			<g>
				<circle class="st2" cx="162.7771" cy="95.4686" r="2.991"/>
				<path d="M162.7771,99.0094c-1.9526,0-3.541-1.5884-3.541-3.541c0-1.9526,1.5884-3.541,3.541-3.541s3.541,1.5884,3.541,3.541
					C166.3181,97.421,164.7297,99.0094,162.7771,99.0094z M162.7771,93.0275c-1.346,0-2.441,1.095-2.441,2.441
					c0,1.346,1.095,2.441,2.441,2.441s2.441-1.095,2.441-2.441C165.2181,94.1225,164.1231,93.0275,162.7771,93.0275z"/>
			</g>
			<g>
				<circle class="st2" cx="162.7771" cy="102.1246" r="3.4122"/>
				<path d="M162.7771,106.0868c-2.1846,0-3.9621-1.7775-3.9621-3.9621c0-2.185,1.7775-3.9624,3.9621-3.9624
					s3.9621,1.7775,3.9621,3.9624C166.7392,104.3093,164.9617,106.0868,162.7771,106.0868z M162.7771,99.2622
					c-1.578,0-2.8621,1.284-2.8621,2.8624c0,1.578,1.284,2.8621,2.8621,2.8621s2.8621-1.284,2.8621-2.8621
					C165.6392,100.5463,164.3551,99.2622,162.7771,99.2622z"/>
			</g>
			<g>
				<circle class="st2" cx="162.7771" cy="109.5388" r="3.7492"/>
				<path d="M162.7771,113.838c-2.3708,0-4.2994-1.9286-4.2994-4.299c0-2.3708,1.9286-4.2994,4.2994-4.2994
					s4.2994,1.9286,4.2994,4.2994C167.0765,111.9094,165.1479,113.838,162.7771,113.838z M162.7771,106.3396
					c-1.7642,0-3.1994,1.4352-3.1994,3.1994c0,1.7639,1.4352,3.199,3.1994,3.199s3.1994-1.4352,3.1994-3.199
					C165.9765,107.7747,164.5413,106.3396,162.7771,106.3396z"/>
			</g>
			<g>
				<path d="M161.2875,116.751c-0.4055-0.0051-0.789,0.3366-0.6875,0.9854c0.1195,0.7653,0.2692,2.1965,0.4125,3.1625
					c0.162,1.095,0.8002,0.8288,0.9625-0.0229c0.1623-0.8514,0.0969-1.3977,0.1375-2.9792
					C162.1328,117.1062,161.693,116.756,161.2875,116.751z M164.2667,116.751c-0.4055,0.005-0.8453,0.3552-0.825,1.1458
					c0.0406,1.5815-0.0248,2.1277,0.1375,2.9792c0.1623,0.8517,0.8005,1.1179,0.9625,0.0229
					c0.1433-0.966,0.293-2.3973,0.4125-3.1625C165.0556,117.0876,164.6722,116.7459,164.2667,116.751z M158.6292,117.1635
					c-0.3709,0.0516-0.7556,0.4257-0.7333,0.825c0.0403,0.7298,0.2423,1.6052,0.3208,2.7042
					c0.081,1.1353,0.8812,0.6943,0.9625,0.0458c0.081-0.6488,0.1726-1.6076,0.0917-2.8646
					c-0.0304-0.4715-0.2363-0.6788-0.4812-0.7104C158.7386,117.1569,158.6822,117.1561,158.6292,117.1635z M166.7646,117.1635
					c-0.245,0.0316-0.4509,0.2389-0.4812,0.7104c-0.081,1.257,0.0107,2.2158,0.0917,2.8646
					c0.0813,0.6485,0.8815,1.0895,0.9625-0.0458c0.0785-1.099,0.2805-1.9744,0.3208-2.7042
					c0.0222-0.3993-0.3624-0.7734-0.7333-0.825C166.872,117.1561,166.8156,117.1569,166.7646,117.1635z M155.4438,118.4468
					c-0.3396,0.0878-0.6515,0.4961-0.55,0.9625c0.2026,0.9327,0.3896,1.9639,0.3896,2.9104c0,0.8111,0.6927,0.5217,0.7333-0.0458
					c0.0403-0.5678,0.1146-1.7699,0.1146-2.8646C156.1313,118.592,155.7834,118.3591,155.4438,118.4468z M169.8813,118.4468
					c-0.2411,0.0668-0.4583,0.3495-0.4583,0.9625c0,1.0947,0.0742,2.2968,0.1146,2.8646c0.0406,0.5675,0.7333,0.8569,0.7333,0.0458
					c0-0.9465,0.187-1.9777,0.3896-2.9104c0.1015-0.4664-0.2104-0.8747-0.55-0.9625
					C170.0255,118.4249,169.9616,118.4246,169.8813,118.4468z M126.5458,118.5722c-0.4063-0.0135-0.6914,0.5377-0.4125,1.1458
					c0.4459,0.9734,0.9196,1.5875,1.375,2.6354c0.4055,0.9327,1.0276,0.3512,0.825-0.2979c-0.2029-0.6488-0.4231-1.3714-1.0312-2.75
					C127.0739,118.7884,126.7896,118.5803,126.5458,118.5722z M199.0083,118.5722c-0.2438,0.0081-0.5281,0.2162-0.7562,0.7333
					c-0.6082,1.3786-0.8283,2.1012-1.0312,2.75c-0.2026,0.6491,0.4194,1.2306,0.825,0.2979
					c0.4554-1.0479,0.9291-1.6621,1.375-2.6354C199.6997,119.1099,199.4147,118.5587,199.0083,118.5722z M129.4792,118.618
					c-0.2991,0.0913-0.4804,0.4706-0.2979,0.9167c0.3652,0.8921,0.8922,1.8066,1.2604,2.7729
					c0.3242,0.8514,1.0457,0.61,0.8021-0.1604c-0.2433-0.7704-0.3156-1.2214-0.8021-2.6813
					C130.1983,118.7362,129.7782,118.5268,129.4792,118.618z M195.8458,118.618c-0.2557,0.0546-0.5508,0.3006-0.7333,0.8479
					c-0.4865,1.4599-0.5588,1.9108-0.8021,2.6813c-0.2435,0.7704,0.4778,1.0118,0.8021,0.1604
					c0.3683-0.9663,0.8952-1.8808,1.2604-2.7729c0.1825-0.446,0.0012-0.8254-0.2979-0.9167
					C196.0002,118.5952,195.9311,118.5998,195.8458,118.618z M133.1458,119.3284c-0.377,0.0717-0.669,0.6469-0.4125,1.3521
					c0.3246,0.8921,0.7861,1.7363,1.1917,2.75c0.4055,1.0137,1.0789,0.8092,0.9167,0.1604
					c-0.1623-0.6488-0.3611-1.724-0.8479-3.3458C133.7809,119.5354,133.4391,119.2726,133.1458,119.3284z M192.4083,119.3284
					c-0.2932-0.0558-0.6351,0.207-0.8479,0.9167c-0.4868,1.6218-0.6856,2.697-0.8479,3.3458
					c-0.1623,0.6488,0.5111,0.8533,0.9167-0.1604c0.4055-1.0137,0.8671-1.8579,1.1917-2.75
					C193.0773,119.9754,192.7854,119.4002,192.4083,119.3284z M124.0708,119.8326c-0.4084,0.0417-0.7804,0.7078-0.5271,1.2146
					c0.4059,0.8111,0.6627,1.087,1.0542,1.9479c0.4055,0.8921,0.8498,0.2011,0.6875-0.3667
					c-0.1623-0.5678-0.3703-1.2288-0.5729-2.0396C124.564,119.9949,124.3159,119.8076,124.0708,119.8326z M201.4833,119.8326
					c-0.245-0.025-0.4931,0.1623-0.6417,0.7562c-0.2026,0.8108-0.4106,1.4718-0.5729,2.0396
					c-0.1623,0.5678,0.282,1.2587,0.6875,0.3667c0.3915-0.8609,0.6483-1.1368,1.0542-1.9479
					C202.2637,120.5404,201.8917,119.8743,201.4833,119.8326z M152.3271,121.8843c-0.4281-0.0004-0.8854,0.5679-0.7333,1.1
					c0.2433,0.8517,0.6193,1.6067,0.8938,2.7042c0.2433,0.9731,0.9344,0.4884,0.8937-0.1604
					c-0.0406-0.6488-0.1518-1.5315-0.4354-2.9104C152.8394,122.1007,152.5839,121.8846,152.3271,121.8843z M173.2271,121.8843
					c-0.2569,0.0002-0.5123,0.2164-0.6188,0.7333c-0.2836,1.3789-0.3948,2.2616-0.4354,2.9104
					c-0.0406,0.6488,0.6505,1.1335,0.8938,0.1604c0.2744-1.0975,0.6505-1.8524,0.8938-2.7042
					C174.1125,122.4522,173.6552,121.8839,173.2271,121.8843z M162.7771,122.7551c-0.5274,0-0.6003,0.7081-0.6188,1.2833
					c-0.0606,1.8856-0.8432,3.7169-1.5125,4.6292c-0.669,0.9125-1.6541,0.6699-2.5667,0.1833s-1.4561-0.8512-2.4292-1.5812
					c-0.9734-0.7298-1.7113-0.3031-0.55,1.3521c3.3861,4.8256,7.0583,8.9502,7.0583,16.8208c0,1.0177,0.1778,1.3292,0.6188,1.3292
					c0.4409,0,0.6416-0.3115,0.6417-1.3292c0-7.8706,3.6493-11.9953,7.0354-16.8208c1.1613-1.6552,0.4234-2.0819-0.55-1.3521
					c-0.9731,0.7301-1.5166,1.0947-2.4292,1.5812s-1.8977,0.7292-2.5667-0.1833c-0.6693-0.9122-1.4519-2.7436-1.5125-4.6292
					C163.3773,123.4633,163.3045,122.7551,162.7771,122.7551z M136.9042,121.5743c-0.0461-0.0013-0.0965,0.01-0.1375,0.0229
					c-0.197,0.062-0.3282,0.2998-0.2521,0.7104c0.136,0.735,0.6453,2.1754,0.8479,2.8646c0.2029,0.6895,1.0505,0.5428,0.8479-0.3896
					c-0.2029-0.9327-0.1922-1.2144-0.4354-2.2687C137.642,121.9373,137.2272,121.5831,136.9042,121.5743z M188.65,121.5743
					c-0.323,0.0089-0.7378,0.363-0.8708,0.9396c-0.2433,1.0543-0.2325,1.336-0.4354,2.2687
					c-0.2026,0.9324,0.645,1.079,0.8479,0.3896c0.2026-0.6891,0.7119-2.1296,0.8479-2.8646
					c0.0761-0.4106-0.0551-0.6484-0.2521-0.7104C188.7465,121.5843,188.6962,121.573,188.65,121.5743z M121.5271,121.8722
					c-0.4244,0.0332-0.7288,0.5665-0.2979,1.3521c0.4648,0.8484,1.2622,1.9127,1.6271,2.5208
					c0.3649,0.6082,0.9962,0.1978,0.55-0.5729c-0.4459-0.7704-0.5957-1.6553-1.1229-2.75
					C122.0857,122.0116,121.7818,121.8522,121.5271,121.8722z M204.0271,121.8722c-0.2547-0.0199-0.5586,0.1394-0.7563,0.55
					c-0.5272,1.0947-0.677,1.9796-1.1229,2.75c-0.4462,0.7707,0.1851,1.1811,0.55,0.5729c0.3649-0.6082,1.1623-1.6725,1.6271-2.5208
					C204.7559,122.4387,204.4515,121.9054,204.0271,121.8722z M98.2896,124.3135c-0.4897-0.026-0.6433,0.8582-0.1833,1.4437
					c0.6693,0.8514,1.135,1.3031,1.9021,1.9938c0.6085,0.5473,0.7853-0.1631,0.4812-0.7104
					c-0.3041-0.5473-0.7439-1.1041-1.3521-2.0167C98.8041,124.5238,98.5122,124.3253,98.2896,124.3135z M227.2646,124.3135
					c-0.2226,0.0118-0.5145,0.2103-0.8479,0.7104c-0.6082,0.9125-1.048,1.4693-1.3521,2.0167
					c-0.3041,0.5473-0.1272,1.2578,0.4812,0.7104c0.7671-0.6907,1.2328-1.1423,1.9021-1.9938
					C227.9078,125.1717,227.7543,124.2875,227.2646,124.3135z M101.9792,125.0468c-0.3903,0.0051-0.6478,0.2934-0.3438,0.9625
					c0.4355,0.9578,1.0098,2.0428,1.375,2.7729c0.3649,0.7298,1.4771,0.9749,1.0312-0.1604
					c-0.4462-1.1353-0.534-1.7186-0.9396-2.7729C102.8993,125.3217,102.3695,125.0417,101.9792,125.0468z M223.575,125.0468
					c-0.3903-0.0051-0.9201,0.2749-1.1229,0.8021c-0.4055,1.0543-0.4934,1.6376-0.9396,2.7729
					c-0.4459,1.1353,0.6664,0.8902,1.0312,0.1604c0.3652-0.7301,0.9395-1.8151,1.375-2.7729
					C224.2228,125.3402,223.9653,125.0519,223.575,125.0468z M94.8292,125.2989c-0.5674,0.0058-0.6163,0.5747-0.1146,0.9396
					c0.6693,0.4865,1.4668,1.0265,2.2458,1.65c0.9122,0.7298,1.2657,0.0585,0.7792-0.55c-0.4865-0.6082-0.9605-1.2249-2.1771-1.8333
					C95.2584,125.3531,95.0183,125.297,94.8292,125.2989z M230.725,125.2989c-0.1891-0.0019-0.4292,0.0542-0.7333,0.2063
					c-1.2166,0.6085-1.6906,1.2252-2.1771,1.8333c-0.4865,0.6085-0.1331,1.2798,0.7792,0.55c0.779-0.6235,1.5766-1.1635,2.2458-1.65
					C231.3413,125.8736,231.2924,125.3047,230.725,125.2989z M150.3104,125.826c-0.3175,0.0444-0.5914,0.4051-0.4583,0.8708
					c0.2433,0.8514,0.5194,1.7537,0.6875,2.6354c0.1623,0.8517,1.1477,0.8621,0.9854,0.0917
					c-0.162-0.7704-0.2435-1.7344-0.5271-2.9104c-0.1065-0.441-0.3288-0.6528-0.55-0.6875
					C150.4018,125.8188,150.3558,125.8196,150.3104,125.826z M175.1063,125.826c-0.2213,0.0347-0.4435,0.2465-0.55,0.6875
					c-0.2836,1.176-0.3651,2.14-0.5271,2.9104c-0.1623,0.7704,0.8232,0.7601,0.9854-0.0917
					c0.1681-0.8817,0.4443-1.784,0.6875-2.6354c0.133-0.4658-0.1408-0.8264-0.4583-0.8708
					C175.1984,125.8196,175.1524,125.8188,175.1063,125.826z M128.2417,124.3701c-0.2493,0.0689-0.3928,0.5456-0.2063,1.2146
					c1.0342,3.7104,1.3512,5.6645,1.1687,6.5771c-0.1824,0.9122-0.6831,1.0374-1.3521,0.7333
					c-0.669-0.3041-1.4543-0.743-2.0625-1.1688c-0.6082-0.426-1.2407,0.0836-0.3667,0.8021
					c4.4402,3.6496,7.518,7.8204,8.7083,12.8792c0.2433,1.0339,0.8929,1.1555,0.7104,0
					c-1.0064-6.3725-1.1999-11.6112,0.3208-14.8958c0.5715-1.2343-0.0041-2.4197-0.9167-0.4125
					c-0.6082,1.3383-1.5924,1.8662-2.3833,0.7104c-0.7906-1.1555-2.4239-4.2384-2.9104-5.6375
					c-0.1826-0.5247-0.4077-0.7674-0.5958-0.8021C128.3171,124.3629,128.2773,124.3603,128.2417,124.3701z M197.1979,124.3701
					c-0.1881,0.0347-0.4133,0.2774-0.5958,0.8021c-0.4865,1.3991-2.1198,4.482-2.9104,5.6375
					c-0.7909,1.1558-1.7752,0.6279-2.3833-0.7104c-0.9126-2.0072-1.4882-0.8219-0.9167,0.4125
					c1.5207,3.2847,1.3272,8.5233,0.3208,14.8958c-0.1824,1.1555,0.4672,1.0339,0.7104,0
					c1.1904-5.0587,4.2682-9.2296,8.7083-12.8792c0.8741-0.7185,0.2415-1.2281-0.3667-0.8021
					c-0.6081,0.4257-1.3935,0.8647-2.0625,1.1688c-0.669,0.3041-1.1696,0.1789-1.3521-0.7333
					c-0.1824-0.9126,0.1346-2.8667,1.1687-6.5771c0.1865-0.669,0.0431-1.1457-0.2063-1.2146
					C197.2769,124.3603,197.2371,124.3629,197.1979,124.3701z M105.9208,126.1468c-0.4005,0.0051-0.7325,0.2856-0.55,0.8937
					c0.2925,0.9743,0.8974,2.0273,1.1,2.6354c0.2029,0.6082,0.8549,0.3243,0.7333-0.5271
					c-0.1216-0.8514-0.1815-1.3589-0.3438-2.2917C106.7793,126.391,106.3213,126.1417,105.9208,126.1468z M219.6333,126.1468
					c-0.4005-0.0051-0.8585,0.2442-0.9396,0.7104c-0.1623,0.9327-0.2221,1.4403-0.3438,2.2917
					c-0.1216,0.8514,0.5304,1.1353,0.7333,0.5271c0.2026-0.6082,0.8075-1.6611,1.1-2.6354
					C220.3658,126.4324,220.0338,126.1519,219.6333,126.1468z M119.6938,124.8743c-0.4657-0.0836-0.5327,1.1178-0.1375,1.6042
					c0.5272,0.6491,1.2594,1.4335,1.9938,2.3146c0.6082,0.7301,0.9839,0.0811,0.6188-0.5271
					c-0.3649-0.6085-0.9061-1.255-1.8792-2.7958C120.0462,125.0849,119.849,124.9021,119.6938,124.8743z M205.8604,124.8743
					c-0.1552,0.0279-0.3525,0.2106-0.5958,0.5958c-0.973,1.5409-1.5143,2.1874-1.8792,2.7958
					c-0.3652,0.6082,0.0106,1.2572,0.6187,0.5271c0.7344-0.8811,1.4666-1.6655,1.9937-2.3146
					C206.3931,125.9921,206.3261,124.7907,205.8604,124.8743z M109.0604,127.7739c-0.2889-0.0203-0.5341,0.2141-0.4125,0.8021
					c0.1696,0.8187,0.4158,1.4983,0.6188,2.2687c0.2026,0.7704,0.7333,0.6384,0.7333-0.0917c0-0.7298-0.1305-1.5441-0.2521-2.3146
					C109.6871,128.0533,109.3494,127.7942,109.0604,127.7739z M216.4937,127.7739c-0.2889,0.0203-0.6267,0.2794-0.6875,0.6646
					c-0.1216,0.7704-0.2521,1.5848-0.2521,2.3146c0,0.7301,0.5307,0.8621,0.7333,0.0917c0.2029-0.7704,0.4491-1.45,0.6187-2.2687
					C217.0279,127.988,216.7827,127.7536,216.4937,127.7739z M118.6625,128.8159c-0.4538,0.0686-0.8532,0.5073-0.3208,1.1917
					c0.8514,1.0947,1.7838,1.8632,2.1083,2.2688c0.3243,0.4055,1.1459,0.2559,0.6188-0.5958
					c-0.5388-0.8701-1.3539-1.9179-1.7188-2.5667C119.2132,128.8706,118.9348,128.7748,118.6625,128.8159z M206.7083,128.8159
					c-0.1996,0.021-0.4015,0.1154-0.5042,0.2979c-0.3649,0.6488-1.18,1.6966-1.7188,2.5667
					c-0.5272,0.8517,0.2945,1.0014,0.6188,0.5958c0.3246-0.4055,1.2569-1.1741,2.1083-2.2688
					c0.5323-0.6844,0.133-1.1231-0.3208-1.1917C206.8236,128.8056,206.7749,128.8089,206.7083,128.8159z M103.5146,131.876
					c-0.3581-0.0325-0.4817,0.2564,0,0.9167c1.0947,1.5002,2.3023,3.7707,2.3833,4.7438c0.0813,0.9734-0.3999,0.9625-0.8479,0.9625
					c-1.3382,0-1.992-0.9768-3.2083-1.2604c-1.2166-0.2839-1.3932,0.3559-0.5271,0.9854c4.4603,3.244,8.9311,6.8634,10.725,10.1521
					c0.7298,1.3383,1.7164,1.8274,1.1687,0.55c-1.6772-3.9139-2.0836-7.2282-1.7188-9.2354
					c0.3652-2.0072,0.8629-3.3588,0.8021-4.5146c-0.0608-1.1555-0.7162-1.0767-0.9854,0c-0.1824,0.7301-0.5359,1.6973-0.7792,2.0625
					c-0.2433,0.3649-1.2215,0.5695-2.1542-0.6875c-0.9327-1.2569-3.2858-3.6773-4.0562-4.2854
					C104.0278,132.0375,103.7294,131.8955,103.5146,131.876z M222.0396,131.876c-0.2148,0.0195-0.5132,0.1615-0.8021,0.3896
					c-0.7704,0.6082-3.1235,3.0285-4.0563,4.2854c-0.9327,1.257-1.9109,1.0524-2.1542,0.6875
					c-0.2432-0.3652-0.5967-1.3324-0.7792-2.0625c-0.2692-1.0767-0.9246-1.1555-0.9854,0
					c-0.0608,1.1558,0.4369,2.5074,0.8021,4.5146c0.3649,2.0072-0.0416,5.3215-1.7188,9.2354
					c-0.5477,1.2774,0.4389,0.7883,1.1687-0.55c1.7939-3.2887,6.2647-6.9081,10.725-10.1521
					c0.8661-0.6296,0.6895-1.2693-0.5271-0.9854c-1.2163,0.2836-1.8701,1.2604-3.2083,1.2604c-0.448,0-0.9292,0.0109-0.8479-0.9625
					c0.081-0.9731,1.2886-3.2435,2.3833-4.7438C222.5213,132.1323,222.3977,131.8435,222.0396,131.876z"/>
			</g>
			<g>
				<path class="st2" d="M110.093,155.9441l1.4298,4.5277 M113.0341,155.0859l1.2669,4.576 M116.2111,154.5635l0.8705,4.6677
					 M119.1593,153.9737l0.9317,4.6558 M122.94,153.6005l0.7575,4.6873 M126.9621,153.6054l0.8158,4.6775 M130.8881,152.2778
					l0.5892,4.7114 M134.5818,152.5161l0.5892,4.7114 M138.1564,152.0395l0.5892,4.7114 M141.7443,151.6692l0.3241,4.737
					 M145.5786,151.6678l0.2812,4.7398 M149.0548,151.4284l0.2395,4.7421 M152.8879,151.1891l0.1989,4.744 M157.2965,151.07
					l0.1989,4.744 M215.4611,155.9441l-1.4298,4.5277 M212.5201,155.0859l-1.2669,4.576 M209.3431,154.5635l-0.8705,4.6677
					 M206.3949,153.9737l-0.9317,4.6558 M202.6141,153.6005l-0.7575,4.6873 M198.5921,153.6054l-0.8158,4.6775 M194.666,152.2778
					l-0.5893,4.7114 M190.9724,152.5161l-0.5892,4.7114 M187.3978,152.0395l-0.5892,4.7114 M183.8099,151.6692l-0.3241,4.737
					 M179.9756,151.6678l-0.2812,4.7398 M176.4994,151.4284l-0.2395,4.7421 M172.6662,151.1891l-0.1989,4.744 M168.2577,151.07
					l-0.1989,4.744 M162.7771,150.7613v5.2236"/>
				<path d="M214.0313,161.0219c-0.0548,0-0.1106-0.0082-0.1658-0.0254c-0.2893-0.0917-0.4501-0.4007-0.3588-0.6904l1.4298-4.5278
					c0.0913-0.2893,0.4007-0.4487,0.6904-0.3588c0.2893,0.0917,0.4501,0.4007,0.3588,0.6904l-1.4298,4.5278
					C214.4817,160.8723,214.2651,161.0219,214.0313,161.0219z M111.5229,161.0219c-0.2338,0-0.4505-0.1497-0.5246-0.3842
					l-1.4298-4.5278c-0.0913-0.2897,0.0695-0.5987,0.3588-0.6904c0.2904-0.0902,0.5987,0.0695,0.6904,0.3588l1.4298,4.5278
					c0.0913,0.2897-0.0695,0.5987-0.3588,0.6904C111.6335,161.0137,111.5777,161.0219,111.5229,161.0219z M211.2534,160.212
					c-0.0487,0-0.0981-0.0065-0.1472-0.0201c-0.2925-0.0809-0.4644-0.3839-0.3831-0.6768l1.2672-4.5762
					c0.0809-0.2929,0.3846-0.4641,0.6768-0.3831c0.2925,0.0809,0.4644,0.3839,0.3831,0.6768l-1.2672,4.5762
					C211.7156,160.0523,211.4943,160.212,211.2534,160.212z M114.3008,160.212c-0.241,0-0.4623-0.1597-0.5296-0.4032l-1.2672-4.5762
					c-0.0813-0.2929,0.0906-0.5958,0.3831-0.6768c0.2911-0.0809,0.5958,0.0902,0.6768,0.3831l1.2672,4.5762
					c0.0813,0.2929-0.0906,0.5958-0.3831,0.6768C114.3989,160.2055,114.3495,160.212,114.3008,160.212z M208.4733,159.7812
					c-0.0337,0-0.0673-0.0029-0.1017-0.0093c-0.2986-0.0559-0.4952-0.343-0.4397-0.6417l0.8705-4.6678
					c0.0559-0.2986,0.3427-0.4952,0.6417-0.4397c0.2986,0.0559,0.4952,0.343,0.4397,0.6417l-0.8705,4.6678
					C208.9638,159.5965,208.7329,159.7812,208.4733,159.7812z M117.0809,159.7812c-0.2596,0-0.4906-0.1848-0.54-0.449
					l-0.8705-4.6678c-0.0555-0.2986,0.1411-0.5858,0.4397-0.6417c0.2979-0.0562,0.5858,0.1411,0.6417,0.4397l0.8705,4.6678
					c0.0555,0.2986-0.1411,0.5858-0.4397,0.6417C117.1482,159.7784,117.1145,159.7812,117.0809,159.7812z M205.464,159.1797
					c-0.0358,0-0.0723-0.0032-0.1085-0.0107c-0.2979-0.0594-0.4913-0.3495-0.4315-0.647l0.9317-4.656
					c0.0598-0.2976,0.3538-0.4888,0.647-0.4315c0.2979,0.0594,0.4913,0.3495,0.4315,0.647l-0.9317,4.656
					C205.9503,158.9988,205.7208,159.1797,205.464,159.1797z M120.0901,159.1797c-0.2567,0-0.4863-0.1805-0.5385-0.4422
					l-0.9317-4.656c-0.0598-0.2976,0.1336-0.5876,0.4315-0.647c0.2947-0.058,0.5876,0.1336,0.647,0.4315l0.9317,4.656
					c0.0598,0.2976-0.1336,0.5876-0.4315,0.647C120.1625,159.1761,120.1259,159.1797,120.0901,159.1797z M201.8572,158.8377
					c-0.0294,0-0.0587-0.0021-0.0884-0.0072c-0.3001-0.0483-0.5038-0.3309-0.4551-0.6306l0.7577-4.6872
					c0.0483-0.3004,0.333-0.5049,0.6306-0.4551c0.3001,0.0483,0.5038,0.3309,0.4551,0.6306l-0.7577,4.6872
					C202.3556,158.6454,202.1221,158.8377,201.8572,158.8377z M123.697,158.8377c-0.265,0-0.4984-0.1919-0.5421-0.4623
					l-0.7577-4.6872c-0.0487-0.2997,0.155-0.5822,0.4551-0.6306c0.2993-0.0473,0.5822,0.155,0.6306,0.4551l0.7577,4.6872
					c0.0487,0.2997-0.155,0.5822-0.4551,0.6306C123.7557,158.8356,123.7264,158.8377,123.697,158.8377z M197.7769,158.833
					c-0.0315,0-0.0634-0.0025-0.0952-0.0082c-0.2993-0.0523-0.4995-0.3369-0.4472-0.6363l0.8161-4.6775
					c0.0523-0.299,0.3394-0.5002,0.6363-0.4472c0.2993,0.0523,0.4995,0.337,0.4472,0.6363l-0.8161,4.6775
					C198.2714,158.6447,198.039,158.833,197.7769,158.833z M127.7772,158.833c-0.2621,0-0.4945-0.1883-0.541-0.4555l-0.816-4.6775
					c-0.0523-0.2993,0.1479-0.584,0.4472-0.6363c0.2965-0.053,0.584,0.1483,0.6363,0.4472l0.8161,4.6775
					c0.0523,0.2994-0.1479,0.584-0.4472,0.6363C127.8406,158.8305,127.8088,158.833,127.7772,158.833z M190.3838,157.7775
					c-0.0229,0-0.0458-0.0014-0.0691-0.0043c-0.3011-0.0376-0.5149-0.3126-0.4773-0.6141l0.5894-4.7115
					c0.0376-0.3015,0.3144-0.5135,0.6141-0.4773c0.3011,0.0376,0.5149,0.3126,0.4773,0.6141l-0.5894,4.7115
					C190.894,157.5741,190.657,157.7775,190.3838,157.7775z M135.1704,157.7775c-0.2732,0-0.5103-0.2034-0.545-0.4816
					l-0.5894-4.7115c-0.0376-0.3015,0.1762-0.5765,0.4773-0.6141c0.3015-0.0362,0.5765,0.1758,0.6141,0.4773l0.5894,4.7115
					c0.0376,0.3015-0.1762,0.5765-0.4773,0.6141C135.2162,157.776,135.1933,157.7775,135.1704,157.7775z M194.0777,157.5393
					c-0.0229,0-0.0458-0.0014-0.0691-0.0043c-0.3011-0.0376-0.5149-0.3126-0.4773-0.6141l0.589-4.7115
					c0.0379-0.3015,0.313-0.5113,0.6141-0.4773c0.3011,0.0376,0.5149,0.3126,0.4773,0.6141l-0.589,4.7115
					C194.5879,157.3359,194.3509,157.5393,194.0777,157.5393z M131.4765,157.5393c-0.2732,0-0.5103-0.2034-0.545-0.4816
					l-0.589-4.7115c-0.0376-0.3015,0.1762-0.5765,0.4773-0.6141c0.3026-0.034,0.5765,0.1758,0.6141,0.4773l0.589,4.7115
					c0.0376,0.3015-0.1762,0.5765-0.4773,0.6141C131.5223,157.5379,131.4994,157.5393,131.4765,157.5393z M186.8091,157.3009
					c-0.0229,0-0.0458-0.0014-0.0691-0.0043c-0.3011-0.0376-0.5149-0.3126-0.4773-0.6141l0.5894-4.7115
					c0.0376-0.3015,0.3122-0.5135,0.6141-0.4773c0.3011,0.0376,0.5149,0.3126,0.4773,0.6141l-0.5894,4.7115
					C187.3194,157.0975,187.0824,157.3009,186.8091,157.3009z M138.745,157.3009c-0.2732,0-0.5103-0.2034-0.545-0.4816
					l-0.5894-4.7115c-0.0376-0.3015,0.1762-0.5765,0.4773-0.6141c0.3036-0.0362,0.5765,0.1758,0.6141,0.4773l0.5894,4.7115
					c0.0376,0.3015-0.1762,0.5765-0.4773,0.6141C138.7908,157.2994,138.7679,157.3009,138.745,157.3009z M179.6946,156.9575
					c-0.0107,0-0.0218-0.0004-0.0329-0.0011c-0.3033-0.0179-0.5346-0.2782-0.5163-0.5815l0.2814-4.7398
					c0.0175-0.3033,0.2714-0.5357,0.5815-0.5163c0.3033,0.0179,0.5346,0.2782,0.5163,0.5815l-0.2814,4.7398
					C180.226,156.7322,179.9836,156.9575,179.6946,156.9575z M145.8596,156.9575c-0.289,0-0.5314-0.2252-0.5486-0.5174
					l-0.2814-4.7398c-0.0183-0.3033,0.2131-0.5636,0.5163-0.5815c0.3072-0.0175,0.564,0.2134,0.5815,0.5163l0.2814,4.7398
					c0.0182,0.3033-0.2131,0.5636-0.5163,0.5815C145.8814,156.9571,145.8703,156.9575,145.8596,156.9575z M183.4866,156.9564
					c-0.0129,0-0.0254-0.0004-0.0383-0.0014c-0.3029-0.0204-0.5317-0.2829-0.511-0.5862l0.3241-4.7373
					c0.0208-0.3026,0.2786-0.5414,0.5862-0.511c0.3029,0.0204,0.5317,0.2832,0.511,0.5862l-0.3241,4.7373
					C184.0147,156.734,183.773,156.9564,183.4866,156.9564z M142.0676,156.9564c-0.2865,0-0.5282-0.222-0.5479-0.5124
					l-0.3241-4.7373c-0.0208-0.3029,0.2081-0.5658,0.511-0.5862c0.3083-0.0312,0.5654,0.2084,0.5862,0.511l0.3241,4.7373
					c0.0208,0.3033-0.208,0.5658-0.511,0.5862C142.093,156.956,142.0805,156.9564,142.0676,156.9564z M176.2603,156.7204
					c-0.0093,0-0.0186-0.0004-0.0279-0.0007c-0.3036-0.0154-0.5371-0.2736-0.5217-0.5772l0.2395-4.742
					c0.0154-0.3029,0.2729-0.5371,0.5769-0.5214c0.3036,0.0154,0.5371,0.2736,0.5217,0.5772l-0.2395,4.742
					C176.7946,156.492,176.5514,156.7204,176.2603,156.7204z M149.2939,156.7204c-0.2911,0-0.5343-0.2285-0.5489-0.5221
					l-0.2395-4.742c-0.0154-0.3036,0.2181-0.5618,0.5217-0.5772c0.2983-0.014,0.5618,0.2184,0.5769,0.5214l0.2395,4.742
					c0.0154,0.3036-0.2181,0.5618-0.5217,0.5772C149.3125,156.7201,149.3032,156.7204,149.2939,156.7204z M162.7771,156.5349
					c-0.3036,0-0.55-0.2464-0.55-0.55v-5.2236c0-0.3036,0.2464-0.55,0.55-0.55s0.55,0.2464,0.55,0.55v5.2236
					C163.3271,156.2886,163.0807,156.5349,162.7771,156.5349z M172.4676,156.483c-0.0079,0-0.0154,0-0.0233-0.0004
					c-0.3036-0.0129-0.5393-0.2693-0.5267-0.5726l0.1991-4.7437c0.0129-0.304,0.2754-0.5411,0.5726-0.5267
					c0.3036,0.0129,0.5393,0.2693,0.5267,0.5726l-0.1991,4.7438C173.0044,156.2517,172.7609,156.483,172.4676,156.483z
					 M153.0866,156.483c-0.2933,0-0.5368-0.2313-0.5493-0.5271l-0.1991-4.7438c-0.0125-0.3033,0.2231-0.5597,0.5267-0.5726
					c0.2968-0.0125,0.5597,0.2231,0.5726,0.5267l0.1991,4.7437c0.0125,0.3033-0.2231,0.5597-0.5267,0.5726
					C153.1023,156.483,153.0944,156.483,153.0866,156.483z M168.059,156.3641c-0.0079,0-0.0154,0-0.0233-0.0004
					c-0.3036-0.0129-0.5392-0.2693-0.5267-0.5726l0.1991-4.7441c0.0129-0.3036,0.2764-0.545,0.5726-0.5267
					c0.3036,0.0129,0.5392,0.2693,0.5267,0.5726l-0.1991,4.7441C168.5958,156.1328,168.3523,156.3641,168.059,156.3641z
					 M157.4951,156.3641c-0.2933,0-0.5367-0.2313-0.5493-0.5271l-0.1991-4.7441c-0.0125-0.3033,0.2231-0.5597,0.5267-0.5726
					c0.2961-0.0165,0.5597,0.2231,0.5726,0.5267l0.1991,4.7441c0.0125,0.3033-0.2231,0.5597-0.5267,0.5726
					C157.5109,156.3641,157.503,156.3641,157.4951,156.3641z"/>
			</g>
		</g>
	</g>
</g>
</svg>
