<?xml version="1.0" encoding="utf-8"?>
<!-- Generator: Adobe Illustrator 27.7.0, SVG Export Plug-In . SVG Version: 6.00 Build 0)  -->
<!DOCTYPE svg PUBLIC "-//W3C//DTD SVG 1.1//EN" "http://www.w3.org/Graphics/SVG/1.1/DTD/svg11.dtd" [
	<!ENTITY ns_extend "http://ns.adobe.com/Extensibility/1.0/">
	<!ENTITY ns_ai "http://ns.adobe.com/AdobeIllustrator/10.0/">
	<!ENTITY ns_graphs "http://ns.adobe.com/Graphs/1.0/">
	<!ENTITY ns_vars "http://ns.adobe.com/Variables/1.0/">
	<!ENTITY ns_imrep "http://ns.adobe.com/ImageReplacement/1.0/">
	<!ENTITY ns_sfw "http://ns.adobe.com/SaveForWeb/1.0/">
	<!ENTITY ns_custom "http://ns.adobe.com/GenericCustomNamespace/1.0/">
	<!ENTITY ns_adobe_xpath "http://ns.adobe.com/XPath/1.0/">
]>
<svg version="1.1" id="Layer_1" xmlns:x="&ns_extend;" xmlns:i="&ns_ai;" xmlns:graph="&ns_graphs;"
	 xmlns="http://www.w3.org/2000/svg" xmlns:xlink="http://www.w3.org/1999/xlink" x="0px" y="0px" width="660px" height="440px"
	 viewBox="0 0 660 440" style="enable-background:new 0 0 660 440;" xml:space="preserve">
<style type="text/css">
	.st0{fill:#C8102E;}
	.st1{fill:#FFFFFF;}
	.st2{fill:#96877D;}
	.st3{fill:#CCCCCC;}
	.st4{fill:#D0D0D0;}
</style>
<metadata>
	<sfw  xmlns="&ns_sfw;">
		<slices></slices>
		<sliceSourceBounds  bottomLeftOrigin="true" height="440" width="660" x="0" y="0"></sliceSourceBounds>
	</sfw>
</metadata>
<g>
	<g>
		<path class="st0" d="M0,0h660v440H0V0z"/>
	</g>
	<g>
		<path class="st1" d="M0,0h330v440H0V0z"/>
	</g>
	<g>
		<path class="st0" d="M16.2961,60.7405v33.3351h33.3337c0,5.5543,5.5557,11.1107,11.1115,11.1107v33.3329h33.3315v-33.3329
			c5.5557,0,11.1115-5.5565,11.1115-11.1107h33.3337V60.7405h-33.3337c0-5.5543-5.5557-11.1107-11.1115-11.1107V16.2969H60.7413
			v33.3329c-5.5557,0-11.1115,5.5565-11.1115,11.1107H16.2961z"/>
	</g>
	<g>
		<path class="st2" d="M18.5196,62.9618v28.8911h33.3315c0,5.5543,5.5557,11.11,11.1115,11.11v33.3329H91.85v-33.3329
			c5.5557,0,11.1115-5.5565,11.1115-11.11h33.3315V62.9618h-33.3315c0-5.5543-5.5557-11.1107-11.1115-11.1107V18.5181H62.9625
			v33.3329c-5.5557,0-11.1115,5.5565-11.1115,11.1107H18.5196z"/>
	</g>
	<g>
		<path class="st3" d="M19.6313,64.0735v26.6669h33.3315c0,5.5543,5.5557,11.1122,11.1115,11.1122v33.3329h26.6655v-33.3329
			c5.5557,0,11.1115-5.5587,11.1115-11.1122h33.3315V64.0735h-33.3315c0-5.5543-5.5557-11.11-11.1115-11.11V19.6306H64.0743v33.3329
			c-5.5557,0-11.1115,5.5565-11.1115,11.11H19.6313z"/>
	</g>
	<g id="a">
		<g>
			<path class="st2" d="M61.9931,52.5661c1.9529,1.9529,1.4249,5.6467-1.1785,8.25c-2.6033,2.6033-6.2971,3.1313-8.25,1.1785
				c-1.9521-1.9521-1.4241-5.6467,1.1792-8.25C56.3471,51.1412,60.0409,50.6132,61.9931,52.5661z"/>
		</g>
		<g>
			<path class="st4" d="M52.1715,58.4577l0.7854-0.7861L56.1,59.2423L54.5285,56.1l0.7854-0.7861l3.1431,6.2847l-6.2854-3.1423
				L52.1715,58.4577z M56.8861,53.7438l0.7854-0.7854l4.7146,4.7139L61.6,58.4577L56.8861,53.7438z"/>
		</g>
	</g>
	<g transform="rotate(90 105.555 105.557)">
		<g id="a_00000010288467419493839330000004841960371944772795_">
			<g>
				<path class="st2" d="M102.2494,61.9945c-1.9529,1.9529-5.6467,1.4249-8.25-1.1785c-2.6033-2.6033-3.1313-6.2971-1.1785-8.25
					c1.9521-1.9521,5.6467-1.4241,8.25,1.1792C103.6743,56.3486,104.2023,60.0424,102.2494,61.9945z"/>
			</g>
			<g>
				<path class="st4" d="M96.3578,52.173l0.7861,0.7854l-1.5708,3.1431l3.1423-1.5715l0.7861,0.7854l-6.2847,3.1431l3.1423-6.2854
					L96.3578,52.173z M101.0717,56.8876l0.7854,0.7854l-4.7139,4.7146l-0.7854-0.7861L101.0717,56.8876z"/>
			</g>
		</g>
	</g>
	<g transform="rotate(180 105.555 105.557)">
		<g id="a_00000075136702821903485270000012177840619883919282_">
			<g>
				<path class="st2" d="M92.8209,102.2509c-1.9529-1.9529-1.4249-5.6467,1.1785-8.25c2.6033-2.6033,6.2971-3.1313,8.25-1.1785
					c1.9521,1.9521,1.4241,5.6467-1.1792,8.25C98.4669,103.6757,94.7731,104.2037,92.8209,102.2509z"/>
			</g>
			<g>
				<path class="st4" d="M102.6425,96.3593l-0.7854,0.7861l-3.1431-1.5708l1.5715,3.1423l-0.7854,0.7861l-3.1431-6.2847
					l6.2854,3.1423L102.6425,96.3593z M97.9279,101.0731l-0.7854,0.7854l-4.7146-4.7139l0.7861-0.7854L97.9279,101.0731z"/>
			</g>
		</g>
	</g>
	<g transform="rotate(270 105.555 105.557)">
		<g id="a_00000139280170677733681260000008680398089059817907_">
			<g>
				<path class="st2" d="M52.5646,92.8224c1.9529-1.9529,5.6467-1.4249,8.25,1.1785c2.6033,2.6033,3.1313,6.2971,1.1785,8.25
					c-1.9521,1.9521-5.6467,1.4241-8.25-1.1792C51.1397,98.4683,50.6117,94.7745,52.5646,92.8224z"/>
			</g>
			<g>
				<path class="st4" d="M58.4562,102.6439l-0.7861-0.7854l1.5708-3.1431l-3.1423,1.5715l-0.7861-0.7854l6.2847-3.1431
					l-3.1423,6.2854L58.4562,102.6439z M53.7423,97.9293l-0.7854-0.7854l4.7139-4.7146l0.7854,0.7861L53.7423,97.9293z"/>
			</g>
		</g>
	</g>
	<g>
		<g>
			<path class="st2" d="M77.4071,100.933c-12.9715,0-23.5247-10.5531-23.5247-23.5247S64.4356,53.884,77.4071,53.884
				s23.5243,10.5528,23.5243,23.5243S90.3787,100.933,77.4071,100.933z M77.4071,54.2607c-12.7639,0-23.148,10.3841-23.148,23.1476
				c0,12.7639,10.3841,23.148,23.148,23.148c12.7635,0,23.1476-10.3841,23.1476-23.148
				C100.5548,64.6448,90.1706,54.2607,77.4071,54.2607z"/>
		</g>
		<g>
			<path class="st2" d="M77.4071,95.3764c-9.9079,0-17.9681-8.0602-17.9681-17.9681c0-9.9075,8.0602-17.9677,17.9681-17.9677
				c9.9075,0,17.9677,8.0602,17.9677,17.9677C95.3749,87.3162,87.3147,95.3764,77.4071,95.3764z M77.4071,59.8173
				c-9.6998,0-17.5914,7.8912-17.5914,17.5911s7.8916,17.5914,17.5914,17.5914s17.591-7.8916,17.591-17.5914
				S87.107,59.8173,77.4071,59.8173z"/>
		</g>
	</g>
	<g>
		<circle cx="68.5183" cy="96.294" r="1.111"/>
	</g>
	<g>
		<circle cx="86.295" cy="96.294" r="1.111"/>
	</g>
	<g>
		<path d="M0,0"/>
	</g>
	<g>
		<g>
			<path class="st2" d="M90.09,80.806c0.3901-0.099,1.034-0.0191,1.034-0.0191s0.0557,0.2677-0.1137,0.3571
				c0.1885,0.1085,0.8653,0.0755,0.8653,0.0755s-0.264,0.2017-0.3953,0.2816c0.2442,0.0235,0.5449,0.3381,0.5449,0.3381
				s-0.5639,0.0939-0.8081-0.0374c0.1503,0.3007,0.132,0.5639,0.132,0.5639s-0.9115-0.2259-1.2401-0.8272 M88.5647,80.2927
				c-0.2207,0.5449-1.8407-0.4693-1.8407-0.4693s0.7135,1.1315,1.7842,1.2584 M68.3327,90.684h18.9765l1.4652-1.1653l-2.442-1.3149
				l-3.7583-1.2775l-1.5033-0.8265l-2.7801,0.1496l-2.3298,1.2401l-3.1944,0.3762l-0.7517,0.8639l-2.3672,0.1885l-3.7202-0.0755
				l6.2003,0.9775l-5.1106-0.264L68.3327,90.684L68.3327,90.684z"/>
			<path d="M87.3354,90.7584H68.3053l-1.5021-1.2876l3.9109,0.202l-4.7982-0.7566l0.0129-0.1479l3.7204,0.0756l2.3296-0.1858
				l0.7505-0.8626l0.0286-0.0032l3.1804-0.3749l2.3482-1.2422l2.8012-0.1507l0.0186,0.0104l1.5036,0.8264l3.7465,1.2722
				l2.5527,1.3732L87.3354,90.7584z M68.3604,90.6094h18.9227l1.3567-1.0785l-2.3429-1.2615l-3.7469-1.2726l-1.4967-0.8214
				l-2.7425,0.1475l-2.3414,1.2404l-3.1657,0.3731l-0.7527,0.8647l-2.3973,0.1912l-2.6365-0.0534l5.1219,0.8078l-0.0154,0.1479
				l-4.8923-0.2528L68.3604,90.6094z M91.4171,82.4593l-0.0859-0.0211c-0.0387-0.0097-0.9471-0.241-1.2873-0.8637l0.1303-0.0716
				c0.2481,0.4537,0.8615,0.6871,1.0979,0.7627c-0.0082-0.097-0.0351-0.2578-0.1214-0.4304l-0.1046-0.2102l0.2066,0.1114
				c0.1361,0.0734,0.4132,0.068,0.6048,0.0491c-0.1089-0.092-0.2621-0.1984-0.3842-0.2102l-0.2224-0.0215l0.1908-0.1164
				c0.0534-0.0322,0.1303-0.0863,0.202-0.1382c-0.2231,0-0.5389-0.0147-0.6707-0.0906l-0.1167-0.0673l0.1192-0.063
				c0.0795-0.0419,0.0856-0.1558,0.0813-0.2234c-0.1647-0.0161-0.6427-0.0537-0.9485,0.0233l-0.0365-0.144
				c0.3982-0.101,1.0348-0.024,1.0613-0.0208l0.0526,0.0064l0.0107,0.0523c0.0025,0.01,0.0408,0.2034-0.0469,0.3416
				c0.1851,0.0387,0.5185,0.0426,0.7226,0.0315l0.2388-0.0115l-0.1901,0.145c-0.0079,0.0061-0.1422,0.1085-0.2668,0.1959
				c0.2159,0.0967,0.4143,0.3022,0.4247,0.313l0.0974,0.1017l-0.1389,0.0233c-0.0197,0.0029-0.4057,0.0652-0.6879,0.0107
				c0.0867,0.246,0.0745,0.4383,0.0738,0.4476L91.4171,82.4593z M88.4992,81.1556c-1.0932-0.1296-1.8083-1.2454-1.8383-1.2926
				l0.1024-0.1028c0.3301,0.207,1.2676,0.7183,1.6228,0.6026c0.0548-0.0179,0.0899-0.0491,0.1096-0.0981l0.1382,0.0559
				c-0.0369,0.0906-0.1046,0.1522-0.202,0.1837c-0.347,0.1135-1.0176-0.2062-1.4237-0.4293
				c0.2847,0.3359,0.8246,0.8519,1.5089,0.9331L88.4992,81.1556z"/>
		</g>
		<g>
			<path class="st2" d="M78.5547,85.2353c-2.3767-1.2775-3.0719,1.87-4.0957,2.6305c1.3809,0.2347,2.4237-1.0619,3.6073-1.6911
				c0.8976,2.4442,2.3107,0.8265,2.3107,0.8265s1.4747,2.3393,3.4386,1.2782c0.5353,0.4033,1.1271,0.0367,1.1271,0.0367
				s0.7143,0.132,0.8646-0.1877c0.3755,0.132,0.7891-0.3373,0.7891-0.3373s0.8169,0.0088,0.9768-0.4136
				c1.2122,0.2156,2.8182-2.4801,2.8182-2.4801l0.4884-0.9394l0.7143-0.1503c0,0,0.0469-0.4693-0.3381-0.451
				c-0.0095-0.2823-0.2537-0.4327-0.6013-0.3762c0.066-0.1687-0.1877-0.3007-0.1877-0.3007
				c-0.6769,0.1694-0.7143,1.8795-0.7143,1.8795s-1.1836,0.902-1.6155,1.1271c-0.0191-0.9775-1.6537-2.3019-1.3156-2.9311
				c0.3381-0.6292,1.3999,0.968,2.3298,0.6761c0.9299-0.2911,1.3867-1.5011,1.4278-2.442c-0.2625-0.6395-0.902-1.6911-0.902-1.6911
				l-0.6013-0.0381L88.55,77.9827c0,0-1.1081,0.7238-1.0897,1.353c0.0191,0.6292,1.1653,1.1645,1.1653,1.1645
				s-0.6607,0.4136-1.2775,0.2259c-0.0565,0.638,0.7509,0.5163,1.0516,0.5258c0.1503,0.4605,0.6013,0.7143,0.6013,0.7143
				s0.2823,0.704-0.451,0.638c-0.7326-0.0653-1.5972-1.7534-2.6305-0.9761c-1.0985,0.8265,0.4891,2.3298,0.4891,2.3298
				s-0.968,0.5067-1.5407,1.804C82.5286,83.7885,81.1573,84.7088,78.5547,85.2353z"/>
			<path d="M82.7897,88.6282c-1.2669,0.0004-2.1961-1.1899-2.4224-1.5093c-0.1694,0.1665-0.6413,0.5693-1.1816,0.4659
				c-0.4687-0.0867-0.8583-0.5253-1.1587-1.3037c-0.328,0.183-0.6513,0.4182-0.965,0.6467
				c-0.7971,0.5804-1.6174,1.1791-2.6154,1.0116l-0.1719-0.0294l0.14-0.1038c0.2872-0.2134,0.5568-0.6363,0.8422-1.0839
				c0.704-1.1047,1.5791-2.4775,3.3093-1.5651c0.4644-0.0945,0.8841-0.2005,1.2901-0.3026
				c1.7882-0.4512,3.0859-0.7774,4.9844,0.7878c0.4834-1.0341,1.1995-1.5465,1.447-1.6998
				c-0.2191-0.2259-0.8669-0.9546-0.8282-1.6393c0.0168-0.2925,0.1565-0.5396,0.4154-0.7344
				c0.7011-0.5282,1.3177-0.0068,1.8616,0.4533c0.2958,0.2499,0.5747,0.4859,0.82,0.5077c0.1869,0.0165,0.3105-0.0168,0.3724-0.1003
				c0.0867-0.1157,0.0433-0.3194,0.0115-0.4129c-0.096-0.0594-0.4429-0.2965-0.5933-0.6911
				c-0.0297,0.0004-0.0623,0.0011-0.097,0.0018c-0.261,0.0072-0.656,0.015-0.8561-0.1987c-0.0945-0.1006-0.135-0.2385-0.12-0.4089
				l0.0079-0.0913l0.0877,0.0265c0.4258,0.1307,0.8834-0.0487,1.0953-0.1529c-0.3094-0.1654-1.0624-0.6227-1.0789-1.1645
				c-0.0197-0.6631,1.0767-1.3868,1.1233-1.4173l0.0756-0.0491l0.5421,1.3177l0.5937,0.0372l0.0204,0.0333
				c0.0261,0.043,0.6452,1.0638,0.907,1.7016l0.0064,0.015l-0.0007,0.0165c-0.0437,0.9994-0.5257,2.2111-1.4803,2.5097
				c-0.507,0.159-1.0416-0.1998-1.4717-0.4881c-0.28-0.188-0.5432-0.3685-0.6986-0.3276c-0.0297,0.0072-0.0745,0.0261-0.116,0.1035
				c-0.1543,0.2872,0.1948,0.7899,0.5643,1.322c0.3391,0.4884,0.6889,0.9922,0.7509,1.4523
				c0.4358-0.2585,1.3091-0.9163,1.4771-1.0434c0.0097-0.2592,0.0949-1.7449,0.7699-1.9139l0.0272-0.0068l0.0251,0.0132
				c0.0913,0.0476,0.2209,0.1515,0.2374,0.2822c0.1697-0.0111,0.3244,0.0294,0.4315,0.1171
				c0.0827,0.0684,0.135,0.1611,0.1533,0.2707c0.0906,0.0089,0.1658,0.044,0.2238,0.1053c0.1461,0.1536,0.1217,0.415,0.1207,0.4261
				l-0.0054,0.0541l-0.733,0.1543l-0.4723,0.9084c-0.0659,0.111-1.5232,2.5319-2.7439,2.5323c-0.0322,0-0.0641-0.0018-0.0956-0.005
				c-0.1959,0.367-0.8329,0.4028-0.989,0.4061c-0.0917,0.096-0.4365,0.4268-0.787,0.3502c-0.1959,0.27-0.7441,0.202-0.8859,0.1783
				c-0.1217,0.0652-0.6528,0.3112-1.1466-0.0269C83.4521,88.5523,83.1102,88.6282,82.7897,88.6282z M80.3867,86.8772l0.0534,0.0841
				c0.0584,0.0931,1.4599,2.2684,3.3401,1.2525l0.0423-0.0226l0.038,0.0286c0.4902,0.3695,1.0377,0.0358,1.0434,0.0326l0.0244-0.015
				l0.0283,0.0054c0.1823,0.0326,0.6807,0.0734,0.7835-0.1461l0.0286-0.0609l0.0634,0.0222
				c0.3226,0.1139,0.705-0.3119,0.7086-0.3165l0.0226-0.0254l0.034,0.0004c0.015-0.0014,0.767,0.0025,0.9066-0.3652l0.0218-0.058
				l0.0605,0.0107c0.043,0.0079,0.0867,0.0115,0.1307,0.0115c1.1333,0,2.5957-2.4306,2.6107-2.456l0.5027-0.9672l0.6911-0.1457
				c-0.0014-0.0677-0.0147-0.1848-0.082-0.2553c-0.0423-0.044-0.0974-0.0641-0.1798-0.0602l-0.0756,0.0036l-0.0025-0.0756
				c-0.0032-0.0981-0.0387-0.1762-0.1056-0.2313c-0.0924-0.0759-0.2367-0.1017-0.4093-0.0741l-0.1286,0.0211l0.0473-0.1217
				c0.0312-0.0795-0.0781-0.1608-0.1285-0.193c-0.4866,0.1647-0.6195,1.3492-0.6295,1.8008l-0.0007,0.0358l-0.0286,0.0215
				c-0.0487,0.0372-1.1938,0.9084-1.6264,1.134l-0.1063,0.0555l-0.0025-0.12c-0.0086-0.4465-0.377-0.9772-0.7337-1.4907
				c-0.396-0.5708-0.7702-1.1097-0.5729-1.4771c0.0516-0.096,0.1225-0.1558,0.2113-0.178c0.2184-0.0551,0.4956,0.1328,0.8175,0.3488
				c0.424,0.284,0.9056,0.6059,1.3442,0.4698c0.8418-0.2635,1.3274-1.3825,1.375-2.3579c-0.2345-0.5647-0.7613-1.4509-0.8705-1.6325
				l-0.6091-0.0387l-0.5081-1.2354c-0.2431,0.1726-0.9962,0.748-0.9815,1.2371c0.0172,0.5761,1.1111,1.0943,1.1222,1.0996
				l0.1239,0.0577l-0.116,0.0727c-0.0265,0.0172-0.6306,0.3928-1.2443,0.2585c0.0054,0.0852,0.0326,0.1525,0.0816,0.2052
				c0.1554,0.1654,0.5095,0.1561,0.7441,0.1518c0.0594-0.0018,0.1124-0.0032,0.1558-0.0014l0.0519,0.0018l0.0165,0.0494
				c0.1396,0.4283,0.5629,0.6703,0.5672,0.6728l0.0229,0.0129l0.0097,0.0243c0.0057,0.0143,0.1414,0.3602-0.0218,0.5794
				c-0.0949,0.1278-0.2643,0.1812-0.5052,0.1601c-0.2922-0.0261-0.5887-0.2768-0.9027-0.5425
				c-0.5257-0.444-1.0692-0.9034-1.6761-0.4479c-0.2224,0.1672-0.3423,0.3774-0.3563,0.6241
				c-0.0415,0.7373,0.8429,1.5834,0.8519,1.592l0.0756,0.0716l-0.092,0.0483c-0.0097,0.005-0.9532,0.512-1.5075,1.7682
				l-0.0401,0.091L84.82,85.8188c-1.8817-1.587-3.0934-1.2812-4.9271-0.82c-0.4154,0.1046-0.845,0.2127-1.3234,0.3097
				l-0.0261,0.0054l-0.0236-0.0129c-1.6256-0.8716-2.4277,0.3885-3.1374,1.5014c-0.2503,0.3928-0.4888,0.767-0.7462,1.0108
				c0.8626,0.0777,1.5791-0.453,2.3382-1.0058c0.3416-0.2485,0.6947-0.5056,1.057-0.6986l0.0756-0.0397l0.0294,0.0798
				c0.285,0.7759,0.647,1.2096,1.076,1.2894c0.5801,0.1046,1.1032-0.4802,1.109-0.4863L80.3867,86.8772z"/>
		</g>
		<g>
			<path class="st2" d="M75.1373,81.8913c0.9768,0.9203,0.2955,2.4508,0.6761,2.7427c0.4041,0.3102,0.9775-0.1496,0.9775-0.1496
				c1.0237,0.2721,2.8556-0.3007,2.8556-0.3007c0.8067,0.451,0.4877-0.2149,0.9768-0.1877c0.4327,1.1081,1.8788,0.902,1.8788,0.902
				s-1.3244-1.353-2.1413-1.7292c-0.6299,0.3762-2.4618,0.4327-2.7808,0.3762c-0.3564-0.0631-0.132-0.4987-0.3007-0.7517
				c0.6732-0.6556,0.1408-2.2829-0.2259-2.8937C75.5605,78.9052,73.777,80.6095,75.1373,81.8913z M68.6393,79.1413
				c-1.2291,0.3322-3.3609-1.5877-4.3575-0.8507c-0.9966,0.737-0.5317,2.5513,0.132,3.454
				c0.6497,0.8837-0.9489,1.2027-1.3809,1.7277c-0.4063,0.4935,0.132,1.0633,0.132,1.0633l0.4525,0.2919l-0.0799,0.6644
				l0.2391,0.7971c0,0,0.22,0.1921,0.2926-0.0535c0.2053,0.2061,0.022,0.8015,0.5317,0.8771
				c-0.1833-0.3813,0.132-1.4351,0.132-1.4351s0.891,0.0667,1.1169-0.3183c0.2251-0.3857-0.2127-1.2225-0.2127-1.2225h0.2655
				c-0.2992-0.2053-0.3989-0.8235-0.3989-0.8235s1.2357-0.3923,1.2225-1.3288c-0.0132-0.9365-2.0057-1.9331-1.2753-2.4178
				c0.8103-0.5383,2.2183,1.3948,3.4276,0.5045c1.1968-0.8807,0.4253-0.0264,0.4253-0.0264S69.8507,78.8143,68.6393,79.1413z
				 M74.9833,65.9787c-1.6441-0.6857-5.0028-0.7282-6.8765-1.6537c-0.8221,0.0513-1.188,0.7003-1.2217,0.9585
				c-0.8595-0.0425-1.4417,1.3105-1.3149,1.5781c-1.5642-0.6336-2.2924,1.8414-1.7849,2.3489
				c-1.3347,0.0565-1.1697,1.7615-1.2965,2.2359c-0.4275,1.0377,0.0953,1.3875,0.9394,1.0142
				c0.1269,0.451-0.0513,0.704-0.4327,0.7891c2.3159,2.6503,3.6249-1.6302,5.6562-1.6155c2.5359-0.7421,3.5317-1.9917,3.5317-1.9917
				l0.9959,0.132C73.1793,69.7745,74.9833,65.9787,74.9833,65.9787z"/>
			<path d="M64.7285,87.207l-0.1386-0.0204c-0.3753-0.0559-0.4286-0.3559-0.4712-0.5973c-0.0136-0.0756-0.0265-0.1486-0.048-0.2077
				c-0.0261,0.0254-0.0541,0.039-0.0777,0.0458c-0.1253,0.0372-0.2517-0.0702-0.2657-0.082l-0.0161-0.0143l-0.2496-0.8329
				l0.0021-0.0154l0.0741-0.618l-0.4136-0.2664c-0.2156-0.2252-0.5031-0.7426-0.149-1.1734
				c0.1472-0.179,0.4075-0.3273,0.6832-0.4841c0.376-0.2141,0.7648-0.4354,0.8257-0.7222c0.0283-0.1318-0.0147-0.2725-0.1303-0.43
				c-0.7247-0.9858-1.1193-2.8162-0.1164-3.5578c0.5701-0.4222,1.4753-0.0319,2.3493,0.3441
				c0.733,0.3155,1.491,0.6424,2.0331,0.4945l0,0c0.372-0.1013,0.6327-0.0691,0.772,0.0942c0.0995,0.116,0.1185,0.28,0.1046,0.4372
				c0.0534-0.0111,0.0802,0.0043,0.1021,0.0286c0.0337,0.0372,0.0902,0.0999-0.2399,0.4651l-0.1232-0.0798
				c0.015-0.034,0.0337-0.0827,0.0519-0.1396c-0.0874,0.0569-0.2055,0.1386-0.3652,0.256
				c-0.7111,0.5253-1.4738,0.1296-2.1466-0.2191c-0.5156-0.2671-0.9611-0.4992-1.2837-0.2832
				c-0.0777,0.0516-0.1192,0.1089-0.1264,0.1751c-0.0233,0.2105,0.2746,0.5196,0.5901,0.8468
				c0.3928,0.4078,0.8386,0.8698,0.8451,1.3327c0.0118,0.8662-0.951,1.2823-1.2121,1.3789c0.0333,0.155,0.1389,0.564,0.3563,0.7133
				l0.1977,0.1357h-0.3871c0.1135,0.2474,0.3527,0.8526,0.1583,1.1856c-0.2127,0.3627-0.9145,0.366-1.1258,0.3581
				c-0.0906,0.323-0.2521,1.0517-0.1203,1.3256L64.7285,87.207z M64.0335,86.0941l0.0884,0.0888
				c0.092,0.0927,0.1171,0.2324,0.1432,0.3803c0.039,0.2199,0.0777,0.3713,0.2242,0.4408c-0.0895-0.4633,0.1604-1.308,0.1722-1.3478
				l0.0172-0.0573l0.0594,0.0047c0.2335,0.0175,0.8816,0.0007,1.0474-0.2818c0.1672-0.2868-0.0981-0.9278-0.2145-1.1505
				l-0.0569-0.1088H65.72c-0.2127-0.2729-0.2865-0.7151-0.29-0.7373l-0.0104-0.0634l0.0612-0.0193
				c0.0118-0.0039,1.1831-0.3874,1.1709-1.2568c-0.0057-0.4039-0.4293-0.8436-0.8035-1.2318
				c-0.3549-0.3681-0.6614-0.6864-0.6306-0.9664c0.0122-0.111,0.0766-0.2063,0.1919-0.2825
				c0.3957-0.2628,0.8998-0.0021,1.4344,0.2746c0.6657,0.3445,1.3528,0.7004,1.9902,0.232c0.236-0.1737,0.3946-0.28,0.5035-0.3416
				c0.0258-0.1529,0.0233-0.314-0.0587-0.4096c-0.1232-0.1439-0.4053-0.1049-0.6202-0.0469l0,0
				c-0.5948,0.1593-1.3754-0.1762-2.1305-0.5017c-0.8365-0.3602-1.7026-0.733-2.2018-0.3613
				c-0.9296,0.6871-0.5407,2.4141,0.1472,3.3501c0.1407,0.1912,0.1934,0.376,0.1565,0.5493
				c-0.0748,0.352-0.4931,0.5901-0.8977,0.8203c-0.2635,0.15-0.512,0.2918-0.6417,0.4494c-0.3595,0.4365,0.1081,0.9439,0.1282,0.965
				l0.478,0.3058l-0.0834,0.695l0.2274,0.7598c0.0333,0.024,0.0849,0.0476,0.1106,0.0394c0.0243-0.0072,0.0397-0.0473,0.0465-0.0702
				L64.0335,86.0941z M82.2454,84.9862c-0.4454,0-1.3256-0.1078-1.6722-0.916c-0.1182,0.0064-0.1586,0.0695-0.212,0.1536
				c-0.1167,0.1823-0.2449,0.2993-0.7229,0.0405c-0.2492,0.0752-1.8555,0.5389-2.8309,0.3011
				c-0.1303,0.0952-0.6449,0.4308-1.0395,0.1275c-0.1762-0.1353-0.1654-0.4462-0.1518-0.84c0.0204-0.5754,0.0476-1.3632-0.53-1.9075
				l0,0c-0.7093-0.6682-0.564-1.4047-0.2242-1.8323c0.4444-0.5593,1.3782-0.8458,2.2326-0.2757l0.0226,0.0236
				c0.4007,0.6674,0.8895,2.2444,0.2542,2.9441c0.0508,0.1085,0.0548,0.2324,0.0587,0.3434
				c0.0068,0.2148,0.0226,0.2983,0.1629,0.323c0.3201,0.0566,2.1244-0.0054,2.7296-0.3667l0.0337-0.0204l0.0358,0.0165
				c0.8196,0.3778,2.1087,1.6894,2.1635,1.7452l0.1028,0.1049l-0.1457,0.0208C82.5086,84.9723,82.4048,84.9862,82.2454,84.9862z
				 M80.5951,83.921c0.0104,0,0.0211,0.0004,0.0326,0.0007l0.0476,0.0029l0.0175,0.0444c0.3233,0.8293,1.2683,0.8827,1.6418,0.8673
				c-0.3319-0.3269-1.3131-1.264-1.9705-1.5838c-0.6743,0.3677-2.4632,0.425-2.7969,0.3659
				c-0.2725-0.0483-0.28-0.2793-0.2861-0.4648c-0.0036-0.1157-0.0075-0.2349-0.0637-0.319l-0.0344-0.0512l0.0444-0.0433
				c0.6438-0.627,0.1096-2.2118-0.2292-2.788c-0.7774-0.5074-1.6192-0.2499-2.0195,0.2535
				c-0.3151,0.3964-0.4254,1.033,0.2098,1.6317l0,0c0.6266,0.5901,0.5976,1.4173,0.5765,2.021
				c-0.0118,0.3369-0.0218,0.6281,0.0935,0.7165c0.3556,0.2721,0.8809-0.1439,0.8859-0.1482l0.0294-0.0236l0.0362,0.0097
				c0.9922,0.2617,2.7962-0.2947,2.8145-0.2997l0.0304-0.0097l0.0279,0.0158c0.4193,0.2331,0.4748,0.1461,0.5529,0.0247
				C80.2961,84.0488,80.3781,83.921,80.5951,83.921z M64.4918,74.19c-0.0222,0-0.0448-0.0004-0.067-0.0014
				c-0.4977-0.0243-0.9836-0.3155-1.4856-0.8898l-0.0824-0.0945l0.1225-0.0272c0.1729-0.0383,0.2933-0.1124,0.3574-0.2195
				c0.0598-0.0999,0.073-0.2324,0.0401-0.3942c-0.4161,0.1658-0.7602,0.154-0.9535-0.0333c-0.15-0.1465-0.2725-0.4583-0.0032-1.1118
				c0.0204-0.0791,0.034-0.2202,0.0498-0.3835c0.0637-0.6642,0.1687-1.7574,1.1795-1.887c-0.2037-0.3882-0.0752-1.2028,0.3069-1.78
				c0.3856-0.5826,0.936-0.8046,1.5232-0.6177c0.005-0.2177,0.1343-0.5622,0.3348-0.8626c0.1694-0.2535,0.5206-0.6682,1.0108-0.6789
				c0.0784-0.2933,0.4548-0.9063,1.2773-0.9575l0.0197-0.0014l0.0179,0.0089c1.0194,0.5034,2.4739,0.7416,3.8808,0.9718
				c1.153,0.1891,2.2423,0.3674,2.9913,0.6796l0.072,0.0301l-0.0333,0.0705l-1.8272,3.845l-1.009-0.1339
				c-0.179,0.2073-1.2096,1.3016-3.5417,1.9841l-0.0215,0.0029c-0.0032,0-0.0064,0-0.0097,0c-0.7523,0-1.4237,0.6313-2.0729,1.2422
				C65.9205,73.5605,65.2509,74.19,64.4918,74.19z M63.1304,73.2887c0.4451,0.4841,0.8719,0.7301,1.3016,0.7509
				c0.7244,0.0401,1.3607-0.5629,2.0346-1.1974c0.6703-0.6306,1.3635-1.2826,2.1749-1.2826
				c2.4721-0.7258,3.474-1.9511,3.4841-1.9637l0.0261-0.0326l0.9836,0.1303l1.747-3.6756
				c-0.7308-0.2879-1.7785-0.4594-2.8857-0.6406c-1.4094-0.231-2.8664-0.4694-3.9048-0.9768
				c-0.7731,0.0584-1.1054,0.6821-1.1329,0.8927l-0.0089,0.068l-0.0684-0.0032c-0.0122-0.0007-0.0244-0.0011-0.0365-0.0011
				c-0.4318,0-0.7523,0.3813-0.907,0.613c-0.2489,0.3728-0.3459,0.7641-0.3004,0.8597l0.0816,0.1726l-0.1769-0.0716
				c-0.7656-0.3104-1.245,0.1919-1.462,0.5192c-0.4186,0.6316-0.483,1.4674-0.2424,1.708l0.12,0.1199l-0.1694,0.0072
				c-1.0055,0.0423-1.105,1.0782-1.1709,1.7639c-0.0161,0.1697-0.0304,0.3165-0.0569,0.4168
				c-0.1887,0.4591-0.1994,0.796-0.0333,0.9575c0.1579,0.1547,0.4755,0.1436,0.8708-0.0304l0.0784-0.0347l0.0233,0.0827
				c0.0677,0.2406,0.0559,0.4404-0.0354,0.593C63.3954,73.1494,63.2833,73.235,63.1304,73.2887z"/>
		</g>
		<g>
			<circle class="st2" cx="77.1063" cy="64.0816" r="2.4237"/>
			<path d="M77.1063,66.5799c-1.3775,0-2.4983-1.1208-2.4983-2.4983c0-1.3775,1.1208-2.4983,2.4983-2.4983
				c1.3775,0,2.4983,1.1208,2.4983,2.4983C79.6046,65.4591,78.4839,66.5799,77.1063,66.5799z M77.1063,61.7323
				c-1.2955,0-2.3493,1.0538-2.3493,2.3493s1.0538,2.3493,2.3493,2.3493s2.3493-1.0538,2.3493-2.3493
				S78.4019,61.7323,77.1063,61.7323z"/>
		</g>
		<g>
			<path class="st2" d="M72.842,83.1673c-1.5033-0.2728-3.9923-1.8319-4.246-3.8705c1.3992-5.4956,8.6203-2.6253,9.2429-6.7591
				c-0.1591-2.7273,0.33-5.4267,1.8421-7.7081c0.704-0.8925,1.6155-1.1271,1.6155-1.1271s0.1635,0.5815-0.0748,0.9768
				c1.1924-0.132,2.8277,0.5353,3.9453,0.6013c0.3285,0.6673,0.3007,0.9108,0.2251,1.3149
				c-0.0748,0.4041-0.5258,0.3007-0.5258,0.3007c-0.2919,0.2765-0.6424,0.5581-1.4278,0.4136
				c-0.5918,0.451-1.8414,0.5632-1.8414,0.5632s2.6114,2.7529,2.1795,3.608c0.5449,0.253,1.353,1.4652,1.353,1.4652
				s1.7849-0.9394,2.3672-1.804c1.034,0,2.7243,1.0809,3.5699,1.2027c1.034,0.836,2.0665,1.6911,2.0665,1.6911
				s-1.2305,0.8081-1.7659-0.2633c-0.6483,0.0565-2.0482-1.4938-3.9835-1.0142c-0.0565,1.7189-1.9536,2.9311-1.9536,2.9311
				s1.771-0.2479,2.7427,0.3373c0.8163,0.677,1.6431,1.3413,2.4801,1.9925l1.3156,2.2543c0,0-1.2027,0.2068-1.6537-1.353
				c-0.451,1.2591-0.4693-0.7795-2.2543-1.7285c-0.5449,0.066-0.8177,0.1034-1.2782-0.2625
				c-1.287,0.3476-2.8087,1.0985-4.6215,0.902c-1.287,0.4033-2.2271,1.474-3.5325,2.0665
				c-1.3053,0.5918-1.6911,0.3007-1.6911,0.3007l-1.0523,0.0367c-0.1518,0.6343-0.066,1.5979-0.638,1.7673
				c0.3659,0.3938-0.264,2.0753-0.902,2.3665c0.3007,1.0809,1.1807,1.4117,2.1039,1.9543c0,0,0.8169-0.3755,1.3523,0.1129
				c0.5353,0.4884,1.0897,1.8788,1.0897,1.8788s-1.1147,0.0755-1.4652-0.0755c-0.3513-0.1503-0.385-0.5163-0.7891-0.4129
				c-2.5461-2.2645-3.8881-1.364-4.1338-1.8788C72.2524,85.4201,73.1045,84.0415,72.842,83.1673z"/>
			<path d="M78.2952,88.4087c-0.3309,0-0.7115-0.0201-0.8984-0.1006c-0.1504-0.0645-0.246-0.1629-0.3305-0.2496
				c-0.1243-0.1278-0.2063-0.2127-0.4111-0.1597l-0.0383,0.01l-0.0294-0.0265c-1.6898-1.5028-2.8152-1.5938-3.4876-1.6486
				c-0.3398-0.0272-0.5643-0.0455-0.6639-0.2535c-0.13-0.2736-0.0036-0.7115,0.1422-1.2189
				c0.1479-0.5124,0.3144-1.0914,0.2045-1.5297c-1.6299-0.318-4.014-1.9458-4.2604-3.9256l-0.0018-0.014l0.0036-0.0136
				c0.7559-2.9699,3.2055-3.537,5.3664-4.0373c1.9268-0.4462,3.5911-0.8318,3.8747-2.7146
				c-0.1772-3.0071,0.4469-5.6157,1.8537-7.7383c0.7151-0.9066,1.6206-1.1483,1.659-1.158l0.0705-0.0183l0.0197,0.0702
				c0.0064,0.0226,0.14,0.5092-0.0211,0.9113c0.6911-0.043,1.4949,0.1454,2.2745,0.3284c0.5658,0.1325,1.1,0.2578,1.5501,0.2843
				l0.0433,0.0029l0.019,0.0387c0.3366,0.6836,0.3108,0.9367,0.2313,1.3614c-0.0244,0.1318-0.0863,0.231-0.1837,0.2951
				c-0.1404,0.092-0.3137,0.0816-0.391,0.0713c-0.3065,0.2861-0.6778,0.5432-1.4334,0.4129
				c-0.4906,0.3559-1.3564,0.4974-1.7041,0.5418c0.5128,0.5532,2.3923,2.659,2.1184,3.5156c0.4881,0.2764,1.12,1.167,1.2819,1.4029
				c0.3115-0.1701,1.7757-0.9962,2.282-1.7481l0.0218-0.0329h0.0397c0.6094,0,1.4416,0.3663,2.176,0.6893
				c0.5421,0.2385,1.0545,0.4641,1.4047,0.5142l0.0201,0.0029l0.0161,0.0129c1.0223,0.8268,2.0568,1.6833,2.0672,1.6919
				l0.0773,0.0641l-0.0841,0.0555c-0.0265,0.0172-0.6574,0.4258-1.2339,0.2689c-0.2617-0.0705-0.4694-0.2449-0.6173-0.5189
				c-0.2356-0.0043-0.535-0.1665-0.9066-0.3681c-0.7351-0.3996-1.7381-0.9421-2.9602-0.6624
				c-0.0759,1.3585-1.2393,2.3819-1.7503,2.7683c0.5464-0.0462,1.7488-0.0788,2.5054,0.3771
				c0.8236,0.6818,1.6575,1.3517,2.4879,1.9973l0.0186,0.0211l1.3696,2.3472l-0.106,0.0183
				c-0.0129,0.0025-1.1677,0.1819-1.6733-1.2081c-0.0784,0.1712-0.1511,0.2456-0.2399,0.2542
				c-0.1472,0.0226-0.2607-0.1672-0.4433-0.4698c-0.2861-0.4744-0.7176-1.1892-1.5784-1.6547
				c-0.5299,0.0648-0.8243,0.0945-1.2805-0.2575c-0.2929,0.0806-0.5973,0.1812-0.9188,0.2872
				c-1.0721,0.3545-2.2884,0.7577-3.6785,0.6087c-0.6947,0.2209-1.2819,0.6352-1.9035,1.0739
				c-0.4995,0.3527-1.0162,0.7176-1.6056,0.9847c-1.1763,0.5335-1.631,0.3699-1.742,0.3083l-0.9725,0.0337
				c-0.0322,0.1525-0.0526,0.3212-0.0741,0.4984c-0.063,0.516-0.1275,1.0488-0.5092,1.2321c0.0995,0.1923,0.073,0.483,0.0279,0.709
				c-0.1243,0.622-0.5189,1.4104-0.9557,1.66c0.2592,0.8479,0.9016,1.206,1.6428,1.6192c0.1239,0.0691,0.2503,0.1396,0.3778,0.2141
				c0.1712-0.0698,0.8912-0.3201,1.3968,0.1407c0.5421,0.4945,1.086,1.8491,1.109,1.9064l0.038,0.0949l-0.1021,0.0068
				C78.8738,88.3912,78.6063,88.4087,78.2952,88.4087z M76.7687,87.7344c0.1901,0,0.2986,0.1114,0.4043,0.2202
				c0.0784,0.0806,0.1593,0.164,0.2825,0.2166c0.2696,0.1164,1.0456,0.0888,1.327,0.0756
				c-0.1357-0.3208-0.5948-1.3575-1.0312-1.7553c-0.4927-0.4494-1.2633-0.1038-1.2708-0.1003l-0.0355,0.0161l-0.0333-0.0197
				c-0.1375-0.0806-0.2739-0.1568-0.4075-0.2313c-0.7541-0.4204-1.4663-0.8175-1.7306-1.7671l-0.0172-0.0612l0.058-0.0265
				c0.3975-0.1815,0.8089-0.98,0.9292-1.5834c0.0637-0.319,0.0451-0.5615-0.0508-0.6649l-0.082-0.0877l0.1153-0.034
				c0.3713-0.1099,0.4351-0.6356,0.497-1.1433c0.0236-0.1944,0.048-0.3953,0.0899-0.5701l0.0133-0.0551l1.1351-0.0394l0.0211,0.0158
				c0.0025,0.0014,0.3856,0.2485,1.6156-0.309c0.5765-0.2618,1.0875-0.6223,1.5816-0.9707
				c0.6356-0.4487,1.2361-0.8723,1.9594-1.0989l0.0147-0.0047l0.0154,0.0014c1.3696,0.1475,2.5699-0.2492,3.6312-0.6001
				c0.3366-0.1114,0.6549-0.2163,0.9629-0.2997l0.0362-0.0097l0.0294,0.0233c0.4318,0.3434,0.6743,0.3137,1.2056,0.2492
				l0.0233-0.0029l0.0383,0.0086c0.9109,0.4845,1.3775,1.2579,1.6564,1.7202c0.1142,0.1898,0.2406,0.3971,0.3008,0.3989
				c0.0118-0.0014,0.0752-0.0236,0.1919-0.3498l0.0777-0.2166l0.0641,0.2209c0.3416,1.1827,1.1158,1.3098,1.4323,1.3098
				c0.0089,0,0.0175,0,0.0258-0.0004l-1.2486-2.1402c-0.8279-0.6438-1.6593-1.3116-2.4711-1.9848
				c-0.9288-0.5579-2.6673-0.323-2.6845-0.3208l-0.0505-0.1364c0.0186-0.0118,1.8648-1.2121,1.9193-2.871l0.0018-0.0562
				l0.0548-0.0136c1.3045-0.3212,2.3543,0.2474,3.121,0.6631c0.3624,0.1966,0.6796,0.3613,0.8737,0.3491l0.0505-0.0043
				l0.0226,0.0451c0.1293,0.2585,0.3122,0.4214,0.5446,0.4841c0.3942,0.1056,0.8393-0.0978,1.0252-0.198
				c-0.2632-0.2173-1.1179-0.9224-1.968-1.6099c-0.3688-0.0587-0.8812-0.284-1.423-0.5224
				c-0.7047-0.3101-1.5018-0.6606-2.0772-0.676c-0.6069,0.8605-2.2985,1.7567-2.3712,1.795l-0.0594,0.0312l-0.0372-0.0559
				c-0.0079-0.0118-0.8028-1.1974-1.3224-1.4387l-0.0695-0.0326l0.0344-0.0688c0.3352-0.6631-1.4506-2.7679-2.1671-3.5231
				l-0.1056-0.1117l0.1529-0.0136c0.0125-0.0011,1.2354-0.1157,1.8029-0.5482l0.0261-0.0201l0.0326,0.0061
				c0.7312,0.1336,1.0624-0.1099,1.3632-0.3946l0.0286-0.0272l0.039,0.0086c0.0018,0.0004,0.1891,0.0401,0.3173-0.044
				c0.063-0.0415,0.1017-0.106,0.1189-0.1973c0.0738-0.3953,0.0967-0.617-0.1998-1.2296c-0.453-0.0326-0.9775-0.1554-1.5315-0.2854
				c-0.8186-0.1919-1.6661-0.391-2.3579-0.3137l-0.1497,0.0165l0.0777-0.1289c0.1704-0.2829,0.1167-0.68,0.0838-0.8436
				c-0.227,0.0766-0.9367,0.362-1.5025,1.0785c-1.385,2.0901-2.0006,4.6682-1.8258,7.6577
				c-0.2997,1.9984-2.0919,2.4134-3.9896,2.8528c-2.1162,0.4898-4.5142,1.0452-5.2522,3.9152
				c0.2499,1.925,2.6021,3.5055,4.1837,3.7924l0.0448,0.0082l0.0133,0.0437c0.1454,0.4848-0.0337,1.1075-0.1919,1.6568
				c-0.1321,0.4583-0.2567,0.8912-0.1507,1.1136c0.0594,0.125,0.2177,0.1432,0.541,0.1694c0.6424,0.0519,1.8348,0.1486,3.546,1.6604
				C76.6978,87.738,76.7347,87.7344,76.7687,87.7344z"/>
		</g>
		<g>
			<path class="st2" d="M66.726,73.0803c0.1327-0.1657,1.0633,0.1863,1.0633,0.1863l1.6999,1.0626l3.454,2.2323l1.2225,1.7798
				l-2.2051-0.7172l-3.0558-2.6305l-1.6471-1.0633c0,0-0.6644-0.6842-0.5317-0.8507L66.726,73.0803z M87.1567,78.738
				c-1.1931-0.3007-4.1338,3.2692-4.1338,3.2692l2.2176,2.4053C85.2405,84.4125,85.3065,80.3161,87.1567,78.738z"/>
			<path d="M85.3116,84.5999l-2.3876-2.5899l0.0415-0.0501c0.116-0.1411,2.7453-3.3136,4.0441-3.3136
				c0.058,0,0.1132,0.0064,0.1654,0.0193l0.1396,0.0354l-0.1096,0.0935c-1.8033,1.5383-1.8895,5.5788-1.8903,5.6192L85.3116,84.5999
				z M83.122,82.0046l2.05,2.224c0.0354-0.8032,0.2714-3.9692,1.8118-5.4348C85.8458,78.8152,83.4657,81.5956,83.122,82.0046z
				 M74.351,78.4797l-2.4392-0.7992l-3.0558-2.6304l-1.6389-1.057c-0.198-0.202-0.4687-0.5067-0.5539-0.7337l-0.0082,0.0086
				l-0.0007-0.0337c-0.0261-0.0813-0.0258-0.1515,0.014-0.2012l0.1325-0.1661V72.97c0.2607-0.0376,0.7745,0.1361,1.0151,0.227
				l1.7127,1.0692l3.4758,2.253L74.351,78.4797z M71.9977,77.5577l1.9823,0.6449l-1.09-1.5866l-3.4414-2.224l-1.6987-1.0624
				c-0.4411-0.1651-0.907-0.266-0.9657-0.2027l-0.0007,0.0007c-0.0301,0.0673,0.1869,0.4,0.5274,0.7509l1.6342,1.0524
				L71.9977,77.5577z"/>
		</g>
		<g>
			<path class="st2" d="M72.6169,68.7786c-0.6505,0.8338-0.7091,2.5146,0.1379,3.1922c0.0792,1.0201,0.9467,3.0778,1.628,3.2707
				c0.7451,0.2112,3.7202,0.902,4.8855,0.7143c-0.2229,1.8883,1.2584,3.4034,2.6305,4.3963
				c-0.0103,0.1701-0.0125,0.3769,0.1459,0.5867c0.154,0.2024,0.8741,0.2391,0.9057,0.1276c0.3197,0.4495,1.8685,0.6468,1.98,0.4466
				c0.11-0.1951-2.277-1.8553-2.8065-2.3628c-0.4495-0.8389-1.3017-2.7089-1.5033-4.2093
				c-1.1711-1.3933-3.1827-1.3655-3.1827-1.3655l0.0638-2.7302l0.1129-3.0815l-1.0897-0.5632c0,0,0.22-0.1005,0.3381-0.2259
				c0.2647,0.1144,0.7627-0.418,0.8272-0.5676c0.2501,0.088,0.4767,0.088,0.5207-0.0469c0.0396-0.1173,0.0843-0.6446,0.176-0.9167
				c0.8213-0.7238-0.1203-2.2587-1.3772-2.2836c-1.2445-0.0257-1.5231,1.4835-1.4989,1.5987c0.1166,0.473,0.0917,0.7113,0,0.8257
				c-0.0939,0.1173-0.5265,0.3762-0.5265,0.3762s-0.6952-0.3293-1.54,0c-0.8448,0.3293-1.7952,0.77-1.8421,1.3149
				c-0.385,0.0565-1.0142,0.5544-1.1271,0.9775c-0.3381-0.066-0.7795,0.2156-1.5033,1.3904
				c-1.2958,0.5727-1.3713,3.344-1.3713,3.344s-0.3498,0.5097-0.3667,0.7795c-0.0161,0.2706,0.1225,0.517,0.2919,0.4693
				c0.0183,0.1789,0.2537,0.3388,0.3564,0.2823c0.0381,0.1789,0.2955,0.2787,0.451,0.2537
				c0.0147,0.1225,0.5148,0.0917,0.5544-0.0191c0.044-0.1217-0.0491-0.7304,0.0095-0.7795c0.0543-0.044,0.4693,0.2728,0.5823,0.1877
				c0.1129-0.0843-0.022-0.3549-0.0843-0.4598c-0.0565-0.0939-0.4136-0.198-0.4979-0.6387
				c-0.0843-0.4407,0.2251-1.0523,0.2251-1.0523s1.4095-1.1088,1.5693-2.0577C71.7523,70.0561,72.314,69.1284,72.6169,68.7786
				L72.6169,68.7786z"/>
			<path d="M84.5915,81.6655c-0.4784,0-1.3385-0.1694-1.6525-0.4963c-0.0283,0.0122-0.0566,0.0175-0.0713,0.0204
				c-0.2252,0.0408-0.7369-0.0147-0.8827-0.2059c-0.1583-0.2095-0.1712-0.415-0.1629-0.5951
				c-1.8591-1.3553-2.7693-2.8556-2.6379-4.3463c-1.202,0.1393-3.9746-0.4891-4.8218-0.729
				c-0.7144-0.2023-1.583-2.2469-1.6794-3.305c-0.6782-0.5686-0.7785-1.7456-0.4644-2.6365
				c-0.3319,0.3516-0.7938,0.7036-1.4674,0.6603c-0.2034,0.9095-1.419,1.9053-1.5701,2.026
				c-0.044,0.0927-0.2829,0.6159-0.2113,0.9908c0.0555,0.29,0.2417,0.4197,0.3649,0.5056c0.0559,0.0387,0.0999,0.0695,0.1235,0.1089
				c0.0752,0.1264,0.2313,0.4333,0.0655,0.5575c-0.1038,0.0777-0.2814-0.0147-0.4551-0.1042
				c-0.0369-0.019-0.0827-0.043-0.1167-0.058c-0.0032,0.0716,0.0047,0.203,0.0104,0.2968c0.0129,0.2181,0.0193,0.3556-0.0054,0.4232
				c-0.0476,0.1339-0.3387,0.1593-0.4863,0.1422c-0.096-0.0107-0.15-0.0387-0.1798-0.0705c-0.0021,0-0.0043,0-0.0064,0
				c-0.1597,0-0.372-0.0849-0.4512-0.2456c-0.0376,0.0018-0.0927-0.0133-0.1429-0.0394c-0.0895-0.0473-0.1844-0.1382-0.2231-0.2492
				c-0.0476-0.0036-0.0942-0.0226-0.1357-0.0559c-0.1153-0.0931-0.1848-0.2929-0.1722-0.4977
				c0.0161-0.2607,0.3026-0.7025,0.367-0.7992c0.0104-0.2814,0.1368-2.7955,1.3933-3.3784
				c0.6009-0.9707,1.0585-1.4155,1.4638-1.4155c0.0132,0,0.0261,0.0007,0.039,0.0014c0.154-0.4222,0.7176-0.8683,1.1129-0.9586
				c0.1035-0.5564,1.0051-0.9793,1.8813-1.3213c0.7641-0.2965,1.4019-0.0788,1.5616-0.014c0.1654-0.101,0.4157-0.2664,0.4741-0.3395
				c0.0605-0.0756,0.1074-0.2689-0.0143-0.7613c-0.0201-0.096,0.0881-0.7197,0.4687-1.1784
				c0.2897-0.3491,0.6692-0.5188,1.1043-0.5124c0.8132,0.0161,1.4574,0.6216,1.6733,1.2114
				c0.1704,0.4651,0.0856,0.897-0.2331,1.1884c-0.0498,0.1586-0.0856,0.3985-0.1146,0.593
				c-0.0211,0.1414-0.0376,0.2528-0.0555,0.3058c-0.0175,0.0537-0.0559,0.0967-0.111,0.1239
				c-0.1293,0.0645-0.3162,0.0283-0.4451-0.0111c-0.1042,0.1604-0.376,0.4376-0.6166,0.5332
				c-0.0831,0.0333-0.1576,0.044-0.2252,0.0286c-0.0609,0.0559-0.1354,0.1046-0.1977,0.1411l1.0051,0.5196l-0.1146,3.1288
				l-0.062,2.654c0.3842,0.0132,2.1137,0.1422,3.1632,1.3908l0.014,0.0165l0.0029,0.0215c0.1966,1.4617,1.0259,3.3057,1.4896,4.1737
				c0.2009,0.1901,0.6578,0.5403,1.1412,0.9106c1.4724,1.1283,1.7535,1.3865,1.6701,1.5343
				c-0.0376,0.0677-0.1364,0.1038-0.3104,0.1135C84.6556,81.6647,84.6244,81.6655,84.5915,81.6655z M82.9207,80.8967l0.0899,0.1264
				c0.1826,0.2567,0.8633,0.4494,1.4158,0.4873c0.2628,0.0186,0.3846-0.0086,0.4258-0.0272
				c-0.0978-0.1851-1.008-0.8827-1.6178-1.3499c-0.4934-0.3781-0.96-0.7355-1.1623-0.9296l-0.014-0.0186
				c-0.4651-0.868-1.3034-2.7274-1.5086-4.2127c-1.1107-1.3027-3.0039-1.3227-3.1066-1.3227c-0.0022,0-0.0036,0-0.0039,0
				l-0.0773,0.0011l0.0655-2.8073l0.111-3.0354l-1.1834-0.6116l0.1393-0.0637c0.0018-0.0011,0.208-0.096,0.3148-0.2091
				l0.0358-0.0383l0.048,0.0208c0.038,0.0172,0.0935,0.0122,0.1611-0.0147c0.237-0.0938,0.5246-0.4129,0.5679-0.5138l0.0276-0.0641
				l0.0655,0.0233c0.1679,0.0587,0.3183,0.0745,0.3896,0.0376c0.0251-0.0122,0.0322-0.0272,0.0355-0.0372
				c0.014-0.0412,0.0315-0.1576,0.0498-0.2807c0.0308-0.2077,0.0695-0.4666,0.1268-0.6367l0.0064-0.019l0.015-0.0132
				c0.2825-0.2489,0.3577-0.6277,0.207-1.0395c-0.1987-0.5425-0.7903-1.0989-1.5365-1.1136
				c-0.3788-0.0129-0.6864,0.1282-0.9385,0.4028c-0.386,0.4215-0.4941,1.0345-0.4859,1.1082
				c0.1114,0.4505,0.1067,0.733-0.0154,0.8852c-0.0992,0.1243-0.5006,0.3663-0.5461,0.3935l-0.034,0.0204l-0.0362-0.0168
				c-0.0061-0.0032-0.6782-0.3108-1.4813,0.0022c-0.7491,0.2922-1.7506,0.7398-1.7947,1.2518l-0.005,0.0587l-0.0584,0.0086
				c-0.357,0.0523-0.9607,0.5271-1.066,0.9231l-0.0179,0.067l-0.0684-0.0132c-0.3624-0.072-0.8128,0.3616-1.4258,1.3564
				l-0.0122,0.0197l-0.0211,0.0093c-1.2382,0.5475-1.3259,3.2509-1.3267,3.2782l-0.0007,0.0218l-0.0125,0.0183
				c-0.0938,0.1371-0.3409,0.5375-0.3538,0.7419c-0.0104,0.1744,0.0512,0.3194,0.1174,0.3727
				c0.0358,0.029,0.0637,0.0251,0.0802,0.0204l0.0852-0.024l0.0089,0.0881c0.0086,0.0838,0.087,0.1661,0.1601,0.2048
				c0.0466,0.0247,0.0766,0.0244,0.0863,0.0197l0.0877-0.0483l0.0208,0.0981c0.029,0.1332,0.2467,0.2173,0.3667,0.1959
				l0.0766-0.0122l0.0089,0.0766c0.005,0.0014,0.0555,0.0136,0.1504,0.0136c0.0136,0,0.0283-0.0004,0.044-0.0014
				c0.1278-0.0064,0.2059-0.038,0.2191-0.0534c0.0129-0.038,0.0011-0.2302-0.0064-0.3577
				c-0.0183-0.3008-0.0197-0.4018,0.0355-0.4479c0.0612-0.0491,0.1418-0.0079,0.2882,0.068
				c0.0759,0.0397,0.2499,0.1307,0.2993,0.116c0.034-0.0261,0.0004-0.1815-0.1063-0.3609c-0.0075-0.0118-0.048-0.0401-0.0809-0.063
				c-0.1343-0.0935-0.3591-0.2499-0.4258-0.5998c-0.0884-0.4605,0.2184-1.0742,0.2317-1.1l0.0201-0.0247
				c0.014-0.0111,1.3893-1.1025,1.5422-2.0117l0.0115-0.0687l0.0691,0.0068c0.8809,0.0838,1.4105-0.5829,1.727-0.9818
				c0.0498-0.063,0.0949-0.1199,0.1354-0.1665l0.1149,0.0945c-0.6266,0.8032-0.6782,2.4449,0.1257,3.088l0.0251,0.0201
				l0.0025,0.0322c0.0763,0.9808,0.9371,3.0246,1.5744,3.2051c0.8619,0.2446,3.7286,0.8934,4.853,0.7122l0.0974-0.0158
				l-0.0118,0.0977c-0.1762,1.4953,0.6986,2.9512,2.6007,4.3277l0.0329,0.024l-0.0025,0.0408
				c-0.0104,0.1704-0.0086,0.352,0.1311,0.5371c0.116,0.1522,0.6739,0.1923,0.7785,0.1382L82.9207,80.8967z"/>
		</g>
		<g>
			<path class="st2" d="M70.1646,64.8047c0.3219-0.7869,1.4843-0.7143,1.4843-0.7143s0.4158-1.0941,1.9822-0.4415
				c0.5896-0.4554,2.1413,0.198,2.1413,0.198s0.5823-0.7751,1.3442-0.6864c1.4117,0.1643,1.6463,1.4586,1.5591,1.6815
				c-0.7722,0.1951-2.1113-0.6277-3.1284-0.3945c-0.594,0.3359-1.5569,0.6908-1.9162,1.1748
				C72.6895,65.7206,71.6841,64.7555,70.1646,64.8047z M73.1053,66.1107c0.352-0.2163,1.2166-0.5962,1.804-0.132
				c0.6153,0.6629,1.5591,1.2782,1.5591,1.2782l1.0707,0.451l0.4891,0.3007l-0.3197,4.9038
				c-0.9915-1.0142-1.9206-1.1924-2.6305-2.3863c-0.3806-0.5119-0.0895-1.7424-0.7517-2.5557
				C73.6641,67.1579,72.9593,66.6087,73.1053,66.1107z"/>
			<path d="M77.7716,73.0835l-0.1167-0.1192c-0.3953-0.4046-0.7788-0.6728-1.1498-0.9328c-0.545-0.3813-1.0599-0.7419-1.4914-1.4674
				c-0.1712-0.2295-0.2109-0.5851-0.2571-0.9965c-0.0584-0.5171-0.1243-1.1029-0.4881-1.5501
				c-0.1704-0.2088-0.3405-0.3971-0.5049-0.579c-0.4748-0.5253-0.8497-0.9399-0.7298-1.3485l0.0079-0.0276l0.0243-0.015
				c0.1178-0.0723,1.1741-0.6925,1.8892-0.1271c0.6102,0.6563,1.544,1.2683,1.5537,1.2744l1.0588,0.4444l0.5375,0.3298
				l-0.0032,0.0448L77.7716,73.0835z M73.1697,66.1588c-0.0702,0.323,0.2732,0.7029,0.7043,1.1798
				c0.1658,0.1833,0.3373,0.3731,0.5099,0.5851c0.3917,0.4809,0.4601,1.09,0.5206,1.6271c0.0437,0.3903,0.0816,0.7272,0.2331,0.931
				c0.4193,0.7043,0.9213,1.0556,1.4527,1.428c0.3402,0.2381,0.6907,0.4834,1.0542,0.8343l0.3062-4.6958l-0.4508-0.2771
				l-1.0606-0.4454c-0.0211-0.0125-0.9704-0.6341-1.5845-1.2966C74.2618,65.5619,73.3591,66.0478,73.1697,66.1588z M73.492,65.704
				c-0.4021,0-0.8082-0.1633-1.2704-0.3491c-0.5586-0.2245-1.1884-0.4777-1.9451-0.4777c-0.0362,0-0.0727,0.0004-0.1092,0.0018
				l-0.1149,0.0036l0.0437-0.1064c0.3022-0.7383,1.2733-0.7598,1.5057-0.762c0.0562-0.1128,0.2234-0.3881,0.5801-0.5418
				c0.3896-0.1683,0.8741-0.1368,1.4395,0.092c0.5783-0.3874,1.8498,0.0824,2.128,0.1926c0.1418-0.1708,0.6846-0.7527,1.3761-0.6703
				c0.7845,0.0913,1.1931,0.5156,1.3976,0.8554c0.231,0.3842,0.2775,0.7853,0.2224,0.9271l-0.014,0.0355l-0.0372,0.0097
				c-0.3828,0.0963-0.8841-0.0405-1.4144-0.1858c-0.5837-0.1597-1.1859-0.3248-1.7055-0.2109
				c-0.1633,0.092-0.3509,0.1837-0.5489,0.2811c-0.5085,0.2492-1.085,0.5317-1.3342,0.868l-0.0197,0.0261l-0.0322,0.0036
				C73.5901,65.7015,73.541,65.704,73.492,65.704z M70.2847,64.7283c0.7813,0.0014,1.4226,0.2596,1.9923,0.4884
				c0.4877,0.1962,0.9109,0.3677,1.3152,0.3344c0.2793-0.3527,0.8565-0.6356,1.3675-0.8859
				c0.2002-0.0981,0.3892-0.1908,0.5511-0.2825l0.0201-0.0079c0.555-0.1275,1.1824,0.044,1.7879,0.2102
				c0.4898,0.1343,0.9521,0.2632,1.2959,0.1944c0.015-0.1192-0.0218-0.4318-0.2191-0.7602
				c-0.1873-0.3115-0.5629-0.7004-1.2873-0.7849c-0.7097-0.0781-1.2704,0.6499-1.2762,0.6574l-0.0347,0.0462l-0.0537-0.0222
				c-0.0154-0.0068-1.52-0.6316-2.0668-0.208l-0.034,0.0265l-0.0401-0.0165c-0.5432-0.2267-1.0012-0.2632-1.3589-0.1099
				c-0.3889,0.1661-0.5239,0.506-0.5253,0.5092l-0.0197,0.0508l-0.0544-0.0032C71.6357,64.1654,70.6399,64.1117,70.2847,64.7283z"/>
		</g>
		<g>
			<path class="st2" d="M75.68,67.5268c0,0,0.561-0.1063,0.7172,0.0264c0.1965,0.066,0.3857,0.1232,0.4385,0.2926
				c0.2127,0.0631,0.3593,0.1723,0.3593,0.3322c0.1987,0.0528,0.2787,0.4114,0.2787,0.4114l-0.1863,0.2787
				c0,0-0.2127-0.1987-0.2391-0.4107c-0.1342-0.0667-0.4319-0.1371-0.5045-0.3329c-0.2325-0.0227-0.3821-0.143-0.4253-0.3447
				C75.9022,67.8289,75.68,67.5268,75.68,67.5268z"/>
			<path d="M77.3008,68.9822l-0.0641-0.0598c-0.0089-0.0082-0.2066-0.1952-0.255-0.4139c-0.0211-0.009-0.0448-0.0183-0.0698-0.0279
				c-0.1432-0.0569-0.3355-0.1328-0.4186-0.2872c-0.2177-0.0333-0.3674-0.1497-0.43-0.3337
				c-0.2267-0.0039-0.4197-0.2567-0.4429-0.2886l-0.0702-0.0952l0.116-0.0218c0.0974-0.0186,0.5815-0.1017,0.767,0.0326
				l0.0129,0.0043c0.183,0.0616,0.372,0.1253,0.4465,0.2947c0.2181,0.0727,0.348,0.1916,0.3728,0.3398
				c0.1973,0.0967,0.2725,0.4096,0.2811,0.448l0.0068,0.0312L77.3008,68.9822z M76.1754,67.6906l0.0158,0.0734
				c0.0365,0.1701,0.1579,0.2664,0.3599,0.2865l0.0465,0.0047l0.0161,0.0437c0.0451,0.1214,0.2231,0.1916,0.3531,0.2431
				c0.0437,0.0172,0.0834,0.0329,0.1146,0.0487l0.0358,0.0175l0.005,0.0397c0.014,0.1099,0.0927,0.2259,0.1558,0.3008l0.1157-0.173
				c-0.0279-0.0992-0.1046-0.2958-0.2177-0.3258l-0.0551-0.0147v-0.0573c0-0.1404-0.1665-0.2191-0.3062-0.261l-0.0383-0.0111
				l-0.0118-0.038c-0.039-0.126-0.1905-0.1769-0.366-0.236L76.3494,67.61c-0.0727-0.0616-0.3176-0.0576-0.5231-0.0308
				c0.0766,0.0741,0.1837,0.1497,0.2757,0.1278L76.1754,67.6906z"/>
		</g>
		<g>
			<path class="st2" d="M80.432,64.3258c-0.3197-0.3571-0.8829-0.0939-0.8829-0.0939l-1.5033,2.5931l-0.6578,0.5449l-0.0565,2.0291
				l0.5449,1.8971l-0.1877,1.4659c0,0,0.7568-0.7106,0.8455-1.1088c0.0851-0.3806-0.2816-1.6155-0.2816-1.6155
				s-0.451-0.77,0.0939-2.1985c0.5449-1.4278,1.7849-2.6114,2.0856-3.5127L80.432,64.3258z"/>
			<path d="M77.5883,72.9582l0.212-1.6564l-0.5436-1.8935l0.0576-2.0743l0.6735-0.5575l1.5086-2.6021l0.0211-0.0097
				c0.0251-0.0115,0.6177-0.2825,0.97,0.1114l0.019,0.0215l-0.0039,0.0526c-0.1418,0.4247-0.4752,0.8941-0.8612,1.4377
				c-0.4379,0.6166-0.9346,1.3152-1.2257,2.0779c-0.5235,1.3729-0.1031,2.1273-0.0988,2.1345
				c0.0222,0.0677,0.3781,1.2744,0.2897,1.6693c-0.0924,0.4157-0.8357,1.1172-0.8673,1.1469L77.5883,72.9582z M77.4064,69.3897
				l0.5457,1.9007l-0.0022,0.015l-0.1601,1.2518c0.2213-0.2259,0.6127-0.6549,0.6714-0.9199c0.0666-0.2968-0.1798-1.24-0.28-1.5784
				c-0.0122-0.0161-0.4558-0.8007,0.0956-2.2462c0.2979-0.7802,0.7999-1.4874,1.2432-2.1112
				c0.366-0.5153,0.6839-0.9629,0.8268-1.3564c-0.2503-0.2327-0.651-0.0924-0.7459-0.0544l-1.5079,2.5917l-0.632,0.5231
				L77.4064,69.3897z"/>
		</g>
		<g>
			<path class="st2" d="M84.1427,66.6365c0,0-2.3467,3.3535-6.1893,4.5467c-1.0611,0.2537-0.6761-2.4801-0.6761-2.4801
				l-0.2633,0.0755c0,0-0.5918,2.6767,0.8265,2.706c3.8617-0.7612,6.7584-4.8261,6.7584-4.8261l-0.462-0.0205L84.1427,66.6365z
				 M85.734,85.9173c0,0-0.3571,0.2633-0.8265,0c-0.2442-0.5639-0.902-0.6013-0.902-0.6013s-0.4239-1.2173-1.0897-0.8639
				c-0.1034-0.6299-0.8265-0.3007-0.8265-0.3007s-0.0191-0.9115-0.8646-0.7891c0.2816-1.0435-1.1653-0.9775-1.1653-0.9775
				s-0.0469-1.1741-2.1795-0.9387c4.5943-2.0577,8.2295,3.2311,8.2295,3.2311 M87.912,86.3647c0,0,1.0619,1.1931,1.6155,1.2027
				c0.5544,0.0095,0.6013-1.1653,0.6013-1.1653s0.1789,0.5075,0.451,0.3762c-0.0279,0.3564,0.3381,0.451,0.3381,0.451
				s-0.9577,2.2264-3.6821,0.1122 M79.6033,86.8193l-0.3755,1.54c0,0-0.4796,0.4327-0.3388,0.5265
				c0.1415,0.0939,0.902-0.1503,0.902-0.1503s1.1836-0.1408,1.5407-0.4884c0.2442,0.5544,0.7891,0.6013,0.7891,0.6013
				s0.0374-0.2347-0.0374-0.3755c0.2633,0.0469,0.4884-0.0381,0.4884-0.0381s0.1503-0.4319-0.1877-0.6013
				c0.0374-0.319,0.1973-0.6013-0.3755-0.5632c-0.4231,0.451-1.4659,0.968-1.7292,0.7891c-0.2625-0.1782,1.034-0.7517,0.6769-1.5033
				"/>
			<path d="M79.0059,88.9805c-0.0677,0-0.1232-0.0097-0.1579-0.0326c-0.0347-0.0233-0.0559-0.0594-0.0587-0.1017
				c-0.0115-0.1579,0.2621-0.4261,0.3717-0.5267l0.3699-1.5179l0.1447,0.0351l-0.3806,1.5623l-0.0172,0.0154
				c-0.1833,0.1658-0.3455,0.3663-0.3402,0.4211c0.0584,0.0286,0.4411-0.0458,0.8307-0.1708
				c0.0258-0.0043,1.1766-0.1447,1.5118-0.4709l0.077-0.0748l0.043,0.0981c0.1722,0.391,0.507,0.5099,0.6546,0.5443
				c0.0039-0.0773-0.0004-0.1848-0.0369-0.2532l-0.0716-0.1354l0.1504,0.0269c0.1812,0.0329,0.3466-0.0036,0.415-0.0236
				c0.0243-0.096,0.0677-0.3617-0.1608-0.4759l-0.0469-0.0233l0.0064-0.0519c0.0061-0.053,0.0154-0.1046,0.0247-0.1543
				c0.0218-0.121,0.0412-0.2259-0.0018-0.2739c-0.0272-0.0304-0.0963-0.0616-0.2911-0.0537
				c-0.4236,0.4325-1.491,0.9904-1.8043,0.7781c-0.0508-0.0344-0.0648-0.0781-0.0673-0.1089
				c-0.0097-0.1085,0.0995-0.2152,0.265-0.3767c0.2746-0.2678,0.6503-0.6341,0.4537-1.0477l0.1346-0.0637
				c0.2421,0.5095-0.1952,0.936-0.4841,1.2178c-0.0935,0.0913-0.2209,0.2159-0.2209,0.2575
				c0.2138,0.1443,1.2214-0.3377,1.6357-0.7799l0.0201-0.0215l0.0294-0.0018c0.2274-0.0161,0.3638,0.0158,0.4404,0.1013
				c0.0913,0.1024,0.0652,0.2471,0.0372,0.4c-0.0057,0.0312-0.0118,0.0634-0.0168,0.0963c0.2635,0.1687,0.2342,0.5038,0.1776,0.6653
				l-0.0115,0.0329l-0.0322,0.0122c-0.0086,0.0036-0.1801,0.0709-0.4075,0.0559c0.0276,0.1368,0.0064,0.2797,0.0032,0.3001
				l-0.0107,0.0684l-0.0691-0.0061c-0.0226-0.0018-0.5339-0.0519-0.8078-0.5579c-0.4329,0.314-1.4602,0.4394-1.5064,0.4447
				C79.6254,88.8667,79.2412,88.9805,79.0059,88.9805z M89.3421,88.3278c-0.6356,0-1.3567-0.3105-2.1517-0.9274l0.091-0.1174
				c0.9518,0.738,1.785,1.0209,2.4736,0.8451c0.6266-0.1608,0.9561-0.6696,1.0588-0.8576
				c-0.1278-0.0587-0.2825-0.1848-0.3065-0.3967c-0.0412,0.0032-0.0813-0.0043-0.1203-0.0201
				c-0.0859-0.0354-0.1558-0.1117-0.2088-0.1901c-0.0516,0.3656-0.2073,0.9915-0.652,0.9783
				c-0.5794-0.0097-1.6256-1.1777-1.6697-1.2275l0.111-0.0988c0.2897,0.3251,1.1344,1.1702,1.5612,1.1773
				c0.0018,0,0.0036,0,0.0054,0c0.3903,0,0.5081-0.7885,0.5203-1.0936l0.1447-0.0218c0.0276,0.0773,0.125,0.2893,0.2449,0.3384
				c0.0351,0.0147,0.0677,0.0129,0.1038-0.0043l0.1164-0.0562l-0.01,0.1289c-0.0226,0.2882,0.2703,0.3699,0.2829,0.3731
				l0.0831,0.0222l-0.0337,0.0791c-0.014,0.0326-0.3513,0.7963-1.1924,1.013C89.6486,88.3092,89.4978,88.3278,89.3421,88.3278z
				 M85.3309,86.1095c-0.1332,0-0.2897-0.0319-0.4598-0.1275l-0.0218-0.0122l-0.01-0.0229
				c-0.2224-0.5138-0.8318-0.5561-0.8379-0.5564l-0.0494-0.0032l-0.0165-0.0469c-0.0025-0.0068-0.2478-0.6986-0.6345-0.8501
				c-0.1149-0.0448-0.2295-0.0358-0.3506,0.0276l-0.0913,0.0483l-0.0168-0.1021c-0.0229-0.1404-0.0791-0.2324-0.1712-0.2818
				c-0.2131-0.1146-0.5471,0.0351-0.5511,0.0369l-0.1024,0.0465l-0.0029-0.1124c0-0.0039-0.0122-0.3935-0.2557-0.5994
				c-0.13-0.1099-0.3087-0.1507-0.5235-0.1178l-0.1121,0.0161l0.0294-0.1092c0.0627-0.2324,0.0372-0.4218-0.0759-0.5625
				c-0.2811-0.3502-1.0076-0.3198-1.0144-0.3212l-0.0738,0.0032l-0.0039-0.0745c-0.0004-0.0118-0.0175-0.2965-0.3072-0.5435
				c-0.3552-0.3019-0.9743-0.415-1.7893-0.3241l-0.0387-0.1422c4.5969-2.06,8.2847,3.2033,8.3209,3.2567l-0.1225,0.0845
				c-0.0354-0.0512-3.4257-4.8834-7.7039-3.3784c0.637-0.0072,1.1165,0.121,1.4341,0.3939
				c0.2489,0.2141,0.3237,0.4562,0.3459,0.5743c0.2023,0.0011,0.7935,0.0347,1.0692,0.3781
				c0.126,0.1572,0.1687,0.3556,0.1268,0.5908c0.2163-0.0129,0.3946,0.0433,0.5357,0.1626c0.212,0.1794,0.2779,0.4573,0.2986,0.6066
				c0.1357-0.0444,0.3885-0.1021,0.5862,0.0036c0.111,0.0591,0.1873,0.1583,0.2277,0.2961
				c0.1289-0.0466,0.2592-0.0455,0.3874,0.0047c0.3914,0.1536,0.6388,0.7276,0.7036,0.8948
				c0.1626,0.0208,0.6778,0.1246,0.9059,0.6173c0.4078,0.2166,0.7118,0.0029,0.7247-0.0068l0.0881,0.1199
				C85.7674,85.9849,85.5941,86.1095,85.3309,86.1095z M77.8547,71.5578c-0.3094-0.0047-0.545-0.1178-0.7151-0.3344
				c-0.5729-0.7287-0.2138-2.3905-0.1984-2.461l0.0097-0.0433l0.4157-0.1189l-0.0158,0.1135
				c-0.0029,0.0186-0.2571,1.8724,0.237,2.3217c0.0931,0.0841,0.2052,0.1092,0.348,0.0756c3.7701-1.1709,6.1227-4.4838,6.146-4.5171
				l0.0433,0.0301l-0.0057-0.0584l0.1901-0.0448l-0.0329,0.0491l0.4619,0.0204l-0.0795,0.1117
				C84.6302,66.7428,81.7011,70.7994,77.8547,71.5578z M77.0777,68.8375c-0.0523,0.2653-0.3022,1.6819,0.179,2.2938
				c0.1432,0.1826,0.3348,0.2739,0.5851,0.2789c3.416-0.675,6.1134-4.0272,6.6133-4.6836l-0.2768-0.0125
				c-0.2661,0.3631-2.5914,3.4189-6.2029,4.5404c-0.1959,0.0462-0.3574,0.0093-0.4877-0.1088
				c-0.4809-0.4376-0.348-1.9146-0.2986-2.34L77.0777,68.8375z"/>
		</g>
	</g>
</g>
</svg>
