<?xml version="1.0" encoding="utf-8"?>
<!-- Generator: Adobe Illustrator 27.7.0, SVG Export Plug-In . SVG Version: 6.00 Build 0)  -->
<!DOCTYPE svg PUBLIC "-//W3C//DTD SVG 1.1//EN" "http://www.w3.org/Graphics/SVG/1.1/DTD/svg11.dtd" [
	<!ENTITY ns_extend "http://ns.adobe.com/Extensibility/1.0/">
	<!ENTITY ns_ai "http://ns.adobe.com/AdobeIllustrator/10.0/">
	<!ENTITY ns_graphs "http://ns.adobe.com/Graphs/1.0/">
	<!ENTITY ns_vars "http://ns.adobe.com/Variables/1.0/">
	<!ENTITY ns_imrep "http://ns.adobe.com/ImageReplacement/1.0/">
	<!ENTITY ns_sfw "http://ns.adobe.com/SaveForWeb/1.0/">
	<!ENTITY ns_custom "http://ns.adobe.com/GenericCustomNamespace/1.0/">
	<!ENTITY ns_adobe_xpath "http://ns.adobe.com/XPath/1.0/">
]>
<svg version="1.1" id="Layer_1" xmlns:x="&ns_extend;" xmlns:i="&ns_ai;" xmlns:graph="&ns_graphs;"
	 xmlns="http://www.w3.org/2000/svg" xmlns:xlink="http://www.w3.org/1999/xlink" x="0px" y="0px" width="660px" height="440px"
	 viewBox="0 0 660 440" style="enable-background:new 0 0 660 440;" xml:space="preserve">
<style type="text/css">
	.st0{fill:#C8102E;}
	.st1{fill:#FFD100;}
	.st2{fill:#003DA5;}
	.st3{fill:#AD7C59;}
	.st4{fill:#007749;}
</style>
<metadata>
	<sfw  xmlns="&ns_sfw;">
		<slices></slices>
		<sliceSourceBounds  bottomLeftOrigin="true" height="440" width="660" x="0" y="0"></sliceSourceBounds>
	</sfw>
</metadata>
<g>
	<path class="st0" d="M0,0h660v440H0V0z"/>
	<path class="st1" d="M0,0h440v440H0V0z"/>
	<path class="st2" d="M0,0h220v440H0V0z"/>
	<path d="M310.8197,122.188c-1.1818,0-2.214,0.3014-2.816,0.77c0.9566,0.2787,1.6522,1.1609,1.6522,2.2337v2.7218h-2.7214
		c-1.0659,0-1.9489-0.6857-2.2341-1.6331c-0.4686,0.6021-0.7696,1.6342-0.7696,2.8156c0,1.1818,0.301,2.2143,0.7696,2.8156
		c0.2791-0.957,1.1609-1.6522,2.2341-1.6522h2.7214v13.083c0,1.0285-0.6431,1.8817-1.5392,2.196
		c1.2984,0.1767,2.4156,1.9191,2.7217,2.8721c0.3069-0.9508,1.4241-2.6954,2.7221-2.8721c-0.938-0.3202-1.5659-1.2048-1.5587-2.196
		v-13.0838h2.7221c1.0663,0,1.9488,0.6857,2.2341,1.6339c0.4682-0.6021,0.7693-1.635,0.7693-2.816
		c0-1.1818-0.3007-2.2139-0.7693-2.8156c-0.279,0.9566-1.1612,1.6515-2.2341,1.6515h-2.7221v-2.7214
		c0-1.0663,0.6853-1.9488,1.6335-2.2341c-0.6013-0.4679-1.6342-0.7693-2.8156-0.7693V122.188z"/>
	<path class="st1" d="M310.8197,122.7527c-0.6153,0-1.1572,0.1151-1.6141,0.2625c0.6101,0.5306,1.0139,1.2995,1.0139,2.1776v2.7218
		c0,0.0389-0.0114,0.0759-0.0191,0.1129v0.4316h-0.4319c-0.0367,0.0077-0.0741,0.0187-0.1126,0.0191h-2.7221
		c-0.8679,0-1.6277-0.3971-2.1582-0.9948c-0.1525,0.4616-0.2816,0.9889-0.2816,1.6144c0,0.6153,0.1151,1.1572,0.2625,1.6141
		c0.5305-0.6101,1.2991-1.0131,2.1772-1.0131h3.285c-0.0037,0.0565-0.0191,0.1111-0.0191,0.1683v0.2816
		c0.0077,0.0367,0.0187,0.0737,0.0191,0.1126v13.083c0,0.8496-0.4382,1.5176-1.0139,2.046c0.4053,0.2527,0.7668,0.5699,1.0699,0.939
		c0.2702,0.3245,0.3777,0.642,0.5632,0.9757c0.1859-0.3329,0.293-0.6512,0.5632-0.9757c0.2993-0.3605,0.6542-0.6711,1.0512-0.92
		c-0.5808-0.5269-1.0138-1.2118-1.0138-2.0647v-13.6283h0.4506c0.0367-0.0073,0.0737-0.0183,0.1126-0.0183h2.7217
		c0.8676,0,1.6273,0.3971,2.1582,0.9944c0.1522-0.4613,0.282-0.9882,0.282-1.6141c0-0.6149-0.1155-1.1572-0.2629-1.6141
		c-0.5306,0.6101-1.2991,1.0131-2.1773,1.0131h-2.7217c-0.0385,0-0.0759-0.0114-0.1126-0.0191h-0.4319v-0.4316
		c-0.0077-0.0363-0.0187-0.0737-0.0191-0.1129v-2.7214c0-0.8679,0.3975-1.6273,0.9948-2.1586
		c-0.4616-0.1518-0.9885-0.2816-1.6141-0.2816"/>
	<path d="M344.89,170.1286c-1.6628-1.181-3.028-2.5161-3.9981-4.0737c-2.3364-3.7484-3.3224-8.3501-3.3224-13.0266
		c0-1.9767,2.2147-4.202,2.2147-5.8007c0-2.4163-0.2252-3.8661-0.2252-3.8661c0.7858,0.1071,2.1586,1.5015,2.1586,1.5015
		s-0.0473-4.0106-1.3145-4.7113c0,0,0.5126-0.5273,2.3654-0.5819c-0.5207-1.3185-3.0969-2.9282-3.0969-2.9282
		c0.1287-0.2306,0.3667-0.4301,0.6754-0.6006c0.6472-0.3579,1.5565-0.594,2.2521-0.7322c-0.7414-0.1536-1.5957-0.389-2.5336-0.6948
		c-2.1421-0.6978-4.6636-1.7222-7.0202-2.8527c-4.3017-2.0636-7.5786-2.1963-9.3852-2.1963
		c-1.3108,0.0004-3.2413,0.0363-4.3732,0.7891c-1.0358,0.6875-0.9515,1.5818-1.3141,1.8957
		c-0.8543,0.7392-2.3177,0.7132-3.0224,0.7132c-4.5613,0-4.7304,4.8807-4.7304,4.8807s1.1664-1.7648,3.2285-1.7648
		c3.4287,0,6.0254,1.8678,6.0254,2.5714c0,0.2849-0.3535,0.3377-0.3751,0.3377c-2.2396,0-5.6195-1.2892-7.4151-1.3515v0.8822
		c4.0081,1.3944,8.0714,3.3686,8.0714,12.0696c0,5.4791-0.656,11.0697-3.3972,15.4671c-0.9709,1.5572-2.3533,2.8897-4.0168,4.0737
		l16.2745,2.9333L344.89,170.1286z"/>
	<g id="a">
		<path d="M328.6147,166.4623l-16.2737,3.6667c-0.7403-0.2237-4.2214-1.3053-6.6638-2.6653
			c-4.2995-2.3951-6.5288-4.7777-11.638-5.012v-3.8859c0-2.0761,0.7513-3.9464,0.7513-5.9316
			c-2.1538-0.5775-8.1319-7.887-13.6466-11.1313c-8.1143,5.2558-14.3972,13.8838-14.3972,17.8515c0,0,0.2438,85.2537,0,114.9537
			c0,1.7116-1.0322,4.1298-1.0322,4.1298c2.9623-1.2533,8.3923-8.6826,9.5356-11.5067v1.3519
			c4.4737-2.0402,7.7495-7.4008,9.2165-10.1739c0.026,0.4012,0.0942,1.4077,0.0942,1.4077
			c3.9967-3.5035,9.0845-24.2139,9.0845-24.2139l8.4788,8.3325c0,0-3.0664,6.2245-4.261,7.3388c0,0,0.8008,0.1016,1.7079,0.0939
			c-0.558,0.8023-4.8206,6.9392-6.1567,9.2539c-1.2503,2.1655-2.1325,1.2016-4.0546,1.2016c-1.5939,0-5.2067,2.5392-5.7999,3.5666
			c-0.6237,1.0798-1.0883,2.3918-1.0883,3.4727c0,1.188,1.2577,2.816,1.2577,2.816c0.1353-0.5691,0.3751-0.77,0.3751-0.77
			s3.3048,4.1169,3.7917,4.6548c0.3792,0.4191,2.0699,0.6915,2.6657,0.1507c1.4909-1.3556,2.9341-2.3034,4.261-4.2607
			c0.6831-1.0091,0.7352-2.1652,1.5202-3.2483c2.6261-3.6227,7.8522-10.5596,9.0475-12.144
			c0.0799,0.4411,0.1485,0.8085,0.2244,1.2577c1.3545-2.7346,7.8654-7.9592,7.8654-7.9592l6.8119,3.135
			c0,0-12.7186,29.2362-24.0078,33.7315c0,0,4.9115,2.0867,10.9431,5.2184c0.9055,0.4735,1.8065,0.9554,2.7031,1.4457
			c0.8073-0.9748,1.5896-1.97,2.3463-2.9846c3.6065-4.8253,7.1335-10.4181,7.1335-10.4181
			c0.2457,1.4524-1.6588,5.9378-4.8803,11.4697c-0.6336,1.0868-1.2943,2.2235-2.0273,3.3781
			c0.8189,0.4663,1.6323,0.942,2.4402,1.4271c5.9748,3.5952,11.5859,7.7283,13.6646,11.5251l1.4666-3.67l-1.4666-3.67V171.3301
			l0.7333-1.8333L328.6147,166.4623z"/>
		<g>
			<path class="st3" d="M328.6074,299.6477c-2.108-2.2865-6.5153-5.0802-11.4686-7.6582
				c5.9891-10.7492,8.9569-27.7401,7.5643-31.1227c0,0-2.4585,8.8121-5.4626,13.834c-2.7815,4.6508-6.2058,9.8817-9.5164,13.7595
				c-2.7236-1.162-5.3647-2.1369-7.6212-2.816c9.9213-7.6425,20.0662-32.9054,20.0662-32.9054l-10.4911-4.862
				c0,0-3.9248,4.5756-5.1993,5.4252c0,0-0.5445-2.2755-0.8635-3.0785c0,0-1.5037,1.1374-2.3269,1.1645
				c0,0-0.246-1.5444-0.4319-2.5535c-1.0359,0.6904-2.7592,0.5445-2.7592,0.5445c1.5132-0.7165,3.3037-5.1058,3.3037-5.1058
				l-10.0181-13.3258c0,0-3.5189,16.9092-7.5269,20.3852v-72.8127l3.1724,2.9465l4.8051-4.4862v-3.4162l-4.261,3.9791v-10.3052
				c0.4919-0.739,0.9553-1.4966,1.3889-2.2711c0.6897,1.2023,2.9187,4.8873,5.537,7.1518c0.4308-1.7519,3.2663-3.4166,3.2663-3.4166
				s1.016,2.7529,2.5711,3.4349c0.5471-0.9636,3.8111-3.0969,3.8111-3.0969s-2.7925,0.4242-3.9233,1.4832
				c-0.9713-0.2174-1.2203-4.0546-1.2203-4.0546s-4.1092,2.0016-4.8239,3.4349c-0.7836-0.2119-2.0035-3.2956-2.4783-4.5613
				c1.016-0.1132,2.0375-0.1696,3.0598-0.1687c1.1719,0,2.6712,0.5551,4.242,1.2951c1.7259,0.8125,3.5314,1.8414,5.1436,2.5718
				c2.0651,0.935,5.1895,1.1249,6.1003,1.1638c-1.0432,0.7333-2.1901,1.4029-3.4346,2.0273c0,0,4.9174-0.0455,8.3717-1.7648
				c1.2324-0.7927,2.5113-1.5825,3.604-2.5153c-0.4741,1.3174-1.2122,2.8743-2.3658,4.2046
				c5.0732-0.4294,7.5995-3.3264,8.3156-4.2984c0.3366,0.8708,0.9361,2.2686,1.877,3.4723h1.8333v124.6667L328.6074,299.6477z
				 M291.2239,153.0093l0.0935,2.3276v6.8519c-1.8403-0.6332-4.1529-3.6568-5.2741-5.2558v-0.9387
				c0-0.8829,0.5196-1.5279,0.9009-1.877l-1.1074-0.3938c-0.4224,0.4814-0.8822,1.1964-0.8822,2.1208v0.5445l-3.3033,3.5479
				l-3.2472-4.9181v-1.2012c0-0.8096,0.6226-1.7123,1.1451-2.3276l-1.089-0.3942c-0.5497,0.7121-1.1264,1.6716-1.1264,2.5714v0.9757
				c-1.2441,1.2837-2.4893,2.5666-3.7352,3.8485l-1.8957-4.0733c2.2752-3.1515,5.9642-6.6803,9.4413-9.2125
				C281.1442,145.2055,288.6844,152.1285,291.2239,153.0093z M272.1133,159.6544v5.6507l-2.6279,2.4398v-8.3904
				c0-0.8034,0.3366-1.7714,0.9005-2.8347L272.1133,159.6544z"/>
			<path class="st3" d="M280.2972,161.8316v3.4914l-3.0217,2.8347v-10.9245L280.2972,161.8316z M276.2049,168.139l-3.0224-2.8156
				v-4.0916l3.0224-3.1724V168.139z M290.0014,163.8967c-0.7018,0.9918-2.5399,3.4177-4.5236,4.4865v-9.592
				C285.9329,159.548,288.0204,162.925,290.0014,163.8967z M284.4072,159.2789v8.8598l-3.0224-2.8156v-3.1346L284.4072,159.2789z
				 M272.1129,168.7206v8.8414l-2.6279-2.4592v-3.9233L272.1129,168.7206z M276.2027,171.5553v3.172l-3.0228,2.8153v-8.8033
				L276.2027,171.5553z M280.2939,168.74v8.8037l-3.0217-2.8347v-3.1346L280.2939,168.74z M284.4054,171.5743v3.1346l-3.0224,2.8343
				v-8.8037L284.4054,171.5743z M288.497,177.562l-3.0228-2.8347v-2.9465c1.0424-0.6362,2.0908-1.8055,3.0224-3.0408
				L288.497,177.562z M280.8392,181.4663l3.1911-2.966v72.831c0,0,0.2226,3.6139,0.3755,5.969l-6.7573,6.8325v-85.6519
				L280.8392,181.4663z M275.8261,261.4113c0,2.3412-4.275,7.8001-6.3445,9.0475v-91.938l3.1534,2.9465l3.1911-2.9663V261.4113z"/>
		</g>
		<g>
			<path class="st0" d="M302.3295,253.5089l2.3276-1.5957c0,0,0.1551,0.77,0.3564,1.8212
				c-0.9966,1.3625-6.7214,9.1754-9.5542,12.9892c-0.7044,0.9474-1.2958,3.3598-1.2958,3.3598s-1.0318-0.488-1.0318-1.3699
				c0-0.8661,0.1129-1.8961,0.1129-1.8961s-0.7704,0.8822-2.1028,0.8822c0-1.0644,2.0585-2.2191,2.1399-3.7349
				c-1.5697,1.1638-2.933,0.5665-4.7487,1.1264c-1.9774,0.609-2.5282,1.4399-3.1346,1.408
				c-0.3571-0.0194-0.6805-0.6354-0.5441-1.0138c0.2361-0.6552,2.6818-2.4688,4.3915-2.7966
				c0.4096-0.0785,3.6311,0.701,4.2801-0.3003c2.6737-4.1257,7.0143-10.8233,7.4331-11.4686
				c0.2757-0.066,0.5294-0.136,0.7315-0.2636C301.6903,250.6563,301.6658,252.765,302.3295,253.5089L302.3295,253.5089z"/>
			<path class="st0" d="M0,0"/>
		</g>
	</g>
	<g transform="matrix(-1 0 0 1 1792.4 0)">
		<g id="a_00000080187959782370216260000002684054138160602775_">
			<path d="M328.5986,166.4623l16.2738,3.6667c0.7403-0.2237,4.2214-1.3053,6.6638-2.6653c4.2995-2.3951,6.5288-4.7777,11.638-5.012
				v-3.8859c0-2.0761-0.7513-3.9464-0.7513-5.9316c2.1538-0.5775,8.1319-7.887,13.6466-11.1313
				c8.1143,5.2558,14.3972,13.8838,14.3972,17.8515c0,0-0.2438,85.2537,0,114.9537c0,1.7116,1.0322,4.1298,1.0322,4.1298
				c-2.9623-1.2533-8.3922-8.6826-9.5355-11.5067v1.3519c-4.4737-2.0402-7.7495-7.4008-9.2165-10.1739
				c-0.026,0.4012-0.0942,1.4077-0.0942,1.4077c-3.9967-3.5035-9.0845-24.2139-9.0845-24.2139l-8.4788,8.3325
				c0,0,3.0664,6.2245,4.261,7.3388c0,0-0.8008,0.1016-1.7079,0.0939c0.558,0.8023,4.8206,6.9392,6.1567,9.2539
				c1.2503,2.1655,2.1325,1.2016,4.0546,1.2016c1.5939,0,5.2067,2.5392,5.7999,3.5666c0.6237,1.0798,1.0883,2.3918,1.0883,3.4727
				c0,1.188-1.2577,2.816-1.2577,2.816c-0.1353-0.5691-0.3751-0.77-0.3751-0.77s-3.3048,4.1169-3.7917,4.6548
				c-0.3791,0.4191-2.0698,0.6915-2.6656,0.1507c-1.4909-1.3556-2.9341-2.3034-4.261-4.2607
				c-0.6831-1.0091-0.7352-2.1652-1.5202-3.2483c-2.626-3.6227-7.8521-10.5596-9.0475-12.144
				c-0.0799,0.4411-0.1485,0.8085-0.2244,1.2577c-1.3545-2.7346-7.8654-7.9592-7.8654-7.9592l-6.812,3.135
				c0,0,12.7186,29.2362,24.0079,33.7315c0,0-4.9115,2.0867-10.9431,5.2184c-0.9055,0.4735-1.8066,0.9554-2.7031,1.4457
				c-0.8073-0.9748-1.5897-1.97-2.3463-2.9846c-3.6065-4.8253-7.1335-10.4181-7.1335-10.4181
				c-0.2457,1.4524,1.6588,5.9378,4.8803,11.4697c0.6336,1.0868,1.2943,2.2235,2.0273,3.3781
				c-0.8189,0.4663-1.6323,0.942-2.4402,1.4271c-5.9748,3.5952-11.5859,7.7283-13.6646,11.5251l-1.4667-3.67l1.4667-3.67V171.3301
				l-0.7333-1.8333L328.5986,166.4623z"/>
			<g>
				<path class="st3" d="M328.6059,299.6477c2.108-2.2865,6.5153-5.0802,11.4686-7.6582
					c-5.9891-10.7492-8.9569-27.7401-7.5643-31.1227c0,0,2.4585,8.8121,5.4626,13.834c2.7815,4.6508,6.2058,9.8817,9.5164,13.7595
					c2.7236-1.162,5.3647-2.1369,7.6212-2.816c-9.9213-7.6425-20.0662-32.9054-20.0662-32.9054l10.4911-4.862
					c0,0,3.9248,4.5756,5.1993,5.4252c0,0,0.5445-2.2755,0.8635-3.0785c0,0,1.5037,1.1374,2.3269,1.1645
					c0,0,0.246-1.5444,0.4319-2.5535c1.0358,0.6904,2.7592,0.5445,2.7592,0.5445c-1.5132-0.7165-3.3037-5.1058-3.3037-5.1058
					l10.0181-13.3258c0,0,3.5189,16.9092,7.5269,20.3852v-72.8127l-3.1724,2.9465l-4.8051-4.4862v-3.4162l4.261,3.9791v-10.3052
					c-0.4919-0.739-0.9553-1.4966-1.3889-2.2711c-0.6897,1.2023-2.9187,4.8873-5.537,7.1518
					c-0.4308-1.7519-3.2663-3.4166-3.2663-3.4166s-1.016,2.7529-2.5711,3.4349c-0.5471-0.9636-3.8111-3.0969-3.8111-3.0969
					s2.7925,0.4242,3.9233,1.4832c0.9713-0.2174,1.2203-4.0546,1.2203-4.0546s4.1092,2.0016,4.8239,3.4349
					c0.7836-0.2119,2.0035-3.2956,2.4783-4.5613c-1.016-0.1132-2.0375-0.1696-3.0598-0.1687c-1.1719,0-2.6712,0.5551-4.242,1.2951
					c-1.7259,0.8125-3.5313,1.8414-5.1436,2.5718c-2.0651,0.935-5.1895,1.1249-6.1003,1.1638
					c1.0432,0.7333,2.1901,1.4029,3.4346,2.0273c0,0-4.9174-0.0455-8.3717-1.7648c-1.2324-0.7927-2.5113-1.5825-3.6039-2.5153
					c0.4741,1.3174,1.2122,2.8743,2.3657,4.2046c-5.0732-0.4294-7.5995-3.3264-8.3156-4.2984
					c-0.3366,0.8708-0.9361,2.2686-1.877,3.4723h-1.8333v124.6667L328.6059,299.6477z M365.9894,153.0093l-0.0935,2.3276v6.8519
					c1.8403-0.6332,4.1529-3.6568,5.2741-5.2558v-0.9387c0-0.8829-0.5196-1.5279-0.9009-1.877l1.1074-0.3938
					c0.4224,0.4814,0.8822,1.1964,0.8822,2.1208v0.5445l3.3033,3.5479l3.2472-4.9181v-1.2012c0-0.8096-0.6226-1.7123-1.1451-2.3276
					l1.089-0.3942c0.5496,0.7121,1.1264,1.6716,1.1264,2.5714v0.9757c1.2441,1.2837,2.4893,2.5666,3.7352,3.8485l1.8957-4.0733
					c-2.2752-3.1515-5.9642-6.6803-9.4413-9.2125C376.0691,145.2055,368.529,152.1285,365.9894,153.0093z M385.1001,159.6544v5.6507
					l2.6279,2.4398v-8.3904c0-0.8034-0.3366-1.7714-0.9005-2.8347L385.1001,159.6544z"/>
				<path class="st3" d="M376.9161,161.8316v3.4914l3.0217,2.8347v-10.9245L376.9161,161.8316z M381.0085,168.139l3.0224-2.8156
					v-4.0916l-3.0224-3.1724V168.139z M367.2119,163.8967c0.7018,0.9918,2.5399,3.4177,4.5235,4.4865v-9.592
					C371.2804,159.548,369.193,162.925,367.2119,163.8967z M372.8062,159.2789v8.8598l3.0224-2.8156v-3.1346L372.8062,159.2789z
					 M385.1005,168.7206v8.8414l2.6279-2.4592v-3.9233L385.1005,168.7206z M381.0107,171.5553v3.172l3.0228,2.8153v-8.8033
					L381.0107,171.5553z M376.9194,168.74v8.8037l3.0217-2.8347v-3.1346L376.9194,168.74z M372.808,171.5743v3.1346l3.0224,2.8343
					v-8.8037L372.808,171.5743z M368.7163,177.562l3.0228-2.8347v-2.9465c-1.0424-0.6362-2.0907-1.8055-3.0224-3.0408
					L368.7163,177.562z M376.3742,181.4663l-3.1911-2.966v72.831c0,0-0.2226,3.6139-0.3755,5.969l6.7573,6.8325v-85.6519
					L376.3742,181.4663z M381.3872,261.4113c0,2.3412,4.275,7.8001,6.3444,9.0475v-91.938l-3.1533,2.9465l-3.1911-2.9663V261.4113z"
					/>
			</g>
			<g>
				<path class="st0" d="M354.8839,253.5089l-2.3276-1.5957c0,0-0.1551,0.77-0.3564,1.8212
					c0.9966,1.3625,6.7213,9.1754,9.5542,12.9892c0.7044,0.9474,1.2958,3.3598,1.2958,3.3598s1.0318-0.488,1.0318-1.3699
					c0-0.8661-0.1129-1.8961-0.1129-1.8961s0.7704,0.8822,2.1028,0.8822c0-1.0644-2.0585-2.2191-2.1399-3.7349
					c1.5697,1.1638,2.933,0.5665,4.7487,1.1264c1.9774,0.609,2.5282,1.4399,3.1346,1.408c0.3571-0.0194,0.6805-0.6354,0.5441-1.0138
					c-0.2361-0.6552-2.6818-2.4688-4.3916-2.7966c-0.4095-0.0785-3.6311,0.701-4.2801-0.3003
					c-2.6737-4.1257-7.0143-10.8233-7.433-11.4686c-0.2757-0.066-0.5294-0.136-0.7315-0.2636
					C355.523,250.6563,355.5476,252.765,354.8839,253.5089L354.8839,253.5089z"/>
				<path class="st0" d="M657.2133,0"/>
			</g>
		</g>
	</g>
	<path class="st3" d="M324.8425,130.7669c4.2013,0,7.1562,1.9155,11.1317,3.6788c1.0417,0.462,1.9983,0.8364,2.8523,1.126
		c-0.535,0.4741-0.9511,0.9504-1.0699,1.3519c0,0,1.7816,0.33,2.5901,1.8212c0,0-1.694,0.1921-1.9709,1.1821
		c0.9489,0.0715,1.8916,1.2676,1.8961,2.4218l-2.4028-0.7513c0,0,0.5819,2.6979,0.5819,5.6313c0,1.4982-2.1582,3.2611-2.1582,5.8003
		c0,7.9691,2.0075,11.0323,3.4353,13.4959c0.5584,0.964,1.0124,2.0731,1.9521,2.9095c-4.1133-2.1901-7.1705-4.9276-7.1705-7.4705
		v-9.6294h-1.0699v9.6294c0,1.844,0.4503,2.7031,0.4503,2.7031c0.6457,2.0401,1.951,5.1891,2.7596,6.457
		c-3.7844-2.0453-5.7068-4.6064-5.7068-5.5561v-13.2337h-1.0699v13.4211l0.2064,0.9196c-0.4587,0.6893-1.0549,1.5055-1.4641,1.7831
		c-0.4081-0.2772-0.9863-1.0949-1.4458-1.7831l0.2068-0.9196v-13.4211h-1.0699v13.2337c0,0.9493-1.9224,3.5108-5.7064,5.5561
		c0.8085-1.2683,2.1134-4.4169,2.7588-6.457c0,0,0.4506-0.8587,0.4506-2.7031v-9.6294h-1.0699v9.6294
		c0,2.5399-3.0459,5.2818-7.1518,7.4705c0.9302-0.8371,1.3776-1.951,1.933-2.9095c1.5613-2.6943,3.4914-6.1171,3.4914-15.8613
		c0-3.6571-0.5408-6.1435-1.4828-7.8837c-0.2864-0.5742-0.6721-2.1025,1.5202-2.1025c1.1356,0,3.7356,2.0086,3.7356,2.0086
		s-0.1071-1.6027-1.4267-2.5153c-0.2189-0.1514-0.5815-0.6277-0.5815-1.0703c0-0.3315,0.5687-1.1495,1.0131-1.3515
		c0.3055-0.1386-4.4671-0.9702-4.4671-3.1346c0-0.4506,0.2834-0.7509,1.2756-0.7509c1.2998,0,3.4144,1.558,5.2939,1.558
		c1.3893,0,1.9371-0.3381,3.3598-0.3381c1.7387,0,5.3662,3.2923,6.607,3.172c-1.3871-0.8708-3.6278-4.1672-7.0198-4.1672
		c-1.1774,0-2.2429,0.2629-3.3418,0.2629c-1.4084,0-2.7951-1.2954-4.3171-1.2954c-1.0201,0-2.1593,0.0568-2.328-0.2068
		c-0.2952-0.4602-0.0293-0.7271,0.2442-1.1073c0.5166-0.7176,1.9676-0.9258,3.3979-0.9757
		c0.4194-0.0154,0.8391-0.0215,1.2588-0.0183C324.1528,130.7515,324.5227,130.7669,324.8425,130.7669L324.8425,130.7669z"/>
	<path class="st0" d="M311.201,135.9197c0,0,0.887-1.6797,3.1292-1.6797c0.9372,0,4.0304-0.0649,4.0304-0.0649
		c0.4121,1.071,2.2913,2.8607,2.2913,4.7219c0,0-1.9074-3.4382-7.2318-3.4382c-1.338,0-2.2198,0.4605-2.2198,0.4605
		L311.201,135.9197z M319.858,139.5533c0,0-1.1341,1.1946-1.3805,1.8322c-1.1223-0.4253-3.0796-2.4424-3.0796-2.4424
		s1.6592,0.9687,4.4598,0.6101H319.858z"/>
	<path d="M318.0613,136.389c0,0-1.3083-0.4195-1.3083-0.8587c0-0.5595,0.6354-0.5595,1.0153-0.1236
		c0.2614,0.3003,0.2926,0.9827,0.2926,0.9827L318.0613,136.389z"/>
	<ellipse cx="324.163" cy="137.1066" rx="2.7034" ry="2.0519"/>
	<circle class="st1" cx="324.1601" cy="137.1066" r="1.8777"/>
	<circle cx="324.1608" cy="137.1069" r="0.8602"/>
	<path d="M293.8375,272.0491l5.9404,3.2406l-1.441,6.6106l-5.9403-3.2413L293.8375,272.0491z"/>
	<path d="M266.1633,208.5343l-2.1399,0.9764l24.1765,52.954h2.5718L266.1633,208.5343z M294.6761,270.985l-1.7453,1.8022
		l1.0886,2.4028l2.1208-0.9761L294.6761,270.985z"/>
	<path d="M273.6763,250.2867c0,0,2.0365,4.2064,3.5842,4.7832c-0.8004-0.2182-3.3994,0.7355-3.3994,0.7355s4.583,4.0938,8.47,4.3626
		c3.2963,0.227,4.8968-1.4182,4.8968-1.4182l-0.6604-3.4921c0,0-2.0167-2.4354-5.2441-3.5592
		c-3.2611-1.1359-7.6476-1.4109-7.6476-1.4109L273.6763,250.2867z M289.0287,242.7517c0,0-2.812,2.4072-3.5816,5.1953
		c-0.77,2.7885,0.5016,5.9572,0.5016,5.9572l2.3628,4.4077c0,0,3.2747-1.7428,4.6676-4.3486
		c1.393-2.6063,0.8822-6.1226,0.8822-6.1226s-2.5941,0.9658-2.9241,1.3933c0.5474-2.8908-1.9089-6.4823-1.9089-6.4823H289.0287z
		 M279.9903,241.626c0,0-3.1981,1.0809-6.3037,0.8939c-2.9583-0.1786-5.4182-2.6627-5.4182-2.6627s2.4522-1.6595,3.6626-1.4384
		c-1.3314-0.4866-3.2619-3.8218-3.2619-3.8218s2.7434-0.829,5.1759,0.088c2.4325,0.9178,4.5536,3.5823,4.5536,3.5823l1.5921,3.3587
		L279.9903,241.626z M281.0903,226.006c0,0,1.5994,3.3117,1.2203,4.4627c0.4961-0.7663,2.3738-1.9598,2.3738-1.9598
		s1.1352,5.3621,0.0495,8.6739c-1.0853,3.3114-4.3904,4.5723-4.3904,4.5723l-3.6458-7.0902c0,0-0.5427-2.6268,0.594-4.7069
		c1.1371-2.0801,3.7987-3.9523,3.7987-3.9523V226.006z M260.282,217.239c0,0,3.4566-0.363,6.6187,0.9471
		c2.6437,1.0974,3.454,3.0921,3.454,3.0921l1.302,3.4907c0,0-3.7624,1.4109-6.7349,0.3322
		c-2.9729-1.0798-5.1572-4.6493-5.1572-4.6493s2.0775-0.788,2.8684-0.4924c-1.1521-0.5097-2.3503-2.7203-2.3503-2.7203v0.0004
		L260.282,217.239z M271.1537,210.76c0,0,1.5169,1.9481,1.5624,4.1888c0.4044-1.1913,2.2983-2.508,2.2983-2.508
		s1.9477,4.7135,1.5202,8.0601c-0.4275,3.3469-3.2299,5.3266-3.2299,5.3266l-3.4947-6.6337c0,0-1.1389-2.7188-0.8033-4.8279
		c0.3359-2.1083,2.1472-3.6065,2.1472-3.6065V210.76z M259.182,198.0733c0,0-0.6266,3.6131,0.4396,5.6943
		c0.9526,1.8572,1.5591,2.2645,1.5591,2.2645c-1.8165-1.1986-4.5628-1.302-4.5628-1.302s0.9775,3.931,3.3135,5.7244
		c2.336,1.7934,5.9382,1.3743,5.9382,1.3743s2.3687-3.1533,2.2037-6.5505c-0.1646-3.3972-2.8629-7.0389-2.8629-7.0389
		s-1.0641,2.2073-1.158,3.8551c-0.6886-1.6988-4.8712-4.0209-4.8712-4.0209L259.182,198.0733z M287.4153,258.599l0.0972,1.2969
		c2.1541,0.0202,2.475-0.1943,3.0272,0.4847c0.3678,0.4525,1.2426,0.8474,2.1219,0.4455c0.88-0.4015,1.2742-1.4583,0.8727-2.3379
		c-0.4015-0.8796-1.2195-1.0707-2.0075-0.9152c-0.4836,0.0953-0.8019,0.4814-1.2122,0.6934c-0.7802,0.4041-2.9,0.3329-2.9,0.3329
		L287.4153,258.599z"/>
	<path d="M287.2283,257.609l1.0483,0.7682c-1.1246,1.8384-1.4755,1.9969-1.192,2.8252c0.1888,0.5515,0.0609,1.5022-0.7462,2.0361
		c-0.8067,0.5335-1.9118,0.3083-2.4453-0.4979c-0.5331-0.8067-0.2622-1.6009,0.2871-2.1872c0.3373-0.36,0.8324-0.4253,1.2295-0.6611
		c0.7561-0.4485,1.8183-2.2836,1.8183-2.2836L287.2283,257.609z M279.9316,242.209l0.0968,1.2969
		c2.1545,0.0198,2.475-0.1944,3.0272,0.4844c0.3674,0.4521,1.2426,0.8474,2.1219,0.4455c0.8804-0.4015,1.2745-1.4579,0.8723-2.3375
		c-0.4015-0.88-1.2192-1.0707-2.0071-0.9152c-0.484,0.0957-0.8019,0.4814-1.2118,0.6934c-0.7806,0.4037-2.9,0.3329-2.9,0.3329
		L279.9316,242.209z"/>
	<path d="M280.368,242.6673l0.9167,0.9229c-1.3966,1.6405-1.7688,1.7428-1.6174,2.6048c0.1012,0.5746-0.1734,1.4942-1.0538,1.8957
		c-0.8796,0.4015-1.9356,0.0077-2.3379-0.8723c-0.4015-0.8796-0.0103-1.6225,0.6237-2.116c0.389-0.3025,0.8892-0.2908,1.3174-0.4613
		c0.8166-0.3252,2.1512-1.9734,2.1512-1.9734V242.6673z M272.679,226.864l0.0972,1.2969c2.1545,0.0198,2.475-0.1943,3.0276,0.4851
		c0.3678,0.4514,1.2422,0.8466,2.1223,0.4448c0.8793-0.4015,1.2738-1.4575,0.8723-2.3382
		c-0.4022-0.8796-1.2195-1.0703-2.0079-0.9148c-0.484,0.0957-0.8019,0.4814-1.2122,0.6934
		c-0.7803,0.4041-2.8996,0.3326-2.8996,0.3326L272.679,226.864z"/>
	<path d="M273.2767,226.5927l0.9163,0.9225c-1.3966,1.6408-1.7681,1.7431-1.6174,2.6052c0.1012,0.5742-0.1734,1.4938-1.0534,1.8953
		c-0.8796,0.4011-1.936,0.0073-2.3379-0.8723c-0.4012-0.88-0.0099-1.6229,0.6237-2.116c0.389-0.3032,0.8888-0.2908,1.3178-0.462
		C271.9424,228.2401,273.2767,226.5927,273.2767,226.5927L273.2767,226.5927z M264.9533,210.6647l0.0968,1.2965
		c2.1545,0.0202,2.4754-0.1943,3.0272,0.4844c0.3682,0.4525,1.243,0.8474,2.1223,0.4462c0.88-0.4022,1.2742-1.4582,0.8727-2.3382
		c-0.4015-0.88-1.2195-1.071-2.0079-0.9152c-0.4833,0.0957-0.8015,0.4818-1.2119,0.6934c-0.7802,0.4037-2.9,0.3329-2.9,0.3329
		H264.9533z"/>
	<path d="M265.551,210.3933l0.9159,0.9229c-1.3963,1.6408-1.7684,1.7428-1.617,2.6052c0.1012,0.5742-0.1738,1.4938-1.0534,1.8953
		c-0.88,0.4015-1.936,0.0077-2.3375-0.8723c-0.4019-0.8796-0.0103-1.6232,0.623-2.116c0.3894-0.3025,0.8892-0.2908,1.3178-0.462
		c0.8162-0.3249,2.1509-1.9727,2.1509-1.9727L265.551,210.3933z"/>
	<g>
		<path class="st1" d="M294.6937,273.9227l3.6843,2.0101l-0.8939,4.1004l-3.6846-2.0101L294.6937,273.9227z M278.564,238.3663
			c-0.7722,0.3205-1.9177-3.0415-2.7588-4.8833c-0.8628-1.8902-2.6147-4.8033-2.1171-5.0307
			c0.546-0.2493,1.2654,1.2804,2.1483,3.2146c0.8829,1.9334,3.451,6.398,2.7276,6.6986V238.3663z M270.633,220.66
			c-0.7718,0.3216-1.617-1.8799-2.4578-3.722c-0.8628-1.8898-1.7032-3.2248-1.2056-3.4522c0.5463-0.2493,1.353,1.4069,2.0592,2.9535
			c0.6842,1.4989,2.3276,3.9197,1.6038,4.2211L270.633,220.66z M288.981,260.8063c-0.6061,0.1621-3.252-5.3761-5.3911-10.0621
			c-2.1388-4.6856-3.7316-8.477-3.234-8.7032c0.5463-0.2497,2.2781,4.1767,4.418,8.8631c2.1395,4.6864,4.6614,9.7801,4.2075,9.9022
			H288.981z"/>
		<circle class="st1" cx="291.9382" cy="259.2275" r="0.9555"/>
		<circle class="st1" cx="285.3657" cy="261.7754" r="0.9555"/>
		<circle class="st1" cx="284.4516" cy="242.825" r="0.9555"/>
		<circle class="st1" cx="277.8761" cy="246.488" r="0.9555"/>
		<circle class="st1" cx="277.2003" cy="227.4851" r="0.9555"/>
		<circle class="st1" cx="270.7841" cy="230.4141" r="0.9555"/>
		<circle class="st1" cx="269.4747" cy="211.2876" r="0.9555"/>
		<circle class="st1" cx="263.0595" cy="214.2151" r="0.9555"/>
	</g>
	<path class="st4" d="M260.2453,200.2697c0,0-0.0935,2.6404,0.7799,4.1378c0.8738,1.4982,2.8248,2.0955,2.8248,2.0955
		s0.0931-2.6396-0.7803-4.1371C262.196,200.8677,260.2453,200.2697,260.2453,200.2697z M258.4193,206.2427
		c0,0,2.2935,0.1349,3.6183,1.1499c1.3237,1.0149,1.8366,3.1295,1.8366,3.1295s-1.5202,0.1544-2.8439-0.8606
		C259.7063,208.6462,258.4193,206.2427,258.4193,206.2427z M265.617,200.9113c0,0-0.7627,1.749-0.6747,3.6344
		c0.0876,1.8858,1.188,4.0102,1.188,4.0102s0.9948-2.2638,0.9071-4.1499C266.9502,202.5203,265.8836,201.4452,265.617,200.9113
		L265.617,200.9113z M261.756,217.91c0,0,1.126,1.5723,2.8596,2.4296c1.7336,0.8569,4.3168,0.8888,4.3168,0.8888
		s-1.2892-1.6727-3.0232-2.53c-1.7336-0.8569-4.1532-0.7891-4.1532-0.7891V217.91z M262.3134,221.562
		c0,0,0.8276,1.621,2.3408,2.3159c1.514,0.6952,4.6104,0.638,4.6104,0.638s-1.188-1.5147-2.7016-2.2099
		c-1.5136-0.6956-4.25-0.744-4.25-0.744H262.3134z M271.029,212.916c0,0-0.9148,1.5118-0.8254,3.1775
		c0.0898,1.6665,1.1833,3.4874,1.1833,3.4874s0.7689-2.0874,0.679-3.7536c-0.0895-1.6665-1.0373-2.9113-1.0373-2.9113H271.029z
		 M274.3987,215.0537c0,0-1.5653,2.101-1.7901,4.261c-0.2248,2.1597,0.8903,4.3787,0.8903,4.3787s1.8909-1.8986,2.1157-4.0583
		c0.2248-2.1604-1.2159-4.5808-1.2159-4.5808V215.0537z M270.083,235.0003c0,0,0.1881,0.7766,0.8422,1.6012
		c0.6538,0.8254,1.7732,1.6984,1.7732,1.6984s1.0813-0.3476,2.4255-0.0568c1.3438,0.2915,3.1313,1.4887,3.1313,1.4887
		s-1.9239-2.8714-3.9215-3.9879c-1.9976-1.1158-4.25-0.744-4.25-0.744L270.083,235.0003z M269.885,239.9357
		c0,0,2.4908-1.0641,4.5419-0.7894c2.0515,0.2746,3.9009,1.896,3.9009,1.896s-2.7723,0.9592-4.8235,0.6849
		c-2.0518-0.2746-3.6197-1.7915-3.6197-1.7915H269.885z M280.412,228.3563c0,0-2.2026,2.3335-2.3874,4.3586
		c-0.1844,2.0247,1.786,3.912,1.786,3.912s-0.0968-1.2987,0.2424-2.1538c0.3395-0.8551,1.0608-1.7681,1.0608-1.7681
		s0.3073-1.0424,0.1884-1.8784C281.1362,229.6584,280.412,228.3563,280.412,228.3563L280.412,228.3563z M283.5727,231.0587
		c0,0-2.076,2.1006-2.6246,4.3501c-0.5489,2.2495,0.429,4.6479,0.429,4.6479s1.888-1.4894,2.4369-3.7385
		c0.5489-2.2495-0.2416-5.2595-0.2416-5.2595H283.5727z M288.772,244.618c0,0,0.9405,1.9635,1.1788,3.6054
		c0.239,1.6416,0.0176,2.2099,0.0176,2.2099s-0.9724,0.9559-1.4084,1.518c-0.5603,0.7223-0.6424,2.0445-0.6424,2.0445
		s-1.9525-2.9025-1.6515-5.0244c0.3007-2.1215,2.5058-4.3538,2.5058-4.3538L288.772,244.618z M292.886,249.161
		c0,0-2.4999,1.6511-3.4918,3.3451c-0.9929,1.6929-0.4781,3.428-0.4781,3.428s1.7812-0.1569,2.7742-1.8502
		c0.9922-1.6933,1.1953-4.9232,1.1953-4.9232L292.886,249.161z M276.4594,256.135c0,0,3.6029-0.0983,5.8051,0.4433
		c2.2022,0.5408,3.0038,1.7215,3.0038,1.7215s-2.4761,1.1594-4.6783,0.6182c-2.2022-0.5408-4.1309-2.7834-4.1309-2.7834
		L276.4594,256.135z M275.8507,251.8597c0,0,1.6254,2.5201,3.7268,3.4346c2.8959,1.2595,6.2491,0.649,6.2491,0.649
		s-1.8216-2.2326-4.3281-3.2182c-2.5073-0.9852-5.6478-0.865-5.6478-0.865V251.8597z"/>
	<path d="M399.2047,202.3795l0.4697,0.9944c0,0-0.7627,0.2618-1.1081,0.9383c-0.3447,0.6772,0.2255,1.6335,0.2255,1.6335
		s-3.9615-0.3458-4.58,0.0565c-0.5603,0.363,0.2372,3.1071-0.1317,5.4248c-0.514,3.2303-1.7875,2.959-1.8395,3.5849
		c-0.0506,0.6083,0.488,1.558,0.488,1.558s-0.7429,0.2339-0.9013,0.5445c-0.2548,0.4994,0.1775,1.4208-0.1313,2.0269
		c-1.7233,3.3818-4.268,8.3732-5.9503,11.6758c-0.235,0.4609-0.8665,0.6369-1.1829,1.2577
		c-0.2919,0.5727-0.0561,1.4076-0.0561,1.4076s-1.1151,0.0667-1.5019,0.8261c-0.411,0.8067-0.169,1.8957-0.169,1.8957
		s-0.7051,0.0902-1.0516,0.7696c-0.37,0.7264,0.2567,1.1073,0.095,1.4267c-2.262,4.4374-4.9258,9.6683-6.5512,12.8583
		c-0.598,1.173-2.6906,1.408-3.905,3.7917c-1.1785,2.3122,0.5067,4.0168,0.5067,4.0168s-1.7497,0.1584-2.2147,1.0703
		c-0.4737,0.9295-0.099,2.3408,1.1638,2.9843c1.2628,0.6432,2.6425,0.1225,3.1167-0.807c0.4646-0.9119-0.4697-2.4215-0.4697-2.4215
		s2.3698,0.3414,3.5475-1.9712c1.2148-2.3837,0.1907-4.195,0.7883-5.3684c1.6258-3.19,4.29-8.4205,6.5512-12.8583
		c0.1631-0.3194,0.8312-0.0429,1.2012-0.7693c0.3461-0.6794,0-1.2951,0-1.2951s1.0347-0.451,1.4458-1.258
		c0.3872-0.7594-0.2064-1.7079-0.2064-1.7079s0.8151-0.2904,1.1073-0.8631c0.3161-0.6208,0.0836-1.2283,0.3186-1.69
		c1.683-3.3022,4.228-8.294,5.9507-11.675c0.3091-0.6068,1.3035-0.8144,1.558-1.3145c0.1584-0.3102-0.0935-1.0509-0.0935-1.0509
		s1.0956-0.1085,1.5576-0.5071c0.4759-0.4099-0.4902-1.2892,1.8213-3.604c1.6581-1.6603,4.3329-2.6371,4.2981-3.3037
		c-0.0385-0.737-2.6466-3.7352-2.6466-3.7352s1.1003-0.0928,1.4454-0.7693c0.345-0.6769,0.1129-1.4645,0.1129-1.4645l1.0883-0.1877
		v-5.1619L399.2047,202.3795z M363.2215,274.2733c-0.1796,0.3603-0.1796,0.7841,0,1.1444c0,0-1.3138-0.4107-1.7644-0.1877
		c-0.4246,0.2101,0,6.4013,0,6.4013s5.2415-3.3066,5.1616-3.773c-0.0844-0.4957-1.1825-1.3328-1.1825-1.3328
		c0.4246-0.0682,0.7557-0.3344,0.92-0.6567c0.1723-0.3392,0.1954-1.3083-0.9951-1.9151c-0.4459-0.2274-0.843-0.2948-1.1642-0.2625
		C363.6633,273.7449,363.3297,274.0613,363.2215,274.2733L363.2215,274.2733z"/>
	<g>
		<path class="st1" d="M400.158,202.587l2.4775,1.258l-0.037-2.9847L400.158,202.587z M399.201,204.3892
			c-0.3183,0.6248-0.0092,1.4249,0.6945,1.7831c0.704,0.3582,1.5209,0.1368,1.8399-0.4877
			c0.3183-0.6248,0.0084-1.4245-0.6948-1.7831c-0.2487-0.1288-0.5276-0.1873-0.8071-0.1694
			C399.7906,203.7625,399.4001,203.9987,399.201,204.3892L399.201,204.3892z M394.9403,206.6607
			c-0.2607,0.1687,0.0938,2.3998,0.0187,4.2981c-0.0711,1.7901-0.6439,2.2942-0.9574,2.9095
			c-0.2893,0.568-1.3325,1.239-1.3325,1.239l0.8631,0.8635c0,0,0.5617-0.8749,1.4454-2.6099
			c1.0424-2.0456,1.0087-5.7523,1.3145-5.9499c0.2658-0.172,2.4402-0.7135,2.4402-0.7135c-0.0004,0-1.9954-0.1078-3.0973-0.0935
			C395.2674,206.6086,395.0009,206.6214,394.9403,206.6607z"/>
		<path class="st1" d="M395.1677,216.9658c0,0,0.2885-0.8023,1.2954-2.7782c1.2141-2.383,3.8056-4.1114,3.8661-4.5426
			c0.063-0.4444-0.9009-2.5337-0.9009-2.5337s-2.2862,0.4382-2.6096,0.7509c-0.3124,0.3018-0.1745,3.3979-1.3889,5.7812
			c-1.0061,1.9756-1.5011,2.7031-1.5011,2.7031L395.1677,216.9658z"/>
		<path class="st1" d="M401.005,209.814c0.0191,0.3626-2.9931,2.5157-4.0359,4.561c-0.8837,1.7347-1.2577,2.7034-1.2577,2.7034
			l1.2016,0.1877c0,0-0.0829-1.2346,0.2064-1.8022c0.3131-0.6149,0.3956-1.368,1.8022-2.4776
			c1.4916-1.1766,3.5079-2.2051,3.4914-2.5157c-0.015-0.2867-2.2528-3.0595-2.2528-3.0595S400.9877,209.4983,401.005,209.814
			L401.005,209.814z M392.183,223.1973c1.8099-3.5523,2.3628-3.7943,2.5905-4.242c0.2453-0.4811,0.1866-1.1286-0.6193-1.5396
			c-0.3021-0.1536-0.5614-0.1929-0.7883-0.1683c-0.3788,0.0407-0.6542,0.2812-0.8071,0.5815
			c-0.228,0.4481-0.1045,1.0468-1.9151,4.5995l-4.1111,8.0524c0,0-0.4308,0.7905,0.3755,1.2012
			c0.8063,0.4103,1.1638-0.4132,1.1638-0.4132L392.183,223.1973z M384.9193,232.4329c-0.224,0.4404,0.1599,1.0868,0.8635,1.4458
			c0.7036,0.3579,1.4652,0.29,1.6892-0.1503c0.224-0.44-0.1782-1.0868-0.8822-1.4458c-0.3516-0.1793-0.7095-0.2519-1.0135-0.2248
			C385.272,232.0842,385.0315,232.2133,384.9193,232.4329z M383.3976,234.7228c-0.2904,0.5694,0.1624,1.3871,1.0139,1.8216
			c0.8514,0.4338,1.7747,0.3249,2.0647-0.2446c0.2904-0.5698-0.1628-1.3867-1.0139-1.8212
			c-0.3193-0.1621-0.6354-0.2482-0.9387-0.2625C384.0198,234.1922,383.5791,234.3667,383.3976,234.7228L383.3976,234.7228z
			 M382.4406,237.2762c-0.224,0.4396,0.1602,1.0864,0.8635,1.445c0.7036,0.3586,1.4648,0.29,1.6896-0.15
			c0.224-0.44-0.1602-1.0868-0.8635-1.4454c-0.352-0.1797-0.7282-0.2523-1.0326-0.2255
			C382.7941,236.9272,382.5532,237.0559,382.4406,237.2762L382.4406,237.2762z M381.821,239.7164c0,0-4.5643,8.9833-6.1747,12.1444
			c-0.5148,1.0098-2.6811,1.639-3.5292,3.304c-0.8543,1.6749-0.2515,3.2428,0.8631,3.8104c1.1143,0.568,2.7507,0.1551,3.6043-1.5202
			c0.8481-1.6647,0.0862-3.7961,0.6002-4.8055c1.6107-3.1621,6.1758-12.1447,6.1758-12.1447s0.4495-0.7905-0.3568-1.2012
			c-0.161-0.0855-0.3448-0.1182-0.5255-0.0935C382.034,239.2668,381.821,239.7164,381.821,239.7164L381.821,239.7164z
			 M370.2747,260.5702c-0.3421,0.671,0.0491,1.5653,0.8818,1.9896c0.8331,0.4246,1.7981,0.2204,2.1402-0.4503
			c0.3421-0.671-0.0682-1.5657-0.9009-1.9899c-0.3124-0.1595-0.631-0.2336-0.9387-0.2251
			C370.9442,259.9091,370.4881,260.1511,370.2747,260.5702L370.2747,260.5702z M364.1942,274.292
			c-0.2603,0.0088-0.4759,0.0913-0.5628,0.2629c-0.1749,0.3428,0.1862,0.8848,0.807,1.2012
			c0.6208,0.3161,1.2701,0.2867,1.4454-0.0565c0.1749-0.3436-0.187-0.8851-0.807-1.2012c-0.3106-0.1584-0.6215-0.2156-0.8826-0.2068
			L364.1942,274.292z M362.0544,275.9808v4.4301l3.6043-2.5905c0,0-0.4888-0.8631-1.5583-1.408
			c-1.0696-0.5445-2.046-0.4319-2.046-0.4319V275.9808z"/>
	</g>
	<path class="st1" d="M364.3358,177.3189c0-2.4295,3.1911-4.8242,3.1911-4.8242h-77.8235c0,0,3.1911,2.3943,3.1911,4.8242v57.9282
		c0,1.5261,0.4715,2.5197,1.2202,3.491c0.7484,1.0461,2.343,2.4915,3.9978,3.5666c5.1113,3.3194,13.6569,6.8196,20.1227,9.761
		c5.3878,2.4508,7.5794,3.4397,10.38,6.9076c2.801-3.4679,5.0112-4.4565,10.399-6.9076c6.4647-2.941,15.0106-6.4416,20.1223-9.761
		c1.6555-1.0751,3.2501-2.5201,3.9981-3.5666c0.7487-0.9713,1.2012-1.965,1.2012-3.491L364.3358,177.3189z"/>
	<path class="st0" d="M294.734,210.093v-32.7745c0-1.855-0.9387-2.9843-0.9387-2.9843h69.6403c0,0-0.9387,1.1297-0.9387,2.9843
		l0.0198,32.7745l-33.8914,10.2667L294.734,210.093z"/>
	<path class="st2" d="M362.5164,210.093l-20.9858-0.3942h-25.8108l-20.9858,0.3942v25.1537c0,1.2643,1.3119,4.2258,8.8788,7.9959
		c12.5074,6.2326,22.121,9.1425,25.0026,12.6892c2.8813-3.5468,12.4949-6.457,25.0027-12.6892
		c7.5665-3.7701,8.8784-6.7316,8.8784-7.9959L362.5164,210.093z"/>
	<path d="M341.0231,208.7804c0,0,12.107-3.0529,12.107-15.9929c0-10.1064-12.1378-15.1202-12.4828-17.5318
		c-1.1862,4.173,4.0546,9.9367,4.0546,16.7622c0,8.8315-6.5135,9.2543-6.5135,9.2543c-1.5242,0-2.1417,1.0883-2.7408,1.0883
		c-1.2823-0.1338-1.8858-1.7648-3.1537-1.7648c-1.1906,0-2.1046,1.8396-3.6788,1.8396c-1.5737,0-2.4695-1.8396-3.6604-1.8396
		c-1.2672,0-1.8711,1.6309-3.1533,1.7648c-0.5991,0-1.2169-1.0883-2.7412-1.0883c0,0-6.5131-0.4228-6.5131-9.2543
		c0-6.8255,5.2415-12.5899,4.0546-16.7622c-0.3439,2.4116-12.4817,7.425-12.4817,17.5318c0,12.94,12.1069,15.9929,12.1069,15.9929
		l-3.454,6.288c0,0,5.0032,0.2504,7.6586,2.5157c3.2021,2.7309,2.8904,8.5173,2.8904,12.7266c0,3.3165-0.4191,6.8163-2.1208,8.2588
		c-2.2851,1.9375-3.8299,2.0808-3.8299,4.3553c0,1.8971,1.4583,2.2774,3.8299,3.5292c3.0385,1.6034,2.897,3.7539,7.414,3.7539
		c4.5177,0,4.3945-2.1501,7.4334-3.7539c2.3716-1.2518,3.8295-1.632,3.8295-3.5292c0-2.2744-1.5451-2.4178-3.8295-4.3553
		c-1.7017-1.4432-2.1208-4.9427-2.1208-8.2588c0-4.2093-0.3113-9.9957,2.8904-12.7266c2.6558-2.2649,7.6582-2.5157,7.6586-2.5157
		L341.0231,208.7804z"/>
	<path d="M0,0"/>
	<g>
		<path class="st1" d="M310.7837,192.0175c0,6.6469,3.5446,10.5677,8.2779,10.5677c0.9027,0,1.8902,1.2203,2.7408,1.2203
			c1.3867,0,2.3093-1.5393,3.1537-1.5393c1.0732,0,1.7967,1.6892,3.6601,1.6892c1.8638,0,2.6059-1.6892,3.6791-1.6892
			c0.8441,0,1.7666,1.5393,3.1533,1.5393c0.851,0,1.8377-1.2203,2.7408-1.2203c4.7333,0,8.2783-3.9208,8.2783-10.5677
			c0-5.4208-4.5526-12.0303-4.0546-13.1025c0,0,8.8784,6.3686,8.8784,13.8717c0,12.0864-12.2573,15.0733-12.2573,15.0733
			l2.7592,6.2128c0,0-3.7994,0.5698-6.1193,2.4405c-3.0943,2.4952-3.135,9.2367-3.135,13.7962c0,5.3709,0.1998,7.6468,2.1402,9.104
			c2.046,1.5374,3.5849,1.8685,3.5849,3.4353c0,1.3651-1.5931,1.9235-3.6604,2.8343c-2.3514,1.0366-2.5857,2.8347-5.9877,2.8347
			c-3.4023,0-3.6179-1.7981-5.9693-2.8347c-2.0669-0.9108-3.6604-1.4689-3.6604-2.8343c0-1.5668,1.5389-1.8979,3.5849-3.4353
			c1.9404-1.4571,2.1399-3.733,2.1399-9.104c0-4.5595-0.0403-11.301-3.1346-13.7962c-2.3203-1.8715-6.1193-2.4405-6.1193-2.4405
			l2.7588-6.2128c0,0-12.2569-2.9865-12.2569-15.0733c0-7.5031,8.8788-13.8717,8.8788-13.8717
			C315.3358,179.9872,310.7837,186.5967,310.7837,192.0175L310.7837,192.0175z M323.9793,241.9303
			c-2.4079,0-3.9417,0.5082-3.9417,1.239c0,0.7311,1.5341,1.2203,3.9417,1.2203c0.6417,0,1.3702-0.3736,1.3702-1.2203
			C325.3496,242.3227,324.6206,241.9303,323.9793,241.9303L323.9793,241.9303z M333.2707,241.9303
			c-0.6417,0-1.3702,0.3927-1.3702,1.239c-0.0004,0.8466,0.7286,1.2203,1.3702,1.2203c2.4083,0,3.9417-0.4888,3.9417-1.2203
			C337.2123,242.4382,335.6786,241.9303,333.2707,241.9303L333.2707,241.9303z"/>
		<path class="st1" d="M328.636,180.1727l1.3515,3.8111l3.6413-1.7457l-1.727,3.6601l3.7921,1.3519l-3.7921,1.3515l1.727,3.6414
			l-3.6414-1.727l-1.3702,3.7917l-1.3515-3.7917l-3.6414,1.727l1.727-3.6414l-3.7917-1.3515l3.7917-1.3519l-1.727-3.6601
			l3.6414,1.7457L328.636,180.1727L328.636,180.1727z M298.2969,210.2023c0,0,4.6233,2.3027,6.9458,4.3549l0.1309,0.1126
			l0.0748-0.0935c2.1949-2.5194,6.2693-4.6552,6.2693-4.6552s-3.9146-1.0798-6.3818-3.9043
			C302.7284,208.6744,298.2969,210.2023,298.2969,210.2023L298.2969,210.2023z M358.9476,210.2082c0,0-4.6233,2.3027-6.9458,4.3549
			l-0.1309,0.1126l-0.0748-0.0935c-2.1949-2.5194-6.2693-4.6552-6.2693-4.6552s3.9146-1.0798,6.3818-3.9043
			C354.5161,208.6803,358.9476,210.2082,358.9476,210.2082L358.9476,210.2082z M318.78,219.0467l1.5206,1.5198l-1.5206,1.5396
			l-1.5392-1.5396L318.78,219.0467z M338.47,219.0467l1.5396,1.5198l-1.5396,1.5396l-1.5202-1.5396L338.47,219.0467z
			 M320.8454,225.6903c1.0622,1.4659,0.8819,3.8361,0.8819,7.1335c0,3.3246-2.4963,4.5984-2.4963,4.5984
			c0-7.9911-0.8239-9.9125-1.2577-12.3328L320.8454,225.6903z M339.2767,225.0893c-0.4345,2.4207-1.2573,4.3417-1.2573,12.3325
			c0,0-2.4966-1.2738-2.4966-4.5984c0-3.2974-0.1804-5.6668,0.8822-7.1331L339.2767,225.0893L339.2767,225.0893z"/>
		<path id="b" class="st1" d="M309.0384,228.1136c0.0748,0.2992,0.0829,0.5933,0.0561,0.8826
			c-0.022,0.2398-0.0858,0.4576-0.1687,0.6754c-0.4154-0.1518-0.865-0.2255-1.3328-0.2255c-1.1583,0-2.1953,0.5097-2.9095,1.3145
			c-0.188-0.1641-0.3521-0.3537-0.4877-0.5632c-0.154-0.238-0.2842-0.4983-0.3568-0.7883
			c-0.3601-1.4348,0.5174-2.8879,1.9521-3.2476c0.1789-0.0455,0.3667-0.0678,0.5441-0.0748
			C307.6032,226.035,308.7327,226.882,309.0384,228.1136L309.0384,228.1136z"/>
		<g transform="rotate(72 838.89 486.468)">
			<path id="b_00000016055694075795263120000012592929697301177008_" class="st1" d="M313.0403,233.1214
				c-0.2614,0.1636-0.5386,0.2621-0.822,0.3261c-0.2349,0.0532-0.4617,0.0598-0.6945,0.0483
				c0.016-0.442-0.0528-0.8923-0.1974-1.3373c-0.3579-1.1016-1.1631-1.9303-2.1493-2.3609c0.098-0.2295,0.2275-0.4442,0.3849-0.6378
				c0.1787-0.22,0.3861-0.4243,0.6395-0.5829c1.2533-0.7858,2.9064-0.4004,3.6919,0.853c0.0985,0.1561,0.1778,0.3278,0.2393,0.4944
				C314.5736,231.1142,314.1172,232.4501,313.0403,233.1214L313.0403,233.1214z"/>
		</g>
		<g transform="rotate(144 838.89 486.468)">
			<path id="b_00000130619784976023348570000008556961384316151936_" class="st1" d="M309.5143,238.475
				c-0.2364-0.1981-0.4158-0.4313-0.5642-0.681c-0.1231-0.2069-0.1995-0.4206-0.2605-0.6456
				c0.4253-0.1214,0.8323-0.326,1.2108-0.601c0.9371-0.6808,1.4764-1.7027,1.5812-2.7736c0.2486,0.0223,0.4928,0.0791,0.7256,0.169
				c0.2645,0.102,0.5228,0.2361,0.752,0.4281c1.1346,0.9491,1.2789,2.6404,0.3296,3.7748c-0.118,0.142-0.2568,0.2704-0.3962,0.3804
				C311.8971,239.313,310.4855,239.2917,309.5143,238.475L309.5143,238.475z"/>
		</g>
		<g transform="rotate(216 838.89 486.468)">
			<path id="b_00000049911969697911987360000017110783226996782984_" class="st1" d="M303.3331,236.7758
				c0.1154-0.286,0.2817-0.5287,0.4734-0.747c0.1588-0.1811,0.3384-0.3198,0.5334-0.4473c0.2469,0.367,0.5672,0.6908,0.9457,0.9659
				c0.9371,0.6808,2.0756,0.878,3.1265,0.6467c0.0556,0.2433,0.077,0.4931,0.0635,0.7423c-0.0153,0.283-0.063,0.5702-0.1747,0.8475
				c-0.552,1.3724-2.116,2.0322-3.4882,1.4799c-0.1715-0.0684-0.3365-0.1606-0.4842-0.2593
				C303.2724,239.301,302.8564,237.9519,303.3331,236.7758L303.3331,236.7758z"/>
		</g>
		<g transform="rotate(288 838.89 486.468)">
			<path id="b_00000109019961984535474430000010441340167033451397_" class="st1" d="M303.039,230.3722
				c0.3077,0.0213,0.5898,0.1045,0.8567,0.2194c0.2213,0.095,0.4087,0.223,0.5902,0.3691
				c-0.2728,0.3482-0.4818,0.7529-0.6263,1.1979c-0.3579,1.1016-0.1936,2.2453,0.3511,3.1733
				c-0.2142,0.1281-0.4452,0.2256-0.6863,0.2898c-0.2739,0.0729-0.5617,0.1163-0.86,0.0957
				c-1.4758-0.1009-2.5867-1.3844-2.4854-2.8601c0.0121-0.1842,0.0488-0.3697,0.097-0.5406
				C300.6187,231.0948,301.7732,230.2823,303.039,230.3722L303.039,230.3722z"/>
		</g>
		<circle class="st1" cx="307.593" cy="233.3716" r="2.5905"/>
		<path class="st1" d="M353.0725,229.8787c-4.3007,0.8316-7.3957,4.6303-6.9454,9.0666c-1.3706-1.1352-2.3734-2.6642-2.5527-4.3549
			c-0.3487-3.2923,2.0427-5.8381,5.6503-5.8381C350.6037,228.7523,351.9289,229.1747,353.0725,229.8787L353.0725,229.8787z"/>
	</g>
</g>
</svg>
