<?xml version="1.0" encoding="utf-8"?>
<!-- Generator: Adobe Illustrator 27.7.0, SVG Export Plug-In . SVG Version: 6.00 Build 0)  -->
<!DOCTYPE svg PUBLIC "-//W3C//DTD SVG 1.1//EN" "http://www.w3.org/Graphics/SVG/1.1/DTD/svg11.dtd" [
	<!ENTITY ns_extend "http://ns.adobe.com/Extensibility/1.0/">
	<!ENTITY ns_ai "http://ns.adobe.com/AdobeIllustrator/10.0/">
	<!ENTITY ns_graphs "http://ns.adobe.com/Graphs/1.0/">
	<!ENTITY ns_vars "http://ns.adobe.com/Variables/1.0/">
	<!ENTITY ns_imrep "http://ns.adobe.com/ImageReplacement/1.0/">
	<!ENTITY ns_sfw "http://ns.adobe.com/SaveForWeb/1.0/">
	<!ENTITY ns_custom "http://ns.adobe.com/GenericCustomNamespace/1.0/">
	<!ENTITY ns_adobe_xpath "http://ns.adobe.com/XPath/1.0/">
]>
<svg version="1.1" id="Layer_1" xmlns:x="&ns_extend;" xmlns:i="&ns_ai;" xmlns:graph="&ns_graphs;"
	 xmlns="http://www.w3.org/2000/svg" xmlns:xlink="http://www.w3.org/1999/xlink" x="0px" y="0px" width="660px" height="440px"
	 viewBox="0 0 660 440" style="enable-background:new 0 0 660 440;" xml:space="preserve">
<style type="text/css">
	.st0{fill:#FF0000;}
	.st1{fill:#005CE5;}
	.st2{fill:#FFFFFF;}
	.st3{fill-rule:evenodd;clip-rule:evenodd;fill:#005CE5;}
	.st4{fill-rule:evenodd;clip-rule:evenodd;fill:#FFFFFF;}
	.st5{fill-rule:evenodd;clip-rule:evenodd;fill:#FFE500;}
	.st6{fill-rule:evenodd;clip-rule:evenodd;fill:#FF0000;}
</style>
<metadata>
	<sfw  xmlns="&ns_sfw;">
		<slices></slices>
		<sliceSourceBounds  bottomLeftOrigin="true" height="440" width="660" x="0" y="0"></sliceSourceBounds>
	</sfw>
</metadata>
<g>
	<path class="st0" d="M0,0h660v440H0V0z"/>
	<path class="st1" d="M0,0h660v293.3333H0V0z"/>
	<path class="st2" d="M0,0h660v146.6667H0V0z"/>
	<g transform="matrix(.021 0 0 .021 -.106 3.478)">
		<path class="st3" d="M8005.6514,3508.4578c-46.9336,0-93.6465,1.0266-140.2866,2.3464
			c-907.1328,23.4668-1758.7534,257.7666-2365.1465,543.3999l0.0732,0.8799c-66.293,27.72-131.2666,55.5137-193.0127,83.3066
			l208.4136,3264.7271c144.4663,1706.0269,1256.2734,2699.3999,2491.5737,3089.3862
			c1235.3726-390.0596,2347.106-1383.3604,2491.4995-3089.3862l207.3125-3254.3867
			c-63.625-32.6631-127.9795-63.8865-193.0137-93.647v-0.8066c-637.2666-300.3-1545.4268-544.1333-2504.334-545.7468l-2.0532-0.0732
			C8006.6772,3508.4573,8005.6499,3508.4573,8005.6514,3508.4578z"/>
		<path class="st4" d="M8007.1919,5767.5645L7397.499,6958.2778l-394.1665-512.0869l-1030.04,1361.1401
			c18.6265,84.5532,40.4805,166.0996,64.3867,245.6665c114.9868,194.187,336.0864,415.8003,619.5938,415.8003
			c224.9858,0,449.9731-179.96,674.9595-179.96s449.9736,180.0332,674.9595,180.0332s449.9731-180.0332,675.0337-180.0332
			c224.9863,0,449.9736,180.0332,674.96,180.0332c280.9395,0,500.499-217.5801,616.4404-410.4468
			c24.7861-81.7666,46.9326-165.9536,66.1455-252.853L9011.124,6446.1909l-394.166,512.0869L8007.1919,5767.5645z
			 M7332.2324,8468.8711c-224.9863,0-449.9736,179.96-674.9595,179.96c-178.0537,0-331.0269-63.0674-449.5332-152.5332
			c40.7935,87.7197,85.6987,173.4688,134.5664,256.96c92.7666,57.7129,198.2935,96.7266,314.9668,96.7266
			c224.9858,0,449.9731-180.0332,674.9595-180.0332s449.9736,180.0332,674.9595,180.0332s449.9731-180.0332,675.0337-180.0332
			c224.9863,0,449.9736,180.0332,674.96,180.0332c114.9854,0,219.0459-38.1328,310.9336-94.5264
			c48.8223-83.1914,93.7266-168.6201,134.5664-256.0068c-117.9922,87.7803-269.5,149.3799-445.499,149.3799
			c-224.9863,0-449.9736-179.96-674.96-179.96c-225.0596,0-450.0459,179.96-675.0332,179.96
			C7782.207,8648.8311,7557.2197,8468.8711,7332.2324,8468.8711z M7332.2324,8849.9844c-224.9863,0-449.9736,179.96-674.9595,179.96
			c-48.9141,0-95.3335-5.7197-140.3604-14.374c389.1807,520.0068,920.2598,868.1201,1489.8398,1068.2471
			c568.4067-199.833,1098.6792-548.166,1487.6392-1067.3662c-44,8.2861-89.4668,13.4932-137.2061,13.4932
			c-224.9863,0-449.9736-179.96-674.96-179.96c-225.0605,0-450.0459,179.96-675.0337,179.96
			C7782.2061,9029.9443,7557.2188,8849.9844,7332.2324,8849.9844z"/>
		<g id="b">
			<path id="a" class="st5" d="M6992.2578,3945.3777h510.4004l-255.1997,441.9802"/>
			<g transform="matrix(1 0 0 -1 0 -215.104)">
				<path id="a_00000183216772776600171400000011768404682964340625_" class="st5" d="M6992.2578,4239.8838h510.4004
					l-255.1997-441.98"/>
			</g>
		</g>
		<g>
			<g transform="translate(20.72)">
				<g id="b_00000005249748076452814280000013511675882339991178_">
					<path id="a_00000140726364302860167120000018274400919739257227_" class="st5" d="M8511.7246,3945.3777h510.4004
						l-255.2002,441.9802"/>
					<g transform="matrix(1 0 0 -1 0 -215.104)">
						<path id="a_00000027585115758624866400000014275386143387952819_" class="st5" d="M8511.7246,4239.8838h510.4004
							l-255.2002-441.98"/>
					</g>
				</g>
			</g>
			<g transform="translate(10.36 13.875)">
				<g id="b_00000140732062851975489640000004149179858436730786_">
					<path id="a_00000121965347263286027580000016325436096429414819_" class="st5" d="M7751.9912,4962.8779h510.4004
						l-255.1997,441.98"/>
					<g transform="matrix(1 0 0 -1 0 -215.104)">
						<path id="a_00000162350085316756702820000004382845901235896733_" class="st5" d="M7751.9912,5257.3838h510.4004
							l-255.1997-441.98"/>
					</g>
				</g>
			</g>
		</g>
	</g>
	<path class="st6" d="M115.3467,88.66c-1.3518,0.5445-2.6964,1.1067-4.0333,1.6867l4.4,68.5667
		c3.0067,35.86,26.4,56.6867,52.2867,64.9c25.96-8.2133,49.28-29.04,52.36-64.9l4.3267-68.3467
		c-1.3301-0.6655-2.6749-1.3012-4.0333-1.9067l-4.1067,67.98C215.21,185.7696,195.818,210.9616,168,219.7067
		c-27.818-8.7451-47.21-33.9371-48.5467-63.0667L115.3467,88.66z"/>
</g>
</svg>
