<?xml version="1.0" encoding="utf-8"?>
<!-- Generator: Adobe Illustrator 27.7.0, SVG Export Plug-In . SVG Version: 6.00 Build 0)  -->
<!DOCTYPE svg PUBLIC "-//W3C//DTD SVG 1.1//EN" "http://www.w3.org/Graphics/SVG/1.1/DTD/svg11.dtd" [
	<!ENTITY ns_extend "http://ns.adobe.com/Extensibility/1.0/">
	<!ENTITY ns_ai "http://ns.adobe.com/AdobeIllustrator/10.0/">
	<!ENTITY ns_graphs "http://ns.adobe.com/Graphs/1.0/">
	<!ENTITY ns_vars "http://ns.adobe.com/Variables/1.0/">
	<!ENTITY ns_imrep "http://ns.adobe.com/ImageReplacement/1.0/">
	<!ENTITY ns_sfw "http://ns.adobe.com/SaveForWeb/1.0/">
	<!ENTITY ns_custom "http://ns.adobe.com/GenericCustomNamespace/1.0/">
	<!ENTITY ns_adobe_xpath "http://ns.adobe.com/XPath/1.0/">
]>
<svg version="1.1" id="Layer_1" xmlns:x="&ns_extend;" xmlns:i="&ns_ai;" xmlns:graph="&ns_graphs;"
	 xmlns="http://www.w3.org/2000/svg" xmlns:xlink="http://www.w3.org/1999/xlink" x="0px" y="0px" width="660px" height="440px"
	 viewBox="0 0 660 440" style="enable-background:new 0 0 660 440;" xml:space="preserve">
<style type="text/css">
	.st0{fill:#EE1C25;}
	.st1{fill:#0B4EA2;}
	.st2{fill:#FFFFFF;}
</style>
<metadata>
	<sfw  xmlns="&ns_sfw;">
		<slices></slices>
		<sliceSourceBounds  bottomLeftOrigin="true" height="440" width="660" x="-0.5" y="0"></sliceSourceBounds>
	</sfw>
</metadata>
<g>
	<path class="st0" d="M-0.5,0h660v440h-660V0z"/>
	<path class="st1" d="M-0.5,0h660v293.3333h-660V0z"/>
	<path class="st2" d="M-0.5,0h660v146.6667h-660V0z"/>
	<path class="st2" d="M288.0513,103.4H106.8292l-0.6211,5.9099c-0.1349,1.2848-3.3081,32.2454-3.3081,100.2393
		c0,31.9462,10.7991,60.1333,32.098,83.7687c14.9226,16.5623,34.4102,30.5067,59.5775,42.6279l2.86,1.3794l2.8644-1.3794
		c25.168-12.122,44.66-26.0656,59.5804-42.6279c21.299-23.6383,32.0988-51.8225,32.0988-83.7687
		c0-67.9932-3.1739-98.9545-3.3088-100.2393L288.0513,103.4L288.0513,103.4z"/>
	<path class="st0" d="M197.4391,330C161.2565,312.5716,109.5,277.9788,109.5,209.5493S112.7714,110,112.7714,110H282.109
		c0,0,3.2729,31.1205,3.2729,99.5493S233.6247,312.5716,197.4391,330z"/>
	<path class="st2" d="M205.1883,191.6083c9.7973,0.1584,28.9117,0.5419,45.9323-5.1531c0,0-0.4495,6.091-0.4495,13.1853
		c0,7.0943,0.4495,13.1868,0.4495,13.1868c-15.6119-5.225-34.892-5.3335-45.9323-5.1935v37.7953h-15.4733v-37.7953
		c-11.0403-0.1401-30.3197-0.0315-45.9323,5.1935c0,0,0.4495-6.0903,0.4495-13.1868c0-7.0965-0.4495-13.1853-0.4495-13.1853
		c17.0207,5.6951,36.135,5.3115,45.9323,5.1531v-23.7365c-8.9298-0.0792-21.7969,0.3469-36.3462,5.2162
		c0,0,0.4495-6.0903,0.4495-13.1868c0-7.0965-0.4495-13.1861-0.4495-13.1861c14.5273,4.8605,27.3797,5.2939,36.3066,5.2169
		c-0.4591-15.0333-4.84-33.9768-4.84-33.9768s9.0119,0.7033,12.6133,0.7033c3.6014,0,12.6133-0.7033,12.6133-0.7033
		s-4.3773,18.9457-4.84,33.9753c8.9276,0.0777,21.78-0.3557,36.3066-5.2169c0,0-0.4495,6.0903-0.4495,13.1861
		s0.4495,13.1868,0.4495,13.1868c-14.5486-4.8686-27.4164-5.2954-36.3462-5.2162v23.738H205.1883z"/>
	<path class="st1" d="M197.4267,241.3356c-18.2248,0-27.9862,25.2773-27.9862,25.2773
		c-3.9343-7.5256-11.7948-12.1701-20.2847-11.9856c-10.0606,0-17.4746,8.9467-22.1877,17.2333
		c18.3033,29.1133,47.5053,47.0851,70.4579,58.1394c22.957-11.055,52.1781-29.0187,70.4821-58.1394
		c-4.7131-8.2867-12.1271-17.2333-22.1877-17.2333c-8.495-0.1808-16.3606,4.4614-20.3082,11.9856
		C225.4121,266.6129,215.6529,241.3356,197.4267,241.3356L197.4267,241.3356z"/>
</g>
</svg>
