<?xml version="1.0" encoding="UTF-8"?><svg id="Layer_1" xmlns="http://www.w3.org/2000/svg" viewBox="0 0 187.13 200"><defs><style>.cls-1{fill:#8f8f8f;}</style></defs><path class="cls-1" d="M180.28,33.03c-7.61-1.48-15-2.77-22.32-4.38-21.76-4.81-42.81-11.77-63.09-21.04-.79-.36-2.03-.31-2.84,.06-23.93,10.73-48.8,18.46-74.55,23.38-3.54,.68-7.1,1.19-10.79,1.8,0,2.32,.03,4.54,0,6.76-.04,2.38-1.23,3.68-3.31,3.69-2.09,.01-3.32-1.28-3.35-3.64-.04-2.99-.02-5.98,0-8.97,.02-2.73,.89-3.75,3.59-4.14C34.12,22.1,63.37,13.41,91.35,.5c1.61-.74,2.97-.61,4.54,.12,25.29,11.69,51.7,19.79,79.12,24.62,2.87,.51,5.77,.85,8.65,1.32,2.29,.37,3.28,1.48,3.28,3.8,0,24.62,.52,49.26-.18,73.86-.93,32.98-16.05,58.39-43.54,76.44-14.69,9.64-30.79,15.94-48.04,19.2-1.88,.36-4-.04-5.93-.47-20.86-4.63-40.01-12.97-56.44-26.86C14.34,156.9,3.59,136.99,.82,112.88c-.45-3.93-.74-7.9-.76-11.85-.09-15.65-.04-31.3-.04-46.95,0-.49-.04-.99,.06-1.46,.35-1.72,1.42-2.67,3.19-2.7,1.87-.03,3.02,.91,3.36,2.74,.12,.67,.06,1.39,.06,2.08,.01,16-.17,32,.08,47.99,.29,18.4,5.34,35.35,16.5,50.23,9.33,12.44,21.43,21.5,35.16,28.5,10.19,5.2,20.9,8.97,32.08,11.43,2.34,.51,4.52,.32,6.76-.2,22.35-5.23,42.52-14.66,58.93-31.08,13.51-13.52,21.1-29.99,23.24-48.93,.56-4.96,.78-9.98,.8-14.98,.09-20.73,.04-41.45,.04-62.18,0-.83,0-1.66,0-2.5Z"/><path class="cls-1" d="M93.55,39.83c31.02,.14,56.73,23.64,59.71,54.7,1.12,11.66-1.13,22.68-6.41,33.1-1.27,2.5-3.27,3.17-5.23,1.79-1.54-1.08-1.86-2.56-.82-4.62,2.63-5.18,4.43-10.61,5.38-16.35,4.36-26.35-12.04-52.41-37.65-59.71-31.48-8.98-62.96,11.24-67.94,43.63-4.55,29.63,17.33,57.83,47.19,60.73,17.11,1.66,31.73-3.75,43.98-15.77,.94-.92,2.45-1.71,3.7-1.72,.89,0,2.32,1.27,2.56,2.21,.26,1.04-.23,2.66-.99,3.5-4.14,4.57-8.99,8.29-14.39,11.25-37.23,20.43-82.92-2.56-88.74-44.65-4.62-33.38,19.96-64.41,53.61-67.65,2-.19,4.02-.29,6.03-.43Z"/><path class="cls-1" d="M106.84,86.68c5.35,0,10.42,0,15.48,0,3.51,0,4.55,1.06,4.55,4.63,0,5.91,0,11.82,0,17.73,0,3.24-1.13,4.34-4.42,4.35-5.13,.01-10.25,0-15.61,0,0,5.09,0,10,0,14.92,0,4.25-.86,5.12-5.11,5.12-5.77,0-11.54,.01-17.31,0-3.15,0-4.28-1.13-4.28-4.26-.01-5.14,0-10.29,0-15.77-.72,0-1.38,0-2.04,0-4.59,0-9.18,.01-13.76,0-3.03-.01-4.22-1.16-4.22-4.12-.02-6.19-.02-12.38,0-18.56,0-2.83,1.21-4.01,4.1-4.02,5.21-.02,10.41,0,15.82,0,.04-.76,.09-1.43,.1-2.09,0-4.73-.02-9.46,.02-14.18,.02-2.45,1.27-3.73,3.74-3.75,6.39-.04,12.79-.04,19.18,0,2.54,.01,3.75,1.3,3.76,3.94,.03,5.27,0,10.55,0,16.09Zm-39.97,20.03c5.46,0,10.73-.02,16,0,2.71,.01,3.91,1.22,3.94,3.96,.03,2.92,0,5.84,0,8.76,0,2.4,0,4.81,0,7.13h13.35c0-5.17,0-10.18,0-15.18,0-3.7,.99-4.68,4.69-4.68,5.05,0,10.1,0,15.22,0v-13.37c-5.39,0-10.66,.02-15.93,0-2.73-.01-3.94-1.23-3.97-3.94-.03-2.78,0-5.56,0-8.34,0-2.54,0-5.08,0-7.56h-13.35c0,5.38,.02,10.59,0,15.8-.01,2.84-1.22,4.01-4.09,4.04-.76,.01-1.53,0-2.29,0-4.49,0-8.98,0-13.56,0v13.37Z"/></svg>