<?xml version="1.0" encoding="UTF-8"?><svg id="Layer_1" xmlns="http://www.w3.org/2000/svg" viewBox="0 0 50 50"><defs><style>.cls-1{fill:none;stroke:#8f8f8f;stroke-miterlimit:10;stroke-width:1.5px;}</style></defs><g id="Layer_2_copy"><g><path class="cls-1" d="M39.63,8.4h4.23l2.11-2.33h-13.35c-4.87,0-5.19,2.04-4.4,3.22,.79,1.18,2.12,4.08,.24,4.08h-2.55V7.44c0-.07,0-.13-.02-.2,1-.36,1.71-1.31,1.71-2.44,0-1.43-1.16-2.59-2.59-2.59s-2.59,1.16-2.59,2.59c0,1.12,.71,2.07,1.71,2.44-.01,.06-.02,.13-.02,.2v5.93h-2.55c-1.89,0-.55-2.91,.24-4.08,.79-1.18,.47-3.22-4.4-3.22H4.03l2.11,2.33h4.23c.29,0,.53,.24,.53,.53s-.24,.53-.53,.53h-3.27l2.11,2.33h4.23c.29,0,.53,.24,.53,.53s-.24,.53-.53,.53h-3.27l2.11,2.33h11.82v11.03c.12,.03,.24,.07,.38,.11,.41,.12,.83,.25,1.23,.38,.07,.02,.13,.04,.2,.06,1.1,.36,2.12,.73,2.86,1.01,3.98-1.18,7.9-2.61,7.9-5.22s-1.23-4.08-3.47-4.23c-.11,0-.22-.01-.33-.01-.02,0-.03,0-.05,0-.01,0-.02,0-.03,0-.35,0-.72,.04-1.1,.13-1.75,.4-3.68,2.51-3.44,3.56,.24,1.05,2.56,.63,4.3,.23,.5-.11,.96-.29,1.35-.52,.64,.8,.64,1.89-1.84,2.9-.17,.07-.33,.14-.48,.2-1.53,.58-3.31,1.13-4.92,1.6-.26,.07-.51,.15-.76,.22V15.18h11.82l2.11-2.33h-3.27c-.29,0-.53-.24-.53-.53s.24-.53,.53-.53h4.22l2.11-2.33h-3.27c-.29,0-.53-.24-.53-.53s.24-.53,.53-.53Zm-7.31,12.65c-.62,.11-1.22-.36-1.28-.66-.05-.3,.46-.34,1.09-.44,.62-.11,1.12-.25,1.17,.06,.05,.3-.36,.94-.98,1.05Z"/><path class="cls-1" d="M28.23,35.98c2.14-.88,3.56-1.99,3.56-3.91s-1.54-3.13-3.59-4.03c-.73-.27-1.5-.54-2.29-.8-.59-.19-1.2-.39-1.81-.57-.25-.08-.5-.15-.76-.23,0,0-.01,0-.02,0-1.61-.46-3.39-1.02-4.92-1.6-.15-.06-.31-.13-.48-.2-2.49-1.01-2.48-2.1-1.84-2.9,.39,.22,.85,.4,1.35,.51,1.75,.4,4.07,.82,4.31-.23,.24-1.05-1.69-3.16-3.44-3.56-.38-.09-.75-.13-1.1-.13,0,0-.02,0-.03,0-.02,0-.03,0-.05,0-.11,0-.22,0-.33,.01-2.24,.15-3.47,1.64-3.47,4.23,0,2.76,4.39,4.2,8.6,5.42,0,0,0,0,0,0,.88,.27,1.59,.48,1.72,.51,.19,.04,0,.32-.87,.08-.38-.11-.89-.24-1.39-.34-1.84,.87-3.17,2.04-3.17,3.84,0,2.07,1.65,3.2,4.1,4.12,0,0,0,0,0,0,.64,.25,1.19,.47,1.28,.5,.12,.04-.02,.2-.56,0-.26-.1-.63-.22-.97-.32-.74,.51-1.26,1.1-1.61,1.78-.94,1.85,1.21,4.67,1.72,4.36,.45-.27-.66-2.45,.01-3.62,.31-.55,.92-1.06,1.92-1.48v9.49c0,.5,.41,.9,.9,.9s.9-.4,.9-.9v-9.48c1,.42,1.6,.94,1.91,1.48,.67,1.17-.43,3.35,.01,3.62,.51,.31,2.66-2.5,1.72-4.36-.38-.75-.98-1.4-1.85-1.94-.49-.24-1.11-.5-1.79-.77-.28-.11-.57-.22-.87-.34-.01,0-.03,0-.04,.01-.32-.1-.62-.19-.9-.29-2.96-.97-4.01-1.71-4.01-2.74s1.15-1.91,4.01-2.88v5.25c.11,.03,.24,.06,.38,.11,.34,.11,.71,.23,1.11,.37,.11-.04,.21-.07,.32-.1v-5.62c2.85,.98,4,1.82,4,2.88s-1.04,1.77-4,2.74v.22c.73,.26,1.52,.58,2.33,.95Zm-10.37-16.03c.62,.11,1.14,.14,1.09,.44-.05,.31-.65,.77-1.27,.66s-1.04-.74-.98-1.05c.05-.31,.55-.16,1.17-.06Z"/></g></g></svg>