<?xml version="1.0" encoding="UTF-8"?><svg id="Layer_1" xmlns="http://www.w3.org/2000/svg" viewBox="0 0 50 50"><defs><style>.cls-1{fill:none;stroke:#8f8f8f;stroke-miterlimit:10;stroke-width:1.5px;}</style></defs><path class="cls-1" d="M47.9,8.37s-1.23,1.29-2.14,1.71c-.92,.43-2.39-1.04-5.94-1.04s-6.98,5.69-7.41,6.86c-.03,.1-.07,.18-.11,.27l-.31,.6c-.37,.57-.83,.85-1.48,.85h-1.24s-13.98,0-13.98,0h0s-1.61,0-1.61,0c-.88,0-1.67,.24-2.36,.64-2.15-.33-5.34-.17-6.58,1.01-1.29,1.23-2.38,2.75-2.38,6.18v8.27c2.38-1.96,3.49-4.96,3.49-8.08s1.89-7.7,5.07-7.03l-.61,.41c-1.41,1.31-2.19,3.23-2.19,4.47,0,2.02,.62,3.37,2.57,6l.03,.41-1.95,2.54c-.08,.11-.15,.24-.19,.38l-3.18,10.59c-.19,.62,.17,1.28,.79,1.47,.11,.04,.23,.05,.34,.05,.51,0,.98-.33,1.13-.84l3.12-10.39,.39-.5,4.34-2.1-.4,1.88c-.03,.15-.03,.31,0,.47l2.08,10.65c.11,.56,.6,.95,1.15,.95,.08,0,.15,0,.23-.02,.64-.12,1.06-.74,.93-1.38l-2.04-10.42,.69-3.26c.01-.05,.01-.11,.02-.16l.42-.2,16.53,.68-4.25,14.17c-.19,.62,.17,1.28,.79,1.47,.12,.04,.23,.05,.34,.05,.51,0,.98-.33,1.13-.84l4.17-13.91,4.28,2.75-.17,6.69c-.02,.65,.5,1.19,1.15,1.2h.03c.63,0,1.16-.51,1.17-1.14l.18-7.35c.01-.41-.2-.8-.54-1.02l-6-3.86,.21-.42s3.53-10.84,3.61-11.09c.24-.67,.86-.67,.92,0,.06,.67,.92,2.14,1.9,2.88-.29,1.29-.16,2.09-.16,2.09,.13,.88,.69,1.1,1.81,1.1,1.72,0,1.65-1.1,1.65-1.84s.55-12.86,.55-12.86Z"/></svg>