<?xml version="1.0" encoding="utf-8"?>
<!-- Generator: Adobe Illustrator 27.6.1, SVG Export Plug-In . SVG Version: 6.00 Build 0)  -->
<svg version="1.1" id="Layer_1" xmlns="http://www.w3.org/2000/svg" xmlns:xlink="http://www.w3.org/1999/xlink" x="0px" y="0px"
	 viewBox="0 0 120 120" style="enable-background:new 0 0 120 120;" xml:space="preserve">
<style type="text/css">
	.st0{fill:#D1D3D4;}
	.st1{fill:#E22426;}
	.st2{fill:#020202;}
</style>
<path class="st0" d="M109.6865,3.2227c3.916,0,7.0908,3.1748,7.0908,7.0908v99.372c0,3.919-3.1748,7.0918-7.0908,7.0918h-99.374
	c-3.916,0-7.0908-3.1728-7.0908-7.0918v-99.372c0-3.916,3.1748-7.0908,7.0908-7.0908H109.6865 M109.6865,0h-99.374
	C4.625,0,0,4.625,0,10.3135v99.372C0,115.373,4.625,120,10.3125,120h99.374C115.374,120,120,115.373,120,109.6855v-99.372
	C120,4.625,115.374,0,109.6865,0L109.6865,0z"/>
<g>
	<g>
		<path class="st1" d="M71.8052,26.8696c0.9453,0,1.5449-0.3564,1.5449-0.7568c0-0.3955-0.5996-0.6914-1.5449-0.6914
			c-0.9502,0-1.5381,0.3261-1.5381,0.7207C70.2671,26.5434,70.855,26.8696,71.8052,26.8696z"/>
		<path class="st1" d="M109.687,3.2222H10.313c-3.916,0-7.0908,3.1748-7.0908,7.0908v99.373c0,3.917,3.1748,7.0918,7.0908,7.0918
			h99.374c3.916,0,7.0908-3.1748,7.0908-7.0918V10.313C116.7778,6.397,113.603,3.2222,109.687,3.2222z M92.52,74.0591
			c-1.5674,0.9092-2.5908,0.706-3.3681,0c-1.5118,0.0927-2.8731,0.1718-4.3877,0.2705c0.5566,0.4726,1.3183,0.7236,1.875,1.2002
			c2.2715-0.6504,3.4551,0.2246,3.8554,2.0771c0.3047,0.7481,0.4463,1.5176,0.3155,2.3174
			c-0.2207-0.7314-0.5742-1.3613-1.2237-1.7539c-2.0224,0.5137-2.7841-0.3125-2.8945-1.5244
			c-0.9746-0.7949-2.4463-0.9707-3.4189-1.7774c-1.1397,0.3653-1.6895,0.5918-2.836,0.9532
			c-0.4082,1.2392-1.331,1.7295-2.8271,1.4091c-1.7823,0.0577-1.4678,0.7891-1.6133,1.3741
			c-0.4736-0.8409-0.46-1.6563,0.6377-2.4004c0.4004-1.0869,1.2861-1.5801,2.4463-0.9522c1.0908-0.3105,1.3789-0.7549,2.4658-1.0654
			c-2.751-0.877-4.7031-1.0752-7.4541-1.9502c-0.6885,0.6494-1.2334,1.1162-1.9277,1.6953c-0.3653,0.2188-0.7139,0.2725-0.9307,0
			c-1.7236-2.4941-2.4922-4.6924-4.0938-6.3369c-0.6113-0.6807-1.3857-1.5996-2.2421-1.8232
			c-0.4297-0.1114-0.9561-0.043-1.2911,0.3222c-0.3349,0.3662-0.5986,1.042-0.4873,2.0479
			c0.1612,1.4453,0.5098,1.9013,0.9141,2.7676c0.4063,0.8662,0.9014,1.3984,1.4111,2.0625
			c1.0186,1.3271,2.3623,2.0986,3.1563,2.6171c1.5918,1.0372,2.2656,0.5821,3.4961,0.5166
			c1.5928,0.1807,2.0146,0.9551,0.7119,2.0254c-1.2188,0.6348-2.3135,0.7129-3.2031,0.5489
			c-0.7627-0.1426-1.6563-1.128-2.294-1.6582c-0.7177-0.8282-1.9052,0.1543-1.0947,1.1171c1.4727,1.752,2.9463,2.9063,4.7627,2.8809
			c1.9092,0.2578,1.5508,1.3291,0.2842,1.8516c-2.2793,0.9414-4.3389-0.8213-5.3828-1.9795
			c-0.8086-0.8838-1.3819-0.917-1.2393,0.4492c0.7998,2.4756,1.8965,3.4316,3.6836,3.5566
			c1.4473-0.1357,1.4619,0.9834,0.4043,1.7393c-2.415,1.6709-4.1631-1.1748-4.9805-2.8945
			c-0.582-1.5518-1.4736-0.8135-1.5674,0.4638c-0.0117,1.71,0.7588,3.1035,2.8272,4.8526c-1.582,2.5205-3.4268,5.084-5.0098,7.6133
			c-1.583-2.5293-3.4277-5.0928-5.0097-7.6133c2.0683-1.7491,2.8398-3.1426,2.8281-4.8516
			c-0.0918-1.2783-0.9863-2.0166-1.5684-0.4648c-0.8174,1.7197-2.5654,4.5654-4.9804,2.8945
			c-1.0586-0.7559-1.043-1.875,0.4052-1.7393c1.7862-0.125,2.8828-1.081,3.6836-3.5556c0.1426-1.3672-0.4316-1.334-1.2373-0.4492
			c-1.0469,1.1572-3.1064,2.9199-5.3857,1.9785c-1.2666-0.5225-1.624-1.5938,0.2851-1.8516
			c1.8164,0.0254,3.2891-1.1289,4.7627-2.8799c0.8106-0.9638-0.3779-1.9463-1.0947-1.1181
			c-0.6377,0.5302-1.5312,1.5175-2.2959,1.6582c-0.8877,0.164-1.9834,0.0859-3.2021-0.5489
			c-1.3028-1.0703-0.8799-1.8447,0.7119-2.0254c1.2314,0.0655,1.9062,0.5206,3.4961-0.5166c0.7949-0.5175,2.1386-1.29,3.1562-2.6171
			c0.5108-0.6631,1.0059-1.1963,1.4111-2.0625c0.4053-0.8663,0.754-1.3223,0.9151-2.7676c0.1113-1.0059-0.1524-1.6817-0.4883-2.0479
			c-0.335-0.3652-0.8613-0.4336-1.291-0.3222c-0.8555,0.2236-1.6289,1.1425-2.2422,1.8232
			c-1.6016,1.6445-2.3701,3.8428-4.0938,6.3369c-0.2148,0.2725-0.5654,0.2188-0.9287,0c-0.6953-0.5791-1.2392-1.0459-1.9306-1.6953
			c-2.7481,0.875-4.7012,1.0732-7.4541,1.9502c1.0888,0.3105,1.3769,0.7549,2.4687,1.0654c1.1592-0.6279,2.044-0.1347,2.4453,0.9522
			c1.0977,0.7441,1.1104,1.5595,0.6387,2.4004c-0.1465-0.585,0.167-1.3164-1.6152-1.3721c-1.4971,0.3184-2.419-0.1719-2.8262-1.4111
			c-1.1465-0.3614-1.6982-0.5879-2.8369-0.9522c-0.9717,0.8057-2.4434,0.9815-3.4199,1.7764
			c-0.1094,1.2119-0.8702,2.0381-2.8946,1.5244c-0.6484,0.3926-1.0019,1.0225-1.2216,1.7539
			c-0.1319-0.7998,0.0107-1.5693,0.3154-2.3174c0.3984-1.8525,1.584-2.7275,3.8545-2.0771c0.5566-0.4766,1.3183-0.7276,1.875-1.1992
			c-1.5137-0.0997-2.875-0.1788-4.3887-0.2715c-0.7754,0.706-1.7998,0.9101-3.3672,0c-0.375-0.3858-0.9189-0.2793-1.7842,0.0761
			c0.5508-0.9765,0.8916-0.9961,1.6944-1.1181c1.0556-1.2412,2.2304-1.3272,3.7051,0.2549c1.5449,0.0468,2.622,0.0752,4.1708,0.1269
			c-0.83-0.6992-1.2714-1.2363-2.1005-1.9346c-1.2745,0.4053-2.5196,0.2676-3.0606-1.1543
			c-0.4131-0.4814-0.8721-0.7646-1.9258-0.8037c0.7295-0.6093,1.3369-0.832,2.6534-0.2236c1.9433-0.874,2.1054,0.3662,2.4531,1.1768
			c1.3164,0.8642,2.3808,1.5966,3.6972,2.4609c2.6846-0.7842,4.8633-1.2227,7.545-2.0039
			c-0.5811-0.6016-1.1641-1.1504-1.7471-1.7539c-0.1523-0.5117,0.1143-0.7695,0.5547-0.8486
			c4.3379-0.878,6.8174-2.5899,8.3262-6.9366c0.6308-1.8193-0.7325-2.3593-1.2002-1.2451c-0.6504,1.542-1.3623,3.2402-3.3077,4.5508
			c-0.6738,0.4551-2.6699,0.0869-1.4931-1.0195c1.2304-0.9776,1.7529-1.4073,2.3623-3.8018c0-1.2217-1.2695-1.7646-1.9795-0.5996
			c-0.751,2.3896-0.833,3.4209-2.1973,4.9561c-1.0381,1.1689-2.3926,1.9492-3.0605,1.9355
			c-1.2129-0.0234-2.4278-1.2969-0.8096-2.2197c2.3682-0.9258,3.2363-2.1983,3.585-3.4053c0.3808-2.1064-0.0342-3.1299-1.336-2.0918
			c-1.8447,2.0459-5.3662,5.8682-7.207,7.6416c-2.0703,1.5518-4.4365,1.6006-6.3291,0.0313
			c-1.0791-1.2149-0.6943-2.5293,0.9961-2.2422c3.8154,0.3144,6.7119-1.543,9.8789-6.5479c0.626-1.1396,0.7969-2.7568-0.5781-1.5527
			c-1.5811,2.0908-3.8858,3.874-6.0293,4.6347c-2.1465,0.7608-4.1338,0.4981-4.6133-0.3222
			c-0.7959-1.3604-0.6152-2.8584,0.8252-2.3623c1.1797,0.4052,2.8486,0.5107,4.583-0.1504
			c1.7334-0.6602,3.5332-2.0869,5.4512-4.5088c0.6533-1.3691,0.4375-2.5273-0.8838-1.8203
			c-3.1406,2.6035-7.1846,4.7119-9.2549,3.4414c-1.5176-0.9297-1.5469-3.3076,0.3818-3.1563
			c3.8897,0.5254,5.3604-0.3232,9.0889-3.5488c0.8555-0.6201,0.7939-2.1855-0.5547-1.1855c-3.1426,1.9775-7.4267,2.75-9.1123,1.7187
			c-1.5146-0.9307-1.29-3.7578,1.2608-2.7529c2.0371,1.2119,4.2949,1.1767,8.8125-1.9795c1.1376-0.9219,0.29-2.1338-0.6446-1.6143
			c-3.6318,2.0264-8.9228,2.8897-10.3056-1.2216c-0.5303-1.5772,0.4336-2.4942,1.8593-1.4034
			c3.1172,2.8213,6.6563,1.4336,8.6328,0.0157c0.5176-0.0205,1.6143-1.9834-0.2177-1.6797
			c-4.7305,1.0615-9.4073,0.1425-10.251-3.1348c-0.5-1.0635,0.4727-2.9394,2.1973-1.3643c2.2734,2.1944,4.6826,2.2696,7.7021,2.25
			c1.543-0.3125,1.5557-1.9775,0.2705-2.2197c-2.3877,0.0518-4.75-0.9707-6.6377-2.0107c-1.8418-1.0322-3.374-2.4863-3.8554-4.5
			c-0.2979-1.8037,1.4746-3.7168,2.5498-1.8076c1.5781,2.8027,5.0869,5.4355,8.9775,5.9101
			c0.2012-0.332,0.7168-1.1816,1.3418-0.9443c2.292,0.8672,5.456,2.3242,8.0635,3.7627c0.5644,0.3144-0.0987,1.8281-0.2266,2.4101
			c-0.1279,1.4805,0.3272,2.4258,0.7959,2.9756c0.4688,0.5508,1.749,0.9121,2.4688,0.7207
			c1.4394-0.3838,2.2128-1.6338,1.9707-3.8545c-0.0743-0.2353-0.1358-1.3027-1.3116-2.6924
			c-0.5918-0.6982-1.4179-1.5908-2.7304-2.3027c-1.3106-0.7119-3.294-1.1084-5.6846-1.6279
			c-1.4531-0.2842-2.1914-0.833-2.2803-1.417c0.6963,0.1611,1.8369,0.751,2.5889,0.6074c0.7363-0.1416,1.1103-0.5,1.4385-0.7051
			c-0.5479-0.1152-1.5547,0.0157-2.4532,0.0137c-0.8964,0-1.6875-0.1885-2.2187-0.2764c-1.1055-0.1806-1.9805-0.6318-2.5049-1.6435
			c-0.2266-1.0869,0.501-1.2842,1.1856-0.585c0.5791,0.5957,0.6953,0.8379,1.0634,1.0957c0.3692,0.2588,0.9903,0.5078,1.4327,0.585
			c0.8994,0.1572,1.7861,0.334,2.9326,0.0605c-0.2256-0.2841-0.7364-0.7431-1.2002-1.0273
			c-0.4629-0.2842-0.916-0.4248-1.3496-0.3525c-0.2901,0.0478-0.6651,0.3046-0.9746,0.7792
			c-0.1915-1.1943,0.1484-2.5361,3.3984-1.9804c-0.0449-0.8955,1.8916-1.2871,3.0586-1.2666
			c0.6621,0.0117,2.0166,0.3994,2.9922,0.8554c1.5439,0.4668,3.0781,0.8086,4.8759,0.9366c-1.038,0.872-1.2412,0.9218-2.289,1.666
			c1.5849,0.5762,2.8115,1.7695,3.3603,2.5488c-1.3818,0.0674-1.8408-0.0498-2.3086,0.1504
			c1.9258,0.5596,2.7989,0.8848,3.8165,1.9053c-0.3604,0.0664-0.8965,0.1621-1.1241,0.247
			c-0.2373,0.0889-0.1386,0.212,0.0215,0.3838c0.4424,0.2754,2.1338,2.2666,2.6328,2.7286c0.499-0.462,2.1905-2.4532,2.6328-2.7286
			c0.1612-0.1718,0.2598-0.2949,0.0215-0.3838c-0.2265-0.0849-0.7637-0.1806-1.125-0.247c1.0186-1.0205,1.8916-1.3457,3.8184-1.9053
			c-0.4678-0.2002-0.9248-0.083-2.3096-0.1504c0.5508-0.7793,1.7764-1.9726,3.3604-2.5488c-1.0479-0.7442-1.251-0.794-2.2881-1.666
			c1.7969-0.128,3.331-0.4688,4.875-0.9366c0.9756-0.456,2.331-0.8437,2.9912-0.8554c1.168-0.0205,3.1045,0.3711,3.0605,1.2685
			c3.251-0.5576,3.5889,0.7842,3.3975,1.9785c-0.3086-0.4746-0.6856-0.7314-0.9746-0.7792
			c-0.4336-0.0723-0.8877,0.0683-1.3486,0.3525c-0.4649,0.2842-0.9737,0.7432-1.2012,1.0273
			c1.1465,0.2735,2.0332,0.0967,2.9336-0.0605c0.4414-0.0772,1.0625-0.3262,1.4316-0.585c0.3682-0.2578,0.4844-0.5,1.0645-1.0957
			c0.6836-0.6992,1.4131-0.5019,1.1855,0.585c-0.5224,1.0117-1.4004,1.4629-2.5058,1.6435
			c-0.5293,0.0879-1.3233,0.2764-2.2188,0.2764c-0.8975,0.002-1.9053-0.1289-2.4541-0.0137
			c0.3301,0.2051,0.7031,0.5635,1.4414,0.7051c0.751,0.1436,1.8926-0.4463,2.5869-0.6074c-0.0888,0.584-0.8261,1.1328-2.2802,1.417
			c-2.3877,0.5195-4.3731,0.916-5.6836,1.6279c-1.3125,0.7119-2.1397,1.6045-2.7315,2.3027
			c-1.1748,1.3897-1.2373,2.4571-1.3115,2.6924c-0.2402,2.2207,0.5312,3.4707,1.9736,3.8545
			c0.7168,0.1914,1.9971-0.1699,2.4658-0.7207c0.4688-0.5498,0.9248-1.4951,0.7959-2.9756c-0.1269-0.582-0.791-2.0957-0.2255-2.4101
			c2.6064-1.4385,5.7705-2.8955,8.0615-3.7627c0.6269-0.2373,1.1416,0.6123,1.3437,0.9443
			c3.8897-0.4746,7.3975-3.1074,8.9766-5.9101c1.0771-1.9092,2.8476,0.0039,2.5508,1.8076c-0.4815,2.0137-2.0147,3.4678-3.8545,4.5
			c-1.8897,1.04-4.251,2.0625-6.6377,2.0107c-1.2871,0.2422-1.2744,1.9072,0.2705,2.2197c3.0176,0.0196,5.4277-0.0556,7.7002-2.25
			c1.7246-1.5751,2.6963,0.3008,2.1982,1.3643c-0.8447,3.2773-5.5205,4.1963-10.2519,3.1348
			c-1.8321-0.3037-0.7364,1.6592-0.2178,1.6797c1.9775,1.4179,5.5166,2.8056,8.6338-0.0157
			c1.4248-1.0908,2.3896-0.1738,1.8584,1.4034c-1.3818,4.1113-6.6709,3.248-10.3047,1.2216
			c-0.9355-0.5195-1.7832,0.6924-0.6445,1.6143c4.5166,3.1562,6.7744,3.1914,8.8115,1.9795
			c2.5518-1.0049,2.7754,1.8222,1.2607,2.7529c-1.6836,1.0313-5.9697,0.2588-9.1123-1.7187c-1.3476-1-1.4091,0.5654-0.5556,1.1855
			c3.7314,3.2256,5.2011,4.0742,9.0908,3.5488c1.9277-0.1513,1.8974,2.2266,0.3818,3.1563
			c-2.0713,1.2705-6.1152-0.8379-9.2539-3.4414c-1.3222-0.707-1.539,0.4512-0.8857,1.8203
			c1.9189,2.4219,3.7187,3.8486,5.4521,4.5088c1.7344,0.6611,3.4024,0.5556,4.5821,0.1504c1.4404-0.4961,1.621,1.0019,0.8261,2.3623
			c-0.4804,0.8203-2.4687,1.083-4.6123,0.3222c-2.1455-0.7607-4.4492-2.5439-6.0312-4.6347
			c-1.375-1.2041-1.2041,0.4131-0.5772,1.5527c3.166,5.0049,6.0615,6.8623,9.878,6.5479c1.6904-0.2871,2.0751,1.0273,0.997,2.2422
			c-1.8916,1.5693-4.2588,1.5205-6.331-0.0303c-1.8399-1.7744-5.3604-5.5967-7.2061-7.6426
			c-1.3017-1.0381-1.7178-0.0146-1.3349,2.0918c0.3466,1.207,1.2158,2.4795,3.5849,3.4053
			c1.6182,0.9248,0.4024,2.1963-0.8105,2.2197c-0.668,0.0137-2.0225-0.7666-3.0596-1.9355
			c-1.3652-1.5352-1.4463-2.5665-2.1982-4.9561c-0.709-1.165-1.9786-0.6211-1.9805,0.5996
			c0.6103,2.3945,1.1328,2.8242,2.3642,3.8037c1.1758,1.1045-0.8203,1.4727-1.4941,1.0195
			c-1.9453-1.3125-2.6562-3.0107-3.3076-4.5527c-0.4678-1.1142-1.8311-0.5742-1.1973,1.2451
			c1.5069,4.3467,3.9854,6.0586,8.3233,6.9366c0.4404,0.0791,0.708,0.3369,0.5556,0.8486c-0.582,0.6035-1.165,1.1523-1.747,1.7539
			c2.6806,0.7812,4.8603,1.2197,7.5449,2.0039c1.3183-0.8652,2.3799-1.5967,3.6963-2.4609
			c0.3476-0.8106,0.5097-2.0508,2.4531-1.1768c1.3164-0.6084,1.9248-0.3857,2.6543,0.2236
			c-1.0547,0.0391-1.5137,0.3223-1.9268,0.8037c-0.541,1.4209-1.7861,1.5596-3.0605,1.1543
			c-0.8291,0.6983-1.2705,1.2354-2.0996,1.9346c1.5478-0.0517,2.626-0.0801,4.1699-0.1269
			c1.4746-1.5821,2.6504-1.4961,3.7061-0.2549c0.8037,0.122,1.1445,0.1416,1.6933,1.1162
			C93.44,73.7798,92.895,73.6733,92.52,74.0591z"/>
		<path class="st1" d="M48.1948,25.4214c-0.9463,0-1.5449,0.2959-1.5449,0.6914c0,0.4004,0.5986,0.7568,1.5449,0.7568
			c0.9493,0,1.5381-0.3262,1.5381-0.7275C49.7329,25.7475,49.1441,25.4214,48.1948,25.4214z"/>
		<path class="st2" d="M92.6109,73.0171c-1.0557-1.2412-2.2315-1.3272-3.7061,0.2549c-1.5439,0.0468-2.6221,0.0752-4.1699,0.1269
			c0.8291-0.6992,1.2705-1.2363,2.0996-1.9346c1.2744,0.4053,2.5195,0.2666,3.0605-1.1543
			c0.4131-0.4814,0.8721-0.7646,1.9268-0.8037c-0.7295-0.6093-1.3379-0.832-2.6543-0.2236
			c-1.9434-0.874-2.1055,0.3662-2.4531,1.1768c-1.3164,0.8642-2.378,1.5957-3.6963,2.4609
			c-2.6846-0.7842-4.8643-1.2227-7.5449-2.0039c0.582-0.6016,1.165-1.1504,1.747-1.7539c0.1524-0.5117-0.1152-0.7695-0.5556-0.8486
			c-4.3379-0.878-6.8164-2.5899-8.3233-6.9366c-0.6338-1.8193,0.7295-2.3593,1.1973-1.2451
			c0.6514,1.542,1.3623,3.2402,3.3076,4.5527c0.6738,0.4532,2.6699,0.085,1.4941-1.0195c-1.2314-0.9795-1.7539-1.4092-2.3642-3.8037
			c0.0019-1.2207,1.2715-1.7646,1.9805-0.5996c0.7519,2.3896,0.833,3.4209,2.1982,4.9561c1.0371,1.1689,2.3916,1.9492,3.0596,1.9355
			c1.2129-0.0234,2.4287-1.2949,0.8105-2.2197c-2.3691-0.9258-3.2383-2.1983-3.5849-3.4053
			c-0.3829-2.1064,0.0332-3.1299,1.3349-2.0918c1.8457,2.0459,5.3662,5.8682,7.2061,7.6426
			c2.0722,1.5508,4.4394,1.5996,6.331,0.0303c1.0781-1.2149,0.6934-2.5293-0.997-2.2422c-3.8165,0.3144-6.712-1.543-9.878-6.5479
			c-0.6269-1.1396-0.7978-2.7568,0.5772-1.5527c1.582,2.0908,3.8857,3.874,6.0312,4.6347c2.1436,0.7608,4.1319,0.4981,4.6123-0.3222
			c0.7949-1.3604,0.6143-2.8584-0.8261-2.3623c-1.1797,0.4052-2.8477,0.5107-4.5821-0.1504
			c-1.7334-0.6602-3.5332-2.0869-5.4521-4.5088c-0.6533-1.3691-0.4365-2.5273,0.8857-1.8203
			c3.1387,2.6035,7.1826,4.7119,9.2539,3.4414c1.5156-0.9297,1.5459-3.3076-0.3818-3.1563
			c-3.8897,0.5254-5.3594-0.3232-9.0908-3.5488c-0.8535-0.6201-0.792-2.1855,0.5556-1.1855c3.1426,1.9775,7.4287,2.75,9.1123,1.7187
			c1.5147-0.9307,1.2911-3.7578-1.2607-2.7529c-2.0371,1.2119-4.2949,1.1767-8.8115-1.9795
			c-1.1387-0.9219-0.291-2.1338,0.6445-1.6143c3.6338,2.0264,8.9229,2.8897,10.3047-1.2216
			c0.5312-1.5772-0.4336-2.4942-1.8584-1.4034c-3.1172,2.8213-6.6563,1.4336-8.6338,0.0157
			c-0.5186-0.0205-1.6143-1.9834,0.2178-1.6797c4.7314,1.0615,9.4072,0.1425,10.2519-3.1348
			c0.4981-1.0635-0.4736-2.9394-2.1982-1.3643c-2.2725,2.1944-4.6826,2.2696-7.7002,2.25
			c-1.5449-0.3125-1.5576-1.9775-0.2705-2.2197c2.3867,0.0518,4.748-0.9707,6.6377-2.0107c1.8398-1.0322,3.373-2.4863,3.8545-4.5
			c0.2968-1.8037-1.4737-3.7168-2.5508-1.8076c-1.5791,2.8027-5.0869,5.4355-8.9766,5.9101
			c-0.2021-0.332-0.7168-1.1816-1.3437-0.9443c-2.291,0.8672-5.4551,2.3242-8.0615,3.7627
			c-0.5655,0.3144,0.0986,1.8281,0.2255,2.4101c0.1289,1.4805-0.3271,2.4258-0.7959,2.9756
			c-0.4687,0.5508-1.749,0.9121-2.4658,0.7207c-1.4424-0.3838-2.2138-1.6338-1.9736-3.8545
			c0.0742-0.2353,0.1367-1.3027,1.3115-2.6924c0.5918-0.6982,1.419-1.5908,2.7315-2.3027c1.3105-0.7119,3.2959-1.1084,5.6836-1.6279
			c1.4541-0.2842,2.1914-0.833,2.2802-1.417c-0.6943,0.1611-1.8359,0.751-2.5869,0.6074c-0.7383-0.1416-1.1113-0.5-1.4414-0.7051
			c0.5488-0.1152,1.5566,0.0157,2.4541,0.0137c0.8955,0,1.6895-0.1885,2.2188-0.2764c1.1054-0.1806,1.9834-0.6318,2.5058-1.6435
			c0.2276-1.0869-0.5019-1.2842-1.1855-0.585c-0.5801,0.5957-0.6963,0.8379-1.0645,1.0957
			c-0.3691,0.2588-0.9902,0.5078-1.4316,0.585c-0.9004,0.1572-1.7871,0.334-2.9336,0.0605
			c0.2275-0.2841,0.7363-0.7431,1.2012-1.0273c0.4609-0.2842,0.915-0.4248,1.3486-0.3525c0.289,0.0478,0.666,0.3046,0.9746,0.7792
			c0.1914-1.1943-0.1465-2.5361-3.3975-1.9785c0.044-0.8974-1.8925-1.289-3.0605-1.2685c-0.6602,0.0117-2.0156,0.3994-2.9912,0.8554
			c-1.544,0.4678-3.0781,0.8086-4.875,0.9366c1.0371,0.872,1.2402,0.9218,2.2881,1.666c-1.584,0.5762-2.8096,1.7695-3.3604,2.5488
			c1.3848,0.0674,1.8418-0.0498,2.3096,0.1504c-1.9268,0.5596-2.7998,0.8848-3.8184,1.9053c0.3613,0.0664,0.8985,0.1621,1.125,0.247
			c0.2383,0.0889,0.1397,0.212-0.0215,0.3838c-0.4423,0.2754-2.1338,2.2666-2.6328,2.7286c-0.499-0.462-2.1904-2.4532-2.6328-2.7286
			c-0.1601-0.1718-0.2588-0.2949-0.0215-0.3838c0.2276-0.0849,0.7637-0.1806,1.1241-0.247
			c-1.0176-1.0205-1.8907-1.3457-3.8165-1.9053c0.4678-0.2002,0.9268-0.083,2.3086-0.1504
			c-0.5488-0.7793-1.7754-1.9726-3.3603-2.5488c1.0478-0.7442,1.251-0.794,2.289-1.666c-1.7978-0.128-3.332-0.4698-4.8759-0.9366
			c-0.9756-0.456-2.3301-0.8437-2.9922-0.8554c-1.167-0.0205-3.1035,0.3711-3.0586,1.2666c-3.25-0.5557-3.5899,0.7861-3.3984,1.9804
			c0.3095-0.4746,0.6845-0.7314,0.9746-0.7792c0.4336-0.0723,0.8867,0.0683,1.3496,0.3525
			c0.4638,0.2842,0.9746,0.7432,1.2002,1.0273c-1.1465,0.2735-2.0332,0.0967-2.9326-0.0605
			c-0.4424-0.0772-1.0635-0.3262-1.4327-0.585c-0.3681-0.2578-0.4843-0.5-1.0634-1.0957c-0.6846-0.6992-1.4122-0.5019-1.1856,0.585
			c0.5244,1.0117,1.3994,1.4629,2.5049,1.6435c0.5312,0.0879,1.3223,0.2764,2.2187,0.2764c0.8985,0.002,1.9053-0.1289,2.4532-0.0137
			c-0.3282,0.2051-0.7022,0.5635-1.4385,0.7051c-0.752,0.1436-1.8926-0.4463-2.5889-0.6074c0.0889,0.584,0.8272,1.1328,2.2803,1.417
			c2.3906,0.5195,4.374,0.916,5.6846,1.6279c1.3125,0.7119,2.1386,1.6045,2.7304,2.3027c1.1758,1.3897,1.2373,2.4571,1.3116,2.6924
			c0.2421,2.2207-0.5313,3.4707-1.9707,3.8545c-0.7198,0.1914-2-0.1699-2.4688-0.7207c-0.4687-0.5498-0.9238-1.4951-0.7959-2.9756
			c0.1279-0.582,0.791-2.0957,0.2266-2.4101c-2.6075-1.4385-5.7715-2.8955-8.0635-3.7627c-0.625-0.2373-1.1406,0.6123-1.3418,0.9443
			c-3.8906-0.4746-7.3994-3.1074-8.9775-5.9101c-1.0752-1.9092-2.8477,0.0039-2.5498,1.8076c0.4814,2.0137,2.0136,3.4678,3.8554,4.5
			c1.8877,1.04,4.25,2.0625,6.6377,2.0107c1.2852,0.2422,1.2725,1.9072-0.2705,2.2197c-3.0195,0.0196-5.4287-0.0556-7.7021-2.25
			c-1.7246-1.5751-2.6973,0.3008-2.1973,1.3643c0.8437,3.2773,5.5205,4.1963,10.251,3.1348
			c1.832-0.3037,0.7353,1.6592,0.2177,1.6797c-1.9765,1.4179-5.5156,2.8056-8.6328-0.0157
			c-1.4257-1.0908-2.3896-0.1738-1.8593,1.4034c1.3828,4.1113,6.6738,3.248,10.3056,1.2216
			c0.9346-0.5195,1.7822,0.6924,0.6446,1.6143c-4.5176,3.1562-6.7754,3.1914-8.8125,1.9795
			c-2.5508-1.0049-2.7754,1.8222-1.2608,2.7529c1.6856,1.0313,5.9697,0.2588,9.1123-1.7187c1.3486-1,1.4102,0.5654,0.5547,1.1855
			c-3.7285,3.2256-5.1992,4.0742-9.0889,3.5488c-1.9287-0.1513-1.8994,2.2266-0.3818,3.1563
			c2.0703,1.2705,6.1143-0.8379,9.2549-3.4414c1.3213-0.707,1.5371,0.4512,0.8838,1.8203c-1.918,2.4219-3.7178,3.8486-5.4512,4.5088
			c-1.7344,0.6611-3.4033,0.5556-4.583,0.1504c-1.4404-0.4961-1.6211,1.0019-0.8252,2.3623
			c0.4795,0.8203,2.4668,1.083,4.6133,0.3222c2.1435-0.7607,4.4482-2.5439,6.0293-4.6347c1.375-1.2041,1.2041,0.4131,0.5781,1.5527
			c-3.167,5.0049-6.0635,6.8623-9.8789,6.5479c-1.6904-0.2871-2.0752,1.0273-0.9961,2.2422
			c1.8926,1.5693,4.2588,1.5205,6.3291-0.0313c1.8408-1.7734,5.3623-5.5957,7.207-7.6416c1.3018-1.0381,1.7168-0.0146,1.336,2.0918
			c-0.3487,1.207-1.2168,2.4795-3.585,3.4053c-1.6182,0.9228-0.4033,2.1963,0.8096,2.2197
			c0.6679,0.0137,2.0224-0.7666,3.0605-1.9355c1.3643-1.5352,1.4463-2.5665,2.1973-4.9561c0.71-1.165,1.9795-0.6221,1.9795,0.5996
			c-0.6094,2.3945-1.1319,2.8242-2.3623,3.8018c-1.1768,1.1064,0.8193,1.4746,1.4931,1.0195
			c1.9454-1.3106,2.6573-3.0088,3.3077-4.5508c0.4677-1.1142,1.831-0.5742,1.2002,1.2451
			c-1.5088,4.3467-3.9883,6.0586-8.3262,6.9366c-0.4404,0.0791-0.707,0.3369-0.5547,0.8486c0.583,0.6035,1.166,1.1523,1.7471,1.7539
			c-2.6817,0.7812-4.8604,1.2197-7.545,2.0039c-1.3164-0.8643-2.3808-1.5967-3.6972-2.4609
			c-0.3477-0.8106-0.5098-2.0508-2.4531-1.1768c-1.3165-0.6084-1.9239-0.3857-2.6534,0.2236
			c1.0537,0.0391,1.5127,0.3223,1.9258,0.8037c0.541,1.4219,1.7861,1.5596,3.0606,1.1543c0.8291,0.6983,1.2705,1.2354,2.1005,1.9346
			c-1.5488-0.0517-2.6259-0.0801-4.1708-0.1269c-1.4747-1.5821-2.6495-1.4961-3.7051-0.2549
			c-0.8028,0.122-1.1436,0.1416-1.6944,1.1181c0.8653-0.3554,1.4092-0.4619,1.7842-0.0761c1.5674,0.9101,2.5918,0.706,3.3672,0
			c1.5137,0.0927,2.875,0.1718,4.3887,0.2715c-0.5567,0.4716-1.3184,0.7226-1.875,1.1992
			c-2.2705-0.6504-3.4561,0.2246-3.8545,2.0771c-0.3047,0.7481-0.4473,1.5176-0.3154,2.3174
			c0.2197-0.7314,0.5732-1.3613,1.2216-1.7539c2.0244,0.5137,2.7852-0.3125,2.8946-1.5244
			c0.9765-0.7949,2.4482-0.9707,3.4199-1.7764c1.1387,0.3643,1.6904,0.5908,2.8369,0.9522
			c0.4072,1.2392,1.3291,1.7295,2.8262,1.4111c1.7822,0.0557,1.4687,0.7871,1.6152,1.3721c0.4717-0.8409,0.459-1.6563-0.6387-2.4004
			c-0.4013-1.0869-1.2861-1.5801-2.4453-0.9522c-1.0918-0.3105-1.3799-0.7549-2.4687-1.0654
			c2.7529-0.877,4.706-1.0752,7.4541-1.9502c0.6914,0.6494,1.2353,1.1162,1.9306,1.6953c0.3633,0.2188,0.7139,0.2725,0.9287,0
			c1.7237-2.4941,2.4922-4.6924,4.0938-6.3369c0.6133-0.6807,1.3867-1.5996,2.2422-1.8232c0.4297-0.1114,0.956-0.043,1.291,0.3222
			c0.3359,0.3662,0.5996,1.042,0.4883,2.0479c-0.1611,1.4453-0.5098,1.9013-0.9151,2.7676
			c-0.4052,0.8662-0.9003,1.3994-1.4111,2.0625c-1.0176,1.3271-2.3613,2.0996-3.1562,2.6171
			c-1.5899,1.0372-2.2647,0.5821-3.4961,0.5166c-1.5918,0.1807-2.0147,0.9551-0.7119,2.0254
			c1.2187,0.6348,2.3144,0.7129,3.2021,0.5489c0.7647-0.1407,1.6582-1.128,2.2959-1.6582c0.7168-0.8282,1.9053,0.1543,1.0947,1.1181
			c-1.4736,1.751-2.9463,2.9053-4.7627,2.8799c-1.9091,0.2578-1.5517,1.3291-0.2851,1.8516
			c2.2793,0.9414,4.3388-0.8213,5.3857-1.9785c0.8057-0.8848,1.3799-0.918,1.2373,0.4492
			c-0.8008,2.4746-1.8974,3.4306-3.6836,3.5556c-1.4482-0.1357-1.4638,0.9834-0.4052,1.7393
			c2.415,1.6709,4.163-1.1748,4.9804-2.8945c0.5821-1.5518,1.4766-0.8135,1.5684,0.4648c0.0117,1.709-0.7598,3.1025-2.8281,4.8516
			c1.582,2.5205,3.4267,5.084,5.0097,7.6133c1.583-2.5293,3.4278-5.0928,5.0098-7.6133c-2.0684-1.7491-2.8389-3.1426-2.8272-4.8526
			c0.0938-1.2773,0.9854-2.0156,1.5674-0.4638c0.8174,1.7197,2.5655,4.5654,4.9805,2.8945c1.0576-0.7559,1.043-1.875-0.4043-1.7393
			c-1.7871-0.125-2.8838-1.081-3.6836-3.5566c-0.1426-1.3662,0.4307-1.333,1.2393-0.4492c1.0439,1.1582,3.1035,2.9209,5.3828,1.9795
			c1.2666-0.5225,1.625-1.5938-0.2842-1.8516c-1.8164,0.0254-3.29-1.1289-4.7627-2.8809c-0.8105-0.9628,0.377-1.9453,1.0947-1.1171
			c0.6377,0.5302,1.5313,1.5156,2.294,1.6582c0.8896,0.164,1.9843,0.0859,3.2031-0.5489c1.3027-1.0703,0.8809-1.8447-0.7119-2.0254
			c-1.2305,0.0655-1.9043,0.5206-3.4961-0.5166c-0.794-0.5185-2.1377-1.29-3.1563-2.6171
			c-0.5097-0.6641-1.0048-1.1963-1.4111-2.0625c-0.4043-0.8663-0.7529-1.3223-0.9141-2.7676
			c-0.1113-1.0059,0.1524-1.6817,0.4873-2.0479c0.335-0.3652,0.8614-0.4336,1.2911-0.3222
			c0.8564,0.2236,1.6308,1.1425,2.2421,1.8232c1.6016,1.6445,2.3702,3.8428,4.0938,6.3369c0.2168,0.2725,0.5654,0.2188,0.9307,0
			c0.6943-0.5791,1.2392-1.0459,1.9277-1.6953c2.751,0.875,4.7031,1.0732,7.4541,1.9502c-1.0869,0.3105-1.375,0.7549-2.4658,1.0654
			c-1.1602-0.6279-2.0459-0.1347-2.4463,0.9522c-1.0977,0.7441-1.1113,1.5595-0.6377,2.4004
			c0.1455-0.585-0.169-1.3164,1.6133-1.3741c1.4961,0.3204,2.4189-0.1699,2.8271-1.4091c1.1465-0.3614,1.6963-0.5879,2.836-0.9532
			c0.9726,0.8067,2.4443,0.9825,3.4189,1.7774c0.1104,1.2119,0.8721,2.0381,2.8945,1.5244c0.6495,0.3926,1.003,1.0225,1.2237,1.7539
			c0.1308-0.7998-0.0108-1.5693-0.3155-2.3174c-0.4003-1.8525-1.5839-2.7275-3.8554-2.0771
			c-0.5567-0.4766-1.3184-0.7276-1.875-1.2002c1.5146-0.0987,2.8759-0.1778,4.3877-0.2705c0.7773,0.706,1.8007,0.9092,3.3681,0
			c0.375-0.3858,0.92-0.2793,1.7842,0.0742C93.7554,73.1587,93.4146,73.1391,92.6109,73.0171z M71.8052,25.4214
			c0.9453,0,1.5449,0.2959,1.5449,0.6914c0,0.4004-0.5996,0.7568-1.5449,0.7568c-0.9502,0-1.5381-0.3262-1.5381-0.7275
			C70.2671,25.7475,70.855,25.4214,71.8052,25.4214z M48.1948,26.8696c-0.9463,0-1.5449-0.3564-1.5449-0.7568
			c0-0.3955,0.5986-0.6914,1.5449-0.6914c0.9493,0,1.5381,0.3261,1.5381,0.7207C49.7329,26.5434,49.1441,26.8696,48.1948,26.8696z"
			/>
	</g>
</g>
</svg>
