<?xml version="1.0" encoding="utf-8"?>
<!-- Generator: Adobe Illustrator 27.6.1, SVG Export Plug-In . SVG Version: 6.00 Build 0)  -->
<svg version="1.1" id="Layer_1" xmlns="http://www.w3.org/2000/svg" xmlns:xlink="http://www.w3.org/1999/xlink" x="0px" y="0px"
	 viewBox="0 0 120 120" style="enable-background:new 0 0 120 120;" xml:space="preserve">
<style type="text/css">
	.st0{fill:#D1D3D4;}
	.st1{fill:#FFFFFF;}
	.st2{fill:#51ACDF;}
	.st3{fill:#FCB415;}
	.st4{fill:#993420;}
	.st5{fill:#97351F;}
</style>
<path class="st0" d="M109.6865,3.2227c3.916,0,7.0908,3.1748,7.0908,7.0908v99.372c0,3.919-3.1748,7.0918-7.0908,7.0918h-99.374
	c-3.916,0-7.0908-3.1728-7.0908-7.0918v-99.372c0-3.916,3.1748-7.0908,7.0908-7.0908H109.6865 M109.6865,0h-99.374
	C4.625,0,0,4.625,0,10.3135v99.372C0,115.373,4.625,120,10.3125,120h99.374C115.374,120,120,115.373,120,109.6855v-99.372
	C120,4.625,115.374,0,109.6865,0L109.6865,0z"/>
<g>
	<g>
		<path class="st1" d="M64.2681,65.1196c-0.0196,0.0166-0.0401,0.0322-0.0596,0.0479
			C64.228,65.1518,64.2485,65.1362,64.2681,65.1196z"/>
		<polygon class="st1" points="54.1314,63.1675 54.1314,63.1675 54.1314,63.1675 		"/>
		<path class="st1" d="M65.8765,63.147c-0.0078,0.0166-0.0156,0.0302-0.0244,0.0459C65.8609,63.1772,65.8687,63.1626,65.8765,63.147
			z"/>
		<path class="st1" d="M66.3648,58.0141c0.0019,0.004,0.0029,0.0098,0.0039,0.0137C66.3677,58.0239,66.3667,58.0181,66.3648,58.0141
			z"/>
		<path class="st1" d="M66.3677,61.979c-0.001,0.0019-0.001,0.0039-0.002,0.0059C66.3667,61.9829,66.3667,61.9809,66.3677,61.979z"
			/>
		<path class="st1" d="M65.1626,64.2153c-0.0137,0.0186-0.0273,0.0352-0.043,0.0528
			C65.1343,64.2505,65.1489,64.2329,65.1626,64.2153z"/>
		<path class="st1" d="M66.6333,60.6509c-0.0019,0.0215-0.0039,0.041-0.0068,0.0634
			C66.6294,60.6919,66.6314,60.6724,66.6333,60.6509z"/>
		<path class="st1" d="M62.0005,66.3608c-0.0166,0.0049-0.0332,0.0098-0.0498,0.0147
			C61.9673,66.3706,61.9839,66.3657,62.0005,66.3608z"/>
		<path class="st1" d="M54.8306,55.7925c0.0146-0.0205,0.0303-0.0391,0.0459-0.0576C54.8609,55.7534,54.8462,55.772,54.8306,55.7925
			z"/>
		<path class="st1" d="M54.1177,56.8618c0.0107-0.0215,0.0224-0.042,0.0332-0.0615C54.1401,56.8198,54.1284,56.8403,54.1177,56.8618
			z"/>
		<path class="st1" d="M53.6235,58.0513c0.004-0.0157,0.0088-0.0313,0.0127-0.0469C53.6314,58.02,53.6275,58.0356,53.6235,58.0513z"
			/>
		<path class="st1" d="M58.0015,53.6391c0.0146-0.0039,0.0283-0.0087,0.0429-0.0126
			C58.0298,53.6313,58.0161,53.6352,58.0015,53.6391z"/>
		<path class="st1" d="M53.3735,59.2749c-0.0039,0.0303-0.0068,0.0625-0.0097,0.0928
			C53.3667,59.3374,53.3696,59.3052,53.3735,59.2749L53.3735,59.2749z"/>
		<polygon class="st1" points="53.3657,60.6714 53.3667,60.6802 53.3667,60.6802 		"/>
		<path class="st1" d="M55.729,54.8833c0.0186-0.0166,0.0381-0.0322,0.0576-0.0479C55.7661,54.8511,55.7476,54.8667,55.729,54.8833z
			"/>
		<path class="st1" d="M63.1382,54.1196c0.0195,0.0098,0.0381,0.0195,0.0566,0.0303
			C63.1763,54.1391,63.1577,54.1294,63.1382,54.1196z"/>
		<path class="st1" d="M65.1128,55.7261c0.0215,0.0244,0.042,0.0498,0.0625,0.0761C65.1548,55.7759,65.1343,55.7505,65.1128,55.7261
			z"/>
		<path class="st1" d="M59.3472,66.6343c-0.0156-0.002-0.0313-0.003-0.0479-0.0039C59.3159,66.6313,59.3316,66.6323,59.3472,66.6343
			z"/>
		<path class="st1" d="M3.2222,80.0015h113.5556v-40H3.2222V80.0015z M43.4448,59.6938c0.0928-0.0312,0.1836-0.0312,0.1953-0.0312
			l9.4053-0.3555c-0.4765-0.1328-0.9082-0.166-1.3564-0.1992c-0.7822-0.0605-1.5889-0.1211-2.709-0.6943
			c-1.4248-0.7295-2.169-0.6963-2.8281-0.669c-0.3506,0.0166-0.6817,0.0303-1.0733-0.0674
			c-0.8506-0.2138-1.3291-0.6923-1.417-1.0459c-0.0459-0.1884,0.0284-0.29,0.0791-0.333c0.167-0.1504,0.3379,0,0.4737,0.1201
			c0.1845,0.1602,0.4326,0.3799,0.8681,0.4131c0.21,0.0166,0.4737-0.0136,0.7784-0.0478c0.8564-0.0957,2.0273-0.2285,3.3769,0.4785
			c0.874,0.457,1.7217,0.4883,2.6201,0.5215c0.3936,0.0146,0.7949,0.0303,1.2051,0.082l-8.3105-3.8154
			c-0.0176-0.0069-0.21-0.0908-0.2754-0.25c-0.0323-0.0742-0.0313-0.1543,0.0019-0.2295c0.0889-0.2149,0.3399-0.2256,0.5352-0.1426
			l8.8261,3.2715c-0.3877-0.3047-0.7763-0.501-1.1767-0.7041c-0.6983-0.3535-1.4219-0.7197-2.2363-1.6777
			c-1.0391-1.2188-1.7393-1.4746-2.3594-1.7002c-0.3301-0.1211-0.6406-0.2334-0.9629-0.4737
			c-0.7051-0.5224-0.9668-1.1484-0.9102-1.5088c0.0293-0.1923,0.1377-0.2568,0.2002-0.2783
			c0.2129-0.0752,0.3135,0.1309,0.3936,0.294c0.1064,0.2187,0.2529,0.5156,0.6426,0.7138c0.1884,0.0948,0.4423,0.168,0.7382,0.253
			c0.8252,0.2392,1.959,0.5654,2.9356,1.7343c0.6318,0.7569,1.4033,1.1094,2.2207,1.4844c0.3584,0.1651,0.7217,0.333,1.083,0.5371
			l-6.2197-6.7051c-0.003-0.0039-0.0684-0.0693-0.1114-0.1582c-0.0732-0.1464-0.0585-0.289,0.042-0.3896
			c0.1651-0.1641,0.4024-0.0772,0.5508,0.0732l6.9024,6.4004c-0.2422-0.4306-0.5264-0.7607-0.8184-1.1006
			c-0.5098-0.5957-1.0381-1.2099-1.4248-2.4062c-0.4902-1.5234-1.043-2.0283-1.5264-2.4727
			c-0.2607-0.2382-0.5039-0.4619-0.7109-0.8076c-0.4502-0.7519-0.4522-1.4297-0.2627-1.7422c0.1006-0.166,0.2246-0.1855,0.29-0.1797
			c0.2256,0.0118,0.2393,0.2393,0.252,0.4229c0.0156,0.2412,0.0371,0.5723,0.3223,0.9043c0.1357,0.1592,0.3437,0.3252,0.5839,0.5166
			c0.6729,0.5361,1.5928,1.2715,2.0489,2.7246c0.2929,0.9424,0.8711,1.5645,1.4824,2.2227c0.2695,0.289,0.54,0.5839,0.7959,0.9101
			l-3.1797-8.5752c-0.0019-0.0049-0.0371-0.0898-0.043-0.1894c-0.0127-0.1641,0.0567-0.2891,0.1875-0.3428
			c0.2149-0.0899,0.4014,0.082,0.4825,0.2773l3.9248,8.5547c-0.0586-0.4902-0.1934-0.9033-0.334-1.3301
			c-0.2442-0.7451-0.4961-1.5136-0.3955-2.7675c0.1299-1.5948-0.1856-2.2725-0.4639-2.8701
			c-0.1484-0.3174-0.2891-0.6182-0.3486-1.0167c-0.126-0.8671,0.1318-1.4941,0.4258-1.7099
			c0.1542-0.1152,0.2783-0.084,0.3369-0.0567c0.2041,0.0997,0.1289,0.3145,0.0703,0.4883c-0.0791,0.2295-0.1856,0.543-0.0479,0.959
			c0.0645,0.2002,0.1924,0.4317,0.3408,0.7002c0.4161,0.7529,0.9864,1.7842,0.8506,3.3027
			c-0.0898,0.9825,0.2071,1.7774,0.5205,2.6202c0.1368,0.3701,0.2745,0.7461,0.3868,1.1455l0.3437-9.1397
			c0-0.0049,0-0.0957,0.0313-0.1914c0.0517-0.1553,0.163-0.2451,0.3056-0.2451s0.2539,0.0898,0.3067,0.2461
			c0.0302,0.0947,0.0312,0.1855,0.0312,0.1953l0.3545,9.4063c0.1338-0.4756,0.167-0.9083,0.2012-1.3565
			c0.0595-0.7822,0.1201-1.5898,0.6924-2.709c0.7304-1.4248,0.6963-2.1699,0.6699-2.8291
			c-0.0156-0.3506-0.0303-0.6826,0.0674-1.0722c0.2129-0.8497,0.6923-1.3311,1.0459-1.417c0.1875-0.0469,0.291,0.0283,0.3339,0.0771
			c0.1495,0.168-0.0019,0.3389-0.121,0.4756c-0.1602,0.1826-0.3799,0.4326-0.4122,0.8682
			c-0.0175,0.2099,0.0127,0.4726,0.0479,0.7773c0.0947,0.8555,0.2275,2.0273-0.4805,3.377c-0.457,0.873-0.4883,1.7226-0.5205,2.6201
			c-0.0156,0.3926-0.0312,0.7939-0.081,1.206l3.8164-8.3125c0-0.0049,0.0351-0.0888,0.1006-0.164
			c0.1064-0.125,0.2451-0.1641,0.3769-0.1084c0.2149,0.0888,0.2246,0.3398,0.1436,0.5361l-3.2725,8.8252
			c0.3047-0.3887,0.501-0.7764,0.7041-1.1787c0.3535-0.6973,0.7197-1.4199,1.6777-2.2354c1.2188-1.0361,1.4747-1.7392,1.7002-2.3584
			c0.1192-0.33,0.2334-0.6406,0.4746-0.9638c0.5215-0.7041,1.1485-0.9649,1.5079-0.9092c0.1914,0.0293,0.2568,0.1377,0.2793,0.1992
			c0.0722,0.2129-0.1319,0.3135-0.2959,0.3936c-0.2168,0.1064-0.5147,0.2539-0.7129,0.6445
			c-0.0957,0.1875-0.168,0.4424-0.253,0.7373c-0.2392,0.8271-0.5654,1.959-1.7353,2.9346
			c-0.7559,0.6328-1.1104,1.4043-1.4844,2.2226c-0.1631,0.3574-0.333,0.7207-0.5371,1.0821l6.707-6.2198
			c0.0108-0.0117,0.1621-0.1582,0.335-0.1582c0.0801,0,0.1533,0.0313,0.2129,0.0889c0.164,0.166,0.0771,0.4014-0.0742,0.5518
			l-6.4004,6.9013c0.4306-0.2422,0.7597-0.5244,1.1006-0.8183c0.5947-0.5098,1.2099-1.0391,2.4062-1.4239
			c1.5234-0.4922,2.0283-1.042,2.4736-1.5283c0.2373-0.2588,0.461-0.5039,0.8067-0.7099c0.7519-0.4502,1.4297-0.4522,1.7422-0.2627
			c0.166,0.1005,0.1836,0.2255,0.1797,0.291c-0.0127,0.2246-0.2393,0.2392-0.4229,0.2509
			c-0.2412,0.0157-0.5723,0.0372-0.9043,0.3223c-0.1601,0.1358-0.3242,0.3438-0.5156,0.583
			c-0.5391,0.6729-1.2725,1.5947-2.7276,2.0498c-0.9404,0.293-1.5625,0.8711-2.2207,1.4834
			c-0.288,0.2686-0.5849,0.5381-0.9111,0.7959l8.5762-3.1806c0.0176-0.0079,0.2119-0.084,0.3711-0.0176
			c0.0732,0.0303,0.1299,0.0869,0.1601,0.1631c0.0557,0.1318,0.0166,0.2695-0.1084,0.3769
			c-0.0752,0.0645-0.1591,0.0996-0.1689,0.1045L66.689,57.98c0.4902-0.0586,0.9033-0.1953,1.3301-0.335
			c0.7441-0.2441,1.5127-0.4961,2.7685-0.3955c1.5957,0.1299,2.2705-0.1865,2.8692-0.4648
			c0.3173-0.1485,0.6171-0.2891,1.0166-0.3487c0.8671-0.1269,1.4931,0.1309,1.7109,0.4258c0.1133,0.1563,0.083,0.2783,0.0547,0.3379
			c-0.0987,0.2012-0.3135,0.1279-0.4864,0.0703c-0.2304-0.0781-0.5439-0.1855-0.9599-0.0498
			c-0.1983,0.0664-0.4307,0.1924-0.7012,0.3428c-0.7529,0.415-1.7842,0.9863-3.3008,0.8496
			c-0.9853-0.0879-1.7802,0.206-2.622,0.5205c-0.3692,0.1377-0.7461,0.2744-1.1475,0.3857l9.1436,0.3438
			c0.0039-0.0029,0.0937,0,0.1894,0.0312c0.1563,0.0537,0.2461,0.1641,0.2461,0.3067s-0.0898,0.2549-0.2461,0.3066
			c-0.0937,0.0313-0.1836,0.0313-0.1953,0.0313h-0.002l-9.4033,0.3545c0.4746,0.1337,0.9082,0.166,1.3555,0.2002
			c0.7822,0.0605,1.5889,0.121,2.708,0.6933c1.4258,0.7305,2.1719,0.6973,2.8301,0.6699c0.3506-0.0166,0.6826-0.0302,1.0732,0.0674
			c0.8496,0.2149,1.3291,0.6924,1.417,1.0459c0.0469,0.1885-0.0293,0.2901-0.0791,0.333c-0.0488,0.0459-0.1006,0.0635-0.1474,0.0635
			c-0.1192,0-0.2315-0.0986-0.3282-0.1836c-0.1826-0.1601-0.4306-0.3799-0.8662-0.4131c-0.2129-0.0166-0.4736,0.0137-0.7783,0.0479
			c-0.8564,0.0957-2.0273,0.2275-3.3779-0.4785c-0.8731-0.4571-1.7217-0.4893-2.6192-0.5215
			c-0.3935-0.0147-0.7949-0.0303-1.206-0.0821l8.3115,3.8155c0.0059,0.0019,0.0898,0.0371,0.165,0.1025
			c0.125,0.1084,0.1641,0.2451,0.1084,0.377c-0.0888,0.2148-0.3408,0.2246-0.5361,0.1425l-8.8262-3.2714
			c0.3887,0.3046,0.7774,0.5009,1.1778,0.7041c0.6982,0.3535,1.4218,0.7197,2.2363,1.6777
			c1.0381,1.2187,1.7392,1.4746,2.3594,1.7002c0.3281,0.1211,0.6406,0.2334,0.9629,0.4736c0.705,0.5225,0.9648,1.1485,0.9091,1.5088
			c-0.0283,0.1924-0.1367,0.2568-0.1992,0.2793c-0.0303,0.0098-0.0596,0.0147-0.0849,0.0147c-0.1563,0-0.2393-0.17-0.3096-0.3096
			c-0.1055-0.2188-0.252-0.5156-0.6426-0.7139c-0.1875-0.0947-0.4414-0.1679-0.7373-0.2529
			c-0.8271-0.2393-1.9609-0.5654-2.9355-1.7344c-0.6319-0.7568-1.4034-1.1094-2.2207-1.4844c-0.3584-0.165-0.7217-0.333-1.084-0.538
			l6.2207,6.706c0.1474,0.1465,0.2324,0.3838,0.0683,0.5479c-0.164,0.165-0.4013,0.0771-0.5517-0.0733l-6.9004-6.4004
			c0.2422,0.4307,0.5254,0.7608,0.8183,1.1006c0.5108,0.5957,1.0381,1.21,1.4239,2.4063c0.4912,1.5234,1.042,2.0283,1.5283,2.4746
			c0.2588,0.2363,0.5029,0.4599,0.71,0.8056c0.4501,0.752,0.4521,1.4297,0.2626,1.7422c-0.0927,0.1543-0.208,0.1807-0.2773,0.1807
			c-0.0039,0-0.0088,0-0.0137,0c-0.2246-0.0127-0.2402-0.2402-0.2509-0.4238c-0.0157-0.2413-0.0372-0.5723-0.3223-0.9043
			c-0.1358-0.1592-0.3438-0.3252-0.585-0.5166c-0.6709-0.5362-1.5918-1.2715-2.0478-2.7256
			c-0.293-0.9414-0.8721-1.5635-1.4834-2.2227c-0.2686-0.2881-0.541-0.583-0.7949-0.9092l3.1796,8.5752
			c0.0079,0.0166,0.084,0.211,0.0176,0.3702c-0.0303,0.0742-0.0879,0.1308-0.1631,0.1621
			c-0.1318,0.0546-0.2695,0.0156-0.3759-0.1094c-0.0664-0.0752-0.1006-0.1592-0.1055-0.169l-3.9248-8.5537
			c0.0576,0.4903,0.1933,0.9034,0.332,1.3301c0.2451,0.7451,0.4981,1.5147,0.3975,2.7676
			c-0.1299,1.5947,0.1855,2.2724,0.4629,2.8701c0.1494,0.3174,0.29,0.6182,0.3496,1.0166c0.126,0.8672-0.1319,1.4941-0.4258,1.71
			c-0.0859,0.0625-0.1602,0.082-0.2197,0.082c-0.0518,0-0.0909-0.0137-0.1172-0.0254c-0.2022-0.0996-0.1289-0.3144-0.0703-0.4883
			c0.0761-0.2295,0.1845-0.5429,0.0478-0.959c-0.0654-0.2002-0.1933-0.4316-0.3408-0.7002
			c-0.416-0.7529-0.9863-1.7841-0.8506-3.3027c0.0879-0.9824-0.206-1.7773-0.5185-2.6201
			c-0.1397-0.3682-0.2764-0.7461-0.3887-1.1455l-0.3438,9.1396c0,0.0049,0,0.0957-0.0312,0.1914
			c-0.0518,0.1553-0.1631,0.2452-0.3057,0.2452s-0.2539-0.0899-0.3066-0.2461c-0.0303-0.0948-0.0332-0.1856-0.0332-0.1953
			l-0.3535-9.4053c-0.1328,0.4746-0.1661,0.9092-0.2002,1.3554c-0.0596,0.7823-0.1201,1.5899-0.6934,2.709
			c-0.7295,1.4248-0.6963,2.1709-0.6689,2.8291c0.0166,0.3506,0.0302,0.6827-0.0684,1.0723
			c-0.2119,0.8496-0.6924,1.3301-1.0449,1.417c-0.1875,0.0478-0.291-0.0274-0.335-0.0772c-0.1484-0.1679,0.002-0.3388,0.1221-0.4755
			c0.1601-0.1827,0.3799-0.4317,0.4121-0.8682c0.0176-0.21-0.0127-0.4727-0.0478-0.7774c-0.0967-0.8554-0.2276-2.0273,0.4794-3.3769
			c0.4581-0.8731,0.4883-1.7227,0.5215-2.6201c0.0147-0.3936,0.0303-0.794,0.0821-1.2061l-3.8155,8.3125
			c-0.0078,0.0166-0.0898,0.2071-0.25,0.2744c-0.0361,0.0157-0.0752,0.0235-0.1123,0.0235c-0.039,0-0.0791-0.0088-0.1172-0.0244
			c-0.2148-0.0899-0.2246-0.3409-0.1435-0.5371l3.2724-8.8262c-0.3046,0.3896-0.5009,0.7773-0.7041,1.1767
			c-0.3535,0.7002-0.7197,1.4229-1.6767,2.2383c-1.2197,1.0362-1.4766,1.7393-1.7012,2.3584
			c-0.1201,0.3301-0.2334,0.6406-0.4746,0.9639c-0.5215,0.7031-1.1475,0.9668-1.5088,0.9092
			c-0.1914-0.0293-0.2558-0.1377-0.2783-0.1993c-0.0732-0.2128,0.1318-0.3134,0.2959-0.3935
			c0.2158-0.1065,0.5146-0.2539,0.7119-0.6445c0.0967-0.1875,0.169-0.4424,0.2539-0.7373c0.2393-0.8262,0.5654-1.959,1.7354-2.9356
			c0.7558-0.6318,1.1093-1.4043,1.4834-2.2217c0.164-0.3574,0.3339-0.7207,0.5371-1.083l-6.7061,6.2207
			c-0.0019,0.003-0.0683,0.0674-0.1582,0.1114c-0.0605,0.0312-0.1201,0.0459-0.1767,0.0459c-0.0801,0-0.1534-0.0293-0.2129-0.0879
			c-0.1006-0.1006-0.1162-0.2432-0.0411-0.3907c0.043-0.0888,0.1065-0.1552,0.1153-0.1611l6.4004-6.9014
			c-0.4307,0.2422-0.7598,0.5244-1.1016,0.8184c-0.5947,0.5098-1.209,1.0391-2.4053,1.4238
			c-1.5244,0.4922-2.0283,1.042-2.4726,1.5283c-0.2383,0.2588-0.4629,0.5039-0.8086,0.71c-0.751,0.4502-1.4287,0.4522-1.7412,0.2627
			c-0.166-0.1006-0.1836-0.2256-0.1807-0.291c0.0137-0.2246,0.2402-0.2393,0.4229-0.251c0.2422-0.0156,0.5732-0.0371,0.9052-0.3223
			c0.1602-0.1357,0.3243-0.3437,0.5147-0.583c0.5371-0.6728,1.2734-1.5947,2.7265-2.0498c0.9415-0.2939,1.5645-0.8711,2.2227-1.4834
			c0.2881-0.2675,0.583-0.539,0.9111-0.7959l-8.5761,3.1807c-0.0039,0.0019-0.0899,0.0361-0.1895,0.0439
			c-0.0117,0-0.0224,0.002-0.0351,0.002c-0.1446,0-0.2579-0.0693-0.3067-0.1914c-0.0908-0.2158,0.0811-0.3994,0.2774-0.4815
			l8.5537-3.9257c-0.4912,0.0576-0.9043,0.1943-1.3301,0.3339c-0.7441,0.2442-1.5147,0.4961-2.7686,0.3946
			c-1.5947-0.128-2.2705,0.1875-2.8691,0.4658c-0.3174,0.1484-0.6172,0.2891-1.0166,0.3477
			c-0.8672,0.1279-1.4951-0.1299-1.71-0.4249c-0.1142-0.1562-0.0839-0.2783-0.0556-0.3378c0.0976-0.2022,0.3134-0.128,0.4863-0.0704
			c0.2305,0.0782,0.5439,0.1866,0.96,0.0489c0.1982-0.0655,0.4306-0.1934,0.7011-0.3418c0.752-0.4151,1.7823-0.9864,3.3008-0.8496
			c0.9824,0.0879,1.7783-0.2061,2.6221-0.5205c0.3691-0.1377,0.7461-0.2745,1.1474-0.3858l-9.1435-0.3437
			c-0.0147-0.003-0.2266-0.003-0.3477-0.1241c-0.0576-0.0576-0.0879-0.1318-0.0879-0.2138
			C43.1987,59.8579,43.2886,59.7456,43.4448,59.6938z"/>
		<path class="st1" d="M56.8569,65.8794c-0.0166-0.0078-0.0332-0.0176-0.0498-0.0264
			C56.8228,65.8638,56.8394,65.8716,56.8569,65.8794z"/>
		<path class="st1" d="M60.7007,53.3716c-0.0176-0.002-0.0332-0.003-0.0498-0.0049C60.6675,53.3686,60.6831,53.3696,60.7007,53.3716
			z"/>
		<path class="st1" d="M58.0366,66.3725c-0.0117-0.0029-0.0224-0.0068-0.0332-0.0107
			C58.0142,66.3657,58.0259,66.3696,58.0366,66.3725z"/>
		<path class="st1" d="M53.6372,61.9995c-0.0049-0.0186-0.0097-0.0361-0.0156-0.0537
			C53.6275,61.9634,53.6323,61.9809,53.6372,61.9995z"/>
		<path class="st1" d="M64.2173,54.8393c0.0146,0.0118,0.0283,0.0225,0.042,0.0332C64.2456,54.8618,64.2319,54.8511,64.2173,54.8393
			z"/>
		<path class="st1" d="M55.7749,65.1577c-0.0117-0.0098-0.0234-0.0195-0.0351-0.0303
			C55.7515,65.1382,55.7632,65.1479,55.7749,65.1577z"/>
		<path class="st1" d="M61.9634,53.6284c0.0107,0.0029,0.0215,0.0068,0.0322,0.0098
			C61.9849,53.6352,61.9741,53.6313,61.9634,53.6284z"/>
		<path class="st1" d="M54.8823,64.272c-0.0214-0.0254-0.0429-0.0528-0.0634-0.0791C54.8403,64.2192,54.8609,64.2466,54.8823,64.272
			z"/>
		<path class="st2" d="M3.2222,109.686c0,3.917,3.1748,7.0918,7.0908,7.0918h99.374c3.916,0,7.0908-3.1748,7.0908-7.0918V80.0015
			H3.2222V109.686z"/>
		<path class="st2" d="M109.687,3.2222H10.313c-3.916,0-7.0908,3.1748-7.0908,7.0908v29.6885h113.5556V10.313
			C116.7778,6.397,113.603,3.2222,109.687,3.2222z"/>
		<path class="st3" d="M56.7007,45.2876c0.0518,0.3603,0.1787,0.6308,0.3242,0.9433c0.293,0.627,0.624,1.3379,0.4902,3.004
			c-0.0976,1.2001,0.1465,1.9433,0.3809,2.663c0.1563,0.4707,0.3047,0.9258,0.3604,1.4825c0.0849-0.0235,0.1709-0.043,0.2578-0.0635
			c-0.1846-1.8125-1.1153-2.916-0.6485-4.2901c-0.206,1.6875,0.6563,2.6377,0.9834,4.2256
			c0.0987-0.0166,0.1993-0.0322,0.3008-0.0439c-0.1162-0.5293-0.293-1.0117-0.4687-1.4844
			c-0.3233-0.873-0.6299-1.6963-0.5362-2.7373c0.1289-1.4365-0.4179-2.4277-0.8183-3.1514
			c-0.1533-0.2783-0.2871-0.5214-0.3614-0.7451c-0.164-0.5-0.0341-0.8779,0.0498-1.1289c0.0186-0.0498,0.0401-0.1152,0.0479-0.1562
			c-0.0186,0.0078-0.0479,0.0244-0.084,0.0595C56.8208,44.019,56.5825,44.4936,56.7007,45.2876z"/>
		<path class="st3" d="M43.4741,60.0239c0.0332,0.0342,0.126,0.0479,0.1641,0.0479l9.5293,0.3584
			c-0.0059-0.0918-0.0078-0.1846-0.0117-0.2774l-4.4073-0.1611l4.4073-0.1611c0.0039-0.087,0.0058-0.1739,0.0117-0.2608
			l-9.5215,0.3584c-0.0332,0.001-0.1797,0.0147-0.1797,0.0723C43.4663,60.0141,43.4693,60.019,43.4741,60.0239z"/>
		<path class="st3" d="M56.9878,53.853c0.083-0.04,0.167-0.0791,0.252-0.1162l-1.5372-4.1338l1.835,4.0108
			c0.0811-0.0313,0.1621-0.0616,0.2451-0.0889l-3.9756-8.6621c-0.0127-0.0283-0.081-0.1592-0.1347-0.1367
			c-0.0098,0.0029-0.0303,0.0107-0.0244,0.0781c0.0039,0.0547,0.0254,0.1084,0.0254,0.1094L56.9878,53.853z"/>
		<path class="st3" d="M54.8667,64.5249l-6.4834,6.9883c-0.0215,0.0234-0.1152,0.1377-0.0752,0.1787
			c0.041,0.04,0.1543-0.0547,0.1738-0.0742l6.9932-6.4854c-0.0693-0.0605-0.1367-0.123-0.2051-0.1885l-3.2324,3.0069l3.0049-3.2334
			C54.9839,64.6538,54.9243,64.5903,54.8667,64.5249z"/>
		<path class="st3" d="M54.0513,63.3843c-0.4453,0.3086-0.8252,0.6582-1.1944,1.0009c-0.6816,0.6338-1.3251,1.2305-2.3242,1.543
			c-1.3759,0.4317-2.081,1.3145-2.5967,1.9609c-0.2011,0.25-0.373,0.4668-0.5517,0.6211c-0.3984,0.3418-0.7969,0.3672-1.0606,0.3848
			c-0.0546,0.002-0.122,0.0078-0.163,0.0156c0.0127,0.0147,0.04,0.0342,0.0869,0.0537c0.2041,0.0889,0.7314,0.127,1.4218-0.2851
			c0.3116-0.1865,0.5127-0.4072,0.7471-0.6611c0.4658-0.5108,0.9971-1.0899,2.5869-1.6026
			c1.1455-0.3691,1.7403-0.8799,2.3145-1.3721c0.3779-0.3242,0.7402-0.6367,1.2363-0.9003
			c-0.0547-0.0704-0.1064-0.1416-0.1572-0.2139c-1.6065,0.8642-2.2705,2.1465-3.7197,2.2412
			c1.6377-0.4551,2.1855-1.6152,3.5293-2.5273C54.1538,63.5581,54.1011,63.4722,54.0513,63.3843z"/>
		<path class="st3" d="M56.0435,65.5825c-0.083-0.0586-0.1641-0.1182-0.2432-0.1797c-0.2949,0.4561-0.5117,0.9229-0.7227,1.3819
			c-0.3857,0.8457-0.7509,1.6445-1.5556,2.3164c-1.1065,0.9228-1.4199,2.0107-1.6485,2.8047
			c-0.0888,0.3066-0.166,0.5722-0.2724,0.7832c-0.2383,0.4697-0.5957,0.6464-0.833,0.7626
			c-0.0479,0.0235-0.1104,0.0538-0.1436,0.0772c0.0176,0.0068,0.0479,0.0156,0.1006,0.0166c0.002,0,0.0049,0,0.0068,0
			c0.2237,0,0.7227-0.1699,1.1973-0.8096c0.2168-0.291,0.3184-0.5713,0.4365-0.8955c0.2373-0.6504,0.5049-1.3867,1.7784-2.4707
			c0.916-0.7803,1.2705-1.4785,1.6123-2.1533c0.2236-0.4434,0.4423-0.8711,0.7978-1.3037c-0.0771-0.044-0.1533-0.0908-0.2285-0.1387
			c-1.1514,1.4141-1.2754,2.8526-2.5772,3.4951C55.0884,68.2212,55.1499,66.939,56.0435,65.5825z"/>
		<path class="st3" d="M49.1021,58.1763c1.0713,0.5488,1.8525,0.6084,2.6064,0.666c0.4951,0.0371,0.9727,0.0742,1.5068,0.2373
			c0.0137-0.0889,0.0264-0.1768,0.042-0.2647c-1.7461-0.5224-3.1211-0.0859-4.2129-1.042c1.4786,0.835,2.6885,0.4034,4.2813,0.7071
			c0.0215-0.0977,0.0459-0.1963,0.0713-0.292c-0.5313-0.0967-1.0459-0.1201-1.5498-0.1377
			c-0.9297-0.0342-1.8067-0.0664-2.7344-0.5528c-1.2764-0.6679-2.4004-0.541-3.2217-0.4492
			c-0.3174,0.0362-0.5937,0.0664-0.8281,0.0489c-0.5264-0.0401-0.8242-0.3028-1.0234-0.4776
			c-0.0411-0.0371-0.0918-0.081-0.126-0.1045c0,0.0205,0.0039,0.0518,0.0224,0.1016c0.0821,0.2051,0.4278,0.6055,1.2081,0.8017
			c0.3525,0.0899,0.6503,0.0752,0.996,0.0606C46.8306,57.4487,47.6148,57.4136,49.1021,58.1763z"/>
		<path class="st3" d="M53.522,57.7827c0.0312-0.0869,0.0644-0.1738,0.0967-0.2607l-4.0108-1.835l4.1348,1.5381
			c0.0361-0.0801,0.0713-0.1582,0.1103-0.2373l-8.9345-3.3125c-0.0303-0.0117-0.1719-0.0557-0.1944-0.002
			c-0.0224,0.0528,0.1094,0.1221,0.1338,0.1319L53.522,57.7827z"/>
		<path class="st3" d="M53.5845,51.0054c0.3691,1.1455,0.8789,1.7382,1.3721,2.3134c0.3232,0.377,0.6357,0.7422,0.8994,1.2364
			c0.0713-0.0537,0.1425-0.1065,0.2158-0.1563c-0.8652-1.6074-2.1475-2.2715-2.2422-3.7207
			c0.4551,1.6387,1.6152,2.1865,2.5254,3.5303c0.0859-0.0537,0.1728-0.1065,0.2607-0.1563
			c-0.3095-0.4463-0.6572-0.8252-1.0009-1.1943c-0.6338-0.6816-1.2325-1.3252-1.543-2.3242
			c-0.4317-1.375-1.3154-2.0811-1.9609-2.5967c-0.251-0.2002-0.4668-0.3721-0.6202-0.5508
			c-0.3427-0.4004-0.3691-0.7988-0.3857-1.0615c-0.0029-0.0547-0.0078-0.1231-0.0166-0.1631
			c-0.0127,0.0137-0.0332,0.04-0.0537,0.0869c-0.0879,0.2041-0.127,0.7324,0.2861,1.4219c0.1865,0.3115,0.4063,0.5137,0.6611,0.7471
			C52.4927,48.8852,53.0708,49.4155,53.5845,51.0054z"/>
		<path class="st3" d="M48.3814,48.4819l6.4853,6.9942c0.0615-0.0694,0.124-0.1377,0.1895-0.2041l-3.0059-3.2334l3.2324,3.0068
			c0.0635-0.0605,0.128-0.1201,0.1924-0.1777l-6.9892-6.4825c-0.0225-0.0214-0.1368-0.1181-0.1768-0.0771
			c-0.0078,0.0078-0.0244,0.0244,0.0059,0.082C48.3413,48.4419,48.3814,48.4819,48.3814,48.4819z"/>
		<path class="st3" d="M50.6304,54.146c0.7793,0.917,1.4785,1.2695,2.1543,1.6103c0.4414,0.2256,0.8691,0.4424,1.3027,0.7969
			c0.044-0.0762,0.0908-0.1523,0.1387-0.2256c-1.4141-1.1523-2.8526-1.2763-3.4942-2.5771
			c1.0469,1.3379,2.3301,1.4004,3.6856,2.2939c0.0586-0.083,0.1182-0.164,0.1807-0.2431c-0.4561-0.294-0.9248-0.5118-1.3838-0.7217
			c-0.8448-0.3867-1.6436-0.752-2.3135-1.5567c-0.9248-1.1064-2.0127-1.4189-2.8057-1.6484
			c-0.3086-0.0889-0.5742-0.166-0.7842-0.2725c-0.4697-0.2373-0.6464-0.5957-0.7626-0.833
			c-0.0235-0.0468-0.0538-0.1093-0.0772-0.1435c-0.0068,0.0176-0.0156,0.0488-0.0166,0.1006
			c-0.0029,0.2216,0.1641,0.7255,0.8066,1.2041c0.294,0.2168,0.5752,0.3173,0.8985,0.4365
			C48.8101,52.604,49.5464,52.8716,50.6304,54.146z"/>
		<path class="st3" d="M66.146,63.0132l8.9346,3.3125c0.0303,0.0117,0.1719,0.0556,0.1933,0.0019
			c0.0235-0.0537-0.1084-0.122-0.1338-0.1318l-8.665-3.9775c-0.0293,0.0869-0.0625,0.1738-0.0947,0.2607l4.0107,1.835
			l-4.1357-1.5381C66.2202,62.8559,66.1851,62.9341,66.146,63.0132z"/>
		<path class="st3" d="M61.813,53.3999c0.0967-0.5332,0.1182-1.0469,0.1357-1.5518c0.0352-0.9287,0.0664-1.8066,0.5528-2.7334
			c0.6689-1.2763,0.5429-2.4013,0.4492-3.2226c-0.0352-0.3194-0.0664-0.5928-0.0498-0.8272
			c0.043-0.5263,0.3057-0.8252,0.4795-1.0244c0.0361-0.039,0.082-0.0918,0.1035-0.125c-0.0215,0.001-0.0518,0.0029-0.1006,0.0215
			c-0.2051,0.082-0.6064,0.4287-0.8017,1.209c-0.0899,0.3515-0.0762,0.6504-0.0606,0.9951
			c0.0303,0.6904,0.0625,1.4756-0.6973,2.9619c-0.5488,1.0723-0.6084,1.8526-0.666,2.6074
			c-0.0361,0.4942-0.0742,0.9727-0.2363,1.5079c0.0879,0.0107,0.1748,0.0253,0.2627,0.04c0.5244-1.7461,0.0869-3.1211,1.043-4.2129
			c-0.834,1.4805-0.4034,2.6885-0.708,4.2803C61.6187,53.3491,61.7153,53.3725,61.813,53.3999z"/>
		<path class="st3" d="M56.9878,66.1479l-3.3144,8.9346c-0.0108,0.0293-0.0547,0.1709-0.002,0.1924
			c0.0518,0.0254,0.1221-0.1084,0.1328-0.1328l3.9785-8.666c-0.0879-0.0293-0.1748-0.0616-0.2607-0.0948l-1.836,4.0108
			l1.5381-4.1358C57.145,66.2222,57.065,66.185,56.9878,66.1479z"/>
		<path class="st3" d="M57.2681,59.0776c0-0.1582,0.0849-0.292,0.2051-0.376c-0.2823,0.0469-0.5596,0.1866-0.7422,0.4805
			c0.2177,0.1738,0.4931,0.2647,0.7744,0.2891C57.3657,59.3921,57.2681,59.2485,57.2681,59.0776z"/>
		<path class="st3" d="M59.9985,63.1655h-0.0078c-0.4043,0-0.6123-0.2988-1.499-0.1113c0.002,0,0.0049-0.001,0.0078-0.001
			c0.8926-0.0107,0.626,0.5703,1.4922,0.5703h0.0078c0.8672,0,0.6211-0.581,1.5235-0.5654
			C60.6109,62.8589,60.4068,63.1655,59.9985,63.1655z"/>
		<path class="st3" d="M59.9995,53.3345c-0.6797,0-1.3359,0.1035-1.9551,0.292c-0.0146,0.0039-0.0283,0.0087-0.0429,0.0126
			c-0.8174,0.2579-1.5664,0.6661-2.2149,1.1963c-0.0195,0.0157-0.039,0.0313-0.0576,0.0479
			c-0.3096,0.2578-0.5937,0.543-0.8525,0.8516c-0.0156,0.0185-0.0313,0.0371-0.0459,0.0576
			c-0.2559,0.3125-0.4844,0.6504-0.6797,1.0078c-0.0108,0.0195-0.0225,0.04-0.0332,0.0615
			c-0.1934,0.3613-0.3555,0.7441-0.4815,1.1426c-0.0039,0.0156-0.0087,0.0312-0.0127,0.0469
			c-0.1201,0.3935-0.2041,0.8027-0.25,1.2236l0,0c-0.0039,0.0303-0.0068,0.0625-0.0097,0.0928
			c-0.0195,0.2099-0.0313,0.4189-0.0313,0.6328c0,0.2275,0.0118,0.4511,0.0332,0.6709c0.001,0.0029,0.001,0.0058,0.001,0.0088l0,0
			c0.044,0.4365,0.1318,0.8584,0.2549,1.2656c0.0059,0.0176,0.0107,0.0351,0.0156,0.0537c0.1289,0.4072,0.294,0.7979,0.4942,1.168
			l0,0l0,0c0.1972,0.3642,0.4287,0.706,0.6875,1.0254c0.0205,0.0263,0.042,0.0537,0.0634,0.0791
			c0.2608,0.3105,0.5459,0.5966,0.8575,0.8554c0.0117,0.0108,0.0234,0.0205,0.0351,0.0303c0.3203,0.2627,0.666,0.4961,1.0322,0.6953
			c0.0166,0.0088,0.0332,0.0186,0.0498,0.0264c0.3633,0.1943,0.7461,0.3574,1.1465,0.4824
			c0.0108,0.0039,0.0215,0.0078,0.0332,0.0107c0.4063,0.125,0.8282,0.212,1.2627,0.2579c0.0166,0.0009,0.0323,0.0019,0.0479,0.0039
			c0.2148,0.0205,0.4316,0.0322,0.6523,0.0322c0.6787,0,1.334-0.1025,1.9512-0.291c0.0166-0.0049,0.0332-0.0098,0.0498-0.0147
			c0.8154-0.2568,1.5615-0.666,2.208-1.1933c0.0195-0.0157,0.04-0.0313,0.0596-0.0479c0.3086-0.2588,0.5937-0.543,0.8515-0.8515
			c0.0157-0.0176,0.0293-0.0342,0.043-0.0528c0.2598-0.3183,0.4922-0.6601,0.6895-1.0224c0.0088-0.0157,0.0166-0.0293,0.0244-0.0459
			c0.1972-0.3682,0.3623-0.7569,0.4892-1.1621c0.001-0.002,0.001-0.004,0.002-0.0059c0.125-0.4063,0.2119-0.8301,0.2588-1.2647
			c0.0029-0.0224,0.0049-0.0419,0.0068-0.0634c0.0205-0.2139,0.0322-0.4307,0.0322-0.6504c0-0.6865-0.1035-1.3496-0.2968-1.9727
			c-0.001-0.0039-0.002-0.0097-0.0039-0.0137c-0.2539-0.8164-0.6641-1.5634-1.1895-2.2119
			c-0.0205-0.0263-0.041-0.0517-0.0625-0.0761c-0.2588-0.3096-0.5439-0.5948-0.8535-0.8536
			c-0.0137-0.0107-0.0274-0.0214-0.042-0.0332c-0.3174-0.2597-0.6592-0.4912-1.0225-0.6894
			c-0.0185-0.0108-0.0371-0.0205-0.0566-0.0303c-0.3623-0.1933-0.7441-0.3555-1.1426-0.4814
			c-0.0107-0.003-0.0215-0.0069-0.0322-0.0098c-0.4063-0.124-0.8281-0.2119-1.2627-0.2568c-0.0176-0.002-0.0332-0.003-0.0498-0.0049
			C60.436,53.3462,60.2193,53.3345,59.9995,53.3345z M60.0288,61.6421c0.3897-0.0147,0.5879-0.3135,0.6377-0.4121
			c0.0098,0.1621,0.1445,0.2929,0.3076,0.2929c0.1709,0,0.3096-0.1386,0.3096-0.3086c0-0.1298-0.0811-0.248-0.2041-0.2929
			c0.2188,0.041,0.375,0.2353,0.375,0.458c0,0.2558-0.2109,0.457-0.4648,0.457c-0.1514,0-0.2891-0.0703-0.375-0.1943
			c-0.1778,0.1338-0.4239,0.1474-0.5547,0.1504c-0.0157,0-0.041,0-0.0606,0c-0.1318-0.003-0.3769-0.0166-0.5556-0.1504
			c-0.086,0.124-0.2237,0.1943-0.375,0.1943c-0.2549,0-0.4649-0.2012-0.4649-0.457c0-0.2227,0.1563-0.417,0.374-0.458
			c-0.122,0.0449-0.2011,0.1631-0.2011,0.2929c0,0.17,0.1367,0.3086,0.3076,0.3086c0.164,0,0.2969-0.1308,0.3076-0.2929
			C59.4419,61.3286,59.6401,61.6274,60.0288,61.6421z M61.6929,63.06c-0.2559-0.1025-0.4658-0.3037-0.8233-0.5097
			c-0.3603-0.2051-0.667,0.0449-0.8711,0.0449h-0.0078c-0.2041,0-0.5097-0.25-0.8701-0.0449
			c-0.3584,0.206-0.5605,0.4072-0.8164,0.5097c0.46-0.3066,0.6631-0.7724,1.1768-0.7724c0.1025,0,0.3056,0.0557,0.5097,0.1582
			h0.0078c0.2041-0.1025,0.4083-0.1582,0.5098-0.1582C61.023,62.2876,61.2319,62.7534,61.6929,63.06z M59.6499,58.0513
			c0.0703,0.1923,0.126,0.3867,0.1611,0.5849c0.1338,0.7617-0.0107,1.5606-0.4189,2.3399
			c-0.0498-0.0528-0.1523-0.1026-0.2051-0.1026c0.458-0.6465,0.6406-1.2783,0.5371-1.8613
			c-0.0527-0.3008-0.1816-0.5879-0.3818-0.8574c-0.8213-0.7686-2.3086-0.6153-3.4873,0.4101
			C56.9829,57.0278,58.522,57.1294,59.6499,58.0513z M57.7007,58.2583c-0.001,0-0.001,0-0.001,0H57.7007L57.7007,58.2583
			c0.666,0,0.8203,0.1543,1.1269,0.4101c0.3086,0.2569,0.462,0.2051,0.5137,0.2569c0.0508,0.0517,0,0.2051-0.1015,0.1533
			c-0.1036-0.0518-0.3096-0.1533-0.6163-0.4102c-0.3085-0.2568-0.6152-0.2568-0.9228-0.2568c-0.9229,0-1.4365,0.7695-1.5391,0.7178
			C56.0591,59.0786,56.6743,58.2593,57.7007,58.2583z M58.936,59.1304c-0.3466,0.2539-0.7675,0.3779-1.1728,0.4004
			c-0.0117,0.0009-0.0225,0.0068-0.0342,0.0068c-0.0058,0-0.0097-0.0029-0.0156-0.0029c-0.4736,0.0166-0.9199-0.1075-1.1924-0.3526
			c0.2568-0.4111,0.6924-0.6064,1.1484-0.6064C58.1245,58.5757,58.603,58.771,58.936,59.1304z M56.4683,59.3852h0.001
			c1.0253,0.4122,1.6406,0.4122,2.0517,0.2061c0.4092-0.2061,0.5127-0.3086,0.6152-0.3086c0.1026,0,0.1026,0.1025-0.4121,0.4111
			C58.2124,60.0015,57.3394,60.0532,56.4683,59.3852z M59.9995,63.9897c-0.4375,0-0.8213,0.3018-0.9219,0.7295
			c0-0.5107,0.4141-0.9238,0.9219-0.9238c0.5098,0,0.9239,0.4131,0.9239,0.9238C60.8218,64.2915,60.439,63.9897,59.9995,63.9897z
			 M59.9995,63.7798h-0.0078c-1.1279,0-0.6103-0.6162-1.6875-0.7198c0.0625-0.0058,0.1192-0.0058,0.1729-0.0058
			c0.3701-0.1094,0.6338-0.1504,0.831-0.1592c0.3379-0.0146,0.4903,0.0596,0.6826,0.0596h0.0078
			c0.3067,0,0.5108-0.2012,1.5303,0.1035c0.0547,0.001,0.1006-0.0039,0.166,0.0019C60.6167,63.1636,61.1275,63.7798,59.9995,63.7798
			z M61.3335,59.6938c-0.5127-0.3086-0.5127-0.4111-0.4111-0.4111c0.1025,0,0.2051,0.1025,0.6162,0.3086
			c0.4101,0.2061,1.0254,0.2061,2.0508-0.2061C62.7173,60.0532,61.8452,60.0015,61.3335,59.6938z M61.1255,59.1821
			c0.2559-0.4111,0.6924-0.6064,1.1465-0.6064c0.4541,0,0.9346,0.1953,1.2666,0.5547C62.771,59.6938,61.6382,59.645,61.1255,59.1821
			z M63.896,59.1294c-0.1025,0.0517-0.6142-0.7178-1.5371-0.7178c-0.3076,0-0.6162,0-0.9238,0.2568
			c-0.3076,0.2569-0.5137,0.3584-0.6153,0.4102c-0.1015,0.0518-0.1533-0.1016-0.1015-0.1533c0.0498-0.0518,0.2031,0,0.5127-0.2569
			c0.3066-0.2558,0.4609-0.4101,1.1279-0.4101C63.3833,58.2583,63.9995,59.0786,63.896,59.1294z M64.2036,58.5649h-0.001
			c-0.0009-0.0009-0.0009-0.0019-0.0019-0.0019c-1.1787-1.0235-2.6641-1.1758-3.4824-0.4082
			c-0.2022,0.2695-0.3311,0.5566-0.3838,0.8574c-0.1026,0.583,0.0791,1.2148,0.5371,1.8613c-0.0518,0-0.1533,0.0498-0.2061,0.1026
			c-0.4072-0.7793-0.5517-1.5782-0.417-2.3399c0.0342-0.1982,0.0889-0.3926,0.1602-0.5849c1.1279-0.9209,2.665-1.0235,3.792,0.5117
			C64.2017,58.563,64.2026,58.564,64.2036,58.5649z"/>
		<path class="st3" d="M63.0112,53.853l3.3125-8.9346c0.0127-0.0293,0.0567-0.1709,0.0039-0.1923
			c-0.0097-0.0039-0.0302-0.0137-0.0742,0.0361c-0.0371,0.0439-0.0586,0.0967-0.0586,0.0967l-3.9785,8.666
			c0.0889,0.0293,0.1748,0.0615,0.2608,0.0947l1.8359-4.0107l-1.5381,4.1357C62.855,53.7788,62.9341,53.8149,63.0112,53.853z"/>
		<path class="st3" d="M59.8472,53.1587l0.1611-4.4092l0.1611,4.4092c0.086,0.0019,0.1739,0.0049,0.2608,0.0107l-0.3584-9.5224
			c0-0.0332-0.0137-0.1836-0.0723-0.1807c-0.0107,0-0.0312,0.001-0.0527,0.0635c-0.0176,0.0537-0.0186,0.1093-0.0186,0.1113
			l-0.3574,9.5283C59.6626,53.1636,59.7544,53.1587,59.8472,53.1587z"/>
		<path class="st3" d="M61.7935,59.0776c0-0.1445,0.0703-0.2695,0.1748-0.3545c-0.2432,0.0645-0.4737,0.2041-0.6338,0.459
			c0.1914,0.1524,0.4287,0.2344,0.6728,0.2735C61.8823,59.3735,61.7935,59.2388,61.7935,59.0776z"/>
		<path class="st3" d="M66.2632,57.2407l4.1348-1.5371l-4.0108,1.835c0.0303,0.081,0.0606,0.163,0.0879,0.2451l8.6621-3.9756
			c0.0283-0.0127,0.1602-0.082,0.1367-0.1348c-0.0048-0.0117-0.0107-0.0156-0.0166-0.0185
			c-0.0429-0.0176-0.1347,0.0049-0.1699,0.0195l-8.9414,3.3145C66.187,57.0718,66.2261,57.1558,66.2632,57.2407z"/>
		<path class="st3" d="M66.8306,60.4311l9.5224-0.3584c0.0332-0.0009,0.1797-0.0146,0.1797-0.0722c0-0.0098,0-0.0313-0.0625-0.0528
			c-0.0537-0.0175-0.1113-0.0185-0.1113-0.0185l-9.5283-0.3584c0.0058,0.0918,0.0088,0.1846,0.0127,0.2773l4.4072,0.1612
			l-4.4072,0.1611C66.8394,60.2573,66.8364,60.3442,66.8306,60.4311z"/>
		<path class="st3" d="M68.1499,61.9507c0.9317,0.0342,1.8067,0.0664,2.7363,0.5517c1.2764,0.669,2.4004,0.542,3.2217,0.4502
			c0.3174-0.0361,0.5918-0.0674,0.8281-0.0488c0.5254,0.04,0.8243,0.3027,1.0235,0.4775c0.041,0.0371,0.0918,0.0811,0.125,0.1036
			c0.001-0.0196-0.0029-0.0508-0.0215-0.1006c-0.082-0.2051-0.4277-0.6055-1.208-0.8028c-0.3525-0.0888-0.6524-0.0742-0.9971-0.0595
			c-0.6894,0.0302-1.4736,0.0644-2.9609-0.6973c-1.0713-0.5488-1.8526-0.6084-2.6065-0.666
			c-0.4951-0.0362-0.9746-0.0742-1.5068-0.2363c-0.0146,0.0878-0.0273,0.1757-0.042,0.2626c1.7461,0.5235,3.1211,0.087,4.2129,1.043
			c-1.4805-0.8349-2.6885-0.4033-4.2812-0.708c-0.0215,0.0996-0.0459,0.1973-0.0723,0.293
			C67.1333,61.9097,67.647,61.9331,68.1499,61.9507z"/>
		<path class="st3" d="M58.19,59.0776c0,0.1319-0.0577,0.249-0.1475,0.334c0.1934-0.0654,0.3789-0.1641,0.5332-0.334
			c-0.041-0.1465-0.2734-0.2929-0.5664-0.3593C58.1167,58.8032,58.19,58.9292,58.19,59.0776z"/>
		<path class="st3" d="M70.9741,57.8677c-1.6884-0.2071-2.6377,0.6543-4.2265,0.9824c0.0156,0.0996,0.0312,0.1992,0.0449,0.3008
			c0.5283-0.1162,1.0117-0.293,1.4844-0.4688c0.8711-0.3232,1.6933-0.6299,2.7363-0.5361c1.4346,0.1289,2.4268-0.418,3.1514-0.8184
			c0.2793-0.1533,0.5214-0.2881,0.7451-0.3613c0.5-0.1641,0.8789-0.0361,1.1289,0.0518c0.0488,0.0166,0.1152,0.038,0.1543,0.0459
			c-0.0059-0.0176-0.0215-0.0459-0.0567-0.084c-0.1552-0.1582-0.6289-0.3975-1.4238-0.2784
			c-0.3603,0.0528-0.6308,0.1788-0.9443,0.3252c-0.626,0.292-1.3379,0.6231-3.003,0.4893c-1.2001-0.0977-1.9443,0.1455-2.663,0.3828
			c-0.4717,0.1533-0.9268,0.3027-1.4815,0.3584c0.0225,0.085,0.042,0.1719,0.0625,0.2588
			C68.4956,58.3306,69.5991,57.4009,70.9741,57.8677z"/>
		<path class="st3" d="M62.7173,59.0776c0,0.1475-0.0742,0.2735-0.1826,0.3574c0.2344-0.0556,0.4609-0.1552,0.6455-0.3574
			c-0.0479-0.1621-0.3272-0.3203-0.666-0.374C62.6333,58.7866,62.7173,58.9194,62.7173,59.0776z"/>
		<path class="st3" d="M63.9566,54.4184c0.082,0.0586,0.163,0.1182,0.2421,0.1797c0.295-0.457,0.5118-0.9228,0.7227-1.3818
			c0.3857-0.8457,0.751-1.6445,1.5557-2.3164c1.1064-0.9229,1.4189-2.0108,1.6484-2.8037c0.0889-0.3076,0.166-0.5733,0.2715-0.7842
			c0.2383-0.4697,0.5967-0.6465,0.833-0.7627c0.0478-0.0234,0.1113-0.0537,0.1445-0.0762
			c-0.0176-0.0088-0.0488-0.0166-0.1006-0.0175c-0.0029-0.001-0.0048-0.001-0.0068-0.001c-0.2246,0-0.7227,0.1709-1.1973,0.8105
			c-0.2168,0.2901-0.3183,0.5713-0.4365,0.8955c-0.2373,0.6494-0.5049,1.3868-1.7793,2.4707
			c-0.916,0.7803-1.2695,1.4786-1.6113,2.1534c-0.2236,0.4433-0.4424,0.8711-0.7979,1.3037
			c0.0772,0.0429,0.1534,0.0908,0.2286,0.1386c1.1513-1.414,1.2734-2.8525,2.5771-3.4951
			C64.9116,51.7817,64.8491,53.062,63.9566,54.4184z"/>
		<path class="st3" d="M49.0249,62.1333c1.6875,0.207,2.6377-0.6543,4.2266-0.9824c-0.0176-0.0996-0.0313-0.1993-0.0449-0.3008
			c-0.5284,0.1162-1.0118,0.293-1.4844,0.4687c-0.8721,0.3233-1.6953,0.6289-2.7383,0.5362
			c-1.4355-0.1299-2.4248,0.4179-3.1475,0.8183c-0.2802,0.1533-0.5234,0.2871-0.747,0.3604c-0.501,0.165-0.8789,0.0361-1.128-0.0508
			c-0.0507-0.0166-0.1162-0.0391-0.1572-0.0459c0.0078,0.0176,0.0234,0.0459,0.0596,0.084
			c0.1543,0.1582,0.6279,0.3955,1.4228,0.2783c0.3594-0.0527,0.6309-0.1787,0.9444-0.3252c0.6259-0.291,1.3369-0.623,3.0029-0.4892
			c1.2002,0.0957,1.9434-0.1465,2.6631-0.3829c0.4707-0.1533,0.9258-0.3017,1.4814-0.3574
			c-0.0224-0.0849-0.042-0.1728-0.0625-0.2597C51.5034,61.6704,50.3999,62.6001,49.0249,62.1333z"/>
		<path class="st3" d="M61.1499,66.7485c-0.0986,0.0156-0.1992,0.0323-0.3008,0.044c0.1162,0.5293,0.293,1.0117,0.4688,1.4843
			c0.3232,0.8731,0.6289,1.6963,0.5351,2.7383c-0.1289,1.4365,0.418,2.4268,0.8194,3.1504
			c0.1533,0.2783,0.2871,0.5215,0.3613,0.7451c0.1641,0.5,0.0342,0.878-0.0508,1.1289c-0.0176,0.0498-0.039,0.1153-0.0478,0.1563
			c0.0195-0.0078,0.0478-0.0244,0.0849-0.0596c0.1582-0.1543,0.3965-0.6289,0.2784-1.4238
			c-0.0528-0.3594-0.1788-0.6299-0.3243-0.9424c-0.2929-0.6269-0.624-1.3379-0.4902-3.0039
			c0.0977-1.2002-0.1465-1.9434-0.3828-2.6631c-0.1543-0.4707-0.3027-0.9267-0.3584-1.4824
			c-0.085,0.0234-0.1719,0.043-0.2578,0.0635c0.1845,1.8125,1.1142,2.916,0.6484,4.29
			C62.3394,69.2866,61.4771,68.3364,61.1499,66.7485z"/>
		<path class="st3" d="M62.2163,66.4761l3.9746,8.6621c0.0117,0.0283,0.0821,0.1601,0.1358,0.1367
			c0.0117-0.0049,0.0156-0.0108,0.0176-0.0166c0.0185-0.043-0.004-0.1348-0.0186-0.1709l-3.3154-8.9395
			c-0.0821,0.0391-0.166,0.0791-0.251,0.1162l1.5371,4.1338l-1.835-4.0107C62.3804,66.4184,62.2993,66.4487,62.2163,66.4761z"/>
		<path class="st3" d="M53.8521,63.0122c-0.0401-0.083-0.0791-0.167-0.1182-0.252l-4.1328,1.5372l4.0107-1.835
			c-0.0302-0.0811-0.0615-0.1631-0.0898-0.2451l-8.6602,3.9746c-0.0283,0.0137-0.1601,0.082-0.1377,0.1357
			c0.0039,0.0088,0.0127,0.0303,0.0791,0.0235c0.0557-0.003,0.1084-0.0245,0.1084-0.0245L53.8521,63.0122z"/>
		<path class="st3" d="M58.186,66.6001c-0.0966,0.5342-0.1191,1.0478-0.1357,1.5517c-0.0352,0.9297-0.0674,1.8067-0.5537,2.7344
			c-0.669,1.2764-0.542,2.4014-0.4502,3.2217c0.0371,0.3193,0.0684,0.5937,0.0488,0.8281c-0.04,0.5264-0.3027,0.8252-0.4775,1.0244
			c-0.0352,0.0391-0.0811,0.0918-0.1026,0.125c0.0196,0.0049,0.0518-0.0029,0.1006-0.0214c0.2051-0.0821,0.6065-0.4288,0.8018-1.209
			c0.0898-0.3516,0.0762-0.6504,0.0605-0.9951c-0.0302-0.6905-0.0644-1.4747,0.6973-2.962c0.5488-1.0722,0.6084-1.8525,0.666-2.6074
			c0.0362-0.4941,0.0742-0.9726,0.2363-1.5078c-0.0878-0.0107-0.1748-0.0264-0.2636-0.04c-0.5235,1.7461-0.0879,3.1211-1.043,4.2129
			c0.835-1.4805,0.4043-2.6885,0.708-4.2803C58.3804,66.6518,58.2818,66.6284,58.186,66.6001z"/>
		<path class="st3" d="M60.1528,66.8423l-0.1621,4.4092l-0.1611-4.4092c-0.0859-0.002-0.1738-0.0049-0.2607-0.0108l0.3584,9.5225
			c0,0.0332,0.0146,0.1807,0.0722,0.1807c0.0576,0,0.0703-0.1475,0.0713-0.1748l0.3574-9.5284
			C60.3364,66.8374,60.2446,66.8413,60.1528,66.8423z"/>
		<path class="st3" d="M65.1323,55.4761l6.4834-6.9873c0.0215-0.0245,0.1153-0.1387,0.0752-0.1797
			c-0.0097-0.0098-0.0166-0.0108-0.0234-0.0108c-0.0469,0-0.1221,0.0557-0.1504,0.084l-6.9932,6.4863
			c0.0694,0.0606,0.1368,0.1231,0.2051,0.1885l3.2315-3.0068l-3.0049,3.2334C65.0151,55.3472,65.0747,55.4106,65.1323,55.4761z"/>
		<path class="st3" d="M64.523,65.1343l6.9892,6.4814c0.0225,0.0215,0.1367,0.1162,0.1778,0.0772
			c0.04-0.042-0.0567-0.1602-0.0723-0.1748l-6.4854-6.9932c-0.0615,0.0693-0.1259,0.1377-0.1894,0.2041l3.0058,3.2334
			l-3.2324-3.0059C64.6519,65.0161,64.5884,65.0757,64.523,65.1343z"/>
		<path class="st3" d="M65.9468,56.6167c0.4463-0.3086,0.8262-0.6582,1.1953-1.001c0.6807-0.6338,1.3242-1.2314,2.3242-1.543
			c1.375-0.4306,2.0811-1.3144,2.5957-1.9609c0.2012-0.25,0.3731-0.4668,0.5518-0.6211c0.3994-0.3418,0.7978-0.3672,1.0625-0.3857
			c0.0537-0.002,0.1211-0.0069,0.1611-0.0147c-0.0117-0.0146-0.039-0.0342-0.0859-0.0537
			c-0.2041-0.0889-0.7334-0.1269-1.4229,0.2852c-0.3105,0.1865-0.5127,0.4062-0.7461,0.6611
			c-0.4677,0.5107-0.997,1.0889-2.5879,1.6016c-1.1455,0.3701-1.7392,0.8789-2.3134,1.373
			c-0.378,0.3242-0.7432,0.6358-1.2364,0.8994c0.0547,0.0713,0.1065,0.1426,0.1573,0.2149
			c1.6064-0.8643,2.2695-2.1465,3.7197-2.2412c-1.6377,0.455-2.1875,1.6152-3.5293,2.5273
			C65.8452,56.4429,65.898,56.5288,65.9468,56.6167z"/>
		<path class="st3" d="M65.5816,63.9575c-0.0586,0.082-0.1192,0.1631-0.1807,0.2422c0.456,0.2939,0.9248,0.5107,1.3828,0.7227
			c0.8467,0.3857,1.6445,0.7509,2.3145,1.5556c0.9248,1.1065,2.0107,1.419,2.8056,1.6485c0.3076,0.0888,0.5733,0.166,0.7842,0.2714
			c0.4697,0.2383,0.6465,0.5967,0.7627,0.834c0.0215,0.0469,0.0537,0.1104,0.0771,0.1436c0.0069-0.0176,0.0157-0.0489,0.0166-0.1006
			c0.003-0.2217-0.164-0.7256-0.8095-1.2041c-0.291-0.2168-0.5723-0.3174-0.8965-0.4375c-0.6494-0.2363-1.3877-0.5039-2.4697-1.7783
			c-0.7803-0.917-1.4786-1.2696-2.1524-1.6104c-0.4433-0.2256-0.873-0.4424-1.3047-0.7978
			c-0.0449,0.0771-0.0908,0.1523-0.1386,0.2265c1.414,1.1533,2.8525,1.2764,3.4941,2.5772
			C68.2202,64.9126,66.937,64.8501,65.5816,63.9575z"/>
		<path class="st3" d="M63.3833,65.9487c0.3096,0.4463,0.6572,0.8252,1.001,1.1944c0.6328,0.6806,1.2305,1.3252,1.543,2.3232
			c0.4316,1.376,1.3144,2.082,1.9599,2.5977c0.252,0.2001,0.4668,0.372,0.6201,0.5507c0.3438,0.4004,0.3692,0.7989,0.3848,1.0625
			c0.0039,0.0537,0.0098,0.1221,0.0186,0.1621c0.0127-0.0136,0.0332-0.04,0.0537-0.0869c0.0879-0.2041,0.1269-0.7324-0.2862-1.4218
			c-0.1865-0.3116-0.4062-0.5137-0.6611-0.7471c-0.5117-0.4678-1.0898-0.9981-1.6025-2.5879
			c-0.3692-1.1455-0.8799-1.7393-1.3721-2.3135c-0.3242-0.3769-0.6367-0.7422-0.9004-1.2363
			c-0.0703,0.0537-0.1426,0.1064-0.2148,0.1562c0.8642,1.6075,2.1474,2.2715,2.2421,3.7207
			c-0.455-1.6386-1.6152-2.1865-2.5263-3.5302C63.5571,65.8462,63.4712,65.8989,63.3833,65.9487z"/>
		<path class="st4" d="M43.2866,60.2143c0.1211,0.1211,0.333,0.1211,0.3477,0.1241l9.1435,0.3437
			c-0.4013,0.1113-0.7783,0.2481-1.1474,0.3858c-0.8438,0.3144-1.6397,0.6084-2.6221,0.5205
			c-1.5185-0.1368-2.5488,0.4345-3.3008,0.8496c-0.2705,0.1484-0.5029,0.2763-0.7011,0.3418
			c-0.4161,0.1377-0.7295,0.0293-0.96-0.0489c-0.1729-0.0576-0.3887-0.1318-0.4863,0.0704
			c-0.0283,0.0595-0.0586,0.1816,0.0556,0.3378c0.2149,0.295,0.8428,0.5528,1.71,0.4249c0.3994-0.0586,0.6992-0.1993,1.0166-0.3477
			c0.5986-0.2783,1.2744-0.5938,2.8691-0.4658c1.2539,0.1015,2.0245-0.1504,2.7686-0.3946
			c0.4258-0.1396,0.8389-0.2763,1.3301-0.3339l-8.5537,3.9257c-0.1963,0.0821-0.3682,0.2657-0.2774,0.4815
			c0.0488,0.1221,0.1621,0.1914,0.3067,0.1914c0.0127,0,0.0234-0.002,0.0351-0.002c0.0996-0.0078,0.1856-0.042,0.1895-0.0439
			l8.5761-3.1807c-0.3281,0.2569-0.623,0.5284-0.9111,0.7959c-0.6582,0.6123-1.2812,1.1895-2.2227,1.4834
			c-1.4531,0.4551-2.1894,1.377-2.7265,2.0498c-0.1904,0.2393-0.3545,0.4473-0.5147,0.583c-0.332,0.2852-0.663,0.3067-0.9052,0.3223
			c-0.1827,0.0117-0.4092,0.0264-0.4229,0.251c-0.0029,0.0654,0.0147,0.1904,0.1807,0.291
			c0.3125,0.1895,0.9902,0.1875,1.7412-0.2627c0.3457-0.2061,0.5703-0.4512,0.8086-0.71c0.4443-0.4863,0.9482-1.0361,2.4726-1.5283
			c1.1963-0.3847,1.8106-0.914,2.4053-1.4238c0.3418-0.294,0.6709-0.5762,1.1016-0.8184l-6.4004,6.9014
			c-0.0088,0.0059-0.0723,0.0723-0.1153,0.1611c-0.0751,0.1475-0.0595,0.2901,0.0411,0.3907
			c0.0595,0.0586,0.1328,0.0879,0.2129,0.0879c0.0566,0,0.1162-0.0147,0.1767-0.0459c0.0899-0.044,0.1563-0.1084,0.1582-0.1114
			l6.7061-6.2207c-0.2032,0.3623-0.3731,0.7256-0.5371,1.083c-0.3741,0.8174-0.7276,1.5899-1.4834,2.2217
			c-1.17,0.9766-1.4961,2.1094-1.7354,2.9356c-0.0849,0.2949-0.1572,0.5498-0.2539,0.7373
			c-0.1973,0.3906-0.4961,0.538-0.7119,0.6445c-0.1641,0.0801-0.3691,0.1807-0.2959,0.3935c0.0225,0.0616,0.0869,0.17,0.2783,0.1993
			c0.3613,0.0576,0.9873-0.2061,1.5088-0.9092c0.2412-0.3233,0.3545-0.6338,0.4746-0.9639
			c0.2246-0.6191,0.4815-1.3222,1.7012-2.3584c0.957-0.8154,1.3232-1.5381,1.6767-2.2383c0.2032-0.3994,0.3995-0.7871,0.7041-1.1767
			l-3.2724,8.8262c-0.0811,0.1962-0.0713,0.4472,0.1435,0.5371c0.0381,0.0156,0.0782,0.0244,0.1172,0.0244
			c0.0371,0,0.0762-0.0078,0.1123-0.0235c0.1602-0.0673,0.2422-0.2578,0.25-0.2744l3.8155-8.3125
			c-0.0518,0.4121-0.0674,0.8125-0.0821,1.2061c-0.0332,0.8974-0.0634,1.747-0.5215,2.6201
			c-0.707,1.3496-0.5761,2.5215-0.4794,3.3769c0.0351,0.3047,0.0654,0.5674,0.0478,0.7774
			c-0.0322,0.4365-0.252,0.6855-0.4121,0.8682c-0.1201,0.1367-0.2705,0.3076-0.1221,0.4755c0.044,0.0498,0.1475,0.125,0.335,0.0772
			c0.3525-0.0869,0.833-0.5674,1.0449-1.417c0.0986-0.3896,0.085-0.7217,0.0684-1.0723c-0.0274-0.6582-0.0606-1.4043,0.6689-2.8291
			c0.5733-1.1191,0.6338-1.9267,0.6934-2.709c0.0341-0.4462,0.0674-0.8808,0.2002-1.3554l0.3535,9.4053
			c0,0.0097,0.0029,0.1005,0.0332,0.1953c0.0527,0.1562,0.164,0.2461,0.3066,0.2461s0.2539-0.0899,0.3057-0.2452
			c0.0312-0.0957,0.0312-0.1865,0.0312-0.1914l0.3438-9.1396c0.1123,0.3994,0.249,0.7773,0.3887,1.1455
			c0.3125,0.8428,0.6064,1.6377,0.5185,2.6201c-0.1357,1.5186,0.4346,2.5498,0.8506,3.3027c0.1475,0.2686,0.2754,0.5,0.3408,0.7002
			c0.1367,0.4161,0.0283,0.7295-0.0478,0.959c-0.0586,0.1739-0.1319,0.3887,0.0703,0.4883
			c0.0263,0.0117,0.0654,0.0254,0.1172,0.0254c0.0595,0,0.1338-0.0195,0.2197-0.082c0.2939-0.2159,0.5518-0.8428,0.4258-1.71
			c-0.0596-0.3984-0.2002-0.6992-0.3496-1.0166c-0.2774-0.5977-0.5928-1.2754-0.4629-2.8701
			c0.1006-1.2529-0.1524-2.0225-0.3975-2.7676c-0.1387-0.4267-0.2744-0.8398-0.332-1.3301l3.9248,8.5537
			c0.0049,0.0098,0.0391,0.0938,0.1055,0.169c0.1064,0.125,0.2441,0.164,0.3759,0.1094c0.0752-0.0313,0.1328-0.0879,0.1631-0.1621
			c0.0664-0.1592-0.0097-0.3536-0.0176-0.3702l-3.1796-8.5752c0.2539,0.3262,0.5263,0.6211,0.7949,0.9092
			c0.6113,0.6592,1.1904,1.2813,1.4834,2.2227c0.456,1.4541,1.3769,2.1894,2.0478,2.7256c0.2412,0.1914,0.4492,0.3574,0.585,0.5166
			c0.2851,0.332,0.3066,0.663,0.3223,0.9043c0.0107,0.1836,0.0263,0.4111,0.2509,0.4238c0.0049,0,0.0098,0,0.0137,0
			c0.0693,0,0.1846-0.0264,0.2773-0.1807c0.1895-0.3125,0.1875-0.9902-0.2626-1.7422c-0.2071-0.3457-0.4512-0.5693-0.71-0.8056
			c-0.4863-0.4463-1.0371-0.9512-1.5283-2.4746c-0.3858-1.1963-0.9131-1.8106-1.4239-2.4063
			c-0.2929-0.3398-0.5761-0.6699-0.8183-1.1006l6.9004,6.4004c0.1504,0.1504,0.3877,0.2383,0.5517,0.0733
			c0.1641-0.1641,0.0791-0.4014-0.0683-0.5479l-6.2207-6.706c0.3623,0.205,0.7256,0.373,1.084,0.538
			c0.8173,0.375,1.5888,0.7276,2.2207,1.4844c0.9746,1.169,2.1084,1.4951,2.9355,1.7344c0.2959,0.085,0.5498,0.1582,0.7373,0.2529
			c0.3906,0.1983,0.5371,0.4951,0.6426,0.7139c0.0703,0.1396,0.1533,0.3096,0.3096,0.3096c0.0253,0,0.0546-0.0049,0.0849-0.0147
			c0.0625-0.0225,0.1709-0.0869,0.1992-0.2793c0.0557-0.3603-0.2041-0.9863-0.9091-1.5088
			c-0.3223-0.2402-0.6348-0.3525-0.9629-0.4736c-0.6202-0.2256-1.3213-0.4815-2.3594-1.7002
			c-0.8145-0.958-1.5381-1.3242-2.2363-1.6777c-0.4004-0.2032-0.7891-0.3995-1.1778-0.7041l8.8262,3.2714
			c0.1953,0.0821,0.4473,0.0723,0.5361-0.1425c0.0557-0.1319,0.0166-0.2686-0.1084-0.377c-0.0752-0.0654-0.1591-0.1006-0.165-0.1025
			l-8.3115-3.8155c0.4111,0.0518,0.8125,0.0674,1.206,0.0821c0.8975,0.0322,1.7461,0.0644,2.6192,0.5215
			c1.3506,0.706,2.5215,0.5742,3.3779,0.4785c0.3047-0.0342,0.5654-0.0645,0.7783-0.0479c0.4356,0.0332,0.6836,0.253,0.8662,0.4131
			c0.0967,0.085,0.209,0.1836,0.3282,0.1836c0.0468,0,0.0986-0.0176,0.1474-0.0635c0.0498-0.0429,0.126-0.1445,0.0791-0.333
			c-0.0879-0.3535-0.5674-0.831-1.417-1.0459c-0.3906-0.0976-0.7226-0.084-1.0732-0.0674
			c-0.6582,0.0274-1.4043,0.0606-2.8301-0.6699c-1.1191-0.5723-1.9258-0.6328-2.708-0.6933
			c-0.4473-0.0342-0.8809-0.0665-1.3555-0.2002l9.4033-0.3545h0.002c0.0117,0,0.1016,0,0.1953-0.0313
			c0.1563-0.0517,0.2461-0.164,0.2461-0.3066s-0.0898-0.253-0.2461-0.3067c-0.0957-0.0312-0.1855-0.0341-0.1894-0.0312
			l-9.1436-0.3438c0.4014-0.1113,0.7783-0.248,1.1475-0.3857c0.8418-0.3145,1.6367-0.6084,2.622-0.5205
			c1.5166,0.1367,2.5479-0.4346,3.3008-0.8496c0.2705-0.1504,0.5029-0.2764,0.7012-0.3428c0.416-0.1357,0.7295-0.0283,0.9599,0.0498
			c0.1729,0.0576,0.3877,0.1309,0.4864-0.0703c0.0283-0.0596,0.0586-0.1816-0.0547-0.3379
			c-0.2178-0.2949-0.8438-0.5527-1.7109-0.4258c-0.3995,0.0596-0.6993,0.2002-1.0166,0.3487
			c-0.5987,0.2783-1.2735,0.5947-2.8692,0.4648c-1.2558-0.1006-2.0244,0.1514-2.7685,0.3955
			c-0.4268,0.1397-0.8399,0.2764-1.3301,0.335l8.5537-3.9268c0.0098-0.0049,0.0937-0.04,0.1689-0.1045
			c0.125-0.1074,0.1641-0.2451,0.1084-0.3769c-0.0302-0.0762-0.0869-0.1328-0.1601-0.1631
			c-0.1592-0.0664-0.3535,0.0097-0.3711,0.0176l-8.5762,3.1806c0.3262-0.2578,0.6231-0.5273,0.9111-0.7959
			c0.6582-0.6123,1.2803-1.1904,2.2207-1.4834c1.4551-0.4551,2.1885-1.3769,2.7276-2.0498c0.1914-0.2392,0.3555-0.4472,0.5156-0.583
			c0.332-0.2851,0.6631-0.3066,0.9043-0.3223c0.1836-0.0117,0.4102-0.0263,0.4229-0.2509c0.0039-0.0655-0.0137-0.1905-0.1797-0.291
			c-0.3125-0.1895-0.9903-0.1875-1.7422,0.2627c-0.3457,0.206-0.5694,0.4511-0.8067,0.7099
			c-0.4453,0.4863-0.9502,1.0361-2.4736,1.5283c-1.1963,0.3848-1.8115,0.9141-2.4062,1.4239
			c-0.3409,0.2939-0.67,0.5761-1.1006,0.8183l6.4004-6.9013c0.1513-0.1504,0.2382-0.3858,0.0742-0.5518
			c-0.0596-0.0576-0.1328-0.0889-0.2129-0.0889c-0.1729,0-0.3242,0.1465-0.335,0.1582l-6.707,6.2198
			c0.2041-0.3614,0.374-0.7247,0.5371-1.0821c0.374-0.8183,0.7285-1.5898,1.4844-2.2226c1.1699-0.9756,1.4961-2.1075,1.7353-2.9346
			c0.085-0.2949,0.1573-0.5498,0.253-0.7373c0.1982-0.3906,0.4961-0.5381,0.7129-0.6445c0.164-0.0801,0.3681-0.1807,0.2959-0.3936
			c-0.0225-0.0615-0.0879-0.1699-0.2793-0.1992c-0.3594-0.0557-0.9864,0.2051-1.5079,0.9092
			c-0.2412,0.3232-0.3554,0.6338-0.4746,0.9638c-0.2255,0.6192-0.4814,1.3223-1.7002,2.3584
			c-0.958,0.8155-1.3242,1.5381-1.6777,2.2354c-0.2031,0.4023-0.3994,0.79-0.7041,1.1787l3.2725-8.8252
			c0.081-0.1963,0.0713-0.4473-0.1436-0.5361c-0.1318-0.0557-0.2705-0.0166-0.3769,0.1084
			c-0.0655,0.0752-0.1006,0.1591-0.1006,0.164l-3.8164,8.3125c0.0498-0.4121,0.0654-0.8134,0.081-1.206
			c0.0322-0.8975,0.0635-1.7471,0.5205-2.6201c0.708-1.3497,0.5752-2.5215,0.4805-3.377c-0.0352-0.3047-0.0654-0.5674-0.0479-0.7773
			c0.0323-0.4356,0.252-0.6856,0.4122-0.8682c0.1191-0.1367,0.2705-0.3076,0.121-0.4756c-0.0429-0.0488-0.1464-0.124-0.3339-0.0771
			c-0.3536,0.0859-0.833,0.5673-1.0459,1.417c-0.0977,0.3896-0.083,0.7216-0.0674,1.0722c0.0264,0.6592,0.0605,1.4043-0.6699,2.8291
			c-0.5723,1.1192-0.6329,1.9268-0.6924,2.709c-0.0342,0.4482-0.0674,0.8809-0.2012,1.3565l-0.3545-9.4063
			c0-0.0098-0.001-0.1006-0.0312-0.1953c-0.0528-0.1563-0.1641-0.2461-0.3067-0.2461s-0.2539,0.0898-0.3056,0.2451
			c-0.0313,0.0957-0.0313,0.1865-0.0313,0.1914l-0.3437,9.1397c-0.1123-0.3994-0.25-0.7754-0.3868-1.1455
			c-0.3134-0.8428-0.6103-1.6377-0.5205-2.6202c0.1358-1.5185-0.4345-2.5498-0.8506-3.3027c-0.1484-0.2685-0.2763-0.5-0.3408-0.7002
			c-0.1377-0.416-0.0312-0.7295,0.0479-0.959c0.0586-0.1738,0.1338-0.3886-0.0703-0.4883
			c-0.0586-0.0273-0.1827-0.0585-0.3369,0.0567c-0.294,0.2158-0.5518,0.8428-0.4258,1.7099
			c0.0595,0.3985,0.2002,0.6993,0.3486,1.0167c0.2783,0.5976,0.5938,1.2753,0.4639,2.8701
			c-0.1006,1.2539,0.1513,2.0224,0.3955,2.7675c0.1406,0.4268,0.2754,0.8399,0.334,1.3301l-3.9248-8.5547
			c-0.0811-0.1953-0.2676-0.3672-0.4825-0.2773c-0.1308,0.0537-0.2002,0.1787-0.1875,0.3428
			c0.0059,0.0996,0.0411,0.1845,0.043,0.1894l3.1797,8.5752c-0.2559-0.3262-0.5264-0.6211-0.7959-0.9101
			c-0.6113-0.6582-1.1895-1.2803-1.4824-2.2227c-0.4561-1.4531-1.376-2.1885-2.0489-2.7246
			c-0.2402-0.1914-0.4482-0.3574-0.5839-0.5166c-0.2852-0.332-0.3067-0.6631-0.3223-0.9043
			c-0.0127-0.1836-0.0264-0.4111-0.252-0.4229c-0.0654-0.0058-0.1894,0.0137-0.29,0.1797
			c-0.1895,0.3125-0.1875,0.9903,0.2627,1.7422c0.207,0.3457,0.4502,0.5694,0.7109,0.8076
			c0.4834,0.4444,1.0362,0.9493,1.5264,2.4727c0.3867,1.1963,0.915,1.8105,1.4248,2.4062c0.292,0.3399,0.5762,0.67,0.8184,1.1006
			l-6.9024-6.4004c-0.1484-0.1504-0.3857-0.2373-0.5508-0.0732c-0.1005,0.1006-0.1152,0.2432-0.042,0.3896
			c0.043,0.0889,0.1084,0.1543,0.1114,0.1582l6.2197,6.7051c-0.3613-0.2041-0.7246-0.372-1.083-0.5371
			c-0.8174-0.375-1.5889-0.7275-2.2207-1.4844c-0.9766-1.1689-2.1104-1.4951-2.9356-1.7343
			c-0.2959-0.085-0.5498-0.1582-0.7382-0.253c-0.3897-0.1982-0.5362-0.4951-0.6426-0.7138
			c-0.0801-0.1631-0.1807-0.3692-0.3936-0.294c-0.0625,0.0215-0.1709,0.086-0.2002,0.2783
			c-0.0566,0.3604,0.2051,0.9864,0.9102,1.5088c0.3223,0.2403,0.6328,0.3526,0.9629,0.4737
			c0.6201,0.2256,1.3203,0.4814,2.3594,1.7002c0.8144,0.958,1.538,1.3242,2.2363,1.6777c0.4004,0.2031,0.789,0.3994,1.1767,0.7041
			l-8.8261-3.2715c-0.1953-0.083-0.4463-0.0723-0.5352,0.1426c-0.0332,0.0752-0.0342,0.1553-0.0019,0.2295
			c0.0654,0.1592,0.2578,0.2431,0.2754,0.25l8.3105,3.8154c-0.4102-0.0517-0.8115-0.0674-1.2051-0.082
			c-0.8984-0.0332-1.7461-0.0645-2.6201-0.5215c-1.3496-0.707-2.5205-0.5742-3.3769-0.4785
			c-0.3047,0.0342-0.5684,0.0644-0.7784,0.0478c-0.4355-0.0332-0.6836-0.2529-0.8681-0.4131
			c-0.1358-0.1201-0.3067-0.2705-0.4737-0.1201c-0.0507,0.043-0.125,0.1446-0.0791,0.333c0.0879,0.3536,0.5664,0.8321,1.417,1.0459
			c0.3916,0.0977,0.7227,0.084,1.0733,0.0674c0.6591-0.0273,1.4033-0.0605,2.8281,0.669c1.1201,0.5732,1.9268,0.6338,2.709,0.6943
			c0.4482,0.0332,0.8799,0.0664,1.3564,0.1992l-9.4053,0.3555c-0.0117,0-0.1025,0-0.1953,0.0312
			c-0.1562,0.0518-0.2461,0.1641-0.2461,0.3067C43.1987,60.0825,43.229,60.1567,43.2866,60.2143z M45.1441,57.4184
			c-0.7803-0.1962-1.126-0.5966-1.2081-0.8017c-0.0185-0.0498-0.0224-0.0811-0.0224-0.1016
			c0.0342,0.0235,0.0849,0.0674,0.126,0.1045c0.1992,0.1748,0.497,0.4375,1.0234,0.4776c0.2344,0.0175,0.5107-0.0127,0.8281-0.0489
			c0.8213-0.0918,1.9453-0.2187,3.2217,0.4492c0.9277,0.4864,1.8047,0.5186,2.7344,0.5528c0.5039,0.0176,1.0185,0.041,1.5498,0.1377
			c-0.0254,0.0957-0.0498,0.1943-0.0713,0.292c-1.5928-0.3037-2.8027,0.1279-4.2813-0.7071
			c1.0918,0.9561,2.4668,0.5196,4.2129,1.042c-0.0156,0.0879-0.0283,0.1758-0.042,0.2647
			c-0.5341-0.1631-1.0117-0.2002-1.5068-0.2373c-0.7539-0.0576-1.5351-0.1172-2.6064-0.666
			c-1.4873-0.7627-2.2715-0.7276-2.962-0.6973C45.7944,57.4936,45.4966,57.5083,45.1441,57.4184z M44.7241,53.6733
			c0.0225-0.0537,0.1641-0.0097,0.1944,0.002l8.9345,3.3125c-0.039,0.0791-0.0742,0.1572-0.1103,0.2373l-4.1348-1.5381l4.0108,1.835
			c-0.0323,0.0869-0.0655,0.1738-0.0967,0.2607l-8.6641-3.9775C44.8335,53.7954,44.7017,53.7261,44.7241,53.6733z M47.2612,51.9302
			c-0.6425-0.4786-0.8095-0.9825-0.8066-1.2041c0.001-0.0518,0.0098-0.083,0.0166-0.1006c0.0234,0.0342,0.0537,0.0967,0.0772,0.1435
			c0.1162,0.2373,0.2929,0.5957,0.7626,0.833c0.21,0.1065,0.4756,0.1836,0.7842,0.2725c0.793,0.2295,1.8809,0.542,2.8057,1.6484
			c0.6699,0.8047,1.4687,1.17,2.3135,1.5567c0.459,0.2099,0.9277,0.4277,1.3838,0.7217c-0.0625,0.0791-0.1221,0.1601-0.1807,0.2431
			c-1.3555-0.8935-2.6387-0.956-3.6856-2.2939c0.6416,1.3008,2.0801,1.4248,3.4942,2.5771
			c-0.0479,0.0733-0.0947,0.1494-0.1387,0.2256c-0.4336-0.3545-0.8613-0.5713-1.3027-0.7969
			c-0.6758-0.3408-1.375-0.6933-2.1543-1.6103c-1.084-1.2744-1.8203-1.542-2.4707-1.7793
			C47.8364,52.2475,47.5552,52.147,47.2612,51.9302z M48.3091,48.3081c0.04-0.041,0.1543,0.0557,0.1768,0.0771l6.9892,6.4825
			c-0.0644,0.0576-0.1289,0.1172-0.1924,0.1777l-3.2324-3.0068l3.0059,3.2334c-0.0655,0.0664-0.128,0.1347-0.1895,0.2041
			l-6.4853-6.9942c0,0-0.0401-0.04-0.0664-0.0918C48.2847,48.3325,48.3013,48.3159,48.3091,48.3081z M51.3208,47.6704
			c-0.4131-0.6895-0.374-1.2178-0.2861-1.4219c0.0205-0.0469,0.041-0.0732,0.0537-0.0869c0.0088,0.04,0.0137,0.1084,0.0166,0.1631
			c0.0166,0.2627,0.043,0.6611,0.3857,1.0615c0.1534,0.1787,0.3692,0.3506,0.6202,0.5508c0.6455,0.5156,1.5292,1.2217,1.9609,2.5967
			c0.3105,0.999,0.9092,1.6426,1.543,2.3242c0.3437,0.3691,0.6914,0.748,1.0009,1.1943c-0.0879,0.0498-0.1748,0.1026-0.2607,0.1563
			c-0.9102-1.3438-2.0703-1.8916-2.5254-3.5303c0.0947,1.4492,1.377,2.1133,2.2422,3.7207
			c-0.0733,0.0498-0.1445,0.1026-0.2158,0.1563c-0.2637-0.4942-0.5762-0.8594-0.8994-1.2364
			c-0.4932-0.5752-1.003-1.1679-1.3721-2.3134c-0.5137-1.5899-1.0918-2.1202-1.6026-2.5879
			C51.7271,48.1841,51.5073,47.9819,51.3208,47.6704z M53.6724,44.7261c0.0537-0.0225,0.122,0.1084,0.1347,0.1367l3.9756,8.6621
			c-0.083,0.0273-0.164,0.0576-0.2451,0.0889l-1.835-4.0108l1.5372,4.1338c-0.085,0.0371-0.169,0.0762-0.252,0.1162l-3.3144-8.9394
			c0-0.001-0.0215-0.0547-0.0254-0.1094C53.6421,44.7368,53.6626,44.729,53.6724,44.7261z M57.0151,43.9614
			c-0.0839,0.251-0.2138,0.6289-0.0498,1.1289c0.0743,0.2237,0.2081,0.4668,0.3614,0.7451
			c0.4004,0.7237,0.9472,1.7149,0.8183,3.1514c-0.0937,1.041,0.2129,1.8643,0.5362,2.7373
			c0.1757,0.4727,0.3525,0.9551,0.4687,1.4844c-0.1015,0.0117-0.2021,0.0273-0.3008,0.0439
			c-0.3271-1.5879-1.1894-2.5381-0.9834-4.2256c-0.4668,1.3741,0.4639,2.4776,0.6485,4.2901
			c-0.0869,0.0205-0.1729,0.04-0.2578,0.0635c-0.0557-0.5567-0.2041-1.0118-0.3604-1.4825
			c-0.2344-0.7197-0.4785-1.4629-0.3809-2.663c0.1338-1.6661-0.1972-2.377-0.4902-3.004c-0.1455-0.3125-0.2724-0.583-0.3242-0.9433
			c-0.1182-0.794,0.1201-1.2686,0.2783-1.4229c0.0361-0.0351,0.0654-0.0517,0.084-0.0595
			C57.0552,43.8462,57.0337,43.9116,57.0151,43.9614z M53.1675,59.5698c-0.0059,0.0869-0.0078,0.1738-0.0117,0.2608l-4.4073,0.1611
			l4.4073,0.1611c0.0039,0.0928,0.0058,0.1856,0.0117,0.2774l-9.5293-0.3584c-0.0381,0-0.1309-0.0137-0.1641-0.0479
			c-0.0048-0.0049-0.0078-0.0098-0.0078-0.0234c0-0.0576,0.1465-0.0713,0.1797-0.0723L53.1675,59.5698z M54.397,63.9292
			c0.0508,0.0723,0.1025,0.1435,0.1572,0.2139c-0.4961,0.2636-0.8584,0.5761-1.2363,0.9003
			c-0.5742,0.4922-1.169,1.003-2.3145,1.3721c-1.5898,0.5127-2.1211,1.0918-2.5869,1.6026
			c-0.2344,0.2539-0.4355,0.4746-0.7471,0.6611c-0.6904,0.4121-1.2177,0.374-1.4218,0.2851
			c-0.0469-0.0195-0.0742-0.039-0.0869-0.0537c0.041-0.0078,0.1084-0.0136,0.163-0.0156c0.2637-0.0176,0.6622-0.043,1.0606-0.3848
			c0.1787-0.1543,0.3506-0.3711,0.5517-0.6211c0.5157-0.6464,1.2208-1.5292,2.5967-1.9609c0.9991-0.3125,1.6426-0.9092,2.3242-1.543
			c0.3692-0.3427,0.7491-0.6923,1.1944-1.0009c0.0498,0.0879,0.1025,0.1738,0.1553,0.2588
			c-1.3438,0.9121-1.8916,2.0722-3.5293,2.5273C52.1265,66.0757,52.7905,64.7934,54.397,63.9292z M55.27,64.9438
			c0.0684,0.0655,0.1358,0.128,0.2051,0.1885l-6.9932,6.4854c-0.0195,0.0195-0.1328,0.1142-0.1738,0.0742
			c-0.04-0.041,0.0537-0.1553,0.0752-0.1787l6.4834-6.9883c0.0576,0.0654,0.1172,0.1289,0.1758,0.1924l-3.0049,3.2334L55.27,64.9438
			z M56.3257,65.7739c0.0752,0.0479,0.1514,0.0947,0.2285,0.1387c-0.3555,0.4326-0.5742,0.8603-0.7978,1.3037
			c-0.3418,0.6748-0.6963,1.373-1.6123,2.1533c-1.2735,1.084-1.5411,1.8203-1.7784,2.4707
			c-0.1181,0.3242-0.2197,0.6045-0.4365,0.8955c-0.4746,0.6397-0.9736,0.8096-1.1973,0.8096c-0.0019,0-0.0048,0-0.0068,0
			c-0.0527-0.001-0.083-0.0098-0.1006-0.0166c0.0332-0.0234,0.0957-0.0537,0.1436-0.0772c0.2373-0.1162,0.5947-0.2929,0.833-0.7626
			c0.1064-0.211,0.1836-0.4766,0.2724-0.7832c0.2286-0.794,0.542-1.8819,1.6485-2.8047c0.8047-0.6719,1.1699-1.4707,1.5556-2.3164
			c0.211-0.459,0.4278-0.9258,0.7227-1.3819c0.0791,0.0615,0.1602,0.1211,0.2432,0.1797c-0.8936,1.3565-0.9551,2.6387-2.295,3.6865
			C55.0503,68.6265,55.1743,67.188,56.3257,65.7739z M57.522,66.3813c0.0859,0.0332,0.1728,0.0655,0.2607,0.0948l-3.9785,8.666
			c-0.0107,0.0244-0.081,0.1582-0.1328,0.1328c-0.0527-0.0215-0.0088-0.1631,0.002-0.1924l3.3144-8.9346
			c0.0772,0.0371,0.1572,0.0743,0.2363,0.1084l-1.5381,4.1358L57.522,66.3813z M58.814,66.7427
			c0.0888,0.0136,0.1758,0.0293,0.2636,0.04c-0.1621,0.5352-0.2001,1.0137-0.2363,1.5078c-0.0576,0.7549-0.1172,1.5352-0.666,2.6074
			c-0.7617,1.4873-0.7275,2.2715-0.6973,2.962c0.0157,0.3447,0.0293,0.6435-0.0605,0.9951
			c-0.1953,0.7802-0.5967,1.1269-0.8018,1.209c-0.0488,0.0185-0.081,0.0263-0.1006,0.0214c0.0215-0.0332,0.0674-0.0859,0.1026-0.125
			c0.1748-0.1992,0.4375-0.498,0.4775-1.0244c0.0196-0.2344-0.0117-0.5088-0.0488-0.8281
			c-0.0918-0.8203-0.2188-1.9453,0.4502-3.2217c0.4863-0.9277,0.5185-1.8047,0.5537-2.7344
			c0.0166-0.5039,0.0391-1.0175,0.1357-1.5517c0.0958,0.0283,0.1944,0.0517,0.293,0.0752c-0.3037,1.5918,0.127,2.7998-0.708,4.2803
			C58.7261,69.8638,58.2905,68.4888,58.814,66.7427z M44.7241,66.3276c-0.0224-0.0537,0.1094-0.122,0.1377-0.1357l8.6602-3.9746
			c0.0283,0.082,0.0596,0.164,0.0898,0.2451l-4.0107,1.835l4.1328-1.5372c0.0391,0.085,0.0781,0.169,0.1182,0.252l-8.9405,3.3144
			c0,0-0.0527,0.0215-0.1084,0.0245C44.7368,66.3579,44.728,66.3364,44.7241,66.3276z M51.897,62.102
			c-0.7197,0.2364-1.4629,0.4786-2.6631,0.3829c-1.666-0.1338-2.377,0.1982-3.0029,0.4892
			c-0.3135,0.1465-0.585,0.2725-0.9444,0.3252c-0.7949,0.1172-1.2685-0.1201-1.4228-0.2783
			c-0.0362-0.0381-0.0518-0.0664-0.0596-0.084c0.041,0.0068,0.1065,0.0293,0.1572,0.0459c0.2491,0.0869,0.627,0.2158,1.128,0.0508
			c0.2236-0.0733,0.4668-0.2071,0.747-0.3604c0.7227-0.4004,1.712-0.9482,3.1475-0.8183c1.043,0.0927,1.8662-0.2129,2.7383-0.5362
			c0.4726-0.1757,0.956-0.3525,1.4844-0.4687c0.0136,0.1015,0.0273,0.2012,0.0449,0.3008
			c-1.5889,0.3281-2.5391,1.1894-4.2266,0.9824c1.375,0.4668,2.4785-0.4629,4.291-0.6484c0.0205,0.0869,0.0401,0.1748,0.0625,0.2597
			C52.8228,61.8003,52.3677,61.9487,51.897,62.102z M59.9995,76.5347c-0.0576,0-0.0722-0.1475-0.0722-0.1807l-0.3584-9.5225
			c0.0869,0.0059,0.1748,0.0088,0.2607,0.0108l0.1611,4.4092l0.1621-4.4092c0.0918-0.001,0.1836-0.0049,0.2754-0.0108
			l-0.3574,9.5284C60.0698,76.3872,60.0571,76.5347,59.9995,76.5347z M61.4849,66.6841c0.0859-0.0205,0.1728-0.0401,0.2578-0.0635
			c0.0557,0.5557,0.2041,1.0117,0.3584,1.4824c0.2363,0.7197,0.4805,1.4629,0.3828,2.6631c-0.1338,1.666,0.1973,2.377,0.4902,3.0039
			c0.1455,0.3125,0.2715,0.583,0.3243,0.9424c0.1181,0.7949-0.1202,1.2695-0.2784,1.4238
			c-0.0371,0.0352-0.0654,0.0518-0.0849,0.0596c0.0088-0.041,0.0302-0.1065,0.0478-0.1563c0.085-0.2509,0.2149-0.6289,0.0508-1.1289
			c-0.0742-0.2236-0.208-0.4668-0.3613-0.7451c-0.4014-0.7236-0.9483-1.7139-0.8194-3.1504
			c0.0938-1.042-0.2119-1.8652-0.5351-2.7383c-0.1758-0.4726-0.3526-0.955-0.4688-1.4843c0.1016-0.0117,0.2022-0.0284,0.3008-0.044
			c0.3272,1.5879,1.1895,2.5381,0.9834,4.2256C62.5991,69.6001,61.6694,68.4966,61.4849,66.6841z M62.7593,66.2641
			c0.085-0.0371,0.1689-0.0771,0.251-0.1162l3.3154,8.9395c0.0146,0.0361,0.0371,0.1279,0.0186,0.1709
			c-0.002,0.0058-0.0059,0.0117-0.0176,0.0166c-0.0537,0.0234-0.1241-0.1084-0.1358-0.1367l-3.9746-8.6621
			c0.083-0.0274,0.1641-0.0577,0.2451-0.0889l1.835,4.0107L62.7593,66.2641z M63.9273,65.602
			c0.0722-0.0498,0.1445-0.1025,0.2148-0.1562c0.2637,0.4941,0.5762,0.8594,0.9004,1.2363c0.4922,0.5742,1.0029,1.168,1.3721,2.3135
			c0.5127,1.5898,1.0908,2.1201,1.6025,2.5879c0.2549,0.2334,0.4746,0.4355,0.6611,0.7471
			c0.4131,0.6894,0.3741,1.2177,0.2862,1.4218c-0.0205,0.0469-0.041,0.0733-0.0537,0.0869c-0.0088-0.04-0.0147-0.1084-0.0186-0.1621
			c-0.0156-0.2636-0.041-0.6621-0.3848-1.0625c-0.1533-0.1787-0.3681-0.3506-0.6201-0.5507
			c-0.6455-0.5157-1.5283-1.2217-1.9599-2.5977c-0.3125-0.998-0.9102-1.6426-1.543-2.3232
			c-0.3438-0.3692-0.6914-0.7481-1.001-1.1944c0.0879-0.0498,0.1738-0.1025,0.2598-0.1562
			c0.9111,1.3437,2.0713,1.8916,2.5263,3.5302C66.0747,67.8735,64.7915,67.2095,63.9273,65.602z M64.9429,64.729
			c0.0635-0.0664,0.1279-0.1348,0.1894-0.2041l6.4854,6.9932c0.0156,0.0146,0.1123,0.1328,0.0723,0.1748
			c-0.0411,0.039-0.1553-0.0557-0.1778-0.0772l-6.9892-6.4814c0.0654-0.0586,0.1289-0.1182,0.1933-0.1778l3.2324,3.0059
			L64.9429,64.729z M65.773,63.6733c0.0478-0.0742,0.0937-0.1494,0.1386-0.2265c0.4317,0.3554,0.8614,0.5722,1.3047,0.7978
			c0.6738,0.3408,1.3721,0.6934,2.1524,1.6104c1.082,1.2744,1.8203,1.542,2.4697,1.7783c0.3242,0.1201,0.6055,0.2207,0.8965,0.4375
			c0.6455,0.4785,0.8125,0.9824,0.8095,1.2041c-0.0009,0.0517-0.0097,0.083-0.0166,0.1006
			c-0.0234-0.0332-0.0556-0.0967-0.0771-0.1436c-0.1162-0.2373-0.293-0.5957-0.7627-0.834
			c-0.2109-0.1054-0.4766-0.1826-0.7842-0.2714c-0.7949-0.2295-1.8808-0.542-2.8056-1.6485
			c-0.67-0.8047-1.4678-1.1699-2.3145-1.5556c-0.458-0.212-0.9268-0.4288-1.3828-0.7227c0.0615-0.0791,0.1221-0.1602,0.1807-0.2422
			c1.3554,0.8926,2.6386,0.9551,3.6855,2.293C68.6255,64.9497,67.187,64.8266,65.773,63.6733z M65.6021,56.0718
			c-0.0508-0.0723-0.1026-0.1436-0.1573-0.2149c0.4932-0.2636,0.8584-0.5752,1.2364-0.8994
			c0.5742-0.4941,1.1679-1.0029,2.3134-1.373c1.5909-0.5127,2.1202-1.0909,2.5879-1.6016c0.2334-0.2549,0.4356-0.4746,0.7461-0.6611
			c0.6895-0.4121,1.2188-0.3741,1.4229-0.2852c0.0469,0.0195,0.0742,0.0391,0.0859,0.0537c-0.04,0.0078-0.1074,0.0127-0.1611,0.0147
			c-0.2647,0.0185-0.6631,0.0439-1.0625,0.3857c-0.1787,0.1543-0.3506,0.3711-0.5518,0.6211
			c-0.5146,0.6465-1.2207,1.5303-2.5957,1.9609c-1,0.3116-1.6435,0.9092-2.3242,1.543c-0.3691,0.3428-0.749,0.6924-1.1953,1.001
			c-0.0488-0.0879-0.1016-0.1738-0.1543-0.2588c1.3418-0.9121,1.8916-2.0723,3.5293-2.5273
			C67.8716,53.9253,67.2085,55.2075,65.6021,56.0718z M64.729,55.0571c-0.0683-0.0654-0.1357-0.1279-0.2051-0.1885l6.9932-6.4863
			c0.0283-0.0283,0.1035-0.084,0.1504-0.084c0.0068,0,0.0137,0.001,0.0234,0.0108c0.0401,0.041-0.0537,0.1552-0.0752,0.1797
			l-6.4834,6.9873c-0.0576-0.0655-0.1172-0.1289-0.1767-0.1924l3.0049-3.2334L64.729,55.0571z M63.6734,54.227
			c-0.0752-0.0478-0.1514-0.0957-0.2286-0.1386c0.3555-0.4326,0.5743-0.8604,0.7979-1.3037
			c0.3418-0.6748,0.6953-1.3731,1.6113-2.1534c1.2744-1.0839,1.542-1.8213,1.7793-2.4707c0.1182-0.3242,0.2197-0.6054,0.4365-0.8955
			c0.4746-0.6396,0.9727-0.8105,1.1973-0.8105c0.002,0,0.0039,0,0.0068,0.001c0.0518,0.0009,0.083,0.0087,0.1006,0.0175
			c-0.0332,0.0225-0.0967,0.0528-0.1445,0.0762c-0.2363,0.1162-0.5947,0.293-0.833,0.7627
			c-0.1055,0.2109-0.1826,0.4766-0.2715,0.7842c-0.2295,0.7929-0.542,1.8808-1.6484,2.8037
			c-0.8047,0.6719-1.17,1.4707-1.5557,2.3164c-0.2109,0.459-0.4277,0.9248-0.7227,1.3818
			c-0.0791-0.0615-0.1601-0.1211-0.2421-0.1797c0.8925-1.3564,0.955-2.6367,2.2939-3.6865
			C64.9468,51.3745,64.8247,52.813,63.6734,54.227z M62.4771,53.6196c-0.086-0.0332-0.1719-0.0654-0.2608-0.0947l3.9785-8.666
			c0,0,0.0215-0.0528,0.0586-0.0967c0.044-0.0498,0.0645-0.04,0.0742-0.0361c0.0528,0.0214,0.0088,0.163-0.0039,0.1923
			l-3.3125,8.9346c-0.0771-0.0381-0.1562-0.0742-0.2363-0.1084l1.5381-4.1357L62.4771,53.6196z M61.1841,53.2583
			c-0.0879-0.0147-0.1748-0.0293-0.2627-0.04c0.1621-0.5352,0.2002-1.0137,0.2363-1.5079c0.0576-0.7548,0.1172-1.5351,0.666-2.6074
			c0.7598-1.4863,0.7276-2.2715,0.6973-2.9619c-0.0156-0.3447-0.0293-0.6436,0.0606-0.9951c0.1953-0.7803,0.5966-1.127,0.8017-1.209
			c0.0488-0.0186,0.0791-0.0205,0.1006-0.0215c-0.0215,0.0332-0.0674,0.086-0.1035,0.125
			c-0.1738,0.1992-0.4365,0.4981-0.4795,1.0244c-0.0166,0.2344,0.0146,0.5078,0.0498,0.8272
			c0.0937,0.8213,0.2197,1.9463-0.4492,3.2226c-0.4864,0.9268-0.5176,1.8047-0.5528,2.7334
			c-0.0175,0.5049-0.039,1.0186-0.1357,1.5518c-0.0977-0.0274-0.1943-0.0508-0.2939-0.0742c0.3046-1.5918-0.126-2.7998,0.708-4.2803
			C61.271,50.1372,61.7085,51.5122,61.1841,53.2583z M75.2573,53.6548c0.0059,0.0029,0.0118,0.0068,0.0166,0.0185
			c0.0235,0.0528-0.1084,0.1221-0.1367,0.1348l-8.6621,3.9756c-0.0273-0.0821-0.0576-0.1641-0.0879-0.2451l4.0108-1.835
			l-4.1348,1.5371c-0.0371-0.0849-0.0762-0.1689-0.1172-0.2519l8.9414-3.3145C75.1226,53.6597,75.2144,53.6372,75.2573,53.6548z
			 M68.1021,57.8989c0.7187-0.2373,1.4629-0.4805,2.663-0.3828c1.6651,0.1338,2.377-0.1973,3.003-0.4893
			c0.3135-0.1464,0.584-0.2724,0.9443-0.3252c0.7949-0.1191,1.2686,0.1202,1.4238,0.2784c0.0352,0.0381,0.0508,0.0664,0.0567,0.084
			c-0.0391-0.0079-0.1055-0.0293-0.1543-0.0459c-0.25-0.0879-0.6289-0.2159-1.1289-0.0518
			c-0.2237,0.0732-0.4658,0.208-0.7451,0.3613c-0.7246,0.4004-1.7168,0.9473-3.1514,0.8184
			c-1.043-0.0938-1.8652,0.2129-2.7363,0.5361c-0.4727,0.1758-0.9561,0.3526-1.4844,0.4688
			c-0.0137-0.1016-0.0293-0.2012-0.0449-0.3008c1.5888-0.3281,2.5381-1.1895,4.2265-0.9824
			c-1.375-0.4668-2.4785,0.4629-4.291,0.6484c-0.0205-0.0869-0.04-0.1738-0.0625-0.2588
			C67.1753,58.2016,67.6304,58.0522,68.1021,57.8989z M66.8433,59.8481c-0.0039-0.0927-0.0069-0.1855-0.0127-0.2773l9.5283,0.3584
			c0,0,0.0576,0.001,0.1113,0.0185c0.0625,0.0215,0.0625,0.043,0.0625,0.0528c0,0.0576-0.1465,0.0713-0.1797,0.0722l-9.5224,0.3584
			c0.0058-0.0869,0.0088-0.1738,0.0127-0.2607l4.4072-0.1611L66.8433,59.8481z M66.6734,61.52
			c1.5927,0.3047,2.8007-0.1269,4.2812,0.708c-1.0918-0.956-2.4668-0.5195-4.2129-1.043c0.0147-0.0869,0.0274-0.1748,0.042-0.2626
			c0.5322,0.1621,1.0117,0.2001,1.5068,0.2363c0.7539,0.0576,1.5352,0.1172,2.6065,0.666c1.4873,0.7617,2.2715,0.7275,2.9609,0.6973
			c0.3447-0.0147,0.6446-0.0293,0.9971,0.0595c0.7803,0.1973,1.126,0.5977,1.208,0.8028c0.0186,0.0498,0.0225,0.081,0.0215,0.1006
			c-0.0332-0.0225-0.084-0.0665-0.125-0.1036c-0.1992-0.1748-0.4981-0.4375-1.0235-0.4775
			c-0.2363-0.0186-0.5107,0.0127-0.8281,0.0488c-0.8213,0.0918-1.9453,0.2188-3.2217-0.4502
			c-0.9296-0.4853-1.8046-0.5175-2.7363-0.5517c-0.5029-0.0176-1.0166-0.041-1.5488-0.1377
			C66.6275,61.7173,66.6519,61.6196,66.6734,61.52z M66.3804,62.479c0.0322-0.0869,0.0654-0.1738,0.0947-0.2607l8.665,3.9775
			c0.0254,0.0098,0.1573,0.0781,0.1338,0.1318c-0.0214,0.0537-0.163,0.0098-0.1933-0.0019l-8.9346-3.3125
			c0.0391-0.0791,0.0742-0.1573,0.1094-0.2373l4.1357,1.5381L66.3804,62.479z M60.7007,53.3716
			c0.4346,0.0449,0.8564,0.1328,1.2627,0.2568c0.0107,0.0029,0.0215,0.0068,0.0322,0.0098
			c0.3985,0.1259,0.7803,0.2881,1.1426,0.4814c0.0195,0.0098,0.0381,0.0195,0.0566,0.0303
			c0.3633,0.1982,0.7051,0.4297,1.0225,0.6894c0.0146,0.0118,0.0283,0.0225,0.042,0.0332c0.3096,0.2588,0.5947,0.544,0.8535,0.8536
			c0.0215,0.0244,0.042,0.0498,0.0625,0.0761c0.5254,0.6485,0.9356,1.3955,1.1895,2.2119c0.0019,0.004,0.0029,0.0098,0.0039,0.0137
			c0.1933,0.6231,0.2968,1.2862,0.2968,1.9727c0,0.2197-0.0117,0.4365-0.0322,0.6504c-0.0019,0.0215-0.0039,0.041-0.0068,0.0634
			c-0.0469,0.4346-0.1338,0.8584-0.2588,1.2647c-0.001,0.0019-0.001,0.0039-0.002,0.0059c-0.1269,0.4052-0.292,0.7939-0.4892,1.1621
			c-0.0078,0.0156-0.0156,0.0302-0.0244,0.0459c-0.1973,0.3623-0.4297,0.7041-0.6895,1.0224
			c-0.0137,0.0176-0.0283,0.0352-0.043,0.0528c-0.2578,0.3085-0.5429,0.5927-0.8515,0.8515
			c-0.0196,0.0166-0.0401,0.0322-0.0596,0.0479c-0.6465,0.5273-1.3926,0.9365-2.208,1.1933
			c-0.0166,0.0049-0.0332,0.0098-0.0498,0.0147c-0.6172,0.1885-1.2725,0.291-1.9512,0.291c-0.2207,0-0.4375-0.0117-0.6523-0.0322
			c-0.0156-0.002-0.0313-0.003-0.0479-0.0039c-0.4345-0.0459-0.8564-0.1329-1.2627-0.2579
			c-0.0107-0.0029-0.0224-0.0068-0.0332-0.0107c-0.4004-0.125-0.7832-0.2881-1.1465-0.4824
			c-0.0175-0.0078-0.0341-0.0156-0.0498-0.0264c-0.3662-0.1992-0.7119-0.4326-1.0322-0.6953
			c-0.0117-0.0098-0.0234-0.0195-0.0351-0.0303c-0.3116-0.2588-0.5967-0.5449-0.8575-0.8554
			c-0.0214-0.0254-0.042-0.0528-0.0634-0.0791c-0.2588-0.3194-0.4903-0.6612-0.6875-1.0254l0,0
			c-0.2002-0.3701-0.3653-0.7608-0.4942-1.168c-0.0049-0.0186-0.0097-0.0361-0.0156-0.0537
			c-0.1231-0.4072-0.2109-0.8291-0.2549-1.2656c-0.001-0.003,0-0.0059-0.001-0.0088c-0.0214-0.2198-0.0332-0.4434-0.0332-0.6709
			c0-0.2139,0.0118-0.4229,0.0313-0.6328c0.0029-0.0303,0.0058-0.0625,0.0097-0.0928c0.0459-0.4209,0.1299-0.8301,0.25-1.2236
			c0.004-0.0157,0.0079-0.0313,0.0127-0.0469c0.126-0.3985,0.2881-0.7813,0.4815-1.1426c0.0107-0.0215,0.0224-0.042,0.0332-0.0615
			c0.1953-0.3574,0.4238-0.6953,0.6797-1.0078c0.0156-0.0205,0.0303-0.0391,0.0459-0.0576
			c0.2588-0.3086,0.5429-0.5938,0.8525-0.8516c0.0186-0.0166,0.0371-0.0322,0.0576-0.0479
			c0.6485-0.5302,1.3975-0.9384,2.2149-1.1963c0.0146-0.0039,0.0283-0.0078,0.0429-0.0126c0.6192-0.1885,1.2754-0.292,1.9551-0.292
			c0.2198,0,0.4365,0.0117,0.6514,0.0322C60.6675,53.3686,60.6831,53.3696,60.7007,53.3716z M59.9468,43.5298
			c0.0215-0.0625,0.042-0.0635,0.0527-0.0635c0.0586-0.0029,0.0723,0.1475,0.0723,0.1807l0.3584,9.5224
			c-0.0869-0.0058-0.1748-0.0088-0.2608-0.0107l-0.1611-4.4092l-0.1611,4.4092c-0.0928,0-0.1846,0.0049-0.2764,0.0107l0.3574-9.5283
			C59.9282,43.6391,59.9292,43.5835,59.9468,43.5298z"/>
		<path class="st5" d="M63.5386,59.1304c-0.332-0.3594-0.8125-0.5547-1.2666-0.5547c-0.4541,0-0.8906,0.1953-1.1465,0.6064
			C61.6382,59.645,62.771,59.6938,63.5386,59.1304z M61.9683,58.7231c0.0791-0.0644,0.1767-0.1084,0.2871-0.1084
			c0.0986,0,0.1836,0.0362,0.2588,0.0889c0.3388,0.0537,0.6181,0.2119,0.666,0.374c-0.1846,0.2022-0.4111,0.3018-0.6455,0.3574
			c-0.0781,0.0616-0.1719,0.1026-0.2793,0.1026c-0.0928,0-0.1748-0.0342-0.2481-0.082c-0.2441-0.0391-0.4814-0.1211-0.6728-0.2735
			C61.4946,58.9272,61.7251,58.7876,61.9683,58.7231z"/>
		<path class="st4" d="M62.3589,58.2583c-0.667,0-0.8213,0.1543-1.1279,0.4101c-0.3096,0.2569-0.4629,0.2051-0.5127,0.2569
			c-0.0518,0.0517,0,0.2051,0.1015,0.1533c0.1016-0.0518,0.3077-0.1533,0.6153-0.4102c0.3076-0.2568,0.6162-0.2568,0.9238-0.2568
			c0.9229,0,1.4346,0.7695,1.5371,0.7178C63.9995,59.0786,63.3833,58.2583,62.3589,58.2583z"/>
		<path class="st4" d="M60.4087,58.0513c-0.0713,0.1923-0.126,0.3867-0.1602,0.5849c-0.1347,0.7617,0.0098,1.5606,0.417,2.3399
			c0.0528-0.0528,0.1543-0.1026,0.2061-0.1026c-0.458-0.6465-0.6397-1.2783-0.5371-1.8613
			c0.0527-0.3008,0.1816-0.5879,0.3838-0.8574c0.8183-0.7676,2.3037-0.6153,3.4824,0.4082
			C63.0737,57.0278,61.5366,57.1304,60.4087,58.0513z"/>
		<polygon class="st4" points="64.2036,58.5649 64.2007,58.563 64.2026,58.5649 		"/>
		<path class="st4" d="M61.7935,59.0776c0,0.1612,0.0888,0.2959,0.2138,0.378c0.0733,0.0478,0.1553,0.082,0.2481,0.082
			c0.1074,0,0.2012-0.041,0.2793-0.1026c0.1084-0.0839,0.1826-0.2099,0.1826-0.3574c0-0.1582-0.084-0.291-0.2031-0.374
			c-0.0752-0.0527-0.1602-0.0889-0.2588-0.0889c-0.1104,0-0.208,0.044-0.2871,0.1084
			C61.8638,58.8081,61.7935,58.9331,61.7935,59.0776z"/>
		<path class="st4" d="M61.5386,59.5913c-0.4111-0.2061-0.5137-0.3086-0.6162-0.3086c-0.1016,0-0.1016,0.1025,0.4111,0.4111
			c0.5117,0.3077,1.3838,0.3594,2.2559-0.3086C62.564,59.7974,61.9487,59.7974,61.5386,59.5913z"/>
		<path class="st4" d="M59.3921,61.23c-0.0107,0.1621-0.1436,0.2929-0.3076,0.2929c-0.1709,0-0.3076-0.1386-0.3076-0.3086
			c0-0.1298,0.0791-0.248,0.2011-0.2929c-0.2177,0.041-0.374,0.2353-0.374,0.458c0,0.2558,0.21,0.457,0.4649,0.457
			c0.1513,0,0.289-0.0703,0.375-0.1943c0.1787,0.1338,0.4238,0.1474,0.5556,0.1504c0.0196,0,0.0449,0,0.0606,0
			c0.1308-0.003,0.3769-0.0166,0.5547-0.1504c0.0859,0.124,0.2236,0.1943,0.375,0.1943c0.2539,0,0.4648-0.2012,0.4648-0.457
			c0-0.2227-0.1562-0.417-0.375-0.458c0.123,0.0449,0.2041,0.1631,0.2041,0.2929c0,0.17-0.1387,0.3086-0.3096,0.3086
			c-0.1631,0-0.2978-0.1308-0.3076-0.2929c-0.0498,0.0986-0.248,0.3974-0.6377,0.4121
			C59.6401,61.6274,59.4419,61.3286,59.3921,61.23z"/>
		<path class="st4" d="M59.9985,62.4458h-0.0078c-0.2041-0.1025-0.4072-0.1582-0.5097-0.1582c-0.5137,0-0.7168,0.4658-1.1768,0.7724
			c0.2559-0.1025,0.458-0.3037,0.8164-0.5097c0.3604-0.2051,0.666,0.0449,0.8701,0.0449h0.0078c0.2041,0,0.5108-0.25,0.8711-0.0449
			c0.3575,0.206,0.5674,0.4072,0.8233,0.5097c-0.461-0.3066-0.6699-0.7724-1.1846-0.7724
			C60.4068,62.2876,60.2026,62.3433,59.9985,62.4458z"/>
		<path class="st4" d="M59.9907,63.1655h0.0078c0.4083,0,0.6124-0.3066,1.5245-0.1074c0.0029,0,0.0039,0,0.0058,0
			c-1.0195-0.3047-1.2236-0.1035-1.5303-0.1035h-0.0078c-0.1923,0-0.3447-0.0742-0.6826-0.0596
			c-0.1972,0.0088-0.4609,0.0498-0.831,0.1592c0.0048,0,0.0088,0,0.0146,0C59.3784,62.8667,59.5864,63.1655,59.9907,63.1655z"/>
		<path class="st4" d="M61.523,63.0581c-0.9024-0.0156-0.6563,0.5654-1.5235,0.5654h-0.0078c-0.8662,0-0.5996-0.581-1.4922-0.5703
			c-0.0029,0-0.0058,0.001-0.0078,0.001c-0.0058,0-0.0098,0-0.0146,0c-0.0537,0-0.1104,0-0.1729,0.0058
			c1.0772,0.1036,0.5596,0.7198,1.6875,0.7198h0.0078c1.128,0,0.6172-0.6162,1.6953-0.7198
			c-0.0654-0.0058-0.1113-0.0009-0.166-0.0019C61.5269,63.0581,61.5259,63.0581,61.523,63.0581z"/>
		<path class="st4" d="M59.9995,63.7954c-0.5078,0-0.9219,0.4131-0.9219,0.9238c0.1006-0.4277,0.4844-0.7295,0.9219-0.7295
			c0.4395,0,0.8223,0.3018,0.9239,0.7295C60.9234,64.2085,60.5093,63.7954,59.9995,63.7954z"/>
		<path class="st4" d="M59.3423,58.1548c0.2002,0.2695,0.3291,0.5566,0.3818,0.8574c0.1035,0.583-0.0791,1.2148-0.5371,1.8613
			c0.0528,0,0.1553,0.0498,0.2051,0.1026c0.4082-0.7793,0.5527-1.5782,0.4189-2.3399c-0.0351-0.1982-0.0908-0.3926-0.1611-0.5849
			c-1.1279-0.9219-2.667-1.0235-3.7949,0.5136C57.0337,57.5395,58.521,57.3862,59.3423,58.1548z"/>
		<polygon class="st4" points="57.6997,58.2583 57.7007,58.2583 57.7007,58.2583 		"/>
		<path class="st4" d="M58.6235,58.6684c0.3067,0.2569,0.5127,0.3584,0.6163,0.4102c0.1015,0.0518,0.1523-0.1016,0.1015-0.1533
			c-0.0517-0.0518-0.2051,0-0.5137-0.2569c-0.3066-0.2558-0.4609-0.4101-1.1269-0.4101c-1.0264,0.001-1.6416,0.8203-1.5391,0.8711
			c0.1026,0.0517,0.6162-0.7178,1.5391-0.7178C58.0083,58.4116,58.315,58.4116,58.6235,58.6684z"/>
		<path class="st5" d="M56.521,59.1821c0.2725,0.2451,0.7188,0.3692,1.1924,0.3526c-0.0772-0.003-0.1455-0.0274-0.208-0.0635
			c-0.2813-0.0244-0.5567-0.1153-0.7744-0.2891c0.1826-0.2939,0.4599-0.4336,0.7422-0.4805
			c0.0742-0.0507,0.1591-0.0869,0.2558-0.0869c0.1084,0,0.2022,0.042,0.2803,0.1036c0.293,0.0664,0.5254,0.2128,0.5664,0.3593
			c-0.1543,0.1699-0.3398,0.2686-0.5332,0.334c-0.0742,0.0693-0.1719,0.1113-0.2793,0.1192
			c0.4053-0.0225,0.8262-0.1465,1.1728-0.4004c-0.333-0.3594-0.8115-0.5547-1.2666-0.5547
			C57.2134,58.5757,56.7778,58.771,56.521,59.1821z"/>
		<path class="st4" d="M58.19,59.0776c0-0.1484-0.0733-0.2744-0.1807-0.3593c-0.0781-0.0616-0.1719-0.1036-0.2803-0.1036
			c-0.0967,0-0.1816,0.0362-0.2558,0.0869c-0.1202,0.084-0.2051,0.2178-0.2051,0.376c0,0.1709,0.0976,0.3145,0.2373,0.3936
			c0.0625,0.0361,0.1308,0.0605,0.208,0.0635c0.0059,0,0.0098,0.0029,0.0156,0.0029c0.0117,0,0.0225-0.0059,0.0342-0.0068
			c0.1074-0.0079,0.2051-0.0499,0.2793-0.1192C58.1323,59.3266,58.19,59.2095,58.19,59.0776z"/>
		<path class="st4" d="M59.1362,59.2827c-0.1025,0-0.206,0.1025-0.6152,0.3086c-0.4111,0.2061-1.0264,0.2061-2.0517-0.2061h-0.001
			c0.8711,0.668,1.7441,0.6163,2.2558,0.3086C59.2388,59.3852,59.2388,59.2827,59.1362,59.2827z"/>
	</g>
</g>
</svg>
