<?xml version="1.0" encoding="utf-8"?>
<!-- Generator: Adobe Illustrator 27.6.1, SVG Export Plug-In . SVG Version: 6.00 Build 0)  -->
<svg version="1.1" xmlns="http://www.w3.org/2000/svg" xmlns:xlink="http://www.w3.org/1999/xlink" x="0px" y="0px"
	 viewBox="0 0 120 120" style="enable-background:new 0 0 120 120;" xml:space="preserve">
<style type="text/css">
	.st0{fill:#032774;}
	.st1{fill:#FFFFFF;}
	.st2{fill:#DF0333;}
	.st3{fill:#D1D3D4;}
</style>
<g id="Layer_1">
	<g>
		<path class="st0" d="M116.75,25.9626v68.071c0,2.954,2.1026,15.4559,1.0785,18.0086c-3.3472,8.4033-14.1932,4.7021-23.785,4.7021
			H25.9722c-9.5956,0-19.8943,5.2669-23.188-3.1364c-1.0245-2.5527,0.4773-16.6204,0.4773-19.5743v-68.071
			c0-1.2458,0.1146-2.5527,0.3401-3.745c0.2255-1.5897,0.6802-3.1221,1.25-4.601c0.569-1.5324,1.3639-2.9501,2.2122-4.2571
			c0.2866-0.3974,0.5694-0.7949,0.9095-1.1923c0.5694-0.7949,1.1923-1.5324,1.9298-2.2126
			c1.0776-1.0815,2.2699-2.1018,3.5195-2.8966c3.5768-2.4419,7.8912-3.8023,12.5495-3.8023h85.4574
			c9.5918,0,3.9367,5.9614,7.2839,14.3609C119.7375,20.1732,116.75,23.0125,116.75,25.9626z"/>
		<g id="XMLID_161_">
			<polygon id="XMLID_239_" class="st0" points="3.25,41.0763 3.25,53.6908 15.853,41.0763 			"/>
			<path class="st0" d="M26.8778,3.2557v17.3149L8.024,1.6594c3.5768-2.4419,13.2899,1.5963,17.9482,1.5963H26.8778z"/>
			<path class="st0" d="M15.8645,22.2176H1.7369c0.2255-1.5897,0.0558-3.1221,0.6256-4.601
				c0.569-1.5324-1.2438-8.0801-0.3955-9.3871L15.8645,22.2176z"/>
			<polygon id="XMLID_236_" class="st0" points="59.9904,22.1947 59.9904,9.5802 47.3912,22.1947 			"/>
			<polygon id="XMLID_235_" class="st0" points="53.624,3.2672 36.3435,3.2672 36.3435,20.5668 			"/>
			<polygon id="XMLID_234_" class="st0" points="59.9904,53.6908 59.9904,41.0763 47.3912,41.0763 			"/>
			<polygon id="XMLID_233_" class="st0" points="9.6203,60.0038 26.9011,60.0038 26.9011,42.7043 			"/>
			<polygon id="XMLID_232_" class="st0" points="36.3435,60.0038 53.624,60.0038 36.3435,42.7043 			"/>
			<path class="st1" d="M59.979,9.5573l-12.603,12.6604h12.603v18.8472h-12.603l12.603,12.603v2.1591L45.2742,41.0649h-4.2571
				l18.9046,18.9619h-6.3015L36.3588,42.7119v17.3149h-9.4809V42.7119L9.6203,60.0267H7.5185l18.9046-18.9619H22.166L3.2615,60.0267
				v-6.3588l12.603-12.603H3.2615V25.9626c0-1.2458-0.7934-2.5756-0.568-3.7679l13.171,0.0229L1.2016,7.4974
				c0.2866-0.3974,0.538-0.6736,0.8781-1.071l15.8866,15.7913h4.1997L4.0095,4.2138C5.0872,3.1323,6.2795,2.112,7.5291,1.3171
				l19.3488,19.2535V3.2557h9.4809v17.3149L53.6201,3.2557h2.098L36.8135,22.2176h4.2571L59.979,3.2557V9.5573z"/>
			<path class="st2" d="M22.166,22.2176h-4.1997L2.3624,6.5564c0.5694-0.7949,1.1923-1.5324,1.9298-2.2126L22.166,22.2176z"/>
			<polygon id="XMLID_227_" class="st2" points="41.0247,41.0763 59.9331,60.0038 59.9904,60.0038 59.9904,55.8194 45.2627,41.0763 
							"/>
			<polygon id="XMLID_224_" class="st2" points="36.8135,22.1947 41.0515,22.1947 59.9599,3.2672 55.7219,3.2672 			"/>
			<polygon id="XMLID_223_" class="st2" points="26.4002,41.0763 22.1626,41.0763 3.2538,60.0038 7.4918,60.0038 			"/>
			<polygon id="XMLID_169_" class="st2" points="59.9904,25.9626 34.4595,25.9626 34.4595,3.2672 28.7847,3.2672 28.7847,25.9626 
				3.25,25.9626 3.25,37.3084 28.7847,37.3084 28.7847,60.0038 34.4595,60.0038 34.4595,37.3084 59.9904,37.3084 			"/>
		</g>
		<polygon id="XMLID_257_" class="st1" points="31.6202,96.1239 24.2449,103.717 25.5786,93.2158 15.0429,92.1802 24.0844,86.6735 
			18.3255,77.7925 28.2688,81.4305 31.6202,71.3917 34.9754,81.4305 44.9149,77.7925 39.1561,86.6735 48.1975,92.1802 
			37.6657,93.2158 38.9994,103.717 		"/>
		<g>
			<polygon id="XMLID_256_" class="st1" points="88.4982,95.6653 85.4602,98.7912 86.0105,94.4692 81.677,94.0412 85.3952,91.7789 
				83.026,88.1218 87.1187,89.6198 88.4982,85.4889 89.8781,89.6198 93.9671,88.1218 91.5978,91.7789 95.3195,94.0412 
				90.9822,94.4692 91.5324,98.7912 			"/>
			<polygon id="XMLID_255_" class="st1" points="73.8622,57.0575 70.828,60.1796 71.3783,55.8576 67.041,55.4334 70.763,53.1673 
				68.3938,49.514 72.4827,51.012 73.8622,46.8811 75.2456,51.012 79.3345,49.514 76.9652,53.1673 80.6834,55.4334 76.3503,55.8576 
				76.9002,60.1796 			"/>
			<polygon id="XMLID_238_" class="st1" points="88.4906,30.6477 85.4564,33.7736 86.0029,29.4516 81.6694,29.0274 85.3914,26.7613 
				83.0221,23.108 87.1111,24.6022 88.4906,20.4712 89.8701,24.6022 93.9591,23.108 91.5898,26.7613 95.3118,29.0274 
				90.9783,29.4516 91.5248,33.7736 			"/>
			<polygon id="XMLID_237_" class="st1" points="105.2475,50.5496 102.2095,53.6717 102.7598,49.3497 98.4263,48.9255 
				102.1449,46.6594 99.7756,43.0061 103.868,44.5041 105.2475,40.3732 106.6271,44.5041 110.716,43.0061 108.3467,46.6594 
				112.0688,48.9255 107.7314,49.3497 108.2817,53.6717 			"/>
			<polygon id="XMLID_231_" class="st1" points="93.3706,65.7703 90.9019,67.4174 91.7082,64.5628 89.3813,62.7247 92.3426,62.61 
				93.3706,59.828 94.3985,62.61 97.3601,62.7247 95.0329,64.5628 95.8395,67.4174 			"/>
		</g>
	</g>
</g>
<g id="Layer_2">
	<g id="Layer_2_00000088105433355850506420000007078132686907385754_">
		<g id="Layer_2_00000008151020972403519510000017401608398655629208_">
			<path class="st3" d="M109.6865,3.2227c3.916,0,7.0908,3.1748,7.0908,7.0908v99.372c0,3.919-3.1748,7.0918-7.0908,7.0918h-99.374
				c-3.916,0-7.0908-3.1728-7.0908-7.0918v-99.372c0-3.916,3.1748-7.0908,7.0908-7.0908L109.6865,3.2227 M109.6865,0h-99.374
				C4.625,0,0,4.625,0,10.3135v99.372C0,115.373,4.625,120,10.3125,120h99.374C115.374,120,120,115.373,120,109.6855v-99.372
				C120,4.625,115.374,0,109.6865,0L109.6865,0z"/>
		</g>
	</g>
</g>
</svg>
