<?xml version="1.0" encoding="utf-8"?>
<!-- Generator: Adobe Illustrator 27.6.1, SVG Export Plug-In . SVG Version: 6.00 Build 0)  -->
<svg version="1.1" id="Layer_1" xmlns="http://www.w3.org/2000/svg" xmlns:xlink="http://www.w3.org/1999/xlink" x="0px" y="0px"
	 viewBox="0 0 120 120" style="enable-background:new 0 0 120 120;" xml:space="preserve">
<style type="text/css">
	.st0{fill:#FFFFFF;}
	.st1{fill:#D1D3D4;}
	.st2{fill:#E6323D;}
	.st3{fill:#059E4C;}
</style>
<path class="st0" d="M103.438,120H16.562C7.4151,120,0,112.5849,0,103.438V16.562C0,7.4151,7.4151,0,16.562,0h86.8759
	C112.5849,0,120,7.4151,120,16.562v86.8759C120,112.5849,112.5849,120,103.438,120z"/>
<path class="st1" d="M109.6865,3.2227c3.916,0,7.0908,3.1748,7.0908,7.0908v99.372c0,3.919-3.1748,7.0918-7.0908,7.0918h-99.374
	c-3.916,0-7.0908-3.1728-7.0908-7.0918v-99.372c0-3.916,3.1748-7.0908,7.0908-7.0908H109.6865 M109.6865,0h-99.374
	C4.625,0,0,4.625,0,10.3135v99.372C0,115.373,4.625,120,10.3125,120h99.374C115.374,120,120,115.373,120,109.6855v-99.372
	C120,4.625,115.374,0,109.6865,0L109.6865,0z"/>
<g>
	<g>
		<polygon class="st0" points="25.2671,70.3579 24.1362,70.3579 24.1362,68.439 23.0064,68.439 23.0064,66.521 21.8765,66.521 
			21.8765,68.439 20.7446,68.439 20.7446,70.3579 19.6157,70.3579 19.6157,72.2759 18.4839,72.2759 18.4839,74.1929 17.353,74.1929 
			17.353,76.1128 16.2241,76.1128 16.2241,78.0298 17.353,78.0298 17.353,79.9468 18.4839,79.9468 18.4839,81.8657 21.8765,81.8657 
			21.8765,79.9468 19.6157,79.9468 19.6157,78.0298 20.7446,78.0298 20.7446,76.1128 21.8765,76.1128 21.8765,74.1929 
			23.0064,74.1929 23.0064,76.1128 24.1362,76.1128 24.1362,78.0298 25.2671,78.0298 25.2671,79.9468 26.398,79.9468 
			26.398,79.3091 26.398,76.1128 25.2671,76.1128 25.2671,74.1929 26.398,74.1929 26.398,72.2759 25.2671,72.2759 		"/>
		<polygon class="st0" points="25.2671,55.0112 24.1362,55.0112 24.1362,56.9311 23.0064,56.9311 23.0064,58.8481 21.8765,58.8481 
			21.8765,59.6147 21.8765,59.9985 21.8765,60.7661 23.0064,60.7661 23.0064,62.685 24.1362,62.685 24.1362,64.602 25.2671,64.602 
			25.2671,66.521 26.398,66.521 26.398,53.0942 25.2671,53.0942 		"/>
		<polygon class="st0" points="25.2671,41.5854 24.1362,41.5854 24.1362,43.5034 23.0064,43.5034 23.0064,45.4204 21.8765,45.4204 
			21.8765,43.5034 20.7446,43.5034 20.7446,41.5854 19.6157,41.5854 19.6157,39.6665 21.8765,39.6665 21.8765,37.7485 
			18.4839,37.7485 18.4839,39.6665 17.353,39.6665 17.353,41.5854 16.2241,41.5854 16.2241,43.5034 17.353,43.5034 17.353,45.4204 
			18.4839,45.4204 18.4839,47.3403 19.6157,47.3403 19.6157,49.2573 20.7446,49.2573 20.7446,51.1763 21.8765,51.1763 
			21.8765,53.0942 23.0064,53.0942 23.0064,51.1763 24.1362,51.1763 24.1362,49.2573 25.2671,49.2573 25.2671,47.3403 
			26.398,47.3403 26.398,45.4204 25.2671,45.4204 25.2671,43.5034 26.398,43.5034 26.398,39.6665 25.2671,39.6665 		"/>
		<polygon class="st0" points="3.7876,60.7661 4.9175,60.7661 4.9175,59.9985 4.9175,59.6147 4.9175,58.8481 3.7876,58.8481 
			3.7876,56.9311 3.2222,56.9311 3.2222,62.685 3.7876,62.685 		"/>
		<polygon class="st0" points="3.7876,53.0942 4.9175,53.0942 4.9175,51.1763 6.0493,51.1763 6.0493,49.2573 7.1802,49.2573 
			7.1802,47.3403 8.3101,47.3403 8.3101,45.4204 9.44,45.4204 9.44,43.5034 10.5708,43.5034 10.5708,41.5854 9.44,41.5854 
			9.44,39.6665 8.3101,39.6665 8.3101,37.7485 4.9175,37.7485 4.9175,39.6665 7.1802,39.6665 7.1802,41.5854 6.0493,41.5854 
			6.0493,43.5034 4.9175,43.5034 4.9175,45.4204 3.7876,45.4204 3.7876,43.5034 3.2222,43.5034 3.2222,51.1763 3.7876,51.1763 		"/>
		<polygon class="st0" points="3.7876,74.1929 4.9175,74.1929 4.9175,76.1128 6.0493,76.1128 6.0493,78.0298 7.1802,78.0298 
			7.1802,79.9468 4.9175,79.9468 4.9175,81.8657 8.3101,81.8657 8.3101,79.9468 9.44,79.9468 9.44,78.0298 10.5708,78.0298 
			10.5708,76.1128 9.44,76.1128 9.44,74.1929 8.3101,74.1929 8.3101,72.2759 7.1802,72.2759 7.1802,70.3579 6.0493,70.3579 
			6.0493,68.439 4.9175,68.439 4.9175,66.521 3.7876,66.521 3.7876,68.439 3.2222,68.439 3.2222,76.1128 3.7876,76.1128 		"/>
		<path class="st0" d="M3.7876,30.0766h1.1299v-1.9179h1.1318v-1.919h1.1309v1.919h1.1299v1.9179H9.44v1.917h1.1308v1.919h1.1318
			v1.918h1.1299v1.9179h0.4512h0.2256h0.4531v-1.9179h1.1299v-1.918h1.1318v-1.919h1.1289v-1.917h1.1309v-1.9179h1.1318v-1.919
			h1.1289v1.919h1.1319v1.9179h1.1299v1.917h1.1298v1.919h1.1309v1.918h1.1309v-3.837h-1.1309v-1.917h1.1309v-5.7548h-1.1309v1.9179
			h-1.1309v1.919h-1.1298v-1.919h-1.1299v-1.9179h-1.1319v-1.918h1.1319v-1.918h1.1299v-1.9179h1.1298v1.9179h1.1309v1.918h1.1309
			v-5.7539h-1.1309v-1.919h1.1309V10.895h-1.1309v1.918h-1.1309v1.9179h-1.1298v1.919h-1.1299v1.918h-1.1319v1.9179h-1.1289v-1.9179
			h-1.1318v-1.918H17.353v-1.919h-1.1289V12.813h-1.1318v-1.918h-1.1299V8.977h1.1299V7.0581h1.1318v-1.918h1.1289V3.2222h-3.3906
			v1.9179h-0.4531h-0.2256h-0.4512V3.2222H10.313c-0.2969,0-0.5859,0.0244-0.873,0.0595v1.8584h1.1308v1.918h1.1318V8.977h1.1299
			v1.918h-1.1299v1.918h-1.1318v1.9179H9.44v1.919H8.3101v1.918H7.1802v1.9179H6.0493v-1.9179H4.9175v-1.918H3.7876v-1.919H3.2222
			v3.837h0.5654v1.9179h1.1299v1.918h1.1318v1.918H4.9175v1.9179H3.7876v1.919H3.2222v3.8349h0.5654V30.0766z M13.9624,31.9936
			h-0.4531h-0.2256h-0.4512v-3.8349h0.4512h0.2256h0.4531V31.9936z M15.0923,22.4038v-1.918h1.1318v-1.9179h1.1289v1.9179h1.1309
			v1.918h1.1318v1.918h-1.1318v1.9179H17.353v1.919h-1.1289v-1.919h-1.1318v-1.9179h-1.1299v-1.918H15.0923z M12.8325,14.7309
			h0.4512h0.2256h0.4531v3.837h-0.4531h-0.2256h-0.4512V14.7309z M7.1802,22.4038h1.1299v-1.918H9.44v-1.9179h1.1308v1.9179h1.1318
			v1.918h1.1299v1.918h-1.1299v1.9179h-1.1318v1.919H9.44v-1.919H8.3101v-1.9179H7.1802V22.4038z"/>
		<path class="st0" d="M17.353,116.3921v-1.918h-1.1289v-1.918h-1.1318v-1.9179h-1.1299v-1.918h1.1299v-1.918h1.1318v-1.9189h1.1289
			v-1.918h1.1309v-1.917h1.1318v-1.9189h1.1289v1.9189h1.1319v1.917h1.1299v1.918h1.1298v1.9189h1.1309v1.918h1.1309v-3.8369
			h-1.1309v-1.918h1.1309v-5.7539h-1.1309v1.918h-1.1309v1.9189h-1.1298v-1.9189h-1.1299v-1.918h-1.1319v-1.917h1.1319v-1.9199
			h1.1299v-1.918h1.1298v1.918h1.1309v1.9199h1.1309v-5.7558h-1.1309v-1.918h1.1309v-3.8369h-1.1309v1.9179h-1.1309v1.919h-1.1298
			v1.918h-1.1299v1.9179h-1.1319v1.918h-1.1289v-1.918h-1.1318v-1.9179H17.353v-1.918h-1.1289v-1.919h-1.1318v-1.9179h-1.1299
			v-1.918h-0.4531h-0.2256h-0.4512v1.918h-1.1299v1.9179h-1.1318v1.919H9.44v1.918H8.3101v1.9179H7.1802v1.918H6.0493v-1.918H4.9175
			v-1.9179H3.7876v-1.918H3.2222v3.8359h0.5654v1.918h1.1299v1.9199h1.1318v1.917H4.9175v1.918H3.7876v1.9189H3.2222v3.835h0.5654
			v-1.918h1.1299v-1.917h1.1318v-1.9189h1.1309v1.9189h1.1299v1.917H9.44v1.918h1.1308v1.9189h1.1318v1.918h1.1299v1.918h-1.1299
			v1.9179h-1.1318v1.918H9.44v1.918H8.3101v0.0937c0.6357,0.1866,1.3066,0.292,2.0029,0.292h2.5195v-2.3037h0.4512h0.2256h0.4531
			v2.3037h4.5215v-0.3857H17.353z M15.0923,95.2944v-1.9199h1.1318v-1.918h1.1289v1.918h1.1309v1.9199h1.1318v1.917h-1.1318v1.918
			H17.353v1.9189h-1.1289v-1.9189h-1.1318v-1.918h-1.1299v-1.917H15.0923z M12.8325,87.6206h0.4512h0.2256h0.4531v3.8359h-0.4531
			h-0.2256h-0.4512V87.6206z M11.7026,97.2114v1.918h-1.1318v1.9189H9.44v-1.9189H8.3101v-1.918H7.1802v-1.917h1.1299v-1.9199H9.44
			v-1.918h1.1308v1.918h1.1318v1.9199h1.1299v1.917H11.7026z M13.5093,104.8833h-0.2256h-0.4512v-3.835h0.4512h0.2256h0.4531v3.835
			H13.5093z"/>
		<path class="st0" d="M10.5708,70.3579h1.1318v1.918h1.1299v1.917h0.4512h0.2256h0.4531v-1.917h1.1299v-1.918h1.1318V68.439h1.1289
			v-1.918h1.1309v-1.919h1.1318v-4.6035v-0.3838v-4.6035h-1.1318v-1.917H17.353v-1.9179h-1.1289v-1.919h-1.1318v-1.917h-1.1299
			v-1.9199h-0.4531h-0.2256h-0.4512v1.9199h-1.1299v1.917h-1.1318v1.919H9.44v1.9179H8.3101v1.917H7.1802v4.6035v0.3838v4.6035
			h1.1299v1.919H9.44v1.918h1.1308V70.3579z M17.353,59.9985v-0.3838v-0.7666h1.1309v0.7666v0.3838v0.7676H17.353V59.9985z
			 M9.44,59.6147v0.3838v0.7676H8.3101v-0.7676v-0.3838v-0.7666H9.44V59.6147z M13.9624,70.3579h-0.4531h-0.2256h-0.4512V68.439
			h0.4512h0.2256h0.4531V70.3579z M12.8325,49.2573h0.4512h0.2256h0.4531v1.919h-0.4531h-0.2256h-0.4512V49.2573z M10.5708,62.685
			h1.1318v-1.9189h1.1299v-0.7676v-0.3838v-0.7666h-1.1299v-1.917h-1.1318v-3.8369h1.1318v1.917h1.1299v1.9199h0.4512h0.2256h0.4531
			v-1.9199h1.1299v-1.917h1.1318v3.8369h-1.1318v1.917h-1.1299v0.7666v0.3838v0.7676h1.1299v1.9189h1.1318v3.836h-1.1318v-1.919
			h-1.1299v-1.917h-0.4531h-0.2256h-0.4512v1.917h-1.1299v1.919h-1.1318V62.685z"/>
		<polygon class="st0" points="25.2671,116.3921 25.2671,114.4741 26.398,114.4741 26.398,110.6382 25.2671,110.6382 
			25.2671,112.5561 24.1362,112.5561 24.1362,114.4741 23.0064,114.4741 23.0064,116.3921 21.8765,116.3921 21.8765,116.7778 
			26.398,116.7778 26.398,116.3921 		"/>
		<polygon class="st0" points="24.1362,5.1401 24.1362,7.0581 25.2671,7.0581 25.2671,8.977 26.398,8.977 26.398,5.1401 
			25.2671,5.1401 25.2671,3.2222 23.0064,3.2222 23.0064,5.1401 		"/>
		<polygon class="st2" points="3.7876,26.2397 4.9175,26.2397 4.9175,24.3218 6.0493,24.3218 6.0493,22.4038 4.9175,22.4038 
			4.9175,20.4858 3.7876,20.4858 3.7876,18.5679 3.2222,18.5679 3.2222,28.1587 3.7876,28.1587 		"/>
		<path class="st2" d="M3.7876,16.6499h1.1299v1.918h1.1318v1.9179h1.1309v-1.9179h1.1299v-1.918H9.44v-1.919h1.1308V12.813h1.1318
			v-1.918h1.1299V8.977h-1.1299V7.0581h-1.1318v-1.918H9.44V3.2817C5.937,3.7124,3.2222,6.6938,3.2222,10.313v4.4179h0.5654V16.6499
			z"/>
		<polygon class="st2" points="8.3101,26.2397 9.44,26.2397 9.44,28.1587 10.5708,28.1587 10.5708,26.2397 11.7026,26.2397 
			11.7026,24.3218 12.8325,24.3218 12.8325,22.4038 11.7026,22.4038 11.7026,20.4858 10.5708,20.4858 10.5708,18.5679 9.44,18.5679 
			9.44,20.4858 8.3101,20.4858 8.3101,22.4038 7.1802,22.4038 7.1802,24.3218 8.3101,24.3218 		"/>
		<polygon class="st2" points="8.3101,59.6147 8.3101,59.9985 8.3101,60.7661 9.44,60.7661 9.44,59.9985 9.44,59.6147 9.44,58.8481 
			8.3101,58.8481 		"/>
		<polygon class="st2" points="25.2671,20.4858 24.1362,20.4858 24.1362,18.5679 23.0064,18.5679 23.0064,20.4858 21.8765,20.4858 
			21.8765,22.4038 20.7446,22.4038 20.7446,24.3218 21.8765,24.3218 21.8765,26.2397 23.0064,26.2397 23.0064,28.1587 
			24.1362,28.1587 24.1362,26.2397 25.2671,26.2397 25.2671,24.3218 26.398,24.3218 26.398,22.4038 25.2671,22.4038 		"/>
		<polygon class="st2" points="16.2241,5.1401 16.2241,7.0581 15.0923,7.0581 15.0923,8.977 13.9624,8.977 13.9624,10.895 
			15.0923,10.895 15.0923,12.813 16.2241,12.813 16.2241,14.7309 17.353,14.7309 17.353,16.6499 18.4839,16.6499 18.4839,18.5679 
			19.6157,18.5679 19.6157,20.4858 20.7446,20.4858 20.7446,18.5679 21.8765,18.5679 21.8765,16.6499 23.0064,16.6499 
			23.0064,14.7309 24.1362,14.7309 24.1362,12.813 25.2671,12.813 25.2671,10.895 26.398,10.895 26.398,8.977 25.2671,8.977 
			25.2671,7.0581 24.1362,7.0581 24.1362,5.1401 23.0064,5.1401 23.0064,3.2222 21.8765,3.2222 18.4839,3.2222 17.353,3.2222 
			17.353,5.1401 		"/>
		<rect x="25.2671" y="3.2222" class="st2" width="1.1309" height="1.9179"/>
		<rect x="25.2671" y="14.7309" class="st2" width="1.1309" height="1.919"/>
		<polygon class="st2" points="13.9624,24.3218 15.0923,24.3218 15.0923,26.2397 16.2241,26.2397 16.2241,28.1587 17.353,28.1587 
			17.353,26.2397 18.4839,26.2397 18.4839,24.3218 19.6157,24.3218 19.6157,22.4038 18.4839,22.4038 18.4839,20.4858 
			17.353,20.4858 17.353,18.5679 16.2241,18.5679 16.2241,20.4858 15.0923,20.4858 15.0923,22.4038 13.9624,22.4038 		"/>
		<rect x="25.2671" y="30.0766" class="st2" width="1.1309" height="1.917"/>
		<polygon class="st2" points="13.2837,28.1587 12.8325,28.1587 12.8325,31.9936 13.2837,31.9936 13.5093,31.9936 13.9624,31.9936 
			13.9624,28.1587 13.5093,28.1587 		"/>
		<polygon class="st2" points="13.2837,5.1401 13.5093,5.1401 13.9624,5.1401 13.9624,3.2222 12.8325,3.2222 12.8325,5.1401 		"/>
		<polygon class="st2" points="13.5093,18.5679 13.9624,18.5679 13.9624,14.7309 13.5093,14.7309 13.2837,14.7309 12.8325,14.7309 
			12.8325,18.5679 13.2837,18.5679 		"/>
		<rect x="25.2671" y="43.5034" class="st2" width="1.1309" height="1.917"/>
		<polygon class="st2" points="11.7026,64.602 12.8325,64.602 12.8325,62.685 13.2837,62.685 13.5093,62.685 13.9624,62.685 
			13.9624,64.602 15.0923,64.602 15.0923,66.521 16.2241,66.521 16.2241,62.685 15.0923,62.685 15.0923,60.7661 13.9624,60.7661 
			13.9624,59.9985 13.9624,59.6147 13.9624,58.8481 15.0923,58.8481 15.0923,56.9311 16.2241,56.9311 16.2241,53.0942 
			15.0923,53.0942 15.0923,55.0112 13.9624,55.0112 13.9624,56.9311 13.5093,56.9311 13.2837,56.9311 12.8325,56.9311 
			12.8325,55.0112 11.7026,55.0112 11.7026,53.0942 10.5708,53.0942 10.5708,56.9311 11.7026,56.9311 11.7026,58.8481 
			12.8325,58.8481 12.8325,59.6147 12.8325,59.9985 12.8325,60.7661 11.7026,60.7661 11.7026,62.685 10.5708,62.685 10.5708,66.521 
			11.7026,66.521 		"/>
		<path class="st2" d="M3.7876,89.5386h1.1299v1.9179h1.1318v1.918h1.1309v-1.918h1.1299v-1.9179H9.44v-1.918h1.1308v-1.919h1.1318
			v-1.9179h1.1299v-1.918h0.4512h0.2256h0.4531v1.918h1.1299v1.9179h1.1318v1.919h1.1289v1.918h1.1309v1.9179h1.1318v1.918h1.1289
			v-1.918h1.1319v-1.9179h1.1299v-1.918h1.1298v-1.919h1.1309v-1.9179h1.1309v-3.8369h-1.1309v-1.917h-1.1309v-1.917h-1.1298
			v-1.9199h-1.1299v1.9199h-1.1319v1.917h-1.1289v1.917h2.2608v1.9189h-3.3926v-1.9189H17.353v-1.917h-1.1289v-1.917h1.1289v-1.9199
			h1.1309v-1.917h1.1318v-1.918h1.1289V68.439h1.1319v-1.918h1.1299v1.918h1.1298v1.9189h1.1309v1.918h1.1309V66.521h-1.1309v-1.919
			h-1.1309v-1.917h-1.1298v-1.9189h-1.1299v-0.7676v-0.3838v-0.7666h1.1299v-1.917h1.1298v-1.9199h1.1309v-1.917h1.1309v-5.7539
			h-1.1309v1.917h-1.1309v1.919h-1.1298v1.9179h-1.1299v-1.9179h-1.1319v-1.919h-1.1289v-1.917h-1.1318v-1.9199H17.353v-1.917
			h-1.1289v-1.918h1.1289v-1.9189h1.1309v-1.918h3.3926v1.918h-2.2608v1.9189h1.1289v1.918h1.1319v1.917h1.1299v-1.917h1.1298
			v-1.918h1.1309v-1.9189h1.1309v-3.8359h-1.1309v-1.918h-1.1309v-1.919h-1.1298v-1.917h-1.1299v-1.9179h-1.1319v-1.919h-1.1289
			v1.919h-1.1318v1.9179H17.353v1.917h-1.1289v1.919h-1.1318v1.918h-1.1299v1.9179h-0.4531h-0.2256h-0.4512v-1.9179h-1.1299v-1.918
			h-1.1318v-1.919H9.44v-1.917H8.3101v-1.9179H7.1802v-1.919H6.0493v1.919H4.9175v1.9179H3.7876v1.917H3.2222v11.5098h0.5654v1.917
			h1.1299v-1.917h1.1318v-1.918h1.1309v-1.9189H4.9175v-1.918h3.3926v1.918H9.44v1.9189h1.1308v1.918H9.44v1.917H8.3101v1.9199
			H7.1802v1.917H6.0493v1.919H4.9175v1.9179H3.7876v-1.9179H3.2222v5.7548h0.5654v1.917h1.1299v0.7666v0.3838v0.7676H3.7876v1.9189
			H3.2222v5.754h0.5654v-1.918h1.1299v1.918h1.1318v1.9189h1.1309v1.918h1.1299v1.917H9.44v1.9199h1.1308v1.917H9.44v1.917H8.3101
			v1.9189H4.9175v-1.9189h2.2627v-1.917H6.0493v-1.917H4.9175v-1.9199H3.7876v1.9199H3.2222v11.5078h0.5654V89.5386z M9.44,68.439
			v-1.918H8.3101v-1.919H7.1802v-4.6035v-0.3838v-4.6035h1.1299v-1.917H9.44v-1.9179h1.1308v-1.919h1.1318v-1.917h1.1299v-1.9199
			h0.4512h0.2256h0.4531v1.9199h1.1299v1.917h1.1318v1.919h1.1289v1.9179h1.1309v1.917h1.1318v4.6035v0.3838v4.6035h-1.1318v1.919
			H17.353v1.918h-1.1289v1.9189h-1.1318v1.918h-1.1299v1.917h-0.4531h-0.2256h-0.4512v-1.917h-1.1299v-1.918h-1.1318V68.439H9.44z"
			/>
		<polygon class="st2" points="13.5093,51.1763 13.9624,51.1763 13.9624,49.2573 13.5093,49.2573 13.2837,49.2573 12.8325,49.2573 
			12.8325,51.1763 13.2837,51.1763 		"/>
		<polygon class="st2" points="3.7876,99.1294 4.9175,99.1294 4.9175,97.2114 6.0493,97.2114 6.0493,95.2944 4.9175,95.2944 
			4.9175,93.3745 3.7876,93.3745 3.7876,91.4565 3.2222,91.4565 3.2222,101.0483 3.7876,101.0483 		"/>
		<polygon class="st2" points="13.9624,101.0483 13.5093,101.0483 13.2837,101.0483 12.8325,101.0483 12.8325,104.8833 
			13.2837,104.8833 13.5093,104.8833 13.9624,104.8833 		"/>
		<path class="st2" d="M9.44,116.3921v-1.918h1.1308v-1.918h1.1318v-1.9179h1.1299v-1.918h-1.1299v-1.918h-1.1318v-1.9189H9.44
			v-1.918H8.3101v-1.917H7.1802v-1.9189H6.0493v1.9189H4.9175v1.917H3.7876v1.918H3.2222v4.8027
			c0,3.2207,2.1484,5.9356,5.0879,6.7998v-0.0937H9.44z"/>
		<polygon class="st2" points="12.8325,95.2944 11.7026,95.2944 11.7026,93.3745 10.5708,93.3745 10.5708,91.4565 9.44,91.4565 
			9.44,93.3745 8.3101,93.3745 8.3101,95.2944 7.1802,95.2944 7.1802,97.2114 8.3101,97.2114 8.3101,99.1294 9.44,99.1294 
			9.44,101.0483 10.5708,101.0483 10.5708,99.1294 11.7026,99.1294 11.7026,97.2114 12.8325,97.2114 		"/>
		<polygon class="st2" points="23.0064,116.3921 23.0064,114.4741 24.1362,114.4741 24.1362,112.5561 25.2671,112.5561 
			25.2671,110.6382 26.398,110.6382 26.398,108.7202 25.2671,108.7202 25.2671,106.8022 24.1362,106.8022 24.1362,104.8833 
			23.0064,104.8833 23.0064,102.9653 21.8765,102.9653 21.8765,101.0483 20.7446,101.0483 20.7446,99.1294 19.6157,99.1294 
			19.6157,101.0483 18.4839,101.0483 18.4839,102.9653 17.353,102.9653 17.353,104.8833 16.2241,104.8833 16.2241,106.8022 
			15.0923,106.8022 15.0923,108.7202 13.9624,108.7202 13.9624,110.6382 15.0923,110.6382 15.0923,112.5561 16.2241,112.5561 
			16.2241,114.4741 17.353,114.4741 17.353,116.3921 18.4839,116.3921 18.4839,116.7778 21.8765,116.7778 21.8765,116.3921 		"/>
		<rect x="25.2671" y="102.9653" class="st2" width="1.1309" height="1.918"/>
		<rect x="25.2671" y="114.4741" class="st2" width="1.1309" height="1.918"/>
		<polygon class="st2" points="13.9624,97.2114 15.0923,97.2114 15.0923,99.1294 16.2241,99.1294 16.2241,101.0483 17.353,101.0483 
			17.353,99.1294 18.4839,99.1294 18.4839,97.2114 19.6157,97.2114 19.6157,95.2944 18.4839,95.2944 18.4839,93.3745 
			17.353,93.3745 17.353,91.4565 16.2241,91.4565 16.2241,93.3745 15.0923,93.3745 15.0923,95.2944 13.9624,95.2944 		"/>
		<rect x="25.2671" y="87.6206" class="st2" width="1.1309" height="1.918"/>
		<polygon class="st2" points="25.2671,93.3745 24.1362,93.3745 24.1362,91.4565 23.0064,91.4565 23.0064,93.3745 21.8765,93.3745 
			21.8765,95.2944 20.7446,95.2944 20.7446,97.2114 21.8765,97.2114 21.8765,99.1294 23.0064,99.1294 23.0064,101.0483 
			24.1362,101.0483 24.1362,99.1294 25.2671,99.1294 25.2671,97.2114 26.398,97.2114 26.398,95.2944 25.2671,95.2944 		"/>
		<polygon class="st2" points="13.5093,114.4741 13.2837,114.4741 12.8325,114.4741 12.8325,116.7778 13.9624,116.7778 
			13.9624,114.4741 		"/>
		<polygon class="st2" points="13.5093,91.4565 13.9624,91.4565 13.9624,87.6206 13.5093,87.6206 13.2837,87.6206 12.8325,87.6206 
			12.8325,91.4565 13.2837,91.4565 		"/>
		<polygon class="st2" points="18.4839,59.9985 18.4839,59.6147 18.4839,58.8481 17.353,58.8481 17.353,59.6147 17.353,59.9985 
			17.353,60.7661 18.4839,60.7661 		"/>
		<rect x="25.2671" y="74.1929" class="st2" width="1.1309" height="1.9199"/>
		<polygon class="st2" points="13.2837,68.439 12.8325,68.439 12.8325,70.3579 13.2837,70.3579 13.5093,70.3579 13.9624,70.3579 
			13.9624,68.439 13.5093,68.439 		"/>
		<path class="st2" d="M109.687,3.2222H26.398v1.9179V8.977v1.918v3.8359v1.919v5.7539v1.918v5.7548v1.917v3.837v3.8359v3.8369
			v1.917v1.9199v5.7539V66.521v5.7549v1.917v1.9199v3.1963h90.3798V10.313C116.7778,6.397,113.603,3.2222,109.687,3.2222z"/>
		<path class="st3" d="M26.398,79.9468v3.8369v3.8369v1.918v5.7558v1.917v5.7539v1.918v3.8369v1.918v3.8359v1.918v0.3857h83.289
			c3.916,0,7.0908-3.1748,7.0908-7.0918V79.3091H26.398V79.9468z"/>
	</g>
</g>
</svg>
