<?xml version="1.0" encoding="utf-8"?>
<!-- Generator: Adobe Illustrator 27.6.1, SVG Export Plug-In . SVG Version: 6.00 Build 0)  -->
<svg version="1.1" id="Layer_1" xmlns="http://www.w3.org/2000/svg" xmlns:xlink="http://www.w3.org/1999/xlink" x="0px" y="0px"
	 viewBox="0 0 120 120" style="enable-background:new 0 0 120 120;" xml:space="preserve">
<style type="text/css">
	.st0{fill:#FFFFFF;}
	.st1{fill:#D1D3D4;}
	.st2{fill:#E32629;}
	.st3{fill:#FEE025;}
	.st4{fill:#020202;}
</style>
<path class="st0" d="M103.438,120H16.562C7.4151,120,0,112.5849,0,103.438V16.562C0,7.4151,7.4151,0,16.562,0h86.8759
	C112.5849,0,120,7.4151,120,16.562v86.8759C120,112.5849,112.5849,120,103.438,120z"/>
<path class="st1" d="M109.6865,3.2227c3.916,0,7.0908,3.1748,7.0908,7.0908v99.372c0,3.919-3.1748,7.0918-7.0908,7.0918h-99.374
	c-3.916,0-7.0908-3.1728-7.0908-7.0918v-99.372c0-3.916,3.1748-7.0908,7.0908-7.0908H109.6865 M109.6865,0h-99.374
	C4.625,0,0,4.625,0,10.3135v99.372C0,115.373,4.625,120,10.3125,120h99.374C115.374,120,120,115.373,120,109.6855v-99.372
	C120,4.625,115.374,0,109.6865,0L109.6865,0z"/>
<g>
	<g>
		<path class="st2" d="M109.687,3.2222H83.0786v113.5556h26.6084c3.916,0,7.0908-3.1748,7.0908-7.0918V10.313
			C116.7778,6.397,113.603,3.2222,109.687,3.2222z"/>
		<rect x="36.9234" y="3.2222" class="st3" width="46.1552" height="113.5556"/>
		<path class="st4" d="M10.313,3.2222c-3.916,0-7.0908,3.1748-7.0908,7.0908v99.373c0,3.917,3.1748,7.0918,7.0908,7.0918h26.6104
			V3.2222H10.313z"/>
	</g>
</g>
</svg>
