<?xml version="1.0" encoding="utf-8"?>
<!-- Generator: Adobe Illustrator 27.6.1, SVG Export Plug-In . SVG Version: 6.00 Build 0)  -->
<svg version="1.1" id="Layer_1" xmlns="http://www.w3.org/2000/svg" xmlns:xlink="http://www.w3.org/1999/xlink" x="0px" y="0px"
	 viewBox="0 0 120 120" style="enable-background:new 0 0 120 120;" xml:space="preserve">
<style type="text/css">
	.st0{fill:#FFFFFF;}
	.st1{fill:#D1D3D4;}
	.st2{fill:#EE3324;}
	.st3{fill:#FEDE00;}
</style>
<path class="st0" d="M103.438,120H16.562C7.4151,120,0,112.5849,0,103.438V16.562C0,7.4151,7.4151,0,16.562,0h86.8759
	C112.5849,0,120,7.4151,120,16.562v86.8759C120,112.5849,112.5849,120,103.438,120z"/>
<path class="st1" d="M109.6865,3.2227c3.916,0,7.0908,3.1748,7.0908,7.0908v99.372c0,3.919-3.1748,7.0918-7.0908,7.0918h-99.374
	c-3.916,0-7.0908-3.1728-7.0908-7.0918v-99.372c0-3.916,3.1748-7.0908,7.0908-7.0908H109.6865 M109.6865,0h-99.374
	C4.625,0,0,4.625,0,10.3135v99.372C0,115.373,4.625,120,10.3125,120h99.374C115.374,120,120,115.373,120,109.6855v-99.372
	C120,4.625,115.374,0,109.6865,0L109.6865,0z"/>
<g>
	<g>
		<path class="st2" d="M109.687,3.2222H10.313c-3.916,0-7.0908,3.1748-7.0908,7.0908v99.373c0,3.917,3.1748,7.0918,7.0908,7.0918
			h99.374c3.916,0,7.0908-3.1748,7.0908-7.0918V10.313C116.7778,6.397,113.603,3.2222,109.687,3.2222z M36.1646,44.9477
			l-10.2598-7.4541L15.645,44.9477l3.919-12.0605L9.3042,25.4331h12.6817l3.9189-12.0606l3.9189,12.0606h12.6817l-10.2608,7.4541
			L36.1646,44.9477z M50.6069,9.5522l3.8916,1.6543l2.7754-3.1884l-0.373,4.2099l3.8916,1.6553l-4.1201,0.9482l-0.3711,4.21
			l-2.1748-3.6231l-4.1182,0.9473l2.7735-3.1885L50.6069,9.5522z M56.73,55.4878l-0.1943,4.2236l-2.3243-3.5322l-4.0761,1.1191
			l2.6406-3.3008l-2.3233-3.5322l3.9561,1.4922l2.6406-3.3008l-0.1963,4.2217l3.9551,1.4912L56.73,55.4878z M64.0698,19.7847
			l2.9434,3.0341l3.7959-1.8613l-1.9766,3.7373l2.9434,3.0342l-4.1641-0.7256l-1.9756,3.7373l-0.5986-4.1836l-4.165-0.7256
			l3.7959-1.8623L64.0698,19.7847z M70.2193,47.0454l-3.5079-2.3613l-3.3291,2.6054l1.1621-4.0654l-3.5058-2.3584l4.2236-0.1514
			l1.1621-4.0654l1.4492,3.9707l4.2247-0.1513L68.77,43.0747L70.2193,47.0454z"/>
		<polygon class="st3" points="29.8237,25.4331 25.9048,13.3725 21.9859,25.4331 9.3042,25.4331 19.564,32.8872 15.645,44.9477 
			25.9048,37.4936 36.1646,44.9477 32.2446,32.8872 42.5054,25.4331 		"/>
		<polygon class="st3" points="54.1265,15.4184 56.3013,19.0415 56.6724,14.8315 60.7925,13.8833 56.9009,12.228 57.2739,8.0181 
			54.4985,11.2065 50.6069,9.5522 52.7818,13.1772 50.0083,16.3657 		"/>
		<polygon class="st3" points="65.0376,26.5571 65.6362,30.7407 67.6118,27.0034 71.7759,27.729 68.8325,24.6948 70.8091,20.9575 
			67.0132,22.8188 64.0698,19.7847 64.6685,23.9692 60.8726,25.8315 		"/>
		<polygon class="st3" points="67.8735,40.6196 66.4243,36.6489 65.2622,40.7143 61.0386,40.8657 64.5444,43.2241 63.3823,47.2895 
			66.7114,44.6841 70.2193,47.0454 68.77,43.0747 72.0982,40.4683 		"/>
		<polygon class="st3" points="57.0493,48.6567 54.4087,51.9575 50.4526,50.4653 52.7759,53.9975 50.1353,57.2983 54.2114,56.1792 
			56.5357,59.7114 56.73,55.4878 60.8081,54.3696 56.853,52.8784 		"/>
	</g>
</g>
</svg>
