<?xml version="1.0" encoding="utf-8"?>
<!-- Generator: Adobe Illustrator 27.6.1, SVG Export Plug-In . SVG Version: 6.00 Build 0)  -->
<svg version="1.1" id="Layer_1" xmlns="http://www.w3.org/2000/svg" xmlns:xlink="http://www.w3.org/1999/xlink" x="0px" y="0px"
	 viewBox="0 0 120 120" style="enable-background:new 0 0 120 120;" xml:space="preserve">
<style type="text/css">
	.st0{fill:#FFFFFF;}
	.st1{fill:#D1D3D4;}
	.st2{fill:#020202;}
	.st3{fill:#E21F26;}
	.st4{fill:#CF962B;}
</style>
<path class="st0" d="M103.438,120H16.562C7.4151,120,0,112.5849,0,103.438V16.562C0,7.4151,7.4151,0,16.562,0h86.8759
	C112.5849,0,120,7.4151,120,16.562v86.8759C120,112.5849,112.5849,120,103.438,120z"/>
<path class="st1" d="M109.6865,3.2227c3.916,0,7.0908,3.1748,7.0908,7.0908v99.372c0,3.919-3.1748,7.0918-7.0908,7.0918h-99.374
	c-3.916,0-7.0908-3.1728-7.0908-7.0918v-99.372c0-3.916,3.1748-7.0908,7.0908-7.0908H109.6865 M109.6865,0h-99.374
	C4.625,0,0,4.625,0,10.3135v99.372C0,115.373,4.625,120,10.3125,120h99.374C115.374,120,120,115.373,120,109.6855v-99.372
	C120,4.625,115.374,0,109.6865,0L109.6865,0z"/>
<g>
	<g>
		<path class="st2" d="M3.2222,109.6855c0,3.918,3.1748,7.0918,7.0908,7.0918h99.374c3.916,0,7.0908-3.1738,7.0908-7.0918V80.0001
			H3.2222V109.6855z"/>
		<path class="st0" d="M61.9331,72.5371l-0.7705-0.5703l-0.7256-5.1934l0.3047,5.168l-0.7402,0.9434l-0.7422-0.9434l0.3047-5.166
			l-0.7256,5.1914l-0.7715,0.5703l-0.4912-0.4922l-0.1689,0.7676c0.3691-0.002,0.706-0.0195,1.0009-0.0567h0.002
			c0.2441,0,0.4599,0.1309,0.6025,0.3184c0.4063,0.0137,0.6084,0.2324,0.7041,0.4219c0.0352,0.0683,0.044,0.1504,0.0625,0.2285
			c0.0772,0.0039,0.1543,0.0059,0.2315,0.0098c0.0732,0,0.1377-0.002,0.2099-0.002c0.0186-0.0801,0.0274-0.166,0.0635-0.2363
			c0.0977-0.1914,0.3008-0.4121,0.7158-0.4238c0.1465-0.1856,0.3653-0.3184,0.6084-0.3184c0.2989,0.0371,0.627,0.0566,0.9854,0.0566
			l-0.168-0.7656L61.9331,72.5371z"/>
		<path class="st0" d="M3.2222,80.0001h113.5556V40H3.2222V80.0001z M49.2603,47.4649c1.2197,0,2.6006,0.6836,3.3154,1.0918
			c1.1621,0.7461,2.46,1.1211,3.8652,1.127c0.4688-0.6719,1.1446-1.752,1.4659-2.8242c0.5292-1.7461,0.497-3.0996,0.1982-3.5332
			c-0.2236-0.3243-0.5732-0.711-0.9678-0.711c-0.165,0-0.3359,0.0684-0.5039,0.2012c-0.0439,0.0352-0.0879,0.0527-0.1348,0.0527
			c-0.0429,0-0.1484-0.0175-0.1962-0.1777c-0.0899-0.2969,0.0253-1.1289,0.3671-1.3574c0.3692-0.2442,1.1368-0.2403,2.1231-0.0059
			c0.0107-0.0547,0.0351-0.1152,0.081-0.1719c0.0918-0.1113,0.2344-0.166,0.4424-0.1562c0.8887,0.0508,2.1944,0.418,2.6133,0.8359
			c0.3467,0.3477,0.7422,1.2149,0.6543,3.377c-0.0723,1.6719,0.4014,3.5488,0.9395,4.4726c0.0019,0,0.0029,0,0.0039,0
			c1.4179,0,2.7304-0.3769,3.8945-1.125c0.7207-0.4121,2.1016-1.0957,3.3223-1.0957c0.9853,0,2.1797,0.4571,2.2695,2.6328
			l0.9736,23.0938c0.003,0.0508-0.0273,0.0977-0.0732,0.1191c-0.0176,0.0078-0.0361,0.0137-0.0537,0.0137
			c-0.0313,0-0.0625-0.0137-0.0869-0.0351l-6.668-6.1895l-0.5732-0.4648l1.5205,5.3984c0.3359-0.0938,0.623-0.1797,0.833-0.2481
			c0.0625-0.0156,0.1172-0.0214,0.1709-0.0214c0.1894,0,0.374,0.0703,0.5254,0.1836c0.3847,0.0039,0.7265,0.1855,0.9375,0.5273
			c0.2226,0.3594,0.2617,0.8145,0.1191,1.1641c0.0293,0.0839,0.0703,0.1601,0.084,0.2539c0.4023,0.0371,0.6504,0.3554,0.8515,0.6132
			c0.1368,0.1758,0.2657,0.3418,0.3916,0.3614c0.0459-0.0098,0.0918-0.0137,0.1446-0.0137c0.1181,0,0.2187,0.0879,0.2353,0.207
			c0.0147,0.1192-0.0605,0.2305-0.1758,0.2598c-0.0459,0.0117-0.0898,0.0195-0.1357,0.0234
			c-0.0527,0.0332-0.085,0.1524-0.1299,0.336c-0.0752,0.3105-0.1845,0.7676-0.6767,1.0058c-0.0059,0.5918-0.0928,1.17-1.1309,1.3614
			c-2.1543,0.6074-5.832,0.9531-10.0967,0.9531c-4.2715,0-7.9385-0.3457-10.0674-0.9531c-1.0634-0.1914-1.1513-0.7676-1.1582-1.3614
			c-0.4912-0.2382-0.6025-0.6953-0.6767-1.0058c-0.0449-0.1836-0.0772-0.3028-0.1309-0.336
			c-0.0449-0.0039-0.0898-0.0117-0.1347-0.0234c-0.1153-0.0293-0.1905-0.1406-0.1758-0.2598
			c0.0166-0.1191,0.1172-0.207,0.2373-0.207c0.0488,0,0.0967,0.0039,0.1426,0.0137c0.1259-0.0196,0.2548-0.1856,0.3916-0.3614
			c0.2002-0.2578,0.4492-0.5761,0.8525-0.6132c0.0137-0.0938,0.0537-0.168,0.083-0.25c-0.1435-0.3516-0.1045-0.8086,0.1182-1.168
			c0.2109-0.3438,0.5547-0.5254,0.9394-0.5273c0.1514-0.1133,0.335-0.1836,0.5235-0.1836c0.0546,0,0.1103,0.0058,0.1621,0.0175
			c0.2148,0.0704,0.5049,0.1563,0.8418,0.25l1.4873-5.2773l-7.2071,6.5371c-0.039,0.0352-0.0927,0.043-0.1406,0.0195
			c-0.0449-0.0214-0.0742-0.0683-0.0723-0.1191l0.9766-23.0938C47.0796,47.922,48.2739,47.4649,49.2603,47.4649z"/>
		<path class="st3" d="M109.687,3.2227H10.313c-3.916,0-7.0908,3.1739-7.0908,7.0899V40h113.5556V10.3125
			C116.7778,6.3966,113.603,3.2227,109.687,3.2227z"/>
		<path class="st0" d="M54.1333,55.8789l-0.4756,10.0859l0.6856-2.4336l0.2304-5.791
			C54.3745,57.0723,54.2319,56.4454,54.1333,55.8789z"/>
		<path class="st0" d="M65.6587,63.5351l0.6856,2.4336l-0.4776-10.1054c-0.0976,0.5664-0.2402,1.1953-0.4404,1.8652L65.6587,63.5351
			z"/>
		<path class="st0" d="M53.9214,53.0664v-0.0059l0.0107-0.1308l0.127,0.0273c0.1553,0.0332,0.3184,0.0508,0.4844,0.0508
			c1.3818,0,4.6474-0.8789,5.4297-1.7422l0.0937-0.1015l0.084,0.1093c0.7246,0.9492,3.9609,1.7344,5.3076,1.7344
			c0.1621,0,0.3145-0.0176,0.4844-0.0508l0.126-0.0254l0.0107,0.1289v0.0059c0.3164-0.1094,0.6973-0.3086,0.9199-0.4102
			l0.6182,14.5704l0.6387,0.5937l-0.6231-15.4805c0.1719-0.1718,0.8027-0.6308,1.1182-0.9453l0.79,17.6192l0.6397,0.5937
			l-0.7998-18.7012l0,0c0.1728-0.1718,1.1191-0.9472,1.4345-1.2617l0.9649,21.4473l0.4619,0.4297l-0.9365-22.2227l0,0l0,0l0,0
			c0.2881,0,0.9746,0.4024,1.4433,0.7149c-0.0908-1.5215-0.7617-2.295-2.0058-2.295c-0.8614,0-1.9932,0.377-3.1895,1.0586
			c-1.1582,0.7422-2.4609,1.125-3.8662,1.1524c0.1104,0.1465,0.2217,0.2617,0.3291,0.3105l-0.0576,0.2324
			c-0.1113-0.0058-0.9131-0.0644-1.4297-0.2773c0.1279,0.3711,0.082,0.4434,0.0596,0.4785c-0.0293,0.043-0.0743,0.0664-0.126,0.0664
			c-0.8604-0.0781-1.4697-0.5586-1.6895-0.7539c-0.1582,0.1504-0.5058,0.4863-0.7002,0.7442l-0.0859,0.1152l-0.8184-0.8574
			c-0.2109,0.1816-0.7705,0.6367-1.4462,0.959l-0.2305,0.1113l0.2588-1.0762c-0.3819,0.2109-1.126,0.5781-1.7188,0.5781h-0.2588
			l0.1641-0.2011c0.0039-0.0039,0.1387-0.1719,0.3281-0.4317c-1.3857-0.0371-2.6728-0.416-3.8213-1.1523
			c-1.1923-0.6797-2.3242-1.0567-3.1845-1.0567c-1.2442,0-1.916,0.7735-2.0069,2.293c0.4688-0.3125,1.1543-0.7129,1.4414-0.7129l0,0
			l0,0l0,0l-0.9384,22.2637l0.4609-0.418l0.9658-21.5c0.3164,0.3145,1.2637,1.0899,1.4356,1.2617l0,0L49.814,69.6954l0.6386-0.5801
			l0.7969-17.7207c0.3145,0.3145,0.9463,0.7735,1.1182,0.9453l-0.6279,15.6094l0.6347-0.5762l0.625-14.7168
			C53.2232,52.7579,53.604,52.9571,53.9214,53.0664z"/>
		<path class="st4" d="M46.0874,73.3105c0.0479,0.0235,0.1016,0.0157,0.1406-0.0195l7.2071-6.5371l0.0332-0.1191l-1.1006,0.8906
			l0.0068-0.1524l-0.6347,0.5762l-0.003,0.0645l-1.291,1.2617l0.0068-0.1602l-0.6386,0.5801v0.002l-1.6055,1.6425l0.0088-0.1953
			l-0.4609,0.418l-0.0098,0.2012l-1.6055,1.4336l0.9746-23.0957c0.0401-0.0274,0.0938-0.0606,0.1377-0.0899
			c0.0909-1.5195,0.7627-2.293,2.0069-2.293c0.8603,0,1.9922,0.377,3.1845,1.0567c1.1485,0.7363,2.4356,1.1152,3.8213,1.1523
			c0.0557-0.0781,0.1104-0.1504,0.1748-0.2441c-1.4052-0.0059-2.7031-0.3809-3.8652-1.127
			c-0.7148-0.4082-2.0957-1.0918-3.3154-1.0918c-0.9864,0-2.1807,0.4571-2.2686,2.6328l-0.9766,23.0938
			C46.0132,73.2422,46.0425,73.2891,46.0874,73.3105z"/>
		<path class="st4" d="M63.688,49.9297c1.4053-0.0274,2.708-0.4102,3.8662-1.1524c1.1963-0.6816,2.3281-1.0586,3.1895-1.0586
			c1.2441,0,1.915,0.7735,2.0058,2.295c0.043,0.0273,0.0957,0.0605,0.1348,0.0879l0.9756,23.0957l-1.6074-1.4336l-0.0098-0.2422
			l-0.4619-0.4297l0.0107,0.248l-1.6064-1.6425l-0.0039-0.0899l-0.6397-0.5937l0.0127,0.2617l-1.29-1.2617l-0.0078-0.1934
			l-0.6387-0.5937l0.0127,0.2988l-0.5254-0.4258l6.668,6.1895c0.0244,0.0214,0.0556,0.0351,0.0869,0.0351
			c0.0176,0,0.0361-0.0059,0.0537-0.0137c0.0459-0.0214,0.0762-0.0683,0.0732-0.1191l-0.9736-23.0938
			c-0.0898-2.1757-1.2842-2.6328-2.2695-2.6328c-1.2207,0-2.6016,0.6836-3.3223,1.0957c-1.1641,0.7481-2.4766,1.125-3.8945,1.125
			c-0.001,0-0.002,0-0.0039,0C63.5776,49.7794,63.6323,49.8574,63.688,49.9297z"/>
		<path class="st4" d="M47.2534,50.0117c-0.0439,0.0293-0.0976,0.0625-0.1377,0.0899l-0.9746,23.0957l1.6055-1.4336l0.0098-0.2012
			l0.9384-22.2637C48.4077,49.2989,47.7222,49.6992,47.2534,50.0117z"/>
		<polygon class="st4" points="48.6948,49.2989 48.6948,49.2989 48.6948,49.2989 		"/>
		<path class="st4" d="M50.6187,50.9062c-0.1719-0.1718-1.1192-0.9472-1.4356-1.2617l-0.9658,21.5l-0.0088,0.1953l1.6055-1.6425
			v-0.002L50.6187,50.9062L50.6187,50.9062z"/>
		<path class="st4" d="M51.2495,51.3946l-0.7969,17.7207l-0.0068,0.1602l1.291-1.2617l0.003-0.0645l0.6279-15.6094
			C52.1958,52.168,51.564,51.709,51.2495,51.3946z"/>
		<path class="st4" d="M53.6577,65.9649l0.4756-10.0859c-0.2822-1.6426-0.2158-2.7656-0.2119-2.8125
			c-0.3174-0.1094-0.6982-0.3086-0.9219-0.4102l-0.625,14.7168l-0.0068,0.1524l1.1006-0.8906L53.6577,65.9649z"/>
		<path class="st4" d="M54.3433,63.5312l1.0351-3.6718c-0.3398-0.7325-0.6045-1.4434-0.8047-2.1192L54.3433,63.5312z"/>
		<polygon class="st4" points="71.3062,49.2989 71.3062,49.2989 71.3062,49.2989 		"/>
		<path class="st4" d="M72.2427,71.5216l0.0098,0.2422l1.6074,1.4336l-0.9756-23.0957c-0.0391-0.0274-0.0918-0.0606-0.1348-0.0879
			c-0.4687-0.3125-1.1552-0.7149-1.4433-0.7149L72.2427,71.5216z"/>
		<path class="st4" d="M69.3814,50.9062L69.3814,50.9062l0.7998,18.7012l0.0039,0.0899l1.6064,1.6425l-0.0107-0.248l-0.9649-21.4473
			C70.5005,49.959,69.5542,50.7345,69.3814,50.9062z"/>
		<path class="st4" d="M67.6333,52.3399l0.6231,15.4805l0.0078,0.1934l1.29,1.2617l-0.0127-0.2617l-0.79-17.6192
			C68.436,51.709,67.8052,52.168,67.6333,52.3399z"/>
		<path class="st4" d="M67.6177,67.2266l-0.6182-14.5704c-0.2226,0.1016-0.6035,0.3008-0.9199,0.4102
			c0.0039,0.0469,0.0693,1.1621-0.2129,2.7969l0.4776,10.1054l0.1875,0.6661l0.5732,0.4648l0.5254,0.4258L67.6177,67.2266z"/>
		<path class="st4" d="M64.6206,59.8517l1.0381,3.6835l-0.2324-5.8066C65.2261,58.4044,64.9605,59.1172,64.6206,59.8517z"/>
		<path class="st4" d="M61.9126,72.252l0.458-0.455l-0.0078-0.0371l-0.1055-0.0215l0.0489-0.2325l-0.8702-3.9648l-0.038-0.0117
			l0.0205-0.0684l-0.1309-0.5976l-0.2119-0.3203l0.124-0.0821l-0.3496-1.5859c-0.1328,0.1172-0.2705,0.2324-0.4121,0.3476
			l0.9268,6.625L61.9126,72.252z"/>
		<path class="st4" d="M58.9243,66.5431l-0.2099,0.3183l-0.1319,0.6016l0.0196,0.0664l-0.0371,0.0117l-0.8711,3.9648l0.0488,0.2325
			l-0.1045,0.0215l-0.0078,0.0351l0.459,0.457l0.5498-0.4043l0.9248-6.6171c-0.1416-0.1153-0.2803-0.2325-0.4141-0.3497
			l-0.3486,1.5821L58.9243,66.5431z"/>
		<path class="st4" d="M60.0015,72.5371l0.5215-0.6641l-0.378-6.4004c-0.0283,0.0196-0.0507,0.043-0.0781,0.0645l-0.0703,0.0547
			l-0.0703-0.0547c-0.0254-0.0195-0.0459-0.0391-0.0703-0.0586L59.48,71.873L60.0015,72.5371z"/>
		<path class="st4" d="M58.0894,72.252l-0.459-0.457l-0.0547,0.25l0.4912,0.4922l0.7715-0.5703l0.7256-5.1914l-0.3047,5.166
			l0.7422,0.9434l0.7402-0.9434l-0.3047-5.168l0.7256,5.1934l0.7705,0.5703l0.4922-0.4922l-0.0547-0.248l-0.458,0.455
			l-0.5478-0.4043l-0.9268-6.625c-0.0996,0.0821-0.1895,0.168-0.293,0.25l0.378,6.4004l-0.5215,0.6641L59.48,71.873l0.376-6.3945
			c-0.1035-0.0801-0.1924-0.166-0.292-0.248l-0.9248,6.6171L58.0894,72.252z"/>
		<path class="st0" d="M55.2134,72.6601c0.2324,0.0293,0.4746,0.0547,0.7246,0.0782l-0.2754-0.8418L55.2134,72.6601z"/>
		<path class="st0" d="M58.4077,66.8633l0.0948-0.1426l0.4414-2.0137c-0.251-0.2265-0.4805-0.4609-0.7071-0.6933l-0.4736,0.6211
			L58.4077,66.8633z"/>
		<path class="st0" d="M54.9243,66.0742c0.044,0.0117,0.0791,0.0449,0.0908,0.0899l0.4415,1.5722l1.0146-1.3711
			c0.0303-0.041,0.082-0.0605,0.1299-0.0488c0.0498,0.0117,0.0879,0.0508,0.0976,0.0996l0.4327,2.3867l1.0937-1.6621l-0.6543-2.2558
			l-0.7988,1.0449c-0.0244,0.0332-0.0615,0.0508-0.1006,0.0508c-0.0127,0-0.0234,0-0.0342-0.0039
			c-0.0508-0.0137-0.0869-0.0586-0.0918-0.1094l-0.2285-2.1446l-1.3359,1.2774c-0.0244,0.0215-0.0547,0.0332-0.0869,0.0332
			c-0.0098,0-0.0186,0-0.0274-0.002c-0.041-0.0078-0.0752-0.0371-0.0918-0.0761l-0.3476-0.8496L53.481,67.463l1.3213-1.3535
			C54.8345,66.0762,54.8804,66.0626,54.9243,66.0742z"/>
		<path class="st0" d="M53.2437,68.3066l-1.0664,3.7871c0.2295,0.0606,0.4804,0.1231,0.749,0.1836l1.0127-1.4238L53.2437,68.3066z"
			/>
		<path class="st0" d="M53.1958,72.336c0.3848,0.0821,0.7959,0.1563,1.2266,0.2207l-0.4112-1.3652L53.1958,72.336z"/>
		<path class="st0" d="M54.1333,70.6056l0.9951-1.6329c0.0235-0.039,0.0645-0.0605,0.1094-0.0605c0.0039,0,0.0088,0,0.0137,0
			c0.0498,0.0059,0.0908,0.0391,0.1064,0.0859l0.5479,1.668l1.0176-1.582l-0.4219-2.3321l-0.9951,1.3457
			c-0.0274,0.0391-0.0762,0.0567-0.1241,0.0489c-0.0488-0.0078-0.0849-0.043-0.0996-0.0899l-0.4521-1.6113l-1.4317,1.4648
			L54.1333,70.6056z"/>
		<path class="st0" d="M56.7632,65.5235l1.2939-1.6933c-0.2988-0.3203-0.5781-0.6426-0.8359-0.9707l-0.6728,0.6425L56.7632,65.5235z
			"/>
		<path class="st0" d="M57.0601,62.6601c-0.2578-0.3378-0.4932-0.6757-0.711-1.0175l0.1641,1.541L57.0601,62.6601z"/>
		<path class="st0" d="M54.94,64.6855l1.3427-1.2812l-0.2422-2.2754c-0.1845-0.3145-0.3554-0.6289-0.5097-0.9414l-1.003,3.5625
			l0.0235-0.0098L54.94,64.6855z"/>
		<polygon class="st0" points="58.3179,67.461 57.1978,69.1641 57.5747,70.9454 58.3306,67.504 		"/>
		<path class="st0" d="M57.4419,71.5489l-0.4453-2.1094l-1.0205,1.5899c-0.0274,0.041-0.0752,0.0644-0.125,0.0566
			c-0.0479-0.0058-0.0879-0.039-0.1035-0.0859l-0.5459-1.6602l-0.9922,1.6309l0.4892,1.625
			c0.0762,0.0098,0.1592,0.0195,0.2383,0.0293l0.6485-1.0977c0.0263-0.0449,0.0732-0.0664,0.124-0.0625
			c0.0488,0.0059,0.0908,0.0391,0.1064,0.086l0.3965,1.207c0.3184,0.0254,0.6367,0.043,0.9531,0.0488L57.4419,71.5489z"/>
		<polygon class="st4" points="58.3589,67.6016 58.3306,67.504 57.5747,70.9454 57.6939,71.5059 58.565,67.5411 		"/>
		<path class="st4" d="M57.6304,71.795l0.0078-0.0351l-0.1455,0.0312l-0.0508-0.2422l-0.2764,1.2578
			c0.0762,0,0.1534,0.0059,0.2276,0.0059c0.0049,0,0.0088,0,0.0137,0l0.1689-0.7676L57.6304,71.795z"/>
		<polygon class="st4" points="58.5825,67.463 58.7144,66.8614 58.5015,67.1836 		"/>
		<path class="st4" d="M52.1773,72.0938l1.0664-3.7871l-0.1084-0.3984c-0.0118-0.043,0-0.0899,0.0322-0.1231l0.3135-0.3222
			l0.9463-3.3574l-0.1094-0.2696l0.2099-0.0859l1.003-3.5625c-0.0528-0.1094-0.1026-0.2188-0.1524-0.3281l-1.0351,3.6718
			l-0.6856,2.4336l-0.1894,0.67l-0.0332,0.1191l-1.4873,5.2773C52.022,72.0527,52.0972,72.0723,52.1773,72.0938z"/>
		<path class="st4" d="M58.7114,66.4024l0.0899,0.0606l0.3486-1.5821c-0.0674-0.0585-0.1406-0.1152-0.206-0.1738l-0.4414,2.0137
			L58.7114,66.4024z"/>
		<path class="st4" d="M56.5484,63.5019l0.6728-0.6425c-0.0527-0.0664-0.1103-0.1309-0.1611-0.1993l-0.5469,0.5235L56.5484,63.5019z
			"/>
		<path class="st4" d="M54.8667,65.0312c0.0088,0.002,0.0176,0.002,0.0274,0.002c0.0322,0,0.0625-0.0117,0.0869-0.0332
			l1.3359-1.2774l-0.0342-0.3183L54.94,64.6855l-0.3887-0.9453L54.5278,63.75l-0.2099,0.0859l0.1094,0.2696l0.3476,0.8496
			C54.7915,64.9941,54.8257,65.0235,54.8667,65.0312z"/>
		<path class="st4" d="M56.3169,63.7226l0.2285,2.1446c0.0049,0.0508,0.041,0.0957,0.0918,0.1094
			c0.0108,0.0039,0.0215,0.0039,0.0342,0.0039c0.0391,0,0.0762-0.0176,0.1006-0.0508l0.7988-1.0449l-0.0752-0.2598l0.2442-0.0703
			l0.0234,0.0801l0.4736-0.6211c-0.0586-0.0625-0.1211-0.1231-0.1797-0.1836l-1.2939,1.6933l-0.2148-2.0215l-0.0352-0.3183
			l-0.1641-1.541c-0.1093-0.1719-0.209-0.3418-0.3086-0.5137l0.2422,2.2754L56.3169,63.7226z"/>
		<polygon class="st4" points="58.3589,67.6016 58.565,67.5411 58.6021,67.5294 58.5825,67.463 58.5015,67.1836 58.3179,67.461 
			58.3306,67.504 		"/>
		<polygon class="st4" points="57.7398,64.5547 57.4956,64.6251 57.5708,64.8848 58.2251,67.1406 58.4077,66.8633 57.7632,64.6348 
					"/>
		<path class="st4" d="M53.9546,70.832c0.0273-0.039,0.0762-0.0605,0.124-0.0527c0.0479,0.0098,0.0879,0.043,0.1006,0.0898
			l0.0303,0.1016l0.9922-1.6309l0.5459,1.6602c0.0156,0.0469,0.0556,0.0801,0.1035,0.0859c0.0498,0.0078,0.0976-0.0156,0.125-0.0566
			l1.0205-1.5899l0.4453,2.1094l0.0508,0.2422l0.1455-0.0312l0.1045-0.0215l-0.0488-0.2325l-0.1192-0.5605l-0.3769-1.7812
			l1.1201-1.7032l0.1836-0.2773l0.2129-0.3223l0.2099-0.3183l-0.123-0.0801l-0.0899-0.0606l-0.2089,0.3184l-0.0948,0.1426
			l-0.1826,0.2773l-1.0937,1.6621l-0.4327-2.3867c-0.0097-0.0488-0.0478-0.0879-0.0976-0.0996
			c-0.0479-0.0117-0.0996,0.0078-0.1299,0.0488l-1.0146,1.3711l-0.4415-1.5722c-0.0117-0.045-0.0468-0.0782-0.0908-0.0899
			c-0.0439-0.0117-0.0898,0.002-0.122,0.0352L53.481,67.463l-0.3135,0.3222c-0.0322,0.0332-0.044,0.0801-0.0322,0.1231
			l0.1084,0.3984l0.6953,2.5469L53.9546,70.832z M54.8306,66.4454l0.4521,1.6113c0.0147,0.0469,0.0508,0.0821,0.0996,0.0899
			c0.0479,0.0078,0.0967-0.0098,0.1241-0.0489l0.9951-1.3457l0.4219,2.3321l-1.0176,1.582l-0.5479-1.668
			c-0.0156-0.0468-0.0566-0.08-0.1064-0.0859c-0.0049,0-0.0098,0-0.0137,0c-0.0449,0-0.0859,0.0215-0.1094,0.0605l-0.9951,1.6329
			l-0.7344-2.6954L54.8306,66.4454z"/>
		<path class="st4" d="M55.7095,71.4649c-0.0508-0.0039-0.0977,0.0176-0.124,0.0625l-0.6485,1.0977
			c0.0918,0.0117,0.1797,0.0234,0.2764,0.0351l0.4492-0.7636l0.2754,0.8418c0.0908,0.0078,0.1836,0.0136,0.2744,0.0195
			l-0.3965-1.207C55.8003,71.504,55.7583,71.4707,55.7095,71.4649z"/>
		<path class="st4" d="M54.1792,70.8691c-0.0127-0.0468-0.0527-0.08-0.1006-0.0898c-0.0478-0.0078-0.0967,0.0137-0.124,0.0527
			l-0.0156,0.0215l-1.0127,1.4238c0.0879,0.0196,0.1787,0.0391,0.2695,0.0586l0.8154-1.1445l0.4112,1.3652
			c0.0556,0.0078,0.1094,0.0176,0.166,0.0254c0.0068,0,0.0146,0,0.0225,0.002c0.0273,0.0039,0.0605,0.0078,0.0878,0.0117
			l-0.4892-1.625L54.1792,70.8691z"/>
		<path class="st0" d="M67.0747,72.2774c0.2686-0.0605,0.5186-0.123,0.7481-0.1836l-1.0674-3.7871l-0.6934,2.5489L67.0747,72.2774z"
			/>
		<path class="st0" d="M64.7183,68.0566c-0.0147,0.0469-0.0508,0.0821-0.1006,0.0899c-0.0469,0.0078-0.0957-0.0098-0.124-0.0489
			l-0.9932-1.3457l-0.4229,2.3321l1.0167,1.582l0.5488-1.668c0.0156-0.0468,0.0566-0.08,0.1064-0.0859
			c0.0489-0.0039,0.0967,0.0176,0.1221,0.0605l0.9932,1.6329l0.7363-2.6954l-1.4307-1.4648L64.7183,68.0566z"/>
		<path class="st0" d="M63.4526,63.5019l-0.6777-0.6464c-0.2578,0.3281-0.5351,0.6503-0.8349,0.9707l1.2968,1.6972L63.4526,63.5019z
			"/>
		<path class="st0" d="M64.7984,69.3399l-0.545,1.6602c-0.0156,0.0469-0.0576,0.0801-0.1054,0.0859
			c-0.0479,0.0078-0.0967-0.0156-0.1231-0.0566l-1.0234-1.5899l-0.4444,2.1055l0.2784,1.2617
			c0.3134-0.0058,0.6328-0.0234,0.9521-0.0488l0.3965-1.207c0.0166-0.0469,0.0586-0.0801,0.1074-0.086
			c0.0518-0.0039,0.0967,0.0176,0.1231,0.0625l0.6494,1.0977c0.0791-0.0098,0.1611-0.0195,0.2373-0.0293l0.4892-1.625
			L64.7984,69.3399z"/>
		<path class="st0" d="M64.062,72.7383c0.2481-0.0235,0.4922-0.0489,0.7256-0.0782l-0.4492-0.7636L64.062,72.7383z"/>
		<path class="st0" d="M65.5776,72.5566c0.4317-0.0644,0.8428-0.1386,1.2276-0.2207l-0.8174-1.1445L65.5776,72.5566z"/>
		<path class="st0" d="M63.6519,61.6329c-0.2188,0.3438-0.4571,0.6855-0.7159,1.0254l0.5499,0.5254L63.6519,61.6329z"/>
		<path class="st0" d="M63.9614,61.1152l-0.2441,2.2891l1.3428,1.2812l0.3886-0.9453l0.0235,0.0098l-1.0059-3.5703
			C64.315,60.4902,64.1441,60.8008,63.9614,61.1152z"/>
		<path class="st0" d="M65.1343,65.0312c-0.0098,0.002-0.0186,0.002-0.0274,0.002c-0.0322,0-0.0644-0.0117-0.0869-0.0332
			l-1.3359-1.2774l-0.2285,2.1446c-0.0059,0.0508-0.041,0.0957-0.0928,0.1094c-0.0098,0.0039-0.0225,0.0039-0.0332,0.0039
			c-0.04,0-0.0771-0.0176-0.1016-0.0508l-0.7988-1.0449l-0.6543,2.2578l1.0938,1.6601l0.4336-2.3867
			c0.0087-0.0488,0.0468-0.0879,0.0947-0.0996c0.0508-0.0117,0.1035,0.0059,0.1338,0.0488l1.0127,1.3711l0.4414-1.5722
			c0.0127-0.045,0.0469-0.0782,0.0898-0.0899c0.0459-0.0117,0.0918,0.002,0.1231,0.0352l1.3213,1.3535l-0.9463-3.3574
			l-0.3477,0.8496C65.2085,64.9941,65.1753,65.0235,65.1343,65.0312z"/>
		<polygon class="st0" points="62.4253,70.9434 62.8023,69.1641 61.6812,67.463 61.6694,67.504 		"/>
		<path class="st0" d="M61.5913,66.8633l0.6455-2.2285l-0.4775-0.625c-0.2256,0.2324-0.4541,0.4648-0.7041,0.6914l0.4433,2.0195
			L61.5913,66.8633z"/>
		<path class="st4" d="M66.3443,65.9688l-0.6856-2.4336l-1.0381-3.6835c-0.0498,0.1093-0.1006,0.2187-0.1543,0.3281l1.0059,3.5703
			l0.2109,0.0859l-0.1103,0.2696l0.9463,3.3574l0.3144,0.3222c0.0313,0.0332,0.044,0.0801,0.0313,0.1231l-0.1094,0.3984
			l1.0674,3.7871c0.08-0.0214,0.1552-0.041,0.2295-0.0605l-1.5205-5.3984L66.3443,65.9688z"/>
		<path class="st4" d="M61.2886,66.4024l0.2099,0.3184l-0.4433-2.0195c-0.0654,0.0586-0.1387,0.1152-0.2051,0.1738l0.3496,1.5859
			L61.2886,66.4024z"/>
		<polygon class="st4" points="61.4976,67.1836 61.2876,66.8633 61.4185,67.461 		"/>
		<path class="st4" d="M62.5571,71.545l-0.0517,0.2461l-0.1426-0.0312l0.0078,0.0371l0.0547,0.248l0.168,0.7656
			c0.0107,0,0.0185,0.002,0.0283,0.002c0.0703,0,0.1426-0.0059,0.2139-0.0059L62.5571,71.545z"/>
		<polygon class="st4" points="61.6421,67.6016 61.436,67.5411 62.3062,71.5059 62.4253,70.9434 61.6694,67.504 		"/>
		<path class="st4" d="M63.4859,63.1837l-0.5499-0.5254c-0.0507,0.0664-0.1093,0.1309-0.1611,0.1973l0.6777,0.6464L63.4859,63.1837z
			"/>
		<path class="st4" d="M65.0601,64.6855l-1.3428-1.2812l-0.0332,0.3183l1.3359,1.2774c0.0225,0.0215,0.0547,0.0332,0.0869,0.0332
			c0.0088,0,0.0176,0,0.0274-0.002c0.041-0.0078,0.0742-0.0371,0.0908-0.0761l0.3477-0.8496l0.1103-0.2696L65.4722,63.75
			l-0.0235-0.0098L65.0601,64.6855z"/>
		<path class="st4" d="M62.2593,64.5547l0.2441,0.0703l-0.0742,0.2598l0.7988,1.0449c0.0245,0.0332,0.0616,0.0508,0.1016,0.0508
			c0.0107,0,0.0234,0,0.0332-0.0039c0.0518-0.0137,0.0869-0.0586,0.0928-0.1094l0.2285-2.1446l0.0332-0.3183l0.2441-2.2891
			c-0.1005,0.1719-0.2002,0.3457-0.3095,0.5176l-0.166,1.5508l-0.0333,0.3183l-0.2158,2.0215L61.94,63.8262
			c-0.0577,0.0605-0.1211,0.1211-0.1807,0.1836l0.4775,0.625L62.2593,64.5547z"/>
		<polygon class="st4" points="61.4185,67.461 61.398,67.5294 61.436,67.5411 61.6421,67.6016 61.6694,67.504 61.6812,67.463 
			61.4976,67.1836 		"/>
		<polygon class="st4" points="62.2593,64.5547 62.2368,64.6348 61.5913,66.8633 61.7749,67.1426 62.4292,64.8848 62.5034,64.6251 
					"/>
		<path class="st4" d="M65.0747,66.0742c-0.0429,0.0117-0.0771,0.0449-0.0898,0.0899l-0.4414,1.5722l-1.0127-1.3711
			c-0.0303-0.0429-0.083-0.0605-0.1338-0.0488c-0.0479,0.0117-0.086,0.0508-0.0947,0.0996l-0.4336,2.3867l-1.0938-1.6601
			l-0.1836-0.2793l-0.0928-0.1426l-0.2099-0.3184l-0.0889,0.0586l-0.124,0.0821l0.2119,0.3203l0.21,0.3203l0.1836,0.2793
			l1.1211,1.7012l-0.377,1.7792l-0.1191,0.5625l-0.0489,0.2325l0.1055,0.0215l0.1426,0.0312l0.0517-0.2461l0.4444-2.1055
			l1.0234,1.5899c0.0264,0.041,0.0752,0.0644,0.1231,0.0566c0.0478-0.0058,0.0898-0.039,0.1054-0.0859l0.545-1.6602l0.9921,1.6309
			l0.0303-0.1016c0.0137-0.0468,0.0537-0.08,0.1006-0.0898c0.0488-0.0078,0.0957,0.0137,0.124,0.0527l0.0166,0.0235l0.6934-2.5489
			l0.1094-0.3984c0.0127-0.043,0-0.0899-0.0313-0.1231l-0.3144-0.3222l-1.3213-1.3535
			C65.1665,66.0762,65.1206,66.0626,65.0747,66.0742z M65.8648,70.6056l-0.9932-1.6329c-0.0254-0.0429-0.0732-0.0644-0.1221-0.0605
			c-0.0498,0.0059-0.0908,0.0391-0.1064,0.0859l-0.5488,1.668l-1.0167-1.582l0.4229-2.3321l0.9932,1.3457
			c0.0283,0.0391,0.0771,0.0567,0.124,0.0489c0.0498-0.0078,0.0859-0.043,0.1006-0.0899l0.4521-1.6113l1.4307,1.4648
			L65.8648,70.6056z"/>
		<path class="st4" d="M64.2915,71.4649c-0.0488,0.0059-0.0908,0.0391-0.1074,0.086l-0.3965,1.207
			c0.0908-0.0059,0.1826-0.0117,0.2744-0.0195l0.2764-0.8418l0.4492,0.7636c0.0967-0.0117,0.1836-0.0234,0.2764-0.0351
			l-0.6494-1.0977C64.3882,71.4825,64.3433,71.461,64.2915,71.4649z"/>
		<path class="st4" d="M66.0454,70.832c-0.0283-0.039-0.0752-0.0605-0.124-0.0527c-0.0469,0.0098-0.0869,0.043-0.1006,0.0898
			l-0.0303,0.1016l-0.4892,1.625c0.0342-0.0039,0.0732-0.0098,0.1064-0.0137c0.0576-0.0078,0.1123-0.0176,0.1699-0.0254
			l0.4102-1.3652l0.8174,1.1445c0.0908-0.0195,0.1816-0.039,0.2695-0.0586l-1.0127-1.4218L66.0454,70.832z"/>
		<path class="st0" d="M66.9878,76.3145c0-0.0664-0.0625-0.1464-0.1504-0.1933c-0.0449-0.0274-0.0742-0.0391-0.0996-0.0391
			s-0.042,0.0156-0.0635,0.0449c-0.0312,0.043-0.0351,0.0411-0.0117,0.1055c0.0127,0.0352,0.0244,0.082,0.0244,0.0938
			c0,0.0293,0.0899,0.0996,0.126,0.0996c0.0156,0,0.0605-0.0196,0.0986-0.0371C66.9771,76.3595,66.9878,76.3556,66.9878,76.3145z"/>
		<path class="st0" d="M62.3062,76.795l-0.0635-0.0058c-0.0508-0.002-0.0674,0.0039-0.0986,0.0371
			c-0.0596,0.0605-0.0704,0.1054-0.0264,0.1386c0.0195,0.0137,0.0371,0.0235,0.0371,0.0235c0.001,0,0.04-0.0059,0.082-0.0176
			l0.0811-0.0254l-0.0059-0.0762L62.3062,76.795z"/>
		<path class="st0" d="M54.9439,75.8711c-0.002-0.0664-0.0196-0.1055-0.0498-0.1074c-0.0313-0.0039-0.0684,0.0234-0.126,0.082
			c-0.0322,0.0332-0.083,0.0762-0.1113,0.0996l-0.0567,0.0371l0.0361,0.0371c0.0645,0.0625,0.1358,0.0938,0.252,0.0957
			c0.0723,0,0.1143-0.0117,0.1367-0.0273c0.0401-0.0254,0.043-0.0645,0.0059-0.0742C54.9859,76.002,54.9458,75.9415,54.9439,75.8711
			z"/>
		<path class="st0" d="M59.1011,76.7246c-0.085-0.0293-0.1768,0.0137-0.2627,0c-0.0664-0.0078-0.1318-0.0176-0.2012-0.0176
			c-0.0674-0.0019-0.1347,0.0078-0.1992,0.0352c-0.0488,0.0254-0.1162,0.0898-0.0684,0.1445
			c0.0323,0.0566,0.1026,0.0508,0.1553,0.0703c0.1387,0.0352,0.2842,0.0156,0.4248,0.0235
			c0.1709,0.0078,0.3379,0.0195,0.5059,0.0253c0.0556,0,0.1035,0.0196,0.1455,0.0489c0.0078,0.0156-0.0029,0.0469,0,0.0644
			c-0.0029,0.0703-0.0156,0.1407-0.0068,0.211c0.0253,0.0507,0.083,0.0859,0.1386,0.1015c0.0166-0.0039,0.0342-0.0156,0.0489-0.0254
			c0.0468-0.0371,0.0253-0.1054,0.0322-0.1562c0-0.1367,0-0.2754,0-0.4121c-0.0362-0.0332-0.0733-0.0703-0.126-0.0684
			C59.4917,76.7501,59.2954,76.7579,59.1011,76.7246z"/>
		<path class="st0" d="M68.0444,76.1505c-0.0869,0.0058-0.1572,0.0625-0.1572,0.1269c0.001,0.0391,0.0088,0.0567,0.0635,0.0918
			c0.0342,0.0235,0.0684,0.043,0.0742,0.045c0.0069,0,0.0469-0.0137,0.0879-0.0313c0.0928-0.041,0.1182-0.0898,0.0811-0.1562
			C68.1636,76.17,68.1196,76.1466,68.0444,76.1505z"/>
		<path class="st0" d="M65.0444,76.5001c-0.0185,0.0254-0.0322,0.0508-0.0312,0.0566c0,0.0078-0.0127,0.0215-0.0264,0.0313
			c-0.0146,0.0156-0.0205,0.0273-0.0058,0.0508c0.0107,0.0175,0.0273,0.0312,0.039,0.0371
			c0.0264,0.0175,0.1289,0.0097,0.1739-0.0117c0.0517-0.0274,0.0634-0.0547,0.0498-0.1192
			c-0.0088-0.0469-0.0469-0.0781-0.0879-0.0859C65.1157,76.4492,65.0728,76.463,65.0444,76.5001z"/>
		<path class="st0" d="M50.8316,75.4688c-0.0166,0.0039-0.0381,0.0098-0.0694,0.0254c-0.0615,0.0293-0.0722,0.0371-0.0683,0.0684
			c0.0039,0.0332,0.0312,0.0469,0.1259,0.0566c0.0069,0,0.0332-0.0195,0.0557-0.039c0.0508-0.043,0.0498-0.084,0-0.1055
			C50.8579,75.4688,50.8472,75.4669,50.8316,75.4688z"/>
		<path class="st0" d="M60.8931,76.7559c-0.0332,0-0.0957,0.0372-0.1553,0.0879c-0.0283,0.0254-0.0469,0.0918-0.0303,0.1133
			c0.0342,0.0449,0.1319,0.0488,0.2305,0.0117c0.0332-0.0117,0.0449-0.0195,0.0381-0.0449
			c-0.0059-0.0156-0.0156-0.0605-0.0254-0.0996C60.936,76.7676,60.9253,76.7559,60.8931,76.7559z"/>
		<path class="st0" d="M66.1782,73.9902c-0.041,0.1856-0.1416,0.3301-0.2412,0.4571c-0.125,0.1621-0.2451,0.3144-0.2451,0.5644
			c0,0.0703-0.0566,0.1289-0.125,0.1289c-0.0723,0-0.1279-0.0586-0.1279-0.1289c0-0.2578-0.1192-0.3613-0.2715-0.4961
			c-0.0938-0.082-0.1963-0.1816-0.2686-0.3203c-0.6054,0.0742-1.3496,0.1348-2.0634,0.1348c-0.4209,0-0.7901-0.0215-1.1006-0.0606
			c-0.0733-0.0097-0.1319-0.0254-0.1934-0.041c-0.0459,0.1621-0.2051,0.2813-0.3808,0.4004
			c-0.1973,0.1367-0.4034,0.2773-0.4034,0.4609c0,0.0567-0.0351,0.1035-0.0879,0.1211c-0.0126,0.0039-0.0253,0.0078-0.038,0.0078
			c-0.0411,0-0.0782-0.0195-0.1045-0.0527c-0.1787-0.248-0.3018-0.6055-0.3369-0.957c-0.0655,0-0.1241,0-0.1905,0
			c-0.0635-0.002-0.126-0.0039-0.1885-0.0059c-0.0351,0.3535-0.1582,0.7129-0.3388,0.9629
			c-0.0254,0.0332-0.0625,0.0527-0.1035,0.0527c-0.0137,0-0.0264-0.0039-0.0381-0.0078c-0.0528-0.0176-0.0889-0.0644-0.0889-0.1211
			c0-0.1836-0.2041-0.3242-0.4023-0.4609c-0.1758-0.1191-0.335-0.2383-0.3809-0.4004c-0.0615,0.0156-0.1182,0.0313-0.1904,0.041
			c-0.3106,0.0391-0.6807,0.0606-1.1026,0.0606c-0.7129,0-1.457-0.0606-2.0634-0.1348c-0.0723,0.1387-0.1748,0.2383-0.2686,0.3203
			c-0.1523,0.1348-0.2725,0.2402-0.2725,0.4961c0,0.0703-0.0566,0.1289-0.1279,0.1289c-0.0703,0-0.1269-0.0586-0.1269-0.1289
			c0-0.25-0.1182-0.4023-0.2422-0.5644c-0.0996-0.127-0.2002-0.2715-0.2412-0.4571c-0.8633-0.1582-2.1866-0.416-3.0957-0.6719
			c-0.0186-0.0097-0.0323-0.0175-0.0498-0.0253c-0.4375,0.0078-0.9395,0.164-0.9395,0.8515c0,0.0703-0.0342,0.1387-0.0889,0.1856
			c-0.0566,0.0449-0.1289,0.0625-0.2002,0.0468c-0.2548-0.0546-0.4062,0.1133-0.6474,0.4219
			c-0.1065,0.1367-0.2227,0.2852-0.3633,0.3926c0.0596,0.1211,0.0928,0.2539,0.1201,0.3769
			c0.0791,0.3243,0.1475,0.6036,0.5283,0.7305c0.0967,0.0332,0.1621,0.1231,0.1621,0.2266c0,0.6308,0,0.9199,0.7784,1.0547
			c0.0078,0.0019,0.0175,0.0058,0.0254,0.0078c2.0546,0.5859,5.7734,0.9375,9.9472,0.9375c4.2305,0,7.8653-0.3418,9.9785-0.9375
			c0.0079-0.002,0.0137-0.0059,0.0225-0.0078c0.752-0.1348,0.752-0.4239,0.752-1.0547c0-0.1035,0.0654-0.1934,0.1621-0.2266
			c0.3808-0.1269,0.4492-0.4062,0.5283-0.7305c0.0273-0.123,0.0605-0.2558,0.1201-0.3769
			c-0.1406-0.1074-0.2568-0.2559-0.3633-0.3926c-0.2412-0.3086-0.3926-0.4765-0.6465-0.4219
			c-0.0703,0.0157-0.1445-0.0019-0.2002-0.0468c-0.0566-0.0469-0.0898-0.1153-0.0898-0.1856c0-0.6855-0.4981-0.8418-0.9346-0.8515
			c-0.0136,0.0058-0.0244,0.0136-0.0381,0.0195C68.3687,73.5742,67.0425,73.832,66.1782,73.9902z M50.8784,76.4766
			c-0.0488,0.0429-0.0703,0.0527-0.1259,0.0527c-0.0596,0-0.0762-0.0059-0.128-0.0567c-0.0986-0.0937-0.083-0.1601,0.0635-0.2714
			c0.0625-0.0469,0.1006-0.0411,0.1729,0.0254C50.9702,76.3262,50.9751,76.3906,50.8784,76.4766z M51.4107,76.6114
			c-0.042,0.0391-0.1221,0.0586-0.1758,0.0449c-0.0977-0.0234-0.1524-0.1211-0.124-0.2168c0.0244-0.0878,0.039-0.0957,0.166-0.0976
			c0.1435,0,0.1718,0.0234,0.1738,0.1484C51.4507,76.5605,51.4458,76.5781,51.4107,76.6114z M52.2847,76.8341
			c-0.0674,0.0781-0.1319,0.0976-0.2412,0.0683c-0.0723-0.0195-0.1084-0.0742-0.1123-0.1621c0-0.0664,0.0058-0.0761,0.0517-0.1133
			c0.0303-0.0234,0.0781-0.0429,0.1162-0.0488c0.0537-0.0078,0.0723-0.0039,0.1153,0.0274
			C52.3247,76.6836,52.3482,76.7579,52.2847,76.8341z M52.563,76.463c-0.3203-0.086-0.6533-0.1309-0.9697-0.2266
			c-0.2158-0.0469-0.4209-0.125-0.6367-0.1738c-0.1329-0.041-0.2666-0.0879-0.3995-0.127c-0.1259-0.0058-0.292-0.0468-0.3125-0.1914
			c0.0225-0.1425,0.0997-0.2597,0.1807-0.3769c0.0723-0.1055,0.1992-0.168,0.3242-0.1739c0.0781-0.0566,0.1768-0.0468,0.2686-0.0566
			c0.0508-0.0762,0.0879-0.1641,0.1015-0.2559c0.0752-0.1464,0.0645-0.33,0.1553-0.4687c-0.0244-0.1816-0.25-0.1211-0.331-0.0117
			c-0.1114,0.0859-0.293,0.0117-0.3252-0.1192c0.0195-0.1523,0.1836-0.1816,0.3066-0.1445c0.125,0.0859,0.2764,0.0078,0.4063-0.0254
			c0.0556-0.0312,0.1494-0.0937,0.2197-0.0918c0.041,0,0.0713,0.0254,0.081,0.0918c0.001,0.1387-0.0908,0.2578-0.0947,0.3945
			c-0.0586,0.1094-0.1035,0.2266-0.125,0.3497c-0.0498,0.1406-0.0898,0.2734-0.1377,0.4121
			c-0.0234,0.1172-0.0635,0.2304-0.0879,0.3437c-0.1064,0.1387,0.0684,0.2324,0.1944,0.2383
			c0.125,0.0352,0.2851-0.002,0.2939-0.1563c0.0205-0.1113,0.1094-0.2636-0.0068-0.3496c-0.1328-0.1211,0.1211-0.1406,0.1884-0.1875
			c0.0977-0.0175,0.2207-0.2246,0.293-0.0703c-0.0273,0.1328-0.0332,0.2657-0.0928,0.3887
			c-0.0468,0.1133-0.0507,0.2402-0.0878,0.3574c-0.1075,0.1543,0.122,0.2129,0.2363,0.211
			c0.1094,0.0273,0.2412,0.1035,0.3437,0.0371c0.0791-0.0918,0.1162-0.2325,0.1006-0.3496c-0.0683-0.0723-0.168-0.252,0.0069-0.2618
			c0.1279-0.0078,0.2148-0.1015,0.3173-0.1621c0.1807-0.0488,0.128,0.1641,0.0811,0.2559
			c-0.0645,0.2324-0.1133,0.4687-0.1797,0.6992c-0.0098,0.1094-0.0801,0.2539-0.2129,0.2266
			C52.6275,76.4845,52.5962,76.4746,52.563,76.463z M50.5318,74.711c0.0332-0.1211,0.1308-0.1914,0.2226-0.1582
			c0.0586,0.0215,0.166,0.1289,0.167,0.168c0.001,0.0449-0.0566,0.1504-0.0801,0.1504c-0.0107,0-0.0273,0.0097-0.0371,0.0215
			c-0.0195,0.0215-0.082,0.0332-0.1357,0.0234C50.561,74.8966,50.5064,74.8126,50.5318,74.711z M56.2876,75.4825
			c-0.043,0.2109-0.0264,0.4297-0.082,0.6387c-0.0049,0.2285-0.0518,0.4531-0.086,0.6816
			c-0.0459,0.1406-0.0459,0.2949-0.1074,0.4297c-0.0449,0.168-0.2051,0.2344-0.3564,0.2813c-0.0528,0.0097-0.1094,0.0136-0.1621,0
			c-0.1553-0.0762-0.2754-0.1758-0.2871-0.3633c0.0019-0.1016,0.0654-0.2344-0.1075-0.2246
			c-0.1572,0.0234-0.3095-0.0703-0.3007-0.2422c-0.0606-0.1934-0.2618-0.0078-0.3047,0.1055
			c-0.1494,0.0703-0.3077-0.0391-0.4619-0.0391c-0.1436,0.0039-0.334-0.0547-0.4434,0.0586
			c-0.0811,0.1406-0.2236,0.2539-0.3877,0.2734c-0.1582,0.0391-0.3379-0.0097-0.4873-0.0625
			c-0.0957-0.1465,0.1631-0.1054,0.2305-0.1308c0.1386-0.0567,0.331-0.0625,0.3681-0.2364c0.0635-0.1367,0.127-0.3047,0.0635-0.4511
			c-0.1025-0.127-0.1221-0.2989,0.0234-0.4063c0.0118-0.1523,0.2022-0.1933,0.2325-0.0254
			c0.0693,0.1387,0.0644,0.3008,0.0927,0.4492c-0.0048,0.168,0.1553,0.2403,0.3008,0.2403
			c0.1416,0.0371,0.2998,0.0332,0.3819-0.1074c0.1455-0.1504-0.1866-0.2266-0.294-0.2579c-0.1934-0.0918,0.0068-0.3379,0.1504-0.373
			c0.0869-0.0352,0.1777-0.0625,0.2686-0.0879c0.08-0.1836,0.2441-0.3711,0.4628-0.3574c0.1416,0.0859,0.2559,0.2578,0.2364,0.4316
			c0.0478,0.1309,0.2187,0.1856,0.289,0.3125c0.0987,0.0918,0.1075,0.3535-0.0888,0.3125
			c-0.0928,0.0117-0.2412-0.0078-0.2989,0.0625c-0.0312,0.1211,0.0371,0.2383,0.1748,0.2266
			c0.1289,0.0195,0.2608,0.0664,0.2168,0.2305c0.002,0.0703,0.0069,0.1406,0.0069,0.2109c0.1054,0.0449,0.2236,0.1035,0.2451-0.0625
			c0.0312-0.1817,0.0312-0.3672,0.081-0.5488c0.0079-0.1739,0.0596-0.3457,0.0684-0.5196
			c-0.0185-0.1582,0.0811-0.2851,0.0557-0.4433c-0.0049-0.0567,0.0097-0.1231-0.0049-0.1739
			c-0.1279-0.0605-0.1514-0.2324,0.0234-0.2441c0.0791,0,0.1748-0.1113,0.25-0.1387c0.0459-0.0156,0.083-0.0019,0.1006,0.0821
			C56.3335,75.17,56.314,75.3262,56.2876,75.4825z M56.4282,77.0996c-0.0166-0.0215-0.0517-0.0332-0.0556-0.0586
			c0.0058-0.1094,0.0127-0.2227,0.0478-0.3301c0.0186-0.1035,0.002-0.2129,0.0391-0.3144c0.0361-0.1856,0.0361-0.377,0.0791-0.5606
			c0.0019-0.0957,0.0107-0.1894,0.039-0.2812c0.0313-0.1446,0.002-0.2969,0.044-0.4395c-0.0029-0.0527,0.0586-0.1953,0.1113-0.1113
			c0.0791,0.1152,0.1826,0.209,0.2862,0.3047c0.0869,0.0488,0.0058,0.123-0.0547,0.1484c-0.0821,0.0332-0.1026,0.1231-0.0967,0.2051
			c-0.0108,0.082-0.0449,0.1602-0.0488,0.2441c-0.0176,0.127-0.0127,0.252-0.0303,0.377c-0.0361,0.1211-0.0215,0.2519-0.0352,0.3769
			c0.002,0.0801-0.0351,0.1524-0.0293,0.2325c-0.0097,0.082-0.0146,0.1777-0.083,0.2343
			C56.5757,77.1601,56.4819,77.1544,56.4282,77.0996z M61.2066,77.3301c-0.3311,0.0058-0.6631,0.0019-0.9932,0.0195
			c-0.1152,0.0937-0.0576,0.332-0.251,0.3926c-0.1015,0.0254-0.206,0.1484-0.3047,0.1191c-0.1816-0.084-0.3691-0.2207-0.3701-0.4433
			c-0.1162-0.125-0.3789-0.0645-0.5498-0.1055c-0.3174-0.0078-0.6309-0.0703-0.9492-0.0586
			c-0.1826,0.0312-0.1719,0.2969-0.3252,0.3711c-0.1543,0.1562-0.3731,0.1836-0.5811,0.1621
			c-0.0937-0.0039-0.4492-0.0488-0.2441-0.168c0.1689-0.0293,0.3555,0.0176,0.4941-0.1133
			c0.1592-0.0957,0.2686-0.2988,0.2305-0.4804c-0.0176-0.1895-0.1807-0.3242-0.2373-0.4766
			c0.1123-0.0879,0.1836-0.3437,0.3438-0.2988c0.1279,0.1738,0.1708,0.3867,0.2558,0.5801c0.1416,0.1191,0.3496,0.041,0.294-0.1621
			c0.081-0.1582-0.044-0.3047-0.0743-0.4551c0.0176-0.1309,0.1602-0.2422,0.293-0.2442c0.044,0,0.0879,0.0098,0.125,0.0371
			c0.0352,0.1426,0.0068,0.3438,0.2129,0.3497c0.1728,0.0468,0.3594,0.0175,0.5371,0.0312
			c0.2031-0.0039,0.4023,0.0391,0.6074,0.0313c0.1387,0.0195,0.3164-0.0215,0.418,0.1015c0.0215,0.0567,0,0.1328,0.0059,0.1992
			c-0.0596,0.1485,0.1162,0.3594,0.2246,0.1797c0.0097-0.207,0.165-0.3789,0.3515-0.4609c0.168-0.0137,0.3086-0.1641,0.4746-0.1192
			c0.1162,0.1387,0.042,0.3458,0.1055,0.5059c0.0195,0.127,0.0244,0.2539,0.0303,0.3809
			C61.2896,77.2422,61.2691,77.332,61.2066,77.3301z M61.5513,75.5566c0-0.0781,0.1133-0.2031,0.1846-0.205
			c0.0371,0,0.1318,0.0488,0.1679,0.0859c0.0645,0.0683,0.0508,0.1797-0.0303,0.2422c-0.041,0.0312-0.1611,0.0429-0.2187,0.0215
			C61.6138,75.6855,61.5513,75.5957,61.5513,75.5566z M61.605,76.0332c-0.0078-0.0977,0.0029-0.1113,0.1045-0.168l0.0732-0.039
			l0.0703,0.0312c0.0938,0.043,0.1368,0.0899,0.1416,0.1524c0.002,0.0703-0.0488,0.1406-0.1289,0.1757
			c-0.0703,0.0332-0.0742,0.0332-0.1396,0.0118C61.6421,76.1681,61.6118,76.127,61.605,76.0332z M62.9761,77.754
			c-0.0547,0.0488-0.0645,0.0508-0.1318,0.043c-0.0889-0.0078-0.1407-0.0469-0.1543-0.1172
			c-0.0118-0.0489-0.0293-0.0606-0.042-0.0274c-0.0039,0.0118-0.0254,0.0235-0.0469,0.0293
			c-0.041,0.0117-0.1104,0.0528-0.1592,0.1016c-0.0185,0.0156-0.0508,0.0254-0.1045,0.0254c-0.0703,0-0.0801-0.0039-0.1357-0.0586
			c-0.0479-0.0527-0.0576-0.0723-0.0606-0.1211c0-0.0508,0.0098-0.0703,0.0576-0.1172c0.0879-0.0879,0.1309-0.0898,0.2823-0.0156
			c0.1445,0.0742,0.1924,0.0801,0.206,0.0293c0.0137-0.0488,0.0967-0.0957,0.1758-0.0957c0.0488,0,0.0772,0.0097,0.1172,0.041
			c0.0508,0.0391,0.0527,0.0449,0.0557,0.1348C63.0357,77.6973,63.0347,77.7012,62.9761,77.754z M63.3804,77.1954
			c-0.1504-0.0039-0.293,0.0469-0.4434,0.043c-0.2451,0.0117-0.4883,0.0136-0.7314,0.0566
			c-0.0947,0.041-0.2002,0.0254-0.2998,0.0313c-0.0313-0.0059-0.0801,0.0175-0.1006-0.0118
			c-0.0068-0.0117-0.0156-0.0273-0.0244-0.0371c-0.0606-0.08,0.0078-0.1797,0-0.2695c0.0058-0.1094,0.0195-0.2285,0.0683-0.3242
			c0.0752-0.0684,0.1153-0.166,0.2139-0.207c0.0703-0.0704,0.2324-0.045,0.2432-0.17c0.0058-0.1152-0.0088-0.2324-0.045-0.3418
			c-0.0058-0.1211-0.0058-0.2461-0.0361-0.3632c-0.0283-0.0782-0.2461-0.129-0.126-0.2188c0.0869-0.084,0.1729-0.1719,0.2705-0.2441
			c0.1289-0.0274,0.1397,0.1211,0.1426,0.2129c0.0156,0.2187,0.0518,0.4375,0.0615,0.6562
			c0.0118,0.1777,0.0538,0.3535,0.0567,0.5313c0.0107,0.1015,0.0058,0.2031,0.043,0.2988c0.0615,0.1308,0.2128,0.1035,0.3203,0.0625
			c0.082-0.0117,0.2099-0.0176,0.1865-0.1367c-0.0068-0.0977,0.0039-0.2012-0.0313-0.293
			c-0.0302-0.0918-0.2138-0.0938-0.1552-0.2149c0.0527-0.0839,0.1621-0.0976,0.2295-0.1679
			c0.0703-0.0801,0.2109-0.041,0.2128,0.0703c0.0215,0.1387,0.0049,0.291,0.0499,0.4238c0.0537,0.1328-0.003,0.2891,0.0634,0.418
			C63.5493,77.0938,63.4976,77.2207,63.3804,77.1954z M64.4077,77.3086c-0.0283,0.0586-0.083,0.0937-0.122,0.1465
			c-0.0635,0.0586-0.1329,0.1152-0.2149,0.1484c-0.0586,0.0176-0.0908,0.084-0.1631,0.0684c-0.1035,0-0.208,0.0136-0.3105-0.002
			c0.0068,0.0098-0.0322-0.0176-0.0254-0.0117l0,0c-0.0186-0.0117-0.0469-0.0234-0.0186-0.043
			c0.0342-0.0625,0.1045-0.082,0.1651-0.1054c0.1103-0.0469,0.2041-0.127,0.2744-0.2227c0.0107-0.0684,0.0859-0.1035,0.0859-0.1719
			c0-0.0957,0.0049-0.1933-0.0185-0.2871c-0.0264-0.0859-0.0899-0.1504-0.1641-0.1933c-0.0527-0.0411-0.1357-0.0528-0.1553-0.1231
			c-0.0088-0.0684,0.0508-0.1211,0.0713-0.1816c0.0459-0.086,0.084-0.1739,0.1319-0.2559c0.0527-0.0566,0.1308-0.0019,0.1582,0.0527
			c0.038,0.0547,0.0722,0.1153,0.0898,0.1797c0.0615,0.0664,0.1143,0.1446,0.1357,0.2325c0.0303,0.0625,0.0782,0.121,0.0752,0.1933
			c0,0.082,0.045,0.1563,0.043,0.2422C64.4478,77.0841,64.4478,77.2031,64.4077,77.3086z M69.3765,76.6681
			c-0.0459,0.0449-0.0537,0.0488-0.1572,0.0488c-0.1006,0-0.1124-0.002-0.1631-0.0449c-0.045-0.0371-0.0537-0.0547-0.0547-0.1036
			c0-0.08,0.0459-0.1425,0.1504-0.1875c0.1347-0.0625,0.1904-0.0527,0.2422,0.0372C69.4614,76.5391,69.4575,76.586,69.3765,76.6681z
			 M69.7251,75.67c0.0713,0.1035,0.3936,0.2832,0.1123,0.3438c-0.3467,0.1328-0.7187,0.1933-1.0752,0.3007
			c-0.2402,0.002-0.2763,0.2188-0.4443,0.3438c-0.1563,0.0937-0.4824,0.1465-0.5869-0.0254
			c-0.0723-0.0879-0.3575-0.082-0.3252,0.0742c0.0097,0.1817-0.0664,0.3535-0.2246,0.4512
			c-0.1563,0.2031-0.4639,0.0351-0.6065-0.1133c-0.0459-0.2617-0.2978-0.2461-0.5058-0.1875
			c-0.1661,0.0449-0.4707,0.0078-0.4991,0.2188c-0.0234,0.2421-0.2588,0.3964-0.4755,0.457c-0.1094,0.0078-0.2237,0.0117-0.3321,0
			c-0.0312-0.2168,0.3057-0.1484,0.4131-0.2832c0.1563-0.1172,0.0762-0.3242-0.1182-0.2422
			c-0.123,0.0117-0.3193,0.0879-0.3642-0.0742c0.0029-0.1348-0.0215-0.2774-0.0049-0.4082c0.1328-0.1406,0.2285-0.3223,0.418-0.3985
			c0.1308-0.082,0.3193-0.1484,0.3369,0.0743c0.0322,0.1855,0.0801,0.4824,0.331,0.3437c0.0264-0.207,0.0498-0.4297,0.1954-0.5937
			c0.1015-0.1309,0.4238-0.2207,0.2001-0.4121c-0.2304-0.129,0.044-0.4083,0.1934-0.4688c0.1777,0.1172,0.1328,0.4141,0.2188,0.5879
			c0.1835,0.0566,0.4072,0.0723,0.5263,0.2363c0.126,0.125,0.1572,0.4238,0.3975,0.3496c0.1494-0.0683,0.1582-0.3105,0.3379-0.3867
			c0.1465-0.1836,0.4101-0.0215,0.5322,0.1133c0.1426,0.166,0.4795,0.0312,0.2871-0.1816
			c-0.0664-0.2188-0.1338-0.4434-0.1484-0.6758c-0.0469-0.2325-0.0703-0.543-0.3584-0.5996
			c-0.1924-0.0254-0.378,0.3437-0.499,0.0371c-0.2002-0.1075-0.0948-0.3242,0.1123-0.3125c0.1035-0.0254,0.2187-0.045,0.332-0.0489
			c0.1885-0.0097,0.3701,0.0254,0.5049,0.168c0.1963,0.2149,0.1836,0.5274,0.2324,0.8008c0.0684,0.209,0.0557,0.4805,0.2432,0.625
			C69.3247,75.998,69.5103,75.5626,69.7251,75.67z"/>
		<path class="st0" d="M66.2573,76.17c-0.0234,0.0039-0.0498,0.0176-0.083,0.0488c-0.039,0.043-0.042,0.0645-0.0429,0.1387
			c-0.003,0.1192,0.0097,0.1328,0.1367,0.1309c0.1035,0,0.1035,0.0019,0.1133-0.043c0.0058-0.0254,0.0068-0.082,0-0.125
			c-0.0088-0.0645-0.0205-0.0879-0.0567-0.1191C66.2984,76.1777,66.2788,76.1661,66.2573,76.17z"/>
		<path class="st0" d="M67.0064,76.6954c-0.0371,0-0.0772,0.0117-0.1192,0.0313c-0.0488,0.0214-0.0566,0.041-0.0566,0.0683
			c0,0.0234,0.0088,0.0352,0.0322,0.043c0.0488,0.0195,0.1973,0.0215,0.2246,0c0.042-0.0313,0.044-0.0801,0.0059-0.1113
			C67.0718,76.707,67.0415,76.6954,67.0064,76.6954z"/>
		<path class="st4" d="M70.5015,73.7832c-0.001,0-0.001,0-0.002,0c-0.0498-0.002-0.0937-0.0293-0.1133-0.0742
			c-0.0517-0.1114-0.2324-0.1817-0.4052-0.25c-0.1729-0.0684-0.3311-0.1543-0.4453-0.2793
			c-0.0596,0.039-0.1289,0.0761-0.2071,0.1133c0.4365,0.0097,0.9346,0.166,0.9346,0.8515c0,0.0703,0.0332,0.1387,0.0898,0.1856
			c0.0557,0.0449,0.1299,0.0625,0.2002,0.0468c0.2539-0.0546,0.4053,0.1133,0.6465,0.4219
			c0.1065,0.1367,0.2227,0.2852,0.3633,0.3926c-0.0596,0.1211-0.0928,0.2539-0.1201,0.3769
			c-0.0791,0.3243-0.1475,0.6036-0.5283,0.7305c-0.0967,0.0332-0.1621,0.1231-0.1621,0.2266c0,0.6308,0,0.9199-0.752,1.0547
			c-0.0088,0.0019-0.0146,0.0058-0.0225,0.0078c-2.1132,0.5957-5.748,0.9375-9.9785,0.9375c-4.1738,0-7.8926-0.3516-9.9472-0.9375
			c-0.0079-0.002-0.0176-0.0059-0.0254-0.0078c-0.7784-0.1348-0.7784-0.4239-0.7784-1.0547c0-0.1035-0.0654-0.1934-0.1621-0.2266
			c-0.3808-0.1269-0.4492-0.4062-0.5283-0.7305c-0.0273-0.123-0.0605-0.2558-0.1201-0.3769
			c0.1406-0.1074,0.2568-0.2559,0.3633-0.3926c0.2412-0.3086,0.3926-0.4765,0.6474-0.4219
			c0.0713,0.0157,0.1436-0.0019,0.2002-0.0468c0.0547-0.0469,0.0889-0.1153,0.0889-0.1856c0-0.6875,0.502-0.8437,0.9395-0.8515
			c-0.0801-0.0372-0.1514-0.0782-0.211-0.1172c-0.1162,0.1269-0.2744,0.2148-0.4463,0.2832
			c-0.1748,0.0683-0.3545,0.1386-0.4052,0.25c-0.0196,0.0449-0.0645,0.0722-0.1133,0.0742c-0.001,0-0.001,0-0.002,0
			c-0.0488,0-0.0927-0.0274-0.1142-0.0703c-0.0108-0.0215-0.0137-0.0469-0.0225-0.0703c-0.0293,0.082-0.0693,0.1562-0.083,0.25
			c-0.4033,0.0371-0.6523,0.3554-0.8525,0.6132c-0.1368,0.1758-0.2657,0.3418-0.3916,0.3614
			c-0.0459-0.0098-0.0938-0.0137-0.1426-0.0137c-0.1201,0-0.2207,0.0879-0.2373,0.207c-0.0147,0.1192,0.0605,0.2305,0.1758,0.2598
			c0.0449,0.0117,0.0898,0.0195,0.1347,0.0234c0.0537,0.0332,0.086,0.1524,0.1309,0.336c0.0742,0.3105,0.1855,0.7676,0.6767,1.0058
			c0.0069,0.5938,0.0948,1.17,1.1582,1.3614c2.1289,0.6074,5.7959,0.9531,10.0674,0.9531c4.2647,0,7.9424-0.3457,10.0967-0.9531
			c1.0381-0.1914,1.125-0.7696,1.1309-1.3614c0.4922-0.2382,0.6015-0.6953,0.6767-1.0058c0.0449-0.1836,0.0772-0.3028,0.1299-0.336
			c0.0459-0.0039,0.0898-0.0117,0.1357-0.0234c0.1153-0.0293,0.1905-0.1406,0.1758-0.2598c-0.0166-0.1191-0.1172-0.207-0.2353-0.207
			c-0.0528,0-0.0987,0.0039-0.1446,0.0137c-0.1259-0.0196-0.2548-0.1856-0.3916-0.3614c-0.2011-0.2578-0.4492-0.5761-0.8515-0.6132
			c-0.0137-0.0938-0.0547-0.17-0.084-0.2539c-0.0098,0.0254-0.0137,0.0527-0.0244,0.0742
			C70.5923,73.7559,70.5484,73.7832,70.5015,73.7832z"/>
		<path class="st4" d="M59.811,74.2031c0.0625,0.002,0.125,0.0039,0.1885,0.0059c0.0664,0,0.125,0,0.1905,0
			c-0.0166-0.168-0.0049-0.3262,0.0302-0.4766c-0.0722,0-0.1367,0.002-0.2099,0.002c-0.0772-0.0039-0.1543-0.0059-0.2315-0.0098
			C59.815,73.877,59.8267,74.0351,59.811,74.2031z"/>
		<path class="st0" d="M50.813,73.0801c0.8662,0.2441,2.1416,0.4922,3.001,0.6484c0.0039-0.0293-0.001-0.0547,0.0068-0.0879
			c0.0088-0.3769,0.3789-0.7422,0.7578-0.7422c0.4004,0,0.6133,0.5391,0.6133,0.9317c0,0.0449-0.0107,0.0781-0.0166,0.1191
			c0.5889,0.0703,1.3027,0.125,1.9902,0.125c0.4112,0,0.7705-0.0195,1.0684-0.0566c0.0898-0.0118,0.1621-0.0332,0.2354-0.0547
			c0.0585-0.1719,0.1923-0.2813,0.2988-0.3692c0.0801-0.0644,0.123-0.1054,0.1445-0.1484
			c-0.0381-0.2324-0.2588-0.4375-0.4892-0.4375c-0.294,0.0391-0.6446,0.0586-1.0303,0.0586c-0.9688,0-2.0225-0.125-2.8311-0.2305
			c-1.539-0.2109-2.8681-0.5976-3.5234-0.8086c-0.0225-0.0039-0.0567-0.0078-0.0947-0.0078c-0.0704,0-0.1426,0.0156-0.211,0.041
			c0.003,0.0313,0.0078,0.0645-0.0097,0.0899c-0.1456,0.2129-0.1329,0.291-0.1133,0.4082c0.0166,0.0937,0.0205,0.2246-0.0215,0.3984
			C50.6528,73.002,50.7271,73.0431,50.813,73.0801z M55.3384,73.4336c0.1611-0.086,0.4062-0.1406,0.6572-0.1406
			c0.124,0,0.4278,0.0156,0.5674,0.1562c0.0254,0.0254,0.0332,0.0645,0.0195,0.0977c-0.0136,0.0332-0.0459,0.0547-0.083,0.0547
			h-1.1172c-0.042,0-0.0771-0.0274-0.0869-0.0665C55.2837,73.4961,55.3032,73.4531,55.3384,73.4336z M58.2359,73.4239h0.0019
			c0.0381-0.0039,0.0703,0.0117,0.0879,0.041c0.0166,0.0293,0.0176,0.0625,0.0029,0.0918c-0.0185,0.0274-0.0478,0.045-0.081,0.045
			l-1.1045,0.1425c-0.0049,0-0.0078,0-0.0108,0c-0.0351,0-0.0683-0.0195-0.082-0.0527c-0.0166-0.0371-0.0059-0.0801,0.0244-0.1035
			C57.2544,73.4376,57.7681,73.4239,58.2359,73.4239z M53.6587,73.1114c0.0371,0.0117,0.0625,0.0449,0.0625,0.086
			c0,0.0507-0.0371,0.0918-0.0898,0.0898h-0.002c-0.0088,0-0.0166-0.002-0.0234-0.0039l-1.1094-0.3125
			c-0.0215-0.0039-0.041-0.0156-0.0557-0.0332c-0.0254-0.0293-0.0273-0.0723-0.0049-0.1035
			c0.0196-0.0313,0.0547-0.0469,0.0879-0.041C52.7251,72.8008,53.3374,72.9415,53.6587,73.1114z M50.9448,72.3047
			c0.3252,0.0039,0.8125,0.1445,0.9903,0.3301c0.0234,0.0156,0.04,0.0449,0.04,0.0761c0,0.0489-0.0439,0.0899-0.0908,0.0879
			c-0.001,0-0.0029,0-0.0029,0c-0.0098,0-0.0196-0.0019-0.0274-0.0058l-0.9394-0.3125c-0.0127-0.002-0.0254-0.0079-0.0362-0.0176
			c-0.0341-0.0254-0.0439-0.0742-0.0234-0.1113C50.8735,72.3184,50.9087,72.3008,50.9448,72.3047z"/>
		<path class="st4" d="M50.7359,72.0294c0.0039,0.0117-0.0049,0.0215-0.003,0.0312c0.0684-0.0254,0.1406-0.041,0.211-0.041
			c0.038,0,0.0722,0.0039,0.0947,0.0078c0.6553,0.211,1.9844,0.5977,3.5234,0.8086c0.8086,0.1055,1.8623,0.2305,2.8311,0.2305
			c0.3857,0,0.7363-0.0195,1.0303-0.0586c0.2304,0,0.4511,0.2051,0.4892,0.4375c0.0234-0.0469,0.0147-0.0957-0.041-0.1777
			c-0.0264-0.0391-0.0293-0.0879-0.0078-0.1309c0.0215-0.041,0.0644-0.0664,0.1123-0.0664c0.0146,0,0.0234,0.0039,0.0361,0.0039
			c-0.1426-0.1875-0.3584-0.3184-0.6025-0.3184h-0.002c-0.2949,0.0372-0.6318,0.0547-1.0009,0.0567c-0.0049,0-0.0088,0-0.0137,0
			c-0.0742,0-0.1514-0.0059-0.2276-0.0059c-0.3164-0.0058-0.6347-0.0234-0.9531-0.0488c-0.0908-0.0059-0.1836-0.0117-0.2744-0.0195
			c-0.25-0.0235-0.4922-0.0489-0.7246-0.0782c-0.0967-0.0117-0.1846-0.0234-0.2764-0.0351
			c-0.0791-0.0098-0.1621-0.0195-0.2383-0.0293c-0.0273-0.0039-0.0605-0.0078-0.0878-0.0117
			c-0.0079-0.002-0.0157-0.002-0.0225-0.002c-0.0566-0.0078-0.1104-0.0176-0.166-0.0254c-0.4307-0.0644-0.8418-0.1386-1.2266-0.2207
			c-0.0908-0.0195-0.1816-0.039-0.2695-0.0586c-0.2686-0.0605-0.5195-0.123-0.749-0.1836c-0.0801-0.0214-0.1553-0.041-0.2295-0.0625
			c-0.3369-0.0937-0.627-0.1796-0.8418-0.25c-0.0518-0.0117-0.1075-0.0175-0.1621-0.0175c-0.1885,0-0.3721,0.0703-0.5235,0.1836
			c0.0723-0.002,0.1446-0.0079,0.2197,0.0058C50.6831,71.961,50.7193,71.9902,50.7359,72.0294z"/>
		<path class="st4" d="M53.8228,73.9902c-0.0176-0.0781-0.0205-0.164-0.0088-0.2617c-0.8594-0.1562-2.1348-0.4043-3.001-0.6484
			c-0.0859-0.0371-0.1602-0.0782-0.2246-0.1231c-0.0088,0.0391-0.0059,0.0664-0.0215,0.1094
			c-0.0215,0.0488-0.0684,0.0723-0.1006,0.1094c0.0596,0.039,0.1309,0.08,0.211,0.1172c0.0175,0.0078,0.0312,0.0156,0.0498,0.0253
			C51.6362,73.5742,52.9595,73.832,53.8228,73.9902z"/>
		<path class="st4" d="M58.439,74.1445c0-0.0683,0.0117-0.1269,0.0303-0.1816c-0.0733,0.0215-0.1456,0.0429-0.2354,0.0547
			c-0.2979,0.0371-0.6572,0.0566-1.0684,0.0566c-0.6875,0-1.4013-0.0547-1.9902-0.125c-0.0127,0.0957-0.0361,0.1777-0.0732,0.2461
			c0.6064,0.0742,1.3505,0.1348,2.0634,0.1348c0.4219,0,0.792-0.0215,1.1026-0.0606c0.0722-0.0097,0.1289-0.0254,0.1904-0.041
			C58.4507,74.2012,58.439,74.1758,58.439,74.1445z"/>
		<path class="st0" d="M61.5308,73.961c0.0722,0.0235,0.1484,0.0449,0.2383,0.0567c0.2959,0.0371,0.6582,0.0566,1.0664,0.0566
			c0.6875,0,1.4013-0.0547,1.9902-0.125c-0.0059-0.041-0.0166-0.0742-0.0166-0.1191c0-0.3926,0.2129-0.9317,0.6133-0.9317
			c0.3799,0,0.749,0.3653,0.7578,0.7422c0.0068,0.0332,0.0029,0.0586,0.0058,0.0879c0.8604-0.1562,2.1397-0.4062,3.0196-0.6562
			c0.0791-0.0332,0.1484-0.0723,0.209-0.1153c-0.043-0.1758-0.0401-0.3047-0.0245-0.3984c0.0196-0.1172,0.0323-0.1953-0.1123-0.4082
			c-0.0146-0.0235-0.0078-0.0508-0.0078-0.0762c-0.1045-0.043-0.2158-0.0684-0.3174-0.0449
			c-0.6455,0.209-1.9746,0.5957-3.5126,0.8066c-0.8077,0.1055-1.8614,0.2305-2.8184,0.2305c-0.3818,0-0.7285-0.0195-1.0303-0.0586
			c-0.2578,0-0.4619,0.2266-0.498,0.4434c0.0224,0.041,0.0615,0.08,0.1396,0.1425C61.3364,73.6816,61.4712,73.7911,61.5308,73.961z
			 M67.4771,72.7931c0.0361-0.0059,0.0722,0.0097,0.0898,0.0449c0.0225,0.0332,0.0166,0.0781-0.0127,0.1074
			c-0.0137,0.0117-0.0303,0.0215-0.0488,0.0254l-1.1104,0.3125c-0.0068,0.0019-0.0156,0.0039-0.0234,0.0039
			c-0.0352,0-0.0693-0.0215-0.083-0.0566c-0.0176-0.0411,0-0.0899,0.04-0.1114C66.647,72.9454,67.2739,72.8008,67.4771,72.7931z
			 M69.0679,72.3047c0.0439,0,0.0801,0.0312,0.0879,0.0761c0.0068,0.043-0.0186,0.084-0.0596,0.0977l-0.9463,0.3145
			c-0.0098,0.0039-0.0195,0.0058-0.0283,0.0058c-0.0303,0-0.0596-0.0156-0.0772-0.041c-0.0214-0.0371-0.0146-0.082,0.0137-0.1113
			C68.2593,72.4454,68.7525,72.3047,69.0679,72.3047z M64.6626,73.4336c0.0352,0.0195,0.0537,0.0625,0.043,0.1015
			c-0.0098,0.0391-0.0449,0.0665-0.0869,0.0665h-1.1182c-0.0508,0-0.0908-0.0391-0.0908-0.0879
			c0-0.0313,0.0146-0.0567,0.0361-0.0723c0.1436-0.1328,0.4365-0.1484,0.5596-0.1484
			C64.2573,73.2931,64.5005,73.3476,64.6626,73.4336z M61.7603,73.4239c0,0,0,0,0.0009,0c0.4571,0,0.9541,0.0117,1.1465,0.1504
			c0.0332,0.0137,0.0547,0.0449,0.0547,0.082c0,0.0489-0.0361,0.086-0.0898,0.0879c-0.002,0-0.003,0-0.0039,0
			c-0.003,0-0.0078,0-0.0108,0l-1.1074-0.1425c-0.0225,0-0.0469-0.0098-0.0615-0.0254c-0.0293-0.0274-0.0362-0.0684-0.0196-0.1036
			C61.687,73.4395,61.7232,73.42,61.7603,73.4239z"/>
		<path class="st4" d="M67.8228,72.0938c-0.2295,0.0606-0.4795,0.1231-0.7481,0.1836c-0.0879,0.0196-0.1787,0.0391-0.2695,0.0586
			c-0.3848,0.0821-0.7959,0.1563-1.2276,0.2207c-0.0576,0.0078-0.1123,0.0176-0.1699,0.0254
			c-0.0332,0.0039-0.0722,0.0098-0.1064,0.0137c-0.0762,0.0098-0.1582,0.0195-0.2373,0.0293
			c-0.0928,0.0117-0.1797,0.0234-0.2764,0.0351c-0.2334,0.0293-0.4775,0.0547-0.7256,0.0782
			c-0.0918,0.0078-0.1836,0.0136-0.2744,0.0195c-0.3193,0.0254-0.6387,0.043-0.9521,0.0488c-0.0713,0-0.1436,0.0059-0.2139,0.0059
			c-0.0098,0-0.0176-0.002-0.0283-0.002c-0.3584,0-0.6865-0.0195-0.9854-0.0566c-0.2431,0-0.4619,0.1328-0.6084,0.3184
			c0.0088,0,0.0156-0.002,0.0244-0.002c0.0469,0,0.0909,0.0254,0.1123,0.0664c0.0215,0.043,0.0196,0.0918-0.0058,0.1309
			c-0.0576,0.084-0.0635,0.1328-0.0371,0.1836c0.0361-0.2168,0.2402-0.4434,0.498-0.4434c0.3018,0.0391,0.6485,0.0586,1.0303,0.0586
			c0.957,0,2.0107-0.125,2.8184-0.2305c1.538-0.2109,2.8671-0.5976,3.5126-0.8066c0.1016-0.0235,0.2129,0.0019,0.3174,0.0449
			c0.001-0.0156-0.0107-0.0293-0.0039-0.0449c0.0157-0.0391,0.0518-0.0684,0.0948-0.0762c0.0761-0.0137,0.1484-0.0078,0.2207-0.0058
			c-0.1514-0.1133-0.336-0.1836-0.5254-0.1836c-0.0537,0-0.1084,0.0058-0.1709,0.0214c-0.21,0.0684-0.4971,0.1543-0.833,0.2481
			C67.978,72.0527,67.9028,72.0723,67.8228,72.0938z"/>
		<path class="st4" d="M62.8355,74.3301c0.7138,0,1.458-0.0606,2.0634-0.1348c-0.0371-0.0684-0.0605-0.1504-0.0732-0.2461
			c-0.5889,0.0703-1.3027,0.125-1.9902,0.125c-0.4082,0-0.7705-0.0195-1.0664-0.0566c-0.0899-0.0118-0.1661-0.0332-0.2383-0.0567
			c0.0185,0.0547,0.0302,0.1153,0.0302,0.1836c0,0.0313-0.0117,0.0567-0.0195,0.084c0.0615,0.0156,0.1201,0.0313,0.1934,0.041
			C62.0454,74.3086,62.4146,74.3301,62.8355,74.3301z"/>
		<path class="st4" d="M69.2056,73.0723c-0.8799,0.25-2.1592,0.5-3.0196,0.6562c0.0127,0.0977,0.0088,0.1836-0.0078,0.2617
			c0.8643-0.1582,2.1905-0.416,3.1123-0.6777c0.0137-0.0059,0.0245-0.0137,0.0381-0.0195c0.0782-0.0372,0.1475-0.0743,0.2071-0.1133
			c-0.0313-0.0352-0.0772-0.0586-0.0967-0.1016c-0.0176-0.0508-0.0147-0.0781-0.0244-0.1211
			C69.354,73.0001,69.2847,73.0391,69.2056,73.0723z"/>
		<path class="st0" d="M49.9263,73.2226c0.1748-0.0703,0.3535-0.1386,0.4043-0.25c0.0615-0.1757,0.0469-0.2714,0.0283-0.371
			c-0.0215-0.1329-0.0303-0.2461,0.0488-0.4122c-0.3945,0.0039-0.6152,0.2637-0.7099,0.42
			c-0.1494,0.2402-0.2022,0.5429-0.1494,0.7988C49.6568,73.3281,49.7915,73.2755,49.9263,73.2226z"/>
		<path class="st4" d="M49.4995,73.7832c0.001,0,0.001,0,0.002,0c0.0488-0.002,0.0937-0.0293,0.1133-0.0742
			c0.0507-0.1114,0.2304-0.1817,0.4052-0.25c0.1719-0.0684,0.3301-0.1563,0.4463-0.2832c0.0322-0.0371,0.0791-0.0606,0.1006-0.1094
			c0.0156-0.043,0.0127-0.0703,0.0215-0.1094c0.042-0.1738,0.0381-0.3047,0.0215-0.3984c-0.0196-0.1172-0.0323-0.1953,0.1133-0.4082
			c0.0175-0.0254,0.0127-0.0586,0.0097-0.0899c-0.0019-0.0097,0.0069-0.0195,0.003-0.0312
			c-0.0166-0.0391-0.0528-0.0684-0.0958-0.0762c-0.0751-0.0137-0.1474-0.0078-0.2197-0.0058
			c-0.3847,0.0019-0.7285,0.1835-0.9394,0.5273c-0.2227,0.3594-0.2617,0.8164-0.1182,1.168
			c0.0088,0.0234,0.0117,0.0488,0.0225,0.0703C49.4068,73.7559,49.4507,73.7832,49.4995,73.7832z M49.6978,72.6095
			c0.0947-0.1563,0.3154-0.4161,0.7099-0.42c-0.0791,0.1661-0.0703,0.2793-0.0488,0.4122c0.0186,0.0996,0.0332,0.1953-0.0283,0.371
			c-0.0508,0.1114-0.2295,0.1797-0.4043,0.25c-0.1348,0.0528-0.2695,0.1055-0.3779,0.1856
			C49.4956,73.1524,49.5484,72.8496,49.6978,72.6095z"/>
		<path class="st0" d="M54.2642,74.2911c0.0625,0.0801,0.1279,0.1641,0.1816,0.2637c0.0664-0.0957,0.1475-0.166,0.2197-0.2285
			c0.1524-0.1348,0.2715-0.2403,0.2715-0.4961c0-0.2735-0.1513-0.6778-0.3584-0.6778c-0.2461,0-0.5039,0.2578-0.5039,0.5039
			c0,0.0098-0.0019,0.0196-0.0049,0.0274C54.0064,73.961,54.1196,74.1075,54.2642,74.2911z"/>
		<path class="st4" d="M55.1753,73.9492c0.0059-0.041,0.0166-0.0742,0.0166-0.1191c0-0.3926-0.2129-0.9317-0.6133-0.9317
			c-0.3789,0-0.749,0.3653-0.7578,0.7422c-0.0078,0.0332-0.0029,0.0586-0.0068,0.0879c-0.0117,0.0977-0.0088,0.1836,0.0088,0.2617
			c0.041,0.1856,0.1416,0.3301,0.2412,0.4571c0.124,0.1621,0.2422,0.3144,0.2422,0.5644c0,0.0703,0.0566,0.1289,0.1269,0.1289
			c0.0713,0,0.1279-0.0586,0.1279-0.1289c0-0.2559,0.1202-0.3613,0.2725-0.4961c0.0938-0.082,0.1963-0.1816,0.2686-0.3203
			C55.1392,74.127,55.1626,74.045,55.1753,73.9492z M54.0698,73.6836c0.003-0.0078,0.0049-0.0176,0.0049-0.0274
			c0-0.2461,0.2578-0.5039,0.5039-0.5039c0.2071,0,0.3584,0.4043,0.3584,0.6778c0,0.2558-0.1191,0.3613-0.2715,0.4961
			c-0.0722,0.0625-0.1533,0.1328-0.2197,0.2285c-0.0537-0.0996-0.1191-0.1836-0.1816-0.2637
			C54.1196,74.1075,54.0064,73.961,54.0698,73.6836z"/>
		<path class="st0" d="M58.9282,73.7911c-0.1464,0.1191-0.2343,0.2031-0.2343,0.3535c0,0.0762,0.1533,0.1817,0.29,0.2754
			c0.1445,0.0996,0.3145,0.2168,0.417,0.3692c0.1767-0.3711,0.251-0.8633,0.0898-1.1797c-0.0673-0.1328-0.1718-0.2188-0.3125-0.2598
			C59.2105,73.5626,59.0464,73.6954,58.9282,73.7911z"/>
		<path class="st4" d="M58.4693,73.963c-0.0186,0.0547-0.0303,0.1133-0.0303,0.1816c0,0.0313,0.0117,0.0567,0.0195,0.084
			c0.0459,0.1621,0.2051,0.2813,0.3809,0.4004c0.1982,0.1367,0.4023,0.2773,0.4023,0.4609c0,0.0567,0.0361,0.1035,0.0889,0.1211
			c0.0117,0.0039,0.0244,0.0078,0.0381,0.0078c0.041,0,0.0781-0.0195,0.1035-0.0527c0.1806-0.25,0.3037-0.6094,0.3388-0.9629
			c0.0157-0.168,0.004-0.3262-0.0322-0.4785c-0.0185-0.0781-0.0273-0.1602-0.0625-0.2285
			c-0.0957-0.1895-0.2978-0.4082-0.7041-0.4219c-0.0127,0-0.0215-0.0039-0.0361-0.0039c-0.0479,0-0.0908,0.0254-0.1123,0.0664
			c-0.0215,0.043-0.0186,0.0918,0.0078,0.1309c0.0557,0.082,0.0644,0.1308,0.041,0.1777c-0.0215,0.043-0.0644,0.084-0.1445,0.1484
			C58.6616,73.6816,58.5278,73.7911,58.4693,73.963z M59.4907,73.6095c0.1612,0.3164,0.0869,0.8086-0.0898,1.1797
			c-0.1025-0.1524-0.2725-0.2696-0.417-0.3692c-0.1367-0.0937-0.29-0.1992-0.29-0.2754c0-0.1504,0.0879-0.2344,0.2343-0.3535
			c0.1182-0.0957,0.2823-0.2285,0.25-0.4414C59.3189,73.3906,59.4234,73.4766,59.4907,73.6095z"/>
		<path class="st0" d="M69.5933,72.1895c0.0791,0.1661,0.0703,0.2793,0.0468,0.4122c-0.0166,0.0996-0.0312,0.1953,0.0342,0.3808
			c0.0459,0.1016,0.2256,0.1699,0.4014,0.2402c0.1309,0.0528,0.2686,0.1055,0.3769,0.1856c0.0518-0.2559,0-0.5586-0.1494-0.7988
			C70.2066,72.4531,69.9878,72.1934,69.5933,72.1895z"/>
		<path class="st4" d="M69.2661,72.0294c-0.0068,0.0156,0.0049,0.0293,0.0039,0.0449c0,0.0254-0.0068,0.0527,0.0078,0.0762
			c0.1446,0.2129,0.1319,0.291,0.1123,0.4082c-0.0156,0.0937-0.0185,0.2226,0.0245,0.3984c0.0097,0.043,0.0068,0.0703,0.0244,0.1211
			c0.0195,0.043,0.0654,0.0664,0.0967,0.1016c0.1142,0.125,0.2724,0.2109,0.4453,0.2793c0.1728,0.0683,0.3535,0.1386,0.4052,0.25
			c0.0196,0.0449,0.0635,0.0722,0.1133,0.0742c0.001,0,0.001,0,0.002,0c0.0469,0,0.0908-0.0274,0.1123-0.0703
			c0.0107-0.0215,0.0146-0.0488,0.0244-0.0742c0.1426-0.3496,0.1035-0.8047-0.1191-1.1641
			c-0.211-0.3418-0.5528-0.5234-0.9375-0.5273c-0.0723-0.002-0.1446-0.0079-0.2207,0.0058
			C69.3179,71.961,69.2818,71.9902,69.2661,72.0294z M70.4526,73.4082c-0.1083-0.0801-0.246-0.1328-0.3769-0.1856
			c-0.1758-0.0703-0.3555-0.1386-0.4014-0.2402c-0.0654-0.1855-0.0508-0.2812-0.0342-0.3808
			c0.0235-0.1329,0.0323-0.2461-0.0468-0.4122c0.3945,0.0039,0.6133,0.2637,0.7099,0.42
			C70.4526,72.8496,70.5044,73.1524,70.4526,73.4082z"/>
		<path class="st0" d="M65.3355,74.3262c0.0722,0.0625,0.1533,0.1328,0.2187,0.2285c0.0547-0.0996,0.1201-0.1836,0.1817-0.2637
			c0.1455-0.1836,0.2578-0.3301,0.1953-0.6074c-0.003-0.0078-0.0049-0.0176-0.0049-0.0274c0-0.2461-0.2578-0.5039-0.5039-0.5039
			c-0.208,0-0.3584,0.4043-0.3584,0.6778C65.064,74.086,65.1821,74.1915,65.3355,74.3262z"/>
		<path class="st4" d="M64.8989,74.1954c0.0723,0.1387,0.1748,0.2383,0.2686,0.3203c0.1523,0.1348,0.2715,0.2383,0.2715,0.4961
			c0,0.0703,0.0556,0.1289,0.1279,0.1289c0.0684,0,0.125-0.0586,0.125-0.1289c0-0.25,0.1201-0.4023,0.2451-0.5644
			c0.0996-0.127,0.2002-0.2715,0.2412-0.4571c0.0166-0.0781,0.0205-0.164,0.0078-0.2617c-0.0029-0.0293,0.001-0.0547-0.0058-0.0879
			c-0.0088-0.3769-0.3779-0.7422-0.7578-0.7422c-0.4004,0-0.6133,0.5391-0.6133,0.9317c0,0.0449,0.0107,0.0781,0.0166,0.1191
			C64.8384,74.045,64.8618,74.127,64.8989,74.1954z M65.064,73.8301c0-0.2735,0.1504-0.6778,0.3584-0.6778
			c0.2461,0,0.5039,0.2578,0.5039,0.5039c0,0.0098,0.0019,0.0196,0.0049,0.0274c0.0625,0.2773-0.0498,0.4238-0.1953,0.6074
			c-0.0616,0.0801-0.127,0.1641-0.1817,0.2637c-0.0654-0.0957-0.1465-0.166-0.2187-0.2285
			C65.1821,74.1915,65.064,74.086,65.064,73.8301z"/>
		<path class="st0" d="M60.5991,74.7871c0.1035-0.1504,0.2725-0.2676,0.416-0.3672c0.1368-0.0937,0.292-0.1992,0.292-0.2754
			c0-0.1504-0.0898-0.2344-0.2343-0.3535c-0.1192-0.0957-0.2832-0.2285-0.251-0.4394c-0.1397,0.039-0.2442,0.125-0.3125,0.2578
			C60.3491,73.9258,60.4224,74.4181,60.5991,74.7871z"/>
		<path class="st4" d="M60.2837,73.4961c-0.0361,0.0703-0.0449,0.1562-0.0635,0.2363c-0.0351,0.1504-0.0468,0.3086-0.0302,0.4766
			c0.0351,0.3515,0.1582,0.709,0.3369,0.957c0.0263,0.0332,0.0634,0.0527,0.1045,0.0527c0.0127,0,0.0254-0.0039,0.038-0.0078
			c0.0528-0.0176,0.0879-0.0644,0.0879-0.1211c0-0.1836,0.2061-0.3242,0.4034-0.4609c0.1757-0.1191,0.3349-0.2383,0.3808-0.4004
			c0.0078-0.0273,0.0195-0.0527,0.0195-0.084c0-0.0683-0.0117-0.1289-0.0302-0.1836c-0.0596-0.1699-0.1944-0.2793-0.2979-0.3672
			c-0.0781-0.0625-0.1172-0.1015-0.1396-0.1425c-0.0264-0.0508-0.0205-0.0996,0.0371-0.1836
			c0.0254-0.0391,0.0273-0.0879,0.0058-0.1309c-0.0214-0.041-0.0654-0.0664-0.1123-0.0664c-0.0088,0-0.0156,0.002-0.0244,0.002
			C60.5845,73.0841,60.3814,73.3047,60.2837,73.4961z M60.8218,73.3516c-0.0322,0.2109,0.1318,0.3437,0.251,0.4394
			c0.1445,0.1191,0.2343,0.2031,0.2343,0.3535c0,0.0762-0.1552,0.1817-0.292,0.2754c-0.1435,0.0996-0.3125,0.2168-0.416,0.3672
			c-0.1767-0.3691-0.25-0.8613-0.0898-1.1777C60.5776,73.4766,60.6821,73.3906,60.8218,73.3516z"/>
		<path class="st4" d="M50.9146,72.4806l0.9394,0.3125c0.0078,0.0039,0.0176,0.0058,0.0274,0.0058c0,0,0.0019,0,0.0029,0
			c0.0469,0.002,0.0908-0.039,0.0908-0.0879c0-0.0312-0.0166-0.0605-0.04-0.0761c-0.1778-0.1856-0.6651-0.3262-0.9903-0.3301
			c-0.0361-0.0039-0.0713,0.0136-0.0898,0.0469c-0.0205,0.0371-0.0107,0.0859,0.0234,0.1113
			C50.8892,72.4726,50.9019,72.4786,50.9146,72.4806z"/>
		<path class="st4" d="M52.436,72.8341c-0.0224,0.0312-0.0205,0.0742,0.0049,0.1035c0.0147,0.0176,0.0342,0.0293,0.0557,0.0332
			l1.1094,0.3125c0.0068,0.0019,0.0146,0.0039,0.0234,0.0039h0.002c0.0527,0.002,0.0898-0.0391,0.0898-0.0898
			c0-0.0411-0.0254-0.0743-0.0625-0.086c-0.3213-0.1699-0.9336-0.3105-1.1348-0.3183
			C52.4907,72.7871,52.4556,72.8027,52.436,72.8341z"/>
		<path class="st4" d="M57.0503,73.6915c0.0137,0.0332,0.0469,0.0527,0.082,0.0527c0.003,0,0.0059,0,0.0108,0l1.1045-0.1425
			c0.0332,0,0.0625-0.0176,0.081-0.045c0.0147-0.0293,0.0137-0.0625-0.0029-0.0918c-0.0176-0.0293-0.0498-0.0449-0.0879-0.041
			h-0.0019c-0.4678,0-0.9815,0.0137-1.1612,0.1641C57.0444,73.6114,57.0337,73.6544,57.0503,73.6915z"/>
		<path class="st4" d="M55.3823,73.6016h1.1172c0.0371,0,0.0694-0.0215,0.083-0.0547c0.0137-0.0332,0.0059-0.0723-0.0195-0.0977
			c-0.1396-0.1406-0.4434-0.1562-0.5674-0.1562c-0.251,0-0.4961,0.0546-0.6572,0.1406c-0.0352,0.0195-0.0547,0.0625-0.043,0.1015
			C55.3052,73.5742,55.3403,73.6016,55.3823,73.6016z"/>
		<path class="st4" d="M68.0444,72.7579c0.0176,0.0254,0.0469,0.041,0.0772,0.041c0.0088,0,0.0185-0.0019,0.0283-0.0058
			l0.9463-0.3145c0.041-0.0137,0.0664-0.0547,0.0596-0.0977c-0.0078-0.0449-0.044-0.0761-0.0879-0.0761
			c-0.3154,0-0.8086,0.1406-1.0098,0.3418C68.0298,72.6758,68.023,72.7207,68.0444,72.7579z"/>
		<path class="st4" d="M66.2886,73.2306c0.0137,0.0351,0.0478,0.0566,0.083,0.0566c0.0078,0,0.0166-0.002,0.0234-0.0039
			l1.1104-0.3125c0.0185-0.0039,0.0351-0.0137,0.0488-0.0254c0.0293-0.0293,0.0352-0.0742,0.0127-0.1074
			c-0.0176-0.0352-0.0537-0.0508-0.0898-0.0449c-0.2032,0.0078-0.8301,0.1523-1.1485,0.3261
			C66.2886,73.1406,66.271,73.1895,66.2886,73.2306z"/>
		<path class="st4" d="M61.7505,73.6016l1.1074,0.1425c0.003,0,0.0078,0,0.0108,0c0.0009,0,0.0019,0,0.0039,0
			c0.0537-0.0019,0.0898-0.039,0.0898-0.0879c0-0.0371-0.0215-0.0683-0.0547-0.082c-0.1924-0.1387-0.6894-0.1504-1.1465-0.1504
			c-0.0009,0-0.0009,0-0.0009,0c-0.0371-0.0039-0.0733,0.0156-0.0909,0.0488c-0.0166,0.0352-0.0097,0.0762,0.0196,0.1036
			C61.7036,73.5919,61.728,73.6016,61.7505,73.6016z"/>
		<path class="st4" d="M63.4458,73.4415c-0.0215,0.0156-0.0361,0.041-0.0361,0.0723c0,0.0488,0.04,0.0879,0.0908,0.0879h1.1182
			c0.042,0,0.0771-0.0274,0.0869-0.0665c0.0107-0.039-0.0078-0.082-0.043-0.1015c-0.1621-0.086-0.4053-0.1406-0.6572-0.1406
			C63.8823,73.2931,63.5894,73.3086,63.4458,73.4415z"/>
		<path class="st4" d="M50.8042,74.8926c0.0098-0.0118,0.0264-0.0215,0.0371-0.0215c0.0235,0,0.0811-0.1055,0.0801-0.1504
			c-0.001-0.0391-0.1084-0.1465-0.167-0.168c-0.0918-0.0332-0.1894,0.0371-0.2226,0.1582
			c-0.0254,0.1016,0.0292,0.1856,0.1367,0.2051C50.7222,74.9258,50.7847,74.9141,50.8042,74.8926z"/>
		<path class="st4" d="M61.8735,75.6797c0.0811-0.0625,0.0948-0.1739,0.0303-0.2422c-0.0361-0.0371-0.1308-0.0859-0.1679-0.0859
			c-0.0713,0.0019-0.1846,0.1269-0.1846,0.205c0,0.0391,0.0625,0.1289,0.1035,0.1446
			C61.7124,75.7226,61.8325,75.711,61.8735,75.6797z"/>
		<path class="st4" d="M61.8657,76.1855c0.0801-0.0351,0.1309-0.1054,0.1289-0.1757c-0.0048-0.0625-0.0478-0.1094-0.1416-0.1524
			l-0.0703-0.0312l-0.0732,0.039c-0.1016,0.0567-0.1123,0.0703-0.1045,0.168c0.0068,0.0937,0.0371,0.1348,0.1211,0.1641
			C61.7915,76.2188,61.7954,76.2188,61.8657,76.1855z"/>
		<path class="st4" d="M52.8755,76.2617c0.0664-0.2305,0.1152-0.4668,0.1797-0.6992c0.0469-0.0918,0.0996-0.3047-0.0811-0.2559
			c-0.1025,0.0606-0.1894,0.1543-0.3173,0.1621c-0.1749,0.0098-0.0752,0.1895-0.0069,0.2618
			c0.0156,0.1171-0.0215,0.2578-0.1006,0.3496c-0.1025,0.0664-0.2343-0.0098-0.3437-0.0371
			c-0.1143,0.0019-0.3438-0.0567-0.2363-0.211c0.0371-0.1172,0.041-0.2441,0.0878-0.3574c0.0596-0.123,0.0655-0.2559,0.0928-0.3887
			c-0.0723-0.1543-0.1953,0.0528-0.293,0.0703c-0.0673,0.0469-0.3212,0.0664-0.1884,0.1875
			c0.1162,0.086,0.0273,0.2383,0.0068,0.3496c-0.0088,0.1543-0.1689,0.1915-0.2939,0.1563
			c-0.126-0.0059-0.3008-0.0996-0.1944-0.2383c0.0244-0.1133,0.0645-0.2265,0.0879-0.3437
			c0.0479-0.1387,0.0879-0.2715,0.1377-0.4121c0.0215-0.1231,0.0664-0.2403,0.125-0.3497c0.0039-0.1367,0.0957-0.2558,0.0947-0.3945
			c-0.0097-0.0664-0.04-0.0918-0.081-0.0918c-0.0703-0.0019-0.1641,0.0606-0.2197,0.0918
			c-0.1299,0.0332-0.2813,0.1113-0.4063,0.0254c-0.123-0.0371-0.2871-0.0078-0.3066,0.1445
			c0.0322,0.1309,0.2138,0.2051,0.3252,0.1192c0.081-0.1094,0.3066-0.1699,0.331,0.0117c-0.0908,0.1387-0.0801,0.3223-0.1553,0.4687
			c-0.0136,0.0918-0.0507,0.1797-0.1015,0.2559c-0.0918,0.0098-0.1905,0-0.2686,0.0566c-0.125,0.0059-0.2519,0.0684-0.3242,0.1739
			c-0.081,0.1172-0.1582,0.2344-0.1807,0.3769c0.0205,0.1446,0.1866,0.1856,0.3125,0.1914c0.1329,0.0391,0.2666,0.086,0.3995,0.127
			c0.2158,0.0488,0.4209,0.1269,0.6367,0.1738c0.3164,0.0957,0.6494,0.1406,0.9697,0.2266
			c0.0332,0.0117,0.0645,0.0215,0.0996,0.0254C52.7954,76.5156,52.8657,76.3711,52.8755,76.2617z M50.8755,75.5801
			c-0.0225,0.0195-0.0488,0.039-0.0557,0.039c-0.0947-0.0097-0.122-0.0234-0.1259-0.0566
			c-0.0039-0.0313,0.0068-0.0391,0.0683-0.0684c0.0313-0.0156,0.0528-0.0215,0.0694-0.0254c0.0156-0.0019,0.0263,0,0.0439,0.0059
			C50.9253,75.4961,50.9263,75.5371,50.8755,75.5801z"/>
		<path class="st4" d="M50.688,76.2012c-0.1465,0.1113-0.1621,0.1777-0.0635,0.2714c0.0518,0.0508,0.0684,0.0567,0.128,0.0567
			c0.0556,0,0.0771-0.0098,0.1259-0.0527c0.0967-0.086,0.0918-0.1504-0.0175-0.25C50.7886,76.1601,50.7505,76.1544,50.688,76.2012z"
			/>
		<path class="st4" d="M51.2769,76.3419c-0.127,0.0019-0.1416,0.0098-0.166,0.0976c-0.0284,0.0957,0.0263,0.1934,0.124,0.2168
			c0.0537,0.0137,0.1338-0.0058,0.1758-0.0449c0.0351-0.0332,0.04-0.0508,0.04-0.1211
			C51.4487,76.3652,51.4204,76.3419,51.2769,76.3419z"/>
		<path class="st4" d="M69.1519,76.3809c-0.1045,0.045-0.1504,0.1075-0.1504,0.1875c0.001,0.0489,0.0097,0.0665,0.0547,0.1036
			c0.0507,0.0429,0.0625,0.0449,0.1631,0.0449c0.1035,0,0.1113-0.0039,0.1572-0.0488c0.081-0.0821,0.0849-0.1289,0.0176-0.25
			C69.3423,76.3281,69.2866,76.3184,69.1519,76.3809z"/>
		<path class="st4" d="M52.0991,76.5781c-0.0381,0.0059-0.0859,0.0254-0.1162,0.0488c-0.0459,0.0372-0.0517,0.0469-0.0517,0.1133
			c0.0039,0.0879,0.04,0.1426,0.1123,0.1621c0.1093,0.0293,0.1738,0.0098,0.2412-0.0683c0.0635-0.0762,0.04-0.1504-0.0703-0.2285
			C52.1714,76.5742,52.1528,76.5704,52.0991,76.5781z"/>
		<path class="st4" d="M56.7241,76.8926c-0.0058-0.0801,0.0313-0.1524,0.0293-0.2325c0.0137-0.125-0.0009-0.2558,0.0352-0.3769
			c0.0176-0.125,0.0127-0.25,0.0303-0.377c0.0039-0.0839,0.038-0.1621,0.0488-0.2441c-0.0059-0.082,0.0146-0.1719,0.0967-0.2051
			c0.0605-0.0254,0.1416-0.0996,0.0547-0.1484c-0.1036-0.0957-0.2071-0.1895-0.2862-0.3047
			c-0.0527-0.084-0.1142,0.0586-0.1113,0.1113c-0.042,0.1426-0.0127,0.2949-0.044,0.4395c-0.0283,0.0918-0.0371,0.1855-0.039,0.2812
			c-0.043,0.1836-0.043,0.375-0.0791,0.5606c-0.0371,0.1015-0.0205,0.2109-0.0391,0.3144c-0.0351,0.1074-0.042,0.2207-0.0478,0.3301
			c0.0039,0.0254,0.039,0.0371,0.0556,0.0586c0.0537,0.0547,0.1475,0.0605,0.2129,0.0273
			C56.7095,77.0704,56.7144,76.9746,56.7241,76.8926z"/>
		<path class="st4" d="M63.4859,76.582c-0.045-0.1328-0.0284-0.2851-0.0499-0.4238c-0.0019-0.1113-0.1425-0.1504-0.2128-0.0703
			c-0.0674,0.0703-0.1768,0.084-0.2295,0.1679c-0.0586,0.1211,0.125,0.1231,0.1552,0.2149c0.0352,0.0918,0.0245,0.1953,0.0313,0.293
			c0.0234,0.1191-0.1045,0.125-0.1865,0.1367c-0.1075,0.041-0.2588,0.0683-0.3203-0.0625c-0.0372-0.0957-0.0323-0.1973-0.043-0.2988
			c-0.0029-0.1778-0.0449-0.3536-0.0567-0.5313c-0.0097-0.2187-0.0459-0.4375-0.0615-0.6562
			c-0.0029-0.0918-0.0137-0.2403-0.1426-0.2129c-0.0976,0.0722-0.1836,0.1601-0.2705,0.2441
			c-0.1201,0.0898,0.0977,0.1406,0.126,0.2188c0.0303,0.1171,0.0303,0.2421,0.0361,0.3632c0.0362,0.1094,0.0508,0.2266,0.045,0.3418
			c-0.0108,0.125-0.1729,0.0996-0.2432,0.17c-0.0986,0.041-0.1387,0.1386-0.2139,0.207c-0.0488,0.0957-0.0625,0.2148-0.0683,0.3242
			c0.0078,0.0898-0.0606,0.1895,0,0.2695c0.0088,0.0098,0.0176,0.0254,0.0244,0.0371c0.0205,0.0293,0.0693,0.0059,0.1006,0.0118
			c0.0996-0.0059,0.2051,0.0097,0.2998-0.0313c0.2431-0.043,0.4863-0.0449,0.7314-0.0566c0.1504,0.0039,0.293-0.0469,0.4434-0.043
			c0.1172,0.0254,0.1689-0.1016,0.1689-0.1953C63.4829,76.8711,63.5396,76.7149,63.4859,76.582z M62.2368,76.9707
			c-0.042,0.0117-0.081,0.0176-0.082,0.0176c0,0-0.0176-0.0098-0.0371-0.0235c-0.044-0.0332-0.0332-0.0781,0.0264-0.1386
			c0.0312-0.0332,0.0478-0.0391,0.0986-0.0371l0.0635,0.0058l0.0058,0.0742l0.0059,0.0762L62.2368,76.9707z"/>
		<path class="st4" d="M56.2495,74.9316c-0.0752,0.0274-0.1709,0.1387-0.25,0.1387c-0.1748,0.0117-0.1513,0.1836-0.0234,0.2441
			c0.0146,0.0508,0,0.1172,0.0049,0.1739c0.0254,0.1582-0.0742,0.2851-0.0557,0.4433c-0.0088,0.1739-0.0605,0.3457-0.0684,0.5196
			c-0.0498,0.1816-0.0498,0.3671-0.081,0.5488c-0.0215,0.166-0.1397,0.1074-0.2451,0.0625c0-0.0703-0.0049-0.1406-0.0069-0.2109
			c0.044-0.1641-0.0879-0.211-0.2168-0.2305c-0.1377,0.0117-0.206-0.1055-0.1748-0.2266c0.0577-0.0703,0.2061-0.0508,0.2989-0.0625
			c0.1963,0.041,0.1875-0.2207,0.0888-0.3125c-0.0703-0.1269-0.2412-0.1816-0.289-0.3125c0.0195-0.1738-0.0948-0.3457-0.2364-0.4316
			c-0.2187-0.0137-0.3828,0.1738-0.4628,0.3574c-0.0909,0.0254-0.1817,0.0527-0.2686,0.0879
			c-0.1436,0.0351-0.3438,0.2812-0.1504,0.373c0.1074,0.0313,0.4395,0.1075,0.294,0.2579
			c-0.0821,0.1406-0.2403,0.1445-0.3819,0.1074c-0.1455,0-0.3056-0.0723-0.3008-0.2403c-0.0283-0.1484-0.0234-0.3105-0.0927-0.4492
			c-0.0303-0.1679-0.2207-0.1269-0.2325,0.0254c-0.1455,0.1074-0.1259,0.2793-0.0234,0.4063c0.0635,0.1464,0,0.3144-0.0635,0.4511
			c-0.0371,0.1739-0.2295,0.1797-0.3681,0.2364c-0.0674,0.0254-0.3262-0.0157-0.2305,0.1308
			c0.1494,0.0528,0.3291,0.1016,0.4873,0.0625c0.1641-0.0195,0.3066-0.1328,0.3877-0.2734
			c0.1094-0.1133,0.2998-0.0547,0.4434-0.0586c0.1542,0,0.3125,0.1094,0.4619,0.0391c0.0429-0.1133,0.2441-0.2989,0.3047-0.1055
			c-0.0088,0.1719,0.1435,0.2656,0.3007,0.2422c0.1729-0.0098,0.1094,0.123,0.1075,0.2246
			c0.0117,0.1875,0.1318,0.2871,0.2871,0.3633c0.0527,0.0136,0.1093,0.0097,0.1621,0c0.1513-0.0469,0.3115-0.1133,0.3564-0.2813
			c0.0615-0.1348,0.0615-0.2891,0.1074-0.4297c0.0342-0.2285,0.0811-0.4531,0.086-0.6816c0.0556-0.209,0.039-0.4278,0.082-0.6387
			c0.0264-0.1562,0.0459-0.3125,0.0625-0.4687C56.3325,74.9297,56.2954,74.9161,56.2495,74.9316z M55.0249,76.088
			c-0.0224,0.0156-0.0644,0.0273-0.1367,0.0273c-0.1162-0.0019-0.1875-0.0332-0.252-0.0957l-0.0361-0.0371l0.0567-0.0371
			c0.0283-0.0234,0.0791-0.0664,0.1113-0.0996c0.0576-0.0586,0.0947-0.0859,0.126-0.082c0.0302,0.0019,0.0478,0.041,0.0498,0.1074
			c0.0019,0.0703,0.042,0.1308,0.0869,0.1426C55.0679,76.0235,55.065,76.0626,55.0249,76.088z"/>
		<path class="st4" d="M69.0816,75.7832c-0.1875-0.1445-0.1748-0.416-0.2432-0.625c-0.0488-0.2734-0.0361-0.5859-0.2324-0.8008
			c-0.1348-0.1426-0.3164-0.1777-0.5049-0.168c-0.1133,0.0039-0.2285,0.0235-0.332,0.0489
			c-0.2071-0.0117-0.3125,0.205-0.1123,0.3125c0.121,0.3066,0.3066-0.0625,0.499-0.0371c0.2881,0.0566,0.3115,0.3671,0.3584,0.5996
			c0.0146,0.2324,0.082,0.457,0.1484,0.6758c0.1924,0.2128-0.1445,0.3476-0.2871,0.1816c-0.1221-0.1348-0.3857-0.2969-0.5322-0.1133
			c-0.1797,0.0762-0.1885,0.3184-0.3379,0.3867c-0.2403,0.0742-0.2715-0.2246-0.3975-0.3496
			c-0.1191-0.164-0.3428-0.1797-0.5263-0.2363c-0.086-0.1738-0.0411-0.4707-0.2188-0.5879
			c-0.1494,0.0605-0.4238,0.3398-0.1934,0.4688c0.2237,0.1914-0.0986,0.2812-0.2001,0.4121
			c-0.1456,0.164-0.169,0.3867-0.1954,0.5937c-0.2509,0.1387-0.2988-0.1582-0.331-0.3437
			c-0.0176-0.2227-0.2061-0.1563-0.3369-0.0743c-0.1895,0.0762-0.2852,0.2579-0.418,0.3985
			c-0.0166,0.1308,0.0078,0.2734,0.0049,0.4082c0.0449,0.1621,0.2412,0.0859,0.3642,0.0742c0.1944-0.082,0.2745,0.125,0.1182,0.2422
			c-0.1074,0.1348-0.4443,0.0664-0.4131,0.2832c0.1084,0.0117,0.2227,0.0078,0.3321,0c0.2167-0.0606,0.4521-0.2149,0.4755-0.457
			c0.0284-0.211,0.333-0.1739,0.4991-0.2188c0.208-0.0586,0.4599-0.0742,0.5058,0.1875c0.1426,0.1484,0.4502,0.3164,0.6065,0.1133
			c0.1582-0.0977,0.2343-0.2695,0.2246-0.4512c-0.0323-0.1562,0.2529-0.1621,0.3252-0.0742
			c0.1045,0.1719,0.4306,0.1191,0.5869,0.0254c0.168-0.125,0.2041-0.3418,0.4443-0.3438c0.3565-0.1074,0.7285-0.1679,1.0752-0.3007
			c0.2813-0.0606-0.041-0.2403-0.1123-0.3438C69.5103,75.5626,69.3247,75.998,69.0816,75.7832z M65.1939,76.6641
			c-0.045,0.0214-0.1475,0.0292-0.1739,0.0117c-0.0117-0.0059-0.0283-0.0196-0.039-0.0371
			c-0.0147-0.0235-0.0088-0.0352,0.0058-0.0508c0.0137-0.0098,0.0264-0.0235,0.0264-0.0313
			c-0.001-0.0058,0.0127-0.0312,0.0312-0.0566c0.0284-0.0371,0.0713-0.0508,0.1114-0.041c0.041,0.0078,0.0791,0.039,0.0879,0.0859
			C65.2573,76.6095,65.2456,76.6367,65.1939,76.6641z M66.3814,76.4454c-0.0098,0.0449-0.0098,0.043-0.1133,0.043
			c-0.127,0.0019-0.1397-0.0117-0.1367-0.1309c0.0009-0.0742,0.0039-0.0957,0.0429-0.1387c0.0332-0.0312,0.0596-0.0449,0.083-0.0488
			c0.0215-0.0039,0.0411,0.0078,0.0674,0.0313c0.0362,0.0312,0.0479,0.0546,0.0567,0.1191
			C66.3882,76.3633,66.3872,76.42,66.3814,76.4454z M66.687,76.3262c0-0.0118-0.0117-0.0586-0.0244-0.0938
			c-0.0234-0.0644-0.0195-0.0625,0.0117-0.1055c0.0215-0.0293,0.0381-0.0449,0.0635-0.0449s0.0547,0.0117,0.0996,0.0391
			c0.0879,0.0469,0.1504,0.1269,0.1504,0.1933c0,0.0411-0.0107,0.045-0.0762,0.0743c-0.0381,0.0175-0.083,0.0371-0.0986,0.0371
			C66.7769,76.4258,66.687,76.3556,66.687,76.3262z M67.0874,76.838c-0.0273,0.0215-0.1758,0.0195-0.2246,0
			c-0.0234-0.0078-0.0322-0.0196-0.0322-0.043c0-0.0273,0.0078-0.0469,0.0566-0.0683c0.042-0.0196,0.0821-0.0313,0.1192-0.0313
			c0.0351,0,0.0654,0.0117,0.0869,0.0313C67.1314,76.7579,67.1294,76.8066,67.0874,76.838z M68.1128,76.3829
			c-0.041,0.0176-0.081,0.0313-0.0879,0.0313c-0.0058-0.002-0.04-0.0215-0.0742-0.045c-0.0547-0.0351-0.0625-0.0527-0.0635-0.0918
			c0-0.0644,0.0703-0.1211,0.1572-0.1269c0.0752-0.0039,0.1192,0.0195,0.1495,0.0762
			C68.231,76.2931,68.2056,76.3419,68.1128,76.3829z"/>
		<path class="st4" d="M64.3276,76.5391c-0.0214-0.0879-0.0742-0.1661-0.1357-0.2325c-0.0176-0.0644-0.0518-0.125-0.0898-0.1797
			c-0.0274-0.0546-0.1055-0.1093-0.1582-0.0527c-0.0479,0.082-0.086,0.1699-0.1319,0.2559
			c-0.0205,0.0605-0.0801,0.1132-0.0713,0.1816c0.0196,0.0703,0.1026,0.082,0.1553,0.1231
			c0.0742,0.0429,0.1377,0.1074,0.1641,0.1933c0.0234,0.0938,0.0185,0.1914,0.0185,0.2871c0,0.0684-0.0752,0.1035-0.0859,0.1719
			c-0.0703,0.0957-0.1641,0.1758-0.2744,0.2227c-0.0606,0.0234-0.1309,0.0429-0.1651,0.1054c-0.0283,0.0196,0,0.0313,0.0186,0.043
			l0,0c-0.0068-0.0059,0.0322,0.0215,0.0254,0.0117c0.1025,0.0156,0.207,0.002,0.3105,0.002
			c0.0723,0.0156,0.1045-0.0508,0.1631-0.0684c0.082-0.0332,0.1514-0.0898,0.2149-0.1484c0.039-0.0528,0.0937-0.0879,0.122-0.1465
			c0.0401-0.1055,0.0401-0.2246,0.0381-0.334c0.002-0.0859-0.043-0.1602-0.043-0.2422
			C64.4058,76.6601,64.3579,76.6016,64.3276,76.5391z"/>
		<path class="st4" d="M62.8628,77.4297c-0.0791,0-0.1621,0.0469-0.1758,0.0957c-0.0136,0.0508-0.0615,0.0449-0.206-0.0293
			c-0.1514-0.0742-0.1944-0.0723-0.2823,0.0156c-0.0478,0.0469-0.0576,0.0664-0.0576,0.1172
			c0.003,0.0488,0.0127,0.0684,0.0606,0.1211c0.0556,0.0547,0.0654,0.0586,0.1357,0.0586c0.0537,0,0.086-0.0098,0.1045-0.0254
			c0.0488-0.0488,0.1182-0.0899,0.1592-0.1016c0.0215-0.0058,0.043-0.0175,0.0469-0.0293c0.0127-0.0332,0.0302-0.0215,0.042,0.0274
			c0.0136,0.0703,0.0654,0.1094,0.1543,0.1172c0.0673,0.0078,0.0771,0.0058,0.1318-0.043c0.0586-0.0527,0.0596-0.0566,0.0596-0.1484
			c-0.003-0.0899-0.0049-0.0957-0.0557-0.1348C62.94,77.4395,62.9116,77.4297,62.8628,77.4297z"/>
		<path class="st4" d="M61.1948,76.3184c-0.166-0.0449-0.3066,0.1055-0.4746,0.1192c-0.1865,0.082-0.3418,0.2539-0.3515,0.4609
			c-0.1084,0.1797-0.2842-0.0312-0.2246-0.1797c-0.0059-0.0664,0.0156-0.1425-0.0059-0.1992
			c-0.1016-0.123-0.2793-0.082-0.418-0.1015c-0.2051,0.0078-0.4043-0.0352-0.6074-0.0313
			c-0.1777-0.0137-0.3643,0.0156-0.5371-0.0312c-0.2061-0.0059-0.1777-0.2071-0.2129-0.3497
			c-0.0371-0.0273-0.081-0.0371-0.125-0.0371c-0.1328,0.002-0.2754,0.1133-0.293,0.2442c0.0303,0.1504,0.1553,0.2969,0.0743,0.4551
			c0.0556,0.2031-0.1524,0.2812-0.294,0.1621c-0.085-0.1934-0.1279-0.4063-0.2558-0.5801
			c-0.1602-0.0449-0.2315,0.2109-0.3438,0.2988c0.0566,0.1524,0.2197,0.2871,0.2373,0.4766
			c0.0381,0.1816-0.0713,0.3847-0.2305,0.4804c-0.1386,0.1309-0.3252,0.084-0.4941,0.1133
			c-0.2051,0.1192,0.1504,0.1641,0.2441,0.168c0.208,0.0215,0.4268-0.0059,0.5811-0.1621c0.1533-0.0742,0.1426-0.3399,0.3252-0.3711
			c0.3183-0.0117,0.6318,0.0508,0.9492,0.0586c0.1709,0.041,0.4336-0.0195,0.5498,0.1055c0.001,0.2226,0.1885,0.3593,0.3701,0.4433
			c0.0987,0.0293,0.2032-0.0937,0.3047-0.1191c0.1934-0.0606,0.1358-0.2989,0.251-0.3926c0.3301-0.0176,0.6621-0.0137,0.9932-0.0195
			c0.0625,0.0019,0.083-0.0879,0.124-0.125c-0.0059-0.127-0.0108-0.2539-0.0303-0.3809
			C61.2368,76.6641,61.311,76.457,61.1948,76.3184z M59.814,77.2501c-0.0069,0.0508,0.0146,0.1191-0.0322,0.1562
			c-0.0147,0.0098-0.0323,0.0215-0.0489,0.0254c-0.0556-0.0156-0.1133-0.0508-0.1386-0.1015
			c-0.0088-0.0703,0.0039-0.1407,0.0068-0.211c-0.0029-0.0175,0.0078-0.0488,0-0.0644c-0.042-0.0293-0.0899-0.0489-0.1455-0.0489
			c-0.168-0.0058-0.335-0.0175-0.5059-0.0253c-0.1406-0.0079-0.2861,0.0117-0.4248-0.0235
			c-0.0527-0.0195-0.123-0.0137-0.1553-0.0703c-0.0478-0.0547,0.0196-0.1191,0.0684-0.1445
			c0.0645-0.0274,0.1318-0.0371,0.1992-0.0352c0.0694,0,0.1348,0.0098,0.2012,0.0176c0.0859,0.0137,0.1777-0.0293,0.2627,0
			c0.1943,0.0332,0.3906,0.0254,0.5869,0.0449c0.0527-0.0019,0.0898,0.0352,0.126,0.0684
			C59.814,76.9746,59.814,77.1133,59.814,77.2501z M60.938,76.9688c-0.0986,0.0371-0.1963,0.0332-0.2305-0.0117
			c-0.0166-0.0215,0.002-0.0879,0.0303-0.1133c0.0596-0.0507,0.1221-0.0879,0.1553-0.0879c0.0322,0,0.0429,0.0118,0.0576,0.0684
			c0.0098,0.0391,0.0195,0.084,0.0254,0.0996C60.9829,76.9492,60.9712,76.957,60.938,76.9688z"/>
		<path class="st0" d="M65.856,53.2052c-0.1348,0.0215-0.2647,0.0312-0.3975,0.0312c-1.3242,0-4.4844-0.7383-5.4062-1.7246
			c-1.0069,0.9375-4.2471,1.7246-5.5088,1.7246c-0.1348,0-0.2686-0.0097-0.3994-0.0293c-0.0323,0.9922-0.0118,7.5332,5.8525,12.0957
			C65.8599,60.7402,65.8872,54.1973,65.856,53.2052z M60.0523,64.838l-0.0567,0.0449L59.938,64.838
			c-2.416-1.9238-4.127-4.5117-4.9453-7.4785c-0.2676-0.9727-0.4365-1.9571-0.5-2.9278c-0.0147-0.2304-0.0332-0.5332-0.0313-0.8359
			l0.002-0.1074l0.1084,0.0195c0.0576,0.0098,0.1074,0.0156,0.1533,0.0156c1.2275,0,4.1328-0.7207,5.2588-1.5742l0.0586-0.0449
			l0.0576,0.0488c1.1143,0.957,4.0244,1.5703,5.1738,1.5703c0.0557,0,0.1104-0.0039,0.1641-0.0058l0.0967-0.0059l0.0019,0.0957
			c0.002,0.2949-0.0166,0.5918-0.0302,0.8184c-0.0664,0.9707-0.2354,1.955-0.502,2.9277
			C64.1831,60.3242,62.4722,62.9122,60.0523,64.838z"/>
		<path class="st4" d="M66.0689,52.9316l-0.126,0.0254c-0.1699,0.0332-0.3223,0.0508-0.4844,0.0508
			c-1.3467,0-4.583-0.7852-5.3076-1.7344l-0.084-0.1093l-0.0937,0.1015c-0.7823,0.8633-4.0479,1.7422-5.4297,1.7422
			c-0.166,0-0.3291-0.0176-0.4844-0.0508l-0.127-0.0273l-0.0107,0.1308v0.0059c-0.0039,0.0469-0.0703,1.1699,0.2119,2.8125
			c0.0986,0.5664,0.2412,1.1934,0.4404,1.8613c0.2002,0.6758,0.4649,1.3867,0.8047,2.1192
			c0.0498,0.1093,0.0996,0.2187,0.1524,0.3281c0.1543,0.3125,0.3252,0.6269,0.5097,0.9414
			c0.0996,0.1719,0.1993,0.3418,0.3086,0.5137c0.2178,0.3418,0.4532,0.6797,0.711,1.0175c0.0508,0.0684,0.1084,0.1329,0.1611,0.1993
			c0.2578,0.3281,0.5371,0.6504,0.8359,0.9707c0.0586,0.0605,0.1211,0.1211,0.1797,0.1836
			c0.2266,0.2324,0.4561,0.4668,0.7071,0.6933c0.0654,0.0586,0.1386,0.1153,0.206,0.1738c0.1338,0.1172,0.2725,0.2344,0.4141,0.3497
			c0.0996,0.082,0.1885,0.1679,0.292,0.248c0.0244,0.0195,0.0449,0.0391,0.0703,0.0586l0.0703,0.0547l0.0703-0.0547
			c0.0274-0.0215,0.0498-0.0449,0.0781-0.0645c0.1035-0.082,0.1934-0.1679,0.293-0.25c0.1416-0.1152,0.2793-0.2304,0.4121-0.3476
			c0.0664-0.0586,0.1397-0.1152,0.2051-0.1738c0.25-0.2266,0.4785-0.459,0.7041-0.6914c0.0596-0.0625,0.123-0.1231,0.1807-0.1836
			c0.2998-0.3204,0.5771-0.6426,0.8349-0.9707c0.0518-0.0664,0.1104-0.1309,0.1611-0.1973
			c0.2588-0.3399,0.4971-0.6816,0.7159-1.0254c0.1093-0.1719,0.209-0.3457,0.3095-0.5176c0.1827-0.3144,0.3536-0.625,0.5049-0.9355
			c0.0537-0.1094,0.1045-0.2188,0.1543-0.3281c0.3399-0.7344,0.6055-1.4473,0.8057-2.1231
			c0.2002-0.6699,0.3428-1.2988,0.4404-1.8652c0.2822-1.6348,0.2168-2.75,0.2129-2.7969v-0.0059L66.0689,52.9316z M59.9966,65.3027
			c-5.8643-4.5625-5.8848-11.1035-5.8525-12.0957c0.1308,0.0196,0.2646,0.0293,0.3994,0.0293c1.2617,0,4.5019-0.7871,5.5088-1.7246
			c0.9218,0.9863,4.082,1.7246,5.4062,1.7246c0.1328,0,0.2627-0.0097,0.3975-0.0312
			C65.8872,54.1973,65.8599,60.7402,59.9966,65.3027z"/>
		<path class="st0" d="M61.9985,53.0899c-0.7734-0.2519-1.4941-0.5703-1.9619-0.9511c-0.5097,0.3671-1.3115,0.6972-2.1601,0.9629
			v9.4472c0.624,0.7559,1.3252,1.461,2.1191,2.1016c0.7461-0.6016,1.4082-1.2598,2.0029-1.9629V53.0899z"/>
		<path class="st4" d="M65.0044,57.3535c0.2666-0.9727,0.4356-1.957,0.502-2.9277c0.0136-0.2266,0.0322-0.5235,0.0302-0.8184
			l-0.0019-0.0957l-0.0967,0.0059c-0.0537,0.0019-0.1084,0.0058-0.1641,0.0058c-1.1494,0-4.0595-0.6133-5.1738-1.5703
			l-0.0576-0.0488l-0.0586,0.0449c-1.126,0.8535-4.0313,1.5742-5.2588,1.5742c-0.0459,0-0.0957-0.0058-0.1533-0.0156l-0.1084-0.0195
			l-0.002,0.1074c-0.0019,0.3027,0.0166,0.6055,0.0313,0.8359c0.0635,0.9707,0.2324,1.9551,0.5,2.9278
			c0.8183,2.9668,2.5293,5.5547,4.9453,7.4785l0.0576,0.0449l0.0567-0.0449C62.4722,62.9122,64.1831,60.3242,65.0044,57.3535z
			 M61.9985,62.6875c-0.5947,0.7031-1.2568,1.3613-2.0029,1.9629c-0.7939-0.6406-1.4951-1.3457-2.1191-2.1016v0.1387
			c-1.292-1.5488-2.2403-3.3516-2.7949-5.3555c-0.2598-0.9472-0.4278-1.9277-0.4922-2.9062
			c-0.0176-0.2617-0.0352-0.5528-0.0303-0.8321c0.0537,0.0098,0.1103,0.0196,0.168,0.0196c0.7031,0,1.9746-0.2383,3.1494-0.6055
			v0.0938c0.8486-0.2657,1.6504-0.5958,2.1601-0.9629c0.4678,0.3808,1.1885,0.6992,1.9619,0.9511v-0.1015
			c1.1924,0.3906,2.5303,0.625,3.2754,0.625c0.0577,0,0.1143-0.002,0.169-0.0059c0.0029,0.2715-0.0127,0.5567-0.0313,0.8125
			c-0.0634,0.9805-0.2324,1.959-0.4922,2.9063c-0.5722,2.0722-1.5595,3.9277-2.9209,5.5136V62.6875z"/>
		<path class="st4" d="M57.8765,53.1017v-0.0938c-1.1748,0.3672-2.4463,0.6055-3.1494,0.6055c-0.0577,0-0.1143-0.0098-0.168-0.0196
			c-0.0049,0.2793,0.0127,0.5704,0.0303,0.8321c0.0644,0.9785,0.2324,1.959,0.4922,2.9062
			c0.5546,2.0039,1.5029,3.8067,2.7949,5.3555v-0.1387V53.1017z"/>
		<path class="st4" d="M64.9194,57.3262c0.2598-0.9473,0.4288-1.9258,0.4922-2.9063c0.0186-0.2558,0.0342-0.541,0.0313-0.8125
			c-0.0547,0.0039-0.1113,0.0059-0.169,0.0059c-0.7451,0-2.083-0.2344-3.2754-0.625v0.1015v9.5977v0.1523
			C63.3599,61.2539,64.3472,59.3984,64.9194,57.3262z"/>
		<path class="st0" d="M57.27,41.9571c0.0137,0,0.0274,0,0.042,0c0.4815,0,1.2881,0.416,1.9727,1.586l0.0429,0.0703l-0.0791-0.0176
			c-0.0039,0-0.2578-0.0566-0.458-0.0566c-0.1279,0-0.1796,0.0234-0.2011,0.0429c-0.041,0.0352-0.0723,0.0703-0.0977,0.1055
			c0.1553,0.7441,0.0352,1.9609-0.3525,3.2422c-0.4278,1.4238-1.4278,2.8261-1.8369,3.3613
			c0.6562-0.1133,1.417-0.5664,1.5439-0.6445c0.8018-0.8985,1.249-4.1172,1.2529-4.1485l0.252,0.0332
			c-0.0195,0.1348-0.46,3.2989-1.3047,4.2696l-0.1953,0.8086c0.6601-0.3594,1.1572-0.8028,1.2207-0.8594
			c0.5537-1.041,0.7305-4.2949,0.7324-4.3281l0.2539,0.0136c-0.0078,0.1328-0.1738,3.2168-0.7305,4.3633l0.6417,0.6738
			c0.2304-0.2793,0.5468-0.5781,0.6669-0.6914c-0.2041-0.791-0.208-4.0742-0.208-4.2187h0.2539c0,0.998,0.0401,3.6758,0.209,4.1973
			c0.0723,0.0722,0.628,0.6054,1.4698,0.7246c-0.0284-0.1211-0.1055-0.3301-0.1817-0.5078l-0.0039,0.0019
			c-0.7637-1.123-0.9463-4.1016-0.9531-4.2285l0.2529-0.0156c0.002,0.0312,0.1856,3.0273,0.9092,4.0957
			c0.2012,0.1875,0.7598,0.3027,1.1894,0.3593c-0.7197-0.8261-1.3164-3.1054-1.2324-4.9863
			c0.0645-1.6269-0.1494-2.4609-0.3691-2.8867c-0.1836-0.1113-0.4531-0.1289-0.5801-0.1289c-0.082,0-0.1338,0.0039-0.1484,0.0058
			c-0.0596,0.0079-0.1114,0.0118-0.1621,0.0157c-0.1329,0.0097-0.2588,0.0195-0.461,0.0703l-0.0459,0.0098
			c-0.126,0.0292-0.2949,0.0683-0.3877,0.1406c-0.0254,0.0215-0.0537,0.0683-0.084,0.1211
			c-0.0586,0.0996-0.123,0.2148-0.2275,0.2148c-0.1768,0-0.2129-0.0351-0.2539-0.0957c-0.0068-0.0117-0.0147-0.0234-0.0234-0.0332
			c-0.0254-0.0312-0.0469-0.0664-0.0655-0.0957c-0.0273-0.0469-0.0586-0.0977-0.083-0.0977
			c-0.2285,0.0411-0.582-0.125-1.0478-0.4921c-0.3672-0.2911-0.545-0.4004-0.9483-0.4004c-0.0664,0-0.1396,0.0019-0.2265,0.0078
			c-0.2891,0.0234-0.4668,0.1191-0.5772,0.2051c-0.04,0.0937-0.0771,0.205-0.1006,0.3359c-0.042,0.2207-0.04,0.4023-0.0215,0.4922
			c0.0196-0.0156,0.0401-0.0235,0.0596-0.0371C56.687,42.3399,56.9058,41.9747,57.27,41.9571z"/>
		<path class="st4" d="M56.2661,49.9277c-0.1894,0.2598-0.3242,0.4278-0.3281,0.4317l-0.1641,0.2011h0.2588
			c0.5928,0,1.3369-0.3672,1.7188-0.5781l-0.2588,1.0762l0.2305-0.1113c0.6757-0.3223,1.2353-0.7774,1.4462-0.959l0.8184,0.8574
			l0.0859-0.1152c0.1944-0.2579,0.542-0.5938,0.7002-0.7442c0.2198,0.1953,0.8291,0.6758,1.6895,0.7539
			c0.0517,0,0.0967-0.0234,0.126-0.0664c0.0224-0.0351,0.0683-0.1074-0.0596-0.4785c0.5166,0.2129,1.3184,0.2715,1.4297,0.2773
			l0.0576-0.2324c-0.1074-0.0488-0.2187-0.164-0.3291-0.3105c-0.0557-0.0723-0.1104-0.1504-0.165-0.2442
			c-0.5381-0.9238-1.0118-2.8007-0.9395-4.4726c0.0879-2.1621-0.3076-3.0293-0.6543-3.377
			C61.5103,41.418,60.2046,41.0508,59.3159,41c-0.208-0.0098-0.3506,0.0449-0.4424,0.1562
			c-0.0459,0.0567-0.0703,0.1172-0.081,0.1719c-0.9863-0.2344-1.7539-0.2383-2.1231,0.0059
			c-0.3418,0.2285-0.457,1.0605-0.3671,1.3574c0.0478,0.1602,0.1533,0.1777,0.1962,0.1777c0.0469,0,0.0909-0.0175,0.1348-0.0527
			c0.168-0.1328,0.3389-0.2012,0.5039-0.2012c0.3946,0,0.7442,0.3867,0.9678,0.711c0.2988,0.4336,0.331,1.7871-0.1982,3.5332
			c-0.3213,1.0722-0.9971,2.1523-1.4659,2.8242C56.3765,49.7774,56.3218,49.8497,56.2661,49.9277z M58.1753,43.2755
			c-0.5254-0.7617-1.0684-0.9473-1.5957-0.5254l-0.0918,0.0742l0.0352-0.1113c0.0039-0.0098,0.0263-0.0742,0.0644-0.1582
			c-0.0195,0.0136-0.04,0.0215-0.0596,0.0371c-0.0185-0.0899-0.0205-0.2715,0.0215-0.4922
			c0.0235-0.1309,0.0606-0.2422,0.1006-0.3359c-0.0713,0.0546-0.1211,0.1074-0.1377,0.1308l-0.0068,0.0254l-0.0195-0.0195
			l-0.0469-0.0215l0.0166-0.043c0.0371-0.1211,0.1211-0.3379,0.2646-0.4297c0.169-0.1113,0.4307-0.1699,0.7754-0.1699
			c0.377,0,0.8516,0.0684,1.376,0.2012c-0.0029-0.0567,0.0059-0.1504,0.0693-0.2246c0.0733-0.0918,0.1953-0.1348,0.3711-0.125
			c0.8731,0.0488,2.1533,0.4062,2.5557,0.8105c0.1269,0.1367,0.2256,0.2969,0.3076,0.4903l0.0195,0.0488h-0.0859l-0.0117-0.0156
			c-0.0313-0.043-0.0772-0.0743-0.125-0.1055c0.2197,0.4258,0.4336,1.2598,0.3691,2.8867c-0.084,1.8809,0.5127,4.1602,1.2324,4.9863
			c-0.4296-0.0566-0.9882-0.1718-1.1894-0.3593c0.001,0,0.0019,0.0039,0.0029,0.0039l-0.208,0.1426
			c0.0762,0.1777,0.1533,0.3867,0.1817,0.5078c-0.8418-0.1192-1.3975-0.6524-1.4698-0.7246c0.002,0.0039,0.003,0.0136,0.0039,0.0175
			l-0.2382,0.086c-0.0079-0.0215-0.0137-0.0528-0.0206-0.0821c-0.1201,0.1133-0.4365,0.4121-0.6669,0.6914l-0.6417-0.6738
			c-0.0126,0.0274-0.0253,0.0567-0.038,0.082l-0.2227-0.121c0.002-0.004,0.0029-0.0079,0.0049-0.0098
			c-0.0635,0.0566-0.5606,0.5-1.2207,0.8594l0.1953-0.8086c-0.0049,0.0058-0.0088,0.0117-0.0137,0.0175l-0.1884-0.1699
			c0.0009,0,0.0019-0.0019,0.0019-0.0019c-0.1269,0.0781-0.8877,0.5312-1.5439,0.6445c0.4091-0.5352,1.4091-1.9375,1.8369-3.3613
			c0.3877-1.2813,0.5078-2.4981,0.3525-3.2422c-0.0303,0.041-0.0517,0.082-0.0586,0.1191c0.0069,0.0371,0.0137,0.0742,0.0176,0.1114
			l-0.0635,0.0234c-0.0049-0.0039-0.0351-0.0527-0.0254-0.1348C58.3208,43.5762,58.2583,43.3965,58.1753,43.2755z"/>
		<path class="st4" d="M59.3511,45.5312l-0.252-0.0332c-0.0039,0.0313-0.4511,3.25-1.2529,4.1485c0,0-0.001,0.0019-0.0019,0.0019
			l0.1884,0.1699c0.0049-0.0058,0.0088-0.0117,0.0137-0.0175C58.8911,48.8302,59.3316,45.666,59.3511,45.5312z"/>
		<path class="st4" d="M60.0581,45.4356l-0.2539-0.0136c-0.0019,0.0332-0.1787,3.2871-0.7324,4.3281
			c-0.002,0.0019-0.0029,0.0058-0.0049,0.0098l0.2227,0.121c0.0127-0.0253,0.0254-0.0546,0.038-0.082
			C59.8843,48.6524,60.0503,45.5684,60.0581,45.4356z"/>
		<path class="st4" d="M60.6821,45.5625h-0.2539c0,0.1445,0.0039,3.4277,0.208,4.2187c0.0069,0.0293,0.0127,0.0606,0.0206,0.0821
			l0.2382-0.086c-0.0009-0.0039-0.0019-0.0136-0.0039-0.0175C60.7222,49.2383,60.6821,46.5606,60.6821,45.5625z"/>
		<path class="st4" d="M61.4751,45.7345L61.2222,45.75c0.0068,0.1269,0.1894,3.1055,0.9531,4.2285l0.0039-0.0019l0.208-0.1426
			c-0.001,0-0.0019-0.0039-0.0029-0.0039C61.6607,48.7617,61.4771,45.7657,61.4751,45.7345z"/>
		<path class="st4" d="M56.6353,42.6212c0.166-0.1074,0.3349-0.1641,0.5019-0.1641c0.3721,0,0.7403,0.2637,1.0967,0.7793
			c0.0742,0.1094,0.1338,0.2578,0.1758,0.4434c0.0303-0.0508,0.0732-0.1016,0.1328-0.1524c0.0439-0.039,0.125-0.0605,0.248-0.0605
			c0.1397,0,0.2998,0.0273,0.3936,0.0449c-0.8711-1.4414-1.7725-1.4844-1.8721-1.4844c-0.0136,0-0.0263,0.002-0.0381,0.002
			C56.9331,42.0449,56.7212,42.4277,56.6353,42.6212z"/>
		<path class="st4" d="M58.3872,43.9414l0.0635-0.0234c-0.0039-0.0372-0.0107-0.0743-0.0176-0.1114
			c0.0069-0.0371,0.0283-0.0781,0.0586-0.1191c0.0254-0.0352,0.0567-0.0703,0.0977-0.1055
			c0.0215-0.0195,0.0732-0.0429,0.2011-0.0429c0.2002,0,0.4541,0.0566,0.458,0.0566l0.0791,0.0176l-0.0429-0.0703
			c-0.6846-1.17-1.4912-1.586-1.9727-1.586c-0.0146,0-0.0283,0-0.042,0c-0.3642,0.0176-0.583,0.3828-0.6826,0.5977
			c-0.0381,0.084-0.0605,0.1484-0.0644,0.1582l-0.0352,0.1113l0.0918-0.0742c0.5273-0.4219,1.0703-0.2363,1.5957,0.5254
			c0.083,0.1211,0.1455,0.3008,0.1865,0.5312C58.3521,43.8887,58.3823,43.9375,58.3872,43.9414z M57.312,42.0274
			c0.0996,0,1.001,0.043,1.8721,1.4844c-0.0938-0.0176-0.2539-0.0449-0.3936-0.0449c-0.123,0-0.2041,0.0215-0.248,0.0605
			c-0.0596,0.0508-0.1025,0.1016-0.1328,0.1524c-0.042-0.1856-0.1016-0.334-0.1758-0.4434
			c-0.3564-0.5156-0.7246-0.7793-1.0967-0.7793c-0.167,0-0.3359,0.0567-0.5019,0.1641c0.0859-0.1934,0.2978-0.5762,0.6386-0.5918
			C57.2857,42.0294,57.2984,42.0274,57.312,42.0274z"/>
		<path class="st4" d="M57.2222,41.4864c0.0879-0.0039,0.1631-0.0078,0.2314-0.0078c0.4239,0,0.6182,0.1211,0.9932,0.416
			c0.4394,0.3496,0.7861,0.5176,0.9922,0.4805l0.0107-0.002c0.0654,0,0.1026,0.0645,0.1436,0.1309
			c0.0185,0.0293,0.0361,0.0605,0.0586,0.0859c0.0127,0.0137,0.0215,0.0274,0.0283,0.0391c0.0264,0.041,0.0449,0.0664,0.1953,0.0664
			c0.0635,0,0.1182-0.0957,0.166-0.1777c0.0352-0.0586,0.0645-0.1133,0.1016-0.1426c0.1035-0.084,0.2842-0.125,0.415-0.1543
			l0.0459-0.0098c0.208-0.0527,0.336-0.0625,0.4707-0.0742c0.0518-0.0039,0.1026-0.0078,0.1612-0.0137
			c0.039-0.0039,0.0986-0.0078,0.1562-0.0078c0.1738,0,0.4609,0.0235,0.6514,0.1563c-0.0645-0.1231-0.1387-0.2305-0.2266-0.3242
			c-0.3857-0.3868-1.665-0.7403-2.5068-0.7891c-0.1494-0.0078-0.2549,0.0254-0.3135,0.0976
			c-0.0742,0.0918-0.0508,0.2208-0.0508,0.2208l0.0108,0.0566l-0.0538-0.0137c-0.538-0.1387-1.0234-0.2129-1.4072-0.2129
			c-0.331,0-0.5781,0.0547-0.7383,0.1602c-0.0673,0.043-0.1328,0.1367-0.1875,0.2637
			C56.6851,41.6309,56.8901,41.5137,57.2222,41.4864z M59.7651,42.3712c-0.1289,0-0.2343-0.1055-0.2343-0.2363
			c0-0.1309,0.1054-0.2344,0.2343-0.2344c0.1299,0,0.2344,0.1035,0.2344,0.2344C59.9995,42.2657,59.895,42.3712,59.7651,42.3712z"/>
		<path class="st4" d="M57.4536,41.5508c0.4033,0,0.5811,0.1093,0.9483,0.4004c0.4658,0.3671,0.8193,0.5332,1.0478,0.4921
			c0.0244,0,0.0557,0.0508,0.083,0.0977c0.0186,0.0293,0.0401,0.0645,0.0655,0.0957c0.0087,0.0098,0.0166,0.0215,0.0234,0.0332
			c0.041,0.0606,0.0771,0.0957,0.2539,0.0957c0.1045,0,0.1689-0.1152,0.2275-0.2148c0.0303-0.0528,0.0586-0.0996,0.084-0.1211
			c0.0928-0.0723,0.2617-0.1114,0.3877-0.1406l0.0459-0.0098c0.2022-0.0508,0.3281-0.0606,0.461-0.0703
			c0.0507-0.0039,0.1025-0.0078,0.1621-0.0157c0.0146-0.0019,0.0664-0.0058,0.1484-0.0058c0.127,0,0.3965,0.0176,0.5801,0.1289
			c0.0478,0.0312,0.0937,0.0625,0.125,0.1055l0.0117,0.0156h0.0859l-0.0195-0.0488c-0.082-0.1934-0.1807-0.3536-0.3076-0.4903
			c-0.4024-0.4043-1.6826-0.7617-2.5557-0.8105c-0.1758-0.0098-0.2978,0.0332-0.3711,0.125
			c-0.0634,0.0742-0.0722,0.1679-0.0693,0.2246c-0.5244-0.1328-0.999-0.2012-1.376-0.2012c-0.3447,0-0.6064,0.0586-0.7754,0.1699
			c-0.1435,0.0918-0.2275,0.3086-0.2646,0.4297l-0.0166,0.043l0.0469,0.0215l0.0195,0.0195l0.0068-0.0254
			c0.0166-0.0234,0.0664-0.0762,0.1377-0.1308c0.1104-0.086,0.2881-0.1817,0.5772-0.2051
			C57.314,41.5527,57.3872,41.5508,57.4536,41.5508z M56.7573,41.4669c0.1602-0.1055,0.4073-0.1602,0.7383-0.1602
			c0.3838,0,0.8692,0.0742,1.4072,0.2129l0.0538,0.0137l-0.0108-0.0566c0,0-0.0234-0.129,0.0508-0.2208
			c0.0586-0.0722,0.1641-0.1054,0.3135-0.0976c0.8418,0.0488,2.1211,0.4023,2.5068,0.7891
			c0.0879,0.0937,0.1621,0.2011,0.2266,0.3242c-0.1905-0.1328-0.4776-0.1563-0.6514-0.1563c-0.0576,0-0.1172,0.0039-0.1562,0.0078
			c-0.0586,0.0059-0.1094,0.0098-0.1612,0.0137c-0.1347,0.0117-0.2627,0.0215-0.4707,0.0742l-0.0459,0.0098
			c-0.1308,0.0293-0.3115,0.0703-0.415,0.1543c-0.0371,0.0293-0.0664,0.084-0.1016,0.1426c-0.0478,0.082-0.1025,0.1777-0.166,0.1777
			c-0.1504,0-0.1689-0.0254-0.1953-0.0664c-0.0068-0.0117-0.0156-0.0254-0.0283-0.0391c-0.0225-0.0254-0.0401-0.0566-0.0586-0.0859
			c-0.041-0.0664-0.0782-0.1309-0.1436-0.1309l-0.0107,0.002c-0.2061,0.0371-0.5528-0.1309-0.9922-0.4805
			c-0.375-0.2949-0.5693-0.416-0.9932-0.416c-0.0683,0-0.1435,0.0039-0.2314,0.0078c-0.3321,0.0274-0.5371,0.1445-0.6524,0.2442
			C56.6245,41.6035,56.69,41.5098,56.7573,41.4669z"/>
		<path class="st0" d="M59.7651,41.9005c-0.1289,0-0.2343,0.1035-0.2343,0.2344c0,0.1308,0.1054,0.2363,0.2343,0.2363
			c0.1299,0,0.2344-0.1055,0.2344-0.2363C59.9995,42.0039,59.895,41.9005,59.7651,41.9005z"/>
	</g>
</g>
</svg>
