<?xml version="1.0" encoding="utf-8"?>
<!-- Generator: Adobe Illustrator 27.6.1, SVG Export Plug-In . SVG Version: 6.00 Build 0)  -->
<svg version="1.1" xmlns="http://www.w3.org/2000/svg" xmlns:xlink="http://www.w3.org/1999/xlink" x="0px" y="0px"
	 viewBox="0 0 120 120" style="enable-background:new 0 0 120 120;" xml:space="preserve">
<style type="text/css">
	.st0{fill:#CAB99F;}
	.st1{fill:#EE3324;}
	.st2{fill:#FFFFFF;}
	.st3{fill:#D1D3D4;}
</style>
<g id="Layer_1">
	<g>
		<g>
			<path class="st0" d="M109.6865,3.2217c3.916,0,7.0908,3.1748,7.0908,7.0908v99.373c0,3.917-3.1748,7.0918-7.0908,7.0918h-99.374
				c-3.916,0-7.0908-3.1748-7.0908-7.0918v-99.373c0-3.916,3.1748-7.0908,7.0908-7.0908H109.6865 M109.6865,0h-99.374
				C4.625,0,0,4.625,0,10.3125v99.373C0,115.373,4.625,120,10.3125,120h99.374C115.374,120,120,115.373,120,109.6855v-99.373
				C120,4.625,115.374,0,109.6865,0L109.6865,0z"/>
		</g>
		<g>
			<polygon class="st1" points="59.998,59.9726 60.0156,59.9629 60.0127,59.9424 59.9932,59.9394 59.9834,59.957 			"/>
			<path class="st1" d="M109.6865,3.2217h-99.374c-3.916,0-7.0908,3.1748-7.0908,7.0908v99.373c0,3.917,3.1748,7.0918,7.0908,7.0918
				h99.374c3.916,0,7.0908-3.1748,7.0908-7.0918v-99.373C116.7773,6.3965,113.6025,3.2217,109.6865,3.2217z M85.9922,57.8965
				c-3.0498,3.7324-10.1338,3.04-12.7295,0.1777c-3.9404-4.3389-10.1709-3.7734-12.6904,0.6807
				c-0.0948,0.3046-0.169,0.6093-0.2305,0.917c0.4941-0.0577,0.9941-0.0752,1.498-0.0557
				c20.9073-3.2949,28.5518,23.1553,11.9151,33.584c2.0664-4.0899,0.2471-7.6006-3.7647-9.1621
				c-4.4912-1.7471-6.0244-8.6973-4.1035-12.0518c2.9092-5.0879,0.4473-10.8379-4.5683-11.8564
				C61,60.1328,60.6855,60.1562,60.376,60.1924c0.2051,0.4521,0.376,0.9209,0.5136,1.4052
				c9.5967,18.8672-13.1982,34.3125-28.2578,21.7129c4.5293,0.7012,7.3057-2.1133,7.5508-6.4121
				c0.2744-4.8125,6.4102-8.416,10.1934-7.6279c5.7383,1.1963,10.4463-2.9238,9.8662-8.0078
				c-0.1016-0.3018-0.2217-0.5928-0.3516-0.877c-0.3662,0.336-0.7607,0.6436-1.1797,0.9238
				c-14.9775,14.9551-36.7099-1.9501-29.3798-20.165c0.7324,4.5225,4.2675,6.294,8.4306,5.1983
				c4.6621-1.2266,9.9854,3.497,10.4053,7.3388c0.6348,5.8262,6.0088,9.0303,10.665,6.9072
				c0.2559-0.1894,0.4951-0.3945,0.7256-0.6064c-0.4326-0.2432-0.8457-0.5225-1.2422-0.833
				C39.46,49.5273,48.8232,23.6318,68.4131,24.9736c-4.0762,2.0947-4.667,6.0039-2.3399,9.625
				c2.6075,4.0537-0.2392,10.5772-3.7636,12.1631c-5.3448,2.4053-6.7325,8.5049-3.2744,12.2773
				c0.2597,0.1866,0.5283,0.3506,0.8017,0.5039c0.0977-0.4863,0.2354-0.9658,0.4092-1.4384
				c3.3252-20.9063,30.8457-20.0039,35.624-0.958C92.6172,53.917,88.7168,54.5635,85.9922,57.8965z"/>
			<path class="st2" d="M54.1113,52.5517c-1.0615-3.8769-0.4502-8.0429,1.6797-11.4306l0.4424,0.2783
				c-2.0547,3.2617-2.6426,7.2783-1.6191,11.0166c0.7656,2.7822,2.3789,5.1689,4.4209,6.623
				c-3.4581-3.7724-2.0704-9.872,3.2744-12.2773c3.5244-1.5859,6.3711-8.1094,3.7636-12.1631
				c-2.3271-3.6211-1.7363-7.5303,2.3399-9.625C48.8232,23.6318,39.46,49.5273,58.3154,59.1494
				C56.3643,57.6142,54.8672,55.3037,54.1113,52.5517z M56.8945,35.9873l1.6182,1.498l2.0527-0.8076l-0.9218,2.0029l1.4013,1.7022
				l-2.1914-0.2578l-1.1846,1.8594l-0.4296-2.1641l-2.1377-0.5527l1.9277-1.0782L56.8945,35.9873z"/>
			<polygon class="st1" points="57.2393,39.8203 57.6689,41.9844 58.8535,40.125 61.0449,40.3828 59.6436,38.6806 60.5654,36.6777 
				58.5127,37.4853 56.8945,35.9873 57.0293,38.1894 55.1016,39.2676 			"/>
			<polygon class="st1" points="59.9932,59.9394 59.96,59.9345 59.9834,59.957 			"/>
			<path class="st1" d="M59.7813,59.7861c0.0146-0.082,0.039-0.1621,0.0556-0.2432c-0.2734-0.1533-0.542-0.3173-0.8017-0.5039
				c-2.042-1.4541-3.6553-3.8408-4.4209-6.623c-1.0235-3.7383-0.4356-7.7549,1.6191-11.0166l-0.4424-0.2783
				c-2.1299,3.3877-2.7412,7.5537-1.6797,11.4306c0.7559,2.752,2.253,5.0625,4.2041,6.5977
				c0.3965,0.3105,0.8096,0.5898,1.2422,0.833C59.6299,59.916,59.7109,59.8554,59.7813,59.7861z"/>
			<path class="st2" d="M60.2461,58.1045c0.8564-2.3311,2.5918-4.4698,4.9746-6.0371c3.3604-2.208,7.5107-2.9151,11.3926-1.9366
				l-0.1299,0.5069c-3.7363-0.9453-7.7393-0.2627-10.9756,1.8652c-2.4111,1.5869-4.1836,3.8613-4.9355,6.252
				c2.5195-4.4541,8.75-5.0196,12.6904-0.6807c2.5957,2.8623,9.6797,3.5547,12.7295-0.1777c2.7246-3.333,6.625-3.9795,9.8779-0.75
				C91.0918,38.1006,63.5713,37.1982,60.2461,58.1045z M80.1211,53.04l-1.1846,1.8604l-0.4297-2.1641l-2.1347-0.5518l1.9238-1.0771
				l-0.1338-2.2021l1.6201,1.498l2.0528-0.8086l-0.9258,2.0029l1.4033,1.7012L80.1211,53.04z"/>
			<polygon class="st1" points="81.835,49.5947 79.7822,50.4033 78.1621,48.9053 78.2959,51.1074 76.3721,52.1845 78.5068,52.7363 
				78.9365,54.9004 80.1211,53.04 82.3125,53.2988 80.9092,51.5976 			"/>
			<path class="st1" d="M65.5078,52.5029c3.2363-2.1279,7.2393-2.8105,10.9756-1.8652l0.1299-0.5069
				c-3.8819-0.9785-8.0322-0.2714-11.3926,1.9366c-2.3828,1.5673-4.1182,3.706-4.9746,6.0371
				c-0.1738,0.4726-0.3115,0.9521-0.4092,1.4384c-0.0166,0.0811-0.041,0.1612-0.0556,0.2432
				c0.0048-0.0058,0.0117-0.0098,0.0166-0.0146l0.1621,0.163l0.0332,0.0049l0.0195,0.003l-0.0371-0.2373
				c0.1201-0.0186,0.2451-0.0196,0.3662-0.0332c0.0615-0.3077,0.1357-0.6124,0.2305-0.917
				C61.3242,56.3642,63.0967,54.0898,65.5078,52.5029z"/>
			<path class="st2" d="M74.4775,72.7178l-0.5224,0.0351c-0.2559-3.8457-2.1406-7.4414-5.166-9.8633
				c-2.2549-1.8027-4.9639-2.7842-7.4707-2.7597c5.0156,1.0185,7.4775,6.7685,4.5683,11.8564
				c-1.9209,3.3545-0.3877,10.3047,4.1035,12.0518c4.0118,1.5615,5.8311,5.0722,3.7647,9.1621
				c16.6367-10.4287,8.9922-36.8789-11.9151-33.584c2.4815,0.0967,5.0489,1.0859,7.2745,2.8662
				C72.2529,64.9951,74.207,68.7246,74.4775,72.7178z M76.6006,77.5195l-2.1904-0.2607l-1.1846,1.8603l-0.4317-2.1621
				l-2.1337-0.5547l1.9228-1.0771l-0.1338-2.2022l1.6201,1.4981l2.0528-0.8076l-0.9248,2.0039L76.6006,77.5195z"/>
			<polygon class="st1" points="74.0693,74.6211 72.4492,73.123 72.583,75.3252 70.6602,76.4023 72.7939,76.957 73.2256,79.1191 
				74.4102,77.2588 76.6006,77.5195 75.1973,75.8174 76.1221,73.8135 			"/>
			<path class="st1" d="M59.9756,59.7051l0.0371,0.2373l0.0029,0.0205l0.2139-0.1084c0.0547,0.1103,0.0947,0.2265,0.1465,0.3379
				c0.3095-0.0362,0.624-0.0596,0.9424-0.0625c2.5068-0.0245,5.2158,0.957,7.4707,2.7597c3.0254,2.4219,4.9101,6.0176,5.166,9.8633
				l0.5224-0.0351c-0.2705-3.9932-2.2246-7.7227-5.3632-10.2354c-2.2256-1.7803-4.793-2.7695-7.2745-2.8662
				c-0.5039-0.0195-1.0039-0.002-1.498,0.0557C60.2207,59.6855,60.0957,59.6865,59.9756,59.7051z"/>
			<path class="st2" d="M60.4131,69.4053c-1.4199,3.7617-4.3643,6.7724-8.0781,8.2626l-0.1934-0.4863
				c3.5772-1.4316,6.4141-4.3359,7.7822-7.9609c1.0176-2.7002,1.1153-5.5811,0.3184-7.958c0.5801,5.084-4.1279,9.2041-9.8662,8.0078
				c-3.7832-0.7881-9.919,2.8154-10.1934,7.6279c-0.2451,4.2988-3.0215,7.1133-7.5508,6.4121
				c15.0596,12.5996,37.8545-2.8457,28.2578-21.7129C61.5654,63.9873,61.418,66.7363,60.4131,69.4053z M49.6104,79.3115
				l-1.1856,1.8584l-0.4277-2.1631l-2.1377-0.5527l1.9258-1.0772l-0.1348-2.2021l1.6201,1.4971l2.0518-0.8077l-0.9248,2.003
				l1.4052,1.7041L49.6104,79.3115z"/>
			<polygon class="st1" points="51.3223,75.8642 49.2705,76.6719 47.6504,75.1748 47.7852,77.3769 45.8594,78.4541 47.9971,79.0068 
				48.4248,81.1699 49.6104,79.3115 51.8027,79.5713 50.3975,77.8672 			"/>
			<path class="st1" d="M60.2295,59.8545l-0.2139,0.1084l-0.0176,0.0097l0.169,0.17c-0.0869,0.0859-0.1865,0.1601-0.2764,0.2431
				c0.1299,0.2842,0.25,0.5752,0.3516,0.877c0.7969,2.3769,0.6992,5.2578-0.3184,7.958c-1.3681,3.625-4.205,6.5293-7.7822,7.9609
				l0.1934,0.4863c3.7138-1.4902,6.6582-4.5009,8.0781-8.2626c1.0049-2.669,1.1523-5.418,0.4765-7.8077
				c-0.1376-0.4843-0.3085-0.9531-0.5136-1.4052C60.3242,60.081,60.2842,59.9648,60.2295,59.8545z"/>
			<path class="st2" d="M51.1406,63.2676c-4.0166-0.1875-7.79-2.0557-10.3545-5.1299l0.4014-0.334
				c2.4678,2.9609,6.1064,4.7617,9.9775,4.9443c2.8829,0.1319,5.6524-0.667,7.667-2.1592
				c-4.6562,2.1231-10.0302-1.081-10.665-6.9072c-0.4199-3.8418-5.7432-8.5654-10.4053-7.3388
				c-4.1631,1.0957-7.6982-0.6758-8.4306-5.1983c-7.3301,18.2149,14.4023,35.1201,29.3798,20.165
				C56.6475,62.6904,53.9893,63.4004,51.1406,63.2676z M38.8115,58.2207l-0.4316-2.166l-2.1348-0.5518l1.9268-1.0762l-0.1358-2.2031
				l1.6202,1.4961l2.0527-0.8057l-0.9229,2.003l1.4024,1.7031l-2.1914-0.2607L38.8115,58.2207z"/>
			<polygon class="st1" points="40.7861,54.917 41.709,52.914 39.6563,53.7197 38.0361,52.2236 38.1719,54.4267 36.2451,55.5029 
				38.3799,56.0547 38.8115,58.2207 39.9971,56.3594 42.1885,56.6201 			"/>
			<path class="st1" d="M60.167,60.1426l-0.169-0.17l-0.0146-0.0156L59.96,59.9345l-0.1621-0.163
				c-0.0049,0.0048-0.0118,0.0088-0.0166,0.0146c-0.0704,0.0693-0.1514,0.1299-0.2237,0.1963
				c-0.2305,0.2119-0.4697,0.417-0.7256,0.6064c-2.0146,1.4922-4.7841,2.2911-7.667,2.1592
				c-3.8711-0.1826-7.5097-1.9834-9.9775-4.9443l-0.4014,0.334c2.5645,3.0742,6.3379,4.9424,10.3545,5.1299
				c2.8487,0.1328,5.5069-0.5772,7.5703-1.9581c0.419-0.2802,0.8135-0.5878,1.1797-0.9238
				C59.9805,60.3027,60.0801,60.2285,60.167,60.1426z"/>
		</g>
	</g>
</g>
<g id="Layer_2">
	<path class="st3" d="M109.6865,3.2227c3.916,0,7.0908,3.1748,7.0908,7.0908v99.372c0,3.919-3.1748,7.0918-7.0908,7.0918h-99.374
		c-3.916,0-7.0908-3.1728-7.0908-7.0918v-99.372c0-3.916,3.1748-7.0908,7.0908-7.0908H109.6865 M109.6865,0h-99.374
		C4.625,0,0,4.625,0,10.3135v99.372C0,115.373,4.625,120,10.3125,120h99.374C115.374,120,120,115.373,120,109.6855v-99.372
		C120,4.625,115.374,0,109.6865,0L109.6865,0z"/>
</g>
</svg>
