<?xml version="1.0" encoding="utf-8"?>
<!-- Generator: Adobe Illustrator 27.6.1, SVG Export Plug-In . SVG Version: 6.00 Build 0)  -->
<svg version="1.1" xmlns="http://www.w3.org/2000/svg" xmlns:xlink="http://www.w3.org/1999/xlink" x="0px" y="0px"
	 viewBox="0 0 120 120" style="enable-background:new 0 0 120 120;" xml:space="preserve">
<style type="text/css">
	.st0{fill:#CAB99F;}
	.st1{fill:#233F91;}
	.st2{fill:#FFFFFF;}
	.st3{fill:#EE2D29;}
	.st4{fill:#D1D3D4;}
</style>
<g id="Layer_1">
	<g>
		<g>
			<path class="st0" d="M109.6865,3.2227c3.916,0,7.0908,3.1748,7.0908,7.0908v99.372c0,3.919-3.1748,7.0918-7.0908,7.0918h-99.374
				c-3.916,0-7.0908-3.1728-7.0908-7.0918v-99.372c0-3.916,3.1748-7.0908,7.0908-7.0908H109.6865 M109.6865,0h-99.374
				C4.625,0,0,4.625,0,10.3135v99.372C0,115.373,4.625,120,10.3125,120h99.374C115.374,120,120,115.373,120,109.6855v-99.372
				C120,4.625,115.374,0,109.6865,0L109.6865,0z"/>
		</g>
		<g>
			<path class="st1" d="M3.2217,73.334v36.3515c0,3.919,3.1748,7.0918,7.0908,7.0918h24.1729V73.334H3.2217z"/>
			<path class="st1" d="M34.4854,3.2227H10.3125c-3.916,0-7.0908,3.1748-7.0908,7.0908V46.668h31.2637V3.2227z"/>
			<path class="st1" d="M61.1533,116.7773h48.5332c3.916,0,7.0908-3.1728,7.0908-7.0918V73.334h-55.624V116.7773z"/>
			<path class="st1" d="M109.6865,3.2227H61.1533V46.668h55.624V10.3135C116.7773,6.3975,113.6025,3.2227,109.6865,3.2227z"/>
			<polygon class="st2" points="54.4863,116.7773 61.1533,116.7773 61.1533,73.334 116.7773,73.334 116.7773,66.666 54.4863,66.666 
							"/>
			<polygon class="st2" points="61.1533,3.2227 54.4863,3.2227 54.4863,53.334 116.7773,53.334 116.7773,46.668 61.1533,46.668 			
				"/>
			<polygon class="st2" points="41.1523,3.2227 34.4854,3.2227 34.4854,46.668 3.2217,46.668 3.2217,53.334 41.1523,53.334 			"/>
			<polygon class="st2" points="3.2217,66.666 3.2217,73.334 34.4854,73.334 34.4854,116.7773 41.1523,116.7773 41.1523,66.666 			
				"/>
			<polygon class="st3" points="54.4863,3.2227 41.1523,3.2227 41.1523,53.334 3.2217,53.334 3.2217,66.666 41.1523,66.666 
				41.1523,116.7773 54.4863,116.7773 54.4863,66.666 116.7773,66.666 116.7773,53.334 54.4863,53.334 			"/>
		</g>
	</g>
</g>
<g id="Layer_2">
	<path class="st4" d="M109.6865,3.2227c3.916,0,7.0908,3.1748,7.0908,7.0908v99.372c0,3.919-3.1748,7.0918-7.0908,7.0918h-99.374
		c-3.916,0-7.0908-3.1728-7.0908-7.0918v-99.372c0-3.916,3.1748-7.0908,7.0908-7.0908H109.6865 M109.6865,0h-99.374
		C4.625,0,0,4.625,0,10.3135v99.372C0,115.373,4.625,120,10.3125,120h99.374C115.374,120,120,115.373,120,109.6855v-99.372
		C120,4.625,115.374,0,109.6865,0L109.6865,0z"/>
</g>
</svg>
