<?xml version="1.0" encoding="utf-8"?>
<!-- Generator: Adobe Illustrator 27.6.1, SVG Export Plug-In . SVG Version: 6.00 Build 0)  -->
<svg version="1.1" xmlns="http://www.w3.org/2000/svg" xmlns:xlink="http://www.w3.org/1999/xlink" x="0px" y="0px"
	 viewBox="0 0 120 120" style="enable-background:new 0 0 120 120;" xml:space="preserve">
<style type="text/css">
	.st0{fill:#CAB99F;}
	.st1{fill:#FFFFFF;}
	.st2{fill:#0E8943;}
	.st3{fill:#2A2D7C;}
	.st4{fill:#F89928;}
	.st5{fill:#D1D3D4;}
</style>
<g id="Layer_1">
	<g>
		<g>
			<path class="st0" d="M109.6865,3.2227c3.916,0,7.0908,3.1748,7.0908,7.0908v99.372c0,3.919-3.1748,7.0918-7.0908,7.0918h-99.374
				c-3.916,0-7.0908-3.1728-7.0908-7.0918v-99.372c0-3.916,3.1748-7.0908,7.0908-7.0908H109.6865 M109.6865,0h-99.374
				C4.625,0,0,4.625,0,10.3135v99.372C0,115.373,4.625,120,10.3125,120h99.374C115.374,120,120,115.373,120,109.6855v-99.372
				C120,4.625,115.374,0,109.6865,0L109.6865,0z"/>
		</g>
		<g>
			<path class="st1" d="M57.9219,61.8301c-0.1006-0.1094-0.1924-0.2256-0.2735-0.3506l-2.2617,1.6943l-7.5205,3.7871l7.041-4.6191
				l2.5996-1.1123c-0.0683-0.1318-0.1259-0.2686-0.1718-0.4111l-2.6241,1.0527l-8.2431,1.7109l7.9931-2.6406l2.7998-0.4004
				c-0.0302-0.1426-0.0478-0.291-0.0556-0.4433l-2.8086,0.3378l-8.4072-0.4804c0,0.3808,0.0156,0.7597,0.0468,1.1328
				c0.376-0.0391,0.7178,0.2266,0.7676,0.6074c0.0498,0.375-0.2129,0.7207-0.5879,0.7793c0.1367,0.7549,0.335,1.4844,0.5869,2.1914
				c0.3526-0.1387,0.7539,0.0313,0.9014,0.3828c0.1455,0.3535-0.0186,0.7559-0.3672,0.9082
				c0.3252,0.6875,0.7061,1.3438,1.1358,1.9629c0.3066-0.2226,0.7353-0.164,0.9668,0.1367
				c0.2324,0.3028,0.1787,0.7325-0.1143,0.9707c0.2441,0.2891,0.5,0.5684,0.7676,0.834l5.6054-6.2832L57.9219,61.8301z"/>
			<path class="st1" d="M3.2217,79.9707h113.5556V39.9395H3.2217V79.9707z M60,43.9434c8.8438,0,16.0117,7.1699,16.0117,16.0117
				c0,8.8437-7.1679,16.0137-16.0117,16.0137c-8.8437,0-16.0117-7.17-16.0117-16.0137C43.9883,51.1133,51.1563,43.9434,60,43.9434z"
				/>
			<path class="st1" d="M46.0361,58.8223c-0.0312,0.373-0.0468,0.7519-0.0468,1.1328l8.4072-0.4785l2.8086,0.3369
				c0.0078-0.1514,0.0254-0.2998,0.0556-0.4444l-2.7998-0.4003l-7.9931-2.6387l8.2431,1.7109l2.6241,1.0508
				c0.0459-0.1426,0.1035-0.2773,0.1718-0.4102l-2.5996-1.1132l-7.041-4.6192l7.5205,3.7871l2.2617,1.6953
				c0.0811-0.125,0.1729-0.2402,0.2735-0.3515l-2.2237-1.7481l-5.6054-6.2812c-0.2676,0.2656-0.5235,0.5449-0.7676,0.832
				c0.293,0.2383,0.3467,0.668,0.1143,0.9717c-0.2315,0.2998-0.6602,0.3603-0.9668,0.1377
				c-0.4297,0.6191-0.8077,1.2754-1.1358,1.9609c0.3486,0.1543,0.5127,0.5547,0.3672,0.9082
				c-0.1475,0.3535-0.5488,0.5215-0.9014,0.3828c-0.2519,0.709-0.4502,1.4395-0.5869,2.1914
				c0.375,0.0586,0.6377,0.4043,0.5879,0.7813C46.7539,58.5977,46.4121,58.8613,46.0361,58.8223z"/>
			<path class="st1" d="M59.8564,62.75c-0.1513-0.0078-0.2978-0.0234-0.4414-0.0547l-0.4013,2.7969l-2.6407,7.9961l1.7129-8.2442
				l1.0508-2.623c-0.1416-0.0469-0.2803-0.1055-0.4121-0.1719l-1.1103,2.5996l-4.6192,7.0391l3.7862-7.5195l1.6962-2.2637
				c-0.125-0.0801-0.2441-0.1719-0.3525-0.2715l-1.7471,2.2246l-6.2851,5.6035c0.2676,0.2696,0.5459,0.5254,0.8349,0.7696
				c0.2383-0.295,0.667-0.3477,0.9688-0.1172c0.3027,0.2343,0.3623,0.6621,0.1387,0.9687c0.6201,0.4278,1.2753,0.8106,1.9628,1.1348
				c0.1543-0.3447,0.5567-0.5108,0.9092-0.3652c0.3526,0.1464,0.5205,0.5468,0.3828,0.9003
				c0.7061,0.252,1.4375,0.4522,2.1895,0.5879c0.0586-0.375,0.4053-0.6386,0.7832-0.5898c0.3769,0.0527,0.6436,0.3945,0.6025,0.7695
				c0.375,0.0293,0.752,0.0449,1.1348,0.0449l-0.4814-8.4062L59.8564,62.75z"/>
			<path class="st1" d="M60.1436,57.1602c0.1503,0.0078,0.2978,0.0253,0.4414,0.0546l0.4013-2.7968l2.6407-7.9961l-1.7129,8.2441
				l-1.0518,2.625c0.1426,0.0449,0.2813,0.1035,0.4121,0.1719l1.1113-2.6016l4.6202-7.039l-3.7871,7.5195l-1.6963,2.2646
				c0.125,0.0821,0.2441,0.1709,0.3525,0.2706l1.748-2.2227l6.2842-5.6035c-0.2676-0.2695-0.5459-0.5254-0.8349-0.7715
				c-0.2383,0.2949-0.669,0.3477-0.9688,0.1182c-0.3037-0.2334-0.3623-0.6612-0.1396-0.9678
				C67.3447,48,66.6895,47.6191,66.002,47.293c-0.1524,0.3476-0.5567,0.5117-0.9092,0.3652
				c-0.3526-0.1445-0.5215-0.5469-0.3838-0.9004c-0.7041-0.2519-1.4365-0.4492-2.1895-0.5859
				c-0.0576,0.375-0.4033,0.6386-0.7822,0.5859c-0.3779-0.0488-0.6435-0.3906-0.6035-0.7676
				c-0.374-0.0293-0.751-0.0468-1.1338-0.0468l0.4805,8.4062L60.1436,57.1602z"/>
			<path class="st1" d="M58.125,57.877c0.1084-0.0997,0.2275-0.1885,0.3525-0.2706l-1.6962-2.2646l-3.7862-7.5195l4.6192,7.039
				l1.1103,2.6016c0.1318-0.0684,0.2705-0.127,0.4121-0.1719l-1.0508-2.625l-1.7129-8.2441l2.6407,7.9961l0.4013,2.7968
				c0.1436-0.0293,0.2901-0.0468,0.4414-0.0546l-0.3378-2.8106L60,45.9434c-0.3828,0-0.7598,0.0175-1.1348,0.0468
				c0.0411,0.377-0.2256,0.7188-0.6025,0.7676c-0.3789,0.0527-0.7246-0.2109-0.7832-0.5859
				c-0.752,0.1367-1.4834,0.334-2.1895,0.5859c0.1377,0.3535-0.0302,0.7559-0.3828,0.9004
				c-0.3525,0.1465-0.7568-0.0176-0.9092-0.3652c-0.6875,0.3261-1.3427,0.707-1.9628,1.1367
				c0.2236,0.3066,0.164,0.7344-0.1387,0.9678c-0.3018,0.2295-0.7305,0.1767-0.9688-0.1182
				c-0.289,0.2461-0.5673,0.502-0.8349,0.7715l6.2851,5.6035L58.125,57.877z"/>
			<path class="st1" d="M61.875,62.0332c-0.1084,0.0996-0.2275,0.1914-0.3525,0.2715l1.6963,2.2637l3.7871,7.5195l-4.6202-7.0391
				l-1.1113-2.5996c-0.1308,0.0664-0.2695,0.125-0.4121,0.1719l1.0518,2.623l1.7129,8.2442l-2.6407-7.9961l-0.4013-2.7969
				c-0.1436,0.0313-0.2911,0.0469-0.4414,0.0547l0.3369,2.8086L60,73.9648c0.3828,0,0.7598-0.0156,1.1338-0.0429
				c-0.04-0.377,0.2256-0.7188,0.6035-0.7715c0.3789-0.0488,0.7246,0.2148,0.7822,0.5898c0.753-0.1357,1.4854-0.3339,2.1895-0.5879
				c-0.1358-0.3535,0.0312-0.7539,0.3838-0.9003c0.3525-0.1456,0.7568,0.0205,0.9092,0.3652
				c0.6875-0.3242,1.3427-0.707,1.9619-1.1348c-0.2227-0.3066-0.1641-0.7344,0.1396-0.9687
				c0.2998-0.2305,0.7305-0.1778,0.9688,0.1172c0.289-0.2442,0.5673-0.5,0.8349-0.7696l-6.2842-5.6035L61.875,62.0332z"/>
			<path class="st1" d="M62.0762,58.0801c0.1015,0.1113,0.1924,0.2265,0.2754,0.3515l2.2617-1.6953l7.5205-3.7871l-7.041,4.6192
				l-2.5996,1.1132c0.0683,0.1329,0.1259,0.2676,0.1718,0.4102l2.6231-1.0508l8.2441-1.7109l-7.9931,2.6387l-2.7998,0.4003
				c0.0302,0.1446,0.0478,0.293,0.0556,0.4444l2.8086-0.3369l8.4072,0.4785c0-0.3809-0.0156-0.7598-0.0468-1.1328
				c-0.376,0.039-0.7178-0.2246-0.7676-0.6055c-0.0508-0.377,0.2129-0.7227,0.5879-0.7813
				c-0.1377-0.7519-0.335-1.4824-0.5869-2.1914c-0.3526,0.1387-0.7539-0.0293-0.9014-0.3828
				c-0.1445-0.3535,0.0186-0.7539,0.3662-0.9082c-0.3271-0.6855-0.7051-1.3418-1.1348-1.9609
				c-0.3076,0.2226-0.7353,0.1621-0.9668-0.1377c-0.2324-0.3037-0.1787-0.7334,0.1153-0.9717
				c-0.2461-0.2871-0.501-0.5664-0.7686-0.832l-5.6054,6.2812L62.0762,58.0801z"/>
			<path class="st1" d="M62.7949,60.0977c-0.0078,0.1523-0.0254,0.3007-0.0556,0.4433l2.7998,0.4004l7.9931,2.6406l-8.2441-1.7109
				l-2.6231-1.0527c-0.0459,0.1425-0.1035,0.2793-0.1718,0.4111l2.5996,1.1123l7.041,4.6191l-7.5205-3.7871l-2.2617-1.6943
				c-0.083,0.125-0.1739,0.2412-0.2754,0.3506l2.2256,1.748l5.6054,6.2832c0.2676-0.2656,0.5225-0.5449,0.7686-0.834
				c-0.294-0.2382-0.3477-0.6679-0.1153-0.9707c0.2315-0.3007,0.6592-0.3593,0.9668-0.1367
				c0.4297-0.6191,0.8077-1.2754,1.1348-1.9629c-0.3476-0.1523-0.5107-0.5547-0.3662-0.9082
				c0.1475-0.3535,0.5479-0.5215,0.9014-0.3828c0.2519-0.707,0.4492-1.4365,0.5869-2.1914
				c-0.375-0.0586-0.6387-0.4043-0.5879-0.7793c0.0498-0.3808,0.3916-0.6465,0.7676-0.6074
				c0.0312-0.3731,0.0468-0.752,0.0468-1.1328l-8.4072,0.4804L62.7949,60.0977z"/>
			<path class="st2" d="M3.2217,109.6855c0,3.919,3.1748,7.0918,7.0908,7.0918h99.374c3.916,0,7.0908-3.1728,7.0908-7.0918V79.9707
				H3.2217V109.6855z"/>
			<path class="st3" d="M60,75.9688c8.8438,0,16.0117-7.17,16.0117-16.0137c0-8.8418-7.1679-16.0117-16.0117-16.0117
				c-8.8437,0-16.0117,7.1699-16.0117,16.0117C43.9883,68.7988,51.1563,75.9688,60,75.9688z M46.2158,57.4355
				c0.1367-0.7519,0.335-1.4824,0.5869-2.1914c0.3526,0.1387,0.7539-0.0293,0.9014-0.3828
				c0.1455-0.3535-0.0186-0.7539-0.3672-0.9082c0.3281-0.6855,0.7061-1.3418,1.1358-1.9609
				c0.3066,0.2226,0.7353,0.1621,0.9668-0.1377c0.2324-0.3037,0.1787-0.7334-0.1143-0.9717c0.2441-0.2871,0.5-0.5664,0.7676-0.832
				c0.2676-0.2695,0.5459-0.5254,0.8349-0.7715c0.2383,0.2949,0.667,0.3477,0.9688,0.1182
				c0.3027-0.2334,0.3623-0.6612,0.1387-0.9678C52.6553,48,53.3105,47.6191,53.998,47.293
				c0.1524,0.3476,0.5567,0.5117,0.9092,0.3652c0.3526-0.1445,0.5205-0.5469,0.3828-0.9004
				c0.7061-0.2519,1.4375-0.4492,2.1895-0.5859c0.0586,0.375,0.4043,0.6386,0.7832,0.5859
				c0.3769-0.0488,0.6436-0.3906,0.6025-0.7676c0.375-0.0293,0.752-0.0468,1.1348-0.0468s0.7598,0.0175,1.1338,0.0468
				c-0.04,0.377,0.2256,0.7188,0.6035,0.7676c0.3789,0.0527,0.7246-0.2109,0.7822-0.5859c0.753,0.1367,1.4854,0.334,2.1895,0.5859
				c-0.1377,0.3535,0.0312,0.7559,0.3838,0.9004c0.3525,0.1465,0.7568-0.0176,0.9092-0.3652
				c0.6875,0.3261,1.3427,0.707,1.9619,1.1367c-0.2227,0.3066-0.1641,0.7344,0.1396,0.9678
				c0.2998,0.2295,0.7305,0.1767,0.9688-0.1182c0.289,0.2461,0.5673,0.502,0.8349,0.7715c0.2676,0.2656,0.5225,0.5449,0.7686,0.832
				c-0.294,0.2383-0.3477,0.668-0.1153,0.9717c0.2315,0.2998,0.6592,0.3603,0.9668,0.1377
				c0.4297,0.6191,0.8077,1.2754,1.1348,1.9609c-0.3476,0.1543-0.5107,0.5547-0.3662,0.9082
				c0.1475,0.3535,0.5488,0.5215,0.9014,0.3828c0.2519,0.709,0.4492,1.4395,0.5869,2.1914
				c-0.375,0.0586-0.6387,0.4043-0.5879,0.7813c0.0498,0.3809,0.3916,0.6445,0.7676,0.6055
				c0.0312,0.373,0.0468,0.7519,0.0468,1.1328c0,0.3808-0.0156,0.7597-0.0468,1.1328c-0.376-0.0391-0.7178,0.2266-0.7676,0.6074
				c-0.0508,0.375,0.2129,0.7207,0.5879,0.7793c-0.1377,0.7549-0.335,1.4844-0.5869,2.1914
				c-0.3535-0.1387-0.7539,0.0293-0.9014,0.3828c-0.1445,0.3535,0.0186,0.7559,0.3662,0.9082
				c-0.3271,0.6875-0.7051,1.3438-1.1348,1.9629c-0.3076-0.2226-0.7353-0.164-0.9668,0.1367
				c-0.2324,0.3028-0.1787,0.7325,0.1153,0.9707c-0.2461,0.2891-0.501,0.5684-0.7686,0.834
				c-0.2676,0.2696-0.5459,0.5254-0.8349,0.7696c-0.2383-0.295-0.669-0.3477-0.9688-0.1172
				c-0.3037,0.2343-0.3623,0.6621-0.1396,0.9687c-0.6192,0.4278-1.2744,0.8106-1.9619,1.1348
				c-0.1524-0.3447-0.5567-0.5108-0.9092-0.3652c-0.3526,0.1464-0.5196,0.5468-0.3838,0.9003
				c-0.7041,0.254-1.4365,0.4522-2.1895,0.5879c-0.0576-0.375-0.4033-0.6386-0.7822-0.5898
				c-0.3779,0.0527-0.6435,0.3945-0.6035,0.7715c-0.374,0.0273-0.751,0.0429-1.1338,0.0429s-0.7598-0.0156-1.1348-0.0449
				c0.0411-0.375-0.2256-0.7168-0.6025-0.7695c-0.3779-0.0488-0.7246,0.2148-0.7832,0.5898
				c-0.752-0.1357-1.4834-0.3359-2.1895-0.5879c0.1377-0.3535-0.0302-0.7539-0.3828-0.9003
				c-0.3525-0.1456-0.7549,0.0205-0.9092,0.3652c-0.6875-0.3242-1.3427-0.707-1.9628-1.1348
				c0.2236-0.3066,0.164-0.7344-0.1387-0.9687c-0.3018-0.2305-0.7305-0.1778-0.9688,0.1172c-0.289-0.2442-0.5673-0.5-0.8349-0.7696
				c-0.2676-0.2656-0.5235-0.5449-0.7676-0.834c0.293-0.2382,0.3467-0.6679,0.1143-0.9707
				c-0.2315-0.3007-0.6602-0.3593-0.9668-0.1367c-0.4297-0.6191-0.8106-1.2754-1.1358-1.9629
				c0.3486-0.1523,0.5127-0.5547,0.3672-0.9082c-0.1475-0.3515-0.5488-0.5215-0.9014-0.3828
				c-0.2519-0.707-0.4502-1.4365-0.5869-2.1914c0.375-0.0586,0.6377-0.4043,0.5879-0.7793
				c-0.0498-0.3808-0.3916-0.6465-0.7676-0.6074c-0.0312-0.3731-0.0468-0.752-0.0468-1.1328c0-0.3809,0.0156-0.7598,0.0468-1.1328
				c0.376,0.039,0.7178-0.2246,0.7676-0.6055C46.8535,57.8398,46.5908,57.4941,46.2158,57.4355z"/>
			<path class="st3" d="M57.9219,58.0801c-0.1006,0.1113-0.1924,0.2265-0.2735,0.3515l-2.2617-1.6953l-7.5205-3.7871l7.041,4.6192
				l2.5996,1.1132c-0.0683,0.1329-0.1259,0.2676-0.1718,0.4102l-2.6241-1.0508l-8.2431-1.7109l7.9931,2.6387l2.7998,0.4003
				c-0.0302,0.1446-0.0478,0.293-0.0556,0.4444l-2.8086-0.3369l-8.4072,0.4785l8.4072,0.4804l2.8086-0.3378
				c0.0078,0.1523,0.0254,0.3007,0.0556,0.4433l-2.7998,0.4004l-7.9931,2.6406l8.2431-1.7109l2.6241-1.0527
				c0.0459,0.1425,0.1035,0.2793,0.1718,0.4111l-2.5996,1.1123l-7.041,4.6191l7.5205-3.7871l2.2617-1.6943
				c0.0811,0.125,0.1729,0.2412,0.2735,0.3506l-2.2237,1.748l-5.6054,6.2832l6.2851-5.6035l1.7471-2.2246
				c0.1084,0.0996,0.2275,0.1914,0.3525,0.2715l-1.6962,2.2637l-3.7862,7.5195l4.6192-7.0391l1.1103-2.5996
				c0.1318,0.0664,0.2705,0.125,0.4121,0.1719l-1.0508,2.623l-1.7129,8.2442l2.6407-7.9961l0.4013-2.7969
				c0.1436,0.0313,0.2901,0.0469,0.4414,0.0547l-0.3378,2.8086L60,73.9648l0.4805-8.4062L60.1436,62.75
				c0.1503-0.0078,0.2978-0.0234,0.4414-0.0547l0.4013,2.7969l2.6407,7.9961l-1.7129-8.2442l-1.0518-2.623
				c0.1426-0.0469,0.2813-0.1055,0.4121-0.1719l1.1113,2.5996l4.6202,7.0391l-3.7871-7.5195l-1.6963-2.2637
				c0.125-0.0801,0.2441-0.1719,0.3525-0.2715l1.748,2.2246l6.2842,5.6035l-5.6054-6.2832l-2.2256-1.748
				c0.1015-0.1094,0.1924-0.2256,0.2754-0.3506l2.2617,1.6943l7.5205,3.7871l-7.041-4.6191l-2.5996-1.1123
				c0.0683-0.1318,0.1259-0.2686,0.1718-0.4111l2.6231,1.0527l8.2441,1.7109l-7.9931-2.6406l-2.7998-0.4004
				c0.0302-0.1426,0.0478-0.291,0.0556-0.4433l2.8086,0.3378l8.4072-0.4804l-8.4072-0.4785l-2.8086,0.3369
				c-0.0078-0.1514-0.0254-0.2998-0.0556-0.4444l2.7998-0.4003l7.9931-2.6387l-8.2441,1.7109l-2.6231,1.0508
				c-0.0459-0.1426-0.1035-0.2773-0.1718-0.4102l2.5996-1.1132l7.041-4.6192l-7.5205,3.7871l-2.2617,1.6953
				c-0.083-0.125-0.1739-0.2402-0.2754-0.3515l2.2256-1.7481l5.6054-6.2812l-6.2842,5.6035l-1.748,2.2227
				c-0.1084-0.0997-0.2275-0.1885-0.3525-0.2706l1.6963-2.2646l3.7871-7.5195l-4.6202,7.039l-1.1113,2.6016
				c-0.1308-0.0684-0.2695-0.127-0.4121-0.1719l1.0518-2.625l1.7129-8.2441l-2.6407,7.9961l-0.4013,2.7968
				c-0.1436-0.0293-0.2911-0.0468-0.4414-0.0546l0.3369-2.8106L60,45.9434l-0.4814,8.4062l0.3378,2.8106
				c-0.1513,0.0078-0.2978,0.0253-0.4414,0.0546l-0.4013-2.7968l-2.6407-7.9961l1.7129,8.2441l1.0508,2.625
				c-0.1416,0.0449-0.2803,0.1035-0.4121,0.1719l-1.1103-2.6016l-4.6192-7.039l3.7862,7.5195l1.6962,2.2646
				c-0.125,0.0821-0.2441,0.1709-0.3525,0.2706l-1.7471-2.2227l-6.2851-5.6035l5.6054,6.2812L57.9219,58.0801z"/>
			<path class="st4" d="M109.6865,3.2227h-99.374c-3.916,0-7.0908,3.1748-7.0908,7.0908v29.626h113.5556v-29.626
				C116.7773,6.3975,113.6025,3.2227,109.6865,3.2227z"/>
		</g>
	</g>
</g>
<g id="Layer_2">
	<path class="st5" d="M109.6865,3.2227c3.916,0,7.0908,3.1748,7.0908,7.0908v99.372c0,3.919-3.1748,7.0918-7.0908,7.0918h-99.374
		c-3.916,0-7.0908-3.1728-7.0908-7.0918v-99.372c0-3.916,3.1748-7.0908,7.0908-7.0908H109.6865 M109.6865,0h-99.374
		C4.625,0,0,4.625,0,10.3135v99.372C0,115.373,4.625,120,10.3125,120h99.374C115.374,120,120,115.373,120,109.6855v-99.372
		C120,4.625,115.374,0,109.6865,0L109.6865,0z"/>
</g>
</svg>
