<?xml version="1.0" encoding="utf-8"?>
<!-- Generator: Adobe Illustrator 27.6.1, SVG Export Plug-In . SVG Version: 6.00 Build 0)  -->
<svg version="1.1" xmlns="http://www.w3.org/2000/svg" xmlns:xlink="http://www.w3.org/1999/xlink" x="0px" y="0px"
	 viewBox="0 0 120 120" style="enable-background:new 0 0 120 120;" xml:space="preserve">
<style type="text/css">
	.st0{fill:#CAB99E;}
	.st1{fill:#FFFFFF;}
	.st2{fill:#0035BC;}
	.st3{fill:#D1D3D4;}
</style>
<g id="Layer_1">
	<g>
		<g>
			<path class="st0" d="M109.6865,3.2217c3.916,0,7.0908,3.1748,7.0908,7.0908v99.373c0,3.917-3.1748,7.0918-7.0908,7.0918h-99.374
				c-3.916,0-7.0908-3.1748-7.0908-7.0918v-99.373c0-3.916,3.1748-7.0908,7.0908-7.0908H109.6865 M109.6865,0h-99.374
				C4.625,0,0,4.625,0,10.3125v99.373C0,115.373,4.625,120,10.3125,120h99.374C115.374,120,120,115.373,120,109.6855v-99.373
				C120,4.625,115.374,0,109.6865,0L109.6865,0z"/>
		</g>
		<g>
			<path class="st1" d="M3.2217,109.6855c0,3.917,3.1748,7.0918,7.0908,7.0918h99.374c3.916,0,7.0908-3.1748,7.0908-7.0918v-0.8281
				H3.2217V109.6855z"/>
			<polygon class="st1" points="44.5215,68.997 50.2168,68.997 47.3691,64.0644 			"/>
			<polygon class="st1" points="60,42.1855 57.1514,47.1191 62.8486,47.1191 			"/>
			<path class="st1" d="M3.2217,90.0888h113.5556V30.0293H3.2217V90.0888z M52.5293,47.1191L60,34.1787l7.4707,12.9404h14.9424
				l-7.4707,12.9404l7.4707,12.9415H67.4707L60,85.9414L52.5293,73.001H37.585l7.4726-12.9415L37.585,47.1191H52.5293z"/>
			<path class="st1" d="M109.6865,3.2217h-99.374c-3.916,0-7.0908,3.1748-7.0908,7.0908v0.9482h113.5556v-0.9482
				C116.7773,6.3965,113.6025,3.2217,109.6865,3.2217z"/>
			<polygon class="st1" points="50.2168,51.123 44.5215,51.123 47.3691,56.0566 			"/>
			<polygon class="st1" points="54.8398,68.997 65.1602,68.997 70.3193,60.0595 65.1602,51.123 54.8398,51.123 49.6807,60.0595 			
				"/>
			<polygon class="st1" points="75.4785,51.123 69.7832,51.123 72.6309,56.0566 			"/>
			<polygon class="st1" points="69.7832,68.997 75.4785,68.997 72.6309,64.0644 			"/>
			<polygon class="st1" points="60,77.9345 62.8477,73.001 57.1514,73.001 			"/>
			<rect x="3.2217" y="11.2607" class="st2" width="113.5556" height="18.7686"/>
			<rect x="3.2217" y="90.0888" class="st2" width="113.5556" height="18.7686"/>
			<path class="st2" d="M37.585,73.001h14.9443L60,85.9414l7.4707-12.9404h14.9424l-7.4707-12.9415l7.4707-12.9404H67.4707
				L60,34.1787l-7.4707,12.9404H37.585l7.4726,12.9404L37.585,73.001z M44.5215,68.997l2.8476-4.9326l2.8477,4.9326H44.5215z
				 M60,77.9345l-2.8486-4.9335h5.6963L60,77.9345z M75.4785,68.997h-5.6953l2.8477-4.9326L75.4785,68.997z M75.4785,51.123
				l-2.8476,4.9336l-2.8477-4.9336H75.4785z M60,42.1855l2.8486,4.9336h-5.6972L60,42.1855z M54.8398,51.123h10.3204l5.1591,8.9365
				l-5.1591,8.9375H54.8398l-5.1591-8.9375L54.8398,51.123z M44.5215,51.123h5.6953l-2.8477,4.9336L44.5215,51.123z"/>
		</g>
	</g>
</g>
<g id="Layer_2">
	<g id="Layer_2_00000008151020972403519510000017401608398655629208_">
		<path class="st3" d="M109.6865,3.2227c3.916,0,7.0908,3.1748,7.0908,7.0908v99.372c0,3.919-3.1748,7.0918-7.0908,7.0918h-99.374
			c-3.916,0-7.0908-3.1728-7.0908-7.0918v-99.372c0-3.916,3.1748-7.0908,7.0908-7.0908L109.6865,3.2227 M109.6865,0h-99.374
			C4.625,0,0,4.625,0,10.3135v99.372C0,115.373,4.625,120,10.3125,120h99.374C115.374,120,120,115.373,120,109.6855v-99.372
			C120,4.625,115.374,0,109.6865,0L109.6865,0z"/>
	</g>
</g>
</svg>
