<?xml version="1.0" encoding="utf-8"?>
<!-- Generator: Adobe Illustrator 27.6.1, SVG Export Plug-In . SVG Version: 6.00 Build 0)  -->
<svg version="1.1" xmlns="http://www.w3.org/2000/svg" xmlns:xlink="http://www.w3.org/1999/xlink" x="0px" y="0px"
	 viewBox="0 0 120 120" style="enable-background:new 0 0 120 120;" xml:space="preserve">
<style type="text/css">
	.st0{fill:#CAB99E;}
	.st1{fill:#FFFFFF;}
	.st2{fill:#DB002A;}
	.st3{fill:#D1D3D4;}
</style>
<g id="Layer_1">
	<g>
		<g>
			<path class="st0" d="M109.6865,3.2217c3.916,0,7.0908,3.1748,7.0908,7.0908v99.373c0,3.917-3.1748,7.0918-7.0908,7.0918h-99.374
				c-3.916,0-7.0908-3.1748-7.0908-7.0918v-99.373c0-3.916,3.1748-7.0908,7.0908-7.0908H109.6865 M109.6865,0h-99.374
				C4.625,0,0,4.625,0,10.3125v99.373C0,115.373,4.625,120,10.3125,120h99.374C115.374,120,120,115.373,120,109.6855v-99.373
				C120,4.625,115.374,0,109.6865,0L109.6865,0z"/>
		</g>
		<g>
			<path class="st1" d="M109.6865,3.2217h-99.374c-3.916,0-7.0908,3.1748-7.0908,7.0908v99.373c0,3.917,3.1748,7.0918,7.0908,7.0918
				h99.374c3.916,0,7.0908-3.1748,7.0908-7.0918v-99.373C116.7773,6.3965,113.6025,3.2217,109.6865,3.2217z M60,96
				c-19.8828,0-36-16.1172-36-36s16.1172-36,36-36s36,16.1172,36,36S79.8828,96,60,96z"/>
			<circle class="st2" cx="60" cy="60" r="36"/>
		</g>
	</g>
</g>
<g id="Layer_2">
	<g id="Layer_2_00000008151020972403519510000017401608398655629208_">
		<path class="st3" d="M109.6865,3.2227c3.916,0,7.0908,3.1748,7.0908,7.0908v99.372c0,3.919-3.1748,7.0918-7.0908,7.0918h-99.374
			c-3.916,0-7.0908-3.1728-7.0908-7.0918v-99.372c0-3.916,3.1748-7.0908,7.0908-7.0908L109.6865,3.2227 M109.6865,0h-99.374
			C4.625,0,0,4.625,0,10.3135v99.372C0,115.373,4.625,120,10.3125,120h99.374C115.374,120,120,115.373,120,109.6855v-99.372
			C120,4.625,115.374,0,109.6865,0L109.6865,0z"/>
	</g>
</g>
</svg>
