<?xml version="1.0" encoding="utf-8"?>
<!-- Generator: Adobe Illustrator 27.6.1, SVG Export Plug-In . SVG Version: 6.00 Build 0)  -->
<svg version="1.1" xmlns="http://www.w3.org/2000/svg" xmlns:xlink="http://www.w3.org/1999/xlink" x="0px" y="0px"
	 viewBox="0 0 120 120" style="enable-background:new 0 0 120 120;" xml:space="preserve">
<style type="text/css">
	.st0{fill:#CAB99E;}
	.st1{clip-path:url(#SVGID_00000180326642899650786390000004794784595519747502_);}
	.st2{fill:#00B0CB;}
	.st3{fill:#FFC500;}
	.st4{fill:#D1D3D4;}
</style>
<g id="Layer_1">
	<g>
		<g>
			<path class="st0" d="M109.6865,3.2227c3.916,0,7.0908,3.1748,7.0908,7.0908v99.372c0,3.919-3.1748,7.0918-7.0908,7.0918h-99.374
				c-3.916,0-7.0908-3.1728-7.0908-7.0918v-99.372c0-3.916,3.1748-7.0908,7.0908-7.0908H109.6865 M109.6865,0h-99.374
				C4.625,0,0,4.625,0,10.3135v99.372C0,115.373,4.625,120,10.3125,120h99.374C115.374,120,120,115.373,120,109.6855v-99.372
				C120,4.625,115.374,0,109.6865,0L109.6865,0z"/>
		</g>
		<g>
			<defs>
				<path id="SVGID_1_" d="M116.7773,109.6855c0,3.919-3.1748,7.0918-7.0908,7.0918h-99.374c-3.916,0-7.0908-3.1728-7.0908-7.0918
					v-99.372c0-3.916,3.1748-7.0908,7.0908-7.0908h99.374c3.916,0,7.0908,3.1748,7.0908,7.0908V109.6855z"/>
			</defs>
			<clipPath id="SVGID_00000162328302440882981000000008956896839604858809_">
				<use xlink:href="#SVGID_1_"  style="overflow:visible;"/>
			</clipPath>
			<g style="clip-path:url(#SVGID_00000162328302440882981000000008956896839604858809_);">
				<g>
					<rect x="-1.1006" y="0.207" class="st2" width="123.9219" height="119.9649"/>
				</g>
				<g>
					<g>
						<g>
							<path class="st3" d="M67.7539,34.4512c8.9131,0,16.1416,7.2265,16.1416,16.1406c0,8.916-7.2285,16.1426-16.1416,16.1426
								c-8.916,0-16.1416-7.2266-16.1416-16.1426C51.6123,41.6777,58.8379,34.4512,67.7539,34.4512z"/>
						</g>
					</g>
					<g id="r4_40_">
						<g id="r_160_">
							<g>
								<path class="st3" d="M67.7539,32.25c0.96-0.0117,1.3193-0.6133,1.3193-1.332c0-0.959-1.3193-5.5293-1.3193-5.5293
									s-1.3193,4.5703-1.3193,5.5293C66.4346,31.6367,66.7939,32.25,67.7539,32.25z"/>
							</g>
						</g>
						<g transform="rotate(90)">
							<g id="r_159_">
								<g>
									<path class="st3" d="M86.0957,50.5918c0.0127,0.9609,0.6133,1.3203,1.332,1.3203c0.959,0,5.5303-1.3203,5.5303-1.3203
										s-4.5713-1.3184-5.5303-1.3184C86.709,49.2734,86.0957,49.6328,86.0957,50.5918z"/>
								</g>
							</g>
						</g>
						<g transform="rotate(180)">
							<g id="r_158_">
								<g>
									<path class="st3" d="M67.7539,68.9355c-0.96,0.0118-1.3193,0.6114-1.3193,1.3321c0,0.959,1.3193,5.5293,1.3193,5.5293
										s1.3193-4.5703,1.3193-5.5293C69.0732,69.5469,68.7139,68.9355,67.7539,68.9355z"/>
								</g>
							</g>
						</g>
						<g transform="rotate(270)">
							<g id="r_157_">
								<g>
									<path class="st3" d="M49.4111,50.5918c-0.0127-0.959-0.6123-1.3184-1.331-1.3184c-0.961,0-5.5293,1.3184-5.5293,1.3184
										s4.5683,1.3203,5.5293,1.3203C48.7988,51.9121,49.4111,51.5527,49.4111,50.5918z"/>
								</g>
							</g>
						</g>
					</g>
					<g id="r4_39_">
						<g id="r_156_">
							<g>
								<path class="st3" d="M74.7725,33.6445c0.8916,0.3575,1.4541-0.0586,1.7285-0.7226
									c0.3681-0.8867,0.8974-5.6153,0.8974-5.6153s-2.9677,3.7168-3.3349,4.6036C73.7881,32.5762,73.8848,33.2773,74.7725,33.6445
									z"/>
							</g>
						</g>
						<g transform="rotate(90)">
							<g id="r_155_">
								<g>
									<path class="st3" d="M84.6992,57.6133c-0.3554,0.8906,0.0606,1.4531,0.7256,1.7265
										c0.8867,0.3672,5.6152,0.8985,5.6152,0.8985s-3.7187-2.9688-4.6054-3.336C85.7695,56.627,85.0674,56.7246,84.6992,57.6133z
										"/>
								</g>
							</g>
						</g>
						<g transform="rotate(180)">
							<g id="r_154_">
								<g>
									<path class="st3" d="M60.7334,67.5391c-0.8916-0.3555-1.4531,0.0605-1.7285,0.7246
										c-0.3672,0.8867-0.8965,5.6152-0.8965,5.6152s2.9678-3.7168,3.335-4.6055C61.7188,68.6094,61.6211,67.9063,60.7334,67.5391
										z"/>
								</g>
							</g>
						</g>
						<g transform="rotate(22.5)">
							<g id="r_153_">
								<g>
									<path class="st3" d="M50.8066,43.5723c0.3555-0.8907-0.0595-1.4532-0.7246-1.7285
										c-0.8877-0.3672-5.6123-0.8965-5.6123-0.8965s3.7149,2.9687,4.6026,3.3359C49.7373,44.5586,50.4395,44.459,50.8066,43.5723
										z"/>
								</g>
							</g>
						</g>
					</g>
					<g id="r4_38_">
						<g id="r_152_">
							<g>
								<path class="st3" d="M80.7236,37.623c0.6866,0.67,1.3653,0.5,1.875-0.0078c0.6778-0.6797,2.9766-4.8457,2.9766-4.8457
									s-4.165,2.2989-4.8428,2.9766C80.2236,36.2559,80.0459,36.9453,80.7236,37.623z"/>
							</g>
						</g>
						<g transform="rotate(90)">
							<g id="r_151_">
								<g>
									<path class="st3" d="M80.7236,63.5635c-0.6699,0.6865-0.5,1.3642,0.0088,1.875c0.6778,0.6787,4.8428,2.9775,4.8428,2.9775
										s-2.2988-4.166-2.9766-4.8437C82.0889,63.0635,81.4023,62.8848,80.7236,63.5635z"/>
								</g>
							</g>
						</g>
						<g transform="rotate(180)">
							<g id="r_150_">
								<g>
									<path class="st3" d="M54.7832,63.5635c-0.6865-0.6709-1.3652-0.5-1.874,0.0088c-0.6797,0.6777-2.9785,4.8437-2.9785,4.8437
										s4.166-2.2988,4.8437-2.9775C55.2842,64.9277,55.4619,64.2422,54.7832,63.5635z"/>
								</g>
							</g>
						</g>
						<g transform="rotate(45)">
							<g id="r_149_">
								<g>
									<path class="st3" d="M54.7832,37.623c0.6689-0.6875,0.501-1.3671-0.0088-1.8769
										c-0.6777-0.6777-4.8437-2.9766-4.8437-2.9766s2.2988,4.166,2.9785,4.8457C53.418,38.123,54.1045,38.3008,54.7832,37.623z"
										/>
								</g>
							</g>
						</g>
					</g>
					<g id="r16_10_">
						<g id="r4_37_">
							<g id="r_148_">
								<g>
									<path class="st3" d="M84.6992,43.5723c0.3789,0.8828,1.0703,0.9863,1.7354,0.7109
										c0.8867-0.3672,4.6054-3.3359,4.6054-3.3359s-4.7285,0.5293-5.6152,0.8965C84.7598,42.1191,84.332,42.6855,84.6992,43.5723
										z"/>
								</g>
							</g>
							<g transform="rotate(90)">
								<g id="r_147_">
									<g>
										<path class="st3" d="M74.7725,67.5391c-0.8809,0.3789-0.9844,1.0703-0.709,1.7343
											c0.3672,0.8887,3.3349,4.6055,3.3349,4.6055s-0.5293-4.7285-0.8974-5.6152
											C76.2266,67.5996,75.6592,67.1719,74.7725,67.5391z"/>
									</g>
								</g>
							</g>
							<g transform="rotate(180)">
								<g id="r_146_">
									<g>
										<path class="st3" d="M50.8066,57.6133c-0.3779-0.8838-1.0693-0.9863-1.7343-0.711
											c-0.8877,0.3672-4.6026,3.336-4.6026,3.336s4.7246-0.5313,5.6123-0.8985C50.7471,59.0664,51.1738,58.498,50.8066,57.6133z
											"/>
									</g>
								</g>
							</g>
							<g transform="rotate(67.5)">
								<g id="r_145_">
									<g>
										<path class="st3" d="M60.7334,33.6445c0.8828-0.3769,0.9854-1.0683,0.71-1.7343c-0.3672-0.8868-3.335-4.6036-3.335-4.6036
											s0.5293,4.7286,0.8965,5.6153C59.2803,33.5859,59.8467,34.0137,60.7334,33.6445z"/>
									</g>
								</g>
							</g>
						</g>
					</g>
					<g id="r4_36_">
						<g id="r_144_">
							<g>
								<path class="st3" d="M71.3311,32.6045c0.9443,0.1728,1.414-0.3447,1.5546-1.0498c0.1875-0.9414-0.2148-5.6817-0.2148-5.6817
									s-2.1865,4.2247-2.374,5.1661C70.1572,31.7441,70.3906,32.416,71.3311,32.6045z"/>
							</g>
						</g>
						<g transform="rotate(90)">
							<g id="r_143_">
								<g>
									<path class="st3" d="M85.7441,54.1719c-0.1767,0.9414,0.3418,1.4121,1.0489,1.5527
										c0.9404,0.1875,5.6806-0.2148,5.6806-0.2148s-4.2246-2.1875-5.1679-2.375C86.6016,52.998,85.9297,53.2314,85.7441,54.1719z
										"/>
								</g>
							</g>
						</g>
						<g transform="rotate(180)">
							<g id="r_142_">
								<g>
									<path class="st3" d="M64.1758,68.584c-0.9453-0.1758-1.4141,0.3418-1.5557,1.0469
										c-0.1855,0.9414,0.2168,5.6826,0.2168,5.6826s2.1846-4.2256,2.3721-5.166C65.3496,69.4395,65.1152,68.7725,64.1758,68.584z
										"/>
								</g>
							</g>
						</g>
						<g transform="rotate(270)">
							<g id="r_141_">
								<g>
									<path class="st3" d="M49.7627,47.0137c0.1758-0.9434-0.3428-1.4141-1.0488-1.5528
										c-0.9395-0.1875-5.6787,0.2149-5.6787,0.2149s4.2236,2.1855,5.165,2.373C48.9063,48.1895,49.5762,47.9551,49.7627,47.0137z
										"/>
								</g>
							</g>
						</g>
					</g>
					<g id="r4_35_">
						<g id="r_140_">
							<g>
								<path class="st3" d="M77.9443,35.3418c0.8047,0.5215,1.4356,0.2227,1.836-0.373c0.5342-0.7989,1.9756-5.334,1.9756-5.334
									s-3.6368,3.0683-4.169,3.8672C77.1865,34.0996,77.1465,34.8086,77.9443,35.3418z"/>
							</g>
						</g>
						<g transform="rotate(90)">
							<g id="r_139_">
								<g>
									<path class="st3" d="M83.0059,60.7832c-0.5254,0.8047-0.2246,1.4375,0.372,1.8379
										c0.7989,0.5312,5.3321,1.9746,5.3321,1.9746s-3.0664-3.6367-3.8653-4.1699
										C84.2471,60.0254,83.5381,59.9844,83.0059,60.7832z"/>
								</g>
							</g>
						</g>
						<g transform="rotate(180)">
							<g id="r_138_">
								<g>
									<path class="st3" d="M57.5635,65.8438c-0.8057-0.5215-1.4375-0.2227-1.8379,0.373
										c-0.5332,0.7988-1.9746,5.334-1.9746,5.334s3.6357-3.0684,4.1689-3.8672C58.3193,67.0859,58.3613,66.377,57.5635,65.8438z"
										/>
								</g>
							</g>
						</g>
						<g transform="rotate(22.5)">
							<g id="r_137_">
								<g>
									<path class="st3" d="M52.501,40.4023c0.5244-0.8046,0.2246-1.4375-0.3731-1.8378c-0.7978-0.5332-5.332-1.9747-5.332-1.9747
										s3.0684,3.6368,3.8662,4.17C51.2598,41.1582,51.9688,41.2012,52.501,40.4023z"/>
								</g>
							</g>
						</g>
					</g>
					<g id="sun_5_" transform="translate(1080.4716,420)">
						<g id="r4_34_">
							<g id="r_136_">
								<g>
									<path class="st3" d="M83.0059,40.4023c0.542,0.7891,1.2412,0.7559,1.8388,0.3575c0.7989-0.5332,3.8653-4.17,3.8653-4.17
										s-4.5332,1.4415-5.3321,1.9747C82.7813,38.9648,82.4707,39.6045,83.0059,40.4023z"/>
								</g>
							</g>
							<g transform="rotate(90)">
								<g id="r_135_">
									<g>
										<path class="st3" d="M77.9443,65.8438c-0.7929,0.5429-0.7578,1.2421-0.3574,1.8398
											c0.5322,0.7988,4.169,3.8672,4.169,3.8672s-1.4414-4.5352-1.9756-5.334C79.3799,65.6211,78.7422,65.3135,77.9443,65.8438z
											"/>
									</g>
								</g>
							</g>
							<g transform="rotate(180)">
								<g id="r_134_">
									<g>
										<path class="st3" d="M52.501,60.7832c-0.541-0.791-1.2412-0.7578-1.8389-0.3574
											c-0.7978,0.5332-3.8662,4.1699-3.8662,4.1699s4.5342-1.4434,5.332-1.9746C52.7256,62.2207,53.0352,61.5801,52.501,60.7832
											z"/>
									</g>
								</g>
							</g>
							<g transform="rotate(45)">
								<g id="r_133_">
									<g>
										<path class="st3" d="M57.5635,35.3418c0.79-0.5449,0.7558-1.2422,0.3564-1.8398
											c-0.5332-0.7989-4.1689-3.8672-4.1689-3.8672s1.4414,4.5351,1.9746,5.334C56.126,35.5645,56.7656,35.875,57.5635,35.3418z
											"/>
									</g>
								</g>
							</g>
						</g>
						<g id="r16_9_">
							<g id="r4_33_">
								<g id="r_132_">
									<g>
										<path class="st3" d="M85.7441,47.0137c0.1983,0.9394,0.8575,1.1758,1.5616,1.0351
											c0.9433-0.1875,5.1679-2.373,5.1679-2.373s-4.7402-0.4024-5.6806-0.2149C86.0859,45.5996,85.5566,46.0723,85.7441,47.0137
											z"/>
									</g>
								</g>
								<g transform="rotate(90)">
									<g id="r_131_">
										<g>
											<path class="st3" d="M71.3311,68.584c-0.9375,0.1973-1.1739,0.8555-1.0342,1.5635c0.1875,0.9404,2.374,5.166,2.374,5.166
												s0.4023-4.7412,0.2148-5.6826C72.7451,68.9258,72.2734,68.3945,71.3311,68.584z"/>
										</g>
									</g>
								</g>
								<g transform="rotate(180)">
									<g id="r_130_">
										<g>
											<path class="st3" d="M49.7627,54.1719c-0.1982-0.9395-0.8564-1.1739-1.5625-1.0371
												c-0.9414,0.1875-5.165,2.375-5.165,2.375s4.7392,0.4023,5.6787,0.2148C49.4199,55.584,49.9502,55.1113,49.7627,54.1719z"
												/>
										</g>
									</g>
								</g>
								<g transform="rotate(11.25)">
									<g id="r_129_">
										<g>
											<path class="st3" d="M64.1758,32.6045c0.9385-0.2002,1.1738-0.8604,1.0332-1.5654
												c-0.1875-0.9414-2.3721-5.1661-2.3721-5.1661s-0.4023,4.7403-0.2168,5.6817
												C62.7617,32.2598,63.2334,32.7891,64.1758,32.6045z"/>
										</g>
									</g>
								</g>
							</g>
						</g>
					</g>
					<g id="bird_5_">
						<g>
							<g>
								<path class="st3" d="M64.873,85.5586c-0.4316,0.0234-0.8525,0.0801-1.2636,0.2109
									c-0.5635,0.0762-1.1026,0.2735-1.6631,0.3653l-0.2236,0.0351l-0.377,0.0371c0.0264,0.1035,0.042,0.2071,0.042,0.3106
									c0,0.1094-0.0117,0.2138-0.042,0.3008c-0.0225,0.0839-0.0996,0.1875-0.1592,0.2519
									c-0.0801,0.0879-0.165,0.1641-0.2636,0.2129c-0.0967,0.0469-0.2041,0.0664-0.3125,0.0742
									c-0.1075,0.0039-0.2198,0-0.3243-0.039c-0.1084-0.0352-0.207-0.1036-0.2988-0.1836
									c-0.1113,0.0273-0.2285,0.0468-0.3359,0.0586c-0.1133,0.0136-0.2168,0.0136-0.3164,0
									C59.2217,87.1621,59.1064,87.127,59,87.082c-0.1084-0.0429-0.2129-0.0996-0.3125-0.164
									c-0.4072,0.2402-0.8643,0.4668-1.1123,0.8886c-0.1387,0.1914-0.168,0.4102-0.1992,0.6387
									c-0.0196,0.2793,0.0517,0.5772,0.1719,0.836c0.0439,0.0761,0.08-0.2754,0.2158-0.3243
									c0.2275-0.1875,0.5127-0.3242,0.7988-0.4004c0.2441-0.123,0.2129,0.0079,0.1133,0.2012
									c-0.0235,0.0996-0.1602,0.4805,0.0234,0.2871c0.8125-0.3594,1.711-0.4316,2.5879-0.5
									c1.2715-0.1308,2.5469-0.1601,3.8213-0.1758c1.2012,0.0157,2.4014,0.0313,3.6006,0.0762
									c0.5723,0.0156,1.1465,0.1445,1.7109,0.0488c0.1367-0.0371,0.3477-0.0449,0.4287-0.125
									c-0.2568-0.1484-0.5556-0.1523-0.8398-0.1875h-2.2881c-0.6367-0.0625-1.2998-0.0703-1.8984-0.3105
									c-0.1612-0.0645-0.3086-0.2168-0.461-0.0527c-0.2275,0.0791-0.4707,0.1367-0.7109,0.1523
									c-0.4209,0.0313-0.8408-0.0566-1.2285-0.2129c0.2802-0.3867,0.6142-0.7265,0.9238-1.0879
									c-0.248-0.039-0.4883-0.0918-0.7363-0.1523C64.0459,86.2188,64.4492,85.8789,64.873,85.5586z"/>
							</g>
						</g>
						<g>
							<g>
								<path class="st3" d="M83.5557,89.7031c-0.8682,0.5215-1.5323-0.4043-2.2578-0.6806
									c-0.5196,0.2802-0.5674,1.2236-1.0528,1.6689c-0.5801,0.6602-1.291-0.1836-1.2373-0.835
									c-0.6953,0.585-1.0449,1.9112-2.168,1.7334c-0.5302-0.4335-0.9257-1.3437-1.331-0.3066
									c-0.332,0.5059-1.2129,1.2266-1.6699,0.4609c-0.1407-0.6738-0.4805-1.4687-0.8477-0.3964
									c-0.2519,0.7597-1.0605,1.3164-1.8437,0.9843c-0.4297-0.3496,0.3427-1.6465-0.2032-1.5527
									c-0.8144,0.5371-1.29,1.877-2.4277,1.7695c-0.4414-0.4961,0.2676-1.3359-0.2178-1.8867
									c-0.5722,0.7354-1.205,1.8086-2.1963,1.8867c-0.4775-0.3867,0.0196-1.498-0.2871-1.6621
									c-1.0136,0.6074-2.0859,1.6934-3.3633,1.3535c0.4961-1.9043,2.5762-2.5722,4.3272-2.7207
									c3.0078-0.3691,6.1758,0.3106,9.0713-0.7754c0.4678-0.2851,1.6015-0.6894,1.1982-1.3496
									c-0.3574-0.5215,0.9297-0.3183,1.0537-0.9257c-0.0771-0.7715,0.5918-0.6661,1.2432-0.7344
									c2.9248-0.125,5.8125,0.4902,8.7295,0.5957c0.2197,1.4179-1.3574,2.4179-2.625,1.9785
									c-0.6064,0.0996-1.5156-1.3945-1.3369-0.3066C83.9912,88.5684,84.0771,89.3223,83.5557,89.7031 M58.6758,86.793
									c0.6767,0.6191,1.1523-0.1153,1.7842-0.3848c2.1211-0.7305,3.9746-2.0059,5.7998-3.2812
									c1.1064-0.9141,2.0664-2.1016,3.5507-2.3975c2.8975-0.8779,5.9786-0.7725,8.8868-1.5791
									c2.2148-3.0332,5.9775-4.1152,9.1279-5.8594c0.708-0.2187,0.9814-0.8008,1.208-1.4453
									c1.2041-1.8984,2.8428-3.5801,4.7803-4.7305c0.917-0.5,2.0107-0.789,3.0498-0.5605
									c-0.0742,1.2363-0.7842,2.332-1.6406,3.1875c0.7011-0.0127,1.3037-0.459,2.0107-0.4336
									c0.2441,1.2695-1.127,1.9336-1.8555,2.7246c0.4063,0.0938,1.961,0.2109,1.1133,0.6172
									c-1.0801,0.75-2.3144,1.2656-3.3105,2.1348c0.9199,0.166,1.0244,0.3632,0.0888,0.6962
									c-0.5068,0.3428-1.4795,0.462-1.5752,1.1319c0.6953,0.4258-0.3193,0.8496-0.7119,0.9912
									c-0.748,0.1728-1.5351,0.5-0.54,1.0674c-0.375,0.5683-1.1836,0.6894-1.8418,0.6328
									c0.1992,0.6445,0.4892,1.3652-0.3467,1.6504c-1.874,1.416-4.0752,2.4453-6.4316,2.6816
									c2.9433,0.2266,5.9746-0.3203,8.4902-1.9199c0.332-0.3945,2.0732-0.8145,1.0986-1.1445
									c-0.456-0.1914-1.4394-0.4043-1.5058-0.752c1.3613-0.8408,3.0771-0.541,4.5439-1.041
									c0.0381-0.4746-1.1142-0.3408-1.5459-0.4512c-1.0244-0.084-0.9629-0.3457,0.0244-0.4433
									c1.25-0.3301,2.6661-0.3965,3.7178-1.211c-0.8555-0.3965-1.9336-0.0468-2.8467-0.3711
									c1.5479-0.6777,3.376-0.7461,4.7666-1.7636c0.6319-0.7051-0.8115-0.4844-1.2334-0.4668
									c-0.8564,0.1484-1.2539-0.2618-0.2783-0.6192c1.6631-1.2265,3.7695-2.0234,4.9385-3.8008
									c0.2783-0.3984,0.6523-1.5996-0.2295-1.1679c-1.1621,0.3867-2.1846,1.6914-3.5068,1.289
									c2.6064-2.0195,5.0869-4.3222,6.8701-7.1191c0.0918-0.8066-1.1758-0.8926-1.5049-0.2598
									c-1.6738,1.6153-3.1904,3.5196-5.335,4.5313c2.0537-1.9824,3.752-4.3301,5.2334-6.7637
									c0.3184-0.7226,1.1719-1.5918,0.708-2.3945c-0.747-0.6192-1.6806-0.0547-2.0703,0.6855
									c-1.3008,1.6992-2.29,3.6836-3.9638,5.0703c1.4668-2.7988,2.9843-5.7773,3.0205-9.0039
									c-0.0039-0.6631-0.1368-1.6425-1.041-1.5175c-0.7149,0.1269-0.543,1.1972-0.8389,1.7382
									c-0.6504,2.2051-0.9541,4.5918-2.2852,6.5235c0.2989-1.793,0.8223-3.6573,0.4209-5.4688
									c-0.1875-0.8086-1.4931-0.4609-1.3261,0.3399c-1.5586,7.9004-6.8604,14.8105-13.795,18.8066
									c-3.1738,1.7969-6.7197,2.9561-10.3271,3.4805c-0.9707,0.2129-2.0195,0.0879-2.9483,0.4179
									c-2.248,1.7247-3.6093,4.6075-6.4541,5.5118c-1.2773,0.6347-2.9384,0.7617-3.8505,1.9472
									C58.6885,86.4512,58.6729,86.627,58.6758,86.793"/>
							</g>
						</g>
						<g>
							<g>
								<path class="st3" d="M67.1934,78.7773c-0.4209,0.7637-0.667,1.6407-1.208,2.3223
									c-1.6241-1.4785-3.9786-1.4297-6.0401-1.5273c-1.6992-0.0909-3.5488-0.2481-4.8642-1.461
									c-1.3858-1.1347-2.5157-2.6054-4.0625-3.5254c-1.4112-0.3847-2.834-0.8652-3.9698-1.832
									c-2.4248-1.9785-3.8134-4.9121-6.1826-6.9492c-0.4531-0.4473-0.9853-0.791-1.4922-1.1699
									c-0.4824,0.1191-0.2627,1.1562-0.8515,0.6269c-0.3204-0.2265-1.1221-0.25-1.1944,0.0684
									c0.7246,0.9551,1.4502,2.0449,1.5508,3.2676c-0.4941,0.0507-1.373-0.1055-1.6172,0.0781
									c0.6563,0.9844,1.4971,1.8555,2.4522,2.5537c-0.458,0.0713-1.3614,0.0322-1.5371,0.2158
									c0.9482,0.7735,1.9668,1.5645,3.208,1.7637c0.2548,0.3359-0.3721,0.9824,0.1562,1.2705
									c0.3057,0.1221,1.3135,0.331,0.6182,0.6787c-0.4756,0.3232-0.2998,1.0684,0.3096,1.0527
									c0.3857,0.1954,1.249,0.2442,1.3173,0.584c-0.3408,0.3477-1.4033,0.7598-0.5,1.086
									c0.8448,0.4687,1.8067,0.7714,2.7705,0.8046c-0.4834,0.4083-1.0791,0.6387-1.5761,1.0196
									c2.2236,1.3066,4.6904,2.166,7.1289,2.9922c0.9687,0.3252,1.9511,0.625,2.958,0.8164
									c-2.9238-0.168-5.7481-1.0342-8.4111-2.2188c-1.3809-0.6054-2.7696-1.1885-4.1827-1.7109
									c0.6211-0.3223,1.3379-0.4024,1.9795-0.6817c-1.333-0.2675-2.7929-0.3554-3.9668-1.0888
									c0.1797-0.3213,0.8623-0.334,1.2393-0.499c0.709-0.17,1.1494-0.375,0.1504-0.4375
									c-1.0098-0.2754-2.166-0.1524-3.0547-0.7598c0.0566-0.3652,0.9873-0.2363,1.3662-0.3945
									c0.4775-0.0821,1.0068-0.1504,1.3887-0.4727c-1.5596-0.6455-3.5977-0.1865-4.8194-1.5645
									c-0.2812-0.5234,0.875-0.1015,1.2041-0.1894c0.836,0,1.7344,0.2656,2.5323-0.0703
									c-2.2725-0.9981-4.7051-1.9317-6.4375-3.7754c-0.1914-0.2988-0.7686-1.1074-0.3028-1.207
									c1.3477,0.1777,2.3242,1.6484,3.7676,1.4199c0.1904-0.2569-0.8398-0.6817-1.0967-1.0498
									c-2.1015-1.8057-4.1435-3.7627-5.6162-6.125c-0.1015-0.7901,1.1387-0.9092,1.4649-0.2998
									c1.6084,1.5498,3.0605,3.3554,5.0634,4.414c0.711,0.3457-0.4082-0.4082-0.5556-0.6797
									c-1.8516-2.1523-3.6133-4.4199-4.9063-6.9511c-0.2324-0.4571-0.6162-1.2832,0.0762-1.5244
									c0.6934-0.3467,1.3789,0.1259,1.7324,0.7197c1.3594,1.7168,2.3613,3.7558,4.0557,5.1855
									c-1.4434-2.8027-2.9854-5.7519-3.0235-8.9765c0.0342-0.625,0.0743-1.5703,0.9229-1.5449
									c0.7109-0.1075,0.5996,0.8027,0.832,1.2382c0.7012,2.3692,1.0078,4.9336,2.4141,7.0254
									c-0.3125-1.7578-0.7686-3.5683-0.4639-5.3554c0.0694-0.585,0.7295-0.7637,1.1621-0.4082
									c0.3467,0.8535,0.42,1.9072,0.7383,2.8183c1.8067,6.1797,5.8604,11.6152,11.1475,15.2637
									c4.3545,2.9844,9.5205,4.7676,14.7929,5.0801C66.2373,78.7344,66.7158,78.748,67.1934,78.7773"/>
							</g>
						</g>
						<g>
							<g>
								<path class="st3" d="M60.499,86.4043c0.1573,0,0.2852,0.1289,0.2852,0.2852c0,0.1562-0.1279,0.2832-0.2852,0.2832
									c-0.1582,0-0.2842-0.127-0.2842-0.2832C60.2148,86.5332,60.3408,86.4043,60.499,86.4043z"/>
							</g>
						</g>
						<g>
							<g>
								<path class="st3" d="M60.4746,86.5273c0.0645,0,0.1162,0.0508,0.1162,0.1172c0,0.0625-0.0517,0.1133-0.1162,0.1133
									c-0.0644,0-0.1162-0.0508-0.1162-0.1133C60.3584,86.5781,60.4102,86.5273,60.4746,86.5273z"/>
							</g>
							<g>
								<path class="st2" d="M60.4746,86.8359c-0.1064,0-0.1924-0.0879-0.1924-0.1914c0-0.1074,0.086-0.1933,0.1924-0.1933
									c0.1055,0,0.1924,0.0859,0.1924,0.1933C60.667,86.748,60.5801,86.8359,60.4746,86.8359z"/>
							</g>
						</g>
					</g>
				</g>
				<g>
					<path class="st3" d="M19.8311,44.707c0.4736-0.9804,0.6611-1.625,0.6611-2.6504c0-1.6503-1.0293-2.9433-2.9649-3.1562
						c1.9356-0.2119,2.9649-1.5059,2.9649-3.1563c0-1.0253-0.1875-1.6679-0.6611-2.6503c0,0-3.8116-7.9278-5.2959-10.9942
						c-0.1856-0.3828-0.2452-0.8183-0.2452-1.457c0-0.9863,0.9561-1.791,1.958-1.8164c0.9141-0.0215,1.9092,0.8515,1.9092,1.8496
						c0,1.2109-0.6269,1.75-1.2724,1.75c-0.793,0-1.1104-0.3262-1.1104-0.8828c0-0.3887,0.1885-0.5567,0.458-0.5567
						c0.6807,0,0.4893,0.916,0.4893,0.916c0.3379-0.0742,0.6152-0.4199,0.458-0.8496c0.2471-0.0566,0.4775-0.1855,0.6611-0.3945
						c-0.1836-0.1758-0.3916-0.3125-0.6611-0.3594c0.1592-0.5254-0.0547-0.7832-0.5147-0.8906
						c0.0918,0.2012,0.0957,0.3867,0.0645,0.5645c-0.7236-0.2071-1.835,0.1211-1.835,1.373c0,1.2441,0.8623,2.291,2.4815,2.0293
						c-0.3867,0.1836-0.5811,0.5605-0.6221,0.9824c0.2949-0.1152,0.6221-0.1308,0.6221-0.1308
						c-0.1895,0.332-0.4541,0.6211-0.4405,1.2754c0.2989-0.1368,0.5772-0.3887,0.961-0.2286
						c-0.6026,1.1875,0.1387,2.8204,2.0244,3.208c-0.6904-0.8095-1.0273-1.6845-1.0273-2.5537c0-2.8183,0.7822-3.2929,0.7822-5.2519
						c0-0.8106-0.4121-1.6836-1.2276-2.2852c0.5342-0.1504,0.8809-0.416,1.0801-0.7773c0-0.002,0-0.002,0-0.002l0,0
						c-0.3808-0.5117-0.6279-0.6621-1.2715-0.705c0.7139-0.3711,1.4434-1.1768,1.4434-2.4317c0-1.9355-0.7959-2.7344-0.7959-4.916
						c0-1.2129,0.9912-2.7539,0.9912-2.7539c-1.7549,0.1767-2.623,1.8017-2.1289,3.0996c-0.2803,0.0391-0.5332-0.0234-0.751-0.2305
						c-0.1279,0.3614,0.0752,0.7793,0.3457,1.1397c-0.2187,0.1162-0.3799,0.0459-0.7275-0.0264
						c0.0322,0.3711,0.2549,0.7656,0.7988,1.1367c-1.5781-0.4101-2.5488,0.6895-2.5488,1.8399c0,0.8691,0.6094,1.4941,1.2051,1.4941
						c0.1933,0,0.4756-0.0801,0.6347-0.1992c0.1123,0.2402,0.0557,0.5586-0.0615,0.7988c0.4375-0.1152,0.7139-0.375,0.5176-0.914
						c0.3349-0.0313,0.6016-0.1446,0.7832-0.3594c-0.1846-0.2344-0.4639-0.3711-0.7832-0.3613
						c0.2441-0.502-0.0293-0.7842-0.4258-1.0137c0,0,0.2529,1.0137-0.3906,1.0137c-0.2901,0-0.5537-0.0938-0.5537-0.5196
						c0-0.3711,0.3252-0.8867,1.0752-0.8535c0.7509,0.0332,1.3603,0.5176,1.3603,1.7168c0,1.1055-0.8926,1.6543-2.0674,1.6895
						c-1.0605,0.0332-1.8593-0.5411-1.8593-1.6348c0-1.4531,2.1005-4.7715,2.1005-6.0684c0-0.9726-0.875-1.5136-1.7314-1.5136
						c-0.5332,0-1.0244,0.2539-1.3936,0.5156c-0.3681-0.2617-0.8593-0.5156-1.3935-0.5156c-0.8555,0-1.7305,0.541-1.7305,1.5136
						c0,1.2969,2.1006,4.6153,2.1006,6.0684c0,1.0937-0.7998,1.668-1.8594,1.6348c-1.1757-0.0352-2.0664-0.584-2.0664-1.6895
						c0-1.1992,0.6074-1.6836,1.3574-1.7168c0.752-0.0332,1.0762,0.4824,1.0762,0.8535c0,0.4258-0.2637,0.5196-0.5527,0.5196
						c-0.6436,0-0.3916-1.0137-0.3916-1.0137c-0.3965,0.2295-0.669,0.5117-0.4248,1.0137
						c-0.3194-0.0098-0.5996,0.1269-0.7832,0.3613c0.1806,0.2148,0.4492,0.3281,0.7832,0.3594
						c-0.1973,0.539,0.0801,0.7988,0.5166,0.914c-0.1153-0.2402-0.1738-0.5586-0.0615-0.7988
						c0.1591,0.1191,0.4423,0.1992,0.6357,0.1992c0.5947,0,1.2051-0.625,1.2051-1.4941c0-1.1504-0.9707-2.25-2.5498-1.8399
						c0.5439-0.3711,0.7666-0.7656,0.7988-1.1367c-0.3486,0.0723-0.5088,0.1426-0.7266,0.0264
						c0.2715-0.3604,0.4737-0.7783,0.3448-1.1397C9.3545,9.8809,9.1016,9.9434,8.8232,9.9043
						c0.4942-1.2979-0.3759-2.9229-2.1308-3.0996c0,0,0.9931,1.541,0.9931,2.7539c0,2.1816-0.7978,2.9805-0.7978,4.916
						c0,1.2549,0.7295,2.0606,1.4453,2.4317c-0.6426,0.0429-0.8906,0.1933-1.2734,0.705h0.0019c-0.001,0-0.0019,0-0.0019,0.002
						c0.2002,0.3613,0.5459,0.6269,1.081,0.7773c-0.8154,0.6016-1.2295,1.4746-1.2295,2.2852c0,1.959,0.7842,2.4336,0.7842,5.2519
						c0,0.8692-0.3379,1.7442-1.0283,2.5537c1.8867-0.3876,2.6269-2.0205,2.0234-3.208c0.3858-0.1601,0.6631,0.0918,0.9639,0.2286
						c0.0107-0.6543-0.251-0.9434-0.4414-1.2754c0,0,0.3271,0.0156,0.6211,0.1308c-0.0401-0.4219-0.2363-0.7988-0.6211-0.9824
						c1.6182,0.2617,2.4814-0.7852,2.4814-2.0293c0-1.2519-1.1113-1.5801-1.8359-1.373c-0.0313-0.1778-0.0283-0.3633,0.0645-0.5645
						c-0.461,0.1074-0.6729,0.3652-0.5137,0.8906c-0.2696,0.0469-0.4785,0.1836-0.6612,0.3594
						c0.1827,0.209,0.4151,0.3379,0.6612,0.3945c-0.1592,0.4297,0.1191,0.7754,0.457,0.8496c0,0-0.1914-0.916,0.4893-0.916
						c0.2705,0,0.458,0.168,0.458,0.5567c0,0.5566-0.3174,0.8828-1.1114,0.8828c-0.6445,0-1.2714-0.5391-1.2714-1.75
						c0-0.9981,0.9951-1.8711,1.9091-1.8496c1.002,0.0254,1.9581,0.8301,1.9581,1.8164c0,0.6387-0.0586,1.0742-0.2442,1.457
						c-1.4834,3.0664-5.2969,10.9942-5.2969,10.9942c-0.4726,0.9824-0.6611,1.625-0.6611,2.6503
						c0,1.6504,1.0293,2.9444,2.9668,3.1563c-1.9375,0.2129-2.9668,1.5059-2.9668,3.1562c0,1.0254,0.1885,1.67,0.6611,2.6504
						c0,0,3.8135,7.9278,5.2969,10.9961c0.1856,0.3809,0.2442,0.8164,0.2442,1.4551c0,0.9863-0.9561,1.793-1.9581,1.8164
						c-0.914,0.0234-1.9091-0.8516-1.9091-1.8476c0-1.2129,0.6269-1.752,1.2714-1.752c0.794,0,1.1114,0.3262,1.1114,0.8828
						c0,0.3906-0.1875,0.5567-0.458,0.5567c-0.6807,0-0.4893-0.9161-0.4893-0.9161c-0.3379,0.0743-0.6162,0.42-0.457,0.8496
						c-0.2461,0.0567-0.4785,0.1875-0.6612,0.3946c0.1827,0.1758,0.3916,0.3144,0.6612,0.3594
						c-0.1592,0.5273,0.0527,0.7832,0.5137,0.8925c-0.0928-0.2031-0.0958-0.3886-0.0645-0.5644
						c0.7246,0.2051,1.8359-0.1231,1.8359-1.375c0-1.2422-0.8632-2.2891-2.4814-2.0293c0.3848-0.1836,0.581-0.5606,0.6211-0.9805
						c-0.294,0.1133-0.6211,0.1309-0.6211,0.1309c0.1904-0.334,0.4521-0.6231,0.4414-1.2774
						c-0.3008,0.1367-0.5781,0.3897-0.9639,0.2305c0.6035-1.1895-0.1367-2.8223-2.0234-3.209
						c0.6904,0.8106,1.0283,1.6836,1.0283,2.5547c0,2.8184-0.7842,3.291-0.7842,5.252c0,0.8085,0.4141,1.6816,1.2295,2.2832
						c-0.5351,0.1503-0.8808,0.416-1.081,0.7793h0.0019H7.0596c0.2002,0.3632,0.5459,0.6289,1.081,0.7793
						c-0.8154,0.6015-1.2295,1.4746-1.2295,2.2851c0,1.959,0.7842,2.4346,0.7842,5.252c0,0.8691-0.3379,1.7441-1.0283,2.5527
						c1.8867-0.3867,2.6269-2.0195,2.0234-3.207c0.3858-0.1602,0.6631,0.0937,0.9639,0.2304
						c0.0107-0.6562-0.251-0.9433-0.4414-1.2773c0,0,0.3271,0.0156,0.6211,0.1308c-0.0401-0.4218-0.2363-0.7968-0.6211-0.9804
						c1.6182,0.2597,2.4814-0.7871,2.4814-2.0313c0-1.25-1.1113-1.58-1.8359-1.373c-0.0313-0.1758-0.0283-0.3613,0.0645-0.5664
						c-0.461,0.1094-0.6729,0.3672-0.5137,0.8926c-0.2696,0.0468-0.4785,0.1835-0.6612,0.3593
						c0.1827,0.209,0.4151,0.3399,0.6612,0.3946c-0.1592,0.4296,0.1191,0.7754,0.457,0.8515c0,0-0.1914-0.9179,0.4893-0.9179
						c0.2705,0,0.458,0.1679,0.458,0.5546c0,0.5606-0.3174,0.8848-1.1114,0.8848c-0.6445,0-1.2714-0.541-1.2714-1.75
						c0-0.998,0.9951-1.8711,1.9091-1.8496c1.002,0.0254,1.9581,0.832,1.9581,1.8164c0,0.6387-0.0586,1.0742-0.2442,1.457
						c-1.4834,3.0645-5.2969,10.9942-5.2969,10.9942c-0.4726,0.9824-0.6611,1.625-0.6611,2.6504
						c0,1.6523,1.0293,2.9433,2.9668,3.1572c-1.9375,0.2139-2.9668,1.5029-2.9668,3.1553c0,1.0254,0.1885,1.6699,0.6611,2.6523
						c0,0,3.8135,7.9277,5.2969,10.9942c0.1856,0.3828,0.2442,0.8183,0.2442,1.457c0,0.9844-0.9561,1.791-1.9581,1.8144
						c-0.914,0.0235-1.9091-0.8535-1.9091-1.8496c0-1.209,0.6269-1.75,1.2714-1.75c0.794,0,1.1114,0.3262,1.1114,0.8828
						c0,0.3887-0.1875,0.5586-0.458,0.5586c-0.6807,0-0.4893-0.9179-0.4893-0.9179c-0.3379,0.0742-0.6162,0.4179-0.457,0.8515
						c-0.2461,0.0547-0.4785,0.1856-0.6612,0.3926c0.1827,0.1777,0.3916,0.3125,0.6612,0.3594
						c-0.1592,0.5273,0.0527,0.7832,0.5137,0.8926c-0.0928-0.2032-0.0958-0.3887-0.0645-0.5645
						c0.7246,0.2051,1.8359-0.123,1.8359-1.375c0-1.2422-0.8632-2.291-2.4814-2.0293c0.3848-0.1836,0.581-0.5586,0.6211-0.9805
						c-0.294,0.1153-0.6211,0.1309-0.6211,0.1309c0.1904-0.334,0.4521-0.6211,0.4414-1.2773
						c-0.3008,0.1367-0.5781,0.3886-0.9639,0.2294c0.6035-1.1865-0.1367-2.8193-2.0234-3.208
						c0.6904,0.8106,1.0283,1.6836,1.0283,2.5528c0,2.8213-0.7842,3.2929-0.7842,5.2519c0,0.8106,0.4141,1.6856,1.2295,2.2852
						c-0.5351,0.1504-0.8808,0.416-1.081,0.7793c0,0,0.0019,0,0.0029,0H7.0596c0.3828,0.5117,0.6308,0.664,1.2734,0.7051
						c-0.7158,0.3711-1.4453,1.1777-1.4453,2.4336c0,1.9355,0.7978,2.7343,0.7978,4.916c0,1.2109-0.9931,2.7519-0.9931,2.7519
						c1.7549-0.1758,2.625-1.7988,2.1308-3.0996c0.2784-0.0391,0.5313,0.0234,0.7491,0.2305
						c0.1289-0.3613-0.0733-0.7774-0.3448-1.1367c0.2178-0.1192,0.378-0.0489,0.7266,0.0234
						c-0.0322-0.3711-0.2549-0.7656-0.7988-1.1348c1.5791,0.4082,2.5498-0.6914,2.5498-1.8418c0-0.8691-0.6104-1.4941-1.2051-1.4941
						c-0.1934,0-0.4766,0.0801-0.6357,0.1992c-0.1123-0.2383-0.0538-0.5586,0.0615-0.7978c-0.4365,0.1142-0.7139,0.375-0.5166,0.913
						c-0.334,0.0313-0.6026,0.1446-0.7832,0.3614c0.1836,0.2344,0.4638,0.3711,0.7832,0.3594
						c-0.2442,0.5039,0.0283,0.7851,0.4248,1.0136c0,0-0.252-1.0136,0.3916-1.0136c0.289,0,0.5527,0.0937,0.5527,0.5195
						c0,0.373-0.3242,0.8877-1.0762,0.8535c-0.75-0.0313-1.3574-0.5156-1.3574-1.7148c0-1.1055,0.8907-1.6563,2.0664-1.6915
						c1.0596-0.0332,1.8594,0.5411,1.8594,1.6348c0,1.4551-2.1006,4.7715-2.1006,6.0664c0,0.9746,0.875,1.5176,1.7305,1.5176
						c0.5342,0,1.0254-0.2539,1.3935-0.5176c0.3692,0.2637,0.8604,0.5176,1.3936,0.5176c0.8564,0,1.7314-0.543,1.7314-1.5176
						c0-1.2949-2.1005-4.6113-2.1005-6.0664c0-1.0937,0.7988-1.668,1.8593-1.6348c1.1748,0.0352,2.0674,0.586,2.0674,1.6915
						c0,1.1992-0.6094,1.6835-1.3603,1.7148c-0.75,0.0342-1.0752-0.4805-1.0752-0.8535c0-0.4258,0.2636-0.5195,0.5537-0.5195
						c0.6435,0,0.3906,1.0136,0.3906,1.0136c0.3965-0.2285,0.6699-0.5097,0.4258-1.0136c0.3193,0.0117,0.5986-0.125,0.7832-0.3594
						c-0.1816-0.2168-0.4483-0.3301-0.7832-0.3614c0.1963-0.538-0.0801-0.7988-0.5176-0.913
						c0.1172,0.2392,0.1738,0.5595,0.0615,0.7978c-0.1591-0.1191-0.4414-0.1992-0.6347-0.1992c-0.5957,0-1.2051,0.625-1.2051,1.4941
						c0,1.1504,0.9707,2.25,2.5488,1.8418c-0.5439,0.3692-0.7666,0.7637-0.7988,1.1348c0.3476-0.0723,0.5088-0.1426,0.7275-0.0234
						c-0.2705,0.3593-0.4736,0.7754-0.3457,1.1367c0.2178-0.2071,0.4707-0.2696,0.751-0.2305
						c-0.4941,1.3008,0.374,2.9238,2.1289,3.0996c0,0-0.9912-1.541-0.9912-2.7519c0-2.1817,0.7959-2.9805,0.7959-4.916
						c0-1.2559-0.7295-2.0625-1.4434-2.4336c0.6436-0.0411,0.8907-0.1934,1.2715-0.7051h-0.0019h0.0019
						c-0.1992-0.3633-0.5459-0.6289-1.0801-0.7793c0.8155-0.5996,1.2276-1.4746,1.2276-2.2852c0-1.959-0.7822-2.4306-0.7822-5.2519
						c0-0.8692,0.3369-1.7422,1.0273-2.5528c-1.8857,0.3887-2.627,2.0215-2.0244,3.208c-0.3838,0.1592-0.6621-0.0927-0.961-0.2294
						c-0.0136,0.6562,0.251,0.9433,0.4405,1.2773c0,0-0.3272-0.0156-0.6221-0.1309c0.041,0.4219,0.2354,0.7969,0.6221,0.9805
						c-1.6192-0.2617-2.4815,0.7871-2.4815,2.0293c0,1.252,1.1114,1.5801,1.835,1.375c0.0312,0.1758,0.0273,0.3613-0.0645,0.5645
						c0.46-0.1094,0.6739-0.3653,0.5147-0.8926c0.2695-0.0469,0.4775-0.1817,0.6611-0.3594
						c-0.1836-0.207-0.414-0.3379-0.6611-0.3926c0.1572-0.4336-0.1201-0.7773-0.458-0.8515c0,0,0.1914,0.9179-0.4893,0.9179
						c-0.2695,0-0.458-0.1699-0.458-0.5586c0-0.5566,0.3174-0.8828,1.1104-0.8828c0.6455,0,1.2724,0.541,1.2724,1.75
						c0,0.9961-0.9951,1.8731-1.9092,1.8496c-1.0019-0.0234-1.958-0.83-1.958-1.8144c0-0.6387,0.0596-1.0742,0.2452-1.457
						c1.4843-3.0665,5.2959-10.9942,5.2959-10.9942c0.4736-0.9824,0.6611-1.6269,0.6611-2.6523
						c0-1.6524-1.0293-2.9414-2.9658-3.1553c1.9365-0.2139,2.9658-1.5049,2.9658-3.1572c0-1.0254-0.1875-1.668-0.6611-2.6504
						c0,0-3.8116-7.9297-5.2959-10.9942c-0.1856-0.3828-0.2452-0.8183-0.2452-1.457c0-0.9844,0.9561-1.791,1.958-1.8164
						c0.9141-0.0215,1.9092,0.8516,1.9092,1.8496c0,1.209-0.6269,1.75-1.2724,1.75c-0.793,0-1.1104-0.3242-1.1104-0.8848
						c0-0.3867,0.1885-0.5546,0.458-0.5546c0.6807,0,0.4893,0.9179,0.4893,0.9179c0.3379-0.0761,0.6152-0.4219,0.458-0.8515
						c0.2471-0.0547,0.4775-0.1856,0.6611-0.3946c-0.1836-0.1758-0.3916-0.3125-0.6611-0.3593
						c0.1592-0.5254-0.0547-0.7832-0.5147-0.8926c0.0918,0.2051,0.0957,0.3906,0.0645,0.5664c-0.7236-0.207-1.835,0.123-1.835,1.373
						c0,1.2442,0.8623,2.291,2.4815,2.0313c-0.3867,0.1836-0.5811,0.5586-0.6221,0.9804c0.2949-0.1152,0.6221-0.1308,0.6221-0.1308
						c-0.1895,0.334-0.4541,0.6211-0.4405,1.2773c0.2989-0.1367,0.5772-0.3906,0.961-0.2304
						c-0.6026,1.1875,0.1387,2.8203,2.0244,3.207c-0.6904-0.8086-1.0273-1.6836-1.0273-2.5527c0-2.8174,0.7822-3.293,0.7822-5.252
						c0-0.8105-0.4121-1.6836-1.2276-2.2851c0.5342-0.1504,0.8809-0.4161,1.0801-0.7793h-0.001h0.001
						c-0.1992-0.3633-0.5459-0.629-1.0801-0.7793c0.8155-0.6016,1.2276-1.4747,1.2276-2.2832c0-1.961-0.7822-2.4336-0.7822-5.252
						c0-0.8711,0.3369-1.7441,1.0273-2.5547c-1.8857,0.3867-2.627,2.0195-2.0244,3.209c-0.3838,0.1592-0.6621-0.0938-0.961-0.2305
						c-0.0136,0.6543,0.251,0.9434,0.4405,1.2774c0,0-0.3272-0.0176-0.6221-0.1309c0.041,0.4199,0.2354,0.7969,0.6221,0.9805
						c-1.6192-0.2598-2.4815,0.7871-2.4815,2.0293c0,1.2519,1.1114,1.5801,1.835,1.375c0.0312,0.1758,0.0273,0.3613-0.0645,0.5644
						c0.46-0.1093,0.6739-0.3652,0.5147-0.8925c0.2695-0.045,0.4775-0.1836,0.6611-0.3594
						c-0.1836-0.2071-0.414-0.3379-0.6611-0.3946c0.1572-0.4296-0.1201-0.7753-0.458-0.8496c0,0,0.1914,0.9161-0.4893,0.9161
						c-0.2695,0-0.458-0.1661-0.458-0.5567c0-0.5566,0.3174-0.8828,1.1104-0.8828c0.6455,0,1.2724,0.5391,1.2724,1.752
						c0,0.996-0.9951,1.871-1.9092,1.8476c-1.0019-0.0234-1.958-0.8301-1.958-1.8164c0-0.6387,0.0596-1.0742,0.2452-1.4551
						C16.0195,52.6348,19.8311,44.707,19.8311,44.707z M13.2939,41.2363c-0.5419-1.3886-1.916-2.1758-3.1787-2.3359
						c1.2627-0.1602,2.6368-0.9453,3.1787-2.3359c0.544,1.3906,1.917,2.1757,3.1788,2.3359
						C15.2109,39.0605,13.8379,39.8477,13.2939,41.2363z M11.749,8.4727c0.3897-0.4844,1.5293,0.4687,1.543,0.4804l0.0019,0.002l0,0
						h0.001v-0.002c0.0156-0.0117,1.1543-0.9648,1.544-0.4804c0.4726,0.5859-0.8516,2.9199-1.545,4.6318
						C12.6025,11.3926,11.2773,9.0586,11.749,8.4727z M11.1396,17.6484c-0.0634-0.0254-0.1406-0.042-0.2119-0.0664
						c1.0284-0.2343,1.8926-0.6172,2.3662-1.4179c0.4747,0.8007,1.3379,1.1836,2.3663,1.4179
						c-0.0704,0.0244-0.1475,0.041-0.212,0.0664c-1.1308,0.1309-1.9209,1-2.1533,1.4395v0.0019l-0.001-0.0019
						C13.0605,18.6484,12.2715,17.7793,11.1396,17.6484z M7.5322,35.5801c0-0.5723,0.1426-1.1006,0.375-1.6035
						c1.1026-2.3555,4.6377-9.8496,5.3867-11.42l0,0h0.001c0.75,1.5704,4.2842,9.0645,5.3858,11.42
						c0.2343,0.5029,0.375,1.0312,0.375,1.6035c0,1.4433-1.3223,1.9472-2.0723,1.9472c-0.8984,0-1.8115-0.6835-1.8115-1.5371
						c0-0.5429,0.2949-0.8672,0.7177-0.8672c1.0147,0,0.9532,0.8633,0.75,1.4063c0.6329-0.2832,0.9991-0.791,0.8985-1.3242
						c0.3574-0.0488,0.6973-0.2188,1.0117-0.5742c-0.2471-0.3106-0.5478-0.5469-1.0117-0.5547
						c0.2021-0.8301-0.3526-1.1817-0.8985-1.375c0.1729,0.6074,0.2872,1.3086-0.75,1.3086c-0.7548,0-1.3505,0.1308-1.6982,0.6211
						c-0.0195-0.6543-0.081-3.2383-0.081-3.2383c-0.043-0.9707,1.3007-0.9434,2.1542-0.6543
						c-0.3222-1.1192-0.9833-1.7246-2.5126-1.5703c0.3701-0.1563,0.7666-0.5059,0.7666-1.1797c0-0.9102-0.7383-1.9199-1.2247-2.2188
						v0.0078v-0.0078c-0.4853,0.2989-1.2236,1.3086-1.2246,2.2188c0,0.6738,0.3965,1.0234,0.7676,1.1797
						c-1.5303-0.1543-2.1914,0.4511-2.5137,1.5703c0.8536-0.2891,2.1983-0.3164,2.1543,0.6543c0,0-0.0605,2.584-0.081,3.2383
						c-0.3477-0.4903-0.9424-0.6211-1.6983-0.6211c-1.0361,0-0.9238-0.7012-0.7509-1.3086c-0.544,0.1933-1.0996,0.5449-0.8975,1.375
						c-0.4629,0.0078-0.7646,0.2441-1.0117,0.5547c0.3154,0.3554,0.6543,0.5254,1.0117,0.5742
						c-0.1006,0.5332,0.2666,1.041,0.8975,1.3242c-0.2022-0.543-0.2627-1.4063,0.7509-1.4063c0.4258,0,0.7178,0.3243,0.7178,0.8672
						c0,0.8536-0.9131,1.5371-1.8105,1.5371C8.8545,37.5273,7.5322,37.0234,7.5322,35.5801z M13.2939,79.1426
						c0.544,1.3887,1.918,2.1758,3.1807,2.3369c-1.2627,0.1592-2.6367,0.9463-3.1807,2.335
						c-0.5419-1.3887-1.9169-2.1758-3.1796-2.335C11.377,81.3184,12.752,80.5313,13.2939,79.1426z M14.8389,111.9082
						c-0.3916,0.4863-1.545-0.4844-1.545-0.4844s-1.1533,0.9707-1.5449,0.4844c-0.4717-0.5859,0.8535-2.9219,1.5449-4.6309
						C13.9873,108.9863,15.3115,111.3223,14.8389,111.9082z M15.4482,102.7314c0.0635,0.0245,0.1407,0.044,0.211,0.0655
						c-1.0274,0.2344-1.8906,0.6191-2.3653,1.4179c-0.4736-0.7988-1.3378-1.1835-2.3652-1.4179
						c0.0703-0.0215,0.1475-0.041,0.2109-0.0655c1.1319-0.1298,1.9209-1,2.1543-1.4404l0,0h0.001
						C13.5273,101.7314,14.3174,102.6016,15.4482,102.7314z M19.0557,84.7988c0,0.5742-0.1407,1.1035-0.375,1.6035
						c-1.1016,2.3555-4.6358,9.8497-5.3858,11.42c0,0.0019,0,0.0019,0,0.0019s-0.001,0-0.001-0.0019
						c-0.749-1.5703-4.2841-9.0645-5.3867-11.42c-0.2324-0.5-0.375-1.0293-0.375-1.6035c0-1.4424,1.3223-1.9443,2.0733-1.9443
						c0.8974,0,1.8105,0.6807,1.8105,1.5361c0,0.541-0.292,0.8653-0.7178,0.8653c-1.0136,0-0.9531-0.8614-0.7509-1.4063
						c-0.6309,0.2832-0.9981,0.791-0.8975,1.3262c-0.3574,0.0488-0.6963,0.2187-1.0117,0.5722
						c0.2471,0.3125,0.5488,0.5489,1.0117,0.5567c-0.2021,0.8301,0.3535,1.1797,0.8975,1.375
						c-0.1729-0.6094-0.2852-1.3106,0.7509-1.3106c0.7559,0,1.3506-0.1308,1.6983-0.6211c0.0205,0.6543,0.081,3.2403,0.081,3.2403
						c0.044,0.9707-1.3007,0.9433-2.1543,0.6543c0.3223,1.1191,0.9834,1.7246,2.5137,1.5703
						c-0.3711,0.1562-0.7676,0.5059-0.7676,1.1777c0.001,0.9102,0.7393,1.9199,1.2246,2.2168v-0.0078v0.0078
						c0.4864-0.2969,1.2247-1.3066,1.2247-2.2168c0-0.6718-0.3965-1.0215-0.7666-1.1777c1.5293,0.1543,2.1904-0.4512,2.5126-1.5703
						c-0.8535,0.289-2.1972,0.3164-2.1542-0.6543c0,0,0.0615-2.586,0.081-3.2403c0.3477,0.4903,0.9434,0.6211,1.6982,0.6211
						c1.0372,0,0.9229,0.7012,0.75,1.3106c0.5459-0.1953,1.1006-0.5449,0.8985-1.375c0.4639-0.0078,0.7646-0.2442,1.0117-0.5567
						c-0.3144-0.3535-0.6543-0.5234-1.0117-0.5722c0.1006-0.5352-0.2656-1.043-0.8985-1.3262
						c0.2032,0.5449,0.2647,1.4063-0.75,1.4063c-0.4228,0-0.7177-0.3243-0.7177-0.8653c0-0.8554,0.9131-1.5361,1.8115-1.5361
						C17.7334,82.8545,19.0557,83.3564,19.0557,84.7988z M18.6807,76.5547c0.2343,0.5,0.375,1.0293,0.375,1.6035
						c0,1.4434-1.3223,1.9482-2.0723,1.9482c-0.8984,0-1.8115-0.6845-1.8115-1.54c0-0.5391,0.2949-0.8652,0.7177-0.8652
						c1.0147,0,0.9532,0.8633,0.75,1.4062c0.6329-0.2832,0.9991-0.791,0.8985-1.3242c0.3574-0.0508,0.6973-0.2197,1.0117-0.5742
						c-0.2471-0.3106-0.5478-0.5469-1.0117-0.5547c0.2021-0.8301-0.3526-1.1797-0.8985-1.375
						c0.1729,0.6074,0.2872,1.3086-0.75,1.3086c-0.7548,0-1.3505,0.1309-1.6982,0.6211c-0.0195-0.6543-0.081-3.2402-0.081-3.2402
						c-0.043-0.9688,1.3007-0.9415,2.1542-0.6524c-0.3222-1.1191-0.9833-1.7246-2.5126-1.5723
						c0.3701-0.1543,0.7666-0.5039,0.7666-1.1757c0-0.9121-0.7383-1.9209-1.2247-2.2188v0.0078v-0.0078
						c-0.4853,0.2979-1.2236,1.3067-1.2246,2.2188c0,0.6718,0.3965,1.0214,0.7676,1.1757
						c-1.5303-0.1523-2.1914,0.4532-2.5137,1.5723c0.8536-0.2891,2.1983-0.3164,2.1543,0.6524c0,0-0.0605,2.5859-0.081,3.2402
						c-0.3477-0.4902-0.9424-0.6211-1.6983-0.6211c-1.0361,0-0.9238-0.7012-0.7509-1.3086c-0.544,0.1953-1.0996,0.5449-0.8975,1.375
						c-0.4629,0.0078-0.7646,0.2441-1.0117,0.5547c0.3154,0.3545,0.6543,0.5234,1.0117,0.5742
						c-0.1006,0.5332,0.2666,1.041,0.8975,1.3242c-0.2022-0.5429-0.2627-1.4062,0.7509-1.4062c0.4258,0,0.7178,0.3261,0.7178,0.8652
						c0,0.8555-0.9131,1.54-1.8105,1.54c-0.751,0-2.0733-0.5048-2.0733-1.9482c0-0.5742,0.1426-1.1035,0.375-1.6035
						c1.1026-2.3555,4.6377-9.8496,5.3867-11.4199l0,0h0.001C14.0449,66.7051,17.5791,74.1992,18.6807,76.5547z M15.4482,60.1523
						c0.0362,0.0137,0.0801,0.0235,0.1172,0.0372c-0.0371,0.0136-0.081,0.0234-0.1172,0.0371c-1.1308,0.1308-1.9209,1-2.1533,1.4394
						l0,0h-0.001c-0.2334-0.4394-1.0224-1.3086-2.1543-1.4394c-0.0351-0.0137-0.0791-0.0235-0.1171-0.0371
						c0.038-0.0137,0.082-0.0235,0.1171-0.0372c1.1319-0.1298,1.9209-0.998,2.1543-1.4394v-0.002l0.001,0.002
						C13.5273,59.1543,14.3174,60.0225,15.4482,60.1523z M13.2949,55.2441c0,0,0,0-0.001,0.002c0-0.002,0-0.002,0-0.002
						c-0.749-1.5683-4.2841-9.0644-5.3867-11.4199c-0.2324-0.5-0.375-1.0293-0.375-1.6035c0-1.4434,1.3223-1.9473,2.0733-1.9473
						c0.8974,0,1.8105,0.6836,1.8105,1.5371c0,0.544-0.292,0.8692-0.7178,0.8692c-1.0136,0-0.9531-0.8652-0.7509-1.4072
						c-0.6309,0.2841-0.9981,0.791-0.8975,1.3252c-0.3574,0.0498-0.6963,0.2168-1.0117,0.5722
						c0.2471,0.3115,0.5488,0.5469,1.0117,0.5567c-0.2021,0.8281,0.3535,1.1797,0.8975,1.373
						c-0.1729-0.6074-0.2852-1.3086,0.7509-1.3086c0.7559,0,1.3506-0.1308,1.6983-0.6211c0.0205,0.6543,0.081,3.2383,0.081,3.2383
						c0.044,0.9727-1.3007,0.9463-2.1543,0.6563c0.3223,1.1191,0.9834,1.7226,2.5137,1.5703
						c-0.3711,0.1543-0.7676,0.5039-0.7676,1.1787c0.001,0.9111,0.7393,1.9189,1.2246,2.2178v-0.0079v0.0079
						c0.4864-0.2989,1.2247-1.3067,1.2247-2.2178c0-0.6748-0.3965-1.0244-0.7666-1.1787c1.5293,0.1523,2.1904-0.4512,2.5126-1.5703
						c-0.8535,0.29-2.1972,0.3164-2.1542-0.6563c0,0,0.0615-2.584,0.081-3.2383c0.3477,0.4903,0.9434,0.6211,1.6982,0.6211
						c1.0372,0,0.9229,0.7012,0.75,1.3086c0.5459-0.1933,1.1006-0.5449,0.8985-1.373c0.4639-0.0098,0.7646-0.2452,1.0117-0.5567
						c-0.3144-0.3554-0.6543-0.5224-1.0117-0.5722c0.1006-0.5342-0.2656-1.0411-0.8985-1.3252
						c0.2032,0.542,0.2647,1.4072-0.75,1.4072c-0.4228,0-0.7177-0.3252-0.7177-0.8692c0-0.8535,0.9131-1.5371,1.8115-1.5371
						c0.75,0,2.0723,0.5039,2.0723,1.9473c0,0.5742-0.1407,1.1035-0.375,1.6035C17.5791,46.1797,14.0449,53.6758,13.2949,55.2441z"
						/>
				</g>
			</g>
		</g>
	</g>
</g>
<g id="Layer_2">
	<g id="Layer_2_00000008151020972403519510000017401608398655629208_">
		<path class="st4" d="M109.6865,3.2227c3.916,0,7.0908,3.1748,7.0908,7.0908v99.372c0,3.919-3.1748,7.0918-7.0908,7.0918h-99.374
			c-3.916,0-7.0908-3.1728-7.0908-7.0918v-99.372c0-3.916,3.1748-7.0908,7.0908-7.0908L109.6865,3.2227 M109.6865,0h-99.374
			C4.625,0,0,4.625,0,10.3135v99.372C0,115.373,4.625,120,10.3125,120h99.374C115.374,120,120,115.373,120,109.6855v-99.372
			C120,4.625,115.374,0,109.6865,0L109.6865,0z"/>
	</g>
</g>
</svg>
