<?xml version="1.0" encoding="utf-8"?>
<!-- Generator: Adobe Illustrator 27.6.1, SVG Export Plug-In . SVG Version: 6.00 Build 0)  -->
<svg version="1.1" xmlns="http://www.w3.org/2000/svg" xmlns:xlink="http://www.w3.org/1999/xlink" x="0px" y="0px"
	 viewBox="0 0 120 120" style="enable-background:new 0 0 120 120;" xml:space="preserve">
<style type="text/css">
	.st0{fill:#CAB99E;}
	.st1{fill:#FFFFFF;}
	.st2{fill:#E6042D;}
	.st3{fill:#00317B;}
	.st4{fill:#D1D3D4;}
</style>
<g id="Layer_1">
	<g>
		<g>
			<path class="st0" d="M109.6865,3.2227c3.916,0,7.0908,3.1748,7.0908,7.0908v99.372c0,3.918-3.1748,7.0918-7.0908,7.0918h-99.374
				c-3.916,0-7.0908-3.1738-7.0908-7.0918v-99.372c0-3.916,3.1748-7.0908,7.0908-7.0908H109.6865 M109.6865,0h-99.374
				C4.625,0,0,4.625,0,10.3135v99.372C0,115.373,4.625,120,10.3125,120h99.374C115.374,120,120,115.373,120,109.6855v-99.372
				C120,4.625,115.374,0,109.6865,0L109.6865,0z"/>
		</g>
		<g>
			<path class="st1" d="M109.6865,3.2227h-99.374c-3.916,0-7.0908,3.1748-7.0908,7.0908v99.372c0,3.918,3.1748,7.0918,7.0908,7.0918
				h99.374c3.916,0,7.0908-3.1738,7.0908-7.0918v-99.372C116.7773,6.3975,113.6025,3.2227,109.6865,3.2227z M95.9941,22.0254
				l5.8907,8.834l-3.2735,2.1836l-5.8896-8.836L95.9941,22.0254z M91.085,25.2969l13.0898,19.6328l-3.2715,2.1836L87.8125,27.4785
				L91.085,25.2969z M95.9941,70.0176l3.2725,2.1816l-5.8916,8.834l-3.2715-2.1816L95.9941,70.0176z M90.1035,41.5488l3.2715-2.1816
				l5.8916,8.8359l-3.2725,2.1817L90.1035,41.5488z M100.9033,73.2891l3.2715,2.1816l-5.8896,8.8359l-3.2735-2.1816
				L100.9033,73.2891z M86.1768,28.5703l5.8896,8.834l-3.2725,2.1816l-5.8886-8.8339L86.1768,28.5703z M37.0947,30.752
				L24.0059,50.3848l-3.2715-2.1817l13.0879-19.6328L37.0947,30.752z M32.1865,27.4785L19.0977,47.1133l-3.2725-2.1836
				L28.915,25.2969L32.1865,27.4785z M24.9883,82.125l-3.2735,2.1816l-5.8896-8.8359l3.2725-2.1816L24.9883,82.125z
				 M24.0068,22.0254l3.2715,2.1816L14.1895,43.8398l-3.2725-2.1816L24.0068,22.0254z M24.0068,98.377L10.917,78.7441l3.2725-2.1836
				l13.0888,19.6348L24.0068,98.377z M28.915,95.1035l-5.8906-8.834l3.2725-2.1816l5.8896,8.8359L28.915,95.1035z M33.8223,91.832
				L20.7344,72.1992l3.2715-2.1816l13.0888,19.6328L33.8223,91.832z M46.9111,79.834
				c-10.8427-7.2276-13.7734-21.8789-6.5449-32.7207c7.2295-10.8457,21.8799-13.7735,32.7227-6.5449
				c10.8427,7.2265,13.7734,21.8789,6.5449,32.7207C72.4053,84.1328,57.7539,87.0635,46.9111,79.834z M82.9053,89.6504l5.8886-8.834
				l3.2725,2.1816l-5.8896,8.834L82.9053,89.6504z M87.8125,92.9238l5.8906-8.8359l3.2725,2.1816l-5.8906,8.834L87.8125,92.9238z
				 M95.9941,98.377l-3.2724-2.1817l5.8896-8.8359l3.2735,2.1816L95.9941,98.377z M103.1934,87.5781l-3.2715-2.1806l5.8886-8.837
				l3.2715,2.1836L103.1934,87.5781z M105.8105,43.8398l-5.8886-8.8359l3.2715-2.1816l5.8886,8.8359L105.8105,43.8398z"/>
			<path class="st2" d="M73.0889,40.5684c-10.8428-7.2286-25.4932-4.3008-32.7227,6.5449
				c-3.6142,5.4199-2.1494,12.7461,3.2715,16.3594C49.0596,67.0859,56.3848,65.623,60,60.1992
				c3.6143-5.4199,10.9385-6.8847,16.3613-3.2695c5.4219,3.6152,6.8858,10.9375,3.2725,16.3594
				C86.8623,62.4473,83.9316,47.7949,73.0889,40.5684z"/>
			<path class="st3" d="M76.3613,56.9297C70.9385,53.3145,63.6143,54.7793,60,60.1992c-3.6152,5.4238-10.9404,6.8867-16.3623,3.2735
				c-5.4209-3.6133-6.8857-10.9395-3.2715-16.3594c-7.2285,10.8418-4.2978,25.4931,6.5449,32.7207
				c10.8428,7.2295,25.4942,4.2988,32.7227-6.5449C83.2471,67.8672,81.7832,60.5449,76.3613,56.9297z"/>
			
				<rect x="17.1313" y="75.6707" transform="matrix(0.832 -0.5547 0.5547 0.832 -45.3143 25.2868)" width="3.9332" height="23.597"/>
			
				<rect x="26.948" y="69.127" transform="matrix(0.8321 -0.5547 0.5547 0.8321 -40.0317 29.6285)" width="3.9326" height="23.5956"/>
			
				<rect x="18.4398" y="73.4883" transform="matrix(0.8321 -0.5546 0.5546 0.8321 -40.2735 24.5442)" width="3.9334" height="10.6192"/>
			
				<rect x="25.6397" y="84.287" transform="matrix(0.832 -0.5548 0.5548 0.832 -45.0685 30.3678)" width="3.9321" height="10.6184"/>
			
				<rect x="94.0273" y="24.4058" transform="matrix(0.832 -0.5547 0.5547 0.832 -3.9595 59.3329)" width="3.9332" height="23.5975"/>
			
				<rect x="92.7185" y="39.5661" transform="matrix(0.832 -0.5548 0.5548 0.832 -8.9892 60.0667)" width="3.9326" height="10.6197"/>
			<rect x="85.5193" y="28.7696" transform="matrix(0.832 -0.5547 0.5547 0.832 -4.2095 54.2536)" width="3.9326" height="10.617"/>
			<rect x="95.336" y="22.2245" transform="matrix(0.832 -0.5548 0.5548 0.832 1.0724 58.6086)" width="3.9339" height="10.6184"/>
			
				<rect x="102.5359" y="33.0219" transform="matrix(0.8321 -0.5546 0.5546 0.8321 -3.7153 64.388)" width="3.9322" height="10.6183"/>
			
				<rect x="99.193" y="80.1038" transform="matrix(0.5546 -0.8321 0.8321 0.5546 -21.7482 123.5073)" width="10.618" height="3.9325"/>
			
				<rect x="91.9934" y="90.9015" transform="matrix(0.5547 -0.832 0.832 0.5547 -33.9426 122.3124)" width="10.6192" height="3.9334"/>
			
				<rect x="94.284" y="76.8313" transform="matrix(0.5548 -0.832 0.832 0.5548 -21.2197 117.9403)" width="10.6194" height="3.933"/>
			
				<rect x="87.0847" y="87.6299" transform="matrix(0.5547 -0.8321 0.8321 0.5547 -33.4055 116.7737)" width="10.6186" height="3.9325"/>
			
				<rect x="89.3757" y="73.5591" transform="matrix(0.5548 -0.832 0.832 0.5548 -20.6844 112.3935)" width="10.6181" height="3.9326"/>
			
				<rect x="82.1771" y="84.3579" transform="matrix(0.5547 -0.8321 0.8321 0.5547 -32.8673 111.2395)" width="10.617" height="3.9326"/>
			<rect x="7.2998" y="30.9663" transform="matrix(0.5548 -0.832 0.832 0.5548 -18.897 30.5505)" width="23.5961" height="3.9326"/>
			
				<rect x="12.2076" y="34.238" transform="matrix(0.5547 -0.8321 0.8321 0.5547 -19.4341 36.0978)" width="23.5969" height="3.9332"/>
			
				<rect x="17.1165" y="37.5112" transform="matrix(0.5547 -0.832 0.832 0.5547 -19.9718 41.6371)" width="23.5956" height="3.9326"/>
		</g>
	</g>
</g>
<g id="Layer_2">
	<g id="Layer_2_00000008151020972403519510000017401608398655629208_">
		<path class="st4" d="M109.6865,3.2227c3.916,0,7.0908,3.1748,7.0908,7.0908v99.372c0,3.919-3.1748,7.0918-7.0908,7.0918h-99.374
			c-3.916,0-7.0908-3.1728-7.0908-7.0918v-99.372c0-3.916,3.1748-7.0908,7.0908-7.0908L109.6865,3.2227 M109.6865,0h-99.374
			C4.625,0,0,4.625,0,10.3135v99.372C0,115.373,4.625,120,10.3125,120h99.374C115.374,120,120,115.373,120,109.6855v-99.372
			C120,4.625,115.374,0,109.6865,0L109.6865,0z"/>
	</g>
</g>
</svg>
