<?xml version="1.0" encoding="utf-8"?>
<!-- Generator: Adobe Illustrator 27.6.1, SVG Export Plug-In . SVG Version: 6.00 Build 0)  -->
<svg version="1.1" xmlns="http://www.w3.org/2000/svg" xmlns:xlink="http://www.w3.org/1999/xlink" x="0px" y="0px"
	 viewBox="0 0 120 120" style="enable-background:new 0 0 120 120;" xml:space="preserve">
<style type="text/css">
	.st0{fill:#CAB99E;}
	.st1{fill:#0049A8;}
	.st2{fill:#DEA748;}
	.st3{fill:#FFFFFF;}
	.st4{fill:#001F80;}
	.st5{fill:#ED0C27;}
	.st6{fill:#DE1E36;}
	.st7{fill:#D1D3D4;}
</style>
<g id="Layer_1">
	<g>
		<g>
			<path class="st0" d="M1257.1865,1555.7227c3.916,0,7.0908,3.1748,7.0908,7.0908v99.3721c0,3.9189-3.1748,7.0918-7.0908,7.0918
				h-99.374c-3.916,0-7.0908-3.1729-7.0908-7.0918v-99.3721c0-3.916,3.1748-7.0908,7.0908-7.0908H1257.1865 M1257.1865,1552.5
				h-99.374c-5.6875,0-10.3125,4.625-10.3125,10.3135v99.3721c0,5.6875,4.625,10.3145,10.3125,10.3145h99.374
				c5.6875,0,10.3135-4.627,10.3135-10.3145v-99.3721C1267.5,1557.125,1262.874,1552.5,1257.1865,1552.5L1257.1865,1552.5z"/>
		</g>
		<g>
			<path class="st1" d="M1257.1865,1555.7227h-99.374c-3.916,0-7.0908,3.1748-7.0908,7.0908v99.3721
				c0,3.9189,3.1748,7.0918,7.0908,7.0918h99.374c3.916,0,7.0908-3.1729,7.0908-7.0918v-99.3721
				C1264.2773,1558.8975,1261.1025,1555.7227,1257.1865,1555.7227z M1230.7295,1577.5469l1.6162-4.9746l1.6172,4.9746h5.2314
				l-4.2334,3.0742l1.6182,4.9746l-4.2334-3.0732l-4.2314,3.0732l1.6162-4.9746l-4.2314-3.0742H1230.7295z M1214.249,1574.6406
				l1.6172-4.9746l1.6172,4.9746h5.2305l-4.2324,3.0742l1.6172,4.9746l-4.2324-3.0742l-4.2324,3.0742l1.6172-4.9746l-4.2314-3.0742
				H1214.249z M1197.5156,1574.6406l1.6172-4.9746l1.6172,4.9746h5.2314l-4.2334,3.0742l1.6172,4.9746l-4.2324-3.0742
				l-4.2334,3.0742l1.6172-4.9746l-4.2324-3.0742H1197.5156z M1181.0361,1577.5469l1.6172-4.9746l1.6162,4.9746h5.2305
				l-4.2314,3.0742l1.6172,4.9746l-4.2324-3.0732l-4.2324,3.0732l1.6162-4.9746l-4.2324-3.0742H1181.0361z M1171.1611,1591.3203
				l-4.2334-3.0762l-4.2324,3.0762l1.6172-4.9746l-4.2314-3.0762h5.2305l1.6162-4.9746l1.6172,4.9746h5.2314l-4.2324,3.0762
				L1171.1611,1591.3203z M1242.3818,1618.6885c-0.1836,0-0.2432,0.084-0.2744,0.2217c-0.0303,0.1406-0.3037,0.1973-0.3037,0.1973
				l-0.2744-0.0566c0,0-0.1816,0-0.2734,0.1133c-0.0898,0.1113-0.2725,0.3359-0.1514,0.5312s0.1211,0.3086,0,0.3926
				s-0.1816,0.5039-0.3047,0.4199c-0.1201-0.084-0.2734,0.0273-0.3945,0.084c-0.1221,0.0557-0.0918,0.4473,0.1514,0.5879
				s0.3047,0.3359,0.3047,0.3359l0.2734,0.4199c0,0-0.0918,0.084-0.1514,0.2246c-0.0605,0.1387-0.2432,0.4199-0.0605,0.4746
				c0.1816,0.0566,0.0898,0.3652-0.0918,0.3652c-0.1826,0-0.3955-0.084-0.4258,0.1387c-0.0303,0.2246-0.1221,0.168-0.3037,0.1406
				c-0.1826-0.0273-0.6387-0.1406-0.7607,0.084c-0.1211,0.2246-0.1504,0.3086-0.3643,0.2793
				c-0.2139-0.0273-0.1211,0.3369-0.0605,0.4766c0.0605,0.1406,0.2744,0.3359,0.2744,0.3359s0.1816,0.1406,0.1816,0.4199
				s-0.123,0.252-0.2432,0.0566c-0.123-0.1953-0.3662-0.168-0.3955,0.0547c-0.0303,0.2246-0.0605,0.5605-0.2734,0.5605
				s-0.3037,0.0576-0.3955,0.168c-0.0908,0.1133-0.2432,0.3086-0.2432,0.4199c0,0.1133-0.0303,0.2246-0.1816,0.252
				c-0.1523,0.0293-0.1836,0.3359-0.1836,0.3359s-0.3643,0.0566-0.3945,0.1973c-0.0312,0.1406,0.0303,0.3633-0.2744,0.3936
				c-0.3027,0.0264-0.4863,0.2217-0.5771,0.3623s-0.1211,0.252,0,0.3906c0.1221,0.1406,0.2139,0.5898,0.3652,0.6738
				c0.1523,0.084,0.2734,0.1113,0.2432,0.334c-0.0312,0.2246-0.2129,0.3926,0.0303,0.3926s0.3945,0.0566,0.3047,0.252
				c-0.0918,0.1953-0.0918,0.2246-0.2744,0.3086s-0.2734,0.084-0.2734,0.3086c0,0.2227,0.0615,0.2227-0.0918,0.3066
				c-0.1514,0.084-0.1514,0.1973-0.1514,0.3652s-0.0615,0.1113-0.2432,0.3066c-0.1826,0.1973-0.4258,0.1973-0.5781,0.1406
				c-0.1514-0.0566-0.1816-0.0566-0.2119-0.2236c-0.0312-0.168-0.3047-0.168-0.4561-0.1396
				c-0.1523,0.0273-0.3662,0.1953-0.3662,0.1953s-0.2725,0.168-0.1504,0.3086c0.1211,0.1406,0.0605,0.3633-0.1523,0.3359
				c-0.2139-0.0273-0.7002,0.2246-0.8516-0.0273s-0.5781-0.4199-0.6377-0.084c-0.0605,0.3359,0.1826,0.3066,0.1514,0.6426
				c-0.0303,0.3359-0.0918,0.3359-0.2119,0.4492c-0.123,0.1113-0.123,0.1953-0.1543,0.3359
				c-0.0283,0.1406-0.0596,0.4473,0.1543,0.5586c0.2119,0.1133,0.3037,0.4199,0.3037,0.5879c0,0.1699,0,0.3369,0.2129,0.3369
				s0.3945-0.0283,0.4248-0.2236c0.0312-0.1973,0.4561-0.3086,0.4863,0.084c0.0312,0.3906,0.0312,0.5879,0.1826,0.7559
				c0.1523,0.168,0.2734,0.3926,0.3955,0.4746c0.1211,0.084,0.3262,0.7988,0.3262,0.7988
				c-0.2959,0.0625-0.3721,0.4492-0.5635,0.5264c-0.1055,0.042-0.2188,0.0068-0.3174,0.0771
				c-0.0762,0.0547-0.0762,0.1602-0.1836,0.209c-0.2197,0.0977-0.1816-0.2441-0.4473-0.1191
				c-0.2432,0.1113-0.2666,0.3926-0.6162,0.2734c-0.1826-0.0645-0.2969-0.7773-0.3496-0.9473
				c-0.0303-0.0957-0.2207-0.3906-0.2822-0.4805c-0.2041-0.3086-0.6143,0-0.7432-0.0918c-0.2051-0.1406-0.1152-0.377-0.4268-0.4043
				c-0.6299-0.0449-0.1816,0.3828-0.4482,0.4805c-0.5088,0.1836-0.5088-0.4746-0.8887-0.1738
				c-0.1445,0.1113,0.2275,0.1816,0.1367,0.3789c-0.0762,0.1602-0.4492,0.4043-0.4258,0.5938
				c0.0303,0.2598,0.3115,0.3359,0.3945,0.5527c0.2285,0.5742-0.1523,0.9746-0.7207,0.5264
				c-0.3184-0.2529-0.3799-0.7236-0.874-0.6865c-0.1143,0.0059-0.1523,0.125-0.2656,0.1406
				c-0.1152,0.0059-0.207-0.1055-0.3271-0.0703c-0.1836,0.0625-0.0244,0.1875-0.0615,0.293c0,0-0.2432,0.2031-0.2803,0.2598
				c-0.1377,0.1816-0.0918,0.3438-0.2891,0.4883c-0.168,0.127-0.2969,0.0508-0.4795,0.2461
				c-0.1895,0.2041-0.2041,0.5039-0.4482,0.6992c-0.1221,0.0996-0.2051-0.2949-0.3574-0.0332
				c-0.0225,0.0332-0.0449,0.0684-0.0596,0.1035c-0.04,0.0781-0.0459,0.1133-0.0088,0.1973
				c0.3193,0.6152-0.3496,0.8457-0.5537,1.2812c-0.0918,0.1816,0.1602,0.3496,0.0596,0.4902
				c-0.0674,0.1035-0.3643,0.3906-0.3867,0.4531c-0.0244,0.0645-0.0547,0.2051-0.1074,0.252
				c-0.0518,0.0566-0.2344,0.0293-0.251,0.1133c-0.0137,0.0977,0.1904,0.1738,0.2441,0.2363
				c0.0684,0.0781-0.0303,0.1816-0.0088,0.2031c0.3418,0.3438,0.1387,0.2383,0.3125,0.542c0.0225,0.041,0.1299-0.0381,0.168,0.0752
				c0.0371,0.1055-0.084,0.0977-0.0381,0.2168c0.0078,0.0352,0.251,0.3496,0.251,0.3574c0.0146,0.1035-0.4648,0.3223-0.5703,0.3223
				c-0.2891,0.0059,0.25-0.5957-0.2207-0.5957c-0.2051,0-0.2207,0.4688-0.2734,0.5176c-0.0234,0.0225-0.2129,0-0.2588,0
				c-0.3037,0-0.502,0.3789-0.6221,0.4141c-0.0771,0.0273-0.2432-0.043-0.373-0.0215c-0.1221,0.0215-0.2676,0.1387-0.3809,0.1387
				c-0.0752,0-0.1143-0.0488-0.1748-0.082c-0.1357-0.0781-0.3867-0.1133-0.5391-0.1621c-0.084-0.0273-0.2432,0.1055-0.2959,0.0703
				c-0.0996-0.0625,0.0674-0.2383-0.1602-0.3633c-0.0303-0.0146-0.1982-0.4199-0.1904-0.4434
				c0.0762-0.2637,0.1602-0.5508,0.123-0.832c-0.0469-0.2852-0.4951-0.5303-0.6172-0.7617
				c-0.0908-0.1758-0.1738-0.6387-0.3486-0.7559c-0.1904-0.127-0.3652-0.3711-0.4648-0.5605
				c-0.0293-0.0566,0.0615-0.1543-0.0068-0.252c-0.0762-0.1055-0.2217-0.1465-0.2578-0.2871c-0.0303-0.1113,0-0.4766-0.1299-0.5527
				c-0.1436-0.0859-1.0713-0.1943-1.2988-0.2168c-0.1221-0.0078-0.2129-0.0078-0.3037-0.0977
				c-0.0391-0.0352-0.0986-0.1836-0.1299-0.1836c-0.0918-0.0059-0.1982,0.043-0.2891,0.0488c-0.0674,0.0078-0.1816-0.041-0.2432,0
				c-0.2959,0.2031-0.373,0.4639-0.6533,0.6797c-0.2891,0.2168-0.6084,0.2109-0.8975,0.4629
				c-0.1816,0.1602-0.3037,0.5449-0.4863,0.7266c-0.0752,0.0781-0.1963,0-0.2275,0.0352c-0.1523,0.1895-0.3643,0.3027-0.5166,0.4775
				c-0.0312,0.0342-0.0225,0.1025-0.0615,0.1338l-0.3271,0.082c-0.083,0.0137-0.2432-0.0059-0.3105,0.0137
				c-0.1523,0.0488-0.1445,0.209-0.6621,0.3164c-0.0361,0.0059-0.1055,0.041-0.1357,0.0625
				c-0.0605,0.043-0.1074,0.1035-0.168,0.1465c-0.0371,0.0293-0.1514-0.0215-0.2197-0.0137
				c-0.1289,0.0195-0.2061,0.1338-0.3271,0.1465c-0.2734,0.0352-0.7148-0.127-0.9268-0.043
				c-0.1299,0.0508-0.4863,0.4492-0.6162,0.4902c-0.083,0.0293-0.1445-0.0059-0.2354-0.041
				c-0.0449,0.0566-0.1523,0.4902-0.1895,0.5879c0,0.0078-0.585,0.4961-0.6309,0.5527c-0.0771,0.084-0.1074,0.1758-0.1982,0.2656
				c-0.0605,0.0645-0.1592,0.1191-0.2578,0.1191c-0.1221,0-0.3037-0.0918-0.418-0.1113c-0.2207-0.0352-0.8828-0.0625-1.0801-0.0215
				c-0.2041,0.041-0.1445,0.6309-0.6533,0.6865c-0.2959,0.0361-0.5703,0.0908-0.873,0.1182c-0.0312,0-0.2139-0.125-0.3965-0.0752
				c-0.0684,0.0205-0.2881,0.2432-0.2881,0.3154v0.125c0,0.0195,0.0596,0.0977,0.0537,0.1055
				c-0.1143,0.1328-0.373,0.3418-0.457,0.4961c-0.0234,0.042-0.0537,0.0918-0.0908,0.1191
				c-0.0684,0.0488-0.4189,0.1816-0.4492,0.2441c-0.083,0.2109,0.2432,0.4062,0.2119,0.4902
				c-0.0889,0.2734-0.4551,0.5312-0.5693,0.7832c-0.0449,0.1074,0.1221,0.457,0.1143,0.5742
				c-0.0371,0.3311-0.1514,0.75-0.1357,1.0723c0,0.0625,0.0449,0.3906,0.0684,0.4277c0.0371,0.0625,0.1211,0.0977,0.1748,0.1543
				c0.0527,0.0547,0.4561,0.8398,0.4707,0.9219c0.0762,0.582-0.7676,0.3799-0.2803,0.9619
				c0.0742,0.0889,0.1357,0.1865,0.2188,0.2646c0.1074,0.1035,0.7295,0.5586,0.7383,0.6074c0.0146,0.084-0.502,0.1689-0.5928,0.2598
				c-0.2432,0.2383-0.4502,0.6797-0.6836,0.9238c-0.1445,0.1543-0.2744-0.0127-0.4648,0.3438c-0.0674,0.1309,0,0.4346-0.083,0.5186
				c-0.1221,0.126-0.2217-0.042-0.3418,0.0127c-0.0537,0.0215-0.083,0.1758-0.1377,0.2168
				c-0.1367,0.1191-1.3516,0.7637-1.4658,0.707c-0.0615-0.0273-0.1289-0.2295-0.1387-0.293
				c-0.0146-0.0703-0.0898-0.2246-0.1494-0.2734c-0.3125-0.2676-0.792-0.3145-1.0967,0.0078c-0.0752,0.084-0.083,0.209-0.1816,0.293
				c-0.167,0.1406-0.3564,0.2656-0.5166,0.4062c-0.0312,0.0273-0.1221,0.1328-0.1592,0.125
				c-0.1211-0.0137-0.4189-0.3496-0.4932-0.4414c-0.1387-0.1602-0.5332-0.5449-0.5713-0.7266c0-0.623-0.4873-1.2754-0.6924-1.8828
				l0.3047,0.0078c0.3418-0.2324,0.2432-0.7988,0.8594-0.5742c0.0752-0.1074,0.0684-0.2188,0.2129-0.2939
				c0.0527-0.0283,0.1514-0.0576,0.1816-0.1064c0.2051-0.3145,0.4482-1.5186,0.2354-1.8262
				c-0.1885-0.2812-0.3867-0.2656-0.5391-0.7285c-0.0459-0.127,0.0381-0.2734,0-0.4121c-0.0312-0.1133-0.2354-0.7773-0.2656-0.8262
				c-0.0391-0.0566-0.1689-0.127-0.1748-0.1621c-0.0078-0.0566-0.0527-0.7754-0.0303-0.834
				c-0.207-0.5586-0.8965-0.916-0.9355-0.9785c-0.083-0.1328-0.166-0.3086-0.2588-0.4551c-0.1055-0.1738-0.1055-0.2656-0.167-0.4336
				c-0.0225-0.0762-0.1357-0.1406-0.1436-0.2246c-0.0156-0.1465,0.4033-0.4551,0.3867-0.7148
				c-0.0068-0.082-0.2656-0.3359-0.2119-0.4746c0.0527-0.1465,0.3193-0.4746,0.3115-0.6367
				c-0.0156-0.2168-0.4189-0.6865-0.4707-0.918c-0.0244-0.1113,0.1592-0.2012,0.1133-0.2793
				c-0.0518-0.0977-0.4785-0.4844-0.5479-0.5957c-0.0518-0.084,0.1602-0.1973,0.0098-0.3496
				c-0.1387-0.1387-0.0254-0.0918-0.0615-0.21c-0.0469-0.1338-0.1982-0.25-0.2588-0.3916c-0.0527-0.1191-0.418-1.4355-0.4111-1.5117
				c-0.0596-0.0918-0.167-0.168-0.2197-0.2598s-0.0771-0.2656-0.1211-0.3359c-0.0088-0.0059-0.4121-0.126-0.4863-0.2461
				c-0.0615-0.0977-0.0762-0.418-0.1836-0.5801c-0.0527-0.0781-0.1357-0.0625-0.1973-0.1191
				c-0.0527-0.041-0.0459-0.1191-0.083-0.168c-0.123-0.168-0.3662-0.0127-0.5332-0.6309c-0.2197-0.1543-0.4258-0.2852-0.6143-0.4746
				c-0.0391-0.0342-0.0615-0.0781-0.1074-0.0977c-0.1514-0.0645-0.3789-0.084-0.5088-0.1953c-0.0771,0-0.4785-0.0137-0.5254-0.0449
				c-0.0439-0.0273-0.0898-0.2012-0.1201-0.209c-0.2129-0.041-0.5625-0.0195-0.7451-0.1738
				c-0.1436-0.127-0.1758-0.7344-0.4336-0.6504c-0.0303-0.0156-0.0684-0.0293-0.1064-0.0215
				c-0.167-0.2168-0.7451-0.2461-0.9805-0.3848c-0.0684-0.043-0.2891-0.0068-0.2891-0.0703
				c0.0527-0.1211,0.0391-0.2168,0.0469-0.3359c-0.1309-0.127-0.2139-0.2734-0.3057-0.3652
				c-0.2197-0.0469-0.1357-0.0703-0.2725-0.1543c-0.3809-0.0273-0.418,0.0352-0.6611,0.2598
				c-0.0615,0.0566-0.1826,0.0703-0.2588,0.1113c-0.1289,0.0703-0.167,0.3027-0.3506,0.1973
				c-0.0596-0.0352-0.0986-0.0918-0.1436-0.1328c-0.1064-0.0918-0.166-0.043-0.2207-0.2109
				c-0.3115-0.168-1.1699,0.4141-1.375,0.0078c-0.1445-0.0781-0.251,0.0205-0.3721-0.1045c-0.0615-0.0635,0.167-0.7646-0.457-1.0518
				c0.1455-0.1113,0.2969-0.1875,0.4326-0.293c0.0391-0.0781-0.0068-0.1963-0.0068-0.2734c0-0.1191,0.0762-0.3496,0.0537-0.4336
				s-0.1133-0.1543-0.1445-0.252c-0.0381-0.0977,0.0078-0.2246-0.0449-0.3281c-0.0391-0.0293-0.1523-0.0996-0.1982-0.0996
				c-0.1602-0.1328-0.334-0.2168-0.4639-0.377c-0.0303-0.0352-0.0527-0.0986-0.0918-0.127
				c-0.1133-0.084-0.4863-0.1953-0.4697-0.3711c0.0078-0.0566,0.083-0.0625,0.1055-0.1191
				c0.0225-0.0684,0.0078-0.1602,0.0605-0.2227c0.1758-0.2383,0.5635-0.1338,0.502-0.5742
				c-0.0312-0.1973-0.167-0.3652-0.2051-0.5742c-0.0674-0.0488-0.0762-0.1328-0.1367-0.1836
				c-0.3799-0.0332-0.3262-0.4258-0.4639-0.5176c-0.4023-0.2715-0.7139-0.1035-0.2656-0.6445
				c0.0605-0.1738-0.3877-0.4531-0.4785-0.5508c-0.1592-0.1543-0.084-0.4766-0.1455-0.6445
				c-0.0293-0.084-0.2959-0.2305-0.3799-0.3496c-0.0225-0.0352-0.0908-0.2168-0.1289-0.2383l0.0078-0.0566
				c0.083-0.0625,0.0371-0.1875,0.0146-0.2715c-0.0518-0.0508-0.167-0.0371-0.2041-0.0713
				c-0.3652-0.3291-0.8066-0.4756-1.2842-0.665c-0.1309-0.0488-0.0918-0.1543-0.1982-0.2031
				c-0.0918-0.041-0.7373-0.3281-0.7832-0.3145c-0.0762-0.0215-0.1289-0.3086-0.1826-0.3994
				c-0.0459-0.084-0.2275-0.2373-0.2275-0.2451c0.0146-0.2656-0.1523-0.3008-0.3574-0.4414
				c0.0156-0.0352-0.0225-0.1172-0.0225-0.1602c0-0.0352,0.1367-0.498,0.1592-0.5605c0.0391-0.0977,0.167-0.1875,0.1445-0.3008
				c-0.0293-0.1758-0.0527-0.4492-0.1133-0.6016c-0.2061-0.5469-0.4492-0.4766-0.3203-1.1895
				c0.0303-0.1484-0.0215-0.2324,0.0918-0.3652c-0.0156-0.0078,0.0537-0.0781,0.0605-0.0918
				c0.0693-0.0625,0.2588-0.168,0.2969-0.2148c0.1133-0.1543,0.1826-0.5059,0.3262-0.6172c0.1064-0.084,0.4102-0.2441,0.4639-0.3145
				c0.0469-0.0566,0.1143-0.2314,0.0762-0.3027c-0.1055-0.0625-0.2129-0.0332-0.3193-0.0469
				c-0.0381-0.0068-0.1748-0.1055-0.2812-0.127c-0.0312-0.0352-0.083-0.0762-0.083-0.125l-0.0459-0.043
				c-0.1211-0.0137-0.2578-0.0918-0.3643-0.125c-0.1377-0.0566-0.3271-0.0645-0.457-0.1406
				c-0.2422-0.1406-0.5156-0.5254-0.752-0.582c-0.3193-0.0684-0.5244,0.0273-0.8281,0.043
				c-0.1982,0.0137-0.1982-0.1055-0.3574-0.1543c-0.2129-0.0625-0.0527,0.1113-0.5391-0.043
				c-0.0605-0.0488,0.0293-0.2168,0.0371-0.2773c-0.0762-0.0234-0.167,0.0195-0.2578,0c-0.4033-0.0986-0.251-0.4629-0.3564-0.7012
				c-0.0469-0.0566-0.2139-0.043-0.291-0.0488c-0.0215-0.0078-0.0293-0.043-0.0215-0.0566l0.0371-0.0293
				c0.0684-0.1035-0.1748-0.3691-0.167-0.4043c0.0166-0.084,0.5098-0.1602,0.5781-0.168c0.0234-0.0625-0.0459-0.1191-0.0527-0.1816
				c-0.0156-0.1406,0.0762-0.3223,0.1211-0.4492l-0.0146-0.041c-0.1377-0.0781-0.1826-0.1895-0.3047-0.2812
				c0.0078-0.0625,0.0908-0.1035,0.1064-0.168c0.2354-0.6504,0.6006-0.1328,0.9199-0.7344
				c0.0303-0.0566,0.1211-0.2031,0.1523-0.3008l0.0596-0.0137c0.0615,0.0137,0.1455,0.0625,0.2061,0.041
				c0.0459-0.0615,0.1445-0.082,0.2207-0.1045l0.1133,0.0283c0.5928-0.127,0.457-0.3438,0.7988-0.5879
				c0.0908-0.0625,0.3564-0.0918,0.4785-0.1328c0.1289,0.0547,0.3105,0.2578,0.5547,0.3496c0.1748,0.0703,0.7754,0.1953,0.873,0.252
				c0.1309,0.0703,0.1533,0.2383,0.2666,0.3008c0.3418,0.1816,0.1436-0.126,0.4707-0.0625c0.335,0.0703,0.6084,0.3418,0.9199,0.4746
				c0.0537,0.0215,0.1836-0.0059,0.2441-0.0195c0.0977-0.0215,0.6299-0.1191,0.6836-0.0996
				c0.0605,0.0234,0.1514,0.0781,0.2119,0.0918c0.0762,0.0137,0.1377-0.1465,0.1895-0.1406c0.2285,0.0352,0.2363,0.127,0.541,0.0996
				c0.0146,0,0.1592-0.8535,0.3047-0.8965c0.083-0.0215,0.3105,0.2031,0.3789,0.2178c0.1143,0.0264-0.0078-0.1748-0.0156-0.1904
				c-0.0293-0.0703-0.1895-0.5938-0.1816-0.6416c0.0078-0.0303,0.1523,0.041,0.2207,0.0186
				c0.167-0.0566,0.3936-0.0977,0.5166-0.2305c0.0146-0.0137,0.2725-0.3848,0.2803-0.3984
				c0.0166-0.0645-0.0674-0.2109-0.0303-0.2598c0.0391-0.043,0.1826-0.0977,0.251-0.168c0.0986-0.0977,0.1143-0.2656,0.251-0.3359
				c0.54-0.0488,0.7295-0.4688,1.2158-0.5254c0.0303,0,0.1377-0.0215,0.1602-0.0137l0.0977,0.1611
				c0.0322,0.043,0.3584,0.2373,0.4111,0.2236c0.0459-0.0059,0.0684-0.084,0.1143-0.0967c0.0996,0.0127,0.3721-0.1553,0.4023-0.2393
				c0.0088-0.0127-0.0605-0.0977-0.0303-0.1543c0.0234-0.041,0.3662-0.293,0.4189-0.3223c0.1211,0,0.25-0.0273,0.3643,0.0137
				c0.0684,0.0293,0.0762,0.1348,0.1523,0.1484c0.084,0.0059,0.2344-0.0293,0.2959-0.0137c0.0693,0.0137,0.0986-0.127,0.1816-0.1348
				l0.0146,0.0156c0,0,0.3125-0.2109,0.4268-0.2383c0.1133-0.0273,0.5166-0.1543,0.5166-0.1543s0.2588-0.1328,0.3955-0.1328
				c0.1455,0,0.4258,0.1543,0.5166,0.2871c0.085,0.1328,0.541,0.3633,0.541,0.3633s0.3105,0.1055,0.3711,0
				c0.0605-0.1035,0.1982-0.1816,0.3418-0.1816c0.1445,0,0.168-0.1318,0.168-0.2363s0.0605-0.2402,0.166-0.3652
				c0.1152-0.1328,0.3438-0.2109,0.3438-0.2109s0.3105-0.1328,0.3418-0.3145c0.0303-0.1816,0.3408-0.3145,0.5166-0.3438
				c0.166-0.0273,0-0.1055,0.4561-0.0547c0.4551,0.0547,0.5166-0.1055,0.5381-0.2383c0.0312-0.1328,0-0.2656,0.2891-0.2383
				c0.2891,0.0293,0.4258,0.0293,0.4258-0.1318c0-0.1553,0.2588-0.2393-0.1973-0.3643c-0.4561-0.1328-0.4258-0.0273-0.4561-0.2402
				c-0.0303-0.209,0-0.1816-0.3115-0.209c-0.3125-0.0273-0.1436-0.1816-0.167-0.3418c-0.0303-0.1543-0.1143-0.2383-0.168-0.3428
				c-0.0615-0.1064-0.2275-0.1064-0.2275-0.2607s-0.0303-0.2383-0.1973-0.2383s-0.2275,0-0.2275-0.1523
				c0-0.1543,0.0312-0.2871,0.1973-0.2871c0.167,0,0.2588-0.1348,0.2275-0.2891c-0.0303-0.1523-0.0303-0.4961-0.0303-0.4961
				l0.2275-0.2656c0,0,0.6846-0.5527,0.7451-0.6582c0.0615-0.1045,0.2881-0.1816,0.3965,0.0273
				c0.1133,0.2109,0.166,0.2676,0.2578,0.3652c0.084,0.1055,0.3418,0.0273,0.3945-0.0762c0.0605-0.1055,0.083-0.4902,0.2373-0.7012
				c0.1504-0.2031,0.2578-0.3066,0.2949-0.4746s0.1143-0.3086,0.2959-0.3086c0.1836,0,0.2959-0.2383,0.2959-0.3789
				c0-0.1387,0.0762-0.2734,0.2979-0.3076c0.2197-0.0342,0.334-0.1689,0.4092,0.0342c0.0771,0.2031,0.1533,0.2031,0.2979,0.2734
				c0.1504,0.0703,0.3711,0.168,0.4785,0.0703c0.1133-0.1055,0.166-0.2734,0.335-0.168c0.1592,0.1055,0.2734,0,0.3096-0.2031
				c0.0391-0.2031,0.0771-0.4746,0.0771-0.4746s0.0381-0.1406,0.2959-0.1406c0.2588,0,0.0771-0.168,0.2217-0.2734
				c0.1504-0.1055,0.1504-0.2031,0.334-0.1406c0.1826,0.0703,0.4775-0.084,0.334-0.252c-0.1514-0.168-0.4785-0.4395-0.2959-0.6504
				c0.1816-0.2031,0.2578-0.5469,0.0752-0.582c-0.1826-0.0342-0.4473,0.0352-0.4785-0.168
				c-0.0381-0.2031-0.1133-0.3418,0.1143-0.377c0.2197-0.0352,0.5928-0.0352,0.707-0.1406s0.4775-0.168,0.4775-0.4766
				c0-0.3066,0.1133-0.3418,0.1523-0.5098c0.0381-0.168,0.0381-0.5254-0.1133-0.6934c-0.1523-0.168-0.373-0.4121-0.4111-0.5098
				c-0.0371-0.1055-0.1816-0.2754-0.4092-0.3438c-0.2217-0.0703-0.4111-0.1055-0.4111-0.2725c0-0.168,0.1523,0.0342,0.1523-0.415
				c0-0.4395-0.2969-0.5098-0.2969-0.5098l-0.4482-0.2734c0,0-0.79-0.2109-1.0029-0.2109s-0.4551-0.2227-0.2129-0.3633
				c0.2432-0.1406,0.3037-0.3906,0.2129-0.5879c-0.0918-0.1953-0.1523-0.3359-0.4863-0.4199
				c-0.335-0.084-0.4258-0.168-0.2734-0.3633c0.1514-0.1953,0.1816-0.3359,0.3643-0.1953c0.1826,0.1387,0.4863,0.1953,0.7295,0.084
				c0.2432-0.1133,0.334-0.1973,0.457-0.084c0.1201,0.1113,0.2725,0.2227,0.4551,0.0547c0.1816-0.168,0.5176-0.1953,0.668-0.1113
				c0.1523,0.084,0.5176,0.0566,0.6396,0c0.1211-0.0566,0.3643-0.252,0.3643-0.3652c0-0.1113,0.1523-0.3066,0.3037-0.3906
				s0.334-0.3652,0.4863-0.3652s0.2129-0.168,0.2129-0.2793s0.1221-0.3359,0.1523-0.4199s0.334-0.2021,0.5469-0.0293
				c0.2129,0.1699,0.4863,0.2246,0.4863,0.2246s0.3037,0.0566,0.457,0c0.1514-0.0547,0.3633-0.1113,0.5762,0.0273
				c0.2139,0.1406,0.5166,0.1406,0.5166,0.1406s0.0615-0.2227,0.0615-0.3359c0-0.1113,0.0615-0.3086-0.0615-0.3906
				c-0.1201-0.0859-0.2734-0.1973-0.0293-0.3652c0.2432-0.168,0.2432-0.1387,0.4863-0.1387s0.3955,0.0273,0.5771,0.0273
				c0.1826,0,0.4863,0.168,0.4863,0.3359s0.1221,0.2793,0.2734,0.3633c0.1523,0.084,0.335,0.168,0.2744,0.3086
				c-0.0615,0.1406-0.0615,0.252,0.1211,0.2227c0.1826-0.0273,0.2432,0.0859,0.2432,0.2246c0,0.1416,0.0605,0.2256,0.2432,0.2812
				c0.1826,0.0547,0.2734,0.168,0.2734,0.3066c0,0.1406-0.0303,0.2246,0.0303,0.3652c0.0605,0.1387,0.2441,0.3633,0.2441,0.3633
				s0.334,0.3926-0.0908,0.1953c-0.4268-0.1953-0.5176-0.2793-0.6699-0.25c-0.1523,0.0273-0.2432,0.1113-0.2432,0.1113
				s-0.2129,0.0566-0.3643,0.0566c-0.1523,0-0.3047,0.3066-0.0615,0.3633c0.2432,0.0576,0.335,0.1113,0.335,0.3086
				c0,0.1953-0.0918,0.1387-0.2129,0.2793c-0.1221,0.1387-0.2129,0.0566-0.4268,0.0566c-0.2119,0-0.2725,0.168-0.2725,0.3359
				s0.0908,0.1406,0.1826,0.2793c0.0898,0.1387,0.2432,0.166,0.3945,0.0293c0.1523-0.1406,0.2744-0.2246,0.3652,0.0273
				c0.0908,0.25,0.2129,0.25,0.3945,0.25c0.1826,0,0.2432,0,0.3955-0.082c0.1523-0.0859,0.334,0,0.3652,0.2227
				c0.0303,0.2256,0.1816,0.252,0.335,0.3359c0.1514,0.0859,0.2432,0.1406,0.2725,0.2812c0.0312,0.1387,0.1221,0.1953,0.2734,0.1113
				c0.1523-0.084,0.3955-0.1387,0.4863-0.0293c0.0918,0.1133,0.2432,0.3359,0.2432,0.3359l0.0312,0.2812l0.5771,0.1953
				c0,0,0.0605,0.1406,0.0605,0.252c0,0.1133,0.0918,0.1689,0.2441,0.1406c0.1504-0.0273,0.4248,0,0.4248,0
				s0.2119-0.084,0.2119-0.252s0.0918-0.2246,0.2451-0.2246c0.1523,0,0.4863,0.1133,0.5771-0.0547
				c0.0918-0.168,0.3662-0.2246,0.5781-0.1406c0.2129,0.084,0.7607,0.3086,0.7607,0.3086s-0.0615,0.0273,0.1201,0.3076
				c0.1826,0.2803,0.5166,0.2803,0.5166,0.2803s0.0312,0.252,0.0928,0.3633c0.0596,0.1133,0.334,0.168,0.4854,0.0566
				s0.3652-0.252,0.5479-0.252c0.1816,0,0.3037,0,0.3037-0.1113c0-0.1133-0.1826-0.1973-0.1826-0.3652s0.1826-0.168,0.2129-0.3359
				s0.2129,0,0.334,0.084c0.1221,0.084,0.2744,0.2246,0.2744,0.3359c0,0.1123,0.2432,0.5039,0.3936,0.5605
				c0.1533,0.0566,0.5479,0.084,0.6709-0.0566c0.1201-0.1387,0.4248-0.1953,0.3936,0.1406
				c-0.0303,0.3359-0.0908,0.3633,0.123,0.4766c0.2129,0.1113,0.2432,0.5039,0.0605,0.6162
				c-0.1836,0.1104-0.2432,0.1396-0.2432,0.335c0,0.1973-0.0615,0.4199,0.0908,0.5332c0.1523,0.1094,0.2432,0.1953,0.2432,0.3066
				s0.1816,0.6162,0.1816,0.6162s0.0918,0.5029,0.0615,0.6162c-0.0312,0.1113-0.0908,0.3086,0.1816,0.2793
				c0.2734-0.0273,0.335-0.0273,0.335,0.1953c0,0.2246,0.0918,0.3086-0.0615,0.3926c-0.1514,0.084-0.2432,0.3652-0.0898,0.4199
				c0.1514,0.0566,0.2734,0.1406,0.3037,0.252c0.0293,0.1133,0.2725,0.3086,0.4258,0.1973c0.1514-0.1133,0.1816-0.168,0.3037-0.1973
				c0.1211-0.0273,0.2119-0.1113,0.0908-0.252c-0.1221-0.1387-0.1514-0.2783-0.0303-0.3623
				c0.1221-0.085,0.1826-0.3662,0.1826-0.3662s0.1826-0.25,0.3955,0c0.2119,0.2539,0.2432,0.1699,0.3936,0.1699
				c0.1533,0,0.2139,0.1387,0.2139,0.2803c0,0.1396,0.3037,0.1104,0.3037,0.335s0.0605,0.7559,0.0605,0.7559s0,0.3086,0.1826,0.4199
				c0.1826,0.1143,0.1523,0.1406,0.0605,0.2803c-0.0908,0.1396-0.0605,0.3643-0.0605,0.4756c0,0.1133,0.0605,0.168-0.0898,0.2812
				c-0.1533,0.1094-0.2139,0.25-0.123,0.418c0.0918,0.168,0.0615,0.2812,0.3047,0.4766s0.2119,0.2812,0.2119,0.4199
				c0,0.1406,0.2432,0.3359,0.2432,0.4766s0.1836,0.3086,0.335,0.3359s0.335,0.2793,0.335,0.4199s0.0303,0.5039,0.0303,0.5039
				s-0.0303,0.084,0.1523,0.084c0.1816,0,0.3027,0.1973,0.3633-0.0273c0.0615-0.2246,0.2432-0.252,0.3662-0.3086
				c0.1201-0.0537,0.3633-0.168,0.4863-0.084c0.1201,0.084,0.2734,0.084,0.3936,0.084c0.123,0,0.7002,0.0293,0.7002,0.0293
				s0.1523-0.0293,0.2432,0.1953s0.3643,0.4746,0.2139,0.5879c-0.1533,0.1113-0.1533,0.3359,0.0303,0.3359
				c0.1816,0,0.3633,0,0.3633,0.1406s0.0312,0.25,0.1826,0.168c0.1523-0.084,0.2441-0.1133,0.3037,0
				c0.0615,0.1123,0.1826,0.1123,0.335,0.1963c0.1514,0.084,0.2129,0.0264,0.3037-0.084c0.0908-0.1123,0.457-0.2256,0.457-0.2256
				s0.4854-0.1113,0.668-0.0547c0.1826,0.0547,0.4258,0.168,0.4258,0.168s0.1211,0.2803,0.0605,0.4473
				c-0.0605,0.168-0.1211,0.1406-0.0605,0.3926c0.0605,0.25-0.0605,0.2793-0.1826,0.25c-0.1211-0.0273-0.2432-0.0273-0.2432,0.1973
				s-0.1211,0.2793-0.1211,0.4746c0,0.1973,0,0.1699-0.1221,0.2539c-0.1211,0.084-0.1514,0.2236,0.0303,0.252
				c0.1816,0.0273,0.1221,0.2246,0.1221,0.3359s-0.0303,0.3633-0.0303,0.3633s0.0303,0.1406-0.1836,0.1406
				c-0.2129,0-0.3945-0.0273-0.4248,0.1113c-0.0312,0.1406-0.2734,0.3652-0.0615,0.5039c0.2139,0.1416,0.1533,0.2246,0.0303,0.2812
				c-0.1201,0.0547-0.2119,0.3359,0.0312,0.4199s0.2119,0.168,0.0615,0.2793c-0.1523,0.1133-0.457,0.1973-0.457,0.3652
				c0,0.1689-0.0605,0.1689-0.2432,0.1953c-0.1826,0.0273-0.2725,0.252-0.0605,0.5312c0.2129,0.2812,0.2744,0.2227,0.4258,0.2227
				s0.1514-0.2227,0.1514-0.2227s0.5176,0.0273,0.6689,0.0273s0.3652,0,0.4863-0.082c0.1221-0.085,0.4561-0.2246,0.4561,0.0273
				c0,0.25,0.0615,0.2227,0.2129,0.3359c0.1533,0.1113,0.1826,0.0273,0.3037,0.1953c0.1221,0.168,0.1523,0.0273,0.2432-0.168
				c0.0928-0.1953,0.2744-0.3906,0.4268-0.168c0.1523,0.2246,0.1523,0.168,0.334,0.168s0.2422,0.084,0.2422,0.2246
				c0,0.1387,0.1826,0.1387,0.3965,0.1113s0.2432,0.1133,0.334,0.252c0.0928,0.1406,0.123,0.1113,0.2432,0.1113
				c0.123,0,0.2432,0,0.335-0.1113s0.2129-0.252,0.335-0.084c0.1211,0.168,0.3643,0.1406,0.4258-0.0547
				c0.0596-0.1973,0.334-0.3652,0.4863-0.1406c0.1514,0.2227,0.2734,0.2227,0.4248,0.252c0.1523,0.0273,0.3652,0.0273,0.4551,0.168
				c0.0928,0.1387,0.3965,0.3633,0.1836,0.5312s-0.4561,0.3926-0.2734,0.4492c0.1826,0.0547,0.3037,0.1113,0.4258,0.252
				c0.1211,0.1387,0.5166,0.1953,0.6982,0.2227c0.1826,0.0293,0.335,0.0566,0.5479-0.1113c0.2119-0.168,0.4248-0.168,0.3955,0.0566
				c-0.0312,0.2227,0.0908,0.4775,0.0908,0.4775s0.1523,0.3623,0.1523,0.502s-0.0312,0.167,0.2422,0.3369
				c0.2744,0.168,0.2432,0.2793,0.457,0.1113c0.2129-0.168,0.2725-0.252,0.2725-0.3926c0-0.1387,0-0.4473,0-0.4473
				s0.3047-0.0566,0.4268-0.1406c0.1211-0.084,0.6074-0.3359,0.7285-0.2246c0.1221,0.1133,0.2744,0.084,0.3955,0.0293
				c0.1221-0.0566,0.3652-0.0566,0.4863-0.0566c0.1221,0,0.334,0.0273,0.5771-0.168s0.2432-0.1406,0.3965,0
				c0.1514,0.1406,0.1514,0.3086,0.0596,0.4199c-0.0898,0.1143,0,0.3643,0.2129,0.3643c0.2139,0,0.2744,0.1123,0.2744,0.2529
				c0,0.1387,0.0293,0.3359,0.0605,0.4473c0.0303,0.1113,0.0303,0.166,0.3652,0.252c0.333,0.084,0.2725,0.2793,0.333,0.4199
				C1242.5635,1618.5762,1242.5635,1618.6885,1242.3818,1618.6885z M1252.3037,1591.3203l-4.2324-3.0762l-4.2334,3.0762
				l1.6162-4.9746l-4.2314-3.0762h5.2314l1.6172-4.9746l1.6162,4.9746h5.2314l-4.2324,3.0762L1252.3037,1591.3203z"/>
			<path class="st2" d="M1242.1689,1618.0156c-0.335-0.0859-0.335-0.1406-0.3652-0.252c-0.0312-0.1113-0.0605-0.3086-0.0605-0.4473
				c0-0.1406-0.0605-0.2529-0.2744-0.2529c-0.2129,0-0.3027-0.25-0.2129-0.3643c0.0918-0.1113,0.0918-0.2793-0.0596-0.4199
				c-0.1533-0.1406-0.1533-0.1953-0.3965,0s-0.4551,0.168-0.5771,0.168c-0.1211,0-0.3643,0-0.4863,0.0566
				c-0.1211,0.0547-0.2734,0.084-0.3955-0.0293c-0.1211-0.1113-0.6074,0.1406-0.7285,0.2246
				c-0.1221,0.084-0.4268,0.1406-0.4268,0.1406s0,0.3086,0,0.4473c0,0.1406-0.0596,0.2246-0.2725,0.3926
				c-0.2139,0.168-0.1826,0.0566-0.457-0.1113c-0.2734-0.1699-0.2422-0.1973-0.2422-0.3369s-0.1523-0.502-0.1523-0.502
				s-0.1221-0.2549-0.0908-0.4775c0.0293-0.2246-0.1836-0.2246-0.3955-0.0566c-0.2129,0.168-0.3652,0.1406-0.5479,0.1113
				c-0.1816-0.0273-0.5771-0.084-0.6982-0.2227c-0.1221-0.1406-0.2432-0.1973-0.4258-0.252
				c-0.1826-0.0566,0.0605-0.2812,0.2734-0.4492s-0.0908-0.3926-0.1836-0.5312c-0.0898-0.1406-0.3027-0.1406-0.4551-0.168
				c-0.1514-0.0293-0.2734-0.0293-0.4248-0.252c-0.1523-0.2246-0.4268-0.0566-0.4863,0.1406
				c-0.0615,0.1953-0.3047,0.2227-0.4258,0.0547c-0.1221-0.168-0.2432-0.0273-0.335,0.084s-0.2119,0.1113-0.335,0.1113
				c-0.1201,0-0.1504,0.0293-0.2432-0.1113c-0.0908-0.1387-0.1201-0.2793-0.334-0.252s-0.3965,0.0273-0.3965-0.1113
				c0-0.1406-0.0605-0.2246-0.2422-0.2246s-0.1816,0.0566-0.334-0.168c-0.1523-0.2227-0.334-0.0273-0.4268,0.168
				c-0.0908,0.1953-0.1211,0.3359-0.2432,0.168c-0.1211-0.168-0.1504-0.084-0.3037-0.1953
				c-0.1514-0.1133-0.2129-0.0859-0.2129-0.3359c0-0.252-0.334-0.1123-0.4561-0.0273c-0.1211,0.082-0.335,0.082-0.4863,0.082
				s-0.6689-0.0273-0.6689-0.0273s0,0.2227-0.1514,0.2227s-0.2129,0.0586-0.4258-0.2227c-0.2119-0.2793-0.1221-0.5039,0.0605-0.5312
				c0.1826-0.0264,0.2432-0.0264,0.2432-0.1953c0-0.168,0.3047-0.252,0.457-0.3652c0.1504-0.1113,0.1816-0.1953-0.0615-0.2793
				s-0.1514-0.3652-0.0312-0.4199c0.123-0.0566,0.1836-0.1396-0.0303-0.2812c-0.2119-0.1387,0.0303-0.3633,0.0615-0.5039
				c0.0303-0.1387,0.2119-0.1113,0.4248-0.1113c0.2139,0,0.1836-0.1406,0.1836-0.1406s0.0303-0.252,0.0303-0.3633
				s0.0596-0.3086-0.1221-0.3359c-0.1816-0.0283-0.1514-0.168-0.0303-0.252c0.1221-0.084,0.1221-0.0566,0.1221-0.2539
				c0-0.1953,0.1211-0.25,0.1211-0.4746s0.1221-0.2246,0.2432-0.1973c0.1221,0.0293,0.2432,0,0.1826-0.25
				c-0.0605-0.252,0-0.2246,0.0605-0.3926c0.0605-0.167-0.0605-0.4473-0.0605-0.4473s-0.2432-0.1133-0.4258-0.168
				c-0.1826-0.0566-0.668,0.0547-0.668,0.0547s-0.3662,0.1133-0.457,0.2256c-0.0908,0.1104-0.1523,0.168-0.3037,0.084
				c-0.1523-0.084-0.2734-0.084-0.335-0.1963c-0.0596-0.1133-0.1514-0.084-0.3037,0c-0.1514,0.082-0.1826-0.0273-0.1826-0.168
				s-0.1816-0.1406-0.3633-0.1406c-0.1836,0-0.1836-0.2246-0.0303-0.3359c0.1504-0.1133-0.123-0.3633-0.2139-0.5879
				s-0.2432-0.1953-0.2432-0.1953s-0.5771-0.0293-0.7002-0.0293c-0.1201,0-0.2734,0-0.3936-0.084
				c-0.123-0.084-0.3662,0.0303-0.4863,0.084c-0.123,0.0566-0.3047,0.084-0.3662,0.3086c-0.0605,0.2246-0.1816,0.0273-0.3633,0.0273
				c-0.1826,0-0.1523-0.084-0.1523-0.084s-0.0303-0.3633-0.0303-0.5039s-0.1836-0.3926-0.335-0.4199s-0.335-0.1953-0.335-0.3359
				s-0.2432-0.3359-0.2432-0.4766c0-0.1387,0.0312-0.2246-0.2119-0.4199s-0.2129-0.3086-0.3047-0.4766
				c-0.0908-0.168-0.0303-0.3086,0.123-0.418c0.1504-0.1133,0.0898-0.168,0.0898-0.2812c0-0.1113-0.0303-0.3359,0.0605-0.4756
				c0.0918-0.1396,0.1221-0.166-0.0605-0.2803c-0.1826-0.1113-0.1826-0.4199-0.1826-0.4199s-0.0605-0.5312-0.0605-0.7559
				s-0.3037-0.1953-0.3037-0.335c0-0.1416-0.0605-0.2803-0.2139-0.2803c-0.1504,0-0.1816,0.084-0.3936-0.1699
				c-0.2129-0.25-0.3955,0-0.3955,0s-0.0605,0.2812-0.1826,0.3662c-0.1211,0.084-0.0918,0.2236,0.0303,0.3623
				c0.1211,0.1406,0.0303,0.2246-0.0908,0.252c-0.1221,0.0293-0.1523,0.084-0.3037,0.1973
				c-0.1533,0.1113-0.3965-0.084-0.4258-0.1973c-0.0303-0.1113-0.1523-0.1953-0.3037-0.252
				c-0.1533-0.0547-0.0615-0.3359,0.0898-0.4199c0.1533-0.084,0.0615-0.168,0.0615-0.3926c0-0.2227-0.0615-0.2227-0.335-0.1953
				c-0.2725,0.0293-0.2129-0.168-0.1816-0.2793c0.0303-0.1133-0.0615-0.6162-0.0615-0.6162s-0.1816-0.5049-0.1816-0.6162
				s-0.0908-0.1973-0.2432-0.3066c-0.1523-0.1133-0.0908-0.3359-0.0908-0.5332c0-0.1953,0.0596-0.2246,0.2432-0.335
				c0.1826-0.1123,0.1523-0.5049-0.0605-0.6162c-0.2139-0.1133-0.1533-0.1406-0.123-0.4766
				c0.0312-0.3359-0.2734-0.2793-0.3936-0.1406c-0.123,0.1406-0.5176,0.1133-0.6709,0.0566
				c-0.1504-0.0566-0.3936-0.4482-0.3936-0.5605c0-0.1113-0.1523-0.252-0.2744-0.3359c-0.1211-0.084-0.3037-0.252-0.334-0.084
				s-0.2129,0.168-0.2129,0.3359s0.1826,0.252,0.1826,0.3652c0,0.1113-0.1221,0.1113-0.3037,0.1113
				c-0.1826,0-0.3965,0.1406-0.5479,0.252s-0.4258,0.0566-0.4854-0.0566c-0.0615-0.1113-0.0928-0.3633-0.0928-0.3633
				s-0.334,0-0.5166-0.2803c-0.1816-0.2803-0.1201-0.3076-0.1201-0.3076s-0.5479-0.2246-0.7607-0.3086
				c-0.2119-0.084-0.4863-0.0273-0.5781,0.1406c-0.0908,0.168-0.4248,0.0547-0.5771,0.0547c-0.1533,0-0.2451,0.0566-0.2451,0.2246
				s-0.2119,0.252-0.2119,0.252s-0.2744-0.0273-0.4248,0c-0.1523,0.0283-0.2441-0.0273-0.2441-0.1406
				c0-0.1113-0.0605-0.252-0.0605-0.252l-0.5771-0.1953l-0.0312-0.2812c0,0-0.1514-0.2227-0.2432-0.3359
				c-0.0908-0.1094-0.334-0.0547-0.4863,0.0293c-0.1514,0.084-0.2422,0.0273-0.2734-0.1113
				c-0.0293-0.1406-0.1211-0.1953-0.2725-0.2812c-0.1533-0.084-0.3047-0.1104-0.335-0.3359
				c-0.0312-0.2227-0.2129-0.3086-0.3652-0.2227c-0.1523,0.082-0.2129,0.082-0.3955,0.082c-0.1816,0-0.3037,0-0.3945-0.25
				c-0.0908-0.252-0.2129-0.168-0.3652-0.0273c-0.1514,0.1367-0.3047,0.1094-0.3945-0.0293
				c-0.0918-0.1387-0.1826-0.1113-0.1826-0.2793s0.0605-0.3359,0.2725-0.3359c0.2139,0,0.3047,0.082,0.4268-0.0566
				c0.1211-0.1406,0.2129-0.084,0.2129-0.2793c0-0.1973-0.0918-0.251-0.335-0.3086c-0.2432-0.0566-0.0908-0.3633,0.0615-0.3633
				c0.1514,0,0.3643-0.0566,0.3643-0.0566s0.0908-0.084,0.2432-0.1113c0.1523-0.0293,0.2432,0.0547,0.6699,0.25
				c0.4248,0.1973,0.0908-0.1953,0.0908-0.1953s-0.1836-0.2246-0.2441-0.3633c-0.0605-0.1406-0.0303-0.2246-0.0303-0.3652
				c0-0.1387-0.0908-0.252-0.2734-0.3066c-0.1826-0.0557-0.2432-0.1396-0.2432-0.2812c0-0.1387-0.0605-0.252-0.2432-0.2246
				c-0.1826,0.0293-0.1826-0.082-0.1211-0.2227c0.0605-0.1406-0.1221-0.2246-0.2744-0.3086
				c-0.1514-0.084-0.2734-0.1953-0.2734-0.3633s-0.3037-0.3359-0.4863-0.3359c-0.1816,0-0.334-0.0273-0.5771-0.0273
				s-0.2432-0.0293-0.4863,0.1387c-0.2441,0.168-0.0908,0.2793,0.0293,0.3652c0.123,0.082,0.0615,0.2793,0.0615,0.3906
				c0,0.1133-0.0615,0.3359-0.0615,0.3359s-0.3027,0-0.5166-0.1406c-0.2129-0.1387-0.4248-0.082-0.5762-0.0273
				c-0.1533,0.0566-0.457,0-0.457,0s-0.2734-0.0547-0.4863-0.2246c-0.2129-0.1729-0.5166-0.0547-0.5469,0.0293
				s-0.1523,0.3086-0.1523,0.4199s-0.0605,0.2793-0.2129,0.2793s-0.335,0.2812-0.4863,0.3652s-0.3037,0.2793-0.3037,0.3906
				c0,0.1133-0.2432,0.3086-0.3643,0.3652c-0.1221,0.0566-0.4873,0.084-0.6396,0c-0.1504-0.084-0.4863-0.0566-0.668,0.1113
				c-0.1826,0.168-0.335,0.0566-0.4551-0.0547c-0.123-0.1133-0.2139-0.0293-0.457,0.084c-0.2432,0.1113-0.5469,0.0547-0.7295-0.084
				c-0.1826-0.1406-0.2129,0-0.3643,0.1953c-0.1523,0.1953-0.0615,0.2793,0.2734,0.3633c0.334,0.084,0.3945,0.2246,0.4863,0.4199
				c0.0908,0.1973,0.0303,0.4473-0.2129,0.5879c-0.2422,0.1406,0,0.3633,0.2129,0.3633s1.0029,0.2109,1.0029,0.2109l0.4482,0.2734
				c0,0,0.2969,0.0703,0.2969,0.5098c0,0.4492-0.1523,0.2471-0.1523,0.415c0,0.167,0.1895,0.2021,0.4111,0.2725
				c0.2275,0.0684,0.3721,0.2383,0.4092,0.3438c0.0381,0.0977,0.2588,0.3418,0.4111,0.5098
				c0.1514,0.168,0.1514,0.5254,0.1133,0.6934c-0.0391,0.168-0.1523,0.2031-0.1523,0.5098c0,0.3086-0.3633,0.3711-0.4775,0.4766
				s-0.4873,0.1055-0.707,0.1406c-0.2275,0.0352-0.1523,0.1738-0.1143,0.377c0.0312,0.2031,0.2959,0.1338,0.4785,0.168
				c0.1826,0.0352,0.1064,0.3789-0.0752,0.582c-0.1826,0.2109,0.1445,0.4824,0.2959,0.6504c0.1436,0.168-0.1514,0.3223-0.334,0.252
				c-0.1836-0.0625-0.1836,0.0352-0.334,0.1406c-0.1445,0.1055,0.0371,0.2734-0.2217,0.2734c-0.2578,0-0.2959,0.1406-0.2959,0.1406
				s-0.0381,0.2715-0.0771,0.4746c-0.0361,0.2031-0.1504,0.3086-0.3096,0.2031c-0.1689-0.1055-0.2217,0.0625-0.335,0.168
				c-0.1074,0.0977-0.3281,0-0.4785-0.0703c-0.1445-0.0703-0.2207-0.0703-0.2979-0.2734c-0.0752-0.2031-0.1895-0.0684-0.4092-0.0342
				c-0.2217,0.0342-0.2979,0.1689-0.2979,0.3076c0,0.1406-0.1123,0.3789-0.2959,0.3789c-0.1816,0-0.2588,0.1406-0.2959,0.3086
				s-0.1445,0.2715-0.2949,0.4746c-0.1543,0.2109-0.1768,0.5957-0.2373,0.7012c-0.0527,0.1035-0.3105,0.1816-0.3945,0.0762
				c-0.0918-0.0977-0.1445-0.1543-0.2578-0.3652c-0.1084-0.209-0.335-0.1318-0.3965-0.0273
				c-0.0605,0.1055-0.7451,0.6582-0.7451,0.6582l-0.2275,0.2656c0,0,0,0.3438,0.0303,0.4961
				c0.0312,0.1543-0.0605,0.2891-0.2275,0.2891c-0.166,0-0.1973,0.1328-0.1973,0.2871c0,0.1523,0.0605,0.1523,0.2275,0.1523
				s0.1973,0.084,0.1973,0.2383s0.166,0.1543,0.2275,0.2607c0.0537,0.1045,0.1377,0.1885,0.168,0.3428
				c0.0234,0.1602-0.1455,0.3145,0.167,0.3418c0.3115,0.0273,0.2812,0,0.3115,0.209c0.0303,0.2129,0,0.1074,0.4561,0.2402
				c0.4561,0.125,0.1973,0.209,0.1973,0.3643c0,0.1611-0.1367,0.1611-0.4258,0.1318c-0.2891-0.0273-0.2578,0.1055-0.2891,0.2383
				c-0.0215,0.1328-0.083,0.293-0.5381,0.2383c-0.4561-0.0508-0.29,0.0273-0.4561,0.0547
				c-0.1758,0.0293-0.4863,0.1621-0.5166,0.3438c-0.0312,0.1816-0.3418,0.3145-0.3418,0.3145s-0.2285,0.0781-0.3438,0.2109
				c-0.1055,0.125-0.166,0.2607-0.166,0.3652s-0.0234,0.2363-0.168,0.2363c-0.1436,0-0.2812,0.0781-0.3418,0.1816
				c-0.0605,0.1055-0.3711,0-0.3711,0s-0.4561-0.2305-0.541-0.3633c-0.0908-0.1328-0.3711-0.2871-0.5166-0.2871
				c-0.1367,0-0.3955,0.1328-0.3955,0.1328s-0.4033,0.127-0.5166,0.1543c-0.1143,0.0273-0.4268,0.2383-0.4268,0.2383l-0.0146-0.0156
				c-0.083,0.0078-0.1123,0.1484-0.1816,0.1348c-0.0615-0.0156-0.2119,0.0195-0.2959,0.0137
				c-0.0762-0.0137-0.084-0.1191-0.1523-0.1484c-0.1143-0.041-0.2432-0.0137-0.3643-0.0137
				c-0.0527,0.0293-0.3955,0.2812-0.4189,0.3223c-0.0303,0.0566,0.0391,0.1416,0.0303,0.1543
				c-0.0303,0.084-0.3027,0.252-0.4023,0.2393c-0.0459,0.0127-0.0684,0.0908-0.1143,0.0967
				c-0.0527,0.0137-0.3789-0.1807-0.4111-0.2236l-0.0977-0.1611c-0.0225-0.0078-0.1299,0.0137-0.1602,0.0137
				c-0.4863,0.0566-0.6758,0.4766-1.2158,0.5254c-0.1367,0.0703-0.1523,0.2383-0.251,0.3359
				c-0.0684,0.0703-0.2119,0.125-0.251,0.168c-0.0371,0.0488,0.0469,0.1953,0.0303,0.2598
				c-0.0078,0.0137-0.2656,0.3848-0.2803,0.3984c-0.123,0.1328-0.3496,0.1738-0.5166,0.2305
				c-0.0684,0.0225-0.2129-0.0488-0.2207-0.0186c-0.0078,0.0479,0.1523,0.5713,0.1816,0.6416
				c0.0078,0.0156,0.1299,0.2168,0.0156,0.1904c-0.0684-0.0146-0.2959-0.2393-0.3789-0.2178
				c-0.1455,0.043-0.29,0.8965-0.3047,0.8965c-0.3047,0.0273-0.3125-0.0645-0.541-0.0996
				c-0.0518-0.0059-0.1133,0.1543-0.1895,0.1406c-0.0605-0.0137-0.1514-0.0684-0.2119-0.0918
				c-0.0537-0.0195-0.5859,0.0781-0.6836,0.0996c-0.0605,0.0137-0.1904,0.041-0.2441,0.0195
				c-0.3115-0.1328-0.585-0.4043-0.9199-0.4746c-0.3271-0.0635-0.1289,0.2441-0.4707,0.0625
				c-0.1133-0.0625-0.1357-0.2305-0.2666-0.3008c-0.0977-0.0566-0.6982-0.1816-0.873-0.252
				c-0.2441-0.0918-0.4258-0.2949-0.5547-0.3496c-0.1221,0.041-0.3877,0.0703-0.4785,0.1328
				c-0.3418,0.2441-0.2061,0.4609-0.7988,0.5879l-0.1133-0.0283c-0.0762,0.0225-0.1748,0.043-0.2207,0.1045
				c-0.0605,0.0215-0.1445-0.0273-0.2061-0.041l-0.0596,0.0137c-0.0312,0.0977-0.1221,0.2441-0.1523,0.3008
				c-0.3193,0.6016-0.6846,0.084-0.9199,0.7344c-0.0156,0.0645-0.0986,0.1055-0.1064,0.168
				c0.1221,0.0918,0.167,0.2031,0.3047,0.2812l0.0146,0.041c-0.0449,0.127-0.1367,0.3086-0.1211,0.4492
				c0.0068,0.0625,0.0762,0.1191,0.0527,0.1816c-0.0684,0.0078-0.5615,0.084-0.5781,0.168
				c-0.0078,0.0352,0.2354,0.3008,0.167,0.4043l-0.0371,0.0293c-0.0078,0.0137,0,0.0488,0.0215,0.0566
				c0.0771,0.0059,0.2441-0.0078,0.291,0.0488c0.1055,0.2383-0.0469,0.6025,0.3564,0.7012c0.0908,0.0195,0.1816-0.0234,0.2578,0
				c-0.0078,0.0605-0.0977,0.2285-0.0371,0.2773c0.4863,0.1543,0.3262-0.0195,0.5391,0.043
				c0.1592,0.0488,0.1592,0.168,0.3574,0.1543c0.3037-0.0156,0.5088-0.1113,0.8281-0.043c0.2363,0.0566,0.5098,0.4414,0.752,0.582
				c0.1299,0.0762,0.3193,0.084,0.457,0.1406c0.1064,0.0332,0.2432,0.1113,0.3643,0.125l0.0459,0.043
				c0,0.0488,0.0518,0.0898,0.083,0.125c0.1064,0.0215,0.2432,0.1201,0.2812,0.127c0.1064,0.0137,0.2139-0.0156,0.3193,0.0469
				c0.0381,0.0713-0.0293,0.2461-0.0762,0.3027c-0.0537,0.0703-0.3574,0.2305-0.4639,0.3145
				c-0.1436,0.1113-0.2129,0.4629-0.3262,0.6172c-0.0381,0.0469-0.2275,0.1523-0.2969,0.2148
				c-0.0068,0.0137-0.0762,0.084-0.0605,0.0918c-0.1133,0.1328-0.0615,0.2168-0.0918,0.3652
				c-0.1289,0.7129,0.1143,0.6426,0.3203,1.1895c0.0605,0.1523,0.084,0.4258,0.1133,0.6016
				c0.0225,0.1133-0.1055,0.2031-0.1445,0.3008c-0.0225,0.0625-0.1592,0.5254-0.1592,0.5605c0,0.043,0.0381,0.125,0.0225,0.1602
				c0.2051,0.1406,0.3721,0.1758,0.3574,0.4414c0,0.0078,0.1816,0.1611,0.2275,0.2451c0.0537,0.0908,0.1064,0.3779,0.1826,0.3994
				c0.0459-0.0137,0.6914,0.2734,0.7832,0.3145c0.1064,0.0488,0.0674,0.1543,0.1982,0.2031
				c0.4775,0.1895,0.9189,0.3359,1.2842,0.665c0.0371,0.0342,0.1523,0.0205,0.2041,0.0713c0.0225,0.084,0.0684,0.209-0.0146,0.2715
				l-0.0078,0.0566c0.0381,0.0215,0.1064,0.2031,0.1289,0.2383c0.084,0.1191,0.3506,0.2656,0.3799,0.3496
				c0.0615,0.168-0.0137,0.4902,0.1455,0.6445c0.0908,0.0977,0.5391,0.377,0.4785,0.5508c-0.4482,0.541-0.1367,0.373,0.2656,0.6445
				c0.1377,0.0918,0.084,0.4844,0.4639,0.5176c0.0605,0.0508,0.0693,0.1348,0.1367,0.1836c0.0381,0.209,0.1738,0.377,0.2051,0.5742
				c0.0615,0.4404-0.3262,0.3359-0.502,0.5742c-0.0527,0.0625-0.0381,0.1543-0.0605,0.2227
				c-0.0225,0.0566-0.0977,0.0625-0.1055,0.1191c-0.0166,0.1758,0.3564,0.2871,0.4697,0.3711
				c0.0391,0.0283,0.0615,0.0918,0.0918,0.127c0.1299,0.1602,0.3037,0.2441,0.4639,0.377c0.0459,0,0.1592,0.0703,0.1982,0.0996
				c0.0527,0.1035,0.0068,0.2305,0.0449,0.3281c0.0312,0.0977,0.1221,0.168,0.1445,0.252s-0.0537,0.3145-0.0537,0.4336
				c0,0.0771,0.0459,0.1953,0.0068,0.2734c-0.1357,0.1055-0.2871,0.1816-0.4326,0.293c0.624,0.2871,0.3955,0.9883,0.457,1.0518
				c0.1211,0.125,0.2275,0.0264,0.3721,0.1045c0.2051,0.4062,1.0635-0.1758,1.375-0.0078c0.0547,0.168,0.1143,0.1191,0.2207,0.2109
				c0.0449,0.041,0.084,0.0977,0.1436,0.1328c0.1836,0.1055,0.2217-0.127,0.3506-0.1973c0.0762-0.041,0.1973-0.0547,0.2588-0.1113
				c0.2432-0.2246,0.2803-0.2871,0.6611-0.2598c0.1367,0.084,0.0527,0.1074,0.2725,0.1543
				c0.0918,0.0918,0.1748,0.2383,0.3057,0.3652c-0.0078,0.1191,0.0059,0.2148-0.0469,0.3359c0,0.0635,0.2207,0.0273,0.2891,0.0703
				c0.2354,0.1387,0.8135,0.168,0.9805,0.3848c0.0381-0.0078,0.0762,0.0059,0.1064,0.0215c0.2578-0.084,0.29,0.5234,0.4336,0.6504
				c0.1826,0.1543,0.5322,0.1328,0.7451,0.1738c0.0303,0.0078,0.0762,0.1816,0.1201,0.209
				c0.0469,0.0312,0.4482,0.0449,0.5254,0.0449c0.1299,0.1113,0.3574,0.1309,0.5088,0.1953
				c0.0459,0.0195,0.0684,0.0635,0.1074,0.0977c0.1885,0.1895,0.3945,0.3203,0.6143,0.4746
				c0.167,0.6182,0.4102,0.4629,0.5332,0.6309c0.0371,0.0488,0.0303,0.127,0.083,0.168c0.0615,0.0566,0.1445,0.041,0.1973,0.1191
				c0.1074,0.1621,0.1221,0.4824,0.1836,0.5801c0.0742,0.1201,0.4775,0.2402,0.4863,0.2461
				c0.0439,0.0703,0.0684,0.2441,0.1211,0.3359s0.1602,0.168,0.2197,0.2598c-0.0068,0.0762,0.3584,1.3926,0.4111,1.5117
				c0.0605,0.1416,0.2119,0.2578,0.2588,0.3916c0.0361,0.1182-0.0771,0.0713,0.0615,0.21c0.1504,0.1523-0.0615,0.2656-0.0098,0.3496
				c0.0693,0.1113,0.4961,0.498,0.5479,0.5957c0.0459,0.0781-0.1377,0.168-0.1133,0.2793c0.0518,0.2314,0.4551,0.7012,0.4707,0.918
				c0.0078,0.1621-0.2588,0.4902-0.3115,0.6367c-0.0537,0.1387,0.2051,0.3926,0.2119,0.4746
				c0.0166,0.2598-0.4023,0.5684-0.3867,0.7148c0.0078,0.084,0.1211,0.1484,0.1436,0.2246c0.0615,0.168,0.0615,0.2598,0.167,0.4336
				c0.0928,0.1465,0.1758,0.3223,0.2588,0.4551c0.0391,0.0625,0.7285,0.4199,0.9355,0.9785
				c-0.0225,0.0586,0.0225,0.7773,0.0303,0.834c0.0059,0.0352,0.1357,0.1055,0.1748,0.1621
				c0.0303,0.0488,0.2344,0.7129,0.2656,0.8262c0.0381,0.1387-0.0459,0.2852,0,0.4121c0.1523,0.4629,0.3506,0.4473,0.5391,0.7285
				c0.2129,0.3076-0.0303,1.5117-0.2354,1.8262c-0.0303,0.0488-0.1289,0.0781-0.1816,0.1064
				c-0.1445,0.0752-0.1377,0.1865-0.2129,0.2939c-0.6162-0.2246-0.5176,0.3418-0.8594,0.5742l-0.3047-0.0078
				c0.2051,0.6074,0.6924,1.2598,0.6924,1.8828c0.0381,0.1816,0.4326,0.5664,0.5713,0.7266
				c0.0742,0.0918,0.3721,0.4277,0.4932,0.4414c0.0371,0.0078,0.1279-0.0977,0.1592-0.125
				c0.1602-0.1406,0.3496-0.2656,0.5166-0.4062c0.0986-0.084,0.1064-0.209,0.1816-0.293c0.3047-0.3223,0.7842-0.2754,1.0967-0.0078
				c0.0596,0.0488,0.1348,0.2031,0.1494,0.2734c0.0098,0.0635,0.0771,0.2656,0.1387,0.293c0.1143,0.0566,1.3291-0.5879,1.4658-0.707
				c0.0547-0.041,0.084-0.1953,0.1377-0.2168c0.1201-0.0547,0.2197,0.1133,0.3418-0.0127c0.083-0.084,0.0156-0.3877,0.083-0.5186
				c0.1904-0.3564,0.3203-0.1895,0.4648-0.3438c0.2334-0.2441,0.4404-0.6855,0.6836-0.9238
				c0.0908-0.0908,0.6074-0.1758,0.5928-0.2598c-0.0088-0.0488-0.6309-0.5039-0.7383-0.6074
				c-0.083-0.0781-0.1445-0.1758-0.2188-0.2646c-0.4873-0.582,0.3564-0.3799,0.2803-0.9619
				c-0.0146-0.082-0.418-0.8672-0.4707-0.9219c-0.0537-0.0566-0.1377-0.0918-0.1748-0.1543
				c-0.0234-0.0371-0.0684-0.3652-0.0684-0.4277c-0.0156-0.3223,0.0986-0.7412,0.1357-1.0723
				c0.0078-0.1172-0.1592-0.4668-0.1143-0.5742c0.1143-0.252,0.4805-0.5098,0.5693-0.7832c0.0312-0.084-0.2949-0.2793-0.2119-0.4902
				c0.0303-0.0625,0.3809-0.1953,0.4492-0.2441c0.0371-0.0273,0.0674-0.0771,0.0908-0.1191c0.084-0.1543,0.3428-0.3633,0.457-0.4961
				c0.0059-0.0078-0.0537-0.0859-0.0537-0.1055v-0.125c0-0.0723,0.2197-0.2949,0.2881-0.3154
				c0.1826-0.0498,0.3652,0.0752,0.3965,0.0752c0.3027-0.0273,0.5771-0.082,0.873-0.1182c0.5088-0.0557,0.4492-0.6455,0.6533-0.6865
				c0.1973-0.041,0.8594-0.0137,1.0801,0.0215c0.1143,0.0195,0.2959,0.1113,0.418,0.1113c0.0986,0,0.1973-0.0547,0.2578-0.1191
				c0.0908-0.0898,0.1211-0.1816,0.1982-0.2656c0.0459-0.0566,0.6309-0.5449,0.6309-0.5527
				c0.0371-0.0977,0.1445-0.5312,0.1895-0.5879c0.0908,0.0352,0.1523,0.0703,0.2354,0.041c0.1299-0.041,0.4863-0.4395,0.6162-0.4902
				c0.2119-0.084,0.6533,0.0781,0.9268,0.043c0.1211-0.0127,0.1982-0.127,0.3271-0.1465c0.0684-0.0078,0.1826,0.043,0.2197,0.0137
				c0.0605-0.043,0.1074-0.1035,0.168-0.1465c0.0303-0.0215,0.0996-0.0566,0.1357-0.0625c0.5176-0.1074,0.5098-0.2676,0.6621-0.3164
				c0.0674-0.0195,0.2275,0,0.3105-0.0137l0.3271-0.082c0.0391-0.0312,0.0303-0.0996,0.0615-0.1338
				c0.1523-0.1748,0.3643-0.2881,0.5166-0.4775c0.0312-0.0352,0.1523,0.043,0.2275-0.0352
				c0.1826-0.1816,0.3047-0.5664,0.4863-0.7266c0.2891-0.252,0.6084-0.2461,0.8975-0.4629
				c0.2803-0.2158,0.3574-0.4766,0.6533-0.6797c0.0615-0.041,0.1758,0.0078,0.2432,0c0.0908-0.0059,0.1973-0.0547,0.2891-0.0488
				c0.0312,0,0.0908,0.1484,0.1299,0.1836c0.0908,0.0898,0.1816,0.0898,0.3037,0.0977c0.2275,0.0225,1.1553,0.1309,1.2988,0.2168
				c0.1299,0.0762,0.0996,0.4414,0.1299,0.5527c0.0361,0.1406,0.1816,0.1816,0.2578,0.2871
				c0.0684,0.0977-0.0225,0.1953,0.0068,0.252c0.0996,0.1895,0.2744,0.4336,0.4648,0.5605
				c0.1748,0.1172,0.2578,0.5801,0.3486,0.7559c0.1221,0.2314,0.5703,0.4766,0.6172,0.7617c0.0371,0.2812-0.0469,0.5684-0.123,0.832
				c-0.0078,0.0234,0.1602,0.4287,0.1904,0.4434c0.2275,0.125,0.0605,0.3008,0.1602,0.3633
				c0.0527,0.0352,0.2119-0.0977,0.2959-0.0703c0.1523,0.0488,0.4033,0.084,0.5391,0.1621c0.0605,0.0332,0.0996,0.082,0.1748,0.082
				c0.1133,0,0.2588-0.1172,0.3809-0.1387c0.1299-0.0215,0.2959,0.0488,0.373,0.0215c0.1201-0.0352,0.3184-0.4141,0.6221-0.4141
				c0.0459,0,0.2354,0.0225,0.2588,0c0.0527-0.0488,0.0684-0.5176,0.2734-0.5176c0.4707,0-0.0684,0.6016,0.2207,0.5957
				c0.1055,0,0.585-0.2188,0.5703-0.3223c0-0.0078-0.2432-0.3223-0.251-0.3574c-0.0459-0.1191,0.0752-0.1113,0.0381-0.2168
				c-0.0381-0.1133-0.1455-0.0342-0.168-0.0752c-0.1738-0.3037,0.0293-0.1982-0.3125-0.542
				c-0.0215-0.0215,0.0771-0.125,0.0088-0.2031c-0.0537-0.0625-0.2578-0.1387-0.2441-0.2363
				c0.0166-0.084,0.1992-0.0566,0.251-0.1133c0.0527-0.0469,0.083-0.1875,0.1074-0.252c0.0225-0.0625,0.3193-0.3496,0.3867-0.4531
				c0.1006-0.1406-0.1514-0.3086-0.0596-0.4902c0.2041-0.4355,0.873-0.666,0.5537-1.2812c-0.0371-0.084-0.0312-0.1191,0.0088-0.1973
				c0.0146-0.0352,0.0371-0.0703,0.0596-0.1035c0.1523-0.2617,0.2354,0.1328,0.3574,0.0332
				c0.2441-0.1953,0.2588-0.4951,0.4482-0.6992c0.1826-0.1953,0.3115-0.1191,0.4795-0.2461
				c0.1973-0.1445,0.1514-0.3066,0.2891-0.4883c0.0371-0.0566,0.2803-0.2598,0.2803-0.2598
				c0.0371-0.1055-0.1221-0.2305,0.0615-0.293c0.1201-0.0352,0.2119,0.0762,0.3271,0.0703
				c0.1133-0.0156,0.1514-0.1348,0.2656-0.1406c0.4941-0.0371,0.5557,0.4336,0.874,0.6865
				c0.5684,0.4482,0.9492,0.0479,0.7207-0.5264c-0.083-0.2168-0.3643-0.293-0.3945-0.5527
				c-0.0234-0.1895,0.3496-0.4336,0.4258-0.5938c0.0908-0.1973-0.2812-0.2676-0.1367-0.3789
				c0.3799-0.3008,0.3799,0.3574,0.8887,0.1738c0.2666-0.0977-0.1816-0.5254,0.4482-0.4805
				c0.3115,0.0273,0.2217,0.2637,0.4268,0.4043c0.1289,0.0918,0.5391-0.2168,0.7432,0.0918
				c0.0615,0.0898,0.252,0.3848,0.2822,0.4805c0.0527,0.1699,0.167,0.8828,0.3496,0.9473c0.3496,0.1191,0.373-0.1621,0.6162-0.2734
				c0.2656-0.125,0.2275,0.2168,0.4473,0.1191c0.1074-0.0488,0.1074-0.1543,0.1836-0.209c0.0986-0.0703,0.2119-0.0352,0.3174-0.0771
				c0.1914-0.0771,0.2676-0.4639,0.5635-0.5264c0,0-0.2051-0.7148-0.3262-0.7988c-0.1221-0.082-0.2432-0.3066-0.3955-0.4746
				c-0.1514-0.168-0.1514-0.3652-0.1826-0.7559c-0.0303-0.3926-0.4551-0.2812-0.4863-0.084
				c-0.0303,0.1953-0.2119,0.2236-0.4248,0.2236s-0.2129-0.167-0.2129-0.3369c0-0.168-0.0918-0.4746-0.3037-0.5879
				c-0.2139-0.1113-0.1826-0.418-0.1543-0.5586c0.0312-0.1406,0.0312-0.2246,0.1543-0.3359
				c0.1201-0.1133,0.1816-0.1133,0.2119-0.4492c0.0312-0.3359-0.2119-0.3066-0.1514-0.6426c0.0596-0.3359,0.4863-0.168,0.6377,0.084
				s0.6377,0,0.8516,0.0273c0.2129,0.0273,0.2734-0.1953,0.1523-0.3359c-0.1221-0.1406,0.1504-0.3086,0.1504-0.3086
				s0.2139-0.168,0.3662-0.1953c0.1514-0.0283,0.4248-0.0283,0.4561,0.1396c0.0303,0.167,0.0605,0.167,0.2119,0.2236
				c0.1523,0.0566,0.3955,0.0566,0.5781-0.1406c0.1816-0.1953,0.2432-0.1387,0.2432-0.3066s0-0.2812,0.1514-0.3652
				c0.1533-0.084,0.0918-0.084,0.0918-0.3066c0-0.2246,0.0908-0.2246,0.2734-0.3086s0.1826-0.1133,0.2744-0.3086
				c0.0898-0.1953-0.0615-0.252-0.3047-0.252s-0.0615-0.168-0.0303-0.3926c0.0303-0.2227-0.0908-0.25-0.2432-0.334
				c-0.1514-0.084-0.2432-0.5332-0.3652-0.6738c-0.1211-0.1387-0.0908-0.25,0-0.3906s0.2744-0.3359,0.5771-0.3623
				c0.3047-0.0303,0.2432-0.2529,0.2744-0.3936c0.0303-0.1406,0.3945-0.1973,0.3945-0.1973s0.0312-0.3066,0.1836-0.3359
				c0.1514-0.0273,0.1816-0.1387,0.1816-0.252c0-0.1113,0.1523-0.3066,0.2432-0.4199c0.0918-0.1104,0.1826-0.168,0.3955-0.168
				s0.2432-0.3359,0.2734-0.5605c0.0293-0.2227,0.2725-0.25,0.3955-0.0547c0.1201,0.1953,0.2432,0.2227,0.2432-0.0566
				s-0.1816-0.4199-0.1816-0.4199s-0.2139-0.1953-0.2744-0.3359c-0.0605-0.1396-0.1533-0.5039,0.0605-0.4766
				c0.2139,0.0293,0.2432-0.0547,0.3643-0.2793c0.1221-0.2246,0.5781-0.1113,0.7607-0.084c0.1816,0.0273,0.2734,0.084,0.3037-0.1406
				c0.0303-0.2227,0.2432-0.1387,0.4258-0.1387c0.1816,0,0.2734-0.3086,0.0918-0.3652c-0.1826-0.0547,0-0.3359,0.0605-0.4746
				c0.0596-0.1406,0.1514-0.2246,0.1514-0.2246l-0.2734-0.4199c0,0-0.0615-0.1953-0.3047-0.3359s-0.2734-0.5322-0.1514-0.5879
				c0.1211-0.0566,0.2744-0.168,0.3945-0.084c0.123,0.084,0.1836-0.3359,0.3047-0.4199s0.1211-0.1973,0-0.3926
				s0.0615-0.4199,0.1514-0.5312c0.0918-0.1133,0.2734-0.1133,0.2734-0.1133l0.2744,0.0566c0,0,0.2734-0.0566,0.3037-0.1973
				c0.0312-0.1377,0.0908-0.2217,0.2744-0.2217c0.1816,0,0.1816-0.1123,0.1201-0.2529
				C1242.4414,1618.2949,1242.502,1618.0996,1242.1689,1618.0156z"/>
			<polygon class="st3" points="1211.6338,1582.6895 1215.8662,1579.6152 1220.0986,1582.6895 1218.4814,1577.7148 
				1222.7139,1574.6406 1217.4834,1574.6406 1215.8662,1569.666 1214.249,1574.6406 1209.0195,1574.6406 1213.251,1577.7148 			"/>
			<polygon class="st3" points="1228.1143,1585.5957 1232.3457,1582.5225 1236.5791,1585.5957 1234.9609,1580.6211 
				1239.1943,1577.5469 1233.9629,1577.5469 1232.3457,1572.5723 1230.7295,1577.5469 1225.499,1577.5469 1229.7305,1580.6211 			
				"/>
			<polygon class="st3" points="1249.6875,1583.2695 1248.0713,1578.2949 1246.4541,1583.2695 1241.2227,1583.2695 
				1245.4541,1586.3457 1243.8379,1591.3203 1248.0713,1588.2441 1252.3037,1591.3203 1250.6865,1586.3457 1254.9189,1583.2695 			
				"/>
			<polygon class="st3" points="1194.8994,1582.6895 1199.1328,1579.6152 1203.3652,1582.6895 1201.748,1577.7148 
				1205.9814,1574.6406 1200.75,1574.6406 1199.1328,1569.666 1197.5156,1574.6406 1192.2842,1574.6406 1196.5166,1577.7148 			"/>
			<polygon class="st3" points="1178.4209,1585.5957 1182.6533,1582.5225 1186.8857,1585.5957 1185.2686,1580.6211 
				1189.5,1577.5469 1184.2695,1577.5469 1182.6533,1572.5723 1181.0361,1577.5469 1175.8047,1577.5469 1180.0371,1580.6211 			"/>
			<polygon class="st3" points="1168.5449,1583.2695 1166.9277,1578.2949 1165.3115,1583.2695 1160.0811,1583.2695 
				1164.3125,1586.3457 1162.6953,1591.3203 1166.9277,1588.2441 1171.1611,1591.3203 1169.5439,1586.3457 1173.7764,1583.2695 			
				"/>
		</g>
	</g>
	<g>
		<g>
			<g>
				<path class="st0" d="M109.6865,3.2217c3.916,0,7.0908,3.1748,7.0908,7.0908v99.373c0,3.917-3.1748,7.0908-7.0908,7.0908h-99.374
					c-3.916,0-7.0908-3.1738-7.0908-7.0908v-99.373c0-3.916,3.1748-7.0908,7.0908-7.0908H109.6865 M109.6865,0h-99.374
					C4.625,0,0,4.626,0,10.3125v99.373C0,115.372,4.625,120,10.3125,120h99.374C115.374,120,120,115.372,120,109.6855v-99.373
					C120,4.626,115.374,0,109.6865,0L109.6865,0z"/>
			</g>
		</g>
		<g>
			<path class="st4" d="M109.6865,3.2217L9.2204,1.9898c-4.094-0.0502-7.4102,3.311-7.3048,7.4039l1.3061,50.7381v49.5537
				c0,3.9161,3.1747,7.0908,7.0908,7.0908h99.374c3.9161,0,7.0908-3.1747,7.0908-7.0908v-99.373
				C116.7773,6.3965,113.6025,3.2217,109.6865,3.2217z M94.8613,31.4814l1.5596-4.7998l1.5596,4.7998h5.0459l-4.083,2.9668
				l1.5595,4.8008l-4.082-2.9687l-4.082,2.9687l1.5586-4.8008l-4.083-2.9668H94.8613z M80.3301,59.5459l-4.084-2.9668l-4.083,2.9668
				l1.5596-4.8008l-4.0831-2.9648h5.0469l1.5596-4.7999l1.5596,4.7999h5.0478l-4.083,2.9648L80.3301,59.5459z M100.9531,92.2529
				l-4.5322-3.293l-4.5342,3.293l1.7315-5.3281l-4.5323-3.293h5.6026l1.7324-5.3281l1.7305,5.3281h5.6035l-4.5332,3.293
				L100.9531,92.2529z M112.3203,49.3896l1.3877,4.2715l-3.6338-2.6387l-3.6318,2.6387l1.3867-4.2715l-3.6338-2.6386h4.4912
				l1.3877-4.2715l1.3877,4.2715h4.4912L112.3203,49.3896z"/>
			<path class="st3" d="M92.3389,39.249l4.082-2.9687l4.082,2.9687l-1.5595-4.8008l4.083-2.9668h-5.0459l-1.5596-4.7998
				l-1.5596,4.7998h-5.0468l4.083,2.9668L92.3389,39.249z M92.0547,32.2099h3.3349l1.0313-3.1718l1.0303,3.1718h3.3349l-2.6982,1.96
				l1.0303,3.1719l-2.6973-1.96l-2.7002,1.96l1.0322-3.1719L92.0547,32.2099z"/>
			<path class="st3" d="M110.0742,42.4795l-1.3877,4.2715h-4.4912l3.6338,2.6386l-1.3867,4.2715l3.6318-2.6387l3.6338,2.6387
				l-1.3877-4.2715l3.6328-2.6386h-4.4912L110.0742,42.4795z M111.4639,49.1123l0.8593,2.6426l-2.249-1.6329l-2.2471,1.6329
				l0.8584-2.6426l-2.249-1.6348h2.7793l0.8584-2.6426l0.8584,2.6426h2.7803L111.4639,49.1123z"/>
			<path class="st3" d="M77.8057,51.7803l-1.5596-4.7999l-1.5596,4.7999h-5.0469l4.0831,2.9648l-1.5596,4.8008l4.083-2.9668
				l4.084,2.9668l-1.5596-4.8008l4.083-2.9648H77.8057z M78.9443,57.6396l-2.6982-1.9599l-2.6982,1.9599l1.0312-3.1718
				l-2.6982-1.961h3.3349l1.0303-3.1709l1.0303,3.1709h3.3359l-2.6982,1.961L78.9443,57.6396z"/>
			<path class="st3" d="M98.1514,83.6318l-1.7305-5.3281l-1.7324,5.3281h-5.6026l4.5323,3.293l-1.7315,5.3281l4.5342-3.293
				l4.5322,3.293l-1.7314-5.3281l4.5332-3.293H98.1514z M99.5674,90.3476l-3.1465-2.2881l-3.1475,2.2881l1.2022-3.7021
				l-3.1485-2.2852h3.8917l1.2021-3.7011l1.2021,3.7011h3.8916l-3.1484,2.2852L99.5674,90.3476z"/>
			<polygon class="st5" points="93.7207,37.3418 96.4209,35.3818 99.1182,37.3418 98.0879,34.1699 100.7861,32.2099 
				97.4512,32.2099 96.4209,29.0381 95.3896,32.2099 92.0547,32.2099 94.7529,34.1699 			"/>
			<polygon class="st5" points="110.0742,44.8349 109.2158,47.4775 106.4365,47.4775 108.6855,49.1123 107.8271,51.7549 
				110.0742,50.122 112.3232,51.7549 111.4639,49.1123 113.7129,47.4775 110.9326,47.4775 			"/>
			<polygon class="st5" points="77.2764,52.5068 76.2461,49.3359 75.2158,52.5068 71.8809,52.5068 74.5791,54.4678 73.5479,57.6396 
				76.2461,55.6797 78.9443,57.6396 77.9141,54.4678 80.6123,52.5068 			"/>
			<polygon class="st5" points="97.623,84.3603 96.4209,80.6592 95.2188,84.3603 91.3271,84.3603 94.4756,86.6455 93.2734,90.3476 
				96.4209,88.0595 99.5674,90.3476 98.3662,86.6455 101.5146,84.3603 			"/>
		</g>
	</g>
	<g>
		<g id="XMLID_5582_">
			<polygon id="XMLID_5592_" class="st4" points="3.0953,40.9031 3.0953,53.552 15.7289,40.9031 			"/>
			<path class="st4" d="M26.7876,2.9795v17.362L13.2957,6.7921c3.5866-2.4485,7.9127-3.8127,12.5799-3.8127h0.912V2.9795z"/>
			<path class="st4" d="M15.7404,21.993H3.444c0.2299-1.594,0.6859-3.1306,1.253-4.6135c0.5709-1.5366,1.368-2.9582,2.2225-4.2687
				L15.7404,21.993z"/>
			<polygon id="XMLID_5591_" class="st4" points="59.9866,21.97 59.9866,9.3211 47.353,21.97 			"/>
			<polygon id="XMLID_5590_" class="st4" points="53.6028,2.9909 36.2752,2.9909 36.2752,20.3377 			"/>
			<polygon id="XMLID_5589_" class="st4" points="59.9866,53.552 59.9866,40.9031 47.353,40.9031 			"/>
			<polygon id="XMLID_5588_" class="st4" points="9.4792,59.8822 26.8067,59.8822 26.8067,42.5355 			"/>
			<polygon id="XMLID_5587_" class="st4" points="36.2752,59.8822 53.6028,59.8822 36.2752,42.5355 			"/>
			<path class="st3" d="M59.9755,9.2981L47.3377,21.993h12.6378v18.8986H47.3377L59.9755,53.529v2.165L45.2302,40.8916h-4.2687
				l18.9561,19.0136h-6.3187l-17.3041-17.362v17.362h-9.5072v-17.362L9.4792,59.9052H7.3755L26.332,40.8916h-4.2691L3.103,59.9052
				V53.529l12.6374-12.6374H3.103V25.7482c0-1.253-0.5607-2.5597-0.3347-3.7552h12.9721L2.2841,8.4569
				c0.2836-0.3985,0.5671-0.797,0.9081-1.1955L17.8479,21.993h4.215L5.1273,5.0427c1.0844-1.0844,2.2799-2.1075,3.533-2.9045
				l18.1273,18.2033V2.9795h9.5072v17.362l17.3041-17.362h2.1075L36.7503,21.993h4.2687L59.9755,2.9795V9.2981z"/>
			<path class="st6" d="M22.0629,21.993h-4.215L3.1922,7.2614c0.5714-0.797,1.1955-1.5366,1.9351-2.2186L22.0629,21.993z"/>
			<polygon id="XMLID_5586_" class="st6" points="40.973,40.9031 59.9329,59.8822 59.9866,59.8822 59.9866,55.6863 45.2229,40.9031 
							"/>
			<polygon id="XMLID_5585_" class="st6" points="36.7503,21.97 40.9998,21.97 59.9598,2.9909 55.7103,2.9909 			"/>
			<polygon id="XMLID_5584_" class="st6" points="26.3086,40.9031 22.0591,40.9031 3.0992,59.8822 7.3448,59.8822 			"/>
			<polygon id="XMLID_5583_" class="st6" points="59.9866,25.7482 34.3861,25.7482 34.3861,2.9909 28.6958,2.9909 28.6958,25.7482 
				3.0953,25.7482 3.0953,37.1249 28.6958,37.1249 28.6958,59.8822 34.3861,59.8822 34.3861,37.1249 59.9866,37.1249 			"/>
		</g>
	</g>
</g>
<g id="Layer_2">
	<g id="Layer_2_00000008151020972403519510000017401608398655629208_">
		<path class="st7" d="M109.6865,3.2227c3.916,0,7.0908,3.1748,7.0908,7.0908v99.372c0,3.919-3.1748,7.0918-7.0908,7.0918h-99.374
			c-3.916,0-7.0908-3.1728-7.0908-7.0918v-99.372c0-3.916,3.1748-7.0908,7.0908-7.0908L109.6865,3.2227 M109.6865,0h-99.374
			C4.625,0,0,4.625,0,10.3135v99.372C0,115.373,4.625,120,10.3125,120h99.374C115.374,120,120,115.373,120,109.6855v-99.372
			C120,4.625,115.374,0,109.6865,0L109.6865,0z"/>
	</g>
</g>
</svg>
