<?xml version="1.0" encoding="utf-8"?>
<!-- Generator: Adobe Illustrator 27.6.1, SVG Export Plug-In . SVG Version: 6.00 Build 0)  -->
<svg version="1.1" xmlns="http://www.w3.org/2000/svg" xmlns:xlink="http://www.w3.org/1999/xlink" x="0px" y="0px"
	 viewBox="0 0 120 120" style="enable-background:new 0 0 120 120;" xml:space="preserve">
<style type="text/css">
	.st0{fill:#EC2938;}
	.st1{fill:#FFFFFF;}
	.st2{fill:#D1D3D4;}
</style>
<g id="Layer_1">
	<g id="XMLID_594_">
		<g id="XMLID_610_">
			<path id="XMLID_612_" class="st0" d="M116.75,25.9252v34.0443H3.25V25.9252c0-2.9622-1.8979-16.1989-0.8927-18.7444
				c3.3138-8.4088,14.0372-3.9326,23.6271-3.9326h68.0885c9.5937,0,19.923-4.2045,23.298,4.2044
				C118.3803,9.998,116.75,22.963,116.75,25.9252z"/>
			<path id="XMLID_611_" class="st1" d="M116.75,59.9694v34.0443c0,2.9622-0.5309,5.8021-1.5403,8.3477
				c-3.3138,8.4088-11.543,14.3906-21.1367,14.3906H25.9844c-9.5899,0-17.8229-5.9817-21.1367-14.3906
				C3.8424,99.8158,3.25,96.9759,3.25,94.0137V59.9694H116.75z"/>
		</g>
		<g id="XMLID_597_">
			<path id="XMLID_609_" class="st1" d="M28.0484,31.6011c0-10.8053,8.5655-19.627,19.3479-20.1888
				c-2.2092-0.7683-4.579-1.1887-7.0478-1.1887c-11.8071,0-21.3817,9.5708-21.3817,21.3775
				c0,11.8106,9.5746,21.3813,21.3817,21.3813c2.4688,0,4.8386-0.4204,7.0478-1.1887
				C36.6139,51.2319,28.0484,42.4064,28.0484,31.6011z"/>
			<polygon id="XMLID_608_" class="st1" points="40.0692,22.8215 41.2158,26.3456 44.9195,26.3456 41.9229,28.5204 43.0658,32.0445 
				40.0692,29.8658 37.0726,32.0445 38.2192,28.5204 35.2226,26.3456 38.9263,26.3456 			"/>
			<polygon id="XMLID_607_" class="st1" points="62.823,22.8215 63.9697,26.3456 67.673,26.3456 64.6765,28.5204 65.8193,32.0445 
				62.823,29.8658 59.8261,32.0445 60.9727,28.5204 57.9762,26.3456 61.6799,26.3456 			"/>
			<polygon id="XMLID_606_" class="st1" points="51.4478,14.298 52.5907,17.8183 56.2944,17.8183 53.2978,19.9969 54.4444,23.521 
				51.4478,21.3423 48.4516,23.521 49.5941,19.9969 46.5975,17.8183 50.3012,17.8183 			"/>
			<polygon id="XMLID_602_" class="st1" points="58.5648,36.268 59.7076,39.7882 63.4113,39.7882 60.4185,41.9669 61.5617,45.4871 
				58.5648,43.3123 55.5682,45.4871 56.711,41.9669 53.7182,39.7882 57.4219,39.7882 			"/>
			<polygon id="XMLID_598_" class="st1" points="44.3271,36.268 45.4738,39.7882 49.1778,39.7882 46.1809,41.9669 47.3237,45.4871 
				44.3271,43.3123 41.3343,45.4871 42.4772,41.9669 39.4806,39.7882 43.1843,39.7882 			"/>
		</g>
	</g>
</g>
<g id="Layer_2">
	<g id="Layer_2_00000088105433355850506420000007078132686907385754_">
		<g id="Layer_2_00000008151020972403519510000017401608398655629208_">
			<path class="st2" d="M109.6865,3.2227c3.916,0,7.0908,3.1748,7.0908,7.0908v99.372c0,3.919-3.1748,7.0918-7.0908,7.0918h-99.374
				c-3.916,0-7.0908-3.1728-7.0908-7.0918v-99.372c0-3.916,3.1748-7.0908,7.0908-7.0908L109.6865,3.2227 M109.6865,0h-99.374
				C4.625,0,0,4.625,0,10.3135v99.372C0,115.373,4.625,120,10.3125,120h99.374C115.374,120,120,115.373,120,109.6855v-99.372
				C120,4.625,115.374,0,109.6865,0L109.6865,0z"/>
		</g>
	</g>
</g>
</svg>
