<?xml version="1.0" encoding="utf-8"?>
<!-- Generator: Adobe Illustrator 27.6.1, SVG Export Plug-In . SVG Version: 6.00 Build 0)  -->
<svg version="1.1" xmlns="http://www.w3.org/2000/svg" xmlns:xlink="http://www.w3.org/1999/xlink" x="0px" y="0px"
	 viewBox="0 0 120 120" style="enable-background:new 0 0 120 120;" xml:space="preserve">
<style type="text/css">
	.st0{fill:#CAB99E;}
	.st1{fill:#E32116;}
	.st2{fill:#005FA8;}
	.st3{fill:#FFFFFF;}
	.st4{fill:#FFDC00;}
	.st5{fill:#D1D3D4;}
</style>
<g id="Layer_1">
	<g>
		<g>
			<path class="st0" d="M109.6865,3.2227c3.916,0,7.0908,3.1748,7.0908,7.0908v99.372c0,3.919-3.1748,7.0918-7.0908,7.0918h-99.374
				c-3.916,0-7.0908-3.1728-7.0908-7.0918v-99.372c0-3.916,3.1748-7.0908,7.0908-7.0908H109.6865 M109.6865,0h-99.374
				C4.625,0,0,4.625,0,10.3135v99.372C0,115.373,4.625,120,10.3125,120h99.374C115.374,120,120,115.373,120,109.6855v-99.372
				C120,4.625,115.374,0,109.6865,0L109.6865,0z"/>
		</g>
		<g>
			<path class="st1" d="M3.2217,109.6855c0,3.919,3.1748,7.0918,7.0908,7.0918h99.374c3.916,0,7.0908-3.1728,7.0908-7.0918V80
				H3.2217V109.6855z"/>
			<path class="st2" d="M48.126,46.0352c-0.2364,3.4765-1.3682,6.7373-3.1758,9.539c-2.5332,3.9317-6.4082,6.9571-11.0889,8.3711
				c-6.8066-2.0566-11.915-7.5137-13.6523-14.2246c-0.3096-1.1953-0.5254-2.4238-0.6113-3.6855l-0.1504-2.2188L19.1885,40H3.2217v40
				h113.5556V40H48.5352L48.126,46.0352z"/>
			<path class="st3" d="M109.6865,3.2227h-99.374c-3.916,0-7.0908,3.1748-7.0908,7.0908V40h15.9668l-0.8496-12.5615
				c0.0049-0.003,0.0097-0.0049,0.0156-0.0069c0.3603-0.1582,0.7187-0.3183,1.0732-0.4882l0.001,0.0156c9.208-4,19.6592-4,28.8672,0
				l0.001-0.0156c0.3603,0.1718,0.7236,0.3359,1.0888,0.4951L48.5352,40h68.2421V10.3135
				C116.7773,6.3975,113.6025,3.2227,109.6865,3.2227z"/>
			<path class="st2" d="M18.3389,27.4385c0.0049-0.003,0.0107-0.0049,0.0156-0.0069
				C18.3486,27.4336,18.3438,27.4355,18.3389,27.4385L19.1885,40l0.2588,3.8164L18.3389,27.4385z"/>
			<path class="st2" d="M20.7168,45.959c0.5254,7.7676,5.7353,14.4277,13.1445,16.8105
				c7.4112-2.3828,12.6201-9.0429,13.1475-16.8105l1.2871-19c-9.208-4-19.6592-4-28.8672,0L20.7168,45.959z M37.3564,43.8984
				l2.3262-3.1074l5.8233,7.7617c-0.1563,0.7012-0.3496,1.3858-0.587,2.0518c-0.2548,0.7314-0.5595,1.4443-0.9062,2.1279
				c-0.29,0.5742-0.6084,1.1309-0.958,1.6699c-0.3037,0.4707-0.6328,0.9278-0.9795,1.3672
				c-2.0908,2.6446-4.9209,4.6875-8.2139,5.8184c-3.292-1.1309-6.1201-3.1738-8.2138-5.8184v-0.0019
				c-0.3457-0.4395-0.6729-0.8946-0.9776-1.3653c-0.3476-0.539-0.6679-1.0957-0.959-1.6699
				c-0.3457-0.6836-0.6494-1.3965-0.9052-2.1279c-0.2334-0.666-0.4307-1.3506-0.586-2.0518l5.8194-7.7617l2.331,3.1074
				l3.4912-6.9882L37.3564,43.8984z M36.9678,26.4814l0.9697,0.2237l0.29-0.9531l0.292,0.9531l0.9688-0.2237l-0.6787,0.7276
				l0.6787,0.7295l-0.9688-0.2256l-0.292,0.9512l-0.29-0.9512l-0.9697,0.2256l0.6787-0.7295L36.9678,26.4814z M32.6016,32.3027
				l0.9697,0.2246l0.29-0.9531l0.292,0.9531l0.9688-0.2246l-0.6778,0.7266l0.6778,0.7285l-0.9688-0.2226l-0.292,0.9511l-0.29-0.9511
				l-0.9697,0.2226l0.6777-0.7285L32.6016,32.3027z M28.2354,26.4814l0.9687,0.2237l0.293-0.9531l0.29,0.9531l0.9688-0.2237
				l-0.6778,0.7276l0.6778,0.7295l-0.9688-0.2256l-0.29,0.9512l-0.293-0.9512l-0.9687,0.2256l0.6787-0.7295L28.2354,26.4814z"/>
			<path class="st2" d="M33.8613,63.9434c-6.8056-2.0547-11.915-7.5118-13.6523-14.2227
				c1.7373,6.7109,6.8457,12.168,13.6523,14.2246c4.6807-1.414,8.5557-4.4394,11.0889-8.3711
				C42.417,59.5039,38.542,62.5313,33.8613,63.9434z"/>
			<path class="st3" d="M39.6826,55.2734c-0.5996-0.3437-1.2685-0.5175-1.9394-0.5175c-0.67,0-1.3399,0.1738-1.9405,0.5175
				c-1.2011,0.6954-2.6806,0.6954-3.8818,0c-1.1982-0.6894-2.6787-0.6894-3.8818,0c-0.752,0.4356-1.5889,0.5899-2.3916,0.4961
				c2.0937,2.6446,4.9218,4.6875,8.2138,5.8184c3.293-1.1309,6.1231-3.1738,8.2139-5.8184
				C41.2744,55.8633,40.4355,55.709,39.6826,55.2734z"/>
			<path class="st3" d="M39.6826,53.0352c-0.5996-0.3467-1.2685-0.5196-1.9394-0.5196c-0.67,0-1.3399,0.1729-1.9405,0.5196
				c-1.2011,0.6943-2.6806,0.6943-3.8818,0c-1.1982-0.6934-2.6787-0.6934-3.8818,0c-1.4092,0.8144-3.1172,0.6425-4.3282-0.3028
				c0.2911,0.5742,0.6114,1.1309,0.959,1.6699c1.0635,0.4219,2.3008,0.3702,3.3692-0.246c0.6005-0.3477,1.2724-0.5215,1.9423-0.5215
				c0.6709,0,1.3399,0.1738,1.9395,0.5215c1.2012,0.6933,2.6807,0.6933,3.8818,0c1.2002-0.6934,2.6807-0.6934,3.8799,0
				c1.0694,0.6162,2.3086,0.6679,3.3721,0.246c0.3496-0.539,0.668-1.0957,0.958-1.6699
				C42.8037,53.6777,41.0928,53.8496,39.6826,53.0352z"/>
			<path class="st3" d="M30.3701,43.8984l-2.331-3.1074l-5.8194,7.7617c0.1553,0.7012,0.3526,1.3858,0.586,2.0518
				c1.0986,1.7705,3.414,2.3623,5.2334,1.3096c0.6005-0.3457,1.2724-0.5166,1.9423-0.5166c0.6709,0,1.3399,0.1709,1.9395,0.5166
				c1.2012,0.6953,2.6807,0.6953,3.8818,0c1.2002-0.6934,2.6807-0.6934,3.8799,0c1.8203,1.0527,4.1397,0.4609,5.2363-1.3096
				c0.2374-0.666,0.4307-1.3506,0.587-2.0518l-5.8233-7.7617l-2.3262,3.1074l-3.4951-6.9882L30.3701,43.8984z"/>
			<path class="st2" d="M39.6826,51.9141c-1.1992-0.6934-2.6797-0.6934-3.8799,0c-1.2011,0.6953-2.6806,0.6953-3.8818,0
				c-0.5996-0.3457-1.2686-0.5166-1.9395-0.5166c-0.6699,0-1.3418,0.1709-1.9423,0.5166c-1.8194,1.0527-4.1348,0.4609-5.2334-1.3096
				c0.2558,0.7314,0.5595,1.4443,0.9052,2.1279c1.211,0.9453,2.919,1.1172,4.3282,0.3028c1.2031-0.6934,2.6836-0.6934,3.8818,0
				c1.2012,0.6943,2.6807,0.6943,3.8818,0c0.6006-0.3467,1.2705-0.5196,1.9405-0.5196c0.6709,0,1.3398,0.1729,1.9394,0.5196
				c1.4102,0.8144,3.1211,0.6425,4.3301-0.3028c0.3467-0.6836,0.6514-1.3965,0.9062-2.1279
				C43.8223,52.375,41.5029,52.9668,39.6826,51.9141z"/>
			<path class="st2" d="M39.6826,54.1563c-1.1992-0.6934-2.6797-0.6934-3.8799,0c-1.2011,0.6933-2.6806,0.6933-3.8818,0
				c-0.5996-0.3477-1.2686-0.5215-1.9395-0.5215c-0.6699,0-1.3418,0.1738-1.9423,0.5215c-1.0684,0.6162-2.3057,0.6679-3.3692,0.246
				c0.3047,0.4707,0.6319,0.9258,0.9776,1.3653v0.0019c0.8027,0.0938,1.6396-0.0605,2.3916-0.4961
				c1.2031-0.6894,2.6836-0.6894,3.8818,0c1.2012,0.6954,2.6807,0.6954,3.8818,0c0.6006-0.3437,1.2705-0.5175,1.9405-0.5175
				c0.6709,0,1.3398,0.1738,1.9394,0.5175c0.7529,0.4356,1.5918,0.5899,2.3926,0.4961c0.3467-0.4394,0.6758-0.8965,0.9795-1.3672
				C41.9912,54.8242,40.752,54.7725,39.6826,54.1563z"/>
			<polygon class="st4" points="33.5713,33.5352 33.8613,34.4863 34.1533,33.5352 35.1221,33.7578 34.4443,33.0293 35.1221,32.3027 
				34.1533,32.5273 33.8613,31.5742 33.5713,32.5273 32.6016,32.3027 33.2793,33.0293 32.6016,33.7578 			"/>
			<polygon class="st4" points="29.2041,27.7129 29.4971,28.6641 29.7871,27.7129 30.7559,27.9385 30.0781,27.209 30.7559,26.4814 
				29.7871,26.7051 29.4971,25.752 29.2041,26.7051 28.2354,26.4814 28.9141,27.209 28.2354,27.9385 			"/>
			<polygon class="st4" points="37.9375,27.7129 38.2275,28.6641 38.5195,27.7129 39.4883,27.9385 38.8096,27.209 39.4883,26.4814 
				38.5195,26.7051 38.2275,25.752 37.9375,26.7051 36.9678,26.4814 37.6465,27.209 36.9678,27.9385 			"/>
			<path class="st1" d="M19.4473,43.8164l0.1504,2.2188c0.0859,1.2617,0.3017,2.4902,0.6113,3.6855
				c1.7373,6.7109,6.8467,12.168,13.6523,14.2227c4.6807-1.4121,8.5557-4.4395,11.0889-8.3692
				c1.8076-2.8017,2.9394-6.0625,3.1758-9.539L48.5352,40l0.8505-12.5615c-0.3652-0.1592-0.7285-0.3233-1.0888-0.4951l-0.001,0.0156
				l-1.2871,19c-0.5274,7.7676-5.7363,14.4277-13.1475,16.8105c-7.4092-2.3828-12.6191-9.0429-13.1445-16.8105l-1.2881-19
				l-0.001-0.0156c-0.3545,0.1699-0.7129,0.33-1.0732,0.4882c-0.0049,0.002-0.0107,0.0039-0.0156,0.0069L19.4473,43.8164z"/>
		</g>
	</g>
</g>
<g id="Layer_2">
	<g id="Layer_2_00000088105433355850506420000007078132686907385754_">
		<g id="Layer_2_00000008151020972403519510000017401608398655629208_">
			<path class="st5" d="M109.6865,3.2227c3.916,0,7.0908,3.1748,7.0908,7.0908v99.372c0,3.919-3.1748,7.0918-7.0908,7.0918h-99.374
				c-3.916,0-7.0908-3.1728-7.0908-7.0918v-99.372c0-3.916,3.1748-7.0908,7.0908-7.0908L109.6865,3.2227 M109.6865,0h-99.374
				C4.625,0,0,4.625,0,10.3135v99.372C0,115.373,4.625,120,10.3125,120h99.374C115.374,120,120,115.373,120,109.6855v-99.372
				C120,4.625,115.374,0,109.6865,0L109.6865,0z"/>
		</g>
	</g>
</g>
</svg>
