<?xml version="1.0" encoding="utf-8"?>
<!-- Generator: Adobe Illustrator 27.6.1, SVG Export Plug-In . SVG Version: 6.00 Build 0)  -->
<svg version="1.1" xmlns="http://www.w3.org/2000/svg" xmlns:xlink="http://www.w3.org/1999/xlink" x="0px" y="0px"
	 viewBox="0 0 120 120" style="enable-background:new 0 0 120 120;" xml:space="preserve">
<style type="text/css">
	.st0{fill:#CAB99E;}
	.st1{fill:#FFFFFF;}
	.st2{fill:#E32116;}
	.st3{fill:#004E9E;}
	.st4{fill:#D1D3D4;}
</style>
<g id="Layer_1">
	<g>
		<g>
			<path class="st0" d="M109.6865,3.2227c3.916,0,7.0908,3.1748,7.0908,7.0908v99.372c0,3.919-3.1748,7.0918-7.0908,7.0918h-99.374
				c-3.916,0-7.0908-3.1728-7.0908-7.0918v-99.372c0-3.916,3.1748-7.0908,7.0908-7.0908H109.6865 M109.6865,0h-99.374
				C4.625,0,0,4.625,0,10.3135v99.372C0,115.373,4.625,120,10.3125,120h99.374C115.374,120,120,115.373,120,109.6855v-99.372
				C120,4.625,115.374,0,109.6865,0L109.6865,0z"/>
		</g>
		<g>
			<path class="st1" d="M109.6865,3.2227h-99.374c-3.916,0-7.0908,3.1748-7.0908,7.0908v29.626h30.875
				c0.289-8.6465,0.7148-12.7081,0.7148-12.7081H60h25.1885c0,0,0.4258,4.0616,0.7148,12.7081h30.874v-29.626
				C116.7773,6.3975,113.6025,3.2227,109.6865,3.2227z"/>
			<path class="st2" d="M60,92.6797C54.4717,90.0156,47.7236,86,42.4648,79.9707H3.2217v29.7148
				c0,3.919,3.1748,7.0918,7.0908,7.0918h99.374c3.916,0,7.0908-3.1728,7.0908-7.0918V79.9707H77.5361
				C72.2764,86,65.5303,90.0156,60,92.6797z"/>
			<path class="st3" d="M33.8379,56.8457c0-6.8809,0.1113-12.4893,0.2588-16.9062H3.2217v40.0312h39.2431
				C37.4844,74.2617,33.8379,66.7461,33.8379,56.8457z"/>
			<path class="st3" d="M86.1621,56.8457c0,9.9004-3.6455,17.416-8.626,23.125h39.2412V39.9395h-30.874
				C86.0508,44.3564,86.1621,49.9648,86.1621,56.8457z"/>
			<path class="st1" d="M42.4648,79.9707C47.7236,86,54.4717,90.0156,60,92.6797C65.5303,90.0156,72.2764,86,77.5361,79.9707
				c4.9805-5.709,8.626-13.2246,8.626-23.125c0-6.8809-0.1113-12.4893-0.2588-16.9062c-0.289-8.6465-0.7148-12.7081-0.7148-12.7081
				H60H34.8115c0,0-0.4258,4.0616-0.7148,12.7081c-0.1475,4.4169-0.2588,10.0253-0.2588,16.9062
				C33.8379,66.7461,37.4844,74.2617,42.4648,79.9707z M60,29.9336h23.1094c0,0,0.8935,8.4941,0.8935,27.1709
				c0,6.8271-1.8935,12.418-4.7724,17c0.0009,0.0019,0.0019,0.0029,0.0029,0.0049c-0.0254,0.041-0.0537,0.0791-0.0781,0.1172
				c-0.586,0.9238-1.211,1.8066-1.8701,2.6484c-0.0674,0.0859-0.1358,0.168-0.2032,0.252c-0.2666,0.3359-0.5381,0.664-0.8154,0.9863
				c-0.0869,0.1015-0.1748,0.2031-0.2627,0.3027c-0.2842,0.3242-0.5732,0.6406-0.8662,0.9512
				c-0.0654,0.0713-0.1299,0.1406-0.1953,0.209c-0.7295,0.7617-1.4824,1.4843-2.2529,2.1718
				c-0.085,0.0762-0.1709,0.1504-0.2569,0.2247c-0.3027,0.2675-0.6084,0.5273-0.916,0.7832
				c-0.0967,0.08-0.1924,0.1601-0.2891,0.2382c-0.3379,0.2754-0.6767,0.545-1.0185,0.8067
				c-0.0518,0.039-0.1026,0.0801-0.1533,0.1191c-0.4053,0.3096-0.8125,0.6094-1.2207,0.9004
				c-0.044,0.0313-0.086,0.0586-0.1289,0.0899c-0.3536,0.25-0.7081,0.4941-1.0635,0.7324
				c-0.1035,0.0703-0.2061,0.1367-0.3096,0.2051c-0.3057,0.2031-0.6123,0.4003-0.918,0.5957
				c-0.1015,0.0625-0.2031,0.1269-0.3046,0.1914c-0.375,0.2324-0.7491,0.4609-1.1202,0.6816
				c-0.0175,0.0098-0.0371,0.0215-0.0547,0.0332c-0.4052,0.2383-0.8076,0.4688-1.208,0.6914
				c-0.0752,0.0449-0.1513,0.086-0.2275,0.127c-0.3154,0.1758-0.6289,0.3457-0.9395,0.5117
				c-0.1035,0.0547-0.206,0.1094-0.3095,0.1641c-0.3018,0.1582-0.6006,0.3125-0.8965,0.4628
				c-0.0811,0.0411-0.1621,0.084-0.2422,0.1231c-0.376,0.1875-0.748,0.373-1.1123,0.5498c0,0,0,0-0.001,0l0,0
				c-0.0635-0.0322-0.1308-0.0654-0.1933-0.0967c-0.2842-0.1387-0.5694-0.2783-0.8594-0.4238
				c-0.1387-0.0684-0.2783-0.1406-0.418-0.2129c-0.2344-0.1191-0.4707-0.2402-0.708-0.3672
				c-0.1455-0.0762-0.292-0.1523-0.4385-0.2305c-0.2588-0.1386-0.5195-0.2812-0.7812-0.4257
				c-0.1201-0.0664-0.2393-0.1289-0.3604-0.1973c-0.3838-0.2149-0.7695-0.4356-1.1572-0.666
				c-0.0517-0.0313-0.1025-0.0625-0.1533-0.0918c-0.3438-0.2041-0.6875-0.4131-1.0322-0.6289
				c-0.1065-0.0664-0.212-0.1328-0.3174-0.1992c-0.3057-0.1954-0.6123-0.3926-0.917-0.5957
				c-0.1006-0.0665-0.2002-0.1309-0.2998-0.1963c-0.374-0.25-0.7471-0.5088-1.1211-0.7745
				c-0.0205-0.0136-0.041-0.0292-0.0635-0.0429c-0.4209-0.3008-0.8398-0.6094-1.2568-0.9278
				c-0.0166-0.0136-0.0332-0.0273-0.0518-0.041c-0.3818-0.291-0.7627-0.5937-1.1406-0.9023
				c-0.0615-0.0527-0.125-0.1026-0.1875-0.1563c-0.3555-0.2929-0.707-0.5937-1.0576-0.9023c-0.042-0.0371-0.085-0.0742-0.127-0.1113
				c-0.8047-0.7149-1.5908-1.4707-2.3496-2.2666c-0.0058-0.0069-0.0107-0.0108-0.0156-0.0166
				c-0.3643-0.3829-0.7207-0.7764-1.0713-1.1778c-0.0361-0.041-0.0723-0.082-0.1074-0.125
				c-0.3516-0.4043-0.6953-0.8183-1.0293-1.2441c-0.0039-0.0039-0.0078-0.0078-0.0117-0.0137
				c-0.7012-0.8906-1.3633-1.8281-1.9815-2.8086c-0.0049-0.0097-0.0127-0.0176-0.0185-0.0273l0,0
				c-2.8799-4.584-4.7735-10.1758-4.7735-17.0049c0-18.6768,0.8926-27.1709,0.8926-27.1709H60z"/>
			<path class="st2" d="M68.7061,84.9102c-0.3536,0.25-0.7081,0.4941-1.0635,0.7324C67.998,85.4043,68.3525,85.1602,68.7061,84.9102
				z"/>
			<path class="st2" d="M53.5801,86.4395c-0.3057-0.1954-0.6123-0.3926-0.917-0.5957
				C52.9678,86.0469,53.2744,86.2441,53.5801,86.4395z"/>
			<path class="st2" d="M52.3633,85.6475c-0.374-0.252-0.7471-0.5088-1.1211-0.7745
				C51.6162,85.1387,51.9893,85.3975,52.3633,85.6475z"/>
			<path class="st2" d="M57.3818,88.6484c-0.2588-0.1386-0.5195-0.2812-0.7812-0.4257
				C56.8623,88.3672,57.123,88.5098,57.3818,88.6484z"/>
			<path class="st2" d="M56.2402,88.0254c-0.3838-0.2168-0.7695-0.4356-1.1572-0.666
				C55.4707,87.5898,55.8564,87.8105,56.2402,88.0254z"/>
			<path class="st2" d="M51.1787,84.8301c-0.4209-0.3008-0.8398-0.6094-1.2568-0.9278
				C50.3389,84.2207,50.7578,84.5293,51.1787,84.8301z"/>
			<path class="st2" d="M54.9297,87.2676c-0.3438-0.2041-0.6875-0.4131-1.0322-0.6289
				C54.2422,86.8545,54.5859,87.0635,54.9297,87.2676z"/>
			<path class="st2" d="M45.0078,79.5225c0.7588,0.7959,1.5449,1.5517,2.3496,2.2666
				C46.5527,81.0723,45.7666,80.3184,45.0078,79.5225z"/>
			<path class="st2" d="M72.6895,81.748c0.7705-0.6875,1.5234-1.4101,2.2529-2.1718C74.2129,80.3379,73.46,81.0605,72.6895,81.748z"
				/>
			<path class="st2" d="M48.542,82.8027c-0.3555-0.2929-0.708-0.5937-1.0576-0.9023C47.835,82.209,48.1865,82.5098,48.542,82.8027z"
				/>
			<path class="st2" d="M49.8701,83.8613c-0.3818-0.2929-0.7627-0.5937-1.1406-0.9023
				C49.1074,83.2676,49.4883,83.5703,49.8701,83.8613z"/>
			<path class="st2" d="M72.4326,81.9727c-0.3027,0.2675-0.6084,0.5273-0.916,0.7832C71.8242,82.5,72.1299,82.2402,72.4326,81.9727z
				"/>
			<path class="st2" d="M67.333,85.8477c-0.3057,0.2031-0.6123,0.4003-0.918,0.5957C66.7207,86.248,67.0273,86.0508,67.333,85.8477z
				"/>
			<path class="st2" d="M58.5283,89.2461c-0.2344-0.1191-0.4707-0.2402-0.708-0.3672
				C58.0576,89.0059,58.2939,89.127,58.5283,89.2461z"/>
			<path class="st2" d="M71.2275,82.9941c-0.3379,0.2754-0.6767,0.545-1.0185,0.8067
				C70.5508,83.5391,70.8896,83.2695,71.2275,82.9941z"/>
			<path class="st2" d="M64.9355,87.3496c-0.4052,0.2383-0.8076,0.4688-1.208,0.6914
				C64.1279,87.8184,64.5303,87.5879,64.9355,87.3496z"/>
			<path class="st2" d="M70.0557,83.9199c-0.4053,0.3096-0.8125,0.6094-1.2207,0.9004
				C69.2432,84.5293,69.6504,84.2295,70.0557,83.9199z"/>
			<path class="st2" d="M66.1104,86.6348c-0.375,0.2324-0.7491,0.4609-1.1202,0.6816
				C65.3613,87.0957,65.7354,86.8672,66.1104,86.6348z"/>
			<path class="st2" d="M60,89.9795c0.3643-0.1768,0.7363-0.3623,1.1123-0.5498c-0.376,0.1894-0.748,0.373-1.1133,0.5498
				C60,89.9795,60,89.9795,60,89.9795z"/>
			<path class="st2" d="M63.5,88.168c-0.3154,0.1758-0.6289,0.3457-0.9395,0.5117C62.8711,88.5137,63.1846,88.3438,63.5,88.168z"/>
			<path class="st2" d="M59.8057,89.8828c-0.2842-0.1387-0.5694-0.2783-0.8594-0.4238
				C59.2363,89.6045,59.5215,89.7441,59.8057,89.8828z"/>
			<path class="st2" d="M62.251,88.8438c-0.3018,0.1582-0.6016,0.3125-0.8965,0.4628C61.6504,89.1563,61.9492,89.002,62.251,88.8438
				z"/>
			<path class="st2" d="M76.0039,78.416c-0.2842,0.3242-0.5732,0.6406-0.8662,0.9512
				C75.4307,79.0566,75.7197,78.7402,76.0039,78.416z"/>
			<path class="st2" d="M43.8135,78.2031c-0.3506-0.4043-0.6953-0.8183-1.0293-1.2441
				C43.1182,77.3848,43.4619,77.7988,43.8135,78.2031z"/>
			<path class="st2" d="M44.9922,79.5059c-0.3643-0.3829-0.7207-0.7764-1.0713-1.1778
				C44.2715,78.7295,44.6279,79.123,44.9922,79.5059z"/>
			<path class="st2" d="M77.082,77.127c-0.2666,0.3359-0.5381,0.664-0.8154,0.9863C76.5439,77.791,76.8154,77.4629,77.082,77.127z"
				/>
			<path class="st2" d="M42.7725,76.9453c-0.7002-0.8906-1.3633-1.8281-1.9815-2.8086
				C41.4092,75.1172,42.0713,76.0547,42.7725,76.9453z"/>
			<path class="st2" d="M79.1553,74.2266c-0.586,0.9238-1.2119,1.8066-1.8701,2.6484
				C77.9443,76.0332,78.5693,75.1504,79.1553,74.2266z"/>
			<path class="st2" d="M35.999,57.1045c0,6.8291,1.8936,12.4209,4.7735,17.0029c1.2871-2.2597,3.3105-4.7011,6.0537-4.7011
				c4.0586,0,5.5371,3.2714,5.5371,3.2714s1.918-4.9375,5.5244-6.4511v-9.6465c-3.0137-0.0371-8.2744-0.0078-12.5352,1.4179
				c0,0,0.1231-1.6621,0.1231-3.5996s-0.1231-3.5976-0.1231-3.5976c4.6455,1.5556,9.8623,1.4492,12.5352,1.4062v-6.4775
				c-2.4356-0.0225-5.9473,0.0928-9.9199,1.4209c0,0,0.123-1.6602,0.123-3.5977s-0.123-3.5996-0.123-3.5996
				c3.9658,1.3282,7.4726,1.4453,9.9101,1.4258c-0.124-4.1035-1.3203-9.2744-1.3203-9.2744s2.458,0.1904,3.4424,0.1904
				c0.9844,0,3.4434-0.1904,3.4434-0.1904s-1.1944,5.1709-1.3204,9.2744c2.4366,0.0195,5.9434-0.0976,9.9092-1.4258
				c0,0-0.123,1.6621-0.123,3.5996s0.123,3.5977,0.123,3.5977c-3.9717-1.3281-7.4843-1.4434-9.9189-1.4209v6.4756v0.0019
				c2.6738,0.043,7.8906,0.1494,12.5361-1.4062c0,0-0.124,1.6601-0.124,3.5976s0.124,3.5996,0.124,3.5996
				c-4.2607-1.4257-9.5234-1.455-12.5361-1.4179v9.6494c3.6055,1.5127,5.5224,6.4482,5.5224,6.4482s1.4844-3.2714,5.542-3.2714
				c2.7432,0,4.7657,2.4375,6.0528,4.6982c2.8789-4.582,4.7724-10.1729,4.7724-17c0-18.6768-0.8935-27.1709-0.8935-27.1709H60
				H36.8916C36.8916,29.9336,35.999,38.4277,35.999,57.1045z"/>
			<path class="st1" d="M62.1133,66.2295v-9.6494c3.0127-0.0371,8.2754-0.0078,12.5361,1.4179c0,0-0.124-1.6621-0.124-3.5996
				s0.124-3.5976,0.124-3.5976c-4.6455,1.5556-9.8623,1.4492-12.5361,1.4062v-0.0019v-6.4756
				c2.4346-0.0225,5.9472,0.0928,9.9189,1.4209c0,0-0.123-1.6602-0.123-3.5977s0.123-3.5996,0.123-3.5996
				c-3.9658,1.3282-7.4726,1.4453-9.9092,1.4258c0.126-4.1035,1.3204-9.2744,1.3204-9.2744S60.9844,32.2949,60,32.2949
				c-0.9844,0-3.4424-0.1904-3.4424-0.1904s1.1963,5.1709,1.3203,9.2744c-2.4375,0.0195-5.9443-0.0976-9.9101-1.4258
				c0,0,0.123,1.6621,0.123,3.5996s-0.123,3.5977-0.123,3.5977c3.9726-1.3281,7.4843-1.4434,9.9199-1.4209v6.4775
				c-2.6729,0.043-7.8897,0.1494-12.5352-1.4062c0,0,0.1231,1.6601,0.1231,3.5976s-0.1231,3.5996-0.1231,3.5996
				c4.2608-1.4257,9.5215-1.455,12.5352-1.4179v9.6465c0.6514-0.2715,1.3516-0.4493,2.1113-0.4493
				C60.7607,65.7773,61.4609,65.9551,62.1133,66.2295z"/>
			<path class="st3" d="M73.1777,69.4063c-4.0576,0-5.542,3.2714-5.542,3.2714s-1.9169-4.9355-5.5224-6.4482
				c-0.6524-0.2744-1.3526-0.4522-2.1143-0.4522c-0.7597,0-1.4599,0.1778-2.1113,0.4493c-3.6064,1.5136-5.5244,6.4511-5.5244,6.4511
				s-1.4785-3.2714-5.5371-3.2714c-2.7432,0-4.7666,2.4414-6.0537,4.7011v0.002c0.0058,0.0097,0.0136,0.0176,0.0185,0.0273
				c0.6182,0.9805,1.2813,1.918,1.9815,2.8086c0.0039,0.0059,0.0078,0.0098,0.0117,0.0137c0.334,0.4258,0.6787,0.8398,1.0293,1.2441
				c0.0351,0.043,0.0713,0.084,0.1074,0.125c0.3506,0.4014,0.707,0.7949,1.0713,1.1778c0.0049,0.0058,0.0098,0.0097,0.0156,0.0166
				c0.7588,0.7959,1.5449,1.5498,2.3496,2.2666c0.042,0.0371,0.085,0.0742,0.127,0.1113c0.3496,0.3086,0.7021,0.6094,1.0576,0.9023
				c0.0625,0.0537,0.126,0.1036,0.1875,0.1563c0.3779,0.3086,0.7588,0.6094,1.1406,0.9023c0.0186,0.0137,0.0352,0.0274,0.0518,0.041
				c0.417,0.3184,0.8359,0.627,1.2568,0.9278c0.0225,0.0137,0.043,0.0293,0.0635,0.0429c0.374,0.2657,0.7471,0.5225,1.1211,0.7745
				c0.0996,0.0654,0.1992,0.1298,0.2998,0.1963c0.3047,0.2031,0.6113,0.4003,0.917,0.5957
				c0.1054,0.0664,0.2109,0.1328,0.3174,0.1992c0.3447,0.2158,0.6884,0.4248,1.0322,0.6289
				c0.0508,0.0293,0.1016,0.0605,0.1533,0.0918c0.3877,0.2304,0.7734,0.4492,1.1572,0.666
				c0.1211,0.0684,0.2403,0.1309,0.3604,0.1973c0.2617,0.1445,0.5224,0.2871,0.7812,0.4257
				c0.1465,0.0782,0.293,0.1543,0.4385,0.2305c0.2373,0.127,0.4736,0.2481,0.708,0.3672c0.1397,0.0723,0.2793,0.1445,0.418,0.2129
				c0.29,0.1455,0.5752,0.2851,0.8594,0.4238c0.0625,0.0313,0.1298,0.0645,0.1933,0.0967l0,0
				c0.3653-0.1768,0.7373-0.3604,1.1133-0.5498c0.0801-0.0391,0.1611-0.082,0.2422-0.1231
				c0.2949-0.1503,0.5947-0.3046,0.8965-0.4628c0.1035-0.0547,0.206-0.1094,0.3095-0.1641c0.3106-0.166,0.6241-0.3359,0.9395-0.5117
				c0.0762-0.041,0.1523-0.0821,0.2275-0.127c0.4004-0.2226,0.8028-0.4531,1.208-0.6914c0.0176-0.0117,0.0372-0.0234,0.0547-0.0332
				c0.3711-0.2207,0.7452-0.4492,1.1202-0.6816c0.1015-0.0645,0.2031-0.1289,0.3046-0.1914
				c0.3057-0.1954,0.6123-0.3926,0.918-0.5957c0.1035-0.0684,0.2061-0.1348,0.3096-0.2051
				c0.3554-0.2383,0.7099-0.4824,1.0635-0.7324c0.0429-0.0313,0.0849-0.0586,0.1289-0.0899
				c0.4082-0.291,0.8154-0.5908,1.2207-0.9004c0.0507-0.039,0.1015-0.0801,0.1533-0.1191c0.3418-0.2617,0.6806-0.5313,1.0185-0.8067
				c0.0967-0.0781,0.1924-0.1582,0.2891-0.2382c0.3076-0.2559,0.6133-0.5157,0.916-0.7832c0.086-0.0743,0.1719-0.1485,0.2569-0.2247
				c0.7705-0.6875,1.5234-1.4101,2.2529-2.1718c0.0654-0.0684,0.1299-0.1377,0.1953-0.209c0.293-0.3106,0.582-0.627,0.8662-0.9512
				c0.0879-0.0996,0.1758-0.2012,0.2627-0.3027c0.2773-0.3223,0.5488-0.6504,0.8154-0.9863c0.0674-0.084,0.1358-0.1661,0.2032-0.252
				c0.6582-0.8418,1.2841-1.7246,1.8701-2.6484c0.0244-0.0381,0.0527-0.0762,0.0781-0.1172c-0.001-0.002-0.002-0.003-0.0029-0.0049
				C77.9434,71.8438,75.9209,69.4063,73.1777,69.4063z"/>
		</g>
	</g>
</g>
<g id="Layer_2">
	<g id="Layer_2_00000088105433355850506420000007078132686907385754_">
		<g id="Layer_2_00000008151020972403519510000017401608398655629208_">
			<path class="st4" d="M109.6865,3.2227c3.916,0,7.0908,3.1748,7.0908,7.0908v99.372c0,3.919-3.1748,7.0918-7.0908,7.0918h-99.374
				c-3.916,0-7.0908-3.1728-7.0908-7.0918v-99.372c0-3.916,3.1748-7.0908,7.0908-7.0908L109.6865,3.2227 M109.6865,0h-99.374
				C4.625,0,0,4.625,0,10.3135v99.372C0,115.373,4.625,120,10.3125,120h99.374C115.374,120,120,115.373,120,109.6855v-99.372
				C120,4.625,115.374,0,109.6865,0L109.6865,0z"/>
		</g>
	</g>
</g>
</svg>
