<?xml version="1.0" encoding="utf-8"?>
<!-- Generator: Adobe Illustrator 27.6.1, SVG Export Plug-In . SVG Version: 6.00 Build 0)  -->
<svg version="1.1" xmlns="http://www.w3.org/2000/svg" xmlns:xlink="http://www.w3.org/1999/xlink" x="0px" y="0px"
	 viewBox="0 0 120 120" style="enable-background:new 0 0 120 120;" xml:space="preserve">
<style type="text/css">
	.st0{fill:#CAB99E;}
	.st1{fill:#FF352D;}
	.st2{fill:#001E98;}
	.st3{fill:#FFFFFF;}
	.st4{fill:#FFB600;}
	.st5{fill:#007B49;}
	.st6{fill:#D1D3D4;}
</style>
<g id="Layer_1">
	<g>
		<g>
			<path class="st0" d="M109.6865,3.2226c3.916,0,7.0908,3.1739,7.0908,7.0899v99.373c0,3.918-3.1748,7.0918-7.0908,7.0918h-99.374
				c-3.916,0-7.0908-3.1738-7.0908-7.0918v-99.373c0-3.916,3.1748-7.0899,7.0908-7.0899H109.6865 M109.6865,0h-99.374
				C4.625,0,0,4.625,0,10.3125v99.373C0,115.373,4.625,120,10.3125,120h99.374C115.374,120,120,115.373,120,109.6855v-99.373
				C120,4.625,115.374,0,109.6865,0L109.6865,0z"/>
		</g>
		<g>
			<path class="st1" d="M109.6865,3.2226h-90.291L74.793,40.1543h41.9843V10.3125C116.7773,6.3965,113.6025,3.2226,109.6865,3.2226z
				"/>
			<path class="st2" d="M20.0879,116.7773h89.5986c3.916,0,7.0908-3.1738,7.0908-7.0918V80.3066H74.793L20.0879,116.7773z"/>
			<path class="st3" d="M19.3955,3.2226h-9.083c-1.3848,0-2.6719,0.4024-3.7637,1.0899l65.8145,43.873h44.414v-8.0312H74.793
				L19.3955,3.2226z"/>
			<path class="st3" d="M6.9111,115.9082c1.0108,0.5547,2.169,0.8691,3.4014,0.8691h9.7754L74.793,80.3066h41.9843v-8.0293h-44.414
				L6.9111,115.9082z"/>
			<polygon points="3.2217,39.9101 3.2217,80.5527 33.7041,60.2305 			"/>
			<polygon class="st4" points="3.2217,31.0469 3.2217,39.9101 33.7041,60.2305 3.2217,80.5527 3.2217,89.416 46.9971,60.2305 			
				"/>
			<path class="st5" d="M6.5488,4.3125c-1.9951,1.2539-3.3271,3.4687-3.3271,6v20.7344l43.7754,29.1836L3.2217,89.416v20.2695
				c0,2.6856,1.4912,5.0196,3.6894,6.2227l65.4522-43.6309h44.414V48.1855h-44.414L6.5488,4.3125z"/>
		</g>
	</g>
</g>
<g id="Layer_2">
	<g id="Layer_2_00000088105433355850506420000007078132686907385754_">
		<g id="Layer_2_00000008151020972403519510000017401608398655629208_">
			<path class="st6" d="M109.6865,3.2227c3.916,0,7.0908,3.1748,7.0908,7.0908v99.372c0,3.919-3.1748,7.0918-7.0908,7.0918h-99.374
				c-3.916,0-7.0908-3.1728-7.0908-7.0918v-99.372c0-3.916,3.1748-7.0908,7.0908-7.0908L109.6865,3.2227 M109.6865,0h-99.374
				C4.625,0,0,4.625,0,10.3135v99.372C0,115.373,4.625,120,10.3125,120h99.374C115.374,120,120,115.373,120,109.6855v-99.372
				C120,4.625,115.374,0,109.6865,0L109.6865,0z"/>
		</g>
	</g>
</g>
</svg>
