<?xml version="1.0" encoding="utf-8"?>
<!-- Generator: Adobe Illustrator 27.6.1, SVG Export Plug-In . SVG Version: 6.00 Build 0)  -->
<svg version="1.1" xmlns="http://www.w3.org/2000/svg" xmlns:xlink="http://www.w3.org/1999/xlink" x="0px" y="0px"
	 viewBox="0 0 120 120" style="enable-background:new 0 0 120 120;" xml:space="preserve">
<style type="text/css">
	.st0{fill:#CAB99E;}
	.st1{fill:#000098;}
	.st2{fill:#FF0000;}
	.st3{fill:#FFFFFF;}
	.st4{fill:#D1D3D4;}
</style>
<g id="Layer_1">
	<g>
		<g>
			<path class="st0" d="M109.6865,3.2227c3.916,0,7.0908,3.1748,7.0908,7.0908v99.372c0,3.918-3.1748,7.0918-7.0908,7.0918h-99.374
				c-3.916,0-7.0908-3.1738-7.0908-7.0918v-99.372c0-3.916,3.1748-7.0908,7.0908-7.0908H109.6865 M109.6865,0h-99.374
				C4.625,0,0,4.625,0,10.3135v99.372C0,115.373,4.625,120,10.3125,120h99.374C115.374,120,120,115.373,120,109.6855v-99.372
				C120,4.625,115.374,0,109.6865,0L109.6865,0z"/>
		</g>
		<g>
			<path class="st1" d="M28.8564,18.6738c-6.2177,0-11.2587,5.041-11.2587,11.2598c0,6.2168,5.041,11.2578,11.2587,11.2578
				c6.2178,0,11.2579-5.041,11.2579-11.2578C40.1143,23.7148,35.0742,18.6738,28.8564,18.6738z M28.8564,39.8477
				c-5.4755,0-9.915-4.4395-9.915-9.9141c0-5.4766,4.4395-9.916,9.915-9.916c5.4756,0,9.9151,4.4394,9.9151,9.916
				C38.7715,35.4082,34.332,39.8477,28.8564,39.8477z"/>
			<path class="st1" d="M73.8896,3.2227H10.3125c-3.916,0-7.0908,3.1748-7.0908,7.0908v49.6416h70.6679V3.2227z M48.3564,41.1914
				l-11.2793-3.0371l3.0372,11.2793l-8.2481-8.2695l-3.0098,11.2851l-3.0107-11.2851l-8.248,8.2695l3.0371-11.2793L9.3564,41.1914
				l8.2686-8.248L6.3398,29.9336l11.2852-3.0117l-8.2686-8.2481l11.2784,3.0371l-3.0371-11.2773l8.248,8.2676L28.8564,7.416
				l3.0098,11.2852l8.2481-8.2676l-3.0372,11.2773l11.2793-3.0371l-8.2695,8.2481l11.2861,3.0117l-11.2861,3.0098L48.3564,41.1914z"
				/>
			<path class="st2" d="M109.6865,3.2227H73.8896v56.7324H3.2217v49.7304c0,3.918,3.1748,7.0918,7.0908,7.0918h99.374
				c3.916,0,7.0908-3.1738,7.0908-7.0918v-99.372C116.7773,6.3975,113.6025,3.2227,109.6865,3.2227z"/>
			<path class="st3" d="M28.8564,20.0176c-5.4755,0-9.915,4.4394-9.915,9.916c0,5.4746,4.4395,9.9141,9.915,9.9141
				c5.4756,0,9.9151-4.4395,9.9151-9.9141C38.7715,24.457,34.332,20.0176,28.8564,20.0176z"/>
			<path class="st3" d="M40.0869,26.9219l8.2695-8.2481l-11.2793,3.0371l3.0372-11.2773l-8.2481,8.2676L28.8564,7.416
				l-3.0107,11.2852l-8.248-8.2676l3.0371,11.2773L9.3564,18.6738l8.2686,8.2481L6.3398,29.9336l11.2852,3.0098l-8.2686,8.248
				l11.2784-3.0371l-3.0371,11.2793l8.248-8.2695l3.0107,11.2851l3.0098-11.2851l8.2481,8.2695l-3.0372-11.2793l11.2793,3.0371
				l-8.2695-8.248l11.2861-3.0098L40.0869,26.9219z M28.8564,41.1914c-6.2177,0-11.2587-5.041-11.2587-11.2578
				c0-6.2188,5.041-11.2598,11.2587-11.2598c6.2178,0,11.2579,5.041,11.2579,11.2598
				C40.1143,36.1504,35.0742,41.1914,28.8564,41.1914z"/>
		</g>
	</g>
</g>
<g id="Layer_2">
	<g id="Layer_2_00000088105433355850506420000007078132686907385754_">
		<g id="Layer_2_00000008151020972403519510000017401608398655629208_">
			<path class="st4" d="M109.6865,3.2227c3.916,0,7.0908,3.1748,7.0908,7.0908v99.372c0,3.919-3.1748,7.0918-7.0908,7.0918h-99.374
				c-3.916,0-7.0908-3.1728-7.0908-7.0918v-99.372c0-3.916,3.1748-7.0908,7.0908-7.0908L109.6865,3.2227 M109.6865,0h-99.374
				C4.625,0,0,4.625,0,10.3135v99.372C0,115.373,4.625,120,10.3125,120h99.374C115.374,120,120,115.373,120,109.6855v-99.372
				C120,4.625,115.374,0,109.6865,0L109.6865,0z"/>
		</g>
	</g>
</g>
</svg>
