<?xml version="1.0" encoding="utf-8"?>
<!-- Generator: Adobe Illustrator 27.6.1, SVG Export Plug-In . SVG Version: 6.00 Build 0)  -->
<svg version="1.1" xmlns="http://www.w3.org/2000/svg" xmlns:xlink="http://www.w3.org/1999/xlink" x="0px" y="0px"
	 viewBox="0 0 120 120" style="enable-background:new 0 0 120 120;" xml:space="preserve">
<style type="text/css">
	.st0{fill:#CAB99E;}
	.st1{fill:#FF151F;}
	.st2{fill:#FFFFFF;}
	.st3{fill:#21174F;}
	.st4{fill:#D1D3D4;}
</style>
<g id="Layer_1">
	<g>
		<g>
			<path class="st0" d="M109.6865,3.2227c3.916,0,7.0908,3.1748,7.0908,7.0908v99.372c0,3.918-3.1748,7.0918-7.0908,7.0918h-99.374
				c-3.916,0-7.0908-3.1738-7.0908-7.0918v-99.372c0-3.916,3.1748-7.0908,7.0908-7.0908H109.6865 M109.6865,0h-99.374
				C4.625,0,0,4.625,0,10.3135v99.372C0,115.373,4.625,120,10.3125,120h99.374C115.374,120,120,115.373,120,109.6855v-99.372
				C120,4.625,115.374,0,109.6865,0L109.6865,0z"/>
		</g>
		<g>
			<path class="st1" d="M3.2217,109.6855c0,3.918,3.1748,7.0918,7.0908,7.0918h99.374c3.916,0,7.0908-3.1738,7.0908-7.0918v-9.7011
				H3.2217V109.6855z"/>
			<path class="st1" d="M109.6865,3.2227h-99.374c-3.916,0-7.0908,3.1748-7.0908,7.0908v9.6123h113.5556v-9.6123
				C116.7773,6.3975,113.6025,3.2227,109.6865,3.2227z"/>
			<rect x="3.2217" y="79.9707" class="st2" width="113.5556" height="20.0137"/>
			<rect x="3.2217" y="19.9258" class="st2" width="113.5556" height="20.0156"/>
			<rect x="3.2217" y="39.9414" class="st3" width="113.5556" height="40.0293"/>
		</g>
	</g>
</g>
<g id="Layer_2">
	<g id="Layer_2_00000088105433355850506420000007078132686907385754_">
		<g id="Layer_2_00000008151020972403519510000017401608398655629208_">
			<path class="st4" d="M109.6865,3.2227c3.916,0,7.0908,3.1748,7.0908,7.0908v99.372c0,3.919-3.1748,7.0918-7.0908,7.0918h-99.374
				c-3.916,0-7.0908-3.1728-7.0908-7.0918v-99.372c0-3.916,3.1748-7.0908,7.0908-7.0908L109.6865,3.2227 M109.6865,0h-99.374
				C4.625,0,0,4.625,0,10.3135v99.372C0,115.373,4.625,120,10.3125,120h99.374C115.374,120,120,115.373,120,109.6855v-99.372
				C120,4.625,115.374,0,109.6865,0L109.6865,0z"/>
		</g>
	</g>
</g>
</svg>
