<?xml version="1.0" encoding="utf-8"?>
<!-- Generator: Adobe Illustrator 27.6.1, SVG Export Plug-In . SVG Version: 6.00 Build 0)  -->
<svg version="1.1" xmlns="http://www.w3.org/2000/svg" xmlns:xlink="http://www.w3.org/1999/xlink" x="0px" y="0px"
	 viewBox="0 0 120 120" style="enable-background:new 0 0 120 120;" xml:space="preserve">
<style type="text/css">
	.st0{fill:#C8B89D;}
	.st1{fill:#E22311;}
	.st2{fill:#FFFFFF;}
	.st3{fill:#D1D3D4;}
</style>
<g id="Layer_1">
	<g>
		<g>
			<path class="st0" d="M109.6865,3.2226c3.916,0,7.0908,3.1739,7.0908,7.0899v99.373c0,3.918-3.1748,7.0918-7.0908,7.0918h-99.374
				c-3.916,0-7.0908-3.1738-7.0908-7.0918v-99.373c0-3.916,3.1748-7.0899,7.0908-7.0899H109.6865 M109.6865,0h-99.374
				C4.625,0,0,4.625,0,10.3125v99.373C0,115.373,4.625,120,10.3125,120h99.374C115.374,120,120,115.373,120,109.6855v-99.373
				C120,4.625,115.374,0,109.6865,0L109.6865,0z"/>
		</g>
		<g>
			<path class="st1" d="M109.6865,3.2226h-99.374c-3.916,0-7.0908,3.1739-7.0908,7.0899v99.373c0,3.918,3.1748,7.0918,7.0908,7.0918
				h99.374c3.916,0,7.0908-3.1738,7.0908-7.0918v-99.373C116.7773,6.3965,113.6025,3.2226,109.6865,3.2226z M60,89.9766
				c-16.582,0-30.0234-13.4395-30.0234-30.0215C29.9766,43.373,43.418,29.9336,60,29.9336
				c16.5801,0,30.0225,13.4394,30.0225,30.0215C90.0225,76.5371,76.5801,89.9766,60,89.9766z"/>
			<path class="st2" d="M60,29.9336c-16.582,0-30.0234,13.4394-30.0234,30.0215c0,16.582,13.4414,30.0215,30.0234,30.0215
				c16.5801,0,30.0225-13.4395,30.0225-30.0215C90.0225,43.373,76.5801,29.9336,60,29.9336z M76.9346,67.8965l-9.336-3.0332
				l-5.7695,7.9414v-9.8164l-9.335-3.0332l9.335-3.0332v-9.8164l5.7695,7.9414l9.336-3.0332l-5.7705,7.9414L76.9346,67.8965z
				 M66.0039,41.9414c-9.9473,0-18.0137,8.0644-18.0137,18.0137c0,9.9492,8.0664,18.0117,18.0137,18.0117
				c4.707,0,8.9912-1.8047,12.1992-4.7598C74.1094,78.8223,67.4814,82.4726,60,82.4726c-12.4355,0-22.5166-10.082-22.5166-22.5175
				c0-12.4356,10.0811-22.5157,22.5166-22.5157c7.4814,0,14.1094,3.6485,18.2031,9.2637
				C74.9951,43.748,70.7109,41.9414,66.0039,41.9414z"/>
			<path class="st1" d="M60,37.4394c-12.4355,0-22.5166,10.0801-22.5166,22.5157c0,12.4355,10.0811,22.5175,22.5166,22.5175
				c7.4814,0,14.1094-3.6503,18.2031-9.2656c-3.208,2.9551-7.4922,4.7598-12.1992,4.7598c-9.9473,0-18.0137-8.0625-18.0137-18.0117
				c0-9.9493,8.0664-18.0137,18.0137-18.0137c4.707,0,8.9912,1.8066,12.1992,4.7617C74.1094,41.0879,67.4814,37.4394,60,37.4394z"/>
			<polygon class="st1" points="67.5986,55.0469 61.8291,47.1055 61.8291,56.9219 52.4941,59.9551 61.8291,62.9883 61.8291,72.8047 
				67.5986,64.8633 76.9346,67.8965 71.1641,59.9551 76.9346,52.0137 			"/>
		</g>
	</g>
</g>
<g id="Layer_2">
	<g id="Layer_2_00000088105433355850506420000007078132686907385754_">
		<g id="Layer_2_00000008151020972403519510000017401608398655629208_">
			<path class="st3" d="M109.6865,3.2227c3.916,0,7.0908,3.1748,7.0908,7.0908v99.372c0,3.919-3.1748,7.0918-7.0908,7.0918h-99.374
				c-3.916,0-7.0908-3.1728-7.0908-7.0918v-99.372c0-3.916,3.1748-7.0908,7.0908-7.0908L109.6865,3.2227 M109.6865,0h-99.374
				C4.625,0,0,4.625,0,10.3135v99.372C0,115.373,4.625,120,10.3125,120h99.374C115.374,120,120,115.373,120,109.6855v-99.372
				C120,4.625,115.374,0,109.6865,0L109.6865,0z"/>
		</g>
	</g>
</g>
</svg>
