<?xml version="1.0" encoding="utf-8"?>
<!-- Generator: Adobe Illustrator 27.6.1, SVG Export Plug-In . SVG Version: 6.00 Build 0)  -->
<svg version="1.1" xmlns="http://www.w3.org/2000/svg" xmlns:xlink="http://www.w3.org/1999/xlink" x="0px" y="0px"
	 viewBox="0 0 120 120" style="enable-background:new 0 0 120 120;" xml:space="preserve">
<style type="text/css">
	.st0{fill:#CAB99E;}
	.st1{fill:#FFFFFF;}
	.st2{fill:#3C3B6E;}
	.st3{fill:#B02233;}
	.st4{fill:#D1D3D4;}
</style>
<g id="Layer_1">
	<g>
		<g>
			<path class="st0" d="M109.6865,3.2226c3.916,0,7.0908,3.1739,7.0908,7.0899v99.373c0,3.918-3.1748,7.0918-7.0908,7.0918h-99.374
				c-3.916,0-7.0908-3.1738-7.0908-7.0918v-99.373c0-3.916,3.1748-7.0899,7.0908-7.0899H109.6865 M109.6865,0h-99.374
				C4.625,0,0,4.625,0,10.3125v99.373C0,115.373,4.625,120,10.3125,120h99.374C115.374,120,120,115.373,120,109.6855v-99.373
				C120,4.625,115.374,0,109.6865,0L109.6865,0z"/>
		</g>
		<g>
			<rect x="3.2217" y="83.0742" class="st1" width="113.5556" height="9.2207"/>
			<polygon class="st1" points="3.2217,64.6094 3.2217,73.832 116.7773,73.832 116.7773,64.6094 91.1016,64.6094 			"/>
			<path class="st1" d="M91.1016,18.4648h25.6757v-8.1523c0-0.3652-0.0371-0.7188-0.0888-1.0684H91.1016V18.4648z"/>
			<path class="st1" d="M3.2217,109.6855c0,0.3672,0.0371,0.7227,0.0888,1.0723h113.378c0.0517-0.3496,0.0888-0.7051,0.0888-1.0723
				v-8.1484H3.2217V109.6855z"/>
			<rect x="91.1016" y="27.707" class="st1" width="25.6757" height="9.2188"/>
			<rect x="91.1016" y="46.1699" class="st1" width="25.6757" height="9.1973"/>
			<path class="st2" d="M91.1016,55.3672v-9.1973v-9.2441V27.707v-9.2422V9.2441V3.2226h-7.6143L84.1436,5.25h2.6572l-2.1582,1.5664
				l0.8349,2.5371l-2.1728-1.5762l-2.1729,1.5762l0.835-2.5371L79.8086,5.25h2.6631l0.6689-2.0274H68.377L69.0322,5.25h2.6807
				l-2.165,1.5703l0.8183,2.5332l-2.1611-1.5684l-2.1612,1.5684l0.8184-2.5332L64.6973,5.25h2.6806l0.6553-2.0274H53.2666
				L53.9229,5.25h2.6796l-2.165,1.5703l0.8184,2.5332l-2.1612-1.5684l-2.1621,1.5684l0.8194-2.5332L49.5879,5.25h2.6797
				l0.6553-2.0274H38.1592L38.8271,5.25h2.6641L39.333,6.8164l0.8359,2.5371l-2.1738-1.5762l-2.1728,1.5762l0.8349-2.5332
				L34.4775,5.25h2.6797l0.6553-2.0274H23.0664L23.7236,5.25h2.6797l-2.164,1.5703l0.8183,2.5332l-2.165-1.5703l-2.1797,1.5703
				l0.835-2.5371L19.3896,5.25h2.6641l0.667-2.0274H10.3125c-0.7832,0-1.5332,0.1309-2.2373,0.3653L8.6133,5.25h2.6797
				L9.1289,6.8203l0.8184,2.5332L7.7861,7.7851L5.625,9.3535l0.8184-2.5332L4.9199,5.7168
				c-1.0566,1.2383-1.6982,2.8398-1.6982,4.5957v54.2969h87.8799V55.3672z M9.9473,61.2148l-2.1612-1.584l-2.1611,1.584
				l0.8203-2.5547l-2.167-1.5722H6.958l0.8281-2.5567l0.8272,2.5567h2.6797l-2.166,1.5722L9.9473,61.2148z M9.1299,45.7031
				l0.8174,2.541l-2.1612-1.5683L5.625,48.2441l0.8154-2.541l-2.1621-1.5859H6.958l0.8281-2.5586l0.8272,2.5586h2.6797
				L9.1299,45.7031z M9.1289,32.7402l0.8184,2.5313l-2.1612-1.5664L5.625,35.2715l0.8184-2.5313l-2.1651-1.5703H6.958l0.8281-2.5586
				l0.8272,2.5586h2.6797L9.1289,32.7402z M9.1299,19.7832l0.8174,2.541l-2.1612-1.5684L5.625,22.3242l0.8154-2.541l-2.1621-1.584
				h2.6846l0.8232-2.5586l0.8223,2.5586h2.6846L9.1299,19.7832z M17.5146,54.75l-2.1738-1.5957L13.1689,54.75l0.8223-2.5742
				l-2.168-1.5723h2.6866l0.8418-2.5586l0.8281,2.5586h2.6797l-2.168,1.5723L17.5146,54.75z M16.6953,39.2246l0.8193,2.5332
				l-2.1738-1.5645l-2.1719,1.5645l0.8184-2.5332l-2.1641-1.5703h2.6836l0.8448-2.5801l0.83,2.5801h2.6778L16.6953,39.2246z
				 M16.6943,26.2558l0.8203,2.5528l-2.1738-1.5801l-2.1719,1.5801l0.8213-2.5528l-2.167-1.5722h2.6866l0.8418-2.5586l0.8281,2.5586
				h2.6797L16.6943,26.2558z M16.6953,13.3047l0.8193,2.5351l-2.1738-1.5664l-2.1719,1.5664l0.8184-2.5351l-2.1641-1.5684h2.6836
				l0.8448-2.582l0.83,2.582h2.6778L16.6953,13.3047z M25.0576,61.2148l-2.165-1.5879l-2.1797,1.5879l0.8379-2.5586l-2.1612-1.5683
				h2.6641l0.8418-2.5567l0.8281,2.5567h2.6797l-2.166,1.5722L25.0576,61.2148z M24.2412,45.7031l0.8164,2.541l-2.165-1.5722
				l-2.1797,1.5722l0.833-2.5468l-2.1563-1.5801h2.6641l0.8418-2.5586l0.8281,2.5586h2.6797L24.2412,45.7031z M24.2393,32.7402
				l0.8183,2.5313l-2.165-1.5684l-2.1797,1.5684l0.835-2.5352l-2.1583-1.5664h2.6641l0.8418-2.5586l0.8281,2.5586h2.6797
				L24.2393,32.7402z M24.2412,19.7832l0.8164,2.541l-2.165-1.5703l-2.1797,1.5703l0.833-2.5449l-2.1563-1.5801h2.669l0.8369-2.5586
				l0.8233,2.5586h2.6845L24.2412,19.7832z M32.624,54.75l-2.1845-1.6035L28.2568,54.75l0.8418-2.5879l-2.166-1.5586h2.6709
				l0.8594-2.5586l0.8271,2.5586h2.6797l-2.1826,1.5723L32.624,54.75z M31.791,39.2246l0.833,2.5332l-2.1845-1.5742l-2.1827,1.5742
				l0.8379-2.5469l-2.1621-1.5566h2.6699l0.8604-2.5801l0.8291,2.5801h2.6777L31.791,39.2246z M31.7881,26.2558l0.8359,2.5528
				l-2.1845-1.5879l-2.1827,1.5879l0.8399-2.5664l-2.1641-1.5586h2.6709l0.8594-2.5586l0.8271,2.5586h2.6797L31.7881,26.2558z
				 M31.791,13.3047l0.833,2.5351l-2.1845-1.5742l-2.1827,1.5742l0.8379-2.5468l-2.1621-1.5567h2.6699l0.8604-2.582l0.8291,2.582
				h2.6777L31.791,13.3047z M40.1689,61.2148l-2.1738-1.5918l-2.1728,1.5918l0.8359-2.5547l-2.1807-1.5722h2.6797l0.8272-2.5567
				l0.8427,2.5567h2.6641l-2.1601,1.5683L40.1689,61.2148z M39.335,45.6973l0.8339,2.5468l-2.1738-1.5781l-2.1728,1.5781
				l0.832-2.541l-2.1768-1.5859h2.6797l0.8272-2.5586l0.8427,2.5586h2.6641L39.335,45.6973z M39.333,32.7363l0.8359,2.5352
				l-2.1738-1.5742l-2.1728,1.5742l0.8349-2.5313l-2.1797-1.5703h2.6797l0.8272-2.5586l0.8427,2.5586h2.6641L39.333,32.7363z
				 M39.335,19.7793l0.8339,2.5449l-2.1738-1.5762l-2.1728,1.5762l0.832-2.541l-2.1768-1.584h2.6846l0.8223-2.5586l0.8379,2.5586
				h2.6689L39.335,19.7793z M47.7334,54.75l-2.1816-1.6035L43.3662,54.75l0.8408-2.584l-2.1855-1.5625h2.7021l0.8282-2.5586
				l0.8418,2.5586h2.664l-2.1621,1.5684L47.7334,54.75z M46.8994,39.2207l0.834,2.5371l-2.1816-1.5742l-2.1856,1.5742l0.8379-2.543
				l-2.1826-1.5605h2.7002l0.8301-2.5801l0.8437,2.5801h2.6621L46.8994,39.2207z M46.8975,26.2519l0.8359,2.5567l-2.1816-1.5879
				l-2.1856,1.5879l0.8389-2.5625l-2.1836-1.5625h2.7021l0.8282-2.5586l0.8418,2.5586h2.664L46.8975,26.2519z M46.8994,13.3008
				l0.834,2.539l-2.1816-1.5742l-2.1856,1.5742l0.8379-2.5429l-2.1826-1.5606h2.7002l0.8301-2.582l0.8437,2.582h2.6621
				L46.8994,13.3008z M55.2559,61.2148l-2.1612-1.584l-2.1621,1.584l0.8213-2.5547l-2.166-1.5722h2.6797l0.8271-2.5567
				l0.8282,2.5567h2.6796l-2.167,1.5722L55.2559,61.2148z M54.4395,45.7031l0.8164,2.541l-2.1612-1.5683l-2.1621,1.5683
				l0.8174-2.541l-2.1621-1.5859h2.6797l0.8271-2.5586l0.8282,2.5586h2.6796L54.4395,45.7031z M54.4375,32.7402l0.8184,2.5313
				l-2.1612-1.5664l-2.1621,1.5664l0.8194-2.5313l-2.1641-1.5703h2.6797l0.8271-2.5586l0.8282,2.5586h2.6796L54.4375,32.7402z
				 M54.4395,19.7832l0.8164,2.541l-2.1612-1.5684l-2.1621,1.5684l0.8174-2.541l-2.1621-1.584h2.6846l0.8222-2.5586l0.8223,2.5586
				h2.6855L54.4395,19.7832z M62.8223,54.75l-2.1651-1.6016L58.4766,54.75l0.8388-2.5742l-2.1836-1.5723h2.7012l0.8281-2.5586
				l0.8272,2.5586h2.6797l-2.169,1.5723L62.8223,54.75z M62.0029,39.2246l0.8194,2.5332l-2.1651-1.5703l-2.1806,1.5703
				l0.8349-2.5332l-2.1797-1.5703h2.6993l0.83-2.5801l0.8301,2.5801h2.6768L62.0029,39.2246z M62.002,26.2558l0.8203,2.5528
				l-2.1651-1.586l-2.1806,1.586l0.8369-2.5528l-2.1817-1.5722h2.7012l0.8281-2.5586l0.8272,2.5586h2.6797L62.002,26.2558z
				 M62.0029,13.3047l0.8194,2.5351l-2.1651-1.5722l-2.1806,1.5722l0.8349-2.5351l-2.1797-1.5684h2.6993l0.83-2.582l0.8301,2.582
				h2.6768L62.0029,13.3047z M70.3662,61.2148l-2.1611-1.584l-2.1612,1.584l0.8204-2.5547l-2.167-1.5722h2.6806l0.8272-2.5567
				l0.8271,2.5567h2.6807l-2.167,1.5722L70.3662,61.2148z M69.5498,45.7031l0.8164,2.541l-2.1611-1.5683l-2.1612,1.5683
				l0.8165-2.541l-2.1631-1.5859h2.6806l0.8272-2.5586l0.8271,2.5586h2.6807L69.5498,45.7031z M69.5479,32.7402l0.8183,2.5313
				l-2.1611-1.5664l-2.1612,1.5664l0.8184-2.5313l-2.165-1.5703h2.6806l0.8272-2.5586l0.8271,2.5586h2.6807L69.5479,32.7402z
				 M69.5498,19.7832l0.8164,2.541l-2.1611-1.5684l-2.1612,1.5684l0.8165-2.541l-2.1631-1.584h2.6845l0.8233-2.5586l0.8232,2.5586
				h2.6846L69.5498,19.7832z M77.9336,54.75l-2.167-1.6016L73.5879,54.75l0.8379-2.5742l-2.1836-1.5723h2.6865l0.8428-2.5586
				l0.8271,2.5586h2.6797l-2.1699,1.5625L77.9336,54.75z M77.1113,39.2148l0.8223,2.543l-2.167-1.5703l-2.1787,1.5703l0.835-2.5332
				l-2.1807-1.5703h2.6836l0.8457-2.5801l0.8291,2.5801h2.6777L77.1113,39.2148z M77.1104,26.2461l0.8232,2.5625l-2.167-1.586
				l-2.1787,1.586l0.835-2.5528l-2.1807-1.5722h2.6865l0.8428-2.5586l0.8271,2.5586h2.6797L77.1104,26.2461z M77.1113,13.2969
				l0.8223,2.5429l-2.167-1.5722l-2.1787,1.5722l0.835-2.5351l-2.1807-1.5684h2.6836l0.8457-2.582l0.8291,2.582h2.6777
				L77.1113,13.2969z M85.4775,61.2148l-2.1728-1.5918l-2.1729,1.5918l0.837-2.5586l-2.1602-1.5683h2.6631l0.8437-2.5567
				l0.8282,2.5567h2.6572l-2.1602,1.5683L85.4775,61.2148z M84.6445,45.6973l0.833,2.5468l-2.1728-1.5781l-2.1729,1.5781
				l0.833-2.5468l-2.1562-1.5801h2.6631l0.8437-2.5586l0.8282,2.5586h2.6572L84.6445,45.6973z M84.6426,32.7363l0.8349,2.5352
				l-2.1728-1.5742l-2.1729,1.5742l0.835-2.5352l-2.1582-1.5664h2.6631l0.8437-2.5586l0.8282,2.5586h2.6572L84.6426,32.7363z
				 M84.6445,19.7793l0.833,2.5449l-2.1728-1.5762l-2.1729,1.5762l0.833-2.5449l-2.1562-1.5801h2.6689l0.8379-2.5586l0.8223,2.5586
				h2.6631L84.6445,19.7793z"/>
			<path class="st2" d="M7.4121,3.8476C6.6436,4.1933,5.9463,4.668,5.3516,5.25H6.958L7.4121,3.8476z"/>
			<rect x="3.2217" y="73.832" class="st3" width="113.5556" height="9.2422"/>
			<rect x="3.2217" y="92.2949" class="st3" width="113.5556" height="9.2422"/>
			<path class="st3" d="M10.3125,116.7773h99.374c3.5508,0,6.4834-2.6132,7.002-6.0195H3.3105
				C3.8291,114.1641,6.7627,116.7773,10.3125,116.7773z"/>
			<path class="st3" d="M109.6865,3.2226H91.1016v6.0215h25.5869C116.1709,5.8359,113.2373,3.2226,109.6865,3.2226z"/>
			<path class="st1" d="M5.625,9.3535l2.1611-1.5684l2.1612,1.5684L9.1289,6.8203L11.293,5.25H8.6133L8.0752,3.5879
				C7.8496,3.6641,7.6279,3.75,7.4121,3.8476L6.958,5.25H5.3516c-0.1504,0.1484-0.294,0.3047-0.4317,0.4668l1.5235,1.1035
				L5.625,9.3535z"/>
			<polygon class="st1" points="19.3896,5.25 21.5479,6.8164 20.7129,9.3535 22.8926,7.7832 25.0576,9.3535 24.2393,6.8203 
				26.4033,5.25 23.7236,5.25 23.0664,3.2226 22.7207,3.2226 22.0537,5.25 			"/>
			<polygon class="st1" points="34.4775,5.25 36.6572,6.8203 35.8223,9.3535 37.9951,7.7773 40.1689,9.3535 39.333,6.8164 
				41.4912,5.25 38.8271,5.25 38.1592,3.2226 37.8125,3.2226 37.1572,5.25 			"/>
			<polygon class="st1" points="49.5879,5.25 51.752,6.8203 50.9326,9.3535 53.0947,7.7851 55.2559,9.3535 54.4375,6.8203 
				56.6025,5.25 53.9229,5.25 53.2666,3.2226 52.9229,3.2226 52.2676,5.25 			"/>
			<polygon class="st1" points="64.6973,5.25 66.8623,6.8203 66.0439,9.3535 68.2051,7.7851 70.3662,9.3535 69.5479,6.8203 
				71.7129,5.25 69.0322,5.25 68.377,3.2226 68.0332,3.2226 67.3779,5.25 			"/>
			<polygon class="st1" points="79.8086,5.25 81.9668,6.8164 81.1318,9.3535 83.3047,7.7773 85.4775,9.3535 84.6426,6.8164 
				86.8008,5.25 84.1436,5.25 83.4873,3.2226 83.1406,3.2226 82.4717,5.25 			"/>
			<polygon class="st1" points="15.3516,9.1543 14.5068,11.7363 11.8232,11.7363 13.9873,13.3047 13.1689,15.8398 15.3408,14.2734 
				17.5146,15.8398 16.6953,13.3047 18.8594,11.7363 16.1816,11.7363 			"/>
			<polygon class="st1" points="30.4629,9.1543 29.6025,11.7363 26.9326,11.7363 29.0947,13.293 28.2568,15.8398 30.4395,14.2656 
				32.624,15.8398 31.791,13.3047 33.9697,11.7363 31.292,11.7363 			"/>
			<polygon class="st1" points="45.5518,9.1543 44.7217,11.7363 42.0215,11.7363 44.2041,13.2969 43.3662,15.8398 45.5518,14.2656 
				47.7334,15.8398 46.8994,13.3008 49.0576,11.7363 46.3955,11.7363 			"/>
			<polygon class="st1" points="60.6611,9.1543 59.8311,11.7363 57.1318,11.7363 59.3115,13.3047 58.4766,15.8398 60.6572,14.2676 
				62.8223,15.8398 62.0029,13.3047 64.168,11.7363 61.4912,11.7363 			"/>
			<polygon class="st1" points="75.7715,9.1543 74.9258,11.7363 72.2422,11.7363 74.4229,13.3047 73.5879,15.8398 75.7666,14.2676 
				77.9336,15.8398 77.1113,13.2969 79.2783,11.7363 76.6006,11.7363 			"/>
			<polygon class="st1" points="7.7861,15.6406 6.9629,18.1992 4.2783,18.1992 6.4404,19.7832 5.625,22.3242 7.7861,20.7558 
				9.9473,22.3242 9.1299,19.7832 11.293,18.1992 8.6084,18.1992 			"/>
			<polygon class="st1" points="22.8955,15.6406 22.0586,18.1992 19.3896,18.1992 21.5459,19.7793 20.7129,22.3242 22.8926,20.7539 
				25.0576,22.3242 24.2412,19.7832 26.4033,18.1992 23.7188,18.1992 			"/>
			<polygon class="st1" points="37.9844,15.6406 37.1621,18.1992 34.4775,18.1992 36.6543,19.7832 35.8223,22.3242 37.9951,20.748 
				40.1689,22.3242 39.335,19.7793 41.4912,18.1992 38.8223,18.1992 			"/>
			<polygon class="st1" points="53.0947,15.6406 52.2725,18.1992 49.5879,18.1992 51.75,19.7832 50.9326,22.3242 53.0947,20.7558 
				55.2559,22.3242 54.4395,19.7832 56.6025,18.1992 53.917,18.1992 			"/>
			<polygon class="st1" points="68.2051,15.6406 67.3818,18.1992 64.6973,18.1992 66.8604,19.7832 66.0439,22.3242 68.2051,20.7558 
				70.3662,22.3242 69.5498,19.7832 71.7129,18.1992 69.0283,18.1992 			"/>
			<polygon class="st1" points="83.3154,15.6406 82.4775,18.1992 79.8086,18.1992 81.9648,19.7793 81.1318,22.3242 83.3047,20.748 
				85.4775,22.3242 84.6445,19.7793 86.8008,18.1992 84.1377,18.1992 			"/>
			<polygon class="st1" points="15.3516,22.125 14.5098,24.6836 11.8232,24.6836 13.9902,26.2558 13.1689,28.8086 15.3408,27.2285 
				17.5146,28.8086 16.6943,26.2558 18.8594,24.6836 16.1797,24.6836 			"/>
			<polygon class="st1" points="30.4629,22.125 29.6035,24.6836 26.9326,24.6836 29.0967,26.2422 28.2568,28.8086 30.4395,27.2207 
				32.624,28.8086 31.7881,26.2558 33.9697,24.6836 31.29,24.6836 			"/>
			<polygon class="st1" points="45.5518,22.125 44.7236,24.6836 42.0215,24.6836 44.2051,26.2461 43.3662,28.8086 45.5518,27.2207 
				47.7334,28.8086 46.8975,26.2519 49.0576,24.6836 46.3936,24.6836 			"/>
			<polygon class="st1" points="60.6611,22.125 59.833,24.6836 57.1318,24.6836 59.3135,26.2558 58.4766,28.8086 60.6572,27.2226 
				62.8223,28.8086 62.002,26.2558 64.168,24.6836 61.4883,24.6836 			"/>
			<polygon class="st1" points="75.7715,22.125 74.9287,24.6836 72.2422,24.6836 74.4229,26.2558 73.5879,28.8086 75.7666,27.2226 
				77.9336,28.8086 77.1104,26.2461 79.2783,24.6836 76.5986,24.6836 			"/>
			<polygon class="st1" points="7.7861,28.6113 6.958,31.1699 4.2783,31.1699 6.4434,32.7402 5.625,35.2715 7.7861,33.7051 
				9.9473,35.2715 9.1289,32.7402 11.293,31.1699 8.6133,31.1699 			"/>
			<polygon class="st1" points="22.8955,28.6113 22.0537,31.1699 19.3896,31.1699 21.5479,32.7363 20.7129,35.2715 22.8926,33.7031 
				25.0576,35.2715 24.2393,32.7402 26.4033,31.1699 23.7236,31.1699 			"/>
			<polygon class="st1" points="37.9844,28.6113 37.1572,31.1699 34.4775,31.1699 36.6572,32.7402 35.8223,35.2715 37.9951,33.6973 
				40.1689,35.2715 39.333,32.7363 41.4912,31.1699 38.8271,31.1699 			"/>
			<polygon class="st1" points="53.0947,28.6113 52.2676,31.1699 49.5879,31.1699 51.752,32.7402 50.9326,35.2715 53.0947,33.7051 
				55.2559,35.2715 54.4375,32.7402 56.6025,31.1699 53.9229,31.1699 			"/>
			<polygon class="st1" points="68.2051,28.6113 67.3779,31.1699 64.6973,31.1699 66.8623,32.7402 66.0439,35.2715 68.2051,33.7051 
				70.3662,35.2715 69.5479,32.7402 71.7129,31.1699 69.0322,31.1699 			"/>
			<polygon class="st1" points="83.3154,28.6113 82.4717,31.1699 79.8086,31.1699 81.9668,32.7363 81.1318,35.2715 83.3047,33.6973 
				85.4775,35.2715 84.6426,32.7363 86.8008,31.1699 84.1436,31.1699 			"/>
			<polygon class="st1" points="15.3516,35.0742 14.5068,37.6543 11.8232,37.6543 13.9873,39.2246 13.1689,41.7578 15.3408,40.1933 
				17.5146,41.7578 16.6953,39.2246 18.8594,37.6543 16.1816,37.6543 			"/>
			<polygon class="st1" points="30.4629,35.0742 29.6025,37.6543 26.9326,37.6543 29.0947,39.2109 28.2568,41.7578 30.4395,40.1836 
				32.624,41.7578 31.791,39.2246 33.9697,37.6543 31.292,37.6543 			"/>
			<polygon class="st1" points="45.5518,35.0742 44.7217,37.6543 42.0215,37.6543 44.2041,39.2148 43.3662,41.7578 45.5518,40.1836 
				47.7334,41.7578 46.8994,39.2207 49.0576,37.6543 46.3955,37.6543 			"/>
			<polygon class="st1" points="60.6611,35.0742 59.8311,37.6543 57.1318,37.6543 59.3115,39.2246 58.4766,41.7578 60.6572,40.1875 
				62.8223,41.7578 62.0029,39.2246 64.168,37.6543 61.4912,37.6543 			"/>
			<polygon class="st1" points="75.7715,35.0742 74.9258,37.6543 72.2422,37.6543 74.4229,39.2246 73.5879,41.7578 75.7666,40.1875 
				77.9336,41.7578 77.1113,39.2148 79.2783,37.6543 76.6006,37.6543 			"/>
			<polygon class="st1" points="7.7861,41.5586 6.958,44.1172 4.2783,44.1172 6.4404,45.7031 5.625,48.2441 7.7861,46.6758 
				9.9473,48.2441 9.1299,45.7031 11.293,44.1172 8.6133,44.1172 			"/>
			<polygon class="st1" points="22.8955,41.5586 22.0537,44.1172 19.3896,44.1172 21.5459,45.6973 20.7129,48.2441 22.8926,46.6719 
				25.0576,48.2441 24.2412,45.7031 26.4033,44.1172 23.7236,44.1172 			"/>
			<polygon class="st1" points="37.9844,41.5586 37.1572,44.1172 34.4775,44.1172 36.6543,45.7031 35.8223,48.2441 37.9951,46.666 
				40.1689,48.2441 39.335,45.6973 41.4912,44.1172 38.8271,44.1172 			"/>
			<polygon class="st1" points="53.0947,41.5586 52.2676,44.1172 49.5879,44.1172 51.75,45.7031 50.9326,48.2441 53.0947,46.6758 
				55.2559,48.2441 54.4395,45.7031 56.6025,44.1172 53.9229,44.1172 			"/>
			<polygon class="st1" points="68.2051,41.5586 67.3779,44.1172 64.6973,44.1172 66.8604,45.7031 66.0439,48.2441 68.2051,46.6758 
				70.3662,48.2441 69.5498,45.7031 71.7129,44.1172 69.0322,44.1172 			"/>
			<polygon class="st1" points="83.3154,41.5586 82.4717,44.1172 79.8086,44.1172 81.9648,45.6973 81.1318,48.2441 83.3047,46.666 
				85.4775,48.2441 84.6445,45.6973 86.8008,44.1172 84.1436,44.1172 			"/>
			<polygon class="st1" points="16.1797,50.6035 15.3516,48.0449 14.5098,50.6035 11.8232,50.6035 13.9912,52.1758 13.1689,54.75 
				15.3408,53.1543 17.5146,54.75 16.6914,52.1758 18.8594,50.6035 			"/>
			<polygon class="st1" points="31.29,50.6035 30.4629,48.0449 29.6035,50.6035 26.9326,50.6035 29.0986,52.1621 28.2568,54.75 
				30.4395,53.1465 32.624,54.75 31.7871,52.1758 33.9697,50.6035 			"/>
			<polygon class="st1" points="46.3936,50.6035 45.5518,48.0449 44.7236,50.6035 42.0215,50.6035 44.207,52.166 43.3662,54.75 
				45.5518,53.1465 47.7334,54.75 46.8955,52.1719 49.0576,50.6035 			"/>
			<polygon class="st1" points="61.4883,50.6035 60.6611,48.0449 59.833,50.6035 57.1318,50.6035 59.3154,52.1758 58.4766,54.75 
				60.6572,53.1484 62.8223,54.75 61.999,52.1758 64.168,50.6035 			"/>
			<polygon class="st1" points="76.5986,50.6035 75.7715,48.0449 74.9287,50.6035 72.2422,50.6035 74.4258,52.1758 73.5879,54.75 
				75.7666,53.1484 77.9336,54.75 77.1084,52.166 79.2783,50.6035 			"/>
			<polygon class="st1" points="8.6133,57.0879 7.7861,54.5312 6.958,57.0879 4.2783,57.0879 6.4453,58.6601 5.625,61.2148 
				7.7861,59.6308 9.9473,61.2148 9.127,58.6601 11.293,57.0879 			"/>
			<polygon class="st1" points="23.7236,57.0879 22.8955,54.5312 22.0537,57.0879 19.3896,57.0879 21.5508,58.6562 20.7129,61.2148 
				22.8926,59.6269 25.0576,61.2148 24.2373,58.6601 26.4033,57.0879 			"/>
			<polygon class="st1" points="38.8271,57.0879 37.9844,54.5312 37.1572,57.0879 34.4775,57.0879 36.6582,58.6601 35.8223,61.2148 
				37.9951,59.623 40.1689,61.2148 39.3311,58.6562 41.4912,57.0879 			"/>
			<polygon class="st1" points="53.9229,57.0879 53.0947,54.5312 52.2676,57.0879 49.5879,57.0879 51.7539,58.6601 50.9326,61.2148 
				53.0947,59.6308 55.2559,61.2148 54.4355,58.6601 56.6025,57.0879 			"/>
			<polygon class="st1" points="69.0322,57.0879 68.2051,54.5312 67.3779,57.0879 64.6973,57.0879 66.8643,58.6601 66.0439,61.2148 
				68.2051,59.6308 70.3662,61.2148 69.5459,58.6601 71.7129,57.0879 			"/>
			<polygon class="st1" points="84.1436,57.0879 83.3154,54.5312 82.4717,57.0879 79.8086,57.0879 81.9688,58.6562 81.1318,61.2148 
				83.3047,59.623 85.4775,61.2148 84.6406,58.6562 86.8008,57.0879 			"/>
			<rect x="91.1016" y="18.4648" class="st3" width="25.6757" height="9.2422"/>
			<rect x="91.1016" y="36.9258" class="st3" width="25.6757" height="9.2441"/>
			<rect x="91.1016" y="55.3672" class="st3" width="25.6757" height="9.2422"/>
		</g>
	</g>
</g>
<g id="Layer_2">
	<g id="Layer_2_00000088105433355850506420000007078132686907385754_">
		<g id="Layer_2_00000008151020972403519510000017401608398655629208_">
			<path class="st4" d="M109.6865,3.2227c3.916,0,7.0908,3.1748,7.0908,7.0908v99.372c0,3.919-3.1748,7.0918-7.0908,7.0918h-99.374
				c-3.916,0-7.0908-3.1728-7.0908-7.0918v-99.372c0-3.916,3.1748-7.0908,7.0908-7.0908L109.6865,3.2227 M109.6865,0h-99.374
				C4.625,0,0,4.625,0,10.3135v99.372C0,115.373,4.625,120,10.3125,120h99.374C115.374,120,120,115.373,120,109.6855v-99.372
				C120,4.625,115.374,0,109.6865,0L109.6865,0z"/>
		</g>
	</g>
</g>
</svg>
