<?xml version="1.0" encoding="utf-8"?>
<!-- Generator: Adobe Illustrator 27.6.1, SVG Export Plug-In . SVG Version: 6.00 Build 0)  -->
<svg version="1.1" xmlns="http://www.w3.org/2000/svg" xmlns:xlink="http://www.w3.org/1999/xlink" x="0px" y="0px"
	 viewBox="0 0 120 120" style="enable-background:new 0 0 120 120;" xml:space="preserve">
<style type="text/css">
	.st0{fill:#CAB99E;}
	.st1{fill:#002776;}
	.st2{fill:#FFFFFF;}
	.st3{fill:#DE0034;}
	.st4{fill:#D1D3D4;}
</style>
<g id="Layer_1">
	<g>
		<g>
			<path class="st0" d="M109.6865,3.2227c3.916,0,7.0908,3.1748,7.0908,7.0908v99.372c0,3.919-3.1748,7.0918-7.0908,7.0918h-99.374
				c-3.916,0-7.0908-3.1728-7.0908-7.0918v-99.372c0-3.916,3.1748-7.0908,7.0908-7.0908H109.6865 M109.6865,0h-99.374
				C4.625,0,0,4.625,0,10.3135v99.372C0,115.373,4.625,120,10.3125,120h99.374C115.374,120,120,115.373,120,109.6855v-99.372
				C120,4.625,115.374,0,109.6865,0L109.6865,0z"/>
		</g>
		<g>
			<path class="st1" d="M80.1699,116.7773h29.5166c3.916,0,7.0908-3.1728,7.0908-7.0918v-7.2441L80.1699,84.1387V116.7773z"/>
			<path class="st1" d="M39.8252,3.2227H10.3125c-3.916,0-7.0908,3.1748-7.0908,7.0908v8.2822l36.6035,18.3018V3.2227z"/>
			<path class="st1" d="M109.6865,3.2227H80.1699v33.6748l36.6074-18.3037v-8.2803C116.7773,6.3975,113.6025,3.2227,109.6865,3.2227
				z"/>
			<path class="st1" d="M3.2217,102.4414v7.2441c0,3.919,3.1748,7.0918,7.0908,7.0918h29.5127V84.1387L3.2217,102.4414z"/>
			<polygon class="st2" points="72.1104,116.7773 80.1699,116.7773 80.1699,84.1387 116.7773,102.4414 116.7773,88.9629 
				100.1621,80.6543 116.7773,80.6543 116.7773,72.6855 72.1104,72.6855 			"/>
			<polygon class="st2" points="3.2217,72.6855 3.2217,88.998 19.9082,80.6543 37.8799,80.6543 3.2217,97.9941 3.2217,102.4414 
				39.8252,84.1387 39.8252,116.7773 47.8877,116.7773 47.8877,72.6855 			"/>
			<polygon class="st2" points="47.8877,3.2227 39.8252,3.2227 39.8252,36.8975 3.2217,18.5957 3.2217,32.1484 19.7275,40.4004 
				3.2217,40.4004 3.2217,48.4609 47.8877,48.4609 			"/>
			<polygon class="st2" points="80.1699,3.2227 72.1104,3.2227 72.1104,48.4609 116.7773,48.4609 116.7773,32.1855 
				100.3477,40.4004 82.2236,40.4004 116.7773,23.1133 116.7773,18.5938 80.1699,36.8975 			"/>
			<polygon class="st3" points="100.3477,40.4004 116.7773,32.1855 116.7773,23.1133 82.2236,40.4004 			"/>
			<polygon class="st3" points="3.2217,32.1484 3.2217,40.4004 19.7275,40.4004 			"/>
			<polygon class="st3" points="19.9082,80.6543 3.2217,88.998 3.2217,97.9941 37.8799,80.6543 			"/>
			<polygon class="st3" points="116.7773,88.9629 116.7773,80.6543 100.1621,80.6543 			"/>
			<polygon class="st3" points="72.1104,3.2227 47.8877,3.2227 47.8877,48.4609 3.2217,48.4609 3.2217,72.6855 47.8877,72.6855 
				47.8877,116.7773 72.1104,116.7773 72.1104,72.6855 116.7773,72.6855 116.7773,48.4609 72.1104,48.4609 			"/>
		</g>
	</g>
</g>
<g id="Layer_2">
	<g id="Layer_2_00000088105433355850506420000007078132686907385754_">
		<g id="Layer_2_00000008151020972403519510000017401608398655629208_">
			<path class="st4" d="M109.6865,3.2227c3.916,0,7.0908,3.1748,7.0908,7.0908v99.372c0,3.919-3.1748,7.0918-7.0908,7.0918h-99.374
				c-3.916,0-7.0908-3.1728-7.0908-7.0918v-99.372c0-3.916,3.1748-7.0908,7.0908-7.0908L109.6865,3.2227 M109.6865,0h-99.374
				C4.625,0,0,4.625,0,10.3135v99.372C0,115.373,4.625,120,10.3125,120h99.374C115.374,120,120,115.373,120,109.6855v-99.372
				C120,4.625,115.374,0,109.6865,0L109.6865,0z"/>
		</g>
	</g>
</g>
</svg>
