<?xml version="1.0" encoding="utf-8"?>
<!-- Generator: Adobe Illustrator 27.6.1, SVG Export Plug-In . SVG Version: 6.00 Build 0)  -->
<svg version="1.1" xmlns="http://www.w3.org/2000/svg" xmlns:xlink="http://www.w3.org/1999/xlink" x="0px" y="0px"
	 viewBox="0 0 120 120" style="enable-background:new 0 0 120 120;" xml:space="preserve">
<style type="text/css">
	.st0{fill:#CAB99E;}
	.st1{fill:#FC2016;}
	.st2{fill:#FFFF00;}
	.st3{fill:#D1D3D4;}
</style>
<g id="Layer_1">
	<g>
		<g>
			<path class="st0" d="M109.6865,3.2227c3.916,0,7.0908,3.1748,7.0908,7.0908v99.372c0,3.918-3.1748,7.0918-7.0908,7.0918h-99.374
				c-3.916,0-7.0908-3.1738-7.0908-7.0918v-99.372c0-3.916,3.1748-7.0908,7.0908-7.0908H109.6865 M109.6865,0h-99.374
				C4.625,0,0,4.625,0,10.3135v99.372C0,115.373,4.625,120,10.3125,120h99.374C115.374,120,120,115.373,120,109.6855v-99.372
				C120,4.625,115.374,0,109.6865,0L109.6865,0z"/>
		</g>
		<g>
			<path class="st1" d="M109.6865,3.2227h-99.374c-3.916,0-7.0908,3.1748-7.0908,7.0908v99.372c0,3.918,3.1748,7.0918,7.0908,7.0918
				h99.374c3.916,0,7.0908-3.1738,7.0908-7.0918v-99.372C116.7773,6.3975,113.6025,3.2227,109.6865,3.2227z M74.332,78.7725
				L60,68.3574L45.667,78.7725l5.4746-16.8506l-14.332-10.4121h17.7148L60,34.6621l5.4746,16.8477h17.7149L68.8564,61.9219
				L74.332,78.7725z"/>
			<polygon class="st2" points="65.4746,51.5098 60,34.6621 54.5244,51.5098 36.8096,51.5098 51.1416,61.9219 45.667,78.7725 
				60,68.3574 74.332,78.7725 68.8564,61.9219 83.1895,51.5098 			"/>
		</g>
	</g>
</g>
<g id="Layer_2">
	<g id="Layer_2_00000088105433355850506420000007078132686907385754_">
		<g id="Layer_2_00000008151020972403519510000017401608398655629208_">
			<path class="st3" d="M109.6865,3.2227c3.916,0,7.0908,3.1748,7.0908,7.0908v99.372c0,3.919-3.1748,7.0918-7.0908,7.0918h-99.374
				c-3.916,0-7.0908-3.1728-7.0908-7.0918v-99.372c0-3.916,3.1748-7.0908,7.0908-7.0908L109.6865,3.2227 M109.6865,0h-99.374
				C4.625,0,0,4.625,0,10.3135v99.372C0,115.373,4.625,120,10.3125,120h99.374C115.374,120,120,115.373,120,109.6855v-99.372
				C120,4.625,115.374,0,109.6865,0L109.6865,0z"/>
		</g>
	</g>
</g>
</svg>
