<?xml version="1.0" encoding="utf-8"?>
<!-- Generator: Adobe Illustrator 27.9.0, SVG Export Plug-In . SVG Version: 6.00 Build 0)  -->
<!DOCTYPE svg PUBLIC "-//W3C//DTD SVG 1.1//EN" "http://www.w3.org/Graphics/SVG/1.1/DTD/svg11.dtd" [
	<!ENTITY ns_extend "http://ns.adobe.com/Extensibility/1.0/">
	<!ENTITY ns_ai "http://ns.adobe.com/AdobeIllustrator/10.0/">
	<!ENTITY ns_graphs "http://ns.adobe.com/Graphs/1.0/">
	<!ENTITY ns_vars "http://ns.adobe.com/Variables/1.0/">
	<!ENTITY ns_imrep "http://ns.adobe.com/ImageReplacement/1.0/">
	<!ENTITY ns_sfw "http://ns.adobe.com/SaveForWeb/1.0/">
	<!ENTITY ns_custom "http://ns.adobe.com/GenericCustomNamespace/1.0/">
	<!ENTITY ns_adobe_xpath "http://ns.adobe.com/XPath/1.0/">
]>
<svg version="1.1" id="Layer_1" xmlns:x="&ns_extend;" xmlns:i="&ns_ai;" xmlns:graph="&ns_graphs;"
	 xmlns="http://www.w3.org/2000/svg" xmlns:xlink="http://www.w3.org/1999/xlink" x="0px" y="0px" width="200px" height="200px"
	 viewBox="0 0 200 200" style="enable-background:new 0 0 200 200;" xml:space="preserve">
<style type="text/css">
	.st0{fill:#FF5A00;}
</style>
<metadata>
	<sfw  xmlns="&ns_sfw;">
		<slices></slices>
		<sliceSourceBounds  bottomLeftOrigin="true" height="190" width="87.2" x="56.4" y="5"></sliceSourceBounds>
	</sfw>
</metadata>
<path class="st0" d="M140.8,50.7c-2.1-2.1-4.5-2-4.6-2l-16.7-1.5V11.4c0-0.1,0-2.5-4.2-4.2c-3.1-1.2-18.6-4.9-31.7,1
	c-0.1,0.1-2.3,1.8-2.4,3.3c-0.1,1.5,0,5.2,0,5.3v30.5C73.9,48,66.6,48.7,63.8,49c-6.4,0.7-7.4,11.8-7.4,11.9l0.1,0
	c0,0.3-0.1,0.6-0.1,1v124.5c0,4.8,3.9,8.7,8.7,8.7h69.8c4.8,0,8.7-3.9,8.7-8.7V61.8c0-0.5-0.1-1-0.1-1.4l0.1,0
	C143.7,55.9,142.8,52.7,140.8,50.7z"/>
</svg>
