<?xml version="1.0" encoding="utf-8"?>
<!-- Generator: Adobe Illustrator 27.9.0, SVG Export Plug-In . SVG Version: 6.00 Build 0)  -->
<!DOCTYPE svg PUBLIC "-//W3C//DTD SVG 1.1//EN" "http://www.w3.org/Graphics/SVG/1.1/DTD/svg11.dtd" [
	<!ENTITY ns_extend "http://ns.adobe.com/Extensibility/1.0/">
	<!ENTITY ns_ai "http://ns.adobe.com/AdobeIllustrator/10.0/">
	<!ENTITY ns_graphs "http://ns.adobe.com/Graphs/1.0/">
	<!ENTITY ns_vars "http://ns.adobe.com/Variables/1.0/">
	<!ENTITY ns_imrep "http://ns.adobe.com/ImageReplacement/1.0/">
	<!ENTITY ns_sfw "http://ns.adobe.com/SaveForWeb/1.0/">
	<!ENTITY ns_custom "http://ns.adobe.com/GenericCustomNamespace/1.0/">
	<!ENTITY ns_adobe_xpath "http://ns.adobe.com/XPath/1.0/">
]>
<svg version="1.1" id="Layer_1" xmlns:x="&ns_extend;" xmlns:i="&ns_ai;" xmlns:graph="&ns_graphs;"
	 xmlns="http://www.w3.org/2000/svg" xmlns:xlink="http://www.w3.org/1999/xlink" x="0px" y="0px" width="200px" height="200px"
	 viewBox="0 0 200 200" style="enable-background:new 0 0 200 200;" xml:space="preserve">
<style type="text/css">
	.st0{fill:#FF5A00;}
</style>
<metadata>
	<sfw  xmlns="&ns_sfw;">
		<slices></slices>
		<sliceSourceBounds  bottomLeftOrigin="true" height="190" width="81.7" x="59.1" y="5"></sliceSourceBounds>
	</sfw>
</metadata>
<path class="st0" d="M140.9,175.5l-0.2-15.9l-0.5-59.5l0-0.3l-0.1,0l0-3.8c0-0.2,0.2-3.7-1.4-5l-22.7-20.4l-0.7-0.6
	c0.1-0.1,0.2-0.2,0.2-0.4l0.1-0.3c0.2-0.1,0.5-0.3,0.5-0.6l-0.1-2.2l0-0.1c0,0-0.1-0.3-0.4-0.5l0.2-0.2l-0.5-12.3
	c0,0-0.1-0.7-0.5-1.2l0-1.2c0-0.5-0.4-1.4-1.5-1.5c-0.1,0-1.6-0.3-3.1-0.4l-0.3-2.8c0-0.3-0.3-1-1.1-1.1l-0.8-0.2l-0.1-2.7
	c0-0.3-0.2-0.9-0.8-0.9l-0.4-0.1c0,0-0.1,0-0.1,0l0-0.5c0-0.2-0.2-0.6-0.6-0.6l-0.1,0l-0.1-19.7l0,0c1.5,0,8.8,0,10.2-1.8l0.1-0.1
	L116,9.6c0-0.1-0.2-1.4-1.5-1.7c0,0-4.9-1.1-13-1.2c-0.1,0-5.7-0.2-13.9,1.1c0,0-0.3,0.1-0.5,0.2L71.2,5.1c-0.2,0-3.7-0.7-6.4,1.3
	C64.7,6.5,62.6,7.8,61,12l-1.7,5.4c-0.1,0.1-0.2,0.4-0.1,0.7c0.1,0.1,0.2,0.2,0.3,0.2c0.2,0,2.9,0.7,5.9,0.1c0.2,0,0.6-0.2,0.7-0.7
	c0,0,0.9-3.5,1.8-5.2c0,0,0.4-0.9,1.4-1.1c0,0,0.6-0.1,1.6,0.1l14.6,2.8l-0.1,3.7c0,0.1,0,0.3,0.1,0.6c0.2,0.4,0.8,0.7,1.6,0.9
	c0.1,0,2.6,0.7,8.5,0.8l0.1,19.8l-0.2,0.1c-0.2,0.1-0.5,0.3-0.4,0.8l0,0.4c0,0,0,0-0.1,0l-0.4,0.1c-0.3,0-0.9,0.4-0.9,1.3l0,2.2
	c0,0.1,0,0.1-0.1,0.1c0,0-0.5,0.1-1,0.3c0,0-0.7,0.3-0.8,1.5l-0.2,2.6c0,0-1.3,0.2-2.5,0.4c-0.1,0-1.6,0.2-1.7,1.5l0,1.3
	c-0.2,0.2-0.4,0.5-0.4,1.2L86.6,66c-0.1,0.2-0.3,0.5-0.2,1l0,2.3l0.5,0.5c0.1,0.2,0.2,0.4,0.5,0.6L66.4,90.1c-0.1,0.1-2,1.5-2.2,4.9
	l0.1,5.7h0l0.8,76.6l0,0.2l0,0c0.1,0.6,1.1,10.5,6.5,13.6c0.1,0,2.4,1.2,8.8,2.2c0.1,0,8.9,1.6,21.3,1.6c8.2,0,18.1-0.7,28.1-2.9
	c0.1,0,3.2-0.8,5.1-1.7c0.1,0,2.7-1.3,4.6-7.2c0-0.1,1-2.4,1.3-6.1l0.1,0l0-1.2C140.8,175.8,140.9,175.6,140.9,175.5z"/>
</svg>
