<?xml version="1.0" encoding="utf-8"?>
<!-- Generator: Adobe Illustrator 27.9.0, SVG Export Plug-In . SVG Version: 6.00 Build 0)  -->
<!DOCTYPE svg PUBLIC "-//W3C//DTD SVG 1.1//EN" "http://www.w3.org/Graphics/SVG/1.1/DTD/svg11.dtd" [
	<!ENTITY ns_extend "http://ns.adobe.com/Extensibility/1.0/">
	<!ENTITY ns_ai "http://ns.adobe.com/AdobeIllustrator/10.0/">
	<!ENTITY ns_graphs "http://ns.adobe.com/Graphs/1.0/">
	<!ENTITY ns_vars "http://ns.adobe.com/Variables/1.0/">
	<!ENTITY ns_imrep "http://ns.adobe.com/ImageReplacement/1.0/">
	<!ENTITY ns_sfw "http://ns.adobe.com/SaveForWeb/1.0/">
	<!ENTITY ns_custom "http://ns.adobe.com/GenericCustomNamespace/1.0/">
	<!ENTITY ns_adobe_xpath "http://ns.adobe.com/XPath/1.0/">
]>
<svg version="1.1" id="Layer_1" xmlns:x="&ns_extend;" xmlns:i="&ns_ai;" xmlns:graph="&ns_graphs;"
	 xmlns="http://www.w3.org/2000/svg" xmlns:xlink="http://www.w3.org/1999/xlink" x="0px" y="0px" width="200px" height="200px"
	 viewBox="0 0 200 200" style="enable-background:new 0 0 200 200;" xml:space="preserve">
<style type="text/css">
	.st0{fill:#FFFFFF;}
</style>
<metadata>
	<sfw  xmlns="&ns_sfw;">
		<slices></slices>
		<sliceSourceBounds  bottomLeftOrigin="true" height="190" width="105.4" x="47.3" y="5"></sliceSourceBounds>
	</sfw>
</metadata>
<g>
	<g>
		<path d="M47.7,5.5c0,0,15.8,0.1,19.6,0c3.8-0.1,8.7-0.1,14.4,0.1c5.8,0.2,20.7-0.2,26.3,0c5.6,0.2,25.3-0.1,27.9,0.1
			c2.6,0.1,16.3,0,16.3,0v21.7c0,0-0.7,15.9-0.7,18.1c0,2.2-1.8,29.3-1.7,30.6c0.1,1.3-0.7,12.6-0.7,13.6c0,1-1.2,9.5-1.1,11.4
			c0.1,1.8,0.2,6.2,0.2,8.3s-1.3,36.2-1.2,37.2c0.1,1-0.2,11.9-0.4,13.3s-0.2,3.4-0.2,4.9s0.5,9.7,0.5,10.8c0,1.1,0.7,16.3,0.7,16.3
			s-4.8,0.2-7.3,0.7c-2.6,0.5-5.9,2-9.2,1.8c-3.3-0.1-36,0.6-52-0.5c-16-1.1-10.4-2.8-18.1-2.7c-7.7,0.1-11.1,0.1-11.1,0.1
			s1.3-10.3,1.1-12.5c-0.2-2.2,1.5-13.8,1.5-17.9c0-4-1.5-50.3-1.5-54.5c0-4.2-1.8-33.5-1.6-36.2S49,52.2,48.7,46.3
			S47.7,5.5,47.7,5.5z"/>
		<path class="st0" d="M106.4,195c-9.7,0-20.2-0.1-27.3-0.6c-9.1-0.6-11.2-1.4-12.8-2c-1.2-0.4-1.9-0.7-5.2-0.7
			c-7.6,0.1-11.1,0.1-11.1,0.1h-0.5l0.1-0.5c0-0.1,1.3-10.3,1.1-12.4c-0.1-1.2,0.3-4.8,0.7-8.6c0.4-3.6,0.8-7.4,0.8-9.3
			c0-2-0.4-14.7-0.7-26.9c-0.4-12.5-0.7-25.5-0.7-27.6c0-1.8-0.3-8.3-0.7-15.2c-0.5-9.6-1-19.5-0.9-21c0.2-2.7-0.4-19-0.6-24
			c-0.2-5.8-1-40.4-1-40.8l0-0.5l0.5,0c0.2,0,15.8,0.1,19.6,0C71.6,5,76.6,5,81.8,5.1c2.9,0.1,8.1,0,13.2,0c5.1,0,10.3-0.1,13.1,0
			c3.1,0.1,10.4,0.1,16.8,0c5.3,0,10,0,11.1,0c2.5,0.1,16.1,0,16.3,0l0.5,0v22.1c0,0.2-0.7,15.9-0.7,18.1c0,1-0.4,7-0.8,13.4
			c-0.5,7.3-1,16.4-0.9,17.1c0.1,0.8-0.2,4.8-0.5,9.6c-0.1,2-0.2,3.7-0.2,4c0,0.4-0.1,1.5-0.4,3.5c-0.3,2.8-0.8,6.7-0.7,7.8
			c0.1,1.9,0.2,6.3,0.2,8.4c0,0.9-0.2,7-0.5,14.2c-0.3,9.4-0.8,22.3-0.7,23c0.1,1.1-0.3,12.1-0.4,13.4c-0.1,0.9-0.2,3.1-0.2,4.9
			c0,0.8,0.1,3.6,0.3,6c0.1,2.2,0.2,4.2,0.2,4.8c0,1.1,0.7,16.1,0.7,16.3l0,0.4l-0.4,0c0,0-4.8,0.2-7.3,0.7
			c-0.8,0.2-1.7,0.4-2.7,0.7c-2,0.6-4.3,1.2-6.6,1.2c-0.8,0-3.7,0-7.7,0C118.9,194.9,112.8,195,106.4,195z M61.7,190.8
			c2.9,0,3.7,0.3,4.8,0.7c1.5,0.6,3.7,1.4,12.6,2c11.9,0.8,33,0.6,44.3,0.5c4,0,6.8-0.1,7.7,0c2.2,0.1,4.4-0.6,6.3-1.1
			c1-0.3,1.9-0.5,2.8-0.7c2.1-0.4,5.7-0.6,7-0.7c-0.1-2.6-0.7-14.8-0.7-15.9c0-0.5-0.1-2.5-0.2-4.7c-0.1-2.6-0.3-5.3-0.3-6.1
			c0-1.8,0.2-4,0.2-4.9c0.1-1.6,0.5-12.3,0.4-13.2c-0.1-0.6,0.3-9.9,0.7-23.1c0.3-7.1,0.5-13.3,0.5-14.1c0-2-0.1-6.4-0.2-8.3
			c-0.1-1.2,0.4-5,0.7-8c0.2-1.6,0.4-3.1,0.4-3.4c0-0.4,0.1-2,0.2-4.1c0.2-3.4,0.6-8.6,0.5-9.5c-0.1-0.7,0.3-7.3,0.9-17.3
			c0.4-6.4,0.8-12.4,0.8-13.4c0-2.2,0.7-17.5,0.7-18.1l0-21.2c-2.4,0-13.5,0.1-15.9,0c-1.1-0.1-5.8,0-11.1,0c-6.4,0-13.7,0.1-16.8,0
			c-2.8-0.1-8,0-13.1,0c-5.1,0-10.3,0.1-13.2,0C76.6,5.9,71.6,5.9,67.3,6c-3.4,0.1-16.5,0-19.1,0c0.1,4.2,0.7,34.9,1,40.3
			c0.3,6.4,0.9,21.5,0.6,24.1c-0.1,1.5,0.4,11.8,0.9,20.9c0.4,6.9,0.7,13.5,0.7,15.3c0,2.1,0.4,15,0.7,27.6
			c0.4,12.8,0.7,24.9,0.7,26.9c0,2-0.4,5.8-0.8,9.4c-0.4,3.6-0.8,7.4-0.7,8.4c0.2,2-0.8,10-1,12.1c1.2,0,4.6,0,10.6-0.1
			C61.2,190.8,61.4,190.8,61.7,190.8z"/>
	</g>
	<g>
		<path d="M54.3,25.2c0,0,13.8,0.1,17.1,0c3.3-0.1,7.6-0.1,12.6,0c5,0.2,18.1-0.2,23,0c4.9,0.2,22.1-0.1,24.4,0s14.2,0,14.2,0v18.9
			c0,0-0.6,13.9-0.6,15.8s-1.6,25.6-1.5,26.7c0.1,1.2-0.6,11-0.6,11.9c0,0.9-1.1,8.3-1,9.9c0.1,1.6,0.2,5.5,0.2,7.3
			c0,1.8-1.2,31.7-1.1,32.5s-0.2,10.4-0.3,11.7c-0.1,1.3-0.2,3-0.2,4.3c0,1.3,0.4,8.5,0.4,9.4c0,1,0.6,14.2,0.6,14.2
			s-4.2,0.2-6.4,0.6s-5.1,1.7-8,1.6c-2.9-0.1-31.5,0.5-45.5-0.4c-14-1-9.1-2.5-15.8-2.4s-9.7,0.1-9.7,0.1s1.2-9,1-10.9
			c-0.2-1.9,1.3-12.1,1.3-15.6c0-3.5-1.3-44-1.3-47.6c0-3.6-1.6-29.3-1.4-31.6c0.2-2.3-0.3-15.9-0.5-21C55,55.7,54.3,25.2,54.3,25.2
			z"/>
		<path class="st0" d="M105.6,190.8c-8.5,0-17.6-0.1-23.9-0.5c-7.9-0.5-9.8-1.3-11.2-1.8c-1-0.4-1.7-0.6-4.6-0.6
			c-6.7,0.1-9.7,0.1-9.7,0.1h-0.5l0.1-0.5c0-0.1,1.2-9,1-10.8c-0.1-1,0.2-4.1,0.6-7.6c0.3-3.2,0.7-6.4,0.7-8.1
			c0-1.7-0.3-12.8-0.6-23.5c-0.3-10.9-0.6-22.3-0.6-24.1c0-1.6-0.3-7.3-0.6-13.3c-0.4-8.4-0.9-17-0.8-18.4c0.2-2.3-0.4-16.6-0.5-21
			c-0.2-5.1-0.8-35.3-0.9-35.6l0-0.5l0.5,0c0.1,0,13.8,0.1,17.1,0c3.7-0.1,8.1-0.1,12.7,0c2.5,0.1,7.1,0,11.5,0c4.4,0,9-0.1,11.5,0
			c2.7,0.1,9.1,0.1,14.7,0c4.7,0,8.7,0,9.7,0c2.2,0.1,14.1,0,14.2,0l0.5,0v19.4c0,0.2-0.6,13.9-0.6,15.8c0,0.9-0.3,6.2-0.7,11.7
			c-0.4,6.4-0.9,14.4-0.8,15c0.1,0.7-0.2,4.2-0.4,8.4c-0.1,1.7-0.2,3.2-0.2,3.5c0,0.3-0.1,1.3-0.3,3.1c-0.3,2.5-0.7,5.9-0.6,6.8
			c0.1,1.7,0.2,5.5,0.2,7.3c0,0.8-0.2,6.1-0.4,12.4c-0.3,8.2-0.7,19.5-0.7,20.1c0.1,0.9-0.2,10.6-0.3,11.7c-0.1,1.6-0.2,3.2-0.2,4.2
			c0,0.7,0.1,3.1,0.2,5.2c0.1,2,0.2,3.7,0.2,4.2c0,0.9,0.6,14.1,0.6,14.2l0,0.4l-0.4,0c0,0-4.2,0.2-6.4,0.6
			c-0.7,0.1-1.5,0.4-2.3,0.6c-1.8,0.5-3.8,1.1-5.8,1c-0.7,0-3.2,0-6.7,0C116.5,190.7,111.2,190.8,105.6,190.8z M66.5,187
			c2.5,0,3.3,0.3,4.3,0.6c1.3,0.5,3.2,1.2,11,1.7c10.4,0.7,28.8,0.5,38.7,0.5c3.5,0,6-0.1,6.7,0c1.9,0.1,3.8-0.5,5.5-1
			c0.9-0.2,1.7-0.5,2.4-0.6c1.8-0.4,4.9-0.6,6-0.6c-0.1-2.4-0.6-12.9-0.6-13.8c0-0.4-0.1-2.2-0.2-4.1c-0.1-2.3-0.2-4.6-0.2-5.3
			c0-1.6,0.2-3.5,0.2-4.3c0.1-1.2,0.4-10.8,0.3-11.6c-0.1-0.5,0.2-8.7,0.6-20.2c0.2-6.2,0.4-11.6,0.4-12.4c0-1.8-0.1-5.6-0.2-7.2
			c-0.1-1.1,0.3-4.4,0.6-7c0.2-1.4,0.3-2.7,0.3-3c0-0.3,0.1-1.7,0.2-3.6c0.2-3,0.5-7.5,0.4-8.3c-0.1-0.6,0.3-6.4,0.8-15.1
			c0.3-5.6,0.7-10.8,0.7-11.7c0-1.9,0.6-15.3,0.6-15.9l0-18.5c-2.2,0-11.8,0.1-13.8,0c-1-0.1-5,0-9.7,0c-5.6,0-12,0.1-14.7,0
			c-2.4-0.1-7,0-11.4,0c-4.4,0-9.1,0.1-11.6,0c-4.5-0.2-8.9-0.2-12.6,0c-2.9,0.1-14.2,0-16.7,0c0.1,3.9,0.6,30.4,0.8,35.2
			c0.2,5.6,0.7,18.8,0.5,21.1c-0.1,1.3,0.4,10.3,0.8,18.2c0.3,6,0.6,11.8,0.6,13.3c0,1.8,0.3,13.1,0.6,24.1
			c0.3,11.2,0.6,21.8,0.6,23.5c0,1.7-0.4,5-0.7,8.2c-0.3,3.2-0.7,6.4-0.6,7.4c0.2,1.7-0.7,8.6-0.9,10.5c1.1,0,4.1,0,9.2-0.1
			C66.1,187,66.3,187,66.5,187z"/>
	</g>
</g>
</svg>
