<?xml version="1.0" encoding="utf-8"?>
<!-- Generator: Adobe Illustrator 27.9.0, SVG Export Plug-In . SVG Version: 6.00 Build 0)  -->
<!DOCTYPE svg PUBLIC "-//W3C//DTD SVG 1.1//EN" "http://www.w3.org/Graphics/SVG/1.1/DTD/svg11.dtd" [
	<!ENTITY ns_extend "http://ns.adobe.com/Extensibility/1.0/">
	<!ENTITY ns_ai "http://ns.adobe.com/AdobeIllustrator/10.0/">
	<!ENTITY ns_graphs "http://ns.adobe.com/Graphs/1.0/">
	<!ENTITY ns_vars "http://ns.adobe.com/Variables/1.0/">
	<!ENTITY ns_imrep "http://ns.adobe.com/ImageReplacement/1.0/">
	<!ENTITY ns_sfw "http://ns.adobe.com/SaveForWeb/1.0/">
	<!ENTITY ns_custom "http://ns.adobe.com/GenericCustomNamespace/1.0/">
	<!ENTITY ns_adobe_xpath "http://ns.adobe.com/XPath/1.0/">
]>
<svg version="1.1" id="Layer_1" xmlns:x="&ns_extend;" xmlns:i="&ns_ai;" xmlns:graph="&ns_graphs;"
	 xmlns="http://www.w3.org/2000/svg" xmlns:xlink="http://www.w3.org/1999/xlink" x="0px" y="0px" width="200px" height="200px"
	 viewBox="0 0 200 200" style="enable-background:new 0 0 200 200;" xml:space="preserve">
<style type="text/css">
	.st0{fill:#FFFFFF;}
</style>
<metadata>
	<sfw  xmlns="&ns_sfw;">
		<slices></slices>
		<sliceSourceBounds  bottomLeftOrigin="true" height="175.3" width="137.6" x="31.2" y="12.4"></sliceSourceBounds>
	</sfw>
</metadata>
<path d="M31.7,13.4c0,0,20.6-0.6,23.7-0.6c3.2,0,33.2,0.9,38.9,0.6c5.8-0.2,51.8-0.3,54.6,0c2.8,0.3,19.3-0.3,19.3-0.3
	s0.1,20.4,0,22.7c-0.1,2.3-0.1,39.8,0.1,43.1c0.2,3.3-4.3,76.9-3.8,84.3c0.5,7.5-0.2,21.1-0.2,21.1s-7-1-11.6,0
	c-4.7,1-8.3,2.4-32.1,2.7s-57.4,0.2-60.8,0s-6.7-2.9-13.2-3.1s-12.7,0.4-12.7,0.4s1.5-65.4,0.2-80.5c-1.2-15.2-1.1-25.8-0.7-31.6
	c0.4-5.8-0.9-24.2-0.9-28S31.7,13.4,31.7,13.4z"/>
<path class="st0" d="M82.5,187.6c-11.8,0-21.1-0.1-22.8-0.2c-1.4-0.1-2.8-0.6-4.4-1.2c-2.3-0.8-5-1.8-8.8-1.9
	c-6.4-0.1-12.6,0.4-12.7,0.4l-0.5,0l0-0.5c0-0.7,1.5-65.5,0.2-80.5c-1.4-17.2-1-27.9-0.7-31.6c0.2-3.7-0.2-13.1-0.5-19.9
	c-0.2-3.7-0.3-6.8-0.3-8.1c0-3.7-0.7-30.4-0.7-30.7l0-0.4l0.4,0c0.2,0,20.6-0.6,23.8-0.6c1,0,4.5,0.1,9,0.2
	c10.3,0.2,25.9,0.6,29.9,0.4c5.5-0.2,51.7-0.3,54.7,0c2.7,0.3,19.1-0.3,19.3-0.3l0.5,0l0,0.5c0,0.8,0.1,20.4,0,22.7
	c-0.1,2.2-0.1,39.7,0.1,43c0.1,1.3-0.6,13.1-1.4,28c-1.2,23.1-2.8,51.8-2.5,56.3c0.5,7.4-0.2,21-0.2,21.1l0,0.5l-0.5-0.1
	c-0.1,0-7-1-11.5,0c-0.5,0.1-1,0.2-1.5,0.3c-4.2,1-9.5,2.1-30.6,2.4C108.6,187.6,94.3,187.6,82.5,187.6z M44.4,183.5
	c0.7,0,1.4,0,2.1,0c4,0.1,6.8,1.1,9.1,1.9c1.5,0.6,2.8,1,4.2,1.1c3.4,0.2,37,0.2,60.8,0c21.1-0.2,26.3-1.4,30.5-2.3
	c0.5-0.1,1-0.2,1.5-0.3c4-0.8,9.6-0.3,11.3-0.1c0.1-2.5,0.7-14,0.2-20.5c-0.3-4.6,1.2-33.3,2.5-56.4c0.8-14.3,1.4-26.7,1.4-27.9
	c-0.2-3.3-0.2-40.9-0.1-43.1c0.1-2.1,0-19.1,0-22.2c-2.8,0.1-16.4,0.6-18.9,0.3c-2.9-0.3-49-0.3-54.5,0c-4,0.2-19.6-0.2-30-0.4
	c-4.5-0.1-8-0.2-9-0.2c-2.9,0-20.3,0.5-23.3,0.6c0.1,3.5,0.7,26.8,0.7,30.3c0,1.3,0.2,4.4,0.3,8.1c0.3,6.8,0.8,16.2,0.5,20
	c-0.2,3.8-0.6,14.4,0.7,31.5c1.2,14.3-0.1,74-0.2,80.1C35.6,183.7,39.8,183.5,44.4,183.5z"/>
<path d="M41.1,29.7c0,0,17.7-0.5,20.5-0.5s28.6,0.7,33.6,0.5c5-0.2,44.7-0.2,47.1,0c2.4,0.3,16.7-0.3,16.7-0.3s0.1,17.6,0,19.6
	s-0.1,34.3,0,37.2c0.2,2.9-3.7,66.3-3.3,72.8s-0.2,18.2-0.2,18.2s-6-0.8-10,0c-4,0.8-7.2,2.1-27.7,2.3c-20.5,0.2-49.5,0.2-52.5,0
	c-3-0.2-5.8-2.5-11.4-2.6c-5.6-0.1-11,0.3-11,0.3s1.3-56.4,0.2-69.5c-1.1-13.1-1-22.3-0.6-27.2s-0.7-20.9-0.7-24.2
	C41.7,52.9,41.1,29.7,41.1,29.7z"/>
<path class="st0" d="M84.9,180c-10.2,0-18.2-0.1-19.7-0.2c-1.2-0.1-2.4-0.5-3.8-1c-2-0.7-4.3-1.6-7.6-1.6
	c-5.5-0.1-10.9,0.3-10.9,0.3l-0.5,0l0-0.5c0-0.6,1.3-56.5,0.2-69.4c-1.2-14.9-0.8-24-0.6-27.3c0.2-3.2-0.2-11.3-0.5-17.1
	c-0.2-3.3-0.3-5.9-0.3-7c0-3.2-0.6-26.3-0.6-26.5l0-0.4l0.4,0c0.2,0,17.8-0.5,20.5-0.5c0.8,0,3.9,0.1,7.8,0.2
	c8.9,0.2,22.4,0.5,25.8,0.4c4.7-0.2,44.6-0.3,47.2,0c2.4,0.3,16.5-0.3,16.6-0.3l0.5,0l0,0.5c0,0.7,0.1,17.6,0,19.6
	c-0.1,1.9-0.1,34.3,0,37.1c0.1,1.1-0.5,11.3-1.2,24.2c-1.1,19.9-2.4,44.7-2.1,48.6c0.4,6.4-0.2,18.1-0.2,18.2l0,0.5l-0.5-0.1
	c-0.1,0-6-0.8-9.9,0c-0.4,0.1-0.9,0.2-1.3,0.3c-3.6,0.8-8.2,1.9-26.5,2C107.5,180,95.1,180,84.9,180z M52,176.3c0.6,0,1.2,0,1.8,0
	c3.4,0.1,5.9,1,7.9,1.7c1.3,0.5,2.4,0.9,3.6,1c3,0.2,31.9,0.2,52.4,0c18.2-0.2,22.7-1.2,26.3-2c0.4-0.1,0.9-0.2,1.3-0.3
	c3.4-0.7,8.2-0.3,9.7-0.1c0.1-2.3,0.6-12,0.2-17.6c-0.3-3.9,1.1-28.7,2.1-48.7c0.7-12.3,1.2-23,1.2-24.1c-0.2-2.9-0.1-35.3,0-37.2
	c0.1-1.8,0-16.3,0-19.1c-2.5,0.1-14.1,0.5-16.3,0.3c-2.5-0.3-42.3-0.2-47,0c-3.5,0.1-16.9-0.2-25.9-0.4c-3.9-0.1-6.9-0.2-7.7-0.2
	c-2.5,0-17.2,0.4-20,0.5c0.1,3.3,0.6,23.1,0.6,26.1c0,1.1,0.1,3.8,0.3,7c0.3,5.9,0.7,14,0.5,17.2c-0.2,3.2-0.6,12.4,0.6,27.2
	c1,12.3-0.1,63.4-0.2,69C44.6,176.5,48.1,176.3,52,176.3z"/>
</svg>
