<?xml version="1.0" encoding="utf-8"?>
<!-- Generator: Adobe Illustrator 27.8.1, SVG Export Plug-In . SVG Version: 6.00 Build 0)  -->
<!DOCTYPE svg PUBLIC "-//W3C//DTD SVG 1.1//EN" "http://www.w3.org/Graphics/SVG/1.1/DTD/svg11.dtd" [
	<!ENTITY ns_extend "http://ns.adobe.com/Extensibility/1.0/">
	<!ENTITY ns_ai "http://ns.adobe.com/AdobeIllustrator/10.0/">
	<!ENTITY ns_graphs "http://ns.adobe.com/Graphs/1.0/">
	<!ENTITY ns_vars "http://ns.adobe.com/Variables/1.0/">
	<!ENTITY ns_imrep "http://ns.adobe.com/ImageReplacement/1.0/">
	<!ENTITY ns_sfw "http://ns.adobe.com/SaveForWeb/1.0/">
	<!ENTITY ns_custom "http://ns.adobe.com/GenericCustomNamespace/1.0/">
	<!ENTITY ns_adobe_xpath "http://ns.adobe.com/XPath/1.0/">
]>
<svg version="1.1" id="Layer_1" xmlns:x="&ns_extend;" xmlns:i="&ns_ai;" xmlns:graph="&ns_graphs;"
	 xmlns="http://www.w3.org/2000/svg" xmlns:xlink="http://www.w3.org/1999/xlink" x="0px" y="0px" width="500px" height="500px"
	 viewBox="0 0 500 500" style="enable-background:new 0 0 500 500;" xml:space="preserve">
<style type="text/css">
	.st0{fill:#FF6600;}
	.st1{fill:#FFFFFF;}
</style>
<metadata>
	<sfw  xmlns="&ns_sfw;">
		<slices></slices>
		<sliceSourceBounds  bottomLeftOrigin="true" height="500" width="500" x="520" y="-500"></sliceSourceBounds>
	</sfw>
</metadata>
<path class="st0" d="M0,0v500h500V0H0z M108.483,334.5064H19.9923c-2.7882,0-5.0494-2.2613-5.0494-5.0495
	c0-2.7881,2.2612-5.0494,5.0494-5.0494h88.4907c2.7882,0,5.0494,2.2613,5.0494,5.0494
	C113.5325,332.2451,111.2712,334.5064,108.483,334.5064z M108.483,297.5386H28.3569c-2.7882,0-5.0494-2.2613-5.0494-5.0494
	c0-2.7882,2.2612-5.0495,5.0494-5.0495h80.1262c2.7882,0,5.0494,2.2613,5.0494,5.0495
	C113.5325,295.2773,111.2712,297.5386,108.483,297.5386z M108.483,260.5695H36.72c-2.7882,0-5.0495-2.2613-5.0495-5.0494
	c0-2.7882,2.2613-5.0494,5.0495-5.0494h71.763c2.7882,0,5.0494,2.2612,5.0494,5.0494
	C113.5325,258.3082,111.2712,260.5695,108.483,260.5695z M108.483,223.434H45.0846c-2.7882,0-5.0495-2.2612-5.0495-5.0494
	s2.2613-5.0494,5.0495-5.0494h63.3984c2.7882,0,5.0494,2.2612,5.0494,5.0494S111.2712,223.434,108.483,223.434z M485.0571,347.6907
	c0,13.7606-11.1203,24.9556-24.7879,24.9556H157.4954c-6.7767,0-12.9249-2.7361-17.4042-7.1588
	c-0.0806-0.0722-0.1708-0.1273-0.2477-0.2055c-0.0845-0.0859-0.1442-0.1854-0.2213-0.2756
	c-4.2773-4.4565-6.9147-10.4984-6.9147-17.1481V152.1416c0-6.6497,2.6373-12.6915,6.9145-17.1479
	c0.0776-0.0908,0.1379-0.1908,0.223-0.2772c0.0779-0.0792,0.1691-0.1354,0.2509-0.2084c4.4789-4.4201,10.6252-7.1545,17.3997-7.1545
	h302.7739c6.7649,0,12.903,2.7271,17.3802,7.136c0.0707,0.0625,0.1502,0.1089,0.2181,0.1761
	c0.0941,0.0929,0.1621,0.2006,0.2474,0.2988c4.2936,4.4592,6.9421,10.5129,6.9421,17.177V347.6907z"/>
<g>
	<path class="st1" d="M483.0234,130.6938c-0.1357-0.1689-0.3301-0.3994-0.5605-0.624c-0.1865-0.1865-0.3633-0.3428-0.5186-0.4707
		c-5.8643-5.6431-13.5469-8.7456-21.6748-8.7456H157.4951c-8.1494,0-15.8467,3.1162-21.7148,8.7837
		c-0.166,0.1377-0.3594,0.3081-0.5713,0.5225c-0.2197,0.2236-0.3965,0.4331-0.5264,0.5967
		c-5.4688,5.8281-8.4756,13.4077-8.4756,21.3853v195.7168c0,7.9785,3.0078,15.5586,8.4775,21.3877
		c0.1396,0.1758,0.3076,0.374,0.5049,0.5742c0.2129,0.2178,0.4111,0.3936,0.585,0.5371c5.8701,5.6709,13.5693,8.7891,21.7207,8.7891
		h302.7744c17.252,0,31.2871-14.1113,31.2871-31.4561V152.1416C491.5566,144.1333,488.5293,136.5303,483.0234,130.6938z
		 M354.5469,243.105l-0.4102,0.3999c-0.0859,0.0869-0.1689,0.1763-0.25,0.2681l-33.7676,34.1938
		c-5,4.999-13.1611,5.043-18.1914,0.1025l-36.1562-35.5938c-0.1309-0.1621-0.2998-0.3594-0.5039-0.5664
		c-0.3018-0.3086-0.5869-0.5493-0.8154-0.7324l-98.7617-97.2241h286.7744L354.5469,243.105z M240.5234,250.0342l-91.2168,89.7383
		V160.2373L240.5234,250.0342z M256.9854,266.2412l28.7471,28.2979c6.749,6.6299,15.7061,10.2803,25.2227,10.2803
		c9.6592,0,18.7227-3.7441,25.5488-10.5723l25.9863-26.3145l89.4316,88.1152H165.6992L256.9854,266.2412z M468.458,160.6299
		v179.2832l-89.7373-88.415L468.458,160.6299z"/>
	<path class="st1" d="M108.4834,206.835H45.085c-6.3682,0-11.5498,5.1812-11.5498,11.5498c0,6.3682,5.1816,11.5493,11.5498,11.5493
		h63.3984c6.3682,0,11.5488-5.1812,11.5488-11.5493C120.0322,212.0161,114.8516,206.835,108.4834,206.835z"/>
	<path class="st1" d="M108.4834,243.9707H36.7197c-6.3682,0-11.5488,5.1807-11.5488,11.5488s5.1807,11.5498,11.5488,11.5498h71.7637
		c6.3682,0,11.5488-5.1816,11.5488-11.5498S114.8516,243.9707,108.4834,243.9707z"/>
	<path class="st1" d="M108.4834,280.9395h-80.127c-6.3682,0-11.5488,5.1816-11.5488,11.5498s5.1807,11.5498,11.5488,11.5498h80.127
		c6.3682,0,11.5488-5.1816,11.5488-11.5498S114.8516,280.9395,108.4834,280.9395z"/>
	<path class="st1" d="M108.4834,317.9072H19.9922c-6.3682,0-11.5488,5.1816-11.5488,11.5498s5.1807,11.5498,11.5488,11.5498h88.4912
		c6.3682,0,11.5488-5.1816,11.5488-11.5498S114.8516,317.9072,108.4834,317.9072z"/>
</g>
<path class="st1" d="M260.6258,246.4595c0.1053,0.1071,0.1823,0.23,0.2761,0.3438l36.4662,35.8984
	c7.5671,7.4347,19.8371,7.3727,27.3479-0.1395l33.989-34.4174c0.0258-0.0273,0.0429-0.0594,0.0694-0.0862
	c0.0273-0.0278,0.0602-0.0461,0.088-0.0731l107.7263-109.0838c-1.9173-0.919-4.0551-1.4491-6.3195-1.4491H157.4954
	c-2.2332,0-4.3434,0.5156-6.2405,1.4109l108.9017,107.2061C260.3152,246.196,260.48,246.3112,260.6258,246.4595z"/>
<path class="st1" d="M331.8788,289.6799c-5.7567,5.7581-13.3422,8.6393-20.9234,8.6393c-7.4783,0-14.9539-2.8037-20.6683-8.4167
	l-33.2997-32.7816L151.2568,361.1374c1.8967,0.8948,4.0061,1.41,6.2386,1.41h302.7739c2.1864,0,4.2553-0.4989,6.1218-1.3691
	L362.428,258.7458L331.8788,289.6799z"/>
<path class="st1" d="M144.1504,146.0398c-0.8546,1.8612-1.3441,3.9233-1.3441,6.1018v195.7168c0,2.1793,0.4899,4.2419,1.345,6.1036
	l105.6389-103.9263L144.1504,146.0398z"/>
<path class="st1" d="M369.5236,251.5608l104.0074,102.4761c0.9055-1.9276,1.4273-4.0738,1.4273-6.3462V152.1416
	c0-2.1471-0.4741-4.1818-1.3055-6.022L369.5236,251.5608z"/>
<g>
	<path class="st0" d="M477.8676,134.6658c-0.0679-0.0672-0.1475-0.1136-0.2181-0.1761c-4.4772-4.409-10.6154-7.136-17.3802-7.136
		H157.4954c-6.7745,0-12.9208,2.7344-17.3997,7.1545c-0.0817,0.073-0.1729,0.1292-0.2509,0.2084
		c-0.0851,0.0864-0.1454,0.1864-0.223,0.2772c-4.2772,4.4564-6.9145,10.4983-6.9145,17.1479v195.7168
		c0,6.6498,2.6374,12.6917,6.9147,17.1481c0.0771,0.0902,0.1368,0.1897,0.2213,0.2756c0.077,0.0782,0.1671,0.1333,0.2477,0.2055
		c4.4792,4.4226,10.6275,7.1588,17.4042,7.1588h302.7739c13.6676,0,24.7879-11.195,24.7879-24.9556V152.1416
		c0-6.6641-2.6485-12.7178-6.9421-17.177C478.0297,134.8664,477.9617,134.7587,477.8676,134.6658z M157.4954,137.4525h302.7739
		c2.2644,0,4.4022,0.5301,6.3195,1.4491L358.8625,247.9854c-0.0278,0.027-0.0607,0.0453-0.088,0.0731
		c-0.0265,0.0269-0.0436,0.059-0.0694,0.0862l-33.989,34.4174c-7.5108,7.5122-19.7808,7.5742-27.3479,0.1395l-36.4662-35.8984
		c-0.0939-0.1138-0.1708-0.2366-0.2761-0.3438c-0.1458-0.1483-0.3106-0.2635-0.4692-0.39L151.2549,138.8635
		C153.152,137.9681,155.2621,137.4525,157.4954,137.4525z M142.8063,347.8584V152.1416c0-2.1785,0.4895-4.2406,1.3441-6.1018
		l105.6398,103.996L144.1513,353.962C143.2962,352.1003,142.8063,350.0377,142.8063,347.8584z M460.2692,362.5474H157.4954
		c-2.2325,0-4.3419-0.5152-6.2386-1.41l105.7306-104.0165l33.2997,32.7816c5.7144,5.613,13.19,8.4167,20.6683,8.4167
		c7.5812,0,15.1667-2.8812,20.9234-8.6393l30.5491-30.9341l103.963,102.4326C464.5245,362.0485,462.4556,362.5474,460.2692,362.5474
		z M474.9583,347.6907c0,2.2724-0.5218,4.4186-1.4273,6.3462L369.5236,251.5608l104.1292-105.4412
		c0.8314,1.8402,1.3055,3.8749,1.3055,6.022V347.6907z"/>
	<path class="st0" d="M108.483,213.3351H45.0846c-2.7882,0-5.0495,2.2612-5.0495,5.0494s2.2613,5.0494,5.0495,5.0494h63.3984
		c2.7882,0,5.0494-2.2612,5.0494-5.0494S111.2712,213.3351,108.483,213.3351z"/>
	<path class="st0" d="M108.483,250.4706H36.72c-2.7882,0-5.0495,2.2612-5.0495,5.0494c0,2.7881,2.2613,5.0494,5.0495,5.0494h71.763
		c2.7882,0,5.0494-2.2613,5.0494-5.0494C113.5325,252.7318,111.2712,250.4706,108.483,250.4706z"/>
	<path class="st0" d="M108.483,287.4397H28.3569c-2.7882,0-5.0494,2.2613-5.0494,5.0495c0,2.7881,2.2612,5.0494,5.0494,5.0494
		h80.1262c2.7882,0,5.0494-2.2613,5.0494-5.0494C113.5325,289.701,111.2712,287.4397,108.483,287.4397z"/>
	<path class="st0" d="M108.483,324.4075H19.9923c-2.7882,0-5.0494,2.2613-5.0494,5.0494c0,2.7882,2.2612,5.0495,5.0494,5.0495
		h88.4907c2.7882,0,5.0494-2.2613,5.0494-5.0495C113.5325,326.6688,111.2712,324.4075,108.483,324.4075z"/>
</g>
</svg>
