<?xml version="1.0" encoding="utf-8"?>
<!-- Generator: Adobe Illustrator 27.7.0, SVG Export Plug-In . SVG Version: 6.00 Build 0)  -->
<!DOCTYPE svg PUBLIC "-//W3C//DTD SVG 1.1//EN" "http://www.w3.org/Graphics/SVG/1.1/DTD/svg11.dtd" [
	<!ENTITY ns_extend "http://ns.adobe.com/Extensibility/1.0/">
	<!ENTITY ns_ai "http://ns.adobe.com/AdobeIllustrator/10.0/">
	<!ENTITY ns_graphs "http://ns.adobe.com/Graphs/1.0/">
	<!ENTITY ns_vars "http://ns.adobe.com/Variables/1.0/">
	<!ENTITY ns_imrep "http://ns.adobe.com/ImageReplacement/1.0/">
	<!ENTITY ns_sfw "http://ns.adobe.com/SaveForWeb/1.0/">
	<!ENTITY ns_custom "http://ns.adobe.com/GenericCustomNamespace/1.0/">
	<!ENTITY ns_adobe_xpath "http://ns.adobe.com/XPath/1.0/">
]>
<svg version="1.1" id="Layer_1" xmlns:x="&ns_extend;" xmlns:i="&ns_ai;" xmlns:graph="&ns_graphs;"
	 xmlns="http://www.w3.org/2000/svg" xmlns:xlink="http://www.w3.org/1999/xlink" x="0px" y="0px" width="660px" height="440px"
	 viewBox="0 0 660 440" style="enable-background:new 0 0 660 440;" xml:space="preserve">
<style type="text/css">
	.st0{fill:#FFFFFF;}
	.st1{fill:#CE1126;}
	.st2{fill:#C09300;}
</style>
<metadata>
	<sfw  xmlns="&ns_sfw;">
		<slices></slices>
		<sliceSourceBounds  bottomLeftOrigin="true" height="440" width="660" x="-325.5" y="-217"></sliceSourceBounds>
	</sfw>
</metadata>
<g>
	<g>
		<rect width="660" height="440"/>
	</g>
	<g>
		<rect class="st0" width="660" height="293.3333"/>
	</g>
	<g>
		<rect class="st1" width="660" height="146.6667"/>
	</g>
	<g>
		<g>
			<path class="st0" d="M330.594,221.76l50.2245,46.6246l-3.5757-84.678c-0.5253-12.8333-11.6776-9.889-19.7787-5.2597
				c-8.2068,5.2597-17.5692,5.2597-27.4604,1.7871c-9.889,3.4726-19.2522,3.4726-27.459-1.7871
				c-8.1004-4.629-19.2515-7.5739-19.778,5.2597l-3.5779,84.678l51.4052-46.6246H330.594z"/>
			<path class="st2" d="M380.8185,268.8506c-0.1153,0-0.2292-0.043-0.3173-0.1246l-49.9111-46.3339l-51.0884,46.3378
				c-0.1396,0.1261-0.3416,0.1565-0.5106,0.0766c-0.1697-0.0798-0.2757-0.2539-0.2679-0.4415l3.5779-84.6782
				c0.1783-4.3416,1.5698-7.2628,4.135-8.6822c5.0553-2.7973,13.1105,1.1927,16.3396,3.0379
				c7.5388,4.83,16.6411,5.4155,27.0732,1.7521c0.1003-0.0351,0.2098-0.0351,0.3087,0c10.4342,3.6624,19.5372,3.0776,27.0553-1.7399
				c3.2491-1.8577,11.3058-5.8473,16.3611-3.0501c2.5659,1.4198,3.9567,4.3409,4.1343,8.6829l3.5757,84.6774
				c0.0079,0.1887-0.0988,0.3634-0.27,0.4426C380.9509,268.8366,380.8843,268.8506,380.8185,268.8506z M290.6192,174.9595
				c-1.3485,0-2.6261,0.2485-3.7318,0.8601c-2.2616,1.2511-3.4912,3.9112-3.6552,7.9059l-3.5313,83.5656l50.5807-45.8763
				c0.1797-0.1615,0.4526-0.1604,0.6295,0.0039l49.394,45.8541l-3.5277-83.5466c-0.1633-3.995-1.3929-6.6552-3.6545-7.9062
				c-4.6413-2.5692-12.3349,1.2644-15.4272,3.0311c-7.7143,4.9446-17.0364,5.5798-27.6919,1.8763
				c-10.6534,3.7028-19.9755,3.068-27.7105-1.8885C299.9534,177.5022,294.9304,174.9595,290.6192,174.9595z"/>
		</g>
		<g id="w">
			<g>
				<path class="st2" d="M288.5447,180.7593l-3.4717,82.368l-5.8921,5.2565l3.5775-84.678
					c1.6829-1.1573,4.6297-2.9459,5.7864-2.9459V180.7593z"/>
			</g>
			<g>
				<path class="st2" d="M295.5993,186.6553l-2.9459,68.9003l-5.8904,6.0283l3.5766-79.5593
					c1.158,1.1565,4.6301,3.9965,5.2596,4.6276L295.5993,186.6553z"/>
			</g>
			<g>
				<path class="st2" d="M302.016,191.9133l-2.3133,57.4655l-4.7341,4.6267l2.9463-65.5637
					c1.1549,1.1573,3.4695,2.8405,4.1011,3.4712V191.9133z"/>
			</g>
			<g>
				<path class="st2" d="M308.9607,194.8613l-2.3146,48.9772l-4.6297,3.7542l2.3146-54.5189
					C305.489,193.599,307.8032,194.8613,308.9607,194.8613L308.9607,194.8613z"/>
			</g>
			<g>
				<path class="st2" d="M315.3773,194.8613l-1.6848,40.8152l-4.7332,4.6295l1.7888-44.9181
					c1.1557-0.0005,4.102-0.0005,4.6292-0.5267V194.8613z"/>
			</g>
		</g>
		<g transform="matrix(-1,0,0,1,900,0)">
			<g id="w_00000099647150768672171170000004672513727170955433_">
				<g>
					<path class="st2" d="M371.4553,180.7593l3.4717,82.368l5.8921,5.2565l-3.5775-84.678
						c-1.6829-1.1573-4.6297-2.9459-5.7864-2.9459V180.7593z"/>
				</g>
				<g>
					<path class="st2" d="M364.4007,186.6553l2.9459,68.9003l5.8904,6.0283l-3.5766-79.5593
						c-1.158,1.1565-4.6301,3.9965-5.2596,4.6276L364.4007,186.6553z"/>
				</g>
				<g>
					<path class="st2" d="M357.984,191.9133l2.3133,57.4655l4.7341,4.6267l-2.9463-65.5637
						c-1.1549,1.1573-3.4695,2.8405-4.1011,3.4712V191.9133z"/>
				</g>
				<g>
					<path class="st2" d="M351.0393,194.8613l2.3146,48.9772l4.6297,3.7542l-2.3146-54.5189
						C354.511,193.599,352.1968,194.8613,351.0393,194.8613L351.0393,194.8613z"/>
				</g>
				<g>
					<path class="st2" d="M344.6227,194.8613l1.6848,40.8152l4.7332,4.6295l-1.7888-44.9181
						c-1.1557-0.0005-4.102-0.0005-4.6292-0.5267V194.8613z"/>
				</g>
			</g>
		</g>
		<g>
			<path class="st2" d="M332.3173,231.044l7.0493,32.087l-2.3155,2.3138l-2.4195-1.7885l-3.998-28.6132l1.6834,28.6132
				l-2.3151,2.9449l-2.3146-2.9449l1.6839-28.6132l-3.9971,28.6132l-2.4218,1.7885l-2.3133-2.3138l7.0483-32.087H332.3173
				L332.3173,231.044z"/>
			<path class="st2" d="M330.0022,267.2385l-2.7163-3.4561l1.1143-18.9449l-2.659,19.0373l-2.8274,2.0883l-2.7056-2.706
				l0.0465-0.2105l7.1164-32.3963h5.2629l7.1636,32.6068l-2.7077,2.706l-2.8259-2.0883l-2.6598-19.0405l1.1143,18.9482
				L330.0022,267.2385z M328.0894,263.5303l1.9128,2.4334l1.9128-2.4334l-1.6743-28.4639l0.7834-0.0777l3.9746,28.4492
				l2.0138,1.4889l1.9229-1.9218l-6.9344-31.567h-3.9968l-6.9337,31.567l1.9207,1.9218l2.0152-1.4889l3.9746-28.4492l0.7834,0.0777
				L328.0894,263.5303z"/>
		</g>
		<g id="b">
			<g>
				<path class="st0" d="M314.2187,216.9493l-13.992,49.6503l19.2537,2.9463l8.2045-37.3443l-13.4662-15.2526V216.9493z"/>
				<path class="st2" d="M319.4813,269.9817c-0.0222,0-0.0444-0.0014-0.0666-0.005l-19.2536-2.9462
					c-0.1232-0.0186-0.2328-0.0899-0.3008-0.1948c-0.0673-0.1049-0.0867-0.2338-0.053-0.3541l13.9913-49.6504
					c0.0437-0.1536,0.1669-0.2714,0.323-0.3069c0.154-0.0347,0.3173,0.0165,0.4232,0.1364l13.4664,15.2525
					c0.0924,0.1042,0.1289,0.2464,0.0988,0.382l-8.2042,37.3441C319.8615,269.8421,319.6825,269.9817,319.4813,269.9817z
					 M300.7805,266.2434l18.362,2.8098l8.0688-36.729L314.421,217.837L300.7805,266.2434z"/>
			</g>
			<g>
				<path class="st2" d="M311.275,238.4566c-0.0322,0-0.0645-0.0032-0.0967-0.01c-0.1511-0.0322-0.2757-0.1364-0.3344-0.2789
					l-1.6837-4.1014l0.8622-0.3538l1.4244,3.4701l8.6031-8.2174l0.6431,0.6739l-9.0965,8.6886
					C311.5092,238.4111,311.3938,238.4566,311.275,238.4566z"/>
			</g>
			<g>
				<path class="st2" d="M317.794,241.9274c-0.0415,0-0.0838-0.0057-0.1253-0.0172c-0.1841-0.0516-0.318-0.2098-0.338-0.3992
					l-1.9035-17.8535l0.9267-0.0988l1.7796,16.6916l5.0768-6.6451l0.7405,0.5658l-5.7865,7.5736
					C318.0748,241.8615,317.9366,241.9274,317.794,241.9274z"/>
			</g>
			<g>
				
					<rect x="322.3805" y="236.6055" transform="matrix(0.9605 -0.2783 0.2783 0.9605 -54.6784 99.433)" class="st2" width="0.932" height="11.3571"/>
			</g>
			<g>
				<path class="st2" d="M320.8112,263.2288l-1.8226-8.6206l-3.7476,5.8298c-0.0967,0.1504-0.2743,0.2331-0.4504,0.2102
					c-0.1783-0.0229-0.328-0.1461-0.3839-0.3169l-1.9995-6.0887l-3.6817,6.0554c-0.0967,0.159-0.2743,0.2453-0.4633,0.2191
					c-0.1841-0.0258-0.3352-0.159-0.3846-0.3387l-3.0486-11.1841c-0.043-0.1593,0.0007-0.3294,0.116-0.4476l5.9949-6.1488
					c0.1167-0.1196,0.2872-0.1665,0.449-0.1264c0.1611,0.0412,0.2879,0.1654,0.333,0.3255l1.6206,5.7707l3.7175-5.0341
					c0.1103-0.1493,0.2993-0.2198,0.4798-0.1769c0.1812,0.0419,0.3201,0.1876,0.3531,0.3706l1.5877,8.7506l5.7965-8.8032
					l0.7777,0.5121l-6.3279,9.6114l1.9952,9.4381L320.8112,263.2288z M312.5347,252.6711c0.0179,0,0.0351,0.0011,0.053,0.0032
					c0.1812,0.0208,0.333,0.1447,0.3896,0.3172l2.0095,6.1195l3.7332-5.808l-1.5511-8.5486l-3.643,4.9328
					c-0.1053,0.1436-0.2843,0.2141-0.4583,0.1815c-0.1754-0.0322-0.3165-0.1611-0.3645-0.3323l-1.6593-5.91l-5.2458,5.3801
					l2.6941,9.8821l3.6445-5.9938C312.2217,252.7548,312.3735,252.6711,312.5347,252.6711z"/>
			</g>
			<g>
				<path class="st2" d="M316.0889,269.6927l-1.9945-6.0722l-2.9491,5.0037c-0.0931,0.159-0.2757,0.2453-0.4569,0.226
					c-0.1833-0.0222-0.3366-0.1511-0.3903-0.3284l-2.2573-7.4912l-3.3351,4.6843l-0.7591-0.5407l3.8865-5.4585
					c0.1024-0.145,0.275-0.2162,0.4555-0.1894c0.1754,0.029,0.3187,0.155,0.3702,0.3255l2.2244,7.3824l2.9319-4.9736
					c0.0924-0.1572,0.2628-0.2471,0.4512-0.2263c0.1819,0.0193,0.3352,0.144,0.3925,0.3176l2.3153,7.0501L316.0889,269.6927z"/>
			</g>
		</g>
		<g transform="matrix(-1,0,0,1,900,0)">
			<g id="b_00000008114246263474491490000016629115407825934986_">
				<g>
					<path class="st0" d="M345.7813,216.9493l13.992,49.6503l-19.2537,2.9463l-8.2045-37.3443l13.4662-15.2526V216.9493z"/>
					<path class="st2" d="M340.5188,269.9817c-0.2012,0-0.3803-0.1396-0.4247-0.3423l-8.2042-37.3441
						c-0.0301-0.1357,0.0065-0.2775,0.0988-0.382l13.4657-15.2528c0.1053-0.1192,0.2671-0.1733,0.4232-0.1361
						c0.1561,0.0354,0.2793,0.1532,0.323,0.3069l13.9921,49.6504c0.0336,0.1203,0.0143,0.2492-0.053,0.3541
						c-0.068,0.1049-0.1776,0.1762-0.3008,0.1948l-19.2536,2.9462C340.5632,269.9803,340.541,269.9817,340.5188,269.9817z
						 M332.7887,232.3243l8.0688,36.729l18.362-2.8098l-13.6411-48.4061L332.7887,232.3243z"/>
				</g>
				<g>
					<path class="st2" d="M348.7251,238.4566c-0.1189,0-0.2342-0.0455-0.3216-0.1289l-9.0965-8.6886l0.6431-0.6739l8.6031,8.2174
						l1.4244-3.4701l0.8622,0.3538l-1.6837,4.1014c-0.0587,0.1425-0.1833,0.2467-0.3344,0.2789
						C348.7896,238.4534,348.7573,238.4566,348.7251,238.4566z"/>
				</g>
				<g>
					<path class="st2" d="M342.206,241.9274c-0.1425,0-0.2807-0.0659-0.3703-0.183l-5.7864-7.5736l0.7405-0.5658l5.0768,6.6451
						l1.7796-16.6916l0.9267,0.0988l-1.9035,17.8535c-0.0201,0.1894-0.154,0.3477-0.338,0.3992
						C342.2898,241.9217,342.2476,241.9274,342.206,241.9274z"/>
				</g>
				<g>
					
						<rect x="331.475" y="241.8181" transform="matrix(0.2782 -0.9605 0.9605 0.2782 10.646 498.7347)" class="st2" width="11.3571" height="0.932"/>
				</g>
				<g>
					<path class="st2" d="M339.1889,263.2288l-0.9109-0.1926l1.9952-9.4385l-6.3279-9.611l0.7777-0.5121l5.7965,8.8032
						l1.5877-8.7506c0.033-0.183,0.1719-0.3287,0.3531-0.3706c0.1812-0.0437,0.3695,0.0272,0.4798,0.1769l3.7175,5.0341
						l1.6206-5.7707c0.0451-0.16,0.1719-0.2843,0.333-0.3255c0.1633-0.0405,0.3323,0.0068,0.449,0.1264l5.9949,6.1488
						c0.1153,0.1182,0.159,0.2882,0.116,0.4476l-3.0486,11.1841c-0.0494,0.1797-0.2005,0.313-0.3846,0.3387
						c-0.1884,0.0269-0.3667-0.0602-0.4633-0.2191l-3.6817-6.0554l-1.9995,6.0887c-0.0558,0.1708-0.2055,0.294-0.3839,0.3169
						c-0.1762,0.0251-0.3538-0.0594-0.4505-0.2102l-3.7476-5.8298L339.1889,263.2288z M341.28,253.3034l3.7333,5.8076l2.0095-6.1195
						c0.0565-0.1726,0.2084-0.2965,0.3896-0.3172c0.1819-0.0215,0.3567,0.0652,0.4512,0.2206l3.6445,5.9938l2.6942-9.8821
						l-5.2458-5.3801l-1.6593,5.91c-0.048,0.1712-0.1891,0.3001-0.3645,0.3323c-0.1733,0.0326-0.3524-0.038-0.4583-0.1815
						l-3.643-4.9328L341.28,253.3034z"/>
				</g>
				<g>
					<path class="st2" d="M343.9112,269.6927l-0.8852-0.2907l2.3153-7.0501c0.0573-0.1736,0.2105-0.2983,0.3925-0.3176
						c0.1876-0.0219,0.3588,0.0691,0.4512,0.2263l2.9319,4.9736l2.2244-7.3824c0.0515-0.1704,0.1948-0.2965,0.3702-0.3255
						c0.1776-0.0272,0.3523,0.0444,0.4555,0.1894l3.8865,5.4585l-0.7591,0.5407l-3.3351-4.6843l-2.2573,7.4912
						c-0.0537,0.1772-0.207,0.3062-0.3903,0.3284c-0.1819,0.0204-0.3631-0.0666-0.4569-0.226l-2.9491-5.0037L343.9112,269.6927z"/>
				</g>
			</g>
		</g>
		<g>
			<g>
				<path class="st0" d="M330,288.794c14.6248,0,28.6176-1.1569,36.8229-3.4716c3.4726-0.6298,3.4726-2.4182,3.4726-4.7339
					c3.4727-1.1569,1.6829-5.2583,4.1025-5.2583c-2.4196,0.6324-2.9449-4.1023-5.8908-3.4698c0-4.1041-4.1034-4.6295-7.5753-3.4743
					c-6.9443,2.3156-19.2537,2.8418-30.932,2.8418c-11.6776-0.5262-23.8824-0.5262-30.9312-2.8418
					c-3.4717-1.1551-7.5731-0.6298-7.5731,3.4743c-2.9468-0.6325-3.4727,4.1023-5.8917,3.4698c2.4191,0,0.6303,4.1014,4.1025,5.2583
					c0,2.3156,0,4.1041,3.5771,4.7339C301.3831,287.6371,315.3772,288.794,330,288.794L330,288.794z"/>
				<path class="st2" d="M330,289.6661c-15.6628,0-29.1121-1.2729-36.913-3.4934c-3.9023-0.7029-4.2238-2.8227-4.2503-4.9976
					c-1.804-0.8751-2.2072-2.5452-2.4821-3.6856c-0.2012-0.8329-0.3137-1.1279-0.4727-1.2318
					c-0.1597-0.0114-0.3251-0.0387-0.4984-0.0838c-0.424-0.111-0.7004-0.5199-0.6438-0.9546
					c0.0558-0.4351,0.4261-0.7609,0.8644-0.7609c0.1891,0,0.3631,0.0168,0.5221,0.0476c0.4139-0.062,0.7999-0.4991,1.438-1.3188
					c0.7154-0.917,1.6493-2.1151,3.1253-2.2466c0.2327-1.5605,1.0413-2.4643,1.7366-2.9659
					c1.6156-1.1645,4.2031-1.3195,6.918-0.4157c5.6683,1.862,14.7698,2.1961,24.4062,2.5495
					c2.0919,0.077,4.1988,0.1543,6.2892,0.2485c14.9438-0.0011,24.972-0.916,30.6166-2.798
					c2.7185-0.9048,5.3059-0.7487,6.9208,0.4161c0.6954,0.5016,1.5039,1.4054,1.7367,2.9655
					c1.476,0.131,2.4091,1.3292,3.1238,2.2466c0.6388,0.8193,1.0248,1.2568,1.438,1.3188c0.1597-0.0312,0.333-0.0476,0.5228-0.0476
					c0.4383,0,0.8085,0.3259,0.8644,0.7609c0.0565,0.4347-0.2199,0.8436-0.6438,0.9546c-0.1733,0.0451-0.3394,0.0723-0.4991,0.0838
					c-0.1583,0.1039-0.2707,0.3989-0.472,1.2318c-0.2757,1.1408-0.6789,2.8105-2.4829,3.6856
					c-0.0258,2.1735-0.3394,4.2922-4.1451,4.9973C359.1207,288.3928,345.632,289.6661,330,289.6661z M287.6049,275.6998
					c0.2184,0.4451,0.3387,0.9446,0.444,1.3804c0.2872,1.1888,0.535,2.2154,1.9329,2.6812
					c0.3559,0.1185,0.5958,0.4519,0.5958,0.8271c0,2.3153,0,3.372,2.8567,3.8751c0.0301,0.0054,0.0594,0.0122,0.0888,0.0204
					c7.5324,2.1531,21.1685,3.4382,36.4769,3.4382c15.5045,0,28.8399-1.2532,36.5857-3.4389
					c0.0272-0.0075,0.0544-0.0139,0.0817-0.019c2.7564-0.4999,2.7564-1.5576,2.7564-3.8758c0-0.3753,0.2399-0.7086,0.5958-0.8271
					c1.3979-0.4659,1.6457-1.4925,1.9329-2.6809c0.1053-0.4361,0.2256-0.9356,0.444-1.3807
					c-0.5228-0.3989-0.9503-0.9482-1.3342-1.4409c-0.9324-1.1971-1.4731-1.7406-2.3719-1.5462
					c-0.2592,0.0562-0.5271-0.0089-0.7312-0.174c-0.2048-0.1654-0.3237-0.415-0.3237-0.6782c0-1.1236-0.3631-1.9551-1.0785-2.4711
					c-1.1444-0.8261-3.1954-0.8927-5.3503-0.1762c-5.8251,1.9422-16.0331,2.8864-31.2068,2.8864
					c-2.1248-0.0949-4.2267-0.1719-6.3135-0.2485c-9.7632-0.3584-18.9843-0.6968-24.8896-2.6368
					c-2.157-0.7176-4.2074-0.6503-5.351,0.1747c-0.7154,0.516-1.0785,1.3474-1.0785,2.4714c0,0.2632-0.1189,0.5128-0.3237,0.6782
					c-0.2041,0.1651-0.4727,0.2285-0.7312,0.1744c-0.8981-0.1927-1.4402,0.3491-2.3726,1.5462
					C288.5559,274.752,288.1277,275.3009,287.6049,275.6998z"/>
			</g>
			<g>
				<path class="st0" d="M310.1194,266.596c4.7332,0.6316,9.9938,1.1569,14.0983,0.6316c2.3124,0,3.9962,3.997-0.6326,4.6295
					c-4.1016,0.5244-10.5197,0-13.992-0.6324c-2.9459-0.5262-9.3632-1.6827-13.4669-2.8418
					c-4.1029-1.7867-1.1557-5.2565,1.1566-4.7316c3.5779,1.1565,8.2075,2.3147,12.837,2.9449L310.1194,266.596z"/>
				<path class="st2" d="M319.6095,272.5384c-3.6946,0-7.7444-0.4265-10.0998-0.8554c-2.5395-0.4537-9.2913-1.66-13.5101-2.8521
					c-2.7851-1.2081-2.4385-3.0046-2.2666-3.527c0.477-1.4556,2.1792-2.4431,3.653-2.1073
					c2.4156,0.7792,7.2324,2.1807,12.7968,2.938l0,0c4.3112,0.5751,9.7962,1.1666,13.9756,0.6309c0.0022,0,0.005,0,0.0072,0
					c1.4566,0,2.717,1.1974,2.8137,2.6143c0.0394,0.5772-0.0852,2.4954-3.3315,2.9387
					C322.4375,272.4732,321.0496,272.5384,319.6095,272.5384z M296.7888,264.0567c-0.8844,0-1.8849,0.6653-2.1706,1.5376
					c-0.3008,0.9159,0.3008,1.7545,1.6944,2.3611c4.115,1.1584,10.8339,2.3586,13.3625,2.8105
					c3.2155,0.5854,9.6379,1.1673,13.8503,0.6292c1.6715-0.2285,2.5932-0.9399,2.5244-1.9519
					c-0.0623-0.916-0.9353-1.7499-1.8319-1.7499c-4.2289,0.545-9.7933-0.053-14.1603-0.6352
					c-0.0007-0.0003-0.0007-0.0003-0.0014-0.0003c-5.6354-0.767-10.5116-2.186-12.9164-2.9634
					C297.0258,264.0689,296.9084,264.0567,296.7888,264.0567z"/>
			</g>
			<g>
				<path class="st0" d="M349.888,266.596c-4.7351,0.6316-9.9939,1.1569-13.9927,0.6316c-2.4204,0-4.1038,3.997,0.5259,4.6295
					c4.1034,0.5244,10.5211,0,13.9905-0.6324c2.9472-0.5262,9.364-1.6827,13.4669-2.8418c4.1042-1.7867,1.1589-5.2565-1.1566-4.7316
					C359.1449,264.8076,354.516,265.9658,349.888,266.596L349.888,266.596z"/>
				<path class="st2" d="M340.3977,272.5384c-1.4402,0-2.8259-0.0645-4.0355-0.2195c-3.2406-0.4422-3.3645-2.3443-3.3258-2.9165
					c0.0974-1.4316,1.4065-2.6408,2.8588-2.6408c4.1372,0.541,9.615-0.0515,13.9312-0.627
					c5.563-0.758,10.3777-2.1592,12.7524-2.9269c1.5068-0.343,3.2177,0.6406,3.6946,2.0962
					c0.1719,0.5224,0.5185,2.3189-2.2086,3.5059c-4.2804,1.2139-11.0301,2.4195-13.5717,2.8735
					C348.1414,272.1119,344.0916,272.5384,340.3977,272.5384z M335.8345,267.6893c-1.0055,0.0039-1.8119,0.9378-1.8684,1.7761
					c-0.068,0.9987,0.8501,1.7023,2.518,1.93c4.2117,0.5396,10.6326-0.0433,13.8438-0.6291
					c2.5309-0.4519,9.2476-1.6518,13.4242-2.832c1.3349-0.5854,1.9372-1.4241,1.6364-2.3404
					c-0.3244-0.9904-1.5719-1.7155-2.5631-1.4885c-2.364,0.7663-7.2388,2.185-12.8741,2.9523c-0.0007,0-0.0007,0-0.0014,0.0003
					C345.5769,267.6417,340.0218,268.2404,335.8345,267.6893z M349.8881,266.5961h0.0071H349.8881z"/>
			</g>
			<g>
				<path class="st0" d="M295.5993,264.286c-3.5765-0.6316-5.2597,3.4698-4.1014,5.7837c0.5253-1.1569,2.9453-1.1569,3.472-2.3138
					C295.5993,265.9687,294.4433,265.9687,295.5993,264.286L295.5993,264.286z"/>
				<path class="st2" d="M291.4979,270.5357c-0.1761,0-0.3373-0.0995-0.4168-0.2575c-0.7226-1.4448-0.4841-3.4518,0.5815-4.8802
					c0.9546-1.2805,2.4184-1.8527,4.0176-1.5709c0.1561,0.0276,0.2872,0.1325,0.3488,0.2786
					c0.0609,0.1461,0.0437,0.3133-0.0458,0.444c-0.5342,0.7777-0.4863,1.0642-0.4132,1.4975
					c0.0709,0.425,0.1597,0.9539-0.1604,1.8634c-0.3566,0.7885-1.1952,1.1175-2.0052,1.4359
					c-0.6381,0.2503-1.2977,0.5096-1.4824,0.916c-0.0738,0.1636-0.2356,0.2696-0.4154,0.2732
					C291.5036,270.5357,291.5007,270.5357,291.4979,270.5357z M294.8251,264.6869c-1.2762,0.0204-2.0461,0.7717-2.4163,1.2683
					c-0.6861,0.9199-0.9532,2.1685-0.734,3.2072c0.3946-0.2929,0.8966-0.4902,1.3886-0.6832
					c0.6381-0.2506,1.2976-0.5095,1.4824-0.9163c0.2249-0.6449,0.1668-0.9929,0.1053-1.3614
					C294.5701,265.7192,294.5372,265.2989,294.8251,264.6869z"/>
			</g>
			<g>
				<path class="st0" d="M309.5913,275.044c0-2.3121,2.3133-2.0277,2.3133-4.3424c0-1.1565-0.6299-2.9459-1.787-2.9459
					c-1.1576,0-2.3155,1.1569-2.3155,2.3138C307.2758,272.3846,309.5913,272.7324,309.5913,275.044z"/>
				<path class="st2" d="M309.5913,275.51c-0.2571,0-0.4655-0.2084-0.4655-0.4659c0-0.9217-0.4347-1.4799-0.8944-2.0714
					c-0.5615-0.7226-1.1974-1.5404-0.8945-2.957c0.0351-1.384,1.3951-2.726,2.7808-2.726c1.4695,0,2.2523,1.9812,2.2523,3.4117
					c0,1.3689-0.729,2.0088-1.3156,2.523c-0.5572,0.4891-0.9976,0.8751-0.9976,1.8197
					C310.0568,275.3016,309.8484,275.51,309.5913,275.51z M310.1177,268.2214c-0.8988,0-1.8498,0.95-1.8498,1.848
					c0,0.0347-0.0036,0.0695-0.0114,0.1031c-0.2313,1.0173,0.1848,1.5519,0.7104,2.2283c0.227,0.2918,0.4677,0.6008,0.6646,0.9628
					c0.2442-0.3441,0.5414-0.6048,0.8085-0.8397c0.5579-0.4891,0.999-0.8759,0.999-1.8226
					C311.439,269.7028,310.8839,268.2214,310.1177,268.2214z"/>
			</g>
			<g>
				<path class="st0" d="M326.2453,268.3853c3.469,0,3.1253,4.6303,1.4414,6.9446c0-1.6832-2.9453-2.3143-2.9453-3.4698
					C324.7414,270.0694,327.4006,270.0694,326.2453,268.3853L326.2453,268.3853z"/>
				<path class="st2" d="M327.6869,275.7957c-0.048,0-0.0967-0.0075-0.144-0.0229c-0.1919-0.0623-0.3216-0.2413-0.3216-0.4429
					c0-0.6753-0.7512-1.192-1.4774-1.6915c-0.7555-0.5192-1.4681-1.0098-1.4681-1.7782c0-1.0312,0.6961-1.5988,1.2038-2.0134
					c0.6367-0.5192,0.7584-0.6481,0.3817-1.1978c-0.0981-0.1425-0.1089-0.3276-0.0287-0.4805
					c0.0809-0.1533,0.2399-0.2489,0.4125-0.2489c1.5877,0,2.3525,0.8483,2.7149,1.5601c0.9052,1.7778,0.2392,4.5629-0.8966,6.1241
					C327.9741,275.7267,327.833,275.7957,327.6869,275.7957z M328.1524,275.3299h0.0079H328.1524z M326.9872,268.9487
					c0.1182,0.7745-0.4841,1.2662-0.9188,1.6203c-0.5357,0.4372-0.8615,0.7423-0.8615,1.2912c0,0.2786,0.5658,0.6674,1.0649,1.0108
					c0.5343,0.367,1.1516,0.7917,1.529,1.3528c0.651-1.356,0.9181-3.1639,0.3294-4.3212
					C327.8824,269.4167,327.5,269.0977,326.9872,268.9487z"/>
			</g>
			<g>
				<path class="st0" d="M364.4007,264.286c3.577-0.6316,5.261,3.4698,4.1032,5.7837c-0.5267-1.1569-2.9458-1.1569-3.4716-2.3138
					C364.4007,265.9687,365.5585,265.9687,364.4007,264.286L364.4007,264.286z"/>
				<path class="st2" d="M368.5036,270.5357c-0.0029,0-0.0057,0-0.0086,0c-0.1798-0.0036-0.3409-0.1096-0.4154-0.2729
					c-0.1848-0.4068-0.8443-0.6656-1.4817-0.9163c-0.8107-0.3183-1.6486-0.6474-1.9894-1.3979
					c-0.3366-0.9474-0.2485-1.4763-0.1769-1.9014c0.0723-0.4333,0.1203-0.7197-0.4146-1.4975
					c-0.0895-0.1303-0.1067-0.2975-0.0458-0.444c0.0616-0.1461,0.1926-0.251,0.3488-0.2786
					c1.5999-0.2825,3.0644,0.2904,4.019,1.5716c1.0656,1.4283,1.3041,3.435,0.5815,4.8795
					C368.8409,270.4361,368.6798,270.5357,368.5036,270.5357z M365.1757,264.6869c0.2879,0.6116,0.2556,1.032,0.1747,1.5143
					c-0.0616,0.3684-0.1203,0.7165,0.121,1.3993c0.1697,0.3692,0.8293,0.6284,1.4667,0.8787
					c0.492,0.1934,0.994,0.3907,1.3886,0.6836c0.2191-1.0388-0.0487-2.2874-0.7348-3.2072
					C367.2217,265.4593,366.4518,264.7077,365.1757,264.6869z"/>
			</g>
			<g>
				<path class="st0" d="M350.4087,275.044c0-2.3121-2.3123-2.0277-2.3123-4.3424c0-1.1565,0.6303-2.9459,1.7878-2.9459
					c1.1566,0,2.3146,1.1569,2.3146,2.3138C352.7251,272.3846,350.4087,272.7324,350.4087,275.044L350.4087,275.044z"/>
				<path class="st2" d="M350.4088,275.51c-0.2571,0-0.4655-0.2084-0.4655-0.4659c0-0.9446-0.4404-1.331-0.9976-1.8197
					c-0.5858-0.5142-1.3148-1.1541-1.3148-2.523c0-1.4305,0.7827-3.4117,2.253-3.4117c1.3857,0,2.7457,1.342,2.7808,2.726
					c0.3029,1.4169-0.3337,2.2344-0.8959,2.957c-0.4597,0.5912-0.8945,1.1497-0.8945,2.0714
					C350.8742,275.3016,350.6658,275.51,350.4088,275.51z M349.8838,268.2214c-0.767,0-1.322,1.4814-1.322,2.48
					c0,0.9467,0.4412,1.3335,0.9983,1.8226c0.2678,0.2349,0.565,0.4956,0.8085,0.8397c0.1977-0.362,0.4383-0.6714,0.6653-0.9632
					c0.5264-0.6764,0.9417-1.211,0.7112-2.2279c-0.0079-0.0337-0.0115-0.0684-0.0115-0.1031
					C351.7336,269.1714,350.7826,268.2214,349.8838,268.2214z"/>
			</g>
			<g>
				<path class="st0" d="M333.7547,268.3853c-3.4704,0-3.1262,4.6303-1.4428,6.9446c0-1.6832,2.9449-2.3143,2.9449-3.4698
					C335.2573,270.0694,332.5976,270.0694,333.7547,268.3853z"/>
				<path class="st2" d="M332.3117,275.7957c-0.1461,0-0.2872-0.0691-0.3767-0.1919c-1.1358-1.5616-1.8011-4.347-0.8959-6.1241
					c0.3624-0.7119,1.1279-1.5601,2.7156-1.5601c0.1733,0,0.3316,0.0959,0.4125,0.2489c0.0802,0.1532,0.0695,0.3384-0.0286,0.4809
					c-0.3774,0.5497-0.2564,0.6786,0.3803,1.1978c0.5077,0.4143,1.2038,0.9822,1.2031,2.0135c0,0.7681-0.7126,1.2586-1.4674,1.7778
					c-0.7262,0.4995-1.4774,1.0162-1.4774,1.6915c0,0.202-0.1296,0.3806-0.3216,0.4429
					C332.4084,275.7882,332.3597,275.7957,332.3117,275.7957z M333.0121,268.9487c-0.5128,0.149-0.8952,0.468-1.143,0.9539
					c-0.5894,1.1569-0.3216,2.9648,0.3287,4.3212c0.3774-0.5611,0.9947-0.9858,1.529-1.3528
					c0.4984-0.3434,1.0642-0.7322,1.0642-1.0108c0-0.5493-0.3251-0.854-0.8615-1.2912
					C333.4955,270.2148,332.8932,269.7232,333.0121,268.9487z"/>
			</g>
			<g>
				<g>
					<path class="st0" d="M296.758,265.4447c1.1587,0,2.9463,0.5262,3.4726,1.1565l-3.476-1.1587L296.758,265.4447z"/>
					<path class="st2" d="M300.2306,266.9281c-0.0344,0-0.0695-0.0054-0.1031-0.0168l-3.4497-1.1498
						c-0.0308-0.0079-0.0602-0.0201-0.0881-0.0365l-0.0036-0.0021c-0.1425-0.0859-0.1984-0.2654-0.1289-0.4168
						c0.0609-0.131,0.1898-0.2062,0.3366-0.188c1.2303,0.0104,3.0945,0.5629,3.6874,1.2737
						c0.0938,0.1121,0.1017,0.2729,0.0193,0.3935C300.4382,266.8765,300.3365,266.9281,300.2306,266.9281z"/>
				</g>
				<g>
					<path class="st0" d="M302.5367,267.234c0.632,0,2.9468,0.5254,4.1037,1.1552l-4.1067-1.1587L302.5367,267.234z"/>
					<path class="st2" d="M306.6401,268.7159c-0.0294,0-0.0594-0.0039-0.0888-0.0122l-4.0656-1.1469
						c-0.0745-0.0118-0.1425-0.0487-0.1934-0.1056l-0.0029-0.0036c-0.0967-0.1085-0.1096-0.2675-0.033-0.3907
						c0.0702-0.1124,0.2055-0.1686,0.328-0.1493c0.7527,0.0229,3.0365,0.5547,4.2116,1.1942
						c0.1461,0.0795,0.2091,0.2564,0.1468,0.4104C306.8914,268.6379,306.7704,268.7159,306.6401,268.7159z"/>
				</g>
				<g>
					<path class="st0" d="M323.5833,269.544c-1.1569,0-3.4716,0-4.1014,0.5244l4.0993-0.528L323.5833,269.544z"/>
					<path class="st2" d="M319.482,270.3953c-0.1289,0-0.2471-0.0759-0.2993-0.1962c-0.0587-0.1332-0.0215-0.289,0.0902-0.382
						c0.6581-0.5479,2.5366-0.5987,4.2596-0.5998l0.0072-0.0007c0.126-0.0175,0.2549,0.0444,0.3216,0.1558
						c0.0609,0.101,0.0637,0.2288,0.0057,0.3312c-0.0594,0.1046-0.1461,0.1662-0.2929,0.1676l-4.0505,0.5213
						C319.5099,270.3942,319.4956,270.3953,319.482,270.3953z"/>
				</g>
				<g>
					<path class="st0" d="M317.1667,269.544c-0.6298-0.6325-2.9454-0.6325-4.1019,0h4.0993H317.1667z"/>
					<path class="st2" d="M317.1667,269.8711h-4.1021c-0.1497,0-0.28-0.1013-0.3165-0.246
						c-0.0372-0.1447,0.0287-0.2961,0.1597-0.3677c1.1859-0.6499,3.7075-0.7298,4.4909,0.0562
						c0.0931,0.0938,0.1203,0.2342,0.0695,0.3559C317.4181,269.7916,317.2985,269.8711,317.1667,269.8711z"/>
				</g>
				<g>
					<path class="st0" d="M363.2493,265.4447c-1.1569,0-2.8414,0.5262-3.4725,1.1565L363.2493,265.4447z"/>
					<path class="st2" d="M359.7766,266.9281c-0.111,0-0.2177-0.0566-0.2779-0.1554c-0.0802-0.1289-0.0602-0.2958,0.0473-0.4028
						c0.7391-0.738,2.5452-1.2522,3.7032-1.2522c0.1604,0,0.2972,0.1164,0.323,0.2746c0.0251,0.1583-0.0673,0.3119-0.2199,0.3624
						l-3.4726,1.1566C359.8461,266.9227,359.811,266.9281,359.7766,266.9281z"/>
				</g>
				<g>
					<path class="st0" d="M357.4633,267.234c-0.6307,0-2.9459,0.5254-4.1032,1.1552l4.1067-1.1587L357.4633,267.234z"/>
					<path class="st2" d="M353.36,268.7159c-0.1303,0-0.2514-0.0781-0.3029-0.2037c-0.0623-0.154,0.0007-0.3309,0.1468-0.4104
						c1.1759-0.6399,3.4612-1.1716,4.2124-1.1942c0.1361-0.0175,0.27,0.0433,0.3373,0.1651c0.0731,0.1332,0.0451,0.2993-0.068,0.401
						c-0.0458,0.0415-0.1053,0.0709-0.1669,0.082l-4.0699,1.148C353.4194,268.712,353.3893,268.7159,353.36,268.7159z"/>
				</g>
				<g>
					<path class="st0" d="M336.4167,269.544c1.1582,0,3.4725,0,4.1032,0.5244l-4.1067-0.528L336.4167,269.544z"/>
					<path class="st2" d="M340.5202,270.3953c-0.0136,0-0.0279-0.0011-0.0415-0.0029l-4.0584-0.5213
						c-0.0852-0.0068-0.1726-0.0333-0.2349-0.0956l-0.0036-0.0036c-0.0988-0.0992-0.1239-0.2499-0.0623-0.3756
						c0.0616-0.1253,0.1984-0.1987,0.3351-0.1797l0.0072,0.0007c1.7252,0.0007,3.6072,0.0512,4.2675,0.5998
						c0.1117,0.0927,0.149,0.2485,0.091,0.3817C340.7673,270.3194,340.6491,270.3953,340.5202,270.3953z"/>
				</g>
				<g>
					<path class="st0" d="M342.8333,269.544c0.6307-0.6325,2.9467-0.6325,4.1032,0h-4.1067H342.8333z"/>
					<path class="st2" d="M346.9369,269.8711h-4.1071c-0.1805,0-0.3266-0.1465-0.3266-0.3269c0-0.1074,0.0516-0.203,0.1318-0.2625
						c0.8171-0.7505,3.2885-0.6635,4.4587-0.0243c0.131,0.0716,0.1969,0.2231,0.1597,0.3677
						C347.2169,269.7697,347.0865,269.8711,346.9369,269.8711z"/>
				</g>
			</g>
			<g>
				<g>
					<path class="st2" d="M295.7827,274.692c-0.3916-0.0749-0.5973-0.3847-0.4987-0.7514c0.1201-0.4466,0.4778-0.7021,0.8159-0.5826
						c0.215,0.076,0.6085,0.4728,0.61,0.6151c0.0022,0.1634-0.2057,0.5519-0.2953,0.5528
						c-0.0387,0.0004-0.0984,0.0341-0.1329,0.0748C296.2083,274.6873,295.9785,274.7294,295.7827,274.692L295.7827,274.692z"/>
				</g>
				<g>
					<path class="st2" d="M336.0647,277.5667c-0.1457-0.054-0.3778-0.3802-0.3776-0.5308c0.0015-0.2839,0.4211-0.7464,0.6811-0.749
						c0.1284-0.0007,0.4801,0.1819,0.6117,0.3187c0.2384,0.2478,0.1864,0.6547-0.1131,0.8858
						C336.7194,277.6051,336.2799,277.6463,336.0647,277.5667L336.0647,277.5667z"/>
				</g>
				<g>
					<path class="st2" d="M336.3287,279.3853c-0.3081-0.1042-0.4208-0.255-0.4459-0.5966c-0.026-0.356,0.0085-0.4114,0.3846-0.6165
						l0.2681-0.1462l0.2541,0.1133c0.3519,0.1569,0.5085,0.3261,0.5209,0.5628c0.0133,0.255-0.1758,0.5159-0.4694,0.6475
						C336.5832,279.4652,336.5679,279.4662,336.3287,279.3853L336.3287,279.3853z"/>
				</g>
				<g>
					<path class="st2" d="M299.0167,271.3993c-0.2539-0.008-0.6023,0.2253-0.8021,0.3438c-0.476,0.1116-1.0301,0.4041-1.4895,0.0917
						c-0.4526-0.1399-1.0545-0.0296-1.1229,0.5271c0.1161,0.478,0.7858,0.7512,1.1917,0.4354
						c0.3011-0.3942,1.1229-0.6254,1.2145,0.0458c-0.3352,0.5076-0.2969,1.1798-0.5729,1.7188
						c-0.0449,0.3357-0.1846,0.6544-0.3667,0.9395c-0.3389,0.034-0.6994-0.0059-0.9855,0.2063
						c-0.4591,0.0251-0.9275,0.2533-1.1917,0.6417c-0.2958,0.424-0.5784,0.8546-0.6646,1.375
						c0.0786,0.5316,0.6875,0.684,1.1458,0.7104c0.4891,0.1346,0.9786,0.3112,1.4667,0.4583
						c0.7959,0.1783,1.5415,0.4659,2.3375,0.6417c1.1619,0.3502,2.3818,0.5114,3.5521,0.825
						c0.1226,0.0407,0.2376,0.0761,0.3667,0.0917c0.4857,0.101,0.7391-0.4275,0.7792-0.825c0.241-0.8504,0.425-1.7153,0.6646-2.5667
						c0.1649-0.3414,0.3641-1.1126-0.2979-0.9395c-0.3776,0.2264-0.698,0.5672-1.1688,0.5958
						c-0.6409,0.0373-0.2751,0.6931-0.0229,0.9625c0.0557,0.4306-0.0806,0.9451-0.3667,1.2834
						c-0.3813,0.2417-0.8592-0.0411-1.2604-0.1375c-0.4214,0.0074-1.2638-0.2077-0.8708-0.7792
						c0.1396-0.4231,0.1519-0.8861,0.3208-1.3062c0.2152-0.4507,0.2461-0.9424,0.3438-1.4208
						c-0.2649-0.5701-0.7176,0.1876-1.0771,0.2521c-0.2476,0.172-1.1773,0.2451-0.6875,0.6875
						c0.4218,0.3204,0.0985,0.8776,0.0229,1.2833c-0.027,0.5649-0.6144,0.6996-1.0771,0.5729
						c-0.4603-0.0222-1.101-0.3648-0.7104-0.8708c0.0888-0.4218,0.2361-0.8362,0.3208-1.2605
						c0.1741-0.5117,0.3207-0.9994,0.5042-1.5125c0.0796-0.4547,0.2428-0.8858,0.4583-1.2833
						c0.0127-0.5027,0.3504-0.9352,0.3438-1.4438c-0.0344-0.2484-0.1456-0.3389-0.2979-0.3438H299.0167z M296.3812,276.716
						c0.0599-0.0103,0.1026-0.0015,0.1604,0.0229c0.1831,0.0779,0.1885,0.2269,0,0.3896c-0.0824,0.0711-0.176,0.1397-0.2063,0.1375
						c-0.343-0.0295-0.4441-0.0805-0.4583-0.2063c-0.0126-0.1109,0.0225-0.1427,0.2521-0.2521
						C296.2432,276.7532,296.3213,276.7263,296.3812,276.716L296.3812,276.716z"/>
				</g>
				<g>
					<path class="st2" d="M295.6213,280.3973c-0.3637-0.3419-0.3052-0.5914,0.2327-0.9923c0.2302-0.1715,0.3698-0.1521,0.6329,0.088
						c0.4051,0.3695,0.4213,0.6035,0.0638,0.9202c-0.1767,0.1565-0.2541,0.1886-0.4598,0.1907
						C295.8757,280.606,295.8147,280.5793,295.6213,280.3973L295.6213,280.3973z"/>
				</g>
				<g>
					<path class="st2" d="M297.858,281.072c-0.3556-0.0876-0.5605-0.4458-0.4565-0.7975c0.0942-0.3187,0.1487-0.3501,0.6162-0.3548
						c0.5242-0.0051,0.6259,0.0825,0.6309,0.544c0.003,0.2598-0.0172,0.3201-0.1464,0.4403
						C298.3503,281.0452,298.0584,281.1214,297.858,281.072L297.858,281.072z"/>
				</g>
				<g>
					<path class="st2" d="M363.2053,281.1306c-0.1665-0.1385-0.2-0.2012-0.2019-0.3775c-0.0022-0.3011,0.1712-0.5219,0.5471-0.6921
						c0.5-0.2265,0.7039-0.1953,0.8922,0.1362c0.2505,0.4409,0.2384,0.6209-0.0615,0.9181
						c-0.1656,0.164-0.1966,0.1736-0.5756,0.1774C363.4333,281.295,363.3908,281.2851,363.2053,281.1306L363.2053,281.1306z"/>
				</g>
				<g>
					<path class="st2" d="M300.828,281.974c-0.2668-0.0712-0.4052-0.2714-0.4087-0.5916c-0.0029-0.2448,0.0148-0.2838,0.186-0.4179
						c0.1109-0.0868,0.2861-0.1611,0.4243-0.18c0.1957-0.0268,0.2672-0.0097,0.4247,0.101
						c0.4037,0.2838,0.4894,0.5645,0.2557,0.8369C301.4611,282.0126,301.225,282.0799,300.828,281.974L300.828,281.974z"/>
				</g>
				<g>
					<path class="st2" d="M316.9027,282.6927c-0.0592-0.0738-0.1901-0.1174-0.2035-0.2104
						c0.0235-0.4069,0.0429-0.8189,0.1725-1.2087c0.0705-0.3835,0.0088-0.7841,0.1425-1.1577
						c0.1371-0.6797,0.137-1.3806,0.2949-2.056c0.0074-0.3478,0.0403-0.6959,0.1411-1.0306c0.1157-0.5292,0.01-1.0826,0.1658-1.6056
						c-0.0167-0.1964,0.2095-0.721,0.4082-0.4103c0.2884,0.4227,0.6683,0.7664,1.0419,1.1112
						c0.321,0.1852,0.0263,0.4579-0.1955,0.5498c-0.3045,0.12-0.3785,0.4553-0.3569,0.7496
						c-0.0427,0.304-0.1647,0.5917-0.1771,0.902c-0.0644,0.4564-0.0518,0.92-0.1111,1.3761
						c-0.1335,0.4466-0.0825,0.9238-0.127,1.3842c0.0059,0.2923-0.133,0.5577-0.1138,0.851
						c-0.0355,0.2977-0.0488,0.6558-0.2986,0.8597C317.4449,282.9188,317.0963,282.8978,316.9027,282.6927L316.9027,282.6927z"/>
				</g>
				<g>
					<path class="st2" d="M338.6827,275.506c-0.3536,0.2674-0.67,0.5832-0.9855,0.8938c-0.4345,0.3292,0.357,0.5207,0.4583,0.8021
						c0.1152,0.43,0.1084,0.8878,0.1375,1.3292c0.1314,0.4044,0.1895,0.8348,0.1604,1.2605
						c-0.0381,0.4564-0.6331,0.3602-0.8938,0.6187c-0.3606,0.1519-0.5045,0.5063-0.7792,0.7562
						c-0.1806,0.354-0.2289,0.7893-0.2521,1.1917c0.0259,0.3284-0.2218,0.6961,0,0.9854c0.0286,0.0409,0.0625,0.0968,0.0917,0.1375
						c0.0742,0.1065,0.2512,0.0214,0.3667,0.0458c0.3694-0.0207,0.7542,0.0347,1.1-0.1146
						c0.8873-0.1536,1.7828-0.1658,2.6812-0.2062c0.5494,0.0175,1.0781-0.1738,1.6271-0.1604
						c0.4303,0.0952,0.6239-0.3712,0.6187-0.7104c-0.2437-0.4793-0.033-1.0475-0.2292-1.5355
						c-0.1723-0.4931-0.1044-1.0472-0.1833-1.5583c-0.0108-0.4021-0.5212-0.5513-0.7792-0.2521
						c-0.2504,0.2531-0.6548,0.3036-0.8479,0.6188c-0.2175,0.4417,0.4601,0.4423,0.5729,0.7791
						c0.129,0.3404,0.0867,0.7191,0.1146,1.0771c0.0838,0.4344-0.3881,0.4592-0.6875,0.5042
						c-0.3936,0.1475-0.946,0.2463-1.1688-0.2292c-0.14-0.3516-0.1208-0.7281-0.1604-1.1c-0.0096-0.654-0.1669-1.2968-0.2063-1.9479
						c-0.0377-0.8043-0.1765-1.6035-0.2292-2.4062c-0.0073-0.334-0.0518-0.8785-0.5271-0.7792L338.6827,275.506z M338.2243,281.556
						l0.2292,0.0229l0.0229,0.275l0.0229,0.275l-0.2979,0.0917c-0.1577,0.0466-0.2957,0.0692-0.2979,0.0687
						c-0.0022-0.0006-0.0645-0.0389-0.1375-0.0917c-0.161-0.1163-0.1198-0.2823,0.0917-0.5042
						C337.9768,281.5685,338.0327,281.5443,338.2243,281.556L338.2243,281.556z"/>
				</g>
				<g>
					<path class="st2" d="M316.25,274.7507c-0.2788,0.099-0.6325,0.5083-0.9167,0.5042c-0.6454,0.0457-0.5553,0.6741-0.0917,0.8938
						c0.0611,0.1906,0.0037,0.4311,0.0229,0.6417c0.0901,0.5791-0.2752,1.045-0.2062,1.6271
						c-0.0324,0.6382-0.2251,1.2597-0.2521,1.9021c-0.1812,0.6624-0.1832,1.3435-0.2979,2.0167
						c-0.0765,0.6037-0.5131,0.3907-0.8938,0.2292c-0.0029-0.2617-0.02-0.5175-0.0229-0.7792
						c0.1587-0.5992-0.3234-0.7741-0.8021-0.8479c-0.5031,0.0476-0.7501-0.3837-0.6417-0.825
						c0.2162-0.2574,0.7597-0.1858,1.1-0.2292c0.7196,0.1492,0.6905-0.8153,0.3208-1.1458
						c-0.2528-0.4662-0.8787-0.6668-1.0542-1.1458c0.0701-0.6354-0.3518-1.2703-0.8708-1.5812
						c-0.7982-0.056-1.4009,0.6329-1.6958,1.3062c-0.3318,0.096-0.6628,0.1955-0.9854,0.3208
						c-0.5199,0.1302-1.2611,1.0318-0.55,1.375c0.3991,0.1099,1.6135,0.3871,1.0771,0.9395
						c-0.3023,0.5186-0.8807,0.5274-1.3979,0.3896c-0.5307,0.0005-1.1216-0.2582-1.1-0.8708
						c-0.1082-0.5499-0.0905-1.1425-0.3438-1.65c-0.1089-0.6155-0.8073-0.4715-0.8479,0.0917
						c-0.5378,0.3916-0.4662,1.0251-0.0916,1.4895c0.2337,0.5345,0.0022,1.1569-0.2292,1.65
						c-0.14,0.6416-0.8477,0.6635-1.3521,0.8708c-0.2475,0.0961-1.1942-0.0571-0.8479,0.4813
						c0.5523,0.1949,1.2118,0.3703,1.7875,0.2292c0.6035-0.0749,1.1275-0.4875,1.4208-1.0083
						c0.4053-0.4107,1.1015-0.1957,1.6271-0.2063c0.5667-0.0015,1.1459,0.3978,1.6958,0.1375
						c0.1594-0.4139,0.8961-1.0969,1.1229-0.3896c-0.0386,0.6326,0.5202,0.9722,1.1,0.8938c0.6334-0.0362,0.3993,0.448,0.3896,0.825
						c0.0419,0.6853,0.4838,1.0448,1.0542,1.3292c0.1943,0.0524,0.3997,0.0348,0.5958,0c0.5485-0.1725,1.1393-0.4172,1.3062-1.0312
						c0.2227-0.4992,0.2278-1.0638,0.3896-1.5812c0.1299-0.8286,0.2977-1.6573,0.3208-2.4979
						c0.2025-0.7614,0.1443-1.5664,0.2979-2.3375c0.097-0.5733,0.1693-1.1465,0.2292-1.7188
						c-0.0672-0.3061-0.1994-0.3573-0.3666-0.2979L316.25,274.7507z M311.2771,277.7986c0.1111,0.0135,0.1728,0.1497,0.1833,0.3896
						c0.0117,0.267,0.1513,0.4846,0.3208,0.5271c0.1338,0.0335,0.1223,0.1751-0.0229,0.275
						c-0.0844,0.058-0.2353,0.0931-0.5042,0.0917c-0.4239-0.0022-0.6867-0.112-0.9167-0.3438l-0.1375-0.1375l0.2062-0.1375
						c0.104-0.0794,0.2921-0.2439,0.4125-0.3667C311.0278,277.8833,311.1661,277.785,311.2771,277.7986L311.2771,277.7986z"/>
				</g>
				<g>
					<path class="st2" d="M359.7,272.0227c-0.4159,0.0191-0.834,0.0865-1.2145,0.1833c-0.7628-0.0474-1.1458,0.7532-0.4125,1.1458
						c0.4412,1.1252,1.1296-0.2324,1.8333-0.1375c1.0542,0.205,1.1433,1.3437,1.3062,2.2c0.0593,0.8482,0.3039,1.6732,0.55,2.475
						c0.7056,0.7843-0.5286,1.2762-1.0542,0.6646c-0.4483-0.4872-1.4083-1.085-1.9479-0.4125
						c-0.6626,0.2806-0.6898,1.1662-1.2375,1.4208c-0.8867,0.2699-0.9983-0.8205-1.4666-1.2833
						c-0.4307-0.6045-1.2542-0.6574-1.925-0.8708c-0.3147-0.637-0.1507-1.7201-0.8021-2.1542
						c-0.5469,0.2231-1.5496,1.2483-0.7104,1.7188c0.8197,0.7045-0.3577,1.0275-0.7333,1.5125
						c-0.5365,0.5974-0.6222,1.4197-0.7104,2.1772c-0.9235,0.5101-1.1032-0.5776-1.2145-1.2605
						c-0.0719-0.8151-0.7596-0.5758-1.2375-0.275c-0.6985,0.283-1.0473,0.9462-1.5355,1.4666
						c-0.0586,0.475,0.0273,0.9949,0.0229,1.4896c0.1588,0.595,0.8818,0.3156,1.3292,0.275
						c0.7178-0.3002,1.0116,0.4601,0.4354,0.8938c-0.39,0.4957-1.6278,0.2368-1.5125,1.0312c0.3989,0.0466,0.8144,0.0317,1.2145,0
						c0.7997-0.2185,1.6584-0.7827,1.7417-1.6729c0.1053-0.776,1.2229-0.6346,1.8333-0.8021
						c0.7633-0.22,1.6829-0.2765,1.8562,0.6875c0.5203,0.5463,1.649,1.1616,2.2229,0.4125c0.5826-0.3558,0.8627-0.9809,0.825-1.65
						c-0.1188-0.5754,0.9305-0.5963,1.1917-0.275c0.3824,0.6292,1.5774,0.4435,2.1541,0.0916
						c0.6132-0.4526,0.7462-1.2503,1.6271-1.2604c1.307-0.3912,2.6651-0.6169,3.9417-1.1c1.0343-0.2254-0.1539-0.8783-0.4125-1.2605
						c-0.7874-0.3894-1.4726,1.2041-2.3605,0.4125c-0.6861-0.5251-0.6396-1.5229-0.8938-2.2917
						c-0.1739-0.9954-0.1299-2.1433-0.8479-2.9333c-0.4931-0.5243-1.1631-0.6505-1.8562-0.6187L359.7,272.0227z M354.7042,278.9665
						c0.0922-0.0022,0.1962,0.0435,0.3667,0.1375c0.3215,0.1774,0.5505,0.4715,0.55,0.7104
						c-0.0003,0.1559-0.0399,0.1664-0.275,0.275c-0.1446,0.0667-0.309,0.1382-0.3667,0.1375
						c-0.1327-0.0015-0.4579-0.2617-0.4583-0.3667c-0.0005-0.0435-0.0426-0.2101-0.0917-0.3438
						c-0.0862-0.2351-0.0729-0.232,0.0458-0.3896C354.5509,279.0261,354.612,278.969,354.7042,278.9665z M359.4937,279.2185
						c0.273-0.0179,0.4353,0.0673,0.55,0.275c0.1333,0.2412,0.0427,0.426-0.2979,0.5729c-0.1492,0.0644-0.2985,0.1168-0.3208,0.1146
						c-0.0225-0.0022-0.1455-0.0752-0.275-0.1604c-0.1981-0.1304-0.227-0.1935-0.2292-0.3438
						C358.9186,279.4456,359.1769,279.2393,359.4937,279.2185z M352.9395,279.2873c0.08-0.0125,0.1528,0.0293,0.2521,0.1146
						c0.132,0.1134,0.1737,0.2045,0.2062,0.4354c0.023,0.1605,0.0194,0.368,0,0.4583c-0.0356,0.1658-0.039,0.1582-0.4125,0.1604
						c-0.4695,0.0044-0.5131-0.0468-0.5042-0.4812c0.0059-0.2764,0.0087-0.3507,0.1604-0.5042
						C352.7593,279.3516,352.8596,279.2997,352.9395,279.2873z M348.9062,280.3414c0.1463,0.0344,0.2845,0.1449,0.3208,0.3208
						c0.0481,0.2328,0.0059,0.339-0.1833,0.4354c-0.1629,0.0829-0.5383,0.1106-0.6417,0.0458
						c-0.0335-0.021-0.1026-0.0755-0.1375-0.1375c-0.0498-0.0889-0.0407-0.1316,0.0229-0.1833
						c0.0443-0.0361,0.0919-0.0879,0.0917-0.1146c-0.0003-0.0267,0.0493-0.1197,0.1146-0.2063
						C348.6008,280.3596,348.7599,280.307,348.9062,280.3414L348.9062,280.3414z M355.6895,281.2122
						c0.1305-0.0007,0.241,0.0447,0.3208,0.1146c0.1359,0.119,0.1313,0.2936-0.0229,0.4125c-0.0991,0.0765-0.6392,0.0695-0.825,0
						c-0.0827-0.0309-0.1141-0.0724-0.1146-0.1604c-0.0015-0.1033,0.0275-0.167,0.2063-0.2521
						C355.404,281.2553,355.5591,281.2131,355.6895,281.2122L355.6895,281.2122z"/>
				</g>
				<g>
					<path class="st2" d="M343.0973,284.746c-0.0703-0.0458-0.1743-0.0858-0.0695-0.1625c0.1267-0.2218,0.3798-0.2986,0.6045-0.3811
						c0.4017-0.174,0.7485-0.4696,1.0074-0.8202c0.0367-0.2442,0.3108-0.3766,0.3096-0.632
						c0.0022-0.3482,0.0228-0.7052-0.062-1.0457c-0.0941-0.3122-0.3311-0.5515-0.6061-0.7142
						c-0.1882-0.1477-0.4943-0.1885-0.5638-0.4503c-0.0385-0.2514,0.1859-0.4429,0.2644-0.6669
						c0.1637-0.3091,0.3015-0.6334,0.4773-0.935c0.19-0.2111,0.4832-0.0114,0.5815,0.1924
						c0.1387,0.2036,0.2616,0.4224,0.3306,0.6582c0.2216,0.2433,0.4182,0.5286,0.4979,0.852
						c0.1088,0.2277,0.281,0.4417,0.2708,0.7085c0.0002,0.3054,0.1724,0.5774,0.1616,0.8846
						c0.0098,0.411,0.0096,0.8396-0.1407,1.2277c-0.1027,0.2152-0.3084,0.3444-0.4447,0.5372
						c-0.2339,0.2167-0.4916,0.4246-0.7918,0.5399c-0.2121,0.0675-0.3352,0.3121-0.6008,0.2527
						c-0.3774,0.0066-0.7602,0.0579-1.1346-0.0029c0.0237,0.0397-0.1147-0.0671-0.0916-0.042L343.0973,284.746z"/>
				</g>
				<g>
					<path class="st2" d="M338.074,285.076c-0.1779-0.183-0.2165-0.2607-0.2184-0.4402c-0.0022-0.1815,0.0327-0.2535,0.2069-0.4295
						c0.3214-0.3247,0.4785-0.3325,1.0333-0.0517c0.5302,0.2684,0.7095,0.2927,0.757,0.1027
						c0.0458-0.1835,0.3512-0.3514,0.6412-0.3526c0.1834-0.0015,0.2871,0.035,0.434,0.1494
						c0.1844,0.1436,0.1932,0.166,0.1979,0.4982c0.0029,0.3395-0.0015,0.3524-0.213,0.5397
						c-0.2033,0.179-0.236,0.1901-0.4879,0.1648c-0.3206-0.0322-0.513-0.179-0.5652-0.4315
						c-0.0378-0.1833-0.1022-0.2271-0.1505-0.1024c-0.0154,0.04-0.0943,0.0894-0.1752,0.1097
						c-0.1493,0.0377-0.4025,0.197-0.5824,0.3667c-0.068,0.0641-0.1872,0.0943-0.3803,0.0962
						C338.3105,285.2975,338.2743,285.2819,338.074,285.076L338.074,285.076z"/>
				</g>
				<g>
					<path class="st2" d="M323.5393,278.5493c-0.4874,0.0051-1.0124,0.4152-1.0771,0.8938c0.1115,0.5517,0.5698,1.0923,0.275,1.6729
						c0.2035,0.7429-0.5584,1.0247-1.0771,0.5958c-0.3132-0.7123-0.4719-1.4929-0.9395-2.1312
						c-0.5897-0.1669-0.8466,0.7751-1.2605,1.1c0.2051,0.5537,0.8036,1.0504,0.8708,1.7417
						c0.1432,0.6709-0.2649,1.4158-0.8479,1.7645c-0.503,0.4801-1.192,0.3086-1.8105,0.4125
						c-0.7511,0.4389,0.5513,0.5995,0.8938,0.6187c0.7683,0.0781,1.5659-0.0233,2.1312-0.5958
						c0.564-0.2692,0.5205-1.2446,1.1917-1.3521c1.1648-0.052,2.3192,0.1786,3.4833,0.2063
						c0.6229,0.1491,1.5866-0.0741,2.0167,0.3896c0.0015,0.8122,0.6899,1.313,1.3521,1.6271
						c0.3657,0.1017,0.751-0.3515,1.1229-0.4354c0.7079-0.2256,0.4926-1.1015,0.9167-1.4438
						c1.2103-0.0655,2.432-0.0516,3.6438-0.0687c0.2307,0.0059,0.2987-0.3226,0.4583-0.4583
						c-0.0266-0.4685-0.0435-0.9332-0.1146-1.3979c-0.2333-0.5915,0.0376-1.3527-0.3896-1.8562
						c-0.6087-0.1658-1.1266,0.3913-1.7417,0.4354c-0.6792,0.3025-1.2514,0.9297-1.2833,1.6958
						c-0.4021,0.6575-1.047-0.117-0.825-0.6646c-0.0254-0.2386,0.0516-0.5164-0.0229-0.7333
						c-0.3718-0.446-1.0228-0.3002-1.5355-0.3667c-0.7468,0.0298-1.476-0.1317-2.2229-0.1146
						c-0.6548-0.0494-1.3362,0.057-1.9709-0.1146c-0.7566-0.0215-0.6523-0.7614-0.7791-1.2833
						C323.8635,278.5874,323.7018,278.5478,323.5393,278.5493L323.5393,278.5493z M325.006,281.2535
						c0.2516,0.0051,0.4888,0.0381,0.7333,0.0687c0.3159,0.052,0.6526-0.1086,0.9625,0c0.7161,0.1218,1.4326,0.093,2.1541,0.1604
						c0.1906-0.0029,0.3269,0.1355,0.4583,0.2521c0.0015,0.5013,0.0005,1.0112,0,1.5125c-0.0219,0.189,0.0559,0.4387-0.1146,0.5729
						c-0.0548,0.0376-0.1161,0.0786-0.1833,0.0916c-0.1985-0.0513-0.4087-0.1818-0.5042-0.3667
						c-0.0304-0.2621,0.0132-0.5163,0.0229-0.7791c-0.0051-0.068,0.0296-0.1738,0-0.2292c-0.156-0.1105-0.3328-0.1826-0.5271-0.1833
						c-0.6229-0.0214-1.2335-0.0672-1.8562-0.0917c-0.5184-0.0327-1.0511,0.0443-1.5583-0.0917
						c-0.1969-0.0716-0.4531-0.047-0.5729-0.2521c-0.1717-0.1997,0.076-0.4378,0.2521-0.5271
						C324.5061,281.2848,324.7544,281.2486,325.006,281.2535L325.006,281.2535z M333.2787,281.4368
						c0.1163-0.0015,0.1535,0.0367,0.2062,0.2521c0.0337,0.1376,0.0731,0.306,0.0917,0.3667
						c0.0266,0.0866-0.016,0.1146-0.1375,0.1604c-0.3622,0.1367-0.7228,0.1232-0.8479-0.0458
						c-0.0568-0.0767,0.0095-0.3186,0.1146-0.4125C332.9182,281.5681,333.1531,281.4373,333.2787,281.4368L333.2787,281.4368z"/>
				</g>
			</g>
		</g>
		<g>
			<path class="st0" d="M329.9854,239.9687c23.9375-18.4111,21.8849-45.3809,21.8849-45.3809
				c-0.6316,0.1263-1.2317,0.1895-1.8633,0.1895c-5.0212,0-16.9972-2.8726-19.7912-6.5213
				c-2.9929,3.3025-15.2313,6.5213-20.2209,6.5213c-0.6316,0-1.2632-0.0631-1.8632-0.1895c0,0-2.0843,26.9691,21.8533,45.3809
				H329.9854z"/>
			<path class="st2" d="M329.985,240.5009l-0.2571-0.1977c-23.8434-18.3391-22.038-45.476-22.0165-45.7481l0.0372-0.4791
				l0.4698,0.0988c0.5686,0.1199,1.1659,0.1805,1.7761,0.1805c5.0631,0,17.0399-3.2169,19.9088-6.3826l0.3394-0.3749l0.308,0.4018
				c2.6633,3.4783,14.5263,6.3558,19.4562,6.3558c0.5973,0,1.163-0.0576,1.7803-0.1812l0.4677-0.0935l0.0358,0.4752
				c0.0208,0.2718,1.7939,27.4094-22.0487,45.7474L329.985,240.5009z M308.5307,195.0886
				c-0.121,3.642-0.0444,27.6225,21.4543,44.347c21.5016-16.7263,21.6025-40.7118,21.4858-44.3488
				c-0.4934,0.0759-0.9682,0.1121-1.4638,0.1121c-4.8426,0-16.4355-2.7067-19.815-6.3207
				c-3.6924,3.4307-15.5747,6.3207-20.1974,6.3207C309.4968,195.1989,309.0062,195.162,308.5307,195.0886z"/>
		</g>
		<g>
			<path class="st0" d="M349.9613,196.5627c-0.2061,0.0129-0.4131,0.0194-0.6216,0.0194c-4.5507,0-15.1206-2.3348-19.195-5.8353
				c-4.2676,3.2336-15.0121,5.8353-19.4891,5.8353c-0.21,0-0.4174-0.0257-0.623-0.0634c-0.0104,1.0199,0.0426,2.0771,0.1059,3.0386
				c0.2369,3.5939,0.8672,7.2006,1.8242,10.6715c3.0126,10.923,9.1784,20.2056,18.0195,27.247
				c8.8484-7.0473,15.0216-16.3387,18.0407-27.2697c0.9585-3.4701,1.5909-7.0764,1.83-10.67
				c0.0625-0.942,0.1152-1.974,0.1081-2.9733H349.9613z"/>
			<path class="st2" d="M329.9821,237.9052l-0.2091-0.1669c-8.8623-7.0587-15.1336-16.5405-18.1342-27.4205
				c-0.9833-3.5661-1.6006-7.179-1.8355-10.7383c-0.0551-0.8454-0.1175-1.9576-0.1067-3.064l0.0043-0.3989l0.3917,0.072
				c0.2163,0.0394,0.3953,0.0576,0.5629,0.0576c4.5038,0,15.1587-2.6394,19.2865-5.7671l0.2156-0.1637l0.2062,0.1765
				c4.0892,3.5134,14.7598,5.7542,18.9757,5.7542c0.2012,0,0.4018-0.0061,0.6009-0.0186l0.3538-0.0222l0.0029,0.3548
				c0.0079,1.0814-0.0544,2.1703-0.1089,2.9978c-0.237,3.5582-0.8565,7.1708-1.8412,10.7375
				c-3.0078,10.889-9.2855,20.3786-18.1557,27.4427L329.9821,237.9052z M310.3676,196.9044c0.0043,0.9557,0.058,1.8956,0.106,2.6311
				c0.2313,3.5138,0.8415,7.0812,1.8126,10.604c2.9813,10.8095,8.9346,19.8609,17.696,26.9063
				c8.7685-7.0512,14.729-16.1101,17.7175-26.9292c0.9725-3.5227,1.5848-7.0902,1.8183-10.6029
				c0.048-0.7265,0.1017-1.6568,0.1074-2.5996c-0.0945,0.0025-0.1905,0.0039-0.2857,0.0039c-4.347,0-14.8063-2.1764-19.2077-5.7449
				c-4.4322,3.1858-14.8536,5.7449-19.4763,5.7449C310.5617,196.918,310.4672,196.9134,310.3676,196.9044z"/>
		</g>
		<g>
			<path class="st2" d="M322.212,194.3553c-4.3064,1.3528-8.9679,2.2229-11.55,2.2229c-0.21,0-0.4131-0.031-0.6188-0.0687
				c-0.0104,1.0198,0.0513,2.0864,0.1146,3.0479c0.2368,3.5938,0.8535,7.1863,1.8105,10.6561
				c2.0277,7.3517,5.5046,13.9568,10.2439,19.6394v-35.4977L322.212,194.3553z"/>
		</g>
		<g>
			<path class="st2" d="M337.3333,194.2893v36.1167c4.9823-5.809,8.6042-12.6177,10.7022-20.2121
				c0.9585-3.4699,1.5713-7.0629,1.8105-10.6561c0.0625-0.9419,0.1217-1.9799,0.1146-2.9792
				c-0.206,0.0129-0.4102,0.0229-0.6187,0.0229c-2.7355,0-7.6413-0.8583-12.0083-2.2917L337.3333,194.2893z"/>
		</g>
		<g>
			<g>
				<path class="st0" d="M339.0273,185.5993c0.4888,0.0287-0.6613-2.6165-0.6613-2.6165c1.2938,1.3226,6.1818,1.6389,6.1818,1.6389
					c-2.9326-1.2948-5.8651-11.0704-5.5205-18.8621c0.3167-7.8203-1.1208-10.8966-2.2712-12.0472
					c-1.4663-1.4663-6.1819-2.7602-9.287-2.9327c-1.7543-0.0863-1.4663,1.3226-1.4663,1.3226
					c-3.2492-0.8338-6.4978-1.1502-7.9647-0.1726c-1.3801,0.9201-1.6676,5.5204-0.6613,4.7153
					c2.4439-1.9552,4.5717-0.1725,6.0379,1.9551c1.2939,1.8689,1.2076,7.1593-0.6613,13.3408
					c-1.9551,6.498-7.3031,12.9961-7.3031,12.9961c2.904,0,6.9869-2.5877,6.9869-2.5877l-0.9776,4.0541
					c3.0764-1.4664,5.5204-3.7377,5.5204-3.7377l2.9327,3.0764c0.9775-1.2938,2.9327-3.0764,2.9327-3.0764
					s2.4441,2.5876,6.1818,2.9328L339.0273,185.5993z"/>
				<path class="st2" d="M320.8054,187.2099l0.951-3.9442c-1.4022,0.7781-4.1322,2.118-6.3064,2.118h-0.9453l0.6001-0.7301
					c0.053-0.0645,5.3152-6.5065,7.2209-12.8412c1.9343-6.3977,1.8269-11.3613,0.7212-12.9579
					c-1.057-1.5347-2.1649-2.4267-3.2047-2.5799c-0.7319-0.1064-1.4466,0.1275-2.1871,0.7194
					c-0.3237,0.26-0.6058,0.2002-0.7455,0.1411c-0.3194-0.1357-0.5027-0.4974-0.56-1.1054
					c-0.111-1.1859,0.2757-3.6942,1.4409-4.4716c1.766-1.1759,5.4312-0.5826,7.7816-0.0222
					c0.0437-0.2123,0.1346-0.4469,0.3158-0.6581c0.3402-0.3967,0.868-0.5801,1.6035-0.5443
					c3.2585,0.1812,8.0466,1.5297,9.5806,3.0633c1.2726,1.2733,2.7228,4.4551,2.4012,12.3811
					c-0.3531,7.9926,2.7106,17.3121,5.2551,18.4354l-0.2091,0.8544c-0.4089-0.0265-3.353-0.2406-5.2486-1.0216
					c0.4841,1.375,0.2979,1.641,0.2084,1.7692c-0.1082,0.1554-0.3022,0.2424-0.4777,0.2299l-0.015-0.0011
					c-3.1174-0.2886-5.3468-2.0407-6.1453-2.7636c-0.5829,0.55-1.8584,1.7864-2.5717,2.731l-0.3172,0.4193l-2.9978-3.1446
					c-0.7749,0.6707-2.8238,2.3389-5.3031,3.5206L320.8054,187.2099z M323.1293,181.3823l-1.0083,4.1826
					c2.5724-1.3968,4.5332-3.2062,4.5554-3.2262l0.323-0.3001l2.8832,3.025c1.0334-1.2393,2.5889-2.6612,2.6619-2.7278l0.323-0.2947
					l0.3022,0.3176c0.0222,0.024,2.2007,2.2813,5.4886,2.7471c-0.1103-0.4576-0.4089-1.2712-0.7018-1.9451l0.729-0.4902
					c0.7025,0.7187,2.818,1.1448,4.42,1.3557c-2.644-3.0314-4.8297-11.3846-4.5246-18.2864
					c0.3244-8.0022-1.2017-10.7726-2.1405-11.7115c-1.3736-1.3732-5.9641-2.6343-8.9962-2.803
					c-0.2957-0.014-0.6853,0.0136-0.8751,0.2299c-0.1884,0.2156-0.1289,0.5586-0.1282,0.5622l0.1253,0.6857l-0.6746-0.1683
					c-3.5972-0.9228-6.4396-1.0101-7.6055-0.2335c-0.3889,0.2592-0.7491,1.0491-0.9396,2.0618
					c-0.154,0.8153-0.1396,1.4742-0.0781,1.8018c0.8873-0.6517,1.7911-0.9088,2.7042-0.7738
					c1.3098,0.193,2.591,1.1874,3.8092,2.9555c1.4545,2.0997,1.2074,7.7433-0.6009,13.7235
					c-1.5727,5.2271-5.2408,10.3676-6.7389,12.3281c2.6132-0.4515,5.7206-2.4037,5.7557-2.4259L323.1293,181.3823z"/>
			</g>
			<g>
				<path class="st2" d="M322.7863,182.6653l-0.6932-0.623c2.9462-3.2771,4.5841-15.1014,4.5998-15.2202l0.9238,0.1253
					C327.5486,167.445,325.9216,179.1769,322.7863,182.6653z"/>
			</g>
			<g>
				<path class="st2" d="M327.3918,182.893l-0.8178-0.4454c2.0532-3.7741,2.6985-15.7817,2.7042-15.9024l0.931,0.048
					C330.1826,167.0956,329.5453,178.9345,327.3918,182.893z"/>
			</g>
			<g>
				<path class="st2" d="M332.4048,182.8282c-0.8221-2.3199-0.8315-15.2195-0.8315-15.7674h0.931
					c0,3.6885,0.1404,13.6551,0.7784,15.4559L332.4048,182.8282z"/>
			</g>
			<g>
				<path class="st2" d="M337.9786,183.25c-2.8001-4.1128-3.4733-15.0387-3.5005-15.5017l0.9296-0.0551
					c0.0064,0.111,0.6853,11.1318,3.3415,15.0326L337.9786,183.25z"/>
			</g>
			<g>
				<path class="st2" d="M324.192,161.0473c-0.1437-1.0639-0.4025-1.8977-0.7763-2.444c-1.4664-2.1276-3.594-3.9102-6.0379-1.9552
					c0,0,0.8338-2.5877,2.6164-2.674c1.3801-0.0863,4.5141,1.0351,7.2744,5.7504c0,0-2.0414-0.4601-2.5302-0.0288
					c-0.92,0.8051-0.5463,1.3514-0.5463,1.3514L324.192,161.0473z"/>
				<path class="st2" d="M324.0847,161.1208c-0.0093-0.014-0.1303-0.198-0.0902-0.4988c-0.1504-0.8454-0.3802-1.4989-0.6861-1.9454
					c-1.1243-1.631-2.2752-2.5437-3.4196-2.7124c-0.8121-0.1178-1.6285,0.145-2.4299,0.7853l-0.3366,0.27l0.1318-0.4111
					c0.0351-0.1092,0.883-2.6745,2.7335-2.7636c1.4273-0.0927,4.5955,1.0341,7.3935,5.8144l0.1504,0.2578l-0.2915-0.0655
					c-0.7641-0.1733-2.0969-0.3402-2.4156-0.0584c-0.3896,0.3412-0.5292,0.623-0.5672,0.8261
					c0.0236,0.1325,0.0444,0.2696,0.0637,0.4107L324.0847,161.1208z M319.5063,155.6763c0.1396,0,0.28,0.0104,0.4204,0.0312
					c1.2189,0.1794,2.4284,1.129,3.5958,2.822c0.2729,0.3989,0.4884,0.9446,0.6431,1.6285c0.1024-0.1708,0.2571-0.3588,0.4877-0.56
					c0.4211-0.3728,1.7459-0.1751,2.3532-0.0598c-2.5989-4.2997-5.4484-5.4388-6.8549-5.4388c-0.0515,0-0.1017,0.0018-0.1497,0.0047
					c-1.2511,0.0605-2.0253,1.462-2.3389,2.1753C318.2696,155.8782,318.8869,155.6763,319.5063,155.6763z"/>
			</g>
			<g>
				<path class="st2" d="M317.1227,153.4573c0.2012-0.6613,0.5175-1.2651,0.92-1.5239c1.4664-0.9775,4.7153-0.6613,7.964,0.1725
					c0,0-0.2875-1.4089,1.4664-1.3226c3.1052,0.1725,7.821,1.4664,9.2869,2.9328c0.345,0.3738,0.7476,0.9201,1.0926,1.7538h-0.0575
					c-0.7188-1.0062-2.7603-0.9487-3.2492-0.8913c-0.7763,0.0862-1.2651,0.0575-2.3001,0.3162
					c-0.4888,0.1151-1.2364,0.2588-1.6389,0.5751c-0.3163,0.2588-0.575,1.2076-1.0638,1.2076c-0.7763,0-0.7188-0.2013-0.9201-0.4313
					c-0.2587-0.3163-0.4025-0.7763-0.6613-0.7476c-0.8051,0.1438-2.0988-0.4887-3.7377-1.7826
					c-1.6386-1.2939-2.2712-1.6101-4.3988-1.4664c-2.099,0.1725-2.7602,1.3513-2.7602,1.3513l0.0575-0.1437L317.1227,153.4573z"/>
				<path class="st2" d="M329.5431,156.8074c-0.6452,0-0.782-0.135-0.9303-0.357c-0.0258-0.0376-0.0516-0.0777-0.0874-0.1185
					c-0.0938-0.1146-0.1712-0.2421-0.2399-0.3545c-0.1067-0.1762-0.2163-0.3545-0.3094-0.3498
					c-0.8271,0.1482-2.1219-0.4587-3.8328-1.8094c-1.6357-1.2919-2.2279-1.5802-4.3098-1.4387
					c-1.9945,0.1637-2.649,1.274-2.6555,1.2851l-0.2335-0.1117l0.058-0.1465c0.1382-0.4519,0.4455-1.245,0.9697-1.5823
					c1.7574-1.1705,5.6189-0.4583,7.8876,0.1106c-0.0064-0.2145,0.0287-0.5632,0.2729-0.8476
					c0.2721-0.3183,0.7219-0.4698,1.3463-0.4336c3.2005,0.178,7.8884,1.486,9.3722,2.9709c0.4619,0.4995,0.8271,1.086,1.1215,1.7957
					l0.0738,0.1798h-0.318l-0.0394-0.0544c-0.6488-0.9088-2.5222-0.9088-3.1281-0.8379c-0.2141,0.024-0.4068,0.039-0.5944,0.0537
					c-0.4877,0.0379-0.9482,0.0741-1.6894,0.2596l-0.169,0.039c-0.4576,0.1046-1.085,0.2478-1.4216,0.512
					c-0.0959,0.0788-0.1991,0.2585-0.3087,0.4487C330.1662,156.3895,329.9263,156.8074,329.5431,156.8074z M327.9819,155.3683
					c0.2378,0,0.3781,0.2306,0.5256,0.4741c0.0673,0.1106,0.1368,0.2245,0.2156,0.3219c0.0415,0.0466,0.0745,0.0956,0.1053,0.1418
					c0.0974,0.1454,0.1619,0.2413,0.7147,0.2413c0.2328,0,0.4333-0.3484,0.6102-0.656c0.121-0.2116,0.2363-0.4114,0.3709-0.5217
					c0.3839-0.3022,1.0442-0.453,1.5268-0.5633l0.1654-0.0379c0.7606-0.1905,1.2318-0.2274,1.7302-0.2664
					c0.1848-0.0143,0.3745-0.029,0.5851-0.0523c0.0215-0.0022,1.9006-0.1959,2.957,0.5428
					c-0.2335-0.4512-0.5056-0.8433-0.8243-1.1884c-1.418-1.4176-6.1102-2.7196-9.1989-2.8914
					c-0.5342-0.0254-0.916,0.0895-1.1344,0.342c-0.29,0.3362-0.1984,0.8207-0.1969,0.8253l0.0401,0.2027l-0.1998-0.0512
					c-3.7368-0.9586-6.6029-1.0284-7.8597-0.1901c-0.2549,0.1636-0.497,0.5049-0.6925,0.9664
					c0.4247-0.3599,1.1738-0.7874,2.3919-0.8873c2.1563-0.1479,2.8173,0.1726,4.4895,1.4935
					c1.6271,1.2837,2.8875,1.8881,3.6352,1.7567C327.954,155.369,327.9683,155.3683,327.9819,155.3683z"/>
			</g>
			<g>
				<circle class="st0" cx="329.1376" cy="154.4928" r="0.8624"/>
			</g>
		</g>
	</g>
</g>
</svg>
