<?xml version="1.0" encoding="utf-8"?>
<!-- Generator: Adobe Illustrator 27.7.0, SVG Export Plug-In . SVG Version: 6.00 Build 0)  -->
<!DOCTYPE svg PUBLIC "-//W3C//DTD SVG 1.1//EN" "http://www.w3.org/Graphics/SVG/1.1/DTD/svg11.dtd" [
	<!ENTITY ns_extend "http://ns.adobe.com/Extensibility/1.0/">
	<!ENTITY ns_ai "http://ns.adobe.com/AdobeIllustrator/10.0/">
	<!ENTITY ns_graphs "http://ns.adobe.com/Graphs/1.0/">
	<!ENTITY ns_vars "http://ns.adobe.com/Variables/1.0/">
	<!ENTITY ns_imrep "http://ns.adobe.com/ImageReplacement/1.0/">
	<!ENTITY ns_sfw "http://ns.adobe.com/SaveForWeb/1.0/">
	<!ENTITY ns_custom "http://ns.adobe.com/GenericCustomNamespace/1.0/">
	<!ENTITY ns_adobe_xpath "http://ns.adobe.com/XPath/1.0/">
]>
<svg version="1.1" id="Layer_1" xmlns:x="&ns_extend;" xmlns:i="&ns_ai;" xmlns:graph="&ns_graphs;"
	 xmlns="http://www.w3.org/2000/svg" xmlns:xlink="http://www.w3.org/1999/xlink" x="0px" y="0px" width="660px" height="440px"
	 viewBox="0 0 660 440" style="enable-background:new 0 0 660 440;" xml:space="preserve">
<style type="text/css">
	.st0{clip-path:url(#SVGID_00000116924028525469970410000003480796036466049956_);}
	.st1{fill:#DA0000;}
	.st2{fill:#FFFFFF;}
	.st3{fill:#239F40;}
</style>
<metadata>
	<sfw  xmlns="&ns_sfw;">
		<slices></slices>
		<sliceSourceBounds  bottomLeftOrigin="true" height="440" width="770" x="-380.5" y="-217"></sliceSourceBounds>
	</sfw>
</metadata>
<g>
	<defs>
		<rect id="SVGID_1_" width="660" height="440"/>
	</defs>
	<clipPath id="SVGID_00000031896240255741227240000000814692935874676103_">
		<use xlink:href="#SVGID_1_"  style="overflow:visible;"/>
	</clipPath>
	<g style="clip-path:url(#SVGID_00000031896240255741227240000000814692935874676103_);">
		<g>
			<rect x="-55" class="st1" width="770" height="440"/>
		</g>
		<g>
			<rect x="-55" class="st2" width="770" height="293.3333"/>
		</g>
		<g>
			<rect x="-55" class="st3" width="770" height="146.6667"/>
		</g>
		<g transform="translate(8.4,100.4)">
			<g id="tb4">
				<g id="tb1">
					<g id="tbp1">
						<path class="st2" d="M11.889,39.4223H-5.2221v-6.8446h-10.2671v3.4226h6.8446v3.422h-10.2665V29.1558h13.6891v-6.8446h3.422
							v13.6891h3.4226V22.3112h3.422v13.6891H8.467V22.3112h3.422V39.4223z M-22.3332,39.4223h-17.1111v-6.8446h-10.2671v6.8446
							h-3.422V29.1558h17.1111v6.8446h10.2671v-3.4226h-6.8446v-3.422h10.2665V39.4223z M-42.8669,39.4223h-3.422v-3.422h3.422
							V39.4223z M-8.6447,25.7332h-44.4888v-3.422h44.4888V25.7332z"/>
					</g>
					<g id="tbp2">
						<path class="st2" d="M11.889,49.6889h-30.8002v-6.844H11.889V49.6889z M-22.3332,49.6889h-30.8002v-6.844h30.8002V49.6889z"/>
					</g>
					<g>
						<g id="tbp2_00000121988531837772187700000003321523699129022124_">
							<path class="st2" d="M11.889,196.3555h-30.8002v-6.844H11.889V196.3555z M-22.3332,196.3555h-30.8002v-6.844h30.8002
								V196.3555z"/>
						</g>
					</g>
					<g>
						<g id="tbp1_00000153695372630989497950000003476507232236729740_">
							<path class="st2" d="M11.889,216.8898H-5.2221v-6.8452h-10.2671v3.422h6.8446v3.4232h-10.2665v-10.2683h13.6891v-6.844h3.422
								v13.6891h3.4226v-13.6891h3.422v13.6891H8.467v-13.6891h3.422V216.8898z M-22.3332,216.8898h-17.1111v-6.8452h-10.2671v6.844
								h-3.422v-10.2671h17.1111v6.8452h10.2671v-3.422h-6.8446v-3.4232h10.2665V216.8898z M-42.8669,216.8898h-3.422v-3.4232h3.422
								V216.8898z M-8.6447,203.2007h-44.4888v-3.4232h44.4888V203.2007z"/>
						</g>
					</g>
				</g>
				<g id="tb3">
					<g>
						<g id="tb1_00000079461191407401087700000014239266550824000687_">
							<g id="tbp1_00000150064645934345375320000008135251970066117043_">
								<path class="st2" d="M80.3335,39.4223H63.2223v-6.8446H52.9552v3.4226h6.8446v3.422H49.5332V29.1558h13.6891v-6.8446h3.422
									v13.6891h3.4226V22.3112h3.422v13.6891h3.4226V22.3112h3.422V39.4223z M46.1112,39.4223H29.0001v-6.8446H18.733v6.8446
									h-3.422V29.1558h17.1111v6.8446h10.2671v-3.4226h-6.8446v-3.422h10.2665V39.4223z M25.5775,39.4223h-3.422v-3.422h3.422
									V39.4223z M59.7998,25.7332H15.311v-3.422h44.4888V25.7332z"/>
							</g>
							<g id="tbp2_00000000215695219485384610000002437185665422211727_">
								<path class="st2" d="M80.3335,49.6889H49.5332v-6.844h30.8002V49.6889z M46.1112,49.6889H15.311v-6.844h30.8002V49.6889z"/>
							</g>
							<g>
								<g id="tbp2_00000129924341141946741870000016931737123667573644_">
									<path class="st2" d="M80.3335,196.3555H49.5332v-6.844h30.8002V196.3555z M46.1112,196.3555H15.311v-6.844h30.8002
										V196.3555z"/>
								</g>
							</g>
							<g>
								<g id="tbp1_00000134964745697176883340000002797636822786676665_">
									<path class="st2" d="M80.3335,216.8898H63.2223v-6.8452H52.9552v3.422h6.8446v3.4232H49.5332v-10.2683h13.6891v-6.844
										h3.422v13.6891h3.4226v-13.6891h3.422v13.6891h3.4226v-13.6891h3.422V216.8898z M46.1112,216.8898H29.0001v-6.8452H18.733
										v6.844h-3.422v-10.2671h17.1111v6.8452h10.2671v-3.422h-6.8446v-3.4232h10.2665V216.8898z M25.5775,216.8898h-3.422
										v-3.4232h3.422V216.8898z M59.7998,203.2007H15.311v-3.4232h44.4888V203.2007z"/>
								</g>
							</g>
						</g>
					</g>
					<g>
						<g id="tb1_00000030481239300005228110000018406230654067654064_">
							<g id="tbp1_00000152972937725449016870000016663570614035317643_">
								<path class="st2" d="M148.7779,39.4223h-17.1111v-6.8446h-10.2671v3.4226h6.8446v3.422h-10.2665V29.1558h13.6891v-6.8446
									h3.422v13.6891h3.4226V22.3112h3.422v13.6891h3.4226V22.3112h3.422V39.4223z M114.5557,39.4223H97.4446v-6.8446H87.1774
									v6.8446h-3.422V29.1558h17.1111v6.8446h10.2671v-3.4226h-6.8446v-3.422h10.2665V39.4223z M94.022,39.4223H90.6v-3.422h3.422
									V39.4223z M128.2442,25.7332H83.7554v-3.422h44.4888V25.7332z"/>
							</g>
							<g id="tbp2_00000173142784768087534150000014283586004669942946_">
								<path class="st2" d="M148.7779,49.6889h-30.8002v-6.844h30.8002V49.6889z M114.5557,49.6889H83.7554v-6.844h30.8002V49.6889
									z"/>
							</g>
							<g>
								<g id="tbp2_00000080172409251102582150000002768569110286995379_">
									<path class="st2" d="M148.7779,196.3555h-30.8002v-6.844h30.8002V196.3555z M114.5557,196.3555H83.7554v-6.844h30.8002
										V196.3555z"/>
								</g>
							</g>
							<g>
								<g id="tbp1_00000179624901747861219440000011642961481803467912_">
									<path class="st2" d="M148.7779,216.8898h-17.1111v-6.8452h-10.2671v3.422h6.8446v3.4232h-10.2665v-10.2683h13.6891v-6.844
										h3.422v13.6891h3.4226v-13.6891h3.422v13.6891h3.4226v-13.6891h3.422V216.8898z M114.5557,216.8898H97.4446v-6.8452
										H87.1774v6.844h-3.422v-10.2671h17.1111v6.8452h10.2671v-3.422h-6.8446v-3.4232h10.2665V216.8898z M94.022,216.8898H90.6
										v-3.4232h3.422V216.8898z M128.2442,203.2007H83.7554v-3.4232h44.4888V203.2007z"/>
								</g>
							</g>
						</g>
					</g>
					<g>
						<g id="tb1_00000042705868962518390910000010432451501221536934_">
							<g id="tbp1_00000034796510061166448080000000511728208458707882_">
								<path class="st2" d="M217.2223,39.4223h-17.1111v-6.8446h-10.2672v3.4226h6.8446v3.422h-10.2665V29.1558h13.6891v-6.8446
									h3.422v13.6891h3.4226V22.3112h3.422v13.6891h3.4226V22.3112h3.422V39.4223z M183.0001,39.4223H165.889v-6.8446h-10.2672
									v6.8446h-3.422V29.1558h17.1111v6.8446h10.2672v-3.4226h-6.8446v-3.422h10.2666V39.4223z M162.4664,39.4223h-3.422v-3.422
									h3.422V39.4223z M196.6886,25.7332h-44.4888v-3.422h44.4888V25.7332z"/>
							</g>
							<g id="tbp2_00000055697271698573074410000015846671082777320891_">
								<path class="st2" d="M217.2223,49.6889h-30.8002v-6.844h30.8002V49.6889z M183.0001,49.6889h-30.8002v-6.844h30.8002
									V49.6889z"/>
							</g>
							<g>
								<g id="tbp2_00000000940662852152163830000006452823431677158785_">
									<path class="st2" d="M217.2223,196.3555h-30.8002v-6.844h30.8002V196.3555z M183.0001,196.3555h-30.8002v-6.844h30.8002
										V196.3555z"/>
								</g>
							</g>
							<g>
								<g id="tbp1_00000132799378465008010180000001350409618790717878_">
									<path class="st2" d="M217.2223,216.8898h-17.1111v-6.8452h-10.2672v3.422h6.8446v3.4232h-10.2665v-10.2683h13.6891v-6.844
										h3.422v13.6891h3.4226v-13.6891h3.422v13.6891h3.4226v-13.6891h3.422V216.8898z M183.0001,216.8898H165.889v-6.8452
										h-10.2672v6.844h-3.422v-10.2671h17.1111v6.8452h10.2672v-3.422h-6.8446v-3.4232h10.2666V216.8898z M162.4664,216.8898
										h-3.422v-3.4232h3.422V216.8898z M196.6886,203.2007h-44.4888v-3.4232h44.4888V203.2007z"/>
								</g>
							</g>
						</g>
					</g>
				</g>
			</g>
			<g>
				<g id="tb3_00000054962229777081939090000009429580766152835717_">
					<g>
						<g id="tb1_00000064354565556729700130000015332305481029871004_">
							<g id="tbp1_00000058587993539462638510000001627251414714818455_">
								<path class="st2" d="M285.6668,39.4223h-17.1111v-6.8446h-10.2671v3.4226h6.8445v3.422h-10.2665V29.1558h13.6891v-6.8446
									h3.422v13.6891h3.4226V22.3112h3.422v13.6891h3.4226V22.3112h3.422V39.4223z M251.4446,39.4223h-17.1111v-6.8446h-10.2671
									v6.8446h-3.422V29.1558h17.1111v6.8446h10.2672v-3.4226h-6.8446v-3.422h10.2666V39.4223z M230.9109,39.4223h-3.422v-3.422
									h3.422V39.4223z M265.1331,25.7332h-44.4888v-3.422h44.4888V25.7332z"/>
							</g>
							<g id="tbp2_00000075855485777254918630000012579347191152844214_">
								<path class="st2" d="M285.6668,49.6889h-30.8002v-6.844h30.8002V49.6889z M251.4446,49.6889h-30.8002v-6.844h30.8002
									V49.6889z"/>
							</g>
							<g>
								<g id="tbp2_00000086676684003242357160000004495877488539053969_">
									<path class="st2" d="M285.6668,196.3555h-30.8002v-6.844h30.8002V196.3555z M251.4446,196.3555h-30.8002v-6.844h30.8002
										V196.3555z"/>
								</g>
							</g>
							<g>
								<g id="tbp1_00000093866731940893323240000007379140486307870617_">
									<path class="st2" d="M285.6668,216.8898h-17.1111v-6.8452h-10.2671v3.422h6.8445v3.4232h-10.2665v-10.2683h13.6891v-6.844
										h3.422v13.6891h3.4226v-13.6891h3.422v13.6891h3.4226v-13.6891h3.422V216.8898z M251.4446,216.8898h-17.1111v-6.8452
										h-10.2671v6.844h-3.422v-10.2671h17.1111v6.8452h10.2672v-3.422h-6.8446v-3.4232h10.2666V216.8898z M230.9109,216.8898
										h-3.422v-3.4232h3.422V216.8898z M265.1331,203.2007h-44.4888v-3.4232h44.4888V203.2007z"/>
								</g>
							</g>
						</g>
					</g>
					<g>
						<g id="tb1_00000111161788876884356920000004841955009083269806_">
							<g id="tbp1_00000030478201073912246730000009277013500842905487_">
								<path class="st2" d="M354.1118,39.4223h-17.1123v-6.8446h-10.2659v3.4226h6.844v3.422h-10.2672V29.1558h13.6891v-6.8446
									h3.4232v13.6891h3.4208V22.3112h3.4232v13.6891h3.422V22.3112h3.4232V39.4223z M319.889,39.4223h-17.1111v-6.8446h-10.2672
									v6.8446h-3.422V29.1558h17.1111v6.8446h10.2671v-3.4226h-6.8445v-3.422h10.2665V39.4223z M299.3553,39.4223h-3.422v-3.422
									h3.422V39.4223z M333.5775,25.7332h-44.4888v-3.422h44.4888V25.7332z"/>
							</g>
							<g id="tbp2_00000010290853430414209890000008568311655523161023_">
								<path class="st2" d="M354.1106,49.6889h-30.799v-6.844h30.799V49.6889z M319.889,49.6889h-30.8002v-6.844h30.8002V49.6889z"
									/>
							</g>
							<g>
								<g id="tbp2_00000162351745526556485580000008909146324206230956_">
									<path class="st2" d="M354.1106,196.3555h-30.799v-6.844h30.799V196.3555z M319.889,196.3555h-30.8002v-6.844h30.8002
										V196.3555z"/>
								</g>
							</g>
							<g>
								<g id="tbp1_00000156584076926815016150000015705317744888700035_">
									<path class="st2" d="M354.1118,216.8898h-17.1123v-6.8452h-10.2659v3.422h6.844v3.4232h-10.2672v-10.2683h13.6891v-6.844
										h3.4232v13.6891h3.4208v-13.6891h3.4232v13.6891h3.422v-13.6891h3.4232V216.8898z M319.889,216.8898h-17.1111v-6.8452
										h-10.2672v6.844h-3.422v-10.2671h17.1111v6.8452h10.2671v-3.422h-6.8445v-3.4232h10.2665V216.8898z M299.3553,216.8898
										h-3.422v-3.4232h3.422V216.8898z M333.5775,203.2007h-44.4888v-3.4232h44.4888V203.2007z"/>
								</g>
							</g>
						</g>
					</g>
					<g>
						<g id="tb1_00000057861321099383972210000017540177891775797928_">
							<g id="tbp1_00000096056498168486871610000011774065086397233039_">
								<path class="st2" d="M422.5563,39.4223H405.444v-6.8446h-10.266v3.4226h6.844v3.422h-10.2671V29.1558h13.6891v-6.8446
									h3.4232v13.6891h3.4208V22.3112h3.4232v13.6891h3.422V22.3112h3.4232V39.4223z M388.334,39.4223h-17.1123v-6.8446h-10.266
									v6.8446h-3.4232V29.1558h17.1123v6.8446h10.2659v-3.4226h-6.844v-3.422h10.2672V39.4223z M367.7998,39.4223h-3.422v-3.422
									h3.422V39.4223z M402.022,25.7332h-44.4882v-3.422h44.4882V25.7332z"/>
							</g>
							<g id="tbp2_00000041991432454362017780000016909884808642674340_">
								<path class="st2" d="M422.5551,49.6889h-30.799v-6.844h30.799V49.6889z M388.3329,49.6889h-30.799v-6.844h30.799V49.6889z"
									/>
							</g>
							<g>
								<g id="tbp2_00000095306632749705663290000006163785720773127094_">
									<path class="st2" d="M422.5551,196.3555h-30.799v-6.844h30.799V196.3555z M388.3329,196.3555h-30.799v-6.844h30.799
										V196.3555z"/>
								</g>
							</g>
							<g>
								<g id="tbp1_00000092427365412697660210000016257738553994480295_">
									<path class="st2" d="M422.5563,216.8898H405.444v-6.8452h-10.266v3.422h6.844v3.4232h-10.2671v-10.2683h13.6891v-6.844
										h3.4232v13.6891h3.4208v-13.6891h3.4232v13.6891h3.422v-13.6891h3.4232V216.8898z M388.334,216.8898h-17.1123v-6.8452
										h-10.266v6.844h-3.4232v-10.2671h17.1123v6.8452h10.2659v-3.422h-6.844v-3.4232h10.2672V216.8898z M367.7998,216.8898
										h-3.422v-3.4232h3.422V216.8898z M402.022,203.2007h-44.4882v-3.4232h44.4882V203.2007z"/>
								</g>
							</g>
						</g>
					</g>
				</g>
			</g>
			<g>
				<g id="tb4_00000125571692932502253230000008699276363821775237_">
					<g id="tb1_00000052812381457027200290000003623613345730151813_">
						<g id="tbp1_00000086687576085459501200000010900794316972514992_">
							<path class="st2" d="M491.0007,39.4223h-17.1123v-6.8446h-10.2659v3.4226h6.844v3.422h-10.2672V29.1558h13.6891v-6.8446
								h3.4232v13.6891h3.4208V22.3112h3.4232v13.6891h3.422V22.3112h3.4232V39.4223z M456.7785,39.4223h-17.1123v-6.8446h-10.266
								v6.8446h-3.4232V29.1558h17.1123v6.8446h10.266v-3.4226h-6.844v-3.422h10.2672V39.4223z M436.2442,39.4223h-3.422v-3.422
								h3.422V39.4223z M470.4664,25.7332h-44.4882v-3.422h44.4882V25.7332z"/>
						</g>
						<g id="tbp2_00000140725742205581602420000016082959521073791142_">
							<path class="st2" d="M490.9995,49.6889h-30.799v-6.844h30.799V49.6889z M456.7773,49.6889h-30.7991v-6.844h30.7991V49.6889z"
								/>
						</g>
						<g>
							<g id="tbp2_00000150780750565225086000000003268079798053015220_">
								<path class="st2" d="M490.9995,196.3555h-30.799v-6.844h30.799V196.3555z M456.7773,196.3555h-30.7991v-6.844h30.7991
									V196.3555z"/>
							</g>
						</g>
						<g>
							<g id="tbp1_00000176010818750920532720000009868893106610688185_">
								<path class="st2" d="M491.0007,216.8898h-17.1123v-6.8452h-10.2659v3.422h6.844v3.4232h-10.2672v-10.2683h13.6891v-6.844
									h3.4232v13.6891h3.4208v-13.6891h3.4232v13.6891h3.422v-13.6891h3.4232V216.8898z M456.7785,216.8898h-17.1123v-6.8452
									h-10.266v6.844h-3.4232v-10.2671h17.1123v6.8452h10.266v-3.422h-6.844v-3.4232h10.2672V216.8898z M436.2442,216.8898h-3.422
									v-3.4232h3.422V216.8898z M470.4664,203.2007h-44.4882v-3.4232h44.4882V203.2007z"/>
							</g>
						</g>
					</g>
					<g id="tb3_00000121274178700735887720000001437204736850405299_">
						<g>
							<g id="tb1_00000013900649509234581980000002221194582687711881_">
								<g id="tbp1_00000043452786371286919450000005118502139935735686_">
									<path class="st2" d="M559.4452,39.4223h-17.1123v-6.8446h-10.266v3.4226h6.844v3.422h-10.2672V29.1558h13.6891v-6.8446
										h3.4232v13.6891h3.4208V22.3112H552.6v13.6891h3.422V22.3112h3.4232V39.4223z M525.223,39.4223h-17.1123v-6.8446h-10.2659
										v6.8446h-3.4232V29.1558h17.1123v6.8446h10.2659v-3.4226h-6.8439v-3.422h10.2672V39.4223z M504.6887,39.4223h-3.422v-3.422
										h3.422V39.4223z M538.9109,25.7332h-44.4882v-3.422h44.4882V25.7332z"/>
								</g>
								<g id="tbp2_00000016790657837290723540000014087150791747516036_">
									<path class="st2" d="M559.444,49.6889h-30.7991v-6.844h30.7991V49.6889z M525.2217,49.6889h-30.799v-6.844h30.799V49.6889z
										"/>
								</g>
								<g>
									<g id="tbp2_00000049901727303630616440000016034465768210952612_">
										<path class="st2" d="M559.444,196.3555h-30.7991v-6.844h30.7991V196.3555z M525.2217,196.3555h-30.799v-6.844h30.799
											V196.3555z"/>
									</g>
								</g>
								<g>
									<g id="tbp1_00000008828244781191563400000017352382491090901130_">
										<path class="st2" d="M559.4452,216.8898h-17.1123v-6.8452h-10.266v3.422h6.844v3.4232h-10.2672v-10.2683h13.6891v-6.844
											h3.4232v13.6891h3.4208v-13.6891H552.6v13.6891h3.422v-13.6891h3.4232V216.8898z M525.223,216.8898h-17.1123v-6.8452
											h-10.2659v6.844h-3.4232v-10.2671h17.1123v6.8452h10.2659v-3.422h-6.8439v-3.4232h10.2672V216.8898z M504.6887,216.8898
											h-3.422v-3.4232h3.422V216.8898z M538.9109,203.2007h-44.4882v-3.4232h44.4882V203.2007z"/>
									</g>
								</g>
							</g>
						</g>
						<g>
							<g id="tb1_00000154404418521797909540000015068823735829954740_">
								<g id="tbp1_00000038372955163417563370000010469911561617121952_">
									<path class="st2" d="M627.8896,39.4223h-17.1123v-6.8446h-10.2659v3.4226h6.844v3.422h-10.2672V29.1558h13.6891v-6.8446
										h3.4232v13.6891h3.4208V22.3112h3.4232v13.6891h3.422V22.3112h3.4232V39.4223z M593.6674,39.4223h-17.1123v-6.8446
										h-10.2659v6.8446h-3.4232V29.1558h17.1123v6.8446h10.2659v-3.4226h-6.8439v-3.422h10.2671V39.4223z M573.1331,39.4223
										h-3.422v-3.422h3.422V39.4223z M607.3553,25.7332h-44.4882v-3.422h44.4882V25.7332z"/>
								</g>
								<g id="tbp2_00000121243953781665267270000000738046109077008776_">
									<path class="st2" d="M627.8884,49.6889h-30.7991v-6.844h30.7991V49.6889z M593.6662,49.6889h-30.7991v-6.844h30.7991
										V49.6889z"/>
								</g>
								<g>
									<g id="tbp2_00000053520712416832667720000017549338378873551254_">
										<path class="st2" d="M627.8884,196.3555h-30.7991v-6.844h30.7991V196.3555z M593.6662,196.3555h-30.7991v-6.844h30.7991
											V196.3555z"/>
									</g>
								</g>
								<g>
									<g id="tbp1_00000109732022926627834660000017709395460808842898_">
										<path class="st2" d="M627.8896,216.8898h-17.1123v-6.8452h-10.2659v3.422h6.844v3.4232h-10.2672v-10.2683h13.6891v-6.844
											h3.4232v13.6891h3.4208v-13.6891h3.4232v13.6891h3.422v-13.6891h3.4232V216.8898z M593.6674,216.8898h-17.1123v-6.8452
											h-10.2659v6.844h-3.4232v-10.2671h17.1123v6.8452h10.2659v-3.422h-6.8439v-3.4232h10.2671V216.8898z M573.1331,216.8898
											h-3.422v-3.4232h3.422V216.8898z M607.3553,203.2007h-44.4882v-3.4232h44.4882V203.2007z"/>
									</g>
								</g>
							</g>
						</g>
						<g>
							<g id="tb1_00000092449049608703707240000016000172062129751196_">
								<g id="tbp1_00000124122647708715045060000009644662325786667417_">
									<path class="st2" d="M696.334,39.4223h-17.1123v-6.8446h-10.2659v3.4226h6.8439v3.422h-10.2672V29.1558h13.6891v-6.8446
										h3.4232v13.6891h3.4208V22.3112h3.4232v13.6891h3.422V22.3112h3.4232V39.4223z M662.1118,39.4223h-17.1123v-6.8446
										h-10.2659v6.8446h-3.4232V29.1558h17.1123v6.8446h10.2659v-3.4226h-6.844v-3.422h10.2672V39.4223z M641.5775,39.4223
										h-3.4219v-3.422h3.4219V39.4223z M675.7997,25.7332h-44.4882v-3.422h44.4882V25.7332z"/>
								</g>
								<g id="tbp2_00000104665955358521236430000017657438343521491338_">
									<path class="st2" d="M696.3329,49.6889h-30.7991v-6.844h30.7991V49.6889z M662.1107,49.6889h-30.7991v-6.844h30.7991
										V49.6889z"/>
								</g>
								<g>
									<g id="tbp2_00000021077221842790130940000004965102390685263233_">
										<path class="st2" d="M696.3329,196.3555h-30.7991v-6.844h30.7991V196.3555z M662.1107,196.3555h-30.7991v-6.844h30.7991
											V196.3555z"/>
									</g>
								</g>
								<g>
									<g id="tbp1_00000142158189864296623590000006045814793318227878_">
										<path class="st2" d="M696.334,216.8898h-17.1123v-6.8452h-10.2659v3.422h6.8439v3.4232h-10.2672v-10.2683h13.6891v-6.844
											h3.4232v13.6891h3.4208v-13.6891h3.4232v13.6891h3.422v-13.6891h3.4232V216.8898z M662.1118,216.8898h-17.1123v-6.8452
											h-10.2659v6.844h-3.4232v-10.2671h17.1123v6.8452h10.2659v-3.422h-6.844v-3.4232h10.2672V216.8898z M641.5775,216.8898
											h-3.4219v-3.4232h3.4219V216.8898z M675.7997,203.2007h-44.4882v-3.4232h44.4882V203.2007z"/>
									</g>
								</g>
							</g>
						</g>
					</g>
				</g>
			</g>
		</g>
		<g transform="matrix(45,0,0,45,315,180)">
			<g id="emblem_half">
				<g>
					<path class="st1" d="M-0.3366,1.9111C0.2489,2.1014,0.8778,1.7809,1.068,1.1954C1.2069,0.768,1.0755,0.2991,0.7349,0.006
						c0.378,0.5593,0.231,1.3191-0.3283,1.697C0.1878,1.8508-0.0729,1.9238-0.3366,1.9111"/>
				</g>
				<g>
					<path class="st1" d="M1.0891,1.6973c0.4465-0.258,0.5992-0.8291,0.3412-1.2756C1.3037,0.2028,1.0939,0.0446,0.8487-0.0168
						C1.3882,0.3888,1.4968,1.155,1.0911,1.6946C1.0905,1.6955,1.0898,1.6964,1.0891,1.6973"/>
				</g>
				<g>
					<path class="st1" d="M0.3333,2.1111L0.2722,0.8889l0.0611-0.9622c0.0371,0.0519,0.0867,0.0935,0.1443,0.1211v0.7184
						l-0.0492,1.214L0.3333,2.1111z"/>
				</g>
				<g>
					<path class="st1" d="M0.3089-0.15l0.0244,0.023c0.056,0.0797,0.1661,0.0988,0.2457,0.0428
						c0.0668-0.047,0.0926-0.1337,0.0624-0.2096c-0.0171,0.0905-0.1043,0.15-0.1948,0.1329C0.399-0.17,0.3576-0.1993,0.3333-0.2412"
						/>
				</g>
			</g>
			<g transform="scale(-1,1)">
				<g id="emblem_half_00000052063026310473788800000002741165550987333038_">
					<g>
						<path class="st1" d="M1.0033,1.9111C0.4178,2.1014-0.2111,1.7809-0.4013,1.1954C-0.5402,0.768-0.4089,0.2991-0.0682,0.006
							c-0.378,0.5593-0.231,1.3191,0.3283,1.697C0.4788,1.8508,0.7396,1.9238,1.0033,1.9111"/>
					</g>
					<g>
						<path class="st1" d="M-0.4224,1.6973c-0.4465-0.258-0.5992-0.8291-0.3412-1.2756c0.1265-0.2189,0.3363-0.3771,0.5816-0.4385
							C-0.7216,0.3888-0.8301,1.155-0.4245,1.6946C-0.4238,1.6955-0.4231,1.6964-0.4224,1.6973"/>
					</g>
					<g>
						<path class="st1" d="M0.3333,2.1111l0.0611-1.2222L0.3333-0.0733C0.2962-0.0215,0.2466,0.0202,0.1891,0.0478v0.7184
							l0.0492,1.214L0.3333,2.1111z"/>
					</g>
					<g>
						<path class="st1" d="M0.3578-0.15L0.3333-0.127c-0.056,0.0797-0.1661,0.0988-0.2457,0.0428
							C0.0208-0.1313-0.005-0.218,0.0252-0.2939C0.0423-0.2034,0.1295-0.1439,0.22-0.161C0.2676-0.17,0.309-0.1993,0.3333-0.2412"/>
					</g>
				</g>
			</g>
		</g>
	</g>
</g>
</svg>
