<?xml version="1.0" encoding="utf-8"?>
<!-- Generator: Adobe Illustrator 27.7.0, SVG Export Plug-In . SVG Version: 6.00 Build 0)  -->
<!DOCTYPE svg PUBLIC "-//W3C//DTD SVG 1.1//EN" "http://www.w3.org/Graphics/SVG/1.1/DTD/svg11.dtd" [
	<!ENTITY ns_extend "http://ns.adobe.com/Extensibility/1.0/">
	<!ENTITY ns_ai "http://ns.adobe.com/AdobeIllustrator/10.0/">
	<!ENTITY ns_graphs "http://ns.adobe.com/Graphs/1.0/">
	<!ENTITY ns_vars "http://ns.adobe.com/Variables/1.0/">
	<!ENTITY ns_imrep "http://ns.adobe.com/ImageReplacement/1.0/">
	<!ENTITY ns_sfw "http://ns.adobe.com/SaveForWeb/1.0/">
	<!ENTITY ns_custom "http://ns.adobe.com/GenericCustomNamespace/1.0/">
	<!ENTITY ns_adobe_xpath "http://ns.adobe.com/XPath/1.0/">
]>
<svg version="1.1" id="Layer_1" xmlns:x="&ns_extend;" xmlns:i="&ns_ai;" xmlns:graph="&ns_graphs;"
	 xmlns="http://www.w3.org/2000/svg" xmlns:xlink="http://www.w3.org/1999/xlink" x="0px" y="0px" width="660px" height="440px"
	 viewBox="0 0 660 440" style="enable-background:new 0 0 660 440;" xml:space="preserve">
<style type="text/css">
	.st0{fill:#CE1126;}
	.st1{fill:#FFFFFF;}
	.st2{fill:#007A3D;}
</style>
<metadata>
	<sfw  xmlns="&ns_sfw;">
		<slices></slices>
		<sliceSourceBounds  bottomLeftOrigin="true" height="440" width="660" x="-325.5" y="-217"></sliceSourceBounds>
	</sfw>
</metadata>
<g>
	<path class="st0" d="M0,0h660v440H0V0z"/>
	<path class="st1" d="M0,146.6667h660V440H0V146.6667z"/>
	<path d="M0,293.3333h660V440H0V293.3333z"/>
	<g transform="translate(-1.009 -.584) scale(2.18978)">
		<path class="st2" d="M180.5419,88.2017c-0.4092-0.2163-0.8697-0.5632-1.023-0.7729c-0.2303-0.3212-0.0968-0.3344,0.8529-0.0763
			c1.6999,0.4613,2.7969,0.2809,3.8852-0.6402l0.9592-0.8089l1.1293,0.5749c0.6219,0.3139,1.2819,0.5317,1.4725,0.4811
			c0.4892-0.1291,1.5033-1.43,1.4703-1.8803c-0.0396-0.5566,0.4305-0.4165,0.6571,0.1936c0.451,1.1961-0.2061,2.5681-1.3677,2.8732
			c-0.5669,0.1474-1.0912,0.0931-1.9499-0.2061c-1.0545-0.3681-1.2349-0.3623-1.7637,0.0425
			C183.6777,88.891,182.0269,88.9761,180.5419,88.2017L180.5419,88.2017z M184.7469,84.3575
			c-0.4129-0.5258-0.9086-2.5109-0.7487-2.9979c0.1408-0.4224,0.2867-0.5067,0.6703-0.3865
			c0.6732,0.2105,0.8287,0.6747,0.7282,2.2469C185.3181,84.5013,185.1282,84.8379,184.7469,84.3575L184.7469,84.3575z
			 M135.2351,82.9305c-0.1357,0.9614,1.705,3.3499,2.5359,3.7825c-0.5647,0.253-1.2672,0.1379-1.7849,0.4224
			c-2.8952,2.8952-13.4691,13.2044-15.4,15.6684c5.7193,0.1129,12.0619-0.0777,17.4247-0.3227
			c-0.0051-3.8859,3.6799-4.0861,6.1461-5.5015c1.2687,1.9983,4.455,1.8451,4.8532,4.8525c0,3.6007,0.0066,9.0251,0.0066,12.9404
			h-48.8583c-0.8595,3.7957-4.2856,6.6917-9.0596,5.5c1.4769-1.5429,3.9637-2.0731,4.8539-4.2049
			c0.7509-4.6677-1.5004-7.5504-2.9561-10.1977c2.4083-0.8763,2.7735-1.0956,5.2221-2.7405
			c-1.7189,5.2213,4.4667,4.6479,9.0589,4.5283c0.1547-1.7725,0.0653-3.8654-1.2951-4.1243
			c1.7571-0.638,2.0489-0.8565,4.8539-3.2355v7.0349c10.9164,0,22.6908-0.0814,33.8353-0.0814c0-2.2015,0.583-5.7376-1.1594-5.7376
			c-1.6639,0-0.0785,4.5269-1.3713,4.5269h-26.1287c0-0.9739-0.0249-3.0096-0.0249-4.4763
			c1.1073-1.1073,0.9761-1.0113,8.5419-8.5778C125.2831,92.2306,130.5909,87.4368,135.2351,82.9305L135.2351,82.9305z
			 M200.5458,82.7442c1.8238,0.9819,3.2685,2.3401,5.5015,2.9128c-0.2596,0.9247-1.0824,1.2899-1.298,2.2638v19.734
			c2.4948,0.55,3.0199-0.8639,4.2071-1.617c0.3241,3.1585,2.3364,6.2546,2.2645,8.734h-10.6766
			C200.5458,104.0981,200.5458,93.4215,200.5458,82.7442L200.5458,82.7442z M186.3103,93.313c0,0,3.8837-3.2787,3.8837-3.4049
			v17.2216l2.7969-0.0044c0-6.5611-0.0865-13.2161-0.0865-19.3145c1.1352-1.1359,3.3587-2.7801,3.9146-3.9292v30.844
			c-7.8804,0-22.5815,0.0088-24.5249,0.0088c-0.3615-6.4013-0.4231-13.0321,7.04-11.6057v-2.6129
			c-0.2281-0.4466-0.6365,0.1078-0.7319-0.473c1.1843-1.1858,1.5862-1.4879,4.7945-4.2915c0,3.3821,0.0587,11.3667,0.0587,11.3667
			c0.7847,0,2.3122,0.0029,2.8285,0.0029C186.2847,107.1224,186.3103,93.7544,186.3103,93.313L186.3103,93.313z M177.1048,106.9552
			c0.5251,0.7883,2.3129,0.7744,2.2293-0.5537C179.0327,105.3067,176.6824,105.7239,177.1048,106.9552z"/>
		<circle class="st2" cx="106.1093" cy="118.4084" r="1.4975"/>
		<path class="st2" d="M152.3255,82.7757c1.8245,0.9819,3.2685,2.3401,5.5015,2.9121c-0.2589,0.924-1.0824,1.2907-1.2965,2.2638
			v19.7347c2.4941,0.5493,3.0191-0.8653,4.2064-1.6177c0.3234,3.1592,2.3357,6.2539,2.2645,8.734H152.324
			C152.3255,104.1282,152.3255,93.4523,152.3255,82.7757L152.3255,82.7757z"/>
	</g>
</g>
</svg>
