<?xml version="1.0" encoding="utf-8"?>
<!-- Generator: Adobe Illustrator 27.7.0, SVG Export Plug-In . SVG Version: 6.00 Build 0)  -->
<!DOCTYPE svg PUBLIC "-//W3C//DTD SVG 1.1//EN" "http://www.w3.org/Graphics/SVG/1.1/DTD/svg11.dtd" [
	<!ENTITY ns_extend "http://ns.adobe.com/Extensibility/1.0/">
	<!ENTITY ns_ai "http://ns.adobe.com/AdobeIllustrator/10.0/">
	<!ENTITY ns_graphs "http://ns.adobe.com/Graphs/1.0/">
	<!ENTITY ns_vars "http://ns.adobe.com/Variables/1.0/">
	<!ENTITY ns_imrep "http://ns.adobe.com/ImageReplacement/1.0/">
	<!ENTITY ns_sfw "http://ns.adobe.com/SaveForWeb/1.0/">
	<!ENTITY ns_custom "http://ns.adobe.com/GenericCustomNamespace/1.0/">
	<!ENTITY ns_adobe_xpath "http://ns.adobe.com/XPath/1.0/">
]>
<svg version="1.1" id="Layer_1" xmlns:x="&ns_extend;" xmlns:i="&ns_ai;" xmlns:graph="&ns_graphs;"
	 xmlns="http://www.w3.org/2000/svg" xmlns:xlink="http://www.w3.org/1999/xlink" x="0px" y="0px" width="660px" height="440px"
	 viewBox="0 0 660 440" style="enable-background:new 0 0 660 440;" xml:space="preserve">
<style type="text/css">
	.st0{fill:#ED1C24;}
	.st1{fill:#FFFFFF;}
	.st2{fill:#00A651;}
</style>
<metadata>
	<sfw  xmlns="&ns_sfw;">
		<slices></slices>
		<sliceSourceBounds  bottomLeftOrigin="true" height="440" width="660" x="-325.5" y="-217"></sliceSourceBounds>
	</sfw>
</metadata>
<g>
	<rect class="st0" width="660" height="440"/>
	<rect y="110" class="st1" width="660" height="220"/>
	<path class="st2" d="M326.9987,110c-4.7223,9.9437-13.6154,16.8941-22.1154,23.471c-1.3983,1.2213-4.8751,3.5866-2.3529,5.3866
		c2.1609-2.415,8.0916,0.7831,4.6447,3.3799c-3.0876,2.89-7.3389,3.9482-10.767,6.3328c-3.0362,1.6495-6.1156,3.3721-8.5233,5.8971
		c-0.164,3.9445,4.8942,1.761,6.9469,3.4043c2.673,2.8578-1.1334,7.6751-4.6414,6.5733c-4.4855,0.1375-7.5833,4.0841-9.2795,7.8494
		c-3.5087,5.4256-10.1573,7.0323-15.4505,10.1199c-3.0287,1.7655-5.9673,3.7189-8.7867,5.779
		c-3.6351,2.4854-0.4726,7.4063,3.3952,6.1984c4.1752-0.4163,7.9316-3.6967,12.2541-2.7514
		c3.9201,1.3773,5.0204,6.5005,3.6843,10.0775c-0.9892,2.8639-3.387,4.8811-5.3083,7.1182
		c-3.1187,3.1596-7.1974,5.2108-11.4981,6.1889c-4.1565,1.3956-7.8923,3.9419-10.6187,7.3794
		c-3.1644,3.1856-6.3162,6.4227-9.9532,9.079c-1.1489,2.9316,2.0934,5.4287,4.7966,5.3509
		c5.6956-0.3587,9.6431-5.0203,14.4939-7.4158c4.0254-1.8092,8.7629,2.5294,7.7781,6.7231
		c-0.3115,4.0799-4.1314,6.1502-7.5278,7.4055c-9.9844,5.0193-18.6534,12.2977-26.3507,20.3285
		c-1.592,3.2473-5.9686,2.2914-8.3252,4.5551c-1.5353,2.8647,2.3177,4.3752,4.6163,4.0807
		c9.878-1.1881,19.0954-5.3633,27.8274-9.9569c3.2473-1.5526,6.2965-3.5958,9.6725-4.8331c3.1711-0.7834,7.593,0.5951,8.1604,4.2043
		c-0.0045,3.8099-3.779,5.9202-6.7682,7.4085c-9.2182,4.8431-19.3347,7.5204-29.1873,10.7223
		c-3.6885-1.0312-6.4672,5.5311-2.4209,6.711c4.2787,1.4672,8.8273,0.2909,13.204,0.0986
		c13.5332-2.0734,25.3691-9.3964,38.0194-14.1301c5.2592-1.7143,11.467,0.678,14.0624,5.606
		c2.6076,4.3925,2.3693,10.1689-0.3814,14.4366c-4.347,9.3003-10.9559,17.8479-19.8279,23.1953
		c-5.569,2.7571-12.0694,3.8119-16.8423,8.033c-4.4142,1.455,2.2129,7.4199,3.1709,2.6857
		c2.6525-3.6177,7.3308-4.699,11.5744-4.8484c6.3776-0.6943,13.1503-1.8706,18.1058-6.2857
		c4.4426-3.4499,8.8205-8.209,14.8531-8.2833c3.3339,0.3954,6.6313,3.0742,10.0175,1.4396
		c2.9621-1.3558,7.6096-0.5613,8.3833,3.0812c1.4145,4.2611,5.8065,6.1998,9.2895,8.4801c1.2607,1.7703,5.4498,6.3362,6.4159,2.3107
		c-0.7795-2.8711,0.3343-7.2645,4.1006-6.3051c3.2898,0.1469,6.4248,1.3599,9.7083,1.5589c4.3727,0.9057,8.02,3.8992,10.5029,7.5136
		c1.708,2.3588,5.4495,6.4116,8.2293,3.2839c1.725-3.2347-1.5678-5.9325-4.2484-7.0876c-3.909-2.4224-7.251-5.6483-10.6688-8.7028
		c-5.0374-4.7046-9.3882-10.6884-10.1878-17.7166c-1.0839-7.0077-0.5135-14.1552,0.401-21.1438
		c1.151-4.4994,6.9045-6.9558,10.9277-4.5652c5.6608,2.5829,11.2826,6.2788,17.7725,5.8781
		c9.3779,0.2021,19.0145-1.5935,28.1794,1.124c8.9183,2.8093,15.2946,10.3355,23.982,13.5921
		c1.9448,1.1819,4.4327,0.0571,5.1454-2.0201c0.861-1.8665,0.2535-4.2547-1.545-5.3184
		c-10.0682-10.163-23.8282-15.1002-35.4776-23.0417c-3.6675-0.9314-4.3353-6.832-0.9449-8.5355
		c4.4577-3.2395,10.7645-1.7315,14.7192,1.6085c3.3397,1.9563,7.1022,3.4219,11.0205,3.4254
		c4.0136-1.2564,2.0678-7.0642-1.5258-7.501c-6.5113-3.6765-11.1747-9.7096-16.816-14.4906
		c-3.2479-2.75-6.8027-5.5343-11.1678-6.068c-2.3858-0.4345-4.8266-0.5295-7.244-0.3673c-2.2672-2.4639,0.7544-6.2365,3.6859-5.928
		c3.0082,0.2026,5.9992,0.4262,9.0034,0.0076c3.3574-0.246,6.7118-0.5935,10.0811-0.6165c2.7197,1.8521,8.1544-1.3473,5.6998-4.5406
		c-2.6813-2.3496-6.5588-2.1455-9.7631-3.3513c-5.629-1.8468-11.3576-3.3394-17.1578-4.51c-4.058-0.242-3.5574-5.5826,0.0092-6.1716
		c2.3341-0.8707,4.3629,0.9226,6.6035,1.2006c3.8266,0.8223,7.7774,0.8117,11.6021,1.6454c3.2429-1.6009,0.736-6.3387-2.1975-6.6147
		c-6.9216-2.475-12.9034-6.9422-18.7511-11.2877c-6.4563-4.8555-12.3138-10.4707-18.8493-15.2141
		c-2.3713-1.4695-6.2581-1.8927-6.8819-5.1494c-0.22-2.9959,3.3064-4.3604,5.8062-3.6599
		c3.5468,1.0474,6.8517,2.8713,10.4665,3.7668c2.8361,0.482,5.7603,1.3212,8.4938,0.9638c3.47-2.1802-1.4883-3.5737-3.2829-4.3302
		c-4.6265-2.4952-8.7373-5.8197-12.9009-8.9899c-3.5185-3.0033,2.9843-4.3302,5.2212-3.1738
		c3.7399,1.5646,4.1661-3.8851,1.3705-5.2565c-3.294-1.4006-6.1266-3.7257-9.1134-5.7534
		c-5.3966-3.8416-11.5089-6.8826-18.143-7.7273c-7.4378-0.7474-14.3803-5.0246-18.3262-11.3853
		C330.5304,118.0072,328.7346,113.9986,326.9987,110z M302.5722,151.7276c3.8336,0.1137,3.2442,7.0226-0.53,6.5616
		C298.377,158.0534,298.6014,150.9854,302.5722,151.7276z M338.7317,155.4482c3.7303-0.6673,4.5202,6.1398,0.7933,6.4594
		C335.6419,162.6027,334.2027,155.0174,338.7317,155.4482z M328.1408,156.3354c3.7817,0.744,3.109,7.3319-0.7075,7.3895
		c-2.7923,0.6217-5.8018,2.5275-8.6268,1.0992c-2.2973-2.4297,1.0231-6.0225,3.5875-6.8123
		C324.3609,157.6153,326.1705,156.7222,328.1408,156.3354z M352.5154,156.364c3.6443,1.3294,2.359,7.7628-1.485,7.6808
		c-3.6352,0.4871-5.328-5.577-1.9382-7.0153C350.1895,156.6405,351.3391,156.3126,352.5154,156.364z M311.3979,163.662
		c2.6798,2.5502,1.097,7.4716-2.2072,8.6483c-2.3817,1.3248-5.6287,4.4587-8.2229,1.8802
		c-1.4075-3.1496,2.1255-5.5213,4.2036-7.2695C307.0261,165.4788,309.0728,164.1698,311.3979,163.662z M342.0023,177.8861
		c3.8367,1.8116,1.8891,8.7259-2.3218,8.2961c-3.4584-0.8763-3.0069-6.8079,0.4767-7.281
		C340.8157,178.6491,341.4197,178.2782,342.0023,177.8861z M329.8281,178.5729c3.5883,1.68,0.8485,7.6681-2.7657,6.8052
		c-3.7473-0.4401-3.6783-7.0284,0.4544-6.4336C328.2955,178.9059,329.0996,178.8861,329.8281,178.5729z M356.0716,182.0073
		c3.9329-1.2204,8.6678,2.8315,7.3914,6.9403c-1.7518,3.1854-6.0866,3.5887-9.1915,2.3982
		c-3.5652-0.176-5.9633-5.5358-2.7871-7.8053C352.7986,182.5478,354.4554,182.1399,356.0716,182.0073z M297.9777,183.0376
		c3.2519-1.7692,6.7046,3.5482,3.939,5.8936c-1.8318,2.6932-6.5358,3.7935-8.6099,0.7985
		C291.5836,186.8045,294.3697,181.89,297.9777,183.0376z M282.974,185.5561c3.6888,0.5047,6.0924,3.8552,7.4557,7.0455
		c0.3328,3.8879-5.404,6.0212-7.9066,3.1925c-2.8141-1.7654-5.2774-5.3962-3.8021-8.7658
		C279.63,185.6902,281.4408,185.1382,282.974,185.5561z M372.7366,199.6084c4.0034-1.055,6.91,5.343,3.4724,7.6575
		c-3.1431,2.8549-9.2545-0.9273-7.6153-5.0007C369.4083,200.7551,371.0379,199.7514,372.7366,199.6084z M321.7811,206.9065
		c3.3568,0.4275,2.2693,6.2455-0.8347,6.0502C317.6152,212.3392,318.3779,206.5784,321.7811,206.9065z M304.7527,209.9974
		c2.738-1.9373,6.2692,2.7911,3.9917,4.9944C306.0147,216.9143,302.4739,212.261,304.7527,209.9974z M331.8269,210.5698
		c3.1736,1.9283,5.0577,5.5238,5.4522,9.152c-1.5209,3.3897-7.3947,2.5726-8.0569-1.0371
		C328.0608,215.8299,329.1312,212.1571,331.8269,210.5698z M341.2756,216.1793c4.0897-1.0273,2.6221,7.521-0.7927,4.5559
		C339.3481,219.3876,339.9559,217.1703,341.2756,216.1793z M281.9357,222.1322c2.7081-0.7932,6.6556,0.0405,7.4031,3.1486
		c0.3158,2.921-2.8963,4.4406-5.25,5.1645c-3.7724,1.164-7.4619,3.0751-11.5186,2.8183c-3.0407-1.7379-4.1321-5.2944-5.2162-8.3962
		c2.9346-2.7514,7.2557-1.9443,10.8935-2.6329C279.4758,222.1714,280.7057,222.1414,281.9357,222.1322z M373.9826,235.5262
		c3.4545-1.6936,7.1694,3.7896,4.2778,6.3508c-3.6176,4.1637-10.5823,4.9374-14.9078,1.4395
		c-0.52-3.6848,3.1607-6.361,6.4302-6.8898C371.1581,236.0382,372.525,235.4577,373.9826,235.5262z M393.3991,239.7333
		c3.925-0.6755,7.0168,4.9238,4.2137,7.8218c-2.6528,4-8.9789,5.049-12.5959,1.7702c-1.4102-3.3162,1.4505-6.7715,4.4952-7.8354
		C390.8206,240.9329,392.0597,240.2191,393.3991,239.7333z M295.7713,245.6862c3.6349-0.3587,6.9649,3.2478,6.4879,6.8314
		c2.6314,2.5894-2.0283,7.4136-4.6499,4.7321c-2.3102-2.7992-2.298-6.5968-3.1929-9.9469
		C294.3763,246.5588,294.9272,245.5949,295.7713,245.6862z M323.6761,247.7755c3.7579-1.6247,8.6197,2.871,6.5738,6.677
		c-1.4611,3.0999-7.1593,2.0609-6.9699-1.5297C323.2701,251.2051,323.1315,249.4435,323.6761,247.7755z M310.1,250.2081
		c3.7681-0.8639,7.2253,4.0208,5.1313,7.2801C311.4746,257.8222,309.5243,253.3637,310.1,250.2081z"/>
</g>
</svg>
