<?xml version="1.0" encoding="utf-8"?>
<!-- Generator: Adobe Illustrator 27.7.0, SVG Export Plug-In . SVG Version: 6.00 Build 0)  -->
<!DOCTYPE svg PUBLIC "-//W3C//DTD SVG 1.1//EN" "http://www.w3.org/Graphics/SVG/1.1/DTD/svg11.dtd" [
	<!ENTITY ns_extend "http://ns.adobe.com/Extensibility/1.0/">
	<!ENTITY ns_ai "http://ns.adobe.com/AdobeIllustrator/10.0/">
	<!ENTITY ns_graphs "http://ns.adobe.com/Graphs/1.0/">
	<!ENTITY ns_vars "http://ns.adobe.com/Variables/1.0/">
	<!ENTITY ns_imrep "http://ns.adobe.com/ImageReplacement/1.0/">
	<!ENTITY ns_sfw "http://ns.adobe.com/SaveForWeb/1.0/">
	<!ENTITY ns_custom "http://ns.adobe.com/GenericCustomNamespace/1.0/">
	<!ENTITY ns_adobe_xpath "http://ns.adobe.com/XPath/1.0/">
]>
<svg version="1.1" id="Layer_1" xmlns:x="&ns_extend;" xmlns:i="&ns_ai;" xmlns:graph="&ns_graphs;"
	 xmlns="http://www.w3.org/2000/svg" xmlns:xlink="http://www.w3.org/1999/xlink" x="0px" y="0px" width="660px" height="440px"
	 viewBox="0 0 660 440" style="enable-background:new 0 0 660 440;" xml:space="preserve">
<style type="text/css">
	.st0{fill:#006C35;}
	.st1{fill:#FFFFFF;}
</style>
<metadata>
	<sfw  xmlns="&ns_sfw;">
		<slices></slices>
		<sliceSourceBounds  bottomLeftOrigin="true" height="440" width="660" x="-325.5" y="-217"></sliceSourceBounds>
	</sfw>
</metadata>
<g>
	<path class="st0" d="M660,440V0H0v440H660z"/>
	<path class="st1" d="M467.0681,117.7557c3.74-2.6657,7.2189-5.6555,11.3813-7.7557c-1.1895,4.7667-4.7564,8.4018-8.4084,11.4723
		c-1.8685,1.4542-1.0193,4.1199-1.2745,6.1395c-1.0005-0.2317-1.9919-0.5007-2.9722-0.8067
		c0.9343,12.1183,2.2932,24.156,2.8879,36.2743c0.0843,1.3735,0.1694,2.8277,1.3589,3.7165
		c5.6049,5.0087,11.3806,9.9367,15.4572,16.3189c1.6133,2.5051,2.4633,5.3321,3.3125,8.1598
		c0.9057-4.7132,1.0491-9.5413,0.4246-14.3c-2.0377-18.4199-3.8779-36.8938-5.5206-55.4217
		c-0.1694-2.2623-0.5097-4.6053-0.2545-6.8669c0.2879-2.1953,2.2039-3.8078,4.4161-3.7165c1.1657,1.104,2.0661,2.458,2.6334,3.96
		c1.6984,3.7972,3.2267,7.92,2.8021,12.199c-1.0186-0.3227-2.0379-0.7267-3.1423-1.1308c1.529,12.5224,3.058,25.0448,3.9922,37.6479
		c0.4246,8.4832,1.6984,17.0463-0.0851,25.4467c-1.529,7.7557-5.3533,15.5921-12.1455,20.0354
		c-5.6907,3.7165-12.3149,5.8168-18.9398,7.1903c-2.6732,0.6725-5.468,0.7002-8.1539,0.0807
		c2.8028-1.5349,5.9458-2.6657,8.9181-3.96c4.3192-1.777,8.4694-3.9401,12.3999-6.4629c3.6527-2.4237,7.4742-4.8473,10.1934-8.4025
		c-3.3976-9.0479-9.0031-17.5311-16.9869-23.1059c0.2552,8.8873,0.6798,17.9359-0.6791,26.7417
		c-0.2452,2.0487-1.1728,3.9553-2.6334,5.4127c-0.9342-3.7165-1.0186-7.5944-1.4439-11.3916
		c-0.7634-8.2602-1.4428-16.528-2.0379-24.8021c0-1.6962-1.1044-2.9891-2.3782-3.96c-5.0109-4.2013-9.68-8.8873-14.52-13.2499
		c0.1701,5.0901,0.9343,10.0987,1.2745,15.1067c0.594,6.7863,0.6791,13.5725,1.3589,20.3588
		c0.4246,4.7667,0.5089,9.7753-1.2745,14.3c-1.7834,4.2819-5.775,7.92-10.5314,8.2412c-2.5266,0.1902-5.0672,0.0544-7.5592-0.4041
		c-2.6327-0.4041-4.6713-2.42-5.8601-4.686c-1.4439-2.7471-2.2081-5.8168-3.3975-8.6445c-2.2081,0.4847-4.5012,0.9695-6.1153,2.6664
		c-3.3968,3.2311-4.4161,8.1598-6.0302,12.3604c-0.9343,2.5043-2.0379,5.2514-4.5012,6.6249
		c-2.5476,1.4542-5.6907,0.8888-8.1532-0.4847c-3.74-2.0196-6.0302-5.8975-7.1346-9.856c-1.1044-3.0705,0.4246-6.6249-1.4439-9.5333
		c-1.3589-2.6664-0.5947-5.8168,0.0851-8.5639c1.4439-4.928,4.5012-9.1293,8.1532-12.6867l-14.52-12.6031
		c0.4246,11.6336,1.3589,23.2672-0.1701,34.8201c-0.1849,2.3358-1.1757,4.5348-2.8028,6.2209
		c-0.5112-2.2058-0.852-4.4476-1.0193-6.7056c-1.1885-12.7649-2.2076-25.5295-3.0573-38.2939
		c-0.0851-1.4549-0.3395-3.0705-1.529-4.0399c-4.9718-4.7179-9.6785-9.7076-14.0983-14.9461
		c-2.5483-3.2311-5.181-6.5435-6.5399-10.4214c-0.5097-1.6133-0.9343-3.8779,0.594-5.0901c1.7438,0.2598,3.4185,0.864,4.9265,1.7776
		c2.8582,1.664,5.4612,3.7318,7.7286,6.1395c0.9426,1.0932,1.6122,2.3947,1.9536,3.7972c-1.4439,0-2.8028-0.0807-4.2467-0.0807
		c2.8834,4.1551,6.3119,7.9042,10.1933,11.1467c-0.3395-10.8255-1.529-21.7323-2.0387-32.56c0-1.4542,0-3.0697,1.0193-4.2819
		c0.9342-1.0501,2.3782-1.4542,3.652-1.9389c2.3726,3.4877,4.0988,7.3736,5.0959,11.4723c0.3412,1.6466,0.4272,3.3359,0.2552,5.0087
		c-1.0193-0.242-2.0387-0.5654-2.973-0.8888c0.6798,8.8059,1.6133,17.5318,2.2088,26.3377
		c0.0439,1.2526,0.2144,2.4975,0.5089,3.7158c0.5417,0.7947,1.2003,1.503,1.9536,2.101
		c6.0302,5.0893,12.0604,10.1794,18.1757,15.1067c3.652-3.1533,7.2189-6.38,10.8717-9.4519
		c0.8502-0.6617,1.6453-1.3914,2.3775-2.1817c0.6798-0.7267,0.4254-1.7776,0.4254-2.6657
		c-1.1895-10.5835-2.0387-21.1669-2.973-31.7533c-0.2552-3.8779-0.8492-7.6751-0.8492-11.4723
		c-0.0851-2.2623,1.6984-4.5239,3.9915-4.6046c1.0193-0.0814,1.4439,1.0501,1.9536,1.6962c1.714,3.0027,2.9743,6.2424,3.74,9.614
		c0.3534,1.6543,0.3243,3.3674-0.0851,5.0087c-0.9343-0.4041-1.9536-0.8888-2.8879-1.2921
		c1.2745,9.9367,2.2932,19.8733,3.2267,29.8107c2.6334-1.9389,5.0116-4.2005,7.4742-6.3015
		c2.7177-2.343,5.6056-4.6046,8.2383-7.1089c-3.1423-3.3931-6.4533-6.5443-9.68-9.8567c-2.0379-2.1003-4.5012-4.1199-5.3533-7.1133
		c-0.6798-2.1003-0.2552-4.3626,0.1701-6.38c3.8214,0.6468,7.1339,2.9084,10.1934,5.1707c2.0693,1.6457,4.0269,3.4269,5.8601,5.3321
		c-0.1701-4.2013-0.6798-8.4018-1.0193-12.6031c0-1.6133-0.1701-3.3931,0.9342-4.686c0.9343-1.0501,2.3782-1.4542,3.567-2.0196
		c2.374,3.2989,4.0768,7.0322,5.0116,10.9875c0.4361,1.7415,0.5796,3.5434,0.4246,5.3321
		c-1.0193-0.2427-2.1267-0.4847-3.1431-0.7275c0.3403,3.2318,0.6798,6.38,1.1044,9.614c3.9915-2.9891,7.6443-6.38,11.6358-9.3713
		c1.3589-1.2929,3.8221-2.2623,3.8221-4.5247c0.0851-2.4237-0.4246-4.928-0.0851-7.3517c0.3216-2.1651,2.2295-3.7356,4.4161-3.6351
		c2.0387,1.9389,2.8028,4.3626,3.9072,6.4629L467.0681,117.7557z M446.3448,141.1036c-0.6798,0.7275-1.9536,1.3735-1.8685,2.5857
		c0.5097,1.0501,1.5283,1.8583,2.3782,2.7463c4.9258,4.444,9.5971,9.1293,14.7781,13.1692
		c-0.1701-4.7667-0.6798-9.4527-0.9343-14.2193c-0.4246-5.0087-0.5947-10.0181-1.1044-15.0267
		C455.0077,133.6713,450.846,137.5491,446.3448,141.1036z M433.8598,132.2977c1.1,1.2122,2.1267,2.4237,3.2267,3.6359
		c0-1.2122-0.0851-2.4237-0.0851-3.6359H433.8598z M421.9688,161.7858c-0.8492,0.7275-1.8685,1.5349-1.7834,2.7471
		c-0.0851,6.1402,0.5947,12.4417-0.9343,18.4199c-0.3395,1.5349-1.4439,2.585-2.5476,3.5545
		c-1.3596-5.8975-1.4439-11.9533-2.4633-17.9351c-3.652,2.9084-7.1346,6.0595-10.5314,9.2099
		c1.9529,2.1817,3.9065,4.5247,4.5863,7.5137c1.1602,4.2416-0.2294,8.772-3.5684,11.6336
		c-4.1617,3.4738-9.7673,4.0392-14.9475,4.686c0.7641,3.3931,1.4432,6.9476,3.4818,9.856c1.2738,1.6969,3.3125,3.3125,5.5206,2.6664
		c2.3782-0.6468,3.8221-2.9084,4.6713-5.0094c1.6109-4.3179,3.6595-8.4596,6.1138-12.3603
		c2.0387-3.2318,5.3533-5.8982,9.2576-5.9789c1.2738,0.0807,2.9729-0.3227,3.74,1.0501c1.6984,2.8277,2.2932,6.2209,4.4161,8.8873
		c3.5677,4.6853,11.1261,4.7667,15.3729,0.8888c1.4439-1.2929,1.4439-3.3931,1.2745-5.1707
		c-1.9536-16.0769-3.3975-32.3158-5.0967-48.3927C432.8404,152.4952,427.4893,157.1812,421.9688,161.7858L421.9688,161.7858z
		 M391.9879,189.2543c-0.8904,1.295-1.5246,2.7485-1.8685,4.2819c3.8358,0.4116,7.703-0.4091,11.041-2.343
		c1.0193-0.6461,2.208-1.6962,1.9536-3.0697c-0.2552-2.7471-2.5483-4.686-4.5863-6.3015
		C396.1553,184.1231,393.9686,186.6083,391.9879,189.2543L391.9879,189.2543z M232.485,110.8888
		c1.0186-0.6468,1.9529,0.4847,2.6327,1.2115c2.0387,2.5051,4.2467,5.0094,5.4355,8.0791c-1.0193,0.1613-2.123,0.3234-3.1423,0.4847
		c0.2545,4.8473,4.3318,8.1598,5.5205,12.7644c0.8324,2.8362,0.9491,5.8344,0.3395,8.7267c-0.869,4.0124-4.039,7.1248-8.0667,7.92
		c-4.6713,0.8067-9.9374-0.3234-13.42-3.7972c-2.2932-2.2623-3.1431-5.4934-4.1617-8.4018
		c-1.1044,3.96-2.7185,7.7557-5.5213,10.8255c-1.6748,1.774-3.6611,3.2254-5.8601,4.2819
		c0.5947,10.8255,1.6984,21.6517,0.7641,32.3965c-0.3395,3.0697-0.5089,6.7056-3.3117,8.7267
		c-1.0193-4.2819-1.1895-8.7267-1.6991-13.1685c-0.9342-8.9679-1.6133-17.9351-2.5476-26.9031
		c-2.6334-0.6461-5.5205-1.2115-7.5592-3.1533c-3.3975-3.0705-4.5012-7.8371-4.2467-12.1997
		c0.0851-3.3931,1.1895-6.7056,1.9536-10.0173c-1.2839,1.277-2.27,2.8218-2.8879,4.5239
		c-1.7835,5.4127-2.9722,11.0682-5.4355,16.2389c-0.9072,2.0842-2.7245,3.6339-4.9258,4.2005
		c-2.7185,0.5654-5.9459,0.4041-8.0667-1.6962c-2.2931-2.2623-2.8028-5.6555-3.1423-8.7267
		c-0.1701-3.1533-0.4246-6.5443,1.0193-9.4527c0.8492-1.7776,2.6327-2.7471,4.1617-3.6351
		c-1.0193,1.6962-2.2088,3.3931-2.4633,5.3321c-0.3395,2.7463,0.1701,5.5733,0.6791,8.2405
		c0.3403,1.6133,0.6798,3.3931,1.9536,4.5239c2.0863,1.731,5.1286,1.6622,7.1346-0.1613c0.9242-1.1789,1.6158-2.5228,2.0379-3.96
		c1.6991-5.1707,3.058-10.5028,5.181-15.5122c1.8685-4.2005,5.181-8.3211,9.9374-9.2099
		c-0.5097,5.7361-3.1423,11.0682-3.3125,16.885c-0.0851,2.5857,0.1701,5.4135,1.8685,7.4331
		c1.2738,1.6962,3.3975,2.2616,5.3533,2.8277c-0.5089-7.8371-1.2738-15.6735-1.7835-23.5906
		c-0.1694-2.9084-0.6791-5.8975-0.1694-8.8059c0.4246-2.0203,2.6327-2.7471,4.3311-3.3931
		c3.2267,4.7667,5.6056,10.4214,5.5205,16.2382c-1.1-0.242-2.123-0.4847-3.2267-0.7267c0.6798,6.7056,1.3589,13.4933,2.1267,20.1967
		c2.8435-0.8344,5.3072-2.6342,6.9667-5.0893c3.3125-4.7667,3.8221-10.9875,2.2081-16.4809
		c-0.6798-2.343-1.7835-4.5247-2.2932-6.9483c-0.5133-2.2616,1.1044-4.6046,3.1423-5.3321
		c0.9343-0.4033,1.3589,0.7275,1.7835,1.3735c1.2745,2.7471,1.6991,5.8168,2.2932,8.8059c0.7649,3.96,0,8.0791,1.4439,11.8763
		c1.1132,3.3141,3.372,6.1224,6.3705,7.92c2.4987,1.326,5.3768,1.7539,8.1532,1.2122c1.3877-0.2951,2.4799-1.3656,2.8028-2.7471
		c0.6791-2.585-0.2545-5.2514-1.3589-7.5937c-2.5483-5.3328-5.6907-10.4221-6.8794-16.2389
		c-0.4246-2.1003,0.1694-5.0087,2.3782-6.3015L232.485,110.8888z"/>
	<path class="st1" d="M349.0967,117.1133c1.6779-2.7294,4.1326-4.8956,7.0496-6.2209c-0.8354,1.9275-1.8595,3.7676-3.0573,5.4934
		c-0.8499,1.2929-0.8499,2.9084-0.9343,4.3626c1.951-0.0917,3.8867-0.3897,5.775-0.8888c-0.5096,1.5356-1.0193,3.1533-2.4633,4.1206
		c-1.6133,1.1308-3.9915,1.8583-5.6899,0.4847C347.9968,122.4138,347.7233,119.4561,349.0967,117.1133z M243.7805,113.5545
		c0.8492-1.2921,2.4633-1.7769,3.74-2.3467c2.5424,3.4714,4.3357,7.4333,5.2661,11.6343c0.325,1.5969,0.3539,3.24,0.0851,4.8473
		c-0.9343-0.3234-1.9536-0.6468-2.8879-0.9695c1.1,7.8364,2.4633,15.5921,3.3975,23.4285
		c4.5012-2.1809,8.6629-4.8473,13.3342-6.7863c1.4575-0.6227,3.0064-1.0046,4.5862-1.1308
		c-0.5947,1.2921-1.2738,2.585-2.6327,3.1533c-4.9265,2.5043-9.9374,4.686-14.7789,7.4331
		c0.4253,3.8779,0.8499,7.8364,1.3596,11.7143c2.2081-2.8277,4.1617-6.38,7.983-7.271c0.1701,2.1003-0.5097,4.6046,1.0193,6.3015
		c2.3782,1.8583,5.6056,0.7267,7.8137-0.9695c-0.1694-3.0697,0.6798-6.0595,1.2745-9.0486c0.9343,0.4041,2.123,0.5654,2.4626,1.6969
		c1.0193,2.8277,0.7649,5.9781,0,8.8059c-0.7641,3.2318-3.3968,5.6555-6.2847,7.1097c-1.7835,0.8881-3.9923,1.3728-5.9451,0.5654
		c-2.0387-0.8067-3.3125-2.7471-4.6714-4.4433c-1.1895,2.9084-3.1431,5.5733-3.2267,8.8865
		c-0.44,6.9357-2.9555,13.5789-7.2197,19.0667c-7.2189,9.4527-18.26,15.1067-29.4712,18.4206
		c-6.4533,1.7769-13.1648,3.3931-19.9591,3.0697c-3.6989,0.0044-7.3329-0.9713-10.5321-2.8277
		c-1.3589-0.8888-2.5476-2.1003-3.9065-2.9084c-1.6984-0.3234-3.4826,0.1613-5.2661,0.1613
		c-4.2467,0.1621-8.4927,0.3234-12.6544-0.4033c5.0959-1.6969,10.2762-2.9898,15.2878-4.8481
		c-1.3713-9.1554,0.4267-18.5045,5.0959-26.4983c1.2762-2.052,2.8184-3.926,4.5863-5.5733
		c-1.4439,2.9084-3.2267,5.7361-3.9923,8.9679c-1.8004,6.7923-1.6826,13.9507,0.3403,20.68
		c3.4819-1.1308,6.8794-2.6657,10.1933-4.1199c7.7286-3.3931,15.2878-7.029,22.3366-11.7143
		c2.6334-1.8583,5.3533-3.7972,7.1346-6.6249c0.8492-1.3735,0.6798-2.9891,0.6798-4.5239
		c-3.6527,0.7267-7.2197,2.4237-11.0418,2.3423c-2.3775-0.1613-4.9258-0.6461-6.6242-2.5043
		c-1.6984-1.8583-1.7835-4.5239-1.4439-6.8669c0.4177-3.1516,1.9549-6.0478,4.3311-8.1598
		c2.8028-2.343,6.9667-2.2623,10.1933-0.8067c3.1431,1.4549,4.9265,4.5247,6.4533,7.4331
		c4.7557-1.7776,7.9831-5.9781,12.6544-7.9985c0.1701,2.4237-0.0851,5.2514,1.7835,7.1903
		c1.1044,1.3735,2.9729,1.2929,4.5019,1.4542c-0.2552-3.8779-0.8492-7.6751-1.3589-11.4723
		c-1.6133-12.6867-3.2267-25.4467-4.5863-38.2133c-0.0851-1.8575-0.3403-3.7965,0.594-5.3321L243.7805,113.5545z M214.7339,168.7341
		c-0.4246,0.8881,0.5947,1.4542,1.2738,1.7769c2.5483,0.8888,5.3533,0.3234,7.9838-0.1613
		c-1.3589-1.4542-2.9729-3.0697-5.181-3.1533c-1.4439-0.0807-3.4819,0-4.0766,1.5356V168.7341z M233.2491,173.9848
		c0.1701,2.5857,0.2545,5.1707-0.5947,7.5944c-1.3589,4.1206-4.5012,7.4331-7.7286,10.1794
		c-6.2003,5.0901-13.5043,8.4025-20.5539,12.1183c-3.2062,1.8011-6.5253,3.3933-9.9366,4.7667
		c4.3311,0.3234,8.6629-0.4041,12.9067-0.7267c6.5399-0.4041,12.8245-2.2623,18.8547-4.686
		c6.2854-2.585,12.3999-5.8975,17.3265-10.7448c3.0687-2.8971,5.2737-6.5887,6.3697-10.6641
		c0.4119-2.0476,0.6112-4.1323,0.5947-6.2209c-2.5483-0.0807-5.2661,0-7.5592-1.2929c-1.8685-1.0501-2.8878-3.0697-3.9915-4.8473
		c-1.7619,1.6704-3.666,3.1841-5.6907,4.5239L233.2491,173.9848z M302.299,113.3125c0.9342-1.0501,2.6327-0.8888,3.74-0.1621
		c2.4744,1.6787,3.8924,4.5276,3.74,7.5137c-0.1881,1.3113-0.5599,2.5896-1.1044,3.7972c-0.3395-1.8583-0.2545-3.7972-1.1-5.4934
		c-1.2738-1.7776-3.652-2.101-5.181-3.5552C301.7894,114.928,301.5349,113.7972,302.299,113.3125z"/>
	<path class="st1" d="M337.1214,114.2819c0.1701-1.1315,1.2738-2.343,2.4633-1.6969c3.3124,1.6133,5.6899,4.686,7.2189,7.9985
		c-1.1887,0-2.3782-0.0807-3.4818-0.1613c0.5406,2.2582,1.2503,4.4725,2.123,6.6242c1.2738,3.0705,3.058,5.9789,3.567,9.372
		c0.5947,3.7158-0.0843,7.92-2.7177,10.7448c-4.9258,5.4934-14.7781,4.5239-19.0248-1.3735
		c-1.6133-2.1003-2.4626-4.5239-3.3125-7.0283c-1.3589,5.3321-4.246,10.5021-9.0875,13.2491
		c-5.0475,2.8958-11.301,2.6766-16.1333-0.5654c-2.9313-1.8396-4.748-5.0237-4.84-8.4832
		c-0.3395-5.0087,1.6133-9.6947,2.2932-14.542c-1.2691,1.1777-2.2312,2.6476-2.8028,4.2819
		c-2.0379,5.4127-2.8871,11.2295-5.775,16.3196c-1.3589,2.42-3.652,4.6046-6.5399,4.8473
		c-2.8028,0.1613-5.8608-0.8888-7.4742-3.3125c-1.4439-2.2623-1.7834-5.0087-1.7834-7.6751
		c0.0529-4.0744,1.041-8.0821,2.8878-11.7143c0,5.0893-1.529,10.6641,1.0186,15.4308c1.2745,2.6657,4.6713,4.2005,7.3047,2.7463
		c2.3782-1.4542,3.4819-4.2005,4.3311-6.7049c1.7842-5.3328,3.652-10.7455,6.2854-15.7542c1.1-2.0196,2.2932-4.1206,4.1617-5.5733
		c0.9343-0.8067,2.2932-0.8067,3.4819-1.0501c0.2552,4.5247-2.2932,8.4832-3.1423,12.8458
		c-0.8492,3.7972-1.1044,8.3211,1.6133,11.4723c3.0573,3.3117,8.1532,4.1199,12.3999,2.9891
		c5.86-1.8583,10.1068-7.7557,10.362-13.8959c0.1694-3.6359,0.3395-7.5944-1.6133-10.8255
		c-0.8492-1.6969-2.4633-3.4745-1.7835-5.5733c0.4945-2.0372,1.8632-3.7521,3.74-4.686c1.3754,1.9765,2.2763,4.2435,2.6327,6.6249
		c0.6798,5.5733,0.7641,11.3102,2.7177,16.6423c1.1895,3.0705,2.9729,6.2209,6.1153,7.6751
		c2.8878,1.3735,6.4533,1.6969,9.2576,0.2427c1.7834-0.8888,2.208-3.0697,1.7834-4.8473
		c-1.1887-5.8168-5.1802-10.4221-7.0488-15.9962c-1.0193-2.8277-1.7842-5.7361-1.1895-8.6445L337.1214,114.2819z M394.196,113.0697
		c1.7835-0.8067,4.3318-0.1613,5.181,1.6969c0.2294,0.8555-0.1567,1.7568-0.9343,2.1809c-1.2098-0.3221-2.3784-0.7828-3.4826-1.3728
		c-1.4432,2.7463-2.2081,5.8168-3.0573,8.8865c-0.5075-1.5031-1.1918-2.9405-2.0387-4.2819
		c-1.1887-1.6133-3.0573-2.4237-4.4161-3.8779c-0.4246-1.2929,1.1-2.7471,2.3782-2.343c1.8685,0.5654,2.9722,2.2623,4.0766,3.7972
		C392.4125,116.0595,392.667,114.0392,394.196,113.0697L394.196,113.0697z M165.7274,119.856
		c1.4439-3.0697,4.2467-5.3321,7.3047-6.7863c-0.7649,2.0203-2.0387,3.7165-3.058,5.5733
		c-0.8492,1.2929-0.7641,2.9084-0.8492,4.3626c1.9946-0.1697,3.9618-0.5767,5.8601-1.2122
		c-0.594,1.5356-1.1887,3.2318-2.6327,4.2819c-1.529,1.1315-3.8221,1.7776-5.4355,0.6468
		C165.0484,125.1067,164.7066,122.1184,165.7274,119.856L165.7274,119.856z"/>
	<path class="st1" d="M274.3561,115.7361c0.5097-2.6664,4.502-2.5857,5.7757-0.5654c0.8492,1.4542,1.2738,2.9891,2.123,4.4433
		c0.7649,1.4542,1.6991,2.9891,1.1895,4.686c-0.7649,2.6657-2.7177,4.7667-2.9729,7.5937c0.9342-0.4041,1.8685-0.8888,2.8028-1.3735
		c-0.2545,1.4542,0,3.3931-1.529,4.2013c-1.8685,0.8888-4.1617-0.8888-3.9915-2.9084c0.2545-3.6351,3.8221-6.4629,2.7177-10.34
		c-3.567,4.7667-8.4935,9.0479-14.5237,9.9367c2.6334-2.1003,5.6056-3.5545,7.9838-5.9781
		c1.4298-1.5147,2.6316-3.2293,3.5677-5.0901c-1.2745-1.2921-3.4826-2.5043-3.1431-4.6046V115.7361z M276.8194,115.4934
		c0.5648,0.8607,1.3203,1.5796,2.208,2.101C278.6783,116.5758,277.8541,115.7915,276.8194,115.4934z M255.5014,117.4323
		c1.2738-0.3227,2.8028-0.8067,3.8221,0.3234c3.1109,2.9034,4.438,7.2451,3.4818,11.3916c-0.679-1.5356-1.1887-3.1533-1.9536-4.6053
		c-1.2738-2.7471-4.0766-4.3626-5.3533-7.1133L255.5014,117.4323z M228.1532,119.1293c1.271,1.3047,1.8667,3.1242,1.6133,4.928
		c-2.0379,0.3234-4.0766,0.8888-6.1145,1.3735c-1.1399,0.2641-2.278-0.4458-2.5421-1.5857
		c-0.0021-0.0092-0.0042-0.0184-0.0062-0.0276c0.0318-1.207,0.2319-2.4036,0.5947-3.5552c0.4246,1.2122,0.8492,2.42,1.2738,3.7165
		c0.5097-0.2427,1.1044-0.4041,1.6133-0.6461v-3.3125h1.1887c0.1701,0.9695,0.3396,2.0196,0.5097,2.9891
		c0.6791-0.0807,1.2738-0.1613,1.9536-0.2427c-0.0851-1.2115-0.0851-2.4237-0.0851-3.6351L228.1532,119.1293z M400.6508,121.7949
		c1.659-0.458,3.3751-0.6756,5.0959-0.6461c-0.7943,1.0023-1.8121,1.8047-2.9722,2.343c-5.8608,2.343-11.891,4.0392-17.4966,7.0283
		c0.5097,1.0509,1.0193,2.0203,1.529,3.0705c-1.3589-0.2427-2.973-0.2427-3.9915-1.3735c-0.9164-0.8517-0.9688-2.285-0.1171-3.2014
		c0.0632-0.068,0.1304-0.132,0.2015-0.1917c0.9466-0.6656,1.9742-1.2077,3.058-1.6133c4.84-1.7776,9.68-3.7972,14.6931-5.4135
		V121.7949z M311.8962,125.9962c0.6709-0.5141,1.3821-0.9735,2.1266-1.3735c-0.0851,2.1817,0.6791,4.1206,1.6133,6.0595
		c0.9343,1.9389,0.1701,4.6853-2.123,5.17c-1.9536,0.6468-3.74-0.5654-5.0959-1.6962c-1.1044,0.9695-2.2931,2.2623-3.9072,2.0196
		c-2.9722-0.1613-4.4161-3.6351-3.8214-6.2209c0.2545-1.6962,1.6133-2.7463,2.8028-3.7972
		c-0.1701,1.7776-0.8499,3.5552-0.4253,5.3321c0.3402,1.2122,1.7842,1.2122,2.8028,1.6133c0.3402-1.9389,0.4246-3.96,0.9342-5.9789
		c0.1701-1.0501,1.4439-1.1308,2.1267-1.6133c0.1694,1.6969,0.0851,3.3931,0.5947,5.0087c0.4246,1.2122,1.8685,1.6133,2.8871,2.1817
		c0.5097-2.343-0.5097-4.5239-0.5097-6.7056L311.8962,125.9962z M223.74,129.0667c1.2745,0,2.8028-0.242,3.8221,0.8067
		c2.9932,2.9047,4.2213,7.179,3.2267,11.2295c-1.0193-2.6657-1.8685-5.5733-4.0766-7.5937
		C225.3533,132.2977,223.9915,130.9242,223.74,129.0667L223.74,129.0667z M399.5471,139.2461
		c0.6299-0.6797,1.3432-1.2769,2.123-1.7776c0.0766,1.9764,0.5994,3.9098,1.529,5.6555c0.8492,1.7769,0.8492,4.6046-1.2745,5.4127
		c-1.9529,0.8888-3.9915-0.1621-5.6056-1.2929c-1.2738,0.9695-2.8021,2.1817-4.5863,1.6969
		c-2.6327-0.5661-3.74-3.6359-3.3125-6.0595c0.1701-1.7776,1.6991-2.9084,2.8878-4.0392c-0.2545,1.8583-1.0193,3.7158-0.5097,5.5733
		c0.4246,1.2122,1.8685,0.9695,2.8879,1.2122c0.3395-2.101,0.1701-4.2819,1.0193-6.2209c0.6519-0.4734,1.3664-0.854,2.123-1.1308
		c0.0851,1.8575-0.2545,3.8779,0.6798,5.5733c0.5947,1.0501,1.8685,1.1308,2.8878,1.4542
		c-0.0851-2.0196-0.6798-4.0392-0.8499-6.0588L399.5471,139.2461z M470.1253,142.1545c-0.3688-0.9937,0.1377-2.0982,1.1313-2.467
		c0.2356-0.0874,0.486-0.1278,0.7372-0.1187c2.1267,0,3.74,1.7776,4.7564,3.4738c1.7835,3.4745,2.6327,7.6751,1.1895,11.3916
		c-0.7649-3.3125-0.6798-7.5137-3.74-9.6947c-1.3589-0.8067-2.9729-1.2929-4.0773-2.585H470.1253z M352.8338,149.4255
		c0.9894-1.0171,2.4518-1.4192,3.8221-1.0509c1.6984,1.6133,1.3589,4.5247,0,6.2209c-2.4633,3.2318-6.5399,4.7667-10.5314,4.7667
		c2.4625-1.4542,5.2653-2.2623,7.4741-4.1199c1.0186-0.7275,0.8492-2.101,1.0186-3.2318c-1.1887,0.1613-2.3782,0.4041-3.4818,0.5654
		c0.4488-1.1102,1.0183-2.1677,1.6984-3.1533V149.4255z M409.9084,151.9298c0.7649-0.1621,1.7834-0.6468,2.2931,0.1613
		c-0.594,1.9389-2.6327,2.7471-4.2467,3.5545c-6.1145,2.8277-12.0604,5.9789-18.0906,9.0486
		c-0.2545-0.5654-0.594-1.0501-0.8492-1.6133c3.3975-2.5043,7.1346-4.3626,10.7866-6.38c3.3975-1.6969,6.6249-3.5552,10.1068-4.7667
		L409.9084,151.9298z M294.8249,156.6965c0.1701-1.2122,1.0193-2.101,1.6991-2.9898c4.6706,5.0901,8.6629,10.9875,10.7859,17.6931
		c2.0387,6.38,2.5483,13.0878,3.8221,19.6321c0.6798,3.3125,1.2738,6.7863,3.4826,9.4519c1.4432,1.8583,3.567,2.9891,5.6056,4.1206
		c0.4246-2.101,0.9342-4.3626,2.8871-5.5733c5.9451-3.96,12.8253-6.38,19.6196-8.5631c-5.5205-0.1621-11.1261,0-16.6467-0.0814
		c-4.5012-0.0807-9.0031,0.3234-13.42-0.4847c0.1694-1.6962,0.1694-3.4738,1.1888-5.0087c2.0387-3.3931,5.6056-5.3321,9.0031-7.1097
		c5.1082-2.7343,10.488-4.9274,16.0519-6.5435c-1.4439-1.5349-3.652-3.2318-3.0573-5.7361
		c1.0193-2.9084,3.5669-5.8168,6.7943-5.7361c3.5677,0,7.0495,1.4542,10.1068,3.2318c1.8685,1.2115,4.1617,2.5043,4.84,4.7667
		c-0.1928,1.603-0.8413,3.117-1.8685,4.3626c-1.9536,2.4237-5.4355,2.2616-8.3233,2.585c-0.1701,1.9389-0.4246,4.2819-2.3782,5.1707
		c-0.5863-1.5231-1.2093-3.0317-1.8685-4.5247c-7.0495,1.2929-13.3342,4.928-18.8547,9.2906
		c15.6273,0.0814,31.1703-0.3227,46.7977-0.242c1.0193,0.0807,2.0379,0.1613,3.0573,0.3234c-0.679,4.1199-4.84,6.1395-8.4927,7.0283
		c-7.389,1.6133-14.7789,3.0705-22.1679,4.5247c-5.5205,1.1308-11.1261,2.4237-16.1333,4.928
		c-1.865,0.9788-3.4672,2.3918-4.6713,4.1199c3.6741,1.2914,7.4525,2.2644,11.2933,2.9084c1.2738,0.3234,3.0573,0.5654,3.3975,2.101
		c0.5089,2.0196,0.594,4.8473-1.3596,6.1395c-2.4626,0.5661-5.0109,0-7.4734-0.4033c-6.795-1.0509-13.3349-4.6053-17.2414-10.4221
		c-2.9729-4.2013-3.8221-9.4527-4.5862-14.4613c-1.8758,2.8024-4.0386,5.4017-6.4533,7.7557
		c-6.6249,6.2209-14.6087,10.7448-22.9321,14.3807c-2.8878,1.2929-6.5399,1.6962-9.4277-0.0807
		c-2.0379-1.2122-2.8028-3.7165-3.652-5.8168c-7.7286,3.96-15.6273,7.7557-24.2059,9.3713
		c-5.2564,1.0608-10.6045,1.6012-15.9669,1.6133c2.8028-1.3735,5.6899-2.4237,8.4927-3.5545
		c9.3427-3.8779,18.5152-8.2405,27.5183-12.9265c1.1044-0.6461,2.4633-1.2115,3.2267-2.2616
		c0.8492-2.343,0.9343-4.8473,2.208-7.1097c1.3716-2.6722,3.4594-4.9102,6.0302-6.4636c-1.6133,3.5552-3.3117,7.1903-3.8214,11.0682
		c5.4979-3.2492,10.5997-7.1262,15.2027-11.5529c1.1888-1.2921,2.8878-2.9084,2.2081-4.8473
		c-0.8492-2.7463-2.2932-5.17-3.3125-7.8364c-1.5283-3.8779-3.3968-7.92-2.9722-12.199c0.0843-1.3735,1.1-2.4237,1.7834-3.4738
		c3.74,2.42,6.1153,6.38,8.2383,10.1794c-0.7641,0.1613-1.6133,0.3227-2.3782,0.4847c1.4439,3.96,3.8221,7.513,4.5012,11.7143
		c0.6009,3.2979-0.3373,6.6896-2.5476,9.2099c-5.7758,6.2209-12.9067,10.9069-19.6196,15.9962
		c1.1895,0.6468,2.4633,1.5349,3.9072,1.4542c2.8028-0.0807,5.5205-1.0501,8.0667-2.1003
		c9.3427-4.1206,16.9869-10.9875,24.8857-17.3698c-1.9536-7.5944-5.4355-14.7033-9.0882-21.6517
		c-1.4509-2.5775-2.0735-5.539-1.7835-8.4825L294.8249,156.6965z M339.9249,166.7138c0.9304,1.3191,2.2323,2.3316,3.74,2.9084
		c2.2931,0.4847,4.5012-0.8881,6.2003-2.3423c-2.1267-1.6133-4.587-2.9084-7.3047-2.9084c-1.2738,0-2.6327,1.0501-2.6327,2.3423
		H339.9249z M177.958,156.6965c0.0321-1.0629,0.8905-1.9149,1.9536-1.9389c2.8879-0.3234,4.9258,2.0196,6.7093,3.8779
		c0.9343,0.9695,1.6991,2.2616,1.1044,3.6351c-0.3395,1.5349-2.1267,1.4542-3.3125,1.7776
		c-2.5476,0.1613-3.5669,2.9084-5.5205,4.1199c-3.9072,2.6664-8.7479,4.7667-13.5894,4.1206
		c1.1895-1.6969,3.1431-2.4237,5.0116-2.9891c3.4819-1.1315,6.2847-3.6359,8.833-6.2209c-0.6798-2.1003-1.529-4.2013-1.1895-6.38
		V156.6965z M179.5713,157.0191c0.1256,1.4233,0.5603,2.802,1.2738,4.0399c0.5175-1.1428,0.999-2.3016,1.4439-3.4745
		c-0.8953-0.2351-1.8022-0.4238-2.717-0.5654H179.5713z M183.3927,162.2705c0.9343-0.0807,1.8685-0.242,2.8028-0.3227
		c-0.1407-1.2235-0.4553-2.4206-0.9343-3.5552C184.0725,159.2814,183.9024,160.897,183.3927,162.2705L183.3927,162.2705z"/>
	<path class="st1" d="M322.1731,157.3425c0.5883-0.6013,1.2785-1.0937,2.0387-1.4542c0,2.8277,2.0379,5.0087,2.2932,7.7557
		c0.2545,2.8277-3.3975,4.2819-5.6056,2.9891c-0.679-0.4847-1.2738-1.0501-1.8685-1.5349c-1.1887,1.0501-2.4633,2.585-4.2467,2.1817
		c-2.7177-0.4847-4.1617-3.6359-3.652-6.2209c0.2552-1.7776,1.6984-2.9084,2.9729-3.96c-0.2552,1.6969-0.8492,3.3125-0.6798,5.0901
		c0.1701,1.2929,1.6133,1.6969,2.6327,2.2623c0.5748-2.0081,0.9728-4.0627,1.1895-6.1402c0.1701-1.1308,1.529-1.2929,2.2932-1.8583
		c0.0851,1.6969,0,3.4738,0.5097,5.0901c0.5097,1.1308,1.6984,1.6962,2.6327,2.343c1.0193-2.1817-0.4246-4.3626-0.5097-6.5443
		V157.3425z M186.6209,167.6833c1.4439-0.6461,2.9729-1.4542,4.587-1.6133c1.5283-0.0807,2.2932,2.2623,1.1,3.2318
		c-1.7835,1.3735-3.9065,1.9389-5.9451,2.8277c-4.7564,2.2616-9.5128,4.4433-14.1834,6.9476
		c-1.0193,0.6461-2.2939,0.4847-3.3975,0.3234c0.634-1.4212,1.6664-2.6281,2.9722-3.4745
		C176.6842,172.9347,181.61,170.1883,186.6209,167.6833L186.6209,167.6833z M365.2337,170.1883
		c0.3403-1.6133,2.2088-1.8583,3.5677-2.343c0.3395,2.343,0.5947,4.7667,2.0379,6.7056c-0.7641,0.0807-1.5283,0.1613-2.208,0.242
		c-1.0193,1.5349-2.123,3.2318-3.8221,4.0392c-2.8028,1.3735-5.9451,1.3735-9.0024,1.2122
		c3.2267-0.8888,7.2189-1.1308,9.3427-4.0392C366.5933,174.3082,365.0643,172.1273,365.2337,170.1883L365.2337,170.1883z
		 M429.3579,172.5306c0.4246-1.2921,1.9536-1.2921,3.058-1.1308c2.3782,0.4041,4.0766,2.4237,5.6056,4.1206
		c1.1842,1.091,1.3665,2.8947,0.4246,4.2005c-1.529,1.2122-3.9922,0.4847-5.3533,2.101
		c-4.0766,4.6853-10.3613,7.6751-16.6467,7.0283c1.1895-1.6962,3.1423-2.4237,5.0959-2.9891
		c3.4826-1.1308,6.2003-3.7165,8.748-6.2209c-0.6791-2.2623-1.6984-4.686-0.9343-7.1097L429.3579,172.5306z M430.9712,173.5001
		c0.1685,1.4627,0.5107,2.9002,1.0193,4.2819c0.6296-1.1012,1.1418-2.2656,1.5283-3.4738
		c-0.8484-0.3234-1.7827-0.5654-2.5469-0.8081H430.9712z M435.897,175.2777c-0.4843,1.1535-0.8817,2.3417-1.1887,3.5545
		c0.9343-0.0807,1.8685-0.242,2.8028-0.3227c-0.1819-1.1367-0.4954-2.2483-0.9343-3.3125c-0.1701,0-0.5089,0.0807-0.6791,0.0807
		H435.897z M268.6662,175.0357c1.6133-1.5356,4.5012-0.7275,5.5205,1.1308c0.5097,1.0501-0.5947,1.8583-1.0193,2.6657
		c-0.815-0.5686-1.6999-1.03-2.6327-1.3728c-0.8499-0.2427-1.1044,0.7267-1.3596,1.2921c-1.0186,2.42-1.5283,5.0094-2.2932,7.5137
		c-0.4763-1.5519-1.1317-3.043-1.9529-4.4433c-1.0193-1.4542-2.7185-2.2623-3.9923-3.4745
		c-1.1888-0.9695,0.0851-3.0697,1.4439-2.827c1.9536,0.242,3.1423,2.0196,4.5012,3.3117
		C267.3917,177.54,267.7319,176.0858,268.6662,175.0357z M166.5774,189.0929c1.6776-2.7294,4.132-4.8956,7.0488-6.2209
		c-0.8347,1.9531-1.8587,3.8198-3.0573,5.5733c-0.8492,1.2929-0.8492,2.8277-0.9343,4.2819
		c1.9719-0.1101,3.9317-0.3798,5.8601-0.8067c-0.5097,1.5349-1.1,3.2311-2.5476,4.1199c-1.6133,1.0501-3.9072,1.8583-5.6056,0.4847
		C165.5448,194.457,165.2391,191.4836,166.5774,189.0929L166.5774,189.0929z M302.1289,201.5339
		c1.4439-0.242,3.1431-0.8881,4.4169,0.1621c1.237,0.8227,1.5728,2.4924,0.7501,3.7294c-0.0725,0.109-0.1528,0.2125-0.2404,0.3098
		c-1.7834,0.9695-4.0766,0.4041-5.6056,1.7776c0.2545,2.1003,1.8685,3.7972,2.208,5.8168c0.0851,1.2929-0.9342,2.343-1.5283,3.3931
		c-0.4253-2.0196-0.7649-4.2013-1.8685-5.9781c-0.6798-1.2929-1.6991-2.5857-1.3596-4.1206
		c0.3403-1.6969,2.1267-2.5043,3.3975-3.3125C302.1924,202.7249,302.1355,202.1302,302.1289,201.5339L302.1289,201.5339z
		 M367.2724,204.039c0.6798-1.6969,2.2932-2.5051,3.74-3.3931c-0.5947,1.3728-1.6133,2.7463-1.7835,4.2812
		c0.6791,1.2122,1.7835,2.101,2.3782,3.3939c0.1694,2.1003-2.8878,2.4237-3.9922,1.1308c-1.2738-1.4542-1.1-3.7165-0.3395-5.4127
		L367.2724,204.039z M351.56,201.696c2.3782-0.8067,4.9258,0,7.0495,1.2115c-1.529,3.1533-5.0959,3.96-7.7293,5.8975
		c0.0983,0.4244,0.1553,0.8574,0.1701,1.2929c1.8685,0.0807,3.8221,0.3234,5.4355-0.6461c2.0968-1.2068,4.3568-2.1049,6.71-2.6664
		c-1.8685,1.6133-3.652,3.2318-5.5205,4.7667c-2.2088,1.7776-5.2661,1.7776-7.8987,1.0501
		c-1.2738-0.4033-2.8878-1.5349-2.4633-3.1533c0.6798-2.0196,2.7177-3.0705,4.3318-4.2819
		c-1.1895-0.0807-2.2932-0.1613-3.4826-0.2427C349.0967,203.635,349.9467,202.0187,351.56,201.696L351.56,201.696z
		 M413.1358,207.4321c-0.5687-0.7773-0.3996-1.8684,0.3777-2.4371c0.2153-0.1576,0.4639-0.2636,0.7267-0.31
		c2.2931-0.4041,4.2467,1.4542,5.2661,3.3125c1.4543,2.6259,1.5177,5.8006,0.1694,8.4825
		c-0.4246-1.8575-0.4246-3.7965-1.3589-5.4934C417.043,209.2904,414.6648,208.967,413.1358,207.4321z M451.6102,208.6436
		c3.1431-1.1308,6.2854-2.585,9.68-2.2623c-0.6818,1.2832-1.7946,2.2846-3.1423,2.8277
		c-5.2653,1.9389-10.6165,3.7165-15.7975,5.8982c-1.6375,0.7347-3.3447,1.3029-5.0959,1.6962
		c-0.1694-0.4847-0.4246-0.9695-0.594-1.4542c4.7556-2.7471,9.8516-4.686,14.9475-6.7056L451.6102,208.6436z M441.3457,312.4205
		h-26.1595v-2.4801c1.1814-1.0215,2.7867-2.4075,2.7867-3.2098c0-1.386-3.2905-4.2306-4.0502-4.2306
		c-0.8441,0-4.0502,2.9179-4.0502,4.2306c0,0.8756,1.4344,2.1157,2.6158,3.1365l0.0843,0.0733v2.5527H206.25
		c7.3414,7.2945,18.227,7.2219,40.0825,7.4404c19.4927,0.2933,19.4084,0.2933,166.1535,0v2.6261
		c-1.1814,1.0215-2.6158,2.4075-2.6158,3.2098c0,1.386,3.1218,4.2306,4.0502,4.2306c0.5911,0,2.5315-1.6045,3.5442-2.9905h9.0288
		c0.5911,1.0208,1.9411,1.6045,3.5442,1.6045c1.3748,0.0882,2.7033-0.5133,3.5442-1.6045h10.8013
		c1.1242,1.149,2.702,1.7372,4.304,1.6045c4.1345-0.1467,5.06-2.2609,5.06-9.5553c-0.0844-6.1277-4.2189-6.7841-12.4043-6.6382
		H441.3457z M443.2018,324.7479h-9.6198c-1.6034-1.9572-4.4897-2.244-6.4469-0.6407c-0.2342,0.1919-0.4489,0.4065-0.6407,0.6407
		h-8.8609c-0.6653-0.8719-1.4624-1.6346-2.3628-2.2609v-2.6261h28.0133C442.7522,321.4423,442.7235,323.1495,443.2018,324.7479z"/>
</g>
</svg>
