<?xml version="1.0" encoding="utf-8"?>
<!-- Generator: Adobe Illustrator 26.0.2, SVG Export Plug-In . SVG Version: 6.00 Build 0)  -->
<svg version="1.1" id="Layer_1" xmlns="http://www.w3.org/2000/svg" xmlns:xlink="http://www.w3.org/1999/xlink" x="0px" y="0px"
	 viewBox="0 0 150 49.5147" style="enable-background:new 0 0 150 49.5147;" xml:space="preserve">
<style type="text/css">
	.st0{fill:#FFFFFF;}
</style>
<g>
	<path class="st0" d="M17.8625,32.1745v-6.4352c0-1.7405-0.2072-2.966-0.6297-3.6788c-0.4226-0.7152-1.5017-1.0768-3.2364-1.0768
		c-1.3835,0-2.4614,0.2119-3.234,0.6262c-0.7748,0.4179-1.1635,0.8404-1.1635,1.2676c0,0.2868,0.2786,0.7175,0.8287,1.2887
		c0.5502,0.5735,0.8263,1.2863,0.8263,2.1443c0,1.243-0.4564,2.307-1.3718,3.2036c-0.9129,0.8896-2.0635,1.3343-3.4458,1.3343
		c-1.2665,0-2.3561-0.4202-3.2714-1.2641c-0.9141-0.8462-1.3718-1.8786-1.3718-3.0947c0-2.0975,1.2255-3.8789,3.6741-5.3455
		c2.4509-1.4643,5.8453-2.197,10.1831-2.197c3.351,0,6.1602,0.4296,8.4238,1.2887c2.2626,0.8603,3.3932,2.7916,3.3932,5.7961
		v15.1095c0,2.6031,0.7151,3.9023,2.1443,3.9023c0.398,0,0.9469-0.2247,1.6492-0.6789l0.9516,1.6094
		c-1.9921,2.3573-4.3002,3.5395-6.9268,3.5395c-2.7424,0-5.0401-1.442-6.8929-4.3249c-3.0713,2.8829-6.482,4.3249-10.2333,4.3249
		c-2.5317,0-4.5273-0.6754-5.9811-2.0237C0.7245,46.1405,0,44.4644,0,42.4582C0,36.0804,5.953,32.6509,17.8625,32.1745
		 M17.8625,38.7315v-4.6631c-3.1638,0.1206-5.3666,0.6274-6.6085,1.5251c-1.243,0.8966-1.8645,2.3983-1.8645,4.5004
		c0,1.6293,0.3874,2.9051,1.1599,3.838c0.776,0.9329,1.7709,1.3987,2.9905,1.3987c1.3835,0,2.4474-0.4658,3.2013-1.3987
		C17.4891,42.999,17.8625,41.2655,17.8625,38.7315"/>
	<path class="st0" d="M85.7515,0v46.5084h3.8695v2.1115h-4.4067c-1.435,0-2.7764,0.0375-4.0183,0.1053l-4.0193,0.3207h-0.9914
		v-4.3237h-0.1369c-1.5041,3.193-3.8357,4.7919-7.0018,4.7919c-3.0701,0-5.761-1.5087-8.0703-4.5285
		c-2.3094-3.021-3.4646-6.7454-3.4646-11.185c0-4.2699,1.174-7.814,3.5184-10.6313c2.3445-2.8138,5.0635-4.2219,8.1558-4.2219
		c2.6265,0,4.9616,1.2138,6.9994,3.6448V2.8594h-5.6979V0.68h5.0307c1.147,0,3.0713-0.1124,5.768-0.3383
		C83.9806,0.1147,85.4718,0,85.7515,0 M76.1854,37.4888v-7.6981c0-2.9823-0.5432-5.1957-1.6317-6.6412
		c-1.092-1.4443-2.2122-2.1654-3.3616-2.1654c-0.8907,0-1.5836,0.515-2.0729,1.5415c-0.4939,1.0253-0.7409,3.1029-0.7409,6.2292
		v10.7718c0,2.9859,0.1826,4.9897,0.5454,6.0138c0.3663,1.0277,1.0254,1.5427,1.9887,1.5427c1.0066,0,2.1384-0.6683,3.3943-2.0038
		C75.558,43.7414,76.1854,41.2121,76.1854,37.4888"/>
	<path class="st0" d="M117.5375,32.5325h-17.3041v4.6608c0,3.6542,0.3218,6.1789,0.9656,7.5788
		c0.645,1.3952,2.1303,2.094,4.449,2.094c2.0401,0,3.9492-0.666,5.7177-2.0015c1.7662-1.332,3.1228-3.4119,4.0603-6.2198h2.1115
		c-0.8685,3.6249-2.4756,6.3381-4.8188,8.1523c-2.3445,1.8095-5.1583,2.7178-8.4414,2.7178c-4.4758,0-8.0563-1.5672-10.7449-4.69
		c-2.6838-3.1275-4.0264-6.7278-4.0264-10.8104c0-3.914,1.3613-7.4032,4.0826-10.4698c2.7154-3.0631,6.1157-4.5976,10.1982-4.5976
		c3.5161,0,6.5745,1.1201,9.1765,3.3616C115.5665,24.5476,117.0904,27.9583,117.5375,32.5325 M100.2334,30.2091h7.5647v-3.0034
		c0-2.5973-0.3476-4.2862-1.0429-5.0611c-0.6905-0.7725-1.634-1.1599-2.8301-1.1599c-1.1237,0-2.0214,0.3453-2.6863,1.037
		c-0.6695,0.6917-1.0054,2.4428-1.0054,5.2566V30.2091z"/>
	<path class="st0" d="M146.5502,39.1799h1.9371c-0.3816,3.2668-1.7651,5.8032-4.1716,7.6174
		c-2.4053,1.8084-5.1852,2.7166-8.3489,2.7166c-4.271,0-7.9333-1.4643-10.9953-4.3857c-3.0561-2.9226-4.5858-6.4469-4.5858-10.5775
		c0-4.175,1.5637-7.8187,4.6935-10.9345c3.1311-3.1111,6.9221-4.669,11.3781-4.669c3.117,0,5.7927,0.7561,8.0341,2.2695
		c2.2414,1.5158,3.3627,3.4856,3.3627,5.9144c0,1.291-0.4612,2.3936-1.3753,3.3112c-0.9129,0.9165-2.122,1.3741-3.6203,1.3741
		c-1.3378,0-2.4743-0.4506-3.413-1.3589c-0.9364-0.9059-1.4093-2.0354-1.4093-3.3943c0-1.7908,0.6227-3.0151,1.8693-3.6858
		c0.4916-0.2833,0.7362-0.6157,0.7362-0.9984c0-0.4038-0.3968-0.7386-1.1962-1.0019c-0.7983-0.261-1.7007-0.3921-2.7074-0.3921
		c-1.758,0-3.1064,0.6309-4.0439,1.8962c-0.9387,1.2629-1.4093,4.6432-1.4093,10.1304c0,5.7329,0.323,9.5077,0.9493,11.3324
		c0.6355,1.8236,2.252,2.7389,4.8574,2.7389C141.8718,47.0829,145.0262,44.4482,146.5502,39.1799"/>
	<path class="st0" d="M22.4379,13.9064c-0.2154-0.3909-0.2739-0.8615-0.2739-0.8615s2.582,0.2528,4.1317,0.2528
		c1.9512,0.007,2.9063,0.0211,3.392,0.0269c0.5677,0.0105,0.865,0.3371,0.8392,0.8322c-0.0316,0.563-0.879,0.7456-0.879,0.7456
		c0.8217,0.0468,0.9165,0.0468,1.9933,0.0351c1.0885-0.014,1.7896,0.007,2.0448,0.0117c0.371,0.0152,0.6953,0.2048,0.6953,0.7643
		c0,0.5056-0.7187,0.6683-0.7187,0.6683s0.5759,0.0468,1.394,0.0492c0.3617,0,0.9141,0.0094,1.2887,0.1486
		c0.2165,0.0854,0.5478,0.2505,0.5139,0.6402c-0.0527,0.8088-0.8322,0.714-0.9726,0.714c-0.46,0-2.2298,0.0445-3.378-0.2423
		c-0.7631-0.1873-1.2675-1.071-1.2675-1.071s-0.8135-0.041-1.7276-0.0667c-0.5185-0.0129-1.5169-0.1217-1.9161-0.3944
		c-0.5349-0.3628-0.7643-1.147-0.7643-1.147s-0.9012-0.0059-2.3678-0.1369C22.6064,14.7058,22.4379,13.9064,22.4379,13.9064"/>
	<path class="st0" d="M64.8459,9.5565c-2.6348-0.5536-7.8445-2.1431-11.7398-3.2387c-3.5208-0.982-5.0025,1.1541-5.8793,4.2289
		c-0.7327,2.5458-1.7393,4.717-3.8216,4.7696c-2.0834-0.0527-3.0888-2.2239-3.8215-4.7696
		c-0.8778-3.0748-2.3585-5.2109-5.8816-4.2289c-3.893,1.0956-9.1027,2.685-11.7362,3.2387
		c-1.8084,0.3746-4.7194,0.3886-4.7194,0.3886s0.6532,1.1927,1.4245,1.4806c1.6515,0.6004,4.2628,0.2212,5.4871,0
		c2.7471-0.4986,6.4773-1.4537,7.4161-1.6492c3.241-0.7175,4.9393,0.3277,5.8137,2.6932c0.8088,2.1583,2.6066,4.1622,5.7587,4.2581
		h0.2586h0.2587c3.1533-0.096,4.9511-2.0998,5.7587-4.2581c0.8731-2.3655,2.5715-3.4107,5.8148-2.6932
		c0.9364,0.1955,4.669,1.1506,7.4173,1.6492c1.2196,0.2212,3.8344,0.6004,5.4848,0c0.7713-0.2879,1.4244-1.4806,1.4244-1.4806
		S66.653,9.931,64.8459,9.5565"/>
	<path class="st0" d="M47.6001,17.9275c-0.3125-0.0363-2.0858-0.3921-2.4544,1.4022c-0.3757,1.7896,1.8294,1.9371,1.8294,1.9371
		s1.6878,1.1471-2.2859,3.9293c-0.1264,0.0901-0.632,0.3359-1.2828,0.7187v0.0047c-0.6484-0.3816-1.1587-0.6332-1.284-0.7233
		c-3.9749-2.7822-2.2859-3.9293-2.2859-3.9293s2.2052-0.1475,1.8283-1.9371c-0.3687-1.7943-2.1408-1.4385-2.4544-1.4022
		c-0.3195,0.0398-2.6242,1.1705-2.2133,4.2359c0.4073,3.076,3.0736,4.0018,4.3178,4.8106c0.1089,0.0691,0.2306,0.144,0.3605,0.2236
		c-1.1307,0.9411-2.1303,2.1736-2.1103,3.6378c0.0176,1.5345,1.1225,2.5774,2.3409,3.4622
		c-1.1155,0.8884-2.0472,1.9172-1.9687,3.2984c0.096,1.6679,1.2267,2.891,2.3292,4.0018c-0.7409,0.8778-1.3413,1.9547-1.3624,3.5044
		c-0.0292,2.2028,2.2298,4.326,2.2298,4.326s0.1159,0.0222,0.2645,0.0187c0.1638,0.0035,0.2797-0.0187,0.2797-0.0187
		s2.2602-2.1232,2.2286-4.326c-0.0211-1.5497-0.6192-2.6265-1.3636-3.5044c1.105-1.1108,2.2344-2.3339,2.3316-4.0018
		c0.0772-1.3811-0.8544-2.41-1.9699-3.2984c1.2196-0.8849,2.3234-1.9278,2.3409-3.4622c0.0187-1.4643-0.9774-2.6968-2.1092-3.6378
		c0.1287-0.0796,0.2528-0.1545,0.3593-0.2236c1.2453-0.8088,3.9105-1.7346,4.3167-4.8106
		C50.2242,19.098,47.9196,17.9673,47.6001,17.9275 M44.3228,44.9746c-0.0749,1.6234-0.57,2.8466-0.9246,3.4973
		c-0.3395-0.6508-0.8334-1.8739-0.9083-3.4973c-0.0398-0.7409,0.3405-1.3566,0.9129-2.0144v-0.007
		C43.9857,43.5923,44.3602,44.2443,44.3228,44.9746 M45.038,37.5387c-0.0036,1.1178-0.7409,1.9008-1.6398,2.7483
		c-0.8778-0.8416-1.6211-1.6269-1.6258-2.7483c0-0.81,0.7105-1.4561,1.62-2.1092C44.3286,36.0826,45.038,36.7287,45.038,37.5387
		 M45.3364,30.7769c0.0292,0.8509-0.8533,1.5684-1.943,2.3316c-1.0651-0.7631-1.9488-1.4806-1.9196-2.3316
		c0.0363-0.9762,0.9387-1.7896,1.9372-2.4627C44.4094,28.9873,45.3001,29.8007,45.3364,30.7769"/>
	<path class="st0" d="M64.3738,13.9064c0.2142-0.3909,0.2738-0.8615,0.2738-0.8615s-2.5832,0.2528-4.1306,0.2528
		c-1.9523,0.007-2.9062,0.0211-3.3943,0.0269c-0.5665,0.0105-0.8638,0.3371-0.8381,0.8322c0.0316,0.563,0.8778,0.7456,0.8778,0.7456
		c-0.8193,0.0468-0.9165,0.0468-1.9922,0.0351c-1.0874-0.014-1.7885,0.007-2.046,0.0117c-0.3711,0.0152-0.6941,0.2048-0.6941,0.7643
		c0,0.5056,0.7175,0.6683,0.7175,0.6683s-0.5747,0.0468-1.3941,0.0492c-0.3616,0-0.9141,0.0094-1.2875,0.1486
		c-0.2165,0.0854-0.5478,0.2505-0.5139,0.6402c0.0527,0.8088,0.8311,0.714,0.9726,0.714c0.4589,0,2.2286,0.0445,3.378-0.2423
		c0.762-0.1873,1.2676-1.071,1.2676-1.071s0.8123-0.041,1.7265-0.0667c0.5185-0.0129,1.5157-0.1217,1.9172-0.3944
		c0.5337-0.3628,0.7643-1.147,0.7643-1.147s0.9001-0.0059,2.3666-0.1369C64.2052,14.7058,64.3738,13.9064,64.3738,13.9064"/>
	<path class="st0" d="M146.8491,17.9912h0.7994c0.1557,0,0.2821,0.0375,0.3828,0.1159c0.1042,0.0761,0.1545,0.1884,0.1545,0.3383
		c0,0.144-0.0479,0.2645-0.1451,0.364c-0.0948,0.0971-0.2411,0.1463-0.4366,0.1463h-0.755V17.9912z M148.0793,19.1956
		c0.1919-0.0585,0.3324-0.1592,0.4237-0.3008c0.0889-0.1416,0.1346-0.2891,0.1346-0.4436c0-0.2072-0.0831-0.3956-0.2458-0.5653
		c-0.165-0.1709-0.412-0.2552-0.7444-0.2552h-1.2267v2.9004h0.4284v-1.236h0.7983l0.5583,1.236h0.4752L148.0793,19.1956z
		 M149.0156,20.5908c-0.4202,0.4214-0.9235,0.6309-1.5122,0.6309c-0.5923,0-1.0967-0.2095-1.5181-0.6285
		c-0.4156-0.419-0.6263-0.9235-0.6263-1.5134c0-0.5876,0.2119-1.092,0.6309-1.5122c0.4214-0.4202,0.9259-0.6309,1.5134-0.6309
		c0.5899,0,1.0944,0.2107,1.5122,0.6297c0.419,0.419,0.6297,0.9223,0.6297,1.5134
		C149.6453,19.6673,149.4346,20.1706,149.0156,20.5908 M149.265,17.3194c-0.4881-0.4904-1.0745-0.735-1.7616-0.735
		c-0.6871,0-1.2723,0.2446-1.7628,0.735c-0.4892,0.4904-0.7338,1.0768-0.7338,1.7604c0,0.6859,0.2446,1.2723,0.7338,1.7616
		c0.4904,0.4893,1.0757,0.7339,1.7628,0.7339c0.687,0,1.2734-0.2446,1.7616-0.7339c0.4904-0.4893,0.735-1.0757,0.735-1.7616
		C150,18.3962,149.7553,17.8098,149.265,17.3194"/>
	<path class="st0" d="M44.3825,5.5411c0.8251-0.3593,1.3764-1.1576,1.3916-2.1466c0.0211-1.2582-0.9844-2.4112-2.3702-2.4346
		c-1.2582-0.0199-2.2976,1.1002-2.3186,2.3573c-0.0164,1.0148,0.5337,1.8517,1.3343,2.2227l0.0023,6.5909
		c0,0.1908,0.0878,0.9399,0.9598,0.9399c0.8872,0,1.0019-0.5993,1.0019-0.9212L44.3825,5.5411z"/>
</g>
</svg>
