<?xml version="1.0" encoding="utf-8"?>
<!-- Generator: Adobe Illustrator 26.0.2, SVG Export Plug-In . SVG Version: 6.00 Build 0)  -->
<svg version="1.1" id="Layer_1" xmlns="http://www.w3.org/2000/svg" xmlns:xlink="http://www.w3.org/1999/xlink" x="0px" y="0px"
	 viewBox="0 0 117.99 30.661" style="enable-background:new 0 0 117.99 30.661;" xml:space="preserve">
<style type="text/css">
	.st0{fill:#9F9F9F;}
	.st1{fill:#FFFFFF;}
</style>
<path class="st0" d="M60.732,30.661H15.334C6.868,30.661,0,23.797,0,15.331C0,6.864,6.863,0,15.329,0h29.054h49.184h9.103
	c8.466,0,15.32,6.864,15.32,15.331c0,8.466-6.863,15.33-15.33,15.33H60.732z"/>
<path class="st1" d="M75.9675,15.1482c0-5.593,4.534-10.128,10.127-10.128c5.593,0,10.127,4.535,10.127,10.128
	c0,5.593-4.534,10.128-10.127,10.128C80.5015,25.2762,75.9675,20.7412,75.9675,15.1482"/>
<path class="st1" d="M43.9215,20.2275l-2.884,5.049l-6.726-0.035l4.419-7.643c0.525-0.705,0.836-1.58,0.836-2.528
	c0-2.34-1.896-4.236-4.236-4.236c-2.339,0-4.227,1.896-4.227,4.236l-0.009,10.206h-5.781V5.0205h5.781l-0.006,0.851
	c1.245-0.547,2.616-0.851,4.064-0.851c5.592,0,10.126,4.534,10.126,10.128C45.2785,17.0155,44.8035,18.7255,43.9215,20.2275"/>
<path class="st1" d="M14.6174,19.3709c-0.108,0.009-0.224,0.014-0.338,0.014c-2.34,0-4.236-1.897-4.236-4.236
	c0-2.34,1.896-4.237,4.236-4.237c2.339,0,4.236,1.897,4.236,4.237c0,0.696-0.168,1.353-0.466,1.933l-4.617,8.159l6.726,0.035
	l2.884-5.048c0.867-1.493,1.364-3.229,1.364-5.08c0-5.593-4.534-10.127-10.127-10.127c-5.593,0-10.127,4.534-10.127,10.127
	c0,4.609,3.083,8.496,7.295,9.723L14.6174,19.3709z"/>
<polygon class="st1" points="51.3027,0.0004 45.6207,0.0004 45.6207,25.2764 51.3157,25.2764 51.3287,10.8954 53.9257,10.9124 
	53.9257,5.0204 51.3247,5.0204 "/>
<path class="st1" d="M61.7188,30.661h6.739l5.972-10.462c0.857-1.486,1.348-3.211,1.348-5.051c0-5.593-4.534-10.127-10.127-10.127
	c-1.484,0-2.889,0.319-4.159,0.892L61.4838,0h-5.96v25.276h5.96l0.004-10.205c0-2.34,1.892-4.237,4.232-4.237
	c2.339,0,4.236,1.897,4.236,4.237c0,0.731-0.185,1.419-0.512,2.019L61.7188,30.661z"/>
<path class="st1" d="M99.4951,0.0004h-5.928c-0.02,0.259-0.032,0.52-0.032,0.784c0,5.593,4.538,10.128,10.132,10.128
	c2.339,0,4.228,1.896,4.228,4.236s-1.896,4.236-4.236,4.236c-1.462,0-2.753-0.74-3.514-1.867l-4.126,4.262
	c1.857,2.139,4.588,3.497,7.643,3.497c5.593,0,10.127-4.535,10.127-10.128s-4.525-10.128-10.118-10.128
	c-2.339,0-4.138-1.899-4.248-4.236C99.4101,0.5184,99.4401,0.1734,99.4951,0.0004"/>
<path class="st0" d="M81.6745,15.1484c0-2.34,1.897-4.236,4.236-4.236c2.34,0,4.236,1.896,4.236,4.236
	c0,2.34-1.896,4.236-4.236,4.236C83.5715,19.3844,81.6745,17.4884,81.6745,15.1484"/>
</svg>
