<?xml version="1.0" encoding="utf-8"?>
<!-- Generator: Adobe Illustrator 26.0.2, SVG Export Plug-In . SVG Version: 6.00 Build 0)  -->
<svg version="1.1" id="Layer_1" xmlns="http://www.w3.org/2000/svg" xmlns:xlink="http://www.w3.org/1999/xlink" x="0px" y="0px"
	 viewBox="0 0 150 42.5859" style="enable-background:new 0 0 150 42.5859;" xml:space="preserve">
<style type="text/css">
	.st0{fill:#FFFFFF;}
</style>
<g>
	<path class="st0" d="M117.0826,28.1718c-4.3557,0-7.1696,2.8114-7.1696,7.1671c0,2.1615,0.611,3.9879,1.7672,5.284
		c1.0984,1.2306,2.6603,1.9095,4.396,1.9095c1.7735,0,3.1754-0.3414,5.2034-1.3226v1.0366h2.431V29.7249
		C123.4914,29.6065,120.7278,28.1718,117.0826,28.1718 M121.2796,38.7739c-1.8466,1.0921-3.3468,1.6224-4.823,1.6224
		c-1.291,0-2.3-0.4409-3.0004-1.3087c-0.6928-0.859-1.0592-2.1476-1.0592-3.7246c0-4.1781,2.6552-5.056,4.8809-5.056
		c2.2257,0,3.615,0.6802,4.0017,0.883V38.7739z"/>
	<path class="st0" d="M52.3757,31.8171c-4.2449-0.8729-5.0208-1.8289-5.0208-3.3971c0-1.645,1.5934-2.7963,3.8733-2.7963
		c1.9738,0,3.7007,0.6059,5.5132,2.0456l1.4599-1.8554c-2.0998-1.6702-4.236-2.3769-6.9177-2.3769
		c-3.7171,0-6.4139,2.1715-6.4139,5.1631c0,1.5632,0.5127,2.693,1.6148,3.5647c1.0114,0.7986,2.567,1.3982,4.9011,1.8844
		c4.0609,0.82,4.8016,1.7622,4.8016,3.3178c0,1.7647-1.6337,2.9512-4.0622,2.9512c-2.4701,0-4.4426-0.7658-6.5323-2.6439
		l-1.5544,1.7647c2.4159,2.1149,4.988,3.0671,8.0035,3.0671c1.9121,0,3.5584-0.4988,4.765-1.4435
		c1.237-0.9724,1.8932-2.3214,1.8932-3.9035C58.7001,34.3401,56.8107,32.7429,52.3757,31.8171"/>
	<rect x="61.7067" y="24.7052" class="st0" width="2.4323" height="2.3441"/>
	<rect x="61.6966" y="28.4563" class="st0" width="2.4297" height="13.7913"/>
	<path class="st0" d="M84.3626,28.1698c-4.8167,0-7.4719,3.1616-7.4719,7.1948c0,4.0345,2.6552,7.1935,7.4719,7.1935
		c4.8179,0,7.4732-3.1591,7.4732-7.1935C91.8358,31.3314,89.1805,28.1698,84.3626,28.1698 M84.3626,40.4547
		c-3.4778,0-4.9943-2.2421-4.9943-5.09c0-2.8492,1.5166-5.0913,4.9943-5.0913c3.479,0,4.9955,2.2421,4.9955,5.0913
		C89.3581,38.2126,87.8416,40.4547,84.3626,40.4547"/>
	<path class="st0" d="M58.108,2.7067c-1.8743-1.7282-4.5031-2.6792-7.4039-2.6792h-5.6947v17.8925
		c0.1272,0.0378,3.183,0.9649,5.6947,0.9649c2.6401,0,5.3356-1.0795,7.3963-2.9601c1.8516-1.6929,2.8706-4.0345,2.8706-6.5978
		C60.971,6.7601,59.9558,4.4085,58.108,2.7067 M50.7041,16.6454c-1.4712,0-2.7888-0.2721-3.2636-0.3842V2.2659h3.2636
		c4.5345,0,7.7011,2.8832,7.7011,7.0096C58.4053,13.4763,55.0951,16.6454,50.7041,16.6454"/>
	<path class="st0" d="M89.8646,6.0453c-0.9837-1.0102-2.3958-1.5443-4.0824-1.5443c-4.2133,0-6.9542,1.4977-7.0663,1.5594V18.577
		h2.431V7.4737c1.2382-0.5542,2.4751-0.8112,4.037-0.8112c1.155,0,2.1022,0.359,2.7434,1.0392
		c0.6336,0.6726,0.9661,1.6576,0.9661,2.8492v8.0261h2.4323v-8.5199C91.3257,8.4171,90.8219,7.0303,89.8646,6.0453"/>
	<path class="st0" d="M126.7895,6.3802c-1.2432-1.2294-3.0483-1.8793-5.221-1.8793c-3.6365,0-6.2388,1.3679-6.6255,1.5543v16.6808
		h2.4298v-4.8179c1.8101,0.7066,3.052,0.9447,4.8419,0.9447c4.0106,0,6.5045-2.756,6.5045-7.1948
		C128.7192,9.4562,128.0516,7.6272,126.7895,6.3802 M122.197,16.7265c-1.5531,0-2.94-0.2381-4.8243-1.2281V7.5202
		c0.3867-0.2028,1.776-0.883,4.0004-0.883c3.2246,0,4.8608,1.7017,4.8608,5.056C126.234,14.9392,124.7993,16.7265,122.197,16.7265"
		/>
	<rect x="130.9189" y="0.7301" class="st0" width="2.431" height="17.8459"/>
	<path class="st0" d="M147.4015,4.7875l-4.3985,10.9484l-4.9843-10.9484h-2.6855l6.4605,13.5696l-0.0151,0.0302
		c-0.7658,1.6916-1.4901,2.3202-2.6753,2.3202c-0.8389,0-1.4788-0.136-2.2812-0.5567l-0.8464,1.9032
		c1.1727,0.5593,2.0934,0.7621,3.2107,0.7621c2.237,0,3.6352-1.1311,4.8243-3.901L150,4.7875H147.4015z"/>
	<path class="st0" d="M94.5021,0.7294V14.988c0,1.3742,0.3779,2.4033,1.1198,3.0608c0.7192,0.6386,1.6072,0.7721,2.2257,0.7721
		c0.7646,0,1.48-0.1574,2.1866-0.4812l-0.7243-1.9171c-0.3224,0.1574-0.626,0.2355-0.9258,0.2355c-0.6462,0-1.4498,0-1.4498-1.9297
		V6.8964h2.431V4.7878h-2.431V0.7294H94.5021z"/>
	<path class="st0" d="M72.7027,28.1718c-3.0419,0-4.7777,1.2445-4.8885,1.3465V42.244h2.4323l-0.0025-11.262
		c0.684-0.4723,1.5644-0.7218,2.4562-0.7218c1.4926,0,2.368,0.4824,3.2888,1.0165l1.0644-1.9284
		C75.7269,28.6039,74.5819,28.1718,72.7027,28.1718"/>
	<path class="st0" d="M76.3876,12.7746H65.3309c0.4333,2.4361,2.2081,3.9791,4.7197,3.9791c1.679,0,3.1452-0.6185,4.4149-1.9612
		l1.5568,1.3389c-1.7168,1.8844-3.5558,2.7056-5.9717,2.7056c-3.2623,0-7.2263-2.2068-7.2263-7.1545
		c0-3.9677,2.0204-7.1406,6.8056-7.1406c4.7839,0,6.8811,3.1868,6.8056,7.2956C76.4354,12.0264,76.4178,12.5315,76.3876,12.7746
		 M65.3309,10.666h8.598c-0.2166-2.3252-1.2747-4.0357-4.299-4.0357C66.6043,6.6303,65.545,8.3408,65.3309,10.666"/>
	<path class="st0" d="M105.6712,29.7143c-0.9813-1.0089-2.3933-1.5443-4.0824-1.5443c-4.2133,0-6.9542,1.4977-7.065,1.5606v12.5141
		h2.431V31.144c1.2382-0.5542,2.4751-0.8112,4.0358-0.8112c1.155,0,2.1047,0.3602,2.7446,1.0379
		c0.6336,0.6739,0.9674,1.6576,0.9674,2.8492v8.0249h2.431v-8.5186C107.1335,32.0874,106.6272,30.6994,105.6712,29.7143"/>
	<path class="st0" d="M108.0009,10.5529c-1.7647-0.5152-3.435-1.0001-3.435-2.135c-0.005-1.1236,1.0467-1.8327,2.5444-1.8327
		c1.2923,0,2.8492,0.4698,4.2083,1.3629l1.1298-1.7937c-1.4976-1.019-3.5583-1.6022-5.2839-1.6022
		c-2.9135,0-4.9477,1.6337-4.9477,4.0735c0,2.664,2.7573,3.4148,4.7688,3.9614c1.8453,0.495,3.3745,0.9573,3.3745,2.2559
		c0,1.1727-1.0984,1.9612-2.7346,1.9612c-1.5795,0-3.3203-0.6122-4.8948-1.7823l-1.2584,1.6992
		c1.6488,1.3175,3.9967,2.1161,6.0448,2.1161c1.4334,0,2.7295-0.3892,3.6516-1.0958c0.9913-0.7595,1.5141-1.8352,1.5141-3.1062
		C112.6828,11.8843,109.8739,11.0769,108.0009,10.5529"/>
	<path class="st0" d="M9.5729,0C9.6006,0,0,0.0088,0,0.0088V3.222c0,7.5399,2.1539,10.869,14.833,13.9059
		c8.836,1.8453,14.6768,4.1214,16.7425,9.8198c0.524-1.9675,0.8716-3.4223,0.8868-6.1342C32.534,8.5589,23.0493,0,9.5729,0"/>
	<path class="st0" d="M26.3929,33.7121c0-4.5534-2.3857-6.4365-13.7699-8.9796c-6.9845-1.5619-9.8311-3.2674-12.6224-4.8759v18.9745
		c3.8203,2.3378,9.2731,3.7548,12.1362,3.7548C21.7387,42.5859,26.3929,38.3826,26.3929,33.7121"/>
</g>
</svg>
