<?xml version="1.0" encoding="utf-8"?>
<!-- Generator: Adobe Illustrator 27.7.0, SVG Export Plug-In . SVG Version: 6.00 Build 0)  -->
<!DOCTYPE svg PUBLIC "-//W3C//DTD SVG 1.1//EN" "http://www.w3.org/Graphics/SVG/1.1/DTD/svg11.dtd" [
	<!ENTITY ns_extend "http://ns.adobe.com/Extensibility/1.0/">
	<!ENTITY ns_ai "http://ns.adobe.com/AdobeIllustrator/10.0/">
	<!ENTITY ns_graphs "http://ns.adobe.com/Graphs/1.0/">
	<!ENTITY ns_vars "http://ns.adobe.com/Variables/1.0/">
	<!ENTITY ns_imrep "http://ns.adobe.com/ImageReplacement/1.0/">
	<!ENTITY ns_sfw "http://ns.adobe.com/SaveForWeb/1.0/">
	<!ENTITY ns_custom "http://ns.adobe.com/GenericCustomNamespace/1.0/">
	<!ENTITY ns_adobe_xpath "http://ns.adobe.com/XPath/1.0/">
]>
<svg version="1.1" id="Layer_1" xmlns:x="&ns_extend;" xmlns:i="&ns_ai;" xmlns:graph="&ns_graphs;"
	 xmlns="http://www.w3.org/2000/svg" xmlns:xlink="http://www.w3.org/1999/xlink" x="0px" y="0px" width="200px" height="199.2px"
	 viewBox="0 0 200 199.2" style="enable-background:new 0 0 200 199.2;" xml:space="preserve">
<style type="text/css">
	.st0{fill:#FF6600;}
</style>
<metadata>
	<sfw  xmlns="&ns_sfw;">
		<slices></slices>
		<sliceSourceBounds  bottomLeftOrigin="true" height="199.2" width="178" x="10.3" y="0"></sliceSourceBounds>
	</sfw>
</metadata>
<g>
	<g>
		<path class="st0" d="M110,117.1c-2.3,0.3-4.5,0.6-6.7,0.9c-4.6,0.8-8.7,1.1-10.6,5.1c-0.4,0.2-1,0.2-1.5,0.4
			c-0.3,0.8-2.3,1.3-1.8,1.9c4.3-0.9,8.4,0,12.4-0.5c3.4-0.4,7.4-2.2,10.5-3c1.3-0.3,2.7-0.4,3.8-0.7c3.4-1,6.4-3,9.8-3.6
			C121.5,115.1,115.1,116.4,110,117.1"/>
	</g>
	<g>
		<path class="st0" d="M124.2,119.3c0.6,0,1-0.2,1.4-0.6C125,118.7,124.4,118.6,124.2,119.3"/>
	</g>
	<g>
		<path class="st0" d="M110.7,124.1c-1.7-0.7-3.3,0-4.9,0.6c2.2,0.2,4.1,0,6.4,0.4c1.7-1,3.8-1.8,5.7-2.7c1.9-0.9,4.1-1.6,5.4-2.8
			c-2.1-0.2-4.2,1.5-6.4,1.9c-0.2,0.5-0.1,1.3-0.6,1.3c-1.5-1.3-3.6,0-5.3,0.4C110.6,123.6,111.2,124.1,110.7,124.1"/>
	</g>
	<g>
		<path class="st0" d="M173.8,139.8c1.5,0.3,2.9,0.4,4,0c-1.4-0.3-2.8-0.6-4.2-1C173.5,139.3,173.8,139.4,173.8,139.8"/>
	</g>
	<g>
		<path class="st0" d="M180.1,140.5c-2,0.4-4.8,0.7-7.1-0.2c-2,0.7-5.1,0.6-7.5-0.1c-2.3,1.1-6.7,1-9.5-0.1
			c-1.9,1.5-5.4,0.5-8.2,0.6c-0.5-0.2-0.7-0.6-1-0.9c-1.4,1.9-6.9,0.4-8.9-0.8c-1.6,0.6-3.1,0-4.9-0.6c-0.8-0.3-2-1-2.4-1.1
			c-0.3,0-1.1,0.5-1.4,0.6c-1,0.1-2.7-0.2-4.3-0.3c-2.2-0.1-4.4,0.3-5.4-1c-2.3,1.2-6.8,1.1-9.6-0.1c-1.2,2.1-6.1,1.4-8.1,0.1
			c-1.5,2.7-6.5,2-9.5,0.8c-0.5,1.4-1.7,1.8-2.6,2.8c0.8,0.1,1,0.5,1.8,0.6c1.3-3.5,3.3-1.6,2.9,1.2c0.8,0.3,1.5,0.7,2.2,1
			c0.9-0.1,1.1-1.3,2.2-1.1c0.7,0.5,0.5,1.7,0.8,2.5c1.3,0.6,2.5,1.4,3.9,2c0.6-0.2,0.7-1,1.4-0.9c0.8,0.1,0.3,1.1,0.9,1.3
			c6.7-0.1,13.3-0.3,19.9-0.5c-2.4,3.3-5.3,6.4-8.6,9.1c-0.1,0-0.1,0.1-0.2,0.1c-0.4-0.5-0.6-1.1-0.6-1.7c-0.7-0.2-0.6,0.9-1.4,0.6
			c-1.9-1.3-4.8-1.9-4.8-4.4c-1.5,1.2-5.4-1.1-5.8-3.2c-1.6,1.6-3.9-1.2-5.8-1.7c0.1-0.8-0.5-1.1-0.2-2c-1.4,1.6-3.1,0.6-5-0.4
			c-0.2-0.9,0-2-0.4-2.7c-0.6,0.6-0.8,1.7-1.7,1.9c-1.4-0.4-2.5-1-3.9-1.4c-0.3-0.7-0.3-1.5-0.3-2.4c-0.9,0.1-0.9,1.5-1.8,1.5
			c-1.7-0.4-3.1-1-4.3-1.7c-0.1-0.9-0.3-1.8-0.6-2.6c-0.5,0.6-0.7,1.7-1.3,2c-2.8-0.4-4.5-1.5-5-3.4c-0.4,0.6-0.5,1.6-1.1,1.8
			c-2.7-0.4-4.7-1.2-5.3-2.8c-0.2,0.5-0.2,1.3-0.5,1.5c-2.2-0.3-5.2-0.2-5.4-2.3c-0.2,0.5-0.1,1.5-0.7,1.4c-1.8-0.4-4.5-0.3-4.8-2
			c-0.4,2.1-4.4,0.9-4.6-0.5c-0.1,0.7-0.3,1.2-0.8,1.2c-1.6-0.3-3.6,0.1-4.3-1.3c-0.5,1.7-3.5,0.9-4.4,0c-0.1,0.2,0,0.9-0.4,0.8
			c-1,0.1-2.2,0.1-3.3,0.3c-0.1-0.3-0.2-0.6-0.3-0.9c1.6,0,3.1-0.1,4.2-1c1.1,0.8,1.8,0.9,3.3,0.9c0.1-0.6,0.2-1.2,0.6-1.3
			c0.8,0,0.8,0.5,1.3,0.6c5-5.6,11.3-9.4,17.1-13.6c5.9-4.2,11.9-8.3,17.5-13c0-0.2,0.3-0.2,0.1-0.3c-17.7,4.4-33.7,4.6-45.9,17.6
			c-0.2-2.8-0.2-5.7,0.1-8.6c1.3-13.2,7.6-25,17.8-33.4c8.8-7.3,20-11.3,31.4-11.3c9.3,0,18.2,2.6,25.9,7.3
			c-5.9,8.1-12.6,15-19.6,21.3c-7,6.4-14.3,12.3-21.8,17.7c-7.7,5.5-15.9,10.4-22.1,17.1c1,0.2,1.6,0,2.6,0.2c0.1-0.7,0.3-1.3,1-1.2
			c1.1,0.7,1.5,1.9,3.5,1.7c0.5-0.5,0.5-1.6,1.4-1.4c0.5,1.3,2.1,2.3,4.2,2.2c0.2-0.8,0.3-1.8,1-1.9c0.3,0.3,0.7,0.5,0.8,0.9
			c0.8-1.1,1.8-2,3.5-1.6c-0.4-0.1,0.1-0.7,0.1-1c1.8-1.1,2.9-3.4,5.6-3.1c1.2-3.1,3.6-4.3,6.9-4c-0.5-0.2-0.1-0.9,0-1.4
			c2-1.4,3.5-3.5,6.8-2.8c-0.3-0.3-0.2-0.8,0-1.4c2.2-0.7,5.4-4.9,8-2.9c0.9,0-0.7-0.7-0.2-1.4c2.6-1.6,4.7-4.7,8.7-2.8
			c-0.7-0.5-1.3-1.1-1.3-2c1.9-1.7,3.7-3.7,5.9-5c0.7,0.1,1.2,0.3,1.6,0.5c-1-1.6,0-2.3,1.5-4.1c1.2-1.5,1.9-3.1,3.9-2.4
			c-2.1-2.1,1.6-5,2.4-7.3c0.7-0.2,1.7,0,2.5-0.1c-3.4-1.4,0-4.7,0.9-7c0.7-0.4,1.8-0.1,2.6-0.5c-3.2-1.5,0.4-5.4,1.3-7.8
			c0.6-0.2,1.7,0.3,2.2-0.2c-2.7-1.5-0.1-5.3,1-7.3c0.7-0.2,1.3-0.5,2.2-0.4c-1.2-1.4-1.7-2.6-0.9-5.5c0.9-3,2.1-6.3,3.6-6.7
			c-2.3-0.6-0.6-3.7-0.1-6.3c0.4-2.4,0.6-4.6,0.7-6.2c0.2-0.6,1-0.2,1.2-0.8c-1.5-0.7-0.8-2-0.6-3.6c0.5-3,0.2-6.7,0.6-9.3
			c0.1-0.7,0.8-0.4,1.1-0.8c-0.7-0.3-0.9-0.8-1.1-1.5c-0.7-2.7,0-6.6-0.7-9.4c0-0.7,0.5-0.5,0.7-0.9c-0.6-0.3-1-0.7-1.3-1.2
			c-0.5-4-2.8-9.1-3.6-12.5c1-0.3,1.6,2.4,1.9,3.1c1.1,2.9,2,6.3,2.6,9.2c0.3,0.5,1.3,0.6,1.5,1.2c-0.1,0.9-0.8,0.7-1,1.3
			c0.4,3,0.6,6.1,0.7,9.3c0.5,0.6,1.4,0.9,1.3,1.9c-0.2,0.7-1.2,0-1.4,0.7c-0.1,3.6,0,7-0.9,11c0.3,0.9,1.6,1.1,1.8,2
			c-0.3,0.9-1.6,0.2-2.1,0.7c-0.1,3.3-0.9,7-1.8,10.8c0.7,0.6,2.3,0.7,2.2,1.7c-0.6,0.5-1.6,0.4-2.4,0.7c-0.5,2.6-3,5.8-2.7,8.2
			c0.2,1.5,1.6,1.7,2.3,3c-0.7,1-2.3,0.4-3.3,0.8c-0.6,1.5-1.5,2.8-2.1,4.4c0.2,1.4,2.1,1.8,2.4,3.2c-0.8,0.6-2.6-0.2-3.7,0
			c-0.6,2.1-1.6,3.4-2.3,5.3c0.4,1.1,2.4,1.3,3,2.4c0.2-0.6,0.4-1.1,0.6-1.6c0.9,0.9,1.8,1.9,2.6,2.9c2.6,3.1,4.8,6.5,6.6,10.1
			c-0.5,0.1-1,0.3-1.4,0.5c-0.2,0-0.4-0.1-0.6-0.1c-1.7-3.2-3.7-6.3-6-9.2c-0.7-0.8-1.3-1.6-2-2.3c0-0.1,0-0.1,0-0.2
			c-0.9,0.7-2.8-0.1-3.9,0.3c-0.6,1.8-1.7,2.7-2.2,4.4c0.1,1.2,2,1.2,2.5,2.1c-0.5,1.5-2.6,0.4-3.8,0.7c-0.7,2.2-2.1,3.3-2.7,5.5
			c0.5,0.7,1.4,1.1,1.7,2c-0.7,0.7-2.4-0.2-3.5-0.1c-0.9,1.8-2.3,2.8-3.3,4.3c0.3,0.7,1.4,1,1.5,1.9c-0.5,1.2-2.2-0.1-3.3-0.2
			c-1.9,1.2-3.4,3-5.2,4.4c0.5,0.9,1.9,1.3,1.9,2.5c-1.7,0.8-2.9-0.8-4.4-0.8c-2,0-3.1,2.6-4.8,3.3c0.5,0.8,1.9,1,1.6,2.3
			c-1.6,0.2-2.5-0.9-3.9-1.2c-0.5,0.8-5.7,2.5-5.9,3.4c-0.1,0.8,1.5,0.8,1.3,1.9c-1.2,0.9-2.1-0.5-3.2-0.6c-1.9-0.1-3.5,2-4.7,3.1
			c0.1,0.8,1.4,0.8,1.2,1.8c-0.8,1-2.1-0.4-3-0.7c-1.9,0.5-3.5,1.3-4.7,3c-0.1,0.7,0.5,1.1,0,1.7c-2.5-1.5-4,1.3-5.8,2.2
			c-0.3,0.8,0.6,0.8,0.2,1.6c-0.5,0.4-1.4,0-2-0.3c-0.8,0.5-1.6,1-2.2,2c0.8,1,2.5,0.6,3.8,1c0.3-0.6,0.1-1.9,0.8-1.9
			c1.6,1.2,2.1,3.1,5.4,3.2c0.3-0.8,0.4-2,1.3-2c0.7,0.1,0.9,0.6,1,1.1c5.7-3,10.8-7,15.8-10.9c0.5,0.2,0.6-0.3,1.1-0.1
			c1.5-2.7,3.9-4,6.3-5.2c0-1.7,2.6-3.2,3.8-4.4c0.3-0.3,1.2,0.3,1.4,0c-0.2-0.4-0.5-0.8-0.2-1.4c2.1-2,3.6-5,6.6-5.7
			c-0.3-2.8,2.4-5.8,4.9-6.2c-1-2.6,2.5-5.2,3.6-8c0.5-0.2,1.2-0.2,1.8-0.3c-1.1-2.1,1.1-5.7,3-6.3c-0.2-0.2-0.3-0.4-0.4-0.6
			c0.3,0.4,0.7,0.8,1,1.2c2.2,2.7,4.1,5.6,5.7,8.7c-2.2,1.1-5.1,1.1-7.4,2.1c-0.4-0.1-0.9-0.2-1.3-0.3c-1.4,1.3-3.8,1-5.5,1.7
			c-0.2,0.9,0.8,1,0.2,2.2c-2.4,0.8-5.3,3.2-4.9,6.2c-2.7,1-4.5,3.5-6.5,5.5c-0.3,1,0.9,1,0.4,2c-0.6,0.3-1.4,0.3-2.3,0
			c-0.9,1.6-3.4,2.2-3.1,4.2c7.2-0.6,15.9-3.6,24-2.2c0.4,0.1,0.7,0.1,1,0.2c7,2.1-1.5,5.2-3.7,6.2c-1.1,0.5-2.3,1.2-3.4,1.7
			c-1.1,0.5-2.8,0.9-2.8,1.6c1.5,0.1,3.1,0.3,4.8,0.6c3.4-2.1,6.3-5.2,10.2-6.4c1.3-2.5,3.7-3.1,5.6-4.7c0,0,0.1,0,0.1,0
			c0.1,2.3,0,4.6-0.2,6.9c-0.3,2.7-0.7,5.3-1.4,7.9c-4.1-0.9-8.3-1.8-12.3-2.5c-12.4-2.2-23.6-1.2-33.9-0.5
			c-3.6,3.2-7.9,5.3-11.7,8.2c0.8,0.6,2,1,3.4,1.3c0.4-0.9,0.6-2,1.5-2.1c1.4,0.6,0.9,2.3,1.5,3.3c1.4,0.2,2,0.9,3.4,1.1
			c0.6-0.8,0.8-2,2-1.8c0.7,0.7,0.6,1.8,0.8,2.8c2.3,0.1,2.6-2.9,4.6-3.2c0,0.5,0.5,0.7,0.8,1.1c2.2,0.1,4.5,0.2,6.5-0.1
			c0.7-0.7,1.1-2,2.2-2.1c0.1,2.6,4.6,1.5,6.3,1.6c0.6-1.1,1.4-1.9,2.3-2.5c-0.1,0.6-0.5,1.4-0.3,1.9c2.8,0.4,5.3,0.3,7.7,0.2
			c0.7-0.7,1.2-1.6,2-2c-0.2,0.8-0.4,1.6-0.1,2.1c3.2,0.5,6.1,0.5,9.1,0.7c0.6-0.7,0.9-1.7,2-1.7c-0.2,0.6-0.2,1.1-0.2,1.5
			c1.9,0.4,3.3,1.2,5.3,1.5c0.9,0.1,1-1.1,2.2-0.5c0.4,0.4-0.6,0.8,0.3,0.9c1.7,0.6,4.5,0.9,6.4,0.9c0.7-0.1,0.6-1.6,1.7-1.2
			c0.8,0.1,0.1,1.2,0.9,1.3c2.2-0.2,4.6,0.6,6.5,0.1c0.9-0.3,1.2-1.2,2.2-1.1c0.2,0.2-0.1,0.8,0.3,0.9c2.5,0.2,4.9,0.1,7.3,0.1
			c0.1-0.7,0.3-1.3,1-1.2c1.3,1.4,6.7,1.9,8.1-0.1c-11.5-2.2-23.1-5.2-34.6-7.9c0.7-2.8,1.2-5.6,1.5-8.6c0.4-3.8,0.3-7.7-0.1-11.4
			c0.9-0.7,1.9-1.2,3.2-1.3c1-2.7,3.3-3.2,5.1-4.6c0.3-0.3,1.2,0.3,1.6,0c1.2-3.4,4.1-4,6.2-5.8c0.5,0.1,0.8,0.8,1.3,0.5
			c0.4-0.8,0.3-1.1,0.5-2c1.8-1.4,3.4-2.9,5.3-4.1c0.4,0.1,0.9,0.2,1.3,0.3c0.3-0.4,0.5-1.2,0.6-2c5.7-4.6,12.5-10.1,18-15.9
			c1.8-1.9,5.8-6,4.4-8.5c-0.2,0-0.3-0.1-0.5-0.1c-8,3.6-14.8,9.1-22.7,12.7c-0.5,0.1-1,0-1.6,0c-1.5,2.2-4.1,2.7-6.3,3.8
			c-0.7-0.1-0.7-0.4-1.3-0.3c-1.6,2.1-4.3,3.4-6.9,3.2c-1.6,2-4.3,2.4-6.6,3.4c-0.6,0-0.7-0.3-1.1-0.4c-1.4,1.8-3.7,2.2-5.9,2.7
			c-1.8-3.7-4.1-7.2-6.8-10.5c-0.9-1.1-1.9-2.2-2.9-3.2c0.4-0.4,0.8-0.7,1.5-0.8c-0.3-0.3-0.9-0.5-0.6-1.2c0.9-2.4,1.4-5.4,3.6-5.7
			c-1.7-1.3,0.3-7.2,2.2-7.6c-1.5-2.2,0.7-8.7,2.3-10.9c-1-3.1,1.4-8.3,1.5-12.1c0.1-0.7,0.8-0.3,0.9-1c-0.7,0-0.6-0.5-0.7-0.9
			c0.9-4.9,0-12.8,1.6-13.9c-1.9-0.1-1.6-6.1-2.3-9.1c0-0.5,0.9-0.1,0.9-0.7c-1.6-1.3-2.1-3.8-2.7-5.7c-1.2-3.5-2.7-6.6-5.1-9.2
			c-0.2,0-0.3-0.1-0.5-0.1c-0.5,2.9,0.4,5.8,0.8,8.6c1.6,10,1.7,21.5-2,35c-2.8,10.1-7,18.9-12.1,26.6c-8.6-5.3-18.6-8.3-29-8.3
			c-12.7,0-25.1,4.4-34.9,12.5C39.5,83.7,32.4,96.9,31,111.6s2.9,28.9,12.3,40.3c10.5,12.8,26,20.1,42.5,20.1
			c8.8,0,17.5-2.2,25.3-6.2c7.9,3.3,14.3,7,20.2,11.4c8.8,6.5,16,14,25.5,22.1c-0.5-4.7-4.6-7.1-5-11.8c-0.2-0.3-0.7,0-1.3-0.3
			c-1.4-2.5-4.3-4-4.5-7.2c-0.4-0.5-0.7,0.4-1.4,0c-1.9-2.3-4.7-4.1-5.2-7.3c-0.3,0.4-0.6,0.7-1.2,0.6c-1.5-1.5-3.6-2.7-3.6-5.2
			c-0.7-0.2-0.8,0.8-1.7,0.3c-1.7-1.6-4-2.9-4.2-5.5c-0.5,0.3-1,0.6-1.7,0.5c-1.5-1.7-4.4-2.6-4.4-5.4c-0.3,0.2-0.5,0.3-0.7,0.4
			c4.2-3.7,7.8-7.9,10.7-12.6c18.4-0.7,36.7-1.7,55.4-2.1C185.9,142.3,182.9,141.5,180.1,140.5 M139.3,122.1
			c-0.3,2.9-0.8,5.7-1.5,8.4c-0.7-0.2-1.3-0.3-2-0.5c0.7-2.7,1.2-5.4,1.5-8.2c0.3-3,0.3-5.9,0.1-8.8c0.7-0.4,1.3-0.9,1.9-1.4
			C139.7,115.1,139.7,118.6,139.3,122.1 M96.9,160.6c2.4,0.7,4.7,1.5,7,2.3c-5.7,2.3-11.9,3.4-18.1,3.4c-9.7,0-18.9-2.8-26.8-7.9
			C72.7,156.6,85.1,157,96.9,160.6 M85.8,170.7c-16.2,0-31.3-7.2-41.6-19.6C35,140,30.8,126,32.2,111.7c1.4-14.3,8.3-27.2,19.4-36.4
			c9.6-7.9,21.7-12.3,34.2-12.3c10.2,0,20,2.8,28.4,8.1c-0.4,0.6-0.8,1.1-1.2,1.7c-8.1-5-17.4-7.7-27.2-7.7
			c-12,0-23.6,4.2-32.9,11.8c-10.7,8.8-17.3,21.2-18.7,35c-1.3,13.8,2.8,27.2,11.5,37.9c9.9,12,24.5,18.9,40,18.9
			c7.4,0,14.6-1.6,21.3-4.6c0.9,0.3,1.7,0.7,2.6,1C102.3,168.8,94.1,170.7,85.8,170.7 M120.4,158.1c-0.4-0.2-0.8-0.6-1.3-1
			c-0.1-0.1-0.2-0.2-0.4-0.3c3.9-3.2,7.2-6.9,9.9-10.9c0.8,0,1.7-0.1,2.5-0.1C128.3,150.4,124.7,154.5,120.4,158.1"/>
	</g>
	<g>
		<polygon class="st0" points="29.9,128.3 29,122.8 27.5,123 28.1,126.7 25.1,127.2 24.6,123.9 23.1,124.2 23.7,127.5 20.9,127.9 
			20.3,124.4 18.9,124.7 19.8,130 		"/>
	</g>
	<g>
		<path class="st0" d="M18.5,121.9l10.3-0.3l0-1.7l-5,0.1c-0.9,0-2.4,0.1-3.4,0.2v0c1.2-0.4,2.5-0.9,8.3-3.7l-0.1-2.4l-10.3,0.3
			l0,1.7l4.7-0.1c1,0,2.7-0.1,3.5-0.2l0,0c-0.7,0.3-2.3,0.9-8.1,3.6L18.5,121.9z"/>
	</g>
	<g>
		<path class="st0" d="M26.1,108.3l3.2-0.6l0.2-2l-3.7,0.8c-1,0.2-1.5,0.5-1.7,1.2l0,0c-0.1-1.2-0.9-2.2-2.2-2.3
			c-2.3-0.3-2.9,1.5-3.2,3.7l-0.3,2.2l10.2,1.2l0.2-1.9l-4.4-0.5l0-0.4C24.7,108.8,25,108.5,26.1,108.3 M23.3,109.5l-0.1,0.5
			l-3.1-0.4l0-0.4c0.2-1.4,0.6-2.1,1.7-2C23,107.3,23.4,108.1,23.3,109.5"/>
	</g>
	<g>
		
			<rect x="24.1" y="97.4" transform="matrix(0.2192 -0.9757 0.9757 0.2192 -80.4859 104.5036)" class="st0" width="1.9" height="10.3"/>
	</g>
	<g>
		<path class="st0" d="M32.2,96.7c0.2-0.6,0.3-1,0.3-1.6l-1.6-0.4c0,0.5,0,0.9-0.2,1.4c-0.6,1.8-2.4,2.4-4.5,1.7
			c-1.9-0.6-3.2-2.1-2.6-4c0.1-0.4,0.4-0.8,0.7-1.2L22.8,92c-0.3,0.4-0.5,0.9-0.7,1.4c-1,2.9,0.5,5.4,3.4,6.3
			C28.7,100.7,31.3,99.6,32.2,96.7"/>
	</g>
	<g>
		<polygon class="st0" points="35.2,89.5 36.1,87.8 26.8,83.3 26,85 29.8,86.9 28.4,89.7 24.6,87.8 23.8,89.5 33,94.1 33.9,92.4 
			29.8,90.3 31.2,87.5 		"/>
	</g>
	<g>
		<polygon class="st0" points="40.1,81.7 38.9,80.9 36.8,84 34.3,82.3 36.1,79.5 34.9,78.7 33,81.5 30.7,79.9 32.7,77 31.5,76.2 
			28.4,80.7 37,86.4 		"/>
	</g>
	<g>
		<path class="st0" d="M42.3,79.1c2.3-2.5,2.5-5.2-0.2-7.5c-2.7-2.5-5.2-2-7.4,0.6l-1.5,1.7l7.7,6.9L42.3,79.1z M35.8,73.1
			c1.5-1.7,3.2-1.7,5-0.1c1.9,1.7,1.9,3.4,0.5,5L41,78.3l-5.5-4.9L35.8,73.1z"/>
	</g>
	<g>
		<path class="st0" d="M54.6,68.3l1.9-1.3l-4-9.7l-1.5,1c2.6,6,3.3,7.3,3.7,7.9l0,0c-0.5-0.6-1.5-1.7-6.1-6.2l-2,1.4
			c2.7,5.9,3.4,7.2,3.8,7.9l0,0c-0.5-0.6-1.5-1.6-6.2-6.2l-1.6,1.1l7.7,7.2l1.9-1.3c-2.9-6.4-3.5-7.4-3.8-8l0,0
			C48.8,62.5,49.5,63.3,54.6,68.3"/>
	</g>
	<g>
		
			<rect x="56.7" y="55.4" transform="matrix(0.8909 -0.4542 0.4542 0.8909 -21.23 32.7931)" class="st0" width="1.9" height="10.3"/>
	</g>
	<g>
		<polygon class="st0" points="65.6,62.7 62.4,54.5 64.5,53.7 64,52.2 57.9,54.7 58.5,56.1 60.6,55.2 63.9,63.4 		"/>
	</g>
	<g>
		<polygon class="st0" points="73.5,60.3 75.4,59.8 72.9,49.8 71,50.3 72.1,54.4 69,55.1 68,51.1 66.2,51.5 68.7,61.5 70.5,61.1 
			69.4,56.6 72.4,55.9 		"/>
	</g>
	<g>
		<path class="st0" d="M82.1,48.8l-3,10.4l1.9-0.1l0.7-2.5l3.4-0.1l0.8,2.4l2-0.1l-3.7-10.2L82.1,48.8z M82,55.2
			c0.8-3.2,1.1-4.2,1.2-4.9h0c0.2,0.7,0.5,1.7,1.5,4.8L82,55.2z"/>
	</g>
	<g>
		<polygon class="st0" points="89.6,48.7 88.7,59 93.9,59.4 94,57.9 90.8,57.7 91.5,48.9 		"/>
	</g>
	<g>
		<path class="st0" d="M100.3,50c-2.6-0.6-4.6,1.2-5.3,4.4c-0.7,3.2,0.4,5.5,3,6c2.6,0.6,4.5-1.1,5.2-4.4
			C103.8,52.9,102.8,50.5,100.3,50 M101.2,55.7c-0.5,2.3-1.6,3.5-2.9,3.2c-1.4-0.3-1.8-1.9-1.4-4.2c0.5-2.3,1.6-3.6,3-3.3
			C101.2,51.7,101.7,53.3,101.2,55.7"/>
	</g>
	<g>
		<polygon class="st0" points="111.4,55.2 111.9,53.8 106.8,51.9 103.3,61.6 108.6,63.5 109.1,62.1 105.6,60.8 106.6,58 109.8,59.1 
			110.3,57.7 107.1,56.6 108.1,54 		"/>
	</g>
	<g>
		<path class="st0" d="M86.5,193.2c-42,0-76.2-34.2-76.2-76.2s34.2-76.2,76.2-76.2c42,0,76.2,34.2,76.2,76.2S128.5,193.2,86.5,193.2
			z M86.5,45.5c-39.4,0-71.5,32.1-71.5,71.5s32.1,71.5,71.5,71.5c39.4,0,71.5-32.1,71.5-71.5S125.9,45.5,86.5,45.5z"/>
	</g>
</g>
<g>
	<path class="st0" d="M36.3,160.8L36.3,160.8c0.5-0.3,1.8-1,7.9-4l1.3,1.5l-9.9,4.6l-1.5-1.7l5.8-9.3l1.4,1.6
		C37.5,159.2,36.7,160.4,36.3,160.8z"/>
	<path class="st0" d="M47.3,159.7l-7.2,7.6l-1.4-1.3l7.2-7.6L47.3,159.7z"/>
	<path class="st0" d="M52.7,164.2l-1,1.2l-1.8-1.5l-5.6,7l-1.5-1.2l5.6-7l-1.9-1.5l1-1.2L52.7,164.2z"/>
	<path class="st0" d="M56.2,166.4l-2.8,10.6l-1.7-1.1l0.7-2.5l-3-1.9l-2,1.7l-1.6-1l8.5-7L56.2,166.4z M52.9,172
		c0.9-3.2,1.3-4.2,1.5-4.8l0,0c-0.5,0.5-1.3,1.2-3.8,3.4L52.9,172z"/>
	<path class="st0" d="M60.4,177.8L60.4,177.8c0.5-0.7,1.7-2.4,5.2-6.7l2.6,1.1l-4.1,9.6l-1.7-0.7l2.1-4.8c0.3-0.7,1.1-2.5,1.6-3.5
		l0,0c-0.7,0.9-1.9,2.5-5.9,7.3l-1.5-0.7c0.7-6.2,1-8.5,1.2-9.3l0,0c-0.4,1-1.2,2.9-1.4,3.5l-2.1,4.8l-1.6-0.7l4.1-9.6l2.7,1.2
		C61,174.9,60.6,177,60.4,177.8z"/>
	<path class="st0" d="M71.2,172.9L68.3,183l-1.9-0.5l2.9-10.1L71.2,172.9z"/>
	<path class="st0" d="M78,174.3l1.7,0.3L77.8,185l-2.4-0.4c-1.5-6.4-1.8-7.8-1.9-9.1l0,0c-0.1,1-0.4,2.5-0.5,3.4l-0.9,5l-1.7-0.3
		l1.9-10.3l2.5,0.5c1.4,6.3,1.7,8,1.8,8.8l0,0c0.1-0.8,0.4-2.6,0.6-3.5L78,174.3z"/>
	<path class="st0" d="M85.6,176.7c-0.7-0.4-1.3-0.5-1.8-0.5c-0.9-0.1-1.6,0.4-1.6,1.2c0,0.6,0.2,1.1,1.5,1.8
		c1.6,0.9,2.4,1.8,2.3,3.3c-0.1,2-1.6,3.2-3.7,3.1c-0.9,0-1.8-0.2-2.4-0.6l0.3-1.7c0.7,0.4,1.5,0.6,2.2,0.6c1,0.1,1.6-0.4,1.7-1.3
		c0-0.8-0.3-1.3-1.6-2c-1.7-0.9-2.2-1.7-2.1-3.1c0.1-1.8,1.5-2.9,3.5-2.8c0.8,0,1.5,0.2,2.2,0.5L85.6,176.7z"/>
	<path class="st0" d="M95.7,176c-0.5-0.1-0.9-0.2-1.4-0.1c-2,0.2-2.9,2-2.7,4c0.2,2.2,1.5,3.6,3.4,3.5c0.5,0,0.9-0.1,1.4-0.4
		l0.3,1.7c-0.5,0.2-1,0.3-1.6,0.4c-3.1,0.3-5.2-1.7-5.5-4.9c-0.3-3.1,1.4-5.5,4.5-5.8c0.6-0.1,1.1-0.1,1.6,0L95.7,176z"/>
	<path class="st0" d="M102.3,175.5l0.8,3l3-0.8l0.4,1.6l-3,0.8l0.8,3l-1.6,0.4l-0.8-3l-3,0.8l-0.4-1.6l3-0.8l-0.8-3L102.3,175.5z"/>
	<path class="st0" d="M111.6,169.4l0.6,1.4l-3.3,1.4l1.1,2.6l3.1-1.3l0.6,1.4l-3.1,1.3l1.2,2.8l3.5-1.5l0.6,1.4l-5.3,2.2l-4-9.7
		L111.6,169.4z"/>
</g>
</svg>
