<?xml version="1.0" encoding="utf-8"?>
<!-- Generator: Adobe Illustrator 27.8.1, SVG Export Plug-In . SVG Version: 6.00 Build 0)  -->
<!DOCTYPE svg PUBLIC "-//W3C//DTD SVG 1.1//EN" "http://www.w3.org/Graphics/SVG/1.1/DTD/svg11.dtd" [
	<!ENTITY ns_extend "http://ns.adobe.com/Extensibility/1.0/">
	<!ENTITY ns_ai "http://ns.adobe.com/AdobeIllustrator/10.0/">
	<!ENTITY ns_graphs "http://ns.adobe.com/Graphs/1.0/">
	<!ENTITY ns_vars "http://ns.adobe.com/Variables/1.0/">
	<!ENTITY ns_imrep "http://ns.adobe.com/ImageReplacement/1.0/">
	<!ENTITY ns_sfw "http://ns.adobe.com/SaveForWeb/1.0/">
	<!ENTITY ns_custom "http://ns.adobe.com/GenericCustomNamespace/1.0/">
	<!ENTITY ns_adobe_xpath "http://ns.adobe.com/XPath/1.0/">
]>
<svg version="1.1" id="a" xmlns:x="&ns_extend;" xmlns:i="&ns_ai;" xmlns:graph="&ns_graphs;"
	 xmlns="http://www.w3.org/2000/svg" xmlns:xlink="http://www.w3.org/1999/xlink" x="0px" y="0px" width="630px" height="340px"
	 viewBox="0 0 630 340" style="enable-background:new 0 0 630 340;" xml:space="preserve">
<style type="text/css">
	.st0{fill-rule:evenodd;clip-rule:evenodd;fill:#8F8F8F;stroke:#8F8F8F;stroke-width:0.5;stroke-miterlimit:10;}
	.st1{fill:#8F8F8F;stroke:#8F8F8F;stroke-width:0.5;stroke-miterlimit:10;}
</style>
<metadata>
	<sfw  xmlns="&ns_sfw;">
		<slices></slices>
		<sliceSourceBounds  bottomLeftOrigin="true" height="329.8504" width="613.8097" x="8.0958" y="5.0639"></sliceSourceBounds>
	</sfw>
</metadata>
<path class="st0" d="M295.59,165.78c0,0-0.06,0.01-0.08,0.01c0.01-0.02,0.02-0.03,0.03-0.05L295.59,165.78L295.59,165.78z"/>
<path class="st0" d="M295.62,165.72c0,0-0.04,0.07-0.06,0.1C295.44,165.79,295.46,165.76,295.62,165.72z"/>
<path class="st1" d="M390.59,187.6c-4.77,3.01-11.01,3.9-16.53,2.38c-0.62-0.17-1.29-0.42-1.58-0.96c-0.43-0.81,0.25-1.73,0.38-2.63
	c0.35-2.58-3.59-3.69-4.85-6.01c-0.5-0.92-0.54-1.98-0.62-3c-0.77-9.08-5.84-17.25-10.12-25.44c-0.31-0.6-0.62-1.24-0.49-1.9
	c0.13-0.65,0.93-1.21,1.56-0.89c-0.46,1.54,0.55,3.34,2.18,3.86c0.74-2.64,1.15-6.11-1.39-7.47c-0.86-0.46-1.9-0.54-2.9-0.59
	c-3.92-0.18-7.87,0.02-11.74,0.61c-0.65,0.1-1.36,0.2-1.92-0.11c-0.5-0.28-0.76-0.8-1.11-1.24c-0.95-1.19-3.49-1.83-4.84-0.8
	c-1.49,1.15-0.35,3.65-3.21,4c-1.62,0.2-3.18-0.58-4.6-1.33c-1.52-0.8-3.08-1.64-4.19-2.89c-0.39-0.45-0.74-0.96-1.27-1.26
	c-1.01-0.59-2.32-0.27-3.51-0.28c-1.2,0-2.65-0.82-2.33-1.89c0.1-0.33,0.36-0.6,0.57-0.89c1.5-2.15-0.49-5.21-3.11-5.98
	c-2.62-0.78-5.46,0-8.08,0.77c-3.94,1.16-7.88,2.32-11.81,3.47c-1.49,0.44-3.05,0.88-4.58,0.62c-1.32-0.22-2.7-0.95-3.9-0.41
	c-1.63,0.74-1.37,3-2.35,4.42c-0.94,1.35-2.95,1.79-3.92,3.13c-1.12,1.55-0.45,3.62-0.57,5.49c-0.23,3.6-3.41,6.34-6.21,8.84
	s-5.63,5.76-4.92,9.3c0.22,1.09,0.77,2.12,0.85,3.22c0.06,0.92-0.19,1.82-0.45,2.7c-0.82,2.79-1.64,5.58-2.46,8.37
	c2.75,4.53,5.79,8.9,9.11,13.09c1.63,2.07,3.37,4.12,5.63,5.58s5.15,2.28,7.81,1.62c1.19-0.3,2.31-0.87,3.53-0.99
	c1.71-0.17,3.39,0.58,5.11,0.51c2-0.08,3.74-1.24,5.36-2.36c1.61-1.11,3.36-2.27,5.36-2.32c2.01-0.05,4.17,1.57,3.74,3.39
	c-0.09,0.4-0.3,0.8-0.24,1.2c0.13,0.87,1.34,1.17,2.27,1.05s1.93-0.44,2.77-0.05c1.15,0.53,1.28,2.04,0.9,3.18
	c-0.52,1.55-1.63,2.85-2.36,4.31c-0.74,1.47-1.04,3.32,0,4.61c0.54,0.67,1.37,1.08,2.04,1.64c1.12,0.92,1.79,2.23,2.33,3.52
	c2.33,5.55,2.85,11.74,1.55,17.58c-0.57,2.58-2.33,4.68-2.89,7.06c-0.62,2.69,1.68,5.69,3.02,7.87c2.06,3.33,3.27,7.11,3.53,10.94
	c0.1,1.53,0.07,3.13,0.82,4.49c0.57,1.02,1.51,1.8,2.3,2.69c2.99,3.4,3.37,8.12,3.62,12.52c0.63,0.78,1.93,0.77,2.88,0.36
	c0.95-0.42,1.72-1.13,2.64-1.6c2.32-1.16,5.16-0.56,7.78-0.83c4.51-0.47,8.46-3.94,9.24-8.1c0.22-1.16,0.22-2.37,0.76-3.43
	c0.8-1.6,2.73-2.68,2.99-4.43c0.1-0.69-0.08-1.41,0.08-2.1c0.51-2.16,4.06-2.83,4.36-5.03c0.15-1.05-0.54-2.02-0.98-3
	c-1.3-2.91-0.2-6.58,2.52-8.45c1.02-0.7,2.21-1.15,3.25-1.82c5.01-3.24,4.9-10.26,2.79-15.58c-0.82-2.08-1.88-4.18-1.73-6.39
	c0.1-1.46,0.73-2.84,1.46-4.13c1.83-3.25,4.38-6.15,7.43-8.47c1.99-1.51,4.27-2.87,5.4-5.02c0.69-1.31,0.89-2.8,1.43-4.17
	c0.99-2.5,3.05-4.46,4.66-6.66c1.61-2.2,2.8-5.01,1.75-7.48L390.59,187.6z M361.39,241.68c-0.14,0.91-1.24,1.77-2.09,1.29
	c-0.03-2.44-0.59-4.85-1.16-7.23c-0.27-1.14-0.54-2.29-0.81-3.43c-0.12-0.53-0.3-1.13-0.81-1.38c-0.37-0.18-0.83-0.15-1.17-0.38
	c-0.5-0.34-0.47-1.08-0.89-1.51c-0.55-0.56-1.57-0.36-2.26-0.77c-0.69-0.4-0.85-1.25-0.94-2l-1.04-8.27
	c-0.04-0.32-0.07-0.67,0.11-0.94c0.2-0.31,0.6-0.42,0.96-0.55c1.55-0.55,2.86-1.66,3.58-3.05c0.31-0.59,0.51-1.23,0.93-1.76
	c1.51-1.91,3.53-1.34,3.71,0.53c0.24,2.6-0.87,2.27-2.43,3.18c-1.2,0.7-3.26,1.88-4.09,3.04c-1.24,1.76-0.14,2.25,0.72,3.96
	c0.79,1.58,0.04,3.72,1.28,5.03c0.81,0.85,2.16,1,3.19,1.61c1.61,0.95,2.2,2.87,2.31,4.64s-0.14,3.57,0.34,5.29
	C361.0799,239.88,361.5199,240.76,361.39,241.68L361.39,241.68z"/>
<path class="st1" d="M376.98,245.45c-1.02,1.74,1.07,3.76,0.9,5.73c-0.17,2.02-2.61,3.3-3.11,5.27c-0.2,0.81-0.06,1.67,0.15,2.48
	c0.39,1.56,0.97,3.08,1.74,4.52c0.25,0.46,0.52,0.92,0.92,1.28c1.25,1.09,3.4,0.72,4.62-0.4c1.21-1.12,1.68-2.76,1.93-4.33
	c0.25-1.57,0.35-3.2,1.03-4.66c0.98-2.13,3.15-3.92,3.03-6.23c-0.06-1.15-0.71-2.21-1-3.33s-0.04-2.55,1.09-3.03l0.37,2.21
	c3.22-0.94-0.73-10.83-4.22-5.83c-1.42,2.04-0.01,3.41-2.84,4.47c-1.52,0.57-3.68,0.28-4.6,1.85L376.98,245.45z"/>
<path class="st1" d="M621.63,69c-0.08-0.34-0.37-0.6-0.66-0.84c-1.94-1.66-4.1-3.09-6.42-4.23c1.46-0.12,2.98-0.25,4.28-0.9
	c1.3-0.64,2.35-1.94,2.16-3.3c-0.33-2.33-3.86-3.68-3.5-6c0.17-1.05,1.14-2.1,0.61-3.04c-0.37-0.64-1.26-0.81-2.04-0.91
	c-4.09-0.51-8.17-1.03-12.27-1.53c0.18,1.45-0.25,3.07-1.51,3.94c-1.27,0.87-3.41,0.58-4.01-0.77c-0.2-0.47-0.22-1.03-0.57-1.43
	c-0.73-0.87-2.2-0.36-3.32,0.04c-2.4,0.87-5.16,0.87-7.56,0c-0.47-0.18-0.97-0.41-1.16-0.85c-0.29-0.64,0.19-1.34,0.23-2.03
	c0.06-1.18-1.25-2.1-2.52-2.21c-1.26-0.1-2.49,0.37-3.71,0.74c-3.53,1.07-7.71,1.2-10.61-0.95c-0.86-0.63-1.57-1.44-2.49-1.98
	c-1.3-0.77-2.9-0.93-4.44-1.07c-3.95-0.37-7.89-0.75-11.84-1.12c-0.38-0.04-0.82-0.06-1.13,0.15c-0.51,0.35-0.42,1.07-0.59,1.63
	c-0.32,1.09-1.65,1.67-2.86,1.75c-1.22,0.08-2.45-0.19-3.65-0.06c-0.9,0.09-1.78,0.4-2.68,0.36c-0.91-0.05-1.9-0.64-1.87-1.48
	c-1.13,0.66-1.88,1.86-1.93,3.12c-2.3,0.24-5.19-1.29-4.69-3.4c0.14-0.54,0.48-1.03,0.53-1.58c0.31-3.43-8.8-4.19-10.85-2.71
	c-0.56,0.4-1,0.95-1.52,1.38c-2.23,1.81-6.24,1.09-7.59-1.37c-3.22-0.37-6.49-0.36-9.72,0.04c-1.31-2.07-4.72-1.09-6.9,0.2
	s-5.36,2.56-7.02,0.72c5.51-1.16,10.73-3.49,15.16-6.75c0.44-0.33,0.93-0.77,0.83-1.3c-0.06-0.36-0.4-0.62-0.73-0.84
	c-2.04-1.32-4.55-2.02-7.04-1.96c-1.82,0.04-3.98,0.35-5.14-0.96c-0.72-0.8-0.79-2.03-1.67-2.69c-0.84-0.63-2.03-0.48-3.09-0.32
	c-2.34,0.39-4.69,0.79-7.03,1.18c-0.36,0.06-0.76,0.14-1.02,0.38c-0.33,0.34-0.31,0.85-0.34,1.31c-0.2,2.88-4.09,4.91-6.84,3.57
	c-0.86-0.42-1.59-1.09-2.52-1.36c-1.18-0.33-2.44,0.05-3.59,0.42c-4.86,1.57-9.71,3.14-14.56,4.7c1.3,0.83,3.01,1.09,4.53,0.72
	c0.46,0.76-0.73,1.43-1.64,1.61c-3.71,0.72-7.4,1.44-11.11,2.15c2.12,1.5,4.17,3.09,6.14,4.75c0.95-0.62,1.85,1,1.49,2.03
	c-0.35,1.04-1.02,2.32-0.17,3.06c-1.13-0.36-2.11-1.13-2.66-2.14c0.59-0.4,1.16-0.82,1.76-1.23c-1.29,0.25-2.71-0.54-3.1-1.72
	c-2.36-0.42-4.62-1.37-6.51-2.75c-0.38,0.83,0.14,1.91,1.06,2.22c-0.87,0.11-1.75,0.21-2.62,0.31c0.29,1.26,1.5,2.29,2.88,2.44
	c-1.74,0.41-3.67,0.03-5.09-1c1.29-1.81-0.6-4.69-2.93-4.44c1.33,0.17,1.56,1.95,0.97,3.08s-1.63,2.15-1.61,3.4
	c0.02,1.54,1.56,3.38,0.28,4.36c1.56,1.21,4.46-1,5.76,0.44c0.4,0.45,0.44,1.07,0.61,1.64c0.51,1.69,2.5,2.86,4.35,2.56
	c-1.07,1.58-3.61,0.02-4.78-1.5c-1.15-1.52-3.76-3.03-4.76-1.42c-0.33,0.53-0.26,1.17-0.26,1.78c-0.06,4.39-5.59,7.87-9.99,6.28
	c1.67-1.92,5.6-1.16,6.88-3.32c0.52-0.89,0.38-1.97,0.22-2.97c-0.52-3.25-1.03-6.51-1.55-9.76c0.31-1.5,0.42-3.04,0.35-4.56
	c-1.84,0.6-4.81,0.52-4.74-1.29c-1.57,2.42-3.13,4.82-4.7,7.24c-0.95,1.45-1.67,3.74-0.04,4.5c1.09-0.41,2.36,0.44,2.67,1.51
	c0.32,1.06-0.08,2.18-0.6,3.17c-2.35-6.05-14.24-3.26-17.33-9.02c-1.42,0.51-0.13,2.54,1.3,3.03c1.44,0.48,3.41,1.34,2.88,2.67
	c-0.4,1.05-1.95,1.05-3.13,0.97c-3.43-0.23-6.94,0.51-9.94,2.09c-0.26-1.12-0.54-2.24-0.8-3.35c-2.5,1.65-5.01,3.29-7.51,4.95
	c-1.22,0.8-2.51,1.63-3.99,1.78c-1.48,0.14-3.19-0.69-3.38-2.06c-0.19-1.38,1.96-2.58,2.91-1.52c0.41-2.52-3.29-4.63-5.52-3.14
	c1.47,2.33,1.51,5.38,0.08,7.74c-0.53,0.88-1.34,1.71-2.4,1.86c-1.07,0.15-2.3-0.71-2.08-1.7c-1.36,1.11-2.12,2.82-2.02,4.5
	c-2.2,0.67-4.83-0.13-6.19-1.88c0.17,0.98,0.34,1.94,0.51,2.92c-1.59,1.59-5.06,0.44-5.22-1.73c-0.04-0.64,0.14-1.27,0.14-1.91
	c0-2.19-2.08-3.82-3.96-5.13c2.82,1,5.65,1.99,8.47,2.99c1.59,0.56,3.28,1.13,4.95,0.84c2.44-0.43,4-3.48,1.84-5.06
	c-3.89-2.83-8.37-4.96-13.11-6.23c-1.37-0.36-2.83-0.66-4.17-0.26c-1.1,0.33-2.57,0.98-3.17,0.06c1.1,0.15,2.29-0.25,3.04-1.03
	c-2.3-0.47-4.63-0.78-6.98-0.89c-2.71,2.24-4.55,5.41-3.77,8.61c1.21,4.92,8.07,9.04,5.56,13.51c2.36-0.49,4.83-0.98,7.17-0.42
	c1.26,0.29,2.48,0.98,3.3,1.9c-0.01-0.05,0-0.1,0.01-0.15c0.7-0.22,1.45-0.44,2.17-0.26c0.71,0.18,1.29,0.96,0.93,1.57
	c-0.24,0.42-0.88,0.78-0.66,1.21c0.15,0.28,0.54,0.32,0.85,0.4c0.87,0.25,1.36,1.29,0.95,2.05c-1.25-0.07-2.5-0.13-3.75-0.18
	c-0.42,0.85-1,1.66-1.4,2.5c-1.68,3.54-0.46,7.6-0.32,11.47c0.06,1.98-0.42,4.19-1.48,5.91c0.25-0.05,0.51-0.1,0.76-0.14
	c4.71-0.75,10.09,0.36,12.98,3.92c2.88,3.55,1.92,9.65-2.51,11.32c-1.68,0.63-3.64,0.61-5.18,1.51c-0.62,0.36-1.09,0.99-1.3,1.65
	c2.86-1.51,5.8-2.96,9.03-3.52c-0.71,1.42-2.12,2.5-3.74,2.88c0.54,0.33,0.36,1.17-0.18,1.5c-0.54,0.33-1.25,0.27-1.87,0.15
	c-0.64-0.12-1.29-0.28-1.92-0.13c-0.55,0.13-0.98,0.52-1.2,1.01c-0.11,0.22-0.16,0.45-0.16,0.69c0,0.17,0.03,0.32,0.08,0.47
	c1.64-1.28,4.27-1.32,5.94-0.07c0.65,0.48,1.15,1.11,1.84,1.55c0.76,0.47,1.76,0.69,2.34,1.36c0.57,0.68,0.17,2.04-0.73,1.86
	c-0.03,0.42,0.44,0.73,0.89,0.81c0.44,0.08,0.93,0.05,1.33,0.24c0.93,0.45,0.76,1.85-0.05,2.47c-0.82,0.61-1.95,0.66-3,0.67
	c-2.75,0.04-5.6,0.06-8.12-0.99c-1.19-0.48-2.26-1.2-3.48-1.61c-1.22-0.4-2.7-0.44-3.7,0.34c-0.47,0.36-0.77,0.88-1.22,1.27
	c-1.07,0.96-2.88,1.08-4.09,0.29c-1-0.67-1.48-1.91-1.25-3.04c-1.14,1.07-2.12,2.32-2.82,3.67c0.6,1.6,1.21,3.21,1.81,4.81
	c0.2,0.52,0.39,1.04,0.59,1.55c0.58,1.57,1.54,3.4,3.3,3.51c2.24,0.14,4.49-2.7,6.27-0.14c0.34,0.49,0.44,1.08,0.44,1.68
	c-0.01,1.16,1.7,2.62,2.63,1.72c-0.11-0.84-0.2-1.74,0.21-2.5c0.41-0.75,1.55-1.21,2.27-0.69c0.49,0.35,0.58,1,0.61,1.56
	c0.04,0.84,0,1.69-0.12,2.51c-0.28,1.98-1.12,4.04-2.92,5.11c-1.41,0.83-3.42,1.42-2.28,3.18c0.26,0.38,1.33-0.06,1.63,0.32
	c0.67,0.87,0.2,1.78,0.3,2.81c0.18,2.18,2.84,3.27,4.29,4.99c2.01,2.37,1.59,5.76,2.58,8.64c2.02,5.89,9.99,9.66,9.54,15.83
	c-0.18,2.4-1.44,5.4,0.68,6.78c1.42,0.92,3.36,0.27,4.92-0.41c2.93-1.26,5.88-2.53,8.82-3.81c1.2-0.51,2.47-1.09,3.08-2.19
	c0.32-0.57,0.42-1.24,0.87-1.74c0.66-0.72,1.79-0.82,2.75-1.11c2.17-0.68,3.62-2.58,4.71-4.47c1.18-2.04,2.1-4.21,2.75-6.45
	c0.17-0.59,0.33-1.21,0.17-1.81c-0.57-2.18-4.67-2.39-4.88-4.63c-0.08-0.94,0.61-1.77,0.94-2.65c0.33-0.89-0.03-2.2-1.04-2.19
	c-0.6,1.66-1.26,3.38-2.6,4.6c-1.36,1.22-3.64,1.74-5.13,0.66c-1.1-0.79-1.46-2.16-2.21-3.24c-1.14-1.68-3.22-2.69-4.21-4.45
	c-1-1.76,0.47-4.71,2.44-3.95c0.96,3.32,3.41,6.24,6.65,7.92c2-0.63,3.93-1.48,5.73-2.52c0.9-0.67,2.09,0.58,2.18,1.65
	c0.1,1.07-0.08,2.38,0.85,3c0.48,0.33,1.11,0.35,1.7,0.35c4.85,0,9.69-0.52,14.4-1.56c-0.96,2.62,1.63,5.78,4.61,5.58
	c-0.36,1.07-1.51,1.87-2.72,1.88c0.58,1.06,1.2,2.16,2.23,2.87c1.04,0.7,2.62,0.86,3.53,0.02c0.86-0.78,0.97-2.23,2.09-2.66
	c1.29-0.5,2.57,1.01,2.47,2.31c-0.11,1.3-0.98,2.42-1.45,3.65c-0.94,2.51-0.06,5.28,0.8,7.81c1.68,4.89,3.43,9.91,6.87,13.93
	c1.24-1.08,2.48-2.16,3.72-3.24c1.67,0.27,1.73,2.5,1.2,3.99c-0.54,1.51-1.04,3.53,0.41,4.35c1.3,0.73,3.05-0.44,3.34-1.82
	c0.29-1.39-0.39-2.76-1.05-4.03c-0.86-1.63-1.7-3.26-2.55-4.9c-0.3-0.56-0.6-1.16-0.55-1.79c0.04-0.54,0.33-1.03,0.57-1.52
	c0.76-1.59,1.01-3.4,0.67-5.12c4.54-2.15,8.34-5.64,10.68-9.86c0.36-0.63,0.7-1.3,1.32-1.73c1.86-1.26,5,0.51,6.65-1
	c2.3,0.8,4.24,2.44,5.33,4.49c0.79,1.5,1.54,3.49,3.32,3.62c-2.74,1.05-4.61,3.83-4.39,6.58c2.76,0.65,5.81-1.78,5.54-4.42
	c1.08-0.57,2.51,0.13,3.08,1.15c0.57,1.03,0.51,2.25,0.43,3.39c-0.21,3.48-0.43,6.95-0.65,10.42c-0.06,1.04-0.11,2.15,0.51,3.01
	c0.58,0.81,1.68,1.26,2.09,2.17c0.6,1.33-0.6,3.01,0.18,4.26c0.42,0.66,1.26,0.96,1.91,1.42c1.38,0.99,1.84,2.71,2.84,4.04
	c1,1.33,3.29,2.2,4.37,0.93c-2.3-1.68-3.77-4.3-3.92-7.02c-0.03-0.62-0.01-1.27-0.29-1.83c-0.34-0.71-1.07-1.17-1.68-1.7
	c-3.6-3.07-3.16-8.36-2.42-12.86c1.67,2.28,4.35,3.89,7.27,4.36c-0.94,1.8-0.13,4.22,1.75,5.21c0.13-1.77,1.55-3.38,3.38-3.85
	c0.79-0.21,1.64-0.22,2.39-0.52c2.26-0.91,2.5-3.75,2.38-6.03c-0.04-0.9-0.1-1.83-0.61-2.58c-0.87-1.23-2.63-1.52-4-2.25
	c-2.47-1.3-3.67-4.37-2.68-6.85c0.98-2.48,4.04-4.07,6.83-3.55c0.92,0.37,0.51,1.74-0.3,2.3c-0.8,0.56-1.91,0.9-2.28,1.77
	c-0.53,1.2,1.04,2.54,2.4,2.27c1.37-0.27,2.24-1.62,2.34-2.92c0.08-1.3-0.42-2.56-0.93-3.79c2.94,0.6,6.18-0.36,8.21-2.44
	c0.57-0.58,1.08-1.26,1.81-1.66c1.43-0.78,3.47-0.36,4.65-1.45c0.9-0.84,0.84-2.18,1.11-3.33c0.52-2.15,2.3-3.8,3.36-5.76
	c1.04-1.96,2.08-4.98,1.51-7.15c-0.4-1.58-1.28-3.01-1.88-4.53c-0.43-1.07-0.73-2.19-0.89-3.33c-0.06-0.46-0.11-0.98,0.13-1.39
	c0.41-0.74,1.43-0.92,2.19-1.35c1.13-0.65,1.73-2.02,1.39-3.21c-3.14,0.98-6.83,0.24-9.25-1.87c0.7-1.26,2.26-1.85,3.6-2.52
	c1.36-0.66,2.76-1.75,2.7-3.18c0.86,0,1.7,0,2.55,0c0.06,1.3-0.59,2.61-1.69,3.41c1.16,0.94,2.91,0.05,4.29-0.62
	c1.37-0.67,3.65-0.67,3.82,0.76c0.16,1.37-2.08,2.3-1.77,3.65c1.57-0.49,3.24,1.45,2.39,2.77c-0.23,0.35-0.6,0.7-0.54,1.11
	c0.07,0.5,0.71,0.7,1.19,0.95c1.32,0.65,1.9,2.35,1.22,3.59c0.92-0.67,1.84-1.33,2.76-2c0.21,0.79,1.16,1.32,2.02,1.14
	c0.85-0.19,1.44-1.07,1.25-1.86c-0.18-0.78-0.95-1.32-1.21-2.07c-0.38-1.13,0.49-2.4,0.06-3.52c-0.33-0.88-1.33-1.34-2.15-1.89
	s-1.55-1.55-1.06-2.37c0.3-0.5,0.93-0.71,1.45-1.01c2.59-1.5,3.14-5.77,6.19-5.87c0.61-0.02,1.22,0.16,1.82,0.08
	c1.74-0.23,2.34-2.19,3.16-3.64c1.8-3.22,5.99-4.79,7.89-7.98c1.45-2.45,1.28-5.43,2.14-8.13c0.62-1.95,1.81-3.98,1.08-5.91
	c-0.91-2.4-5.07-2.87-6.58-0.74c0.24-1.2,0.49-2.41,0.74-3.62c-0.91,2.73-6.96,0.27-1.69-2.41c3.52-1.77,6.66-4.21,9.19-7.09
	c0.86-0.98,1.67-2.03,2.8-2.74c4.14-2.6,9.84,0.62,14.69-0.51c0.17,0.44,0.33,0.89,0.5,1.33c-1.3,0.5-2.59,1.02-3.89,1.52
	c2.73,1.19,5.68-1.64,8.69-1.52c0.88,0.03,2.15,0.04,2.2-0.77c-0.82-0.12-1.86-0.53-1.72-1.28c0.05-0.28,0.26-0.49,0.48-0.69
	c0.78-0.78,1.58-1.55,2.37-2.33c1.32-1.3,3.46-2.68,4.98-1.56c1.14,0.86,0.61,2.92-0.83,3.2c0.94,0.88,2.54,0.08,3.48-0.81
	c0.94-0.88,2.16-1.94,3.41-1.49c0.35-0.65,0.35-1.45,0.02-2.1c1.01-0.52,2.24-0.64,3.34-0.33c-0.67,0.52-1.12,1.28-1.26,2.09
	c-0.1,0.52-0.05,1.06-0.22,1.56c-0.6,1.87-3.29,2.09-5.19,2.95c-3.35,1.51-4.51,5.5-7.52,7.52c-0.74,0.5-1.58,0.88-2.19,1.51
	c-1.32,1.36-1.15,3.48-0.54,5.23c0.64,1.75,1.64,3.42,1.76,5.26c0.02,0.35,0.01,0.69-0.02,1.03c-0.14,1.22,1.47,1.9,2.39,1.04
	c0.22-0.22,0.44-0.42,0.67-0.63c1.07-1.03,2.18-2.08,2.72-3.42c0.37-0.95,0.54-2.1,1.48-2.59c0.69-0.36,1.55-0.21,2.33-0.34
	c0.78-0.12,1.62-0.86,1.23-1.51c-1.28-0.85-1.06-2.99,0.36-3.61c0.59,0.26,1.19,0.52,1.78,0.79c1.41-0.6-0.72-2.75,0.05-4
	c0.3-0.48,1.01-0.78,0.98-1.33c-0.02-0.69-1.07-0.81-1.8-0.7c-0.49-2.24,1.18-4.69,3.55-5.25c-0.04,0.46-0.08,0.94-0.13,1.4
	c1.18-0.69,2.35-1.38,3.53-2.08c0.21,0.53,0.41,1.07,0.61,1.61c1.41,0.68,2.51-2.31,3.97-1.76c0.32,0.13,0.53,0.39,0.79,0.59
	c1.05,0.8,2.93,0.19,3.22-1.05c1.09-4.67,7.19-4.89,12.3-5.29c1.19-0.09,2.83-0.57,2.55-1.66L621.63,69z M395.83,126.07
	c-0.86,0.72-2.1,0.92-3.24,0.75c-0.28,0.22-0.07,0.66,0.23,0.84c0.31,0.18,0.69,0.23,0.95,0.46c0.48,0.42,0.29,1.15,0.36,1.76
	c0.14,0.99,1.04,1.74,1.28,2.69c0.43,1.73-1.57,3.31-3.47,3.32c-3.98,0.03-6.78-2.98-7.8-6.21c-0.59-1.84-1.73-6.86,1.32-7.15
	c-0.92-1.12,0.04-2.37-0.53-3.57c-0.32-0.65-1.1-0.97-1.63-1.49c-1.06-1.05-0.9-2.81,0-3.98c0.9-1.17,2.34-1.86,3.78-2.39
	c1.41-0.51,3-0.91,4.38-0.37c1.4,0.53,2.23,2.38,1.2,3.39c-1.12,1.09-3.42,0.46-4.45,1.65c-0.65,0.73-0.42,1.88,0.22,2.61
	c0.66,0.73,1.63,1.13,2.57,1.48c0.53,0.2,1.1,0.42,1.31,0.91c0.33,0.72-0.34,1.45-0.76,2.12c-0.41,0.68-0.33,1.86,0.51,1.86
	c0.82,0,0.94-1.08,1.4-1.72c0.64-0.89,2.28-0.75,2.91,0.15c0.62,0.89,0.3,2.18-0.55,2.89H395.83z M495.23,91.58
	c-0.18,0.33-0.4,0.65-0.52,1.01c-0.13,0.39-0.13,0.82-0.23,1.21c-0.32,1.18-1.49,1.95-2.55,2.67c-0.74,0.49-1.47,1.05-1.92,1.78
	c-0.18,0.31-0.31,0.64-0.51,0.95c-1.05,1.65-4.19,1.98-2.21-0.32c1.22-1.43,3.04-3.53,4.55-4.77c0.52-0.42,1.15-0.78,1.5-1.33
	c0.57-0.91,0.25-2.04,0.3-3.09c0.03-1.05,0.89-2.3,1.97-2C496.01,88.96,495.87,90.38,495.23,91.58L495.23,91.58z M359.83,73.38
	c0.01,0.11,0.01,0.22,0,0.34c-0.03,0.4-0.13,0.79-0.26,1.16c0.17,0,0.33,0,0.46,0c0.25-0.5,0.1-1-0.19-1.5H359.83z M351.56,98.4
	c2.01-0.14,3.52-1.32,4.51-2.95C354.16,95.87,352.29,96.74,351.56,98.4z"/>
<path class="st1" d="M367.3,110.55c-1.68,0.63-3.64,0.61-5.18,1.51c-0.62,0.36-1.09,0.99-1.3,1.65c-0.25,0.13-0.51,0.27-0.76,0.39
	c-4.47,2.37-2.8-2.84-6.98-2.81c-4.08,0.03-2.9,6.39-4.72,5.83c-0.47,0.97,0.3,2.12-0.03,3.14c-0.12,0.35-0.35,0.66-0.52,1
	c-0.11,0.21-0.18,0.42-0.22,0.65c-1.14,1.07-2.12,2.32-2.82,3.67c-0.05-0.15-0.11-0.29-0.16-0.43c-1-0.92-2.82,0.06-3.13,1.32
	c-0.32,1.26,0.28,2.55,0.68,3.8c0.4,1.24,0.54,2.76-0.46,3.68c-0.52,0.48-1.37,0.82-0.61,1.92c0.26,0.4,0.79,0.56,1.3,0.49
	c1.08-0.15,2,1.72,0.94,1.77c-1.95,0.22-3.38-1.69-3.99-3.43c-0.6-1.74-1.03-3.76-2.67-4.76c-0.8-0.49-1.9-0.73-2.29-1.55
	c-0.66-1.37,1.25-2.98,0.55-4.33c-0.69-1.32-3-0.84-4.19-1.81c-1.01-0.84-0.87-2.45-1.84-3.3c-0.5-0.44-1.19-0.61-1.82-0.84
	c-2.01-0.72-3.67-2.22-4.51-4.06c-1.15,0.2-0.98,1.79-0.43,2.76c2.12,3.69,5.48,6.75,9.5,8.63c-1.3,0.61-1.95,1.99-2.48,3.26
	c-0.82,1.89-1.62,3.8-2.42,5.7c-1.23-0.14-2.51-0.31-3.49-1c-0.98-0.69-1.51-2.1-0.78-3.02c1.34,1.21,3.95,0.78,4.75-0.79
	c0.8-1.59-0.47-3.74-2.33-3.93c0.78-2.07-1.72-3.89-3.92-4.66c-2.2-0.78-4.9-1.77-5.17-3.94c-1.01-0.84-2.63-0.41-3.72,0.32
	c-1.09,0.74-2,1.76-3.28,2.16c-1.27,0.4-3.08-0.28-3.01-1.53c-0.66,0.53-1.31,1.06-1.97,1.59c1.49,0.39,0.65,2.62-0.73,3.28
	c-1.38,0.65-3.25,1.07-3.59,2.48c-0.14,0.56,0.04,1.15,0.03,1.75c-0.01,0.89-0.46,1.73-0.89,2.52c-1.08,1.96-2.47,4.15-4.8,4.56
	c-1.37,0.24-3.45,0.37-3.26,1.65c-1.97-1.6-4.72-2.34-7.31-1.95c0.16-1.12,0.32-2.25,0.47-3.36c-0.89-0.13-1.79-0.25-2.68-0.36
	c1.38-1.78,1.87-4.13,1.32-6.26c-0.31-1.19-0.68-2.87,0.56-3.29c-0.67-0.55-1.15-1.29-1.4-2.1c1.85-0.76,4.01-0.84,5.94-0.24
	c0.84,0.26,1.63,0.64,2.48,0.88c2.39,0.67,5.27-0.08,6.65-2.01c1.38-1.94,0.8-4.96-1.39-6.07c-1.15-0.58-2.55-0.63-3.68-1.26
	c-1.11-0.63-1.69-2.37-0.57-2.99c0.92,1.31,3.04,1.72,4.44,0.86c-0.66-1.05-0.94-2.28-0.82-3.48c1.03-0.39,2.35,0.51,2.22,1.55
	c1.82,0.04,3.6-1.12,4.18-2.73c0.21-0.55,0.3-1.16,0.71-1.62c0.55-0.6,1.5-0.69,2.3-0.97c1.97-0.69,3.13-2.93,2.49-4.78
	c2.54-1.09,5.38-1.59,8.16-1.44c-0.98-1.7-2-3.5-1.91-5.43c0.1-1.92,1.78-3.92,3.83-3.74c0.32,1.12,0.3,2.33-0.04,3.45
	c0.6,0.13,1.2,0.25,1.8,0.37c-1.3,1.01-2.63,2.95-1.27,3.9c1.08,0.75,2.63-0.22,3.95,0.04c0.6,0.12,1.12,0.49,1.72,0.62
	c2.68,0.62,5.27-3.48,7.54-2.01c0.76,0.49,1.07,1.5,2.37,1.35c0.72-0.09,1.34-0.51,1.69-1.1c0.75-1.21,0.51-2.61,0.66-3.95
	c0.13-1.16,0.73-2.46,1.95-2.76c1.33-0.34,2.62,0.69,3.99,0.83c2.32,0.25,4.14-2.72,2.73-4.46c-1.76,1.25-4.01,1.87-6.23,1.71
	c-0.66-1.07,0.71-2.22,1.91-2.72c4.12-1.71,8.79-2.23,13.23-1.48c0.79-0.69-0.35-1.78-1.32-2.21c-0.97-0.42-2.05-1.59-1.22-2.22
	c-2.92-1.09-5.49,2.72-8.64,2.86c-3.23,0.15-5.1-3.88-3.91-6.68c1.21-2.79,4.2-4.5,7.01-6c-1.85-2.71-6.7-2.93-8.82-0.39
	c0.26,2.07-0.64,4.24-2.33,5.6c-1.75,1.4-4.6,2.68-4,4.76c0.52,1.82,3.64,2.7,3.22,4.56c-0.38,1.71-3.38,1.73-4.09,3.33
	c-0.51,1.17,0.48,2.61-0.13,3.75c-0.61,1.14-2.36,1.18-3.46,1.95c-0.75,0.52-1.18,1.35-1.86,1.94c-0.7,0.58-1.96,0.81-2.47,0.07
	c-0.5-0.73,0.16-1.63,0.52-2.43c1.1-2.36-0.49-4.98-2.02-7.12c-3.11-0.24-4.72,5.25-7.61,4.13c-0.82-0.32-1.29-1.08-1.7-1.81
	c-1.14-1.97-2.3-3.98-2.73-6.19c-0.42-2.21-0.01-4.67,1.65-6.29c2.21-2.15,5.93-2.28,8.39-4.17c2.75-2.12,3.42-6.05,6.37-7.92
	c1.77-1.11,4.48-1.72,4.69-3.7c-1.95,0.15-3.9,0.3-5.85,0.44c0.89-1.52,3-2.31,4.75-1.78c-0.73-1.46,1.08-3.03,2.81-3.25
	s3.54,0.25,5.2-0.22c1.36-0.38,2.44-1.32,3.74-1.84c1.12-0.45,2.37-0.56,3.6-0.62c1.38-0.06,2.76-0.06,4.14,0
	c-2.71,2.24-4.55,5.41-3.77,8.61c1.21,4.92,8.07,9.04,5.56,13.51c2.36-0.49,4.83-0.98,7.17-0.42c1.26,0.29,2.48,0.98,3.3,1.9
	c-0.12,0.86,0.64,1.67,1.07,2.47c0.01,0.11,0.01,0.22,0,0.34c-0.03,0.4-0.13,0.79-0.26,1.16c-2.03-0.07-6.81-0.99-4.52,2.12
	c1.02-1.12,1.49-0.4,2.67-0.52c0.49-0.05,0.94-0.52,0.76-0.95c0.26,0,0.53,0.02,0.79,0.04c-0.42,0.85-1,1.66-1.4,2.5
	c-1.68,3.54-0.46,7.6-0.32,11.47c0.06,1.98-0.42,4.19-1.48,5.91c0.25-0.05,0.51-0.1,0.76-0.14c4.71-0.75,10.09,0.36,12.98,3.92
	c2.88,3.55,1.92,9.65-2.51,11.32L367.3,110.55z"/>
<path class="st1" d="M279.29,93.61c0,1.09,1.12,2.08,0.81,3.13c-0.31,1.04-1.89,1.51-1.96,2.59c-0.08,1.2,1.72,1.64,2.99,1.4
	c2.35-0.44,4.48-1.77,5.82-3.62c0.66-0.9,0.91-2.46-0.19-2.82c1.51-0.5,3.03-0.99,4.54-1.49c1.19,0.94,2.47,2.53,1.49,3.67
	c-0.63,0.73-2.12,1.24-1.67,2.08c0.18,0.34,0.67,0.51,0.76,0.89c0.09,0.4-0.31,0.72-0.65,0.98c-1.43,1.12-2.28,2.87-2.22,4.61
	c2.15-1.85,5.11-2.86,8.04-2.74c0.68,0.03,1.45,0.09,1.97-0.32c0.52-0.41,0.29-1.47-0.38-1.37c0.82-0.55,1.64-1.1,2.46-1.64
	c0.18-0.12,0.38-0.26,0.47-0.45c0.21-0.46-0.26-0.95-0.77-1.11c-0.51-0.16-1.07-0.14-1.55-0.35c-1.07-0.47-1.25-1.77-1.62-2.81
	s-1.68-2.1-2.59-1.4c0.23-1,0.45-2.08,0.02-3.03c-0.42-0.95-1.78-1.59-2.67-0.98c-0.51-0.71,0.67-1.36,1.3-1.99
	c0.68-0.68,0.67-1.86-0.04-2.52s-2-0.65-2.69,0.02c0.09-1.93,0.53-4.31,2.51-4.9c0.54-0.16,1.14-0.15,1.68-0.32
	c0.54-0.17,1.06-0.63,0.97-1.16c0.09,0.62,1.16,0.65,1.56,0.15s0.31-1.19,0.21-1.8c-1.54-0.41-2.21,2.01-3.73,2.46
	c-0.7,0.21-1.5-0.04-2.18,0.23c-1.61,0.63-1.18,3.42-2.86,3.86c-0.4,0.1-0.84,0.03-1.22,0.18c-0.77,0.31-0.85,1.29-0.66,2.05
	s0.52,1.57,0.16,2.28c-0.19,0.39-0.59,0.77-0.43,1.17c0.21,0.53,1.05,0.39,1.62,0.57c1.44,0.47,0.65,2.05-0.09,2.67
	c-0.93,0.78-2.5,0.57-3.6,0.43c-1.65-0.21-5.56-1.56-5.59,1.42L279.29,93.61z"/>
<path class="st1" d="M315.3,124.97c-0.2-0.15-0.39-0.3-0.59-0.45c0.61-0.14,1.01-0.72,1.05-1.3c0.04-0.58-0.23-1.15-0.58-1.63
	c-0.42-0.58-1.15-1.12-1.86-0.9c-0.9,0.29-0.92,1.48-0.61,2.32s0.73,1.83,0.18,2.55c0.34-0.07,0.71,0.03,0.96,0.26
	c-1.31,0.78-1.62,3.28,0.32,3.42c1.93,0.15,2.32-2.17,0.36-2.59c0.04-0.11,0.8-1.67,0.78-1.69L315.3,124.97z"/>
<path class="st1" d="M534.81,144.5c0.11-0.97,0.22-2.11,1.1-2.64c0.28,0.67,0.81,1.26,1.48,1.63c0.6-0.32,0.93-0.94,1.28-1.5
	c0.35-0.56,0.83-1.13,1.52-1.24s1.46,0.61,1.1,1.16c1.79,0.66,2.98-1.77,4.65-2.68c0.88-0.48,1.94-0.51,2.93-0.75
	c0.99-0.23,2.03-0.82,2.17-1.76c0.08-0.55-0.17-1.09-0.19-1.65c-0.04-1.18,0.93-2.15,1.55-3.17c1.09-1.79,1.14-4.1,0.13-5.94
	c-0.55-0.99-1.39-1.87-1.66-2.96c-0.27-1.09,0.41-2.51,1.61-2.49c0.33,0.95,0.78,2.02,1.78,2.37c1,0.36,2.35-0.83,1.62-1.57
	c1.13-0.29,2.31-0.38,3.47-0.28c0.49-0.67,0.37-1.67-0.26-2.23c3.68-1.2,6.84-3.55,9.27-6.39c-3.35,1.94-6.71,3.88-10.06,5.82
	c-0.4,0.23-0.87,0.47-1.31,0.31c-0.4-0.14-0.59-0.55-0.79-0.9c-0.9-1.58-2.8-2.62-4.72-2.58c0.16,1.49,0.31,2.99,0.47,4.48
	c-1.14-0.19-2.18,0.81-2.44,1.86s0,2.15,0.1,3.23c0.34,3.79-1.59,7.68-4.9,9.91c-0.01-0.61-0.03-1.22-0.04-1.84
	c-1.75,0.24-0.95,3.27-2.52,4.02c-0.44,0.21-0.97,0.17-1.46,0.22c-2.46,0.24-2.43,2.6-5.09,1.66c-0.26,3.01-4.38,2.48-4.08,5.51
	c0.25,2.56,2.84,4.52,3.3,0.38L534.81,144.5z"/>
<path class="st1" d="M556.42,96.83c0.04,0.22,0.09,0.44,0.05,0.66c-0.07,0.42-0.42,0.76-0.55,1.16c-0.22,0.71,0.27,1.44,0.84,1.96
	c0.57,0.51,1.27,0.94,1.63,1.6c0.61,1.1,0.18,2.6,1.06,3.53c-0.27,0.63-1.3,0.44-1.9,0.04c-0.6-0.4-1.33-0.91-1.97-0.59
	c-0.76,1.02-0.34,2.42,0.26,3.52c0.6,1.1,1.37,2.23,1.25,3.46c-0.06,0.58-0.53,1.25-1.14,1.11c-0.23-0.05-0.42-0.21-0.59-0.37
	c-0.82-0.74-1.68-1.55-1.84-2.6c-0.11-0.76,0.18-1.52,0.38-2.27c0.42-1.54,0.51-3.16,0.24-4.73c-0.11-0.67-0.29-1.34-0.27-2.03
	c0.05-1.26,0.76-2.67-0.03-3.69c-0.25-0.32-0.64-0.68-0.46-1.03c0.34-0.65,1.84-1.86,2.37-2.36c0.34,0.82,0.46,1.73,0.64,2.62
	L556.42,96.83z"/>
<path class="st1" d="M470.88,203.6c1.11,0.76,2.49,1.3,3.14,2.43c0.5,0.87,0.5,2.01,1.27,2.69c0.41,0.36,0.99,0.54,1.41,0.89
	c0.98,0.84,0.76,2.31,1.23,3.47c0.67,1.64,2.72,2.62,3.12,4.34c0.13,0.59,0.06,1.22,0.33,1.77c0.52,1.04,2.02,1.26,2.86,2.1
	c0.41,0.41,0.64,0.96,1,1.41c1,1.29,3.08,1.73,4.58,0.97c-0.53-0.76-0.83-1.66-0.86-2.57c-0.01-0.54,0.07-1.08-0.04-1.61
	c-0.27-1.27-1.57-2.17-1.93-3.42c0.61-0.42,1.41,0.2,1.87,0.76s1.22,1.2,1.86,0.82c-1.16-1.42-2.49-2.71-3.95-3.87
	c0.12,0.51-0.63,0.9-1.16,0.72s-0.85-0.67-1.13-1.13c-0.21-0.34-0.42-0.72-0.39-1.11c0.03-0.33,0.24-0.62,0.3-0.95
	c0.13-0.68-0.39-1.33-1-1.74c-0.6-0.41-1.31-0.69-1.83-1.18c-1.04-0.98-1.22-2.69-2.53-3.35c-0.62-0.31-1.39-0.31-2.02-0.61
	c-1.97-0.93-2.34-3.64-4.59-4.48c-3.19-1.19-3.86,2.06-1.55,3.65H470.88z"/>
<path class="st1" d="M490.54,224.11l-1.4,1.82c-0.1,0.13-0.21,0.28-0.21,0.44c0,0.45,0.7,0.52,1.18,0.46
	c1.52-0.19,3.08-0.12,4.57,0.21c2.52,0.56,4.91,1.87,7.5,1.72c0.39-0.02,0.79-0.08,1.17-0.03c0.42,0.06,0.8,0.24,1.21,0.35
	c0.94,0.26,2,0.11,2.82-0.39c-0.7-0.63-1.78-0.58-2.75-0.65c-0.96-0.07-2.11-0.48-2.23-1.37c-0.03-0.24,0.02-0.49-0.04-0.73
	c-0.14-0.5-0.76-0.75-1.32-0.78s-1.12,0.09-1.67-0.01c-0.92-0.16-1.63-0.96-2.55-1.08c-0.93-0.12-1.34,0.54-2.08,0.57
	c-1.55,0.07-2.76-2.41-4.21-0.53L490.54,224.11z"/>
<path class="st1" d="M512.41,229.21c0.81,0.02,1.6,0.61,2.37,0.35c0.19-0.07,0.37-0.19,0.57-0.2c0.25-0.02,0.48,0.12,0.71,0.22
	c2.23,0.96,4.79-1.78,7.07-0.94c-0.53,2.02-3.4,2.66-4.53,4.45c1.94-0.26,3.77-1.19,5.08-2.56c0.35-0.37,0.68-0.78,1.13-1.05
	c0.26-0.15,0.55-0.25,0.81-0.41c0.6-0.36,0.96-1.05,0.91-1.71c-0.66-0.01-1.33,0.14-1.91,0.44c-0.43,0.22-0.83,0.53-1.3,0.63
	c-0.8,0.17-1.59-0.26-2.4-0.37c-1.71-0.23-3.36,1.44-4.92,1.16c-0.61-0.11-0.93-0.75-1.71-0.94c-0.63-0.15-1.64,0.1-2.35,0.01
	c-0.8-0.11-2.45-0.86-3.05-0.07c-1.78,2.34,3.09,0.98,3.53,0.99H512.41z"/>
<path class="st1" d="M511.98,231.42c0.34-0.36,1-0.13,1.34,0.23s0.55,0.84,0.99,1.09s1.06,0.2,1.44-0.13
	c0.22-0.19,0.37-0.5,0.25-0.76c-0.12-0.27-0.44-0.39-0.73-0.48c-0.28-0.09-0.57-0.19-0.85-0.28c-0.5-0.16-1.02-0.33-1.54-0.26
	s-1.04,0.44-1.05,0.93"/>
<path class="st1" d="M498.07,217.42c-0.94,0.09-2.16,0.17-2.52-0.64c-0.21-0.48,0.03-1.01,0.04-1.53c0.02-0.85-0.56-1.59-0.98-2.34
	c-0.73-1.32-1-2.85-0.74-4.32c0.07-0.37,0.17-0.75,0.45-1.03c0.18-0.17,0.41-0.29,0.63-0.4c0.87-0.43,1.74-0.85,2.61-1.28
	c1.14-0.56,2.28-1.12,3.36-1.78c2.67-1.66,4.86-4,6.27-6.69c0.49-0.48,1.39-0.03,1.72,0.56s0.41,1.31,0.91,1.78
	c0.77,0.72,2.45,0.88,2.32,1.89c-0.05,0.4-0.41,0.69-0.71,0.98c-1.04,1.02-1.47,2.55-1.1,3.92s1.53,2.53,2.97,2.96
	c-1.32,0.12-3.02,0.6-3.02,1.83c0,0.78,0.74,1.6,0.28,2.24c-0.48,0.68-1.75,0.36-2.31,0.97c-0.45,0.49-0.17,1.24-0.07,1.88
	c0.24,1.61-1.1,3.28-2.82,3.52c-0.73,0.1-1.58-0.08-1.94-0.67c-0.19-0.31-0.22-0.69-0.38-1.01c-0.63-1.32-1.58-0.53-2.51-0.54
	c-0.65,0-1.57-0.4-2.44-0.32L498.07,217.42z"/>
<path class="st1" d="M523.76,207.98c0.15-0.05,0.31-0.1,0.46-0.14c-0.33-0.2-0.77-0.14-1.1,0.07c-0.32,0.21-0.55,0.52-0.81,0.8
	c-0.91,0.95-2.31,1.46-3.67,1.35c-0.85-0.07-1.71-0.37-2.55-0.22c-1.03,0.19-1.81,1.04-2.12,1.98c-0.15,0.47,0,1.19,0.52,1.15
	c0.29-0.84,1.12-1.46,2.03-1.73c0.91-0.27,1.89-0.22,2.83-0.07c0.74,0.12,1.48,0.32,2.22,0.23c0.74-0.09,1.5-0.56,1.59-1.25
	c0.06-0.5-0.22-1.04,0-1.5c0.2-0.4,0.77-0.75,0.54-1.14c-0.24,0.04,0.3,0.43,0.06,0.47H523.76z"/>
<path class="st1" d="M512.38,219.12c0.34,1.43,1.06,2.92,0.5,4.28c0.62,0.26,1.35-0.23,1.56-0.82s0.04-1.25-0.11-1.86
	c-0.16-0.61-0.31-1.27-0.08-1.86c0.05-0.14,0.14-0.28,0.3-0.31c0.08-0.02,0.15,0,0.23,0.02c0.83,0.22,1.41,0.96,1.67,1.73
	c0.26,0.77,0.28,1.59,0.4,2.39c0.07,0.5,0.22,1.04,0.67,1.32c0.74,0.46,1.8-0.16,2.07-0.94c0.28-0.79,0.05-1.64-0.07-2.47
	c-0.17-1.14-0.26-2.52-1.34-3.07c-0.45-0.23-1.07-0.33-1.21-0.78c-0.17-0.55,0.52-0.97,1.11-1.13c0.53-0.15,1.08-0.25,1.63-0.31
	c0.66-0.08,1.51-0.25,1.58-0.86c0.07-0.64-0.8-0.96-1.47-1.06c-0.82-0.13-1.65-0.26-2.47-0.16c-0.82,0.1-1.65,0.46-2.08,1.12
	c-0.09,0.14-0.18,0.3-0.34,0.36c-0.23,0.09-0.48-0.07-0.62-0.26c-0.13-0.19-0.2-0.42-0.36-0.6c-1.77-2.04-1.68,4.73-1.55,5.28
	L512.38,219.12z"/>
<path class="st1" d="M527.15,217.69c-0.9-0.2-1.86-0.18-2.75,0.06c-0.16,0.04-0.35,0.13-0.36,0.28c0,0.17,0.19,0.27,0.37,0.31
	c0.86,0.22,1.8,0.13,2.59-0.25c-0.12-0.33-0.59-0.5-0.91-0.33"/>
<path class="st1" d="M531.03,217.25c-0.45-0.22-1.04-0.15-1.43,0.15c-0.39,0.31-0.55,0.84-0.4,1.29c0.9,0.21,1.82-0.78,2.68-0.45
	c0.57,0.22,0.85,0.94,1.46,0.97c0.52,0.03,0.89-0.65,0.56-1.03c-0.28-0.32-0.81-0.31-1.15-0.57c-0.62-0.47-0.23-1.39,0.19-2.03
	c-0.69-0.14-1.2,0.61-1.29,1.26c-0.04,0.29-0.04,0.59-0.19,0.84c-0.14,0.26-0.48,0.45-0.76,0.33"/>
<path class="st1" d="M527.19,213.3c0,0.23-0.02,0.48,0.1,0.69c0.11,0.21,0.39,0.36,0.62,0.26c0.17-0.07,0.26-0.25,0.33-0.41
	c0.23-0.52,0.47-1.13,0.2-1.64c-0.12-0.23-0.33-0.42-0.42-0.66c-0.27-0.72,0.67-1.11,1.26-1.05c-0.14-0.91-0.97-0.27-0.97-1.25
	c0-0.15,1.83-0.8,0.31-1.04c-1.99-0.31-1.39,3.9-1.44,5.1H527.19z"/>
<path class="st1" d="M535.42,212.17c-0.92,0.07-1.92,0.04-2.64-0.49c-0.68,0.53-0.23,1.62,0.52,2.06s1.68,0.52,2.46,0.91
	s1.36,1.39,0.8,2.03l1.87,0.45c0.14,0.54-0.52,0.94-1.02,1.25s-0.91,1.07-0.39,1.35c0.24,0.48,1.02,0.41,1.52,0.15
	c0.5-0.26,1.04-0.62,1.59-0.47c0.36,0.1,0.6,0.4,0.86,0.65c1.1,1.04,2.78,1.29,4.19,1.94c1.41,0.64,2.68,2.2,1.92,3.48
	c-0.29,0.48-0.81,0.8-1.2,1.22s-0.65,1.06-0.31,1.51c1.24,0.08,2.51-0.29,3.48-1.01c1,1,2.18,1.92,3.61,2.21s3.14-0.26,3.7-1.52
	c0.11-0.25,0.18-0.53,0.41-0.7c0.31-0.24,0.78-0.16,1.17-0.06c1.2,0.32,2.38,0.72,3.51,1.21c0.22,0.09,0.45,0.21,0.55,0.41
	c0.15,0.29-0.03,0.62-0.08,0.94c-0.18,1.18,1.39,1.86,2.65,2.07c1.71,0.28,3.44,0.43,5.18,0.44c0.06-0.81-0.88-1.36-1.73-1.54
	s-1.81-0.2-2.45-0.75c-0.76-0.64-0.83-1.8-1.63-2.4c-0.6-0.45-1.66-0.75-1.5-1.45c0.17-0.75,1.59-0.65,1.86-1.38
	c0.17-0.45-0.25-0.92-0.73-1.09s-1.01-0.14-1.51-0.23c-1.25-0.22-2.29-1.27-2.41-2.45c-0.05-0.45,0.02-0.92-0.18-1.33
	c-0.3-0.62-1.07-0.89-1.76-1.1c-3.7-1.11-7.4-2.22-11.11-3.33c-0.53-0.16-1.11-0.32-1.64-0.15c-1.42,0.46-1.32,2.84-2.8,3.09
	c-0.77,0.13-1.45-0.44-1.99-0.97c-0.53-0.52-1.29-1.26-1.36-2.01c-0.05-0.52,0.52-0.97,0.47-1.43c-0.21-1.76-2.38-1.6-3.83-1.49
	L535.42,212.17z"/>
<path class="st1" d="M564.21,223.05c0.1,0.15,0.3,0.22,0.49,0.27c1.54,0.4,3.24,0.23,4.67-0.45c0.46-0.22,0.91-0.5,1.42-0.55
	c0.34-0.03,0.68,0.03,1.01,0c0.34-0.03,0.7-0.21,0.76-0.52c0.06-0.3-0.18-0.65,0.02-0.9c0.2-0.26,0.7-0.16,0.92-0.41
	c0.25-0.28-0.05-0.68-0.33-0.92c-1.14-1-2.25-2.09-3.48-3c-0.11,1.44,1.02,3.09-0.19,4.32C568.8,221.6,563.85,222.52,564.21,223.05
	L564.21,223.05z"/>
<path class="st1" d="M579.38,227.53c0.56,0.17,1.16,0.25,1.7,0.46c0.55,0.21,1.07,0.58,1.24,1.1c0-0.02,0-0.05,0-0.07
	c-0.19-1.41-1.74-2.29-3.1-2.96c-0.18-0.09-0.37-0.18-0.46-0.35c-0.06-0.1-1.89,1.04,0.63,1.82H579.38z"/>
<path class="st1" d="M595.45,254.84c-0.14-0.59-0.36-1.17-0.77-1.63c-0.42-0.46-1.06-0.77-1.7-0.69c-0.55,1.12,0.4,2.39,1.49,3.09
	c0.77,0.49,1.64,0.8,2.5,1.08C595.8799,256.86,595.6299,255.61,595.45,254.84L595.45,254.84z"/>
<path class="st1" d="M599.04,244.63c0.51,1.15,0.87,2.34,1.09,3.57c0.61-0.32,0.78-1.19,0.33-1.69c0.44,0.36,0.44,0.98,0.54,1.51
	c0.26,1.4,1.46,2.62,2.93,2.98c0.23-0.41,0.04-0.93-0.28-1.29s-0.75-0.61-1.11-0.93c-0.68-0.6-1.09-1.46-1.13-2.33
	c-0.03-0.79,0.12-1.78-0.62-2.16l-0.38,1.02c-0.21-0.02-0.35-0.22-0.43-0.4c-0.51-1.14,0-2.77-1.15-3.6
	c-0.18,0.5-0.52,1.03-1.12,1.1C597.71,243.23,598.7,243.85,599.04,244.63L599.04,244.63z"/>
<path class="st1" d="M584.22,227.89c0.85,0.34,1.93,0.21,2.57,0.83c0.63,0.61,0.5,1.63,1.03,2.32c0.25,0.32,0.63,0.54,0.91,0.84
	c0.28,0.3,0.42,0.78,0.15,1.09c-0.35,0.38-1.06,0.14-1.33-0.29s-0.24-0.96-0.31-1.45c-0.07-0.49-0.29-1.04-0.8-1.2
	c-0.49-0.15-1.13,0.09-1.47-0.27c-0.11-0.12-0.16-0.28-0.22-0.43c-0.49-1.21-2.16-1.81-2.45-3.04c0.66,0.48,1.07,1.28,1.91,1.62
	L584.22,227.89z"/>
<path class="st1" d="M534.67,225.86c-0.85,0.67-1.62,1.43-2.29,2.27c0.51,0.23,1.18,0.11,1.56-0.29s0.43-1.03,0.12-1.47"/>
<path class="st1" d="M540.3,222.56c0.5,0.35,0.95,0.85,0.97,1.43s-0.6,1.18-1.19,1c0.12-0.84,0.23-1.67,0.35-2.51"/>
<path class="st1" d="M534.9,235.24c-0.44-0.86-1.74-1.22-2.61-0.72c0.76,0.59,0.83,1.8,0.15,2.46c-0.35,0.34-0.83,0.53-1.24,0.82
	c-1.32,0.95-1.38,3.07-0.11,4.08c-0.61,0.3-1.23,0.59-1.84,0.89c-0.43-1.5-1.67-2.79-3.22-3.35c-2.12,1.24-3.7,3.26-4.32,5.51
	c-0.25,0.04-0.49,0.08-0.74,0.12l-0.34,2c-0.55-0.68-0.77-1.57-0.59-2.41c-1.28,0.24-2,1.5-2.35,2.68s-0.56,2.47-1.49,3.32
	c-0.68,0.63-1.63,0.91-2.55,1.17c-1.4,0.4-2.81,0.8-4.21,1.2c-1.16,0.33-2.42,0.73-3.04,1.7c-0.51,0.78-0.83,2.03-1.8,1.92
	c-0.41-0.05-0.73-0.36-1.13-0.46c-0.83-0.19-1.57,0.65-1.6,1.45c-0.04,0.79,0.37,1.54,0.59,2.31s0.2,1.71-0.47,2.2
	c0.78,0.04,1.58,0.33,2.04,0.91c0.46,0.59,0.46,1.51-0.13,1.98s-1.72,0.2-1.85-0.51c1.71,4.33,2.91,8.83,3.59,13.4
	c0.28,1.87,0.44,3.88-0.53,5.53c1.69,1.19,4.16,1.31,5.98,0.3c1.02-0.57,1.82-1.44,2.89-1.92c1.86-0.84,4.11-0.36,6.09-0.91
	c1.81-0.51,3.29-1.87,5.15-2.18c1.41-0.23,2.97,0.15,4.21-0.52c0.58-0.32,1.01-0.84,1.57-1.19c0.63-0.39,1.39-0.55,2.14-0.59
	c2.99-0.16,6.06,1.76,6.73,4.48c0.17,0.68,0.2,1.39,0.49,2.04c0.29,0.64,0.94,1.23,1.69,1.16c0.19-2.13,2.36-3.94,4.65-3.87
	c0.11,0.69-0.42,1.31-0.98,1.77s-1.21,0.87-1.5,1.51s0.03,1.57,0.78,1.62c0.38-0.66,0.9-1.25,1.52-1.73
	c1.17,0.97,0.62,3.1-0.89,3.47c1.45-0.4,3.5-0.53,3.99,0.8c0.14,0.38,0.09,0.79,0.13,1.18c0.21,2.06,2.53,3.27,4.56,4.12
	c0.41,0.17,0.85,0.35,1.3,0.28c0.77-0.12,1.18-0.88,1.62-1.47s1.36-1.11,1.94-0.63c0.51,0.41,0.3,1.23,0.7,1.73
	c0.54,0.68,1.75,0.32,2.35-0.33c0.59-0.64,0.95-1.5,1.72-1.96c1.43-0.84,4.03-0.18,4.46-1.71c0.23-0.83-0.52-1.6-0.77-2.42
	c-0.38-1.29,0.52-2.61,1.55-3.55s2.27-1.75,2.88-2.96c1.02-2.03-0.05-4.44,0.36-6.65c0.41-2.22,2.3-4.42,1.31-6.47
	c-0.39-0.81-1.17-1.41-1.5-2.24c-0.31-0.8-0.18-1.77-0.77-2.43c-0.37-0.42-0.95-0.61-1.42-0.92c-1.56-1.05-1.6-3.14-2.2-4.85
	c-1.09-3.11-4.22-5.13-6.38-7.7c-0.4-0.48-0.78-0.99-0.95-1.57c-0.2-0.68-0.11-1.39-0.17-2.09c-0.14-1.7-1.24-3.31-2.84-4.15
	c-0.35-0.18-0.73-0.34-0.98-0.64c-0.35-0.42-0.33-1-0.35-1.53c-0.07-1.99-0.92-3.95-2.35-5.43c-0.95,4.37-1.9,8.75-2.85,13.12
	c-0.55,0.39-1.22,0.63-1.91,0.69c-0.27-1.12-0.55-2.23-0.82-3.35c-1.35,0.06-2.78,0.12-3.99-0.44c-1.22-0.56-2.11-1.95-1.56-3.1
	c0.3-0.63,0.97-1.33,0.53-1.89c1.21,0.42,2.27-1.41,1.38-2.29c-1.4-1.38-2.92,0.62-4.36,0.55c-1.78-0.09-3.38-2.42-5.3-1.37
	L534.9,235.24z"/>
<line class="st1" x1="557.39" y1="250.78" x2="557.86" y2="250.49"/>
<path class="st1" d="M560.63,303.43c-0.01,0.32-0.02,0.72,0.28,0.88c0.12,0.07,0.26,0.08,0.4,0.09c1.02,0.06,2.31-0.06,2.66-0.96
	c0.28-0.72-0.25-1.55,0.04-2.27c0.09-0.24,0.27-0.44,0.42-0.65c0.37-0.53,0.59-1.18,0.41-1.79c-0.18-0.61-0.85-1.1-1.51-0.98
	c-0.36,0.07-0.67,0.29-1.03,0.38c-1.15,0.28-4.45-2.01-4.16,0.56c0.09,0.81,1.28,1.44,1.72,2.09c0.53,0.79,0.81,1.72,0.78,2.64
	L560.63,303.43z"/>
<path class="st1" d="M598.66,307.93c-0.76,0.24-1.61,0.34-2.25,0.79c-0.64,0.46-0.93,1.46-0.3,1.93c0.48,0.36,1.2,0.22,1.79,0.39
	c1.32,0.39,1.44,2.07,1.31,3.35c0.93,0.37,1.93-0.39,2.44-1.19c0.51-0.81,0.86-1.78,1.72-2.27c0.56-0.32,1.29-0.41,1.7-0.88
	c0.58-0.67,0.2-1.67,0.41-2.51c0.54-2.1,3.79-2.28,4.65-4.33c0.6-1.42,1.7-4.21-0.1-4.5c-4.51-0.73-7.46,8.01-11.37,9.21V307.93z"/>
<path class="st1" d="M612.86,300.18c0,0.11,0,0.23,0.06,0.32c0.16,0.23,0.56,0.14,0.79-0.04c1.32-1.01,0.52-3.17,1.54-4.45
	c0.34-0.42,0.84-0.7,1.28-1.03c1.42-1.05,2.3-2.72,2.32-4.41c-0.65,0.33-1.33,0.67-2.07,0.76s-1.57-0.1-2.01-0.66
	c-0.54-0.69-0.36-1.7-0.87-2.4c-0.59-0.81-1.87-0.93-2.58-1.66c-0.65-0.67-0.67-1.66-0.82-2.55c-0.15-0.89-0.64-1.91-1.6-2.03
	c-1.9,2.03,1.83,4.57,2.31,6.3c0.46,1.66-0.45,2.12-1.17,3.52c-0.74,1.45-1.24,2.59,0.24,3.72c0.95,0.72,1.73-0.38,2.56,0.96
	c0.48,0.77,0.03,2.78,0.02,3.64V300.18z"/>
<path class="st1" d="M513.61,178.79c-0.1,0.28-0.21,0.57-0.21,0.87c0.02,1.03,1.29,1.72,1.38,2.75c0.04,0.41-0.12,0.81-0.12,1.22
	s0.27,0.88,0.71,0.88c0.38,0,0.64-0.33,0.91-0.58s0.77-0.41,0.99-0.11c0.09,0.13,0.08,0.3,0.07,0.45c-0.12,1.09-0.44,2.17-0.94,3.16
	c0.63,0.23,1.37-0.15,1.73-0.69s0.41-1.2,0.46-1.84c0.02-0.31,0.05-0.64-0.09-0.93c-0.21-0.44-0.71-0.67-1.05-1.03
	c-0.62-0.67-0.55-1.69-0.21-2.52s0.93-1.55,1.28-2.37c0.09-0.21,0.17-0.44,0.13-0.67c-0.04-0.24-0.19-0.44-0.3-0.66
	c-0.28-0.53-0.31-1.14-0.43-1.72c-1.06-5.08-3.98,2.89-4.31,3.78V178.79z"/>
<path class="st1" d="M524.04,186.7c0.12,0.94-0.31,1.93-1.09,2.53c-0.18,0.14-0.37,0.26-0.48,0.45c-0.37,0.64,0.5,1.25,1.12,1.7
	c1.96,1.38,2.2,4.43,0.48,6.07c-0.16,0.15-0.34,0.3-0.44,0.49s-0.11,0.41-0.12,0.62c-0.01,0.96,0.17,1.92,0.54,2.82
	c-1.02,0.48-2.3-0.31-2.69-1.31s-0.17-2.11,0.02-3.16c0.07-0.39,0.12-0.82-0.11-1.15c-0.38-0.53-1.32-0.42-1.8,0.04
	c-0.48,0.46-0.65,1.12-0.84,1.73c-0.19,0.62-0.48,1.27-1.08,1.58c-0.46-2.14,1.42-4.45,3.76-4.61c0.51-0.04,1.05,0.01,1.51-0.2
	c0.46-0.22,0.73-0.85,0.35-1.17c-0.45,0.01-0.62-0.54-0.58-0.95s0.11-0.92-0.25-1.16c-0.37-0.25-0.91,0-1.15,0.37
	s-0.32,0.8-0.56,1.16c-0.36,0.54-1.09,0.85-1.77,0.73c-0.04-0.95,0.57-1.89,1.48-2.31c-0.81-0.27-1.64-0.7-1.96-1.44
	s0.24-1.79,1.09-1.73c0.31,0.73,0.61,1.46,0.92,2.19c0.66,0.39,1.6,0,1.99-0.64s0.36-1.41,0.25-2.14c0.87,0.41,1.86-0.72,1.5-1.57
	c-0.2-0.48-0.68-0.82-1.16-0.88c0.55,0.52,0.99,1.21,1.08,1.94H524.04z"/>
<path class="st1" d="M394.23,46.8c0.59-0.39,0.14-1.34-0.54-1.56c-0.69-0.21-1.43,0-2.16,0.02s-1.6-0.3-1.67-0.97
	c-0.02-0.2,0.03-0.4,0.11-0.58c0.5-1.12,1.93-1.56,2.86-2.41c1.45-1.32,1.57-3.49,2.85-4.96c1.76-2.03,5.08-2.12,7.33-3.68
	c0.71-0.49,1.3-1.12,2.03-1.57c1.9-1.17,4.37-0.98,6.66-1.04c2.99-0.07,5.97-0.66,8.73-1.73c-0.59,2.58-3.9,3.55-6.65,4.19
	c-1.85,0.43-3.68,0.94-5.48,1.5c-2.3,0.72-4.6,1.57-6.47,3s-3.31,3.52-3.34,5.77c-0.02,1.18,1.5,3.75,0.66,4.66
	c-0.99,1.08-3.82-0.21-4.91-0.66L394.23,46.8z"/>
<path class="st1" d="M464.16,16.67c-0.69,0.21-1.38,0.41-2.08,0.62c0.64,0.92,1.96,1.36,3.08,1.04c1.17-0.34,2.32-1.4,3.42-0.9
	c0.28,0.49-0.36,0.98-0.89,1.25c-0.53,0.27-1.09,0.91-0.66,1.3c0.1,0.1,0.25,0.14,0.38,0.18c2.42,0.72,5.17,0.11,7.48,1.08
	c0.73,0.31,1.43,0.77,2.23,0.74c0.8-0.03,1.54-0.97,0.99-1.51c-0.36-0.35-1.09-0.36-1.24-0.82c-0.26-0.86,1.9-1.2,1.48-2
	c-1.57,0.04-3.13,0.09-4.7,0.13c-0.53,0.02-1.18-0.03-1.41-0.48c-0.13-0.25-0.08-0.57-0.26-0.8c-0.22-0.28-0.66-0.27-1.02-0.23
	c-0.83,0.08-1.66,0.16-2.48,0.23c1.81-0.17,4.18-1.07,6-1.48c-2.41-2.54-9.38-2.23-10.33,1.64L464.16,16.67z"/>
<path class="st1" d="M486.04,20.37c-0.04-0.95-1.45-1.36-2.37-0.96c-0.92,0.41-1.48,1.28-2.1,2.03c-0.75,0.9-1.66,1.67-2.56,2.44
	c2.37-0.29,4.74-0.57,7.12-0.85c0.92-0.11,2.02-0.36,2.29-1.18c-0.92-0.58-2-0.95-3.1-1.07"/>
<path class="st1" d="M548.26,33.77c0.3-0.17,0.58-0.39,0.92-0.48c1.35-0.37,2.51,1.49,3.88,1.19c0.58-0.13,0.99-0.62,1.54-0.81
	c1.3-0.46,2.75,0.81,3.99,0.03c1.61-1.02,0.92-1.89-0.35-2.35c-1.16-0.42-2.96,0.02-4.27-0.33c-0.97-0.26-1.81-0.76-2.73-1.12
	c-2.16-0.86-5.58-2.3-7.05,0.3c-1.32,2.33,1.61,4.96,4.07,3.59V33.77z"/>
<path class="st1" d="M567.42,33.14c-0.96-0.73-2.07-1.29-3.26-1.62c-0.17-0.05-0.34-0.09-0.52-0.08c-0.63,0.03-1.03,0.76-0.83,1.31
	c0.2,0.56,0.82,0.91,1.44,1.02s1.26,0.03,1.89-0.01c1.33-0.08,2.66,0.01,3.96,0.29c0.24-0.77-0.57-1.55-1.43-1.66
	s-1.69,0.24-2.48,0.59"/>
<path class="st1" d="M555.23,37.63c-0.74-0.33-1.52-0.55-2.33-0.67c-0.43-0.06-1.06,0.1-0.95,0.49c0.04,0.17,0.22,0.27,0.38,0.35
	c1.1,0.56,2.28,1,3.49,1.3c0.56,0.14,1.34,0.16,1.53-0.36c0.13-0.36-0.15-0.73-0.46-0.98c-0.77-0.59-1.85-0.79-2.8-0.53"/>
<path class="st1" d="M319.41,21.45c1.03,0.56,2.28,0.67,3.35,1.18c1.25,0.59,2.17,1.75,2.41,3.04c0.15,0.79,0.07,1.65,0.54,2.32
	c0.68,0.97,2.32,1.04,3.31,0.34s1.41-1.93,1.4-3.09c0-0.91-0.18-1.97,0.53-2.6c0.3-0.27,0.71-0.41,1.11-0.53
	c0.78-0.24,1.6-0.48,2.41-0.35s1.59,0.75,1.58,1.51c-0.02,0.92-1.13,1.78-0.69,2.61c1.57-0.02,3.13-0.04,4.7-0.06
	c0.54-0.51,0.16-1.43-0.48-1.83s-1.44-0.49-2.15-0.78s-1.37-0.95-1.17-1.65c0.3-1.05,1.89-0.91,3.05-0.88
	c3.1,0.1,5.95-2.61,5.77-5.49c-2.75-0.39-4.11,2.41-6.39,3.14c-1.88,0.6-2.92-0.42-4.64-0.27c-1.84,0.16-2.28,1.25-3.7,1.57
	c-2.21,0.49-3.8-0.53-6.08-0.81c-1.78-0.22-9.53,0.08-4.86,2.64L319.41,21.45z"/>
<path class="st1" d="M291.7,9.23c-1.75,2.82-4.71,4.97-8.08,5.86c-1.59,0.42-3.35,0.61-4.55,1.67c-0.74,0.65-1.16,1.56-1.56,2.43
	c-0.79,1.72-1.58,3.5-1.63,5.37c-0.04,1.87,0.85,3.89,2.66,4.7c-2.52,1.16-2.77,5.04-0.41,6.47c-0.96,2.23-4.99,0.99-6.89,2.62
	c-1.48,1.27-0.9,3.54-0.01,5.22s2.02,3.55,1.3,5.3c-2.7-0.98-5.41-1.96-8.11-2.94c-1.02,2.05,1.91,4.6,4.04,3.5
	c-2.05,3.43-7.5,2.75-11.33,4.37c-4.09,1.73-6.29,6.18-10.43,7.82c-2.04,0.81-4.35,0.84-6.38,1.66c-2.03,0.82-3.78,3-2.83,4.86
	c0.19,0.37,0.48,0.73,0.43,1.13c-0.05,0.43-0.46,0.72-0.81,1c-3.32,2.64-3.36,7.32-3.13,11.38c-1.18,0.83-2.86-0.3-3.51-1.53
	c-0.65-1.24-0.99-2.75-2.24-3.49c-1.24-0.73-2.91-0.38-4.28-0.91c-1.24-0.48-2.04-1.6-2.76-2.65c-1.35-1.98-2.69-3.97-4.04-5.95
	c-1.13-1.67-2.29-3.4-2.61-5.36c-0.32-1.95,0.44-4.2,2.32-5.11c1.33-0.64,3.49-1.61,2.53-2.68c-0.22-0.24-0.55-0.35-0.86-0.46
	c-2.44-0.81-4.88-1.62-7.33-2.43c0.95-2.74,4.36-4.51,7.36-3.83c1.11-1.65-1.45-3.45-3.54-3.42c-2.08,0.03-4.41,0.74-6.1-0.4
	c1.57-2.04,1.49-4.94,0.22-7.16s-3.55-3.82-6.02-4.83c-1.1-0.45-2.27-0.81-3.48-0.82c-1.9-0.03-3.72,0.79-5.63,0.8
	c-2.69,0.02-5.15-1.61-6.69-3.66c-1.54-2.05-2.33-4.51-3.1-6.91c2.17,1.12,5.03,1.18,7.04-0.16c2.02-1.34,2.85-4.16,1.53-6.12
	c2.74-0.57,5.48-1.14,8.22-1.71c0.69-0.14,1.4-0.29,2-0.65c0.77-0.45,1.28-1.19,1.98-1.73c1.33-1.04,3.17-1.26,4.9-1.44
	c4.63-0.48,9.25-0.96,13.88-1.44c0.89-0.09,1.8-0.18,2.67,0.03c2.27,0.56,4.34,3.13,6.38,2.04c0.08-0.83-0.19-1.69-0.74-2.36
	c2.6-1.11,5.61-0.77,8.47-0.73c5.77,0.08,11.48-1.16,17.25-1.24c5.66-0.08,11.34,0.98,16.53,3.09c-1.74,1.12-3.72,1.9-5.79,2.29
	c1.35-0.08,2.72,0.14,3.97,0.63c-0.99-0.39-5.49,2.91-6.2,3.51c2.45,1.77,7.82-1.89,10.35-3.02c4.78-2.12,9.67-3.34,15.01-2.6
	L291.7,9.23z"/>
<path class="st1" d="M283.02,66.66c-1.3,0.49-2.51,1.18-3.57,2.02c-0.99,0.78-2.1,1.76-3.37,1.53c-1.29-0.24-1.9-1.58-2.47-2.69
	s-1.72-2.3-2.96-1.9c0.68-0.76,1.35-1.52,2.03-2.28c-1.61-0.22-3.23-0.44-4.84-0.66c-0.39-0.05-0.82-0.12-1.08-0.41
	c-0.6-0.66,0.3-1.63,1.19-1.88c2.01-0.55,4.22,0.29,5.73,1.64c0.63,0.57,1.43,1.28,2.24,0.96c0.53-0.21,0.76-0.78,1.12-1.21
	c0.86-1.02,2.46-1.15,3.84-1c2.33,0.25,6.99-1.34,7.9,1.26c1.02,2.91-3.87,3.9-5.75,4.61L283.02,66.66z"/>
<path class="st1" d="M82.12,46.65c-6.1,2.36-12.43,4.72-19.04,4.64c-2.86-0.03-5.7-0.52-8.51-1.01c-6.12-1.07-12.31-2.15-18.01-4.5
	c-1.52-0.63-3.05-1.35-4.71-1.45c-1.86-0.11-3.65,0.59-5.31,1.36c-5.05,2.33-9.67,5.46-13.62,9.21c4.1,0.6,7.92,2.76,10.38,5.88
	c-1.94,0.88-4.55,0.07-5.55-1.71c-2.6-0.7-5.64,1.21-5.89,3.73c-0.26,2.51,2.33,4.93,5.03,4.7c0.96-1.18,2.44-1.99,4.02-2.18
	c0.74,1.17,1.49,2.33,2.23,3.5c-1.3,1.46-3.58,1.61-5.56,2.03s-4.21,1.72-3.99,3.6c0.38,3.13,6.84,3.4,6.56,6.54
	c0.1-1.07,13.45-1.9,6.99,5.24c-1.01,1.12-2.53,1.93-4.1,1.8c0.43,1.15,0.34,2.57-0.63,3.39s-2.87,0.52-3.17-0.66
	c-1.04,2.06-3.89,2.55-6.32,2.77c-0.29,0.91-0.58,1.82-0.86,2.73c-0.2-1.14-1.81-1.81-2.86-1.21S8.05,97.27,9,98
	c0.89,0.68,2.19,0.51,3.31,0.31c0.42-0.07,0.9-0.19,1.08-0.55c0.11-0.22,0.08-0.48,0.09-0.72c0.04-1.2,1.17-2.14,2.37-2.57
	s2.51-0.47,3.76-0.74c2.07-0.45,3.93-1.5,5.58-2.74c1.8-1.35,3.42-2.95,5.46-3.96c0.78-0.39,1.62-0.68,2.37-1.12
	c5.54-3.2,2.01-8.73,10.2-9.68c0.12,1.06-0.66,2.14-1.76,2.44c2.62,1.81,5.5-3.88,8.57-2.86c0.87,0.29,1.43,1.06,2.17,1.56
	c1.38,0.93,3.23,0.86,4.93,1c6.76,0.54,12.93,5.21,14.88,11.26c2.96-0.81,5.42,2.13,6.89,4.65c2.43,4.17,4.86,8.33,7.29,12.5
	c1.54,2.65,3.1,5.32,3.9,8.24c1.15,4.17,0.69,8.61,1.76,12.8c1.07,4.19,4.53,8.45,9.16,8.34c0.75,6.56,2.81,12.99,6.05,18.86
	c-1.58,1.49,0.96,3.71,3.12,4.29c2.16,0.59,5.01,2.08,4.06,3.98c2.55-2.64-0.7-6.63-3.8-8.69c-3.1-2.06-6.75-5.48-4.81-8.54
	c1.06-0.99,2.91,0.17,3.41,1.49s0.45,2.89,1.46,3.93c0.88,0.91,2.3,1.15,3.43,1.77c4.11,2.27,3.24,8.72,7.22,11.19
	c1.45,0.9,3.36,1.11,4.62,2.24c0.9,0.81,1.32,1.96,1.92,2.99c2.09,3.63,6.29,5.69,10.24,7.54l3.46,1.61
	c6.61,3.08,13.22,6.16,19.83,9.24c0.64,0.3,1.37,0.6,2.03,0.35c2.72-1-2.83-5.5-0.52-7.17c-3.25-1.46-6.49-2.91-9.74-4.37
	c2.03-1.68,2.29-4.89,0.57-6.85c1.2-0.26,2.19-1.21,2.45-2.33c-1.43-1.38-4.05-0.24-5.16,1.38c-1.11,1.62-1.56,3.65-3.05,4.98
	c-3.39,2.99-9.38-0.18-10.69-4.36c-1.31-4.17,0.19-8.6,0.69-12.92c0.2-1.75,0.36-3.74,1.85-4.82c3.39-2.48,8.39,2.75,12.33,1.11
	c1.51-0.62,2.4-2.12,3.82-2.9c2.45-1.35,5.78-0.1,7.48,2.03s2.17,4.86,2.6,7.48c0.8,1.22,3.03-0.13,2.9-1.56s-1.39-2.5-2.22-3.7
	c-2.13-3.08-1.16-7.65,2.06-9.75c2.86-1.86,7.58-2.59,7.77-5.84c0.12-2.1-2.02-3.82-2.11-5.92c-0.08-1.85,1.43-3.39,2.83-4.7
	c3.97-3.71,7.93-7.42,11.9-11.12c0.93-0.87,2.06-1.81,3.37-1.67s2.04,2.16,0.79,2.56c4.68,0.17,10.94-0.88,11.32-5.23
	c-1.89,1.54-4.13,2.71-6.53,3.4c-0.25-2.07,0.4-4.22,1.78-5.86c-1.74-2.8-5.91-3.56-9.22-2.6s-5.97,3.24-8.5,5.44
	c3.81-4.18,8.9-7.69,14.75-8.33c2.2-0.24,4.57-0.1,6.48-1.14c2.67-1.45,5.03-5.09,7.71-3.68c-1.96,3.21-3.92,6.41-5.89,9.62
	c2.12-0.15,4.23-0.29,6.35-0.44c0.86,1.37,1.28,2.97,1.19,4.55c2.59-0.17,6.15-1.76,4.99-3.92c-0.59-1.1-2.12-1.38-3.14-2.15
	c-2.8-2.14-0.62-6.53-2.02-9.64c-0.7-1.56-2.23-2.62-3.64-3.69c-5.95-4.54-10.62-10.54-13.41-17.22c-0.68,1.59-1.43,3.25-2.9,4.27
	s-3.9,1.04-4.87-0.41c-0.53-0.8-0.5-1.8-0.78-2.7c-0.63-2.04-2.72-3.33-4.66-4.44c-2.36-1.35-5.13-2.75-7.75-1.91
	c-2.61,0.84-3.22,5.22-0.49,5.63c-2.54,0.09-2.46,3.77-1.01,5.72c1.45,1.95,3.49,4.38,2.1,6.36c-1.23,1.76-4.36,1.59-5.6,3.34
	c-1.2,1.69,0.1,3.87,1.01,5.71c0.91,1.84,0.89,4.74-1.25,5.13c-1.82,0.34-3.15-1.63-3.49-3.33c-0.54-2.68-0.16-5.58-1.5-8
	s-5.66-3.56-7.01-1.14c-0.74-2.46-2.89-4.52-5.51-5.28c-2.13-0.62-4.5-0.43-6.53-1.31c-3.03-1.31-4.39-4.56-5.47-7.5
	c3.95-2.1,8.16-4.47,9.92-8.38c0.47-1.05,0.78-2.23,1.68-3.01c0.81-0.7,1.95-0.95,2.85-1.55c0.9-0.6,1.47-1.92,0.66-2.62
	c1.16-0.66,2.58-0.92,3.92-0.71c2.29,2.9-4.74,7.84-1.43,9.69c1.79,1,3.72-1.05,4.64-2.79c1.44,0.54,2.89,1.08,4.33,1.63
	c1.86-1.41-0.32-4.1-2.46-5.12s-4.83-2.86-3.76-4.86c1.91-0.03,3.82-0.06,5.72-0.1c0.12-1.7-1.09-3.4-2.81-3.96
	c0.98-1.41,1.96-2.82,2.95-4.23c-0.89-0.92-2.34-1.33-3.63-1.03c3.86-0.53,7.64-1.63,11.13-3.25c2.86,3.04,5.56,6.22,8.07,9.53
	c0.4,0.53,0.82,1.11,0.8,1.76c-0.03,1.42-1.87,2.02-3.2,2.71s-2.13,2.89-0.66,3.24c-0.2,1.05-1.89,1.04-2.84,0.45
	s-1.82-1.52-2.97-1.46c-2.16,0.12-1.8,3.66,0.26,4.26s4.18-0.64,5.93-1.82c4.03,3.39,8.85,5.98,14.02,7.53
	c-2.09-0.4-3.61-2.51-3.22-4.46c2.42,0.65,4.73,1.67,6.8,3c1.76-1.99-0.5-4.89-2.8-6.32c-2.31-1.43-5.19-3.2-4.83-5.76
	c3.03-0.07,6.03,1.54,7.48,4.01l3.44-4.55c-1.3-3.99-9.57-2.77-10.43-6.86c-0.17-0.79,0-1.7-0.53-2.33
	c-0.83-0.99-2.48-0.5-3.82-0.54c-4.7-0.14-7.55-7.47-11.89-5.78c1.81-3.16-3.34-7.17-6.36-4.94c1.66,0.57,3.46,1.37,4.06,2.92
	c0.6,1.55-1.16,3.66-2.7,2.86c-1.56-0.81-0.81-3.11-1.67-4.57c-1.05-1.78-4.2-1.42-5.47,0.22c-1.27,1.65-1.11,3.89-0.6,5.86
	c-1.05-0.02-2.09-0.05-3.14-0.07c-0.23-2.76,0.35-5.57,1.65-8.06c-1.23-1.71-4.02-0.07-5.37,1.55c-1.42,1.7-2.88,3.49-3.32,5.61
	s0.49,4.65,2.65,5.41c1.39,0.49,3,0.18,4.38,0.68c3.16,1.16,1.92,6.66-1.48,6.53c-1.05-1.61-1.66-3.46-1.77-5.34
	c-1.64,0.45-3.16,1.24-4.43,2.3c-1.66-3.82-3.97-7.39-6.82-10.54c0.68-1.22,1.35-2.44,2.03-3.66c2.72,1.11,6.22-1.61,5.53-4.3
	c-2.26-0.59-4.64-1.19-6.94-0.7c-2.29,0.48-4.42,2.43-4.1,4.6c0.19,1.3,1.18,2.38,1.55,3.65s-0.45,3.04-1.84,2.83
	c-0.73,3.08,6.29,3.16,6.6,6.3c0.22,2.2-2.99,3.07-5.37,3.04c0.69,2.12,0.59,4.47-0.3,6.53c-1.78-3.12-0.81-7.37,2.19-9.54
	c-1.8-2.57-5.95-3.38-8.71-1.7c1.03,1.47,2.66,2.56,4.48,3c-0.96,1.04-1.92,2.08-2.88,3.11c-2.08-1.39-4.93-0.3-7.5-0.16
	s-5.67-2.5-3.86-4.19c-1.54-0.87-3.63-1.16-5.09-0.19c-1.46,0.98-1.58,3.46,0.05,4.16c-3.4,0.81-9.04-5.01-11.5-0.55
	c-1.54-4.54-4.02-5.9-8.9-6.13c-3.24-0.15-12.85-2.39-14.5,0.15c-0.15-0.33-1.5-3.53-1.44-3.55L82.12,46.65z"/>
<path class="st1" d="M91.13,34.74c-1.84,0.18-2.87,2.11-3.11,3.82s-0.06,3.55-0.96,5.06c-0.22,0.37-0.51,0.73-0.59,1.15
	c-0.21,1.2,1.47,1.97,2.76,1.78c3.77-0.56,6.13-5.36,9.89-4.76c0.04,0.94,0.07,1.88,0.11,2.82c2.48,0.02,4.96-0.31,7.33-0.99
	c0.72,0.44,0.32,1.58-0.45,1.93s-1.68,0.24-2.54,0.31s-1.83,0.5-1.92,1.3c1.65-0.45,3.38-0.9,5.07-0.6c1.69,0.3,3.31,1.61,3.25,3.21
	c-2.4-0.1-4.81-0.02-7.19,0.24c1.31,1.45,3.69,1.28,5.72,1.48s4.43,1.72,3.71,3.49c2.74-2.69,7.32-3.6,11-2.17
	c0.92,0.36,1.79,0.84,2.77,1.03c0.98,0.18,2.13-0.03,2.68-0.8s0-2.09-0.99-2.06c1.29-0.17,2.42-1.12,2.72-2.3
	c-2.22,0.67-4.89-0.47-5.79-2.48c-0.81-1.82-0.33-4.16-1.79-5.59c1.27,0.36,2.53-1.05,2.23-2.25c-0.31-1.2-1.7-1.95-3.02-1.98
	c-0.87-0.02-1.81,0.25-2.32,0.91c-0.52,0.66-0.42,1.73,0.34,2.14c-1.02-0.46-2.05-0.93-3.07-1.39c-0.41,2.33,4.51,3.72,3.36,5.83
	c-0.74,1.34-3.24,0.49-3.54-0.99c-0.19-0.97,0.05-2.27-0.91-2.7c-1.83-0.82-3.16,3.35-4.91,2.39c0.11-0.94,0.22-1.87,0.33-2.81
	c-2.25-0.17-4.56,0.59-6.21,2.03c0.2-0.91,0.41-1.81,0.61-2.72c-2.44-1.26-4.86,3.21-7.5,2.36c2.54,0.82,8.22-3.8,3.75-5.75
	c-1.07-0.47-3.3,0.26-4.49,0.18c-2.09-0.14-4.26-1.33-6.36-1.12L91.13,34.74z"/>
<path class="st1" d="M102.22,25.06c-1.73-0.81-3.84,0.07-5.31,1.24s-2.69,2.68-4.45,3.44c-0.83,0.36-1.81,0.58-2.33,1.29
	c2.92-0.04,5.83-0.22,8.72-0.55c-0.16,0.92-0.66,1.78-1.38,2.42c1.36,0.46,2.48-1.13,2.67-2.46c0.06-0.41,0.11-0.88,0.47-1.14
	c0.28-0.21,0.67-0.21,1.03-0.26c1.23-0.18,2.31-1.27,2.16-2.42c-0.15-1.15-1.77-1.96-2.77-1.27"/>
<path class="st1" d="M111.32,32.62c0.36-0.18,0.55-0.6,0.45-0.96c-1.81,0.06-3.54-1.35-3.72-3.02c-1.03-0.61-2.61-0.14-3.05,0.92
	c-0.45,1.06,0.36,2.41,1.56,2.61c-1.76,0.7-3.51,1.4-5.27,2.1c3.35,1.68,7.33-1.98,11.06-1.25c0,0.42,0,0.84,0,1.26
	c-1.61,0.02-3.19,0.71-4.24,1.85c2.77,0.23,5.62-0.42,7.97-1.81c0.66-0.39,1.32-0.86,2.1-0.96c0.68-0.09,1.37,0.11,2.05,0.2
	c1.62,0.21,3.67-0.64,3.62-2.16c-1.09-0.34-2.26-0.47-3.41-0.39c-0.35-1.98-3.01-3.26-4.95-2.39c0.03,1.36,0.71,2.7,1.83,3.59
	c-1.1,0.9-2.82,1.06-4.1,0.38c-0.6-0.32-1.16-0.82-1.85-0.83c-0.75,0-1.72,0.5-2.09-0.1"/>
<path class="st1" d="M113.41,22.74c-2.73-0.3-5.56,0.13-8.04,1.24c1.34,0.56,2.68,1.13,4.02,1.69c0.31,0.13,0.62,0.26,0.96,0.25
	c0.3,0,0.58-0.12,0.85-0.22c1.29-0.52,2.58-1.03,3.88-1.55c-0.22-0.31-0.45-0.61-0.67-0.92c0.58,0.36,1.45-0.17,1.48-0.81
	c0.04-0.65-0.55-1.22-1.21-1.41c-0.67-0.19-1.39-0.09-2.06,0.06c-0.79,0.17-1.56,0.41-2.31,0.7c0.39,0.77,1.17,1.36,2.06,1.56
	c0.01,0.3,0.03,0.61,0.04,0.91"/>
<path class="st1" d="M132.52,23.13c-0.59,0.03-0.95-0.63-0.97-1.18s0.1-1.15-0.19-1.63c-0.72-1.19-2.67-0.31-4.12-0.52
	c-0.86-0.13-1.57-0.69-2.38-0.97s-1.97-0.12-2.21,0.66c-0.26,0.87,0.88,1.58,1.86,1.59c0.97,0.02,1.98-0.3,2.9-0.02
	c0.17,0.05,0.34,0.13,0.45,0.27c0.69,0.85-1.78,1.48-1.56,2.53c0.11,0.51,0.8,0.67,1.36,0.73c0.83,0.08,1.66,0.17,2.49,0.25
	c0.87,0.09,1.82,0.15,2.52-0.34s0.71-1.75-0.13-1.94"/>
<path class="st1" d="M136.92,31.3c0.49-0.53,0.19-1.41-0.42-1.81s-1.4-0.46-2.15-0.46c-2.18-0.01-4.36,0.25-6.46,0.77
	c-0.65,0.16-1.33,0.35-1.99,0.22c-0.66-0.13-1.27-0.72-1.12-1.33c-0.9,0.94,0.18,2.51,1.49,2.84s2.7-0.05,4.05,0.02
	s2.91,0.93,2.76,2.19c-0.03,0.3-0.16,0.61-0.03,0.89c0.16,0.33,0.61,0.43,1,0.41c1.8-0.08,3.18-2.06,2.53-3.62
	c-0.43,0.06-0.9-0.17-1.08-0.54c0.79-0.29,1.41-0.96,1.6-1.73c-1.47-0.52-3.19-0.39-4.55,0.33"/>
<path class="st1" d="M136.16,38.25c0.75-0.51,0.25-1.75-0.63-2c-0.89-0.24-1.83,0.19-2.56,0.72c-0.05,0.71-0.09,1.42-0.14,2.13
	c-0.88-0.17-1.83,0-2.58,0.47c1.3,0.32,2.37,1.35,2.66,2.58c-1.24,0.79-3.19,0.24-3.75-1.06c-0.26-0.6-0.35-1.41-1.01-1.61
	c-0.94-0.28-1.48,1.1-1.05,1.92c1.14,2.18,4.63,2.04,6.57,3.65c0.7,0.58,1.76,1.41,2.35,0.73c0.47-0.54-0.14-1.3-0.71-1.74
	c0.69,0.08,1.42,0.14,2.05-0.14c0.62-0.28,1.06-1.03,0.72-1.59c-0.18-0.29-0.51-0.47-0.79-0.68c-1.03-0.77-1.4-2.22-0.87-3.34
	c-0.37-0.15-0.74-0.29-1.11-0.44"/>
<path class="st1" d="M170.27,32.47c-2.35-1.32-5.27-1.72-7.94-1.1c-1.93,0.45-3.72,1.4-5.7,1.53c-2.89,0.19-5.66-1.5-7.24-3.77
	c2.19-1.4,5.4,1.34,7.71,0.12c0.67-0.35,1.13-0.99,1.83-1.28c0.71-0.3,1.54-0.17,2.31-0.04c3.7,0.62,7.4,1.23,11.1,1.85
	c0.44-1.47-0.92-3.16-2.56-3.19c1.94-0.73,3.88-1.45,5.82-2.18c0.98-0.37,2.03-0.79,2.56-1.64c0.53-0.85,0.15-2.22-0.89-2.35
	c4.46-1.45,8.79-3.26,12.91-5.42c-0.41-0.67-0.83-1.34-1.24-2c2.86,0.27,5.83-0.54,8.07-2.22c-3.21-0.25-6.47,0.04-9.58,0.83
	c5.35,0.63,10.88-0.21,15.74-2.38c-1.75-1.42-4.92,0.43-6.64-1.02c-0.52-0.43-0.77-1.09-1.3-1.51c-0.65-0.52-1.57-0.59-2.42-0.63
	c-8.73-0.44-17.49-0.21-26.18,0.69c-1.43,0.15-3.24,0.66-3.32,2c-2.08-0.08-4.16-0.16-6.24-0.24c-1.5,1.88-4.44,2.61-6.74,1.67
	c-0.52,0.77-1.04,1.54-1.56,2.3c1.45,0.93,3.27,1.36,5.02,1.19c1.07,2.06,4.55,2.51,6.18,0.8c0.73,2.33,4.47,1.89,6.69,0.62
	s5.07-2.9,7.15-1.43c-2.76,1.99-6.3,3.02-9.79,2.85c0.87,0.98,1.75,1.96,2.62,2.94c-2.14,0.12-4.04-1.15-5.92-2.12
	s-4.33-1.66-6.06-0.48c1.57,1.19,3.13,2.38,4.7,3.57c-4.32-2.12-8.63-4.23-12.95-6.35c-1.27-0.62-2.73-1.26-4.07-0.79
	c-1.34,0.46-1.74,2.64-0.36,2.99c-1.07,0.18-1.99,0.98-2.27,1.96c2.56,0.19,5.07,0.85,7.36,1.94c-1.08,0.32-2.15,0.64-3.23,0.97
	c2.46,0.75,4.92,1.49,7.37,2.24c0.5,0.15,1.07,0.3,1.53,0.06c0.46-0.24,0.63-0.77,0.89-1.2c0.77-1.29,2.76-1.78,4.12-1.03
	c-0.31,0.69-0.62,1.38-0.94,2.07l3.48,0.02c0.02,0.59,0.04,1.19,0.06,1.78c1.68,0.24,3.42,0.2,5.08-0.13
	c-0.61,2.1-3.89,2.29-5.93,1.23s-3.65-2.87-5.91-3.47c0.72,1.56,1.87,2.95,3.31,4c-3-0.45-6.13-0.17-8.98,0.8
	c-0.28-0.56-0.56-1.12-0.84-1.68c-2.35,0.91-2,4.07-1.23,6.33c0.22,0.66,0.46,1.34,0.93,1.88c1.07,1.22,2.98,1.36,4.67,1.41
	c2.55,0.07,5.09,0.14,7.64,0.2c3.54,0.09,11.3,1.65,11.16-3.19H170.27z"/>
<path class="st1" d="M142.35,29.92c0.7-0.45,1.96-0.07,2.28-0.8c0.24-0.55-0.39-1.07-0.94-1.36c-0.56-0.29-1.22-0.74-1.07-1.32
	c-0.5,0.07-1.02-0.03-1.44-0.28c1.06-0.26,2.13-0.52,3.19-0.78c0.41-0.1,0.92-0.44,0.68-0.76c-0.08-0.11-0.23-0.16-0.37-0.19
	c-0.66-0.16-1.38-0.18-1.96-0.51s-0.9-1.17-0.4-1.6c-0.36-0.03-0.73-0.06-1.09-0.09c-0.02-0.27-0.03-0.54-0.05-0.81
	c-1.89-0.05-3.77-0.19-5.64-0.43c-0.27,1.17,0.94,2.43,2.22,2.29c0.21-0.02,0.44-0.07,0.61,0.04c0.15,0.1,0.2,0.28,0.28,0.44
	c0.24,0.47,0.91,0.69,1.41,0.47c-0.15,0.34-0.4,0.64-0.71,0.86c0.61,0.3,1.28,0.5,1.96,0.57c-0.54,0.4-1.18,0.68-1.85,0.82
	c0.28,0.21,0.56,0.42,0.83,0.63c-0.71,0.01-1.42,0.03-2.14,0.04c-0.22,0.62,0.44,1.22,1.09,1.46c0.72,0.27,4.25,2.36,2.13,3.29
	c-1.2,0.53-1.7-1.31-1.28-2.02c0.67,1.44,0.47,3.46,1.64,4.72c0.86,0.92,2.16,1.09,3-0.12c1.44-2.1-2.05-2.73-2.4-4.56L142.35,29.92
	z"/>
<path class="st1" d="M163.43,192.57c-0.84,2.09,1.86,4.53,4.08,3.69c0.64-0.24,1.2-0.68,1.88-0.8c1.9-0.31,3,1.92,3.4,3.68
	c0.46,2.01,0.91,4.17,0.11,6.09c-0.97,2.3-3.61,3.9-3.92,6.36c-0.25,2,1.17,4.07,0.44,5.97c-0.33,0.86-1.07,1.55-1.41,2.4
	c-0.62,1.54,0.12,3.23,0.85,4.72c2.43,4.96,4.85,9.92,7.28,14.89c0.55,1.12,1.13,2.28,2.18,3.02c0.83,0.59,1.88,0.86,2.76,1.38
	c1.44,0.86,2.32,2.31,3.15,3.71c1.52,2.58,3.07,5.21,3.72,8.09c0.89,3.93,0.05,8.01-0.78,11.95c-1.22,5.77-2.45,11.53-3.67,17.3
	c-1.35,6.34-2.69,12.68-4.04,19.03c1.44-0.81,2.51-2.18,2.9-3.7c0.69,4.12-0.19,8.46-2.43,12.07c-0.19-1.56-0.39-3.11-0.58-4.67
	c-1.65,3.31-2.5,6.96-2.47,10.61c0,0.66,0.07,1.38,0.55,1.85c0.46,0.45,1.19,0.55,1.78,0.84c1.29,0.63,1.84,2.3,1.16,3.49
	c0.68,0.15,1.36,0.29,2.04,0.44c1.06,0.78-1.44,1.87-1.43,3.12c0,0.51,0.45,0.91,0.86,1.25c1.93,1.58,3.85,3.16,5.78,4.74
	c1.34,0.37,2.74,0.74,4.12,0.54c1.38-0.2,2.75-1.15,2.88-2.45c0.18-1.78-1.81-2.97-3.1-4.3c-2-2.06-2.48-5.1-1.98-7.84
	s1.87-5.26,3.23-7.74c-0.87-0.31-1.75-0.61-2.62-0.92c0.06-1.83,2.07-2.96,3.33-4.36c2.3-2.54,2.05-6.75-0.54-9.04
	c0.96-0.63,1.92-1.26,2.88-1.89c0.79,1.17,1.57,2.34,2.36,3.51c1.97-1.47,2.7-4.2,1.72-6.37c4.46,1.06,9.49-2.34,9.79-6.61
	c-1.1-0.04-1.97-1.22-1.62-2.19c0.36-0.97,1.83-1.4,2.72-0.8c-0.49,1.19,0.96,2.48,2.32,2.33c1.36-0.16,2.37-1.29,2.83-2.49
	c0.46-1.2,0.5-2.5,0.75-3.75c0.41-2.01,1.38-3.91,2.8-5.47c1.18-1.29,2.69-2.4,3.38-3.97c0.5-1.15,0.51-2.43,0.72-3.66
	c0.7-4,3.87-7.55,7.97-8.91c0.17,1.79,3.2,1.42,4.63,0.21c2.13-1.81,3.56-4.31,3.99-6.97c0.38-2.33,0.04-4.84,1.23-6.92
	c0.5-0.88,1.26-1.65,1.55-2.61c0.25-0.82,0.12-1.7,0.16-2.55c0.26-4.58,5.53-8.19,4.91-12.74c-0.4-2.95-3.16-5.07-5.71-6.87
	c-3.9-2.74-8.03-5.58-12.88-6.14c-3.08-0.36-6.39,0.21-9.15-1.1c1.23-0.07,2.1-1.27,2.16-2.41c0.06-1.15-0.47-2.24-0.99-3.28
	c-0.35-0.7-0.7-1.41-1.06-2.11c-1.43-2.85-3.77-6.2-7.12-5.76c-1,0.13-2.09,0.6-2.94,0.1c-0.78-0.46-0.86-1.47-1.28-2.23
	c-1.65-2.99-7.9-1.77-8.85-5.01c-0.25-0.85-0.04-1.87-0.69-2.5c-0.53-0.51-1.39-0.52-2.15-0.49c-3.46,0.12-6.92,0.24-10.38,0.36
	c-0.12,1.26-1,2.44-2.24,2.97c0.18,0.74,0.36,1.48,0.54,2.22c-0.28,1.32-2.66,1.16-3.28-0.06c-0.62-1.21-0.02-2.65,0.71-3.81
	c0.73-1.16,1.63-2.34,1.61-3.68c-1.57-0.7-3.16,0.82-4.29,2.05c-1.13,1.23-3.35,2.29-4.39,1c0.13,1.34,0.27,2.68,0.4,4.01
	c-2.23,1.81-6.25,1.02-7.5-1.48c-0.86,0.99-1.81,2.04-3.13,2.38s-3.05-0.42-3.04-1.7c0.67,2.76,3.61,4.89,6.64,4.82"/>
<path class="st1" d="M160.29,166.12c1.06,0.99,2.69-0.5,4.18-0.67c1.44-0.17,2.62,0.96,3.69,1.86c1.08,0.9,2.76,1.66,3.88,0.8
	c0.54,2.09,3.65,3.13,5.49,1.84c-0.17,0.74,0.87,1.24,1.67,1.11s1.51-0.6,2.31-0.65c1.17-0.08,2.29,0.88,2.3,1.97
	c0.03,0.4-0.57,0.54-0.99,0.44c-0.41-0.1-0.87-0.3-1.24-0.09c-0.26,0.15-0.36,0.44-0.53,0.67c-0.65,0.82-2.01,0.51-3.05,0.18
	c-1.04-0.33-2.51-0.43-2.91,0.52c3.25,0.6,6.64,0.55,9.88-0.14c-0.27,0.24-0.07,0.69,0.27,0.83c0.34,0.14,0.73,0.06,1.08-0.02
	c1.38-0.31,2.76-0.62,4.14-0.93c0.83,0.47,1.94,0.47,2.77,0c-0.06,0.35-0.11,0.71-0.17,1.06c1.62,0.65,3.71,0.03,4.62-1.38
	c-2.3-0.35-4.59-0.71-6.89-1.06c-1.65-0.25-3.34-0.52-4.78-1.31c-1.42-0.78-2.55-2.04-4.11-2.51c-2.19-0.66-4.7,0.38-6.82-0.44
	c-2.06-0.79-3.35-3.18-5.58-3.21c-0.72-0.01-1.49,0.24-2.14-0.04c-1.67-0.71-1.45-2.18-3.61-1.42c-0.41,0.14-3.12,2.92-3.48,2.58
	L160.29,166.12z"/>
<path class="st1" d="M344.77,125.57c-1.05,2.01-1.52,4.25-1.11,6.45c0.71,3.79,3.86,7.29,2.98,11.04c-1.38-0.34-2.75-0.67-4.13-1"/>
<path class="st1" d="M359.56,74.88c-0.08,0.24-0.19,0.46-0.3,0.69"/>
<path class="st1" d="M359.83,73.38c-0.02-0.91-0.43-1.76-1.07-2.47"/>
</svg>
