<?xml version="1.0" encoding="utf-8"?>
<!-- Generator: Adobe Illustrator 26.0.2, SVG Export Plug-In . SVG Version: 6.00 Build 0)  -->
<svg version="1.1" id="Layer_1" xmlns="http://www.w3.org/2000/svg" xmlns:xlink="http://www.w3.org/1999/xlink" x="0px" y="0px"
	 viewBox="0 0 150 64.2036" style="enable-background:new 0 0 150 64.2036;" xml:space="preserve">
<style type="text/css">
	.st0{fill:#FFFFFF;}
</style>
<g>
	<path class="st0" d="M141.8352,23.4689c0,6.8491-5.5402,12.4011-12.3743,12.4011c-6.834,0-12.3742-5.5519-12.3742-12.4011
		s5.5402-12.3994,12.3742-12.3994C136.295,11.0695,141.8352,16.6197,141.8352,23.4689 M150,23.4689
		c0-11.3416-9.1958-20.539-20.5391-20.539c-11.3432,0-20.539,9.1974-20.539,20.539c0,11.3432,9.1958,20.539,20.539,20.539
		C140.8042,44.0079,150,34.8121,150,23.4689"/>
	<path class="st0" d="M113.7031,0h-7.2794c-1.2988,0-1.9298,1.1449-1.9298,1.1449L87.9034,29.9172L73.6762,5.3159
		c0,0-0.6863-1.18-1.9299-1.18h-7.2827c0,0-1.277,0.0084-0.6126,1.1666c0,0,20.0402,34.7227,20.2946,35.1662
		c1.3893,2.4119,1.9333,2.4119,3.8029,2.4119c2.0052,0,2.2897,0,3.6505-2.3751c0.2008-0.3398,22.7551-39.3791,22.7551-39.3791
		C115.0018,0,113.7031,0,113.7031,0"/>
	<path class="st0" d="M16.1303,16.8793H8.538V5.362c0,0,0-1.2989-1.2989-1.2989H1.3005c0,0-1.3005,0-1.3005,1.2989v31.7199
		c0,0,0,1.2989,1.3005,1.2989h5.9386c0,0,1.2989,0,1.2989-1.2989V25.4574h7.4567l9.4284,16.2976c0,0,0.6478,1.1264,1.9483,1.1264
		h7.2492c0,0,1.3005,0,0.6511-1.1264c0,0-10.8695-18.8217-11.139-19.272c-0.2711-0.4503-0.8302-1.0227-0.1791-2.1491L35.0273,1.1256
		c0,0,0.6494-1.1248-0.6494-1.1248h-7.2157c0,0-1.2989,0-1.9483,1.1248L16.1303,16.8793z"/>
	<path class="st0" d="M74.903,41.7546c0,0-22.6061-39.2218-22.807-39.5599c-1.2738-2.1307-1.7692-2.1943-3.8414-2.1943
		c-1.9148,0-2.586,0.0452-4.0087,2.4772c-0.2561,0.4452-10.1348,17.6049-10.3289,17.9145c-0.375,0.6076-0.3565,1.1198,0.0552,1.8294
		c0.0401,0.0686,6.1009,10.6068,6.2717,10.8947c0.395,0.6611,0.9323,0.8921,1.7357,0.9005
		c0.2142,0.0017,10.9968,0.0017,10.9968,0.0017c1.2989-0.0017,0.6494-1.1281,0.6494-1.1281l-3.9652-6.3068
		c-0.6494-1.1265-1.9499-1.1248-1.9499-1.1248l-6.8893-0.0017l7.4149-12.8496l16.8315,29.1473c0,0,0.6494,1.1265,1.9483,1.1265
		h7.2358C74.2519,42.8811,75.5507,42.8811,74.903,41.7546"/>
	<path class="st0" d="M147.4055,59.4316h-5.8934c0.097-1.5767,1.2637-2.9191,3.2538-2.9191c1.878,0,2.6881,1.108,2.6881,2.3416
		C147.454,59.0567,147.4222,59.2609,147.4055,59.4316 M147.9059,62.3022c-0.7114,0.5306-1.714,0.9992-2.961,0.9992
		c-2.2997,0-3.3508-1.3122-3.4647-3.0128h6.8776c0.082-0.2963,0.1457-0.8252,0.1457-1.2788c0-1.8579-1.1465-3.4011-3.7209-3.4011
		c-2.7199,0-4.4171,1.95-4.4171,4.3217c0,2.3399,1.3574,4.2732,4.5476,4.2732c1.4244,0,2.5893-0.4352,3.4614-1.1047
		L147.9059,62.3022z M131.0291,59.8986c0,2.4504,1.8429,4.305,4.4975,4.305c1.2787,0,2.3634-0.4201,3.155-1.1047l-0.5657-0.7967
		c-0.6143,0.5473-1.4562,0.9206-2.5408,0.9206c-2.0387,0-3.4146-1.4194-3.4146-3.3241c0-1.9031,1.3759-3.3091,3.4146-3.3091
		c1.0846,0,1.9265,0.3749,2.5408,0.9223l0.5657-0.7967c-0.7916-0.6846-1.8763-1.1064-3.155-1.1064
		C132.872,55.6087,131.0291,57.4482,131.0291,59.8986 M120.7872,55.828v8.158h1.098v-5.2406
		c0.3247-1.1248,1.3608-2.0621,2.9308-2.0621c1.7642,0,2.5743,1.1716,2.5743,2.7467v4.556h1.098v-4.6966
		c0-2.0437-1.083-3.602-3.3811-3.602c-1.4729,0-2.6061,0.6377-3.222,1.6671V55.828H120.7872z M116.966,59.4316h-5.8917
		c0.0971-1.5767,1.262-2.9191,3.2538-2.9191c1.878,0,2.6865,1.108,2.6865,2.3416C117.0146,59.0567,116.9827,59.2609,116.966,59.4316
		 M117.4664,62.3022c-0.7113,0.5306-1.7139,0.9992-2.9609,0.9992c-2.2981,0-3.3509-1.3122-3.4648-3.0128h6.8792
		c0.0804-0.2963,0.1439-0.8252,0.1439-1.2788c0-1.8579-1.1465-3.4011-3.7208-3.4011c-2.7199,0-4.4172,1.95-4.4172,4.3217
		c0,2.3399,1.3575,4.2732,4.5477,4.2732c1.4243,0,2.5893-0.4352,3.4614-1.1047L117.4664,62.3022z M105.3767,52.9106v9.3916
		c0,1.3106,0.7113,1.8395,1.7457,1.8395c0.6327,0,1.1984-0.1858,1.555-0.4051l-0.1457-0.857
		c-0.3247,0.2025-0.6309,0.3431-1.0528,0.3431c-0.5993,0-1.0026-0.3431-1.0026-1.1382v-9.174H105.3767z M100.1344,52.9106v9.3916
		c0,1.3106,0.7113,1.8395,1.7457,1.8395c0.631,0,1.1968-0.1858,1.5533-0.4051l-0.1457-0.857
		c-0.323,0.2025-0.6309,0.3431-1.0511,0.3431c-0.5992,0-1.0042-0.3431-1.0042-1.1382v-9.174H100.1344z M96.2897,59.4316h-5.8934
		c0.097-1.5767,1.262-2.9191,3.2538-2.9191c1.878,0,2.6881,1.108,2.6881,2.3416C96.3383,59.0567,96.3048,59.2609,96.2897,59.4316
		 M96.7902,62.3022c-0.7114,0.5306-1.7157,0.9992-2.961,0.9992c-2.2997,0-3.3526-1.3122-3.4647-3.0128h6.8776
		c0.0804-0.2963,0.1457-0.8252,0.1457-1.2788c0-1.8579-1.1465-3.4011-3.7209-3.4011c-2.7199,0-4.4171,1.95-4.4171,4.3217
		c0,2.3399,1.3574,4.2732,4.546,4.2732c1.4243,0,2.591-0.4352,3.463-1.1047L96.7902,62.3022z M79.9134,59.8986
		c0,2.4504,1.8429,4.305,4.4975,4.305c1.2771,0,2.3616-0.4201,3.155-1.1047l-0.5657-0.7967
		c-0.616,0.5473-1.4579,0.9206-2.5408,0.9206c-2.0403,0-3.4162-1.4194-3.4162-3.3241c0-1.9031,1.3759-3.3091,3.4162-3.3091
		c1.0829,0,1.9248,0.3749,2.5408,0.9223l0.5657-0.7967c-0.7934-0.6846-1.8779-1.1064-3.155-1.1064
		C81.7563,55.6087,79.9134,57.4482,79.9134,59.8986 M78.5409,55.828h-1.2136l-2.832,3.448l-2.8321-3.448h-1.2135v0.0937
		l3.2689,4.0087l-3.2689,3.9618v0.0937h1.2452l2.8003-3.4011l2.8002,3.4011h1.2453v-0.0937l-3.284-3.9618l3.284-4.0087V55.828z
		 M68.4865,63.986v-0.949h-7.2993v-4.1058h6.1176v-0.9507h-6.1176v-3.6522h7.2993v-0.9507h-8.3488V63.986H68.4865z M50.9938,52.9106
		v9.3916c0,1.3106,0.7114,1.8395,1.7458,1.8395c0.631,0,1.1984-0.1858,1.5533-0.4051l-0.1456-0.857
		c-0.323,0.2025-0.631,0.3431-1.0511,0.3431c-0.5992,0-1.0043-0.3431-1.0043-1.1382v-9.174H50.9938z M41.9587,61.5674
		c0-1.4043,1.4077-1.9818,3.222-1.9818c0.5992,0,1.2135,0.0937,1.5867,0.1875v2.4504c-0.5189,0.4687-1.3608,1.0461-2.6228,1.0461
		c-1.329,0-2.186-0.6076-2.186-1.7006V61.5674z M41.8934,57.1837c0.7616-0.3599,1.7006-0.5624,2.6546-0.5624
		c1.4746,0,2.2194,0.703,2.2194,2.109v0.2494c-0.5021-0.1255-1.1181-0.2025-1.7809-0.2025c-2.365,0-4.1276,0.8871-4.1276,2.8856
		c0,1.5131,1.1482,2.4789,2.9944,2.4789c1.3909,0,2.3148-0.5758,2.9141-1.1365v0.9808h1.098v-5.3025
		c0-1.796-1.0344-2.9961-3.2355-2.9961c-1.0042,0-2.1692,0.2176-2.9458,0.5607L41.8934,57.1837z M34.358,53.7525l-0.1138,2.0755
		h-1.6989V56.7h1.6821v4.9628c0,1.6068,0.8888,2.4789,2.3768,2.4789c1.0696,0,2.0069-0.3113,2.7031-0.7465l-0.3883-0.8436
		c-0.5021,0.3599-1.3424,0.6411-2.0069,0.6411c-1.036,0-1.5851-0.5775-1.5851-1.7173V56.7h3.5267v-0.872h-3.5116v-2.0755H34.358z
		 M23.0098,55.828v8.158h1.098v-5.2406c0.3247-1.1248,1.3608-2.0621,2.9308-2.0621c1.7641,0,2.5743,1.1716,2.5743,2.7467v4.556
		h1.098v-4.6966c0-2.0437-1.0813-3.602-3.3811-3.602c-1.4729,0-2.606,0.6377-3.222,1.6671V55.828H23.0098z M19.1886,59.4316h-5.8918
		c0.0971-1.5767,1.2621-2.9191,3.2538-2.9191c1.878,0,2.6864,1.108,2.6864,2.3416C19.2371,59.0567,19.2053,59.2609,19.1886,59.4316
		 M19.689,62.3022c-0.7097,0.5306-1.7139,0.9992-2.9609,0.9992c-2.2981,0-3.3509-1.3122-3.4647-3.0128h6.8793
		c0.0803-0.2963,0.1456-0.8252,0.1456-1.2788c0-1.8579-1.1482-3.4011-3.7225-3.4011c-2.7199,0-4.4171,1.95-4.4171,4.3217
		c0,2.3399,1.3574,4.2732,4.5476,4.2732c1.4244,0,2.5893-0.4352,3.4614-1.1047L19.689,62.3022z M4.1747,54.3283
		c2.6714,0,4.5811,1.5131,4.5811,4.3686c0,2.8253-1.9098,4.3401-4.5811,4.3401H1.0983v-8.7087H4.1747z M0.0003,63.986h4.2062
		c3.2538,0,5.6792-1.8713,5.6792-5.2892c0-3.448-2.4253-5.3025-5.6792-5.3193H0.0003V63.986z"/>
</g>
</svg>
