<?xml version="1.0" encoding="utf-8"?>
<!-- Generator: Adobe Illustrator 26.0.2, SVG Export Plug-In . SVG Version: 6.00 Build 0)  -->
<svg version="1.1" id="Layer_1" xmlns="http://www.w3.org/2000/svg" xmlns:xlink="http://www.w3.org/1999/xlink" x="0px" y="0px"
	 viewBox="0 0 310 61" style="enable-background:new 0 0 310 61;" xml:space="preserve">
<style type="text/css">
	.st0{fill:#FF5100;}
</style>
<g>
	<polygon class="st0" points="5,0.6054 8.586,0.6054 8.586,16.3692 25.6271,0.6448 30.3056,0.6448 12.0165,17.1446 31.0914,35.0237 
		26.1536,35.0237 8.586,18.1155 8.586,35.0237 5,35.0237 	"/>
	<path class="st0" d="M40.2395,4.6961h-3.2739v-4.071h3.2739V4.6961z M36.9655,10.3137h3.2739v24.71h-3.2739V10.3137z"/>
	<path class="st0" d="M49.5433,0.6054h3.2746v34.4183h-3.2746V0.6054z"/>
	<path class="st0" d="M62.1203,0.6448h3.2748v34.3788h-3.2748V0.6448z"/>
	<path class="st0" d="M77.9718,4.6961h-3.2746v-4.071h3.2746V4.6961z M74.6972,10.3137h3.2746v24.71h-3.2746V10.3137z"/>
	<path class="st0" d="M87.2749,16.1286c0-1.8895,0-3.8289-0.2085-5.8151h3.171v4.4089h0.1037
		c1.0913-2.229,3.0667-4.9906,8.5766-4.9906c6.5485,0,9.0431,4.071,9.0431,9.4977v15.7938h-3.2746V20.0049
		c0-4.6512-1.7667-7.6557-6.2893-7.6557c-5.977,0-7.8479,4.894-7.8479,9.0104v13.6637h-3.274V16.1286z"/>
	<path class="st0" d="M138.1588,32.9886c0,6.8801-3.3259,12.5014-12.422,12.5014c-3.4833,0-6.6522-0.9209-8.0036-1.3095
		l0.2594-3.0512c2.0274,0.9678,4.9369,1.7432,7.7965,1.7432c8.4194,0,9.1474-5.7171,9.1474-12.6931h-0.1035
		c-1.7673,3.5837-4.6776,4.8442-8.0566,4.8442c-8.4716,0-11.1748-6.8801-11.1748-12.3533c0-7.5125,3.1189-12.9382,10.9154-12.9382
		c3.534,0,5.8205,0.4353,8.2637,3.3929h0.1035v-2.8113h3.2746L138.1588,32.9886L138.1588,32.9886z M126.8283,32.4076
		c5.9248,0,8.0558-5.2328,8.0558-9.7374c0-5.9615-1.8708-10.3208-7.8479-10.3208c-6.2363,0-7.847,5.5232-7.847,10.3208
		C119.1893,27.5144,121.2664,32.4076,126.8283,32.4076z"/>
	<path class="st0" d="M187.692,19.6158h-8.4179v-2.9071h12.0022v16.8139c-3.6872,1.5011-7.2749,2.0828-11.2767,2.0828
		c-11.4326,0-18.2949-7.0258-18.2949-17.4898c0-10.2731,7.0678-17.4904,18.2949-17.4904c2.7529,0,7.2779,0.4351,9.7164,1.5976
		l-0.4143,3.1004c-2.8058-1.4536-6.1319-1.793-9.3021-1.793c-9.4082,0-14.7087,6.2019-14.7087,14.5856
		c0,8.5269,5.148,14.5826,14.7087,14.5826c2.2361,0,5.9762-0.2429,7.6922-1.2113V19.6158H187.692z"/>
	<path class="st0" d="M218.8253,34.2491c-2.289,0.8711-5.2507,1.3562-7.6924,1.3562c-8.7822,0-12.0584-5.5232-12.0584-12.935
		c0-7.5592,4.4691-12.9382,11.1742-12.9382c7.4836,0,10.5511,5.6221,10.5511,12.2585v1.551h-18.1405
		c0,5.2318,3.0177,9.447,8.7325,9.447c2.3917,0,5.8733-0.9196,7.4338-1.8405v3.101H218.8253z M217.2152,20.924
		c0-4.3119-1.8747-8.5744-6.7579-8.5744c-4.8364,0-7.798,4.5048-7.798,8.5744H217.2152z"/>
	<path class="st0" d="M228.0249,15.8367c0-2.7118,0-3.73-0.2087-5.523h3.2763v4.7485h0.1029
		c1.196-2.7623,3.4318-5.3302,6.8076-5.3302c0.7817,0,1.7128,0.1464,2.289,0.2919v3.1976c-0.679-0.1939-1.5603-0.2904-2.395-0.2904
		c-5.1945,0-6.5992,5.425-6.5992,9.8823v12.2103h-3.2731V15.8367z"/>
	<path class="st0" d="M278.3356,35.0237V18.5984c0-3.4873-1.4014-6.2488-5.6119-6.2488c-3.5877,0-7.1223,2.8581-7.1223,9.0104
		v13.6637h-3.2731V18.5984c0-3.4873-1.4046-6.2488-5.6121-6.2488c-3.5877,0-7.1222,2.8581-7.1222,9.0104v13.6637h-3.2731v-18.895
		c0-1.8895,0-3.8289-0.2087-5.8151h3.1704v4.1675l0.1029,0.0475c1.0401-1.6965,2.5974-4.7967,8.2652-4.7967
		c2.3388,0,6.1849,0.9209,7.0165,5.2328h0.1027c1.1992-2.9071,4.3164-5.2328,8.4739-5.2328c5.3533,0,8.368,3.4895,8.368,8.2862
		v17.0053h-3.2764V35.0237z"/>
	<path class="st0" d="M288.6284,31.4376c1.9744,0.9219,4.3631,1.551,6.9136,1.551c3.1174,0,5.8705-1.5985,5.8705-4.4091
		c0-5.8625-12.7341-4.9407-12.7341-12.1114c0-4.8932,4.2634-6.7361,8.6296-6.7361c1.4044,0,4.2072,0.2919,6.5493,1.1148
		l-0.3114,2.6643c-1.716-0.7262-4.0548-1.1615-5.8767-1.1615c-3.3758,0-5.7148,0.9686-5.7148,4.1185
		c0,4.6015,13.0457,4.0205,13.0457,12.1114c0,5.2328-5.2508,7.0258-9.2493,7.0258c-2.5506,0-5.0949-0.2919-7.4369-1.1632
		L288.6284,31.4376z"/>
	<g>
		<path class="st0" d="M165.3347,50.688h-1.8725v-1.1337h1.8725v-2.2858c0-1.6148,0.5013-2.9982,2.971-2.9982
			c0.4763,0,0.8064,0.0638,1.0463,0.1059v1.2153c-0.2399-0.084-0.6197-0.1884-1.093-0.1884c-1.2115,0-1.5448,0.7756-1.5448,1.6366
			v2.5147h2.1396v1.1337h-2.1396v9.5607h-1.3797V50.688H165.3347z"/>
		<path class="st0" d="M170.2304,54.9009c0-2.6836,0.9966-5.4927,4.5345-5.4927c3.541,0,4.5376,2.8091,4.5376,5.4927
			c0,2.6846-0.9966,5.4935-4.5376,5.4935C171.227,60.3944,170.2304,57.5853,170.2304,54.9009z M177.8292,54.9009
			c0-0.8579,0-4.3616-3.0643-4.3616c-3.0614,0-3.0614,3.5035-3.0614,4.3616c0,0.8611,0,4.3614,3.0614,4.3614
			C177.8292,59.2624,177.8292,55.7619,177.8292,54.9009z"/>
		<path class="st0" d="M181.8932,52.8681c0-1.111-0.0717-2.2026-0.0934-3.3138h1.283c0.0219,0.6292,0.0685,1.2582,0.0967,1.699
			h0.0467c0.8783-1.5308,1.8965-1.8452,3.2296-1.8452v1.3002c-2.1863,0-3.1829,0.8386-3.1829,2.8091v6.7314h-1.3797
			C181.8932,60.2487,181.8932,52.8681,181.8932,52.8681z"/>
		<path class="st0" d="M201.5629,57.8587c0,0.7957,0.0685,1.5936,0.1402,2.3902h-1.2364l-0.0934-1.5323h-0.0467
			c-0.8316,1.175-1.8312,1.678-3.3978,1.678c-1.8747,0-3.3696-1.3634-3.3696-3.1034c0-3.4173,4.1076-3.4793,5.8392-3.4793h0.8814
			c0-1.3422,0-3.2724-2.5194-3.2724c-1.6131,0-2.8963,1.0075-3.0365,1.1118l-0.2179-1.3002
			c1.143-0.5443,1.9964-0.9429,3.3259-0.9429c3.7309,0,3.7309,2.7678,3.7309,3.5431v4.9074H201.5629z M200.2799,54.8597
			c-2.8495,0-5.2507,0-5.2507,2.4315c0,0.9024,0.7599,1.9712,2.2362,1.9712c0.6385,0,3.0145-0.2312,3.0145-3.1445V54.8597z"/>
		<path class="st0" d="M215.4587,50.9801c-0.6882-0.2298-1.28-0.4408-2.0647-0.4408c-1.4262,0-2.0647,0.9444-2.0647,1.699
			c0,0.9856,0.4236,1.196,2.0647,1.9914c1.6598,0.7964,2.943,1.343,2.943,3.0612c0,1.9294-1.5416,3.1034-3.5845,3.1034
			c-1.4981,0-2.3513-0.2717-3.0645-0.5028l0.1899-1.3624c0.4018,0.2522,1.6382,0.7332,2.7563,0.7332
			c1.3047,0,2.2328-0.8814,2.2328-1.8443c0-1.0285-0.738-1.4474-2.1611-2.0771c-2.0431-0.9009-2.8528-1.4669-2.8528-2.9772
			c0-2.0126,1.9464-2.9555,3.5658-2.9555c0.8067,0,1.7784,0.1882,2.23,0.3144L215.4587,50.9801z"/>
		<path class="st0" d="M226.1719,57.8587c0,0.7957,0.0715,1.5936,0.1432,2.3902h-1.2364l-0.0965-1.5323h-0.0467
			c-0.8284,1.175-1.8282,1.678-3.3978,1.678c-1.8747,0-3.3696-1.3634-3.3696-3.1034c0-3.4173,4.1075-3.4793,5.8393-3.4793h0.8813
			c0-1.3422,0-3.2724-2.5162-3.2724c-1.6163,0-2.8995,1.0075-3.0427,1.1118l-0.2117-1.3002
			c1.1398-0.5443,1.9962-0.9429,3.3229-0.9429c3.7309,0,3.7309,2.7678,3.7309,3.5431L226.1719,57.8587L226.1719,57.8587z
			 M224.8887,54.8597c-2.8527,0-5.2475,0-5.2475,2.4315c0,0.9024,0.7597,1.9712,2.2328,1.9712c0.6385,0,3.0145-0.2312,3.0145-3.1445
			v-1.2582H224.8887z"/>
		<path class="st0" d="M229.9743,50.688h-1.8779v-1.1337h1.8779v-2.2858c0-1.6148,0.4983-2.9982,2.9678-2.9982
			c0.4765,0,0.8064,0.0638,1.0463,0.1059v1.2153c-0.2399-0.084-0.6196-0.1884-1.0931-0.1884c-1.2115,0-1.5448,0.7756-1.5448,1.6366
			v2.5147h2.1396v1.1337h-2.1396v9.5607h-1.3764V50.688H229.9743z"/>
		<path class="st0" d="M236.3399,55.2995c0,3.9628,2.8745,3.9628,3.4195,3.9628c0.7849,0,1.9245-0.3354,2.6127-0.8814l0.0717,1.4069
			c-0.57,0.2709-1.3796,0.6065-2.8246,0.6065c-4.7525,0-4.7525-4.4239-4.7525-5.4935c0-4.0251,2.2578-5.4927,4.3009-5.4927
			c3.516,0,3.8709,3.2924,3.8709,5.8913C243.0385,55.2995,236.3399,55.2995,236.3399,55.2995z M241.5656,54.1683
			c0-2.8325-1.3547-3.6289-2.4727-3.6289c-1.8747,0-2.7531,2.2446-2.7531,3.6289H241.5656z"/>
		<path class="st0" d="M245.6297,52.8681c0-1.111-0.0717-2.2026-0.0965-3.3138h1.2832c0.025,0.6292,0.0715,1.2582,0.0965,1.699
			h0.0467c0.8814-1.5308,1.8997-1.8452,3.2294-1.8452v1.3002c-2.1863,0-3.1797,0.8386-3.1797,2.8091v6.7314h-1.3795v-7.3807
			H245.6297z"/>
		<path class="st0" d="M256.5827,49.5545h1.4699l2.5444,9.3942h0.0467l2.4447-9.3942h1.7565l2.6626,9.3942h0.0468l2.5194-9.3942
			h1.3766l-3.1579,10.6944h-1.7128l-2.6129-9.311h-0.0467l-2.4695,9.311h-1.6131L256.5827,49.5545z"/>
		<path class="st0" d="M272.6895,54.9009c0-2.6836,0.9936-5.4927,4.5345-5.4927c3.5378,0,4.5376,2.8091,4.5376,5.4927
			c0,2.6846-0.9998,5.4935-4.5376,5.4935C273.683,60.3944,272.6895,57.5853,272.6895,54.9009z M280.2883,54.9009
			c0-0.8579,0-4.3616-3.0643-4.3616c-3.0645,0-3.0645,3.5035-3.0645,4.3616c0,0.8611,0,4.3614,3.0645,4.3614
			C280.2883,59.2624,280.2883,55.7619,280.2883,54.9009z"/>
		<path class="st0" d="M284.3493,52.8681c0-1.111-0.0687-2.2026-0.0934-3.3138h1.2832c0.0219,0.6292,0.0685,1.2582,0.0934,1.699
			h0.0468c0.8813-1.5308,1.8997-1.8452,3.2296-1.8452v1.3002c-2.1833,0-3.1797,0.8386-3.1797,2.8091v6.7314h-1.3795v-7.3807
			H284.3493z"/>
		<path class="st0" d="M291.0761,44.5218h1.3764v15.7271h-1.3764V44.5218z"/>
		<path class="st0" d="M303.664,56.704c0,1.677,0.0467,2.6206,0.0965,3.545h-1.2862v-1.4676h-0.0468
			c-0.9031,1.0066-1.663,1.6131-3.1797,1.6131c-3.9458,0-4.086-4.4036-4.086-5.8913c0-2.0336,0.9746-5.0949,4.0141-5.0949
			c1.5416,0,2.4447,0.5448,3.0614,1.5299h0.0467V44.522h1.3795V56.704H303.664z M299.3881,59.2624
			c2.3513,0,2.9927-2.0544,2.9927-4.2362c0-1.4256,0-4.4869-2.9678-4.4869c-2.0647,0-2.778,1.888-2.778,4.3616
			C296.6351,55.783,296.6351,59.2624,299.3881,59.2624z"/>
	</g>
</g>
</svg>
