<?xml version="1.0" encoding="utf-8"?>
<!-- Generator: Adobe Illustrator 26.0.2, SVG Export Plug-In . SVG Version: 6.00 Build 0)  -->
<svg version="1.1" id="Layer_1" xmlns="http://www.w3.org/2000/svg" xmlns:xlink="http://www.w3.org/1999/xlink" x="0px" y="0px"
	 viewBox="0 0 200 199.2" style="enable-background:new 0 0 200 199.2;" xml:space="preserve">
<style type="text/css">
	.st0{fill:#FF6600;}
</style>
<g>
	<path class="st0" d="M0,56.6514c1.4686-5.1257,5.0714-7.8429,9.8943-9.8429C35.2571,36.2914,60.5029,25.4943,85.84,14.9114
		c9.2857-3.8771,18.7171-3.8514,28.0914-0.0886c2.4086,0.9686,4.8057,1.9657,7.1943,2.9857
		c3.3743,1.4429,4.8629,4.9343,3.5286,8.1914c-1.3686,3.34-4.9029,4.6514-8.4029,3.36c-4.3029-1.5857-8.6143-3.2371-13.0486-4.3714
		c-4.2-1.0743-8.4229-0.1743-12.3914,1.4686C72.4571,34.0514,54.1286,41.7,35.7886,49.3314
		c-5.2114,2.1714-10.4171,4.3628-15.6371,6.5114c-1.4686,0.6057-2.6743,1.3314-2.6486,3.18
		c0.0229,1.8286,1.2286,2.5343,2.6971,3.1457c23.0714,9.6028,46.1429,19.2057,69.1914,28.8629
		c7.0171,2.94,13.9486,3.0257,20.9943,0.0743c23.1686-9.7029,46.3629-19.3486,69.5514-29.0029
		c1.4057-0.5857,2.52-1.3171,2.5543-3.0514c0.0371-1.8457-1.1429-2.6029-2.62-3.2c-2.8286-1.1457-5.6457-2.3143-8.4514-3.5143
		c-3.66-1.5657-5.14-5.0457-3.6257-8.4229c1.4486-3.2286,5.0429-4.3971,8.5629-2.8771c5.2457,2.2629,10.5172,4.4629,15.7772,6.6857
		c5.0571,2.1371,7.9,6.1371,7.8543,11.2343c-0.0486,5.4943-2.8343,9.1886-7.7914,11.28
		C166.3,81.1628,140.4028,92.0914,114.48,102.9543c-9.4943,3.98-19.1286,4.0971-28.6371,0.1257
		C59.7314,92.1657,33.6686,81.1285,7.5743,70.1714C3.5371,68.4743,1.2971,65.3343,0,61.34V56.6514z"/>
	<path class="st0" d="M0,137.9025c1.4571-5.1429,4.9657-8.1371,9.92-9.8143c2.6943-0.9143,5.2571-2.2257,7.8829-3.3457
		c3.2143-1.3686,6.7914,0.0114,8.1857,3.1486c1.3686,3.08,0.0714,6.5457-3.0486,8.0486c-0.9914,0.4771-2.0343,0.8457-3.0571,1.26
		c-1.4343,0.58-2.4429,1.4486-2.3886,3.1714c0.0514,1.6343,1.0829,2.3686,2.4314,2.9286
		c12.5857,5.2343,25.1629,10.4829,37.74,15.7314c10.4229,4.3486,20.88,8.62,31.2543,13.0771
		c7.4114,3.1857,14.6657,3.16,22.0943,0.0343c22.8486-9.62,45.74-19.1371,68.6257-28.6714
		c1.5171-0.6343,2.8657-1.2771,2.8571-3.2257c-0.0057-1.9371-1.3314-2.64-2.8686-3.22c-2.5086-0.9486-5.0114-1.8857-5.8743-4.8829
		c-0.7086-2.4572-0.0686-4.5114,1.6857-6.2257c1.7229-1.6829,3.8771-2.2543,6.1143-1.3743c4.0457,1.5914,8.1,3.2057,11.9829,5.1428
		c4.4828,2.2314,6.6543,6.1,6.44,11.1229c-0.2086,4.8714-2.6886,8.4057-7.0943,10.3457c-7.1857,3.1686-14.46,6.1314-21.7,9.1771
		c-18.8429,7.9343-37.6829,15.8771-56.5343,23.7971c-9.7771,4.1086-19.5686,4.0857-29.3486-0.0257
		c-25.5457-10.7486-51.0743-21.54-76.6571-32.1971C4.22,150.0625,1.3686,147.0997,0,142.5911V137.9025z"/>
	<path class="st0" d="M0,97.2771c1.4571-5.1429,4.9629-8.14,9.9171-9.8143c2.6371-0.8914,5.14-2.1714,7.7-3.2857
		c3.3171-1.4457,6.9657-0.1057,8.3657,3.0828c1.4057,3.1943,0.0686,6.5943-3.2171,8.1257c-0.94,0.4371-1.9114,0.8171-2.8771,1.2
		c-1.4457,0.5714-2.4257,1.4457-2.3857,3.1657c0.0429,1.6486,1.0914,2.3771,2.4257,2.9343
		c11.1457,4.6371,22.2857,9.2886,33.4314,13.9257c12.4629,5.1857,24.9143,10.4057,37.4057,15.5257
		c6.1686,2.5286,12.4371,2.5029,18.6-0.0514c22.7228-9.4257,45.42-18.9,68.1286-28.3571c1.0771-0.4486,2.3143-0.7057,3.1857-1.4114
		c0.8057-0.6514,1.6829-1.7914,1.6743-2.7114c-0.0057-0.9229-0.8914-2.06-1.7114-2.6943c-0.94-0.7286-2.2457-0.9743-3.3657-1.4886
		c-3.3514-1.54-4.7057-5.0657-3.2114-8.2829c1.4714-3.1714,5.0857-4.38,8.42-2.9057c3.2029,1.42,6.4486,2.7486,9.6743,4.1114
		c5.0172,2.12,7.8372,6.1714,7.84,11.2629c0.0029,5.1029-2.8229,9.1771-7.8114,11.2771
		c-25.96,10.9314-51.9029,21.9114-77.8943,32.7743c-9.3543,3.9114-18.8886,4.0143-28.2686,0.0943
		c-26.2286-10.96-52.4057-22.0486-78.6143-33.06c-3.98-1.6743-6.1457-4.7971-7.4114-8.7286V97.2771z"/>
	<path class="st0" d="M146.8734,34.1077c-0.0429,3.5343-2.8029,6.1714-6.4171,6.1343c-3.4914-0.0371-6.1429-2.8571-6.0771-6.4629
		c0.0657-3.4286,2.8086-6.0514,6.3143-6.0314C144.242,27.7677,146.9191,30.522,146.8734,34.1077"/>
</g>
</svg>
