<?xml version="1.0" encoding="utf-8"?>
<!-- Generator: Adobe Illustrator 26.0.2, SVG Export Plug-In . SVG Version: 6.00 Build 0)  -->
<svg version="1.1" id="Ebene_1" xmlns="http://www.w3.org/2000/svg" xmlns:xlink="http://www.w3.org/1999/xlink" x="0px" y="0px"
	 viewBox="0 0 992.126 425.1973" style="enable-background:new 0 0 992.126 425.1973;" xml:space="preserve">
<style type="text/css">
	.st0{fill:#FF6600;}
</style>
<g>
	<path class="st0" d="M132.6802,117.3867c54.8672,0,80.7187,40.8594,80.1953,85.7344
		c-0.5078,50.8281-27.6797,85.7344-80.1953,85.7344c-52.5235,0-79.6953-34.9063-80.211-85.7344
		C51.9458,158.2461,77.813,117.3867,132.6802,117.3867L132.6802,117.3867 M70.5005,203.1211
		c0,35.1562,19.3281,71.4844,62.1797,71.4844c42.8515,0,62.1797-36.3282,62.1797-71.4844c0-35.1406-19.3282-71.4844-62.1797-71.4844
		C89.8286,131.6367,70.5005,167.9805,70.5005,203.1211L70.5005,203.1211z"/>
	<path class="st0" d="M397.5703,138.7617c-11.5-5.4531-27.9453-7.125-40.7578-7.125c-47.2812,0-73.9292,30.3985-73.9292,71.4844
		c0,41.7969,25.8589,71.4844,73.9292,71.4844c12.0234,0,30.3047-1.4219,40.7578-7.1172l1.0469,14.2578
		c-9.9297,5.4531-30.3047,7.1094-41.8047,7.1094c-57.4687,0-91.9526-34.4219-91.9526-85.7344
		c0-50.3438,35.5151-85.7344,91.9526-85.7344c10.7109,0,32.3984,1.6563,41.8047,6.1797L397.5703,138.7617L397.5703,138.7617z"/>
	<path class="st0" d="M580.2734,138.7617c-11.4921-5.4531-27.9453-7.125-40.75-7.125c-47.289,0-73.9453,30.3985-73.9453,71.4844
		c0,41.7969,25.8672,71.4844,73.9453,71.4844c12.0235,0,30.3047-1.4219,40.75-7.1172l1.0469,14.2578
		c-9.9219,5.4531-30.3047,7.1094-41.7969,7.1094c-57.4765,0-91.9765-34.4219-91.9765-85.7344
		c0-50.3438,35.539-85.7344,91.9765-85.7344c10.7032,0,32.3907,1.6563,41.7969,6.1797L580.2734,138.7617L580.2734,138.7617z"/>
	<polygon class="st0" points="606.4844,116.8555 603.4688,116.8555 603.4688,288.1914 606.4844,288.1914 606.4844,116.8555 	"/>
	<polygon class="st0" points="423.5625,116.8555 420.5469,116.8555 420.5469,288.1914 423.5625,288.1914 423.5625,116.8555 	"/>
	<polygon class="st0" points="240.8521,116.8555 237.8442,116.8555 237.8442,288.1914 240.8521,288.1914 240.8521,116.8555 	"/>
	<polygon class="st0" points="31.563,116.8555 28.5474,116.8555 28.5474,288.1914 31.563,288.1914 31.563,116.8555 	"/>
	<path class="st0" d="M693.4375,184.1445c-2.3828-1.4375-5.4766-2.3047-8.5781-2.3047c-4.7578,0-7.8594,3.2422-7.8594,7.5
		c0,3.2344,1.3047,5.2579,8.5078,9.4375c7.7891,4.4688,10.3828,8.8672,10.3828,14.6329c0,8-4.9843,14.2734-14.6406,14.2734
		c-4.0312,0-7.8516-0.8672-10.5156-2.1641v-6.5625c2.8828,1.7344,6.6328,3.25,9.5781,3.25c5.6953,0,8.9453-3.8203,8.9453-7.9297
		c0-3.8906-1.0156-6.125-7.789-10.2343c-9.0782-5.4766-11.0938-8.5782-11.0938-15.0703c0-8.2891,6.3359-12.6094,13.9844-12.6094
		c3.3125,0,6.8437,0.7187,9.0781,1.6562V184.1445z"/>
	<path class="st0" d="M736.8281,227.1758h-6.9218l-7.7032-31.0625h-0.1484l-7.0703,31.0625h-6.9141l-9.7422-36.7578h6.3516
		l6.9922,30.7031h0.1484l6.9922-30.7031h7.2031l7.2813,30.7031h0.1406l6.9219-30.7031h6.0625L736.8281,227.1758z"/>
	<path class="st0" d="M753.4766,190.418h6.0547v36.7578h-6.0547V190.418z M759.8125,175.2773v7.211h-6.625v-7.211H759.8125z"/>
	<path class="st0" d="M786.5625,226.7461c-1.4453,0.5078-3.4687,0.9375-5.1172,0.9375c-5.5547,0-8.5078-2.2344-8.5078-8.7266
		v-23.6406h-5.8359v-4.8984h5.8359v-7.5L779,181.1211v9.2969h7.5625v4.8984H779v21.7031c0,4.1797,1.0703,5.7657,3.8125,5.7657
		c1.5156,0,2.5938-0.4375,3.75-0.9375V226.7461z"/>
	<path class="st0" d="M815.6094,190.418v5.4765l-17.0156,26.0938h17.375v5.1875h-23.5782v-5.4766l17.0157-26.0937h-16.4375v-5.1875
		H815.6094z"/>
	<path class="st0" d="M824.2578,205.9883c0.1485-8.5781,3.6016-11.461,7.4922-11.461c4.8359,0,7.2188,3.8204,7.2188,11.461H824.2578
		z M845.0146,210.5977v-3.2422c0-10.8125-4.6083-17.4453-12.9052-17.4453c-9.1485,0-14.1953,7.3515-14.1953,18.8906
		c0,11.5312,5.0468,18.8828,14.7734,18.8828c3.6797,0,7.4297-0.7969,10.3115-2.1641l-0.296-5.4765
		c-2.0859,1.5156-5.3984,3.0312-8.4218,3.0312c-6.711,0-10.0235-3.9687-10.0235-12.4765H845.0146z"/>
	<path class="st0" d="M850.2725,198.3477c0-2.6719-0.211-5.336-0.2812-7.9297h5.8359l0.2188,5.7656h0.1406
		c1.9531-4.4688,5.0469-6.2734,10.4531-6.2734v5.9843c-0.7187-0.1406-1.5156-0.2187-2.3125-0.2187c-4.6796,0-8,4.039-8,12.039
		v19.461h-6.0546V198.3477z"/>
	<path class="st0" d="M872.1865,173.1133h6.0547v54.0625h-6.0547V173.1133z"/>
	<path class="st0" d="M903.7646,213.7695c0,5.0469-3.3281,9.3047-8.5859,9.3047c-4.1797,0-6.1953-2.5312-6.1953-6.4219
		c0-4.25,3.3906-7.6406,10.5156-7.6406c1.6641,0,3.1797,0,4.2656,0.1485V213.7695z M886.8193,198.6367
		c2.086-2.3125,5.6953-3.8203,9.4453-3.8203c2.5157,0,4.8985,0.6484,6.1172,2.3047c1.1641,1.5859,1.3828,3.1719,1.3828,5.9141
		v1.6484h-3.539c-12.6172,0-17.2969,5.2656-17.2969,12.3984c0,7.0703,4.5391,10.6016,10.6016,10.6016
		c5.6093,0,8.6406-2.6719,10.2968-5.4766h0.1485l0.3594,4.9688h5.4764c-0.1406-1.2969-0.289-3.4531-0.289-5.6172v-19.1719
		c0-5.1953-1.586-7.4219-3.1719-9.0156c-1.1563-1.1563-4.3985-3.4609-9.7969-3.4609c-3.6172,0-7.3516,1.0859-10.3828,3.0312
		L886.8193,198.6367z"/>
	<path class="st0" d="M915.2178,198.3477c0-2.6719-0.2188-5.336-0.2813-7.9297h5.836l0.2109,5.4765h0.1406
		c1.9531-4.1797,5.0469-5.9843,9.3047-5.9843c6.4141,0,10.7344,3.6796,10.7344,11.75v25.5156h-6.0547v-23.711
		c0-5.8359-2.1563-8.3593-6.0547-8.3593c-4.7578,0-7.7812,3.3125-7.7812,9.9453v22.125h-6.0547V198.3477z"/>
	<path class="st0" d="M967.4678,208.8008c0,9.2265-2.5157,13.9844-8.0625,13.9844c-5.5469,0-8.0782-4.7579-8.0782-13.9844
		c0-9.2266,2.5313-13.9844,8.0782-13.9844C964.9521,194.8164,967.4678,199.5742,967.4678,208.8008z M973.5381,173.1133h-6.0703
		v22.3515h-0.1328c-2.4532-3.8906-5.1954-5.5546-9.375-5.5546c-7.5704,0-12.6876,6.2031-12.6876,18.8906
		c0,12.6797,5.1171,18.8828,12.6876,18.8828c5.3359,0,8.0781-3.0234,9.6562-5.9141h0.1484l0.2188,5.4063h5.8359
		c-0.0703-2.2344-0.2812-4.5391-0.2812-6.7735V173.1133z"/>
</g>
</svg>
