<?xml version="1.0" encoding="utf-8"?>
<!-- Generator: Adobe Illustrator 25.2.0, SVG Export Plug-In . SVG Version: 6.00 Build 0)  -->
<svg version="1.1" id="Ebene_1" xmlns="http://www.w3.org/2000/svg" xmlns:xlink="http://www.w3.org/1999/xlink" x="0px" y="0px"
	 viewBox="0 0 194 35" style="enable-background:new 0 0 194 35;" xml:space="preserve">
<style type="text/css">
	.st0{fill:#FF6600;}
</style>
<g>
	<path class="st0" d="M21.2,0.1c11.2,0,16.4,8.3,16.3,17.4C37.4,27.9,31.9,35,21.2,35S5,27.9,4.9,17.6C4.8,8.4,10,0.1,21.2,0.1
		L21.2,0.1 M8.5,17.6c0,7.2,3.9,14.5,12.7,14.5s12.7-7.4,12.7-14.5C33.8,10.4,29.9,3,21.2,3C12.5,3,8.5,10.4,8.5,17.6L8.5,17.6z"/>
	<path class="st0" d="M75.1,4.5C72.8,3.3,69.4,3,66.8,3c-9.6,0-15,6.2-15,14.5c0,8.5,5.3,14.5,15,14.5c2.4,0,6.2-0.3,8.3-1.4
		l0.2,2.9c-2,1.1-6.2,1.4-8.5,1.4c-11.7,0-18.7-7-18.7-17.4c0-10.2,7.2-17.4,18.7-17.4c2.2,0,6.6,0.3,8.5,1.3L75.1,4.5L75.1,4.5z"/>
	<path class="st0" d="M112.3,4.5C109.9,3.3,106.6,3,104,3c-9.6,0-15,6.2-15,14.5c0,8.5,5.3,14.5,15,14.5c2.4,0,6.2-0.3,8.3-1.4
		l0.2,2.9c-2,1.1-6.2,1.4-8.5,1.4c-11.7,0-18.7-7-18.7-17.4c0-10.2,7.2-17.4,18.7-17.4c2.2,0,6.6,0.3,8.5,1.3L112.3,4.5L112.3,4.5z"
		/>
	<polygon class="st0" points="117.6,0 117,0 117,34.9 117.6,34.9 	"/>
	<polygon class="st0" points="80.4,0 79.8,0 79.8,34.9 80.4,34.9 	"/>
	<polygon class="st0" points="43.2,0 42.6,0 42.6,34.9 43.2,34.9 	"/>
	<polygon class="st0" points="0.6,0 0,0 0,34.9 0.6,34.9 	"/>
	<path class="st0" d="M135.3,13.7c-0.5-0.3-1.1-0.5-1.7-0.5c-1,0-1.6,0.7-1.6,1.5c0,0.7,0.3,1.1,1.7,1.9c1.6,0.9,2.1,1.8,2.1,3
		c0,1.6-1,2.9-3,2.9c-0.8,0-1.6-0.2-2.1-0.4v-1.3c0.6,0.4,1.3,0.7,1.9,0.7c1.2,0,1.8-0.8,1.8-1.6c0-0.8-0.2-1.2-1.6-2.1
		c-1.8-1.1-2.3-1.7-2.3-3.1c0-1.7,1.3-2.6,2.8-2.6c0.7,0,1.4,0.1,1.8,0.3V13.7z"/>
	<path class="st0" d="M144.1,22.5h-1.4l-1.6-6.3h0l-1.4,6.3h-1.4l-2-7.5h1.3l1.4,6.2h0l1.4-6.2h1.5l1.5,6.2h0l1.4-6.2h1.2
		L144.1,22.5z"/>
	<path class="st0" d="M147.5,15h1.2v7.5h-1.2V15z M148.8,11.9v1.5h-1.3v-1.5H148.8z"/>
	<path class="st0" d="M154.3,22.4c-0.3,0.1-0.7,0.2-1,0.2c-1.1,0-1.7-0.5-1.7-1.8V16h-1.2v-1h1.2v-1.5l1.2-0.4V15h1.5v1h-1.5v4.4
		c0,0.9,0.2,1.2,0.8,1.2c0.3,0,0.5-0.1,0.8-0.2V22.4z"/>
	<path class="st0" d="M160.2,15v1.1l-3.5,5.3h3.5v1.1h-4.8v-1.1l3.5-5.3h-3.3V15H160.2z"/>
	<path class="st0" d="M161.9,18.1c0-1.7,0.7-2.3,1.5-2.3c1,0,1.5,0.8,1.5,2.3H161.9z M166.1,19.1v-0.7c0-2.2-0.9-3.6-2.6-3.6
		c-1.9,0-2.9,1.5-2.9,3.8c0,2.3,1,3.8,3,3.8c0.7,0,1.5-0.2,2.1-0.4l-0.1-1.1c-0.4,0.3-1.1,0.6-1.7,0.6c-1.4,0-2-0.8-2-2.5
		L166.1,19.1L166.1,19.1z"/>
	<path class="st0" d="M167.2,16.6c0-0.5,0-1.1-0.1-1.6h1.2l0,1.2h0c0.4-0.9,1-1.3,2.1-1.3v1.2c-0.1,0-0.3,0-0.5,0
		c-1,0-1.6,0.8-1.6,2.5v4h-1.2L167.2,16.6L167.2,16.6z"/>
	<path class="st0" d="M171.7,11.4h1.2v11h-1.2V11.4z"/>
	<path class="st0" d="M178.1,19.7c0,1-0.7,1.9-1.7,1.9c-0.9,0-1.3-0.5-1.3-1.3c0-0.9,0.7-1.6,2.1-1.6c0.3,0,0.6,0,0.9,0V19.7z
		 M174.7,16.6c0.4-0.5,1.2-0.8,1.9-0.8c0.5,0,1,0.1,1.2,0.5c0.2,0.3,0.3,0.6,0.3,1.2v0.3h-0.7c-2.6,0-3.5,1.1-3.5,2.5
		c0,1.4,0.9,2.2,2.2,2.2c1.1,0,1.8-0.5,2.1-1.1h0l0.1,1h1.1c0-0.3-0.1-0.7-0.1-1.1v-3.9c0-1.1-0.3-1.5-0.6-1.8
		c-0.2-0.2-0.9-0.7-2-0.7c-0.7,0-1.5,0.2-2.1,0.6L174.7,16.6z"/>
	<path class="st0" d="M180.4,16.6c0-0.5,0-1.1-0.1-1.6h1.2l0,1.1h0c0.4-0.9,1-1.2,1.9-1.2c1.3,0,2.2,0.7,2.2,2.4v5.2h-1.2v-4.8
		c0-1.2-0.4-1.7-1.2-1.7c-1,0-1.6,0.7-1.6,2v4.5h-1.2L180.4,16.6L180.4,16.6z"/>
	<path class="st0" d="M191.1,18.7c0,1.9-0.5,2.8-1.6,2.8c-1.1,0-1.6-1-1.6-2.8c0-1.9,0.5-2.8,1.6-2.8
		C190.6,15.9,191.1,16.8,191.1,18.7z M192.3,11.4h-1.2V16h0c-0.5-0.8-1.1-1.1-1.9-1.1c-1.5,0-2.6,1.3-2.6,3.8c0,2.6,1,3.8,2.6,3.8
		c1.1,0,1.6-0.6,2-1.2h0l0,1.1h1.2c0-0.5-0.1-0.9-0.1-1.4L192.3,11.4L192.3,11.4z"/>
</g>
</svg>
