<?xml version="1.0" encoding="utf-8"?>
<!-- Generator: Adobe Illustrator 26.0.2, SVG Export Plug-In . SVG Version: 6.00 Build 0)  -->
<svg version="1.1" id="Layer_1" xmlns="http://www.w3.org/2000/svg" xmlns:xlink="http://www.w3.org/1999/xlink" x="0px" y="0px"
	 viewBox="0 0 172.7241 14.704" style="enable-background:new 0 0 172.7241 14.704;" xml:space="preserve">
<style type="text/css">
	.st0{fill:#FFFFFF;}
</style>
<g>
	<path class="st0" d="M4.411,3.7348h6.478c1.331,0,1.808,0.557,1.808,1.531v0.556c0,0.855-0.397,1.53-1.431,1.53H4.411V3.7348z
		 M0,14.5448h4.411v-3.616h8.763c3.12,0,4.054-2.464,4.054-4.61v-1.232c0-2.822-1.014-4.928-5.206-4.928H0V14.5448z"/>
	<polygon class="st0" points="20.5342,14.5448 34.8612,14.5448 34.8612,10.8488 24.9452,10.8488 24.9452,0.1588 20.5342,0.1588 	"/>
	<path class="st0" d="M46.8941,3.4968l2.861,5.405h-5.643L46.8941,3.4968z M36.2431,14.5448h4.928l1.291-2.543h8.942l1.371,2.543
		h4.908l-7.908-14.386h-5.743L36.2431,14.5448z"/>
	<polygon class="st0" points="60.1796,14.5448 64.5906,14.5448 64.5906,4.0928 64.6306,4.0928 72.9166,14.5448 79.7516,14.5448 
		79.7516,0.1588 75.3406,0.1588 75.3406,10.6108 75.3016,10.6108 67.0146,0.1588 60.1796,0.1588 	"/>
	<polygon class="st0" points="83.6561,14.5448 87.9481,14.5448 87.9481,4.2128 87.9881,4.2128 93.7701,14.5448 97.0691,14.5448 
		102.8511,4.2128 102.8911,4.2128 102.8911,14.5448 107.1831,14.5448 107.1831,0.1588 100.4071,0.1588 95.4191,9.4188 
		90.4321,0.1588 83.6561,0.1588 	"/>
	<polygon class="st0" points="111.0902,14.5448 127.0862,14.5448 127.0862,11.0878 115.5012,11.0878 115.5012,8.7828 
		126.2312,8.7828 126.2312,5.8018 115.5012,5.8018 115.5012,3.4968 126.8272,3.4968 126.8272,0.1588 111.0902,0.1588 	"/>
	<path class="st0" d="M130.3557,9.498c0,4.212,2.365,5.2061,6.339,5.2061h7.113c4.431,0,5.306-1.908,5.306-4.332V9.021h-4.412
		c0,1.788-0.5959,1.987-2.583,1.987h-4.709c-2.086,0-2.524-0.795-2.524-2.881v-1.55c0-1.788,0.438-2.881,2.762-2.881h4.809
		c1.311,0,2.067,0.298,2.067,1.331v0.397h4.411c0.04-4.073-0.775-5.424-7.054-5.424h-5.186c-3.974,0-6.339,0.993-6.339,5.206V9.498z
		"/>
	<path class="st0" d="M161.9351,3.4968l2.861,5.405h-5.643L161.9351,3.4968z M151.2842,14.5448h4.928l1.291-2.543h8.942l1.371,2.543
		h4.908l-7.908-14.386h-5.743L151.2842,14.5448z"/>
</g>
</svg>
