<svg id="Layer_1" data-name="Layer 1" xmlns="http://www.w3.org/2000/svg" viewBox="0 0 200 176.34"><title>shopping-cart</title><path d="M0,29.11l.1,3.71,1.33,4.4c1,3.18,1.94,6.36,2.86,9.56l18.6,65c1.45,5,4.07,7,9.34,7h101c5,0,5,2.58,5,3.43a3,3,0,0,1-.8,2.23,5.86,5.86,0,0,1-4.14,1.25H30.86a8,8,0,0,0-7.94,7.92,8,8,0,0,0,.82,3.64l.21.39a8,8,0,0,0,6.07,4,19.08,19.08,0,0,0-3.58,3.91,19.4,19.4,0,0,0-3.16,14.74c1.46,8.71,10,15.79,18.88,15.79h.68c10.33-.43,18.11-8,18.91-18.47a18.38,18.38,0,0,0-7-15.75h56.23a20.18,20.18,0,0,0-3.56,3.82,19,19,0,0,0-3,7.1,21.62,21.62,0,0,0,0,7.82,19.39,19.39,0,1,0,31.34-19.06c.52,0,1-.07,1.55-.12a19.13,19.13,0,0,0,16.55-15.25,19.39,19.39,0,0,0-9.61-20.84l19.9-89.57,20.07,0c1.92,0,3.84-.07,5.75.06,4.75.31,8.07-1.55,9.91-5.55l.21-1V5.64l-.26-.5c-1.22-2.3-3.33-5.37-7.61-5.39-11.45,0-22.91,0-34.37,0a7.92,7.92,0,0,0-7.87,6.11c-.29,1-.49,2-.7,3l-3.07,13.81h-28.2q-54,0-107.95-.06h0c-3.08,0-7.43.59-9.73,5.57Zm142.56,9.65-14.22,64H36.91l-18.28-64ZM126.72,156.62a3.47,3.47,0,0,1-3.43,3.44h0a3.48,3.48,0,0,1-3.44-3.44,3.44,3.44,0,0,1,1-2.42,3.39,3.39,0,0,1,2.41-1h0A3.48,3.48,0,0,1,126.72,156.62Zm-80.92,0a3.5,3.5,0,0,1-3.41,3.47,3.56,3.56,0,0,1-3.47-3.41,3.49,3.49,0,0,1,3.41-3.47h0A3.49,3.49,0,0,1,45.8,156.59Z" transform="translate(0 0.28)"/></svg>