<?xml version="1.0" encoding="utf-8"?>
<!-- Generator: Adobe Illustrator 26.0.2, SVG Export Plug-In . SVG Version: 6.00 Build 0)  -->
<svg version="1.1" id="Layer_1" xmlns="http://www.w3.org/2000/svg" xmlns:xlink="http://www.w3.org/1999/xlink" x="0px" y="0px"
	 viewBox="0 0 100 100" style="enable-background:new 0 0 100 100;" xml:space="preserve">
<style type="text/css">
	.st0{fill:#FFFFFF;}
	.st1{fill:#809097;}
</style>
<g>
	<rect y="0" class="st0" width="100" height="100"/>
	<path class="st1" d="M69.9964,44.5374c-14.3704,0-14.3704,21.53,0,21.53C84.3668,66.0674,84.3668,44.5374,69.9964,44.5374"/>
	<path class="st1" d="M29.3715,20.6202c-14.5204,0-14.5204,21.7293,0,21.7293C43.8424,42.3989,43.8424,20.6202,29.3715,20.6202"/>
	<path class="st1" d="M69.9964,20.7694c-14.3704,0-14.3704,21.5812,0,21.5812C84.3668,42.3506,84.3668,20.7694,69.9964,20.7694"/>
	<path class="st1" d="M49.858,9.1341c-14.3704,0-14.3704,21.5812,0,21.5812C64.2283,30.7153,64.2283,9.1341,49.858,9.1341"/>
	<path class="st1" d="M46.7745,83.0253c-0.8449,0-1.2929,0.3475-1.2929,1.0936v9.4968l-0.1482-0.0494l-5.9179-8.8018v7.3095
		c0,0.6473,0.3987,0.9948,1.2929,0.9948v0.2981h-3.182v-0.2981c0.8449,0,1.2929-0.3986,1.2929-1.1448v-8.0045
		c-0.2487-0.2981-0.3492-0.4974-0.3987-0.5468c-0.2487-0.2487-0.5468-0.3475-0.8943-0.3475v-0.2999h2.2878l5.1206,7.7576v-6.4646
		c0-0.6456-0.4481-0.9931-1.2929-0.9931v-0.2999h3.1327V83.0253z M34.1945,85.6093c0-1.4905-0.7461-2.286-2.2366-2.286
		c-0.2487,0-0.448,0-0.4974,0.0494c-0.1993,0.0494-0.2999,0.2487-0.2999,0.5468v3.9282
		C33.1996,87.8477,34.1945,87.1016,34.1945,85.6093 M37.2283,93.3669h-2.189l-3.1327-4.923h-0.7461v3.6301
		c0,0.6473,0.3987,0.9948,1.1448,0.9948v0.2981h-3.6795v-0.2981c0.7955,0,1.143-0.3475,1.143-1.0936v-7.9075
		c0-0.3475-0.0494-0.5962-0.1976-0.7444c-0.1993-0.1993-0.4974-0.2981-0.9454-0.2981v-0.2999h3.7782
		c0.9454,0,1.6915,0.1993,2.2383,0.598c0.695,0.4463,1.0442,1.2418,1.0442,2.2366c0,1.4922-0.7955,2.3865-2.3865,2.6846
		l2.5859,3.8294c0.4462,0.6473,0.8449,0.9948,1.3423,0.9948V93.3669z M28.3278,90.6329l-0.598,2.734h-7.209v-0.2981
		c0.7955,0,1.1924-0.3475,1.1924-1.0936v-7.9075c0-0.3475-0.0988-0.5962-0.2487-0.7444c-0.1481-0.1993-0.4462-0.2981-0.9436-0.2981
		v-0.2999h7.0608v2.2878H27.333c-0.15-0.5468-0.3475-0.9948-0.5468-1.2435c-0.2487-0.2487-0.598-0.3969-1.0442-0.3969h-1.9896
		c-0.448,0-0.695,0.2487-0.695,0.695v3.3814h2.0373c0.9948,0,1.4923-0.4974,1.4923-1.5416h0.2981v3.78h-0.2981
		c0-0.5468-0.1482-0.9454-0.4974-1.2435c-0.2487-0.1993-0.5468-0.2981-0.9948-0.2981h-2.0373v3.9282
		c0,0.2981,0.0988,0.4974,0.1976,0.5468c0.0494,0.0494,0.1993,0.1005,0.448,0.1005h2.0391c0.5468,0,0.993-0.1993,1.4411-0.6473
		c0.3492-0.3475,0.598-0.8449,0.7461-1.4411H28.3278z M20.1716,85.4612h-0.3475c-0.1481-0.7955-0.2981-1.2929-0.3475-1.4429
		c-0.2487-0.3969-0.6474-0.5962-1.2435-0.5962h-1.2418v8.5531c0,0.7461,0.4462,1.0936,1.2912,1.0936v0.2981h-3.9282v-0.2981
		c0.8466,0,1.2929-0.3475,1.2929-1.0936v-8.5531h-1.0937c-0.6456,0-1.143,0.1993-1.3917,0.5962
		c-0.1006,0.1993-0.1993,0.6473-0.3493,1.4429h-0.3475l0.0988-2.7358h7.5089L20.1716,85.4612z M11.421,90.483
		c0,0.9948-0.2981,1.7904-0.8943,2.3372c-0.4974,0.4974-1.1942,0.7955-1.9403,0.7955c-0.3475,0-0.7461-0.1005-1.1924-0.2981
		c-0.448-0.1499-0.7461-0.2487-0.896-0.2487c-0.1993,0-0.3475,0.1482-0.3969,0.5468H5.8523l-0.3987-3.4801h0.2487
		c0.5962,1.8891,1.4922,2.8328,2.7851,2.8328c0.3969,0,0.7461-0.1482,1.0442-0.3969c0.3475-0.3493,0.5468-0.7955,0.5468-1.3423
		c0-0.896-0.4974-1.6916-1.3917-2.3371L7.394,87.9959c-1.0442-0.7461-1.591-1.6404-1.591-2.734c0-0.7955,0.2487-1.4922,0.695-1.9897
		c0.3987-0.4974,0.9948-0.7955,1.6916-0.7955c0.3968,0,0.7955,0.1005,1.143,0.2981c0.3969,0.1499,0.6474,0.2505,0.7955,0.2505
		c0.1993,0,0.2981-0.1499,0.3986-0.5486h0.2981l0.2981,3.4308h-0.3475c-0.4974-1.8397-1.2929-2.734-2.487-2.734
		c-0.3475,0-0.6968,0.0988-0.9455,0.3986c-0.247,0.2469-0.3969,0.6456-0.3969,1.143c0,0.3969,0.1993,0.7955,0.4974,1.1924
		c0.1993,0.1993,0.5468,0.4974,1.0936,0.896l1.2929,0.9948C10.8741,88.5427,11.421,89.4881,11.421,90.483"/>
	<path class="st1" d="M91.8251,85.5106c0-1.5416-0.7461-2.2878-2.2366-2.2878c-0.2999,0-0.448,0-0.4974,0.0494
		c-0.2487,0.0512-0.3492,0.2487-0.3492,0.5468v3.9299C90.7808,87.7489,91.8251,87.0028,91.8251,85.5106 M94.8095,93.2681H92.67
		l-3.1327-4.923h-0.7955v3.6301c0,0.6456,0.3987,0.9931,1.1942,0.9931v0.2999h-3.6795v-0.2999c0.7461,0,1.143-0.3969,1.143-1.0936
		v-7.9057c0-0.3475-0.0494-0.5962-0.1993-0.7955c-0.1976-0.1482-0.4974-0.2487-0.9437-0.2487v-0.2981h3.7782
		c0.896,0,1.6404,0.1993,2.2384,0.5468c0.6949,0.4974,1.0442,1.2435,1.0442,2.2878c0,1.4411-0.7955,2.3371-2.3865,2.6846
		l2.5859,3.8294c0.3969,0.6456,0.8449,0.9931,1.2929,0.9931V93.2681z M85.909,90.5324l-0.598,2.7358h-7.1596v-0.2999
		c0.7955,0,1.1942-0.3969,1.1942-1.0936v-7.9057c0-0.3475-0.1006-0.5962-0.2505-0.7955c-0.1482-0.1482-0.4957-0.2487-0.9437-0.2487
		v-0.2981h7.0608v2.2878h-0.2981c-0.1006-0.5962-0.2981-0.9948-0.5468-1.2435c-0.1993-0.2487-0.5486-0.3986-0.9949-0.3986h-1.9896
		c-0.4462,0-0.6967,0.2487-0.6967,0.6967v3.3814h2.0391c0.9948,0,1.4922-0.4974,1.4922-1.5416h0.2487v3.78h-0.2487
		c0-0.5468-0.1481-0.9948-0.4974-1.2435c-0.2487-0.1993-0.5962-0.3493-0.9948-0.3493h-2.0391v3.9793
		c0,0.2981,0.0511,0.4974,0.1993,0.5468c0.0512,0.0494,0.1993,0.0988,0.4481,0.0988h2.039c0.5468,0,0.9949-0.2487,1.3917-0.6456
		c0.3987-0.3986,0.6456-0.8467,0.7955-1.4428H85.909z M75.5162,90.2836c0-0.7461-0.2487-1.3423-0.7955-1.741
		c-0.448-0.3475-1.1447-0.5468-2.039-0.5468H72.036v4.0287c0,0.2981,0.1482,0.4974,0.4957,0.5962h0.7955
		C74.8194,92.6208,75.5162,91.8747,75.5162,90.2836 M75.2674,85.3112c0-1.3917-0.8466-2.0884-2.4377-2.0884
		c-0.2981,0-0.4463,0.0494-0.5468,0.0494c-0.1482,0.1005-0.247,0.2487-0.247,0.5468v3.5313h0.8943
		C74.4719,87.3503,75.2674,86.7047,75.2674,85.3112 M77.0578,90.2836c0,1.0936-0.3987,1.8909-1.1942,2.3865
		c-0.5468,0.3986-1.2929,0.598-2.1378,0.598h-4.3762v-0.2999c0.8943,0,1.3423-0.3969,1.3423-1.0936v-7.9057
		c0-0.6967-0.448-1.0442-1.3423-1.0442v-0.2981h3.7288c2.3372,0,3.5313,0.8943,3.5313,2.6846c0,1.2435-0.5962,2.0391-1.7904,2.3865
		c0.5962,0.0511,1.0936,0.3493,1.5417,0.7955C76.8091,88.9907,77.0578,89.5887,77.0578,90.2836 M68.9527,90.5324l-0.5979,2.7358
		h-7.1597v-0.2999c0.7461,0,1.143-0.3969,1.143-1.0936v-7.9057c0-0.3475-0.0494-0.5962-0.1976-0.7955
		c-0.1993-0.1482-0.4974-0.2487-0.9455-0.2487v-0.2981h7.0609v2.2878h-0.2981c-0.1499-0.5962-0.2999-0.9948-0.5468-1.2435
		c-0.2487-0.2487-0.598-0.3986-1.0442-0.3986h-1.9403c-0.4974,0-0.7461,0.2487-0.7461,0.6967v3.3814h2.0902
		c0.9437,0,1.4411-0.4974,1.4411-1.5416h0.2981v3.78h-0.2981c0-0.5468-0.1482-0.9948-0.448-1.2435
		c-0.2981-0.1993-0.5962-0.3493-0.9931-0.3493h-2.0902v3.9793c0,0.2981,0.1006,0.4974,0.1993,0.5468
		c0.0988,0.0494,0.2487,0.0988,0.448,0.0988h2.0885c0.4974,0,0.9948-0.2487,1.3917-0.6456
		c0.3492-0.3986,0.6473-0.8467,0.7461-1.4428H68.9527z M60.8971,82.9247c-0.4974,0-0.8449,0.3475-1.0442,1.0442l-2.7852,9.4968
		h-0.1481l-2.1396-6.8615l-2.0884,6.8615h-0.1482l-2.4377-8.2532c-0.247-0.7955-0.4462-1.3423-0.6456-1.6404
		c-0.1993-0.448-0.4974-0.6473-0.8943-0.6473v-0.2981h3.2809v0.2981c-0.5962,0-0.8943,0.1993-0.8943,0.5468
		c0,0.1005,0.0494,0.2981,0.1481,0.4974l1.9403,6.2653l1.4411-4.5244l-0.5468-1.6916c-0.2487-0.7461-0.6456-1.0936-1.2435-1.0936
		v-0.2981h3.5313v0.2981c-0.6967,0-0.9948,0.1993-0.9948,0.5468c-0.0494,0.1005,0,0.2981,0.1006,0.5468l1.9879,6.2159l1.741-5.618
		c0.0988-0.2981,0.1482-0.6473,0.0988-0.9948c0-0.448-0.2981-0.6967-0.8943-0.6967v-0.2981h2.6353V82.9247z"/>
	<path class="st1" d="M49.7089,32.6536L49.7089,32.6536c14.3703,0,14.3703,21.53,0,21.53
		C35.3386,54.1836,35.3386,32.6536,49.7089,32.6536 M49.7089,37.1286c-8.4032,0-8.4032,12.6294,0,12.6294
		C58.1615,49.758,58.1615,37.1286,49.7089,37.1286"/>
	<path class="st1" d="M69.9964,44.5374c-14.3704,0-14.3704,21.53,0,21.53C84.3668,66.0674,84.3668,44.5374,69.9964,44.5374"/>
	<path class="st1" d="M29.3715,20.6202c-14.5204,0-14.5204,21.7293,0,21.7293C43.8424,42.3989,43.8424,20.6202,29.3715,20.6202"/>
	<path class="st1" d="M69.9964,20.7694c-14.3704,0-14.3704,21.5812,0,21.5812C84.3668,42.3506,84.3668,20.7694,69.9964,20.7694"/>
	<path class="st1" d="M49.858,9.1341c-14.3704,0-14.3704,21.5812,0,21.5812C64.2283,30.7153,64.2283,9.1341,49.858,9.1341"/>
	<path class="st1" d="M46.7796,83.0196c-0.8466,0-1.2929,0.3492-1.2929,1.0954v9.5074l-0.1499-0.0512l-5.9178-8.8089v7.3166
		c0,0.6473,0.3968,0.9948,1.2929,0.9948v0.2999H37.528v-0.2999c0.8467,0,1.2929-0.3969,1.2929-1.1448v-8.0133
		c-0.2487-0.2981-0.3475-0.4974-0.3969-0.5468c-0.2487-0.2487-0.5468-0.3492-0.896-0.3492v-0.2981h2.2878l5.1241,7.7646v-6.4699
		c0-0.6473-0.448-0.9966-1.2929-0.9966v-0.2981h3.1327V83.0196z M34.196,85.609c0-1.494-0.7461-2.2895-2.2383-2.2895
		c-0.2487,0-0.448,0-0.4974,0.0494c-0.1993,0.0494-0.2981,0.2487-0.2981,0.5468v3.9317
		C33.2012,87.8474,34.196,87.1012,34.196,85.609 M37.2299,93.3736h-2.189l-3.1327-4.9283h-0.7461v3.6336
		c0,0.6473,0.3986,0.9948,1.1447,0.9948v0.2999h-3.6812v-0.2999c0.7955,0,1.1448-0.3475,1.1448-1.0936v-7.9146
		c0-0.3493-0.0512-0.598-0.1993-0.7461c-0.1993-0.1993-0.4974-0.2999-0.9455-0.2999v-0.2981h3.78
		c0.9455,0,1.6915,0.1993,2.2384,0.598c0.6967,0.448,1.0442,1.2435,1.0442,2.2401c0,1.4922-0.7955,2.3883-2.3865,2.6864
		l2.5859,3.8329c0.448,0.6473,0.8449,0.9948,1.3423,0.9948V93.3736z M28.3276,90.6361l-0.5962,2.7375h-7.2126v-0.2999
		c0.7955,0,1.1942-0.3475,1.1942-1.0936v-7.9146c0-0.3493-0.1005-0.598-0.2487-0.7461c-0.1499-0.1993-0.448-0.2999-0.9455-0.2999
		v-0.2981h7.0626v2.2895h-0.2487c-0.1499-0.5468-0.3475-0.9948-0.5468-1.2435c-0.2487-0.2487-0.5979-0.3986-1.0442-0.3986h-1.9896
		c-0.448,0-0.6967,0.2487-0.6967,0.6967v3.3849h2.0391c0.9948,0,1.4922-0.4992,1.4922-1.5434h0.2981v3.7818h-0.2981
		c0-0.5468-0.1499-0.9454-0.4974-1.2435c-0.2487-0.1993-0.5468-0.2981-0.9948-0.2981h-2.0391v3.9317
		c0,0.2981,0.1006,0.4974,0.1993,0.5468c0.0494,0.0511,0.1993,0.1005,0.448,0.1005h2.039c0.5469,0,0.9949-0.1993,1.4411-0.6473
		c0.3492-0.3493,0.5979-0.8467,0.7461-1.4429H28.3276z M20.1714,85.4591h-0.3492c-0.1481-0.7955-0.2981-1.2947-0.3475-1.4429
		c-0.2487-0.3986-0.6474-0.598-1.2436-0.598h-1.2435v8.5619c0,0.7461,0.448,1.0936,1.2929,1.0936v0.2999h-3.9282v-0.2999
		c0.8449,0,1.2929-0.3475,1.2929-1.0936v-8.5619h-1.0954c-0.6456,0-1.143,0.1993-1.3917,0.598
		c-0.1006,0.1993-0.1993,0.6473-0.3475,1.4429h-0.3492l0.1006-2.7375h7.5088L20.1714,85.4591z M11.4172,90.4861
		c0,0.9948-0.2981,1.7921-0.8961,2.3389c-0.4956,0.4974-1.1924,0.7973-1.9385,0.7973c-0.3492,0-0.7461-0.1005-1.1942-0.2999
		c-0.448-0.1482-0.7461-0.2487-0.8943-0.2487c-0.1993,0-0.3492,0.1499-0.3987,0.5486H5.8469L5.45,90.1386h0.247
		c0.5979,1.8891,1.4923,2.8363,2.7852,2.8363c0.3986,0,0.7461-0.1499,1.046-0.3986c0.3475-0.3492,0.5468-0.7955,0.5468-1.3441
		c0-0.896-0.4974-1.6916-1.3935-2.3389l-1.2929-0.896c-1.0442-0.7461-1.591-1.6422-1.591-2.7375
		c0-0.7955,0.2487-1.4922,0.6967-1.9914c0.3969-0.4974,0.993-0.7955,1.6898-0.7955c0.3986,0,0.7955,0.0988,1.1447,0.2981
		c0.3969,0.1499,0.6456,0.2487,0.7955,0.2487c0.1993,0,0.2981-0.1482,0.3968-0.5468h0.2999l0.2981,3.4343h-0.3475
		c-0.4974-1.8415-1.2947-2.7376-2.487-2.7376c-0.3493,0-0.6968,0.0988-0.9455,0.3986c-0.2487,0.2487-0.3987,0.6473-0.3987,1.1448
		c0,0.3969,0.1993,0.7955,0.4974,1.1942c0.1993,0.1993,0.5486,0.4974,1.0954,0.8961l1.2929,0.9948
		C10.8704,88.5441,11.4172,89.4913,11.4172,90.4861"/>
	<path class="st1" d="M91.8282,85.5081c0-1.5434-0.7444-2.2878-2.2366-2.2878c-0.2998,0-0.448,0-0.4974,0.0476
		c-0.2487,0.0512-0.3493,0.2505-0.3493,0.5486v3.9317C90.784,87.7482,91.8282,87.0021,91.8282,85.5081 M94.8127,93.2727h-2.1378
		l-3.1327-4.9265h-0.7973v3.6319c0,0.6473,0.3987,0.9948,1.1942,0.9948v0.2999h-3.6795v-0.2999c0.7461,0,1.143-0.3986,1.143-1.0954
		v-7.9128c0-0.3475-0.0494-0.5962-0.1993-0.7955c-0.1975-0.1482-0.4974-0.2487-0.9437-0.2487v-0.2981h3.7782
		c0.8961,0,1.6422,0.1993,2.2384,0.5468c0.6967,0.4974,1.0442,1.2435,1.0442,2.2895c0,1.4429-0.7955,2.3389-2.3865,2.6882
		l2.5858,3.8312c0.3987,0.6473,0.8467,0.9948,1.2929,0.9948V93.2727z M85.9104,90.5352l-0.5962,2.7376h-7.1614v-0.2999
		c0.7955,0,1.1942-0.3986,1.1942-1.0954v-7.9128c0-0.3475-0.1006-0.5962-0.2505-0.7955c-0.1482-0.1482-0.4957-0.2487-0.9437-0.2487
		v-0.2981h7.0626v2.2878h-0.2999c-0.0988-0.5962-0.2981-0.9948-0.5468-1.2435c-0.1993-0.2487-0.5468-0.3986-0.9948-0.3986h-1.9896
		c-0.4463,0-0.695,0.2505-0.695,0.6967v3.3849h2.0391c0.9948,0,1.4923-0.4974,1.4923-1.5434h0.2487v3.7835h-0.2487
		c0-0.5486-0.15-0.9966-0.4974-1.2435c-0.2487-0.1993-0.5979-0.3492-0.9948-0.3492h-2.0391v3.9811
		c0,0.2981,0.0494,0.4974,0.1976,0.5468c0.0511,0.0494,0.1993,0.1005,0.448,0.1005h2.0391c0.5468,0,0.9948-0.2505,1.3935-0.6473
		c0.3968-0.3986,0.6456-0.8467,0.7955-1.4429H85.9104z M75.5158,90.2865c0-0.7479-0.2487-1.3441-0.7955-1.7427
		c-0.448-0.3475-1.143-0.5468-2.0391-0.5468h-0.6456v4.0305c0,0.2981,0.1482,0.4974,0.4974,0.598h0.7955
		C74.8191,92.6254,75.5158,91.8775,75.5158,90.2865 M75.2671,85.3088c0-1.3935-0.8449-2.0884-2.4359-2.0884
		c-0.2981,0-0.4481,0.0476-0.5469,0.0476c-0.1499,0.1005-0.2487,0.2505-0.2487,0.5486v3.5331H72.93
		C74.4716,87.3496,75.2671,86.7022,75.2671,85.3088 M77.0575,90.2865c0,1.0936-0.3969,1.8909-1.1942,2.3883
		c-0.5451,0.3986-1.2912,0.598-2.1378,0.598h-4.3762v-0.2999c0.8943,0,1.3423-0.3986,1.3423-1.0954v-7.9128
		c0-0.6967-0.448-1.0442-1.3423-1.0442v-0.2981h3.7306c2.3371,0,3.5295,0.8961,3.5295,2.6864c0,1.2453-0.5962,2.0408-1.7904,2.3901
		c0.5979,0.0494,1.0954,0.3475,1.5434,0.7955C76.8105,88.9918,77.0575,89.5897,77.0575,90.2865 M68.9524,90.5352l-0.598,2.7376
		H61.193v-0.2999c0.7461,0,1.1448-0.3986,1.1448-1.0954v-7.9128c0-0.3475-0.0512-0.5962-0.1993-0.7955
		c-0.1993-0.1482-0.4974-0.2487-0.9455-0.2487v-0.2981h7.0626v2.2878h-0.2981c-0.15-0.5962-0.2999-0.9948-0.5469-1.2435
		c-0.2505-0.2487-0.5979-0.3986-1.0442-0.3986h-1.9403c-0.4974,0-0.7461,0.2505-0.7461,0.6967v3.3849h2.0884
		c0.9455,0,1.4429-0.4974,1.4429-1.5434h0.2981v3.7835h-0.2981c0-0.5486-0.15-0.9966-0.448-1.2435
		c-0.2981-0.1993-0.5962-0.3492-0.9949-0.3492h-2.0884v3.9811c0,0.2981,0.0988,0.4974,0.1976,0.5468
		c0.1006,0.0494,0.2505,0.1005,0.448,0.1005h2.0885c0.4974,0,0.9966-0.2505,1.3934-0.6473
		c0.3475-0.3986,0.6456-0.8467,0.7461-1.4429H68.9524z M60.895,82.9205c-0.4974,0-0.8467,0.3475-1.0442,1.0442l-2.7852,9.5056
		h-0.1499l-2.1378-6.8668l-2.0902,6.8668h-0.1482L50.1017,85.21c-0.2487-0.7973-0.4462-1.3441-0.6456-1.6422
		c-0.1993-0.448-0.4974-0.6473-0.896-0.6473v-0.2981h3.2826v0.2981c-0.5962,0-0.8943,0.1993-0.8943,0.5468
		c0,0.1005,0.0494,0.2999,0.1481,0.4974l1.9403,6.2706l1.4411-4.5279l-0.5451-1.6916c-0.2505-0.7479-0.6474-1.0954-1.2453-1.0954
		v-0.2981h3.5313v0.2981c-0.695,0-0.9949,0.1993-0.9949,0.5468c-0.0494,0.1005,0,0.2999,0.1006,0.5486l1.9896,6.2195l1.741-5.6233
		c0.0988-0.2981,0.1482-0.6473,0.0988-0.9948c0-0.448-0.2981-0.6967-0.896-0.6967v-0.2981h2.6371V82.9205z"/>
	<path class="st1" d="M49.7089,32.6536L49.7089,32.6536c14.3703,0,14.3703,21.53,0,21.53
		C35.3386,54.1836,35.3386,32.6536,49.7089,32.6536 M49.7089,37.1286c-8.4032,0-8.4032,12.6294,0,12.6294
		C58.1615,49.758,58.1615,37.1286,49.7089,37.1286"/>
	<path class="st1" d="M37.924,53.0401h0.0494c14.3704,0,14.3704,21.5318-0.0494,21.5318
		C23.5537,74.5718,23.5537,53.0401,37.924,53.0401 M37.924,57.4656c-8.4032,0-8.4032,12.6294,0,12.6294
		C46.3783,70.0951,46.3783,57.4656,37.924,57.4656"/>
</g>
</svg>
