<?xml version="1.0" encoding="UTF-8"?><svg id="Layer_1" xmlns="http://www.w3.org/2000/svg" viewBox="0 0 200 200"><defs><style>.cls-1{fill:red;stroke-width:0px;}</style></defs><path class="cls-1" d="m200,64.34v9.37c-.11.44-.28.87-.33,1.31-.64,6.4-2.41,12.5-4.92,18.39-6.04,14.15-15.24,26.16-25.75,37.19-19.95,20.94-43.05,37.85-67.88,52.49-.59.35-1.77.28-2.39-.09-20.37-11.96-39.51-25.63-56.88-41.69-12.67-11.72-24.15-24.44-32.59-39.65C1.55,87.75-2.02,73.08,1.16,57.17,6.8,28.91,31.69,13.54,57.93,17.27c12.08,1.72,22.75,6.73,32.33,14.13,3.38,2.61,6.53,5.52,9.87,8.37,1.1-1.03,2.21-2.12,3.36-3.16,11.92-10.8,25.43-18.13,41.75-19.7,24.52-2.35,46.56,12.87,52.74,36.72.91,3.5,1.35,7.13,2.01,10.7Z"/></svg>