<?xml version="1.0" encoding="utf-8"?>
<!-- Generator: Adobe Illustrator 27.8.1, SVG Export Plug-In . SVG Version: 6.00 Build 0)  -->
<!DOCTYPE svg PUBLIC "-//W3C//DTD SVG 1.1//EN" "http://www.w3.org/Graphics/SVG/1.1/DTD/svg11.dtd" [
	<!ENTITY ns_extend "http://ns.adobe.com/Extensibility/1.0/">
	<!ENTITY ns_ai "http://ns.adobe.com/AdobeIllustrator/10.0/">
	<!ENTITY ns_graphs "http://ns.adobe.com/Graphs/1.0/">
	<!ENTITY ns_vars "http://ns.adobe.com/Variables/1.0/">
	<!ENTITY ns_imrep "http://ns.adobe.com/ImageReplacement/1.0/">
	<!ENTITY ns_sfw "http://ns.adobe.com/SaveForWeb/1.0/">
	<!ENTITY ns_custom "http://ns.adobe.com/GenericCustomNamespace/1.0/">
	<!ENTITY ns_adobe_xpath "http://ns.adobe.com/XPath/1.0/">
]>
<svg version="1.1" id="Layer_1" xmlns:x="&ns_extend;" xmlns:i="&ns_ai;" xmlns:graph="&ns_graphs;"
	 xmlns="http://www.w3.org/2000/svg" xmlns:xlink="http://www.w3.org/1999/xlink" x="0px" y="0px" width="500px" height="500px"
	 viewBox="0 0 500 500" style="enable-background:new 0 0 500 500;" xml:space="preserve">
<style type="text/css">
	.st0{fill:#FF6600;}
	.st1{fill:#FFFFFF;}
</style>
<metadata>
	<sfw  xmlns="&ns_sfw;">
		<slices></slices>
		<sliceSourceBounds  bottomLeftOrigin="true" height="500" width="500" x="1040" y="-500"></sliceSourceBounds>
	</sfw>
</metadata>
<g>
	<path class="st0" d="M0,0v500h500V0H0z M336.3505,481.9714c-26.058,0-49.4178-11.7178-65.1322-30.1442H107.2229
		c-16.0891,0-29.1785-13.0894-29.1785-29.1783V80.5543c0-16.0891,13.0894-29.1784,29.1785-29.1784h54.5486h36.2361v-1.9553
		c0-17.3102,14.0818-31.392,31.392-31.392c17.3173,0,31.406,14.0817,31.406,31.392v1.9553h36.2362h56.1865
		c15.1781,0,27.5264,12.3482,27.5264,27.5248v244.301c24.6836,15.0366,41.2009,42.2067,41.2009,73.1633
		C421.9556,443.568,383.5535,481.9714,336.3505,481.9714z"/>
</g>
<g>
	<path class="st0" d="M380.7546,323.2017V78.9007c0-15.1766-12.3483-27.5248-27.5264-27.5248h-56.1865h-36.2362v-1.9553
		c0-17.3102-14.0887-31.392-31.406-31.392c-17.3102,0-31.392,14.0817-31.392,31.392v1.9553h-36.2361h-54.5486
		c-16.0891,0-29.1785,13.0894-29.1785,29.1784v342.0947c0,16.089,13.0894,29.1783,29.1785,29.1783h163.9954
		c15.7144,18.4263,39.0742,30.1442,65.1322,30.1442c47.203,0,85.6051-38.4034,85.6051-85.6065
		C421.9556,365.4084,405.4382,338.2383,380.7546,323.2017z"/>
	<path class="st1" d="M336.3506,488.4717c-25.9492,0-50.585-10.9492-68.0664-30.1445H107.2227
		c-19.6729,0-35.6777-16.0059-35.6777-35.6787V80.5542c0-19.6729,16.0049-35.6782,35.6777-35.6782h84.5557
		c2.2529-18.7588,18.2656-33.3477,37.6211-33.3477c19.3633,0,35.3818,14.5889,37.6348,33.3477h86.1943
		c18.7617,0,34.0264,15.2637,34.0264,34.0249v240.7329c25.8701,17.165,41.2002,45.5791,41.2002,76.7314
		C428.4551,447.1533,387.1367,488.4717,336.3506,488.4717z M107.2227,57.876c-12.5049,0-22.6777,10.1733-22.6777,22.6782v342.0942
		c0,12.5049,10.1729,22.6787,22.6777,22.6787h166.9961l1.9463,2.2822c15.0996,17.707,37.0361,27.8623,60.1855,27.8623
		c43.6182,0,79.1045-35.4873,79.1045-79.1064c0-27.8105-14.2363-53.0859-38.082-67.6133l-3.1182-1.8994V78.9009
		c0-11.5933-9.4326-21.0249-21.0264-21.0249h-98.9229v-8.4556c0-13.7256-11.1729-24.8921-24.9062-24.8921
		c-13.7256,0-24.8916,11.1665-24.8916,24.8921v8.4556H107.2227z"/>
</g>
<g>
	<path class="st1" d="M292.0109,61.4375h-36.2361c-2.778,0-5.0309-2.2529-5.0309-5.0308v-6.9861
		c0-11.7615-9.5745-21.3304-21.3444-21.3304c-11.7615,0-21.3304,9.5689-21.3304,21.3304v6.9861
		c0,2.7779-2.2529,5.0308-5.0308,5.0308h-36.2361v25.8586h125.2086V61.4375z"/>
</g>
<g>
	<path class="st1" d="M336.3505,310.7598c12.2106,0,23.8223,2.5876,34.3425,7.2147V78.9007c0-9.6293-7.834-17.4632-17.4647-17.4632
		h-51.1558V92.327c0,2.7779-2.2529,5.0308-5.0308,5.0308H161.7715c-2.778,0-5.0308-2.2529-5.0308-5.0308V61.4375h-49.5178
		c-10.5417,0-19.1168,8.5751-19.1168,19.1168v342.0947c0,10.5417,8.5751,19.1168,19.1168,19.1168h156.6025
		c-8.2749-13.171-13.0815-28.7311-13.0815-45.4008C250.7439,349.1619,289.1473,310.7598,336.3505,310.7598z M212.2578,172.525
		H315.75c2.7778,0,5.0308,2.2529,5.0308,5.0308s-2.2529,5.0308-5.0308,5.0308H212.2578c-2.778,0-5.0309-2.2529-5.0309-5.0308
		S209.4799,172.525,212.2578,172.525z M212.2578,254.7641H315.75c2.7778,0,5.0308,2.2529,5.0308,5.0308
		c0,2.7778-2.2529,5.0308-5.0308,5.0308H212.2578c-2.778,0-5.0309-2.2529-5.0309-5.0308
		C207.2269,257.017,209.4799,254.7641,212.2578,254.7641z M189.7371,319.3476l-41.3975,41.3961
		c-0.9434,0.9432-2.222,1.4739-3.5569,1.4739c-1.335,0-2.6138-0.5306-3.557-1.4739l-23.2843-23.2857
		c-1.9651-1.9637-1.9651-5.1501,0-7.1139c1.9651-1.9651,5.1487-1.9651,7.1139,0l19.7274,19.7274l37.8405-37.8377
		c1.9652-1.9651,5.1487-1.9651,7.1139,0C191.7021,314.1974,191.7021,317.3839,189.7371,319.3476z M189.7371,237.1099
		l-41.3975,41.3961c-0.9434,0.9433-2.222,1.4739-3.5569,1.4739c-1.335,0-2.6138-0.5306-3.557-1.4739l-23.2843-23.2857
		c-1.9651-1.9637-1.9651-5.1501,0-7.1138c1.9651-1.9652,5.1487-1.9652,7.1139,0l19.7274,19.7274l37.8405-37.8377
		c1.9652-1.9651,5.1487-1.9651,7.1139,0C191.7021,231.9598,191.7021,235.1462,189.7371,237.1099z M189.7371,154.8709
		l-41.3975,41.3961c-0.9434,0.9432-2.222,1.4739-3.5569,1.4739c-1.335,0-2.6138-0.5306-3.557-1.4739l-23.2843-23.2857
		c-1.9651-1.9637-1.9651-5.1501,0-7.1139c1.9651-1.9651,5.1487-1.9651,7.1139,0l19.7274,19.7274l37.8405-37.8377
		c1.9652-1.9651,5.1487-1.9651,7.1139,0C191.7021,149.7208,191.7021,152.9072,189.7371,154.8709z M212.2578,347.0634
		c-2.778,0-5.0309-2.2529-5.0309-5.0308s2.2529-5.0308,5.0309-5.0308h38.4398c2.778,0,5.0309,2.2529,5.0309,5.0308
		s-2.2529,5.0308-5.0309,5.0308H212.2578z"/>
</g>
<g>
	<path class="st1" d="M370.2185,364.9154l-44.1809,44.1796c-0.9434,0.9432-2.2234,1.4738-3.5569,1.4738
		c-1.335,0-2.6138-0.5306-3.557-1.4738l-16.4413-16.4428c-1.3939-1.3925-3.2244-2.0887-5.0562-2.0887
		c-1.8303,0-3.6609,0.6962-5.0547,2.0901c-2.7864,2.7863-2.7864,7.3203,0,10.108l25.0544,25.0557
		c1.3503,1.3503,3.1442,2.0929,5.0547,2.0929c1.9089,0,3.7042-0.744,5.0546-2.0929l52.7941-52.7939
		c1.3489-1.3503,2.0928-3.1456,2.0928-5.0547c0-1.909-0.7439-3.7043-2.0928-5.0546
		C377.543,362.1319,373.0076,362.1277,370.2185,364.9154z"/>
</g>
<g>
	<path class="st1" d="M336.3505,320.8215c-41.6558,0-75.5449,33.8892-75.5449,75.5435c0,41.6558,33.8892,75.5449,75.5449,75.5449
		c41.6543,0,75.5435-33.8891,75.5435-75.5449C411.8939,354.7106,378.0048,320.8215,336.3505,320.8215z M387.4431,382.1372
		l-52.7939,52.7939c-3.2495,3.2509-7.5715,5.0406-12.1685,5.0406c-4.5986,0-8.9204-1.7897-12.17-5.0421l-25.0529-25.0544
		c-3.251-3.2495-5.0408-7.5715-5.0408-12.1685s1.7898-8.919,5.0408-12.1685c6.7109-6.711,17.6274-6.7068,24.3384-0.0014
		l12.8845,12.8858l40.624-40.6226c6.7109-6.711,17.6274-6.7068,24.3384-0.0014c3.251,3.2509,5.0406,7.5729,5.0406,12.1699
		C392.4838,374.5657,390.6941,378.8876,387.4431,382.1372z"/>
</g>
<g>
	<path class="st0" d="M380.7546,323.2017V78.9007c0-15.1766-12.3483-27.5248-27.5264-27.5248h-56.1865h-36.2362v-1.9553
		c0-17.3102-14.0887-31.392-31.406-31.392c-17.3102,0-31.392,14.0817-31.392,31.392v1.9553h-36.2361h-54.5486
		c-16.0891,0-29.1785,13.0894-29.1785,29.1784v342.0947c0,16.089,13.0894,29.1783,29.1785,29.1783h163.9954
		c15.7144,18.4263,39.0742,30.1442,65.1322,30.1442c47.203,0,85.6051-38.4034,85.6051-85.6065
		C421.9556,365.4084,405.4382,338.2383,380.7546,323.2017z M166.8022,61.4375h36.2361c2.7778,0,5.0308-2.2529,5.0308-5.0308v-6.9861
		c0-11.7615,9.569-21.3304,21.3304-21.3304c11.7699,0,21.3444,9.5689,21.3444,21.3304v6.9861c0,2.7779,2.2529,5.0308,5.0309,5.0308
		h36.2361v25.8586H166.8022V61.4375z M107.2229,441.7657c-10.5417,0-19.1168-8.5751-19.1168-19.1168V80.5543
		c0-10.5417,8.5751-19.1168,19.1168-19.1168h49.5178V92.327c0,2.7779,2.2528,5.0308,5.0308,5.0308h135.2703
		c2.7778,0,5.0308-2.2529,5.0308-5.0308V61.4375h51.1558c9.6307,0,17.4647,7.8339,17.4647,17.4632v239.0738
		c-10.5203-4.627-22.132-7.2147-34.3425-7.2147c-47.2031,0-85.6066,38.402-85.6066,85.6051
		c0,16.6696,4.8066,32.2298,13.0815,45.4008H107.2229z M336.3505,471.9098c-41.6558,0-75.5449-33.8891-75.5449-75.5449
		c0-41.6543,33.8892-75.5435,75.5449-75.5435c41.6543,0,75.5435,33.8892,75.5435,75.5435
		C411.8939,438.0207,378.0048,471.9098,336.3505,471.9098z"/>
</g>
<g>
	<path class="st0" d="M363.1047,357.8001l-40.624,40.6226l-12.8845-12.8858c-6.7109-6.7054-17.6274-6.7096-24.3384,0.0014
		c-3.251,3.2495-5.0408,7.5715-5.0408,12.1685s1.7898,8.919,5.0408,12.1685l25.0529,25.0544
		c3.2496,3.2523,7.5714,5.0421,12.17,5.0421c4.5969,0,8.9189-1.7897,12.1685-5.0406l52.7939-52.7939
		c3.251-3.2496,5.0406-7.5715,5.0406-12.1686c0-4.597-1.7897-8.919-5.0406-12.1699
		C380.7322,351.0933,369.8157,351.0891,363.1047,357.8001z M380.3293,375.0233l-52.7941,52.7939
		c-1.3503,1.3489-3.1456,2.0929-5.0546,2.0929c-1.9105,0-3.7043-0.7426-5.0547-2.0929l-25.0544-25.0557
		c-2.7864-2.7877-2.7864-7.3217,0-10.108c1.3938-1.3939,3.2244-2.0901,5.0547-2.0901c1.8318,0,3.6622,0.6962,5.0562,2.0887
		l16.4413,16.4428c0.9432,0.9432,2.222,1.4738,3.557,1.4738c1.3335,0,2.6135-0.5306,3.5569-1.4738l44.1809-44.1796
		c2.7891-2.7877,7.3245-2.7835,10.1108-0.0014c1.3489,1.3503,2.0928,3.1456,2.0928,5.0546
		C382.4221,371.8777,381.6782,373.673,380.3293,375.0233z"/>
</g>
<g>
	<path class="st0" d="M182.6232,147.757l-37.8405,37.8377l-19.7274-19.7274c-1.9652-1.9651-5.1488-1.9651-7.1139,0
		c-1.9651,1.9637-1.9651,5.1501,0,7.1139l23.2843,23.2857c0.9432,0.9432,2.222,1.4739,3.557,1.4739
		c1.3348,0,2.6135-0.5306,3.5569-1.4739l41.3975-41.3961c1.9651-1.9637,1.9651-5.1501,0-7.1139
		C187.7719,145.7919,184.5884,145.7919,182.6232,147.757z"/>
</g>
<g>
	<path class="st0" d="M212.2578,182.5867H315.75c2.7778,0,5.0308-2.2529,5.0308-5.0308s-2.2529-5.0308-5.0308-5.0308H212.2578
		c-2.778,0-5.0309,2.2529-5.0309,5.0308S209.4799,182.5867,212.2578,182.5867z"/>
</g>
<g>
	<path class="st0" d="M182.6232,229.9961l-37.8405,37.8377l-19.7274-19.7274c-1.9652-1.9652-5.1488-1.9652-7.1139,0
		c-1.9651,1.9637-1.9651,5.1501,0,7.1138l23.2843,23.2857c0.9432,0.9433,2.222,1.4739,3.557,1.4739
		c1.3348,0,2.6135-0.5306,3.5569-1.4739l41.3975-41.3961c1.9651-1.9637,1.9651-5.1501,0-7.1138
		C187.7719,228.0309,184.5884,228.0309,182.6232,229.9961z"/>
</g>
<g>
	<path class="st0" d="M212.2578,264.8257H315.75c2.7778,0,5.0308-2.2529,5.0308-5.0308c0-2.7779-2.2529-5.0308-5.0308-5.0308
		H212.2578c-2.778,0-5.0309,2.2529-5.0309,5.0308C207.2269,262.5728,209.4799,264.8257,212.2578,264.8257z"/>
</g>
<g>
	<path class="st0" d="M182.6232,312.2337l-37.8405,37.8377l-19.7274-19.7274c-1.9652-1.9651-5.1488-1.9651-7.1139,0
		c-1.9651,1.9637-1.9651,5.1501,0,7.1139l23.2843,23.2857c0.9432,0.9432,2.222,1.4739,3.557,1.4739
		c1.3348,0,2.6135-0.5306,3.5569-1.4739l41.3975-41.3961c1.9651-1.9637,1.9651-5.1501,0-7.1139
		C187.7719,310.2686,184.5884,310.2686,182.6232,312.2337z"/>
</g>
<g>
	<path class="st0" d="M255.7285,342.0325c0-2.7779-2.2529-5.0308-5.0309-5.0308h-38.4398c-2.778,0-5.0309,2.2529-5.0309,5.0308
		s2.2529,5.0308,5.0309,5.0308h38.4398C253.4756,347.0634,255.7285,344.8104,255.7285,342.0325z"/>
</g>
</svg>
