<?xml version="1.0" encoding="utf-8"?>
<!-- Generator: Adobe Illustrator 27.8.1, SVG Export Plug-In . SVG Version: 6.00 Build 0)  -->
<!DOCTYPE svg PUBLIC "-//W3C//DTD SVG 1.1//EN" "http://www.w3.org/Graphics/SVG/1.1/DTD/svg11.dtd" [
	<!ENTITY ns_extend "http://ns.adobe.com/Extensibility/1.0/">
	<!ENTITY ns_ai "http://ns.adobe.com/AdobeIllustrator/10.0/">
	<!ENTITY ns_graphs "http://ns.adobe.com/Graphs/1.0/">
	<!ENTITY ns_vars "http://ns.adobe.com/Variables/1.0/">
	<!ENTITY ns_imrep "http://ns.adobe.com/ImageReplacement/1.0/">
	<!ENTITY ns_sfw "http://ns.adobe.com/SaveForWeb/1.0/">
	<!ENTITY ns_custom "http://ns.adobe.com/GenericCustomNamespace/1.0/">
	<!ENTITY ns_adobe_xpath "http://ns.adobe.com/XPath/1.0/">
]>
<svg version="1.1" id="Layer_1" xmlns:x="&ns_extend;" xmlns:i="&ns_ai;" xmlns:graph="&ns_graphs;"
	 xmlns="http://www.w3.org/2000/svg" xmlns:xlink="http://www.w3.org/1999/xlink" x="0px" y="0px" width="500px" height="500px"
	 viewBox="0 0 500 500" style="enable-background:new 0 0 500 500;" xml:space="preserve">
<style type="text/css">
	.st0{fill:#FF6600;}
	.st1{fill:#FFFFFF;}
</style>
<metadata>
	<sfw  xmlns="&ns_sfw;">
		<slices></slices>
		<sliceSourceBounds  bottomLeftOrigin="true" height="500" width="500" x="1040" y="-500"></sliceSourceBounds>
	</sfw>
</metadata>
<path class="st0" d="M0,0v500h500V0H0z M261.64,163.86c0.57-1.76,2.1-3.05,3.94-3.32l23.71-3.45l10.6-21.49
	c0.82-1.66,2.52-2.72,4.37-2.72s3.55,1.05,4.37,2.72l10.6,21.49l23.71,3.45c1.84,0.27,3.36,1.55,3.94,3.32c0.57,1.76,0.1,3.7-1.23,5
	l-17.16,16.73l4.05,23.62c0.31,1.83-0.44,3.68-1.94,4.77c-1.5,1.09-3.49,1.23-5.13,0.37l-21.21-11.15l-21.21,11.15
	c-0.71,0.38-1.49,0.56-2.27,0.56c-1.01,0-2.02-0.31-2.86-0.93c-1.5-1.09-2.25-2.94-1.94-4.77l4.05-23.62l-17.16-16.73
	C261.54,167.56,261.06,165.62,261.64,163.86z M123.97,127.13c19.13,0,34.69,15.56,34.69,34.69c0,19.13-15.56,34.69-34.69,34.69
	c-19.13,0-34.69-15.56-34.69-34.69C89.28,142.69,104.84,127.13,123.97,127.13z M49.43,269.08l6.26-20.54c1.15-3.75,3.57-7,6.81-9.17
	l28.49-19.12c3.31-7.82,10.96-12.96,19.58-12.96h29.37c10.4,0,19.72,5.79,24.34,15.12l8.05,16.29c0.68,1.39,1.83,2.52,3.24,3.19
	l24.77,11.7c3.9,1.86,6.89,5.27,8.2,9.37c1.31,4.1,0.87,8.61-1.22,12.37c-2.76,4.97-8,8.05-13.69,8.05c-2.34,0-4.68-0.54-6.77-1.55
	l-29.19-13.99c-0.47-0.22-0.89-0.52-1.27-0.88l-1.66-1.6v25.26c0,2.79,1.75,5.34,4.36,6.34l31.93,12.21
	c6.22,2.38,10.4,8.46,10.4,15.12v40.92c0,6.82-5.55,12.38-12.36,12.38c-3.03,0-5.95-1.11-8.23-3.13c-2.29-2.05-3.73-4.83-4.06-7.86
	l-2.7-23.6c-0.26-2.28-1.74-4.27-3.85-5.19l-35.6-15.39h-2.52l-1.96,37.55c0,0.05-0.01,0.1-0.01,0.14
	c-0.16,1.96-0.58,3.89-1.26,5.74l-16.78,42.78c-1.98,5.42-7.14,8.84-12.7,8.84c-1.39,0-2.81-0.21-4.21-0.66
	c-3.47-1.11-6.29-3.52-7.95-6.76c-1.66-3.25-1.95-6.94-0.82-10.41l12.69-38.98c0.44-1.35,0.64-2.76,0.59-4.19l-1.33-37.9
	c-5.68-3.96-9.1-10.41-9.1-17.47v-48.26l-5.74,2.37c-1.95,0.8-3.45,2.4-4.12,4.39l-5.78,17.2c-1.76,5.18-6.6,8.66-12.04,8.66
	c-1.11,0-2.22-0.15-3.28-0.43c-3.34-0.88-6.12-3.04-7.82-6.07C48.8,275.94,48.42,272.42,49.43,269.08z M388.1,240.57l-11.65-11.66
	v70.24c0,2.69-2.18,4.87-4.87,4.87H260.29v82.79c0,2.69-2.18,4.87-4.87,4.87H144.15v37.07c0,2.69-2.18,4.87-4.87,4.87H23.12
	c-2.69,0-4.87-2.18-4.87-4.87c0-2.69,2.18-4.87,4.87-4.87H134.4v-37.07c0-2.69,2.18-4.87,4.87-4.87h111.27v-82.78
	c0-1.68,0.85-3.17,2.15-4.04c0.78-0.53,1.72-0.84,2.73-0.84H366.7v-65.36l-11.65,11.66v-14.03l16.52-16.52l16.52,16.52V240.57z
	 M392.78,147.81l-21.21-11.15l-21.21,11.15c-1.64,0.86-3.63,0.72-5.13-0.37c-1.5-1.09-2.25-2.94-1.94-4.77l4.05-23.62l-17.16-16.72
	c-1.33-1.3-1.81-3.23-1.23-5c0.57-1.77,2.1-3.05,3.94-3.32l23.71-3.45l10.6-21.49c0.82-1.66,2.52-2.72,4.37-2.72
	s3.55,1.05,4.37,2.72l10.6,21.49l23.71,3.45c1.84,0.27,3.36,1.55,3.94,3.32c0.57,1.76,0.1,3.7-1.23,4.99l-17.16,16.72l4.05,23.62
	c0.31,1.83-0.44,3.68-1.94,4.77c-0.85,0.62-1.85,0.93-2.87,0.93C394.28,148.37,393.5,148.19,392.78,147.81z M480.29,168.85
	l-17.16,16.73l4.05,23.62c0.31,1.83-0.44,3.68-1.94,4.77c-0.85,0.62-1.85,0.93-2.86,0.93c-0.78,0-1.55-0.18-2.27-0.56l-21.21-11.15
	l-21.21,11.15c-1.64,0.86-3.63,0.72-5.13-0.37c-1.5-1.09-2.25-2.94-1.94-4.77l4.05-23.62l-17.16-16.73c-1.33-1.29-1.81-3.23-1.23-5
	c0.57-1.76,2.1-3.05,3.94-3.32l23.71-3.45l10.6-21.49c0.82-1.66,2.52-2.72,4.37-2.72s3.55,1.05,4.37,2.72l10.6,21.49l23.71,3.45
	c1.84,0.27,3.36,1.55,3.94,3.32C482.09,165.62,481.61,167.56,480.29,168.85z"/>
<g>
	<g>
		<path class="st1" d="M139.27,440.13H23.12c-6.27,0-11.37-5.1-11.37-11.37s5.1-11.37,11.37-11.37H127.9v-30.57
			c0-6.27,5.1-11.37,11.37-11.37h104.77v-76.29c0-3.79,1.88-7.31,5.02-9.43c1.88-1.27,4.08-1.95,6.36-1.95H360.2v-43.16
			l-11.65,11.66v-32.42l23.02-23.02l23.02,23.02v32.42l-11.65-11.66v54.54c0,6.27-5.1,11.37-11.37,11.37H266.79v76.29
			c0,6.27-5.1,11.37-11.37,11.37H150.65v30.57C150.65,435.03,145.55,440.13,139.27,440.13z"/>
	</g>
	<g>
		<path class="st1" d="M327.74,221.4c-1.81,0-3.62-0.44-5.3-1.32l-18.18-9.56l-18.18,9.56c-1.62,0.85-3.46,1.31-5.29,1.31
			c-2.41,0-4.72-0.75-6.68-2.17c-3.53-2.57-5.27-6.83-4.53-11.13l3.47-20.25l-14.71-14.34c-3.12-3.04-4.23-7.51-2.88-11.66
			c1.35-4.15,4.87-7.11,9.18-7.74l20.33-2.95l9.09-18.42c1.93-3.91,5.84-6.34,10.2-6.34c4.36,0,8.27,2.43,10.2,6.34l9.09,18.42
			l20.33,2.95c4.31,0.63,7.83,3.59,9.18,7.74c1.35,4.16,0.24,8.62-2.88,11.66l-14.71,14.34l3.47,20.25
			c0.74,4.29-0.99,8.56-4.52,11.12C332.42,220.67,330.09,221.4,327.74,221.4z M290.71,173.31l2.49,2.43
			c2.68,2.62,3.9,6.38,3.27,10.07l-0.59,3.42l3.08-1.62c3.31-1.74,7.27-1.74,10.59,0l3.07,1.62l-0.59-3.43
			c-0.63-3.69,0.59-7.45,3.27-10.07l2.49-2.43l-3.44-0.5c-3.7-0.54-6.91-2.86-8.56-6.22l-1.54-3.12l-1.54,3.12
			c-1.66,3.36-4.86,5.68-8.56,6.22l0,0L290.71,173.31z"/>
	</g>
	<g>
		<path class="st1" d="M415.42,221.4c-2.34,0-4.67-0.73-6.67-2.18c-3.54-2.57-5.27-6.84-4.53-11.13l3.47-20.24l-14.71-14.34
			c-3.12-3.04-4.22-7.51-2.88-11.65c1.35-4.15,4.87-7.12,9.18-7.74l20.33-2.95l9.09-18.42c1.93-3.91,5.84-6.34,10.2-6.34
			c4.36,0,8.27,2.43,10.2,6.34l9.09,18.42l20.33,2.95c4.31,0.63,7.83,3.59,9.18,7.74c1.35,4.16,0.24,8.62-2.88,11.66l-14.71,14.34
			l3.47,20.25c0.74,4.3-0.99,8.56-4.52,11.12c-1.96,1.42-4.27,2.17-6.68,2.17c-1.84,0-3.67-0.45-5.29-1.31l-18.18-9.56l-18.18,9.56
			C419.04,220.97,417.22,221.4,415.42,221.4z M438.9,186.3c1.84,0,3.67,0.45,5.3,1.31l3.07,1.62l-0.59-3.43
			c-0.63-3.69,0.59-7.45,3.27-10.07l2.49-2.43l-3.44-0.5c-3.71-0.54-6.91-2.86-8.57-6.22l-1.54-3.12l-1.54,3.12
			c-1.65,3.36-4.86,5.68-8.56,6.22l-3.44,0.5l2.49,2.43c2.68,2.61,3.9,6.38,3.27,10.07l-0.59,3.43l3.08-1.62
			C435.23,186.75,437.06,186.3,438.9,186.3z"/>
	</g>
	<g>
		<path class="st1" d="M348.09,154.88c-2.35,0-4.68-0.74-6.68-2.19c-3.53-2.56-5.26-6.82-4.52-11.12l3.47-20.25l-14.71-14.34
			c-3.12-3.04-4.23-7.51-2.88-11.66c1.35-4.15,4.87-7.12,9.18-7.74l20.33-2.95l9.09-18.42c1.93-3.91,5.84-6.34,10.2-6.34
			c4.36,0,8.27,2.43,10.2,6.34l9.09,18.42l20.33,2.95c4.31,0.63,7.83,3.59,9.18,7.74c1.35,4.15,0.24,8.62-2.88,11.66l-14.71,14.34
			l3.47,20.25c0.74,4.3-0.99,8.56-4.52,11.13c-1.96,1.42-4.27,2.17-6.69,2.17c-1.84,0-3.67-0.45-5.29-1.31L371.58,144l-18.18,9.56
			C351.72,154.45,349.9,154.88,348.09,154.88z M358.04,106.78l2.49,2.42c2.68,2.62,3.9,6.38,3.27,10.07l-0.59,3.43l3.08-1.62
			c3.24-1.71,7.34-1.71,10.59,0l3.07,1.62l-0.59-3.43c-0.63-3.69,0.59-7.45,3.27-10.07l2.49-2.43l-3.44-0.5
			c-3.71-0.54-6.91-2.87-8.57-6.23l-1.54-3.12l-1.54,3.12c-1.66,3.36-4.86,5.68-8.56,6.22L358.04,106.78z"/>
	</g>
	<g>
		<path class="st1" d="M123.97,203c-22.71,0-41.19-18.48-41.19-41.19s18.48-41.19,41.19-41.19s41.19,18.48,41.19,41.19
			S146.68,203,123.97,203z M123.97,143.38c-10.17,0-18.44,8.27-18.44,18.44c0,10.17,8.27,18.44,18.44,18.44s18.44-8.27,18.44-18.44
			C142.41,151.65,134.13,143.38,123.97,143.38z"/>
	</g>
	<g>
		<path class="st1" d="M99.4,423.98c-2.1,0-4.19-0.33-6.2-0.98c-5.12-1.65-9.29-5.2-11.74-9.99c-2.45-4.8-2.88-10.26-1.22-15.38
			l12.69-38.98c0.21-0.63,0.3-1.28,0.27-1.94l-1.22-34.92c-5.82-5.23-9.21-12.74-9.21-20.68v-31.08l-2.97,8.84
			c-2.66,7.83-9.98,13.08-18.2,13.08c-1.68,0-3.35-0.22-4.96-0.65c-5.06-1.34-9.25-4.6-11.81-9.18c-2.57-4.59-3.15-9.9-1.63-14.94
			l6.27-20.56c1.59-5.19,4.94-9.69,9.43-12.68l26.98-18.1c4.72-9.22,14.21-15.06,24.7-15.06h29.37c12.89,0,24.45,7.18,30.16,18.74
			l8.05,16.3c0.03,0.07,0.1,0.15,0.21,0.2l24.75,11.69c5.53,2.63,9.76,7.46,11.62,13.26c1.86,5.8,1.23,12.18-1.73,17.51
			c-3.9,7.03-11.33,11.4-19.37,11.4c-3.33,0-6.65-0.76-9.61-2.21l-22.78-10.92v13.87c0,0.1,0.09,0.23,0.18,0.27l31.92,12.21
			c8.72,3.33,14.58,11.85,14.58,21.19v40.92c0,10.41-8.46,18.88-18.86,18.88c-4.62,0-9.08-1.7-12.54-4.77
			c-3.5-3.13-5.7-7.38-6.21-12l-2.7-23.58l-29.45-12.71l-1.55,29.62c-0.21,2.54-0.76,5.05-1.64,7.45l-0.05,0.14l-16.75,42.72
			C115.28,418.75,107.75,423.98,99.4,423.98z M192.92,364.76l0,0.02C192.92,364.77,192.92,364.76,192.92,364.76z M114.99,328.93
			l0.2,5.78l0.3-5.78H114.99z M105.69,227.29c-0.11,0.43-0.17,0.87-0.17,1.31v72.53c0,1.92,1.07,3.65,2.79,4.52
			c0.71,0.36,1.45,0.53,2.27,0.53h25.05c1.56,0,3.08,0.31,4.51,0.93l36.54,15.79c3.36,1.46,6.26,3.68,8.51,6.42v-5.03l-31.89-12.16
			c-8.85-3.39-14.8-12.04-14.8-21.51v-36.7c0-4.57,2.71-8.67,6.92-10.46c4.14-1.76,8.91-0.92,12.19,2.12l-7.89-15.97
			c-1.85-3.74-5.6-6.07-9.77-6.07h-29.37c-2.19,0-4.11,1.39-4.79,3.45l-0.03,0.1C105.74,227.16,105.71,227.22,105.69,227.29z
			 M193.91,267.2L193.91,267.2C193.92,267.2,193.91,267.2,193.91,267.2z"/>
	</g>
</g>
<g>
	<path class="st1" d="M108.26,322.3l1.18,33.85c0.09,2.57-0.27,5.1-1.06,7.55l-12.69,38.98c-0.32,0.98-0.24,2.03,0.23,2.95
		c0.47,0.92,1.27,1.6,2.25,1.92c1.98,0.64,4.09-0.39,4.81-2.35l16.78-42.78c0.33-0.9,0.56-1.95,0.65-3.01l1.93-36.96h-11.77
		C109.8,322.43,109.03,322.39,108.26,322.3z"/>
</g>
<g>
	<path class="st1" d="M105.36,311.45c1.62,0.82,3.38,1.24,5.21,1.24h25.05c0.67,0,1.32,0.14,1.93,0.4l36.54,15.79
		c5.31,2.3,9.01,7.3,9.66,13.03l2.7,23.62c0.07,0.65,0.38,1.24,0.86,1.67c0.48,0.43,1.11,0.67,1.75,0.67c1.44,0,2.62-1.18,2.62-2.63
		V324.3c0-2.65-1.66-5.07-4.14-6.02l-31.93-12.21c-6.36-2.43-10.62-8.64-10.62-15.44v-36.7c0-1.95,1.17-3.72,2.96-4.48
		c1.8-0.77,3.88-0.38,5.29,0.97l9.35,8.98l28.51,13.67c0.8,0.39,1.64,0.58,2.53,0.58c2.15,0,4.13-1.16,5.17-3.04
		c0.8-1.44,0.96-3.1,0.46-4.67c-0.5-1.57-1.6-2.83-3.1-3.54l-24.78-11.7c-3.4-1.62-6.17-4.35-7.81-7.69l-8.04-16.28
		c-2.96-5.98-8.93-9.69-15.6-9.69h-29.37c-5.01,0-9.41,3.19-10.96,7.93c-0.03,0.1-0.07,0.19-0.1,0.29
		c-0.33,1.09-0.49,2.21-0.49,3.34v72.53C99.02,305.51,101.45,309.46,105.36,311.45z"/>
</g>
<g>
	<path class="st1" d="M290.07,184.7l-2.81,16.41l14.74-7.75c1.42-0.75,3.12-0.75,4.54,0l14.73,7.75l-2.81-16.41
		c-0.27-1.58,0.25-3.19,1.4-4.31l11.92-11.62l-16.47-2.39c-1.59-0.23-2.96-1.23-3.67-2.67l-7.37-14.93l-7.37,14.93
		c-0.71,1.44-2.08,2.44-3.67,2.67l-16.47,2.39l11.92,11.62C289.81,181.51,290.34,183.12,290.07,184.7z"/>
</g>
<g>
	<circle class="st1" cx="123.97" cy="161.82" r="24.94"/>
</g>
<g>
	<path class="st1" d="M60.84,275.63c1.55,0.42,3.08-0.47,3.57-1.93l5.77-17.18c1.57-4.68,5.09-8.43,9.65-10.3l9.44-3.89v-9.18
		l-21.36,14.33c-1.39,0.93-2.42,2.32-2.91,3.92l-6.25,20.52c-0.23,0.77-0.14,1.6,0.25,2.31C59.4,274.92,60.05,275.42,60.84,275.63z"
		/>
</g>
<g>
	<path class="st1" d="M382.61,99.85c-1.59-0.23-2.96-1.23-3.67-2.67l-7.37-14.93l-7.37,14.93c-0.71,1.44-2.08,2.44-3.67,2.67
		l-16.48,2.39l11.92,11.62c1.15,1.12,1.67,2.73,1.4,4.31l-2.81,16.41l14.74-7.75c0.71-0.37,1.49-0.56,2.27-0.56
		c0.78,0,1.56,0.19,2.27,0.56l14.73,7.75l-2.81-16.41c-0.27-1.58,0.25-3.19,1.4-4.31l11.92-11.62L382.61,99.85z"/>
</g>
<g>
	<path class="st1" d="M446.27,163.71l-7.37-14.93l-7.37,14.93c-0.71,1.44-2.08,2.44-3.67,2.67l-16.47,2.39l11.92,11.62
		c1.15,1.12,1.67,2.73,1.4,4.31l-2.81,16.41l14.73-7.75c0.71-0.37,1.49-0.56,2.27-0.56c0.78,0,1.56,0.19,2.27,0.56l14.74,7.75
		l-2.81-16.41c-0.27-1.58,0.25-3.19,1.4-4.31l11.92-11.62l-16.47-2.39C448.35,166.14,446.98,165.15,446.27,163.71z"/>
</g>
<g>
	<g>
		<path class="st0" d="M355.05,226.54v14.03l11.65-11.66v65.36H255.42c-1.01,0-1.95,0.31-2.73,0.84c-1.3,0.88-2.15,2.36-2.15,4.04
			v82.78H139.27c-2.69,0-4.87,2.18-4.87,4.87v37.07H23.12c-2.69,0-4.87,2.18-4.87,4.87c0,2.69,2.18,4.87,4.87,4.87h116.16
			c2.69,0,4.87-2.18,4.87-4.87v-37.07h111.27c2.69,0,4.87-2.18,4.87-4.87v-82.79h111.29c2.69,0,4.87-2.18,4.87-4.87v-70.24
			l11.65,11.66v-14.03l-16.52-16.52L355.05,226.54z"/>
	</g>
	<g>
		<path class="st0" d="M280.03,185.58l-4.05,23.62c-0.31,1.83,0.44,3.68,1.94,4.77c0.85,0.62,1.85,0.93,2.86,0.93
			c0.78,0,1.55-0.18,2.27-0.56l21.21-11.15l21.21,11.15c1.64,0.86,3.63,0.72,5.13-0.37c1.5-1.09,2.25-2.94,1.94-4.77l-4.05-23.62
			l17.16-16.73c1.33-1.29,1.81-3.23,1.23-5c-0.57-1.76-2.1-3.05-3.94-3.32l-23.71-3.45l-10.6-21.49c-0.82-1.66-2.52-2.72-4.37-2.72
			s-3.55,1.05-4.37,2.72l-10.6,21.49l-23.71,3.45c-1.84,0.27-3.36,1.55-3.94,3.32c-0.57,1.76-0.1,3.7,1.23,5L280.03,185.58z
			 M293.22,166.37c1.59-0.23,2.96-1.23,3.67-2.67l7.37-14.93l7.37,14.93c0.71,1.44,2.08,2.44,3.67,2.67l16.47,2.39l-11.92,11.62
			c-1.15,1.12-1.67,2.73-1.4,4.31l2.81,16.41l-14.73-7.75c-1.42-0.75-3.12-0.75-4.54,0l-14.74,7.75l2.81-16.41
			c0.27-1.58-0.25-3.19-1.4-4.31l-11.92-11.62L293.22,166.37z"/>
	</g>
	<g>
		<path class="st0" d="M477.58,160.54l-23.71-3.45l-10.6-21.49c-0.82-1.66-2.52-2.72-4.37-2.72s-3.55,1.05-4.37,2.72l-10.6,21.49
			l-23.71,3.45c-1.84,0.27-3.36,1.55-3.94,3.32c-0.57,1.76-0.1,3.7,1.23,5l17.16,16.73l-4.05,23.62c-0.31,1.83,0.44,3.68,1.94,4.77
			c1.5,1.09,3.49,1.23,5.13,0.37l21.21-11.15l21.21,11.15c0.71,0.38,1.49,0.56,2.27,0.56c1.01,0,2.02-0.31,2.86-0.93
			c1.5-1.09,2.25-2.94,1.94-4.77l-4.05-23.62l17.16-16.73c1.33-1.29,1.81-3.23,1.23-5C480.94,162.09,479.42,160.81,477.58,160.54z
			 M454.49,180.39c-1.15,1.12-1.67,2.73-1.4,4.31l2.81,16.41l-14.74-7.75c-0.71-0.37-1.49-0.56-2.27-0.56
			c-0.78,0-1.56,0.19-2.27,0.56l-14.73,7.75l2.81-16.41c0.27-1.58-0.25-3.19-1.4-4.31l-11.92-11.62l16.47-2.39
			c1.59-0.23,2.96-1.23,3.67-2.67l7.37-14.93l7.37,14.93c0.71,1.44,2.08,2.44,3.67,2.67l16.47,2.39L454.49,180.39z"/>
	</g>
	<g>
		<path class="st0" d="M399.86,142.67l-4.05-23.62l17.16-16.72c1.33-1.29,1.81-3.23,1.23-4.99c-0.57-1.77-2.1-3.05-3.94-3.32
			l-23.71-3.45l-10.6-21.49c-0.82-1.66-2.52-2.72-4.37-2.72s-3.55,1.05-4.37,2.72l-10.6,21.49l-23.71,3.45
			c-1.84,0.27-3.36,1.55-3.94,3.32c-0.57,1.76-0.1,3.7,1.23,5l17.16,16.72l-4.05,23.62c-0.31,1.83,0.44,3.68,1.94,4.77
			c1.5,1.09,3.49,1.24,5.13,0.37l21.21-11.15l21.21,11.15c0.71,0.38,1.49,0.56,2.27,0.56c1.01,0,2.02-0.31,2.87-0.93
			C399.42,146.35,400.17,144.5,399.86,142.67z M387.17,113.87c-1.15,1.12-1.67,2.73-1.4,4.31l2.81,16.41l-14.73-7.75
			c-0.71-0.37-1.49-0.56-2.27-0.56c-0.78,0-1.56,0.19-2.27,0.56l-14.74,7.75l2.81-16.41c0.27-1.58-0.25-3.19-1.4-4.31l-11.92-11.62
			l16.48-2.39c1.59-0.23,2.96-1.23,3.67-2.67l7.37-14.93l7.37,14.93c0.71,1.44,2.08,2.44,3.67,2.67l16.47,2.39L387.17,113.87z"/>
	</g>
	<g>
		<path class="st0" d="M123.97,196.5c19.13,0,34.69-15.56,34.69-34.69c0-19.13-15.56-34.69-34.69-34.69
			c-19.13,0-34.69,15.56-34.69,34.69C89.28,180.94,104.84,196.5,123.97,196.5z M123.97,136.88c13.75,0,24.94,11.19,24.94,24.94
			c0,13.75-11.19,24.94-24.94,24.94s-24.94-11.19-24.94-24.94C99.03,148.07,110.21,136.88,123.97,136.88z"/>
	</g>
	<g>
		<path class="st0" d="M58.32,285.05c1.06,0.29,2.17,0.43,3.28,0.43c5.44,0,10.28-3.47,12.04-8.66l5.78-17.2
			c0.67-1.99,2.17-3.59,4.12-4.39l5.74-2.37v48.26c0,7.05,3.42,13.51,9.1,17.47l1.33,37.9c0.05,1.42-0.15,2.83-0.59,4.19
			l-12.69,38.98c-1.13,3.46-0.84,7.16,0.82,10.41c1.66,3.24,4.48,5.64,7.95,6.76c1.4,0.45,2.81,0.66,4.21,0.66
			c5.56,0,10.71-3.41,12.7-8.84l16.78-42.78c0.68-1.85,1.1-3.78,1.26-5.74c0-0.05,0.01-0.1,0.01-0.14l1.96-37.55h2.52l35.6,15.39
			c2.12,0.92,3.59,2.91,3.85,5.19l2.7,23.6c0.33,3.02,1.77,5.81,4.06,7.86c2.28,2.02,5.2,3.13,8.23,3.13
			c6.82,0,12.36-5.55,12.36-12.38V324.3c0-6.67-4.18-12.74-10.4-15.12l-31.93-12.21c-2.61-1-4.36-3.54-4.36-6.34v-25.26l1.66,1.6
			c0.37,0.36,0.8,0.66,1.27,0.88l29.19,13.99c2.08,1.01,4.42,1.55,6.77,1.55c5.69,0,10.93-3.09,13.69-8.05
			c2.09-3.77,2.53-8.28,1.22-12.37c-1.31-4.1-4.3-7.51-8.2-9.37l-24.77-11.7c-1.41-0.67-2.56-1.8-3.24-3.19l-8.05-16.29
			c-4.61-9.33-13.94-15.12-24.34-15.12h-29.37c-8.62,0-16.28,5.14-19.58,12.96L62.5,239.37c-3.24,2.16-5.66,5.42-6.81,9.17
			l-6.26,20.54c-1.01,3.34-0.62,6.86,1.08,9.9C52.2,282.01,54.98,284.17,58.32,285.05z M120.42,359.4
			c-0.09,1.07-0.33,2.11-0.65,3.01l-16.78,42.78c-0.71,1.95-2.83,2.99-4.81,2.35c-0.98-0.32-1.79-1-2.25-1.92
			c-0.47-0.92-0.55-1.97-0.23-2.95l12.69-38.98c0.8-2.44,1.15-4.98,1.06-7.55l-1.18-33.85c0.77,0.08,1.55,0.13,2.32,0.13h11.77
			L120.42,359.4z M99.02,228.6c0-1.13,0.16-2.25,0.49-3.34c0.04-0.09,0.07-0.19,0.1-0.29c1.55-4.75,5.96-7.93,10.96-7.93h29.37
			c6.66,0,12.64,3.71,15.6,9.69l8.04,16.28c1.64,3.34,4.41,6.07,7.81,7.69l24.78,11.7c1.49,0.71,2.59,1.96,3.1,3.54
			c0.5,1.57,0.34,3.22-0.46,4.67c-1.04,1.87-3.02,3.04-5.17,3.04c-0.89,0-1.73-0.19-2.53-0.58l-28.51-13.67l-9.35-8.98
			c-1.41-1.35-3.49-1.73-5.29-0.97c-1.8,0.77-2.96,2.53-2.96,4.48v36.7c0,6.8,4.27,13.01,10.62,15.44l31.93,12.21
			c2.47,0.95,4.14,3.36,4.14,6.02v40.92c0,1.45-1.17,2.63-2.62,2.63c-0.64,0-1.27-0.24-1.75-0.67c-0.48-0.43-0.79-1.02-0.86-1.67
			l-2.7-23.62c-0.65-5.73-4.35-10.72-9.66-13.03l-36.54-15.79c-0.61-0.26-1.27-0.4-1.93-0.4h-25.05c-1.84,0-3.59-0.42-5.21-1.24
			c-3.91-1.99-6.34-5.94-6.34-10.32V228.6z M58.75,271.91l6.25-20.52c0.49-1.6,1.52-2.99,2.91-3.92l21.36-14.33v9.18l-9.44,3.89
			c-4.56,1.87-8.08,5.62-9.65,10.3l-5.77,17.18c-0.5,1.46-2.02,2.34-3.57,1.93c-0.78-0.21-1.43-0.71-1.83-1.41
			C58.61,273.51,58.52,272.68,58.75,271.91z"/>
	</g>
</g>
</svg>
