<?xml version="1.0" encoding="utf-8"?>
<!-- Generator: Adobe Illustrator 27.8.1, SVG Export Plug-In . SVG Version: 6.00 Build 0)  -->
<!DOCTYPE svg PUBLIC "-//W3C//DTD SVG 1.1//EN" "http://www.w3.org/Graphics/SVG/1.1/DTD/svg11.dtd" [
	<!ENTITY ns_extend "http://ns.adobe.com/Extensibility/1.0/">
	<!ENTITY ns_ai "http://ns.adobe.com/AdobeIllustrator/10.0/">
	<!ENTITY ns_graphs "http://ns.adobe.com/Graphs/1.0/">
	<!ENTITY ns_vars "http://ns.adobe.com/Variables/1.0/">
	<!ENTITY ns_imrep "http://ns.adobe.com/ImageReplacement/1.0/">
	<!ENTITY ns_sfw "http://ns.adobe.com/SaveForWeb/1.0/">
	<!ENTITY ns_custom "http://ns.adobe.com/GenericCustomNamespace/1.0/">
	<!ENTITY ns_adobe_xpath "http://ns.adobe.com/XPath/1.0/">
]>
<svg version="1.1" id="Layer_1" xmlns:x="&ns_extend;" xmlns:i="&ns_ai;" xmlns:graph="&ns_graphs;"
	 xmlns="http://www.w3.org/2000/svg" xmlns:xlink="http://www.w3.org/1999/xlink" x="0px" y="0px" width="500px" height="500px"
	 viewBox="0 0 500 500" style="enable-background:new 0 0 500 500;" xml:space="preserve">
<style type="text/css">
	.st0{fill:#FF6600;}
	.st1{fill:#FFFFFF;}
</style>
<metadata>
	<sfw  xmlns="&ns_sfw;">
		<slices></slices>
		<sliceSourceBounds  bottomLeftOrigin="true" height="500" width="500" x="1040" y="-500"></sliceSourceBounds>
	</sfw>
</metadata>
<path class="st0" d="M0,0v500h500V0H0z M434.1323,436.279c-1.3765,1.7928-3.6923,2.5883-5.875,2.0136l-63.292-16.5695
	l-15.2072,58.1137c-0.5762,2.2078-2.4332,3.8441-4.6942,4.1432c-0.2458,0.0328-0.4917,0.0485-0.7361,0.0485
	c-1.9949,0-3.8644-1.0648-4.8728-2.831l-70.5115-123.5573c-6.2225,0.6876-12.5408,1.0524-18.9436,1.0524
	c-6.3223,0-12.6633-0.3582-18.9443-1.0512l-70.5107,123.556c-1.0084,1.7662-2.8779,2.831-4.8728,2.831
	c-0.2444,0-0.4902-0.0157-0.7361-0.0485c-2.261-0.2991-4.118-1.9354-4.6942-4.1432l-15.2072-58.1137l-63.292,16.5695
	c-2.1812,0.5746-4.5001-0.2208-5.875-2.0136c-1.3732-1.7913-1.5408-4.2324-0.4226-6.1944l67.2019-117.8951
	c-1.2859-1.2111-2.5607-2.4375-3.8146-3.6921c-32.3671-32.3513-50.1923-75.3831-50.1923-121.166
	c0-94.4877,76.8722-171.3599,171.3599-171.3599s171.3599,76.8722,171.3599,171.3599c0,49.1413-20.7991,93.5104-54.0477,124.7865
	l67.2428,117.9668C435.6731,432.0466,435.5055,434.4877,434.1323,436.279z"/>
<g>
	<g>
		<g>
			<path class="st1" d="M250.0002,58.131c-71.2415,0-129.2002,57.9587-129.2002,129.2003s57.9587,129.2018,129.2002,129.2018
				c4.854,0,9.7441-0.2772,14.5371-0.8252c65.3682-7.3077,114.6631-62.4965,114.6631-128.3766
				C379.2003,116.0897,321.2416,58.131,250.0002,58.131z M263.2908,304.553c-0.0048,0.0016-0.0094,0.0016-0.014,0.0016
				c-4.3765,0.501-8.8438,0.7547-13.2766,0.7547c-65.0519,0-117.9766-52.9246-117.9766-117.978
				c0-65.0519,52.9247-117.9765,117.9766-117.9765s117.9766,52.9246,117.9766,117.9765
				C367.9767,247.4884,322.9718,297.8827,263.2908,304.553z"/>
			<path class="st1" d="M250.0002,323.0332c-74.8252,0-135.7002-60.876-135.7002-135.7021
				c0-74.8252,60.875-135.7002,135.7002-135.7002s135.7002,60.875,135.7002,135.7002c0,69.1934-51.7783,127.1611-120.4414,134.8369
				C260.2414,322.7412,255.1017,323.0332,250.0002,323.0332z M250.0002,75.855c-61.4688,0-111.4766,50.0078-111.4766,111.4761
				c0,61.4692,50.0078,111.4785,111.4766,111.4785c3.958,0,7.9424-0.2139,11.8555-0.6367l0.7139-0.0801
				c0.0449-0.0049,0.0859-0.0098,0.1309-0.0146l0.2061-0.0234c56.2178-6.4551,98.5703-53.9951,98.5703-110.7236
				C361.4767,125.8628,311.4689,75.855,250.0002,75.855z"/>
		</g>
		<g>
			<path class="st1" d="M325.9783,129.2222c-9.5297-9.5076-25.0297-9.5092-34.5592,0.0047l-64.355,64.352l-21.4612-21.4611
				c-9.5295-9.5295-25.0327-9.5295-34.5654,0c-9.5295,9.5327-9.5295,25.0437,0.0017,34.5764l38.7445,38.743
				c4.5441,4.544,10.8433,7.1511,17.2804,7.1511c6.4386,0,12.7378-2.6071,17.2819-7.1511l81.6354-81.6354
				c1.1917-1.1916,2.2344-2.4766,3.1279-3.8316c5.3625-8.1305,5.3621-18.7828-0.001-26.913
				C328.214,131.701,327.1708,130.4149,325.9783,129.2222z M318.0458,155.8662l-81.6354,81.6354
				c-2.4552,2.4552-5.8624,3.8629-9.3463,3.8629c-3.484,0-6.8896-1.4077-9.3448-3.8629l-38.743-38.743
				c-5.1562-5.1578-5.1562-13.5474-0.0015-18.7053c2.5773-2.5773,5.9609-3.8644,9.3463-3.8644c3.3837,0,6.7689,1.2886,9.3463,3.8644
				l25.429,25.4305c1.0522,1.0522,2.4786,1.6441,3.9678,1.6441c1.4875,0,2.9155-0.5919,3.9678-1.6441l68.3197-68.3182
				c0.3221-0.3215,0.6569-0.6229,1.0027-0.9043c3.6986-3.009,8.6588-3.7062,12.9543-2.1181
				c1.7284,0.6395,3.3523,1.6384,4.7389,3.0224C323.2021,142.3219,323.2006,150.71,318.0458,155.8662z"/>
			<path class="st1" d="M227.0646,259.0879c-8.1484,0-16.1221-3.2998-21.877-9.0542l-38.7441-38.7432
				c-12.0654-12.0664-12.0664-31.7007-0.0029-43.7681c12.0654-12.063,31.6953-12.063,43.7588-0.001l16.8652,16.8652l59.7588-59.7559
				c12.0605-12.0415,31.6836-12.043,43.7461-0.0103l0.0059,0.0063c1.4805,1.4805,2.8125,3.1123,3.959,4.8506
				c6.8262,10.3486,6.8271,23.7222,0.001,34.0713c-1.1445,1.7363-2.4766,3.3682-3.957,4.8491l-81.6367,81.6353
				C243.1886,255.7871,235.214,259.0879,227.0646,259.0879z M188.3214,182.689c-1.7988,0-3.4863,0.6963-4.75,1.9604
				c-2.6211,2.6221-2.6201,6.8906,0.002,9.5142l38.7422,38.7417c1.2441,1.2446,2.9756,1.959,4.749,1.959
				c1.748,0,3.5225-0.7319,4.749-1.9585l81.6357-81.6348c2.6211-2.6226,2.6221-6.8887,0.002-9.5103
				c-0.6689-0.667-1.4775-1.1812-2.3984-1.5215c-2.2422-0.8291-4.7705-0.4219-6.5957,1.064
				c-0.1777,0.144-0.3525,0.3018-0.5166,0.4653l-68.3125,68.3115c-2.2891,2.2881-5.3301,3.5479-8.5635,3.5479
				c-3.2354,0-6.2773-1.2603-8.5654-3.5488l-25.4287-25.4297C191.8068,183.3857,190.1193,182.689,188.3214,182.689z"/>
		</g>
		<g>
			<path class="st1" d="M367.3123,312.1178c33.2487-31.2761,54.0477-75.6452,54.0477-124.7865
				c0-94.4877-76.8722-171.3599-171.3599-171.3599S78.6403,92.8436,78.6403,187.3313c0,45.7829,17.8252,88.8147,50.1923,121.166
				c1.2539,1.2546,2.5287,2.481,3.8146,3.6921L65.4452,430.0846c-1.1182,1.962-0.9506,4.4031,0.4226,6.1944
				c1.3749,1.7928,3.6938,2.5883,5.875,2.0136l63.292-16.5695l15.2072,58.1137c0.5762,2.2078,2.4332,3.8441,4.6942,4.1432
				c0.2458,0.0328,0.4917,0.0485,0.7361,0.0485c1.9949,0,3.8644-1.0648,4.8728-2.831l70.5107-123.556
				c6.281,0.693,12.6221,1.0512,18.9443,1.0512c6.4028,0,12.7211-0.3649,18.9436-1.0524l70.5115,123.5573
				c1.0084,1.7662,2.8779,2.831,4.8728,2.831c0.2444,0,0.4902-0.0157,0.7361-0.0485c2.261-0.2991,4.118-1.9354,4.6942-4.1432
				l15.2072-58.1137l63.292,16.5695c2.1827,0.5746,4.4985-0.2208,5.875-2.0136c1.3732-1.7913,1.5408-4.2324,0.4226-6.1944
				L367.3123,312.1178z M81.8001,424.0577l59.4424-104.2805c10.1503,8.3696,21.1398,15.4764,32.7896,21.2408l-38.7169,69.0298
				L81.8001,424.0577z M157.617,463.6839l-12.5718-48.0405l39.243-69.9679c11.1327,4.6118,22.7897,8.0474,34.8346,10.2316
				L157.617,463.6839z M250.0002,347.4689c-8.6919,0-17.4244-0.7077-25.9597-2.1028c-33.1907-5.3958-63.3687-20.888-87.2708-44.8058
				c-30.2485-30.2328-46.9056-70.4446-46.9056-113.2289c0-88.2996,71.8365-160.1361,160.1361-160.1361
				s160.1361,71.8365,160.1361,160.1361S338.2997,347.4689,250.0002,347.4689z M342.3833,463.6839l-61.5099-107.7838
				c12.0864-2.2082,23.7319-5.691,34.7968-10.2993l39.2849,70.0425L342.3833,463.6839z M364.6852,410.0478l-38.7679-69.1208
				c11.7545-5.8337,22.7529-12.9692,32.7942-21.2312l59.4888,104.3619L364.6852,410.0478z"/>
			<path class="st1" d="M344.3283,490.5283c-4.3359,0-8.3662-2.3408-10.5176-6.1074l-68.4238-119.8994
				c-10.291,0.8906-20.4844,0.8916-30.7734,0.001l-68.4229,119.8965c-2.1523,3.7686-6.1826,6.1094-10.5186,6.1094
				c-0.5283,0-1.0615-0.0352-1.583-0.1035c-4.9111-0.6514-8.8877-4.1621-10.1357-8.9463l-13.5605-51.8213l-57.0029,14.9238
				c-4.7227,1.2441-9.7021-0.4629-12.6807-4.3477c-2.9717-3.876-3.3301-9.123-0.9111-13.3672l64.7021-113.5088
				c-0.0889-0.0889-0.1777-0.1777-0.2656-0.2656c-33.5918-33.5762-52.0938-78.2397-52.0938-125.7607
				c0-98.0718,79.7871-177.8594,177.8594-177.8594s177.8604,79.7876,177.8604,177.8594c0,24.9297-5.084,49.061-15.1113,71.7236
				c-8.9902,20.3154-21.5225,38.5361-37.292,54.2266l64.7451,113.585c2.418,4.2432,2.0605,9.4893-0.9102,13.3662
				c-2.9834,3.8857-7.96,5.5869-12.6885,4.3467l-56.9951-14.9219l-13.5625,51.8252c-1.2471,4.7793-5.2227,8.291-10.127,8.9414
				C345.3869,490.4941,344.8556,490.5283,344.3283,490.5283z M290.9416,360.4287l49.1875,86.1924l7.874-30.0859l-35.2197-62.7939
				C305.6564,356.4375,298.3498,358.6748,290.9416,360.4287z M151.9972,416.5352l7.874,30.0859l49.1758-86.1719
				c-7.4346-1.7461-14.749-3.9678-21.8662-6.6436L151.9972,416.5352z M143.1496,329.5576l-48.0537,84.2998l35.9014-9.3984
				l34.083-60.7676C157.4503,339.5371,150.1115,334.8076,143.1496,329.5576z M369.0041,404.459l35.9004,9.3984l-48.1035-84.3877
				c-6.9521,5.2334-14.292,9.96-21.9346,14.126L369.0041,404.459z M250.0002,33.6953c-84.7148,0-153.6357,68.9209-153.6357,153.6357
				c0,41.0479,15.9814,79.627,45,108.6318c22.9336,22.9482,51.8818,37.8125,83.7188,42.9873
				c8.1934,1.3398,16.5742,2.0186,24.917,2.0186c84.7148,0,153.6357-68.9219,153.6357-153.6377
				C403.6359,102.6162,334.715,33.6953,250.0002,33.6953z"/>
		</g>
	</g>
	<g>
		<path class="st1" d="M313.3086,134.1432c-4.2955-1.5881-9.2557-0.8909-12.9543,2.1181c-0.3458,0.2814-0.6805,0.5828-1.0027,0.9043
			l-68.3197,68.3182c-1.0522,1.0522-2.4802,1.6441-3.9678,1.6441c-1.4891,0-2.9155-0.5919-3.9678-1.6441l-25.429-25.4305
			c-2.5774-2.5757-5.9626-3.8644-9.3463-3.8644c-3.3854,0-6.769,1.287-9.3463,3.8644c-5.1548,5.1578-5.1548,13.5475,0.0015,18.7053
			l38.743,38.743c2.4552,2.4552,5.8608,3.8629,9.3448,3.8629c3.4839,0,6.8911-1.4077,9.3463-3.8629l81.6354-81.6354
			c5.1548-5.1562,5.1562-13.5443,0.0017-18.7006C316.6609,135.7817,315.037,134.7827,313.3086,134.1432z"/>
	</g>
	<g>
		<path class="st1" d="M410.1363,187.3313c0-88.2996-71.8365-160.1361-160.1361-160.1361S89.8641,99.0317,89.8641,187.3313
			c0,42.7844,16.6571,82.9961,46.9056,113.2289c23.9021,23.9178,54.0801,39.41,87.2708,44.8058
			c8.5353,1.3951,17.2678,2.1028,25.9597,2.1028C338.2997,347.4689,410.1363,275.6309,410.1363,187.3313z M264.5373,315.7079
			c-4.793,0.548-9.6831,0.8252-14.5371,0.8252c-71.2415,0-129.2002-57.9603-129.2002-129.2018S178.7587,58.131,250.0002,58.131
			s129.2002,57.9587,129.2002,129.2003C379.2003,253.2115,329.9054,308.4003,264.5373,315.7079z"/>
	</g>
	<g>
		<path class="st1" d="M250.0002,69.3548c-65.0519,0-117.9766,52.9246-117.9766,117.9765
			c0,65.0534,52.9247,117.978,117.9766,117.978c4.4329,0,8.9001-0.2537,13.2766-0.7547c0.0046,0,0.0093,0,0.014-0.0016
			c59.681-6.6703,104.6859-57.0646,104.6859-117.2217C367.9767,122.2794,315.052,69.3548,250.0002,69.3548z M329.1093,159.9702
			c-0.8936,1.355-1.9363,2.64-3.1279,3.8316l-81.6354,81.6354c-4.5441,4.544-10.8433,7.1511-17.2819,7.1511
			c-6.4371,0-12.7363-2.6071-17.2804-7.1511l-38.7445-38.743c-9.5312-9.5327-9.5312-25.0437-0.0017-34.5764
			c9.5327-9.5295,25.0359-9.5295,34.5654,0l21.4612,21.4611l64.355-64.352c9.5295-9.5139,25.0295-9.5123,34.5592-0.0047
			c1.1925,1.1927,2.2357,2.4788,3.13,3.8349C334.4713,141.1874,334.4718,151.8397,329.1093,159.9702z"/>
	</g>
	<g>
		<path class="st1" d="M141.2425,319.7772L81.8001,424.0577l53.515-14.0099l38.7169-69.0298
			C162.3822,335.2536,151.3927,328.1468,141.2425,319.7772z"/>
	</g>
	<g>
		<path class="st1" d="M145.0452,415.6434l12.5718,48.0405l61.5059-107.7768c-12.0449-2.1843-23.7019-5.6198-34.8346-10.2316
			L145.0452,415.6434z"/>
	</g>
	<g>
		<path class="st1" d="M325.9173,340.927l38.7679,69.1208l53.515,14.0099l-59.4888-104.3619
			C348.6702,327.9578,337.6718,335.0933,325.9173,340.927z"/>
	</g>
	<g>
		<path class="st1" d="M280.8734,355.9001l61.5099,107.7838l12.5718-48.0405l-39.2849-70.0425
			C304.6054,350.2091,292.9599,353.692,280.8734,355.9001z"/>
	</g>
	<g>
		<g>
			<path class="st0" d="M250.0002,58.131c-71.2415,0-129.2002,57.9587-129.2002,129.2003s57.9587,129.2018,129.2002,129.2018
				c4.854,0,9.7441-0.2772,14.5371-0.8252c65.3682-7.3077,114.6631-62.4965,114.6631-128.3766
				C379.2003,116.0897,321.2416,58.131,250.0002,58.131z M263.2908,304.553c-0.0048,0.0016-0.0094,0.0016-0.014,0.0016
				c-4.3765,0.501-8.8438,0.7547-13.2766,0.7547c-65.0519,0-117.9766-52.9246-117.9766-117.978
				c0-65.0519,52.9247-117.9765,117.9766-117.9765s117.9766,52.9246,117.9766,117.9765
				C367.9767,247.4884,322.9718,297.8827,263.2908,304.553z"/>
		</g>
		<g>
			<path class="st0" d="M325.9783,129.2222c-9.5297-9.5076-25.0297-9.5092-34.5592,0.0047l-64.355,64.352l-21.4612-21.4611
				c-9.5295-9.5295-25.0327-9.5295-34.5654,0c-9.5295,9.5327-9.5295,25.0437,0.0017,34.5764l38.7445,38.743
				c4.5441,4.544,10.8433,7.1511,17.2804,7.1511c6.4386,0,12.7378-2.6071,17.2819-7.1511l81.6354-81.6354
				c1.1917-1.1916,2.2344-2.4766,3.1279-3.8316c5.3625-8.1305,5.3621-18.7828-0.001-26.913
				C328.214,131.701,327.1708,130.4149,325.9783,129.2222z M318.0458,155.8662l-81.6354,81.6354
				c-2.4552,2.4552-5.8624,3.8629-9.3463,3.8629c-3.484,0-6.8896-1.4077-9.3448-3.8629l-38.743-38.743
				c-5.1562-5.1578-5.1562-13.5474-0.0015-18.7053c2.5773-2.5773,5.9609-3.8644,9.3463-3.8644c3.3837,0,6.7689,1.2886,9.3463,3.8644
				l25.429,25.4305c1.0522,1.0522,2.4786,1.6441,3.9678,1.6441c1.4875,0,2.9155-0.5919,3.9678-1.6441l68.3197-68.3182
				c0.3221-0.3215,0.6569-0.6229,1.0027-0.9043c3.6986-3.009,8.6588-3.7062,12.9543-2.1181
				c1.7284,0.6395,3.3523,1.6384,4.7389,3.0224C323.2021,142.3219,323.2006,150.71,318.0458,155.8662z"/>
		</g>
		<g>
			<path class="st0" d="M367.3123,312.1178c33.2487-31.2761,54.0477-75.6452,54.0477-124.7865
				c0-94.4877-76.8722-171.3599-171.3599-171.3599S78.6403,92.8436,78.6403,187.3313c0,45.7829,17.8252,88.8147,50.1923,121.166
				c1.2539,1.2546,2.5287,2.481,3.8146,3.6921L65.4452,430.0846c-1.1182,1.962-0.9506,4.4031,0.4226,6.1944
				c1.3749,1.7928,3.6938,2.5883,5.875,2.0136l63.292-16.5695l15.2072,58.1137c0.5762,2.2078,2.4332,3.8441,4.6942,4.1432
				c0.2458,0.0328,0.4917,0.0485,0.7361,0.0485c1.9949,0,3.8644-1.0648,4.8728-2.831l70.5107-123.556
				c6.281,0.693,12.6221,1.0512,18.9443,1.0512c6.4028,0,12.7211-0.3649,18.9436-1.0524l70.5115,123.5573
				c1.0084,1.7662,2.8779,2.831,4.8728,2.831c0.2444,0,0.4902-0.0157,0.7361-0.0485c2.261-0.2991,4.118-1.9354,4.6942-4.1432
				l15.2072-58.1137l63.292,16.5695c2.1827,0.5746,4.4985-0.2208,5.875-2.0136c1.3732-1.7913,1.5408-4.2324,0.4226-6.1944
				L367.3123,312.1178z M81.8001,424.0577l59.4424-104.2805c10.1503,8.3696,21.1398,15.4764,32.7896,21.2408l-38.7169,69.0298
				L81.8001,424.0577z M157.617,463.6839l-12.5718-48.0405l39.243-69.9679c11.1327,4.6118,22.7897,8.0474,34.8346,10.2316
				L157.617,463.6839z M250.0002,347.4689c-8.6919,0-17.4244-0.7077-25.9597-2.1028c-33.1907-5.3958-63.3687-20.888-87.2708-44.8058
				c-30.2485-30.2328-46.9056-70.4446-46.9056-113.2289c0-88.2996,71.8365-160.1361,160.1361-160.1361
				s160.1361,71.8365,160.1361,160.1361S338.2997,347.4689,250.0002,347.4689z M342.3833,463.6839l-61.5099-107.7838
				c12.0864-2.2082,23.7319-5.691,34.7968-10.2993l39.2849,70.0425L342.3833,463.6839z M364.6852,410.0478l-38.7679-69.1208
				c11.7545-5.8337,22.7529-12.9692,32.7942-21.2312l59.4888,104.3619L364.6852,410.0478z"/>
		</g>
	</g>
</g>
</svg>
