<?xml version="1.0" encoding="utf-8"?>
<!-- Generator: Adobe Illustrator 27.8.1, SVG Export Plug-In . SVG Version: 6.00 Build 0)  -->
<!DOCTYPE svg PUBLIC "-//W3C//DTD SVG 1.1//EN" "http://www.w3.org/Graphics/SVG/1.1/DTD/svg11.dtd" [
	<!ENTITY ns_extend "http://ns.adobe.com/Extensibility/1.0/">
	<!ENTITY ns_ai "http://ns.adobe.com/AdobeIllustrator/10.0/">
	<!ENTITY ns_graphs "http://ns.adobe.com/Graphs/1.0/">
	<!ENTITY ns_vars "http://ns.adobe.com/Variables/1.0/">
	<!ENTITY ns_imrep "http://ns.adobe.com/ImageReplacement/1.0/">
	<!ENTITY ns_sfw "http://ns.adobe.com/SaveForWeb/1.0/">
	<!ENTITY ns_custom "http://ns.adobe.com/GenericCustomNamespace/1.0/">
	<!ENTITY ns_adobe_xpath "http://ns.adobe.com/XPath/1.0/">
]>
<svg version="1.1" id="Layer_1" xmlns:x="&ns_extend;" xmlns:i="&ns_ai;" xmlns:graph="&ns_graphs;"
	 xmlns="http://www.w3.org/2000/svg" xmlns:xlink="http://www.w3.org/1999/xlink" x="0px" y="0px" width="500px" height="500px"
	 viewBox="0 0 500 500" style="enable-background:new 0 0 500 500;" xml:space="preserve">
<style type="text/css">
	.st0{fill:#FF6600;}
	.st1{fill:#FFFFFF;}
</style>
<metadata>
	<sfw  xmlns="&ns_sfw;">
		<slices></slices>
		<sliceSourceBounds  bottomLeftOrigin="true" height="500" width="500" x="1040" y="-500"></sliceSourceBounds>
	</sfw>
</metadata>
<path class="st0" d="M0,0v500h500V0H0z M311.6575,355.3962c-32.938,0-63.634-9.7653-89.3613-26.541L89.6036,461.5469
	c-7.2006,7.2014-16.816,11.1674-27.075,11.1674s-19.8744-3.966-27.0758-11.1674c-7.2004-7.1996-11.1665-16.8152-11.1665-27.074
	s3.9661-19.8744,11.1675-27.074l134.1184-134.1194c-13.9666-24.1251-21.97-52.1143-21.97-81.9393
	c0-90.4596,73.5947-164.0544,164.0552-164.0544c90.4613,0,164.0562,73.5948,164.0562,164.0544
	C475.7136,281.8014,402.1188,355.3962,311.6575,355.3962z"/>
<g>
	<path class="st1" d="M311.6575,27.2857c-90.4604,0-164.0552,73.5948-164.0552,164.0544c0,29.825,8.0034,57.8141,21.97,81.9393
		L35.4539,407.3988c-7.2014,7.1996-11.1675,16.8152-11.1675,27.074s3.9661,19.8744,11.1665,27.074
		c7.2014,7.2014,16.8169,11.1674,27.0758,11.1674s19.8744-3.966,27.075-11.1674l132.6925-132.6917
		c25.7273,16.7758,56.4233,26.541,89.3613,26.541c90.4613,0,164.0562-73.5948,164.0562-164.0561
		C475.7136,100.8805,402.1188,27.2857,311.6575,27.2857z M80.9309,452.8758c-4.884,4.8848-11.4198,7.5744-18.4022,7.5744
		c-6.9833,0-13.519-2.6896-18.4038-7.5744c-4.8839-4.8848-7.5743-11.4206-7.5743-18.403s2.6904-13.5182,7.5752-18.403
		l132.1616-132.1616c9.8816,14.4056,22.0001,27.1586,35.8511,37.7606L80.9309,452.8758z M311.6575,343.1321
		c-83.698,0-151.7911-68.0941-151.7911-151.792S227.9595,39.5498,311.6575,39.5498s151.792,68.0923,151.792,151.7903
		S395.3555,343.1321,311.6575,343.1321z"/>
	<path class="st1" d="M62.5283,479.2139c-11.9951,0-23.2422-4.6416-31.6719-13.0703c-8.4277-8.4268-13.0703-19.6748-13.0703-31.6709
		s4.6426-23.2432,13.0723-31.6709L161.5,272.1602c-13.3584-24.7437-20.3975-52.5776-20.3975-80.8203
		c0-94.0439,76.5107-170.5542,170.5547-170.5542c94.0449,0,170.5566,76.5103,170.5566,170.5542
		c0,94.0449-76.5117,170.5566-170.5566,170.5566c-31.3262,0-61.7871-8.5508-88.4355-24.7744L94.2002,466.1436
		C85.7725,474.5723,74.5244,479.2139,62.5283,479.2139z M175.4785,293.9092L48.7227,420.666
		c-3.6582,3.6582-5.6719,8.5605-5.6719,13.8066s2.0137,10.1504,5.6709,13.8076c3.6562,3.6562,8.5596,5.6699,13.8066,5.6699
		s10.1504-2.0137,13.8057-5.6699h0.001L202.4082,322.207C192.3701,313.8193,183.3516,304.3418,175.4785,293.9092z M311.6572,46.0498
		c-80.1133,0-145.291,65.1768-145.291,145.29c0,80.1143,65.1777,145.292,145.291,145.292c80.1143,0,145.292-65.1777,145.292-145.292
		C456.9492,111.2266,391.7715,46.0498,311.6572,46.0498z"/>
</g>
<g>
	<path class="st1" d="M311.6575,39.5498c-83.698,0-151.7911,68.0923-151.7911,151.7903s68.0931,151.792,151.7911,151.792
		s151.792-68.0941,151.792-151.792S395.3555,39.5498,311.6575,39.5498z M311.6575,320.7563
		c-71.3604,0-129.4153-58.0559-129.4153-129.4162c0-71.3586,58.0549-129.4145,129.4153-129.4145s129.4163,58.0559,129.4163,129.4145
		C441.0737,262.7004,383.0178,320.7563,311.6575,320.7563z"/>
</g>
<g>
	<path class="st1" d="M311.6575,74.1896c-64.5977,0-117.1512,52.5535-117.1512,117.1505
		c0,64.5986,52.5536,117.1521,117.1512,117.1521c64.5986,0,117.1521-52.5535,117.1521-117.1521
		C428.8096,126.7432,376.2561,74.1896,311.6575,74.1896z M244.001,130.2252c1.0354-1.1593,25.8679-28.3928,69.7346-28.3928
		c44.0121,0,66.0813,27.4112,66.9987,28.578c1.3202,1.6774,1.0299,4.1072-0.6477,5.4268c-0.7081,0.5572-1.5509,0.8272-2.3866,0.8272
		c-1.1445,0.0003-2.2775-0.5061-3.0405-1.4753c-0.1975-0.2494-20.8114-25.6274-60.9238-25.6274
		c-40.2842,0-63.7429,25.5594-63.9749,25.8178c-1.4252,1.5844-3.8673,1.7192-5.4551,0.2954
		C242.7185,134.2521,242.5806,131.8151,244.001,130.2252z M298.8693,279.7878c-0.7472,0.7095-1.7045,1.0615-2.6597,1.0615
		c-1.0231,0-2.0442-0.4034-2.8038-1.2042c-1.2825-1.3515-31.4158-33.4167-31.4158-61.0211c0-13.3196,5.6941-26.2793,16.0334-36.4922
		c9.5552-9.4382,21.9314-15.0728,33.106-15.0728c21.2931,0,51.2803,17.0631,51.2803,54.998c0,2.1344-1.7306,3.8646-3.8647,3.8646
		c-2.134,0-3.8645-1.7302-3.8645-3.8646c0-32.6035-25.4673-47.2687-43.551-47.2687c-18.7563,0-41.4102,19.5536-41.4102,43.8358
		c0,24.5539,28.9998,55.3915,29.2927,55.7003C300.4811,275.8724,300.4172,278.3184,298.8693,279.7878z M357.6633,264.4086
		c-0.3062,1.8994-1.9475,3.2515-3.8112,3.2515c-0.2045,0-0.4103-0.0161-0.6183-0.0497
		c-23.1479-3.7236-34.4412-18.4506-39.8387-30.1494c-5.7516-12.4667-6.1166-23.9734-6.129-24.4568
		c-0.0563-2.1337,1.6284-3.9089,3.7617-3.9648c0.0349-0.001,0.0693-0.0014,0.1035-0.0014c2.0854,0,3.803,1.6609,3.8613,3.7569
		c0.0027,0.105,0.3691,10.6129,5.5278,21.6592c6.724,14.3959,18.1428,22.9839,33.9409,25.5252
		C356.5681,260.3183,358.0022,262.3013,357.6633,264.4086z M375.0657,242.3961c-3.7631,4.1747-8.8759,6.2917-15.1956,6.2917
		c-17.8451,0-27.4744-14.2792-27.4744-27.7148c0-8.3197-7.1227-23.8399-20.738-23.8399c-13.6188,0-19.7148,13.9094-19.7148,27.6946
		c0,14.1135,19.1865,41.6153,41.9248,47.5759c2.0647,0.5414,3.2998,2.6538,2.7584,4.7182c-0.455,1.7361-2.0216,2.8858-3.7357,2.8858
		c-0.3245,0-0.6538-0.0412-0.9825-0.1273c-27.2135-7.134-47.6942-38.3151-47.6942-55.0526c0-17.061,8.5884-35.4238,27.4441-35.4238
		c8.3682,0,15.9889,4.1,21.4578,11.5441c4.3237,5.8861,7.0095,13.5591,7.0095,20.025c0,8.0336,5.2583,19.9856,19.7451,19.9856
		c4.0951,0,7.187-1.2225,9.4542-3.7373c4.454-4.9416,6.0199-15.1288,4.5289-29.4595
		c-1.9062-18.3202-22.5291-54.2336-61.5635-54.2336c-36.8779,0-64.4331,32.9367-64.4331,62.3859
		c0,28.1622,15.958,46.3873,16.1191,46.5682c1.4185,1.5909,1.2839,4.0327-0.304,5.4542c-1.5891,1.4218-4.0251,1.2917-5.4497-0.2933
		c-0.739-0.8221-18.0947-20.493-18.0947-51.729c0-16.158,7.4307-33.7495,19.8782-47.0578
		c13.9062-14.8687,32.4746-23.0573,52.2842-23.0573c24.2615,0,40.6011,12.1102,50.0354,22.2692
		c12.595,13.5629,18.1847,28.9843,19.2161,38.8935C383.2897,223.7667,381.1111,235.6885,375.0657,242.3961z M387.207,171.0245
		c-0.6052,0.3472-1.2659,0.5123-1.9178,0.5123c-1.3401,0-2.6425-0.6979-3.3561-1.9437c-0.0542-0.0936-5.7826-9.9113-17.0546-19.5612
		c-14.9363-12.7867-32.0574-19.2702-50.8878-19.2702c-19.8143,0-38.0374,6.5146-54.1621,19.3632
		c-12.1456,9.6777-18.4736,19.518-18.5361,19.6161c-1.1431,1.7996-3.5298,2.3344-5.3315,1.1919
		c-1.8013-1.1418-2.3379-3.5246-1.1982-5.3268c0.2773-0.4385,6.9409-10.86,20.0127-21.3374
		c12.0873-9.6879,32.172-21.2361,59.2153-21.2361c25.9435,0,44.8501,11.5959,56.1426,21.3237
		c12.1943,10.5048,18.2534,20.9541,18.5051,21.3936C389.7,167.6019,389.0591,169.9634,387.207,171.0245z"/>
</g>
<g>
	<path class="st1" d="M176.2874,283.9083L44.1257,416.0699c-4.8848,4.8848-7.5752,11.4206-7.5752,18.403
		s2.6904,13.5182,7.5743,18.403c4.8848,4.8848,11.4205,7.5744,18.4038,7.5744c6.9824,0,13.5182-2.6896,18.4022-7.5744
		l131.2075-131.2068C198.2875,311.067,186.1689,298.314,176.2874,283.9083z"/>
</g>
<g>
	<path class="st0" d="M311.6575,27.2857c-90.4604,0-164.0552,73.5948-164.0552,164.0544c0,29.825,8.0034,57.8141,21.97,81.9393
		L35.4539,407.3988c-7.2014,7.1996-11.1675,16.8152-11.1675,27.074s3.9661,19.8744,11.1665,27.074
		c7.2014,7.2014,16.8169,11.1674,27.0758,11.1674s19.8744-3.966,27.075-11.1674l132.6925-132.6917
		c25.7273,16.7758,56.4233,26.541,89.3613,26.541c90.4613,0,164.0562-73.5948,164.0562-164.0561
		C475.7136,100.8805,402.1188,27.2857,311.6575,27.2857z M80.9309,452.8758c-4.884,4.8848-11.4198,7.5744-18.4022,7.5744
		c-6.9833,0-13.519-2.6896-18.4038-7.5744c-4.8839-4.8848-7.5743-11.4206-7.5743-18.403s2.6904-13.5182,7.5752-18.403
		l132.1616-132.1616c9.8816,14.4056,22.0001,27.1586,35.8511,37.7606L80.9309,452.8758z M311.6575,343.1321
		c-83.698,0-151.7911-68.0941-151.7911-151.792S227.9595,39.5498,311.6575,39.5498s151.792,68.0923,151.792,151.7903
		S395.3555,343.1321,311.6575,343.1321z"/>
</g>
<g>
	<path class="st0" d="M311.6575,61.9256c-71.3604,0-129.4153,58.0559-129.4153,129.4145
		c0,71.3603,58.0549,129.4162,129.4153,129.4162s129.4163-58.0559,129.4163-129.4162
		C441.0737,119.9815,383.0178,61.9256,311.6575,61.9256z M311.6575,308.4922c-64.5977,0-117.1512-52.5535-117.1512-117.1521
		c0-64.5969,52.5536-117.1505,117.1512-117.1505c64.5986,0,117.1521,52.5535,117.1521,117.1505
		C428.8096,255.9387,376.2561,308.4922,311.6575,308.4922z"/>
</g>
<g>
	<path class="st0" d="M249.7607,135.3795c0.2319-0.2584,23.6907-25.8178,63.9749-25.8178c40.1124,0,60.7263,25.378,60.9238,25.6274
		c0.7631,0.9692,1.896,1.4756,3.0405,1.4753c0.8357,0,1.6785-0.27,2.3866-0.8272c1.6776-1.3195,1.9679-3.7493,0.6477-5.4268
		c-0.9174-1.1668-22.9866-28.578-66.9987-28.578c-43.8667,0-68.6992,27.2335-69.7346,28.3928
		c-1.4204,1.5899-1.2825,4.0269,0.3047,5.4497C245.8934,137.0987,248.3356,136.9639,249.7607,135.3795z"/>
</g>
<g>
	<path class="st0" d="M370.1333,144.3562c-11.2925-9.7278-30.1991-21.3237-56.1426-21.3237
		c-27.0433,0-47.1281,11.5482-59.2153,21.2361c-13.0718,10.4774-19.7354,20.8989-20.0127,21.3374
		c-1.1396,1.8022-0.603,4.1851,1.1982,5.3268c1.8018,1.1425,4.1885,0.6077,5.3315-1.1919
		c0.0625-0.0981,6.3905-9.9384,18.5361-19.6161c16.1248-12.8485,34.3478-19.3632,54.1621-19.3632
		c18.8304,0,35.9515,6.4835,50.8878,19.2702c11.272,9.6499,17.0004,19.4675,17.0546,19.5612
		c0.7136,1.2458,2.016,1.9437,3.3561,1.9437c0.652,0,1.3126-0.165,1.9178-0.5123c1.8521-1.0612,2.4929-3.4227,1.4314-5.2747
		C388.3867,165.3103,382.3276,154.861,370.1333,144.3562z"/>
</g>
<g>
	<path class="st0" d="M362.3252,168.0681c-9.4343-10.159-25.7739-22.2692-50.0354-22.2692
		c-19.8096,0-38.3779,8.1887-52.2842,23.0573c-12.4475,13.3083-19.8782,30.8998-19.8782,47.0578
		c0,31.236,17.3557,50.9069,18.0947,51.729c1.4246,1.5851,3.8606,1.7151,5.4497,0.2933c1.5879-1.4214,1.7224-3.8632,0.304-5.4542
		c-0.1611-0.1808-16.1191-18.406-16.1191-46.5682c0-29.4492,27.5552-62.3859,64.4331-62.3859
		c39.0344,0,59.6572,35.9134,61.5635,54.2336c1.491,14.3307-0.075,24.5179-4.5289,29.4595
		c-2.2672,2.5148-5.3591,3.7373-9.4542,3.7373c-14.4868,0-19.7451-11.952-19.7451-19.9856c0-6.4659-2.6858-14.1389-7.0095-20.025
		c-5.4689-7.4442-13.0896-11.5441-21.4578-11.5441c-18.8557,0-27.4441,18.3628-27.4441,35.4238
		c0,16.7375,20.4807,47.9186,47.6942,55.0526c0.3287,0.0861,0.6581,0.1273,0.9825,0.1273c1.7141,0,3.2808-1.1497,3.7357-2.8858
		c0.5414-2.0644-0.6937-4.1768-2.7584-4.7182c-22.7383-5.9606-41.9248-33.4623-41.9248-47.5759
		c0-13.7852,6.0961-27.6946,19.7148-27.6946c13.6154,0,20.738,15.5202,20.738,23.8399c0,13.4356,9.6293,27.7148,27.4744,27.7148
		c6.3197,0,11.4325-2.1169,15.1956-6.2917c6.0454-6.7075,8.224-18.6293,6.4756-35.4344
		C380.5099,197.0524,374.9202,181.631,362.3252,168.0681z"/>
</g>
<g>
	<path class="st0" d="M354.4614,259.9793c-15.7981-2.5413-27.2169-11.1293-33.9409-25.5252
		c-5.1587-11.0463-5.5251-21.5542-5.5278-21.6592c-0.0583-2.0959-1.7759-3.7569-3.8613-3.7569
		c-0.0342,0-0.0686,0.0004-0.1035,0.0014c-2.1333,0.0559-3.818,1.8311-3.7617,3.9648c0.0125,0.4834,0.3774,11.9901,6.129,24.4568
		c5.3976,11.6988,16.6908,26.4258,39.8387,30.1494c0.208,0.0336,0.4138,0.0497,0.6183,0.0497c1.8636,0,3.505-1.3522,3.8112-3.2515
		C358.0022,262.3013,356.5681,260.3183,354.4614,259.9793z"/>
</g>
<g>
	<path class="st0" d="M269.7192,218.6241c0-24.2822,22.6538-43.8358,41.4102-43.8358c18.0837,0,43.551,14.6652,43.551,47.2687
		c0,2.1344,1.7305,3.8646,3.8645,3.8646c2.1342,0,3.8647-1.7302,3.8647-3.8646c0-37.9349-29.9872-54.998-51.2803-54.998
		c-11.1746,0-23.5508,5.6346-33.106,15.0728c-10.3394,10.2129-16.0334,23.1726-16.0334,36.4922
		c0,27.6043,30.1333,59.6696,31.4158,61.0211c0.7596,0.8008,1.7808,1.2042,2.8038,1.2042c0.9552,0,1.9125-0.352,2.6597-1.0615
		c1.548-1.4695,1.6118-3.9154,0.1427-5.4634C298.719,274.0156,269.7192,243.178,269.7192,218.6241z"/>
</g>
</svg>
