<?xml version="1.0" encoding="utf-8"?>
<!-- Generator: Adobe Illustrator 27.8.1, SVG Export Plug-In . SVG Version: 6.00 Build 0)  -->
<!DOCTYPE svg PUBLIC "-//W3C//DTD SVG 1.1//EN" "http://www.w3.org/Graphics/SVG/1.1/DTD/svg11.dtd" [
	<!ENTITY ns_extend "http://ns.adobe.com/Extensibility/1.0/">
	<!ENTITY ns_ai "http://ns.adobe.com/AdobeIllustrator/10.0/">
	<!ENTITY ns_graphs "http://ns.adobe.com/Graphs/1.0/">
	<!ENTITY ns_vars "http://ns.adobe.com/Variables/1.0/">
	<!ENTITY ns_imrep "http://ns.adobe.com/ImageReplacement/1.0/">
	<!ENTITY ns_sfw "http://ns.adobe.com/SaveForWeb/1.0/">
	<!ENTITY ns_custom "http://ns.adobe.com/GenericCustomNamespace/1.0/">
	<!ENTITY ns_adobe_xpath "http://ns.adobe.com/XPath/1.0/">
]>
<svg version="1.1" id="Layer_1" xmlns:x="&ns_extend;" xmlns:i="&ns_ai;" xmlns:graph="&ns_graphs;"
	 xmlns="http://www.w3.org/2000/svg" xmlns:xlink="http://www.w3.org/1999/xlink" x="0px" y="0px" width="500px" height="500px"
	 viewBox="0 0 500 500" style="enable-background:new 0 0 500 500;" xml:space="preserve">
<style type="text/css">
	.st0{fill:#FF6600;}
	.st1{fill:#FFFFFF;}
</style>
<metadata>
	<sfw  xmlns="&ns_sfw;">
		<slices></slices>
		<sliceSourceBounds  bottomLeftOrigin="true" height="500" width="500" x="1040" y="-500"></sliceSourceBounds>
	</sfw>
</metadata>
<path class="st0" d="M0,0v500h500V0H0z M476.8286,342.6566c0,5.8615-4.7654,10.6299-10.6221,10.6299h-10.1412
	c-1.0026,3.0156-2.1002,5.844-3.3107,8.5312l7.6699,7.6699c4.1941,4.2101,4.1941,10.7949,0.0095,15.0002l-28.9597,29.4531
	c-1.967,2.0336-4.6575,3.1742-7.5447,3.1742c-0.0078,0-0.0159,0-0.0237,0c-2.8982-0.0063-5.7124-1.2151-7.7222-3.3138
	l-6.5103-6.8466c-3.5406,1.7767-7.2146,3.3265-10.9884,4.6337v9.5338c0,5.8598-4.7638,10.6283-10.6204,10.6283h-15.1445
	c-0.4664,0-0.9296-0.0302-1.3865-0.0889c-0.4584,0.0587-0.9216,0.0889-1.3864,0.0889h-15.1462
	c-5.8567,0-10.6204-4.7685-10.6204-10.6283v-9.5338c-3.7738-1.3071-7.4492-2.857-10.99-4.6337l-6.5039,6.8339
	c-2.0256,2.1146-4.8445,3.3217-7.7444,3.3265c-0.0046,0-0.0095,0-0.0127,0c-2.8918,0-5.5837-1.1437-7.5809-3.2186l-17.2094-17.497
	H64.7471c-22.9253,0-41.5757-18.6503-41.5757-41.5741V109.8238c0-22.9238,18.6504-41.5741,41.5757-41.5741h334.1174
	c22.9238,0,41.574,18.6503,41.574,41.5741v133.5074l19.9431,20.2745c4.0785,4.0784,4.1182,10.6283,0.0571,14.8765l-7.7903,7.7856
	c1.2405,2.7745,2.3525,5.6203,3.3264,8.5169h10.1477c5.9026,0,10.7061,4.8018,10.7061,10.7045V342.6566z"/>
<g>
	<g>
		<path class="st0" d="M466.1226,294.785h-10.1477c-0.9739-2.8966-2.0859-5.7424-3.3264-8.5169l7.7903-7.7856
			c4.061-4.2482,4.0214-10.798-0.0571-14.8765l-19.9431-20.2745V109.824c0-22.9238-18.6501-41.5741-41.574-41.5741H64.7471
			c-22.9253,0-41.5757,18.6503-41.5757,41.5741v245.0014c0,22.9238,18.6504,41.5741,41.5757,41.5741h229.5925l17.2094,17.497
			c1.9972,2.0749,4.6891,3.2186,7.5809,3.2186c0.0032,0,0.0081,0,0.0127,0c2.8999-0.0048,5.7188-1.2119,7.7444-3.3265l6.5039-6.8339
			c3.5408,1.7767,7.2162,3.3265,10.99,4.6337v9.5338c0,5.8598,4.7637,10.6283,10.6204,10.6283h15.1462
			c0.4647,0,0.928-0.0302,1.3864-0.0889c0.4569,0.0587,0.92,0.0889,1.3865,0.0889h15.1445c5.8566,0,10.6204-4.7685,10.6204-10.6283
			v-9.5338c3.7738-1.3071,7.4478-2.857,10.9884-4.6337l6.5103,6.8466c2.0098,2.0987,4.824,3.3074,7.7222,3.3138
			c0.0078,0,0.0159,0,0.0237,0c2.8872,0,5.5776-1.1406,7.5447-3.1742l28.9597-29.4531c4.1846-4.2053,4.1846-10.7901-0.0095-15.0002
			l-7.6699-7.6699c1.2104-2.6872,2.3081-5.5156,3.3107-8.5312h10.1412c5.8567,0,10.6221-4.7684,10.6221-10.6299v-37.1673
			C476.8286,299.5868,472.0251,294.785,466.1226,294.785z M34.5421,109.824c0-16.6547,13.5503-30.2034,30.205-30.2034h334.1174
			c16.6547,0,30.2034,13.5487,30.2034,30.2034v38.5823H34.5421V109.824z M282.6003,384.4641l0.5554,0.5647H64.7471
			c-16.6547,0-30.205-13.5487-30.205-30.2034V159.777h394.5258v72.6065c-1.6227-0.9058-3.4766-1.3964-5.3586-1.4048
			c-2.9014,0.027-5.6013,1.1929-7.6143,3.2947l-6.5277,6.8593c-3.6168-1.7957-7.2827-3.3472-10.9583-4.6368v-9.4798
			c0-5.8566-4.7684-10.6204-10.6283-10.6204h-15.1461c-0.4379,0-0.874,0.027-1.3055,0.0809
			c-0.4314-0.054-0.8677-0.0809-1.3055-0.0809h-15.1366c-5.8613,0-10.6299,4.7637-10.6299,10.6204v9.4798
			c-3.6819,1.2913-7.3478,2.8411-10.9646,4.6353l-6.5325-6.8704c-2.0002-2.0892-4.6986-3.2535-7.5984-3.282
			c-2.8396-0.0476-5.6536,1.1104-7.6841,3.152l-28.9565,29.4404c-4.126,4.1212-4.1609,10.6758-0.0017,15.0034l7.6953,7.6952
			c-1.2405,2.7808-2.351,5.6266-3.3218,8.5153h-10.1572c-5.9026,0-10.7061,4.8018-10.7061,10.7045v37.1673
			c0,5.8615,4.7686,10.6299,10.6299,10.6299h10.1414c1.0026,3.014,2.1003,5.844,3.3091,8.5296l-7.6841,7.6794
			C278.4395,373.6978,278.4395,380.2826,282.6003,384.4641z M465.4579,341.916h-13.582c-2.5317,0-4.7589,1.6751-5.4617,4.1069
			c-1.5625,5.4062-3.3883,10.1001-5.5839,14.3514c-1.1357,2.1987-0.7185,4.8795,1.0311,6.6292l9.9922,9.9938l-27.9492,28.4236
			l-8.9691-9.4338c-1.7988-1.8925-4.6558-2.3128-6.921-1.0295c-5.276,2.987-10.714,5.2888-16.6246,7.0337
			c-2.4159,0.7123-4.0752,2.9331-4.0752,5.4521v12.9364h-14.3005c-0.9678-0.2601-1.9861-0.2601-2.9539,0h-14.3085v-12.9364
			c0-2.519-1.6593-4.7383-4.0753-5.4521c-5.9089-1.7449-11.3468-4.0467-16.626-7.0337c-2.2654-1.2817-5.1191-0.8598-6.918,1.0279
			l-8.9753,9.4307l-18.2563-18.5608c-0.084-0.0908-0.17-0.1791-0.2598-0.2642l-9.4364-9.5938l9.9985-9.9922
			c1.7513-1.7497,2.1686-4.4305,1.0327-6.6308c-2.1954-4.2513-4.0214-8.9452-5.5839-14.3514
			c-0.7026-2.4318-2.9299-4.1069-5.4617-4.1069h-13.5898v-35.7603h13.6755c2.5365,0,4.7668-1.6799,5.4648-4.1196
			c1.4229-4.9604,3.3091-9.8129,5.6091-14.418c1.0916-2.1891,0.6616-4.8303-1.0675-6.5594l-9.989-9.989l27.954-28.4204l8.958,9.4243
			c1.7814,1.8734,4.6002,2.3113,6.8639,1.0628c5.4775-3.0156,11.0947-5.3918,16.6976-7.0607
			c2.4095-0.7186,4.0609-2.9347,4.0609-5.449v-12.8602h14.2911c0.9263,0.2379,1.894,0.2379,2.8204,0h14.299v12.8602
			c0,2.5143,1.6514,4.7304,4.061,5.449c5.5901,1.6656,11.2057,4.0419,16.6896,7.0607c2.2621,1.2469,5.0809,0.8106,6.8608-1.0596
			l8.9706-9.4259l6.8788,6.9932c0.0203,0.0206,0.0402,0.0414,0.0607,0.0617l21.0146,21.364l-9.9971,9.9874
			c-1.7339,1.7307-2.1621,4.3782-1.0645,6.5689c2.2954,4.5813,4.1848,9.4307,5.614,14.4117c0.6996,2.4382,2.9283,4.118,5.4648,4.118
			h13.6661V341.916z"/>
		<path class="st1" d="M388.0645,438.2502h-15.1445c-0.4609,0-0.9248-0.0186-1.3867-0.0557
			c-0.4629,0.0371-0.9268,0.0557-1.3857,0.0557H355.001c-9.4404,0-17.1201-7.6836-17.1201-17.1279v-5.0244
			c-1.0117-0.4062-2.0166-0.8281-3.0127-1.2666l-3.2734,3.4385c-3.25,3.3945-7.7803,5.3379-12.4414,5.3457
			c-4.6963,0-9.0518-1.8506-12.2871-5.21l-15.25-15.5059H64.7471c-26.5088,0-48.0752-21.5664-48.0752-48.0742V109.824
			c0-26.5083,21.5664-48.0742,48.0752-48.0742h334.1172c26.5078,0,48.0742,21.5659,48.0742,48.0742v130.8462l18.0771,18.377
			c6.5752,6.5771,6.6455,17.1035,0.1211,23.9277l-0.1035,0.1055l-4.7002,4.6973c0.0664,0.1689,0.1328,0.3379,0.1982,0.5078h5.5918
			c9.4873,0,17.2051,7.7178,17.2051,17.2041v37.167c0,9.4453-7.6807,17.1299-17.1211,17.1299h-5.5654
			c-0.0674,0.1748-0.1348,0.3486-0.2031,0.5225l4.583,4.583c6.7607,6.7852,6.7646,17.4033,0.0186,24.1816l-28.9307,29.4248
			c-3.1768,3.2861-7.5156,5.1172-12.1797,5.1172c-4.6934-0.0107-9.2139-1.9492-12.4404-5.3184l-3.2949-3.4648
			c-0.9951,0.4375-1.999,0.8604-3.0088,1.2646v5.0254C405.1855,430.5667,397.5049,438.2502,388.0645,438.2502z M373.709,413.8801
			h7.1055v-6.4365c0-5.3652,3.5928-10.1709,8.7383-11.6875c5.4229-1.6006,10.415-3.7129,15.2598-6.4551
			c4.8721-2.7617,10.9736-1.8525,14.833,2.2061l4.3379,4.5635l18.7168-19.0352l-5.4355-5.4365
			c-3.7666-3.7646-4.6553-9.4746-2.209-14.208c1.9971-3.8682,3.6699-8.1768,5.1143-13.1729
			c1.498-5.1826,6.3115-8.8018,11.7061-8.8018h7.082v-22.7607h-7.166c-5.4062,0-10.2227-3.6299-11.7129-8.8262
			c-1.3184-4.5938-3.0605-9.0664-5.1777-13.292c-2.3584-4.7061-1.4404-10.3652,2.2852-14.082l5.4307-5.4258l-18.7197-19.0312
			l-4.3398,4.5596c-3.8125,4.0068-9.8594,4.9443-14.707,2.2705c-5.0771-2.7949-10.2627-4.9902-15.4082-6.5234
			c-5.125-1.5283-8.7041-6.3306-8.7041-11.6782v-6.3604h-7.1367c-1.3701,0.2368-2.7754,0.2368-4.1455,0h-7.1279v6.3604
			c0,5.3486-3.5801,10.1504-8.7051,11.6782c-5.1553,1.5352-10.3428,3.7305-15.4189,6.5254
			c-4.8418,2.6719-10.8916,1.7363-14.709-2.2773l-4.3281-4.5527l-18.7197,19.0312l5.4316,5.4316
			c3.71,3.708,4.6309,9.3574,2.2871,14.0557c-2.1191,4.2441-3.8604,8.7207-5.1777,13.3105
			c-1.4844,5.1943-6.3018,8.8262-11.7129,8.8262h-7.1748v22.7607h7.0898c5.3936,0,10.208,3.6191,11.7061,8.8008
			c1.4453,5,3.1182,9.3086,5.1143,13.1748c2.4443,4.7354,1.5547,10.4453-2.2129,14.2109l-5.4375,5.4336l4.8496,4.9307
			c0.1309,0.1279,0.2588,0.2578,0.3838,0.3906l13.4863,13.7109l4.3447-4.5645c3.8613-4.0537,9.959-4.958,14.8252-2.2051
			c4.8477,2.7441,9.8408,4.8564,15.2666,6.459c5.1436,1.5195,8.7354,6.3242,8.7354,11.6855v6.4365h7.1133
			C370.7969,413.6204,372.2715,413.6194,373.709,413.8801z M41.042,166.2771v188.5483c0,13.0703,10.6338,23.7031,23.7051,23.7031
			h208.2754c-0.4424-4.8438,1.2236-9.832,4.999-13.6211l4.6064-4.6035c-0.0674-0.1719-0.1348-0.3447-0.2012-0.5176h-5.5674
			c-9.4453,0-17.1299-7.6846-17.1299-17.1299v-37.167c0-9.4863,7.7188-17.2041,17.2061-17.2041h5.5996
			c0.0654-0.1689,0.1309-0.3369,0.1973-0.5049l-4.7002-4.7021c-6.6016-6.8701-6.5605-17.458,0.0947-24.1055l28.917-29.4004
			c3.3057-3.3237,7.8252-5.1685,12.4268-5.0928c4.6211,0.0449,8.9648,1.9224,12.1846,5.2866l3.3232,3.4946
			c0.9902-0.4365,1.9834-0.856,2.9785-1.2578v-4.9873c0-9.4399,7.6846-17.1201,17.1299-17.1201h15.1367
			c0.4355,0,0.8721,0.0166,1.3057,0.0498c0.4336-0.0332,0.8701-0.0498,1.3057-0.0498h15.1455
			c9.4453,0,17.1289,7.6802,17.1289,17.1201v4.9888c0.9932,0.4014,1.9854,0.8208,2.9756,1.2573l3.3008-3.4692
			c2.9932-3.1255,6.9268-4.9692,11.1826-5.2705v-58.2451H41.042z M431.4902,241.1785l2.4482,2.4893v-1.1226L431.4902,241.1785z
			 M41.042,141.9065h381.5264V109.824c0-13.0703-10.6338-23.7036-23.7041-23.7036H64.7471
			c-13.0713,0-23.7051,10.6333-23.7051,23.7036V141.9065z"/>
	</g>
	<g>
		<path class="st1" d="M300.6409,386.5911l0.2598,0.2642C300.8167,386.7646,300.7306,386.6762,300.6409,386.5911z"/>
	</g>
	<g>
		<path class="st1" d="M379.6129,111.9703c-2.3097,0-4.1879,1.8782-4.1879,4.1879c0,2.3096,1.8782,4.1879,4.1879,4.1879
			c2.3081,0,4.1863-1.8782,4.1863-4.1879C383.7992,113.8485,381.921,111.9703,379.6129,111.9703z"/>
	</g>
	<g>
		<path class="st1" d="M429.0679,109.824c0-16.6547-13.5487-30.2034-30.2034-30.2034H64.7471
			c-16.6547,0-30.205,13.5487-30.205,30.2034v38.5823h394.5258V109.824z M198.1592,121.8436H77.0269
			c-3.1394,0-5.6854-2.5461-5.6854-5.6854c0-3.1393,2.546-5.6854,5.6854-5.6854h121.1323c3.1394,0,5.6854,2.546,5.6854,5.6854
			C203.8446,119.2975,201.2986,121.8436,198.1592,121.8436z M294.6516,131.7167c-8.5789,0-15.557-6.9797-15.557-15.5585
			s6.9781-15.5586,15.557-15.5586c8.5787,0,15.5586,6.9798,15.5586,15.5586S303.2303,131.7167,294.6516,131.7167z
			 M335.4436,131.7167c-8.5789,0-15.5586-6.9797-15.5586-15.5585s6.9797-15.5586,15.5586-15.5586s15.5586,6.9798,15.5586,15.5586
			S344.0225,131.7167,335.4436,131.7167z M379.6129,131.7167c-8.5787,0-15.5585-6.9797-15.5585-15.5585
			s6.9797-15.5586,15.5585-15.5586s15.557,6.9798,15.557,15.5586S388.1917,131.7167,379.6129,131.7167z"/>
	</g>
	<g>
		<path class="st1" d="M446.3269,302.0377c-1.4292-4.981-3.3186-9.8304-5.614-14.4117c-1.0977-2.1907-0.6694-4.8383,1.0645-6.5689
			l9.9971-9.9874l-21.0146-21.364c-0.0205-0.0203-0.0404-0.0411-0.0607-0.0617l-6.8788-6.9932l-8.9706,9.4259
			c-1.7799,1.8702-4.5988,2.3065-6.8608,1.0596c-5.4839-3.0187-11.0995-5.395-16.6896-7.0607
			c-2.4097-0.7186-4.061-2.9347-4.061-5.449v-12.8602h-14.299c-0.9264,0.2379-1.8942,0.2379-2.8204,0h-14.2911v12.8602
			c0,2.5143-1.6514,4.7304-4.0609,5.449c-5.6029,1.6688-11.2201,4.0451-16.6976,7.0607c-2.2637,1.2485-5.0825,0.8106-6.8639-1.0628
			l-8.958-9.4243l-27.954,28.4204l9.989,9.989c1.7291,1.7291,2.1591,4.3703,1.0675,6.5594c-2.3,4.6051-4.1863,9.4576-5.6091,14.418
			c-0.698,2.4398-2.9283,4.1196-5.4648,4.1196h-13.6755v35.7603h13.5898c2.5317,0,4.759,1.6751,5.4617,4.1069
			c1.5625,5.4062,3.3884,10.1001,5.5839,14.3514c1.1359,2.2003,0.7186,4.8811-1.0327,6.6308l-9.9985,9.9922l9.4364,9.5938
			c0.0897,0.0851,0.1758,0.1735,0.2598,0.2642l18.2563,18.5608l8.9753-9.4307c1.7988-1.8877,4.6526-2.3096,6.918-1.0279
			c5.2792,2.987,10.717,5.2888,16.626,7.0337c2.416,0.7139,4.0753,2.9331,4.0753,5.4521v12.9364h14.3085
			c0.9678-0.2601,1.9861-0.2601,2.9539,0h14.3005v-12.9364c0-2.519,1.6593-4.7399,4.0752-5.4521
			c5.9106-1.7449,11.3486-4.0467,16.6246-7.0337c2.2653-1.2833,5.1222-0.863,6.921,1.0295l8.9691,9.4338l27.9492-28.4236
			l-9.9922-9.9938c-1.7496-1.7497-2.1669-4.4305-1.0311-6.6292c2.1956-4.2513,4.0214-8.9452,5.5839-14.3514
			c0.7028-2.4318,2.9299-4.1069,5.4617-4.1069h13.582v-35.7603h-13.6661C449.2552,306.1557,447.0265,304.4758,446.3269,302.0377z
			 M371.9399,378.076c-0.1365,0.0095-0.2744,0.0143-0.4109,0.0143s-0.2744-0.0048-0.4109-0.0143
			c-28.1174-2.0368-50.1417-25.7395-50.1417-53.9648c0-28.2189,22.0243-51.9185,50.1417-53.9553c0.2729-0.019,0.5488-0.019,0.8218,0
			c28.1206,2.0352,50.1497,25.7347,50.1497,53.9553C422.0896,352.3365,400.0605,376.0408,371.9399,378.076z"/>
	</g>
	<g>
		<path class="st1" d="M371.5291,281.5298c-22.0054,1.8052-39.1819,20.4302-39.1819,42.5814
			c0,22.1561,17.1765,40.7857,39.1819,42.5909c22.0101-1.8052,39.1899-20.4349,39.1899-42.5909
			C410.719,301.96,393.5392,283.335,371.5291,281.5298z"/>
	</g>
	<g>
		<path class="st1" d="M290.3098,361.8163c-1.2087-2.6856-2.3065-5.5156-3.3091-8.5296h-10.1414
			c-5.8613,0-10.6299-4.7684-10.6299-10.6299v-37.1673c0-5.9027,4.8035-10.7045,10.7061-10.7045h10.1572
			c0.9708-2.8887,2.0813-5.7345,3.3218-8.5153l-7.6953-7.6952c-4.1592-4.3275-4.1243-10.8821,0.0017-15.0034l28.9565-29.4404
			c2.0305-2.0416,4.8445-3.1996,7.6841-3.152c2.8998,0.0286,5.5981,1.1929,7.5984,3.282l6.5325,6.8704
			c3.6168-1.7941,7.2827-3.344,10.9646-4.6353v-9.4798c0-5.8566,4.7686-10.6204,10.6299-10.6204h15.1366
			c0.4379,0,0.8741,0.027,1.3055,0.0809c0.4315-0.054,0.8677-0.0809,1.3055-0.0809h15.1461c5.8599,0,10.6283,4.7637,10.6283,10.6204
			v9.4798c3.6755,1.2897,7.3414,2.8411,10.9583,4.6368l6.5277-6.8593c2.0129-2.1019,4.7129-3.2678,7.6143-3.2947
			c1.8821,0.0084,3.736,0.499,5.3586,1.4048V159.777H34.5421v195.0484c0,16.6547,13.5503,30.2034,30.205,30.2034h218.4087
			l-0.5554-0.5647c-4.1609-4.1815-4.1609-10.7663,0.0254-14.9684L290.3098,361.8163z"/>
	</g>
	<g>
		<circle class="st1" cx="335.4436" cy="116.1582" r="4.1879"/>
	</g>
	<g>
		<path class="st1" d="M294.6516,111.9703c-2.3081,0-4.1863,1.8782-4.1863,4.1879c0,2.3096,1.8782,4.1879,4.1863,4.1879
			c2.3096,0,4.1877-1.8782,4.1877-4.1879C298.8394,113.8485,296.9612,111.9703,294.6516,111.9703z"/>
	</g>
	<g>
		<path class="st0" d="M466.1226,294.785h-10.1477c-0.9739-2.8966-2.0859-5.7424-3.3264-8.5169l7.7903-7.7856
			c4.061-4.2482,4.0214-10.798-0.0571-14.8765l-19.9431-20.2745V109.824c0-22.9238-18.6501-41.5741-41.574-41.5741H64.7471
			c-22.9253,0-41.5757,18.6503-41.5757,41.5741v245.0014c0,22.9238,18.6504,41.5741,41.5757,41.5741h229.5925l17.2094,17.497
			c1.9972,2.0749,4.6891,3.2186,7.5809,3.2186c0.0032,0,0.0081,0,0.0127,0c2.8999-0.0048,5.7188-1.2119,7.7444-3.3265l6.5039-6.8339
			c3.5408,1.7767,7.2162,3.3265,10.99,4.6337v9.5338c0,5.8598,4.7637,10.6283,10.6204,10.6283h15.1462
			c0.4647,0,0.928-0.0302,1.3864-0.0889c0.4569,0.0587,0.92,0.0889,1.3865,0.0889h15.1445c5.8566,0,10.6204-4.7685,10.6204-10.6283
			v-9.5338c3.7738-1.3071,7.4478-2.857,10.9884-4.6337l6.5103,6.8466c2.0098,2.0987,4.824,3.3074,7.7222,3.3138
			c0.0078,0,0.0159,0,0.0237,0c2.8872,0,5.5776-1.1406,7.5447-3.1742l28.9597-29.4531c4.1846-4.2053,4.1846-10.7901-0.0095-15.0002
			l-7.6699-7.6699c1.2104-2.6872,2.3081-5.5156,3.3107-8.5312h10.1412c5.8567,0,10.6221-4.7684,10.6221-10.6299v-37.1673
			C476.8286,299.5868,472.0251,294.785,466.1226,294.785z M34.5421,109.824c0-16.6547,13.5503-30.2034,30.205-30.2034h334.1174
			c16.6547,0,30.2034,13.5487,30.2034,30.2034v38.5823H34.5421V109.824z M282.6003,384.4641l0.5554,0.5647H64.7471
			c-16.6547,0-30.205-13.5487-30.205-30.2034V159.777h394.5258v72.6065c-1.6227-0.9058-3.4766-1.3964-5.3586-1.4048
			c-2.9014,0.027-5.6013,1.1929-7.6143,3.2947l-6.5277,6.8593c-3.6168-1.7957-7.2827-3.3472-10.9583-4.6368v-9.4798
			c0-5.8566-4.7684-10.6204-10.6283-10.6204h-15.1461c-0.4379,0-0.874,0.027-1.3055,0.0809
			c-0.4314-0.054-0.8677-0.0809-1.3055-0.0809h-15.1366c-5.8613,0-10.6299,4.7637-10.6299,10.6204v9.4798
			c-3.6819,1.2913-7.3478,2.8411-10.9646,4.6353l-6.5325-6.8704c-2.0002-2.0892-4.6986-3.2535-7.5984-3.282
			c-2.8396-0.0476-5.6536,1.1104-7.6841,3.152l-28.9565,29.4404c-4.126,4.1212-4.1609,10.6758-0.0017,15.0034l7.6953,7.6952
			c-1.2405,2.7808-2.351,5.6266-3.3218,8.5153h-10.1572c-5.9026,0-10.7061,4.8018-10.7061,10.7045v37.1673
			c0,5.8615,4.7686,10.6299,10.6299,10.6299h10.1414c1.0026,3.014,2.1003,5.844,3.3091,8.5296l-7.6841,7.6794
			C278.4395,373.6978,278.4395,380.2826,282.6003,384.4641z M465.4579,341.916h-13.582c-2.5317,0-4.7589,1.6751-5.4617,4.1069
			c-1.5625,5.4062-3.3883,10.1001-5.5839,14.3514c-1.1357,2.1987-0.7185,4.8795,1.0311,6.6292l9.9922,9.9938l-27.9492,28.4236
			l-8.9691-9.4338c-1.7988-1.8925-4.6558-2.3128-6.921-1.0295c-5.276,2.987-10.714,5.2888-16.6246,7.0337
			c-2.4159,0.7123-4.0752,2.9331-4.0752,5.4521v12.9364h-14.3005c-0.9678-0.2601-1.9861-0.2601-2.9539,0h-14.3085v-12.9364
			c0-2.519-1.6593-4.7383-4.0753-5.4521c-5.9089-1.7449-11.3468-4.0467-16.626-7.0337c-2.2654-1.2817-5.1191-0.8598-6.918,1.0279
			l-8.9753,9.4307l-18.2563-18.5608c-0.084-0.0908-0.17-0.1791-0.2598-0.2642l-9.4364-9.5938l9.9985-9.9922
			c1.7513-1.7497,2.1686-4.4305,1.0327-6.6308c-2.1954-4.2513-4.0214-8.9452-5.5839-14.3514
			c-0.7026-2.4318-2.9299-4.1069-5.4617-4.1069h-13.5898v-35.7603h13.6755c2.5365,0,4.7668-1.6799,5.4648-4.1196
			c1.4229-4.9604,3.3091-9.8129,5.6091-14.418c1.0916-2.1891,0.6616-4.8303-1.0675-6.5594l-9.989-9.989l27.954-28.4204l8.958,9.4243
			c1.7814,1.8734,4.6002,2.3113,6.8639,1.0628c5.4775-3.0156,11.0947-5.3918,16.6976-7.0607
			c2.4095-0.7186,4.0609-2.9347,4.0609-5.449v-12.8602h14.2911c0.9263,0.2379,1.894,0.2379,2.8204,0h14.299v12.8602
			c0,2.5143,1.6514,4.7304,4.061,5.449c5.5901,1.6656,11.2057,4.0419,16.6896,7.0607c2.2621,1.2469,5.0809,0.8106,6.8608-1.0596
			l8.9706-9.4259l6.8788,6.9932c0.0203,0.0206,0.0402,0.0414,0.0607,0.0617l21.0146,21.364l-9.9971,9.9874
			c-1.7339,1.7307-2.1621,4.3782-1.0645,6.5689c2.2954,4.5813,4.1848,9.4307,5.614,14.4117c0.6996,2.4382,2.9283,4.118,5.4648,4.118
			h13.6661V341.916z"/>
	</g>
	<g>
		<path class="st0" d="M371.9399,270.1559c-0.2729-0.019-0.5488-0.019-0.8218,0c-28.1174,2.0368-50.1417,25.7363-50.1417,53.9553
			c0,28.2253,22.0243,51.928,50.1417,53.9648c0.1365,0.0095,0.2744,0.0143,0.4109,0.0143s0.2744-0.0048,0.4109-0.0143
			c28.1206-2.0352,50.1497-25.7395,50.1497-53.9648C422.0896,295.8907,400.0605,272.1912,371.9399,270.1559z M371.5291,366.7021
			c-22.0054-1.8052-39.1819-20.4349-39.1819-42.5909c0-22.1512,17.1765-40.7762,39.1819-42.5814
			c22.0101,1.8052,39.1899,20.4302,39.1899,42.5814C410.719,346.2673,393.5392,364.8969,371.5291,366.7021z"/>
	</g>
	<g>
		<path class="st0" d="M294.6516,100.5996c-8.5789,0-15.557,6.9798-15.557,15.5586s6.9781,15.5585,15.557,15.5585
			c8.5787,0,15.5586-6.9797,15.5586-15.5585S303.2303,100.5996,294.6516,100.5996z M294.6516,120.3461
			c-2.3081,0-4.1863-1.8782-4.1863-4.1879c0-2.3097,1.8782-4.1879,4.1863-4.1879c2.3096,0,4.1877,1.8782,4.1877,4.1879
			C298.8394,118.4678,296.9612,120.3461,294.6516,120.3461z"/>
	</g>
	<g>
		<path class="st0" d="M335.4436,100.5996c-8.5789,0-15.5586,6.9798-15.5586,15.5586s6.9797,15.5585,15.5586,15.5585
			s15.5586-6.9797,15.5586-15.5585S344.0225,100.5996,335.4436,100.5996z M335.4436,120.3461c-2.3097,0-4.1879-1.8782-4.1879-4.1879
			c0-2.3097,1.8782-4.1879,4.1879-4.1879s4.1879,1.8782,4.1879,4.1879C339.6315,118.4678,337.7533,120.3461,335.4436,120.3461z"/>
	</g>
	<g>
		<path class="st0" d="M379.6129,100.5996c-8.5787,0-15.5585,6.9798-15.5585,15.5586s6.9797,15.5585,15.5585,15.5585
			s15.557-6.9797,15.557-15.5585S388.1917,100.5996,379.6129,100.5996z M379.6129,120.3461c-2.3097,0-4.1879-1.8782-4.1879-4.1879
			c0-2.3097,1.8782-4.1879,4.1879-4.1879c2.3081,0,4.1863,1.8782,4.1863,4.1879
			C383.7992,118.4678,381.921,120.3461,379.6129,120.3461z"/>
	</g>
	<g>
		<path class="st0" d="M198.1592,110.4728H77.0269c-3.1394,0-5.6854,2.546-5.6854,5.6854c0,3.1393,2.546,5.6854,5.6854,5.6854
			h121.1323c3.1394,0,5.6854-2.5461,5.6854-5.6854C203.8446,113.0189,201.2986,110.4728,198.1592,110.4728z"/>
	</g>
</g>
</svg>
