<?xml version="1.0" encoding="utf-8"?>
<!-- Generator: Adobe Illustrator 27.8.1, SVG Export Plug-In . SVG Version: 6.00 Build 0)  -->
<!DOCTYPE svg PUBLIC "-//W3C//DTD SVG 1.1//EN" "http://www.w3.org/Graphics/SVG/1.1/DTD/svg11.dtd" [
	<!ENTITY ns_extend "http://ns.adobe.com/Extensibility/1.0/">
	<!ENTITY ns_ai "http://ns.adobe.com/AdobeIllustrator/10.0/">
	<!ENTITY ns_graphs "http://ns.adobe.com/Graphs/1.0/">
	<!ENTITY ns_vars "http://ns.adobe.com/Variables/1.0/">
	<!ENTITY ns_imrep "http://ns.adobe.com/ImageReplacement/1.0/">
	<!ENTITY ns_sfw "http://ns.adobe.com/SaveForWeb/1.0/">
	<!ENTITY ns_custom "http://ns.adobe.com/GenericCustomNamespace/1.0/">
	<!ENTITY ns_adobe_xpath "http://ns.adobe.com/XPath/1.0/">
]>
<svg version="1.1" id="Layer_1" xmlns:x="&ns_extend;" xmlns:i="&ns_ai;" xmlns:graph="&ns_graphs;"
	 xmlns="http://www.w3.org/2000/svg" xmlns:xlink="http://www.w3.org/1999/xlink" x="0px" y="0px" width="500px" height="500px"
	 viewBox="0 0 500 500" style="enable-background:new 0 0 500 500;" xml:space="preserve">
<style type="text/css">
	.st0{fill:#FF6600;}
	.st1{fill:#FFFFFF;}
</style>
<metadata>
	<sfw  xmlns="&ns_sfw;">
		<slices></slices>
		<sliceSourceBounds  bottomLeftOrigin="true" height="500" width="500" x="520" y="-500"></sliceSourceBounds>
	</sfw>
</metadata>
<path class="st0" d="M0,0v500h500V0H0z M221.3381,17c19.1298,0,37.0817,8.8669,48.7637,23.9028
	c5.0306-1.3325,10.1675-1.9711,15.3167-1.863c30.0435,0.5215,54.7089,25.4215,54.9719,55.5038
	c0.0598,12.3566-3.9435,24.4547-11.2911,34.1857l4.081,12.6823c1.0072,3.1038,0.2615,6.5242-1.9486,8.9301
	c-1.7304,1.8829-4.1602,2.9229-6.6557,2.9229c-0.6829,0-1.3703-0.0777-2.0502-0.2376l-20.7697-4.873
	c-5.4946,1.7693-11.085,2.6957-16.6199,2.7585c-14.571,0.1619-28.6944-5.4554-39.2769-15.5298
	c-7.7108,3.364-15.9587,5.074-24.5809,5.074c-6.711,0-13.1993-1.0446-19.3104-3.1082l-30.4872,7.1832
	c-0.4072,0.0971-0.8196,0.1434-1.2283,0.1434c-1.4846,0-2.9244-0.6187-3.9518-1.7408c-1.3098-1.4316-1.7424-3.4594-1.132-5.3004
	l7.1003-21.4062c-8.1844-10.6919-12.6592-23.8898-12.6592-37.4987C159.6096,44.6913,187.301,17,221.3381,17z M106.3809,133.964
	c23.1307,0,41.9488,18.8181,41.9488,41.9487s-18.8181,41.9488-41.9488,41.9488c-23.1307,0-41.9495-18.8181-41.9495-41.9488
	S83.2502,133.964,106.3809,133.964z M160.5929,466.7581c0,8.9555-7.2863,16.2419-16.2418,16.2419h-61.907
	c-8.9555,0-16.2419-7.2864-16.2419-16.2419v-54.3008c0-8.9555,7.2864-16.2418,16.2419-16.2418h61.907
	c8.9555,0,16.2418,7.2863,16.2418,16.2418V466.7581z M198.7505,445.313c0,6.8351-3.9226,12.7062-10.2369,15.3214
	c-2.116,0.8771-4.3015,1.306-6.4532,1.306c-4.2693,0-8.4071-1.6856-11.6214-4.8984c-2.769-2.7705-4.2932-6.451-4.2932-10.3661
	v-46.0582c0-5.3811-4.3776-9.758-9.7579-9.758h-51.3847c-22.3716,0-40.5717-18.1994-40.5717-40.571v-96.7965
	c0-15.6441,12.7286-28.3728,28.3743-28.3728h20.3042c15.2324,0,29.2477,7.6479,37.4911,20.4573
	c6.9778,10.8428,18.842,17.3163,31.7365,17.3163h35.9872c8.3772,0,15.1928,6.8156,15.1928,15.1928s-6.8156,15.1913-15.1928,15.1913
	h-38.5245c-13.9532,0-27.7115-3.5326-39.9299-10.2332v61.7351c0,3.0141,2.4515,5.4662,5.4648,5.4662h27.4725
	c14.3052,0,25.943,11.6378,25.943,25.9415V445.313z M265.3901,477.6443c0,2.9573-2.3984,5.3557-5.3557,5.3557h-20.0681
	c-2.9581,0-5.3557-2.3984-5.3557-5.3557V337.0849h-56.6171c-9.5345,0-17.2908-7.7571-17.2908-17.2908
	c0-9.5338,7.7563-17.2909,17.2908-17.2909h144.0135c9.5338,0,17.2909,7.7571,17.2909,17.2909
	c0,9.5338-7.7571,17.2908-17.2909,17.2908h-56.6171V477.6443z M433.7978,466.7581c0,8.9555-7.2864,16.2419-16.2419,16.2419h-61.907
	c-8.9555,0-16.2418-7.2864-16.2418-16.2419v-54.3008c0-8.9555,7.2863-16.2418,16.2418-16.2418h61.907
	c8.9555,0,16.2419,7.2863,16.2419,16.2418V466.7581z M435.5685,350.2888c0,22.3716-18.2009,40.571-40.5724,40.571h-51.384
	c-5.381,0-9.7579,4.3769-9.7579,9.758v46.0582c0,3.9136-1.5242,7.5941-4.2917,10.3632c-3.2144,3.2143-7.3536,4.9014-11.6229,4.9014
	c-2.1518,0-4.3365-0.4289-6.4525-1.306c-6.315-2.6151-10.2376-8.4863-10.2376-15.3214V376.187
	c0-14.3037,11.6378-25.9415,25.943-25.9415h27.4732c3.0126,0,5.4648-2.4521,5.4648-5.4662v-61.7351
	c-12.2191,6.7006-25.9774,10.2332-39.9314,10.2332h-38.5238c-8.3772,0-15.1928-6.8141-15.1928-15.1913
	s6.8156-15.1928,15.1928-15.1928h35.9879c12.8945,0,24.758-6.4734,31.735-17.3163c8.2442-12.8094,22.2595-20.4573,37.4911-20.4573
	h20.3049c15.6456,0,28.3743,12.7287,28.3743,28.3728V350.2888z M393.6198,217.8615c-23.1322,0-41.9503-18.8181-41.9503-41.9488
	s18.8181-41.9487,41.9503-41.9487c23.1307,0,41.9487,18.8181,41.9487,41.9487S416.7505,217.8615,393.6198,217.8615z"/>
<g>
	<path class="st1" d="M158.999,135.5874v0.0015c-1.3506,4.0737-0.3896,8.5703,2.5078,11.7349
		c2.2412,2.4478,5.4287,3.8516,8.7451,3.8516c0.9238,0,1.8447-0.1079,2.7188-0.3169l28.7305-6.769
		c6.2451,1.9033,12.8213,2.8677,19.5771,2.8677c8.0557,0,15.8604-1.3608,23.2588-4.0498
		c11.2715,9.3979,25.2881,14.5093,39.9688,14.5088c0.2334,0,0.4697-0.0015,0.7041-0.0039
		c5.5957-0.0635,11.2285-0.9136,16.7705-2.5288l19.0605,4.4722c1.1572,0.2715,2.3467,0.4092,3.5352,0.4092
		c4.3359,0,8.5059-1.8315,11.4424-5.0254c3.792-4.1284,5.0732-10.0034,3.3496-15.3188l-3.084-9.5825
		c6.9209-10.335,10.667-22.75,10.6064-35.3516c-0.2949-33.5747-27.8203-61.3633-61.335-61.9448
		c-4.3291-0.0933-8.6787,0.2891-12.999,1.1313C259.582,18.895,241.1426,10.5,221.3379,10.5
		c-37.6211,0-68.2285,30.6074-68.2285,68.229c0,13.7617,4.2197,27.3394,11.9414,38.6118L158.999,135.5874z M221.3379,34.2114
		c14.4668,0,28.0459,7.0679,36.4023,18.9253c0.0967,0.1763,0.2256,0.3926,0.3848,0.626c0.9746,1.4233,1.8691,2.9131,2.6699,4.4434
		l0.001,1.1543l1.0791,1.0786c2.6016,5.7969,3.9199,11.9458,3.9199,18.29c0,2.5923-0.2236,5.1895-0.666,7.7202
		c-0.2314,1.3286-0.5391,2.6982-0.9141,4.0674c-0.0762,0.2783-0.1543,0.5547-0.2363,0.8311
		c-2.5439,8.6519-7.5986,16.2388-14.6162,21.9414c-0.3652,0.2969-0.7363,0.5879-1.1123,0.874l-0.1582,0.1206
		c-2.0439,1.542-4.2402,2.9224-6.5234,4.1016c-6.2559,3.2251-13.083,4.8604-20.29,4.8604c-5.2393,0-10.251-0.8711-14.8955-2.5898
		c-1.3252-0.4897-2.7129-0.7368-4.1074-0.7368c-0.9102,0-1.8232,0.1055-2.7246,0.3169l-11.3662,2.6777l1.3389-4.0371
		c1.2949-3.8999,0.4473-8.2695-2.2119-11.4043c-6.7646-7.9717-10.4902-18.1797-10.4902-28.7432
		C176.8213,54.1821,196.791,34.2114,221.3379,34.2114z M285.7559,56.2637c20.5166,0.7036,37.2432,17.7993,37.4229,38.3853
		c0.0439,8.7666-2.8291,17.313-8.0889,24.0698c-3.2236,4.0112-4.2451,9.4277-2.707,14.251l-7.0684-1.6587
		c-2.8389-0.7139-5.835-0.5742-8.668,0.4067c-3.9004,1.2729-7.8389,1.9404-11.7432,1.9844l-0.4219,0.002
		c-6.0723,0-12.0674-1.4629-17.4727-4.2041c14.2666-12.8438,22.5576-31.2007,22.5576-50.7109
		C289.5664,71.104,288.2627,63.459,285.7559,56.2637z"/>
	<path class="st1" d="M187.6816,87.0449c0,6.5376,5.3184,11.856,11.8555,11.856h43.4824c6.5381,0,11.8564-5.3184,11.8564-11.856
		c0-6.5371-5.3184-11.8555-11.8564-11.8555h-13.0312c0.7517-1.5558,1.1855-3.2928,1.1855-5.1333
		c0-6.5376-5.3184-11.856-11.8555-11.856h-19.7812c-6.5371,0-11.8555,5.3184-11.8555,11.856c0,3.33,1.3848,6.3387,3.6031,8.4944
		C189.0665,80.7062,187.6816,83.7149,187.6816,87.0449z"/>
	<path class="st1" d="M414.8161,219.4687c16.1201-7.8767,27.2523-24.4388,27.2523-43.5561
		c0-26.7148-21.7334-48.4487-48.4482-48.4487c-26.7158,0-48.4502,21.7339-48.4502,48.4487c0,19.7667,11.905,36.7954,28.9167,44.3219
		c-12.2982,3.1615-23.0803,10.8337-30.1541,21.8246c-5.7754,8.9751-15.5957,14.3335-26.2695,14.3335h-35.9883
		c-11.9609,0-21.6924,9.7314-21.6924,21.6934c0,7.4355,3.7621,14.0071,9.4813,17.917h-38.9275
		c5.7192-3.9099,9.4813-10.4814,9.4813-17.917c0-11.9619-9.7314-21.6934-21.6924-21.6934h-35.9873
		c-10.6738,0-20.4951-5.3584-26.2705-14.334c-7.0737-10.9904-17.8558-18.6626-30.1537-21.8241
		c17.0114-7.5264,28.9164-24.5551,28.9164-44.3219c0-26.7148-21.7344-48.4487-48.4492-48.4487s-48.4492,21.7339-48.4492,48.4487
		c0,19.1172,11.1325,35.6793,27.2528,43.556c-15.5749,3.4868-27.2528,17.4127-27.2528,34.0236v96.7969
		c0,16.611,8.6567,31.2285,21.6878,39.6085c-11.2109,1.3961-19.9173,10.9766-19.9173,22.5595v54.3008
		c0,12.54,10.2021,22.7422,22.7422,22.7422h61.9072c12.5391,0,22.7412-10.2021,22.7412-22.7422v-3.9841
		c4.2062,3.6547,9.4525,5.6667,14.9678,5.6667c3.0498,0,6.0576-0.6055,8.9404-1.8008c8.79-3.6396,14.25-11.8115,14.25-21.3262
		v-69.127c0-17.8887-14.5537-32.4414-32.4434-32.4414h-26.4375v-50.4502c6.5617,2.6376,13.4239,4.4893,20.4153,5.5208
		c-7.4816,4.0136-12.5823,11.9105-12.5823,20.9783c0,13.1182,10.6719,23.791,23.79,23.791h50.1172v134.0596
		c0,6.5371,5.3184,11.8555,11.8564,11.8555h20.0674c6.5371,0,11.8555-5.3184,11.8555-11.8555V343.585h50.1172
		c13.1182,0,23.791-10.6729,23.791-23.791c0-9.0679-5.1012-16.9648-12.5831-20.9783c6.9916-1.0314,13.8539-2.8831,20.4161-5.5207
		v50.4502h-26.4385c-17.8896,0-32.4434,14.5527-32.4434,32.4414v69.127c0,9.5146,5.4609,17.6865,14.25,21.3262
		c2.8838,1.1953,5.8916,1.8008,8.9404,1.8008c5.5131,0,10.7589-2.0126,14.9678-5.6682v3.9855
		c0,12.54,10.2021,22.7422,22.7412,22.7422h61.9072c12.54,0,22.7422-10.2021,22.7422-22.7422V412.457
		c0-11.583-8.7064-21.1636-19.9175-22.5595c13.0312-8.38,21.688-22.9975,21.688-39.6085v-96.7969
		C442.0684,236.8815,430.3907,222.9557,414.8161,219.4687z M394.9961,373.6484h-51.3838c-11.4395,0-21.2383,7.1592-25.1514,17.2314
		v-14.6934c0-4.8135,3.917-8.7295,8.7314-8.7295h27.4736c12.5039,0,22.6758-10.1729,22.6758-22.6777v-63.8662
		c0-5.7861-2.9951-10.9619-8.0117-13.8438c-5.0166-2.8848-10.999-2.8662-15.9961,0.0459c-0.166,0.0967-0.3311,0.1924-0.4971,0.2871
		c4.2266-3.5303,7.958-7.7295,11.0352-12.5117c5.0615-7.8647,13.666-12.5601,23.0176-12.5601h20.3047
		c6.1553,0,11.1631,5.0068,11.1631,11.1616v96.7969C418.3574,363.1699,407.8779,373.6484,394.9961,373.6484z M356.6182,465.7891
		v-52.3623h59.9678v52.3623H356.6182z M393.6201,200.6504c-13.6416,0-24.7393-11.0972-24.7393-24.7378
		c0-13.6401,11.0977-24.7373,24.7393-24.7373c13.6406,0,24.7373,11.0972,24.7373,24.7373
		C418.3574,189.5532,407.2607,200.6504,393.6201,200.6504z M177.9932,319.7148h144.0137c0.0391,0,0.0801,0.041,0.0801,0.0791
		s-0.041,0.0791-0.0801,0.0791H177.9932c-0.0381,0-0.0791-0.041-0.0791-0.0791S177.9551,319.7148,177.9932,319.7148z
		 M143.3818,413.4268v52.3623H83.4141v-52.3623H143.3818z M181.5391,390.8799c-3.9131-10.0723-13.7119-17.2314-25.1514-17.2314
		h-51.3848c-12.8809,0-23.3604-10.4785-23.3604-23.3594v-96.7969c0-6.1548,5.0078-11.1616,11.1631-11.1616h20.3047
		c9.3516,0,17.9561,4.6953,23.0176,12.5601c3.0791,4.7832,6.8115,8.9844,11.04,12.5146c-0.168-0.0957-0.334-0.1924-0.501-0.2891
		c-4.9941-2.9121-10.9736-2.9316-15.9951-0.0488c-5.0176,2.8828-8.0127,8.0596-8.0127,13.8457v63.8662
		c0,12.5049,10.1719,22.6777,22.6758,22.6777h27.4727c4.8145,0,8.7314,3.916,8.7314,8.7295V390.8799z M106.3809,151.1753
		c13.6406,0,24.7373,11.0972,24.7373,24.7373c0,13.6406-11.0967,24.7378-24.7373,24.7378s-24.7383-11.0972-24.7383-24.7378
		C81.6426,162.2725,92.7402,151.1753,106.3809,151.1753z"/>
</g>
<path class="st1" d="M328.5867,319.7941c0-3.6282-2.9513-6.5795-6.5795-6.5795H177.9936c-3.6282,0-6.5795,2.9513-6.5795,6.5795
	c0,3.6282,2.9513,6.5795,6.5795,6.5795h61.9728h20.0681h61.9727C325.6354,326.3735,328.5867,323.4222,328.5867,319.7941z"/>
<g>
	<path class="st1" d="M144.3511,406.9268h-61.907c-3.0492,0-5.5305,2.4806-5.5305,5.5305v54.3008
		c0,3.0499,2.4813,5.5305,5.5305,5.5305h61.907c3.0491,0,5.5305-2.4806,5.5305-5.5305v-54.3008
		C149.8816,409.4073,147.4002,406.9268,144.3511,406.9268z"/>
	<rect x="245.322" y="337.0849" class="st1" width="9.3567" height="135.2037"/>
	<path class="st1" d="M172.8076,360.9568h-27.4725c-8.9197,0-16.1761-7.2579-16.1761-16.1776v-63.866
		c0-3.431,1.776-6.5004,4.7512-8.2098c2.9737-1.7065,6.519-1.699,9.4837,0.0284c11.0401,6.4331,23.6291,9.8342,36.4063,9.8342
		h38.5245c2.4708,0,4.4814-2.0099,4.4814-4.48c0-2.4716-2.0106-4.4815-4.4814-4.4815h-35.9872
		c-16.5541,0-31.7851-8.3115-40.7443-22.2311c-6.262-9.7325-16.9105-15.5425-28.4833-15.5425H92.8057
		c-9.7393,0-17.663,7.923-17.663,17.6615v96.7965c0,16.4645,13.3951,29.8597,29.8604,29.8597h51.3847
		c11.2866,0,20.4693,9.1826,20.4693,20.4693v46.0582c0,1.055,0.4109,2.0457,1.1566,2.7914c2.574,2.5762,5.5499,1.6243,6.4002,1.2717
		c0.8502-0.3527,3.6252-1.7842,3.6252-5.4259V376.187C188.0392,367.7888,181.2064,360.9568,172.8076,360.9568z"/>
	<path class="st1" d="M106.3809,207.1501c17.2244,0,31.2374-14.0123,31.2374-31.2374s-14.0131-31.2374-31.2374-31.2374
		c-17.2251,0-31.2382,14.0123-31.2382,31.2374S89.1558,207.1501,106.3809,207.1501z"/>
	<path class="st1" d="M417.5559,406.9268h-61.907c-3.0499,0-5.5305,2.4806-5.5305,5.5305v54.3008
		c0,3.0499,2.4806,5.5305,5.5305,5.5305h61.907c3.0499,0,5.5305-2.4806,5.5305-5.5305v-54.3008
		C423.0864,409.4073,420.6058,406.9268,417.5559,406.9268z"/>
	<path class="st1" d="M393.6198,144.6753c-17.2251,0-31.239,14.0123-31.239,31.2374s14.0139,31.2374,31.239,31.2374
		s31.2374-14.0123,31.2374-31.2374S410.8449,144.6753,393.6198,144.6753z"/>
	<path class="st1" d="M255.8787,129.9697c8.0619,6.575,18.1666,10.2346,28.603,10.2346c0.1778,0,0.3541,0,0.5305-0.003
		c4.5488-0.0508,9.1617-0.8323,13.715-2.3252c1.6647-0.5858,3.4026-0.6724,5.0478-0.2495l18.3175,4.2977l-3.4429-10.7084
		c-0.9743-2.7809-0.4035-6.0714,1.5331-8.4579c6.1522-7.881,9.5473-17.902,9.4965-28.1412
		c-0.2122-24.3082-20.1555-44.4457-44.4577-44.8687c-3.0171-0.0538-6.0311,0.1913-9.0093,0.7412
		c4.5009,8.682,6.8545,18.3354,6.8545,28.2996C283.0665,99.5182,272.8139,118.5306,255.8787,129.9697z"/>
	<path class="st1" d="M407.1943,235.8307h-20.3049c-11.5721,0-22.2206,5.81-28.4833,15.5425
		c-8.957,13.9196-24.1887,22.2311-40.7429,22.2311h-35.9879c-2.4716,0-4.4814,2.0099-4.4814,4.4815
		c0,2.4701,2.0098,4.48,4.4814,4.48h38.5238c12.778,0,25.3662-3.4011,36.4078-9.8342c2.9633-1.7274,6.5093-1.7364,9.4845-0.0269
		c2.9752,1.7095,4.7505,4.7774,4.7505,8.2084v63.866c0,8.9197-7.2565,16.1776-16.1761,16.1776h-27.4732
		c-8.3981,0-15.2316,6.832-15.2316,15.2302v69.1261c0,3.6417,2.775,5.0732,3.6252,5.4259c0.8518,0.3527,3.83,1.303,6.4017-1.2732
		c0.7441-0.7441,1.1551-1.7364,1.1551-2.7899v-46.0582c0-11.2867,9.1827-20.4693,20.4693-20.4693h51.384
		c16.466,0,29.8611-13.3951,29.8611-29.8597v-96.7965C424.8572,243.7537,416.9343,235.8307,407.1943,235.8307z"/>
	<path class="st1" d="M183.3545,116.8286l-5.0015,15.0792l22.6884-5.3452c1.0258-0.2406,2.1002-0.1748,3.0865,0.1898
		c5.3684,1.986,11.1387,2.9932,17.1504,2.9932c8.254,0,16.082-1.8784,23.2682-5.5828c2.6743-1.3809,5.1903-2.971,7.5322-4.7445
		c0.0109-0.0082,0.0213-0.017,0.0322-0.0253c0.4569-0.3466,0.9077-0.6996,1.3512-1.06c8.0417-6.5347,13.8561-15.3031,16.753-25.1514
		c0.0927-0.315,0.1827-0.6309,0.2693-0.948c0.4188-1.5327,0.7726-3.0886,1.048-4.667c0.5034-2.8852,0.763-5.8396,0.763-8.8373
		c0-7.5446-1.6622-14.9299-4.8453-21.7247c-0.0527-0.1115-0.1007-0.2251-0.1543-0.3362c-0.0007-0.0014-0.0014-0.0027-0.0021-0.0042
		c-1.0952-2.2722-2.365-4.4686-3.8044-6.5722c-0.0751-0.1097-0.121-0.2294-0.1869-0.3425
		c-9.5444-13.7906-25.2055-22.0381-41.9644-22.0381c-28.1307,0-51.0171,22.8871-51.0171,51.0178
		c0,12.1011,4.2737,23.8032,12.0345,32.9484C183.5645,113.1031,183.9432,115.0547,183.3545,116.8286z M199.5373,64.7004h19.7812
		c2.958,0,5.3557,2.3984,5.3557,5.3557s-2.3976,5.3557-5.3557,5.3557h-19.7812c-2.958,0-5.3557-2.3984-5.3557-5.3557
		S196.5793,64.7004,199.5373,64.7004z M199.5373,81.6894H243.02c2.958,0,5.3557,2.3984,5.3557,5.3557s-2.3976,5.3557-5.3557,5.3557
		h-43.4827c-2.958,0-5.3557-2.3984-5.3557-5.3557S196.5793,81.6894,199.5373,81.6894z"/>
</g>
<path class="st0" d="M165.1685,137.634c-0.6104,1.841-0.1778,3.8688,1.132,5.3004c1.0273,1.1222,2.4672,1.7408,3.9518,1.7408
	c0.4087,0,0.8211-0.0463,1.2283-0.1434l30.4872-7.1832c6.1111,2.0637,12.5994,3.1082,19.3104,3.1082
	c8.6223,0,16.8702-1.71,24.5809-5.074c10.5825,10.0745,24.7059,15.6918,39.2769,15.5298c5.535-0.0628,11.1253-0.9893,16.6199-2.7585
	l20.7697,4.873c0.6799,0.1599,1.3673,0.2376,2.0502,0.2376c2.4955,0,4.9253-1.04,6.6557-2.9229
	c2.2101-2.4059,2.9558-5.8264,1.9486-8.9301l-4.081-12.6823c7.3476-9.7311,11.3509-21.8292,11.2911-34.1857
	c-0.263-30.0823-24.9284-54.9823-54.9719-55.5038c-5.1492-0.1082-10.2861,0.5305-15.3167,1.863
	C258.4197,25.8669,240.4678,17,221.3381,17c-34.037,0-61.7285,27.6913-61.7285,61.7291c0,13.6089,4.4748,26.8068,12.6592,37.4987
	L165.1685,137.634z M285.2213,49.7482c24.3022,0.4229,44.2455,20.5604,44.4577,44.8687
	c0.0508,10.2391-3.3443,20.2601-9.4965,28.1412c-1.9366,2.3865-2.5074,5.6769-1.5331,8.4579l3.4429,10.7084l-18.3175-4.2977
	c-1.6452-0.4229-3.3831-0.3362-5.0478,0.2495c-4.5532,1.4929-9.1662,2.2744-13.715,2.3252c-0.1763,0.003-0.3527,0.003-0.5305,0.003
	c-10.4364,0-20.5411-3.6596-28.603-10.2346c16.9352-11.4391,27.1878-30.4514,27.1878-51.1807
	c0-9.9642-2.3536-19.6176-6.8545-28.2996C279.1902,49.9395,282.2042,49.6944,285.2213,49.7482z M170.321,78.7291
	c0-28.1307,22.8864-51.0178,51.0171-51.0178c16.7589,0,32.42,8.2475,41.9644,22.0381c0.0659,0.1131,0.1118,0.2327,0.1869,0.3425
	c1.4394,2.1036,2.7092,4.3,3.8044,6.5722c0.0007,0.0014,0.0014,0.0027,0.0021,0.0042c0.0536,0.1111,0.1016,0.2247,0.1543,0.3362
	c3.183,6.7948,4.8453,14.1801,4.8453,21.7247c0,2.9977-0.2596,5.9521-0.763,8.8373c-0.2754,1.5784-0.6292,3.1343-1.048,4.667
	c-0.0867,0.3171-0.1767,0.633-0.2693,0.948c-2.8969,9.8483-8.7112,18.6168-16.753,25.1514c-0.4435,0.3604-0.8943,0.7134-1.3512,1.06
	c-0.0109,0.0082-0.0213,0.017-0.0322,0.0253c-2.3419,1.7735-4.858,3.3636-7.5322,4.7445
	c-7.1862,3.7045-15.0142,5.5828-23.2682,5.5828c-6.0117,0-11.782-1.0072-17.1504-2.9932c-0.9863-0.3646-2.0607-0.4304-3.0865-0.1898
	l-22.6884,5.3452l5.0015-15.0792c0.5887-1.7738,0.21-3.7254-0.999-5.151C174.5947,102.5323,170.321,90.8302,170.321,78.7291z"/>
<path class="st0" d="M199.5373,75.4117h19.7812c2.958,0,5.3557-2.3984,5.3557-5.3557s-2.3976-5.3557-5.3557-5.3557h-19.7812
	c-2.958,0-5.3557,2.3984-5.3557,5.3557S196.5793,75.4117,199.5373,75.4117z"/>
<path class="st0" d="M199.5373,92.4008H243.02c2.958,0,5.3557-2.3984,5.3557-5.3557s-2.3976-5.3557-5.3557-5.3557h-43.4827
	c-2.958,0-5.3557,2.3984-5.3557,5.3557S196.5793,92.4008,199.5373,92.4008z"/>
<path class="st0" d="M106.3809,217.8615c23.1307,0,41.9488-18.8181,41.9488-41.9488s-18.8181-41.9487-41.9488-41.9487
	c-23.1307,0-41.9495,18.8181-41.9495,41.9487S83.2502,217.8615,106.3809,217.8615z M106.3809,144.6753
	c17.2244,0,31.2374,14.0123,31.2374,31.2374s-14.0131,31.2374-31.2374,31.2374c-17.2251,0-31.2382-14.0123-31.2382-31.2374
	S89.1558,144.6753,106.3809,144.6753z"/>
<path class="st0" d="M172.8076,350.2454h-27.4725c-3.0133,0-5.4648-2.4521-5.4648-5.4662v-61.7351
	c12.2184,6.7006,25.9767,10.2332,39.9299,10.2332h38.5245c8.3772,0,15.1928-6.8141,15.1928-15.1913s-6.8156-15.1928-15.1928-15.1928
	h-35.9872c-12.8945,0-24.7587-6.4734-31.7365-17.3163c-8.2435-12.8094-22.2587-20.4573-37.4911-20.4573H92.8057
	c-15.6456,0-28.3743,12.7287-28.3743,28.3728v96.7965c0,22.3716,18.2001,40.571,40.5717,40.571h51.3847
	c5.3803,0,9.7579,4.3769,9.7579,9.758v46.0582c0,3.9151,1.5242,7.5956,4.2932,10.3661c3.2143,3.2128,7.3521,4.8984,11.6214,4.8984
	c2.1518,0,4.3373-0.4289,6.4532-1.306c6.3143-2.6151,10.2369-8.4863,10.2369-15.3214V376.187
	C198.7505,361.8832,187.1127,350.2454,172.8076,350.2454z M188.0392,445.313c0,3.6417-2.775,5.0732-3.6252,5.4259
	c-0.8503,0.3527-3.8262,1.3046-6.4002-1.2717c-0.7457-0.7457-1.1566-1.7364-1.1566-2.7914v-46.0582
	c0-11.2867-9.1827-20.4693-20.4693-20.4693h-51.3847c-16.4653,0-29.8604-13.3951-29.8604-29.8597v-96.7965
	c0-9.7385,7.9237-17.6615,17.663-17.6615h20.3042c11.5728,0,22.2214,5.81,28.4833,15.5425
	c8.9592,13.9196,24.1902,22.2311,40.7443,22.2311h35.9872c2.4708,0,4.4814,2.0099,4.4814,4.4815c0,2.4701-2.0106,4.48-4.4814,4.48
	h-38.5245c-12.7772,0-25.3662-3.4011-36.4063-9.8342c-2.9647-1.7274-6.51-1.7349-9.4837-0.0284
	c-2.9752,1.7095-4.7512,4.7789-4.7512,8.2098v63.866c0,8.9197,7.2564,16.1776,16.1761,16.1776h27.4725
	c8.3989,0,15.2316,6.832,15.2316,15.2302V445.313z"/>
<path class="st0" d="M144.3511,396.2155h-61.907c-8.9555,0-16.2419,7.2863-16.2419,16.2418v54.3008
	c0,8.9555,7.2864,16.2419,16.2419,16.2419h61.907c8.9555,0,16.2418-7.2864,16.2418-16.2419v-54.3008
	C160.5929,403.5018,153.3066,396.2155,144.3511,396.2155z M149.8816,466.7581c0,3.0499-2.4814,5.5305-5.5305,5.5305h-61.907
	c-3.0492,0-5.5305-2.4806-5.5305-5.5305v-54.3008c0-3.0499,2.4813-5.5305,5.5305-5.5305h61.907
	c3.0491,0,5.5305,2.4806,5.5305,5.5305V466.7581z"/>
<path class="st0" d="M393.6198,133.964c-23.1322,0-41.9503,18.8181-41.9503,41.9487s18.8181,41.9488,41.9503,41.9488
	c23.1307,0,41.9487-18.8181,41.9487-41.9488S416.7505,133.964,393.6198,133.964z M393.6198,207.1501
	c-17.2251,0-31.239-14.0123-31.239-31.2374s14.0139-31.2374,31.239-31.2374s31.2374,14.0123,31.2374,31.2374
	S410.8449,207.1501,393.6198,207.1501z"/>
<path class="st0" d="M407.1943,225.1194h-20.3049c-15.2317,0-29.2469,7.6479-37.4911,20.4573
	c-6.9771,10.8428-18.8405,17.3163-31.735,17.3163h-35.9879c-8.3772,0-15.1928,6.8156-15.1928,15.1928
	s6.8156,15.1913,15.1928,15.1913h38.5238c13.954,0,27.7123-3.5326,39.9314-10.2332v61.7351c0,3.0141-2.4522,5.4662-5.4648,5.4662
	h-27.4732c-14.3052,0-25.943,11.6378-25.943,25.9415v69.1261c0,6.8351,3.9226,12.7062,10.2376,15.3214
	c2.116,0.8771,4.3007,1.306,6.4525,1.306c4.2693,0,8.4086-1.6871,11.6229-4.9014c2.7675-2.769,4.2917-6.4495,4.2917-10.3632
	v-46.0582c0-5.3811,4.3769-9.758,9.7579-9.758h51.384c22.3716,0,40.5724-18.1994,40.5724-40.571v-96.7965
	C435.5685,237.8481,422.8399,225.1194,407.1943,225.1194z M424.8572,350.2888c0,16.4645-13.3951,29.8597-29.8611,29.8597h-51.384
	c-11.2866,0-20.4693,9.1826-20.4693,20.4693v46.0582c0,1.0535-0.4109,2.0457-1.1551,2.7899
	c-2.5717,2.5762-5.5499,1.6259-6.4017,1.2732c-0.8502-0.3527-3.6252-1.7842-3.6252-5.4259V376.187
	c0-8.3981,6.8336-15.2302,15.2316-15.2302h27.4732c8.9197,0,16.1761-7.2579,16.1761-16.1776v-63.866
	c0-3.431-1.7753-6.4988-4.7505-8.2084c-2.9752-1.7095-6.5212-1.7005-9.4845,0.0269c-11.0416,6.4331-23.6298,9.8342-36.4078,9.8342
	h-38.5238c-2.4716,0-4.4814-2.0099-4.4814-4.48c0-2.4716,2.0098-4.4815,4.4814-4.4815h35.9879
	c16.5541,0,31.7858-8.3115,40.7429-22.2311c6.2627-9.7325,16.9113-15.5425,28.4833-15.5425h20.3049
	c9.74,0,17.663,7.923,17.663,17.6615V350.2888z"/>
<path class="st0" d="M417.5559,396.2155h-61.907c-8.9555,0-16.2418,7.2863-16.2418,16.2418v54.3008
	c0,8.9555,7.2863,16.2419,16.2418,16.2419h61.907c8.9555,0,16.2419-7.2864,16.2419-16.2419v-54.3008
	C433.7978,403.5018,426.5114,396.2155,417.5559,396.2155z M423.0864,466.7581c0,3.0499-2.4806,5.5305-5.5305,5.5305h-61.907
	c-3.0499,0-5.5305-2.4806-5.5305-5.5305v-54.3008c0-3.0499,2.4806-5.5305,5.5305-5.5305h61.907
	c3.0499,0,5.5305,2.4806,5.5305,5.5305V466.7581z"/>
<path class="st0" d="M339.298,319.7941c0-9.5338-7.7571-17.2909-17.2909-17.2909H177.9936c-9.5345,0-17.2908,7.7571-17.2908,17.2909
	c0,9.5338,7.7563,17.2908,17.2908,17.2908h56.6171v140.5594c0,2.9573,2.3976,5.3557,5.3557,5.3557h20.0681
	c2.9573,0,5.3557-2.3984,5.3557-5.3557V337.0849h56.6171C331.541,337.0849,339.298,329.3278,339.298,319.7941z M254.6787,472.2886
	h-9.3567V337.0849h9.3567V472.2886z M260.0344,326.3735h-20.0681h-61.9728c-3.6282,0-6.5795-2.9513-6.5795-6.5795
	c0-3.6282,2.9513-6.5795,6.5795-6.5795h144.0135c3.6282,0,6.5795,2.9513,6.5795,6.5795c0,3.6282-2.9513,6.5795-6.5795,6.5795
	H260.0344z"/>
</svg>
