<?xml version="1.0" encoding="UTF-8"?><svg id="Layer_1" xmlns="http://www.w3.org/2000/svg" viewBox="0 0 200 200"><defs><style>.cls-1{stroke-width:6px;}.cls-1,.cls-2{fill:#fff;stroke:#8f8f8f;stroke-miterlimit:10;}</style></defs><path class="cls-2" d="M19.4,108.36c-2.12,.2-2.7,1.59-2.79,2.73-.17,2.13,1.33,4.85,4.05,5.52,1.25,.32,3.92,.65,7.29,1.09,12.41,1.6,35.52,4.57,46.94,13.55,3.84,3.03,7.08,5.88,10.21,8.63,8.55,7.51,16.63,14.61,36.17,25.04,3.28,2.14,10.1,10.69,20.35,25.52l40.17-29.24-1.35-1.49c-5.63-6.23-6.87-7.61-10.72-11.73-4.62-4.4-3.94-7.99-2.78-13.93,1.31-6.75,3.5-18.03,.02-40.51-.73-2.4-2.06-5.98-3.46-9.78-2.6-7.04-5.05-13.69-5.12-16.82-1.15-6.96,.54-14.08,1.88-19.8,.84-3.57,1.8-7.62,.99-8.65-.22-.28-.8-.34-1.24-.34-.88,0-2.07,.23-3.56,.67-9.33,3.96-13.54,13.05-12.34,26.98,2.19,9.55,2.19,15.4,0,18.16-1.76,2.2-4.71,2.36-8.45,.21-6.21-3.4-12.04-10.02-12.28-10.3l-12.54-16.72c-.33-.53-23.96-39.19-28.23-44.92-2.17-3.41-4.91-5.37-7.41-5.37-1.47,0-2.68,.7-3.37,1.96-1.26,2.32-.56,5.96,1.87,9.75,9.16,15.91,20.3,36.8,23.41,42.85,2.78,5.48,2.19,8.51,1.22,10.09-1.8,2.92-6.56,2.78-9.95-.27-7.8-7.7-37.4-38.61-41.96-44.1-3.01-2.74-5.53-3.35-7.09-3.35-1.99,0-3.58,1-4.35,2.75-.88,2.01-.73,5.36,2.37,8.76,2.38,2.49,11.52,12.36,20.36,21.91,8.42,9.09,17.96,19.4,18.6,20,2.4,2.43,4.77,6.05,3.76,8.48-.22,.55-.98,1.81-3.06,1.81-1.68,0-3.99-.82-7.09-2.51-5.67-3.82-35.45-21.13-44.46-26.35-.74-.45-1.32-.61-1.94-.61-1.95,0-3.98,1.59-4.72,3.69-.8,2.27,.06,4.58,2.44,6.5,6.36,4.58,16.24,10.77,24.97,16.24,7.18,4.5,13.97,8.75,18.09,11.66,6.85,4.15,9.8,7.77,8.88,11.01-.77,2.79-4.45,4.46-9.84,4.46-.89,0-1.81-.04-2.74-.15-8.59-.9-14.87-.61-14.94-.61-8.49-.83-24.54-2.4-26.26-2.46m121.4,86.8l-.98-1.42c-13.84-20.1-18.64-24.89-20.28-25.94-19.75-10.55-27.97-17.76-36.67-25.4-3.09-2.72-6.3-5.54-10.08-8.52-10.69-8.41-33.19-11.31-45.29-12.86-3.62-.46-6.23-.8-7.67-1.16-4.47-1.1-6.86-5.46-6.58-9.03,.26-3.29,2.58-5.51,6.05-5.81,2.43,.08,24.99,2.32,26.39,2.47,.07-.04,6.66-.28,15.25,.61,.8,.09,1.6,.14,2.39,.14,3.94,0,6.36-1.04,6.62-2.02,.07-.24,.44-2.5-7.5-7.32-4.14-2.91-10.89-7.14-18.03-11.62-8.76-5.49-18.7-11.73-25.22-16.41-3.58-2.89-4.85-6.61-3.56-10.28,1.66-4.7,7.43-7.35,11.34-4.94,9.17,5.32,39.05,22.68,44.66,26.47,3.35,1.82,4.86,2.03,5.36,2.03,.05-.26-.86-2.34-3.01-4.53-.06,0-.15-.07-18.73-20.14-8.83-9.54-17.96-19.39-20.36-21.91-3.52-3.86-4.66-8.6-2.98-12.39,1.31-2.97,4.08-4.74,7.41-4.74,2.16,0,5.55,.76,9.51,4.39,4.36,5.25,33.28,35.53,41.83,43.96,1.07,.98,2.39,1.59,3.47,1.59,.95,0,1.23-.46,1.33-.62,.27-.44,.98-2.23-1.35-6.82-3.1-6.01-14.18-26.84-23.28-42.62-3.12-4.84-3.84-9.63-1.96-13.1,1.27-2.31,3.62-3.7,6.31-3.7,3.71,0,7.41,2.49,10.17,6.83,4.29,5.76,27.25,43.34,28.24,44.94l12.37,16.5s5.63,6.36,11.32,9.48c3.05,1.74,3.61,1.35,4.19,.62,.67-.84,1.94-4.03-.68-15.57-1.68-19.57,6.97-27.43,14.52-30.63,4.78-1.48,7.11-1.1,8.56,.73,1.82,2.3,.91,6.16-.36,11.5-1.28,5.43-2.88,12.19-1.8,18.72,.06,2.8,2.65,9.8,4.93,15.97,1.42,3.85,2.77,7.48,3.58,10.21,3.62,23.27,1.37,34.92,.01,41.87-1.13,5.78-1.51,7.73,1.87,10.94,3.93,4.21,5.17,5.58,10.82,11.84l3.84,4.25-45.96,33.45Z"/><path class="cls-1" d="M19.4,108.36c-2.12,.2-2.7,1.59-2.79,2.73-.17,2.13,1.33,4.85,4.05,5.52,1.25,.32,3.92,.65,7.29,1.09,12.41,1.6,35.52,4.57,46.94,13.55,3.84,3.03,7.08,5.88,10.21,8.63,8.55,7.51,16.63,14.61,36.17,25.04,3.28,2.14,10.1,10.69,20.35,25.52l40.17-29.24-1.35-1.49c-5.63-6.23-6.87-7.61-10.72-11.73-4.62-4.4-3.94-7.99-2.78-13.93,1.31-6.75,3.5-18.03,.02-40.51-.73-2.4-2.06-5.98-3.46-9.78-2.6-7.04-5.05-13.69-5.12-16.82-1.15-6.96,.54-14.08,1.88-19.8,.84-3.57,1.8-7.62,.99-8.65-.22-.28-.8-.34-1.24-.34-.88,0-2.07,.23-3.56,.67-9.33,3.96-13.54,13.05-12.34,26.98,2.19,9.55,2.19,15.4,0,18.16-1.76,2.2-4.71,2.36-8.45,.21-6.21-3.4-12.04-10.02-12.28-10.3l-12.54-16.72c-.33-.53-23.96-39.19-28.23-44.92-2.17-3.41-4.91-5.37-7.41-5.37-1.47,0-2.68,.7-3.37,1.96-1.26,2.32-.56,5.96,1.87,9.75,9.16,15.91,20.3,36.8,23.41,42.85,2.78,5.48,2.19,8.51,1.22,10.09-1.8,2.92-6.56,2.78-9.95-.27-7.8-7.7-37.4-38.61-41.96-44.1-3.01-2.74-5.53-3.35-7.09-3.35-1.99,0-3.58,1-4.35,2.75-.88,2.01-.73,5.36,2.37,8.76,2.38,2.49,11.52,12.36,20.36,21.91,8.42,9.09,17.96,19.4,18.6,20,2.4,2.43,4.77,6.05,3.76,8.48-.22,.55-.98,1.81-3.06,1.81-1.68,0-3.99-.82-7.09-2.51-5.67-3.82-35.45-21.13-44.46-26.35-.74-.45-1.32-.61-1.94-.61-1.95,0-3.98,1.59-4.72,3.69-.8,2.27,.06,4.58,2.44,6.5,6.36,4.58,16.24,10.77,24.97,16.24,7.18,4.5,13.97,8.75,18.09,11.66,6.85,4.15,9.8,7.77,8.88,11.01-.77,2.79-4.45,4.46-9.84,4.46-.89,0-1.81-.04-2.74-.15-8.59-.9-14.87-.61-14.94-.61-8.49-.83-24.54-2.4-26.26-2.46m121.4,86.8l-.98-1.42c-13.84-20.1-18.64-24.89-20.28-25.94-19.75-10.55-27.97-17.76-36.67-25.4-3.09-2.72-6.3-5.54-10.08-8.52-10.69-8.41-33.19-11.31-45.29-12.86-3.62-.46-6.23-.8-7.67-1.16-4.47-1.1-6.86-5.46-6.58-9.03,.26-3.29,2.58-5.51,6.05-5.81,2.43,.08,24.99,2.32,26.39,2.47,.07-.04,6.66-.28,15.25,.61,.8,.09,1.6,.14,2.39,.14,3.94,0,6.36-1.04,6.62-2.02,.07-.24,.44-2.5-7.5-7.32-4.14-2.91-10.89-7.14-18.03-11.62-8.76-5.49-18.7-11.73-25.22-16.41-3.58-2.89-4.85-6.61-3.56-10.28,1.66-4.7,7.43-7.35,11.34-4.94,9.17,5.32,39.05,22.68,44.66,26.47,3.35,1.82,4.86,2.03,5.36,2.03,.05-.26-.86-2.34-3.01-4.53-.06,0-.15-.07-18.73-20.14-8.83-9.54-17.96-19.39-20.36-21.91-3.52-3.86-4.66-8.6-2.98-12.39,1.31-2.97,4.08-4.74,7.41-4.74,2.16,0,5.55,.76,9.51,4.39,4.36,5.25,33.28,35.53,41.83,43.96,1.07,.98,2.39,1.59,3.47,1.59,.95,0,1.23-.46,1.33-.62,.27-.44,.98-2.23-1.35-6.82-3.1-6.01-14.18-26.84-23.28-42.62-3.12-4.84-3.84-9.63-1.96-13.1,1.27-2.31,3.62-3.7,6.31-3.7,3.71,0,7.41,2.49,10.17,6.83,4.29,5.76,27.25,43.34,28.24,44.94l12.37,16.5s5.63,6.36,11.32,9.48c3.05,1.74,3.61,1.35,4.19,.62,.67-.84,1.94-4.03-.68-15.57-1.68-19.57,6.97-27.43,14.52-30.63,4.78-1.48,7.11-1.1,8.56,.73,1.82,2.3,.91,6.16-.36,11.5-1.28,5.43-2.88,12.19-1.8,18.72,.06,2.8,2.65,9.8,4.93,15.97,1.42,3.85,2.77,7.48,3.58,10.21,3.62,23.27,1.37,34.92,.01,41.87-1.13,5.78-1.51,7.73,1.87,10.94,3.93,4.21,5.17,5.58,10.82,11.84l3.84,4.25-45.96,33.45Z"/></svg>