<?xml version="1.0" encoding="UTF-8"?><svg id="Layer_1" xmlns="http://www.w3.org/2000/svg" viewBox="0 0 200 200"><defs><style>.cls-1{fill:#fff;stroke-width:0px;}</style></defs><path class="cls-1" d="m189.89,43.84h-20.95c.13-5.14.12-10.3,0-15.46-.05-1.9-.86-3.53-2.24-4.75-1.37-1.23-3.31-2.04-5.62-2.32-.64-.07-1.28-.16-2.08-.26H41.15c-.38.08-.63.15-.89.18-6.32.76-8.8,3.12-8.81,8.39,0,4.44-.01,8.89,0,13.34,0,.3,0,.6.04.88H10.31c-5.84,1.04-9.8,4.91-9.93,10.09-.09,3.72-.14,7.45-.14,11.18s.05,7.66.14,11.49c.14,5.54,4.72,9.46,11.42,10.27.95.11,1.89.24,3.07.38v79.23c0,8.48,4.82,12.47,15.08,12.47h140.78c10.19,0,14.96-3.88,14.96-12.2,0-11.8.01-23.6,0-35.4.01-13.49.01-26.98.01-40.48v-3.52c.8-.17,1.25-.3,1.72-.36,9.18-1.12,12.8-4.55,12.81-12.2.01-6.46.02-12.92,0-19.39-.02-6.66-3.44-10.5-10.34-11.56ZM41.19,27.4c.25-.02.53-.02.82-.02,1.67.02,3.34.02,5.01.03h12.17c2.39-.01,4.77-.01,7.16-.01.43,0,.86.01,1.29.01h89.84c2.63,0,3.94,1.04,3.94,3.12,0,4.1-.06,8.2.03,12.3.01.4-.03.74-.13,1.01H39.06c-.1-.3-.14-.67-.12-1.12.11-4.31.15-8.62-.02-12.93-.06-1.72.66-2.28,2.27-2.39Zm143.69,50.65c-11.79-.1-23.58-.04-35.37-.04-.92,0-1.82-.02-2.73,0H17.03c-3.82,0-5.73-1.51-5.73-4.54,0-5.96.09-11.93-.04-17.89-.05-2.32.96-3.13,3.82-3.12,56.77.04,113.55.05,170.33-.01,3.05,0,4,.86,3.93,3.3-.08,3.28-.14,6.57-.14,9.86,0,2.98.05,5.95.17,8.93.11,2.89-1.31,3.53-4.49,3.5Z"/><path class="cls-1" d="m47.02,27.41h-5.83c.25-.03.53-.03.82-.03,1.67.02,3.34.02,5.01.03Z"/><path class="cls-1" d="m67.64,27.41h-8.45c2.39-.01,4.77-.01,7.16-.01.43,0,.86.01,1.29.01Z"/><path class="cls-1" d="m40.91,21.05c-.38.08-.63.15-.89.18-.34.04-.67.09-.98.14v-.32h1.87Z"/></svg>