<?xml version="1.0" encoding="UTF-8"?><svg id="a" xmlns="http://www.w3.org/2000/svg" viewBox="0 0 200 200"><defs><style>.b{fill:#fff;}</style></defs><path class="b" d="m1,56.58c1.34-2.96,2.42-6.08,4.1-8.84,2.46-4.06,6.39-6.46,10.99-7.33,6.92-1.32,13.07.55,18.1,5.53,2.34,2.32,3.87,5.22,4.77,8.43.12.43.78.99,1.21,1.01,8.42.34,16.59-.99,24.4-4.17,6.23-2.53,12.29-5.49,18.62-7.73,3.72-1.32,7.77-1.9,11.73-2.32,12.43-1.32,23.85,2.02,34.81,7.72,6.31,3.28,13.06,5.52,20.23,6.13,3.5.3,7.01.4,10.61.59.94-3.62,2.34-6.78,4.8-9.4,3.06-3.25,6.69-5.45,11.2-5.84,4.13-.36,8.26-.34,11.98,1.92,6.05,3.66,9.87,8.82,10.06,16.06.27,10.02.43,20.05.37,30.07-.03,5.79-.85,11.54-2.66,17.09-.67,2.06-3.05,3.43-4.88,2.84-1.98-.64-3.07-2.79-2.45-4.96,1.66-5.88,2.33-11.88,2.32-17.97-.02-8.25.06-16.5-.03-24.75-.04-3.9-1.23-7.48-4.3-10.1-6.05-5.17-15.2-2.89-18.07,4.36-.56,1.42-.77,3.05-.78,4.59-.07,10.38.03,20.76-.05,31.13-.07,8.72-.97,17.32-4.21,25.55-2.55,6.48-5.93,12.44-10.33,17.82-.38.46-.65,1-1.15,1.78,6.11-1.33,11.54-3.37,16.44-6.67,2.77-1.87,6.46-1.03,6.74,2.13.11,1.21-.58,3.07-1.53,3.7-6.53,4.35-13.62,7.46-21.44,8.64-2.75.41-5.57.34-8.29.86-1.43.27-2.84,1.18-4.05,2.09-7.07,5.35-15,8.96-23.47,11.27-7.2,1.96-14.66,2.58-22.1,2-12-.95-23-5-33.08-11.58-1.26-.82-2.35-1.93-3.65-2.69-.97-.57-2.15-1.1-3.24-1.11-9.57-.15-18.34-3.02-26.49-7.84-10.61-6.28-18.25-15.24-23.06-26.56-1.97-4.66-3.48-9.48-3.82-14.59-.01-.19-.24-.37-.37-.56,0-12.76,0-25.53,0-38.29Zm38.68,7.15c0,.21,0,.84,0,1.47,0,9.92-.1,19.85.06,29.77.06,3.58.44,7.21,1.15,10.72,2.04,9.99,6.82,18.66,13.6,26.18,6.5,7.22,14.36,12.62,23.44,16.11,6.53,2.51,13.26,4.34,20.35,4.11,3.55-.12,7.1-.39,10.62-.77,5.44-.59,10.6-2.25,15.59-4.5,9.01-4.07,16.62-9.91,22.93-17.51,3.6-4.34,6.41-9.15,8.64-14.29,3.37-7.76,4.24-16,4.29-24.36.06-8.51.01-17.01.01-25.52v-1.98c-2.36,0-4.56.18-6.72-.04-4.06-.42-8.18-.74-12.12-1.71-7-1.71-13.63-4.49-20.04-7.85-4.93-2.59-10.28-4.14-15.81-4.64-3.97-.36-8.01-.3-11.98.02-2.89.23-5.84.85-8.54,1.89-5.11,1.96-10,4.48-15.09,6.5-4.09,1.63-8.25,3.32-12.54,4.17-5.75,1.14-11.66,1.5-17.84,2.24Zm8.09,72.13c-.95-1.1-1.65-1.82-2.25-2.62-3.78-5.04-6.97-10.43-9.27-16.31-2.45-6.27-4.2-12.72-4.28-19.49-.11-9.22.01-18.43-.04-27.65-.02-3.96-.12-7.94-.4-11.89-.49-6.99-6.85-10.73-12.59-10.11-6.37.69-10.12,5.74-10.17,11.79-.08,9.92-.12,19.85.03,29.78.05,3.45.42,6.95,1.18,10.31,2.51,11.12,8.54,20.14,17.44,27.12,5.83,4.56,12.49,7.61,20.36,9.06Z"/><path class="b" d="m108.47,128.91c-4.16,0-8.31.09-12.47-.02-7.71-.2-15.23-1.69-22.65-3.65-4.43-1.17-8.77-2.66-13.13-4.08-2.25-.73-3.35-2.97-2.68-5.18.58-1.92,2.77-2.81,5.08-2.16,7.37,2.06,14.69,4.32,22.14,6.05,6.41,1.48,13.06,1.88,19.58,1.21,6.84-.7,13.64-2.02,20.37-3.45,4.23-.9,8.32-2.51,12.46-3.81,1.94-.61,4.42.32,4.97,1.88.73,2.1-.15,4.48-2.27,5.24-3.74,1.36-7.52,2.65-11.36,3.69-4.38,1.19-8.84,2.14-13.29,3.06-2.21.45-4.49.59-6.74.87,0,.12,0,.24,0,.35Z"/><path class="b" d="m93.39,74.85c-4.58.78-9.22,1.3-13.71,2.4-5.79,1.43-11.45,3.33-17.18,5.02-2.19.65-3.79-.04-4.7-2.02-.76-1.64-.23-4.15,1.24-4.89,1.43-.73,2.96-1.31,4.51-1.74,6.36-1.73,12.69-3.64,19.14-4.97,4.25-.88,8.67-1.01,13.03-1.22,3.86-.19,7.8-.48,11.59.05,7.12,1,14.2,2.38,21.21,3.95,3.85.86,7.57,2.38,11.31,3.7,2.26.79,3.1,2.62,2.36,4.71-.74,2.09-2.85,3.08-5.06,2.42-5.65-1.67-11.26-3.49-16.97-4.92-3.63-.91-7.4-1.37-11.13-1.8-3.66-.42-7.35-.62-11.03-.77-1.5-.06-3.02.28-4.53.44-.02-.13-.04-.25-.06-.38Z"/><path class="b" d="m99.85,101.83c-12.76,0-25.52,0-38.28,0-2.56,0-4.07-1.36-4.09-3.65-.02-2.64,1.36-4.07,4.06-4.07,25.39-.01,50.79-.02,76.18,0,3.43,0,5.18,2.03,4.46,5-.4,1.63-1.92,2.72-3.85,2.73-9.67,0-19.34,0-29,0-3.16,0-6.32,0-9.47,0Z"/><path class="b" d="m197.37,101.83c-6.56,21.34-17.66,29.46-24.74,34.02-7.08,4.56-2.99-1.67-2.99-1.67,0,0-12.31,1.36-2.35-4.09,13.09-8.08,20.09-21.6,22.44-29.7,2.36-8.11,4.71-.97,4.71-.97l2.92,2.41Z"/></svg>