<?xml version="1.0" encoding="utf-8"?>
<!-- Generator: Adobe Illustrator 27.7.0, SVG Export Plug-In . SVG Version: 6.00 Build 0)  -->
<svg version="1.1" id="Layer_1" xmlns="http://www.w3.org/2000/svg" xmlns:xlink="http://www.w3.org/1999/xlink" x="0px" y="0px"
	 width="200px" height="200px" viewBox="0 0 200 200" style="enable-background:new 0 0 200 200;" xml:space="preserve">
<style type="text/css">
	.st0{fill:#8F8F8F;stroke:#8F8F8F;stroke-width:2;stroke-miterlimit:10;}
	.st1{fill:none;stroke:#8F8F8F;stroke-width:4;stroke-miterlimit:10;}
</style>
<path class="st0" d="M158,186.6c-21.8-4.1-43.6-8.3-65.5-12.5c0.5-1.4,0.9-2.6,1.4-3.9c4.2-10.6,6.5-21.6,8.2-32.8
	c0.2-1.6,0.7-3.1,1.2-4.6c2.5-6.5,3.2-13,0.2-19.6c-2.2-5-5.9-8.9-10.3-12c-8.9-6.3-18-12.4-26.9-18.6c-1.1-0.8-2.2-1.5-3.5-2.4
	c-0.6,1.8-1.2,3.6-1.6,5.3c-2.1,8.7-4.1,17.4-6.2,26.2c-1.9,8-4.3,15.8-8.5,22.9c-2.3,3.9-4.9,7.5-8.2,10.5
	c-1.3,1.2-2.9,2.2-4.5,2.9c-2,0.9-4.1,1.5-6.4,2.3c0.4-2.2,0.8-4.4,1.2-6.5c3.2-16.9,6.4-33.8,9.6-50.7c0.8-4,1.6-7.9,2.4-11.8
	c0.1-0.5,0.2-1,0.2-1.5c0.3-3.3-0.7-5.1-3.7-6.3c-3.2-1.2-6.6-2.2-9.8-3.3c-7.8-2.8-15.6-5.6-23.3-8.4c-0.2-0.1-0.4-0.2-0.7-0.3
	c2.5-13.2,5-26.5,7.5-39.7c2.7,0.2,5.2,0.4,7.7,0.5c7,0.5,13.9,0.8,20.9,1.6c8,0.9,16.1,2.1,24,3.5c19.8,3.7,39.5,7.6,59.3,11.5
	c17.1,3.4,34.2,6.8,51.3,10.4c8.1,1.7,14.6,6.1,19.2,13.2c6.3,9.8,5.5,22.1-2.4,31.4c-10.6,12.4-17.6,26.6-22.3,42.1
	c-3.2,10.6-5.4,21.5-7.2,32.4c-1,5.8-1.9,11.5-2.9,17.3C158.3,186,158.2,186.2,158,186.6L158,186.6z M186.6,90.1
	c-14.5-0.3-28.6-0.7-42.9-1v-1.8c0.6,0,1,0,1.5,0c8.7,0,17.4,0,26.1-0.1c5.3,0,10.7-0.1,16-0.2c2.2,0,2.2-0.1,2.9-2.2
	c2.5-7.4,2.4-14.6-2.2-21.2c-3.9-5.6-9.5-8.7-16-10.2c-8.9-2-17.9-3.7-26.9-5.5C116.8,42.3,88.5,36.6,60.2,31
	c-2.7-0.5-5.4-1.1-8.2-1.6c-0.7,3.9-1.5,7.7-2.2,11.6c21.4,4.3,42.6,8.5,64,12.8c-0.2,1-0.3,1.8-0.5,2.8c-21.4-4.3-42.7-8.5-64-12.8
	c-1.7,9-3.4,17.8-5,26.6c0.4,0.2,0.7,0.3,1,0.4c4.4,1.5,8.8,2.8,13.2,4.4c18.5,6.6,34.5,16.7,47,32c4,4.9,8.8,7.9,15,9.1
	c2.7,0.5,5.3,0.9,8.3,1.3c-0.3-0.7-0.4-1.2-0.6-1.6c-2.7-6.2-6.4-11.7-10.9-16.7c-6-6.6-13.1-11.8-20.4-16.6c-1-0.7-2.1-1.3-3.1-2
	c0.3-0.1,0.6,0,0.8,0.1c4.1,2.1,8.3,4,12.3,6.2c8.4,4.8,15.2,11.3,19.5,20.2c3.7,7.7,10,12.5,18.4,14.3c4.1,0.9,8.3,1.5,12.4,2.2
	c1.4,0.2,2.8,0.5,4.2,0.4c2.4,0,4.3-0.9,5.7-3.2c4.1-6.7,8.5-13.2,12.7-19.8C181.9,97.6,184.2,94,186.6,90.1L186.6,90.1z M41,28.5
	c-0.3-0.1-0.5-0.1-0.8-0.1c-8.5-0.5-16.9-1-25.4-1.5c-0.7,0-0.9,0.2-1,0.8C12.2,36.5,10.5,45.2,9,54c-0.5,2.7,1,5.1,3.6,6
	c3.8,1.3,7.6,2.6,11.4,3.9c3.2,1.1,6.4,2,9.7,3.1C36.2,54,38.6,41.2,41,28.5L41,28.5z M46.2,77.9c-3.8,20.1-7.6,40.2-11.4,60.4
	c-0.3,1.6-0.6,3.1-0.9,5.1c2.9-2.4,4.7-5,6.4-7.8c4.6-7.8,7.8-16.1,10.4-24.7c2.5-8.5,4.5-17.2,4.4-26.2c0-1.5-0.3-3.1-0.4-4.6
	c-0.1,0-2.2-3.6-5.8-4.1C48.9,76,46.5,76.3,46.2,77.9z M40.2,68.6c2.5-13.1,5-26.1,7.4-39.3c-3.7,0.7-4.9,1.8-6,5.1
	c-0.3,1-0.7,2-0.8,3c-1.2,7-2.3,14.1-3.7,21.1c-0.7,3.5-0.2,6.9,0.5,10.3C38.4,68.8,39.2,68.7,40.2,68.6z M110.6,118.2
	c0,0-2.4,15.4-3.4,16.6c-1.1,1.2-7.8,33.2-9.6,34.9c-1.8,1.7,57.4,12.1,57.4,12.1s7.2-48.7,11.2-52.7
	C166.2,129.1,111.3,119.5,110.6,118.2z"/>
<line class="st1" x1="108.8" y1="173.6" x2="118.8" y2="120.8"/>
<line class="st1" x1="131.5" y1="122.1" x2="120.8" y2="175.8"/>
<line class="st1" x1="143.3" y1="124.2" x2="132.9" y2="178.9"/>
<line class="st1" x1="154.9" y1="125.5" x2="145.3" y2="180.1"/>
</svg>
