<?xml version="1.0" encoding="utf-8"?>
<!-- Generator: Adobe Illustrator 27.7.0, SVG Export Plug-In . SVG Version: 6.00 Build 0)  -->
<svg version="1.1" id="Layer_1" xmlns="http://www.w3.org/2000/svg" xmlns:xlink="http://www.w3.org/1999/xlink" x="0px" y="0px"
	 width="900px" height="250px" viewBox="0 0 900 250" style="enable-background:new 0 0 900 250;" xml:space="preserve">
<style type="text/css">
	.st0{fill:#FF6600;}
	.st1{enable-background:new    ;}
</style>
<path class="st0" d="M198.6,154.5l24.7-90.1h33.3l-41.7,123.8h-32.6L140.9,64.4H174L198.6,154.5z"/>
<path class="st0" d="M329.5,165h-40.9l-7.1,23.1h-31.9L295,64.4h28l45.7,123.8h-32.1L329.5,165z M295.7,142h26.6L309,99.1L295.7,142
	z"/>
<path class="st0" d="M407.6,165.2h51.9v23h-81.8V64.4h29.8v100.8L407.6,165.2L407.6,165.2z"/>
<path class="st0" d="M567.2,64.4v81c0,9.2-2,17.1-5.9,23.8s-9.5,11.8-16.8,15.3s-16,5.3-25.9,5.3c-15.1,0-26.9-3.9-35.6-11.7
	s-13.1-18.5-13.3-32.1V64.4h30v82.2c0.3,13.5,6.6,20.3,18.9,20.3c6.2,0,10.9-1.7,14-5.1c3.2-3.4,4.8-8.9,4.8-16.6V64.4H567.2z"/>
<path class="st0" d="M662.6,135.6h-46.9v29.6h55.4v23h-85.3V64.4h85.4v23h-55.6v26.1h46.9L662.6,135.6L662.6,135.6z"/>
<path class="st0" d="M747.1,155.3c0-4.4-1.5-7.8-4.6-10.2s-8.5-5-16.3-7.6s-14.1-5.1-19-7.6c-16-7.9-24.1-18.7-24.1-32.5
	c0-6.9,2-12.9,6-18.2c4-5.2,9.6-9.3,17-12.2s15.5-4.4,24.7-4.4c8.9,0,16.9,1.6,23.9,4.8c7.1,3.2,12.5,7.7,16.5,13.6
	c3.9,5.9,5.9,12.6,5.9,20.1h-29.8c0-5-1.5-9-4.6-11.7c-3.1-2.8-7.3-4.2-12.5-4.2c-5.3,0-9.5,1.2-12.6,3.5c-3.1,2.4-4.6,5.3-4.6,9
	c0,3.2,1.7,6.1,5.1,8.6s9.4,5.2,17.9,8s15.6,5.7,21.1,8.9c13.4,7.7,20.1,18.3,20.1,31.9c0,10.8-4.1,19.3-12.2,25.5
	c-8.2,6.2-19.4,9.3-33.6,9.3c-10,0-19.1-1.8-27.2-5.4c-8.1-3.6-14.3-8.5-18.4-14.8c-4.1-6.3-6.2-13.5-6.2-21.6h29.9
	c0,6.6,1.7,11.5,5.1,14.7c3.4,3.1,9,4.7,16.7,4.7c4.9,0,8.8-1.1,11.7-3.2C745.6,162.1,747.1,159.1,747.1,155.3z"/>
<path class="st0" d="M141.8,166.5c0.6,0.3,0.8,0.8,0.7,1.4c0,2,0,4,0,6c0,0.2,0,0.3,0,0.5c-0.1,0.5-0.5,0.8-1,0.8s-0.9-0.3-1-0.7
	c0-0.2-0.1-0.4-0.1-0.6c0-2,0-4.1,0-6.1c0-0.6,0.2-1.1,0.8-1.3C141.4,166.5,141.6,166.5,141.8,166.5z"/>
<path class="st0" d="M134.7,210.6c-1.1-0.3-2.2-0.5-3.1-0.9c-3-1.4-4.6-3.8-4.7-7.1c-0.1-2.8-0.1-5.6,0-8.5c0.1-2.8,1.6-4.8,4.1-6.1
	c0.5-0.2,0.6-0.5,0.6-1c0-1-0.1-2.1,0.2-3.1c0.7-2.7,4-3.6,6.1-1.8c0.1,0.1,0.2,0.2,0.3,0.3c0.8-0.8,1.7-1.2,2.8-1.2s2,0.4,2.8,1.2
	c1.9-1.6,3.8-1.6,5.6,0c0.8-0.8,1.7-1.2,2.8-1.2c2.1,0,3.8,1.7,3.8,4c0,5.9,0,11.8,0,17.7c0,3.3-2,6-5.1,7.2
	c-0.4,0.2-0.5,0.4-0.5,0.8c0,2.4,0,4.8,0,7.2c0,0.9-0.4,1.4-1,1.4c-0.7,0-1-0.5-1-1.4c0-2.3,0-4.6,0-6.9c0-0.2,0-0.4,0-0.7
	c-1.1,0-2.2,0-3.2,0c-1.1,0-1.4-0.5-1.4-1c0-0.7,0.5-1,1.5-1s2.1,0,3.1,0c3-0.1,5.4-2.2,5.6-5.2c0.1-1.7,0-3.4,0-5.1
	c-1.7,0.7-3.2,0.4-4.5-0.8c-0.8,0.8-1.7,1.2-2.8,1.2s-2-0.4-2.8-1.2c-1.9,1.8-4.2,1.4-5.6,0c-0.4,0.3-0.8,0.6-1.1,0.8
	c0.5,0.5,1.1,0.9,1.5,1.4c1.1,1.2,1.6,2.6,1.7,4.2c0,0.8-0.3,1.3-1,1.3c-0.6,0-1-0.4-1.1-1.2c-0.2-2.1-1.2-3.5-3.2-4.2
	c-0.9-0.3-1.7-0.6-2.6-0.9c-0.7-0.2-0.9-0.5-0.9-1.3c0-0.6,0-1.1,0-1.7c0.1-1.6,1.2-2.7,2.8-2.8c0.9,0,1.8,0,2.6,0
	c1.8,0,2.8-1,2.8-2.8c0-0.3,0-0.5,0-0.8c-0.1,0-0.2-0.1-0.3-0.1c-1.8,0-3.6,0-5.4,0c-2.5,0.1-4.6,1.8-5.1,4.3c0,0.2-0.1,0.4-0.1,0.7
	c0,2.9,0,5.8,0,8.7c0.1,2.7,2.6,5.2,5.3,5.4c0.4,0,0.8,0,1.2,0c0.9,0,1.2,0.4,1.2,1.2c0,2.9,0,5.7,0,8.6c0,0.8-0.4,1.2-1,1.2
	s-1-0.5-1-1.2c0-2.4,0-4.7,0-7.1C134.7,210.9,134.7,210.7,134.7,210.6z M148.4,189.8c0-0.7,0-1.4,0-2.1c0-1,0-2,0-3
	c-0.1-1-0.9-1.6-1.8-1.5c-1,0-1.7,0.8-1.7,2c0,3.1,0,6.1,0,9.2c0,0.2,0,0.4,0.1,0.6c0.1,0.7,0.7,1.2,1.4,1.4
	c1.2,0.2,2.1-0.6,2.1-1.9C148.5,192.9,148.4,191.3,148.4,189.8z M150.5,189.8c0,1.6,0,3.2,0,4.8c0,1.3,1.1,2.1,2.2,1.7
	c0.8-0.2,1.3-0.9,1.3-1.9c0-3.1,0-6.1,0-9.2c0-0.2,0-0.4-0.1-0.7c-0.2-1.1-1.4-1.6-2.4-1.2c-0.8,0.3-1.1,1-1.1,1.8
	C150.5,186.7,150.5,188.2,150.5,189.8z M139.4,187.2c0.2,0,0.3,0,0.5,0c1.2,0.1,2,0.8,2.1,2.1c0,0.4,0,0.7,0,1.1
	c0,1.8-0.8,3.1-2.3,4c-0.1,0.1-0.3,0.4-0.2,0.5c0.1,0.9,0.9,1.5,1.8,1.5c0.9,0,1.7-0.7,1.7-1.7c0-3.3,0-6.5,0-9.8
	c0-0.9-0.7-1.6-1.6-1.7c-0.9-0.1-1.7,0.5-1.8,1.4C139.3,185.5,139.4,186.3,139.4,187.2z M137.2,187.2c0-0.9,0-1.7,0-2.5
	c-0.1-0.8-0.8-1.4-1.5-1.4c-0.8-0.1-1.7,0.4-1.8,1.2c-0.2,0.9-0.1,1.9-0.2,2.8C134.9,187.2,136.1,187.2,137.2,187.2z M137.2,194.9
	c-1.1,0.2-2.2-0.2-3.3,0.3c0.4,0.8,1,1.2,1.8,1.1C136.4,196.3,137,195.8,137.2,194.9z"/>
<path class="st0" d="M150.3,179.9c-1,0-1.5-0.8-1.1-1.5c0.1-0.2,0.2-0.3,0.4-0.5c1.7-1.7,3.4-3.4,5.1-5.1c0.2-0.2,0.3-0.3,0.5-0.4
	c0.4-0.2,0.8-0.1,1.1,0.2s0.4,0.8,0.2,1.2c-0.1,0.2-0.2,0.3-0.4,0.5c-1.7,1.7-3.4,3.4-5.1,5.1C150.8,179.7,150.4,179.8,150.3,179.9z
	"/>
<path class="st0" d="M133.2,177.9c0,0.9-0.8,1.5-1.5,1.1c-0.2-0.1-0.3-0.2-0.4-0.4c-1.5-1.5-2.9-2.9-4.4-4.4
	c-0.2-0.2-0.4-0.4-0.4-0.6c-0.1-0.4,0-0.8,0.3-1.1c0.4-0.3,0.8-0.3,1.2-0.1c0.2,0.1,0.3,0.2,0.4,0.4c1.4,1.4,2.9,2.9,4.3,4.3
	C132.9,177.4,133,177.8,133.2,177.9z"/>
<path class="st0" d="M123.6,188.5c-0.7,0-1.3,0-2,0c-0.6,0-1.1-0.4-1.1-1c0-0.5,0.4-1,1-1.1c1.4,0,2.8,0,4.2,0c0.6,0,1,0.5,1,1.1
	s-0.4,1-1.1,1C125,188.5,124.3,188.5,123.6,188.5z"/>
<path class="st0" d="M161.6,188.5c-0.6,0-1.2,0-1.8,0s-1-0.4-1.1-0.9c0-0.6,0.3-1.1,1-1.1c1.3,0,2.5,0,3.8,0c0.6,0,1,0.5,1,1.1
	s-0.5,0.9-1.1,1h-0.1C162.7,188.5,162.1,188.5,161.6,188.5L161.6,188.5z"/>
<path class="st0" d="M141,210.4c-0.6,0-1-0.5-1-1s0.5-1,1.1-1s1,0.5,1,1.1C142.1,210,141.6,210.4,141,210.4z"/>
<path class="st0" d="M125.4,170.4c0,0.5-0.5,1-1,1s-1-0.5-1-1s0.5-1,1-1C125,169.4,125.4,169.9,125.4,170.4z"/>
<path class="st0" d="M159.6,170.4c0,0.6-0.4,1-1,1c-0.5,0-1-0.5-1-1c0-0.6,0.5-1,1-1S159.6,169.8,159.6,170.4z"/>
<path class="st0" d="M109.7,101c0.3,0.3,0.4,0.6,0.4,1c0,1,0,2,0,3c0,0.5-0.2,0.8-0.6,0.7c-0.4,0-0.6-0.3-0.6-0.7c0-1,0-2,0-3
	c0-0.4,0.1-0.7,0.4-0.9C109.4,101,109.6,101,109.7,101z"/>
<path class="st0" d="M87.5,122.7c0.2-0.3,0.5-0.4,0.9-0.4c1,0,2,0,3,0c0.5,0,0.8,0.2,0.7,0.6c0,0.4-0.3,0.6-0.7,0.6c-1,0-2,0-3,0
	c-0.4,0-0.7-0.1-1-0.4C87.5,123.1,87.5,122.9,87.5,122.7z"/>
<path class="st0" d="M109.5,145c-1.1,0-2.2,0-3.3,0c-1.1,0-1.9-0.7-1.9-1.9c0-0.6,0-1.2,0-1.8c0-0.2-0.1-0.4-0.2-0.5
	c-0.6-0.5-1.1-1-1.7-1.5c-0.3-0.2-0.4-0.5-0.4-0.9c0-1.5,0-3-0.1-4.5c-0.2-2.3-1-4.5-2.3-6.4c-1.2-1.7-2-3.6-2.3-5.7
	c-0.5-4.8,1.2-8.8,5.1-11.7c7.5-5.4,18.1-0.9,19.4,8.2c0.5,3.2-0.2,6.2-2,8.8c-1.3,1.9-2.2,4-2.5,6.3c-0.2,1.4-0.1,2.8-0.1,4.2
	c0,0.3,0,0.6,0,0.8c-0.1,0.3-0.2,0.6-0.4,0.8c-0.6,0.5-1.2,1-1.8,1.5c-0.1,0.1-0.3,0.4-0.3,0.6c0,0.6,0,1.2,0,1.8
	c0,1.2-0.7,1.9-1.9,1.9C111.7,145,110.6,145,109.5,145z M115.9,134.7c0-0.5,0.1-0.9,0.1-1.4c0.3-2.5,1.3-4.8,2.7-6.9
	c1.8-2.6,2.4-5.5,1.7-8.6c-1.4-6.6-8.1-10.4-14.6-8.3c-5,1.7-8.2,6.9-7.5,12.1c0.3,1.9,1,3.6,2.1,5.2c1.3,1.9,2.1,4,2.4,6.3
	c0.1,0.6,0.1,1.1,0.2,1.7C107.4,134.7,111.6,134.7,115.9,134.7z M105.5,141.3c0,0.6,0,1.2,0,1.8c0,0.5,0.2,0.7,0.7,0.7
	c1.1,0,2.3,0,3.4,0s2.2,0,3.3,0c0.4,0,0.7-0.1,0.7-0.5c0-0.7,0-1.3,0-2C110.8,141.3,108.2,141.3,105.5,141.3z M103.1,137.4
	c4.3,0,8.6,0,12.8,0c0-0.5,0-1,0-1.4c-4.3,0-8.6,0-12.8,0C103.1,136.4,103.1,136.9,103.1,137.4z M103.4,138.6c0.5,0.5,1,0.9,1.5,1.2
	c0.1,0.1,0.4,0.2,0.5,0.2c2.7,0,5.5,0,8.2,0c0.1,0,0.3,0,0.4-0.1c0.5-0.4,1-0.9,1.6-1.4C111.5,138.6,107.5,138.6,103.4,138.6z"/>
<path class="st0" d="M129.2,122.4c0.5,0,1.1,0,1.6,0c0.4,0,0.7,0.2,0.7,0.6s-0.3,0.6-0.7,0.6c-1.1,0-2.2,0-3.3,0
	c-0.4,0-0.7-0.2-0.7-0.6s0.2-0.6,0.7-0.6C128.1,122.4,128.6,122.4,129.2,122.4z"/>
<path class="st0" d="M94.3,107.2c0.2,0.1,0.4,0.2,0.5,0.4c0.8,0.7,1.5,1.5,2.3,2.3c0.3,0.3,0.3,0.7,0.1,0.9
	c-0.3,0.3-0.6,0.2-0.9-0.1c-0.8-0.8-1.5-1.5-2.3-2.3c-0.1-0.2-0.2-0.5-0.2-0.7C93.9,107.5,94.1,107.3,94.3,107.2z"/>
<path class="st0" d="M122.1,110.9c-0.2-0.1-0.4-0.2-0.5-0.4c-0.1-0.2-0.1-0.5,0.1-0.6c0.8-0.9,1.7-1.7,2.5-2.5
	c0.2-0.2,0.5-0.2,0.8,0s0.3,0.6,0,0.8c-0.8,0.9-1.7,1.7-2.5,2.5C122.5,110.8,122.3,110.9,122.1,110.9z"/>
<path class="st0" d="M115.3,118.1c0.3,0.7,0.5,1.2,0.7,1.8c0,0.1,0.2,0.2,0.3,0.2c0.3,0,0.6,0,0.9,0c0.4,0,0.6,0.2,0.6,0.6
	c0,0.7,0,1.3,0,2c0,0.4-0.2,0.6-0.6,0.6c-0.9-0.2-1.3,0.2-1.5,1.1c-0.1,0.3-0.3,0.6-0.5,0.9c0.2,0.2,0.5,0.4,0.8,0.7
	c0.3,0.3,0.3,0.6,0,1c-0.4,0.4-0.9,0.9-1.3,1.3c-0.3,0.3-0.6,0.3-1,0c-0.2-0.2-0.5-0.5-0.6-0.7c-0.7,0.3-1.3,0.6-2,0.8
	c0,0.3,0,0.6,0,1c0,0.5-0.2,0.7-0.7,0.7c-0.6,0-1.2,0-1.8,0c-0.5,0-0.8-0.2-0.7-0.7c0.1-0.8-0.1-1.2-1-1.3c-0.3-0.1-0.6-0.3-1.1-0.5
	c-0.2,0.2-0.4,0.5-0.6,0.7c-0.3,0.3-0.7,0.3-1,0c-0.4-0.4-0.9-0.9-1.3-1.3c-0.3-0.3-0.4-0.7,0-0.9c0.7-0.5,0.8-1,0.3-1.7
	c-0.1-0.1-0.1-0.2-0.1-0.4c-0.2-0.6-0.2-0.6-0.9-0.6c-0.9,0-1-0.1-1-1c0-0.5,0-1,0-1.5c0-0.4,0.2-0.7,0.7-0.7c0.3,0,0.7,0,1,0
	c0.3-0.7,0.5-1.3,0.8-2c-0.2-0.2-0.5-0.4-0.7-0.6c-0.4-0.4-0.4-0.6,0-1s0.9-0.9,1.3-1.3c0.3-0.3,0.7-0.3,0.9,0
	c0.5,0.7,0.9,0.6,1.7,0.3c0.7-0.3,1.2-0.6,1-1.4c-0.1-0.4,0.2-0.6,0.6-0.6c0.6,0,1.3,0,1.9,0c0.4,0,0.7,0.2,0.6,0.6
	c-0.1,0.8,0.3,1.1,1,1.4s1.2,0.4,1.7-0.3c0.2-0.3,0.6-0.3,0.9,0c0.5,0.4,0.9,0.9,1.4,1.4c0.3,0.3,0.3,0.6,0,0.9
	C115.8,117.7,115.6,117.9,115.3,118.1z M102.4,122.1c0.3,0,0.6,0,0.9,0c0.4,0,0.6,0.2,0.7,0.5c0.2,0.8,0.5,1.6,0.9,2.3
	c0.2,0.3,0.2,0.6-0.1,0.9c-0.2,0.2-0.4,0.4-0.7,0.6c0.2,0.2,0.4,0.4,0.6,0.6c0.2-0.2,0.4-0.5,0.7-0.7c0.2-0.2,0.5-0.3,0.8-0.1
	c0.7,0.5,1.5,0.8,2.3,0.9c0.4,0.1,0.5,0.3,0.5,0.7c0,0.3,0,0.6,0,0.9c0.3,0,0.6,0,0.8,0c0-0.1,0-0.1,0-0.1c0-0.2,0-0.5,0-0.7
	c0-0.5,0.2-0.6,0.6-0.8c0.7-0.2,1.4-0.5,2-0.8c0.5-0.2,0.7-0.3,1.1,0.1c0.2,0.2,0.3,0.4,0.5,0.6c0.2-0.2,0.3-0.3,0.4-0.4
	s0.2-0.2,0.3-0.3c-0.2-0.2-0.4-0.3-0.5-0.5c-0.4-0.4-0.4-0.6-0.1-1.1c0.3-0.7,0.6-1.4,0.8-2c0.2-0.5,0.3-0.6,0.8-0.6
	c0.3,0,0.6,0,0.8,0c0-0.3,0-0.5,0-0.8c-0.3,0-0.6,0-0.9,0c-0.4,0-0.6-0.2-0.7-0.5c-0.1-0.8-0.5-1.6-0.9-2.3
	c-0.2-0.3-0.2-0.6,0.1-0.9c0.2-0.2,0.4-0.4,0.7-0.6c-0.2-0.2-0.4-0.4-0.7-0.7c-0.2,0.2-0.4,0.5-0.5,0.7c-0.3,0.3-0.6,0.3-0.9,0.1
	c-0.7-0.5-1.4-0.8-2.2-0.9c-0.4-0.1-0.6-0.3-0.6-0.7c0-0.3,0-0.6,0-0.9c-0.3,0-0.6,0-0.8,0c0,0.3,0,0.6,0,0.9c0,0.4-0.2,0.6-0.5,0.7
	c-0.8,0.2-1.6,0.5-2.3,1c-0.3,0.2-0.6,0.2-0.8-0.1c-0.2-0.2-0.4-0.5-0.6-0.7c-0.3,0.2-0.5,0.4-0.7,0.6c0.2,0.2,0.4,0.4,0.6,0.6
	c0.4,0.4,0.3,0.6,0.1,1c-0.3,0.7-0.6,1.4-0.9,2.1c-0.2,0.5-0.3,0.6-0.8,0.6c-0.3,0-0.5,0-0.8,0C102.4,121.6,102.4,121.9,102.4,122.1
	z"/>
<path class="st0" d="M109.5,125.9c-2.3,0-4.2-1.9-4.2-4.2c0-2.3,1.9-4.2,4.2-4.2c2.4,0,4.2,1.9,4.2,4.3
	C113.7,124.1,111.8,125.9,109.5,125.9z M106.5,121.7c0,1.7,1.4,3,3,3c1.7,0,3-1.4,3-3c0-1.7-1.3-3-3-3S106.5,120,106.5,121.7z"/>
<path class="st0" d="M584.7,33.2c0.1-0.1,0.2-0.3,0.3-0.3c0.5-0.4,1.1,0,1.1,0.6c0.1,0.8,0.1,1.5,0.1,2.3c0,0.5-0.2,0.8-0.6,0.8
	s-0.7-0.2-0.8-0.7c-0.1-0.4-0.1-0.8-0.2-1.1C584.7,34.2,584.7,33.7,584.7,33.2z"/>
<path class="st0" d="M605.2,55.3c-0.6-0.1-1.3-0.2-1.9-0.3c-0.2,0-0.3,0-0.5-0.1c-0.4-0.1-0.5-0.4-0.5-0.8c0.1-0.4,0.3-0.6,0.7-0.6
	c0.9,0.1,1.8,0.2,2.6,0.3c0.3,0,0.5,0.3,0.6,0.6c0,0.4-0.2,0.6-0.6,0.8C605.6,55.3,605.3,55.3,605.2,55.3z"/>
<path class="st0" d="M607.8,55.3c-0.1-0.1-0.3-0.1-0.4-0.3c-0.1-0.2-0.2-0.5-0.1-0.7c0.1-0.3,0.4-0.5,0.7-0.5
	c0.7-0.1,1.4-0.2,2.2-0.3c0.5-0.1,0.9,0.1,0.9,0.6c0.1,0.4-0.2,0.8-0.7,0.9c-0.7,0.1-1.4,0.2-2.1,0.3
	C608.2,55.3,608.1,55.3,607.8,55.3z"/>
<path class="st0" d="M610.8,38.2c-0.4,0-0.7,0-1,0c-0.1,0-0.2,0.1-0.3,0.3c-1,1.9-2.5,2.8-4.6,2.8c-0.9,0-1.9,0-2.8,0
	c-0.1,0-0.3,0-0.5,0c0.2,0.5,0.3,1,0.4,1.5c0.1,0.3,0.2,0.6-0.1,0.9c-0.3,0.3-0.6,0.2-0.9,0c-1.3-0.6-2.5-1.4-3.2-2.8
	c-0.1-0.1-0.2-0.2-0.4-0.3c-1.8-1.1-2.7-3.1-2.3-5.2c0.3-2,1.9-3.6,3.9-4h0.1c0.9,0.1,1.1-0.4,1.3-1.1c0.8-2.3,2.9-3.9,5.4-4
	c2.4-0.1,4.8-0.1,7.3,0c3.1,0.1,5.5,2.4,5.8,5.5c0.2,2.4-0.8,4.3-2.9,5.6c-0.3,0.2-0.5,0.4-0.7,0.7c-0.7,1.3-1.8,2.1-3.1,2.7
	c-0.3,0.2-0.6,0.3-1,0.4c-0.3,0.1-0.6,0.1-0.8-0.1c-0.2-0.2-0.2-0.5-0.1-0.8C610.3,39.7,610.6,39,610.8,38.2z M608.2,38.2
	c-0.7,0-1.4,0-2,0c-0.8-0.1-1.5-0.2-2.3-0.4c-0.5-0.1-0.7-0.5-0.6-0.8c0.1-0.4,0.4-0.5,0.9-0.4c0.7,0.1,1.5,0.3,2.2,0.3
	c1.5,0,3.1,0,4.6,0c0.6,0,0.8,0.2,0.8,0.8s0,1.1,0,1.7c0.8-0.5,1.6-1.1,2.1-2c0.2-0.5,0.5-0.8,1-1c1.6-0.8,2.7-2.8,2.4-4.6
	c-0.3-2.4-2.2-4.2-4.7-4.2c-2.3,0-4.6,0-6.9,0c-1.9,0-3.3,1-4.2,2.6c-0.6,1.2-0.6,2.5-0.2,3.7c0.2,0.4,0,0.8-0.4,0.9
	c-0.4,0.1-0.7-0.1-0.8-0.5c-0.1-0.5-0.3-0.9-0.3-1.4c0-0.3-0.1-0.4-0.4-0.4c-1.6,0.1-2.9,1.3-3.3,2.9c-0.4,1.6,0.4,3.3,1.8,4
	c0.4,0.2,0.7,0.5,0.9,1c0.3,0.6,0.7,1,1.3,1.4c0-0.4,0-0.7,0-1c0-0.7,0.2-0.9,0.9-0.9c1.3,0,2.5,0,3.8,0
	C606.3,39.9,607.3,39.4,608.2,38.2z"/>
<path class="st0" d="M619.6,20.2c-0.7,0.7-1.1,1.5-1.2,2.4c-0.1,0.7,0,1.3,0,2c0,0.4,0.2,0.4,0.5,0.4c2.6,0,5.2,0,7.8,0l0,0
	c0.3,0,0.4-0.1,0.4-0.4c-0.1-0.9-0.1-1.8-0.2-2.7c0-0.5,0.1-0.8,0.5-0.9s0.7,0.1,0.8,0.6c0.3,1.2,0.3,2.3,0.2,3.5
	c0,0.7-0.8,1.2-1.6,1.2c-1.2,0-2.4,0-3.6,0c-1.4,0-2.9,0-4.3,0c-1.1,0-1.8-0.6-1.7-1.7c0-1,0-2,0.2-2.9c0.2-1,0.7-1.8,1.5-2.4
	c0.2-0.2,0.2-0.3,0.2-0.6c-0.4-2,0.8-3.9,2.8-4.4c1.8-0.5,3.9,0.6,4.4,2.3c0.7,2-0.2,4-2.1,4.8c-1.5,0.6-3.1,0.3-4.2-0.9
	C619.8,20.4,619.8,20.3,619.6,20.2z M622.6,15.5c-1.4,0-2.5,1.1-2.5,2.5s1.1,2.5,2.5,2.5s2.5-1.1,2.5-2.5S624.1,15.5,622.6,15.5z"/>
<path class="st0" d="M587.7,20.3c-0.7,0.7-1.1,1.5-1.2,2.5c0,0.6,0,1.2,0,1.8c0,0.4,0.1,0.5,0.5,0.5c2.3,0,4.7,0,7,0
	c0.2,0,0.5,0,0.7,0c0.3,0,0.5-0.1,0.5-0.4c-0.1-0.9-0.1-1.8-0.2-2.7c0-0.5,0.1-0.8,0.5-0.9s0.7,0.1,0.8,0.6c0.3,1.2,0.3,2.3,0.2,3.5
	c0,0.7-0.8,1.2-1.6,1.2c-1.5,0-3.1,0-4.6,0c-1.1,0-2.2,0-3.3,0s-1.8-0.6-1.7-1.7c0-1,0-2,0.2-3c0.2-1,0.8-1.8,1.5-2.4
	c0.2-0.2,0.2-0.3,0.2-0.5c-0.3-1.6,0.2-3,1.6-3.9c1.3-0.9,2.7-0.9,4.1-0.1c1.3,0.8,2,2.4,1.7,4c-0.3,1.5-1.6,2.8-3.1,3
	c-1.4,0.2-2.5-0.3-3.5-1.3C587.8,20.3,587.8,20.3,587.7,20.3C587.8,20.3,587.7,20.3,587.7,20.3z M590.7,15.5c-1.4,0-2.5,1.1-2.5,2.5
	s1.1,2.5,2.5,2.5s2.5-1.1,2.5-2.5S592.2,15.4,590.7,15.5z"/>
<path class="st0" d="M587.8,46.4c-0.8,0.8-1.2,1.6-1.3,2.6c0,0.6,0,1.2,0,1.8c0,0.4,0.2,0.5,0.5,0.5c2.3,0,4.7,0,7,0
	c0.3,0,0.5,0,0.8,0c0.3,0,0.4-0.1,0.4-0.4c-0.1-0.9-0.1-1.8-0.2-2.8c0-0.5,0.1-0.8,0.5-0.9c0.4-0.1,0.7,0.1,0.8,0.6
	c0.3,1.2,0.3,2.4,0.2,3.5c0,0.6-0.5,1-1.1,1.2c-0.2,0.1-0.5,0.1-0.7,0.1c-2.5,0-5.1,0-7.6,0c-1.3,0-1.9-0.6-1.9-1.8
	c0-0.9,0-1.9,0.2-2.8c0.2-1,0.8-1.8,1.5-2.4c0.2-0.2,0.2-0.3,0.2-0.5c-0.3-1.6,0.4-3.2,1.7-4c1.5-0.9,3.2-0.7,4.5,0.4
	c1.2,1.1,1.6,2.4,1.1,3.9s-1.5,2.4-3.1,2.6c-1.3,0.2-2.4-0.3-3.3-1.2C587.8,46.5,587.8,46.5,587.8,46.4z M590.7,41.6
	c-1.4,0-2.5,1.1-2.5,2.5s1.1,2.5,2.5,2.5s2.5-1.1,2.5-2.5C593.2,42.7,592.2,41.6,590.7,41.6z"/>
<path class="st0" d="M619.6,46.4c-0.7,0.7-1.1,1.5-1.2,2.4c-0.1,0.7,0,1.3,0,2c0,0.4,0.3,0.4,0.5,0.4c2.2,0,4.4,0,6.6,0
	c0.4,0,0.8,0,1.2,0c0.3,0,0.5-0.1,0.5-0.4c-0.1-0.9-0.1-1.8-0.2-2.7c0-0.5,0.1-0.8,0.5-0.9c0.4-0.1,0.6,0.1,0.8,0.6
	c0.3,1.2,0.3,2.4,0.2,3.5c0,0.6-0.5,1-1.1,1.2c-0.2,0.1-0.5,0.1-0.7,0.1c-2.5,0-5.1,0-7.6,0c-1.3,0-1.9-0.6-1.9-1.8
	c0-0.9,0-1.9,0.2-2.8c0.2-1,0.8-1.8,1.5-2.4c0.2-0.2,0.2-0.3,0.2-0.5c-0.4-1.9,0.7-3.7,2.4-4.3c1.9-0.6,3.8,0.2,4.7,2
	c1.1,2.2-0.5,5-3,5.3c-1.3,0.1-2.4-0.3-3.3-1.3C619.8,46.5,619.6,46.5,619.6,46.4z M622.6,41.6c-1.4,0-2.5,1.1-2.5,2.5
	s1.1,2.5,2.5,2.5s2.5-1.1,2.5-2.5C625.2,42.7,624.1,41.6,622.6,41.6z"/>
<path class="st0" d="M628.8,34.1c0,0.5-0.1,1.1-0.2,1.7c-0.1,0.5-0.4,0.7-0.8,0.7s-0.7-0.3-0.6-0.8c0-0.8,0.1-1.6,0.1-2.4
	c0-0.5,0.3-0.8,0.7-0.8s0.7,0.3,0.7,0.8C628.8,33.6,628.8,33.8,628.8,34.1z"/>
<path class="st0" d="M584.8,30.8c0.1-0.8,0.3-1.6,0.5-2.4c0.1-0.5,0.5-0.7,0.8-0.6c0.4,0.1,0.6,0.4,0.5,0.9
	c-0.1,0.8-0.3,1.5-0.4,2.3c-0.1,0.4-0.4,0.7-0.8,0.6C585.2,31.5,584.8,31.2,584.8,30.8z"/>
<path class="st0" d="M600.7,13.7c-0.4,0-0.6-0.2-0.7-0.5c-0.1-0.4,0-0.7,0.4-0.8c0.9-0.3,1.8-0.5,2.7-0.7c0.4-0.1,0.6,0.2,0.7,0.6
	c0.1,0.3-0.1,0.7-0.4,0.8C602.3,13.3,601.6,13.5,600.7,13.7z"/>
<path class="st0" d="M617.3,15.6c-0.1,0-0.1,0-0.2,0c-0.8-0.4-1.6-0.8-2.4-1.2c-0.3-0.1-0.4-0.5-0.3-0.7s0.3-0.4,0.6-0.5
	c0.1-0.1,0.3,0,0.4,0.1c0.7,0.4,1.5,0.7,2.2,1.1c0.3,0.2,0.5,0.5,0.3,0.8C617.8,15.3,617.6,15.5,617.3,15.6
	C617.3,15.7,617.3,15.6,617.3,15.6z"/>
<path class="st0" d="M606.7,12.8c-0.4,0-0.8,0-1.2,0c-0.5,0-0.8-0.3-0.8-0.7s0.3-0.7,0.7-0.7c0.8,0,1.6,0,2.4,0
	c0.5,0,0.8,0.3,0.8,0.7s-0.3,0.7-0.8,0.7C607.3,12.8,607.2,12.8,606.7,12.8L606.7,12.8z"/>
<path class="st0" d="M585.3,38.3c0.1-0.4,0.3-0.6,0.6-0.7c0.3-0.1,0.7,0.1,0.8,0.4c0.3,0.9,0.5,1.7,0.8,2.6c0.1,0.3-0.1,0.6-0.4,0.7
	c-0.3,0.1-0.7,0-0.8-0.3C585.8,40.1,585.6,39.2,585.3,38.3z"/>
<path class="st0" d="M628.2,38.3c-0.3,0.9-0.5,1.8-0.9,2.6c-0.1,0.3-0.5,0.4-0.8,0.3c-0.3-0.1-0.5-0.3-0.5-0.7c0-0.1,0-0.2,0.1-0.3
	c0.2-0.7,0.4-1.5,0.7-2.2c0.1-0.4,0.5-0.6,0.8-0.5C627.8,37.6,628.2,37.9,628.2,38.3z"/>
<path class="st0" d="M610.6,11.6c0.9,0.2,1.7,0.4,2.6,0.7c0.4,0.1,0.5,0.5,0.4,0.8c-0.1,0.4-0.4,0.6-0.8,0.5
	c-0.8-0.2-1.6-0.4-2.5-0.6c-0.4-0.1-0.6-0.5-0.5-0.8S610.2,11.7,610.6,11.6z"/>
<path class="st0" d="M628.6,30.7c0,0.5-0.2,0.8-0.6,0.8c-0.4,0.1-0.7-0.2-0.8-0.6c-0.1-0.8-0.3-1.5-0.4-2.3
	c-0.1-0.5,0.1-0.8,0.6-0.9c0.4-0.1,0.7,0.2,0.8,0.6C628.3,29.1,628.3,29.9,628.6,30.7z"/>
<path class="st0" d="M601.3,53.6c0,0.6-0.4,1-0.9,0.8c-0.8-0.3-1.6-0.6-2.5-0.9c-0.4-0.2-0.5-0.5-0.4-0.9c0.1-0.3,0.5-0.5,0.8-0.4
	c0.8,0.3,1.6,0.6,2.4,0.9C601.2,53.2,601.2,53.5,601.3,53.6z"/>
<path class="st0" d="M599.1,14c-0.1,0.1-0.2,0.4-0.4,0.5c-0.7,0.4-1.5,0.8-2.2,1.1c-0.3,0.2-0.7,0-0.9-0.3c-0.2-0.3-0.1-0.7,0.2-0.9
	c0.8-0.4,1.6-0.9,2.4-1.2C598.6,13,599.1,13.3,599.1,14z"/>
<path class="st0" d="M612.8,54.4c-0.4,0-0.6-0.2-0.7-0.5c-0.1-0.4,0-0.7,0.4-0.8c0.4-0.2,0.8-0.3,1.2-0.4c0.4-0.1,0.7-0.3,1.1-0.4
	c0.4-0.2,0.8,0,1,0.3c0.2,0.4,0,0.8-0.4,1c-0.8,0.3-1.5,0.6-2.3,0.8C613.1,54.4,612.8,54.4,612.8,54.4z"/>
<path class="st0" d="M32.9,141.7l-0.9,1v2.6h-1.4V137H32v3.9l0.8-1l2.4-2.9H37l-3.1,3.7l3.3,4.6h-1.7L32.9,141.7z"/>
<path class="st0" d="M44.5,145.3h-1.4l-3.7-5.9v5.9H38V137h1.4l3.7,5.9V137h1.4L44.5,145.3L44.5,145.3z"/>
<path class="st0" d="M52.9,141.4c0,0.8-0.1,1.5-0.4,2.2s-0.7,1.1-1.2,1.4c-0.5,0.3-1.1,0.5-1.8,0.5s-1.3-0.2-1.8-0.5
	s-0.9-0.8-1.2-1.4c-0.3-0.6-0.4-1.3-0.4-2.1V141c0-0.8,0.1-1.5,0.4-2.2s0.7-1.1,1.2-1.4c0.5-0.3,1.1-0.5,1.8-0.5s1.3,0.2,1.8,0.5
	s0.9,0.8,1.2,1.4s0.4,1.3,0.4,2.1V141.4L52.9,141.4z M51.4,140.9c0-0.9-0.2-1.6-0.5-2.1s-0.8-0.7-1.5-0.7c-0.6,0-1.1,0.2-1.5,0.7
	s-0.5,1.2-0.5,2.1v0.5c0,0.9,0.2,1.6,0.5,2.1s0.9,0.8,1.5,0.8s1.1-0.2,1.5-0.7c0.3-0.5,0.5-1.2,0.5-2.1V140.9z"/>
<path class="st0" d="M60.9,143.3l1.3-6.3h1.4l-1.9,8.3h-1.4l-1.6-6.1l-1.6,6.1h-1.4l-1.9-8.3h1.4l1.3,6.3l1.6-6.3h1.2L60.9,143.3z"
	/>
<path class="st0" d="M66.1,144.2h3.8v1.2h-5.2V137h1.4C66.1,137,66.1,144.2,66.1,144.2z"/>
<path class="st0" d="M75.9,141.6h-3.4v2.6h4v1.2H71V137h5.4v1.2h-4v2.3h3.4L75.9,141.6L75.9,141.6z"/>
<path class="st0" d="M77.6,145.3V137h2.5c0.7,0,1.4,0.2,2,0.5s1,0.8,1.3,1.4s0.5,1.3,0.5,2.1v0.4c0,0.8-0.2,1.5-0.5,2.1
	s-0.8,1.1-1.3,1.4s-1.2,0.5-2,0.5L77.6,145.3L77.6,145.3z M79.1,138.2v6H80c0.8,0,1.3-0.2,1.7-0.7c0.4-0.5,0.6-1.2,0.6-2V141
	c0-0.9-0.2-1.6-0.6-2.1s-1-0.7-1.7-0.7H79.1z"/>
<path class="st0" d="M91.7,144.2c-0.3,0.4-0.7,0.7-1.3,0.9c-0.5,0.2-1.1,0.3-1.8,0.3c-0.7,0-1.3-0.2-1.9-0.5c-0.5-0.3-1-0.8-1.2-1.4
	c-0.3-0.6-0.4-1.3-0.5-2.1v-0.7c0-1.3,0.3-2.2,0.9-3c0.6-0.7,1.4-1.1,2.5-1.1c0.9,0,1.7,0.2,2.2,0.7s0.9,1.1,1,2h-1.4
	c-0.2-1-0.7-1.5-1.7-1.5c-0.6,0-1.1,0.2-1.5,0.7c-0.3,0.5-0.5,1.2-0.5,2.1v0.6c0,0.9,0.2,1.6,0.6,2.1s0.9,0.7,1.6,0.7
	s1.3-0.2,1.6-0.5v-1.6h-1.7v-1.1h3.2L91.7,144.2L91.7,144.2z"/>
<path class="st0" d="M98.1,141.6h-3.4v2.6h4v1.2h-5.5V137h5.4v1.2h-4v2.3H98L98.1,141.6L98.1,141.6z"/>
<path class="st0" d="M266.3,50.2c0.3,0,0.6,0.1,0.8,0.3c0.2,0.2,0.3,0.4,0.3,0.7s-0.1,0.5-0.3,0.7c-0.2,0.2-0.4,0.3-0.8,0.3
	c-0.3,0-0.6-0.1-0.7-0.3s-0.3-0.4-0.3-0.7s0.1-0.5,0.3-0.7C265.7,50.3,266,50.2,266.3,50.2z"/>
<path class="st0" d="M270.4,50.2c0.3,0,0.6,0.1,0.8,0.3c0.2,0.2,0.3,0.4,0.3,0.7s-0.1,0.5-0.3,0.7c-0.2,0.2-0.4,0.3-0.8,0.3
	c-0.3,0-0.6-0.1-0.7-0.3s-0.3-0.4-0.3-0.7s0.1-0.5,0.3-0.7C269.8,50.3,270.1,50.2,270.4,50.2z"/>
<path class="st0" d="M274.5,50.2c0.3,0,0.6,0.1,0.8,0.3c0.2,0.2,0.3,0.4,0.3,0.7s-0.1,0.5-0.3,0.7c-0.2,0.2-0.4,0.3-0.8,0.3
	c-0.3,0-0.6-0.1-0.7-0.3s-0.3-0.4-0.3-0.7s0.1-0.5,0.3-0.7C273.9,50.3,274.2,50.2,274.5,50.2z"/>
<path class="st0" d="M278.6,50.2c0.3,0,0.6,0.1,0.8,0.3c0.2,0.2,0.3,0.4,0.3,0.7s-0.1,0.5-0.3,0.7c-0.2,0.2-0.4,0.3-0.8,0.3
	c-0.3,0-0.6-0.1-0.7-0.3s-0.3-0.4-0.3-0.7s0.1-0.5,0.3-0.7C278,50.3,278.3,50.2,278.6,50.2z"/>
<path class="st0" d="M282.7,50.2c0.3,0,0.6,0.1,0.8,0.3c0.2,0.2,0.3,0.4,0.3,0.7s-0.1,0.5-0.3,0.7c-0.2,0.2-0.4,0.3-0.8,0.3
	c-0.3,0-0.6-0.1-0.7-0.3s-0.3-0.4-0.3-0.7s0.1-0.5,0.3-0.7C282.1,50.3,282.4,50.2,282.7,50.2z"/>
<path class="st0" d="M286.8,50.2c0.3,0,0.6,0.1,0.8,0.3c0.2,0.2,0.3,0.4,0.3,0.7s-0.1,0.5-0.3,0.7c-0.2,0.2-0.4,0.3-0.8,0.3
	c-0.3,0-0.6-0.1-0.7-0.3s-0.3-0.4-0.3-0.7s0.1-0.5,0.3-0.7C286.2,50.3,286.4,50.2,286.8,50.2z"/>
<path class="st0" d="M290.9,50.2c0.3,0,0.6,0.1,0.8,0.3c0.2,0.2,0.3,0.4,0.3,0.7s-0.1,0.5-0.3,0.7c-0.2,0.2-0.4,0.3-0.8,0.3
	c-0.3,0-0.6-0.1-0.7-0.3s-0.3-0.4-0.3-0.7s0.1-0.5,0.3-0.7C290.3,50.3,290.5,50.2,290.9,50.2z"/>
<path class="st0" d="M295,50.2c0.3,0,0.6,0.1,0.8,0.3c0.2,0.2,0.3,0.4,0.3,0.7s-0.1,0.5-0.3,0.7c-0.2,0.2-0.4,0.3-0.8,0.3
	c-0.3,0-0.6-0.1-0.7-0.3s-0.3-0.4-0.3-0.7s0.1-0.5,0.3-0.7C294.4,50.3,294.6,50.2,295,50.2z"/>
<path class="st0" d="M299.1,50.2c0.3,0,0.6,0.1,0.8,0.3c0.2,0.2,0.3,0.4,0.3,0.7s-0.1,0.5-0.3,0.7c-0.2,0.2-0.4,0.3-0.8,0.3
	c-0.3,0-0.6-0.1-0.7-0.3s-0.3-0.4-0.3-0.7s0.1-0.5,0.3-0.7C298.5,50.3,298.7,50.2,299.1,50.2z"/>
<path class="st0" d="M303.1,50.2c0.3,0,0.6,0.1,0.8,0.3c0.2,0.2,0.3,0.4,0.3,0.7s-0.1,0.5-0.3,0.7c-0.2,0.2-0.4,0.3-0.8,0.3
	c-0.3,0-0.6-0.1-0.7-0.3s-0.3-0.4-0.3-0.7s0.1-0.5,0.3-0.7C302.6,50.3,302.8,50.2,303.1,50.2z"/>
<path class="st0" d="M307.2,50.2c0.3,0,0.6,0.1,0.8,0.3c0.2,0.2,0.3,0.4,0.3,0.7s-0.1,0.5-0.3,0.7c-0.2,0.2-0.4,0.3-0.8,0.3
	c-0.3,0-0.6-0.1-0.7-0.3s-0.3-0.4-0.3-0.7s0.1-0.5,0.3-0.7C306.7,50.3,306.9,50.2,307.2,50.2z"/>
<path class="st0" d="M311.3,50.2c0.3,0,0.6,0.1,0.8,0.3c0.2,0.2,0.3,0.4,0.3,0.7s-0.1,0.5-0.3,0.7c-0.2,0.2-0.4,0.3-0.8,0.3
	c-0.3,0-0.6-0.1-0.7-0.3s-0.3-0.4-0.3-0.7s0.1-0.5,0.3-0.7C310.8,50.3,311,50.2,311.3,50.2z"/>
<path class="st0" d="M315.4,50.2c0.3,0,0.6,0.1,0.8,0.3c0.2,0.2,0.3,0.4,0.3,0.7s-0.1,0.5-0.3,0.7c-0.2,0.2-0.4,0.3-0.8,0.3
	c-0.3,0-0.6-0.1-0.7-0.3s-0.3-0.4-0.3-0.7s0.1-0.5,0.3-0.7C314.9,50.3,315.1,50.2,315.4,50.2z"/>
<path class="st0" d="M319.5,50.2c0.3,0,0.6,0.1,0.8,0.3c0.2,0.2,0.3,0.4,0.3,0.7s-0.1,0.5-0.3,0.7c-0.2,0.2-0.4,0.3-0.8,0.3
	c-0.3,0-0.6-0.1-0.7-0.3s-0.3-0.4-0.3-0.7s0.1-0.5,0.3-0.7C319,50.3,319.2,50.2,319.5,50.2z"/>
<path class="st0" d="M323.6,50.2c0.3,0,0.6,0.1,0.8,0.3c0.2,0.2,0.3,0.4,0.3,0.7s-0.1,0.5-0.3,0.7c-0.2,0.2-0.4,0.3-0.8,0.3
	c-0.3,0-0.6-0.1-0.7-0.3s-0.3-0.4-0.3-0.7s0.1-0.5,0.3-0.7C323.1,50.3,323.3,50.2,323.6,50.2z"/>
<path class="st0" d="M99.7,150.3H53.6c-4,0-7.2,3.2-7.2,7.2v21.3c0,0.6,0.5,1.1,1.1,1.1l0,0c0.6,0,1.1-0.5,1.1-1.1v-21.3
	c0-2.8,2.2-5,5-5h46.1c0.6,0,1.1-0.5,1.1-1.1l0,0C100.7,150.7,100.3,150.3,99.7,150.3z"/>
<path class="st0" d="M571.6,243c-1.1-0.2-2.2-0.3-3.3-0.5c-2.2-0.3-4.3-0.7-6.5-1c-0.3,0-0.6-0.1-0.9-0.1c-1.8,0-3.6,0-5.5,0
	c-0.8,0-1.1-0.3-1.1-1.1c0-4,0-7.9,0-11.9c0-0.8,0.3-1.1,1.1-1.1c1.5,0,3.1,0,4.6,0c0.7,0,1.4-0.1,2.2-0.3s1.7-0.3,2.6-0.5
	c0.2,0,0.4-0.1,0.5-0.3c1.8-2.2,4.1-3.1,6.9-2.8c0.1,0,0.3,0,0.4-0.1c1.8-1.3,1.8-1.3,3.7-1.7c0-0.1,0-0.2,0-0.3c0-2.1,0-4.3,0-6.4
	c0-2.3-1-4.1-2.9-5.4c-0.3-0.2-0.5-0.2-0.8-0.1c-1.2,0.3-2.5,0.7-3.7,0.9c-3.8,0.5-7.3-1.8-8.4-5.5c-0.3-1.1-0.6-2.3-0.9-3.5
	c-0.1-0.5,0.1-1,0.6-1.1c1.4-0.4,2.9-0.9,4.4-1.1c4-0.6,7.5,1.9,8.6,5.8c0.2,0.9,0.5,1.7,0.7,2.6c0,0.2,0.1,0.3,0.3,0.4
	c1.3,0.8,2.3,1.9,3.1,3.2l0.1,0.1c0.4-0.6,0.8-1.2,1.2-1.6c0.6-0.6,1.2-1.1,1.8-1.6c0.2-0.1,0.3-0.3,0.4-0.6
	c0.2-0.8,0.5-1.7,0.7-2.5c1.2-4.3,5.3-6.7,9.7-5.6c1.1,0.3,2.1,0.6,3.1,0.8c0.6,0.2,0.9,0.6,0.7,1.2c-0.3,1-0.5,2.1-0.8,3.1
	c-1.2,4.3-5.4,6.7-9.7,5.6c-0.8-0.2-1.7-0.5-2.5-0.7c-0.2,0-0.5,0-0.7,0.1c-1.9,1.3-3,3-3,5.3c0,2.2,0,4.4,0,6.5c0,0.1,0,0.2,0,0.3
	c1.4,0.2,2.7,0.8,3.8,1.8c0.3,0.3,0.5,0.8,0.9,0.9c0.3,0.1,0.8-0.1,1.2-0.2c3.4-0.4,6.3,1.5,7.5,4.8c0,0.1,0.1,0.1,0.1,0.2
	c0.6-0.3,1.3-0.5,1.9-0.8c2.3-1.1,4.6,0.4,4.9,2.4c0,0,0,0.1,0.1,0.1c0,0.3,0,0.6,0,0.9c0,0.1-0.1,0.2-0.1,0.4
	c-0.3,0.9-0.8,1.7-1.7,2.1c-0.8,0.4-1.7,0.7-2.5,1.1c-0.5,0.2-1-0.1-1.1-0.6c-0.1-0.4,0.1-0.8,0.6-1c0.7-0.3,1.5-0.6,2.2-0.9
	c0.9-0.4,1.2-1.4,0.8-2.2s-1.3-1.1-2.2-0.8c-2.8,1.1-5.5,2.3-8.3,3.4c-0.6,0.3-1.3,0.5-1.9,0.8c0.6,1.3,0.4,2.5-0.5,3.7
	c0.2-0.1,0.3-0.1,0.4-0.2c0.8-0.3,1.5-0.6,2.3-0.9c0.5-0.2,1,0,1.1,0.5c0.2,0.4,0,0.9-0.5,1.1c-0.1,0.1-0.2,0.1-0.3,0.1
	c-2,0.8-4.1,1.7-6.1,2.5c-1.5,0.6-3,1.2-4.5,1.7c-0.7,0.2-1.5,0.3-2.2,0.4C573,243,572.3,243,571.6,243z M556,239.7
	c0.2,0,0.4,0,0.6,0c1.7,0,3.4-0.1,5.1,0.1c2.7,0.3,5.3,0.8,8,1.2c2.1,0.4,4.2,0.5,6.2-0.2c1.4-0.4,2.7-1,4.1-1.6
	c0.3-0.1,0.6-0.3,1-0.4c-0.4-0.1-0.7-0.1-1-0.2c-2.6-0.8-5.1-1.7-7.7-2.5c-0.5-0.1-1-0.2-1.5-0.2c-0.4,0-0.8,0-1.2,0
	c-0.5,0-0.8-0.4-0.8-0.8c0-0.4,0.3-0.8,0.7-0.8c1,0,1.9-0.2,2.9,0.1c2.7,0.9,5.4,1.7,8.1,2.6c0.3,0.1,0.5,0.1,0.8,0.1
	c0.7-0.1,1.2-0.5,1.3-1.2s-0.2-1.3-0.9-1.7c-2.8-1.5-5.6-2.9-8.4-4.4c-3.2-1.6-6.6-2-10.1-1.3c-0.8,0.2-1.6,0.4-2.3,0.5
	c-1.5,0.1-3,0-4.5,0c-0.2,0-0.3,0-0.5,0C556,232.6,556,236.2,556,239.7z M567.4,226.5c0.2,0,0.3,0.1,0.4,0.1
	c2.1,0.2,4.1,0.7,5.9,1.6c2.9,1.5,5.7,2.9,8.5,4.4c0.3,0.1,0.5,0.2,0.7,0c2.1-0.9,4.3-1.8,6.4-2.7c0.3-0.1,0.4-0.3,0.3-0.6
	c-0.9-2.8-4-4.3-6.8-3.2c-0.7,0.3-1,0.2-1.4-0.4c-1.9-2.8-5.7-3.2-8-0.8c-0.3,0.3-0.7,0.5-1.2,0.4
	C570.6,224.9,569,225.3,567.4,226.5z M593,201.7c-1-0.3-1.9-0.5-2.8-0.7c-2.8-0.7-5.8,0.8-6.9,3.5c-0.3,0.7-0.4,1.4-0.7,2.1
	c0.7-0.3,1.3-0.6,1.9-1c0.4-0.2,0.9-0.1,1.2,0.3c0.3,0.4,0.1,0.9-0.3,1.2c-0.5,0.3-1,0.6-1.5,0.9c-0.1,0.1-0.2,0.1-0.4,0.2
	c0.5,0.1,0.9,0.3,1.3,0.4c2.7,0.7,5.6-0.5,6.9-3C592.3,204.3,592.6,203,593,201.7z M561.4,201.6c0.2,0.8,0.4,1.5,0.6,2.2
	c0.8,3.4,4.4,6,8.8,4.2c-0.1-0.1-0.3-0.2-0.4-0.2c-0.5-0.3-1-0.6-1.5-0.9c-0.4-0.3-0.5-0.7-0.3-1.1c0.2-0.4,0.7-0.6,1.1-0.3
	c0.1,0.1,0.3,0.2,0.4,0.2c0.5,0.3,1,0.5,1.5,0.9c-0.1-0.6-0.3-1-0.4-1.5c-0.9-2.9-3.7-4.8-6.7-4.3
	C563.5,201,562.5,201.4,561.4,201.6z"/>
<path class="st0" d="M590.1,236.9c-0.5,0-0.8-0.4-0.9-0.8c0-0.5,0.4-0.9,0.9-0.9s0.8,0.4,0.8,0.9C591,236.5,590.6,236.9,590.1,236.9
	z"/>
<path class="st0" d="M796.1,135c0-0.1,0.1-0.2,0.1-0.3c0.4-1.4,1.6-2.4,3-2.4s2.7,0.8,3.2,2.2c0.1,0.3,0.2,0.4,0.5,0.5
	c1.3,0.4,2.2,1.6,2.2,2.9c0,2.7,0,5.4,0,8.2c0,0.5-0.3,0.7-0.6,0.7c-0.4,0-0.6-0.3-0.6-0.8c0-2.6,0-5.3,0-7.9c0-0.9-0.5-1.6-1.3-1.9
	c0,4.1,0,8.3,0,12.4c0.4-0.2,0.8-0.4,1.3-0.4c1.2-0.2,2.2,0.2,3.1,1c2.2,2.2,4.3,4.3,6.5,6.5c0.7,0.7,1.5,1.5,2.2,2.2
	c1.2,1.2,1.8,2.6,1.8,4.2c0,3.3,0,6.7,0,10c0,0.6-0.2,0.9-0.9,0.9c-5.6,0-11.3,0-16.9,0c-0.7,0-0.9-0.3-0.8-1
	c0.1-0.8,0.3-1.5,0.4-2.3c0.1-0.4,0.3-0.6,0.7-0.6c0.5,0,1.1,0,1.6,0c0.2,0,0.3,0,0.4-0.3c0.1-0.8,0.3-1.6,0.4-2.4
	c0-0.2,0-0.5-0.1-0.6c-1.6-2.7-3.2-5.3-4.8-8c-0.6-0.9-1.2-1.9-1.4-3C796.1,148.3,796.1,141.7,796.1,135z M816.2,169.3
	c0-0.1,0-0.2,0-0.3c0-2.2,0-4.5,0-6.7c0-1.3-0.5-2.5-1.5-3.4c-2-2-4-3.9-5.9-5.9c-1-1-1.9-1.9-2.9-2.9c-0.9-0.8-2.1-0.8-2.9,0.1
	c-0.7,0.8-0.6,1.9,0.2,2.7c2.9,2.9,5.7,5.7,8.6,8.6c0.1,0.1,0.2,0.2,0.3,0.3c0.2,0.3,0.2,0.7,0,0.9s-0.6,0.3-0.9,0
	c-0.1-0.1-0.2-0.2-0.2-0.2c-2.9-2.9-5.7-5.7-8.6-8.6c-0.8-0.8-1.2-1.7-1.1-2.8c0-4.5,0-9,0-13.4c0-0.7,0-1.4,0-2.1
	c0-0.9-0.6-1.6-1.4-1.9c-1.3-0.4-2.5,0.6-2.5,1.9c0,6.3,0,12.5,0,18.8c0,0.7,0.2,1.3,0.5,1.9c1.9,3.1,3.8,6.3,5.7,9.4
	c0.1,0.2,0.2,0.6,0.2,0.9c-0.1,0.9-0.3,1.8-0.5,2.8C807.6,169.3,811.9,169.3,816.2,169.3z M800.3,171.8c5.3,0,10.6,0,15.9,0
	c0-0.4,0-0.8,0-1.2c-5.2,0-10.4,0-15.7,0C800.4,171,800.3,171.4,800.3,171.8z"/>
<path class="st0" d="M819.9,129.4c2.9,0.8,4.8,3.6,4.6,6.6s-2.5,5.5-5.5,5.9c-3.5,0.5-6.8-1.9-7.3-5.3c-0.5-3.6,1.8-6.8,5.3-7.4
	C817.2,129.2,818.4,129,819.9,129.4z M818.1,130.4c-2.8,0-5.2,2.3-5.2,5.2c0,2.8,2.3,5.1,5.1,5.2c2.8,0,5.2-2.3,5.2-5.1
	C823.3,132.8,821,130.5,818.1,130.4z"/>
<path class="st0" d="M833.7,148.7c0-4.2,0-8.3,0-12.4c-0.6,0.1-1.2,0.8-1.3,1.6c0,0.4,0,0.7,0,1.1c0,2.3,0,4.6,0,7
	c0,0.2,0,0.4-0.1,0.5c-0.2,0.2-0.4,0.3-0.6,0.3c-0.2,0-0.4-0.3-0.5-0.5c-0.1-0.1,0-0.2,0-0.3c0-2.6,0-5.2,0-7.8
	c0-1.6,0.9-2.8,2.4-3.2c0.3-0.1,0.3-0.3,0.4-0.5c0.5-1.4,1.7-2.3,3.1-2.2c1.4,0,2.6,0.9,3,2.3c0.1,0.3,0.1,0.7,0.1,1.1
	c0,6.3,0,12.5,0,18.8c0,0.9-0.2,1.7-0.7,2.5c-1.8,3-3.7,6-5.5,9.1c-0.1,0.2-0.2,0.5-0.2,0.7c0.1,0.8,0.3,1.6,0.4,2.4
	c0,0.2,0.1,0.3,0.4,0.3c0.5,0,1.1,0,1.6,0c0.4,0,0.7,0.2,0.7,0.6c0.1,0.8,0.3,1.5,0.4,2.3c0.1,0.7-0.1,1-0.8,1c-5.6,0-11.3,0-16.9,0
	c-0.6,0-0.9-0.2-0.9-0.8c0-3.4,0-6.7,0-10.1c0-1.7,0.6-3.1,1.8-4.2c2.9-2.9,5.8-5.8,8.7-8.7c1.3-1.3,2.7-1.5,4.3-0.6
	C833.5,148.7,833.6,148.7,833.7,148.7z M832.9,169.3c0-0.1,0-0.3,0-0.4c-0.1-0.8-0.3-1.6-0.4-2.3c-0.1-0.4,0-0.7,0.2-1
	c1.9-3.1,3.7-6.1,5.6-9.2c0.4-0.7,0.6-1.4,0.6-2.2c0-6.1,0-12.3,0-18.4c0-0.1,0-0.3,0-0.4c-0.1-1-0.9-1.8-1.9-1.8
	c-1.1,0-1.9,0.9-1.9,2.1c0,5.2,0,10.3,0,15.5c0,1.1-0.4,2-1.1,2.7c-2.9,2.9-5.7,5.7-8.6,8.6c-0.1,0.1-0.2,0.2-0.3,0.3
	c-0.3,0.2-0.6,0.2-0.8-0.1c-0.2-0.2-0.3-0.5-0.1-0.8c0.1-0.1,0.2-0.2,0.3-0.3c2.8-2.8,5.7-5.7,8.5-8.5c0.1-0.1,0.3-0.3,0.4-0.4
	c0.9-1.1,0.3-2.7-1.1-3c-0.8-0.2-1.4,0.1-1.9,0.7c-2.9,2.9-5.8,5.8-8.7,8.7c-1,1-1.5,2.2-1.5,3.6c0,2.1,0,4.2,0,6.3
	c0,0.2,0,0.3,0,0.5C824.4,169.3,828.6,169.3,832.9,169.3z M836,171.8c-0.1-0.4-0.2-0.8-0.2-1.2c-5.3,0-10.5,0-15.7,0
	c0,0.4,0,0.8,0,1.2C825.4,171.8,830.7,171.8,836,171.8z"/>
<path class="st0" d="M818.1,152.3c-4.1-0.1-7.6-1.5-10.6-4.3c-0.3-0.3-0.4-0.6-0.3-1c0.4-2.1,2.2-3.7,4.4-3.7c4.3,0,8.6,0,13,0
	c2.2,0,4,1.6,4.4,3.7c0.1,0.4,0,0.7-0.3,1C825.7,150.9,822.2,152.3,818.1,152.3z M818.2,144.6c-2.2,0-4.3,0-6.5,0
	c-1.4,0-2.6,0.9-3,2.2c-0.1,0.3-0.1,0.5,0.2,0.7c5.2,4.8,13.5,4.8,18.7,0c0.2-0.2,0.2-0.3,0.2-0.6c-0.4-1.3-1.6-2.2-3.1-2.2
	C822.4,144.6,820.3,144.6,818.2,144.6z"/>
<path class="st0" d="M593.7,220.1v3.1h-1.4v-8.3h3.2c0.9,0,1.7,0.2,2.2,0.7s0.8,1.1,0.8,1.9c0,0.8-0.3,1.5-0.8,1.9
	c-0.5,0.5-1.3,0.7-2.3,0.7L593.7,220.1L593.7,220.1z M593.7,218.9h1.7c0.5,0,0.9-0.1,1.2-0.4c0.3-0.2,0.4-0.6,0.4-1.1
	s-0.1-0.8-0.4-1.1c-0.3-0.3-0.7-0.4-1.1-0.4h-1.8L593.7,218.9L593.7,218.9z"/>
<path class="st0" d="M604.6,219.4h-3.4v2.6h4v1.2h-5.5v-8.3h5.4v1.2h-4v2.3h3.4L604.6,219.4L604.6,219.4z"/>
<path class="st0" d="M609.4,219.9h-1.6v3.2h-1.4v-8.3h2.9c1,0,1.7,0.2,2.2,0.6c0.5,0.4,0.8,1.1,0.8,1.9c0,0.6-0.1,1-0.4,1.4
	c-0.3,0.4-0.6,0.7-1.1,0.9l1.9,3.5v0.1h-1.6L609.4,219.9z M607.8,218.8h1.5c0.5,0,0.9-0.1,1.1-0.4c0.3-0.2,0.4-0.6,0.4-1
	s-0.1-0.8-0.4-1c-0.3-0.2-0.6-0.4-1.1-0.4h-1.5V218.8z"/>
<path class="st0" d="M618,221c0-0.4-0.1-0.6-0.4-0.8c-0.3-0.2-0.7-0.4-1.4-0.6c-0.7-0.2-1.2-0.4-1.6-0.7c-0.8-0.5-1.1-1.1-1.1-1.9
	c0-0.7,0.3-1.2,0.8-1.7c0.5-0.4,1.3-0.7,2.1-0.7c0.6,0,1.1,0.1,1.6,0.3s0.8,0.5,1.1,0.9s0.4,0.8,0.4,1.3H618c0-0.4-0.1-0.8-0.4-1
	c-0.3-0.2-0.7-0.4-1.2-0.4s-0.8,0.1-1.1,0.3s-0.4,0.5-0.4,0.8s0.1,0.6,0.4,0.8s0.7,0.4,1.4,0.6c0.6,0.2,1.2,0.4,1.6,0.7
	c0.4,0.2,0.7,0.5,0.9,0.8s0.3,0.7,0.3,1.1c0,0.7-0.3,1.2-0.8,1.7c-0.5,0.4-1.3,0.6-2.2,0.6c-0.6,0-1.2-0.1-1.7-0.3s-0.9-0.5-1.2-0.9
	s-0.4-0.9-0.4-1.4h1.4c0,0.5,0.2,0.8,0.5,1.1s0.8,0.4,1.3,0.4s0.9-0.1,1.1-0.3C617.9,221.6,618,221.3,618,221z"/>
<path class="st0" d="M627.4,219.2c0,0.8-0.1,1.5-0.4,2.2s-0.7,1.1-1.2,1.4c-0.5,0.3-1.1,0.5-1.8,0.5s-1.3-0.2-1.8-0.5
	s-0.9-0.8-1.2-1.4c-0.3-0.6-0.4-1.3-0.4-2.1v-0.5c0-0.8,0.1-1.5,0.4-2.2s0.7-1.1,1.2-1.4s1.1-0.5,1.8-0.5s1.3,0.2,1.8,0.5
	s0.9,0.8,1.2,1.4c0.3,0.6,0.4,1.3,0.4,2.1V219.2L627.4,219.2z M625.9,218.8c0-0.9-0.2-1.6-0.5-2.1s-0.8-0.7-1.5-0.7
	c-0.6,0-1.1,0.2-1.5,0.7s-0.5,1.2-0.5,2.1v0.5c0,0.9,0.2,1.6,0.5,2.1c0.4,0.5,0.9,0.8,1.5,0.8s1.1-0.2,1.5-0.7
	c0.3-0.5,0.5-1.2,0.5-2.1V218.8L625.9,218.8z"/>
<path class="st0" d="M635.4,223.1H634l-3.7-5.9v5.9h-1.4v-8.3h1.4l3.7,5.9v-5.9h1.4V223.1L635.4,223.1z"/>
<path class="st0" d="M641.9,221.2h-3.2l-0.7,1.9h-1.5l3.1-8.3h1.3l3.2,8.3h-1.5L641.9,221.2z M639.1,220h2.4l-1.2-3.5L639.1,220z"/>
<path class="st0" d="M646.5,222h3.8v1.2h-5.2v-8.3h1.4V222z"/>
<path class="st0" d="M660.7,222.1c-0.3,0.4-0.7,0.7-1.3,0.9s-1.1,0.3-1.8,0.3s-1.3-0.2-1.9-0.5c-0.5-0.3-1-0.8-1.2-1.4
	c-0.3-0.6-0.4-1.3-0.5-2.1v-0.7c0-1.3,0.3-2.2,0.9-3c0.6-0.7,1.4-1.1,2.5-1.1c0.9,0,1.7,0.2,2.2,0.7s0.9,1.1,1,2h-1.4
	c-0.2-1-0.7-1.5-1.7-1.5c-0.6,0-1.1,0.2-1.5,0.7c-0.3,0.5-0.5,1.2-0.5,2.1v0.6c0,0.9,0.2,1.6,0.6,2.1c0.4,0.5,0.9,0.7,1.6,0.7
	c0.7,0,1.3-0.2,1.6-0.5V220h-1.7v-1.1h3.2L660.7,222.1L660.7,222.1z"/>
<path class="st0" d="M665.4,219.9h-1.6v3.2h-1.4v-8.3h2.9c1,0,1.7,0.2,2.2,0.6c0.5,0.4,0.8,1.1,0.8,1.9c0,0.6-0.1,1-0.4,1.4
	c-0.3,0.4-0.6,0.7-1.1,0.9l1.9,3.5v0.1H667L665.4,219.9z M663.8,218.8h1.5c0.5,0,0.9-0.1,1.1-0.4s0.4-0.6,0.4-1s-0.1-0.8-0.4-1
	c-0.3-0.2-0.6-0.4-1.1-0.4h-1.5V218.8z"/>
<path class="st0" d="M676.3,219.2c0,0.8-0.1,1.5-0.4,2.2c-0.3,0.6-0.7,1.1-1.2,1.4c-0.5,0.3-1.1,0.5-1.8,0.5s-1.3-0.2-1.8-0.5
	s-0.9-0.8-1.2-1.4c-0.3-0.6-0.4-1.3-0.4-2.1v-0.5c0-0.8,0.1-1.5,0.4-2.2c0.3-0.6,0.7-1.1,1.2-1.4c0.5-0.3,1.1-0.5,1.8-0.5
	s1.3,0.2,1.8,0.5s0.9,0.8,1.2,1.4c0.3,0.6,0.4,1.3,0.4,2.1V219.2z M674.8,218.8c0-0.9-0.2-1.6-0.5-2.1s-0.8-0.7-1.5-0.7
	c-0.6,0-1.1,0.2-1.5,0.7s-0.5,1.2-0.5,2.1v0.5c0,0.9,0.2,1.6,0.5,2.1c0.4,0.5,0.9,0.8,1.5,0.8s1.1-0.2,1.5-0.7
	c0.3-0.5,0.5-1.2,0.5-2.1V218.8z"/>
<path class="st0" d="M684.3,221.1l1.3-6.3h1.4l-1.9,8.3h-1.4l-1.6-6.1l-1.6,6.1h-1.4l-1.9-8.3h1.4l1.3,6.3l1.6-6.3h1.2L684.3,221.1z
	"/>
<path class="st0" d="M694.2,216h-2.6v7.2h-1.4V216h-2.6v-1.2h6.6V216z"/>
<path class="st0" d="M701.9,223.1h-1.4v-3.7h-3.7v3.7h-1.4v-8.3h1.4v3.5h3.7v-3.5h1.4V223.1z"/>
<path class="st0" d="M797.1,190v23.9c0,2.8-2.2,5-5,5h-29.6c-0.6,0-1.1,0.5-1.1,1.1l0,0c0,0.6,0.5,1.1,1.1,1.1h29.6
	c4,0,7.2-3.2,7.2-7.2V190c0-0.6-0.5-1.1-1.1-1.1l0,0C797.6,188.8,797.1,189.3,797.1,190z"/>
<circle class="st0" cx="754.8" cy="219.5" r="2.4"/>
<path class="st0" d="M747.1,220.6h-1.5c-0.6,0-1.1-0.5-1.1-1.1s0.5-1.1,1.1-1.1h1.5c0.6,0,1.1,0.5,1.1,1.1
	C748.2,220.1,747.7,220.6,747.1,220.6z M738.4,220.6h-1.5c-0.6,0-1.1-0.5-1.1-1.1s0.5-1.1,1.1-1.1h1.5c0.6,0,1.1,0.5,1.1,1.1
	S739,220.6,738.4,220.6z M729.7,220.6h-1.4c-0.6,0-1.1-0.5-1.1-1.1s0.5-1.1,1.1-1.1h1.4c0.6,0,1.1,0.5,1.1,1.1
	S730.3,220.6,729.7,220.6z M721,220.6h-1.5c-0.6,0-1.1-0.5-1.1-1.1s0.5-1.1,1.1-1.1h1.5c0.6,0,1.1,0.5,1.1,1.1
	S721.6,220.6,721,220.6z M712.3,220.6h-1.4c-0.6,0-1.1-0.5-1.1-1.1s0.5-1.1,1.1-1.1h1.4c0.6,0,1.1,0.5,1.1,1.1
	C713.4,220.1,712.9,220.6,712.3,220.6z"/>
<path class="st0" d="M108.4,219.5h-1.5c-0.6,0-1.1-0.5-1.1-1.1s0.5-1.1,1.1-1.1h1.5c0.6,0,1.1,0.5,1.1,1.1S109,219.5,108.4,219.5z
	 M116.6,219.5h-1.5c-0.6,0-1.1-0.5-1.1-1.1s0.5-1.1,1.1-1.1h1.5c0.6,0,1.1,0.5,1.1,1.1S117.2,219.5,116.6,219.5z M99.7,219.5h-1.5
	c-0.6,0-1.1-0.5-1.1-1.1s0.5-1.1,1.1-1.1h1.5c0.6,0,1.1,0.5,1.1,1.1S100.3,219.5,99.7,219.5z M91,219.5h-1.4c-0.6,0-1.1-0.5-1.1-1.1
	s0.5-1.1,1.1-1.1H91c0.6,0,1.1,0.5,1.1,1.1S91.6,219.5,91,219.5z M82.3,219.5h-1.5c-0.6,0-1.1-0.5-1.1-1.1s0.5-1.1,1.1-1.1h1.5
	c0.6,0,1.1,0.5,1.1,1.1S82.9,219.5,82.3,219.5z M73.6,219.5h-1.5c-0.6,0-1.1-0.5-1.1-1.1s0.5-1.1,1.1-1.1h1.5c0.6,0,1.1,0.5,1.1,1.1
	S74.2,219.5,73.6,219.5z M64.9,219.5h-1.5c-0.6,0-1.1-0.5-1.1-1.1s0.5-1.1,1.1-1.1h1.5c0.6,0,1.1,0.5,1.1,1.1S65.5,219.5,64.9,219.5
	z M56.2,219.5h-1.5c-0.6,0-1.1-0.5-1.1-1.1s0.5-1.1,1.1-1.1h1.5c0.6,0,1.1,0.5,1.1,1.1S56.8,219.5,56.2,219.5z M48.5,216.6
	c-0.4,0-0.7-0.2-0.9-0.5c-0.3-0.5-0.6-1-0.7-1.5c-0.2-0.6,0.1-1.2,0.7-1.4c0.6-0.2,1.2,0.1,1.4,0.7c0.1,0.4,0.3,0.7,0.5,1.1
	c0.3,0.5,0.2,1.2-0.3,1.5C48.9,216.5,48.7,216.6,48.5,216.6z M47.5,208.1c-0.6,0-1.1-0.5-1.1-1.1v-1.5c0-0.6,0.5-1.1,1.1-1.1
	s1.1,0.5,1.1,1.1v1.5C48.6,207.6,48.1,208.1,47.5,208.1z M47.5,199.4c-0.6,0-1.1-0.5-1.1-1.1v-1.5c0-0.6,0.5-1.1,1.1-1.1
	s1.1,0.5,1.1,1.1v1.5C48.6,198.9,48.1,199.4,47.5,199.4z M47.5,190.7c-0.6,0-1.1-0.5-1.1-1.1v-1.5c0-0.6,0.5-1.1,1.1-1.1
	s1.1,0.5,1.1,1.1v1.5C48.6,190.2,48.1,190.7,47.5,190.7z"/>
<path class="st0" d="M109.5,154.2c-1.7,0-3.2-1.4-3.2-3.2c0-1.7,1.4-3.2,3.2-3.2s3.2,1.4,3.2,3.2S111.2,154.2,109.5,154.2z
	 M109.5,149.4c-0.9,0-1.7,0.8-1.7,1.7s0.8,1.7,1.7,1.7c0.9,0,1.7-0.8,1.7-1.7C111.2,150.1,110.4,149.4,109.5,149.4z"/>
<path class="st0" d="M563.8,53.9c-1.7,0-3.2-1.4-3.2-3.2c0-1.7,1.4-3.2,3.2-3.2c1.7,0,3.2,1.4,3.2,3.2S565.6,53.9,563.8,53.9z
	 M563.8,49.1c-0.9,0-1.7,0.8-1.7,1.7s0.8,1.7,1.7,1.7s1.7-0.8,1.7-1.7C565.6,49.8,564.8,49.1,563.8,49.1z"/>
<path class="st0" d="M313.2,203.4c-1.7,0-3.2-1.4-3.2-3.2s1.4-3.2,3.2-3.2c1.7,0,3.2,1.4,3.2,3.2S314.9,203.4,313.2,203.4z
	 M313.2,198.5c-0.9,0-1.7,0.8-1.7,1.7s0.8,1.7,1.7,1.7c0.9,0,1.7-0.8,1.7-1.7S314.1,198.5,313.2,198.5z"/>
<path class="st0" d="M157.1,59.7c-1.7,0-3.2-1.4-3.2-3.2s1.4-3.2,3.2-3.2s3.2,1.4,3.2,3.2S158.9,59.7,157.1,59.7z M157.1,54.9
	c-0.9,0-1.7,0.8-1.7,1.7s0.8,1.7,1.7,1.7s1.7-0.8,1.7-1.7S158.1,54.9,157.1,54.9z"/>
<path class="st0" d="M27.4,140.3h-0.9v-0.9c0-0.4-0.3-0.7-0.7-0.7s-0.7,0.3-0.7,0.7v0.9h-0.9c-0.4,0-0.7,0.3-0.7,0.7
	s0.3,0.7,0.7,0.7h0.9v0.9c0,0.4,0.3,0.7,0.7,0.7s0.7-0.3,0.7-0.7v-0.9h0.9c0.4,0,0.7-0.3,0.7-0.7C28,140.5,27.7,140.3,27.4,140.3z"
	/>
<path class="st0" d="M320.4,209.8c0.3-0.6,0.5-1.2,0.8-1.8c1.2-3.1,2.4-6.1,3.6-9.2c0.4-1,1-1.3,2.1-0.9c1,0.4,2.1,0.8,3.1,1.2
	c0.6,0.3,1,0.7,1,1.4c0,0.1,0.1,0.3,0.2,0.3c0.8,0.4,1.7,0.6,2.6,0.6c1.8,0,3.6,0,5.4,0.6c0.1,0,0.3,0,0.4-0.1
	c0.2-0.1,0.3-0.3,0.4-0.4c0.9-0.9,1.9-1.2,3.2-1c0.7,0.1,1.4,0.2,2.1,0.3c0.5,0.1,0.7,0.3,0.7,0.7s-0.4,0.6-0.9,0.6
	c-0.8-0.1-1.6-0.2-2.3-0.4c-0.7-0.1-1.2,0.1-1.7,0.5c-1.9,1.8-3.8,3.6-6,5c-0.4,0.3-0.4,0.5,0,0.8c0.7,0.6,1.6,0.7,2.5,0.4
	c1.2-0.3,2.1-1,3-1.8c0.8-0.7,1.6-0.7,2.3,0.1c1.8,1.8,4,2.6,6.5,2.2c0.4-0.1,0.7,0,1,0.3c1.7,1.3,3.4,2.5,5.1,3.8
	c0.9-0.6,1.8-1.2,2.8-1.8c-1.2-3.1-2.4-6.2-3.7-9.3c-0.4,0.2-0.8,0.3-1.2,0.4c-1.3,0.6-2.6,0.7-4,0.4c-0.3-0.1-0.7-0.1-1-0.2
	c-0.4-0.1-0.7-0.3-0.6-0.7c0-0.4,0.3-0.6,0.8-0.5s0.9,0.1,1.4,0.2c0.9,0.2,1.8,0.1,2.6-0.2c0.4-0.2,0.9-0.3,1.3-0.5
	c0.1,0,0.2-0.2,0.2-0.3c0-0.7,0.3-1.1,0.9-1.4c1.1-0.4,2.2-0.9,3.3-1.3c0.8-0.3,1.5,0,1.8,0.8c0.5,1.4,1.1,2.7,1.6,4.1
	c0.2,0.5,0,0.8-0.3,1c-0.4,0.1-0.7,0-0.9-0.5c-0.5-1.2-1-2.5-1.5-3.7c-0.1-0.2-0.1-0.3-0.2-0.5c-1.2,0.5-2.3,0.9-3.5,1.4
	c1.5,3.7,2.9,7.5,4.4,11.2c1.2-0.5,2.4-0.9,3.6-1.4c-0.5-1.2-0.9-2.3-1.3-3.4c-0.1-0.2-0.2-0.4-0.3-0.7c-0.1-0.4,0-0.7,0.3-0.8
	s0.7,0,0.8,0.4c0.6,1.4,1.1,2.8,1.6,4.1c0.2,0.6-0.1,1.3-0.6,1.5c-1.2,0.5-2.5,1-3.7,1.5c-0.4,0.2-0.8,0-1.2-0.2
	c-0.1-0.1-0.3-0.1-0.4-0.1c-0.8,0.5-1.5,1-2.3,1.4c0.5,2.5-0.6,3.8-3,3.6c-0.5,1.8-1.2,2.3-3.1,2.4c-0.1,0.8-0.4,1.6-1.1,2
	c-0.7,0.5-1.5,0.5-2.3,0.3c-0.2,1.2-0.9,2-2.1,2.2c-1.2,0.3-2.1-0.5-3-1.2c-0.2,0.2-0.3,0.4-0.5,0.6c-0.6,0.7-1.4,1.1-2.4,0.8
	c-1-0.2-1.5-0.9-1.8-1.9c0-0.1-0.2-0.3-0.2-0.3c-1.4-0.1-2.2-0.8-2.4-2.2c-1.7-0.2-2.3-0.8-2.6-2.2c-2.3-0.4-3.1-1.7-2.3-3.6
	c-0.1-0.1-0.3-0.2-0.5-0.3c-0.8-0.5-1.7-1.1-2.5-1.6c-0.1-0.1-0.3,0-0.5,0c-0.4,0-0.8,0.2-1.1,0c-1.2-0.4-2.3-0.9-3.5-1.3
	c-0.4-0.2-0.7-0.5-0.9-0.9C320.4,210.3,320.4,210,320.4,209.8z M342.3,222.4c0.5,0.3,0.9,0.6,1.3,0.8c0.6,0.2,1.2-0.1,1.5-0.6
	c0.3-0.6,0.1-1.1-0.4-1.5c-0.3-0.3-0.7-0.5-1-0.8s-0.4-0.6-0.2-0.9c0.2-0.3,0.6-0.3,1-0.1c0.2,0.1,0.3,0.2,0.5,0.4
	c0.5,0.4,1.1,0.8,1.7,1.2s1.4,0.3,1.8-0.3s0.3-1.3-0.3-1.8c-0.5-0.4-1.1-0.8-1.6-1.2c-0.3-0.3-0.4-0.6-0.2-0.9
	c0.2-0.3,0.6-0.4,1-0.1c0.2,0.1,0.4,0.3,0.5,0.4c0.6,0.5,1.2,1,1.9,1.4c0.6,0.4,1.4,0.2,1.8-0.3c0.4-0.6,0.3-1.3-0.3-1.7
	c-0.6-0.5-1.2-1-1.9-1.4c-0.2-0.2-0.4-0.5-0.2-0.7c0.1-0.2,0.4-0.4,0.6-0.4c0.1,0,0.4,0.1,0.5,0.2c0.9,0.7,1.7,1.3,2.6,2
	c0.7,0.5,1.4,0.4,1.9-0.2c0.4-0.6,0.3-1.4-0.4-1.9c-1.6-1.2-3.2-2.4-4.8-3.5c-0.1-0.1-0.4-0.2-0.5-0.1c-2.8,0.3-5.2-0.6-7.1-2.6
	c-0.3-0.3-0.4-0.3-0.7,0c-1,0.9-2,1.6-3.3,2s-2.5,0.3-3.6-0.5c-1.2-0.9-1.1-2.2,0.1-3c1.2-0.9,2.4-1.8,3.6-2.8
	c0.1-0.1,0.2-0.1,0.3-0.2c0-0.1-0.1-0.1-0.1-0.2c-0.9-0.1-1.8-0.2-2.6-0.2c-1.1-0.1-2.1,0-3.2-0.2c-0.6-0.1-1.2-0.4-1.9-0.6
	c-1.2,3.2-2.5,6.3-3.7,9.5c1.1,0.7,2.2,1.4,3.3,2.1c0,0,0.1,0,0.1,0.1c0.3-0.4,0.7-0.8,1-1.2c1.2-1.3,3.4-0.8,3.9,0.9
	c0.1,0.2,0.1,0.4,0.1,0.5c1.6,0.1,2.2,0.6,2.6,2.2c0.6,0,1.2,0.1,1.7,0.6c0.5,0.4,0.7,1,0.8,1.6c1.1,0,1.9,0.4,2.4,1.4
	C343.3,220.6,343,221.5,342.3,222.4z M325.2,211.6c1.5-3.8,3-7.5,4.4-11.2c-1.2-0.5-2.4-0.9-3.6-1.4c-1.5,3.8-2.9,7.5-4.4,11.2
	C322.9,210.6,324,211.1,325.2,211.6z M331.4,216.9c0.1-0.1,0.4-0.1,0.6-0.3c0.6-0.7,1.2-1.4,1.8-2.1c0.3-0.4,0.2-1-0.2-1.4
	c-0.4-0.3-1-0.3-1.4,0.1c-0.6,0.7-1.2,1.4-1.8,2.1c-0.3,0.3-0.3,0.7-0.1,1.1C330.6,216.7,330.9,216.9,331.4,216.9z M336.6,216.2
	c-0.1-0.5-0.3-0.9-0.7-1c-0.4-0.2-0.9-0.1-1.2,0.3c-0.5,0.6-1.1,1.2-1.6,1.9c-0.4,0.5-0.4,1.1,0.1,1.5s1.1,0.3,1.5-0.2
	c0.5-0.6,1.1-1.2,1.6-1.8C336.4,216.7,336.5,216.5,336.6,216.2z M339.2,223.5c0.1-0.1,0.4-0.1,0.6-0.3c0.6-0.7,1.2-1.3,1.8-2
	c0.3-0.4,0.2-1-0.2-1.4c-0.4-0.3-1-0.4-1.4,0c-0.6,0.7-1.2,1.4-1.8,2.1c-0.3,0.3-0.2,0.7,0,1.1C338.4,223.4,338.7,223.5,339.2,223.5
	z M339.2,218.4c-0.1-0.5-0.3-0.8-0.7-1c-0.4-0.2-0.9-0.1-1.2,0.3c-0.5,0.6-1.1,1.2-1.6,1.8c-0.4,0.5-0.4,1.1,0.1,1.5
	s1.1,0.3,1.5-0.2c0.5-0.6,1-1.2,1.5-1.8C339,218.9,339.1,218.7,339.2,218.4z"/>
<path class="st0" d="M462.4,208.9h-7c-0.6,0-1.2,0.5-1.2,1.1l0,0c0,0.6,0.5,1.1,1.2,1.1h6.6c2.6,0,4.9,1.7,5.5,4.1
	c0.7,3.3-1.9,6.2-5.3,6.2h-92.9c-0.6,0-1.2,0.5-1.2,1.1l0,0c0,0.6,0.5,1.1,1.2,1.1h92.5c4,0,7.7-2.8,8.1-6.6
	C470.3,212.6,466.7,208.9,462.4,208.9z"/>
<path class="st0" d="M365.4,221.9h-0.9V221c0-0.4-0.3-0.7-0.7-0.7s-0.7,0.3-0.7,0.7v0.9h-0.9c-0.4,0-0.7,0.3-0.7,0.7
	s0.3,0.7,0.7,0.7h0.9v0.9c0,0.4,0.3,0.7,0.7,0.7s0.7-0.3,0.7-0.7v-0.9h0.9c0.4,0,0.7-0.3,0.7-0.7S365.8,221.9,365.4,221.9z"/>
<path class="st0" d="M368.2,206.8h2.1c1.9,0,3.5,0.5,3.5,2.6c0,2-1.6,2.6-3.5,2.6h-0.4v3.2h-1.7V206.8z M369.9,210.7h0.3
	c1.1,0,1.9-0.3,1.9-1.3s-0.7-1.3-1.9-1.3h-0.3V210.7z"/>
<path class="st0" d="M382.1,215.2h-1.8l-0.7-1.9H376l-0.7,1.9h-1.7l3.3-8.4h1.9L382.1,215.2z M378.4,210c-0.2-0.5-0.5-1.5-0.6-1.9
	l0,0c-0.1,0.4-0.4,1.4-0.6,1.9l-0.7,2h2.6L378.4,210z"/>
<path class="st0" d="M383.2,206.8h2.4c2.1,0,3.4,0.4,3.4,2.2c0,1.1-0.7,1.8-1.8,2l0,0c0.6,0.2,0.8,0.5,1.1,1.1l1.3,3.1h-1.9
	l-0.9-2.4c-0.3-0.9-0.5-1.1-1.5-1.1h-0.4v3.5h-1.7V206.8z M384.9,210.4h0.5c1.3,0,1.9-0.3,1.9-1.2s-0.7-1.1-1.9-1.1h-0.5V210.4z"/>
<path class="st0" d="M396.2,208.2h-2.3v7h-1.7v-7h-2.3v-1.4h6.3V208.2z"/>
<path class="st0" d="M402.9,206.8h1.5v8.4h-2.1l-2.1-4.1c-0.4-0.8-1-2-1.2-2.6l0,0c0,0.5,0.1,2.1,0.1,2.8v3.9h-1.5v-8.4h2.3l2.1,4.1
	c0.3,0.6,0.9,1.9,1.1,2.4l0,0c0-0.6-0.1-2.2-0.1-3.1L402.9,206.8L402.9,206.8z"/>
<path class="st0" d="M406.5,206.8h5v1.4h-3.3v2h3v1.4h-3v2.2h3.3v1.4h-5V206.8z"/>
<path class="st0" d="M413.2,206.8h2.4c2.1,0,3.4,0.4,3.4,2.2c0,1.1-0.7,1.8-1.8,2l0,0c0.6,0.2,0.8,0.5,1.1,1.1l1.3,3.1h-1.9
	l-0.9-2.4c-0.3-0.9-0.5-1.1-1.5-1.1h-0.4v3.5h-1.7V206.8z M414.9,210.4h0.5c1.3,0,1.9-0.3,1.9-1.2s-0.7-1.1-1.9-1.1h-0.5V210.4z"/>
<path class="st0" d="M425.2,208.3c-0.7-0.3-1.2-0.4-1.7-0.4c-0.9,0-1.5,0.4-1.5,0.9s0.3,0.8,1.5,1.3c1.6,0.6,2.2,1.3,2.2,2.5
	c0,1.6-1.2,2.6-3.2,2.6c-0.8,0-1.5-0.1-2.2-0.4l0.2-1.5c0.7,0.3,1.4,0.5,2,0.5c0.9,0,1.5-0.4,1.5-1s-0.3-1-1.6-1.4
	c-1.5-0.5-2.1-1.2-2.1-2.4c0-1.5,1.2-2.4,3-2.4c0.7,0,1.4,0.1,2,0.3L425.2,208.3z"/>
<path class="st0" d="M427.2,206.8h1.7v3.3h3.4v-3.3h1.7v8.4h-1.7v-3.6h-3.4v3.6h-1.7V206.8z"/>
<path class="st0" d="M436,206.8h1.7v8.4H436V206.8z"/>
<path class="st0" d="M439.7,206.8h2.1c1.9,0,3.5,0.5,3.5,2.6c0,2-1.6,2.6-3.5,2.6h-0.4v3.2h-1.7V206.8z M441.4,210.7h0.3
	c1.1,0,1.9-0.3,1.9-1.3s-0.7-1.3-1.9-1.3h-0.3V210.7z"/>
<path class="st0" d="M451.1,208.3c-0.7-0.3-1.2-0.4-1.7-0.4c-0.9,0-1.5,0.4-1.5,0.9s0.3,0.8,1.5,1.3c1.6,0.6,2.2,1.3,2.2,2.5
	c0,1.6-1.2,2.6-3.2,2.6c-0.8,0-1.5-0.1-2.2-0.4l0.2-1.5c0.7,0.3,1.4,0.5,2,0.5c0.9,0,1.5-0.4,1.5-1s-0.3-1-1.6-1.4
	c-1.5-0.5-2.1-1.2-2.1-2.4c0-1.5,1.2-2.4,3-2.4c0.7,0,1.4,0.1,2,0.3L451.1,208.3z"/>
<path class="st0" d="M799.2,225.8h-0.9v-0.9c0-0.4-0.3-0.7-0.7-0.7s-0.7,0.3-0.7,0.7v0.9H796c-0.4,0-0.7,0.3-0.7,0.7
	s0.3,0.7,0.7,0.7h0.9v0.9c0,0.4,0.3,0.7,0.7,0.7s0.7-0.3,0.7-0.7v-0.9h0.9c0.4,0,0.7-0.3,0.7-0.7S799.6,225.8,799.2,225.8z"/>
<path class="st0" d="M574.6,38.5h-0.9v-0.9c0-0.4-0.3-0.7-0.7-0.7s-0.7,0.3-0.7,0.7v0.9h-0.9c-0.4,0-0.7,0.3-0.7,0.7
	s0.3,0.7,0.7,0.7h0.9v0.9c0,0.4,0.3,0.7,0.7,0.7s0.7-0.3,0.7-0.7v-0.9h0.9c0.4,0,0.7-0.3,0.7-0.7S575.1,38.5,574.6,38.5z"/>
<path class="st0" d="M555.9,215.2H555v-0.9c0-0.4-0.3-0.7-0.7-0.7s-0.7,0.3-0.7,0.7v0.9h-0.9c-0.4,0-0.7,0.3-0.7,0.7
	s0.3,0.7,0.7,0.7h0.9v0.9c0,0.4,0.3,0.7,0.7,0.7s0.7-0.3,0.7-0.7v-0.9h0.9c0.4,0,0.7-0.3,0.7-0.7S556.3,215.2,555.9,215.2z"/>
<path class="st0" d="M333.5,50.5h-0.9v-0.9c0-0.4-0.3-0.7-0.7-0.7s-0.7,0.3-0.7,0.7v0.9h-0.9c-0.4,0-0.7,0.3-0.7,0.7
	s0.3,0.7,0.7,0.7h0.9v0.9c0,0.4,0.3,0.7,0.7,0.7s0.7-0.3,0.7-0.7v-0.9h0.9c0.4,0,0.7-0.3,0.7-0.7S333.8,50.5,333.5,50.5z"/>
<path class="st0" d="M127.1,217.7h-0.9v-0.9c0-0.4-0.3-0.7-0.7-0.7s-0.7,0.3-0.7,0.7v0.9h-0.9c-0.4,0-0.7,0.3-0.7,0.7
	s0.3,0.7,0.7,0.7h0.9v0.9c0,0.4,0.3,0.7,0.7,0.7s0.7-0.3,0.7-0.7v-1h0.9c0.4,0,0.7-0.3,0.7-0.7S127.5,217.7,127.1,217.7z"/>
<path class="st0" d="M809,212.8h-0.9v-0.9c0-0.4-0.3-0.7-0.7-0.7s-0.7,0.3-0.7,0.7v0.9h-0.9c-0.4,0-0.7,0.3-0.7,0.7s0.3,0.7,0.7,0.7
	h0.9v0.9c0,0.4,0.3,0.7,0.7,0.7s0.7-0.3,0.7-0.7v-0.9h0.9c0.4,0,0.7-0.3,0.7-0.7S809.4,212.8,809,212.8z"/>
<path class="st0" d="M780.8,178h2.1c1.9,0,3.5,0.5,3.5,2.6c0,2-1.6,2.6-3.5,2.6h-0.4v3.2h-1.7L780.8,178L780.8,178z M782.5,181.9
	h0.3c1.1,0,1.9-0.3,1.9-1.3s-0.7-1.3-1.9-1.3h-0.3V181.9z"/>
<path class="st0" d="M787.7,178h2.4c2.1,0,3.4,0.4,3.4,2.2c0,1.1-0.7,1.8-1.8,2l0,0c0.6,0.2,0.8,0.5,1.1,1.1l1.3,3.1h-1.9l-0.9-2.4
	c-0.3-0.9-0.5-1.1-1.5-1.1h-0.4v3.5h-1.7L787.7,178L787.7,178z M789.4,181.6h0.5c1.3,0,1.9-0.3,1.9-1.2s-0.7-1.1-1.9-1.1h-0.5V181.6
	z"/>
<path class="st0" d="M802.9,182.1c0,2.7-1.6,4.4-4.1,4.4s-4.1-1.7-4.1-4.3c0-2.8,1.5-4.3,4.2-4.3
	C801.4,177.9,802.9,179.5,802.9,182.1z M796.5,182.2c0,1.8,0.9,3,2.3,3c1.3,0,2.3-1.2,2.3-3c0-1.9-0.9-3-2.3-3
	C797.5,179.2,796.5,180.4,796.5,182.2z"/>
<path class="st0" d="M808.6,182c0.2,0.7,0.5,1.7,0.7,2.5l0,0c0.2-0.8,0.5-1.8,0.7-2.5l1.3-4h2.6v8.4h-1.6v-4.1c0-0.8,0-2.1,0-3.1
	l0,0c-0.2,0.8-0.6,2-0.8,2.6l-1.6,4.5h-1.5l-1.6-4.5c-0.1-0.4-0.6-2-0.8-2.7l0,0c0,1,0,2.3,0,3.1v4.1h-1.5V178h2.7L808.6,182z"/>
<path class="st0" d="M823.8,182.1c0,2.7-1.6,4.4-4.1,4.4s-4.1-1.7-4.1-4.3c0-2.8,1.5-4.3,4.2-4.3
	C822.2,177.9,823.8,179.5,823.8,182.1z M817.4,182.2c0,1.8,0.9,3,2.3,3c1.3,0,2.3-1.2,2.3-3c0-1.9-0.9-3-2.3-3
	C818.3,179.2,817.4,180.4,817.4,182.2z"/>
<path class="st0" d="M830.7,179.4h-2.3v7h-1.7v-7h-2.3V178h6.3V179.4z"/>
<path class="st0" d="M831.9,178h1.7v8.4h-1.7V178z"/>
<path class="st0" d="M843.4,182.1c0,2.7-1.6,4.4-4.1,4.4s-4.1-1.7-4.1-4.3c0-2.8,1.5-4.3,4.2-4.3
	C841.9,177.9,843.4,179.5,843.4,182.1z M837,182.2c0,1.8,0.9,3,2.3,3c1.3,0,2.3-1.2,2.3-3c0-1.9-0.9-3-2.3-3
	C838,179.2,837,180.4,837,182.2z"/>
<path class="st0" d="M850.5,178h1.5v8.4h-2.1l-2.1-4.1c-0.4-0.8-1-2-1.2-2.6l0,0c0,0.5,0.1,2.1,0.1,2.8v3.9H845V178h2.3l2.1,4.1
	c0.3,0.6,0.9,1.9,1.1,2.4l0,0c0-0.6-0.1-2.2-0.1-3.1V178H850.5z"/>
<path class="st0" d="M642.3,39c0,2.7-1.6,4.4-4.1,4.4s-4.1-1.7-4.1-4.3c0-2.8,1.5-4.3,4.2-4.3C640.8,34.7,642.3,36.3,642.3,39z
	 M636.1,39c0,1.8,0.9,3,2.3,3c1.3,0,2.3-1.2,2.3-3c0-1.9-0.9-3-2.3-3S636.1,37.2,636.1,39z"/>
<path class="st0" d="M643.9,34.8h2.1c1.9,0,3.5,0.5,3.5,2.6c0,2-1.6,2.6-3.5,2.6h-0.4v3.2h-1.7V34.8L643.9,34.8z M645.7,38.7h0.3
	c1.1,0,1.9-0.3,1.9-1.3s-0.7-1.3-1.9-1.3h-0.3V38.7z"/>
<path class="st0" d="M650.8,34.8h5v1.4h-3.3v2h3v1.4h-3v2.2h3.3v1.4h-5V34.8z"/>
<path class="st0" d="M663.1,34.8h1.5v8.4h-2.1l-2.1-4.1c-0.4-0.8-1-2-1.2-2.6l0,0c0,0.5,0.1,2.1,0.1,2.8v3.9h-1.5v-8.4h2.3l2.1,4.1
	c0.3,0.6,0.9,1.9,1.1,2.4l0,0c0-0.6-0.1-2.2-0.1-3.1L663.1,34.8L663.1,34.8z"/>
<path class="st0" d="M675.7,43c-0.5,0.2-1.2,0.3-2,0.3c-2.7,0-4.5-1.6-4.5-4.3c0-2.6,1.9-4.3,4.4-4.3c0.7,0,1.3,0.1,2,0.3l-0.1,1.5
	c-0.6-0.3-1.1-0.4-1.8-0.4c-1.7,0-2.8,1-2.8,2.9s1.2,2.9,2.8,2.9c0.6,0,1.2-0.1,1.8-0.3L675.7,43z"/>
<path class="st0" d="M684.7,39c0,2.7-1.6,4.4-4.1,4.4s-4.1-1.7-4.1-4.3c0-2.8,1.5-4.3,4.2-4.3C683.2,34.7,684.7,36.3,684.7,39z
	 M678.3,39c0,1.8,0.9,3,2.3,3c1.3,0,2.3-1.2,2.3-3c0-1.9-0.9-3-2.3-3C679.2,36,678.3,37.2,678.3,39z"/>
<path class="st0" d="M690.3,38.8c0.2,0.7,0.5,1.7,0.7,2.5l0,0c0.2-0.8,0.5-1.8,0.7-2.5l1.3-4h2.6v8.4h-1.6v-4.1c0-0.8,0-2.1,0-3.1
	l0,0c-0.2,0.8-0.6,2-0.8,2.6l-1.6,4.5h-1.5l-1.6-4.5c-0.1-0.4-0.6-2-0.8-2.7l0,0c0,1,0,2.3,0,3.1v4.1h-1.4v-8.4h2.7L690.3,38.8z"/>
<path class="st0" d="M701.8,38.8c0.2,0.7,0.5,1.7,0.7,2.5l0,0c0.2-0.8,0.5-1.8,0.7-2.5l1.3-4h2.6v8.4h-1.6v-4.1c0-0.8,0-2.1,0-3.1
	l0,0c-0.2,0.8-0.6,2-0.8,2.6l-1.6,4.5h-1.5l-1.6-4.5c-0.1-0.4-0.6-2-0.8-2.7l0,0c0,1,0,2.3,0,3.1v4.1h-1.5v-8.4h2.7L701.8,38.8z"/>
<path class="st0" d="M710.9,34.8v4.9c0,1.6,0.5,2.2,1.7,2.2c1.2,0,1.8-0.7,1.8-2.2v-4.9h1.6v5c0,2.3-1.2,3.5-3.4,3.5
	c-2.4,0-3.4-1.2-3.4-3.5v-5H710.9z"/>
<path class="st0" d="M723.4,34.8h1.5v8.4h-2.1l-2.1-4.1c-0.4-0.8-1-2-1.2-2.6l0,0c0,0.5,0.1,2.1,0.1,2.8v3.9h-1.5v-8.4h2.3l1.9,4.2
	c0.3,0.6,0.9,1.9,1.1,2.4l0,0c0-0.6-0.1-2.2-0.1-3.1L723.4,34.8L723.4,34.8z"/>
<path class="st0" d="M726.9,34.8h1.7v8.4h-1.7V34.8z"/>
<path class="st0" d="M736.8,43c-0.5,0.2-1.2,0.3-2,0.3c-2.7,0-4.5-1.6-4.5-4.3c0-2.6,1.9-4.3,4.4-4.3c0.7,0,1.3,0.1,2,0.3l-0.1,1.5
	c-0.6-0.3-1.1-0.4-1.8-0.4c-1.7,0-2.8,1-2.8,2.9s1.2,2.9,2.8,2.9c0.6,0,1.2-0.1,1.8-0.3L736.8,43z"/>
<path class="st0" d="M745.8,43.2H744l-0.7-1.9h-3.5l-0.7,1.9h-1.7l3.3-8.4h1.9L745.8,43.2z M741.9,38c-0.2-0.5-0.5-1.5-0.6-1.9l0,0
	c-0.1,0.4-0.4,1.4-0.6,1.9l-0.7,2h2.6L741.9,38z"/>
<path class="st0" d="M751.7,36.2h-2.3v7h-1.7v-7h-2.3v-1.4h6.3V36.2z"/>
<path class="st0" d="M752.9,34.8h1.7v8.4h-1.7V34.8z"/>
<path class="st0" d="M764.3,39c0,2.7-1.6,4.4-4.1,4.4s-4.1-1.7-4.1-4.3c0-2.8,1.5-4.3,4.2-4.3C762.8,34.7,764.3,36.3,764.3,39z
	 M758.1,39c0,1.8,0.9,3,2.3,3c1.3,0,2.3-1.2,2.3-3c0-1.9-0.9-3-2.3-3S758.1,37.2,758.1,39z"/>
<path class="st0" d="M771.4,34.8h1.5v8.4h-2.1l-2.1-4.1c-0.4-0.8-1-2-1.2-2.6l0,0c0,0.5,0.1,2.1,0.1,2.8v3.9h-1.5v-8.4h2.3l1.9,4.2
	c0.3,0.6,0.9,1.9,1.1,2.4l0,0c0-0.6-0.1-2.2-0.1-3.1L771.4,34.8L771.4,34.8z"/>
<g id="Layer_2_00000130605315559261501910000006690241001980698286_">
</g>
<g>
	<path class="st0" d="M158.1,210.8h5v1.4h-3.3v2h3v1.4h-3v2.2h3.3v1.4h-5V210.8z"/>
	<path class="st0" d="M170.3,210.8h1.5v8.4h-2.1l-2.1-4.1c-0.4-0.8-1-2-1.2-2.6l0,0c0,0.5,0.1,2.1,0.1,2.8v3.9H165v-8.4h2.3l2.1,4.1
		c0.3,0.6,0.9,1.9,1.1,2.4l0,0c0-0.6-0.1-2.2-0.1-3.1v-3.4L170.3,210.8L170.3,210.8z"/>
	<path class="st0" d="M179.9,218.9c-0.5,0.2-1.2,0.3-2,0.3c-2.7,0-4.5-1.6-4.5-4.3c0-2.6,1.9-4.3,4.4-4.3c0.7,0,1.3,0.1,2,0.3
		l-0.1,1.5c-0.6-0.3-1.1-0.4-1.8-0.4c-1.7,0-2.8,1-2.8,2.9s1.2,2.9,2.8,2.9c0.6,0,1.2-0.1,1.8-0.3L179.9,218.9z"/>
	<path class="st0" d="M188.9,214.9c0,2.7-1.6,4.4-4.1,4.4s-4.1-1.7-4.1-4.3c0-2.8,1.5-4.3,4.2-4.3
		C187.3,210.6,188.9,212.3,188.9,214.9z M182.5,215c0,1.8,0.9,3,2.3,3c1.3,0,2.3-1.2,2.3-3c0-1.9-0.9-3-2.3-3
		C183.4,211.9,182.5,213.1,182.5,215z"/>
	<path class="st0" d="M192.2,210.8v4.9c0,1.6,0.5,2.2,1.7,2.2s1.8-0.7,1.8-2.2v-4.9h1.6v5c0,2.3-1.2,3.5-3.4,3.5
		c-2.4,0-3.4-1.2-3.4-3.5v-5H192.2z"/>
	<path class="st0" d="M199.2,210.8h2.4c2.1,0,3.4,0.4,3.4,2.2c0,1.1-0.7,1.8-1.8,2l0,0c0.6,0.2,0.8,0.5,1.1,1.1l1.3,3.1h-1.9
		l-0.9-2.4c-0.3-0.9-0.5-1.1-1.5-1.1h-0.4v3.5h-1.7L199.2,210.8L199.2,210.8z M200.9,214.4h0.5c1.3,0,1.9-0.3,1.9-1.2
		s-0.7-1.1-1.9-1.1h-0.5V214.4z"/>
	<path class="st0" d="M214.3,219.1h-1.8l-0.7-1.9h-3.5l-0.7,1.9h-1.7l3.3-8.4h1.9L214.3,219.1z M210.6,214c-0.2-0.5-0.5-1.5-0.6-1.9
		l0,0c-0.1,0.4-0.4,1.4-0.6,1.9l-0.7,2h2.6L210.6,214z"/>
	<path class="st0" d="M221.8,212.5c-0.5-0.3-1.4-0.5-2.2-0.5c-1.8,0-2.9,1.1-2.9,2.9c0,1.7,1,2.9,2.9,2.9c0.3,0,0.7,0,1-0.1v-2.1
		h-1.8v-1.3h3.4v4.5c-0.9,0.3-1.9,0.4-2.8,0.4c-2.6,0-4.5-1.6-4.5-4.3c0-2.6,1.8-4.2,4.8-4.2c0.8,0,1.6,0.1,2.3,0.3L221.8,212.5z"/>
	<path class="st0" d="M224,210.8h5v1.4h-3.3v2h3v1.4h-3v2.2h3.3v1.4h-5V210.8z"/>
	<path class="st0" d="M234.7,214.8c0.2,0.7,0.5,1.7,0.7,2.5l0,0c0.2-0.8,0.5-1.8,0.7-2.5l1.3-4h2.6v8.4h-1.6V215c0-0.8,0-2.1,0-3.1
		l0,0c-0.2,0.8-0.6,2-0.8,2.6L236,219h-1.5l-1.6-4.5c-0.1-0.4-0.6-2-0.8-2.7l0,0c0,1,0,2.3,0,3.1v4.1h-1.5v-8.4h2.7L234.7,214.8z"/>
	<path class="st0" d="M242.2,210.8h5v1.4h-3.3v2h3v1.4h-3v2.2h3.3v1.4h-5V210.8z"/>
	<path class="st0" d="M254.4,210.8h1.5v8.4h-2.1l-2.1-4.1c-0.4-0.8-1-2-1.2-2.6l0,0c0,0.5,0.1,2.1,0.1,2.8v3.9h-1.5v-8.4h2.3
		l2.1,4.1c0.3,0.6,0.9,1.9,1.1,2.4l0,0c0-0.6-0.1-2.2-0.1-3.1v-3.4L254.4,210.8L254.4,210.8z"/>
	<path class="st0" d="M263.5,212.2h-2.3v7h-1.7v-7h-2.3v-1.4h6.3V212.2z"/>
</g>
<g>
	<path class="st0" d="M271.7,35.3h-2.3v7h-1.7v-7h-2.3v-1.4h6.3V35.3z"/>
	<path class="st0" d="M272.9,33.9h2.4c2.1,0,3.4,0.4,3.4,2.2c0,1.1-0.7,1.8-1.8,2l0,0c0.6,0.2,0.8,0.5,1.1,1.1l1.3,3.1h-1.9
		l-0.9-2.4c-0.3-0.9-0.5-1.1-1.5-1.1h-0.4v3.5h-1.7V33.9z M274.6,37.5h0.5c1.3,0,1.9-0.3,1.9-1.2s-0.7-1.1-1.9-1.1h-0.5V37.5z"/>
	<path class="st0" d="M282,33.9v4.9c0,1.6,0.5,2.2,1.7,2.2s1.8-0.7,1.8-2.2v-4.9h1.6v5c0,2.3-1.2,3.5-3.4,3.5
		c-2.4,0-3.4-1.2-3.4-3.5v-5H282z"/>
	<path class="st0" d="M293.5,35.4c-0.7-0.3-1.2-0.4-1.7-0.4c-0.9,0-1.5,0.4-1.5,0.9s0.3,0.8,1.5,1.3c1.6,0.6,2.2,1.3,2.2,2.5
		c0,1.6-1.2,2.6-3.2,2.6c-0.8,0-1.5-0.1-2.2-0.4l0.2-1.5c0.7,0.3,1.4,0.5,2,0.5c0.9,0,1.5-0.4,1.5-1s-0.3-1-1.6-1.4
		c-1.5-0.5-2.1-1.2-2.1-2.4c0-1.5,1.2-2.4,3-2.4c0.7,0,1.4,0.1,2,0.3L293.5,35.4z"/>
	<path class="st0" d="M301.2,35.3h-2.3v7h-1.7v-7h-2.3v-1.4h6.3V35.3z"/>
</g>
<g>
	<path class="st0" d="M260.5,20.6c-0.3,1-0.4,1.9-0.5,2.9c-0.5,3-1.1,6.1-1.6,9.1c-0.1,0.8-0.5,1.6-1,2.3c-1,1.4-1.9,2.9-2.9,4.3
		c-0.2,0.2-0.2,0.5-0.2,0.7c0,0.4,0,0.9,0,1.3c0,0.3,0.1,0.5,0.4,0.5h0.1c0.5,0,0.7,0.2,0.7,0.7c0,1.2,0,2.5,0,3.7
		c0,0.3-0.1,0.5-0.4,0.6c-0.2,0.1-0.2,0.2-0.2,0.4c0,0.9,0,1.8,0,2.6c0,0.6-0.2,0.8-0.8,0.8c-3.6,0-7.3,0-10.9,0
		c-0.6,0-0.9-0.2-0.9-0.8c0-0.9,0-1.7,0-2.6c0-0.2,0-0.3-0.3-0.4c-0.3-0.1-0.4-0.3-0.4-0.6c0-1.2,0-2.5,0-3.7c0-0.5,0.3-0.7,0.8-0.7
		c0.4,0,0.5-0.1,0.5-0.5c0-1.4,0-2.8,0-4.2c0.1-1.3,0.6-2.5,1.5-3.5c2.4-2.4,4.7-4.8,7.1-7.1c0.8-0.8,1.7-0.9,2.8-0.5
		c0.2-1.4,0.5-2.8,0.7-4.1c0.1-0.6,0.2-1.3,0.3-1.9c0.2-1.2,1.2-2.1,2.3-2.1c1.3-0.1,2.3,0.7,2.6,1.9c0,0,0,0.1,0.1,0.1
		C260.5,20,260.5,20.3,260.5,20.6z M248.6,41.7c1.4,0,2.7,0,4.1,0c0.3,0,0.4-0.1,0.4-0.3c0-0.6,0-1.2,0-1.7c0-0.3,0.1-0.6,0.3-0.8
		c1-1.5,2.1-3.1,3.1-4.6c0.4-0.6,0.6-1.2,0.8-1.8c0.7-3.9,1.4-7.9,2.1-11.8c0.1-0.7-0.3-1.4-1-1.5s-1.3,0.4-1.4,1.1
		c-0.4,2.2-0.8,4.4-1.2,6.6c0,0.1,0,0.3,0.1,0.4c0.5,1.1,0.4,2.2-0.5,3.1c-1.6,1.6-3.1,3.1-4.7,4.7c-0.4,0.4-0.7,0.4-1,0.1
		c-0.3-0.3-0.2-0.7,0.1-1c0.1-0.1,0.1-0.1,0.2-0.2c1.5-1.5,3-3,4.5-4.6c0.5-0.5,0.5-1.3,0-1.8s-1.3-0.5-1.8,0
		c-2.4,2.4-4.7,4.7-7.1,7.1c-0.7,0.7-1.1,1.7-1.2,2.7c0,1.4,0,2.8,0,4.1c0,0.3,0.1,0.4,0.4,0.4C245.9,41.7,247.3,41.7,248.6,41.7z
		 M248.6,45.4c1.8,0,3.6,0,5.4,0c0.3,0,0.4-0.1,0.4-0.3c0-0.6,0-1.2,0-1.9c0-0.3-0.1-0.3-0.3-0.3c-3.6,0-7.2,0-10.7,0
		c-0.3,0-0.3,0.1-0.3,0.3c0,0.6,0,1.2,0,1.8c0,0.3,0.1,0.4,0.4,0.4C245,45.4,246.8,45.5,248.6,45.4z M248.6,46.7c-1.6,0-3.1,0-4.7,0
		c-0.3,0-0.4,0.1-0.4,0.4c0,0.6,0,1.2,0,1.9c0,0.2,0,0.3,0.3,0.3c3.2,0,6.4,0,9.5,0c0.2,0,0.3-0.1,0.3-0.3c0-0.6,0-1.3,0-1.9
		c0-0.3-0.1-0.3-0.4-0.3C251.7,46.7,250.2,46.7,248.6,46.7z"/>
	<path class="st0" d="M226.2,25.9c1.3-0.5,2.2-0.1,3.1,0.9c2.1,2.2,4.3,4.3,6.5,6.5c1.3,1.2,1.9,2.7,1.9,4.5c0,1.2,0,2.4,0,3.6
		c0,0.3,0,0.4,0.4,0.4c0.7,0,0.9,0.2,0.9,0.9c0,1.1,0,2.2,0,3.3c0,0.4-0.1,0.7-0.5,0.8c-0.2,0.1-0.1,0.2-0.1,0.4c0,0.9,0,1.7,0,2.6
		c0,0.6-0.2,0.8-0.9,0.8c-3.6,0-7.3,0-10.9,0c-0.6,0-0.8-0.2-0.8-0.8c0-0.9,0-1.7,0-2.6c0-0.2,0-0.3-0.3-0.4
		c-0.3-0.1-0.4-0.3-0.4-0.6c0-1.2,0-2.5,0-3.7c0-0.5,0.3-0.7,0.8-0.6c0.4,0,0.5-0.1,0.5-0.5c0.1-1.2-0.2-2.2-0.9-3.1
		c-0.7-0.9-1.2-1.8-1.8-2.7c-0.8-1.1-1.3-2.3-1.5-3.7c-0.6-3.7-1.3-7.4-1.9-11.1c-0.2-1.4,0.6-2.6,2-2.9c1.3-0.3,2.6,0.6,2.9,1.9
		c0.3,1.5,0.5,2.9,0.8,4.4C225.9,24.6,226.1,25.2,226.2,25.9z M232,41.7c1.3,0,2.7,0,4,0c0.3,0,0.4-0.1,0.4-0.4c0-1.2,0-2.4,0-3.6
		c0-1.4-0.5-2.6-1.5-3.5c-1.7-1.6-3.3-3.3-4.9-4.9c-0.6-0.6-1.3-1.3-1.9-1.9c-0.7-0.7-1.8-0.4-2.1,0.5c-0.1,0.5,0,0.9,0.4,1.3
		c1.6,1.6,3.1,3.1,4.7,4.7c0.4,0.4,0.4,0.7,0.1,1c-0.3,0.3-0.7,0.2-1-0.1c-1.6-1.6-3.2-3.2-4.8-4.8c-0.8-0.8-1-1.9-0.5-2.9
		c0.1-0.1,0.1-0.3,0.1-0.4c-0.4-2.2-0.8-4.3-1.2-6.5c-0.1-0.8-0.7-1.3-1.4-1.1c-0.8,0.1-1.2,0.8-1,1.6c0.6,3.5,1.2,7,1.9,10.6
		c0.2,1.1,0.4,2.2,1,3.1c0.7,1,1.4,2.2,2.1,3.2c0.9,1.1,1.3,2.4,1.1,3.8v0.1c0,0.3,0.1,0.4,0.4,0.3C229.2,41.7,230.6,41.7,232,41.7z
		 M232,42.9c-1.8,0-3.5,0-5.3,0c-0.2,0-0.4,0-0.4,0.3c0,0.7,0,1.3,0,2c0,0.2,0.1,0.3,0.3,0.3c3.6,0,7.2,0,10.8,0
		c0.2,0,0.3-0.1,0.3-0.3c0-0.6,0-1.3,0-1.9c0-0.3-0.1-0.4-0.4-0.3C235.5,42.9,233.7,42.9,232,42.9z M232,46.7c-1.6,0-3.1,0-4.7,0
		c-0.3,0-0.4,0.1-0.4,0.3c0,0.6,0,1.2,0,1.9c0,0.3,0.1,0.3,0.3,0.3c3.2,0,6.3,0,9.5,0c0.2,0,0.3-0.1,0.3-0.3c0-0.6,0-1.2,0-1.9
		c0-0.3-0.1-0.4-0.4-0.4C235.1,46.7,233.5,46.7,232,46.7z"/>
	<path class="st0" d="M249.1,18.8c0,1.2,0.1,2.6-0.1,4.1c-0.4,3.6-2.2,6.3-5.3,8.2c-1,0.6-2,1.1-3,1.6c-0.3,0.2-0.6,0.2-0.9,0
		c-1-0.5-2-1-2.9-1.6c-3.6-2.1-5.4-5.3-5.5-9.4c0-2.3,0-4.6,0-6.9c0-0.7,0.2-0.8,0.8-0.9c2.7-0.1,5.2-0.8,7.4-2.3
		c0.4-0.3,0.7-0.3,1.1,0c2.3,1.5,4.8,2.2,7.5,2.3c0.6,0,0.8,0.2,0.8,0.8C249.1,16,249.1,17.3,249.1,18.8z M232.7,18.9L232.7,18.9
		c0,1,0,2.1,0,3.1c0.1,2.9,1.3,5.4,3.6,7.2c1.2,0.9,2.6,1.5,3.8,2.2c0.2,0.1,0.3,0,0.4-0.1c0.8-0.4,1.6-0.8,2.4-1.3
		c3.2-1.9,4.9-4.7,4.9-8.4c0-2.1,0-4.1,0-6.2c0-0.2,0-0.3-0.3-0.4c-2.5-0.2-4.9-0.9-7.1-2.2c-0.2-0.1-0.3-0.1-0.4,0
		c-2.2,1.3-4.5,2.1-7,2.2c-0.3,0-0.3,0.1-0.3,0.4C232.7,16.6,232.7,17.8,232.7,18.9z"/>
	<path class="st0" d="M234,19.6c0-0.9,0-1.7,0-2.6c0-0.5,0.2-0.7,0.6-0.8c1.9-0.3,3.7-0.9,5.3-1.8c0.2-0.1,0.5-0.1,0.7,0
		c1.7,0.9,3.5,1.5,5.3,1.8c0.4,0.1,0.6,0.3,0.6,0.7c0,1.6,0,3.3,0,4.9c-0.1,3-1.4,5.3-3.9,6.8c-0.6,0.4-1.3,0.7-2,1.1
		c-0.2,0.1-0.4,0.2-0.6,0.1c-1.3-0.7-2.7-1.3-3.8-2.5c-1.4-1.5-2.2-3.3-2.3-5.4C233.9,21.2,234,20.4,234,19.6L234,19.6z M235.2,20
		L235.2,20c0,0.6,0,1.3,0,1.9c0,1.5,0.5,2.8,1.3,4c0.9,1.3,2.2,2,3.6,2.7c0.1,0.1,0.2,0,0.4,0c0.4-0.2,0.9-0.5,1.3-0.7
		c2-1.2,3.2-2.9,3.4-5.2c0.2-1.6,0-3.3,0.1-5c0-0.2-0.1-0.2-0.3-0.2c-1.6-0.3-3.1-0.8-4.5-1.6c-0.2-0.1-0.3-0.1-0.5,0
		c-1.4,0.7-2.9,1.2-4.5,1.6c-0.2,0-0.3,0.1-0.3,0.3C235.2,18.4,235.2,19.2,235.2,20z"/>
	<path class="st0" d="M239.4,24.6c-0.2,0-0.4-0.1-0.5-0.2c-0.5-0.5-1.1-1.1-1.6-1.6c-0.3-0.3-0.3-0.7-0.1-0.9c0.3-0.3,0.6-0.3,1,0.1
		c0.3,0.3,0.7,0.7,1,1c0.2,0.2,0.3,0.2,0.5,0c0.9-0.9,1.8-1.8,2.8-2.8c0.2-0.2,0.4-0.3,0.6-0.3c0.3,0,0.4,0.1,0.5,0.4
		c0.1,0.2,0.1,0.5-0.1,0.7c-0.2,0.3-0.5,0.5-0.7,0.7c-0.9,0.9-1.8,1.8-2.7,2.7C239.8,24.4,239.6,24.6,239.4,24.6z"/>
</g>
<g>
	<path class="st0" d="M502.4,41.9c-0.2,3.8-4.5,6.6-8.9,6.6h-62.6c-0.7,0-1.3-0.5-1.3-1.1c0-0.6,0.6-1.1,1.3-1.1h63
		c3.7,0,6.6-2.9,5.8-6.2c-0.6-2.4-3.1-3.9-6-3.9l-7.3,0.1c-0.7,0-1.3-0.8-1.3-1.4c0-0.6,0.6-1.1,1.3-1.1h7.8
		C498.9,33.8,502.7,37.3,502.4,41.9z"/>
</g>
<path class="st0" d="M426.9,46.8H426v-0.9c0-0.4-0.3-0.7-0.7-0.7s-0.7,0.3-0.7,0.7v0.9h-0.9c-0.4,0-0.7,0.3-0.7,0.7s0.3,0.7,0.7,0.7
	h0.9v0.9c0,0.4,0.3,0.7,0.7,0.7s0.7-0.3,0.7-0.7v-0.9h0.9c0.4,0,0.7-0.3,0.7-0.7S427.3,46.8,426.9,46.8z"/>
<g class="st1">
	<path class="st0" d="M430.6,31.1h2.4c2.1,0,3.4,0.4,3.4,2.2c0,1.1-0.7,1.8-1.8,2v0c0.6,0.2,0.8,0.5,1.1,1.1l1.3,3.1h-1.9l-0.9-2.4
		c-0.3-0.9-0.5-1.1-1.5-1.1h-0.4v3.5h-1.7V31.1z M432.3,34.7h0.5c1.3,0,1.9-0.3,1.9-1.2c0-0.9-0.7-1.1-1.9-1.1h-0.5V34.7z"/>
	<path class="st0" d="M438.1,31.1h5v1.4h-3.3v2h3v1.4h-3v2.2h3.3v1.4h-5V31.1z"/>
	<path class="st0" d="M450.3,33.9c-0.1-0.4-0.3-1.1-0.3-1.6h0c-0.1,0.5-0.2,1.2-0.3,1.6l-1.2,5.6h-2.1l-2.3-8.4h1.8l1.2,5
		c0.1,0.3,0.3,1.5,0.4,2.1h0c0.1-0.6,0.3-1.8,0.4-2.1l1.1-5h2.2l1.2,5c0.1,0.3,0.3,1.5,0.4,2.1h0c0.1-0.6,0.3-1.7,0.4-2.1l1.2-5h1.7
		l-2.2,8.4h-2.1L450.3,33.9z"/>
	<path class="st0" d="M464.4,39.5h-1.8l-0.7-1.9h-3.5l-0.7,1.9h-1.7l3.3-8.4h1.9L464.4,39.5z M460.7,34.3c-0.2-0.5-0.5-1.5-0.6-1.9
		h0c-0.1,0.4-0.4,1.4-0.6,1.9l-0.7,2h2.6L460.7,34.3z"/>
	<path class="st0" d="M465.6,31.1h2.4c2.1,0,3.4,0.4,3.4,2.2c0,1.1-0.7,1.8-1.8,2v0c0.6,0.2,0.8,0.5,1.1,1.1l1.3,3.1h-1.9l-0.9-2.4
		c-0.3-0.9-0.5-1.1-1.5-1.1h-0.4v3.5h-1.7V31.1z M467.3,34.7h0.5c1.3,0,1.9-0.3,1.9-1.2c0-0.9-0.7-1.1-1.9-1.1h-0.5V34.7z"/>
	<path class="st0" d="M475.3,31.1c2.8,0,4.9,1.1,4.9,4.2c0,2.9-2.2,4.1-4.9,4.1H473v-8.4H475.3z M474.7,38.2h0.4
		c1.9,0,3.3-0.7,3.3-2.9c0-2.3-1.5-2.9-3.3-2.9h-0.4V38.2z"/>
</g>
<g>
	<g>
		<path class="st0" d="M398.6,52.3c-0.5-0.6-1.1-1.2-1.6-1.8c-0.5-0.6-1-1.1-1.4-1.7c-0.1-0.1-0.2-0.1-0.3-0.1
			c-0.7,0.1-1.4,0.2-2.1,0.2c-0.6,0.1-1.1,0.1-1.7,0.2c-0.2,0-0.4,0.1-0.5,0c-0.6-0.2-0.8-0.5-0.6-1.1c0.4-1.1,0.8-2.1,1.2-3.1
			c0.6-1.5,1.2-3,1.8-4.5c0-0.1,0-0.2,0-0.3c-0.3-0.8-0.6-1.7-0.8-2.5c-0.3-0.9-0.9-1.5-1.6-2c-0.5-0.4-1.1-0.7-1.6-1.1
			c-0.7-0.5-1-1.6-0.8-2.4c0.2-0.6,0.3-1.2,0.6-1.7c0.5-1.1,0.4-2.2,0-3.2c-0.2-0.5-0.4-1.1-0.5-1.6c-0.4-1.4,0-2,1-2.8
			c0.7-0.6,1.5-1.1,2.2-1.7c0.3-0.3,0.6-0.8,0.7-1.2c0.3-0.7,0.4-1.5,0.7-2.2c0.3-1,1.1-1.5,2.2-1.5c0.7,0,1.4,0,2,0
			c1,0.1,1.9-0.3,2.7-0.9c0.4-0.3,0.8-0.7,1.3-1c1.1-0.7,2.1-0.7,3.1,0c0.6,0.4,1.2,0.9,1.8,1.3c0.5,0.4,1.1,0.6,1.8,0.6
			c0.7,0,1.4,0,2.1,0c1.5,0,2.1,0.6,2.5,1.8c0.2,0.6,0.4,1.3,0.6,1.9c0.3,1,1.1,1.6,1.9,2.2c0.5,0.3,1,0.6,1.4,1
			c0.5,0.5,0.9,1,0.8,1.9c-0.1,0.8-0.3,1.5-0.6,2.2c-0.5,1.3-0.3,2.4,0.1,3.6c0.3,0.7,0.5,1.4,0.5,2.1c0.1,0.7-0.4,1.3-0.9,1.7
			c-0.7,0.5-1.5,1-2.2,1.6c-0.6,0.5-0.9,1.2-1.1,1.9c-0.2,0.7-0.5,1.4-0.7,2.1c0,0.1,0,0.2,0,0.3c1,2.6,2,5.2,3,7.8
			c0.2,0.4-0.2,0.9-0.6,0.9c-0.7,0-1.4-0.1-2.1-0.2c-0.5-0.1-1.1-0.1-1.6-0.2c-0.1,0-0.2,0-0.4,0c-0.2,0-0.4,0-0.6,0.2
			c-0.6,0.8-1.3,1.5-2,2.3c-0.2,0.2-0.3,0.4-0.5,0.5c-0.2,0.2-0.4,0.3-0.6,0.5c-0.1,0-0.3,0-0.4,0c-0.2-0.2-0.5-0.4-0.6-0.7
			c-0.7-1.6-1.3-3.3-1.9-4.9c-0.4-0.9-0.7-1.8-1.1-2.7c-0.2,0-0.4,0-0.6,0c-0.3,0.9-0.7,1.7-1,2.6c-0.6,1.5-1.2,3-1.8,4.5
			c-0.2,0.5-0.3,1-0.8,1.3C398.9,52.3,398.8,52.3,398.6,52.3z M409.7,40C409.7,40,409.7,40,409.7,40c0.2,0,0.4,0,0.6,0
			c0.5,0,0.9-0.2,1-0.6c0.2-0.5,0.3-1,0.5-1.6c0.3-0.9,0.6-1.9,1.4-2.5c0.7-0.6,1.4-1.1,2.1-1.6c0.6-0.4,0.7-0.8,0.5-1.5
			c-0.2-0.6-0.4-1.2-0.6-1.8c-0.3-0.9-0.4-1.8-0.1-2.7c0.3-0.8,0.5-1.6,0.8-2.5c0.1-0.4,0-0.8-0.3-1.1c-0.3-0.2-0.7-0.5-1.1-0.7
			c-1.1-0.7-2.1-1.6-2.5-2.9c-0.2-0.8-0.5-1.6-0.8-2.3c-0.1-0.2-0.2-0.3-0.4-0.4c-0.2-0.1-0.5-0.1-0.8-0.1c-0.8,0-1.6,0-2.4,0
			c-0.8,0-1.5-0.3-2.2-0.8c-0.7-0.5-1.4-1-2-1.5c-0.3-0.2-0.7-0.2-1,0c-0.4,0.3-0.8,0.6-1.3,0.9c-0.5,0.3-0.9,0.7-1.4,0.9
			c-0.8,0.4-1.6,0.5-2.5,0.5c-0.6,0-1.2-0.1-1.8-0.1c-0.4,0-0.7,0.1-0.8,0.5c-0.2,0.6-0.4,1.2-0.5,1.8c-0.3,1-0.7,2-1.7,2.7
			c-0.7,0.5-1.4,1-2.1,1.5c-0.4,0.3-0.5,0.5-0.3,0.9c0.2,0.5,0.3,1,0.5,1.6c0.3,0.9,0.6,1.9,0.4,2.8c-0.2,0.9-0.5,1.7-0.8,2.5
			c-0.3,0.9-0.3,1.1,0.4,1.7c0.4,0.3,0.7,0.5,1.1,0.8c1,0.6,1.8,1.4,2.1,2.5c0.3,0.7,0.5,1.5,0.7,2.3c0.2,0.7,0.5,0.8,1.1,0.8
			c0.8,0,1.6,0,2.4,0c0.9,0,1.6,0.3,2.3,0.8c0.7,0.5,1.3,1,2,1.5c0.3,0.2,0.6,0.2,0.9,0c0.5-0.3,0.9-0.6,1.4-1
			c1-0.9,2.2-1.4,3.6-1.3C408.8,39.9,409.2,39.9,409.7,40z M407.3,50c0.1-0.1,0.2-0.1,0.2-0.2c0.6-0.8,1.3-1.5,1.9-2.3
			c0.3-0.3,0.6-0.4,1-0.4c0.1,0,0.3,0,0.4,0.1c0.5,0.1,1,0.1,1.5,0.2c0.4,0,0.9,0.1,1.3,0.1c0-0.1-0.1-0.2-0.1-0.3
			c-0.7-1.9-1.5-3.8-2.2-5.7c0-0.1-0.2-0.1-0.3-0.1c-0.3,0-0.6,0.1-0.9,0.1c-0.8,0-1.6,0-2.4,0c-0.4,0-0.8,0.1-1.1,0.3
			c-0.7,0.4-1.3,0.9-2,1.4C405.5,45.5,406.4,47.7,407.3,50z M392.2,47.5c0.2,0,0.3,0,0.5,0c0.9-0.1,1.8-0.3,2.7-0.4
			c0.4,0,0.8,0,1,0.4c0.1,0.2,0.3,0.3,0.4,0.5c0.5,0.6,1,1.2,1.5,1.8c0.1,0.1,0.1,0.1,0.2,0.2c0.1-0.1,0.1-0.1,0.2-0.2
			c0.3-0.8,0.7-1.7,1-2.5c0.5-1.2,1-2.4,1.4-3.7c0.1-0.1,0.1-0.3-0.1-0.4c-0.4-0.3-0.8-0.7-1.3-1c-0.6-0.4-1.2-0.7-2-0.7
			c-1.1,0-2.2,0-3.3,0C393.8,43.4,393,45.4,392.2,47.5z"/>
		<path class="st0" d="M402.9,38.7c-5.5,0-9.7-4.5-9.8-9.5c-0.2-6,4.4-9.9,8.9-10.3c3.1-0.3,5.8,0.7,8,2.8c1.7,1.7,2.7,3.8,2.9,6.3
			C413.3,34.3,408.2,38.8,402.9,38.7z M402.9,37.2c4.7,0,8.3-3.7,8.5-8c0.2-5.1-3.7-8.4-7.6-8.7c-5.5-0.4-9.1,3.8-9.2,8.1
			C394.5,33.3,398.2,37.2,402.9,37.2z"/>
		<path class="st0" d="M408.8,27.6c-0.1,0.2-0.2,0.3-0.3,0.5c-0.7,0.7-1.3,1.3-2,2c-0.2,0.1-0.2,0.3-0.1,0.5
			c0.2,0.9,0.3,1.8,0.5,2.7c0,0.3-0.1,0.6-0.4,0.8c-0.2,0.2-0.5,0.2-0.8,0c-0.8-0.4-1.7-0.9-2.5-1.3c-0.2-0.1-0.4-0.1-0.6,0
			c-0.8,0.4-1.7,0.9-2.5,1.3c-0.3,0.2-0.6,0.1-0.8-0.1c-0.2-0.2-0.4-0.4-0.3-0.8c0.2-0.8,0.3-1.6,0.4-2.4c0-0.1,0-0.1,0.1-0.2
			c0-0.2,0-0.4-0.2-0.6c-0.7-0.6-1.3-1.3-2-1.9c-0.2-0.2-0.3-0.4-0.2-0.7c0.1-0.4,0.4-0.5,0.8-0.6c0.9-0.1,1.8-0.2,2.7-0.4
			c0.1,0,0.2-0.1,0.3-0.2c0.4-0.8,0.8-1.6,1.2-2.3c0.1-0.2,0.2-0.4,0.4-0.5c0.4-0.3,0.9-0.1,1.1,0.3c0.4,0.8,0.8,1.7,1.2,2.5
			c0.1,0.1,0.2,0.2,0.4,0.3c1,0.2,1.9,0.3,2.9,0.5C408.5,26.8,408.7,27.1,408.8,27.6z M400.9,31.9c0.4-0.2,0.8-0.3,1.2-0.6
			c0.6-0.5,1.2-0.4,1.8,0c0,0,0.1,0.1,0.1,0.1c0.3,0.2,0.6,0.3,1,0.5c-0.1-0.6-0.2-1.2-0.3-1.7c-0.1-0.4,0-0.7,0.3-1
			c0.4-0.4,0.8-0.8,1.2-1.2c-0.1,0-0.1-0.1-0.2-0.1c-0.5-0.1-0.9-0.1-1.4-0.2c-0.4-0.1-0.8-0.2-1-0.7c-0.2-0.4-0.4-0.8-0.6-1.2
			c0-0.1-0.1-0.1-0.2-0.2c-0.1,0.1-0.1,0.2-0.2,0.2c-0.2,0.4-0.4,0.8-0.6,1.3c-0.2,0.3-0.4,0.5-0.8,0.5c-0.6,0.1-1.1,0.2-1.7,0.3
			c0.5,0.5,0.9,0.9,1.3,1.3c0.1,0.2,0.3,0.4,0.3,0.6C401.1,30.6,401,31.2,400.9,31.9z"/>
	</g>
</g>
<g>
	<g>
		<path class="st0" d="M157.1,49.6c-0.6,0-1.1-0.5-1.1-1.1V47c0-0.6,0.5-1.1,1.1-1.1s1.1,0.5,1.1,1.1v1.5
			C158.2,49.1,157.7,49.6,157.1,49.6z M159.3,41.3c-0.3,0-0.6-0.1-0.8-0.4c-0.4-0.5-0.3-1.2,0.1-1.6c0.4-0.4,0.9-0.7,1.4-1
			s1.2-0.1,1.5,0.5c0.3,0.5,0.1,1.2-0.5,1.5c-0.4,0.2-0.7,0.4-1,0.7C159.8,41.3,159.6,41.3,159.3,41.3z M213.5,39.8H212
			c-0.6,0-1.1-0.5-1.1-1.1s0.5-1.1,1.1-1.1h1.5c0.6,0,1.1,0.5,1.1,1.1S214.1,39.8,213.5,39.8z M204.7,39.8h-1.5
			c-0.6,0-1.1-0.5-1.1-1.1s0.5-1.1,1.1-1.1h1.5c0.6,0,1.1,0.5,1.1,1.1S205.3,39.8,204.7,39.8z M195.8,39.8h-1.5
			c-0.6,0-1.1-0.5-1.1-1.1s0.5-1.1,1.1-1.1h1.5c0.6,0,1.1,0.5,1.1,1.1C196.9,39.3,196.4,39.8,195.8,39.8z M187,39.8h-1.5
			c-0.6,0-1.1-0.5-1.1-1.1s0.5-1.1,1.1-1.1h1.5c0.6,0,1.1,0.5,1.1,1.1S187.6,39.8,187,39.8z M178.1,39.8h-1.5
			c-0.6,0-1.1-0.5-1.1-1.1s0.5-1.1,1.1-1.1h1.5c0.6,0,1.1,0.5,1.1,1.1C179.2,39.3,178.7,39.8,178.1,39.8z M169.3,39.8h-1.5
			c-0.6,0-1.1-0.5-1.1-1.1s0.5-1.1,1.1-1.1h1.5c0.6,0,1.1,0.5,1.1,1.1S169.9,39.8,169.3,39.8z"/>
	</g>
	<g>
		<path class="st0" d="M157.1,59.7c-1.7,0-3.2-1.4-3.2-3.2s1.4-3.2,3.2-3.2s3.2,1.4,3.2,3.2S158.9,59.7,157.1,59.7z M157.1,54.9
			c-0.9,0-1.7,0.8-1.7,1.7s0.8,1.7,1.7,1.7s1.7-0.8,1.7-1.7S158.1,54.9,157.1,54.9z"/>
	</g>
</g>
<path class="st0" d="M844.5,77.2h-58.4c-0.6,0-1.1,0.5-1.1,1.1l0,0c0,0.6,0.5,1.1,1.1,1.1h58.4c0.6,0,1.1-0.5,1.1-1.1l0,0
	C845.6,77.7,845.1,77.2,844.5,77.2z"/>
<path class="st0" d="M870.5,79.6h-2.8c-0.6,0-1.1-0.5-1.1-1.1s0.5-1.1,1.1-1.1h2.8c0.6,0,1.1,0.5,1.1,1.1S871.1,79.6,870.5,79.6z
	 M860.4,79.6H859c-0.6,0-1.1-0.5-1.1-1.1s0.5-1.1,1.1-1.1h1.5c0.6,0,1.1,0.5,1.1,1.1S861,79.6,860.4,79.6z M851.7,79.6h-1.5
	c-0.6,0-1.1-0.5-1.1-1.1s0.5-1.1,1.1-1.1h1.5c0.6,0,1.1,0.5,1.1,1.1S852.3,79.6,851.7,79.6z M874.9,75.8c-0.1,0-0.3,0-0.4-0.1
	c-0.6-0.2-0.8-0.9-0.6-1.4c0.2-0.4,0.3-0.7,0.3-1.1c0.1-0.6,0.7-1,1.3-0.9s1,0.7,0.9,1.3c-0.1,0.6-0.3,1.1-0.5,1.6
	C875.7,75.6,875.3,75.8,874.9,75.8z M875.4,67.2c-0.6,0-1.1-0.5-1.1-1.1v-1.5c0-0.6,0.5-1.1,1.1-1.1s1.1,0.5,1.1,1.1v1.5
	C876.5,66.7,876,67.2,875.4,67.2z M875.4,58.5c-0.6,0-1.1-0.5-1.1-1.1v-1.5c0-0.6,0.5-1.1,1.1-1.1s1.1,0.5,1.1,1.1v1.5
	C876.5,58,876,58.5,875.4,58.5z M875.4,49.8c-0.6,0-1.1-0.5-1.1-1.1v-1.4c0-0.6,0.5-1.1,1.1-1.1s1.1,0.5,1.1,1.1v1.4
	C876.5,49.3,876,49.8,875.4,49.8z M872.3,42.2c-0.2,0-0.4,0-0.6-0.2c-0.3-0.2-0.7-0.4-1.1-0.5c-0.6-0.2-0.9-0.8-0.7-1.4
	c0.2-0.6,0.8-0.9,1.4-0.7c0.5,0.2,1.1,0.4,1.6,0.7s0.7,1,0.4,1.5C873,42,872.7,42.2,872.3,42.2z M863.8,41.3h-1.5
	c-0.6,0-1.1-0.5-1.1-1.1s0.5-1.1,1.1-1.1h1.5c0.6,0,1.1,0.5,1.1,1.1C864.9,40.8,864.4,41.3,863.8,41.3z M855.1,41.3h-1.5
	c-0.6,0-1.1-0.5-1.1-1.1s0.5-1.1,1.1-1.1h1.5c0.6,0,1.1,0.5,1.1,1.1C856.2,40.8,855.7,41.3,855.1,41.3z M846.4,41.3H845
	c-0.6,0-1.1-0.5-1.1-1.1s0.5-1.1,1.1-1.1h1.4c0.6,0,1.1,0.5,1.1,1.1S847,41.3,846.4,41.3z M837.7,41.3h-1.5c-0.6,0-1.1-0.5-1.1-1.1
	s0.5-1.1,1.1-1.1h1.5c0.6,0,1.1,0.5,1.1,1.1S838.3,41.3,837.7,41.3z M829,41.3h-1.4c-0.6,0-1.1-0.5-1.1-1.1s0.5-1.1,1.1-1.1h1.4
	c0.6,0,1.1,0.5,1.1,1.1S829.6,41.3,829,41.3z M820.3,41.3h-1.5c-0.6,0-1.1-0.5-1.1-1.1s0.5-1.1,1.1-1.1h1.5c0.6,0,1.1,0.5,1.1,1.1
	C821.4,40.8,820.9,41.3,820.3,41.3z M811.6,41.3h-1.4c-0.6,0-1.1-0.5-1.1-1.1s0.5-1.1,1.1-1.1h1.4c0.6,0,1.1,0.5,1.1,1.1
	S812.2,41.3,811.6,41.3z M802.9,41.3h-1.5c-0.6,0-1.1-0.5-1.1-1.1s0.5-1.1,1.1-1.1h1.5c0.6,0,1.1,0.5,1.1,1.1S803.5,41.3,802.9,41.3
	z M794.2,41.3h-1.4c-0.6,0-1.1-0.5-1.1-1.1s0.5-1.1,1.1-1.1h1.4c0.6,0,1.1,0.5,1.1,1.1S794.8,41.3,794.2,41.3z M785.5,41.3H784
	c-0.6,0-1.1-0.5-1.1-1.1s0.5-1.1,1.1-1.1h1.5c0.6,0,1.1,0.5,1.1,1.1S786.1,41.3,785.5,41.3z"/>
</svg>
