<?xml version="1.0" encoding="UTF-8"?><svg id="Layer_1" xmlns="http://www.w3.org/2000/svg" viewBox="0 0 200 200"><defs><style>.cls-1{fill:#ff6600; stroke-width:0px;}</style></defs><path class="cls-1" d="m200,75.48c-.84,4.18-1.4,8.44-2.57,12.53-3.45,12.13-9.89,22.69-17.6,32.54-13.27,16.94-29.28,30.98-46.67,43.46-9.23,6.62-18.96,12.55-28.42,18.85-3.13,2.08-5.99,1.99-9.23.04-23.1-13.89-44.81-29.59-63.58-49.06-11.08-11.48-20.81-23.97-26.81-38.95-7.16-17.88-7.17-35.71,2.3-52.66,10.28-18.4,26.75-26.91,47.63-26.56,16.8.28,30.97,7.42,43.6,18.04.4.33.8.67,1.2,1,.05.04.12.05-.02,0,4.44-3.13,8.63-6.42,13.15-9.19,11.35-6.95,23.66-10.53,37.09-9.83,23.17,1.22,42.37,16.98,47.95,39.55.88,3.57,1.34,7.24,1.99,10.87v9.37ZM53.56,28.06c-16.99-.34-32.03,9.84-37.89,25.78-4.93,13.43-3.63,26.54,2.34,39.35,6.02,12.91,14.82,23.79,24.73,33.83,16.77,16.99,35.88,30.97,56.2,43.38.97.59,1.6.42,2.44-.09,15.52-9.45,30.31-19.9,43.97-31.91,12.65-11.12,24.3-23.14,32.9-37.78,6.49-11.04,10.56-22.72,8.88-35.81-1.52-11.87-6.3-21.99-16.22-29.07-12.35-8.81-25.88-9.61-39.94-4.94-10,3.32-18.41,9.22-25.85,16.59-3.37,3.33-6.62,3.29-10.06.03-2.03-1.92-4.07-3.85-6.24-5.59-10.31-8.25-21.81-13.52-35.26-13.78Z"/></svg>