<?xml version="1.0" encoding="utf-8"?>
<!-- Generator: Adobe Illustrator 27.8.1, SVG Export Plug-In . SVG Version: 6.00 Build 0)  -->
<!DOCTYPE svg PUBLIC "-//W3C//DTD SVG 1.1//EN" "http://www.w3.org/Graphics/SVG/1.1/DTD/svg11.dtd" [
	<!ENTITY ns_extend "http://ns.adobe.com/Extensibility/1.0/">
	<!ENTITY ns_ai "http://ns.adobe.com/AdobeIllustrator/10.0/">
	<!ENTITY ns_graphs "http://ns.adobe.com/Graphs/1.0/">
	<!ENTITY ns_vars "http://ns.adobe.com/Variables/1.0/">
	<!ENTITY ns_imrep "http://ns.adobe.com/ImageReplacement/1.0/">
	<!ENTITY ns_sfw "http://ns.adobe.com/SaveForWeb/1.0/">
	<!ENTITY ns_custom "http://ns.adobe.com/GenericCustomNamespace/1.0/">
	<!ENTITY ns_adobe_xpath "http://ns.adobe.com/XPath/1.0/">
]>
<svg version="1.1" id="Layer_1" xmlns:x="&ns_extend;" xmlns:i="&ns_ai;" xmlns:graph="&ns_graphs;"
	 xmlns="http://www.w3.org/2000/svg" xmlns:xlink="http://www.w3.org/1999/xlink" x="0px" y="0px" width="500px" height="500px"
	 viewBox="0 0 500 500" style="enable-background:new 0 0 500 500;" xml:space="preserve">
<style type="text/css">
	.st0{fill:#FF6600;}
	.st1{fill:#FFFFFF;}
</style>
<metadata>
	<sfw  xmlns="&ns_sfw;">
		<slices></slices>
		<sliceSourceBounds  bottomLeftOrigin="true" height="500" width="500" x="520" y="-500"></sliceSourceBounds>
	</sfw>
</metadata>
<path class="st0" d="M0,0v500h500V0H0z M467.1868,428.6389c-10.0737,19.8693-28.6235,31.7325-49.6208,31.7325h-128.16
	c-20.9257,0-39.5353-11.8149-49.7774-31.606c-5.1823-10.0106-7.5984-20.8628-7.3148-31.551h-63.065
	c-10.0105,0-18.1531-8.1526-18.1531-18.1731c0-4.802,1.9478-9.4857,5.3418-12.8497c3.4124-3.414,7.9694-5.3051,12.8113-5.3051h23.21
	v-33.5604H73.3546c-26.3224,0-47.7363-21.4139-47.7363-47.7347V87.3649c0-26.3224,21.4139-47.7363,47.7363-47.7363h283.2523
	c26.3224,0,47.7363,21.4139,47.7363,47.7363V182.34c11.1772,12.2568,18.0032,28.5469,18.0032,46.4027
	s-6.826,34.1462-18.0032,46.4034v4.4453c0,11.3235-4.0812,22.2208-11.2473,30.7444c26.87,8.6359,50.8928,26.0353,68.8791,50.5524
	C476.3975,380.5693,478.3936,406.5285,467.1868,428.6389z"/>
<path class="st1" d="M467.2178,357.0469l-0.002-0.0029c-16.8408-22.9551-38.7988-40.0928-63.8906-49.9561
	c4.8887-8.3057,7.5176-17.8076,7.5176-27.4961v-1.9902c11.6289-13.6484,18.0039-30.8979,18.0039-48.8589
	s-6.375-35.2104-18.0039-48.8574V87.3647c0-29.9062-24.3301-54.2363-54.2363-54.2363H73.3545
	c-29.9062,0-54.2363,24.3301-54.2363,54.2363v192.2271c0,29.9053,24.3301,54.2344,54.2363,54.2344H185.959v20.5605h-16.71
	c-6.5801,0-12.7627,2.5605-17.3867,7.1875c-4.6182,4.5771-7.2666,10.9434-7.2666,17.4668c0,13.6055,11.0596,24.6738,24.6533,24.6738
	H225.96c0.6729,9.6953,3.3594,19.2744,7.8965,28.0381c11.3799,21.9902,32.1465,35.1182,55.5498,35.1182h128.1602
	c23.4971,0,44.2139-13.1934,55.418-35.2939C485.3047,407.2705,483.0947,378.7119,467.2178,357.0469z M417.5664,441.9277H289.4062
	c-13.8994,0-26.3857-8.0898-33.3994-21.6406c-4.4297-8.5566-6.1133-17.999-4.8652-27.3516
	c0.0127-0.0771,0.0234-0.1543,0.0342-0.2324c0.9678-6.9385,3.6035-13.6094,7.6172-19.2852
	c12.5869-17.7451,29.0596-31.7021,47.6514-40.3789c0.5332-0.1992,1.0537-0.4355,1.5557-0.7061
	c14.4355-6.4727,29.7627-9.7539,45.5605-9.7539c36.502,0,70.5967,17.9385,93.54,49.2148
	c10.291,14.041,11.6836,32.627,3.6348,48.5049C443.8701,433.8428,431.4697,441.9277,417.5664,441.9277z M73.3545,58.0718h283.252
	c16.1523,0,29.2939,13.1406,29.2939,29.293v73.3105c-10.0947-4.8438-21.1406-7.3662-32.4893-7.3662
	c-33.7534,0-62.397,22.2834-71.999,52.9104v-71.1634c1.8571,4.5594,6.3309,7.7847,11.5498,7.7847h77.3789
	c6.877,0,12.4717-5.5947,12.4717-12.4717s-5.5947-12.4717-12.4717-12.4717h-77.3789c-5.2189,0-9.6927,3.2253-11.5498,7.7847V99.6445
	c1.8571,4.5594,6.3309,7.7847,11.5498,7.7847h77.3789c6.877,0,12.4717-5.5947,12.4717-12.4717
	c0-6.8765-5.5947-12.4712-12.4717-12.4712h-77.3789c-5.3346,0-9.8845,3.373-11.6629,8.0929
	c-1.3539-17.4193-15.9509-31.1818-33.7111-31.1818H78.9414c-18.6504,0-33.8242,15.1733-33.8242,33.8242V273.75
	c0,18.6494,15.1738,33.8223,33.8242,33.8223h168.6465c18.6504,0,33.8242-15.1729,33.8242-33.8223v-22.5189
	c7.1111,22.7172,24.686,40.8527,47.0654,48.7122c-9.9717,1.8623-19.7139,4.8486-29.1455,8.9395H73.3545
	c-16.1523,0-29.293-13.1396-29.293-29.291V87.3647C44.0615,71.2124,57.2021,58.0718,73.3545,58.0718z M353.4111,279.2344
	c-27.8418,0-50.4922-22.6504-50.4922-50.4917c0-27.8403,22.6504-50.4902,50.4922-50.4902s50.4922,22.6499,50.4922,50.4902
	C403.9033,256.584,381.2529,279.2344,353.4111,279.2344z M163.4141,203.1533c20.8281,0,40.2422,9.3447,53.2598,25.6357
	c4.6016,5.7646,5.3975,12.9009,2.1836,19.5786c-3.1846,6.6167-9.2041,10.4116-16.5166,10.4116h-77.9443
	c-7.1201,0-13.5166-4.0088-16.6914-10.4619c-3.1309-6.3618-2.4883-13.1763,1.7559-18.6885
	C122.46,212.8032,142.125,203.1533,163.4141,203.1533z M163.3242,108.1909c14.2373,0,25.8203,11.583,25.8203,25.8208
	c0,14.2383-11.583,25.8223-25.8203,25.8223c-14.2383,0-25.8213-11.584-25.8213-25.8223
	C137.5029,119.7739,149.0859,108.1909,163.3242,108.1909z M112.5596,134.0117c0,20.7231,12.4872,38.5747,30.3271,46.4546
	c-20.958,4.6739-39.6879,16.4702-53.1747,33.9282c-9.9736,12.9492-11.6543,30.168-4.3877,44.9375
	c5.9319,12.0547,16.7278,20.4357,29.3719,23.2969H78.9414c-4.8965,0-8.8809-3.9834-8.8809-8.8789V93.2217
	c0-4.897,3.9844-8.8809,8.8809-8.8809h73.9051C129.8654,89.1829,112.5596,109.6119,112.5596,134.0117z M241.334,259.1855
	c7.3125-15.1948,5.332-32.8052-5.1699-45.9619c-13.4409-16.8209-31.8757-28.2134-52.364-32.775
	c17.8187-7.8887,30.2878-25.7289,30.2878-46.437c0-24.3998-17.3058-44.8288-40.2863-49.6709h73.7863
	c4.8965,0,8.8809,3.9839,8.8809,8.8809V273.75c0,4.8955-3.9844,8.8789-8.8809,8.8789h-35.5431
	C224.7252,279.7562,235.4935,271.3207,241.334,259.1855z M210.9023,366.8584v-33.0322h8.1572v33.0322
	c0,5.5908,3.6982,10.335,8.7773,11.9131H202.125C207.2041,377.1934,210.9023,372.4492,210.9023,366.8584z M244.0029,333.8262h16.749
	c-5.9922,5.415-11.5879,11.3662-16.749,17.8174V333.8262z"/>
<path class="st1" d="M262.9687,273.7499V93.2216c0-8.4809-6.8997-15.3806-15.3806-15.3806H78.9413
	c-8.4809,0-15.3806,6.8997-15.3806,15.3806v180.5283c0,8.4792,6.8997,15.3789,15.3806,15.3789h168.6467
	C256.069,289.1288,262.9687,282.2291,262.9687,273.7499z M163.3239,89.7476c24.408,0,44.264,19.856,44.264,44.264
	s-19.856,44.2656-44.264,44.2656s-44.264-19.8576-44.264-44.2656S138.9158,89.7476,163.3239,89.7476z M235.4766,256.3665
	c-6.1916,12.8646-18.8879,20.8557-33.1356,20.8557h-77.9443c-14.2026,0-26.939-7.9543-33.2405-20.7607
	c-6.1649-12.5298-4.7453-27.1289,3.7056-38.1008c16.5219-21.3872,41.5064-33.6504,68.552-33.6504
	c26.4675,0,51.132,11.8716,67.6723,32.5707C240.0153,228.4678,241.6964,243.4435,235.4766,256.3665z"/>
<path class="st1" d="M296.4191,228.7427c0,31.426,25.566,56.992,56.992,56.992c31.426,0,56.9921-25.566,56.9921-56.992
	c0-31.4243-25.566-56.9904-56.9921-56.9904C321.9851,171.7524,296.4191,197.3184,296.4191,228.7427z"/>
<path class="st1" d="M231.531,315.3829h69.1672c16.4843-7.3479,34.3671-11.2468,52.8628-11.2468
	c8.905,0,17.6782,0.9225,26.2321,2.6949c6.3065-5.3726,10.5548-12.788,12.029-20.8752
	c-10.9836,7.3981-24.2014,11.7221-38.411,11.7221c-38.0107,0-68.9352-30.9244-68.9352-68.9352s30.9245-68.9336,68.9352-68.9336
	c14.462,0,27.8914,4.4855,38.9889,12.1255V87.3649c0-19.736-16.0571-35.7931-35.7931-35.7931H73.3546
	c-19.736,0-35.7931,16.0571-35.7931,35.7931v192.2266c0,19.736,16.0571,35.7914,35.7931,35.7914h125.0759H231.531z
	 M292.9617,88.9861h77.3795c3.2974,0,5.9716,2.6743,5.9716,5.9716c0,3.2974-2.6743,5.9716-5.9716,5.9716h-77.3795
	c-3.2974,0-5.9716-2.6742-5.9716-5.9716C286.9901,91.6603,289.6644,88.9861,292.9617,88.9861z M292.9617,124.3976h77.3795
	c3.2974,0,5.9716,2.6742,5.9716,5.9716c0,3.2974-2.6743,5.9716-5.9716,5.9716h-77.3795c-3.2974,0-5.9716-2.6743-5.9716-5.9716
	C286.9901,127.0718,289.6644,124.3976,292.9617,124.3976z M51.6175,273.7499V93.2216c0-15.0657,12.2582-27.3239,27.3239-27.3239
	h168.6467c15.0657,0,27.3239,12.2582,27.3239,27.3239v180.5283c0,15.0657-12.2582,27.3221-27.3239,27.3221H78.9413
	C63.8757,301.072,51.6175,288.8156,51.6175,273.7499z"/>
<path class="st0" d="M163.3239,166.3339c17.8216,0,32.3207-14.4991,32.3207-32.3224c0-17.8216-14.4991-32.3207-32.3207-32.3207
	c-17.8215,0-32.3207,14.4991-32.3207,32.3207C131.0031,151.8348,145.5023,166.3339,163.3239,166.3339z"/>
<path class="st0" d="M163.4138,196.6536c-23.3183,0-44.8571,10.5703-59.0964,29.0017c-5.7317,7.4429-6.6481,16.9902-2.4443,25.5327
	c4.2771,8.6925,12.9063,14.0909,22.5236,14.0909h77.9443c9.7622,0,18.1265-5.2685,22.3736-14.0926
	c4.2755-8.8842,3.1691-18.773-2.9608-26.4525C207.4946,206.889,186.2307,196.6536,163.4138,196.6536z"/>
<path class="st1" d="M225.5594,366.8582v-39.532h-21.1573v39.532c0,3.2974-2.6743,5.9716-5.9716,5.9716h-29.1816
	c-1.6512,0-3.2074,0.6481-4.3837,1.8245c-1.1847,1.1747-1.8262,2.7259-1.8262,4.3871c0,3.4357,2.7859,6.2299,6.2099,6.2299h64.5368
	c0.9437-4.2611,2.334-8.4304,4.1687-12.4414h-6.4233C228.2336,372.8298,225.5594,370.1556,225.5594,366.8582z"/>
<path class="st1" d="M353.561,316.0794c-16.9578,0-33.3624,3.6188-48.4786,10.4395c-0.3479,0.2018-0.7168,0.3701-1.1046,0.4991
	c-19.5947,9.0821-36.9708,23.5851-50.4865,42.6394c-4.7366,6.6985-7.6654,14.3054-8.7595,22.1855
	c-0.006,0.0606-0.0184,0.1192-0.0263,0.1793c-1.4111,10.4357,0.399,21.3427,5.5283,31.2532
	c8.1527,15.7505,22.7968,25.1528,39.1721,25.1528h128.16c16.4037,0,30.9711-9.4173,38.9672-25.1895
	c9.1624-18.0748,7.5562-39.2604-4.1905-55.2875C428.1614,334.9873,392.155,316.0794,353.561,316.0794z"/>
<path class="st1" d="M279.4236,327.3262h-41.921v33.5604h7.6086C254.9267,347.4807,266.5274,336.2036,279.4236,327.3262z"/>
<g>
	<path class="st0" d="M163.3239,178.2772c24.408,0,44.264-19.8576,44.264-44.2656s-19.856-44.264-44.264-44.264
		s-44.264,19.856-44.264,44.264S138.9158,178.2772,163.3239,178.2772z M163.3239,101.6908
		c17.8216,0,32.3207,14.4991,32.3207,32.3207c0,17.8232-14.4991,32.3224-32.3207,32.3224
		c-17.8215,0-32.3207-14.4991-32.3207-32.3224C131.0031,116.1899,145.5023,101.6908,163.3239,101.6908z"/>
	<path class="st0" d="M163.4138,184.7103c-27.0456,0-52.0301,12.2632-68.552,33.6504c-8.4509,10.9719-9.8705,25.571-3.7056,38.1008
		c6.3015,12.8063,19.0379,20.7607,33.2405,20.7607h77.9443c14.2476,0,26.944-7.991,33.1356-20.8557
		c6.2198-12.923,4.5387-27.8987-4.3904-39.0855C214.5458,196.582,189.8813,184.7103,163.4138,184.7103z M224.7146,251.1863
		c-4.2471,8.8241-12.6114,14.0926-22.3736,14.0926h-77.9443c-9.6172,0-18.2465-5.3984-22.5236-14.0909
		c-4.2038-8.5425-3.2874-18.0898,2.4443-25.5327c14.2393-18.4314,35.7781-29.0017,59.0964-29.0017
		c22.8168,0,44.0807,10.2354,58.34,28.0803C227.8837,232.4133,228.9901,242.3022,224.7146,251.1863z"/>
	<path class="st0" d="M393.0959,310.3359c7.1661-8.5236,11.2473-19.4208,11.2473-30.7444v-4.4453
		c11.1772-12.2572,18.0032-28.5476,18.0032-46.4034s-6.826-34.1459-18.0032-46.4027V87.3649
		c0-26.3224-21.4139-47.7363-47.7363-47.7363H73.3546c-26.3224,0-47.7363,21.4139-47.7363,47.7363v192.2266
		c0,26.3208,21.4139,47.7347,47.7363,47.7347h119.1042v33.5604h-23.21c-4.842,0-9.399,1.8911-12.8113,5.3051
		c-3.394,3.364-5.3418,8.0477-5.3418,12.8497c0,10.0204,8.1426,18.1731,18.1531,18.1731h63.065
		c-0.2836,10.6882,2.1325,21.5403,7.3148,31.551c10.2421,19.791,28.8517,31.606,49.7774,31.606h128.16
		c20.9973,0,39.5471-11.8633,49.6208-31.7325c11.2068-22.1104,9.2107-48.0696-5.2118-67.7506
		C443.9888,336.3712,419.9659,318.9718,393.0959,310.3359z M410.4031,228.7427c0,31.426-25.566,56.992-56.9921,56.992
		c-31.426,0-56.992-25.566-56.992-56.992c0-31.4243,25.566-56.9904,56.992-56.9904
		C384.8371,171.7524,410.4031,197.3184,410.4031,228.7427z M73.3546,315.3829c-19.736,0-35.7931-16.0554-35.7931-35.7914V87.3649
		c0-19.736,16.0571-35.7931,35.7931-35.7931h283.2523c19.736,0,35.7931,16.0571,35.7931,35.7931v84.5698
		c-11.0975-7.64-24.5269-12.1255-38.9889-12.1255c-38.0107,0-68.9352,30.9228-68.9352,68.9336s30.9245,68.9352,68.9352,68.9352
		c14.2097,0,27.4274-4.324,38.411-11.7221c-1.4742,8.0872-5.7225,15.5027-12.029,20.8752
		c-8.5539-1.7725-17.3271-2.6949-26.2321-2.6949c-18.4957,0-36.3785,3.8989-52.8628,11.2468H231.531h-33.1005H73.3546z
		 M233.7856,385.2712h-64.5368c-3.424,0-6.2099-2.7942-6.2099-6.2299c0-1.6612,0.6415-3.2124,1.8262-4.3871
		c1.1763-1.1763,2.7325-1.8245,4.3837-1.8245h29.1816c3.2974,0,5.9716-2.6743,5.9716-5.9716v-39.532h21.1573v39.532
		c0,3.2974,2.6742,5.9716,5.9716,5.9716h6.4233C236.1196,376.8408,234.7293,381.0101,233.7856,385.2712z M237.5026,360.8866
		v-33.5604h41.921c-12.8962,8.8774-24.4969,20.1545-34.3124,33.5604H237.5026z M456.5333,423.2387
		c-7.9961,15.7722-22.5635,25.1895-38.9672,25.1895h-128.16c-16.3753,0-31.0194-9.4023-39.1721-25.1528
		c-5.1293-9.9106-6.9394-20.8176-5.5283-31.2532c0.0079-0.0601,0.0203-0.1187,0.0263-0.1793
		c1.0941-7.8801,4.0229-15.487,8.7595-22.1855c13.5156-19.0543,30.8918-33.5573,50.4865-42.6394
		c0.3878-0.129,0.7567-0.2972,1.1046-0.4991c15.1162-6.8207,31.5208-10.4395,48.4786-10.4395
		c38.594,0,74.6003,18.9079,98.7817,51.8718C464.0894,383.9783,465.6956,405.1639,456.5333,423.2387z"/>
	<path class="st0" d="M274.9119,273.7499V93.2216c0-15.0657-12.2582-27.3239-27.3239-27.3239H78.9413
		c-15.0657,0-27.3239,12.2582-27.3239,27.3239v180.5283c0,15.0657,12.2582,27.3221,27.3239,27.3221h168.6467
		C262.6537,301.072,274.9119,288.8156,274.9119,273.7499z M63.5608,273.7499V93.2216c0-8.4809,6.8997-15.3806,15.3806-15.3806
		h168.6467c8.4809,0,15.3806,6.8997,15.3806,15.3806v180.5283c0,8.4792-6.8997,15.3789-15.3806,15.3789H78.9413
		C70.4604,289.1288,63.5608,282.2291,63.5608,273.7499z"/>
	<path class="st0" d="M292.9617,100.9293h77.3795c3.2974,0,5.9716-2.6742,5.9716-5.9716c0-3.2974-2.6743-5.9716-5.9716-5.9716
		h-77.3795c-3.2974,0-5.9716,2.6743-5.9716,5.9716C286.9901,98.2551,289.6644,100.9293,292.9617,100.9293z"/>
	<path class="st0" d="M292.9617,136.3409h77.3795c3.2974,0,5.9716-2.6743,5.9716-5.9716c0-3.2974-2.6743-5.9716-5.9716-5.9716
		h-77.3795c-3.2974,0-5.9716,2.6742-5.9716,5.9716C286.9901,133.6666,289.6644,136.3409,292.9617,136.3409z"/>
</g>
</svg>
