<?xml version="1.0" encoding="utf-8"?>
<!-- Generator: Adobe Illustrator 27.6.1, SVG Export Plug-In . SVG Version: 6.00 Build 0)  -->
<!DOCTYPE svg PUBLIC "-//W3C//DTD SVG 1.1//EN" "http://www.w3.org/Graphics/SVG/1.1/DTD/svg11.dtd" [
	<!ENTITY ns_extend "http://ns.adobe.com/Extensibility/1.0/">
	<!ENTITY ns_ai "http://ns.adobe.com/AdobeIllustrator/10.0/">
	<!ENTITY ns_graphs "http://ns.adobe.com/Graphs/1.0/">
	<!ENTITY ns_vars "http://ns.adobe.com/Variables/1.0/">
	<!ENTITY ns_imrep "http://ns.adobe.com/ImageReplacement/1.0/">
	<!ENTITY ns_sfw "http://ns.adobe.com/SaveForWeb/1.0/">
	<!ENTITY ns_custom "http://ns.adobe.com/GenericCustomNamespace/1.0/">
	<!ENTITY ns_adobe_xpath "http://ns.adobe.com/XPath/1.0/">
]>
<svg version="1.1" id="Layer_1" xmlns:x="&ns_extend;" xmlns:i="&ns_ai;" xmlns:graph="&ns_graphs;"
	 xmlns="http://www.w3.org/2000/svg" xmlns:xlink="http://www.w3.org/1999/xlink" x="0px" y="0px" viewBox="0 0 50 50"
	 style="enable-background:new 0 0 50 50;" xml:space="preserve">
<style type="text/css">
	.st0{fill:#FFFFFF;}
	.st1{fill:#D1D3D4;}
	.st2{fill:#74ABDE;}
	.st3{fill:#F5B31A;}
	.st4{fill:#83330B;}
</style>
<metadata>
	<sfw  xmlns="&ns_sfw;">
		<slices></slices>
		<sliceSourceBounds  bottomLeftOrigin="true" height="50" width="50" x="0" y="0"></sliceSourceBounds>
	</sfw>
</metadata>
<g id="Layer_2_00000123403691739621316350000017975105315266775208_">
	<g id="Layer_2_00000009549042599903514300000009786033506733176249_">
		<g>
			<circle class="st0" cx="24.9998" cy="25.0002" r="24.7525"/>
			<path class="st1" d="M25,50C11.215,50,0,38.785,0,25S11.215,0,25,0s25,11.215,25,25S38.785,50,25,50z M25,0.495
				C11.4881,0.495,0.495,11.4881,0.495,25S11.4881,49.505,25,49.505S49.505,38.5119,49.505,25S38.5119,0.495,25,0.495z"/>
		</g>
	</g>
</g>
<g id="XMLID_9721_">
	<g id="XMLID_9839_">
		<path id="XMLID_9842_" class="st0" d="M49.5,24.9995c0,2.8637-0.4951,5.6137-1.4032,8.166H1.9004
			C0.9942,30.6132,0.5,27.8632,0.5,24.9995s0.4942-5.6137,1.4004-8.1661h46.1964C49.0049,19.3858,49.5,22.1359,49.5,24.9995z"/>
		<path id="XMLID_9841_" class="st2" d="M48.0968,16.8335H1.9004c0.5034-1.4281,1.1381-2.7907,1.8872-4.083
			C8.0305,5.4333,15.9508,0.5014,25.0009,0.5014c9.0483,0,16.9686,4.932,21.2114,12.2491
			C46.9578,14.0428,47.5934,15.4054,48.0968,16.8335z"/>
		<path id="XMLID_9840_" class="st2" d="M48.0968,33.1656c-0.5034,1.4281-1.139,2.7907-1.8845,4.084
			c-4.2428,7.3171-12.1631,12.2491-21.2114,12.2491c-9.0501,0-16.9704-4.932-21.2133-12.2491
			c-0.7491-1.2933-1.3838-2.6558-1.8872-4.084H48.0968z"/>
	</g>
	<g id="XMLID_9722_">
		<g id="XMLID_9723_">
			<g id="XMLID_9724_">
				<g id="XMLID_9725_">
					<path id="XMLID_9838_" class="st3" d="M26.8688,20.4879l-0.8747,1.902c-0.0462-0.0166-0.0924-0.0333-0.1386-0.048
						l1.6756-3.5768c0.0176-0.0369,0.0508-0.0268,0.061-0.0231c0.0101,0.0046,0.0406,0.0203,0.0277,0.06l-1.346,3.7135
						c-0.0425-0.0212-0.0868-0.0425-0.1303-0.0628L26.8688,20.4879z"/>
					<path id="XMLID_9837_" class="st3" d="M25.4434,22.243c0.0037-0.4591,0.0397-1.0235,0.2319-1.5205
						c0.0305-0.0785,0.0694-0.1524,0.1118-0.2319c0.0397-0.0739,0.0794-0.1496,0.1127-0.2291
						c0.0739-0.1857,0.1266-0.3787,0.1552-0.5764c0.0157-0.109,0.0111-0.2208,0.0074-0.3289
						c-0.0028-0.0831-0.0065-0.1681,0.0009-0.2494c0.0102-0.1339,0.049-0.2605,0.1109-0.3686
						c0.0786-0.1367,0.1617-0.2282,0.2236-0.2568c0,0.0018-0.0009,0.0028-0.0018,0.0046c-0.0203,0.0462-0.049,0.0915-0.0784,0.1386
						c-0.049,0.0785-0.1008,0.1598-0.1192,0.255c-0.0193,0.1007,0.0055,0.2734,0.0323,0.4563
						c0.0203,0.1395,0.0416,0.2845,0.0397,0.3843c-0.0028,0.2051-0.109,0.5977-0.2559,0.9524
						c-0.0988,0.2402-0.1626,0.5071-0.194,0.8185c-0.0129,0.1349-0.0212,0.2744-0.0222,0.4259
						c-0.0009,0.1423-0.0222,0.2845-0.0573,0.3908c-0.0314-0.0083-0.0628-0.0166-0.0942-0.024
						c0.0074-0.0517,0.0157-0.1182,0.0231-0.1968c0.0083-0.0924,0.0157-0.1995,0.0185-0.3159
						c0.0018-0.1164-0.0028-0.2365,0.0055-0.3575c0.0074-0.1201,0.0249-0.2402,0.0509-0.351
						c0.0239-0.1109,0.0554-0.2125,0.084-0.2993c0.0305-0.0868,0.0573-0.158,0.0767-0.2078c0.0139-0.037,0.0231-0.0628,0.0268-0.073
						c-0.0046,0.0102-0.0157,0.0351-0.0314,0.0711c-0.0222,0.049-0.0544,0.1182-0.0887,0.2032
						c-0.0351,0.085-0.0721,0.1857-0.1035,0.2975c-0.0323,0.1099-0.0582,0.2319-0.073,0.3538
						c-0.0157,0.1229-0.0194,0.2466-0.0277,0.3593c-0.0092,0.1127-0.0231,0.218-0.036,0.3067
						c-0.0119,0.0748-0.024,0.1367-0.0342,0.1857C25.5062,22.2541,25.4757,22.2477,25.4434,22.243z"/>
					<path id="XMLID_9836_" class="st3" d="M24.7728,22.2172l0.1792-3.9454c0.0028-0.0416,0.0379-0.0453,0.049-0.0453
						c0.0102,0,0.0443,0.0037,0.0471,0.0453l0.1793,3.9454c-0.0472-0.0037-0.0961-0.0065-0.1451-0.0083l-0.0813-2.0923
						l-0.0813,2.0923C24.8697,22.2107,24.8217,22.2135,24.7728,22.2172z"/>
					<path id="XMLID_9835_" class="st3" d="M23.8232,19.3794c-0.0352-0.0757-0.0712-0.1533-0.0961-0.2309
						c-0.0406-0.1266-0.0545-0.2596-0.0388-0.3834c0.0212-0.1561,0.0619-0.2716,0.109-0.3224c0,0.0018,0,0.0037,0,0.0055
						c-0.0009,0.0508-0.0102,0.1035-0.0194,0.158c-0.0157,0.0915-0.0323,0.1857-0.012,0.2817
						c0.0194,0.0988,0.109,0.2494,0.2032,0.4083c0.073,0.121,0.1487,0.2466,0.1848,0.3399c0.0748,0.1912,0.1284,0.594,0.1284,0.9773
						c0,0.2596,0.0434,0.5312,0.133,0.8305c0.0397,0.1302,0.0868,0.2623,0.1432,0.4028c0.0527,0.1293,0.0887,0.2688,0.0961,0.3797
						v0.0037c-0.0324,0.0037-0.0647,0.0074-0.0961,0.0129c-0.0129-0.0508-0.0305-0.1155-0.0536-0.1903
						c-0.0277-0.0887-0.0619-0.1912-0.1044-0.2993c-0.0425-0.1081-0.0924-0.218-0.1312-0.3316
						c-0.0396-0.1145-0.0684-0.2328-0.0887-0.3436c-0.0194-0.1127-0.0296-0.218-0.036-0.3095
						c-0.0055-0.0915-0.0073-0.1672-0.0092-0.2217c-0.0018-0.0527-0.0018-0.0841-0.0018-0.0841s-0.0009,0.0314-0.0028,0.0841
						c-0.0018,0.0545-0.0046,0.1302-0.0037,0.2217c0,0.0924,0.0046,0.1995,0.0176,0.3141c0.0129,0.1155,0.0351,0.2365,0.0684,0.3556
						c0.0323,0.1192,0.0767,0.2356,0.1118,0.3427c0.0351,0.1072,0.0628,0.2097,0.0841,0.2975
						c0.0176,0.073,0.0305,0.1349,0.0406,0.1838c-0.0323,0.0065-0.0637,0.0139-0.0942,0.0212
						c-0.1727-0.4259-0.3547-0.9616-0.3677-1.4937c-0.0018-0.0841,0.0065-0.1681,0.0148-0.2568
						c0.0074-0.0831,0.0166-0.1681,0.0157-0.2559c-0.0028-0.1986-0.0286-0.3981-0.0767-0.5912
						C23.9137,19.5789,23.8675,19.4782,23.8232,19.3794z"/>
					<path id="XMLID_9834_" class="st3" d="M23.1322,20.4879l0.7261,1.9648c-0.0443,0.0203-0.0878,0.0416-0.1321,0.0637
						L22.383,18.802c-0.0148-0.0397,0.0157-0.0554,0.0259-0.06c0.0102-0.0037,0.0434-0.0139,0.0619,0.0231l1.6748,3.5768
						c-0.0462,0.0148-0.0924,0.0314-0.1376,0.048L23.1322,20.4879z"/>
					<path id="XMLID_9833_" class="st3" d="M22.9114,22.0112c0.0748,0.0979,0.1607,0.1875,0.2328,0.2734
						c0.0739,0.0859,0.1395,0.17,0.1921,0.2429c0.0443,0.06,0.0804,0.1136,0.1082,0.1552
						c-0.0269,0.0185-0.0527,0.0369-0.0786,0.0554c-0.3224-0.3279-0.6965-0.7529-0.9108-1.2397
						c-0.0351-0.0776-0.06-0.158-0.0859-0.2429c-0.0239-0.0804-0.049-0.1626-0.0831-0.2429
						c-0.0785-0.1829-0.1774-0.3575-0.2965-0.5164c-0.0665-0.0887-0.1487-0.1644-0.2282-0.2383
						c-0.06-0.0564-0.1229-0.1155-0.1764-0.1764c-0.0859-0.1016-0.1496-0.2189-0.1811-0.339
						c-0.0397-0.146-0.0462-0.2642-0.0203-0.3335c0.0176,0.0471,0.0296,0.0979,0.0416,0.1524
						c0.0203,0.0896,0.0406,0.1829,0.0961,0.2642c0.0563,0.0841,0.1968,0.1884,0.3446,0.2993
						c0.1136,0.085,0.2309,0.1718,0.3002,0.2439c0.1432,0.1469,0.3456,0.4988,0.4924,0.8545
						c0.0988,0.2393,0.2439,0.473,0.4416,0.7159c0.086,0.1053,0.1792,0.2088,0.2864,0.3168
						c0.0998,0.1007,0.1848,0.2162,0.2346,0.3159l0.0009,0.0009c-0.0277,0.0166-0.0563,0.0323-0.0841,0.0499
						c-0.0305-0.0416-0.0721-0.0951-0.1229-0.1561c-0.0591-0.0711-0.1303-0.1533-0.2105-0.2365
						c-0.0804-0.0831-0.1682-0.1663-0.2486-0.2568c-0.0804-0.0905-0.1515-0.1875-0.2125-0.2836
						c-0.061-0.0961-0.1117-0.1903-0.1524-0.2716c-0.0397-0.0822-0.0701-0.1515-0.0924-0.2005
						c-0.0185-0.0425-0.0314-0.0702-0.0332-0.0757c0.0008,0.0065,0.011,0.0342,0.0286,0.0776
						c0.0185,0.0499,0.0453,0.121,0.0804,0.206c0.036,0.0841,0.0813,0.1829,0.1367,0.2836
						C22.7673,21.8098,22.8338,21.9142,22.9114,22.0112z"/>
					<path id="XMLID_9832_" class="st3" d="M21.5488,21.5456l1.4226,1.539c-0.0333,0.0351-0.0656,0.0711-0.0961,0.109
						l-2.6651-2.9172c-0.0286-0.0314-0.0055-0.0591,0.0018-0.0665c0.0074-0.0074,0.0342-0.0296,0.0656-0.0018l2.9182,2.6641
						c-0.0378,0.0314-0.0739,0.0637-0.109,0.0979L21.5488,21.5456z"/>
					<path id="XMLID_9831_" class="st3" d="M21.1368,22.547c-0.0527-0.0637-0.1072-0.1303-0.169-0.1912
						c-0.1432-0.1404-0.3021-0.2623-0.473-0.364c-0.0951-0.0573-0.1995-0.0961-0.3002-0.1339
						c-0.0776-0.0286-0.158-0.0582-0.2309-0.0951c-0.1192-0.061-0.2226-0.145-0.2984-0.2439
						c-0.0914-0.1192-0.1441-0.2263-0.1468-0.2993c0.0359,0.036,0.0655,0.0785,0.0978,0.1238
						c0.0527,0.0757,0.109,0.1533,0.1894,0.2078c0.085,0.0564,0.254,0.0988,0.4333,0.1441
						c0.1376,0.0351,0.2789,0.0702,0.3713,0.1099c0.1875,0.0831,0.5099,0.3298,0.7815,0.6014
						c0.1829,0.1829,0.4065,0.3446,0.6817,0.4924c0.1201,0.0647,0.2457,0.1247,0.3852,0.1838
						c0.1312,0.0545,0.255,0.1284,0.3391,0.2023l0.0018,0.0009c-0.0202,0.0259-0.0397,0.0517-0.0591,0.0785
						c-0.0453-0.0268-0.1035-0.061-0.1736-0.0988c-0.0823-0.0425-0.1784-0.0905-0.2855-0.1367
						c-0.1062-0.0462-0.2199-0.0896-0.3279-0.1432c-0.1081-0.0517-0.2115-0.1145-0.3048-0.1801
						c-0.0933-0.0656-0.1755-0.133-0.2448-0.1931c-0.0674-0.061-0.1238-0.1136-0.1617-0.1497
						c-0.0249-0.0231-0.0424-0.0397-0.0527-0.049c0.0083,0.0102,0.0259,0.0286,0.049,0.0527
						c0.036,0.0388,0.0878,0.0951,0.1543,0.1589c0.0647,0.0656,0.1432,0.1376,0.2337,0.2106
						c0.0906,0.0711,0.1922,0.1413,0.3002,0.2014c0.1072,0.0628,0.2199,0.1127,0.3215,0.1635
						c0.0998,0.0517,0.1921,0.1044,0.2697,0.1515c0.0637,0.0388,0.1173,0.0739,0.1589,0.1025
						c-0.0185,0.0268-0.0351,0.0536-0.0517,0.0804c-0.4231-0.1792-0.9312-0.4286-1.3164-0.7963
						C21.2477,22.6809,21.1932,22.6153,21.1368,22.547z"/>
					<path id="XMLID_9830_" class="st3" d="M22.3433,24.1441l-3.5759-1.6748c-0.037-0.0185-0.0268-0.0527-0.0231-0.0619
						c0.0037-0.0102,0.0212-0.0416,0.06-0.0277l3.7135,1.345c-0.0212,0.0434-0.0425,0.0868-0.0628,0.1312l-1.9648-0.7252
						l1.902,0.8757C22.3747,24.0518,22.358,24.0979,22.3433,24.1441z"/>
					<path id="XMLID_9829_" class="st3" d="M18.7397,23.8254c-0.1357-0.0785-0.2272-0.1607-0.2568-0.2236
						c0.0018,0.0009,0.0037,0.0009,0.0046,0.0009c0.0471,0.0203,0.0924,0.049,0.1395,0.0794
						c0.0786,0.0499,0.1598,0.1007,0.255,0.1192c0.0998,0.0194,0.2734-0.0055,0.4554-0.0333
						c0.1404-0.0203,0.2854-0.0416,0.3844-0.0397c0.2059,0.0037,0.5976,0.109,0.9523,0.2568
						c0.2402,0.0988,0.5072,0.1617,0.8185,0.194c0.1358,0.0139,0.2753,0.0203,0.4268,0.0212
						c0.1404,0.0018,0.2817,0.0222,0.388,0.0563l0.0028,0.0018c-0.0092,0.0314-0.0166,0.0628-0.0249,0.0942
						c-0.0517-0.0074-0.1173-0.0157-0.1968-0.024c-0.0915-0.0083-0.1995-0.0157-0.3159-0.0176
						c-0.1155-0.0018-0.2366,0.0018-0.3566-0.0055c-0.121-0.0083-0.2402-0.0259-0.351-0.0508
						c-0.1118-0.0249-0.2134-0.0554-0.2992-0.085c-0.0869-0.0286-0.158-0.0563-0.2079-0.0757
						c-0.0333-0.0129-0.0563-0.0212-0.0692-0.0259c-0.0038-0.0009-0.0065-0.0028-0.0075-0.0028
						c0.0009,0.0009,0.0037,0.0018,0.0075,0.0028c0.0119,0.0055,0.035,0.0157,0.0664,0.0314
						c0.0499,0.0203,0.1183,0.0527,0.2042,0.0878c0.085,0.0351,0.1857,0.0721,0.2965,0.1044
						c0.1099,0.0305,0.2319,0.0563,0.3547,0.0721c0.1229,0.0157,0.2466,0.0194,0.3593,0.0277
						c0.1127,0.0083,0.218,0.0222,0.3077,0.036c0.0729,0.012,0.1357,0.024,0.1848,0.0342
						c-0.0065,0.0314-0.0121,0.0628-0.0176,0.0942c-0.4591-0.0046-1.0235-0.0406-1.5187-0.2319
						c-0.0794-0.0305-0.1542-0.0702-0.2337-0.1118c-0.0721-0.0397-0.1487-0.0804-0.2291-0.1127
						c-0.1848-0.0739-0.3787-0.1266-0.5755-0.1552c-0.109-0.0157-0.2208-0.012-0.3289-0.0083c-0.0831,0.0028-0.169,0.0065-0.2494,0
						C18.9752,23.9261,18.8477,23.8873,18.7397,23.8254z"/>
					<path id="XMLID_9828_" class="st3" d="M18.2741,24.9506l3.9454-0.1792c-0.0036,0.049-0.0074,0.097-0.0074,0.1469
						l-2.0932,0.0804l2.0932,0.0813c0,0.049,0.0038,0.097,0.0074,0.146l-3.9445-0.1792c-0.0425-0.0028-0.0462-0.037-0.0462-0.048
						C18.2288,24.9875,18.2325,24.9534,18.2741,24.9506z"/>
					<path id="XMLID_9827_" class="st3" d="M18.4496,26.2023c0.0508,0.0009,0.1035,0.0102,0.1589,0.0194
						c0.0915,0.0157,0.1848,0.0314,0.2818,0.012c0.0997-0.0203,0.2494-0.109,0.4082-0.2042c0.121-0.0721,0.2466-0.1478,0.339-0.1838
						c0.1912-0.0757,0.594-0.1284,0.9783-0.1284c0.2596,0,0.5312-0.0434,0.8305-0.1339c0.1303-0.0379,0.2615-0.085,0.4018-0.1423
						c0.1312-0.0536,0.2707-0.0887,0.3824-0.097h0.0009c0.0037,0.0323,0.0083,0.0656,0.0129,0.097
						c-0.0499,0.0129-0.1145,0.0305-0.1903,0.0536c-0.0887,0.0277-0.1903,0.0619-0.2984,0.1044
						c-0.1081,0.0425-0.218,0.0924-0.3326,0.1312c-0.1136,0.0388-0.2319,0.0684-0.3436,0.0878
						c-0.1119,0.0194-0.2181,0.0305-0.3086,0.036c-0.0924,0.0065-0.1681,0.0074-0.2217,0.0092
						c-0.0527,0.0018-0.0831,0.0028-0.0831,0.0028s0.0305,0.0009,0.0831,0.0028c0.0536,0.0018,0.1293,0.0037,0.2226,0.0037
						c0.0915-0.0009,0.1986-0.0046,0.3132-0.0176c0.1146-0.0139,0.2356-0.0351,0.3548-0.0684
						c0.1201-0.0333,0.2355-0.0767,0.3426-0.1118c0.1081-0.0351,0.2106-0.0628,0.2984-0.0841
						c0.073-0.0185,0.1349-0.0305,0.1829-0.0406c0.0065,0.0314,0.0148,0.0628,0.0212,0.0942
						c-0.4249,0.1718-0.9616,0.3547-1.4928,0.3667c-0.085,0.0028-0.169-0.0055-0.2577-0.0139
						c-0.0831-0.0083-0.1673-0.0148-0.255-0.0157c-0.1995,0.0018-0.3991,0.0277-0.5912,0.0767
						c-0.1072,0.0268-0.2088,0.073-0.3067,0.1192c-0.0757,0.0342-0.1533,0.0693-0.2309,0.0942
						c-0.1275,0.0416-0.2596,0.0554-0.3834,0.0388c-0.1552-0.0203-0.2707-0.061-0.3215-0.1081H18.4496z"/>
					<path id="XMLID_9826_" class="st3" d="M18.8043,27.6175c-0.0397,0.0139-0.0564-0.0166-0.06-0.0268
						c-0.0037-0.0102-0.0148-0.0443,0.0231-0.0619l3.5759-1.6748c0.0157,0.0462,0.0314,0.0915,0.049,0.1367l-1.902,0.8757
						l1.9648-0.7261c0.0203,0.0453,0.0416,0.0887,0.0628,0.133L18.8043,27.6175z"/>
					<path id="XMLID_9825_" class="st3" d="M20.3701,27.8336c0.1478-0.1432,0.4998-0.3464,0.8545-0.4924
						c0.2402-0.0998,0.4748-0.2439,0.7159-0.4416c0.1053-0.0859,0.2097-0.1792,0.3169-0.2864
						c0.0998-0.0988,0.2152-0.1848,0.315-0.2346l0.0028-0.0009c0.0157,0.0277,0.0323,0.0563,0.0499,0.0841
						c-0.0416,0.0314-0.0951,0.0721-0.1561,0.1229c-0.0711,0.0582-0.1533,0.1303-0.2365,0.2097
						c-0.0831,0.0813-0.1654,0.17-0.2567,0.2485c-0.0897,0.0804-0.1885,0.1524-0.2837,0.2134
						c-0.0961,0.06-0.1894,0.1118-0.2725,0.1515c-0.0812,0.0406-0.1515,0.0711-0.2005,0.0933
						c-0.036,0.0166-0.06,0.0277-0.0702,0.0323c0.0102-0.0046,0.0351-0.0139,0.073-0.0277c0.049-0.0185,0.121-0.0453,0.206-0.0813
						c0.085-0.0351,0.182-0.0804,0.2827-0.1358c0.1016-0.0563,0.2051-0.1238,0.3021-0.1995
						c0.0978-0.0767,0.1884-0.1607,0.2734-0.2346c0.0869-0.0739,0.17-0.1386,0.2429-0.1912
						c0.061-0.0453,0.1136-0.0813,0.1552-0.1081c0.0185,0.0259,0.037,0.0517,0.0564,0.0776
						c-0.3279,0.3224-0.7529,0.6965-1.2397,0.9118c-0.0776,0.0351-0.1589,0.0591-0.2439,0.0859
						c-0.0794,0.024-0.1617,0.049-0.2411,0.0831c-0.1848,0.0785-0.3584,0.1783-0.5182,0.2975
						c-0.0888,0.0656-0.1645,0.1469-0.2375,0.2263c-0.0563,0.061-0.1155,0.1238-0.1774,0.1764
						c-0.1016,0.0868-0.2189,0.1496-0.339,0.1829c-0.1514,0.0397-0.2744,0.0462-0.339,0.0222c0.0009,0,0.0028-0.0009,0.0046-0.0018
						c0.0471-0.0185,0.0988-0.0305,0.1533-0.0425c0.0905-0.0203,0.1838-0.0416,0.2651-0.0961
						c0.0841-0.0564,0.1884-0.1968,0.2993-0.3446C20.2113,28.0202,20.299,27.902,20.3701,27.8336z"/>
					<path id="XMLID_9824_" class="st3" d="M21.5488,28.4516l1.5381-1.4244c0.0351,0.0342,0.0712,0.0665,0.109,0.0979
						l-2.9182,2.6632c-0.0314,0.0286-0.0582,0.0065-0.0656-0.0009c-0.0074-0.0074-0.0305-0.0351-0.0018-0.0656l2.6641-2.9182
						c0.0314,0.037,0.0637,0.073,0.097,0.109L21.5488,28.4516z"/>
					<path id="XMLID_9823_" class="st3" d="M23.5377,27.3745c-0.1801,0.4231-0.4295,0.9312-0.7963,1.3154
						c-0.0582,0.0619-0.1238,0.1155-0.193,0.1718c-0.0638,0.0536-0.1303,0.1081-0.1913,0.17
						c-0.1395,0.1423-0.2613,0.3011-0.364,0.472c-0.0554,0.0951-0.0951,0.2005-0.133,0.3011
						c-0.0286,0.0776-0.0582,0.158-0.0961,0.2309c-0.06,0.1192-0.1441,0.2226-0.2439,0.2975
						c-0.1238,0.0961-0.2356,0.1487-0.3039,0.1524c0.0009-0.0018,0.0019-0.0028,0.0028-0.0037
						c0.037-0.036,0.0804-0.0665,0.1266-0.0988c0.0748-0.0536,0.1533-0.109,0.2078-0.1903c0.0564-0.0841,0.0989-0.254,0.1441-0.4332
						c0.0342-0.1376,0.0702-0.2781,0.1109-0.3704c0.0813-0.1884,0.3279-0.5099,0.6004-0.7824
						c0.1829-0.1829,0.3446-0.4055,0.4924-0.6808c0.0647-0.1201,0.1238-0.2466,0.183-0.3861
						c0.0554-0.1303,0.1283-0.254,0.2022-0.3381v-0.0009l0.001-0.0009c0.0258,0.0203,0.0517,0.0397,0.0784,0.0591
						c-0.0268,0.0443-0.061,0.1035-0.0979,0.1737c-0.0434,0.0813-0.0914,0.1792-0.1376,0.2845
						c-0.0462,0.1072-0.0888,0.2199-0.1423,0.3279c-0.0527,0.109-0.1155,0.2125-0.1801,0.3058
						c-0.0655,0.0924-0.133,0.1755-0.1931,0.2439c-0.061,0.0684-0.1126,0.1238-0.1496,0.1626
						c-0.0277,0.0296-0.0462,0.049-0.0546,0.0573c0.0084-0.0074,0.0286-0.0268,0.0573-0.0536
						c0.0397-0.036,0.0961-0.0887,0.1598-0.1543c0.0647-0.0647,0.1376-0.1441,0.2097-0.2337
						c0.0712-0.0905,0.1413-0.1921,0.2032-0.3002c0.061-0.1081,0.1118-0.2208,0.1626-0.3215
						c0.0517-0.1007,0.1044-0.1921,0.1515-0.2697c0.0388-0.0647,0.0739-0.1182,0.1016-0.1598
						C23.4832,27.3403,23.51,27.3579,23.5377,27.3745z"/>
					<path id="XMLID_9822_" class="st3" d="M23.1322,29.5093l0.8758-1.9029c0.0452,0.0176,0.0905,0.0342,0.1376,0.049
						l-1.6748,3.5759c-0.0185,0.0379-0.0517,0.0277-0.0619,0.024c-0.0102-0.0046-0.0406-0.0203-0.0259-0.06l1.3431-3.7135
						c0.0443,0.0212,0.0878,0.0425,0.1321,0.0628L23.1322,29.5093z"/>
					<path id="XMLID_9821_" class="st3" d="M23.6051,31.5111c0.0212-0.0462,0.049-0.0915,0.0785-0.1386
						c0.0499-0.0785,0.1007-0.1598,0.1192-0.255c0.0204-0.0998-0.0055-0.2734-0.0314-0.4563
						c-0.0212-0.1395-0.0416-0.2845-0.0406-0.3843c0.0036-0.2051,0.1089-0.5977,0.2558-0.9524
						c0.0998-0.2393,0.1626-0.5071,0.194-0.8185c0.0139-0.1349,0.0213-0.2744,0.0222-0.4259
						c0.0009-0.1423,0.0222-0.2845,0.0573-0.3908l0,0c0.0314,0.0083,0.0628,0.0166,0.0951,0.024
						c-0.0083,0.0517-0.0166,0.1182-0.0239,0.1968c-0.0084,0.0924-0.0158,0.2005-0.0176,0.3159
						c-0.0028,0.1164,0.0018,0.2365-0.0065,0.3575c-0.0074,0.121-0.0249,0.2402-0.0498,0.351
						c-0.025,0.1109-0.0564,0.2134-0.0851,0.2993c-0.0296,0.0868-0.0573,0.158-0.0757,0.2078
						c-0.0147,0.037-0.0239,0.0628-0.0277,0.073c0.0046-0.0102,0.0157-0.0351,0.0323-0.0711
						c0.0222-0.049,0.0536-0.1182,0.0887-0.2032c0.0342-0.085,0.0711-0.1857,0.1035-0.2975
						c0.0323-0.1099,0.0582-0.2309,0.073-0.3538c0.0157-0.1229,0.0185-0.2466,0.0268-0.3593
						c0.0102-0.1127,0.0231-0.218,0.036-0.3067c0.012-0.0739,0.024-0.1367,0.0342-0.1857c0.0314,0.0065,0.0628,0.012,0.0951,0.0166
						c-0.0046,0.46-0.0406,1.0235-0.2328,1.5205c-0.0305,0.0785-0.0693,0.1524-0.1118,0.2319
						c-0.0388,0.0739-0.0794,0.1496-0.1109,0.2291c-0.0757,0.1857-0.1284,0.3787-0.1561,0.5764
						c-0.0157,0.109-0.012,0.2208-0.0083,0.3289c0.0037,0.0831,0.0065,0.1681-0.0009,0.2503
						c-0.0102,0.133-0.048,0.2596-0.1099,0.3677c-0.0794,0.1367-0.1616,0.2282-0.2236,0.2568
						C23.6042,31.5139,23.6051,31.513,23.6051,31.5111z"/>
					<path id="XMLID_9820_" class="st3" d="M24.952,31.7254l-0.1792-3.9454c0.049,0.0037,0.097,0.0065,0.1469,0.0083l0.0813,2.0923
						l0.0813-2.0923c0.049-0.0018,0.0979-0.0046,0.1451-0.0083l-0.1793,3.9454c-0.0028,0.0416-0.0369,0.0453-0.0471,0.0453
						C24.9898,31.7707,24.9547,31.767,24.952,31.7254z"/>
					<path id="XMLID_9819_" class="st3" d="M25.4434,28.1505c-0.0536-0.1302-0.0887-0.2697-0.097-0.3824v-0.0009
						c0.0323-0.0037,0.0647-0.0074,0.097-0.0129c0.012,0.0508,0.0305,0.1155,0.0527,0.1903
						c0.0277,0.0887,0.0628,0.1912,0.1044,0.2993c0.0426,0.1081,0.0924,0.218,0.1312,0.3316
						c0.0397,0.1145,0.0684,0.2328,0.0887,0.3436c0.0194,0.1127,0.0296,0.2189,0.036,0.3095
						c0.0055,0.0915,0.0074,0.1681,0.0092,0.2217c0.0018,0.0527,0.0028,0.0841,0.0028,0.0841s0.0009-0.0314,0.0018-0.0841
						c0.0018-0.0536,0.0046-0.1302,0.0046-0.2217c0-0.0924-0.0055-0.1995-0.0176-0.3141c-0.0139-0.1145-0.0351-0.2365-0.0693-0.3556
						c-0.0323-0.1192-0.0767-0.2356-0.1109-0.3427c-0.036-0.1072-0.0628-0.2097-0.085-0.2975
						c-0.0176-0.073-0.0305-0.1349-0.0397-0.1838c0.0323-0.0065,0.0629-0.0139,0.0942-0.0212
						c0.1719,0.4268,0.3538,0.9616,0.3677,1.4937c0.0009,0.0841-0.0065,0.1681-0.0157,0.2568
						c-0.0074,0.0831-0.0157,0.1681-0.0157,0.2559c0.0028,0.1986,0.0286,0.3981,0.0776,0.5912
						c0.0268,0.1072,0.073,0.2078,0.1183,0.3067c0.0341,0.0757,0.0701,0.1533,0.0951,0.2309
						c0.0406,0.1266,0.0545,0.2596,0.0388,0.3834c-0.0203,0.1561-0.0619,0.2716-0.1081,0.3224
						c-0.0009-0.0018-0.0009-0.0037-0.0009-0.0055c0.0018-0.0508,0.0102-0.1035,0.0194-0.158
						c0.0157-0.0915,0.0323-0.1857,0.0129-0.2817c-0.0194-0.0988-0.109-0.2494-0.2042-0.4083
						c-0.073-0.121-0.1469-0.2466-0.1838-0.3399c-0.0757-0.1912-0.1293-0.594-0.1293-0.9773c0-0.2596-0.0425-0.5312-0.133-0.8305
						C25.5469,28.423,25.4998,28.2909,25.4434,28.1505z"/>
					<path id="XMLID_9818_" class="st3" d="M27.5311,31.2322l-1.6756-3.5768c0.0462-0.0148,0.0924-0.0314,0.1386-0.049
						l0.8747,1.9029l-0.7252-1.9648c0.0444-0.0203,0.0887-0.0416,0.1312-0.0637l1.3441,3.7144
						c0.0139,0.0397-0.0166,0.0554-0.0267,0.06C27.5829,31.2589,27.5487,31.2691,27.5311,31.2322z"/>
					<path id="XMLID_9817_" class="st3" d="M26.6157,27.7413c-0.0988-0.0998-0.1857-0.2152-0.2356-0.3159l-0.0009-0.0009
						c0.0286-0.0166,0.0564-0.0323,0.085-0.0499c0.0305,0.0416,0.0721,0.0951,0.1219,0.1561
						c0.06,0.0711,0.1312,0.1533,0.2106,0.2365c0.0813,0.0831,0.169,0.1663,0.2485,0.2568
						c0.0804,0.0905,0.1515,0.1884,0.2125,0.2836c0.0619,0.0961,0.1118,0.1903,0.1524,0.2725
						c0.0397,0.0813,0.0702,0.1506,0.0924,0.1995c0.0148,0.0323,0.025,0.0545,0.0305,0.0674
						c0.0018,0.0037,0.0028,0.0065,0.0038,0.0083c0-0.0018-0.0019-0.0046-0.0038-0.0083c-0.0037-0.0129-0.012-0.036-0.0259-0.0693
						c-0.0185-0.0499-0.0453-0.121-0.0804-0.206c-0.0351-0.0841-0.0813-0.1829-0.1367-0.2836
						c-0.0563-0.1007-0.1228-0.2051-0.1995-0.3021c-0.0757-0.0979-0.1607-0.1875-0.2337-0.2734
						c-0.0739-0.0859-0.1386-0.17-0.1921-0.2429c-0.0443-0.06-0.0804-0.1136-0.1071-0.1552
						c0.0267-0.0185,0.0526-0.0369,0.0784-0.0545c0.3215,0.327,0.6956,0.7519,0.9108,1.2388
						c0.0342,0.0776,0.0591,0.1589,0.085,0.2429c0.025,0.0804,0.0499,0.1626,0.0831,0.243
						c0.0785,0.1829,0.1783,0.3575,0.2975,0.5164c0.0656,0.0887,0.1478,0.1644,0.2272,0.2383
						c0.06,0.0563,0.1229,0.1155,0.1764,0.1774c0.0859,0.1007,0.1497,0.218,0.182,0.339c0.0388,0.145,0.0462,0.2642,0.0203,0.3326
						c-0.0185-0.0462-0.0296-0.0979-0.0416-0.1524c-0.0203-0.0896-0.0416-0.1829-0.097-0.2642
						c-0.0563-0.0841-0.1968-0.1884-0.3446-0.2993c-0.1136-0.085-0.23-0.1718-0.3002-0.2439
						c-0.1423-0.1469-0.3445-0.4988-0.4923-0.8545c-0.0998-0.2393-0.2439-0.473-0.4416-0.7159
						C26.8152,27.9537,26.7219,27.8493,26.6157,27.7413z"/>
					<path id="XMLID_9816_" class="st3" d="M28.453,28.4516l-1.4235-1.539c0.0333-0.036,0.0665-0.0721,0.0979-0.109l2.6633,2.9172
						c0.0286,0.0314,0.0055,0.0582-0.0019,0.0665c-0.0073,0.0074-0.0342,0.0296-0.0656,0.0018l-2.9172-2.6641
						c0.0369-0.0314,0.073-0.0637,0.109-0.0979L28.453,28.4516z"/>
					<path id="XMLID_9815_" class="st3" d="M27.5422,26.9154c-0.1302-0.0554-0.254-0.1293-0.339-0.2023v-0.0009l-0.0009-0.0009
						c0.0194-0.0259,0.0397-0.0517,0.0591-0.0776c0.0444,0.0268,0.1025,0.06,0.1727,0.0979
						c0.0822,0.0425,0.1792,0.0905,0.2854,0.1367c0.1072,0.0471,0.2199,0.0896,0.3279,0.1432
						c0.1082,0.0517,0.2115,0.1145,0.3048,0.1801c0.0933,0.0656,0.1755,0.133,0.2448,0.1931
						c0.0684,0.061,0.1238,0.1136,0.1626,0.1497c0.0241,0.0231,0.0416,0.0397,0.0518,0.049
						c-0.0084-0.0102-0.0259-0.0286-0.0481-0.0527c-0.037-0.0379-0.0887-0.0951-0.1543-0.1589
						c-0.0655-0.0656-0.1441-0.1376-0.2337-0.2106c-0.0915-0.0711-0.1931-0.1413-0.3002-0.2023
						c-0.1081-0.0619-0.2208-0.1118-0.3215-0.1626c-0.1007-0.0517-0.1931-0.1044-0.2697-0.1515
						c-0.0647-0.0388-0.1173-0.0739-0.1589-0.1025c0.0176-0.0259,0.0351-0.0536,0.0517-0.0804
						c0.4231,0.1801,0.9302,0.4286,1.3154,0.7963c0.0619,0.0582,0.1155,0.1238,0.1718,0.1921
						c0.0527,0.0637,0.1081,0.1303,0.17,0.1921c0.1423,0.1395,0.3011,0.2614,0.472,0.363c0.0951,0.0573,0.1995,0.0961,0.3011,0.1339
						c0.0776,0.0286,0.158,0.0582,0.23,0.0951c0.1192,0.061,0.2226,0.145,0.2985,0.2439c0.0924,0.1192,0.144,0.2263,0.1468,0.2993
						c-0.0351-0.036-0.0647-0.0785-0.097-0.1238c-0.0536-0.0757-0.109-0.1533-0.1903-0.2078
						c-0.0841-0.0564-0.254-0.0988-0.4332-0.1441c-0.1367-0.0351-0.279-0.0702-0.3704-0.1099
						c-0.1884-0.0831-0.5108-0.3298-0.7824-0.6014c-0.1829-0.1829-0.4065-0.3446-0.6817-0.4924
						C27.8082,27.0337,27.6826,26.9745,27.5422,26.9154z"/>
					<path id="XMLID_9814_" class="st3" d="M31.2335,27.5288c0.0379,0.0176,0.0277,0.0517,0.0231,0.0619
						c-0.0046,0.0102-0.0203,0.0406-0.0591,0.0268l-3.7144-1.345c0.0222-0.0434,0.0434-0.0868,0.0637-0.1321l1.9639,0.7261
						l-1.9011-0.8757c0.0166-0.0453,0.0333-0.0915,0.048-0.1376L31.2335,27.5288z"/>
					<path id="XMLID_9813_" class="st3" d="M31.2613,26.1718c0.1358,0.0785,0.2282,0.1607,0.2569,0.2236
						c-0.0019-0.0009-0.0028-0.0009-0.0047-0.0009c-0.0471-0.0203-0.0915-0.049-0.1395-0.0794
						c-0.0775-0.0499-0.1589-0.1007-0.255-0.1192c-0.0997-0.0194-0.2725,0.0055-0.4554,0.0333
						c-0.1404,0.0203-0.2845,0.0425-0.3843,0.0397c-0.206-0.0037-0.5977-0.109-0.9524-0.2568
						c-0.2402-0.0988-0.5071-0.1617-0.8185-0.1931c-0.1358-0.0148-0.2753-0.0212-0.4267-0.0222
						c-0.1405-0.0009-0.2809-0.0222-0.388-0.0563l-0.0019-0.0018c0.0083-0.0314,0.0166-0.0628,0.024-0.0942
						c0.0518,0.0074,0.1173,0.0157,0.1968,0.024c0.0915,0.0083,0.1995,0.0157,0.315,0.0176
						c0.1173,0.0018,0.2374-0.0018,0.3575,0.0065c0.121,0.0074,0.2411,0.0249,0.351,0.0499
						c0.1118,0.0249,0.2134,0.0554,0.3003,0.085c0.0868,0.0286,0.157,0.0563,0.2068,0.0757c0.0379,0.0148,0.0628,0.024,0.073,0.0277
						c-0.0102-0.0046-0.0342-0.0157-0.0702-0.0323c-0.049-0.0222-0.1182-0.0536-0.2042-0.0887
						c-0.0841-0.0351-0.1857-0.0721-0.2956-0.1044c-0.1109-0.0305-0.2328-0.0563-0.3556-0.0721
						c-0.1219-0.0157-0.2457-0.0194-0.3593-0.0277c-0.1126-0.0083-0.2171-0.0222-0.3066-0.036
						c-0.0739-0.012-0.1368-0.024-0.1858-0.0342c0.0065-0.0314,0.012-0.0628,0.0176-0.0942
						c0.4591,0.0046,1.0245,0.0406,1.5196,0.2319c0.0794,0.0314,0.1533,0.0702,0.2319,0.1118
						c0.0739,0.0397,0.1496,0.0804,0.2309,0.1127c0.1838,0.0739,0.3778,0.1266,0.5746,0.1552
						c0.1099,0.0157,0.2217,0.012,0.3298,0.0083c0.0822-0.0028,0.1681-0.0065,0.2494,0
						C31.0257,26.072,31.1532,26.1099,31.2613,26.1718z"/>
					<path id="XMLID_9812_" class="st3" d="M31.7278,24.9506c0.0416,0.0028,0.0443,0.037,0.0443,0.048
						c0,0.0111-0.0028,0.0453-0.0443,0.048l-3.9463,0.1792c0.0047-0.049,0.0074-0.097,0.0083-0.146l2.0933-0.0813l-2.0933-0.0804
						c-0.0009-0.0499-0.0036-0.0979-0.0083-0.1469L31.7278,24.9506z"/>
					<path id="XMLID_9811_" class="st3" d="M31.5522,23.795c-0.0517-0.0009-0.1035-0.0102-0.1598-0.0194
						c-0.0905-0.0157-0.1848-0.0314-0.2807-0.012c-0.0998,0.0203-0.2494,0.109-0.4093,0.2042
						c-0.121,0.0721-0.2466,0.1478-0.3389,0.1838c-0.1913,0.0757-0.5931,0.1284-0.9774,0.1284
						c-0.2596,0-0.5321,0.0434-0.8314,0.1339c-0.1303,0.0388-0.2614,0.085-0.4009,0.1423c-0.1321,0.0536-0.2707,0.0887-0.3824,0.097
						h-0.0009c-0.0046-0.0323-0.0092-0.0656-0.0139-0.097c0.0499-0.0129,0.1145-0.0305,0.1903-0.0536
						c0.0888-0.0277,0.1912-0.0619,0.2993-0.1044c0.1072-0.0425,0.218-0.0924,0.3326-0.1312
						c0.1136-0.0388,0.2309-0.0684,0.3427-0.0878c0.1127-0.0194,0.218-0.0305,0.3095-0.036
						c0.0915-0.0065,0.1672-0.0074,0.2208-0.0092c0.0536-0.0018,0.0841-0.0028,0.0841-0.0028s-0.0305-0.0009-0.0841-0.0028
						c-0.0536-0.0018-0.1293-0.0037-0.2217-0.0037c-0.0924,0.0009-0.1995,0.0046-0.3141,0.0176
						c-0.1145,0.0139-0.2356,0.0351-0.3547,0.0693c-0.1201,0.0323-0.2356,0.0757-0.3427,0.1109
						c-0.1081,0.0351-0.2097,0.0628-0.2975,0.0841c-0.073,0.0185-0.1348,0.0305-0.1838,0.0406
						c-0.0064-0.0314-0.0139-0.0628-0.0212-0.0942c0.4259-0.1718,0.9616-0.3547,1.4929-0.3667
						c0.0849-0.0028,0.169,0.0055,0.2577,0.0148c0.0831,0.0074,0.169,0.0157,0.255,0.0148
						c0.1995-0.0018,0.3991-0.0277,0.5921-0.0767c0.1062-0.0268,0.2078-0.073,0.3058-0.1182
						c0.0757-0.0342,0.1543-0.0702,0.2319-0.0951c0.1266-0.0416,0.2596-0.0554,0.3824-0.0388
						c0.1561,0.0203,0.2716,0.0619,0.3233,0.1081H31.5522z"/>
					<path id="XMLID_9810_" class="st3" d="M31.1966,22.3798c0.0397-0.0139,0.0563,0.0176,0.06,0.0277
						c0.0046,0.0092,0.0148,0.0434-0.0231,0.061l-3.5759,1.6757c-0.0148-0.0462-0.0314-0.0924-0.048-0.1376l1.9011-0.8757
						l-1.9639,0.7252c-0.0203-0.0443-0.0416-0.0878-0.0637-0.1312L31.1966,22.3798z"/>
					<path id="XMLID_9809_" class="st3" d="M27.4276,23.6194l-0.0009,0.0009c-0.0166-0.0286-0.0333-0.0573-0.0499-0.085
						c0.0416-0.0314,0.0942-0.0721,0.1552-0.1229c0.0721-0.0582,0.1533-0.1303,0.2374-0.2097
						c0.0831-0.0813,0.1654-0.17,0.2559-0.2485c0.0905-0.0804,0.1884-0.1524,0.2836-0.2134c0.097-0.06,0.1903-0.1118,0.2725-0.1515
						c0.0813-0.0406,0.1524-0.0711,0.2005-0.0933c0.036-0.0166,0.061-0.0277,0.0711-0.0323
						c-0.0102,0.0046-0.036,0.0139-0.073,0.0277c-0.0499,0.0185-0.1219,0.0453-0.2069,0.0813
						c-0.0841,0.0351-0.1811,0.0804-0.2827,0.1367c-0.1007,0.0554-0.2042,0.1229-0.3021,0.1986
						c-0.0979,0.0767-0.1875,0.1607-0.2734,0.2346c-0.0858,0.0739-0.17,0.1386-0.2429,0.1912
						c-0.061,0.0453-0.1137,0.0813-0.1553,0.1081c-0.0176-0.0259-0.037-0.0517-0.0554-0.0776
						c0.3279-0.3224,0.7529-0.6965,1.2397-0.9118c0.0776-0.0351,0.158-0.0591,0.2429-0.085c0.0794-0.024,0.1617-0.0499,0.242-0.0841
						c0.1838-0.0776,0.3584-0.1783,0.5173-0.2975c0.0887-0.0656,0.1644-0.1469,0.2383-0.2263
						c0.0564-0.061,0.1145-0.1238,0.1764-0.1764c0.1016-0.0868,0.2199-0.1496,0.339-0.182
						c0.1515-0.0406,0.2744-0.0471,0.3399-0.0231c-0.0018,0.0009-0.0037,0.0009-0.0046,0.0018
						c-0.0471,0.0185-0.0988,0.0305-0.1543,0.0425c-0.0896,0.0203-0.1829,0.0416-0.2642,0.0961
						c-0.085,0.0564-0.1893,0.1968-0.3001,0.3446c-0.0831,0.1136-0.171,0.2319-0.243,0.3002
						c-0.1478,0.1441-0.4988,0.3455-0.8545,0.4933c-0.2393,0.0988-0.4739,0.2429-0.7159,0.4416
						c-0.1053,0.085-0.2088,0.1783-0.3159,0.2854C27.6429,23.4836,27.5275,23.5696,27.4276,23.6194z"/>
					<path id="XMLID_9808_" class="st3" d="M28.453,21.5456L26.915,22.97c-0.036-0.0342-0.0721-0.0665-0.109-0.0979l2.9172-2.6632
						c0.0314-0.0286,0.0583-0.0065,0.0656,0.0009c0.0074,0.0083,0.0305,0.0351,0.0028,0.0656l-2.6651,2.9182
						c-0.0314-0.037-0.0637-0.073-0.097-0.109L28.453,21.5456z"/>
					<path id="XMLID_9807_" class="st3" d="M26.6461,22.5155c-0.0388,0.0647-0.073,0.1182-0.1016,0.1598
						c-0.0268-0.0185-0.0536-0.036-0.0804-0.0527c0.1792-0.4231,0.4286-0.9312,0.7954-1.3154
						c0.059-0.0619,0.1237-0.1155,0.193-0.1718c0.0637-0.0536,0.1312-0.1081,0.1912-0.17c0.1395-0.1423,0.2614-0.3011,0.3649-0.472
						c0.0554-0.0951,0.0942-0.2005,0.1321-0.3011c0.0286-0.0776,0.0591-0.158,0.0961-0.2309
						c0.061-0.1192,0.145-0.2217,0.2439-0.2975c0.1247-0.0961,0.2356-0.1487,0.3048-0.1524
						c-0.0009,0.0018-0.0028,0.0037-0.0037,0.0037c-0.037,0.036-0.0794,0.0665-0.1256,0.0988
						c-0.0757,0.0536-0.1543,0.109-0.2078,0.1903c-0.0563,0.0841-0.0988,0.254-0.1441,0.4332
						c-0.0351,0.1376-0.0711,0.2781-0.1099,0.3704c-0.0822,0.1884-0.3298,0.5099-0.6014,0.7824
						c-0.1838,0.1829-0.3455,0.4055-0.4924,0.6808c-0.0647,0.1201-0.1247,0.2466-0.1838,0.3861
						c-0.0544,0.1303-0.1283,0.2531-0.2014,0.3372l-0.0018,0.0028c-0.0259-0.0203-0.0517-0.0397-0.0776-0.0591
						c0.0259-0.0443,0.0601-0.1035,0.0979-0.1737c0.0425-0.0813,0.0905-0.1792,0.1367-0.2845
						c0.0462-0.1072,0.0887-0.2199,0.1432-0.3279c0.0518-0.109,0.1145-0.2125,0.1801-0.3058
						c0.0647-0.0924,0.1321-0.1755,0.1931-0.2439c0.06-0.0684,0.1128-0.1238,0.1497-0.1626
						c0.0267-0.0296,0.0462-0.049,0.0535-0.0573c-0.0083,0.0074-0.0277,0.0268-0.0573,0.0536
						c-0.0388,0.037-0.0942,0.0887-0.1598,0.1543c-0.0637,0.0647-0.1367,0.1441-0.2088,0.2337
						c-0.0721,0.0905-0.1423,0.1921-0.2032,0.3002c-0.061,0.1081-0.1127,0.2208-0.1634,0.3205
						C26.7459,22.3465,26.6933,22.4379,26.6461,22.5155z"/>
					<path id="XMLID_9806_" class="st4" d="M27.533,28.847c0.0018,0.0037,0.0038,0.0065,0.0038,0.0083
						C27.5357,28.8535,27.5348,28.8507,27.533,28.847z"/>
					<path id="XMLID_9805_" class="st3" d="M26.018,24.4684c0.1811,0.0563,0.2864,0.1986,0.2864,0.1986
						c-0.1155,0.0915-0.1866,0.1478-0.3326,0.1496c0.0804-0.0222,0.1413-0.0951,0.1413-0.1829
						C26.1131,24.5626,26.0743,24.5026,26.018,24.4684z"/>
					<path id="XMLID_9804_" class="st3" d="M25.5968,24.6485c0,0,0.0988-0.1626,0.2587-0.194
						c-0.0731,0.0268-0.1257,0.0961-0.1257,0.1792c0,0.0693,0.0388,0.1303,0.0951,0.1635
						C25.6707,24.7529,25.5968,24.6485,25.5968,24.6485z"/>
					<path id="XMLID_9803_" class="st4" d="M25.6993,26.2226c0,0-0.0074,0.0009-0.0222,0
						C25.6845,26.2226,25.6928,26.2226,25.6993,26.2226z"/>
					<path id="XMLID_9798_" class="st4" d="M25.921,24.3917c-0.2947,0-0.4767,0.2568-0.4767,0.2568s0.3815,0.4702,1.006,0.0351
						C26.4503,24.6836,26.2157,24.3917,25.921,24.3917z M25.8258,24.7972c-0.1543-0.0434-0.23-0.1487-0.23-0.1487
						s0.1007-0.1626,0.2597-0.1949c-0.0731,0.0268-0.1239,0.097-0.1239,0.1783C25.7316,24.7021,25.7695,24.7649,25.8258,24.7972z
						 M25.9718,24.8157c0.0813-0.0212,0.1404-0.0942,0.1404-0.1838c0-0.0702-0.0379-0.1293-0.0942-0.1617
						c0.1811,0.0536,0.2864,0.1968,0.2864,0.1968C26.188,24.7594,26.1178,24.8157,25.9718,24.8157z"/>
					<path id="XMLID_9797_" class="st4" d="M25.3418,24.764c0.0046-0.0397,0.0647-0.0499,0.0942-0.037
						c0.0222,0.0083,0.036,0.0249,0.0554,0.0388c0.0176,0.0139,0.0379,0.0277,0.0563,0.0406c0,0,0.4489,0.3215,0.8656-0.024
						c0,0-0.1182,0.23-0.5145,0.2032c-0.1654-0.0111-0.3427-0.0443-0.4804-0.1404C25.3954,24.8286,25.339,24.7935,25.3418,24.764z"
						/>
					<path id="XMLID_9796_" class="st4" d="M25.3954,24.6097c-0.0259,0.0129-0.0545,0.0129-0.0804,0.0028
						c-0.0185-0.0055-0.0453-0.0129-0.049-0.0351c-0.0083-0.0508,0.097-0.0517,0.1276-0.0628
						c0.0535-0.0212,0.0821-0.0794,0.1228-0.1173c0.1561-0.1469,0.3861-0.1746,0.5875-0.1136
						c0.1284,0.0388,0.2457,0.1127,0.3455,0.2014c0.0343,0.0296,0.0665,0.061,0.0951,0.0942
						c0.0065,0.0065,0.0333,0.0296,0.0333,0.0388c0,0,0,0.0249-0.0453,0c-0.0323-0.0185-0.0628-0.0508-0.0942-0.073
						c-0.0286-0.0212-0.0582-0.0416-0.0878-0.06c-0.1229-0.0748-0.2633-0.1312-0.4074-0.1432
						c-0.0721-0.0055-0.146,0.0009-0.2134,0.0277c-0.0739,0.0305-0.1302,0.0924-0.1949,0.1386
						c-0.0277,0.0203-0.0581,0.036-0.085,0.0573C25.4314,24.5792,25.4175,24.5986,25.3954,24.6097z"/>
					<path id="XMLID_9795_" class="st4" d="M25.1219,24.7049c-0.0037,0.0951,0.0028,0.1931,0.0259,0.2864
						c0.0166,0.0647,0.0406,0.1266,0.0776,0.182c0.0157,0.024,0.0351,0.0443,0.0554,0.0637
						c0.0112,0.012,0.0517,0.0388,0.0471,0.0573c-0.0028,0.0083-0.0102,0.0148-0.0185,0.0194
						c-0.0544,0.0342-0.0979,0.0139-0.1293-0.0379c-0.133-0.2245-0.1201-0.4859-0.0988-0.7353
						c0.0111-0.1182,0.0222-0.2365,0.0831-0.3418c0.0416-0.0721,0.1007-0.1164,0.1709-0.1589
						c0.1478-0.0878,0.3205-0.1376,0.4924-0.1339c0.2244,0.0046,0.4342,0.1016,0.6142,0.23
						c0.0951,0.0684,0.1977,0.145,0.2623,0.2466c-0.0314-0.0139-0.0619-0.0397-0.0924-0.0582
						c-0.0323-0.0194-0.0647-0.0379-0.0979-0.0563c-0.0545-0.0314-0.1118-0.061-0.17-0.0878
						c-0.3464-0.1561-0.8119-0.1663-1.0965,0.1192c-0.0434,0.0434-0.0794,0.0739-0.0961,0.133
						C25.1284,24.5192,25.1238,24.6143,25.1219,24.7049z"/>
					<path id="XMLID_9794_" class="st4" d="M25.0009,26.6715c-0.1931,0-0.3492,0.146-0.3704,0.3326
						c-0.0018-0.0139-0.0046-0.0286-0.0046-0.0434c0-0.2069,0.1681-0.3741,0.375-0.3741s0.375,0.1672,0.375,0.3741
						c0,0.0148-0.0037,0.0296-0.0046,0.0434C25.3501,26.8175,25.1931,26.6715,25.0009,26.6715z"/>
					<path id="XMLID_9793_" class="st3" d="M24.6674,26.3141c-0.0573-0.049-0.1303-0.0721-0.2068-0.0841v-0.0065
						c0.2429-0.0268,0.3833-0.0018,0.46,0.0249c0.0527,0.0185,0.1081,0.0185,0.1607,0c0.0767-0.0268,0.2171-0.0517,0.4591-0.0249
						l0.001,0.0065c-0.0758,0.0111-0.1507,0.0351-0.2061,0.0841c-0.0333,0.0286-0.0591,0.0628-0.0951,0.0887
						c-0.0683,0.049-0.1552,0.0841-0.2393,0.0841c-0.085,0-0.1718-0.0351-0.2402-0.0841
						C24.7247,26.3769,24.6998,26.3427,24.6674,26.3141z"/>
					<path id="XMLID_9792_" class="st4" d="M24.5169,25.7543c-0.1441-0.0166-0.1746-0.2457-0.0046-0.376
						c0,0-0.0831,0.1848,0.0416,0.2383c0.1247,0.0527,0.1727-0.1081,0.1727-0.1081s0.1109,0.1496,0.2744,0.1496
						s0.2734-0.1496,0.2734-0.1496s0.048,0.1607,0.1727,0.1081c0.1247-0.0536,0.0425-0.2383,0.0425-0.2383
						c0.17,0.1303,0.1386,0.3593-0.0055,0.376c-0.1811,0.0203-0.1977-0.06-0.229-0.1469c0.0008,0.0037-0.0112,0.0176-0.013,0.0203
						c-0.0046,0.0065-0.0102,0.012-0.0147,0.0185c-0.0112,0.0111-0.0232,0.0212-0.0361,0.0305
						c-0.0231,0.0176-0.049,0.0305-0.0767,0.0416c-0.0369,0.0148-0.0739,0.024-0.1136,0.024c-0.0065,0-0.012,0-0.0176-0.0009
						c-0.0453-0.0037-0.0886-0.0176-0.1293-0.0379c-0.0424-0.0222-0.0831-0.0527-0.1071-0.0961
						C24.7146,25.6942,24.6989,25.7746,24.5169,25.7543z"/>
					<path id="XMLID_9791_" class="st4" d="M24.4606,26.2235c0,0,0.2447-0.1072,0.4766-0.0416c0.0416,0.0111,0.0859,0.0111,0.1266,0
						c0.2328-0.0656,0.4767,0.0416,0.4767,0.0416c-0.242-0.0268-0.3824-0.0018-0.4591,0.0249c-0.0527,0.0185-0.1081,0.0185-0.1607,0
						C24.8439,26.2217,24.7035,26.1967,24.4606,26.2235z"/>
					<path id="XMLID_9790_" class="st3" d="M24.4606,26.23c-0.0444-0.0065-0.0888-0.0074-0.1313-0.0074
						c0.0425-0.0046,0.1339-0.0277,0.2503-0.1321c0.0425-0.0379,0.097-0.0637,0.1543-0.0693
						c0.1109-0.0102,0.1978,0.0508,0.267,0.0508c0.0694,0,0.1552-0.061,0.267-0.0508c0.0573,0.0055,0.1118,0.0314,0.1543,0.0693
						c0.1155,0.1044,0.206,0.1275,0.2494,0.1321c-0.0425,0-0.0868,0.0009-0.1302,0.0074l-0.001-0.0065
						c0,0-0.2439-0.1072-0.4767-0.0416c-0.0406,0.0111-0.085,0.0111-0.1266,0c-0.2319-0.0656-0.4766,0.0416-0.4766,0.0416V26.23z"/>
					<path id="XMLID_9789_" class="st4" d="M24.3016,26.2226c0,0,0.0083,0.0009,0.0249,0c0,0,0.0018,0,0.0028,0
						c0.0425,0,0.0868,0.0009,0.1313,0.0074c0.0766,0.012,0.1496,0.0351,0.2068,0.0841c0.0323,0.0286,0.0573,0.0628,0.0933,0.0887
						c0.0684,0.049,0.1552,0.0841,0.2402,0.0841c0.0841,0,0.171-0.0351,0.2393-0.0841c0.036-0.0259,0.0619-0.06,0.0951-0.0887
						c0.0554-0.049,0.1303-0.073,0.2061-0.0841c0.0433-0.0065,0.0877-0.0074,0.1302-0.0074c0.0018,0,0.0037,0,0.0055,0
						c0.0148,0.0009,0.0222,0,0.0222,0s-0.254,0.0369-0.363,0.2005c-0.1089,0.1635-0.3344,0.1497-0.3344,0.1497
						s-0.2272,0.0139-0.3372-0.1497C24.5557,26.2595,24.3016,26.2226,24.3016,26.2226z"/>
					<path id="XMLID_9788_" class="st4" d="M24.3016,26.2226c0,0,0.0979,0,0.1764-0.1293c0.0785-0.1302,0.218-0.1986,0.3085-0.1986
						c0.0453,0,0.0989,0.0231,0.1413,0.0443c0.0416,0.0231,0.073,0.0462,0.073,0.0462s0.1229-0.0905,0.2143-0.0905
						c0.0896,0,0.2291,0.0684,0.3077,0.1986c0.0784,0.1293,0.1764,0.1293,0.1764,0.1293c-0.0065,0-0.0148,0-0.0222,0
						c-0.0018,0-0.0037,0-0.0055,0c-0.0434-0.0046-0.1339-0.0277-0.2494-0.1321c-0.0425-0.0379-0.097-0.0637-0.1543-0.0693
						c-0.1118-0.0102-0.1976,0.0508-0.267,0.0508c-0.0692,0-0.1561-0.061-0.267-0.0508c-0.0573,0.0055-0.1118,0.0314-0.1543,0.0693
						c-0.1164,0.1044-0.2078,0.1275-0.2503,0.1321c-0.0009,0-0.0018,0-0.0018,0C24.3183,26.2226,24.3099,26.2226,24.3016,26.2226z"
						/>
					<path id="XMLID_9787_" class="st4" d="M24.3266,26.2226c-0.0166,0.0009-0.0249,0-0.0249,0
						C24.3099,26.2226,24.3183,26.2226,24.3266,26.2226z"/>
					<path id="XMLID_9786_" class="st3" d="M24.2712,24.6337c0-0.0831-0.0527-0.1524-0.1256-0.1792
						c0.1598,0.0314,0.2597,0.194,0.2597,0.194s-0.0739,0.1044-0.2292,0.1487C24.2324,24.764,24.2712,24.703,24.2712,24.6337z"/>
					<path id="XMLID_9785_" class="st4" d="M24.103,24.9857c-0.3972,0.0268-0.5145-0.2032-0.5145-0.2032
						c0.4157,0.3446,0.8646,0.024,0.8646,0.024c0.0185-0.0129,0.0388-0.0268,0.0582-0.0406
						c0.0176-0.0139,0.0314-0.0305,0.0536-0.0388c0.0305-0.0129,0.0897-0.0028,0.0942,0.037
						c0.0028,0.0296-0.0527,0.0647-0.0748,0.0813C24.4448,24.9413,24.2684,24.9746,24.103,24.9857z"/>
					<path id="XMLID_9784_" class="st3" d="M23.6975,24.667c0,0,0.1053-0.1423,0.2864-0.1986
						c-0.0573,0.0342-0.0951,0.0942-0.0951,0.1654c0,0.0878,0.06,0.1607,0.1413,0.1829
						C23.8841,24.8148,23.813,24.7584,23.6975,24.667z"/>
					<path id="XMLID_9779_" class="st4" d="M24.079,24.3917c-0.2947,0-0.5275,0.2919-0.5275,0.2919
						c0.6254,0.4351,1.006-0.0351,1.006-0.0351S24.3737,24.3917,24.079,24.3917z M23.6975,24.667c0,0,0.1062-0.1432,0.2873-0.1968
						c-0.0573,0.0323-0.0951,0.0915-0.0951,0.1617c0,0.0896,0.06,0.1626,0.1404,0.1838
						C23.8841,24.8157,23.8111,24.7594,23.6975,24.667z M24.1769,24.7972c0.0563-0.0323,0.0942-0.0951,0.0942-0.1654
						c0-0.0813-0.0517-0.1515-0.1246-0.1783c0.1597,0.0323,0.2595,0.1949,0.2595,0.1949S24.3303,24.7538,24.1769,24.7972z"/>
					<path id="XMLID_9778_" class="st4" d="M23.2975,24.3825c0.0647-0.1016,0.1663-0.1783,0.2623-0.2466
						c0.1802-0.1284,0.3898-0.2254,0.6144-0.23c0.1717-0.0037,0.3436,0.0462,0.4914,0.1339
						c0.0702,0.0425,0.1293,0.0868,0.1718,0.1589c0.061,0.1053,0.073,0.2236,0.0831,0.3418
						c0.0212,0.2494,0.0342,0.5108-0.0988,0.7353c-0.0305,0.0517-0.0757,0.0721-0.1302,0.0379
						c-0.0084-0.0046-0.0158-0.0111-0.0185-0.0194c-0.0038-0.0185,0.0369-0.0453,0.048-0.0573
						c0.0194-0.0194,0.0397-0.0397,0.0554-0.0637c0.036-0.0554,0.0619-0.1173,0.0776-0.182
						c0.0222-0.0933,0.0286-0.1912,0.0259-0.2864c-0.0028-0.0905-0.0065-0.1848-0.0305-0.2725
						c-0.0166-0.0591-0.0527-0.0896-0.0942-0.133c-0.2854-0.2854-0.751-0.2753-1.0983-0.1192
						c-0.0574,0.0268-0.1137,0.0563-0.17,0.0878c-0.0323,0.0185-0.0656,0.0369-0.0978,0.0563
						C23.3585,24.3427,23.328,24.3686,23.2975,24.3825z"/>
					<path id="XMLID_9764_" class="st3" d="M25.0009,22.3631c-1.454,0-2.6364,1.1815-2.6364,2.6364
						c0,1.4522,1.1824,2.6336,2.6364,2.6336c1.4522,0,2.6336-1.1815,2.6336-2.6336C27.6346,23.5446,26.4531,22.3631,25.0009,22.3631
						z M25.2744,25.5085c0,0,0.049,0.1617,0.1727,0.1081c0.1164-0.0517,0.0545-0.2143,0.0462-0.2356
						c0.1654,0.1302,0.1349,0.3566-0.0083,0.3732c-0.1811,0.0212-0.1995-0.0591-0.2299-0.146c0,0.0028-0.0102,0.0157-0.013,0.0185
						c-0.0055,0.0083-0.0111,0.0139-0.0166,0.0194c-0.0102,0.0111-0.0212,0.0212-0.035,0.0296
						c-0.0213,0.0194-0.0481,0.0323-0.0758,0.0434c-0.0379,0.0139-0.0757,0.0212-0.1136,0.0212h-0.0185
						c-0.0434-0.0028-0.0896-0.0157-0.1275-0.0379c-0.0433-0.0212-0.0831-0.0508-0.108-0.0942
						c-0.0324,0.0868-0.0481,0.1672-0.2301,0.146c-0.1432-0.0166-0.1755-0.243-0.0074-0.3732
						c-0.0083,0.0212-0.0702,0.1838,0.0453,0.2356c0.1247,0.0536,0.1709-0.1081,0.1709-0.1081s0.1109,0.1487,0.2753,0.1487
						C25.1635,25.6573,25.2744,25.5085,25.2744,25.5085z M23.2975,24.3834c0.0647-0.1025,0.1654-0.1783,0.2623-0.2466
						c0.1811-0.1293,0.3898-0.2263,0.6144-0.2319c0.1727-0.0028,0.3426,0.048,0.4914,0.1349
						c0.0702,0.0434,0.1303,0.0868,0.1709,0.1598c0.0619,0.1053,0.073,0.2217,0.0841,0.3409
						c0.0212,0.2485,0.0351,0.5108-0.0979,0.7353c-0.0323,0.0508-0.0757,0.073-0.1321,0.0379
						c-0.0082-0.0055-0.0139-0.0111-0.0166-0.0194c-0.0055-0.0185,0.0351-0.0453,0.0462-0.0563
						c0.0212-0.0222,0.0406-0.0406,0.0563-0.0647c0.0352-0.0545,0.0629-0.1164,0.0757-0.182
						c0.0249-0.0942,0.0305-0.1912,0.0277-0.2864c-0.0028-0.0887-0.0055-0.1838-0.0305-0.2725
						c-0.0157-0.06-0.0508-0.0896-0.0942-0.133c-0.2864-0.2864-0.7519-0.2753-1.0974-0.1192
						c-0.0573,0.0277-0.1136,0.0573-0.1709,0.0868c-0.0323,0.0185-0.0647,0.0379-0.097,0.0564
						C23.3603,24.3427,23.3271,24.3668,23.2975,24.3834z M23.425,24.6189c0-0.0111,0.0268-0.0333,0.0323-0.0406
						c0.0296-0.0333,0.0591-0.0628,0.0942-0.0924c0.1007-0.0896,0.2171-0.1626,0.3464-0.2023
						c0.2005-0.06,0.4295-0.0333,0.5866,0.1127c0.0407,0.0379,0.0702,0.0979,0.1247,0.1164
						c0.0296,0.0139,0.1349,0.0139,0.1266,0.0656c-0.0046,0.0212-0.0296,0.0296-0.048,0.0351
						c-0.0268,0.0102-0.0573,0.0102-0.0813-0.0028c-0.0212-0.0111-0.035-0.0323-0.0545-0.0462
						c-0.0267-0.0212-0.0591-0.0351-0.0859-0.0564c-0.0628-0.0462-0.1192-0.109-0.1949-0.1386
						c-0.0674-0.0268-0.1404-0.0323-0.2134-0.0268c-0.1432,0.0111-0.2845,0.0674-0.4055,0.1432
						c-0.0305,0.0194-0.06,0.0379-0.0896,0.0591c-0.0296,0.0222-0.0591,0.0545-0.0942,0.0739
						C23.425,24.643,23.425,24.6189,23.425,24.6189z M24.079,24.3917c0.2947,0,0.4785,0.2568,0.4785,0.2568
						s-0.3806,0.4702-1.006,0.0351C23.5515,24.6836,23.7843,24.3917,24.079,24.3917z M23.5894,24.7861
						c0.4166,0.3381,0.8628,0.0212,0.8628,0.0212c0.0194-0.0129,0.0406-0.0268,0.06-0.0425
						c0.0157-0.0139,0.0323-0.0305,0.0536-0.0379c0.0296-0.0139,0.0896-0.0028,0.0951,0.0379
						c0.0018,0.0296-0.0545,0.0647-0.0757,0.0804c-0.1413,0.0951-0.3169,0.1303-0.4813,0.1413
						C23.7308,25.0106,23.6033,24.8102,23.5894,24.7861z M25.3714,27.0032c-0.0212-0.1866-0.1783-0.3326-0.3704-0.3326
						c-0.1912,0-0.3483,0.146-0.3704,0.3326c-0.0028-0.0129-0.0046-0.0268-0.0046-0.0434c0-0.2051,0.1673-0.3723,0.375-0.3723
						c0.206,0,0.3732,0.1672,0.3732,0.3723C25.3741,26.9764,25.3714,26.9902,25.3714,27.0032z M25.3362,26.4221
						c-0.1081,0.1654-0.3353,0.1515-0.3353,0.1515s-0.2272,0.0139-0.3353-0.1515c-0.1109-0.1626-0.3649-0.2005-0.3649-0.2005
						s0.1007,0,0.1784-0.1293c0.0784-0.1303,0.217-0.1977,0.3085-0.1977c0.0434,0,0.098,0.0222,0.1404,0.0434
						c0.0407,0.024,0.073,0.0462,0.073,0.0462s0.1219-0.0896,0.2143-0.0896c0.0887,0,0.2291,0.0674,0.3077,0.1977
						c0.0784,0.1293,0.1764,0.1293,0.1764,0.1293S25.4443,26.2595,25.3362,26.4221z M25.8988,24.9866
						c-0.1644-0.0111-0.3436-0.0462-0.4813-0.1413c-0.0212-0.0157-0.0785-0.0508-0.0757-0.0804
						c0.0056-0.0406,0.0647-0.0517,0.0951-0.0379c0.0213,0.0074,0.0351,0.024,0.0536,0.0379
						c0.0194,0.0157,0.0379,0.0296,0.0573,0.0425c0,0,0.4463,0.3169,0.8619-0.0212C26.3995,24.8102,26.272,25.0106,25.8988,24.9866z
						 M25.4443,24.6485c0,0,0.182-0.2568,0.4767-0.2568c0.2948,0,0.5293,0.2919,0.5293,0.2919
						C25.8258,25.1187,25.4443,24.6485,25.4443,24.6485z M26.5316,24.6189c-0.0323-0.0194-0.0619-0.0517-0.0941-0.0739
						c-0.0277-0.0212-0.0573-0.0397-0.0869-0.0591c-0.1219-0.0757-0.2623-0.1321-0.4083-0.1432
						c-0.0702-0.0055-0.146,0-0.2106,0.0268c-0.0757,0.0296-0.133,0.0924-0.1977,0.1386c-0.0268,0.0212-0.0563,0.0351-0.0841,0.0564
						c-0.0185,0.0139-0.0323,0.0351-0.0536,0.0462c-0.0277,0.0129-0.0573,0.0129-0.0813,0.0028
						c-0.0194-0.0055-0.0462-0.0139-0.049-0.0351c-0.0083-0.0517,0.0979-0.0517,0.1276-0.0656
						c0.0535-0.0185,0.0812-0.0785,0.1219-0.1164c0.1561-0.146,0.3862-0.1727,0.5894-0.1127
						c0.1265,0.0397,0.2456,0.1127,0.3454,0.2023c0.0323,0.0296,0.0656,0.0591,0.0951,0.0924
						c0.0055,0.0074,0.0323,0.0296,0.0323,0.0406C26.5778,24.6189,26.5778,24.643,26.5316,24.6189z M26.613,24.3233
						c-0.0324-0.0185-0.0647-0.0379-0.0998-0.0564c-0.0545-0.0296-0.1109-0.0591-0.168-0.0868
						c-0.3483-0.1561-0.8139-0.1672-1.0975,0.1192c-0.0434,0.0434-0.0785,0.073-0.0951,0.133
						c-0.024,0.0859-0.0296,0.1838-0.0296,0.2725c-0.0055,0.0951,0.0028,0.1921,0.024,0.2864
						c0.0166,0.0656,0.0406,0.1275,0.0785,0.182c0.0166,0.024,0.0351,0.0425,0.0545,0.0647
						c0.0111,0.0111,0.0536,0.0379,0.049,0.0563c-0.0028,0.0083-0.0112,0.0139-0.0195,0.0194
						c-0.0544,0.0351-0.097,0.0129-0.1293-0.0379c-0.133-0.2245-0.1191-0.4868-0.1006-0.7353
						c0.0138-0.1192,0.0249-0.2356,0.0868-0.3409c0.0406-0.073,0.0998-0.1164,0.17-0.1598c0.146-0.0868,0.3196-0.1376,0.4896-0.1349
						c0.2272,0.0055,0.4351,0.1025,0.6171,0.2319c0.0942,0.0684,0.1968,0.1441,0.2624,0.2466
						C26.672,24.3668,26.6424,24.3427,26.613,24.3233z"/>
					<path id="XMLID_9763_" class="st4" d="M23.5636,24.545c-0.0314,0.0222-0.0619,0.0545-0.0951,0.073
						c-0.0443,0.0249-0.0443,0-0.0443,0c0-0.0092,0.0268-0.0323,0.0323-0.0388c0.0296-0.0333,0.061-0.0647,0.0951-0.0942
						c0.1007-0.0887,0.2171-0.1626,0.3464-0.2014c0.2005-0.061,0.4305-0.0333,0.5875,0.1136
						c0.0406,0.0379,0.0684,0.0961,0.1229,0.1173c0.0295,0.0111,0.1348,0.012,0.1265,0.0628
						c-0.0028,0.0222-0.0296,0.0296-0.0471,0.0351c-0.0268,0.0102-0.0563,0.0102-0.0813-0.0028
						c-0.0222-0.0111-0.036-0.0305-0.0545-0.0443c-0.0267-0.0212-0.0582-0.037-0.0859-0.0573
						c-0.0628-0.0462-0.1201-0.1081-0.194-0.1386c-0.0684-0.0268-0.1423-0.0333-0.2143-0.0277
						c-0.1432,0.012-0.2845,0.0684-0.4055,0.1432C23.6208,24.5035,23.5923,24.5238,23.5636,24.545z"/>
					<path id="XMLID_9762_" class="st4" d="M20.481,24.0656c0.0009,0,0.0037,0.0018,0.0075,0.0028
						C20.4847,24.0675,20.4819,24.0665,20.481,24.0656z"/>
					<path id="XMLID_9726_" class="st4" d="M31.7342,24.8323l-3.5528-0.1598c0.0055-0.0028,0.0102-0.0055,0.0157-0.0083
						c0.1386-0.0536,0.2651-0.0998,0.3927-0.1376c0.2864-0.0868,0.5486-0.1303,0.7944-0.1303c0.338,0,0.7814-0.0397,1.0225-0.1349
						c0.1025-0.0406,0.23-0.1192,0.3566-0.1921c0.1432-0.0859,0.2919-0.1755,0.3704-0.1921c0.0757-0.0129,0.1543,0,0.2383,0.0139
						c0.0591,0.0111,0.1192,0.0222,0.1783,0.0222c0.0573,0.0018,0.1109-0.0305,0.1248-0.0813c0.0101-0.0323,0-0.0702-0.025-0.1007
						c-0.0674-0.0804-0.2023-0.1349-0.3999-0.1617c-0.1405-0.0166-0.292-0.0028-0.4352,0.0434
						c-0.0841,0.0268-0.1653,0.0647-0.2439,0.0998c-0.0969,0.0462-0.1912,0.0887-0.2864,0.1136
						c-0.1838,0.0462-0.376,0.0702-0.5653,0.073c-0.0785,0-0.1617-0.0083-0.2429-0.0166c-0.0869-0.0074-0.1784-0.0157-0.2707-0.0129
						c-0.4379,0.0074-0.8757,0.1293-1.2545,0.267l3.3339-1.5621c0.0924-0.0434,0.1081-0.1413,0.0785-0.2115
						c-0.0268-0.073-0.1081-0.1266-0.2051-0.0942l-3.3449,1.2111c0.0055-0.0028,0.0073-0.0083,0.0129-0.0129
						c0.1053-0.1035,0.206-0.1949,0.3085-0.279c0.2329-0.1894,0.4573-0.327,0.6873-0.4222
						c0.3104-0.1293,0.7058-0.3381,0.8896-0.5164c0.0776-0.0785,0.17-0.1968,0.2568-0.3159
						c0.0998-0.133,0.2023-0.2707,0.2697-0.3169c0.0628-0.0434,0.1413-0.0591,0.2245-0.0785
						c0.0573-0.0129,0.1164-0.0268,0.1737-0.048c0.0564-0.0249,0.0887-0.073,0.0831-0.1219
						c-0.0028-0.0351-0.0268-0.0674-0.0591-0.0868c-0.0941-0.048-0.2402-0.0453-0.4323,0.0055
						c-0.1386,0.0379-0.2734,0.1081-0.3871,0.2088c-0.0674,0.0564-0.1266,0.121-0.1866,0.1838
						c-0.073,0.0785-0.1432,0.1533-0.2217,0.2134c-0.1515,0.1136-0.3187,0.2078-0.4951,0.2836
						c-0.073,0.0296-0.1515,0.0545-0.2263,0.0785c-0.0868,0.024-0.1737,0.0517-0.2596,0.0896
						c-0.4037,0.1783-0.763,0.4591-1.0632,0.7353l2.4904-2.726c0.0674-0.0757,0.049-0.1727-0.0083-0.2272
						c-0.0536-0.0536-0.1487-0.0757-0.2272-0.0046l-2.6253,2.3953c0.0028-0.0028,0.0055-0.0111,0.0055-0.0166
						c0.0591-0.1349,0.1164-0.2568,0.1811-0.3723c0.1404-0.2651,0.2948-0.4813,0.4703-0.6549
						c0.2383-0.2374,0.5218-0.5838,0.6253-0.8194c0.0453-0.0998,0.0804-0.2457,0.1155-0.3889
						c0.0434-0.1598,0.0841-0.3279,0.1303-0.3954c0.0435-0.0647,0.1082-0.1109,0.1783-0.1589
						c0.0462-0.0351,0.0951-0.0684,0.1376-0.1109c0.0462-0.0406,0.0601-0.1007,0.0333-0.146
						c-0.0166-0.0305-0.049-0.0517-0.0896-0.0545c-0.1025-0.0083-0.2383,0.049-0.3972,0.17
						c-0.1109,0.0868-0.2088,0.2032-0.2762,0.3381c-0.0406,0.0785-0.073,0.1626-0.1025,0.2439
						c-0.0351,0.0998-0.073,0.1949-0.1219,0.2808c-0.097,0.1626-0.2162,0.3141-0.3483,0.4489
						c-0.0573,0.0591-0.1192,0.1109-0.182,0.1626c-0.0702,0.0564-0.1404,0.1164-0.2023,0.1811
						c-0.3058,0.3187-0.5302,0.7168-0.703,1.0845l1.2572-3.4669c0.0351-0.097-0.0212-0.1783-0.0924-0.2078
						c-0.0729-0.0305-0.1672-0.0139-0.2134,0.0804l-1.5085,3.2212v-0.0194c0.0028-0.1487,0.0083-0.2836,0.0212-0.4138
						c0.0296-0.3002,0.0924-0.557,0.1867-0.7861c0.1274-0.3085,0.2595-0.739,0.265-0.9958
						c0.0028-0.1081-0.0185-0.2596-0.0433-0.4028c-0.0213-0.1644-0.0481-0.3353-0.0324-0.4166
						c0.0166-0.073,0.0591-0.1404,0.1053-0.2134c0.0296-0.0517,0.0628-0.0998,0.0868-0.1543
						c0.024-0.0563,0.0139-0.1164-0.0268-0.1487c-0.0277-0.0212-0.0683-0.0268-0.1035-0.0157
						c-0.0998,0.0323-0.2023,0.1349-0.3021,0.3104c-0.0711,0.1219-0.1136,0.2651-0.1275,0.4166
						c-0.0055,0.0896-0.0028,0.1783,0,0.2623c0.0028,0.1081,0.0083,0.2106-0.0055,0.3085
						c-0.0268,0.1894-0.0785,0.3732-0.1486,0.5487c-0.0296,0.0757-0.0703,0.1487-0.1082,0.2189
						c-0.0406,0.0785-0.0841,0.1598-0.1164,0.2457c-0.1598,0.4083-0.2134,0.86-0.2328,1.2656l-0.1672-3.6803
						c-0.0055-0.1025-0.0868-0.1561-0.1654-0.1561c-0.0406,0-0.0784,0.0129-0.1109,0.0406
						c-0.0296,0.024-0.0507,0.0647-0.0563,0.1155L24.6739,21.82c-0.0028-0.0055-0.0055-0.0139-0.0083-0.0194
						c-0.0536-0.1349-0.0998-0.2623-0.1376-0.3889c-0.0868-0.2891-0.1266-0.5487-0.1266-0.7981
						c0-0.3353-0.0434-0.7815-0.1386-1.0189c-0.0406-0.1035-0.1163-0.2328-0.1921-0.3603
						c-0.0859-0.1432-0.1755-0.2891-0.1884-0.3704c-0.0166-0.073-0.0028-0.1533,0.0129-0.2374
						c0.0083-0.0573,0.0194-0.1164,0.0194-0.1755c0.0028-0.0628-0.0305-0.1136-0.0785-0.1275c-0.0351-0.0083-0.073,0-0.1025,0.024
						c-0.0813,0.0674-0.1358,0.2032-0.1597,0.4028c-0.0195,0.1413-0.0056,0.2901,0.0433,0.436
						c0.024,0.0831,0.0619,0.1644,0.097,0.2429c0.0462,0.0979,0.0896,0.1894,0.1136,0.2864
						c0.0462,0.1848,0.0702,0.3732,0.073,0.5626c0,0.0813-0.0083,0.1654-0.0166,0.2439c-0.0074,0.0887-0.0157,0.1811-0.0129,0.2697
						c0.0111,0.4388,0.1293,0.8766,0.2679,1.2582l-1.5629-3.3348c-0.0435-0.0942-0.1414-0.1109-0.2116-0.0804
						c-0.073,0.0296-0.1266,0.1109-0.0915,0.2078l1.2084,3.3422c-0.0028-0.0028-0.0075-0.0083-0.013-0.0111
						c-0.1035-0.1053-0.1921-0.2078-0.279-0.3104c-0.1894-0.2328-0.3269-0.4573-0.4222-0.6873
						c-0.1293-0.3085-0.3372-0.7058-0.5164-0.8896c-0.0757-0.0785-0.1968-0.1672-0.3132-0.2568
						c-0.1358-0.097-0.2734-0.2032-0.3196-0.2707c-0.0425-0.0619-0.0591-0.1404-0.0785-0.2245
						c-0.0129-0.0563-0.0268-0.1164-0.048-0.17c-0.0222-0.0573-0.073-0.0924-0.1219-0.0868
						c-0.0351,0.0028-0.0674,0.0277-0.0841,0.0628c-0.048,0.0915-0.048,0.2374,0.0028,0.4323
						c0.0379,0.1349,0.1081,0.2707,0.2088,0.3843c0.0563,0.0674,0.121,0.1293,0.1838,0.1866
						c0.0813,0.073,0.1543,0.1432,0.2134,0.2217c0.1136,0.1533,0.2078,0.3187,0.2836,0.4942c0.0323,0.073,0.0545,0.1543,0.0785,0.23
						c0.0268,0.0841,0.0545,0.1727,0.0896,0.2568c0.1783,0.4,0.4591,0.7603,0.7325,1.0577l-2.7232-2.4821
						c-0.0757-0.0711-0.17-0.049-0.2272,0.0046c-0.0537,0.0545-0.0731,0.1515-0.0047,0.2272l2.3981,2.629
						c-0.0055-0.0028-0.0111-0.0055-0.0157-0.0083c-0.1386-0.0573-0.2596-0.1164-0.376-0.1783
						c-0.265-0.1441-0.4785-0.2975-0.6549-0.4739c-0.2374-0.2374-0.5838-0.5219-0.8194-0.6245
						c-0.0998-0.0434-0.2457-0.0813-0.3861-0.1164c-0.1626-0.0406-0.3298-0.0831-0.3981-0.1266
						c-0.0647-0.0434-0.1109-0.1081-0.1588-0.1792c-0.0324-0.048-0.0675-0.097-0.1082-0.1404
						c-0.0434-0.0434-0.1035-0.0564-0.146-0.0323c-0.0333,0.0166-0.0545,0.0517-0.0573,0.0896
						c-0.0083,0.1053,0.049,0.2374,0.17,0.3972c0.0868,0.1136,0.2061,0.2078,0.3381,0.279
						c0.0785,0.0379,0.1626,0.0702,0.2439,0.0998c0.0998,0.0379,0.1977,0.073,0.2808,0.1238
						c0.1626,0.0979,0.3169,0.2143,0.4518,0.3464c0.0572,0.0573,0.108,0.1219,0.1597,0.1838
						c0.0563,0.0674,0.1164,0.1386,0.1838,0.2032c0.3159,0.303,0.7141,0.5275,1.0817,0.7002l-3.4668-1.2572
						c-0.0971-0.0323-0.1784,0.0212-0.2079,0.0942c-0.0305,0.0702-0.0111,0.1681,0.0804,0.2115l3.2212,1.5085h-0.0166
						c-0.1486,0-0.2836-0.0083-0.4165-0.0212c-0.2994-0.0305-0.5571-0.0924-0.7834-0.1866
						c-0.3113-0.1275-0.739-0.2596-0.9986-0.2651c-0.1081,0-0.2568,0.0212-0.4028,0.0425c-0.1644,0.0249-0.3353,0.049-0.4166,0.0333
						c-0.073-0.0139-0.1404-0.0573-0.2134-0.1035c-0.048-0.0323-0.0998-0.0647-0.1543-0.0859
						c-0.0563-0.0249-0.1163-0.0139-0.1487,0.024c-0.0212,0.0296-0.0268,0.0674-0.0157,0.1025
						c0.0323,0.1007,0.1349,0.2032,0.3104,0.303c0.1219,0.073,0.2679,0.1164,0.4166,0.1275c0.0896,0.0083,0.1783,0.0028,0.2651,0
						c0.1081-0.0028,0.2078-0.0083,0.3058,0.0083c0.1894,0.0268,0.3732,0.0748,0.5487,0.1487
						c0.0757,0.0296,0.1487,0.0674,0.2189,0.1053c0.0785,0.0406,0.1598,0.0831,0.2466,0.1182
						c0.4083,0.157,0.8591,0.2143,1.2628,0.2328l-3.6775,0.1654c-0.1035,0.0083-0.157,0.0887-0.157,0.1672
						c0,0.0757,0.0536,0.157,0.157,0.1654l3.5528,0.1598c-0.0055,0.0018-0.0139,0.0046-0.0166,0.0074
						c-0.1376,0.0545-0.2651,0.1007-0.3917,0.1386C21.1239,25.5566,20.8643,25.6,20.6149,25.6
						c-0.3353,0-0.7815,0.0434-1.0189,0.1349c-0.1025,0.0406-0.2328,0.1192-0.3575,0.1921
						c-0.1432,0.0868-0.2919,0.1764-0.3732,0.1921c-0.073,0.0139-0.1533,0-0.2374-0.0139
						c-0.0573-0.0102-0.1163-0.0212-0.1755-0.0212c-0.06,0-0.1136,0.0323-0.1275,0.0813c-0.0083,0.0323,0,0.0702,0.0268,0.0998
						c0.0656,0.0813,0.2005,0.1358,0.4009,0.1626c0.0379,0.0055,0.0776,0.0083,0.1182,0.0083c0.1053,0,0.2115-0.0194,0.3168-0.0517
						c0.0841-0.0268,0.1645-0.0647,0.243-0.0998c0.0979-0.0462,0.1894-0.0868,0.2873-0.1109c0.1838-0.049,0.3733-0.073,0.5616-0.073
						c0.0813,0,0.1654,0.0046,0.2439,0.0129c0.0887,0.0083,0.1811,0.0194,0.2707,0.0166c0.4406-0.0111,0.8785-0.133,1.26-0.2707
						l-3.3375,1.563c-0.0941,0.0462-0.1109,0.1404-0.0804,0.2134c0.024,0.0573,0.0786,0.1035,0.1487,0.1035
						c0.0185,0,0.0407-0.0028,0.0592-0.0111l3.3421-1.212c-0.0028,0.0055-0.0083,0.0111-0.0111,0.0139
						c-0.1053,0.1025-0.2051,0.1949-0.3076,0.279c-0.2356,0.1884-0.46,0.327-0.6873,0.424
						c-0.3104,0.1275-0.7058,0.3381-0.8924,0.5164c-0.0785,0.0757-0.1672,0.1977-0.2568,0.3141
						c-0.0969,0.1321-0.2005,0.2725-0.2679,0.3159c-0.0647,0.0434-0.1431,0.0628-0.2272,0.0813
						c-0.0564,0.0111-0.1127,0.024-0.17,0.0462c-0.0563,0.024-0.0915,0.073-0.0868,0.1219
						c0.0055,0.0379,0.0277,0.0674,0.0628,0.0859c0.0453,0.0222,0.1026,0.0351,0.17,0.0351c0.0757,0,0.1626-0.0129,0.2623-0.0406
						c0.1376-0.0379,0.2707-0.1081,0.3871-0.2051c0.0647-0.0591,0.1266-0.1247,0.1838-0.1866
						c0.0757-0.0785,0.1433-0.1543,0.2245-0.2134c0.1515-0.1136,0.316-0.2088,0.4915-0.2817
						c0.0729-0.0323,0.1542-0.0564,0.2299-0.0813c0.0841-0.024,0.1737-0.0508,0.2568-0.0887c0.4028-0.1783,0.763-0.46,1.0605-0.7325
						l-2.4849,2.7223c-0.0684,0.0757-0.049,0.1737,0.0047,0.2272c0.0304,0.0296,0.0739,0.0517,0.1191,0.0517
						c0.0351,0,0.0757-0.0139,0.1081-0.0462l2.629-2.3953c-0.0028,0.0046-0.0055,0.0102-0.0083,0.0157
						c-0.0573,0.1349-0.1164,0.2568-0.1782,0.376c-0.1433,0.2651-0.2975,0.4785-0.474,0.6513
						c-0.2346,0.2383-0.5219,0.5847-0.6245,0.8194c-0.0434,0.1007-0.0813,0.2466-0.1164,0.3898
						c-0.0406,0.1626-0.0831,0.3298-0.1266,0.3972c-0.0434,0.0628-0.1081,0.1081-0.1783,0.157
						c-0.049,0.0351-0.0979,0.0702-0.1413,0.1109c-0.0425,0.0434-0.0563,0.0998-0.0323,0.146
						c0.0194,0.0296,0.0517,0.0517,0.0896,0.0545h0.0212c0.1025,0,0.23-0.0573,0.376-0.1709
						c0.1136-0.0859,0.2088-0.2023,0.279-0.3381c0.0379-0.0785,0.0702-0.1617,0.0998-0.2429
						c0.0379-0.0998,0.073-0.1949,0.1247-0.2817c0.097-0.1617,0.2135-0.3132,0.3455-0.448c0.0573-0.06,0.1219-0.1118,0.1838-0.1626
						c0.0674-0.0573,0.1386-0.1136,0.2032-0.1811c0.3031-0.3196,0.5275-0.7141,0.6974-1.0817l-1.2545,3.4669
						c-0.0323,0.097,0.0212,0.1755,0.0942,0.2051c0.0194,0.0111,0.0434,0.0139,0.0656,0.0139c0.0563,0,0.1155-0.0277,0.146-0.0951
						l1.5084-3.2202v0.0185c0,0.146-0.0083,0.2845-0.0212,0.4138c-0.0306,0.3002-0.0897,0.557-0.1839,0.787
						c-0.1302,0.3113-0.2623,0.7381-0.2651,0.9949c-0.0028,0.1081,0.0185,0.2596,0.0406,0.4028
						c0.024,0.1654,0.0481,0.3353,0.0323,0.4166c-0.0139,0.073-0.0573,0.1432-0.1035,0.2134
						c-0.0296,0.0517-0.0619,0.1035-0.0859,0.157c-0.024,0.0545-0.0139,0.1136,0.0268,0.146
						c0.0166,0.0166,0.0406,0.0222,0.0647,0.0222c0.0111,0,0.0249,0,0.0379-0.0055c0.1007-0.0296,0.2005-0.1349,0.303-0.3085
						c0.0702-0.1238,0.1136-0.2679,0.1247-0.4194c0.0084-0.0887,0.0055-0.1755,0.0028-0.2614
						c-0.0055-0.109-0.0083-0.2115,0.0056-0.3085c0.0267-0.1894,0.0784-0.3732,0.1487-0.5487
						c0.0296-0.0757,0.0674-0.1487,0.1053-0.2199c0.0434-0.0776,0.0859-0.1589,0.1192-0.2457
						c0.1561-0.4083,0.2134-0.8573,0.2319-1.26l0.1654,3.6747c0.0083,0.1053,0.0888,0.157,0.1672,0.157
						c0.0379,0,0.0786-0.0139,0.1109-0.0379c0.0305-0.0268,0.0517-0.0674,0.0545-0.1192l0.1627-3.5528
						c0,0.0083,0.0018,0.0129,0.0045,0.0185c0.0573,0.1358,0.1035,0.2651,0.1386,0.3926c0.0887,0.2864,0.1293,0.5459,0.1293,0.7944
						c0,0.3353,0.0434,0.7815,0.1358,1.0226c0.0406,0.0998,0.1183,0.23,0.194,0.3566c0.0841,0.1432,0.1737,0.2919,0.1894,0.3704
						c0.0139,0.073,0,0.1543-0.0129,0.2383c-0.0083,0.0564-0.0194,0.1164-0.0222,0.1755c0,0.0619,0.0323,0.1136,0.0813,0.1275
						c0.0083,0.0028,0.0185,0.0028,0.0268,0.0028c0.0249,0,0.0517-0.0083,0.073-0.0277c0.0813-0.0674,0.1358-0.2023,0.1626-0.4
						c0.0185-0.1432,0.0028-0.2919-0.0434-0.4351c-0.0268-0.0841-0.0647-0.1681-0.0998-0.2466
						c-0.0462-0.0942-0.0868-0.1884-0.1109-0.2836c-0.0462-0.1866-0.0701-0.376-0.073-0.5653
						c-0.0028-0.0813,0.0083-0.1617,0.0129-0.2429c0.0084-0.0868,0.0194-0.1783,0.0166-0.2707
						c-0.0111-0.4406-0.133-0.8785-0.2707-1.2572l1.563,3.3339c0.0323,0.0674,0.0896,0.0951,0.146,0.0951
						c0.0249,0,0.0462-0.0028,0.0674-0.0139c0.0711-0.0296,0.1275-0.1081,0.0924-0.2078l-1.2111-3.3422
						c0.0046,0.0046,0.0102,0.0074,0.0129,0.0129c0.1025,0.1025,0.1949,0.206,0.279,0.3085
						c0.1894,0.2328,0.3298,0.4573,0.424,0.6864c0.1275,0.3085,0.3381,0.7058,0.5164,0.8896
						c0.0757,0.0785,0.1977,0.1709,0.3141,0.2577c0.1321,0.0998,0.2734,0.2023,0.3187,0.2697
						c0.0406,0.0628,0.06,0.1413,0.0785,0.2245c0.0139,0.0573,0.0249,0.1164,0.049,0.1709
						c0.0185,0.0536,0.0619,0.0859,0.1081,0.0859h0.0139c0.0351-0.0028,0.0647-0.0268,0.0831-0.0591
						c0.049-0.0951,0.0462-0.2411-0.0046-0.4351c-0.0379-0.1358-0.109-0.2707-0.206-0.3843
						c-0.0563-0.0674-0.1247-0.1275-0.1866-0.1866c-0.0785-0.073-0.1515-0.1432-0.2106-0.2217
						c-0.1136-0.1515-0.2115-0.3187-0.2845-0.4951c-0.0323-0.073-0.0563-0.1515-0.0804-0.23
						c-0.0249-0.0831-0.0517-0.1727-0.0896-0.2568c-0.1783-0.4-0.4545-0.7566-0.7269-1.054l2.7167,2.4794
						c0.0351,0.0323,0.0731,0.0462,0.1109,0.0462c0.0434,0,0.0868-0.0222,0.1164-0.0517c0.0573-0.0536,0.0757-0.1515,0.0083-0.2272
						l-2.398-2.6253c0.0045,0.0028,0.0101,0.0055,0.0156,0.0055c0.1358,0.0591,0.2596,0.1164,0.376,0.1783
						c0.2651,0.1432,0.4785,0.2975,0.654,0.473c0.2384,0.2383,0.582,0.5219,0.8175,0.6245
						c0.0998,0.0434,0.2485,0.0813,0.3889,0.1164c0.1626,0.0406,0.3298,0.0841,0.3972,0.1303
						c0.0628,0.0406,0.1081,0.1081,0.157,0.1755c0.0351,0.049,0.0702,0.097,0.1109,0.1404
						c0.0268,0.0305,0.0619,0.0462,0.0979,0.0462c0.0157,0,0.0323-0.0055,0.048-0.0139c0.0323-0.0157,0.0517-0.0508,0.0545-0.0887
						c0.0102-0.1025-0.0462-0.2383-0.1708-0.3972c-0.086-0.1136-0.2024-0.2088-0.3382-0.2762
						c-0.0775-0.0406-0.1617-0.073-0.243-0.1025c-0.0998-0.0379-0.1948-0.073-0.2808-0.1247
						c-0.1626-0.097-0.3141-0.2134-0.4489-0.3464c-0.0573-0.0564-0.1109-0.1182-0.1626-0.1811
						c-0.0563-0.0702-0.1136-0.1404-0.1811-0.2023c-0.3196-0.3058-0.7141-0.5302-1.0817-0.7002l3.4669,1.2545
						c0.0185,0.0083,0.0379,0.0111,0.0563,0.0111c0.0702,0,0.1276-0.0462,0.1487-0.1035c0.0296-0.073,0.0139-0.1672-0.0813-0.2134
						l-3.2175-1.5085h0.0157c0.1488,0,0.2845,0.0074,0.4167,0.0212c0.2974,0.0296,0.5543,0.0924,0.7842,0.1866
						c0.3113,0.1275,0.7381,0.2596,0.9949,0.2651c0.1081,0,0.2596-0.0212,0.4037-0.0434c0.1644-0.024,0.3353-0.049,0.4157-0.0323
						c0.0757,0.0139,0.1432,0.0563,0.2171,0.1025c0.0481,0.0323,0.0998,0.0647,0.1533,0.0868
						c0.0194,0.0111,0.0406,0.0139,0.06,0.0139c0.0351,0,0.0674-0.0139,0.0859-0.0379c0.0222-0.0277,0.0305-0.0684,0.0167-0.1035
						c-0.0296-0.0998-0.1349-0.2023-0.3086-0.303c-0.1238-0.0702-0.267-0.1127-0.4185-0.1266c-0.0868-0.0055-0.1764-0.0028-0.2623,0
						c-0.1081,0.0028-0.2088,0.0083-0.3085-0.0083c-0.1893-0.0268-0.3732-0.0757-0.5487-0.146
						c-0.073-0.0296-0.1486-0.0702-0.2189-0.1081c-0.0785-0.0406-0.1598-0.0841-0.2438-0.1164
						c-0.4111-0.1598-0.8601-0.2162-1.2656-0.2356l3.6802-0.1644c0.1025-0.0083,0.1543-0.0896,0.1543-0.1654
						C31.8885,24.921,31.8368,24.8407,31.7342,24.8323z M29.2087,23.9862c0.0868-0.0028,0.1708,0.0046,0.2567,0.0157
						c0.0841,0.0055,0.1709,0.0139,0.2568,0.0139c0.1978-0.0028,0.3981-0.0277,0.5894-0.0757
						c0.109-0.0268,0.2115-0.073,0.3085-0.1192c0.0758-0.0351,0.1543-0.0702,0.23-0.0942c0.1275-0.0434,0.2596-0.0573,0.3843-0.0379
						c0.1543,0.0185,0.2697,0.0591,0.3215,0.1081c0,0-0.0028,0-0.0055,0c-0.049-0.0028-0.1025-0.0111-0.157-0.0222
						c-0.0915-0.0157-0.1866-0.0296-0.2808-0.0102c-0.0998,0.0185-0.2513,0.1081-0.4083,0.2023
						c-0.1219,0.073-0.2484,0.1487-0.3408,0.1838c-0.1922,0.0757-0.595,0.1303-0.9792,0.1303c-0.2597,0-0.5294,0.0425-0.8296,0.1321
						c-0.1303,0.0406-0.2596,0.0868-0.4,0.1432c-0.133,0.0545-0.2707,0.0896-0.3843,0.0979
						c-0.0055-0.0333-0.0083-0.0656-0.0139-0.0979c0.0517-0.0129,0.1136-0.0296,0.1894-0.0536
						c0.0897-0.0277,0.1921-0.0628,0.3002-0.1062c0.1081-0.0397,0.2162-0.0915,0.3326-0.1293
						c0.1136-0.0379,0.23-0.0674,0.3437-0.0868c0.1109-0.0212,0.2161-0.0323,0.3085-0.0379
						c0.0915-0.0055,0.1672-0.0074,0.2217-0.0074c0.0536-0.0028,0.0831-0.0028,0.0831-0.0028s-0.0296-0.0028-0.0831-0.0028
						c-0.0545-0.0028-0.1303-0.0055-0.2217-0.0055c-0.0924,0.0028-0.2005,0.0055-0.3141,0.0185
						c-0.1164,0.0139-0.2356,0.0351-0.3566,0.0684c-0.1192,0.0323-0.2356,0.0776-0.3409,0.1127
						c-0.1081,0.0333-0.2115,0.0628-0.2975,0.0841c-0.073,0.0166-0.1357,0.0296-0.1838,0.0379
						c-0.0083-0.0296-0.0139-0.0619-0.0222-0.0915C28.1408,24.1802,28.6784,23.9991,29.2087,23.9862z M31.1966,22.3798
						c0.0406-0.0139,0.0563,0.0185,0.0591,0.0268c0.0055,0.0111,0.0166,0.0434-0.0212,0.0619l-3.5777,1.6766
						c-0.0139-0.048-0.0296-0.0942-0.049-0.1376l1.9039-0.8757l-1.9657,0.7242c-0.0195-0.0434-0.0407-0.0896-0.062-0.1321
						L31.1966,22.3798z M28.5001,22.4527c0.0785-0.0351,0.1598-0.06,0.2439-0.0841c0.0804-0.024,0.1617-0.0517,0.243-0.0841
						c0.1838-0.0785,0.3574-0.1783,0.5163-0.2975c0.0896-0.0674,0.1654-0.1487,0.2383-0.2272
						c0.0564-0.0619,0.1137-0.1238,0.1755-0.1755c0.1025-0.0887,0.2189-0.1515,0.3409-0.1838
						c0.1487-0.0406,0.2707-0.0462,0.3353-0.0212c-0.049,0.0185-0.0998,0.0323-0.1543,0.0434
						c-0.0924,0.0212-0.1838,0.0425-0.2651,0.097c-0.0868,0.0536-0.1893,0.1949-0.3001,0.3436
						c-0.0841,0.1136-0.17,0.2319-0.243,0.3002c-0.1487,0.1432-0.4979,0.3455-0.8545,0.4942
						c-0.2411,0.0979-0.4739,0.2411-0.7168,0.4406c-0.1053,0.0841-0.2078,0.1792-0.3159,0.2845
						c-0.1007,0.0998-0.2171,0.1866-0.3169,0.2374c-0.0157-0.0296-0.0323-0.0564-0.0517-0.0831
						c0.0434-0.0323,0.0951-0.073,0.157-0.1247c0.0702-0.0591,0.1543-0.1303,0.2383-0.2106
						c0.0813-0.0813,0.1644-0.1681,0.254-0.2494c0.0924-0.0785,0.1894-0.1515,0.2836-0.2106
						c0.0979-0.0619,0.1921-0.1136,0.2734-0.1515c0.0813-0.0406,0.1515-0.073,0.2005-0.0942
						c0.0268-0.0111,0.0453-0.0194,0.0591-0.0277c-0.011,0.0055-0.0323,0.0111-0.0619,0.0222
						c-0.049,0.0185-0.1219,0.0462-0.206,0.0841c-0.0841,0.0351-0.1811,0.0776-0.2836,0.1349
						c-0.0998,0.0563-0.2032,0.1247-0.3001,0.2005c-0.0971,0.0748-0.1894,0.1589-0.2735,0.2319
						c-0.0859,0.0757-0.1699,0.1386-0.2429,0.1921c-0.0619,0.0462-0.1136,0.0813-0.157,0.1081
						c-0.0166-0.0268-0.0351-0.0508-0.0536-0.0785C27.5893,23.0421,28.0133,22.6689,28.5001,22.4527z M29.7223,20.208
						c0.0323-0.0268,0.06-0.0055,0.0656,0.0028c0.0074,0.0083,0.0323,0.0323,0.0046,0.0647l-2.666,2.9182
						c-0.0323-0.0379-0.0647-0.073-0.097-0.1081l1.4226-1.539l-1.5362,1.4226c-0.035-0.0323-0.073-0.0647-0.1109-0.097
						L29.7223,20.208z M27.2596,21.3063c0.059-0.0628,0.1237-0.1136,0.1911-0.1709c0.0656-0.0536,0.133-0.1081,0.1921-0.17
						c0.1404-0.1432,0.2623-0.3002,0.365-0.473c0.0572-0.0951,0.0951-0.2005,0.1329-0.3002c0.0296-0.0785,0.0591-0.157,0.0942-0.23
						c0.0628-0.1192,0.146-0.2217,0.2466-0.2975c0.1238-0.0979,0.2346-0.1487,0.303-0.1543c0,0.0028-0.0028,0.0055-0.0028,0.0055
						c-0.035,0.0351-0.0785,0.0647-0.1247,0.097c-0.0757,0.0545-0.1543,0.1081-0.2078,0.1921
						c-0.0573,0.0841-0.1007,0.2513-0.1469,0.4323c-0.0323,0.1386-0.0702,0.279-0.1081,0.3704
						c-0.0831,0.1894-0.3298,0.509-0.6022,0.7815c-0.1811,0.1838-0.3437,0.4055-0.4924,0.6817
						c-0.0618,0.1192-0.1247,0.2457-0.1838,0.3871c-0.0545,0.1293-0.1274,0.2513-0.2005,0.3381h-0.0028
						c-0.024-0.0194-0.0508-0.0379-0.0785-0.0573c0.0277-0.0462,0.0628-0.1053,0.1007-0.1755
						c0.0434-0.0813,0.0887-0.1783,0.1349-0.2845c0.0462-0.1053,0.0896-0.2189,0.1432-0.327
						c0.0545-0.1081,0.1164-0.2134,0.1811-0.3048c0.0657-0.0924,0.133-0.1764,0.1921-0.2439
						c0.06-0.0702,0.1137-0.1247,0.1515-0.1654c0.0269-0.0268,0.0462-0.048,0.0546-0.0563
						c-0.0112,0.0083-0.0306,0.0268-0.0601,0.0545c-0.0379,0.0379-0.0942,0.0887-0.1589,0.1533
						c-0.0656,0.0656-0.1386,0.1441-0.2088,0.2356c-0.073,0.0896-0.1432,0.1921-0.2023,0.3002
						c-0.0627,0.1081-0.1136,0.2189-0.1654,0.3187c-0.0517,0.1035-0.1025,0.1949-0.1515,0.2707
						c-0.0379,0.0647-0.073,0.1192-0.0998,0.1598c-0.0268-0.0166-0.0545-0.0351-0.0813-0.0517
						C26.6424,22.2015,26.8909,21.6925,27.2596,21.3063z M27.5293,18.7641c0.0194-0.0379,0.0517-0.0268,0.0629-0.0212
						c0.0101,0.0028,0.0406,0.0185,0.0267,0.0591l-1.3441,3.7126c-0.0434-0.0212-0.0868-0.0434-0.1321-0.0619l0.727-1.9658
						l-0.8757,1.9029c-0.0462-0.0157-0.0924-0.0323-0.1386-0.048L27.5293,18.7641z M25.6743,20.7216
						c0.0323-0.0785,0.0703-0.1515,0.1136-0.2291c0.0379-0.0757,0.0785-0.1515,0.1109-0.23
						c0.0757-0.1866,0.1275-0.3787,0.157-0.5792c0.0139-0.1081,0.0111-0.2189,0.0055-0.327
						c-0.0027-0.0841-0.0055-0.1672,0.0028-0.2485c0.0102-0.1358,0.048-0.2623,0.1109-0.3704
						c0.0785-0.1358,0.1589-0.2272,0.2217-0.2568c0,0.0028,0,0.0055,0,0.0055c-0.0222,0.0453-0.049,0.0915-0.0785,0.1404
						c-0.0517,0.0785-0.0998,0.157-0.1192,0.254c-0.0212,0.0998,0.0055,0.2734,0.0323,0.4545
						c0.0194,0.1404,0.0406,0.2864,0.0379,0.3861c-0.0028,0.2032-0.1081,0.5949-0.254,0.9524
						c-0.0998,0.2402-0.1644,0.5053-0.1949,0.8166c-0.0129,0.1349-0.0212,0.2753-0.0212,0.4268
						c-0.0028,0.1404-0.0212,0.2845-0.0573,0.3926c-0.0323-0.0111-0.0647-0.0194-0.0942-0.0249
						c0.0055-0.0536,0.0166-0.1182,0.0212-0.1968c0.0083-0.0924,0.0166-0.2005,0.0194-0.3169s-0.0028-0.2374,0.0055-0.3566
						c0.0083-0.1219,0.024-0.2411,0.0509-0.352c0.0249-0.1109,0.0544-0.2134,0.084-0.3002
						c0.0296-0.0859,0.0573-0.1561,0.0757-0.2078c0.0055-0.0194,0.0139-0.0323,0.0166-0.0462
						c-0.0055,0.0111-0.0111,0.0268-0.0222,0.0462c-0.0212,0.049-0.0536,0.1164-0.0859,0.2023
						c-0.0351,0.0841-0.0739,0.1866-0.1062,0.2975c-0.0296,0.1109-0.0564,0.2328-0.0729,0.3547
						c-0.013,0.1219-0.0185,0.2457-0.0269,0.3593c-0.0083,0.1109-0.0212,0.2162-0.0351,0.3058
						c-0.0111,0.0757-0.024,0.1376-0.0323,0.1866c-0.0323-0.0055-0.0647-0.0139-0.0979-0.0194
						C25.4471,21.7848,25.4822,21.2195,25.6743,20.7216z M24.9529,18.2718c0.0028-0.0434,0.0379-0.0453,0.048-0.0453
						c0.0111,0,0.0434,0.0018,0.0462,0.0453l0.1811,3.9454c-0.048-0.0055-0.097-0.0055-0.146-0.0083l-0.0813-2.0923l-0.0804,2.0923
						c-0.0517,0.0028-0.0979,0.0028-0.1469,0.0083L24.9529,18.2718z M23.9876,20.79c-0.0028-0.0841,0.0055-0.1681,0.0157-0.2577
						c0.0055-0.0831,0.0166-0.1672,0.0139-0.254c-0.0028-0.1995-0.0269-0.4-0.0758-0.5921
						c-0.0268-0.1081-0.073-0.2078-0.1192-0.3076c-0.0351-0.073-0.0702-0.1515-0.0942-0.23
						c-0.0406-0.1275-0.0545-0.2596-0.0379-0.3843c0.0185-0.1543,0.0592-0.2707,0.1081-0.3215c0,0.0028,0,0.0028,0,0.0055
						c-0.0027,0.0508-0.0111,0.1025-0.0194,0.1589c-0.0157,0.0896-0.0323,0.1838-0.0129,0.2817
						c0.0185,0.097,0.1081,0.2485,0.2023,0.4083c0.073,0.121,0.1487,0.2457,0.1866,0.3409c0.073,0.1884,0.1275,0.5921,0.1275,0.9755
						c0,0.2596,0.0434,0.5302,0.1322,0.8305c0.0406,0.1293,0.0868,0.2623,0.1431,0.4028c0.0545,0.1303,0.0896,0.2679,0.0979,0.3787
						v0.0055c-0.0323,0.0028-0.0655,0.0055-0.0979,0.0102c-0.0129-0.048-0.0296-0.1127-0.0536-0.1884
						c-0.0277-0.0896-0.0628-0.1921-0.1025-0.2975c-0.0434-0.1081-0.0924-0.2199-0.133-0.3326
						c-0.0379-0.1164-0.0674-0.2328-0.0868-0.3436c-0.0212-0.1136-0.0296-0.2189-0.0379-0.3113
						c-0.0046-0.0887-0.0074-0.1672-0.0074-0.2217c-0.0028-0.0517-0.0028-0.0841-0.0028-0.0841s0,0.0323-0.0028,0.0841
						c0,0.0545-0.0055,0.133-0.0027,0.2217c0,0.0924,0.0027,0.2005,0.0156,0.3141c0.0139,0.1164,0.0351,0.2374,0.0711,0.3566
						c0.0296,0.1192,0.0757,0.2356,0.1109,0.3436c0.0351,0.1053,0.0619,0.2078,0.0831,0.2975
						c0.0166,0.073,0.0305,0.1321,0.0406,0.1838c-0.0323,0.0055-0.0647,0.0139-0.0942,0.0212
						C24.1815,21.8578,24.0005,21.322,23.9876,20.79z M22.3839,18.802c-0.0166-0.0406,0.0157-0.0563,0.024-0.0591
						c0.0112-0.0055,0.0434-0.0166,0.0619,0.0212l1.6767,3.5777c-0.0453,0.0157-0.0943,0.0323-0.1377,0.048l-0.8757-1.9029
						l0.7242,1.9658c-0.0433,0.0185-0.0868,0.0406-0.1293,0.0647L22.3839,18.802z M22.4541,21.4985
						c-0.035-0.0785-0.0591-0.157-0.0841-0.2439c-0.024-0.0785-0.0508-0.1626-0.0841-0.2402
						c-0.0776-0.1848-0.1783-0.3603-0.2975-0.5173c-0.0647-0.0887-0.1487-0.1644-0.2263-0.2402
						c-0.06-0.0545-0.1247-0.1136-0.1764-0.1755c-0.0859-0.1007-0.1515-0.2189-0.1838-0.3381
						c-0.0379-0.146-0.0462-0.2651-0.0185-0.3353c0.0185,0.048,0.0296,0.0998,0.0406,0.1543
						c0.0212,0.0887,0.0425,0.1838,0.097,0.2623c0.0574,0.0859,0.1977,0.1884,0.3464,0.2993
						c0.1136,0.0841,0.23,0.1737,0.3002,0.2439c0.1405,0.1487,0.3427,0.4998,0.4915,0.8545
						c0.0978,0.2402,0.2438,0.473,0.4415,0.7168c0.0859,0.1053,0.1783,0.2078,0.2864,0.3159
						c0.097,0.1025,0.1838,0.2162,0.2346,0.3169v0.0028c-0.0268,0.0157-0.0563,0.0296-0.0831,0.048
						c-0.0323-0.0434-0.073-0.0942-0.1247-0.157c-0.0591-0.0702-0.1293-0.1506-0.2106-0.2346
						c-0.0785-0.0841-0.1681-0.1681-0.2466-0.2568c-0.0804-0.0924-0.1515-0.1894-0.2134-0.2845
						c-0.0619-0.097-0.1109-0.1894-0.1515-0.2697c-0.0406-0.0841-0.0702-0.1543-0.0942-0.2032
						c-0.0111-0.0296-0.0222-0.0517-0.0296-0.0647c0.0046,0.0111,0.0129,0.0351,0.0268,0.0674
						c0.0185,0.049,0.0462,0.1219,0.0814,0.2051c0.035,0.0841,0.0784,0.1848,0.1348,0.2845
						c0.0564,0.0998,0.1247,0.2051,0.2005,0.303c0.0757,0.097,0.1589,0.1866,0.2319,0.2725
						c0.0757,0.0868,0.1413,0.1709,0.1921,0.2439c0.0462,0.0591,0.0814,0.1136,0.1081,0.1543
						c-0.0267,0.0185-0.0508,0.0379-0.0785,0.0563C23.0435,22.4093,22.6703,21.9844,22.4541,21.4985z M20.2094,20.2754
						c-0.0268-0.0323-0.0055-0.0591,0.0028-0.0647c0.0084-0.0083,0.0351-0.0296,0.0647-0.0028l2.9182,2.6641
						c-0.0379,0.0323-0.0731,0.0647-0.1082,0.097l-1.539-1.4226l1.4226,1.539c-0.0323,0.0351-0.0647,0.0702-0.0942,0.1081
						L20.2094,20.2754z M21.3077,22.7391c-0.06-0.0591-0.1136-0.1247-0.1709-0.1921c-0.0536-0.0647-0.1081-0.1293-0.17-0.1921
						c-0.1404-0.1404-0.3002-0.2623-0.473-0.3649c-0.0951-0.0536-0.1977-0.0942-0.3002-0.1321
						c-0.0757-0.0296-0.157-0.06-0.23-0.0951c-0.1192-0.0619-0.2217-0.146-0.2974-0.2429c-0.0924-0.1192-0.146-0.2272-0.146-0.3002
						c0.0352,0.0351,0.0647,0.0785,0.0942,0.1247c0.0545,0.0757,0.1109,0.1515,0.1921,0.2078
						c0.0841,0.0545,0.254,0.097,0.4332,0.1432c0.1377,0.0351,0.2781,0.0702,0.3704,0.1109
						c0.1884,0.0813,0.5108,0.327,0.7815,0.6004c0.1838,0.1838,0.4084,0.3436,0.6808,0.4924
						c0.1219,0.0647,0.2466,0.1238,0.3871,0.1838c0.1293,0.0536,0.254,0.1293,0.3382,0.2023h0.0027
						c-0.0222,0.0277-0.0406,0.0517-0.06,0.0785c-0.0462-0.0268-0.1025-0.0591-0.1727-0.097
						c-0.084-0.0434-0.1783-0.0924-0.2864-0.1376c-0.1062-0.0462-0.2199-0.0896-0.3279-0.1441
						c-0.1081-0.0508-0.2106-0.1127-0.3048-0.1783c-0.0924-0.0674-0.1764-0.1349-0.2439-0.194
						c-0.0674-0.06-0.1247-0.1136-0.1617-0.1487c-0.0111-0.0139-0.0222-0.0222-0.0333-0.0305
						c0.0055,0.0111,0.0166,0.0222,0.0277,0.0323c0.0379,0.0406,0.0887,0.0951,0.1543,0.1598
						c0.0647,0.0647,0.1432,0.1376,0.2346,0.2106c0.0896,0.0711,0.1922,0.1413,0.3002,0.2005
						c0.1081,0.0619,0.2189,0.1136,0.3215,0.1654c0.1007,0.0508,0.1921,0.1025,0.2679,0.1515
						c0.0656,0.0379,0.1192,0.073,0.1598,0.1025c-0.0166,0.0268-0.035,0.0508-0.0517,0.0813
						C22.2029,23.3562,21.6939,23.1068,21.3077,22.7391z M18.7683,22.4684c-0.0379-0.0185-0.0268-0.0508-0.024-0.0619
						c0.0055-0.0083,0.0212-0.0406,0.0591-0.0268l3.7154,1.3441c-0.0212,0.0425-0.0434,0.0887-0.0647,0.1321l-1.963-0.7242
						l1.9011,0.8757c-0.0166,0.0434-0.0333,0.0896-0.049,0.1376L18.7683,22.4684z M20.7258,24.3233
						c-0.0803-0.0296-0.1533-0.0702-0.2319-0.1109c-0.073-0.0397-0.1515-0.0804-0.23-0.1136
						c-0.1838-0.073-0.3787-0.1266-0.5764-0.1533c-0.1081-0.0166-0.2217-0.0139-0.3298-0.0083
						c-0.0813,0.0028-0.1672,0.0055-0.2485,0c-0.133-0.0111-0.2623-0.049-0.3704-0.1109c-0.133-0.0785-0.2245-0.1598-0.2513-0.2217
						c0.048,0.0185,0.0915,0.0462,0.1404,0.0785c0.0785,0.048,0.1598,0.0998,0.254,0.1182
						c0.0998,0.0194,0.2734-0.0046,0.4573-0.0323c0.1376-0.0212,0.2836-0.0425,0.3834-0.0406
						c0.206,0.0028,0.5977,0.109,0.9524,0.2577c0.2402,0.097,0.5053,0.1617,0.8194,0.194c0.1349,0.0139,0.2725,0.0194,0.424,0.0194
						c0.1413,0.0028,0.2817,0.024,0.3899,0.0564l0.0027,0.0028c-0.0111,0.0296-0.0166,0.0628-0.0249,0.0951
						c-0.0536-0.0083-0.1182-0.0166-0.1968-0.0249c-0.0924-0.0074-0.2005-0.0157-0.3168-0.0185
						c-0.1165,0-0.2375,0.0028-0.3566-0.0055c-0.1219-0.0083-0.2411-0.024-0.352-0.049c-0.1109-0.0268-0.2134-0.0564-0.3002-0.0859
						c-0.0859-0.0305-0.1561-0.0573-0.2051-0.0757c-0.0351-0.0139-0.0573-0.0222-0.0701-0.0249
						c0.011,0.0055,0.035,0.0166,0.0674,0.0296c0.049,0.0222,0.1192,0.0545,0.2032,0.0896
						c0.0831,0.0351,0.1866,0.0702,0.2975,0.1025s0.2319,0.0573,0.3538,0.073c0.122,0.0166,0.2457,0.0194,0.3593,0.0277
						c0.1137,0.0074,0.2171,0.0212,0.3085,0.0379c0.0731,0.0102,0.1349,0.0212,0.1839,0.0323
						c-0.0056,0.0323-0.0112,0.0619-0.0158,0.0942C21.7862,24.5506,21.2209,24.5155,20.7258,24.3233z M18.2732,25.0457
						c-0.0406-0.0028-0.0425-0.0351-0.0425-0.0462c0-0.0102,0.0018-0.0462,0.0425-0.048l3.9454-0.182
						c-0.0027,0.049-0.0055,0.0979-0.0083,0.1487l-2.0923,0.0813l2.0923,0.0813c0.0028,0.049,0.0056,0.097,0.0083,0.146
						L18.2732,25.0457z M20.7941,26.0111c-0.0868,0.0028-0.1709-0.0055-0.2595-0.0139c-0.0814-0.0074-0.1682-0.0157-0.255-0.0157
						c-0.1995,0.0028-0.4,0.0268-0.5921,0.0785c-0.1053,0.024-0.2078,0.073-0.3048,0.1164c-0.0757,0.0351-0.1543,0.0702-0.23,0.0942
						c-0.1302,0.0434-0.2623,0.0573-0.3843,0.0406c-0.1543-0.0212-0.2707-0.0619-0.3187-0.1081
						c0.0508,0,0.1025,0.0083,0.1589,0.0185c0.0924,0.0166,0.1838,0.0305,0.2818,0.0111c0.0997-0.0185,0.2484-0.1081,0.4082-0.2023
						c0.1219-0.073,0.2457-0.1487,0.3409-0.1848c0.1894-0.0748,0.5921-0.1293,0.9755-0.1293c0.2596,0,0.533-0.0434,0.8305-0.1321
						c0.1331-0.0379,0.2624-0.0868,0.4028-0.1441c0.133-0.0536,0.2707-0.0887,0.3815-0.097h0.0028
						c0.0028,0.0323,0.0083,0.0647,0.0139,0.097c-0.0517,0.0139-0.1164,0.0305-0.1921,0.0545
						c-0.0896,0.0268-0.1893,0.0619-0.2975,0.1053c-0.1081,0.0406-0.2189,0.0924-0.3326,0.1303
						c-0.1135,0.0406-0.2328,0.0674-0.3436,0.0887c-0.1136,0.0194-0.2189,0.0296-0.3085,0.0351
						c-0.0915,0.0055-0.17,0.0083-0.2217,0.0083c-0.0536,0.0028-0.0841,0.0028-0.0841,0.0028s0.0305,0.0028,0.0841,0.0028
						c0.0517,0.0028,0.1303,0.0055,0.2217,0.0055c0.0924,0,0.1977-0.0055,0.3141-0.0194c0.1137-0.0129,0.2346-0.0351,0.3539-0.0674
						c0.1191-0.0323,0.2355-0.0757,0.3436-0.1136c0.1081-0.0323,0.2078-0.0619,0.2975-0.0841
						c0.073-0.0157,0.1349-0.0296,0.1838-0.0379c0.0055,0.0305,0.0139,0.0628,0.0212,0.0924
						C21.8592,25.8161,21.3234,26,20.7941,26.0111z M18.8034,27.6175c-0.0379,0.0129-0.0536-0.0166-0.0591-0.0268
						c-0.0028-0.0111-0.0139-0.0434,0.0212-0.0628l3.5777-1.6739c0.0157,0.0462,0.0323,0.0924,0.049,0.1386l-1.9011,0.873
						l1.963-0.7242c0.0212,0.0453,0.0434,0.0887,0.0647,0.1321L18.8034,27.6175z M21.4999,27.5445
						c-0.0757,0.0351-0.157,0.0591-0.2439,0.0859c-0.0785,0.0249-0.1598,0.049-0.2402,0.0841
						c-0.1838,0.0785-0.3603,0.1755-0.5164,0.2947c-0.0896,0.0674-0.1654,0.1487-0.2383,0.2272
						c-0.0573,0.0619-0.1164,0.1247-0.1783,0.1755c-0.1007,0.0896-0.2189,0.1515-0.3381,0.1838
						c-0.1487,0.0406-0.2707,0.0462-0.3353,0.0222c0.0462-0.0194,0.097-0.0296,0.1543-0.0434
						c0.0887-0.0212,0.1838-0.0406,0.2651-0.0942c0.0831-0.0573,0.1885-0.1977,0.2975-0.3464
						c0.0859-0.1136,0.1727-0.2328,0.243-0.3002c0.1487-0.1432,0.5007-0.3464,0.8545-0.4924
						c0.2411-0.0998,0.4757-0.243,0.7168-0.4406c0.1053-0.0868,0.2078-0.1811,0.3159-0.2864
						c0.1007-0.0998,0.2162-0.1866,0.3169-0.2356h0.0028c0.0156,0.0268,0.0323,0.0545,0.048,0.0841
						c-0.0406,0.0296-0.0941,0.0702-0.1561,0.1219c-0.0711,0.0591-0.1515,0.1293-0.2356,0.2106s-0.1654,0.1672-0.2567,0.2485
						c-0.0897,0.0785-0.1867,0.1515-0.2846,0.2134c-0.097,0.06-0.1884,0.1118-0.2697,0.1487
						c-0.0841,0.0434-0.1543,0.0739-0.2032,0.0951c-0.0185,0.0083-0.0324,0.0157-0.0435,0.0212
						c0.0111-0.0055,0.0277-0.0102,0.0462-0.0157c0.049-0.0194,0.1219-0.0462,0.206-0.0813
						c0.0859-0.0351,0.1838-0.0813,0.2836-0.1376c0.1025-0.0545,0.2051-0.1219,0.303-0.2005
						c0.097-0.0757,0.1866-0.1598,0.2725-0.2328c0.0869-0.073,0.1709-0.1376,0.2439-0.1912c0.059-0.0434,0.1135-0.0813,0.1542-0.109
						c0.0185,0.0277,0.0379,0.0517,0.0564,0.0785C22.4135,26.9551,21.9867,27.3311,21.4999,27.5445z M20.2768,29.7883
						c-0.0296,0.0277-0.0563,0.0055-0.0647-0.0028c-0.0083-0.0046-0.0296-0.0323-0.0028-0.0647l2.6641-2.9172
						c0.0323,0.0379,0.0647,0.073,0.097,0.1109l-1.4226,1.5353l1.539-1.4217c0.0351,0.0323,0.0702,0.0647,0.1082,0.097
						L20.2768,29.7883z M22.7405,28.6909c-0.0564,0.0619-0.1219,0.1136-0.1921,0.17c-0.0647,0.0545-0.1293,0.1081-0.1913,0.1709
						c-0.1386,0.1432-0.2623,0.303-0.3658,0.473c-0.0536,0.0942-0.0942,0.2005-0.1321,0.3002
						c-0.0268,0.0785-0.0573,0.157-0.0951,0.23c-0.0591,0.1192-0.146,0.2245-0.2429,0.2975
						c-0.1247,0.097-0.2356,0.1515-0.3058,0.1543c0-0.0028,0.0028-0.0028,0.0028-0.0055c0.0378-0.0351,0.0812-0.0656,0.1274-0.0979
						c0.0758-0.0536,0.1543-0.1081,0.2078-0.1894c0.0573-0.0859,0.0979-0.254,0.1432-0.4351
						c0.0351-0.1349,0.0702-0.2781,0.1109-0.3704c0.0813-0.1866,0.3298-0.5081,0.6004-0.7815
						c0.1838-0.1838,0.3464-0.4055,0.4924-0.6808c0.0647-0.1192,0.1247-0.2466,0.1839-0.3871
						c0.0544-0.1302,0.1293-0.2513,0.2032-0.3381c0.0267,0.0194,0.0507,0.0379,0.0775,0.0564
						c-0.0268,0.0462-0.059,0.1062-0.097,0.1764c-0.0434,0.0813-0.0924,0.1783-0.1376,0.2836
						c-0.0462,0.1053-0.0897,0.2189-0.1433,0.327c-0.0517,0.1081-0.1136,0.2143-0.1792,0.3058
						c-0.0647,0.0924-0.1321,0.1755-0.194,0.2439c-0.06,0.0702-0.1109,0.1238-0.1486,0.1644
						c-0.0277,0.0268-0.0462,0.049-0.0546,0.0573c0.0084-0.0083,0.0269-0.0277,0.0573-0.0545
						c0.0397-0.0351,0.097-0.0896,0.1589-0.1543c0.0647-0.0647,0.1386-0.1432,0.2115-0.2346
						c0.0703-0.0896,0.1404-0.1921,0.2023-0.3002c0.06-0.1062,0.1109-0.2199,0.1626-0.3196
						c0.0508-0.1025,0.1053-0.1949,0.1515-0.2707c0.0406-0.0647,0.073-0.1182,0.1025-0.1589
						c0.0268,0.0185,0.0518,0.0351,0.0813,0.0508C23.3576,27.7985,23.1081,28.3038,22.7405,28.6909z M22.4698,31.2303
						c-0.0185,0.0397-0.0507,0.0296-0.0619,0.024c-0.0083-0.0028-0.0406-0.0194-0.024-0.0591l1.3441-3.7135
						c0.0425,0.0222,0.086,0.0434,0.1293,0.0628l-0.7242,1.9658l0.8757-1.9039c0.0434,0.0194,0.0896,0.0351,0.1377,0.049
						L22.4698,31.2303z M24.3257,29.2747c-0.0305,0.0785-0.0711,0.1515-0.1109,0.2328c-0.0406,0.073-0.0785,0.1487-0.1109,0.23
						c-0.0757,0.1838-0.1302,0.3787-0.157,0.5755c-0.0166,0.1081-0.0111,0.2189-0.0083,0.327c0.0028,0.0841,0.0055,0.1681,0,0.2522
						c-0.0111,0.1321-0.049,0.2596-0.1109,0.3677c-0.0784,0.1349-0.1626,0.2272-0.2245,0.2568c0-0.0028,0.0028-0.0028,0.0028-0.0055
						c0.0185-0.0462,0.049-0.0915,0.0786-0.1376c0.0489-0.0785,0.0997-0.1598,0.1191-0.2568
						c0.0185-0.0979-0.0055-0.2707-0.0333-0.4545c-0.0212-0.1404-0.0396-0.2864-0.0396-0.3843
						c0.0027-0.2051,0.1109-0.5977,0.2567-0.9542c0.0998-0.2383,0.1617-0.5062,0.194-0.8166
						c0.0139-0.1349,0.0194-0.2762,0.0222-0.4277c0-0.1404,0.0212-0.2836,0.0563-0.3889c0.0323,0.0083,0.0628,0.0157,0.0951,0.024
						c-0.0083,0.0517-0.0166,0.1164-0.0249,0.1949c-0.0074,0.0942-0.0129,0.2023-0.0157,0.3159
						c-0.0028,0.1164,0.0028,0.2383-0.0083,0.3575c-0.0055,0.1219-0.024,0.2402-0.0489,0.351
						c-0.0241,0.1109-0.0564,0.2143-0.086,0.3002c-0.0296,0.0868-0.0573,0.157-0.0757,0.2088
						c-0.0111,0.0268-0.0166,0.048-0.0222,0.0619c0.0055-0.0139,0.0166-0.0351,0.0277-0.0619
						c0.0212-0.049,0.0536-0.1164,0.0887-0.2032c0.0351-0.0841,0.0702-0.1838,0.1025-0.2975c0.0333-0.1081,0.06-0.23,0.073-0.3538
						c0.0166-0.1219,0.0194-0.2466,0.0277-0.3575c0.0102-0.1136,0.024-0.2189,0.0379-0.3076
						c0.0102-0.073,0.0212-0.1358,0.0323-0.1838c0.0323,0.0046,0.062,0.0102,0.0942,0.0157
						C24.5547,28.2152,24.5169,28.7777,24.3257,29.2747z M25.0471,31.7245c-0.0028,0.0434-0.0351,0.0462-0.0462,0.0462
						c-0.0102,0-0.0453-0.0028-0.048-0.0462l-0.1792-3.9454c0.049,0.0055,0.0951,0.0083,0.1469,0.0083l0.0804,2.0932l0.0813-2.0932
						c0.049,0,0.0979-0.0028,0.146-0.0083L25.0471,31.7245z M25.0009,27.6332c-1.454,0-2.6364-1.1815-2.6364-2.6336
						c0-1.4549,1.1824-2.6364,2.6364-2.6364c1.4522,0,2.6336,1.1815,2.6336,2.6364C27.6346,26.4517,26.4531,27.6332,25.0009,27.6332
						z M26.0125,29.2073c0.0027,0.0841-0.0056,0.1681-0.0139,0.2568c-0.0074,0.0841-0.0157,0.1681-0.0157,0.254
						c0.0028,0.2005,0.0296,0.4009,0.0785,0.5921c0.0268,0.1081,0.073,0.2088,0.1164,0.3085c0.0351,0.0757,0.0702,0.1515,0.097,0.23
						c0.0406,0.1266,0.0545,0.2596,0.0379,0.3843c-0.0212,0.1533-0.0619,0.2697-0.1081,0.3215c0-0.0028,0-0.0028,0-0.0055
						c0-0.0517,0.0083-0.1025,0.0185-0.157c0.0166-0.0915,0.0333-0.1866,0.0139-0.2836c-0.0212-0.0979-0.1109-0.2485-0.2051-0.4083
						c-0.073-0.1192-0.146-0.2466-0.1838-0.3381c-0.0757-0.1921-0.1303-0.5949-0.1303-0.9792c0-0.2596-0.0406-0.5293-0.1321-0.8295
						c-0.0379-0.1302-0.0868-0.2623-0.1441-0.4037c-0.0508-0.1293-0.0859-0.2697-0.097-0.3806
						c0.0351-0.0055,0.0675-0.0083,0.097-0.0139c0.0139,0.049,0.0333,0.1136,0.0545,0.1894
						c0.0269,0.0896,0.0619,0.1921,0.1053,0.3002c0.0406,0.1081,0.0924,0.2162,0.1303,0.3298
						c0.0407,0.1164,0.0674,0.2328,0.0887,0.3436c0.0194,0.1136,0.0305,0.2189,0.0352,0.3104
						c0.0055,0.0924,0.0082,0.1681,0.011,0.2217c0,0.0517,0.0028,0.0841,0.0028,0.0841s0-0.0323,0-0.0841
						c0.0028-0.0536,0.0055-0.1293,0.0055-0.2217c0-0.0915-0.0055-0.1995-0.0166-0.3132c-0.0129-0.1164-0.0379-0.2383-0.0702-0.3575
						c-0.0323-0.1182-0.0757-0.2346-0.1109-0.3427c-0.0351-0.1053-0.0618-0.2088-0.0841-0.2947
						c-0.0185-0.073-0.0323-0.1358-0.0397-0.1866c0.0323-0.0055,0.062-0.0139,0.0942-0.0194
						C25.8175,28.1394,26.0014,28.6743,26.0125,29.2073z M27.6189,31.1952c0.0139,0.0397-0.0166,0.0564-0.0267,0.0591
						c-0.0084,0.0055-0.0435,0.0157-0.0629-0.0212l-1.6738-3.5777c0.0462-0.0139,0.0924-0.0296,0.1386-0.049l0.8757,1.9039
						l-0.727-1.9658c0.0453-0.0194,0.0887-0.0406,0.1321-0.0647L27.6189,31.1952z M27.546,28.4987
						c0.035,0.0785,0.059,0.1598,0.0868,0.2439c0.0241,0.0804,0.048,0.1617,0.0831,0.243c0.0785,0.1811,0.1764,0.3566,0.2947,0.5164
						c0.0684,0.0868,0.1487,0.1626,0.23,0.2383c0.06,0.0563,0.1219,0.1136,0.1755,0.1755c0.0868,0.1025,0.1487,0.2189,0.182,0.3409
						c0.0397,0.1432,0.0453,0.2623,0.0212,0.3326c-0.0185-0.0462-0.0295-0.0998-0.0434-0.1543
						c-0.0185-0.0896-0.0406-0.1811-0.0942-0.2623c-0.0573-0.0868-0.1977-0.1894-0.3464-0.3002
						c-0.1136-0.0841-0.23-0.17-0.3002-0.2429c-0.1432-0.1487-0.3464-0.5007-0.4923-0.8545
						c-0.0998-0.2411-0.243-0.4739-0.4407-0.7168c-0.0858-0.1053-0.1811-0.2078-0.2864-0.3169
						c-0.0998-0.0998-0.1866-0.2162-0.2356-0.3159c0.0268-0.0194,0.0545-0.0323,0.0841-0.0517
						c0.0296,0.0434,0.073,0.0951,0.1219,0.157c0.0591,0.0702,0.1321,0.1543,0.2106,0.2356
						c0.0813,0.0841,0.1681,0.1672,0.2485,0.2568c0.0813,0.0915,0.1515,0.1894,0.2144,0.2836
						c0.059,0.0979,0.1109,0.1894,0.1514,0.2734c0.0397,0.0813,0.0703,0.1515,0.0915,0.2005
						c0.0166,0.0323,0.024,0.0536,0.0296,0.0674c-0.0028-0.0139-0.0102-0.0379-0.024-0.0702
						c-0.0194-0.049-0.0462-0.1219-0.0813-0.206s-0.0813-0.1838-0.1376-0.2836c-0.0545-0.1007-0.1219-0.206-0.1977-0.303
						c-0.0757-0.097-0.1626-0.1866-0.2356-0.2734c-0.073-0.0859-0.1376-0.17-0.1912-0.243c-0.0434-0.06-0.0785-0.1136-0.1081-0.1543
						c0.0268-0.0194,0.0536-0.0379,0.0776-0.0545C26.9593,27.5879,27.3325,28.0119,27.546,28.4987z M29.7897,29.7209
						c0.0305,0.0323,0.0055,0.06-0.0018,0.0647c-0.0055,0.0083-0.0333,0.0305-0.0656,0.0028l-2.9172-2.6632
						c0.0379-0.0323,0.0758-0.0647,0.1109-0.097l1.5362,1.4217l-1.4226-1.5353c0.0323-0.0379,0.0674-0.073,0.097-0.1109
						L29.7897,29.7209z M28.6923,27.2572c0.0619,0.06,0.1164,0.1247,0.1727,0.1921c0.0517,0.0656,0.1062,0.133,0.1682,0.1921
						c0.1431,0.1404,0.3029,0.2623,0.4729,0.3649c0.0951,0.0573,0.2005,0.0951,0.3002,0.133
						c0.0785,0.0296,0.1599,0.0591,0.23,0.0942c0.1192,0.0628,0.2245,0.146,0.3002,0.2466c0.0915,0.1182,0.1432,0.2245,0.146,0.2975
						c-0.0351-0.0351-0.0647-0.0785-0.0979-0.1247c-0.0536-0.0757-0.1081-0.1515-0.1884-0.206
						c-0.0841-0.0563-0.255-0.0998-0.4332-0.146c-0.1377-0.0351-0.2809-0.0702-0.3733-0.1109
						c-0.1866-0.0804-0.5081-0.327-0.7814-0.5995c-0.1811-0.1848-0.4056-0.3436-0.6809-0.4924
						c-0.1192-0.0647-0.2466-0.1247-0.3843-0.1838c-0.1321-0.0545-0.254-0.1275-0.3409-0.2005v-0.0028
						c0.0194-0.0268,0.0406-0.0508,0.06-0.0785c0.0425,0.0277,0.1025,0.06,0.1728,0.0979c0.0812,0.0434,0.1782,0.0915,0.2835,0.1376
						c0.1081,0.0462,0.2217,0.0896,0.3298,0.1432c0.1081,0.0517,0.2115,0.1136,0.303,0.1783
						c0.0951,0.0674,0.1755,0.1358,0.2466,0.1949c0.0674,0.0591,0.1238,0.1136,0.1617,0.1487
						c0.0139,0.0139,0.0249,0.024,0.0323,0.0296c-0.0074-0.0083-0.0157-0.0185-0.0296-0.0323
						c-0.0351-0.0379-0.0887-0.0942-0.1542-0.1598c-0.0647-0.0647-0.1433-0.1376-0.2319-0.2106
						c-0.0924-0.0702-0.1949-0.1404-0.3002-0.2005c-0.1081-0.0619-0.2217-0.1127-0.3224-0.1644
						c-0.0998-0.0517-0.1921-0.1025-0.2697-0.1515c-0.0656-0.0379-0.1164-0.073-0.1597-0.1025
						c0.0185-0.0249,0.035-0.0517,0.0507-0.0785C27.7999,26.6411,28.308,26.8896,28.6923,27.2572z M31.2345,27.5279
						c0.0379,0.0194,0.0268,0.0517,0.0212,0.0628c-0.0028,0.0102-0.0185,0.0397-0.0591,0.0268l-3.7126-1.3441
						c0.0212-0.0434,0.0425-0.0868,0.062-0.1321l1.9657,0.7242l-1.9039-0.873c0.0194-0.0462,0.0351-0.0924,0.049-0.1386
						L31.2345,27.5279z M29.2761,25.673c0.0785,0.0296,0.1543,0.0702,0.2328,0.1109c0.073,0.0406,0.1487,0.0813,0.23,0.1136
						c0.1838,0.073,0.3787,0.1275,0.5755,0.157c0.1081,0.0139,0.2189,0.0111,0.3279,0.0055c0.0831-0.0028,0.17-0.0055,0.2513,0
						c0.1321,0.0102,0.2596,0.0508,0.3677,0.1136c0.1349,0.0785,0.2272,0.1589,0.2569,0.2217c-0.0028,0-0.0028,0-0.0056,0
						c-0.0462-0.0222-0.0915-0.049-0.1376-0.0813c-0.0784-0.049-0.1598-0.0998-0.2568-0.1192
						c-0.0979-0.0185-0.2707,0.0055-0.4545,0.0323c-0.1404,0.0222-0.2836,0.0434-0.3843,0.0406
						c-0.2051-0.0028-0.5977-0.1081-0.9515-0.2568c-0.2411-0.097-0.5081-0.1626-0.8194-0.1921
						c-0.1349-0.0129-0.2762-0.0212-0.4277-0.0212c-0.1404-0.0028-0.2808-0.0222-0.3861-0.0573l-0.0028-0.0028
						c0.0083-0.0296,0.0166-0.0619,0.024-0.0942c0.0518,0.0083,0.1165,0.0157,0.1977,0.024
						c0.0924,0.0083,0.2005,0.0166,0.3141,0.0194c0.1155,0,0.2374-0.0028,0.3566,0.0055c0.1219,0.0074,0.2402,0.024,0.351,0.048
						c0.1109,0.0277,0.2143,0.0573,0.3002,0.0868c0.0868,0.0296,0.157,0.0563,0.2088,0.0757
						c0.0379,0.0139,0.0619,0.024,0.073,0.0268c-0.0111-0.0028-0.0351-0.0157-0.0702-0.0323
						c-0.0517-0.0212-0.1192-0.0536-0.206-0.0868c-0.0831-0.0351-0.1838-0.073-0.2947-0.1053s-0.2328-0.0563-0.3565-0.073
						c-0.122-0.0129-0.2467-0.0185-0.3576-0.0268c-0.1135-0.0083-0.2189-0.0212-0.3075-0.0351
						c-0.0731-0.0139-0.1359-0.024-0.1839-0.0351c0.0046-0.0296,0.0102-0.0619,0.0157-0.0951
						C28.2165,25.4457,28.7819,25.4808,29.2761,25.673z M31.7287,25.0457l-3.9472,0.1811c0.0047-0.049,0.0074-0.097,0.0074-0.146
						l2.0932-0.0813l-2.0932-0.0813c0-0.0508-0.0027-0.0998-0.0074-0.1487l3.9445,0.182c0.0434,0.0018,0.0462,0.0379,0.0462,0.048
						C31.7721,25.0106,31.7693,25.043,31.7287,25.0457z"/>
				</g>
			</g>
		</g>
	</g>
</g>
</svg>
