<?xml version="1.0" encoding="utf-8"?>
<!-- Generator: Adobe Illustrator 27.7.0, SVG Export Plug-In . SVG Version: 6.00 Build 0)  -->
<!DOCTYPE svg PUBLIC "-//W3C//DTD SVG 1.1//EN" "http://www.w3.org/Graphics/SVG/1.1/DTD/svg11.dtd" [
	<!ENTITY ns_extend "http://ns.adobe.com/Extensibility/1.0/">
	<!ENTITY ns_ai "http://ns.adobe.com/AdobeIllustrator/10.0/">
	<!ENTITY ns_graphs "http://ns.adobe.com/Graphs/1.0/">
	<!ENTITY ns_vars "http://ns.adobe.com/Variables/1.0/">
	<!ENTITY ns_imrep "http://ns.adobe.com/ImageReplacement/1.0/">
	<!ENTITY ns_sfw "http://ns.adobe.com/SaveForWeb/1.0/">
	<!ENTITY ns_custom "http://ns.adobe.com/GenericCustomNamespace/1.0/">
	<!ENTITY ns_adobe_xpath "http://ns.adobe.com/XPath/1.0/">
]>
<svg version="1.1" id="Layer_1" xmlns:x="&ns_extend;" xmlns:i="&ns_ai;" xmlns:graph="&ns_graphs;"
	 xmlns="http://www.w3.org/2000/svg" xmlns:xlink="http://www.w3.org/1999/xlink" x="0px" y="0px" width="50px" height="50px"
	 viewBox="0 0 50 50" style="enable-background:new 0 0 50 50;" xml:space="preserve">
<style type="text/css">
	
		.st0{clip-path:url(#SVGID_00000106831036734301859420000004186153100243655066_);fill:#FFFFFF;filter:url(#Adobe_OpacityMaskFilter);}
	
		.st1{clip-path:url(#SVGID_00000106831036734301859420000004186153100243655066_);mask:url(#a_00000182520572874434379350000013617026083223206573_);}
	.st2{fill:#EEEEEE;}
	.st3{fill:#D80027;}
	.st4{fill:#D1D3D4;}
</style>
<metadata>
	<sfw  xmlns="&ns_sfw;">
		<slices></slices>
		<sliceSourceBounds  bottomLeftOrigin="true" height="50" width="50" x="0" y="0"></sliceSourceBounds>
	</sfw>
</metadata>
<g>
	<defs>
		<circle id="SVGID_1_" cx="25" cy="25" r="24.8"/>
	</defs>
	<clipPath id="SVGID_00000150821847073863704280000009236915301130919306_">
		<use xlink:href="#SVGID_1_"  style="overflow:visible;"/>
	</clipPath>
	<defs>
		<filter id="Adobe_OpacityMaskFilter" filterUnits="userSpaceOnUse" x="0.5" y="0.5" width="49" height="49">
			<feColorMatrix  type="matrix" values="1 0 0 0 0  0 1 0 0 0  0 0 1 0 0  0 0 0 1 0"/>
		</filter>
	</defs>
	
		<mask maskUnits="userSpaceOnUse" x="0.5" y="0.5" width="49" height="49" id="a_00000182520572874434379350000013617026083223206573_">
		
			<circle style="clip-path:url(#SVGID_00000150821847073863704280000009236915301130919306_);fill:#FFFFFF;filter:url(#Adobe_OpacityMaskFilter);" cx="25" cy="25" r="24.5"/>
	</mask>
	
		<g style="clip-path:url(#SVGID_00000150821847073863704280000009236915301130919306_);mask:url(#a_00000182520572874434379350000013617026083223206573_);">
		<path class="st2" d="M0.5,0.5h17.4658l8.4314,25.6963L17.9754,49.5H0.5V0.5z"/>
		<path class="st3" d="M17.9658,0.5l-7.8764,4.0865l7.8764,4.0865l-7.8764,4.077l7.8764,4.0865l-7.8764,4.0865L17.9658,25
			l-7.8764,4.0865l7.8764,4.0865l-7.8764,4.077l7.8764,4.0865l-7.8764,4.0865l7.8764,4.077H49.5v-49H17.9658z"/>
	</g>
</g>
<g>
	<path class="st4" d="M25,50C11.2,50,0,38.8,0,25S11.2,0,25,0s25,11.2,25,25S38.8,50,25,50z M25,0.5C11.5,0.5,0.5,11.5,0.5,25
		s11,24.5,24.5,24.5s24.5-11,24.5-24.5S38.5,0.5,25,0.5z"/>
</g>
</svg>
