<?xml version="1.0" encoding="utf-8"?>
<!-- Generator: Adobe Illustrator 27.7.0, SVG Export Plug-In . SVG Version: 6.00 Build 0)  -->
<!DOCTYPE svg PUBLIC "-//W3C//DTD SVG 1.1//EN" "http://www.w3.org/Graphics/SVG/1.1/DTD/svg11.dtd" [
	<!ENTITY ns_extend "http://ns.adobe.com/Extensibility/1.0/">
	<!ENTITY ns_ai "http://ns.adobe.com/AdobeIllustrator/10.0/">
	<!ENTITY ns_graphs "http://ns.adobe.com/Graphs/1.0/">
	<!ENTITY ns_vars "http://ns.adobe.com/Variables/1.0/">
	<!ENTITY ns_imrep "http://ns.adobe.com/ImageReplacement/1.0/">
	<!ENTITY ns_sfw "http://ns.adobe.com/SaveForWeb/1.0/">
	<!ENTITY ns_custom "http://ns.adobe.com/GenericCustomNamespace/1.0/">
	<!ENTITY ns_adobe_xpath "http://ns.adobe.com/XPath/1.0/">
]>
<svg version="1.1" id="Layer_1" xmlns:x="&ns_extend;" xmlns:i="&ns_ai;" xmlns:graph="&ns_graphs;"
	 xmlns="http://www.w3.org/2000/svg" xmlns:xlink="http://www.w3.org/1999/xlink" x="0px" y="0px" width="50px" height="50px"
	 viewBox="0 0 50 50" style="enable-background:new 0 0 50 50;" xml:space="preserve">
<style type="text/css">
	.st0{fill:#FFFFFF;}
	.st1{fill:#D1D3D4;}
	
		.st2{clip-path:url(#SVGID_00000043455796260862159760000017197459463254463392_);fill:#FFFFFF;filter:url(#Adobe_OpacityMaskFilter);}
	
		.st3{clip-path:url(#SVGID_00000043455796260862159760000017197459463254463392_);mask:url(#a_00000108275263188683966860000016326272660498110132_);}
	.st4{fill:#D80027;}
	.st5{fill:#0052B4;}
	.st6{fill:#FFDA44;}
</style>
<metadata>
	<sfw  xmlns="&ns_sfw;">
		<slices></slices>
		<sliceSourceBounds  bottomLeftOrigin="true" height="50" width="50" x="0" y="0"></sliceSourceBounds>
	</sfw>
</metadata>
<g id="Layer_2_00000142873634925117560710000001888913512934112658_">
	<g>
		<circle class="st0" cx="24.9998" cy="25.0002" r="24.7525"/>
		<path class="st1" d="M25,50C11.215,50,0,38.785,0,25S11.215,0,25,0s25,11.215,25,25S38.785,50,25,50z M25,0.495
			C11.4881,0.495,0.495,11.4881,0.495,25S11.4881,49.505,25,49.505S49.505,38.5119,49.505,25S38.5119,0.495,25,0.495z"/>
	</g>
</g>
<g>
	<defs>
		<circle id="SVGID_1_" cx="25" cy="25" r="24.505"/>
	</defs>
	<clipPath id="SVGID_00000172413503981870342170000009066145497144545950_">
		<use xlink:href="#SVGID_1_"  style="overflow:visible;"/>
	</clipPath>
	<defs>
		<filter id="Adobe_OpacityMaskFilter" filterUnits="userSpaceOnUse" x="0.5" y="0.4844" width="49" height="49">
			<feColorMatrix  type="matrix" values="1 0 0 0 0  0 1 0 0 0  0 0 1 0 0  0 0 0 1 0"/>
		</filter>
	</defs>
	
		<mask maskUnits="userSpaceOnUse" x="0.5" y="0.4844" width="49" height="49" id="a_00000108275263188683966860000016326272660498110132_">
		
			<circle style="clip-path:url(#SVGID_00000172413503981870342170000009066145497144545950_);fill:#FFFFFF;filter:url(#Adobe_OpacityMaskFilter);" cx="25" cy="24.9844" r="24.5"/>
	</mask>
	
		<g style="clip-path:url(#SVGID_00000172413503981870342170000009066145497144545950_);mask:url(#a_00000108275263188683966860000016326272660498110132_);">
		<path class="st4" d="M0.5,37.2344l24.4809-2.8424L49.5,37.2344v12.25h-49V37.2344z"/>
		<path class="st5" d="M0.5,24.9844l24.835-2.9668L49.5,24.9844v12.25h-49V24.9844z"/>
		<path class="st6" d="M0.5,0.4844h49v24.5h-49V0.4844z"/>
	</g>
</g>
</svg>
