<?xml version="1.0" encoding="utf-8"?>
<!-- Generator: Adobe Illustrator 27.6.1, SVG Export Plug-In . SVG Version: 6.00 Build 0)  -->
<!DOCTYPE svg PUBLIC "-//W3C//DTD SVG 1.1//EN" "http://www.w3.org/Graphics/SVG/1.1/DTD/svg11.dtd" [
	<!ENTITY ns_extend "http://ns.adobe.com/Extensibility/1.0/">
	<!ENTITY ns_ai "http://ns.adobe.com/AdobeIllustrator/10.0/">
	<!ENTITY ns_graphs "http://ns.adobe.com/Graphs/1.0/">
	<!ENTITY ns_vars "http://ns.adobe.com/Variables/1.0/">
	<!ENTITY ns_imrep "http://ns.adobe.com/ImageReplacement/1.0/">
	<!ENTITY ns_sfw "http://ns.adobe.com/SaveForWeb/1.0/">
	<!ENTITY ns_custom "http://ns.adobe.com/GenericCustomNamespace/1.0/">
	<!ENTITY ns_adobe_xpath "http://ns.adobe.com/XPath/1.0/">
]>
<svg version="1.1" id="Layer_1" xmlns:x="&ns_extend;" xmlns:i="&ns_ai;" xmlns:graph="&ns_graphs;"
	 xmlns="http://www.w3.org/2000/svg" xmlns:xlink="http://www.w3.org/1999/xlink" x="0px" y="0px" viewBox="0 0 50 50"
	 style="enable-background:new 0 0 50 50;" xml:space="preserve">
<style type="text/css">
	.st0{fill:#FFFFFF;}
	.st1{fill:#D1D3D4;}
	.st2{fill:#04357F;}
</style>
<metadata>
	<sfw  xmlns="&ns_sfw;">
		<slices></slices>
		<sliceSourceBounds  bottomLeftOrigin="true" height="50" width="50" x="0" y="0"></sliceSourceBounds>
	</sfw>
</metadata>
<g id="Layer_2_00000123403691739621316350000017975105315266775208_">
	<g id="Layer_2_00000009549042599903514300000009786033506733176249_">
		<g>
			<circle class="st0" cx="24.9998" cy="25.0002" r="24.7525"/>
			<path class="st1" d="M25,50C11.215,50,0,38.785,0,25S11.215,0,25,0s25,11.215,25,25S38.785,50,25,50z M25,0.495
				C11.4881,0.495,0.495,11.4881,0.495,25S11.4881,49.505,25,49.505S49.505,38.5119,49.505,25S38.5119,0.495,25,0.495z"/>
		</g>
	</g>
</g>
<g id="XMLID_11107_">
	<path id="XMLID_11109_" class="st0" d="M49.5,24.9995c0,2.3094-0.3215,4.5458-0.9219,6.6686
		c-2.8313,9.9914-11.8573,17.4083-22.6488,17.812v0.0185H24.999c-4.5218,0-8.7647-1.2332-12.4043-3.3801
		C7.2221,42.952,3.1576,37.7955,1.4218,31.6682C0.8214,29.5454,0.5,27.3089,0.5,24.9995c0-2.3085,0.3214-4.5449,0.9218-6.6677
		C3.1576,12.2045,7.2221,7.048,12.5947,3.8814c3.6396-2.1468,7.8825-3.38,12.4043-3.38h0.9302v0.0185
		c10.7915,0.4028,19.8175,7.8206,22.6488,17.812C49.1785,20.4546,49.5,22.6911,49.5,24.9995z"/>
	<path id="XMLID_11108_" class="st2" d="M49.5,24.9995c0,2.3094-0.3215,4.5458-0.9219,6.6686H25.9293v17.8305H24.999
		c-4.5218,0-8.7647-1.2332-12.4043-3.3801V31.6682H1.4218C0.8214,29.5454,0.5,27.3089,0.5,24.9995
		c0-2.3085,0.3214-4.5449,0.9218-6.6677h11.1729V3.8814c3.6396-2.1468,7.8825-3.38,12.4043-3.38h0.9302v17.8305h22.6488
		C49.1785,20.4546,49.5,22.6911,49.5,24.9995z"/>
</g>
</svg>
