<?xml version="1.0" encoding="utf-8"?>
<!-- Generator: Adobe Illustrator 27.8.1, SVG Export Plug-In . SVG Version: 6.00 Build 0)  -->
<!DOCTYPE svg PUBLIC "-//W3C//DTD SVG 1.1//EN" "http://www.w3.org/Graphics/SVG/1.1/DTD/svg11.dtd" [
	<!ENTITY ns_extend "http://ns.adobe.com/Extensibility/1.0/">
	<!ENTITY ns_ai "http://ns.adobe.com/AdobeIllustrator/10.0/">
	<!ENTITY ns_graphs "http://ns.adobe.com/Graphs/1.0/">
	<!ENTITY ns_vars "http://ns.adobe.com/Variables/1.0/">
	<!ENTITY ns_imrep "http://ns.adobe.com/ImageReplacement/1.0/">
	<!ENTITY ns_sfw "http://ns.adobe.com/SaveForWeb/1.0/">
	<!ENTITY ns_custom "http://ns.adobe.com/GenericCustomNamespace/1.0/">
	<!ENTITY ns_adobe_xpath "http://ns.adobe.com/XPath/1.0/">
]>
<svg version="1.1" id="Layer_1" xmlns:x="&ns_extend;" xmlns:i="&ns_ai;" xmlns:graph="&ns_graphs;"
	 xmlns="http://www.w3.org/2000/svg" xmlns:xlink="http://www.w3.org/1999/xlink" x="0px" y="0px" width="50px" height="50px"
	 viewBox="0 0 50 50" style="enable-background:new 0 0 50 50;" xml:space="preserve">
<style type="text/css">
	.st0{fill:#1D1D1B;}
</style>
<metadata>
	<sfw  xmlns="&ns_sfw;">
		<slices></slices>
		<sliceSourceBounds  bottomLeftOrigin="true" height="50" width="49.9744" x="0.1953" y="0"></sliceSourceBounds>
	</sfw>
</metadata>
<g>
	<g>
		<path class="st0" d="M20.7443,2.9759l0.1539-0.1026l0.1026-0.0513h-0.1539l-0.1026,0.0513h-0.1026l-0.077,0.0513l-0.1539,0.0513
			l-0.0513,0.0513h0.1539L20.7443,2.9759z"/>
		<path class="st0" d="M10.0209,11.4674l0.1026-0.1539l-0.1026,0.0513l-0.0513,0.1026v0.2565l0.0513,0.0513l0.1539-0.1026
			l-0.1026-0.0513L10.0209,11.4674z"/>
		<path class="st0" d="M20.4621,3.1811l0.1539-0.0513l0.0513-0.0513V3.0272l-0.1539,0.0513h-0.1539l-0.0513,0.0513l0.0513,0.0513
			H20.4621z"/>
		<path class="st0" d="M20.1286,3.2837l0.1026-0.0513V3.1811h-0.1026l-0.0513,0.0513v0.0513H20.1286z"/>
		<path class="st0" d="M21.4113,3.2324l-0.1539,0.0513l0.0513,0.1026l-0.077,0.0513h-0.1539l0.0513-0.0513V3.335h-0.1539
			l-0.1796,0.1026h-0.1539l-0.1026-0.0513h-0.1026L20.3338,3.489l-0.2309,0.1026l0.1539-0.1539h-0.0513L19.9234,3.489
			l-0.1283-0.0513L19.6412,3.489l-0.0513,0.1026l-0.0513,0.0513l0.1026,0.1026l-0.1026,0.1026l0.2822,0.0513l0.1026-0.0513
			l-0.0513-0.0513h0.667L20.77,3.6942h0.0513l0.0513-0.0513l0.0513,0.1026h0.1026l0.1026,0.0513l0.3335-0.0513h0.4361
			l-0.0513-0.0257h0.5644l0.0513-0.0513V3.4377l-0.1026-0.0513h0.0513l-0.0513-0.1026H22.027l0.1026-0.0513l-0.1796-0.0513h-0.0513
			V3.1298h-0.2309l-0.1026,0.0513L21.4113,3.2324z"/>
		<path class="st0" d="M12.1758,10.6721l-0.2309,0.1539l-0.6157,0.3592l-0.2565,0.1283v0.1539h-0.1539L10.8674,11.57l0.2309,0.2052
			l0.1539,0.1026l0.0513,0.1539l-0.2309,0.1026l0.1026,0.0513l0.3848-0.1539v0.0513l-0.2309,0.2565l0.0513,0.1026l0.0513,0.0513
			l0.2822-0.2565l0.1026-0.2052l0.1026-0.2052h-0.077l0.2309-0.2052l-0.0513-0.2052l-0.1026,0.0513l-0.077-0.1539l0.1026-0.1026
			v-0.1026l-0.1539,0.0513l0.2822-0.2052l0.2822-0.1539l0.1026-0.0513l-0.0513-0.0513L12.1758,10.6721z"/>
		<path class="st0" d="M10.9701,10.8774l0.0513-0.0513v-0.2052l-0.0513-0.2052h-0.0513l-0.077,0.2052l0.0513,0.2052L10.9701,10.8774
			z"/>
		<path class="st0" d="M19.4616,3.2324l0.1539-0.0513l0.2309-0.0513h-0.0513l0.0513-0.0513h-0.1026l0.0513-0.0513l-0.2822,0.0513
			l-0.0513,0.0513h-0.2309l-0.0513,0.0513v0.1026L19.4616,3.2324z"/>
		<path class="st0" d="M20.8469,3.1298v0.0513h-0.2822l-0.1539,0.0513L20.3595,3.335v0.0513h0.4361l0.1026-0.0513l0.2822-0.0513
			l0.0513-0.0513l0.1026-0.0513l0.2309-0.0513V3.0785h-0.2309l-0.1539-0.0513l-0.1539,0.0513L20.8469,3.1298z"/>
		<path class="st0" d="M18.4098,4.1816l-0.2309,0.1026v0.0513h0.0513v0.1539l0.1026-0.0513l0.1539-0.1539l0.0513-0.1026
			l-0.0257-0.0513L18.4098,4.1816z"/>
		<path class="st0" d="M14.5616,5.6952h0.1026l0.1026-0.1026l-0.0513-0.0513L14.9465,5.49l0.1026-0.1539l0.1283-0.1026
			l0.0513-0.1026h-0.0513l0.1539-0.1026l0.0513-0.0513l-0.3335,0.1026l-0.3079,0.1539h-0.1539l0.0513,0.1026l-0.2309,0.1026h0.3848
			l-0.1539,0.1026L14.5616,5.6952z"/>
		<path class="st0" d="M19.1794,3.3864l0.1539-0.0513h-0.2309l-0.1539,0.0513l-0.0513,0.0513h0.1539L19.1794,3.3864z"/>
		<path class="st0" d="M14.1768,5.6439l-0.1026,0.1026v0.0513l0.2309-0.0513h0.0513V5.6439H14.1768z"/>
		<path class="st0" d="M16.6396,6.2853l-0.0513-0.1026l0.2309-0.2565V5.8235l0.1026-0.2565h0.2822l0.2822-0.2052l0.1026-0.1539
			l0.1026-0.1539l0.1539-0.1539l-0.1026-0.1026l0.1539-0.1026l0.1026-0.1026l0.1539-0.2052h-0.1539l-0.1026-0.0513l0.2309-0.0513
			l0.3848-0.2052l-0.1539-0.0513L18.025,4.079l0.2822-0.1539h0.2052l-0.0513-0.1026h-0.1539l-0.3335,0.0513l-0.4361,0.1026V4.079
			h-0.1539l-0.1539,0.0513l-0.0513,0.1026l-0.1026,0.1539l-0.0513,0.2565l0.0513,0.0513h0.1539l-0.1026,0.1026l-0.0513,0.0513
			l-0.1539,0.1539h-0.1026l-0.1796,0.2309L16.537,5.3874l-0.1026,0.0513l-0.1539,0.1026l-0.3848,0.1026l-0.2565,0.1026
			l-0.1026,0.0513l-0.1026-0.1026l-0.0513-0.1026l-0.3335,0.0513l-0.0513,0.1539l0.1026,0.1539l0.1026-0.0513l-0.1026,0.2052
			l-0.1026,0.2052h-0.1026l-0.1539,0.2052l-0.0513,0.2565v0.3079l0.1026-0.1026l0.1539-0.2052l0.2309-0.3079L15.0234,6.824v0.1539
			l0.2822-0.1539l0.3335-0.2565l0.0513-0.0513l0.0513-0.2052l0.1539-0.1539l0.2309-0.1026l0.1026,0.0513L15.947,6.3622
			l-0.0513,0.1539l0.5644-0.1026L16.6396,6.2853z"/>
		<path class="st0" d="M18.8459,3.9251l-0.0513,0.1026h0.2309l0.1539-0.0513l0.1539-0.0513V3.8225L19.282,3.7712l-0.0513-0.0513
			V3.6685l0.0513-0.0513l0.0513-0.0513l0.1026-0.0513l0.1539-0.0513l0.1026-0.0513l0.0513-0.0513l0.1026-0.0513l0.0513-0.1026
			h-0.1026l-0.1539,0.0513l-0.0513,0.1026L19.359,3.412l-0.1283,0.0257L19.0255,3.489l-0.1539,0.1539l-0.0513,0.1026v0.0513
			L18.8459,3.9251z"/>
		<path class="st0" d="M14.0742,6.0031l-0.1026,0.1026V6.157l0.1539-0.1026l0.0513-0.0513V5.9518L14.0742,6.0031z"/>
		<path class="st0" d="M16.1779,5.3874l0.0513-0.0513l0.1539-0.0513l0.1026-0.1026h-0.1026l-0.2052,0.0513l-0.1539,0.1026
			l0.0513,0.0513H16.1779z"/>
		<path class="st0" d="M18.2302,3.7199h0.3335l0.1026-0.1026l0.0513-0.1026l-0.1026-0.077L18.5124,3.489h-0.2309L17.948,3.5916
			l-0.0513,0.1026l0.2822-0.0513L18.2302,3.7199z"/>
		<path class="st0" d="M34.6745,19.215l0.2822-0.2052l-0.0513-0.0513v-0.0513l0.1026-0.2052l-0.2309,0.1539l-0.2309,0.0513v0.1026
			l-0.1539,0.0513l0.1026,0.1539L34.6745,19.215z"/>
		<path class="st0" d="M27.1322,12.3653l0.1026-0.2565l-0.1026-0.2052l-0.3335,0.1539l0.0513,0.1539L27.1322,12.3653z"/>
		<path class="st0" d="M26.7987,17.4448l0.1026-0.3078l-0.1026-0.3078l-0.1539,0.1539l-0.0513,0.1026l0.1026,0.2565L26.7987,17.4448
			z"/>
		<path class="st0" d="M23.9511,12.4679l-0.1539-0.4105v-0.0513l-0.2822-0.0513l0.2822-0.2565l0.0513-0.3079h-0.2309l-0.2309,0.0513
			l0.2822-0.3592h-0.4361l-0.2309,0.2565l-0.1026,0.3078l0.0513,0.2052l-0.0513,0.3078l0.1539-0.1539l0.0513,0.1026l-0.1026,0.1539
			l0.0513,0.1026l0.2822,0.0513v0.0513l0.1539,0.2052l-0.1026,0.2052l-0.3335-0.0513l-0.0513,0.2052l0.1026,0.2052l-0.3335,0.1026
			l0.0513,0.1539l0.3848,0.0513h0.0513l-0.2822,0.1026l-0.4361,0.3592l0.1539,0.0513l0.1539-0.1026l0.2822,0.0513l0.1539-0.1539
			l0.1026,0.0513l0.4361-0.1026l0.3848,0.0513l0.2309-0.2052l-0.0256-0.1283l0.1539-0.1026l0.0513-0.2565l-0.3335-0.0513
			l-0.0513-0.1796l-0.1026-0.4105L23.9511,12.4679z"/>
		<path class="st0" d="M32.0835,19.5998l0.4361-0.1026l0.0513-0.1539l-0.1539,0.1026v-0.1026h-0.2822l-0.2309,0.1026l-0.2309-0.1539
			v0.2052h0.3848L32.0835,19.5998z"/>
		<path class="st0" d="M17.0758,8.6455l0.1539-0.2052l0.3848-0.1539l0.2822-0.1539l0.1539-0.1539l0.2822-0.1539h0.5644
			l0.4361-0.0513l0.4361-0.2565l0.2309-0.0513l0.1026,0.0513h0.4618l0.4874-0.1539l0.4874-0.1539l-0.1539-0.0513l-0.2822-0.0513
			l0.2309-0.1026l0.1026-0.2052v0.1539l0.0513,0.1539h0.2309l0.1026-0.2565l-0.0513-0.1539l-0.1026-0.1026l0.1026-0.0513
			l0.1539,0.1539l0.0513-0.1026V6.3879h0.3848l0.1026-0.0513l-0.0513-0.1539l0.2309,0.0513V5.9774h0.1026l0.1026-0.2052
			l-0.0513-0.1539l0.2309-0.0513l0.1026,0.0513V5.4643l0.1539-0.2565l0.1539-0.1539L23.6689,4.9H23.515h0.2309l0.1026-0.0513
			L24.182,4.746V4.6434l-0.1026-0.0513h-0.3335L23.515,4.6434l0.1539-0.1026V4.4895L23.515,4.5408l-0.0513-0.1026l-0.1539-0.0513
			V4.3356l0.2822,0.0513l0.1539,0.0513l0.1539-0.0513l-0.1026-0.2052L23.515,4.079L23.361,4.0277L23.2584,4.079l-0.1283-0.1539
			l-0.3335,0.0513L22.694,4.0277l-0.1026,0.1026l0.0513-0.0513l-0.0513-0.0513l0.0513-0.1026l-0.2822,0.0513l0.1026-0.0513
			l-0.1026-0.1026h-0.1539L22.104,3.7712l-0.1539,0.1026l-0.1026-0.0513h-0.3335L21.36,3.8738l-0.0513,0.1026h-0.4361
			l-0.2822-0.1026l-0.1539,0.0513L20.3338,4.079l0.0513,0.1539l-0.1026-0.0513l-0.1539-0.0513l-0.3335,0.1539l-0.0513,0.0513
			l0.0513,0.1026l0.1026,0.0513l0.0513,0.1026l-0.0513,0.2052l-0.1539,0.0513l-0.0513,0.1283L19.359,5.2335l-0.1539,0.1539
			L19.0768,5.49L18.692,5.5926v0.1026h0.1026l-0.0513,0.1026L18.692,6.0031l-0.1026-0.1026l-0.077-0.0513l-0.2309,0.1026
			l-0.2309,0.1026v0.1539h0.4618l-0.2822,0.1539l-0.1539,0.0513h-0.2822L17.358,6.6188l-0.0513,0.1539l-0.2822,0.1026
			l-0.1539,0.3079l-0.2822,0.2052l-0.1283,0.2565l-0.2309,0.4105l-0.1539,0.3078l-0.0513,0.2052l0.2309,0.1026v0.3592l0.2309,0.0513
			l0.3335-0.2565L17.0758,8.6455z"/>
		<path class="st0" d="M22.694,12.6732l0.1539-0.2565l-0.2309-0.2052h-0.1539l-0.2309,0.1539l-0.3848,0.2052l0.0513,0.3592
			l-0.2822,0.3592l0.3335,0.1026l0.4874-0.1539l0.2309-0.3079L22.694,12.6732z"/>
		<path class="st0" d="M22.1296,8.7994l-0.0513-0.2052l0.1026-0.2052l-0.2822-0.077l-0.3335,0.1026L21.4113,8.312l-0.2822,0.1026
			l-0.1539-0.2052h-0.2309l-0.2309,0.1539l0.2822,0.1539l-0.0513,0.0513h-0.2822l0.2309,0.2052l-0.2309,0.1026l0.4361,0.2052
			l0.1539,0.0513h0.1539l0.6157-0.1539L22.1296,8.7994z"/>
		<path class="st0" d="M28.5688,19.1124l0.2822,0.1026l0.0513-0.2052l-0.0513-0.1026l0.0513-0.3078l-0.2309,0.0513l-0.3335,0.0513
			h-0.3848v0.2052l0.4361,0.1539L28.5688,19.1124z"/>
		<path class="st0" d="M26.6191,18.3427l0.1026,0.1026l0.1026-0.1539h0.1539v-0.5131l-0.2309-0.2565l-0.1026,0.1539l-0.2309-0.0513
			l0.1026,0.2565L26.6191,18.3427z"/>
		<path class="st0" d="M41.8577,36.198l-0.0513-0.1026l-0.1026-0.1026l-0.1026,0.2052l-0.0513,0.2052l-0.1539,0.2565l-0.1026,0.0513
			v0.1026l-0.1026,0.2052l-0.2822,0.3078l-0.2309,0.2565h-0.1539l-0.1026,0.1026l-0.1539,0.1539l-0.1539,0.0513l-0.1026,0.2052
			l-0.1026,0.2052l-0.0513,0.3078v0.3078l-0.0513,0.2052l-0.2309,0.3078l-0.0513,0.1026l-0.1026,0.0513l-0.1539,0.2565v0.4105
			l-0.0513,0.2565v0.1026l0.1539,0.0513h0.1539l0.2822-0.2052l0.2822-0.1539l0.2309-0.3592l0.2822-0.4618l0.3848-0.6927
			l0.2822-0.4618l0.2309-0.4105l0.0513-0.3078l0.1026-0.1026l0.0513-0.1539v-0.2052l0.1026-0.1026v0.1539l0.1026-0.1026
			l0.0513-0.2052l-0.0513-0.1026l0.0513-0.4105L41.8577,36.198z"/>
		<path class="st0" d="M26.7474,5.2335l-0.1539,0.0513l0.1026,0.1026l-0.0513,0.0513L26.8757,5.49l0.1026-0.1539h-0.1539
			L26.7474,5.2335z"/>
		<path class="st0" d="M26.3369,4.9769l0.0513,0.0513h0.2309l0.1539-0.0513V4.823l-0.1539-0.0513h-0.1539L26.4139,4.823
			l-0.1026-0.0513l-0.1539,0.1026L26.26,4.9769L26.3369,4.9769z"/>
		<path class="st0" d="M25.9521,5.4387L26.106,5.49l-0.0513,0.0513l0.2309,0.1539h0.1026V5.49l0.0513-0.0513l-0.0513-0.2052
			l0.1539-0.1026l-0.3335-0.1026L26.106,4.9256l-0.1026,0.0513v0.0513h-0.1026l-0.0513-0.0513l-0.1539,0.1026l0.0513,0.1539
			L25.9521,5.4387z"/>
		<path class="st0" d="M3.9665,21.216v-0.1026l-0.0513-0.1026l-0.1026-0.1026l-0.0513,0.1539l0.0513,0.1026l0.1026,0.1026
			L3.9665,21.216z"/>
		<path class="st0" d="M27.9018,4.4895l0.1026,0.0513l0.0513-0.0513l-0.0513-0.0513V4.3869h0.0513l-0.0513-0.0513h-0.1026v0.0513
			l0.0513,0.0513l-0.1026-0.0513h-0.0513l-0.0513,0.1026l0.1026-0.0513L27.9018,4.4895z"/>
		<path class="st0" d="M29.1845,3.3864h0.4874l0.1026-0.0513l-0.0513-0.1026l-0.3335-0.0513H29.005l-0.2309,0.0513l0.1026,0.0513
			L29.1845,3.3864z"/>
		<path class="st0" d="M30.1337,3.335l-0.2309-0.2052l-0.1539-0.0513L29.595,3.1298l-0.0513,0.0513h0.0513L30.1337,3.335z"/>
		<path class="st0" d="M30.0055,4.5921v0.1026l-0.0513,0.1539v0.2052l0.0513,0.2052l0.1026,0.0513l0.1026,0.2565h0.1026
			l0.1026,0.2565l0.1539,0.1026v0.1026l0.1539,0.1026h0.2309l0.1539,0.0513L31.3908,6.08l0.0513-0.0513L31.006,5.9261
			l-0.2822-0.1539l-0.1539-0.2565L30.339,5.3104l-0.1026-0.3079V4.5921l-0.1026-0.0513l-0.1539-0.0513v0.1026H30.0055z"/>
		<path class="st0" d="M3.8382,24.6793v0.1539l-0.0513,0.0513v0.0513l0.1539,0.1026l0.0513-0.3078l-0.0513-0.0513H3.8382z"/>
		<path class="st0" d="M50.067,22.4218l-0.4361-2.5654l-0.667-2.5141l-0.9492-2.4628l-1.1544-2.3089l-1.411-2.2063L43.8331,8.312
			l-1.8214-1.8471l-2.001-1.6675l-2.1549-1.411l-2.3345-1.2057L33.084,1.2314l-2.5654-0.6927l-2.6167-0.4105L25.1825,0
			l-2.5654,0.1539L20.026,0.5644l-2.5654,0.6927l-2.4371,0.9492L12.6889,3.412L10.457,4.823L8.4046,6.4392L6.5832,8.2863
			l-1.6675,2.0523L3.479,12.5449l-1.1544,2.3089l-0.9492,2.4115l-0.6157,2.5141l-0.3848,2.5654l-0.1796,2.6424l0.1026,2.5654
			L0.734,30.118l0.667,2.5141l0.9492,2.4628l1.1544,2.3089l1.411,2.2063l1.6162,2.0523l1.8214,1.8471l2.001,1.6675l2.155,1.411
			l2.3345,1.2057l2.4371,0.9492l2.5654,0.6927l2.6167,0.4105L25.1312,50l2.5654-0.1539l2.6167-0.4105l2.5654-0.6927l2.4371-0.9492
			l2.3345-1.2057l2.2319-1.411l2.0523-1.6162l1.8214-1.8471l1.6675-2.0523l1.4366-2.2063l1.1544-2.3089l0.9492-2.4115l0.667-2.5141
			l0.3848-2.5654l0.1539-2.668L50.067,22.4218z M39.7284,16.5983l-0.2822,0.2565l-0.3848,0.0513l-0.2309-0.1026h-0.2822
			l-0.2309-0.2565l-0.1026-0.1539l0.0513-0.1026v-0.1539l-0.1026-0.3078l0.1539-0.1026l-0.1026-0.0513h-0.1026l-0.2309-0.2052
			l-0.2309-0.1539l-0.4105-0.3335l-0.1026-0.2565l-0.3848-0.2565v-0.4105l0.1539-0.1539l-0.0513-0.2565l0.1539-0.1539l0.1026-0.2565
			h0.2309l0.1539-0.1026l0.1539,0.2052l0.1539,0.3592h-0.2309l-0.1026,0.1026l0.1539,0.2565l-0.2309,0.0513l0.0513,0.1026
			l0.1539,0.0513l0.2822,0.2565h0.3335l0.1026,0.1026l0.0513,0.1539l0.0513,0.1026l0.2309,0.2052l-0.1026-0.2565l0.1026-0.1539
			l0.1539,0.1539l0.2822,0.1539l-0.1026,0.2052h-0.2309l0.1026,0.3079l0.1539-0.0513l0.1026,0.2565l0.2309,0.0513l0.1539,0.4105
			l0.1539,0.2565L39.7284,16.5983L39.7284,16.5983z M31.4678,3.1811l-0.1539-0.0513h-0.0513
			C31.2369,3.1298,31.4678,3.1811,31.4678,3.1811z M47.4503,21.0621l0.0513,0.4105v-0.0513L47.4503,21.0621z M18.3585,3.335h0.1026
			H18.3585z M47.6812,27.3474l-0.3848,2.3602l-0.6157,2.3089l-0.8209,2.2063l-1.0518,2.1549l-1.2827,2.001l-1.4879,1.8471
			l-1.6675,1.6675l-1.8214,1.5136l-2.001,1.3084l-2.1036,1.1031l-2.2319,0.8466l-2.2832,0.6414l-2.3345,0.3592l-2.3858,0.1026
			l-2.3345-0.1026l-2.3345-0.3592l-2.2832-0.6414l-2.2319-0.8466l-2.1036-1.1031l-2.001-1.3084l-1.8214-1.5136l-1.5649-1.5649
			l-0.1026-0.2565l-0.1026-0.1539l-0.1026-0.2052l0.0513-0.2052l0.1539-0.1026l0.2309,0.0513l0.1026-0.0513l0.3335,0.0513
			l0.2822,0.1026v-0.2052l0.1539-0.0513l-0.0513-0.3078l0.1539-0.3078L9.5847,38.276l0.0513-0.1026v-0.2052l-0.0513-0.4618
			l-0.1539-0.6414l0.0513-0.2052h0.0513l0.1539-0.2052L9.79,36.1467l0.3848-0.3592l0.1026-0.1539l0.0513-0.5644l-0.0513-0.2565
			l-0.1539-0.5131l-0.1026-0.1539l-0.2822-0.1026l-0.2309-0.2052l-0.4361-0.5644l-0.4361-0.4618l-0.4361-0.1539L7.635,32.2473
			H7.3015l0.0513-0.2052l-0.1539-0.2565l-0.3848-0.3592l-0.3335-0.3078l-0.1539,0.1539v-0.3592l-0.4361-0.3078l-0.1026-0.1539
			l0.1539-0.2052v-0.2565l-0.1026-0.1539l-0.1026-0.744l-0.0513-0.2565H5.634l-0.0513-0.1539l-0.2309-0.4618l-0.1796-0.4105
			l-0.0513-0.1026L4.89,27.45l-0.1539-0.1026l-0.0513,0.0513l-0.2309-0.2565l-0.0513-0.2052L4.3,26.6803L4.2487,26.629v-0.2052
			L4.146,26.0646l-0.0513-0.1539l-0.0513-0.1539l-0.1026-0.0513v-0.3078l-0.1026-0.3078l-0.1026-0.1539v-0.2052h0.1539
			L3.633,24.4741l-0.2309-0.1539v0.1026l-0.1026,0.0513l-0.1026-0.1539l-0.0513-0.2565L2.9916,23.961L2.889,23.8071v-0.1539
			l-0.0513-0.3078l-0.0513-0.1026v-0.3078l-0.1026,0v0.2052H2.6325v-0.5644l0.3848-2.3602l0.0513-0.2052l0.0513,0.1026
			l0.0513,0.0513l0.0513,0.1539l-0.0513,0.1026v0.1026l0.1026-0.2052h0.0513v0.1026l0.0513,0.0513l0.0513-0.0513L3.479,20.472
			l0.0513,0.0513v0.1539l0.1026-0.1026v-0.2052l0-0.1026l0.0513-0.1026L3.633,20.1129V19.959l-0.0513-0.0513v-0.2052H3.5303
			L3.479,19.7537l-0.0513-0.2052l-0.0513-0.1026l-0.0513,0.0513l0.0513,0.1539L3.3251,19.805v0.2052l-0.0513,0.0513l-0.0513-0.1539
			l0.4874-2.001l0.8209-2.2063l1.0005-1.9497l0.0513-0.0513l0.0513,0.0513l0.1539-0.1026l0.1026,0.0513l0.2309-0.1539l0.2309-0.3592
			l0.0513-0.1026v-0.0513l0.2309-0.3079l0.0513-0.2052v0.1539l0.1539-0.2052l0.1026-0.1026l-0.2309,0.2565l-0.0513,0.2052
			L6.5062,12.981l0.2309-0.2052l0.1026-0.1026l0.1026-0.1026l0.0513-0.1026l0.1026-0.2052L7.045,12.3653v0.0513l-0.0513,0.1026
			l0.2309-0.1539l0.2309-0.2052v-0.0513l0.1026-0.0513l-0.0513,0.0513l0.0513,0.0513l0.1539,0.0513l0.0513-0.1026l-0.1539-0.1026
			h0.1283l0.0513,0.0513l0.0513,0.0513l0.1026,0.0513l0.0513,0.0513l0.1026,0.0513l0.0513-0.1026l0.0513-0.1026l-0.1026,0.1026
			l-0.0513-0.0513l0.1026-0.2052l0.1539-0.1539l0.0513-0.0513l0.2309-0.1026l0.1539,0.0513h0.1539l0.2309-0.0513l0.0513-0.1026
			l0.1539,0.1026l0.1539,0.1539l-0.3848,0.1539l-0.2309,0.2565l0.0513,0.1026l0.3335-0.1026h0.2309l0.4361,0.0513l0.3335-0.1026
			v-0.1539l0.1539-0.2052l-0.4361,0.1539l-0.2309-0.1026v-0.3079l0.1539-0.2565l0.2822-0.3592l0.2822-0.1026l0.0513-0.2052
			l-0.1539-0.1026l-0.4361,0.0513l-0.4874,0.2052l-0.0257-0.1026l0.3335-0.1539l0.4874-0.2052h0.2309l0.2822-0.1026l0.1026,0.1026
			l0.1539,0.1539l0.1539,0.2565l0.2309,0.1026l0.3848-0.1026l0.2822,0.0513l0.1539-0.0513l0.2309-0.0513l0.3335-0.3079
			l0.0513-0.1539l-0.0513-0.1026l0.2309-0.2565V9.646l-0.1026-0.2052l0.0513-0.2052l0.0513-0.2565l0.2309-0.1539l0.2822-0.4105
			l0.3335-0.4105l0.2309-0.2565l-0.2309,0.0513l-0.4361,0.2052H13.125l0.1539-0.2052V7.6963l0.3848-0.3079l0.2822-0.2052
			l0.1026-0.2052l0.1026-0.1026l0.1539-0.2052l0.0513-0.1539h-0.1026V6.4135l0.0513-0.1539h-0.1026l-0.5644,0.3592L13.3046,6.824
			l-0.3848,0.1026l-0.2309,0.2565l-0.2822,0.2565l-0.1796,0.1026l-0.2822,0.1026l-0.2822,0.0513l-0.2309-0.0513l-0.1539,0.2052
			l-0.4874,0.4105L10.457,8.4659h-0.1026l0.2822-0.3592l0.3335-0.3592l0.3335-0.2565l0.2822-0.2052V7.0292l0.1539-0.2052
			l0.1026-0.1539l0.1539-0.1539l1.8214-1.2057l0.4874-0.2565v0.0513l0.2309-0.1026h0.1539v0.1026l0.2309-0.0513l0.1539-0.0513
			l0.3335-0.0513l0.1539-0.0513l-0.0513,0.077l0.0513,0.0513h0.2822l0.1539-0.0513l0.2309-0.1026l0.2309-0.0513l0.1539-0.0513
			l0.1539-0.1539l0.0513-0.1026V4.4125L16.537,4.5664l-0.3335,0.0513l-0.2822,0.0513l0.2822-0.1539l0.2822-0.1026l0.2822-0.1539
			h-0.2822l0.3848-0.1026l0.1026-0.1026h0.1539l0.4361-0.2052l0.1539-0.1026l0.1026-0.1026h-0.2822l-0.4361,0.1026l-0.1539,0.1026
			l-0.2822,0.2052L16.2805,4.156V4.1047l0.3335-0.1026h0.0513l0.1539-0.0513l0.0513-0.0513l0.667-0.2565l0.1026,0.0513
			l0.4361-0.1539l0.2309-0.1026h0.1539l0.1026-0.0513V3.335l0.1026-0.0513h-0.1026l1.8214-0.4618H20.77l0.0513,0.0513l0.1026-0.0513
			h0.0513l1.8214-0.2565l2.2319-0.2565l2.3345,0.1026l2.3345,0.3592l0.667,0.1539L30.262,3.0272l0.0513,0.1026l0.1026,0.0513H30.262
			v0l-0.1026-0.0513l-0.1026,0.0513l0.2309,0.1026l0.1539,0.0513l0.1539,0.0513v0.0513l0.2309,0.1026h-0.1026l0.0513,0.1026
			l0.1026,0.0513l0.0513,0.1026l0.1539,0.1539v0.0513l0.2309,0.1026l0.2309,0.0513v0.1026l-0.0513,0.1026l0.0513,0.1026
			l0.3848,0.1539l0.3335,0.1026h-0.2822L31.9295,4.823l0.1026,0.1539l0.2822,0.1026h-0.1026l-0.3335-0.1539l-0.1539-0.0513v0.1026
			l0.2822,0.1026l0.1539,0.2052l0.3335,0.1026l0.3335,0.2052l0.2309,0.1026l0.1026-0.0513l0.2309,0.1539l0.2309,0.0513
			l0.1026,0.1539l0.1539,0.1026l0.0513,0.1026l0.1026,0.1026l-0.1026,0.0513l-0.3848-0.4105l-0.2309-0.1539l-0.2822-0.0513
			L32.5452,5.49L32.263,5.3874l-0.1539-0.0513l-0.2822-0.2052L31.596,5.0282l-0.2309,0.0513l0.0513,0.0513l0.2822,0.2052
			l0.2309,0.2565l0.1026,0.0513l0.3335,0.1026l0.1539,0.1026l0.1026-0.0513l0.0513,0.0513l0.2822,0.0513l0.1539,0.1539
			l-0.4874-0.0513h-0.2309l-0.3848,0.1026l0.0513,0.1026L32.34,6.2596l0.1026,0.2052l-0.2822-0.1026v0.1539l-0.1539,0.1026
			l0.0513,0.1026l-0.1539,0.0513l-0.0513-0.1539H31.75l-0.1026,0.3592l-0.1026,0.2052l0.1539,0.1539L31.596,7.4397l-0.1539-0.0513
			l-0.1539-0.1539l0.1026-0.1026h-0.6157l0.2309,0.1539l0.1026,0.1539l0.2309,0.1026l0.1026,0.2052l-0.2309-0.0513h-0.1283
			l-0.1026,0.3592l0.2822,0.1539L31.2112,8.312l-0.4874-0.1026v0.1539l0.1539,0.1026l0.0513,0.1539h-0.1539l-0.2822-0.0513
			L30.262,8.2606L30.2107,8.158l-0.4105-0.1026l0.0513-0.0513l0.7696,0.0513l0.1539-0.1539l0.0513-0.2052l-0.1539-0.1539
			l-0.2309-0.1026l-0.7183-0.1539h-0.3848l-0.3335-0.1026l-0.0513,0.1026l-0.2309-0.1026l0.1026-0.1026l-0.4874-0.1026
			L28.184,7.0806h-0.2309l-0.1026,0.2565h-0.2309L27.3374,7.491l-0.2822,0.4105l-0.2309,0.2052l-0.2822,0.5644l-0.2309,0.4105
			l-0.3335,0.3079l-0.4361,0.3592l-0.1539,0.2052l0.0513,0.744l0.1026,0.3592l0.3335,0.1539l0.2822-0.1026l0.3848-0.4105
			l0.1539,0.2052l0.2309,0.4618l0.2309,0.3592l0.1026,0.3079l0.2822-0.0513l0.0513-0.2565h0.2822l0.0513-0.3079l-0.0513-0.5644
			l0.2309-0.1026l0.1026-0.3592l-0.2822-0.1539l-0.2309-0.2052V9.569l0.2822-0.3078l0.1539-0.2565l-0.1026-0.1539l0.0513-0.2052
			l0.2309-0.1026l0.2822,0.1026l0.0513,0.1026l-0.0513,0.1026l-0.1026,0.3078l-0.1026,0.2052V9.569l0.1539,0.2565l0.0513,0.3079
			l0.2309,0.1026l0.1539,0.1539l0.2822-0.1026l0.2822-0.1539l0.3335-0.1026l0.2822,0.1026l-0.1026,0.2052l-0.2309,0.0513H29.595
			l-0.2309,0.1026l-0.2309,0.1026l0.1026,0.2052l0.1539,0.1026l0.0513-0.0513l0.0513,0.2052l0.0513,0.2565h-0.1539l-0.2822-0.2052
			l-0.1026,0.1026l-0.0513,0.2052l0.0513,0.2565l0.1026,0.2565l-0.2822,0.1539v0.1539h-0.2309l-0.0513-0.1026l-0.2309-0.0513
			l-0.2822,0.2565l-0.3335,0.2052l-0.1539,0.1026L27.44,12.5449l-0.2822-0.1026l-0.1026,0.1026l-0.2822,0.0513v-0.1026
			l-0.2822-0.0513v-0.1539l-0.0513-0.1539l0.1539-0.2565l0.0513,0.0513l0.0513-0.1539l-0.1026-0.0513l-0.0513-0.1026l0.0513-0.1026
			v-0.1539l-0.1539,0.1026L26.3882,11.57l-0.2309,0.0513L26.106,11.724l-0.0513,0.1026l0.0513,0.3592l0.1026,0.2052v0.2822
			l0.0513,0.1539L26.106,12.981l-0.0513-0.0513h-0.2309l-0.0513,0.0513h-0.2309l-0.3335,0.1539l-0.2309,0.5131l-0.1026,0.1026
			l-0.2309,0.0513l-0.2309,0.0513l0,0.3335l-0.667,0.2565l-0.2309-0.1539l0.0513,0.4105l-0.3848-0.2052l-0.3335,0.0513v0.2565
			l0.3848,0.1539l0.1539,0.2052l0.2822,0.4105l-0.1026,0.7953l-0.1539,0.2052H22.694l-0.3335-0.077h-0.3848l-0.3335-0.1026
			l-0.4361,0.2565l0.1026,0.1539L21.2574,17.06v0.1539l0.0513,0.1539v0.1796l-0.1026,0.2052l-0.0513,0.1539l-0.2052,0.1539
			l-0.0513,0.2565l0.0513,0.1539l0.1026,0.0513v0.2565l-0.1026,0.3078l0.1539-0.0513l0.1539,0.0513l0.1539-0.1026l0.2822,0.1026
			l0.0513,0.2565l0.1026,0.1539l0.1539,0.0513l0.1539-0.1539l0.2309-0.1026h0.7696l0.2822-0.3078l0.2822-0.0513l0.1026-0.2565
			l0.2309-0.1539l-0.1026-0.2052l0.1026-0.3078l0.2309-0.2052l0.0513-0.1539l0.3848-0.0513l0.2822-0.2565V17.137l0.0513-0.2565
			l0.4361-0.1026l0.6157,0.1026l0.2822-0.2052l0.1026-0.0513l0.1539-0.2052l0.1026-0.0513l0.2822,0.1026l0.1539,0.0513
			l0.1026,0.3592l0.2309,0.2052l0.2822,0.2565l0.2822,0.1539h0.2309l0.1539,0.1539h0.0513l0.1026,0.1539l0.1026,0.0513
			l0.1026,0.2052l0.1539,0.2052l-0.0513,0.1026l-0.0513,0.2052v0.1026l0.1026-0.0513l0.1026-0.3592l0.1026-0.0513v-0.2052
			l-0.2309-0.1026l0.1026-0.2565l0.2822,0.0513l0.2309,0.1539l0.0513-0.1539v-0.0513l-0.2822-0.1539l-0.2309-0.1026l-0.2822-0.1026
			l0.0513-0.1026l-0.1026-0.1026h-0.2309l-0.3848-0.3078L28.0044,16.47l-0.2822-0.1539l-0.1026-0.2052v-0.1026l-0.0513-0.2052
			l0.2309-0.1539l0.2309,0.0513l-0.0513,0.0513v0.1539l0.1026,0.1026l0.0513-0.1539l0.1539,0.0513v0.1026l0.1539,0.1539v0.1026
			l0.2822,0.2565l0.2822,0.1026l0.2309,0.1026l0.2822,0.1026l0.1539,0.0513l0.1026,0.1026h0.0513l0.0513,0.0513v0.3592
			l0.0513,0.2052l0.1539,0.1026v0.1026h0.0513l0.0513,0.1026l0.2309,0.2052l0.1539,0.1539l0.1026,0.2565l0.1539,0.3078
			l0.2822,0.1539l0.2309-0.0513l-0.1539-0.2565l0.1539-0.0513l-0.1026-0.2052l0.3335,0.0513l-0.0513-0.2052l-0.2309-0.1026
			l-0.2309-0.1539l0.1026-0.1026l-0.1539-0.1539l-0.1026-0.2052l0.0513-0.1026l0.2309,0.1539h0.1539l0.1026-0.1026l-0.2822-0.1539
			l0.3335-0.1539h0.3335v0.1026l0.1539,0.1539l0.1539-0.2565l0.1026-0.1539l0.3335-0.1026v-0.1026l-0.2822-0.1026l-0.0513-0.1026
			l-0.1539-0.2052v-0.3078l0.1026-0.1539l-0.0513-0.4618h0.1026l0.1026-0.1026l-0.1026-0.0513l0.1026-0.3078v-0.2052l0.2309-0.1026
			l0.0513,0.1539h0.4361l0.1026,0.0513l-0.1539,0.1539v0.1026l0.3335,0.0513v0.2052l0.1539,0.0513l0.2822-0.3079l0.2309-0.1026
			v-0.1539l-0.2309,0.1026l-0.1539-0.0513l-0.1026-0.2052l0.1539-0.2052l0.2309-0.0513l0.1026-0.1539l0.1539-0.0513l0.1539-0.1026
			l0.0513,0.0513l-0.2822,0.2565l0.2309,0.1026l-0.0513,0.3592l-0.1539,0.1026l0.3335,0.1539l0.3335,0.0513l0.4361,0.2052
			l0.1539,0.1026h0.1539l0.2309,0.1026l0.1539,0.2052l0.0513,0.1539l-0.2309,0.2565l-0.2309,0.0513l-0.2822,0.1539L34.7771,16.47
			l-0.5644-0.1539l-0.4361,0.1026l-0.2822,0.1539l-0.2309,0.3078l-0.5644,0.0513l-0.0513,0.3078l-0.4361,0.1026l-0.2309,0.4105
			l0.2309,0.1539l-0.1539,0.2565l0.2822,0.1539l0.2822,0.3592l0.3335-0.0513l0.3335,0.1539l0.2309-0.1026v-0.1539l0.3335-0.0513
			l0.2822,0.1539l0.4361-0.1539l0.1026-0.2565l0.2822,0.0513l0.1539-0.0513l-0.0513,0.1539l0.1539,0.1539v0.1539l0.1026,0.3078
			l-0.0513,0.3078v0.8209l-0.0513,0.2052L35.162,20.472l-0.1026,0.1539l-0.2309,0.0513l-0.2822-0.0513l-0.0513,0.1539
			l-0.1026-0.2052h-0.2309l-0.2822,0.1026l-0.1026,0.1026l-0.2309,0.1539l-0.1539-0.0513l-0.3335-0.0513h-0.3335l-0.4361,0.0513
			l-0.1026-0.1026h-0.3335L31.75,20.7286h0.1026l-0.1539-0.1539h-0.4361l-0.2309,0.1026l-0.2309,0.2052l-0.0513,0.2052
			l0.1026,0.3078l-0.1026,0.2052l-0.1539,0.1026l-0.3848-0.1539l-0.5644-0.1539l-0.3335-0.0513l-0.2309-0.3592l-0.4874-0.1539
			l-0.2309-0.0513l-0.1539,0.0513l-0.3848-0.1026l-0.1026-0.0513l-0.1026-0.2052h-0.1539l-0.1026-0.2052l0.2309-0.2052v-0.3592
			l-0.1026-0.1026v-0.2052l0.1539-0.2052L27.594,19.138l-0.2822,0.1539v-0.2052l-0.2309-0.0513l-0.3848,0.2052h-0.2309
			l-0.1026-0.0513h-0.4105l-0.3335,0.1539l-0.1539-0.0513l-0.5644,0.0513l-0.5644,0.0513l-0.3335,0.1026l-0.2309,0.1539
			l-0.3848,0.0513l-0.3335,0.2052h-0.1539l-0.3335-0.1026h-0.3335l-0.1539-0.2052h-0.2309l-0.1026,0.2565l-0.2822,0.4105
			l-0.2822,0.1539l-0.3848,0.1539l-0.2309,0.2309l-0.0513,0.2052l-0.1539,0.3078v0.5131l-0.3335,0.3335l-0.1539,0.1026
			l-0.3335,0.2565h-0.3335l-0.2565,0.1539l-0.2822,0.3592l-0.2822,0.1026l-0.1539,0.2565l-0.0513,0.2052l-0.1026,0.2052
			l-0.1026,0.1026l-0.2309,0.2309l-0.1796,0.3335v0.1539l-0.1539,0.1539l-0.1796,0.1026l-0.0513,0.2052l-0.0513,0.1539
			l0.1539,0.2052l0.0513,0.2052l-0.0513,0.2052v0.6414l-0.1026,0.3592l-0.1026,0.2052v0.2052l-0.1026,0.2052l-0.1026,0.2052
			l-0.1539,0.0513l0.1539,0.1539l0.1026,0.3592l-0.0513,0.1539l0.0513,0.3078v0.1026l0.1026,0.1026v0.0513l0.0513,0.1026
			l0.1539,0.0513l0.2309,0.2052l0.1026,0.1026l0.0513,0.1026l0.0513,0.2052l0.1026,0.1026l0.1026,0.0513l0.1539,0.1539
			l0.1539,0.2565l0.0513,0.3078l0.0513,0.1539l0.2309,0.2565l0.2822,0.2052l0.1026,0.0513l0.2822,0.2565l0.3335,0.2565
			l0.3335,0.3078l0.3848,0.2052h0.1539l0.3848-0.1026l0.2822-0.1026l0.4874-0.0513h0.2822l0.2822,0.1026h0.1539l0.3848,0.1026
			l0.3848-0.1026l0.2309-0.1026l0.667-0.2052l0.4361,0.077l0.3335-0.0513h0.7183l0.2822,0.2565l0.1026,0.2565l0.2309,0.2565h0.3335
			l0.1539-0.1026h0.1539l0.4361-0.1539v0.1026l0.1026,0.0513l0.1026,0.1539l0.1539,0.0513l0.1539,0.2565L27.44,33.3504
			l-0.1026,0.4618l0.0513,0.0513l-0.0513,0.2565l-0.1026,0.2565l-0.1026,0.1026v0.1026l0.2822,0.3592l0.2822,0.3078l0.4361,0.3592
			l0.3335,0.3592l0.1026,0.2565l0.0513,0.1026l-0.0513,0.0513l0.2309,0.2052l0.0513,0.2052l0.1026,0.3078l-0.1026,0.1539v0.0513
			l0.1026,0.2052l0.1026,0.2052l0.1026,0.1026v0.2052L29.005,38.43l-0.1026,0.1539l-0.2309,0.2052l-0.1026,0.1539l-0.1539,0.3078
			l-0.0513,0.1539l-0.1539,0.3078l-0.0513,0.2565v0.4618l0.2822,0.2565l0.0513,0.2052l0.1539,0.3592l0.1539,0.2052l0.1026,0.1026
			l0.0513,0.1539v0.3592l0.0513,0.4105l0.0513,0.2052l0.0513,0.2565l0.1026,0.1539l0.2309,0.1539l0.2309,0.3078l0.1026,0.2052
			l0.1539,0.2052l0.1026,0.1539l-0.1026,0.0513l0.0513,0.1539l-0.0513,0.1539l0.0513,0.0513v0.2052l0.1026,0.1026h0.1026
			l0.1026,0.0513h0.1539l0.2309-0.1026l0.2822-0.0513l0.3848-0.1539h0.1026l0.2309-0.0513h0.3335l0.1539-0.0513h0.1539
			l0.0513-0.0513l0.1539-0.0513l0.3848-0.1539l0.2822-0.1539l0.2822-0.2052l0.4361-0.3078l0.2309-0.2052l0.1026-0.1539
			l0.1539-0.1539l0.0513-0.0513l0.2822-0.1539l0.1026-0.1539l0.1026-0.2052l0.1539-0.2052l0.0513-0.1539H35.085v-0.1026
			l0.1539-0.1539l0.4361-0.2565l0.2822-0.1539l0.1539-0.1539l0.1026-0.1539l-0.0513-0.0513l0.1026-0.1539l0.1026-0.3078
			l-0.0513,0.0513V40.277l0.0513-0.2052l0.1539-0.1026l0.2822-0.2565l0.1539-0.1026l0.4361-0.4105l0.3848-0.2565l0.3335-0.2052
			l0.2309-0.2565l0.1539-0.2565l0.1539-0.2565v-0.1539l0.0513-0.5131v-0.3078l0.0513-0.3592v-0.1539l-0.1026-0.0513l-0.1026-0.3078
			l-0.1026-0.2052l0.0513-0.1539v-0.1026l0.1026-0.2565v-0.1026l-0.2309-0.0513v-0.2052l0.1539-0.5131l0.1539-0.1539l0.0513-0.2565
			l0.1026-0.1539l0.0513-0.2565l0.1026-0.0513l0.1026-0.1539l0.2309-0.2052l0.0513-0.1026l0.0513-0.2052l0.3335-0.5644
			l0.2822-0.3592l0.4361-0.5131l0.4361-0.5131l0.3335-0.6927l0.2309-0.5131l0.2309-0.6927l0.1026-0.5644l0.1026-0.5131V27.296
			l0.0513-0.1539l-0.0513-0.2052v-0.3592l-0.1026,0.0513l-0.1026,0.2052l-0.1539,0.1026l-0.1026,0.1539l-0.1026,0.0513
			l-0.1539,0.0513l-0.1026,0.1026l-0.1026,0.1026l-0.2822,0.2052l-0.3335,0.1539l-0.2822,0.2052l-0.1539,0.0513l-0.1539-0.1026
			l-0.0513-0.1539l-0.1026-0.0513l-0.1539-0.0513l0.1539-0.1539v-0.1539l-0.1026-0.1026l-0.1539-0.0513l-0.1026-0.1026
			l-0.2309-0.1539l-0.2309-0.1539l-0.4874-0.2565l-0.2309-0.1539l-0.1539-0.3592l-0.2309-0.4618l-0.2309-0.1026l-0.1539-0.0513
			l-0.1539-0.4618l-0.1026-0.4105l0.0513-0.1026l-0.1539-0.3592l-0.1026-0.0513l-0.4361-0.2565l-0.0513-0.2565l0.0513-0.1026
			l-0.3848-0.3592l-0.1539-0.2052l-0.1539-0.2052l-0.3848-0.5644l-0.2822-0.3592l-0.2309-0.4105v-0.0513l0.3848,0.5131
			l0.1539,0.1539l0.1026,0.1026l0.0513-0.0513l0.0513-0.2052v-0.3078l0.0513-0.1539v0.5644l0.1539-0.0513l0.2309,0.2565
			l0.2822,0.2565l0.2309,0.2565l0.1026,0.0513l0.1026,0.2052v0.1026l0.1539,0.2052l0.1539,0.0513l0.1539,0.1026l0.2822,0.4105
			l0.0513,0.2565l0.1026,0.2565l0.2822,0.3078h0.1539l0.2822,0.2052l0.1539,0.3078l0.2309,0.3078l0.1539,0.1026l0.0513,0.1539
			l0.1026,0.1026l0.0513,0.1539l0.0513,0.1539v0.1026l0.0513,0.1539l-0.0513,0.0513l0.1026,0.1539l0.1026,0.2565l0.0513,0.1026
			v0.2052l0.1026,0.2052l0.2309-0.0513l0.1026-0.1026l0.1539-0.0513l0.0513-0.1026l0.0513-0.0513l0.0513-0.1026l0.0513-0.0513
			l0.2309-0.1026l0.1539-0.1539l0.1539-0.2052h0.1026l0.1026-0.0513l0.2309-0.3592l0.3848-0.3592l0.2309-0.2565v-0.3592
			l0.1539-0.2052l0.1026-0.0513l0.1539-0.2052l0.1539-0.0513l0.1026-0.1539l-0.0513-0.1539l0.0513-0.1539l0.1539-0.0513
			l0.0513-0.1026v-0.2052l0.1026-0.2052l0.1026-0.0513v-0.0513l-0.1026-0.2565v-0.3078l0.1026-0.0513v-0.3078l0.0513-0.1539v-0.3592
			l-0.0513-0.1026h-0.1026l-0.0513-0.2565l-0.1539-0.1539h-0.1539l-0.1539,0.0513l-0.1539-0.0513l-0.2309-0.2052l0.2566-0.4618
			v-0.1026l-0.0513-0.1539h-0.0513v0.4105l-0.1026,0.3078l-0.0513,0.3592l-0.1539,0.0513l-0.2309,0.1026l-0.1539,0.1539
			l-0.0513-0.1026l-0.0513,0.0513l-0.1026-0.1026v-0.2565l-0.0513-0.2052l-0.1026-0.1026l-0.0513,0.0513v0.2052l0.1026,0.2565
			l-0.0513-0.1026l-0.0513-0.1026l-0.1539-0.0513l-0.0513-0.1026v-0.1539l-0.0513-0.1539l-0.2822-0.1026l-0.1026-0.1026
			l-0.1539-0.0513l-0.2309-0.3078l-0.1539-0.2565V19.959l-0.1026-0.1539l0.1539-0.0513l0.0513-0.2052l0.2309,0.0513l0.1026-0.1026
			l0.3848,0.4105l0.2822,0.3592h0.2822l0.3335,0.2052h0.3335l0.1539-0.3078l0.1539-0.1539h0.1026l0.2822,0.4105l0.2822-0.1026
			l0.2822-0.0513l0.4361-0.1026l0.2822-0.2052l0.2822-0.2052l0.2822-0.3078l0.2822,0.2052l0.0769,0.2052h0.1539l0.3335,0.1539
			l0.1026,0.1026v0.2052l0.3848,0.2565l0.1026-0.0513l0.1026-0.4105l0.1539,0.3078l0.1539,0.4618l0.2309,0.4618l0.2822,0.6927
			l0.2822,0.4105l0.1026,0.2052l0.1539,0.4105l0.1539,0.3078l0.0513,0.1026l0.1026,0.3078l0.1539,0.4618l0.1539,0.2052v0.4105
			L47.6812,27.3474L47.6812,27.3474z M33.4688,30.5028l-0.2822-0.1539h0.0513L33.4688,30.5028z"/>
	</g>
</g>
</svg>
