<?xml version="1.0" encoding="utf-8"?>
<!-- Generator: Adobe Illustrator 27.6.1, SVG Export Plug-In . SVG Version: 6.00 Build 0)  -->
<svg version="1.1" xmlns="http://www.w3.org/2000/svg" xmlns:xlink="http://www.w3.org/1999/xlink" x="0px" y="0px"
	 viewBox="0 0 50 50" style="enable-background:new 0 0 50 50;" xml:space="preserve">
<style type="text/css">
	.st0{fill:#FFFFFF;}
	.st1{fill:#D1D3D4;}
	.st2{fill:#DE2910;}
</style>
<g id="Layer_2">
	<g id="Layer_2_00000009549042599903514300000009786033506733176249_">
		<g>
			<circle class="st0" cx="24.9998" cy="25.0002" r="24.7525"/>
			<path class="st1" d="M25,50C11.215,50,0,38.785,0,25S11.215,0,25,0s25,11.215,25,25S38.785,50,25,50z M25,0.495
				C11.4881,0.495,0.495,11.4881,0.495,25S11.4881,49.505,25,49.505S49.505,38.5119,49.505,25S38.5119,0.495,25,0.495z"/>
		</g>
	</g>
</g>
<g id="Layer_1">
	<g id="XMLID_11324_">
		<g id="XMLID_11349_">
			<path id="XMLID_11350_" class="st2" d="M24.9996,49.5C11.4909,49.5,0.5,38.5092,0.5,24.9995C0.5,11.4908,11.4909,0.5,24.9996,0.5
				C38.5092,0.5,49.5,11.4908,49.5,24.9995C49.5,38.5092,38.5092,49.5,24.9996,49.5z"/>
		</g>
		<g id="XMLID_11325_">
			<g id="XMLID_11344_">
				<polygon id="XMLID_11348_" class="st0" points="24.3689,25.1824 24.3689,25.1824 24.3689,25.1824 				"/>
				<path id="XMLID_11345_" class="st0" d="M21.3412,26.1842c-0.675,0-1.3416-0.132-1.9972-0.3952
					c-0.8698-0.35-1.6907-0.9261-2.3749-1.6667l0.1801-0.1662c0.9161,0.9917,3.3657,3.0425,6.7849,1.3204
					c-3.2632,0.5956-3.8578-2.2308-4.0434-3.2521c-0.1902-1.048-1.9326-3.253-4.2604-2.7627
					c-2.94,0.6944-3.3684-2.1182-3.3684-2.1182c-3.0637,8.0933,6.506,14.0517,11.8661,8.3075
					C23.1899,25.9377,22.2581,26.1842,21.3412,26.1842z M16.1307,24.0771l-0.1717-0.8689l-0.8577-0.2235l0.7737-0.4321
					l-0.0526-0.8837l0.6491,0.602l0.8255-0.3232l-0.3721,0.8033l0.5623,0.6851l-0.88-0.1053L16.1307,24.0771z"/>
			</g>
			<g id="XMLID_11339_">
				<polygon id="XMLID_11343_" class="st0" points="24.9968,25.319 24.9968,25.319 24.9968,25.319 				"/>
				<path id="XMLID_11340_" class="st0" d="M25.1777,25.6311c0.1728,1.0425,0.1191,2.0046-0.1644,2.8772
					c-0.2087,0.6408-0.5401,1.2345-0.9935,1.7765c-0.6011,0.7193-1.4025,1.3223-2.3186,1.7433l-0.1025-0.2225
					c1.2262-0.5642,3.9335-2.2604,3.3527-6.0443c-0.4423,3.2872-3.3139,2.9797-4.3426,2.8403
					c-1.0554-0.1422-3.6907,0.8329-3.9437,3.1985c-0.2484,3.0102-3.0563,2.5494-3.0563,2.5494
					C20.3596,39.7641,28.9838,32.5037,25.1777,25.6311z M20.5194,32.7068l-0.4774,0.7461l-0.1708-0.8689l-0.8578-0.2225
					l0.7738-0.4321l-0.0526-0.8846l0.6491,0.603l0.8246-0.3241l-0.3712,0.8042l0.5623,0.6842L20.5194,32.7068z"/>
			</g>
			<g id="XMLID_11334_">
				<polygon id="XMLID_11338_" class="st0" points="25.319,24.7641 25.319,24.7641 25.319,24.7641 				"/>
				<path id="XMLID_11335_" class="st0" d="M25.6708,24.6884c1.0452,0.157,1.9437,0.506,2.6861,1.0452
					c0.5457,0.3961,1.0074,0.8947,1.3832,1.4931c0.4986,0.7941,0.8236,1.7433,0.9418,2.7442l-0.2437,0.0286
					c-0.158-1.3398-0.9345-4.4395-4.712-5.0563c2.9898,1.4358,1.8089,4.072,1.3592,5.0074
					c-0.4617,0.9603-0.3481,3.7682,1.8227,4.7396c2.7867,1.1662,1.4801,3.6934,1.4801,3.6934
					C37.6247,33.6376,33.3846,23.1916,25.6708,24.6884z M30.645,31.8841l-0.4774,0.7461l-0.1717-0.8689l-0.8569-0.2235l0.773-0.4312
					l-0.0527-0.8846l0.65,0.602l0.8247-0.3232l-0.3722,0.8042l0.5623,0.6842L30.645,31.8841z"/>
			</g>
			<g id="XMLID_11329_">
				<polygon id="XMLID_11333_" class="st0" points="24.8906,24.2849 24.8906,24.2849 24.8906,24.2849 				"/>
				<path id="XMLID_11330_" class="st0" d="M24.9275,23.9266c0.4728-0.9455,1.0822-1.6925,1.8246-2.2318
					c0.5457-0.3961,1.1616-0.6814,1.8476-0.8532c0.9095-0.229,1.9124-0.2447,2.9004-0.048l-0.0481,0.2401
					c-1.3232-0.2641-4.5106-0.4829-6.265,2.9197c2.2899-2.3998,4.4331-0.4626,5.1828,0.2548
					c0.7702,0.735,3.4756,1.4949,5.0711-0.2696c1.9705-2.289,3.9705-0.2659,3.9705-0.2659
					C37.1326,15.3236,25.8878,16.1288,24.9275,23.9266z M32.9912,21.9995l-0.4774,0.7461l-0.1717-0.8689l-0.8569-0.2235
					l0.7738-0.4321l-0.0536-0.8837l0.65,0.602l0.8246-0.3232l-0.3721,0.8033l0.5623,0.6851L32.9912,21.9995z"/>
			</g>
			<path id="XMLID_11326_" class="st0" d="M28.2082,10.5452c-8.6436-0.4127-11.3536,10.53-4.2335,13.8532
				c-0.7536-0.7415-1.2753-1.5522-1.5587-2.4238c-0.2087-0.6417-0.289-1.3167-0.241-2.0222
				c0.0638-0.9354,0.3583-1.8938,0.8513-2.7729l0.2133,0.12c-0.6602,1.1764-1.8532,4.1404,0.8403,6.8606
				c-1.5743-2.9197,0.9298-4.3583,1.844-4.8504c0.9372-0.5051,2.4958-2.844,1.3112-4.9058
				C25.6662,11.8223,28.2082,10.5452,28.2082,10.5452z M24.3153,16.7133l-0.4765,0.7461l-0.1717-0.8689l-0.8578-0.2235
				l0.7738-0.4312l-0.0526-0.8846l0.65,0.602l0.8246-0.3232l-0.3721,0.8042l0.5623,0.6842L24.3153,16.7133z"/>
		</g>
	</g>
</g>
</svg>
