<?xml version="1.0" encoding="utf-8"?>
<!-- Generator: Adobe Illustrator 27.6.1, SVG Export Plug-In . SVG Version: 6.00 Build 0)  -->
<svg version="1.1" xmlns="http://www.w3.org/2000/svg" xmlns:xlink="http://www.w3.org/1999/xlink" x="0px" y="0px"
	 viewBox="0 0 50 50" style="enable-background:new 0 0 50 50;" xml:space="preserve">
<style type="text/css">
	.st0{fill:#FFFFFF;}
	.st1{fill:#D1D3D4;}
	.st2{fill:#CC2A3D;}
	.st3{fill:#426E4D;}
</style>
<g id="Layer_2">
	<g id="Layer_2_00000009549042599903514300000009786033506733176249_">
		<g>
			<circle class="st0" cx="24.9998" cy="25.0002" r="24.7525"/>
			<path class="st1" d="M25,50C11.215,50,0,38.785,0,25S11.215,0,25,0s25,11.215,25,25S38.785,50,25,50z M25,0.495
				C11.4881,0.495,0.495,11.4881,0.495,25S11.4881,49.505,25,49.505S49.505,38.5119,49.505,25S38.5119,0.495,25,0.495z"/>
		</g>
	</g>
</g>
<g id="Layer_1">
	<g id="XMLID_11826_">
		<path id="XMLID_11829_" class="st2" d="M25,0.5C14.3524,0.5,5.2715,7.3269,1.9014,16.8327h46.1973
			C44.7277,7.3269,35.6468,0.5,25,0.5z"/>
		<path id="XMLID_11828_" class="st0" d="M49.5,25c0-2.8628-0.4952-5.6111-1.4013-8.1673H1.9014C0.9952,19.3889,0.5,22.1372,0.5,25
			c0,2.8619,0.4952,5.6111,1.4014,8.1664h46.1973C49.0048,30.6111,49.5,27.8619,49.5,25z"/>
		<path id="XMLID_11827_" class="st3" d="M1.9014,33.1664C5.2715,42.6722,14.3524,49.5,25,49.5
			c10.6468,0,19.7277-6.8278,23.0987-16.3336H1.9014z"/>
	</g>
</g>
</svg>
