<?xml version="1.0" encoding="utf-8"?>
<!-- Generator: Adobe Illustrator 27.6.1, SVG Export Plug-In . SVG Version: 6.00 Build 0)  -->
<!DOCTYPE svg PUBLIC "-//W3C//DTD SVG 1.1//EN" "http://www.w3.org/Graphics/SVG/1.1/DTD/svg11.dtd" [
	<!ENTITY ns_extend "http://ns.adobe.com/Extensibility/1.0/">
	<!ENTITY ns_ai "http://ns.adobe.com/AdobeIllustrator/10.0/">
	<!ENTITY ns_graphs "http://ns.adobe.com/Graphs/1.0/">
	<!ENTITY ns_vars "http://ns.adobe.com/Variables/1.0/">
	<!ENTITY ns_imrep "http://ns.adobe.com/ImageReplacement/1.0/">
	<!ENTITY ns_sfw "http://ns.adobe.com/SaveForWeb/1.0/">
	<!ENTITY ns_custom "http://ns.adobe.com/GenericCustomNamespace/1.0/">
	<!ENTITY ns_adobe_xpath "http://ns.adobe.com/XPath/1.0/">
]>
<svg version="1.1" id="Layer_1" xmlns:x="&ns_extend;" xmlns:i="&ns_ai;" xmlns:graph="&ns_graphs;"
	 xmlns="http://www.w3.org/2000/svg" xmlns:xlink="http://www.w3.org/1999/xlink" x="0px" y="0px" viewBox="0 0 50 50"
	 style="enable-background:new 0 0 50 50;" xml:space="preserve">
<style type="text/css">
	.st0{fill:#FFFFFF;}
	.st1{fill:#D1D3D4;}
	.st2{fill:#063895;}
	.st3{fill:#D62827;}
</style>
<metadata>
	<sfw  xmlns="&ns_sfw;">
		<slices></slices>
		<sliceSourceBounds  bottomLeftOrigin="true" height="50" width="50" x="0" y="0"></sliceSourceBounds>
	</sfw>
</metadata>
<g id="Layer_2_00000123403691739621316350000017975105315266775208_">
	<g id="Layer_2_00000009549042599903514300000009786033506733176249_">
		<g>
			<circle class="st0" cx="24.9998" cy="25.0002" r="24.7525"/>
			<path class="st1" d="M25,50C11.215,50,0,38.785,0,25S11.215,0,25,0s25,11.215,25,25S38.785,50,25,50z M25,0.495
				C11.4881,0.495,0.495,11.4881,0.495,25S11.4881,49.505,25,49.505S49.505,38.5119,49.505,25S38.5119,0.495,25,0.495z"/>
		</g>
	</g>
</g>
<g id="XMLID_9424_">
	<path id="XMLID_9428_" class="st2" d="M49.5,24.9986c0,0.9062-0.049,1.8004-0.1487,2.6826
		c-0.1025,0.9755-0.2679,1.9362-0.4868,2.8738C46.3417,41.3963,36.596,49.5005,24.9982,49.5005c-0.873,0-1.733-0.0462-2.5819-0.1358
		c-0.9764-0.1025-1.9334-0.2623-2.872-0.4757c-1.8789-0.4295-3.6775-1.0762-5.3642-1.9122
		c-0.9987-0.4914-1.9557-1.0485-2.8721-1.6711c-5.04-3.4096-8.7508-8.6446-10.1725-14.7506
		c-0.2189-0.9376-0.3843-1.8983-0.4868-2.8738C0.548,26.799,0.5,25.9048,0.5,24.9986s0.048-1.7986,0.1487-2.6798
		c0.1025-0.9764,0.2679-1.9362,0.4868-2.8747C2.5572,13.3389,6.268,8.1012,11.308,4.6934c0.9164-0.6217,1.8734-1.1787,2.8721-1.6711
		c1.6867-0.8351,3.4853-1.4817,5.3642-1.9113c0.9385-0.2134,1.8956-0.3732,2.872-0.4757c0.8489-0.0896,1.709-0.1358,2.5819-0.1358
		c11.5978,0,21.3435,8.1042,23.8663,18.9445c0.2189,0.9385,0.3843,1.8983,0.4868,2.8747C49.451,23.2001,49.5,24.0924,49.5,24.9986z"
		/>
	<g id="XMLID_9425_">
		<path id="XMLID_9427_" class="st0" d="M49.5,24.9986c0,0.9062-0.049,1.8004-0.1487,2.6826
			c-0.1025,0.9755-0.2679,1.9362-0.4868,2.8738H22.4162v18.8096c-0.9764-0.1025-1.9334-0.2623-2.872-0.4757
			c-1.8789-0.4295-3.6775-1.0762-5.3642-1.9122c-0.9987-0.4914-1.9557-1.0485-2.8721-1.6711V30.555H1.1355
			c-0.2189-0.9376-0.3843-1.8983-0.4868-2.8738C0.548,26.799,0.5,25.9048,0.5,24.9986s0.048-1.7986,0.1487-2.6798
			c0.1025-0.9764,0.2679-1.9362,0.4868-2.8747H11.308V4.6934c0.9164-0.6217,1.8734-1.1787,2.8721-1.6711
			c1.6867-0.8351,3.4853-1.4817,5.3642-1.9113c0.9385-0.2134,1.8956-0.3732,2.872-0.4757V19.444h26.4482
			c0.2189,0.9385,0.3843,1.8983,0.4868,2.8747C49.451,23.2001,49.5,24.0924,49.5,24.9986z"/>
		<path id="XMLID_9426_" class="st3" d="M49.5,24.9986c0,0.9062-0.049,1.8004-0.1487,2.6826h-29.807v21.2077
			c-1.8789-0.4295-3.6775-1.0762-5.3642-1.9122V27.6812H0.6487C0.548,26.799,0.5,25.9048,0.5,24.9986s0.048-1.7986,0.1487-2.6798
			h13.5313V3.0223c1.6867-0.8351,3.4853-1.4817,5.3642-1.9113v21.2077h29.807C49.451,23.2001,49.5,24.0924,49.5,24.9986z"/>
	</g>
</g>
</svg>
