<?xml version="1.0" encoding="utf-8"?>
<!-- Generator: Adobe Illustrator 27.6.1, SVG Export Plug-In . SVG Version: 6.00 Build 0)  -->
<svg version="1.1" id="Layer_1" xmlns="http://www.w3.org/2000/svg" xmlns:xlink="http://www.w3.org/1999/xlink" x="0px" y="0px"
	 viewBox="0 0 50 50" style="enable-background:new 0 0 50 50;" xml:space="preserve">
<style type="text/css">
	.st0{fill:#FFFFFF;}
	.st1{fill:#D1D3D4;}
	.st2{fill:#F8993A;}
	.st3{fill:#1B8943;}
	.st4{fill:#2A2C7A;}
</style>
<g>
	<circle class="st0" cx="25" cy="25" r="24.8"/>
	<path class="st1" d="M25,50C11.2,50,0,38.8,0,25S11.2,0,25,0s25,11.2,25,25S38.8,50,25,50z M25,0.5C11.5,0.5,0.5,11.5,0.5,25
		s11,24.5,24.5,24.5s24.5-11,24.5-24.5S38.5,0.5,25,0.5z"/>
</g>
<g id="XMLID_12936_">
	<g id="XMLID_12943_">
		<path id="XMLID_12946_" class="st0" d="M49.5,25c0,2.9-0.5,5.6-1.4,8.2C44.7,42.7,35.6,49.5,25,49.5S5.3,42.7,1.9,33.2
			C1,30.6,0.5,27.9,0.5,25s0.5-5.6,1.4-8.2C5.3,7.3,14.4,0.5,25,0.5s19.7,6.8,23.1,16.3C49,19.4,49.5,22.1,49.5,25z"/>
		<path id="XMLID_12945_" class="st2" d="M48.1,16.8H1.9C5.3,7.3,14.4,0.5,25,0.5S44.7,7.3,48.1,16.8z"/>
		<path id="XMLID_12944_" class="st3" d="M48.1,33.2C44.7,42.7,35.6,49.5,25,49.5S5.3,42.7,1.9,33.2H48.1z"/>
	</g>
	<g id="XMLID_12937_">
		<path id="XMLID_12942_" class="st4" d="M25.9,25.7C25.9,25.7,25.9,25.7,25.9,25.7C25.9,25.7,25.9,25.7,25.9,25.7
			C25.9,25.7,25.9,25.7,25.9,25.7C25.9,25.7,25.9,25.7,25.9,25.7C25.9,25.7,25.9,25.7,25.9,25.7C25.9,25.7,25.9,25.7,25.9,25.7
			c0.1-0.1,0.1-0.1,0.1-0.1c0,0,0,0,0,0l0.9,0.7l3.1,1.6L27,26l-1-0.4c0,0,0,0,0,0c0,0,0,0,0,0c0,0,0,0,0,0c0,0,0,0,0,0c0,0,0,0,0,0
			c0,0,0,0,0,0c0,0,0,0,0,0c0,0,0,0,0,0c0,0,0,0,0,0c0,0,0,0,0,0l1,0.4l3.4,0.7l-3.3-1.1l-1.1-0.2c0,0,0,0,0,0c0,0,0,0,0,0
			c0,0,0,0,0,0c0,0,0,0,0,0c0,0,0,0,0,0c0,0,0,0,0,0c0,0,0,0,0,0c0,0,0,0,0,0c0,0,0,0,0,0c0,0,0,0,0,0l1.1,0.1l3.5-0.2l-3.5-0.2
			l-1.1,0.1c0,0,0,0,0,0c0,0,0,0,0,0c0,0,0,0,0,0c0,0,0,0,0,0c0,0,0,0,0,0c0,0,0,0,0,0c0,0,0,0,0,0c0,0,0,0,0,0c0,0,0,0,0,0
			c0,0,0,0,0,0l1.1-0.2l3.3-1.1l-3.4,0.7l-1,0.4c0,0,0,0,0,0c0,0,0,0,0,0c0,0,0,0,0,0s0,0,0,0c0,0,0,0,0,0c0,0,0,0,0,0c0,0,0,0,0,0
			c0,0,0,0,0,0c0,0,0,0,0,0c0,0,0,0,0,0l1-0.4l2.9-1.9l-3.1,1.6L26,24.4c0,0,0,0,0,0c0,0,0,0,0,0c0,0,0,0,0,0c0,0,0,0,0,0
			c0,0,0,0,0,0c0,0,0,0,0,0c0,0,0,0,0,0c0,0,0,0,0,0c0,0,0,0,0,0c0,0,0,0,0,0l0.9-0.7L29,21l-2.6,2.3l-0.7,0.9c0,0,0,0,0,0
			c0,0,0,0,0,0c0,0,0,0,0,0c0,0,0,0,0,0c0,0,0,0,0,0c0,0,0,0,0,0c0,0,0,0,0,0c0,0,0,0,0,0c0,0,0,0,0,0c0,0,0,0,0,0l0.7-0.9l1.6-3.1
			L26,23l-0.4,1c0,0,0,0,0,0c0,0,0,0,0,0c0,0,0,0,0,0c0,0,0,0,0,0c0,0,0,0,0,0c0,0,0,0,0,0c0,0,0,0,0,0c0,0,0,0,0,0c0,0,0,0,0,0
			c0,0,0,0,0,0l0.4-1l0.7-3.4l-1.1,3.3l-0.2,1.1c0,0,0,0,0,0c0,0,0,0,0,0c0,0,0,0,0,0c0,0,0,0,0,0c0,0,0,0,0,0c0,0,0,0,0,0
			c0,0,0,0,0,0c0,0,0,0,0,0c0,0,0,0,0,0c0,0,0,0,0,0l0.1-1.1L25,19.3l-0.2,3.5l0.1,1.1c0,0,0,0,0,0c0,0,0,0,0,0c0,0,0,0,0,0
			c0,0,0,0,0,0c0,0,0,0,0,0c0,0,0,0,0,0c0,0,0,0,0,0c0,0,0,0,0,0c0,0,0,0,0,0c0,0,0,0,0,0l-0.2-1.1l-1.1-3.3l0.7,3.4l0.4,1
			c0,0,0,0,0,0c0,0,0,0,0,0c0,0,0,0,0,0c0,0,0,0,0,0c0,0,0,0,0,0c0,0,0,0,0,0c0,0,0,0,0,0c0,0,0,0,0,0c0,0,0,0,0,0c0,0,0,0,0,0
			L24,23l-1.9-2.9l1.6,3.1l0.7,0.9c0,0,0,0,0,0c0,0,0,0,0,0c0,0,0,0,0,0c0,0,0,0,0,0c0,0,0,0,0,0c0,0,0,0,0,0c0,0,0,0,0,0
			c0,0,0,0,0,0c0,0,0,0,0,0c0,0,0,0,0,0l-0.7-0.9L21,21l2.3,2.6l0.9,0.7c0,0,0,0,0,0c0,0,0,0,0,0c0,0,0,0,0,0c0,0,0,0,0,0
			c0,0,0,0,0,0c0,0,0,0,0,0c0,0,0,0,0,0c0,0,0,0,0,0c0,0,0,0,0,0c0,0,0,0,0,0l-0.9-0.7l-3.1-1.6L23,24l1,0.4c0,0,0,0,0,0
			c0,0,0,0,0,0c0,0,0,0,0,0c0,0,0,0,0,0c0,0,0,0,0,0c0,0,0,0,0,0c0,0,0,0,0,0c0,0,0,0,0,0c0,0,0,0,0,0c0,0,0,0,0,0l-1-0.4l-3.4-0.7
			l3.3,1.1l1.1,0.2c0,0,0,0,0,0c0,0,0,0,0,0c0,0,0,0,0,0c0,0,0,0,0,0c0,0,0,0,0,0c0,0,0,0,0,0c0,0,0,0,0,0c0,0,0,0,0,0c0,0,0,0,0,0
			c0,0,0,0,0,0l-1.1-0.1L19.3,25l3.5,0.2l1.1-0.1c0,0,0,0,0,0c0,0,0,0,0,0c0,0,0,0,0,0c0,0,0,0,0,0c0,0,0,0,0,0c0,0,0,0,0,0
			c0,0,0,0,0,0c0,0,0,0,0,0c0,0,0,0,0,0c0,0,0,0,0,0l-1.1,0.2l-3.3,1.1l3.4-0.7l1-0.4c0,0,0,0,0,0c0,0,0,0,0,0c0,0,0,0,0,0
			c0,0,0,0,0,0c0,0,0,0,0,0c0,0,0,0,0,0c0,0,0,0,0,0c0,0,0,0,0,0c0,0,0,0,0,0c0,0,0,0,0,0L23,26l-2.9,1.9l3.1-1.6l0.9-0.7
			c0,0,0,0,0,0c0,0,0,0,0,0c0,0,0,0,0,0c0,0,0,0,0,0c0,0,0,0,0,0c0,0,0,0,0,0c0,0,0,0,0,0c0,0,0,0,0,0c0,0,0,0,0,0c0,0,0,0,0,0
			l-0.9,0.7L21,29l2.6-2.3l0.7-0.9c0,0,0,0,0,0c0,0,0,0,0,0c0,0,0,0,0,0c0,0,0,0,0,0c0,0,0,0,0,0c0,0,0,0,0,0c0,0,0,0,0,0
			c0,0,0,0,0,0c0,0,0,0,0,0c0,0,0,0,0,0l-0.7,0.9l-1.6,3.1L24,27l0.4-1c0,0,0,0,0,0c0,0,0,0,0,0c0,0,0,0,0,0c0,0,0,0,0,0
			c0,0,0,0,0,0c0,0,0,0,0,0c0,0,0,0,0,0c0,0,0,0,0,0c0,0,0,0,0,0c0,0,0,0,0,0l-0.4,1l-0.7,3.4l1.1-3.3l0.2-1.1c0,0,0,0,0,0
			c0,0,0,0,0,0c0,0,0,0,0,0c0,0,0,0,0,0c0,0,0,0,0,0c0,0,0,0,0,0c0,0,0,0,0,0c0,0,0,0,0,0c0,0,0,0,0,0c0,0,0,0,0,0l-0.1,1.1l0.2,3.5
			l0.2-3.5l-0.1-1.1c0,0,0,0,0,0c0,0,0,0,0,0c0,0,0,0,0,0c0,0,0,0,0,0c0,0,0,0,0,0c0,0,0,0,0,0c0,0,0,0,0,0c0,0,0,0,0,0c0,0,0,0,0,0
			c0,0,0,0,0,0l0.2,1.1l1.1,3.3l-0.7-3.4l-0.4-1c0,0,0,0,0,0c0,0,0,0,0,0c0,0,0,0,0,0c0,0,0,0,0,0c0,0,0,0,0,0c0,0,0,0,0,0
			c0,0,0,0,0,0c0,0,0,0,0,0c0,0,0,0,0,0c0,0,0,0,0,0l0.4,1l1.9,2.9l-1.6-3.1L25.6,26c0,0,0,0,0,0c0,0,0,0,0,0c0,0,0,0,0,0
			c0,0,0,0,0,0c0,0,0,0,0,0c0,0,0,0,0,0c0,0,0,0,0,0c0,0,0,0,0,0c0,0,0,0,0,0c0,0,0,0,0,0l0.7,0.9L29,29l-2.3-2.6L25.9,25.7
			C25.9,25.8,25.9,25.8,25.9,25.7C25.9,25.7,25.9,25.7,25.9,25.7z"/>
		<path id="XMLID_12938_" class="st4" d="M25,18.4c-3.6,0-6.6,2.9-6.6,6.6c0,3.6,2.9,6.6,6.6,6.6c3.6,0,6.6-2.9,6.6-6.6
			C31.6,21.4,28.6,18.4,25,18.4z M30.6,26C30.6,26.1,30.6,26.1,30.6,26c0,0.3-0.1,0.6-0.2,0.9c-0.1-0.1-0.3,0-0.4,0.1
			c-0.1,0.1,0,0.3,0.1,0.4c0,0,0,0,0,0c-0.1,0.3-0.3,0.5-0.5,0.8c-0.1-0.1-0.3-0.1-0.4,0c-0.1,0.1-0.1,0.3,0,0.4c0,0,0,0,0,0
			c-0.2,0.2-0.4,0.5-0.7,0.6c-0.1-0.1-0.2-0.2-0.4-0.1c-0.1,0.1-0.2,0.3-0.1,0.4c0,0,0,0,0,0c-0.3,0.2-0.5,0.3-0.8,0.5
			c-0.1-0.1-0.2-0.2-0.3-0.2c-0.2,0-0.2,0.2-0.2,0.4c0,0,0,0,0,0c-0.3,0.1-0.6,0.2-0.9,0.2c0-0.1-0.1-0.3-0.3-0.3
			c-0.2,0-0.3,0.1-0.3,0.3c0,0,0,0,0,0c-0.1,0-0.3,0-0.4,0c-0.2,0-0.3,0-0.5,0c0-0.1-0.1-0.3-0.2-0.3c-0.2,0-0.3,0.1-0.4,0.2
			c0,0,0,0,0,0c-0.3-0.1-0.6-0.1-0.9-0.2c0.1-0.1,0-0.3-0.1-0.4c-0.1-0.1-0.3,0-0.4,0.1c0,0,0,0,0,0c-0.3-0.1-0.5-0.3-0.8-0.5
			c0.1-0.1,0.1-0.3,0-0.4c-0.1-0.1-0.3-0.1-0.4,0c0,0,0,0,0,0c-0.2-0.2-0.5-0.4-0.6-0.7c0.1-0.1,0.2-0.2,0.1-0.4
			c-0.1-0.1-0.3-0.2-0.4-0.1c0,0,0,0,0,0c-0.2-0.3-0.3-0.5-0.5-0.8c0.1-0.1,0.2-0.2,0.2-0.3c0-0.2-0.2-0.2-0.4-0.2c0,0,0,0,0,0
			c-0.1-0.3-0.2-0.6-0.2-0.9c0.1,0,0.3-0.1,0.3-0.3c0-0.2-0.1-0.3-0.3-0.3c0,0,0,0,0,0c0-0.1,0-0.3,0-0.4c0-0.2,0-0.3,0-0.5
			c0.1,0,0.3-0.1,0.3-0.2c0-0.2-0.1-0.3-0.2-0.4c0,0,0,0,0,0c0.1-0.3,0.1-0.6,0.2-0.9c0.1,0.1,0.3,0,0.4-0.1c0.1-0.1,0-0.3-0.1-0.4
			c0,0,0,0,0,0c0.1-0.3,0.3-0.5,0.5-0.8c0.1,0.1,0.3,0.1,0.4,0c0.1-0.1,0.1-0.3,0-0.4c0,0,0,0,0,0c0.2-0.2,0.4-0.5,0.7-0.6
			c0.1,0.1,0.2,0.2,0.4,0.1c0.1-0.1,0.2-0.3,0.1-0.4c0,0,0,0,0,0c0.3-0.2,0.5-0.3,0.8-0.5c0.1,0.1,0.2,0.2,0.3,0.2
			c0.2,0,0.2-0.2,0.2-0.4c0,0,0,0,0,0c0.3-0.1,0.6-0.2,0.9-0.2c0,0.1,0.1,0.3,0.3,0.3c0.2,0,0.3-0.1,0.3-0.3c0,0,0,0,0,0
			c0.1,0,0.3,0,0.4,0c0.2,0,0.3,0,0.5,0c0,0.1,0.1,0.3,0.2,0.3c0.2,0,0.3-0.1,0.4-0.2c0,0,0,0,0,0c0.3,0.1,0.6,0.1,0.9,0.2
			c-0.1,0.1,0,0.3,0.1,0.4c0.1,0.1,0.3,0,0.4-0.1c0,0,0,0,0,0c0.3,0.1,0.5,0.3,0.8,0.5c-0.1,0.1-0.1,0.3,0,0.4
			c0.1,0.1,0.3,0.1,0.4,0c0,0,0,0,0,0c0.2,0.2,0.5,0.4,0.6,0.7c-0.1,0.1-0.2,0.2-0.1,0.4c0.1,0.1,0.3,0.2,0.4,0.1c0,0,0,0,0,0
			c0.2,0.3,0.3,0.5,0.5,0.8c-0.1,0.1-0.2,0.2-0.2,0.3c0,0.2,0.2,0.2,0.4,0.2c0,0,0,0,0,0c0.1,0.3,0.2,0.6,0.2,0.9
			c-0.1,0-0.3,0.1-0.3,0.3c0,0.2,0.1,0.3,0.3,0.3c0,0,0,0,0,0c0,0.1,0,0.3,0,0.4c0,0.2,0,0.3,0,0.5c-0.1,0-0.3,0.1-0.3,0.2
			C30.4,25.8,30.4,26,30.6,26z"/>
	</g>
</g>
</svg>
