<?xml version="1.0" encoding="utf-8"?>
<!-- Generator: Adobe Illustrator 27.6.1, SVG Export Plug-In . SVG Version: 6.00 Build 0)  -->
<svg version="1.1" xmlns="http://www.w3.org/2000/svg" xmlns:xlink="http://www.w3.org/1999/xlink" x="0px" y="0px"
	 viewBox="0 0 50 50" style="enable-background:new 0 0 50 50;" xml:space="preserve">
<style type="text/css">
	.st0{fill:#FFFFFF;}
	.st1{fill:#D1D3D4;}
	.st2{fill:#D90201;}
	.st3{fill:#1F9E42;}
</style>
<g id="Layer_2">
	<g id="Layer_2_00000009549042599903514300000009786033506733176249_">
		<g>
			<circle class="st0" cx="24.9998" cy="25.0002" r="24.7525"/>
			<path class="st1" d="M25,50C11.215,50,0,38.785,0,25S11.215,0,25,0s25,11.215,25,25S38.785,50,25,50z M25,0.495
				C11.4881,0.495,0.495,11.4881,0.495,25S11.4881,49.505,25,49.505S49.505,38.5119,49.505,25S38.5119,0.495,25,0.495z"/>
		</g>
	</g>
</g>
<g id="Layer_1">
	<g id="XMLID_11172_">
		<g id="XMLID_11270_">
			<g id="XMLID_11276_">
				<path id="XMLID_11279_" class="st2" d="M48.0996,33.1656c-0.0277,0.0785-0.0544,0.1543-0.0841,0.23
					c-0.0702,0.2005-0.1487,0.4-0.2245,0.6004c-0.0406,0.0951-0.0784,0.1894-0.1192,0.2836
					c-0.0647,0.1654-0.1321,0.3252-0.2051,0.4868c-0.0702,0.1654-0.1432,0.3279-0.2217,0.4896
					c-0.0296,0.0702-0.0628,0.1432-0.1007,0.2134c-0.0406,0.0951-0.0859,0.1894-0.1349,0.2845
					c-3.9888,8.1337-12.3572,13.7446-22.0086,13.7446c-9.6588,0-18.03-5.6192-22.016-13.7585
					c-0.049-0.0942-0.0951-0.1866-0.1358-0.2808c-0.0268-0.049-0.048-0.1007-0.0702-0.1487
					c-0.0859-0.1811-0.1672-0.363-0.2457-0.5441c-0.073-0.1617-0.1403-0.3215-0.205-0.4868
					c-0.0407-0.0942-0.0786-0.1884-0.1193-0.2836c-0.0757-0.2005-0.1543-0.4-0.2245-0.6004
					c-0.0296-0.0757-0.0573-0.1515-0.0841-0.23H48.0996z"/>
				<path id="XMLID_11278_" class="st0" d="M49.5,24.9995c0,2.8424-0.4868,5.5731-1.3819,8.1125
					c-0.0055,0.0185-0.0111,0.0379-0.0185,0.0536H1.9004c-0.0083-0.0157-0.0139-0.0351-0.0194-0.0536
					C0.9868,30.5726,0.5,27.842,0.5,24.9995c0-2.8415,0.4868-5.5731,1.3838-8.1125c0.0028-0.0185,0.0083-0.037,0.0195-0.0536
					h46.1935c0.0102,0.0166,0.0157,0.0351,0.0185,0.0536C49.0132,19.4265,49.5,22.158,49.5,24.9995z"/>
				<path id="XMLID_11277_" class="st3" d="M48.0968,16.8335H1.9033c0.0239-0.0757,0.0516-0.1543,0.0812-0.23
					c0.1543-0.4268,0.3215-0.8489,0.5025-1.2656c0.0462-0.1081,0.0924-0.2134,0.1404-0.3215
					c0.073-0.1626,0.1487-0.327,0.2273-0.4868c0.0433-0.0951,0.0895-0.1894,0.1357-0.2836
					C6.9811,6.1123,15.3476,0.5014,25.0009,0.5014c9.6515,0,18.017,5.6109,22.0086,13.7446
					c0.0462,0.0942,0.0924,0.1884,0.1349,0.2836c0.0786,0.1598,0.1543,0.3242,0.2272,0.4868
					c0.0517,0.1136,0.1008,0.2272,0.1487,0.3409c0.1783,0.4111,0.3436,0.8268,0.4951,1.2462
					C48.0452,16.6792,48.0719,16.7577,48.0968,16.8335z"/>
			</g>
			<g id="XMLID_11271_">
				<path id="XMLID_11275_" class="st2" d="M28.8696,23.9067c-0.0849-0.3612-0.2134-0.6873-0.3353-0.981
					c-0.5062-1.1759-1.1113-1.7773-1.1113-1.7773s0.2356,0.8092,0.4277,1.9769c0.0822,0.5857,0.157,1.2609,0.1136,1.9556
					c-0.0129,0.3483-0.073,0.6974-0.158,1.0355c-0.0813,0.3409-0.2069,0.6688-0.3714,0.9736
					c-0.1478,0.3159-0.3732,0.5857-0.5902,0.8563c-0.2431,0.2503-0.4896,0.5007-0.7705,0.7048
					c-0.1478,0.1081-0.2984,0.2106-0.4488,0.3085c0.0239-1.7016,0.168-7.1758,0.168-8.1171l-0.8009-0.5256l-0.788,0.5256
					c0,0.9413,0.1441,6.4155,0.1681,8.1171c-0.1506-0.0979-0.3011-0.2005-0.448-0.3085c-0.2817-0.2042-0.5284-0.4545-0.7704-0.7048
					c-0.218-0.2707-0.4434-0.5404-0.5912-0.8563c-0.1644-0.3048-0.2901-0.6328-0.3714-0.9736
					c-0.085-0.3381-0.145-0.6873-0.158-1.0355c-0.0425-0.6947,0.0314-1.3699,0.1136-1.9556
					c0.1921-1.1676,0.4277-1.9769,0.4277-1.9769s-0.6051,0.6014-1.1113,1.7773c-0.1219,0.2938-0.2503,0.6198-0.3353,0.981
					c-0.0896,0.3603-0.1755,0.7501-0.1894,1.1667c-0.0222,0.4138-0.0185,0.8554,0.073,1.2979
					c0.0748,0.4443,0.2347,0.8868,0.4489,1.2997c0.2088,0.4185,0.5071,0.7815,0.8175,1.1094
					c0.3224,0.3169,0.6827,0.5737,1.0402,0.7861c0.1913,0.1173,0.3861,0.2125,0.5801,0.2965
					c-0.3344,0.1478-0.6282,0.2697-0.8563,0.3575c-0.3335,0.1339-0.5265,0.2226-0.5265,0.2226s0.2069,0.0157,0.5737,0.0212
					c0.1829,0.0046,0.4065,0.0037,0.6596-0.0259c0.255-0.0185,0.5441-0.0453,0.8545-0.1164
					c0.0139-0.0018,0.0286-0.0055,0.0426-0.0074c0.0415,0.0924,0.0821,0.1783,0.1172,0.255
					c0.1414,0.2993,0.2356,0.4702,0.2356,0.4702s0.0942-0.1709,0.2356-0.4702c0.0351-0.0767,0.0757-0.1626,0.1173-0.255
					c0.0139,0.0018,0.0286,0.0055,0.0426,0.0074c0.3103,0.0711,0.5994,0.0979,0.8544,0.1164
					c0.2531,0.0296,0.4767,0.0305,0.6606,0.0259c0.3657-0.0055,0.5727-0.0212,0.5727-0.0212s-0.1932-0.0887-0.5265-0.2226
					c-0.2283-0.0878-0.522-0.2097-0.8564-0.3575c0.194-0.0841,0.3889-0.1792,0.5801-0.2965
					c0.3575-0.2125,0.7178-0.4693,1.0402-0.7861c0.3104-0.3279,0.6088-0.691,0.8175-1.1094
					c0.2143-0.4129,0.3741-0.8554,0.4489-1.2997c0.0915-0.4425,0.0961-0.884,0.073-1.2979
					C29.0452,24.6568,28.9592,24.267,28.8696,23.9067z"/>
				<path id="XMLID_11274_" class="st2" d="M20.5448,28.0563c-0.0795-0.1635-0.1368-0.3612-0.2024-0.569
					c-0.0591-0.2115-0.1506-0.4259-0.2115-0.6586c-0.0462-0.2374-0.0988-0.4813-0.1607-0.7261
					c-0.0157-0.2531-0.0517-0.509-0.06-0.7649c0.0268-0.2559-0.0148-0.5182,0.0536-0.7713
					c0.0203-0.1284,0.0333-0.2577,0.0573-0.3843c0.0406-0.1238,0.0712-0.2503,0.1062-0.375
					c0.0628-0.2503,0.1709-0.4905,0.2623-0.727c0.1247-0.2217,0.2107-0.461,0.3427-0.6651
					c0.1182-0.2115,0.2439-0.4065,0.3603-0.5921c0.2439-0.3603,0.4619-0.6688,0.6263-0.8803
					c0.1598-0.2162,0.2614-0.3399,0.2614-0.3399s-0.1561,0.0342-0.412,0.145c-0.2567,0.1062-0.6097,0.2919-0.9921,0.5847
					c-0.3861,0.2873-0.7907,0.6965-1.1418,1.2129c-0.0868,0.1284-0.157,0.2734-0.2382,0.4138
					c-0.0814,0.1404-0.1599,0.2864-0.2079,0.448c-0.0554,0.158-0.1154,0.3169-0.1663,0.4794
					c-0.037,0.1654-0.0619,0.3362-0.0924,0.5062c-0.073,0.3381-0.0322,0.6854-0.0259,1.0217
					c0.0249,0.3344,0.1376,0.6494,0.2023,0.9561c0.1062,0.2938,0.2457,0.5616,0.3658,0.8148
					c0.1266,0.2503,0.3031,0.4517,0.4434,0.6457c0.1376,0.1968,0.2799,0.3621,0.4314,0.4868
					c0.1396,0.1339,0.2707,0.2411,0.376,0.3298c0.2134,0.1755,0.3409,0.2642,0.3409,0.2642s-0.0471-0.157-0.1413-0.4111
					C20.6741,28.374,20.6187,28.2207,20.5448,28.0563z"/>
				<path id="XMLID_11273_" class="st2" d="M31.2686,24.3926c-0.0305-0.17-0.0554-0.3409-0.0924-0.5062
					c-0.0508-0.1626-0.1109-0.3215-0.1663-0.4794c-0.048-0.1617-0.1266-0.3076-0.2078-0.448
					c-0.0813-0.1404-0.1514-0.2854-0.2383-0.4138c-0.351-0.5164-0.7547-0.9256-1.1417-1.2129
					c-0.3825-0.2928-0.7354-0.4785-0.9922-0.5847c-0.2559-0.1109-0.4119-0.145-0.4119-0.145s0.1016,0.1238,0.2613,0.3399
					c0.1644,0.2115,0.3824,0.5201,0.6263,0.8803c0.1164,0.1857,0.242,0.3806,0.3603,0.5921
					c0.1321,0.2042,0.218,0.4434,0.3427,0.6651c0.0924,0.2365,0.1995,0.4767,0.2623,0.727c0.0351,0.1247,0.0656,0.2513,0.1062,0.375
					c0.024,0.1266,0.037,0.2559,0.0573,0.3843c0.0684,0.2531,0.0268,0.5155,0.0536,0.7713c-0.0083,0.2559-0.0443,0.5118-0.06,0.7649
					c-0.0619,0.2448-0.1145,0.4887-0.1607,0.7261c-0.061,0.2328-0.1524,0.4471-0.2115,0.6586
					c-0.0656,0.2078-0.1228,0.4055-0.2023,0.569c-0.0739,0.1644-0.1293,0.3178-0.1774,0.4443
					c-0.0941,0.254-0.1413,0.4111-0.1413,0.4111s0.1275-0.0887,0.3409-0.2642c0.1053-0.0887,0.2365-0.1958,0.376-0.3298
					c0.1515-0.1247,0.2938-0.2901,0.4314-0.4868c0.1404-0.194,0.3169-0.3954,0.4434-0.6457
					c0.1201-0.2531,0.2596-0.521,0.3658-0.8148c0.0647-0.3067,0.1775-0.6217,0.2023-0.9561
					C31.301,25.0781,31.3416,24.7307,31.2686,24.3926z"/>
				<path id="XMLID_11272_" class="st2" d="M24.0208,20.317c0.4582,0,0.8415-0.2984,0.9783-0.7094
					c0.1368,0.4111,0.5201,0.7094,0.9783,0.7094c0.5719,0,1.0346-0.4628,1.0346-1.0346c0-0.1136-0.0231-0.2217-0.0562-0.3233
					c-0.1368,0.412-0.5211,0.7113-0.9784,0.7113c-0.4554,0-0.8369-0.2965-0.9755-0.7048l-0.0028-0.0065l-0.0017,0.0065
					c-0.1386,0.4083-0.5211,0.7048-0.9765,0.7048c-0.4573,0-0.8415-0.2993-0.9783-0.7113
					c-0.0333,0.1016-0.0563,0.2097-0.0563,0.3233C22.9862,19.8542,23.4499,20.317,24.0208,20.317z"/>
			</g>
		</g>
		<g id="XMLID_11173_">
			<g id="XMLID_11223_">
				<g id="XMLID_11263_">
					<rect id="XMLID_11269_" x="28.9435" y="14.246" class="st0" width="4.885" height="0.2836"/>
					<rect id="XMLID_11268_" x="28.9435" y="16.6035" class="st0" width="3.4087" height="0.2836"/>
					<rect id="XMLID_11267_" x="32.8141" y="16.6035" class="st0" width="3.4087" height="0.2836"/>
					<polygon id="XMLID_11266_" class="st0" points="31.2428,15.0155 31.2428,15.2991 32.0686,15.2991 32.0686,15.7185 
						30.7421,15.7185 30.7421,15.2991 30.7421,15.0155 30.4585,15.0155 29.2271,15.0155 28.9435,15.0155 28.9435,15.2991 
						28.9435,16.0021 29.2271,16.0021 29.2271,15.2991 30.4585,15.2991 30.4585,16.0021 30.6756,16.0021 30.7421,16.0021 
						32.0686,16.0021 32.3522,16.0021 32.3522,15.7185 32.3522,15.2991 32.3522,15.0155 32.0686,15.0155 					"/>
					<polygon id="XMLID_11265_" class="st0" points="34.6607,15.991 35.154,15.991 35.4376,15.991 35.9309,15.991 36.2145,15.991 
						36.2145,15.7074 36.2145,14.246 35.9309,14.246 35.9309,15.7074 35.4376,15.7074 35.4376,14.246 35.154,14.246 35.154,15.7074 
						34.6607,15.7074 34.6607,14.246 34.3771,14.246 34.3771,15.0155 33.106,15.0155 32.8224,15.0155 32.8224,15.2991 
						32.8224,15.7074 32.8224,15.991 33.106,15.991 33.8136,15.991 33.8136,15.7074 33.106,15.7074 33.106,15.2991 34.3771,15.2991 
						34.3771,15.7074 34.3771,15.991 					"/>
					<rect id="XMLID_11264_" x="29.701" y="15.7074" class="st0" width="0.2836" height="0.2947"/>
				</g>
				<g id="XMLID_11257_">
					<path id="XMLID_11262_" class="st0" d="M47.1444,14.5296h-3.0336V14.246h2.8988
						C47.0557,14.3403,47.1019,14.4345,47.1444,14.5296z"/>
					<rect id="XMLID_11261_" x="44.1108" y="16.6035" class="st0" width="3.4096" height="0.2836"/>
					<path id="XMLID_11260_" class="st0" d="M48.1153,16.8871h-0.1348v-0.2836h0.035c0.0297,0.0757,0.0564,0.1543,0.0813,0.23
						C48.107,16.8501,48.1125,16.8686,48.1153,16.8871z"/>
					<path id="XMLID_11259_" class="st0" d="M47.5204,15.3573v0.6457h-1.8955V15.3h-1.2306v0.703h-0.2836v-0.9866h1.7986v0.703
						h1.3274V15.3h-0.8277v-0.2836h0.9626C47.4234,15.1301,47.4724,15.2437,47.5204,15.3573z"/>
					<rect id="XMLID_11258_" x="44.8683" y="15.7074" class="st0" width="0.2836" height="0.2947"/>
				</g>
				<g id="XMLID_11250_">
					<rect id="XMLID_11256_" x="36.5276" y="14.246" class="st0" width="4.885" height="0.2836"/>
					<rect id="XMLID_11255_" x="36.5276" y="16.6035" class="st0" width="3.4087" height="0.2836"/>
					<rect id="XMLID_11254_" x="40.3973" y="16.6035" class="st0" width="3.4096" height="0.2836"/>
					<polygon id="XMLID_11253_" class="st0" points="38.8269,15.0155 38.8269,15.2991 39.6527,15.2991 39.6527,15.7185 
						38.3262,15.7185 38.3262,15.2991 38.3262,15.0155 38.0417,15.0155 36.8103,15.0155 36.5276,15.0155 36.5276,15.2991 
						36.5276,16.0021 36.8103,16.0021 36.8103,15.2991 38.0417,15.2991 38.0417,16.0021 38.2597,16.0021 38.3262,16.0021 
						39.6527,16.0021 39.9363,16.0021 39.9363,15.7185 39.9363,15.2991 39.9363,15.0155 39.6527,15.0155 					"/>
					<polygon id="XMLID_11252_" class="st0" points="42.2448,15.991 42.7381,15.991 43.0217,15.991 43.5149,15.991 43.7985,15.991 
						43.7985,15.7074 43.7985,14.246 43.5149,14.246 43.5149,15.7074 43.0217,15.7074 43.0217,14.246 42.7381,14.246 
						42.7381,15.7074 42.2448,15.7074 42.2448,14.246 41.9612,14.246 41.9612,15.0155 40.6892,15.0155 40.4057,15.0155 
						40.4057,15.2991 40.4057,15.7074 40.4057,15.991 40.6892,15.991 41.3977,15.991 41.3977,15.7074 40.6892,15.7074 
						40.6892,15.2991 41.9612,15.2991 41.9612,15.7074 41.9612,15.991 					"/>
					<rect id="XMLID_11251_" x="37.2851" y="15.7074" class="st0" width="0.2827" height="0.2947"/>
				</g>
				<g id="XMLID_11243_">
					<rect id="XMLID_11249_" x="21.3595" y="14.246" class="st0" width="4.885" height="0.2836"/>
					<rect id="XMLID_11248_" x="21.3595" y="16.6035" class="st0" width="3.4087" height="0.2836"/>
					<rect id="XMLID_11247_" x="25.23" y="16.6035" class="st0" width="3.4087" height="0.2836"/>
					<polygon id="XMLID_11246_" class="st0" points="23.6587,15.0155 23.6587,15.2991 24.4845,15.2991 24.4845,15.7185 
						23.158,15.7185 23.158,15.2991 23.158,15.0155 22.8744,15.0155 21.6431,15.0155 21.3595,15.0155 21.3595,15.2991 
						21.3595,16.0021 21.6431,16.0021 21.6431,15.2991 22.8744,15.2991 22.8744,16.0021 23.0915,16.0021 23.158,16.0021 
						24.4845,16.0021 24.7681,16.0021 24.7681,15.7185 24.7681,15.2991 24.7681,15.0155 24.4845,15.0155 					"/>
					<polygon id="XMLID_11245_" class="st0" points="27.0775,15.991 27.5708,15.991 27.8535,15.991 28.3468,15.991 28.6304,15.991 
						28.6304,15.7074 28.6304,14.246 28.3468,14.246 28.3468,15.7074 27.8535,15.7074 27.8535,14.246 27.5708,14.246 
						27.5708,15.7074 27.0775,15.7074 27.0775,14.246 26.7939,14.246 26.7939,15.0155 25.5219,15.0155 25.2383,15.0155 
						25.2383,15.2991 25.2383,15.7074 25.2383,15.991 25.5219,15.991 26.2295,15.991 26.2295,15.7074 25.5219,15.7074 
						25.5219,15.2991 26.7939,15.2991 26.7939,15.7074 26.7939,15.991 					"/>
					<rect id="XMLID_11244_" x="22.1169" y="15.7074" class="st0" width="0.2836" height="0.2947"/>
				</g>
				<g id="XMLID_11236_">
					<rect id="XMLID_11242_" x="13.7754" y="14.246" class="st0" width="4.8858" height="0.2836"/>
					<rect id="XMLID_11241_" x="13.7754" y="16.6035" class="st0" width="3.4087" height="0.2836"/>
					<rect id="XMLID_11240_" x="17.6459" y="16.6035" class="st0" width="3.4087" height="0.2836"/>
					<polygon id="XMLID_11239_" class="st0" points="16.0746,15.0155 16.0746,15.2991 16.9005,15.2991 16.9005,15.7185 
						15.5739,15.7185 15.5739,15.2991 15.5739,15.0155 15.2903,15.0155 14.059,15.0155 13.7754,15.0155 13.7754,15.2991 
						13.7754,16.0021 14.059,16.0021 14.059,15.2991 15.2903,15.2991 15.2903,16.0021 15.5074,16.0021 15.5739,16.0021 
						16.9005,16.0021 17.1841,16.0021 17.1841,15.7185 17.1841,15.2991 17.1841,15.0155 16.9005,15.0155 					"/>
					<polygon id="XMLID_11238_" class="st0" points="19.4935,15.991 19.9867,15.991 20.2703,15.991 20.7627,15.991 21.0463,15.991 
						21.0463,15.7074 21.0463,14.246 20.7627,14.246 20.7627,15.7074 20.2703,15.7074 20.2703,14.246 19.9867,14.246 
						19.9867,15.7074 19.4935,15.7074 19.4935,14.246 19.2099,14.246 19.2099,15.0155 17.9378,15.0155 17.6542,15.0155 
						17.6542,15.2991 17.6542,15.7074 17.6542,15.991 17.9378,15.991 18.6464,15.991 18.6464,15.7074 17.9378,15.7074 
						17.9378,15.2991 19.2099,15.2991 19.2099,15.7074 19.2099,15.991 					"/>
					<rect id="XMLID_11237_" x="14.5329" y="15.7074" class="st0" width="0.2836" height="0.2947"/>
				</g>
				<g id="XMLID_11229_">
					<rect id="XMLID_11235_" x="6.1913" y="14.246" class="st0" width="4.8858" height="0.2836"/>
					<rect id="XMLID_11234_" x="6.1913" y="16.6035" class="st0" width="3.4096" height="0.2836"/>
					<rect id="XMLID_11233_" x="10.0619" y="16.6035" class="st0" width="3.4087" height="0.2836"/>
					<polygon id="XMLID_11232_" class="st0" points="8.4905,15.0155 8.4905,15.2991 9.3173,15.2991 9.3173,15.7185 7.9899,15.7185 
						7.9899,15.2991 7.9899,15.0155 7.7063,15.0155 6.4749,15.0155 6.1913,15.0155 6.1913,15.2991 6.1913,16.0021 6.4749,16.0021 
						6.4749,15.2991 7.7063,15.2991 7.7063,16.0021 7.9233,16.0021 7.9899,16.0021 9.3173,16.0021 9.6009,16.0021 9.6009,15.7185 
						9.6009,15.2991 9.6009,15.0155 9.3173,15.0155 					"/>
					<polygon id="XMLID_11231_" class="st0" points="11.9094,15.991 12.4027,15.991 12.6863,15.991 13.1795,15.991 13.4631,15.991 
						13.4631,15.7074 13.4631,14.246 13.1795,14.246 13.1795,15.7074 12.6863,15.7074 12.6863,14.246 12.4027,14.246 
						12.4027,15.7074 11.9094,15.7074 11.9094,14.246 11.6258,14.246 11.6258,15.0155 10.3538,15.0155 10.0702,15.0155 
						10.0702,15.2991 10.0702,15.7074 10.0702,15.991 10.3538,15.991 11.0623,15.991 11.0623,15.7074 10.3538,15.7074 
						10.3538,15.2991 11.6258,15.2991 11.6258,15.7074 11.6258,15.991 					"/>
					<rect id="XMLID_11230_" x="6.9488" y="15.7074" class="st0" width="0.2836" height="0.2947"/>
				</g>
				<g id="XMLID_11224_">
					<path id="XMLID_11228_" class="st0" d="M3.493,14.246v0.2836H2.8548c0.0433-0.0951,0.0895-0.1894,0.1357-0.2836H3.493z"/>
					<path id="XMLID_11227_" class="st0" d="M2.0168,16.6035v0.2836h-0.133c0.0028-0.0185,0.0083-0.037,0.0195-0.0536
						c0.0239-0.0757,0.0516-0.1543,0.0812-0.23H2.0168z"/>
					<rect id="XMLID_11226_" x="2.4778" y="16.6035" class="st0" width="3.4096" height="0.2836"/>
					<path id="XMLID_11225_" class="st0" d="M5.8781,14.246v1.7441H4.0417V15.3H2.7716v0.4083h0.7057v0.2817H2.487v-0.6522
						c0.0462-0.1081,0.0924-0.2134,0.1404-0.3215h1.4143V14.246h0.2845v1.4623h0.4914V14.246h0.2845v1.4623h0.4924V14.246H5.8781z"
						/>
				</g>
			</g>
			<g id="XMLID_11174_">
				<g id="XMLID_11216_">
					<rect id="XMLID_11222_" x="28.9519" y="33.997" class="st0" width="4.8849" height="0.2836"/>
					<rect id="XMLID_11221_" x="17.6459" y="33.112" class="st0" width="3.4087" height="0.2836"/>
					<rect id="XMLID_11220_" x="13.7754" y="33.112" class="st0" width="3.4087" height="0.2836"/>
					<polygon id="XMLID_11219_" class="st0" points="31.2512,34.7665 31.2512,35.0501 32.0769,35.0501 32.0769,35.4695 
						30.7504,35.4695 30.7504,35.0501 30.7504,34.7665 30.4668,34.7665 29.2354,34.7665 28.9519,34.7665 28.9519,35.0501 
						28.9519,35.753 29.2354,35.753 29.2354,35.0501 30.4668,35.0501 30.4668,35.753 30.6839,35.753 30.7504,35.753 32.0769,35.753 
						32.3605,35.753 32.3605,35.4695 32.3605,35.0501 32.3605,34.7665 32.0769,34.7665 					"/>
					<polygon id="XMLID_11218_" class="st0" points="34.6691,35.741 35.1623,35.741 35.4459,35.741 35.9392,35.741 36.2228,35.741 
						36.2228,35.4574 36.2228,33.997 35.9392,33.997 35.9392,35.4574 35.4459,35.4574 35.4459,33.997 35.1623,33.997 
						35.1623,35.4574 34.6691,35.4574 34.6691,33.997 34.3854,33.997 34.3854,34.7665 33.1143,34.7665 32.8298,34.7665 
						32.8298,35.0501 32.8298,35.4574 32.8298,35.741 33.1143,35.741 33.8219,35.741 33.8219,35.4574 33.1143,35.4574 
						33.1143,35.0501 34.3854,35.0501 34.3854,35.4574 34.3854,35.741 					"/>
					<rect id="XMLID_11217_" x="29.7093" y="35.4574" class="st0" width="0.2836" height="0.2956"/>
				</g>
				<g id="XMLID_11209_">
					<path id="XMLID_11215_" class="st0" d="M47.791,33.9961c-0.0406,0.0951-0.0784,0.1894-0.1192,0.2836h-3.5527v-0.2836H47.791z"
						/>
					<rect id="XMLID_11214_" x="2.4787" y="33.112" class="st0" width="3.4087" height="0.2836"/>
					<path id="XMLID_11213_" class="st0" d="M2.0168,33.112v0.2836H1.9845c-0.0296-0.0757-0.0573-0.1515-0.0841-0.23
						c-0.0083-0.0157-0.0139-0.0351-0.0194-0.0536H2.0168z"/>
					<path id="XMLID_11212_" class="st0" d="M45.9167,35.4695h1.2277c-0.0406,0.0951-0.0859,0.1894-0.1349,0.2845h-1.3764v-0.703
						h-1.2304v0.703h-0.2835v-0.9875h1.7975V35.4695z"/>
					<path id="XMLID_11211_" class="st0" d="M47.2451,35.2561V35.051h-0.8277v-0.2845h1.0494
						C47.3966,34.9318,47.3236,35.0944,47.2451,35.2561z"/>
					<rect id="XMLID_11210_" x="44.8767" y="35.4574" class="st0" width="0.2835" height="0.2956"/>
				</g>
				<g id="XMLID_11202_">
					<rect id="XMLID_11208_" x="36.5359" y="33.997" class="st0" width="4.8849" height="0.2836"/>
					<rect id="XMLID_11207_" x="10.0619" y="33.112" class="st0" width="3.4087" height="0.2836"/>
					<rect id="XMLID_11206_" x="6.1913" y="33.112" class="st0" width="3.4096" height="0.2836"/>
					<polygon id="XMLID_11205_" class="st0" points="38.8353,34.7665 38.8353,35.0501 39.661,35.0501 39.661,35.4695 
						38.3336,35.4695 38.3336,35.0501 38.3336,34.7665 38.0501,34.7665 36.8186,34.7665 36.5359,34.7665 36.5359,35.0501 
						36.5359,35.753 36.8186,35.753 36.8186,35.0501 38.0501,35.0501 38.0501,35.753 38.268,35.753 38.3336,35.753 39.661,35.753 
						39.9446,35.753 39.9446,35.4695 39.9446,35.0501 39.9446,34.7665 39.661,34.7665 					"/>
					<polygon id="XMLID_11204_" class="st0" points="42.2532,35.741 42.7464,35.741 43.03,35.741 43.5233,35.741 43.8069,35.741 
						43.8069,35.4574 43.8069,33.997 43.5233,33.997 43.5233,35.4574 43.03,35.4574 43.03,33.997 42.7464,33.997 42.7464,35.4574 
						42.2532,35.4574 42.2532,33.997 41.9695,33.997 41.9695,34.7665 40.6975,34.7665 40.4139,34.7665 40.4139,35.0501 
						40.4139,35.4574 40.4139,35.741 40.6975,35.741 41.406,35.741 41.406,35.4574 40.6975,35.4574 40.6975,35.0501 
						41.9695,35.0501 41.9695,35.4574 41.9695,35.741 					"/>
					<rect id="XMLID_11203_" x="37.2926" y="35.4574" class="st0" width="0.2835" height="0.2956"/>
				</g>
				<g id="XMLID_11195_">
					<rect id="XMLID_11201_" x="21.3678" y="33.997" class="st0" width="4.8849" height="0.2836"/>
					<rect id="XMLID_11200_" x="25.23" y="33.112" class="st0" width="3.4087" height="0.2836"/>
					<rect id="XMLID_11199_" x="21.3595" y="33.112" class="st0" width="3.4087" height="0.2836"/>
					<polygon id="XMLID_11198_" class="st0" points="23.6671,34.7665 23.6671,35.0501 24.4929,35.0501 24.4929,35.4695 
						23.1663,35.4695 23.1663,35.0501 23.1663,34.7665 22.8827,34.7665 21.6514,34.7665 21.3678,34.7665 21.3678,35.0501 
						21.3678,35.753 21.6514,35.753 21.6514,35.0501 22.8827,35.0501 22.8827,35.753 23.0998,35.753 23.1663,35.753 24.4929,35.753 
						24.7764,35.753 24.7764,35.4695 24.7764,35.0501 24.7764,34.7665 24.4929,34.7665 					"/>
					<polygon id="XMLID_11197_" class="st0" points="27.0859,35.741 27.5782,35.741 27.8618,35.741 28.3551,35.741 28.6387,35.741 
						28.6387,35.4574 28.6387,33.997 28.3551,33.997 28.3551,35.4574 27.8618,35.4574 27.8618,33.997 27.5782,33.997 
						27.5782,35.4574 27.0859,35.4574 27.0859,33.997 26.8023,33.997 26.8023,34.7665 25.5302,34.7665 25.2467,34.7665 
						25.2467,35.0501 25.2467,35.4574 25.2467,35.741 25.5302,35.741 26.2378,35.741 26.2378,35.4574 25.5302,35.4574 
						25.5302,35.0501 26.8023,35.0501 26.8023,35.4574 26.8023,35.741 					"/>
					<rect id="XMLID_11196_" x="22.1253" y="35.4574" class="st0" width="0.2836" height="0.2956"/>
				</g>
				<g id="XMLID_11188_">
					<rect id="XMLID_11194_" x="13.7837" y="33.997" class="st0" width="4.8859" height="0.2836"/>
					<rect id="XMLID_11193_" x="32.8141" y="33.112" class="st0" width="3.4087" height="0.2836"/>
					<rect id="XMLID_11192_" x="28.9435" y="33.112" class="st0" width="3.4087" height="0.2836"/>
					<polygon id="XMLID_11191_" class="st0" points="16.083,34.7665 16.083,35.0501 16.9088,35.0501 16.9088,35.4695 
						15.5823,35.4695 15.5823,35.0501 15.5823,34.7665 15.2987,34.7665 14.0673,34.7665 13.7837,34.7665 13.7837,35.0501 
						13.7837,35.753 14.0673,35.753 14.0673,35.0501 15.2987,35.0501 15.2987,35.753 15.5157,35.753 15.5823,35.753 16.9088,35.753 
						17.1924,35.753 17.1924,35.4695 17.1924,35.0501 17.1924,34.7665 16.9088,34.7665 					"/>
					<polygon id="XMLID_11190_" class="st0" points="19.5018,35.741 19.9951,35.741 20.2787,35.741 20.771,35.741 21.0546,35.741 
						21.0546,35.4574 21.0546,33.997 20.771,33.997 20.771,35.4574 20.2787,35.4574 20.2787,33.997 19.9951,33.997 19.9951,35.4574 
						19.5018,35.4574 19.5018,33.997 19.2182,33.997 19.2182,34.7665 17.9462,34.7665 17.6627,34.7665 17.6627,35.0501 
						17.6627,35.4574 17.6627,35.741 17.9462,35.741 18.6547,35.741 18.6547,35.4574 17.9462,35.4574 17.9462,35.0501 
						19.2182,35.0501 19.2182,35.4574 19.2182,35.741 					"/>
					<rect id="XMLID_11189_" x="14.5412" y="35.4574" class="st0" width="0.2836" height="0.2956"/>
				</g>
				<g id="XMLID_11181_">
					<rect id="XMLID_11187_" x="6.1996" y="33.997" class="st0" width="4.8859" height="0.2836"/>
					<rect id="XMLID_11186_" x="40.3973" y="33.112" class="st0" width="3.4096" height="0.2836"/>
					<rect id="XMLID_11185_" x="36.5276" y="33.112" class="st0" width="3.4087" height="0.2836"/>
					<polygon id="XMLID_11184_" class="st0" points="8.499,34.7665 8.499,35.0501 9.3256,35.0501 9.3256,35.4695 7.9982,35.4695 
						7.9982,35.0501 7.9982,34.7665 7.7146,34.7665 6.4832,34.7665 6.1996,34.7665 6.1996,35.0501 6.1996,35.753 6.4832,35.753 
						6.4832,35.0501 7.7146,35.0501 7.7146,35.753 7.9317,35.753 7.9982,35.753 9.3256,35.753 9.6092,35.753 9.6092,35.4695 
						9.6092,35.0501 9.6092,34.7665 9.3256,34.7665 					"/>
					<polygon id="XMLID_11183_" class="st0" points="11.9177,35.741 12.411,35.741 12.6946,35.741 13.1879,35.741 13.4705,35.741 
						13.4705,35.4574 13.4705,33.997 13.1879,33.997 13.1879,35.4574 12.6946,35.4574 12.6946,33.997 12.411,33.997 12.411,35.4574 
						11.9177,35.4574 11.9177,33.997 11.6341,33.997 11.6341,34.7665 10.3621,34.7665 10.0786,34.7665 10.0786,35.0501 
						10.0786,35.4574 10.0786,35.741 10.3621,35.741 11.0706,35.741 11.0706,35.4574 10.3621,35.4574 10.3621,35.0501 
						11.6341,35.0501 11.6341,35.4574 11.6341,35.741 					"/>
					<rect id="XMLID_11182_" x="6.9571" y="35.4574" class="st0" width="0.2836" height="0.2956"/>
				</g>
				<g id="XMLID_11175_">
					<path id="XMLID_11180_" class="st0" d="M3.5014,33.9961v0.2836H2.3282c-0.0407-0.0942-0.0786-0.1884-0.1193-0.2836H3.5014z"/>
					<path id="XMLID_11179_" class="st0" d="M48.1181,33.112c-0.0055,0.0185-0.0111,0.0379-0.0185,0.0536
						c-0.0277,0.0785-0.0544,0.1543-0.0841,0.23h-0.035V33.112H48.1181z"/>
					<rect id="XMLID_11178_" x="44.1108" y="33.112" class="st0" width="3.4096" height="0.2836"/>
					<path id="XMLID_11177_" class="st0" d="M2.8491,35.4593h0.6383v0.2808H2.9849C2.936,35.6459,2.8898,35.5535,2.8491,35.4593z"/>
					<path id="XMLID_11176_" class="st0" d="M5.8865,33.9961v1.7441H4.05V35.051H2.7789v0.2596
						c-0.0859-0.1811-0.1672-0.363-0.2457-0.5441H4.05v-0.7704h0.2845v1.4632H4.826v-1.4632h0.2845v1.4632h0.4914v-1.4632H5.8865z"
						/>
				</g>
			</g>
		</g>
	</g>
</g>
</svg>
