<?xml version="1.0" encoding="utf-8"?>
<!-- Generator: Adobe Illustrator 27.7.0, SVG Export Plug-In . SVG Version: 6.00 Build 0)  -->
<!DOCTYPE svg PUBLIC "-//W3C//DTD SVG 1.1//EN" "http://www.w3.org/Graphics/SVG/1.1/DTD/svg11.dtd" [
	<!ENTITY ns_extend "http://ns.adobe.com/Extensibility/1.0/">
	<!ENTITY ns_ai "http://ns.adobe.com/AdobeIllustrator/10.0/">
	<!ENTITY ns_graphs "http://ns.adobe.com/Graphs/1.0/">
	<!ENTITY ns_vars "http://ns.adobe.com/Variables/1.0/">
	<!ENTITY ns_imrep "http://ns.adobe.com/ImageReplacement/1.0/">
	<!ENTITY ns_sfw "http://ns.adobe.com/SaveForWeb/1.0/">
	<!ENTITY ns_custom "http://ns.adobe.com/GenericCustomNamespace/1.0/">
	<!ENTITY ns_adobe_xpath "http://ns.adobe.com/XPath/1.0/">
]>
<svg version="1.1" id="Layer_1" xmlns:x="&ns_extend;" xmlns:i="&ns_ai;" xmlns:graph="&ns_graphs;"
	 xmlns="http://www.w3.org/2000/svg" xmlns:xlink="http://www.w3.org/1999/xlink" x="0px" y="0px" width="50px" height="50px"
	 viewBox="0 0 50 50" style="enable-background:new 0 0 50 50;" xml:space="preserve">
<style type="text/css">
	.st0{fill:#FFFFFF;}
	.st1{fill:#D1D3D4;}
	
		.st2{clip-path:url(#SVGID_00000172401778436983358920000012412914958025757119_);fill:#FFFFFF;filter:url(#Adobe_OpacityMaskFilter);}
	
		.st3{clip-path:url(#SVGID_00000172401778436983358920000012412914958025757119_);mask:url(#a_00000039125222657076354520000005370868868147158717_);}
	.st4{fill:#EEEEEE;}
	.st5{fill:#333333;}
	.st6{fill:#6DA544;}
	.st7{fill:#D80027;}
</style>
<metadata>
	<sfw  xmlns="&ns_sfw;">
		<slices></slices>
		<sliceSourceBounds  bottomLeftOrigin="true" height="50" width="50" x="0" y="0"></sliceSourceBounds>
	</sfw>
</metadata>
<g id="Layer_2_00000142873634925117560710000001888913512934112658_">
	<g>
		<circle class="st0" cx="24.9998" cy="25.0002" r="24.7525"/>
		<path class="st1" d="M25,50C11.215,50,0,38.785,0,25S11.215,0,25,0s25,11.215,25,25S38.785,50,25,50z M25,0.495
			C11.4881,0.495,0.495,11.4881,0.495,25S11.4881,49.505,25,49.505S49.505,38.5119,49.505,25S38.5119,0.495,25,0.495z"/>
	</g>
</g>
<g>
	<defs>
		<circle id="SVGID_1_" cx="25" cy="25" r="24.505"/>
	</defs>
	<clipPath id="SVGID_00000006669760542588975840000004072767743293130153_">
		<use xlink:href="#SVGID_1_"  style="overflow:visible;"/>
	</clipPath>
	<defs>
		<filter id="Adobe_OpacityMaskFilter" filterUnits="userSpaceOnUse" x="0.5" y="0.5" width="49" height="49">
			<feColorMatrix  type="matrix" values="1 0 0 0 0  0 1 0 0 0  0 0 1 0 0  0 0 0 1 0"/>
		</filter>
	</defs>
	
		<mask maskUnits="userSpaceOnUse" x="0.5" y="0.5" width="49" height="49" id="a_00000039125222657076354520000005370868868147158717_">
		
			<circle style="clip-path:url(#SVGID_00000006669760542588975840000004072767743293130153_);fill:#FFFFFF;filter:url(#Adobe_OpacityMaskFilter);" cx="25" cy="25" r="24.5"/>
	</mask>
	
		<g style="clip-path:url(#SVGID_00000006669760542588975840000004072767743293130153_);mask:url(#a_00000039125222657076354520000005370868868147158717_);">
		<path class="st4" d="M12.5586,15.6211l12.2309-0.9857L49.5,16.4824v17.0352l-24.3947,3.0912l-12.5467-3.9621V15.6211z"/>
		<path class="st5" d="M0.5,0.5h49v15.9824H10.7402L0.5,0.5z"/>
		<path class="st6" d="M10.7402,33.5176H49.5V49.5h-49L10.7402,33.5176z"/>
		<path class="st7" d="M0.5,0.5v49L25,25L0.5,0.5z"/>
		<path class="st4" d="M10.2234,19.6693l1.3398,2.8137l3.0434-0.6986l-1.359,2.8041l2.4404,1.9332l-3.0434,0.6891l0.0096,3.1199
			l-2.4309-1.9523l-2.4309,1.9523v-3.1295l-3.0338-0.6891l2.4404-1.9141l-1.359-2.8137l3.0434,0.6986L10.2234,19.6693z"/>
	</g>
</g>
</svg>
