<?xml version="1.0" encoding="utf-8"?>
<!-- Generator: Adobe Illustrator 27.6.1, SVG Export Plug-In . SVG Version: 6.00 Build 0)  -->
<!DOCTYPE svg PUBLIC "-//W3C//DTD SVG 1.1//EN" "http://www.w3.org/Graphics/SVG/1.1/DTD/svg11.dtd" [
	<!ENTITY ns_extend "http://ns.adobe.com/Extensibility/1.0/">
	<!ENTITY ns_ai "http://ns.adobe.com/AdobeIllustrator/10.0/">
	<!ENTITY ns_graphs "http://ns.adobe.com/Graphs/1.0/">
	<!ENTITY ns_vars "http://ns.adobe.com/Variables/1.0/">
	<!ENTITY ns_imrep "http://ns.adobe.com/ImageReplacement/1.0/">
	<!ENTITY ns_sfw "http://ns.adobe.com/SaveForWeb/1.0/">
	<!ENTITY ns_custom "http://ns.adobe.com/GenericCustomNamespace/1.0/">
	<!ENTITY ns_adobe_xpath "http://ns.adobe.com/XPath/1.0/">
]>
<svg version="1.1" id="Layer_1" xmlns:x="&ns_extend;" xmlns:i="&ns_ai;" xmlns:graph="&ns_graphs;"
	 xmlns="http://www.w3.org/2000/svg" xmlns:xlink="http://www.w3.org/1999/xlink" x="0px" y="0px" viewBox="0 0 50 50"
	 style="enable-background:new 0 0 50 50;" xml:space="preserve">
<style type="text/css">
	.st0{fill:#FFFFFF;}
	.st1{fill:#D1D3D4;}
	.st2{fill:#03AEC9;}
	.st3{fill:#FDC41B;}
</style>
<metadata>
	<sfw  xmlns="&ns_sfw;">
		<slices></slices>
		<sliceSourceBounds  bottomLeftOrigin="true" height="50" width="50" x="0" y="0"></sliceSourceBounds>
	</sfw>
</metadata>
<g id="Layer_2_00000123403691739621316350000017975105315266775208_">
	<g id="Layer_2_00000009549042599903514300000009786033506733176249_">
		<g>
			<circle class="st0" cx="24.9998" cy="25.0002" r="24.7525"/>
			<path class="st1" d="M25,50C11.215,50,0,38.785,0,25S11.215,0,25,0s25,11.215,25,25S38.785,50,25,50z M25,0.495
				C11.4881,0.495,0.495,11.4881,0.495,25S11.4881,49.505,25,49.505S49.505,38.5119,49.505,25S38.5119,0.495,25,0.495z"/>
		</g>
	</g>
</g>
<g id="XMLID_8997_">
	<g id="XMLID_9069_">
		<path id="XMLID_9096_" class="st2" d="M49.5,25c0,13.51-10.9918,24.4991-24.4982,24.4991c-5.7116,0-10.9734-1.963-15.146-5.2516
			c-0.1561-0.1238-0.3104-0.2513-0.4647-0.3787c-0.0757-0.0619-0.1515-0.1266-0.2272-0.1912
			c-0.0785-0.0628-0.1543-0.1302-0.23-0.1977c-0.0508-0.0434-0.1025-0.0868-0.1515-0.1358
			c-0.1589-0.1349-0.3159-0.2781-0.473-0.4296c-0.1626-0.146-0.3242-0.303-0.4841-0.4628c-0.1921-0.1857-0.3787-0.375-0.5653-0.57
			c-0.1266-0.133-0.254-0.2707-0.3787-0.4083c-0.097-0.1053-0.1912-0.2106-0.2864-0.3196
			c-0.0757-0.0859-0.1515-0.1727-0.2245-0.2596c-0.1543-0.1783-0.3058-0.3621-0.4517-0.5459
			c-0.2808-0.3464-0.5515-0.7002-0.8083-1.0596C2.209,35.2621,0.5,30.3273,0.5,25c0-5.3264,1.709-10.2621,4.6105-14.285
			c0.2596-0.363,0.5302-0.7168,0.8083-1.0632h0.0028c0.146-0.1838,0.2947-0.3649,0.4517-0.5432
			c0.0702-0.0896,0.146-0.1755,0.2245-0.2623C6.692,8.7381,6.7871,8.6328,6.8841,8.5266c0.1247-0.1376,0.2522-0.2753,0.3787-0.4083
			c0.1838-0.194,0.3732-0.3834,0.5626-0.57c0.1598-0.1598,0.3215-0.3141,0.4869-0.4656c0.1542-0.146,0.3112-0.2891,0.4701-0.4268
			c0.049-0.0462,0.1007-0.0924,0.1515-0.1358V6.5183c0.0028,0,0.0028,0,0.0055-0.0028c0.073-0.0656,0.1488-0.1275,0.2245-0.1894
			c0.0757-0.0674,0.1515-0.133,0.23-0.1949C9.5455,6.0038,9.7016,5.88,9.8559,5.7553c4.1726-3.2904,9.4344-5.2544,15.146-5.2544
			C38.5082,0.5009,49.5,11.4937,49.5,25z"/>
		<g id="XMLID_9070_">
			<g id="XMLID_9079_">
				<path id="XMLID_9090_" class="st3" d="M8.969,29.205c-0.1894-0.3917-0.376-0.7815-0.5653-1.1732
					c-0.1432-0.2947-0.2836-0.5903-0.4239-0.885c-0.0407-0.0831-0.0814-0.17-0.122-0.2513c0-0.0055-0.0028-0.0083-0.0055-0.0111
					c-0.1321-0.2836-0.1672-0.6328-0.0434-0.9247C7.9603,25.6032,8.328,25.4,8.7096,25.4951
					c0.2327,0.0591,0.3999,0.1921,0.5301,0.3917c0.1894,0.2919,0.1644,0.6245,0,0.8545c-0.1025,0.1432-0.2272,0.2115-0.4028,0.2272
					c-0.1459,0.0166-0.3168-0.0083-0.4194-0.1238c-0.0462-0.0517-0.073-0.1303-0.0867-0.1949
					c-0.013-0.06-0.0103-0.1219,0.0138-0.1755c0.0517-0.109,0.2623-0.2005,0.3621-0.133c0.1053,0.073,0.1247,0.2457,0.157,0.3215
					c0,0,0.0351-0.0591,0.0379-0.0674c0.0112-0.0296,0.0166-0.0619,0.0212-0.097c0.0055-0.0351,0.0055-0.0702,0.0084-0.1081
					c0-0.0323-0.0056-0.0434,0.0248-0.0517c0.0185-0.0055,0.2217-0.049,0.2217-0.0536c-0.0028-0.0028-0.049-0.1035-0.2466-0.1598
					c-0.0056-0.0647-0.0084-0.133-0.0324-0.1949c-0.0138-0.0323-0.0296-0.0647-0.0517-0.0915
					c-0.0074-0.0111-0.0619-0.0545-0.0619-0.0628c0.0028,0.0379,0.0028,0.0757-0.0055,0.1136
					c-0.0268,0.1007-0.1136,0.1053-0.2023,0.0924c-0.1654-0.0194-0.3224,0.0591-0.4249,0.1894
					c-0.1219,0.1487-0.1644,0.351-0.1487,0.5376c0.0194,0.1737,0.0979,0.3409,0.23,0.4545c0.1515,0.1293,0.365,0.1487,0.5543,0.1838
					c0.0324,0.0055,0.2568,0.0434,0.1895,0.1109c-0.0999,0.0998-0.1377,0.23-0.1377,0.23s0.1589,0.1598,0.0185,0.4083
					c-0.1404,0.2485,0.0813,0.0813,0.3575,0.0055c-0.1247,1.3219,0.7944,1.2757,0.7944,1.2757s-0.6272-0.9866-0.2429-2.1274
					c0.3806-1.1418-0.0166-1.6849-0.23-1.9658C9.805,25.2134,9.8882,25,9.8882,25s-0.0831-0.2134-0.351-0.2836
					c0.2134-0.2845,0.6106-0.8277,0.23-1.9658c-0.3843-1.1418,0.2429-2.1311,0.2429-2.1311s-0.9191-0.0462-0.7944,1.2794
					c-0.2762-0.0757-0.4979-0.2439-0.3575,0.0046c0.1404,0.2494-0.0185,0.4083-0.0185,0.4083s0.0379,0.1303,0.1377,0.23
					c0.0673,0.0674-0.157,0.1053-0.1895,0.1109c-0.1893,0.0351-0.4028,0.0545-0.5543,0.1838
					c-0.1321,0.1109-0.2106,0.2817-0.23,0.4545c-0.0157,0.1866,0.0268,0.3898,0.1487,0.5386
					c0.1025,0.1293,0.2596,0.2078,0.4249,0.1866c0.0887-0.0111,0.1755-0.0055,0.2023,0.0942
					c0.0083,0.0379,0.0083,0.0757,0.0055,0.1136c0-0.0083,0.0545-0.0517,0.0619-0.0619c0.0222-0.0296,0.038-0.06,0.0517-0.0924
					c0.024-0.0619,0.0268-0.1293,0.0324-0.1949c0.1976-0.0563,0.2438-0.1589,0.2466-0.1589c0-0.0055-0.2032-0.0517-0.2217-0.0545
					c-0.0305-0.0111-0.0248-0.0212-0.0248-0.0536c-0.0029-0.0351-0.0029-0.0702-0.0084-0.1062
					c-0.0046-0.0351-0.0101-0.0674-0.0212-0.0998c-0.0028-0.0055-0.0379-0.0647-0.0379-0.0647
					c-0.0323,0.0757-0.0517,0.2485-0.157,0.3187c-0.0998,0.0702-0.3104-0.0212-0.3621-0.1293
					c-0.024-0.0545-0.0268-0.1192-0.0138-0.1755c0.0138-0.0656,0.0406-0.1441,0.0867-0.1949
					c0.1025-0.1164,0.2735-0.1404,0.4194-0.1247c0.1755,0.0166,0.3002,0.0813,0.4028,0.2272c0.1644,0.23,0.1894,0.5626,0,0.8517
					c-0.1303,0.2005-0.2975,0.3353-0.5301,0.3926C8.328,24.6,7.9603,24.3968,7.8088,24.0402
					c-0.1238-0.2919-0.0887-0.6411,0.0434-0.9247c0.0028-0.0028,0.0055-0.0055,0.0055-0.0111
					c0.0406-0.0841,0.0813-0.1672,0.122-0.2513c0.1403-0.2947,0.2807-0.5894,0.4239-0.884c0.1894-0.3926,0.376-0.7843,0.5653-1.1741
					c0.2734-0.5644,0.5515-1.1298,0.8249-1.6951c0.2568-0.5275,0.5681-1.0623,0.5081-1.6711
					c-0.0157-0.146-0.0536-0.2891-0.1136-0.4249c-0.2078-0.4674-0.6808-0.6623-1.1732-0.6623c-1.2545,0-1.6388,0.8489-1.6388,0.8489
					s-0.3815-0.8489-1.6388-0.8489c-0.4896,0-0.9653,0.1949-1.1732,0.6623c-0.06,0.1358-0.0979,0.279-0.1109,0.4249
					c-0.0628,0.6088,0.2513,1.1436,0.5054,1.6711c0.2761,0.5653,0.5543,1.1307,0.8248,1.6951
					c0.1894,0.3898,0.3787,0.7815,0.5681,1.1741c0.1405,0.2947,0.2836,0.5894,0.424,0.884
					c0.0406,0.0841,0.0785,0.1672,0.1192,0.2513C6.898,23.11,6.898,23.1128,6.9007,23.1155
					c0.1349,0.2836,0.1672,0.6328,0.0434,0.9247C6.7954,24.3968,6.425,24.6,6.0435,24.503c-0.2328-0.0573-0.4-0.1921-0.5301-0.3926
					c-0.1895-0.2891-0.1618-0.6217,0-0.8517c0.1052-0.146,0.2299-0.2106,0.4054-0.2272c0.146-0.0157,0.3169,0.0083,0.4194,0.1247
					c0.0435,0.0508,0.0702,0.1293,0.0868,0.1949c0.0102,0.0563,0.0102,0.121-0.0166,0.1755
					c-0.049,0.1081-0.2596,0.1995-0.3592,0.1293c-0.1054-0.0702-0.1276-0.243-0.1599-0.3187c0,0-0.0351,0.0591-0.0379,0.0647
					c-0.0111,0.0323-0.0157,0.0647-0.0212,0.0998c-0.0027,0.036-0.0055,0.0711-0.0055,0.1062
					c-0.0028,0.0323,0.0055,0.0425-0.0248,0.0536c-0.0185,0.0028-0.2217,0.049-0.2217,0.0545c0,0,0.0462,0.1025,0.2438,0.1589
					c0.0083,0.0656,0.0111,0.133,0.0351,0.1949c0.0111,0.0323,0.0296,0.0628,0.049,0.0924
					c0.0074,0.0102,0.0619,0.0536,0.0619,0.0619c0-0.0379-0.0028-0.0757,0.0083-0.1136c0.024-0.0998,0.1136-0.1053,0.2024-0.0942
					c0.1625,0.0212,0.3223-0.0573,0.4249-0.1866c0.1191-0.1487,0.1643-0.352,0.1459-0.5386
					c-0.0165-0.1727-0.0951-0.3436-0.23-0.4545c-0.1515-0.1293-0.3649-0.1487-0.5543-0.1838
					c-0.0296-0.0055-0.254-0.0434-0.1866-0.1109c0.097-0.0998,0.1349-0.23,0.1349-0.23s-0.1589-0.1589-0.0185-0.4083
					c0.1432-0.2485-0.0785-0.0804-0.3547-0.0046c0.1219-1.3256-0.7972-1.2794-0.7972-1.2794s0.6272,0.9893,0.2457,2.1311
					c-0.3834,1.1381,0.0167,1.6812,0.23,1.9658C4.9507,24.7866,4.8675,25,4.8675,25s0.0831,0.2134,0.351,0.2845
					c-0.2133,0.2808-0.6134,0.824-0.23,1.9658c0.3815,1.1408-0.2457,2.1274-0.2457,2.1274S5.662,29.4239,5.54,28.102
					c0.2762,0.0757,0.4979,0.2429,0.3547-0.0055c-0.1404-0.2485,0.0185-0.4083,0.0185-0.4083s-0.0379-0.1303-0.1349-0.23
					c-0.0674-0.0674,0.157-0.1053,0.1866-0.1109c0.1894-0.0351,0.4028-0.0545,0.5543-0.1838
					c0.1349-0.1136,0.2135-0.2808,0.23-0.4545c0.0185-0.1866-0.0268-0.3889-0.1459-0.5376
					c-0.1026-0.1303-0.2624-0.2088-0.4249-0.1894c-0.0888,0.0129-0.1784,0.0083-0.2024-0.0924
					c-0.0111-0.0379-0.0083-0.0757-0.0083-0.1136c0,0.0083-0.0545,0.0517-0.0619,0.0628c-0.0194,0.0268-0.0379,0.0591-0.049,0.0915
					c-0.024,0.0619-0.0268,0.1303-0.0351,0.1949c-0.1976,0.0563-0.2438,0.157-0.2438,0.1598c0,0.0046,0.2032,0.048,0.2217,0.0536
					c0.0304,0.0083,0.0221,0.0194,0.0248,0.0517c0,0.0379,0.0029,0.073,0.0055,0.1081c0.0055,0.0351,0.0102,0.0674,0.0212,0.097
					c0.0028,0.0083,0.0379,0.0674,0.0379,0.0674c0.0323-0.0757,0.0545-0.2485,0.1599-0.3215
					c0.0997-0.0674,0.3103,0.024,0.3592,0.133c0.0268,0.0536,0.0268,0.1155,0.0166,0.1755
					c-0.0166,0.0647-0.0433,0.1432-0.0868,0.1949c-0.1025,0.1155-0.2734,0.1404-0.4194,0.1238
					c-0.1755-0.0157-0.3002-0.0841-0.4054-0.2272c-0.1618-0.23-0.1895-0.5626,0-0.8545c0.1302-0.1995,0.2974-0.3326,0.5301-0.3917
					C6.425,25.4,6.7954,25.6032,6.9442,25.9598c0.1238,0.2919,0.0915,0.6411-0.0434,0.9247
					C6.898,26.8872,6.898,26.89,6.8952,26.8956c-0.0406,0.0813-0.0785,0.1681-0.1192,0.2513
					c-0.1404,0.2947-0.2835,0.5903-0.424,0.885c-0.1894,0.3917-0.3787,0.7815-0.5681,1.1732
					c-0.2706,0.5653-0.5487,1.1279-0.8248,1.6923c-0.2541,0.5275-0.5682,1.066-0.5054,1.6739
					c0.0129,0.146,0.0508,0.2901,0.1109,0.4249c0.2078,0.4674,0.6836,0.6623,1.1732,0.6623c1.2572,0,1.6388-0.8489,1.6388-0.8489
					s0.3843,0.8489,1.6388,0.8489c0.4924,0,0.9653-0.1949,1.1732-0.6623c0.06-0.1349,0.0979-0.279,0.1136-0.4249
					c0.06-0.6078-0.2513-1.1464-0.5081-1.6739C9.5205,30.3329,9.2425,29.7703,8.969,29.205z M5.795,19.6163
					c-0.1949-0.4055-0.4194-0.7954-0.6004-1.2083c-0.1626-0.3658-0.2845-0.812-0.073-1.1852
					c0.1376-0.2457,0.4323-0.3677,0.7141-0.375c0.17-0.0055,0.3428,0.0268,0.4914,0.1109c0.1515,0.0831,0.2734,0.2189,0.3225,0.3834
					c0.0452,0.1543,0.0185,0.3326-0.0897,0.4517C6.449,17.9101,6.2541,17.948,6.122,17.8556
					c-0.0729-0.0508-0.1191-0.1321-0.1432-0.2189c-0.0249-0.0831-0.0277-0.1727-0.0296-0.2623
					c-0.1192,0.0249-0.2226,0.1192-0.255,0.2383c-0.0157,0.0619-0.0129,0.1321-0.0406,0.1949
					c-0.0295,0.0702-0.0776,0.0785-0.146,0.0887c-0.0563,0.0083-0.1081,0.0406-0.1514,0.0813
					c-0.0103,0.0083-0.0915,0.0868-0.0915,0.0979c0.0757,0.1487,0.254,0.1672,0.4,0.1838c0.0056,0.1182,0.0166,0.2217,0.0785,0.3242
					c0.0296,0.049,0.0674,0.0915,0.1109,0.1293c0.0055,0.0055,0.1303,0.0757,0.1275,0.06c-0.0083-0.1764,0.0185-0.3954,0.2078-0.473
					c0.0619-0.0277,0.1515,0.0102,0.2217,0.0046c0.2107-0.0129,0.4-0.1349,0.6143-0.1349c0,0.4674-0.0222,1.2868-0.0222,1.2868
					c-0.0868,0.352-0.3999,0.2845-0.7898,0.2217c0.1007,0.3843,0.5275,0.5977,0.8739,0.6605
					c-0.5136,0.8027,0.2891,1.3219,0.2891,1.3219s0.8055-0.5192,0.2919-1.3219c0.3436-0.0628,0.7733-0.2762,0.8739-0.6605
					c-0.3926,0.0628-0.7058,0.1302-0.7898-0.2217c0,0-0.024-0.8194-0.024-1.2868c0.2134,0,0.4055,0.1219,0.6161,0.1349
					c0.0702,0.0055,0.157-0.0323,0.2217-0.0046c0.1866,0.0776,0.2134,0.2965,0.206,0.473c0,0.0157,0.121-0.0545,0.1293-0.06
					c0.0434-0.0379,0.0785-0.0804,0.1081-0.1293c0.0647-0.1025,0.073-0.206,0.0813-0.3242c0.146-0.0166,0.3242-0.0351,0.4-0.1838
					c0-0.0111-0.0841-0.0896-0.0915-0.0979c-0.0433-0.0406-0.0951-0.073-0.1542-0.0813c-0.0647-0.0102-0.1137-0.0185-0.146-0.0887
					c-0.0249-0.0628-0.0222-0.133-0.0406-0.1949c-0.0323-0.1192-0.133-0.2134-0.2513-0.2383
					c-0.0028,0.0896-0.0083,0.1792-0.0332,0.2623c-0.0241,0.0868-0.0703,0.1681-0.1433,0.2189
					c-0.1293,0.0924-0.327,0.0545-0.4351-0.0619C8.085,17.6746,8.061,17.4963,8.1063,17.342
					c0.0491-0.1644,0.1709-0.3002,0.3196-0.3834c0.1487-0.0841,0.3215-0.1164,0.4951-0.1109
					c0.2808,0.0074,0.5727,0.1293,0.7131,0.375c0.2088,0.3732,0.0868,0.8194-0.0757,1.1852
					C9.3773,18.821,9.153,19.2108,8.958,19.6163c-0.5053,1.0522-0.9921,2.1117-1.4817,3.175
					c-0.024,0.0536-0.0998,0.1561-0.0998,0.2189c0-0.0628-0.0757-0.1654-0.0998-0.2189C6.7899,21.728,6.3003,20.6685,5.795,19.6163z
					 M6.6569,25c0.3686-0.0619,0.7196-0.581,0.7196-0.581S7.7284,24.9381,8.0961,25c-0.3677,0.0619-0.7196,0.582-0.7196,0.582
					S7.0255,25.0619,6.6569,25z M9.6342,32.7771c-0.1404,0.2429-0.4323,0.3677-0.7131,0.376
					c-0.1737,0.0055-0.3464-0.0277-0.4951-0.1109c-0.1487-0.0841-0.2706-0.2217-0.3196-0.3843
					c-0.0453-0.1543-0.0212-0.3353,0.0896-0.4517c0.1081-0.1192,0.3058-0.1543,0.4351-0.0619
					c0.073,0.0517,0.1192,0.1321,0.1433,0.2189c0.0248,0.0841,0.0304,0.1727,0.0332,0.2623
					c0.1182-0.024,0.2189-0.1192,0.2513-0.2383c0.0185-0.0647,0.0157-0.1321,0.0406-0.194c0.0323-0.073,0.0814-0.0785,0.146-0.0896
					c0.059-0.0083,0.1109-0.0406,0.1542-0.0813c0.0074-0.0083,0.0915-0.0887,0.0915-0.097c-0.0757-0.1487-0.254-0.1681-0.4-0.1838
					c-0.0083-0.1192-0.0166-0.2217-0.0813-0.3252c-0.0296-0.048-0.0647-0.0942-0.1081-0.1293
					c-0.0083-0.0055-0.1293-0.0757-0.1293-0.0591c0.0074,0.1755-0.0194,0.3917-0.206,0.473
					c-0.0647,0.0268-0.1515-0.0111-0.2217-0.0055c-0.2106,0.0139-0.4028,0.1321-0.6161,0.1321c0-0.4647,0.024-1.284,0.024-1.284
					c0.0841-0.3538,0.3972-0.2836,0.7898-0.2217c-0.1006-0.3843-0.5302-0.5977-0.8739-0.6596
					c0.5136-0.8037-0.2919-1.3256-0.2919-1.3256s-0.8027,0.5219-0.2891,1.3256c-0.3464,0.0619-0.7732,0.2753-0.8739,0.6596
					c0.3899-0.0619,0.703-0.1321,0.7898,0.2217c0,0,0.0222,0.8194,0.0222,1.284c-0.2143,0-0.4036-0.1182-0.6143-0.1321
					c-0.0702-0.0055-0.1598,0.0323-0.2217,0.0055c-0.1894-0.0813-0.2162-0.2975-0.2078-0.473
					c0.0029-0.0166-0.1219,0.0536-0.1275,0.0591c-0.0434,0.0351-0.0813,0.0813-0.1109,0.1293
					c-0.0619,0.1035-0.0729,0.206-0.0785,0.3252c-0.146,0.0157-0.3242,0.0351-0.4,0.1838c0,0.0083,0.0813,0.0887,0.0915,0.097
					c0.0433,0.0406,0.0951,0.073,0.1514,0.0813c0.0684,0.0111,0.1165,0.0166,0.146,0.0896c0.0277,0.0619,0.0249,0.1293,0.0406,0.194
					c0.0323,0.1192,0.1358,0.2143,0.255,0.2383c0.0018-0.0896,0.0046-0.1783,0.0296-0.2623
					c0.0241-0.0868,0.0703-0.1672,0.1432-0.2189c0.1321-0.0924,0.327-0.0573,0.4379,0.0619
					c0.1082,0.1164,0.1349,0.2975,0.0897,0.4517c-0.0491,0.1626-0.171,0.3002-0.3225,0.3843
					c-0.1486,0.0831-0.3215,0.1164-0.4914,0.1109c-0.2817-0.0083-0.5764-0.133-0.7141-0.376
					c-0.2115-0.3732-0.0896-0.8194,0.073-1.1843c0.1811-0.4138,0.4055-0.8037,0.6004-1.2092
					c0.5053-1.054,0.9949-2.1145,1.4817-3.174c0.024-0.0545,0.0998-0.1598,0.0998-0.2189c0,0.0591,0.0757,0.1644,0.0998,0.2189
					c0.4896,1.0596,0.9764,2.12,1.4817,3.174c0.195,0.4055,0.4194,0.7954,0.6004,1.2092
					C9.721,31.9578,9.8429,32.4039,9.6342,32.7771z"/>
				<path id="XMLID_9085_" class="st3" d="M9.794,13.5805c-0.2734-0.5644-0.5515-1.127-0.8249-1.6923
					c-0.1894-0.3917-0.376-0.7843-0.5653-1.1732c-0.1432-0.2947-0.2836-0.5903-0.4239-0.8877
					C7.9391,9.7441,7.8984,9.66,7.8578,9.576c0-0.0028-0.0028-0.0055-0.0055-0.0083C7.7201,9.284,7.685,8.9358,7.8088,8.6402
					c0.1515-0.3566,0.5192-0.557,0.9008-0.4619C8.9423,8.2374,9.1095,8.3704,9.2397,8.57c0.1894,0.2919,0.1644,0.6226,0,0.8517
					c-0.1025,0.146-0.2272,0.2115-0.4028,0.23C8.6911,9.6656,8.5201,9.6415,8.4176,9.5251c-0.0462-0.049-0.073-0.1275-0.0867-0.1921
					c-0.013-0.06-0.0103-0.1219,0.0138-0.1755c0.0517-0.109,0.2623-0.2005,0.3621-0.133c0.1053,0.073,0.1247,0.2457,0.157,0.3215
					c0,0,0.0351-0.0591,0.0379-0.0674c0.0112-0.0296,0.0166-0.0647,0.0212-0.097c0.0055-0.0351,0.0055-0.0702,0.0084-0.1081
					c0-0.0323-0.0056-0.0434,0.0248-0.0517c0.0185-0.0055,0.2217-0.049,0.2217-0.0563c-0.0028,0-0.049-0.1007-0.2466-0.157
					C8.9256,8.7436,8.9229,8.6734,8.8988,8.6106C8.8851,8.5783,8.8693,8.5487,8.8471,8.5219
					C8.8397,8.5109,8.7852,8.4674,8.7852,8.4564C8.788,8.497,8.788,8.5349,8.7797,8.5728C8.7529,8.6734,8.6661,8.6753,8.5774,8.6651
					C8.412,8.6457,8.255,8.7242,8.1524,8.8517C8.0305,9.0005,7.988,9.2028,8.0037,9.3921c0.0194,0.1737,0.0979,0.3409,0.23,0.4545
					c0.1515,0.1293,0.365,0.1487,0.5543,0.1838c0.0324,0.0055,0.2568,0.0434,0.1895,0.1109
					c-0.0999,0.097-0.1377,0.2272-0.1377,0.2272s0.1589,0.1626,0.0185,0.4111c-0.1404,0.2485,0.0813,0.0813,0.3575,0.0028
					c-0.1247,1.3247,0.7944,1.2785,0.7944,1.2785s-0.6272-0.9866-0.2429-2.1274c0.3806-1.1418-0.0166-1.6849-0.23-1.9685
					c0.2679-0.0684,0.351-0.2817,0.351-0.2817H8.0961c-0.3677,0.06-0.7196,0.582-0.7196,0.582S7.3332,8.2023,7.2629,8.1183
					c-0.1266,0.133-0.254,0.2707-0.3787,0.4083c0.0222,0.036,0.0434,0.0739,0.06,0.1136C7.0679,8.9358,7.0356,9.284,6.9007,9.5676
					C6.898,9.5704,6.898,9.5732,6.8952,9.576C6.8546,9.66,6.8167,9.7441,6.776,9.8272c-0.1404,0.2975-0.2835,0.5931-0.424,0.8877
					c-0.1894,0.3889-0.3787,0.7815-0.5681,1.1732c-0.2706,0.5653-0.5487,1.1279-0.8248,1.6923
					c-0.2541,0.5275-0.5682,1.066-0.5054,1.6739c0.0129,0.1469,0.0508,0.2901,0.1109,0.4249
					c0.2078,0.4674,0.6836,0.6623,1.1732,0.6623c1.2572,0,1.6388-0.8489,1.6388-0.8489s0.3843,0.8489,1.6388,0.8489
					c0.4924,0,0.9653-0.1949,1.1732-0.6623c0.06-0.1349,0.0979-0.2781,0.1136-0.4249C10.3621,14.6465,10.0508,14.1079,9.794,13.5805
					z M9.6342,15.4603c-0.1404,0.2429-0.4323,0.3677-0.7131,0.376c-0.1737,0.0055-0.3464-0.0296-0.4951-0.1109
					c-0.1487-0.0841-0.2706-0.2217-0.3196-0.3843c-0.0453-0.1543-0.0212-0.3353,0.0896-0.4517
					c0.1081-0.1192,0.3058-0.1543,0.4351-0.0619c0.073,0.0517,0.1192,0.1321,0.1433,0.2162
					c0.0248,0.0868,0.0304,0.1755,0.0332,0.2651c0.1182-0.024,0.2189-0.1219,0.2513-0.2383
					c0.0185-0.0647,0.0157-0.1349,0.0406-0.194c0.0323-0.073,0.0814-0.0813,0.146-0.0896c0.059-0.0083,0.1109-0.0406,0.1542-0.0813
					c0.0074-0.0083,0.0915-0.0887,0.0915-0.097c-0.0757-0.1515-0.254-0.1681-0.4-0.1866c-0.0083-0.1164-0.0166-0.2189-0.0813-0.3242
					c-0.0296-0.049-0.0647-0.0924-0.1081-0.1275c-0.0083-0.0083-0.1293-0.0757-0.1293-0.0591
					c0.0074,0.1755-0.0194,0.3917-0.206,0.473c-0.0647,0.0268-0.1515-0.0111-0.2217-0.0055
					c-0.2106,0.0111-0.4028,0.1321-0.6161,0.1321c0-0.4674,0.024-1.2868,0.024-1.2868c0.0841-0.351,0.3972-0.2808,0.7898-0.2217
					c-0.1006-0.3815-0.5302-0.5949-0.8739-0.6568c0.5136-0.8037-0.2919-1.3256-0.2919-1.3256s-0.8027,0.5219-0.2891,1.3256
					c-0.3464,0.0619-0.7732,0.2753-0.8739,0.6568c0.3899-0.0591,0.703-0.1293,0.7898,0.2217c0,0,0.0222,0.8194,0.0222,1.2868
					c-0.2143,0-0.4036-0.121-0.6143-0.1321c-0.0702-0.0055-0.1598,0.0323-0.2217,0.0055c-0.1894-0.0813-0.2162-0.2975-0.2078-0.473
					c0.0029-0.0166-0.1219,0.0508-0.1275,0.0591c-0.0434,0.0351-0.0813,0.0785-0.1109,0.1275
					c-0.0619,0.1053-0.0729,0.2078-0.0785,0.3242c-0.146,0.0185-0.3242,0.0351-0.4,0.1866c0,0.0083,0.0813,0.0887,0.0915,0.097
					c0.0433,0.0406,0.0951,0.073,0.1514,0.0813c0.0684,0.0083,0.1165,0.0166,0.146,0.0896c0.0277,0.0591,0.0249,0.1293,0.0406,0.194
					c0.0323,0.1164,0.1358,0.2143,0.255,0.2383c0.0018-0.0896,0.0046-0.1783,0.0296-0.2651
					c0.0241-0.0841,0.0703-0.1644,0.1432-0.2162c0.1321-0.0924,0.327-0.0573,0.4379,0.0619
					c0.1082,0.1164,0.1349,0.2975,0.0897,0.4517c-0.0491,0.1626-0.171,0.3002-0.3225,0.3843
					c-0.1486,0.0813-0.3215,0.1164-0.4914,0.1109c-0.2817-0.0083-0.5764-0.133-0.7141-0.376
					c-0.2115-0.376-0.0896-0.8194,0.073-1.187c0.1811-0.4111,0.4055-0.8009,0.6004-1.2064c0.5053-1.054,0.9949-2.1145,1.4817-3.1768
					c0.024-0.0517,0.0998-0.157,0.0998-0.2162c0,0.0591,0.0757,0.1644,0.0998,0.2162c0.4896,1.0623,0.9764,2.1228,1.4817,3.1768
					c0.195,0.4055,0.4194,0.7954,0.6004,1.2064C9.721,14.6409,9.8429,15.0843,9.6342,15.4603z M6.6034,8.8517
					C6.6005,8.849,6.6005,8.849,6.5977,8.8462C6.5192,8.933,6.4435,9.0189,6.3733,9.1085c0.0166,0.0129,0.0269,0.0323,0.0351,0.049
					C6.4352,9.2111,6.4352,9.273,6.425,9.333C6.4084,9.3977,6.3817,9.4762,6.3382,9.5251C6.2356,9.6415,6.0676,9.6656,5.9216,9.6517
					H5.9188c-0.2781,0.3464-0.5487,0.7002-0.8083,1.0632c-0.0055,0.776-0.3677,1.3459-0.3677,1.3459S5.662,12.1071,5.54,10.7824
					c0.2762,0.0785,0.4979,0.2457,0.3547-0.0028c-0.1404-0.2485,0.0185-0.4111,0.0185-0.4111s-0.0379-0.1302-0.1349-0.2272
					c-0.0674-0.0674,0.157-0.1053,0.1866-0.1109c0.1894-0.0351,0.4028-0.0545,0.5543-0.1838
					c0.1349-0.1136,0.2135-0.2808,0.23-0.4545C6.7677,9.2028,6.7225,9.0005,6.6034,8.8517z"/>
				<path id="XMLID_9080_" class="st3" d="M9.2157,39.2158c-0.2762-0.0757-0.4979-0.2439-0.3575,0.0046
					c0.1404,0.2494-0.0185,0.4083-0.0185,0.4083s0.0379,0.133,0.1377,0.23c0.0673,0.0674-0.157,0.1053-0.1895,0.1109
					c-0.1893,0.0351-0.4028,0.0545-0.5543,0.1838c-0.1321,0.1136-0.2106,0.2817-0.23,0.4545
					c-0.0157,0.1894,0.0268,0.3898,0.1487,0.5386c0.1025,0.1293,0.2596,0.2078,0.4249,0.1894
					c0.0887-0.0111,0.1755-0.0083,0.2023,0.0915c0.0083,0.0379,0.0083,0.0757,0.0055,0.1136c0-0.0083,0.0545-0.0517,0.0619-0.0619
					c0.0222-0.0277,0.038-0.06,0.0517-0.0924c0.024-0.0619,0.0268-0.1293,0.0324-0.1949c0.1976-0.0563,0.2438-0.1561,0.2466-0.1589
					c0-0.0055-0.2032-0.049-0.2217-0.0545c-0.0305-0.0083-0.0248-0.0185-0.0248-0.0508c-0.0029-0.0379-0.0029-0.0739-0.0084-0.109
					c-0.0046-0.0323-0.0101-0.0674-0.0212-0.097c-0.0028-0.0083-0.0379-0.0674-0.0379-0.0674
					c-0.0323,0.0757-0.0517,0.2485-0.157,0.3215c-0.0998,0.0674-0.3104-0.024-0.3621-0.1321
					c-0.024-0.0545-0.0268-0.1164-0.0138-0.1755c0.0138-0.0656,0.0406-0.1441,0.0867-0.1949
					c0.1025-0.1164,0.2735-0.1404,0.4194-0.1247c0.1755,0.0166,0.3002,0.0841,0.4028,0.2272c0.1644,0.23,0.1894,0.5626,0,0.8545
					c-0.1303,0.2005-0.2975,0.3326-0.5301,0.3917c-0.3816,0.0951-0.7493-0.1081-0.9008-0.4647
					c-0.1238-0.2919-0.0887-0.6411,0.0434-0.9247c0.0028-0.0028,0.0055-0.0055,0.0055-0.0083c0.0406-0.0841,0.0813-0.17,0.122-0.254
					c0.1403-0.2947,0.2807-0.5894,0.4239-0.884c0.1894-0.3926,0.376-0.7815,0.5653-1.1741c0.2734-0.5644,0.5515-1.127,0.8249-1.6923
					c0.2568-0.5275,0.5681-1.0651,0.5081-1.6739c-0.0157-0.146-0.0536-0.2891-0.1136-0.4249
					c-0.2078-0.4674-0.6808-0.6623-1.1732-0.6623c-1.2545,0-1.6388,0.8489-1.6388,0.8489s-0.3815-0.8489-1.6388-0.8489
					c-0.4896,0-0.9653,0.1949-1.1732,0.6623c-0.06,0.1358-0.0979,0.279-0.1109,0.4249c-0.0628,0.6088,0.2513,1.1464,0.5054,1.6739
					c0.2761,0.5653,0.5543,1.1279,0.8248,1.6923c0.1894,0.3926,0.3787,0.7815,0.5681,1.1741
					c0.1405,0.2947,0.2836,0.5894,0.424,0.884c0.0406,0.0841,0.0785,0.17,0.1192,0.254c0.0028,0.0028,0.0028,0.0055,0.0055,0.0083
					c0.1349,0.2836,0.1672,0.6328,0.0434,0.9247c-0.0166,0.0406-0.0379,0.0813-0.0628,0.1164
					c0.1247,0.1376,0.2522,0.2753,0.3787,0.4083c0.0731-0.0841,0.1164-0.146,0.1164-0.146s0.352,0.5192,0.7196,0.581h1.7921
					c0,0-0.0831-0.2134-0.351-0.2836c0.2134-0.2817,0.6106-0.8249,0.23-1.9658c-0.3843-1.1418,0.2429-2.1283,0.2429-2.1283
					S9.091,37.8929,9.2157,39.2158z M7.4762,40.1081c-0.024,0.0536-0.0998,0.1589-0.0998,0.2189c0-0.06-0.0757-0.1654-0.0998-0.2189
					c-0.4868-1.0605-0.9764-2.12-1.4817-3.175c-0.1949-0.4055-0.4194-0.7954-0.6004-1.2064
					c-0.1626-0.3677-0.2845-0.8138-0.073-1.187c0.1376-0.243,0.4323-0.3677,0.7141-0.375c0.17-0.0055,0.3428,0.0268,0.4914,0.1109
					c0.1515,0.0831,0.2734,0.2217,0.3225,0.3834c0.0452,0.1543,0.0185,0.3353-0.0897,0.4517
					c-0.1109,0.1192-0.3058,0.1543-0.4379,0.0619c-0.0729-0.0508-0.1191-0.1321-0.1432-0.2189
					c-0.0249-0.0831-0.0277-0.1727-0.0296-0.2623c-0.1192,0.0249-0.2226,0.1192-0.255,0.2383
					c-0.0157,0.0647-0.0129,0.1321-0.0406,0.1949c-0.0295,0.073-0.0776,0.0785-0.146,0.0887
					c-0.0563,0.0083-0.1081,0.0406-0.1514,0.0813c-0.0103,0.0083-0.0915,0.0896-0.0915,0.097c0.0757,0.1487,0.254,0.1681,0.4,0.1848
					c0.0056,0.1182,0.0166,0.2217,0.0785,0.3242c0.0296,0.049,0.0674,0.0942,0.1109,0.1293c0.0055,0.0055,0.1303,0.0757,0.1275,0.06
					c-0.0083-0.1764,0.0185-0.3926,0.2078-0.4739c0.0619-0.0268,0.1515,0.0111,0.2217,0.0055
					c0.2107-0.0129,0.4-0.1321,0.6143-0.1321c0,0.4647-0.0222,1.284-0.0222,1.284c-0.0868,0.3547-0.3999,0.2845-0.7898,0.2217
					c0.1007,0.3843,0.5275,0.5977,0.8739,0.6605c-0.5136,0.8027,0.2891,1.3247,0.2891,1.3247s0.8055-0.5219,0.2919-1.3247
					c0.3436-0.0628,0.7733-0.2762,0.8739-0.6605c-0.3926,0.0628-0.7058,0.133-0.7898-0.2217c0,0-0.024-0.8194-0.024-1.284
					c0.2134,0,0.4055,0.1192,0.6161,0.1321c0.0702,0.0055,0.157-0.0323,0.2217-0.0055c0.1866,0.0813,0.2134,0.2975,0.206,0.4739
					c0,0.0157,0.121-0.0545,0.1293-0.06c0.0434-0.0351,0.0785-0.0804,0.1081-0.1293c0.0647-0.1025,0.073-0.206,0.0813-0.3242
					c0.146-0.0166,0.3242-0.036,0.4-0.1848c0-0.0074-0.0841-0.0887-0.0915-0.097c-0.0433-0.0406-0.0951-0.073-0.1542-0.0813
					c-0.0647-0.0102-0.1137-0.0157-0.146-0.0887c-0.0249-0.0628-0.0222-0.1302-0.0406-0.1949
					c-0.0323-0.1192-0.133-0.2134-0.2513-0.2383c-0.0028,0.0896-0.0083,0.1792-0.0332,0.2623
					c-0.0241,0.0868-0.0703,0.1681-0.1433,0.2189c-0.1293,0.0924-0.327,0.0573-0.4351-0.0619
					c-0.1109-0.1164-0.1349-0.2975-0.0896-0.4517c0.0491-0.1617,0.1709-0.3002,0.3196-0.3834
					c0.1487-0.0841,0.3215-0.1164,0.4951-0.1109c0.2808,0.0074,0.5727,0.1321,0.7131,0.375
					c0.2088,0.3732,0.0868,0.8194-0.0757,1.187c-0.1811,0.4111-0.4054,0.8009-0.6004,1.2064
					C8.4527,37.9881,7.9658,39.0476,7.4762,40.1081z M6.5192,40.1534c-0.1515-0.1293-0.3649-0.1487-0.5543-0.1838
					c-0.0296-0.0055-0.254-0.0434-0.1866-0.1109c0.097-0.097,0.1349-0.23,0.1349-0.23s-0.1589-0.1589-0.0185-0.4083
					C6.0379,38.9719,5.8162,39.14,5.54,39.2158c0.1219-1.3228-0.7972-1.2766-0.7972-1.2766s0.3621,0.5737,0.3677,1.3496
					c0.2568,0.3593,0.5275,0.7131,0.8083,1.0596c0.146-0.0157,0.3169,0.0083,0.4194,0.1247
					c0.0435,0.0508,0.0702,0.1293,0.0868,0.1949c0.0102,0.0591,0.0102,0.121-0.0166,0.1755
					c-0.0082,0.0185-0.0212,0.0351-0.0379,0.0508c0.073,0.0868,0.1487,0.1737,0.2245,0.2596
					c0.0028-0.0028,0.0055-0.0046,0.0084-0.0074c0.1191-0.1487,0.1643-0.3492,0.1459-0.5386
					C6.7327,40.4351,6.6541,40.267,6.5192,40.1534z"/>
			</g>
			<path id="XMLID_9075_" class="st3" d="M8.8582,43.1741l-0.0757,0.17c0.049,0.049,0.1007,0.0924,0.1515,0.1358
				C8.9339,43.3062,8.8582,43.1741,8.8582,43.1741z M8.9339,43.4798c0.0757,0.0674,0.1515,0.1349,0.23,0.1977
				C9.1399,43.6175,9.0744,43.5094,8.9339,43.4798z M9.4531,42.7094c0-0.0111,0.1598-0.0813,0.1727-0.0868
				c0.1302-0.0619,0.2088-0.1783,0.2623-0.3058H8.0961c0,0-0.1192,0.0351-0.2707,0.1349c0.1598,0.1598,0.3215,0.3168,0.4841,0.4628
				c0.0868-0.0185,0.1755-0.0268,0.2623-0.0212c0.4268,0.0268,0.679,0.1755,0.787,0.4757c0.0508,0.1432,0.0702,0.3298,0.0323,0.4998
				c0.1543,0.1275,0.3085,0.255,0.4647,0.3787C9.9944,43.5122,9.9455,43.2009,9.4531,42.7094z"/>
			<path id="XMLID_9071_" class="st3" d="M9.6258,7.3774C9.6129,7.37,9.4531,7.3017,9.4531,7.2887
				c0.4896-0.4896,0.5413-0.8009,0.4028-1.5334C9.7016,5.88,9.5455,6.0038,9.394,6.1312c0.0351,0.17,0.0157,0.3566-0.0351,0.5007
				c-0.1081,0.2993-0.3603,0.448-0.787,0.473C8.485,7.1104,8.3963,7.1021,8.3123,7.0827C8.1469,7.2342,7.9852,7.3885,7.8254,7.5483
				c0.1515,0.0998,0.2707,0.1349,0.2707,0.1349h1.7921C9.8346,7.5566,9.7561,7.4402,9.6258,7.3774z M8.9395,6.5155
				C9.0744,6.4878,9.1372,6.3853,9.164,6.3262C9.0883,6.3881,9.0125,6.4499,8.9395,6.5155z M8.7824,6.6559l0.0757,0.17
				c0,0,0.0757-0.1321,0.0757-0.3058C8.8831,6.5636,8.8314,6.6098,8.7824,6.6559z"/>
		</g>
	</g>
	<g id="XMLID_8998_">
		<g id="XMLID_9003_">
			<path id="XMLID_9068_" class="st3" d="M35.5364,21.0685c0,3.6433-2.9533,6.5957-6.5957,6.5957s-6.5957-2.9523-6.5957-6.5957
				c0-3.6424,2.9533-6.5947,6.5957-6.5947S35.5364,17.4261,35.5364,21.0685z"/>
			<path id="XMLID_9067_" class="st3" d="M29.4812,13.0622c0,0.2993-0.242,0.5413-0.5404,0.5413
				c-0.2984,0-0.5413-0.242-0.5413-0.5413c0-0.2984,0.5413-2.2558,0.5413-2.2558S29.4812,12.7639,29.4812,13.0622z"/>
			<path id="XMLID_9066_" class="st3" d="M29.4812,13.0622c0,0.2993-0.242,0.5413-0.5404,0.5413
				c-0.2984,0-0.5413-0.242-0.5413-0.5413c0-0.2984,0.5413-2.2558,0.5413-2.2558S29.4812,12.7639,29.4812,13.0622z"/>
			<path id="XMLID_9065_" class="st3" d="M27.9089,13.1112c0.0582,0.2928-0.1321,0.5774-0.4249,0.6355
				c-0.2928,0.0582-0.5774-0.1321-0.6355-0.4249s0.0896-2.3186,0.0896-2.3186S27.8507,12.8184,27.9089,13.1112z"/>
			<path id="XMLID_9064_" class="st3" d="M27.9089,13.1112c0.0582,0.2928-0.1321,0.5774-0.4249,0.6355
				c-0.2928,0.0582-0.5774-0.1321-0.6355-0.4249s0.0896-2.3186,0.0896-2.3186S27.8507,12.8184,27.9089,13.1112z"/>
			<path id="XMLID_9063_" class="st3" d="M26.3764,13.465c0.1136,0.2762-0.0166,0.5921-0.2928,0.7067
				c-0.2762,0.1145-0.5921-0.0166-0.7067-0.2928c-0.1135-0.2762-0.364-2.2909-0.364-2.2909S26.2619,13.1888,26.3764,13.465z"/>
			<path id="XMLID_9062_" class="st3" d="M26.3764,13.465c0.1136,0.2762-0.0166,0.5921-0.2928,0.7067
				c-0.2762,0.1145-0.5921-0.0166-0.7067-0.2928c-0.1135-0.2762-0.364-2.2909-0.364-2.2909S26.2619,13.1888,26.3764,13.465z"/>
			<path id="XMLID_9061_" class="st3" d="M24.9418,14.1116c0.1663,0.2485,0.0999,0.5838-0.1487,0.7501
				c-0.2485,0.1654-0.5838,0.0988-0.7501-0.1496c-0.1663-0.2485-0.8037-2.1764-0.8037-2.1764S24.7764,13.8631,24.9418,14.1116z"/>
			<path id="XMLID_9060_" class="st3" d="M24.9418,14.1116c0.1663,0.2485,0.0999,0.5838-0.1487,0.7501
				c-0.2485,0.1654-0.5838,0.0988-0.7501-0.1496c-0.1663-0.2485-0.8037-2.1764-0.8037-2.1764S24.7764,13.8631,24.9418,14.1116z"/>
			<path id="XMLID_9059_" class="st3" d="M23.6615,15.0252c0.2115,0.2115,0.2115,0.5533,0,0.7649
				c-0.2115,0.2106-0.5533,0.2106-0.7649,0c-0.2105-0.2115-1.2129-1.9778-1.2129-1.9778S23.4499,14.8137,23.6615,15.0252z"/>
			<path id="XMLID_9058_" class="st3" d="M23.6615,15.0252c0.2115,0.2115,0.2115,0.5533,0,0.7649
				c-0.2115,0.2106-0.5533,0.2106-0.7649,0c-0.2105-0.2115-1.2129-1.9778-1.2129-1.9778S23.4499,14.8137,23.6615,15.0252z"/>
			<path id="XMLID_9057_" class="st3" d="M22.5834,16.1716c0.2485,0.1654,0.3159,0.5016,0.1496,0.7492
				c-0.1663,0.2485-0.5016,0.3159-0.7501,0.1497c-0.2484-0.1663-1.575-1.7034-1.575-1.7034S22.3359,16.0053,22.5834,16.1716z"/>
			<path id="XMLID_9056_" class="st3" d="M22.5834,16.1716c0.2485,0.1654,0.3159,0.5016,0.1496,0.7492
				c-0.1663,0.2485-0.5016,0.3159-0.7501,0.1497c-0.2484-0.1663-1.575-1.7034-1.575-1.7034S22.3359,16.0053,22.5834,16.1716z"/>
			<path id="XMLID_9055_" class="st3" d="M21.7502,17.5055c0.2762,0.1145,0.4074,0.4305,0.2928,0.7067
				c-0.1145,0.2753-0.4305,0.4065-0.7067,0.2919c-0.2753-0.1136-1.8771-1.3625-1.8771-1.3625S21.4749,17.391,21.7502,17.5055z"/>
			<path id="XMLID_9054_" class="st3" d="M21.7502,17.5055c0.2762,0.1145,0.4074,0.4305,0.2928,0.7067
				c-0.1145,0.2753-0.4305,0.4065-0.7067,0.2919c-0.2753-0.1136-1.8771-1.3625-1.8771-1.3625S21.4749,17.391,21.7502,17.5055z"/>
			<path id="XMLID_9053_" class="st3" d="M21.1932,18.9771c0.2928,0.0582,0.4831,0.3427,0.4249,0.6355
				c-0.0582,0.2928-0.3427,0.4831-0.6355,0.4249c-0.2928-0.0582-2.1071-0.9709-2.1071-0.9709S20.9003,18.918,21.1932,18.9771z"/>
			<path id="XMLID_9052_" class="st3" d="M21.1932,18.9771c0.2928,0.0582,0.4831,0.3427,0.4249,0.6355
				c-0.0582,0.2928-0.3427,0.4831-0.6355,0.4249c-0.2928-0.0582-2.1071-0.9709-2.1071-0.9709S20.9003,18.918,21.1932,18.9771z"/>
			<path id="XMLID_9051_" class="st3" d="M20.9345,20.5281c0.2984,0,0.5404,0.242,0.5404,0.5404
				c0,0.2993-0.242,0.5413-0.5404,0.5413c-0.2992,0-2.2568-0.5413-2.2568-0.5413S20.6353,20.5281,20.9345,20.5281z"/>
			<path id="XMLID_9050_" class="st3" d="M20.9345,20.5281c0.2984,0,0.5404,0.242,0.5404,0.5404
				c0,0.2993-0.242,0.5413-0.5404,0.5413c-0.2992,0-2.2568-0.5413-2.2568-0.5413S20.6353,20.5281,20.9345,20.5281z"/>
			<path id="XMLID_9049_" class="st3" d="M20.9826,22.1003c0.2928-0.0582,0.5774,0.1321,0.6355,0.4249
				c0.0582,0.2928-0.1321,0.5774-0.4249,0.6355c-0.2928,0.0582-2.3177-0.0896-2.3177-0.0896S20.6897,22.1585,20.9826,22.1003z"/>
			<path id="XMLID_9048_" class="st3" d="M20.9826,22.1003c0.2928-0.0582,0.5774,0.1321,0.6355,0.4249
				c0.0582,0.2928-0.1321,0.5774-0.4249,0.6355c-0.2928,0.0582-2.3177-0.0896-2.3177-0.0896S20.6897,22.1585,20.9826,22.1003z"/>
			<path id="XMLID_9047_" class="st3" d="M21.3364,23.6328c0.2762-0.1136,0.5922,0.0176,0.7067,0.2928
				c0.1145,0.2762-0.0166,0.5921-0.2928,0.7067c-0.2753,0.1145-2.2909,0.364-2.2909,0.364S21.0611,23.7474,21.3364,23.6328z"/>
			<path id="XMLID_9046_" class="st3" d="M21.3364,23.6328c0.2762-0.1136,0.5922,0.0176,0.7067,0.2928
				c0.1145,0.2762-0.0166,0.5921-0.2928,0.7067c-0.2753,0.1145-2.2909,0.364-2.2909,0.364S21.0611,23.7474,21.3364,23.6328z"/>
			<path id="XMLID_9045_" class="st3" d="M21.983,25.0674c0.2485-0.1663,0.5838-0.0988,0.7501,0.1487
				c0.1663,0.2485,0.0988,0.5847-0.1496,0.7501c-0.2476,0.1663-2.1755,0.8046-2.1755,0.8046S21.7346,25.2337,21.983,25.0674z"/>
			<path id="XMLID_9044_" class="st3" d="M21.983,25.0674c0.2485-0.1663,0.5838-0.0988,0.7501,0.1487
				c0.1663,0.2485,0.0988,0.5847-0.1496,0.7501c-0.2476,0.1663-2.1755,0.8046-2.1755,0.8046S21.7346,25.2337,21.983,25.0674z"/>
			<path id="XMLID_9043_" class="st3" d="M22.8966,26.3478c0.2115-0.2106,0.5533-0.2106,0.7649,0
				c0.2115,0.2115,0.2115,0.5533,0,0.7649c-0.2115,0.2106-1.9778,1.2129-1.9778,1.2129S22.6861,26.5593,22.8966,26.3478z"/>
			<path id="XMLID_9042_" class="st3" d="M22.8966,26.3478c0.2115-0.2106,0.5533-0.2106,0.7649,0
				c0.2115,0.2115,0.2115,0.5533,0,0.7649c-0.2115,0.2106-1.9778,1.2129-1.9778,1.2129S22.6861,26.5593,22.8966,26.3478z"/>
			<path id="XMLID_9041_" class="st3" d="M24.043,27.4258c0.1663-0.2485,0.5016-0.315,0.7501-0.1497
				c0.2486,0.1663,0.315,0.5016,0.1487,0.7501c-0.1654,0.2485-1.7025,1.5759-1.7025,1.5759S23.8767,27.6734,24.043,27.4258z"/>
			<path id="XMLID_9040_" class="st3" d="M24.043,27.4258c0.1663-0.2485,0.5016-0.315,0.7501-0.1497
				c0.2486,0.1663,0.315,0.5016,0.1487,0.7501c-0.1654,0.2485-1.7025,1.5759-1.7025,1.5759S23.8767,27.6734,24.043,27.4258z"/>
			<path id="XMLID_9039_" class="st3" d="M25.3769,28.259c0.1145-0.2762,0.4305-0.4074,0.7067-0.2928s0.4065,0.4305,0.2928,0.7067
				c-0.1145,0.2753-1.3635,1.8771-1.3635,1.8771S25.2634,28.5343,25.3769,28.259z"/>
			<path id="XMLID_9038_" class="st3" d="M25.3769,28.259c0.1145-0.2762,0.4305-0.4074,0.7067-0.2928s0.4065,0.4305,0.2928,0.7067
				c-0.1145,0.2753-1.3635,1.8771-1.3635,1.8771S25.2634,28.5343,25.3769,28.259z"/>
			<path id="XMLID_9037_" class="st3" d="M26.8484,28.8161c0.0582-0.2928,0.3427-0.4831,0.6355-0.4249
				c0.2928,0.0582,0.4831,0.3427,0.4249,0.6355c-0.0582,0.2928-0.9709,2.108-0.9709,2.108S26.7902,29.1089,26.8484,28.8161z"/>
			<path id="XMLID_9036_" class="st3" d="M26.8484,28.8161c0.0582-0.2928,0.3427-0.4831,0.6355-0.4249
				c0.2928,0.0582,0.4831,0.3427,0.4249,0.6355c-0.0582,0.2928-0.9709,2.108-0.9709,2.108S26.7902,29.1089,26.8484,28.8161z"/>
			<path id="XMLID_9035_" class="st3" d="M28.3994,29.0756c0-0.2993,0.2429-0.5413,0.5413-0.5413
				c0.2984,0,0.5404,0.242,0.5404,0.5413c0,0.2984-0.5404,2.2558-0.5404,2.2558S28.3994,29.374,28.3994,29.0756z"/>
			<path id="XMLID_9034_" class="st3" d="M28.3994,29.0756c0-0.2993,0.2429-0.5413,0.5413-0.5413
				c0.2984,0,0.5404,0.242,0.5404,0.5413c0,0.2984-0.5404,2.2558-0.5404,2.2558S28.3994,29.374,28.3994,29.0756z"/>
			<path id="XMLID_9033_" class="st3" d="M29.9726,29.0267c-0.0582-0.2928,0.1313-0.5774,0.424-0.6355
				c0.2938-0.0582,0.5783,0.1321,0.6365,0.4249c0.0582,0.2928-0.0905,2.3186-0.0905,2.3186S30.0308,29.3195,29.9726,29.0267z"/>
			<path id="XMLID_9032_" class="st3" d="M29.9726,29.0267c-0.0582-0.2928,0.1313-0.5774,0.424-0.6355
				c0.2938-0.0582,0.5783,0.1321,0.6365,0.4249c0.0582,0.2928-0.0905,2.3186-0.0905,2.3186S30.0308,29.3195,29.9726,29.0267z"/>
			<path id="XMLID_9031_" class="st3" d="M31.5051,28.6729c-0.1145-0.2762,0.0166-0.5921,0.2928-0.7067
				c0.2753-0.1145,0.5921,0.0166,0.7058,0.2928c0.1145,0.2753,0.364,2.2909,0.364,2.2909S31.6197,28.9482,31.5051,28.6729z"/>
			<path id="XMLID_9030_" class="st3" d="M31.5051,28.6729c-0.1145-0.2762,0.0166-0.5921,0.2928-0.7067
				c0.2753-0.1145,0.5921,0.0166,0.7058,0.2928c0.1145,0.2753,0.364,2.2909,0.364,2.2909S31.6197,28.9482,31.5051,28.6729z"/>
			<path id="XMLID_9029_" class="st3" d="M32.9388,28.0262c-0.1653-0.2485-0.0988-0.5838,0.1497-0.7501
				c0.2486-0.1654,0.5838-0.0988,0.7501,0.1497c0.1654,0.2476,0.8037,2.1764,0.8037,2.1764S33.1051,28.2747,32.9388,28.0262z"/>
			<path id="XMLID_9028_" class="st3" d="M32.9388,28.0262c-0.1653-0.2485-0.0988-0.5838,0.1497-0.7501
				c0.2486-0.1654,0.5838-0.0988,0.7501,0.1497c0.1654,0.2476,0.8037,2.1764,0.8037,2.1764S33.1051,28.2747,32.9388,28.0262z"/>
			<path id="XMLID_9027_" class="st3" d="M34.2191,27.1126c-0.2106-0.2115-0.2106-0.5533,0-0.7649
				c0.2115-0.2106,0.5543-0.2106,0.7649,0c0.2115,0.2115,1.2129,1.9778,1.2129,1.9778S34.4307,27.3233,34.2191,27.1126z"/>
			<path id="XMLID_9026_" class="st3" d="M34.2191,27.1126c-0.2106-0.2115-0.2106-0.5533,0-0.7649
				c0.2115-0.2106,0.5543-0.2106,0.7649,0c0.2115,0.2115,1.2129,1.9778,1.2129,1.9778S34.4307,27.3233,34.2191,27.1126z"/>
			<path id="XMLID_9025_" class="st3" d="M35.2972,25.9663c-0.2485-0.1654-0.315-0.5016-0.1487-0.7501
				c0.1655-0.2476,0.5016-0.315,0.7492-0.1487c0.2485,0.1663,1.5759,1.7034,1.5759,1.7034S35.5457,26.1325,35.2972,25.9663z"/>
			<path id="XMLID_9024_" class="st3" d="M35.2972,25.9663c-0.2485-0.1654-0.315-0.5016-0.1487-0.7501
				c0.1655-0.2476,0.5016-0.315,0.7492-0.1487c0.2485,0.1663,1.5759,1.7034,1.5759,1.7034S35.5457,26.1325,35.2972,25.9663z"/>
			<path id="XMLID_9023_" class="st3" d="M36.1304,24.6323c-0.2753-0.1145-0.4065-0.4305-0.2928-0.7067
				c0.1145-0.2753,0.4305-0.4065,0.7067-0.2928c0.2762,0.1145,1.878,1.3635,1.878,1.3635S36.4066,24.7469,36.1304,24.6323z"/>
			<path id="XMLID_9022_" class="st3" d="M36.1304,24.6323c-0.2753-0.1145-0.4065-0.4305-0.2928-0.7067
				c0.1145-0.2753,0.4305-0.4065,0.7067-0.2928c0.2762,0.1145,1.878,1.3635,1.878,1.3635S36.4066,24.7469,36.1304,24.6323z"/>
			<path id="XMLID_9021_" class="st3" d="M36.6874,23.1608c-0.2927-0.0582-0.4831-0.3427-0.4249-0.6355
				c0.0583-0.2928,0.3436-0.4831,0.6365-0.4249s2.1071,0.9709,2.1071,0.9709S36.9803,23.219,36.6874,23.1608z"/>
			<path id="XMLID_9020_" class="st3" d="M36.6874,23.1608c-0.2927-0.0582-0.4831-0.3427-0.4249-0.6355
				c0.0583-0.2928,0.3436-0.4831,0.6365-0.4249s2.1071,0.9709,2.1071,0.9709S36.9803,23.219,36.6874,23.1608z"/>
			<path id="XMLID_9019_" class="st3" d="M36.947,21.6098c-0.2984,0-0.5404-0.242-0.5404-0.5413
				c0-0.2984,0.242-0.5404,0.5404-0.5404s2.2559,0.5404,2.2559,0.5404S37.2454,21.6098,36.947,21.6098z"/>
			<path id="XMLID_9018_" class="st3" d="M36.947,21.6098c-0.2984,0-0.5404-0.242-0.5404-0.5413
				c0-0.2984,0.242-0.5404,0.5404-0.5404s2.2559,0.5404,2.2559,0.5404S37.2454,21.6098,36.947,21.6098z"/>
			<path id="XMLID_9017_" class="st3" d="M36.899,20.0376c-0.2928,0.0582-0.5782-0.1321-0.6365-0.4249
				c-0.0582-0.2928,0.1322-0.5774,0.4249-0.6355c0.2928-0.0591,2.3186,0.0896,2.3186,0.0896S37.1918,19.9794,36.899,20.0376z"/>
			<path id="XMLID_9016_" class="st3" d="M36.899,20.0376c-0.2928,0.0582-0.5782-0.1321-0.6365-0.4249
				c-0.0582-0.2928,0.1322-0.5774,0.4249-0.6355c0.2928-0.0591,2.3186,0.0896,2.3186,0.0896S37.1918,19.9794,36.899,20.0376z"/>
			<path id="XMLID_9015_" class="st3" d="M36.5442,18.5041c-0.2762,0.1145-0.5921-0.0166-0.7067-0.2919
				c-0.1136-0.2762,0.0176-0.5921,0.2928-0.7067c0.2762-0.1145,2.2919-0.364,2.2919-0.364S36.8204,18.3905,36.5442,18.5041z"/>
			<path id="XMLID_9014_" class="st3" d="M36.5442,18.5041c-0.2762,0.1145-0.5921-0.0166-0.7067-0.2919
				c-0.1136-0.2762,0.0176-0.5921,0.2928-0.7067c0.2762-0.1145,2.2919-0.364,2.2919-0.364S36.8204,18.3905,36.5442,18.5041z"/>
			<path id="XMLID_9013_" class="st3" d="M35.8976,17.0704c-0.2476,0.1663-0.5837,0.0988-0.7492-0.1497
				c-0.1663-0.2476-0.0998-0.5838,0.1487-0.7492c0.2485-0.1663,2.1764-0.8046,2.1764-0.8046S36.1461,16.9042,35.8976,17.0704z"/>
			<path id="XMLID_9012_" class="st3" d="M35.8976,17.0704c-0.2476,0.1663-0.5837,0.0988-0.7492-0.1497
				c-0.1663-0.2476-0.0998-0.5838,0.1487-0.7492c0.2485-0.1663,2.1764-0.8046,2.1764-0.8046S36.1461,16.9042,35.8976,17.0704z"/>
			<path id="XMLID_9011_" class="st3" d="M34.984,15.7901c-0.2106,0.2106-0.5533,0.2106-0.7649,0
				c-0.2106-0.2115-0.2106-0.5533,0-0.7649c0.2115-0.2115,1.9778-1.2129,1.9778-1.2129S35.1956,15.5786,34.984,15.7901z"/>
			<path id="XMLID_9010_" class="st3" d="M34.984,15.7901c-0.2106,0.2106-0.5533,0.2106-0.7649,0
				c-0.2106-0.2115-0.2106-0.5533,0-0.7649c0.2115-0.2115,1.9778-1.2129,1.9778-1.2129S35.1956,15.5786,34.984,15.7901z"/>
			<path id="XMLID_9009_" class="st3" d="M33.8386,14.7121c-0.1663,0.2485-0.5015,0.315-0.7501,0.1496
				c-0.2485-0.1663-0.3149-0.5016-0.1497-0.7501c0.1663-0.2485,1.7034-1.5759,1.7034-1.5759S34.0039,14.4636,33.8386,14.7121z"/>
			<path id="XMLID_9008_" class="st3" d="M33.8386,14.7121c-0.1663,0.2485-0.5015,0.315-0.7501,0.1496
				c-0.2485-0.1663-0.3149-0.5016-0.1497-0.7501c0.1663-0.2485,1.7034-1.5759,1.7034-1.5759S34.0039,14.4636,33.8386,14.7121z"/>
			<path id="XMLID_9007_" class="st3" d="M32.5037,13.8788c-0.1136,0.2762-0.4305,0.4074-0.7058,0.2928
				c-0.2762-0.1145-0.4074-0.4305-0.2928-0.7067c0.1145-0.2762,1.3625-1.8771,1.3625-1.8771S32.6183,13.6026,32.5037,13.8788z"/>
			<path id="XMLID_9006_" class="st3" d="M32.5037,13.8788c-0.1136,0.2762-0.4305,0.4074-0.7058,0.2928
				c-0.2762-0.1145-0.4074-0.4305-0.2928-0.7067c0.1145-0.2762,1.3625-1.8771,1.3625-1.8771S32.6183,13.6026,32.5037,13.8788z"/>
			<path id="XMLID_9005_" class="st3" d="M31.0331,13.3218c-0.0582,0.2928-0.3427,0.4831-0.6365,0.4249
				c-0.2927-0.0582-0.4822-0.3427-0.424-0.6355c0.0582-0.2928,0.9699-2.108,0.9699-2.108S31.0913,13.029,31.0331,13.3218z"/>
			<path id="XMLID_9004_" class="st3" d="M31.0331,13.3218c-0.0582,0.2928-0.3427,0.4831-0.6365,0.4249
				c-0.2927-0.0582-0.4822-0.3427-0.424-0.6355c0.0582-0.2928,0.9699-2.108,0.9699-2.108S31.0913,13.029,31.0331,13.3218z"/>
		</g>
		<g id="XMLID_8999_">
			<path id="XMLID_9002_" class="st3" d="M29.4959,32.5989c-0.2162,0.0924-0.4102,0.4101-0.5543,0.5681
				c-0.2476,0.2725-0.497,0.545-0.7575,0.8055c-0.4748,0.4748-1.1713,0.9727-1.5547,1.0568
				c-0.3824,0.0841-0.7769,0.0268-0.9801,0.23c-0.2023,0.2023-0.4286,0.4055-0.4286,0.5275c0,0.1229-0.4285,0.1921-0.5053,0.4517
				c-0.0757,0.2605-0.061,0.582-0.0379,0.6051s0.3641-0.1487,0.4443-0.23c0.0804-0.0804,0.0804,0.0998,0.0804,0.0998
				s0.2485-0.0305,0.2947-0.0305c0.0453,0,0.6559-0.2088,1.3903-0.2088c0.7353,0,2.338,0.1524,2.6955,0.1016
				c0.3566-0.0508-0.3169-0.1432-0.5515-0.1432c-0.2346,0-1.0512-0.1219-1.2046-0.1219s-0.6549,0.0406-0.6549-0.0406
				c0-0.0822,0.2309-0.3427,0.2771-0.388c0.0462-0.0462-0.582,0.061-0.1838-0.1838c0.3981-0.2448,0.2651-0.4286,0.061-0.3575
				c-0.2042,0.0711-1.0208,0.3169-1.0208,0.3981s-0.3159,0.4185-0.4083,0.327c-0.0915-0.0924-0.3058-0.0924-0.3058-0.0924
				s-0.0406-0.1533,0.2449-0.2448c0.2864-0.0924,0.1329,0.0406,0.6124-0.2245c0.4804-0.266,1.9602-1.0826,2.7768-1.8069
				c0.4332-0.3418,1.1529-0.5108,1.7145-0.582c0.4286-0.0545,0.8609-0.0804,1.2887-0.1404c0.362-0.0499,0.9283-0.0859,1.2017-0.3593
				c0.5469-0.5459,1.3007-1.1565,2.011-1.4623c0.5422-0.2328,1.0512-0.3593,1.5344-0.7298c0.6208-0.4757,0.9312-1.188,1.4808-1.7228
				c0.3741-0.3649,0.8074-0.6707,1.2766-0.9025c0.1654-0.0813,1.2147-0.6023,1.0984-0.0517
				c-0.0721,0.3362-0.6383,1.0762-0.6947,1.1325c-0.0554,0.0564,0.5737-0.2411,0.7021-0.1118
				c0.1293,0.1284,0.0638,0.3981-0.0896,0.5506c-0.1524,0.1533-0.5201,0.521-0.5201,0.521s0.582-0.0508,0.5302,0.1432
				c-0.0507,0.194-1.163,0.7446-1.2452,0.8268c-0.0813,0.0813,0.0259,0.1219,0.0259,0.1884s-0.1681,0.1681-0.3113,0.3113
				c-0.1432,0.1432-0.6226,0.2965-0.5413,0.5007c0.0822,0.2041,0.026,0.097-0.0915,0.2143
				c-0.1173,0.1173-0.5312,0.1219-0.5312,0.2753c0,0.1533,0.0517,0.3778-0.0406,0.4693c-0.0915,0.0924-0.6225,0.1635-0.6225,0.1635
				s0.0914,0.1635,0,0.3677c-0.0915,0.2042-2.1746,1.1741-2.2966,1.1741c-0.1229,0-0.3067,0.1118-0.266,0.1118
				c0.0416,0,1.8475-0.0406,2.4498-0.3981c0.6024-0.3566,1.1335-0.4693,1.2767-0.6125c0.1422-0.1423-0.5008-0.2753-0.5008-0.4388
				s0.3778-0.3473,1.0411-0.4286c0.6642-0.0813,0.9903-0.1229,0.6947-0.2143c-0.2965-0.0915-0.7252,0-0.7252-0.1229
				c0-0.1219,0.0721-0.1118,0.388-0.2042c0.3168-0.0915,1.0919-0.1626,1.0919-0.3464c0-0.1838-0.581-0.1127-0.7547-0.1737
				c-0.1737-0.061,0.0102-0.061,0.5921-0.255c0.582-0.194,1.1427-0.4295,1.1427-0.5616c0-0.133-0.5718-0.1635-0.7445-0.1635
				c-0.1737,0-0.2761-0.0406,0.0453-0.2199c0.3215-0.1783,1.5676-0.9238,1.8023-1.2803c0.2346-0.3575,0.4286-0.5515,0.2956-0.6845
				c-0.1321-0.1321-0.5921,0.3372-1.0106,0.4083c-0.4185,0.0721-0.5403,0.1635-0.4185-0.0406
				c0.1229-0.2042,0.7048-0.6125,1.2859-1.1944c0.582-0.582,1.3783-1.2554,1.3783-1.5104c0-0.255,0.0305-0.5007-0.2956-0.4286
				c-0.327,0.0711-0.7298,0.6374-0.9496,0.8573c-0.2189,0.2189-1.3164,1.0614-1.3164,1.0614s0.6023-0.7353,1.2656-1.6535
				c0.6633-0.9191,0.9699-1.4392,0.9699-1.5926c0-0.1533-0.0563-0.352-0.1025-0.3981s-0.3473-0.1016-0.6328,0.1838
				s-1.1224,1.6129-1.3884,1.7866c-0.2651,0.1737-0.4489,0.4489-0.2651,0.1737c0.1838-0.2762,0.7142-1.5418,0.776-1.7053
				c0.061-0.1626,0.388-1.102,0.388-1.5713c0-0.2143-0.0397-0.6429-0.266-0.751c-0.2484-0.1192-0.4573,0.1201-0.4896,0.3427
				c-0.0674,0.46-0.1423,0.921-0.2679,1.3709c-0.0647,0.2309-0.1423,0.4591-0.2392,0.679
				c-0.0906,0.2078-0.2366,0.3861-0.3779,0.5626c0.0397-0.2956,0.1747-0.5727,0.1811-0.8739
				c0.0065-0.3141,0.024-0.6383-0.0499-0.9469c-0.0286-0.1201-0.0721-0.2688-0.218-0.2577
				c-0.2817,0.0203-0.424,0.3215-0.4498,0.5644c-0.0426,0.3935-0.1478,0.7122-0.2874,1.0817
				c-0.1968,0.5228-0.4212,1.0355-0.6596,1.5399c-0.9866,2.0951-2.7094,3.7144-4.7001,4.8562
				c-1.6322,0.9487-3.3477,1.3533-5.2071,1.5501C29.556,32.5776,29.5255,32.5859,29.4959,32.5989z"/>
			<path id="XMLID_9001_" class="st3" d="M33.094,35.8302c-0.1634,0-0.3778-0.1118-0.3778,0.194
				c0,0.3067-0.158,0.5672-0.4692,0.6743c-0.3114,0.1072-2.1645,0.3058-3.2665,0.2245c-1.1029-0.0822-1.9399,0.5099-2.0728,0.7861
				c-0.1322,0.2753-0.0814,0.6429,0.2142,0.4591c0.2965-0.1838,0.8379-0.6125,0.9801-0.6125c0.1432,0-0.1524,0.6633,0.1636,0.6125
				c0.3168-0.0508,0.5311-0.4693,0.8017-0.5358c0.2698-0.0665,0.2901,0.1173,0.1986,0.3316
				c-0.0915,0.2143-0.133,0.5099,0.3473,0.133c0.4794-0.3778,0.6531-0.5921,0.6531-0.2864c0,0.3067,0.1118,0.4388,0.4998,0.1838
				s0.266-0.4489,0.4286-0.4489c0.1635,0,0.1285,0.158,0.2457,0.2753c0.1173,0.1173,0.3058,0.3067,0.7142-0.2245
				c0.1329-0.133,0.1634-0.1016,0.2909,0.0259c0.1275,0.1275,0.0462,0.3926,0.3835,0.1783
				c0.3362-0.2143,0.4793-0.5561,0.6779-0.5561c0.1589,0,0.158,0.3871,0.3704,0.2254c0.0305-0.0231,0.0517-0.0554,0.0711-0.0887
				c0.1007-0.1654,0.2254-0.5709,0.4656-0.5709c0.3132,0,0.3436,0.291,0.6042,0.291c0.2604,0,0.5358,0.0157,0.6271-0.352
				c0.0924-0.3677,0.097-0.7603,0.2966-0.5616c0.2558,0.2559,0.5856,0.4859,0.9246,0.2337c0.1552-0.1155,0.2688-0.2827,0.327-0.4674
				c0.0471-0.1487-0.0499-0.3058-0.2051-0.3261c-0.5422-0.0711-1.0873-0.1192-1.6323-0.1561
				c-0.3187-0.0222-0.6374-0.0397-0.9569-0.0564c-0.2846-0.0139-0.6255-0.0822-0.9072-0.024
				C33.1956,35.4533,33.094,35.8302,33.094,35.8302z"/>
			<path id="XMLID_9000_" class="st3" d="M17.4741,26.9371c0.2245,0.1506,0.5422,0.5228,0.5931,0.5737
				c0.2142,0.2189,0.4276,0.4379,0.6438,0.654c0.2042,0.2042,1.0863,1.5972,1.6969,2.011c0.6097,0.4129,1.284,0.6272,1.6203,0.8111
				c0.3372,0.1838,1.0189,0.6965,1.3783,1.0568c0.3603,0.3593,1.4391,0.9034,2.1283,0.9034c0.6892,0,1.6378-0.0212,1.842,0.1838
				c0.2042,0.2042,0.7233,0.3898,0.8379,0.2753c0.1145-0.1145,0.3981-0.6586,0.3981-0.6586s-0.2448-0.1072-0.8268-0.1072
				s-2.5874-0.3363-4.2567-1.309c-1.6692-0.9727-3.2156-1.9371-4.3334-3.6673c-1.1178-1.7302-1.7302-3.5981-1.8835-4.1495
				c-0.1533-0.5506-0.5662-0.5506-0.5662,0.2143c0,0.7658,0.4054,1.3709,0.2909,1.4854c-0.085,0.085-0.569-0.8914-0.6004-0.9616
				c-0.2476-0.5469-0.3843-1.151-0.5386-1.733c-0.037-0.1395-0.0508-0.3732-0.2171-0.4286
				c-0.1792-0.0591-0.3196,0.1145-0.3981,0.2503c-0.097,0.1672-0.0628,0.3556-0.0424,0.5432
				c0.0332,0.3169,0.1061,0.6291,0.2161,0.9284c0.1136,0.3095,0.2162,0.6208,0.3242,0.9339
				c0.1663,0.4822,0.3399,0.9626,0.521,1.4429c0,0-1.0411-1.4503-1.393-1.8023c-0.1209-0.1201-0.2429-0.2411-0.3741-0.3501
				c-0.0776-0.0647-0.3215-0.2984-0.4065-0.1284c-0.0185,0.0369-0.0185,0.0804-0.0166,0.1219
				c0.0157,0.5053,0.1792,0.9866,0.4453,1.4134c0.3823,0.6125,1.5001,2.0517,1.5001,2.0517s-0.7196-0.6429-1.0716-0.9949
				c-0.352-0.3529-1.5011-1.1787-1.4244-0.6282c0.0767,0.5515,2.2586,2.4877,2.435,2.787c0.0397,0.0665,0.1654,0.3769-0.0388,0.3224
				c-0.049-0.0129-0.0859-0.0527-0.121-0.0896c-0.1154-0.1229-0.2854-0.2217-0.4249-0.3141
				c-0.0961-0.0637-0.242-0.1848-0.3648-0.1848c-0.1534,0-0.3474,0.1792,0.0101,0.5358c0.3575,0.3575,2.3685,1.3173,2.3685,1.4503
				c0,0.1321-0.8674,0.0305-1.103,0.0305c-0.2346,0-0.3667,0.0711-0.1016,0.2245s0.8064,0.2143,1.1539,0.3473
				c0.3463,0.1321,0.6475,0.0757,0.5403,0.1829c-0.0804,0.0813-0.2596,0.0831-0.3648,0.0942
				c-0.1645,0.0176-0.3714-0.024-0.5276,0.0129c-0.1173,0.0286-0.0998,0.085-0.0157,0.169
				c0.2189,0.2189,1.1787,0.3316,1.2453,0.3981c0.0664,0.0665-0.2966,0.2143-0.3982,0.2143c-0.1025,0-0.5312-0.0203-0.2042,0.1737
				c0.327,0.194,1.5307,0.3566,1.5621,0.388c0.0305,0.0305-0.654,0.2346-0.654,0.3464c0,0.1127,0.3067,0.1838,0.3372,0.2143
				c0.0305,0.0305,3.0522,1.3579,4.2567,1.3579c-0.6734-0.2448-3.4807-1.2656-3.5833-1.4799
				c-0.1016-0.2143,0.4083-0.2965,0.4083-0.4388c0-0.1432-0.3778-0.1432-0.7242-0.327c-0.3473-0.1838-0.485-0.1783-0.3575-0.3067
				c0.1275-0.1275,0.5211-0.1118,0.1635-0.2753c-0.3575-0.1635-0.7963-0.0508-0.7252-0.3159
				c0.0721-0.266,0.2965-0.1737,0.2346-0.3473c-0.061-0.1737-0.2854-0.1533-0.3363-0.3067
				c-0.0388-0.1155,0.0333-0.1977-0.0314-0.3178c-0.146-0.2707-0.5948-0.3446-0.8489-0.4794
				c-0.1145-0.061-0.3001-0.133-0.3787-0.242c-0.1339-0.1848,0.3215-0.2439,0.4425-0.2365
				c-0.1099-0.0887-1.0928-0.9182-0.8471-1.0004c0.1053-0.0351,0.2125-0.0702,0.3242-0.073
				c0.0961-0.0018,0.2291,0.0388,0.2402-0.1053c0.0083-0.1035-0.0702-0.2411-0.1155-0.3316
				c-0.1635-0.327-0.6023-0.8887-0.4489-0.9496c0.1829-0.073,0.4222,0.218,0.5635,0.1053c0.0628-0.0499,0.0924-0.1423,0.1404-0.206
				C17.3078,26.8521,17.3837,26.8771,17.4741,26.9371z"/>
		</g>
	</g>
</g>
</svg>
