<?xml version="1.0" encoding="utf-8"?>
<!-- Generator: Adobe Illustrator 27.7.0, SVG Export Plug-In . SVG Version: 6.00 Build 0)  -->
<!DOCTYPE svg PUBLIC "-//W3C//DTD SVG 1.1//EN" "http://www.w3.org/Graphics/SVG/1.1/DTD/svg11.dtd" [
	<!ENTITY ns_extend "http://ns.adobe.com/Extensibility/1.0/">
	<!ENTITY ns_ai "http://ns.adobe.com/AdobeIllustrator/10.0/">
	<!ENTITY ns_graphs "http://ns.adobe.com/Graphs/1.0/">
	<!ENTITY ns_vars "http://ns.adobe.com/Variables/1.0/">
	<!ENTITY ns_imrep "http://ns.adobe.com/ImageReplacement/1.0/">
	<!ENTITY ns_sfw "http://ns.adobe.com/SaveForWeb/1.0/">
	<!ENTITY ns_custom "http://ns.adobe.com/GenericCustomNamespace/1.0/">
	<!ENTITY ns_adobe_xpath "http://ns.adobe.com/XPath/1.0/">
]>
<svg version="1.1" id="Layer_1" xmlns:x="&ns_extend;" xmlns:i="&ns_ai;" xmlns:graph="&ns_graphs;"
	 xmlns="http://www.w3.org/2000/svg" xmlns:xlink="http://www.w3.org/1999/xlink" x="0px" y="0px" width="50px" height="50px"
	 viewBox="0 0 50 50" style="enable-background:new 0 0 50 50;" xml:space="preserve">
<style type="text/css">
	.st0{fill:#FFFFFF;}
	.st1{fill:#D1D3D4;}
	.st2{clip-path:url(#SVGID_00000179618745518050608530000005931277196912634770_);}
	.st3{fill:#ED1C24;}
	.st4{fill:#00A651;}
</style>
<metadata>
	<sfw  xmlns="&ns_sfw;">
		<slices></slices>
		<sliceSourceBounds  bottomLeftOrigin="true" height="53.7251" width="53.7251" x="-1.8626" y="-1.8626"></sliceSourceBounds>
	</sfw>
</metadata>
<g id="Layer_2_00000142873634925117560710000001888913512934112658_">
	<g>
		<circle class="st0" cx="24.9998" cy="25.0002" r="24.7525"/>
		<path class="st1" d="M25,50C11.215,50,0,38.785,0,25S11.215,0,25,0s25,11.215,25,25S38.785,50,25,50z M25,0.495
			C11.4881,0.495,0.495,11.4881,0.495,25S11.4881,49.505,25,49.505S49.505,38.5119,49.505,25S38.5119,0.495,25,0.495z"/>
	</g>
</g>
<g>
	<defs>
		<circle id="SVGID_1_" cx="25" cy="25" r="24.505"/>
	</defs>
	<clipPath id="SVGID_00000091724841802571800530000010523868067357150860_">
		<use xlink:href="#SVGID_1_"  style="overflow:visible;"/>
	</clipPath>
	<g style="clip-path:url(#SVGID_00000091724841802571800530000010523868067357150860_);">
		<path class="st0" d="M25-1.8626c7.4175,0,14.1336,3.0074,18.9945,7.868c4.8607,4.8611,7.868,11.577,7.868,18.9945
			s-3.0073,14.1336-7.8684,18.9942C39.1336,48.8553,32.4175,51.8626,25,51.8626s-14.1335-3.0073-18.9945-7.868
			C1.1449,39.1336-1.8626,32.4175-1.8626,25s3.0074-14.1335,7.868-18.9945C10.8665,1.1449,17.5825-1.8626,25-1.8626z"/>
		<path class="st3" d="M25,0.4098c9.0914,0,17.0295,4.9346,21.285,12.2705H3.715C7.9702,5.3444,15.9083,0.4098,25,0.4098z
			 M46.2733,37.3396C42.0151,44.6647,34.0833,49.5902,25,49.5902S7.9847,44.6647,3.7267,37.3396H46.2733z"/>
		<path class="st4" d="M24.6649,12.6802c-0.5293,1.1146-1.5262,1.8936-2.4788,2.6309c-0.1568,0.1368-0.5464,0.4019-0.2637,0.6037
			c0.2423-0.2707,0.907,0.0878,0.5206,0.379c-0.3461,0.3238-0.8226,0.4425-1.2069,0.7098
			c-0.3403,0.1849-0.6855,0.3779-0.9554,0.6609c-0.0184,0.4422,0.5486,0.1975,0.7786,0.3817
			c0.2996,0.3202-0.1269,0.8603-0.5202,0.7368c-0.5027,0.0155-0.8499,0.4578-1.0401,0.8798
			c-0.3933,0.6081-1.1385,0.7882-1.7319,1.1344c-0.3392,0.1988-0.6678,0.415-0.9847,0.6477
			c-0.4075,0.2786-0.0531,0.8302,0.3805,0.6948c0.4679-0.0467,0.8889-0.4144,1.3736-0.3084
			c0.4393,0.1543,0.5626,0.7286,0.4129,1.1296c-0.111,0.321-0.3797,0.5471-0.5951,0.7978
			c-0.3495,0.3542-0.8068,0.5841-1.2889,0.6937c-0.4658,0.1565-0.8846,0.4418-1.1902,0.8272
			c-0.3546,0.357-0.7079,0.7198-1.1156,1.0176c-0.1289,0.3286,0.2346,0.6086,0.5376,0.5998
			c0.6385-0.0403,1.081-0.5627,1.6247-0.8313c0.4512-0.2027,0.9822,0.2836,0.8719,0.7536c-0.035,0.4574-0.4632,0.6894-0.8438,0.8302
			c-1.1191,0.5626-2.0908,1.3784-2.9537,2.2785c-0.1784,0.3641-0.6691,0.2569-0.9331,0.5106
			c-0.172,0.3211,0.2598,0.4904,0.5175,0.4575c1.1072-0.1332,2.1404-0.6012,3.1191-1.1162c0.3641-0.174,0.7058-0.4029,1.0843-0.5417
			c0.3554-0.0878,0.8511,0.0666,0.9146,0.4712c-0.0005,0.4271-0.4236,0.6636-0.7586,0.8304
			c-1.0332,0.5429-2.1671,0.843-3.2715,1.2019c-0.4135-0.1156-0.725,0.6201-0.2715,0.7523c0.4796,0.1644,0.9895,0.0325,1.48,0.011
			c1.517-0.2325,2.8437-1.0532,4.2616-1.5839c0.5895-0.1921,1.2854,0.076,1.5763,0.6284c0.2924,0.4924,0.2656,1.1399-0.0427,1.6183
			c-0.4872,1.0424-1.2281,2.0004-2.2225,2.5998c-0.6243,0.3091-1.3529,0.4274-1.888,0.9004
			c-0.4947,0.1632,0.2482,0.8318,0.3555,0.3011c0.2973-0.4055,0.8217-0.5268,1.2973-0.5435
			c0.7148-0.0778,1.474-0.2096,2.0294-0.7045c0.498-0.3868,0.9888-0.9202,1.6649-0.9285c0.3737,0.0442,0.7434,0.3445,1.1229,0.1614
			c0.332-0.1521,0.8529-0.063,0.9397,0.3453c0.1585,0.4776,0.6508,0.695,1.0412,0.9505c0.1414,0.1984,0.6109,0.7102,0.719,0.259
			c-0.0873-0.3218,0.0376-0.8143,0.4597-0.7068c0.3687,0.0165,0.7202,0.1525,1.0882,0.1748
			c0.4901,0.1016,0.8989,0.4371,1.1772,0.8422c0.1915,0.2644,0.6109,0.7187,0.9224,0.368c0.1934-0.3625-0.1757-0.665-0.4762-0.7944
			c-0.4382-0.2715-0.8127-0.6331-1.1958-0.9754c-0.5646-0.5275-1.0523-1.1982-1.142-1.986c-0.1216-0.7854-0.0575-1.5865,0.0449-2.37
			c0.1291-0.5042,0.774-0.7796,1.2249-0.5116c0.6345,0.2894,1.2647,0.7037,1.9922,0.6588c1.0512,0.0226,2.1313-0.1785,3.1586,0.1259
			c0.9997,0.315,1.7144,1.1586,2.6881,1.5235c0.2181,0.1325,0.4969,0.0065,0.5768-0.2263c0.0966-0.2092,0.0284-0.4768-0.1732-0.5961
			c-1.1286-1.1392-2.6709-1.6926-3.9767-2.5827c-0.4111-0.1044-0.486-0.7659-0.1059-0.9569c0.4996-0.363,1.2066-0.194,1.6499,0.1803
			c0.3743,0.2192,0.7961,0.3835,1.2353,0.3838c0.4499-0.1407,0.2318-0.7917-0.171-0.8406
			c-0.7298-0.4121-1.2525-1.0883-1.8849-1.6242c-0.3642-0.3083-0.7626-0.6204-1.2519-0.6802
			c-0.2674-0.0487-0.5409-0.0593-0.8119-0.0412c-0.2542-0.2761,0.0844-0.699,0.413-0.6645
			c0.3372,0.0227,0.6725,0.0478,1.0093,0.0009c0.3763-0.0276,0.7523-0.0665,1.1299-0.0691c0.3049,0.2075,0.9142-0.151,0.6389-0.5089
			c-0.3006-0.2634-0.7352-0.2406-1.0944-0.3757c-0.6306-0.2059-1.2727-0.3748-1.923-0.5059
			c-0.4549-0.0272-0.3987-0.6258,0.001-0.6918c0.2616-0.0976,0.4891,0.1034,0.7402,0.1345c0.429,0.0922,0.8718,0.0909,1.3004,0.1844
			c0.3636-0.1794,0.0825-0.7104-0.2462-0.7414c-0.7759-0.2774-1.4463-0.778-2.1018-1.2653
			c-0.7237-0.5442-1.3803-1.1736-2.1128-1.7053c-0.2658-0.1646-0.7014-0.212-0.7713-0.577
			c-0.0247-0.3359,0.3705-0.4888,0.6508-0.4103c0.3976,0.1174,0.768,0.3218,1.1732,0.4222c0.3178,0.0541,0.6456,0.1481,0.952,0.1081
			c0.389-0.2444-0.1668-0.4007-0.3679-0.4854c-0.5186-0.2798-0.9794-0.6522-1.4462-1.0078
			c-0.3943-0.3366,0.3346-0.4853,0.5853-0.3557c0.4192,0.1753,0.467-0.4354,0.1536-0.5892c-0.3693-0.157-0.6867-0.4176-1.0214-0.645
			c-0.6051-0.4305-1.2901-0.7714-2.0336-0.8661c-0.8338-0.0837-1.6119-0.5631-2.0543-1.2762
			c-0.2742-0.4063-0.4755-0.8556-0.6701-1.3038L24.6649,12.6802L24.6649,12.6802z M21.9271,17.3574
			c0.4296,0.0127,0.3636,0.7871-0.0594,0.7354C21.4568,18.0664,21.482,17.2741,21.9271,17.3574z M25.9802,17.7744
			c0.4182-0.0748,0.5067,0.6881,0.089,0.724C25.6338,18.5763,25.4726,17.7261,25.9802,17.7744z M24.7931,17.8738
			c0.424,0.0834,0.3485,0.8219-0.0793,0.8282c-0.313,0.0697-0.6504,0.2833-0.967,0.1233c-0.2576-0.2724,0.1147-0.6751,0.4021-0.7636
			c0.2204-0.0444,0.4233-0.1445,0.6441-0.1879H24.7931L24.7931,17.8738z M27.5252,17.8771
			c0.4085,0.1489,0.2644,0.8699-0.1665,0.8609c-0.4075,0.0545-0.5972-0.6252-0.2173-0.7863
			C27.2644,17.908,27.3934,17.8713,27.5252,17.8771L27.5252,17.8771z M22.9163,18.695c0.3004,0.2859,0.1231,0.8376-0.2474,0.9695
			c-0.2669,0.1484-0.6309,0.4997-0.9216,0.2107c-0.1578-0.353,0.2383-0.6189,0.4712-0.8148
			C22.4263,18.8987,22.6557,18.752,22.9163,18.695L22.9163,18.695z M26.3467,20.2894c0.4301,0.2031,0.2118,0.9781-0.2602,0.9299
			c-0.3876-0.0982-0.337-0.7631,0.0534-0.8161C26.2138,20.3749,26.2814,20.3334,26.3467,20.2894z M24.9823,20.3664
			c0.4021,0.1883,0.095,0.8595-0.3101,0.7628c-0.4201-0.0493-0.4124-0.7878,0.0509-0.7212
			C24.8104,20.4038,24.9005,20.4015,24.9823,20.3664z M27.9238,20.7514c0.4408-0.1368,0.9715,0.3173,0.8286,0.7779
			c-0.1966,0.3571-0.6823,0.4022-1.0304,0.2688c-0.3996-0.0198-0.6684-0.6205-0.3124-0.8749
			C27.5569,20.812,27.7426,20.7662,27.9238,20.7514z M21.412,20.8668c0.3646-0.1983,0.7515,0.3977,0.4416,0.6606
			c-0.2053,0.3018-0.7326,0.4252-0.9651,0.0895c-0.1932-0.3279,0.1192-0.8788,0.5236-0.7502L21.412,20.8668L21.412,20.8668z
			 M19.7303,21.1491c0.4134,0.0566,0.6829,0.4321,0.8357,0.7898c0.0373,0.4358-0.6059,0.6748-0.8863,0.3578
			c-0.3154-0.1979-0.5916-0.6048-0.4261-0.9826C19.3556,21.1642,19.5585,21.1023,19.7303,21.1491z M29.7918,22.7242
			c0.4488-0.1182,0.7745,0.5989,0.3892,0.8584c-0.3523,0.32-1.0373-0.1039-0.8535-0.5605c0.0911-0.1693,0.274-0.2818,0.4644-0.2978
			H29.7918z M24.0802,23.5422c0.3763,0.048,0.2544,0.7002-0.0935,0.6781C23.6133,24.1512,23.6987,23.5055,24.0802,23.5422z
			 M22.1715,23.8887c0.3068-0.2171,0.7027,0.3129,0.4474,0.5597C22.3129,24.664,21.9161,24.1426,22.1715,23.8887z M25.2062,23.9529
			c0.3558,0.2162,0.5669,0.6192,0.6111,1.0258c-0.1704,0.38-0.8289,0.2884-0.9031-0.1162c-0.1301-0.32-0.0102-0.7315,0.292-0.9095
			V23.9529z M26.2654,24.5817c0.4584-0.1152,0.2938,0.843-0.0889,0.5107c-0.1273-0.1511-0.0591-0.3996,0.0887-0.5107
			L26.2654,24.5817L26.2654,24.5817z M19.614,25.2488c0.3035-0.0889,0.746,0.0047,0.8298,0.3529
			c0.0353,0.3274-0.3248,0.4977-0.5886,0.5788c-0.4227,0.1306-0.8363,0.3449-1.2909,0.316
			c-0.3409-0.1948-0.4632-0.5935-0.5847-0.9411c0.3288-0.3085,0.8134-0.2179,1.2211-0.2952
			C19.3383,25.2535,19.4761,25.2497,19.614,25.2488L19.614,25.2488z M29.9314,26.7502c0.3871-0.1899,0.8036,0.4249,0.4795,0.7119
			c-0.4054,0.4667-1.1861,0.5534-1.671,0.1614c-0.0583-0.413,0.3543-0.713,0.7209-0.7723
			C29.6148,26.8076,29.768,26.7426,29.9314,26.7502L29.9314,26.7502z M32.1077,27.2218c0.44-0.0757,0.7865,0.5519,0.4724,0.8768
			c-0.2974,0.4484-1.0065,0.5659-1.4118,0.1984c-0.1581-0.3717,0.1625-0.759,0.5038-0.8782
			C31.8188,27.3562,31.9576,27.2762,32.1077,27.2218L32.1077,27.2218z M21.1648,27.8891c0.4075-0.0403,0.7806,0.364,0.7272,0.7656
			c0.295,0.2902-0.2274,0.8311-0.5212,0.5304c-0.2588-0.3137-0.2576-0.7394-0.3579-1.1149
			C21.0083,27.9869,21.0702,27.8788,21.1648,27.8891z M24.2925,28.1233c0.4212-0.1821,0.9663,0.3218,0.7369,0.7484
			c-0.1637,0.3475-0.8025,0.231-0.7813-0.1715c-0.001-0.1926-0.0166-0.39,0.0444-0.577V28.1233z M22.7709,28.3959
			c0.4222-0.0968,0.8098,0.4508,0.5751,0.816C22.9249,29.2494,22.7064,28.7497,22.7709,28.3959z"/>
	</g>
</g>
</svg>
