<?xml version="1.0" encoding="utf-8"?>
<!-- Generator: Adobe Illustrator 27.6.1, SVG Export Plug-In . SVG Version: 6.00 Build 0)  -->
<!DOCTYPE svg PUBLIC "-//W3C//DTD SVG 1.1//EN" "http://www.w3.org/Graphics/SVG/1.1/DTD/svg11.dtd" [
	<!ENTITY ns_extend "http://ns.adobe.com/Extensibility/1.0/">
	<!ENTITY ns_ai "http://ns.adobe.com/AdobeIllustrator/10.0/">
	<!ENTITY ns_graphs "http://ns.adobe.com/Graphs/1.0/">
	<!ENTITY ns_vars "http://ns.adobe.com/Variables/1.0/">
	<!ENTITY ns_imrep "http://ns.adobe.com/ImageReplacement/1.0/">
	<!ENTITY ns_sfw "http://ns.adobe.com/SaveForWeb/1.0/">
	<!ENTITY ns_custom "http://ns.adobe.com/GenericCustomNamespace/1.0/">
	<!ENTITY ns_adobe_xpath "http://ns.adobe.com/XPath/1.0/">
]>
<svg version="1.1" id="Layer_1" xmlns:x="&ns_extend;" xmlns:i="&ns_ai;" xmlns:graph="&ns_graphs;"
	 xmlns="http://www.w3.org/2000/svg" xmlns:xlink="http://www.w3.org/1999/xlink" x="0px" y="0px" viewBox="0 0 50 50"
	 style="enable-background:new 0 0 50 50;" xml:space="preserve">
<style type="text/css">
	.st0{fill:#FFFFFF;}
	.st1{fill:#D1D3D4;}
	.st2{fill:#E70013;}
	.st3{fill:#239E46;}
</style>
<metadata>
	<sfw  xmlns="&ns_sfw;">
		<slices></slices>
		<sliceSourceBounds  bottomLeftOrigin="true" height="50" width="50" x="0" y="0"></sliceSourceBounds>
	</sfw>
</metadata>
<g id="Layer_2_00000123403691739621316350000017975105315266775208_">
	<g id="Layer_2_00000009549042599903514300000009786033506733176249_">
		<g>
			<circle class="st0" cx="24.9998" cy="25.0002" r="24.7525"/>
			<path class="st1" d="M25,50C11.215,50,0,38.785,0,25S11.215,0,25,0s25,11.215,25,25S38.785,50,25,50z M25,0.495
				C11.4881,0.495,0.495,11.4881,0.495,25S11.4881,49.505,25,49.505S49.505,38.5119,49.505,25S38.5119,0.495,25,0.495z"/>
		</g>
	</g>
</g>
<g id="XMLID_7136_">
	<g id="XMLID_7140_">
		<path id="XMLID_7143_" class="st2" d="M46.2113,12.7486H3.7887C8.0317,5.4312,15.9486,0.4991,25,0.4991
			C34.0504,0.4991,41.9683,5.4312,46.2113,12.7486z"/>
		<path id="XMLID_7142_" class="st3" d="M46.2085,37.2514C41.9683,44.5688,34.0478,49.5009,25,49.5009
			c-9.0486,0-16.9683-4.9321-21.2085-12.2495H46.2085z"/>
		<path id="XMLID_7141_" d="M49.5,24.9982c0,4.4619-1.1981,8.6486-3.2915,12.2532H3.7915C1.6982,33.6467,0.5,29.4601,0.5,24.9982
			c0-4.4592,1.1982-8.6449,3.2887-12.2495h42.4226C48.3019,16.3533,49.5,20.539,49.5,24.9982z"/>
	</g>
	<g id="XMLID_7137_">
		<path id="XMLID_7139_" class="st0" d="M23.6901,30.3146c-2.9349,0-5.3146-2.3797-5.3146-5.3146
			c0-2.9358,2.3797-5.3155,5.3146-5.3155c1.2684,0,2.4315,0.4443,3.3451,1.1852c-1.1289-1.2508-2.7622-2.037-4.5793-2.037
			c-3.406,0-6.1673,2.7612-6.1673,6.1673s2.7612,6.1663,6.1673,6.1663c1.8171,0,3.4504-0.7861,4.5793-2.036
			C26.1216,29.8703,24.9584,30.3146,23.6901,30.3146z"/>
		<polygon id="XMLID_7138_" class="st0" points="28.6268,20.6739 30.5677,23.3492 33.7114,22.3302 31.7668,25.0018 33.7077,27.6772 
			30.565,26.6536 28.6204,29.3261 28.6231,26.0208 25.4804,24.9972 28.6251,23.9783 		"/>
	</g>
</g>
</svg>
