<?xml version="1.0" encoding="utf-8"?>
<!-- Generator: Adobe Illustrator 27.6.1, SVG Export Plug-In . SVG Version: 6.00 Build 0)  -->
<svg version="1.1" id="Layer_1" xmlns="http://www.w3.org/2000/svg" xmlns:xlink="http://www.w3.org/1999/xlink" x="0px" y="0px"
	 viewBox="0 0 50 50" style="enable-background:new 0 0 50 50;" xml:space="preserve">
<style type="text/css">
	.st0{fill:#FFFFFF;}
	.st1{fill:#D1D3D4;}
	.st2{fill:#263677;}
	.st3{fill:#CD2027;}
	.st4{fill:#FED742;}
	.st5{fill:#010101;}
</style>
<g>
	<circle class="st0" cx="25" cy="25" r="24.8"/>
	<path class="st1" d="M25,50C11.2,50,0,38.8,0,25S11.2,0,25,0s25,11.2,25,25S38.8,50,25,50z M25,0.5C11.5,0.5,0.5,11.5,0.5,25
		s11,24.5,24.5,24.5s24.5-11,24.5-24.5S38.5,0.5,25,0.5z"/>
</g>
<g>
	<g>
		<g>
			<path class="st2" d="M49.5,25h-49c0-0.2,0-0.3,0-0.5c0,0,0,0,0-0.1c0,0,0,0,0-0.1c0-0.5,0-1,0.1-1.5c0,0,0,0,0-0.1c0,0,0,0,0-0.1
				c0-0.2,0-0.3,0-0.5c0,0,0,0,0-0.1v0c0,0,0,0,0-0.1c0.4-3.4,1.5-6.6,3.1-9.4c0.6-1.1,1.3-2.1,2.1-3.1C10.4,4.1,17.3,0.5,25,0.5
				s14.6,3.6,19.1,9.2c0.8,1,1.5,2,2.1,3.1c1.2,2.1,2.1,4.3,2.6,6.7c0,0,0,0,0,0.1c0,0,0,0,0,0.1c0.1,0.6,0.2,1.1,0.3,1.7
				c0,0,0,0,0,0.1c0,0,0,0,0,0.1c0.1,1,0.2,2,0.3,3c0,0,0,0,0,0.1c0,0,0,0,0,0.1C49.5,24.7,49.5,24.8,49.5,25z"/>
			<path class="st3" d="M49.5,25c0,0.1,0,0.2,0,0.4c0,0,0,0.1,0,0.1v0.1c0,0,0,0,0,0c0,0,0,0,0,0.1c0,1-0.1,1.9-0.2,2.9
				c0,0.1,0,0.2,0,0.3c0,0.3-0.1,0.6-0.2,0.9c0,0,0,0.1,0,0.1v0c0,0,0,0.1,0,0.1c-0.5,2.6-1.5,5-2.8,7.3c-0.6,1.1-1.3,2.1-2.1,3.1
				c-4.5,5.6-11.4,9.2-19.1,9.2s-14.6-3.6-19.1-9.2c-0.8-1-1.5-2-2.1-3.1c-1.2-2.1-2.2-4.5-2.7-7c0,0,0-0.1,0-0.1c0,0,0-0.1,0-0.1
				c-0.2-0.9-0.3-1.8-0.4-2.7c0-0.1,0-0.2,0-0.2v0c0-0.5-0.1-1-0.1-1.4c0,0,0,0,0-0.1c0,0,0,0,0-0.1c0-0.1,0-0.2,0-0.4
				c0,0,0,0,0-0.1V25H49.5z"/>
		</g>
		<g>
			<g id="XMLID_11063_">
				<g>
					<path class="st4" d="M18.5,10.8H20c-0.1,0.3-0.4,0.6-0.7,0.6C18.9,11.3,18.6,11.1,18.5,10.8z"/>
					<path class="st4" d="M19.9,10.3h-0.5V9.8C19.7,9.9,19.8,10,19.9,10.3z"/>
					<path class="st4" d="M19,9.8v0.4h-0.5C18.6,10,18.7,9.9,19,9.8z"/>
					<path class="st4" d="M20,10.5c0,0,0,0.1,0,0.1h-1.5c0,0,0-0.1,0-0.1c0-0.1,0-0.1,0-0.2H19c0,0,0,0,0,0V9.8c0,0,0.1,0,0.2,0
						c0.1,0,0.1,0,0.2,0v0.5c0,0,0,0,0,0H20C20,10.4,20,10.5,20,10.5z"/>
					<path class="st4" d="M19.2,8.9l0.4,0.7l-0.1,0.1c-0.1,0-0.2-0.1-0.3-0.1c-0.1,0-0.2,0-0.3,0.1l-0.1-0.1L19.2,8.9z"/>
					<polygon class="st4" points="20.6,8.5 20.1,8.8 19.6,8.5 20.1,8.2 					"/>
					<polygon class="st4" points="19.2,6.8 19.6,7.5 19.2,8.1 18.8,7.5 					"/>
					<path class="st4" d="M19.2,8.3c0.1,0,0.3,0.1,0.3,0.3s-0.1,0.3-0.3,0.3c-0.1,0-0.3-0.1-0.3-0.3C19,8.4,19.1,8.3,19.2,8.3z"/>
					<path class="st5" d="M27.5,16.2c-0.5-0.4-1-0.6-1.5-0.5c0,0,0,0,0,0c0.1-0.1,0.1-0.3,0.2-0.4c0,0.3,0.2,0.5,0.5,0.5
						c0.3,0,0.5-0.2,0.5-0.5c0-0.2-0.1-0.3-0.2-0.4c0.2,0,0.4-0.2,0.4-0.5c0-0.2-0.1-0.4-0.3-0.5c0.2-0.1,0.3-0.2,0.3-0.5
						c0-0.3-0.2-0.5-0.5-0.5c0.1-0.1,0.2-0.2,0.2-0.4c0-0.3-0.2-0.5-0.5-0.5c-0.1,0-0.1,0-0.2,0c0.1-0.1,0.1-0.2,0.1-0.3
						c0-0.3-0.2-0.5-0.5-0.5c-0.1,0-0.2,0-0.3,0.1c0,0,0-0.1,0-0.1c0-0.3-0.2-0.5-0.5-0.5c-0.2,0-0.3,0.1-0.4,0.2
						c0-0.3-0.2-0.5-0.5-0.5c-0.2,0-0.3,0.1-0.4,0.3c-0.1-0.2-0.2-0.4-0.5-0.4c-0.2,0-0.4,0.1-0.4,0.3c-0.1-0.1-0.2-0.2-0.4-0.2
						c-0.2,0-0.4,0.2-0.5,0.4c-0.1-0.1-0.2-0.2-0.4-0.2c-0.3,0-0.5,0.2-0.5,0.5c-0.1-0.1-0.2-0.2-0.4-0.2c-0.3,0-0.5,0.2-0.5,0.5
						c0,0,0,0,0,0c-0.1-0.2-0.2-0.3-0.5-0.3c-0.1,0-0.1,0-0.1,0c0.1-0.2,0.2-0.4,0.2-0.6c0-0.1,0-0.2,0-0.3c0,0,0,0,0,0
						c-0.1-0.2-0.2-0.4-0.4-0.5l0.1-0.1c0,0,0,0,0-0.1l-0.4-0.7c0.1,0,0.2-0.1,0.3-0.3L20,8.9c0,0,0,0,0,0s0,0,0,0l0.7-0.4
						c0,0,0,0,0,0c0,0,0,0,0,0c0,0,0,0,0,0c0,0,0,0,0,0c0,0,0,0,0,0c0,0,0,0,0,0c0,0,0,0,0,0c0,0,0,0,0,0c0,0,0,0,0,0c0,0,0,0,0,0
						c0,0,0,0,0,0l-0.7-0.4c0,0,0,0-0.1,0l-0.5,0.3c0-0.1-0.1-0.2-0.3-0.3l0.4-0.6c0,0,0,0,0,0l-0.4-0.8c0,0,0,0,0,0c0,0,0,0,0,0
						c0,0,0,0,0,0c0,0,0,0,0,0c0,0,0,0,0,0c0,0,0,0,0,0c0,0,0,0,0,0s0,0,0,0c0,0,0,0,0,0c0,0,0,0,0,0c0,0,0,0,0,0l0,0c0,0,0,0,0,0
						c0,0,0,0,0,0l-0.4,0.8c0,0,0,0,0,0l0.4,0.6c-0.1,0-0.2,0.1-0.3,0.3l-0.5-0.3c0,0,0,0-0.1,0l-0.7,0.4c0,0,0,0,0,0c0,0,0,0,0,0
						c0,0,0,0,0,0s0,0,0,0c0,0,0,0,0,0v0c0,0,0,0,0,0c0,0,0,0,0,0c0,0,0,0,0,0c0,0,0,0,0,0l0.7,0.4c0,0,0,0,0,0c0,0,0,0,0,0l0.5-0.3
						c0,0.1,0.1,0.2,0.3,0.3l-0.4,0.7c0,0,0,0,0,0.1l0.1,0.1c-0.2,0.1-0.3,0.3-0.4,0.5c0,0,0,0,0,0c0,0.1,0,0.2,0,0.3
						c0,0.2,0.1,0.4,0.2,0.6c0,0-0.1,0-0.1,0c-0.2,0-0.4,0.1-0.5,0.3c0,0,0,0,0,0c0-0.3-0.2-0.5-0.5-0.5c-0.2,0-0.3,0.1-0.4,0.2
						c0-0.3-0.2-0.5-0.5-0.5c-0.2,0-0.3,0.1-0.4,0.2c0-0.2-0.2-0.4-0.5-0.4c-0.2,0-0.3,0.1-0.4,0.2c-0.1-0.2-0.2-0.3-0.4-0.3
						c-0.2,0-0.4,0.1-0.5,0.4c-0.1-0.2-0.2-0.3-0.4-0.3c-0.3,0-0.5,0.2-0.5,0.5c-0.1-0.1-0.2-0.2-0.4-0.2c-0.3,0-0.5,0.2-0.5,0.5
						c0,0.1,0,0.1,0,0.1c-0.1-0.1-0.2-0.1-0.3-0.1c-0.3,0-0.5,0.2-0.5,0.5c0,0.1,0,0.2,0.1,0.3c-0.1,0-0.1,0-0.2,0
						c-0.3,0-0.5,0.2-0.5,0.5c0,0.2,0.1,0.3,0.2,0.4c-0.3,0-0.5,0.2-0.5,0.5c0,0.2,0.1,0.4,0.3,0.5c-0.2,0.1-0.3,0.2-0.3,0.5
						c0,0.2,0.2,0.4,0.4,0.5c-0.1,0.1-0.2,0.2-0.2,0.4c0,0.3,0.2,0.5,0.5,0.5c0.3,0,0.5-0.2,0.5-0.5c0.1,0.2,0.1,0.3,0.2,0.4
						c0,0,0,0,0,0c-0.5-0.1-1,0.1-1.5,0.5c0,0,0,0,0,0c0,0,0,0,0,0c0.5,0.5,0.8,1.3,1.1,1.9c0,0.1,0.1,0.2,0.1,0.3
						c0.2,0.5,0.4,1.3,0.9,1.8c0.2,0.2,0.4,0.4,0.6,0.4c0.4,0.1,2.1,0.6,5.7,0.6c3.5,0,5.2-0.5,5.7-0.6c0.2-0.1,0.4-0.2,0.6-0.4
						c0.4-0.5,0.7-1.2,0.9-1.8c0-0.1,0.1-0.2,0.1-0.3C26.7,17.6,27,16.8,27.5,16.2C27.5,16.3,27.5,16.2,27.5,16.2
						C27.5,16.2,27.5,16.2,27.5,16.2z M20.1,8.2l0.6,0.3l-0.6,0.3l-0.5-0.3L20.1,8.2z M18.3,8.8l-0.6-0.3l0.6-0.3l0.5,0.3L18.3,8.8z
						 M25.9,15.6c-0.2,0.1-0.5,0.2-0.7,0.2c0.1-0.2,0.2-0.4,0.3-0.6c0.1-0.2,0.2-0.5,0.2-0.7c0.1-0.2,0.1-0.5,0.1-0.7
						c0-0.4-0.1-0.8-0.3-1.1c0,0,0-0.1-0.1-0.1c-0.1-0.1-0.2-0.2-0.3-0.3c-0.1-0.1-0.3-0.2-0.4-0.2c-0.1,0-0.2-0.1-0.3-0.1
						c0,0-0.1,0-0.1,0c-0.1,0-0.3,0-0.4-0.1c-0.1,0-0.3,0-0.4,0c-0.1,0-0.3,0-0.4,0c0,0-0.1,0-0.1,0c0,0-0.1,0-0.1,0c0,0,0,0,0,0h0
						c0,0,0,0,0,0c0,0-0.1,0-0.1,0c-0.1,0-0.3,0-0.4,0.1c-0.2,0-0.3,0.1-0.4,0.1l-0.4,0.1c-0.1,0-0.3,0.1-0.4,0.1
						c-0.1,0-0.3,0.1-0.4,0.1c0,0,0,0,0,0c-0.2,0-0.3,0.1-0.4,0.1c-0.2,0-0.3,0-0.5,0.1c0,0-0.1,0-0.1,0c0-0.1,0.1-0.1,0.1-0.2
						c0-0.1,0-0.2-0.1-0.2c0,0,0.1,0,0.1,0c0.2,0,0.3,0,0.5,0c0.2,0,0.3,0,0.5-0.1c0.1,0,0.1,0,0.2,0l0.2,0c0.1,0,0.3-0.1,0.4-0.1
						c0.1,0,0.3-0.1,0.4-0.1c0.1,0,0.3-0.1,0.4-0.1c0.7-0.1,1.5-0.3,2.4,0c0.7,0.2,1.2,0.6,1.4,1.1C26.6,13.8,26.3,14.9,25.9,15.6z
						 M24.5,15.9c0.1,0.1,0.3,0.1,0.4,0.1c0.1,0,0.2,0,0.3,0c0.1,0,0.1,0,0.2,0c-0.5,0.3-0.8,0.7-0.9,0.9c0-0.4-0.1-0.7-0.2-1.1v0
						C24.4,15.8,24.4,15.8,24.5,15.9z M24.3,15.6V12c0,0,0,0,0,0c0.1,0,0.2,0.1,0.3,0.1v3.7c0,0-0.1,0-0.1-0.1
						C24.4,15.7,24.4,15.7,24.3,15.6z M24.7,15.9v-3.7c0.1,0.1,0.2,0.1,0.3,0.2v3.5C24.9,15.9,24.8,15.9,24.7,15.9z M25.1,15.8v-3.3
						c0.1,0.1,0.2,0.1,0.3,0.2c0,0,0,0,0.1,0.1v2.5C25.4,15.4,25.3,15.6,25.1,15.8z M25.6,14.9v-2.1c0.2,0.3,0.2,0.7,0.2,0.9
						C25.7,14.2,25.7,14.6,25.6,14.9z M24.2,12v3.5c0,0,0,0,0,0c0,0-0.1-0.1-0.1-0.1c0,0,0,0,0,0c0,0-0.1-0.1-0.1-0.1V12
						C24,12,24.1,12,24.2,12z M23.8,12v3.2c-0.1-0.1-0.2-0.1-0.3-0.1V12C23.6,12,23.7,12,23.8,12z M23.4,12v3c0,0-0.1,0-0.1,0
						c0,0,0,0,0,0c-0.1,0-0.1,0-0.2,0v-3C23.2,12,23.3,12,23.4,12z M23,12v3c-0.1,0-0.2,0-0.3,0.1v-3c0,0,0.1,0,0.1,0
						C22.8,12,22.9,12,23,12C22.9,12,23,12,23,12z M16.2,15.3c0.3,0.1,0.6,0.1,0.8,0.2c0,0,0,0,0,0c0.1,0,0.1,0,0.2,0
						c0.1,0,0.2,0,0.3,0c0,0,0,0,0,0c0.2-0.1,0.4-0.2,0.5-0.4c0,0.2-0.1,0.4-0.2,0.6c-0.2,0.3-0.4,0.6-0.5,1.1
						c-0.1-0.1-0.1-0.2-0.3-0.3c0,0-0.1-0.1-0.1-0.1c-0.2-0.2-0.4-0.4-0.5-0.6c-0.2-0.1-0.4-0.3-0.6-0.4
						C15.9,15.2,16.1,15.3,16.2,15.3z M15.8,15.1v-3c0.1,0,0.2,0.1,0.3,0.1v3C16,15.2,15.9,15.1,15.8,15.1z M17.9,13.3
						C17.9,13.3,17.9,13.3,17.9,13.3c-0.1-0.1-0.2-0.3-0.4-0.4c0,0,0,0,0,0c0,0,0,0,0,0c-0.2-0.2-0.5-0.4-0.8-0.5
						c-0.1-0.1-0.3-0.1-0.4-0.2c0.1,0,0.3,0.1,0.4,0.1l0.4,0.1c0.1,0,0.3,0.1,0.4,0.1c0.1,0,0.3,0.1,0.4,0.1c0,0,0,0,0,0
						c0.1,0,0.3,0,0.4,0.1c0,0.3,0,0.8-0.1,1.2C18.1,13.7,18,13.5,17.9,13.3z M18.1,14.3c0,0.1-0.1,0.3-0.2,0.5v-1.4
						C18.1,13.8,18.1,14.1,18.1,14.3z M17.8,13.3V15c-0.1,0.1-0.2,0.2-0.3,0.3V13C17.6,13.1,17.7,13.2,17.8,13.3z M17.4,12.9v2.4
						c-0.1,0-0.1,0-0.2,0c0,0-0.1,0-0.1,0v-2.7C17.2,12.8,17.3,12.8,17.4,12.9C17.4,12.9,17.4,12.9,17.4,12.9z M17,12.6v2.7
						c-0.1,0-0.2,0-0.3,0v-2.9C16.8,12.5,16.9,12.6,17,12.6z M16.6,12.4v2.9c-0.1,0-0.2,0-0.3-0.1v-2.9
						C16.3,12.3,16.4,12.4,16.6,12.4z M18.2,14.4C18.2,14.4,18.2,14.4,18.2,14.4C18.2,14.4,18.2,14.3,18.2,14.4
						C18.2,14.3,18.2,14.3,18.2,14.4c0.1-0.7,0.2-1.3,0.2-1.7c0.1,0,0.3,0,0.4,0.1c0,0.6-0.1,1.6-0.3,2.4c-0.1,0.1-0.3,0.1-0.4,0.2
						c0,0,0,0,0,0C18,15.1,18.1,14.7,18.2,14.4z M18.8,12.7c0.1,0,0.1,0,0.2,0c-0.1,0.1-0.2,0.2-0.2,0.3c0,0.2,0.1,0.3,0.3,0.3
						c-0.2,0.1-0.3,0.2-0.3,0.4c0,0.2,0.1,0.3,0.2,0.4c-0.2,0.1-0.3,0.3-0.3,0.5c0,0.2,0.1,0.3,0.2,0.4c-0.1,0-0.2,0-0.4,0.1
						C18.7,14.2,18.8,13.3,18.8,12.7z M19.5,11.5c0-0.1-0.1-0.1-0.1-0.1c0.1,0,0.1,0,0.2-0.1C19.6,11.4,19.5,11.5,19.5,11.5z
						 M19.9,12c-0.1,0-0.2,0-0.3,0c-0.1,0-0.1,0-0.2,0c0,0,0,0,0,0c0.1-0.1,0.2-0.1,0.2-0.3C19.6,11.9,19.7,12,19.9,12z M19.5,11.7
						c0,0.2-0.1,0.3-0.3,0.3c-0.2,0-0.3-0.1-0.3-0.3c0-0.1,0.1-0.3,0.3-0.3C19.4,11.4,19.5,11.6,19.5,11.7z M18.9,11.5
						c0-0.1,0-0.2-0.1-0.2c0.1,0,0.1,0.1,0.2,0.1C19,11.4,18.9,11.5,18.9,11.5z M18.8,11.8c0,0.1,0.1,0.2,0.2,0.3c0,0,0,0,0,0
						c-0.1,0-0.1,0-0.2,0c-0.1,0-0.2,0-0.3,0C18.7,12,18.8,11.9,18.8,11.8z M19,12.2c0.1,0,0.1,0,0.2,0c0,0,0,0,0,0
						c0.1,0,0.1,0,0.2,0c0.1,0.1,0.1,0.1,0.1,0.2c0,0.1-0.1,0.2-0.1,0.2c0,0-0.1,0-0.1,0c0,0-0.1,0-0.1,0c-0.1,0-0.1-0.1-0.1-0.2
						C18.9,12.3,19,12.2,19,12.2z M18.9,13c0-0.2,0.1-0.3,0.3-0.3c0.1,0,0.3,0.1,0.3,0.3s-0.1,0.3-0.3,0.3
						C19.1,13.3,18.9,13.2,18.9,13z M19.5,13.8c0,0.2-0.1,0.3-0.3,0.3c-0.2,0-0.3-0.1-0.3-0.3c0-0.2,0.1-0.3,0.3-0.3
						C19.4,13.5,19.5,13.6,19.5,13.8z M18.8,14.6c0-0.2,0.2-0.4,0.4-0.4c0.2,0,0.4,0.2,0.4,0.4c0,0.2-0.2,0.4-0.4,0.4
						C19,15,18.8,14.8,18.8,14.6z M19.7,14.6c0-0.2-0.1-0.4-0.3-0.5c0.1-0.1,0.2-0.2,0.2-0.4c0-0.2-0.1-0.3-0.3-0.4
						c0.1,0,0.3-0.2,0.3-0.3c0-0.1-0.1-0.3-0.2-0.3c0.1,0,0.1,0,0.2,0c0,0.6,0.1,1.5,0.3,2.4c-0.1,0-0.3-0.1-0.4-0.1
						C19.6,14.9,19.7,14.8,19.7,14.6z M19.7,12.7c0.1,0,0.3,0,0.4-0.1c0,0.4,0.1,1,0.2,1.7c0,0,0,0,0,0c0,0,0,0,0,0c0,0,0,0,0,0
						c0.1,0.4,0.1,0.7,0.2,1c0,0,0,0,0,0c-0.1-0.1-0.3-0.2-0.4-0.2C19.8,14.3,19.7,13.3,19.7,12.7z M21.8,12.3
						C21.8,12.3,21.8,12.3,21.8,12.3c-0.3,0.1-0.6,0.3-0.8,0.5c0,0,0,0,0,0c-0.2,0.1-0.3,0.3-0.4,0.4c0,0,0,0,0,0
						c-0.1,0.2-0.2,0.4-0.3,0.6c-0.1-0.5-0.1-0.9-0.1-1.2c0.1,0,0.2,0,0.4-0.1c0,0,0,0,0,0c0.1,0,0.3-0.1,0.4-0.1
						c0.1,0,0.3-0.1,0.4-0.1L21.8,12.3c0.1-0.1,0.3-0.1,0.4-0.2C22.1,12.2,21.9,12.3,21.8,12.3z M22.2,12.3v2.9
						c-0.1,0-0.2,0.1-0.3,0.1v-2.9C22,12.4,22.1,12.3,22.2,12.3z M21.8,12.5v2.9c-0.1,0-0.2,0-0.3,0v-2.7
						C21.6,12.6,21.7,12.5,21.8,12.5z M21.4,12.7v2.7c0,0-0.1,0-0.1,0c-0.1,0-0.1,0-0.2,0v-2.4c0,0,0,0,0,0
						C21.1,12.8,21.2,12.8,21.4,12.7z M20.9,13v2.3c-0.1-0.1-0.2-0.2-0.3-0.3v-1.7C20.7,13.2,20.8,13.1,20.9,13z M20.3,14.3
						c0-0.2,0-0.5,0.2-0.9v1.4C20.4,14.7,20.4,14.4,20.3,14.3C20.3,14.3,20.3,14.3,20.3,14.3C20.3,14.3,20.3,14.3,20.3,14.3z
						 M20.5,15c0.1,0.2,0.3,0.4,0.5,0.4c0,0,0,0,0,0c0.1,0,0.2,0,0.3,0c0.1,0,0.1,0,0.2,0c0,0,0,0,0,0c0.3,0,0.5-0.1,0.8-0.2
						c0.1,0,0.2-0.1,0.4-0.1c-0.2,0.1-0.5,0.3-0.6,0.4c-0.2,0.2-0.3,0.3-0.5,0.6c0,0,0,0.1-0.1,0.1c-0.1,0.1-0.2,0.2-0.3,0.3
						c-0.1-0.5-0.2-0.8-0.5-1.1C20.6,15.4,20.5,15.2,20.5,15z M22.3,15.2v-3c0.1-0.1,0.2-0.1,0.3-0.1v3
						C22.5,15.1,22.4,15.2,22.3,15.2z M24.5,11.5c0.1,0,0.2-0.1,0.3-0.2c0,0.1,0.1,0.2,0.1,0.3c-0.1,0-0.2-0.1-0.3-0.1
						C24.6,11.5,24.6,11.5,24.5,11.5z M25.7,12.1c-0.1-0.1-0.3-0.2-0.4-0.3c0,0,0,0,0,0c0.1,0,0.2,0,0.3-0.1c0,0,0,0.1,0,0.1
						C25.6,11.9,25.6,12,25.7,12.1z M26.1,12.7c-0.1-0.2-0.2-0.3-0.3-0.5c0.1,0.1,0.2,0.1,0.3,0.1c0.1,0,0.1,0,0.2,0
						C26.2,12.4,26.1,12.5,26.1,12.7C26.1,12.6,26.1,12.6,26.1,12.7z M26.4,13.6c0.1,0.1,0.2,0.2,0.3,0.3c-0.1,0-0.2,0.1-0.3,0.3
						C26.5,14,26.4,13.8,26.4,13.6z M26.6,14.8c-0.1,0-0.2,0.1-0.3,0.2c0-0.2,0.1-0.3,0.1-0.5C26.4,14.6,26.5,14.7,26.6,14.8z
						 M26.4,13.4c0-0.2-0.1-0.4-0.2-0.5c0.1,0.1,0.2,0.2,0.3,0.2C26.5,13.1,26.4,13.3,26.4,13.4z M27.1,15.2c0,0.2-0.2,0.4-0.4,0.4
						c-0.2,0-0.4-0.2-0.4-0.4c0-0.2,0.2-0.4,0.4-0.4C26.9,14.8,27.1,15,27.1,15.2z M27.3,14.3c0,0.2-0.2,0.4-0.4,0.4
						c-0.2,0-0.4-0.2-0.4-0.4c0-0.2,0.2-0.4,0.4-0.4C27.1,14,27.3,14.1,27.3,14.3z M27.2,13.4c0,0.2-0.2,0.4-0.4,0.4
						s-0.4-0.2-0.4-0.4s0.2-0.4,0.4-0.4C27.1,13.1,27.2,13.2,27.2,13.4z M26.6,12.2c0.2,0,0.4,0.2,0.4,0.4S26.8,13,26.6,13
						c-0.2,0-0.4-0.2-0.4-0.4S26.4,12.2,26.6,12.2z M26.1,11.4c0.2,0,0.4,0.2,0.4,0.4c0,0.2-0.2,0.4-0.4,0.4c-0.2,0-0.4-0.2-0.4-0.4
						C25.7,11.6,25.9,11.4,26.1,11.4z M25.3,11c0.2,0,0.4,0.2,0.4,0.4c0,0.2-0.2,0.4-0.4,0.4c-0.2,0-0.4-0.2-0.4-0.4
						C24.9,11.1,25.1,11,25.3,11z M24.4,10.7c0.2,0,0.4,0.2,0.4,0.4c0,0.2-0.2,0.4-0.4,0.4c-0.2,0-0.4-0.2-0.4-0.4
						C24.1,10.9,24.2,10.7,24.4,10.7z M24.2,11.4c-0.1,0-0.3,0-0.4,0c0.1,0,0.2-0.1,0.2-0.2C24,11.3,24.1,11.4,24.2,11.4z
						 M23.6,10.6c0.2,0,0.4,0.2,0.4,0.4c0,0.2-0.2,0.4-0.4,0.4c-0.2,0-0.4-0.2-0.4-0.4C23.2,10.8,23.3,10.6,23.6,10.6z M23.1,11.2
						c0,0.1,0.1,0.2,0.2,0.2c-0.1,0-0.3,0-0.4,0C23,11.4,23.1,11.3,23.1,11.2z M22.7,10.7c0.2,0,0.4,0.2,0.4,0.4
						c0,0.2-0.2,0.4-0.4,0.4c-0.2,0-0.4-0.2-0.4-0.4C22.3,10.8,22.5,10.7,22.7,10.7z M22.3,11.3c0.1,0.1,0.2,0.2,0.3,0.2
						c-0.1,0-0.3,0.1-0.4,0.1c-0.1,0-0.1,0-0.2,0C22.2,11.5,22.3,11.4,22.3,11.3z M21.8,10.8c0.2,0,0.4,0.2,0.4,0.4
						c0,0.2-0.2,0.4-0.4,0.4s-0.4-0.2-0.4-0.4C21.4,11,21.6,10.8,21.8,10.8z M21.4,11.4c0.1,0.1,0.2,0.2,0.4,0.2
						c-0.1,0-0.3,0.1-0.4,0.1c-0.1,0-0.2,0-0.3,0.1C21.3,11.8,21.4,11.6,21.4,11.4z M20.9,11c0.2,0,0.4,0.2,0.4,0.4
						c0,0.2-0.2,0.4-0.4,0.4c-0.2,0-0.4-0.2-0.4-0.4C20.5,11.2,20.7,11,20.9,11z M20.5,11.6L20.5,11.6c0.1,0.2,0.2,0.3,0.4,0.3
						l-0.1,0c-0.1,0-0.1,0-0.2,0c-0.1,0-0.2,0-0.3,0.1C20.4,11.9,20.5,11.8,20.5,11.6z M20,11.2c0.2,0,0.4,0.2,0.4,0.4
						c0,0.2-0.2,0.4-0.4,0.4c-0.2,0-0.4-0.2-0.4-0.4C19.6,11.4,19.8,11.2,20,11.2z M19.9,10.3h-0.5V9.8C19.7,9.9,19.8,10,19.9,10.3z
						 M18.8,7.5l0.4-0.7l0.4,0.7l-0.4,0.6L18.8,7.5z M19,8.5c0-0.1,0.1-0.3,0.3-0.3c0.1,0,0.3,0.1,0.3,0.3c0,0.1-0.1,0.3-0.3,0.3
						C19.1,8.8,19,8.7,19,8.5z M19.2,8.9l0.4,0.7l-0.1,0.1c-0.1,0-0.2-0.1-0.3-0.1c-0.1,0-0.2,0-0.3,0.1l-0.1-0.1L19.2,8.9z M19,9.8
						v0.4h-0.5C18.6,10,18.7,9.9,19,9.8z M18.4,10.5c0-0.1,0-0.1,0-0.2H19c0,0,0,0,0,0V9.8c0.1,0,0.1,0,0.2,0c0.1,0,0.1,0,0.2,0v0.5
						c0,0,0,0,0,0H20c0,0.1,0,0.1,0,0.2c0,0,0,0.1,0,0.1h-1.5C18.4,10.6,18.4,10.6,18.4,10.5z M18.5,10.8H20
						c-0.1,0.3-0.4,0.6-0.7,0.6C18.9,11.3,18.6,11.1,18.5,10.8z M18.4,11.2c0.2,0,0.4,0.2,0.4,0.4c0,0.2-0.2,0.4-0.4,0.4
						c-0.2,0-0.4-0.2-0.4-0.4C18,11.4,18.2,11.2,18.4,11.2z M17.9,11.6C17.9,11.6,17.9,11.6,17.9,11.6c0,0.2,0.1,0.4,0.2,0.5
						c-0.1,0-0.2,0-0.3-0.1c-0.1,0-0.1,0-0.2,0l-0.1,0C17.7,11.9,17.9,11.7,17.9,11.6z M17.5,11c0.2,0,0.4,0.2,0.4,0.4
						c0,0.2-0.2,0.4-0.4,0.4c-0.2,0-0.4-0.2-0.4-0.4C17.1,11.2,17.3,11,17.5,11z M17.3,11.8c-0.1,0-0.2,0-0.3-0.1l-0.4-0.1
						c0.2,0,0.3-0.1,0.4-0.2C17,11.6,17.1,11.8,17.3,11.8z M16.6,10.8c0.2,0,0.4,0.2,0.4,0.4c0,0.2-0.2,0.4-0.4,0.4
						c-0.2,0-0.4-0.2-0.4-0.4C16.2,11,16.4,10.8,16.6,10.8z M16.4,11.6c-0.1,0-0.1,0-0.2,0c-0.1,0-0.3-0.1-0.4-0.1
						c0.1,0,0.3-0.1,0.3-0.2C16.2,11.4,16.2,11.5,16.4,11.6z M15.7,10.7c0.2,0,0.4,0.2,0.4,0.4c0,0.2-0.2,0.4-0.4,0.4
						c-0.2,0-0.4-0.2-0.4-0.4C15.3,10.8,15.5,10.7,15.7,10.7z M15.5,11.4c-0.1,0-0.3,0-0.4,0c0.1,0,0.2-0.1,0.2-0.2
						C15.3,11.3,15.4,11.4,15.5,11.4z M14.9,10.6c0.2,0,0.4,0.2,0.4,0.4c0,0.2-0.2,0.4-0.4,0.4s-0.4-0.2-0.4-0.4
						C14.5,10.8,14.7,10.6,14.9,10.6z M14.4,11.2c0,0.1,0.1,0.2,0.2,0.2c-0.1,0-0.3,0-0.4,0C14.3,11.4,14.4,11.3,14.4,11.2z
						 M14,10.7c0.2,0,0.4,0.2,0.4,0.4c0,0.2-0.2,0.4-0.4,0.4c-0.2,0-0.4-0.2-0.4-0.4C13.6,10.9,13.8,10.7,14,10.7z M13.6,11.4
						c0.1,0.1,0.2,0.2,0.3,0.2c0,0-0.1,0-0.1,0c-0.1,0-0.2,0.1-0.3,0.1C13.5,11.6,13.6,11.5,13.6,11.4z M13.1,11
						c0.2,0,0.4,0.2,0.4,0.4c0,0.2-0.2,0.4-0.4,0.4c-0.2,0-0.4-0.2-0.4-0.4C12.7,11.1,12.9,11,13.1,11z M12.8,11.7
						c0.1,0.1,0.2,0.1,0.3,0.1c0,0,0,0,0,0c-0.2,0.1-0.3,0.2-0.4,0.3c0.1-0.1,0.1-0.2,0.1-0.3C12.8,11.8,12.8,11.7,12.8,11.7z
						 M12,11.8c0-0.2,0.2-0.4,0.4-0.4c0.2,0,0.4,0.2,0.4,0.4c0,0.2-0.2,0.4-0.4,0.4C12.1,12.2,12,12,12,11.8z M12.2,12.3
						c0.1,0,0.1,0,0.2,0c0.1,0,0.2,0,0.3-0.1c-0.1,0.1-0.2,0.3-0.3,0.5c0,0,0-0.1,0-0.1C12.3,12.5,12.3,12.4,12.2,12.3z M11.4,12.6
						c0-0.2,0.2-0.4,0.4-0.4c0.2,0,0.4,0.2,0.4,0.4S12,13,11.8,13C11.6,13,11.4,12.8,11.4,12.6z M12,14.2c-0.1-0.1-0.2-0.2-0.3-0.3
						c0.1,0,0.3-0.1,0.3-0.3C12,13.8,12,14,12,14.2z M12,14.4c0,0.2,0.1,0.3,0.1,0.5c-0.1-0.1-0.2-0.2-0.3-0.2
						C11.9,14.7,12,14.6,12,14.4z M11.8,13.1c0.1,0,0.3-0.1,0.3-0.2c-0.1,0.2-0.1,0.3-0.2,0.5C12,13.3,11.9,13.1,11.8,13.1z
						 M11.2,13.4c0-0.2,0.2-0.4,0.4-0.4c0.2,0,0.4,0.2,0.4,0.4s-0.2,0.4-0.4,0.4C11.3,13.8,11.2,13.6,11.2,13.4z M11.2,14.3
						c0-0.2,0.2-0.4,0.4-0.4c0.2,0,0.4,0.2,0.4,0.4c0,0.2-0.2,0.4-0.4,0.4C11.3,14.7,11.2,14.6,11.2,14.3z M11.7,15.6
						c-0.2,0-0.4-0.2-0.4-0.4c0-0.2,0.2-0.4,0.4-0.4c0.2,0,0.4,0.2,0.4,0.4C12.1,15.4,11.9,15.6,11.7,15.6z M12.4,12.7
						c0.3-0.5,0.8-0.9,1.4-1.1c0.9-0.3,1.7-0.1,2.4,0c0.1,0,0.3,0.1,0.4,0.1c0.1,0,0.3,0.1,0.4,0.1c0.1,0,0.3,0.1,0.4,0.1l0.2,0
						c0.1,0,0.1,0,0.2,0c0.2,0,0.3,0.1,0.5,0.1c0.2,0,0.3,0,0.5,0c0,0,0.1,0,0.1,0c0,0.1-0.1,0.1-0.1,0.2c0,0.1,0,0.2,0.1,0.2
						c0,0-0.1,0-0.1,0c-0.2,0-0.3,0-0.5-0.1c-0.1,0-0.3,0-0.4-0.1c0,0,0,0,0,0c-0.1,0-0.3-0.1-0.4-0.1c-0.1,0-0.3-0.1-0.4-0.1
						l-0.4-0.1c-0.1,0-0.3-0.1-0.4-0.1C16,12,15.9,12,15.8,12c0,0-0.1,0-0.1,0c0,0,0,0,0,0h0c0,0,0,0,0,0c0,0-0.1,0-0.1,0
						c0,0-0.1,0-0.1,0c-0.2,0-0.3,0-0.4,0c-0.1,0-0.3,0-0.4,0c-0.2,0-0.3,0-0.4,0.1c0,0-0.1,0-0.1,0c-0.1,0-0.2,0.1-0.3,0.1
						c-0.1,0.1-0.3,0.1-0.4,0.2c-0.1,0.1-0.2,0.2-0.4,0.3c0,0-0.1,0.1-0.1,0.1c-0.2,0.3-0.3,0.7-0.3,1.1c0,0.5,0.1,1,0.3,1.4
						c0.1,0.2,0.2,0.4,0.3,0.6c-0.1,0-0.2,0-0.3-0.1c0,0,0,0,0,0c-0.2,0-0.3-0.1-0.4-0.2C12.1,14.9,11.8,13.8,12.4,12.7z M15.7,12.1
						v3c-0.1,0-0.2,0-0.3-0.1v-3c0,0,0.1,0,0.1,0C15.6,12,15.6,12,15.7,12.1C15.7,12,15.7,12.1,15.7,12.1z M15.3,12v3
						c-0.1,0-0.1,0-0.2,0c0,0,0,0,0,0h0c0,0-0.1,0-0.1,0v-3C15.1,12,15.2,12,15.3,12z M14.9,12V15c-0.1,0-0.2,0.1-0.3,0.1V12
						C14.7,12,14.8,12,14.9,12z M14.5,12v3.2c0,0-0.1,0.1-0.1,0.1c0,0,0,0,0,0c0,0-0.1,0.1-0.1,0.1c0,0,0,0,0,0V12
						C14.3,12,14.4,12,14.5,12z M13.5,16c0.2,0,0.3,0,0.4-0.1c0,0,0.1-0.1,0.1-0.1v0c-0.1,0.3-0.2,0.7-0.2,1.1
						c-0.1-0.2-0.5-0.7-0.9-0.9c0.1,0,0.1,0,0.2,0C13.3,16,13.4,16,13.5,16z M13.3,15.8c-0.1-0.2-0.2-0.4-0.3-0.6v-2.5
						c0,0,0,0,0.1-0.1c0.1-0.1,0.2-0.2,0.3-0.2C13.3,12.4,13.3,15.8,13.3,15.8z M13.4,15.9v-3.5c0.1-0.1,0.2-0.1,0.3-0.2v3.7
						C13.6,15.9,13.5,15.9,13.4,15.9z M13.9,15.8c0,0-0.1,0-0.1,0.1v-3.7c0.1,0,0.2-0.1,0.3-0.1c0,0,0,0,0,0v3.6
						C14,15.7,14,15.7,13.9,15.8z M12.9,12.9v2.1c-0.1-0.4-0.2-0.7-0.2-1.1C12.7,13.6,12.7,13.2,12.9,12.9z M24.8,20.6
						c-0.4,0.1-2.1,0.6-5.6,0.6c-3.5,0-5.2-0.5-5.6-0.6c-0.2-0.1-0.4-0.2-0.5-0.4c0.1-0.1,0.2-0.1,0.3-0.2c0.2-0.1,0.4-0.1,0.6-0.2
						c0.2-0.1,0.5-0.1,0.9-0.2c1.7-0.2,4.3-0.2,4.4-0.2h0.3c0.3,0,1,0,1.7,0c0.1,0,0.1,0,0.2,0c0.1,0,0.2,0,0.4,0c0.1,0,0.1,0,0.2,0
						c0.1,0,0.2,0,0.3,0c0.4,0,0.9,0.1,1.2,0.1c0.1,0,0.1,0,0.2,0c0.7,0.1,1.1,0.2,1.5,0.4c0.1,0.1,0.2,0.1,0.3,0.2
						C25.2,20.5,25,20.6,24.8,20.6z M26.4,18.2c0,0.1-0.1,0.2-0.1,0.3c-0.2,0.5-0.4,1.2-0.8,1.7c-0.1,0-0.2-0.1-0.3-0.2v-0.3
						c0,0,0,0,0,0s0,0,0,0V20c-0.1,0-0.2-0.1-0.2-0.1v-0.3c0,0,0,0,0,0c0,0-0.1,0-0.1,0v0.3c-0.1,0-0.1,0-0.2-0.1v-0.3
						c0,0,0-0.1,0-0.1s0,0,0,0.1v0.2c-0.1,0-0.2,0-0.3-0.1v-0.2c0,0,0,0,0,0s0,0,0,0v0.2c-0.1,0-0.2,0-0.3-0.1v-0.2c0,0,0,0,0,0
						c0,0,0,0,0,0v0.2c-0.1,0-0.2,0-0.3,0v-0.2c0,0,0,0,0,0c0,0,0,0,0,0v0.2c-0.1,0-0.2,0-0.3,0v-0.2c0,0,0,0,0,0c0,0,0,0,0,0v0.2
						c-0.1,0-0.2,0-0.3,0v-0.2c0,0,0,0,0,0c0,0,0,0,0,0v0.2c-0.1,0-0.2,0-0.3,0v-0.2c0,0,0,0,0,0c0,0,0,0,0,0v0.2
						c-0.1,0-0.2,0-0.3,0v-0.3c0,0,0,0,0,0c0,0,0,0,0,0v0.3c-0.1,0-0.2,0-0.3,0v-0.3c0,0,0,0,0,0c0,0,0,0,0,0v0.3
						c-0.1,0-0.2,0-0.3,0v-0.3c0,0,0,0,0,0c0,0,0,0,0,0v0.3c-0.1,0-0.2,0-0.3,0v-0.3c0,0,0,0,0,0c0,0,0,0,0,0v0.3
						c-0.1,0-0.3,0-0.4,0v-0.3c0,0,0-0.1,0-0.1c0,0,0,0,0,0.1v0.3c-0.3,0-0.5,0-0.5,0v-0.3c0,0,0-0.1,0-0.1c0,0-0.1,0-0.1,0.1v0.3
						c-0.1,0-0.3,0-0.5,0v-0.3c0,0,0-0.1-0.1-0.1c0,0,0,0,0,0.1v0.3c-0.1,0-0.2,0-0.4,0v-0.3c0,0,0,0,0,0c0,0,0,0,0,0v0.3
						c-0.1,0-0.2,0-0.3,0v-0.3c0,0,0,0,0,0s0,0,0,0v0.3c-0.1,0-0.2,0-0.3,0v-0.3c0,0,0,0,0,0c0,0,0,0,0,0v0.3c-0.1,0-0.2,0-0.3,0
						v-0.3c0,0,0,0,0,0c0,0,0,0,0,0v0.3c-0.1,0-0.2,0-0.3,0v-0.2c0,0,0,0,0,0c0,0,0,0,0,0v0.2c-0.1,0-0.2,0-0.3,0v-0.2c0,0,0,0,0,0
						c0,0,0,0,0,0v0.2c-0.1,0-0.2,0-0.3,0v-0.2c0,0,0,0,0,0c0,0,0,0,0,0v0.2c-0.1,0-0.2,0-0.3,0v-0.2c0,0,0,0,0,0c0,0-0.1,0-0.1,0
						v0.2c-0.1,0-0.2,0-0.3,0v-0.2c0,0,0,0,0,0c0,0,0,0,0,0v0.2c-0.1,0-0.2,0-0.3,0.1v-0.2c0,0,0,0,0,0c0,0,0,0,0,0v0.2
						c-0.1,0-0.2,0-0.3,0.1v-0.2c0,0,0-0.1,0-0.1c0,0,0,0,0,0.1v0.3c-0.1,0-0.1,0-0.2,0.1v-0.3c0,0,0,0-0.1,0c0,0,0,0,0,0v0.3
						c-0.1,0-0.2,0.1-0.2,0.1v-0.2c0,0,0,0,0,0c0,0,0,0,0,0V20c-0.1,0.1-0.2,0.1-0.3,0.2c-0.4-0.5-0.6-1.2-0.8-1.7
						c0-0.1-0.1-0.2-0.1-0.3c-0.2-0.6-0.6-1.4-1-1.9c0.5-0.4,1-0.5,1.5-0.4c0.9,0.2,1.4,1.2,1.4,1.2c0,0,0,0,0.1,0c0,0,0,0,0-0.1
						c0-0.5,0.1-1.2,0.4-1.6c0.2-0.2,0.5-0.3,0.7-0.3c0.5,0,0.9,0.3,1.2,0.6c0.2,0.2,0.3,0.3,0.5,0.6c0,0,0,0.1,0.1,0.1
						c0.1,0.1,0.3,0.4,0.3,0.4c0,0,0,0.1,0,0.1c0,0,0.1,0,0.1,0c0-0.3,0.1-0.6,0.2-0.8c0.1-0.2,0.3-0.4,0.4-0.6
						c0.5-0.4,1.2-0.3,1.2-0.3c0,0,0,0,0,0c0,0,0,0,0,0c0,0,0.7-0.1,1.2,0.3c0.4,0.3,0.6,0.7,0.6,1.4c0,0,0,0,0,0c0,0,0,0,0,0
						c0,0,0,0,0-0.1c0-0.1,0.2-0.3,0.3-0.4c0,0,0.1-0.1,0.1-0.1c0.2-0.2,0.4-0.4,0.5-0.6c0.3-0.3,0.7-0.6,1.2-0.6
						c0.3,0,0.5,0.1,0.7,0.3c0.3,0.4,0.5,1.1,0.4,1.6c0,0,0,0,0,0.1c0,0,0,0,0.1,0c0,0,0.5-1,1.4-1.2c0.5-0.1,1,0,1.5,0.4
						C26.9,16.8,26.6,17.5,26.4,18.2z"/>
					<path class="st4" d="M26.9,14c0.2,0,0.4,0.2,0.4,0.4c0,0.2-0.2,0.4-0.4,0.4s-0.4-0.2-0.4-0.4C26.5,14.1,26.7,14,26.9,14z"/>
					<path class="st4" d="M26.9,13.1c0.2,0,0.4,0.2,0.4,0.4c0,0.2-0.2,0.4-0.4,0.4c-0.2,0-0.4-0.2-0.4-0.4
						C26.5,13.2,26.7,13.1,26.9,13.1z"/>
					<path class="st4" d="M26.7,14.8c0.2,0,0.4,0.2,0.4,0.4c0,0.2-0.2,0.4-0.4,0.4c-0.2,0-0.4-0.2-0.4-0.4
						C26.3,15,26.5,14.8,26.7,14.8z"/>
					<path class="st4" d="M26.6,12.2c0.2,0,0.4,0.2,0.4,0.4c0,0.2-0.2,0.4-0.4,0.4c-0.2,0-0.4-0.2-0.4-0.4
						C26.2,12.4,26.4,12.2,26.6,12.2z"/>
					<path class="st4" d="M25.9,15.8c-0.9,0.2-1.4,1.2-1.4,1.2c0,0,0,0-0.1,0c0,0,0,0,0-0.1c0-0.5-0.1-1.2-0.4-1.6
						c-0.2-0.2-0.5-0.3-0.7-0.3c-0.5,0-0.9,0.3-1.2,0.6c-0.2,0.2-0.3,0.3-0.5,0.6c0,0,0,0.1-0.1,0.1c-0.1,0.1-0.3,0.4-0.3,0.4
						c0,0,0,0.1,0,0.1c0,0,0,0,0,0c0,0,0,0,0,0c-0.1-0.6-0.3-1.1-0.6-1.4c-0.5-0.4-1.2-0.3-1.2-0.3c0,0,0,0,0,0c0,0,0,0,0,0
						c0,0-0.7-0.1-1.2,0.3c-0.2,0.1-0.3,0.3-0.4,0.6c-0.1,0.2-0.2,0.5-0.2,0.8c0,0,0,0-0.1,0c0,0,0,0,0-0.1c0-0.1-0.2-0.3-0.3-0.4
						c0,0-0.1-0.1-0.1-0.1c-0.2-0.2-0.4-0.4-0.5-0.6c-0.3-0.3-0.7-0.6-1.2-0.6c-0.3,0-0.5,0.1-0.7,0.3C14.1,15.8,14,16.5,14,17
						c0,0,0,0,0,0.1c0,0,0,0-0.1,0c0,0-0.5-1-1.4-1.2c-0.5-0.1-1,0-1.5,0.4c0.5,0.5,0.8,1.3,1,1.9c0,0.1,0.1,0.2,0.1,0.3
						c0.2,0.5,0.4,1.2,0.8,1.7c0.1,0,0.2-0.1,0.3-0.2v-0.3c0,0,0,0,0,0c0,0,0,0,0,0V20c0.1,0,0.2-0.1,0.2-0.1v-0.3c0,0,0,0,0,0
						c0,0,0.1,0,0.1,0v0.3c0.1,0,0.1,0,0.2-0.1v-0.3c0,0,0-0.1,0-0.1c0,0,0,0,0,0.1v0.2c0.1,0,0.2,0,0.3-0.1v-0.2c0,0,0,0,0,0
						c0,0,0,0,0,0v0.2c0.1,0,0.2,0,0.3-0.1v-0.2c0,0,0,0,0,0c0,0,0,0,0,0v0.2c0.1,0,0.2,0,0.3,0v-0.2c0,0,0,0,0.1,0c0,0,0,0,0,0v0.2
						c0.1,0,0.2,0,0.3,0v-0.2c0,0,0,0,0,0c0,0,0,0,0,0v0.2c0.1,0,0.2,0,0.3,0v-0.2c0,0,0,0,0,0c0,0,0,0,0,0v0.2c0.1,0,0.2,0,0.3,0
						v-0.2c0,0,0,0,0,0c0,0,0,0,0,0v0.2c0.1,0,0.2,0,0.3,0v-0.3c0,0,0,0,0,0c0,0,0,0,0,0v0.3c0.1,0,0.2,0,0.3,0v-0.3c0,0,0,0,0,0
						c0,0,0,0,0,0v0.3c0.1,0,0.2,0,0.3,0v-0.3c0,0,0,0,0,0s0,0,0,0v0.3c0.1,0,0.2,0,0.3,0v-0.3c0,0,0,0,0,0c0,0,0,0,0,0v0.3
						c0.1,0,0.3,0,0.4,0v-0.3c0,0,0-0.1,0-0.1c0,0,0.1,0,0.1,0.1v0.3c0.3,0,0.4,0,0.5,0v-0.3c0,0,0-0.1,0.1-0.1c0,0,0,0,0,0.1v0.3
						c0.1,0,0.3,0,0.5,0v-0.3c0,0,0-0.1,0-0.1c0,0,0,0,0,0.1v0.3c0.1,0,0.2,0,0.4,0v-0.3c0,0,0,0,0,0c0,0,0,0,0,0v0.3
						c0.1,0,0.2,0,0.3,0v-0.3c0,0,0,0,0,0c0,0,0,0,0,0v0.3c0.1,0,0.2,0,0.3,0v-0.3c0,0,0,0,0,0c0,0,0,0,0,0v0.3c0.1,0,0.2,0,0.3,0
						v-0.3c0,0,0,0,0,0s0,0,0,0v0.3c0.1,0,0.2,0,0.3,0v-0.2c0,0,0,0,0,0c0,0,0,0,0,0v0.2c0.1,0,0.2,0,0.3,0v-0.2c0,0,0,0,0,0
						c0,0,0,0,0,0v0.2c0.1,0,0.2,0,0.3,0v-0.2c0,0,0,0,0,0c0,0,0,0,0,0v0.2c0.1,0,0.2,0,0.3,0v-0.2c0,0,0,0,0,0c0,0,0,0,0,0v0.2
						c0.1,0,0.2,0,0.3,0v-0.2c0,0,0,0,0,0c0,0,0,0,0,0v0.2c0.1,0,0.2,0,0.3,0.1v-0.2c0,0,0,0,0,0s0,0,0,0v0.2c0.1,0,0.2,0,0.3,0.1
						v-0.2c0,0,0-0.1,0-0.1c0,0,0,0,0,0.1v0.3c0.1,0,0.1,0,0.2,0.1v-0.3c0,0,0,0,0.1,0c0,0,0,0,0,0v0.3c0.1,0,0.2,0.1,0.2,0.1v-0.2
						c0,0,0,0,0,0s0,0,0,0V20c0.1,0.1,0.2,0.1,0.3,0.2c0.4-0.5,0.6-1.2,0.8-1.7c0-0.1,0.1-0.2,0.1-0.3c0.2-0.6,0.5-1.4,1-1.9
						C26.9,15.9,26.4,15.7,25.9,15.8z M13.2,16.6C13.2,16.6,13.2,16.6,13.2,16.6l0.2,0.3c0,0,0,0.1,0,0.1c0,0,0,0,0,0c0,0,0,0,0,0
						L13.2,16.6C13.1,16.6,13.2,16.6,13.2,16.6z M12.8,16.4C12.9,16.4,12.9,16.4,12.8,16.4l0.2,0.3c0,0,0,0.1,0,0.1c0,0,0,0,0,0
						c0,0,0,0,0,0L12.8,16.4C12.8,16.5,12.8,16.5,12.8,16.4z M12.4,16.3C12.5,16.3,12.5,16.3,12.4,16.3l0.2,0.4c0,0,0,0.1,0,0.1
						c0,0,0,0,0,0c0,0,0,0,0,0L12.4,16.3C12.4,16.4,12.4,16.3,12.4,16.3z M12,16.6C12,16.6,11.9,16.7,12,16.6
						C11.9,16.7,11.9,16.7,12,16.6l-0.3-0.2c0,0,0,0,0-0.1c0,0,0,0,0.1,0L12,16.6C12,16.6,12,16.6,12,16.6z M12.3,16.6
						C12.3,16.6,12.3,16.6,12.3,16.6C12.2,16.6,12.2,16.6,12.3,16.6L12,16.3c0,0,0-0.1,0-0.1c0,0,0.1,0,0.1,0L12.3,16.6
						C12.3,16.6,12.3,16.6,12.3,16.6z M13.6,18.9C13.6,18.9,13.6,18.8,13.6,18.9c-0.4-0.5-1-1-1.2-1.1c0,0,0,0,0,0c0,0,0,0,0,0
						c0.1,0,0.2,0.1,0.2,0.1c0.5,0.1,0.3-0.2,0.1-0.6c0.5,0.6,0.7,0.5,0.9,0.3C13.4,17.9,13.5,18.5,13.6,18.9
						C13.6,18.9,13.6,18.9,13.6,18.9z M15.9,15.7C16,15.7,16,15.7,15.9,15.7l0.1,0.4c0,0,0,0.1,0,0.1c0,0,0,0,0,0c0,0,0,0,0,0
						L15.9,15.7C15.9,15.8,15.9,15.7,15.9,15.7z M15.5,15.6C15.6,15.6,15.6,15.6,15.5,15.6l0.2,0.4c0,0,0,0.1,0,0.1h0c0,0,0,0,0,0
						L15.5,15.6C15.5,15.6,15.5,15.6,15.5,15.6z M15.2,15.6C15.2,15.6,15.2,15.6,15.2,15.6l0.2,0.4c0,0,0,0.1,0,0.1c0,0,0,0,0,0
						c0,0,0,0,0,0L15.2,15.6C15.1,15.6,15.1,15.6,15.2,15.6z M14.6,17.1C14.5,17.1,14.5,17.1,14.6,17.1
						C14.5,17.1,14.5,17.1,14.6,17.1l-0.3-0.3c0,0,0,0,0-0.1c0,0,0,0,0.1,0L14.6,17.1C14.6,17.1,14.6,17.1,14.6,17.1z M14.7,16.7
						C14.7,16.7,14.7,16.7,14.7,16.7C14.7,16.7,14.6,16.7,14.7,16.7l-0.3-0.3c0,0,0-0.1,0-0.1c0,0,0.1,0,0.1,0L14.7,16.7
						C14.7,16.7,14.7,16.7,14.7,16.7z M14.8,16.4C14.8,16.4,14.8,16.4,14.8,16.4C14.8,16.4,14.8,16.4,14.8,16.4l-0.3-0.3
						c0,0,0-0.1,0-0.1c0,0,0.1,0,0.1,0L14.8,16.4C14.9,16.4,14.9,16.4,14.8,16.4z M15,16.1l-0.1-0.3c0,0,0-0.1,0-0.1
						c0,0,0.1,0,0.1,0L15,16.1C15.1,16.1,15.1,16.1,15,16.1C15,16.1,15,16.1,15,16.1C15,16.1,15,16.1,15,16.1z M16.1,18.5
						c-0.1-0.6-1-1.4-1-1.4c0.6,0.2,0.5-0.2,0.4-0.7c0.3,0.5,0.5,0.7,0.8,0.5C16,17,16,17.6,16.1,18.5z M16.4,16.3
						C16.4,16.3,16.4,16.3,16.4,16.3C16.4,16.3,16.4,16.3,16.4,16.3L16.3,16c0,0,0-0.1,0-0.1c0,0,0.1,0,0.1,0L16.4,16.3
						C16.5,16.3,16.5,16.3,16.4,16.3z M20,15.7C20,15.6,20,15.6,20,15.7C20,15.6,20.1,15.6,20,15.7l0.1,0.3c0,0,0,0.1,0,0.1
						c0,0,0,0,0-0.1V15.7z M19.6,15.5C19.6,15.5,19.6,15.4,19.6,15.5C19.7,15.4,19.7,15.5,19.6,15.5l0.1,0.3c0,0,0,0,0,0
						c0,0,0,0,0,0V15.5z M19.3,15.5C19.3,15.4,19.4,15.4,19.3,15.5C19.4,15.4,19.4,15.4,19.3,15.5l0.1,0.4c0,0,0,0,0,0c0,0,0,0,0,0
						V15.5z M19,15.5C19,15.4,19,15.4,19,15.5C19.1,15.4,19.1,15.4,19,15.5l0.1,0.4c0,0,0,0,0,0c0,0,0,0,0,0V15.5z M18.7,15.5
						C18.7,15.5,18.7,15.4,18.7,15.5C18.8,15.4,18.8,15.5,18.7,15.5l0.1,0.3c0,0,0,0-0.1,0s0,0,0,0V15.5z M18.3,15.7
						C18.3,15.6,18.4,15.6,18.3,15.7C18.4,15.6,18.4,15.6,18.3,15.7l0.1,0.3c0,0,0,0.1,0,0.1s0,0,0-0.1V15.7z M17.9,16.8
						C17.9,16.8,17.9,16.8,17.9,16.8C17.9,16.8,17.9,16.8,17.9,16.8l-0.2-0.3c0,0,0-0.1,0-0.1c0,0,0.1,0,0.1,0L17.9,16.8
						C18,16.8,18,16.8,17.9,16.8z M18.1,16.4C18.1,16.4,18.1,16.4,18.1,16.4C18.1,16.4,18.1,16.4,18.1,16.4L18,16c0,0,0-0.1,0-0.1
						c0,0,0.1,0,0.1,0L18.1,16.4C18.2,16.4,18.1,16.4,18.1,16.4z M19.2,18.7c-0.1-1-0.7-1.6-0.9-2.1c0.8,0.7,0.9-0.4,0.9-0.4
						s0.1,1.1,0.9,0.4C19.9,17,19.3,17.7,19.2,18.7z M20.4,16.4C20.4,16.4,20.3,16.4,20.4,16.4L20.4,16.4
						C20.3,16.4,20.3,16.4,20.4,16.4l0-0.4c0,0,0,0,0.1,0c0,0,0,0,0,0.1L20.4,16.4z M20.6,16.5l-0.1,0.3c0,0,0,0,0,0c0,0,0,0,0,0
						c0,0,0,0,0-0.1L20.6,16.5C20.6,16.5,20.6,16.4,20.6,16.5C20.6,16.5,20.7,16.5,20.6,16.5z M22,16.3C22,16.3,22,16.3,22,16.3
						C22,16.3,22,16.3,22,16.3C22,16.3,21.9,16.3,22,16.3l0-0.3c0,0,0,0,0.1,0c0,0,0,0,0,0.1L22,16.3z M23.2,15.6
						C23.2,15.6,23.2,15.6,23.2,15.6C23.3,15.6,23.3,15.6,23.2,15.6l0,0.4c0,0,0,0,0,0c0,0,0,0,0,0c0,0,0,0,0-0.1L23.2,15.6z
						 M22.8,15.6C22.8,15.6,22.9,15.6,22.8,15.6C22.9,15.6,22.9,15.6,22.8,15.6l0,0.4c0,0,0,0,0,0h0c0,0,0,0,0-0.1L22.8,15.6z
						 M22.4,15.8C22.4,15.7,22.5,15.7,22.4,15.8C22.5,15.7,22.5,15.8,22.4,15.8l0,0.4c0,0,0,0,0,0c0,0,0,0,0,0c0,0,0,0,0-0.1
						L22.4,15.8z M22.4,18.5c0.1-0.9,0-1.5-0.1-1.7c0.3,0.2,0.5,0.1,0.8-0.5c-0.1,0.6-0.2,0.9,0.4,0.7
						C23.4,17.1,22.5,17.9,22.4,18.5z M23.4,16.1C23.4,16.1,23.4,16.1,23.4,16.1C23.4,16.1,23.4,16.1,23.4,16.1l0.1-0.3
						c0,0,0,0,0.1,0c0,0,0,0,0,0.1L23.4,16.1C23.4,16.1,23.4,16.1,23.4,16.1z M23.7,16.4C23.6,16.4,23.6,16.4,23.7,16.4
						C23.6,16.4,23.6,16.4,23.7,16.4C23.6,16.4,23.6,16.4,23.7,16.4l0.1-0.4c0,0,0,0,0.1,0c0,0,0,0,0,0.1L23.7,16.4z M23.7,16.7
						C23.7,16.7,23.7,16.7,23.7,16.7C23.7,16.7,23.7,16.7,23.7,16.7l0.2-0.4c0,0,0,0,0.1,0c0,0,0,0,0,0.1L23.7,16.7
						C23.8,16.7,23.8,16.7,23.7,16.7z M24.2,16.8l-0.3,0.3c0,0,0,0,0,0c0,0,0,0,0,0c0,0,0,0,0-0.1L24.2,16.8
						C24.1,16.7,24.2,16.7,24.2,16.8C24.2,16.8,24.2,16.8,24.2,16.8z M25.7,16.7l0.2-0.4c0,0,0,0,0.1,0c0,0,0,0,0,0.1L25.7,16.7
						C25.8,16.8,25.8,16.8,25.7,16.7C25.8,16.8,25.8,16.8,25.7,16.7C25.7,16.8,25.7,16.7,25.7,16.7z M25.4,16.8l0.1-0.3
						c0,0,0,0,0.1,0c0,0,0,0,0,0.1L25.4,16.8C25.5,16.8,25.5,16.8,25.4,16.8C25.4,16.8,25.4,16.8,25.4,16.8
						C25.4,16.8,25.4,16.8,25.4,16.8z M25.2,16.6C25.2,16.6,25.2,16.6,25.2,16.6C25.3,16.6,25.3,16.6,25.2,16.6l0,0.4c0,0,0,0,0,0
						c0,0,0,0,0,0c0,0,0,0,0-0.1L25.2,16.6z M26.1,17.7C26.1,17.7,26,17.8,26.1,17.7c-0.1,0-0.1,0.1-0.1,0.1c0,0-0.1,0-0.1,0.1
						c0,0-0.1,0.1-0.1,0.1c0,0,0,0-0.1,0c0,0-0.1,0.1-0.1,0.1c-0.1,0-0.1,0.1-0.2,0.1c0,0-0.1,0.1-0.1,0.1c-0.2,0.1-0.3,0.3-0.4,0.4
						c0,0,0,0,0,0.1c0,0,0,0.1-0.1,0.1c0.2-0.5,0.2-1.1,0.1-1.6c0.2,0.3,0.4,0.4,0.9-0.3c-0.2,0.4-0.3,0.7,0.1,0.6
						C25.9,17.8,26,17.8,26.1,17.7C26.1,17.7,26.1,17.7,26.1,17.7z M26.4,16.3l-0.2,0.3c0,0,0,0,0,0c0,0,0,0,0,0c0,0,0,0,0-0.1
						L26.4,16.3C26.3,16.2,26.4,16.2,26.4,16.3C26.4,16.3,26.4,16.3,26.4,16.3z M26.5,16.6C26.5,16.7,26.5,16.7,26.5,16.6
						C26.5,16.7,26.5,16.6,26.5,16.6C26.4,16.6,26.4,16.6,26.5,16.6l0.2-0.3c0,0,0.1,0,0.1,0c0,0,0,0.1,0,0.1L26.5,16.6z"/>
					<path class="st5" d="M26.8,16.3C26.8,16.4,26.8,16.4,26.8,16.3l-0.3,0.3c0,0,0,0,0,0c0,0,0,0,0,0c0,0,0-0.1,0-0.1L26.8,16.3
						C26.8,16.3,26.8,16.3,26.8,16.3z"/>
					<path class="st5" d="M26.4,16.2C26.4,16.3,26.4,16.3,26.4,16.2l-0.2,0.4c0,0,0,0,0,0c0,0,0,0,0,0c0,0,0,0,0-0.1L26.4,16.2
						C26.3,16.2,26.4,16.2,26.4,16.2z"/>
					<path class="st4" d="M26.1,11.5c0.2,0,0.4,0.2,0.4,0.4s-0.2,0.4-0.4,0.4c-0.2,0-0.4-0.2-0.4-0.4C25.7,11.6,25.9,11.5,26.1,11.5
						z"/>
					<path class="st4" d="M26.1,12.8c0.5,1.1,0.2,2.1-0.1,2.9c-0.2,0.1-0.5,0.2-0.7,0.2c0.1-0.2,0.2-0.4,0.3-0.6c0,0,0,0,0,0
						c0.1-0.2,0.2-0.5,0.2-0.7c0.1-0.2,0.1-0.5,0.1-0.7c0-0.4-0.1-0.8-0.3-1.1c0,0,0-0.1-0.1-0.1c-0.1-0.1-0.2-0.2-0.3-0.3
						c-0.1-0.1-0.3-0.2-0.4-0.2c-0.1,0-0.2-0.1-0.3-0.1c0,0-0.1,0-0.1,0c-0.1,0-0.3,0-0.4-0.1c-0.1,0-0.3,0-0.4,0
						c-0.1,0-0.3,0-0.4,0c0,0-0.1,0-0.1,0c0,0-0.1,0-0.1,0c0,0,0,0,0,0c0,0,0,0,0,0c0,0,0,0,0,0c0,0,0,0,0,0c0,0-0.1,0-0.1,0
						c-0.1,0-0.3,0-0.4,0.1c-0.2,0-0.3,0.1-0.4,0.1l-0.4,0.1c-0.1,0-0.3,0.1-0.4,0.1c-0.1,0-0.3,0.1-0.4,0.1c0,0,0,0,0,0
						c-0.2,0-0.3,0.1-0.4,0.1c-0.2,0-0.3,0-0.5,0.1c0,0-0.1,0-0.1,0c0-0.1,0.1-0.1,0.1-0.2c0-0.1,0-0.2-0.1-0.2c0,0,0.1,0,0.1,0
						c0.2,0,0.3,0,0.5,0c0.2,0,0.3,0,0.5-0.1c0.1,0,0.1,0,0.2,0l0.2,0c0.1,0,0.3-0.1,0.4-0.1c0.1,0,0.3-0.1,0.4-0.1
						c0.1,0,0.3-0.1,0.4-0.1c0.7-0.1,1.5-0.3,2.4,0C25.3,11.8,25.8,12.2,26.1,12.8z"/>
					<path class="st5" d="M26,16.3C26,16.3,26,16.4,26,16.3l-0.2,0.4c0,0,0,0,0,0c0,0,0,0,0,0c0,0,0,0,0-0.1L26,16.3
						C25.9,16.3,26,16.3,26,16.3z"/>
					<path class="st4" d="M25.6,12.9c0.2,0.3,0.2,0.7,0.2,0.9c0,0.4-0.1,0.8-0.2,1.1V12.9z"/>
					<path class="st5" d="M25.7,17.2c-0.2,0.5-0.4,0.8,0.4,0.5c0,0-1.1,0.8-1.3,1.3c0.2-0.5,0.2-1.1,0.1-1.6
						C25.1,17.7,25.3,17.8,25.7,17.2z"/>
					<path class="st5" d="M25.6,16.4C25.6,16.5,25.6,16.5,25.6,16.4l-0.1,0.4c0,0,0,0,0,0c0,0,0,0,0,0c0,0,0,0,0-0.1L25.6,16.4
						C25.5,16.4,25.6,16.4,25.6,16.4z"/>
					<circle class="st4" cx="25.3" cy="11.3" r="0.4"/>
					<path class="st4" d="M25.5,12.7v2.5c-0.1,0.2-0.2,0.4-0.3,0.6v-3.3C25.2,12.5,25.3,12.6,25.5,12.7
						C25.4,12.7,25.4,12.7,25.5,12.7z"/>
					<path class="st5" d="M25.2,16c0.1,0,0.1,0,0.2,0c-0.5,0.3-0.8,0.7-0.9,0.9c0-0.4-0.1-0.7-0.2-1.1v0c0,0,0.1,0.1,0.1,0.1
						c0.1,0.1,0.3,0.1,0.4,0.1C25,16,25.1,16,25.2,16z"/>
					<path class="st5" d="M25.2,16.6C25.3,16.6,25.3,16.6,25.2,16.6L25.1,17c0,0,0,0,0,0c0,0,0,0,0,0c0,0,0,0,0-0.1L25.2,16.6
						C25.2,16.6,25.2,16.6,25.2,16.6z"/>
					<path class="st5" d="M25.1,20.1c0.1,0.1,0.2,0.1,0.3,0.2c-0.2,0.2-0.3,0.3-0.5,0.4c-0.4,0.1-2.1,0.6-5.6,0.6
						c-3.5,0-5.2-0.5-5.6-0.6c-0.2-0.1-0.4-0.2-0.5-0.4c0.1,0,0.2-0.1,0.3-0.2c0.2-0.1,0.4-0.1,0.6-0.2c0.2-0.1,0.5-0.1,0.9-0.2
						c1.7-0.2,4.3-0.2,4.4-0.2c0,0,0,0,0,0c0,0,2.7,0,4.4,0.2C24.2,19.8,24.7,20,25.1,20.1C25.1,20.1,25.1,20.1,25.1,20.1z"/>
					<path class="st4" d="M25.1,12.4v3.5c-0.1,0-0.2,0-0.3,0v-3.7C24.8,12.2,25,12.3,25.1,12.4z"/>
					<path class="st4" d="M24.4,10.7c0.2,0,0.4,0.2,0.4,0.4c0,0.2-0.2,0.4-0.4,0.4c-0.2,0-0.4-0.2-0.4-0.4
						C24.1,10.9,24.2,10.7,24.4,10.7z"/>
					<path class="st4" d="M24.6,12.2v3.7c0,0-0.1,0-0.1-0.1c-0.1,0-0.1-0.1-0.2-0.2V12c0,0,0,0,0,0C24.4,12.1,24.5,12.1,24.6,12.2z"
						/>
					<path class="st4" d="M24.2,12v3.5c0,0,0,0,0,0c0,0-0.1-0.1-0.1-0.1c0,0,0,0,0,0c0,0-0.1-0.1-0.1-0.1V12C24,12,24.1,12,24.2,12z
						"/>
					<path class="st5" d="M24.2,16.7C24.2,16.8,24.2,16.8,24.2,16.7l-0.2,0.4c0,0,0,0,0,0c0,0,0,0,0,0c0,0,0,0,0-0.1L24.2,16.7
						C24.1,16.7,24.2,16.7,24.2,16.7z"/>
					<path class="st5" d="M24.1,16.3C24.1,16.3,24.1,16.4,24.1,16.3l-0.3,0.4c0,0,0,0,0,0c0,0,0,0,0,0c0,0,0,0,0-0.1L24.1,16.3
						C24,16.3,24,16.3,24.1,16.3z"/>
					<path class="st5" d="M23.9,16C23.9,16,23.9,16.1,23.9,16l-0.2,0.4c0,0,0,0,0,0c0,0,0,0,0,0c0,0,0,0,0-0.1L23.9,16
						C23.8,16,23.8,16,23.9,16z"/>
					<path class="st4" d="M23.6,10.6c0.2,0,0.4,0.2,0.4,0.4c0,0.2-0.2,0.4-0.4,0.4c-0.2,0-0.4-0.2-0.4-0.4
						C23.2,10.8,23.3,10.6,23.6,10.6z"/>
					<path class="st4" d="M23.8,12v3.2c-0.1-0.1-0.2-0.1-0.3-0.1V12C23.6,12,23.7,12,23.8,12z"/>
					<path class="st5" d="M23.5,15.7C23.6,15.7,23.6,15.8,23.5,15.7l-0.1,0.3c0,0,0,0,0,0c0,0,0,0,0,0c0,0,0,0,0-0.1L23.5,15.7
						C23.5,15.7,23.5,15.7,23.5,15.7z"/>
					<path class="st4" d="M23.4,12v3c0,0-0.1,0-0.1,0c0,0,0,0,0,0c0,0,0,0,0,0c-0.1,0-0.1,0-0.2,0v-3C23.2,12,23.3,12,23.4,12z"/>
					<path class="st5" d="M23.3,15.6C23.3,15.6,23.3,15.6,23.3,15.6L23.1,16c0,0,0,0,0,0c0,0,0,0,0,0c0,0,0,0,0-0.1L23.3,15.6
						C23.2,15.6,23.2,15.6,23.3,15.6z"/>
					<path class="st5" d="M23,16.3c-0.1,0.6-0.2,0.9,0.4,0.7c0,0-0.9,0.9-1,1.4c0.1-0.9,0-1.5-0.1-1.7C22.6,17.1,22.7,16.9,23,16.3z
						"/>
					<path class="st4" d="M23,12v3c-0.1,0-0.2,0-0.3,0.1v-3c0,0,0.1,0,0.1,0C22.8,12,22.9,12,23,12C22.9,12,23,12,23,12z"/>
					<circle class="st4" cx="22.7" cy="11" r="0.4"/>
					<path class="st5" d="M22.9,15.6C22.9,15.6,22.9,15.6,22.9,15.6L22.8,16c0,0,0,0,0,0c0,0,0,0,0,0c0,0,0,0,0-0.1L22.9,15.6
						C22.8,15.6,22.9,15.6,22.9,15.6z"/>
					<path class="st4" d="M22.6,12.1v3c-0.1,0-0.2,0-0.3,0.1v-3C22.4,12.2,22.5,12.1,22.6,12.1z"/>
					<path class="st5" d="M22.5,15.7C22.5,15.7,22.5,15.8,22.5,15.7l0,0.4c0,0,0,0,0,0c0,0,0,0,0,0c0,0,0,0,0-0.1L22.5,15.7
						C22.4,15.7,22.5,15.7,22.5,15.7z"/>
					<path class="st5" d="M22.2,15.3c0.1,0,0.2-0.1,0.4-0.1c-0.2,0.1-0.5,0.3-0.6,0.4c-0.2,0.2-0.3,0.3-0.5,0.6c0,0,0,0.1-0.1,0.1
						c-0.1,0.1-0.2,0.2-0.3,0.3c-0.1-0.5-0.2-0.8-0.5-1.1c-0.1-0.2-0.1-0.4-0.2-0.6c0.1,0.2,0.3,0.4,0.5,0.4c0,0,0,0,0,0
						c0.1,0,0.2,0,0.3,0c0.1,0,0.1,0,0.2,0c0,0,0,0,0,0c0,0,0,0,0,0C21.7,15.4,22,15.4,22.2,15.3z"/>
					<path class="st4" d="M22.2,12.3v2.9c-0.1,0-0.2,0.1-0.3,0.1v-2.9C22,12.4,22.1,12.3,22.2,12.3z"/>
					<path class="st5" d="M22.1,16C22.1,16,22.1,16,22.1,16L22,16.3c0,0,0,0,0,0c0,0,0,0,0,0c0,0,0,0,0-0.1L22.1,16
						C22.1,16,22.1,16,22.1,16z"/>
					<path class="st4" d="M21.8,10.8c0.2,0,0.4,0.2,0.4,0.4c0,0.2-0.2,0.4-0.4,0.4s-0.4-0.2-0.4-0.4C21.4,11,21.6,10.8,21.8,10.8z"
						/>
					<path class="st5" d="M22.2,12.2c-0.1,0.1-0.3,0.1-0.4,0.2c0,0,0,0,0,0c-0.3,0.1-0.6,0.3-0.8,0.5c0,0,0,0,0,0c0,0,0,0,0,0
						c-0.2,0.1-0.3,0.3-0.4,0.4c0,0,0,0,0,0c-0.1,0.2-0.2,0.4-0.3,0.6c-0.1-0.5-0.1-0.9-0.1-1.2c0.1,0,0.2,0,0.4-0.1c0,0,0,0,0,0
						c0.1,0,0.3-0.1,0.4-0.1c0.1,0,0.3-0.1,0.4-0.1l0.4-0.1C21.9,12.2,22.1,12.2,22.2,12.2z"/>
					<path class="st4" d="M21.8,12.5v2.9c-0.1,0-0.2,0-0.3,0v-2.7C21.6,12.6,21.7,12.5,21.8,12.5z"/>
					<path class="st4" d="M21.4,12.7v2.7c0,0-0.1,0-0.1,0c-0.1,0-0.1,0-0.2,0v-2.4c0,0,0,0,0,0C21.1,12.8,21.2,12.8,21.4,12.7z"/>
					<path class="st4" d="M20.9,11c0.2,0,0.4,0.2,0.4,0.4c0,0.2-0.2,0.4-0.4,0.4c-0.2,0-0.4-0.2-0.4-0.4C20.5,11.2,20.7,11,20.9,11z
						"/>
					<path class="st4" d="M20.9,13v2.3c-0.1-0.1-0.2-0.2-0.3-0.3v-1.7C20.7,13.2,20.8,13.1,20.9,13z"/>
					<path class="st5" d="M20.6,16.5C20.6,16.5,20.7,16.5,20.6,16.5l-0.1,0.3c0,0,0,0,0,0c0,0,0,0,0,0c0,0,0,0,0-0.1L20.6,16.5
						C20.6,16.5,20.6,16.4,20.6,16.5z"/>
					<path class="st4" d="M20.5,13.5v1.4c-0.1-0.2-0.2-0.5-0.2-0.5c0,0,0,0,0,0s0,0,0,0C20.3,14.1,20.3,13.8,20.5,13.5z"/>
					<path class="st4" d="M20.5,15.4C20.5,15.4,20.5,15.4,20.5,15.4c-0.2-0.1-0.3-0.2-0.5-0.3c-0.2-0.9-0.3-1.8-0.3-2.4
						c0.1,0,0.3,0,0.4-0.1c0,0.4,0.1,1,0.2,1.7c0,0,0,0,0,0c0,0,0,0,0,0c0,0,0,0,0,0c0,0,0,0,0,0C20.3,14.7,20.4,15.1,20.5,15.4z"/>
					<path class="st5" d="M20.4,16C20.4,16,20.4,16,20.4,16l0,0.4c0,0,0,0,0,0c0,0,0,0,0,0c0,0,0,0,0-0.1L20.4,16
						C20.3,16,20.4,16,20.4,16z"/>
					<path class="st4" d="M20,11.2c0.2,0,0.4,0.2,0.4,0.4S20.2,12,20,12c-0.2,0-0.4-0.2-0.4-0.4S19.8,11.2,20,11.2z"/>
					<path class="st5" d="M20.1,15.7V16c0,0,0,0,0,0c0,0,0,0,0,0L20.1,15.7C20,15.6,20,15.6,20.1,15.7C20,15.6,20.1,15.6,20.1,15.7z
						"/>
					<path class="st5" d="M19.7,15.5v0.3c0,0,0,0,0,0c0,0,0,0,0,0L19.7,15.5C19.6,15.5,19.6,15.4,19.7,15.5
						C19.7,15.4,19.7,15.5,19.7,15.5z"/>
					<path class="st5" d="M19.2,16.1c0,0,0.1,1.1,0.9,0.4c-0.2,0.5-0.8,1.1-0.9,2.1c-0.1-1-0.7-1.6-0.9-2.1
						C19.1,17.2,19.2,16.1,19.2,16.1z"/>
					<path class="st5" d="M19.6,12.7c0,0.6,0.1,1.5,0.3,2.4c-0.1,0-0.3-0.1-0.4-0.1c0.1-0.1,0.2-0.2,0.2-0.4c0-0.2-0.1-0.4-0.3-0.5
						c0.1-0.1,0.2-0.2,0.2-0.4c0-0.2-0.1-0.3-0.3-0.4c0.1,0,0.3-0.2,0.3-0.3c0-0.1-0.1-0.3-0.2-0.3C19.5,12.7,19.5,12.7,19.6,12.7z"
						/>
					<path class="st4" d="M19.2,14.2c0.2,0,0.4,0.2,0.4,0.4c0,0.2-0.2,0.4-0.4,0.4c-0.2,0-0.4-0.2-0.4-0.4
						C18.8,14.4,19,14.2,19.2,14.2z"/>
					<path class="st4" d="M19.2,13.5c0.2,0,0.3,0.1,0.3,0.3c0,0.2-0.1,0.3-0.3,0.3c-0.2,0-0.3-0.1-0.3-0.3
						C18.9,13.6,19,13.5,19.2,13.5z"/>
					<path class="st5" d="M19.4,15.5v0.4c0,0,0,0,0,0c0,0,0,0,0,0L19.4,15.5C19.3,15.4,19.4,15.4,19.4,15.5
						C19.4,15.4,19.4,15.4,19.4,15.5z"/>
					<path class="st4" d="M19.2,11.5c0.1,0,0.3,0.1,0.3,0.3c0,0.2-0.1,0.3-0.3,0.3c-0.2,0-0.3-0.1-0.3-0.3
						C18.9,11.6,19.1,11.5,19.2,11.5z"/>
					<path class="st4" d="M19.2,12.8c0.1,0,0.3,0.1,0.3,0.3s-0.1,0.3-0.3,0.3c-0.2,0-0.3-0.1-0.3-0.3S19.1,12.8,19.2,12.8z"/>
					<path class="st4" d="M19.4,12.2c0.1,0,0.1,0.1,0.1,0.2c0,0.1-0.1,0.2-0.1,0.2c0,0-0.1,0-0.1,0c0,0-0.1,0-0.1,0
						c-0.1,0-0.1-0.1-0.1-0.2c0-0.1,0-0.2,0.1-0.2c0.1,0,0.1,0,0.2,0c0,0,0,0,0,0c0,0,0,0,0,0C19.3,12.2,19.3,12.2,19.4,12.2z"/>
					<path class="st5" d="M19.1,15.5v0.4c0,0,0,0,0,0c0,0,0,0,0,0L19.1,15.5C19,15.4,19,15.4,19.1,15.5
						C19.1,15.4,19.1,15.4,19.1,15.5z"/>
					<path class="st5" d="M18.8,12.7c0.1,0,0.1,0,0.2,0c-0.1,0.1-0.2,0.2-0.2,0.3c0,0.2,0.1,0.3,0.3,0.3c-0.2,0.1-0.3,0.2-0.3,0.4
						c0,0.2,0.1,0.3,0.2,0.4c-0.2,0.1-0.3,0.3-0.3,0.5c0,0.2,0.1,0.3,0.2,0.4c-0.1,0-0.2,0-0.4,0.1C18.7,14.2,18.8,13.3,18.8,12.7z"
						/>
					<path class="st4" d="M18.8,12.2C18.8,12.2,18.9,12.2,18.8,12.2c0.1,0.1,0,0.1,0,0.2c0,0.1,0,0.2,0.1,0.2c0,0-0.1,0-0.1,0
						c-0.2,0-0.3,0-0.5-0.1c-0.1,0-0.3,0-0.4-0.1c0,0,0,0,0,0c-0.1,0-0.3-0.1-0.4-0.1c-0.1,0-0.3-0.1-0.4-0.1l-0.4-0.1
						c-0.1,0-0.3-0.1-0.4-0.1C16,12,15.9,12,15.8,12c0,0-0.1,0-0.1,0c0,0,0,0,0,0c0,0,0,0,0,0c0,0,0,0,0,0c0,0,0,0,0,0
						c0,0-0.1,0-0.1,0c0,0-0.1,0-0.1,0c-0.2,0-0.3,0-0.4,0c-0.1,0-0.3,0-0.4,0c-0.2,0-0.3,0-0.4,0.1c0,0-0.1,0-0.1,0
						c-0.1,0-0.2,0.1-0.3,0.1c-0.1,0.1-0.3,0.1-0.4,0.2c-0.1,0.1-0.2,0.2-0.3,0.3c0,0-0.1,0.1-0.1,0.1c-0.2,0.3-0.3,0.7-0.3,1.1
						c0,0.5,0.1,1,0.3,1.4c0.1,0.2,0.2,0.4,0.3,0.6c-0.1,0-0.2,0-0.3-0.1c0,0,0,0,0,0c-0.2,0-0.3-0.1-0.4-0.2
						c-0.3-0.7-0.6-1.8-0.1-2.9c0.3-0.5,0.8-0.9,1.4-1.1c0.9-0.3,1.7-0.1,2.4,0c0.1,0,0.3,0.1,0.4,0.1c0.1,0,0.3,0.1,0.4,0.1
						c0.1,0,0.3,0.1,0.4,0.1l0.2,0c0.1,0,0.1,0,0.2,0c0.2,0,0.3,0.1,0.5,0.1C18.5,12.1,18.6,12.2,18.8,12.2z"/>
					<polygon class="st4" points="18.8,8.5 18.3,8.8 17.8,8.5 18.3,8.2 					"/>
					<path class="st5" d="M18.8,15.5v0.3c0,0,0,0,0,0c0,0,0,0,0,0L18.8,15.5C18.7,15.5,18.7,15.4,18.8,15.5
						C18.8,15.4,18.8,15.5,18.8,15.5z"/>
					<path class="st4" d="M18.4,11.2c0.2,0,0.4,0.2,0.4,0.4S18.6,12,18.4,12S18,11.8,18,11.6S18.2,11.2,18.4,11.2z"/>
					<path class="st4" d="M18.7,12.7c0,0.6-0.1,1.6-0.3,2.4c-0.1,0.1-0.3,0.1-0.4,0.2c0,0,0,0,0,0c0.1-0.3,0.2-0.6,0.2-1
						c0,0,0,0,0,0c0,0,0,0,0,0c0,0,0,0,0,0c0.1-0.6,0.1-1.3,0.2-1.7C18.5,12.6,18.6,12.7,18.7,12.7z"/>
					<path class="st5" d="M18.4,15.7V16c0,0,0,0,0,0c0,0,0,0,0,0L18.4,15.7C18.4,15.6,18.4,15.6,18.4,15.7
						C18.4,15.6,18.4,15.6,18.4,15.7z"/>
					<path class="st5" d="M18.3,12.6c0,0.3,0,0.8-0.1,1.2c0-0.2-0.1-0.4-0.3-0.6c0,0,0,0,0,0c-0.1-0.1-0.2-0.3-0.4-0.4c0,0,0,0,0,0
						c0,0,0,0,0,0c-0.2-0.2-0.5-0.4-0.8-0.5c0,0,0,0,0,0c-0.1-0.1-0.3-0.1-0.4-0.2c0.1,0,0.3,0.1,0.4,0.1l0.4,0.1
						c0.1,0,0.3,0.1,0.4,0.1c0.1,0,0.3,0.1,0.4,0.1c0,0,0,0,0,0C18,12.6,18.1,12.6,18.3,12.6z"/>
					<path class="st5" d="M18.1,16.4C18.2,16.4,18.1,16.4,18.1,16.4C18.1,16.4,18.1,16.4,18.1,16.4C18.1,16.4,18.1,16.4,18.1,16.4
						L18,16c0,0,0-0.1,0-0.1c0,0,0.1,0,0.1,0L18.1,16.4z"/>
					<path class="st4" d="M17.9,13.5c0.2,0.3,0.2,0.6,0.2,0.9c0,0.1-0.1,0.3-0.2,0.5V13.5z"/>
					<path class="st5" d="M18,16.7C18,16.8,18,16.8,18,16.7C17.9,16.8,17.9,16.8,18,16.7C17.9,16.8,17.9,16.8,18,16.7l-0.2-0.2
						c0,0,0-0.1,0-0.1c0,0,0.1,0,0.1,0L18,16.7z"/>
					<path class="st5" d="M18,15c0,0.2-0.1,0.4-0.2,0.6c-0.2,0.3-0.4,0.6-0.5,1.1c-0.1-0.1-0.1-0.2-0.3-0.3c0,0-0.1-0.1-0.1-0.1
						c-0.2-0.2-0.4-0.4-0.5-0.6c-0.2-0.1-0.4-0.3-0.6-0.4c0.1,0,0.2,0.1,0.4,0.1c0.3,0.1,0.6,0.1,0.8,0.2c0,0,0,0,0,0c0,0,0,0,0,0
						c0.1,0,0.1,0,0.2,0c0.1,0,0.2,0,0.3,0c0,0,0,0,0,0C17.7,15.3,17.8,15.2,18,15z"/>
					<path class="st4" d="M17.8,13.3V15c-0.1,0.1-0.2,0.2-0.3,0.3V13C17.6,13.1,17.7,13.2,17.8,13.3z"/>
					<path class="st4" d="M17.5,11c0.2,0,0.4,0.2,0.4,0.4c0,0.2-0.2,0.4-0.4,0.4s-0.4-0.2-0.4-0.4C17.1,11.2,17.3,11,17.5,11z"/>
					<path class="st4" d="M17.4,12.9v2.4c-0.1,0-0.1,0-0.2,0c0,0-0.1,0-0.1,0v-2.7C17.2,12.8,17.3,12.8,17.4,12.9
						C17.4,12.9,17.4,12.9,17.4,12.9z"/>
					<path class="st4" d="M17,12.6v2.7c-0.1,0-0.2,0-0.3,0v-2.9C16.8,12.5,16.9,12.6,17,12.6z"/>
					<path class="st4" d="M16.6,10.8c0.2,0,0.4,0.2,0.4,0.4c0,0.2-0.2,0.4-0.4,0.4c-0.2,0-0.4-0.2-0.4-0.4
						C16.2,11,16.4,10.8,16.6,10.8z"/>
					<path class="st4" d="M16.6,12.4v2.9c-0.1,0-0.2,0-0.3-0.1v-2.9C16.3,12.3,16.4,12.4,16.6,12.4z"/>
					<path class="st5" d="M16.5,16.3C16.5,16.3,16.5,16.3,16.5,16.3C16.4,16.3,16.4,16.3,16.5,16.3C16.4,16.3,16.4,16.3,16.5,16.3
						L16.3,16c0,0,0-0.1,0-0.1c0,0,0.1,0,0.1,0L16.5,16.3z"/>
					<path class="st4" d="M16.1,12.2v3c-0.1,0-0.2-0.1-0.3-0.1v-3C15.9,12.1,16,12.2,16.1,12.2z"/>
					<path class="st5" d="M16.1,16.1C16.1,16.2,16,16.2,16.1,16.1C16,16.2,16,16.2,16.1,16.1C16,16.2,16,16.2,16.1,16.1l-0.2-0.4
						c0,0,0-0.1,0-0.1c0,0,0.1,0,0.1,0L16.1,16.1z"/>
					<path class="st5" d="M16.1,16.8C16,17,16,17.6,16.1,18.5c-0.1-0.6-1-1.4-1-1.4c0.6,0.2,0.5-0.2,0.4-0.7
						C15.7,16.9,15.8,17.1,16.1,16.8z"/>
					<circle class="st4" cx="15.7" cy="11" r="0.4"/>
					<path class="st4" d="M15.7,12.1v3c-0.1,0-0.2,0-0.3-0.1v-3c0,0,0.1,0,0.1,0C15.6,12,15.6,12,15.7,12.1
						C15.7,12,15.7,12.1,15.7,12.1z"/>
					<path class="st5" d="M15.7,16C15.7,16,15.7,16.1,15.7,16C15.7,16.1,15.6,16.1,15.7,16C15.6,16.1,15.6,16.1,15.7,16l-0.2-0.4
						c0,0,0-0.1,0-0.1c0,0,0.1,0,0.1,0L15.7,16z"/>
					<path class="st5" d="M15.4,16C15.4,16,15.4,16,15.4,16C15.3,16,15.3,16,15.4,16C15.3,16,15.3,16,15.4,16l-0.2-0.3
						c0,0,0-0.1,0-0.1c0,0,0.1,0,0.1,0L15.4,16z"/>
					<path class="st4" d="M15.3,12v3c-0.1,0-0.1,0-0.2,0c0,0,0,0,0,0h0c0,0,0,0,0,0c0,0-0.1,0-0.1,0v-3C15.1,12,15.2,12,15.3,12z"/>
					<path class="st4" d="M14.9,10.6c0.2,0,0.4,0.2,0.4,0.4c0,0.2-0.2,0.4-0.4,0.4c-0.2,0-0.4-0.2-0.4-0.4
						C14.5,10.8,14.7,10.6,14.9,10.6z"/>
					<path class="st5" d="M15.1,16C15.1,16.1,15.1,16.1,15.1,16C15,16.1,15,16.1,15.1,16C15,16.1,15,16.1,15.1,16l-0.2-0.2
						c0,0,0-0.1,0-0.1c0,0,0.1,0,0.1,0L15.1,16z"/>
					<path class="st4" d="M14.9,12V15c-0.1,0-0.2,0.1-0.3,0.1V12C14.7,12,14.8,12,14.9,12z"/>
					<path class="st5" d="M14.8,16.3C14.9,16.4,14.9,16.4,14.8,16.3C14.8,16.4,14.8,16.4,14.8,16.3C14.8,16.4,14.8,16.4,14.8,16.3
						l-0.3-0.3c0,0,0-0.1,0-0.1c0,0,0.1,0,0.1,0L14.8,16.3z"/>
					<path class="st5" d="M14.7,16.6C14.7,16.7,14.7,16.7,14.7,16.6C14.7,16.7,14.7,16.7,14.7,16.6C14.7,16.7,14.6,16.7,14.7,16.6
						l-0.3-0.2c0,0,0-0.1,0-0.1c0,0,0.1,0,0.1,0L14.7,16.6z"/>
					<path class="st5" d="M14.6,17C14.6,17,14.6,17.1,14.6,17C14.5,17.1,14.5,17.1,14.6,17C14.5,17.1,14.5,17.1,14.6,17l-0.3-0.2
						c0,0,0-0.1,0-0.1c0,0,0.1,0,0.1,0L14.6,17z"/>
					<path class="st4" d="M14.5,12v3.2c0,0-0.1,0.1-0.1,0.1c0,0,0,0,0,0c0,0-0.1,0.1-0.1,0.1c0,0,0,0,0,0V12
						C14.3,12,14.4,12,14.5,12z"/>
					<path class="st4" d="M14,10.7c0.2,0,0.4,0.2,0.4,0.4c0,0.2-0.2,0.4-0.4,0.4c-0.2,0-0.4-0.2-0.4-0.4
						C13.6,10.9,13.8,10.7,14,10.7z"/>
					<path class="st5" d="M14.1,15.8L14.1,15.8c-0.1,0.3-0.2,0.7-0.2,1.1c-0.1-0.2-0.5-0.7-0.9-0.9c0.1,0,0.1,0,0.2,0
						c0.1,0,0.2,0,0.3,0c0.2,0,0.3,0,0.4-0.1C14,15.8,14.1,15.8,14.1,15.8z"/>
					<path class="st4" d="M14.1,12v3.6c-0.1,0.1-0.1,0.1-0.2,0.2c0,0-0.1,0-0.1,0.1v-3.7C13.9,12.1,14,12.1,14.1,12
						C14.1,12.1,14.1,12,14.1,12z"/>
					<path class="st4" d="M13.7,12.2v3.7c-0.1,0-0.2,0-0.3,0v-3.5C13.5,12.3,13.6,12.2,13.7,12.2z"/>
					<path class="st5" d="M13.6,17.4c-0.1,0.5-0.1,1.1,0.1,1.6c-0.2-0.4-1.3-1.3-1.3-1.3c0.8,0.3,0.6-0.1,0.4-0.5
						C13.2,17.8,13.4,17.7,13.6,17.4z"/>
					<path class="st4" d="M13.1,11c0.2,0,0.4,0.2,0.4,0.4c0,0.2-0.2,0.4-0.4,0.4c-0.2,0-0.4-0.2-0.4-0.4C12.7,11.1,12.9,11,13.1,11z
						"/>
					<path class="st5" d="M13.4,16.9C13.4,17,13.4,17,13.4,16.9C13.3,17,13.3,17,13.4,16.9C13.3,17,13.3,17,13.4,16.9l-0.2-0.3
						c0,0,0-0.1,0-0.1c0,0,0.1,0,0.1,0L13.4,16.9z"/>
					<path class="st4" d="M13.3,12.4v3.3c-0.1-0.2-0.2-0.4-0.3-0.6v-2.5c0,0,0,0,0.1-0.1C13.1,12.6,13.2,12.5,13.3,12.4z"/>
					<path class="st5" d="M13,16.8C13,16.8,13,16.8,13,16.8C13,16.8,13,16.8,13,16.8C12.9,16.8,12.9,16.8,13,16.8l-0.2-0.3
						c0,0,0-0.1,0-0.1c0,0,0.1,0,0.1,0L13,16.8z"/>
					<path class="st4" d="M12.9,12.9v2.1c-0.1-0.4-0.2-0.7-0.2-1.1C12.7,13.6,12.7,13.2,12.9,12.9z"/>
					<path class="st5" d="M12.7,16.7C12.7,16.7,12.7,16.8,12.7,16.7C12.7,16.8,12.6,16.8,12.7,16.7C12.6,16.8,12.6,16.8,12.7,16.7
						l-0.3-0.3c0,0,0-0.1,0-0.1c0,0,0.1,0,0.1,0L12.7,16.7z"/>
					<path class="st4" d="M12.4,11.5c0.2,0,0.4,0.2,0.4,0.4s-0.2,0.4-0.4,0.4c-0.2,0-0.4-0.2-0.4-0.4C12,11.6,12.1,11.5,12.4,11.5z"
						/>
					<path class="st5" d="M12.3,16.5C12.3,16.6,12.3,16.6,12.3,16.5C12.3,16.6,12.3,16.6,12.3,16.5C12.2,16.6,12.2,16.6,12.3,16.5
						L12,16.3c0,0,0-0.1,0-0.1c0,0,0.1,0,0.1,0L12.3,16.5z"/>
					<path class="st4" d="M11.8,12.2c0.2,0,0.4,0.2,0.4,0.4c0,0.2-0.2,0.4-0.4,0.4c-0.2,0-0.4-0.2-0.4-0.4
						C11.4,12.4,11.6,12.2,11.8,12.2z"/>
					<path class="st4" d="M11.7,14.8c0.2,0,0.4,0.2,0.4,0.4c0,0.2-0.2,0.4-0.4,0.4c-0.2,0-0.4-0.2-0.4-0.4
						C11.4,15,11.5,14.8,11.7,14.8z"/>
					<path class="st5" d="M12,16.6C12,16.6,12,16.6,12,16.6C12,16.6,11.9,16.7,12,16.6C11.9,16.7,11.9,16.7,12,16.6l-0.3-0.2
						c0,0,0,0,0-0.1c0,0,0,0,0.1,0L12,16.6z"/>
					<circle class="st4" cx="11.6" cy="13.4" r="0.4"/>
					<path class="st4" d="M11.5,14c0.2,0,0.4,0.2,0.4,0.4c0,0.2-0.2,0.4-0.4,0.4c-0.2,0-0.4-0.2-0.4-0.4C11.2,14.1,11.3,14,11.5,14z
						"/>
				</g>
			</g>
		</g>
	</g>
</g>
</svg>
