<?xml version="1.0" encoding="utf-8"?>
<!-- Generator: Adobe Illustrator 27.6.1, SVG Export Plug-In . SVG Version: 6.00 Build 0)  -->
<!DOCTYPE svg PUBLIC "-//W3C//DTD SVG 1.1//EN" "http://www.w3.org/Graphics/SVG/1.1/DTD/svg11.dtd" [
	<!ENTITY ns_extend "http://ns.adobe.com/Extensibility/1.0/">
	<!ENTITY ns_ai "http://ns.adobe.com/AdobeIllustrator/10.0/">
	<!ENTITY ns_graphs "http://ns.adobe.com/Graphs/1.0/">
	<!ENTITY ns_vars "http://ns.adobe.com/Variables/1.0/">
	<!ENTITY ns_imrep "http://ns.adobe.com/ImageReplacement/1.0/">
	<!ENTITY ns_sfw "http://ns.adobe.com/SaveForWeb/1.0/">
	<!ENTITY ns_custom "http://ns.adobe.com/GenericCustomNamespace/1.0/">
	<!ENTITY ns_adobe_xpath "http://ns.adobe.com/XPath/1.0/">
]>
<svg version="1.1" id="Layer_1" xmlns:x="&ns_extend;" xmlns:i="&ns_ai;" xmlns:graph="&ns_graphs;"
	 xmlns="http://www.w3.org/2000/svg" xmlns:xlink="http://www.w3.org/1999/xlink" x="0px" y="0px" viewBox="0 0 50 50"
	 style="enable-background:new 0 0 50 50;" xml:space="preserve">
<style type="text/css">
	.st0{fill:#FFFFFF;}
	.st1{fill:#D1D3D4;}
	.st2{fill:#D10201;}
	.st3{fill:#FEE51B;}
</style>
<metadata>
	<sfw  xmlns="&ns_sfw;">
		<slices></slices>
		<sliceSourceBounds  bottomLeftOrigin="true" height="50" width="50" x="0" y="0"></sliceSourceBounds>
	</sfw>
</metadata>
<g id="Layer_2_00000123403691739621316350000017975105315266775208_">
	<g id="Layer_2_00000009549042599903514300000009786033506733176249_">
		<g>
			<circle class="st0" cx="24.9998" cy="25.0002" r="24.7525"/>
			<path class="st1" d="M25,50C11.215,50,0,38.785,0,25S11.215,0,25,0s25,11.215,25,25S38.785,50,25,50z M25,0.495
				C11.4881,0.495,0.495,11.4881,0.495,25S11.4881,49.505,25,49.505S49.505,38.5119,49.505,25S38.5119,0.495,25,0.495z"/>
		</g>
	</g>
</g>
<g id="XMLID_9398_">
	<path id="XMLID_9412_" class="st2" d="M49.5,25.0014c0,0.8194-0.0406,1.6304-0.1219,2.4304
		c-0.2974,3.0373-1.1547,5.911-2.4691,8.5206c-0.6189,1.2415-1.3432,2.4202-2.1607,3.5287
		c-3.5583,4.8432-8.8523,8.334-14.9582,9.5478C28.2409,49.3375,26.6373,49.5,24.9986,49.5c-1.6387,0-3.2396-0.1626-4.7887-0.4711
		c-6.1031-1.2138-11.3999-4.7046-14.9591-9.5478c-0.8166-1.1085-1.5408-2.2872-2.1597-3.5287
		c-1.3145-2.6096-2.1717-5.4834-2.4692-8.5206c-0.0813-0.8-0.1219-1.611-0.1219-2.4304c0-0.8194,0.0406-1.6304,0.1219-2.4313
		c0.2974-3.0364,1.1575-5.9138,2.4692-8.5225c0.6189-1.2415,1.3431-2.4202,2.1597-3.5287c3.5592-4.8432,8.856-8.334,14.9591-9.5478
		C21.759,0.6625,23.3598,0.5,24.9986,0.5c1.6387,0,3.2423,0.1626,4.7915,0.4711c6.106,1.2138,11.3999,4.7046,14.9582,9.5478
		c0.8175,1.1085,1.5418,2.29,2.1607,3.5315c1.3144,2.6087,2.1716,5.4834,2.4691,8.5197C49.4594,23.371,49.5,24.182,49.5,25.0014z"/>
	<g id="XMLID_9399_">
		<g id="XMLID_9407_">
			<path id="XMLID_9411_" class="st3" d="M18.2192,30.5476L5.2507,39.4811c-0.8166-1.1085-1.5408-2.2872-2.1597-3.5287
				l14.0714-7.0362C17.4516,29.5009,17.8091,30.0469,18.2192,30.5476z"/>
			<path id="XMLID_9410_" class="st3" d="M46.909,35.9524c-0.6189,1.2415-1.3432,2.4202-2.1607,3.5287l-12.9685-8.9335
				c0.4111-0.5007,0.7686-1.0466,1.0605-1.6313L46.909,35.9524z"/>
			<path id="XMLID_9409_" class="st3" d="M46.909,14.0504l-14.0686,7.0352c-0.292-0.5838-0.6495-1.1325-1.0605-1.6332
				l12.9685-8.9335C45.5658,11.6274,46.2901,12.8089,46.909,14.0504z"/>
			<path id="XMLID_9408_" class="st3" d="M18.2192,19.4524c-0.4101,0.5007-0.7676,1.0494-1.0568,1.6332L3.091,14.0476
				c0.6189-1.2415,1.3431-2.4202,2.1597-3.5287L18.2192,19.4524z"/>
		</g>
		<g id="XMLID_9404_">
			<path id="XMLID_9406_" class="st3" d="M29.79,49.0289C28.2409,49.3375,26.6373,49.5,24.9986,49.5
				c-1.6387,0-3.2396-0.1626-4.7887-0.4711l3.5749-15.3536c0.3972,0.0573,0.8027,0.0868,1.2166,0.0868
				c0.4111,0,0.8166-0.0296,1.2138-0.0868L29.79,49.0289z"/>
			<path id="XMLID_9405_" class="st3" d="M29.79,0.9711l-3.5749,15.3527c-0.3972-0.0563-0.8027-0.0831-1.2138-0.0831
				c-0.4138,0-0.8194,0.0268-1.2137,0.0831L20.2099,0.9711C21.759,0.6625,23.3598,0.5,24.9986,0.5
				C26.6373,0.5,28.2409,0.6625,29.79,0.9711z"/>
		</g>
		<g id="XMLID_9401_">
			<path id="XMLID_9403_" class="st3" d="M16.2378,25.0014c0,0.2891,0.0157,0.5755,0.0434,0.86L0.6219,27.4318
				c-0.0813-0.8-0.1219-1.611-0.1219-2.4304c0-0.8194,0.0406-1.6304,0.1219-2.4313l15.6593,1.5713
				C16.2535,24.4222,16.2378,24.7095,16.2378,25.0014z"/>
			<path id="XMLID_9402_" class="st3" d="M49.5,25.0014c0,0.8194-0.0406,1.6304-0.1219,2.4304l-15.6593-1.5704
				c0.0277-0.2845,0.0434-0.5709,0.0434-0.86c0-0.2919-0.0157-0.5792-0.0434-0.86l15.6593-1.5713
				C49.4594,23.371,49.5,24.182,49.5,25.0014z"/>
		</g>
		<path id="XMLID_9400_" class="st3" d="M31.9923,25.0005c0,0.2309-0.011,0.4591-0.0333,0.6836
			c-0.0841,0.8702-0.3279,1.6932-0.703,2.4405c-0.254,0.5108-0.5709,0.9856-0.9375,1.4152
			c-1.1177,1.3071-2.7085,2.1976-4.5061,2.4054c-0.267,0.0314-0.5375,0.0471-0.812,0.0471c-0.2744,0-0.5459-0.0157-0.812-0.0471
			c-1.7985-0.2078-3.3901-1.0983-4.506-2.4064c-0.3686-0.4295-0.6845-0.9034-0.9394-1.4143
			c-0.3741-0.7473-0.6179-1.5704-0.702-2.4405c-0.0222-0.2245-0.0333-0.4526-0.0333-0.6836s0.0111-0.4582,0.0333-0.6836
			c0.0841-0.8711,0.3279-1.6941,0.702-2.4415c0.255-0.5099,0.5709-0.9847,0.9394-1.4143c1.1159-1.308,2.7075-2.1985,4.507-2.4054
			c0.266-0.0323,0.5367-0.0471,0.811-0.0471c0.2744,0,0.5441,0.0148,0.811,0.0471c1.7976,0.2069,3.3883,1.0974,4.507,2.4045
			c0.3666,0.4295,0.6836,0.9043,0.9375,1.4152c0.375,0.7473,0.6189,1.5704,0.703,2.4415
			C31.9812,24.5423,31.9923,24.7695,31.9923,25.0005z"/>
	</g>
</g>
</svg>
