<?xml version="1.0" encoding="utf-8"?>
<!-- Generator: Adobe Illustrator 27.6.1, SVG Export Plug-In . SVG Version: 6.00 Build 0)  -->
<!DOCTYPE svg PUBLIC "-//W3C//DTD SVG 1.1//EN" "http://www.w3.org/Graphics/SVG/1.1/DTD/svg11.dtd" [
	<!ENTITY ns_extend "http://ns.adobe.com/Extensibility/1.0/">
	<!ENTITY ns_ai "http://ns.adobe.com/AdobeIllustrator/10.0/">
	<!ENTITY ns_graphs "http://ns.adobe.com/Graphs/1.0/">
	<!ENTITY ns_vars "http://ns.adobe.com/Variables/1.0/">
	<!ENTITY ns_imrep "http://ns.adobe.com/ImageReplacement/1.0/">
	<!ENTITY ns_sfw "http://ns.adobe.com/SaveForWeb/1.0/">
	<!ENTITY ns_custom "http://ns.adobe.com/GenericCustomNamespace/1.0/">
	<!ENTITY ns_adobe_xpath "http://ns.adobe.com/XPath/1.0/">
]>
<svg version="1.1" id="Layer_1" xmlns:x="&ns_extend;" xmlns:i="&ns_ai;" xmlns:graph="&ns_graphs;"
	 xmlns="http://www.w3.org/2000/svg" xmlns:xlink="http://www.w3.org/1999/xlink" x="0px" y="0px" viewBox="0 0 50 50"
	 style="enable-background:new 0 0 50 50;" xml:space="preserve">
<style type="text/css">
	.st0{fill:#FFFFFF;}
	.st1{fill:#CE142A;}
	.st2{fill:#E50E2D;}
	.st3{fill:#97867A;}
	.st4{fill:#CBCBCB;}
	.st5{fill:#95877C;}
	.st6{fill:#97857C;}
	.st7{fill:#95867C;}
	.st8{fill:#231F20;}
	.st9{fill:#D1D3D4;}
	.st10{fill:none;}
</style>
<metadata>
	<sfw  xmlns="&ns_sfw;">
		<slices></slices>
		<sliceSourceBounds  bottomLeftOrigin="true" height="50" width="50" x="0" y="0"></sliceSourceBounds>
	</sfw>
</metadata>
<g>
	<g>
		<path class="st0" d="M16.8336,1.9013C7.3277,5.2723,0.5,14.3523,0.5,25c0,10.6468,6.8277,19.7277,16.3336,23.0987
			c2.5552,0.9062,5.3044,1.4014,8.1664,1.4014V0.4999C22.138,0.4999,19.3888,0.9951,16.8336,1.9013z"/>
		<path class="st1" d="M33.1663,1.9013c-2.5552-0.9062-5.3034-1.4014-8.1664-1.4014v49.0001c2.863,0,5.6112-0.4952,8.1664-1.4014
			C42.6731,44.7277,49.5,35.6468,49.5,25C49.5,14.3523,42.6731,5.2723,33.1663,1.9013z"/>
	</g>
	<g>
		<path class="st2" d="M22.3542,11.9375h-3.6573c-0.1274-0.6411-0.63-1.1474-1.2693-1.2813V7.0109H13.676v3.6453
			c-0.6393,0.134-1.1409,0.6402-1.2683,1.2813H8.7495v3.7515h3.6582c0.1274,0.642,0.629,1.1483,1.2683,1.2822v3.6444h3.7515v-3.6444
			c0.6393-0.134,1.1419-0.6402,1.2693-1.2822h3.6573V11.9375z"/>
		<path class="st3" d="M13.9624,20.3302v-3.5908l-0.2273-0.048c-0.5312-0.1109-0.9423-0.5266-1.0476-1.0577l-0.0462-0.23H9.0359
			v-3.1797h3.6055l0.0462-0.23c0.1053-0.5321,0.5164-0.9469,1.0476-1.0587l0.2273-0.0471V7.2973h3.1797v3.5908l0.2273,0.0471
			c0.5303,0.1118,0.9415,0.5266,1.0467,1.0587l0.0462,0.23h3.6065v3.1797h-3.6065l-0.0462,0.23
			c-0.1052,0.5312-0.5164,0.9469-1.0467,1.0577l-0.2273,0.048v3.5908H13.9624z"/>
		<path class="st4" d="M14.0843,20.2073v-3.5677l-0.3243-0.0684c-0.4822-0.1007-0.8564-0.4785-0.9524-0.9617l-0.0656-0.3289H9.1577
			v-2.9349h3.5843l0.0656-0.3279c0.0961-0.4841,0.4702-0.861,0.9524-0.9626l0.3243-0.0674V7.4201h2.9349v3.5677l0.3252,0.0674
			c0.4822,0.1016,0.8555,0.4785,0.9515,0.9626l0.0656,0.3279h3.5843v2.9349h-3.5843l-0.0656,0.3289
			c-0.096,0.4831-0.4693,0.861-0.9515,0.9617l-0.3252,0.0684v3.5677H14.0843z"/>
		<g>
			<g>
				<path class="st5" d="M15.5661,15.8313c-1.1067,0-2.0074-0.8998-2.0074-2.0065s0.9007-2.0074,2.0074-2.0074
					s2.0065,0.9007,2.0065,2.0074S16.6728,15.8313,15.5661,15.8313z M15.5661,11.858c-1.0845,0-1.9667,0.8822-1.9667,1.9668
					c0,1.0836,0.8821,1.9658,1.9667,1.9658c1.0836,0,1.9658-0.8822,1.9658-1.9658C17.532,12.7403,16.6497,11.858,15.5661,11.858z"/>
			</g>
			<g>
				<path class="st5" d="M15.5661,16.4419c-1.4439,0-2.618-1.1741-2.618-2.6171c0-1.4439,1.1741-2.618,2.618-2.618
					c1.443,0,2.6171,1.1741,2.6171,2.618C18.1832,15.2678,17.0091,16.4419,15.5661,16.4419z M15.5661,11.2483
					c-1.4208,0-2.5774,1.1557-2.5774,2.5765s1.1566,2.5765,2.5774,2.5765s2.5765-1.1557,2.5765-2.5765
					S16.9869,11.2483,15.5661,11.2483z"/>
			</g>
		</g>
		<g>
			<g>
				<g>
					<path class="st6" d="M13.8358,11.0377c0.2171,0.218,0.157,0.6319-0.1358,0.9238c-0.2928,0.2928-0.7067,0.3538-0.9247,0.1358
						c-0.2171-0.2171-0.157-0.631,0.1358-0.9238C13.204,10.8807,13.6179,10.8197,13.8358,11.0377z"/>
					<g>
						<polygon class="st4" points="12.7467,11.6317 12.864,11.5153 13.301,11.7897 13.0257,11.3537 13.1393,11.24 13.4987,11.8682 
							13.3777,11.9892 						"/>
						<polygon class="st4" points="13.2577,11.1209 13.3702,11.0091 13.8645,11.5033 13.7518,11.6151 						"/>
					</g>
				</g>
				<g>
					<path class="st6" d="M18.3283,12.0973c-0.218,0.218-0.631,0.157-0.9238-0.1358c-0.2928-0.2919-0.3538-0.7058-0.1358-0.9238
						s0.6319-0.157,0.9238,0.1358C18.4853,11.4664,18.5463,11.8802,18.3283,12.0973z"/>
					<g>
						<polygon class="st4" points="17.7343,11.0091 17.8507,11.1255 17.5763,11.5634 18.0133,11.2881 18.1261,11.4008 
							17.4979,11.761 17.3768,11.64 						"/>
						
							<rect x="17.7044" y="11.7439" transform="matrix(0.7068 -0.7075 0.7075 0.7068 -3.07 16.2394)" class="st4" width="0.699" height="0.1581"/>
					</g>
				</g>
			</g>
			<g>
				<g>
					<path class="st6" d="M17.2687,16.5897c-0.218-0.218-0.157-0.6319,0.1358-0.9247c0.2928-0.2928,0.7058-0.3529,0.9238-0.1358
						c0.218,0.218,0.157,0.6319-0.1358,0.9247C17.9006,16.7459,17.4867,16.8068,17.2687,16.5897z"/>
					<g>
						<polygon class="st4" points="18.357,15.9948 18.2405,16.1121 17.8036,15.8378 18.0788,16.2738 17.9652,16.3874 
							17.6049,15.7583 17.726,15.6373 						"/>
						
							<rect x="17.4638" y="15.965" transform="matrix(0.7042 -0.71 0.71 0.7042 -6.3942 17.2818)" class="st4" width="0.1584" height="0.6993"/>
					</g>
				</g>
				<g>
					<path class="st6" d="M12.7753,15.5292c0.218-0.2171,0.6319-0.157,0.9247,0.1358c0.2928,0.2928,0.3529,0.7067,0.1358,0.9247
						c-0.2179,0.2171-0.6319,0.1561-0.9247-0.1358C12.6183,16.1611,12.5582,15.7472,12.7753,15.5292z"/>
					<g>
						<polygon class="st4" points="13.3702,16.6184 13.2529,16.5011 13.5273,16.0641 13.0914,16.3394 12.9776,16.2258 
							13.6067,15.8655 13.7278,15.9874 						"/>
						<polygon class="st4" points="12.8585,16.1075 12.7467,15.9948 13.2409,15.5006 13.3536,15.6124 						"/>
					</g>
				</g>
			</g>
		</g>
		<g>
			<path d="M13.0903,14.1759l0.2014-0.0249l-0.0018-0.0212c-0.0028-0.0231-0.0157-0.0397-0.037-0.0499
				c-0.0222-0.0102-0.0554-0.0148-0.1016-0.0148l-0.0009-0.0092l0.267-0.0323l0.0009,0.0092
				c-0.0231,0.0055-0.0405,0.0111-0.0536,0.0157c-0.0129,0.0055-0.0249,0.012-0.0351,0.0203
				c-0.0212,0.0166-0.0305,0.0379-0.0277,0.0637l0.0028,0.0166l0.1413-0.0176c0.0286-0.0037,0.049-0.0111,0.0619-0.0231
				c0.012-0.012,0.0177-0.0277,0.0148-0.049l-0.0028-0.0212l0.0129-0.0018l0.0277,0.2254l-0.0129,0.0018l-0.0009-0.0083
				c-0.0027-0.0212-0.0111-0.036-0.0268-0.0443c-0.0148-0.0083-0.037-0.0111-0.0656-0.0074l-0.2706,0.0333
				c-0.0287,0.0037-0.05,0.0111-0.062,0.0231c-0.0129,0.012-0.0176,0.0286-0.0148,0.049l0.0009,0.0092L13.095,14.319l-0.0453-0.3723
				l0.2014-0.0249l0.0009,0.0083c-0.0176,0.0046-0.0323,0.0092-0.0471,0.0139c-0.0139,0.0046-0.0249,0.0092-0.0323,0.0129
				c-0.0231,0.0111-0.0425,0.0231-0.0573,0.037c-0.0139,0.0139-0.0239,0.0286-0.0296,0.0453
				c-0.0065,0.0166-0.0083,0.0351-0.0055,0.0554L13.0903,14.1759z"/>
			<path d="M13.0765,13.4257c0.0046-0.0314,0.0166-0.06,0.0342-0.0841c0.0185-0.024,0.0416-0.0434,0.0721-0.0582
				c0.0249-0.0129,0.0517-0.0212,0.0813-0.0259c0.0286-0.0046,0.0583-0.0046,0.0868,0c0.0434,0.0074,0.0823,0.0222,0.1164,0.0462
				c0.0333,0.024,0.0583,0.0536,0.0748,0.0878c0.0166,0.0342,0.0222,0.0702,0.0157,0.1072
				c-0.0045,0.0277-0.0148,0.0536-0.0305,0.0758c-0.0166,0.0231-0.037,0.0425-0.0619,0.0573
				c-0.0259,0.0157-0.0536,0.0268-0.085,0.0323c-0.0314,0.0055-0.0628,0.0065-0.095,0.0009
				c-0.0435-0.0065-0.0814-0.0222-0.1156-0.0462c-0.0342-0.0249-0.0599-0.0536-0.0767-0.0878
				C13.0765,13.4969,13.07,13.4618,13.0765,13.4257z M13.0894,13.4211c-0.0028,0.0148-0.0009,0.0296,0.0037,0.0434
				c0.0046,0.0139,0.0129,0.0268,0.024,0.0379c0.0129,0.012,0.0277,0.0222,0.0462,0.0323c0.0176,0.0102,0.0379,0.0185,0.061,0.0259
				c0.0231,0.0074,0.048,0.0129,0.0758,0.0176c0.0333,0.0055,0.0647,0.0074,0.0942,0.0065c0.0286-0.0009,0.0536-0.0046,0.0759-0.012
				c0.0221-0.0074,0.0387-0.0176,0.0516-0.0296c0.013-0.0129,0.0212-0.0277,0.024-0.0462c0.0037-0.0231-0.0017-0.0462-0.0185-0.0665
				c-0.0157-0.0203-0.0397-0.0388-0.073-0.0536c-0.0333-0.0148-0.0739-0.0259-0.121-0.0342
				c-0.0314-0.0046-0.061-0.0065-0.0887-0.0055c-0.0277,0.0009-0.0527,0.0037-0.0739,0.0111
				c-0.0212,0.0065-0.0388,0.0157-0.0527,0.0268c-0.0074,0.0065-0.0139,0.0129-0.0194,0.0212
				C13.094,13.4045,13.0903,13.4128,13.0894,13.4211z"/>
			<path d="M13.531,12.8114l-0.0342,0.0693l0.1173,0.0582c0.0249,0.0129,0.0471,0.0176,0.0637,0.0148
				c0.0176-0.0028,0.0305-0.0139,0.0397-0.0323l0.0046-0.0092l0.012,0.0065l-0.097,0.1931l-0.012-0.0055l0.0046-0.0083
				c0.0092-0.0185,0.0102-0.036,0.0018-0.0517c-0.0074-0.0148-0.024-0.0296-0.0499-0.0425l-0.2448-0.1219
				c-0.0259-0.0129-0.0471-0.0176-0.0637-0.0148c-0.0176,0.0028-0.0305,0.0139-0.0397,0.0323l-0.0046,0.0083l-0.0111-0.0055
				l0.1192-0.2374c0.0157-0.0323,0.0323-0.0564,0.048-0.0721c0.0157-0.0157,0.0333-0.0249,0.0545-0.0277
				c0.0121-0.0028,0.024-0.0028,0.0379,0c0.0139,0.0018,0.0268,0.0055,0.0379,0.012c0.0314,0.0157,0.0508,0.0406,0.0582,0.0739
				c0.0028,0.012,0.0018,0.0277,0,0.0453c-0.0028,0.0185-0.0065,0.0351-0.0129,0.0508c-0.0046,0.0129-0.0129,0.0305-0.024,0.0545
				h0.0009c0.0158-0.0065,0.0296-0.012,0.0416-0.0185c0.012-0.0065,0.0222-0.0129,0.0314-0.0203
				c0.0102-0.0074,0.0194-0.0157,0.0296-0.0268l0.0185,0.0009c0.012,0,0.0212,0,0.0268,0c0.0066,0,0.0129,0,0.0212,0
				c0.0203,0,0.0397,0,0.0554-0.0018c0.0166-0.0009,0.0286-0.0028,0.036-0.0046c0.0129-0.0055,0.024-0.0166,0.0333-0.0342
				l0.0037-0.0092l0.012,0.0065l-0.0573,0.1146L13.531,12.8114z M13.4857,12.8751l0.0434-0.0878
				c0.0102-0.0203,0.0157-0.0397,0.0149-0.0564c0-0.0166-0.0057-0.0314-0.0167-0.0453c-0.011-0.0139-0.0277-0.0259-0.0499-0.037
				c-0.0627-0.0314-0.1099-0.0176-0.1395,0.0416l-0.0443,0.0887L13.4857,12.8751z"/>
			<path d="M14.1767,11.7287l0.0074-0.0055l0.1247,0.1598l-0.0065,0.0046c-0.0193-0.0157-0.0351-0.0277-0.048-0.037
				c-0.012-0.0083-0.024-0.0157-0.0351-0.0203c-0.0323-0.0157-0.0637-0.024-0.0942-0.024c-0.0314,0-0.0564,0.0074-0.0776,0.0231
				c-0.0102,0.0083-0.0194,0.0194-0.0259,0.0323c-0.0064,0.0139-0.0092,0.0268-0.0092,0.0406c0,0.0231,0.0083,0.0499,0.0231,0.0794
				c0.0148,0.0296,0.0379,0.0656,0.0693,0.1062c0.0092,0.0129,0.0185,0.024,0.0286,0.036c0.0102,0.0111,0.0194,0.0212,0.0277,0.0296
				c0.0083,0.0083,0.0166,0.0166,0.0259,0.024c0.0083,0.0074,0.0157,0.0129,0.0231,0.0176
				c0.0111,0.0055,0.0212,0.0102,0.0323,0.0139c0.0102,0.0028,0.0203,0.0046,0.0315,0.0037c0.011,0,0.0211-0.0018,0.0313-0.0055
				c0.0092-0.0028,0.0185-0.0083,0.0268-0.0148c0.0111-0.0083,0.0212-0.0185,0.0296-0.0305c0.0074-0.0129,0.0129-0.024,0.0148-0.036
				c0.0037-0.0212-0.0018-0.0425-0.0176-0.0628l-0.0148-0.0194c-0.0342-0.0453-0.0674-0.0554-0.1007-0.0305l-0.024,0.0185
				l-0.0074-0.0102l0.1875-0.1423l0.0074,0.0102l-0.0065,0.0046c-0.0166,0.0129-0.0248,0.0277-0.0248,0.0453
				c0.0008,0.0176,0.0092,0.0379,0.0267,0.06l0.0665,0.0878l-0.0074,0.0055c-0.0111-0.0028-0.0203-0.0037-0.0268-0.0028
				s-0.0128,0.0037-0.0194,0.0083c-0.0055,0.0046-0.0102,0.0092-0.0139,0.0148c-0.0037,0.0046-0.0083,0.0129-0.0129,0.0249
				c-0.0092,0.0176-0.0166,0.0314-0.0231,0.0397c-0.0065,0.0083-0.0157,0.0176-0.0286,0.0268
				c-0.0222,0.0176-0.048,0.0286-0.0748,0.0351c-0.0268,0.0055-0.0545,0.0046-0.0822-0.0018
				c-0.0277-0.0055-0.0545-0.0176-0.0804-0.0351s-0.0499-0.0397-0.0702-0.0665c-0.012-0.0166-0.023-0.0342-0.0322-0.0527
				c-0.0084-0.0176-0.0158-0.036-0.0195-0.0545c-0.0046-0.0185-0.0074-0.037-0.0082-0.0554c0-0.0212,0.0027-0.0416,0.0073-0.06
				c0.0055-0.0194,0.0129-0.036,0.0222-0.0517c0.0102-0.0157,0.0212-0.0286,0.0352-0.0388
				c0.0137-0.0102,0.0285-0.0176,0.0452-0.0231c0.0166-0.0046,0.036-0.0083,0.06-0.0092c0.0176-0.0009,0.0286-0.0028,0.0334-0.0065
				c0.0045-0.0037,0.0073-0.0102,0.0082-0.0185C14.1815,11.7564,14.1804,11.7444,14.1767,11.7287z"/>
			<path d="M14.6857,11.4608l0.0092-0.0028l0.2717,0.3363c0.0082,0.0111,0.0165,0.0185,0.0248,0.0249
				c0.0083,0.0055,0.0157,0.0092,0.024,0.0102c0.0074,0.0009,0.0158,0,0.024-0.0028l0.0092-0.0037l0.0046,0.012l-0.1875,0.0693
				l-0.0046-0.012l0.0249-0.0092c0.012-0.0046,0.0203-0.0102,0.024-0.0166c0.0037-0.0065,0.0037-0.0148,0.001-0.024
				c-0.0029-0.0055-0.0066-0.012-0.0121-0.0203c-0.0046-0.0074-0.0156-0.0203-0.0314-0.0397
				c-0.0009-0.0009-0.0018-0.0028-0.0037-0.0055c-0.0028-0.0028-0.0046-0.0055-0.0065-0.0074l-0.011-0.0139l-0.1368,0.0499
				l0.0018,0.037c0.0009,0.012,0.0028,0.024,0.0074,0.0351c0.0037,0.0102,0.0092,0.0185,0.0167,0.0268
				c0.0073,0.0083,0.0147,0.0129,0.023,0.0157c0.0055,0.0018,0.0102,0.0028,0.014,0.0028c0.0036,0,0.0082-0.0009,0.0147-0.0028
				l0.0046,0.012l-0.1312,0.049l-0.0046-0.0129c0.0092-0.0046,0.0157-0.0102,0.0203-0.0148
				c0.0046-0.0055,0.0083-0.0129,0.013-0.0231c0.0101-0.0231,0.0137-0.061,0.0119-0.1146L14.6857,11.4608z M14.6996,11.5735
				l0.0102,0.2189l0.1276-0.0471L14.6996,11.5735z"/>
			<path d="M15.1726,11.3361l0.2337-0.0194l0.0009,0.0129l-0.0248,0.0018c-0.0214,0.0018-0.0361,0.0102-0.0454,0.024
				c-0.0092,0.0148-0.012,0.037-0.0101,0.0656l0.0285,0.3575l0.0887-0.0065c0.0176-0.0018,0.0333-0.0083,0.048-0.0203
				c0.0148-0.012,0.0268-0.0277,0.037-0.0471c0.0055-0.0129,0.0111-0.0249,0.0157-0.037c0.0038-0.012,0.0074-0.0259,0.0111-0.0434
				c0.0037-0.0166,0.0065-0.036,0.0092-0.0582h0.0092l0.0166,0.2069l-0.3815,0.0296l-0.0009-0.012l0.0129-0.0009
				c0.0408-0.0037,0.0592-0.0333,0.0545-0.0905l-0.0212-0.2725c-0.0046-0.0564-0.0277-0.0831-0.0693-0.0794l-0.012,0.0009
				L15.1726,11.3361z"/>
			<path d="M15.8423,11.3204l0.23,0.0434l-0.0018,0.012l-0.0249-0.0046c-0.0203-0.0037-0.037,0-0.0499,0.012
				c-0.012,0.012-0.0212,0.0323-0.0268,0.06l-0.0656,0.3529l0.0868,0.0166c0.0176,0.0028,0.0342,0.0009,0.0517-0.0065
				c0.0176-0.0074,0.0334-0.0194,0.048-0.036c0.0092-0.0111,0.0176-0.0212,0.024-0.0314c0.0075-0.0111,0.0148-0.024,0.0231-0.0388
				c0.0074-0.0157,0.0157-0.0333,0.024-0.0536l0.0092,0.0018l-0.0388,0.2032l-0.3751-0.0702l0.0009-0.012l0.013,0.0018
				c0.0405,0.0083,0.0664-0.0166,0.0775-0.073l0.0499-0.2679c0.0102-0.0554-0.0046-0.0878-0.0453-0.0952l-0.012-0.0028
				L15.8423,11.3204z"/>
			<path d="M16.6793,11.5624l0.0083,0.0037l-0.0581,0.4286c-0.002,0.0139-0.002,0.0249-0.001,0.0351
				c0.0018,0.0102,0.0046,0.0176,0.0092,0.024c0.0046,0.0065,0.0111,0.012,0.0195,0.0157l0.0082,0.0046l-0.0065,0.0111
				l-0.1783-0.0878l0.0055-0.012l0.024,0.0111c0.0111,0.0065,0.0203,0.0083,0.0286,0.0065
				c0.0075-0.0018,0.0129-0.0074,0.0176-0.0157c0.0028-0.0055,0.0055-0.0129,0.0074-0.0222
				c0.001-0.0092,0.0037-0.0259,0.0074-0.0508c0-0.0009,0-0.0037,0.0009-0.0065c0-0.0037,0.0009-0.0065,0.0009-0.0102l0.0028-0.0176
				l-0.1303-0.0647l-0.0259,0.0268c-0.0083,0.0083-0.0148,0.0185-0.0203,0.0296c-0.0046,0.0092-0.0074,0.0194-0.0083,0.0296
				c-0.0009,0.0111,0.0009,0.0203,0.0046,0.0277c0.0029,0.0055,0.0046,0.0092,0.0074,0.012s0.0065,0.0055,0.0129,0.0092
				l-0.0065,0.012l-0.1247-0.0628l0.0055-0.0111c0.0102,0.0028,0.0185,0.0046,0.0251,0.0037c0.0064,0,0.0156-0.0018,0.0258-0.0055
				c0.0231-0.0092,0.0536-0.0323,0.0915-0.0711L16.6793,11.5624z M16.6082,11.6493l-0.1534,0.157l0.1219,0.061L16.6082,11.6493z"/>
			<path d="M17.1153,11.8349l0.1007,0.0942l-0.0564,0.4092l0.1386-0.1478c0.0166-0.0176,0.0286-0.036,0.037-0.0536
				c0.0083-0.0176,0.0111-0.0342,0.0092-0.049c-0.0009-0.0083-0.0028-0.0148-0.0055-0.0212
				c-0.0037-0.0055-0.0083-0.0129-0.0157-0.0212l0.0084-0.0092l0.1237,0.1164l-0.0083,0.0083l-0.0028-0.0018
				c-0.0176-0.0166-0.0387-0.0222-0.0628-0.0148c-0.024,0.0065-0.0508,0.0249-0.0785,0.0545l-0.2291,0.2448l-0.0055-0.0055
				l0.0674-0.5053l-0.1903,0.2032c-0.0185,0.0194-0.0314,0.037-0.0387,0.0517c-0.0075,0.0157-0.0112,0.0296-0.0092,0.0443
				c0.0008,0.0111,0.0054,0.0212,0.0137,0.0314c0.0037,0.0055,0.0102,0.0129,0.0194,0.0222l-0.0092,0.0092l-0.1303-0.1219
				l0.0083-0.0092c0.0139,0.0111,0.0286,0.0185,0.0416,0.0212c0.0139,0.0018,0.0277,0,0.0416-0.0074
				c0.0139-0.0065,0.0286-0.0185,0.0434-0.0342l0.1811-0.194c0.0111-0.012,0.0194-0.024,0.0231-0.036
				c0.0037-0.012,0.0037-0.0231,0.0009-0.0351c-0.0037-0.0111-0.0102-0.0222-0.0203-0.0314l-0.0037-0.0037L17.1153,11.8349z"/>
			<path d="M17.6345,12.3855l0.2023,0.3473l-0.2051,0.1201l-0.0045-0.0065c0.0488-0.0342,0.0867-0.0711,0.1126-0.1118
				c0.0286-0.0471,0.0333-0.0878,0.0129-0.1229l-0.0092-0.0157l-0.3095,0.1811c-0.049,0.0286-0.0628,0.061-0.0425,0.097
				l0.0268,0.0443l-0.012,0.0065l-0.1506-0.2587l0.0112-0.0065l0.0258,0.0443c0.0212,0.036,0.0564,0.0397,0.1053,0.0111
				l0.3085-0.1811l-0.0111-0.0194c-0.0203-0.0351-0.06-0.0508-0.1182-0.0462c-0.0277,0.0018-0.0591,0.0092-0.0933,0.0222
				c-0.012,0.0037-0.0286,0.0111-0.0507,0.0222l-0.0047-0.0074L17.6345,12.3855z"/>
			<path d="M17.7758,13.2927l-0.0176-0.0748l-0.1284,0.0305c-0.0277,0.0065-0.0471,0.0166-0.0581,0.0305
				c-0.0112,0.0129-0.0149,0.0296-0.0103,0.0499l0.0028,0.0102l-0.0129,0.0028l-0.0499-0.2106l0.012-0.0028l0.0029,0.0092
				c0.0045,0.0203,0.0147,0.0342,0.0313,0.0406c0.0157,0.0065,0.0379,0.0065,0.0656,0l0.2661-0.0637
				c0.0277-0.0065,0.0471-0.0166,0.0591-0.0296c0.0111-0.0129,0.0139-0.0305,0.0092-0.0508l-0.0028-0.0092l0.012-0.0028
				l0.0619,0.2587c0.0083,0.0351,0.012,0.0637,0.0092,0.0859c-0.0018,0.0222-0.0092,0.0406-0.0231,0.0564
				c-0.0082,0.0092-0.0174,0.0176-0.0296,0.0249c-0.012,0.0074-0.024,0.012-0.037,0.0148
				c-0.0341,0.0083-0.0647,0.0018-0.0924-0.0194c-0.0092-0.0074-0.0185-0.0194-0.0286-0.0351
				c-0.0092-0.0148-0.0176-0.0305-0.0231-0.0471c-0.0046-0.012-0.0092-0.0314-0.0157-0.0573l-0.0009,0.0009
				c-0.0083,0.0148-0.0157,0.0286-0.0203,0.0416c-0.0046,0.012-0.0083,0.024-0.0111,0.0351
				c-0.0028,0.012-0.0046,0.0249-0.0055,0.0397l-0.0139,0.0111c-0.0092,0.0083-0.0165,0.0139-0.0212,0.0176
				c-0.0045,0.0037-0.0102,0.0083-0.0157,0.0129c-0.0165,0.0139-0.0305,0.0259-0.0425,0.037
				c-0.011,0.012-0.0194,0.0203-0.0231,0.0268c-0.0074,0.0129-0.0083,0.0286-0.0037,0.048l0.0018,0.0092l-0.012,0.0028
				L17.58,13.4618L17.7758,13.2927z M17.7703,13.2151l0.0222,0.0952c0.0055,0.0222,0.0139,0.0397,0.0249,0.0527
				c0.0111,0.0129,0.0249,0.0203,0.0416,0.024c0.0177,0.0037,0.0379,0.0018,0.0619-0.0037c0.0693-0.0166,0.0961-0.0573,0.0804-0.121
				l-0.0222-0.097L17.7703,13.2151z"/>
			<path d="M18.0881,13.7851l-0.0166,0.2189l-0.012-0.0009l0.002-0.0249c0.0008-0.0102-0.001-0.0185-0.0057-0.0249
				c-0.0046-0.0055-0.012-0.0092-0.0212-0.0092c-0.0046-0.0009-0.0092,0-0.0139,0.0009c-0.0037,0.0018-0.0139,0.0055-0.0305,0.012
				l-0.1672,0.073l0.1312,0.0868c0.0176,0.0111,0.0323,0.0176,0.0453,0.0185c0.0148,0.0009,0.0268-0.0018,0.037-0.0102
				c0.0092-0.0083,0.0148-0.0203,0.0158-0.0342l0.0017-0.0231l0.0129,0.0009l-0.0139,0.1764l-0.0111-0.0009
				c-0.0009-0.012-0.0037-0.0222-0.0074-0.0323c-0.0028-0.0092-0.0074-0.0185-0.0139-0.0268
				c-0.0054-0.0083-0.0139-0.0166-0.0249-0.0259c-0.0102-0.0102-0.0222-0.0185-0.0351-0.0277l-0.1497-0.0979l-0.1127-0.0083
				c-0.0286-0.0018-0.0508,0.0009-0.0656,0.0102c-0.0147,0.0092-0.0231,0.0249-0.0239,0.0453l-0.002,0.0231l-0.0129-0.0009
				l0.0185-0.2439l0.0129,0.0009l-0.0018,0.024c-0.0018,0.0212,0.0038,0.0379,0.0176,0.049
				c0.0129,0.0111,0.0342,0.0176,0.0628,0.0203l0.1007,0.0074l0.1986-0.0878c0.0259-0.012,0.0434-0.0231,0.0536-0.0351
				c0.0111-0.012,0.0166-0.0277,0.0185-0.048v-0.0055L18.0881,13.7851z"/>
		</g>
		<g>
			<path d="M15.8737,16.041h-0.2365v-0.1118c0-0.0388-0.0323-0.0711-0.0711-0.0711c-0.0397,0-0.0721,0.0323-0.0721,0.0711v0.1118
				h-0.2365c-0.0388,0-0.0711,0.0323-0.0711,0.0721c0,0.0388,0.0323,0.0711,0.0711,0.0711h0.2365v0.1118
				c0,0.0397,0.0323,0.0711,0.0721,0.0711c0.0388,0,0.0711-0.0314,0.0711-0.0711v-0.1118h0.2365
				c0.0397,0,0.0711-0.0323,0.0711-0.0711C15.9449,16.0733,15.9135,16.041,15.8737,16.041z"/>
			<g>
				<circle cx="16.3597" cy="16.0013" r="0.1173"/>
				<path d="M14.8899,16.0013c0,0.0647-0.0525,0.1173-0.1182,0.1173c-0.0647,0-0.1173-0.0527-0.1173-0.1173
					c0-0.0647,0.0527-0.1173,0.1173-0.1173C14.8373,15.884,14.8899,15.9366,14.8899,16.0013z"/>
			</g>
		</g>
		<path class="st7" d="M16.5758,13.5855c0.0582-0.0434,0.1376-0.1025,0.182-0.2393c0.012,0.0018,0.0268,0.0037,0.0434,0.0046
			c0.0988,0.0102,0.2827,0.0286,0.3353,0.0693c0.0139,0.0102,0.0268,0.0222,0.038,0.0333c0.0452,0.0434,0.0867,0.0831,0.1745,0.0176
			c0.0028-0.0018,0.0046-0.0065,0.0037-0.0102c-0.0055-0.0203-0.0517-0.2005-0.1967-0.2023
			c-0.0177-0.0083-0.0361-0.0166-0.0546-0.0249c-0.1607-0.0767-0.3279-0.1561-0.3871-0.1219
			c-0.024,0.0148-0.0582,0.0517-0.0941,0.0915c-0.05,0.0545-0.1248,0.1358-0.1498,0.1192
			c-0.0388-0.0277-0.2143-0.2457-0.3039-0.4139c0.0268-0.0268,0.049-0.0508,0.0637-0.0693c0.0297-0.037,0.0564-0.0767,0.0794-0.1182
			c0.0057-0.0018,0.0102-0.0046,0.0149-0.0065c0.0221-0.0102,0.0452-0.0139,0.071-0.0176c0.024-0.0037,0.048-0.0074,0.0721-0.0166
			c0.0406-0.0176,0.0564-0.0425,0.0527-0.0896c-0.0028-0.0443-0.0462-0.1857-0.4859-0.1691l-0.0139-0.0979
			c-0.0008-0.0037-0.0028-0.0074-0.0065-0.0083c-0.0028-0.0018-0.0065-0.0009-0.0092,0.0009s-0.0656,0.0462-0.0924,0.1016
			l-0.0055-0.0055c-0.0148-0.0129-0.0277-0.0249-0.0333-0.0296c-0.0017-0.0018-0.0065-0.0037-0.0129-0.0028
			c-0.0018,0.0009-0.0046,0.0018-0.0065,0.0028c0.0065-0.024,0.0111-0.048,0.0111-0.073c0-0.1524-0.1238-0.2762-0.2762-0.2762
			c-0.1312,0-0.242,0.0915-0.2697,0.218c-0.0139,0.0009-0.0277,0.0009-0.0406,0.0009c-0.0471-0.0009-0.0961-0.0009-0.145,0.0065
			c-0.0702,0.0102-0.1321,0.0286-0.1856,0.0564c-0.0277,0.0139-0.0537,0.0323-0.0786,0.0508
			c-0.0268,0.0185-0.0554,0.0388-0.085,0.0527c-0.0055,0.0028-0.0074,0.0083-0.0046,0.0139
			c0.002,0.0046,0.0083,0.0074,0.0129,0.0046c0.0157-0.0065,0.0637,0.0102,0.0868,0.0176c0.0074,0.0028,0.0139,0.0046,0.0185,0.0065
			c0.0176,0.0046,0.0351,0.0111,0.0527,0.0166c0.0129,0.0037,0.0259,0.0074,0.0379,0.012c-0.036,0.0102-0.1052,0.0194-0.1968-0.0129
			c-0.0323-0.012-0.06-0.0231-0.0831-0.0323c-0.0794-0.0323-0.1182-0.048-0.1866-0.0259c-0.0628,0.0203-0.0887,0.0665-0.1053,0.097
			c-0.0055,0.0092-0.012,0.0212-0.0157,0.0222c-0.0065,0.0037-0.024,0.0074-0.0416,0.0111
			c-0.0388,0.0074-0.0831,0.0166-0.1007,0.0351c-0.0111,0.0111-0.0128,0.0249-0.0148,0.0379
			c-0.0037,0.0203-0.0055,0.0342-0.0379,0.0416c-0.0166,0.0037-0.0379-0.0074-0.0564-0.0176
			c-0.0231-0.0129-0.0453-0.024-0.0628-0.0129c-0.0185,0.0129-0.024,0.0471-0.0185,0.1164c0.0166,0.1922-0.06,0.2624-0.06,0.2624
			c-0.0027,0.0028-0.085,0.0582-0.0942,0.1284c-0.0037,0.0277,0.0037,0.0536,0.024,0.0776c0.0121,0.0139,0.0231,0.0259,0.0314,0.036
			c0.048,0.0536,0.048,0.0536,0.0222,0.1164c-0.0111,0.0249-0.0028,0.0508,0.0222,0.0693c0.0268,0.0212,0.0749,0.0351,0.1293,0.0351
			c0.0565,0,0.1211-0.0157,0.1737-0.0545c0.037-0.0277,0.0942-0.0684,0.1654-0.1127c-0.0785,0.1358,0.0342,0.2337,0.0841,0.2762
			l0.0029,0.0028c0.0054,0.0046,0.0202,0.0176,0.035,0.012c0.0176-0.0074,0.0185-0.0351,0.0204-0.0665l0.2077,0.2162
			c-0.0599,0.049-0.1774,0.1607-0.1903,0.2891c-0.0286-0.0055-0.0582-0.0139-0.0887-0.0249
			c-0.0462-0.0166-0.0758-0.0323-0.1035-0.0471c-0.0314-0.0166-0.061-0.0323-0.1109-0.0471
			c-0.0785-0.024-0.1413-0.0434-0.1977-0.0102c-0.0525,0.0323-0.085,0.1035-0.0785,0.1709c0.0046,0.0462,0.0268,0.0721,0.048,0.0979
			c0.0222,0.0259,0.0434,0.0517,0.049,0.0988c0.0055,0.0508-0.0046,0.0942-0.0286,0.1229
			c-0.0139,0.0157-0.0259,0.0212-0.0406,0.0277c-0.0157,0.0065-0.0333,0.0139-0.0508,0.036
			c-0.0341,0.0416-0.0453,0.1016-0.0268,0.1478c0.0065,0.0185,0.0157,0.0277,0.024,0.0351
			c0.0074,0.0065,0.0149,0.0139,0.0212,0.0286c0.0111,0.0249,0.0083,0.0425,0.0055,0.0637
			c-0.0027,0.0157-0.0055,0.0342-0.0009,0.0573c0.012,0.06,0.0637,0.1072,0.097,0.1219c0.0083,0.0037,0.0157,0.0055,0.0214,0.0055
			c0.0045,0,0.0092-0.0009,0.0119-0.0037c0.0166-0.0102,0.0083-0.0351-0.0018-0.0693c-0.0111-0.0351-0.0249-0.0794-0.0065-0.0979
			c0.012-0.012,0.0323-0.0083,0.0545-0.0037c0.0231,0.0037,0.0499,0.0083,0.0684-0.0092c0.0231-0.0231,0.0092-0.0619-0.0055-0.1044
			c-0.0157-0.0434-0.0333-0.0933-0.0111-0.1293c0.0129-0.0212,0.0305-0.0268,0.0517-0.0333
			c0.0232-0.0065,0.049-0.0148,0.0656-0.0434c0.0397-0.0684-0.0102-0.1755-0.0462-0.2282c-0.0176-0.0249-0.0351-0.0443-0.049-0.0591
			c-0.0211-0.0222-0.0323-0.0351-0.0286-0.0471c0.0046-0.0157,0.0314-0.0286,0.0564-0.0286
			c0.0305,0.0009,0.0517,0.0259,0.073,0.0527c0.0111,0.0129,0.0222,0.0259,0.0352,0.037c0.0479,0.0406,0.1209,0.0508,0.2207,0.0305
			c0.0749,0.1718,0.2734,0.3344,0.4425,0.3113c-0.0342,0.1044-0.06,0.1755-0.085,0.2051c-0.0147,0.0185-0.0305,0.0564-0.0147,0.0887
			c0.0156,0.0323,0.0581,0.048,0.1246,0.0462c0.0637-0.0028,0.1312,0.012,0.194,0.0351c-0.0203,0.0259-0.0351,0.0499-0.0443,0.0711
			l-0.1386,0.0379c-0.0018,0-0.0037,0.0009-0.0055,0.0028l-0.1016,0.1099l-0.6152-0.0074l0,0c-0.0055,0-0.0092,0.0046-0.0102,0.0092
			c-0.0009,0.0055,0.0028,0.0102,0.0083,0.0111l0.4231,0.097l-0.3594-0.0249c-0.0046,0-0.0083,0.0018-0.0102,0.0055
			c-0.0018,0.0037-0.0008,0.0083,0.0018,0.0111l0.1284,0.1497c0.0018,0.0028,0.0046,0.0037,0.0075,0.0037h2.0757
			c0.0029,0,0.0055-0.0009,0.0074-0.0028l0.1618-0.1534c0.0017-0.0018,0.0036-0.0046,0.0027-0.0074
			c0-0.0037-0.0018-0.0065-0.0037-0.0083c-0.0018-0.0009-0.1229-0.0859-0.2114-0.145c0.0359-0.0139,0.0683-0.0314,0.0941-0.0545
			c0.0722,0.0388,0.183,0.0785,0.2263,0.0841c0.0029,0,0.0055,0,0.0074,0c0.0342,0,0.0665-0.0277,0.0831-0.0443
			c0.0324-0.0333,0.0619-0.0841,0.0564-0.1182c-0.0074-0.0462-0.0619-0.0527-0.0905-0.049c-0.0037,0-0.0065,0.0028-0.0083,0.0055
			c0,0.0009-0.0286,0.0711-0.0859,0.0758c-0.0231,0.0018-0.0527-0.0157-0.0793-0.037c0.0618-0.037,0.168-0.1303,0.3075-0.2725
			l0.0074-0.0074c0.0148-0.0148,0.0166-0.036,0.012-0.0499c-0.0028-0.0102-0.0092-0.0166-0.0166-0.0176
			c-0.0018-0.0018-0.0037-0.012-0.0054-0.0194c-0.0038-0.0139-0.0084-0.0323-0.0185-0.0527
			c-0.0066-0.012-0.0177-0.0185-0.0315-0.0176c-0.0397,0.0018-0.0942,0.0591-0.1099,0.1025
			c-0.0139,0.037-0.037,0.0564-0.0979,0.1062c-0.0222,0.0185-0.048,0.0406-0.0813,0.0684c-0.0018-0.073-0.0406-0.1266-0.0758-0.1737
			c-0.0185-0.0259-0.037-0.0508-0.048-0.0758c0.024,0.0166,0.0545,0.0268,0.0896,0.0305c0.0887,0.0102,0.1894-0.0268,0.2707-0.097
			c0.0176-0.0157,0.0314-0.0333,0.0416-0.0517l0.1838,0.0176c0,0,0,0,0.0009,0c0.0046,0,0.0083-0.0037,0.0102-0.0083
			c0.0009-0.0046-0.0018-0.0102-0.0065-0.012l-0.0693-0.0277l0.0166-0.0074c0.0037-0.0009,0.0055-0.0046,0.0065-0.0083
			c0-0.0037-0.0018-0.0074-0.0046-0.0092l-0.0536-0.036l0.0296-0.0231c0.0037-0.0018,0.0046-0.0065,0.0037-0.0102
			c-0.0008-0.0037-0.0037-0.0065-0.0074-0.0074l-0.1072-0.0212c-0.0148-0.037-0.0406-0.0813-0.0868-0.1312
			c-0.0176-0.0194-0.0471-0.024-0.0748-0.0296c-0.0212-0.0028-0.0416-0.0065-0.0517-0.0148
			c-0.0083-0.0074-0.0157-0.024-0.0231-0.0406c-0.0111-0.0249-0.0222-0.0517-0.0425-0.0591
			c-0.0092-0.0037-0.0194-0.0028-0.0296,0.0009c-0.0406,0.0185-0.0647,0.0582-0.0647,0.109c0,0.0194,0.024,0.0471,0.0573,0.0794
			c-0.0619-0.0139-0.1192-0.037-0.1201-0.037c-0.0037-0.0009-0.0083,0-0.0111,0.0028c-0.0027,0.0028-0.0037,0.0074-0.0018,0.0111
			c0.0194,0.0443,0.0527,0.0785,0.0794,0.1007c-0.0111,0-0.0231,0.0009-0.036,0.0009c-0.0009,0-0.0028,0-0.0028,0
			c-0.0028,0-0.0055,0.0009-0.0074,0.0037c-0.0028,0.0018-0.0037,0.0046-0.0028,0.0074c0.0037,0.0416,0.0518,0.0582,0.1035,0.0767
			c0.0277,0.0102,0.0564,0.0203,0.0767,0.0342c0.024,0.0166,0.036,0.037,0.0314,0.0517c-0.0046,0.0148-0.0249,0.0231-0.0536,0.0231
			c-0.0314,0-0.0647-0.0277-0.0969-0.0545c-0.0417-0.0351-0.0851-0.0711-0.1331-0.0573c-0.0406,0.0148-0.0665,0.037-0.0767,0.0665
			c-0.0194,0.0582,0.0259,0.1275,0.0528,0.1691c0.0073,0.012,0.0156,0.0249,0.0165,0.0296c0.0009,0.0037-0.0083,0.0176-0.0582,0.036
			c-0.0203-0.0268-0.0471-0.0628-0.0822-0.1007c0.0296-0.1469,0.146-0.3797,0.2134-0.5053c0.0018-0.0037,0.0018-0.0083-0.0009-0.012
			c-0.0028-0.0028-0.0074-0.0046-0.0111-0.0028c-0.0785,0.0259-0.1829,0.1053-0.3021,0.2309
			c-0.0259-0.0166-0.0573-0.0351-0.0979-0.0573l-0.0037-0.0018c-0.0064-0.0092-0.0156-0.0203-0.0268-0.0351
			c-0.0342-0.0434-0.0896-0.1146-0.1386-0.206c0.0009-0.0018,0.0037-0.0028,0.0046-0.0046
			c0.0323-0.0037,0.0702-0.0065,0.1118-0.0092c0.17-0.0129,0.3797-0.0286,0.4768-0.0767c0.0747,0.024,0.1422,0.0822,0.2068,0.1386
			c0.0591,0.0499,0.1136,0.0979,0.1681,0.1146l0.0055,0.0092c0.036,0.0647,0.0656,0.1192,0.1238,0.1192
			c0.0176,0,0.037-0.0046,0.06-0.0157c0.0037-0.0018,0.0065-0.0055,0.0065-0.0092c0-0.0998-0.0564-0.1875-0.158-0.2485
			c-0.0433-0.0259-0.0998-0.0822-0.1542-0.1367c-0.0759-0.0758-0.1415-0.1404-0.183-0.1404c-0.037,0-0.0998-0.0037-0.1552-0.0065
			c-0.0323-0.0009-0.0628-0.0028-0.0831-0.0037C16.5333,13.617,16.5527,13.6022,16.5758,13.5855z M16.2138,12.8262
			c-0.013,0.0166-0.0324,0.0388-0.0565,0.0628c-0.0203-0.0416-0.0333-0.0767-0.0388-0.1025l0.0296-0.0092
			c0.0425-0.0139,0.0896-0.0286,0.1312-0.0443C16.259,12.7652,16.2377,12.7966,16.2138,12.8262z M15.3305,12.4068
			c0.0046,0.0139,0.0139,0.0342,0.0277,0.0499c-0.0065,0.0166-0.012,0.0342-0.0166,0.0527
			c-0.0323-0.0028-0.0665-0.0065-0.1007-0.0102c0.0055-0.0028,0.0111-0.0055,0.0166-0.0092c0.0212-0.0148,0.037-0.036,0.0527-0.0573
			C15.3167,12.4234,15.3232,12.4151,15.3305,12.4068z M15.5366,12.7172c0.0286-0.0139,0.0491-0.0333,0.06-0.0499l0,0
			c0.0046-0.0074,0.0083-0.0139,0.0092-0.0185c0.0018-0.0074,0.0249-0.0157,0.0499-0.0212
			c-0.0203,0.0434-0.0424,0.0942-0.0628,0.146C15.5781,12.7587,15.5587,12.7393,15.5366,12.7172z M14.6747,13.3768
			c-0.0065-0.0129-0.0065-0.0342,0.0009-0.061c0.012-0.0443,0.0406-0.0998,0.0739-0.1487c0.0915-0.0397,0.1774-0.0647,0.2542-0.0758
			c0.0119,0.0582,0.0387,0.1182,0.0683,0.182c0.0249,0.0564,0.0518,0.1136,0.073,0.1792c0.0166,0.0499,0.048,0.0896,0.0887,0.121
			c-0.0591,0.0277-0.109,0.0434-0.1478,0.0471c-0.024,0.0028-0.0517,0.0111-0.0831,0.0231l-0.254-0.1718
			c0.0176-0.0046,0.0231-0.0139,0.0241-0.0212C14.7744,13.4202,14.7042,13.3879,14.6747,13.3768z M16.1047,14.2341
			c-0.0009,0.0018-0.0009,0.0037-0.0009,0.0065c0,0.0009,0.0009,0.0018,0.0009,0.0037c-0.1311-0.0471-0.267-0.0517-0.4055-0.012
			c-0.0037,0.0009-0.0065,0.0046-0.0074,0.0092c0,0.0046,0.0018,0.0083,0.0065,0.0102c0.0268,0.012,0.0527,0.0185,0.0767,0.0249
			c0.0564,0.0139,0.0868,0.0212,0.0804,0.0868c0,0.0028,0.0009,0.0055,0.0028,0.0074c0.0018,0.0028,0.0037,0.0037,0.0065,0.0037
			c0.1016,0.0074,0.1607,0.024,0.1801,0.0499c0.0065,0.0092,0.0083,0.0203,0.0046,0.0333c0,0.0028,0,0.0055,0.0018,0.0083
			c0.0009,0.0018,0.0037,0.0037,0.0065,0.0046c0.1035,0.0185,0.1423,0.048,0.1349,0.1007c-0.0009,0.0028,0,0.0055,0.0018,0.0083
			c0.0018,0.0018,0.0055,0.0028,0.0083,0.0028c0.0785,0,0.1266,0.0185,0.1478,0.0591c-0.0591-0.0176-0.1423-0.0351-0.2356-0.0351
			c-0.0046-0.0212-0.0231-0.0508-0.061-0.0961c-0.0388-0.0462-0.1192-0.0887-0.2799-0.0259
			c-0.0028,0.0009-0.0055,0.0018-0.0065,0.0018c-0.0074,0.0028-0.0933,0.012-0.1542,0.0185l0.0341-0.1201
			c0.0249-0.0887-0.0212-0.1968-0.0554-0.2596c0.1155-0.024,0.2467-0.0711,0.3557-0.1284c0.0397,0.0462,0.0776,0.0804,0.0999,0.0998
			c0.0092,0.0074,0.0156,0.0139,0.0185,0.0166c0.0017,0.0028,0.0054,0.0065,0.0082,0.0102
			C16.0973,14.1472,16.1315,14.1842,16.1047,14.2341z M15.2456,14.6267c0.0591-0.0443,0.1303-0.1478,0.1728-0.2522
			c0.0185,0.0582,0.012,0.121,0.0083,0.1607l-0.0009,0.0018c-0.0028,0.0074-0.0083,0.0139-0.0139,0.0203
			c-0.0148,0.0176-0.0314,0.0379-0.0314,0.0804c0,0.0102,0.0037,0.0185,0.0112,0.0249c0.0092,0.0074,0.023,0.0102,0.0396,0.0102
			c0.0259,0,0.0591-0.0065,0.0933-0.0129c0.0323-0.0065,0.0619-0.012,0.0822-0.012c0.0314,0,0.0915-0.012,0.1506-0.0231
			c0.0582-0.0111,0.1376-0.0268,0.1487-0.0212c0.0074,0.0074,0.0249,0.0157,0.0453,0.0231
			c-0.0591,0.0157-0.1146,0.0406-0.1635,0.0739c-0.1247-0.0388-0.243-0.0296-0.2853,0.0028
			c-0.0112,0.0083-0.0334,0.0268-0.0602,0.0508C15.3547,14.7154,15.2566,14.6655,15.2456,14.6267z"/>
		<path class="st8" d="M16.5758,13.5855c0.0582-0.0434,0.1376-0.1025,0.182-0.2393c0.012,0.0018,0.0268,0.0037,0.0434,0.0046
			c0.0988,0.0102,0.2827,0.0286,0.3353,0.0693c0.0139,0.0102,0.0268,0.0222,0.038,0.0333c0.0452,0.0434,0.0867,0.0831,0.1745,0.0176
			c0.0028-0.0018,0.0046-0.0065,0.0037-0.0102c-0.0055-0.0203-0.0517-0.2005-0.1967-0.2023
			c-0.0177-0.0083-0.0361-0.0166-0.0546-0.0249c-0.1607-0.0767-0.3279-0.1561-0.3871-0.1219
			c-0.024,0.0148-0.0582,0.0517-0.0941,0.0915c-0.05,0.0545-0.1248,0.1358-0.1498,0.1192
			c-0.0388-0.0277-0.2143-0.2457-0.3039-0.4139c0.0268-0.0268,0.049-0.0508,0.0637-0.0693c0.0297-0.037,0.0564-0.0767,0.0794-0.1182
			c0.0057-0.0018,0.0102-0.0046,0.0149-0.0065c0.0221-0.0102,0.0452-0.0139,0.071-0.0176c0.024-0.0037,0.048-0.0074,0.0721-0.0166
			c0.0406-0.0176,0.0564-0.0425,0.0527-0.0896c-0.0028-0.0443-0.0462-0.1857-0.4859-0.1691l-0.0139-0.0979
			c-0.0008-0.0037-0.0028-0.0074-0.0065-0.0083c-0.0028-0.0018-0.0065-0.0009-0.0092,0.0009s-0.0656,0.0462-0.0924,0.1016
			l-0.0055-0.0055c-0.0148-0.0129-0.0277-0.0249-0.0333-0.0296c-0.0017-0.0018-0.0065-0.0037-0.0129-0.0028
			c-0.0018,0.0009-0.0046,0.0018-0.0065,0.0028c0.0065-0.024,0.0111-0.048,0.0111-0.073c0-0.1524-0.1238-0.2762-0.2762-0.2762
			c-0.1312,0-0.242,0.0915-0.2697,0.218c-0.0139,0.0009-0.0277,0.0009-0.0406,0.0009c-0.0471-0.0009-0.0961-0.0009-0.145,0.0065
			c-0.0702,0.0102-0.1321,0.0286-0.1856,0.0564c-0.0277,0.0139-0.0537,0.0323-0.0786,0.0508
			c-0.0268,0.0185-0.0554,0.0388-0.085,0.0527c-0.0055,0.0028-0.0074,0.0083-0.0046,0.0139
			c0.002,0.0046,0.0083,0.0074,0.0129,0.0046c0.0157-0.0065,0.0637,0.0102,0.0868,0.0176c0.0074,0.0028,0.0139,0.0046,0.0185,0.0065
			c0.0176,0.0046,0.0351,0.0111,0.0527,0.0166c0.0129,0.0037,0.0259,0.0074,0.0379,0.012c-0.036,0.0102-0.1052,0.0194-0.1968-0.0129
			c-0.0323-0.012-0.06-0.0231-0.0831-0.0323c-0.0794-0.0323-0.1182-0.048-0.1866-0.0259c-0.0628,0.0203-0.0887,0.0665-0.1053,0.097
			c-0.0055,0.0092-0.012,0.0212-0.0157,0.0222c-0.0065,0.0037-0.024,0.0074-0.0416,0.0111
			c-0.0388,0.0074-0.0831,0.0166-0.1007,0.0351c-0.0111,0.0111-0.0128,0.0249-0.0148,0.0379
			c-0.0037,0.0203-0.0055,0.0342-0.0379,0.0416c-0.0166,0.0037-0.0379-0.0074-0.0564-0.0176
			c-0.0231-0.0129-0.0453-0.024-0.0628-0.0129c-0.0185,0.0129-0.024,0.0471-0.0185,0.1164c0.0166,0.1922-0.06,0.2624-0.06,0.2624
			c-0.0027,0.0028-0.085,0.0582-0.0942,0.1284c-0.0037,0.0277,0.0037,0.0536,0.024,0.0776c0.0121,0.0139,0.0231,0.0259,0.0314,0.036
			c0.048,0.0536,0.048,0.0536,0.0222,0.1164c-0.0111,0.0249-0.0028,0.0508,0.0222,0.0693c0.0268,0.0212,0.0749,0.0351,0.1293,0.0351
			c0.0565,0,0.1211-0.0157,0.1737-0.0545c0.037-0.0277,0.0942-0.0684,0.1654-0.1127c-0.0785,0.1358,0.0342,0.2337,0.0841,0.2762
			l0.0029,0.0028c0.0054,0.0046,0.0202,0.0176,0.035,0.012c0.0176-0.0074,0.0185-0.0351,0.0204-0.0665l0.2077,0.2162
			c-0.0599,0.049-0.1774,0.1607-0.1903,0.2891c-0.0286-0.0055-0.0582-0.0139-0.0887-0.0249
			c-0.0462-0.0166-0.0758-0.0323-0.1035-0.0471c-0.0314-0.0166-0.061-0.0323-0.1109-0.0471
			c-0.0785-0.024-0.1413-0.0434-0.1977-0.0102c-0.0525,0.0323-0.085,0.1035-0.0785,0.1709c0.0046,0.0462,0.0268,0.0721,0.048,0.0979
			c0.0222,0.0259,0.0434,0.0517,0.049,0.0988c0.0055,0.0508-0.0046,0.0942-0.0286,0.1229
			c-0.0139,0.0157-0.0259,0.0212-0.0406,0.0277c-0.0157,0.0065-0.0333,0.0139-0.0508,0.036
			c-0.0341,0.0416-0.0453,0.1016-0.0268,0.1478c0.0065,0.0185,0.0157,0.0277,0.024,0.0351
			c0.0074,0.0065,0.0149,0.0139,0.0212,0.0286c0.0111,0.0249,0.0083,0.0425,0.0055,0.0637
			c-0.0027,0.0157-0.0055,0.0342-0.0009,0.0573c0.012,0.06,0.0637,0.1072,0.097,0.1219c0.0083,0.0037,0.0157,0.0055,0.0214,0.0055
			c0.0045,0,0.0092-0.0009,0.0119-0.0037c0.0166-0.0102,0.0083-0.0351-0.0018-0.0693c-0.0111-0.0351-0.0249-0.0794-0.0065-0.0979
			c0.012-0.012,0.0323-0.0083,0.0545-0.0037c0.0231,0.0037,0.0499,0.0083,0.0684-0.0092c0.0231-0.0231,0.0092-0.0619-0.0055-0.1044
			c-0.0157-0.0434-0.0333-0.0933-0.0111-0.1293c0.0129-0.0212,0.0305-0.0268,0.0517-0.0333
			c0.0232-0.0065,0.049-0.0148,0.0656-0.0434c0.0397-0.0684-0.0102-0.1755-0.0462-0.2282c-0.0176-0.0249-0.0351-0.0443-0.049-0.0591
			c-0.0211-0.0222-0.0323-0.0351-0.0286-0.0471c0.0046-0.0157,0.0314-0.0286,0.0564-0.0286
			c0.0305,0.0009,0.0517,0.0259,0.073,0.0527c0.0111,0.0129,0.0222,0.0259,0.0352,0.037c0.0479,0.0406,0.1209,0.0508,0.2207,0.0305
			c0.0749,0.1718,0.2734,0.3344,0.4425,0.3113c-0.0342,0.1044-0.06,0.1755-0.085,0.2051c-0.0147,0.0185-0.0305,0.0564-0.0147,0.0887
			c0.0156,0.0323,0.0581,0.048,0.1246,0.0462c0.0637-0.0028,0.1312,0.012,0.194,0.0351c-0.0203,0.0259-0.0351,0.0499-0.0443,0.0711
			l-0.1386,0.0379c-0.0018,0-0.0037,0.0009-0.0055,0.0028l-0.1016,0.1099l-0.6152-0.0074l0,0c-0.0055,0-0.0092,0.0046-0.0102,0.0092
			c-0.0009,0.0055,0.0028,0.0102,0.0083,0.0111l0.4231,0.097l-0.3594-0.0249c-0.0046,0-0.0083,0.0018-0.0102,0.0055
			c-0.0018,0.0037-0.0008,0.0083,0.0018,0.0111l0.1284,0.1497c0.0018,0.0028,0.0046,0.0037,0.0075,0.0037h2.0757
			c0.0029,0,0.0055-0.0009,0.0074-0.0028l0.1618-0.1534c0.0017-0.0018,0.0036-0.0046,0.0027-0.0074
			c0-0.0037-0.0018-0.0065-0.0037-0.0083c-0.0018-0.0009-0.1229-0.0859-0.2114-0.145c0.0359-0.0139,0.0683-0.0314,0.0941-0.0545
			c0.0722,0.0388,0.183,0.0785,0.2263,0.0841c0.0029,0,0.0055,0,0.0074,0c0.0342,0,0.0665-0.0277,0.0831-0.0443
			c0.0324-0.0333,0.0619-0.0841,0.0564-0.1182c-0.0074-0.0462-0.0619-0.0527-0.0905-0.049c-0.0037,0-0.0065,0.0028-0.0083,0.0055
			c0,0.0009-0.0286,0.0711-0.0859,0.0758c-0.0231,0.0018-0.0527-0.0157-0.0793-0.037c0.0618-0.037,0.168-0.1303,0.3075-0.2725
			l0.0074-0.0074c0.0148-0.0148,0.0166-0.036,0.012-0.0499c-0.0028-0.0102-0.0092-0.0166-0.0166-0.0176
			c-0.0018-0.0018-0.0037-0.012-0.0054-0.0194c-0.0038-0.0139-0.0084-0.0323-0.0185-0.0527
			c-0.0066-0.012-0.0177-0.0185-0.0315-0.0176c-0.0397,0.0018-0.0942,0.0591-0.1099,0.1025
			c-0.0139,0.037-0.037,0.0564-0.0979,0.1062c-0.0222,0.0185-0.048,0.0406-0.0813,0.0684c-0.0018-0.073-0.0406-0.1266-0.0758-0.1737
			c-0.0185-0.0259-0.037-0.0508-0.048-0.0758c0.024,0.0166,0.0545,0.0268,0.0896,0.0305c0.0887,0.0102,0.1894-0.0268,0.2707-0.097
			c0.0176-0.0157,0.0314-0.0333,0.0416-0.0517l0.1838,0.0176c0,0,0,0,0.0009,0c0.0046,0,0.0083-0.0037,0.0102-0.0083
			c0.0009-0.0046-0.0018-0.0102-0.0065-0.012l-0.0693-0.0277l0.0166-0.0074c0.0037-0.0009,0.0055-0.0046,0.0065-0.0083
			c0-0.0037-0.0018-0.0074-0.0046-0.0092l-0.0536-0.036l0.0296-0.0231c0.0037-0.0018,0.0046-0.0065,0.0037-0.0102
			c-0.0008-0.0037-0.0037-0.0065-0.0074-0.0074l-0.1072-0.0212c-0.0148-0.037-0.0406-0.0813-0.0868-0.1312
			c-0.0176-0.0194-0.0471-0.024-0.0748-0.0296c-0.0212-0.0028-0.0416-0.0065-0.0517-0.0148
			c-0.0083-0.0074-0.0157-0.024-0.0231-0.0406c-0.0111-0.0249-0.0222-0.0517-0.0425-0.0591
			c-0.0092-0.0037-0.0194-0.0028-0.0296,0.0009c-0.0406,0.0185-0.0647,0.0582-0.0647,0.109c0,0.0194,0.024,0.0471,0.0573,0.0794
			c-0.0619-0.0139-0.1192-0.037-0.1201-0.037c-0.0037-0.0009-0.0083,0-0.0111,0.0028c-0.0027,0.0028-0.0037,0.0074-0.0018,0.0111
			c0.0194,0.0443,0.0527,0.0785,0.0794,0.1007c-0.0111,0-0.0231,0.0009-0.036,0.0009c-0.0009,0-0.0028,0-0.0028,0
			c-0.0028,0-0.0055,0.0009-0.0074,0.0037c-0.0028,0.0018-0.0037,0.0046-0.0028,0.0074c0.0037,0.0416,0.0518,0.0582,0.1035,0.0767
			c0.0277,0.0102,0.0564,0.0203,0.0767,0.0342c0.024,0.0166,0.036,0.037,0.0314,0.0517c-0.0046,0.0148-0.0249,0.0231-0.0536,0.0231
			c-0.0314,0-0.0647-0.0277-0.0969-0.0545c-0.0417-0.0351-0.0851-0.0711-0.1331-0.0573c-0.0406,0.0148-0.0665,0.037-0.0767,0.0665
			c-0.0194,0.0582,0.0259,0.1275,0.0528,0.1691c0.0073,0.012,0.0156,0.0249,0.0165,0.0296c0.0009,0.0037-0.0083,0.0176-0.0582,0.036
			c-0.0203-0.0268-0.0471-0.0628-0.0822-0.1007c0.0296-0.1469,0.146-0.3797,0.2134-0.5053c0.0018-0.0037,0.0018-0.0083-0.0009-0.012
			c-0.0028-0.0028-0.0074-0.0046-0.0111-0.0028c-0.0785,0.0259-0.1829,0.1053-0.3021,0.2309
			c-0.0259-0.0166-0.0573-0.0351-0.0979-0.0573l-0.0037-0.0018c-0.0064-0.0092-0.0156-0.0203-0.0268-0.0351
			c-0.0342-0.0434-0.0896-0.1146-0.1386-0.206c0.0009-0.0018,0.0037-0.0028,0.0046-0.0046
			c0.0323-0.0037,0.0702-0.0065,0.1118-0.0092c0.17-0.0129,0.3797-0.0286,0.4768-0.0767c0.0747,0.024,0.1422,0.0822,0.2068,0.1386
			c0.0591,0.0499,0.1136,0.0979,0.1681,0.1146l0.0055,0.0092c0.036,0.0647,0.0656,0.1192,0.1238,0.1192
			c0.0176,0,0.037-0.0046,0.06-0.0157c0.0037-0.0018,0.0065-0.0055,0.0065-0.0092c0-0.0998-0.0564-0.1875-0.158-0.2485
			c-0.0433-0.0259-0.0998-0.0822-0.1542-0.1367c-0.0759-0.0758-0.1415-0.1404-0.183-0.1404c-0.037,0-0.0998-0.0037-0.1552-0.0065
			c-0.0323-0.0009-0.0628-0.0028-0.0831-0.0037C16.5333,13.617,16.5527,13.6022,16.5758,13.5855z M16.2138,12.8262
			c-0.013,0.0166-0.0324,0.0388-0.0565,0.0628c-0.0203-0.0416-0.0333-0.0767-0.0388-0.1025l0.0296-0.0092
			c0.0425-0.0139,0.0896-0.0286,0.1312-0.0443C16.259,12.7652,16.2377,12.7966,16.2138,12.8262z M16.0031,12.343l0.012,0.0905
			c0.0009,0.0046,0.0055,0.0092,0.0111,0.0083c0.3418-0.0139,0.4693,0.0684,0.474,0.1497c0.0027,0.0388-0.0075,0.0554-0.0408,0.0693
			c-0.0212,0.0092-0.0434,0.012-0.0665,0.0157c-0.0231,0.0037-0.0462,0.0074-0.0683,0.0157
			c0.0147-0.0277,0.0285-0.0564,0.0396-0.0859c0.0018-0.0046-0.0009-0.0111-0.0055-0.0129
			c-0.0055-0.0018-0.0111,0.0009-0.0139,0.0055c-0.0139,0.037-0.0305,0.0721-0.0499,0.1053
			c-0.0453,0.0194-0.1025,0.037-0.1534,0.0536l-0.0379,0.0111c-0.0046,0.0018-0.0074,0.0065-0.0065,0.0111
			c0.0037,0.0314,0.0194,0.073,0.0443,0.1238c-0.0545,0.0517-0.1321,0.1118-0.2356,0.1626
			c-0.085,0.0406-0.1542,0.0674-0.2088,0.0794c-0.0277-0.3769,0.1044-0.5266,0.1764-0.6069
			c0.0268-0.0305,0.0453-0.0499,0.0453-0.0711c0-0.0092,0.0018-0.0194,0.0055-0.0296
			C15.9403,12.3975,15.9809,12.3606,16.0031,12.343z M15.6881,13.2548c-0.0193,0.0185-0.0416,0.0388-0.0647,0.0582
			c-0.0055-0.0388-0.0083-0.0878-0.0111-0.1423c0.0083,0.0018,0.0166,0.0018,0.0259,0.0018c0.0129,0,0.0268-0.0009,0.0406-0.0028
			C15.6816,13.1985,15.6844,13.2271,15.6881,13.2548z M15.3047,12.5583h0.0009c0.0388,0,0.1949,0.1487,0.2873,0.2448
			c-0.0009,0.0397-0.0065,0.1958-0.0018,0.3409c-0.0065-0.0037-0.0129-0.0074-0.0176-0.012
			c-0.0139-0.0148-0.0148-0.0323-0.0156-0.0647c-0.001-0.0259-0.0029-0.0619-0.0121-0.1118c-0.012-0.0591-0.0323-0.1182-0.06-0.1737
			c-0.0017-0.0046-0.0083-0.0065-0.0139-0.0046c-0.0046,0.0028-0.0064,0.0092-0.0037,0.0139
			c0.0268,0.0536,0.0462,0.1109,0.0573,0.1691c0.0092,0.0471,0.0111,0.0813,0.012,0.1081c0.0009,0.0351,0.002,0.0573,0.0212,0.0776
			c0.0092,0.0092,0.0203,0.0157,0.0333,0.0203c0.0009,0.0314,0.0029,0.0619,0.0055,0.0896
			c-0.2097-0.0342-0.2651-0.2679-0.2983-0.4092c-0.0047-0.0222-0.0092-0.0416-0.014-0.0573
			c-0.0009-0.0028-0.0018-0.0037-0.0037-0.0055c-0.0378-0.0314-0.0859-0.0942-0.146-0.1912
			C15.2161,12.5684,15.2548,12.5611,15.3047,12.5583z M15.5579,12.2691c0.0322-0.0009,0.0647,0.0074,0.0924,0.0249
			c0.0165,0.0111,0.0313,0.0249,0.0433,0.0416c0.0111,0.0166,0.0214,0.036,0.0231,0.0554c0,0.0028,0,0.0065,0,0.0092
			c-0.0776-0.0111-0.1506-0.0277-0.218-0.0434c-0.0212-0.0055-0.0434-0.0102-0.0647-0.012c0.0074-0.012,0.0157-0.024,0.024-0.0351
			c0.0037-0.0065,0.0083-0.0129,0.0139-0.0176c0.0055-0.0046,0.0129-0.0083,0.0194-0.0111
			c0.0102-0.0037,0.0212-0.0065,0.0323-0.0083C15.5347,12.2701,15.5467,12.2691,15.5579,12.2691z M15.3666,12.4336
			c-0.0111-0.0157-0.0176-0.0342-0.0203-0.0434c0.0065-0.0065,0.0139-0.012,0.0222-0.0157
			c0.0092-0.0046,0.0194-0.0074,0.0296-0.0083C15.3878,12.3855,15.3767,12.4086,15.3666,12.4336z M15.3305,12.4068
			c0.0046,0.0139,0.0139,0.0342,0.0277,0.0499c-0.0065,0.0166-0.012,0.0342-0.0166,0.0527
			c-0.0323-0.0028-0.0665-0.0065-0.1007-0.0102c0.0055-0.0028,0.0111-0.0055,0.0166-0.0092c0.0212-0.0148,0.037-0.036,0.0527-0.0573
			C15.3167,12.4234,15.3232,12.4151,15.3305,12.4068z M15.422,12.3652c0.0231,0.0009,0.0471,0.0055,0.0721,0.0111
			c0.0684,0.0166,0.1423,0.0333,0.2209,0.0443c-0.0084,0.0591-0.0408,0.1589-0.0491,0.1838
			c-0.0231,0.0037-0.073,0.0148-0.0794,0.0388c-0.0028,0.0083-0.0231,0.0416-0.0647,0.0591c-0.0545-0.0536-0.1219-0.1146-0.17-0.145
			C15.3666,12.477,15.3971,12.4096,15.422,12.3652z M15.5366,12.7172c0.0286-0.0139,0.0491-0.0333,0.06-0.0499l0,0
			c0.0046-0.0074,0.0083-0.0139,0.0092-0.0185c0.0018-0.0074,0.0249-0.0157,0.0499-0.0212
			c-0.0203,0.0434-0.0424,0.0942-0.0628,0.146C15.5781,12.7587,15.5587,12.7393,15.5366,12.7172z M15.8628,12.4003
			c0.0054,0.0046,0.0174,0.0157,0.0304,0.0277l0.0102,0.0092c-0.0028,0.0102-0.0055,0.0203-0.0055,0.0305
			c0,0.0129-0.0176,0.0333-0.0397,0.0582c-0.073,0.0822-0.2097,0.2365-0.1811,0.6236c-0.0259,0.0037-0.048,0.0037-0.0656,0.0009
			c-0.0037-0.1155-0.0018-0.2485,0.0028-0.3501c0-0.0028-0.0008-0.0055-0.0028-0.0083c-0.0009,0-0.0028-0.0018-0.0037-0.0028
			c0.0508-0.1266,0.1035-0.2337,0.1257-0.2642c0.0322-0.048,0.0812-0.0933,0.1098-0.1136c0,0,0.001,0,0.001-0.0009
			C15.8525,12.4049,15.859,12.4012,15.8628,12.4003z M15.5892,12.0539c0.1404,0,0.2559,0.1155,0.2559,0.2559
			c0,0.0296-0.0055,0.0591-0.0166,0.0868c-0.0342,0.0249-0.0822,0.0739-0.1118,0.1164c-0.0009,0.0009-0.0017,0.0018-0.0017,0.0028
			c0.0092-0.036,0.0185-0.0748,0.0221-0.1016l0,0l0,0v-0.0009c0.0009-0.0083,0.0009-0.0157,0-0.024
			c-0.0046-0.049-0.0637-0.1441-0.1764-0.1413c-0.0009,0-0.0018,0-0.0027,0c-0.0565-0.0055-0.1137-0.0028-0.1784,0.0018
			c-0.0129,0.0009-0.0259,0.0009-0.0388,0.0018C15.3675,12.137,15.47,12.0539,15.5892,12.0539z M14.9038,12.4419
			c-0.0046-0.0018-0.0102-0.0037-0.0176-0.0065c-0.0203-0.0065-0.0406-0.0129-0.0581-0.0166c0.0185-0.012,0.0359-0.024,0.0535-0.036
			c0.024-0.0176,0.0499-0.036,0.0759-0.049c0.0516-0.0268,0.1117-0.0453,0.1791-0.0545c0.0471-0.0074,0.0961-0.0065,0.1423-0.0065
			c0.0333,0,0.0674,0,0.1016-0.0028c0.0351-0.0028,0.0674-0.0046,0.0988-0.0046c-0.0157,0-0.0259,0.0139-0.0342,0.0259
			c-0.0102,0.0148-0.0203,0.0305-0.0305,0.0462c-0.0009,0.0028-0.0028,0.0046-0.0037,0.0074c-0.0176,0-0.0351,0.0037-0.0517,0.0111
			c-0.0277,0.0129-0.0471,0.0397-0.0656,0.0647c-0.0148,0.0203-0.0286,0.0397-0.048,0.0527
			c-0.0628,0.0434-0.1561,0.024-0.2217,0.0055c-0.0222-0.0055-0.0443-0.0129-0.0664-0.0203
			C14.939,12.453,14.9213,12.4465,14.9038,12.4419z M14.3042,13.4036c-0.095,0.0711-0.2282,0.0591-0.2781,0.0203
			c-0.0176-0.0139-0.0222-0.0286-0.0157-0.0453c0.0305-0.073,0.0268-0.0804-0.0249-0.1386
			c-0.0092-0.0102-0.0194-0.0212-0.0314-0.0351c-0.0166-0.0194-0.0231-0.0397-0.0194-0.0619
			c0.0083-0.061,0.085-0.1136,0.0868-0.1146c0.0029-0.0028,0.085-0.0776,0.0675-0.2808c-0.0057-0.0748,0.0036-0.0933,0.0092-0.097
			c0.0073-0.0046,0.0248,0.0046,0.0415,0.0129c0.0222,0.012,0.0471,0.0249,0.0711,0.0203c0.0453-0.0102,0.0499-0.037,0.0527-0.0582
			c0.0018-0.0111,0.0037-0.0212,0.0103-0.0277c0.0128-0.0139,0.0581-0.0231,0.0904-0.0296c0.0212-0.0037,0.0379-0.0074,0.0462-0.012
			c0.0092-0.0046,0.0157-0.0157,0.024-0.0305c0.0157-0.0277,0.0388-0.0702,0.0933-0.0878c0.0619-0.0194,0.0971-0.0055,0.1728,0.0249
			c0.024,0.0102,0.0517,0.0203,0.085,0.0323c0.1303,0.0471,0.2189,0.0129,0.2374,0.0046c0.0361,0.0102,0.0804,0.0194,0.1247,0.0194
			c0.0157,0,0.0315-0.0009,0.0462-0.0046l0,0c0.0471,0.0046,0.0962,0.0102,0.1424,0.0148c-0.001,0.0055-0.002,0.0111-0.0029,0.0166
			c-0.012-0.0055-0.0222-0.0092-0.0296-0.0092c-0.0619,0.0037-0.1061,0.0139-0.2262,0.0517
			c-0.1535,0.0268-0.2689,0.182-0.3835,0.3538c-0.0841,0.0702-0.146,0.2051-0.194,0.3307
			C14.4151,13.3241,14.3467,13.3722,14.3042,13.4036z M14.6747,13.3768c-0.0065-0.0129-0.0065-0.0342,0.0009-0.061
			c0.012-0.0443,0.0406-0.0998,0.0739-0.1487c0.0915-0.0397,0.1774-0.0647,0.2542-0.0758c0.0119,0.0582,0.0387,0.1182,0.0683,0.182
			c0.0249,0.0564,0.0518,0.1136,0.073,0.1792c0.0166,0.0499,0.048,0.0896,0.0887,0.121c-0.0591,0.0277-0.109,0.0434-0.1478,0.0471
			c-0.024,0.0028-0.0517,0.0111-0.0831,0.0231l-0.254-0.1718c0.0176-0.0046,0.0231-0.0139,0.0241-0.0212
			C14.7744,13.4202,14.7042,13.3879,14.6747,13.3768z M14.9998,13.0719c-0.0693,0.0092-0.1469,0.0314-0.2291,0.0647
			c0.0305-0.0397,0.061-0.0711,0.0851-0.0831c0.0516-0.024,0.0701-0.036,0.1034-0.0573c0.0139-0.0083,0.0296-0.0185,0.0508-0.0314
			C14.9971,12.9999,14.9952,13.035,14.9998,13.0719z M14.7173,13.4747l0.3611,0.2457l0.0998,0.1811l-0.2273-0.06l-0.3252-0.3372
			c0.0009-0.0083,0.0028-0.0157,0.0046-0.0212c0.0046-0.0157,0.0176-0.0148,0.05-0.0111
			C14.6922,13.4738,14.7042,13.4747,14.7173,13.4747z M14.4622,14.1389c-0.0111-0.0092-0.0221-0.0222-0.0323-0.0351
			c-0.024-0.0277-0.048-0.0573-0.0887-0.0591c-0.0304-0.0009-0.0673,0.0157-0.0758,0.0434
			c-0.0074,0.024,0.0102,0.0425,0.0333,0.0665c0.0139,0.0148,0.0306,0.0333,0.0471,0.0573c0.0305,0.0443,0.0794,0.146,0.0453,0.206
			c-0.0129,0.0222-0.0314,0.0277-0.0536,0.0342c-0.0222,0.0065-0.0471,0.0148-0.0636,0.0416
			c-0.0269,0.0453-0.0075,0.0998,0.0092,0.1478c0.0128,0.0351,0.0239,0.0684,0.0101,0.0822
			c-0.0101,0.0111-0.0296,0.0074-0.0499,0.0037c-0.0248-0.0046-0.0536-0.0092-0.073,0.0102
			c-0.0268,0.0268-0.0111,0.0776,0.002,0.1182c0.0045,0.0166,0.0128,0.0406,0.011,0.0453
			c-0.0017,0.0009-0.0092,0.0009-0.0231-0.0074c-0.0305-0.0166-0.0684-0.0564-0.0767-0.1035
			c-0.0036-0.0185-0.0018-0.0342,0.0009-0.0499c0.0028-0.0222,0.0055-0.0443-0.0065-0.0739
			c-0.0092-0.0194-0.0185-0.0286-0.0268-0.036c-0.0074-0.0074-0.0139-0.0129-0.0194-0.0277
			c-0.0148-0.0388-0.0046-0.0924,0.024-0.1275c0.0149-0.0185,0.0286-0.024,0.0434-0.0305s0.0314-0.0129,0.048-0.0333
			c0.0277-0.0333,0.0397-0.0822,0.0333-0.1376c-0.0065-0.0545-0.0314-0.0841-0.0536-0.1109
			c-0.0203-0.024-0.0397-0.0462-0.0434-0.0859c-0.0055-0.0591,0.0241-0.1238,0.0693-0.1515c0.048-0.0286,0.1062-0.0102,0.1811,0.012
			c0.0471,0.0139,0.0758,0.0296,0.1063,0.0462c0.0285,0.0148,0.059,0.0305,0.107,0.048c0.0323,0.0111,0.0637,0.0203,0.0942,0.0268
			c-0.0009,0.0102,0,0.0194,0.0009,0.0286c0.0028,0.0259,0.0103,0.0527,0.0203,0.0785
			C14.5712,14.1842,14.5048,14.1749,14.4622,14.1389z M15.1375,14.816c-0.0582,0.0018-0.0942-0.0102-0.1061-0.0351
			c-0.0121-0.0231,0.0008-0.0527,0.0119-0.0656c0.0251-0.0305,0.0499-0.0905,0.0933-0.2282
			c0.0018-0.0037,0.0009-0.0074-0.0018-0.0102c-0.0017-0.0028-0.0055-0.0037-0.0092-0.0028
			c-0.1626,0.0342-0.3704-0.1358-0.4397-0.3039c-0.012-0.0286-0.0194-0.0582-0.0231-0.0859
			c-0.0018-0.0102-0.0018-0.0212-0.0008-0.0333c0.0045-0.0905,0.0739-0.1977,0.1848-0.2882l0.0924,0.0952
			c0.0008,0.0009,0.0027,0.0018,0.0045,0.0028l0.2522,0.0665c0.0009,0,0.002,0,0.0028,0c0.0037,0,0.0065-0.0018,0.0084-0.0037
			c0.0027-0.0037,0.0027-0.0083,0.0008-0.0111l-0.1127-0.2042c0-0.0018-0.0018-0.0028-0.0028-0.0037l-0.0684-0.0462
			c0.024-0.0092,0.0453-0.0157,0.0637-0.0166c0.0434-0.0046,0.0998-0.0231,0.1655-0.0545c0.1375,0.0905,0.3666,0.1025,0.5514,0.1007
			c0.0074,0.1173,0.0684,0.2189,0.1293,0.2928c-0.1099,0.0573-0.2439,0.1044-0.3584,0.1266
			c-0.0508,0.0092-0.0961,0.0139-0.1367,0.0139c-0.0028,0-0.0065,0.0018-0.0083,0.0046c-0.0017,0.0028-0.0017,0.0065-0.0009,0.0092
			c0.0212,0.0656,0.0009,0.1497-0.0212,0.2088l0,0l0,0c-0.0442,0.1219-0.1256,0.2328-0.1792,0.2697
			c-0.0028,0.0018-0.0046,0.0055-0.0046,0.0092c0.0046,0.0582,0.1284,0.1155,0.2782,0.1801
			c0.0185,0.0083,0.035,0.0148,0.0498,0.0212c0.0018,0.0009,0.0046,0.0018,0.0065,0.0009c0.1164-0.0323,0.1672,0.0619,0.2125,0.1441
			c0.0055,0.0092,0.0102,0.0176,0.0148,0.0268c-0.0018,0.0046-0.0046,0.0102-0.0074,0.0157
			c-0.0157,0.0037-0.0416,0.0083-0.0721,0.0092c-0.0323,0.0009-0.1109-0.0018-0.1533-0.0443
			C15.4821,14.9057,15.2973,14.8096,15.1375,14.816z M16.1047,14.2341c-0.0009,0.0018-0.0009,0.0037-0.0009,0.0065
			c0,0.0009,0.0009,0.0018,0.0009,0.0037c-0.1311-0.0471-0.267-0.0517-0.4055-0.012c-0.0037,0.0009-0.0065,0.0046-0.0074,0.0092
			c0,0.0046,0.0018,0.0083,0.0065,0.0102c0.0268,0.012,0.0527,0.0185,0.0767,0.0249c0.0564,0.0139,0.0868,0.0212,0.0804,0.0868
			c0,0.0028,0.0009,0.0055,0.0028,0.0074c0.0018,0.0028,0.0037,0.0037,0.0065,0.0037c0.1016,0.0074,0.1607,0.024,0.1801,0.0499
			c0.0065,0.0092,0.0083,0.0203,0.0046,0.0333c0,0.0028,0,0.0055,0.0018,0.0083c0.0009,0.0018,0.0037,0.0037,0.0065,0.0046
			c0.1035,0.0185,0.1423,0.048,0.1349,0.1007c-0.0009,0.0028,0,0.0055,0.0018,0.0083c0.0018,0.0018,0.0055,0.0028,0.0083,0.0028
			c0.0785,0,0.1266,0.0185,0.1478,0.0591c-0.0591-0.0176-0.1423-0.0351-0.2356-0.0351c-0.0046-0.0212-0.0231-0.0508-0.061-0.0961
			c-0.0388-0.0462-0.1192-0.0887-0.2799-0.0259c-0.0028,0.0009-0.0055,0.0018-0.0065,0.0018
			c-0.0074,0.0028-0.0933,0.012-0.1542,0.0185l0.0341-0.1201c0.0249-0.0887-0.0212-0.1968-0.0554-0.2596
			c0.1155-0.024,0.2467-0.0711,0.3557-0.1284c0.0397,0.0462,0.0776,0.0804,0.0999,0.0998c0.0092,0.0074,0.0156,0.0139,0.0185,0.0166
			c0.0017,0.0028,0.0054,0.0065,0.0082,0.0102C16.0973,14.1472,16.1315,14.1842,16.1047,14.2341z M15.2456,14.6267
			c0.0591-0.0443,0.1303-0.1478,0.1728-0.2522c0.0185,0.0582,0.012,0.121,0.0083,0.1607l-0.0009,0.0018
			c-0.0028,0.0074-0.0083,0.0139-0.0139,0.0203c-0.0148,0.0176-0.0314,0.0379-0.0314,0.0804c0,0.0102,0.0037,0.0185,0.0112,0.0249
			c0.0092,0.0074,0.023,0.0102,0.0396,0.0102c0.0259,0,0.0591-0.0065,0.0933-0.0129c0.0323-0.0065,0.0619-0.012,0.0822-0.012
			c0.0314,0,0.0915-0.012,0.1506-0.0231c0.0582-0.0111,0.1376-0.0268,0.1487-0.0212c0.0074,0.0074,0.0249,0.0157,0.0453,0.0231
			c-0.0591,0.0157-0.1146,0.0406-0.1635,0.0739c-0.1247-0.0388-0.243-0.0296-0.2853,0.0028
			c-0.0112,0.0083-0.0334,0.0268-0.0602,0.0508C15.3547,14.7154,15.2566,14.6655,15.2456,14.6267z M15.9209,14.5888
			c-0.0129-0.012-0.0564-0.0055-0.1672,0.0157c-0.0582,0.0111-0.1173,0.0231-0.1469,0.0231c-0.0222,0-0.0536,0.0055-0.0858,0.012
			c-0.0454,0.0092-0.1008,0.0203-0.1165,0.0074c-0.0018-0.0018-0.0036-0.0037-0.0036-0.0092c0-0.0351,0.0128-0.0508,0.0267-0.0665
			c0.0065-0.0083,0.0129-0.0166,0.0176-0.0268c0.0009-0.0009,0.0009-0.0018,0.0009-0.0028V14.538
			c0.0046-0.0434,0.0129-0.1238-0.0174-0.1912c0.0211-0.0573,0.0405-0.1376,0.0239-0.2051c0.036-0.0009,0.0758-0.0055,0.1192-0.0129
			c0.0324,0.06,0.0804,0.1654,0.0564,0.2503l-0.0388,0.1349c-0.0009,0.0037,0,0.0074,0.0018,0.0092
			c0.0028,0.0028,0.0055,0.0046,0.0092,0.0037c0.0268-0.0028,0.1626-0.0176,0.1728-0.0203c0.0009,0,0.0037-0.0018,0.0083-0.0028
			c0.1184-0.0471,0.2069-0.0397,0.2569,0.0194c0.0544,0.0665,0.059,0.0878,0.0562,0.0942
			c-0.0028,0.0055-0.0185,0.0083-0.0296,0.0092C16.0262,14.6322,15.9356,14.6036,15.9209,14.5888z M15.7897,14.9602
			c-0.0193-0.036-0.0425-0.0767-0.073-0.109c0.0092-0.0046,0.0185-0.0102,0.0268-0.0148c0.0046,0.0074,0.0084,0.0166,0.0129,0.0259
			c0.0129,0.0268,0.0277,0.0573,0.0509,0.0831c-0.0029,0.0092-0.0066,0.0185-0.0112,0.0277
			C15.7943,14.9685,15.7915,14.9639,15.7897,14.9602z M15.4673,14.9371c-0.0637,0.0203-0.1218,0.0314-0.168,0.0314
			c0.0054-0.024,0.0239-0.0545,0.0516-0.0896C15.3943,14.8955,15.434,14.9158,15.4673,14.9371z M16.8373,15.1865l-0.1497,0.1413
			h-2.0675l-0.109-0.1275l0.4656,0.0323c0.0055,0,0.0102-0.0037,0.0111-0.0092c0-0.0055-0.0027-0.0102-0.0083-0.0111l-0.4582-0.1044
			l0.5238,0.0055c0.0028,0.0009,0.0055-0.0009,0.0083-0.0037l0.1035-0.1109l0.1229-0.0333
			c-0.0009,0.0037-0.0018,0.0083-0.0028,0.012c0,0.0028,0.0009,0.0055,0.0028,0.0074c0.0018,0.0028,0.0046,0.0037,0.0074,0.0037
			c0.0029,0,0.0055,0,0.0092,0c0.0527,0,0.1192-0.0129,0.1931-0.0379c0.0194,0.0139,0.036,0.0277,0.049,0.0406
			c0.0425,0.0425,0.1136,0.0499,0.1589,0.0499c0.0111,0,0.0203,0,0.0269-0.0009c0.0137-0.0009,0.0285-0.0028,0.0424-0.0055
			c-0.0065,0.0148-0.0139,0.0277-0.0194,0.0397c-0.0074,0.0129-0.0137,0.0249-0.0185,0.0342
			c-0.0009,0.0018-0.0009,0.0046-0.0009,0.0065c0.0057,0.0277,0.0831,0.036,0.1737,0.036c0.1293,0,0.2846-0.0176,0.2873-0.0176
			c0.0343-0.0055,0.0637-0.0379,0.0674-0.0739c0-0.0009-0.0009-0.0018-0.0009-0.0018c0.048,0.0074,0.0988,0.012,0.1506,0.012
			c0.0759,0,0.1524-0.0102,0.218-0.0305C16.6987,15.0895,16.804,15.1634,16.8373,15.1865z M17.1781,14.2498l-0.0221,0.0166
			c-0.0029,0.0018-0.0047,0.0055-0.0047,0.0083c0.0009,0.0037,0.0018,0.0065,0.0047,0.0083l0.0498,0.0342l-0.0221,0.0092
			c-0.0038,0.0018-0.0066,0.0055-0.0066,0.0102c0,0.0037,0.0028,0.0074,0.0066,0.0092l0.0277,0.0111l-0.1082-0.0102
			c0.0055-0.0148,0.0102-0.0305,0.0111-0.0462c0.0009-0.0176-0.0009-0.0397-0.0083-0.0656L17.1781,14.2498z M16.6793,14.1186
			c0.0296,0.0102,0.0804,0.0268,0.1303,0.0351c0.0018,0.0018,0.0037,0.0028,0.0047,0.0046c0.01,0.0092,0.0211,0.0194,0.0267,0.0259
			c-0.0111,0.0055-0.0416,0.0129-0.0821,0.0176C16.7375,14.186,16.7034,14.1583,16.6793,14.1186z M16.6203,14.5509
			c-0.002-0.0074-0.0084-0.0176-0.0204-0.036c-0.024-0.0379-0.0665-0.1025-0.0499-0.1515c0.0083-0.0231,0.0296-0.0416,0.0628-0.0536
			c0.0379-0.0111,0.0748,0.0203,0.1146,0.0536c0.0351,0.0286,0.0711,0.0591,0.1099,0.0591s0.0656-0.0139,0.073-0.037
			c0.0074-0.024-0.0074-0.0527-0.0388-0.0748c-0.0231-0.0157-0.0527-0.0259-0.0822-0.037c-0.0388-0.0139-0.0758-0.0268-0.0868-0.048
			c0.0185,0,0.037-0.0018,0.0536-0.0028l0,0l0,0c0.0527-0.0055,0.0942-0.0166,0.1045-0.0277
			c0.0036-0.0037,0.0045-0.0074,0.0045-0.0102c0-0.0074-0.0045-0.012-0.037-0.0416c-0.0286-0.0268-0.0831-0.0776-0.0831-0.0961
			c0-0.0249,0.0074-0.0693,0.0527-0.0896c0.0075-0.0037,0.0111-0.0028,0.0139-0.0018c0.0121,0.0055,0.0222,0.0286,0.0314,0.049
			c0.0084,0.0194,0.0166,0.0379,0.0286,0.048c0.0148,0.012,0.037,0.0157,0.061,0.0194c0.0249,0.0046,0.0499,0.0083,0.0637,0.0231
			c0.085,0.0924,0.0998,0.1617,0.0979,0.2032c-0.0018,0.0397-0.0203,0.0739-0.0545,0.1035
			c-0.0767,0.0674-0.1718,0.1016-0.255,0.0924c-0.0462-0.0046-0.0822-0.0222-0.1025-0.0499
			c-0.0028-0.0037-0.0083-0.0055-0.012-0.0037c-0.0046,0.0018-0.0074,0.0065-0.0065,0.0111
			c0.0055,0.0443,0.0323,0.0813,0.061,0.1201c0.0388,0.0517,0.0785,0.1062,0.0712,0.1838c0,0.0046,0.0017,0.0083,0.0054,0.0102
			c0.0038,0.0018,0.0083,0.0009,0.0111-0.0018c0.0416-0.0351,0.073-0.0619,0.0988-0.0831c0.0647-0.0527,0.0887-0.0721,0.1044-0.1146
			c0.0139-0.0397,0.0637-0.0878,0.0915-0.0896c0.0055,0,0.0092,0.0018,0.0121,0.0065c0.0092,0.0185,0.0137,0.0351,0.0165,0.049
			c0.0046,0.0166,0.0083,0.0305,0.0204,0.0333c0.0008,0,0.0027,0.0028,0.0036,0.0083c0.0009,0.0074-0.0009,0.0176-0.0083,0.0249
			l-0.0074,0.0074c-0.1413,0.145-0.2504,0.2411-0.3095,0.2725c-0.0212-0.0194-0.0406-0.0397-0.0508-0.0517
			c-0.0037-0.0046-0.0102-0.0055-0.0139-0.0018c-0.0046,0.0037-0.0055,0.0102-0.0017,0.0148
			c0.0036,0.0046,0.096,0.1173,0.1643,0.1109c0.0591-0.0046,0.0915-0.0628,0.1007-0.0822c0.0148,0,0.0573,0.0009,0.0619,0.0323
			c0.0037,0.024-0.0185,0.0674-0.0508,0.1007c-0.0259,0.0268-0.0527,0.0416-0.0729,0.0388
			c-0.0602-0.0074-0.2458-0.0813-0.2708-0.1182c-0.0037-0.0046-0.0102-0.0055-0.0148-0.0028
			c-0.0046,0.0028-0.0055,0.0092-0.0028,0.0139c0.0074,0.0102,0.0222,0.0212,0.0406,0.0333
			c-0.1062,0.0841-0.3085,0.097-0.4693,0.0702c-0.0055-0.0231-0.0231-0.0416-0.0517-0.0517
			c-0.0416-0.0157-0.0804-0.0083-0.1109,0.0046c-0.012-0.0055-0.0222-0.012-0.0314-0.0185
			c-0.0018-0.0018-0.0055-0.0028-0.0083-0.0018c-0.0222,0.0055-0.0434,0.0092-0.0628,0.0111
			c0.0306-0.0453,0.0591-0.0998,0.0637-0.133c0.0009-0.0055-0.0037-0.0102-0.0092-0.0111
			c-0.0054-0.0009-0.0102,0.0028-0.0111,0.0083c-0.0065,0.049-0.0794,0.1617-0.1118,0.1875
			c-0.0037,0.0028-0.0046,0.0074-0.0037,0.012c0.0018,0.0037,0.0055,0.0065,0.0103,0.0065
			c0.0886-0.0037,0.1163-0.0092,0.1172-0.0092c0.0018,0,0.0037-0.0009,0.0046-0.0028c0.0009,0,0.0711-0.0628,0.1461-0.0351
			c0.0285,0.0111,0.0424,0.0305,0.0405,0.0545c-0.0028,0.0268-0.0259,0.0517-0.0498,0.0554c-0.086,0.0139-0.4121,0.0305-0.4371,0
			c0.0046-0.0083,0.0102-0.0185,0.0157-0.0296c0.0092-0.0166,0.0185-0.036,0.0286-0.0554c0.0092-0.0037,0.0176-0.0074,0.0212-0.0129
			c0.0028-0.0028,0.0028-0.0074,0-0.0111c-0.0018-0.0028-0.0037-0.0065-0.0055-0.0102c0.0314-0.0702,0.0537-0.145,0.0157-0.1792
			c-0.0037-0.0037-0.0102-0.0037-0.0148,0c-0.0037,0.0046-0.0027,0.0111,0.0009,0.0148c0.0194,0.0176,0.0166,0.0527,0.0046,0.0933
			c-0.0174-0.0222-0.0296-0.0471-0.0406-0.0693c-0.0065-0.0139-0.012-0.0259-0.0185-0.037
			c-0.0028-0.0046-0.0092-0.0065-0.0137-0.0037c-0.014,0.0083-0.0277,0.0157-0.0417,0.0231
			c-0.036-0.0305-0.0822-0.048-0.1441-0.0314c-0.0139-0.0065-0.0296-0.0129-0.0462-0.0203
			c-0.0148-0.0065-0.0314-0.0139-0.048-0.0212c0.0231-0.0203,0.0425-0.036,0.0517-0.0434c0.0388-0.0296,0.157-0.036,0.2716,0.0018
			c0.0029,0.0009,0.0065,0,0.0092-0.0018c0.0573-0.0397,0.1238-0.0674,0.1949-0.0822c0.0286,0.0074,0.0582,0.012,0.0776,0.0092
			c0.0167-0.0018,0.037-0.0046,0.0445-0.0203c0.0997-0.0009,0.1883,0.0203,0.2465,0.0388c0.0018,0.0074,0.0029,0.0148,0.0037,0.0231
			c0,0.0028,0.0018,0.0055,0.0046,0.0074c0.1054,0.0776,0.1256,0.0859,0.1293,0.0868c0.0009,0,0.0009,0,0.0018,0
			c0.0046,0,0.0092-0.0028,0.0102-0.0074c0.0018-0.0055-0.0009-0.0111-0.0065-0.012c-0.0009,0-0.0185-0.0074-0.1192-0.0813
			c-0.0111-0.1109-0.1192-0.1192-0.1689-0.1201c0.0027-0.0702-0.0685-0.0952-0.1424-0.1099
			c0.0009-0.0148-0.0018-0.0277-0.0111-0.0397c-0.0221-0.0314-0.0794-0.049-0.1838-0.0573c0.0037-0.073-0.0434-0.085-0.0969-0.0988
			c-0.014-0.0037-0.0287-0.0074-0.0445-0.012c0.1284-0.0314,0.254-0.0231,0.376,0.0231c0.0176,0.0434,0.0619,0.0582,0.1229,0.061
			c0.0841,0.0517,0.1534,0.1146,0.2051,0.1709l0,0c0.0397,0.0425,0.0703,0.0822,0.0905,0.1109
			c0.0222,0.0323,0.0333,0.0527,0.0342,0.0554c0.001,0.0046,0.0055,0.0074,0.0103,0.0074c0.0008,0,0.0017,0,0.0027,0
			c0.0055-0.0018,0.0083-0.0074,0.0066-0.0129c-0.002-0.0055-0.013-0.0259-0.0297-0.0508
			C16.6026,14.5897,16.6248,14.5703,16.6203,14.5509z M15.9736,15.0027c0.0239-0.0009,0.0498-0.0055,0.0784-0.012
			c0.0055,0.0028,0.0111,0.0065,0.0166,0.0102c-0.0148,0.0083-0.0259,0.0176-0.0304,0.0212
			c-0.0075,0.0009-0.0324,0.0046-0.086,0.0065C15.9597,15.0211,15.9661,15.0128,15.9736,15.0027z M16.6423,14.0003
			c-0.0674,0.1266-0.1681,0.3326-0.1995,0.4721c-0.0462-0.048-0.1035-0.0988-0.1709-0.1432
			c0.0305-0.0009,0.0647-0.0028,0.1007-0.0055c0.0176-0.0009,0.036-0.0018,0.0554-0.0028c0.0046-0.0009,0.0092-0.0046,0.0092-0.0102
			c0.0028-0.0406-0.0166-0.0674-0.061-0.0979C16.4798,14.1047,16.5703,14.0317,16.6423,14.0003z M16.2415,14.1565
			c0.0008,0.0009,0.0027,0.0018,0.0036,0.0028l0.0065,0.0037c0.1155,0.0637,0.1626,0.0896,0.1655,0.1376
			c-0.0158,0.0009-0.0306,0.0018-0.0454,0.0028c-0.1533,0.0102-0.2346,0.012-0.2467-0.0628
			c0.0296-0.0619-0.0128-0.1072-0.0351-0.1321c-0.0037-0.0028-0.0065-0.0065-0.0092-0.0092
			c-0.0028-0.0037-0.0092-0.0092-0.0194-0.0185c-0.0573-0.0508-0.2309-0.2042-0.2365-0.4028c0-0.0055-0.0046-0.0102-0.0102-0.0102
			l0,0c-0.1423,0.0018-0.5755,0.0074-0.6504-0.2217c-0.0221-0.0665-0.0498-0.1275-0.0739-0.1811
			c-0.0573-0.1238-0.1016-0.2217-0.049-0.3215c0.0018-0.0037,0.0009-0.0092-0.0028-0.012c-0.0028-0.0028-0.0083-0.0037-0.012-0.0009
			c-0.036,0.0212-0.0599,0.036-0.0784,0.048c-0.0343,0.0222-0.0509,0.0323-0.1008,0.0564
			c-0.0628,0.0305-0.1644,0.1764-0.1912,0.2753c-0.0092,0.036-0.0083,0.0628,0.0037,0.0804
			c0.0009,0.0018,0.0028,0.0028,0.0046,0.0037c0.0517,0.0185,0.0878,0.0462,0.0878,0.0545c0,0-0.0018,0.0028-0.0111,0.0046
			c-0.0203,0.0028-0.0406,0.0009-0.0582-0.0018c-0.0304-0.0037-0.061-0.0074-0.0721,0.0249
			c-0.0055,0.0148-0.0065,0.0351-0.0074,0.0545c0,0.0157-0.0018,0.0453-0.0064,0.048c-0.001,0-0.0047,0.0009-0.0149-0.0083
			l-0.0028-0.0028c-0.0517-0.0443-0.1579-0.1367-0.0693-0.2679c0.0508-0.1303,0.1136-0.2725,0.1986-0.3427
			c0-0.0009,0.0009-0.0018,0.0018-0.0028c0.1118-0.1672,0.2245-0.3206,0.3723-0.3464c0.0111-0.0037,0.0223-0.0065,0.0323-0.0102
			c0.061,0.0998,0.1109,0.1654,0.1515,0.1995c0.0037,0.0148,0.0083,0.0333,0.0129,0.0536c0.0342,0.1478,0.0915,0.3926,0.3196,0.4259
			c0.0018,0.0203,0.0047,0.0388,0.0074,0.0545c0,0.0009,0,0.0018,0,0.0028c0.0074,0.0416,0.0176,0.0721,0.0314,0.0822
			c0.0018,0.0009,0.0029,0.0018,0.0046,0.0018c0.0111,0.0018,0.0231,0.0037,0.0352,0.0055
			c0.1172,0.0185,0.2641,0.0406,0.3084,0.2559c0.0176,0.085,0.049,0.1598,0.0841,0.2254c0,0.0009,0,0.0009,0,0.0018l0,0
			c0.0509,0.0952,0.1081,0.1681,0.1433,0.2134C16.2257,14.1352,16.2359,14.1472,16.2415,14.1565z M16.4973,13.6474
			c0.0018,0.0028,0.0046,0.0046,0.0083,0.0046c0.0176,0,0.0554,0.0018,0.0988,0.0037c0.0554,0.0028,0.1182,0.0065,0.1561,0.0065
			c0.0333,0,0.1053,0.0711,0.1681,0.1349c0.0554,0.0545,0.1127,0.1118,0.1589,0.1395c0.0924,0.0554,0.145,0.1349,0.1478,0.2245
			c-0.0793,0.0342-0.107-0.0157-0.1524-0.0979l-0.0074-0.0129c-0.0009-0.0028-0.0037-0.0046-0.0065-0.0046
			c-0.0508-0.0139-0.1053-0.0619-0.1635-0.1118c-0.0684-0.0582-0.1386-0.1192-0.218-0.1441c-0.0027,0-0.0055,0-0.0083,0.0009
			c-0.0915,0.048-0.3113,0.0647-0.4721,0.0767c-0.0434,0.0028-0.0831,0.0065-0.1164,0.0092c-0.0018,0-0.0046,0.0018-0.0055,0.0028
			c-0.0018,0.0018-0.0028,0.0028-0.0037,0.0037c-0.0314-0.061-0.0591-0.1303-0.0748-0.2069
			c-0.048-0.2291-0.2087-0.254-0.3252-0.2716c-0.012-0.0018-0.0221-0.0037-0.0323-0.0055
			c-0.0092-0.0083-0.0166-0.0305-0.0222-0.0619c0.0286-0.024,0.0554-0.048,0.0786-0.0711c0.0027-0.0018,0.0036-0.0055,0.0036-0.0083
			c-0.0046-0.0305-0.0074-0.061-0.0111-0.0924c0.0841-0.0166,0.1755-0.061,0.2171-0.0813c0.1025-0.0499,0.1811-0.109,0.2365-0.1607
			c0.0915,0.17,0.2679,0.388,0.3067,0.4157c0.0397,0.0277,0.1063-0.0453,0.1764-0.1219c0.0351-0.0388,0.0685-0.0748,0.0896-0.0868
			c0.0499-0.0296,0.2263,0.0545,0.3686,0.1219c0.0194,0.0083,0.0379,0.0176,0.0564,0.0259
			c0.0009,0.0009,0.0028,0.0009,0.0046,0.0009c0.1036,0,0.159,0.1099,0.1764,0.1801c-0.0693,0.0499-0.0979,0.0222-0.1413-0.0203
			c-0.0129-0.0111-0.0249-0.0231-0.0397-0.0351c-0.0573-0.0443-0.2383-0.0619-0.3464-0.073
			c-0.0203-0.0018-0.0379-0.0037-0.0517-0.0055c-0.0046,0-0.0092,0.0028-0.011,0.0074c-0.0417,0.1358-0.1201,0.194-0.1766,0.2365
			c-0.0323,0.024-0.0582,0.0434-0.0684,0.0693C16.4945,13.641,16.4955,13.6447,16.4973,13.6474z"/>
	</g>
</g>
<path class="st9" d="M25,50C11.215,50,0,38.785,0,25S11.215,0,25,0s25,11.215,25,25S38.785,50,25,50z M25,0.495
	C11.4881,0.495,0.495,11.4881,0.495,25S11.4881,49.505,25,49.505S49.505,38.5119,49.505,25S38.5119,0.495,25,0.495z"/>
<circle class="st10" cx="25" cy="25" r="24.7525"/>
</svg>
