<?xml version="1.0" encoding="utf-8"?>
<!-- Generator: Adobe Illustrator 27.6.1, SVG Export Plug-In . SVG Version: 6.00 Build 0)  -->
<!DOCTYPE svg PUBLIC "-//W3C//DTD SVG 1.1//EN" "http://www.w3.org/Graphics/SVG/1.1/DTD/svg11.dtd" [
	<!ENTITY ns_extend "http://ns.adobe.com/Extensibility/1.0/">
	<!ENTITY ns_ai "http://ns.adobe.com/AdobeIllustrator/10.0/">
	<!ENTITY ns_graphs "http://ns.adobe.com/Graphs/1.0/">
	<!ENTITY ns_vars "http://ns.adobe.com/Variables/1.0/">
	<!ENTITY ns_imrep "http://ns.adobe.com/ImageReplacement/1.0/">
	<!ENTITY ns_sfw "http://ns.adobe.com/SaveForWeb/1.0/">
	<!ENTITY ns_custom "http://ns.adobe.com/GenericCustomNamespace/1.0/">
	<!ENTITY ns_adobe_xpath "http://ns.adobe.com/XPath/1.0/">
]>
<svg version="1.1" id="Layer_1" xmlns:x="&ns_extend;" xmlns:i="&ns_ai;" xmlns:graph="&ns_graphs;"
	 xmlns="http://www.w3.org/2000/svg" xmlns:xlink="http://www.w3.org/1999/xlink" x="0px" y="0px" viewBox="0 0 50 50"
	 style="enable-background:new 0 0 50 50;" xml:space="preserve">
<style type="text/css">
	.st0{fill:#FFFFFF;}
	.st1{fill:#D1D3D4;}
	.st2{fill:#00247D;}
	.st3{fill:#CB142A;}
</style>
<metadata>
	<sfw  xmlns="&ns_sfw;">
		<slices></slices>
		<sliceSourceBounds  bottomLeftOrigin="true" height="50" width="50" x="0" y="0"></sliceSourceBounds>
	</sfw>
</metadata>
<g id="Layer_2_00000123403691739621316350000017975105315266775208_">
	<g id="Layer_2_00000009549042599903514300000009786033506733176249_">
		<g>
			<circle class="st0" cx="24.9998" cy="25.0002" r="24.7525"/>
			<path class="st1" d="M25,50C11.215,50,0,38.785,0,25S11.215,0,25,0s25,11.215,25,25S38.785,50,25,50z M25,0.495
				C11.4881,0.495,0.495,11.4881,0.495,25S11.4881,49.505,25,49.505S49.505,38.5119,49.505,25S38.5119,0.495,25,0.495z"/>
		</g>
	</g>
</g>
<g id="XMLID_9440_">
	<path id="XMLID_9481_" class="st2" d="M44.4332,10.0965c-4.483-5.8326-11.5276-9.597-19.4341-9.597
		c-7.9037,0-14.9483,3.7643-19.4314,9.597c-0.4304,0.557-0.836,1.1353-1.2166,1.7302c-0.2679,0.4194-0.5247,0.8499-0.7657,1.285
		c-0.1645,0.2891-0.3188,0.581-0.4675,0.8785c-0.0757,0.146-0.1487,0.2947-0.2189,0.4434
		c-0.1035,0.2088-0.2004,0.4194-0.2919,0.6328c-0.1469,0.327-0.2872,0.6577-0.4165,0.9903
		c-0.3816,0.9653-0.7003,1.9602-0.9553,2.9819c-0.0831,0.3279-0.1589,0.6577-0.2291,0.9903
		c-0.1164,0.5672-0.2143,1.1436-0.2901,1.7247c-0.0785,0.5737-0.1349,1.1547-0.1699,1.7413c-0.0241,0.376-0.038,0.7575-0.0407,1.139
		C0.5,24.7547,0.5,24.8767,0.5,24.9986c0,5.6026,1.8899,10.7729,5.0677,14.9049c4.483,5.8326,11.5276,9.597,19.4314,9.597
		c7.9066,0,14.9511-3.7643,19.4341-9.597C47.61,35.7715,49.5,30.6012,49.5,24.9986S47.61,14.2285,44.4332,10.0965z"/>
	<g id="XMLID_9466_">
		<path id="XMLID_9480_" class="st2" d="M4.1645,20.0288l-3.4484,1.7247c0.0757-0.581,0.1737-1.1575,0.2901-1.7247H4.1645z"/>
		<path id="XMLID_9479_" class="st2" d="M9.9666,10.0965v4.5431l-5.6156-2.8129c0.3806-0.5949,0.7862-1.1732,1.2166-1.7302H9.9666z"
			/>
		<path id="XMLID_9478_" class="st2" d="M4.1645,15.0663H2.607c0.0915-0.2134,0.1884-0.424,0.2919-0.6328L4.1645,15.0663z"/>
		<polygon id="XMLID_9477_" class="st2" points="27.3528,15.0672 27.3528,11.7537 20.7322,15.0672 		"/>
		<polygon id="XMLID_9476_" class="st2" points="24.0078,10.0955 14.9282,10.0955 14.9282,14.6395 		"/>
		<polygon id="XMLID_9475_" class="st2" points="27.3528,23.3414 27.3528,20.0278 20.7322,20.0278 		"/>
		<polygon id="XMLID_9474_" class="st2" points="0.8888,24.9995 9.9686,24.9995 9.9686,20.4555 		"/>
		<polygon id="XMLID_9473_" class="st2" points="14.9282,24.9995 24.0078,24.9995 14.9282,20.4555 		"/>
		<path id="XMLID_9472_" class="st0" d="M27.3519,11.7537l-6.6197,3.3126h6.6197v4.9625h-6.6197l6.6197,3.3126v0.5589
			l-7.7365-3.8715H17.39l9.9314,4.9698h-3.3145l-9.0777-4.5431v4.5431H9.9666v-4.5431l-9.0769,4.5431H0.5
			c0-0.1219,0-0.2439,0.0055-0.3649l9.1988-4.605H7.4789l-6.9328,3.466c0.035-0.5866,0.0914-1.1676,0.1699-1.7413l3.4484-1.7247
			H1.0061c0.0702-0.3326,0.146-0.6623,0.2291-0.9903c0.255-1.0217,0.5737-2.0166,0.9553-2.9819
			c0.1293-0.3326,0.2697-0.6633,0.4165-0.9903h1.5575l-1.2656-0.6328c0.0702-0.1487,0.1432-0.2975,0.2189-0.4434l2.1496,1.0762
			h2.2254l-3.9075-1.9547c0.241-0.4351,0.4978-0.8656,0.7657-1.285l5.6156,2.8129v-4.5431h4.9625v4.5431l9.0777-4.5431h1.103
			l-9.9323,4.9698h2.2253l9.9351-4.9698h0.0139V11.7537z"/>
		<path id="XMLID_9471_" class="st3" d="M7.4929,15.0663H5.2675l-2.1496-1.0762c0.1487-0.2975,0.303-0.5894,0.4675-0.8785
			L7.4929,15.0663z"/>
		<polygon id="XMLID_9470_" class="st3" points="17.3891,20.0278 27.3232,24.9995 27.3528,24.9995 27.3528,23.9003 19.6153,20.0278 
					"/>
		<polygon id="XMLID_9469_" class="st3" points="15.1767,15.0672 17.4029,15.0672 27.3371,10.0955 25.1108,10.0955 		"/>
		<path id="XMLID_9468_" class="st3" d="M9.7043,20.0288l-9.1988,4.605c0.0028-0.3815,0.0166-0.763,0.0407-1.139l6.9328-3.466
			H9.7043z"/>
		<path id="XMLID_9467_" class="st3" d="M27.3519,16.0566v2.9819h-13.413v5.9601H10.957v-5.9601H1.2352
			c0.255-1.0217,0.5737-2.0166,0.9553-2.9819h8.7665v-5.9601h2.9818v5.9601H27.3519z"/>
	</g>
	<g id="XMLID_9441_">
		<g id="XMLID_9460_">
			<polygon id="XMLID_9465_" class="st3" points="38.7677,34.8524 37.4505,35.7688 37.9151,34.2325 36.6366,33.2626 
				38.2412,33.2303 38.7677,31.7144 39.2952,33.2303 40.8998,33.2626 39.6204,34.2325 40.085,35.7688 			"/>
			<path id="XMLID_9461_" class="st0" d="M41.3044,33.1323l-1.9094-0.0406l-0.6272-1.8032l-0.6272,1.8032l-1.9085,0.0406
				l1.5224,1.1519l-0.5543,1.8281l1.5676-1.09l1.5686,1.09l-0.5543-1.8281L41.3044,33.1323z M38.7677,34.6815l-1.0678,0.7436
				l0.3787-1.2462l-1.0384-0.7843l1.3007-0.0268l0.4268-1.2277l0.4277,1.2277l1.2979,0.0268l-1.0355,0.7843l0.3787,1.2462
				L38.7677,34.6815z"/>
		</g>
		<g id="XMLID_9454_">
			<polygon id="XMLID_9459_" class="st3" points="38.7677,16.8399 37.5798,17.6667 37.9992,16.282 36.8463,15.4072 38.2929,15.3776 
				38.7677,14.0114 39.2435,15.3776 40.6901,15.4072 39.5363,16.282 39.9557,17.6667 			"/>
			<path id="XMLID_9455_" class="st0" d="M41.0938,15.2751L39.3442,15.24l-0.5765-1.6554L38.1922,15.24l-1.7524,0.0351
				l1.3977,1.0596l-0.5081,1.6766l1.4383-1.0004l1.4392,1.0004l-0.509-1.6766L41.0938,15.2751z M38.7677,16.67l-0.9376,0.6522
				l0.3326-1.0928l-0.9118-0.6901l1.1408-0.024l0.376-1.079l0.376,1.079l1.1418,0.024l-0.9118,0.6901l0.3326,1.0928L38.7677,16.67z"
				/>
		</g>
		<g id="XMLID_9448_">
			<polygon id="XMLID_9453_" class="st3" points="31.8284,23.8153 30.6248,24.6531 31.0488,23.2499 29.8802,22.364 31.3471,22.3336 
				31.8284,20.9488 32.3097,22.3336 33.7757,22.364 32.6071,23.2499 33.0321,24.6531 			"/>
			<path id="XMLID_9449_" class="st0" d="M34.1794,22.2319l-1.769-0.0351l-0.581-1.6739l-0.5838,1.6739l-1.769,0.0351l1.4115,1.0716
				l-0.5135,1.6951l1.4548-1.0115l1.4522,1.0115l-0.5136-1.6951L34.1794,22.2319z M31.8293,23.6462l-0.9542,0.6623l0.3353-1.1113
				l-0.9247-0.703l1.1593-0.0212l0.3843-1.0984l0.3815,1.0984l1.1602,0.0212l-0.9256,0.703l0.3353,1.1113L31.8293,23.6462z"/>
		</g>
		<g id="XMLID_9442_">
			<polygon id="XMLID_9447_" class="st3" points="44.6521,21.9363 43.6028,22.6661 43.9731,21.4421 42.9542,20.6699 44.2327,20.644 
				44.6521,19.4366 45.0716,20.644 46.35,20.6699 45.3311,21.4421 45.7015,22.6661 			"/>
			<path id="XMLID_9443_" class="st0" d="M46.7528,20.5396l-1.5816-0.0323l-0.5192-1.4956l-0.5192,1.4956l-1.5843,0.0323
				l1.2628,0.9542l-0.46,1.5168l1.3007-0.9053l1.3007,0.9053l-0.46-1.5168L46.7528,20.5396z M44.6521,21.7645l-0.7999,0.557
				l0.2835-0.933l-0.776-0.5866l0.9736-0.0194l0.3187-0.9191l0.3187,0.9191l0.9736,0.0194l-0.776,0.5866l0.2808,0.933
				L44.6521,21.7645z"/>
		</g>
	</g>
</g>
</svg>
