<?xml version="1.0" encoding="utf-8"?>
<!-- Generator: Adobe Illustrator 27.6.1, SVG Export Plug-In . SVG Version: 6.00 Build 0)  -->
<svg version="1.1" id="Layer_1" xmlns="http://www.w3.org/2000/svg" xmlns:xlink="http://www.w3.org/1999/xlink" x="0px" y="0px"
	 viewBox="0 0 50 50" style="enable-background:new 0 0 50 50;" xml:space="preserve">
<style type="text/css">
	.st0{fill:#FFFFFF;}
	.st1{fill:#D1D3D4;}
	.st2{fill:#EE2E2E;}
	.st3{fill:#212F63;}
</style>
<g>
	<circle class="st0" cx="25" cy="25" r="24.8"/>
	<path class="st1" d="M25,50C11.2,50,0,38.8,0,25S11.2,0,25,0s25,11.2,25,25S38.8,50,25,50z M25,0.5C11.5,0.5,0.5,11.5,0.5,25
		s11,24.5,24.5,24.5s24.5-11,24.5-24.5S38.5,0.5,25,0.5z"/>
</g>
<g id="XMLID_12633_">
	<path id="XMLID_12637_" class="st2" d="M49.5,25c0,0.9,0,1.8-0.1,2.7c-0.1,1-0.3,1.9-0.5,2.9C46.3,41.4,36.6,49.5,25,49.5h-1.2v0
		c-1,0-1.9-0.2-2.9-0.3c-1.9-0.3-3.7-0.8-5.4-1.6c-1-0.4-2-0.9-2.9-1.4c-5.7-3.4-10-9-11.5-15.6c-0.2-0.9-0.4-1.9-0.5-2.9
		c-0.1-0.9-0.1-1.8-0.1-2.7c0-0.9,0-1.8,0.1-2.7c0.1-1,0.3-1.9,0.5-2.9C2.7,12.8,6.9,7.2,12.7,3.8c0.9-0.5,1.9-1,2.9-1.4
		c1.7-0.7,3.5-1.2,5.4-1.6c0.9-0.2,1.9-0.3,2.9-0.3v0H25c11.6,0,21.3,8.1,23.9,18.9c0.2,0.9,0.4,1.9,0.5,2.9
		C49.5,23.2,49.5,24.1,49.5,25z"/>
	<g id="XMLID_12634_">
		<path id="XMLID_12636_" class="st0" d="M49.5,25c0,0.9,0,1.8-0.1,2.7c-0.1,1-0.3,1.9-0.5,2.9H23.8v18.9c-1,0-1.9-0.2-2.9-0.3
			c-1.9-0.3-3.7-0.8-5.4-1.6c-1-0.4-2-0.9-2.9-1.4V30.6H1.1c-0.2-0.9-0.4-1.9-0.5-2.9c-0.1-0.9-0.1-1.8-0.1-2.7c0-0.9,0-1.8,0.1-2.7
			c0.1-1,0.3-1.9,0.5-2.9h11.5V3.8c0.9-0.5,1.9-1,2.9-1.4c1.7-0.7,3.5-1.2,5.4-1.6c0.9-0.2,1.9-0.3,2.9-0.3v18.9h25.1
			c0.2,0.9,0.4,1.9,0.5,2.9C49.5,23.2,49.5,24.1,49.5,25z"/>
		<path id="XMLID_12635_" class="st3" d="M49.5,25c0,0.9,0,1.8-0.1,2.7H20.9v21.5c-1.9-0.3-3.7-0.8-5.4-1.6V27.7H0.6
			c-0.1-0.9-0.1-1.8-0.1-2.7c0-0.9,0-1.8,0.1-2.7h14.9V2.4c1.7-0.7,3.5-1.2,5.4-1.6v21.5h28.5C49.5,23.2,49.5,24.1,49.5,25z"/>
	</g>
</g>
</svg>
