<?xml version="1.0" encoding="utf-8"?>
<!-- Generator: Adobe Illustrator 27.6.1, SVG Export Plug-In . SVG Version: 6.00 Build 0)  -->
<svg version="1.1" xmlns="http://www.w3.org/2000/svg" xmlns:xlink="http://www.w3.org/1999/xlink" x="0px" y="0px"
	 viewBox="0 0 50 50" style="enable-background:new 0 0 50 50;" xml:space="preserve">
<style type="text/css">
	.st0{fill:#FFFFFF;}
	.st1{fill:#D1D3D4;}
	.st2{fill:#00793D;}
	.st3{fill:#CD1225;}
</style>
<g id="Layer_2">
	<g id="Layer_2_00000009549042599903514300000009786033506733176249_">
		<g>
			<circle class="st0" cx="24.9998" cy="25.0002" r="24.7525"/>
			<path class="st1" d="M25,50C11.215,50,0,38.785,0,25S11.215,0,25,0s25,11.215,25,25S38.785,50,25,50z M25,0.495
				C11.4881,0.495,0.495,11.4881,0.495,25S11.4881,49.505,25,49.505S49.505,38.5119,49.505,25S38.5119,0.495,25,0.495z"/>
		</g>
	</g>
</g>
<g id="Layer_1">
	<g id="XMLID_11155_">
		<g id="XMLID_11157_">
			<path id="XMLID_11160_" d="M48.0968,16.8335H1.9031c1.2443-3.5149,3.272-6.6659,5.8733-9.2367
				c4.4294-4.386,10.5161-7.0954,17.2254-7.0954C35.6472,0.5013,44.7278,7.3289,48.0968,16.8335z"/>
			<path id="XMLID_11159_" class="st0" d="M49.5,24.9995c0,2.8637-0.4914,5.6109-1.4004,8.1661H1.9003
				C0.9923,30.6105,0.5,27.8632,0.5,24.9995s0.4923-5.6109,1.4031-8.1661h46.1937C49.0086,19.3886,49.5,22.1359,49.5,24.9995z"/>
			<path id="XMLID_11158_" class="st2" d="M48.0996,33.1656c-3.369,9.5083-12.4523,16.3331-23.0978,16.3331
				c-6.7093,0-12.7987-2.7122-17.2282-7.0954c-2.6013-2.5718-4.6262-5.7218-5.8733-9.2376H48.0996z"/>
		</g>
		<path id="XMLID_11156_" class="st3" d="M30.9259,24.9995l-10.8616,8.1661L7.7736,42.4032
			c-2.6013-2.5718-4.6262-5.7218-5.8733-9.2376C0.9923,30.6105,0.5,27.8632,0.5,24.9995s0.4923-5.6109,1.4031-8.1661
			c1.2443-3.5149,3.272-6.6659,5.8733-9.2367l12.2879,9.2367L30.9259,24.9995z"/>
	</g>
</g>
</svg>
