<?xml version="1.0" encoding="utf-8"?>
<!-- Generator: Adobe Illustrator 27.6.1, SVG Export Plug-In . SVG Version: 6.00 Build 0)  -->
<!DOCTYPE svg PUBLIC "-//W3C//DTD SVG 1.1//EN" "http://www.w3.org/Graphics/SVG/1.1/DTD/svg11.dtd" [
	<!ENTITY ns_extend "http://ns.adobe.com/Extensibility/1.0/">
	<!ENTITY ns_ai "http://ns.adobe.com/AdobeIllustrator/10.0/">
	<!ENTITY ns_graphs "http://ns.adobe.com/Graphs/1.0/">
	<!ENTITY ns_vars "http://ns.adobe.com/Variables/1.0/">
	<!ENTITY ns_imrep "http://ns.adobe.com/ImageReplacement/1.0/">
	<!ENTITY ns_sfw "http://ns.adobe.com/SaveForWeb/1.0/">
	<!ENTITY ns_custom "http://ns.adobe.com/GenericCustomNamespace/1.0/">
	<!ENTITY ns_adobe_xpath "http://ns.adobe.com/XPath/1.0/">
]>
<svg version="1.1" id="Layer_1" xmlns:x="&ns_extend;" xmlns:i="&ns_ai;" xmlns:graph="&ns_graphs;"
	 xmlns="http://www.w3.org/2000/svg" xmlns:xlink="http://www.w3.org/1999/xlink" x="0px" y="0px" viewBox="0 0 50 50"
	 style="enable-background:new 0 0 50 50;" xml:space="preserve">
<style type="text/css">
	.st0{fill:#FFFFFF;}
	.st1{fill:#D1D3D4;}
	.st2{fill:#8C1B3C;}
</style>
<metadata>
	<sfw  xmlns="&ns_sfw;">
		<slices></slices>
		<sliceSourceBounds  bottomLeftOrigin="true" height="50" width="50" x="0" y="0"></sliceSourceBounds>
	</sfw>
</metadata>
<g id="Layer_2_00000123403691739621316350000017975105315266775208_">
	<g id="Layer_2_00000009549042599903514300000009786033506733176249_">
		<g>
			<circle class="st0" cx="24.9998" cy="25.0002" r="24.7525"/>
			<path class="st1" d="M25,50C11.215,50,0,38.785,0,25S11.215,0,25,0s25,11.215,25,25S38.785,50,25,50z M25,0.495
				C11.4881,0.495,0.495,11.4881,0.495,25S11.4881,49.505,25,49.505S49.505,38.5119,49.505,25S38.5119,0.495,25,0.495z"/>
		</g>
	</g>
</g>
<g id="XMLID_9355_">
	<path id="XMLID_9357_" class="st2" d="M49.5,25.0014c0,13.5093-10.9903,24.4995-24.4995,24.4995
		c-2.5975,0-5.1036-0.4054-7.4546-1.1589C7.6683,45.1822,0.5,35.9132,0.5,25.0014S7.6683,4.8206,17.5459,1.6579
		c2.351-0.7535,4.8571-1.1589,7.4546-1.1589C38.5097,0.4991,49.5,11.4921,49.5,25.0014z"/>
	<path id="XMLID_9356_" class="st0" d="M23.2599,8.6674l-9.9606,2.7212l9.9606,2.7222l-9.9606,2.7222l9.9606,2.7222l-9.9606,2.724
		l9.9606,2.7222l-9.9606,2.7222l9.9606,2.7212l-9.9606,2.7222l9.9606,2.7222l-9.9606,2.724l9.9606,2.7222l-9.9606,2.7222
		l9.9606,2.7222l-5.714,1.5624C7.6683,45.1822,0.5,35.9132,0.5,25.0014S7.6683,4.8206,17.5459,1.6579l5.714,1.5624l-9.9606,2.7249
		L23.2599,8.6674z"/>
</g>
</svg>
