<?xml version="1.0" encoding="utf-8"?>
<!-- Generator: Adobe Illustrator 27.6.1, SVG Export Plug-In . SVG Version: 6.00 Build 0)  -->
<svg version="1.1" xmlns="http://www.w3.org/2000/svg" xmlns:xlink="http://www.w3.org/1999/xlink" x="0px" y="0px"
	 viewBox="0 0 50 50" style="enable-background:new 0 0 50 50;" xml:space="preserve">
<style type="text/css">
	.st0{fill:#FFFFFF;}
	.st1{fill:#D1D3D4;}
	.st2{fill:#C50D2F;}
	.st3{fill:#FDCA16;}
	.st4{fill:#022663;}
</style>
<g id="Layer_2">
	<g id="Layer_2_00000009549042599903514300000009786033506733176249_">
		<g>
			<circle class="st0" cx="24.9998" cy="25.0002" r="24.7525"/>
			<path class="st1" d="M25,50C11.215,50,0,38.785,0,25S11.215,0,25,0s25,11.215,25,25S38.785,50,25,50z M25,0.495
				C11.4881,0.495,0.495,11.4881,0.495,25S11.4881,49.505,25,49.505S49.505,38.5119,49.505,25S38.5119,0.495,25,0.495z"/>
		</g>
	</g>
</g>
<g id="Layer_1">
	<g id="XMLID_11092_">
		<path id="XMLID_11095_" class="st2" d="M49.5,25c0-10.6468-6.8269-19.7277-16.3336-23.0986v46.1972
			C42.6731,44.7277,49.5,35.6468,49.5,25z"/>
		<path id="XMLID_11094_" class="st3" d="M25,49.5c2.8628,0,5.6111-0.4952,8.1664-1.4014V1.9014C30.6111,0.9952,27.8628,0.5,25,0.5
			s-5.6111,0.4952-8.1664,1.4014v46.1972C19.3889,49.0048,22.1372,49.5,25,49.5z"/>
		<path id="XMLID_11093_" class="st4" d="M16.8336,1.9014C7.3278,5.2723,0.5,14.3532,0.5,25s6.8278,19.7277,16.3336,23.0986V1.9014z
			"/>
	</g>
</g>
</svg>
