<?xml version="1.0" encoding="utf-8"?>
<!-- Generator: Adobe Illustrator 27.7.0, SVG Export Plug-In . SVG Version: 6.00 Build 0)  -->
<!DOCTYPE svg PUBLIC "-//W3C//DTD SVG 1.1//EN" "http://www.w3.org/Graphics/SVG/1.1/DTD/svg11.dtd" [
	<!ENTITY ns_extend "http://ns.adobe.com/Extensibility/1.0/">
	<!ENTITY ns_ai "http://ns.adobe.com/AdobeIllustrator/10.0/">
	<!ENTITY ns_graphs "http://ns.adobe.com/Graphs/1.0/">
	<!ENTITY ns_vars "http://ns.adobe.com/Variables/1.0/">
	<!ENTITY ns_imrep "http://ns.adobe.com/ImageReplacement/1.0/">
	<!ENTITY ns_sfw "http://ns.adobe.com/SaveForWeb/1.0/">
	<!ENTITY ns_custom "http://ns.adobe.com/GenericCustomNamespace/1.0/">
	<!ENTITY ns_adobe_xpath "http://ns.adobe.com/XPath/1.0/">
]>
<svg version="1.1" id="Layer_1" xmlns:x="&ns_extend;" xmlns:i="&ns_ai;" xmlns:graph="&ns_graphs;"
	 xmlns="http://www.w3.org/2000/svg" xmlns:xlink="http://www.w3.org/1999/xlink" x="0px" y="0px" width="50px" height="50px"
	 viewBox="0 0 50 50" style="enable-background:new 0 0 50 50;" xml:space="preserve">
<style type="text/css">
	.st0{fill:#FFFFFF;}
	.st1{fill:#D1D3D4;}
	.st2{fill:#006B35;}
</style>
<metadata>
	<sfw  xmlns="&ns_sfw;">
		<slices></slices>
		<sliceSourceBounds  bottomLeftOrigin="true" height="50" width="50" x="0" y="0"></sliceSourceBounds>
	</sfw>
</metadata>
<g id="Layer_2_00000142873634925117560710000001888913512934112658_">
	<g>
		<circle class="st0" cx="24.9998" cy="25.0002" r="24.7525"/>
		<path class="st1" d="M25,50C11.215,50,0,38.785,0,25S11.215,0,25,0s25,11.215,25,25S38.785,50,25,50z M25,0.495
			C11.4881,0.495,0.495,11.4881,0.495,25S11.4881,49.505,25,49.505S49.505,38.5119,49.505,25S38.5119,0.495,25,0.495z"/>
	</g>
</g>
<g id="XMLID_9964_">
	<path id="XMLID_10013_" class="st2" d="M49.5,25c0,13.51-10.9918,24.4991-24.4982,24.4991C11.4919,49.4991,0.5,38.51,0.5,25
		c0-13.5063,10.9919-24.4991,24.5018-24.4991C38.5082,0.5009,49.5,11.4937,49.5,25z"/>
	<g id="XMLID_9965_">
		<path id="XMLID_10009_" class="st0" d="M38.1922,35.408c-0.0647-0.0323-0.1358-0.0536-0.2032-0.0674
			c-0.2189-0.0462-0.4545-0.0139-0.6707-0.0166c-0.2457-0.0028-0.4896-0.0055-0.7353-0.0074
			c-0.4951-0.0055-0.9893-0.0139-1.4845-0.0194c-0.0268,0-0.5025-0.0185-0.5053-0.0055c0.0055-0.0268,0.0074-0.0564,0.0074-0.0841
			c0-0.1053,0.1192-0.0702,0.182-0.2106c0.0702-0.1515-0.0951-0.4055-0.2623-0.3972c-0.0249,0-0.049,0.0055-0.0684-0.0055
			c-0.0296-0.0166-0.0351-0.0545-0.0351-0.0868c-0.0046-0.2023-0.2623-0.2753-0.4111-0.1644
			c-0.1432,0.1081-0.1617,0.2836-0.1293,0.4489c0.0157,0.0859,0.0434,0.17,0.073,0.2513c0.0055,0.0157,0.0868,0.243,0.0674,0.2402
			l-22.2405-0.267c0.8628,1.5325,2.7584,1.3866,2.7584,1.3866s16.7644,0,19.3934,0c0.0157,0.2328,0.0397,0.4711,0.0887,0.7002
			c0.0296,0.133,0.0619,0.2679,0.1275,0.3898c0.0831,0.1654,0.2189,0.2272,0.3972,0.1949c0.1053-0.0222,0.17-0.1192,0.2032-0.2162
			h2.7279c0.0462,0,0.1025,0.0776,0.1303,0.1109c0.0434,0.048,0.0804,0.0915,0.1321,0.1266
			c0.1626,0.1081,0.3169,0.0785,0.4979,0.0785c0.2596,0,0.5598-0.23,0.5598-1.2628C38.7927,36.0676,38.6116,35.6242,38.1922,35.408z
			 M37.3913,36.8786c-0.1265,0.1275-0.8573,0.0813-0.8573,0.0813s-0.1293-0.2513-0.3353-0.2513
			c-0.2051,0-0.3593,0.1727-0.4055,0.2217c-0.048,0.049-1.1113,0.0111-1.1113,0.0111s-0.1755-0.2162-0.0185-0.4896h2.6604
			C37.3239,36.4519,37.5188,36.7521,37.3913,36.8786z"/>
		<g id="XMLID_9966_">
			<path id="XMLID_10008_" class="st0" d="M7.3414,21.9969c-0.1099-0.0342-0.4683,0.63-0.6171,1.3496
				c-0.1145,0.557-0.0425,0.8471-0.0139,0.9478c0.036,0.1266,0.2125,0.7427,0.6023,0.775c0.3279,0.0268,0.5958-0.375,0.6891-0.6457
				c0.1109-0.3215,0.0537-0.6873-0.0572-0.7178c-0.0851-0.024-0.1553,0.1635-0.3733,0.1866
				c-0.0323,0.0028-0.1423,0.0148-0.2152-0.0434c-0.1339-0.1072-0.0647-0.3908-0.0286-0.5746
				C7.4366,22.7165,7.4458,22.0301,7.3414,21.9969z"/>
			<path id="XMLID_10007_" class="st0" d="M10.1025,19.1119c0.0194-0.1395-0.3076-0.3307-0.6023-0.3824
				c-0.3113-0.0554-0.5653,0.048-0.7658,0.1339c-0.703,0.2975-1.0484,0.8526-1.4161,1.4448
				c-0.1007,0.1607-0.1136,0.2014-0.0961,0.23c0.1423,0.2254,1.8872-0.9644,2.7178-1.2923
				C9.9833,19.2293,10.0923,19.1868,10.1025,19.1119z"/>
			<path id="XMLID_10006_" class="st0" d="M8.074,13.3486c-0.1386-0.1561-0.3908-0.4406-0.3373-0.6531
				c0.0286-0.1145,0.1423-0.1977,0.2439-0.2226c0.2439-0.0591,0.4683,0.2097,0.5025,0.2513c0.363,0.4351,0.1053,1.09,0.0785,1.1556
				c-0.0665,0.1626-0.1866,0.3621-0.2577,0.3446c-0.0785-0.0194-0.0905-0.2984-0.0933-0.3732
				c-0.0073-0.1589,0.0166-0.2411-0.036-0.3593C8.1441,13.4243,8.1063,13.3846,8.074,13.3486z"/>
			<path id="XMLID_10005_" class="st0" d="M6.9451,14.4516c-0.0988,0.4683,0.0092,1.1676,0.0092,1.1676
				c0.133,0.7104-0.0065,0.6827,0.1432,1.2147c0.109,0.388,0.2226,0.7713,0.5358,0.8803c0.23,0.0804,0.448-0.0268,0.4693-0.0379
				c0.363-0.1857,0.4277-0.7076,0.4591-0.9663c0.0527-0.4277-0.0554-0.5552,0.0574-0.9191
				c0.0729-0.2337,0.2198-0.5062,0.2974-0.4877c0.121,0.0286-0.0129,0.7556,0.1238,1.914c0.0582,0.4924,0.1247,0.7141,0.3067,0.8323
				c0.2272,0.1478,0.5008,0.0453,0.7178,0.2679c0.0961,0.0988,0.133,0.2115,0.1626,0.3252c0.158,0.6152,0.085,1.2619,0.0951,1.9815
				c0.0139,0.8794,0.1376,0.9367,0.1727,0.9469c0.157,0.0499,0.3935-0.2522,0.5072-0.4397c0.0877-0.146,0.2392-0.4526,0.2198-1.369
				c-0.012-0.5653-0.0185-0.897-0.0951-1.3681c-0.0656-0.4-0.1533-0.7298,0.0286-0.8997c0.1127-0.1053,0.2827-0.1053,0.3252-0.1053
				c0.2503,0.0009,0.3224,0.17,0.5747,0.2587c0.3519,0.1238,0.7047-0.0333,0.8221-0.0859c0.0914-0.0406,0.3944-0.1811,0.5837-0.5071
				c0.1654-0.2845,0.2143-0.5616,0.1247-1.0337c-0.1053-0.5589-0.1663-0.7501-0.2725-1.0097
				c-0.0157-0.037-0.0554-0.2125-0.0148-0.2725c0.0268-0.0397,0.0979-0.0111,0.1533-0.0582
				c0.0342-0.0286,0.0591-0.0831,0.048-0.2097c-0.0342-0.4009-0.2587-0.6319-0.2587-0.6319
				c-0.1302-0.1349-0.4628-0.3954-0.7178-0.2781c-0.2393,0.1109-0.266,0.4868-0.2771,0.642
				c-0.0397,0.5469,0.2402,1.0485,0.3631,1.2628c0.1874,0.327,0.3713,0.5136,0.3158,0.775
				c-0.0065,0.0305-0.0397,0.1912-0.1626,0.2485c-0.1561,0.0739-0.3565-0.0665-0.5071-0.1718
				c-0.1449-0.1016-0.3455-0.242-0.4498-0.4877c-0.1368-0.3233,0.06-0.4397,0.0286-1.0245
				c-0.0305-0.581-0.2429-0.8074-0.2964-0.8609c-0.0583-0.0582-0.1858-0.1857-0.3446-0.1727
				c-0.4489,0.0379-0.4,0.6097-0.3686,0.9238c0.0185,0.1848,0.0499,0.3686,0.1007,0.5478c0.0222,0.0785,0.0471,0.1561,0.0768,0.2319
				c0.1016,0.266,0.2281,0.5219,0.1145,0.6707c-0.0065,0.0083-0.0573,0.073-0.1145,0.0665
				c-0.0971-0.0111-0.1497-0.2152-0.1913-0.4111c-0.1025-0.4877-0.1228-0.8766-0.1247-0.9099c0,0-0.0258-0.4914-0.1247-1.0143
				c-0.0868-0.4628-0.2291-1.2138-0.5358-1.2535c-0.1626-0.0212-0.3381,0.1635-0.4111,0.3252
				c-0.1229,0.2716,0.0222,0.5164,0.1432,0.9857c0.1099,0.4277,0.0203,0.3409,0.1441,1.0337
				c0.1598,0.9007,0.3473,1.2498,0.1339,1.5602c-0.0166,0.024-0.1256,0.1811-0.23,0.1626
				c-0.1589-0.0277-0.2014-0.4554-0.2199-0.6411c-0.0333-0.3233,0.0029-0.4637,0.0286-1.0716
				c0.0194-0.4739,0.0074-0.6226-0.0961-0.7658c-0.0148-0.0203-0.1903-0.2577-0.4111-0.2393
				c-0.2069,0.0176-0.3326,0.2485-0.4886,0.545c-0.146,0.279-0.3225,0.6152-0.3733,1.1104
				c-0.0462,0.4545,0.0453,0.7224-0.1339,0.8517c-0.084,0.061-0.2078,0.0776-0.3057,0.0388
				c-0.2125-0.085-0.2652-0.4166-0.3354-0.8997c-0.061-0.4249-0.0305-0.581-0.1524-0.8619c0,0-0.0711-0.3048-0.2208-0.363
				c-0.0148-0.0065-0.0573-0.0222-0.097-0.0046C7.0005,14.3897,6.9552,14.4017,6.9451,14.4516z"/>
			<path id="XMLID_10004_" class="st0" d="M11.1454,12.7435c-0.1109,0.1515-0.037,0.3612-0.0092,0.4397
				c0.0232,0.0647,0.1081,0.2753,0.3353,0.3926c0.2448,0.1256,0.4831,0.0545,0.6024,0.0194
				c0.1154-0.0351,0.3085-0.0924,0.4258-0.2781c0.0896-0.1404,0.0905-0.2817,0.0915-0.3732c0-0.0831,0.0018-0.3085-0.1008-0.3446
				c-0.0711-0.0249-0.1783,0.0443-0.23,0.1247c-0.0536,0.085-0.0323,0.1617-0.0813,0.182c-0.0425,0.0166-0.1044-0.024-0.1386-0.0628
				c-0.0813-0.0915-0.0259-0.194-0.0905-0.2439c-0.0582-0.0434-0.1774-0.0212-0.2346,0.0434
				c-0.0822,0.0905-0.0222,0.2439-0.0674,0.2587c-0.0305,0.0102-0.0794-0.0554-0.1145-0.1007
				c-0.0784-0.1044-0.0692-0.1533-0.1145-0.1774C11.3468,12.5856,11.2138,12.6512,11.1454,12.7435z"/>
			<path id="XMLID_10000_" class="st0" d="M18.2473,17.9646c-0.0434-0.1007-0.2411-0.1192-0.3843-0.0868
				c-0.0406,0.0083-0.1681,0.0379-0.2383,0.1432c-0.0702,0.1025-0.0212,0.1838-0.1053,0.3242
				c-0.024,0.0434-0.0784,0.1303-0.1349,0.1247c-0.0702-0.0055-0.06-0.1543-0.1626-0.2679
				c-0.1164-0.1293-0.3593-0.1838-0.5164-0.1053c-0.0868,0.0462-0.0757,0.0942-0.3159,0.4517
				c-0.1062,0.157-0.1413,0.1977-0.2005,0.23c-0.1164,0.0619-0.3058,0.0804-0.4028-0.0111
				c-0.1136-0.1081,0.0185-0.2623-0.0951-0.4674c-0.0785-0.1413-0.2402-0.255-0.3917-0.2494
				c-0.1403,0.0028-0.1755,0.1007-0.2485,0.0841c-0.1709-0.0351-0.1164-0.6032-0.2171-1.3903
				c-0.0859-0.6974-0.1321-1.0457-0.2105-1.3034c-0.0731-0.2429-0.1701-0.4859-0.0564-0.6078
				c0.1349-0.1404,0.4212,0.0406,0.5321-0.0841c0.1053-0.1219-0.1053-0.351-0.3104-0.9302
				c-0.157-0.4295-0.2189-0.8083-0.4711-1.0272c-0.1238-0.1109-0.2245-0.1192-0.2623-0.1192
				c-0.1321-0.0055-0.2291,0.0702-0.267,0.1053c-0.1035,0.0434-0.2383,0.1247-0.2975,0.2679
				c-0.0711,0.1755,0.0102,0.3593,0.048,0.4489c0.1487,0.3621,0.1192,0.7732,0.1894,1.1575
				c0.0757,0.4028,0.0222,0.2402,0.2411,1.5602c0.0591,0.3621,0.097,0.6328,0.1727,1.1759
				c0.1247,0.9062,0.1515,1.2462-0.0296,1.3598c-0.1275,0.0813-0.3112,0.0166-0.3547,0c-0.3132-0.1136-0.2864-0.4406-0.5543-0.5727
				c-0.2697-0.1358-0.6078,0.0379-0.7944,0.1321c-0.1626,0.0841-0.4951,0.2919-0.6707,0.7085
				c-0.0351,0.0896-0.3224,0.7658,0.0785,1.2166c0.2217,0.2522,0.6134,0.3787,0.9164,0.2956
				c0.2679-0.0739,0.4785-0.3141,0.557-0.2494c0.0296,0.0249,0.0213,0.0785,0.0185,0.1053
				c-0.0757,0.5275-0.2485,0.7843-0.2485,0.7843c-0.2567,0.3815-0.5893,0.5792-0.8434,0.7279
				c-0.533,0.3132-0.8517,0.4998-1.2443,0.4111c-0.3566-0.0785-0.7131-0.3787-0.8406-0.7464
				c-0.1376-0.3926,0.0434-0.7085-0.2105-1.1843c-0.0952-0.1764-0.1516-0.1921-0.1811-0.1921
				c-0.1764,0.0055-0.2956,0.581-0.3353,0.8702c-0.0517,0.3677-0.1109,0.7981,0.1053,1.2933
				c0.2319,0.5321,0.6355,0.8027,0.727,0.8591c0.5386,0.3464,1.0817,0.303,1.2628,0.2873c0.6272-0.0573,1.0411-0.3815,1.2739-0.5626
				c0.2356-0.1866,0.8027-0.6355,0.9838-1.3709c0.1386-0.5598-0.0129-1.0439,0.3252-1.309c0.0324-0.024,0.146-0.1136,0.2217-0.0785
				c0.1515,0.0757,0.0324,0.6032-0.0194,0.8332c-0.0915,0.4-0.2023,0.8979-0.5755,1.4651c-0.1921,0.2947-0.5007,0.7519-1.09,1.1011
				c-0.6707,0.3917-1.2979,0.4083-1.4438,0.4111c-0.3113,0.0018-1.1196,0.0074-1.5519-0.5275
				c-0.1977-0.2466-0.2734-0.5496-0.2947-0.6328c-0.0951-0.3926-0.0249-0.6901-0.2439-1.0706
				c-0.0969-0.1709-0.1487-0.1737-0.1644-0.1709c-0.1921,0.0111-0.279,0.8656-0.2873,0.9469
				c-0.0406,0.4268-0.0785,0.8083,0.0869,1.2757c0.0701,0.206,0.2512,0.7196,0.7463,1.0494
				c0.4295,0.2864,0.8656,0.2762,1.4789,0.2568c0.9136-0.024,1.5815-0.3159,1.8226-0.4295
				c0.6004-0.2845,0.9867-0.6355,1.1464-0.7898c0.2652-0.254,0.6928-0.6651,0.9191-1.333c0.1441-0.4194,0.1515-0.776,0.1598-1.0198
				c0.0166-0.6679-0.1219-1.5408,0.0194-1.6138c0.0425-0.0222,0.0859-0.0194,0.0859-0.0194
				c0.0601,0.0055,0.0951,0.0545,0.133,0.0868c0.0536,0.0462,0.1192,0.0564,0.2485,0.0757
				c0.1921,0.0323,0.3464-0.0028,0.4028-0.0194c0.1219-0.0296,0.2005-0.0776,0.3168-0.1432
				c0.2162-0.1238,0.2272-0.1811,0.351-0.2189c0.0896-0.0268,0.1487-0.0185,0.3843,0.0194
				c0.5487,0.0859,0.5598,0.0915,0.6134,0.0859c0.2411-0.0323,0.4463-0.2374,0.5441-0.4212
				c0.2272-0.4277-0.073-0.8628,0.1239-1.2443C18.2334,18.0967,18.2741,18.0238,18.2473,17.9646z M12.8987,19.5784
				c-0.0841,0.0998-0.3002,0.0896-0.4166-0.0296c-0.0785-0.0785-0.1413-0.2328-0.06-0.352c0.0813-0.1164,0.254-0.1238,0.3603-0.0647
				c0.1137,0.0647,0.1376,0.1977,0.1432,0.2383C12.9338,19.4186,12.9495,19.5138,12.8987,19.5784z"/>
			<path id="XMLID_9999_" class="st0" d="M16.2658,20.9687c0.1986,0.267,0.2836,0.2393,0.3446,0.3732
				c0.1238,0.2734-0.1543,0.5616-0.0286,0.679c0.0581,0.0554,0.1671,0.0379,0.229,0.0102c0.2291-0.1035,0.2226-0.5247,0.2208-0.6605
				c-0.0028-0.1302-0.012-0.4508-0.2393-0.7178c-0.0822-0.0961-0.2319-0.2716-0.412-0.2393
				c-0.1219,0.0222-0.2337,0.1349-0.2485,0.2587C16.1263,20.7147,16.13,20.7858,16.2658,20.9687z"/>
			<path id="XMLID_9998_" class="st0" d="M27.1949,23.6384c0.0129-0.1543,0.0314-0.3603-0.0674-0.4305
				c-0.0933-0.0665-0.2522,0.0148-0.3926,0.0859c-0.1209,0.0619-0.4859,0.2476-0.4499,0.4499
				c0.0194,0.1072,0.1506,0.2051,0.2679,0.2199c0.1053,0.0139,0.1543-0.0434,0.2014-0.0092
				c0.073,0.0527-0.0268,0.2023,0.0379,0.3824c0.0388,0.1081,0.1266,0.1995,0.2208,0.2393
				c0.1478,0.0628,0.2882-0.0157,0.4878-0.0951c0.6179-0.2476,0.9015-0.1441,0.9763-0.3446c0.0453-0.1229-0.0129-0.291-0.1155-0.364
				c-0.1496-0.1062-0.4111-0.0166-0.7935,0.1145c-0.2254,0.0776-0.3492,0.1404-0.4028,0.0868
				C27.121,23.9275,27.1764,23.8471,27.1949,23.6384z"/>
			<path id="XMLID_9997_" class="st0" d="M17.5046,16.0543c0.0148-0.0905,0.0416-0.1275,0.0287-0.2078
				c-0.0029-0.0231-0.0204-0.1358-0.086-0.1654c-0.0961-0.0425-0.2707,0.1081-0.3584,0.2513
				c-0.1062,0.1727-0.1598,0.4517-0.0148,0.6891c0.0259,0.0425,0.1451,0.2254,0.3806,0.2799
				c0.2042,0.0471,0.4037-0.0231,0.5312-0.1367c0.1126-0.1007,0.2022-0.266,0.1579-0.3224c-0.0277-0.036-0.0887-0.0028-0.266,0
				c-0.1727,0.0028-0.2706,0.0037-0.3298-0.0582C17.4658,16.2982,17.4935,16.1263,17.5046,16.0543z"/>
			<path id="XMLID_9996_" class="st0" d="M23.2901,17.7337c-0.0664-0.0425-0.1884-0.0924-0.2587-0.048
				c-0.1155,0.0739-0.0333,0.3658-0.0286,0.3834c0.0536,0.1866,0.2014,0.4009,0.4499,0.497
				c0.0545,0.0212,0.3252,0.1266,0.5737-0.0185c0.1617-0.0942,0.2263-0.242,0.2587-0.3159
				c0.0934-0.2125,0.1256-0.5395-0.0092-0.6125c-0.0924-0.0499-0.2614,0.0185-0.3353,0.1247
				c-0.0554,0.0785-0.0527,0.1718-0.0767,0.1718c-0.0333,0-0.0166-0.1829-0.1238-0.2485c-0.0425-0.0259-0.1062-0.0351-0.1533-0.0102
				c-0.097,0.0527-0.0665,0.218-0.1247,0.23C23.4185,17.8963,23.3964,17.803,23.2901,17.7337z"/>
			<path id="XMLID_9992_" class="st0" d="M18.3655,13.0973c0.0222-0.1949-0.1266-0.4222-0.3298-0.5247
				c-0.2697-0.1358-0.6051-0.0379-0.776,0.1811c-0.1617,0.2078-0.1644,0.5247-0.0434,0.7113c0.0952,0.1404,0.2734,0.2217,0.3252,0.4
				c0.024,0.0868,0.0046,0.1432,0,0.1598c-0.0249,0.0647-0.0757,0.1025-0.0951,0.1127c-0.243,0.1764-0.3889,0.4822-1.0031,0.8471
				c-0.449,0.2679-0.4896,0.3677-0.8683,0.5755c-0.0915,0.049-0.2569,0.2245-0.2079,0.3224
				c0.0868,0.1755,0.7085,0.1617,1.1196-0.0083c0.5109-0.2115,0.3944-0.4813,1.1408-1.0762c0.3031-0.2439,0.6818-0.4813,0.63-0.7113
				c-0.0185-0.0868-0.097-0.1626-0.0998-0.3298c0-0.0379,0.0028-0.0924,0.0517-0.2439
				C18.2981,13.2239,18.3555,13.2054,18.3655,13.0973z M17.9121,13.5186c-0.0758,0.0545-0.2246-0.0028-0.2975-0.097
				c-0.0711-0.0868-0.1007-0.2439-0.0249-0.3113c0.0757-0.0619,0.2134-0.0185,0.2891,0.0545
				C17.9794,13.2645,17.9952,13.4567,17.9121,13.5186z"/>
			<path id="XMLID_9991_" class="st0" d="M18.7923,13.4752c-0.1874,0.0351-0.1967,0.8656-0.1441,1.4355
				c0.0711,0.7584,0.1487,1.6868,0.7464,1.9334c0.2531,0.1044,0.6263,0.121,0.8425-0.0674
				c0.2568-0.2226,0.1081-0.5644,0.3824-1.2443c0.1053-0.2587,0.2763-0.5764,0.3547-0.5543
				c0.1127,0.0314-0.1755,0.7002,0.0859,1.3967c0.0212,0.0573,0.3252,0.8379,0.9191,0.9284
				c0.5239,0.0804,1.1076-0.4037,1.1861-0.4693c0.2439-0.2023,0.4138-0.4388,0.6411-0.4018
				c0.1081,0.0176,0.1681,0.0868,0.2494,0.1626c0.0721,0.0693,0.6476,0.6106,1.1196,0.5367
				c0.3529-0.0564,0.5978-0.448,0.6217-0.4887c0.1469-0.2411,0.1441-0.4637,0.2771-0.4877
				c0.0962-0.0176,0.2162,0.0757,0.2688,0.1718c0.0656,0.121,0.0092,0.2171,0.0757,0.2781c0.0785,0.0711,0.2393,0.0139,0.2781,0
				c0.3094-0.1118,0.4332-0.4665,0.4877-0.6226c0.0462-0.133,0.1256-0.3584,0.0389-0.4305
				c-0.0638-0.0527-0.1728,0.0139-0.4315,0.0767c-0.2263,0.0545-0.3409,0.085-0.4203,0.0674
				c-0.1524-0.0342-0.2457-0.169-0.3834-0.4212c-0.3593-0.6614-0.5662-1.0411-0.4111-1.3108
				c0.0166-0.0296,0.1275-0.2152,0.2679-0.2106c0.0711,0.0018,0.0979,0.0508,0.1238,0.0379
				c0.0859-0.0425,0.0231-0.6679-0.4018-1.0531c-0.1025-0.0933-0.3547-0.3215-0.6125-0.2577
				c-0.3446,0.085-0.4591,0.6383-0.4683,0.9284c-0.0102,0.315,0.1395,0.5672,0.3631,0.9857
				c0.1902,0.3547,0.254,0.3658,0.3158,0.5838c0.0776,0.2697,0.1312,0.776-0.1339,0.9376c-0.169,0.1035-0.4175,0.036-0.5737-0.0674
				c-0.2762-0.1829-0.3335-0.5275-0.4119-1.0522c-0.0509-0.339-0.0601-0.6355-0.0768-1.1196
				c-0.0111-0.3399-0.0092-0.5755-0.1053-0.8997c-0.0637-0.218-0.1543-0.5247-0.3252-0.5459
				c-0.1903-0.0222-0.3703,0.3233-0.4111,0.4028c-0.1395,0.267-0.1395,0.5247-0.1339,0.6309
				c0.0166,0.3344,0.1478,0.3981,0.2393,0.8037c0.0739,0.3298,0.0563,0.594,0.047,0.7085c-0.024,0.3298-0.0554,0.7575-0.3732,1.0245
				c-0.0499,0.0416-0.2947,0.2476-0.5931,0.1912c-0.3094-0.0591-0.4656-0.3612-0.5071-0.4406
				c-0.1395-0.2697-0.0776-0.4462-0.0573-1.1196c0.0305-0.9912-0.0878-1.1307-0.1727-1.1861
				c-0.1811-0.1201-0.448-0.0092-0.5164,0.0185c-0.7178,0.2975-0.897,1.527-0.9284,1.7422
				c-0.0148,0.0998-0.0259,0.1496-0.048,0.2485c-0.0785,0.3538-0.1349,0.6023-0.2577,0.6319
				c-0.1266,0.0305-0.2771-0.1783-0.3353-0.2587c-0.0988-0.1376-0.2207-0.3603-0.2873-0.8896
				c-0.0684-0.5422,0.0009-0.7667-0.1912-1.0623C18.9586,13.5943,18.8718,13.4604,18.7923,13.4752z"/>
			<path id="XMLID_9990_" class="st0" d="M19.9738,12.2142c-0.2522,0.0582-0.4082,0.4591-0.4305,0.5173
				c-0.0453,0.1155-0.1127,0.2956-0.0785,0.5238c0.0176,0.121,0.0416,0.2854,0.1644,0.3446
				c0.1423,0.0684,0.3215-0.0499,0.4018-0.1293c0.073-0.0721,0.1663-0.2106,0.1219-0.2873
				c-0.0424-0.073-0.1681-0.0166-0.2439-0.1007c-0.0841-0.0942-0.024-0.2771-0.0139-0.3085c0.0554-0.17,0.1626-0.1903,0.2153-0.3871
				c0.0286-0.1081,0.0073-0.1432-0.0075-0.158C20.0671,12.193,19.9978,12.2087,19.9738,12.2142z"/>
			<path id="XMLID_9989_" class="st0" d="M22.2703,12.3075c-0.049,0.0351-0.2115,0.1709-0.2577,0.5958
				c-0.0296,0.2716,0.001,0.2466-0.0222,0.6531c-0.012,0.23,0.0868,0.3436,0.1367,0.3658c0.0684,0.0314,0.2042-0.1339,0.23-0.1644
				c0.2485-0.3011,0.2494-0.6559,0.2513-1.1131c0-0.158-0.0092-0.2808-0.0868-0.3224
				C22.4541,12.2853,22.3285,12.2659,22.2703,12.3075z"/>
			<path id="XMLID_9985_" class="st0" d="M31.8155,20.6057c-0.4185-1.0808-0.9838-1.8226-1.1648-2.1247
				c-0.4056-0.6762-0.8111-1.3311-1.225-1.9741c-0.06-0.6956-0.1164-1.2951-0.1654-1.6526
				c0.0324-0.1349,0.1053-0.1644,0.1053-0.1644c0.0674-0.0277,0.1219,0.024,0.1626,0c0.0942-0.049,0.0111-0.3732,0.0111-0.3732
				c-0.1303-0.4924-0.3926-0.7335-0.9469-1.4928c-0.0757-0.0998-0.1838-0.2919-0.3085-0.2762
				c-0.1617,0.0194-0.2596,0.3843-0.2864,0.6226c-0.024,0.2263,0.0028,0.4351,0.049,0.6106
				c-0.1053-0.2106-0.3575-0.5164-0.4111-0.5838c-0.0573-0.0674-0.2918-0.3492-0.6817-0.6596
				c-0.4166-0.3353-0.5246-0.3169-0.5727-0.2975c-0.1109,0.0453-0.1432,0.1838-0.2005,0.4129
				c-0.049,0.1921-0.1192,0.4951,0.0194,0.8221c0.0508,0.1247,0.1155,0.2143,0.1617,0.2679
				c0.8897,1.0522,1.6203,2.0498,2.2226,2.9662c0.2171,2.3445,0.303,5.3218,0.2652,6.0977
				c-0.013,0.2817-0.0537,0.9709,0.1542,1.0328c0.1755,0.0517,0.4463-0.3834,0.5737-0.5949
				c0.3944-0.6402,0.2864-1.2055,0.2291-1.7219c0,0-0.1053-1.5445-0.2319-3.1861c0.2245,0.4009,0.424,0.7741,0.5977,1.1196
				c0.7298,1.4577,1.4974,2.848,1.6249,2.8914C32.016,22.4181,32.1,21.3308,31.8155,20.6057z M27.7602,14.0599
				c-0.0111-0.0139-0.0462-0.0628-0.0305-0.0924c0.0379-0.0647,0.2901,0.0674,0.352,0c0.0083-0.0083,0.0111-0.0212,0.0111-0.0351
				c0.0647,0.1866,0.1349,0.3141,0.146,0.3566c0.0425,0.1764,0.0859,0.3871,0.1266,0.6254
				C28.1658,14.6271,27.9653,14.3435,27.7602,14.0599z"/>
			<path id="XMLID_9984_" class="st0" d="M29.8497,13.0114c-0.0176,0.2042,0.1764,0.2577,0.3732,0.6457
				c0.0406,0.0794,0.1423,0.2845,0.1866,0.5598c0.0545,0.3381-0.0166,0.5376,0.0434,0.5598
				c0.0711,0.0259,0.2596-0.2171,0.3584-0.4877c0.0129-0.0342,0.2393-0.6827-0.1284-1.2489
				c-0.0859-0.1312-0.2707-0.4166-0.5025-0.388C30.0188,12.6724,29.8655,12.8405,29.8497,13.0114z"/>
			<path id="XMLID_9983_" class="st0" d="M30.1731,15.7605c-0.0905-0.0804-0.0536-0.1921-0.1081-0.2162
				c-0.0609-0.0268-0.1968,0.0813-0.2577,0.2162c-0.0831,0.1801-0.0333,0.4129,0.0933,0.5663
				c0.2144,0.2614,0.5847,0.2115,0.6605,0.2014c0.0674-0.0092,0.3714-0.0508,0.5376-0.3085
				c0.1081-0.1681,0.1626-0.4342,0.0434-0.5746c-0.0443-0.0517-0.1256-0.1016-0.1792-0.0785c-0.085,0.036-0.0443,0.23-0.1155,0.2513
				c-0.0527,0.0157-0.1293-0.0757-0.1644-0.1293c-0.0692-0.1053-0.048-0.1783-0.0933-0.194
				c-0.0573-0.0203-0.1617,0.0674-0.2088,0.1654c-0.035,0.073-0.024,0.1238-0.0647,0.1432
				C30.2738,15.8243,30.2109,15.7929,30.1731,15.7605z"/>
			<path id="XMLID_9982_" class="st0" d="M36.0085,16.6049c-0.1183-0.0508-0.0998-0.1737-0.1913-0.2393
				c-0.1109-0.0794-0.3233-0.0323-0.4406,0.0859c-0.1367,0.1376-0.1136,0.3418-0.1053,0.4111
				c0.0129,0.1136,0.0619,0.3002,0.6799,0.8517c0.4361,0.3908,0.5432,0.4148,0.6125,0.3834
				c0.0868-0.0397,0.1072-0.1626,0.1339-0.3159c0.0767-0.4508-0.1099-0.6734,0.0286-0.8323
				c0.0905-0.1044,0.2125-0.0582,0.3252-0.2106c0.0619-0.0841,0.0776-0.17,0.0859-0.2199c0.0314-0.1838,0.0083-0.545-0.2587-0.6707
				c-0.1588-0.0748-0.4018-0.0628-0.497,0.0674c-0.1413,0.1921,0.1127,0.5496-0.0286,0.6605
				c-0.061,0.0471-0.1903,0.0471-0.2106,0.0471C36.0971,16.6243,36.0537,16.6243,36.0085,16.6049z"/>
			<path id="XMLID_9981_" class="st0" d="M39.8171,24.1455c0.0102-0.1441,0.1312-0.1764,0.1339-0.2679
				c0.0037-0.1349-0.2559-0.3095-0.5071-0.2873c-0.1727,0.0157-0.3677,0.1266-0.364,0.23c0.0055,0.1284,0.315,0.1349,0.3834,0.3538
				c0.0322,0.1062-0.0084,0.206-0.0296,0.2587c-0.1072,0.267-0.3778,0.2817-0.3917,0.4499c-0.0083,0.1016,0.0813,0.218,0.182,0.2587
				c0.1718,0.0684,0.2744-0.1247,0.7464-0.3159c0.2383-0.097,0.3741-0.1136,0.4018-0.2208c0.0222-0.0878-0.037-0.206-0.1247-0.2577
				c-0.1432-0.0841-0.3048,0.0425-0.3926-0.048C39.8097,24.2508,39.8153,24.176,39.8171,24.1455z"/>
			<path id="XMLID_9980_" class="st0" d="M34.8122,20.4708c0,0-0.1238-1.054-0.4693-3.5602
				c-0.1025-0.7418-0.2522-1.478-0.3178-2.2235c0.0656-0.012,0.133-0.0074,0.1995-0.0092c0.0794-0.0018,0.2577,0.0166,0.3178-0.0453
				c0.085-0.0868-0.0776-0.2808-0.1201-0.3593c-0.0878-0.1617-0.1755-0.3242-0.2633-0.4868
				c-0.1386-0.2559-0.2781-0.5127-0.4166-0.7695c-0.0573-0.1062-0.1829-0.5053-0.3372-0.4988
				c-0.1829,0.0083-0.3066,0.7704-0.3446,1.2729c-0.0721,0.9598,0.1182,1.6997,0.1533,1.8374
				c0.3557,1.3995,0.7944,3.974,0.8997,6.3352c0.024,0.5506-0.0988,1.3459,0.0951,1.3977c0.1515,0.0397,0.4047-0.3889,0.5358-0.6891
				C35.0949,21.874,34.9175,21.1184,34.8122,20.4708z"/>
			<path id="XMLID_9979_" class="st0" d="M31.7592,12.6715c-0.3613,0.5616-0.364,1.1196-0.364,1.1196
				c-0.0028,0.5413,0.1432,0.6439,0.2208,1.4928c0.0176,0.1986,0.0222,0.3316,0.0286,0.4591
				c0.1239,2.7122,0.3529,3.8281,0.4212,4.9006c0.0296,0.472,0.1912,0.8,0.1145,1.6646c-0.0231,0.2568-0.2051,0.4453-0.4018,0.6891
				c-0.2374,0.2938-1.539,1.2341-2.1339,1.5602c-0.0757,0.0406-0.242,0.0499-0.278,0.1432
				c-0.0407,0.1072,0.1588,0.2938,0.3066,0.3824c0.461,0.279,1.09,0.0157,1.2628-0.0573c0.9248-0.388,1.3579-1.2646,1.5316-1.6267
				c0.2605-0.5469,0.3603-1.0549,0.4212-1.6267c0.2938-2.7759-0.4028-5.3975-0.4028-5.3975s-0.4323-1.6295-0.1524-1.7228
				c0.0388-0.0129,0.0988,0.0259,0.1718-0.012c0.1118-0.0563,0.1313-0.2245,0.1367-0.2725
				c0.0277-0.2439-0.0933-0.4453-0.1654-0.5737c-0.4065-0.7205-0.459-1.2203-0.6245-1.199
				C31.8054,12.6013,31.7758,12.6456,31.7592,12.6715z"/>
			<g id="XMLID_9972_">
				<path id="XMLID_9978_" class="st0" d="M37.6159,19.0445c0.1967-0.1958,0.2105-0.9182,0-0.8609
					c-0.0389,0.0111-1.5169,0.981-1.6749,1.139c-0.158,0.158-0.2679,0.2679-0.2679,0.4499c0,0.182-0.048,0.4018,0,0.4499
					C35.7212,20.2703,37.42,19.2413,37.6159,19.0445z"/>
				<path id="XMLID_9977_" class="st0" d="M37.0994,19.5997c-0.1007,0.1007-0.0268,0.6411,0.049,0.7944
					c0.0748,0.1533,0.1275,0.9857,0.1275,1.0716c0,0.0868,0.0915,0.4028,0.2254,0.2688c0.1339-0.1349,0.3825-0.6032,0.3825-0.8332
					c0-0.2291-0.2771-1.0808-0.3825-1.3016C37.4634,19.5202,37.2002,19.4999,37.0994,19.5997z"/>
				<path id="XMLID_9976_" class="st0" d="M41.0541,14.7629c0.0212,0.1413,0.048,0.3575,0.0573,0.6245
					c0.0139,0.3898-0.0212,0.5737,0.0286,0.5884c0.0711,0.0203,0.2771-0.3104,0.3446-0.6817
					c0.0711-0.3935-0.036-0.7021-0.1293-0.969c-0.0951-0.2753-0.1755-0.4942-0.3583-0.5386
					c-0.1183-0.0286-0.2606,0.0185-0.3308,0.1145c-0.1155,0.1598,0.0092,0.4028,0.0647,0.5099
					C40.8296,14.6012,40.9737,14.7102,41.0541,14.7629z"/>
				<path id="XMLID_9975_" class="st0" d="M42.3196,22.9908v0.0018C42.3196,22.9927,42.3214,22.9945,42.3196,22.9908z"/>
				<path id="XMLID_9974_" class="st0" d="M40.3769,23.0666c0.2448-0.3381,0.4046-0.4166,0.4906-0.7963
					c0.0304-0.1376,0.0544-0.7196,0.0544-1.4789c0.3695,0.5709,0.7058,1.1196,0.981,1.6129c0.363,0.4979,0.412,0.5764,0.4166,0.5866
					c0.0046-0.0139,0.3178-0.9561-0.0813-1.7542c-0.3316-0.6633-1.0919-1.7053-1.3487-2.0517
					c-0.0406-0.9977-0.1229-2.0083-0.2707-2.6466c-0.3621-1.5602-0.4037-1.7598-0.1626-1.7598c0.2411,0-0.3335-1.5621-0.5533-1.9538
					c-0.2199-0.3926-0.5025-0.2633-0.5838-0.182s-0.2762,0.1848-0.2106,0.5552c0.1524,0.8554,0.2965,1.7348,0.4212,2.641
					c0.0831,0.6032,0.1561,1.1981,0.2208,1.7866c-0.3048-0.4212-0.6448-0.8905-0.9727-1.3468
					c-0.0693-0.9385-0.1136-1.624-0.1136-1.66c0-0.0721,0.2577-0.1145,0.2577-0.2152s-0.3011-0.7898-0.4877-0.9764
					c-0.4739-0.473-0.3852-0.9127-0.5505-0.909c-0.1599,0.0046-0.3105,0.3187-0.3031,0.412c0.0397,0.4785,0.0831,1.163,0.133,1.8438
					c-0.2771-0.4018-0.4563-0.6762-0.4563-0.715c0-0.1718-0.0148-0.1718,0.0998-0.1718c0.1154,0,0.1745-0.06,0.2235-0.109
					c0.0499-0.049-1.587-1.8392-1.4716-1.26c0,0-0.3806,1.1621,0.097,1.7561c0.1737,0.2162,0.8295,1.0568,1.66,2.1708
					c0.0296,0.2328,0.061,0.4249,0.0942,0.557c0,0,0.4074,2.8286,0.2014,4.9661c-0.0185,0.1921-0.206,0.6494-0.4887,0.6891
					c-0.2097,0.0305-0.4138-0.1875-0.5598-0.3446c-0.3981-0.4268-0.4268-0.7196-0.6937-0.7991
					c-0.2152-0.0628-0.3778,0.0453-0.4831,0.1247c-0.1838,0.1395-0.3538,0.3169-0.6171,1.0475
					c-0.2503,0.6937-0.2807,1.0402-0.5173,1.2489c-0.096,0.085-0.2688,0.146-0.5164,0.1007
					c-0.461-0.0841-0.6134-0.9718-0.6743-1.2341c-0.1376-0.5884-0.0092-1.0171-0.0286-1.0198
					c-0.037-0.0037-0.5847,1.4401,0.0426,2.4979c0.3306,0.557,0.9865,1.006,1.3348,0.8471
					c0.3529-0.1598,0.5413-0.7131,0.7325-1.6794c0.0674-0.339,0.3658-0.5302,0.6171-0.5459
					c0.4693-0.0286,0.6235,0.7797,1.2341,0.933c0.5063,0.1275,1.0669-0.2596,1.3358-0.545c0.2679-0.2854,0.448-0.9118,0.1617-3.8706
					c-0.048-0.5025-0.0951-1.0374-0.1386-1.5602c0.3335,0.4628,0.6743,0.9432,1.0087,1.4263
					c0.1145,1.3625,0.1829,2.6798,0.2115,3.9426C40.1229,23.2273,40.1312,23.4056,40.3769,23.0666z"/>
				<path id="XMLID_9973_" class="st0" d="M42.7982,14.5042c0.1293-0.1293,0.6031,0.2005,0.5311-0.1293
					c-0.0721-0.3298-0.933-1.9187-1.3348-1.8568c-0.1442,0.0222-0.2874,0.4933-0.2874,0.6937c0,0.2014,0.1145,1.2923,0.2152,2.0822
					c0.1007,0.7889,0.8185,6.9328,0.6457,7.4926c-0.1718,0.5598-0.5884,0.9191-0.8609,1.1917
					c-0.2725,0.2725-1.5214,0.775-1.5214,1.1048c0,0.3307,0.6457,0.2947,1.2776,0.0757c0.6309-0.2189,1.5501-0.6928,1.6933-1.6831
					c0.1441-0.9903,0.2587-3.6572,0.0868-5.295C43.0706,16.542,42.6689,14.6335,42.7982,14.5042z"/>
			</g>
			<path id="XMLID_9967_" class="st0" d="M28.6304,20.5031c-0.0406-0.0998-0.3464-0.0647-0.4296-0.0564
				c-0.8545,0.0859-3.2858-0.0139-3.2886-0.0868c0-0.024,0.2272-0.0296,0.5894-0.1275c0.2734-0.0748,0.8305-0.2346,1.3063-0.6623
				c0.2891-0.2596,0.6595-0.5921,0.6872-1.1196c0.0241-0.4212-0.1764-0.9515-0.6605-1.2055
				c-0.3649-0.1894-0.8379-0.1921-1.1759,0.0296c-0.3704,0.2411-0.473,0.6817-0.5727,1.1057
				c-0.1219,0.5062-0.0028,0.5792-0.1302,0.7603c-0.3058,0.4351-0.9977,0.0351-1.8383,0.4295
				c-0.5118,0.2411-0.8221,0.6577-0.9847,0.9275c-0.024-0.2051-0.0591-0.4434-0.1053-0.7409
				c-0.2439-1.5704-0.5081-2.0166-0.776-2.3094c-0.1007-0.1109-0.363-0.3972-0.5598-0.3298
				c-0.2383,0.0813-0.2439,0.63-0.2439,0.7603c-0.0055,0.5626,0.2032,0.8379,0.4434,1.5224
				c0.2088,0.5838,0.3353,0.9358,0.3465,1.3921c0.0212,0.8656-0.3871,1.5224-0.5331,1.7367
				c-0.4646,0.6864-1.0596,1.079-1.4494,1.2628c-0.4323,0.2051-0.7676,0.2457-1.0328,0.0998
				c-0.1515-0.0841-0.2346-0.2457-0.2891-0.473c0.0406-0.0249,0.073-0.049,0.1025-0.0674c0.3732-0.2494,0.7464-0.5007,1.1492-0.9275
				c0.4896-0.5219,0.9681-1.0337,1.0522-1.8096c0.0517-0.4896-0.024-1.2656-0.2975-1.5685
				c-0.0111-0.0129-0.1376-0.1533-0.1053-0.2023c0.0379-0.0517,0.2162,0.0702,0.2891,0.0111
				c0.0924-0.0785-0.0434-0.4249-0.2217-0.679c-0.1487-0.2162-0.3464-0.4979-0.6891-0.5275
				c-0.1949-0.0166-0.4656,0.0462-0.6032,0.2485c-0.2245,0.3353,0.0702,0.8221,0.1293,0.9145
				c0.1626,0.2513,0.2679,0.2051,0.4462,0.473c0.2088,0.3141,0.2411,0.6439,0.2439,0.8027c0.0028,0.1441-0.0139,0.3871-0.157,0.7058
				c-0.2327,0.5118-0.6761,0.9469-1.4549,1.4873c-0.024-0.7159,0.0757-1.1242-0.0111-1.1492
				c-0.1081-0.0296-0.4212,0.5875-0.5921,1.2628c-0.0296,0.1136-0.0563,0.2245-0.0831,0.3353
				c-0.6549,0.4111-0.6522,0.3649-1.2683,0.7547c-0.46,0.2891-2.0387,1.2868-1.939,1.4845c0.1109,0.2189,2.1847-0.6328,2.2955-0.679
				c0.3141-0.1293,0.5866-0.254,0.8166-0.3677c0.0351,0.1737,0.0998,0.3409,0.206,0.5034c0.3427,0.5108,0.9727,0.7566,1.5114,0.7464
				c0.5135-0.0139,0.8489-0.2568,1.4087-0.6633c0.3409-0.2457,1.0383-0.7649,1.5307-1.7302
				c0.0268-0.0517,0.0508-0.1025,0.073-0.1543c0.0296,0.1681,0.0813,0.3353,0.1755,0.5081
				c0.1219,0.2217,0.2596,0.3464,0.5035,0.5598c0.5293,0.4683,1.0569,0.7113,1.3764,0.8332
				c0.3353,0.1275,0.9515,0.3538,1.2923,0.1432c0.1598-0.0998,0.23-0.243,0.23-0.243c0.0212-0.0434,0.097-0.2143,0.0426-0.3732
				c-0.0831-0.254-0.389-0.1894-0.6458-0.4896c-0.0268-0.0323-0.2595-0.3113-0.1866-0.5598
				c0.0564-0.1921,0.2781-0.2947,0.6328-0.4028c0.6947-0.2115,1.2757-0.254,2.1228-0.4c0.4517-0.0785,0.7242-0.1441,0.8323-0.3603
				c0.1007-0.1995-0.048-0.3058,0.073-0.5894c0.0249-0.0536,0.1432-0.3159,0.3603-0.6032
				C28.6036,20.6057,28.647,20.5493,28.6304,20.5031z M25.8074,18.3563c0.0517-0.0896,0.2272-0.1025,0.3436-0.049
				c0.1266,0.06,0.1644,0.1866,0.2217,0.3649c0.0268,0.0896,0.0212,0.1164,0.0083,0.133c-0.0462,0.0647-0.2088,0.0351-0.3169-0.0194
				C25.8887,18.6972,25.7372,18.4727,25.8074,18.3563z M23.6763,22.3553c-0.1293,0.2651,0.0277,0.5302-0.1266,0.6328
				c-0.0951,0.06-0.2272,0.0111-0.3326-0.0296c-0.3436-0.1321-0.7704-0.497-0.8166-1.0328
				c-0.0082-0.0785-0.0406-0.5432,0.1995-0.6762c0.1626-0.0887,0.279,0.0674,0.6606,0.1303
				c0.5616,0.0915,0.8322-0.1626,1.0789,0.0425c0.0758,0.0656,0.1783,0.1977,0.1561,0.3307
				C24.4476,22.0393,23.8684,21.9719,23.6763,22.3553z"/>
		</g>
	</g>
</g>
</svg>
