<?xml version="1.0" encoding="utf-8"?>
<!-- Generator: Adobe Illustrator 27.6.1, SVG Export Plug-In . SVG Version: 6.00 Build 0)  -->
<!DOCTYPE svg PUBLIC "-//W3C//DTD SVG 1.1//EN" "http://www.w3.org/Graphics/SVG/1.1/DTD/svg11.dtd" [
	<!ENTITY ns_extend "http://ns.adobe.com/Extensibility/1.0/">
	<!ENTITY ns_ai "http://ns.adobe.com/AdobeIllustrator/10.0/">
	<!ENTITY ns_graphs "http://ns.adobe.com/Graphs/1.0/">
	<!ENTITY ns_vars "http://ns.adobe.com/Variables/1.0/">
	<!ENTITY ns_imrep "http://ns.adobe.com/ImageReplacement/1.0/">
	<!ENTITY ns_sfw "http://ns.adobe.com/SaveForWeb/1.0/">
	<!ENTITY ns_custom "http://ns.adobe.com/GenericCustomNamespace/1.0/">
	<!ENTITY ns_adobe_xpath "http://ns.adobe.com/XPath/1.0/">
]>
<svg version="1.1" id="Layer_1" xmlns:x="&ns_extend;" xmlns:i="&ns_ai;" xmlns:graph="&ns_graphs;"
	 xmlns="http://www.w3.org/2000/svg" xmlns:xlink="http://www.w3.org/1999/xlink" x="0px" y="0px" viewBox="0 0 50 50"
	 style="enable-background:new 0 0 50 50;" xml:space="preserve">
<style type="text/css">
	.st0{fill:#FFFFFF;}
	.st1{fill:#D1D3D4;}
	.st2{fill:#DD2911;}
</style>
<metadata>
	<sfw  xmlns="&ns_sfw;">
		<slices></slices>
		<sliceSourceBounds  bottomLeftOrigin="true" height="50" width="50" x="0" y="0"></sliceSourceBounds>
	</sfw>
</metadata>
<g id="Layer_2_00000123403691739621316350000017975105315266775208_">
	<g id="Layer_2_00000009549042599903514300000009786033506733176249_">
		<g>
			<circle class="st0" cx="24.9998" cy="25.0002" r="24.7525"/>
			<path class="st1" d="M25,50C11.215,50,0,38.785,0,25S11.215,0,25,0s25,11.215,25,25S38.785,50,25,50z M25,0.495
				C11.4881,0.495,0.495,11.4881,0.495,25S11.4881,49.505,25,49.505S49.505,38.5119,49.505,25S38.5119,0.495,25,0.495z"/>
		</g>
	</g>
</g>
<g id="XMLID_10650_">
	<g id="XMLID_10658_">
		<path id="XMLID_10660_" class="st2" d="M49.5,24.9991h-49c0-13.5097,10.9899-24.4995,24.4987-24.4995S49.5,11.4894,49.5,24.9991z"
			/>
		<path id="XMLID_10659_" class="st0" d="M49.5,24.9991c0,13.5088-10.9925,24.5014-24.5013,24.5014S0.5,38.5079,0.5,24.9991H49.5z"
			/>
	</g>
	<g id="XMLID_10651_">
		<path id="XMLID_10657_" class="st0" d="M14.8296,12.7498c0-4.6648,3.6981-8.4746,8.3518-8.7156
			c-0.952-0.3324-1.976-0.5134-3.0416-0.5134c-5.0979,0-9.2299,4.132-9.2299,9.229c0,5.0979,4.132,9.2299,9.2299,9.2299
			c1.0656,0,2.0896-0.181,3.0416-0.5143C18.5277,21.2244,14.8296,17.4146,14.8296,12.7498z"/>
		<polygon id="XMLID_10656_" class="st0" points="20.0189,8.9594 20.5129,10.4801 22.1122,10.4801 20.8186,11.4201 21.3126,12.9409 
			20.0189,12.0009 18.7253,12.9409 19.2193,11.4201 17.9266,10.4801 19.5249,10.4801 		"/>
		<polygon id="XMLID_10655_" class="st0" points="29.8426,8.9594 30.3366,10.4801 31.9349,10.4801 30.6413,11.4201 31.1353,12.9409 
			29.8426,12.0009 28.5489,12.9409 29.043,11.4201 27.7493,10.4801 29.3477,10.4801 		"/>
		<polygon id="XMLID_10654_" class="st0" points="24.9303,5.2798 25.4243,6.8006 27.0235,6.8006 25.7299,7.7396 26.2239,9.2604 
			24.9303,8.3204 23.6376,9.2604 24.1316,7.7396 22.838,6.8006 24.4363,6.8006 		"/>
		<polygon id="XMLID_10653_" class="st0" points="28.0032,14.7627 28.4972,16.2835 30.0965,16.2835 28.8029,17.2235 
			29.2969,18.7442 28.0032,17.8042 26.7096,18.7442 27.2036,17.2235 25.91,16.2835 27.5092,16.2835 		"/>
		<polygon id="XMLID_10652_" class="st0" points="21.8583,14.7627 22.3523,16.2835 23.9506,16.2835 22.657,17.2235 23.152,18.7442 
			21.8583,17.8042 20.5646,18.7442 21.0586,17.2235 19.765,16.2835 21.3643,16.2835 		"/>
	</g>
</g>
</svg>
