<?xml version="1.0" encoding="utf-8"?>
<!-- Generator: Adobe Illustrator 27.6.1, SVG Export Plug-In . SVG Version: 6.00 Build 0)  -->
<!DOCTYPE svg PUBLIC "-//W3C//DTD SVG 1.1//EN" "http://www.w3.org/Graphics/SVG/1.1/DTD/svg11.dtd" [
	<!ENTITY ns_extend "http://ns.adobe.com/Extensibility/1.0/">
	<!ENTITY ns_ai "http://ns.adobe.com/AdobeIllustrator/10.0/">
	<!ENTITY ns_graphs "http://ns.adobe.com/Graphs/1.0/">
	<!ENTITY ns_vars "http://ns.adobe.com/Variables/1.0/">
	<!ENTITY ns_imrep "http://ns.adobe.com/ImageReplacement/1.0/">
	<!ENTITY ns_sfw "http://ns.adobe.com/SaveForWeb/1.0/">
	<!ENTITY ns_custom "http://ns.adobe.com/GenericCustomNamespace/1.0/">
	<!ENTITY ns_adobe_xpath "http://ns.adobe.com/XPath/1.0/">
]>
<svg version="1.1" id="Layer_1" xmlns:x="&ns_extend;" xmlns:i="&ns_ai;" xmlns:graph="&ns_graphs;"
	 xmlns="http://www.w3.org/2000/svg" xmlns:xlink="http://www.w3.org/1999/xlink" x="0px" y="0px" viewBox="0 0 50 50"
	 style="enable-background:new 0 0 50 50;" xml:space="preserve">
<style type="text/css">
	.st0{fill:#FFFFFF;}
	.st1{fill:#D1D3D4;}
	.st2{fill:#EC1C24;}
	.st3{fill:#055DA3;}
	.st4{fill:#FCDB19;}
</style>
<metadata>
	<sfw  xmlns="&ns_sfw;">
		<slices></slices>
		<sliceSourceBounds  bottomLeftOrigin="true" height="50" width="50" x="0" y="0"></sliceSourceBounds>
	</sfw>
</metadata>
<g id="Layer_2_00000123403691739621316350000017975105315266775208_">
	<g id="Layer_2_00000009549042599903514300000009786033506733176249_">
		<g>
			<circle class="st0" cx="24.9998" cy="25.0002" r="24.7525"/>
			<path class="st1" d="M25,50C11.215,50,0,38.785,0,25S11.215,0,25,0s25,11.215,25,25S38.785,50,25,50z M25,0.495
				C11.4881,0.495,0.495,11.4881,0.495,25S11.4881,49.505,25,49.505S49.505,38.5119,49.505,25S38.5119,0.495,25,0.495z"/>
		</g>
	</g>
</g>
<g id="XMLID_5938_">
	<g id="XMLID_5976_">
		<path id="XMLID_5979_" class="st0" d="M48.0967,16.8316H1.9033c3.3673-9.5051,12.4502-16.333,23.0972-16.333
			C35.6465,0.4986,44.7304,7.3265,48.0967,16.8316z"/>
		<path id="XMLID_5978_" class="st2" d="M48.0967,33.1684c-3.3691,9.5079-12.4502,16.333-23.0963,16.333
			c-10.647,0-19.727-6.8251-23.0972-16.333H48.0967z"/>
		<path id="XMLID_5977_" class="st3" d="M49.5,24.9991c0,2.8629-0.4942,5.6131-1.4033,8.1693H1.9033
			C0.9952,30.6122,0.5,27.862,0.5,24.9991c0-2.862,0.4924-5.6112,1.4033-8.1674h46.1935C49.0085,19.3878,49.5,22.1371,49.5,24.9991z
			"/>
	</g>
	<g id="XMLID_5939_">
		<g id="XMLID_5940_">
			<g id="XMLID_5941_">
				<g id="XMLID_5942_">
					<path id="XMLID_5975_" class="st0" d="M17.513,20.5796c0.7862,0,0.7862-0.4028,1.5715-0.4028
						c0.787,0,0.787,0.4028,1.5741,0.4028c0.5755,0,0.7307-0.2162,1.0809-0.3326c-0.0887,0.1866-0.1912,0.3778-0.3076,0.5728
						c-0.1912,0.0988-0.3871,0.1958-0.7732,0.1958c-0.7871,0-0.7871-0.4028-1.5741-0.4028c-0.7852,0-0.7852,0.4028-1.5715,0.4028
						c-0.7862,0-0.7862-0.4028-1.5723-0.4028c-0.7871,0-0.7871,0.4028-1.5723,0.4028c-0.3815,0-0.5773-0.0952-0.7677-0.1931
						c-0.1173-0.1959-0.2199-0.3889-0.3104-0.5755c0.3492,0.1164,0.5035,0.3326,1.0781,0.3326c0.7852,0,0.7852-0.4028,1.5723-0.4028
						C16.7268,20.1768,16.7268,20.5796,17.513,20.5796z"/>
					<path id="XMLID_5963_" class="st0" d="M17.513,21.4516c0.7862,0,0.7862-0.4028,1.5715-0.4028
						c0.787,0,0.787,0.4028,1.5741,0.4028c0.1506,0,0.2716-0.0148,0.3752-0.0379c-0.7206,0.9737-1.8283,1.94-3.5189,2.5433
						c-1.6906-0.6033-2.7973-1.5696-3.5188-2.5433c0.1044,0.024,0.2236,0.0379,0.3723,0.0379c0.7852,0,0.7852-0.4028,1.5723-0.4028
						C16.7268,21.0488,16.7268,21.4516,17.513,21.4516z"/>
					<path id="XMLID_5962_" class="st0" d="M19.0844,19.7398c-0.7852,0-0.7852,0.4028-1.5715,0.4028
						c-0.7862,0-0.7862-0.4028-1.5723-0.4028c-0.7871,0-0.7871,0.4028-1.5723,0.4028c-0.6799,0-0.7723-0.3012-1.2906-0.3825
						c-0.1931-0.4822-0.3002-0.9026-0.3621-1.1982l2.4306-3.2093l0.9571,1.3127l1.4097-2.8056l1.4107,2.8056l0.9571-1.3127
						l2.4315,3.213c-0.0582,0.2938-0.1663,0.7132-0.3584,1.1945h-0.0009c-0.5219,0.0813-0.6143,0.3825-1.2943,0.3825
						C19.8714,20.1426,19.8714,19.7398,19.0844,19.7398z"/>
					<path id="XMLID_5947_" class="st3" d="M20.6272,8.8305c-2.0546-0.3982-4.1693-0.3982-6.2247,0
						c-1.4495,0.2781-2.3797,0.6596-2.8471,0.8869l0.0295,0.4139l0.5026,6.7004l0.1007,1.3257
						c0.0185,0.1894,0.4702,4.6459,5.3267,6.2866c4.8565-1.6407,5.3082-6.0972,5.3249-6.2819l0.0998-1.3303l0.5063-6.7004
						l0.0296-0.4037l0.0055-0.0074C23.0124,9.4901,22.0821,9.1113,20.6272,8.8305z M18.8155,9.5714l0.3298,0.0351l0.0628-0.1404
						l0.073-0.1626l0.0785,0.1783l0.0536,0.1247l0.3298-0.0351l-0.1949,0.267l0.1949,0.2679l-0.3298-0.0351l-0.1321,0.303
						l-0.1358-0.303l-0.3298,0.0351l0.1977-0.2679L18.8155,9.5714z M17.0501,11.9345l0.3298,0.0351l0.1349-0.303l0.133,0.303
						l0.3326-0.0351l-0.1977,0.2679l0.1977,0.2679l-0.3326-0.0351l-0.133,0.3021l-0.1349-0.3021l-0.3298,0.0351l0.1968-0.2679
						L17.0501,11.9345z M15.2866,9.5714l0.327,0.0351l0.0573-0.1247l0.0786-0.1783l0.0729,0.1626l0.0591,0.1404l0.3326-0.0351
						l-0.1977,0.267l0.1977,0.2679l-0.3326-0.0351l-0.132,0.303l-0.1359-0.303l-0.327,0.0351l0.195-0.2679L15.2866,9.5714z
						 M17.5148,23.9579c-1.6897-0.6032-2.7992-1.5714-3.5179-2.5451c0.1025,0.024,0.2217,0.0379,0.3704,0.0379
						c0.7871,0,0.7871-0.4,1.5742-0.4c0.7834,0,0.7834,0.4,1.5705,0.4c0.7872,0,0.7872-0.4,1.5714-0.4
						c0.7871,0,0.7871,0.4,1.577,0.4c0.1487,0,0.2698-0.0139,0.3723-0.0379C20.314,22.3865,19.2054,23.3547,17.5148,23.9579z
						 M21.4309,20.8207c-0.1895,0.097-0.3872,0.1949-0.7705,0.1949c-0.7899,0-0.7899-0.4028-1.577-0.4028
						c-0.7842,0-0.7842,0.4028-1.5714,0.4028c-0.7871,0-0.7871-0.4028-1.5705-0.4028c-0.7871,0-0.7871,0.4028-1.5742,0.4028
						c-0.3815,0-0.5764-0.0952-0.7658-0.1922c-0.1182-0.1977-0.2217-0.3898-0.3104-0.5765
						c0.3483,0.1164,0.5026,0.3326,1.0762,0.3326c0.7871,0,0.7871-0.4028,1.5742-0.4028c0.7834,0,0.7834,0.4028,1.5705,0.4028
						c0.7872,0,0.7872-0.4028,1.5714-0.4028c0.7871,0,0.7871,0.4028,1.577,0.4028c0.5728,0,0.7298-0.2162,1.079-0.3326
						C21.6498,20.4336,21.55,20.6257,21.4309,20.8207z M22.3122,18.5656c-0.0564,0.2947-0.1672,0.7132-0.3566,1.1945h-0.0028
						c-0.5219,0.0813-0.6143,0.3815-1.2924,0.3815c-0.7899,0-0.7899-0.4028-1.577-0.4028c-0.7842,0-0.7842,0.4028-1.5714,0.4028
						c-0.7871,0-0.7871-0.4028-1.5705-0.4028c-0.7871,0-0.7871,0.4028-1.5742,0.4028c-0.679,0-0.7704-0.3002-1.2896-0.3815
						c-0.1921-0.4841-0.3002-0.9026-0.3631-1.1973l1.3118-1.7312l1.1197-1.479l0.9571,1.3118l1.4088-2.8047l1.4116,2.8047
						l0.9571-1.3118l1.1197,1.479L22.3122,18.5656z"/>
					<polygon id="XMLID_5946_" class="st4" points="19.1453,10.0712 18.8165,10.1063 19.0123,9.8384 18.8165,9.5705 19.1453,9.6056 
						19.2072,9.467 19.2082,9.467 19.2802,9.3026 19.3587,9.4818 19.3606,9.4818 19.4142,9.6056 19.7449,9.5705 19.5481,9.8384 
						19.7449,10.1063 19.4142,10.0712 19.2802,10.3742 					"/>
					<polygon id="XMLID_5945_" class="st4" points="17.6478,11.9705 17.9786,11.9354 17.7827,12.2033 17.9786,12.4712 
						17.6478,12.4343 17.5148,12.7391 17.3799,12.4343 17.051,12.4712 17.2469,12.2033 17.051,11.9354 17.3799,11.9705 
						17.5148,11.6666 					"/>
					<polygon id="XMLID_5944_" class="st4" points="15.8824,10.0712 15.7495,10.3742 15.6145,10.0712 15.2856,10.1063 
						15.4816,9.8384 15.2856,9.5705 15.6145,9.6056 15.6699,9.4818 15.7495,9.3026 15.8214,9.467 15.8824,9.6056 16.2131,9.5705 
						16.0174,9.8384 16.2131,10.1063 					"/>
					<path id="XMLID_5943_" class="st2" d="M23.2221,18.1887c0,0-0.4239,4.9479-5.7073,6.6579
						c-5.2824-1.71-5.7082-6.6579-5.7082-6.6579l-0.6207-8.2718c0,0,0.1201-0.0794,0.3676-0.1995l0.0323,0.412l0.6014,8.027
						c0.0185,0.1903,0.4721,4.6459,5.3276,6.2875c4.8556-1.6416,5.3092-6.0972,5.3258-6.2829l0.6033-8.0316l0.0323-0.4028
						l0.0046-0.0074c0.2448,0.1192,0.3631,0.1977,0.3631,0.1977L23.2221,18.1887z"/>
				</g>
			</g>
		</g>
	</g>
</g>
</svg>
