<?xml version="1.0" encoding="utf-8"?>
<!-- Generator: Adobe Illustrator 27.7.0, SVG Export Plug-In . SVG Version: 6.00 Build 0)  -->
<!DOCTYPE svg PUBLIC "-//W3C//DTD SVG 1.1//EN" "http://www.w3.org/Graphics/SVG/1.1/DTD/svg11.dtd" [
	<!ENTITY ns_extend "http://ns.adobe.com/Extensibility/1.0/">
	<!ENTITY ns_ai "http://ns.adobe.com/AdobeIllustrator/10.0/">
	<!ENTITY ns_graphs "http://ns.adobe.com/Graphs/1.0/">
	<!ENTITY ns_vars "http://ns.adobe.com/Variables/1.0/">
	<!ENTITY ns_imrep "http://ns.adobe.com/ImageReplacement/1.0/">
	<!ENTITY ns_sfw "http://ns.adobe.com/SaveForWeb/1.0/">
	<!ENTITY ns_custom "http://ns.adobe.com/GenericCustomNamespace/1.0/">
	<!ENTITY ns_adobe_xpath "http://ns.adobe.com/XPath/1.0/">
]>
<svg version="1.1" id="Layer_1" xmlns:x="&ns_extend;" xmlns:i="&ns_ai;" xmlns:graph="&ns_graphs;"
	 xmlns="http://www.w3.org/2000/svg" xmlns:xlink="http://www.w3.org/1999/xlink" x="0px" y="0px" width="50px" height="50px"
	 viewBox="0 0 50 50" style="enable-background:new 0 0 50 50;" xml:space="preserve">
<style type="text/css">
	
		.st0{clip-path:url(#SVGID_00000119806495746401523960000005636504222047528375_);fill:#FFFFFF;filter:url(#Adobe_OpacityMaskFilter);}
	
		.st1{clip-path:url(#SVGID_00000119806495746401523960000005636504222047528375_);mask:url(#a_00000028300412947236229830000012445972227374416543_);}
	.st2{fill:#EEEEEE;}
	.st3{fill:#D80027;}
	.st4{fill:#333333;}
	.st5{fill:#6DA544;}
	.st6{fill:#D1D3D4;}
</style>
<metadata>
	<sfw  xmlns="&ns_sfw;">
		<slices></slices>
		<sliceSourceBounds  bottomLeftOrigin="true" height="50" width="50" x="0" y="0"></sliceSourceBounds>
	</sfw>
</metadata>
<g>
	<defs>
		<circle id="SVGID_1_" cx="25" cy="25" r="24.8"/>
	</defs>
	<clipPath id="SVGID_00000003089261527065650360000004572422027863387267_">
		<use xlink:href="#SVGID_1_"  style="overflow:visible;"/>
	</clipPath>
	<defs>
		<filter id="Adobe_OpacityMaskFilter" filterUnits="userSpaceOnUse" x="0.5" y="0.5" width="49" height="49">
			<feColorMatrix  type="matrix" values="1 0 0 0 0  0 1 0 0 0  0 0 1 0 0  0 0 0 1 0"/>
		</filter>
	</defs>
	
		<mask maskUnits="userSpaceOnUse" x="0.5" y="0.5" width="49" height="49" id="a_00000028300412947236229830000012445972227374416543_">
		
			<circle style="clip-path:url(#SVGID_00000003089261527065650360000004572422027863387267_);fill:#FFFFFF;filter:url(#Adobe_OpacityMaskFilter);" cx="25" cy="25" r="24.5"/>
	</mask>
	
		<g style="clip-path:url(#SVGID_00000003089261527065650360000004572422027863387267_);mask:url(#a_00000028300412947236229830000012445972227374416543_);">
		<path class="st2" d="M0.5,16.4824l24.2895-1.8471L49.5,16.4824v17.0352l-24.3947,3.0912L0.5,33.5176V16.4824z"/>
		<path class="st3" d="M0.5,0.5h49v15.9824h-49V0.5z"/>
		<path class="st4" d="M0.5,33.5176h49V49.5h-49V33.5176z"/>
		<path class="st5" d="M15.1426,19.143l1.3207,4.0674h4.2779l-3.4645,2.517l1.3207,4.0674l-3.4549-2.517l-3.4645,2.517
			l1.3207-4.0674l-3.4645-2.517h4.2779L15.1426,19.143z M34.8574,19.143l1.3303,4.0674h4.2779l-3.4645,2.517l1.3207,4.0674
			l-3.4645-2.517l-3.4549,2.517l1.3207-4.0674l-3.4645-2.517h4.2779L34.8574,19.143z"/>
	</g>
</g>
<g>
	<path class="st6" d="M25,50C11.2,50,0,38.8,0,25S11.2,0,25,0s25,11.2,25,25S38.8,50,25,50z M25,0.5C11.5,0.5,0.5,11.5,0.5,25
		s11,24.5,24.5,24.5s24.5-11,24.5-24.5S38.5,0.5,25,0.5z"/>
</g>
</svg>
