<?xml version="1.0" encoding="utf-8"?>
<!-- Generator: Adobe Illustrator 27.6.1, SVG Export Plug-In . SVG Version: 6.00 Build 0)  -->
<!DOCTYPE svg PUBLIC "-//W3C//DTD SVG 1.1//EN" "http://www.w3.org/Graphics/SVG/1.1/DTD/svg11.dtd" [
	<!ENTITY ns_extend "http://ns.adobe.com/Extensibility/1.0/">
	<!ENTITY ns_ai "http://ns.adobe.com/AdobeIllustrator/10.0/">
	<!ENTITY ns_graphs "http://ns.adobe.com/Graphs/1.0/">
	<!ENTITY ns_vars "http://ns.adobe.com/Variables/1.0/">
	<!ENTITY ns_imrep "http://ns.adobe.com/ImageReplacement/1.0/">
	<!ENTITY ns_sfw "http://ns.adobe.com/SaveForWeb/1.0/">
	<!ENTITY ns_custom "http://ns.adobe.com/GenericCustomNamespace/1.0/">
	<!ENTITY ns_adobe_xpath "http://ns.adobe.com/XPath/1.0/">
]>
<svg version="1.1" id="Layer_1" xmlns:x="&ns_extend;" xmlns:i="&ns_ai;" xmlns:graph="&ns_graphs;"
	 xmlns="http://www.w3.org/2000/svg" xmlns:xlink="http://www.w3.org/1999/xlink" x="0px" y="0px" viewBox="0 0 50 50"
	 style="enable-background:new 0 0 50 50;" xml:space="preserve">
<style type="text/css">
	.st0{fill:#FFFFFF;}
	.st1{fill:#D1D3D4;}
	.st2{fill:#EC1C24;}
	.st3{fill:#241D4E;}
</style>
<metadata>
	<sfw  xmlns="&ns_sfw;">
		<slices></slices>
		<sliceSourceBounds  bottomLeftOrigin="true" height="50" width="50" x="0" y="0"></sliceSourceBounds>
	</sfw>
</metadata>
<g id="Layer_2_00000123403691739621316350000017975105315266775208_">
	<g id="Layer_2_00000009549042599903514300000009786033506733176249_">
		<g>
			<circle class="st0" cx="24.9998" cy="25.0002" r="24.7525"/>
			<path class="st1" d="M25,50C11.215,50,0,38.785,0,25S11.215,0,25,0s25,11.215,25,25S38.785,50,25,50z M25,0.495
				C11.4881,0.495,0.495,11.4881,0.495,25S11.4881,49.505,25,49.505S49.505,38.5119,49.505,25S38.5119,0.495,25,0.495z"/>
		</g>
	</g>
</g>
<g id="XMLID_9275_">
	<path id="XMLID_9280_" class="st2" d="M43.2532,8.6748H6.7468C11.233,3.6613,17.7559,0.5,25.0005,0.5
		S38.7671,3.6613,43.2532,8.6748z"/>
	<path id="XMLID_9279_" class="st0" d="M48.105,16.8524H1.895c1.0744-3.0449,2.7373-5.8163,4.8519-8.1776h36.5063
		C45.3687,11.0361,47.0316,13.8075,48.105,16.8524z"/>
	<path id="XMLID_9278_" class="st0" d="M48.105,33.1485c-1.0735,3.0449-2.7363,5.8163-4.8519,8.1767H6.7468
		c-2.1146-2.3603-3.7775-5.1318-4.8519-8.1767H48.105z"/>
	<path id="XMLID_9277_" class="st3" d="M49.5,25.0005c0,2.8555-0.4915,5.5974-1.395,8.148H1.895
		C0.9924,30.5978,0.5,27.856,0.5,25.0005s0.4924-5.5983,1.395-8.148H48.105C49.0085,19.4022,49.5,22.145,49.5,25.0005z"/>
	<path id="XMLID_9276_" class="st2" d="M43.2532,41.3252C38.7671,46.3396,32.245,49.5,25.0005,49.5S11.233,46.3396,6.7468,41.3252
		H43.2532z"/>
</g>
</svg>
