<?xml version="1.0" encoding="utf-8"?>
<!-- Generator: Adobe Illustrator 27.6.1, SVG Export Plug-In . SVG Version: 6.00 Build 0)  -->
<svg version="1.1" xmlns="http://www.w3.org/2000/svg" xmlns:xlink="http://www.w3.org/1999/xlink" x="0px" y="0px"
	 viewBox="0 0 50 50" style="enable-background:new 0 0 50 50;" xml:space="preserve">
<style type="text/css">
	.st0{fill:#FFFFFF;}
	.st1{fill:#D1D3D4;}
	.st2{fill:#E60313;}
</style>
<g id="Layer_2">
	<g id="Layer_2_00000009549042599903514300000009786033506733176249_">
		<g>
			<circle class="st0" cx="24.9998" cy="25.0002" r="24.7525"/>
			<path class="st1" d="M25,50C11.215,50,0,38.785,0,25S11.215,0,25,0s25,11.215,25,25S38.785,50,25,50z M25,0.495
				C11.4881,0.495,0.495,11.4881,0.495,25S11.4881,49.505,25,49.505S49.505,38.5119,49.505,25S38.5119,0.495,25,0.495z"/>
		</g>
	</g>
</g>
<g id="Layer_1">
	<g id="XMLID_12145_">
		<g id="XMLID_12151_">
			<circle id="XMLID_12152_" class="st2" cx="25" cy="25" r="24.5"/>
		</g>
		<g id="XMLID_12146_">
			<circle id="XMLID_12150_" class="st0" cx="25" cy="25" r="12.2883"/>
			<g id="XMLID_12147_">
				<path id="XMLID_12149_" class="st2" d="M28.3478,32.3885c-4.0804,0-7.3884-3.3081-7.3884-7.3885s3.308-7.3885,7.3884-7.3885
					c1.8975,0,3.6268,0.7169,4.935,1.8919c-1.6758-2.2448-4.3539-3.698-7.371-3.698c-5.0781,0-9.1945,4.1164-9.1945,9.1945
					s4.1164,9.1945,9.1945,9.1945c3.0171,0,5.6952-1.4531,7.371-3.698C31.9747,31.6726,30.2453,32.3885,28.3478,32.3885z"/>
				<polygon id="XMLID_12148_" class="st2" points="26.6536,19.8083 28.9945,23.0064 32.7599,21.7695 30.4402,24.9834 
					32.7811,28.1825 29.0074,26.9705 26.6887,30.1843 26.6758,26.2213 22.9021,25.0092 26.6675,23.7714 				"/>
			</g>
		</g>
	</g>
</g>
</svg>
