<?xml version="1.0" encoding="utf-8"?>
<!-- Generator: Adobe Illustrator 27.7.0, SVG Export Plug-In . SVG Version: 6.00 Build 0)  -->
<!DOCTYPE svg PUBLIC "-//W3C//DTD SVG 1.1//EN" "http://www.w3.org/Graphics/SVG/1.1/DTD/svg11.dtd" [
	<!ENTITY ns_extend "http://ns.adobe.com/Extensibility/1.0/">
	<!ENTITY ns_ai "http://ns.adobe.com/AdobeIllustrator/10.0/">
	<!ENTITY ns_graphs "http://ns.adobe.com/Graphs/1.0/">
	<!ENTITY ns_vars "http://ns.adobe.com/Variables/1.0/">
	<!ENTITY ns_imrep "http://ns.adobe.com/ImageReplacement/1.0/">
	<!ENTITY ns_sfw "http://ns.adobe.com/SaveForWeb/1.0/">
	<!ENTITY ns_custom "http://ns.adobe.com/GenericCustomNamespace/1.0/">
	<!ENTITY ns_adobe_xpath "http://ns.adobe.com/XPath/1.0/">
]>
<svg version="1.1" id="Layer_1" xmlns:x="&ns_extend;" xmlns:i="&ns_ai;" xmlns:graph="&ns_graphs;"
	 xmlns="http://www.w3.org/2000/svg" xmlns:xlink="http://www.w3.org/1999/xlink" x="0px" y="0px" width="50px" height="50px"
	 viewBox="0 0 50 50" style="enable-background:new 0 0 50 50;" xml:space="preserve">
<style type="text/css">
	
		.st0{clip-path:url(#SVGID_00000039823486201157868280000002516364648536866459_);fill:#FFFFFF;filter:url(#Adobe_OpacityMaskFilter);}
	
		.st1{clip-path:url(#SVGID_00000039823486201157868280000002516364648536866459_);mask:url(#a_00000170272906846256775870000009466365064874571441_);}
	.st2{fill:#D80027;}
	.st3{fill:#EEEEEE;}
	.st4{fill:#D1D3D4;}
</style>
<metadata>
	<sfw  xmlns="&ns_sfw;">
		<slices></slices>
		<sliceSourceBounds  bottomLeftOrigin="true" height="50" width="50" x="0" y="0"></sliceSourceBounds>
	</sfw>
</metadata>
<g>
	<defs>
		<circle id="SVGID_1_" cx="25" cy="25" r="24.8"/>
	</defs>
	<clipPath id="SVGID_00000039813296963698201110000002032087777999916423_">
		<use xlink:href="#SVGID_1_"  style="overflow:visible;"/>
	</clipPath>
	<defs>
		<filter id="Adobe_OpacityMaskFilter" filterUnits="userSpaceOnUse" x="0.5" y="0.5" width="49" height="49">
			<feColorMatrix  type="matrix" values="1 0 0 0 0  0 1 0 0 0  0 0 1 0 0  0 0 0 1 0"/>
		</filter>
	</defs>
	
		<mask maskUnits="userSpaceOnUse" x="0.5" y="0.5" width="49" height="49" id="a_00000170272906846256775870000009466365064874571441_">
		
			<circle style="clip-path:url(#SVGID_00000039813296963698201110000002032087777999916423_);fill:#FFFFFF;filter:url(#Adobe_OpacityMaskFilter);" cx="25" cy="25" r="24.5"/>
	</mask>
	
		<g style="clip-path:url(#SVGID_00000039813296963698201110000002032087777999916423_);mask:url(#a_00000170272906846256775870000009466365064874571441_);">
		<path class="st2" d="M0.5,0.5h49v49h-49V0.5z"/>
		<g>
			<path class="st3" d="M23.9951,20.5211l2.0098,2.7754l3.2539-1.0623l-2.0098,2.7754l2.0098,2.7658l-3.2539-1.0623l-2.0098,2.7754
				v-3.4357l-3.2539-1.0623l3.2539-1.0527V20.5211z"/>
			<path class="st3" d="M18.5113,31.9193c-3.8214-0.0106-6.9107-3.1171-6.9001-6.9386c0.0106-3.8214,3.1171-6.9107,6.9386-6.9001
				c1.1357,0.0032,2.2531,0.2858,3.2537,0.823c-3.3642-3.288-8.7569-3.2261-12.0449,0.1381s-3.2261,8.7569,0.1381,12.0449
				c3.3098,3.2348,8.5969,3.2348,11.9068,0C20.7928,31.6346,19.661,31.9208,18.5113,31.9193L18.5113,31.9193z"/>
		</g>
	</g>
</g>
<g>
	<path class="st4" d="M25,50C11.2,50,0,38.8,0,25S11.2,0,25,0s25,11.2,25,25S38.8,50,25,50z M25,0.5C11.5,0.5,0.5,11.5,0.5,25
		s11,24.5,24.5,24.5s24.5-11,24.5-24.5S38.5,0.5,25,0.5z"/>
</g>
</svg>
