<?xml version="1.0" encoding="utf-8"?>
<!-- Generator: Adobe Illustrator 27.6.1, SVG Export Plug-In . SVG Version: 6.00 Build 0)  -->
<!DOCTYPE svg PUBLIC "-//W3C//DTD SVG 1.1//EN" "http://www.w3.org/Graphics/SVG/1.1/DTD/svg11.dtd" [
	<!ENTITY ns_extend "http://ns.adobe.com/Extensibility/1.0/">
	<!ENTITY ns_ai "http://ns.adobe.com/AdobeIllustrator/10.0/">
	<!ENTITY ns_graphs "http://ns.adobe.com/Graphs/1.0/">
	<!ENTITY ns_vars "http://ns.adobe.com/Variables/1.0/">
	<!ENTITY ns_imrep "http://ns.adobe.com/ImageReplacement/1.0/">
	<!ENTITY ns_sfw "http://ns.adobe.com/SaveForWeb/1.0/">
	<!ENTITY ns_custom "http://ns.adobe.com/GenericCustomNamespace/1.0/">
	<!ENTITY ns_adobe_xpath "http://ns.adobe.com/XPath/1.0/">
]>
<svg version="1.1" id="Layer_1" xmlns:x="&ns_extend;" xmlns:i="&ns_ai;" xmlns:graph="&ns_graphs;"
	 xmlns="http://www.w3.org/2000/svg" xmlns:xlink="http://www.w3.org/1999/xlink" x="0px" y="0px" viewBox="0 0 50 50"
	 style="enable-background:new 0 0 50 50;" xml:space="preserve">
<style type="text/css">
	.st0{fill:#FFFFFF;}
	.st1{fill:#D1D3D4;}
	
		.st2{clip-path:url(#SVGID_00000170985397731842195930000000870635572009137052_);fill:#FFFFFF;filter:url(#Adobe_OpacityMaskFilter);}
	
		.st3{clip-path:url(#SVGID_00000170985397731842195930000000870635572009137052_);mask:url(#a_00000073683664959210119110000008318515509237825697_);}
	.st4{fill:#EEEEEE;}
	.st5{fill:#0052B4;}
	.st6{fill:#D80027;}
</style>
<metadata>
	<sfw  xmlns="&ns_sfw;">
		<slices></slices>
		<sliceSourceBounds  bottomLeftOrigin="true" height="50" width="50" x="0" y="0"></sliceSourceBounds>
	</sfw>
</metadata>
<g id="Layer_2_00000123403691739621316350000017975105315266775208_">
	<g id="Layer_2_00000009549042599903514300000009786033506733176249_">
		<g>
			<circle class="st0" cx="24.9998" cy="25.0002" r="24.7525"/>
			<path class="st1" d="M25,50C11.215,50,0,38.785,0,25S11.215,0,25,0s25,11.215,25,25S38.785,50,25,50z M25,0.495
				C11.4881,0.495,0.495,11.4881,0.495,25S11.4881,49.505,25,49.505S49.505,38.5119,49.505,25S38.5119,0.495,25,0.495z"/>
		</g>
	</g>
</g>
<g>
	<defs>
		<circle id="SVGID_1_" cx="25" cy="25" r="24.7525"/>
	</defs>
	<clipPath id="SVGID_00000164493497863264758020000010065111320762689434_">
		<use xlink:href="#SVGID_1_"  style="overflow:visible;"/>
	</clipPath>
	<defs>
		<filter id="Adobe_OpacityMaskFilter" filterUnits="userSpaceOnUse" x="0.5" y="0.4841" width="49" height="49">
			<feColorMatrix  type="matrix" values="1 0 0 0 0  0 1 0 0 0  0 0 1 0 0  0 0 0 1 0"/>
		</filter>
	</defs>
	
		<mask maskUnits="userSpaceOnUse" x="0.5" y="0.4841" width="49" height="49" id="a_00000073683664959210119110000008318515509237825697_">
		
			<circle style="clip-path:url(#SVGID_00000164493497863264758020000010065111320762689434_);fill:#FFFFFF;filter:url(#Adobe_OpacityMaskFilter);" cx="25" cy="24.9841" r="24.5"/>
	</mask>
	
		<g style="clip-path:url(#SVGID_00000164493497863264758020000010065111320762689434_);mask:url(#a_00000073683664959210119110000008318515509237825697_);">
		<path class="st4" d="M0.5,0.4841l0.7656,2.1055L0.5,4.7907v2.2012l3.0625,5.168L0.5,17.3278v3.0625l3.0625,4.5938L0.5,29.5778
			v3.0625l3.0625,5.168L0.5,42.9763v6.5078l2.1055-0.7656l2.2012,0.7656h2.2012l5.168-3.0625l5.168,3.0625h3.0625L25,46.4216
			l4.5938,3.0625h3.0625l5.168-3.0625l5.168,3.0625H49.5l-0.7656-2.1055L49.5,45.1774v-2.2012l-3.0625-5.168l3.0625-5.168v-3.0625
			l-3.0625-4.5938L49.5,20.3903v-3.0625l-3.0625-5.168L49.5,6.9919V0.4841l-2.1055,0.7656l-2.2012-0.7656h-2.2012l-5.168,3.0625
			l-5.168-3.0625h-3.0625L25,3.5466l-4.5938-3.0625h-3.0625l-5.168,3.0625l-5.168-3.0625H0.5z"/>
		<path class="st5" d="M32.6562,0.4841V10.82L42.9922,0.4841H32.6562z M49.5,6.9919L39.1641,17.3278H49.5V6.9919z M0.5,17.3278
			h10.3359L0.5,6.9919V17.3278z M7.0078,0.4841L17.3438,10.82V0.4841H7.0078z M17.3438,49.4841V39.1481L7.0078,49.4841H17.3438z
			 M0.5,42.9763l10.3359-10.3359H0.5V42.9763z M49.5,32.6403H39.1641L49.5,42.9763V32.6403z M42.9922,49.4841L32.6562,39.1481
			v10.3359H42.9922z"/>
		<path class="st6" d="M0.5,0.4841v4.3066l12.5371,12.5371h4.3066L0.5,0.4841z M20.4062,0.4841v19.9062H0.5v9.1875h19.9062v19.9062
			h9.1875V29.5778H49.5v-9.1875H29.5938V0.4841H20.4062z M45.1934,0.4841L32.6562,13.0212v4.3066L49.5,0.4841H45.1934z
			 M17.3438,32.6403L0.5,49.4841h4.3066L17.3438,36.947V32.6403z M32.6562,32.6403L49.5,49.4841v-4.3066L36.9629,32.6403H32.6562z"
			/>
	</g>
</g>
</svg>
