<?xml version="1.0" encoding="utf-8"?>
<!-- Generator: Adobe Illustrator 27.6.1, SVG Export Plug-In . SVG Version: 6.00 Build 0)  -->
<svg version="1.1" xmlns="http://www.w3.org/2000/svg" xmlns:xlink="http://www.w3.org/1999/xlink" x="0px" y="0px"
	 viewBox="0 0 50 50" style="enable-background:new 0 0 50 50;" xml:space="preserve">
<style type="text/css">
	.st0{fill:#FFFFFF;}
	.st1{fill:#D1D3D4;}
	.st2{fill:#0738A6;}
	.st3{fill:#FBD023;}
</style>
<g id="Layer_2">
	<g id="Layer_2_00000009549042599903514300000009786033506733176249_">
		<g>
			<circle class="st0" cx="24.9998" cy="25.0002" r="24.7525"/>
			<path class="st1" d="M25,50C11.215,50,0,38.785,0,25S11.215,0,25,0s25,11.215,25,25S38.785,50,25,50z M25,0.495
				C11.4881,0.495,0.495,11.4881,0.495,25S11.4881,49.505,25,49.505S49.505,38.5119,49.505,25S38.5119,0.495,25,0.495z"/>
		</g>
	</g>
</g>
<g id="Layer_1">
	<g id="XMLID_12244_">
		<g id="XMLID_12351_">
			<g id="XMLID_12353_">
				<path id="XMLID_12362_" class="st0" d="M48.0987,33.1664c-0.5025,1.4281-1.1381,2.7906-1.8872,4.0829
					c-0.2679,0.4628-0.5515,0.9164-0.8489,1.3598H4.6375c-0.2975-0.4434-0.5811-0.897-0.849-1.3598
					c-0.7464-1.2923-1.3819-2.6548-1.8844-4.0829H48.0987z"/>
				<path id="XMLID_12361_" class="st2" d="M49.3485,27.7227c-0.2088,1.8881-0.6328,3.7107-1.2498,5.4436H1.9041
					c-0.6198-1.7329-1.0438-3.5555-1.2526-5.4436H49.3485z"/>
				<path id="XMLID_12360_" class="st2" d="M45.3625,38.6091c-1.3819,2.0581-3.0659,3.8973-4.9891,5.4464H9.6266
					c-1.9251-1.5491-3.61-3.3883-4.9891-5.4464H45.3625z"/>
				<path id="XMLID_12359_" class="st0" d="M40.3734,44.0555c-4.2067,3.404-9.5561,5.4427-15.372,5.4427
					s-11.1671-2.0387-15.3748-5.4427H40.3734z"/>
				<path id="XMLID_12358_" class="st0" d="M48.0987,16.8346H1.9041c0.5025-1.4281,1.1381-2.7906,1.8844-4.0839
					c0.2679-0.4619,0.5515-0.9164,0.849-1.3598h40.725c0.2974,0.4434,0.581,0.8979,0.8489,1.3598
					C46.9606,14.0439,47.5962,15.4065,48.0987,16.8346z"/>
				<path id="XMLID_12357_" class="st0" d="M49.5,25.0005c0,0.9191-0.0516,1.8281-0.1515,2.7223H0.6515
					C0.5517,26.8286,0.5,25.9196,0.5,25.0005c0-0.92,0.0517-1.8281,0.1515-2.7232h48.697C49.4484,23.1724,49.5,24.0804,49.5,25.0005
					z"/>
				<path id="XMLID_12356_" class="st2" d="M45.3625,11.3909H4.6375c0.1403-0.2078,0.2835-0.4166,0.4295-0.6189
					c0.0684-0.0979,0.1386-0.1921,0.2115-0.2873C5.9621,9.5545,6.714,8.6733,7.5278,7.8484
					c0.1026-0.1081,0.2115-0.2162,0.3196-0.3187c0.5672-0.5626,1.1594-1.09,1.7791-1.5842h30.7468
					C42.2966,7.4946,43.9806,9.3328,45.3625,11.3909z"/>
				<path id="XMLID_12355_" class="st0" d="M40.3734,5.9455H9.6266c0.1238-0.1062,0.2486-0.2032,0.3732-0.3002
					c0.1433-0.1136,0.2864-0.2217,0.4323-0.3279c4.0746-3.0253,9.1183-4.8155,14.5693-4.8155c0.9192,0,1.8281,0.0517,2.7205,0.1515
					C32.4809,1.1808,36.8318,3.0763,40.3734,5.9455z"/>
				<path id="XMLID_12354_" class="st2" d="M49.3485,22.2773H0.6515c0.2088-1.8872,0.6328-3.7098,1.2526-5.4427h46.1946
					C48.7157,18.5675,49.1397,20.3901,49.3485,22.2773z"/>
			</g>
			<path id="XMLID_12352_" class="st0" d="M27.7219,0.6533v27.0694H0.6515C0.5517,26.8286,0.5,25.9196,0.5,25.0005
				c0-0.92,0.0517-1.8281,0.1515-2.7232c0.2088-1.8872,0.6328-3.7098,1.2526-5.4427c0.5025-1.4281,1.1381-2.7906,1.8844-4.0839
				c0.2679-0.4619,0.5515-0.9164,0.849-1.3598c0.1403-0.2078,0.2835-0.4166,0.4295-0.6189
				c0.0684-0.0979,0.1386-0.1921,0.2115-0.2873C5.9621,9.5545,6.714,8.6733,7.5278,7.8484
				c0.1026-0.1081,0.2115-0.2162,0.3196-0.3187c0.5672-0.5626,1.1594-1.09,1.7791-1.5842c0.1238-0.1062,0.2486-0.2032,0.3732-0.3002
				c0.1433-0.1136,0.2864-0.2217,0.4323-0.3279c4.0746-3.0253,9.1183-4.8155,14.5693-4.8155
				C25.9206,0.5018,26.8295,0.5536,27.7219,0.6533z"/>
		</g>
		<g id="XMLID_12245_">
			<g id="XMLID_12246_">
				<g id="XMLID_12247_">
					<g id="XMLID_12248_">
						<g id="XMLID_12249_">
							<g id="XMLID_12303_">
								<path id="XMLID_12350_" class="st3" d="M10.4367,7.2073c0.0943,0.17,0.2217,0.4037,0.3907,0.7261
									c0.3889,0.7445,0.4518,1.4106,0.4518,1.7625c0,0.0924-0.0047,0.1626-0.0084,0.2078l1.478,1.0254h0.0009
									c-0.1607-0.5099-0.3039-0.9598-0.6318-1.6766c-0.3575-0.7787-0.4988-0.9736-1.3745-2.1468
									c-0.0139-0.0194-0.0277-0.0379-0.0426-0.0573c-0.3677-0.4924-0.5164-0.9247-0.5561-1.2757
									c-0.0037,0.0185-0.0074,0.0369-0.0102,0.0554c-0.0378,0.2199-0.0453,0.4332-0.0166,0.6097
									C10.1624,6.7094,10.215,6.8055,10.4367,7.2073z"/>
								<path id="XMLID_12349_" class="st3" d="M10.881,7.0032c0.8859,1.1861,1.0291,1.3819,1.393,2.1782
									c0.2947,0.6438,0.4425,1.0743,0.5857,1.5242L13.0777,9.5c-0.1986-0.5967-0.5663-1.2434-1.0937-1.9242
									c-0.2864-0.3695-0.6411-0.6226-1.1953-1.006c-0.1968-0.1349-0.3215-0.3076-0.4009-0.4951
									c-0.0055-0.0129-0.0111-0.0249-0.0157-0.0379c0.073,0.266,0.2152,0.5709,0.4665,0.909
									C10.8533,6.9653,10.8672,6.9847,10.881,7.0032z"/>
								<path id="XMLID_12348_" class="st3" d="M13.2661,10.8459c0.2476-0.0647,0.5007-0.0998,0.7593-0.1062V5.2249l-1.0309,5.7041
									C13.0842,10.8977,13.1747,10.8699,13.2661,10.8459z"/>
								<path id="XMLID_12347_" class="st3" d="M15.23,10.9281l-1.0317-5.7032v5.5148c0.0803,0.0018,0.1588,0.0065,0.2382,0.0148
									C14.7081,10.7794,14.9732,10.8385,15.23,10.9281z"/>
								<path id="XMLID_12346_" class="st3" d="M16.1371,9.2663c0.2707-0.727,0.327-0.9912,0.4914-2.1089
									c0.0203-0.1367,0.0425-0.2873,0.0665-0.4526c0.0887-0.6078,0.2891-1.018,0.509-1.2951
									c-0.2014,0.1358-0.3769,0.2938-0.4896,0.4517c-0.0702,0.0979-0.1164,0.1727-0.1552,0.2633
									c-0.0508,0.1164-0.0924,0.2586-0.1644,0.5062c-0.0535,0.1866-0.1274,0.4425-0.2365,0.7889
									c-0.3168,1.0124-0.9145,1.5685-1.0789,1.7071L15.4,10.8977C15.6466,10.4238,15.8637,10.0035,16.1371,9.2663z"/>
								<path id="XMLID_12345_" class="st3" d="M17.1006,5.9954c0.0167-0.0831,0.0434-0.1626,0.0767-0.2383
									c-0.1358,0.2402-0.2513,0.5561-0.3122,0.9736c-0.024,0.1644-0.0453,0.3141-0.0665,0.4508
									c-0.1663,1.1334-0.2226,1.4013-0.4988,2.144c-0.2476,0.6632-0.4462,1.0725-0.6632,1.49l1.006-0.6965l0,0
									c0.2809-0.5626,0.4785-1.2794,0.5866-2.1329c0.0591-0.4646-0.0129-0.8942-0.1349-1.5574
									C17.0664,6.2743,17.0711,6.1302,17.1006,5.9954z"/>
								<path id="XMLID_12344_" class="st3" d="M15.5727,11.0704c0.3168,0.1524,0.606,0.3529,0.8619,0.5967l3.901-3.9
									l-3.5943,2.4932L15.5727,11.0704z"/>
								<path id="XMLID_12343_" class="st3" d="M18.7255,13.0777c0.5635-0.1884,1.1732-0.5275,1.8133-1.0097
									c0.036-0.0277,0.073-0.0554,0.109-0.0841c0.3704-0.2864,0.6235-0.6411,1.006-1.1953
									c0.1441-0.2097,0.3317-0.339,0.5339-0.4166c-0.2669,0.073-0.5717,0.2152-0.909,0.4674
									c-1.2378,0.9228-1.4271,1.0642-2.2364,1.4346c-0.3215,0.1478-0.5903,0.2586-0.835,0.3501l-0.2892,0.1035
									c-0.1357,0.0471-0.267,0.0896-0.3991,0.1321l1.2056,0.218l0,0H18.7255z"/>
								<path id="XMLID_12342_" class="st3" d="M18.3218,11.2709h-0.0009l-1.0254,1.4789c0.1913-0.06,0.3741-0.1182,0.5653-0.1838
									c0.3196-0.1099,0.6632-0.2439,1.1103-0.4489c0.7916-0.3621,0.9801-0.5025,2.205-1.4161
									c0.4914-0.3677,0.9237-0.5164,1.2757-0.5561c-0.0185-0.0037-0.0379-0.0074-0.0554-0.0102
									c-0.2199-0.0379-0.4332-0.0453-0.6106-0.0166c-0.2715,0.0443-0.3667,0.097-0.7695,0.3187
									c-0.17,0.0933-0.4028,0.2226-0.7251,0.3907C19.3508,11.318,18.5361,11.2893,18.3218,11.2709z"/>
								<path id="XMLID_12341_" class="st3" d="M17.1533,12.6519h0.001l3.3023-4.7628l-3.8991,3.8991
									C16.8004,12.045,17.0008,12.3341,17.1533,12.6519z"/>
								<path id="XMLID_12340_" class="st3" d="M17.484,14.0264h5.5157l-5.705-1.0318
									C17.4119,13.3253,17.4756,13.6707,17.484,14.0264z"/>
								<path id="XMLID_12339_" class="st3" d="M17.2955,15.23l5.7041-1.0318H17.484C17.4756,14.5529,17.4119,14.8993,17.2955,15.23
									z"/>
								<path id="XMLID_12338_" class="st3" d="M22.3622,16.7145c-0.2235-0.1607-0.3279-0.1912-0.7686-0.3187
									c-0.1866-0.0545-0.4425-0.1284-0.7898-0.2374c-1.0133-0.3178-1.5685-0.9154-1.7062-1.0789l-1.7708,0.3196
									c0.474,0.2476,0.8942,0.4646,1.6313,0.739c0.7649,0.2836,1.017,0.3316,2.2909,0.5173
									c0.085,0.012,0.1746,0.0259,0.2697,0.0397c0.6087,0.0878,1.0189,0.2882,1.296,0.509
									c-0.035-0.0499-0.0702-0.0988-0.1062-0.145C22.5997,16.9195,22.4805,16.7995,22.3622,16.7145z"/>
								<path id="XMLID_12337_" class="st3" d="M21.2233,16.8253c-1.2885-0.1875-1.5436-0.2356-2.3251-0.5265
									c-0.6642-0.2466-1.0725-0.4462-1.4909-0.6632l0,0l0.6974,1.0069c0.5626,0.2808,1.2794,0.4785,2.1338,0.5866
									c0.4637,0.0591,0.8933-0.0129,1.5565-0.1349c0.1552-0.0286,0.2993-0.0231,0.4342,0.0065
									c0.0822,0.0166,0.1617,0.0434,0.2374,0.0767c-0.2402-0.1358-0.5561-0.2513-0.9727-0.3122
									C21.3988,16.8512,21.3092,16.8383,21.2233,16.8253z"/>
								<path id="XMLID_12336_" class="st3" d="M17.1533,15.5718c-0.0129,0.0259-0.0249,0.0517-0.0397,0.0776
									c-0.146,0.2882-0.3335,0.5515-0.5561,0.7861l3.8991,3.9l-2.4923-3.5952L17.1533,15.5718z"/>
								<path id="XMLID_12335_" class="st3" d="M15.5727,17.1533l4.7628,3.3042l-3.9-3.9
									C16.1796,16.8013,15.8896,17.0008,15.5727,17.1533z"/>
								<path id="XMLID_12334_" class="st3" d="M17.7879,21.0164c-0.0942-0.17-0.2226-0.4028-0.3907-0.7251
									c-0.4914-0.9413-0.4619-1.756-0.4434-1.9694l-1.4798-1.0263c0.1562,0.4933,0.2956,0.9321,0.6023,1.6101
									c0.0102,0.0212,0.0203,0.0434,0.0305,0.0656c0.363,0.7916,0.5026,0.9801,1.4161,2.2041
									c0.3676,0.4924,0.5173,0.9247,0.5561,1.2766c0.0037-0.0185,0.0074-0.0379,0.0111-0.0563
									c0.0369-0.2189,0.0453-0.4323,0.0166-0.6087C18.0613,21.5143,18.0096,21.4182,17.7879,21.0164z"/>
								<path id="XMLID_12333_" class="st3" d="M15.9505,19.0423c-0.0092-0.0194-0.0185-0.0397-0.0277-0.0591
									c-0.1339-0.2956-0.2365-0.5459-0.3224-0.775c-0.0915-0.2439-0.1643-0.4637-0.2356-0.6882l-0.2189,1.2046v0.0009
									c0.1995,0.5958,0.5673,1.2424,1.0938,1.9223c0.2872,0.3704,0.641,0.6235,1.1962,1.006
									c0.1958,0.1349,0.3215,0.3085,0.4009,0.496c0.0055,0.012,0.0111,0.0249,0.0157,0.0379
									c-0.0739-0.267-0.2152-0.5709-0.4673-0.909C16.4615,20.0418,16.32,19.8515,15.9505,19.0423z"/>
								<path id="XMLID_12332_" class="st3" d="M14.1983,17.484v5.5157l1.0317-5.7041
									C14.8984,17.4128,14.5529,17.4756,14.1983,17.484z"/>
								<path id="XMLID_12331_" class="st3" d="M14.0255,22.9996V17.484c-0.3547-0.0083-0.7002-0.0721-1.0318-0.1884
									L14.0255,22.9996z"/>
								<path id="XMLID_12330_" class="st3" d="M12.0865,18.9583c-0.218,0.5847-0.2965,0.8692-0.4046,1.539
									c-0.0424,0.266-0.0896,0.5921-0.1524,1.0217c-0.0887,0.6078-0.2891,1.0189-0.5099,1.296
									c0.0508-0.0342,0.0998-0.0693,0.146-0.1062c0.1395-0.109,0.2586-0.2272,0.3436-0.3455
									c0.1617-0.2245,0.1921-0.3289,0.3196-0.7695c0.0536-0.1875,0.1284-0.4425,0.2374-0.7898
									c0.158-0.5062,0.387-0.8979,0.5967-1.1815c0.2088-0.2827,0.4-0.4563,0.4823-0.5256l-0.3206-1.7699
									C12.578,17.8008,12.3609,18.2211,12.0865,18.9583z"/>
								<path id="XMLID_12329_" class="st3" d="M11.124,22.2292c-0.0176,0.0831-0.0443,0.1617-0.0776,0.2374
									c0.1367-0.2393,0.2522-0.5552,0.3131-0.9727c0.0619-0.4295,0.109-0.7565,0.1524-1.0235
									c0.1099-0.6826,0.1903-0.9727,0.4129-1.5722c0.2476-0.6632,0.4471-1.0715,0.6632-1.4909l-1.006,0.6984
									c-0.2817,0.5616-0.4794,1.2794-0.5875,2.132c-0.0591,0.4646,0.0129,0.8951,0.1349,1.5574
									C11.1582,21.9493,11.1526,22.0944,11.124,22.2292z"/>
								<path id="XMLID_12328_" class="st3" d="M11.7882,16.5574l-3.899,3.8991l4.7618-3.3033
									C12.3332,17.0008,12.045,16.8013,11.7882,16.5574z"/>
								<path id="XMLID_12327_" class="st3" d="M11.0704,15.5727l-1.1417,1.6461L7.768,20.3346l3.8992-3.8991
									C11.4233,16.1796,11.2228,15.8905,11.0704,15.5727z"/>
								<path id="XMLID_12326_" class="st3" d="M9.6959,16.9454c0.0924,0,0.1626,0.0037,0.207,0.0074l1.0254-1.478
									c-0.1913,0.0591-0.3733,0.1173-0.5654,0.1838c-0.3196,0.1099-0.6623,0.2429-1.1094,0.448
									c-0.7926,0.3621-0.9801,0.5034-2.2049,1.417c-0.4924,0.3667-0.9247,0.5154-1.2767,0.5552
									c0.2392,0.0462,0.4748,0.0582,0.666,0.0277c0.2725-0.0443,0.3677-0.0979,0.7704-0.3187
									c0.17-0.0942,0.4028-0.2226,0.7251-0.3907C8.6779,17.0073,9.3448,16.9454,9.6959,16.9454z"/>
								<path id="XMLID_12325_" class="st3" d="M7.5768,16.2397c-0.3353,0.2596-0.5755,0.5755-0.9016,1.0457
									c-0.0342,0.049-0.0693,0.0988-0.1044,0.1506c-0.1441,0.2088-0.3325,0.3381-0.5348,0.4166
									c0.267-0.0739,0.5718-0.2152,0.909-0.4674c1.2378-0.9228,1.4281-1.0651,2.2364-1.4346
									c0.4545-0.2088,0.8027-0.3436,1.126-0.4545c0.1339-0.0471,0.2642-0.0896,0.3963-0.1312l-1.2046-0.218H9.4982
									C8.9024,15.3455,8.2558,15.7131,7.5768,16.2397z"/>
								<path id="XMLID_12324_" class="st3" d="M10.7471,13.8749c0.0203-0.3021,0.0813-0.5967,0.1811-0.8803L5.225,14.0264h5.5148
									C10.7406,13.9756,10.7435,13.9248,10.7471,13.8749z"/>
								<path id="XMLID_12323_" class="st3" d="M10.9282,15.23c-0.1165-0.3316-0.1802-0.6771-0.1885-1.0318H5.225l3.9721,0.7187
									L10.9282,15.23z"/>
								<path id="XMLID_12322_" class="st3" d="M9.3254,11.9249h0.0009c0.6623,0.2476,1.0715,0.4471,1.49,0.6632l0,0l-0.6984-1.006
									c-0.5616-0.2817-1.2794-0.4785-2.132-0.5875c-0.4637-0.0582-0.8942,0.0139-1.5574,0.1349
									c-0.1543,0.0286-0.2984,0.024-0.4332-0.0055c-0.0831-0.0176-0.1627-0.0434-0.2384-0.0767
									c0.2411,0.1358,0.5561,0.2513,0.9727,0.3113C8.2576,11.5812,8.4932,11.6154,9.3254,11.9249z"/>
								<path id="XMLID_12321_" class="st3" d="M5.8614,11.5101c0.2235,0.1607,0.328,0.1912,0.7695,0.3187
									c0.1867,0.0545,0.4415,0.1275,0.7898,0.2374c1.0115,0.3168,1.5667,0.9136,1.7062,1.078l1.7698-0.3196
									c-0.4739-0.2476-0.8933-0.4637-1.6313-0.7381c-0.8157-0.303-1.0485-0.3372-2.5598-0.557
									c-0.6087-0.0887-1.0198-0.2891-1.296-0.509c0.0166,0.0249,0.0342,0.0499,0.0517,0.0739
									C5.5861,11.2644,5.7238,11.4103,5.8614,11.5101z"/>
								<path id="XMLID_12320_" class="st3" d="M11.0704,12.6528c0.0129-0.0259,0.0259-0.0527,0.0397-0.0785
									c0.146-0.2873,0.3325-0.5506,0.5561-0.7861L7.7671,7.889l3.1897,4.6012L11.0704,12.6528z"/>
								<path id="XMLID_12319_" class="st3" d="M12.6519,11.0704L7.8891,7.7671l3.899,3.9
									C12.044,11.4233,12.3341,11.2237,12.6519,11.0704z"/>
								<path id="XMLID_12318_" class="st3" d="M15.727,13.0712c-0.0083-0.0028-0.0176-0.0046-0.0268-0.0074
									c0.0296,0.1016,0.1025,0.4203-0.0988,0.5395c-0.0046,0.0028-0.0102,0.0046-0.0148,0.0074
									c0.1487-0.0369,0.2744-0.1016,0.3576-0.1524c0.0045-0.0527,0.0138-0.206-0.0195-0.2984
									C15.8471,13.1202,15.775,13.0869,15.727,13.0712z"/>
								<path id="XMLID_12317_" class="st3" d="M12.6214,13.6033c-0.2005-0.1192-0.1275-0.4379-0.0979-0.5395
									c-0.0092,0.0028-0.0185,0.0046-0.0268,0.0074c-0.048,0.0157-0.1201,0.049-0.1968,0.0887
									c-0.0342,0.0924-0.024,0.2457-0.0194,0.2984c0.0822,0.0508,0.2088,0.1155,0.3566,0.1524
									C12.6325,13.6079,12.6269,13.6061,12.6214,13.6033z"/>
								<path id="XMLID_12304_" class="st3" d="M17.3113,14.0273c-0.0084-0.3519-0.0731-0.6947-0.195-1.0198
									c-0.0055-0.0129-0.0082-0.0268-0.0129-0.0397l-0.0055-0.0083l-0.0166-0.0462c-0.0083-0.0166-0.0157-0.0351-0.0212-0.0545
									c-0.0083-0.0129-0.0139-0.0268-0.0194-0.0425c-0.0083-0.0166-0.0156-0.0323-0.024-0.0462
									c-0.146-0.3196-0.3409-0.606-0.581-0.86c-0.0194-0.0212-0.0406-0.0406-0.06-0.0619
									c-0.0212-0.0194-0.0406-0.0406-0.0618-0.06c-0.1599-0.1515-0.3299-0.2836-0.5137-0.3972
									c-0.1329-0.0841-0.2734-0.157-0.4193-0.2189l-0.0167-0.0083c-0.0157-0.0055-0.0351-0.0139-0.0508-0.0185
									c-0.2873-0.1164-0.5866-0.1894-0.8923-0.2189c-0.1025-0.0111-0.206-0.0139-0.3085-0.0139
									c-0.2734,0-0.5432,0.0323-0.8027,0.0998c-0.1192,0.0296-0.2356,0.0674-0.3519,0.1136c-0.0055,0-0.0083,0.0028-0.0139,0.0055
									c-0.0046,0.0028-0.0102,0.0028-0.0129,0.0055l-0.0165,0.0055c-0.0213,0.0074-0.038,0.0157-0.0537,0.0212
									c-0.011,0.0055-0.0194,0.0111-0.0295,0.0139c-0.0056,0.0028-0.0112,0.0055-0.0139,0.0083
									c-0.1349,0.0591-0.2679,0.1293-0.3925,0.2051c-0.2079,0.1293-0.4028,0.2836-0.5756,0.4573
									c-0.2383,0.2374-0.4323,0.5081-0.5866,0.8027c-0.0351,0.0674-0.0674,0.1376-0.0979,0.2078
									c-0.0046,0.0139-0.0102,0.0277-0.0157,0.0406c-0.0028,0.0055-0.0028,0.0083-0.0055,0.0139
									c-0.0055,0.0166-0.0139,0.0296-0.0166,0.0462c-0.1154,0.2974-0.1866,0.6078-0.2078,0.9302
									c-0.0029,0.0434-0.0056,0.0915-0.0084,0.1376v0.17c0.0111,0.3519,0.0757,0.6956,0.1949,1.0198
									c0.0055,0.0139,0.0111,0.0268,0.0167,0.0379l0.0212,0.0563c0.0083,0.0166,0.0139,0.036,0.0212,0.0517
									c0.0055,0.0166,0.0111,0.0296,0.0194,0.0462c0.0083,0.0157,0.0129,0.0323,0.0213,0.0462
									c0.1459,0.3159,0.3436,0.6051,0.5847,0.8591c0.0185,0.0194,0.0379,0.0406,0.0591,0.06
									c0.0185,0.0212,0.0406,0.0406,0.0619,0.0619c0.1598,0.1515,0.3325,0.2845,0.5191,0.3981
									c0.1081,0.0702,0.2217,0.1293,0.3381,0.1838c0.0167,0.0074,0.0323,0.0157,0.049,0.0212
									c0.0139,0.0055,0.0268,0.0139,0.0434,0.0185c0.0157,0.0083,0.0352,0.0166,0.0537,0.0222
									c0.0138,0.0083,0.0295,0.0139,0.0433,0.0185c0.0166,0.0055,0.0323,0.0111,0.049,0.0194
									c0.3269,0.1192,0.6678,0.1838,1.0188,0.1949h0.1737c0.3483-0.0111,0.692-0.0757,1.0189-0.1949
									c0.0139-0.0055,0.0277-0.0111,0.0406-0.0166l0.0055-0.0028l0.0462-0.0185c0.0185-0.0083,0.0379-0.0139,0.0536-0.0222
									c0.0139-0.0046,0.0305-0.0102,0.0434-0.0185c0.0166-0.0055,0.0323-0.0139,0.0462-0.0212
									c0.1164-0.0545,0.23-0.1136,0.3381-0.1838c0.1866-0.1136,0.3593-0.2466,0.522-0.3981
									c0.0212-0.0212,0.0406-0.0406,0.0618-0.0619l0.06-0.06c0.2107-0.2217,0.3862-0.4702,0.5238-0.7408
									c0.0222-0.0397,0.0406-0.0776,0.0573-0.1182c0.0084-0.0166,0.0157-0.0333,0.024-0.049
									c0.0055-0.0139,0.0111-0.0268,0.0194-0.0434c0.0055-0.0157,0.0129-0.0351,0.0212-0.0517
									c0.0055-0.0157,0.0111-0.0296,0.0166-0.0453c0.0074-0.0166,0.0129-0.0323,0.0185-0.049
									c0.1219-0.327,0.1866-0.6679,0.195-1.0198c0-0.0268,0.0027-0.0563,0.0027-0.0859
									C17.314,14.0846,17.3113,14.0541,17.3113,14.0273z M14.588,14.3358c0,0,0.2134,0.0647,0.2707,0.4055
									c0.0813,0.0296,0.1598,0.0508,0.23,0.0998c0.0703,0.049,0.1321,0.1053,0.1866,0.1681
									c-0.0083-0.0111-0.0434-0.0194-0.06-0.0277c-0.0185-0.0074-0.0351-0.0157-0.0536-0.024
									c-0.0406-0.0185-0.0785-0.0351-0.1192-0.0517c-0.0942-0.0379-0.1921-0.0619-0.2891-0.0702
									c-0.0924-0.0055-0.1838,0.0028-0.2707,0.0194c0,0-0.1376,0.1543-0.3704,0.1543s-0.3704-0.1543-0.3704-0.1543
									c-0.0896-0.0166-0.1783-0.0249-0.2707-0.0194c-0.0998,0.0083-0.1967,0.0323-0.2891,0.0702
									c-0.0407,0.0166-0.0814,0.0333-0.1192,0.0517c-0.0185,0.0083-0.0378,0.0166-0.0536,0.024
									c-0.0055,0.0028-0.0139,0.0055-0.0249,0.0083c-0.0074,0.0028-0.0185,0.0083-0.0268,0.0111
									c0.0545-0.0619,0.1137-0.1136,0.1784-0.1598c0.0701-0.049,0.1486-0.0702,0.2299-0.0998
									c0.0573-0.3409,0.2707-0.4055,0.2707-0.4055c-0.327,0.4868,0.1266,0.3889,0.1811,0.3353
									c-0.0139,0.17,0.1783,0.1838,0.2596,0.1811h0.0702c0.0813,0.0028,0.2734-0.0111,0.2568-0.1811
									C14.4587,14.7247,14.915,14.8226,14.588,14.3358z M14.1585,16.1177c-0.0323-0.0028-0.0628-0.0028-0.0924,0
									c-0.1053,0-0.3704-0.0028-0.5699-0.0924c-0.2569-0.1164-0.3871-0.2753-0.6846-0.3353c0,0,0.0591,0,0.1543,0.0111
									c0.146,0.0166,0.376,0.0563,0.6134,0.1598c0.168,0.0563,0.3981,0.0591,0.5329,0.0591s0.3649-0.0028,0.533-0.0591
									c0.2374-0.1035,0.4675-0.1432,0.6106-0.1598c0.0979-0.0111,0.157-0.0111,0.157-0.0111
									c-0.3001,0.06-0.4268,0.2189-0.6845,0.3353C14.5289,16.115,14.261,16.1177,14.1585,16.1177z M14.4448,16.4909
									c0,0-0.0111-0.0028-0.0296-0.0028c-0.0194-0.0028-0.0434-0.0083-0.0757-0.0111c-0.0619-0.0055-0.1432-0.0083-0.2272-0.0083
									c-0.0406,0-0.0813,0.0028-0.1219,0.0055c-0.0379,0.0028-0.0757,0.0028-0.1053,0.0055
									c-0.0619,0.0055-0.1053,0.0111-0.1053,0.0111s0.0379-0.0249,0.0998-0.0434c0.0296-0.0083,0.0656-0.0166,0.1053-0.024
									c0.0195-0.0028,0.0406-0.0083,0.0628-0.0083c0.0213,0,0.0434-0.0028,0.0647-0.0028c0.0434,0,0.0868,0.0028,0.1275,0.0083
									c0.0185,0.0028,0.0379,0.0074,0.0563,0.0102c0.0194,0.0055,0.0351,0.0083,0.049,0.0166
									c0.0323,0.0083,0.0564,0.0185,0.073,0.0296C14.4338,16.4854,14.4448,16.4909,14.4448,16.4909z M15.2503,15.6171
									c-0.4942,0.0462-0.5163-0.0028-0.6947-0.0083c-0.1626-0.0074-0.3381,0.0194-0.4111,0.0305
									c-0.0212,0.0028-0.0434,0.0028-0.0647,0c-0.073-0.0111-0.2512-0.0379-0.4138-0.0305
									c-0.1755,0.0055-0.2005,0.0545-0.6919,0.0083c-0.0784-0.0083-0.1653-0.0157-0.2679-0.0296c0,0,0.4028-0.049,0.7002-0.1515
									c0.1838-0.0619,0.3815-0.073,0.5736-0.0379c0.0241,0.0055,0.0536,0.0139,0.0831,0.0194
									c0.0305,0.0074,0.0628,0.0074,0.0951,0c0.0268-0.0055,0.0536-0.0111,0.0813-0.0166
									c0.1912-0.0379,0.3944-0.0268,0.5783,0.0351c0.2948,0.1025,0.7002,0.1515,0.7002,0.1515
									C15.4157,15.6014,15.3261,15.6088,15.2503,15.6171z M11.7596,12.8754c-0.0407,0-0.086-0.024-0.0564-0.0702
									c0.0028-0.0028,0.0055-0.0055,0.0055-0.0083c0.0129-0.0157,0.0324-0.024,0.048-0.0351
									c0.1035-0.0563,0.2032-0.1136,0.3058-0.1672c0.2919-0.1543,0.6004-0.3058,0.9358-0.2032
									c0.2486,0.073,0.498,0.2651,0.679,0.4489c0.0268,0.0268,0.1108,0.1192,0.0323,0.1321
									c-0.0647,0.0139-0.1783-0.121-0.23-0.1533c-0.2568-0.1681-0.5681-0.2245-0.8701-0.2005
									c-0.1488,0.0139-0.2975,0.0462-0.4416,0.0942c-0.0702,0.0249-0.1403,0.0517-0.2078,0.0841
									C11.8953,12.8264,11.8325,12.8754,11.7596,12.8754z M12.1761,13.3862c0,0,0.0269,0.0222,0.0731,0.0517
									c-0.0084-0.0462-0.0084-0.0924,0-0.1404c0.0027-0.0249,0.011-0.049,0.0193-0.0702c0.0028-0.0111,0.0129-0.0573,0.024-0.0628
									c-0.0563,0.0194-0.1025,0.0517-0.1515,0.0785c-0.0462,0.024-0.0887,0.0462-0.1349,0.0674
									c-0.0222,0.0111-0.06,0.0379-0.0841,0.0351c-0.0166-0.0028-0.0139-0.0102-0.0028-0.024
									c0.0212-0.024,0.4138-0.3732,0.7981-0.4083c0.3861-0.0323,0.5571,0.0563,0.703,0.1811
									c0.146,0.1247,0.0998,0.2272,0.0998,0.2272s-0.2051-0.1783-0.3187-0.2272c0,0,0,0-0.0028,0
									c0.0055,0.0757-0.0249,0.2088-0.0627,0.2734c-0.0352,0.0619-0.17,0.2429-0.3382,0.2707
									c0.1275,0.0102,0.2356-0.0166,0.3436-0.0813c0.06-0.0351,0.1275-0.073,0.1755-0.1219
									c0.0139-0.0139,0.0305-0.0212,0.049-0.0268c0.0139-0.0028,0.0296-0.0028,0.0434,0.0055
									c0.0083,0.0018,0.0139,0.0102,0.0185,0.0185c0.0083,0.0166,0.0055,0.0379-0.0018,0.0545
									c-0.0221,0.0379-0.0656,0.073-0.0979,0.097c-0.073,0.0545-0.1643,0.0896-0.254,0.1108
									c-0.2244,0.0619-0.4434,0.0296-0.6493-0.0841C12.1004,13.4269,12.141,13.3622,12.1761,13.3862z M12.4144,15.7658
									c0,0-0.0028-0.0083-0.0055-0.024c-0.0027-0.0139-0.0055-0.0351,0-0.0619c0.0028-0.0249,0.0139-0.0545,0.0268-0.0841
									c0.0055-0.0139,0.0139-0.0296,0.0222-0.0434c0.0102-0.0139,0.0185-0.0296,0.0296-0.0434
									c0.0212-0.024,0.0462-0.049,0.0702-0.0702c0.0241-0.0212,0.049-0.0379,0.0703-0.0517
									c0.0212-0.0102,0.0406-0.0185,0.0544-0.0268c0.0129-0.0055,0.0212-0.0083,0.0212-0.0083s-0.0055,0.0055-0.0166,0.0194
									c-0.0074,0.0111-0.024,0.024-0.0379,0.0434c-0.0074,0.0074-0.0185,0.0185-0.0268,0.0296
									c-0.0111,0.0083-0.0185,0.0212-0.0296,0.0296c-0.011,0.0111-0.0194,0.024-0.0295,0.0351
									c-0.0112,0.0111-0.0222,0.0249-0.0296,0.0379c-0.0222,0.0222-0.0379,0.049-0.0545,0.073
									c-0.0166,0.0249-0.0296,0.049-0.0379,0.0702C12.42,15.7307,12.4144,15.7658,12.4144,15.7658z M15.8157,15.7418
									c-0.0028,0.0157-0.0055,0.024-0.0055,0.024s-0.0055-0.0351-0.0268-0.0757c-0.0083-0.0212-0.0239-0.0453-0.0379-0.0702
									c-0.0157-0.024-0.0351-0.0508-0.0536-0.073c-0.0111-0.0129-0.0194-0.0268-0.0305-0.0379
									c-0.0102-0.0111-0.0212-0.024-0.0296-0.0351c-0.011-0.0083-0.0185-0.0212-0.0295-0.0296
									c-0.0112-0.0111-0.0195-0.0222-0.0269-0.0296c-0.0166-0.0194-0.0305-0.0323-0.0406-0.0434
									c-0.0083-0.0139-0.0139-0.0194-0.0139-0.0194s0.0083,0.0028,0.0222,0.0083c0.013,0.0083,0.0323,0.0166,0.0536,0.0268
									c0.0222,0.0139,0.0462,0.0305,0.0703,0.0517c0.0249,0.0212,0.0462,0.0462,0.0674,0.0702
									c0.0111,0.0139,0.0222,0.0296,0.0305,0.0434c0.0102,0.0139,0.0157,0.0296,0.024,0.0434
									c0.0139,0.0296,0.024,0.0591,0.0268,0.0841C15.8184,15.7067,15.8184,15.7279,15.8157,15.7418z M16.2997,13.3456
									c-0.024,0.0028-0.0619-0.024-0.0841-0.0351c-0.0425-0.0212-0.0859-0.0434-0.1321-0.0674
									c-0.0517-0.0268-0.097-0.0591-0.1515-0.0785c0.0111,0.0055,0.0213,0.0517,0.024,0.0628
									c0.0083,0.0212,0.0139,0.0453,0.0194,0.0702c0.0083,0.048,0.0083,0.0942,0,0.1404c0.0462-0.0296,0.073-0.0517,0.073-0.0517
									c0.0351-0.024,0.0757,0.0406-0.2485,0.2245c-0.206,0.1136-0.4249,0.146-0.6522,0.0841
									c-0.0868-0.0212-0.1783-0.0563-0.2513-0.1108c-0.0351-0.024-0.0757-0.0591-0.097-0.097
									c-0.0083-0.0166-0.0111-0.0379-0.0028-0.0545c0.0028-0.0083,0.0102-0.0166,0.0185-0.0185
									c0.0139-0.0083,0.0296-0.0083,0.0434-0.0055c0.0185,0.0055,0.0351,0.0129,0.049,0.0268
									c0.0481,0.049,0.1136,0.0868,0.1727,0.1219c0.1108,0.0647,0.2189,0.0915,0.3465,0.0813
									c-0.1682-0.0277-0.3058-0.2088-0.3382-0.2707c-0.0379-0.0647-0.0702-0.1977-0.0628-0.2734c-0.0018,0-0.0018,0-0.0046,0
									c-0.1108,0.049-0.3196,0.2272-0.3196,0.2272s-0.0434-0.1025,0.1025-0.2272c0.146-0.1247,0.3141-0.2134,0.7011-0.1811
									c0.3861,0.0351,0.7787,0.3843,0.7972,0.4083C16.3137,13.3354,16.3191,13.3428,16.2997,13.3456z M16.4651,12.8754
									c-0.073,0-0.1358-0.049-0.2005-0.0785c-0.0674-0.0323-0.1376-0.0591-0.2078-0.0841
									c-0.1432-0.048-0.2919-0.0804-0.4434-0.0942c-0.3002-0.024-0.6114,0.0323-0.8683,0.2005
									c-0.0517,0.0323-0.1672,0.1672-0.23,0.1533c-0.0785-0.0129,0.0055-0.1053,0.0323-0.1321
									c0.1811-0.1838,0.4305-0.376,0.679-0.4489c0.3353-0.1025,0.6411,0.049,0.933,0.2032
									c0.1053,0.0536,0.2051,0.1108,0.3085,0.1672c0.0157,0.0111,0.0351,0.0194,0.0453,0.0351
									c0.0028,0.0028,0.0055,0.0055,0.0083,0.0083C16.5482,12.8514,16.5057,12.8754,16.4651,12.8754z"/>
							</g>
							<g id="XMLID_12250_">
								<path id="XMLID_12267_" d="M22.8407,16.95c-0.0323-0.0406-0.0647-0.0785-0.0998-0.1155
									c-0.0896-0.1035-0.1838-0.1894-0.279-0.2605c-0.2456-0.1783-0.3787-0.2162-0.8221-0.3455
									c-0.1838-0.0517-0.4406-0.1275-0.7833-0.2356c-0.8415-0.2623-1.3579-0.7353-1.5602-0.9487l5.1453-0.933l-5.3836-0.9736
									c0.5007-0.2032,1.0327-0.5164,1.5842-0.933c0.0379-0.0268,0.0757-0.0563,0.1108-0.0841
									c0.2596-0.2023,0.4628-0.4295,0.6845-0.7298c0.1108-0.1487,0.2272-0.3168,0.3566-0.5053
									c0.363-0.5219,1.0494-0.4683,1.5039-0.4305l0.3621,0.0268l-0.3113-0.1884c-0.2596-0.1543-0.5995-0.2707-0.9247-0.3279
									c-0.2402-0.0406-0.473-0.048-0.6651-0.0185c-0.303,0.0508-0.424,0.1164-0.8249,0.3381
									c-0.17,0.0942-0.4028,0.2217-0.7242,0.3889c-0.7787,0.4083-1.4789,0.4379-1.7736,0.4305l2.9791-4.2973l-4.494,3.1176
									c0.2217-0.5321,0.3843-1.1759,0.4794-1.9168c0.0619-0.4896-0.0111-0.9302-0.1357-1.6092
									c-0.0241-0.1321-0.0213-0.254,0.0027-0.3704c0.0055-0.0268,0.0139-0.0563,0.0222-0.0831
									c0.1182-0.3954,0.4757-0.6984,0.7298-0.9145l0.278-0.2374L17.944,4.8822c-0.5108,0.1247-1.0983,0.5034-1.3681,0.8794
									c-0.049,0.0674-0.0868,0.1238-0.1164,0.1838c-0.0222,0.0351-0.0406,0.073-0.0573,0.1108
									c-0.0563,0.1293-0.0998,0.278-0.1727,0.5265c-0.0536,0.1866-0.1266,0.4415-0.2356,0.787
									c-0.2623,0.8388-0.7381,1.3551-0.9515,1.5574l-0.5404-2.9818l-0.1358-0.7519l-0.254-1.4115l-0.2568,1.4115l-0.1349,0.7519
									l-0.582,3.2202c-0.2189-0.5358-0.5598-1.103-1.0188-1.6951c-0.3003-0.3898-0.6651-0.6494-1.2333-1.0411
									c-0.1653-0.1136-0.2734-0.2596-0.3409-0.4222c-0.0083-0.0222-0.0166-0.0406-0.0239-0.0619
									c-0.0731-0.2005-0.0924-0.4194-0.0897-0.6281c-0.146,0.1062-0.2891,0.2143-0.4323,0.3279
									C9.986,5.6961,9.9748,5.7506,9.9675,5.8014c-0.0084,0.049-0.0167,0.0979-0.0195,0.1441
									c-0.024,0.1866-0.0267,0.3649,0,0.5191c0.049,0.3021,0.1164,0.424,0.3381,0.8268c0.0924,0.1681,0.2217,0.4009,0.3898,0.7224
									c0.4055,0.7787,0.4379,1.4789,0.4295,1.7736l-3.258-2.2576c-0.1081,0.1025-0.217,0.2106-0.3196,0.3187l2.3962,3.4557
									C9.3938,11.0796,8.75,10.918,8.0063,10.8228c-0.4887-0.0591-0.9301,0.0139-1.6082,0.1386
									c-0.1302,0.024-0.2522,0.0185-0.3677-0.0055c-0.3002-0.0628-0.5496-0.2623-0.7519-0.4711
									c-0.073,0.0951-0.1432,0.1894-0.2115,0.2873c0.0711,0.146,0.157,0.2864,0.2522,0.4157
									c0.0508,0.073,0.1053,0.1413,0.1644,0.2032c0.0869,0.1025,0.1811,0.1921,0.2762,0.2596
									c0.2485,0.1783,0.3815,0.2162,0.8249,0.3436c0.1838,0.0536,0.4379,0.1266,0.7843,0.2346
									c0.8378,0.2651,1.357,0.739,1.5574,0.9524l-3.7319,0.6762l-1.4143,0.254l5.3864,0.9764
									c-0.5348,0.2162-1.103,0.557-1.6951,1.0161c-0.2596,0.2005-0.4628,0.4305-0.6873,0.7307
									c-0.0785,0.1053-0.1589,0.2217-0.2485,0.3483c-0.0351,0.0517-0.0702,0.1025-0.1081,0.157
									c-0.3593,0.5219-1.0466,0.4674-1.5011,0.4295l-0.3621-0.0296l0.3113,0.1894c0.2429,0.1487,0.557,0.2596,0.8646,0.3168
									c0.1598,0.0323,0.3224,0.048,0.4683,0.048c0.0915,0,0.1783-0.0055,0.2568-0.0185c0.3002-0.049,0.4212-0.1164,0.8249-0.3381
									c0.17-0.0924,0.4028-0.2189,0.7214-0.387c0.7815-0.4083,1.4817-0.4406,1.7764-0.4295l-2.9818,4.2963l4.4968-3.1204
									c-0.2245,0.533-0.3842,1.1759-0.4785,1.9195c-0.0627,0.4896,0.0102,0.9302,0.1349,1.6092
									c0.0241,0.1302,0.0212,0.254-0.0028,0.3704c-0.0055,0.0268-0.0139,0.0545-0.0212,0.0813
									c-0.1192,0.3944-0.4739,0.6947-0.7307,0.9164l-0.278,0.2356l0.3538-0.0868c0.3353-0.0831,0.703-0.2725,0.9921-0.4997
									c0.1543-0.1219,0.2845-0.2494,0.376-0.3787c0.0489-0.0674,0.0868-0.1275,0.1191-0.1866
									c0.0896-0.1598,0.1358-0.3159,0.2272-0.6355c0.0545-0.1866,0.1275-0.4406,0.2356-0.787
									c0.2623-0.8378,0.738-1.357,0.9515-1.5574l0.5385,2.98l0.3917,2.1662l0.3917-2.1662l0.582-3.2202
									c0.1081,0.267,0.2486,0.5432,0.4194,0.8268c0.17,0.2845,0.3677,0.5736,0.5977,0.8711
									c0.3021,0.3898,0.6679,0.6494,1.235,1.0411c0.1653,0.1136,0.2734,0.2596,0.3409,0.4194
									c0.0083,0.0212,0.0166,0.0406,0.024,0.0619c0.1219,0.3381,0.0896,0.727,0.0684,1.0198l-0.0305,0.3649l0.1894-0.3141
									c0.157-0.2596,0.2733-0.5977,0.3269-0.9247c0.0083-0.049,0.0166-0.097,0.0194-0.146c0.024-0.1866,0.024-0.3676,0-0.5191
									c-0.049-0.3002-0.1164-0.4221-0.3381-0.8249c-0.0942-0.17-0.2217-0.4-0.3889-0.7214
									c-0.4064-0.7787-0.4388-1.4826-0.4305-1.7745l4.2963,2.98l-3.1176-4.4968c0.533,0.2245,1.1768,0.3843,1.9177,0.4785
									c0.4924,0.0628,0.933-0.0102,1.611-0.1349c0.1302-0.024,0.2522-0.0212,0.3686,0.0028
									c0.4379,0.0942,0.7649,0.4785,0.9976,0.7547l0.2374,0.2753l-0.0859-0.3538C23.2602,17.6105,23.068,17.2401,22.8407,16.95z
									 M17.2946,15.2309c0.1164-0.3325,0.182-0.679,0.1894-1.0337h5.5166L17.2946,15.2309z M17.1163,15.2171
									c-0.0055,0.0166-0.0111,0.0323-0.0185,0.049c-0.0055,0.0157-0.0111,0.0296-0.0166,0.0453
									c-0.0083,0.0166-0.0157,0.036-0.0212,0.0517c-0.0083,0.0166-0.0139,0.0296-0.0194,0.0434
									c-0.0083,0.0157-0.0156,0.0323-0.024,0.049c-0.0166,0.0406-0.0351,0.0785-0.0573,0.1182
									c-0.1376,0.2707-0.3131,0.5191-0.5238,0.7408l-0.06,0.06c-0.0212,0.0212-0.0406,0.0406-0.0618,0.0619
									c-0.1627,0.1515-0.3354,0.2845-0.522,0.3981c-0.1081,0.0702-0.2217,0.1293-0.3381,0.1838
									c-0.0139,0.0074-0.0296,0.0157-0.0462,0.0212c-0.0129,0.0083-0.0296,0.0139-0.0434,0.0185
									c-0.0157,0.0083-0.0351,0.0139-0.0536,0.0222l-0.0462,0.0185l-0.0055,0.0028c-0.0129,0.0055-0.0268,0.0111-0.0406,0.0166
									c-0.3269,0.1192-0.6706,0.1838-1.0189,0.1949h-0.1737c-0.351-0.0111-0.6919-0.0757-1.0188-0.1949
									c-0.0167-0.0083-0.0324-0.0139-0.049-0.0194c-0.0139-0.0046-0.0296-0.0102-0.0433-0.0185
									c-0.0185-0.0055-0.038-0.0139-0.0537-0.0222c-0.0166-0.0046-0.0295-0.0129-0.0434-0.0185
									c-0.0166-0.0055-0.0323-0.0139-0.049-0.0212c-0.1164-0.0545-0.23-0.1136-0.3381-0.1838
									c-0.1866-0.1136-0.3593-0.2466-0.5191-0.3981c-0.0212-0.0212-0.0434-0.0406-0.0619-0.0619
									c-0.0212-0.0194-0.0406-0.0406-0.0591-0.06c-0.2411-0.254-0.4388-0.5432-0.5847-0.8591
									c-0.0084-0.0139-0.013-0.0305-0.0213-0.0462c-0.0083-0.0166-0.0139-0.0296-0.0194-0.0462
									c-0.0074-0.0157-0.0129-0.0351-0.0212-0.0517l-0.0212-0.0563c-0.0056-0.0111-0.0112-0.024-0.0167-0.0379
									c-0.1192-0.3242-0.1838-0.6679-0.1949-1.0198v-0.17c0.0028-0.0462,0.0055-0.0942,0.0084-0.1376
									c0.0212-0.3224,0.0924-0.6328,0.2078-0.9302c0.0028-0.0166,0.0111-0.0296,0.0166-0.0462
									c0.0028-0.0055,0.0028-0.0083,0.0055-0.0139c0.0055-0.0129,0.0111-0.0268,0.0157-0.0406
									c0.0305-0.0702,0.0628-0.1404,0.0979-0.2078c0.1543-0.2947,0.3483-0.5653,0.5866-0.8027
									c0.1727-0.1737,0.3677-0.3279,0.5756-0.4573c0.1246-0.0757,0.2576-0.146,0.3925-0.2051
									c0.0028-0.0028,0.0083-0.0055,0.0139-0.0083c0.0101-0.0028,0.0185-0.0083,0.0295-0.0139
									c0.0157-0.0055,0.0323-0.0139,0.0537-0.0212l0.0165-0.0055c0.0028-0.0028,0.0083-0.0028,0.0129-0.0055
									c0.0055-0.0028,0.0083-0.0055,0.0139-0.0055c0.1164-0.0462,0.2328-0.0841,0.3519-0.1136
									c0.2596-0.0674,0.5293-0.0998,0.8027-0.0998c0.1025,0,0.2061,0.0028,0.3085,0.0139
									c0.3058,0.0296,0.6051,0.1025,0.8923,0.2189c0.0157,0.0046,0.0351,0.0129,0.0508,0.0185l0.0167,0.0083
									c0.1459,0.0619,0.2864,0.1349,0.4193,0.2189c0.1838,0.1136,0.3538,0.2457,0.5137,0.3972
									c0.0212,0.0194,0.0406,0.0406,0.0618,0.06c0.0194,0.0212,0.0406,0.0406,0.06,0.0619c0.2402,0.254,0.4351,0.5404,0.581,0.86
									c0.0084,0.0139,0.0157,0.0296,0.024,0.0462c0.0055,0.0157,0.0111,0.0296,0.0194,0.0425
									c0.0055,0.0194,0.0129,0.0379,0.0212,0.0545l0.0166,0.0462l0.0055,0.0083c0.0047,0.0129,0.0074,0.0268,0.0129,0.0397
									c0.1219,0.3252,0.1866,0.6679,0.195,1.0198c0,0.0268,0.0027,0.0573,0.0027,0.0841c0,0.0296-0.0027,0.0591-0.0027,0.0859
									C17.3029,14.5492,17.2382,14.8901,17.1163,15.2171z M23.0006,14.0273H17.484c-0.0074-0.3566-0.073-0.703-0.1894-1.0327
									L23.0006,14.0273z M21.6537,10.7877c-0.1626,0.2328-0.3002,0.4305-0.4323,0.6032
									c-0.1838,0.2383-0.3603,0.4268-0.5736,0.5921c-0.0351,0.0296-0.073,0.0573-0.1081,0.0841
									c-0.6411,0.484-1.2516,0.8221-1.8142,1.0115l-1.2064-0.2199c0.133-0.0397,0.2623-0.0831,0.3981-0.1321l0.2891-0.1025
									c0.2457-0.0924,0.5136-0.2032,0.8351-0.3492c0.0517-0.0212,0.0979-0.0462,0.1441-0.0674
									c0.0453-0.0212,0.0914-0.0434,0.1321-0.0619c0.0434-0.0222,0.0868-0.0406,0.1276-0.0628
									c0.0775-0.0406,0.1505-0.0785,0.2235-0.1182c0.0379-0.0222,0.0739-0.0434,0.1091-0.0628
									c0.0886-0.0536,0.181-0.1108,0.278-0.1755c0.0379-0.024,0.0757-0.0517,0.1164-0.0785
									c0.0139-0.0111,0.0296-0.0185,0.0434-0.0296c0.0323-0.0222,0.0647-0.0462,0.0998-0.0702
									c0.0406-0.0296,0.0868-0.0628,0.133-0.0951c0.0268-0.0212,0.0536-0.0406,0.0831-0.0619
									c0.2032-0.146,0.4434-0.3242,0.7464-0.5515c0.3382-0.2513,0.6439-0.3954,0.909-0.4683
									C21.9863,10.4496,21.7969,10.5799,21.6537,10.7877z M20.2912,10.8284c0.3215-0.17,0.5542-0.2974,0.7243-0.3917
									c0.4027-0.2217,0.4978-0.2734,0.7712-0.3196c0.1755-0.0268,0.3889-0.0212,0.6078,0.0166
									c0.0194,0.0055,0.0379,0.0083,0.0573,0.0111c-0.3519,0.0397-0.7843,0.1884-1.2766,0.557
									c-0.4028,0.3021-0.6947,0.5191-0.933,0.6891c-0.2402,0.17-0.424,0.2919-0.6161,0.4
									c-0.0249,0.0139-0.049,0.0268-0.073,0.0406c-0.073,0.0406-0.146,0.0785-0.2272,0.1192
									c-0.0545,0.024-0.1081,0.0517-0.1681,0.0813c-0.0591,0.0268-0.1191,0.0563-0.1866,0.0859
									c-0.4489,0.2032-0.7916,0.3381-1.1113,0.4489c-0.1921,0.0656-0.3731,0.1219-0.5653,0.1811l0.9413-1.357l0.0841-0.1192
									h0.0028C18.5361,11.2884,19.3499,11.318,20.2912,10.8284z M18.028,11.3909l-0.8738,1.26
									c-0.1543-0.3159-0.3539-0.606-0.5977-0.8628l0.3981-0.3972l3.501-3.5019L18.028,11.3909z M20.3346,7.768l-3.8991,3.8991
									c-0.0434-0.0406-0.0868-0.0785-0.1302-0.1136c-0.0055-0.0055-0.0111-0.0083-0.0166-0.0139
									c-0.0046-0.0055-0.0129-0.0111-0.0185-0.0166c-0.0027-0.0028-0.0055-0.0046-0.0083-0.0074
									c-0.0462-0.0379-0.0915-0.073-0.1376-0.1062c-0.0083-0.0074-0.0138-0.0129-0.0212-0.0185
									c-0.0028-0.0028-0.0055-0.0028-0.0083-0.0055c-0.0379-0.0296-0.0785-0.0563-0.1192-0.0841
									c-0.0323-0.024-0.0674-0.0453-0.1052-0.0674c-0.0056-0.0028-0.0084-0.0055-0.0139-0.0083c0,0-0.0028,0-0.0028-0.0018
									c-0.0268-0.0139-0.0508-0.0305-0.0757-0.0434c-0.0056-0.0028-0.0084-0.0055-0.013-0.0083
									c-0.0628-0.0351-0.1275-0.0674-0.1921-0.0998l1.1676-0.812L20.3346,7.768z M17.0951,6.4295
									c0.121,0.6623,0.1921,1.0919,0.1349,1.5574c-0.1081,0.8517-0.3058,1.5704-0.5866,2.1329l-1.006,0.6947
									c0.2162-0.4157,0.4138-0.824,0.6623-1.4891c0.2762-0.7436,0.3325-1.0087,0.5007-2.1449
									c0.0185-0.1349,0.0406-0.2864,0.0647-0.4517c0.0111-0.0776,0.024-0.1533,0.0406-0.2263
									c0.0139-0.0711,0.0296-0.1386,0.049-0.2005c0-0.0028,0-0.0028,0.0018-0.0055c0.0166-0.0647,0.0379-0.1266,0.06-0.1866
									c0.0157-0.049,0.0351-0.097,0.0563-0.1404c0-0.0083,0.0055-0.0166,0.0083-0.024c0.0296-0.0684,0.0619-0.1302,0.0951-0.1866
									c-0.0249,0.0591-0.049,0.121-0.0628,0.1866c-0.0055,0.0157-0.0102,0.0323-0.0129,0.0508
									C17.0701,6.1321,17.0655,6.2752,17.0951,6.4295z M16.1593,7.4188c0.1082-0.3464,0.1811-0.6004,0.2356-0.787
									c0.073-0.2485,0.1136-0.3889,0.1644-0.5081c0.0268-0.0628,0.0573-0.1192,0.0979-0.1783
									c0.0157-0.0277,0.0352-0.0545,0.0563-0.0841c0.1136-0.157,0.2891-0.3168,0.4896-0.4517
									c-0.1108,0.1404-0.2189,0.3159-0.3085,0.5358c-0.0185,0.048-0.0406,0.1025-0.0563,0.1533
									c-0.0222,0.06-0.0406,0.1219-0.0573,0.1866c-0.0351,0.1302-0.0647,0.2679-0.0859,0.4194
									c-0.0249,0.1654-0.0462,0.3168-0.0656,0.4517c-0.1644,1.1196-0.2217,1.3819-0.4914,2.1089
									c-0.2735,0.7381-0.4896,1.1575-0.739,1.6304l-0.3188-1.768C15.2457,8.9874,15.8406,8.4331,16.1593,7.4188z M14.1991,5.2259
									l0.1293,0.7196l0.9007,4.9827c-0.2568-0.0887-0.5219-0.1487-0.7926-0.1727c-0.0785-0.0083-0.1589-0.0139-0.2374-0.0157
									V5.2259z M13.8961,5.9455l0.1293-0.7196v5.5138c-0.2596,0.0074-0.5108,0.0425-0.7593,0.1081
									c-0.0924,0.0212-0.1811,0.048-0.2707,0.0804L13.8961,5.9455z M10.7887,6.5699c0.5552,0.3834,0.909,0.6355,1.1953,1.006
									c0.5275,0.6808,0.8951,1.3274,1.0928,1.9251l-0.2162,1.2055c-0.1432-0.4508-0.2919-0.8813-0.5866-1.5251
									c-0.3658-0.7972-0.5062-0.9921-1.393-2.1791c-0.0139-0.0185-0.0267-0.0379-0.0434-0.0563
									c-0.2512-0.3381-0.3917-0.6438-0.4646-0.909c0.0028,0.0139,0.0074,0.024,0.0157,0.0379
									C10.4672,6.2614,10.5919,6.4341,10.7887,6.5699z M10.8266,7.9324c-0.1673-0.3215-0.2975-0.5542-0.389-0.7242
									c-0.2217-0.4037-0.2761-0.4979-0.3187-0.7713c-0.0139-0.0757-0.0194-0.1561-0.0194-0.2457
									c0-0.0462,0.0028-0.0951,0.0083-0.1432c0.0028-0.0323,0.0083-0.0674,0.0129-0.1025c0-0.0379,0.0083-0.0757,0.0139-0.1164
									c0.0028-0.0194,0.0055-0.0379,0.0111-0.0573c0.0055,0.0434,0.0111,0.0896,0.0212,0.1358
									c0.0028,0.0102,0.0055,0.024,0.0083,0.0379c0.0083,0.0397,0.0166,0.0804,0.0268,0.121
									c0.0111,0.0434,0.0249,0.0868,0.0406,0.133c0.0166,0.0508,0.0351,0.1053,0.0574,0.1561
									c0.0239,0.0545,0.048,0.109,0.0757,0.1653c0.0268,0.0545,0.0563,0.1108,0.0887,0.1681
									c0.0028,0.0046,0.0055,0.0102,0.0083,0.0157c0.024,0.0406,0.049,0.0841,0.0785,0.1275
									c0.0111,0.0185,0.024,0.0379,0.0379,0.0591c0.0351,0.0517,0.0702,0.1025,0.1108,0.157
									c0.0158,0.0185,0.0296,0.0379,0.0435,0.0563c0.8756,1.1741,1.0161,1.369,1.3735,2.1477
									c0.3298,0.7159,0.473,1.1676,0.6328,1.6757l-1.4789-1.0244c0.0046-0.0462,0.0074-0.1164,0.0074-0.2078
									C11.2782,9.3439,11.2164,8.6788,10.8266,7.9324z M12.6519,11.0695c-0.0804,0.0379-0.1561,0.0804-0.2319,0.1238
									c-0.06,0.0351-0.1164,0.0702-0.1737,0.1081l-0.0028,0.0028c-0.0379,0.0249-0.0785,0.0517-0.1164,0.0813
									c-0.0018,0.0028-0.0046,0.0028-0.0073,0.0055c-0.0084,0.0055-0.0139,0.0111-0.0222,0.0185
									c-0.0453,0.0333-0.0915,0.0684-0.1376,0.1062c-0.0028,0.0028-0.0055,0.0046-0.0083,0.0074
									c-0.0055,0.0055-0.0129,0.0111-0.0185,0.0166c-0.0055,0.0055-0.0111,0.0083-0.0165,0.0139
									c-0.0435,0.0351-0.0869,0.073-0.1293,0.1136l-0.2763-0.2762L7.8881,7.768L12.6519,11.0695z M7.7662,7.889l3.5019,3.5019
									l0.3972,0.3972c-0.2217,0.2356-0.4083,0.4979-0.5542,0.7843c-0.0139,0.0268-0.0268,0.0545-0.0406,0.0813l-0.1136-0.1653
									l-0.763-1.0974L7.7662,7.889z M5.9944,11.1231c0.1358,0.0296,0.279,0.0351,0.4332,0.0055
									c0.6651-0.1219,1.0946-0.1921,1.5574-0.1321c0.1081,0.0129,0.2106,0.0268,0.3131,0.0453
									c0.0785,0.0111,0.1515,0.0249,0.2245,0.0379c0.0083,0.0028,0.0166,0.0028,0.0249,0.0055
									c0.0323,0.0083,0.0674,0.0139,0.0998,0.0194c0.0323,0.0055,0.0647,0.0129,0.0979,0.0212
									c0.0213,0.0028,0.0398,0.0055,0.0591,0.0111c0.0269,0.0055,0.0563,0.0111,0.0841,0.0185
									c0.0757,0.0166,0.1487,0.0351,0.2162,0.0545c0.0111,0.0028,0.0212,0.0055,0.0323,0.0083
									c0.0166,0.0028,0.0296,0.0074,0.0434,0.0102c0.0841,0.0249,0.1617,0.049,0.2402,0.073
									c0.0841,0.0277,0.1682,0.0545,0.2466,0.0868c0.0028,0,0.0055,0.0028,0.0074,0.0028
									c0.157,0.0591,0.3058,0.1219,0.4443,0.1921l0.6974,1.006c-0.2088-0.1081-0.4166-0.2143-0.6549-0.3196
									c-0.2347-0.1081-0.5054-0.2189-0.8351-0.3427c-0.4166-0.157-0.6845-0.2439-1.0383-0.3168
									c-0.157-0.0351-0.3353-0.0647-0.5515-0.0998c-0.049-0.0083-0.0979-0.0166-0.1515-0.0249
									c-0.0378-0.0046-0.0785-0.0129-0.1192-0.0185c-0.0702-0.0111-0.1432-0.0212-0.2189-0.0323
									c-0.0924-0.0139-0.1893-0.0268-0.2947-0.0434c-0.0701-0.0111-0.1432-0.0212-0.2217-0.0323
									c-0.4166-0.06-0.7335-0.1755-0.9736-0.3113C5.8328,11.0796,5.9141,11.1074,5.9944,11.1231z M7.4198,12.0671
									c-0.3464-0.1108-0.6032-0.1838-0.7898-0.2383c-0.4405-0.1266-0.5459-0.1598-0.7676-0.3187
									c-0.0323-0.0249-0.0674-0.0517-0.0998-0.0813c-0.0139-0.0111-0.0277-0.024-0.0406-0.0379
									c-0.0896-0.0841-0.1783-0.1866-0.2596-0.2974c-0.0194-0.024-0.0351-0.049-0.0545-0.073
									c0.0351,0.0268,0.073,0.0536,0.1108,0.0813c0.0351,0.024,0.0703,0.0462,0.1108,0.0702
									c0.0545,0.0323,0.1108,0.0647,0.1737,0.0942c0.0406,0.0194,0.0831,0.0379,0.1293,0.0573
									c0.0545,0.0212,0.1081,0.0434,0.1653,0.0619c0.0028,0.0028,0.0084,0.0055,0.0102,0.0055
									c0.0434,0.0139,0.0896,0.0268,0.1358,0.0406c0.0406,0.0111,0.0785,0.0212,0.1219,0.0323
									c0.1053,0.024,0.2189,0.0462,0.3399,0.0647c1.5122,0.2217,1.744,0.254,2.5606,0.557
									c0.7362,0.2762,1.1575,0.4924,1.6313,0.7381l-1.7717,0.3224C8.9884,12.9807,8.4313,12.383,7.4198,12.0671z M10.93,12.9946
									c-0.1034,0.2836-0.1626,0.5783-0.1838,0.8813c-0.0027,0.049-0.0055,0.0998-0.0055,0.1515H5.224L10.93,12.9946z
									 M5.224,14.1973h5.5166c0.0083,0.3547,0.0702,0.7011,0.1894,1.0337l-1.7339-0.3141L5.224,14.1973z M6.5708,17.4368
									c0.0351-0.0536,0.0702-0.1025,0.1025-0.1515c0.1165-0.1672,0.2245-0.3187,0.327-0.4508
									c0.0758-0.1007,0.1515-0.1894,0.23-0.2734c0.0351-0.0406,0.073-0.0785,0.1108-0.1136
									c0.073-0.0757,0.1515-0.1432,0.2356-0.2078c0.679-0.5275,1.3246-0.8951,1.9223-1.0928l1.2036,0.2189
									c-0.1302,0.0406-0.2623,0.0841-0.3954,0.1302c-0.3242,0.1108-0.6706,0.2457-1.127,0.4536
									c-0.1136,0.0545-0.2162,0.1007-0.3113,0.146c-0.0563,0.0305-0.1136,0.0573-0.1644,0.0841
									c-0.0027,0-0.0027,0.0028-0.0055,0.0028c-0.06,0.0323-0.1192,0.0647-0.1783,0.097
									c-0.0545,0.0305-0.109,0.0628-0.1626,0.0979c-0.049,0.0296-0.097,0.0591-0.1487,0.0942
									c-0.024,0.0166-0.0517,0.0323-0.0757,0.0517c-0.0111,0.0055-0.0194,0.0111-0.0268,0.0157
									c-0.0406,0.0277-0.0813,0.0545-0.1247,0.0841c-0.0896,0.0647-0.1866,0.133-0.2947,0.2115
									c-0.097,0.073-0.206,0.1506-0.3242,0.2402c-0.0305,0.0212-0.0628,0.0462-0.0951,0.0702
									c-0.0997,0.073-0.2051,0.1543-0.3214,0.2411c-0.3382,0.2513-0.6439,0.3917-0.9118,0.4674
									C6.2383,17.7749,6.4277,17.6456,6.5708,17.4368z M9.6968,16.9454c-0.3519,0-1.0198,0.0619-1.7634,0.4508
									c-0.3214,0.1681-0.557,0.2974-0.7242,0.3926c-0.4028,0.2217-0.5007,0.2725-0.7703,0.3159
									c-0.1922,0.0323-0.4278,0.0194-0.6679-0.0268c0.3539-0.0379,0.7861-0.1866,1.2785-0.5542
									c0.1727-0.1302,0.3242-0.2411,0.46-0.3409c0.0323-0.0268,0.0674-0.0517,0.097-0.073
									c0.0406-0.0296,0.0785-0.0563,0.1136-0.0841c0.0268-0.0185,0.0545-0.0406,0.0785-0.0563
									c0.024-0.0194,0.049-0.0379,0.073-0.0545c0.024-0.0185,0.049-0.0351,0.0702-0.0508
									c0.0139-0.0111,0.0268-0.0222,0.0406-0.0296c0.1681-0.1192,0.3085-0.2143,0.4406-0.2956
									c0.0351-0.024,0.073-0.0453,0.1081-0.0647c0.1192-0.0702,0.2356-0.1349,0.3677-0.1995
									c0.0545-0.0277,0.1082-0.0545,0.1681-0.0813c0.0591-0.0277,0.1192-0.0573,0.1866-0.0868
									c0.4462-0.2051,0.7898-0.3381,1.1085-0.4489c0.1921-0.0647,0.376-0.1238,0.5681-0.1838l-0.944,1.3607l-0.0841,0.1182
									C9.8594,16.95,9.7882,16.9454,9.6968,16.9454z M9.9296,17.2179l0.267-0.3834l0.8739-1.2609
									c0.1515,0.3168,0.351,0.606,0.5977,0.8628l-0.3972,0.3981l-3.5018,3.501L9.9296,17.2179z M7.89,20.4575l3.6238-3.6229
									l0.2762-0.2762c0.062,0.0591,0.1266,0.1164,0.194,0.17c0.0462,0.0379,0.0924,0.073,0.1386,0.1062
									c0.0028,0.0018,0.0046,0.0018,0.0074,0.0046c0.0379,0.0305,0.0785,0.0573,0.1192,0.0841
									c0.0323,0.024,0.0674,0.0462,0.1052,0.0674c0.0056,0.0028,0.0083,0.0055,0.0139,0.0083c0,0,0.0028,0,0.0028,0.0028
									c0.0268,0.0139,0.0517,0.0296,0.0757,0.0434c0.0647,0.0379,0.1349,0.073,0.2051,0.1081L7.89,20.4575z M11.1295,21.796
									c-0.121-0.6623-0.194-1.0928-0.1349-1.5574c0.1081-0.8545,0.3058-1.5713,0.5866-2.1338l1.006-0.6974
									c-0.2162,0.4194-0.4166,0.8277-0.6623,1.49c-0.2217,0.6004-0.303,0.8896-0.4138,1.5741
									c-0.0434,0.2642-0.0896,0.5921-0.1515,1.0217c-0.0083,0.0619-0.0185,0.1247-0.0296,0.1811
									c-0.0138,0.0647-0.0268,0.1247-0.0434,0.1838c0,0.0055-0.0028,0.0111-0.0028,0.0139
									c-0.0111,0.0351-0.0185,0.0674-0.0296,0.0998c-0.0083,0.0277-0.0166,0.0517-0.024,0.0757
									c-0.0277,0.0813-0.0573,0.1598-0.0895,0.23c-0.0296,0.0674-0.062,0.1302-0.0943,0.1894
									c0.0268-0.0591,0.0481-0.1219,0.0647-0.1894c0.0055-0.0166,0.0112-0.0323,0.0129-0.049
									C11.1545,22.0934,11.1572,21.9503,11.1295,21.796z M12.6629,19.6215c-0.2078,0.2845-0.4379,0.6762-0.5977,1.1824
									c-0.1081,0.3455-0.1838,0.6023-0.2374,0.7889c-0.0139,0.0462-0.0249,0.0868-0.036,0.1247
									c-0.0018,0.0083-0.0045,0.0166-0.0074,0.024c-0.0139,0.0462-0.0249,0.0868-0.0379,0.1247
									c-0.0028,0.0083-0.0028,0.0139-0.0055,0.0194c-0.0112,0.0323-0.0195,0.0619-0.0296,0.0887
									c-0.0111,0.0323-0.0222,0.06-0.0305,0.0868c-0.0323,0.0785-0.0674,0.1432-0.1154,0.2162
									c-0.0167,0.0268-0.0352,0.0563-0.0574,0.0868c-0.0841,0.1164-0.2023,0.2346-0.3436,0.3455
									c-0.0453,0.0351-0.0942,0.0702-0.146,0.1062c0.0574-0.0711,0.1108-0.1487,0.1598-0.2356
									c0.0269-0.0434,0.0517-0.0896,0.0757-0.1376c0.0268-0.0517,0.0517-0.109,0.0757-0.1654
									c0.0185-0.049,0.0406-0.0998,0.0563-0.1543c0.0222-0.0591,0.0407-0.1192,0.0573-0.1838
									c0.0351-0.1266,0.0647-0.2679,0.0868-0.4194c0.0619-0.4295,0.1081-0.7565,0.1506-1.0217
									c0.109-0.6706,0.1866-0.9542,0.4064-1.539c0.2726-0.7381,0.4887-1.1574,0.7381-1.6332l0.3187,1.7717
									C13.0629,19.1652,12.8708,19.3407,12.6629,19.6215z M14.0255,22.9996l-0.1293-0.7224l-0.9034-4.9808
									c0.3325,0.1164,0.679,0.1783,1.0327,0.1866V22.9996z M14.3284,22.2773l-0.1293,0.7224V17.483
									c0.3538-0.0083,0.7002-0.0702,1.03-0.1866L14.3284,22.2773z M17.4359,21.6528c-0.5542-0.3815-0.909-0.6355-1.1953-1.006
									c-0.5274-0.679-0.8951-1.3246-1.0956-1.9223l0.2189-1.2036c0.073,0.2245,0.1432,0.4434,0.2356,0.6873
									c0.0868,0.2291,0.1894,0.4813,0.3242,0.7759c0.0083,0.0185,0.0166,0.0379,0.0277,0.0591
									c0.3677,0.8083,0.5108,0.9976,1.4327,2.2364c0.254,0.3381,0.3944,0.6411,0.4674,0.908
									c-0.0045-0.0129-0.0074-0.0268-0.0157-0.0379C17.7574,21.9632,17.6327,21.7877,17.4359,21.6528z M17.398,20.2894
									c0.1672,0.3252,0.2974,0.5579,0.3889,0.7279c0.2217,0.4,0.2734,0.4979,0.3196,0.7704
									c0.0129,0.073,0.0185,0.1487,0.0185,0.2328c0,0.0517-0.0028,0.0998-0.0083,0.1543c0,0.0055-0.0028,0.0129-0.0028,0.0185
									c0,0.0277-0.0055,0.0573-0.0074,0.0841c-0.0028,0.0379-0.0111,0.0785-0.0166,0.1192
									c-0.0027,0.0185-0.0083,0.0379-0.0111,0.0536c-0.0055-0.0425-0.0101-0.0887-0.0212-0.1349
									c-0.0028-0.0111-0.0055-0.024-0.0083-0.0379c-0.0082-0.0406-0.0157-0.0813-0.0267-0.1219
									c-0.0139-0.0434-0.0269-0.0887-0.0407-0.1349c-0.0194-0.0517-0.0379-0.1025-0.0591-0.1543
									c-0.0222-0.0536-0.0462-0.1081-0.0739-0.1626c-0.0268-0.0563-0.0563-0.1136-0.0914-0.17
									c-0.0166-0.0296-0.0351-0.0619-0.0591-0.0942c-0.0028-0.0055-0.0055-0.0083-0.0082-0.0139
									c-0.0028-0.0055-0.0056-0.0083-0.0084-0.0139c-0.0028-0.0074-0.0083-0.0129-0.0139-0.0212
									c-0.0129-0.0222-0.0268-0.0406-0.0406-0.0619c-0.0028-0.0055-0.0046-0.0083-0.0074-0.0139
									c-0.0305-0.0462-0.0628-0.0924-0.0979-0.1376c-0.9136-1.2249-1.0511-1.4143-1.417-2.2068
									c-0.0074-0.0212-0.0185-0.0434-0.0296-0.0647c-0.3058-0.679-0.4462-1.1168-0.6004-1.6092l1.4798,1.0244
									C16.9353,18.5352,16.9057,19.3518,17.398,20.2894z M15.5727,17.1533c0.0702-0.0351,0.1405-0.0702,0.2052-0.1081
									c0.0249-0.0139,0.0489-0.0296,0.0757-0.0434c0-0.0028,0.0028-0.0028,0.0028-0.0028
									c0.0055-0.0028,0.0083-0.0055,0.0139-0.0083c0.0378-0.0212,0.0729-0.0434,0.1052-0.0674
									c0.0406-0.0268,0.0813-0.0536,0.1192-0.0841c0.0028-0.0028,0.0055-0.0028,0.0083-0.0046
									c0.1155-0.0841,0.2263-0.1764,0.3325-0.2762l0.2754,0.2762l3.6238,3.6229L15.5727,17.1533z M20.4556,20.3356l-3.501-3.501
									l-0.3981-0.3981c0.2245-0.2346,0.4111-0.4997,0.557-0.787c0.0139-0.0268,0.0277-0.0508,0.0407-0.0785l0.8082,1.1685
									l0.0656,0.0951L20.4556,20.3356z M22.2302,17.0988c-0.1358-0.0268-0.2817-0.0323-0.436-0.0046
									c-0.6623,0.121-1.0919,0.194-1.5574,0.1349c-0.1053-0.0139-0.2106-0.0296-0.3131-0.0462
									c-0.0757-0.0111-0.1515-0.024-0.2245-0.0379c-0.049-0.0083-0.0979-0.0185-0.1431-0.0268
									c-0.0758-0.0166-0.1488-0.0323-0.2217-0.049c-0.0924-0.0212-0.1847-0.0462-0.2707-0.0702
									c-0.073-0.0185-0.1432-0.0406-0.2115-0.0619c-0.035-0.0111-0.0674-0.0222-0.0997-0.0323
									c-0.0675-0.0222-0.1322-0.0434-0.195-0.0684c-0.0028,0-0.0046-0.0018-0.0074-0.0018
									c-0.157-0.06-0.3057-0.1219-0.4434-0.1921l-0.7011-1.006c0.2115,0.1081,0.4166,0.2106,0.6549,0.3187
									c0.2374,0.1081,0.5053,0.2217,0.8378,0.3436c0.7815,0.2919,1.0355,0.3381,2.326,0.5275l0.0563,0.0083
									c0.0675,0.0102,0.1376,0.0185,0.2134,0.0323c0.4166,0.0591,0.7335,0.1755,0.9736,0.3104
									C22.3919,17.1449,22.3105,17.1182,22.2302,17.0988z M22.7031,17.1237c-0.0323-0.0249-0.0702-0.049-0.108-0.0702
									c-0.0518-0.0333-0.1082-0.0628-0.1682-0.0924c-0.035-0.0185-0.073-0.0351-0.1136-0.0517
									c-0.0157-0.0074-0.0323-0.0157-0.0507-0.0212c-0.0435-0.0185-0.0869-0.0351-0.1331-0.049
									c-0.0055-0.0028-0.0074-0.0028-0.0102-0.0046h-0.0028c-0.0572-0.0194-0.1164-0.0379-0.1792-0.0545
									c-0.0508-0.0139-0.1081-0.0268-0.1643-0.0406c-0.0814-0.0185-0.1654-0.0323-0.2541-0.0462
									c-0.0951-0.0129-0.1838-0.024-0.2707-0.0379c-1.2738-0.1866-1.5251-0.2319-2.29-0.5164
									c-0.7362-0.2753-1.1574-0.4924-1.6304-0.7408l1.7708-0.3187c0.1376,0.1644,0.6919,0.7621,1.7062,1.0789
									c0.3464,0.1081,0.6032,0.1838,0.7898,0.2374c0.4406,0.1275,0.5432,0.157,0.7676,0.3196
									c0.049,0.0323,0.0943,0.073,0.1405,0.1192c0.0277,0.024,0.0516,0.048,0.0784,0.0776
									c0.0434,0.0434,0.0868,0.0951,0.1275,0.146c0.0379,0.0462,0.073,0.0951,0.1053,0.1469
									C22.7789,17.1773,22.7438,17.1477,22.7031,17.1237z"/>
								<path id="XMLID_12266_" d="M15.7889,15.5958c-0.0074-0.0148-0.0139-0.0296-0.0231-0.0434
									c-0.0092-0.0148-0.0194-0.0286-0.0296-0.0425c-0.0222-0.0259-0.0453-0.0508-0.0692-0.0711
									c-0.0241-0.0203-0.049-0.037-0.0703-0.0499c-0.0212-0.0139-0.0406-0.0212-0.0545-0.0277
									c-0.0129-0.0065-0.0212-0.0092-0.0212-0.0092s0.0055,0.0065,0.0148,0.0185c0.0092,0.0111,0.0231,0.0259,0.0397,0.0443
									c0.0084,0.0092,0.0166,0.0185,0.0269,0.0286c0.0101,0.0092,0.0185,0.0212,0.0286,0.0314
									c0.0102,0.0111,0.0203,0.0231,0.0305,0.0351c0.0102,0.0111,0.0203,0.0231,0.0296,0.036
									c0.0203,0.0231,0.0379,0.0499,0.0536,0.0739c0.0157,0.024,0.0296,0.048,0.0388,0.0693
									c0.0203,0.0425,0.0268,0.0757,0.0268,0.0757s0.0037-0.0074,0.0055-0.0231c0.0028-0.0139,0.0037-0.036,0-0.0619
									C15.812,15.654,15.8027,15.6254,15.7889,15.5958z"/>
								<path id="XMLID_12265_" d="M14.067,16.1168c0.0296-0.0009,0.06-0.0009,0.0896,0c0.1053,0.0018,0.3723-0.0018,0.5727-0.0924
									c0.2559-0.1145,0.3834-0.2762,0.6836-0.3335c0,0-0.0591,0-0.1561,0.0102c-0.145,0.0157-0.3741,0.0554-0.6115,0.1589
									c-0.1681,0.0573-0.3981,0.061-0.5339,0.061c-0.1348,0-0.3649-0.0037-0.533-0.061
									c-0.2374-0.1035-0.4665-0.1432-0.6124-0.1589c-0.0951-0.0102-0.1552-0.0102-0.1552-0.0102
									c0.2993,0.0573,0.4277,0.2189,0.6836,0.3335C13.6957,16.115,13.9617,16.1187,14.067,16.1168z"/>
								<path id="XMLID_12261_" d="M16.3025,13.3216c-0.0185-0.024-0.4111-0.3732-0.7972-0.4083
									c-0.387-0.0323-0.5552,0.0563-0.7011,0.1811c-0.146,0.1247-0.1025,0.2272-0.1025,0.2272s0.2088-0.1783,0.3196-0.2272
									c0.0028,0,0.0028,0,0.0046,0c-0.0074,0.0757,0.0249,0.2088,0.0628,0.2734c0.0323,0.0619,0.17,0.2429,0.3382,0.2707
									c-0.1276,0.0102-0.2356-0.0166-0.3465-0.0813c-0.0591-0.0351-0.1246-0.073-0.1727-0.1219
									c-0.0139-0.0139-0.0305-0.0212-0.049-0.0268c-0.0138-0.0028-0.0296-0.0028-0.0434,0.0055
									c-0.0083,0.0018-0.0157,0.0102-0.0185,0.0185c-0.0083,0.0166-0.0055,0.0379,0.0028,0.0545
									c0.0212,0.0379,0.0619,0.073,0.097,0.097c0.073,0.0545,0.1644,0.0896,0.2513,0.1108
									c0.2272,0.0619,0.4462,0.0296,0.6522-0.0841c0.3242-0.1838,0.2836-0.2485,0.2485-0.2245c0,0-0.0268,0.0222-0.073,0.0517
									c0.0083-0.0462,0.0083-0.0924,0-0.1404c-0.0055-0.0249-0.0111-0.049-0.0194-0.0702
									c-0.0027-0.0111-0.0129-0.0573-0.024-0.0628c0.0545,0.0194,0.0998,0.0517,0.1515,0.0785
									c0.0462,0.024,0.0896,0.0462,0.1321,0.0674c0.0222,0.0111,0.06,0.0379,0.0841,0.0351
									C16.3191,13.3428,16.3137,13.3354,16.3025,13.3216z M15.9432,13.4564c-0.0813,0.0517-0.2088,0.1164-0.3575,0.1543
									c0.0055-0.0028,0.0111-0.0055,0.0167-0.0083c0.2004-0.1182,0.1274-0.4379,0.0969-0.5376
									c0.0111,0.0028,0.0194,0.0055,0.0277,0.0055c0.048,0.0157,0.1182,0.0508,0.1968,0.0887
									C15.9561,13.2514,15.9487,13.4056,15.9432,13.4564z"/>
								<path id="XMLID_12260_" d="M14.5141,12.9733c0.0647,0.012,0.1783-0.1219,0.2319-0.1561
									c0.256-0.1653,0.5653-0.2235,0.8674-0.1977c0.1506,0.0129,0.2993,0.0453,0.4425,0.0942
									c0.0711,0.024,0.1404,0.0517,0.2088,0.0831c0.0647,0.0305,0.1256,0.0776,0.1995,0.0785c0.0406,0,0.085-0.024,0.0563-0.0711
									c-0.0028-0.0028-0.0036-0.0055-0.0065-0.0083c-0.012-0.0148-0.0305-0.0249-0.048-0.0342
									c-0.1016-0.0554-0.2023-0.1145-0.3058-0.1681c-0.2919-0.1533-0.5986-0.3039-0.9348-0.2032
									c-0.2485,0.0748-0.4961,0.267-0.678,0.4489C14.5197,12.868,14.4365,12.9576,14.5141,12.9733z"/>
								<path id="XMLID_12259_" d="M13.667,15.6088c0.1626-0.0065,0.3399,0.0185,0.412,0.0305c0.0222,0.0028,0.0443,0.0028,0.0656,0
									c0.0721-0.012,0.2494-0.037,0.412-0.0305c0.1774,0.0074,0.2005,0.0554,0.6928,0.0083
									c0.0776-0.0074,0.1663-0.0176,0.2688-0.0296c0,0-0.4046-0.0499-0.6993-0.1506c-0.1857-0.0637-0.387-0.0739-0.5801-0.036
									c-0.0259,0.0046-0.0527,0.0102-0.0813,0.0176c-0.0305,0.0065-0.0637,0.0065-0.0942-0.0009
									c-0.0296-0.0065-0.0582-0.0129-0.0841-0.0185c-0.1912-0.037-0.3898-0.0249-0.5736,0.0379
									c-0.2956,0.1007-0.7002,0.1506-0.7002,0.1506c0.1025,0.012,0.1912,0.0222,0.2679,0.0296
									C13.4666,15.6642,13.4906,15.6161,13.667,15.6088z"/>
								<path id="XMLID_12258_" d="M14.4153,16.4872c0.0185,0.0018,0.0296,0.0028,0.0296,0.0028s-0.0102-0.0055-0.0268-0.0139
									c-0.0165-0.0083-0.0406-0.0203-0.072-0.0296c-0.0149-0.0065-0.0324-0.0111-0.0509-0.0139
									c-0.0176-0.0046-0.036-0.0092-0.0563-0.012c-0.0406-0.0065-0.0841-0.0092-0.1275-0.0083
									c-0.0212,0-0.0424,0.0018-0.0637,0.0028c-0.0212,0.0009-0.0425,0.0055-0.0618,0.0083
									c-0.0398,0.0065-0.0767,0.0148-0.1072,0.0249c-0.0619,0.0194-0.0998,0.0416-0.0998,0.0416s0.0425-0.0037,0.1062-0.0092
									c0.0305-0.0028,0.0674-0.0046,0.1062-0.0074c0.0388-0.0009,0.0804-0.0046,0.121-0.0037
									c0.0831-0.0018,0.1644,0.0028,0.2272,0.0083C14.3709,16.4808,14.3968,16.4845,14.4153,16.4872z"/>
								<path id="XMLID_12257_" d="M13.6348,14.334c0,0-0.2116,0.0656-0.2689,0.4064c-0.0813,0.0296-0.1589,0.0517-0.2309,0.1016
									c-0.0693,0.0471-0.133,0.1035-0.1875,0.1672c0.0102-0.012,0.0462-0.0203,0.061-0.0268
									c0.0185-0.0083,0.036-0.0176,0.0545-0.0259c0.0397-0.0176,0.0794-0.0351,0.1192-0.0508
									c0.0932-0.037,0.1902-0.0619,0.2891-0.0693c0.0915-0.0065,0.1821,0.0018,0.2716,0.0185c0,0,0.1358,0.1543,0.3686,0.1543
									c0.2337,0,0.3704-0.1543,0.3704-0.1543c0.0887-0.0166,0.1792-0.0249,0.2697-0.0185
									c0.1007,0.0074,0.1977,0.0323,0.2901,0.0693c0.0406,0.0157,0.0794,0.0333,0.1192,0.0508
									c0.0185,0.0083,0.037,0.0176,0.0554,0.0259c0.0148,0.0065,0.0499,0.0148,0.06,0.0268
									c-0.0554-0.0637-0.1182-0.1201-0.1875-0.1672c-0.0711-0.0499-0.1496-0.0721-0.2309-0.1016
									c-0.0573-0.3409-0.2688-0.4064-0.2688-0.4064c0.327,0.4887-0.1293,0.3917-0.1829,0.3381
									c0.0139,0.17-0.1783,0.1829-0.2596,0.1801c-0.0231-0.0009-0.0462-0.0009-0.0693,0
									c-0.0813,0.0028-0.2734-0.0102-0.2596-0.1801C13.7641,14.7257,13.3086,14.8226,13.6348,14.334z"/>
								<path id="XMLID_12256_" d="M12.6279,15.3889c-0.0213,0.0129-0.0472,0.0296-0.0703,0.0499
									c-0.0249,0.0203-0.048,0.0453-0.0693,0.0711c-0.0111,0.0139-0.0212,0.0277-0.0296,0.0425
									c-0.0102,0.0139-0.0166,0.0286-0.024,0.0434c-0.0139,0.0296-0.0222,0.0582-0.0259,0.0841
									c-0.0046,0.0259-0.0037,0.048-0.0009,0.0619c0.0028,0.0157,0.0055,0.0231,0.0055,0.0231s0.0065-0.0333,0.0268-0.0757
									c0.0102-0.0212,0.0231-0.0453,0.0388-0.0693c0.0166-0.024,0.0333-0.0508,0.0536-0.0739
									c0.0092-0.0129,0.0194-0.0249,0.0296-0.036c0.0111-0.012,0.0195-0.024,0.0305-0.0351
									c0.0102-0.0102,0.0194-0.0222,0.0286-0.0314c0.0102-0.0102,0.0185-0.0194,0.0268-0.0286
									c0.0157-0.0185,0.0305-0.0333,0.0397-0.0443c0.0092-0.012,0.0148-0.0185,0.0148-0.0185s-0.0083,0.0028-0.0212,0.0092
									C12.6685,15.3677,12.6491,15.375,12.6279,15.3889z"/>
								<path id="XMLID_12252_" d="M13.136,13.3678c0.0378-0.0647,0.0683-0.1977,0.0627-0.2734c0.0028,0,0.0028,0,0.0028,0
									c0.1136,0.049,0.3187,0.2272,0.3187,0.2272s0.0462-0.1025-0.0998-0.2272c-0.1459-0.1247-0.3168-0.2134-0.703-0.1811
									c-0.3843,0.0351-0.7769,0.3843-0.7981,0.4083c-0.0111,0.0139-0.0139,0.0212,0.0028,0.024
									c0.024,0.0028,0.0619-0.024,0.0841-0.0351c0.0462-0.0212,0.0887-0.0434,0.1349-0.0674
									c0.049-0.0268,0.0951-0.0591,0.1515-0.0785c-0.0111,0.0055-0.0212,0.0517-0.024,0.0628
									c-0.0083,0.0212-0.0166,0.0453-0.0193,0.0702c-0.0084,0.048-0.0084,0.0942,0,0.1404
									c-0.0462-0.0296-0.0731-0.0517-0.0731-0.0517c-0.0351-0.024-0.0757,0.0406,0.2486,0.2245
									c0.2059,0.1136,0.4249,0.146,0.6493,0.0841c0.0897-0.0212,0.1811-0.0563,0.254-0.1108
									c0.0323-0.024,0.0758-0.0591,0.0979-0.097c0.0074-0.0166,0.0102-0.0379,0.0018-0.0545
									c-0.0046-0.0083-0.0102-0.0166-0.0185-0.0185c-0.0139-0.0083-0.0296-0.0083-0.0434-0.0055
									c-0.0185,0.0055-0.0351,0.0129-0.049,0.0268c-0.048,0.049-0.1155,0.0868-0.1755,0.1219
									c-0.1081,0.0647-0.2162,0.0915-0.3436,0.0813C12.9659,13.6107,13.1008,13.4296,13.136,13.3678z M12.2787,13.4564
									c-0.0028-0.0508-0.0129-0.2051,0.0222-0.2974c0.0757-0.0379,0.1487-0.073,0.1949-0.0887
									c0.0102,0,0.0185-0.0028,0.0268-0.0055c-0.0268,0.0998-0.1025,0.4194,0.0998,0.5376
									c0.0056,0.0028,0.0111,0.0055,0.0139,0.0083C12.4902,13.5728,12.3627,13.5082,12.2787,13.4564z"/>
								<path id="XMLID_12251_" d="M12.1678,12.7137c0.1432-0.049,0.2919-0.0813,0.4425-0.0942
									c0.3011-0.0259,0.6124,0.0323,0.8683,0.1977c0.0517,0.0342,0.1672,0.1681,0.2309,0.1561
									c0.0776-0.0157-0.0046-0.1053-0.0333-0.1339c-0.182-0.182-0.4295-0.3741-0.678-0.4489
									c-0.3353-0.1007-0.642,0.0499-0.9348,0.2032c-0.1035,0.0536-0.2041,0.1127-0.3067,0.1681
									c-0.0166,0.0092-0.0351,0.0194-0.0471,0.0342c-0.0018,0.0028-0.0046,0.0055-0.0065,0.0083
									c-0.0286,0.0471,0.0157,0.0711,0.0564,0.0711c0.0729-0.0009,0.1348-0.048,0.1994-0.0785
									C12.0275,12.7655,12.0967,12.7378,12.1678,12.7137z"/>
							</g>
						</g>
					</g>
				</g>
			</g>
		</g>
	</g>
</g>
</svg>
