<?xml version="1.0" encoding="utf-8"?>
<!-- Generator: Adobe Illustrator 27.7.0, SVG Export Plug-In . SVG Version: 6.00 Build 0)  -->
<!DOCTYPE svg PUBLIC "-//W3C//DTD SVG 1.1//EN" "http://www.w3.org/Graphics/SVG/1.1/DTD/svg11.dtd" [
	<!ENTITY ns_extend "http://ns.adobe.com/Extensibility/1.0/">
	<!ENTITY ns_ai "http://ns.adobe.com/AdobeIllustrator/10.0/">
	<!ENTITY ns_graphs "http://ns.adobe.com/Graphs/1.0/">
	<!ENTITY ns_vars "http://ns.adobe.com/Variables/1.0/">
	<!ENTITY ns_imrep "http://ns.adobe.com/ImageReplacement/1.0/">
	<!ENTITY ns_sfw "http://ns.adobe.com/SaveForWeb/1.0/">
	<!ENTITY ns_custom "http://ns.adobe.com/GenericCustomNamespace/1.0/">
	<!ENTITY ns_adobe_xpath "http://ns.adobe.com/XPath/1.0/">
]>
<svg version="1.1" id="Layer_1" xmlns:x="&ns_extend;" xmlns:i="&ns_ai;" xmlns:graph="&ns_graphs;"
	 xmlns="http://www.w3.org/2000/svg" xmlns:xlink="http://www.w3.org/1999/xlink" x="0px" y="0px" width="50px" height="50px"
	 viewBox="0 0 50 50" style="enable-background:new 0 0 50 50;" xml:space="preserve">
<style type="text/css">
	.st0{fill:#0398B4;}
	.st1{fill:#19B43D;}
	.st2{fill:#FFFFFF;}
	.st3{fill:#CD1225;}
	.st4{fill:#D1D3D4;}
	.st5{fill:none;}
</style>
<metadata>
	<sfw  xmlns="&ns_sfw;">
		<slices></slices>
		<sliceSourceBounds  bottomLeftOrigin="true" height="50" width="50" x="0" y="0"></sliceSourceBounds>
	</sfw>
</metadata>
<g id="XMLID_10025_">
	<g id="XMLID_10040_">
		<path id="XMLID_10045_" class="st0" d="M47.8510971,16.1657372H2.1489763
			C5.7000489,7.0081439,14.6036711,0.4999994,24.9990768,0.4999994
			C35.3964043,0.4999994,44.2999496,7.0081439,47.8510971,16.1657372z"/>
		<path id="XMLID_10044_" class="st1" d="M47.8482513,33.8342628C44.2999496,42.9918556,35.3964043,49.5,24.9990768,49.5
			c-10.3954058,0-19.2990284-6.5081444-22.8473282-15.6657372H47.8482513z"/>
		<path id="XMLID_10043_" class="st2" d="M49.5,24.9981518c0,2.6143436-0.4110146,5.1326122-1.1759911,7.4984531H1.6759926
			C0.9110893,30.130764,0.5,27.6124954,0.5,24.9981518c0-2.6134186,0.4110893-5.1326122,1.1759926-7.49753h46.6480179
			C49.0889854,19.8655396,49.5,22.3847332,49.5,24.9981518z"/>
		<path id="XMLID_10042_" class="st3" d="M48.3240089,17.5006218H1.6759926
			c0.1431885-0.4508133,0.2993833-0.8970051,0.4729837-1.3348846h45.7021217
			C48.0219269,16.6036167,48.1808205,17.0498085,48.3240089,17.5006218z"/>
		<path id="XMLID_10041_" class="st3" d="M48.3240089,32.4966049c-0.1431885,0.4508133-0.3020821,0.897007-0.4757576,1.3376579
			H2.1517477c-0.1763718-0.4406509-0.3325666-0.8868446-0.4757551-1.3376579H48.3240089z"/>
	</g>
	<g id="XMLID_10026_">
		<path id="XMLID_10039_" class="st2" d="M19.1246567,14.6276159c-2.7307415,0-4.9441586-2.2134161-4.9441586-4.9441576
			s2.2134171-4.9450817,4.9441586-4.9450817c0.0369511,0,0.072979,0.0046191,0.1090069,0.0055428
			c-0.5375748-0.1866069-1.1122513-0.2928433-1.7127171-0.2928433c-2.8895617,0-5.2323828,2.3427472-5.2323828,5.2323823
			c0,2.888711,2.3428211,5.2314577,5.2323828,5.2314577c0.6004658,0,1.1751423-0.1062365,1.7127171-0.2928429
			C19.1976357,14.6229963,19.1616077,14.6276159,19.1246567,14.6276159z"/>
		<polygon id="XMLID_10038_" class="st2" points="28.5630817,12.5795593 28.811657,13.3463106 29.6180573,13.3463106 
			28.9658566,13.8202181 29.2152824,14.5878925 28.5630817,14.1139851 27.9099579,14.5878925 28.1593838,13.8202181 
			27.5071831,13.3463106 28.3136578,13.3463106 		"/>
		<polygon id="XMLID_10037_" class="st2" points="24.5160046,12.5795593 24.7654305,13.3463106 25.5718307,13.3463106 
			24.9196301,13.8202181 25.1681309,14.5878925 24.5160046,14.1139851 23.8637314,14.5878925 24.1131554,13.8202181 
			23.4609547,13.3463106 24.2674294,13.3463106 		"/>
		<polygon id="XMLID_10036_" class="st2" points="20.4697762,12.5795593 20.719202,13.3463106 21.5256023,13.3463106 
			20.8724785,13.8202181 21.1219025,14.5878925 20.4697762,14.1139851 19.817503,14.5878925 20.0669289,13.8202181 
			19.413805,13.3463106 20.2203522,13.3463106 		"/>
		<polygon id="XMLID_10035_" class="st2" points="32.6093102,12.5795593 32.8587341,13.3463106 33.6642838,13.3463106 
			33.012085,13.8202181 33.2615089,14.5878925 32.6093102,14.1139851 31.9571095,14.5878925 32.2056122,13.8202181 
			31.5534096,13.3463106 32.3598862,13.3463106 		"/>
		<polygon id="XMLID_10034_" class="st2" points="36.6555367,12.5795593 36.9049606,13.3463106 37.7114372,13.3463106 
			37.0592346,13.8202181 37.3077354,14.5878925 36.6555367,14.1139851 36.0033379,14.5878925 36.2527618,13.8202181 
			35.600563,13.3463106 36.4061127,13.3463106 		"/>
		<polygon id="XMLID_10033_" class="st2" points="28.5630817,8.5157795 28.811657,9.2825308 29.6180573,9.2825308 
			28.9658566,9.7564383 29.2152824,10.5231886 28.5630817,10.0492811 27.9099579,10.5231886 28.1593838,9.7564383 
			27.5071831,9.2825308 28.3136578,9.2825308 		"/>
		<polygon id="XMLID_10032_" class="st2" points="24.5160046,8.5157795 24.7654305,9.2825308 25.5718307,9.2825308 
			24.9196301,9.7564383 25.1681309,10.5231886 24.5160046,10.0492811 23.8637314,10.5231886 24.1131554,9.7564383 
			23.4609547,9.2825308 24.2674294,9.2825308 		"/>
		<polygon id="XMLID_10031_" class="st2" points="32.6093102,8.5157795 32.8587341,9.2825308 33.6642838,9.2825308 
			33.012085,9.7564383 33.2615089,10.5231886 32.6093102,10.0492811 31.9571095,10.5231886 32.2056122,9.7564383 
			31.5534096,9.2825308 32.3598862,9.2825308 		"/>
		<polygon id="XMLID_10030_" class="st2" points="36.6555367,8.5157795 36.9049606,9.2825308 37.7114372,9.2825308 
			37.0592346,9.7564383 37.3077354,10.5231886 36.6555367,10.0492811 36.0033379,10.5231886 36.2527618,9.7564383 
			35.600563,9.2825308 36.4061127,9.2825308 		"/>
		<polygon id="XMLID_10029_" class="st2" points="28.5630817,4.451076 28.811657,5.2178268 29.6180573,5.2178268 
			28.9658566,5.6926579 29.2152824,6.4594092 28.5630817,5.9855018 27.9099579,6.4594092 28.1593838,5.6926579 
			27.5071831,5.2178268 28.3136578,5.2178268 		"/>
		<polygon id="XMLID_10028_" class="st2" points="32.6093102,4.451076 32.8587341,5.2178268 33.6642838,5.2178268 
			33.012085,5.6926579 33.2615089,6.4594092 32.6093102,5.9855018 31.9571095,6.4594092 32.2056122,5.6926579 31.5534096,5.2178268 
			32.3598862,5.2178268 		"/>
		<polygon id="XMLID_10027_" class="st2" points="36.6555367,4.451076 36.9049606,5.2178268 37.7114372,5.2178268 
			37.0592346,5.6926579 37.3077354,6.4594092 36.6555367,5.9855018 36.0033379,6.4594092 36.2527618,5.6926579 35.600563,5.2178268 
			36.4061127,5.2178268 		"/>
	</g>
</g>
<g>
	<path class="st4" d="M25,50C11.1999998,50,0,38.7999992,0,25S11.1999998,0,25,0s25,11.1999998,25,25S38.7999992,50,25,50z M25,0.5
		C11.5,0.5,0.5,11.5,0.5,25s11,24.5,24.5,24.5s24.5-11,24.5-24.5S38.5,0.5,25,0.5z"/>
</g>
<circle class="st5" cx="25" cy="25" r="24.7999992"/>
</svg>
