<?xml version="1.0" encoding="UTF-8"?><svg id="Layer_1" xmlns="http://www.w3.org/2000/svg" viewBox="0 0 406.45 340.16"><defs><style>.cls-1{fill:#fff;}</style></defs><path class="cls-1" d="M63.61,122.31H350.31c10.3,0,18.65,12.87,18.65,28.76v125.97c0,15.88-8.35,28.76-18.65,28.76H63.61c-10.3,0-18.65-12.87-18.65-28.76v-125.97c0-15.88,8.35-28.76,18.65-28.76Z"/><path class="cls-1" d="M406.43,77.2c-.04-13.3-6.86-20.95-20.63-23.06h-41.78c.26-10.27,.24-20.56-.01-30.84h0c-.19-7.61-6.47-13-15.67-14.11-1.3-.15-2.6-.33-4.22-.52h-15.06s0,.08,0,.08c-2.46,.1-4.56,.26-6.64,.26-41.05,.02-82.09,.01-123.15,.02-8.52,0-12.26,1.92-12.18,6.26,.1,4.28,3.72,6.06,12.42,6.06h141.65c5.23,0,7.85,2.08,7.86,6.22,0,8.18-.13,16.37,.05,24.55,.02,.8-.06,1.47-.25,2.02H84.92c-.2-.61-.28-1.35-.25-2.25,.22-8.6,.31-17.19-.04-25.79-.14-3.97,1.8-4.84,6.17-4.81,16.18,.14,32.37,.05,48.55,.05,1.51,0,3.01,.04,4.51-.03,5.11-.27,8.21-2.68,8.11-6.26-.09-3.4-3.11-5.8-7.93-5.97-4.84-.16-9.69-.05-14.52-.05-8-.01-16-.01-24.57-.01-.01-.12-.01-.24-.02-.36h-15.85c-.75,.16-1.26,.3-1.77,.36-12.6,1.53-17.56,6.24-17.57,16.74-.01,8.87-.03,17.74,0,26.61,0,.61,.02,1.2,.07,1.77H27.57c-11.65,2.07-19.56,9.78-19.81,20.12h0c-.39,15.06-.37,30.15,0,45.22,.27,11.05,9.41,18.88,22.78,20.49,1.89,.22,3.77,.48,6.12,.76v158.06c0,16.91,9.62,24.88,30.09,24.88H347.58c20.34,0,29.84-7.74,29.84-24.34,.01-23.54,.02-47.08,.01-70.62h-.01c.02-26.92,.02-53.83,.02-80.75v-7.03c1.61-.33,2.51-.6,3.44-.72,18.31-2.23,25.53-9.08,25.55-24.34,.02-12.89,.04-25.78,0-38.67Zm-30.61,45.18c-23.52-.21-47.05-.08-70.57-.08-2.2,0-4.37-.06-6.55,.05-7.43,.4-11.94,3.89-11.8,9.09,.14,4.94,4.51,8.42,11.53,8.68,7.04,.24,14.08,.08,21.11,.08,11.63,.02,23.25,.02,35.71,.02,.16,2.73,.35,4.67,.35,6.63,.02,27.29-.04,54.58,0,81.86h-.02c0,23.17,.04,46.34,.2,69.51,.04,6.06-2.2,7.73-9.53,7.71-92.64-.19-185.29-.13-277.95-.13-6.47,0-9.71-2.64-9.74-7.93V140.62c3.58-.14,6.63-.38,9.66-.38,59.66-.03,119.33-.02,178.99-.03,12.38,0,17.83-2.8,17.71-9.09-.14-6.22-5.4-8.81-18.06-8.81H40.96c-7.61,0-11.42-3.01-11.43-9.04,0-11.89,.19-23.8-.08-35.69-.1-4.64,1.92-6.25,7.62-6.23,113.26,.08,226.52,.1,339.79-.02,6.1-.02,7.99,1.72,7.85,6.58h0c-.31,12.49-.45,24.99,.06,37.48,.21,5.77-2.62,7.04-8.96,6.99Z"/></svg>