<?xml version="1.0" encoding="UTF-8"?><svg id="Layer_1" xmlns="http://www.w3.org/2000/svg" viewBox="0 0 200 200"><defs><style>.cls-1{stroke-width:0px;}</style></defs><path class="cls-1" d="m20.68,179.27h158.62c0-.85,0-1.68,0-2.5,0-25.43,0-50.85,0-76.28,0-5.8,3.91-10.28,9.32-10.8,6.06-.58,11.28,4.07,11.34,10.28.08,7.76.02,15.51.02,23.27,0,19.39,0,38.79,0,58.18,0,11.37-7.2,18.58-18.55,18.58-54.3,0-108.6,0-162.9,0-11.36,0-18.55-7.21-18.55-18.58,0-27.01-.02-54.01,0-81.02,0-7.4,6.62-12.4,13.45-10.27,4.41,1.38,7.22,5.35,7.22,10.36.02,15.3,0,30.6,0,45.9,0,10.13,0,20.25,0,30.38v2.5Z"/><path class="cls-1" d="m110.34,123.18c.83-.77,1.35-1.23,1.84-1.71,6.51-6.5,12.97-13.04,19.53-19.48,3.63-3.57,8.98-4.03,13.04-1.31,4.01,2.68,5.73,7.92,3.83,12.35-.63,1.48-1.64,2.89-2.78,4.03-12.66,12.74-25.35,25.44-38.08,38.11-4.72,4.7-10.75,4.68-15.47-.02-12.78-12.72-25.53-25.47-38.25-38.25-4.42-4.44-4.48-10.86-.26-15,4.14-4.07,10.47-3.95,14.86.39,6.44,6.36,12.81,12.79,19.21,19.19.49.49,1.01.94,1.83,1.69v-2.68c0-36.49,0-72.99,0-109.48,0-6.38,4.48-11.05,10.46-10.99,5.39.05,9.88,4.33,10.19,9.73.05.86.03,1.72.03,2.59,0,36.06,0,72.12,0,108.18v2.68Z"/></svg>