<?xml version="1.0" encoding="UTF-8"?><svg id="Layer_1" xmlns="http://www.w3.org/2000/svg" viewBox="0 0 200 200"><defs><style>.cls-1{fill:#f60;stroke-width:0px;}</style></defs><path class="cls-1" d="m-.02,29.32c.32-1.59.59-3.18.97-4.75C4.47,10.27,16.97.19,31.72.1c21.94-.13,43.88-.14,65.82-.01,17.64.1,31.42,13.65,31.98,31.3.21,6.76.12,13.54.03,20.31-.07,5.11-3.5,8.82-8.41,9.41-4.51.55-8.84-2.41-10-6.92-.27-1.05-.29-2.19-.3-3.29-.03-5.92,0-11.85-.02-17.77-.03-8.73-5.58-14.32-14.27-14.33-21.16-.02-42.32-.02-63.48,0-8.73,0-14.31,5.57-14.31,14.27,0,44.65,0,89.31,0,133.96,0,8.56,5.61,14.17,14.22,14.17,21.22.02,42.45.02,63.67,0,8.56,0,14.14-5.63,14.17-14.23.03-7.42-.05-14.84.05-22.26.06-4.53,3.48-8.23,7.87-8.84,4.63-.64,8.82,1.87,10.27,6.22.29.85.52,1.78.52,2.67-.03,8.85.29,17.73-.29,26.54-.95,14.39-13.01,26.53-27.38,28.32-.5.06-.99.24-1.49.37H29.27c-.37-.11-.73-.28-1.1-.33-13.47-1.82-24.01-11.18-27.22-24.22-.39-1.57-.65-3.17-.97-4.75,0-47.13,0-94.26,0-141.39Z"/><path class="cls-1" d="m168.1,90.64c-5.96-5.95-11.51-11.52-17.08-17.06-1.99-1.97-3.13-4.29-3.11-7.12.02-3.71,1.65-6.53,4.93-8.25,3.35-1.76,6.66-1.46,9.77.68.74.51,1.4,1.17,2.04,1.81,10.55,10.53,21.09,21.06,31.63,31.6,4.98,4.98,5,10.41.06,15.36-10.72,10.73-21.45,21.44-32.18,32.16-2.87,2.87-6.26,3.93-10.16,2.53-3.63-1.31-5.69-4.02-6.15-7.84-.36-3.03.72-5.61,2.87-7.76,5.21-5.19,10.41-10.4,15.61-15.6.45-.45.89-.93,1.68-1.75h-2.38c-26.04,0-52.07,0-78.11,0-5.22,0-8.98-2.92-9.89-7.62-1.08-5.58,3.02-10.82,8.69-11.1.71-.04,1.43-.02,2.15-.02,25.65,0,51.29,0,76.94,0h2.7Z"/></svg>