<?xml version="1.0" encoding="utf-8"?>
<!-- Generator: Adobe Illustrator 27.8.1, SVG Export Plug-In . SVG Version: 6.00 Build 0)  -->
<!DOCTYPE svg PUBLIC "-//W3C//DTD SVG 1.1//EN" "http://www.w3.org/Graphics/SVG/1.1/DTD/svg11.dtd" [
	<!ENTITY ns_extend "http://ns.adobe.com/Extensibility/1.0/">
	<!ENTITY ns_ai "http://ns.adobe.com/AdobeIllustrator/10.0/">
	<!ENTITY ns_graphs "http://ns.adobe.com/Graphs/1.0/">
	<!ENTITY ns_vars "http://ns.adobe.com/Variables/1.0/">
	<!ENTITY ns_imrep "http://ns.adobe.com/ImageReplacement/1.0/">
	<!ENTITY ns_sfw "http://ns.adobe.com/SaveForWeb/1.0/">
	<!ENTITY ns_custom "http://ns.adobe.com/GenericCustomNamespace/1.0/">
	<!ENTITY ns_adobe_xpath "http://ns.adobe.com/XPath/1.0/">
]>
<svg version="1.1" id="Layer_1" xmlns:x="&ns_extend;" xmlns:i="&ns_ai;" xmlns:graph="&ns_graphs;"
	 xmlns="http://www.w3.org/2000/svg" xmlns:xlink="http://www.w3.org/1999/xlink" x="0px" y="0px" width="500px" height="500px"
	 viewBox="0 0 500 500" style="enable-background:new 0 0 500 500;" xml:space="preserve">
<style type="text/css">
	.st0{fill:#FF6600;}
	.st1{fill:#FFFFFF;}
</style>
<metadata>
	<sfw  xmlns="&ns_sfw;">
		<slices></slices>
		<sliceSourceBounds  bottomLeftOrigin="true" height="500" width="500" x="520" y="-500"></sliceSourceBounds>
	</sfw>
</metadata>
<path class="st0" d="M0,0v500h500V0H0z M474.7836,144.6703l-64.3079,50.7368c-0.9475,0.7481-2.1214,1.1544-3.3282,1.1544h-126.1
	v17.5095h44.626c2.967,0,5.3732,2.4063,5.3732,5.3732v101.4707c0,2.967-2.4062,5.3732-5.3732,5.3732h-44.626v103.6326
	c0,8.2952-3.2293,16.0912-9.0928,21.9547c-5.8635,5.8635-13.6595,9.0928-21.9547,9.0928c-17.1197,0-31.0475-13.9279-31.0475-31.0475
	V326.2881h-126.1c-1.2068,0-2.3793-0.4062-3.3282-1.1544l-64.3079-50.7353c-1.2908-1.0195-2.0449-2.5742-2.0449-4.2189
	s0.7541-3.1993,2.0449-4.2188l64.3079-50.7354c0.949-0.7481,2.1214-1.1544,3.3282-1.1544h126.1v-17.5095h-44.626
	c-2.967,0-5.3732-2.4062-5.3732-5.3732V89.7161c0-2.967,2.4062-5.3732,5.3732-5.3732h44.626V70.0792
	c0-17.1197,13.9278-31.0475,31.0475-31.0475s31.0475,13.9278,31.0475,31.0475v14.2637h126.1c1.2068,0,2.3793,0.4062,3.3282,1.1544
	l64.3079,50.7353c1.2908,1.0195,2.0449,2.5742,2.0449,4.2189S476.0745,143.6508,474.7836,144.6703z"/>
<path class="st1" d="M478.8115,131.1313L414.499,80.3921c-2.0859-1.644-4.6973-2.5493-7.3516-2.5493H287.5479v-7.7637
	c0-20.7036-16.8438-37.5474-37.5479-37.5474s-37.5479,16.8438-37.5479,37.5474v7.7637h-38.126
	c-6.5469,0-11.873,5.3267-11.873,11.8735v101.4722c0,6.5469,5.3262,11.873,11.873,11.873h38.126v4.5093H92.8525
	c-2.6543,0-5.2646,0.9053-7.3545,2.5518l-64.3096,50.7368c-2.8701,2.2676-4.5166,5.6641-4.5166,9.3203s1.6465,7.0527,4.5186,9.3223
	l64.3105,50.7373c2.0859,1.6436,4.6973,2.5488,7.3516,2.5488h119.5996v97.1328c0,20.7041,16.8438,37.5479,37.5479,37.5479
	c10.0303,0,19.459-3.9053,26.5518-10.9971c7.0908-7.0918,10.9961-16.5205,10.9961-26.5508v-97.1328h38.126
	c6.5469,0,11.873-5.3262,11.873-11.873V219.4443c0-6.5474-5.3262-11.8735-11.873-11.8735h-38.126v-4.5093h119.5996
	c2.6592,0,5.2715-0.9067,7.3545-2.5513l64.3096-50.7388c2.8701-2.2666,4.5166-5.6636,4.5166-9.3198
	C483.3281,136.7949,481.6816,133.3979,478.8115,131.1313z M250,443.7217c-7.6094,0-13.8008-6.1914-13.8008-13.8008v-97.1328h27.6016
	v97.1328c0,3.6885-1.4346,7.1543-4.041,9.7607C257.1553,442.2871,253.6895,443.7217,250,443.7217z M250,56.2783
	c7.6094,0,13.8008,6.1909,13.8008,13.8008v7.7637h-27.6016v-7.7637C236.1992,62.4692,242.3906,56.2783,250,56.2783z
	 M275.6738,309.0342l-51.0244,0.0078c-0.1074-0.0049-0.2148-0.0078-0.3232-0.0078L96.9727,309.042l-49.2598-38.8623l49.2598-38.8623
	h216.8271v77.7246h-37.8027C275.8896,309.0371,275.7822,309.0342,275.6738,309.0342z M236.1992,207.5708v-4.5093h27.6016v4.5093
	H236.1992z M186.2002,179.3149v-77.7256h216.8271l49.2598,38.8623l-49.2607,38.8633H186.2002z"/>
<path class="st1" d="M275.6743,224.819c-0.0052,0-0.0099-0.0015-0.0151-0.0015h-51.3182c-0.0052,0-0.0099,0.0015-0.0151,0.0015
	s-0.0099-0.0015-0.0151-0.0015H94.7175l-57.4984,45.3621l57.4984,45.3621h129.5338c0.0254-0.0004,0.049-0.0075,0.0745-0.0075
	s0.0491,0.0071,0.0745,0.0075h51.1996c0.0254-0.0004,0.049-0.0075,0.0745-0.0075s0.0491,0.0071,0.0745,0.0075h44.5515v-90.7242
	h-44.6108C275.6842,224.8174,275.6794,224.819,275.6743,224.819z"/>
<path class="st1" d="M229.699,429.9207c0,11.1948,9.1063,20.3011,20.301,20.3011c5.4242,0,10.5231-2.111,14.3566-5.9445
	c3.8335-3.8336,5.9444-8.9324,5.9444-14.3566V326.2881H229.699V429.9207z"/>
<path class="st1" d="M270.301,70.0792c0-11.1947-9.1063-20.301-20.301-20.301s-20.301,9.1063-20.301,20.301v14.2637h40.6021V70.0792
	z"/>
<rect x="229.699" y="196.5615" class="st1" width="40.6021" height="17.5095"/>
<polygon class="st1" points="179.6998,95.0894 179.6998,185.8151 405.2825,185.8151 462.7808,140.4515 405.2825,95.0894 "/>
<path class="st0" d="M474.7836,136.2326l-64.3079-50.7353c-0.949-0.7482-2.1214-1.1544-3.3282-1.1544h-126.1V70.0792
	c0-17.1197-13.9278-31.0475-31.0475-31.0475s-31.0475,13.9278-31.0475,31.0475v14.2637h-44.626
	c-2.967,0-5.3732,2.4062-5.3732,5.3732v101.4722c0,2.967,2.4062,5.3732,5.3732,5.3732h44.626v17.5095h-126.1
	c-1.2068,0-2.3793,0.4063-3.3282,1.1544l-64.3079,50.7354c-1.2908,1.0195-2.0449,2.5742-2.0449,4.2188s0.7541,3.1993,2.0449,4.2189
	l64.3079,50.7353c0.949,0.7482,2.1214,1.1544,3.3282,1.1544h126.1v103.6326c0,17.1197,13.9278,31.0475,31.0475,31.0475
	c8.2952,0,16.0912-3.2294,21.9547-9.0928c5.8635-5.8635,9.0928-13.6595,9.0928-21.9547V326.2881h44.626
	c2.967,0,5.3732-2.4062,5.3732-5.3732V219.4442c0-2.9669-2.4062-5.3732-5.3732-5.3732h-44.626v-17.5095h126.1
	c1.2068,0,2.3807-0.4063,3.3282-1.1544l64.3079-50.7368c1.2908-1.0195,2.0449-2.5742,2.0449-4.2188
	S476.0745,137.2521,474.7836,136.2326z M229.699,70.0792c0-11.1947,9.1063-20.301,20.301-20.301s20.301,9.1063,20.301,20.301
	v14.2637H229.699V70.0792z M270.301,429.9207c0,5.4243-2.1109,10.5231-5.9444,14.3566c-3.8336,3.8335-8.9324,5.9445-14.3566,5.9445
	c-11.1947,0-20.301-9.1063-20.301-20.3011V326.2881h40.6021V429.9207z M320.3002,224.8174v90.7242h-44.5515
	c-0.0254-0.0004-0.049-0.0075-0.0745-0.0075s-0.0491,0.0071-0.0745,0.0075h-51.1996c-0.0254-0.0004-0.049-0.0075-0.0745-0.0075
	s-0.0491,0.0071-0.0745,0.0075H94.7175l-57.4984-45.3621l57.4984-45.3621h129.5931c0.0052,0,0.0099,0.0015,0.0151,0.0015
	s0.0099-0.0015,0.0151-0.0015h51.3182c0.0052,0,0.0099,0.0015,0.0151,0.0015s0.0099-0.0015,0.0151-0.0015H320.3002z
	 M229.699,214.071v-17.5095h40.6021v17.5095H229.699z M405.2825,185.8151H179.6998V95.0894h225.5827l57.4984,45.3621
	L405.2825,185.8151z"/>
</svg>
