<?xml version="1.0" encoding="UTF-8"?><svg id="Layer_1" xmlns="http://www.w3.org/2000/svg" viewBox="0 0 200 200"><defs><style>.cls-1{stroke-width:0px;}</style></defs><path class="cls-1" d="m0,173.03v-62.11c2.18-3.45,4.06-3.84,7.54-1.53,3.09,2.06,6.48,2.82,10.16,2.81,21.02-.04,42.05-.02,63.06-.02h2.43c.04.85.09,1.48.09,2.11,0,3.32-.05,6.65.02,9.96.06,2.98,1.68,4.61,4.62,4.62,8.07.03,16.14.03,24.21,0,2.75-.02,4.38-1.58,4.53-4.32.09-1.68.03-3.38.03-5.07v-7.29h2.61c20.96,0,41.92-.03,62.87.03,3.97,0,7.6-.86,10.82-3.2,1.49-1.08,3.06-1.43,4.75-.56,1.78.93,2.27,2.51,2.26,4.41-.02,19.13.02,38.27-.06,57.4,0,1.97-.37,4.04-1.01,5.91-2.41,7.02-8.55,11.01-16.67,11.01-54.86,0-109.72,0-164.58,0-.58,0-1.17,0-1.75-.04-7.06-.29-13.13-4.97-15.19-11.74-.24-.8-.49-1.58-.74-2.38"/><path class="cls-1" d="m75.04,45.43h49.81v-8.08h-49.81v8.08ZM0,89.83v-30.08c.07-.1.19-.19.23-.31,2.54-9.5,8.2-13.85,18.03-13.86h40.04c0-2.85-.06-5.5,0-8.15.21-9.39,7-16.69,16.07-16.77,17.12-.16,34.23-.13,51.35,0,7.3.06,13.59,5.15,15.26,12.28.67,2.86.52,5.92.69,8.9.07,1.2,0,2.41,0,3.74h2.66c12.76,0,25.51-.03,38.27,0,10.35.04,17.36,7.11,17.38,17.47,0,7.75,0,15.49,0,23.24-.02,10.53-7.11,17.58-17.68,17.59-21.15,0-42.31,0-63.46,0h-2.16c0-1.39.03-2.49,0-3.59-.09-3.13-1.61-4.68-4.72-4.69-8.01-.04-16.01-.04-24.02,0-3.01,0-4.53,1.56-4.64,4.58-.04,1.19,0,2.41,0,3.52-.44.11-.56.17-.69.17-22.26,0-44.52.06-66.78-.05-6.88-.04-12.99-5-15.07-11.64-.24-.79-.51-1.57-.77-2.36"/></svg>