<?xml version="1.0" encoding="UTF-8"?><svg id="Layer_1" xmlns="http://www.w3.org/2000/svg" viewBox="0 0 200 200"><defs><style>.cls-1{stroke-width:0px;}</style></defs><path class="cls-1" d="m100.2,33.32c-17.99-.35-33.1,14.47-33.49,32.88-.39,18.22,14.38,33.44,32.76,33.77,18.35.34,33.46-14.4,33.79-32.95.32-18.3-14.42-33.32-33.06-33.7M103.89,0c4.27.75,8.61,1.26,12.82,2.27,11.74,2.83,21.79,8.77,30.3,17.25,9.6,9.56,15.79,21.08,18.35,34.41,3.05,15.93.64,31.06-7.2,45.27-17.9,32.44-35.85,64.85-53.79,97.27-.46.85-.95,1.74-1.65,2.39-2.1,1.98-5.05,1.31-6.65-1.54-4.21-7.55-8.37-15.13-12.55-22.69-13.72-24.8-27.4-49.63-41.16-74.4-5.67-10.2-8.97-21.05-8.98-32.74-.02-19.15,6.81-35.55,20.58-48.92,8.89-8.62,19.48-14.24,31.56-16.93C88.98.87,92.55.54,96.08,0h7.81Z"/></svg>