<?xml version="1.0" encoding="UTF-8"?><svg id="Layer_1" xmlns="http://www.w3.org/2000/svg" viewBox="0 0 200 200"><defs><style>.cls-1{stroke-width:0px;}</style></defs><path class="cls-1" d="m49.96,0c6.91,2.22,11.37,7.38,15.13,13.13,4.34,6.62,8.52,13.38,12.33,20.33,2.8,5.12,4.29,10.74,3.08,16.74-.76,3.77-2.53,7.01-5.34,9.54-3.86,3.49-7.7,7.06-11.96,10.01-8.3,5.8-9.5,12.83-6.38,21.91,2.88,8.37,7.93,15.51,13.33,22.36,7.08,8.96,14.62,17.5,23.5,24.73,4.91,4,10.08,7.6,16.41,9.07,5.53,1.28,10.24-.14,14.34-4.03,4.06-3.86,8.08-7.77,12.34-11.37,6.97-5.89,14.66-6.08,22.57-2.04,2.6,1.32,5.2,2.77,7.48,4.57,8.16,6.46,16.54,12.69,22.83,21.18,5.19,7,4.77,13.79-1.67,19.64-6.06,5.51-11.79,11.41-18.97,15.6-12.56,7.32-26.03,9.86-40.37,8.07-15.34-1.91-28.92-8.26-41.56-16.82-16.7-11.31-30.68-25.53-43.51-40.97-11.4-13.71-21.47-28.3-28.59-44.74-4.93-11.38-8.18-23.22-8.18-35.69-.02-20.51,7.42-37.64,23.67-50.62,2.39-1.91,4.49-4.2,6.99-5.94C40.03,2.87,42.91,1.54,45.66,0h4.3Z"/></svg>