<?xml version="1.0" encoding="UTF-8"?><svg id="Layer_1" xmlns="http://www.w3.org/2000/svg" viewBox="0 0 200 200"><defs><style>.cls-1{stroke-width:0px;}</style></defs><path class="cls-1" d="m61.81,126.37c-2.4-17.96-2.4-35.13,0-53.01h76.39c2.39,17.63,2.38,35.23,0,53.01H61.81Z"/><path class="cls-1" d="m135.85,59.79H63.88c1.63-5.59,3.05-11.06,4.82-16.41,3.15-9.53,7.27-18.63,13.84-26.34,2.4-2.82,5.23-5.4,8.28-7.5,5.79-4,11.93-3.99,17.99-.33,4.66,2.82,8.22,6.78,11.3,11.2,7.48,10.75,11.71,22.88,14.86,35.45.32,1.27.57,2.55.88,3.93Z"/><path class="cls-1" d="m64.1,139.92h71.84c-.89,3.44-1.67,6.76-2.61,10.05-2.72,9.5-6.29,18.63-11.63,27.01-2.89,4.53-6.22,8.69-10.53,11.96-7.36,5.58-14.66,5.82-21.94.16-3.24-2.52-6.2-5.61-8.64-8.92-8.8-11.95-13.16-25.8-16.49-40.25Z"/><path class="cls-1" d="m151.69,126.31c2.18-17.62,2.19-35.19-.02-53.1h2.05c13.53,0,27.06.02,40.59-.03,1.44,0,2.15.26,2.55,1.86,4.18,16.61,4.2,33.2-.08,49.79-.26,1.01-.43,1.74-1.79,1.73-14.22-.06-28.45-.05-42.67-.06-.13,0-.26-.07-.64-.19Z"/><path class="cls-1" d="m48.35,126.53h-2.09c-13.53,0-27.06-.02-40.59.03-1.47,0-2.14-.32-2.54-1.89-4.18-16.62-4.2-33.2.08-49.79.31-1.19.67-1.71,2.03-1.71,13.95.06,27.9.03,41.84.04.34,0,.68.04,1.24.08-2.17,17.7-2.2,35.32.03,53.24Z"/><path class="cls-1" d="m149.55,59.7c-2.15-10.48-5.04-20.73-9.36-30.53-4.32-9.78-9.72-18.84-17.65-26.24,6.97-.59,29.71,10.48,41.08,19.95,12.08,10.06,21.35,22.24,27.87,36.83h-41.94Z"/><path class="cls-1" d="m77.71,2.72c-8.26,7.67-13.68,16.82-18,26.67-4.28,9.75-7.17,19.94-9.26,30.36H8.73C15.22,36.29,52.93,5,77.71,2.72Z"/><path class="cls-1" d="m149.65,139.92h41.87c-5.98,13.55-14.42,25.08-25.37,34.74-12.59,11.12-27.08,18.6-43.94,22.61,16.18-16.08,22.71-36.23,27.44-57.35Z"/><path class="cls-1" d="m77.51,196.97c-24.08-1.87-61.35-32.73-68.79-56.98h41.66c4.69,21.01,11.21,41.19,27.13,56.98Z"/></svg>