<?xml version="1.0" encoding="UTF-8"?><svg id="_ëîé_1" xmlns="http://www.w3.org/2000/svg" viewBox="0 0 2941 1575.65"><defs><style>.cls-1{fill:#fff;}.cls-2{fill:#4f1800;}.cls-3{fill:#d1d1d1;}.cls-4{fill:#dbdbdb;}.cls-5,.cls-6{opacity:.5;}.cls-5,.cls-7{fill:#333;}.cls-8{fill:#f60;}.cls-9{fill:#ffc48a;}.cls-10{fill:#f99746;}.cls-11{fill:#5f9aa8;}.cls-12{fill:#ff6000;}.cls-13{fill:#bdd1f9;}.cls-6{fill:#f1f1f1;isolation:isolate;}.cls-14{fill:#2e3552;}.cls-15{fill:#e55c00;}.cls-16{fill:#602915;}.cls-17{fill:#444;}.cls-18{fill:#a9453d;}.cls-19{opacity:.6;}.cls-20{fill:#300c00;}.cls-21{fill:#ff9843;}.cls-22{fill:#dfebfd;}.cls-23{fill:#ed975d;}.cls-24{fill:#f2ccaa;}.cls-25{fill:#bcbcbc;}.cls-26{fill:#e8e8e8;}.cls-27{fill:#9b9b9b;}.cls-28{fill:#ff7f00;}.cls-29{fill:#f9ddbf;}.cls-30{fill:#ff8b00;}.cls-31{fill:#ed7d2b;}.cls-32{fill:#ffb27d;}.cls-33{fill:#ffdfc0;}</style></defs><path class="cls-6" d="M2853.4,1563.43h0c-.23,.42-.45,.82-.68,1.22-1.62,2.9-3.29,5.84-5,8.79l-2617.77-.79s-2.55-2.84-7.11-8.29c-.26-.31-.52-.62-.79-.95-11.69-14.04-35.23-43.58-62.78-85.23,0-.01-.01-.02-.02-.04C86.15,1367.57-15.14,1171.78,1.9,954.46c4.81-61.34,19.04-124.4,46-187.74,81.77-192.11,325.73-321.61,545.5-324.21,85.06-1.02,166.52,16.99,233.52,57.74,11.89,7.22,26.83,12.8,44.21,16.59,14.65,3.21,31.03,5.16,48.81,5.78,142.73,5.03,374.87-75.41,512.55-277.77,73.11-107.46,185.35-177.81,314.36-214.45,6.01-1.7,12.07-3.34,18.14-4.89,29.34-7.53,59.47-13.37,90.15-17.55,5.52-.75,11.07-1.45,16.63-2.08,136.13-15.8,281.94,.54,415.67,45.71,17.61,5.94,35.02,12.39,52.17,19.34,251.67,101.92,447.47,310.03,430.25,600.62-.68,11.49-1.69,23.11-3.06,34.86-2.57,22.38-6.41,45.22-11.54,68.52-3.03,13.73-6.51,27.62-10.47,41.65-103.73,368.37,310.95,385,108.61,746.85Z"/><path class="cls-26" d="M2853.4,1563.43h0l-2037.6,.23,17.57-608.96v-165.46h76.21v-129.22h152.04v109.68h46.43v-202.85h10.1v-14.18h1.81v14.18h36.67v-14.18h1.82v14.18h51.91v-14.18h1.82v14.18h32.68v-14.18h1.8v14.18h13.42v189.36h51.32v-30.63l60.52,.27v-49.63h12.17v-9.81h1.62v9.81h46.74v.02h9.35v-9.84h1.61v9.84h11.27v98.68h72.05v36.32h40.06v-21.09h37.15v-83.73h18.53v-39.06h2.8v39.06h44.39v-73.21h4.36v73.21h29.37v-1.02h-.05v-9.29h.05v-8.79h-.05v-14.64h.05v-9.34h-.05v-14.64h.05v-9.34h-.05v-14.64h.05v-10.1h-.05v-14.62h.05v-12.86h-.05v-14.62h.05v-9.7h8.75v-10.95h1.4v10.95h64.84v-10.95h1.39v10.95h11.84v76.54l8.32,.05v-.05h-.07v-14.64h.07v-10.1h-.07v-14.62h.07v-10.06h-.07v-14.64h.07v-.04h78.62v.04h13.51c.69,.39,1.4,.78,2.11,1.17v97.61h14.47v-14.07h165.95v109.68h50.68v-202.85h11.01v-14.18h1.99v14.18h40.01v-14.18h1.98v14.18h56.67v-14.18h1.98v14.18h35.67v-14.18h1.97v14.18h14.66v189.36h56.01v-30.63l66.05,.27v-49.62h13.3v-9.82h1.77v9.82h61.2v-9.82h1.75v9.84h12.3v98.69h78.63v36.31h43.73v-21.09h40.55v-83.74h20.22v-39.05h3.06v39.05h48.46v-73.2h4.75v73.2h23.83c-2.57,22.38-6.41,45.22-11.54,68.52-3.03,13.73-6.51,27.62-10.47,41.65-103.73,368.37,310.95,385,108.61,746.85h-.02Z"/><path class="cls-25" d="M2339.61,70.94V1563.42h-52.17V51.6c17.62,5.94,35.02,12.39,52.17,19.35h0Z"/><path class="cls-3" d="M871.14,516.85V1564.37H222.84c-.26-.31-.52-.62-.79-.95-11.69-14.04-35.23-43.58-62.78-85.23,0-.01-.01-.02-.02-.04C86.15,1367.58-15.14,1171.79,1.9,954.47c4.81-61.34,19.04-124.4,46-187.74,81.77-192.11,325.73-321.61,545.5-324.21,84.27,.93,164.59,19.12,231.29,57.74,12.48,7.22,28.18,12.8,46.44,16.59h.01Z"/><g><path class="cls-25" d="M1871.78,5.89V189.69c0,14.33-3.5,26.02-7.76,26.02h-1.11c-4.27,0-7.75-11.69-7.75-26.02V7.97c5.52-.75,11.07-1.45,16.63-2.08h-.01Z"/><path class="cls-21" d="M1859.13,171.49c-60.58,0-109.68,51.92-109.68,115.98h219.36c0-64.05-49.11-115.98-109.68-115.98Z"/><path class="cls-9" d="M1867.87,172.91c-3.15-.69-6.37-1.05-9.63-1.05-39.47,0-71.46,51.76-71.46,115.61h19.27c0-58.56,26.92-106.95,61.83-114.56h-.01Z"/></g><g><g><path class="cls-8" d="M2581.46,1392.37s-29.19-34.05-1.8-55.68c0,0,20.01-12.11,36.32-11.13,0,0-23.12,38.76-15.64,42.62,7.48,3.86,22.64-45.05,22.64-45.05,0,0,45.53-4.42,60.17,2.63,0,0-38.92,31.85-30.72,33.75s50.24-29.37,50.24-29.37c0,0,42.37,7.21,40.11,33.06-2.26,25.85-16.86,33.83-23.28,33.14s-43.96-15.02-44.77-9.76c-.82,5.26,21.78,22.44,37.6,23.25,0,0-29.87,32.95-49.73,23.44-19.85-9.51-21.55-24.58-33.92-30.23-12.38-5.65-22.94-5.64-17.83,.13,5.11,5.77,27.51,11.37,34.59,23.89s13.43,20.96-7.11,17.87-53.93-18.12-55.4-35.33l-1.47-17.21v-.02Z"/><g><path class="cls-8" d="M2721.96,1363.89s-115.09-4.44-140.5,28.48c0,0-5.62,16.83-22.92,32.16l-2.7,7.35s19.94-21.03,27.08-22.3c0,0-11.16-40.78,139.04-45.69h0Z"/><path class="cls-8" d="M2558.54,1424.53s-24.7,18.27-26.42,50.91l4.48,.4s7.89-33.75,22.15-46.95-.21-4.36-.21-4.36h0Z"/></g></g><g><path class="cls-8" d="M2479.4,1349.54s46.43-26,24.76-61.29c0,0-17.33-21.67-35.91-27.24,0,0,9.91,52.62,0,53.86s-6.81-59.43-6.81-59.43c0,0-48.91-23.53-68.1-21.67,0,0,30.34,51.38,20.43,50.15-9.91-1.24-43.96-53.24-43.96-53.24,0,0-50.15-9.29-58.19,20.43-8.05,29.72,4.95,44.57,12.38,46.43,7.43,1.86,55.1,1.24,53.86,7.43-1.24,6.19-33.43,16.1-51.38,10.53,0,0,19.81,48.91,45.81,46.43s34.05-18.57,50.15-19.81c16.1-1.24,27.86,3.1,19.81,7.43-8.05,4.33-35.29,1.42-48.29,12.47-13,11.05-23.53,17.86,.62,22.82,24.15,4.95,67.48,1.86,76.15-16.72l8.67-18.57h0Z"/><g><path class="cls-8" d="M2334.54,1260.39s130.01,42.1,144.87,89.15c0,0-.62,21.05,12.38,45.19v9.29s-13.62-31.57-21.05-35.91c0,0,29.1-40.86-136.2-107.72Z"/><path class="cls-8" d="M2491.79,1394.74s20.05,30.45,8.62,67.51l-5.16-1.39s5.01-40.82-5.48-61.35,2.02-4.77,2.02-4.77h0Z"/></g></g><g><path class="cls-28" d="M2553.27,1313.68s-61.21-34.28-32.64-80.79c0,0,22.85-28.56,47.33-35.91,0,0-13.06,69.37,0,71s8.98-78.34,8.98-78.34c0,0,64.47-31.01,89.77-28.56,0,0-39.99,67.73-26.93,66.1s57.94-70.18,57.94-70.18c0,0,66.1-12.24,76.71,26.93,10.61,39.17-6.53,58.76-16.32,61.21s-72.63,1.63-71,9.79,44.07,21.22,67.73,13.87c0,0-26.11,64.47-60.39,61.21-34.28-3.26-44.88-24.48-66.1-26.11-21.22-1.63-36.72,4.08-26.11,9.79,10.61,5.71,46.52,1.87,63.65,16.44s31.01,23.55-.82,30.08c-31.83,6.53-88.95,2.45-100.38-22.03l-11.42-24.48v-.02Z"/><g><path class="cls-28" d="M2744.24,1196.17s-171.38,55.49-190.96,117.52c0,0,.82,27.75-16.32,59.57v12.24s17.95-41.62,27.75-47.33c0,0-38.36-53.86,179.54-142h-.01Z"/><path class="cls-28" d="M2536.95,1373.26s-26.43,40.13-11.36,88.99l6.8-1.83s-6.6-53.81,7.23-80.87c13.83-27.06-2.67-6.29-2.67-6.29Z"/></g></g><path class="cls-8" d="M2551.21,1568.19c66.21,0,119.89-53.68,119.89-119.89h-239.79c0,66.21,53.68,119.89,119.89,119.89h.01Z"/><path class="cls-28" d="M2580.71,1567.27c-4.88,.61-9.85,.92-14.9,.92-66.21,0-119.89-53.68-119.89-119.89h29.79c0,61.17,45.81,111.64,105,118.98h0Z"/><rect class="cls-28" x="2427.38" y="1448.29" width="246.45" height="3.68"/></g><g><path class="cls-27" d="M1993.06,1562.29l-117.81-488.98,8.23-19.25,116.71,508.17c.3,1.3-.69,2.54-2.03,2.54h-1.95c-1.5,0-2.81-1.03-3.16-2.49h.01Z"/><g><path class="cls-27" d="M1461.37,1564.78h0c-2.42,0-4.26-2.17-3.87-4.56l34.7-210.32h14.87l-41.38,211.33c-.4,2.06-2.21,3.55-4.32,3.55h0Z"/><path class="cls-27" d="M1794.23,1564.78h0c-2.42,0-4.26-2.17-3.87-4.56l34.7-210.32h14.87l-41.38,211.33c-.4,2.06-2.21,3.55-4.32,3.55h0Z"/><polygon class="cls-1" points="1874.94 1350.34 1460.54 1350.34 1546.39 812.09 1960.8 812.09 1874.94 1350.34"/><rect class="cls-27" x="1430.01" y="1346.24" width="475.94" height="15.83"/><g><path class="cls-4" d="M1710.51,924.71c-.31,4.26-.94,8.45-1.86,12.53-8.64,38.47-42.89,67.94-81.6,68.01-42.83,.07-74.89-35.86-71.62-80.27s40.63-80.46,83.46-80.53c8.98-.02,17.48,1.55,25.29,4.46,3.51,1.3,6.89,2.87,10.1,4.68,6.93,3.93,13.1,9,18.31,15,2.9,3.33,5.5,6.96,7.76,10.82,1.32,2.24,2.52,4.56,3.6,6.95,3.01,6.66,5.09,13.89,6.09,21.52,.51,3.82,.73,7.76,.68,11.77-.02,1.67-.09,3.36-.22,5.06h0Z"/><path class="cls-1" d="M1703.95,886.36l-70.97,38.48s29.28-51.57,41.3-71.26c6.93,3.93,13.1,9,18.31,15,2.9,3.33,5.5,6.96,7.76,10.82,1.32,2.24,2.52,4.56,3.6,6.95h0Z"/><path class="cls-12" d="M1711.32,876.63l-64.83,35.15s26.75-47.11,37.73-65.09c6.33,3.59,11.97,8.22,16.72,13.7,2.65,3.05,5.02,6.36,7.09,9.89,1.2,2.04,2.3,4.16,3.29,6.35Z"/></g><g><path class="cls-13" d="M1841.94,1309.43l-341.09-.02,34.53-196.8,341.09,.02-34.53,196.8Zm-338.33-2.01l336.28,.02,33.84-192.84-336.28-.02-33.84,192.84Z"/><g><path class="cls-12" d="M1821.6,1282.44l-302.51-.02s53.66-28.78,68.38-27.27,35.88,13.16,49.48,13.61,28.34-40.39,43.48-38.46c15.14,1.92,20.84,38.05,28.68,34.52,7.84-3.53,31.39-5.06,44.95,0,13.56,5.06,33.32-16.08,45.24-15.42,11.92,.66,22.29,33.03,22.29,33.03h.01Z"/><g><polygon points="1591.84 1224.6 1534.06 1224.59 1534.6 1221.53 1592.37 1221.53 1591.84 1224.6"/><polygon points="1590.69 1231.14 1532.91 1231.14 1533.45 1228.07 1591.23 1228.08 1590.69 1231.14"/></g></g><g><path class="cls-4" d="M1536.41,1183.77l302.51,.02s-43.56-28.78-58.81-27.28c-15.25,1.51-40.49,13.15-54.25,13.6s-14.16-40.39-29.98-38.47-34.19,38.05-40.8,34.52c-6.6-3.53-29.61-5.06-44.95,0-15.33,5.06-27.68-16.08-39.83-15.42-12.16,.66-33.89,33.03-33.89,33.03Z"/><g><polygon points="1608.16 1131.57 1550.38 1131.57 1550.92 1128.51 1608.7 1128.51 1608.16 1131.57"/><polygon points="1607.01 1138.12 1549.23 1138.12 1549.77 1135.05 1607.55 1135.05 1607.01 1138.12"/></g></g></g><g><polygon class="cls-4" points="1556.02 1085.15 1542.75 1085.15 1554.28 1022.98 1567.55 1022.98 1556.02 1085.15"/><polygon class="cls-4" points="1574.09 1085.15 1560.82 1085.15 1569.75 1036.99 1583.02 1036.99 1574.09 1085.15"/><polygon class="cls-4" points="1592.17 1085.15 1578.9 1085.15 1588.21 1034.92 1601.48 1034.92 1592.17 1085.15"/><polygon class="cls-4" points="1610.24 1085.15 1596.97 1085.15 1604.06 1046.95 1617.33 1046.95 1610.24 1085.15"/><polygon class="cls-4" points="1628.32 1085.15 1615.05 1085.15 1622.65 1044.17 1635.92 1044.17 1628.32 1085.15"/><polygon class="cls-4" points="1646.39 1085.15 1633.12 1085.15 1639.02 1053.37 1652.28 1053.37 1646.39 1085.15"/></g><g><polygon class="cls-12" points="1733.51 1085.15 1720.24 1085.15 1731.77 1022.98 1745.04 1022.98 1733.51 1085.15"/><polygon class="cls-12" points="1751.58 1085.15 1738.32 1085.15 1747.25 1036.99 1760.51 1036.99 1751.58 1085.15"/><polygon class="cls-12" points="1769.66 1085.15 1756.39 1085.15 1765.7 1034.92 1778.97 1034.92 1769.66 1085.15"/><polygon class="cls-12" points="1787.73 1085.15 1774.46 1085.15 1781.55 1046.95 1794.82 1046.95 1787.73 1085.15"/><polygon class="cls-12" points="1805.81 1085.15 1792.54 1085.15 1800.14 1044.17 1813.41 1044.17 1805.81 1085.15"/><polygon class="cls-12" points="1823.88 1085.15 1810.61 1085.15 1816.51 1053.37 1829.78 1053.37 1823.88 1085.15"/></g><g><g><polygon points="1797.39 882.19 1754.2 882.19 1755.31 876.28 1798.5 876.28 1797.39 882.19"/><polygon points="1850.38 882.19 1802.68 882.19 1803.8 876.28 1851.49 876.28 1850.38 882.19"/><polygon points="1884.37 882.19 1853.96 882.19 1855.07 876.28 1885.48 876.28 1884.37 882.19"/><polygon points="1912.75 882.19 1889.29 882.19 1890.4 876.28 1913.86 876.28 1912.75 882.19"/></g><g><polygon points="1792.65 907.44 1749.46 907.44 1750.57 901.52 1793.76 901.52 1792.65 907.44"/><polygon points="1845.63 907.44 1797.94 907.44 1799.05 901.52 1846.75 901.52 1845.63 907.44"/><polygon points="1879.63 907.44 1849.22 907.44 1850.33 901.52 1880.74 901.52 1879.63 907.44"/><polygon points="1908.01 907.44 1884.55 907.44 1885.66 901.52 1909.12 901.52 1908.01 907.44"/></g><g><polygon points="1823.06 868.39 1756.79 868.39 1757.9 862.47 1824.17 862.47 1823.06 868.39"/><polygon points="1867.57 868.39 1829.37 868.39 1830.48 862.47 1868.68 862.47 1867.57 868.39"/><polygon points="1915.38 868.39 1872.96 868.39 1874.07 862.47 1916.49 862.47 1915.38 868.39"/></g><g><polygon points="1818.02 895.23 1751.75 895.23 1752.86 889.31 1819.13 889.31 1818.02 895.23"/><polygon points="1862.53 895.23 1824.33 895.23 1825.44 889.31 1863.64 889.31 1862.53 895.23"/><polygon points="1910.34 895.23 1867.92 895.23 1869.03 889.31 1911.45 889.31 1910.34 895.23"/></g><g><polygon points="1787.91 932.68 1744.72 932.68 1745.83 926.76 1789.02 926.76 1787.91 932.68"/><polygon points="1840.89 932.68 1793.2 932.68 1794.31 926.76 1842 926.76 1840.89 932.68"/><polygon points="1874.89 932.68 1844.48 932.68 1845.59 926.76 1876 926.76 1874.89 932.68"/><polygon points="1903.27 932.68 1879.81 932.68 1880.92 926.76 1904.38 926.76 1903.27 932.68"/></g><g><polygon points="1813.28 920.47 1747.01 920.47 1748.12 914.56 1814.39 914.56 1813.28 920.47"/><polygon points="1857.79 920.47 1819.59 920.47 1820.7 914.56 1858.9 914.56 1857.79 920.47"/><polygon points="1905.59 920.47 1863.17 920.47 1864.29 914.56 1906.71 914.56 1905.59 920.47"/></g><g><polygon points="1783.47 956.35 1740.27 956.35 1741.38 950.43 1784.58 950.43 1783.47 956.35"/><polygon points="1836.45 956.35 1788.76 956.35 1789.87 950.43 1837.56 950.43 1836.45 956.35"/><polygon points="1870.44 956.35 1840.04 956.35 1841.15 950.43 1871.55 950.43 1870.44 956.35"/><polygon points="1898.83 956.35 1875.37 956.35 1876.48 950.43 1899.94 950.43 1898.83 956.35"/></g><g><polygon points="1808.83 944.14 1742.57 944.14 1743.68 938.22 1809.94 938.22 1808.83 944.14"/><polygon points="1853.34 944.14 1815.14 944.14 1816.26 938.22 1854.45 938.22 1853.34 944.14"/><polygon points="1901.15 944.14 1858.73 944.14 1859.84 938.22 1902.26 938.22 1901.15 944.14"/></g></g><g><polygon points="1685.17 1032.22 1664.03 1032.22 1664.58 1029.33 1685.72 1029.33 1685.17 1032.22"/><polygon points="1711.11 1032.22 1687.77 1032.22 1688.31 1029.33 1711.65 1029.33 1711.11 1032.22"/><polygon points="1682.85 1044.58 1661.71 1044.58 1662.26 1041.68 1683.4 1041.68 1682.85 1044.58"/><polygon points="1708.79 1044.58 1685.45 1044.58 1685.99 1041.68 1709.33 1041.68 1708.79 1044.58"/><polygon points="1697.74 1025.47 1665.3 1025.47 1665.85 1022.57 1698.28 1022.57 1697.74 1025.47"/><polygon points="1719.52 1025.47 1700.83 1025.47 1701.37 1022.57 1720.07 1022.57 1719.52 1025.47"/><polygon points="1695.27 1038.61 1662.84 1038.61 1663.38 1035.71 1695.81 1035.71 1695.27 1038.61"/><polygon points="1717.06 1038.61 1698.36 1038.61 1698.9 1035.71 1717.6 1035.71 1717.06 1038.61"/></g><g><polygon points="1854.52 1032.22 1833.38 1032.22 1833.93 1029.33 1855.07 1029.33 1854.52 1032.22"/><polygon points="1880.46 1032.22 1857.11 1032.22 1857.66 1029.33 1881 1029.33 1880.46 1032.22"/><polygon points="1852.2 1044.58 1831.06 1044.58 1831.61 1041.68 1852.75 1041.68 1852.2 1044.58"/><polygon points="1878.14 1044.58 1854.79 1044.58 1855.34 1041.68 1878.68 1041.68 1878.14 1044.58"/><polygon points="1867.09 1025.47 1834.65 1025.47 1835.2 1022.57 1867.63 1022.57 1867.09 1025.47"/><polygon points="1888.87 1025.47 1870.18 1025.47 1870.72 1022.57 1889.42 1022.57 1888.87 1025.47"/><polygon points="1864.62 1038.61 1832.18 1038.61 1832.73 1035.71 1865.16 1035.71 1864.62 1038.61"/><polygon points="1886.41 1038.61 1867.71 1038.61 1868.25 1035.71 1886.95 1035.71 1886.41 1038.61"/></g></g></g><g><g><path class="cls-32" d="M1967,1556.8c-.74,10.12-15.02,10.23-31.21,8.35-16.2-1.88-11.89,2.22-34.57,2.54-22.68,.32-30.5-7.18-31.6-10.42-.98-2.88,9.95-5.3,21.63-8.14,1.47-.35,2.95-.72,4.42-1.1,13.18-3.35,21.9-13.21,33.18-21.82,10.68-8.16,24.45-37.68,24.45-37.68l30.98-1.4s-13.05,26.46-17.95,37.87c-2.88,6.71-1.66,14.96-.4,21.28,.67,3.44,1.34,6.96,1.07,10.52h0Z"/><path class="cls-17" d="M1935.78,1565.15c-16.2-1.88-11.89,2.22-34.57,2.54-22.68,.32-30.5-7.18-31.6-10.42-.98-2.88,9.95-5.3,21.63-8.14l.14,.21s14.6,7.84,33.28,5.96c15.22-1.53,30.76-7.88,41.26-9.02,.67,3.44,1.34,6.96,1.07,10.52-.74,10.12-15.02,10.23-31.21,8.35h0Z"/></g><g><path class="cls-32" d="M2180.98,1558.9c-.73,10.12-15.01,10.24-31.21,8.38s-11.89,2.23-34.57,2.57c-22.68,.34-30.51-7.15-31.61-10.39-.98-2.88,9.94-5.31,21.62-8.16,1.47-.35,2.94-.73,4.42-1.1,13.17-3.36,21.89-13.23,33.15-21.86,10.67-8.17,0-56.52,0-56.52l34.08-3.32s-1.63,40.71-1.61,59.23c0,7.3,3.37,14.33,4.63,20.65,.67,3.44,1.35,6.96,1.08,10.52h.02Z"/><path class="cls-17" d="M2149.77,1567.28c-16.2-1.86-11.89,2.23-34.57,2.57-22.68,.34-30.51-7.15-31.61-10.39-.98-2.88,9.94-5.31,21.62-8.16l.14,.21s14.61,7.82,33.29,5.93c15.22-1.54,30.75-7.91,41.25-9.06,.67,3.44,1.35,6.96,1.08,10.52-.73,10.12-15.01,10.24-31.21,8.38h.01Z"/></g><path class="cls-2" d="M2081.53,723.14c-5.87-24.13,2.64-35.37,10.31-41.35,3.64-8.88,7.79-15.28,12.04-17.7,7.75-4.4,17.03-4.88,23.52-4.5-1.67-1.73-4.96-2.35-4.96-2.35,4.03-.6,13.01,3.39,13.01,3.39,56-21.58,64.8,60.87,63.62,80.03-1.17,19.15-1.01,41.71,28.12,56.8,55.59,28.8-18.47,137.31-18.47,137.31,1.41-15.48-70.01-97.17-107.27-121.63-9.07-13.35-12.29-36.95-12.54-38.8,1.57,18.71,4.77,29.2,7.63,35.11-16.98-15.63-19.5-53.17-15-86.32h-.01Z"/><path class="cls-32" d="M2103.65,814.37c-.19,.08,17.99,9.52,31.67,5.78,12.86-3.51,21.27-20.18,21.09-20.22-5.45-1.08-7.02-8.57-6.9-40.73l-2.46,.48-41.4,8.2s.94,13.03,.97,25.3c.03,10.31-.6,20.08-2.96,21.18h-.01Z"/><path class="cls-23" d="M2105.63,767.89s.94,13.03,.97,25.3c23.17-.65,35.41-21.79,40.43-33.5l-41.4,8.2Z"/><path class="cls-17" d="M1937.18,1504.93c-2.03,6.36,2.53,12.92,9.21,13.23l16.17,.76,17.11,.52c4.28,.13,8.37-1.74,11.08-5.06,13.66-16.76,55.71-72.61,81.21-153.76,.72-2.28,1.47-4.58,2.28-6.91,16.84-49.12,51.76-110.77,70.17-166.57,2.93-8.89,5.56-17.25,7.92-25.17,.75-2.54,1.49-5.03,2.19-7.48,13.56-47.12,17.49-78.06,21.11-111.11l-132.88,1.06s-27.97,217.43-105.56,460.49h-.01Z"/><path class="cls-1" d="M2061.35,968.08c.34,63.23-9.28,90.36-9.28,90.36,0,0,56.89,28.91,124.51,7.63,.8-.25,48.38-13.72,48.38-13.72-1.13-2.56-10.53-44.87-11.64-47.22-14.28-30.66-18.17-43.53-19.86-52.96-3.14-17.6-3.21-35.8-1.64-52.98,4.13-45.46,16.4-83.19,16.4-83.19-18.42-4.19-35.68-11.56-54.86-18.75-4.41,5.49-17.89,11.24-29.59,10.98-13.47-.3-17.84-6.06-17.14-12.36-14.35,7.99-25.81,15.53-25.81,15.53-12.2,21.19-36.94,41.77-38.73,74.27-.44,7.99,19.24,80.63,19.25,82.4h.01Z"/><path class="cls-11" d="M2175.63,975.13c5.81,8.22,16.95,58.19,44.65,64.47-14.28-35.61-25.12-51.23-26.81-62.18-3.14-20.44-3.21-41.59-1.64-61.54-9.27-16.26-16.2-27.4-16.2-27.4-.73-2.63-14.74-45.95-19.23-7.23-4.48,38.73,12.74,84.67,19.23,93.87h0Z"/><path class="cls-32" d="M2097.9,779.51s54.82,.9,54.85-33.24c.04-34.14,7.14-57.02-27.86-59.04-35-2.02-41.81,11-44.6,22.39-2.78,11.39,3.34,68.78,17.6,69.89h.01Z"/><path class="cls-2" d="M2099.93,686.39s15.01,40.06,38.04,45.98,33.02-.25,33.02-.25c0,0-17.67-14.03-21.33-38.53,0,0-38.41-26.26-49.73-7.2Z"/><path class="cls-2" d="M2103.65,689.64s-11.21,8.94-13.94,17.64c-2.73,8.69-3.96,26.59-9.18,25.99,0,0-11.31-27.23,1.4-42.63,13.47-16.33,21.72-.99,21.72-.99h0Z"/><polygon class="cls-32" points="2011.65 1011.97 1985.76 1090.91 2000.52 1096.83 2043.33 1027.09 2011.65 1011.97"/><path class="cls-8" d="M2081.45,806.76s-30.53,12.11-39.36,31c-8.84,18.89-22.21,145.57-27.54,158.58s-9.33,23.31-9.33,23.31c0,0,15.39,12.97,30.87,13.92,15.48,.95,45.37-226.81,45.37-226.81h-.01Z"/><path class="cls-8" d="M2106.63,795.88s-31.71,78.35-32.65,94.2c-.93,15.86-3.73,259.29-3.73,259.29,0,0,1.87,11.19-19.59,6.53-21.45-4.66-27.05-9.33-27.05-9.33,0,0,20.52-150.16,14.92-202.39s42.9-137.42,42.9-137.42l25.19-10.88h.01Z"/><path class="cls-5" d="M1962.56,1518.92l18.58,.57c3.32,.1,6.5-1.33,8.62-3.89,12.49-15.12,56.05-71.75,82.21-154.97,.72-2.28,1.47-4.58,2.28-6.91,16.84-49.12,51.76-110.77,70.17-166.57,2.93-8.89,5.56-17.25,7.92-25.17,.75-2.54,1.49-5.03,2.19-7.48l-19.57-14.85s-58.75,95.13-76.94,184.66c-15.8,77.77-79.07,171.34-95.45,194.62h-.01Z"/><path class="cls-17" d="M2132.91,1332.64c-.32,41.19,1.63,132.99,6.65,177.87,.46,4.11,3.93,7.21,8.07,7.21h13.86c5.84,0,10.22-.04,13.12-.09,2.51-.04,4.66-1.84,5.14-4.31,13.79-70.16,23.66-128.45,30.88-178.82,6.04-42.16,11.42-78.3,15.55-109.41,4.16-31.31,7.05-57.53,8.09-79.68,.16-3.49,.28-6.88,.34-10.18,.07-3.31,.08-6.53,.06-9.65l-114.81-11.19c1.45,76.29,13.24,192.95,13.06,218.25h-.01Z"/><path class="cls-5" d="M2161.49,1517.71c5.25,0,9.31-.03,12.19-.07,3.05-.04,5.66-2.23,6.25-5.22,13.7-69.76,23.51-127.76,30.7-177.91,6.04-42.16,11.42-78.3,15.55-109.41,4.16-31.31,7.05-57.53,8.09-79.68l-42.13,24.78s26.89,9.49,16.63,81.3c-10.26,71.82-33,256.05-47.28,266.22h0Z"/><path class="cls-8" d="M2156.06,1144.7s8.09,29.22,36.07,25.49,67.77-20.52,67.77-20.52c0,0-11.96-37.78-26.83-87.42-18-60.09-40.28-137.56-50.78-186.43-2.95-13.69-4.96-25.13-5.71-33.32l-23.21-45.04s-34.61,77.68-36.48,97.27c-1.87,19.59,39.17,249.96,39.17,249.96h0Z"/><path class="cls-32" d="M2184,891.82l-30.64-94.35c.08,.04,38.7,11.49,58.12,21.3,0,0,12.14,15.65,19.65,51.76,0,0,7.94,86.7-9.78,118.41,0,0-55.96,11.19-145.5-19.59v-20.52s97.93,5.13,117.99,7.46l-9.84-64.48h0Z"/><path class="cls-15" d="M2157.3,935.78c1.25,31.71,8.71,93.27,75.24,126.22,.18,.08,.35,.18,.53,.25-18-60.09-40.28-137.56-50.78-186.43-12.22,18.26-25.67,42.49-24.99,59.95h0Z"/><path class="cls-8" d="M2153.37,797.47s56.8,4,70.47,34.47c13.68,30.47,18.03,131.82,.62,161.67,0,0-23.97,6.83-66.36-1.1-.52-.1-1.04-.2-1.57-.3,0,0-13.52-33.11-1.4-39.64,0,0,35.75,1.87,32.02-9.95-3.73-11.81-33.79-145.15-33.79-145.15h.01Z"/><g><path class="cls-18" d="M2010.97,961.52l1.67,5.38,93.19-28.99s1.24-1.42,.63-3.3c-.68-2.08-2.3-2.08-2.3-2.08l-93.19,28.99h0Z"/><polygon class="cls-18" points="2004.23 966.6 2010.97 961.52 2012.64 966.89 2004.23 966.6"/></g><path class="cls-32" d="M1989.44,1088.75s-23.64,13.06-26.75,23.02-.97,30.8,2.78,30.49,9.35-22.4,12.46-23.95c3.11-1.56,7.47-6.22,7.47-2.8s-3.11,9.64-1.56,10.58c1.56,.93,6.53-8.71,9.95-10.58s4.86-17.25,8.18-21.38c3.33-4.13-12.54-5.37-12.54-5.37h.01Z"/><path class="cls-32" d="M2075.85,948.84s-21.14-13.02-30.01-11.02-31.47,18.37-20.6,21.92c10.87,3.54,19.68-.17,23.86,2.4,4.18,2.58,7.27,7.28,26.75,7.22,19.49-.06,0-20.52,0-20.52Z"/></g><g><g class="cls-19"><path class="cls-8" d="M1051.91,1564.75h-.35c-2.06,0-3.71-1.69-3.66-3.75l5.55-240.6,16.35-1.91-13.94,242.53c-.12,2.09-1.85,3.73-3.95,3.73h0Z"/><path class="cls-8" d="M956.62,1564.75h-.35c-2.06,0-3.71-1.69-3.66-3.75l5.55-240.6,16.35-1.91-13.94,242.53c-.12,2.09-1.85,3.73-3.95,3.73h0Z"/><path class="cls-8" d="M1219.56,1564.75h.35c2.06,0,3.71-1.69,3.66-3.75l-5.55-240.6-16.35-1.91,13.94,242.53c.12,2.09,1.85,3.73,3.95,3.73h0Z"/><path class="cls-8" d="M945.78,1305.48v-164.87c0-29.01,23.52-52.53,52.53-52.53h118.79c29.01,0,52.53,23.52,52.53,52.53v171.17l-223.84-6.3h-.01Z"/><path class="cls-8" d="M945.78,1305.48h245.13v26.03h-229.36c-8.7,0-15.77-7.07-15.77-15.77v-10.26h0Z"/><path class="cls-8" d="M1044.88,1305.48h173.52c6.44,0,11.66,5.23,11.66,11.66v2.7c0,6.44-5.23,11.66-11.66,11.66h-173.52c-6.44,0-11.66-5.23-11.66-11.66v-2.7c0-6.44,5.23-11.66,11.66-11.66Z"/></g><g><path class="cls-32" d="M1348.21,1468.81c1.66,8.29,13.47,6.9,26.67,3.68,13.2-3.22,10.06,.61,28.84-1.47,18.78-2.08,24.47-9.08,25.05-11.88,.51-2.48-8.77-3.35-18.72-4.5-1.25-.14-2.51-.29-3.77-.45-11.24-1.41-19.47-8.66-29.68-14.62-9.67-5.64-24.1-28.63-24.1-28.63l-25.76,2.04s13.52,20.53,18.75,29.46c3.08,5.25,2.91,12.19,2.53,17.55-.2,2.91-.39,5.89,.2,8.81h-.01Z"/><path class="cls-7" d="M1374.88,1472.49c13.2-3.22,10.06,.61,28.84-1.47,18.78-2.08,24.47-9.08,25.05-11.88,.51-2.48-8.77-3.35-18.72-4.5l-.09,.19s-11.26,7.99-26.9,8.36c-12.74,.31-26.24-3.34-35.04-3.2-.2,2.91-.39,5.89,.2,8.81,1.66,8.29,13.47,6.9,26.67,3.68h-.01Z"/><path class="cls-32" d="M1126.85,1505.88c-5.12,6.73,3.73,14.67,14.88,22.43s6.2,7.95,20.18,20.66c13.98,12.71,23,12.34,25.47,10.93,2.2-1.25-3.29-8.79-9.01-17.02-.72-1.03-1.44-2.08-2.15-3.12-6.38-9.36-6.38-20.33-8.67-31.93-2.17-10.98,15.77-51.35,15.77-51.35l-28.82-3.63s-3.76,24.38-7,34.2c-1.9,5.78-9.91,9.59-14.18,12.85-2.32,1.78-4.68,3.61-6.48,5.98h.01Z"/><path class="cls-7" d="M1141.73,1528.31c11.15,7.76,6.2,7.95,20.18,20.66,13.98,12.71,23,12.34,25.47,10.93,2.2-1.25-3.29-8.79-9.01-17.02l-.21,.06s-13.44-3.16-24.06-14.64c-8.66-9.35-14.85-21.89-20.78-28.39-2.32,1.78-4.68,3.61-6.48,5.98-5.12,6.73,3.73,14.67,14.88,22.43h.01Z"/><path class="cls-7" d="M1244.53,1299.51l-26.32,70.82-34.36,92.47s-9.32,.9-18.25-1.67c-8.22-2.38-17.65-8.59-17.65-8.59,0,0,9.54-99.29,27.34-156.28,4.56-14.63,9.67-26.46,15.31-33.12,27.59-32.61,53.93,36.38,53.93,36.38h0Z"/><path class="cls-17" d="M1217.77,1187.04c-17.24-5.56-69.2-2.24-118.6,7.43l-7.56-13.24-106.7-8.33s-35.21,78.08-15.93,127.83c2.83,7.31,8.46,12,18.06,12.16h1.56s63.51-.04,84.13-.04c53.06,0,112.3-36.48,119.96-38.01,12.54-2.51,17.56,22.58,30.1,48.92,12.54,26.34,117.9,116.65,117.9,116.65,0,0,16.19,.16,22.88-2.35,7.19-2.7,9.83-6.2,9.83-6.2,0,0-116.75-232.27-155.63-244.82h0Z"/><path class="cls-2" d="M1054.24,858.26c-15.02-3.58-35.41,.62-38.8,1.02-40.52,4.73-49.58,67.67-46.57,85.28,5.55,32.45-10.03,41.59-28.63,67.54-37.29,52.04-11.53,94.88,18.82,105.5,18.21,6.37,43.03-10.98,43.03-10.98,.46,.17,64.43-60.9,96.07-90.57,53.19-21.92-5.66-148.67-43.93-157.79h.01Z"/><path class="cls-32" d="M1062.92,1006.66c.19,.06-16.5,10.96-30.1,8.67-12.79-2.15-26.33-18.84-26.16-18.89,5.17-1.58,9.74-7.61,6.51-38.74l2.43,.23,40.88,3.92s.35,12.71,1.52,24.59c.97,9.98,2.53,19.38,4.92,20.22h0Z"/><path class="cls-23" d="M1056.49,961.84s.35,12.71,1.52,24.59c-22.5,1.62-36.4-17.66-42.4-28.52l40.88,3.92h0Z"/><path class="cls-32" d="M1065.1,972.35s-52.98,6.19-56.33-26.86c-3.35-33.06-12.44-54.52,21.25-59.87s41.55,6.6,45.35,17.36c3.8,10.76,3.43,66.91-10.26,69.38h-.01Z"/><path class="cls-2" d="M1069.05,885.99s-25.59,36.63-47.31,44.6c-21.73,7.97-32,2.96-32,2.96,0,0,10.36-14.27,13.78-33.91,1.01-5.79,5.03-10.61,10.57-12.55,15.58-5.44,45.61-13.77,54.96-1.11h0Z"/><path class="cls-2" d="M1047.9,888.69s13.68,7.81,19.14,14.8c5.27,6.74,10.9,24.65,10.09,32.54,0,0,8.62-37.6-5.18-51.28-14.63-14.51-24.05,3.95-24.05,3.95h0Z"/><path class="cls-1" d="M1103.66,1094.36c-1.6,107.03-.44,84.66-12.15,94.82-2.82,2.45-10.75,3.9-21.19,4.59-32.82,2.18-90.51-3.23-92.7-9.29-7.57-20.99-2.23-27.5-8.54-59.63-.66-3.42-1.47-7.12-2.43-11.14-5.27-22.07-10.39-29.57,8.29-65.02,16.94-32.11,35.24-57.76,36.82-56.82,44.7,26.53,47.61,3.82,47.61,3.82,0,0,45.07,46.48,44.29,98.69v-.02Z"/><path class="cls-17" d="M1218.21,1370.33l-35.14,96.32s-12.62,4.11-21.82,2.78c-9.37-1.36-14.5-6.47-14.5-6.47,0,0,10.74-109.7,28.53-166.69l42.93,74.07h0Z"/><path class="cls-1" d="M1059.37,995.67s45.99,7.8,51.39,27.6c5.4,19.8,44.9,128.92,44.9,128.92,0,0-31.09,11.49-41.9,.69-10.8-10.8-37.58-100.21-37.58-100.21l-16.81-57Z"/><path class="cls-22" d="M1070.32,1193.77c-32.82,2.18-90.51-3.23-92.7-9.29-7.57-20.99-2.23-27.5-8.54-59.63l15.39-35.05s-2.18,40.11,12.46,53.16c14.62,13.05,59.93,25.2,67.05,36.11,3.43,5.23,5.69,10.48,6.35,14.7h-.01Z"/><g><path class="cls-32" d="M1073,1170.93s9.77,8.43,12.56,9.11c2.78,.68,4.36,.05,4.36,.05l-7.12-8.34-9.79-.82h-.01Z"/><path class="cls-32" d="M1069.12,1161l24.75,6.39s-.64,1.76-3.44,2.2c-2.8,.43-10.32-.71-10.32-.71l-10.99-7.87h0Z"/><path class="cls-32" d="M1027.16,1174.64s35.33-15.72,41.96-13.64,23.64,11.08,26.31,14.87-13.93-.47-19.11-.8c-3.36-.21-11.15,4.4-15.02,6.62-16.28,9.35-27.59,8.52-27.59,8.52l-6.55-15.57Z"/></g><path class="cls-1" d="M1011.76,991.86s-49.98,9.38-59.24,23.23c-20.2,30.23-63.21,155.47-39.12,172.26,27.12,18.91,123.45,4.95,123.45,4.95,0,0,3.21-14.98-1.25-22.23s-76.93-18.96-80.28-22.3c-3.34-3.34,33.04-51.71,29.17-60.97-12.42-29.66,27.29-94.95,27.29-94.95h-.02Z"/><g><path class="cls-32" d="M1209.35,1169.3s34.98,9.45,38.57,14.88c3.6,5.43,10.64,22.03,10.34,26.36s-9.85-8.57-13.43-11.87c-2.32-2.14-10.71-3.39-14.83-4.06-10.4-1.69-15.41-6.45-19.31-8.81-2.61-1.59-5.79-1.29-5.79-1.29l4.44-15.2h.01Z"/><path class="cls-32" d="M1244.87,1193.69s2.12,11.91,3.75,14.04c1.62,2.14,3.14,2.62,3.14,2.62l-.25-10.28-6.64-6.38Z"/><path class="cls-32" d="M1247.92,1184.18l14.22,19.27s-1.51,.9-3.8-.44-7.08-6.61-7.08-6.61l-3.34-12.22h0Z"/><path class="cls-32" d="M1210.7,1185.79s3.24,7.87,9.72,10.69c6.47,2.82,11.23,7.06,12.27,5.54s-4.9-9.54-4.9-9.54l-17.08-6.68h-.01Z"/></g><path class="cls-1" d="M1146.37,1126.39l73.56,46.51s-7.73,10.34-10.31,11.28c-13.62,5-74.89,.21-95.87-31.29l32.61-26.5h.01Z"/><g><path class="cls-29" d="M1117.22,1176.93c4.34,0,47.52-2.99,47.52-2.99,0,0-1.25,7.65,1.42,11.75l-42.08,8.05-8.65-2.54,1.78-14.27h0Z"/><g><path class="cls-10" d="M1045.2,1183.87l72.02-6.94s-2.53,13.32,6.87,16.8l-79.4,5.81s-6.39-9.01,.51-15.67h0Z"/><path class="cls-10" d="M1164.62,1174.89l-48.67,3.75s.37-1.68,1.27-1.7c.91-.02,48.35-3.47,48.35-3.47l-.17,1.33-.79,.1h.01Z"/><polygon class="cls-10" points="1124.09 1193.74 1166.95 1185.59 1166.55 1184.48 1120.87 1193.23 1124.09 1193.74"/></g></g></g></g><g><g><path class="cls-8" d="M625.27,1564.37h-.39c-2.28,0-4.12-1.89-4.06-4.18l6.16-268.66,18.15-2.13-15.48,270.81c-.13,2.34-2.06,4.16-4.38,4.16h0Z"/><path class="cls-8" d="M519.49,1564.37h-.39c-2.28,0-4.12-1.89-4.06-4.18l6.16-268.66,18.15-2.13-15.48,270.81c-.13,2.34-2.06,4.16-4.38,4.16h0Z"/><path class="cls-8" d="M811.38,1564.37h.39c2.28,0,4.12-1.89,4.06-4.18l-6.16-268.66-18.15-2.13,15.48,270.81c.13,2.34,2.06,4.16,4.38,4.16h0Z"/><path class="cls-8" d="M507.46,1274.87v-184.1c0-32.39,26.11-58.65,58.31-58.65h131.87c32.21,0,58.31,26.26,58.31,58.65v191.13l-248.49-7.03Z"/><path class="cls-8" d="M507.46,1274.87h272.12v29.06h-254.56c-9.69,0-17.56-7.87-17.56-17.56v-11.5h0Z"/><rect class="cls-8" x="604.52" y="1274.87" width="218.51" height="29.06" rx="12.98" ry="12.98"/></g><g><path class="cls-29" d="M706.51,964.12s-11.04,9.39-13.43,33.74c-1.82,18.49,11.01,162.03,20.66,173.44,27.15,32.1,61.19,18.54,74.52,23.41l12.58-11.3s-44.22-32.64-47.58-43.28c-12.95-40.99-4.92-160.52-46.74-176h-.01Z"/><path class="cls-16" d="M698.58,847.04s.75-26.33-33.97-31.49c-34.72-5.17-44.31,2.95-50.21,11.81-5.9,8.85-16.97,45.01-15.86,59.4s40.71,32.18,40.06,40.58c-.65,8.4,59.99-80.29,59.99-80.29h0Z"/><path class="cls-32" d="M859.61,1541.66c-1.13,8.9,11.01,11.51,25.12,12.75s9.74,4.03,28.99,8.31c19.25,4.29,27.21-.83,28.7-3.44,1.33-2.32-7.54-6.35-17-10.88-1.19-.57-2.38-1.15-3.57-1.73-10.63-5.23-16.35-15.32-24.45-24.77-7.67-8.95-14.26-36.97-14.26-36.97l-26.13-6.69s6.51,25.23,8.7,35.98c1.29,6.32-1.19,13.25-3.36,18.51-1.17,2.86-2.35,5.79-2.74,8.93h0Z"/><path class="cls-17" d="M884.73,1554.41c14.11,1.24,9.74,4.03,28.99,8.31,19.25,4.29,27.21-.83,28.7-3.44,1.33-2.32-7.54-6.35-17-10.88l-.16,.16s-13.79,4.21-29.36-.72c-12.69-4.01-24.81-12.27-33.55-15.11-1.17,2.86-2.35,5.79-2.74,8.93-1.13,8.9,11.01,11.51,25.12,12.75h0Z"/><path class="cls-31" d="M663.98,1178.96s174.68,18.12,203.48,44.86c28.79,26.74,23.66,275.87,23.66,275.87-4.48,4.65-7.79,4.54-14.87,3.99-6.8-.53-20.65-6.38-20.65-6.38,0,0-37.41-122.33-37.88-150.65-.47-28.33-6.38-76.39-18.27-79.22-11.88-2.83-153.3,13.02-168.8-31.65s10.24-81.42,10.24-81.42l23.09,24.6h0Z"/><path class="cls-29" d="M582.38,1223.9c7.54,5.05,21.01,12.83,43.63,13.63,40.47,1.47,90.96-3.35,100.9-12.74,2.58-2.42,3.84-6.44,4.2-11.53,1.1-15.53-6.32-41.07-11.3-62.21-3.23-13.74-5.43-25.6-3.63-31.67,5.49-18.46,22.55-56.08,24.02-68.45,1.47-12.36-13.28-78.61-33.68-86.81-20.41-8.21-99.14,0-99.14,0-30.76,6.24-32.05,71.82-21.84,127.64,.27,1.44,.53,2.87,.81,4.28,11.07,56.68-24.99,113.76-3.96,127.85h-.01Z"/><g><path class="cls-32" d="M684.1,976.18c-.55,3.6-10.4,9.43-31.44,3.88-20.17-5.32-22.59-11.88-22.58-16.22,0-5.13,8.76-12.05,8.65-43.63l2.42,.48,40.66,8.05s-.93,12.79-.95,24.85c-.03,10.12,4.17,16.61,3.25,22.6h0Z"/><path class="cls-23" d="M681.8,928.74s-.93,12.79-.95,24.85c-22.75-.64-34.78-21.4-39.71-32.9l40.66,8.05h0Z"/><path class="cls-32" d="M689.4,940.15s-53.83,.89-53.87-32.64-7.01-56,27.36-57.98,41.06,10.8,43.79,21.99-3.28,67.54-17.28,68.63h0Z"/><path class="cls-16" d="M687.4,848.71s-14.74,39.34-37.36,45.15c-22.62,5.82-32.43-.24-32.43-.24,0,0,17.35-13.78,20.95-37.84,0,0,37.72-25.79,48.84-7.07h0Z"/><path class="cls-16" d="M683.75,851.9s11.01,8.78,13.69,17.32,3.89,26.12,9.01,25.52c0,0,11.1-26.74-1.37-41.86-13.23-16.04-21.33-.98-21.33-.98h0Z"/></g><path class="cls-32" d="M728.42,1548.97c-.13,8.97,12.22,10.17,26.38,9.78,14.16-.4,10.12,2.88,29.73,4.92,19.6,2.04,26.94-3.96,28.14-6.73,1.07-2.46-8.2-5.44-18.1-8.85-1.25-.42-2.49-.87-3.74-1.31-11.15-3.97-17.95-13.34-27.05-21.8-8.62-8.01,10.41-46.78,10.41-46.78l-24.94-12.34s-4.73,27.68-10.82,51.89c-1.57,6.26-6.7,16.56-8.27,22.04-.84,2.98-1.69,6.03-1.73,9.19h-.01Z"/><path class="cls-24" d="M583.46,1217.23c7.54,5.05,19.94,19.49,42.55,20.3,37.32-8.49,79.81-18.37,105.09-24.27,1.1-15.53-6.32-41.07-11.3-62.21-29.48,9-73.34-21.66-88.08-33.78-15.5-12.73-15.01-55.14-15.01-55.14l-31.18,29.64c.27,1.44,.53,2.87,.81,4.28,11.07,56.68-23.91,107.1-2.88,121.19h0Z"/><path class="cls-17" d="M754.79,1558.74c14.16-.4,10.12,2.88,29.73,4.92,19.6,2.04,26.94-3.96,28.14-6.73,1.07-2.46-8.2-5.44-18.1-8.85l-.14,.18s-13.24,5.77-29.26,2.67c-13.06-2.52-26.02-9.33-35.02-11.15-.84,2.98-1.69,6.03-1.73,9.19-.13,8.97,12.22,10.17,26.38,9.78h0Z"/><path class="cls-10" d="M626.29,1189.62c44.35-1.26,176.81,9.31,202.26,28.5,31.32,23.62-58.16,279-58.16,279,0,0-10.39,1.01-13.68,.63-14.21-1.61-20-5.94-20-5.94,0,0,.35-150.32,10.8-179.07,9.66-26.57,15.58-35.97,3.48-37.55s-163.16,17.68-175.77-27.92c-9.85-35.62,4.7-68.59,4.7-68.59,0,0,5.45,12.1,46.36,10.93h.01Z"/><path class="cls-29" d="M607.37,964.12s-30.81,2.62-33.21,26.97c-1.82,18.49-15.22,149.64-5.57,161.04,27.15,32.1,117.7,38.9,131.03,43.77l3.67-15.18s-96.66-48.7-95.19-59.77c1.48-11.07,28.81-161.22-.74-156.83h.01Z"/><path class="cls-16" d="M631.16,828.79s2.21-14.05-17.27-17.67-19.84,37.75-21.93,47.73c-2.09,9.98,3.12,15.95,10.54,16.56,7.43,.61,28.66-46.62,28.66-46.62h0Z"/><g><path class="cls-32" d="M704.35,1180.05s27.53-7.79,34.09-5.97c6.56,1.82,29.02,16.7,25.87,20.74-3.16,4.04-22.95-2.42-32.06-1.2-9.11,1.22-16.15,5.72-22.71,4.75s-13.41-3.55-13.41-3.55l8.23-14.77h-.01Z"/><path class="cls-32" d="M704.35,1180.05s13.47-6.92,17.3-10.86c.48-.5,1.3-.39,1.67,.19,1.03,1.62,1.99,4.75-2.74,7.85-6.8,4.47-16.24,2.81-16.24,2.81h.01Z"/></g><path class="cls-32" d="M800.83,1183.4s28.57,1.56,34.18,5.41,22.04,25.21,17.74,28.01-20.92-9.74-29.94-11.53c-9.01-1.8-17.13,.17-23.02-2.88s-11.54-7.71-11.54-7.71l12.58-11.3Z"/></g></g><g><g><path d="M604.58,1566.72h-116.24c-5.59-6.82-3.53-32-2.68-40.22,.17-1.66,.29-2.62,.29-2.62,0,0,39.69-31.75,45.14-7.44,.17,.76,.37,1.51,.59,2.24,6.87,22.74,37.68,33.07,55.47,35.95,11.57,1.88,15.84,7.89,17.42,12.08h.01Z"/><path class="cls-7" d="M287.42,1189.03c4.2,0,199.11,36.6,231.35,76.5,16.11,19.94,18.5,250.18,18.5,250.18,0,0-19.93,24.71-62.96,10.36,0,0-31.55-157.53-29.22-205.31,.64-13.21-133.17-1.91-157.66-8.25-24.49-6.34-84.33-59.62-71.15-85.58,13.19-25.96,71.15-37.91,71.15-37.91h-.01Z"/><path class="cls-32" d="M428.54,1178.21s12.47,10.76,25.27,13.81c7.3,1.74,14.36,3.71,18.57,5.64,11.57,5.31,33.53,29.03,31.49,31.38-6.55,7.56-32.91-12.13-37.96-10.74-5.04,1.39,8.27,12.83,2.99,15.94-2.76,1.62-7.96-8.26-12.82-9.65-6.58-1.88-10.95-11.82-12.92-12.5-3.84-1.32-19.85-15.68-19.85-15.68l5.24-18.2h-.01Z"/><path d="M655.95,1566.72h-116.24c-5.59-6.82-3.53-32-2.68-40.22,.17-1.66,.29-2.62,.29-2.62,0,0,39.69-31.75,45.14-7.44,.17,.76,.37,1.51,.59,2.24,6.87,22.74,37.68,33.07,55.47,35.95,11.57,1.88,15.84,7.89,17.42,12.08h.01Z"/><path class="cls-17" d="M344.85,1189.03c4.2,0,199.11,36.6,231.35,76.5,16.11,19.94,18.5,250.18,18.5,250.18,0,0-19.93,24.71-62.96,10.36,0,0-31.55-157.53-29.22-205.31,.64-13.21-133.17-1.91-157.66-8.25-24.49-6.34-84.33-59.62-71.15-85.58,13.19-25.96,71.15-37.91,71.15-37.91h-.01Z"/><path class="cls-32" d="M332.65,952.17c-14.02-1.16-28.72-4.89-41.43-9.02-15.88-5.15-28.69-12.69-20.44-27.2,7.6-13.38,19.91-43.27,19.08-68.03l29.56,23.82,20.08,16.18s-.08,9.54-2.28,26.25c-.4,3.05-.87,6.34-1.42,9.85-.45,2.84,.86,5.67,3.3,7.19,.15,.09,.3,.19,.45,.28,9.98,6.27,4.85,21.65-6.9,20.68h0Z"/><path class="cls-23" d="M339.5,883.98s1.03,3.46-.74,16.25c-17.9-2.92-34.63-17.2-34.63-17.2,9.11-2.5,12.43-12.35,19.21-11.43l16.15,12.38h.01Z"/><path class="cls-32" d="M356.05,886.89s-68.85,11.44-75.31-31.55c-6.46-42.98-19.7-70.46,23.98-79.58,43.68-9.12,54.71,6,60.36,19.82,5.65,13.82,8.71,87.22-9.03,91.31h0Z"/><path class="cls-20" d="M375.21,776.57c2.96,10.35-4.96,22.96-18.24,27.11-19.72,6.16-15.36,30.35-24.23,30.02-8.87-.33-12.45-13.9-20.37-3.06-6.76,9.25,5.63,20.21,4.77,25.29-1.46,8.71-15.1,26.52-27.4,25.63-12.29-.89-35.29-59.31-30.69-77.38s23-37.13,40.42-39.76c17.42-2.63,41.6,4.89,47.19,4.89s26.96,1.68,28.55,7.27h0Z"/><path class="cls-1" d="M392.29,1176.14c-1.15,9.92-3.24,16.67-6.52,18.86-10.26,6.87-23.87,15.42-39.06,23.88-53.85,30.03-127.58,59.01-142.58,8.26-17.62-59.61-6.04-171.54,11.23-241.06,9.94-40.05,37.45-82.08,56.05-82.03,31.69,.05,77.24,8.42,95.63,53.79,7.12,17.58,17.59,78.48,22.93,134.28,3.19,33.24,4.55,64.66,2.32,84.02Z"/><path class="cls-33" d="M268.21,904.44l7.17-16.16s63.61,6.48,74.4,43.03c0,0-49.17-26.08-81.58-26.86h0Z"/><path class="cls-33" d="M392.29,1176.14c-1.15,9.92-3.24,16.67-6.52,18.86-10.26,6.87-23.87,15.42-39.06,23.88-15.85-9.63-48.39-32.62-56-59.72-9.94-35.43-2.97-79.02-2.97-79.02l104.55,95.98v.02Z"/><path class="cls-1" d="M281.11,958.95s5.52,152.25,14.18,182.36c14.76,51.33,149.42,69.61,149.42,69.61,0,0,7.94-9,4.39-23.93,0,0-80.5-63.45-82.86-75.53-2.35-12.08,17.54-93.94-5.2-123.7-22.74-29.77-64.66-55.56-79.93-28.81h0Z"/></g><g><path class="cls-8" d="M112.3,1565.27h-.44c-3.63-.08-6.43-3.04-6.08-6.45l24.19-241.59,21.11,1.88-34.74,242.89c-.27,1.9-2.01,3.3-4.04,3.27h0Z"/><path class="cls-8" d="M236.81,1565.27h-.44c-3.63-.08-6.43-3.04-6.08-6.45l24.19-241.59,21.11,1.88-34.74,242.89c-.27,1.9-2.01,3.3-4.04,3.27h0Z"/><path class="cls-8" d="M470.56,1565.27h.44c3.63-.08,6.43-3.04,6.08-6.45l-24.19-241.59-21.11,1.88,34.74,242.89c.27,1.9,2.01,3.3,4.03,3.27h0Z"/><path class="cls-8" d="M119.13,1283.01l-22.96-201.78c-3.01-29.08,6.72-57.55,48.68-59.75l73.82-4.5c43.75-1.81,63.51,34.61,69.05,62.64l43.82,221.81-212.41-18.42h0Z"/><path class="cls-8" d="M459.11,1320.76H131.47c-6.61,0-11.97-5.36-11.97-11.97v-26.71H459.11c6.61,0,11.97,5.36,11.97,11.97v14.74c0,6.61-5.36,11.97-11.97,11.97Z"/><path class="cls-8" d="M322.25,1320.76H128.79c-5.13,0-9.29-4.16-9.29-9.29v-29.38h202.75c5.13,0,9.29,4.16,9.29,9.29v20.08c0,5.13-4.16,9.29-9.29,9.29h0Z"/></g></g><path class="cls-14" d="M20.38,1563.66H2936.88c2.27,0,4.12,1.85,4.12,4.12v3.75c0,2.27-1.85,4.12-4.12,4.12H20.38c-2.27,0-4.12-1.85-4.12-4.12v-3.75c0-2.27,1.85-4.12,4.12-4.12Z"/><g><rect class="cls-8" x="515.42" y="541.66" width="132.36" height="128.41" rx="9.47" ry="9.47"/><path class="cls-30" d="M529.81,547.23h103.59c4.77,0,8.65,3.87,8.65,8.65v99.99c0,4.77-3.87,8.65-8.65,8.65h-103.59c-4.77,0-8.65-3.87-8.65-8.65v-99.99c0-4.77,3.87-8.65,8.65-8.65h0Z"/><g><g><circle class="cls-8" cx="581.6" cy="558.94" r="2.74"/><path class="cls-8" d="M600.98,562.82c.74-1.32,2.4-1.8,3.73-1.06,1.32,.74,1.8,2.4,1.06,3.73-.74,1.32-2.4,1.8-3.73,1.06-1.32-.74-1.8-2.4-1.06-3.73Z"/><path class="cls-8" d="M619.94,577.88c1.27-.82,2.97-.45,3.79,.82s.45,2.97-.82,3.79-2.97,.45-3.79-.82-.45-2.97,.82-3.79Z"/><path class="cls-8" d="M629.33,601.18c1.51,0,2.74,1.23,2.74,2.74s-1.23,2.74-2.74,2.74-2.74-1.23-2.74-2.74,1.23-2.74,2.74-2.74Z"/><circle class="cls-8" cx="622.59" cy="630.17" r="2.74"/><path class="cls-8" d="M607.31,645.49c1.07,1.07,1.07,2.81,0,3.88s-2.81,1.07-3.88,0-1.07-2.81,0-3.88,2.81-1.07,3.88,0Z"/><circle class="cls-8" cx="581.6" cy="654.39" r="2.74"/></g><g><path class="cls-8" d="M562.13,562.82c-.74-1.32-2.4-1.8-3.73-1.06-1.32,.74-1.8,2.4-1.06,3.73,.74,1.32,2.4,1.8,3.73,1.06,1.32-.74,1.8-2.4,1.06-3.73Z"/><path class="cls-8" d="M543.18,577.88c-1.27-.82-2.97-.45-3.79,.82s-.46,2.97,.82,3.79c1.27,.82,2.97,.45,3.79-.82s.46-2.97-.82-3.79Z"/><path class="cls-8" d="M533.79,601.18c-1.51,0-2.74,1.23-2.74,2.74s1.23,2.74,2.74,2.74,2.74-1.23,2.74-2.74-1.23-2.74-2.74-2.74Z"/><circle class="cls-8" cx="540.52" cy="630.17" r="2.74"/><path class="cls-8" d="M555.8,645.49c-1.07,1.07-1.07,2.81,0,3.88s2.81,1.07,3.88,0,1.07-2.81,0-3.88-2.81-1.07-3.88,0Z"/></g></g><g><path class="cls-8" d="M580.86,603.93c0-1.51,1.23-2.74,2.74-2.74s2.74,1.23,2.74,2.74-1.23,2.74-2.74,2.74-2.74-1.23-2.74-2.74Z"/><rect class="cls-8" x="583.23" y="569.67" width=".75" height="34.25"/><rect class="cls-8" x="580.8" y="595.63" width="23.08" height="2.25" transform="translate(-242.07 493.08) rotate(-38.13)"/></g></g></svg>