<?xml version="1.0" encoding="utf-8"?>
<!-- Generator: Adobe Illustrator 26.3.1, SVG Export Plug-In . SVG Version: 6.00 Build 0)  -->
<svg version="1.1" id="Layer_1" xmlns="http://www.w3.org/2000/svg" xmlns:xlink="http://www.w3.org/1999/xlink" x="0px" y="0px"
	 viewBox="0 0 2986 1573.4" style="enable-background:new 0 0 2986 1573.4;" xml:space="preserve">
<style type="text/css">
	.st0{opacity:0.5;fill:#F1F1F1;enable-background:new    ;}
	.st1{fill:#D1D1D1;}
	.st2{fill:#E8E8E8;}
	.st3{fill:#6D2F00;}
	.st4{fill:#999999;}
	.st5{fill:#233862;}
	.st6{fill:#FFB27D;}
	.st7{fill:#AF4138;}
	.st8{fill:#ED975D;}
	.st9{fill:#FF6600;}
	.st10{fill:#ED6000;}
	.st11{fill:#747575;}
	.st12{fill:#D86713;}
	.st13{fill:#FF7300;}
	.st14{fill:#FF6000;}
	.st15{fill:#CE4A00;}
	.st16{fill:#F1A34F;}
	.st17{opacity:0.4;fill:#D86713;enable-background:new    ;}
	.st18{fill:#8E8E8E;}
	.st19{fill:#E0E0E0;}
	.st20{fill:#FF9100;}
	.st21{fill:#E9F3FE;}
	.st22{fill:#424242;}
	.st23{fill:#303030;}
	.st24{fill:#C65447;}
	.st25{fill:#FFFFFF;}
	.st26{fill:#E2915A;}
	.st27{fill:#F99746;}
	.st28{fill:#E1E1E1;}
	.st29{fill:#262626;}
	.st30{fill:#3A3A3A;}
	.st31{fill:#441B00;}
	.st32{fill:#EBF3FF;}
	.st33{fill:#ED7D2B;}
	.st34{fill:#B5B5B5;}
	.st35{fill:#BC3F3F;}
	.st36{fill:#EF9E67;}
	.st37{fill:#F1F1F1;}
	.st38{fill:#9B2323;}
	.st39{fill:#2E3552;}
	.st40{fill:#FF8B00;}
	.st41{fill:#BCBCBC;}
	.st42{fill:#FF9843;}
	.st43{fill:#FFC48A;}
</style>
<path class="st0" d="M2853.4,1563.4L2853.4,1563.4c-0.2,0.4-0.4,0.8-0.7,1.2c-1.6,2.9-3.3,5.8-5,8.8l-2617.8-0.8
	c0,0-2.6-2.8-7.1-8.3c-0.3-0.3-0.5-0.6-0.8-0.9c-11.7-14-35.2-43.6-62.8-85.2c0,0,0,0,0,0C86.2,1367.6-15.1,1171.8,1.9,954.5
	c4.8-61.3,19-124.4,46-187.7c81.8-192.1,325.7-321.6,545.5-324.2c85.1-1,166.5,17,233.5,57.7c11.9,7.2,26.8,12.8,44.2,16.6
	c14.7,3.2,31,5.2,48.8,5.8c142.7,5,374.9-75.4,512.5-277.8c73.1-107.5,185.3-177.8,314.4-214.4c6-1.7,12.1-3.3,18.1-4.9
	c29.3-7.5,59.5-13.4,90.2-17.5c5.5-0.8,11.1-1.4,16.6-2.1c136.1-15.8,281.9,0.5,415.7,45.7c17.6,5.9,35,12.4,52.2,19.3
	c251.7,101.9,447.5,310,430.2,600.6c-0.7,11.5-1.7,23.1-3.1,34.9c-2.6,22.4-6.4,45.2-11.5,68.5c-3,13.7-6.5,27.6-10.5,41.7
	C2641.1,1185,3055.7,1201.6,2853.4,1563.4z"/>
<path class="st1" d="M871.1,516.8v1047.5H222.8c-0.3-0.3-0.5-0.6-0.8-0.9c-11.7-14-35.2-43.6-62.8-85.2c0,0,0,0,0,0
	C86.2,1367.6-15.1,1171.8,1.9,954.5c4.8-61.3,19-124.4,46-187.7c81.8-192.1,325.7-321.6,545.5-324.2c84.3,0.9,164.6,19.1,231.3,57.7
	C837.2,507.5,852.9,513.1,871.1,516.8L871.1,516.8z"/>
<path class="st2" d="M2893.6,1565.5h-2042l16.8-615.8V775.5h75.9v-136h151.5V755h46.3V541.4h10v-14.9h1.8v14.9h36.5v-14.9h1.8v14.9
	h51.7v-14.9h1.8v14.9h32.6v-14.9h1.8v14.9h13.3v199.4h51.1v-32.2l60.3,0.3v-52.2h12.1v-10.3h1.6v10.3h55.9v-10.4h1.6v10.4h11.3
	v103.9h71.8v38.2h39.9v-22.2h37v-88.2h18.5v-41.1h2.7v41.1h44.2v-77.1h4.4v77.1h29.2v-1.1h-0.1v-9.8h0.1v-9.3h-0.1v-15.4h0.1V643
	h-0.1v-15.4h0.1v-9.8h-0.1v-15.4h0.1v-10.6h-0.1v-15.4h0.1v-13.5h-0.1v-15.5h0.1v-10.2h8.7v-11.5h1.4v11.5h64.6v-11.5h1.4v11.5h11.8
	v80.6l8.3,0.1v-0.1h-0.1v-15.4h0.1v-10.6h-0.1v-15.4h0.1v-10.6h-0.1v-15.4h91.9c0.7,0.4,1.4,0.8,2.1,1.2v102.8h14.4v-14.8h165.3
	v115.5h50.5V541.4h11v-14.9h2v14.9h39.8v-14.9h2v14.9h56.5v-14.9h2v14.9h35.6v-14.9h2v14.9h14.6v199.4h55.8v-32.2l65.8,0.3v-52.2
	h13.2v-10.3h1.8v10.3h60.9v-10.3h1.7v10.4h12.2v103.9h78.4v38.2h43.5v-22.2h40.4v-88.2h20.2v-41.1h3v41.1h48.3v-77.1h4.7v77.1h23.8
	c-2.6,23.6-6.3,47.6-11.5,72.1c-3,14.5-6.5,29.1-10.4,43.8C2671.8,1183.4,3064.4,1208.7,2893.6,1565.5L2893.6,1565.5L2893.6,1565.5z
	"/>
<g>
	<path class="st3" d="M1242.8,926.6c25.2-25.2,1.3-73.3-16.7-68.5s-33.4-13.8-55-1.8s-35.1,16-35.6,39.8
		c-0.6,23.7-11.3,45.3,0.6,53.8s-3.3,21,23.9,25c27.3,4,39,9.9,52.1-6.5S1242.8,926.6,1242.8,926.6L1242.8,926.6z"/>
	<g>
		<g>
			<path class="st4" d="M1195.1,1562.5h-0.3c-2,0-3.7-1.7-3.6-3.7l5.5-242l16.2-1.9l-13.8,243.9
				C1198.9,1560.9,1197.2,1562.5,1195.1,1562.5L1195.1,1562.5L1195.1,1562.5z"/>
			<path class="st4" d="M1100.7,1562.5h-0.3c-2,0-3.7-1.7-3.6-3.7l5.5-242l16.2-1.9l-13.8,243.9
				C1104.5,1560.9,1102.7,1562.5,1100.7,1562.5L1100.7,1562.5L1100.7,1562.5z"/>
			<path class="st4" d="M1361.2,1562.5h0.3c2,0,3.7-1.7,3.6-3.7l-5.5-242l-16.2-1.9l13.8,243.9
				C1357.4,1560.9,1359.2,1562.5,1361.2,1562.5L1361.2,1562.5L1361.2,1562.5z"/>
			<path class="st4" d="M1089.9,1302v-163.4c0-28.8,23.3-52.1,52.1-52.1h117.7c28.8,0,52.1,23.3,52.1,52.1v169.6L1089.9,1302
				L1089.9,1302z"/>
			<path class="st4" d="M1089.9,1302h242.9v25.8h-227.3c-8.6,0-15.6-7-15.6-15.6V1302L1089.9,1302L1089.9,1302z"/>
			<path class="st4" d="M1188.1,1302H1360c6.4,0,11.6,5.2,11.6,11.6v2.7c0,6.4-5.2,11.6-11.6,11.6h-171.9c-6.4,0-11.6-5.2-11.6-11.6
				v-2.7C1176.6,1307.2,1181.8,1302,1188.1,1302z"/>
		</g>
		<g>
			<path class="st5" d="M1353.4,1261.3c-16.9,29.3-38.1,40.7-38.1,40.7h-88.2C1227.1,1302,1366.3,1239,1353.4,1261.3L1353.4,1261.3
				L1353.4,1261.3z"/>
			<g>
				<path class="st6" d="M1290.9,1490.5c-2.3,2.6-4.6,2.5-3.5,5.7l2,0.8c2.1,5.8,7.9,7.5,16,14c1,0.8,1.4,2.3,2.2,3
					c0.2,0.2,0.5,2,0.7,2.2c0.2,0.1,1.8,2,2,2.2c7.5,6.9,1.6,4.4,15.2,18.5c15.4,16.1,18.7,16.5,21.7,15c2.6-1.2,2.8-4.9-3-14.5
					c-0.3-0.5-0.6-0.9-0.8-1.4c-0.8-1.3-1.5-2.6-2.3-3.8c-6.7-11.5-5-16.9-3.4-34.1c1.3-13.9,21.7-77.8,21.7-77.8l-29.6-5.1
					c0,0-8.9,50.9-18.7,58.7c-5.2,4.2-11.1,4.2-16.2,7.3c-0.4,0.2-0.7,0.4-1.1,0.7C1290.9,1483.8,1293.2,1487.9,1290.9,1490.5
					L1290.9,1490.5L1290.9,1490.5z"/>
				<path class="st7" d="M1285.6,1488.4c-2.3,2.6-2.6,5.6-1.4,8.7l0,0c2.6,5.8,9.3,12.3,17.2,18.7c1,0.8,1.9,1.6,2.7,2.3l0.6,0.6
					c0.2,0.1,0.3,0.3,0.5,0.4c7.5,6.9,4.7,8.5,18.2,22.6c15.4,16.1,26.1,16.3,29.1,14.9c2.6-1.2-2.6-9.8-8.4-19.3
					c-3-1.1-16.9-6.8-27.5-20.3c-9.3-11.8-15.5-27.1-21.8-35.9c-0.4,0.2-0.7,0.4-1.1,0.7C1290.8,1483.8,1287.9,1485.7,1285.6,1488.4
					L1285.6,1488.4L1285.6,1488.4z"/>
				<path class="st6" d="M1525.9,1468.4c1.8,9.1,12,5.9,26.5,2.3s11-0.2,31.7-2.5s22.4-4.8,23-7.8c0.6-2.7-4-4.8-14.9-6
					c-1.4-0.2-2.8-0.3-4.2-0.5c-12.4-1.6-21.4-9.5-32.7-16.1c-10.7-6.2-26.5-31.5-26.5-31.5l-28.4,2.2c0,0,14.9,22.6,20.6,32.4
					c3.4,5.8,3.2,13.4,2.8,19.3C1523.6,1463.5,1525.2,1465.2,1525.9,1468.4L1525.9,1468.4z"/>
				<path class="st7" d="M1553.4,1474c14.5-3.6,11.1,0.7,31.8-1.6s26.9-10,27.6-13.1c0.6-2.7-9.7-3.7-20.6-4.9l-0.1,0.2
					c0,0-12.4,8.8-29.6,9.2c-14,0.3-28.9-3.7-38.6-3.5c-0.2,3.2-0.4,6.5,0.2,9.7C1525.8,1479.1,1538.8,1477.5,1553.4,1474
					L1553.4,1474L1553.4,1474z"/>
				<path class="st6" d="M1415.3,1288.6l-26.5,71.3l-40.9,97.3c0,0-3.1-3.2-12.1-5.8c-8.3-2.4-13.2-4.4-13.2-4.4s5.1-104.3,23-161.7
					c4.6-14.7,9.8-26.7,15.4-33.4C1388.8,1219.1,1415.3,1288.6,1415.3,1288.6L1415.3,1288.6z"/>
				<path class="st8" d="M1388.8,1359.9l26.5-71.3c0,0-8.7-22.6-21.2-36c-11.5-2.2-21.7-3.2-30.5-3.5c-0.9,0.8-1.7,1.8-2.6,2.8
					c-5.7,6.7-10.8,18.6-15.4,33.4c-1.2,3.7-2.2,7.6-3.3,11.6c21.2,4.8,36.7,50.7,35.5,89.3L1388.8,1359.9L1388.8,1359.9z"/>
				<path class="st6" d="M1388.3,1175.3c-17.4-5.6-66.9,1.6-116.7,11.3l-10.4-17.2l-107.5-8.4c0,0-35.5,78.7-16.1,128.8
					c2.8,7.4,8.5,12.1,18.2,12.2h86.4c53.5,0,113.1-36.8,120.9-38.3c12.6-2.5,17.7,22.8,30.3,49.3
					c12.6,26.5,122.5,119.6,122.5,119.6s12.6-1.9,19.3-4.5c7.2-2.7,9.9,0.4,9.9,0.4S1427.5,1187.9,1388.3,1175.3L1388.3,1175.3
					L1388.3,1175.3z"/>
				<path class="st6" d="M1232.2,997.1c0.2,0.1-16.5,11.2-30.2,9.1c-12.9-2-26.8-18.7-26.6-18.7c5.2-1.7,9.7-7.8,6.1-39.1l2.4,0.2
					l41.2,3.5c0,0,0.5,12.8,1.8,24.8C1228.1,986.8,1229.8,996.3,1232.2,997.1L1232.2,997.1L1232.2,997.1z"/>
				<path class="st8" d="M1225.2,952c0,0,0.5,12.8,1.8,24.8c-22.6,1.9-36.9-17.4-43.1-28.2L1225.2,952L1225.2,952L1225.2,952z"/>
				<path class="st6" d="M1234,962.5c0,0-53.3,6.9-57.1-26.4c-3.8-33.3-13.2-54.8,20.7-60.6c33.9-5.8,41.9,6.2,45.9,17
					C1247.4,903.3,1247.7,959.9,1234,962.5L1234,962.5z"/>
				<path class="st3" d="M1236.9,875.5c0,0-25.3,37.2-47.1,45.5s-32.2,3.4-32.2,3.4s10.3-14.5,13.5-34.3c0.9-5.8,4.9-10.8,10.5-12.8
					C1197.2,871.6,1227.3,862.9,1236.9,875.5L1236.9,875.5L1236.9,875.5z"/>
				<path class="st3" d="M1215.6,878.5c0,0,13.9,7.7,19.5,14.7c5.4,6.7,11.3,24.7,10.6,32.7c0,0,8.2-38-5.8-51.6
					C1224.9,859.8,1215.6,878.5,1215.6,878.5L1215.6,878.5L1215.6,878.5z"/>
				<path class="st9" d="M1145.5,1182.5c-23.6,38.3-29,109.9-7,120.2c22,10.2,167.2,4.5,197.1-4.1c29.2-18.5,65.9-94.8,65.9-94.8
					l-133-37.7C1196.5,1175.7,1145.5,1182.5,1145.5,1182.5L1145.5,1182.5z"/>
				<path class="st10" d="M1227.7,982.8c0,0,29.1,10.6,44.3,16.2c3.6,3,7.1,7.9,8.1,11.8c5.4,20,37.9,136.7,37.9,136.7
					s-24.6,19.3-35.4,8.5s-36.9-116.1-36.9-116.1L1227.7,982.8L1227.7,982.8L1227.7,982.8z"/>
				<path class="st9" d="M1284.5,1086.6c-25,104.9-11.6,80.6-23.4,90.8c-2.8,2.5-10.8,3.9-21.3,4.6c-33.1,2.2-91.2-3.2-93.4-9.4
					c-7.6-21.1,3.5-29.1-2.8-61.5c-0.7-3.4-7.2-5.8-8.2-9.8c-5.3-22.2-10.5-29.8,8.3-65.5c17.1-32.3,36.6-58.6,38.2-57.7
					c45,26.7,45.8,4.6,45.8,4.6S1293.2,1050.3,1284.5,1086.6L1284.5,1086.6L1284.5,1086.6z"/>
				<path class="st10" d="M1227.7,1205.2c-33.5,13.3-87.3,25.2-101.7,36.4c6-57.5,24-66.9,11.7-129l15.9-44.9c0,0-2.6,50,12.1,63.2
					s50.9,27.4,58,38.4C1227.3,1174.5,1227.1,1201,1227.7,1205.2L1227.7,1205.2z"/>
				<path class="st6" d="M1201.9,1161c0,0,32.6-7.3,37.9-4.4s18.1,13.4,19.7,17.1s-11.7-2.8-16.1-3.9c-2.8-0.8-10.2,1.8-13.9,3
					c-15.4,5.1-24.8,2.5-24.8,2.5L1201.9,1161L1201.9,1161L1201.9,1161z"/>
				<path class="st9" d="M1181.9,978.2c0,0-45.7,2.7-60.8,23.8c-21.3,29.8-63.7,156.6-39.4,173.6c27.3,19.1,124.4,5,124.4,5
					s3.2-15.1-1.3-22.4s-77.5-19.1-80.9-22.5s42.1-65.7,42.1-75.8S1181.9,978.2,1181.9,978.2L1181.9,978.2L1181.9,978.2z"/>
				<path class="st6" d="M1241.4,1165.7c0,0,6.8,8.8,9.1,9.9c2.2,1.1,3.7,0.8,3.7,0.8l-4.6-8.3L1241.4,1165.7L1241.4,1165.7z"/>
				<path class="st6" d="M1239.8,1156.6l19.9,9.7c0,0-0.8,1.4-3.3,1.3c-2.4-0.1-8.6-2.4-8.6-2.4L1239.8,1156.6z"/>
			</g>
			<g>
				<polygon class="st11" points="1250.4,1190.8 1407.6,1190.8 1454.9,1073.2 1298,1073.2 				"/>
				<path d="M1365.1,1130.3c1.2-4.1-1.2-7.5-5.3-7.5s-8.4,3.3-9.6,7.5c-1.2,4.1,1.2,7.5,5.3,7.5S1363.9,1134.4,1365.1,1130.3z"/>
				<polygon class="st5" points="1409.5,1186.2 1201.9,1186.2 1201.9,1190.8 1407.6,1190.8 				"/>
			</g>
		</g>
	</g>
	<g>
		<g>
			<path class="st12" d="M2396.7,876.6L2451,1522c0,0,5.7,39.1-23.4,39.2c-47.9,0.1-238.1,0-238.1,0s36-8.1,35.6-26.5
				c-0.5-21.6-63.4-664.2-63.4-664.2L2396.7,876.6L2396.7,876.6L2396.7,876.6z"/>
			<path class="st13" d="M2173.9,1549.5c9.4,0,191.2,0.6,237.8,0c20.3-0.2,23.9-18.1,24-29.6c0.1-5.5-0.6-9.6-0.6-9.6l-1.4-16.8
				l-3.6-42.8l-3.2-37.8l-4.1-48.5l-3.4-41l-38.6-458.6l-235.1-6.1c0,0,26.5,268.9,45.2,464.7c2.1,21.8,4.1,42.7,5.9,62.2
				c0.6,6.2,1.2,12.3,1.7,18.3c1.7,18.5,3.3,35.5,4.7,50.6c0.7,7.9,1.4,15.3,2,22c2.4,26.4,3.8,43.3,3.8,46.5c0,1.9-0.1,3.6-0.5,5.2
				C2204.8,1548.8,2177.5,1549.5,2173.9,1549.5L2173.9,1549.5L2173.9,1549.5z"/>
			<polygon class="st14" points="2967.7,525.4 2835.5,1056.5 2817.4,1129.2 2755.8,1376.6 1611.8,1376.6 1838.8,525.4 			"/>
			<polygon class="st15" points="2967.7,525.4 2986,531.5 2780.2,1395.1 2755.8,1376.6 			"/>
			<polygon class="st15" points="2780.2,1395.1 1643.2,1395.1 1611.8,1376.6 2755.8,1376.6 			"/>
			<rect x="2134.8" y="1549.7" class="st16" width="246.2" height="11.7"/>
			<polygon class="st16" points="1667.3,1219.7 1852.9,536.7 2969.5,536.7 2969.5,525.4 1838.8,525.4 1653.8,1218.2 			"/>
			<polygon class="st15" points="2197.3,1395 2198.6,1404 2430.1,1450.8 2426.9,1413 2425.4,1395 			"/>
			<path class="st17" d="M2173.9,1549.5c9.4,0,191.2,0.6,237.8,0c20.3-0.2,23.9-18.1,24-29.6l-230.4-43.3
				c2.4,26.4,3.8,43.3,3.8,46.5c0,1.9-0.1,3.6-0.5,5.2C2204.8,1548.8,2177.5,1549.5,2173.9,1549.5L2173.9,1549.5L2173.9,1549.5z"/>
			<polygon class="st17" points="2253.3,1204.3 2755.8,1376.6 2817.4,1129.2 			"/>
			<polygon class="st18" points="2967.7,525.4 1838.8,525.4 1655.6,1209.5 2803.2,1209.5 			"/>
		</g>
		<polygon class="st19" points="1708.9,1179.8 2765.9,1179.8 2885.6,703 2894.8,666.4 2902.6,635.2 2908.9,610.2 2921,562.1 
			1879.2,562.1 1878.4,564.7 1865.9,610.2 1859,635.2 1850.4,666.4 1840.3,703 		"/>
		<polygon class="st20" points="1865.9,610.2 2908.9,610.2 2921,562.1 1879.6,562.1 1878.4,564.7 		"/>
		<g>
			<path class="st21" d="M2892,586.2c1.3-5-1.8-9.1-6.9-9.1s-10.2,4.1-11.4,9.1s1.8,9.1,6.9,9.1S2890.7,591.2,2892,586.2z"/>
			<path class="st21" d="M2861.6,586.2c1.3-5-1.8-9.1-6.9-9.1s-10.2,4.1-11.4,9.1s1.8,9.1,6.9,9.1S2860.3,591.2,2861.6,586.2z"/>
			<path class="st21" d="M2828.9,586.2c1.3-5-1.8-9.1-6.9-9.1s-10.2,4.1-11.4,9.1s1.8,9.1,6.9,9.1S2827.6,591.2,2828.9,586.2z"/>
		</g>
		<g>
			<path class="st22" d="M2436.6,1181.5h104.5c1-8.2,1.9-16.8,2.7-25.8c1.4-16.2,2.5-33.5,3.3-51.6c0.2-4.2,0.4-8.4,0.5-12.6
				c0.2-5.4,0.4-10.8,0.5-16.3c0.2-9.3,0.5-18.7,0.6-28.2l0,0c0.2-12.1,0.3-24.2,0.3-36.3l0,0v-9.1l0,0v-8.5
				c-0.1-26.1-0.5-51.7-1-75.4c-1.2-52.6-3.1-96.5-4.2-117.5l0,0c-0.4-8.7-0.7-13.5-0.7-13.5l0,0c-0.2,0-1.8,0.3-4.3,0.9
				c-1.8,0.5-4.1,1.1-6.8,1.9l0,0c-2.4,0.7-5,1.6-7.8,2.7l0,0c-4.7,1.8-9.8,4.1-14.6,7c-0.1,0-0.1,0.1-0.2,0.1
				c-7.8,4.8-14.9,11.3-18.1,19.8c-2.8,7.2-9.2,45.9-17,97.3c-0.2,1.5-0.4,2.9-0.7,4.4c-4.1,27.3-8.6,57.9-13.1,89.2
				c-4.8,33.2-9.5,67-13.9,98.4C2443,1135.2,2439.5,1160.3,2436.6,1181.5L2436.6,1181.5z"/>
			<path class="st23" d="M2465.9,1181.5h121.7c2.3-10,4.5-19.7,6.5-28.8c5.4-25,8.9-45.5,8.7-56.6c-0.1-5.2-2-9.2-5.4-12.3
				c-2.3-2.1-5.2-3.8-8.7-5.2c-10.3-3.9-25-4.5-40.4-3.6c-5.2,0.3-10.6,0.8-15.8,1.5c-28.9,3.5-55.8,10.7-55.8,10.7
				s-1.8,7.3-3.9,19.9c-1.6,9.5-3.4,22.1-4.7,37c-0.8,8.6-1.4,18-1.7,28.1C2466.1,1175.2,2466,1178.3,2465.9,1181.5L2465.9,1181.5
				L2465.9,1181.5z"/>
			<path class="st24" d="M2522.1,1096.3l1.2,8.8l5.9,42.7l1,7.3l3.6,26.5h126.8c1-17.5,1.9-34.5,2.1-49.4v-4.8
				c0-22.4-2-38.9-8.4-43.1c-7.3-4.8-31.4-3.4-57.1-0.3c-2.6,0.3-5.1,0.7-7.7,1c-15,2-29.9,4.5-42,6.6c-6.2,1.1-11.7,2.1-15.9,2.9
				C2525.6,1095.5,2522.1,1096.3,2522.1,1096.3L2522.1,1096.3L2522.1,1096.3z"/>
			<path class="st25" d="M2662.7,808.5c0,0-69.6-45-119.6-22c-8,3.7-17,13.9-23.5,21.1c-18.1,19.9-53.3,336-53.3,336
				s100.2,33.9,196.5-11.5L2662.7,808.5L2662.7,808.5L2662.7,808.5z"/>
			<path class="st22" d="M2539.1,785.4c0,0-70.5,28.9-80.1,51.1s-40.6,158.5-40.6,174.5c0,16,54.1,3.6,62.8-22.2
				c7.2-21.4,31.6-87.2,44.4-128.8L2539.1,785.4L2539.1,785.4L2539.1,785.4z"/>
			<g>
				<path class="st6" d="M2553.8,807.4c15.4,3,38-0.2,54.6-11.1c-7.5-17.8-10.5-32-11.6-41.1c-0.1-0.5-0.1-1-0.2-1.4
					c-0.5-4.7-0.4-7.9-0.2-9.4h-39.8c0,0-10.9,5-10.9,8.4c0,1.8,0,3.6-0.1,5.3c-0.1,4.6-0.3,8.6-0.5,12c-0.8,11.2-2,16.4-2,16.4
					S2538.2,804.4,2553.8,807.4L2553.8,807.4L2553.8,807.4z"/>
				<path class="st26" d="M2545.1,770.1c30.1,5.8,47.6-10.7,51.6-14.9c0.6-0.6,0.8-1,0.8-1c-0.3-0.2-0.6-0.3-1-0.5
					c-11.2-4.5-36.7-0.9-50.9,4.3C2545.6,762.7,2545.4,766.7,2545.1,770.1L2545.1,770.1L2545.1,770.1z"/>
				<path class="st6" d="M2606.6,737.9c-5.4,29-42.8,28-59,26.2c-4.6-0.5-7.4-1.1-7.4-1.1c-5.1-1.4-8-9.5-9.3-20
					c-2.6-21,0.7-51.7,4.2-59.6c5.3-11.8,15.4-24.6,53-15.4C2625.8,677.2,2613.5,700.7,2606.6,737.9L2606.6,737.9L2606.6,737.9z"/>
				<path class="st3" d="M2533.7,667.2c5.1-7.1,16.1-15.8,26-21.2c21.3-11.5,48.6,0.4,48.7,0.4c30.8,13.5,38.8,37.1,22.5,73.8
					c-17.2,38.8-33.7,34.4-33.7,34.4s3.5-2.2,3.2-14.3c0-0.7-0.1-1.3-0.1-1.8c-0.2-2.5,0.7-5,2.6-6.6c3.8-3.4,5.7-13.7,2.5-16.6
					c-3.9-3.5-9.3,0.7-11,4c-1.5,2.3-4.2,3.1-6.8,1.5c-9.6-6.1-3.4-18.2-12.5-25.6c-9.1-7.4-27.7-1.2-41.5-7.1
					C2515.6,681.5,2529.8,672.6,2533.7,667.2L2533.7,667.2L2533.7,667.2z"/>
			</g>
			<path class="st22" d="M2528.7,1181.5h151.7c-1.1-31.4-2.5-69-3.9-107c-0.4-9.8-0.8-19.8-1.1-29.6c-0.2-4.2-0.3-8.3-0.5-12.4
				c-3.4-84.4-6.7-160.7-7.4-164.8c-1.6-9.3-3.1-17.2-4.7-24.1c-4.8-20-10.7-31-23.6-40.4c-1.3-1-11.6-6.2-20.7-10.7
				c-7.4-3.7-14-6.9-14.2-7l0,0c-1.5,0.7-3.2,2.8-4.9,5.9s-3.6,7.2-5.5,12.1c-6.9,17.8-14.4,45-19.6,65.4v0.1l0,0
				c-3.4,13.2-5.8,23.4-6.4,26.3c-1.2,5-2.7,14.5-4.5,27.5l0,0c-2.4,17.7-5.4,41.8-8.5,69l0,0c-0.3,2.8-0.6,5.7-1,8.5
				c-0.4,3.3-0.7,6.6-1.1,9.9l0,0c-0.1,1.1-0.2,2.2-0.4,3.2l0,0c-1.2,10.8-2.4,22-3.6,33.3l0,0c-1,9.3-15.2,16.1-16.2,25.6
				c-0.1,0.7-0.1,2.1-0.2,4c-0.2,4-0.4,10.4-0.7,17.8c-0.1,3.3-0.2,6.8-0.4,10.3c-0.6,15.8-1.2,33.2-2,41.5c0,0.4-0.1,0.9-0.1,1.5
				c-0.1,1.7-0.2,4.1-0.2,7.2C2528.8,1161.5,2528.8,1170.8,2528.7,1181.5L2528.7,1181.5L2528.7,1181.5z"/>
			<path class="st23" d="M2632.2,901.7c0.1,0.2,2.4,85.4-61.7,95.7c-64.1,10.3-21.5,13.1-21.5,13.1s120.6-5.1,122.5-8.3
				C2673.6,999,2632.2,901.7,2632.2,901.7L2632.2,901.7z"/>
			<path class="st23" d="M2578.1,1034c0,0,1.2,0.8,3.5,2.3c0,0,0.1,0,0.1,0.1c9.8,6.2,38.8,23.2,81,34.6c4.4,1.2,9,2.3,13.7,3.4
				c-0.4-9.8-0.8-19.8-1.1-29.6c5.6-0.4,10.9-1.2,15.9-2.2c-0.2-1.3-0.3-2.6-0.5-3.9c-5.4-2.2-10.7-4.3-15.9-6.3
				c-4.2-1.6-8.2-3.2-12.1-4.7c-17.4-6.6-30.2-11.1-30.2-11.1l-51.4,16.3L2578.1,1034L2578.1,1034L2578.1,1034z"/>
			<path class="st22" d="M2564.5,1032.6c0,0,6.6,1.7,17.1,3.8h0.1c19.4,3.9,51.9,9.3,81,9.1c4.3,0,8.5-0.2,12.6-0.5
				c5.6-0.4,10.9-1.2,15.9-2.2c10.6-2.2,19.5-6,25.4-12c43.3-44.1-23.6-202.3-37.7-217.7c-16.4-18-46.4-24.3-62.9-26.4
				c-0.7-0.1-1.4-0.2-2-0.3c-5.8-0.7-9.6-0.8-9.8-0.8l0,0c0,0,1.3,4.2,3.5,11.2c0.8,2.7,1.8,5.9,2.9,9.5
				c10.2,33.3,29.8,98.7,38.4,135.6c3.2,13.5,4.9,23.2,4.1,26.1c-3.4,12.6-38.3,19.1-60.5,21.9c-9.2,1.2-16.2,1.8-17.8,1.9h-0.3
				l-1.3,5.2l-3.1,12.6l-3,12.4L2564.5,1032.6L2564.5,1032.6z"/>
			<polygon class="st27" points="2443.8,1108.4 2592.4,1102.1 2562.2,916.9 2413.6,923.2 			"/>
			<path class="st6" d="M2574.4,991.7c0,0-28.9-2-30.4,4.7c-3.4,15.7,24.9,28.6,34,27.7C2587.2,1023.3,2581.1,990.7,2574.4,991.7
				L2574.4,991.7z"/>
			<path class="st6" d="M2421.7,960.8c0,0,27.7-8.7,30.6-2.4c6.9,14.5-17.6,33.6-26.7,34.9C2416.6,994.5,2415,961.3,2421.7,960.8
				L2421.7,960.8L2421.7,960.8z"/>
			<path class="st23" d="M2601.2,776.2c0,0,12.2,5.8,18.3,14.6c0,0-45.5,79-45.3,78.2S2589.5,786.3,2601.2,776.2z"/>
			<path class="st23" d="M2544.5,777.3c-4,1.5-11.7,9.4-13.4,13.7l-5.4,69c0,0,11.6-50.6,17.4-73.5
				C2544.6,780.7,2544.3,779,2544.5,777.3L2544.5,777.3z"/>
			<path class="st24" d="M2513,919c0,0-1.2-5.1-7.9-4.5s-44.8,2.5-44.8,2.5s-7.3-0.1-6.6,4.6L2513,919L2513,919z"/>
			<path class="st25" d="M2556.6,744.4c0,0-4.9,4.5-12.9,3.1c-4.7-0.8-7.4-7-7.4-7S2545.4,738.9,2556.6,744.4L2556.6,744.4
				L2556.6,744.4z"/>
		</g>
		<g>
			<g>
				<polygon class="st25" points="1852.3,802.1 1962.1,802.5 1997.7,666.2 1887.9,665.8 				"/>
				<g>
					<polygon class="st28" points="1915.2,683.7 1961.2,683.8 1961.7,681.8 1915.7,681.7 					"/>
					<polygon class="st28" points="1907.8,689.3 1965.6,689.5 1966.1,687.5 1908.3,687.3 					"/>
					<g>
						<polygon class="st28" points="1891.9,717 1967,717.3 1967.5,715.3 1892.4,715 						"/>
						<polygon class="st28" points="1890.2,723.7 1965.2,723.9 1965.8,721.9 1890.7,721.6 						"/>
						<polygon class="st28" points="1888.4,730.3 1963.5,730.6 1964,728.6 1889,728.3 						"/>
						<polygon class="st28" points="1886.7,736.9 1961.8,737.2 1962.3,735.2 1887.2,734.9 						"/>
						<polygon class="st28" points="1885,743.6 1960,743.9 1960.6,741.9 1885.5,741.6 						"/>
					</g>
					<g>
						<polygon class="st28" points="1880.7,759.8 1955.8,760 1956.3,758 1881.3,757.7 						"/>
						<polygon class="st28" points="1879,766.4 1954.1,766.7 1954.6,764.7 1879.5,764.4 						"/>
						<polygon class="st28" points="1877.3,773.1 1952.3,773.3 1952.9,771.3 1877.8,771 						"/>
						<polygon class="st28" points="1875.5,779.7 1950.6,780 1951.1,778 1876.1,777.7 						"/>
						<polygon class="st28" points="1873.8,786.3 1948.9,786.6 1949.4,784.6 1874.3,784.3 						"/>
					</g>
				</g>
			</g>
			<g>
				<polygon class="st25" points="1808.1,971.4 1917.9,971.8 1953.5,835.5 1843.7,835.1 				"/>
				<g>
					<polygon class="st28" points="1870.9,853 1916.9,853.2 1917.5,851.2 1871.4,851 					"/>
					<polygon class="st28" points="1863.6,858.6 1921.4,858.8 1921.9,856.8 1864.1,856.6 					"/>
					<g>
						<polygon class="st28" points="1847.7,886.4 1922.7,886.6 1923.3,884.6 1848.2,884.4 						"/>
						<polygon class="st28" points="1845.9,893 1921,893.3 1921.5,891.3 1846.5,891 						"/>
						<polygon class="st28" points="1844.2,899.7 1919.3,899.9 1919.8,897.9 1844.7,897.6 						"/>
						<polygon class="st28" points="1842.5,906.3 1917.5,906.6 1918.1,904.6 1843,904.3 						"/>
						<polygon class="st28" points="1840.7,912.9 1915.8,913.2 1916.3,911.2 1841.3,910.9 						"/>
					</g>
					<g>
						<polygon class="st28" points="1836.5,929.1 1911.6,929.4 1912.1,927.4 1837,927.1 						"/>
						<polygon class="st28" points="1834.8,935.8 1909.8,936 1910.4,934 1835.3,933.7 						"/>
						<polygon class="st28" points="1833,942.4 1908.1,942.7 1908.6,940.7 1833.6,940.4 						"/>
						<polygon class="st28" points="1831.3,949.1 1906.4,949.3 1906.9,947.3 1831.8,947 						"/>
						<polygon class="st28" points="1829.6,955.7 1904.6,956 1905.2,954 1830.1,953.7 						"/>
					</g>
				</g>
			</g>
			<g>
				<polygon class="st25" points="1763.6,1141.9 1873.3,1142.3 1908.9,1006 1799.2,1005.6 				"/>
				<g>
					<polygon class="st28" points="1826.4,1023.5 1872.4,1023.7 1872.9,1021.7 1826.9,1021.5 					"/>
					<polygon class="st28" points="1819,1029.1 1876.8,1029.3 1877.3,1027.3 1819.6,1027.1 					"/>
					<g>
						<polygon class="st28" points="1803.1,1056.9 1878.2,1057.1 1878.7,1055.1 1803.7,1054.8 						"/>
						<polygon class="st28" points="1801.4,1063.5 1876.5,1063.8 1877,1061.8 1801.9,1061.5 						"/>
						<polygon class="st28" points="1799.7,1070.2 1874.7,1070.4 1875.3,1068.4 1800.2,1068.1 						"/>
						<polygon class="st28" points="1797.9,1076.8 1873,1077.1 1873.5,1075.1 1798.5,1074.8 						"/>
						<polygon class="st28" points="1796.2,1083.4 1871.3,1083.7 1871.8,1081.7 1796.7,1081.4 						"/>
					</g>
					<g>
						<polygon class="st28" points="1792,1099.6 1867,1099.9 1867.6,1097.9 1792.5,1097.6 						"/>
						<polygon class="st28" points="1790.2,1106.3 1865.3,1106.5 1865.8,1104.5 1790.8,1104.2 						"/>
						<polygon class="st28" points="1788.5,1112.9 1863.6,1113.2 1864.1,1111.2 1789,1110.9 						"/>
						<polygon class="st28" points="1786.8,1119.6 1861.8,1119.8 1862.4,1117.8 1787.3,1117.5 						"/>
						<polygon class="st28" points="1785,1126.2 1860.1,1126.5 1860.6,1124.5 1785.6,1124.2 						"/>
					</g>
				</g>
			</g>
			<g>
				<g>
					<polygon class="st25" points="1907.9,1143.1 2291.9,1144.5 2402.4,721.4 2352.4,667.6 2032.4,666.4 					"/>
					<polygon class="st20" points="2138.2,737.9 2273.5,738.4 2275.1,732.4 2139.7,731.9 					"/>
					<polygon class="st20" points="2116.6,754.3 2286.5,755 2288,749 2118.1,748.4 					"/>
					<g>
						<polygon class="st20" points="2069.9,835.9 2290.5,836.7 2292.1,830.8 2071.4,829.9 						"/>
						<polygon class="st20" points="2064.8,855.4 2285.4,856.2 2287,850.3 2066.3,849.5 						"/>
						<polygon class="st20" points="2059.7,874.9 2280.3,875.8 2281.9,869.8 2061.2,869 						"/>
						<polygon class="st20" points="2054.6,894.5 2275.2,895.3 2276.8,889.4 2056.1,888.6 						"/>
						<polygon class="st20" points="2049.4,914 2270.1,914.8 2271.7,908.9 2051,908.1 						"/>
					</g>
					<g>
						<polygon class="st20" points="2037,961.6 2257.7,962.4 2259.3,956.4 2038.6,955.6 						"/>
						<polygon class="st20" points="2031.9,981.1 2252.6,981.9 2254.2,976 2033.5,975.2 						"/>
						<polygon class="st20" points="2026.8,1000.6 2247.5,1001.4 2249.1,995.5 2028.4,994.7 						"/>
						<polygon class="st20" points="2021.7,1020.2 2242.4,1021 2243.9,1015 2023.3,1014.2 						"/>
						<polygon class="st20" points="2016.6,1039.7 2237.3,1040.5 2238.8,1034.6 2018.2,1033.8 						"/>
					</g>
				</g>
				<polygon class="st20" points="2402.4,721.4 2338.3,721.2 2352.4,667.6 				"/>
			</g>
		</g>
	</g>
	<g>
		<g>
			<path class="st4" d="M724.4,1560.6h-0.3c-2,0-3.7-1.7-3.6-3.7l5.5-238.4l16.2-1.9l-13.8,240.3
				C728.1,1559,726.4,1560.6,724.4,1560.6L724.4,1560.6L724.4,1560.6z"/>
			<path class="st4" d="M629.9,1560.6h-0.3c-2,0-3.7-1.7-3.6-3.7l5.5-238.4l16.2-1.9l-13.8,240.3
				C633.7,1559,632,1560.6,629.9,1560.6L629.9,1560.6L629.9,1560.6z"/>
			<path class="st4" d="M890.5,1560.6h0.3c2,0,3.7-1.7,3.6-3.7l-5.5-238.4l-16.2-1.9l13.8,240.3
				C886.7,1559,888.4,1560.6,890.5,1560.6L890.5,1560.6L890.5,1560.6z"/>
			<path class="st4" d="M619.2,1303.7v-163.4c0-28.8,23.3-52.1,52-52.1h117.7c28.8,0,52,23.3,52,52.1v169.6L619.2,1303.7
				L619.2,1303.7z"/>
			<path class="st4" d="M619.2,1303.7h242.9v25.8H634.8c-8.6,0-15.6-7-15.6-15.6L619.2,1303.7L619.2,1303.7L619.2,1303.7z"/>
			<path class="st4" d="M717.4,1303.7h171.9c6.4,0,11.6,5.2,11.6,11.6v2.7c0,6.4-5.2,11.6-11.6,11.6H717.4
				c-6.4,0-11.6-5.2-11.6-11.6v-2.7C705.8,1308.9,711,1303.7,717.4,1303.7L717.4,1303.7z"/>
		</g>
		<g>
			<path class="st5" d="M882.6,1263c-16.9,29.3-38.1,40.7-38.1,40.7h-88.2C756.3,1303.7,895.5,1240.6,882.6,1263L882.6,1263z"/>
			<g>
				<path class="st6" d="M814.9,1490.1c-2.3,2.6-2.6,5.6-1.5,8.7l0,0c2.1,5.8,9.1,12.3,17.1,18.8c1,0.8,2,1.6,2.8,2.3
					c0.2,0.2,0.4,0.4,0.6,0.6c0.2,0.1,0.3,0.3,0.5,0.4c7.5,6.9,4.7,8.5,18.2,22.6c15.4,16.1,26,16.3,29.1,14.9
					c2.6-1.2-2.6-9.8-8.4-19.3c-0.3-0.5-0.5-0.9-0.8-1.4c-0.8-1.3-1.5-2.6-2.3-3.8c-6.7-11.5-5-16.9-3.4-34.1
					c1.3-13.9,21.7-77.8,21.7-77.8l-29.6-5.1c0,0-8.9,50.9-18.7,58.7c-5.2,4.2-11.1,4.2-16.2,7.3c-0.4,0.2-0.7,0.4-1,0.7
					C820.1,1485.5,817.2,1487.4,814.9,1490.1L814.9,1490.1L814.9,1490.1z"/>
				<path class="st5" d="M814.9,1490.1c-2.3,2.6-2.6,5.6-1.5,8.7l0,0c2.6,5.8,9.3,12.3,17.2,18.7c1,0.8,1.9,1.6,2.7,2.3
					c0.2,0.2,0.4,0.4,0.6,0.6c0.2,0.1,0.3,0.3,0.5,0.4c7.5,6.9,4.7,8.5,18.2,22.6c15.4,16.1,26,16.3,29.1,14.9
					c2.6-1.2-2.6-9.8-8.4-19.3c-3-1.1-17-6.8-27.5-20.3c-9.3-11.8-15.5-27.1-21.8-35.9c-0.4,0.2-0.7,0.4-1,0.7
					C820.1,1485.5,817.2,1487.4,814.9,1490.1L814.9,1490.1L814.9,1490.1z"/>
				<path class="st6" d="M1053.3,1471.6c1.8,9.1,14.8,7.6,29.4,4.1c14.5-3.6,11.1,0.7,31.8-1.6s26.9-10,27.6-13.1
					c0.6-2.7-9.7-3.7-20.6-4.9c-1.4-0.2-2.8-0.3-4.2-0.5c-12.4-1.6-21.4-9.5-32.7-16.1c-10.7-6.2-26.5-31.5-26.5-31.5l-28.4,2.2
					c0,0,14.9,22.6,20.6,32.4c3.4,5.8,3.2,13.4,2.8,19.3C1052.8,1465.1,1052.6,1468.4,1053.3,1471.6L1053.3,1471.6L1053.3,1471.6z"
					/>
				<path class="st5" d="M1082.6,1475.7c14.5-3.6,11.1,0.7,31.8-1.6s26.9-10,27.6-13.1c0.6-2.7-9.7-3.7-20.6-4.9l-0.1,0.2
					c0,0-12.4,8.8-29.6,9.2c-14,0.3-28.9-3.7-38.6-3.5c-0.2,3.2-0.4,6.5,0.2,9.7C1055.1,1480.7,1068.1,1479.2,1082.6,1475.7
					L1082.6,1475.7L1082.6,1475.7z"/>
				<path class="st29" d="M944.6,1290.2l-26.5,71.3l-34.6,93.2c0,0-9.4,0.9-18.4-1.7c-8.3-2.4-17.8-8.7-17.8-8.7s9.6-100,27.5-157.4
					c4.6-14.7,9.8-26.7,15.4-33.4C918,1220.7,944.5,1290.2,944.6,1290.2L944.6,1290.2L944.6,1290.2z"/>
				<path class="st30" d="M917.6,1176.9c-17.4-5.6-66.9,1.6-116.7,11.3l-10.4-17.2l-107.5-8.4c0,0-35.5,78.7-16,128.8
					c2.8,7.4,8.5,12.1,18.2,12.2h86.4c53.5,0,113.1-36.8,120.9-38.3c12.6-2.5,17.7,22.8,30.3,49.3s118.8,117.5,118.8,117.5
					s16.3,0.2,23.1-2.4c7.2-2.7,9.9-6.2,9.9-6.2S956.8,1189.5,917.6,1176.9L917.6,1176.9L917.6,1176.9z"/>
				<path class="st31" d="M786.3,858c-13.8-7.2-34.7-8.2-38.1-8.7c-40.7-5.5-65.2,53.7-66.7,71.7c-2.7,33.1-20.2,38.1-44.8,58.8
					c-49.4,41.5-34.9,89.7-7.9,107.7c16.2,10.8,44.7,0,44.7,0c0.4,0.3,78.1-43.4,116.3-64.5C847.2,1014.9,821.4,876.5,786.3,858
					L786.3,858z"/>
				<path class="st6" d="M757.8,1005.1c0.2,0.1-18.8,6.6-31.5,1c-12-5.3-21-25-20.8-25c5.4-0.2,11.4-5,16-36.2l2.3,0.8l38.9,14
					c0,0-2.8,12.5-4.7,24.4C756.5,994.1,755.7,1003.7,757.8,1005.1z"/>
				<path class="st8" d="M762.7,959.7c0,0-2.8,12.5-4.7,24.4c-22.4-4-31.1-26.3-34.3-38.4L762.7,959.7L762.7,959.7z"/>
				<path class="st6" d="M768.5,972.1c0,0-53.3-7.2-48.3-40.2s1.4-56.3,35.7-53.2c34.2,3.2,38.9,16.8,40,28.2
					S782.4,973.1,768.5,972.1L768.5,972.1z"/>
				<path class="st31" d="M793.8,888.8c0,0-34.1,29.4-57.3,31.8c-23.2,2.4-32-5.1-32-5.1s13.7-11.3,21.9-29.7
					c2.4-5.4,7.5-9.1,13.5-9.6C756.4,874.8,787.8,874.1,793.8,888.8L793.8,888.8L793.8,888.8z"/>
				<path class="st31" d="M772.5,886.2c0,0,11.4,11,15,19.2c3.5,7.9,4.5,26.8,1.8,34.3c0,0,17.8-34.6,7.7-51.3
					C786.3,870.5,772.5,886.2,772.5,886.2L772.5,886.2z"/>
				<path class="st25" d="M802.6,1083.6c-1.6,107.8-0.4,85.3-12.2,95.5c-2.8,2.5-10.8,3.9-21.3,4.6c-33.1,2.2-91.2-3.2-93.4-9.4
					c-7.6-21.1-2.2-27.7-8.6-60.1c-0.7-3.4-1.5-7.2-2.5-11.2c-5.3-22.2-10.5-29.8,8.3-65.5c17.1-32.3,34.8-58.6,36.4-57.7
					c45,26.7,48.7,4.3,48.7,4.3S803.4,1031,802.6,1083.6L802.6,1083.6z"/>
				<path class="st30" d="M918,1361.6l-34.6,93.2c0,0-9.4,0.9-18.4-1.7c-8.3-2.4-17.8-8.7-17.8-8.7s9.6-100,27.5-157.4L918,1361.6
					L918,1361.6z"/>
				<path class="st25" d="M758,984.1c0,0,46.3,7.9,51.8,27.8s37.5,137.2,37.5,137.2s-23.6,4.2-34.4-6.7s-37.9-101-37.9-101
					L758,984.1L758,984.1L758,984.1z"/>
				<path class="st32" d="M769,1183.7c-33.1,2.2-91.2-3.2-93.4-9.4c-7.6-21.1-2.2-27.7-8.6-60.1l16-44.9c0,0-2.6,50,12.1,63.2
					c14.7,13.2,60.4,25.4,67.5,36.4C766.1,1174.2,768.4,1179.5,769,1183.7L769,1183.7z"/>
				<path class="st6" d="M731.2,1162.7c0,0,32.6-7.3,37.9-4.4s18.1,13.4,19.7,17.1s-11.7-2.8-16-3.9c-2.8-0.8-10.2,1.8-13.9,3
					c-15.4,5.1-24.8,2.5-24.8,2.5L731.2,1162.7L731.2,1162.7L731.2,1162.7z"/>
				<path class="st25" d="M709.3,979.8c0,0-43.8,2.7-59,23.8c-21.3,29.8-63.7,156.6-39.4,173.6c27.3,19.1,124.4,5,124.4,5
					s3.2-15.1-1.3-22.4s-77.5-19.1-80.9-22.5s42.1-65.7,42.1-75.8S709.3,979.8,709.3,979.8L709.3,979.8L709.3,979.8z"/>
				<path class="st6" d="M770.6,1167.4c0,0,6.8,8.8,9.1,9.9c2.2,1.1,3.7,0.8,3.7,0.8l-4.6-8.3L770.6,1167.4L770.6,1167.4z"/>
				<path class="st6" d="M769,1158.3l19.9,9.7c0,0-0.8,1.4-3.3,1.3s-8.6-2.4-8.6-2.4L769,1158.3L769,1158.3z"/>
			</g>
			<g>
				<g>
					<polygon class="st27" points="779.7,1190.8 936.9,1190.8 984.2,1073.2 827.2,1073.2 					"/>
					<polygon class="st33" points="938.7,1186.2 731.2,1186.2 731.2,1190.8 936.9,1190.8 					"/>
				</g>
				<path class="st25" d="M897.2,1132c1.2-4.1-1.2-7.5-5.3-7.5s-8.4,3.3-9.6,7.5c-1.2,4.1,1.2,7.5,5.3,7.5S896,1136.1,897.2,1132z"
					/>
			</g>
		</g>
	</g>
	<g>
		<path class="st34" d="M1452.2,1563.3h0.5c2.7,0,4.9-2.3,4.8-5.2l-7.3-333.8l-21.4-2.7l18.3,336.5
			C1447.1,1561,1449.4,1563.3,1452.2,1563.3L1452.2,1563.3L1452.2,1563.3z"/>
		<path class="st34" d="M583.4,1563.3h-0.5c-2.7,0-4.9-2.3-4.8-5.2l7.3-333.8l21.4-2.7l-18.3,336.5
			C588.4,1561,586.2,1563.3,583.4,1563.3L583.4,1563.3L583.4,1563.3z"/>
		<path class="st34" d="M561.2,1190.2h916.7c7.5,0,13.6,6.1,13.6,13.6v13.1c0,7.5-6.1,13.6-13.6,13.6H561.2
			c-7.5,0-13.6-6.1-13.6-13.6v-13.1C547.6,1196.3,553.7,1190.2,561.2,1190.2L561.2,1190.2z"/>
	</g>
	<path class="st10" d="M1267.5,1042.7c-1-5.2,2-2.8,2-2.8c-2.8-24,2.5-41,2.5-41c-14.6-12-44.3-16.2-44.3-16.2
		C1236,1011,1267.5,1042.7,1267.5,1042.7L1267.5,1042.7z"/>
	<g>
		<path class="st6" d="M384.1,1064c0,0,10.9,24.9,9.5,31.2s-13.5,25.6-13.5,25.6l-9-54.3L384.1,1064L384.1,1064L384.1,1064z"/>
		<path class="st6" d="M387.5,950.4l-3.4,113.6c-3.8,2.5-8.6,4.7-13,2.5l-16.4-96.7L387.5,950.4L387.5,950.4z"/>
		<path class="st35" d="M197.8,652.3c0,0-3.9,25.9-17.7,33.1c-16.5,8.7-28.3,20.3-24.8,48.7s-15.7,28.4-19.2,47.2
			s-3.1,53.2,44.1,42.9s155.2-2.9,167-18.2c11.7-15.3,3.5-47-16.5-71.1s1.9-45.8-4-68.3c-9.1-35-41.9-50.6-41.9-50.6
			S218.4,606.4,197.8,652.3L197.8,652.3L197.8,652.3z"/>
		<polygon class="st6" points="224.3,1443.8 240.2,1510.9 264.1,1510.7 265,1443.8 		"/>
		<polygon class="st6" points="424.9,1446.7 470.2,1510.9 487.9,1488.2 460.6,1437.9 		"/>
		<path class="st6" d="M287,768c0.2,0.1-2.9,74.7-15.7,74.8c-2.7,0-22.5-52.2-25-52.9c-13.7-3.7-15.6-37.2-15.4-37.2
			c5.8-1.2,7.5-9.1,7.3-43.3l2.6,0.5l44,8.7c0,0-1,13.8-1,26.9C283.8,756.5,284.5,766.8,287,768L287,768L287,768z"/>
		<path class="st36" d="M284.9,718.6c0,0-1,13.8-1,26.9c-24.6-0.7-37.6-23.2-43-35.6L284.9,718.6L284.9,718.6L284.9,718.6z"/>
		<path class="st35" d="M231.8,711.4c0,0-27.8-12-34.3-28.4c-4.6-11.8-3.7-67.2,46.2-69.9c0,0,28.5-9.1,48.5,8
			c9.2,7.9,11.6,16.3,3.6,58.9l-1.5,14.2L231.8,711.4L231.8,711.4z"/>
		<path class="st27" d="M483.6,1473.5c0,0-11.7,2-21.3,2.8c-2.1,0.2-4.2,0.3-5.9,0.3c-4.6,0-13-1.7-18.5-3.1l-0.4-0.1
			c-2.5-0.6-4.3-1.1-5-1.2l-0.3-0.1c0,0-58.3-64.9-91.1-169.1c-0.8-2.4-1.6-4.9-2.4-7.3c-17.9-52.2-55-117.8-74.6-177.1
			c-3.1-9.4-5.9-18.3-8.4-26.8c-0.8-2.7-1.6-5.3-2.3-7.9c-14.4-50.1-18.6-83-22.4-118.1l131.9,37.4
			C362.8,1003.2,384.2,1206.8,483.6,1473.5L483.6,1473.5L483.6,1473.5z"/>
		<path class="st6" d="M292.6,725.6c0,0-56.9,12.5-64.1-23.1s-19.4-57.9,16.6-67.4s45.9,2.7,51.2,14
			C301.5,660.3,307.2,721.4,292.6,725.6L292.6,725.6z"/>
		<path class="st35" d="M270.9,628.9c0,0-7.2,44.9-30,55.9s-34.5,6.7-34.5,6.7s5.7-23.7,4.4-50C210.8,641.6,255.1,611.5,270.9,628.9
			L270.9,628.9L270.9,628.9z"/>
		<path class="st35" d="M267.7,633.1c0,0,13.6,3.2,21.4,14.4c5.9,8.4,10,14.6,11.8,26.2c0,0,6.1-30.8-10.4-44.1
			C273.1,615.4,267.7,633.1,267.7,633.1L267.7,633.1L267.7,633.1z"/>
		<path class="st6" d="M239.4,1507.1c0,0,1.9,13.3-3,27.5c0,0-3.9,17.8,13.6,18.1s21.8-1.3,19.8-12.2s-5.8-29.8-5.8-29.8
			L239.4,1507.1L239.4,1507.1L239.4,1507.1z"/>
		<path class="st30" d="M236.4,1534.6c0,0-3.2,17.5-1.2,26.4c0,0,5,2.1,17.8,2.1c12.1,0,18.5-2.1,18.5-2.1s0.4-19.1-2.9-26.8
			C268.7,1534.2,256.2,1552.8,236.4,1534.6L236.4,1534.6L236.4,1534.6z"/>
		<path class="st6" d="M530.1,1542.3c0,0-32.3-35.8-42.2-54.1l-24,12.3l53.7,50.4l12.6-1.7L530.1,1542.3L530.1,1542.3L530.1,1542.3z
			"/>
		<path class="st30" d="M550.6,1563.3c0,0-34.7,0-40.7-0.7s-10.7-9.2-17.2-22.1c-2.6-5.3-8.6-8.2-14.6-9.8v32.5h-9.2l-8.7-34.4
			c-5.7-10.5-0.8-19.2,3.2-27.5c5.6,1.8,18.9,5,41.5,29.3c8.1,8.6,16.5,12,25.1,11.7c0.1,0.1,0.2,0.1,0.4,0.2
			C550.3,1551.4,550.6,1563.3,550.6,1563.3L550.6,1563.3z"/>
		<path class="st33" d="M462.3,1476.3c-2.1,0.2-4.2,0.3-5.9,0.3c-4.6,0-13-1.7-18.5-3.1l-0.4-0.1l-5-1.2l-0.3-0.1
			c0,0-58.3-64.9-91.1-169.1c-0.8-2.4-1.6-4.9-2.4-7.3c-17.9-52.2-55-117.8-74.6-177.1c-3.1-9.4-5.9-18.3-8.4-26.8
			c-0.8-2.7-1.6-5.3-2.3-7.9l20.8-15.8c0,0,62.5,101.1,81.8,196.3C371.9,1343.3,440.9,1445.6,462.3,1476.3L462.3,1476.3
			L462.3,1476.3z"/>
		<path class="st27" d="M276.3,1273.3c0.4,46.3-2,152.7-8,196.8c0,0-5.7,5.1-19.9,5.1c-14.5,0.1-21-5.3-21-5.3
			c-15.1-76.6-25.9-140-33.7-194.6c-6.4-44.8-12.1-83.2-16.5-116.3c-3.9-29.3,20.7-108.7,20.7-108.7l92.3-9
			C288.6,1122.4,276.1,1246.4,276.3,1273.3L276.3,1273.3L276.3,1273.3z"/>
		<path class="st33" d="M248.4,1475.2c-12.4,0.7-21-5.3-21-5.3c-15.1-76.6-25.9-140-33.7-194.6c-6.4-44.8-12.1-83.2-16.5-116.3
			c-3.9-29.3,20.7-108.7,20.7-108.7l31.3,20c0,0-44.4,40.4-33.5,116.7C206.6,1263.4,233.2,1464.4,248.4,1475.2L248.4,1475.2z"/>
		<path class="st25" d="M393.8,986.4c-5.8,1.9-12.3,3.1-18.7,4c-10.2,1.5-20.2,2.5-26.6,5.3c-18.9,8.6-64.6-244-64.6-244
			s33.3,0.3,48.6,24.4c15.3,24.1,74.8,143.1,80.1,181.2C414.9,974.5,406,982.2,393.8,986.4L393.8,986.4z"/>
		<path class="st37" d="M329.2,957.1c7.4,24.8,14.3,40.9,19.3,38.6c6.4-2.9,16.4-3.9,26.6-5.3c6.4-0.9,12.9-2.1,18.7-4
			c-5.2-31.4-62.7-128.3-62.7-128.3L329.2,957.1L329.2,957.1z"/>
		<path class="st25" d="M377.8,1067l-56.2-289.2c-2.4-9.5-9.5-17-18.8-20l-18.9-6.1l-8.1,91.1L234.2,750l-17.4,2.7
			c0,0-40,239.5-48.8,339.7C176.7,1107.6,344.4,1094.7,377.8,1067L377.8,1067z"/>
		<g>
			<polygon class="st9" points="328.1,976.4 231.5,966.6 247.2,826.6 343.8,836.4 			"/>
			<polygon class="st38" points="247.2,826.6 241,826.2 226.4,966 231.5,966.6 			"/>
		</g>
		<path class="st6" d="M166.1,898.8c0,0,67.8,20.7,132.7,30c0,0,21.4,9.2,11.4,11.8c-2.6,0.7-132.4,29-151.6,10.6L166.1,898.8
			L166.1,898.8L166.1,898.8z"/>
		<path class="st25" d="M233.9,750c0,0-50.8,6.1-59.3,16.4c-27,32.4-51.5,170.7-30.3,202.7c25.3,38.2,64.2-21.7,76.4-57
			C227.1,893.8,237.4,783.3,233.9,750L233.9,750z"/>
		<path class="st6" d="M292.4,927.8c0,0,8-0.7,9.5-3.3c3-5.1,7.8-5,11.8-5.7s8.5-5,9.3-4.2s-2.9,5.7-5,7.5c0,0,4.3,0.3,7.1-1.1
			c2.8-1.3,12.8-12.7,12.8-7.8c0.1,11.8-0.8,13.6-10.9,22c-8.3,6.8-36.3,9.4-36.3,9.4L292.4,927.8L292.4,927.8L292.4,927.8z"/>
		<path class="st37" d="M233.8,895.7l-2,19.9c-3.1-0.7-6.8-1.8-11-3.5c-27.8-11.1-16.9-66.5-16.9-66.5
			C208.3,867.8,222.2,884.9,233.8,895.7L233.8,895.7z"/>
		<path class="st25" d="M272.2,706c0,0,2.6,5.1,6.5,5.1s13.7-1,14.4-1.8c0.7-0.9,2.6-6.3,2.6-6.3S279.5,702.7,272.2,706L272.2,706z"
			/>
	</g>
</g>
<path class="st39" d="M120.6,1562.3H2917c2.1,0,3.9,1.4,3.9,3.1v2.9c0,1.7-1.8,3.1-3.9,3.1H120.6c-2.1,0-3.9-1.4-3.9-3.1v-2.9
	C116.7,1563.7,118.5,1562.3,120.6,1562.3z"/>
<g>
	<path class="st9" d="M699.6,551H813c5.2,0,9.5,4.2,9.5,9.5V670c0,5.2-4.2,9.5-9.5,9.5H699.6c-5.2,0-9.5-4.2-9.5-9.5V560.4
		C690.1,555.2,694.4,551,699.6,551z"/>
	<path class="st40" d="M704.5,556.5h103.6c4.8,0,8.7,3.9,8.7,8.7v100c0,4.8-3.9,8.7-8.7,8.7H704.5c-4.8,0-8.7-3.9-8.7-8.7v-100
		C695.9,560.4,699.7,556.5,704.5,556.5L704.5,556.5z"/>
	<g>
		<g>
			<circle class="st9" cx="756.3" cy="568.2" r="2.7"/>
			<path class="st9" d="M775.7,572.1c0.7-1.3,2.4-1.8,3.7-1.1s1.8,2.4,1.1,3.7s-2.4,1.8-3.7,1.1
				C775.4,575.1,774.9,573.5,775.7,572.1z"/>
			<path class="st9" d="M794.6,587.2c1.3-0.8,3-0.5,3.8,0.8s0.5,3-0.8,3.8s-3,0.5-3.8-0.8S793.4,588,794.6,587.2z"/>
			<path class="st9" d="M804,610.5c1.5,0,2.7,1.2,2.7,2.7s-1.2,2.7-2.7,2.7s-2.7-1.2-2.7-2.7S802.5,610.5,804,610.5z"/>
			<circle class="st9" cx="797.3" cy="639.5" r="2.7"/>
			<path class="st9" d="M782,654.8c1.1,1.1,1.1,2.8,0,3.9s-2.8,1.1-3.9,0s-1.1-2.8,0-3.9S780.9,653.7,782,654.8z"/>
			<circle class="st9" cx="756.3" cy="663.7" r="2.7"/>
		</g>
		<g>
			<path class="st9" d="M736.8,572.1c-0.7-1.3-2.4-1.8-3.7-1.1s-1.8,2.4-1.1,3.7s2.4,1.8,3.7,1.1
				C737.1,575.1,737.6,573.5,736.8,572.1z"/>
			<path class="st9" d="M717.9,587.2c-1.3-0.8-3-0.5-3.8,0.8s-0.5,3,0.8,3.8s3,0.5,3.8-0.8S719.2,588,717.9,587.2z"/>
			<path class="st9" d="M708.5,610.5c-1.5,0-2.7,1.2-2.7,2.7s1.2,2.7,2.7,2.7s2.7-1.2,2.7-2.7S710,610.5,708.5,610.5z"/>
			<circle class="st9" cx="715.2" cy="639.5" r="2.7"/>
			<path class="st9" d="M730.5,654.8c-1.1,1.1-1.1,2.8,0,3.9s2.8,1.1,3.9,0s1.1-2.8,0-3.9S731.6,653.7,730.5,654.8z"/>
		</g>
	</g>
	<g>
		<path class="st9" d="M755.6,613.2c0-1.5,1.2-2.7,2.7-2.7s2.7,1.2,2.7,2.7s-1.2,2.7-2.7,2.7S755.6,614.7,755.6,613.2z"/>
		<rect x="757.9" y="579" class="st9" width="0.8" height="34.2"/>
		
			<rect x="755.5" y="604.9" transform="matrix(0.7866 -0.6174 0.6174 0.7866 -210.5237 602.9035)" class="st9" width="23.1" height="2.2"/>
	</g>
</g>
<g>
	<path class="st41" d="M1871.8,5.9v183.8c0,14.3-3.5,26-7.8,26h-1.1c-4.3,0-7.8-11.7-7.8-26V8C1860.7,7.2,1866.2,6.5,1871.8,5.9
		L1871.8,5.9z"/>
	<path class="st42" d="M1859.1,171.5c-60.6,0-109.7,51.9-109.7,116h219.4C1968.8,223.4,1919.7,171.5,1859.1,171.5L1859.1,171.5z"/>
	<path class="st43" d="M1867.9,172.9c-3.2-0.7-6.4-1.1-9.6-1.1c-39.5,0-71.5,51.8-71.5,115.6h19.3
		C1806.1,228.9,1833,180.5,1867.9,172.9L1867.9,172.9z"/>
</g>
</svg>
