<?xml version="1.0" encoding="utf-8"?>
<!-- Generator: Adobe Illustrator 27.8.1, SVG Export Plug-In . SVG Version: 6.00 Build 0)  -->
<!DOCTYPE svg PUBLIC "-//W3C//DTD SVG 1.1//EN" "http://www.w3.org/Graphics/SVG/1.1/DTD/svg11.dtd" [
	<!ENTITY ns_extend "http://ns.adobe.com/Extensibility/1.0/">
	<!ENTITY ns_ai "http://ns.adobe.com/AdobeIllustrator/10.0/">
	<!ENTITY ns_graphs "http://ns.adobe.com/Graphs/1.0/">
	<!ENTITY ns_vars "http://ns.adobe.com/Variables/1.0/">
	<!ENTITY ns_imrep "http://ns.adobe.com/ImageReplacement/1.0/">
	<!ENTITY ns_sfw "http://ns.adobe.com/SaveForWeb/1.0/">
	<!ENTITY ns_custom "http://ns.adobe.com/GenericCustomNamespace/1.0/">
	<!ENTITY ns_adobe_xpath "http://ns.adobe.com/XPath/1.0/">
]>
<svg version="1.1" id="Layer_1" xmlns:x="&ns_extend;" xmlns:i="&ns_ai;" xmlns:graph="&ns_graphs;"
	 xmlns="http://www.w3.org/2000/svg" xmlns:xlink="http://www.w3.org/1999/xlink" x="0px" y="0px" width="171.1993px"
	 height="100px" viewBox="0 0 171.1993 100" style="enable-background:new 0 0 171.1993 100;" xml:space="preserve">
<metadata>
	<sfw  xmlns="&ns_sfw;">
		<slices></slices>
		<sliceSourceBounds  bottomLeftOrigin="true" height="100" width="171.1992" x="-0.2817" y="-14.6566"></sliceSourceBounds>
	</sfw>
</metadata>
<g>
	<path d="M117.7753,0c0.4989,0.1348,1.007,0.2429,1.495,0.4096c1.3645,0.466,2.1121,1.4587,1.928,2.8809
		c-0.2607,2.0139-0.6139,4.0216-1.0455,6.0063c-0.8393,3.8593-1.7608,7.7007-2.6463,11.5499
		c-0.0255,0.1109-0.0279,0.2271-0.0491,0.4097c0.3382,0.0214,0.6494,0.058,0.9608,0.0583
		c3.5374,0.0041,7.0754-0.0366,10.6122,0.0124c4.4769,0.0621,8.9555,0.1325,13.4286,0.3149
		c5.539,0.2259,10.4912,2.1759,14.9792,5.3826c6.9366,4.9562,11.4019,11.5549,13.2479,19.8923
		c0.6223,2.8107,0.6739,5.6622,0.1805,8.4804c-1.186,6.7733-2.4686,13.5298-3.7187,20.2918
		c-0.4065,2.1987-0.8118,4.398-1.2566,6.5891c-0.4473,2.2038-1.6355,3.1559-3.8837,3.1753
		c-1.4485,0.0125-2.897,0.0076-4.3455,0.0201c-0.8505,0.0073-0.9647,0.1073-1.1957,0.9142
		c-1.7754,6.1997-5.7428,10.3535-11.8023,12.4822c-1.1604,0.4076-2.4324,0.4953-3.6507,0.7415
		c-0.3925,0.0793-0.7758,0.2037-1.1674,0.2883c-0.2446,0.0529-0.5008,0.1169-0.745,0.0962c-3.5461-0.3008-6.9404-1.0978-9.96-3.0955
		c-3.386-2.2402-5.4928-5.4287-6.81-9.1971c-0.6816-1.9501-0.8977-2.114-2.9789-2.114c-10.9155,0-21.831,0.0009-32.7466-0.0008
		c-2.156-0.0003-4.3119-0.0121-6.4679-0.0156c-1.4701-0.0024-1.8914,0.2804-2.3732,1.6828
		c-0.9692,2.821-2.3615,5.3864-4.4838,7.5163c-2.6847,2.6943-5.9774,4.2082-9.6813,4.8396
		c-5.7757,0.9846-10.7781-0.6968-15.0736-4.5849c-2.3208-2.1006-3.8992-4.6928-4.8281-7.6825
		c-0.5165-1.6626-0.6774-1.7719-2.426-1.7719c-2.8468,0-5.6936,0.003-8.5404-0.0016c-1.0311-0.0017-2.0194-0.201-2.8532-0.8423
		c-1.2097-0.9303-1.4869-2.2028-1.1604-3.6186c0.3499-1.5173,1.4334-2.2884,2.9007-2.4903
		c1.0122-0.1393,2.0462-0.1576,3.0707-0.1628c2.4417-0.0123,4.8837,0.0143,7.3256,0.0269c0.9392,0.0048,1.1226-0.1167,1.3927-1.0367
		c1.4334-4.8825,4.3751-8.5957,8.7605-11.138c3.2287-1.8717,6.753-2.3864,10.4313-1.9861c3.6633,0.3987,6.9302,1.7456,9.7397,4.1431
		c2.5776,2.1996,4.3094,4.9586,5.3256,8.1793c0.0909,0.2882,0.1855,0.5776,0.3083,0.853c0.2374,0.5323,0.6526,0.8475,1.2374,0.9133
		c0.3172,0.0357,0.637,0.0692,0.9555,0.0686c3.6211-0.0065,7.2423-0.018,10.8634-0.032c1.6839-0.0065,3.3679-0.0219,5.0518-0.0322
		c0.7863-0.0049,0.9832-0.1496,1.1538-0.9007c1.2885-5.6719,2.5691-11.3456,3.8611-17.0167
		c2.1692-9.5218,4.344-19.0423,6.5185-28.5628c1.8453-8.0791,3.6935-16.1576,5.5394-24.2366
		c0.0293-0.1282,0.0449-0.2595,0.0813-0.4751c-0.2877,0-0.5332,0-0.7788,0c-26.3455,0-52.691,0.0016-79.0365-0.0088
		c-0.6846-0.0003-1.3833-0.0665-2.051-0.2132c-1.743-0.383-2.8067-1.799-2.7382-3.5472c0.0679-1.731,1.2701-3.0611,3.017-3.3432
		C31.7891,0.089,31.9264,0.038,32.0658,0C60.6356,0,89.2055,0,117.7753,0z M104.5533,78.3703
		c0.1279,0.022,0.1923,0.0427,0.2568,0.0427c5.3564,0.0016,10.7129,0.0003,16.0694,0.004c0.4968,0.0004,0.777-0.2461,0.9205-0.7011
		c0.1668-0.5287,0.3274-1.0605,0.5236-1.5786c2.1234-5.6066,5.9676-9.4344,11.7376-11.209
		c2.6373-0.8111,5.3408-0.7873,8.0514-0.3771c4.4545,0.6742,8.1396,2.6844,10.9239,6.2632
		c1.6094,2.0686,2.7308,4.3919,3.5243,6.8771c0.1621,0.5077,0.4226,0.7139,0.9586,0.6394c0.3637-0.0506,0.7401-0.025,1.1101-0.0112
		c0.7459,0.0277,0.8411-0.0516,0.9827-0.8066c1.3664-7.2869,2.7367-14.5731,4.1026-21.8601c0.3796-2.025,0.6456-4.06,0.2885-6.117
		c-1.0678-6.1498-4.017-11.2178-8.8185-15.2016c-3.7522-3.1132-8.0462-5.0075-12.9132-5.4345
		c-2.3933-0.2099-4.8075-0.2328-7.2127-0.2465c-5.7942-0.033-11.5888-0.0125-17.3832-0.0094
		c-1.4183,0.0008-1.8045,0.3013-2.1218,1.694c-2.3972,10.5221-4.7869,21.0458-7.1819,31.5684
		c-0.9737,4.2779-1.9507,8.5551-2.9346,12.8307C105.1595,75.9451,104.852,77.1464,104.5533,78.3703z M139.241,71.4726
		c-5.9746,0.0066-10.7363,4.7226-10.7351,10.6322c0.0012,5.7803,4.9098,10.6435,10.7401,10.6409
		c5.7484-0.0026,10.5799-4.8721,10.5858-10.6691C149.8378,76.2291,145.0808,71.4662,139.241,71.4726z M60.7257,71.5128
		c-5.9195-0.0041-10.5687,4.5773-10.5844,10.4302c-0.016,5.9292,4.6738,10.7329,10.3855,10.8418
		c5.6903,0.1085,10.6195-4.4764,10.7621-10.3719C71.4356,76.3486,66.8625,71.473,60.7257,71.5128z"/>
	<path d="M25.1412,57.082c6.8723,0,13.7447-0.0079,20.617,0.0129c0.6455,0.002,1.3156,0.1053,1.9306,0.2997
		c1.6279,0.5146,2.4429,1.9409,2.244,3.7755c-0.172,1.5862-1.3571,2.7917-2.9536,2.9838c-0.4333,0.0521-0.8723,0.0809-1.3087,0.0811
		c-10.9823,0.0043-21.9645,0.0023-32.9468,0.0042c-2.6775,0.0004-5.356,0.053-8.032-0.0082
		c-0.8903-0.0204-1.8001-0.2407-2.6544-0.5148c-1.1147-0.3576-1.8666-1.1391-2.0017-2.3612
		c-0.1494-1.3518,0.148-2.554,1.3314-3.3845c0.9912-0.6956,2.1297-0.8867,3.3099-0.8872
		C11.4984,57.0805,18.3198,57.082,25.1412,57.082z"/>
	<path d="M28.4639,35.6802c5.5587,0,11.1174-0.0065,16.6761,0.0078c0.7361,0.0019,1.4925,0.0209,2.2039,0.1853
		c1.7402,0.4022,2.8101,1.9175,2.71,3.6947c-0.0898,1.5945-1.3859,2.9398-3.0891,3.1736c-0.4982,0.0684-1.0062,0.0912-1.5098,0.0914
		c-11.488,0.0049-22.9759,0.0056-34.4639,0.002c-1.9823-0.0006-3.3029-0.982-3.736-2.7448
		c-0.5271-2.1452,1.1211-4.3145,3.3273-4.338c3.5697-0.038,7.1396-0.0549,10.7095-0.07
		C23.6824,35.672,26.0732,35.6802,28.4639,35.6802z"/>
	<path d="M32.2158,21.5028c-4.5645,0-9.129,0.0063-13.6935-0.0084c-0.5331-0.0017-1.0797-0.0643-1.5963-0.1933
		c-1.6931-0.4228-2.5834-1.6899-2.531-3.5236c0.0474-1.6575,1.0847-2.9446,2.7382-3.2068c1.074-0.1703,2.1771-0.2132,3.2674-0.2153
		c8.4211-0.0165,16.8423-0.0066,25.2634-0.0121c1.1023-0.0007,2.1437,0.1703,3.0462,0.8606
		c1.1284,0.8632,1.608,2.3089,1.2223,3.6994c-0.3763,1.3565-1.5251,2.4281-2.9201,2.4991c-2.1166,0.1078-4.2393,0.1145-6.3596,0.129
		c-2.8122,0.0193-5.6247,0.0048-8.437,0.0048C32.2158,21.5251,32.2158,21.514,32.2158,21.5028z"/>
</g>
</svg>
