<?xml version="1.0" encoding="utf-8"?>
<!-- Generator: Adobe Illustrator 27.8.1, SVG Export Plug-In . SVG Version: 6.00 Build 0)  -->
<!DOCTYPE svg PUBLIC "-//W3C//DTD SVG 1.1//EN" "http://www.w3.org/Graphics/SVG/1.1/DTD/svg11.dtd" [
	<!ENTITY ns_extend "http://ns.adobe.com/Extensibility/1.0/">
	<!ENTITY ns_ai "http://ns.adobe.com/AdobeIllustrator/10.0/">
	<!ENTITY ns_graphs "http://ns.adobe.com/Graphs/1.0/">
	<!ENTITY ns_vars "http://ns.adobe.com/Variables/1.0/">
	<!ENTITY ns_imrep "http://ns.adobe.com/ImageReplacement/1.0/">
	<!ENTITY ns_sfw "http://ns.adobe.com/SaveForWeb/1.0/">
	<!ENTITY ns_custom "http://ns.adobe.com/GenericCustomNamespace/1.0/">
	<!ENTITY ns_adobe_xpath "http://ns.adobe.com/XPath/1.0/">
]>
<svg version="1.1" id="Layer_1" xmlns:x="&ns_extend;" xmlns:i="&ns_ai;" xmlns:graph="&ns_graphs;"
	 xmlns="http://www.w3.org/2000/svg" xmlns:xlink="http://www.w3.org/1999/xlink" x="0px" y="0px" width="494.6px" height="471.8px"
	 viewBox="0 0 494.6 471.8" style="enable-background:new 0 0 494.6 471.8;" xml:space="preserve">
<metadata>
	<sfw  xmlns="&ns_sfw;">
		<slices></slices>
		<sliceSourceBounds  bottomLeftOrigin="true" height="467.2183" width="490.6" x="0" y="0.025"></sliceSourceBounds>
	</sfw>
</metadata>
<g>
	<path d="M490.5,128c-1.4,6.7-2.4,13.5-4.3,20c-13.8,49.1-58.5,82.7-109.6,82.5c-1.4,0-2.9,0-5.1,0c0,1.9,0,3.8,0,5.6
		c0,57.3,0.1,114.6,0,172c0,31.3-20.5,56.5-50.9,62.4c-6.5,1.3-13.3,1.2-20,1.2c-78.9,0.1-157.8,0.1-236.6,0
		c-36.4,0-64-27.6-64-63.9c0-10.5,0-21.1,0-31.6c0-7.1,2.6-9.7,9.9-9.8c16.1-0.1,32.3,0,48.4,0c1.7,0,3.5,0,5.8,0
		c0.1-1.9,0.3-3.6,0.3-5.2C65,271.5,65.6,181.7,66.2,92c0.1-10.7,2.2-12.8,13-12.8c62.4,0,124.9,0,187.3,0.1c3.7,0,5.4-1,6.9-4.6
		c17.9-43.3,61.2-71.4,107.5-70.1c55.6,1.6,102.4,44.3,108.8,99.2c0.1,1.1,0.6,2.1,0.9,3.1C490.5,114,490.5,121,490.5,128z
		 M80.2,366.4c2.6,0,4.4,0,6.3,0c55.2,0,110.5,0,165.7,0c7.7,0,10,2.3,10,10c0,11.2-0.2,22.4,0.1,33.5c0.6,25.8,21.3,45.9,46.9,45.8
		c25.3-0.1,46.1-20.2,46.2-45.9c0.3-59.2,0.1-118.5,0.2-177.7c0-3-1-4-3.8-4.7c-27.9-6.9-50.3-22.1-66.6-45.9c-1.6-2.3-3.3-3-5.9-3
		c-17.4,0.1-34.8,0-52.2,0c-8.9,0-17.9,0.1-26.8,0c-6.3-0.1-10.3-5.1-8.4-10.4c1.6-4.4,5.2-5.6,9.6-5.6c18.2,0.1,36.4,0,54.6,0
		c5.9,0,11.8,0,18.3,0c-9.4-21.9-11.5-44.1-7.5-67c-61.8,0-123.1,0-184.8,0C81.5,185.9,80.8,275.8,80.2,366.4z M377.5,214.6
		c53.5,0.2,96.8-42.9,97.1-96.6c0.3-53.2-42.9-97-95.9-97.2c-53.9-0.3-97.6,42.8-97.9,96.4C280.5,170.9,323.7,214.4,377.5,214.6z
		 M16,382.5c0,9.5-0.3,18.7,0.1,27.9c1,25.9,20.9,45.3,46.8,45.3c66.7,0.1,133.4,0,200.1,0c1.1,0,2.2-0.2,2.1-0.2
		c-4.7-7.6-10.5-14.9-13.8-23.1c-3.1-7.8-4-16.6-4.8-25.1c-0.8-8.2-0.2-16.5-0.2-24.8C169.2,382.5,92.9,382.5,16,382.5z"/>
	<path d="M251.9,317.7c-17.1,0-34.2,0-51.3,0c-5.4,0-8.7-2.7-9.1-7.1c-0.5-5.1,3-8.7,9-8.7c9.7-0.1,19.5,0,29.2,0
		c23.8,0,47.6,0,71.4,0c1.4,0,2.9-0.1,4.3,0.1c4.8,0.5,7.9,3.8,7.8,8.1c-0.1,4.3-3.4,7.6-8.1,7.7c-9.3,0.2-18.5,0.1-27.8,0.1
		C268.9,317.7,260.4,317.7,251.9,317.7z"/>
	<path d="M252.4,232.4c17.4,0,34.8,0,52.2,0c5.2,0,8.5,3.1,8.6,7.6s-3.1,7.7-8.3,8c-1.4,0.1-2.9,0-4.3,0c-23,0-46,0-69,0
		c-10.4,0-20.8,0-31.1,0c-4.3,0-7.5-1.6-8.8-5.9c-1.5-5.3,2.3-9.9,8.5-9.9C217.6,232.3,235,232.3,252.4,232.4z"/>
	<path d="M173.7,171.1c0,13.5-11.2,24.6-25.2,24.7s-25.8-11.3-25.6-24.9c0.1-13.4,11.7-24.5,25.5-24.5
		C162.3,146.5,173.7,157.5,173.7,171.1z M148.2,179.8c5.2,0.1,9.6-3.7,9.7-8.5c0.1-4.7-4.1-8.7-9.4-8.8c-5.3-0.1-9.5,3.7-9.7,8.5
		C138.8,175.8,142.9,179.7,148.2,179.8z"/>
	<path d="M173.7,240.2c0,13.5-11.3,24.6-25.2,24.7c-14,0.1-25.8-11.3-25.6-24.9c0.1-13.4,11.7-24.5,25.5-24.5
		C162.4,215.6,173.7,226.6,173.7,240.2z M148.5,248.8c5.3-0.1,9.5-4,9.4-8.8c-0.1-4.7-4.6-8.6-9.7-8.5c-5.2,0.1-9.4,4.1-9.3,8.9
		C139,245.2,143.2,248.9,148.5,248.8z"/>
	<path d="M173.7,309.2c0,13.6-11.2,24.6-25.1,24.7c-14.1,0.1-25.8-11.2-25.7-24.8c0.1-13.5,11.5-24.4,25.5-24.4
		C162.4,284.8,173.6,295.6,173.7,309.2z M148.3,317.9c5.3,0,9.6-3.8,9.6-8.6c0-4.7-4.4-8.7-9.5-8.7c-5.2,0-9.5,3.9-9.5,8.7
		S143,317.9,148.3,317.9z"/>
	<path d="M384.3,176.5c0,3.2,0.2,6,0,8.9c-0.4,4.2-3.5,7-7.7,7s-8.1-2.8-7.6-6.8c0.9-7.5-2.7-10.4-8.9-13.6
		c-10.4-5.5-15.7-15.1-16.3-27c-0.3-5.7,2.5-9.1,7.2-9.4c4.8-0.3,7.8,2.6,8.4,8.3c1.2,9.9,7.2,16.3,16.3,17.1
		c8.3,0.8,15.8-4.3,18.4-12.3c3.3-10.2-3.3-21-13.8-22.7c-4.1-0.7-8.3-0.7-12.3-1.8c-13-3.5-22.9-15.1-24.1-28
		c-1.4-14.7,5.3-28.1,18.1-34c5-2.3,7.4-4.7,6.8-10.4c-0.5-4.7,2.8-7.8,6.9-8.1c4.9-0.4,8.8,2.8,8.4,8.1c-0.4,5.5,1.6,7.6,6.7,9.8
		c12.2,5.1,18.6,15.1,19.9,28.2c0.6,5.6-2.4,9.6-7.1,10.1c-4.8,0.5-8.2-2.8-8.8-8.6c-1.3-11-8.8-17.6-19.3-16.9
		c-8.9,0.6-16.3,8.6-16.2,17.7c0.1,9.6,7.6,17.2,17.8,17.7c18.2,1,30.8,12.1,33.4,29.6c2.3,15.7-7.5,30.6-24,36.4
		C386,175.9,385.4,176.1,384.3,176.5z"/>
</g>
</svg>
