<?xml version="1.0" encoding="utf-8"?>
<!-- Generator: Adobe Illustrator 27.8.1, SVG Export Plug-In . SVG Version: 6.00 Build 0)  -->
<!DOCTYPE svg PUBLIC "-//W3C//DTD SVG 1.1//EN" "http://www.w3.org/Graphics/SVG/1.1/DTD/svg11.dtd" [
	<!ENTITY ns_extend "http://ns.adobe.com/Extensibility/1.0/">
	<!ENTITY ns_ai "http://ns.adobe.com/AdobeIllustrator/10.0/">
	<!ENTITY ns_graphs "http://ns.adobe.com/Graphs/1.0/">
	<!ENTITY ns_vars "http://ns.adobe.com/Variables/1.0/">
	<!ENTITY ns_imrep "http://ns.adobe.com/ImageReplacement/1.0/">
	<!ENTITY ns_sfw "http://ns.adobe.com/SaveForWeb/1.0/">
	<!ENTITY ns_custom "http://ns.adobe.com/GenericCustomNamespace/1.0/">
	<!ENTITY ns_adobe_xpath "http://ns.adobe.com/XPath/1.0/">
]>
<svg version="1.1" id="Layer_1" xmlns:x="&ns_extend;" xmlns:i="&ns_ai;" xmlns:graph="&ns_graphs;"
	 xmlns="http://www.w3.org/2000/svg" xmlns:xlink="http://www.w3.org/1999/xlink" x="0px" y="0px" width="354px" height="423px"
	 viewBox="0 0 354 423" style="enable-background:new 0 0 354 423;" xml:space="preserve">
<metadata>
	<sfw  xmlns="&ns_sfw;">
		<slices></slices>
		<sliceSourceBounds  bottomLeftOrigin="true" height="408.916" width="340.7597" x="8.2527" y="7.584"></sliceSourceBounds>
	</sfw>
</metadata>
<g>
	<path d="M185.4,6.6c5.3,1.1,10.7,2,15.9,3.2c36.2,8.5,67.2,43,72,80c3.2,24.3-0.3,47.3-14.1,67.9c-18.3,27.3-43.5,43.2-76.9,45.5
		c-43.9,3-79.9-22.8-96.3-57.9c-15.4-32.9-9.2-76.7,15-104c14.8-16.7,32.6-28.3,54.7-32.8c3.8-0.8,7.5-1.4,11.3-2
		C173.2,6.6,179.3,6.6,185.4,6.6z M250.7,105c-0.2-41.5-33.3-74.5-74.7-74.4s-74.5,33.2-74.4,74.6s33.5,74.6,74.6,74.4
		C217.7,179.4,250.8,146.2,250.7,105z"/>
	<path d="M178.8,415.4c-32.5,0-64.9,0-97.4,0c-16.4,0-32-3.3-45.6-13C20.2,391.3,10.9,376,9.2,357.1c-3-33.9,1-67.2,13.8-99
		c7.6-18.8,19-35,37.6-45c11.7-6.2,24.1-9.2,37.2-8.9c4.1,0.1,8.4,2.2,12.2,4.2c6.1,3.3,11.7,7.4,17.6,11
		c34.2,21.1,68.4,21,102.6-0.2c4.6-2.9,9.4-5.6,13.7-8.9c8.4-6.3,17.6-7.1,27.6-5.5c26,4,44.5,18.2,57,40.9
		c11.5,20.7,16.6,43.3,18.9,66.6c1.2,12,1.7,24.2,1.6,36.2c-0.4,35.7-25.3,62.4-60.9,66c-4.6,0.5-9.3,0.7-13.9,0.7
		C242.4,415.5,210.6,415.4,178.8,415.4z M178.3,391.5L178.3,391.5c33.8-0.1,67.6,0.2,101.4-0.1c28.5-0.3,45.8-18.3,45.5-46.7
		c-0.1-10.5-0.5-21-1.7-31.5c-2.1-19-6.1-37.5-15.3-54.5c-9.5-17.7-23.4-29.1-44.2-30.2c-1.7-0.1-3.7,0.3-5.2,1.2
		c-6,3.6-11.9,7.6-17.9,11.3c-16.5,10.3-34.5,16.5-53.9,18c-26.4,2-50.5-5.2-72.7-19.3c-5.3-3.3-10.5-6.8-15.8-10.1
		c-1.1-0.7-2.4-1.4-3.6-1.3c-12.9,0.6-24.5,4.7-33.8,14c-7.7,7.8-13.1,17.1-17,27.2c-10,25.9-12.5,53-11.8,80.4
		c0.4,15.1,7,27.4,20.5,35.2c8.8,5.1,18.5,6.4,28.4,6.4C113.7,391.5,146,391.5,178.3,391.5z"/>
</g>
</svg>
