<?xml version="1.0" encoding="UTF-8"?><svg id="a" xmlns="http://www.w3.org/2000/svg" viewBox="0 0 200 200"><defs><style>.b{fill:#fff;}</style></defs><path class="b" d="m189.24,173.26c0,2.57-2.08,4.65-4.65,4.65s-4.64-2.08-4.64-4.65,2.08-4.65,4.64-4.65,4.65,2.08,4.65,4.65"/><rect class="b" x="167.73" y="109.07" width="6.15" height="1.54"/><rect class="b" x="167.3" y="111" width="6.96" height="6.32"/><polygon class="b" points="144.27 97.91 123.54 98.13 123.41 102.26 133.72 108.71 140 108.71 144.3 102.23 144.27 97.91"/><rect class="b" x="119.48" y="98.25" width="3.17" height="3.89" transform="translate(15.5 216.59) rotate(-87.4)"/><polygon class="b" points="125.61 104.24 130.34 107.18 121.23 124.11 119.14 123.34 125.61 104.24"/><rect class="b" x="133.85" y="109.07" width="6.15" height="1.54"/><rect class="b" x="133.42" y="111" width="6.96" height="6.32"/><polygon class="b" points="145.73 156.96 128.89 156.96 125.45 126.14 132.92 117.79 140.92 117.79 148.97 126.14 145.73 156.96"/><rect class="b" x="153.34" y="98.24" width="3.17" height="3.89" transform="translate(47.83 250.42) rotate(-87.41)"/><path class="b" d="m186.92,161.19h-75.13v5.57h75.13c3.58,0,6.51,2.92,6.51,6.51s-2.92,6.5-6.51,6.5h-75.13v5.57h75.13c6.66,0,12.08-5.42,12.08-12.07s-5.42-12.08-12.08-12.08"/><path class="b" d="m99.13,177.91c-2.56,0-4.64-2.08-4.64-4.65s2.08-4.65,4.64-4.65,4.65,2.08,4.65,4.65-2.08,4.65-4.65,4.65m-21.37,0c-2.56,0-4.64-2.08-4.64-4.65s2.08-4.65,4.64-4.65,4.65,2.08,4.65,4.65-2.08,4.65-4.65,4.65m-21.37,0c-2.56,0-4.64-2.08-4.64-4.65s2.08-4.65,4.64-4.65,4.65,2.08,4.65,4.65-2.08,4.65-4.65,4.65m-.47-11.15c-3.59,0-6.5,2.92-6.5,6.51s2.92,6.5,6.5,6.5h55.86v-13.01h-55.86Z"/><path class="b" d="m125.14,173.26c0,2.57-2.08,4.65-4.65,4.65s-4.64-2.08-4.64-4.65,2.08-4.65,4.64-4.65,4.65,2.08,4.65,4.65"/><path class="b" d="m146.51,173.26c0,2.57-2.08,4.65-4.65,4.65s-4.64-2.08-4.64-4.65,2.08-4.65,4.64-4.65,4.65,2.08,4.65,4.65"/><path class="b" d="m167.88,173.26c0,2.57-2.08,4.65-4.65,4.65s-4.64-2.08-4.64-4.65,2.08-4.65,4.64-4.65,4.65,2.08,4.65,4.65"/><path class="b" d="m76.32,117.79h8l8.05,8.35-3.25,30.82h-16.84l-3.44-30.82,7.47-8.35Zm4.42-24.71s8.82,16.39-.26,16.71c.09,0,.17.02.26.02h-.52c.09,0,.17-.01.26-.02-9.07-.31.26-16.71.26-16.71m-24.81,68.1h55.86v-92.89l-28.57,17.42v-17.42l-32.05,17.42v-17.42h-6.97V9.07h-13.94v59.22h-9.76V9.07H6.57v59.22H1v122.63h110.79v-5.59h-55.86c-6.66,0-12.08-5.42-12.08-12.08s5.42-12.08,12.08-12.08"/><path class="b" d="m80.74,126.07s9.01,16.72-.52,16.72h.52c-9.52,0,0-16.72,0-16.72"/><polygon class="b" points="178.15 97.91 157.41 98.13 157.28 102.26 167.6 108.71 173.88 108.71 178.18 102.23 178.15 97.91"/><rect class="b" x="153.36" y="98.24" width="3.17" height="3.89" transform="translate(47.85 250.44) rotate(-87.41)"/><polygon class="b" points="159.49 104.24 164.21 107.18 155.1 124.11 153.01 123.34 159.49 104.24"/><polygon class="b" points="179.61 156.96 162.76 156.96 159.33 126.14 166.8 117.79 174.8 117.79 182.85 126.14 179.61 156.96"/></svg>