<?xml version="1.0" encoding="utf-8"?>
<!-- Generator: Adobe Illustrator 27.8.1, SVG Export Plug-In . SVG Version: 6.00 Build 0)  -->
<!DOCTYPE svg PUBLIC "-//W3C//DTD SVG 1.1//EN" "http://www.w3.org/Graphics/SVG/1.1/DTD/svg11.dtd" [
	<!ENTITY ns_extend "http://ns.adobe.com/Extensibility/1.0/">
	<!ENTITY ns_ai "http://ns.adobe.com/AdobeIllustrator/10.0/">
	<!ENTITY ns_graphs "http://ns.adobe.com/Graphs/1.0/">
	<!ENTITY ns_vars "http://ns.adobe.com/Variables/1.0/">
	<!ENTITY ns_imrep "http://ns.adobe.com/ImageReplacement/1.0/">
	<!ENTITY ns_sfw "http://ns.adobe.com/SaveForWeb/1.0/">
	<!ENTITY ns_custom "http://ns.adobe.com/GenericCustomNamespace/1.0/">
	<!ENTITY ns_adobe_xpath "http://ns.adobe.com/XPath/1.0/">
]>
<svg version="1.1" id="Layer_1" xmlns:x="&ns_extend;" xmlns:i="&ns_ai;" xmlns:graph="&ns_graphs;"
	 xmlns="http://www.w3.org/2000/svg" xmlns:xlink="http://www.w3.org/1999/xlink" x="0px" y="0px" width="500px" height="500px"
	 viewBox="0 0 500 500" style="enable-background:new 0 0 500 500;" xml:space="preserve">
<style type="text/css">
	.st0{fill:#FF6600;}
	.st1{fill:#FFFFFF;}
</style>
<metadata>
	<sfw  xmlns="&ns_sfw;">
		<slices></slices>
		<sliceSourceBounds  bottomLeftOrigin="true" height="500" width="500" x="520" y="-500"></sliceSourceBounds>
	</sfw>
</metadata>
<path class="st0" d="M0,0v500h500V0H0z M470.6572,437.1561c0,13.8506-11.267,25.1176-25.1176,25.1176H321.7728
	c-13.8506,0-25.1176-11.267-25.1176-25.1176v-9.9213h-105.179v41.4271c0,3.3374-2.7067,6.0441-6.0442,6.0441H76.0776
	c-3.3375,0-6.0442-2.7067-6.0442-6.0441v-94.9424c0-0.1168,0.0109-0.2309,0.0175-0.3461c0.0038-0.0673,0.0041-0.1343,0.0102-0.2016
	c0.0415-0.4609,0.1351-0.9062,0.2742-1.3315c0.0034-0.0104,0.0049-0.0211,0.0084-0.0315l30.6923-92.0754h-2.4464
	c-3.3375,0-6.0442-2.7067-6.0442-6.0441v-26.5966c0-3.3375,2.7067-6.0441,6.0442-6.0441h0.2168l-11.3708-22.1655
	c-13.2452,30.8105-38.1492,34.1931-48.4139,34.1931c-2.8029,0.0016-4.5112-0.2513-4.5972-0.2648
	c-2.4437-0.3947-4.4016-2.2396-4.9379-4.6562c-0.5363-2.4183,0.4553-4.9176,2.5043-6.3089
	c13.6205-9.2558,17.8179-24.8476,19.1069-33.0953c-2.0043-0.9841-3.3878-3.0396-3.3878-5.4226V176.767
	c0-3.3374,2.7067-6.0441,6.0441-6.0441h38.7911V130.085c0-7.739,2.7101-15.2908,7.6294-21.2641l11.9011-14.451
	c1.9817-2.4067,4.2571-4.4934,6.7524-6.228V53.8485c0-3.3374,2.7067-6.0441,6.0441-6.0441h65.6458
	c3.3374,0,6.0441,2.7067,6.0441,6.0441v21.8608l29.4062-41.1114c4.1638-5.8249,10.928-9.304,18.092-9.304h93.0552
	c10.783,0,20.679,5.4286,26.4718,14.5201l36.4099,57.131c2.2294,3.496,3.4066,7.5366,3.4066,11.6835v25.6421h12.8893
	c3.3375,0,6.0442,2.7067,6.0442,6.0441v33.576c22.0476,2.3477,44.4708,16.3307,45.498,16.978
	c0.0193,0.0122,0.0358,0.0276,0.0551,0.04c0.2015,0.1306,0.3967,0.2696,0.5808,0.4224c0.0236,0.0196,0.0444,0.0416,0.0677,0.0615
	c0.1567,0.1342,0.3055,0.2768,0.4477,0.4261c0.0505,0.0531,0.0989,0.1074,0.1473,0.1621c0.1198,0.1353,0.233,0.2758,0.3404,0.4214
	c0.0338,0.0459,0.0698,0.0898,0.1022,0.1367c0.1357,0.1953,0.2608,0.3979,0.3731,0.6089c0.0132,0.0248,0.0237,0.0509,0.0366,0.0759
	c0.0967,0.188,0.1826,0.3821,0.2596,0.581c0.0206,0.0533,0.0398,0.1068,0.0589,0.1608c0.0662,0.1867,0.1232,0.3774,0.171,0.5721
	c0.0109,0.0443,0.0241,0.0877,0.0341,0.1324c0.0529,0.2384,0.0938,0.4811,0.1176,0.7292c0.0023,0.0237,0.0016,0.0478,0.0036,0.0715
	c0.0142,0.1689,0.0258,0.3386,0.0258,0.5112V437.1561z"/>
<g>
	<path class="st1" d="M235.4482,101.7148h120.6572c4.7676,0,9.0605-2.645,11.2021-6.9004c2.1465-4.2593,1.7148-9.2852-1.125-13.1128
		l-23.4502-31.6426c-2.3525-3.1812-6.1211-5.0801-10.0801-5.0801h-81.6641c-4.75,0-9.1709,2.7549-11.2588,7.0146l-15.54,31.6455
		c-1.9248,3.9146-1.6953,8.4624,0.6094,12.1602C227.1035,99.5034,231.084,101.7148,235.4482,101.7148z M258.8037,70.0674h67.5303
		l4.8613,6.5591H255.583L258.8037,70.0674z"/>
	<path class="st1" d="M477.124,195.1279l-0.0273-0.3652c-0.0498-0.5068-0.1328-1.0186-0.2354-1.4731
		c-0.0254-0.1191-0.0547-0.2363-0.0723-0.3018c-0.1006-0.4092-0.2217-0.8101-0.335-1.1274
		c-0.0449-0.1323-0.0928-0.2622-0.1465-0.4023c-0.1455-0.3755-0.3076-0.7422-0.4756-1.0771l-0.1445-0.2876
		c-0.2285-0.4297-0.4883-0.855-0.7539-1.2368c-0.0879-0.1279-0.1807-0.2529-0.2295-0.3145
		c-0.2188-0.2964-0.4492-0.5825-0.7207-0.8901l-0.2939-0.3203c-0.2402-0.252-0.4893-0.4941-0.7822-0.7529l-0.2979-0.2607
		c-0.29-0.2393-0.5908-0.4648-0.9141-0.6851l-0.3955-0.2642c-2.2939-1.4443-21.4707-13.2275-42.4619-17.0918v-27.9619
		c0-6.917-5.627-12.5444-12.5439-12.5444h-6.3896v-19.1416c0-5.3882-1.5303-10.6367-4.4248-15.1768l-36.4102-57.1313
		c-6.9932-10.9746-18.9385-17.5269-31.9531-17.5269h-93.0557c-9.2578,0-17.9971,4.4951-23.3789,12.0225l-17.6191,24.6328v-1.6006
		c0-6.917-5.627-12.5444-12.5439-12.5444H124.873c-6.917,0-12.5449,5.6274-12.5449,12.5444v31.0835
		c-1.9131,1.5967-3.6777,3.373-5.2695,5.3057L95.1572,104.689c-5.876,7.1353-9.1113,16.1543-9.1113,25.396v34.1377h-32.292
		c-6.917,0-12.5439,5.6274-12.5439,12.5444v26.561c0,2.959,1.0156,5.728,2.8037,7.9175
		c-1.6934,7.6118-5.7891,18.5059-15.6738,25.2231c-4.2783,2.9043-6.3184,8.0439-5.1982,13.0967
		c1.1211,5.0459,5.1436,8.8389,10.2617,9.665c0.2227,0.0361,2.2666,0.3457,5.5811,0.3457c0.0117,0,0.0244,0,0.0371,0
		c10.0039,0,32.8477-2.8496,48.3057-26.6636l2.6162,5.0996c-2.3994,2.2866-3.8975,5.5117-3.8975,9.0806v26.5967
		c0,4.7236,2.624,8.8457,6.4912,10.9854l-28.335,85.0039l-0.1426,0.4521c-0.2383,0.7998-0.3975,1.626-0.4746,2.4775
		c-0.0137,0.1533-0.0215,0.3057-0.0254,0.4121c-0.0156,0.2314-0.0264,0.4629-0.0264,0.6992v94.9424
		c0,6.917,5.627,12.5439,12.5439,12.5439h109.3545c6.917,0,12.5449-5.627,12.5449-12.5439v-34.9277h92.1787v3.4219
		c0,17.4336,14.1836,31.6172,31.6172,31.6172h123.7666c17.4346,0,31.6182-14.1836,31.6182-31.6172V195.9819
		C477.1572,195.6948,477.1445,195.4102,477.124,195.1279z M449.4648,442.3701V212.6284c0.8867-0.1411,1.7549-0.2861,2.6035-0.4346
		v224.9624C452.0684,439.2842,451.0449,441.1777,449.4648,442.3701z M407.5674,254.4111c-2.4268,2.3496-3.8184,5.6338-3.8184,9.0107
		v71.208c0,3.1367,1.165,6.1406,3.2793,8.4551l17.3477,19.0117v81.5889h-86.4316V215.395
		c14.3457,0.6924,30.7773,1.0425,48.9619,1.0425c13.7783,0,26.3457-0.3774,37.4697-1.123v22.8232L407.5674,254.4111z
		 M292.3516,192.5654c-0.3301,0.481-0.626,0.9912-0.9463,1.6436l-0.1074,0.2275c-0.0762,0.166-0.1475,0.3296-0.2139,0.4912
		l-0.667,1.0029v1.1768c-0.0088,0.0439-0.0186,0.0879-0.0273,0.1328c-0.0312,0.1616-0.0566,0.3218-0.0781,0.4858
		c-0.0137,0.0884-0.0273,0.1846-0.0439,0.3057c-0.0527,0.4058-0.0869,0.8086-0.1016,1.2417l-0.0107,0.1333v209.2397h-92.1787
		v-34.9268c0-0.2158-0.0098-0.4277-0.0244-0.6514c-0.0068-0.1807-0.0186-0.3604-0.0283-0.4619
		c-0.0732-0.8271-0.2285-1.6475-0.4639-2.4434l-0.041-0.1787l-29.1006-88.0186c1.9541-2.2275,3.0967-5.1348,3.0967-8.2764v-26.5967
		c0-5.4004-3.4297-10.0142-8.2246-11.7783l21.5947-8.7788c4.1465-1.6826,7.0986-5.4819,7.7051-9.9097
		c0.6094-4.4258-1.2031-8.8789-4.7363-11.624l-49.1729-38.1499c-2.1895-1.6958-4.918-2.6294-7.6846-2.6294h-19.7627V130.085
		c0-3.4375,1.2041-6.793,3.3896-9.4468l11.9023-14.4531c1.1982-1.4546,2.6357-2.6523,4.2754-3.5601
		c0.0879-0.0464,0.1758-0.0938,0.2637-0.1421c2.1211-1.1196,4.5166-1.7109,6.9307-1.7109H186.71
		c2.0898,0,4.2031-0.2373,6.2852-0.7056c0.1084-0.0225,0.2256-0.0479,0.3633-0.0796c0.1396-0.0327,0.2773-0.0684,0.4912-0.125
		l0.2832-0.0762c6.4375-1.7256,12.1006-5.6411,15.957-11.0356l31.002-43.3423c0.6816-0.9551,1.792-1.5254,2.9688-1.5254h93.0557
		c4.3975,0,8.4346,2.2134,10.7969,5.9209l36.4111,57.1357c0.3223,0.5044,0.4922,1.0889,0.4922,1.6899v19.1416h-37.7539
		c-6.917,0-12.5439,5.6274-12.5439,12.5444v8.9795H156.3281c-6.917,0-12.5449,5.6274-12.5449,12.5444
		s5.6279,12.5439,12.5449,12.5439h157.7627C300.3984,181.3335,293.459,190.9399,292.3516,192.5654z M172.8877,456.0576v0.0596
		H88.6221v-0.0596H172.8877z M88.6221,430.9697v-44.7061h84.2656v44.7061H88.6221z M86.7539,190.8013l-20.4551-0.0171v-1.4731
		h60.3027l28.582,22.1763l-14.5986,5.9346c-4.751,1.9307-7.8203,6.4922-7.8203,11.6211v5.2578h-16.5273l-18.8262-36.6982
		l-0.001-0.0024c-0.0703-0.1377-0.1455-0.2715-0.2246-0.4033c-0.168-0.2983-0.3457-0.5874-0.5303-0.8618
		c-0.0684-0.105-0.1387-0.209-0.2266-0.332c-0.2939-0.4082-0.6123-0.7993-0.9551-1.1738c-0.082-0.0894-0.166-0.1758-0.2529-0.2612
		c-0.2812-0.2891-0.5879-0.5732-0.957-0.8838l-0.2012-0.1641c-0.8164-0.6509-1.7119-1.1978-2.6973-1.6416
		c-0.1006-0.0449-0.2021-0.0869-0.2832-0.1191c-0.377-0.1582-0.7676-0.2983-1.1465-0.4141
		c-0.0801-0.0254-0.1602-0.0503-0.2432-0.0742l-0.4482-0.1255c-0.3955-0.0962-0.79-0.1709-1.1523-0.2231
		c-0.1221-0.0181-0.2461-0.0332-0.2803-0.0356C87.4707,190.8442,87.1221,190.8159,86.7539,190.8013z M146.3271,259.6367v1.5078
		h-35.1934v-1.5078H146.3271z M93.4824,361.1758l24.9795-74.9424h24.8438l24.7695,74.9424H93.4824z M177.9746,75.6836h-40.0791
		c-0.1592,0-0.3193,0.001-0.4785,0.0029v-9.2939h40.5576V75.6836z M403.749,169.1587c-9.7285,1.4023-26.2891,2.8198-44.1426,0.1016
		v-16.4014h44.1426V169.1587z"/>
</g>
<g>
	<rect x="82.1217" y="379.7636" class="st1" width="97.2662" height="57.7061"/>
	<polygon class="st1" points="148.0031,279.7333 113.7776,279.7333 84.4641,367.6754 177.0691,367.6754 	"/>
	<path class="st1" d="M104.6338,267.645h47.6138c0.0198-0.0004,0.0396,0.0002,0.0594,0h0.5197v-14.5083h-48.1929V267.645z"/>
	<polygon class="st1" points="329.6079,63.5674 254.7543,63.5674 245.1501,83.1265 344.1028,83.1265 	"/>
	<path class="st1" d="M353.1066,174.723c24.6033,4.8535,47.6432,1.7117,57.1428-0.0422v-28.3218h-57.1428V174.723z"/>
	<path class="st1" d="M184.4742,82.1838V59.8927h-53.5575v23.0295c2.2709-0.4817,4.6061-0.7384,6.9785-0.7384H184.4742z"/>
	<path class="st1" d="M139.2645,240.8005v-11.7578c0-2.4588,1.4891-4.6731,3.7675-5.5989l25.0434-10.181l-39.2482-30.4517H59.7985
		v14.4728h26.4516c0.039,0,0.0766,0.0073,0.1155,0.0081c0.2134,0.0038,0.4278,0.0178,0.6432,0.0447
		c0.0397,0.0051,0.0797,0.0079,0.1191,0.0137c0.1923,0.0278,0.3849,0.0636,0.5775,0.1106c0.0422,0.0105,0.0816,0.0261,0.1234,0.0374
		c0.0637,0.0172,0.1258,0.0378,0.1887,0.0571c0.1904,0.0582,0.3757,0.1247,0.5562,0.1998c0.0522,0.0218,0.1049,0.0419,0.1564,0.0652
		c0.4652,0.209,0.8934,0.4728,1.2809,0.7818c0.0422,0.0336,0.0829,0.0683,0.1243,0.103c0.1642,0.1383,0.3206,0.2839,0.4683,0.4379
		c0.0287,0.0298,0.0592,0.0575,0.0874,0.088c0.1667,0.1812,0.3211,0.3722,0.4642,0.5715c0.0345,0.0479,0.0656,0.0983,0.0986,0.1473
		c0.1124,0.1667,0.2162,0.3385,0.3117,0.5156c0.0192,0.0357,0.0439,0.0672,0.0625,0.1034l20.6385,40.2314H139.2645z"/>
	<path class="st1" d="M51.9785,238.9016c8.9864-3.233,19.7268-11.0659,26.1765-29.5293H63.2477
		C62.3101,216.3232,59.6335,228.1721,51.9785,238.9016z"/>
	<rect x="82.1217" y="449.558" class="st1" width="97.2662" height="13.0596"/>
	<polygon class="st1" points="422.3377,332.2874 430.876,341.6445 430.876,257.7177 422.3377,265.9839 	"/>
	<path class="st1" d="M331.4445,208.5388v241.6466h99.4316v-90.608l-19.0464-20.8731c-1.0169-1.1147-1.5802-2.5667-1.5802-4.0744
		v-71.2076c0-1.6375,0.6645-3.2042,1.8399-4.3425l18.7867-18.1877v-32.5928c-11.2029,0.9678-25.5917,1.6381-43.9702,1.6381
		C362.7159,209.9373,344.6119,209.3138,331.4445,208.5388z"/>
	<path class="st1" d="M442.9644,450.1854h2.5752c7.1841,0,13.0293-5.8452,13.0293-13.0293V204.2286
		c-3.7135,0.8969-8.7923,1.8796-15.6045,2.7733V450.1854z"/>
	<path class="st1" d="M341.0183,167.8829H156.3278c-3.3374,0-6.0441-2.7067-6.0441-6.0441s2.7067-6.0441,6.0441-6.0441h184.6906
		v-15.4797c0-3.3374,2.7067-6.0441,6.0441-6.0441h44.2535v-25.6421c0-1.8416-0.5228-3.6359-1.5128-5.1874l-36.4082-57.131
		c-3.5634-5.5905-9.648-8.9279-16.2791-8.9279h-93.0552c-3.27,0-6.3578,1.5869-8.2584,4.2464l-30.9999,43.3395
		c-3.0489,4.2653-7.4945,7.2652-12.468,8.5699c-0.0361,0.0114-0.0733,0.0196-0.1097,0.0303
		c-0.1192,0.0306-0.2376,0.0632-0.3574,0.0919c-0.0752,0.0172-0.1501,0.034-0.2264,0.0483
		c-1.6036,0.3661-3.2551,0.5636-4.9305,0.5636h-48.8152c-3.5589,0-6.9935,0.8781-10.0428,2.5038
		c-0.0717,0.0408-0.1442,0.0795-0.2176,0.1173c-2.353,1.2899-4.4704,3.0276-6.2261,5.16l-11.9028,14.4527
		c-3.1418,3.8147-4.8721,8.6362-4.8721,13.579v40.6378h26.2627c1.3424,0,2.6443,0.4469,3.7051,1.2682l49.1677,38.1469
		c1.7067,1.3256,2.5768,3.4606,2.2817,5.6006c-0.2935,2.1401-1.7084,3.9614-3.7101,4.7742l-30.9881,12.5976v7.938h7.5181
		c3.3374,0,6.0441,2.7067,6.0441,6.0441v26.5966c0,2.7192-1.7973,5.0188-4.2681,5.7778l30.5241,92.3553
		c0.0035,0.0106,0.0051,0.0214,0.0085,0.032c0.1368,0.4214,0.2282,0.8627,0.2692,1.3191c0.0071,0.0782,0.0078,0.1562,0.0118,0.2344
		c0.0053,0.1039,0.0157,0.2065,0.0157,0.3117v41.4271h105.179V199.7154c-0.0001-0.0091,0.0001-0.0182,0-0.0273v-0.033
		c0-0.0156,0.0033-0.0307,0.0034-0.0463c0.0021-0.2431,0.0223-0.4883,0.0546-0.7346c0.0092-0.0703,0.0188-0.1398,0.0305-0.2097
		c0.01-0.0601,0.0143-0.1198,0.0261-0.1799c0.0395-0.2,0.089-0.3954,0.1468-0.5864c0.0004-0.0014,0.0006-0.0029,0.001-0.0043
		c0.0796-0.2624,0.1811-0.5126,0.2927-0.7565c0.0226-0.0494,0.0463-0.0979,0.0703-0.1467c0.1288-0.2623,0.271-0.5156,0.4338-0.7529
		c0.8746-1.2867,14.451-20.5427,43.3038-22.5312V167.8829z M230.0228,86.5062l15.5404-31.6475
		c1.0153-2.0693,3.1199-3.3796,5.4252-3.3796h81.6635c1.9141,0,3.7169,0.9073,4.8552,2.4453l23.4531,31.6474
		c1.361,1.8348,1.5701,4.2785,0.543,6.3174s-3.1148,3.3256-5.3983,3.3256h-120.657c-2.0878,0-4.0272-1.0759-5.1301-2.8484
		C229.215,90.5957,229.1021,88.3798,230.0228,86.5062z"/>
	<path class="st1" d="M308.7435,421.1907v15.9654c0,6.3577,4.5804,11.6582,10.6127,12.7956V207.687
		c-4.4191-0.3699-7.9225-0.7369-10.6127-1.0587V421.1907z"/>
	<path class="st1" d="M447.9208,194.0124c-8.7257-3.9852-20.3939-8.1931-30.9818-8.3591c-3.5416,0.8211-17.5693,3.772-36.0114,3.772
		c-10.4685,0-22.3554-0.9624-34.5507-3.7946c-0.1826-0.0016-0.367-0.0049-0.5472-0.0049c-14.066,0-23.9625,4.9482-30.1475,9.5751
		c12.1985,1.1838,34.6716,2.6481,71.2238,2.6481C417.7236,197.849,436.7465,195.8944,447.9208,194.0124z"/>
</g>
<path class="st0" d="M235.4481,95.2148h120.657c2.2834,0,4.3712-1.2867,5.3983-3.3256s0.8179-4.4825-0.543-6.3174l-23.4531-31.6474
	c-1.1383-1.538-2.9411-2.4453-4.8552-2.4453h-81.6635c-2.3053,0-4.41,1.3103-5.4252,3.3796l-15.5404,31.6475
	c-0.9208,1.8736-0.8078,4.0895,0.2952,5.8603C231.4209,94.1389,233.3603,95.2148,235.4481,95.2148z M254.7543,63.5674h74.8536
	l14.4949,19.5591h-98.9527L254.7543,63.5674z"/>
<path class="st0" d="M470.6277,195.3994c-0.0238-0.2481-0.0647-0.4908-0.1176-0.7292c-0.0099-0.0447-0.0231-0.0881-0.0341-0.1324
	c-0.0479-0.1946-0.1048-0.3854-0.171-0.5721c-0.0191-0.054-0.0383-0.1075-0.0589-0.1608c-0.077-0.1989-0.1628-0.3929-0.2596-0.581
	c-0.0128-0.025-0.0234-0.051-0.0366-0.0759c-0.1123-0.211-0.2374-0.4137-0.3731-0.6089c-0.0324-0.0468-0.0685-0.0908-0.1022-0.1367
	c-0.1074-0.1457-0.2206-0.2862-0.3404-0.4214c-0.0485-0.0547-0.0968-0.109-0.1473-0.1621c-0.1422-0.1494-0.291-0.2919-0.4477-0.4261
	c-0.0233-0.0199-0.0441-0.0419-0.0677-0.0615c-0.1841-0.1528-0.3793-0.2919-0.5808-0.4224c-0.0192-0.0124-0.0357-0.0278-0.0551-0.04
	c-1.0272-0.6472-23.4504-14.6302-45.498-16.978v-33.576c0-3.3374-2.7067-6.0441-6.0442-6.0441h-12.8893v-25.6421
	c0-4.1469-1.1771-8.1876-3.4066-11.6835l-36.4099-57.131c-5.7928-9.0915-15.6888-14.5201-26.4718-14.5201h-93.0552
	c-7.1639,0-13.9282,3.4791-18.092,9.304l-29.4062,41.1114V53.8485c0-3.3374-2.7067-6.0441-6.0441-6.0441h-65.6458
	c-3.3374,0-6.0441,2.7067-6.0441,6.0441v34.2934c-2.4954,1.7346-4.7708,3.8213-6.7524,6.228l-11.9011,14.451
	c-4.9193,5.9733-7.6294,13.5251-7.6294,21.2641v40.6378H53.7543c-3.3374,0-6.0441,2.7067-6.0441,6.0441v26.5612
	c0,2.3831,1.3835,4.4385,3.3878,5.4226c-1.289,8.2477-5.4864,23.8395-19.1069,33.0953c-2.049,1.3913-3.0406,3.8906-2.5043,6.3089
	c0.5363,2.4166,2.4942,4.2616,4.9379,4.6562c0.086,0.0135,1.7943,0.2664,4.5972,0.2648c10.2648,0,35.1687-3.3826,48.4139-34.1931
	l11.3708,22.1655h-0.2168c-3.3375,0-6.0442,2.7067-6.0442,6.0441v26.5966c0,3.3374,2.7067,6.0441,6.0442,6.0441h2.4464
	l-30.6923,92.0754c-0.0035,0.0104-0.005,0.0211-0.0084,0.0315c-0.1392,0.4253-0.2327,0.8706-0.2742,1.3315
	c-0.0061,0.0673-0.0063,0.1343-0.0102,0.2016c-0.0065,0.1152-0.0175,0.2292-0.0175,0.3461v94.9424
	c0,3.3374,2.7067,6.0441,6.0442,6.0441h109.3545c3.3375,0,6.0442-2.7067,6.0442-6.0441v-41.4271h105.179v9.9213
	c0,13.8506,11.267,25.1176,25.1176,25.1176h123.7667c13.8506,0,25.1176-11.267,25.1176-25.1176v-241.174
	c0-0.1726-0.0117-0.3423-0.0258-0.5112C470.6293,195.4472,470.6301,195.4231,470.6277,195.3994z M410.2494,146.3591v28.3218
	c-9.4996,1.7539-32.5396,4.8957-57.1428,0.0422v-28.364H410.2494z M130.9167,59.8927h53.5575v22.2911h-46.579
	c-2.3723,0-4.7076,0.2567-6.9785,0.7384V59.8927z M51.9785,238.9016c7.655-10.7295,10.3316-22.5784,11.2692-29.5293H78.155
	C71.7053,227.8357,60.9649,235.6686,51.9785,238.9016z M91.6281,200.5692c-0.0186-0.0362-0.0433-0.0677-0.0625-0.1034
	c-0.0955-0.1771-0.1993-0.3488-0.3117-0.5156c-0.0331-0.0491-0.0641-0.0994-0.0986-0.1473
	c-0.1431-0.1993-0.2975-0.3904-0.4642-0.5715c-0.0282-0.0305-0.0587-0.0582-0.0874-0.088c-0.1477-0.154-0.3041-0.2996-0.4683-0.4379
	c-0.0413-0.0347-0.0821-0.0695-0.1243-0.103c-0.3876-0.309-0.8157-0.5728-1.2809-0.7818c-0.0516-0.0233-0.1042-0.0434-0.1564-0.0652
	c-0.1805-0.0751-0.3657-0.1416-0.5562-0.1998c-0.0629-0.0193-0.125-0.0399-0.1887-0.0571
	c-0.0417-0.0113-0.0812-0.0269-0.1234-0.0374c-0.1926-0.047-0.3853-0.0828-0.5775-0.1106
	c-0.0395-0.0058-0.0794-0.0087-0.1191-0.0137c-0.2155-0.0269-0.4298-0.041-0.6432-0.0447
	c-0.0389-0.0007-0.0765-0.0081-0.1155-0.0081H59.7985v-14.4728h69.0287l39.2482,30.4517l-25.0434,10.181
	c-2.2784,0.9258-3.7675,3.1401-3.7675,5.5989v11.7578h-26.998L91.6281,200.5692z M152.8267,253.1367v14.5083h-0.5197
	c-0.0199,0.0002-0.0396-0.0004-0.0594,0h-47.6138v-14.5083H152.8267z M113.7776,279.7333h34.2255l29.066,87.942h-92.605
	L113.7776,279.7333z M179.3879,462.6177H82.1217V449.558h97.2662V462.6177z M179.3879,437.4697H82.1217v-57.7061h97.2662V437.4697z
	 M297.7145,196.2379c-0.1628,0.2374-0.305,0.4906-0.4338,0.7529c-0.024,0.0488-0.0476,0.0973-0.0703,0.1467
	c-0.1116,0.244-0.2131,0.4941-0.2927,0.7565c-0.0004,0.0014-0.0006,0.0029-0.001,0.0043c-0.0578,0.191-0.1073,0.3865-0.1468,0.5864
	c-0.0118,0.0601-0.0161,0.1198-0.0261,0.1799c-0.0117,0.0698-0.0213,0.1394-0.0305,0.2097
	c-0.0323,0.2463-0.0526,0.4915-0.0546,0.7346c-0.0001,0.0156-0.0034,0.0307-0.0034,0.0463v0.033
	c0.0001,0.0091-0.0001,0.0182,0,0.0273v215.4312h-105.179v-41.4271c0-0.1052-0.0104-0.2078-0.0157-0.3117
	c-0.004-0.0782-0.0048-0.1562-0.0118-0.2344c-0.041-0.4564-0.1324-0.8976-0.2692-1.3191c-0.0034-0.0106-0.005-0.0214-0.0085-0.032
	l-30.5241-92.3553c2.4708-0.759,4.2681-3.0585,4.2681-5.7778v-26.5966c0-3.3375-2.7067-6.0441-6.0441-6.0441h-7.5181v-7.938
	l30.9881-12.5976c2.0018-0.8128,3.4167-2.6342,3.7101-4.7742c0.2951-2.1401-0.5751-4.2751-2.2817-5.6006l-49.1677-38.1469
	c-1.0608-0.8213-2.3627-1.2682-3.7051-1.2682h-26.2627V130.085c0-4.9429,1.7303-9.7643,4.8721-13.579l11.9028-14.4527
	c1.7557-2.1324,3.8731-3.8702,6.2261-5.16c0.0734-0.0378,0.1459-0.0765,0.2176-0.1173c3.0493-1.6257,6.4839-2.5038,10.0428-2.5038
	h48.8152c1.6754,0,3.327-0.1975,4.9305-0.5636c0.0762-0.0143,0.1512-0.0311,0.2264-0.0483
	c0.1198-0.0287,0.2382-0.0613,0.3574-0.0919c0.0364-0.0107,0.0736-0.0189,0.1097-0.0303c4.9735-1.3047,9.4191-4.3047,12.468-8.5699
	l30.9999-43.3395c1.9006-2.6595,4.9884-4.2464,8.2584-4.2464h93.0552c6.631,0,12.7156,3.3375,16.2791,8.9279l36.4082,57.131
	c0.9899,1.5515,1.5128,3.3459,1.5128,5.1874v25.6421h-44.2535c-3.3375,0-6.0441,2.7067-6.0441,6.0441v15.4797H156.3278
	c-3.3374,0-6.0441,2.7067-6.0441,6.0441s2.7067,6.0441,6.0441,6.0441h184.6906v5.8238
	C312.1655,175.6952,298.5891,194.9512,297.7145,196.2379z M319.3561,449.9517c-6.0323-1.1374-10.6127-6.4379-10.6127-12.7956
	v-15.9654V206.6282c2.6901,0.3218,6.1935,0.6888,10.6127,1.0587V449.9517z M315.6821,195.2009
	c6.185-4.6268,16.0815-9.5751,30.1475-9.5751c0.1802,0,0.3646,0.0034,0.5472,0.0049c12.1953,2.8322,24.0822,3.7946,34.5507,3.7946
	c18.4421,0,32.4698-2.9509,36.0114-3.772c10.5879,0.1661,22.2561,4.374,30.9818,8.3591
	c-11.1743,1.882-30.1971,3.8366-61.0149,3.8366C350.3537,197.849,327.8807,196.3846,315.6821,195.2009z M430.876,341.6445
	l-8.5383-9.3571v-66.3035l8.5383-8.2662V341.6445z M430.876,240.892l-18.7867,18.1877c-1.1754,1.1383-1.8399,2.705-1.8399,4.3425
	v71.2076c0,1.5077,0.5633,2.9597,1.5802,4.0744l19.0464,20.8731v90.608h-99.4316V208.5388
	c13.1675,0.7751,31.2715,1.3985,55.4614,1.3985c18.3785,0,32.7672-0.6702,43.9702-1.6381V240.892z M458.5688,437.1561
	c0,7.1841-5.8452,13.0293-13.0293,13.0293h-2.5752V207.002c6.8122-0.8937,11.891-1.8764,15.6045-2.7733V437.1561z"/>
</svg>
