<?xml version="1.0" encoding="utf-8"?>
<!-- Generator: Adobe Illustrator 26.0.2, SVG Export Plug-In . SVG Version: 6.00 Build 0)  -->
<svg version="1.1" id="Layer_1" xmlns="http://www.w3.org/2000/svg" xmlns:xlink="http://www.w3.org/1999/xlink" x="0px" y="0px"
	 viewBox="0 0 200 200" style="enable-background:new 0 0 200 200;" xml:space="preserve">
<style type="text/css">
	.st0{fill:#FFFFFF;}
	.st1{fill:#006548;}
</style>
<g>
	<g>
		<path class="st0" d="M144.9415,152.2323c-0.3311,0-0.6659-0.0344-0.9998-0.106l-43.9504-9.4317
			c-0.8403-0.1804-1.6002-0.5804-2.2135-1.1412c-0.6455,0.1414-1.3221,0.1497-1.9899,0.0093l-45.4887-9.495
			c-0.8664-0.1804-1.6448-0.5934-2.267-1.1719c-1.0398,0.6259-2.2828,0.8324-3.4742,0.5729l-40.8133-8.9267
			c-1.9713-0.4315-3.4566-2.0582-3.7077-4.0597c-0.2507-2.0024,0.7873-3.9453,2.5911-4.8493L41.008,94.3934l23.9792-13.9537
			c0.0925-0.0535,0.1865-0.1042,0.2818-0.1516c0.2609-0.2474,0.5525-0.4678,0.8719-0.6548l27.5925-16.1616
			c0.3613-0.2116,0.7482-0.3743,1.1505-0.4841c0.1725-0.1367,0.3558-0.2623,0.5492-0.3757l23.4454-13.7537
			c0.5106-0.2995,1.0714-0.5008,1.6555-0.5948l2.7204-0.4367c0.5804-0.0921,1.1765-0.0767,1.7532,0.046l23.0245,4.9372
			c0.1609,0.0172,0.3209,0.0428,0.4799,0.0767l22.6125,4.8079c0.2279,0.0484,0.4501,0.113,0.665,0.1925l21.821,4.5131
			c1.4648,0.3032,2.7027,1.277,3.3417,2.6297l2.5921,5.4887c0.638,1.3514,0.6045,2.9241-0.0902,4.2471l-9.0067,17.1554
			c-0.2651,0.5055-0.6176,0.9561-1.0379,1.3323l-10.0112,19.587c-0.3636,0.7115-0.8984,1.316-1.5513,1.7634l-14.2392,27.9352
			c-0.4771,0.9347-1.2491,1.6862-2.1959,2.1373l-4.1825,1.9913c-0.9487,0.4511-2.0201,0.5766-3.0469,0.3562l-3.3073-0.7106
			l-1.6927,3.3203C148.3576,151.2521,146.703,152.2323,144.9415,152.2323z M110.0132,135.1044l32.3474,6.942l1.6936-3.3203
			c0.9803-1.9224,3.1259-2.9464,5.2418-2.4926l5.3023,1.1384l1.2584-0.599l13.9416-27.3502c0.359-0.9328,0.9942-1.7392,1.821-2.2879
			l8.9258-17.4628c0.0372-0.3716,0.12-0.7408,0.2455-1.0989c0.3571-1.011,1.0417-1.8666,1.9373-2.4354l7.1912-13.6979
			l-0.5645-1.1942l-18.4282-3.8114c-0.97,0.139-1.9727-0.0242-2.859-0.4813c-0.1572-0.0814-0.3097-0.1711-0.4567-0.2688
			l-20.411-4.3396c-0.5255-0.0153-1.0445-0.1172-1.5365-0.3023l-21.781-4.6703l-0.9561,0.1535l-21.0156,12.3279
			c-0.3943,0.6036-0.9282,1.1217-1.5774,1.5025l-0.0967,0.0567c-0.5055,0.2967-1.0621,0.4976-1.6411,0.592l-0.8129,0.133
			L72.6127,86.88c-0.3943,0.6031-0.9287,1.1207-1.5774,1.5006l-0.1842,0.1079c-0.5027,0.2948-1.0547,0.4943-1.6295,0.5897
			l-0.2,0.033l-23.3524,13.5891c-0.0856,0.0493-0.1725,0.0967-0.2609,0.1414l-26.4783,13.2729l25.6696,5.6148l7.0257-4.747
			c1.0645-0.7199,2.3735-0.9775,3.6309-0.718l4.5708,0.9459c1.8448,0.3823,3.2915,1.8155,3.6895,3.657
			c0.3116,1.4416-0.0651,2.9204-0.9733,4.0271l32.5409,6.7922l3.7142-4.043c1.1328-1.2342,2.8311-1.7811,4.4726-1.4425
			l4.3127,0.8929c1.6685,0.346,3.0246,1.556,3.5575,3.1743s0.1609,3.3975-0.9766,4.6661L110.0132,135.1044z"/>
	</g>
	<g>
		<polygon class="st1" points="87.2763,73.4967 113.2938,79.1938 117.2401,76.2931 120.2489,76.9261 116.2025,79.8789 
			143.6984,85.7002 146.7112,82.459 150.2008,83.1881 147.188,86.4974 148.7264,86.83 146.1303,89.6905 144.728,89.3941 
			135.285,99.9109 131.6111,99.0775 141.4628,88.4165 112.6648,82.3308 99.7722,91.9021 96.8916,91.2851 110.0406,81.7659 
			82.6529,76.0568 55.3853,92.0303 86.475,98.8251 93.2979,93.8892 96.2546,94.5182 89.612,99.4501 124.4156,106.866 
			129.2834,101.6016 133.0454,102.4068 128.2657,107.7273 129.5157,107.9958 127.0839,110.6721 125.7577,110.3916 
			100.9902,138.0398 144.9404,147.4708 160.1286,117.6873 130.5614,111.4092 132.9933,108.757 162.1519,115.1272 172.3281,95.2074 
			149.7841,90.4598 152.4003,87.6112 174.2312,92.2626 182.9771,75.596 161.2184,71.0968 152.9692,80.1513 149.5277,79.4301 
			157.9692,70.3516 135.7177,65.6201 124.0751,74.1297 121.0502,73.4967 132.6327,64.9871 110.0406,60.1393 		"/>
		<polygon class="st1" points="4.7621,117.8908 45.5753,126.817 83.624,101.108 51.3325,94.5455 		"/>
		<polygon class="st1" points="86.4201,101.7859 51.272,127.4068 96.7606,136.9019 121.9649,109.4621 		"/>
		<path class="st1" d="M124.1724,125.8863l15.3685-17.1594l22.7163,4.8237l-9.423,18.4815L124.1724,125.8863z M80.9914,116.5835
			l21.7908-15.8854l22.3437,4.8277l-15.629,17.0112L80.9914,116.5835z M44.409,109.0394l25.8974-15.0681l17.2035,3.4936
			L65.715,113.4064L44.409,109.0394z M149.2164,98.0739l7.7484-8.6298l16.4823,3.4695l-4.8037,9.403L149.2164,98.0739z
			 M116.0314,90.9185l10.8894-8.0849l16.0536,3.3934l-8.0569,8.7219L116.0314,90.9185z M86.2278,84.5243l12.8405-7.524
			l12.6923,2.6442l-11.0937,8.0288L86.2278,84.5243z M166.6883,78.5547l5.4046-5.9295l11.0617,2.2836l-3.3814,6.4343
			L166.6883,78.5547z M140.5706,72.9578l7.496-5.4767l10.04,2.1354l-5.4768,5.8934L140.5706,72.9578z M115.4946,67.5051
			l8.7099-5.1122l8.4735,1.8189l-7.3958,5.4367L115.4946,67.5051z M124.0081,52.5292l-2.7203,0.4367l-23.4454,13.754l0.0881,0.5689
			l-1.7909,0.2925L68.5476,83.743l0.0921,0.605l-1.258,0.2083l-40.9574,23.8341l1.1458,7.0072l83.2009,17.2195l1.282-0.4167
			l0.3245,0.9776l42.8044,9.1907l4.1827-1.9912l14.8878-29.2066l-0.028-0.0521l0.9335-0.4447l10.3004-20.1522l-0.1763-0.3646
			l0.9495-0.4487l9.0064-17.1554l-2.5921-5.4888l-21.8509-4.5192l-0.5449,0.1763l-0.1162-0.3686l-22.6121-4.8077l-0.1843,0.0401
			l-0.012-0.0561L124.0081,52.5292z"/>
		<path class="st1" d="M105.1989,69.1377l20.9455,4.5913l15.6009-11.4583l-18.189-3.9022L105.1989,69.1377z M126.6011,75.8805
			l-26.8349-5.8774l23.4454-13.758l23.3172,5L126.6011,75.8805z M131.4488,74.9149l22.4999,4.7596l11.5144-12.3798l-18.2692-3.8822
			L131.4488,74.9149z M154.6459,81.87l-28.0087-5.9215l20.0921-14.6835l22.6121,4.8037L154.6459,81.87z M159.4175,80.8925
			l22.3797,4.7676l7.0673-13.4495l-18.121-3.746L159.4175,80.8925z M182.867,87.9397l-27.2876-5.8133l14.4471-15.8573
			l21.8469,4.5152L182.867,87.9397z M75.9121,86.1609l25.6089,5.5929l19.435-14.0745l-22.544-4.6955L75.9121,86.1609z
			 M107.0098,92.8836l29.2307,6.2299l14.0665-15.2243l-24.2788-5.1282L107.0098,92.8836z M136.9376,101.3171l-34.6914-7.3958
			l11.8389-8.79l-12.1154,8.77l-31.5023-6.875l27.5921-16.1658l27.7523,5.7812l-0.028,0.02l28.3933,5.9936L136.9376,101.3171z
			 M142.0177,100.3956l28.6778,6.258l8.4014-16.4343l-23.4935-4.9439L142.0177,100.3956z M171.7772,108.9453l-33.5536-7.3277
			l16.6586-18.5416l27.1914,5.7171L171.7772,108.9453z M33.893,110.7602l32.7082,6.7067l30.1001-22.0112L69.6461,89.955
			L33.893,110.7602z M71.8376,118.5566l38.9983,8.145l21.5785-23.4895l-30.4927-6.5865L71.8376,118.5566z M111.541,128.8972
			l-83.2009-17.2235l40.9574-23.8341l32.2555,6.5545l-7.9126,5.7852l7.8245-5.7051l34.7916,7.516L111.541,128.8972z
			 M116.9697,128.2281l37.9246,8.137l13.0008-25.5007l-29.7155-6.3141L116.9697,128.2281z M155.98,138.6487l-42.8084-9.1827
			l24.2868-27.1193l33.4094,7.0993L155.98,138.6487z"/>
		<path class="st0" d="M115.0687,128.8451l22.7523-25.3966l31.5584,6.7067l-13.9423,27.3517L115.0687,128.8451z M101.6913,95.5479
			l32.6441,7.0513l-23.145,25.2002l-41.7707-8.7219L101.6913,95.5479z M31.1146,111.2169l38.3573-22.3196l29.6554,6.0256
			l-32.2916,23.6137L31.1146,111.2169z M98.2378,71.9221l25.1482,5.2404l-21.6386,15.665l-28.5576-6.234L98.2378,71.9221z
			 M125.7978,77.6874l26.4462,5.5849l-15.653,16.9431l-31.963-6.8149L125.7978,77.6874z M155.2408,84.1737l25.3445,5.3325
			l-9.351,18.2932l-31.1097-6.7949L155.2408,84.1737z M157.4964,81.5095l12.8886-14.1426l19.9839,4.1306l-8.0368,15.3044
			L157.4964,81.5095z M129.043,75.4318l17.9206-13.0929l20.4367,4.3429l-13.1049,14.0905L129.043,75.4318z M102.4806,69.5704
			l20.9054-12.2636l20.7491,4.4511l-17.7604,13.0488L102.4806,69.5704z"/>
	</g>
</g>
</svg>
