<?xml version="1.0" encoding="utf-8"?>
<!-- Generator: Adobe Illustrator 26.0.2, SVG Export Plug-In . SVG Version: 6.00 Build 0)  -->
<svg version="1.1" id="Layer_1" xmlns="http://www.w3.org/2000/svg" xmlns:xlink="http://www.w3.org/1999/xlink" x="0px" y="0px"
	 viewBox="0 0 200 200" style="enable-background:new 0 0 200 200;" xml:space="preserve">
<style type="text/css">
	.st0{fill:#FFFFFF;}
	.st1{fill:#006548;}
	.st2{fill:#006A4F;}
</style>
<g>
	<g>
		<polygon class="st0" points="140.7078,27.8589 135.5499,29.4081 120.2772,25.4315 4.762,61.486 4.762,133.3608 44.9619,173.5721 
			56.1189,167.7296 63.2244,174.5692 191.9967,109.68 193.4249,108.9659 195.2383,41.5193 		"/>
		<path class="st0" d="M63.2255,179.3308c-1.2054,0-2.3949-0.4567-3.3036-1.3309l-4.6336-4.4606l-8.1176,4.2513
			c-1.8471,0.9654-4.1053,0.6194-5.5766-0.8519l-40.2-40.2111C0.5013,135.8347,0,134.6237,0,133.3607V61.4861
			c0-2.0833,1.3542-3.9249,3.3436-4.5457l115.5153-36.0547c0.8482-0.266,1.7569-0.2869,2.6181-0.0628l13.9816,3.6403l3.8793-1.1649
			c0.8212-0.2479,1.6936-0.2679,2.527-0.0586L196.3952,36.9c2.1652,0.5422,3.6635,2.5158,3.603,4.747l-1.8136,67.4475
			c-0.0474,1.7569-1.0593,3.3454-2.6311,4.1313l-1.4276,0.7134L65.3674,178.8211
			C64.6875,179.1643,63.9537,179.3308,63.2255,179.3308z M56.118,162.9673c1.2044,0,2.3949,0.4567,3.3036,1.3309l4.6736,4.4996
			l124.6457-62.8097l1.6341-60.778l-49.5527-12.4135l-3.9025,1.1719c-0.8361,0.2516-1.7262,0.2674-2.5698,0.0479l-13.9546-3.6333
			L9.5238,64.9883v66.4007l36.3309,36.3402l8.0552-4.2188C54.6075,163.1449,55.3655,162.9673,56.118,162.9673z"/>
	</g>
	<g>
		<g>
			<polygon class="st1" points="120.3421,28.2087 7.4328,63.4495 7.4328,132.2522 45.4625,170.2936 168.9558,105.627 
				170.6205,41.2988 			"/>
		</g>
		<g>
			<g>
				<path class="st1" d="M44.9618,173.5717L4.7619,133.3605V61.4857L120.277,25.4311l53.0699,13.8181l-1.7621,68.0145
					L44.9618,173.5717z M10.1036,131.144l35.8597,35.8714l120.3633-63.025l1.5674-60.6419l-47.487-12.3622L10.1036,65.4129V131.144z
					"/>
			</g>
		</g>
		<g>
			<polyline class="st1" points="7.544,63.5374 45.7246,90.0282 170.5507,41.2106 			"/>
		</g>
		<g>
			<g>
				<polygon class="st1" points="45.3721,93.0329 6.0208,65.7306 9.0672,61.3442 46.077,87.0211 169.5773,38.7229 171.5246,43.6984 
									"/>
			</g>
			<g>
				<rect x="42.6537" y="89.7965" class="st2" width="5.3418" height="80.2977"/>
			</g>
		</g>
		<g>
			<rect x="113.6466" y="63.0412" class="st2" width="5.3418" height="70.4722"/>
		</g>
		<g>
			<polygon class="st0" points="140.7722,30.6292 24.5778,65.5269 24.5778,133.662 63.7133,171.3325 190.7957,107.296 
				192.5112,43.5891 			"/>
		</g>
		<g>
			<g>
				<path class="st1" d="M63.2243,174.5689l-41.3173-39.7711v-71.258l118.8007-35.6812l54.5305,13.6604l-1.8134,67.4465
					l-1.4283,0.7141L63.2243,174.5689z M27.2487,132.5257l36.9542,35.5699l123.9637-62.4686l1.6182-59.9672l-48.9475-12.2601
					L27.2487,67.5135V132.5257z"/>
			</g>
			<g>
				<polygon class="st1" points="63.6302,94.8134 23.2006,67.8359 26.1636,63.3935 64.3164,88.8506 191.4866,41.0252 
					193.3692,46.0236 				"/>
			</g>
			<g>
				
					<rect x="23.8546" y="128.6957" transform="matrix(0.0018 -1 1 0.0018 -67.8677 194.7446)" class="st1" width="79.5142" height="5.3418"/>
			</g>
		</g>
		<g>
			<rect x="133.8588" y="65.1048" class="st2" width="5.3418" height="69.7951"/>
		</g>
		<g>
			
				<rect x="78.8255" y="95.8214" transform="matrix(0.9299 -0.3677 0.3677 0.9299 -29.3811 42.793)" class="st2" width="37.5472" height="5.3434"/>
		</g>
		<g>
			
				<rect x="150.1448" y="66.8765" transform="matrix(0.922 -0.3872 0.3872 0.922 -13.9669 69.7589)" class="st2" width="32.0436" height="5.341"/>
		</g>
	</g>
</g>
</svg>
