<?xml version="1.0" encoding="utf-8"?>
<!-- Generator: Adobe Illustrator 27.4.1, SVG Export Plug-In . SVG Version: 6.00 Build 0)  -->
<svg version="1.1" id="Layer_1" xmlns="http://www.w3.org/2000/svg" xmlns:xlink="http://www.w3.org/1999/xlink" x="0px" y="0px"
	 viewBox="0 0 500 500" style="enable-background:new 0 0 500 500;" xml:space="preserve">
<style type="text/css">
	.st0{fill:#FFFFFF;}
	.st1{fill:none;}
	.st2{fill:#ED1C24;}
</style>
<g>
	<path class="st0" d="M460.4,250C443.1,267.3,267.3,443.1,250,460.4C232.7,443.1,56.9,267.3,39.6,250
		C56.9,232.7,232.7,56.9,250,39.6C267.3,56.9,443.1,232.7,460.4,250z"/>
	<path class="st1" d="M39.6,250C56.9,267.3,232.7,443.1,250,460.4c17.3-17.3,193.1-193.1,210.4-210.4
		C443.1,232.7,267.3,56.9,250,39.6C232.7,56.9,56.9,232.7,39.6,250z M251.8,356.6c-15.3,0-27.8-13.1-27.8-29.4
		c0-16.2,12.4-29.3,27.8-29.3c15.3,0,27.8,13.1,27.8,29.3C279.5,343.5,267.1,356.6,251.8,356.6z M288,144.3c0,0.3,0,0.6,0,0.9h0
		l0,0.1c-0.1,0.9-0.2,1.8-0.4,2.7l-17.2,116c-0.7,9.8-8.7,17.6-18.6,17.6c-9.9,0-18-7.8-18.6-17.7l-17.2-116
		c-0.2-0.8-0.3-1.6-0.4-2.4l0-0.2h0c0-0.3,0-0.6,0-0.9c0-13.2,16.2-23.8,36.2-23.8C271.8,120.4,288,131.1,288,144.3z"/>
	<path d="M251.8,297.9c-15.3,0-27.8,13.1-27.8,29.3c0,16.2,12.4,29.4,27.8,29.4c15.3,0,27.8-13.1,27.8-29.4
		C279.5,311,267.1,297.9,251.8,297.9z"/>
	<path d="M215.6,144.3c0,0.3,0,0.6,0,0.9h0l0,0.2c0.1,0.8,0.2,1.6,0.4,2.4l17.2,116c0.6,9.9,8.7,17.7,18.6,17.7
		c9.9,0,17.9-7.7,18.6-17.6l17.2-116c0.2-0.9,0.3-1.8,0.4-2.7l0-0.1h0c0-0.3,0-0.6,0-0.9c0-13.2-16.2-23.8-36.2-23.8
		C231.8,120.4,215.6,131.1,215.6,144.3z"/>
	<path class="st2" d="M0,250l250,250l250-250L250,0L0,250z M460.4,250C443.1,267.3,267.3,443.1,250,460.4
		C232.7,443.1,56.9,267.3,39.6,250C56.9,232.7,232.7,56.9,250,39.6C267.3,56.9,443.1,232.7,460.4,250z"/>
</g>
</svg>
