<?xml version="1.0" encoding="utf-8"?>
<!-- Generator: Adobe Illustrator 27.4.1, SVG Export Plug-In . SVG Version: 6.00 Build 0)  -->
<svg version="1.1" id="Layer_1" xmlns="http://www.w3.org/2000/svg" xmlns:xlink="http://www.w3.org/1999/xlink" x="0px" y="0px"
	 viewBox="0 0 500 500" style="enable-background:new 0 0 500 500;" xml:space="preserve">
<style type="text/css">
	.st0{fill:#FFFFFF;}
	.st1{fill:none;}
	.st2{fill:#ED1C24;}
</style>
<g>
	<path class="st0" d="M460.4,250C443.1,267.3,267.3,443.1,250,460.4C232.7,443.1,56.9,267.3,39.6,250
		C56.9,232.7,232.7,56.9,250,39.6C267.3,56.9,443.1,232.7,460.4,250z"/>
	<path class="st1" d="M39.6,250C56.9,267.3,232.7,443.1,250,460.4c17.3-17.3,193.1-193.1,210.4-210.4
		C443.1,232.7,267.3,56.9,250,39.6C232.7,56.9,56.9,232.7,39.6,250z M330.1,358.6H179.5v-15.5h150.6V358.6z M254.9,122.4l13.4,25
		l9,25.5l1.6,11.7l-2.1,13.3l6.7-2.5l6.4-6.4l4.5-15.6l2.3-21.9l9.1,17.8l2.2,18.7l-0.2,18.9l-5.8,14.3l10-5.7l8.5-8.5l7.1-13.8
		l4.7,16.5l2,12.4l-4.2,17.5l-4.6,9l-8.5,12.6l15.2-4.4l8.3-5.8l2.4-11.1l-2.1,31.3l-6.7,21.8l-10.8,17.1l-12.9,8.9l-13.7,6.7
		l-13,2.3h-12l5.6-3.2l7.8-5.8l13.6-13.3l10.3-19.3l-10.1,6.4l-8.7,2.4l-9.8-0.1l5.7-5.7l5.4-7.4l4.7-13.8v-18.4l-4.3,9.8l-12.8,8.4
		l-7.2,7.4l0.1-26.5L268,231l-8.5-12.8l-8.9-8.8v17.8l-8.9,25.6l0.2,9.7L244,275l-15.1-8.3l-5.1-7.3l-3.6-9.3l-0.5,9.3l-2.1,8.8
		l3.2,9.3l4.3,7.4l7.9,10.2l-14.3-1.7l-7.8-2.7l-8.4-6.2l8.1,18.6l13.2,15.7l13,6.3l16,2.9l-34.1-2.2l-21.6-8.9l-15.2-10.9
		l-9.2-16.4l-13.2-45.9l-1.9-12.9l8.2,8.4l5.3,7.1l8.4,6.5l15.1,2.2l-6.1-12.9l-4.8-12.8l-1.6-12.8l-0.2-14.7l-1.8-19.1l9.3,9.4
		l10.7,15.3l7.7,4.9l-3.8-11.2l0.2-14.8l1.8-14.6l2.3-11.3l-2.2-11.1l8.6,2.1l5.7,6l3.8,9.8l1.8,12.2l6.7,13.4l5.9-13.3l2.8-11.4
		l1.9-18.6l0.1-24.8l2.3-10.2l4.6-13.7L254.9,122.4z"/>
	<polygon points="243.5,124.4 243.4,149.3 241.5,167.9 238.7,179.3 232.7,192.6 226.1,179.2 224.2,167 220.4,157.2 214.7,151.2 
		206.2,149.1 208.3,160.2 206,171.5 204.2,186.1 204.1,200.9 207.8,212 200.1,207.1 189.5,191.8 180.2,182.4 182.1,201.5 
		182.2,216.1 183.8,228.9 188.6,241.7 194.6,254.6 179.6,252.5 171.1,246 165.8,238.9 157.6,230.5 159.5,243.4 172.7,289.3 
		181.9,305.7 197.1,316.7 218.7,325.6 252.8,327.8 236.8,324.8 223.7,318.5 210.6,302.8 202.5,284.2 210.9,290.4 218.7,293.2 
		233.1,294.8 225.2,284.7 220.8,277.2 217.7,268 219.7,259.2 220.2,250 223.8,259.3 228.9,266.6 244,275 241.8,262.4 241.7,252.7 
		250.6,227.1 250.6,209.3 259.5,218.1 268,231 272.3,248.7 272.2,275.2 279.3,267.8 292.1,259.4 296.4,249.6 296.4,268.1 
		291.8,281.9 286.3,289.3 280.7,295 290.5,295.1 299.2,292.7 309.3,286.2 298.9,305.6 285.3,318.9 277.5,324.8 271.9,328 283.8,328 
		296.9,325.7 310.5,319 323.4,310.1 334.2,292.9 340.9,271.1 343,239.8 340.6,250.9 332.2,256.7 317.1,261.1 325.6,248.5 
		330.1,239.5 334.3,222 332.3,209.6 327.6,193.1 320.5,206.9 312,215.4 302,221.1 307.7,206.8 307.9,188 305.7,169.2 296.6,151.5 
		294.3,173.4 289.9,189 283.5,195.4 276.9,197.9 278.9,184.6 277.3,172.9 268.3,147.4 254.9,122.4 250.4,100.6 245.8,114.2 	"/>
	<rect x="179.5" y="343.2" width="150.6" height="15.5"/>
	<path class="st2" d="M0,250l250,250l250-250L250,0L0,250z M460.4,250C443.1,267.3,267.3,443.1,250,460.4
		C232.7,443.1,56.9,267.3,39.6,250C56.9,232.7,232.7,56.9,250,39.6C267.3,56.9,443.1,232.7,460.4,250z"/>
</g>
</svg>
