<?xml version="1.0" encoding="UTF-8"?><svg id="Layer_1" xmlns="http://www.w3.org/2000/svg" xmlns:xlink="http://www.w3.org/1999/xlink" viewBox="0 0 1000 1000"><defs><style>.cls-1,.cls-2,.cls-3,.cls-4{stroke-width:0px;}.cls-2,.cls-5{fill:none;}.cls-6{fill:#f1f1f1;stroke-linejoin:round;stroke-width:10px;}.cls-6,.cls-5{stroke:#000;stroke-linecap:round;}.cls-3{fill:#fff;}.cls-4{fill:#f60;}.cls-7{clip-path:url(#clippath);}.cls-5{stroke-miterlimit:10;stroke-width:11px;}</style><clipPath id="clippath"><rect class="cls-2" y="0" width="1000" height="1000"/></clipPath></defs><g class="cls-7"><path class="cls-3" d="m206.95,325.86C61.46,471.22,23.84,694-27.18,765.64c-19.14,26.88-40.51,53.1-69.68,68.68-29.18,15.58-73.38,22.38-104.98,3.72-13.29-7.84-24.55-18.98-35.63-29.96-50.25-49.82-161.47-173.08-169.86-189.05-16.98-32.31-10.36-68.75,10.66-93.74,21.02-24.99,73.71-60.89,103.72-74.49,90.5-41.02,261.37-86.52,428.43-202.58,58.6,10.24,122.45,26.73,71.48,77.65Z"/><path class="cls-1" d="m-311.65,739.18c-47.02-51.07-95.39-106.19-101.2-117.26-17.11-32.57-12.64-72.08,11.4-100.65,21.56-25.62,74.64-61.98,105.92-76.15,24.1-10.92,53.44-22,87.41-34.83,91.9-34.71,217.75-82.24,340.04-167.19,1.35-.94,3.01-1.3,4.63-1.02,44.23,7.73,86.23,18.26,93.98,42.79,4.24,13.44-2.03,28.29-19.16,45.41h0c-95.14,95.05-144.54,225.79-180.62,321.25-18.81,49.77-35.05,92.75-52.84,117.74-19.22,27-41.23,54.23-71.83,70.57-30.63,16.35-76.85,23.8-111.08,3.58-14.06-8.3-25.65-19.79-36.85-30.91-17.77-17.62-43.57-44.84-69.79-73.32ZM136.92,254.79C14.04,339.71-111.73,387.21-203.72,421.95c-33.77,12.75-62.93,23.77-86.67,34.52-29.47,13.36-81.33,48.82-101.52,72.83-20.76,24.68-24.65,58.76-9.91,86.83,7.67,14.59,118.05,137.27,168.73,187.52,10.67,10.57,21.69,21.51,34.41,29.02,29.9,17.65,72.21,10.38,98.87-3.85,28.32-15.12,49.2-41.04,67.54-66.8,16.86-23.67,32.84-65.95,51.34-114.91,36.47-96.52,86.44-228.72,183.47-325.66h0c13.34-13.33,18.75-24.38,16.08-32.83-6.3-19.96-57.27-29.53-81.71-33.82Z"/><path class="cls-4" d="m338.88,328.13c-36.13,62.7-59.54,133.17-67.24,202.44-19.18-52.64-20.51-116.02-7.99-178.18,3.86-19.17,9.28-38.91,20.19-55.59,10.92-16.68,28.47-29.7,44.51-28.3,5.36.47,10.42,2.58,13.99,6.59,11.39,12.79,4.76,38.75-3.47,53.04Z"/><path class="cls-1" d="m267.05,534.79c-.54-.59-.98-1.29-1.27-2.09-18.61-51.08-21.54-115.55-8.24-181.55,3.68-18.25,9.06-39.4,21.09-57.77,13.35-20.4,33.08-32.6,50.27-31.09,7.27.64,13.63,3.85,18.1,8.65,14.16,15.91,5.85,45.42-2.72,60.3h0c-35.83,62.18-58.81,131.35-66.44,200.02-.32,2.88-2.58,5.16-5.45,5.5-2.04.25-4.01-.53-5.33-1.97Zm70.5-255.7c-2.91-3.16-6.89-4.13-9.75-4.38-12.48-1.09-28.05,9.15-38.74,25.5-10.87,16.6-15.85,36.32-19.3,53.41-10.58,52.53-10.59,103.9-.3,147.74,10.4-60.85,32.28-121.28,64.01-176.34,7.41-12.86,12.99-35.92,4.21-45.78-.04-.05-.09-.1-.13-.15Z"/><path class="cls-4" d="m420.92,251.37c7.92,16.12,21.9,30.15,29.18,46.64,2.64,5.99,5.29,12.39,4.09,19.49-1.96,11.55-19.5,23.08-29.73,30.59-4.66,3.42-9.89,6.99-15.1,6.86-5.46-.14-11.14-.68-14.95-3.86-18.66-15.58-34.75-28.91-46.4-41.55-1.37-1.49,47.09-45.05,72.91-58.16Z"/><path class="cls-1" d="m343.42,313.75c-1.32-1.44-1.92-3.54-1.57-5.47,1.41-7.82,54.85-51.62,76.25-62.48,1.49-.76,3.21-.88,4.8-.36,1.58.53,2.88,1.67,3.62,3.17,3.51,7.15,8.31,13.89,13.39,21.02,5.8,8.14,11.79,16.56,15.89,25.85,2.57,5.82,6.1,13.8,4.53,23.05-2.19,12.91-17.67,24.08-28.97,32.23l-3.23,2.34c-5.7,4.18-11.85,8.25-18.95,8.06-6.66-.18-13.55-.94-18.78-5.31l-1.81-1.51c-18.05-15.06-33.63-28.07-45.17-40.61Zm9.99-1.37l.03.03-.03-.03Zm65.01-52.51c-21.11,12.49-52.2,39.42-62.11,49.33,10.61,10.82,24.49,22.39,40.28,35.58l1.81,1.51c2.31,1.93,6.92,2.31,11.12,2.42,3.43.09,8.32-3.51,11.25-5.65l3.31-2.4c8.47-6.11,22.63-16.33,23.97-24.21.87-5.14-1.05-10.05-3.64-15.93-3.59-8.14-8.96-15.68-14.65-23.66-3.9-5.48-7.9-11.09-11.33-17Z"/><path class="cls-3" d="m255.26,108.05c24.6,4.36,47.92,14.23,66.99,30.37,22.38,18.95,40.82,42.03,59.11,64.95,12.61,15.8,25.16,31.63,37.3,47.76-16.96,13.43-33.91,26.87-50.93,40.22-6.61,5.18-13.3,10.3-19.97,15.44-31.35-17.96-75.49-27.77-109.38-9.22l-71.87-80.35c14.66-9.8,27.71-28.06,25.28-45.52-2.43-17.47-36.03-41.97-31.27-58.95,6.74-24.06,38.29-14.71,94.75-4.69Z"/><path class="cls-1" d="m233.79,301.79l-.06-.07-71.87-80.35c-1.2-1.35-1.76-3.15-1.54-4.94.23-1.79,1.22-3.4,2.72-4.4,12.76-8.53,24.61-24.83,22.57-39.48-.84-6.04-7.62-14.66-14.18-22.99-10.05-12.76-20.43-25.97-16.92-38.5,7.46-26.63,37.31-21.08,82.49-12.68,6.08,1.13,12.53,2.33,19.35,3.54h0c26.84,4.76,51.02,15.74,69.93,31.76,22.91,19.39,41.74,43,59.96,65.81,12.06,15.11,24.88,31.26,37.4,47.9,2.04,2.7,1.54,6.54-1.11,8.64l-4.37,3.46c-15.51,12.29-31.02,24.57-46.59,36.78-5.39,4.22-10.83,8.41-16.27,12.6l-3.74,2.88c-2,1.54-4.72,1.72-6.9.47-27.06-15.49-70.34-27.19-103.29-9.16-2.52,1.38-5.64.86-7.58-1.25Zm-58.1-83.66l64.14,71.71c35.17-16.6,77.45-6.55,107.37,9.51l.5-.38c5.41-4.17,10.82-8.33,16.18-12.53,15.42-12.08,30.77-24.24,46.13-36.41-11.26-14.8-22.7-29.2-33.52-42.77-17.84-22.36-36.3-45.47-58.27-64.07-17.23-14.59-39.38-24.61-64.05-28.99h0c-6.85-1.22-13.33-2.42-19.44-3.56-44.25-8.23-63.99-11.23-68.21,3.79-1.81,6.44,6.97,17.59,14.71,27.42,7.93,10.08,15.42,19.6,16.73,28.98,2.55,18.26-8.64,36-22.27,47.3Z"/><path class="cls-4" d="m107.28,279.81c19.55,24.69,40.02,48.69,61.33,71.91,4.45,4.84,9.23,9.86,15.29,11.96,2.06.71,4.19,1.06,6.3,1.18,7.5.45,14.7-1.82,20.89-5.43,5.33-3.1,9.97-7.17,14.59-11.21,9.6-8.41,19.49-17.22,24.13-29.37,1.08-2.84,1.86-6.02.92-9.13-.8-2.65-2.74-4.87-4.62-6.98-12.46-14.02-24.93-28.04-34.4-39.07-10.37-11.32-20.73-22.63-31.1-33.95-7.23-7.89-16.09-16.52-26.11-16.03-6.7.33-12,4.76-16.84,9-8.27,7.25-16.55,14.5-24.82,21.75-4.7,4.12-9.51,8.39-12.03,14.22s-2.16,13.65,6.47,21.14Z"/><path class="cls-1" d="m164.36,356.31l-.35-.38c-21.19-23.08-41.8-47.24-61.27-71.81-12.84-11.45-9.65-23.32-7.66-27.92,3.12-7.21,8.96-12.32,13.65-16.43l24.82-21.75c4.86-4.26,11.52-10.09,20.64-10.54,12.18-.6,22.06,8.45,31.01,18.05l31.1,33.94c9.57,11.14,22.23,25.37,34.47,39.13,2.1,2.37,4.72,5.32,5.93,9.31,1.58,5.19.15,9.99-1.06,13.16-5.28,13.82-16.21,23.39-25.84,31.83-4.77,4.18-9.7,8.5-15.55,11.91-7.86,4.58-16.3,6.75-24.41,6.26-2.94-.17-5.55-.67-7.98-1.52-7.06-2.44-12.32-7.64-17.49-13.26Zm-52.49-80.72c.1.11.21.23.3.35,19.39,24.49,39.92,48.57,61.04,71.56,4.39,4.76,8.26,8.73,12.74,10.28,1.34.47,2.86.75,4.64.85,7.12.43,13.38-2.26,17.37-4.59,4.82-2.81,9.1-6.56,13.62-10.52,8.55-7.49,18.23-15.97,22.41-26.91.88-2.31,1.13-3.93.78-5.09-.42-1.38-1.96-3.12-3.32-4.65-12.27-13.8-24.96-28.07-34.47-39.14l-30.97-33.8c-6.93-7.5-14.17-14.36-21.2-14.02-4.43.22-8.36,3.37-13.04,7.47l-24.82,21.75c-4.14,3.63-8.42,7.37-10.42,12-2.04,4.71-.4,9.41,4.83,13.95.18.15.35.32.51.49Z"/><path class="cls-1" d="m180.72,335.4c-.75-.82-.73-2.09.07-2.88,11.62-11.51,24.22-22.19,37.46-31.76.93-.68,2.24-.48,2.9.47.67.93.46,2.23-.46,2.9-13.07,9.45-25.51,20-36.97,31.35-.82.81-2.13.8-2.94-.01l-.05-.06Z"/><path class="cls-1" d="m155.25,306.3c-.07-.08-.14-.16-.2-.26-.64-.96-.38-2.24.58-2.88,13.45-8.96,26.06-19.3,37.47-30.71.81-.81,2.13-.81,2.94,0,.73.83.81,2.13,0,2.94-11.61,11.61-24.43,22.12-38.11,31.24-.86.57-2,.42-2.68-.32Z"/><path class="cls-1" d="m129.45,278.24l-.06-.06c-.74-.87-.64-2.19.24-2.93,12.23-10.41,25.32-20.06,38.89-28.67.97-.62,2.24-.32,2.87.64.61.97.33,2.25-.64,2.87-13.42,8.5-26.34,18.03-38.43,28.32-.85.73-2.12.64-2.88-.17Z"/><line class="cls-5" x1="30.92" y1="775.15" x2="986.85" y2="775.15"/><line class="cls-5" x1="330.96" y1="855.63" x2="912.21" y2="855.63"/><path class="cls-6" d="m446.59,388.78s17.51,154.38,3.18,206.76"/><line class="cls-6" x1="477.84" y1="374.96" x2="557.95" y2="492.2"/><path class="cls-6" d="m507.54,372.82s89.96,88.14,131.37,99.35"/></g></svg>