<?xml version="1.0" encoding="UTF-8"?><svg id="Layer_1" xmlns="http://www.w3.org/2000/svg" viewBox="0 0 1000 1000"><defs><style>.cls-1{stroke-width:5px;}.cls-1,.cls-2{stroke:#000;stroke-miterlimit:10;}.cls-2{fill:#f60;stroke-width:3px;}</style></defs><path class="cls-1" d="m940.76,468.21c-6.95,2.25-13.84,4.72-20.87,6.71-18.25,5.19-36.57,10.18-54.86,15.25-2.98.83-5.94,1.71-8.92,2.55-1.92.54-3.04,1.73-3.68,3.66-.8,2.38-1.82,4.72-2.95,6.96-3.04,6.02-6.38,11.91-9.28,18-6.11,12.86-13.55,24.94-20.76,37.18-18.22,30.9-36.26,61.9-54.38,92.86-1.41,2.41-2.85,4.79-4.48,7.52,1.4.32,2.44.67,3.49.78,9.23.96,18.44,2.1,27.64,3.28,9.92,1.27,19.63,3.6,29.52,4.95,11.56,1.58,23.11,3.25,34.7,4.7,13.69,1.71,27.46,2.48,41.25,2.85,2.95.08,5.91.25,8.86.18,6.66-.16,13.17.99,19.71,1.97.41.06.83.17,1.21.34,1.33.58,1.63,2.78.38,3.5-2.45,1.4-5.03,2.52-7.9,2.72-.56.04-1.13,0-1.69-.01-16.45-.52-32.92-.82-49.36-1.66-9.12-.46-18.21-1.63-27.27-2.84-22.45-2.98-44.69-7.26-67-11.11-4.29-.74-8.63-1.21-12.95-1.77-.68-.09-1.39-.01-2.16-.01-.93.87-1.84,1.73-2.77,2.58-6.29,5.71-13.52,8.42-22.09,7.04-1.21-.19-2.51,0-3.74.17-4.18.6-8.32,1.46-12.52,1.87-7.14.7-14.3,1.16-21.45,1.67-5.9.42-11.75,1.14-17.53,2.48-4.54,1.05-8.9,2.6-13.11,4.6-21.36,10.13-43.66,17.24-67.09,20.58-15.1,2.15-30.27,2.67-45.46.96-10.25-1.15-20.2-3.62-29.71-7.7-9.99-4.29-20.3-7.51-31-9.44-5.96-1.08-11.97-1.93-18.02-1.99-10.62-.11-20.98-1.89-31.34-3.96-7.44-1.49-14.91-2.89-22.39-4.16-5.94-1.01-11.78-.45-17.37,1.97-4.84,2.1-10.04,2.63-15.18,3.42-6.83,1.04-13.54,2.53-19.98,5.12-6.07,2.44-11.55,5.81-16.27,10.36-1.21,1.17-2.39,2.4-3.41,3.73-2.95,3.84-2.69,6.18,1.03,9.4,1.17,1,2.48,1.85,3.78,2.69,3.45,2.22,6.6,4.8,9.42,7.77,5.76,6.08,9.46,13.23,10.99,21.48.55,2.95.48,5.88-.47,8.75-1.18,3.56-3.46,6.31-7.03,7.34-7.15,2.05-14.11,4.73-21.61,5.57-7.36.83-14.6.42-21.85-.72-2.75-.43-5.48-.96-8.2-1.45-.74,1.8-.18,3.33-.14,4.85.27,9.51-2.92,17.66-9.63,24.38-1.28,1.28-2.77,2.39-4.28,3.41-4.14,2.81-8.67,3.69-13.66,2.88-3.82-.62-7.25-1.9-10.56-3.89-9.47-5.71-17.89-12.69-25.58-20.59-4.22-4.33-8.41-8.7-12.51-13.15-7.37-7.98-11.8-17.45-13.49-28.12-1.1-6.94-1.78-13.95-2.58-20.93-.83-7.27-1.59-14.54-2.39-21.81-.06-.55-.2-1.09-.35-1.87-1.09,1.1-1.26,2.33-1.58,3.51-3.93,14.41-9.2,28.35-15.12,42.04-2.06,4.77-4.42,9.42-6.79,14.05-1.99,3.9-4.59,7.4-7.66,10.55-5.53,5.7-12.36,8.69-20.12,9.72-2.52.34-4.88-.06-7.33-1.21-7.89-3.71-13.43-9.58-17.2-17.29-2.75-5.62-4.23-11.61-5.03-17.78-.27-2.09-.38-4.2-.62-6.3-.41-3.67.02-7.27.54-10.91,1.16-8.07,2.2-16.16,3.2-24.26,1.83-14.73,5.6-28.97,10.77-42.85,2.01-5.4,3.91-10.84,5.84-16.28.36-1.02.61-2.08.9-3.09-1.22-.61-1.75.26-2.39.68-6,3.94-12.13,7.67-18.58,10.83-10.44,5.11-21.35,8.65-32.92,10.08-7.07.87-14.03.32-20.91-1.53-4.59-1.24-7.96-3.99-10.56-7.88-2.52-3.77-4.37-7.9-5.87-12.12-1.04-2.9-1.13-6.13.2-9.07,2.83-6.28,5.77-12.52,8.73-18.74.47-.99,1.22-1.89,1.99-2.69,13.14-13.55,26.69-26.67,42.02-37.76,5.57-4.03,11.52-7.56,17.42-11.12,7.59-4.57,15.33-8.9,22.95-13.42,6.65-3.94,13.34-7.84,19.82-12.07,6.89-4.5,14.39-7.64,21.91-10.8.65-.27,1.33-.49,2.01-.63,10.18-2.13,20.34-4.37,30.56-6.3,5.66-1.07,11.42-1.6,17.13-2.4,24.13-3.38,48-7.93,71.14-15.77,10.74-3.64,21.75-4.17,32.93-3.22,15.17,1.28,30.11,3.9,44.92,7.36,7,1.64,14.14,2.37,21.27,3.2,9.08,1.06,18.17,2.07,27.26,3.03,6.71.71,13.44,1.34,20.16,1.97,8.4.79,16.81,1.57,25.22,2.29,12.49,1.06,24.99,1.66,37.52.66,6.03-.48,12.08-.65,18.12-1.07,14.87-1.05,29.74-2.19,44.61-3.26,13.75-.99,27.5-1.94,41.25-2.91,9.4-.66,18.83-1.14,28.05-3.26,5.2-1.2,10.32-2.75,15.49-4.11,4.49-1.18,8.99-2.31,13.48-3.48.8-.21,1.57-.51,2.44-.8,0-1.58-1.16-2.29-1.88-3.22-.95-1.22-1.94-2.41-3.02-3.51-.98-.99-1.89-1.07-3.05-.3-1.64,1.09-3.3,2.17-4.77,3.47-6.98,6.15-15.05,7.29-23.71,4.95-3.97-1.07-7.56-3.07-9.69-6.92-.62-1.12-1.37-1.96-2.76-2.4-.94-.3-1.82-1.32-2.38-2.23-1.63-2.63-3.25-5.28-4.57-8.06-5.59-11.82-11.06-23.71-16.61-35.55-.89-1.9-1.82-3.82-3-5.56-3.1-4.59-7.41-7.28-13.01-7.5-7.31-.28-14.62-.6-21.93-.52-10.85.11-21.65-.5-32.43-1.65-10.35-1.11-20.67-2.42-30.89-4.41-1.66-.32-3.31-.67-4.95-1.04-2.91-.65-5.57-1.84-8.09-3.47-6.84-4.44-13.75-8.76-20.87-13.29-1.4,1.11-3.17,1.7-5.12,2.04-14.81,2.64-29.6,5.39-44.4,8.09-17.7,3.24-35.41,6.47-53.11,9.71-17.7,3.23-35.41,6.47-53.11,9.7-17.71,3.23-35.41,6.46-53.12,9.7-15.77,2.88-31.53,5.79-47.3,8.66-.79.14-1.63.02-2.41.02-1.37-4.02-1.63-6.1-1.18-9.78,13.66-2.75,27.49-5.13,41.28-7.71,13.96-2.61,27.93-5.14,41.9-7.71,13.83-2.55,27.66-5.1,41.48-7.65,13.83-2.55,27.66-5.09,41.48-7.65,13.97-2.58,27.94-5.13,41.89-7.76,13.78-2.6,27.59-4.99,41.19-7.69.48-1.39-.43-1.82-.96-2.37-14.61-14.97-23.8-32.96-29.39-52.92-2.53-9.02-3.52-18.21-2.21-27.57.98-7.01,3.01-13.72,5.64-20.27,5.53-13.76,13.59-25.87,24.03-36.38,5.65-5.69,11.43-11.25,17.14-16.89.65-.64,1.23-1.37,2.08-2.34-1.45-.57-2.56-.39-3.63-.35-9.98.33-19.97.66-29.95,1.03-9.98.37-19.96.81-29.95,1.16-11.67.41-23.35.74-35.02,1.16-19.97.71-39.93,1.46-59.9,2.18-8.58.31-17.15.63-25.73.92-20.53.69-41.06,1.37-61.59,2.06-9.14.31-18.28.64-27.42.94-1.23.04-2.52.38-3.86-.51-.61-2.93-.5-5.95-.1-8.78,1.05-1.19,2.24-.93,3.33-.97,6.33-.26,12.65-.5,18.98-.73,11.39-.4,22.78-.75,34.17-1.17,18.7-.7,37.4-1.44,56.1-2.16,8.15-.31,16.31-.62,24.47-.91,19.69-.69,39.37-1.36,59.06-2.07,23.62-.85,47.24-1.73,70.87-2.6,6.47-.24,12.94-.5,19.4-.72,1.26-.04,2.59-.2,3.78.1,2.46.62,4.28-.36,6.23-1.67,5.85-3.91,11.75-7.74,17.73-11.43,4.94-3.05,10.31-5.15,16.01-6.32,9.91-2.03,19.6-.98,29.12,2.13,10.78,3.53,19.93,9.68,27.98,17.57,3.52,3.44,7.13,6.8,10.62,10.27,6.79,6.77,15.05,10.77,24.28,12.88,10.96,2.5,21.94,4.94,32.94,7.3,7.49,1.61,15.04,1.82,22.66.84,6.16-.8,12.33-.75,18.51.14,16.28,2.36,32.58,4.6,48.88,6.84,2.08.29,4.21.32,6.32.38,6.22.19,12.32,1.11,18.25,3.02,4.82,1.55,9.64,3.08,14.46,4.62,4.55,1.45,9.1,2.91,13.67,4.31,1.81.55,3.14,1.42,4.2,3.16,3.44,5.67,7.65,10.79,12.16,15.64,5.17,5.56,10.36,11.13,15.72,16.5,9.99,10,18.74,20.97,26.51,32.76,5.03,7.64,10.05,15.28,15.16,22.87,1.63,2.43,2.46,4.92,2.33,7.9-.31,7.59-.4,15.19-.58,22.78-.13,5.8-1.4,11.44-2.52,17.09-4.97,25.17-13.45,49.05-26.3,71.31-.55.96-1.04,1.96-1.55,2.92,1.07.89,1.97.27,2.86,0,14.21-4.48,28.42-8.98,42.63-13.46,10.59-3.34,21.18-6.69,31.78-10.01.92-.29,1.9-.36,2.85-.53v10.13Zm-651.19,276.08c-.11-.81-.13-1.23-.22-1.63-1.45-6.45-3.08-12.86-4.29-19.35-.41-2.18-1.19-3.94-2.41-5.69-1.2-1.72-2.67-3.45-3.19-5.39-1.14-4.33-2.12-8.77-2.5-13.22-.39-4.61-.18-9.29.1-13.92.25-4.25,1.39-8.17,4.7-11.37,3.02-2.92,5.66-6.26,8.3-9.55,7.41-9.24,13.69-19.26,19.91-29.31,4.59-7.41,9.24-14.79,13.81-22.23,3.98-6.47,7.85-13,11.81-19.48,4.33-7.08,8.69-14.14,13.06-21.19.59-.95,1.24-1.9,2.04-2.68.44-.43,1.27-.75,1.88-.69,2.83.26,4.05,2.56,2.8,5.08-.25.5-.54.99-.81,1.48-5.8,10.45-11.55,20.94-17.41,31.36-10.62,18.88-21.32,37.71-31.97,56.58-2,3.55-3.98,7.13-5.84,10.75-2.71,5.26-5.05,10.68-6.62,16.4-.59,2.16-1.26,4.38-1.33,6.59-.35,10.42-.24,20.83,1.86,31.1,1.45,7.06,3.63,13.86,6.96,20.28,1.13,2.18,2.54,3.97,4.71,5.23,2.55,1.48,5.02,3.13,7.43,4.83,1.91,1.35,3.91,2.01,6.27,2.06,2.08.04,4.26.26,6.22.9,8.32,2.74,16.67,2.08,25.03.51,3.45-.65,6.84-1.6,10.27-2.35,1.03-.23,1.81-.69,2.39-1.55,3.32-4.88,4.25-11.14.37-16.58-1.46-2.05-3.13-4.01-4.96-5.74-4.29-4.06-8.73-7.96-13.13-11.9-.38-.34-.93-.47-1.52-.76-1.23,2.89-2.34,5.62-3.55,8.31-.83,1.86-1.69,2.33-3.2,1.98-1.87-.43-2.51-1.32-2.3-3.36.11-1.12.33-2.23.47-3.34.12-.92.2-1.84.33-3.04-1.45.28-2.52.51-3.61.67-1.03.15-1.99-.02-2.54-1.04-.45-.82-.34-1.69.21-2.37,1.14-1.41,2.21-2.94,3.61-4.06,1.19-.95,1.9-2.02,2.26-3.41.21-.82.35-1.65.58-2.46,1.16-4.1,2.78-8,5.57-11.26,10.62-12.35,23.6-20.71,39.87-23.5,1.1-.19,2.17-.54,3.25-.82,1.35-.35,2.68-.84,4.04-1.01,7.12-.9,14.17-2.22,21.13-3.97,1.21-.3,2.54-.6,3.51-1.31,1.91-1.4,3.76-1.43,5.97-.89,4.64,1.13,9.3,2.25,14.11,2.47,5.51.25,10.84,1.42,16.14,2.94,3.77,1.09,7.66,1.8,11.52,2.55,7.48,1.45,15.07,1.87,22.67,2.16,9.36.35,18.41,2.25,27.24,5.28,6.25,2.15,12.44,4.46,18.85,6.12,1.21.32,2.33.97,3.51,1.42,4.98,1.92,9.9,4.06,14.98,5.68,15.7,4.99,31.68,6.16,47.92,3.08,11.22-2.13,22.21-5.1,32.94-8.95,14.16-5.08,28.21-10.48,42.29-15.76,1.05-.39,2.07-.91,3-1.53,1.51-.99,3.05-1.44,4.78-.77,1.24.48,2.46.32,3.73.13,15.44-2.29,30.88-4.57,46.33-6.79,2.25-.32,4.43-.71,6.36-2.02,1.31-.89,2.49-.8,3.86.15,3.08,2.14,4.29,2.06,7.1-.23.97-.78,1.89-1.71,2.56-2.75,2.66-4.14,5.17-8.37,7.82-12.52,6.35-9.97,12.37-20.13,18.12-30.46,9.58-17.2,19.35-34.31,29.85-50.98,7.57-12.03,15.06-24.1,22.61-36.14,2.62-4.18,4.43-8.73,6.4-13.3-.73-.68-1.38-1.21-1.94-1.82-1.36-1.48-1.47-2.01-.54-3.75,1.26-2.35,2.65-4.64,3.95-6.98.31-.56.47-1.19.7-1.78-1.43-.83-2.16-.03-2.64.79-1.46,2.47-3.75,3.66-6.31,4.62-1.84.69-3.57,1.65-5.35,2.49-1.4.66-2.77,1.38-4.21,1.95-5.01,1.98-9.74,1.34-13.87-2.08-2.25-1.87-4.16-4.16-6.18-6.3-.85-.9-1.59-1.91-2.31-2.79-3.27.07-6.08.92-8.88,1.88-7.58,2.6-15.03,5.52-22.76,7.72-9.01,2.57-18.08,2.23-27.22,1.74-1.12-.06-2.23-.31-3.34-.51-7.73-1.42-13.84-5.3-18.09-11.98-.53-.83-1.04-1.67-1.54-2.52-1.81-3.07-4.5-4.11-7.9-3.37-4.11.9-8.02,2.41-12.57,4.07,1.68.48,2.73.79,3.79,1.09,2.16.61,4.38,1.08,6.47,1.86,3.76,1.41,6.95,3.68,9.42,6.89.51.66.96,1.4,1.27,2.16.43,1.06-.37,2.43-1.5,2.57-.83.1-1.69.11-2.52-.02-2.22-.35-4.45-.69-6.63-1.22-8.23-1.99-16.56-3.27-25.01-3.71-14.08-.74-28.13.04-42.17,1.16-9.12.73-18.23,1.47-27.35,2.18-8.84.69-17.67,1.39-26.52,1.99-10.81.74-21.61,1.62-32.43,2.04-21.83.84-43.61-.33-65.33-2.58-14.41-1.49-28.78-3.34-43.17-5.03-13.41-1.58-26.83-3.11-40.23-4.76-10.19-1.26-20.36-2.65-30.54-4.02-8.1-1.1-16.2-2.02-24.39-1.67-11.45.48-22.59,2.59-33.54,6-6.03,1.88-12.17,3.57-18.38,4.67-18.69,3.29-37.44,6.29-56.18,9.31-8.19,1.32-16.43,2.36-24.31,5.12-1.99.7-4.02,1.28-6.02,1.94-12.19,4.01-23.94,8.99-34.98,15.62-11.46,6.87-23,13.62-34.62,20.22-7.49,4.25-14.54,9.1-21.27,14.45-2.53,2.01-5.15,3.94-7.57,6.07-5.6,4.93-11.19,9.86-16.62,14.96-7.22,6.78-11.5,15.54-15.79,24.26-.37.75-.63,1.57-.83,2.39-.98,3.95-.93,7.82,1.17,11.45,1.55,2.68,3.19,5.3,4.75,7.97.61,1.04,1.46,1.73,2.59,2.01,1.63.4,3.29.98,4.94.99,3.5.04,7.03-.04,10.51-.44,3.48-.41,6.89-1.39,10.36-1.94,13.3-2.1,25.34-7.31,36.52-14.67,6.37-4.19,12.16-9.11,17.91-14.07.93-.8,1.65-1.91,2.29-2.98,1.96-3.25,3.88-6.53,5.74-9.84,1.26-2.24,2.87-4.14,4.82-5.81,5.45-4.67,10.8-9.46,16.28-14.08,2.34-1.97,4.34-4.43,7.36-5.53.26-.09.47-.3.7-.47,4.74-3.52,9.38-7.18,14.23-10.54,18.27-12.66,36.57-25.29,54.96-37.77,4.76-3.23,9.9-5.91,14.91-8.75,1.88-1.07,2.59-.86,4.09.65.59.6,1.17,1.23,1.67,1.9,1.13,1.52.65,3.36-1.15,3.54-2.56.26-4.43,1.66-6.4,3-21.5,14.66-43.01,29.33-64.5,44-1.86,1.27-3.68,2.59-5.48,3.94-3.72,2.81-7.08,5.99-10.11,9.54-1.08,1.27-2.37,2.4-3.7,3.41-5.29,3.97-10.54,8-15.99,11.74-3.12,2.14-5.45,4.83-7.19,8.09-.79,1.48-1.42,3.06-1.99,4.64-5.74,16.02-11.16,32.15-17.25,48.04-7.94,20.72-12.28,42.06-12.73,64.22-.13,6.37.5,12.65,2.16,18.8,1.26,4.65,3,9.08,5.86,13.01,2.92,4,6.69,6.79,11.56,7.98,1.54.38,3.03.35,4.56-.14,3.82-1.23,7.28-3.11,10.08-5.95,2.46-2.5,4.79-5.16,6.89-7.96,6.47-8.66,10.95-18.36,14.18-28.6,3.26-10.32,6.14-20.76,9.23-31.13.84-2.83,1.57-5.73,2.78-8.4,3.34-7.3,4.71-14.98,5.03-22.92.1-2.52.39-5.03.69-7.54.72-6.09,3.73-11.08,7.66-15.6,1.48-1.7,3.04-3.32,4.47-5.06,5.64-6.84,11.18-13.76,16.87-20.56,3.26-3.9,6.34-7.89,8.33-12.62.79-1.87,2.04-3.33,3.75-4.44,2.27-1.47,4.11-3.4,5.83-5.46,3.51-4.22,7.09-8.38,10.62-12.58,9.79-11.63,19.54-23.28,29.38-34.86,1.63-1.91,3.56-3.58,5.45-5.25.59-.53,1.47-.82,2.27-1.01,1.21-.28,2.57,1.19,2.24,2.38-.18.67-.51,1.31-.84,1.92-2.64,4.82-5.43,9.53-9.04,13.72-2.57,2.98-4.97,6.11-7.45,9.18-20.25,25.06-40.5,50.13-60.74,75.19-1.24,1.53-2.44,3.09-3.66,4.64-4.29,5.44-6.72,11.65-7.65,18.48-1.38,10.12-.78,20.22.44,30.3,1.27,10.47,2.57,20.94,3.95,31.4.74,5.57,1.41,11.17,2.57,16.66,1.66,7.82,5.05,14.9,10.45,20.9.82.91,1.83,1.88,2.94,2.22,1.51.46,2.35,1.4,3.13,2.6,3.63,5.61,8.19,10.38,13.28,14.64,3.66,3.07,7.55,5.88,11.18,8.99,4.17,3.57,9.13,5.47,14.18,7.25,1,.35,1.9.33,2.83-.17,5.6-2.99,9.64-7.28,11.15-13.59,1.23-5.12,1.25-10.34.71-15.53-.34-3.28-1.73-6.2-3.95-8.7-1.31-1.47-2.53-3.02-3.84-4.49-.62-.7-1.35-1.32-2.02-1.96-1.52.58-2.8,1.15-4.14,1.57-1.28.4-2.27-.16-3.1-1.56-.81-1.35-.75-2.37.37-3.4,1.23-1.14,2.56-2.18,3.97-3.38Zm326.84-337.96c-.36-.75-.58-1.41-.97-1.96-5.21-7.34-9.95-15.02-16-21.73-.98-1.08-1.72-2.24-1.88-3.68-.43-3.84-2.14-7.25-3.47-10.79-1.08-2.88-1.89-5.89-2.57-8.89-.36-1.62-.26-3.36-.23-5.04.02-.88.58-1.57,1.51-1.8.89-.22,1.73-.02,2.27.7.67.9,1.22,1.89,1.77,2.87,3.24,5.76,6.48,11.52,9.7,17.29,5.97,10.69,12.17,21.25,19.51,31.07,1.66,2.22,2.71,4.57,2.87,7.32.2,3.27,1.13,6.36,2.22,9.41,3.25,9.14,6.5,18.28,9.81,27.4.67,1.84,1.4,3.73,2.49,5.33,2.64,3.9,4.27,8.21,5.7,12.64.86,2.68,1.88,5.31,2.63,8.01.37,1.35,1.06,2.22,2.21,2.89,1.94,1.14,3.83,2.35,5.76,3.5.48.28.99.58,1.52.68,3.75.71,7.51,1.16,11.29.13,3.51-.96,6.35-2.9,8.75-5.6,2.14-2.41,3.44-5.09,3.41-8.38-.01-1.12.1-2.26.35-3.35,1.09-4.74.79-9.51.35-14.28-1.05-11.2-2-22.42-3.14-33.61-.49-4.75-.49-9.56-1.75-14.22-2.54-9.36-5.09-18.72-7.63-28.08-.7-2.59-1.74-5-3.16-7.32-3.53-5.76-4.53-12.05-3.35-18.68.3-1.65.79-3.28,1.36-4.87,3.94-10.98,7.88-21.96,11.91-32.91,1.31-3.56,2.83-7.04,4.36-10.52,1.53-3.49,3.45-6.77,5.89-9.71.81-.97,1.65-1.93,2.56-2.8,1.28-1.22,2.39-1.36,3.37-.59.87.68,1.02,1.58.44,3.05-.36.91-.8,1.8-1.21,2.69-2.76,6.01-5.52,12.01-8.27,18.02-.58,1.28-1.26,2.55-1.6,3.9-3.23,12.67-6.54,25.31-7.45,38.45-.51,7.39.14,14.62,1.93,21.75,3.16,12.54,6.46,25.05,9.72,37.57.42,1.63.89,3.26,1.51,4.83.85,2.14,1.25,4.27.93,6.59-.2,1.52-.14,3.09-.02,4.63.53,6.87,1.09,13.74,1.72,20.61.41,4.48.84,8.97,1.5,13.42,1.29,8.71,1.36,8.7,7.3,15.08.38.41.77.82,1.15,1.24,1.55,1.72,3.58,2.69,5.67,3.55,1.09.45,2.21.52,3.27-.02,3.55-1.78,6.72-4.08,9.27-7.16,1.43-1.73,2.71-3.58,4.22-5.24,18.4-20.24,27.6-44.08,28.09-71.38.06-3.61-.6-6.85-2.25-10.11-3.16-6.27-6.18-12.64-8.84-19.14-3.61-8.83-5.12-18.13-4.57-27.67.67-11.58,4.17-22.36,9.91-32.39,1.31-2.29,3.15-4.29,4.81-6.38.68-.86,1.67-.97,2.69-.64,2.14.69,2.85,1.92,2.14,4.21-1.72,5.5-3.38,11.02-5.37,16.43-3.1,8.44-4.79,17.04-3.98,26.05.67,7.48,2.5,14.67,5.27,21.65,1.87,4.7,3.62,9.46,5.5,14.15,1.59,3.97,2.4,8.08,2.53,12.33.14,4.51.07,9-.76,13.46-1.03,5.53-1.54,11.21-3.17,16.55-2.49,8.19-5.45,16.26-9.17,24.02-5.22,10.86-11.82,20.73-20.29,29.38-2.53,2.58-4.4,5.81-6.5,8.79-.47.67-.67,1.54-.98,2.32-.65,1.68-.49,3.3.31,4.89,2.43,4.8,5.89,8.04,11.6,8.59,7.31.71,14.62.47,21.93.56.82.01,1.66-.28,2.45-.54,5.75-1.87,11.51-3.69,17.22-5.68,6.57-2.28,11.93-6.27,15.89-12.01,1.43-2.08,2.8-4.25,3.82-6.55,7.04-15.8,13.99-31.63,20.95-47.46,2.16-4.91,3.56-10.07,4.73-15.29.83-3.7,1.57-7.43,2.41-11.13.41-1.82.45-3.63.06-5.44-.95-4.4-1.78-8.82-2.9-13.18-2.45-9.53-5.04-19.03-7.59-28.53-1.9-7.07-3.65-14.15-4.11-21.5-.56-8.95.47-17.7,3-26.27.58-1.96,1.91-3.72,2.98-5.52.46-.77,1.3-1.08,2.21-.85.89.23,1.44.86,1.56,1.77.09.69.15,1.41.11,2.1-.21,3.51-.43,7.01-.68,10.52-.34,4.62-1.36,9.21-.74,13.87.48,3.62.96,7.25,1.63,10.84,3.53,18.79,7.43,37.51,11.99,56.09.33,1.36.69,2.76.71,4.14.04,3.8-.11,7.59-.16,11.39-.05,3.85-.87,7.51-2.41,11.05-8.26,19.1-16.48,38.22-24.74,57.32-2.53,5.85-2.56,5.84-1.19,12.12.09.41.08.86.23,1.24.32.77.54,1.71,1.11,2.23,2.07,1.89,4.22,3.7,6.44,5.41,1.32,1.02,2.91.95,4.43.32.78-.32,1.56-.67,2.27-1.11,5.87-3.61,11.74-7.22,17.57-10.9,1.18-.74,2.41-1.59,3.22-2.69,2.46-3.31,5.64-5.88,8.62-8.65,2.48-2.31,4.77-4.76,6.57-7.66,4.83-7.77,9.4-15.68,13.39-23.92,6.78-14,11.89-28.54,14.28-43.96,1.61-10.42,3.22-20.84,4.92-31.25.55-3.35.9-6.68.86-10.07-.02-1.51-.47-2.63-1.5-3.74-1.33-1.43-2.58-3-3.55-4.68-9.41-16.32-21.11-30.84-34.24-44.3-4.81-4.93-9.44-10.05-13.98-15.23-4.45-5.08-8.79-10.26-12.97-15.56-2.51-3.18-5.26-5.64-9.3-6.73-2.96-.8-5.74-2.27-8.62-3.42-3-1.2-6.01-2.4-9.03-3.54-3.18-1.2-6.46-1.83-9.86-2.11-5.61-.45-11.21-1.04-16.78-1.8-14.77-2.01-29.51-4.2-44.28-6.19-6.14-.83-12.31-1.15-18.53-.73-5.61.38-11.24.62-16.86.61-8.06,0-15.93-1.6-23.79-3.23-7.29-1.52-14.54-3.24-21.96-4.11-6.42-.75-12.8-1.85-19.21-2.71-1.88-.25-3.51-.82-4.87-2.19-2.32-2.33-5.17-3.83-8.14-5.17-7.18-3.24-14.31-6.58-21.46-9.89-1.02-.47-2.03-.97-3.05-1.45-1-.46-1.56-1.25-1.48-2.32.08-1.09.88-1.66,1.84-2.09,2.27-.99,4.51-1.37,6.94-.42,1.96.76,4.02,1.26,6.06,1.82.48.13,1.02.06,1.74.1-.32-.62-.44-1.05-.7-1.34-4.68-5.12-9.85-9.66-15.97-12.98-12.07-6.55-24.55-7.53-37.42-2.57-5.79,2.23-11.26,5.13-16.57,8.31-14.41,8.62-27.88,18.55-40.33,29.81-10.54,9.53-18.81,20.94-25.52,33.38-7.35,13.63-9.22,28.22-5.81,43.37,2.96,13.15,8.27,25.37,15.18,36.9,5.84,9.75,13.18,18.22,22.14,25.24,1.44,1.12,2.92,2.22,4.5,3.11,5.88,3.32,11.79,6.57,17.74,9.78,1.35.73,2.82,1.29,4.29,1.7,3.65,1.01,7.34,1.93,11.03,2.81,1.36.33,2.76.56,4.16.67,5.05.4,10.1.77,15.15,1.06,8.01.46,16.01,1.05,24.02,1.22,11.67.25,23.35.19,35.03.21,2.08,0,4.18-.13,6.41-.93Z"/><path class="cls-2" d="m289.57,744.29c-1.41,1.19-2.74,2.24-3.97,3.38-1.12,1.03-1.18,2.05-.37,3.4.84,1.4,1.83,1.96,3.1,1.56,1.33-.41,2.62-.98,4.14-1.57.67.64,1.39,1.26,2.02,1.96,1.3,1.47,2.53,3.02,3.84,4.49,2.22,2.5,3.61,5.43,3.95,8.7.55,5.19.53,10.41-.71,15.53-1.52,6.3-5.56,10.6-11.15,13.59-.93.5-1.83.53-2.83.17-5.06-1.78-10.01-3.68-14.18-7.25-3.63-3.11-7.52-5.92-11.18-8.99-5.09-4.27-9.65-9.04-13.28-14.64-.78-1.2-1.62-2.14-3.13-2.6-1.11-.34-2.12-1.32-2.94-2.22-5.4-6-8.79-13.08-10.45-20.9-1.16-5.49-1.84-11.09-2.57-16.66-1.38-10.46-2.68-20.93-3.95-31.4-1.22-10.08-1.82-20.18-.44-30.3.93-6.84,3.36-13.04,7.65-18.48,1.22-1.55,2.42-3.11,3.66-4.64,20.24-25.07,40.49-50.13,60.74-75.19,2.48-3.06,4.88-6.19,7.45-9.18,3.61-4.19,6.4-8.9,9.04-13.72.33-.61.66-1.25.84-1.92.33-1.18-1.03-2.66-2.24-2.38-.8.18-1.68.48-2.27,1.01-1.89,1.67-3.82,3.33-5.45,5.25-9.84,11.58-19.59,23.24-29.38,34.86-3.53,4.2-7.11,8.37-10.62,12.58-1.72,2.07-3.56,3.99-5.83,5.46-1.71,1.11-2.96,2.57-3.75,4.44-1.99,4.72-5.07,8.72-8.33,12.62-5.69,6.8-11.23,13.72-16.87,20.56-1.43,1.73-2.99,3.36-4.47,5.06-3.93,4.52-6.95,9.51-7.66,15.6-.29,2.51-.58,5.02-.69,7.54-.33,7.94-1.7,15.62-5.03,22.92-1.22,2.67-1.94,5.57-2.78,8.4-3.09,10.38-5.98,20.81-9.23,31.13-3.23,10.25-7.72,19.95-14.18,28.6-2.1,2.81-4.43,5.47-6.89,7.96-2.8,2.84-6.27,4.72-10.08,5.95-1.53.49-3.02.52-4.56.14-4.87-1.19-8.64-3.97-11.56-7.98-2.86-3.92-4.6-8.36-5.86-13.01-1.66-6.16-2.29-12.43-2.16-18.8.46-22.16,4.79-43.5,12.73-64.22,6.09-15.88,11.51-32.02,17.25-48.04.57-1.58,1.2-3.16,1.99-4.64,1.74-3.26,4.07-5.94,7.19-8.09,5.45-3.74,10.7-7.77,15.99-11.74,1.34-1,2.62-2.14,3.7-3.41,3.03-3.55,6.39-6.74,10.11-9.54,1.8-1.36,3.62-2.68,5.48-3.94,21.5-14.68,43-29.34,64.5-44,1.97-1.34,3.84-2.74,6.4-3,1.8-.18,2.28-2.02,1.15-3.54-.5-.68-1.07-1.3-1.67-1.9-1.5-1.51-2.21-1.71-4.09-.65-5.01,2.85-10.15,5.53-14.91,8.75-18.4,12.48-36.69,25.11-54.96,37.77-4.85,3.36-9.49,7.02-14.23,10.54-.22.17-.44.37-.7.47-3.01,1.09-5.02,3.56-7.36,5.53-5.49,4.62-10.84,9.41-16.28,14.08-1.95,1.67-3.56,3.57-4.82,5.81-1.86,3.31-3.78,6.59-5.74,9.84-.65,1.07-1.36,2.17-2.29,2.98-5.76,4.96-11.55,9.88-17.91,14.07-11.18,7.36-23.22,12.57-36.52,14.67-3.47.55-6.88,1.53-10.36,1.94-3.47.41-7.01.48-10.51.44-1.65-.02-3.31-.59-4.94-.99-1.13-.28-1.98-.97-2.59-2.01-1.56-2.67-3.2-5.3-4.75-7.97-2.1-3.63-2.14-7.5-1.17-11.45.2-.82.46-1.64.83-2.39,4.29-8.72,8.57-17.48,15.79-24.26,5.43-5.1,11.02-10.04,16.62-14.96,2.43-2.14,5.04-4.06,7.57-6.07,6.73-5.35,13.78-10.19,21.27-14.45,11.62-6.6,23.16-13.35,34.62-20.22,11.04-6.62,22.79-11.61,34.98-15.62,2-.66,4.03-1.24,6.02-1.94,7.89-2.76,16.12-3.8,24.31-5.12,18.74-3.02,37.49-6.02,56.18-9.31,6.21-1.09,12.35-2.79,18.38-4.67,10.95-3.41,22.09-5.51,33.54-6,8.19-.35,16.29.57,24.39,1.67,10.17,1.38,20.35,2.77,30.54,4.02,13.4,1.65,26.82,3.19,40.23,4.76,14.39,1.69,28.76,3.54,43.17,5.03,21.71,2.25,43.49,3.42,65.33,2.58,10.82-.42,21.63-1.3,32.43-2.04,8.84-.61,17.68-1.31,26.52-1.99,9.12-.71,18.23-1.45,27.35-2.18,14.04-1.12,28.08-1.9,42.17-1.16,8.45.44,16.78,1.72,25.01,3.71,2.18.53,4.41.87,6.63,1.22.82.13,1.69.12,2.52.02,1.13-.14,1.93-1.5,1.5-2.57-.31-.77-.76-1.5-1.27-2.16-2.46-3.21-5.66-5.48-9.42-6.89-2.1-.79-4.31-1.25-6.47-1.86-1.06-.3-2.12-.61-3.79-1.09,4.55-1.66,8.46-3.17,12.57-4.07,3.4-.74,6.1.3,7.9,3.37.5.85,1.01,1.69,1.54,2.52,4.25,6.68,10.36,10.55,18.09,11.98,1.11.2,2.22.45,3.34.51,9.14.49,18.21.83,27.22-1.74,7.73-2.2,15.18-5.12,22.76-7.72,2.8-.96,5.61-1.81,8.88-1.88.72.88,1.46,1.89,2.31,2.79,2.02,2.14,3.93,4.43,6.18,6.3,4.13,3.42,8.86,4.06,13.87,2.08,1.43-.57,2.81-1.29,4.21-1.95,1.78-.84,3.51-1.81,5.35-2.49,2.56-.96,4.86-2.15,6.31-4.62.48-.82,1.21-1.63,2.64-.79-.22.58-.39,1.22-.7,1.78-1.3,2.34-2.68,4.62-3.95,6.98-.93,1.74-.82,2.28.54,3.75.56.61,1.21,1.14,1.94,1.82-1.96,4.57-3.77,9.12-6.4,13.3-7.55,12.04-15.04,24.11-22.61,36.14-10.49,16.68-20.26,33.78-29.85,50.98-5.75,10.33-11.77,20.49-18.12,30.46-2.64,4.15-5.16,8.39-7.82,12.52-.67,1.04-1.6,1.97-2.56,2.75-2.81,2.28-4.02,2.36-7.1.23-1.37-.95-2.55-1.04-3.86-.15-1.93,1.31-4.1,1.69-6.36,2.02-15.45,2.22-30.89,4.5-46.33,6.79-1.27.19-2.49.35-3.73-.13-1.73-.67-3.28-.22-4.78.77-.93.61-1.95,1.13-3,1.53-14.09,5.29-28.13,10.68-42.29,15.76-10.73,3.85-21.72,6.82-32.94,8.95-16.24,3.08-32.23,1.92-47.92-3.08-5.08-1.62-9.99-3.76-14.98-5.68-1.18-.45-2.3-1.11-3.51-1.42-6.41-1.67-12.6-3.98-18.85-6.12-8.83-3.03-17.88-4.93-27.24-5.28-7.59-.29-15.19-.7-22.67-2.16-3.86-.75-7.75-1.46-11.52-2.55-5.3-1.52-10.63-2.69-16.14-2.94-4.81-.22-9.47-1.34-14.11-2.47-2.21-.54-4.06-.51-5.97.89-.97.71-2.3,1.01-3.51,1.31-6.96,1.75-14.01,3.07-21.13,3.97-1.37.17-2.7.67-4.04,1.01-1.08.28-2.15.63-3.25.82-16.27,2.79-29.26,11.15-39.87,23.5-2.8,3.26-4.41,7.16-5.57,11.26-.23.81-.37,1.65-.58,2.46-.36,1.39-1.07,2.45-2.26,3.41-1.39,1.11-2.47,2.65-3.61,4.06-.55.69-.66,1.55-.21,2.37.56,1.02,1.51,1.19,2.54,1.04,1.08-.16,2.15-.4,3.61-.67-.13,1.2-.21,2.12-.33,3.04-.14,1.12-.36,2.22-.47,3.34-.21,2.04.43,2.93,2.3,3.36,1.51.35,2.37-.12,3.2-1.98,1.21-2.69,2.32-5.42,3.55-8.31.59.29,1.15.42,1.52.76,4.4,3.94,8.84,7.84,13.13,11.9,1.83,1.73,3.5,3.69,4.96,5.74,3.88,5.44,2.95,11.7-.37,16.58-.59.86-1.36,1.33-2.39,1.55-3.43.75-6.82,1.71-10.27,2.35-8.36,1.57-16.71,2.23-25.03-.51-1.97-.65-4.14-.86-6.22-.9-2.36-.05-4.36-.71-6.27-2.06-2.41-1.7-4.88-3.35-7.43-4.83-2.17-1.26-3.58-3.05-4.71-5.23-3.33-6.42-5.52-13.22-6.96-20.28-2.1-10.28-2.21-20.69-1.86-31.1.07-2.21.74-4.43,1.33-6.59,1.57-5.72,3.91-11.14,6.62-16.4,1.87-3.63,3.84-7.2,5.84-10.75,10.65-18.87,21.35-37.7,31.97-56.58,5.86-10.42,11.61-20.9,17.41-31.36.27-.49.56-.98.81-1.48,1.25-2.52.03-4.82-2.8-5.08-.61-.06-1.43.26-1.88.69-.8.77-1.45,1.72-2.04,2.68-4.37,7.05-8.74,14.11-13.06,21.19-3.96,6.48-7.83,13.01-11.81,19.48-4.57,7.43-9.22,14.81-13.81,22.23-6.23,10.05-12.51,20.07-19.91,29.31-2.64,3.29-5.28,6.63-8.3,9.55-3.3,3.2-4.44,7.12-4.7,11.37-.28,4.63-.49,9.31-.1,13.92.38,4.45,1.36,8.89,2.5,13.22.51,1.95,1.99,3.68,3.19,5.39,1.22,1.75,2,3.51,2.41,5.69,1.21,6.49,2.83,12.91,4.29,19.35.09.4.11.82.22,1.63Z"/><path class="cls-2" d="m616.41,406.33c-2.22.8-4.32.93-6.41.93-11.68-.02-23.36.04-35.03-.21-8.01-.17-16.02-.76-24.02-1.22-5.06-.29-10.11-.67-15.15-1.06-1.4-.11-2.8-.34-4.16-.67-3.69-.89-7.37-1.8-11.03-2.81-1.48-.41-2.94-.98-4.29-1.7-5.94-3.21-11.86-6.46-17.74-9.78-1.58-.89-3.07-1.99-4.5-3.11-8.97-7.02-16.3-15.49-22.14-25.24-6.91-11.53-12.22-23.75-15.18-36.9-3.41-15.15-1.55-29.74,5.81-43.37,6.71-12.44,14.98-23.85,25.52-33.38,12.45-11.26,25.91-21.19,40.33-29.81,5.32-3.18,10.78-6.08,16.57-8.31,12.87-4.96,25.35-3.99,37.42,2.57,6.13,3.33,11.29,7.87,15.97,12.98.27.29.39.72.7,1.34-.71-.03-1.25.04-1.74-.1-2.03-.56-4.1-1.06-6.06-1.82-2.43-.94-4.67-.57-6.94.42-.97.42-1.76.99-1.84,2.09-.08,1.08.48,1.86,1.48,2.32,1.02.47,2.03.97,3.05,1.45,7.15,3.3,14.28,6.65,21.46,9.89,2.98,1.34,5.82,2.84,8.14,5.17,1.36,1.37,2.99,1.94,4.87,2.19,6.41.86,12.79,1.96,19.21,2.71,7.42.87,14.67,2.59,21.96,4.11,7.86,1.64,15.73,3.23,23.79,3.23,5.62,0,11.25-.23,16.86-.61,6.22-.42,12.39-.09,18.53.73,14.77,1.99,29.52,4.18,44.28,6.19,5.57.76,11.17,1.35,16.78,1.8,3.4.27,6.69.91,9.86,2.11,3.03,1.14,6.03,2.34,9.03,3.54,2.87,1.15,5.65,2.62,8.62,3.42,4.04,1.09,6.8,3.56,9.3,6.73,4.18,5.3,8.52,10.48,12.97,15.56,4.54,5.18,9.17,10.3,13.98,15.23,13.12,13.45,24.83,27.97,34.24,44.3.97,1.69,2.22,3.25,3.55,4.68,1.04,1.11,1.49,2.24,1.5,3.74.04,3.39-.31,6.72-.86,10.07-1.7,10.41-3.3,20.83-4.92,31.25-2.38,15.43-7.5,29.96-14.28,43.96-3.99,8.24-8.56,16.15-13.39,23.92-1.8,2.9-4.1,5.35-6.57,7.66-2.98,2.78-6.16,5.34-8.62,8.65-.81,1.09-2.04,1.94-3.22,2.69-5.83,3.68-11.7,7.28-17.57,10.9-.71.44-1.49.79-2.27,1.11-1.52.63-3.1.69-4.43-.32-2.22-1.71-4.37-3.52-6.44-5.41-.57-.52-.79-1.46-1.11-2.23-.16-.38-.14-.83-.23-1.24-1.37-6.28-1.34-6.26,1.19-12.12,8.26-19.1,16.48-38.22,24.74-57.32,1.53-3.54,2.36-7.2,2.41-11.05.05-3.8.2-7.6.16-11.39-.01-1.38-.37-2.78-.71-4.14-4.55-18.58-8.46-37.29-11.99-56.09-.67-3.59-1.15-7.22-1.63-10.84-.62-4.66.4-9.25.74-13.87.26-3.5.48-7.01.68-10.52.04-.7-.02-1.41-.11-2.1-.12-.91-.67-1.54-1.56-1.77-.91-.23-1.75.08-2.21.85-1.07,1.8-2.4,3.56-2.98,5.52-2.52,8.56-3.56,17.31-3,26.27.46,7.36,2.21,14.44,4.11,21.5,2.55,9.5,5.14,19,7.59,28.53,1.12,4.35,1.96,8.78,2.9,13.18.39,1.81.35,3.62-.06,5.44-.84,3.7-1.58,7.43-2.41,11.13-1.17,5.22-2.57,10.38-4.73,15.29-6.97,15.83-13.91,31.67-20.95,47.46-1.02,2.3-2.39,4.47-3.82,6.55-3.96,5.74-9.32,9.73-15.89,12.01-5.71,1.98-11.48,3.81-17.22,5.68-.79.26-1.63.55-2.45.54-7.31-.1-14.62.14-21.93-.56-5.71-.55-9.17-3.79-11.6-8.59-.81-1.59-.97-3.22-.31-4.89.31-.78.51-1.65.98-2.32,2.1-2.98,3.97-6.21,6.5-8.79,8.46-8.65,15.07-18.51,20.29-29.38,3.72-7.75,6.68-15.83,9.17-24.02,1.63-5.34,2.14-11.03,3.17-16.55.83-4.45.9-8.95.76-13.46-.13-4.25-.94-8.36-2.53-12.33-1.89-4.7-3.64-9.45-5.5-14.15-2.77-6.97-4.59-14.17-5.27-21.65-.81-9.01.88-17.61,3.98-26.05,1.99-5.4,3.64-10.93,5.37-16.43.72-2.29,0-3.52-2.14-4.21-1.02-.33-2.01-.22-2.69.64-1.66,2.09-3.49,4.09-4.81,6.38-5.75,10.03-9.24,20.81-9.91,32.39-.56,9.54.96,18.84,4.57,27.67,2.65,6.5,5.67,12.87,8.84,19.14,1.65,3.26,2.31,6.5,2.25,10.11-.49,27.3-9.69,51.14-28.09,71.38-1.51,1.66-2.79,3.52-4.22,5.24-2.55,3.08-5.72,5.37-9.27,7.16-1.06.53-2.18.47-3.27.02-2.09-.86-4.12-1.82-5.67-3.55-.38-.42-.76-.83-1.15-1.24-5.94-6.38-6.01-6.37-7.3-15.08-.66-4.45-1.09-8.94-1.5-13.42-.63-6.86-1.19-13.73-1.72-20.61-.12-1.54-.18-3.11.02-4.63.31-2.32-.09-4.45-.93-6.59-.62-1.56-1.08-3.2-1.51-4.83-3.26-12.52-6.56-25.02-9.72-37.57-1.8-7.13-2.44-14.36-1.93-21.75.91-13.14,4.21-25.78,7.45-38.45.34-1.35,1.02-2.62,1.6-3.9,2.74-6.01,5.51-12.01,8.27-18.02.41-.89.85-1.78,1.21-2.69.58-1.47.43-2.36-.44-3.05-.98-.77-2.09-.63-3.37.59-.91.87-1.76,1.82-2.56,2.8-2.44,2.94-4.36,6.22-5.89,9.71-1.52,3.48-3.05,6.96-4.36,10.52-4.03,10.95-7.97,21.93-11.91,32.91-.57,1.58-1.06,3.22-1.36,4.87-1.18,6.62-.18,12.92,3.35,18.68,1.42,2.31,2.46,4.72,3.16,7.32,2.54,9.36,5.09,18.72,7.63,28.08,1.26,4.65,1.26,9.47,1.75,14.22,1.14,11.19,2.1,22.41,3.14,33.61.45,4.78.74,9.54-.35,14.28-.25,1.09-.36,2.24-.35,3.35.03,3.29-1.27,5.97-3.41,8.38-2.4,2.7-5.24,4.64-8.75,5.6-3.78,1.03-7.54.58-11.29-.13-.53-.1-1.05-.39-1.52-.68-1.93-1.15-3.83-2.36-5.76-3.5-1.15-.67-1.84-1.54-2.21-2.89-.74-2.71-1.76-5.34-2.63-8.01-1.43-4.42-3.05-8.74-5.7-12.64-1.09-1.61-1.82-3.49-2.49-5.33-3.31-9.12-6.56-18.26-9.81-27.4-1.09-3.05-2.02-6.14-2.22-9.41-.17-2.74-1.21-5.1-2.87-7.32-7.35-9.82-13.54-20.38-19.51-31.07-3.22-5.77-6.46-11.53-9.7-17.29-.55-.98-1.1-1.97-1.77-2.87-.54-.73-1.38-.92-2.27-.7-.93.23-1.49.92-1.51,1.8-.03,1.68-.14,3.42.23,5.04.67,3.01,1.48,6.01,2.57,8.89,1.34,3.55,3.04,6.95,3.47,10.79.16,1.44.9,2.6,1.88,3.68,6.05,6.71,10.8,14.39,16,21.73.39.54.6,1.21.97,1.96Z"/></svg>