<?xml version="1.0" encoding="UTF-8"?><svg id="Layer_1" xmlns="http://www.w3.org/2000/svg" viewBox="0 0 1000 1000"><defs><style>.cls-1,.cls-2,.cls-3,.cls-4{stroke-width:5px;}.cls-1,.cls-2,.cls-3,.cls-4,.cls-5{stroke-miterlimit:10;}.cls-1,.cls-4,.cls-5{stroke:#000;}.cls-2,.cls-3{stroke:#f60;}.cls-2,.cls-4{fill:#fff;}.cls-3,.cls-6{fill:#f60;}.cls-7,.cls-6{stroke-width:0px;}.cls-5{fill:none;stroke-linecap:round;stroke-width:11px;}</style></defs><path class="cls-6" d="m233.5,540.12c21.58-4.81,39.84-18.5,51.81-35.24,11.97-16.73,18.12-36.32,21.15-55.99,2.58,15.07,6.44,29.97,11.54,44.52,7.38,21.04,17.84,36.91,48.58,46.32-35.21,18.49-58.78,53.51-60.53,89.94-2.5-19.55-5.33-39.93-17.55-56.31-11.64-15.59-31.53-26.04-55-33.24Z"/><path class="cls-7" d="m306.05,634.2c-2.27,0-4.2-1.69-4.5-3.96-2.3-18-4.91-38.4-16.69-54.18-9.93-13.3-27.66-23.94-52.69-31.62-1.97-.6-3.28-2.46-3.2-4.51.08-2.06,1.53-3.8,3.55-4.25,19.04-4.24,36.93-16.43,49.11-33.45,10.31-14.42,16.97-32.09,20.36-54.04.34-2.2,2.22-3.82,4.45-3.84h.04c2.21,0,4.1,1.59,4.47,3.77,2.53,14.79,6.35,29.52,11.35,43.78,7.35,20.95,17.17,34.78,45.63,43.48,1.76.54,3.02,2.08,3.19,3.91.17,1.83-.78,3.58-2.41,4.44-33.63,17.67-56.44,51.48-58.11,86.14-.11,2.35-2,4.22-4.35,4.31-.06,0-.12,0-.18,0Zm-58.09-93.91c20.29,7.82,34.81,17.81,44.17,30.35,7.5,10.04,11.63,21.36,14.25,32.77,8.14-24.98,25.82-47.66,49.43-62.67-24.88-10.07-35.05-25.75-42.09-45.82-2.81-8-5.25-16.14-7.32-24.35-4.04,14.11-9.8,26.31-17.41,36.96-10.55,14.75-25.04,26.23-41.03,32.78Z"/><path class="cls-6" d="m366.59,677.31c16.33-3.91,30.15-15.06,39.2-28.67,9.06-13.62,13.71-29.56,16.01-45.56,1.95,12.27,4.87,24.39,8.73,36.23,5.58,17.12,13.5,30.04,36.77,37.69-26.64,15.05-44.48,43.55-45.81,73.19-1.89-15.91-4.03-32.5-13.28-45.82-8.81-12.69-23.86-21.19-41.62-27.05Z"/><path class="cls-7" d="m421.49,754.72c-2.29,0-4.23-1.71-4.5-4-1.73-14.57-3.7-31.08-12.51-43.77-7.39-10.64-20.61-19.16-39.32-25.33-1.92-.63-3.19-2.47-3.11-4.5.09-2.02,1.5-3.75,3.48-4.22,14.12-3.39,27.42-13.15,36.49-26.78,7.74-11.64,12.74-25.93,15.3-43.69.32-2.22,2.21-3.87,4.45-3.89h.03c2.23,0,4.13,1.62,4.48,3.82,1.91,12,4.79,23.95,8.57,35.53,5.47,16.78,12.77,27.85,33.87,34.79,1.71.56,2.92,2.08,3.1,3.86.17,1.79-.72,3.51-2.29,4.39-25.17,14.22-42.25,41.48-43.51,69.44-.1,2.36-2,4.24-4.36,4.33-.06,0-.11,0-.17,0Zm-41.76-77.29c14.68,6.34,25.28,14.36,32.21,24.35,4.94,7.12,7.97,15,9.99,23.02,6.52-18.54,19.02-35.28,35.38-46.82-18.22-8.34-25.8-21.07-31.08-37.26-1.69-5.18-3.21-10.44-4.55-15.74-2.99,9.84-7,18.5-12.11,26.18-7.72,11.6-18.21,20.76-29.84,26.28Z"/><line class="cls-5" x1="30.92" y1="799.44" x2="986.85" y2="799.44"/><line class="cls-5" x1="330.96" y1="879.92" x2="912.21" y2="879.92"/><circle class="cls-4" cx="681.92" cy="371.86" r="173.79"/><path class="cls-1" d="m681.92,549.68c-98.05,0-177.81-79.77-177.81-177.81s79.77-177.81,177.81-177.81,177.81,79.77,177.81,177.81-79.77,177.81-177.81,177.81Zm0-347.58c-93.61,0-169.77,76.16-169.77,169.77s76.16,169.77,169.77,169.77,169.77-76.16,169.77-169.77-76.16-169.77-169.77-169.77Z"/><path class="cls-3" d="m681.92,250.97c-2.22,0-4.02-1.8-4.02-4.02v-23.59c0-2.22,1.8-4.02,4.02-4.02s4.02,1.8,4.02,4.02v23.59c0,2.22-1.8,4.02-4.02,4.02Z"/><path class="cls-3" d="m681.92,524.39c-2.22,0-4.02-1.8-4.02-4.02v-23.59c0-2.22,1.8-4.02,4.02-4.02s4.02,1.8,4.02,4.02v23.59c0,2.22-1.8,4.02-4.02,4.02Z"/><path class="cls-3" d="m830.42,375.88h-23.59c-2.22,0-4.02-1.8-4.02-4.02s1.8-4.02,4.02-4.02h23.59c2.22,0,4.02,1.8,4.02,4.02s-1.8,4.02-4.02,4.02Z"/><path class="cls-3" d="m557,375.88h-23.59c-2.22,0-4.02-1.8-4.02-4.02s1.8-4.02,4.02-4.02h23.59c2.22,0,4.02,1.8,4.02,4.02s-1.8,4.02-4.02,4.02Z"/><path class="cls-3" d="m685.94,371.86c-1.03,0-2.06-.39-2.84-1.18-1.57-1.57-1.57-4.12,0-5.69l64.45-64.45c1.57-1.57,4.11-1.57,5.69,0,1.57,1.57,1.57,4.12,0,5.69l-64.45,64.45c-.79.79-1.81,1.18-2.84,1.18Z"/><circle class="cls-2" cx="681.92" cy="371.86" r="18.76"/><path class="cls-3" d="m681.92,394.65c-12.56,0-22.79-10.22-22.79-22.79s10.22-22.79,22.79-22.79,22.79,10.22,22.79,22.79-10.22,22.79-22.79,22.79Zm0-37.53c-8.13,0-14.74,6.62-14.74,14.74s6.62,14.74,14.74,14.74,14.74-6.62,14.74-14.74-6.62-14.74-14.74-14.74Z"/></svg>