<?xml version="1.0" encoding="UTF-8"?><svg id="Layer_1" xmlns="http://www.w3.org/2000/svg" viewBox="0 0 200 200"><defs><style>.cls-1{stroke-width:0px;}</style></defs><circle class="cls-1" cx="100" cy="81.59" r="37.5"/><path class="cls-1" d="m100,0C44.77,0,0,44.78,0,100s44.77,100,100,100,100-44.77,100-100S155.23,0,100,0Zm59.81,161.04c-8.85-19.81-28.66-33.18-50.83-33.4-6.23-.06-12.47-.06-18.7.03-2.49.03-5,.23-7.45.62-19.24,3.11-35,15.83-42.63,32.75-15.83-15.5-25.66-37.12-25.66-61.04C14.54,52.81,52.8,14.55,100,14.55s85.46,38.26,85.46,85.45c0,23.91-9.82,45.53-25.65,61.04Z"/></svg>