<?xml version="1.0" encoding="UTF-8"?><svg id="Layer_1" xmlns="http://www.w3.org/2000/svg" viewBox="0 0 200 200"><defs><style>.cls-1{stroke-width:0px;}</style></defs><path class="cls-1" d="m146.33,109.88h43.99v-22.44h-43.31l.28-.08c5.16-22.4,23.8-38.99,45.95-38.99,2.32,0,4.52.2,6.76.52v-22.12c-3.16-.48-6.44-.72-9.72-.72-37.51,0-67.91,33.07-67.91,73.94s30.39,73.94,67.91,73.94c3.32,0,6.56-.28,9.72-.76l-.2-22.2c-2.2.36-4.24.52-6.56.52-23.04,0-42.23-17.92-46.51-41.63h-.4Z"/><path class="cls-1" d="m77.66,173.18c-3.16.48-6.44.76-9.76.76C30.43,173.94,0,140.83,0,100S30.43,26.06,67.9,26.06c3.28,0,6.56.24,9.76.72v22.16c-2.2-.32-4.48-.52-6.76-.52-26.16,0-47.39,23.07-47.39,51.59s21.24,51.55,47.39,51.55c2.32,0,4.32-.16,6.52-.52l.24,22.16Z"/></svg>