<?xml version="1.0" encoding="UTF-8"?><svg id="Layer_1" xmlns="http://www.w3.org/2000/svg" viewBox="0 0 200 200"><defs><style>.cls-1{fill:#ffd75e;stroke-width:0px;}</style></defs><path class="cls-1" d="m16.01,155.67c-1.67-2.78-2.75-4.57-4.09-6.8,7.33-4.02,14.23-7.81,21.45-11.77,1.27,2.78,5.49,4.74-1.36,7.45,19.53,6.22,37.47,12.04,55.48,17.6,3.94,1.22,7.91,1.62,11.66-1.8,1.59-1.45,5.08-2.7,6.93,1.4.39.86,3.57,1.11,5.19.65,7.98-2.23,15.9-4.71,23.79-7.24,10.43-3.34,20.82-6.82,29.91-9.8.26-3.14.44-5.41.72-8.76,8.27,4.53,15.16,8.3,22.39,12.26-1.31,2.19-2.38,4-3.44,5.78q-7.72-3-15.21,1.77c-21.88,14.03-43.8,28-65.58,42.18-2.85,1.85-4.73,1.91-7.61.03-22.4-14.56-44.99-28.82-67.36-43.43-4.48-2.93-8.29-5.19-12.87.48Z"/><path class="cls-1" d="m94.25,54.92c-1.08-2.89-2.18-5.86-3.38-9.08,22.56-2.65,41.1,4.22,54.16,22.69,12.88,18.21,14.07,38.04,3.82,57.81-9.21,17.76-24.43,27.28-44.94,29.39.82-3.61,1.5-6.62,2.17-9.64,27.44-7.24,42.5-26.98,39.12-51.3-3.49-25.11-22.79-40.3-50.95-39.87Z"/><path class="cls-1" d="m90.05,15.91c-2.25-7.8-.42-12.11,4.7-14.52,4.69-2.21,9.39-1.88,13.08,1.77,7.73,7.62,3.59,14.52-3.52,21.87,16.53,1.5,31.5,2.86,46.46,4.22.22.64.45,1.28.67,1.92-2.72,1.32-5.34,3.48-8.19,3.83-11.11,1.37-22.3,2.01-33.42,3.26-4,.45-7.05,4.82-11.73,3.24-3.57-1.21-7.08-3-10.75-3.47-10.21-1.29-20.51-1.84-30.72-3.1-2.74-.34-5.3-2.17-7.95-3.32.2-.73.4-1.45.59-2.18,7.25-.71,14.49-1.44,21.74-2.13,3.24-.31,6.6-1.25,9.69-.71,10.06,1.74,15.86-5.57,22.79-10.3,1.41-.96,2.19-4.27,1.72-6.1-.41-1.58-2.99-3.59-4.64-3.61-1.89-.02-4.08,1.65-5.64,3.12-1.91,1.79-3.29,4.13-4.9,6.23Z"/><path class="cls-1" d="m86.15,144.21c-1.91,2.89-3.49,5.27-5.07,7.67-16.31-3.08-33.05-23.27-35.87-43.31-3.22-22.9,8.35-46.3,27.77-56.02.78,2.94,1.55,5.85,2.45,9.24-14.97,10.88-22.92,25.53-20.51,44.48,2.38,18.74,13.53,30.89,31.23,37.94Z"/><path class="cls-1" d="m72.51,70.38h12.03v23.9h18.56c-.58,4.12-1.07,7.61-1.64,11.68h-16.79v24.86h-12.16v-60.45Z"/><path class="cls-1" d="m109.29,71.77c4.66,3.22,5.31,6.22,2.25,10.6-2.15,3.08-1.36,7.46,2.06,8.6,3.79,1.26,6.33,3.51,5.88,7.3-.57,4.76.61,10.49-5.12,13.4-4.13,2.1-4,4.78-1.37,8.16,4.07,5.24.2,16.8-6.31,18.27-5.04,1.14-6.5,3.08-4.49,8.21,2.11,5.4-2.62,8.75-5.65,11.97-1.52,1.61-5.13,1.93-7.69,1.7-4.06-.36-5.69-3.9-4.47-7.16,1.87-5,4.57-10.05,10.53-11.39,3.84-.86,5.1-2.95,4.18-6.46-1.46-5.6,1.12-13.48,6.04-16.49,3.38-2.07,4.07-5.04,2.02-7.59-4.61-5.74-1.94-11.2-.37-16.82.42-1.51,1.37-2.93,1.49-4.44.46-5.84.69-11.7,1.02-17.86Zm3.1,51.69c-.56-.34-1.11-.69-1.67-1.03-2.14,5.55-3.84,2.67-5.45-1.03-1.63,4.04-2.87,7.1-4.1,10.17,5.03-3.79,5.29-.24,5.2,3.95l1.44-.53c1.53-3.84,3.06-7.69,4.59-11.53Zm-11.72,23.76c-3.03.89-4.47,1.32-5.92,1.75-.21-1.24-.41-2.48-.81-4.9-2.77,3.95-5.04,7.2-7.32,10.44.27.57.53,1.14.8,1.71,3.38-4.29,5.18-3.74,5.57,2.03,2.74-3.94,4.85-6.97,7.67-11.03Zm15.89-50.96c-.48-.37-.96-.74-1.43-1.11-1.36,6.11-3.6,2.87-6.09.3-.53,4.1-.95,7.42-1.45,11.31,1.82-1.12,3-1.85,4.48-2.76.57,1.75.97,2.95,1.36,4.15.43.02.87.05,1.3.07.61-3.98,1.23-7.97,1.84-11.95Z"/><path class="cls-1" d="m127.33,130.95h-9.24c-.83-4.41-1.81-8.41-2.24-12.47-.18-1.7.26-4.01,1.35-5.21,6.84-7.52,6.78-17.2-.33-24.1-.76-.74-1.26-2.09-1.29-3.17-.13-5.03-.06-10.06-.06-15.51h11.82v60.46Z"/><path class="cls-1" d="m105.48,59.09v31.91h-10.76v-31.91h10.76Z"/><path class="cls-1" d="m91.47,68.31c-1.63-.59-2.89-1.4-4.16-1.44-7.32-.23-14.06-10.64-10.08-16.81,3.01-4.67,2.87-6.8-2.49-8.22-.87-.23-1.68-.71-2.52-1.07.33-.47.66-.93.98-1.4,3.11.3,6.22.6,9.33.91-.28.28-.57.57-.85.85,1.58,1.91,2.89,4.17,4.8,5.66,4.82,3.77,5.15,9.13,5.58,14.44.18,2.28-.36,4.61-.58,7.08Zm-7.27-8.69c1.81.12,3.2.21,5.03.33-1.03-3.38-1.95-6.4-3.45-11.34-1.05,6.79-3.45,4.98-5.97,2.5-.29.36-.59.72-.88,1.08,1.44,3.93,2.88,7.85,4.32,11.78.51-.18,1.01-.36,1.52-.55-.16-1.13-.33-2.26-.55-3.81Z"/><path class="cls-1" d="m94.78,109.77c4.8-.86,9.15-1.23,10.94,4.56-8.19,6.01-12,13.81-9.25,24.44-.56-.15-1.12-.31-1.68-.46v-28.53Z"/><path class="cls-1" d="m74.15,22.48c2.2-1.03,4.81-3.38,6.52-2.85,5.48,1.71,8.71-1.56,12.42-4.15,1.18-.82,2.28-1.88,3.59-2.33,1-.34,2.26.1,3.41.19-.34,1.21-.29,2.93-1.09,3.55-5.22,4.01-10.31,8.31-17.87,5.87-1.77-.57-4.19.88-6.31,1.4l-.67-1.67Z"/></svg>