<?xml version="1.0" encoding="UTF-8"?><svg id="Layer_1" xmlns="http://www.w3.org/2000/svg" xmlns:xlink="http://www.w3.org/1999/xlink" viewBox="0 0 200 200"><defs><style>.cls-1{fill:url(#linear-gradient);}.cls-1,.cls-2,.cls-3,.cls-4,.cls-5,.cls-6{stroke-width:0px;}.cls-2{fill:url(#linear-gradient-5);}.cls-3{fill:#0a4b96;}.cls-4{fill:url(#linear-gradient-2);}.cls-5{fill:url(#linear-gradient-3);}.cls-6{fill:url(#linear-gradient-4);}</style><linearGradient id="linear-gradient" x1="-183.28" y1="-262.25" x2="-175.83" y2="-245.6" gradientTransform="translate(436.88 597.87) scale(2)" gradientUnits="userSpaceOnUse"><stop offset="0" stop-color="#fff" stop-opacity="0"/><stop offset=".07" stop-color="#b8d3ee"/><stop offset="1" stop-color="#fff" stop-opacity="0"/></linearGradient><linearGradient id="linear-gradient-2" x1="-206.75" y1="-244.46" x2="-210.8" y2="-239.76" gradientTransform="translate(436.88 597.87) scale(2)" gradientUnits="userSpaceOnUse"><stop offset="0" stop-color="#b8d3ee"/><stop offset="1" stop-color="#fff" stop-opacity="0"/></linearGradient><linearGradient id="linear-gradient-3" x1="-130.15" y1="-258.63" x2="-117.22" y2="-266.09" xlink:href="#linear-gradient-2"/><linearGradient id="linear-gradient-4" x1="-137.89" y1="-241.25" x2="-125.38" y2="-231.33" xlink:href="#linear-gradient-2"/><linearGradient id="linear-gradient-5" x1="-209.08" y1="-250.34" x2="-219.54" y2="-260.79" xlink:href="#linear-gradient-2"/></defs><g id="g939"><path id="path2289" class="cls-1" d="m48.86,83.14l-.04,17.13c1.8,13.69,15.84,10.19,20.31,9.13-1.98-2.46-7.53-8.04-1.62-15.78,9.19-12.07,18.48-18.72,36.26-22.13-12.1-2.6-28.01-.06-55.46,12.48l.56-.83h0Z"/><path id="path2343" class="cls-4" d="m48.59,86.38c-11.24,6.9-17.09,11.06-33.91,21.09-1.78,1.06-4.93,2.68-3.31,5.24.86,1.36,6.62-.32,9.29-2.02,11.85-7.56,22.17-13.9,28.07-18.15l-.13-6.17h0Z"/><rect id="rect868" class="cls-3" x="47.76" y="66.19" width="1.75" height="62.4"/><path id="path2383" class="cls-5" d="m141.96,99.55c23.82-22.63,42.05-33.67,54.15-36.74,6.85-1.74,2.81,1.18,1.66,2.2-3.65,3.27-16.16,11.42-21.27,14.89-3.65,2.48-14.22,9.94-34.6,29.57l.07-9.92h0Z"/><path id="path2397" class="cls-6" d="m141.57,88.78c9.22,13.3,15.84,25.14,36.82,43.77,4.42,3.92,4,7.05-3.42,3.9-6.91-2.93-23.23-17.34-33.6-36.45l.19-11.21h0Z"/><rect id="rect870" class="cls-3" x="140.68" y="66.19" width="1.75" height="62.4"/><path id="path872" class="cls-3" d="m48.93,99.46c12.9-12.37,36.9-27.22,48.5-27.22,9.6,0,19.28,8.29,26.88,18.46l16.95,25.66v-14.58l-11.12-16.43c-8.14-8.71-17.19-15.64-32.71-15.64s-29.85,6.39-48.5,16.91c0,0,0,12.85,0,12.85Z"/><path id="path874" class="cls-3" d="m48.93,115.47l.22,9.4c8.71,4.76,12.68,5.12,17.82,5.12,12.89,0,25.3-2.37,41.29-15.33,13.43-10.89,22.32-20,33.4-29.97l-.11-8.81c-13.14,10.95-33.95,28.97-47.08,38.34-6.96,4.97-16.6,13.24-27.5,13.24-5.2,0-8.69-1.06-18.05-12h0Z"/><path id="path2367" class="cls-2" d="m43.41,118.31c-2.03,2.19-8.62-.49-11.48-2.83-5.69-4.67-10.85-11.12-26.32-27.78C-1.6,79.93.05,79.32.44,78.64c4.95-1.4,9.92,4.68,13.53,8.77,14.45,16.39,21.59,23.09,23.78,24.66,3.94,2.83,6.9,4.21,5.66,6.24h0Z"/></g></svg>