<?xml version="1.0" encoding="UTF-8"?><svg id="Layer_1" xmlns="http://www.w3.org/2000/svg" viewBox="0 0 200 200"><defs><style>.cls-1{stroke-width:0px;}</style></defs><path class="cls-1" d="m129.23,157.99h49.62c.04-.54.11-.98.11-1.43,0-5.32.05-10.64,0-15.96-.08-6.65-4.73-11.46-11.41-11.55-8.99-.13-17.98-.1-26.97,0-5.77.06-11,4.19-11.26,9.32-.34,6.48-.08,12.99-.08,19.62m-20.81,41.63c-.05-.86-.14-1.72-.14-2.58,0-18.62.22-37.25-.08-55.87-.26-16.74,11.62-29.83,26.48-32.36,1.89-.32,3.83-.54,5.75-.55,9.06-.06,18.13-.08,27.19-.01,15.2.11,27.86,10.04,31.36,24.61.53,2.24.75,4.6.75,6.91.06,19.42.03,38.85.03,58.27,0,.53-.09,1.05-.13,1.58h-20.8v-20.63h-49.61v20.63h-20.8Z"/><path class="cls-1" d="m0,.38h20.82v2.48c0,18.57,0,37.13,0,55.7,0,7.65,4.79,12.44,12.45,12.45,8.4,0,16.8,0,25.2,0,7.54,0,12.34-4.81,12.34-12.32V.52h20.81v1.84c0,19.56.03,39.13-.01,58.69-.04,15.06-12.91,29.41-28.02,30.25-11.95.66-23.99.61-35.95-.02-13.38-.7-25.78-13.38-27.26-26.69-.06-.52-.25-1.02-.38-1.53V.38Z"/><path class="cls-1" d="m0,137.33c.94-3.29,1.47-6.76,2.88-9.83,5.59-12.13,15.2-18.94,28.61-19.17,19.66-.35,39.34-.09,59-.09.26,0,.53.03.95.06v20.72h-2.27c-18.67,0-37.33,0-56,0-7.52,0-12.35,4.82-12.36,12.34-.01,8.38-.01,16.77,0,25.15.01,7.55,4.8,12.34,12.32,12.34h58.48v20.76H28.41c-.23-.11-.46-.28-.7-.32-12.85-2.04-21.32-9.38-25.84-21.39-.9-2.38-1.26-4.96-1.86-7.44v-33.14Z"/><path class="cls-1" d="m129.12,57.04v34.62h-20.74V.52h20.69v34.42c4.81-3.76,9.24-7.23,13.66-10.7,9.74-7.63,19.47-15.28,29.22-22.89.54-.42,1.25-.9,1.89-.9,8.51-.06,17.03-.04,25.73.34-19.15,15.03-38.31,30.07-57.56,45.18,19.28,15.23,38.39,30.33,57.99,45.81h-10.13c-5.07,0-10.13.04-15.2-.04-.9-.01-1.96-.38-2.66-.94-13.92-10.92-27.81-21.9-41.7-32.86-.25-.2-.51-.39-1.18-.9"/></svg>