<?xml version="1.0" encoding="UTF-8"?><svg id="Layer_1" xmlns="http://www.w3.org/2000/svg" viewBox="0 0 200 200"><defs><style>.cls-1{fill:#df0223;}.cls-1,.cls-2{stroke-width:0px;}.cls-2{fill:#6b6f6f;}</style></defs><path class="cls-2" d="m25.08,106.36c.32-.75.64-1.49.96-2.24,2.95-7,6.81-13.52,10.61-20.07,4.15-7.16,8.28-14.32,12.4-21.49.29-.51.6-.7,1.2-.7,6.45.03,12.9.02,19.35.02h.7c.13.32-.12.5-.23.7-14.11,24.97-28.23,49.93-42.33,74.9-.29.52-.6.7-1.2.7-5.31-.03-10.63-.03-15.94,0-.69,0-.91-.21-.99-.87-.51-4.22-1.06-8.44-1.6-12.65-.64-4.98-1.28-9.97-1.92-14.95-.59-4.62-1.19-9.25-1.79-13.87-.6-4.7-1.21-9.4-1.81-14.1-.59-4.57-1.17-9.15-1.75-13.72-.24-1.84-.45-3.68-.72-5.52-.07-.47-.01-.63.51-.62,6.71.02,13.41.02,20.12,0,.52,0,.63.19.68.66.59,5.79,1.23,11.58,1.8,17.38.61,6.21,1.42,12.39,1.85,18.62.18,2.6.11,5.21.1,7.85Z"/><path class="cls-1" d="m88.51,121.1c-3.15,2.2-6.13,4.61-9.09,7.05-1.13.94-2.25,1.89-3.34,2.88-.4.36-.51.26-.76-.15-1.52-2.5-3.07-4.99-4.75-7.4-.18-.31-.35-.63-.55-.93-2.64-4.03-5.3-8.05-7.91-12.09-.96-1.49-2.06-2.9-2.86-4.49h0c.28.02.47-.18.68-.31,3.69-2.4,7.39-4.79,11.06-7.22.59-.39.87-.44,1.29.26,1.83,3.07,3.74,6.1,5.62,9.14,1.74,2.86,3.48,5.71,5.21,8.57.17.29.31.33.59.1,1.49-1.23,2.99-2.44,4.48-3.66.13-.08.27-.14.4-.24,5.69-4.29,11.64-8.14,18.19-11.01,4.45-2.18,8.99-4.15,13.68-5.77,1.38-.48,2.76-.95,4.14-1.43.2-.05.4-.08.6-.14,3.79-1.18,7.61-2.21,11.48-3.07,2.86-.63,5.74-1.2,8.61-1.8,2.77-.43,5.54-.88,8.31-1.27,2.4-.34,4.8-.6,7.2-.9.2-.03.4-.09.6-.13.39-.01.77,0,1.16-.04,3.89-.42,7.78-.72,11.69-.91,2.34-.11,4.68-.22,7.02-.33,4.22-.1,8.45-.16,12.68-.08,1.8.03,3.61.12,5.41.15.57,0,.76.13.62.75-.99,4.55-1.95,9.1-2.89,13.66-.11.55-.32.63-.81.59-5.42-.42-10.86-.54-16.29-.74-.59-.02-1.18-.01-1.78-.02-2.37-.06-4.74-.13-7.11-.18-1.68-.04-3.35,0-5.03-.07-2.47-.09-4.95-.09-7.42-.04-4.12-.03-8.23.02-12.33.36-1.15.1-2.3.21-3.45.32-.15,0-.31,0-.46,0-4.1.31-8.18.84-12.24,1.49-2.54.41-5.07.84-7.56,1.49-4.61.93-8.97,2.55-13.16,4.66-.68.34-1.36.7-2.04,1.04-2.62,1.32-5.17,2.78-7.67,4.32-3.84,2.36-7.61,4.83-11.2,7.56Z"/><path class="cls-2" d="m106.76,101.61c-6.55,2.87-12.5,6.72-18.19,11.01-.12.09-.26.16-.4.24-.09-1.39-.2-2.77-.28-4.16-.2-3.55-.41-7.1-.57-10.65-.12-2.55-.31-5.09-.11-7.65.14-1.79.33-3.57.55-5.4-.25.13-.26.32-.32.48-.73,2.12-1.59,4.19-2.42,6.26-2.19,5.45-4.76,10.73-7.12,16.1-1.88-3.04-3.78-6.07-5.62-9.14-.41-.69-.69-.65-1.29-.26-3.67,2.43-7.37,4.82-11.06,7.22-.21.14-.4.33-.68.32.82-1.86,1.86-3.61,2.81-5.4,6.68-12.52,13.39-25.03,20.05-37.56.48-.9.99-1.19,2-1.18,6.09.05,12.17.04,18.26.01.63,0,.8.18.85.81.41,4.9.88,9.8,1.32,14.71.33,3.67.65,7.34.99,11.01.4,4.41.82,8.83,1.23,13.24Z"/><path class="cls-2" d="m158.63,99.84c2.47-.06,4.95-.06,7.42.04,1.67.06,3.35.03,5.03.07,2.37.05,4.74.12,7.11.18-1,4.76-2,9.52-3.01,14.27-1.64,7.7-3.29,15.4-4.91,23.1-.11.53-.32.65-.81.65-6.06-.01-12.12-.02-18.17,0-.66,0-.76-.16-.62-.79,2.66-12.43,5.3-24.86,7.95-37.29.02-.08.02-.15.02-.23Z"/><path class="cls-2" d="m122.58,103.52c2.49-.64,5.02-1.08,7.56-1.49,4.06-.65,8.14-1.18,12.24-1.49.15-.01.31,0,.46,0-.89,4.26-1.78,8.51-2.68,12.77-1.68,7.93-3.39,15.86-5.05,23.79-.17.84-.48,1.08-1.34,1.08-5.9-.04-11.81-.03-17.72,0-.65,0-.81-.1-.66-.8,2.39-11.1,4.74-22.2,7.1-33.3.04-.18.05-.36.07-.54Z"/><path class="cls-2" d="m145.27,89.41c-2.87.6-5.75,1.16-8.61,1.8-3.87.86-7.7,1.89-11.48,3.07-.2.06-.4.09-.6.14.82-3.93,1.64-7.85,2.47-11.78,1.43-6.72,2.87-13.43,4.28-20.16.11-.54.33-.63.81-.63,6.08.01,12.17.01,18.25,0,.53,0,.7.06.57.67-1.89,8.75-3.74,17.51-5.61,26.27-.04.2-.06.41-.09.61Z"/><path class="cls-2" d="m59.26,105.98c.8,1.59,1.9,3,2.86,4.49,2.62,4.04,5.28,8.06,7.91,12.09.2.3.37.62.55.93-2.28,4.65-4.57,9.29-6.83,13.95-.26.54-.56.73-1.16.72-6.6-.02-13.21-.02-19.81,0-.56,0-.82,0-.45-.67,5.57-10.37,11.11-20.76,16.66-31.14.07-.13.18-.24.27-.36Z"/><path class="cls-2" d="m181.25,85.82c-2.34.11-4.68.22-7.02.33-3.91.18-7.8.49-11.69.91-.38.04-.77.03-1.16.04.75-3.58,1.49-7.15,2.24-10.73.96-4.53,1.95-9.05,2.88-13.59.15-.75.44-.95,1.19-.94,5.95.03,11.91.03,17.86,0,.7,0,.77.16.63.8-1.66,7.72-3.3,15.45-4.94,23.17Z"/><path class="cls-2" d="m88.51,121.1c3.59-2.73,7.35-5.2,11.2-7.56,2.5-1.54,5.05-3,7.67-4.32.26,2.74.53,5.49.78,8.23.4,4.31.79,8.62,1.18,12.93.22,2.39.43,4.77.66,7.16.05.5-.12.61-.59.6-6.42-.01-12.84-.02-19.27,0-.66,0-.63-.38-.65-.78-.18-3.01-.35-6.02-.53-9.03-.15-2.42-.3-4.84-.45-7.25Z"/></svg>