<?xml version="1.0" encoding="UTF-8"?><svg id="Layer_1" xmlns="http://www.w3.org/2000/svg" viewBox="0 0 200 200"><defs><style>.cls-1{fill:#8f8f8f;stroke:#8f8f8f;stroke-miterlimit:10;stroke-width:3px;}</style></defs><path class="cls-1" d="M73.38,17.02l18.64,30.74-13.77-33.86-4.87,3.12Zm21.77,38.4l-23.54-38.81,7.26-4.65,.3,.73,17.14,42.15-1.16,.59Zm-47.38,2.3l-5.89-9.63c-.51-1.13-1.97-4.68-1.18-6.14l.67-1.24,.51,1.32c.99,2.59,2.06,4.78,4.17,9.14,.79,1.63,1.73,3.56,2.86,5.93l-1.14,.62Zm-5.14-18.64c1.33,4.08,11.22,24.73,11.32,24.94l.85,1.35c-3.47-8.87-9.3-24.29-10.23-29.97-1.05,1.12-1.7,2.35-1.94,3.67m8.48-9.22c-1.15,.5-3.12,1.43-4.12,2.8-.7,2.43,12.07,37.8,17.46,46.76,.31,.68,1.57,2.73,2.9,4.84-6.15-16.27-14.39-44.13-16.24-54.4m19.38,61.06c-.11,0-.29-.14-.52-.4l-.07,.03-.09-.17s-.03-.07-.04-.1c-1.91-2.31-6.43-10.17-6.47-10.26-4.14-6.89-17.16-40.32-17.51-47.07l-.04,1.09c-.15,4.06,8.33,26.19,12.84,37.33l-1.15,.59-4.62-7.31c-.46-.94-10.32-21.54-11.47-25.34l-.04-.14,.02-.14c.32-2.03,1.48-3.94,3.36-5.51l1.1-.92c0-.33,.06-.56,.16-.7,1.3-1.79,3.76-2.85,4.94-3.36,.19-.08,.34-.14,.44-.2l.79-.39,.14,.87c1.72,10.75,12.48,46.58,18.75,61.04l.13,.3-.08,.42-.19,.33h-.38ZM81.2,12.19l22.28,54.83,16.99,27.75L86.58,8.77l-5.38,3.42Zm42.05,89.64l-20.93-34.22L79.59,11.68l7.63-4.85,.29,.73,36.91,93.69-1.16,.58Zm12.1-32.51l14.49,36.1,5.51-3.4-20-32.7Zm13.86,38.02l-.29-.72-17.66-44.03,1.16-.58,24.72,40.44-7.93,4.89Zm-74.07-11.87s2.93,4.49,5.65,8.7c-7.17-20.36-17.47-55.07-20.57-75.47-.37-.16-.89-.35-2.01-.35-1.02,0-2.36,.16-3.99,.49-.02,4.22,12.38,41.81,20.92,66.64m7.71,14.34c-2.79-4.43-8.81-13.68-8.87-13.77-.13-.31-5.86-16.98-11.26-33.55-11.12-34.08-10.12-34.48-9.25-34.84,2.02-.42,3.54-.62,4.74-.62,1.51,0,2.2,.31,2.65,.51l.53,.22,.06,.37c3.32,22.24,15.44,62.07,22.56,81.09l-1.16,.58ZM108.37,25.22l33.98,84.79,4.08-2.51-23.53-58.38-14.52-23.91Zm33.34,86.72l-.28-.71L104.23,18.39l1.16-.58,18.66,30.74,24,59.5-6.33,3.9ZM90.31,6.59l42.33,108.08,.58,.96,5.91-3.63L98.1,8.38l-2.95-4.81-4.84,3.02Zm42.48,110.84l-1.32-2.18L88.7,6.06l6.87-4.29,3.69,6.03,41.48,104.75-7.96,4.89Zm-108.62-9.46c-.03,4.98,1.01,9.84,2.98,16.06-.45-4.68-1.45-10.99-2.98-16.06m3.29,21.14c-3.53-10.27-5.18-16.89-4.41-24.55l1.25-.18c2.99,7.48,4.45,19.75,4.42,24.52l-1.26,.21Zm74.24-34.78c1.47,6.53,5.12,20,12.87,35.2,3.2-2.27,3.15-5.2,3.11-5.79l-15.98-29.42Zm12.36,37.07l-.32-.62c-11.23-21.78-14.13-40.25-14.16-40.43l1.21-.41,18.16,33.51c.03,.18,.61,4.6-4.3,7.58l-.6,.36Zm-23.06-56.64c2.19,14.49,8.2,33.44,17.9,56.39,.34,.79,.58,1.36,.74,1.77,.89-.39,1.84-.91,2.42-1.46-1.96-4.1-12.48-26.74-14.27-44.02-1.12-2.25-4.6-8.68-6.79-12.69m18.5,59.63l-.33-.59-.54,.11c-.05-.17-.46-1.14-.93-2.26-10.54-24.93-16.75-45.19-18.45-60.2l1.21-.39c1.12,2.02,7.11,12.99,8.54,15.9l.07,.22c1.8,17.76,13.06,41.43,14.34,44.07l.18,.37-.24,.35c-.96,1.2-3.01,2.08-3.84,2.4M63.6,29.69c1.72,8.92,17.76,72.5,25.58,86.22,.58,.8,3.2,4.8,5.58,8.47-8.01-19.9-21.31-60.6-21.75-81.9-.95-2.23-5.46-9.76-5.53-9.88,0,0-1.67-1.92-3.88-2.9m37.81,103.92c.47,.17,1.6,.49,3.21,.49,.81,0,1.63-.08,2.45-.24-11.54-25.03-17.88-45.87-19.94-65.49-1-2.31-7.02-13.3-10.07-18.77,4.88,33.02,22.81,80.02,24.34,84m3.21,1.8c-2.43,0-3.92-.66-3.98-.7l-.24-.11-.09-.25c-.03-.07-.45-1.16-1.17-3.06l-.33,.65-.71-.02-.27-.38c-.56-.91-8.62-13.39-9.74-14.94-8.66-15.18-26.07-85.26-25.94-87.94l.04-.81,.78,.22c3.09,.87,5.46,3.64,5.56,3.76,.25,.41,4.84,8.06,5.72,10.25l.05,.23c.44,24.11,17.7,73.63,24.68,88.62l.05,.09c-4.56-12.19-20.08-55.12-23.72-84.62l1.21-.41c1.01,1.72,10.66,19.12,11.84,21.96l.05,.18c2.06,19.7,8.47,40.64,20.18,65.91l.33,.72-.77,.19c-1.19,.3-2.38,.45-3.54,.45m-74.99-2.02c1.54,4.15,2.92,7.74,4.82,11.27,.65-29.81-6.44-47.36-10.43-54.81-.3,3.29-.27,9.37,.08,10.16,3.2,5.38,7.91,21.58,5.53,33.38m5.98,15.83l-1.13-1.88c-2.61-4.35-4.25-8.59-6.13-13.68l-.07-.17,.04-.18c2.4-11.49-2.21-27.38-5.36-32.68-.7-1.36-.51-10.98,.09-12.92l.43-1.42,.75,1.28c4.76,8.11,12.59,26.63,11.45,59.46l-.08,2.2Zm99.84-30.19c2.42,3.87,16.64,26.61,19.55,31.78,.61,.98,1.77,1.49,3.42,1.49,5.5,0,13.96-5.41,16.76-10.72,1.3-2.46,1.32-4.64,.07-6.49-1.38-2.54-15.42-25.69-17.79-29.6l-22.01,13.54Zm22.97,34.57h0c-2.1,0-3.67-.73-4.54-2.12-3.17-5.63-19.72-32.05-19.89-32.32l-.35-.56,.56-.35,23.69-14.58,.34,.56c.68,1.12,16.64,27.42,18.13,30.16,1.49,2.19,1.49,4.9-.03,7.78-3.04,5.76-11.91,11.41-17.91,11.41m-82.46-35.54c5,14.17,6.91,26.43,6.63,33.05,2.3-2.13,5.99-5.72,7.44-7.58-5.53-14.16-9.69-20.18-14.07-25.47m5.01,36.27l.2-1.71c.63-5.31-.9-19.69-7.7-37.55l1.1-.66c5.44,6.35,10.13,11.83,16.8,28.98l.13,.33-.21,.29c-1.67,2.3-7.29,7.61-9.04,9.17l-1.28,1.15Zm-18.62-51.13c7.32,15.93,11.44,41.76,10.26,55.33,3.44-2.23,5.6-3.64,7.04-4.8-.15-14.87-6.65-35.66-9.12-41.12-1.39-2.41-4.98-6.39-8.18-9.42m8.66,57.93l.17-1.38c1.68-13.8-3.06-43.18-11.47-58.96l.99-.81c3.16,2.62,8.89,8.41,10.99,12.05,2.55,5.61,9.2,26.93,9.27,42.01v.31l-.24,.2c-1.5,1.26-3.75,2.72-7.47,5.13l-2.24,1.45Zm-33.77-11.14c1.72,3.78,5.36,8.63,7.26,10.97,1.02-25.53-6.65-61.86-14.46-78.12-.6-.44-2.99-1.29-4.94-1.53-.11,.94-.25,2.2-.27,3.95,12.08,19.17,13.77,53.82,12.41,64.72m8.39,14.22l-1.04-1.12c-1-1.08-6.43-7.83-8.61-12.73l-.07-.17,.02-.18c1.39-10.59-.22-45.24-12.29-64.2l-.1-.16v-.19c0-2.05,.17-3.46,.3-4.48l.12-1.05,.61,.03c2.27,.11,5.67,1.25,6.46,1.99l.14,.19c8.06,16.69,16,54.68,14.56,80.53l-.09,1.53Zm1.7-72.71c11.72,25.17,15.75,61.08,13.6,72.75,2.14-.76,5-2.02,7.77-3.43,.75-3.43-1-34.92-12.47-62.57-1.54-1.98-6.01-4.92-8.9-6.75m11.8,74.7l.29-1.13c2.64-10.1-1.67-49.62-14.22-75.01l-1.01-2.04,2.15,1.33c2.69,1.66,9,5.56,10.99,8.18l.08,.14c12.18,29.29,13.4,61.61,12.44,63.86l-.09,.22-.21,.1c-3.46,1.78-6.93,3.28-9.29,4.01l-1.12,.34Zm-11.79-1.77c1.73,2.07,2.82,2.9,3.23,3.18,.78-.2,3.27-.84,6.26-1.74,2.8-18.01-2.63-48.07-13.9-76.83-2.99-1.77-4.89-2.69-6.73-3.58-.57-.27-1.12-.54-1.7-.83,10.09,25.44,15.69,60.04,12.84,79.8m3.06,4.56l-.2-.1c-.15-.07-1.49-.75-4.04-3.85l-.19-.22,.04-.29c2.98-19.93-2.89-55.53-13.37-81.03l-.69-1.68,1.6,.86c1.16,.63,2.17,1.12,3.22,1.62,1.91,.92,3.88,1.87,7.02,3.75l.19,.11,.08,.21c11.48,29.23,16.97,59.89,13.99,78.12l-.07,.4-.39,.12c-3.83,1.17-6.94,1.92-6.97,1.93l-.22,.05Zm53.92-30.57c2.96,4.8,13.29,21.79,14.14,23.35,.56,1.02,.16,2.55-.31,4.33-.42,1.61-.9,3.44-.36,4.32,.1,.17,.32,.53,.63,1.05,.81,1.36,2.32,3.89,3.94,6.42,.66,.94,1.84,1.43,3.47,1.43,6.06,0,16.87-6.84,20.27-12.85,1.05-1.85,1.25-3.35,.58-4.48-1.72-2.86-3.87-6.32-4.22-6.88-.55-.85-2.18-1.22-3.76-1.57-1.8-.41-3.51-.78-4.27-1.96-1.12-1.73-10.85-18.09-13.82-23.14-2.18,4.53-10.58,9.99-15.97,9.99-.1,0-.21,0-.31,0m21.51,42.21c-2.08,0-3.61-.68-4.55-2.02-1.65-2.58-3.16-5.11-3.98-6.47-.3-.51-.51-.87-.62-1.04-.83-1.36-.3-3.38,.21-5.34,.34-1.31,.73-2.8,.42-3.37-.96-1.78-14.33-23.73-14.84-24.47l-1.05-1.55,1.78,.56c.41,.13,.89,.19,1.43,.19,5.41,0,14.48-6.19,15.17-10.35l.3-1.79,.91,1.57c1.03,1.78,13.23,22.34,14.51,24.31,.48,.73,2,1.07,3.47,1.4,1.83,.41,3.72,.83,4.57,2.15,.36,.57,2.52,4.04,4.25,6.91,.91,1.54,.71,3.54-.57,5.79-3.65,6.45-14.86,13.52-21.4,13.52m-60.68-14.1c2.21,3.63,13.42,22.13,17.28,28.52,.82,1.43,2.2,2.15,4.13,2.15,4.65,0,11.52-4.36,13.87-8.8,.64-1.21,1.2-2.95,.22-4.39-1.94-3.13-9.58-15.51-14.26-23.11l-3.34-5.41c-8.95,6.58-15.79,10.05-17.89,11.05m21.41,31.97c-2.39,0-4.21-.96-5.25-2.79-4.29-7.09-17.66-29.12-17.66-29.12l-.39-.64,.68-.29c.08-.04,7.94-3.5,18.88-11.63l.57-.42,4.08,6.62c4.69,7.59,12.33,19.98,14.25,23.08,1.05,1.55,1,3.53-.16,5.71-2.58,4.89-9.88,9.49-15.02,9.49"/></svg>