<?xml version="1.0" encoding="UTF-8"?><svg id="Layer_1" xmlns="http://www.w3.org/2000/svg" viewBox="0 0 200 200"><defs><style>.cls-1{fill:#8f8f8f;stroke:#8f8f8f;stroke-miterlimit:10;stroke-width:4.4px;}</style></defs><path class="cls-1" d="M121.68,198.12c-2.27,0-4.84-1.7-6.46-4.47-1.22-2.1-1.62-4.43-1.06-6.22,.36-1.15,1.06-2.01,2.05-2.49,.18-.09,.37-.16,.56-.22,.17-.47,.43-.9,.78-1.26,.04-.24,.11-.48,.21-.7,.05-.12,.1-.23,.16-.34-.02-.13-.02-.26-.02-.4,0-.5,.12-.99,.36-1.45-.08-.15-.14-.3-.19-.45-.08-.26-.12-.52-.13-.78-.41-.31-.75-.69-.98-1.13-.32-.6-.43-1.26-.34-1.96-.68-.35-1.22-.85-1.55-1.48-.08-.14-.14-.28-.2-.43-.86-.02-1.62-.18-2.2-.51l-.29-.16-.15-.29c-.25-.49-2.33-4.98-5.71-12.27-3.76-8.12-8.02-17.32-8.96-19.24-1.4-2.86,.98-5.71,2.2-6.92-4.83-10.49-9.96-21.23-14.5-30.72-3-6.27-5.73-11.99-7.93-16.71-3.96-9.5-12.14-11.98-18.53-10.27-5.57,1.51-10.7,6.7-9.86,14.95l3.85,1.85-1.67,14.07-.34,.28c-.17,.14-4.11,3.39-7.46,1.35-.29-.24-.69-.59-7.73-11.3l-.48-.73,3.17-3.45c-2.09-14.66,7.77-23,16.95-25.7,10.49-3.07,24.28-.22,29.23,11.12,3.17,5.95,14.39,27.3,25.42,51.24,1.72-.16,5.51-.13,6.65,2.44,1.29,2.88,14.01,30.67,14.48,31.63l.06,.16c.39,1.24-.7,2.43-1.47,3.11,.28,.58,.38,1.21,.29,1.88,.7,.35,1.23,.85,1.56,1.47,.34,.64,.44,1.35,.31,2.1,.87,.49,1.47,1.18,1.73,2,.27,.86,.16,1.79-.33,2.7-.13,.24-.28,.47-.45,.7,.81,.74,1.24,1.63,1.23,2.59,0,1.06-.54,2.02-1.47,2.81,.57,1.03,.67,2.11,.27,3.07-.45,1.06-1.42,1.83-2.73,2.27,.23,1.42-.14,2.71-1.08,3.57-.82,.75-2,1.12-3.28,1.04-.23,1.52-1.02,2.7-2.24,3.29-.55,.26-1.14,.39-1.75,.39Zm-4.98-10.8c-.18,.2-.31,.45-.4,.76-.37,1.19-.04,2.89,.86,4.44,1.54,2.65,4.05,3.81,5.3,3.19,.69-.33,.93-1.06,1-1.69-1.27-.42-2.58-1.16-3.75-2.18-1.56-1.34-2.63-2.97-3.01-4.53Zm2.25-.27c.33,1.03,1.13,2.15,2.23,3.1,2.43,2.11,5.26,2.53,6.26,1.6,.44-.4,.47-1,.39-1.52-1.3,.06-2.82-.11-4.34-.57-1.88-.58-3.47-1.51-4.54-2.61Zm1.73-1.43c.8,.77,2.04,1.46,3.46,1.9,3.14,.96,6.04,.36,6.54-.82,.14-.34,.05-.72-.12-1.05-1.29,.56-2.89,.89-4.64,.93-1.96,.07-3.82-.29-5.24-.97Zm-.5-3.31c.06,.19,.2,.39,.4,.58,.97,.95,3.02,1.53,5.28,1.46,3.61-.08,5.83-1.62,5.84-2.68,0-.34-.22-.69-.63-1.02-1.06,.75-2.39,1.37-3.88,1.79-2.73,.76-5.27,.66-7-.13Zm1.02-2c1.11,.47,3.06,.63,5.38-.03,2.16-.6,3.97-1.76,4.61-2.95,.2-.36,.25-.69,.17-.96-.07-.22-.25-.43-.51-.61-.94,1.33-2.53,2.54-4.48,3.41-1.82,.8-3.7,1.14-5.17,1.13Zm-2.36-3.46c.01,.11,.05,.22,.1,.31,.51,.97,3.23,1.42,6.52-.03,2.01-.89,3.59-2.27,4.02-3.5,.13-.38,.13-.7,0-.96-.1-.19-.26-.33-.44-.44-.94,1.37-2.55,2.63-4.57,3.51-2,.89-3.96,1.24-5.63,1.1Zm-1.46-2.76c.95,.71,3.37,.85,6.19-.39,2.01-.89,3.59-2.26,4.02-3.5,.06-.18,.1-.34,.1-.49-2.74,1.8-6.88,3.71-10.31,4.38Zm-3.33-2.08c1.12,.36,3.78-.02,7.6-1.64,4.33-1.84,6.87-3.88,7.24-4.63-1.37-2.93-13.16-28.69-14.39-31.46-.58-1.29-3.75-1.26-5.12-1.04l-.84,.13-.35-.77c-11.11-24.18-22.51-45.86-25.74-51.93-4.47-10.24-17.03-12.76-26.58-9.94-8.82,2.59-17.47,10.18-15.29,23.73l.09,.54-2.72,2.95c2.45,3.73,5.98,9.04,6.69,9.97,1.56,.81,3.58-.42,4.37-.98l1.37-11.56-3.51-1.68-.08-.6c-1.34-9.94,4.77-16.21,11.42-18.01,7.09-1.92,16.71,.87,21.16,11.52,2.18,4.67,4.91,10.38,7.9,16.64,4.65,9.73,9.93,20.76,14.86,31.5l.36,.79-.67,.55s-3.26,2.75-2.26,4.79c.96,1.94,5.22,11.16,8.99,19.29,2.48,5.35,4.84,10.44,5.5,11.83Zm40.79,3.94c-2.78,0-4.93-1.03-5.51-2.85-.08-.26-.17-.52-.2-.82-.39-.29-.7-.66-.92-1.08-.31-.57-.42-1.34-.4-1.99-.66-.35-1.17-.83-1.5-1.44-.07-.13-.12-.25-.18-.36-.86-.02-1.58-.21-2.09-.61l-.3-.38c-.18-.36-1.72-3.63-3.86-8.17-4.88-10.36-13.06-27.72-14.59-30.7-1.52-2.92-.53-5.62,.5-7.08-4.04-7.83-44.46-84.66-87.94-110.13v-.02s-.54-.1-.54-.1l.57-1.91c.47-1.75,1-3.73,4.68-5.84l.62-.36,.59,.42c2.31,1.65,7,2.61,11.15,3.46,5.35,1.1,8.69,1.86,9.75,3.6,.3,.49,.4,1.04,.3,1.59,1.64,4.55,6.89,10.02,14.09,17.52,14.39,14.99,38.44,40.04,60.09,86.6,1.16,.07,3.14,.61,4.45,3.22,.2,.39,19.64,38.78,20.07,39.71,.53,1.16-.74,2.15-1.27,2.56-.33,.26-.79,.58-1.37,.94,.08,.44,.08,.9-.01,1.39,.64,.34,1.36,.88,1.69,1.52,.32,.61,.42,1.3,.31,2.01,.82,.47,1.46,1.21,1.73,2.06,.27,.86,.15,1.79-.33,2.69-.94,1.74-3.18,3.26-5.98,4.05-1.26,.35-2.49,.52-3.61,.52Zm-2.35-2.64c1.11,.46,3.03,.61,5.35-.04,2.16-.61,3.97-1.77,4.61-2.96,.19-.36,.25-.68,.16-.94-.06-.2-.21-.4-.39-.56-.84,1.27-2.27,2.42-4.09,3.27-1.88,.87-3.81,1.24-5.65,1.23Zm-2.38-4.16c.02,.09,.05,.16,.08,.22,.52,.81,3.23,1.19,6.53-.03,2.01-.74,3.58-1.9,4.02-2.94,.13-.32,.13-.59,0-.8-.06-.09-.23-.2-.42-.32-.67,.73-1.53,1.36-2.5,1.9-.63,.39-1.33,.72-2.08,1-1.36,.51-2.72,.8-3.97,.91-.59,.06-1.15,.09-1.66,.06Zm-1.39-2.01c.58,.37,1.63,.58,2.93,.43,1.43-.22,3.24-.82,4.75-1.77,1.27-.88,2.01-1.9,2.3-2.67-.49,.24-1.06,.52-1.7,.83-2.11,1.05-4.5,2.08-6.69,2.74-.55,.18-1.08,.33-1.59,.45Zm-3.12-2.03c.24,.08,.8,.16,1.95-.03,.42-.07,.87-.17,1.34-.29,2.39-.68,5.56-2.08,7.92-3.22,2.19-1.14,3.97-2.26,4.61-2.87-1.97-3.94-15.92-31.5-19.81-39.17-1.1-2.19-2.76-2.01-2.97-1.99l-.83,.13-.37-.76c-21.57-46.65-44.69-70.72-59.98-86.66-7.21-7.5-12.18-12.68-14.23-17.42-1.82,.55-5.9,.69-15.8-.83-1.28-.18-2.5-.37-3.62-.55,44.28,29.77,83.91,107.86,84.31,108.67l.36,.71-.55,.57c-.08,.09-2.11,2.29-.63,5.14,1.55,3.03,9.74,20.4,14.63,30.78,1.83,3.89,3.23,6.85,3.69,7.81ZM47.39,9.69c4.12,.59,8.92,1.08,12.17,1.12,1.68,0,2.56-.17,3.01-.3-.97-.9-5.38-1.8-8.11-2.36-4.24-.87-8.61-1.77-11.37-3.42-2.11,1.34-2.59,2.47-2.94,3.71,2.73,.51,5.13,.92,7.24,1.25Zm99.73,153.8c-.55-1.12-13.43-27.39-15.61-32.38-2.31-4.76-3.1-7.85-2.39-9.41,.32-.71,.84-.92,1.04-.98l.6,2.16c.31-.09,.4-.26,.4-.26-.01,.01-.6,1.4,2.38,7.56,2.18,4.99,15.46,32.06,15.59,32.33l-2.01,.99Z"/></svg>