<?xml version="1.0" encoding="UTF-8"?><svg id="Layer_1" xmlns="http://www.w3.org/2000/svg" viewBox="0 0 200 200"><defs><style>.cls-1{fill:#8f8f8f;stroke:#8f8f8f;stroke-miterlimit:10;stroke-width:4px;}</style></defs><g><path class="cls-1" d="M48.29,194.15L1.48,149.1V68.37L136.07,27.94l61.78,15.48-2.05,76.41-1.62,.81L48.29,194.15ZM7.53,146.52l41.87,40.3L189.83,116.05l1.83-67.94-55.45-13.89L7.53,72.87v73.65Z"/><polygon class="cls-1" points="48.74 103.8 2.94 73.24 6.3 68.2 49.52 97.04 193.59 42.86 195.73 48.52 48.74 103.8"/><rect class="cls-1" x="3.68" y="142.18" width="90.08" height="6.05" transform="translate(-96.57 193.67) rotate(-89.9)"/></g><rect class="cls-1" x="128.31" y="70.14" width="6.05" height="79.07"/><rect class="cls-1" x="65.96" y="104.94" width="42.54" height="6.05" transform="translate(-33.59 39.64) rotate(-21.58)"/><rect class="cls-1" x="146.76" y="72.15" width="36.3" height="6.05" transform="translate(-16.24 69.71) rotate(-22.78)"/></svg>