<?xml version="1.0" encoding="utf-8"?>
<!-- Generator: Adobe Illustrator 27.9.0, SVG Export Plug-In . SVG Version: 6.00 Build 0)  -->
<!DOCTYPE svg PUBLIC "-//W3C//DTD SVG 1.1//EN" "http://www.w3.org/Graphics/SVG/1.1/DTD/svg11.dtd" [
	<!ENTITY ns_extend "http://ns.adobe.com/Extensibility/1.0/">
	<!ENTITY ns_ai "http://ns.adobe.com/AdobeIllustrator/10.0/">
	<!ENTITY ns_graphs "http://ns.adobe.com/Graphs/1.0/">
	<!ENTITY ns_vars "http://ns.adobe.com/Variables/1.0/">
	<!ENTITY ns_imrep "http://ns.adobe.com/ImageReplacement/1.0/">
	<!ENTITY ns_sfw "http://ns.adobe.com/SaveForWeb/1.0/">
	<!ENTITY ns_custom "http://ns.adobe.com/GenericCustomNamespace/1.0/">
	<!ENTITY ns_adobe_xpath "http://ns.adobe.com/XPath/1.0/">
]>
<svg version="1.1" id="Layer_1" xmlns:x="&ns_extend;" xmlns:i="&ns_ai;" xmlns:graph="&ns_graphs;"
	 xmlns="http://www.w3.org/2000/svg" xmlns:xlink="http://www.w3.org/1999/xlink" x="0px" y="0px" width="200px" height="200px"
	 viewBox="0 0 200 200" style="enable-background:new 0 0 200 200;" xml:space="preserve">
<metadata>
	<sfw  xmlns="&ns_sfw;">
		<slices></slices>
		<sliceSourceBounds  bottomLeftOrigin="true" height="190" width="104" x="48" y="5"></sliceSourceBounds>
	</sfw>
</metadata>
<path d="M151.1,10.2c0-0.1,0-0.3,0-0.4c0,0,0.1,0,0.1-0.1c0,0,0,0,0-0.1c0-0.1,0-0.2-0.1-0.2c0,0,0,0,0,0C150.5,7,147.6,5,144.2,5
	H54.8c-3.2,0-5.3,1.6-6,4.4c-0.1,0-0.1,0.1-0.1,0.2c0,0,0,0,0,0.1c-0.1,0.5-0.1,1-0.1,1.5c0,0.6-1.8,58.1,0.3,101.3
	c0.3,6.2,5.4,7.4,14.1,7.4h20c0.1,0,3.4,0.1,3.4,3.3c0,3.2-0.5,19.8-0.6,21.4l-4.1,2.4v5.1c0,0.1,0,1.3,1.4,1.9l0.1,29.4
	c0,0.1,2.1,11.3,14.3,11.7c0.2,0,0.4,0,0.6,0c13,0,15.9-11.5,16-11.7l0.1-29.3c1.4-0.7,1.4-1.9,1.4-1.9v-5.1l-4.1-2.4
	c0-1-0.3-8.4-0.4-14.3c0.9-0.1,3.3-0.2,4.3-0.2c0.2,0,0.3-0.1,0.4-0.2c0.1-0.1,0.2-0.3,0.2-0.4l0-3.8c0-0.2-0.1-0.3-0.2-0.4
	c-0.1-0.1-0.3-0.2-0.4-0.2c-0.6,0-1.7,0-2.8,0c-0.6,0-1.1,0-1.6,0c0-0.7,0-1.5,0-1.9c0-3.1,3.3-3.3,3.4-3.3h25c2.3,0,7.3-0.7,10-3.5
	c1.2-1.2,1.8-2.7,1.7-4.3C152.3,84,152.4,19.3,151.1,10.2z"/>
</svg>
