<?xml version="1.0" encoding="utf-8"?>
<!-- Generator: Adobe Illustrator 27.9.0, SVG Export Plug-In . SVG Version: 6.00 Build 0)  -->
<!DOCTYPE svg PUBLIC "-//W3C//DTD SVG 1.1//EN" "http://www.w3.org/Graphics/SVG/1.1/DTD/svg11.dtd" [
	<!ENTITY ns_extend "http://ns.adobe.com/Extensibility/1.0/">
	<!ENTITY ns_ai "http://ns.adobe.com/AdobeIllustrator/10.0/">
	<!ENTITY ns_graphs "http://ns.adobe.com/Graphs/1.0/">
	<!ENTITY ns_vars "http://ns.adobe.com/Variables/1.0/">
	<!ENTITY ns_imrep "http://ns.adobe.com/ImageReplacement/1.0/">
	<!ENTITY ns_sfw "http://ns.adobe.com/SaveForWeb/1.0/">
	<!ENTITY ns_custom "http://ns.adobe.com/GenericCustomNamespace/1.0/">
	<!ENTITY ns_adobe_xpath "http://ns.adobe.com/XPath/1.0/">
]>
<svg version="1.1" id="Layer_1" xmlns:x="&ns_extend;" xmlns:i="&ns_ai;" xmlns:graph="&ns_graphs;"
	 xmlns="http://www.w3.org/2000/svg" xmlns:xlink="http://www.w3.org/1999/xlink" x="0px" y="0px" width="200px" height="200px"
	 viewBox="0 0 200 200" style="enable-background:new 0 0 200 200;" xml:space="preserve">
<metadata>
	<sfw  xmlns="&ns_sfw;">
		<slices></slices>
		<sliceSourceBounds  bottomLeftOrigin="true" height="190" width="88.9" x="55.6" y="5"></sliceSourceBounds>
	</sfw>
</metadata>
<path d="M143.4,39.6c0,0-1.4-3.9-2.4-6c-1.1-2.1-3.8-3-3.9-3l-20.7-3.4l0-6l-0.1,0c0,0-0.3,0-0.8-0.1L115.1,10c0,0-0.1-0.4-0.3-0.9
	c0-0.1,0-0.1-0.1-0.2c-0.5-1.3-1.8-3.4-4.7-3.7c-4.1-0.5-20.8,0-21,0c0,0-4.3,0.2-5.4,4.8l-0.3,11.2c-0.2,0-0.4,0-0.7,0.1l-0.1,0
	v0.1c0,0.1,0,0.2,0,0.3v5.4c-2.2,0.3-18.4,2.7-20.8,3.4c-2.7,0.7-4.2,3.8-4.7,5.1c-0.6,1.4-1.5,5.3-1.5,5.5l0,0v147.5
	c0,2.1,0.6,3.6,1.7,4.7c1.7,1.6,4,1.4,4,1.4c0.7,0,72.1,0.4,77.2,0.4c5.3,0,5.9-5.7,5.9-5.7c0-1.4-0.1-140.5,0-144
	C144.5,41.6,143.4,39.7,143.4,39.6z M55.9,41.4l-0.2,0c0-0.1-0.1-0.7,0.7-1.7c-0.1,0.3-0.1,0.5-0.2,0.7C55.9,41,55.9,41.4,55.9,41.4
	z"/>
</svg>
