<?xml version="1.0" encoding="utf-8"?>
<!-- Generator: Adobe Illustrator 27.9.0, SVG Export Plug-In . SVG Version: 6.00 Build 0)  -->
<!DOCTYPE svg PUBLIC "-//W3C//DTD SVG 1.1//EN" "http://www.w3.org/Graphics/SVG/1.1/DTD/svg11.dtd" [
	<!ENTITY ns_extend "http://ns.adobe.com/Extensibility/1.0/">
	<!ENTITY ns_ai "http://ns.adobe.com/AdobeIllustrator/10.0/">
	<!ENTITY ns_graphs "http://ns.adobe.com/Graphs/1.0/">
	<!ENTITY ns_vars "http://ns.adobe.com/Variables/1.0/">
	<!ENTITY ns_imrep "http://ns.adobe.com/ImageReplacement/1.0/">
	<!ENTITY ns_sfw "http://ns.adobe.com/SaveForWeb/1.0/">
	<!ENTITY ns_custom "http://ns.adobe.com/GenericCustomNamespace/1.0/">
	<!ENTITY ns_adobe_xpath "http://ns.adobe.com/XPath/1.0/">
]>
<svg version="1.1" id="Layer_1" xmlns:x="&ns_extend;" xmlns:i="&ns_ai;" xmlns:graph="&ns_graphs;"
	 xmlns="http://www.w3.org/2000/svg" xmlns:xlink="http://www.w3.org/1999/xlink" x="0px" y="0px" width="200px" height="200px"
	 viewBox="0 0 200 200" style="enable-background:new 0 0 200 200;" xml:space="preserve">
<metadata>
	<sfw  xmlns="&ns_sfw;">
		<slices></slices>
		<sliceSourceBounds  bottomLeftOrigin="true" height="190" width="84.9" x="57.6" y="5"></sliceSourceBounds>
	</sfw>
</metadata>
<path d="M142.2,59c0-0.4-0.6-9.4-1.8-12.2c-1.2-2.9-17.7-17.4-18.4-18c0,0-2.1-2.3-5.1-2.1l0-4.9l-0.1,0c0,0-0.3,0-0.8-0.1
	l-0.4-11.5c0,0-0.1-0.4-0.3-0.9c0-0.1,0-0.1-0.1-0.2c-0.5-1.3-1.8-3.5-4.8-3.8c-4.2-0.5-21.4,0-21.6,0c0,0-4.5,0.2-5.6,4.9
	l-0.3,11.5c-0.2,0-0.5,0-0.7,0.1l-0.1,0v0.1c0,0.1,0,0.2,0,0.3v4.5c-0.5,0.1-2.9,0.8-3.7,1.8c-0.3,0.3-2.1,2-4.3,4.1
	c-4.5,4.2-11.4,10.6-13.9,13.6l0,0.1c-0.1,0.3-0.2,0.6-0.3,1c-0.8,2.9-2.4,8.3-2.4,12l0,127.3c0,0.1,1.1,7.5,7.5,8.2
	c2.1,0.2,10.3,0.3,20.3,0.3c19.8,0,46.7-0.3,47.1-0.3c0.1,0,9-0.1,9.7-6.3C142.8,182.3,142.2,60.3,142.2,59z"/>
</svg>
