<?xml version="1.0" encoding="utf-8"?>
<!-- Generator: Adobe Illustrator 27.8.1, SVG Export Plug-In . SVG Version: 6.00 Build 0)  -->
<!DOCTYPE svg PUBLIC "-//W3C//DTD SVG 1.1//EN" "http://www.w3.org/Graphics/SVG/1.1/DTD/svg11.dtd" [
	<!ENTITY ns_extend "http://ns.adobe.com/Extensibility/1.0/">
	<!ENTITY ns_ai "http://ns.adobe.com/AdobeIllustrator/10.0/">
	<!ENTITY ns_graphs "http://ns.adobe.com/Graphs/1.0/">
	<!ENTITY ns_vars "http://ns.adobe.com/Variables/1.0/">
	<!ENTITY ns_imrep "http://ns.adobe.com/ImageReplacement/1.0/">
	<!ENTITY ns_sfw "http://ns.adobe.com/SaveForWeb/1.0/">
	<!ENTITY ns_custom "http://ns.adobe.com/GenericCustomNamespace/1.0/">
	<!ENTITY ns_adobe_xpath "http://ns.adobe.com/XPath/1.0/">
]>
<svg version="1.1" id="Layer_1" xmlns:x="&ns_extend;" xmlns:i="&ns_ai;" xmlns:graph="&ns_graphs;"
	 xmlns="http://www.w3.org/2000/svg" xmlns:xlink="http://www.w3.org/1999/xlink" x="0px" y="0px" width="76.3636px" height="70px"
	 viewBox="0 0 76.3636 70" style="enable-background:new 0 0 76.3636 70;" xml:space="preserve">
<style type="text/css">
	.st0{clip-path:url(#SVGID_00000160871384581759802560000016265675089514060192_);fill:#FFFFFF;}
	.st1{clip-path:url(#SVGID_00000160871384581759802560000016265675089514060192_);fill:#FF6600;}
</style>
<metadata>
	<sfw  xmlns="&ns_sfw;">
		<slices></slices>
		<sliceSourceBounds  bottomLeftOrigin="true" height="67.326" width="59.7016" x="120.0629" y="-183.5751"></sliceSourceBounds>
	</sfw>
</metadata>
<g>
	<defs>
		<rect id="SVGID_1_" x="8.3313" y="1.337" width="59.701" height="67.326"/>
	</defs>
	<clipPath id="SVGID_00000160185809920767299090000014246167957462313901_">
		<use xlink:href="#SVGID_1_"  style="overflow:visible;"/>
	</clipPath>
	<path style="clip-path:url(#SVGID_00000160185809920767299090000014246167957462313901_);fill:#FFFFFF;" d="M16.96,25.8585
		c1.451-0.03,2.538-1.172,2.545-2.71c0.01-3.683,0.007-7.362,0-11.045c0-0.707-0.269-1.057-0.788-1.064
		c-0.528-0.01-0.798,0.333-0.801,1.04c-0.003,1.798,0,3.595,0,5.39c0,1.336,0.01,2.673-0.003,4.009
		c-0.01,0.801-0.492,1.266-1.165,1.162c-0.545-0.085-0.818-0.478-0.818-1.232c0-3.155,0.02-6.313,0.01-9.467
		c-0.003-1.192,0.461-2.094,1.538-2.606c1.088-0.518,2.121-0.377,3.071,0.388c0.141,0.114,0.39,0.191,0.565,0.154
		c0.445-0.09,0.875-0.252,1.364-0.4v-0.004c-1.037-1.686-2.959-2.447-4.831-1.969c-1.929,0.492-3.276,2.131-3.303,4.232
		c-0.047,3.834-0.033,7.669-0.006,11.506C14.348,24.7875,15.509,25.8885,16.96,25.8585"/>
	<path style="clip-path:url(#SVGID_00000160185809920767299090000014246167957462313901_);fill:#FFFFFF;" d="M12.1692,23.3898
		l0.118-0.043v-8.574c-1.235,0.151-2.195,1.31-1.899,2.478C10.9102,19.3138,11.5662,21.3468,12.1692,23.3898"/>
	<path style="clip-path:url(#SVGID_00000160185809920767299090000014246167957462313901_);fill:#FFFFFF;" d="M57.7683,48.3965
		c-2.552,0.771-5.104,1.552-7.659,2.323c-6.736,2.04-13.476,4.08-20.215,6.114c-0.889,0.269-1.529-0.182-1.455-0.993
		c0.051-0.552,0.428-0.754,0.906-0.899c3.935-1.189,7.867-2.387,11.799-3.582c5.336-1.619,10.669-3.239,16.004-4.855
		c0.926-0.279,1.583,0.098,1.566,1C58.6943,47.9965,58.2833,48.2425,57.7683,48.3965 M26.7933,50.7235
		c-0.128-0.505,0.128-0.987,0.694-1.168c1.185-0.384,2.38-0.738,3.571-1.098c8.097-2.457,16.196-4.915,24.293-7.372
		c0.188-0.058,0.377-0.125,0.569-0.155c0.609-0.091,1.148,0.373,1.151,0.888l0.003,0.004c-0.03,0.761-0.505,0.989-1.063,1.158
		c-3.057,0.922-6.111,1.851-9.167,2.777c-6.046,1.835-12.096,3.666-18.142,5.498c-0.229,0.07-0.461,0.148-0.697,0.188
		C27.3893,51.5545,26.9313,51.2785,26.7933,50.7235 M25.1743,45.3775c-0.222-0.674,0.135-1.125,1.134-1.428
		c9.056-2.747,18.115-5.497,27.174-8.241c0.293-0.087,0.59-0.185,0.889-0.208c0.579-0.048,1.029,0.376,1.047,0.998
		c0-0.001,0-0.001,0-0.002v0.003v-0.001c-0.018,0.567-0.425,0.833-0.973,1.001c-2.72,0.822-5.437,1.653-8.157,2.478
		c-6.463,1.959-12.927,3.915-19.394,5.874C25.9283,46.1445,25.3763,45.9935,25.1743,45.3775 M24.5583,40.5765
		c-0.61-0.023-0.953-0.273-1.067-0.751c-0.122-0.511,0.08-0.929,0.569-1.124c0.548-0.215,1.121-0.367,1.686-0.539
		c8.743-2.652,17.489-5.302,26.232-7.955c0.976-0.296,1.518-0.151,1.723,0.465c0.226,0.677-0.134,1.131-1.128,1.434
		c-9.035,2.74-18.074,5.481-27.11,8.221C25.1303,40.4285,24.7903,40.5125,24.5583,40.5765 M30.4903,18.6945
		c0.141-0.121,0.252-0.394,0.225-0.569c-0.162-0.956,0.088-1.562,0.788-1.77c0.69-0.209,1.229,0.138,1.629,1.04
		c0.017,0.037,0.054,0.07,0.061,0.081h0.01c0.626,0.043,1.242,0.023,1.835,0.138c0.791,0.154,1.141,0.73,0.986,1.43
		c-0.162,0.741-0.646,0.966-1.478,0.929c-0.677-0.03-1.38,0.085-2.04,0.253c-0.512,0.131-0.845,0.535-0.774,1.141
		c0.074,0.616,0.444,0.939,1.03,1.013c0.757,0.098,1.521,0.152,2.282,0.236c1.785,0.202,2.912,1.195,3.411,2.905
		c0.488,1.663,0.225,3.111-1.219,4.232c-0.138,0.108-0.205,0.407-0.179,0.599c0.112,0.775-0.181,1.357-0.845,1.562
		c-0.616,0.192-1.255-0.111-1.511-0.804c-0.138-0.377-0.36-0.374-0.68-0.435c-0.717-0.138-1.454-0.292-2.114-0.592
		c-0.579-0.263-0.822-0.838-0.647-1.498c0.209-0.795,0.896-1.104,1.633-0.673c0.785,0.457,1.559,0.535,2.384,0.191
		c0.558-0.232,0.989-0.585,0.946-1.265c-0.044-0.69-0.246-1.32-0.96-1.579c-0.404-0.148-0.848-0.195-1.279-0.256
		c-0.65-0.091-1.306-0.125-1.953-0.236c-1.467-0.252-2.279-1.208-2.636-2.592C29.0393,20.7955,29.3923,19.6305,30.4903,18.6945
		 M52.3583,5.3905c-0.542-1.781-1.68-2.38-3.471-1.838c-0.565,0.172-1.124,0.363-1.7,0.502c-0.412,0.098-3.355,1.023-3.888,1.191
		c-1.189,0.374-2.387,0.727-3.579,1.088c-5.925,1.797-11.85,3.592-17.775,5.389c-0.144,0.044-0.286,0.105-0.461,0.169v11.112
		c-0.003,2.202-1.154,3.919-3.067,4.589c-1.922,0.676-3.854,0.054-5.248-1.683c-0.054-0.064-0.114-0.125-0.293-0.314
		c0.105,0.404,0.162,0.65,0.233,0.889c1.461,4.814,2.925,9.628,4.389,14.442c0.058,0.189,0.132,0.377,0.145,0.573
		c0.037,0.521-0.202,0.892-0.703,1.053c-0.485,0.158-0.872-0.027-1.118-0.447c-0.131-0.223-0.192-0.485-0.266-0.738
		c-1.656-5.443-3.309-10.883-4.966-16.327c-0.053-0.182-0.117-0.357-0.286-0.525v39.276c0,2.023,0.859,2.889,2.868,2.889h37.873
		c1.808,0,2.417-0.448,2.932-2.168c0.116-0.387,0.015-3.367,0.004-3.821c-0.021-0.721-0.004-1.441-0.004-2.256l0.004-0.01
		c-2.603,0.788-5.09,1.545-7.582,2.299c-6.154,1.865-12.307,3.734-18.465,5.592c-2.673,0.808-4.931-0.401-5.746-3.073
		c-1.737-5.713-3.461-11.43-5.191-17.146c-0.037-0.124-0.088-0.249-0.111-0.377c-0.122-0.616,0.148-1.111,0.666-1.249
		c0.546-0.145,1.027,0.108,1.226,0.707c0.309,0.933,0.582,1.882,0.868,2.821c1.475,4.855,2.946,9.712,4.424,14.567
		c0.528,1.73,1.636,2.34,3.366,1.818c10.847-3.279,21.687-6.565,32.53-9.851c1.38-0.417,2.764-0.828,4.144-1.259
		c1.633-0.508,2.259-1.676,1.768-3.295C61.3733,35.1165,56.8663,20.2535,52.3583,5.3905"/>
	<path style="clip-path:url(#SVGID_00000160185809920767299090000014246167957462313901_);fill:#FF6600;" d="M12.2875,14.773v8.574
		l-0.118,0.043v0.001h-0.003l0.003-0.001c-0.603-2.043-1.259-4.076-1.781-6.14C10.0925,16.082,11.0515,14.924,12.2875,14.773
		 M14.3445,11.736c0.027-2.1,1.373-3.74,3.302-4.231c1.872-0.478,3.794,0.282,4.831,1.969v0.003
		c-0.488,0.148-0.919,0.31-1.363,0.401c-0.175,0.037-0.424-0.04-0.566-0.155c-0.949-0.764-1.983-0.905-3.07-0.387
		c-1.077,0.512-1.542,1.414-1.538,2.606c0.01,3.154-0.011,6.312-0.011,9.466c0,0.754,0.273,1.148,0.818,1.232
		c0.674,0.105,1.155-0.36,1.165-1.161c0.014-1.337,0.004-2.673,0.004-4.01c0-1.794-0.004-3.592,0-5.389
		c0.003-0.707,0.272-1.051,0.801-1.041c0.518,0.007,0.788,0.357,0.788,1.064c0.006,3.683,0.01,7.363,0,11.046
		c-0.007,1.538-1.095,2.679-2.545,2.71c-1.451,0.03-2.613-1.071-2.623-2.616C14.3105,19.405,14.2975,15.571,14.3445,11.736
		 M55.1895,63.785c-0.559-0.135-1.04,0.155-1.212,0.727c-0.515,1.72-1.124,2.168-2.932,2.168h-37.873
		c-2.009,0-2.868-0.865-2.868-2.888V25.195v-0.68c0.168,0.169,0.232,0.344,0.286,0.525c1.656,5.444,3.309,10.884,4.966,16.328
		c0.074,0.252,0.134,0.515,0.266,0.737c0.245,0.421,0.633,0.606,1.117,0.448c0.502-0.162,0.741-0.532,0.704-1.054
		c-0.014-0.195-0.088-0.384-0.145-0.572c-1.464-4.814-2.929-9.628-4.39-14.442c-0.07-0.239-0.128-0.485-0.232-0.889
		c0.178,0.188,0.239,0.249,0.293,0.313c1.394,1.737,3.326,2.36,5.248,1.683c1.912-0.67,3.064-2.387,3.067-4.588v-5.262v-5.851
		c0.175-0.064,0.316-0.124,0.461-0.168c5.925-1.798,11.85-3.592,17.775-5.39c1.192-0.36,2.39-0.714,3.579-1.087
		c0.66-0.209,0.959-0.744,0.774-1.306c-0.175-0.529-0.7-0.765-1.35-0.603c-0.188,0.047-0.374,0.118-0.562,0.175
		c-5.696,1.73-11.392,3.451-17.082,5.194c-0.454,0.142-0.656,0.054-0.942-0.333c-0.475-0.646-1.003-1.299-1.646-1.761
		c-2.057-1.477-4.309-1.676-6.578-0.552c-2.377,1.179-3.528,3.199-3.572,5.831c-0.007,0.545-0.175,0.764-0.687,0.892
		c-1.431,0.36-2.471,1.236-2.979,2.623c-0.219,0.599-0.317,1.279-0.317,1.925c-0.023,8.834-0.023,17.664-0.023,26.498
		c-0.004,6.773-0.007,13.543,0,20.316c0.003,2.178,1.198,3.767,3.272,4.383c0.098,0.031,0.188,0.088,0.283,0.135h40.495
		c0.219-0.084,0.437-0.168,0.66-0.252c1.585-0.6,2.535-1.744,2.858-3.401C56.0245,64.404,55.7115,63.91,55.1895,63.785"/>
	<polygon style="clip-path:url(#SVGID_00000160185809920767299090000014246167957462313901_);fill:#FF6600;" points="
		12.1696,23.3909 12.1696,23.3899 12.1666,23.3909 	"/>
	<path style="clip-path:url(#SVGID_00000160185809920767299090000014246167957462313901_);fill:#FF6600;" d="M58.7714,19.7248
		c-1.515-5.003-3.04-10.005-4.545-15.011c-0.538-1.794-1.656-2.962-3.524-3.309c-1.546-0.283-2.922,0.38-4.306,0.902
		c-0.434,0.165-0.559,0.663-0.37,1.134c0.208,0.516,0.622,0.741,1.161,0.613c0.576-0.138,1.135-0.33,1.7-0.501
		c1.791-0.542,2.929,0.057,3.471,1.838c4.508,14.863,9.015,29.725,13.52,44.588c0.491,1.62-0.135,2.788-1.768,3.296
		c-1.38,0.431-2.764,0.842-4.144,1.259c-10.843,3.286-21.683,6.571-32.53,9.85c-1.73,0.522-2.838-0.087-3.366-1.817
		c-1.478-4.855-2.949-9.713-4.424-14.567c-0.286-0.939-0.559-1.889-0.868-2.821c-0.199-0.599-0.68-0.852-1.226-0.707
		c-0.518,0.138-0.788,0.633-0.666,1.249c0.023,0.128,0.074,0.252,0.111,0.377c1.73,5.716,3.454,11.432,5.191,17.145
		c0.814,2.673,3.073,3.882,5.746,3.074c6.158-1.859,12.311-3.727,18.465-5.592c2.491-0.754,4.979-1.511,7.582-2.299l-0.004,0.01
		c0,0.815-0.017,1.535,0.004,2.255c0.016,0.653,0.43,1.057,1.016,1.044c0.566-0.013,0.936-0.397,0.953-1.034
		c0.017-0.747,0.044-1.494-0.007-2.235c-0.037-0.528,0.189-0.707,0.65-0.845c2.77-0.821,5.538-1.643,8.292-2.511
		c2.46-0.778,3.672-3.027,2.932-5.488C64.8144,39.6538,61.7874,29.6898,58.7714,19.7248"/>
	<path style="clip-path:url(#SVGID_00000160185809920767299090000014246167957462313901_);fill:#FF6600;" d="M29.3957,22.1756
		c0.357,1.384,1.168,2.34,2.636,2.592c0.646,0.111,1.303,0.145,1.952,0.236c0.431,0.06,0.876,0.108,1.28,0.256
		c0.713,0.259,0.915,0.888,0.959,1.579c0.044,0.68-0.387,1.033-0.946,1.265c-0.825,0.344-1.599,0.266-2.383-0.192
		c-0.738-0.43-1.424-0.121-1.633,0.674c-0.175,0.66,0.067,1.235,0.646,1.498c0.66,0.299,1.397,0.454,2.115,0.592
		c0.319,0.061,0.542,0.058,0.679,0.435c0.256,0.693,0.896,0.996,1.512,0.804c0.663-0.205,0.956-0.788,0.845-1.562
		c-0.027-0.192,0.04-0.491,0.178-0.599c1.445-1.121,1.707-2.569,1.219-4.232c-0.498-1.71-1.626-2.703-3.41-2.905
		c-0.761-0.084-1.525-0.138-2.283-0.236c-0.585-0.074-0.956-0.397-1.03-1.013c-0.07-0.606,0.263-1.01,0.775-1.141
		c0.659-0.168,1.363-0.283,2.04-0.253c0.831,0.037,1.316-0.188,1.478-0.929c0.154-0.7-0.196-1.276-0.987-1.431
		c-0.592-0.114-1.208-0.094-1.835-0.138h-0.01c-0.006-0.01-0.043-0.043-0.06-0.08c-0.401-0.903-0.939-1.249-1.63-1.041
		c-0.7,0.209-0.949,0.815-0.787,1.771c0.027,0.175-0.085,0.448-0.226,0.569C29.3927,19.6306,29.0387,20.7956,29.3957,22.1756"/>
	<path style="clip-path:url(#SVGID_00000160185809920767299090000014246167957462313901_);fill:#FF6600;" d="M55.92,40.9301
		c-0.192,0.03-0.38,0.098-0.569,0.155c-8.096,2.457-16.196,4.915-24.292,7.372c-1.192,0.361-2.387,0.714-3.572,1.098
		c-0.566,0.182-0.821,0.663-0.694,1.168c0.138,0.555,0.596,0.832,1.212,0.72c0.236-0.04,0.468-0.117,0.697-0.188
		c6.046-1.831,12.096-3.663,18.142-5.498c3.057-0.925,6.11-1.854,9.167-2.777c0.559-0.168,1.033-0.397,1.064-1.158l-0.004-0.003
		C57.068,41.3041,56.529,40.8391,55.92,40.9301"/>
	<path style="clip-path:url(#SVGID_00000160185809920767299090000014246167957462313901_);fill:#FF6600;" d="M51.9779,30.208
		c-8.743,2.653-17.489,5.302-26.231,7.955c-0.566,0.172-1.138,0.323-1.687,0.539c-0.488,0.195-0.69,0.612-0.569,1.124
		c0.115,0.478,0.458,0.727,1.067,0.751c0.233-0.064,0.572-0.148,0.906-0.249c9.035-2.741,18.074-5.481,27.11-8.221
		c0.993-0.303,1.353-0.758,1.128-1.434C53.4959,30.057,52.9539,29.912,51.9779,30.208"/>
	<polyline style="clip-path:url(#SVGID_00000160185809920767299090000014246167957462313901_);fill:#FF6600;" points="
		55.4184,36.4999 55.4184,36.4969 55.4184,36.4979 55.4184,36.4999 	"/>
	<path style="clip-path:url(#SVGID_00000160185809920767299090000014246167957462313901_);fill:#FF6600;" d="M54.3714,35.5
		c-0.3,0.024-0.596,0.121-0.889,0.209c-9.059,2.743-18.118,5.494-27.174,8.241c-1,0.303-1.356,0.754-1.134,1.427
		c0.202,0.616,0.754,0.768,1.72,0.475c6.467-1.959,12.931-3.915,19.394-5.875c2.72-0.824,5.437-1.656,8.157-2.477
		c0.548-0.168,0.955-0.434,0.973-1.002C55.4004,35.876,54.9494,35.453,54.3714,35.5"/>
	<path style="clip-path:url(#SVGID_00000160185809920767299090000014246167957462313901_);fill:#FF6600;" d="M29.3452,54.9413
		c-0.478,0.145-0.855,0.347-0.906,0.899c-0.074,0.811,0.566,1.262,1.455,0.993c6.739-2.033,13.479-4.074,20.215-6.114
		c2.555-0.77,5.107-1.551,7.659-2.322c0.515-0.155,0.926-0.401,0.946-0.892c0.017-0.903-0.64-1.28-1.565-1
		c-5.336,1.616-10.669,3.235-16.005,4.854C37.2122,52.5543,33.2802,53.7533,29.3452,54.9413"/>
</g>
</svg>
