<?xml version="1.0" encoding="utf-8"?>
<!-- Generator: Adobe Illustrator 27.8.1, SVG Export Plug-In . SVG Version: 6.00 Build 0)  -->
<!DOCTYPE svg PUBLIC "-//W3C//DTD SVG 1.1//EN" "http://www.w3.org/Graphics/SVG/1.1/DTD/svg11.dtd" [
	<!ENTITY ns_extend "http://ns.adobe.com/Extensibility/1.0/">
	<!ENTITY ns_ai "http://ns.adobe.com/AdobeIllustrator/10.0/">
	<!ENTITY ns_graphs "http://ns.adobe.com/Graphs/1.0/">
	<!ENTITY ns_vars "http://ns.adobe.com/Variables/1.0/">
	<!ENTITY ns_imrep "http://ns.adobe.com/ImageReplacement/1.0/">
	<!ENTITY ns_sfw "http://ns.adobe.com/SaveForWeb/1.0/">
	<!ENTITY ns_custom "http://ns.adobe.com/GenericCustomNamespace/1.0/">
	<!ENTITY ns_adobe_xpath "http://ns.adobe.com/XPath/1.0/">
]>
<svg version="1.1" id="Layer_1" xmlns:x="&ns_extend;" xmlns:i="&ns_ai;" xmlns:graph="&ns_graphs;"
	 xmlns="http://www.w3.org/2000/svg" xmlns:xlink="http://www.w3.org/1999/xlink" x="0px" y="0px" width="76.3636px" height="70px"
	 viewBox="0 0 76.3636 70" style="enable-background:new 0 0 76.3636 70;" xml:space="preserve">
<style type="text/css">
	.st0{clip-path:url(#SVGID_00000127747634636432676050000016941807841244736929_);fill:#FFFFFF;}
	.st1{clip-path:url(#SVGID_00000127747634636432676050000016941807841244736929_);fill:#FF6600;}
	.st2{fill:#FF6600;}
	.st3{clip-path:url(#SVGID_00000108300443710051388370000016250923429962967696_);fill:#FF6600;}
</style>
<metadata>
	<sfw  xmlns="&ns_sfw;">
		<slices></slices>
		<sliceSourceBounds  bottomLeftOrigin="true" height="61.866" width="60.0003" x="119.9134" y="-180.8451"></sliceSourceBounds>
	</sfw>
</metadata>
<g>
	<g>
		<defs>
			<rect id="SVGID_1_" x="8.1818" y="4.067" width="60" height="61.866"/>
		</defs>
		<clipPath id="SVGID_00000013192901997638958760000013489853537860043679_">
			<use xlink:href="#SVGID_1_"  style="overflow:visible;"/>
		</clipPath>
		<path style="clip-path:url(#SVGID_00000013192901997638958760000013489853537860043679_);fill:#FFFFFF;" d="M19.0866,21.7769
			c0.415,0.192,0.78,0.173,1.182-0.009c3.273-1.498,6.555-2.986,9.828-4.48c5.439-2.481,10.877-4.968,16.316-7.452
			c0.102-0.047,0.201-0.099,0.337-0.17c-0.099-0.056-0.158-0.096-0.223-0.124c-2.58-1.173-5.16-2.336-7.734-3.524
			c-0.433-0.201-0.804-0.179-1.225,0.013c-8.198,3.74-16.396,7.474-24.597,11.211c-0.616,0.281-1.228,0.566-1.893,0.872v0.003
			c0.124,0.065,0.185,0.102,0.25,0.13C13.9146,19.4229,16.5036,20.5889,19.0866,21.7769"/>
		<path style="clip-path:url(#SVGID_00000013192901997638958760000013489853537860043679_);fill:#FFFFFF;" d="M18.2545,46.5348
			c-1.469-0.656-2.93-1.33-4.393-1.998c-0.065-0.031-0.133-0.05-0.22-0.081v0.003c-0.012,0.078-0.03,0.13-0.03,0.186
			c0.006,1.148,0.037,2.298,0.009,3.443c-0.013,0.504,0.226,0.727,0.631,0.906c1.364,0.61,2.719,1.235,4.08,1.85
			c0.096,0.044,0.195,0.075,0.316,0.124c0.009-0.102,0.022-0.173,0.022-0.247v-3.422
			C18.6695,46.9708,18.6135,46.6958,18.2545,46.5348"/>
		<path style="clip-path:url(#SVGID_00000013192901997638958760000013489853537860043679_);fill:#FFFFFF;" d="M20.3423,52.0442
			c0,0.99-0.51,1.334-1.407,0.928c-2.107-0.952-4.208-1.915-6.314-2.871c-0.458-0.207-0.675-0.544-0.668-1.051
			c0.012-0.978,0.003-1.952,0.003-2.93h0.012c0-0.976-0.009-1.95,0.003-2.926c0.009-0.761,0.514-1.092,1.228-0.792
			c0.845,0.355,1.674,0.748,2.509,1.129c1.315,0.6,2.627,1.203,3.944,1.797c0.477,0.214,0.7,0.551,0.697,1.083
			C20.3333,48.2892,20.3423,50.1662,20.3423,52.0442 M36.7633,31.6702c-2.642-1.191-5.281-2.394-7.916-3.595
			c-0.601-0.272-1.201-0.544-1.835-0.835l-0.009,0.003c-0.022,0.223-0.05,0.393-0.05,0.566c-0.003,1.358,0,2.713,0,4.071
			c0,0.588,0.025,1.176-0.003,1.761c-0.037,0.758-0.535,1.067-1.247,0.804c-0.071-0.025-0.136-0.059-0.204-0.09
			c-0.863-0.396-1.726-0.792-2.589-1.188c-1.142-0.519-2.283-1.045-3.428-1.556c-0.482-0.213-0.705-0.575-0.696-1.092
			c0.006-0.356,0.022-0.711,0.022-1.067c0.006-1.813,0.009-3.623,0.018-5.435c0-0.356-0.145-0.591-0.47-0.737
			c-2.663-1.206-5.324-2.419-7.984-3.625c-0.146-0.065-0.307-0.103-0.501-0.164v0.362c0,10.286,0,20.569-0.01,30.855
			c0,0.513,0.195,0.804,0.653,1.011c6.212,2.822,12.415,5.655,18.623,8.48c2.639,1.2,5.278,2.397,7.92,3.595
			c0.083,0.037,0.176,0.065,0.297,0.108v-0.387c0-10.301,0-20.603,0.006-30.905C37.3603,32.1402,37.1903,31.8622,36.7633,31.6702"/>
		<path style="clip-path:url(#SVGID_00000013192901997638958760000013489853537860043679_);fill:#FFFFFF;" d="M24.8716,26.2688
			c-1.361-0.616-2.719-1.241-4.077-1.859c-0.087-0.04-0.18-0.074-0.285-0.118h-0.003c-0.009,0.087-0.019,0.143-0.019,0.198v5.337
			c0,0.259,0.112,0.433,0.35,0.544c1.404,0.64,2.809,1.284,4.213,1.924c0.062,0.028,0.13,0.044,0.217,0.071
			c0.006-0.105,0.012-0.179,0.012-0.253c0-1.736-0.006-3.474,0-5.21C25.2796,26.5878,25.1566,26.3988,24.8716,26.2688"/>
		<path style="clip-path:url(#SVGID_00000013192901997638958760000013489853537860043679_);fill:#FFFFFF;" d="M23.7177,22.0399
			c-0.637,0.291-1.275,0.582-1.977,0.903l0.003,0.003c0.149,0.084,0.229,0.137,0.316,0.177c1.144,0.532,2.298,1.048,3.437,1.599
			c0.424,0.204,0.804,0.201,1.228,0.006c3.858-1.769,7.718-3.529,11.579-5.293c4.866-2.221,9.733-4.445,14.599-6.666
			c0.093-0.044,0.179-0.096,0.303-0.164c-0.121-0.059-0.201-0.102-0.282-0.14c-1.085-0.501-2.181-0.99-3.257-1.512
			c-0.538-0.26-1.052-0.291-1.593-0.041c-0.69,0.319-1.38,0.635-2.073,0.95C38.5727,15.2559,31.1457,18.6459,23.7177,22.0399"/>
		<path style="clip-path:url(#SVGID_00000013192901997638958760000013489853537860043679_);fill:#FFFFFF;" d="M66.4832,19.7568
			c-0.006-0.08-0.028-0.158-0.049-0.272c-0.186,0.074-0.347,0.13-0.502,0.201c-8.764,3.991-17.525,7.984-26.289,11.969
			c-0.448,0.204-0.631,0.492-0.631,0.974c0.006,10.311,0.003,20.619,0.003,30.93v0.356c0.251-0.096,0.446-0.161,0.628-0.245
			c8.749-3.984,17.494-7.972,26.243-11.953c0.43-0.195,0.616-0.477,0.616-0.959c-0.01-10.218-0.01-20.436-0.01-30.655
			C66.4922,19.9888,66.4922,19.8708,66.4832,19.7568"/>
		<path style="clip-path:url(#SVGID_00000013192901997638958760000013489853537860043679_);fill:#FFFFFF;" d="M64.9859,18.2719
			c0.084-0.04,0.164-0.087,0.285-0.152c-0.223-0.111-0.396-0.204-0.576-0.287c-2.914-1.334-5.828-2.667-8.739-4.003
			c-0.48-0.22-0.931-0.192-1.405,0.024c-8.621,3.945-17.246,7.88-25.871,11.821c-0.139,0.065-0.278,0.133-0.484,0.231
			c0.223,0.114,0.38,0.203,0.543,0.276c2.892,1.318,5.791,2.627,8.677,3.963c0.538,0.251,0.999,0.241,1.531,0
			c3.827-1.757,7.666-3.493,11.499-5.24C55.2939,22.6959,60.1379,20.4839,64.9859,18.2719"/>
		<polygon style="clip-path:url(#SVGID_00000013192901997638958760000013489853537860043679_);fill:#FF6600;" points="
			28.1941,25.9068 28.1961,25.9058 28.1911,25.9038 		"/>
	</g>
	<polygon class="st2" points="38.1803,35.003 38.1833,35.003 38.1833,34.997 	"/>
	<g>
		<defs>
			<rect id="SVGID_00000183230830836487237060000013543984305430423205_" x="8.1818" y="4.067" width="60" height="61.866"/>
		</defs>
		<clipPath id="SVGID_00000166667028904589542820000007580539008419580317_">
			<use xlink:href="#SVGID_00000183230830836487237060000013543984305430423205_"  style="overflow:visible;"/>
		</clipPath>
		<path style="clip-path:url(#SVGID_00000166667028904589542820000007580539008419580317_);fill:#FF6600;" d="M65.8859,51.7161
			c-8.748,3.982-17.494,7.969-26.243,11.954c-0.182,0.083-0.377,0.148-0.628,0.244v0.003v-0.003v-0.355
			c0-10.311,0.004-20.619-0.003-30.93c0-0.483,0.183-0.77,0.631-0.974c8.765-3.985,17.526-7.979,26.29-11.969
			c0.154-0.072,0.315-0.127,0.501-0.202c0.021,0.115,0.043,0.192,0.049,0.273c0.01,0.114,0.01,0.232,0.01,0.346
			c0,10.218,0,20.436,0.009,30.654C66.5019,51.2401,66.3159,51.5221,65.8859,51.7161 M37.4159,30.1451
			c-2.886-1.336-5.785-2.645-8.677-3.963c-0.163-0.074-0.32-0.163-0.543-0.276c-0.001,0-0.001,0-0.002,0.001l-0.003-0.003
			c0.002,0,0.003,0.001,0.005,0.002c0.206-0.099,0.345-0.166,0.484-0.231c8.625-3.941,17.25-7.876,25.871-11.821
			c0.474-0.216,0.925-0.244,1.405-0.025c2.911,1.337,5.825,2.67,8.739,4.004c0.18,0.083,0.353,0.176,0.576,0.287
			c-0.121,0.065-0.201,0.112-0.285,0.152c-4.848,2.212-9.692,4.424-14.54,6.632c-3.833,1.748-7.672,3.484-11.499,5.241
			C38.4149,30.3861,37.9539,30.3961,37.4159,30.1451 M37.3539,63.5151v0.387c-0.12-0.043-0.213-0.071-0.297-0.108
			c-2.642-1.198-5.28-2.395-7.919-3.595c-6.209-2.824-12.412-5.658-18.624-8.48c-0.457-0.207-0.652-0.498-0.652-1.011
			c0.009-10.286,0.009-20.569,0.009-30.855v-0.362c0.195,0.062,0.356,0.099,0.501,0.164c2.661,1.206,5.321,2.419,7.985,3.625
			c0.324,0.146,0.47,0.381,0.47,0.737c-0.009,1.812-0.013,3.622-0.019,5.435c0,0.356-0.015,0.711-0.021,1.067
			c-0.01,0.517,0.213,0.879,0.696,1.092c1.144,0.511,2.286,1.037,3.427,1.556c0.863,0.396,1.727,0.792,2.59,1.188
			c0.068,0.031,0.133,0.065,0.204,0.09c0.711,0.263,1.209-0.046,1.247-0.804c0.027-0.585,0.003-1.173,0.003-1.761
			c0-1.358-0.003-2.713,0-4.071c0-0.173,0.027-0.343,0.049-0.566l0.009-0.003c0.635,0.291,1.235,0.563,1.835,0.835
			c2.636,1.201,5.274,2.404,7.916,3.595c0.427,0.192,0.597,0.47,0.597,0.941C37.3539,42.9121,37.3539,53.2141,37.3539,63.5151
			 M11.0769,18.1141c0.666-0.306,1.278-0.591,1.894-0.872c8.201-3.737,16.399-7.471,24.597-11.211
			c0.42-0.192,0.792-0.214,1.225-0.013c2.574,1.188,5.154,2.351,7.734,3.524c0.065,0.028,0.123,0.068,0.222,0.124
			c-0.136,0.071-0.235,0.123-0.337,0.17c-5.438,2.484-10.877,4.971-16.315,7.452c-3.273,1.494-6.556,2.982-9.829,4.48
			c-0.402,0.182-0.767,0.201-1.181,0.009c-2.583-1.188-5.173-2.354-7.759-3.53c-0.065-0.028-0.127-0.065-0.251-0.13V18.1141z
			 M25.2799,32.1121c0,0.075-0.006,0.149-0.012,0.254c-0.087-0.028-0.155-0.043-0.217-0.071c-1.404-0.64-2.809-1.284-4.213-1.924
			c-0.239-0.112-0.35-0.285-0.35-0.545v-5.336c0-0.056,0.009-0.111,0.019-0.198h0.003c0.105,0.043,0.198,0.077,0.284,0.117
			c1.358,0.619,2.716,1.244,4.078,1.86c0.284,0.13,0.408,0.318,0.408,0.634C25.2739,28.6381,25.2799,30.3771,25.2799,32.1121
			 M48.0729,10.9121c0.542-0.25,1.055-0.219,1.594,0.04c1.076,0.523,2.171,1.012,3.257,1.513c0.081,0.037,0.161,0.081,0.282,0.139
			c-0.124,0.068-0.211,0.121-0.303,0.164c-4.867,2.222-9.733,4.446-14.599,6.667c-3.861,1.763-7.722,3.524-11.579,5.293
			c-0.424,0.195-0.805,0.198-1.228-0.006c-1.139-0.551-2.293-1.067-3.437-1.599c-0.087-0.041-0.167-0.093-0.316-0.177l-0.003-0.003
			c0.702-0.322,1.339-0.612,1.977-0.903c7.427-3.394,14.855-6.784,22.283-10.178C46.6939,11.5461,47.3839,11.2311,48.0729,10.9121
			 M68.1599,34.9741h-0.003l0.003-0.006V34.9741h0.012v-16.532c0-0.752-0.157-0.981-0.844-1.247
			c-0.053-0.021-0.105-0.046-0.158-0.071c-2.088-0.953-4.179-1.906-6.268-2.858c-4.612-2.104-9.225-4.211-13.837-6.317
			c-2.682-1.225-5.364-2.451-8.043-3.682c-0.542-0.25-1.071-0.275-1.621-0.021c-1.943,0.897-3.889,1.785-5.835,2.672
			c-6.809,3.103-13.618,6.203-20.427,9.303c-0.714,0.325-1.432,0.64-2.137,0.984c-0.52,0.253-0.805,0.686-0.808,1.268
			c-0.006,1.315,0,2.629,0,3.944c0.003,5.17,0.006,10.342,0.006,15.514c-0.003,4.461-0.012,8.919-0.018,13.38
			c0,0.189,0.006,0.381,0.043,0.566c0.118,0.6,0.56,0.907,1.074,1.142c9.212,4.204,18.425,8.408,27.631,12.618
			c0.854,0.39,1.671,0.4,2.525-0.003c1.905-0.897,3.823-1.769,5.738-2.645c7.354-3.356,14.71-6.713,22.07-10.06
			c0.631-0.288,0.928-0.724,0.919-1.429c-0.025-1.714-0.022-3.425-0.022-5.139V34.9741z"/>
		<path style="clip-path:url(#SVGID_00000166667028904589542820000007580539008419580317_);fill:#FF6600;" d="M18.6688,50.7203
			c0,0.074-0.012,0.145-0.021,0.248c-0.121-0.05-0.22-0.081-0.316-0.124c-1.361-0.616-2.716-1.241-4.08-1.85
			c-0.406-0.18-0.644-0.402-0.631-0.907c0.027-1.144-0.004-2.295-0.01-3.443c0-0.055,0.019-0.108,0.031-0.185v-0.003
			c0.087,0.031,0.155,0.049,0.22,0.08c1.463,0.668,2.923,1.343,4.393,1.998c0.359,0.161,0.414,0.437,0.414,0.765V50.7203z
			 M19.6528,45.3283c-1.318-0.594-2.63-1.197-3.944-1.797c-0.836-0.381-1.665-0.774-2.509-1.13c-0.715-0.3-1.219,0.031-1.228,0.792
			c-0.013,0.977-0.003,1.95-0.003,2.927h0.003l-0.003,0.003v-0.003h-0.013c0,0.978,0.009,1.952-0.003,2.93
			c-0.006,0.507,0.21,0.844,0.668,1.051c2.107,0.956,4.208,1.918,6.314,2.871c0.897,0.405,1.408,0.062,1.408-0.928
			c0-1.878-0.009-3.755,0.006-5.633C20.3518,45.8793,20.1288,45.5413,19.6528,45.3283"/>
	</g>
	<polygon class="st2" points="38.1798,34.9985 38.1798,35.0015 38.1838,34.9985 	"/>
</g>
</svg>
