<?xml version="1.0" encoding="UTF-8"?><svg id="SSL_ILLUSTRATION" xmlns="http://www.w3.org/2000/svg" xmlns:xlink="http://www.w3.org/1999/xlink" viewBox="0 0 400 300"><defs><style>.cls-1{fill:#d1cbcb;}.cls-1,.cls-2,.cls-3,.cls-4,.cls-5,.cls-6,.cls-7,.cls-8,.cls-9,.cls-10,.cls-11,.cls-12,.cls-13,.cls-14,.cls-15,.cls-16,.cls-17,.cls-18,.cls-19,.cls-20,.cls-21,.cls-22,.cls-23,.cls-24,.cls-25,.cls-26,.cls-27,.cls-28,.cls-29,.cls-30,.cls-31,.cls-32,.cls-33,.cls-34,.cls-35,.cls-36{stroke-width:0px;}.cls-2{fill:#031f38;}.cls-3{fill:url(#linear-gradient);}.cls-4{fill:#2b85c2;}.cls-5{fill:#e5a03c;}.cls-6{fill:#0f3757;}.cls-7{fill:#f5c1ca;}.cls-8{fill:#f7f7f7;}.cls-9{fill:#242353;}.cls-10{fill:#0d72b9;}.cls-11{fill:#211c55;}.cls-12{fill:url(#linear-gradient-5);}.cls-37{opacity:.35;}.cls-13{fill:none;}.cls-14{fill:#dc8744;}.cls-15{fill:#1b1941;}.cls-16{fill:#e4e5ea;}.cls-17{fill:#f3b344;}.cls-18{fill:#ddd;}.cls-19{fill:#bfbfbf;}.cls-20{fill:#ffddb5;}.cls-21{fill:#000006;}.cls-22{fill:#3ca2e9;}.cls-23{fill:#fff;}.cls-24{fill:url(#linear-gradient-2);}.cls-25{fill:#0046a4;}.cls-26{fill:#f60;}.cls-27{fill:url(#linear-gradient-3);}.cls-28{fill:#f1f2f2;}.cls-38{clip-path:url(#clippath);}.cls-29{fill:#3ea5eb;}.cls-30{fill:#d37383;}.cls-31{fill:#f1f1f1;}.cls-32{fill:#141433;}.cls-33{fill:#3885c6;}.cls-34{fill:url(#linear-gradient-4);}.cls-35{fill:#252a6c;}.cls-36{fill:#322b7d;}</style><clipPath id="clippath"><rect class="cls-13" x="281.03" y="125.4" width="21.6" height="21.6" transform="translate(110.88 402.61) rotate(-80.83)"/></clipPath><linearGradient id="linear-gradient" x1="134.77" y1="114.17" x2="182.3" y2="114.17" gradientUnits="userSpaceOnUse"><stop offset="0" stop-color="#29a9e1"/><stop offset=".24" stop-color="#2a91d0"/><stop offset=".76" stop-color="#2d54a4"/><stop offset="1" stop-color="#2f368f"/></linearGradient><linearGradient id="linear-gradient-2" x1="199.8" y1="102.81" x2="231.1" y2="102.81" xlink:href="#linear-gradient"/><linearGradient id="linear-gradient-3" x1="199.49" y1="117" x2="210.31" y2="117" xlink:href="#linear-gradient"/><linearGradient id="linear-gradient-4" x1="220.57" y1="117.01" x2="231.4" y2="117.01" xlink:href="#linear-gradient"/><linearGradient id="linear-gradient-5" x1="200.33" y1="121.82" x2="231.15" y2="121.82" xlink:href="#linear-gradient"/></defs><rect class="cls-26" width="400" height="300"/><path class="cls-19" d="m370.06,255.2c0,6.22-68.12,4.75-155.03,4.75s-159.68,1.47-159.68-4.75,72.78-7.66,159.68-7.66,155.03,1.44,155.03,7.66Z"/><g class="cls-38"><path class="cls-31" d="m302.49,137.92c-.47,2.92-2.08,5.38-4.29,7-2.25,1.64-5.12,2.42-8.09,1.94h0c-2.96-.48-5.45-2.12-7.07-4.38-1.6-2.23-2.35-5.07-1.87-8,.95-5.89,6.49-9.89,12.38-8.94,5.89.95,9.89,6.49,8.94,12.38"/><path class="cls-26" d="m300.94,137.67c-.4,2.5-1.78,4.6-3.67,5.99-1.92,1.4-4.38,2.07-6.91,1.66h0c-2.53-.41-4.66-1.81-6.04-3.75-1.36-1.91-2.01-4.34-1.6-6.84.81-5.03,5.55-8.46,10.59-7.64s8.46,5.55,7.64,10.59"/><path class="cls-31" d="m293.23,129.66c.3.12.62.21.91.36,1.71.87,2.63,2.84,2.18,4.66-.47,1.94-2.13,3.26-4.09,3.26-2.42,0-4.33-2.03-4.19-4.44.13-2.29,2.11-4.06,4.4-3.94.04,0,.08,0,.12,0l.68.11Z"/><path class="cls-31" d="m297.27,143.66c-1.92,1.4-4.38,2.07-6.91,1.66h0c-2.53-.41-4.66-1.81-6.04-3.75,1.08-1.8,3.05-2.98,5.25-2.98.27,0,.54.02.8.06.67.1,1.33.21,2,.32,2.45.42,4.38,2.31,4.91,4.69"/></g><path class="cls-7" d="m302.04,146.08s.51-5.24-2.2-4.4c-2.71.85-2.37,1.61-2.2,2.54.17.93,2.71,1.27,2.71,1.86s3.13,8.04,5.41,10.61c2.28,2.57,5.11,4.53,8.18-.59l-2.08-4.87-2.29,3.21s-4.48-3.64-7.52-8.37Z"/><polygon class="cls-10" points="181.64 129.71 137.88 129.71 137.88 95.02 137.88 92.07 146.58 92.07 150.61 95.02 181.64 95.02 181.64 129.71"/><rect class="cls-28" x="139.41" y="98.28" width="40.81" height="2.06"/><path class="cls-10" d="m138.28,100.34h42.06c1.94,0,3.51,1.57,3.51,3.51v22.34c0,1.94-1.57,3.51-3.51,3.51h-42.06c-1.94,0-3.51-1.57-3.51-3.51v-22.34c0-1.94,1.57-3.51,3.51-3.51Z"/><rect class="cls-3" x="134.77" y="100.34" width="47.53" height="27.65" rx="3.35" ry="3.35"/><polygon class="cls-17" points="182.6 133.11 144.5 133.11 144.5 102.91 144.5 100.34 152.08 100.34 155.58 102.91 182.6 102.91 182.6 133.11"/><rect class="cls-28" x="145.83" y="105.75" width="35.53" height="1.8"/><rect class="cls-5" x="141.79" y="107.54" width="42.74" height="25.57" rx="3.06" ry="3.06"/><path class="cls-17" d="m144.71,107.54h35.55c1.61,0,2.92,1.31,2.92,2.92v18.23c0,1.61-1.31,2.92-2.92,2.92h-35.55c-1.61,0-2.92-1.31-2.92-2.92v-18.23c0-1.61,1.31-2.92,2.92-2.92Z"/><path class="cls-25" d="m201.57,108.32h27.75c1.15,0,2.08.93,2.08,2.08v13.57c0,1.15-.93,2.08-2.08,2.08h-27.75c-1.15,0-2.08-.93-2.08-2.08v-13.57c0-1.15.93-2.08,2.08-2.08Z"/><path class="cls-24" d="m215.45,97.05h0l-15.59,11.27c-.12.08-.06.27.09.27h31c.14,0,.2-.18.09-.27l-15.59-11.27Z"/><rect class="cls-8" x="206.38" y="100.36" width="18.13" height="21.73"/><polygon class="cls-16" points="224.51 106.56 224.51 122.08 206.38 122.08 206.38 118.2 224.51 106.56"/><rect class="cls-18" x="209.08" y="103.23" width="12.63" height=".56"/><g class="cls-37"><path class="cls-1" d="m222.33,107.71h-10.65c-.41,0-.75-.31-.75-.69h0c0-.38.34-.69.75-.69h10.65c.41,0,.75.31.75.69h0c0,.38-.34.69-.75.69Z"/><path class="cls-1" d="m222.39,111.14h-10.77c-.38,0-.69-.31-.69-.69h0c0-.38.31-.69.69-.69h10.77c.38,0,.69.31.69.69h0c0,.38-.31.69-.69.69Z"/><path class="cls-18" d="m208.57,109.56h.72c.36,0,.65.29.65.65v.48c0,.36-.29.65-.65.65h-.72c-.36,0-.65-.29-.65-.65v-.48c0-.36.29-.65.65-.65Z"/><path class="cls-18" d="m208.57,113h.72c.36,0,.65.29.65.65v.48c0,.36-.29.65-.65.65h-.72c-.36,0-.65-.29-.65-.65v-.48c0-.36.29-.65.65-.65Z"/><path class="cls-18" d="m208.51,116.44h.83c.33,0,.6.27.6.6v.59c0,.33-.27.6-.6.6h-.83c-.33,0-.6-.27-.6-.6v-.59c0-.33.27-.6.6-.6Z"/><path class="cls-18" d="m208.57,106.13h.72c.36,0,.65.29.65.65v.48c0,.36-.29.65-.65.65h-.72c-.36,0-.65-.29-.65-.65v-.48c0-.36.29-.65.65-.65Z"/><path class="cls-1" d="m222.33,114.58h-10.65c-.41,0-.75-.31-.75-.69h0c0-.38.34-.69.75-.69h10.65c.41,0,.75.31.75.69h0c0,.38-.34.69-.75.69Z"/><path class="cls-1" d="m222.33,118.02h-10.65c-.41,0-.75-.31-.75-.69h0c0-.38.34-.69.75-.69h10.65c.41,0,.75.31.75.69h0c0,.38-.34.69-.75.69Z"/></g><path class="cls-25" d="m224.86,116.44l-2.82,1.61-1.47-1.13-.53.67-4.51,3.23-4.36-3.23-.87-.67-1.46,1.12-2.81-1.61c-.18,0-.32.26-.32.59v7.61c0,.33.14.59.32.59h18.82c.18,0,.32-.26.32-.59v-7.61c0-.33-.14-.59-.32-.59Z"/><path class="cls-27" d="m210.31,116.93l-10.75-8.13c-.04.1-.06.2-.06.31v16.12l10.81-8.29Z"/><path class="cls-34" d="m231.4,125.23v-16.13c0-.11-.03-.22-.07-.32l-10.76,8.14,10.83,8.31Z"/><path class="cls-12" d="m230.62,126.05c.2,0,.39-.08.53-.21l-11.1-8.25-4.51,3.23-4.36-3.23-10.85,8.46h30.29Z"/><rect class="cls-33" x="173.63" y="93.79" width="19.75" height="29.07" rx="1.62" ry="1.62" transform="translate(38.87 264.81) rotate(-77.81)"/><rect class="cls-23" x="173.99" y="93.49" width="18.56" height="28.33" rx="1.55" ry="1.55" transform="translate(39.34 264.06) rotate(-77.81)"/><path class="cls-33" d="m188.74,108.17l-3.29,2.79-3.83-8.13-13.9,9.9c-.05.68.57,1.36,1.49,1.56l24.13,5.21c.98.21,1.91-.2,2.06-.92l.4-1.83-7.05-8.58Z"/><path class="cls-33" d="m193.53,104.93c-.19.87-1.06,1.43-1.95,1.24-.89-.19-1.45-1.05-1.26-1.93.19-.87,1.06-1.43,1.95-1.24.89.19,1.45,1.05,1.26,1.93Z"/><path class="cls-31" d="m131.56,113.15l14.86,138.11c.23,2.15,2.05,3.78,4.21,3.78h95.04c2.16,0,3.97-1.62,4.21-3.76l15.68-138.13h-134Z"/><path class="cls-19" d="m198.56,238.91c-2.56,0-4.63-2.07-4.63-4.63v-102c0-2.56,2.07-4.63,4.63-4.63s4.63,2.07,4.63,4.63v102c0,2.56-2.07,4.63-4.63,4.63Z"/><path class="cls-19" d="m172.92,238.5c-2.54.31-4.85-1.49-5.16-4.03l-12.43-101.24c-.31-2.54,1.49-4.85,4.03-5.16,2.54-.31,4.85,1.49,5.16,4.03l12.43,101.24c.31,2.54-1.49,4.85-4.03,5.16Z"/><path class="cls-19" d="m223.36,238.5c2.54.31,4.85-1.49,5.16-4.03l12.43-101.24c.31-2.54-1.49-4.85-4.03-5.16-2.54-.31-4.85,1.49-5.16,4.03l-12.43,101.24c-.31,2.54,1.49,4.85,4.03,5.16Z"/><path class="cls-19" d="m226.06,93.18l-6.39-1.83,2.62-9.16c.23-.81-.21-1.65-.99-1.87l-29.15-8.32c-.77-.22-1.59.26-1.82,1.07l-2.62,9.16-6.39-1.83,2.62-9.16c1.28-4.49,5.82-7.15,10.12-5.92l29.15,8.32c4.3,1.23,6.75,5.88,5.47,10.37l-2.62,9.16Z"/><path class="cls-31" d="m271.96,106.29l-132.79-37.92c-1.43-.41-2.91.42-3.32,1.84l-3.27,11.44c-.41,1.43.42,2.91,1.84,3.32l132.79,37.92c1.43.41,2.91-.42,3.32-1.84l3.27-11.44c.41-1.43-.42-2.91-1.84-3.32Z"/><polygon class="cls-17" points="370.06 184.11 352.38 188.18 349.15 174.16 348.88 172.97 352.39 172.16 354.29 172.98 366.84 170.09 370.06 184.11"/><rect class="cls-28" x="349.95" y="173.43" width="16.92" height=".86" transform="translate(-29.85 84.78) rotate(-12.96)"/><path class="cls-5" d="m350.04,174.16h19.26c.3,0,.55.25.55.55v11.08c0,.3-.25.55-.55.55h-19.26c-.3,0-.55-.25-.55-.55v-11.08c0-.3.25-.55.55-.55Z" transform="translate(-31.26 85.23) rotate(-12.96)"/><path class="cls-17" d="m349.95,174.25h18.66c.29,0,.53.24.53.53v10.42c0,.29-.24.53-.53.53h-18.66c-.29,0-.53-.24-.53-.53v-10.42c0-.29.24-.53.53-.53Z" transform="translate(-31.21 85.13) rotate(-12.96)"/><path class="cls-35" d="m318.49,146.37s-3.57-6.28-2.99-13.21c.58-6.93.13-8.27,2.06-10.21,1.93-1.94,5.93-3.42,8.38-2.54,2.45.88,3.91,3.97,4.91,5.54,1.74,2.76,2.65,6.12,2.94,9.26.29,3.14-.79,5.63.81,9.16,1.75,3.87,2.24,7.86,1.87,10.78-.37,2.91-3.84,10.11-7.75,8.86-3.91-1.25-8.64-18.42-8.64-18.42l-1.59.78Z"/><path class="cls-7" d="m320.7,142.95s.8-2.63,0-3.28c-.8-.65-3.38-.74-3.88-3.6-.5-2.86-.5-7.49.8-9.52,0,0,3.58,3.14,6.47,3.33,0,0,.9,6.19.9,7.58v1.94s1.39.91,1.93,1.57c1.02,1.26-1.56,7.12-3.58,6.65-2.03-.46-3.32-2.22-3.32-2.22l.7-2.45Z"/><path class="cls-6" d="m318.28,173.39s-6.93,26.55-10.31,39.23c-3.38,12.68-7.27,30.61-7.27,30.61h3.72s12.74-16.94,10.48-32.64c0,0,5.8-4.69,7.47-8.1,1.66-3.4-1.55-27.92-4.08-29.1Z"/><path class="cls-6" d="m318.28,173.39s4.73,34.33,5.41,37.88c0,0,5.07,31.11,6.09,34.16h3.89s4.23-24.69-2.54-36.02c0,0,8.96-27.39-1.18-36.02h-11.67Z"/><path class="cls-21" d="m300.69,243.22s-3.72,5.24-6.09,5.24-5.58.85-3.72,3.38h4.63s4.17-1.52,5.18-5.07l.55.15v4.92h1.2s2.41-6.81,1.97-8.62h-3.72Z"/><path class="cls-21" d="m329.68,245.34s-2.21,6.04-4.49,6.66c-2.28.62-5.16,2.28-2.7,4.24l4.46-1.22s4.08-2.6,4.13-6.29l.5.12.9,4.66,1.16.03s.57-6.47.02-8.13l-3.98-.08Z"/><path class="cls-7" d="m334.34,155.88s9.13,13.11,16.91,15.31c0,0,3.72.17,3.38,1.78-.34,1.61,1.94,1.86,3.21.42,1.27-1.44.12-4.55-4.14-3.72,0,0-7.1-4.31-9.72-8.37-2.62-4.06-7-9.13-7-9.13l-2.63,3.71Z"/><path class="cls-30" d="m327.41,141.09c-.22-.11-.43-.2-.64-.28-.4,4.15-2.96,6.99-4.63,5.74-1.52-1.14-2.05-1.68-1.59-3.1.7-2.17.96-3.67.02-2.99-.17.07-.27.13-.27.13,0,0-6.28,4.4-8.55,9.64,0,0-.07,2.87,2.63,6.51l2.37-3.04s-.42,4.9.34,8.29c.76,3.38,1.18,11.41,1.18,11.41h11.67s-2.28-9.89-1.35-12.68c.93-2.79,2.54-6.85,2.54-6.85l2.79,2.62,3.72-5.24s-5.92-8.03-10.23-10.15Z"/><path class="cls-2" d="m322.37,202.47h0s-2.76-19.54-2.76-19.54c-.29-2.07.84-4.08,2.76-4.91l8.54-3.69s-.01-.01-.02-.02c-.23-.22-.62-.55-1.08-.93h-11.54s-1.07,4.1-2.58,9.85l6.31,19.89c.13-.21.24-.42.35-.63,0,0,0,0,0,0,.16,1.11.31,2.17.45,3.13l-.45-3.16Z"/><path class="cls-20" d="m93.88,140.04s1.37-1.08,1.47-1.95c.09-.78.07-.51.09-.84,0-.11.03-.34.03-.34,0,0,.24-2.13.81-2.45.57-.32.88.1.57,1.23-.31,1.13,1.12,1.63,1.99-.07.88-1.7,2.33-3.41,2.6-2.78.26.63-.67,1.95-.67,1.95,0,0,.05.05.27-.3.22-.35.48-1.38.64-1.19.16.18,1.3,1.29.32,3.67-.98,2.39-2.48,3.04-3.07,3.39-.59.35-2.45,2.06-2.77,2.84,0,0-2.93-1.85-2.28-3.16Z"/><path class="cls-20" d="m82.38,129.4s1.54,4.76,1.54,7.68-4.37,5.1-4.37,5.1v2.55h-8.62s.13-1.39,0-1.97c-.13-.58,6.26-13.03,11.45-13.37Z"/><path class="cls-36" d="m75.17,244.99h-7.29s.73-18.96,3.65-28.44c0,0-2.55-11.3-3.28-18.59,0,0-2.19-3.65-1.46-13.12l20.42-.73s5.1,24.06,5.83,28.44c.73,4.37-4.37,26.98-4.37,32.81h-8.02s.73-21.87,3.65-28.44c0,0-3.65-5.83-5.83-9.48,0,0,1.46,11.67.73,13.85-.73,2.19-3.65,16.04-4.01,23.7Z"/><polygon class="cls-22" points="87.16 146.05 94.49 138.9 97.41 141.82 94.33 146.52 87.16 146.05"/><path class="cls-9" d="m79.18,221.29c.73-2.19-.73-13.85-.73-13.85.22.36.45.75.69,1.15h0c.33-5.78-3.98-11.72-3.98-11.72,2.92,12.4,1.46,20.42,0,26.25-1.46,5.83-2.45,21.87-2.45,21.87h2.45c.36-7.66,3.28-21.51,4.01-23.7Z"/><path class="cls-32" d="m67.88,244.99s-1.09,8.75.36,9.48c1.46.73,16.77-.73,16.77-.73,0,0,1.46-2.19-.73-2.92-2.19-.73-9.41-2.92-10.17-5.83h-6.23Z"/><path class="cls-15" d="m81.73,245.35s-1.09,8.75.36,9.48c1.46.73,16.77-.73,16.77-.73,0,0,1.46-2.19-.73-2.92-2.19-.73-9.41-2.92-10.17-5.83h-6.23Z"/><path class="cls-11" d="m85.38,123.95c-1.09,1.09-4.01,1.09-4.01,1.09,1.46-.73,1.46-2.19,1.46-2.19-2.19,1.46-6.2-.36-10.57-.36s-5.83,4.37-5.83,4.37c-.73-.73-.73-1.46-.73-1.46-.73,1.46,0,2.92,0,2.92-.73-.73-2.19.73-2.19.73.73,0,1.46.73,1.46.73-.73,4.37,2.55,8.39,4.01,9.11,1.46.73.73,2.92,1.46,3.65.73.73,6.93.36,8.39-1.09,1.46-1.46.73-9.48.73-9.48,1.46,0,2.19,2.92,2.19,2.92.73-2.18-.69-4.07-.7-4.09,3.22-2.93,4.34-6.85,4.34-6.85Z"/><polygon class="cls-4" points="94.33 146.52 97.41 141.82 96.47 140.87 92.51 146.4 94.33 146.52"/><rect class="cls-14" x="95.8" y="119.24" width="32.9" height="18.28" rx=".81" ry=".81" transform="translate(-41.23 54.03) rotate(-22.99)"/><polygon class="cls-14" points="107.26 130.21 108.36 130.49 113.79 131.8 116.77 126.92 117.01 126.08 121.26 127.18 115.62 134.49 106.06 132.33 107.26 130.21"/><path class="cls-17" d="m107.26,130.21l-13.48-3.39c0,.11.02.22.06.32l6.49,15.3,6.93-12.23Z"/><path class="cls-17" d="m130.64,129.6l-6.5-15.31c-.05-.11-.11-.2-.19-.28l-6.94,12.06,13.63,3.52Z"/><path class="cls-17" d="m130.22,130.69c.19-.08.34-.23.42-.41l-13.86-3.36-2.98,4.88-5.44-1.31-6.9,12.4,28.75-12.2Z"/><path class="cls-17" d="m113.32,130.91h0l-19.33-4.42c-.14-.03-.16-.23-.03-.29l29.43-12.49c.14-.06.26.09.19.22l-10.26,16.97Z"/><path class="cls-20" d="m106.18,139.83s1.49-.91,1.69-1.76c.18-.76.13-.5.19-.82.02-.11.08-.34.08-.34,0,0,.49-2.09,1.1-2.34.61-.25.86.21.42,1.29-.44,1.09.92,1.75,1.99.17,1.07-1.58,2.73-3.11,2.91-2.45.19.66-.9,1.86-.9,1.86,0,0,.05.05.31-.27.26-.32.64-1.31.78-1.11.14.2,1.13,1.43-.12,3.68-1.26,2.25-2.82,2.72-3.45,3-.63.28-2.68,1.75-3.09,2.49,0,0-2.68-2.19-1.89-3.41Z"/><path class="cls-29" d="m79.91,144.73h-10.21s-5.1,1.46-5.83,8.02c-.73,6.56,3.65,17.5,2.92,21.87-.73,4.37-2.42,11.31-.11,12.22,2.3.91,17.61.18,20.53-2.74,2.92-2.92-2.92-11.67-2.19-16.04.73-4.37.73-13.12.73-13.12,0,0,13.12-.73,16.04-2.92,2.92-2.19,8.75-10.21,8.75-10.21l-2.92-3.65s-5.83,4.37-8.75,8.75c0,0-14.58-1.46-17.5-.73l-1.46-1.46Z"/><path class="cls-4" d="m85.75,154.94s13.12-.73,16.04-2.92c2.92-2.19,8.75-10.21,8.75-10.21l-.93-1.16c-2.16,2.37-7.4,8.19-8.55,9.91-1.46,2.19-11.67,2.19-15.31,2.19s-7.29-2.92-7.29-2.92c0,0,2.19,2.19,3.65,8.02,1.46,5.83-.73,8.02-.73,11.67s2.19,3.65,2.19,10.21c0,3.54-3.4,5.81-6.53,7.14,4.37-.45,8.75-1.35,10.17-2.77,2.92-2.92-2.92-11.67-2.19-16.04.73-4.37.73-13.12.73-13.12Z"/></svg>