<?xml version="1.0" encoding="UTF-8"?><svg id="SSL_ILLUSTRATION" xmlns="http://www.w3.org/2000/svg" xmlns:xlink="http://www.w3.org/1999/xlink" viewBox="0 0 1024 330"><defs><style>.cls-1{fill:#d1cbcb;}.cls-1,.cls-2,.cls-3,.cls-4,.cls-5,.cls-6,.cls-7,.cls-8,.cls-9,.cls-10,.cls-11,.cls-12,.cls-13,.cls-14,.cls-15,.cls-16,.cls-17,.cls-18,.cls-19,.cls-20,.cls-21,.cls-22,.cls-23,.cls-24,.cls-25,.cls-26,.cls-27,.cls-28,.cls-29,.cls-30,.cls-31,.cls-32,.cls-33,.cls-34,.cls-35,.cls-36{stroke-width:0px;}.cls-2{fill:#031f38;}.cls-3{fill:url(#linear-gradient);}.cls-4{fill:#2b85c2;}.cls-5{fill:#e5a03c;}.cls-6{fill:#0f3757;}.cls-7{fill:#f5c1ca;}.cls-8{fill:#f7f7f7;}.cls-9{fill:#242353;}.cls-10{fill:#0d72b9;}.cls-11{fill:#211c55;}.cls-12{fill:url(#linear-gradient-5);}.cls-37{opacity:.35;}.cls-13{fill:none;}.cls-14{fill:#dc8744;}.cls-15{fill:#1b1941;}.cls-16{fill:#e4e5ea;}.cls-17{fill:#f3b344;}.cls-18{fill:#ddd;}.cls-19{fill:#bfbfbf;}.cls-20{fill:#ffddb5;}.cls-21{fill:#000006;}.cls-22{fill:#3ca2e9;}.cls-23{fill:#fff;}.cls-24{fill:url(#linear-gradient-2);}.cls-25{fill:#0046a4;}.cls-26{fill:#f60;}.cls-27{fill:url(#linear-gradient-3);}.cls-28{fill:#f1f2f2;}.cls-38{clip-path:url(#clippath);}.cls-29{fill:#3ea5eb;}.cls-30{fill:#d37383;}.cls-31{fill:#f1f1f1;}.cls-32{fill:#141433;}.cls-33{fill:#3885c6;}.cls-34{fill:url(#linear-gradient-4);}.cls-35{fill:#252a6c;}.cls-36{fill:#322b7d;}</style><clipPath id="clippath"><rect class="cls-13" x="750.33" y="119.34" width="26.54" height="26.54" transform="translate(511.06 865.34) rotate(-80.83)"/></clipPath><linearGradient id="linear-gradient" x1="570.59" y1="105.53" x2="629.01" y2="105.53" gradientUnits="userSpaceOnUse"><stop offset="0" stop-color="#29a9e1"/><stop offset=".24" stop-color="#2a91d0"/><stop offset=".76" stop-color="#2d54a4"/><stop offset="1" stop-color="#2f368f"/></linearGradient><linearGradient id="linear-gradient-2" x1="650.51" y1="91.57" x2="688.97" y2="91.57" xlink:href="#linear-gradient"/><linearGradient id="linear-gradient-3" x1="650.14" y1="109.02" x2="663.42" y2="109.02" xlink:href="#linear-gradient"/><linearGradient id="linear-gradient-4" x1="676.04" y1="109.02" x2="689.35" y2="109.02" xlink:href="#linear-gradient"/><linearGradient id="linear-gradient-5" x1="651.16" y1="114.93" x2="689.03" y2="114.93" xlink:href="#linear-gradient"/></defs><rect class="cls-26" width="1024" height="330"/><path class="cls-19" d="m859.75,278.84c0,7.64-83.72,5.83-190.51,5.83s-196.23,1.8-196.23-5.83,89.44-9.41,196.23-9.41,190.51,1.78,190.51,9.41Z"/><g class="cls-38"><path class="cls-31" d="m776.7,134.72c-.58,3.59-2.55,6.62-5.28,8.6-2.76,2.02-6.3,2.97-9.94,2.38h0c-3.64-.59-6.7-2.6-8.68-5.39-1.96-2.74-2.88-6.23-2.3-9.83,1.17-7.24,7.98-12.15,15.21-10.99,7.24,1.17,12.15,7.98,10.99,15.21"/><path class="cls-26" d="m774.8,134.42c-.5,3.07-2.18,5.66-4.51,7.36-2.36,1.72-5.38,2.54-8.5,2.04h0c-3.11-.5-5.73-2.23-7.42-4.6-1.68-2.35-2.47-5.33-1.97-8.4,1-6.19,6.82-10.39,13.01-9.39s10.39,6.82,9.39,13.01"/><path class="cls-31" d="m765.33,124.57c.37.14.76.26,1.11.44,2.1,1.07,3.23,3.49,2.68,5.73-.58,2.38-2.62,4.01-5.03,4.01-2.97,0-5.32-2.49-5.15-5.46.16-2.82,2.59-4.99,5.4-4.84.05,0,.1,0,.15,0l.83.13Z"/><path class="cls-31" d="m770.29,141.77c-2.36,1.72-5.38,2.54-8.5,2.04h0c-3.11-.5-5.73-2.23-7.43-4.61,1.33-2.21,3.75-3.67,6.45-3.67.33,0,.66.03.99.08.82.12,1.64.25,2.45.39,3.01.52,5.39,2.83,6.03,5.77"/></g><path class="cls-7" d="m776.16,144.75s.62-6.44-2.7-5.4c-3.32,1.04-2.91,1.97-2.7,3.12.21,1.14,3.32,1.56,3.32,2.29s3.84,9.88,6.65,13.04c2.81,3.16,6.28,5.57,10.05-.73l-2.56-5.98-2.82,3.95s-5.51-4.47-9.25-10.29Z"/><polygon class="cls-10" points="628.2 124.63 574.42 124.63 574.42 82 574.42 78.38 585.11 78.38 590.06 82 628.2 82 628.2 124.63"/><rect class="cls-28" x="576.3" y="86.01" width="50.15" height="2.53"/><path class="cls-10" d="m574.1,88.54h53.29c1.94,0,3.51,1.57,3.51,3.51v29.06c0,1.94-1.57,3.51-3.51,3.51h-53.29c-1.94,0-3.51-1.57-3.51-3.51v-29.06c0-1.94,1.57-3.51,3.51-3.51Z"/><rect class="cls-3" x="570.59" y="88.54" width="58.41" height="33.97" rx="3.35" ry="3.35"/><polygon class="cls-17" points="629.38 128.81 582.56 128.81 582.56 91.69 582.56 88.54 591.87 88.54 596.17 91.69 629.38 91.69 629.38 128.81"/><rect class="cls-28" x="584.19" y="95.18" width="43.66" height="2.21"/><rect class="cls-5" x="579.22" y="97.39" width="52.52" height="31.42" rx="3.06" ry="3.06"/><path class="cls-17" d="m582.14,97.39h45.02c1.61,0,2.92,1.31,2.92,2.92v23.74c0,1.61-1.31,2.92-2.92,2.92h-45.02c-1.61,0-2.92-1.31-2.92-2.92v-23.74c0-1.61,1.31-2.92,2.92-2.92Z"/><path class="cls-25" d="m652.22,98.34h35.06c1.15,0,2.08.93,2.08,2.08v17.63c0,1.15-.93,2.08-2.08,2.08h-35.06c-1.15,0-2.08-.93-2.08-2.08v-17.63c0-1.15.93-2.08,2.08-2.08Z"/><path class="cls-24" d="m669.74,84.49h0l-19.16,13.84c-.14.1-.07.33.11.33h38.1c.18,0,.25-.22.11-.33l-19.16-13.84Z"/><rect class="cls-8" x="658.6" y="88.56" width="22.28" height="26.7"/><polygon class="cls-16" points="680.88 96.18 680.88 115.26 658.6 115.26 658.6 110.48 680.88 96.18"/><rect class="cls-18" x="661.91" y="92.09" width="15.52" height=".69"/><g class="cls-37"><path class="cls-1" d="m678.2,97.59h-13.08c-.51,0-.92-.38-.92-.84h0c0-.47.41-.84.92-.84h13.08c.51,0,.92.38.92.84h0c0,.47-.41.84-.92.84Z"/><path class="cls-1" d="m678.28,101.81h-13.24c-.47,0-.84-.38-.84-.84h0c0-.47.38-.84.84-.84h13.24c.47,0,.84.38.84.84h0c0,.47-.38.84-.84.84Z"/><path class="cls-18" d="m661.14,99.87h1.18c.36,0,.65.29.65.65v.89c0,.36-.29.65-.65.65h-1.18c-.36,0-.65-.29-.65-.65v-.89c0-.36.29-.65.65-.65Z"/><path class="cls-18" d="m661.14,104.1h1.18c.36,0,.65.29.65.65v.89c0,.36-.29.65-.65.65h-1.18c-.36,0-.65-.29-.65-.65v-.89c0-.36.29-.65.65-.65Z"/><path class="cls-18" d="m661.08,108.32h1.29c.33,0,.6.27.6.6v1c0,.33-.27.6-.6.6h-1.29c-.33,0-.6-.27-.6-.6v-1c0-.33.27-.6.6-.6Z"/><path class="cls-18" d="m661.14,95.65h1.18c.36,0,.65.29.65.65v.89c0,.36-.29.65-.65.65h-1.18c-.36,0-.65-.29-.65-.65v-.89c0-.36.29-.65.65-.65Z"/><path class="cls-1" d="m678.2,106.04h-13.08c-.51,0-.92-.38-.92-.84h0c0-.47.41-.84.92-.84h13.08c.51,0,.92.38.92.84h0c0,.47-.41.84-.92.84Z"/><path class="cls-1" d="m678.2,110.26h-13.08c-.51,0-.92-.38-.92-.84h0c0-.47.41-.84.92-.84h13.08c.51,0,.92.38.92.84h0c0,.47-.41.84-.92.84Z"/></g><path class="cls-25" d="m681.31,108.32l-3.46,1.98-1.8-1.38-.65.82-5.54,3.97-5.35-3.97-1.07-.82-1.8,1.38-3.45-1.97c-.22,0-.39.32-.39.72v9.36c0,.4.17.72.39.72h23.13c.22,0,.39-.32.39-.72v-9.36c0-.4-.17-.72-.39-.72Z"/><path class="cls-27" d="m663.42,108.92l-13.21-10c-.05.12-.08.25-.08.38v19.81l13.29-10.19Z"/><path class="cls-34" d="m689.35,119.13v-19.82c0-.14-.03-.27-.08-.39l-13.22,10.01,13.31,10.21Z"/><path class="cls-12" d="m688.39,120.13c.25,0,.48-.1.65-.25l-13.64-10.14-5.54,3.97-5.35-3.97-13.34,10.39h37.23Z"/><path class="cls-33" d="m620.34,80.48h20.28c1.1,0,2,.89,2,2v31.73c0,1.1-.89,2-2,2h-20.28c-1.1,0-2-.89-2-2v-31.73c0-1.1.89-2,2-2Z" transform="translate(401.22 693.85) rotate(-77.81)"/><rect class="cls-23" x="618.79" y="80.13" width="22.81" height="34.81" rx="1.91" ry="1.91" transform="translate(401.79 692.92) rotate(-77.81)"/><path class="cls-33" d="m636.93,98.16l-4.05,3.42-4.71-9.99-17.09,12.17c-.07.84.7,1.68,1.83,1.92l29.65,6.41c1.21.26,2.34-.25,2.53-1.13l.49-2.25-8.66-10.55Z"/><path class="cls-33" d="m642.81,94.18c-.23,1.07-1.3,1.75-2.39,1.52-1.09-.24-1.78-1.3-1.55-2.37.23-1.07,1.3-1.75,2.39-1.52,1.09.24,1.78,1.3,1.55,2.37Z"/><path class="cls-31" d="m566.66,104.28l18.26,169.72c.28,2.65,2.52,4.65,5.18,4.65h116.79c2.65,0,4.88-1.99,5.17-4.62l19.27-169.75h-164.67Z"/><path class="cls-19" d="m648.99,258.83c-3.14,0-5.69-2.55-5.69-5.69v-125.35c0-3.14,2.55-5.69,5.69-5.69s5.69,2.55,5.69,5.69v125.35c0,3.14-2.55,5.69-5.69,5.69Z"/><path class="cls-19" d="m617.48,258.32c-3.12.38-5.96-1.84-6.34-4.96l-15.28-124.41c-.38-3.12,1.84-5.96,4.96-6.34,3.12-.38,5.96,1.84,6.34,4.96l15.28,124.41c.38,3.12-1.84,5.96-4.96,6.34Z"/><path class="cls-19" d="m679.46,258.32c3.12.38,5.96-1.84,6.34-4.96l15.28-124.41c.38-3.12-1.84-5.96-4.96-6.34-3.12-.38-5.96,1.84-6.34,4.96l-15.28,124.41c-.38,3.12,1.84,5.96,4.96,6.34Z"/><path class="cls-19" d="m682.78,79.74l-7.85-2.24,3.21-11.26c.28-.99-.26-2.02-1.21-2.3l-35.82-10.23c-.95-.27-1.96.32-2.24,1.31l-3.21,11.26-7.85-2.24,3.21-11.26c1.58-5.52,7.16-8.79,12.44-7.28l35.82,10.23c5.28,1.51,8.3,7.23,6.72,12.75l-3.21,11.26Z"/><path class="cls-31" d="m739.19,95.85l-163.19-46.6c-1.75-.5-3.58.51-4.08,2.27l-4.01,14.06c-.5,1.75.51,3.58,2.27,4.08l163.19,46.6c1.75.5,3.58-.51,4.08-2.27l4.01-14.06c.5-1.75-.51-3.58-2.27-4.08Z"/><polygon class="cls-17" points="859.75 191.48 838.01 196.49 834.05 179.26 833.71 177.79 838.04 176.8 840.37 177.8 855.79 174.26 859.75 191.48"/><rect class="cls-28" x="835.03" y="178.36" width="20.8" height="1.05" transform="translate(-18.58 194.1) rotate(-12.96)"/><path class="cls-5" d="m835.15,179.26h23.67c.37,0,.68.3.68.68v13.61c0,.37-.3.68-.68.68h-23.67c-.37,0-.68-.3-.68-.68v-13.61c0-.37.3-.68.68-.68Z" transform="translate(-20.31 194.64) rotate(-12.96)"/><rect class="cls-17" x="834.38" y="179.36" width="24.23" height="14.09" rx=".65" ry=".65" transform="translate(-20.24 194.53) rotate(-12.96)"/><path class="cls-35" d="m796.37,145.1s-4.39-7.72-3.67-16.23c.72-8.52.15-10.16,2.53-12.55,2.38-2.38,7.28-4.2,10.3-3.12,3.02,1.08,4.81,4.88,6.03,6.81,2.14,3.39,3.26,7.52,3.61,11.38.36,3.86-.97,6.92,1,11.26,2.15,4.76,2.75,9.66,2.29,13.24-.46,3.58-4.71,12.42-9.52,10.89-4.81-1.53-10.62-22.64-10.62-22.64l-1.95.96Z"/><path class="cls-7" d="m799.09,140.9s.98-3.24,0-4.03c-.98-.79-4.16-.91-4.77-4.43-.61-3.52-.61-9.2.98-11.7,0,0,4.4,3.86,7.95,4.09,0,0,1.1,7.61,1.1,9.31v2.38s1.71,1.11,2.37,1.93c1.25,1.55-1.91,8.74-4.4,8.18-2.49-.57-4.08-2.73-4.08-2.73l.86-3.01Z"/><path class="cls-6" d="m796.11,178.31s-8.52,32.62-12.68,48.21c-4.16,15.58-8.94,37.61-8.94,37.61h4.57s15.65-20.82,12.88-40.11c0,0,7.13-5.77,9.18-9.95,2.05-4.18-1.9-34.31-5.02-35.77Z"/><path class="cls-6" d="m796.11,178.31s5.82,42.18,6.65,46.55c0,0,6.23,38.24,7.48,41.98h4.78s5.2-30.34-3.12-44.26c0,0,11.01-33.66-1.45-44.26h-14.34Z"/><path class="cls-21" d="m774.5,264.13s-4.57,6.44-7.48,6.44-6.86,1.04-4.57,4.16h5.68s5.12-1.87,6.37-6.23l.68.18v6.05h1.48s2.96-8.36,2.42-10.6h-4.57Z"/><path class="cls-21" d="m810.13,266.73s-2.72,7.42-5.52,8.18c-2.81.77-6.34,2.81-3.32,5.21l5.48-1.5s5.02-3.19,5.07-7.73l.62.15,1.1,5.73,1.43.04s.7-7.95.03-9.99l-4.89-.1Z"/><path class="cls-7" d="m815.86,156.79s11.22,16.12,20.78,18.82c0,0,4.57.21,4.16,2.18-.42,1.97,2.39,2.29,3.95.52,1.56-1.77.15-5.59-5.09-4.57,0,0-8.73-5.3-11.95-10.29-3.22-4.99-8.6-11.22-8.6-11.22l-3.24,4.56Z"/><path class="cls-30" d="m807.33,138.62c-.27-.13-.52-.24-.78-.35-.5,5.1-3.64,8.59-5.69,7.05-1.87-1.4-2.52-2.07-1.95-3.8.87-2.66,1.18-4.51.02-3.68-.21.09-.33.16-.33.16,0,0-7.72,5.4-10.51,11.84,0,0-.09,3.53,3.23,8l2.91-3.74s-.52,6.03.42,10.18c.94,4.16,1.45,14.03,1.45,14.03h14.34s-2.81-12.16-1.66-15.59c1.14-3.43,3.12-8.42,3.12-8.42l3.43,3.22,4.57-6.44s-7.27-9.87-12.57-12.47Z"/><path class="cls-2" d="m801.14,214.04h0s-3.39-24.01-3.39-24.01c-.36-2.54,1.03-5.01,3.39-6.03l10.5-4.53s-.01-.02-.02-.02c-.28-.27-.76-.68-1.32-1.14h-14.18s-1.32,5.04-3.16,12.1l7.76,24.44c.16-.26.3-.52.42-.77,0,0,0,0,0,0,.2,1.37.39,2.67.56,3.85l-.55-3.88Z"/><path class="cls-20" d="m520.34,137.32s1.68-1.33,1.8-2.39c.11-.96.09-.62.11-1.03,0-.14.04-.42.04-.42,0,0,.29-2.62.99-3.02.7-.39,1.09.13.7,1.52-.38,1.39,1.37,2,2.45-.09,1.08-2.09,2.87-4.2,3.19-3.42.32.78-.83,2.4-.83,2.4,0,0,.06.06.34-.37.27-.43.59-1.69.79-1.47.2.23,1.59,1.58.39,4.51-1.2,2.93-3.04,3.74-3.77,4.17-.73.44-3.02,2.53-3.41,3.49,0,0-3.6-2.27-2.8-3.88Z"/><path class="cls-20" d="m506.22,124.24s1.89,5.85,1.89,9.44-5.38,6.27-5.38,6.27v3.14h-10.59s.16-1.7,0-2.42c-.16-.72,7.7-16.01,14.07-16.43Z"/><path class="cls-36" d="m497.36,266.3h-8.96s.9-23.3,4.48-34.95c0,0-3.14-13.89-4.03-22.85,0,0-2.69-4.48-1.79-16.13l25.09-.9s6.27,29.57,7.17,34.95c.9,5.38-5.38,33.15-5.38,40.32h-9.86s.9-26.88,4.48-34.95c0,0-4.48-7.17-7.17-11.65,0,0,1.79,14.34.9,17.03-.9,2.69-4.48,19.71-4.93,29.12Z"/><polygon class="cls-22" points="512.09 144.72 521.1 135.92 524.69 139.51 520.9 145.28 512.09 144.72"/><path class="cls-9" d="m502.29,237.18c.9-2.69-.9-17.03-.9-17.03.27.45.56.92.85,1.41h0c.4-7.1-4.88-14.41-4.88-14.41,3.58,15.23,1.79,25.09,0,32.26-1.79,7.17-3.01,26.88-3.01,26.88h3.01c.45-9.41,4.03-26.43,4.93-29.12Z"/><path class="cls-32" d="m488.4,266.3s-1.34,10.75.45,11.65c1.79.9,20.61-.9,20.61-.9,0,0,1.79-2.69-.9-3.58-2.69-.9-11.57-3.58-12.5-7.17h-7.66Z"/><path class="cls-15" d="m505.42,266.75s-1.34,10.75.45,11.65c1.79.9,20.61-.9,20.61-.9,0,0,1.79-2.69-.9-3.58-2.69-.9-11.57-3.58-12.5-7.17h-7.66Z"/><path class="cls-11" d="m509.9,117.55c-1.34,1.34-4.93,1.34-4.93,1.34,1.79-.9,1.79-2.69,1.79-2.69-2.69,1.79-7.62-.45-12.99-.45s-7.17,5.38-7.17,5.38c-.9-.9-.9-1.79-.9-1.79-.9,1.79,0,3.58,0,3.58-.9-.9-2.69.9-2.69.9.9,0,1.79.9,1.79.9-.9,5.38,3.14,10.3,4.93,11.2,1.79.9.9,3.58,1.79,4.48.9.9,8.51.45,10.3-1.34,1.79-1.79.9-11.65.9-11.65,1.79,0,2.69,3.58,2.69,3.58.89-2.68-.85-5.01-.85-5.02,3.96-3.6,5.34-8.42,5.34-8.42Z"/><polygon class="cls-4" points="520.9 145.28 524.69 139.51 523.53 138.35 518.66 145.14 520.9 145.28"/><path class="cls-14" d="m565,125.84l-35.39,15.01c-.51.21-1.09-.02-1.31-.53l-8-18.85c-.21-.51.02-1.09.53-1.31l35.39-15.01c.51-.21,1.09.02,1.31.53l8,18.85c.21.51-.02,1.09-.53,1.31Z"/><polygon class="cls-14" points="536.79 125.25 538.14 125.59 544.82 127.2 548.48 121.21 548.77 120.17 553.99 121.52 547.06 130.51 535.32 127.85 536.79 125.25"/><path class="cls-17" d="m536.79,125.25l-16.57-4.17c0,.13.02.27.08.39l7.98,18.8,8.51-15.03Z"/><path class="cls-17" d="m565.52,124.5l-7.98-18.82c-.06-.13-.14-.25-.24-.34l-8.52,14.83,16.74,4.33Z"/><path class="cls-17" d="m565,125.84c.24-.1.41-.28.51-.5l-17.03-4.13-3.66,6-6.68-1.61-8.47,15.23,35.34-14.99Z"/><path class="cls-17" d="m544.24,126.11h0l-23.76-5.43c-.18-.04-.2-.28-.03-.35l36.17-15.34c.17-.07.33.11.23.27l-12.61,20.86Z"/><path class="cls-20" d="m535.46,137.07s1.83-1.12,2.08-2.16c.22-.94.16-.61.23-1.01.02-.14.09-.41.09-.41,0,0,.6-2.57,1.35-2.87.74-.31,1.06.25.52,1.59-.55,1.34,1.12,2.15,2.44.2,1.32-1.95,3.35-3.82,3.58-3.01.23.81-1.11,2.28-1.11,2.28,0,0,.06.06.38-.33.32-.39.79-1.61.96-1.36.17.25,1.39,1.76-.15,4.53-1.54,2.77-3.47,3.34-4.24,3.69-.77.34-3.3,2.15-3.8,3.05,0,0-3.3-2.69-2.32-4.19Z"/><path class="cls-29" d="m503.18,143.09h-12.54s-6.27,1.79-7.17,9.86c-.9,8.06,4.48,21.51,3.58,26.88-.9,5.38-2.97,13.9-.14,15.01,2.83,1.11,21.65.22,25.23-3.37,3.58-3.58-3.58-14.34-2.69-19.71.9-5.38.9-16.13.9-16.13,0,0,16.13-.9,19.71-3.58,3.58-2.69,10.75-12.54,10.75-12.54l-3.58-4.48s-7.17,5.38-10.75,10.75c0,0-17.92-1.79-21.51-.9l-1.79-1.79Z"/><path class="cls-4" d="m510.35,155.64s16.13-.9,19.71-3.58c3.58-2.69,10.75-12.54,10.75-12.54l-1.15-1.43c-2.65,2.91-9.09,10.06-10.5,12.18-1.79,2.69-14.34,2.69-18.82,2.69s-8.96-3.58-8.96-3.58c0,0,2.69,2.69,4.48,9.86,1.79,7.17-.9,9.86-.9,14.34s2.69,4.48,2.69,12.54c0,4.35-4.18,7.14-8.02,8.78,5.38-.55,10.75-1.65,12.5-3.4,3.58-3.58-3.58-14.34-2.69-19.71.9-5.38.9-16.13.9-16.13Z"/></svg>