<?xml version="1.0" encoding="utf-8"?>
<!-- Generator: Adobe Illustrator 27.9.0, SVG Export Plug-In . SVG Version: 6.00 Build 0)  -->
<!DOCTYPE svg PUBLIC "-//W3C//DTD SVG 1.1//EN" "http://www.w3.org/Graphics/SVG/1.1/DTD/svg11.dtd" [
	<!ENTITY ns_extend "http://ns.adobe.com/Extensibility/1.0/">
	<!ENTITY ns_ai "http://ns.adobe.com/AdobeIllustrator/10.0/">
	<!ENTITY ns_graphs "http://ns.adobe.com/Graphs/1.0/">
	<!ENTITY ns_vars "http://ns.adobe.com/Variables/1.0/">
	<!ENTITY ns_imrep "http://ns.adobe.com/ImageReplacement/1.0/">
	<!ENTITY ns_sfw "http://ns.adobe.com/SaveForWeb/1.0/">
	<!ENTITY ns_custom "http://ns.adobe.com/GenericCustomNamespace/1.0/">
	<!ENTITY ns_adobe_xpath "http://ns.adobe.com/XPath/1.0/">
]>
<svg version="1.1" id="SSL_ILLUSTRATION" xmlns:x="&ns_extend;" xmlns:i="&ns_ai;" xmlns:graph="&ns_graphs;"
	 xmlns="http://www.w3.org/2000/svg" xmlns:xlink="http://www.w3.org/1999/xlink" x="0px" y="0px" width="600px" height="330px"
	 viewBox="0 0 600 330" style="enable-background:new 0 0 600 330;" xml:space="preserve">
<style type="text/css">
	.st0{fill:#FF6600;}
	.st1{fill:#BFBFBF;}
	.st2{clip-path:url(#SVGID_00000143603411116264022120000010679845137678130340_);}
	.st3{fill:#F1F1F1;}
	.st4{fill:#F5C1CA;}
	.st5{fill:#0D72B9;}
	.st6{fill:#F1F2F2;}
	.st7{fill:url(#SVGID_00000157278857959135571770000008222242794780162486_);}
	.st8{fill:#F3B344;}
	.st9{fill:#E5A03C;}
	.st10{fill:#0046A4;}
	.st11{fill:url(#SVGID_00000064333785416723522050000011290111986303113600_);}
	.st12{fill:#F7F7F7;}
	.st13{fill:#E4E5EA;}
	.st14{fill:#DDDDDD;}
	.st15{opacity:0.35;}
	.st16{fill:#D1CBCB;}
	.st17{fill:url(#SVGID_00000045579319284374933900000017278333197296403331_);}
	.st18{fill:url(#SVGID_00000183942744604389716530000013755482434363074207_);}
	.st19{fill:url(#SVGID_00000033363776234092080000000003734205593170599570_);}
	.st20{fill:#3885C6;}
	.st21{fill:#FFFFFF;}
	.st22{fill:#252A6C;}
	.st23{fill:#0F3757;}
	.st24{fill:#000006;}
	.st25{fill:#D37383;}
	.st26{fill:#031F38;}
	.st27{fill:#FFDDB5;}
	.st28{fill:#322B7D;}
	.st29{fill:#3CA2E9;}
	.st30{fill:#242353;}
	.st31{fill:#141433;}
	.st32{fill:#1B1941;}
	.st33{fill:#211C55;}
	.st34{fill:#2B85C2;}
	.st35{fill:#DC8744;}
	.st36{fill:#3EA5EB;}
</style>
<metadata>
	<sfw  xmlns="&ns_sfw;">
		<slices></slices>
		<sliceSourceBounds  bottomLeftOrigin="true" height="330" width="600" x="0" y="0"></sliceSourceBounds>
	</sfw>
</metadata>
<rect class="st0" width="600" height="330"/>
<g>
	<path class="st1" d="M572.8,291c0,5.4-58.7,4.1-133.5,4.1s-137.5,1.3-137.5-4.1c0-5.4,62.7-6.6,137.5-6.6S572.8,285.7,572.8,291z"
		/>
	<g>
		<defs>
			
				<rect id="SVGID_1_" x="496.1" y="179.3" transform="matrix(0.1594 -0.9872 0.9872 0.1594 238.7079 657.4621)" width="18.6" height="18.6"/>
		</defs>
		<clipPath id="SVGID_00000152985781439700404410000012956755361371051692_">
			<use xlink:href="#SVGID_1_"  style="overflow:visible;"/>
		</clipPath>
		<g style="clip-path:url(#SVGID_00000152985781439700404410000012956755361371051692_);">
			<path class="st3" d="M514.6,190c-0.4,2.5-1.8,4.6-3.7,6c-1.9,1.4-4.4,2.1-7,1.7l0,0c-2.5-0.4-4.7-1.8-6.1-3.8
				c-1.4-1.9-2-4.4-1.6-6.9c0.8-5.1,5.6-8.5,10.7-7.7C511.9,180.2,515.4,185,514.6,190"/>
			<path class="st0" d="M513.2,189.8c-0.3,2.2-1.5,4-3.2,5.2c-1.7,1.2-3.8,1.8-6,1.4l0,0c-2.2-0.4-4-1.6-5.2-3.2
				c-1.2-1.6-1.7-3.7-1.4-5.9c0.7-4.3,4.8-7.3,9.1-6.6C511,181.4,513.9,185.5,513.2,189.8"/>
			<path class="st3" d="M506.6,182.9c0.3,0.1,0.5,0.2,0.8,0.3c1.5,0.7,2.3,2.4,1.9,4c-0.4,1.7-1.8,2.8-3.5,2.8
				c-2.1,0-3.7-1.7-3.6-3.8c0.1-2,1.8-3.5,3.8-3.4c0,0,0.1,0,0.1,0L506.6,182.9L506.6,182.9z"/>
			<path class="st3" d="M510.1,195c-1.7,1.2-3.8,1.8-6,1.4l0,0c-2.2-0.4-4-1.6-5.2-3.2c0.9-1.6,2.6-2.6,4.5-2.6c0.2,0,0.5,0,0.7,0.1
				c0.6,0.1,1.1,0.2,1.7,0.3C507.9,191.3,509.6,192.9,510.1,195"/>
		</g>
	</g>
	<path class="st4" d="M514.2,197.1c0,0,0.4-4.5-1.9-3.8c-2.3,0.7-2,1.4-1.9,2.2c0.1,0.8,2.3,1.1,2.3,1.6c0,0.5,2.7,6.9,4.7,9.1
		s4.4,3.9,7-0.5l-1.8-4.2l-2,2.8C520.7,204.3,516.8,201.1,514.2,197.1L514.2,197.1z"/>
	<polygon class="st5" points="410.5,182.9 372.8,182.9 372.8,153.1 372.8,150.5 380.3,150.5 383.7,153.1 410.5,153.1 	"/>
	<rect x="374.1" y="155.9" class="st6" width="35.2" height="1.8"/>
	<path class="st5" d="M373.1,157.7h36.2c1.7,0,3,1.4,3,3v19.2c0,1.7-1.4,3-3,3h-36.2c-1.7,0-3-1.4-3-3v-19.2
		C370.1,159,371.4,157.7,373.1,157.7z"/>
	
		<linearGradient id="SVGID_00000075129001266620593350000012642715314013438138_" gradientUnits="userSpaceOnUse" x1="370.0903" y1="160.4334" x2="411.0294" y2="160.4334" gradientTransform="matrix(1 0 0 -1 0 330)">
		<stop  offset="0" style="stop-color:#29A9E1"/>
		<stop  offset="0.24" style="stop-color:#2A91D0"/>
		<stop  offset="0.76" style="stop-color:#2D54A4"/>
		<stop  offset="1" style="stop-color:#2F368F"/>
	</linearGradient>
	<path style="fill:url(#SVGID_00000075129001266620593350000012642715314013438138_);" d="M373,157.7h35.2c1.6,0,2.9,1.3,2.9,2.9v18
		c0,1.6-1.3,2.9-2.9,2.9H373c-1.6,0-2.9-1.3-2.9-2.9v-18C370.1,159,371.4,157.7,373,157.7z"/>
	<polygon class="st8" points="411.3,185.9 378.5,185.9 378.5,159.9 378.5,157.7 385,157.7 388,159.9 411.3,159.9 	"/>
	<rect x="379.6" y="162.3" class="st6" width="30.6" height="1.6"/>
	<path class="st9" d="M378.8,163.9h31.5c1.5,0,2.6,1.2,2.6,2.6v16.8c0,1.5-1.2,2.6-2.6,2.6h-31.5c-1.5,0-2.6-1.2-2.6-2.6v-16.8
		C376.1,165,377.3,163.9,378.8,163.9z"/>
	<path class="st8" d="M378.7,163.9h30.6c1.4,0,2.5,1.1,2.5,2.5v15.7c0,1.4-1.1,2.5-2.5,2.5h-30.6c-1.4,0-2.5-1.1-2.5-2.5v-15.7
		C376.1,165,377.3,163.9,378.7,163.9z"/>
	<path class="st10" d="M427.6,164.5h23.9c1,0,1.8,0.8,1.8,1.8V178c0,1-0.8,1.8-1.8,1.8h-23.9c-1,0-1.8-0.8-1.8-1.8v-11.7
		C425.8,165.3,426.6,164.5,427.6,164.5z"/>
	
		<linearGradient id="SVGID_00000146487204663654524100000009001659995326475453_" gradientUnits="userSpaceOnUse" x1="426.1079" y1="170.2138" x2="453.0682" y2="170.2138" gradientTransform="matrix(1 0 0 -1 0 330)">
		<stop  offset="0" style="stop-color:#29A9E1"/>
		<stop  offset="0.24" style="stop-color:#2A91D0"/>
		<stop  offset="0.76" style="stop-color:#2D54A4"/>
		<stop  offset="1" style="stop-color:#2F368F"/>
	</linearGradient>
	<path style="fill:url(#SVGID_00000146487204663654524100000009001659995326475453_);" d="M439.6,154.8L439.6,154.8l-13.4,9.7
		c-0.1,0.1-0.1,0.2,0.1,0.2h26.7c0.1,0,0.2-0.2,0.1-0.2C453,164.5,439.6,154.8,439.6,154.8z"/>
	<rect x="431.8" y="157.7" class="st12" width="15.6" height="18.7"/>
	<polygon class="st13" points="447.4,163 447.4,176.4 431.8,176.4 431.8,173 	"/>
	<rect x="434.1" y="160.1" class="st14" width="10.9" height="0.5"/>
	<g class="st15">
		<path class="st16" d="M445.5,164h-9.2c-0.4,0-0.6-0.3-0.6-0.6l0,0c0-0.3,0.3-0.6,0.6-0.6h9.2c0.4,0,0.6,0.3,0.6,0.6l0,0
			C446.2,163.7,445.9,164,445.5,164z"/>
		<path class="st16" d="M445.6,167h-9.3c-0.3,0-0.6-0.3-0.6-0.6l0,0c0-0.3,0.3-0.6,0.6-0.6h9.3c0.3,0,0.6,0.3,0.6,0.6l0,0
			C446.2,166.7,445.9,167,445.6,167z"/>
		<path class="st14" d="M433.7,165.6h0.6c0.3,0,0.6,0.2,0.6,0.6v0.4c0,0.3-0.2,0.6-0.6,0.6h-0.6c-0.3,0-0.6-0.2-0.6-0.6v-0.4
			C433.1,165.8,433.3,165.6,433.7,165.6z"/>
		<path class="st14" d="M433.7,168.6h0.6c0.3,0,0.6,0.2,0.6,0.6v0.4c0,0.3-0.2,0.6-0.6,0.6h-0.6c-0.3,0-0.6-0.2-0.6-0.6v-0.4
			C433.1,168.8,433.3,168.6,433.7,168.6z"/>
		<path class="st14" d="M433.6,171.5h0.7c0.3,0,0.5,0.2,0.5,0.5v0.5c0,0.3-0.2,0.5-0.5,0.5h-0.7c-0.3,0-0.5-0.2-0.5-0.5V172
			C433.1,171.8,433.3,171.5,433.6,171.5z"/>
		<path class="st14" d="M433.7,162.6h0.6c0.3,0,0.6,0.2,0.6,0.6v0.4c0,0.3-0.2,0.6-0.6,0.6h-0.6c-0.3,0-0.6-0.2-0.6-0.6v-0.4
			C433.1,162.9,433.3,162.6,433.7,162.6z"/>
		<path class="st16" d="M445.5,169.9h-9.2c-0.4,0-0.6-0.3-0.6-0.6l0,0c0-0.3,0.3-0.6,0.6-0.6h9.2c0.4,0,0.6,0.3,0.6,0.6l0,0
			C446.2,169.7,445.9,169.9,445.5,169.9z"/>
		<path class="st16" d="M445.5,172.9h-9.2c-0.4,0-0.6-0.3-0.6-0.6l0,0c0-0.3,0.3-0.6,0.6-0.6h9.2c0.4,0,0.6,0.3,0.6,0.6l0,0
			C446.2,172.6,445.9,172.9,445.5,172.9z"/>
	</g>
	<path class="st10" d="M447.7,171.5l-2.4,1.4l-1.3-1l-0.5,0.6l-3.9,2.8l-3.8-2.8l-0.7-0.6l-1.3,1l-2.4-1.4c-0.2,0-0.3,0.2-0.3,0.5
		v6.6c0,0.3,0.1,0.5,0.3,0.5h16.2c0.2,0,0.3-0.2,0.3-0.5V172C448,171.7,447.8,171.5,447.7,171.5L447.7,171.5z"/>
	
		<linearGradient id="SVGID_00000106145841758375885270000006315612912008784814_" gradientUnits="userSpaceOnUse" x1="425.8442" y1="157.9872" x2="435.1552" y2="157.9872" gradientTransform="matrix(1 0 0 -1 0 330)">
		<stop  offset="0" style="stop-color:#29A9E1"/>
		<stop  offset="0.24" style="stop-color:#2A91D0"/>
		<stop  offset="0.76" style="stop-color:#2D54A4"/>
		<stop  offset="1" style="stop-color:#2F368F"/>
	</linearGradient>
	<path style="fill:url(#SVGID_00000106145841758375885270000006315612912008784814_);" d="M435.2,171.9l-9.3-7
		c0,0.1-0.1,0.2-0.1,0.3v13.9L435.2,171.9L435.2,171.9z"/>
	
		<linearGradient id="SVGID_00000132790073887188166130000015943643440747870867_" gradientUnits="userSpaceOnUse" x1="444.0011" y1="157.9872" x2="453.3293" y2="157.9872" gradientTransform="matrix(1 0 0 -1 0 330)">
		<stop  offset="0" style="stop-color:#29A9E1"/>
		<stop  offset="0.24" style="stop-color:#2A91D0"/>
		<stop  offset="0.76" style="stop-color:#2D54A4"/>
		<stop  offset="1" style="stop-color:#2F368F"/>
	</linearGradient>
	<path style="fill:url(#SVGID_00000132790073887188166130000015943643440747870867_);" d="M453.3,179.1v-13.9c0-0.1,0-0.2-0.1-0.3
		l-9.3,7L453.3,179.1L453.3,179.1z"/>
	
		<linearGradient id="SVGID_00000183208991256480755630000001569571696515514009_" gradientUnits="userSpaceOnUse" x1="426.5591" y1="153.8399" x2="453.1053" y2="153.8399" gradientTransform="matrix(1 0 0 -1 0 330)">
		<stop  offset="0" style="stop-color:#29A9E1"/>
		<stop  offset="0.24" style="stop-color:#2A91D0"/>
		<stop  offset="0.76" style="stop-color:#2D54A4"/>
		<stop  offset="1" style="stop-color:#2F368F"/>
	</linearGradient>
	<path style="fill:url(#SVGID_00000183208991256480755630000001569571696515514009_);" d="M452.6,179.8c0.2,0,0.3-0.1,0.5-0.2
		l-9.6-7.1l-3.9,2.8l-3.8-2.8l-9.3,7.3H452.6z"/>
	<path class="st20" d="M398.3,168.8l3-13.9c0.2-0.8,0.9-1.2,1.7-1.1l21.7,4.7c0.8,0.2,1.2,0.9,1.1,1.7l-3,13.9
		c-0.2,0.8-0.9,1.2-1.7,1.1l-21.7-4.7C398.6,170.3,398.2,169.6,398.3,168.8z"/>
	<path class="st21" d="M398.5,167.9l2.8-13c0.2-0.7,0.9-1.2,1.6-1l21.2,4.6c0.7,0.2,1.2,0.9,1,1.6l-2.8,13c-0.2,0.7-0.9,1.2-1.6,1
		l-21.2-4.6C398.8,169.3,398.4,168.6,398.5,167.9z"/>
	<path class="st20" d="M416.6,164.4l-2.8,2.4l-3.3-7l-12,8.5c0,0.6,0.5,1.2,1.3,1.3l20.8,4.5c0.8,0.2,1.6-0.2,1.8-0.8l0.3-1.6
		L416.6,164.4L416.6,164.4z"/>
	<path class="st20" d="M420.7,161.6c-0.2,0.7-0.9,1.2-1.7,1.1c-0.8-0.2-1.2-0.9-1.1-1.7c0.2-0.7,0.9-1.2,1.7-1.1
		S420.9,160.9,420.7,161.6z"/>
	<path class="st3" d="M367.3,168.7l12.8,119c0.2,1.9,1.8,3.3,3.6,3.3h81.9c1.9,0,3.4-1.4,3.6-3.2l13.5-119L367.3,168.7L367.3,168.7z
		"/>
	<path class="st1" d="M425,277c-2.2,0-4-1.8-4-4v-87.9c0-2.2,1.8-4,4-4c2.2,0,4,1.8,4,4V273C429,275.2,427.2,277,425,277z"/>
	<path class="st1" d="M403,276.7c-2.2,0.3-4.2-1.3-4.4-3.5L387.8,186c-0.3-2.2,1.3-4.2,3.5-4.4c2.2-0.3,4.2,1.3,4.4,3.5l10.7,87.2
		C406.7,274.4,405.1,276.4,403,276.7L403,276.7z"/>
	<path class="st1" d="M446.4,276.7c2.2,0.3,4.2-1.3,4.4-3.5l10.7-87.2c0.3-2.2-1.3-4.2-3.5-4.4c-2.2-0.3-4.2,1.3-4.4,3.5l-10.7,87.2
		C442.7,274.4,444.2,276.4,446.4,276.7L446.4,276.7z"/>
	<path class="st1" d="M448.7,151.5l-5.5-1.6l2.3-7.9c0.2-0.7-0.2-1.4-0.9-1.6l-25.1-7.2c-0.7-0.2-1.4,0.2-1.6,0.9l-2.3,7.9l-5.5-1.6
		l2.3-7.9c1.1-3.9,5-6.2,8.7-5.1l25.1,7.2c3.7,1.1,5.8,5.1,4.7,8.9L448.7,151.5L448.7,151.5z"/>
	<path class="st3" d="M488.3,162.8l-114.4-32.7c-1.2-0.4-2.5,0.4-2.9,1.6l-2.8,9.9c-0.4,1.2,0.4,2.5,1.6,2.9l114.4,32.7
		c1.2,0.4,2.5-0.4,2.9-1.6l2.8-9.9C490.2,164.4,489.5,163.1,488.3,162.8L488.3,162.8z"/>
	<polygon class="st8" points="572.8,229.8 557.5,233.3 554.8,221.2 554.5,220.2 557.5,219.5 559.2,220.2 570,217.7 	"/>
	
		<rect x="555.4" y="220.6" transform="matrix(0.9745 -0.2243 0.2243 0.9745 -35.2168 131.8317)" class="st6" width="14.6" height="0.7"/>
	<path class="st9" d="M554.6,223.2l16.2-3.7c0.3-0.1,0.5,0.1,0.6,0.4l2.1,9.3c0.1,0.3-0.1,0.5-0.4,0.6l-16.2,3.7
		c-0.3,0.1-0.5-0.1-0.6-0.4l-2.1-9.3C554.1,223.5,554.3,223.3,554.6,223.2z"/>
	<path class="st8" d="M554.5,223.2l15.7-3.6c0.2-0.1,0.5,0.1,0.5,0.3l2,8.7c0.1,0.2-0.1,0.5-0.3,0.5l-15.7,3.6
		c-0.2,0.1-0.5-0.1-0.5-0.3l-2-8.7C554.1,223.5,554.3,223.3,554.5,223.2z"/>
	<path class="st22" d="M528.3,197.3c0,0-3.1-5.4-2.6-11.4c0.5-6,0.1-7.1,1.8-8.8c1.7-1.7,5.1-2.9,7.2-2.2c2.1,0.8,3.4,3.4,4.2,4.8
		c1.5,2.4,2.3,5.3,2.5,8s-0.7,4.8,0.7,7.9c1.5,3.3,1.9,6.8,1.6,9.3c-0.3,2.5-3.3,8.7-6.7,7.6c-3.4-1.1-7.4-15.9-7.4-15.9
		L528.3,197.3L528.3,197.3z"/>
	<path class="st4" d="M530.2,194.4c0,0,0.7-2.3,0-2.8c-0.7-0.6-2.9-0.6-3.3-3.1c-0.4-2.5-0.4-6.5,0.7-8.2c0,0,3.1,2.7,5.6,2.9
		c0,0,0.8,5.3,0.8,6.5v1.7c0,0,1.2,0.8,1.7,1.4c0.9,1.1-1.3,6.1-3.1,5.7c-1.7-0.4-2.9-1.9-2.9-1.9L530.2,194.4L530.2,194.4z"/>
	<path class="st23" d="M528.2,220.6c0,0-6,22.9-8.9,33.8c-2.9,10.9-6.3,26.4-6.3,26.4h3.2c0,0,11-14.6,9-28.1c0,0,5-4,6.4-7
		C533.1,242.7,530.3,221.6,528.2,220.6L528.2,220.6z"/>
	<path class="st23" d="M528.2,220.6c0,0,4.1,29.6,4.7,32.6c0,0,4.4,26.8,5.2,29.4h3.4c0,0,3.6-21.3-2.2-31c0,0,7.7-23.6-1-31H528.2
		L528.2,220.6z"/>
	<path class="st24" d="M513,280.7c0,0-3.2,4.5-5.2,4.5s-4.8,0.7-3.2,2.9h4c0,0,3.6-1.3,4.5-4.4l0.5,0.1v4.2h1c0,0,2.1-5.9,1.7-7.4
		L513,280.7L513,280.7z"/>
	<path class="st24" d="M538,282.6c0,0-1.9,5.2-3.9,5.7c-2,0.5-4.4,2-2.3,3.7l3.8-1.1c0,0,3.5-2.2,3.6-5.4l0.4,0.1l0.8,4l1,0
		c0,0,0.5-5.6,0-7L538,282.6L538,282.6z"/>
	<path class="st4" d="M542,205.5c0,0,7.9,11.3,14.6,13.2c0,0,3.2,0.1,2.9,1.5c-0.3,1.4,1.7,1.6,2.8,0.4c1.1-1.2,0.1-3.9-3.6-3.2
		c0,0-6.1-3.7-8.4-7.2c-2.3-3.5-6-7.9-6-7.9L542,205.5L542,205.5z"/>
	<path class="st25" d="M536,192.8c-0.2-0.1-0.4-0.2-0.6-0.2c-0.3,3.6-2.5,6-4,4.9c-1.3-1-1.8-1.4-1.4-2.7c0.6-1.9,0.8-3.2,0-2.6
		c-0.1,0.1-0.2,0.1-0.2,0.1s-5.4,3.8-7.4,8.3c0,0-0.1,2.5,2.3,5.6l2-2.6c0,0-0.4,4.2,0.3,7.1c0.7,2.9,1,9.8,1,9.8h10.1
		c0,0-2-8.5-1.2-10.9c0.8-2.4,2.2-5.9,2.2-5.9l2.4,2.3l3.2-4.5C544.8,201.5,539.7,194.6,536,192.8L536,192.8z"/>
	<path class="st26" d="M531.7,245.6L531.7,245.6l-2.4-16.8c-0.2-1.8,0.7-3.5,2.4-4.2l7.4-3.2c0,0,0,0,0,0c-0.2-0.2-0.5-0.5-0.9-0.8
		h-9.9c0,0-0.9,3.5-2.2,8.5l5.4,17.1C531.5,246,531.6,245.8,531.7,245.6L531.7,245.6c0.1,1,0.2,1.9,0.4,2.7L531.7,245.6L531.7,245.6
		z"/>
	<path class="st27" d="M334.9,191.9c0,0,1.2-0.9,1.3-1.7c0.1-0.7,0.1-0.4,0.1-0.7c0-0.1,0-0.3,0-0.3s0.2-1.8,0.7-2.1
		c0.5-0.3,0.8,0.1,0.5,1.1c-0.3,1,1,1.4,1.7-0.1c0.8-1.5,2-2.9,2.2-2.4c0.2,0.5-0.6,1.7-0.6,1.7s0,0,0.2-0.3c0.2-0.3,0.4-1.2,0.6-1
		c0.1,0.2,1.1,1.1,0.3,3.2c-0.8,2.1-2.1,2.6-2.6,2.9s-2.1,1.8-2.4,2.4C336.8,194.6,334.3,193,334.9,191.9L334.9,191.9z"/>
	<path class="st27" d="M325,182.7c0,0,1.3,4.1,1.3,6.6c0,2.5-3.8,4.4-3.8,4.4v2.2h-7.4c0,0,0.1-1.2,0-1.7
		C315,193.7,320.5,183,325,182.7L325,182.7z"/>
	<path class="st28" d="M318.8,282.3h-6.3c0,0,0.6-16.3,3.1-24.5c0,0-2.2-9.7-2.8-16c0,0-1.9-3.1-1.3-11.3l17.6-0.6
		c0,0,4.4,20.7,5,24.5c0.6,3.8-3.8,23.2-3.8,28.3h-6.9c0,0,0.6-18.8,3.1-24.5c0,0-3.1-5-5-8.2c0,0,1.3,10.1,0.6,11.9
		C321.6,263.7,319.1,275.7,318.8,282.3L318.8,282.3z"/>
	<polygon class="st29" points="329.1,197 335.4,190.9 337.9,193.4 335.3,197.4 	"/>
	<path class="st30" d="M322.2,261.8c0.6-1.9-0.6-11.9-0.6-11.9c0.2,0.3,0.4,0.6,0.6,1l0,0c0.3-5-3.4-10.1-3.4-10.1
		c2.5,10.7,1.3,17.6,0,22.6c-1.3,5-2.1,18.8-2.1,18.8h2.1C319.1,275.7,321.6,263.7,322.2,261.8L322.2,261.8z"/>
	<path class="st31" d="M312.5,282.3c0,0-0.9,7.5,0.3,8.2c1.3,0.6,14.4-0.6,14.4-0.6s1.3-1.9-0.6-2.5c-1.9-0.6-8.1-2.5-8.8-5H312.5
		L312.5,282.3z"/>
	<path class="st32" d="M324.4,282.6c0,0-0.9,7.5,0.3,8.2c1.3,0.6,14.4-0.6,14.4-0.6s1.3-1.9-0.6-2.5s-8.1-2.5-8.8-5L324.4,282.6
		L324.4,282.6z"/>
	<path class="st33" d="M327.6,178c-0.9,0.9-3.5,0.9-3.5,0.9c1.3-0.6,1.3-1.9,1.3-1.9c-1.9,1.3-5.3-0.3-9.1-0.3c-3.8,0-5,3.8-5,3.8
		c-0.6-0.6-0.6-1.3-0.6-1.3c-0.6,1.3,0,2.5,0,2.5c-0.6-0.6-1.9,0.6-1.9,0.6c0.6,0,1.3,0.6,1.3,0.6c-0.6,3.8,2.2,7.2,3.5,7.8
		c1.3,0.6,0.6,2.5,1.3,3.1c0.6,0.6,6,0.3,7.2-0.9c1.3-1.3,0.6-8.2,0.6-8.2c1.3,0,1.9,2.5,1.9,2.5c0.6-1.9-0.6-3.5-0.6-3.5
		C326.6,181.4,327.6,178,327.6,178L327.6,178z"/>
	<polygon class="st34" points="335.3,197.4 337.9,193.4 337.1,192.6 333.7,197.3 	"/>
	<path class="st35" d="M335.2,179.8l24.8-10.5c0.4-0.2,0.8,0,0.9,0.4l5.6,13.2c0.2,0.4,0,0.8-0.4,0.9l-24.8,10.5
		c-0.4,0.2-0.8,0-0.9-0.4l-5.6-13.2C334.7,180.4,334.9,180,335.2,179.8z"/>
	<polygon class="st35" points="346.4,183.4 347.3,183.6 352,184.8 354.6,180.6 354.8,179.8 358.5,180.8 353.6,187.1 345.4,185.2 	
		"/>
	<path class="st8" d="M346.4,183.4l-11.6-2.9c0,0.1,0,0.2,0.1,0.3l5.6,13.2L346.4,183.4L346.4,183.4z"/>
	<path class="st8" d="M366.5,182.9l-5.6-13.2c0-0.1-0.1-0.2-0.2-0.2l-6,10.4L366.5,182.9L366.5,182.9z"/>
	<path class="st8" d="M366.2,183.8c0.2-0.1,0.3-0.2,0.4-0.4l-11.9-2.9l-2.6,4.2l-4.7-1.1l-5.9,10.7L366.2,183.8L366.2,183.8z"/>
	<path class="st8" d="M351.6,184L351.6,184l-16.6-3.8c-0.1,0-0.1-0.2,0-0.2l25.3-10.8c0.1-0.1,0.2,0.1,0.2,0.2L351.6,184L351.6,184z
		"/>
	<path class="st27" d="M345.5,191.7c0,0,1.3-0.8,1.5-1.5c0.2-0.7,0.1-0.4,0.2-0.7c0-0.1,0.1-0.3,0.1-0.3s0.4-1.8,0.9-2
		c0.5-0.2,0.7,0.2,0.4,1.1c-0.4,0.9,0.8,1.5,1.7,0.1c0.9-1.4,2.4-2.7,2.5-2.1c0.2,0.6-0.8,1.6-0.8,1.6s0,0,0.3-0.2
		c0.2-0.3,0.6-1.1,0.7-1c0.1,0.2,1,1.2-0.1,3.2c-1.1,1.9-2.4,2.3-3,2.6c-0.5,0.2-2.3,1.5-2.7,2.1
		C347.1,194.6,344.8,192.7,345.5,191.7L345.5,191.7z"/>
	<path class="st36" d="M322.8,195.9h-8.8c0,0-4.4,1.3-5,6.9c-0.6,5.7,3.1,15.1,2.5,18.8c-0.6,3.8-2.1,9.7-0.1,10.5
		c2,0.8,15.2,0.2,17.7-2.4c2.5-2.5-2.5-10.1-1.9-13.8s0.6-11.3,0.6-11.3s11.3-0.6,13.8-2.5c2.5-1.9,7.5-8.8,7.5-8.8l-2.5-3.1
		c0,0-5,3.8-7.5,7.5c0,0-12.6-1.3-15.1-0.6L322.8,195.9L322.8,195.9z"/>
	<path class="st34" d="M327.9,204.7c0,0,11.3-0.6,13.8-2.5c2.5-1.9,7.5-8.8,7.5-8.8l-0.8-1c-1.9,2-6.4,7.1-7.4,8.5
		c-1.3,1.9-10.1,1.9-13.2,1.9c-3.1,0-6.3-2.5-6.3-2.5s1.9,1.9,3.1,6.9s-0.6,6.9-0.6,10.1c0,3.1,1.9,3.1,1.9,8.8c0,3-2.9,5-5.6,6.1
		c3.8-0.4,7.5-1.2,8.8-2.4c2.5-2.5-2.5-10.1-1.9-13.8C327.9,212.2,327.9,204.7,327.9,204.7L327.9,204.7z"/>
</g>
</svg>
