<?xml version="1.0" encoding="UTF-8"?><svg id="SSL_ILLUSTRATION" xmlns="http://www.w3.org/2000/svg" xmlns:xlink="http://www.w3.org/1999/xlink" viewBox="0 0 2560 520"><defs><style>.cls-1{fill:#d1cbcb;}.cls-1,.cls-2,.cls-3,.cls-4,.cls-5,.cls-6,.cls-7,.cls-8,.cls-9,.cls-10,.cls-11,.cls-12,.cls-13,.cls-14,.cls-15,.cls-16,.cls-17,.cls-18,.cls-19,.cls-20,.cls-21,.cls-22,.cls-23,.cls-24,.cls-25,.cls-26,.cls-27,.cls-28,.cls-29,.cls-30,.cls-31,.cls-32,.cls-33,.cls-34,.cls-35,.cls-36{stroke-width:0px;}.cls-2{fill:#031f38;}.cls-3{fill:url(#linear-gradient);}.cls-4{fill:#2b85c2;}.cls-5{fill:#e5a03c;}.cls-6{fill:#0f3757;}.cls-7{fill:#f5c1ca;}.cls-8{fill:#f7f7f7;}.cls-9{fill:#242353;}.cls-10{fill:#0d72b9;}.cls-11{fill:#211c55;}.cls-12{fill:url(#linear-gradient-5);}.cls-37{opacity:.35;}.cls-13{fill:none;}.cls-14{fill:#dc8744;}.cls-15{fill:#1b1941;}.cls-16{fill:#e4e5ea;}.cls-17{fill:#f3b344;}.cls-18{fill:#ddd;}.cls-19{fill:#bfbfbf;}.cls-20{fill:#ffddb5;}.cls-21{fill:#000006;}.cls-22{fill:#3ca2e9;}.cls-23{fill:#fff;}.cls-24{fill:url(#linear-gradient-2);}.cls-25{fill:#0046a4;}.cls-26{fill:#f60;}.cls-27{fill:url(#linear-gradient-3);}.cls-28{fill:#f1f2f2;}.cls-38{clip-path:url(#clippath);}.cls-29{fill:#3ea5eb;}.cls-30{fill:#d37383;}.cls-31{fill:#f1f1f1;}.cls-32{fill:#141433;}.cls-33{fill:#3885c6;}.cls-34{fill:url(#linear-gradient-4);}.cls-35{fill:#252a6c;}.cls-36{fill:#322b7d;}</style><clipPath id="clippath"><rect class="cls-13" x="1763.43" y="188.87" width="43.19" height="43.19" transform="translate(1292.92 1939.18) rotate(-80.83)"/></clipPath><linearGradient id="linear-gradient" x1="1470.92" y1="166.4" x2="1565.98" y2="166.4" gradientUnits="userSpaceOnUse"><stop offset="0" stop-color="#29a9e1"/><stop offset=".24" stop-color="#2a91d0"/><stop offset=".76" stop-color="#2d54a4"/><stop offset="1" stop-color="#2f368f"/></linearGradient><linearGradient id="linear-gradient-2" x1="1600.98" y1="143.69" x2="1663.58" y2="143.69" xlink:href="#linear-gradient"/><linearGradient id="linear-gradient-3" x1="1600.37" y1="172.07" x2="1622" y2="172.07" xlink:href="#linear-gradient"/><linearGradient id="linear-gradient-4" x1="1642.53" y1="172.08" x2="1664.19" y2="172.08" xlink:href="#linear-gradient"/><linearGradient id="linear-gradient-5" x1="1602.04" y1="181.7" x2="1663.67" y2="181.7" xlink:href="#linear-gradient"/></defs><rect class="cls-26" width="2560" height="520"/><path class="cls-19" d="m1941.5,448.45c0,12.43-136.24,9.49-310.05,9.49s-319.35,2.94-319.35-9.49,145.55-15.32,319.35-15.32,310.05,2.89,310.05,15.32Z"/><g class="cls-38"><path class="cls-31" d="m1806.35,213.91c-.94,5.85-4.15,10.77-8.59,14-4.49,3.28-10.25,4.83-16.17,3.88h0c-5.93-.96-10.9-4.24-14.13-8.77-3.19-4.47-4.69-10.15-3.75-16,1.9-11.78,12.98-19.78,24.76-17.88,11.78,1.9,19.78,12.98,17.88,24.76"/><path class="cls-26" d="m1803.26,213.41c-.81,5-3.55,9.2-7.34,11.97-3.84,2.8-8.76,4.13-13.83,3.32h0c-5.07-.82-9.32-3.62-12.08-7.49-2.73-3.82-4.01-8.68-3.21-13.68,1.62-10.07,11.1-16.91,21.17-15.29s16.91,11.1,15.29,21.17"/><path class="cls-31" d="m1787.83,197.38c.6.24,1.24.43,1.81.72,3.42,1.74,5.25,5.68,4.36,9.32-.95,3.87-4.27,6.53-8.18,6.53-4.83,0-8.66-4.06-8.38-8.89.27-4.59,4.22-8.13,8.79-7.88.08,0,.16,0,.24-.01l1.35.22Z"/><path class="cls-31" d="m1795.92,225.38c-3.84,2.8-8.76,4.13-13.83,3.32h0c-5.07-.82-9.32-3.62-12.08-7.5,2.16-3.6,6.1-5.96,10.5-5.97.54,0,1.08.04,1.61.12,1.33.2,2.66.41,3.99.64,4.89.84,8.77,4.61,9.81,9.39"/></g><path class="cls-7" d="m1805.47,230.22s1.01-10.48-4.4-8.79c-5.41,1.69-4.73,3.21-4.4,5.07.34,1.86,5.41,2.54,5.41,3.72s6.26,16.08,10.82,21.23c4.57,5.15,10.22,9.06,16.36-1.18l-4.16-9.74-4.58,6.43s-8.96-7.27-15.05-16.74Z"/><polygon class="cls-10" points="1564.67 197.48 1477.15 197.48 1477.15 128.11 1477.15 122.21 1494.55 122.21 1502.6 128.11 1564.67 128.11 1564.67 197.48"/><rect class="cls-28" x="1480.2" y="134.63" width="81.61" height="4.13"/><path class="cls-10" d="m1474.43,138.75h91.14c1.94,0,3.51,1.57,3.51,3.51v51.7c0,1.94-1.57,3.51-3.51,3.51h-91.14c-1.94,0-3.51-1.57-3.51-3.51v-51.7c0-1.94,1.57-3.51,3.51-3.51Z"/><rect class="cls-3" x="1470.92" y="138.75" width="95.06" height="55.29" rx="3.35" ry="3.35"/><polygon class="cls-17" points="1566.59 204.28 1490.39 204.28 1490.39 143.88 1490.39 138.75 1505.54 138.75 1512.55 143.88 1566.59 143.88 1566.59 204.28"/><rect class="cls-28" x="1493.05" y="149.56" width="71.06" height="3.59"/><rect class="cls-5" x="1484.97" y="153.15" width="85.47" height="51.13" rx="3.06" ry="3.06"/><path class="cls-17" d="m1487.89,153.15h76.93c1.61,0,2.92,1.31,2.92,2.92v42.3c0,1.61-1.31,2.92-2.92,2.92h-76.93c-1.61,0-2.92-1.31-2.92-2.92v-42.3c0-1.61,1.31-2.92,2.92-2.92Z"/><path class="cls-25" d="m1602.45,154.7h59.66c1.15,0,2.08.93,2.08,2.08v31.3c0,1.15-.93,2.08-2.08,2.08h-59.66c-1.15,0-2.08-.93-2.08-2.08v-31.3c0-1.15.93-2.08,2.08-2.08Z"/><path class="cls-24" d="m1632.28,132.16h0l-31.17,22.53c-.23.17-.11.53.17.53h62.01c.28,0,.4-.37.17-.53l-31.17-22.53Z"/><rect class="cls-8" x="1614.15" y="138.78" width="36.26" height="43.45"/><polygon class="cls-16" points="1650.41 151.18 1650.41 182.23 1614.15 182.23 1614.15 174.46 1650.41 151.18"/><rect class="cls-18" x="1619.54" y="144.53" width="25.25" height="1.13"/><g class="cls-37"><path class="cls-1" d="m1646.04,153.48h-21.29c-.83,0-1.5-.61-1.5-1.37h0c0-.76.67-1.37,1.5-1.37h21.29c.83,0,1.5.61,1.5,1.37h0c0,.76-.67,1.37-1.5,1.37Z"/><path class="cls-1" d="m1646.17,160.35h-21.55c-.76,0-1.37-.61-1.37-1.37h0c0-.76.61-1.37,1.37-1.37h21.55c.76,0,1.37.61,1.37,1.37h0c0,.76-.61,1.37-1.37,1.37Z"/><path class="cls-18" d="m1617.87,157.19h2.74c.36,0,.65.29.65.65v2.27c0,.36-.29.65-.65.65h-2.75c-.36,0-.65-.29-.65-.65v-2.27c0-.36.29-.65.65-.65Z"/><path class="cls-18" d="m1617.87,164.07h2.74c.36,0,.65.29.65.65v2.27c0,.36-.29.65-.65.65h-2.75c-.36,0-.65-.29-.65-.65v-2.27c0-.36.29-.65.65-.65Z"/><path class="cls-18" d="m1617.81,170.94h2.85c.33,0,.6.27.6.6v2.38c0,.33-.27.6-.6.6h-2.85c-.33,0-.6-.27-.6-.6v-2.38c0-.33.27-.6.6-.6Z"/><path class="cls-18" d="m1617.87,150.32h2.74c.36,0,.65.29.65.65v2.27c0,.36-.29.65-.65.65h-2.75c-.36,0-.65-.29-.65-.65v-2.27c0-.36.29-.65.65-.65Z"/><path class="cls-1" d="m1646.04,167.23h-21.29c-.83,0-1.5-.61-1.5-1.37h0c0-.76.67-1.37,1.5-1.37h21.29c.83,0,1.5.61,1.5,1.37h0c0,.76-.67,1.37-1.5,1.37Z"/><path class="cls-1" d="m1646.04,174.1h-21.29c-.83,0-1.5-.61-1.5-1.37h0c0-.76.67-1.37,1.5-1.37h21.29c.83,0,1.5.61,1.5,1.37h0c0,.76-.67,1.37-1.5,1.37Z"/></g><path class="cls-25" d="m1651.1,170.94l-5.64,3.22-2.94-2.25-1.06,1.33-9.02,6.46-8.71-6.46-1.74-1.33-2.92,2.24-5.62-3.21c-.35,0-.63.53-.63,1.18v15.23c0,.65.28,1.18.63,1.18h37.64c.35,0,.63-.53.63-1.18v-15.23c0-.65-.28-1.18-.63-1.18Z"/><path class="cls-27" d="m1622,171.92l-21.5-16.27c-.08.19-.13.4-.13.62v32.23l21.63-16.59Z"/><path class="cls-34" d="m1664.19,188.53v-32.26c0-.23-.05-.44-.14-.64l-21.52,16.29,21.66,16.61Z"/><path class="cls-12" d="m1662.62,190.16c.41,0,.77-.16,1.05-.41l-22.2-16.5-9.02,6.46-8.71-6.46-21.7,16.91h60.58Z"/><path class="cls-33" d="m1551.88,125.64h33.01c1.79,0,3.25,1.46,3.25,3.25v51.65c0,1.79-1.46,3.25-3.25,3.25h-33.01c-1.79,0-3.25-1.46-3.25-3.25v-51.65c0-1.79,1.46-3.25,3.25-3.25Z" transform="translate(1085.99 1655.07) rotate(-77.81)"/><rect class="cls-23" x="1549.36" y="125.06" width="37.11" height="56.66" rx="3.11" ry="3.11" transform="translate(1086.91 1653.56) rotate(-77.81)"/><path class="cls-33" d="m1578.87,154.41l-6.59,5.57-7.67-16.26-27.81,19.8c-.11,1.36,1.13,2.73,2.98,3.13l48.26,10.43c1.97.42,3.81-.4,4.12-1.85l.79-3.66-14.1-17.16Z"/><path class="cls-33" d="m1588.44,147.92c-.38,1.75-2.12,2.85-3.89,2.47-1.77-.38-2.9-2.11-2.52-3.86.38-1.75,2.12-2.85,3.89-2.47,1.77.38,2.9,2.11,2.52,3.86Z"/><path class="cls-31" d="m1464.51,164.36l29.71,276.21c.46,4.31,4.1,7.57,8.43,7.57h190.07c4.31,0,7.94-3.24,8.42-7.52l31.36-276.26h-267.99Z"/><path class="cls-19" d="m1598.5,415.89c-5.12,0-9.26-4.15-9.26-9.26v-203.99c0-5.12,4.15-9.26,9.26-9.26s9.26,4.15,9.26,9.26v203.99c0,5.12-4.15,9.26-9.26,9.26Z"/><path class="cls-19" d="m1547.22,415.06c-5.08.62-9.7-2.99-10.32-8.06l-24.86-202.47c-.62-5.08,2.99-9.7,8.06-10.32,5.08-.62,9.7,2.99,10.32,8.06l24.86,202.47c.62,5.08-2.99,9.7-8.06,10.32Z"/><path class="cls-19" d="m1648.1,415.06c5.08.62,9.7-2.99,10.32-8.06l24.86-202.47c.62-5.08-2.99-9.7-8.06-10.32-5.08-.62-9.7,2.99-10.32,8.06l-24.86,202.47c-.62,5.08,2.99,9.7,8.06,10.32Z"/><path class="cls-19" d="m1653.5,124.43l-12.78-3.65,5.23-18.32c.46-1.62-.42-3.3-1.97-3.74l-58.29-16.65c-1.55-.44-3.18.52-3.65,2.13l-5.23,18.32-12.78-3.65,5.23-18.32c2.57-8.98,11.65-14.3,20.24-11.84l58.29,16.65c8.6,2.45,13.5,11.76,10.94,20.75l-5.23,18.32Z"/><path class="cls-31" d="m1745.3,150.65l-265.58-75.84c-2.85-.81-5.82.84-6.64,3.69l-6.53,22.87c-.81,2.85.84,5.82,3.69,6.64l265.58,75.84c2.85.81,5.82-.84,6.64-3.69l6.53-22.87c.81-2.85-.84-5.82-3.69-6.64Z"/><polygon class="cls-17" points="1941.5 306.29 1906.13 314.42 1899.68 286.38 1899.13 284 1906.16 282.38 1909.96 284.02 1935.05 278.25 1941.5 306.29"/><rect class="cls-28" x="1901.28" y="284.92" width="33.85" height="1.71" transform="translate(-15.24 437.33) rotate(-12.96)"/><rect class="cls-5" x="1900.36" y="286.39" width="40.72" height="24.36" rx="1.1" ry="1.1" transform="translate(-18.04 438.22) rotate(-12.96)"/><rect class="cls-17" x="1900.22" y="286.55" width="39.43" height="22.93" rx="1.05" ry="1.05" transform="translate(-17.94 438.03) rotate(-12.96)"/><path class="cls-35" d="m1838.36,230.8s-7.14-12.56-5.98-26.42c1.17-13.86.25-16.54,4.12-20.42,3.87-3.88,11.85-6.84,16.76-5.08,4.91,1.76,7.83,7.94,9.82,11.09,3.48,5.51,5.3,12.24,5.88,18.53.58,6.28-1.57,11.26,1.63,18.32,3.51,7.74,4.48,15.73,3.73,21.55-.75,5.82-7.67,20.21-15.49,17.72-7.82-2.49-17.29-36.84-17.29-36.84l-3.17,1.56Z"/><path class="cls-7" d="m1842.77,223.97s1.59-5.27,0-6.56c-1.59-1.29-6.77-1.48-7.76-7.21-1-5.73-1-14.97,1.59-19.04,0,0,7.16,6.28,12.94,6.65,0,0,1.79,12.38,1.79,15.15v3.88s2.78,1.81,3.86,3.14c2.04,2.52-3.12,14.23-7.17,13.31-4.05-.92-6.64-4.44-6.64-4.44l1.39-4.9Z"/><path class="cls-6" d="m1837.93,284.84s-13.87,53.09-20.63,78.46c-6.76,25.36-14.54,61.21-14.54,61.21h7.44s25.47-33.88,20.97-65.27c0,0,11.6-9.39,14.93-16.19,3.33-6.8-3.1-55.84-8.17-58.21Z"/><path class="cls-6" d="m1837.93,284.84s9.47,68.65,10.82,75.75c0,0,10.15,62.22,12.17,68.31h7.78s8.45-49.37-5.07-72.03c0,0,17.92-54.78-2.37-72.03h-23.33Z"/><path class="cls-21" d="m1802.76,424.51s-7.44,10.48-12.17,10.48-11.16,1.69-7.44,6.76h9.25s8.33-3.04,10.36-10.15l1.1.3v9.85h2.41s4.82-13.61,3.93-17.25h-7.44Z"/><path class="cls-21" d="m1860.74,428.74s-4.42,12.07-8.99,13.32c-4.57,1.25-10.32,4.57-5.4,8.48l8.93-2.43s8.16-5.2,8.25-12.58l1.01.25,1.8,9.32,2.32.06s1.14-12.94.05-16.25l-7.97-.16Z"/><path class="cls-7" d="m1870.07,249.82s18.25,26.23,33.81,30.62c0,0,7.44.34,6.76,3.55-.68,3.21,3.89,3.72,6.43.85,2.54-2.87.24-9.1-8.29-7.44,0,0-14.2-8.62-19.45-16.74-5.24-8.12-14-18.26-14-18.26l-5.27,7.42Z"/><path class="cls-30" d="m1856.19,220.25c-.43-.21-.85-.39-1.27-.57-.81,8.3-5.92,13.98-9.25,11.48-3.04-2.28-4.09-3.37-3.18-6.19,1.41-4.33,1.92-7.33.03-5.98-.35.15-.54.25-.54.25,0,0-12.56,8.79-17.1,19.28,0,0-.15,5.75,5.26,13.02l4.73-6.09s-.85,9.81.68,16.57c1.52,6.76,2.37,22.83,2.37,22.83h23.33s-4.57-19.78-2.71-25.36c1.86-5.58,5.07-13.7,5.07-13.7l5.58,5.24,7.44-10.48s-11.84-16.06-20.46-20.29Z"/><path class="cls-2" d="m1846.12,343h0s-5.52-39.08-5.52-39.08c-.59-4.14,1.67-8.16,5.51-9.82l17.09-7.37s-.02-.03-.03-.04c-.46-.45-1.24-1.1-2.15-1.85h-23.08s-2.14,8.21-5.15,19.69l12.63,39.77c.26-.43.49-.85.69-1.26,0,0,0,0,0,0,.32,2.23.63,4.34.91,6.27l-.89-6.31Z"/><path class="cls-20" d="m1389.14,218.14s2.73-2.16,2.93-3.89c.18-1.56.14-1.01.18-1.68.01-.23.07-.68.07-.68,0,0,.48-4.27,1.62-4.91,1.14-.64,1.77.2,1.14,2.47-.62,2.26,2.24,3.25,3.99-.15,1.75-3.4,4.66-6.83,5.19-5.56.53,1.27-1.34,3.9-1.34,3.9,0,0,.11.09.55-.6.44-.7.96-2.76,1.28-2.39.32.37,2.59,2.58.64,7.35-1.95,4.77-4.96,6.08-6.14,6.79-1.18.71-4.91,4.11-5.55,5.68,0,0-5.85-3.7-4.56-6.32Z"/><path class="cls-20" d="m1366.15,196.85s3.08,9.53,3.08,15.36-8.75,10.21-8.75,10.21v5.1h-17.23s.27-2.77,0-3.94c-.27-1.17,12.53-26.06,22.9-26.74Z"/><path class="cls-36" d="m1351.73,428.04h-14.58s1.46-37.91,7.29-56.87c0,0-5.1-22.6-6.56-37.19,0,0-4.37-7.29-2.92-26.25l40.83-1.46s10.21,48.12,11.67,56.87c1.46,8.75-8.75,53.96-8.75,65.62h-16.04s1.46-43.75,7.29-56.87c0,0-7.29-11.67-11.67-18.96,0,0,2.92,23.33,1.46,27.71-1.46,4.37-7.29,32.08-8.02,47.39Z"/><polygon class="cls-22" points="1375.71 230.17 1390.38 215.86 1396.21 221.69 1390.05 231.09 1375.71 230.17"/><path class="cls-9" d="m1359.75,380.64c1.46-4.37-1.46-27.71-1.46-27.71.44.73.91,1.5,1.39,2.3h0c.66-11.56-7.95-23.44-7.95-23.44,5.83,24.79,2.92,40.83,0,52.5-2.92,11.67-4.91,43.75-4.91,43.75h4.91c.73-15.31,6.56-43.02,8.02-47.39Z"/><path class="cls-32" d="m1337.15,428.04s-2.19,17.5.73,18.96c2.92,1.46,33.54-1.46,33.54-1.46,0,0,2.92-4.37-1.46-5.83-4.37-1.46-18.82-5.83-20.35-11.67h-12.46Z"/><path class="cls-15" d="m1364.86,428.77s-2.19,17.5.73,18.96c2.92,1.46,33.54-1.46,33.54-1.46,0,0,2.92-4.37-1.46-5.83-4.37-1.46-18.82-5.83-20.35-11.67h-12.46Z"/><path class="cls-11" d="m1372.15,185.97c-2.19,2.19-8.02,2.19-8.02,2.19,2.92-1.46,2.92-4.37,2.92-4.37-4.37,2.92-12.4-.73-21.14-.73s-11.67,8.75-11.67,8.75c-1.46-1.46-1.46-2.92-1.46-2.92-1.46,2.92,0,5.83,0,5.83-1.46-1.46-4.37,1.46-4.37,1.46,1.46,0,2.92,1.46,2.92,1.46-1.46,8.75,5.1,16.77,8.02,18.23,2.92,1.46,1.46,5.83,2.92,7.29,1.46,1.46,13.85.73,16.77-2.19,2.92-2.92,1.46-18.96,1.46-18.96,2.92,0,4.37,5.83,4.37,5.83,1.45-4.36-1.38-8.15-1.39-8.17,6.44-5.86,8.68-13.7,8.68-13.7Z"/><polygon class="cls-4" points="1390.05 231.09 1396.21 221.69 1394.32 219.81 1386.4 230.86 1390.05 231.09"/><path class="cls-14" d="m1461.82,199.45l-57.6,24.44c-.82.35-1.78-.04-2.12-.86l-13.02-30.68c-.35-.82.03-1.78.86-2.12l57.6-24.44c.82-.35,1.77.04,2.12.86l13.02,30.68c.35.82-.03,1.78-.86,2.13Z"/><polygon class="cls-14" points="1415.92 198.49 1418.11 199.05 1428.98 201.67 1434.94 191.91 1435.41 190.22 1443.9 192.42 1432.63 207.05 1413.52 202.72 1415.92 198.49"/><path class="cls-17" d="m1415.92,198.49l-26.96-6.79c0,.21.04.43.13.64l12.98,30.6,13.85-24.45Z"/><path class="cls-17" d="m1462.66,197.27l-12.99-30.62c-.09-.22-.23-.4-.39-.55l-13.87,24.13,27.25,7.05Z"/><path class="cls-17" d="m1461.82,199.45c.39-.16.67-.46.83-.82l-27.72-6.72-5.96,9.76-10.87-2.62-13.79,24.79,57.51-24.4Z"/><path class="cls-17" d="m1428.03,199.89h0l-38.67-8.83c-.29-.07-.32-.46-.05-.57l58.86-24.97c.27-.11.53.18.38.44l-20.52,33.94Z"/><path class="cls-20" d="m1413.75,217.72s2.97-1.82,3.38-3.51c.37-1.53.26-.99.38-1.65.04-.23.15-.67.15-.67,0,0,.98-4.18,2.2-4.68,1.21-.5,1.73.41.84,2.59-.89,2.17,1.83,3.5,3.98.33,2.15-3.17,5.45-6.22,5.82-4.9.37,1.32-1.8,3.71-1.8,3.71,0,0,.09.1.62-.53.52-.64,1.28-2.62,1.56-2.21.28.41,2.26,2.87-.25,7.37-2.51,4.5-5.65,5.44-6.91,6-1.26.56-5.37,3.49-6.19,4.97,0,0-5.37-4.37-3.77-6.82Z"/><path class="cls-29" d="m1361.21,227.53h-20.42s-10.21,2.92-11.67,16.04c-1.46,13.12,7.29,35,5.83,43.75-1.46,8.75-4.83,22.62-.23,24.43,4.6,1.81,35.23.36,41.06-5.48,5.83-5.83-5.83-23.33-4.37-32.08,1.46-8.75,1.46-26.25,1.46-26.25,0,0,26.25-1.46,32.08-5.83,5.83-4.37,17.5-20.42,17.5-20.42l-5.83-7.29s-11.67,8.75-17.5,17.5c0,0-29.17-2.92-35-1.46l-2.92-2.92Z"/><path class="cls-4" d="m1372.88,247.94s26.25-1.46,32.08-5.83c5.83-4.37,17.5-20.42,17.5-20.42l-1.86-2.33c-4.31,4.74-14.79,16.37-17.09,19.83-2.92,4.37-23.33,4.37-30.62,4.37s-14.58-5.83-14.58-5.83c0,0,4.37,4.37,7.29,16.04,2.92,11.67-1.46,16.04-1.46,23.33s4.37,7.29,4.37,20.42c0,7.08-6.8,11.62-13.05,14.29,8.75-.89,17.5-2.69,20.34-5.54,5.83-5.83-5.83-23.33-4.37-32.08,1.46-8.75,1.46-26.25,1.46-26.25Z"/></svg>