<?xml version="1.0" encoding="utf-8"?>
<!-- Generator: Adobe Illustrator 27.9.0, SVG Export Plug-In . SVG Version: 6.00 Build 0)  -->
<!DOCTYPE svg PUBLIC "-//W3C//DTD SVG 1.1//EN" "http://www.w3.org/Graphics/SVG/1.1/DTD/svg11.dtd" [
	<!ENTITY ns_extend "http://ns.adobe.com/Extensibility/1.0/">
	<!ENTITY ns_ai "http://ns.adobe.com/AdobeIllustrator/10.0/">
	<!ENTITY ns_graphs "http://ns.adobe.com/Graphs/1.0/">
	<!ENTITY ns_vars "http://ns.adobe.com/Variables/1.0/">
	<!ENTITY ns_imrep "http://ns.adobe.com/ImageReplacement/1.0/">
	<!ENTITY ns_sfw "http://ns.adobe.com/SaveForWeb/1.0/">
	<!ENTITY ns_custom "http://ns.adobe.com/GenericCustomNamespace/1.0/">
	<!ENTITY ns_adobe_xpath "http://ns.adobe.com/XPath/1.0/">
]>
<svg version="1.1" id="SSL_ILLUSTRATION" xmlns:x="&ns_extend;" xmlns:i="&ns_ai;" xmlns:graph="&ns_graphs;"
	 xmlns="http://www.w3.org/2000/svg" xmlns:xlink="http://www.w3.org/1999/xlink" x="0px" y="0px" width="400px" height="300px"
	 viewBox="0 0 400 300" style="enable-background:new 0 0 400 300;" xml:space="preserve">
<style type="text/css">
	.st0{fill:#FF6600;}
	.st1{fill:#BFBFBF;}
	.st2{clip-path:url(#SVGID_00000023271194723752284870000000760871341709732258_);}
	.st3{fill:#F1F1F1;}
	.st4{fill:#F5C1CA;}
	.st5{fill:#0D72B9;}
	.st6{fill:#F1F2F2;}
	.st7{fill:url(#SVGID_00000029009631113853166000000013888664601772484254_);}
	.st8{fill:#F3B344;}
	.st9{fill:#E5A03C;}
	.st10{fill:#0046A4;}
	.st11{fill:url(#SVGID_00000132796917759520531370000014228322971075057033_);}
	.st12{fill:#F7F7F7;}
	.st13{fill:#E4E5EA;}
	.st14{fill:#DDDDDD;}
	.st15{opacity:0.35;}
	.st16{fill:#D1CBCB;}
	.st17{fill:url(#SVGID_00000142137687369695718720000008720832901821668797_);}
	.st18{fill:url(#SVGID_00000075841485159324092920000006930980440469100977_);}
	.st19{fill:url(#SVGID_00000001653837653651675160000009867694256785485997_);}
	.st20{fill:#3885C6;}
	.st21{fill:#FFFFFF;}
	.st22{fill:#252A6C;}
	.st23{fill:#0F3757;}
	.st24{fill:#000006;}
	.st25{fill:#D37383;}
	.st26{fill:#031F38;}
	.st27{fill:#FFDDB5;}
	.st28{fill:#322B7D;}
	.st29{fill:#3CA2E9;}
	.st30{fill:#242353;}
	.st31{fill:#141433;}
	.st32{fill:#1B1941;}
	.st33{fill:#211C55;}
	.st34{fill:#2B85C2;}
	.st35{fill:#DC8744;}
	.st36{fill:#3EA5EB;}
</style>
<metadata>
	<sfw  xmlns="&ns_sfw;">
		<slices></slices>
		<sliceSourceBounds  bottomLeftOrigin="true" height="300" width="400" x="0" y="0"></sliceSourceBounds>
	</sfw>
</metadata>
<rect class="st0" width="400" height="300"/>
<g>
	<path class="st1" d="M334,274c0,5.3-58.2,4.1-132.4,4.1S65.3,279.4,65.3,274s62.2-6.5,136.4-6.5S334,268.7,334,274L334,274z"/>
	<g>
		<defs>
			
				<rect id="SVGID_1_" x="258" y="163.2" transform="matrix(0.1594 -0.9872 0.9872 0.1594 54.4215 408.7876)" width="18.4" height="18.4"/>
		</defs>
		<clipPath id="SVGID_00000091711785301384759370000017478372321847717285_">
			<use xlink:href="#SVGID_1_"  style="overflow:visible;"/>
		</clipPath>
		<g style="clip-path:url(#SVGID_00000091711785301384759370000017478372321847717285_);">
			<path class="st3" d="M276.3,173.9c-0.4,2.5-1.8,4.6-3.7,6c-1.9,1.4-4.4,2.1-6.9,1.7l0,0c-2.5-0.4-4.7-1.8-6-3.7
				c-1.4-1.9-2-4.3-1.6-6.8c0.8-5,5.5-8.4,10.6-7.6S277.1,168.9,276.3,173.9"/>
			<path class="st0" d="M275,173.7c-0.3,2.1-1.5,3.9-3.1,5.1c-1.6,1.2-3.7,1.8-5.9,1.4l0,0c-2.2-0.4-4-1.5-5.2-3.2
				c-1.2-1.6-1.7-3.7-1.4-5.8c0.7-4.3,4.7-7.2,9-6.5C272.8,165.3,275.7,169.4,275,173.7"/>
			<path class="st3" d="M268.4,166.8c0.3,0.1,0.5,0.2,0.8,0.3c1.5,0.7,2.2,2.4,1.9,4c-0.4,1.7-1.8,2.8-3.5,2.8
				c-2.1,0-3.7-1.7-3.6-3.8c0.1-2,1.8-3.5,3.8-3.4c0,0,0.1,0,0.1,0L268.4,166.8L268.4,166.8z"/>
			<path class="st3" d="M271.9,178.8c-1.6,1.2-3.7,1.8-5.9,1.4l0,0c-2.2-0.4-4-1.5-5.2-3.2c0.9-1.5,2.6-2.5,4.5-2.5
				c0.2,0,0.5,0,0.7,0.1c0.6,0.1,1.1,0.2,1.7,0.3C269.8,175.1,271.4,176.8,271.9,178.8"/>
		</g>
	</g>
	<path class="st4" d="M275.9,180.9c0,0,0.4-4.5-1.9-3.8c-2.3,0.7-2,1.4-1.9,2.2c0.1,0.8,2.3,1.1,2.3,1.6c0,0.5,2.7,6.9,4.6,9.1
		s4.4,3.9,7-0.5l-1.8-4.2l-2,2.7C282.4,188,278.6,184.9,275.9,180.9L275.9,180.9z"/>
	<polygon class="st5" points="173.1,166.9 135.8,166.9 135.8,137.3 135.8,134.7 143.2,134.7 146.6,137.3 173.1,137.3 	"/>
	<rect x="137.1" y="140" class="st6" width="34.8" height="1.8"/>
	<path class="st5" d="M136.1,141.8H172c1.7,0,3,1.3,3,3v19.1c0,1.7-1.3,3-3,3h-35.9c-1.7,0-3-1.3-3-3v-19.1
		C133.1,143.1,134.5,141.8,136.1,141.8z"/>
	
		<linearGradient id="SVGID_00000158735926860643914460000015922920478805655681_" gradientUnits="userSpaceOnUse" x1="133.1107" y1="146.3913" x2="173.6986" y2="146.3913" gradientTransform="matrix(1 0 0 -1 0 300)">
		<stop  offset="0" style="stop-color:#29A9E1"/>
		<stop  offset="0.24" style="stop-color:#2A91D0"/>
		<stop  offset="0.76" style="stop-color:#2D54A4"/>
		<stop  offset="1" style="stop-color:#2F368F"/>
	</linearGradient>
	<path style="fill:url(#SVGID_00000158735926860643914460000015922920478805655681_);" d="M136,141.8h34.9c1.6,0,2.9,1.3,2.9,2.9
		v17.9c0,1.6-1.3,2.9-2.9,2.9H136c-1.6,0-2.9-1.3-2.9-2.9v-17.9C133.1,143.1,134.4,141.8,136,141.8z"/>
	<polygon class="st8" points="174,169.8 141.4,169.8 141.4,144 141.4,141.8 147.9,141.8 150.9,144 174,144 	"/>
	<rect x="142.6" y="146.4" class="st6" width="30.3" height="1.5"/>
	<path class="st9" d="M141.7,148H173c1.4,0,2.6,1.2,2.6,2.6v16.6c0,1.4-1.2,2.6-2.6,2.6h-31.3c-1.4,0-2.6-1.2-2.6-2.6v-16.6
		C139.1,149.1,140.3,148,141.7,148z"/>
	<path class="st8" d="M141.6,148H172c1.4,0,2.5,1.1,2.5,2.5V166c0,1.4-1.1,2.5-2.5,2.5h-30.4c-1.4,0-2.5-1.1-2.5-2.5v-15.6
		C139.1,149.1,140.2,148,141.6,148z"/>
	<path class="st10" d="M190.2,148.6h23.7c1,0,1.8,0.8,1.8,1.8V162c0,1-0.8,1.8-1.8,1.8h-23.7c-1,0-1.8-0.8-1.8-1.8v-11.6
		C188.4,149.4,189.2,148.6,190.2,148.6z"/>
	
		<linearGradient id="SVGID_00000177486620540278729690000010021563879625106061_" gradientUnits="userSpaceOnUse" x1="188.6394" y1="156.0792" x2="215.3685" y2="156.0792" gradientTransform="matrix(1 0 0 -1 0 300)">
		<stop  offset="0" style="stop-color:#29A9E1"/>
		<stop  offset="0.24" style="stop-color:#2A91D0"/>
		<stop  offset="0.76" style="stop-color:#2D54A4"/>
		<stop  offset="1" style="stop-color:#2F368F"/>
	</linearGradient>
	<path style="fill:url(#SVGID_00000177486620540278729690000010021563879625106061_);" d="M202,139L202,139l-13.3,9.6
		c-0.1,0.1-0.1,0.2,0.1,0.2h26.5c0.1,0,0.2-0.2,0.1-0.2L202,139z"/>
	<rect x="194.3" y="141.8" class="st12" width="15.5" height="18.6"/>
	<polygon class="st13" points="209.7,147.1 209.7,160.4 194.3,160.4 194.3,157.1 	"/>
	<rect x="196.6" y="144.3" class="st14" width="10.8" height="0.5"/>
	<g class="st15">
		<path class="st16" d="M207.9,148.1h-9.1c-0.4,0-0.6-0.3-0.6-0.6l0,0c0-0.3,0.3-0.6,0.6-0.6h9.1c0.4,0,0.6,0.3,0.6,0.6l0,0
			C208.5,147.8,208.2,148.1,207.9,148.1z"/>
		<path class="st16" d="M207.9,151h-9.2c-0.3,0-0.6-0.3-0.6-0.6l0,0c0-0.3,0.3-0.6,0.6-0.6h9.2c0.3,0,0.6,0.3,0.6,0.6l0,0
			C208.5,150.8,208.3,151,207.9,151z"/>
		<path class="st14" d="M196.1,149.7h0.6c0.3,0,0.6,0.2,0.6,0.6v0.4c0,0.3-0.2,0.6-0.6,0.6h-0.6c-0.3,0-0.6-0.2-0.6-0.6v-0.4
			C195.6,149.9,195.8,149.7,196.1,149.7z"/>
		<path class="st14" d="M196.1,152.6h0.6c0.3,0,0.6,0.2,0.6,0.6v0.4c0,0.3-0.2,0.6-0.6,0.6h-0.6c-0.3,0-0.6-0.2-0.6-0.6v-0.4
			C195.6,152.9,195.8,152.6,196.1,152.6z"/>
		<path class="st14" d="M196.1,155.6h0.7c0.3,0,0.5,0.2,0.5,0.5v0.5c0,0.3-0.2,0.5-0.5,0.5h-0.7c-0.3,0-0.5-0.2-0.5-0.5v-0.5
			C195.6,155.8,195.8,155.6,196.1,155.6z"/>
		<path class="st14" d="M196.1,146.7h0.6c0.3,0,0.6,0.2,0.6,0.6v0.4c0,0.3-0.2,0.6-0.6,0.6h-0.6c-0.3,0-0.6-0.2-0.6-0.6v-0.4
			C195.6,147,195.8,146.7,196.1,146.7z"/>
		<path class="st16" d="M207.9,154h-9.1c-0.4,0-0.6-0.3-0.6-0.6l0,0c0-0.3,0.3-0.6,0.6-0.6h9.1c0.4,0,0.6,0.3,0.6,0.6l0,0
			C208.5,153.7,208.2,154,207.9,154z"/>
		<path class="st16" d="M207.9,156.9h-9.1c-0.4,0-0.6-0.3-0.6-0.6l0,0c0-0.3,0.3-0.6,0.6-0.6h9.1c0.4,0,0.6,0.3,0.6,0.6l0,0
			C208.5,156.6,208.2,156.9,207.9,156.9z"/>
	</g>
	<path class="st10" d="M210,155.6l-2.4,1.4l-1.3-1l-0.5,0.6l-3.9,2.8l-3.7-2.8l-0.7-0.6l-1.2,1l-2.4-1.4c-0.2,0-0.3,0.2-0.3,0.5v6.5
		c0,0.3,0.1,0.5,0.3,0.5H210c0.2,0,0.3-0.2,0.3-0.5V156C210.3,155.8,210.2,155.5,210,155.6L210,155.6z"/>
	
		<linearGradient id="SVGID_00000025442736053734383200000000745223971635290813_" gradientUnits="userSpaceOnUse" x1="188.3865" y1="143.9575" x2="197.6176" y2="143.9575" gradientTransform="matrix(1 0 0 -1 0 300)">
		<stop  offset="0" style="stop-color:#29A9E1"/>
		<stop  offset="0.24" style="stop-color:#2A91D0"/>
		<stop  offset="0.76" style="stop-color:#2D54A4"/>
		<stop  offset="1" style="stop-color:#2F368F"/>
	</linearGradient>
	<path style="fill:url(#SVGID_00000025442736053734383200000000745223971635290813_);" d="M197.6,156l-9.2-6.9
		c0,0.1-0.1,0.2-0.1,0.3v13.8L197.6,156L197.6,156z"/>
	
		<linearGradient id="SVGID_00000121277965550504583770000005073548326190560648_" gradientUnits="userSpaceOnUse" x1="206.3791" y1="143.966" x2="215.6273" y2="143.966" gradientTransform="matrix(1 0 0 -1 0 300)">
		<stop  offset="0" style="stop-color:#29A9E1"/>
		<stop  offset="0.24" style="stop-color:#2A91D0"/>
		<stop  offset="0.76" style="stop-color:#2D54A4"/>
		<stop  offset="1" style="stop-color:#2F368F"/>
	</linearGradient>
	<path style="fill:url(#SVGID_00000121277965550504583770000005073548326190560648_);" d="M215.6,163.1v-13.8c0-0.1,0-0.2-0.1-0.3
		l-9.2,7L215.6,163.1z"/>
	
		<linearGradient id="SVGID_00000127021938648170660330000004558227303140516797_" gradientUnits="userSpaceOnUse" x1="189.0952" y1="139.8543" x2="215.4138" y2="139.8543" gradientTransform="matrix(1 0 0 -1 0 300)">
		<stop  offset="0" style="stop-color:#29A9E1"/>
		<stop  offset="0.24" style="stop-color:#2A91D0"/>
		<stop  offset="0.76" style="stop-color:#2D54A4"/>
		<stop  offset="1" style="stop-color:#2F368F"/>
	</linearGradient>
	<path style="fill:url(#SVGID_00000127021938648170660330000004558227303140516797_);" d="M215,163.8c0.2,0,0.3-0.1,0.5-0.2l-9.5-7
		l-3.9,2.8l-3.7-2.8l-9.3,7.2H215z"/>
	<path class="st20" d="M161.1,152.9l3-13.8c0.2-0.7,0.9-1.2,1.6-1.1l21.6,4.7c0.7,0.2,1.2,0.9,1.1,1.6l-3,13.8
		c-0.2,0.7-0.9,1.2-1.6,1.1l-21.6-4.7C161.4,154.4,160.9,153.6,161.1,152.9z"/>
	<path class="st21" d="M161.3,151.9l2.8-12.9c0.2-0.7,0.9-1.2,1.6-1l21.1,4.5c0.7,0.2,1.2,0.9,1,1.6l-2.8,12.9
		c-0.2,0.7-0.9,1.2-1.6,1l-21.1-4.5C161.6,153.4,161.2,152.7,161.3,151.9z"/>
	<path class="st20" d="M179.2,148.5l-2.8,2.4l-3.3-6.9l-11.9,8.5c0,0.6,0.5,1.2,1.3,1.3l20.6,4.4c0.8,0.2,1.6-0.2,1.8-0.8l0.3-1.6
		L179.2,148.5L179.2,148.5z"/>
	<path class="st20" d="M183.3,145.7c-0.2,0.7-0.9,1.2-1.7,1.1c-0.8-0.2-1.2-0.9-1.1-1.6c0.2-0.7,0.9-1.2,1.7-1.1
		C183,144.2,183.5,145,183.3,145.7z"/>
	<path class="st3" d="M130.4,152.7l12.7,117.9c0.2,1.8,1.8,3.2,3.6,3.2h81.2c1.8,0,3.4-1.4,3.6-3.2l13.4-118H130.4L130.4,152.7z"/>
	<path class="st1" d="M187.6,260.1c-2.2,0-4-1.8-4-4v-87.1c0-2.2,1.8-4,4-4s4,1.8,4,4v87.1C191.5,258.4,189.8,260.1,187.6,260.1z"/>
	<path class="st1" d="M165.7,259.8c-2.2,0.3-4.1-1.3-4.4-3.4l-10.6-86.5c-0.3-2.2,1.3-4.1,3.4-4.4c2.2-0.3,4.1,1.3,4.4,3.4
		l10.6,86.5C169.4,257.5,167.9,259.5,165.7,259.8L165.7,259.8z"/>
	<path class="st1" d="M208.8,259.8c2.2,0.3,4.1-1.3,4.4-3.4l10.6-86.5c0.3-2.2-1.3-4.1-3.4-4.4c-2.2-0.3-4.1,1.3-4.4,3.4l-10.6,86.5
		C205.1,257.5,206.6,259.5,208.8,259.8L208.8,259.8z"/>
	<path class="st1" d="M211.1,135.7l-5.5-1.6l2.2-7.8c0.2-0.7-0.2-1.4-0.8-1.6l-24.9-7.1c-0.7-0.2-1.4,0.2-1.6,0.9l-2.2,7.8l-5.5-1.6
		l2.2-7.8c1.1-3.8,5-6.1,8.6-5.1l24.9,7.1c3.7,1.1,5.8,5,4.7,8.9L211.1,135.7L211.1,135.7z"/>
	<path class="st3" d="M250.3,146.9l-113.4-32.4c-1.2-0.4-2.5,0.4-2.8,1.6l-2.8,9.8c-0.4,1.2,0.4,2.5,1.6,2.8l113.4,32.4
		c1.2,0.4,2.5-0.4,2.8-1.6l2.8-9.8C252.2,148.5,251.5,147.2,250.3,146.9L250.3,146.9z"/>
	<polygon class="st8" points="334,213.3 318.9,216.8 316.2,204.8 315.9,203.8 318.9,203.1 320.6,203.8 331.3,201.4 	"/>
	
		<rect x="316.9" y="204.2" transform="matrix(0.9745 -0.2243 0.2243 0.9745 -37.621 77.8962)" class="st6" width="14.4" height="0.7"/>
	<path class="st9" d="M316,206.8l16-3.7c0.2-0.1,0.5,0.1,0.6,0.4l2.1,9.2c0.1,0.2-0.1,0.5-0.4,0.6l-16,3.7c-0.2,0.1-0.5-0.1-0.6-0.4
		l-2.1-9.2C315.6,207.1,315.7,206.9,316,206.8z"/>
	<path class="st8" d="M316,206.8l15.5-3.6c0.2-0.1,0.5,0.1,0.5,0.3l2,8.7c0.1,0.2-0.1,0.5-0.3,0.5l-15.5,3.6
		c-0.2,0.1-0.5-0.1-0.5-0.3l-2-8.7C315.6,207.1,315.7,206.9,316,206.8z"/>
	<path class="st22" d="M290,181.1c0,0-3-5.4-2.6-11.3c0.5-5.9,0.1-7.1,1.8-8.7c1.6-1.7,5.1-2.9,7.2-2.2c2.1,0.8,3.3,3.4,4.2,4.7
		c1.5,2.4,2.3,5.2,2.5,7.9c0.2,2.7-0.7,4.8,0.7,7.8c1.5,3.3,1.9,6.7,1.6,9.2c-0.3,2.5-3.3,8.6-6.6,7.6c-3.3-1.1-7.4-15.7-7.4-15.7
		L290,181.1z"/>
	<path class="st4" d="M291.9,178.2c0,0,0.7-2.2,0-2.8c-0.7-0.6-2.9-0.6-3.3-3.1c-0.4-2.4-0.4-6.4,0.7-8.1c0,0,3.1,2.7,5.5,2.8
		c0,0,0.8,5.3,0.8,6.5v1.7c0,0,1.2,0.8,1.6,1.3c0.9,1.1-1.3,6.1-3.1,5.7c-1.7-0.4-2.8-1.9-2.8-1.9L291.9,178.2L291.9,178.2z"/>
	<path class="st23" d="M289.8,204.2c0,0-5.9,22.7-8.8,33.5c-2.9,10.8-6.2,26.1-6.2,26.1h3.2c0,0,10.9-14.5,8.9-27.9c0,0,5-4,6.4-6.9
		C294.7,226.1,292,205.2,289.8,204.2L289.8,204.2z"/>
	<path class="st23" d="M289.8,204.2c0,0,4,29.3,4.6,32.3c0,0,4.3,26.6,5.2,29.2h3.3c0,0,3.6-21.1-2.2-30.8c0,0,7.7-23.4-1-30.8
		H289.8z"/>
	<path class="st24" d="M274.8,263.8c0,0-3.2,4.5-5.2,4.5c-2,0-4.8,0.7-3.2,2.9h4c0,0,3.6-1.3,4.4-4.3l0.5,0.1v4.2h1
		c0,0,2.1-5.8,1.7-7.4H274.8z"/>
	<path class="st24" d="M299.6,265.6c0,0-1.9,5.2-3.8,5.7s-4.4,1.9-2.3,3.6l3.8-1c0,0,3.5-2.2,3.5-5.4l0.4,0.1l0.8,4l1,0
		c0,0,0.5-5.5,0-6.9L299.6,265.6L299.6,265.6z"/>
	<path class="st4" d="M303.5,189.2c0,0,7.8,11.2,14.4,13.1c0,0,3.2,0.1,2.9,1.5s1.7,1.6,2.7,0.4s0.1-3.9-3.5-3.2
		c0,0-6.1-3.7-8.3-7.1s-6-7.8-6-7.8L303.5,189.2L303.5,189.2z"/>
	<path class="st25" d="M297.6,176.6c-0.2-0.1-0.4-0.2-0.5-0.2c-0.3,3.5-2.5,6-4,4.9c-1.3-1-1.8-1.4-1.4-2.6c0.6-1.9,0.8-3.1,0-2.6
		c-0.1,0.1-0.2,0.1-0.2,0.1s-5.4,3.8-7.3,8.2c0,0-0.1,2.5,2.2,5.6l2-2.6c0,0-0.4,4.2,0.3,7.1c0.6,2.9,1,9.7,1,9.7h10
		c0,0-1.9-8.4-1.2-10.8c0.8-2.4,2.2-5.8,2.2-5.8l2.4,2.2l3.2-4.5C306.4,185.3,301.3,178.4,297.6,176.6L297.6,176.6z"/>
	<path class="st26" d="M293.3,229L293.3,229l-2.4-16.7c-0.2-1.8,0.7-3.5,2.4-4.2l7.3-3.2c0,0,0,0,0,0c-0.2-0.2-0.5-0.5-0.9-0.8h-9.9
		c0,0-0.9,3.5-2.2,8.4l5.4,17C293.1,229.4,293.2,229.2,293.3,229L293.3,229c0.1,1,0.2,1.9,0.4,2.7L293.3,229L293.3,229z"/>
	<path class="st27" d="M98.2,175.7c0,0,1.2-0.9,1.3-1.7c0.1-0.7,0.1-0.4,0.1-0.7c0-0.1,0-0.3,0-0.3s0.2-1.8,0.7-2.1
		c0.5-0.3,0.8,0.1,0.5,1.1c-0.3,1,1,1.4,1.7-0.1c0.8-1.5,2-2.9,2.2-2.4c0.2,0.5-0.6,1.7-0.6,1.7s0,0,0.2-0.3c0.2-0.3,0.4-1.2,0.5-1
		c0.1,0.2,1.1,1.1,0.3,3.1c-0.8,2-2.1,2.6-2.6,2.9c-0.5,0.3-2.1,1.8-2.4,2.4C100.1,178.4,97.6,176.8,98.2,175.7L98.2,175.7z"/>
	<path class="st27" d="M88.4,166.6c0,0,1.3,4.1,1.3,6.6s-3.7,4.4-3.7,4.4v2.2h-7.4c0,0,0.1-1.2,0-1.7
		C78.5,177.5,83.9,166.9,88.4,166.6L88.4,166.6z"/>
	<path class="st28" d="M82.2,265.3H76c0,0,0.6-16.2,3.1-24.3c0,0-2.2-9.6-2.8-15.9c0,0-1.9-3.1-1.2-11.2l17.4-0.6
		c0,0,4.4,20.5,5,24.3c0.6,3.7-3.7,23-3.7,28h-6.8c0,0,0.6-18.7,3.1-24.3c0,0-3.1-5-5-8.1c0,0,1.2,10,0.6,11.8
		C85,247,82.5,258.8,82.2,265.3L82.2,265.3z"/>
	<polygon class="st29" points="92.5,180.8 98.7,174.7 101.2,177.2 98.6,181.2 	"/>
	<path class="st30" d="M85.6,245.1c0.6-1.9-0.6-11.8-0.6-11.8c0.2,0.3,0.4,0.6,0.6,1l0,0c0.3-4.9-3.4-10-3.4-10
		c2.5,10.6,1.2,17.4,0,22.4s-2.1,18.7-2.1,18.7h2.1C82.5,258.8,85,247,85.6,245.1L85.6,245.1z"/>
	<path class="st31" d="M76,265.3c0,0-0.9,7.5,0.3,8.1c1.2,0.6,14.3-0.6,14.3-0.6s1.2-1.9-0.6-2.5c-1.9-0.6-8-2.5-8.7-5
		C81.3,265.3,76,265.3,76,265.3z"/>
	<path class="st32" d="M87.8,265.6c0,0-0.9,7.5,0.3,8.1c1.2,0.6,14.3-0.6,14.3-0.6s1.2-1.9-0.6-2.5c-1.9-0.6-8-2.5-8.7-5
		C93.1,265.6,87.8,265.6,87.8,265.6z"/>
	<path class="st33" d="M90.9,162c-0.9,0.9-3.4,0.9-3.4,0.9c1.2-0.6,1.2-1.9,1.2-1.9c-1.9,1.2-5.3-0.3-9-0.3s-5,3.7-5,3.7
		c-0.6-0.6-0.6-1.2-0.6-1.2c-0.6,1.2,0,2.5,0,2.5c-0.6-0.6-1.9,0.6-1.9,0.6c0.6,0,1.2,0.6,1.2,0.6c-0.6,3.7,2.2,7.2,3.4,7.8
		c1.2,0.6,0.6,2.5,1.2,3.1c0.6,0.6,5.9,0.3,7.2-0.9c1.2-1.2,0.6-8.1,0.6-8.1c1.2,0,1.9,2.5,1.9,2.5c0.6-1.9-0.6-3.5-0.6-3.5
		C90,165.3,90.9,162,90.9,162L90.9,162z"/>
	<polygon class="st34" points="98.6,181.2 101.2,177.2 100.4,176.4 97,181.1 	"/>
	<path class="st35" d="M98.5,163.8l24.6-10.4c0.4-0.1,0.8,0,0.9,0.4l5.6,13.1c0.1,0.4,0,0.8-0.4,0.9l-24.6,10.4
		c-0.4,0.1-0.8,0-0.9-0.4l-5.6-13.1C98,164.3,98.2,163.9,98.5,163.8z"/>
	<polygon class="st35" points="109.6,167.3 110.6,167.5 115.2,168.7 117.7,164.5 117.9,163.8 121.6,164.7 116.8,171 108.6,169.1 	
		"/>
	<path class="st8" d="M109.6,167.3l-11.5-2.9c0,0.1,0,0.2,0.1,0.3l5.5,13.1C103.7,177.8,109.6,167.3,109.6,167.3z"/>
	<path class="st8" d="M129.6,166.8l-5.6-13.1c0-0.1-0.1-0.2-0.2-0.2l-5.9,10.3L129.6,166.8L129.6,166.8z"/>
	<path class="st8" d="M129.2,167.7c0.2-0.1,0.3-0.2,0.4-0.4l-11.8-2.9l-2.5,4.2l-4.6-1.1l-5.9,10.6L129.2,167.7L129.2,167.7z"/>
	<path class="st8" d="M114.8,167.9L114.8,167.9l-16.5-3.8c-0.1,0-0.1-0.2,0-0.2l25.1-10.7c0.1-0.1,0.2,0.1,0.2,0.2L114.8,167.9
		L114.8,167.9z"/>
	<path class="st27" d="M108.7,175.5c0,0,1.3-0.8,1.4-1.5c0.2-0.6,0.1-0.4,0.2-0.7c0-0.1,0.1-0.3,0.1-0.3s0.4-1.8,0.9-2
		s0.7,0.2,0.4,1.1c-0.4,0.9,0.8,1.5,1.7,0.1c0.9-1.3,2.3-2.7,2.5-2.1c0.2,0.6-0.8,1.6-0.8,1.6s0,0,0.3-0.2s0.5-1.1,0.7-0.9
		c0.1,0.2,1,1.2-0.1,3.1c-1.1,1.9-2.4,2.3-2.9,2.6s-2.3,1.5-2.6,2.1C110.3,178.4,108,176.6,108.7,175.5L108.7,175.5z"/>
	<path class="st36" d="M86.3,179.7h-8.7c0,0-4.4,1.2-5,6.8c-0.6,5.6,3.1,14.9,2.5,18.7c-0.6,3.7-2.1,9.7-0.1,10.4
		c2,0.8,15,0.2,17.5-2.3s-2.5-10-1.9-13.7c0.6-3.7,0.6-11.2,0.6-11.2s11.2-0.6,13.7-2.5c2.5-1.9,7.5-8.7,7.5-8.7l-2.5-3.1
		c0,0-5,3.7-7.5,7.5c0,0-12.5-1.2-14.9-0.6L86.3,179.7L86.3,179.7z"/>
	<path class="st34" d="M91.3,188.4c0,0,11.2-0.6,13.7-2.5c2.5-1.9,7.5-8.7,7.5-8.7l-0.8-1c-1.8,2-6.3,7-7.3,8.5
		c-1.2,1.9-10,1.9-13.1,1.9c-3.1,0-6.2-2.5-6.2-2.5s1.9,1.9,3.1,6.8c1.2,5-0.6,6.8-0.6,10c0,3.1,1.9,3.1,1.9,8.7c0,3-2.9,5-5.6,6.1
		c3.7-0.4,7.5-1.2,8.7-2.4c2.5-2.5-2.5-10-1.9-13.7C91.3,195.9,91.3,188.4,91.3,188.4z"/>
</g>
</svg>
