<?xml version="1.0" encoding="utf-8"?>
<!-- Generator: Adobe Illustrator 24.3.0, SVG Export Plug-In . SVG Version: 6.00 Build 0)  -->
<svg version="1.1" id="Layer_1" xmlns="http://www.w3.org/2000/svg" xmlns:xlink="http://www.w3.org/1999/xlink" x="0px" y="0px"
	 viewBox="0 0 500 500" style="enable-background:new 0 0 500 500;" xml:space="preserve">
<style type="text/css">
	.st0{fill:none;stroke:#000000;stroke-width:12;stroke-linecap:round;stroke-linejoin:round;stroke-miterlimit:10;}
	.st1{fill:#000000;}
	.st2{fill:none;stroke:#000000;stroke-width:12;stroke-linecap:round;stroke-linejoin:round;stroke-dasharray:1.000000e-02;}
	.st3{fill:none;stroke:#000000;stroke-width:12;stroke-linecap:round;stroke-linejoin:round;}
	.st4{fill:none;stroke:#000000;stroke-width:12;stroke-linecap:round;stroke-linejoin:round;stroke-dasharray:11.3051,23.5522;}
	.st5{fill:none;stroke:#000000;stroke-width:12;stroke-linecap:round;stroke-linejoin:round;stroke-dasharray:13.0355,27.1573;}
	.st6{fill:none;stroke:#000000;stroke-width:11;stroke-linecap:round;stroke-linejoin:round;stroke-miterlimit:10;}
	.st7{fill:none;stroke:#000000;stroke-width:10;stroke-linecap:round;stroke-linejoin:round;stroke-miterlimit:10;}
</style>
<g>
	<path class="st0" d="M316.9,320h-68.1l0,0c21.2-64.1,21.2-133.4,0-197.5l0,0h68.1l0,0C338.1,186.6,338.1,255.9,316.9,320L316.9,320
		z"/>
	<path class="st0" d="M248.8,320c-8.6-25.9-13.7-52.6-15.3-79.5"/>
	<path class="st0" d="M248.8,122.5c-8.6,25.9-13.7,52.6-15.3,79.5"/>
	<rect x="202.6" y="202" class="st0" width="43.4" height="38.4"/>
	<polygon class="st0" points="202.6,122.5 202.6,287.3 199.1,287.3 199.1,368.5 140.8,368.5 140.8,287.3 137.3,287.3 137.3,122.5 	
		"/>
	<line class="st0" x1="140.8" y1="341.3" x2="199.1" y2="341.3"/>
	<polygon class="st0" points="185.4,399.5 169.9,417 154.5,399.5 154.5,368.5 185.4,368.5 	"/>
	<path class="st0" d="M202.6,122.5v-5.7c0-13.9-13.1-24.1-26.6-20.7l-22.6,5.7c-9.5,2.4-16.1,10.9-16.1,20.7v0H38.3
		c-10.9,0-19.7-8.8-19.7-19.7v0c0-12.2,10.9-21.5,22.9-19.5l111.8,18.5"/>
	<path class="st0" d="M329.3,174.3L329.3,174.3c46.9,0,91.8-18.6,125-51.8l27.1-27.1"/>
</g>
</svg>
