<?xml version="1.0" encoding="utf-8"?>
<!-- Generator: Adobe Illustrator 27.8.1, SVG Export Plug-In . SVG Version: 6.00 Build 0)  -->
<!DOCTYPE svg PUBLIC "-//W3C//DTD SVG 1.1//EN" "http://www.w3.org/Graphics/SVG/1.1/DTD/svg11.dtd" [
	<!ENTITY ns_extend "http://ns.adobe.com/Extensibility/1.0/">
	<!ENTITY ns_ai "http://ns.adobe.com/AdobeIllustrator/10.0/">
	<!ENTITY ns_graphs "http://ns.adobe.com/Graphs/1.0/">
	<!ENTITY ns_vars "http://ns.adobe.com/Variables/1.0/">
	<!ENTITY ns_imrep "http://ns.adobe.com/ImageReplacement/1.0/">
	<!ENTITY ns_sfw "http://ns.adobe.com/SaveForWeb/1.0/">
	<!ENTITY ns_custom "http://ns.adobe.com/GenericCustomNamespace/1.0/">
	<!ENTITY ns_adobe_xpath "http://ns.adobe.com/XPath/1.0/">
]>
<svg version="1.1" id="Layer_1" xmlns:x="&ns_extend;" xmlns:i="&ns_ai;" xmlns:graph="&ns_graphs;"
	 xmlns="http://www.w3.org/2000/svg" xmlns:xlink="http://www.w3.org/1999/xlink" x="0px" y="0px" width="76.3636px" height="70px"
	 viewBox="0 0 76.3636 70" style="enable-background:new 0 0 76.3636 70;" xml:space="preserve">
<style type="text/css">
	.st0{clip-path:url(#SVGID_00000125572848063353941330000012679362627302358656_);fill:#FFFFFF;}
</style>
<metadata>
	<sfw  xmlns="&ns_sfw;">
		<slices></slices>
		<sliceSourceBounds  bottomLeftOrigin="true" height="67.326" width="59.7016" x="120.0629" y="-183.5751"></sliceSourceBounds>
	</sfw>
</metadata>
<g>
	<defs>
		<rect id="SVGID_1_" x="5.5351" width="66.6694" height="70"/>
	</defs>
	<clipPath id="SVGID_00000046334565760851060340000016771105426478455699_">
		<use xlink:href="#SVGID_1_"  style="overflow:visible;"/>
	</clipPath>
	<path style="clip-path:url(#SVGID_00000046334565760851060340000016771105426478455699_);fill:#FFFFFF;" d="M45.6665,42.8253
		c-0.3045-0.3423-0.7224-0.5103-1.2558-0.5103c-0.5082,0-0.9156,0.1659-1.2285,0.5019c-0.315,0.336-0.4725,0.8043-0.4725,1.4028
		v1.008c0,0.5523,0.1617,0.9954,0.4788,1.3314c0.3171,0.336,0.7329,0.5061,1.2495,0.5061c0.5145,0,0.924-0.1722,1.2285-0.5124
		c0.3045-0.3381,0.4557-0.7959,0.4557-1.365v-1.0227C46.1222,43.6128,45.971,43.1655,45.6665,42.8253 M45.6665,42.8253
		c-0.3045-0.3423-0.7224-0.5103-1.2558-0.5103c-0.5082,0-0.9156,0.1659-1.2285,0.5019c-0.315,0.336-0.4725,0.8043-0.4725,1.4028
		v1.008c0,0.5523,0.1617,0.9954,0.4788,1.3314c0.3171,0.336,0.7329,0.5061,1.2495,0.5061c0.5145,0,0.924-0.1722,1.2285-0.5124
		c0.3045-0.3381,0.4557-0.7959,0.4557-1.365v-1.0227C46.1222,43.6128,45.971,43.1655,45.6665,42.8253 M45.6665,46.5528
		c0.3045-0.3381,0.4557-0.7959,0.4557-1.365v-1.0227c0-0.5523-0.1512-0.9996-0.4557-1.3398
		c-0.3045-0.3423-0.7224-0.5103-1.2558-0.5103c-0.5082,0-0.9156,0.1659-1.2285,0.5019c-0.315,0.336-0.4725,0.8043-0.4725,1.4028
		v1.008c0,0.5523,0.1617,0.9954,0.4788,1.3314c0.3171,0.336,0.7329,0.5061,1.2495,0.5061
		C44.9525,47.0653,45.362,46.8931,45.6665,46.5528 M54.0351,53.6404c-0.5145,0-0.9282,0.1659-1.2411,0.5019
		c-0.315,0.336-0.4725,0.7959-0.4725,1.3755v1.0353c0,0.5061,0.168,0.9387,0.4998,1.2978c0.3318,0.3612,0.7455,0.5397,1.2411,0.5397
		c1.1256,0,1.6863-0.6216,1.6863-1.8648v-1.05c0-0.5523-0.1575-0.9975-0.4704-1.3335S54.5517,53.6404,54.0351,53.6404
		 M58.4158,56.5531c0,1.2348-0.3969,2.2302-1.1907,2.9883c-0.7896,0.7602-1.8438,1.1403-3.1626,1.1403
		c-1.3251,0-2.3898-0.3822-3.1899-1.1466c-0.8001-0.7623-1.1991-1.7766-1.1991-3.0366v-1.0227c0-1.2432,0.4032-2.2449,1.2138-3.0051
		c0.8085-0.7581,1.8585-1.1382,3.1479-1.1382c1.3083,0,2.3646,0.3759,3.1689,1.1256c0.8085,0.7497,1.2117,1.785,1.2117,3.1017
		V56.5531z M43.2767,57.851l9.8197-15.7166l1.9467,1.05l-9.8197,15.7145L43.2767,57.851z M40.0595,45.1458v-0.9807
		c0-1.2348,0.4011-2.2344,1.1991-3.0051c0.8022-0.7665,1.8522-1.1529,3.1521-1.1529c1.3167,0,2.373,0.3801,3.1752,1.1382
		c0.8022,0.7602,1.2012,1.7913,1.2012,3.0891v0.9933c0,1.2432-0.399,2.2428-1.2012,2.9967c-0.8022,0.756-1.8501,1.134-3.1479,1.134
		c-1.3083,0-2.3646-0.3801-3.1689-1.1424C40.4627,47.458,40.0595,46.4352,40.0595,45.1458 M35.8678,56.4985
		c-0.7098,1.3251-1.722,2.3562-3.0429,3.0849c-1.3209,0.7329-2.8812,1.0983-4.6767,1.0983c-1.5687,0-3.0282-0.3171-4.3701-0.9534
		c-1.3461-0.6363-2.4087-1.5309-3.1878-2.688c-0.7791-1.1529-1.1928-2.4675-1.239-3.9438h5.1031
		c0.1071,1.0836,0.4851,1.9257,1.134,2.5263s1.4952,0.9009,2.5431,0.9009c1.1655,0,2.0643-0.42,2.6943-1.2579
		c0.6321-0.84,0.9471-2.0244,0.9471-3.5595c0-1.4763-0.3633-2.6061-1.0899-3.3915c-0.7266-0.7854-1.7535-1.1781-3.087-1.1781
		c-1.2243,0-2.2176,0.3213-2.9799,0.9639l-0.5019,0.4641l-4.1034-1.0185l1.4973-13.2049h14.5657v4.3008H25.7394l-0.6426,5.5861
		c1.2264-0.6531,2.5284-0.9807,3.9081-0.9807c2.4759,0,4.4142,0.7665,5.8171,2.3016c1.4049,1.5351,2.1084,3.6813,2.1084,6.4429
		C36.9305,53.6698,36.5755,55.1713,35.8678,56.4985 M72.1688,25.8823c0-0.2751-0.0231-0.5523-0.0357-0.8589H5.5603v0.6888
		c0,12.4384,0,24.8768,0.0063,37.3174c0,0.5166,0.0147,1.0437,0.1155,1.5498c0.6657,3.2886,3.3474,5.3886,6.8671,5.3886
		c17.4869,0.0042,34.9737-0.0399,52.4606,0.0315c4.1097,0.0168,7.2241-3.045,7.1947-7.1905
		C72.1121,50.5009,72.1709,38.1927,72.1688,25.8823 M45.6665,42.8253c-0.3045-0.3423-0.7224-0.5103-1.2558-0.5103
		c-0.5082,0-0.9156,0.1659-1.2285,0.5019c-0.315,0.336-0.4725,0.8043-0.4725,1.4028v1.008c0,0.5523,0.1617,0.9954,0.4788,1.3314
		c0.3171,0.336,0.7329,0.5061,1.2495,0.5061c0.5145,0,0.924-0.1722,1.2285-0.5124c0.3045-0.3381,0.4557-0.7959,0.4557-1.365v-1.0227
		C46.1222,43.6128,45.971,43.1655,45.6665,42.8253 M45.6665,42.8253c-0.3045-0.3423-0.7224-0.5103-1.2558-0.5103
		c-0.5082,0-0.9156,0.1659-1.2285,0.5019c-0.315,0.336-0.4725,0.8043-0.4725,1.4028v1.008c0,0.5523,0.1617,0.9954,0.4788,1.3314
		c0.3171,0.336,0.7329,0.5061,1.2495,0.5061c0.5145,0,0.924-0.1722,1.2285-0.5124c0.3045-0.3381,0.4557-0.7959,0.4557-1.365v-1.0227
		C46.1222,43.6128,45.971,43.1655,45.6665,42.8253"/>
	<path style="clip-path:url(#SVGID_00000046334565760851060340000016771105426478455699_);fill:#FFFFFF;" d="M50.5621,5.048
		c-0.2163,2.5872,0.2457,4.9246,2.3037,6.6697c1.2558,1.0668,2.7132,1.6044,4.3722,1.5939
		c1.3671-0.0063,2.6166-0.3948,3.7359-1.1718c1.1403-0.7917,2.0622-1.8144,2.4192-3.1605c0.3339-1.26,0.4368-2.583,0.6447-3.9165
		c4.4709-0.7308,8.1103,2.3079,8.1313,6.9175c0.0126,2.9673,0.0021,5.9326,0,8.8999c0,0.2289-0.0189,0.4599-0.0315,0.7392H5.5608
		v-1.5918c0-2.6292,0.0819-5.2606-0.0189-7.8835c-0.1638-4.1874,3.1332-7.3732,7.1926-7.1485
		c0.3381,0.0189,0.6762,0.0021,1.1445,0.0021c0,0.5796-0.0084,1.1382,0,1.6968c0.0567,3.4125,2.6523,6.3022,5.9074,6.5836
		c3.5847,0.3087,6.6382-1.9215,7.285-5.3971c0.168-0.9072,0.1197-1.8543,0.1722-2.8329H50.5621z"/>
	<path style="clip-path:url(#SVGID_00000046334565760851060340000016771105426478455699_);fill:#FFFFFF;" d="M23.8664,5.013
		c0,0.5985,0.0231,1.197-0.0042,1.7934c-0.0735,1.6947-1.3965,3.0576-3.066,3.1815c-1.7199,0.126-3.318-1.029-3.4923-2.7531
		c-0.1512-1.4889-0.1491-3.0177,0.0063-4.5045c0.1743-1.6884,1.7409-2.8203,3.4398-2.7237c1.6674,0.0945,3.0219,1.449,3.1101,3.1353
		C23.8937,3.7634,23.8664,4.3893,23.8664,5.013"/>
	<path style="clip-path:url(#SVGID_00000046334565760851060340000016771105426478455699_);fill:#FFFFFF;" d="M53.8633,5.0046
		c0-0.5985-0.0189-1.197,0.0042-1.7934c0.063-1.6947,1.3797-3.0702,3.0429-3.2004c1.7241-0.1365,3.3327,1.0101,3.5112,2.7279
		c0.1533,1.4868,0.1554,3.0156,0.0021,4.5045c-0.1743,1.7199-1.7808,2.8728-3.4986,2.7426
		c-1.6653-0.126-2.9904-1.4973-3.0576-3.1878C53.8423,6.2016,53.8633,5.6031,53.8633,5.0046"/>
</g>
</svg>
