<?xml version="1.0" encoding="utf-8"?>
<!-- Generator: Adobe Illustrator 27.8.1, SVG Export Plug-In . SVG Version: 6.00 Build 0)  -->
<!DOCTYPE svg PUBLIC "-//W3C//DTD SVG 1.1//EN" "http://www.w3.org/Graphics/SVG/1.1/DTD/svg11.dtd" [
	<!ENTITY ns_extend "http://ns.adobe.com/Extensibility/1.0/">
	<!ENTITY ns_ai "http://ns.adobe.com/AdobeIllustrator/10.0/">
	<!ENTITY ns_graphs "http://ns.adobe.com/Graphs/1.0/">
	<!ENTITY ns_vars "http://ns.adobe.com/Variables/1.0/">
	<!ENTITY ns_imrep "http://ns.adobe.com/ImageReplacement/1.0/">
	<!ENTITY ns_sfw "http://ns.adobe.com/SaveForWeb/1.0/">
	<!ENTITY ns_custom "http://ns.adobe.com/GenericCustomNamespace/1.0/">
	<!ENTITY ns_adobe_xpath "http://ns.adobe.com/XPath/1.0/">
]>
<svg version="1.1" id="Layer_1" xmlns:x="&ns_extend;" xmlns:i="&ns_ai;" xmlns:graph="&ns_graphs;"
	 xmlns="http://www.w3.org/2000/svg" xmlns:xlink="http://www.w3.org/1999/xlink" x="0px" y="0px" width="76.3636px" height="70px"
	 viewBox="0 0 76.3636 70" style="enable-background:new 0 0 76.3636 70;" xml:space="preserve">
<style type="text/css">
	.st0{clip-path:url(#SVGID_00000170977867470791259620000006362972321740944282_);fill:#FFFFFF;}
	.st1{fill:#FFFFFF;}
</style>
<metadata>
	<sfw  xmlns="&ns_sfw;">
		<slices></slices>
		<sliceSourceBounds  bottomLeftOrigin="true" height="70" width="69.9856" x="3.8436" y="0"></sliceSourceBounds>
	</sfw>
</metadata>
<g>
	<defs>
		<rect id="SVGID_1_" x="3.8436" width="69.9856" height="70"/>
	</defs>
	<clipPath id="SVGID_00000080177713204168212160000018358613008045291964_">
		<use xlink:href="#SVGID_1_"  style="overflow:visible;"/>
	</clipPath>
	<path style="clip-path:url(#SVGID_00000080177713204168212160000018358613008045291964_);fill:#FFFFFF;" d="M50.4427,54.4314
		v-0.0072c1.3776,0,2.76,0.0864,4.128-0.0192c2.16-0.1704,3.6504-1.7784,3.6792-3.7992c0.0264-2.0208-1.4448-3.7704-3.5784-3.8784
		c-2.748-0.1368-5.5079-0.1272-8.2559-0.0072c-2.1672,0.0936-3.648,1.7544-3.6744,3.7848c-0.0312,2.1192,1.5216,3.756,3.816,3.912
		C47.8459,54.5034,49.1467,54.4314,50.4427,54.4314 M50.4955,0.0168c6.6743,0,12.9838-0.048,19.291,0.024
		c2.616,0.0288,4.0056,1.6248,4.0224,4.4399c0.036,6.5567,0.012,13.1135,0.012,19.6702c0,13.4398,0.0024,26.8773-0.0024,40.3147
		c0,4.3392-1.1616,5.5295-5.4023,5.5319C48.6667,70,28.9173,70,9.168,69.9976c-4.1136-0.0024-5.3207-1.2192-5.3207-5.3639
		c-0.0048-19.7542-0.0048-39.5059,0-59.2577c0-4.152,1.2-5.3591,5.3159-5.3639c5.8967-0.0072,11.7935-0.0024,18.007-0.0024
		c0,2.0568,0,3.9696,0,5.8799c0,4.2912-0.0264,8.5823,0.0096,12.8711c0.024,3.0576,1.4304,4.5359,4.4015,4.5647
		c4.8551,0.048,9.7127,0.0504,14.5678-0.0024c2.8512-0.0288,4.308-1.5096,4.332-4.3896c0.0456-5.4239,0.0144-10.8479,0.0144-16.2718
		V0.0168z"/>
</g>
<rect x="34.9929" y="0.2112" class="st1" width="7.5503" height="15.1942"/>
</svg>
