<?xml version="1.0" encoding="utf-8"?>
<!-- Generator: Adobe Illustrator 27.8.1, SVG Export Plug-In . SVG Version: 6.00 Build 0)  -->
<!DOCTYPE svg PUBLIC "-//W3C//DTD SVG 1.1//EN" "http://www.w3.org/Graphics/SVG/1.1/DTD/svg11.dtd" [
	<!ENTITY ns_extend "http://ns.adobe.com/Extensibility/1.0/">
	<!ENTITY ns_ai "http://ns.adobe.com/AdobeIllustrator/10.0/">
	<!ENTITY ns_graphs "http://ns.adobe.com/Graphs/1.0/">
	<!ENTITY ns_vars "http://ns.adobe.com/Variables/1.0/">
	<!ENTITY ns_imrep "http://ns.adobe.com/ImageReplacement/1.0/">
	<!ENTITY ns_sfw "http://ns.adobe.com/SaveForWeb/1.0/">
	<!ENTITY ns_custom "http://ns.adobe.com/GenericCustomNamespace/1.0/">
	<!ENTITY ns_adobe_xpath "http://ns.adobe.com/XPath/1.0/">
]>
<svg version="1.1" id="Layer_1" xmlns:x="&ns_extend;" xmlns:i="&ns_ai;" xmlns:graph="&ns_graphs;"
	 xmlns="http://www.w3.org/2000/svg" xmlns:xlink="http://www.w3.org/1999/xlink" x="0px" y="0px" width="76.3636px" height="70px"
	 viewBox="0 0 76.3636 70" style="enable-background:new 0 0 76.3636 70;" xml:space="preserve">
<style type="text/css">
	.st0{clip-path:url(#SVGID_00000053507554316875796530000001887449000488000170_);fill:#FFFFFF;}
</style>
<metadata>
	<sfw  xmlns="&ns_sfw;">
		<slices></slices>
		<sliceSourceBounds  bottomLeftOrigin="true" height="70" width="64.7427" x="6.4769" y="0"></sliceSourceBounds>
	</sfw>
</metadata>
<g>
	<defs>
		<rect id="SVGID_1_" x="6.4769" width="64.7422" height="70"/>
	</defs>
	<clipPath id="SVGID_00000105412653752606444870000010867481144075505576_">
		<use xlink:href="#SVGID_1_"  style="overflow:visible;"/>
	</clipPath>
	<path style="clip-path:url(#SVGID_00000105412653752606444870000010867481144075505576_);fill:#FFFFFF;" d="M48.3241,36.536
		c-0.968,2.9796-3.3197,4.6888-6.4547,4.6888c-1.2515,0-2.5995-0.2835-3.914-0.8252c-3.221-1.3355-4.5733-3.6704-3.6011-6.2594
		c0.5879-1.5622,1.9486-2.0662,2.841-2.4042c0.3276-0.1176,0.6614-0.2457,0.8252-0.3696c0.4955-0.3843,0.8042-1.2179,1.1255-2.1061
		c0.5648-1.5286,1.5055-4.0841,4.5019-4.0841c0.2289,0,0.4703,0.0126,0.7286,0.0462l0.168,0.021l0.1617,0.0525l0.1281,0.0399
		c1.474,0.4767,2.6415,1.4698,3.3575,2.8641C49.8065,31.3475,48.702,35.3853,48.3241,36.536 M69.5527,39.4841l-5.9109-1.6399
		c-0.2562-0.0693-0.5081-0.0714-0.7538-0.0399c0.6215-4.0127,0.8189-8.1555,0.4032-12.0548
		c0.2583,0.1365,0.5396,0.2352,0.8483,0.2352h0.1176l5.2536-0.3276c1.0016-0.0651,1.7701-0.9344,1.705-1.9339
		c-0.0609-1.0037-0.9029-1.7512-1.936-1.7071l-5.2494,0.3276c-0.4683,0.0252-0.8651,0.2394-1.1654,0.5459
		c-0.758-3.893-2.2363-7.4185-4.6363-10.1776c0.147-0.0588,0.294-0.1218,0.4221-0.2184l4.9282-3.6158
		c0.8063-0.59,0.9869-1.7323,0.3927-2.5491c-0.5984-0.8042-1.7386-0.9932-2.5512-0.3885l-4.9261,3.6074
		c-0.3171,0.2352-0.5039,0.5585-0.6215,0.9029c-1.4782-1.1402-3.1958-2.0746-5.2032-2.715l-0.6152-0.1995
		c-1.3208-0.1743-2.4861-0.1827-3.5528-0.0651c0.0336-0.1281,0.0819-0.2457,0.0819-0.3927V1.8247
		C46.5834,0.8189,45.7707,0,44.7629,0c-1.0121,0-1.8268,0.8189-1.8268,1.8247v5.2536c0,0.485,0.1974,0.9218,0.5039,1.2431
		c-2.9376,1.3921-4.6762,4.2205-6.0956,7.5529c-0.0777-0.063-0.1386-0.1449-0.2352-0.1932l-5.2515-2.9628
		c-0.8798-0.4955-1.9906-0.1827-2.4798,0.6992c-0.4976,0.8714-0.1848,1.9864,0.6908,2.4798l5.2557,2.9565
		c0.2394,0.1386,0.5018,0.2016,0.7601,0.2184c-1.5223,4.1218-3.0132,8.5272-5.8521,11.7902
		c-0.0357-0.084-0.0567-0.1638-0.1092-0.2373l-3.9392-5.262c-0.6047-0.8063-1.7491-0.9659-2.5512-0.3612
		c-0.8063,0.6026-0.9722,1.7554-0.3675,2.5554l3.9434,5.2515c0.1197,0.1659,0.2856,0.2667,0.4431,0.3717
		c-3.6305,2.4693-8.6238,2.8725-11.4206,5.8605l-4.5544-5.5245c-0.6383-0.7769-1.7848-0.8924-2.5701-0.2478
		c-0.7769,0.6404-0.8798,1.789-0.2457,2.5638l4.6048,5.5854c0.2856,0.3486,0.6845,0.5249,1.094,0.5942
		c-0.7265,2.2111-0.7601,4.2016-0.2961,5.9822c-0.0819,0-0.1638-0.0336-0.2499-0.0252l-5.9192,0.6572
		c-0.9953,0.1113-1.7155,1.0142-1.6063,2.0137c0.1029,0.9365,0.8903,1.6252,1.81,1.6252c0.0651,0,0.1365-0.0063,0.2016-0.0105
		l5.9172-0.6593c0.4703-0.0567,0.8777-0.2898,1.1696-0.6299c1.4446,2.251,3.6977,4.0778,6.1523,5.5182
		c-0.0588,0.0609-0.126,0.1029-0.1743,0.1722l-3.2861,4.924c-0.5585,0.8399-0.3339,1.9717,0.506,2.5302
		c0.315,0.2058,0.6635,0.3087,1.0121,0.3087c0.5879,0,1.1633-0.2814,1.516-0.8105l3.2882-4.9303
		c0.1197-0.1827,0.1911-0.3822,0.2352-0.5858c0.42,0.189,0.8252,0.3654,1.2368,0.5354c2.5302,1.0394,5.0898,1.8226,7.6285,2.3244
		c-0.1323,0.2121-0.2226,0.4431-0.2667,0.6971l-0.9869,6.2426c-0.1554,0.9953,0.5249,1.9339,1.5139,2.0851
		C34.0645,69.9937,34.1548,70,34.2493,70c0.8861,0,1.6567-0.6404,1.8037-1.5412l0.9827-6.2342
		c0.0378-0.2604,0.0189-0.5207-0.0462-0.7601c3.1245,0.3234,6.1439,0.1617,8.966-0.5123c-0.0714,0.3654-0.0546,0.7496,0.1155,1.1108
		l2.9523,6.2384c0.315,0.653,0.9743,1.0457,1.6525,1.0457c0.2625,0,0.527-0.0588,0.779-0.1806
		c0.9092-0.4305,1.2977-1.516,0.8672-2.421l-2.9544-6.2426c-0.0903-0.1911-0.2205-0.3444-0.3633-0.4892
		c3.0825-1.2305,5.8143-3.2126,8.0043-6.0326c0.1491,0.2604,0.3465,0.4976,0.6215,0.6614l5.5854,3.284
		c0.2919,0.1701,0.611,0.2499,0.9239,0.2499c0.6236,0,1.2305-0.3192,1.5748-0.8966c0.5081-0.8693,0.2184-1.9843-0.6467-2.5008
		l-5.5875-3.2819c-0.2226-0.1302-0.4682-0.21-0.7055-0.2331c0.7706-1.3879,1.4593-2.8893,2.0074-4.5859
		c0.5669-1.7575,1.0709-3.6095,1.4887-5.5224c0.126,0.0777,0.2436,0.1638,0.3948,0.2037l5.9129,1.6441
		c0.1659,0.0399,0.3297,0.0651,0.4934,0.0651c0.7916,0,1.5307-0.5291,1.7554-1.3334C71.094,40.7649,70.527,39.757,69.5527,39.4841"
		/>
	<path style="clip-path:url(#SVGID_00000105412653752606444870000010867481144075505576_);fill:#FFFFFF;" d="M44.2768,27.0763
		l-0.1428-0.0462c-0.1722-0.0273-0.336-0.0315-0.4871-0.0315c-2.9733,0-2.3454,4.1491-4.5166,5.8101
		c-1.0121,0.7811-2.5911,0.7118-3.072,1.9738c-0.7685,2.0557,1.052,3.2924,2.5911,3.9287c1.0814,0.4473,2.1817,0.6887,3.221,0.6887
		c2.0998,0,3.9371-1.01,4.7203-3.4205C47.6238,32.7919,47.712,28.1703,44.2768,27.0763"/>
</g>
</svg>
