<?xml version="1.0" encoding="utf-8"?>
<!-- Generator: Adobe Illustrator 27.8.1, SVG Export Plug-In . SVG Version: 6.00 Build 0)  -->
<!DOCTYPE svg PUBLIC "-//W3C//DTD SVG 1.1//EN" "http://www.w3.org/Graphics/SVG/1.1/DTD/svg11.dtd" [
	<!ENTITY ns_extend "http://ns.adobe.com/Extensibility/1.0/">
	<!ENTITY ns_ai "http://ns.adobe.com/AdobeIllustrator/10.0/">
	<!ENTITY ns_graphs "http://ns.adobe.com/Graphs/1.0/">
	<!ENTITY ns_vars "http://ns.adobe.com/Variables/1.0/">
	<!ENTITY ns_imrep "http://ns.adobe.com/ImageReplacement/1.0/">
	<!ENTITY ns_sfw "http://ns.adobe.com/SaveForWeb/1.0/">
	<!ENTITY ns_custom "http://ns.adobe.com/GenericCustomNamespace/1.0/">
	<!ENTITY ns_adobe_xpath "http://ns.adobe.com/XPath/1.0/">
]>
<svg version="1.1" id="Layer_1" xmlns:x="&ns_extend;" xmlns:i="&ns_ai;" xmlns:graph="&ns_graphs;"
	 xmlns="http://www.w3.org/2000/svg" xmlns:xlink="http://www.w3.org/1999/xlink" x="0px" y="0px" width="76.3636px" height="70px"
	 viewBox="0 0 76.3636 70" style="enable-background:new 0 0 76.3636 70;" xml:space="preserve">
<style type="text/css">
	.st0{fill:#FFFFFF;}
</style>
<metadata>
	<sfw  xmlns="&ns_sfw;">
		<slices></slices>
		<sliceSourceBounds  bottomLeftOrigin="true" height="47.7057" width="71.112" x="2.6258" y="11.1472"></sliceSourceBounds>
	</sfw>
</metadata>
<path class="st0" d="M66.6657,23.9503c0-0.9286-0.412-1.7381-1.1943-2.3425c-0.9035-0.6985-2.1605-1.0353-3.5326-1.0353
	c-1.9911,0-4.2186,0.709-5.9525,2.0476c-2.0162,1.5603-3.8234,6.3102-4.7792,9.3994c4.0388-0.7236,10.7839-2.2086,12.955-3.886
	C65.7287,26.9223,66.6657,25.3578,66.6657,23.9503z"/>
<path class="st0" d="M42.8976,22.62c-2.9261-2.2609-7.2681-2.7252-9.483-1.0123c-0.7822,0.6044-1.1942,1.4139-1.1942,2.3425
	c0,1.4076,0.9349,2.972,2.5035,4.183c2.1689,1.6774,8.9162,3.1624,12.955,3.886C46.723,28.9302,44.9159,24.1803,42.8976,22.62z"/>
<path class="st0" d="M39.4487,46.156h-2.5308c0-5.758,3.3171-9.2592,6.5004-11.2922H5.158v21.457h43.0186V35.2926
	C45.3049,36.3154,39.4487,39.2456,39.4487,46.156z"/>
<path class="st0" d="M2.6258,57.5896v1.2632h1.2626C3.191,58.8504,2.6277,58.2872,2.6258,57.5896z"/>
<path class="st0" d="M61.9681,46.156h-2.5308c0-6.8351-5.8667-9.8072-8.728-10.8488v21.0136h20.497v-21.457H55.4677
	C58.651,36.8968,61.9681,40.398,61.9681,46.156z"/>
<path class="st0" d="M50.7094,23.0551h-2.5328v-9.3742H5.158V32.331h32.8119c-1.9702-0.6317-3.7271-1.3679-4.7958-2.194
	c-2.215-1.713-3.4866-3.9676-3.4866-6.1867c0-1.7172,0.7739-3.2607,2.1773-4.3462c3.1603-2.4429,8.6882-1.9974,12.5826,1.0123
	c2.2045,1.7046,3.9237,5.6074,4.9946,8.6526c1.073-3.0452,2.7922-6.9481,4.9967-8.6526c3.8944-3.0097,9.4223-3.4552,12.5826-1.0123
	c1.4034,1.0854,2.1752,2.629,2.1752,4.3462c0,2.2191-1.2695,4.4738-3.4866,6.1867c-1.0667,0.8262-2.8235,1.5624-4.7938,2.194
	h10.2903V13.6808h-20.497V23.0551z"/>
<path class="st0" d="M2.6258,12.41c0.002-0.697,0.5673-1.2621,1.2668-1.2621h68.5792c0.6986,0,1.2654,0.5668,1.2654,1.2654v45.1729
	c0,0.6991-0.5647,1.2642-1.2612,1.2666h1.2618V11.1472H2.6258V12.41z"/>
</svg>
