<?xml version="1.0" encoding="utf-8"?>
<!-- Generator: Adobe Illustrator 27.6.1, SVG Export Plug-In . SVG Version: 6.00 Build 0)  -->
<svg version="1.1" xmlns="http://www.w3.org/2000/svg" xmlns:xlink="http://www.w3.org/1999/xlink" x="0px" y="0px"
	 viewBox="0 0 50 50" style="enable-background:new 0 0 50 50;" xml:space="preserve">
<style type="text/css">
	.st0{fill:#FFFFFF;}
	.st1{fill:#D1D3D4;}
	.st2{fill:#E31E1F;}
</style>
<g id="Layer_2">
	<g>
		<circle class="st0" cx="24.9998" cy="25.0002" r="24.7525"/>
		<path class="st1" d="M25,50C11.215,50,0,38.785,0,25S11.215,0,25,0s25,11.215,25,25S38.785,50,25,50z M25,0.495
			C11.4881,0.495,0.495,11.4881,0.495,25S11.4881,49.505,25,49.505S49.505,38.5119,49.505,25S38.5119,0.495,25,0.495z"/>
	</g>
</g>
<g id="Layer_1">
	<g id="XMLID_11075_">
		<path id="XMLID_11080_" class="st2" d="M49.5,25c0,13.51-10.9918,24.4991-24.4982,24.4991C11.4919,49.4991,0.5,38.51,0.5,25
			c0-13.5063,10.9919-24.4991,24.5018-24.4991C38.5082,0.5009,49.5,11.4937,49.5,25z"/>
		<path id="XMLID_11076_" d="M39.0984,33.1605c-0.7076-0.8323-1.454,0.048-1.454,0.048l-1.9575,0.0813
			c0,0,0.3778-0.3778,1.1437-0.8563c0.9763,0.2679,1.2488-0.4647,1.3015-0.6125c0.0527-0.1487,0.2874-0.1912,0.7658-0.1912
			c-0.23-0.3732-0.6032-0.3159-1.1104-0.1921c-1.1298-0.5931-1.2822,0.6125-1.2822,0.6125l-1.417,0.9764
			c0,0-2.3482-0.5727-3.1888-0.8175c0.0139-0.0212,0.0212-0.0342,0.0212-0.0342s0.5598-0.6891,0.6606-1.0337
			c0.1006-0.3446-0.7751-0.3446-1.8088-0.5312s-2.024-2.3251-2.3112-2.9422c-0.2874-0.618,0.3592-0.7039,0.6031-0.46
			c0.2439,0.2448,1.0475,1.9953,1.5935,2.2974c0.545,0.3011,0.9616-0.3159,0.4591-0.6466c-0.5025-0.3298-0.775-1.636-0.775-2.024
			c0-0.3871,0.8037-0.473,0.8037,0.23c0,0.703,0.5386,1.6582,1.0623,2.1819c0.5238,0.5238,1.2776,1.1057,1.6369,0.5312
			c0.3584-0.5746-0.1441-0.6743-0.8046-1.1482c-0.6596-0.4739-0.933-1.1196-0.9441-1.345c-0.012-0.2254,0.0111-1.1676,0.6716-0.7224
			s1.0337,1.3062,2.1819,2.4544c1.1482,1.1492,2.096,1.709,3.259,1.321c0.2891-0.097,0.6309-0.2688,0.7159-0.5903
			c0.0813-0.3039-0.1053-0.6429-0.3824-0.7741c-0.1949-0.0924-0.4184-0.1062-0.6346-0.1044
			c-0.6762,0.0055-1.4771,0.0286-2.0822-0.3252c-0.8323-0.4887-2.0387-2.1681-2.0387-2.9579c0-0.7889,0.5173,0.0148,1.2351,0.7325
			c0.3224,0.3224,0.715,0.5838,1.1057,0.8148c0.4416,0.2623,0.9626,0.5432,1.4688,0.6476c0.3233,0.0665,0.6799,0.0388,0.9496-0.1496
			c0.2781-0.1931,0.654-0.873,0.3113-1.1547c-0.2975-0.2439-0.957-0.0905-1.2951-0.0573c-1.1769,0.1145-2.1598-0.9265-2.7131-1.4799
			c-0.5524-0.5524-0.775-0.7455-0.775-1.4198c0-0.6753,1.4642,0.5025,2.4119,1.0623c0.9478,0.5598,2.0526,0.3871,2.4406,0
			c0.2476-0.2485,0.2799-0.6965,0.012-0.9422c-0.3815-0.3492-1.0217-0.1109-1.4798-0.109
			c-0.5507,0.0009-1.0763-0.2245-1.5594-0.4868c-0.4286-0.2328-0.8397-0.4979-1.2277-0.7926
			c-0.2134-0.1617-0.4268-0.3427-0.5302-0.5884c-0.0333-0.0776-0.0527-0.17-0.0148-0.2448c0.0443-0.0878,0.157-0.1229,0.254-0.109
			c0.0979,0.0148,0.1847,0.0674,0.2688,0.1182c0.9182,0.5459,1.9667,0.909,3.0355,0.8988c0.2272-0.0018,0.4582-0.0222,0.6716-0.0998
			c0.2134-0.0785,0.4101-0.2208,0.5164-0.4222c0.1811-0.3399,0.0009-0.9755-0.4185-1.054c-0.1469-0.0277-0.2993,0.0028-0.436,0.061
			c-0.2633,0.1099-0.4748,0.3215-0.7482,0.4102c-0.2115,0.0684-0.436,0.0951-0.6577,0.073
			c-0.3981-0.0388-0.7658-0.2226-1.1168-0.4157c-0.4379-0.2411-0.8656-0.5016-1.2803-0.7797
			c-0.1847-0.1229-0.3889-0.2965-0.3612-0.5173c0.024-0.1958,0.2365-0.3233,0.4342-0.3252
			c0.1977-0.0018,0.3834,0.0878,0.5626,0.1709c0.6623,0.3076,1.369,0.557,2.0988,0.5635c0.7308,0.0065,1.491-0.2623,1.9436-0.836
			c0.0859-0.109,0.1607-0.23,0.1949-0.364c0.0554-0.2152-0.0323-0.4489-0.1635-0.6208c-0.1155-0.1533-0.3482-0.2947-0.5487-0.2476
			c-0.2078,0.049-0.4046,0.2328-0.581,0.3483c-0.2383,0.158-0.4794,0.3104-0.7344,0.4397
			c-0.9043,0.4591-2.7131-0.2873-2.8996-0.7178c-0.1867-0.4305-0.1293-0.5598,0.5301-0.5598c0.6605,0,1.6222,0.4591,3.2156-0.1866
			c0.7122-0.2891,1.4115-0.8914,1.0928-1.7284c-0.0535-0.1404-0.1413-0.2716-0.2697-0.3492
			c-0.2152-0.1312-0.4296-0.0342-0.6208,0.0905c-0.2328,0.1524-0.4674,0.3492-0.6577,0.5524
			c-0.4406,0.4702-1.0623,0.5515-1.6729,0.5958c-0.2854,0.0212-0.5746,0.0286-0.8591,0.0018
			c-0.1644-0.0148-0.4046-0.0286-0.5293-0.1533c-0.3011-0.3021-0.1654-0.6679-0.0139-0.8185
			c0.0545-0.0545,0.3353-0.0527,0.4175-0.0665c0.1302-0.0231,0.2605-0.0471,0.3908-0.0739c0.9616-0.1977,1.9528-0.5035,2.7463-1.103
			c0.2439-0.1838,0.4656-0.3981,0.6494-0.642c0.3279-0.4351,0.6392-1.0466,0.5995-1.6037
			c-0.0259-0.3556-0.2798-0.7316-0.6707-0.5967c-0.3898,0.1349-0.6817,0.5469-0.9034,0.8702
			c-1.2628,1.8374-3.4669,2.0886-3.4669,2.0886c-0.0166-0.0166-0.0822-0.0831-0.3085-0.3085
			c-0.3805-0.3806-0.7612,0.0859-1.9381,0.4877c-1.1768,0.4009-1.8087,1.091-1.8087,1.5501c0.2152,2.2826-1.1047,2.1681-1.6,2.0027
			c-0.4961-0.1644-0.7824-0.7824-0.5958-1.5288c0.1866-0.7464,1.0762-2.2826,2.6364-2.569c1.5593-0.2873,2.096-0.5265,2.3537-0.8803
			c-0.1192,0.1192-0.8803,0.1432-1.1575,0.1432c-0.2781,0-0.3252-0.2014-0.3252-0.3159c0-0.1145,1.7035,0.1145,2.3731-0.2771
			c0.6698-0.3926,0.957-0.7279,0.6891-0.9958s-0.594,0-0.9672,0.5552c-0.3731,0.5552-1.3773,0.3824-1.8272,0.3067
			c0.1718-0.5746,1.1529-0.5413,1.3727-0.3205c0.2827-1.0051-1.4309-0.7852-1.4309-0.7852
			c-0.0055-0.0148-0.0119-0.0296-0.0194-0.0434c-0.2125-0.4092-0.9672-0.4674-1.3662-0.472
			c-0.667-0.0074-1.2859,0.3861-1.9011,0.5875c-0.7039,0.2291-1.5861,0.2291-1.5861,0.3224s0.2226,0.2226,0.897,0.7399
			c-0.2725,0-1.1057,0.6993-1.3062,1.0873c0.1644-0.0499,0.8037,0.0462,0.8037,0.0462s-0.9764,0.3307-1.4789,0.8332
			c0.1478,0.0951,0.1442,0.0573,0.46,0.2439c-0.158,0.158-1.1057,1.2748-1.1076,1.2776c-0.0018-0.0028-0.9487-1.1196-1.1067-1.2776
			c0.3159-0.1866,0.3122-0.1487,0.4591-0.2439c-0.5025-0.5025-1.4789-0.8332-1.4789-0.8332s0.6402-0.0961,0.8046-0.0462
			c-0.2014-0.388-1.0337-1.0873-1.3062-1.0873c0.6743-0.5173,0.897-0.6466,0.897-0.7399s-0.8831-0.0933-1.5861-0.3224
			c-0.6161-0.2014-1.2341-0.5949-1.9011-0.5875c-0.4,0.0046-1.1538,0.0628-1.3672,0.472c-0.0074,0.0139-0.0139,0.0286-0.0194,0.0434
			c0,0-1.7127-0.2199-1.4309,0.7852c0.2208-0.2208,1.2009-0.254,1.3736,0.3205c-0.4499,0.0757-1.4549,0.2485-1.8281-0.3067
			s-0.6984-0.8231-0.9663-0.5552s0.0194,0.6032,0.6891,0.9958c0.6697,0.3917,2.3731,0.1626,2.3731,0.2771
			c0,0.1145-0.048,0.3159-0.3252,0.3159c-0.2781,0-1.0383-0.024-1.1584-0.1432c0.2587,0.3538,0.7944,0.5931,2.3547,0.8803
			c1.5593,0.2864,2.4498,1.8226,2.6364,2.569c0.1867,0.7464-0.1007,1.3644-0.5958,1.5288
			c-0.4951,0.1654-1.8161,0.2799-1.6008-2.0027c0-0.4591-0.631-1.1492-1.8088-1.5501c-1.1769-0.4018-1.5575-0.8683-1.9381-0.4877
			c-0.2253,0.2254-0.2919,0.2919-0.3084,0.3085c0,0-2.2033-0.2513-3.467-2.0886c-0.2217-0.3233-0.5127-0.7353-0.9034-0.8702
			c-0.3908-0.1349-0.6448,0.2411-0.6697,0.5967c-0.0405,0.557,0.2707,1.1686,0.5986,1.6037
			c0.1848,0.2439,0.4065,0.4582,0.6503,0.642c0.7926,0.5995,1.7847,0.9053,2.7454,1.103c0.1302,0.0268,0.2606,0.0508,0.3917,0.0739
			c0.0814,0.0139,0.363,0.012,0.4175,0.0665c0.1506,0.1506,0.2873,0.5164-0.0148,0.8185c-0.1247,0.1247-0.3649,0.1386-0.5284,0.1533
			c-0.2854,0.0268-0.5746,0.0194-0.86-0.0018c-0.6097-0.0443-1.2323-0.1256-1.672-0.5958c-0.1912-0.2032-0.4249-0.4-0.6586-0.5524
			c-0.1912-0.1247-0.4046-0.2217-0.6207-0.0905c-0.1276,0.0776-0.2163,0.2088-0.2689,0.3492
			c-0.3187,0.8369,0.3798,1.4392,1.0919,1.7284c1.5935,0.6457,2.5551,0.1866,3.2156,0.1866c0.6605,0,0.7178,0.1293,0.5312,0.5598
			c-0.1866,0.4305-1.9953,1.1769-2.8997,0.7178c-0.255-0.1293-0.4969-0.2817-0.7353-0.4397
			c-0.1755-0.1155-0.3732-0.2993-0.5801-0.3483c-0.2005-0.0471-0.4332,0.0942-0.5496,0.2476
			c-0.1302,0.1718-0.218,0.4055-0.1635,0.6208c0.0352,0.1339,0.1099,0.255,0.1958,0.364c0.4517,0.5737,1.2129,0.8425,1.9427,0.836
			c0.7307-0.0065,1.4374-0.2559,2.0998-0.5635c0.1791-0.0831,0.3648-0.1727,0.5625-0.1709
			c0.1977,0.0018,0.4092,0.1293,0.4342,0.3252c0.0277,0.2208-0.1774,0.3944-0.3612,0.5173
			c-0.4157,0.2781-0.8425,0.5386-1.2803,0.7797c-0.351,0.1931-0.7196,0.3769-1.1178,0.4157
			c-0.2208,0.0222-0.4462-0.0046-0.6568-0.073c-0.2744-0.0887-0.485-0.3002-0.7482-0.4102c-0.1376-0.0582-0.2901-0.0887-0.436-0.061
			c-0.4203,0.0785-0.5994,0.7141-0.4194,1.054c0.1072,0.2014,0.3039,0.3436,0.5173,0.4222
			c0.2134,0.0776,0.4434,0.0979,0.6716,0.0998c1.0679,0.0102,2.1163-0.3529,3.0346-0.8988c0.085-0.0508,0.1718-0.1035,0.2688-0.1182
			c0.0979-0.0139,0.2097,0.0212,0.255,0.109c0.0379,0.0748,0.0176,0.1672-0.0148,0.2448c-0.1035,0.2457-0.3178,0.4268-0.5302,0.5884
			c-0.3889,0.2947-0.7991,0.5598-1.2277,0.7926c-0.4841,0.2623-1.0087,0.4877-1.5593,0.4868
			c-0.459-0.0018-1.0993-0.2402-1.4808,0.109c-0.2679,0.2457-0.2345,0.6937,0.0129,0.9422c0.3871,0.3871,1.4928,0.5598,2.4407,0
			c0.9468-0.5598,2.411-1.7376,2.411-1.0623c0,0.6743-0.2217,0.8674-0.7751,1.4198c-0.5533,0.5533-1.5362,1.5944-2.7131,1.4799
			c-0.3372-0.0333-0.9967-0.1866-1.2942,0.0573c-0.3436,0.2817,0.0333,0.9616,0.3104,1.1547
			c0.2707,0.1884,0.6272,0.2162,0.9496,0.1496c0.5071-0.1044,1.0282-0.3852,1.4697-0.6476
			c0.3908-0.2309,0.7833-0.4924,1.1057-0.8148c0.7178-0.7178,1.2341-1.5214,1.2341-0.7325c0,0.7898-1.2055,2.4692-2.0387,2.9579
			c-0.604,0.3538-1.405,0.3307-2.0812,0.3252c-0.2171-0.0018-0.4397,0.012-0.6355,0.1044
			c-0.2762,0.1312-0.4628,0.4702-0.3824,0.7741c0.0859,0.3215,0.4268,0.4933,0.7168,0.5903c1.1621,0.388,2.1099-0.1718,3.2581-1.321
			c1.1482-1.1482,1.5225-2.0092,2.1819-2.4544c0.6605-0.4453,0.6836,0.497,0.6725,0.7224c-0.012,0.2254-0.2845,0.8711-0.945,1.345
			c-0.6605,0.4739-1.1629,0.5737-0.8037,1.1482c0.3584,0.5746,1.1122-0.0074,1.6361-0.5312
			c0.5246-0.5238,1.0623-1.4789,1.0623-2.1819c0-0.703,0.8045-0.6171,0.8045-0.23c0,0.388-0.2734,1.6942-0.776,2.024
			c-0.5016,0.3307-0.0859,0.9478,0.46,0.6466c0.545-0.3021,1.3487-2.0526,1.5935-2.2974c0.2439-0.2439,0.8896-0.158,0.6023,0.46
			c-0.2873,0.6171-1.2776,2.7556-2.3113,2.9422s-1.9085,0.1866-1.8087,0.5312c0.1007,0.3446,0.6605,1.0337,0.6605,1.0337
			s0.0084,0.0129,0.0222,0.0342c-0.8406,0.2448-3.1897,0.8175-3.1897,0.8175l-1.4161-0.9764c0,0-0.1533-1.2055-1.2822-0.6125
			c-0.5071-0.1238-0.8803-0.1811-1.1104,0.1921c0.4785,0,0.7131,0.0425,0.7658,0.1912c0.0527,0.1478,0.3253,0.8803,1.3016,0.6125
			c0.7649,0.4785,1.1436,0.8563,1.1436,0.8563l-1.9574-0.0813c0,0-0.7464-0.8803-1.4549-0.048
			c-0.3732,0.0573-0.8609,0.2965-0.7944,0.5838c0.6032-0.182,0.7567-0.1053,0.7567-0.1053s0.6604,0.8803,1.3588,0
			c0.9663,0.0573,1.914,0.0573,1.914,0.0573l-1.1288,0.6032c0,0-1.0152-0.3159-1.2443,0.6984
			c-0.2106,0.412-0.2679,1.091-0.2679,1.091l0.5071-0.7076c0,0,1.0642,0.1977,1.2822-0.5746
			c0.6125-0.364,1.5889-0.9478,1.5889-0.9478l1.5501,0.5653c0,0,0.0092,0.7843,1.3016,0.6023
			c0.3446,0.3446,0.4212,0.5265,0.4212,0.5265s0.1192-0.6651-0.1921-0.9764c-0.1145-0.5644-0.5256-0.8323-1.2055-0.6023
			c-1.1288-0.412-1.2729-0.4693-1.2729-0.4693l3.0281-0.727c0.341,0.4443,0.8148,0.9709,1.1492,0.9709
			c0.5792,0,1.115-0.5598,1.5362-1.6886c0.4212-1.1298,0.9958-1.8762,1.4355-1.9528c0.4406-0.0767,0.8803-0.363,0.8803,0.5552
			c0,0.9191-0.1912,1.6849-0.7658,2.2586c-0.5737,0.5746-1.1676,1.3404-1.9519,1.4549c-0.7843,0.1145-1.9187-0.1339-1.66,0.5838
			c0.2577,0.7178,0.9044,0.9469,1.3348,0.7603s1.2203-1.0475,1.5788-0.8609c0.3592,0.1866,0.6456,0.5404,0.1144,0.9228
			c-0.3492,0.2522-0.7122,0.4933-1.0993,0.6854c-0.1681,0.0841-0.3454,0.1626-0.5301,0.2042
			c-0.2015,0.0453-0.4121,0.0231-0.6135,0.0637c-0.133,0.0268-0.2707,0.1099-0.2975,0.2429
			c-0.0212,0.1053,0.0314,0.2115,0.1007,0.2938c0.3141,0.3714,0.667,0.4961,1.1482,0.3861c0.632-0.1432,1.4069-0.9755,1.7515-1.0762
			c0.3446-0.1007,0.4157-0.0434,0.3298,0.3584c-0.0859,0.4018-0.1718,1.0051-1.0189,1.3348
			c-0.2725,0.1062-0.557,0.1663-0.8489,0.1654c-0.0748,0-0.1589,0.0185-0.1995,0.0813c-0.0562,0.0887,0.0065,0.1903,0.0573,0.2651
			c0.1441,0.2143,0.2762,0.4083,0.5219,0.5229c0.2448,0.1145,0.5173,0.0914,0.7418-0.0582
			c0.5173-0.3446,0.9764-0.9044,1.1631-1.2776c0.1865-0.3732,0.5237-0.581,0.617-0.2152c0.0933,0.3658,0.3298,0.4877-0.0573,1.163
			c-0.388,0.6743-1.0337,0.8037-0.933,1.1917c0.1007,0.3871,1.1371,2.3103,2.011,2.8129l0,0l0,0l0,0l0,0
			c0.8739-0.5025,1.9113-2.4258,2.012-2.8129c0.1008-0.388-0.5458-0.5173-0.933-1.1917c-0.388-0.6753-0.1515-0.7972-0.0582-1.163
			c0.0943-0.3658,0.4314-0.158,0.618,0.2152s0.6457,0.933,1.1621,1.2776c0.2254,0.1496,0.497,0.1727,0.7427,0.0582
			c0.2457-0.1145,0.3769-0.3085,0.5219-0.5229c0.0499-0.0748,0.1136-0.1764,0.0564-0.2651
			c-0.0397-0.0628-0.1246-0.0813-0.1995-0.0813c-0.291,0.0009-0.5764-0.0591-0.848-0.1654c-0.8471-0.3298-0.933-0.933-1.0198-1.3348
			c-0.0859-0.4018-0.0139-0.4591,0.3307-0.3584c0.3446,0.1007,1.1196,0.933,1.7515,1.0762
			c0.4813,0.1099,0.8332-0.0148,1.1473-0.3861c0.0693-0.0822,0.1229-0.1884,0.1016-0.2938
			c-0.0277-0.133-0.1644-0.2162-0.2983-0.2429c-0.2015-0.0406-0.4121-0.0185-0.6135-0.0637
			c-0.1848-0.0416-0.3612-0.1201-0.5302-0.2042c-0.3861-0.1921-0.75-0.4332-1.0993-0.6854
			c-0.5312-0.3824-0.2439-0.7362,0.1145-0.9228c0.3593-0.1866,1.1493,0.6743,1.5796,0.8609
			c0.4305,0.1866,1.0762-0.0425,1.3348-0.7603c0.2587-0.7178-0.8757-0.4693-1.6609-0.5838
			c-0.7843-0.1145-1.3773-0.8803-1.9518-1.4549c-0.5747-0.5737-0.7659-1.3395-0.7659-2.2586c0-0.9182,0.4406-0.6319,0.8803-0.5552
			c0.4406,0.0767,1.0152,0.8231,1.4355,1.9528c0.4212,1.1288,0.957,1.6886,1.5362,1.6886c0.3353,0,0.8092-0.5265,1.1492-0.9709
			l3.0281,0.727c0,0-0.1432,0.0573-1.2729,0.4693c-0.6789-0.23-1.091,0.0379-1.2054,0.6023
			c-0.3114,0.3113-0.1913,0.9764-0.1913,0.9764s0.0767-0.182,0.4212-0.5265c1.2914,0.182,1.3016-0.6023,1.3016-0.6023l1.5501-0.5653
			c0,0,0.9764,0.5838,1.5889,0.9478c0.218,0.7723,1.2822,0.5746,1.2822,0.5746l0.5071,0.7076c0,0-0.0573-0.679-0.2679-1.091
			c-0.23-1.0143-1.2443-0.6984-1.2443-0.6984l-1.1288-0.6032c0,0,0.9469,0,1.914-0.0573c0.6984,0.8803,1.3589,0,1.3589,0
			s0.1524-0.0767,0.7556,0.1053C39.9603,33.457,39.4716,33.2178,39.0984,33.1605z M30.1889,11.8198
			c0.2992,0,0.5412,0.1284,0.5412,0.2873c0,0.158-0.242,0.2864-0.5412,0.2864c-0.2985,0-0.5414-0.1284-0.5414-0.2864
			C29.6474,11.9482,29.8904,11.8198,30.1889,11.8198z M19.8112,12.3934c-0.2984,0-0.5412-0.1284-0.5412-0.2864
			c0-0.1589,0.2429-0.2873,0.5412-0.2873c0.2994,0,0.5413,0.1284,0.5413,0.2873C20.3526,12.265,20.1106,12.3934,19.8112,12.3934z"/>
	</g>
</g>
</svg>
