<?xml version="1.0" encoding="utf-8"?>
<!-- Generator: Adobe Illustrator 27.6.1, SVG Export Plug-In . SVG Version: 6.00 Build 0)  -->
<svg version="1.1" id="Layer_1" xmlns="http://www.w3.org/2000/svg" xmlns:xlink="http://www.w3.org/1999/xlink" x="0px" y="0px"
	 viewBox="0 0 50 50" style="enable-background:new 0 0 50 50;" xml:space="preserve">
<style type="text/css">
	.st0{fill:#FFFFFF;}
	.st1{fill:#D1D3D4;}
	.st2{fill:#25336F;}
	.st3{fill:#DE1E36;}
</style>
<g>
	<circle class="st0" cx="25" cy="25" r="24.8"/>
	<path class="st1" d="M25,50C11.2,50,0,38.8,0,25S11.2,0,25,0s25,11.2,25,25S38.8,50,25,50z M25,0.5C11.5,0.5,0.5,11.5,0.5,25
		s11,24.5,24.5,24.5s24.5-11,24.5-24.5S38.5,0.5,25,0.5z"/>
</g>
<g id="XMLID_12725_">
	<path id="XMLID_12747_" class="st2" d="M44.4,10.1C40,4.3,32.9,0.5,25,0.5c-7.9,0-14.9,3.8-19.4,9.6c-0.3,0.4-0.6,0.8-0.9,1.2
		c-0.3,0.4-0.5,0.8-0.8,1.3c-0.2,0.3-0.3,0.6-0.5,0.9c-0.1,0.1-0.2,0.3-0.2,0.4c-0.2,0.4-0.4,0.8-0.6,1.2c-0.1,0.3-0.3,0.7-0.4,1
		c-0.4,1-0.7,2-1,3c-0.1,0.3-0.2,0.7-0.2,1c-0.2,0.8-0.3,1.6-0.4,2.4c-0.1,0.6-0.1,1.1-0.1,1.7c0,0.3,0,0.5,0,0.8
		c0,5.6,1.9,10.8,5.1,14.9c4.5,5.8,11.5,9.6,19.4,9.6c7.9,0,14.9-3.8,19.4-9.6c3.2-4.1,5.1-9.3,5.1-14.9S47.6,14.2,44.4,10.1z"/>
	<g id="XMLID_12732_">
		<path id="XMLID_12746_" class="st2" d="M5.5,20l-4.9,2.4C0.7,21.6,0.8,20.8,1,20H5.5z"/>
		<path id="XMLID_12745_" class="st2" d="M11.3,10.1v4.5l-6.6-3.3c0.3-0.4,0.6-0.8,0.9-1.2L11.3,10.1L11.3,10.1z"/>
		<path id="XMLID_12744_" class="st2" d="M5.5,15.1H2.6c0.2-0.4,0.4-0.8,0.6-1.2L5.5,15.1z"/>
		<polygon id="XMLID_12743_" class="st2" points="28.7,15.1 28.7,11.8 22.1,15.1 		"/>
		<polygon id="XMLID_12742_" class="st2" points="25.4,10.1 16.3,10.1 16.3,14.6 		"/>
		<polygon id="XMLID_12741_" class="st2" points="28.7,23.3 28.7,20 22.1,20 		"/>
		<polygon id="XMLID_12740_" class="st2" points="2.2,25 11.3,25 11.3,20.5 		"/>
		<polygon id="XMLID_12739_" class="st2" points="16.3,25 25.4,25 16.3,20.5 		"/>
		<path id="XMLID_12738_" class="st0" d="M28.7,11.8l-6.6,3.3h6.6v5h-6.6l6.6,3.3v0.6L21,20h-2.2l9.9,5h-3.3l-9.1-4.5V25h-5v-4.5
			L2.2,25H1.1l9.9-5H8.8l-8.3,4.2c0-0.6,0.1-1.2,0.1-1.7L5.5,20H1c0.1-0.3,0.1-0.7,0.2-1c0.3-1,0.6-2,1-3c0.1-0.3,0.3-0.7,0.4-1h2.9
			l-2.3-1.2c0.1-0.1,0.2-0.3,0.2-0.4l3.2,1.6h2.2l-5-2.5c0.3-0.4,0.5-0.9,0.8-1.3l6.6,3.3v-4.5h5v4.5l9.1-4.5h1.1l-9.9,5h2.2l9.9-5
			h0L28.7,11.8L28.7,11.8z"/>
		<path id="XMLID_12737_" class="st3" d="M8.8,15.1H6.6l-3.2-1.6c0.2-0.3,0.3-0.6,0.5-0.9L8.8,15.1z"/>
		<polygon id="XMLID_12736_" class="st3" points="18.7,20 28.7,25 28.7,25 28.7,23.9 21,20 		"/>
		<polygon id="XMLID_12735_" class="st3" points="16.5,15.1 18.8,15.1 28.7,10.1 26.5,10.1 		"/>
		<path id="XMLID_12734_" class="st3" d="M11.1,20l-9.9,5H0.5c0-0.3,0-0.5,0-0.8L8.8,20H11.1z"/>
		<path id="XMLID_12733_" class="st3" d="M28.7,16.1v3H15.3v6h-3v-6H1.2c0.3-1,0.6-2,1-3h10.1v-6h3v6H28.7z"/>
	</g>
	<polygon id="XMLID_12731_" class="st0" points="13.8,34.5 11.9,36.5 12.2,33.7 9.4,33.5 11.8,32 10.3,29.7 12.9,30.6 13.8,28 
		14.7,30.6 17.3,29.7 15.8,32 18.1,33.5 15.4,33.7 15.7,36.5 	"/>
	<polygon id="XMLID_12730_" class="st0" points="38.2,35.9 37.3,36.9 37.5,35.6 36.1,35.4 37.3,34.7 36.5,33.6 37.8,34.1 38.2,32.8 
		38.6,34.1 39.9,33.6 39.2,34.7 40.3,35.4 39,35.6 39.1,36.9 	"/>
	<polygon id="XMLID_12729_" class="st0" points="32.9,24.1 32,25.1 32.2,23.7 30.8,23.6 32,22.9 31.2,21.8 32.5,22.3 32.9,21 
		33.3,22.3 34.6,21.8 33.9,22.9 35,23.6 33.7,23.7 33.8,25.1 	"/>
	<polygon id="XMLID_12728_" class="st0" points="38.2,16 37.3,17 37.5,15.7 36.1,15.5 37.3,14.9 36.5,13.7 37.8,14.2 38.2,12.9 
		38.6,14.2 39.9,13.7 39.2,14.9 40.3,15.5 39,15.7 39.1,17 	"/>
	<polygon id="XMLID_12727_" class="st0" points="44.8,22.1 43.9,23.1 44.1,21.8 42.7,21.6 43.9,20.9 43.2,19.8 44.4,20.3 44.8,19 
		45.2,20.3 46.5,19.8 45.8,20.9 46.9,21.6 45.6,21.8 45.8,23.1 	"/>
	<polygon id="XMLID_12726_" class="st0" points="41.2,26.8 40.4,27.3 40.7,26.4 40,25.8 40.9,25.8 41.2,25 41.5,25.8 42.4,25.8 
		41.7,26.4 42,27.3 	"/>
</g>
</svg>
