<?xml version="1.0" encoding="utf-8"?>
<!-- Generator: Adobe Illustrator 27.6.1, SVG Export Plug-In . SVG Version: 6.00 Build 0)  -->
<svg version="1.1" xmlns="http://www.w3.org/2000/svg" xmlns:xlink="http://www.w3.org/1999/xlink" x="0px" y="0px"
	 viewBox="0 0 50 50" style="enable-background:new 0 0 50 50;" xml:space="preserve">
<style type="text/css">
	.st0{fill:#FFFFFF;}
	.st1{fill:#D1D3D4;}
	.st2{fill:#C7313D;}
	.st3{fill:#48A558;}
</style>
<g id="Layer_2">
	<g>
		<circle class="st0" cx="24.9998" cy="25.0002" r="24.7525"/>
		<path class="st1" d="M25,50C11.215,50,0,38.785,0,25S11.215,0,25,0s25,11.215,25,25S38.785,50,25,50z M25,0.495
			C11.4881,0.495,0.495,11.4881,0.495,25S11.4881,49.505,25,49.505S49.505,38.5119,49.505,25S38.5119,0.495,25,0.495z"/>
	</g>
</g>
<g id="Layer_1">
	<g id="XMLID_12529_">
		<path id="XMLID_12606_" class="st2" d="M25.0009,0.5009c-5.04,0-9.7291,1.5279-13.6255,4.1514v1.4956h0.0009v0.7944h-0.0009
			v2.4203v0.7603v2.3611h0.0009v0.8748h-0.0009v1.5602v1.6471v1.5824h0.0009v0.8757h-0.0009v0.7381v2.4147v5.6433v2.4147v0.739
			h0.0009v0.8748h-0.0009v1.3173h36.7242C49.0076,30.6109,49.5,27.8637,49.5,25C49.5,11.4937,38.5082,0.5009,25.0009,0.5009z"/>
		<path id="XMLID_12605_" class="st3" d="M11.3754,33.4312v1.6471v1.5602h0.0009v0.8757h-0.0009v2.3611v0.7593v2.4212h0.0009v0.7935
			h-0.0009v1.502c3.8964,2.6198,8.5854,4.1477,13.6255,4.1477c10.6464,0,19.7288-6.8247,23.0987-16.333H11.3754V33.4312z"/>
		<path id="XMLID_12604_" class="st0" d="M0.9563,27.8202V27.036H1.457V26.26h0.4785v-0.776h0.4351v-0.9709H1.9355v-0.776H1.457
			v-0.776H0.9563V22.177H0.6645C0.5537,23.1017,0.5,24.0458,0.5,25s0.0537,1.8956,0.1645,2.8202H0.9563z"/>
		<path id="XMLID_12603_" class="st0" d="M1.397,20.5659v0.8268h0.5146v0.7843h0.4157v-0.7843h0.4784v-0.7815H3.288v-0.7843h0.4784
			v-0.7843h0.5459v-0.8942H4.802v-0.8415H4.3475v-0.7409H3.772v-0.8489H2.3494v0.8489h0.9542v0.7409H2.887v0.8415H2.4029v0.824
			H1.9143v-0.824H1.4755c-0.2051,0.6974-0.3787,1.4115-0.5192,2.133v0.2845H1.397z"/>
		<path id="XMLID_12602_" class="st0" d="M7.0892,8.3049c-0.0859,0.0896-0.17,0.182-0.2513,0.2734h0.2513V8.3049z"/>
		<rect id="XMLID_12601_" x="7.1003" y="9.3459" class="st0" width="0.5109" height="0.7926"/>
		<polygon id="XMLID_12600_" class="st0" points="10.9183,29.4322 10.4775,29.4322 10.4775,28.6045 9.9639,28.6045 9.9639,27.8202 
			9.5473,27.8202 9.5473,28.6045 9.0688,28.6045 9.0688,29.386 8.5875,29.386 8.5875,30.1703 8.109,30.1703 8.109,30.9546 
			7.5622,30.9546 7.5622,31.8497 7.0735,31.8497 7.0735,32.6903 7.5271,32.6903 7.5271,33.166 8.5709,33.166 8.5709,32.6903 
			8.9876,32.6903 8.9876,31.8497 9.4716,31.8497 9.4716,31.0248 9.9612,31.0248 9.9612,31.8497 10.4452,31.8497 10.4452,32.6903 
			10.8618,32.6903 10.8618,33.166 11.3754,33.166 11.3754,31.8488 10.9183,31.8488 10.9183,30.974 11.3754,30.974 11.3754,30.235 
			10.9183,30.235 		"/>
		<path id="XMLID_12593_" class="st0" d="M6.6809,19.8269H6.2024v-0.7843H5.6721v0.7843H5.1936v0.7843H4.7151v0.7815H4.2338v0.7843
			H3.7664v0.7843H3.288v4.0747h0.4784v0.7843h0.4674v0.7843h0.4813v0.7815h0.4785v0.7843h0.4785v0.7843h0.5302v-0.7843h0.4785
			V29.386h0.4785v-0.7815h0.4813v-0.7843H8.109V27.036h0.4785v-4.0747H8.109V22.177H7.6407v-0.7843H7.1594v-0.7815H6.6809V19.8269z
			 M4.2764,25.3954H3.7646v-0.7935h0.5118V25.3954z M7.5982,24.6019h0.5127v0.7935H7.5982V24.6019z M5.6814,20.5937h0.5118v0.7944
			H5.6814V20.5937z M6.1931,29.4036H5.6814v-0.7944h0.5118V29.4036z M7.0698,22.1899v0.8711v0.7464H6.5913v0.7464H6.1525v0.8896
			h0.4388v0.7464h0.4785v0.7464v0.8711h-0.436v-0.8711H6.1525v-0.7464H5.722v0.7464H5.2417v0.8711H4.8047v-0.8711v-0.7464h0.4786
			v-0.7464H5.722v-0.8896H5.2833v-0.7464H4.8047V23.061v-0.8711h0.4369v0.8711H5.722v0.7464h0.4305V23.061h0.4813v-0.8711H7.0698z"
			/>
		<polygon id="XMLID_12592_" class="st0" points="10.9183,22.9613 10.4184,22.9613 10.4184,23.7372 9.9399,23.7372 9.9399,24.5132 
			9.5039,24.5132 9.5039,25.4841 9.9399,25.4841 9.9399,26.26 10.4184,26.26 10.4184,27.036 10.9183,27.036 10.9183,27.8202 
			11.3754,27.8202 11.3754,22.177 10.9183,22.177 		"/>
		<rect id="XMLID_12591_" x="9.9371" y="9.3459" class="st0" width="0.5136" height="0.7926"/>
		<path id="XMLID_12588_" class="st0" d="M10.9071,5.2879h-0.4379c-0.0102,0.0074-0.024,0.0157-0.0351,0.024v0.7704H9.9473v0.7926
			H9.5362v0.8166H9.0744v0.8332H8.5035V7.6915H8.0416V7.3377C7.8976,7.4753,7.7543,7.613,7.6167,7.7561h0.0055v0.8221h0.424v0.7843
			h0.4924v0.7603H8.0462v0.7815h-0.424v0.8212h-0.533v-0.8212h-0.424v-0.7815H6.1728V9.3626h0.4924V8.7732
			C6.3299,9.1464,6.0102,9.5307,5.7026,9.9224v0.2005H5.5484c-0.1136,0.1487-0.2272,0.2993-0.3381,0.4536v0.3279H4.9747
			C4.91,10.993,4.8481,11.0854,4.7853,11.1741v0.5515H4.4177c-0.17,0.2623-0.3352,0.5275-0.4951,0.7981h0.3871v0.8351h0.4628v0.763
			h0.4702v0.7972h0.46v0.7981h0.4702V14.919h0.46v-0.7972h0.4703v-0.763H7.565v-0.8351h0.46v-0.836h0.5136V10.92h0.4739v0.7676
			h0.5136v0.836h0.4563v0.8351h0.4628v0.763h0.473v0.7972h0.4572v-1.5602h-0.4572V12.484h0.4572v-2.3611h-0.4924v0.7815h-0.4222
			v0.8212H9.9288v-0.8212H9.5039v-0.7815H9.0125V9.3626h0.4914V8.5783h0.4249V7.7561h0.5321v0.8221h0.4222v0.7843h0.4924V6.9423
			h-0.4508V6.1479h0.4508V4.6523c-0.157,0.1025-0.3141,0.2106-0.4683,0.3187V5.2879z M6.159,13.3588H5.7017v-1.6692H6.159V13.3588z"
			/>
		<polygon id="XMLID_12587_" class="st0" points="10.8618,17.3069 10.4452,17.3069 10.4452,18.1485 9.9612,18.1485 9.9612,18.9725 
			9.4716,18.9725 9.4716,18.1485 8.9876,18.1485 8.9876,17.3069 8.5709,17.3069 8.5709,16.5661 9.5261,16.5661 9.5261,15.7171 
			8.0896,15.7171 8.0896,16.5661 7.5141,16.5661 7.5141,17.3069 7.0596,17.3069 7.0596,18.1485 7.5492,18.1485 7.5492,19.0427 
			8.109,19.0427 8.109,19.8269 8.5875,19.8269 8.5875,20.6112 9.0688,20.6112 9.0688,21.3927 9.5473,21.3927 9.5473,22.177 
			9.9639,22.177 9.9639,21.3927 10.4775,21.3927 10.4775,20.5659 10.9183,20.5659 10.9183,19.7623 11.3754,19.7623 11.3754,19.0242 
			10.9183,19.0242 10.9183,18.1485 11.3754,18.1485 11.3754,16.5661 10.8618,16.5661 		"/>
		<path id="XMLID_12586_" class="st0" d="M1.9143,31.0248h0.4887v0.8249H2.887v0.8406h0.4166v0.4757h1.0577v-0.4757h0.4536v-0.8406
			H4.3262v-0.8951H3.7664v-0.7843H3.288V29.386H2.8057v-0.7815H2.3273v-0.7843H1.9116v0.7843H1.397v0.8277H0.9563v0.2864
			c0.1404,0.7224,0.3141,1.4337,0.5192,2.1311h0.4388V31.0248z"/>
		<rect id="XMLID_12585_" x="10.8618" y="33.166" class="st0" width="0.5136" height="0.2651"/>
		<polygon id="XMLID_12584_" class="st0" points="8.1035,33.4312 8.1035,34.2801 9.5261,34.2801 9.5261,33.4312 8.5709,33.4312 
			8.5709,33.166 7.5271,33.166 7.5271,33.4312 		"/>
		<polygon id="XMLID_12583_" class="st0" points="3.3036,33.4312 2.3494,33.4312 2.3494,34.2801 3.7849,34.2801 3.7849,33.4312 
			4.3613,33.4312 4.3613,33.166 3.3036,33.166 		"/>
		<path id="XMLID_12580_" class="st0" d="M10.9246,43.8494v-0.7935h0.4508v-2.4212h-0.4924v0.7843h-0.4222v0.8222H9.9288v-0.8222
			H9.5039v-0.7843H9.0125v-0.7593h0.4914v-0.7815h0.4249v-0.8221h0.5321v0.8221h0.4222v0.7815h0.4924v-2.3611h-0.4572v-0.8757
			h0.4572v-1.5602h-0.4572v0.7972h-0.473v0.763H9.9824v0.8351H9.5261v0.836H9.0125v0.7676H8.5386v-0.7676H8.025v-0.836h-0.46
			v-0.8351H7.1031v-0.763H6.6329v-0.7972h-0.46v-0.7981H5.7026v0.7981h-0.46v0.7972H4.7724v0.763H4.3096v0.8351H3.9207
			c0.1589,0.2707,0.3242,0.5358,0.4943,0.7981h0.3704v0.5543c0.06,0.0896,0.1219,0.1783,0.1839,0.2679h0.241v0.3353
			c0.1109,0.1515,0.2217,0.3002,0.3353,0.4462h0.157v0.2051c0.3076,0.3926,0.6272,0.776,0.9626,1.1492v-0.5949H6.1728v-0.7593
			h0.4924v-0.7815h0.424v-0.8221h0.533v0.8221h0.424v0.7815h0.4924v0.7593H8.0462v0.7843h-0.424v0.8222h-0.011
			c0.1403,0.1432,0.2844,0.2845,0.4304,0.4249v-0.3603h0.4619v-0.8323h0.5709v0.8323h0.4619v0.8166h0.4111v0.7954h0.4868v0.7704
			c0.0111,0.0083,0.0194,0.0139,0.0296,0.0222h0.4434v0.3215c0.1543,0.1081,0.3113,0.2134,0.4683,0.3196v-1.502H10.9246z
			 M6.1737,38.3086H5.7156v-1.6702h0.4582V38.3086z"/>
		<rect id="XMLID_12579_" x="9.9371" y="39.8587" class="st0" width="0.5136" height="0.7926"/>
		<path id="XMLID_12578_" class="st0" d="M6.8324,41.4189c0.0841,0.0951,0.1681,0.1866,0.2568,0.279v-0.279H6.8324z"/>
		<rect id="XMLID_12577_" x="7.1003" y="39.8587" class="st0" width="0.5109" height="0.7926"/>
		<rect id="XMLID_12576_" x="11.3754" y="12.484" class="st2" width="0.0009" height="0.8748"/>
		<rect id="XMLID_12575_" x="10.9183" y="12.484" class="st2" width="0.4572" height="0.8748"/>
		<rect id="XMLID_12574_" x="11.3754" y="18.1485" class="st2" width="0.0009" height="0.8757"/>
		<rect id="XMLID_12573_" x="10.9183" y="18.1485" class="st2" width="0.4572" height="0.8757"/>
		<rect id="XMLID_12572_" x="5.7017" y="11.6895" class="st2" width="0.4573" height="1.6692"/>
		<path id="XMLID_12571_" class="st2" d="M5.2103,10.9043v-0.3279c-0.0813,0.1081-0.1598,0.2171-0.2356,0.3279H5.2103z"/>
		<path id="XMLID_12570_" class="st2" d="M5.7026,10.1228V9.9224c-0.0517,0.0674-0.1035,0.1321-0.1543,0.2005H5.7026z"/>
		<path id="XMLID_12569_" class="st2" d="M4.7853,11.1741c-0.1266,0.1811-0.2485,0.3649-0.3677,0.5515h0.3677V11.1741z"/>
		<path id="XMLID_12566_" class="st2" d="M6.1728,9.3626v0.7603h0.4924v0.7815h0.424v0.8212h0.533v-0.8212h0.424v-0.7815h0.4924
			V9.3626H8.0462V8.5783h-0.424V7.7561H7.6167c-0.181,0.1783-0.3565,0.363-0.5275,0.5487v0.2734H6.8379
			C6.7788,8.643,6.7188,8.7085,6.6652,8.7732v0.5894H6.1728z M7.1003,9.3459h0.5109v0.7926H7.1003V9.3459z"/>
		<path id="XMLID_12563_" class="st2" d="M10.8831,8.5783h-0.4222V7.7561H9.9288v0.8221H9.5039v0.7843H9.0125v0.7603h0.4914v0.7815
			h0.4249v0.8212h0.5321v-0.8212h0.4222v-0.7815h0.4924V9.3626h-0.4924V8.5783z M10.4508,10.1385H9.9371V9.3459h0.5136V10.1385z"/>
		<rect id="XMLID_12562_" x="11.3754" y="6.1479" class="st2" width="0.0009" height="0.7944"/>
		<rect id="XMLID_12561_" x="10.9246" y="6.1479" class="st2" width="0.4508" height="0.7944"/>
		<path id="XMLID_12560_" class="st2" d="M8.5035,7.6915v0.8332h0.5709V7.6915h0.4619V6.8749h0.4111V6.0823h0.4868V5.3119
			C9.5935,5.9363,8.7954,6.6125,8.0416,7.3377v0.3538H8.5035z"/>
		<path id="XMLID_12559_" class="st2" d="M10.9071,4.971c-0.1459,0.1025-0.2919,0.2088-0.4379,0.3169h0.4379V4.971z"/>
		<path id="XMLID_12558_" class="st2" d="M3.3036,32.6903H2.887v-0.8406H2.4029v-0.8249H1.9143v0.8249H1.4755
			c0.1275,0.4434,0.2707,0.884,0.4249,1.3164h1.4032V32.6903z"/>
		<path id="XMLID_12555_" class="st2" d="M10.9183,14.1218h-0.473v-0.763H9.9824v-0.8351H9.5261v-0.836H9.0125V10.92H8.5386v0.7676
			H8.025v0.836h-0.46v0.8351H7.1031v0.763H6.6329v0.7972h-0.46v0.7981H5.7026V14.919h-0.46v-0.7972H4.7724v-0.763H4.3096v-0.8351
			H3.9225c-1.0383,1.7468-1.8651,3.6313-2.447,5.6248h0.4388v0.824h0.4887v-0.824H2.887v-0.8415h0.4166v-0.7409H2.3494v-0.8489
			H3.772v0.8489h0.5755v0.7409H4.802v0.8415H4.3124v0.8942H3.7664v0.7843H3.288v0.7843H2.8057v0.7815H2.3273v0.7843H1.9116v-0.7843
			H1.397v-0.8268H0.9563v-0.2845c-0.1238,0.6245-0.2217,1.2545-0.2918,1.8956h0.2918v0.7843H1.457v0.776h0.4785v0.776h0.4351v0.9709
			H1.9355v0.776H1.457v0.776H0.9563v0.7843H0.6645c0.0701,0.6411,0.168,1.2739,0.2918,1.8983v-0.2864H1.397v-0.8277h0.5146v-0.7843
			h0.4157v0.7843h0.4784v0.7815H3.288v0.7843h0.4784v0.7843h0.5598v0.8951h0.4887v0.8406H4.3613v0.4757h3.1657v-0.4757H7.0735
			v-0.8406h0.4887v-0.8951H8.109v-0.7843h0.4785V29.386h0.4813v-0.7815h0.4785v-0.7843h0.4166v0.7843h0.5136v0.8277h0.4407v0.8027
			h0.4572v-2.4147h-0.4572V27.036h-0.4998V26.26H9.9399v-0.776h-0.436v-0.9709h0.436v-0.776h0.4785v-0.776h0.4998V22.177h0.4572
			v-2.4147h-0.4572v0.8037h-0.4407v0.8268H9.9639v0.7843H9.5473v-0.7843H9.0688v-0.7815H8.5875v-0.7843H8.109v-0.7843H7.5492
			v-0.8942H7.0596v-0.8415h0.4545v-0.7409h0.5755v-0.8489h1.4364v0.8489H8.5709v0.7409h0.4167v0.8415h0.484v0.824h0.4896v-0.824
			h0.4841v-0.8415h0.4166v-0.7409h0.5136V14.919h-0.4572V14.1218z M7.1594,20.6112v0.7815h0.4813v0.7843H8.109v0.7843h0.4785v4.0747
			H8.109v0.7843H7.6407v0.7843H7.1594v0.7815H6.6809v0.7843H6.2024v0.7843H5.6721v-0.7843H5.1936V29.386H4.7151v-0.7815H4.2338
			v-0.7843H3.7664V27.036H3.288v-4.0747h0.4784V22.177h0.4674v-0.7843h0.4813v-0.7815h0.4785v-0.7843h0.4785v-0.7843h0.5302v0.7843
			h0.4785v0.7843H7.1594z"/>
		<polygon id="XMLID_12554_" class="st2" points="10.8618,32.6903 10.4452,32.6903 10.4452,31.8497 9.9612,31.8497 9.9612,31.0248 
			9.4716,31.0248 9.4716,31.8497 8.9876,31.8497 8.9876,32.6903 8.5709,32.6903 8.5709,33.166 10.8618,33.166 		"/>
		<path id="XMLID_12553_" class="st2" d="M10.8618,33.166H8.5709v0.2651h0.9552v0.8489H8.1035v-0.8489H7.5271V33.166H4.3613v0.2651
			H3.7849v0.8489H2.3494v-0.8489h0.9542V33.166H1.9004c0.533,1.5094,1.2138,2.9505,2.0203,4.3075h0.3889v-0.8351h0.4628v-0.763
			h0.4702v-0.7972h0.46v-0.7981h0.4702v0.7981h0.46v0.7972h0.4703v0.763H7.565v0.8351h0.46v0.836h0.5136v0.7676h0.4739v-0.7676
			h0.5136v-0.836h0.4563v-0.8351h0.4628v-0.763h0.473v-0.7972h0.4572v-1.6471h-0.5136V33.166z"/>
		<rect id="XMLID_12552_" x="11.3754" y="36.6385" class="st2" width="0.0009" height="0.8757"/>
		<rect id="XMLID_12551_" x="10.9183" y="36.6385" class="st2" width="0.4572" height="0.8757"/>
		<rect id="XMLID_12550_" x="11.3754" y="30.974" class="st2" width="0.0009" height="0.8748"/>
		<rect id="XMLID_12549_" x="10.9183" y="30.974" class="st2" width="0.4572" height="0.8748"/>
		<rect id="XMLID_12548_" x="5.7156" y="36.6385" class="st2" width="0.4582" height="1.6702"/>
		<path id="XMLID_12545_" class="st2" d="M10.8831,39.0938h-0.4222v-0.8221H9.9288v0.8221H9.5039v0.7815H9.0125v0.7593h0.4914
			v0.7843h0.4249v0.8222h0.5321v-0.8222h0.4222v-0.7843h0.4924v-0.7593h-0.4924V39.0938z M10.4508,40.6513H9.9371v-0.7926h0.5136
			V40.6513z"/>
		<path id="XMLID_12542_" class="st2" d="M7.0892,41.4189v0.279c0.1681,0.1838,0.3436,0.3649,0.522,0.5432h0.011v-0.8222h0.424
			v-0.7843h0.4924v-0.7593H8.0462v-0.7815h-0.424v-0.8221h-0.533v0.8221h-0.424v0.7815H6.1728v0.7593h0.4924v0.5949
			c0.0508,0.0656,0.1081,0.1275,0.1672,0.1894H7.0892z M7.1003,39.8587h0.5109v0.7926H7.1003V39.8587z"/>
		<path id="XMLID_12541_" class="st2" d="M5.2103,39.0938h-0.241c0.0784,0.1136,0.1597,0.2245,0.241,0.3353V39.0938z"/>
		<path id="XMLID_12540_" class="st2" d="M5.7026,39.8753h-0.157c0.0508,0.0674,0.1025,0.1376,0.157,0.2051V39.8753z"/>
		<path id="XMLID_12539_" class="st2" d="M4.7853,38.2717H4.415c0.1191,0.1866,0.2438,0.3732,0.3704,0.5543V38.2717z"/>
		<rect id="XMLID_12538_" x="11.3754" y="43.0558" class="st2" width="0.0009" height="0.7935"/>
		<rect id="XMLID_12537_" x="10.9246" y="43.0558" class="st2" width="0.4508" height="0.7935"/>
		<path id="XMLID_12536_" class="st2" d="M10.4341,43.9177H9.9473v-0.7954H9.5362v-0.8166H9.0744v-0.8323H8.5035v0.8323H8.0416
			v0.3603c0.7538,0.7242,1.5519,1.4004,2.3925,2.0221V43.9177z"/>
		<path id="XMLID_12535_" class="st2" d="M10.9071,44.7103h-0.4434c0.146,0.1081,0.2947,0.2162,0.4434,0.3215V44.7103z"/>
		<rect id="XMLID_12534_" x="3.7646" y="24.6019" class="st2" width="0.5118" height="0.7935"/>
		<rect id="XMLID_12533_" x="7.5982" y="24.6019" class="st2" width="0.5127" height="0.7935"/>
		<rect id="XMLID_12532_" x="5.6814" y="28.6091" class="st2" width="0.5118" height="0.7944"/>
		<rect id="XMLID_12531_" x="5.6814" y="20.5937" class="st2" width="0.5118" height="0.7944"/>
		<polygon id="XMLID_12530_" class="st2" points="6.6338,23.061 6.1525,23.061 6.1525,23.8074 5.722,23.8074 5.722,23.061 
			5.2417,23.061 5.2417,22.1899 4.8047,22.1899 4.8047,23.061 4.8047,23.8074 5.2833,23.8074 5.2833,24.5538 5.722,24.5538 
			5.722,25.4434 5.2833,25.4434 5.2833,26.1898 4.8047,26.1898 4.8047,26.9362 4.8047,27.8073 5.2417,27.8073 5.2417,26.9362 
			5.722,26.9362 5.722,26.1898 6.1525,26.1898 6.1525,26.9362 6.6338,26.9362 6.6338,27.8073 7.0698,27.8073 7.0698,26.9362 
			7.0698,26.1898 6.5913,26.1898 6.5913,25.4434 6.1525,25.4434 6.1525,24.5538 6.5913,24.5538 6.5913,23.8074 7.0698,23.8074 
			7.0698,23.061 7.0698,22.1899 6.6338,22.1899 		"/>
	</g>
</g>
</svg>
