<?xml version="1.0" encoding="utf-8"?>
<!-- Generator: Adobe Illustrator 27.6.1, SVG Export Plug-In . SVG Version: 6.00 Build 0)  -->
<svg version="1.1" xmlns="http://www.w3.org/2000/svg" xmlns:xlink="http://www.w3.org/1999/xlink" x="0px" y="0px"
	 viewBox="0 0 50 50" style="enable-background:new 0 0 50 50;" xml:space="preserve">
<style type="text/css">
	.st0{fill:#FFFFFF;}
	.st1{fill:#D1D3D4;}
	.st2{fill:#CD1225;}
	.st3{fill:#BF920D;}
</style>
<g id="Layer_2">
	<g>
		<circle class="st0" cx="24.9998" cy="25.0002" r="24.7525"/>
		<path class="st1" d="M25,50C11.215,50,0,38.785,0,25S11.215,0,25,0s25,11.215,25,25S38.785,50,25,50z M25,0.495
			C11.4881,0.495,0.495,11.4881,0.495,25S11.4881,49.505,25,49.505S49.505,38.5119,49.505,25S38.5119,0.495,25,0.495z"/>
	</g>
</g>
<g id="Layer_1">
	<g id="XMLID_10672_">
		<g id="XMLID_10759_">
			<path id="XMLID_10762_" class="st2" d="M48.0987,16.8336H1.9032c0.5034-1.4272,1.1391-2.7906,1.8854-4.0829
				c4.2428-7.317,12.162-12.2488,21.2129-12.2488c9.0471,0,16.9674,4.9319,21.2101,12.2488
				C46.9606,14.043,47.5962,15.4065,48.0987,16.8336z"/>
			<path id="XMLID_10761_" d="M48.0987,33.1664c-0.5025,1.4272-1.1381,2.7906-1.8872,4.0829
				c-4.2426,7.317-12.1629,12.2488-21.2101,12.2488c-9.0508,0-16.9701-4.9319-21.2129-12.2488
				c-0.7463-1.2923-1.3819-2.6558-1.8854-4.0829H48.0987z"/>
			<path id="XMLID_10760_" class="st0" d="M49.5,25.0005c0,2.8636-0.4951,5.6136-1.4013,8.1659H1.9032
				C0.9951,30.6141,0.5,27.8641,0.5,25.0005s0.4951-5.6136,1.4032-8.1668h46.1955C49.0049,19.3869,49.5,22.1369,49.5,25.0005z"/>
		</g>
		<g id="XMLID_10673_">
			<path id="XMLID_10755_" class="st3" d="M22.1433,31.2819c-0.0194-0.0139-0.0434-0.0222-0.0656-0.0139l-0.097,0.0323
				c-0.0351,0.0111-0.0508,0.049-0.0406,0.0813c0.0083,0.0296,0.0379,0.0462,0.0647,0.0434l-0.048,0.1755l-0.2623-0.0702
				l0.0942-0.2864c0.0083-0.0249,0.0028-0.049-0.0157-0.0656c-0.0166-0.0185-0.0406-0.024-0.0628-0.0185l-0.0942,0.0268
				c-0.0351,0.0111-0.0545,0.0462-0.0433,0.0813c0.0054,0.0268,0.0294,0.0434,0.0572,0.0462l-0.06,0.1811l-0.1811-0.049
				l0.1949-0.6439c0.0083-0.0268-0.0028-0.0591-0.0268-0.073c-0.0277-0.0157-0.06-0.0102-0.0785,0.0083
				c-0.0222,0.0222-0.1302,0.0323-0.2245,0.0222c-0.0351-0.0028-0.0674,0.0212-0.0702,0.0563
				c-0.0055,0.0351,0.0212,0.0674,0.0565,0.073c0.0322,0.0028,0.108,0.0083,0.1837-0.0028l-0.0942,0.3085
				c-0.2143,0.0055-0.2974,0.1866-0.3002,0.1949c-0.0083,0.0157-0.0083,0.0351,0,0.0508c0.0055,0.0166,0.0212,0.0296,0.0379,0.0351
				l0.219,0.0757h0.0027l0.0028,0.0028l0.278,0.073c0.0055,0.0055,0.0139,0.0111,0.0222,0.0139
				c0.0046,0.0028,0.0129,0.0028,0.0185,0.0028c0.0028,0,0.0055,0,0.0111-0.0028l0.3649,0.0998
				c0.0055,0,0.0112,0.0028,0.0166,0.0028c0.0296,0,0.0536-0.0185,0.0619-0.049l0.0942-0.3483
				C22.1673,31.3244,22.159,31.2976,22.1433,31.2819z M21.2667,31.4085l-0.0757-0.0268c0.0222-0.0222,0.0545-0.0434,0.1007-0.0517
				L21.2667,31.4085z"/>
			<path id="XMLID_10751_" class="st3" d="M23.4763,31.1138c-0.024-0.0268-0.0647-0.0268-0.0924,0L23.3386,31.16
				c-0.011,0.0111-0.0194,0.0268-0.0194,0.0462v0.2864c0,0.2457-0.0813,0.46-0.1053,0.4896
				c-0.0111,0.0102-0.0296,0.0212-0.0462,0.0185c-0.0028-0.0212,0-0.0674,0.0083-0.1081c0-0.0111,0-0.0212-0.0054-0.0351
				c-0.0112-0.0323-0.0537-0.0757-0.135-0.0757H23.019c-0.0054-0.0296-0.0185-0.0619-0.0379-0.0914l0.1515-0.049
				c0.0195-0.0083,0.0351-0.024,0.0406-0.0462c0.0055-0.0185,0-0.0434-0.0139-0.0591l-0.097-0.1081l-0.1025-0.1386
				c-0.0139-0.0129-0.0294-0.0212-0.049-0.024c-0.0185,0-0.0351,0.0055-0.049,0.0194l-0.0701,0.0702
				c-0.0158,0.0129-0.0943,0.0591-0.159,0.0915c-0.0194,0.0111-0.0333,0.0296-0.036,0.0517
				c-0.0018,0.0185,0.0055,0.0406,0.0222,0.0536l0.1321,0.1136c-0.0239,0.0296-0.0591,0.06-0.097,0.0656
				c-0.0545,0.0074-0.1598-0.0139-0.2356-0.0333c0.0139-0.121-0.0379-0.2291-0.0406-0.2346
				c-0.0157-0.0323-0.0536-0.0434-0.0859-0.0305c-0.0296,0.0166-0.0434,0.0573-0.0277,0.0868c0,0.0028,0.0573,0.1247,0.0111,0.2217
				c-0.0323,0.0674-0.1053,0.1136-0.2189,0.1376c-0.0351,0.0083-0.0563,0.0434-0.049,0.0757
				c0.0055,0.0305,0.0333,0.0517,0.0628,0.0517c0.0055,0,0.0074,0,0.0129-0.0028c0.1441-0.0296,0.2439-0.0914,0.2947-0.1838
				c0.0684,0.0194,0.206,0.0517,0.2956,0.0379c0.0859-0.0111,0.1478-0.073,0.1866-0.1219c0.0157,0.0277,0.0296,0.0517,0.0323,0.0628
				c0,0.1136,0.0804,0.1136,0.1432,0.1136c0.0028,0,0.0057,0,0.0057,0c-0.0112,0.0859-0.0057,0.1783,0.0618,0.2051
				c0.0214,0.0111,0.0434,0.0139,0.0647,0.0139c0.0491,0,0.1007-0.0194,0.1358-0.0573c0.0591-0.0591,0.146-0.3187,0.146-0.581
				v-0.2623l0.0268-0.0268C23.5003,31.1785,23.5003,31.1378,23.4763,31.1138z M22.8648,31.5951l-0.0913-0.0785
				c0.0462-0.0268,0.0913-0.0536,0.108-0.0702l0.0185-0.0185l0.0628,0.0804l0.0028,0.0028l0.0323,0.0379L22.8648,31.5951z"/>
			<path id="XMLID_10750_" class="st3" d="M23.6564,31.9258l0.0453-0.6023c0.0212,0.0065,0.0462,0.0018,0.0637-0.0148
				c0.0259-0.0249,0.0268-0.0656,0.0018-0.0915l-0.073-0.0767c-0.0185-0.0176-0.0443-0.024-0.0684-0.0157
				c-0.024,0.0083-0.0406,0.0305-0.0425,0.0554l-0.0554,0.7353c-0.0028,0.0351,0.024,0.0665,0.0591,0.0693
				c0.0018,0,0.0037,0,0.0055,0C23.6259,31.9849,23.6536,31.959,23.6564,31.9258z"/>
			<path id="XMLID_10745_" class="st3" d="M25.5667,31.9923l-0.0702-0.2753c-0.0055-0.0166-0.0165-0.0323-0.0333-0.0406
				c-0.0157-0.0083-0.0351-0.0083-0.0508-0.0028c-0.0111,0.0028-0.2272,0.0841-0.2623,0.2707h-0.0924l-0.0157-0.1709
				c-0.0054-0.0323-0.0296-0.0563-0.0628-0.0591l-0.6485-0.0268v-0.0757c0-0.0194-0.0111-0.0406-0.0268-0.0517
				c-0.0166-0.0139-0.0379-0.0157-0.06-0.0083l-0.0756,0.0277c-0.0324,0.0102-0.0509,0.0453-0.0408,0.0804
				c0.0111,0.0305,0.0434,0.049,0.073,0.0406v0.2143l-0.1081-0.0083c-0.024-0.1108-0.1025-0.1977-0.1081-0.2032
				c-0.024-0.024-0.0647-0.0268-0.0914-0.0028c-0.0249,0.0249-0.0277,0.0656-0.0028,0.0896
				c0.0268,0.0323,0.1026,0.1349,0.0757,0.2106c-0.0249,0.0674-0.1301,0.1192-0.2947,0.1432
				c-0.0351,0.0055-0.06,0.0379-0.0545,0.073c0.0028,0.0305,0.0323,0.0545,0.062,0.0545h0.011
				c0.2217-0.0323,0.3547-0.1081,0.3944-0.2272c0.0028-0.0028,0.0028-0.0055,0.0055-0.0111l0.6032,0.0462
				c0.0055,0.049,0.0222,0.1136,0.0674,0.1543c0.0222,0.0185,0.0546,0.0406,0.1035,0.0406c0.0102,0,0.0212-0.0028,0.0323-0.0028
				c0.1182-0.0212,0.1617-0.1164,0.17-0.1977h0.4379c0.0194,0,0.0379-0.0083,0.049-0.024
				C25.5667,32.0329,25.5713,32.0117,25.5667,31.9923z M24.8739,32.1438c-0.0185,0.0028-0.024-0.0028-0.0268-0.0046
				c-0.0212-0.0194-0.0296-0.0813-0.0296-0.1164c0-0.0351-0.0249-0.0656-0.06-0.0684l-0.4268-0.0323V31.814l0.5866,0.0277
				l0.0194,0.1783C24.9367,32.0302,24.9497,32.1308,24.8739,32.1438z M25.2822,31.9442c0.0194-0.0545,0.0674-0.0924,0.1081-0.1164
				l0.0305,0.1164H25.2822z"/>
			<path id="XMLID_10741_" class="st3" d="M26.3861,31.5572c-0.0222-0.0111-0.0462-0.0111-0.0655-0.0028
				c-0.0297,0.0194-0.0675,0.0351-0.0805,0.0379c-0.0333,0.0028-0.06,0.0296-0.06,0.0647c0,0.036,0.0297,0.0656,0.0647,0.0656
				c0.0055,0,0.0166,0,0.0434-0.0111v0.1727l-0.1866,0.0277l-0.0757-0.69c-0.0028-0.024-0.0185-0.0462-0.0406-0.0536
				c-0.0212-0.0083-0.048-0.0028-0.0674,0.0129l-0.0647,0.06c-0.0268,0.024-0.0296,0.0647-0.0055,0.0915
				c0.0166,0.0194,0.0406,0.0249,0.0647,0.0194l0.0351,0.3325c-0.1432,0.0619-0.2189,0.1644-0.2217,0.3058v0.0046
				c-0.0054,0.0139-0.0028,0.0305,0.0028,0.0434c0.0139,0.0249,0.0249,0.0351,0.0702,0.0351c0.0434,0,0.1192-0.0083,0.255-0.024
				l0.3076-0.0434c0.0296-0.0055,0.0545-0.0323,0.0545-0.0647v-0.3298C26.4156,31.5895,26.4046,31.5683,26.3861,31.5572z
				 M25.8614,31.9415c0.0074-0.0379,0.0351-0.0841,0.1025-0.1219l0.0111,0.1081C25.9344,31.9332,25.8937,31.9387,25.8614,31.9415z"
				/>
			<path id="XMLID_10740_" class="st3" d="M26.6447,31.6071c-0.0277-0.0222-0.0684-0.0176-0.0905,0.0092
				c-0.0222,0.0277-0.0185,0.0684,0.0092,0.0905c0.0018,0.0018,0.169,0.1413,0.1201,0.2734
				c-0.0517,0.1367-0.1912,0.1496-0.1966,0.1506c-0.0361,0.0019-0.0629,0.0323-0.0602,0.0684c0.0018,0.0333,0.0305,0.06,0.0637,0.06
				l0.0046-0.0009c0.0092,0,0.2272-0.0166,0.3085-0.2328C26.8867,31.8057,26.654,31.6154,26.6447,31.6071z"/>
			<path id="XMLID_10732_" class="st3" d="M28.9652,31.4057l-0.2623,0.0462c-0.0296-0.1081-0.0998-0.3409-0.1755-0.4924
				c-0.0544-0.1164-0.1349-0.1515-0.1949-0.1617c-0.0887-0.0166-0.1727,0.024-0.2051,0.0536c-0.0277,0.0268-0.0277,0.0674,0,0.0924
				c0.024,0.024,0.0647,0.0268,0.0887,0c0.0083-0.0055,0.0545-0.0305,0.1007-0.0194c0.0406,0.0111,0.0731,0.0406,0.097,0.0896
				c0.0674,0.1432,0.1349,0.3676,0.1653,0.473l-0.1302,0.0517c0-0.0028-0.0028-0.0028-0.0028-0.0028
				c-0.2356-0.1108-0.2623-0.0841-0.2864-0.06c-0.0193,0.0194-0.0757,0.0979-0.1081,0.146l-0.0674,0.0194
				c-0.0249-0.0924-0.0813-0.2356-0.206-0.2356c-0.0379,0-0.0868,0.0028-0.1293,0.0111c-0.0139-0.0545-0.0249-0.1081-0.0379-0.1598
				c-0.0055-0.0351-0.0406-0.0563-0.0757-0.048c-0.0351,0.0074-0.0573,0.0397-0.049,0.0757
				c0.0111,0.048,0.0212,0.1053,0.0352,0.1644c-0.0214,0.0083-0.0408,0.0166-0.0518,0.0268
				c-0.0453,0.0323-0.0998,0.0924-0.1052,0.2707l-0.0943,0.0166c-0.0194-0.157-0.0406-0.1894-0.0785-0.2032
				c-0.0222-0.0083-0.0462-0.0055-0.0619,0.0083l-0.2199,0.1626c-0.0212,0.0157-0.0296,0.0397-0.024,0.0674l0.0222,0.0942
				c0.0074,0.0323,0.0397,0.0545,0.073,0.049l0.1644-0.0296c-0.0211,0.1266-0.1432,0.1561-0.1543,0.1589
				c-0.0323,0.0028-0.0563,0.0305-0.0563,0.0656s0.0268,0.0619,0.0619,0.0619c0.0268,0,0.1247-0.024,0.1977-0.1053
				c0.0508-0.0545,0.0785-0.1247,0.0841-0.2032l0.3455-0.0563c0.0277,0.0757,0.0517,0.1321,0.0731,0.1543
				c0.0304,0.0296,0.0701,0.0397,0.1108,0.0397c0.035,0,0.0701-0.0074,0.1033-0.0185c0.0268-0.0111,0.1127-0.0545,0.1127-0.1247
				V31.766l0.0518-0.0166c0.0054,0.0055,0.011,0.0083,0.0165,0.0111c0.0591,0.0212,0.2078,0.073,0.2836,0.0453
				c0.0619-0.0212,0.0868-0.0859,0.0971-0.1404l0.2032-0.0785l0.3112-0.0536c0.0351-0.0055,0.0591-0.0406,0.0508-0.0757
				C29.0326,31.4223,29.0003,31.4002,28.9652,31.4057z M27.0319,31.8011l0.1024-0.0757c0.0028,0.0157,0.0055,0.0351,0.0084,0.0563
				L27.0319,31.8011z M27.4946,31.7253c0.0084-0.1136,0.0379-0.1358,0.048-0.1432c0.0055-0.0028,0.0083-0.0055,0.0111-0.0083
				c0.0111,0.0453,0.0222,0.0915,0.0351,0.1349L27.4946,31.7253z M27.6785,31.5415c0.0322-0.0028,0.0673-0.0083,0.0997-0.0083
				c0.0268,0,0.06,0.0619,0.0785,0.1293l-0.1404,0.0249C27.7052,31.6413,27.6913,31.5923,27.6785,31.5415z M27.8946,31.8713
				c-0.0139,0.0102-0.049,0.0268-0.0813,0.0296c-0.0157,0-0.0239-0.0028-0.0239-0.0028c-0.0084-0.0111-0.0223-0.0434-0.0352-0.0868
				l0.1404-0.024V31.8713z M28.3324,31.6847c-0.0212,0.0055-0.0841-0.0083-0.1487-0.0277c0.0194-0.0268,0.0379-0.0508,0.0491-0.0702
				c0.0267,0.0083,0.0701,0.0277,0.1163,0.0462C28.3463,31.657,28.3379,31.6791,28.3324,31.6847z"/>
			<circle id="XMLID_10731_" class="st3" cx="25.7099" cy="31.3503" r="0.0776"/>
			<path id="XMLID_10730_" class="st3" d="M21.1928,31.1046c0.0434,0,0.0785-0.0351,0.0785-0.0785
				c0-0.0425-0.0351-0.0776-0.0785-0.0776c-0.0425,0-0.0776,0.0351-0.0776,0.0776C21.1152,31.0695,21.1503,31.1046,21.1928,31.1046z
				"/>
			<path id="XMLID_10729_" class="st3" d="M21.227,31.6006c-0.0434,0-0.0776,0.0351-0.0776,0.0776
				c0,0.0434,0.0342,0.0785,0.0776,0.0785c0.0434,0,0.0777-0.0351,0.0777-0.0785C21.3047,31.6357,21.2704,31.6006,21.227,31.6006z"
				/>
			<path id="XMLID_10728_" class="st3" d="M21.444,31.6699c-0.0425,0-0.0776,0.0342-0.0776,0.0776
				c0,0.0434,0.0351,0.0776,0.0776,0.0776c0.0434,0,0.0785-0.0342,0.0785-0.0776C21.5226,31.7041,21.4875,31.6699,21.444,31.6699z"
				/>
			<path id="XMLID_10727_" class="st3" d="M21.7812,31.765c-0.0434,0-0.0785,0.0342-0.0785,0.0776
				c0,0.0434,0.0351,0.0776,0.0785,0.0776c0.0425,0,0.0777-0.0342,0.0777-0.0776C21.8589,31.7992,21.8237,31.765,21.7812,31.765z"/>
			<circle id="XMLID_10726_" class="st3" cx="25.7376" cy="31.5637" r="0.0776"/>
			<circle id="XMLID_10725_" class="st3" cx="25.9741" cy="32.2084" r="0.0776"/>
			<path id="XMLID_10724_" class="st3" d="M26.1672,32.117c-0.0434,0-0.0775,0.0342-0.0775,0.0776s0.0341,0.0776,0.0775,0.0776
				c0.0426,0,0.0776-0.0342,0.0776-0.0776S26.2098,32.117,26.1672,32.117z"/>
			<circle id="XMLID_10723_" class="st3" cx="28.7389" cy="31.7844" r="0.0776"/>
			<path id="XMLID_10686_" class="st3" d="M30.7286,30.4219V30.397c-0.0055-0.121-0.011-0.2402-0.0139-0.3593l-0.0296-0.6734
				c-0.0137-0.303-0.0268-0.606-0.0406-0.908l-0.206-4.6889c-0.0157-0.3621-0.0323-0.7251-0.048-1.09l-0.0785-1.8253
				c-0.0166-0.3187-0.1977-0.8517-0.6245-0.933c-0.6762-0.1238-1.2683,0.1949-1.793,0.4785
				c-0.1136,0.06-0.2217,0.1192-0.3269,0.1709c-0.2274,0.1108-0.6735,0.1727-1.128,0.2023
				c-0.0591-0.0942-0.1219-0.2106-0.1755-0.3483c-0.0573-0.1376-0.1053-0.2947-0.1375-0.4757
				c-0.0731-0.4249-0.0602-0.7815-0.0462-1.066c0.0027-0.097,0.0054-0.1894,0.0054-0.2753c0-0.3603-0.0545-0.6355-0.1681-0.8415
				c-0.0083-0.0129-0.0128-0.0268-0.0212-0.0406c-0.1164-0.1866-0.2817-0.3021-0.4924-0.3483
				c-0.1783-0.0351-0.3113-0.0647-0.4055-0.0868c-0.2439-0.0536-0.2919-0.0674-0.3649-0.0323
				c-0.0462,0.0212-0.073,0.0545-0.0896,0.0841c-0.1264-0.0351-0.4517-0.1164-0.6596-0.0702
				c-0.146,0.0323-0.289,0.0859-0.3519,0.2596c-0.0046,0.0102-0.0074,0.0185-0.0102,0.0268
				c-0.0028,0.0083-0.0028,0.0166-0.0055,0.024c-0.0249,0.0896-0.0296,0.2032-0.0166,0.3492c0,0.0028,0,0.0028,0,0.0028
				c0,0.0028,0.0029,0.0055,0.0029,0.0083v0.0028c0,0.0018,0.0027,0.0046,0.0027,0.0074c0.0028,0.0028,0.0055,0.0055,0.0055,0.0083
				c0,0,0,0,0.0028,0.0028c0,0.0028,0.0028,0.0028,0.0055,0.0055s0.0055,0.0055,0.0083,0.0055c0,0,0.0018,0,0.0018,0.0028
				c0.0028,0,0.0055,0.0028,0.0083,0.0028c0,0,0,0,0.0028,0c0,0,0.0028,0.0028,0.0084,0.0028c0.0027,0,0.0054,0,0.0054,0
				c0.0028,0,0.0028,0,0.0028,0c0.0028,0,0.0028,0,0.0028,0c0.0028,0,0.0028,0,0.0046,0c0.0029-0.0028,0.0055-0.0028,0.0083-0.0028
				c0.0028,0,0.0055-0.0028,0.0083-0.0028c0.0028-0.0028,0.0028-0.0028,0.0055-0.0028c0-0.0028,0.0028-0.0055,0.0055-0.0055
				c0-0.0028,0.0029-0.0028,0.0029-0.0028c0.0027-0.0028,0.0054-0.0055,0.0054-0.0083c0.0018-0.0028,0.0018-0.0028,0.0018-0.0028
				c0.0083-0.0055,0.0277-0.0157,0.0684-0.0323c0.0296-0.0129,0.0591-0.024,0.0674-0.0268c0.049-0.0166,0.0971-0.0194,0.1404-0.0111
				c0.1349,0.0268,0.2411,0.1653,0.3141,0.2817c0.0453,0.0674,0.073,0.1376,0.0915,0.2245c0.0139,0.0674,0.0194,0.1404,0.024,0.2078
				c0.0111,0.2051,0,0.3676-0.0351,0.5081l-0.0128,0.0545c-0.0842,0.3353-0.2652,1.0521-0.6651,1.6138
				c-0.4684-0.0296-0.9303-0.0887-1.1631-0.2051c-0.1053-0.0517-0.2133-0.1108-0.327-0.1709
				c-0.5247-0.2836-1.1168-0.6023-1.793-0.4785c-0.4268,0.0813-0.6115,0.6143-0.6243,0.933l-0.0786,1.8253
				c-0.0166,0.3649-0.0322,0.7279-0.049,1.09l-0.205,4.6889c-0.014,0.3021-0.0269,0.6051-0.0408,0.908l-0.0296,0.6734
				c-0.0055,0.1192-0.0083,0.2383-0.0139,0.3593v0.0249c-0.0055,0.0157-0.0028,0.0379,0.0111,0.0536
				c0.0111,0.0111,0.0269,0.0194,0.0406,0.0194c0.0129,0,0.0268-0.0055,0.0351-0.0139c0.0028,0,0.0028-0.0028,0.0028-0.0028
				l0.6679-0.6004c0.073-0.0619,0.146-0.1293,0.2272-0.2023l0.0397-0.0351l0.8683-0.7815l0.0055-0.0028l0.0351-0.0323l0.4379-0.3926
				c0.0979-0.0859,0.1949-0.1755,0.2919-0.2651c0.0139-0.0102,0.0277-0.0212,0.0406-0.0351
				c0.1054-0.0942,0.2115-0.1894,0.3168-0.2836l-0.5921,2.1034c-0.0979-0.0323-0.1977-0.0702-0.2974-0.1108
				c-0.0757-0.0296-0.1625-0.0185-0.2245,0.0305c-0.0027,0-0.0055,0.0018-0.0083,0.0046l-0.0028,0.0028
				c-0.0591,0.0111-0.3353,0.0684-0.46,0.2734c-0.0619,0.1025-0.0757,0.2272-0.0379,0.3677
				c-0.0185,0.049-0.0323,0.1025-0.0425,0.1681c-0.1035,0.0129-0.2901,0.0859-0.46,0.4h-0.133c-0.037,0-0.0674,0.0268-0.073,0.0647
				c-0.0045,0.0351,0.0194,0.0702,0.0545,0.0813l0.1025,0.0296c0.0166,0.1247,0.073,0.4194,0.2707,0.5219
				c0.0083,0.0268,0.0139,0.0647,0.0185,0.1025c0.0194,0.1404,0.0434,0.3353,0.2956,0.4332
				c0.3104,0.121,2.2659,0.4591,3.9019,0.4462c0.2614-0.0028,0.5293-0.0028,0.7889,0h0.1136c1.6147,0,3.4881-0.3279,3.791-0.4462
				c0.2494-0.0979,0.2762-0.2928,0.2947-0.4332c0.0055-0.0379,0.0111-0.0757,0.0194-0.1025
				c0.1949-0.1025,0.254-0.3972,0.2679-0.5219l0.1053-0.0296c0.0351-0.0111,0.0591-0.0462,0.0536-0.0813
				c-0.0055-0.0379-0.0379-0.0647-0.073-0.0647h-0.1321c-0.1709-0.3141-0.3575-0.387-0.46-0.4
				c-0.0111-0.0656-0.024-0.1192-0.0434-0.1681c0.0379-0.1404,0.0249-0.2651-0.0379-0.3677c-0.1238-0.2051-0.4-0.2623-0.459-0.2734
				l-0.0029-0.0028c-0.0028-0.0028-0.0055-0.0046-0.0083-0.0046c-0.0619-0.049-0.1487-0.06-0.2245-0.0305
				c-0.0998,0.0406-0.2005,0.0785-0.2974,0.1108l-0.5921-2.1034c0.1192,0.1081,0.2384,0.2134,0.3566,0.3187
				c0.0841,0.0785,0.1682,0.1543,0.2522,0.2272c0.0129,0.0139,0.0269,0.0249,0.0406,0.0379l0.473,0.4249l0.0055,0.0028
				l0.2513,0.2272l0.6568,0.5893c0.0785,0.073,0.1543,0.1404,0.2272,0.2023l0.6679,0.6004l0.0028,0.0028
				c0.0083,0.0083,0.0212,0.0139,0.0351,0.0139c0.0139,0,0.0296-0.0083,0.0408-0.0194
				C30.7314,30.4598,30.7341,30.4376,30.7286,30.4219z M24.9062,17.5883c0.06,0,0.1108,0.049,0.1108,0.1108
				c0,0.06-0.0508,0.1108-0.1108,0.1108c-0.0619,0-0.1108-0.0508-0.1108-0.1108C24.7954,17.6373,24.8443,17.5883,24.9062,17.5883z
				 M23.6463,20.8898c0.0277-0.0351,0.0545-0.073,0.0757-0.1081c0.0249-0.0351,0.0491-0.073,0.0702-0.1081
				c0.0251-0.0379,0.0462-0.073,0.0656-0.1108c0.0102-0.0185,0.0212-0.0379,0.0323-0.0563
				c0.0103-0.0194,0.0185-0.0379,0.0296-0.0545c0.0212-0.0406,0.0406-0.0813,0.0591-0.1219
				c0.0055-0.0129,0.0111-0.024,0.0166-0.0351c0.0111-0.024,0.0212-0.0462,0.0323-0.0702c0.0112-0.024,0.0194-0.049,0.0297-0.0702
				c0-0.0028,0-0.0028,0.0027-0.0028c0.0055-0.0139,0.0083-0.0268,0.0139-0.0379c0.0129-0.0296,0.024-0.0591,0.0351-0.0887
				c0.0083-0.0166,0.013-0.0333,0.0212-0.049c0.0083-0.0268,0.0195-0.0573,0.0305-0.0813c0.0185-0.0591,0.037-0.1164,0.0563-0.17
				c0.0028-0.0139,0.0083-0.0277,0.0111-0.0379c0.0047-0.0194,0.0102-0.0351,0.0157-0.0517
				c0.0055-0.0166,0.0111-0.0323,0.0139-0.049c0.0491-0.1589,0.0841-0.2974,0.1108-0.4l0.0111-0.0536
				c0.0406-0.1515,0.0508-0.3252,0.0406-0.5413c-0.0055-0.073-0.0111-0.1515-0.0277-0.2272
				c-0.0055-0.0185-0.0111-0.0379-0.0129-0.0563c0.0565-0.0517,0.1673-0.0222,0.3353-0.0222
				c-0.3603-0.5459-0.5736-0.5949-0.7602-0.6383c-0.1672-0.0268-0.2457,0.0785-0.2808,0.1515
				c-0.0137,0.0055-0.0305,0.0139-0.0462,0.0194c-0.0083,0.0028-0.0137,0.0083-0.0222,0.0111c-0.0028-0.06,0-0.1192,0.0084-0.1764
				l0.0082-0.048c0-0.0055,0.0028-0.0111,0.0028-0.0166c0.0083-0.0185,0.0157-0.0379,0.0323-0.0536
				c0.0351-0.0406,0.0924-0.0573,0.1432-0.0684c0.073-0.0129,0.1487-0.0212,0.2217-0.0185
				c0.0647,0.0028,0.1136,0.0139,0.1626,0.0591c0.0915,0.0868,0.1949,0.1598,0.303,0.2245c0.0702,0.0406,0.1672,0.1053,0.254,0.1053
				c0.0185,0,0.049,0.049,0.0619,0.0628c0.0268,0.0268,0.0619,0.0434,0.0979,0.0453c0.0647,0.0055,0.1155-0.0296,0.146-0.0831
				c0.0185-0.0323,0.0776-0.0545,0.1108-0.0674c0.0563-0.0277,0.1183-0.0462,0.1783-0.06c0.073-0.0185,0.1487-0.0268,0.2217-0.0296
				c0.0786,0,0.1811-0.0028,0.2346,0.0619c0.0083,0.0083,0.0166,0.0222,0.0249,0.0323c0.0185,0.0333,0.0323,0.0711,0.0462,0.109
				c0.024,0.0536,0.0425,0.1127,0.0563,0.1727c0.0379,0.1515,0.0517,0.3085,0.0573,0.4646v0.06
				c0,0.0831-0.0055,0.1727-0.0082,0.2697c-0.014,0.2928-0.0269,0.6549,0.0479,1.09c0.0629,0.3492,0.1847,0.6171,0.2974,0.8138
				c0.0222,0.0379,0.0434,0.0757,0.0656,0.1081c0.0268,0.0406,0.0509,0.0757,0.073,0.1053
				c-0.157-0.0102-0.2734-0.0508-0.3519-0.0914c-0.0702-0.0351-0.1108-0.0702-0.1266-0.0841
				c-0.0028-0.0083-0.0054-0.0129-0.0083-0.0212c-0.0166-0.0406-0.0323-0.0841-0.049-0.1275
				c-0.059-0.146-0.1219-0.3002-0.1699-0.4489c-0.1137-0.3649-0.1488-1.03-0.1488-1.0383c0-0.0296-0.0277-0.0536-0.0573-0.0508
				c-0.0296,0-0.0536,0.0268-0.0508,0.0563c0,0.0296,0.0323,0.6873,0.1533,1.0651c0.0462,0.1543,0.109,0.3085,0.1709,0.46
				c0.0111,0.0296,0.024,0.0591,0.0351,0.0868c0.0139,0.0379,0.0296,0.0757,0.0434,0.1108
				c0.0351,0.0915,0.0619,0.1755,0.0759,0.2402c-0.1516-0.0268-0.3678-0.1321-0.5036-0.2346
				c-0.0453-0.0333-0.0831-0.0656-0.1053-0.0951c0-0.0055-0.0028-0.0111-0.0028-0.0139c-0.0887-0.3972-0.0841-1.6544-0.0841-1.6683
				c0-0.0296-0.024-0.0536-0.0563-0.0536c-0.0296,0-0.0536,0.024-0.0536,0.0536c0,0.0545-0.0028,1.236,0.0804,1.6664
				c0.0028,0.0102,0.0055,0.0185,0.0083,0.0296c-0.0185,0.0268-0.0351,0.0508-0.0619,0.0813
				c-0.0296,0.0351-0.0702,0.0776-0.1357,0.146c-0.0185,0.0212-0.0426,0.0434-0.0675,0.0674
				c-0.0129-0.0083-0.0268-0.0194-0.0433-0.0323c-0.0537-0.0434-0.1165-0.1108-0.1755-0.1811
				c-0.0324-0.0379-0.062-0.0757-0.0888-0.109v-0.0018c0.2643-0.4064,0.3132-0.9764,0.3455-1.6988
				c0-0.0323-0.0212-0.0563-0.0508-0.0591c-0.0333,0-0.0573,0.024-0.06,0.0536c-0.0323,0.7408-0.0841,1.3145-0.3732,1.7043
				c-0.0268,0.0397-0.059,0.0757-0.0914,0.1108c-0.0868,0.0887-0.1866,0.1672-0.3085,0.2319
				c0.0084-0.0647,0.024-0.1515,0.0406-0.2346c0.0083-0.0379,0.0157-0.0757,0.0212-0.1108
				c0.0028-0.0111,0.0055-0.0222,0.0083-0.0323c0.2061-0.2762,0.4001-0.7602,0.5247-1.6147
				c0.0055-0.0323-0.0166-0.0591-0.0462-0.0647c-0.0296-0.0028-0.0563,0.0157-0.0619,0.048
				c-0.1404,0.9579-0.3649,1.4253-0.5866,1.6581c-0.0434,0.0434-0.0841,0.0785-0.1247,0.1081
				c-0.0702,0.049-0.1404,0.0785-0.2051,0.097c-0.0656,0.0194-0.1275,0.0277-0.182,0.0351
				C23.5705,20.9877,23.6112,20.9388,23.6463,20.8898z M22.8759,27.6396l0.2411,0.6272c0.0046,0.0129,0.0157,0.024,0.0323,0.024
				c0.0129,0.0028,0.0268-0.0028,0.0379-0.0166l0.4-0.5404l0.1977,1.0032c-0.1977,0.2864-0.3732,0.5385-0.4545,0.6466
				c-0.0351-0.1136-0.1135-0.3436-0.2356-0.6817c-0.0055-0.0139-0.0185-0.024-0.0323-0.0268c-0.0166,0-0.0296,0.0055-0.0406,0.0185
				l-0.4222,0.6272l-0.3242-1.0946L22.8759,27.6396z M27.1399,30.203l-0.3409-0.4656c-0.0073-0.0139-0.0212-0.0185-0.0379-0.0157
				c-0.0129,0-0.0268,0.0102-0.0323,0.024l-0.1968,0.5136c-0.1386,0.0028-0.2596,0.0028-0.3704,0l-0.1302-0.6087l0.1599-0.8027
				c0.4673,0.6734,0.4673,0.6706,0.5052,0.6596c0.0166-0.0055,0.0277-0.0185,0.0296-0.0351
				c0.0055-0.0406,0.133-0.4028,0.2272-0.6679l0.4166,0.6171L27.1399,30.203z M27.4291,29.5074l0.3925,0.5847
				c-0.2077,0.0508-0.4083,0.0859-0.5977,0.1136L27.4291,29.5074z M27.0567,30.2242c-0.157,0.0194-0.303,0.0268-0.4388,0.0323
				l0.1598-0.4111L27.0567,30.2242z M25.4069,30.3702c-0.1301-0.0028-0.2217,0.0351-0.279,0.1136
				c-0.0267,0.0406-0.0452,0.0896-0.0508,0.1432h-0.1543c-0.0055-0.0536-0.024-0.1025-0.0517-0.1432
				c-0.0562-0.0785-0.1515-0.1164-0.2779-0.1136c-0.0297-0.0462-0.0953-0.1081-0.2301-0.1247
				c-0.049-0.0074-0.1301-0.0018-0.254,0.0028c-0.0573,0.0028-0.1192,0.0055-0.1866,0.0083l0.0914-0.4406l0.1894,0.3058
				c0.0112,0.0212,0.0379,0.024,0.0574,0.0083l0.3075-0.2707c0.0055-0.0055,0.0111-0.0139,0.0111-0.0222l0.2383-1.8549
				l-0.1192,1.8715c0,0.0083,0.0028,0.0185,0.0083,0.0268l0.2652,0.3141c0.0128,0.0157,0.0405,0.0157,0.0562,0l0.2651-0.3141
				c0.0055-0.0083,0.0083-0.0185,0.0083-0.0268l-0.1192-1.8715l0.2383,1.8549c0,0.0083,0.0046,0.0166,0.0102,0.0222l0.3085,0.2707
				c0.0185,0.0157,0.0434,0.0129,0.0563-0.0083l0.1866-0.3058l0.0951,0.4406c-0.0674-0.0028-0.1302-0.0055-0.1866-0.0083
				c-0.1246-0.0046-0.206-0.0102-0.2539-0.0028C25.5011,30.2621,25.4365,30.324,25.4069,30.3702z M25.4559,30.6298
				c0,0,0,0.0028,0.0028,0.0028c0.0074,0.0166,0.0157,0.0296,0.0268,0.0462c0.0185,0.0296,0.0408,0.0508,0.0674,0.073
				c0,0.0083-0.0028,0.0185-0.0055,0.0268c-0.0185,0.0619-0.0757,0.0951-0.1404,0.133c-0.0222,0.0129-0.0462,0.0268-0.0647,0.0425
				c-0.0655,0.0434-0.084,0.0757-0.1035,0.1108c-0.0452-0.1182-0.0702-0.2134-0.0804-0.2891c-0.0083-0.0619-0.0055-0.1081,0-0.1487
				c0.0055-0.0434,0.0212-0.073,0.0352-0.0942c0.0479-0.0674,0.1264-0.0813,0.1809-0.0813
				c-0.0054,0.0434,0.0055,0.0841,0.0296,0.1108C25.4235,30.5808,25.4365,30.603,25.4559,30.6298z M24.8416,30.7757
				c-0.0111,0.0757-0.0351,0.1709-0.0813,0.2891c-0.0185-0.0351-0.0406-0.0674-0.1024-0.1108
				c-0.0214-0.0157-0.0435-0.0296-0.0675-0.0425c-0.0618-0.0379-0.1219-0.0711-0.1376-0.133
				c-0.0028-0.0083-0.0055-0.0185-0.0055-0.0268c0.024-0.0222,0.048-0.0434,0.0674-0.073c0.0111-0.0166,0.0185-0.0296,0.0268-0.0462
				c0.0028,0,0.0028-0.0028,0.0028-0.0028c0.0194-0.0268,0.0323-0.049,0.0491-0.0674c0.0267-0.0268,0.0378-0.0674,0.0322-0.1108
				c0.0545,0,0.1321,0.0139,0.1811,0.0813c0.0139,0.0212,0.0269,0.0508,0.0351,0.0942
				C24.8471,30.6676,24.8499,30.7138,24.8416,30.7757z M23.2703,29.7457c-0.0046-0.0139-0.0185-0.024-0.0323-0.024
				c-0.0157-0.0028-0.0296,0.0018-0.0379,0.0157l-0.3399,0.4656l-0.23-0.7815l0.4157-0.6171
				c0.0924,0.2651,0.2199,0.6272,0.2272,0.6679c0.0028,0.0166,0.0139,0.0296,0.0305,0.0351
				c0.0351,0.0111,0.0369,0.0139,0.5053-0.6596l0.1598,0.8027l-0.1302,0.6087c-0.1108,0.0028-0.2356,0.0028-0.3704,0
				L23.2703,29.7457z M23.3811,30.2566c-0.1349-0.0055-0.2836-0.0129-0.4379-0.0323l0.279-0.3787L23.3811,30.2566z M22.7761,30.2058
				c-0.1894-0.0277-0.3898-0.0628-0.6004-0.1136l0.3945-0.5847L22.7761,30.2058z M23.8707,28.7536
				c0.0028-0.0028,0.0083-0.0083,0.0112-0.0139c0.1514-0.2189,0.3056-0.4406,0.4054-0.5866l-0.278,1.2979L23.8707,28.7536z
				 M24.2818,26.6438c0.0868,0.0896,0.1783,0.1764,0.2707,0.2596l-0.1921,0.9007l-0.2891-0.9007L24.2818,26.6438z M23.6767,27.2553
				l-0.06-0.5949c0.1302-0.1192,0.254-0.23,0.3732-0.3353c0.0757,0.0868,0.1543,0.1755,0.2383,0.2596L23.6767,27.2553z
				 M25.9288,26.9034l-0.2891,0.9007l-0.1921-0.9007c0.0915-0.0831,0.1838-0.17,0.2679-0.2596L25.9288,26.9034z M25.7718,26.5875
				c0.0841-0.0868,0.1626-0.1727,0.2383-0.2623c0.1182,0.1053,0.2429,0.2162,0.3732,0.3353l-0.06,0.5949L25.7718,26.5875z
				 M25.7127,28.1532c0.0999,0.146,0.2513,0.3677,0.4055,0.5866c0.0028,0.0055,0.0055,0.0111,0.0102,0.0139l-0.1403,0.6974
				L25.7127,28.1532z M26.1505,28.6456c-0.1625-0.2328-0.3298-0.4822-0.4757-0.69l0.3159-0.9792l0.3299,0.4037
				c0.011,0.0129,0.0277,0.0185,0.0433,0.0129c0.0166-0.0055,0.0268-0.0185,0.0296-0.0351l0.0657-0.6328
				c0.2669,0.2439,0.5569,0.5034,0.8544,0.7686c0.0351,0.0296,0.0674,0.0619,0.1025,0.0915
				c0.0323,0.0296,0.0647,0.0591,0.0998,0.0896l0.0351,0.0323c0.0139,0.0129,0.0296,0.0268,0.0462,0.0406l0.0914,0.3298
				l-0.5542-0.5385c-0.0074-0.0102-0.0212-0.0129-0.0351-0.0102c-0.0129,0.0028-0.024,0.0102-0.0296,0.024l-0.2346,0.6161
				l-0.4111-0.557c-0.0083-0.0129-0.0249-0.0185-0.0406-0.0157c-0.0165,0.0055-0.0277,0.0157-0.0323,0.0323L26.1505,28.6456z
				 M27.4863,27.501c-0.0323-0.0296-0.0647-0.0591-0.097-0.0887c-0.0139-0.0111-0.0277-0.0249-0.0406-0.0351l-0.1358-3.2507
				c0.0841-0.278,0.146-0.5653,0.1921-0.86l0.1783,4.324C27.5509,27.5611,27.5186,27.5315,27.4863,27.501z M27.2027,23.8615
				c-0.2272,0.8923-0.6494,1.7006-1.2526,2.4091c-0.1727,0.2005-0.3621,0.3954-0.5653,0.5792c0,0.0028,0,0.0028-0.0018,0.0028
				c-0.0137,0.0129-0.0305,0.0268-0.0462,0.0406c-0.0137,0.0129-0.0296,0.0268-0.0434,0.0406
				c-0.0268,0.024-0.0545,0.0453-0.0812,0.0702c-0.0703,0.0591-0.1405,0.1164-0.2135,0.1727
				c-0.0702-0.0563-0.1432-0.1136-0.2106-0.1727c-0.0277-0.0249-0.0545-0.0462-0.0813-0.0702
				c-0.0139-0.0139-0.0296-0.0277-0.0462-0.0406c-0.0139-0.0139-0.0296-0.0277-0.0434-0.0406c-0.0028,0-0.0028,0-0.0028-0.0028
				c-0.2023-0.1838-0.3917-0.3787-0.5653-0.5792c-0.6023-0.7085-1.0244-1.5168-1.2517-2.4091
				c-0.0915-0.3621-0.1543-0.7353-0.1809-1.1242l0.0211-0.5034c1.3468-0.049,2.0747-0.484,2.3067-0.6485
				c0.0248-0.0166,0.0433-0.0333,0.0544-0.0434c0.0139,0.0102,0.0323,0.0268,0.0565,0.0434
				c0.2299,0.1644,0.9607,0.5995,2.3065,0.6485l0.0222,0.5034C27.3542,23.1262,27.2941,23.4994,27.2027,23.8615z M22.7862,24.1266
				l-0.1349,3.2507c-0.0139,0.0102-0.0268,0.024-0.0406,0.0351c-0.0323,0.0296-0.0647,0.0591-0.097,0.0887
				c-0.0323,0.0305-0.0647,0.06-0.0979,0.0896l0.1792-4.324C22.6403,23.5613,22.7031,23.8486,22.7862,24.1266z M22.4491,27.707
				l0.0351-0.0323c0.0351-0.0305,0.0675-0.06,0.0998-0.0896c0.0351-0.0296,0.0674-0.0619,0.0998-0.0915
				c0.2974-0.2651,0.5866-0.5247,0.8572-0.7686l0.0647,0.6328c0.0028,0.0166,0.0139,0.0296,0.0305,0.0351
				c0.0129,0.0055,0.0323,0,0.0406-0.0129l0.3325-0.4037l0.316,0.9792c-0.1461,0.2078-0.316,0.4573-0.4758,0.69l-0.2032-1.017
				c-0.0028-0.0166-0.0129-0.0268-0.0296-0.0323c-0.0157-0.0028-0.0323,0.0028-0.0406,0.0157l-0.4111,0.557l-0.2345-0.6161
				c-0.0057-0.0139-0.0167-0.0212-0.0306-0.024c-0.0129-0.0028-0.0268,0-0.0379,0.0102l-0.5515,0.5385l0.0924-0.3298
				C22.4186,27.7338,22.4325,27.72,22.4491,27.707z M22.232,28.3583l0.3085,1.0494L22.0944,30.07
				c-0.1053-0.0268-0.2106-0.0563-0.3186-0.0915L22.232,28.3583z M21.202,29.9563l0.0111-0.0102
				c0.0055-0.0055,0.0084-0.0083,0.0129-0.0139c0.0406-0.0296,0.0979-0.0351,0.1469-0.0166
				c0.1025,0.0434,0.2051,0.0785,0.3048,0.1136c0.3981,0.1358,0.7713,0.2143,1.1085,0.2596
				c0.157,0.0194,0.3085,0.0323,0.4491,0.0406c0.0627,0.0055,0.1191,0.0083,0.1791,0.0083
				c0.0296,0.0028,0.0563,0.0028,0.0859,0.0028c0.1164,0.0028,0.2246,0.0028,0.3224,0c0.0268,0,0.0536-0.0028,0.0804-0.0028
				c0.0785-0.0028,0.1487-0.0055,0.2088-0.0083c0.1164-0.0055,0.1995-0.0111,0.2402-0.0055
				c0.1219,0.0166,0.1653,0.073,0.1811,0.1062c0.0194,0.0351,0.014,0.0674,0.0028,0.0748c-0.024,0.0249-0.0406,0.0517-0.0619,0.0868
				c-0.0083,0.0111-0.0166,0.024-0.024,0.0379c-0.0028,0.0028-0.0028,0.0028-0.0028,0.0055
				c-0.0166,0.024-0.0379,0.0462-0.0656,0.0647c-0.0351,0.0222-0.0747,0.0379-0.1182,0.0406
				c-0.2143,0.0166-0.4461,0.0194-0.69,0.0111c-0.1809-0.0055-0.3704-0.0194-0.5653-0.0406
				c0.0028-0.0028,0.0028-0.0055,0.0028-0.0083c0.0166-0.0536,0.0166-0.1053,0.0111-0.146
				c-0.0157-0.1025-0.0785-0.1727-0.1375-0.2134c-0.0057-0.0055-0.014-0.0111-0.0195-0.0139
				c-0.024-0.0157-0.0508-0.0268-0.0804-0.0323h-0.0277c-0.0185,0-0.0379,0.0028-0.0563,0.0083c-0.0028,0-0.0028,0-0.0055,0
				c-0.0896,0.0296-0.1543,0.0942-0.1838,0.1838c-0.0028,0.0111-0.0083,0.024-0.0111,0.0351
				c-0.0083,0.0406-0.0111,0.0757-0.0111,0.1081v0.0083c-0.1644-0.0268-0.3187-0.0573-0.4591-0.0868
				c-0.4517-0.0942-0.7686-0.1921-0.8138-0.2162c-0.0028-0.0028-0.0083-0.0083-0.0111-0.0212l-0.0055-0.0083
				c-0.0083-0.0268-0.0157-0.0628-0.0212-0.1025c-0.0083-0.0545-0.0139-0.1164-0.0139-0.1709
				C21.1642,30.0081,21.178,29.9813,21.202,29.9563z M22.9305,30.6916c-0.0112,0.0379-0.0277,0.0757-0.0491,0.1164l-0.0028,0.0055
				c-0.0083,0.0111-0.024,0.0296-0.0434,0.049c-0.0296,0.0323-0.0702,0.073-0.1025,0.1247
				c-0.0139-0.0277-0.0323-0.0545-0.0516-0.0813c-0.0481-0.073-0.1054-0.1515-0.1108-0.2596c-0.0029-0.0323,0-0.0656,0.011-0.1035
				c0.0028-0.0157,0.0055-0.0296,0.0111-0.0425c0.0241-0.0573,0.0674-0.0979,0.1266-0.1164
				c0.0139-0.0055,0.0249-0.0055,0.0379-0.0055c0.0222,0,0.0434,0.0055,0.0647,0.0185c0.0629,0.0406,0.1035,0.0896,0.1164,0.1487
				C22.9489,30.5891,22.9461,30.6408,22.9305,30.6916z M20.7753,30.1947c0.0757-0.1247,0.2189-0.1866,0.3187-0.2162
				c-0.0083,0.0185-0.011,0.0379-0.011,0.0563c0,0.0434,0.0027,0.0951,0.0082,0.146c0.0055,0.0434,0.0139,0.0896,0.024,0.1247
				c-0.0185,0.0055-0.0379,0.0129-0.0536,0.0185c-0.0517,0.0194-0.0951,0.0379-0.1302,0.0545
				c-0.0942,0.0462-0.146,0.0841-0.1838,0.1219c-0.0102-0.0379-0.0156-0.0757-0.0185-0.1136
				C20.7263,30.3166,20.742,30.2483,20.7753,30.1947z M28.9061,29.9785c0.097,0.0296,0.2429,0.0915,0.3187,0.2162
				c0.0323,0.0536,0.049,0.1219,0.0462,0.1921c-0.0028,0.0379-0.0083,0.0757-0.0194,0.1136
				c-0.0396-0.0379-0.0887-0.0757-0.1838-0.1219c-0.0351-0.0166-0.0775-0.0351-0.1293-0.0545
				c-0.0166-0.0055-0.0351-0.0129-0.0545-0.0185c0.0111-0.0351,0.0194-0.0813,0.0249-0.1247
				c0.0055-0.0508,0.0075-0.1025,0.0075-0.146C28.9163,30.0164,28.9144,29.997,28.9061,29.9785z M28.8543,30.3813
				c0.1949,0.0647,0.2762,0.1192,0.3299,0.1672c0.0248,0.0573,0.0405,0.1275,0.0544,0.2189
				c0.0028,0.0222,0.0111,0.0379,0.0268,0.0517c0.0194,0.0111,0.0379,0.0166,0.0574,0.0111c0.0017,0,0.205-0.0249,0.3999,0.3649
				c0.0028,0.0083,0.0083,0.0139,0.0158,0.0185c-0.013,0.1192-0.0675,0.3898-0.2107,0.4489
				c-0.0166,0.0055-0.0294,0.0194-0.0379,0.0351c-0.024,0.0517-0.0323,0.1081-0.0406,0.1709
				c-0.0185,0.1266-0.0351,0.2485-0.2051,0.3132c-0.2439,0.0979-2.18,0.4517-3.8483,0.436h-0.7916
				c-1.6664,0.0157-3.6043-0.3381-3.8483-0.436c-0.17-0.0647-0.1866-0.1866-0.2051-0.3132
				c-0.0083-0.0628-0.0166-0.1192-0.0405-0.1709c-0.0084-0.0157-0.0223-0.0296-0.038-0.0351
				c-0.1432-0.0591-0.1977-0.3298-0.2114-0.4489c0.0082-0.0046,0.0137-0.0102,0.0165-0.0185
				c0.1949-0.3898,0.3972-0.3649,0.3972-0.3649c0.0194,0.0055,0.0406,0,0.0574-0.0111c0.0156-0.0139,0.0267-0.0296,0.0294-0.0517
				c0.0139-0.0914,0.0296-0.1617,0.0537-0.2189c0.0544-0.048,0.1357-0.1025,0.3306-0.1672
				c0.0046,0.0055,0.0074,0.0129,0.0129,0.0157c0.0406,0.0406,0.6411,0.2143,1.3413,0.3279
				c0.0222,0.0915,0.0703,0.1644,0.1136,0.2263c0.0434,0.0628,0.0757,0.109,0.0702,0.157
				c-0.0027,0.0222,0.0139,0.0406,0.0351,0.0434c0.0028,0,0.0028,0,0.0055,0c0.0194,0,0.0351-0.0139,0.0406-0.0323
				c0.0194-0.0868,0.0813-0.1515,0.1275-0.2005c0.024-0.024,0.0453-0.0453,0.0565-0.0647l0.0027-0.0055
				c0.0111-0.0212,0.0212-0.0406,0.0296-0.0591c0.2919,0.0323,0.5736,0.049,0.8361,0.049c0.156,0,0.3075-0.0055,0.4544-0.0166
				c0.0352-0.0028,0.0674-0.0139,0.0999-0.0268c0.0267,0.097,0.1108,0.146,0.1809,0.1866c0.0212,0.0129,0.0408,0.024,0.0592,0.0379
				c0.0572,0.0406,0.0655,0.0619,0.084,0.0998c0.0084,0.0185,0.0194,0.0406,0.0351,0.0647
				c0.0055,0.0139,0.0195,0.0222,0.0323,0.0222h0.0028c0.0166-0.0028,0.0296-0.0111,0.0351-0.0277
				c0.0674-0.1561,0.1081-0.2919,0.1219-0.4028h0.1543c0.0129,0.1108,0.0536,0.2466,0.1219,0.4028
				c0.0046,0.0166,0.0185,0.0249,0.0323,0.0277h0.0028c0.0157,0,0.0296-0.0083,0.0351-0.0222
				c0.0157-0.024,0.0268-0.0462,0.0352-0.0647c0.0185-0.0379,0.0267-0.0591,0.0831-0.0998
				c0.0193-0.0139,0.0378-0.0249,0.0599-0.0379c0.0702-0.0406,0.1543-0.0896,0.1811-0.1866
				c0.0323,0.0129,0.0647,0.024,0.0998,0.0268c0.146,0.0111,0.2974,0.0166,0.4545,0.0166c0.2623,0,0.5432-0.0166,0.836-0.049
				c0.0074,0.0185,0.0185,0.0379,0.0296,0.0591l0.0028,0.0055c0.0102,0.0194,0.0296,0.0406,0.0563,0.0647
				c0.0462,0.049,0.1081,0.1136,0.1276,0.2005c0.0054,0.0185,0.0211,0.0323,0.0405,0.0323c0,0,0.0028,0,0.0046,0
				c0.0222-0.0028,0.038-0.0212,0.036-0.0434c-0.0083-0.048,0.0268-0.0942,0.0674-0.157c0.0434-0.0619,0.0942-0.1349,0.1164-0.2263
				c0.7002-0.1136,1.3006-0.2873,1.3404-0.3279C28.846,30.3942,28.8488,30.3868,28.8543,30.3813z M27.0613,30.5457
				c0.0139-0.0591,0.0545-0.1081,0.1164-0.1487c0.0222-0.0129,0.0434-0.0185,0.0656-0.0185c0.0129,0,0.024,0,0.0369,0.0055
				c0.06,0.0185,0.1035,0.0591,0.1275,0.1164c0.0055,0.0129,0.0083,0.0268,0.0111,0.0425c0.0083,0.0379,0.0103,0.0711,0.0103,0.1035
				c-0.0047,0.1081-0.062,0.1866-0.1108,0.2596c-0.0185,0.0268-0.038,0.0536-0.0509,0.0813
				c-0.0322-0.0517-0.073-0.0924-0.1025-0.1247c-0.0194-0.0194-0.0379-0.0379-0.0434-0.049l-0.0028-0.0055
				c-0.0221-0.0406-0.0379-0.0785-0.049-0.1164C27.0539,30.6408,27.0512,30.5891,27.0613,30.5457z M28.3213,30.0293
				c0.1007-0.0323,0.2032-0.0702,0.3058-0.1136c0.0491-0.0185,0.1053-0.0129,0.146,0.0166c0.0055,0.0055,0.0083,0.0083,0.014,0.0139
				l0.011,0.0102c0.024,0.0249,0.0379,0.0517,0.0379,0.0785c0,0.0545-0.0055,0.1164-0.0139,0.1709
				c-0.0055,0.0397-0.0139,0.0757-0.0212,0.1025l-0.0055,0.0083c-0.0028,0.0129-0.0082,0.0185-0.0111,0.0212
				c-0.0462,0.024-0.3621,0.1219-0.8138,0.2162c-0.1404,0.0296-0.2947,0.06-0.46,0.0868v-0.0083
				c0-0.0323-0.0028-0.0674-0.0102-0.1081c-0.0028-0.0111-0.0083-0.024-0.0111-0.0351c-0.0296-0.0896-0.0951-0.1543-0.1838-0.1838
				c-0.0028,0-0.0028,0-0.0054,0c-0.0195-0.0055-0.038-0.0083-0.0565-0.0083h-0.0277c-0.0296,0.0055-0.0563,0.0166-0.0813,0.0323
				c-0.0046,0.0028-0.0129,0.0083-0.0185,0.0139c-0.0591,0.0406-0.1247,0.1081-0.1376,0.2134
				c-0.0083,0.0406-0.0055,0.0924,0.0102,0.146v0.0083c-0.1912,0.0212-0.3806,0.0351-0.5626,0.0406
				c-0.2429,0.0083-0.4757,0.0055-0.6891-0.0111c-0.0434-0.0028-0.0841-0.0185-0.1192-0.0406
				c-0.0267-0.0185-0.048-0.0406-0.0647-0.0647c0-0.0028-0.0028-0.0028-0.0028-0.0055c-0.0083-0.0139-0.0166-0.0268-0.0239-0.0379
				c-0.0223-0.0351-0.038-0.0619-0.0629-0.0868c-0.0102-0.0074-0.0157-0.0397,0.0028-0.0748
				c0.014-0.0333,0.0602-0.0896,0.1811-0.1062c0.0406-0.0055,0.1247,0,0.2411,0.0055c0.0591,0.0028,0.1293,0.0055,0.2051,0.0083
				c0.0277,0,0.0573,0.0028,0.0841,0.0028c0.0979,0.0028,0.206,0.0028,0.3224,0c0.0296,0,0.0563,0,0.0859-0.0028
				c0.0573,0,0.1164-0.0028,0.1784-0.0083c0.1412-0.0083,0.2927-0.0212,0.4488-0.0406
				C27.5509,30.2436,27.9241,30.1651,28.3213,30.0293z M28.2216,29.9785c-0.1053,0.0351-0.2105,0.0647-0.3159,0.0915l-0.4462-0.6623
				l0.3076-1.0494L28.2216,29.9785z M27.7247,28.2262l-0.3253,1.0946l-0.424-0.6272c-0.0082-0.0129-0.0222-0.0185-0.0379-0.0185
				c-0.0165,0.0028-0.0277,0.0129-0.0323,0.0268c-0.1219,0.3381-0.2005,0.5681-0.2383,0.6817
				c-0.0784-0.1081-0.2539-0.3603-0.4545-0.6466l0.2006-1.0032l0.3999,0.5404c0.0083,0.0139,0.024,0.0194,0.0379,0.0166
				c0.0166,0,0.0268-0.0111,0.0323-0.024l0.2412-0.6272L27.7247,28.2262z M30.0035,29.7614
				c-0.0591-0.0536-0.121-0.1108-0.1866-0.1672l-0.0379-0.0351l-0.3649-8.758c-0.1247,0.1321-0.3187,0.3242-0.5736,0.5321
				l0.3196,7.6717l-0.2485-0.2245l-0.0028-0.0028l-0.0406-0.0351l-0.3002-7.195c-0.1358,0.0998-0.2836,0.2023-0.4461,0.2993
				l0.2679,6.4653c-0.0842-0.0748-0.1682-0.1506-0.2523-0.2263c-0.0129-0.0111-0.0268-0.0249-0.0397-0.0351l-0.2522-6.0468
				c-0.1164,0.0628-0.2374,0.1219-0.3676,0.1764c-0.0055-0.0139-0.0185-0.0222-0.0351-0.0249
				c-1.4789-0.0351-2.2364-0.557-2.3878-0.6734c-0.0185-0.0129-0.0269-0.0212-0.0297-0.0212c-0.0129-0.0139-0.0379-0.0139-0.0508,0
				c-0.0027,0-0.0111,0.0083-0.0304,0.0212c-0.1516,0.1164-0.9053,0.6383-2.3871,0.6734c-0.0166,0.0028-0.0305,0.0111-0.0351,0.0249
				c-0.1302-0.0545-0.2522-0.1136-0.3686-0.1764l-0.2513,6.0468c-0.0129,0.0102-0.0268,0.024-0.0406,0.0351
				c-0.0831,0.0757-0.17,0.1515-0.2513,0.2263l0.2679-6.4653c-0.1626-0.097-0.3113-0.1995-0.4462-0.2993l-0.3002,7.195
				l-0.0406,0.0351c-0.0028,0-0.0028,0.0028-0.0028,0.0028l-0.2485,0.2245l0.3187-7.6717c-0.2568-0.2078-0.4489-0.4-0.5727-0.5321
				l-0.3649,8.758l-0.0379,0.0351c-0.0656,0.0563-0.1275,0.1136-0.1866,0.1672l0.3806-9.1257
				c-0.1755,0.0462-0.4591,0.2162-0.581,0.2919l0.0029-0.0702c0.0137-0.3058,0.1865-0.7649,0.5329-0.8277
				c0.0942-0.0185,0.1884-0.0268,0.2808-0.0268c0.5275,0,1.0087,0.2596,1.4383,0.4924c0.1164,0.0591,0.2245,0.1192,0.3325,0.1727
				c0.2356,0.1164,0.6763,0.1783,1.1307,0.2115c-0.0517,0.0674-0.1081,0.1321-0.1709,0.1912
				c-0.0156,0.0194-0.0185,0.0462-0.0074,0.0684c0.0103,0.0157,0.0296,0.0268,0.048,0.0268c0.0055,0,0.0084,0,0.0139-0.0028
				c0.0296-0.0083,0.0674-0.0111,0.1108-0.0166c0.1487-0.0129,0.3519-0.0351,0.5598-0.2217c-0.024,0.1247-0.049,0.2651-0.049,0.3168
				c0,0.0185,0.0111,0.0379,0.0249,0.0462c0.0102,0.0074,0.0185,0.0102,0.0296,0.0102c0.0083,0,0.0157-0.0028,0.024-0.0055
				c0.2134-0.0998,0.376-0.2245,0.5007-0.375c0.0055-0.0083,0.0074-0.0139,0.013-0.0194c0.0054,0.0055,0.0082,0.0111,0.0137,0.0194
				c0.0786,0.0942,0.2134,0.254,0.3188,0.3132c0.0137,0.0055,0.0248,0.0111,0.0378,0.0166
				c0.0055,0.0028,0.0111,0.0028,0.0166,0.0028c0.0157,0,0.0296-0.0055,0.0406-0.0166l0.0158-0.0166
				c0.1625-0.1617,0.2188-0.2245,0.2622-0.2836c0.1543,0.1487,0.5118,0.3325,0.7141,0.3325c0.0296,0,0.0545-0.024,0.0545-0.0563
				c0-0.0545-0.0166-0.1302-0.0462-0.2171c0.1081,0.0573,0.2809,0.1164,0.5247,0.1164c0.0212,0,0.0406-0.0102,0.048-0.0296
				c0.0111-0.0185,0.0083-0.0406-0.0018-0.0591l-0.0083-0.0111c-0.0268-0.0351-0.0599-0.0785-0.0951-0.1293
				c0.2217-0.0194,0.4434-0.0434,0.6356-0.0757c0.192-0.0351,0.3574-0.0785,0.4728-0.1358
				c0.1091-0.0536,0.2171-0.1136,0.3325-0.1727c0.4305-0.2328,0.9117-0.4924,1.4393-0.4924c0.0913,0,0.1837,0.0083,0.2807,0.0268
				c0.3464,0.0628,0.5191,0.5219,0.533,0.8277l0.0028,0.0702c-0.1219-0.0757-0.4055-0.2457-0.582-0.2919L30.0035,29.7614z"/>
			<path id="XMLID_10685_" class="st3" d="M21.2935,30.1106c0.002,0,0.2614,0.0527,0.3667,0.1284
				c0.0074,0.0055,0.0157,0.0083,0.0232,0.0083c0.0128,0,0.0248-0.0065,0.0331-0.0176c0.013-0.0176,0.0092-0.0434-0.0092-0.0563
				c-0.1192-0.0859-0.387-0.1395-0.3981-0.1423c-0.0222-0.0046-0.0434,0.0102-0.048,0.0314
				C21.2565,30.0847,21.2713,30.106,21.2935,30.1106z"/>
			<path id="XMLID_10684_" class="st3" d="M21.9521,30.3129c0.0841,0.0148,0.3215,0.0637,0.4046,0.109
				c0.0055,0.0037,0.0129,0.0046,0.0195,0.0046c0.0137,0,0.0277-0.0074,0.035-0.0212c0.0112-0.0194,0.0037-0.0434-0.0157-0.0545
				c-0.1117-0.061-0.4165-0.1155-0.4286-0.1173c-0.0222-0.0037-0.0433,0.0102-0.0471,0.0323
				C21.9161,30.288,21.9299,30.3092,21.9521,30.3129z"/>
			<path id="XMLID_10683_" class="st3" d="M23.1382,30.5522c0.0083,0,0.0194-0.0009,0.0443-0.0037
				c0.0767-0.0092,0.2577-0.0305,0.3834,0.0028c0.0037,0.0009,0.0074,0.0009,0.0102,0.0009c0.0185,0,0.0351-0.012,0.0397-0.0296
				c0.0028-0.012,0-0.0231-0.0055-0.0323c-0.0046-0.0083-0.0139-0.0148-0.0239-0.0176c-0.0491-0.0129-0.1036-0.0185-0.1581-0.0194
				c-0.1016-0.0028-0.2022,0.0083-0.255,0.0148c-0.0176,0.0018-0.0296,0.0037-0.0351,0.0037c-0.0222,0-0.0397,0.0176-0.0397,0.0397
				C23.0985,30.5346,23.116,30.5522,23.1382,30.5522z"/>
			<path id="XMLID_10682_" class="st3" d="M23.8486,30.5956c0.0028,0,0.0046-0.0009,0.0065-0.0009
				c0.0028-0.0009,0.2651-0.0425,0.4258-0.0425c0.0222,0,0.0397-0.0176,0.0397-0.0406c0-0.0222-0.0176-0.0397-0.0397-0.0397
				c-0.1395,0-0.3446,0.0286-0.4148,0.0388c-0.0139,0.0028-0.0222,0.0037-0.024,0.0046c-0.0111,0.0018-0.0203,0.0083-0.0259,0.0166
				c-0.0065,0.0083-0.0092,0.0185-0.0074,0.0296C23.8125,30.5808,23.8292,30.5956,23.8486,30.5956z"/>
			<path id="XMLID_10681_" class="st3" d="M28.3159,30.2473c0.0082,0,0.0165-0.0028,0.0239-0.0083
				c0.1044-0.0757,0.3641-0.1284,0.3667-0.1284c0.0222-0.0046,0.036-0.0259,0.0314-0.048c-0.0037-0.0212-0.0248-0.036-0.0471-0.0314
				c-0.0111,0.0028-0.2799,0.0563-0.3991,0.1423c-0.0176,0.0129-0.0221,0.0388-0.0083,0.0563
				C28.2908,30.2409,28.3028,30.2473,28.3159,30.2473z"/>
			<path id="XMLID_10680_" class="st3" d="M27.6239,30.4265c0.0065,0,0.0129-0.0009,0.0194-0.0046
				c0.0831-0.0453,0.3196-0.0942,0.4037-0.109c0.0222-0.0037,0.0369-0.0249,0.0333-0.0471
				c-0.0045-0.0222-0.0259-0.036-0.0471-0.0323c-0.0128,0.0018-0.3168,0.0563-0.4285,0.1173
				c-0.0195,0.0111-0.0269,0.0351-0.0167,0.0545C27.5954,30.4191,27.6091,30.4265,27.6239,30.4265z"/>
			<path id="XMLID_10679_" class="st3" d="M26.8618,30.4718c-0.0054,0-0.0185-0.0018-0.0351-0.0037
				c-0.0527-0.0065-0.1515-0.0176-0.2522-0.0157l-0.0009,0.0009h-0.0028c-0.0545,0.0009-0.109,0.0065-0.1579,0.0194
				c-0.0103,0.0028-0.0185,0.0092-0.0232,0.0176c-0.0065,0.0083-0.0083,0.0203-0.0055,0.0323
				c0.0046,0.0176,0.0212,0.0296,0.0388,0.0296c0.0037,0,0.0074,0,0.0102-0.0009c0.1266-0.0333,0.3067-0.012,0.3843-0.0028
				c0.024,0.0028,0.036,0.0037,0.0434,0.0037c0.0222,0,0.0406-0.0176,0.0406-0.0406
				C26.9015,30.4893,26.8831,30.4718,26.8618,30.4718z"/>
			<path id="XMLID_10678_" class="st3" d="M26.157,30.5152c-0.0018-0.0009-0.0102-0.0018-0.024-0.0046
				c-0.071-0.0102-0.2742-0.0388-0.4138-0.0388c-0.0231,0-0.0406,0.0176-0.0406,0.0397c0,0.0231,0.0176,0.0406,0.0406,0.0406
				c0.1598,0,0.4221,0.0416,0.4249,0.0425c0.0028,0,0.0046,0.0009,0.0065,0.0009c0.0194,0,0.037-0.0148,0.0408-0.0342
				c0.0008-0.0111-0.002-0.0212-0.0075-0.0296C26.1782,30.5226,26.1681,30.5171,26.157,30.5152z"/>
			<path id="XMLID_10674_" class="st3" d="M27.2211,22.3687c-0.0268-0.0018-0.0536-0.0046-0.0813-0.0046
				c-0.0406-0.0028-0.0785-0.0055-0.1164-0.0111c-0.4185-0.0351-0.811-0.1136-1.1676-0.2328
				c-0.0647-0.0185-0.1247-0.0406-0.1811-0.0619c-0.2817-0.1053-0.484-0.2189-0.6197-0.3058
				c-0.0103-0.0083-0.0214-0.0139-0.0324-0.0212c-0.0129-0.0083-0.0322-0.0083-0.0462,0c-0.0102,0.0074-0.0212,0.0129-0.0322,0.0212
				c-0.1618,0.1053-0.4241,0.2457-0.8001,0.3676c-0.3566,0.1192-0.7492,0.1977-1.1685,0.2328
				c-0.0379,0.0055-0.0757,0.0083-0.1155,0.0111c-0.0277,0-0.0545,0.0028-0.0813,0.0046c-0.0222,0-0.0379,0.0194-0.0379,0.0406
				c0.0074,0.303,0.0351,0.5977,0.0804,0.8849c0.1709,1.0651,0.6087,2.0193,1.3062,2.847c0.0083,0.0111,0.0166,0.024,0.0277,0.0351
				c0.0859,0.0998,0.1755,0.1977,0.267,0.2947c0.073,0.073,0.1487,0.1487,0.2245,0.2189c0.1062,0.0998,0.2144,0.1949,0.3279,0.2864
				c0.0074,0.0083,0.0158,0.0111,0.024,0.0111c0.0111,0,0.0185-0.0028,0.0268-0.0111c0.1136-0.0915,0.2217-0.1866,0.327-0.2836
				c0.1764-0.1644,0.3381-0.3381,0.4924-0.5164c0.0083-0.0111,0.0194-0.024,0.0268-0.0351
				c0.4434-0.5247,0.7816-1.1002,1.0115-1.7256c0.1358-0.3566,0.2328-0.7325,0.2947-1.1214c0.0462-0.2873,0.073-0.582,0.0813-0.8849
				C27.259,22.3881,27.2433,22.3687,27.2211,22.3687z M25.842,26.0517c-0.0102,0.0139-0.0212,0.0249-0.0294,0.0379
				c-0.0112,0.0111-0.0195,0.0222-0.0269,0.0323c-0.1136,0.133-0.2328,0.2596-0.3603,0.3843
				c-0.0296,0.0323-0.0619,0.0619-0.0942,0.0924c-0.1053,0.1025-0.2162,0.1995-0.3325,0.2947
				c-0.1136-0.0951-0.2245-0.1921-0.3298-0.2919c-0.0647-0.0628-0.1275-0.1247-0.1894-0.1866
				c-0.0924-0.0979-0.1783-0.1949-0.265-0.2928c-0.0084-0.0102-0.0167-0.0212-0.0269-0.0323
				c-0.0083-0.0129-0.0193-0.024-0.0296-0.0379v-3.8502c0.0028,0,0.0074-0.0028,0.0129-0.0028
				c0.3519-0.1164,0.606-0.2485,0.7733-0.3519c0.0193-0.0102,0.0378-0.024,0.0544-0.0351c0.0185,0.0111,0.038,0.0249,0.0565,0.0351
				c0.1386,0.0841,0.3325,0.1894,0.592,0.2873c0.0573,0.0212,0.1193,0.0434,0.182,0.0647c0.0046,0,0.0074,0.0028,0.0129,0.0028
				V26.0517z"/>
		</g>
	</g>
</g>
</svg>
