<?xml version="1.0" encoding="utf-8"?>
<!-- Generator: Adobe Illustrator 27.6.1, SVG Export Plug-In . SVG Version: 6.00 Build 0)  -->
<svg version="1.1" id="Layer_1" xmlns="http://www.w3.org/2000/svg" xmlns:xlink="http://www.w3.org/1999/xlink" x="0px" y="0px"
	 viewBox="0 0 50 50" style="enable-background:new 0 0 50 50;" xml:space="preserve">
<style type="text/css">
	.st0{fill:#FFFFFF;}
	.st1{fill:#D1D3D4;}
	.st2{fill:#C62032;}
	.st3{fill:#223B74;}
	.st4{fill:#010101;}
</style>
<g>
	<circle class="st0" cx="25" cy="25" r="24.8"/>
	<path class="st1" d="M25,50C11.2,50,0,38.8,0,25S11.2,0,25,0s25,11.2,25,25S38.8,50,25,50z M25,0.5C11.5,0.5,0.5,11.5,0.5,25
		s11,24.5,24.5,24.5s24.5-11,24.5-24.5S38.5,0.5,25,0.5z"/>
</g>
<g id="XMLID_12991_">
	<g id="XMLID_13022_">
		<path id="XMLID_13023_" class="st0" d="M49.5,25c0,13.5-11,24.5-24.5,24.5S0.5,38.5,0.5,25S11.5,0.5,25,0.5S49.5,11.5,49.5,25z"/>
	</g>
	<g id="XMLID_13019_">
		<path id="XMLID_13021_" class="st2" d="M25,16.6c-3.4,0-6.3,2-7.6,4.9v0c0,0.9,0.1,3.6,1.8,4.7c1.5,1,3.5,1.4,5.9-1.1
			s4.4-2,5.5-1.5c1.1,0.5,2.5,1.7,2.2,5.1h0c0.5-1.1,0.8-2.3,0.8-3.6C33.4,20.3,29.7,16.6,25,16.6z"/>
		<path id="XMLID_13020_" class="st3" d="M32.6,28.6c0.4-3.3-1.1-4.6-2.2-5.1c-1.1-0.5-3.1-1-5.5,1.5s-4.4,2-5.9,1.1
			c-1.7-1.1-1.8-3.8-1.8-4.7l0,0c-0.5,1.1-0.8,2.3-0.8,3.6c0,4.7,3.8,8.4,8.4,8.4C28.4,33.4,31.3,31.5,32.6,28.6
			C32.6,28.6,32.6,28.6,32.6,28.6L32.6,28.6z"/>
	</g>
	<g id="XMLID_13004_">
		<g id="XMLID_13012_">
			<g id="XMLID_13016_">
				
					<rect id="XMLID_13018_" x="13.2" y="28.2" transform="matrix(0.8321 -0.5547 0.5547 0.8321 -15.6694 13.1361)" class="st4" width="1.4" height="8.4"/>
				
					<rect id="XMLID_13017_" x="9.7" y="30.6" transform="matrix(0.8321 -0.5547 0.5547 0.8321 -17.5532 11.585)" class="st4" width="1.4" height="8.4"/>
			</g>
			<g id="XMLID_13013_">
				
					<rect id="XMLID_13015_" x="10.1" y="29.8" transform="matrix(0.8321 -0.5547 0.5547 0.8321 -15.767 11.3352)" class="st4" width="1.4" height="3.9"/>
				
					<rect id="XMLID_13014_" x="12.7" y="33.6" transform="matrix(0.8321 -0.5546 0.5546 0.8321 -17.4517 13.3814)" class="st4" width="1.4" height="3.9"/>
			</g>
		</g>
		<g id="XMLID_13005_">
			
				<rect id="XMLID_13011_" x="39" y="32.2" transform="matrix(0.5527 -0.8334 0.8334 0.5527 -9.0829 48.8037)" class="st4" width="3.9" height="1.4"/>
			
				<rect id="XMLID_13010_" x="36.5" y="36" transform="matrix(0.5527 -0.8334 0.8334 0.5527 -13.4002 48.4027)" class="st4" width="3.9" height="1.4"/>
			
				<rect id="XMLID_13009_" x="37.2" y="31" transform="matrix(0.5527 -0.8334 0.8334 0.5527 -8.8981 46.8212)" class="st4" width="3.9" height="1.4"/>
			
				<rect id="XMLID_13008_" x="34.7" y="34.8" transform="matrix(0.5527 -0.8334 0.8334 0.5527 -13.2154 46.4202)" class="st4" width="3.9" height="1.4"/>
			
				<rect id="XMLID_13007_" x="32.9" y="33.7" transform="matrix(0.5527 -0.8334 0.8334 0.5527 -13.0305 44.4375)" class="st4" width="3.9" height="1.4"/>
			
				<rect id="XMLID_13006_" x="35.5" y="29.8" transform="matrix(0.553 -0.8332 0.8332 0.553 -8.7181 44.8221)" class="st4" width="3.9" height="1.4"/>
		</g>
	</g>
	<g id="XMLID_12992_">
		<g id="XMLID_12997_">
			
				<rect id="XMLID_13003_" x="37.2" y="12.1" transform="matrix(0.8342 -0.5515 0.5515 0.8342 -2.7423 23.6183)" class="st4" width="1.4" height="8.4"/>
			<g id="XMLID_12998_">
				
					<rect id="XMLID_13002_" x="40.2" y="15.2" transform="matrix(0.8342 -0.5515 0.5515 0.8342 -2.6551 25.4081)" class="st4" width="1.4" height="3.9"/>
				
					<rect id="XMLID_13001_" x="37.7" y="11.4" transform="matrix(0.8342 -0.5514 0.5514 0.8342 -0.9694 23.3751)" class="st4" width="1.4" height="3.9"/>
				
					<rect id="XMLID_13000_" x="36.7" y="17.5" transform="matrix(0.8342 -0.5515 0.5515 0.8342 -4.5182 23.8566)" class="st4" width="1.4" height="3.9"/>
				
					<rect id="XMLID_12999_" x="34.2" y="13.7" transform="matrix(0.8342 -0.5515 0.5515 0.8342 -2.8293 21.8284)" class="st4" width="1.4" height="3.9"/>
			</g>
		</g>
		<g id="XMLID_12993_">
			
				<rect id="XMLID_12996_" x="9.6" y="16.8" transform="matrix(0.5562 -0.831 0.831 0.5562 -8.4268 19.3002)" class="st4" width="8.4" height="1.4"/>
			
				<rect id="XMLID_12995_" x="7.9" y="15.7" transform="matrix(0.5562 -0.831 0.831 0.5562 -8.2306 17.3262)" class="st4" width="8.4" height="1.4"/>
			
				<rect id="XMLID_12994_" x="6.1" y="14.5" transform="matrix(0.5562 -0.831 0.831 0.5562 -8.0334 15.3537)" class="st4" width="8.4" height="1.4"/>
		</g>
	</g>
</g>
</svg>
