<?xml version="1.0" encoding="utf-8"?>
<!-- Generator: Adobe Illustrator 27.6.1, SVG Export Plug-In . SVG Version: 6.00 Build 0)  -->
<!DOCTYPE svg PUBLIC "-//W3C//DTD SVG 1.1//EN" "http://www.w3.org/Graphics/SVG/1.1/DTD/svg11.dtd" [
	<!ENTITY ns_extend "http://ns.adobe.com/Extensibility/1.0/">
	<!ENTITY ns_ai "http://ns.adobe.com/AdobeIllustrator/10.0/">
	<!ENTITY ns_graphs "http://ns.adobe.com/Graphs/1.0/">
	<!ENTITY ns_vars "http://ns.adobe.com/Variables/1.0/">
	<!ENTITY ns_imrep "http://ns.adobe.com/ImageReplacement/1.0/">
	<!ENTITY ns_sfw "http://ns.adobe.com/SaveForWeb/1.0/">
	<!ENTITY ns_custom "http://ns.adobe.com/GenericCustomNamespace/1.0/">
	<!ENTITY ns_adobe_xpath "http://ns.adobe.com/XPath/1.0/">
]>
<svg version="1.1" id="Layer_1" xmlns:x="&ns_extend;" xmlns:i="&ns_ai;" xmlns:graph="&ns_graphs;"
	 xmlns="http://www.w3.org/2000/svg" xmlns:xlink="http://www.w3.org/1999/xlink" x="0px" y="0px" viewBox="0 0 50 50"
	 style="enable-background:new 0 0 50 50;" xml:space="preserve">
<style type="text/css">
	.st0{fill:#FFFFFF;}
	.st1{fill:#D1D3D4;}
	.st2{fill:#CB0202;}
	.st3{fill:#040264;}
	.st4{fill:#FECB17;}
</style>
<metadata>
	<sfw  xmlns="&ns_sfw;">
		<slices></slices>
		<sliceSourceBounds  bottomLeftOrigin="true" height="50" width="50" x="0" y="0"></sliceSourceBounds>
	</sfw>
</metadata>
<g id="Layer_2_00000123403691739621316350000017975105315266775208_">
	<g id="Layer_2_00000009549042599903514300000009786033506733176249_">
		<g>
			<circle class="st0" cx="24.9998" cy="25.0002" r="24.7525"/>
			<path class="st1" d="M25,50C11.215,50,0,38.785,0,25S11.215,0,25,0s25,11.215,25,25S38.785,50,25,50z M25,0.495
				C11.4881,0.495,0.495,11.4881,0.495,25S11.4881,49.505,25,49.505S49.505,38.5119,49.505,25S38.5119,0.495,25,0.495z"/>
		</g>
	</g>
</g>
<g id="XMLID_9229_">
	<g id="XMLID_9235_">
		<path id="XMLID_9249_" class="st2" d="M45.0947,11.0012H4.9062c0.8781-1.2604,1.8725-2.433,2.9676-3.5004h34.2524
			C43.2213,8.5682,44.2157,9.7408,45.0947,11.0012z"/>
		<path id="XMLID_9248_" class="st0" d="M49.5,25.0018c0,1.1893-0.084,2.3564-0.2511,3.4995H0.7511
			C0.5841,27.3582,0.5,26.1911,0.5,25.0018H49.5z"/>
		<path id="XMLID_9247_" class="st2" d="M49.2489,28.5013c-0.1707,1.1976-0.4303,2.3656-0.7709,3.5004H1.5194
			c-0.3407-1.1348-0.5974-2.3028-0.7682-3.5004H49.2489z"/>
		<path id="XMLID_9246_" class="st0" d="M48.4779,32.0017c-0.3593,1.2087-0.8108,2.3785-1.3454,3.5004H2.8675
			c-0.5346-1.1219-0.9889-2.2917-1.3481-3.5004H48.4779z"/>
		<path id="XMLID_9245_" class="st0" d="M37.6073,45.9996C33.9232,48.2212,29.6093,49.5,25.0018,49.5
			c-4.6084,0-8.925-1.2788-12.6092-3.5004H37.6073z"/>
		<path id="XMLID_9244_" class="st2" d="M42.1262,42.4992c-1.3619,1.3379-2.8781,2.5143-4.5188,3.5004H12.3927
			c-1.6408-0.9861-3.1568-2.1625-4.5188-3.5004H42.1262z"/>
		<path id="XMLID_9243_" class="st0" d="M45.0947,38.9997c-0.879,1.2594-1.8735,2.4321-2.9685,3.4995H7.8738
			c-1.0951-1.0674-2.0895-2.24-2.9676-3.4995H45.0947z"/>
		<path id="XMLID_9242_" class="st2" d="M47.1325,35.5021c-0.5844,1.2244-1.265,2.3942-2.0378,3.4976H4.9062
			c-0.7738-1.1034-1.457-2.2733-2.0387-3.4976H47.1325z"/>
		<path id="XMLID_9241_" class="st2" d="M37.6073,4.0004H12.3927C16.0768,1.7788,20.3934,0.5,25.0018,0.5
			c3.2105,0,6.2806,0.6223,9.0922,1.7516C35.3184,2.741,36.491,3.3273,37.6073,4.0004z"/>
		<path id="XMLID_9240_" class="st0" d="M42.1262,7.5008H7.8738c1.362-1.3352,2.8781-2.5115,4.5188-3.5004h25.2147
			C39.2481,4.9893,40.7642,6.1656,42.1262,7.5008z"/>
		<path id="XMLID_9239_" class="st0" d="M47.1325,14.5007H2.8675c0.5817-1.2271,1.265-2.397,2.0387-3.4995h40.1885
			C45.8676,12.1037,46.5482,13.2735,47.1325,14.5007z"/>
		<path id="XMLID_9238_" class="st2" d="M48.4779,18.0011H1.5194c0.3592-1.2077,0.8135-2.3785,1.3481-3.5004h44.2651
			C47.6672,15.6225,48.1187,16.7933,48.4779,18.0011z"/>
		<path id="XMLID_9237_" class="st0" d="M49.2489,21.5015H0.7511c0.1708-1.1976,0.4275-2.3647,0.7682-3.5004h46.9586
			C48.8186,19.1368,49.0781,20.3039,49.2489,21.5015z"/>
		<path id="XMLID_9236_" class="st2" d="M49.5,25.0018h-49c0-1.1893,0.0841-2.3573,0.2511-3.5004h48.4977
			C49.416,22.6446,49.5,23.8126,49.5,25.0018z"/>
	</g>
	<g id="XMLID_9230_">
		<path id="XMLID_9234_" class="st3" d="M34.094,2.2516v26.2497H0.7511C0.5841,27.3582,0.5,26.1911,0.5,25.0018
			s0.0841-2.3573,0.2511-3.5004c0.1708-1.1976,0.4275-2.3647,0.7682-3.5004c0.3592-1.2077,0.8135-2.3785,1.3481-3.5004
			c0.5817-1.2271,1.265-2.397,2.0387-3.4995c0.8781-1.2604,1.8725-2.433,2.9676-3.5004c1.362-1.3352,2.8781-2.5115,4.5188-3.5004
			C16.0768,1.7788,20.3934,0.5,25.0018,0.5C28.2123,0.5,31.2824,1.1223,34.094,2.2516z"/>
		<g id="XMLID_9231_">
			<path id="XMLID_9233_" class="st4" d="M18.497,22.1746c-4.2381,0-7.674-3.4348-7.674-7.673s3.4358-7.6739,7.674-7.6739
				c0.9565,0,1.8725,0.1754,2.7173,0.4949c-1.3906-0.9455-3.0692-1.4995-4.8771-1.4995c-4.793,0-8.6776,3.8854-8.6776,8.6785
				c0,4.7922,3.8846,8.6776,8.6776,8.6776c1.8079,0,3.4865-0.554,4.8771-1.4995C20.3694,21.9991,19.4535,22.1746,18.497,22.1746z"/>
			<polygon id="XMLID_9232_" class="st4" points="25.0046,7.281 25.7701,11.1489 28.1375,7.9957 27.1487,11.8128 30.6499,9.9994 
				28.1024,13.0095 32.0442,12.894 28.4431,14.5016 32.0442,16.1082 28.1024,15.9928 30.6499,19.0029 27.1487,17.1894 
				28.1375,21.0065 25.7701,17.8533 25.0046,21.7212 24.2392,17.8533 21.8717,21.0065 22.8606,17.1894 19.3593,19.0029 
				21.9068,15.9928 17.965,16.1082 21.5661,14.5016 17.965,12.894 21.9068,13.0095 19.3593,9.9994 22.8606,11.8128 21.8717,7.9957 
				24.2392,11.1489 			"/>
		</g>
	</g>
</g>
</svg>
