<?xml version="1.0" encoding="utf-8"?>
<!-- Generator: Adobe Illustrator 27.6.1, SVG Export Plug-In . SVG Version: 6.00 Build 0)  -->
<!DOCTYPE svg PUBLIC "-//W3C//DTD SVG 1.1//EN" "http://www.w3.org/Graphics/SVG/1.1/DTD/svg11.dtd" [
	<!ENTITY ns_extend "http://ns.adobe.com/Extensibility/1.0/">
	<!ENTITY ns_ai "http://ns.adobe.com/AdobeIllustrator/10.0/">
	<!ENTITY ns_graphs "http://ns.adobe.com/Graphs/1.0/">
	<!ENTITY ns_vars "http://ns.adobe.com/Variables/1.0/">
	<!ENTITY ns_imrep "http://ns.adobe.com/ImageReplacement/1.0/">
	<!ENTITY ns_sfw "http://ns.adobe.com/SaveForWeb/1.0/">
	<!ENTITY ns_custom "http://ns.adobe.com/GenericCustomNamespace/1.0/">
	<!ENTITY ns_adobe_xpath "http://ns.adobe.com/XPath/1.0/">
]>
<svg version="1.1" id="Layer_1" xmlns:x="&ns_extend;" xmlns:i="&ns_ai;" xmlns:graph="&ns_graphs;"
	 xmlns="http://www.w3.org/2000/svg" xmlns:xlink="http://www.w3.org/1999/xlink" x="0px" y="0px" viewBox="0 0 50 50"
	 style="enable-background:new 0 0 50 50;" xml:space="preserve">
<style type="text/css">
	.st0{fill:#FFFFFF;}
	.st1{fill:#D1D3D4;}
	.st2{fill:none;}
	.st3{fill:#00401C;}
</style>
<metadata>
	<sfw  xmlns="&ns_sfw;">
		<slices></slices>
		<sliceSourceBounds  bottomLeftOrigin="true" height="50" width="50" x="0" y="0"></sliceSourceBounds>
	</sfw>
</metadata>
<g id="Layer_2_00000123403691739621316350000017975105315266775208_">
	<g id="Layer_2_00000009549042599903514300000009786033506733176249_">
		<g>
			<circle class="st0" cx="24.9998" cy="25.0002" r="24.7525"/>
			<path class="st1" d="M25,50C11.215,50,0,38.785,0,25S11.215,0,25,0s25,11.215,25,25S38.785,50,25,50z M25,0.495
				C11.4881,0.495,0.495,11.4881,0.495,25S11.4881,49.505,25,49.505S49.505,38.5119,49.505,25S38.5119,0.495,25,0.495z"/>
		</g>
	</g>
</g>
<circle class="st2" cx="25" cy="25" r="24.7525"/>
<g id="XMLID_10100_">
	<g id="XMLID_10104_">
		<path id="XMLID_10106_" class="st0" d="M0.5,24.9836c0,9.2041,5.1025,17.2382,12.627,21.4247V3.5598
			C5.6025,7.7454,0.5,15.7795,0.5,24.9836z"/>
		<path id="XMLID_10105_" class="st3" d="M25.0005,0.4841c-4.3056,0-8.3536,1.1173-11.8735,3.0757v42.8486
			c3.5199,1.9575,7.5679,3.0757,11.8735,3.0757c13.5088,0,24.4995-10.9908,24.4995-24.5005S38.5092,0.4841,25.0005,0.4841z"/>
	</g>
	<g id="XMLID_10101_">
		<path id="XMLID_10103_" class="st0" d="M35.0189,33.2662c-6.3083,0-11.422-5.1145-11.422-11.4229
			c0-3.6787,1.7387-6.9501,4.4396-9.0388c-5.025,1.6113-8.6621,6.3213-8.6621,11.8818c0,6.891,5.5854,12.4774,12.4765,12.4774
			c5.0849,0,9.458-3.0416,11.4027-7.4044C41.175,31.9208,38.2544,33.2662,35.0189,33.2662z"/>
		<polygon id="XMLID_10102_" class="st0" points="41.7031,21.2403 38.7161,20.5976 37.1824,23.2394 36.8703,20.2006 
			33.8832,19.5579 36.6773,18.3216 36.3653,15.2828 38.404,17.5579 41.1981,16.3225 39.6644,18.9642 		"/>
	</g>
</g>
</svg>
