<?xml version="1.0" encoding="utf-8"?>
<!-- Generator: Adobe Illustrator 27.6.1, SVG Export Plug-In . SVG Version: 6.00 Build 0)  -->
<svg version="1.1" id="Layer_1" xmlns="http://www.w3.org/2000/svg" xmlns:xlink="http://www.w3.org/1999/xlink" x="0px" y="0px"
	 viewBox="0 0 50 50" style="enable-background:new 0 0 50 50;" xml:space="preserve">
<style type="text/css">
	.st0{fill:#FFFFFF;}
	.st1{fill:#D1D3D4;}
	.st2{fill:#1F429B;}
	.st3{fill:#CD2027;}
	.st4{fill:#FBD024;}
</style>
<g>
	<circle class="st0" cx="25" cy="25" r="24.8"/>
	<path class="st1" d="M25,50C11.2,50,0,38.8,0,25S11.2,0,25,0s25,11.2,25,25S38.8,50,25,50z M25,0.5C11.5,0.5,0.5,11.5,0.5,25
		s11,24.5,24.5,24.5s24.5-11,24.5-24.5S38.5,0.5,25,0.5z"/>
</g>
<g id="XMLID_11464_">
	<g id="XMLID_11474_">
		<path id="XMLID_11476_" class="st2" d="M49.5,25h-49c0-6,2.2-11.5,5.8-15.8C10.8,3.9,17.5,0.5,25,0.5C38.5,0.5,49.5,11.5,49.5,25z
			"/>
		<path id="XMLID_11475_" class="st3" d="M49.5,25c0,13.5-11,24.5-24.5,24.5c-7.5,0-14.2-3.4-18.7-8.7C2.7,36.5,0.5,31,0.5,25H49.5z
			"/>
	</g>
	<g id="XMLID_11465_">
		<path id="XMLID_11473_" class="st0" d="M33.6,25L6.3,40.8C2.7,36.5,0.5,31,0.5,25S2.7,13.5,6.3,9.2L33.6,25z"/>
		<g id="XMLID_11466_">
			<path id="XMLID_11472_" class="st4" d="M21.8,25.4l0.4-0.4l-0.4-0.4l-3.3,0.2c0-0.1,0-0.1,0-0.2l3-0.4l-0.4-0.4l-2.7,0.6
				c-0.1-0.4-0.3-0.9-0.5-1.2l2.3-1.5l0-0.5L17.8,23c0-0.1-0.1-0.1-0.1-0.2l2.5-2.2l0-0.6l-0.6,0l-2.2,2.5c-0.1,0-0.1-0.1-0.2-0.1
				L19,20l-0.5,0L17,22.2c-0.4-0.2-0.8-0.4-1.2-0.5l0.6-2.7L16,18.7l-0.4,3c-0.1,0-0.1,0-0.2,0l0.2-3.3l-0.4-0.4l-0.4,0.4l0.2,3.3
				c-0.1,0-0.1,0-0.2,0l-0.4-3l-0.4,0.4l0.6,2.7c-0.4,0.1-0.9,0.3-1.2,0.5L11.8,20l-0.5,0l1.8,2.4c-0.1,0-0.1,0.1-0.2,0.1L10.7,20
				l-0.6,0l0,0.6l2.5,2.2c0,0.1-0.1,0.1-0.1,0.2l-2.4-1.8l0,0.5l2.3,1.5c-0.2,0.4-0.4,0.8-0.5,1.2l-2.7-0.6l-0.4,0.4l3,0.4
				c0,0.1,0,0.1,0,0.2l-3.3-0.2L8.1,25l0.4,0.4l3.3-0.2c0,0.1,0,0.1,0,0.2l-3,0.4l0.4,0.4l2.7-0.6c0.1,0.4,0.3,0.9,0.5,1.2l-2.3,1.5
				l0,0.5l2.4-1.8c0,0.1,0.1,0.1,0.1,0.2l-2.5,2.2l0,0.6l0.6,0l2.2-2.5c0.1,0,0.1,0.1,0.2,0.1L11.3,30l0.5,0l1.5-2.3
				c0.4,0.2,0.8,0.4,1.2,0.5l-0.6,2.7l0.4,0.4l0.4-3c0.1,0,0.1,0,0.2,0l-0.2,3.3l0.4,0.4l0.4-0.4l-0.2-3.3c0.1,0,0.1,0,0.2,0l0.4,3
				l0.4-0.4l-0.6-2.7c0.4-0.1,0.9-0.3,1.2-0.5l1.5,2.3l0.5,0l-1.8-2.4c0.1,0,0.1-0.1,0.2-0.1l2.2,2.5l0.6,0l0-0.6l-2.5-2.2
				c0-0.1,0.1-0.1,0.1-0.2l2.4,1.8l0-0.5l-2.3-1.5c0.2-0.4,0.4-0.8,0.5-1.2l2.7,0.6l0.4-0.4l-3-0.4c0-0.1,0-0.1,0-0.2L21.8,25.4z"/>
			<g id="XMLID_11467_">
				<polygon id="XMLID_11471_" class="st4" points="29,23.3 29,24.6 30.3,25 29,25.4 29,26.7 28.2,25.7 27,26.1 27.7,25 27,23.9 
					28.2,24.3 				"/>
				<g id="XMLID_11468_">
					<polygon id="XMLID_11470_" class="st4" points="9,36.4 8,37.3 8.6,38.6 7.4,37.9 6.4,38.8 6.7,37.5 5.5,36.8 6.9,36.7 
						7.2,35.4 7.7,36.6 					"/>
					<polygon id="XMLID_11469_" class="st4" points="6.4,11.2 7.4,12.1 8.6,11.4 8,12.7 9,13.6 7.7,13.4 7.2,14.6 6.9,13.3 
						5.5,13.2 6.7,12.5 					"/>
				</g>
			</g>
		</g>
	</g>
</g>
</svg>
