<?xml version="1.0" encoding="utf-8"?>
<!-- Generator: Adobe Illustrator 27.6.1, SVG Export Plug-In . SVG Version: 6.00 Build 0)  -->
<!DOCTYPE svg PUBLIC "-//W3C//DTD SVG 1.1//EN" "http://www.w3.org/Graphics/SVG/1.1/DTD/svg11.dtd" [
	<!ENTITY ns_extend "http://ns.adobe.com/Extensibility/1.0/">
	<!ENTITY ns_ai "http://ns.adobe.com/AdobeIllustrator/10.0/">
	<!ENTITY ns_graphs "http://ns.adobe.com/Graphs/1.0/">
	<!ENTITY ns_vars "http://ns.adobe.com/Variables/1.0/">
	<!ENTITY ns_imrep "http://ns.adobe.com/ImageReplacement/1.0/">
	<!ENTITY ns_sfw "http://ns.adobe.com/SaveForWeb/1.0/">
	<!ENTITY ns_custom "http://ns.adobe.com/GenericCustomNamespace/1.0/">
	<!ENTITY ns_adobe_xpath "http://ns.adobe.com/XPath/1.0/">
]>
<svg version="1.1" id="Layer_1" xmlns:x="&ns_extend;" xmlns:i="&ns_ai;" xmlns:graph="&ns_graphs;"
	 xmlns="http://www.w3.org/2000/svg" xmlns:xlink="http://www.w3.org/1999/xlink" x="0px" y="0px" viewBox="0 0 50 50"
	 style="enable-background:new 0 0 50 50;" xml:space="preserve">
<style type="text/css">
	.st0{fill:#FFFFFF;}
	.st1{fill:#D1D3D4;}
	.st2{fill:#ED1C24;}
	.st3{fill:#0F4EA0;}
</style>
<metadata>
	<sfw  xmlns="&ns_sfw;">
		<slices></slices>
		<sliceSourceBounds  bottomLeftOrigin="true" height="50" width="50" x="0" y="0"></sliceSourceBounds>
	</sfw>
</metadata>
<g id="Layer_2_00000123403691739621316350000017975105315266775208_">
	<g id="Layer_2_00000009549042599903514300000009786033506733176249_">
		<g>
			<circle class="st0" cx="24.9998" cy="25.0002" r="24.7525"/>
			<path class="st1" d="M25,50C11.215,50,0,38.785,0,25S11.215,0,25,0s25,11.215,25,25S38.785,50,25,50z M25,0.495
				C11.4881,0.495,0.495,11.4881,0.495,25S11.4881,49.505,25,49.505S49.505,38.5119,49.505,25S38.5119,0.495,25,0.495z"/>
		</g>
	</g>
</g>
<g id="XMLID_10626_">
	<g id="XMLID_10635_">
		<path id="XMLID_10638_" class="st0" d="M48.0967,16.8316H1.9033c3.3692-9.5051,12.4503-16.333,23.0963-16.333
			C35.6465,0.4986,44.7294,7.3265,48.0967,16.8316z"/>
		<path id="XMLID_10637_" class="st2" d="M48.0967,33.1684c-3.3701,9.5079-12.4502,16.333-23.0972,16.333
			c-10.6433,0-19.727-6.8251-23.0963-16.333H48.0967z"/>
		<path id="XMLID_10636_" class="st3" d="M49.5,24.9991c0,2.8638-0.4952,5.614-1.4033,8.1693H1.9033
			C0.9942,30.6131,0.5,27.8629,0.5,24.9991c0-2.8611,0.4915-5.6112,1.4033-8.1674h46.1935C49.0076,19.3878,49.5,22.138,49.5,24.9991
			z"/>
	</g>
	<g id="XMLID_10627_">
		<path id="XMLID_10631_" class="st0" d="M29.8542,20.756c-0.0194-0.3972-0.0379-0.7705-0.049-1.1307l-0.0868-2.7936l-0.1561-5.032
			H8.9233l-0.157,5.032l-0.0859,2.7936c-0.0111,0.3603-0.0277,0.7335-0.049,1.1307c-0.1681,3.4689-0.3898,8.1637,3.4689,12.4124
			c0.1977,0.2189,0.4065,0.4351,0.6254,0.6485l0.0212,0.0249l0.473,0.4028c1.5391,1.3118,3.2269,2.461,5.0163,3.4181l1.006,0.5377
			l1.0088-0.5377c1.7876-0.9571,3.4754-2.1063,5.0135-3.4181l0.4739-0.4028l0.0241-0.0249
			c0.2189-0.2134,0.4267-0.4296,0.6244-0.6485C30.2459,28.9197,30.0215,24.2249,29.8542,20.756z M27.1308,30.6639
			c-0.522,0.8462-1.1788,1.6823-2.0121,2.4989l-0.0055,0.0055l-0.4434,0.376c-1.4901,1.2702-3.1179,2.3825-4.8537,3.31
			l-0.5737,0.3049l-0.5728-0.3049c-1.734-0.9275-3.3618-2.0398-4.8546-3.31l-0.4434-0.376l-0.0055-0.0055
			c-0.8296-0.8167-1.4892-1.6527-2.0093-2.4989c-2.4121-3.9179-1.8522-8.0233-1.7571-11.0091l0.0859-2.8232L9.813,12.716h18.8597
			l0.1265,4.1156l0.0896,2.8232C28.9803,22.6406,29.5401,26.746,27.1308,30.6639z"/>
		<path id="XMLID_10630_" class="st2" d="M28.8879,19.6539c0.0933,2.9858,0.6532,7.0921-1.7579,11.01
			c-2.1655-3.2943-4.0362-1.2878-4.7623-0.5617c-0.8314-1.6-1.6527-2.2707-2.2449-2.547v-3.9096
			c1.7109,0.0443,3.4172,0.2273,5.0995,0.5469v-2.9128c-1.6823,0.3215-3.3885,0.5044-5.0995,0.5487v-2.1432
			c0-0.1691,0.0009-0.339,0.0037-0.509c1.3498,0.0554,2.692,0.2346,4.0084,0.5404v-2.9119
			c-1.2943,0.3012-2.6144,0.4795-3.941,0.5377c0.0721-1.213,0.2023-2.4213,0.388-3.6213h-2.6772
			c0.1857,1.2,0.315,2.4084,0.3889,3.6213c-1.3266-0.0573-2.6477-0.2365-3.9419-0.5377v2.9119
			c1.3164-0.3058,2.6587-0.485,4.0084-0.5404c0.0028,0.17,0.0037,0.34,0.0037,0.509v2.1432
			c-1.7109-0.0443-3.4181-0.2273-5.1003-0.5487v2.9128c1.6822-0.3196,3.3894-0.5026,5.1003-0.5469v3.9096
			c-0.5921,0.2762-1.4143,0.9469-2.2449,2.547c-0.7261-0.7261-2.5968-2.7326-4.7623,0.5617
			c-2.4112-3.9179-1.8513-8.0242-1.758-11.01l0.2152-6.9369h9.4284h9.4304L28.8879,19.6539z"/>
		<path id="XMLID_10629_" class="st0" d="M25.2222,21.2798v2.9128c-1.6823-0.3196-3.3885-0.5026-5.0995-0.5469v3.9096
			c-0.3455-0.1607-0.6116-0.1885-0.7575-0.1875c-0.0813,0-0.1626,0-0.243,0c-0.146-0.0009-0.412,0.0268-0.7575,0.1875h-0.0009
			v-3.9096c-1.7109,0.0443-3.4181,0.2273-5.1003,0.5469v-2.9128c1.6822,0.3215,3.3894,0.5044,5.1003,0.5487v-2.1432
			c0-0.1691-0.0008-0.339-0.0037-0.509c-1.3497,0.0554-2.692,0.2346-4.0084,0.5404v-2.9119
			c1.2943,0.3012,2.6153,0.4804,3.9419,0.5377c-0.0739-1.213-0.2032-2.4213-0.3889-3.6213h2.6772
			c-0.1857,1.2-0.3159,2.4084-0.388,3.6213c1.3266-0.0582,2.6467-0.2365,3.941-0.5377v2.9119
			c-1.3164-0.3058-2.6587-0.485-4.0084-0.5404c-0.0028,0.17-0.0037,0.34-0.0037,0.509v2.1432
			C21.8336,21.7842,23.5399,21.6013,25.2222,21.2798z"/>
		<path id="XMLID_10628_" class="st3" d="M22.3676,30.1022c-0.8314-1.6-1.6527-2.2707-2.2449-2.547
			c-0.3455-0.1607-0.6116-0.1885-0.7575-0.1875c-0.0813,0-0.1626,0-0.243,0c-0.146-0.0009-0.412,0.0268-0.7575,0.1875h-0.0009
			c-0.5921,0.2762-1.4143,0.9469-2.2449,2.547c-0.7261-0.7261-2.5968-2.7326-4.7623,0.5617
			c0.5201,0.8471,1.1788,1.6832,2.0102,2.4989l0.449,0.3825c1.492,1.2702,3.1188,2.3797,4.8537,3.3082l0.5728,0.3067l0.5737-0.3067
			c1.7358-0.9284,3.3627-2.0379,4.8537-3.3082l0.4499-0.3825c0.8314-0.8157,1.4901-1.6518,2.0103-2.4989
			C24.9644,27.3696,23.0937,29.3761,22.3676,30.1022z"/>
	</g>
</g>
</svg>
