<?xml version="1.0" encoding="utf-8"?>
<!-- Generator: Adobe Illustrator 27.6.1, SVG Export Plug-In . SVG Version: 6.00 Build 0)  -->
<svg version="1.1" xmlns="http://www.w3.org/2000/svg" xmlns:xlink="http://www.w3.org/1999/xlink" x="0px" y="0px"
	 viewBox="0 0 50 50" style="enable-background:new 0 0 50 50;" xml:space="preserve">
<style type="text/css">
	.st0{fill:#FFFFFF;}
	.st1{fill:#D1D3D4;}
	.st2{fill:#B12233;}
	.st3{fill:#3C3B6D;}
</style>
<g id="Layer_2">
	<g id="Layer_2_00000009549042599903514300000009786033506733176249_">
		<g>
			<circle class="st0" cx="24.9998" cy="25.0002" r="24.7525"/>
			<path class="st1" d="M25,50C11.215,50,0,38.785,0,25S11.215,0,25,0s25,11.215,25,25S38.785,50,25,50z M25,0.495
				C11.4881,0.495,0.495,11.4881,0.495,25S11.4881,49.505,25,49.505S49.505,38.5119,49.505,25S38.5119,0.495,25,0.495z"/>
		</g>
	</g>
</g>
<g id="Layer_1">
	<g id="XMLID_12414_">
		<g id="XMLID_12456_">
			<path id="XMLID_12469_" class="st0" d="M47.6136,34.4234c-0.5485,1.3195-1.2133,2.5789-1.976,3.7682H4.3624
				c-0.7627-1.1893-1.4247-2.4488-1.976-3.7682H47.6136z"/>
			<path id="XMLID_12468_" class="st2" d="M48.8407,30.6533c-0.3056,1.3001-0.7193,2.5596-1.2271,3.7701H2.3864
				c-0.5087-1.2105-0.9197-2.47-1.2271-3.7701H48.8407z"/>
			<path id="XMLID_12467_" class="st0" d="M49.4298,26.8823c-0.0997,1.2872-0.2973,2.5466-0.5891,3.771H1.1593
				c-0.2918-1.2244-0.4894-2.4838-0.5891-3.771H49.4298z"/>
			<path id="XMLID_12466_" class="st2" d="M45.6376,38.1916c-0.867,1.3536-1.8652,2.6159-2.976,3.7701H7.3375
				c-1.108-1.1542-2.1053-2.4164-2.9751-3.7701H45.6376z"/>
			<path id="XMLID_12465_" class="st2" d="M38.0458,45.7299C34.2664,48.1168,29.7936,49.5,25.0014,49.5
				s-9.2659-1.3832-13.0443-3.7701H38.0458z"/>
			<path id="XMLID_12464_" class="st0" d="M42.6616,41.9617c-1.3758,1.4358-2.9271,2.7036-4.6158,3.7682H11.9571
				c-1.6888-1.0646-3.241-2.3324-4.6196-3.7682H42.6616z"/>
			<path id="XMLID_12463_" class="st0" d="M42.6616,8.0383H7.3375c1.3786-1.4358,2.9307-2.7036,4.6223-3.771h26.0803
				C39.7318,5.3329,41.283,6.6025,42.6616,8.0383z"/>
			<path id="XMLID_12462_" class="st2" d="M38.0402,4.2673H11.9598c0.7784-0.4922,1.5863-0.9409,2.422-1.3463
				c0.0757-0.0351,0.1542-0.0729,0.2327-0.108c0.2835-0.1348,0.5697-0.2622,0.8587-0.386c0.1274-0.0545,0.2567-0.1053,0.3869-0.157
				C18.6847,1.1297,21.7687,0.5,24.9958,0.5c0.0028,0,0.0028,0,0.0055,0C29.7909,0.5,34.2618,1.8804,38.0402,4.2673z"/>
			<path id="XMLID_12461_" class="st2" d="M45.6376,11.8056H4.3624c0.2188-0.338,0.4432-0.6704,0.6777-0.9972
				c0.0194-0.0268,0.0379-0.0536,0.0601-0.0813c0.6804-0.9483,1.4293-1.8486,2.2372-2.6888h35.3241
				C43.7724,9.1925,44.7705,10.4548,45.6376,11.8056z"/>
			<path id="XMLID_12460_" class="st2" d="M48.8407,19.344H1.1593c0.3075-1.2973,0.7184-2.5568,1.2271-3.7673h45.2299
				C48.1214,16.7872,48.5352,18.0466,48.8407,19.344z"/>
			<path id="XMLID_12459_" class="st0" d="M47.6163,15.5766H2.3864c0.0997-0.2438,0.205-0.4866,0.3158-0.7276
				c0.2651-0.578,0.5513-1.1459,0.8596-1.6999c0.2539-0.4571,0.5217-0.9058,0.8006-1.3435h41.2752
				C46.4003,12.9977,47.0651,14.2572,47.6163,15.5766z"/>
			<path id="XMLID_12458_" class="st0" d="M49.4298,23.115H0.5702c0.0129-0.157,0.0268-0.3139,0.0425-0.4681
				c0.0433-0.4589,0.1006-0.916,0.1707-1.3703c0.097-0.651,0.2244-1.2973,0.3758-1.9326h47.6814
				C49.1325,20.5683,49.3301,21.8278,49.4298,23.115z"/>
			<path id="XMLID_12457_" class="st2" d="M49.5,24.9986c0,0.6353-0.024,1.2622-0.0702,1.8837H0.5702
				C0.524,26.2608,0.5,25.6339,0.5,24.9986s0.024-1.2622,0.0702-1.8837h48.8596C49.476,23.7364,49.5,24.3633,49.5,24.9986z"/>
		</g>
		<g id="XMLID_12415_">
			<path id="XMLID_12455_" class="st3" d="M24.9958,0.5v26.3823H0.5702C0.524,26.2608,0.5,25.6339,0.5,24.9986
				s0.024-1.2622,0.0702-1.8837c0.0129-0.157,0.0268-0.3139,0.0425-0.4681c0.0433-0.4589,0.1006-0.916,0.1707-1.3703
				c0.097-0.651,0.2244-1.2973,0.3758-1.9326c0.3075-1.2973,0.7184-2.5568,1.2271-3.7673c0.0997-0.2438,0.205-0.4866,0.3158-0.7276
				c0.2651-0.578,0.5513-1.1459,0.8596-1.6999c0.2539-0.4571,0.5217-0.9058,0.8006-1.3435c0.2188-0.338,0.4432-0.6704,0.6777-0.9972
				c0.0194-0.0268,0.0379-0.0536,0.0601-0.0813c0.6804-0.9483,1.4293-1.8486,2.2372-2.6888
				c1.3786-1.4358,2.9307-2.7036,4.6223-3.771c0.7784-0.4922,1.5863-0.9409,2.422-1.3463c0.0757-0.0351,0.1542-0.0729,0.2327-0.108
				c0.2835-0.1348,0.5697-0.2622,0.8587-0.386c0.1274-0.0545,0.2567-0.1053,0.3869-0.157C18.6847,1.1297,21.7687,0.5,24.9958,0.5z"
				/>
			<g id="XMLID_12416_">
				<g id="XMLID_12452_">
					<polygon id="XMLID_12454_" class="st0" points="21.897,1.7539 22.2415,2.8139 23.356,2.8139 22.4548,3.4695 22.7992,4.5295 
						21.897,3.874 20.9949,4.5295 21.3393,3.4695 20.4373,2.8139 21.5526,2.8139 					"/>
					<path id="XMLID_12453_" class="st0" d="M16.5111,4.2673l0.084,0.2622L16.236,4.2673L15.6921,3.873l-0.5402,0.3943
						l-0.3592,0.2622l0.0831-0.2622l0.2595-0.7969l-0.7535-0.5494c0.0757-0.0351,0.1542-0.0729,0.2327-0.108h0.7351l0.1237-0.386
						c0.1274-0.0545,0.2567-0.1053,0.3869-0.157l0.1782,0.5429h1.1136l-0.9003,0.6574L16.5111,4.2673z"/>
				</g>
				<g id="XMLID_12448_">
					<polygon id="XMLID_12451_" class="st0" points="21.897,7.0282 22.2415,8.0891 23.356,8.0891 22.4548,8.7438 22.7992,9.8047 
						21.897,9.1491 20.9949,9.8047 21.3393,8.7438 20.4373,8.0891 21.5526,8.0891 					"/>
					<polygon id="XMLID_12450_" class="st0" points="15.6939,7.0282 16.0383,8.0891 17.1528,8.0891 16.2516,8.7438 16.5961,9.8047 
						15.6939,9.1491 14.7918,9.8047 15.1362,8.7438 14.2341,8.0891 15.3496,8.0891 					"/>
					<polygon id="XMLID_12449_" class="st0" points="9.4908,7.0282 9.8352,8.0891 10.9497,8.0891 10.0476,8.7438 10.3929,9.8047 
						9.4908,9.1491 8.5886,9.8047 8.9331,8.7438 8.0309,8.0891 9.1464,8.0891 					"/>
				</g>
				<g id="XMLID_12443_">
					<polygon id="XMLID_12447_" class="st0" points="21.897,12.3033 22.2415,13.3643 23.356,13.3643 22.4548,14.0189 
						22.7992,15.0799 21.897,14.4243 20.9949,15.0799 21.3393,14.0189 20.4373,13.3643 21.5526,13.3643 					"/>
					<polygon id="XMLID_12446_" class="st0" points="15.6939,12.3033 16.0383,13.3643 17.1528,13.3643 16.2516,14.0189 
						16.5961,15.0799 15.6939,14.4243 14.7918,15.0799 15.1362,14.0189 14.2341,13.3643 15.3496,13.3643 					"/>
					<polygon id="XMLID_12445_" class="st0" points="9.4908,12.3033 9.8352,13.3643 10.9497,13.3643 10.0476,14.0189 
						10.3929,15.0799 9.4908,14.4243 8.5886,15.0799 8.9331,14.0189 8.0309,13.3643 9.1464,13.3643 					"/>
					<path id="XMLID_12444_" class="st0" d="M3.8453,14.0199l0.3435,1.0591l-0.903-0.6537L2.7022,14.849
						c0.2651-0.578,0.5513-1.1459,0.8596-1.6999l0.0702,0.2133h1.1135L3.8453,14.0199z"/>
				</g>
				<g id="XMLID_12438_">
					<polygon id="XMLID_12442_" class="st0" points="21.897,17.5785 22.2415,18.6385 23.356,18.6385 22.4548,19.2941 
						22.7992,20.3541 21.897,19.6994 20.9949,20.3541 21.3393,19.2941 20.4373,18.6385 21.5526,18.6385 					"/>
					<polygon id="XMLID_12441_" class="st0" points="15.6939,17.5785 16.0383,18.6385 17.1528,18.6385 16.2516,19.2941 
						16.5961,20.3541 15.6939,19.6994 14.7918,20.3541 15.1362,19.2941 14.2341,18.6385 15.3496,18.6385 					"/>
					<polygon id="XMLID_12440_" class="st0" points="9.4908,17.5785 9.8352,18.6385 10.9497,18.6385 10.0476,19.2941 
						10.3929,20.3541 9.4908,19.6994 8.5886,20.3541 8.9331,19.2941 8.0309,18.6385 9.1464,18.6385 					"/>
					<polygon id="XMLID_12439_" class="st0" points="3.2876,17.5785 3.6321,18.6385 4.7465,18.6385 3.8445,19.2941 4.1898,20.3541 
						3.2876,19.6994 2.3856,20.3541 2.7299,19.2941 1.8278,18.6385 2.9432,18.6385 					"/>
				</g>
				<g id="XMLID_12433_">
					<polygon id="XMLID_12437_" class="st0" points="21.897,22.8536 22.2415,23.9137 23.356,23.9137 22.4548,24.5693 
						22.7992,25.6293 21.897,24.9746 20.9949,25.6293 21.3393,24.5693 20.4373,23.9137 21.5526,23.9137 					"/>
					<polygon id="XMLID_12436_" class="st0" points="15.6939,22.8536 16.0383,23.9137 17.1528,23.9137 16.2516,24.5693 
						16.5961,25.6293 15.6939,24.9746 14.7918,25.6293 15.1362,24.5693 14.2341,23.9137 15.3496,23.9137 					"/>
					<polygon id="XMLID_12435_" class="st0" points="9.4908,22.8536 9.8352,23.9137 10.9497,23.9137 10.0476,24.5693 
						10.3929,25.6293 9.4908,24.9746 8.5886,25.6293 8.9331,24.5693 8.0309,23.9137 9.1464,23.9137 					"/>
					<polygon id="XMLID_12434_" class="st0" points="3.2876,22.8536 3.6321,23.9137 4.7465,23.9137 3.8445,24.5693 4.1898,25.6293 
						3.2876,24.9746 2.3856,25.6293 2.7299,24.5693 1.8278,23.9137 2.9432,23.9137 					"/>
				</g>
				<g id="XMLID_12428_">
					<polygon id="XMLID_12432_" class="st0" points="18.7955,20.2156 19.1399,21.2765 20.2544,21.2765 19.3532,21.9312 
						19.6976,22.9922 18.7955,22.3366 17.8934,22.9922 18.2378,21.9312 17.3356,21.2765 18.4511,21.2765 					"/>
					<polygon id="XMLID_12431_" class="st0" points="12.5923,20.2156 12.9367,21.2765 14.0512,21.2765 13.15,21.9312 
						13.4945,22.9922 12.5923,22.3366 11.6902,22.9922 12.0347,21.9312 11.1325,21.2765 12.2479,21.2765 					"/>
					<polygon id="XMLID_12430_" class="st0" points="6.3892,20.2156 6.7336,21.2765 7.8481,21.2765 6.946,21.9312 7.2913,22.9922 
						6.3892,22.3366 5.4871,22.9922 5.8315,21.9312 4.9294,21.2765 6.0448,21.2765 					"/>
					<path id="XMLID_12429_" class="st0" d="M0.7428,21.9312l0.3463,1.0619l-0.4764-0.3463
						c0.0433-0.4589,0.1006-0.916,0.1707-1.3703h0.8624L0.7428,21.9312z"/>
				</g>
				<g id="XMLID_12424_">
					<polygon id="XMLID_12427_" class="st0" points="18.7955,14.9414 19.1399,16.0014 20.2544,16.0014 19.3532,16.657 
						19.6976,17.717 18.7955,17.0614 17.8934,17.717 18.2378,16.657 17.3356,16.0014 18.4511,16.0014 					"/>
					<polygon id="XMLID_12426_" class="st0" points="12.5923,14.9414 12.9367,16.0014 14.0512,16.0014 13.15,16.657 13.4945,17.717 
						12.5923,17.0614 11.6902,17.717 12.0347,16.657 11.1325,16.0014 12.2479,16.0014 					"/>
					<polygon id="XMLID_12425_" class="st0" points="6.3892,14.9414 6.7336,16.0014 7.8481,16.0014 6.946,16.657 7.2913,17.717 
						6.3892,17.0614 5.4871,17.717 5.8315,16.657 4.9294,16.0014 6.0448,16.0014 					"/>
				</g>
				<g id="XMLID_12420_">
					<polygon id="XMLID_12423_" class="st0" points="18.7955,9.6662 19.1399,10.7262 20.2544,10.7262 19.3532,11.3818 
						19.6976,12.4418 18.7955,11.7862 17.8934,12.4418 18.2378,11.3818 17.3356,10.7262 18.4511,10.7262 					"/>
					<polygon id="XMLID_12422_" class="st0" points="12.5923,9.6662 12.9367,10.7262 14.0512,10.7262 13.15,11.3818 
						13.4945,12.4418 12.5923,11.7862 11.6902,12.4418 12.0347,11.3818 11.1325,10.7262 12.2479,10.7262 					"/>
					<path id="XMLID_12421_" class="st0" d="M7.0836,11.8056l0.2087,0.6353L6.416,11.8056l-0.0268-0.0185l-0.0268,0.0185
						l-0.8763,0.6353l0.2087-0.6353l0.1376-0.4238l-0.7922-0.5734c0.0194-0.0268,0.0379-0.0536,0.0601-0.0813h0.9427l0.3463-1.0619
						l0.3435,1.0619H7.849l-0.903,0.6547L7.0836,11.8056z"/>
				</g>
				<g id="XMLID_12417_">
					<polygon id="XMLID_12419_" class="st0" points="18.7955,4.391 19.1399,5.4511 20.2544,5.4511 19.3532,6.1066 19.6976,7.1667 
						18.7955,6.512 17.8934,7.1667 18.2378,6.1066 17.3356,5.4511 18.4511,5.4511 					"/>
					<polygon id="XMLID_12418_" class="st0" points="12.5923,4.391 12.9367,5.4511 14.0512,5.4511 13.15,6.1066 13.4945,7.1667 
						12.5923,6.512 11.6902,7.1667 12.0347,6.1066 11.1325,5.4511 12.2479,5.4511 					"/>
				</g>
			</g>
		</g>
	</g>
</g>
</svg>
