<?xml version="1.0" encoding="UTF-8"?><svg id="Layer_1" xmlns="http://www.w3.org/2000/svg" viewBox="0 0 798 228.8"><defs><style>.cls-1{fill:#fff;}</style></defs><g><path class="cls-1" d="M114.4,0C51.23,0,0,51.23,0,114.4s51.23,114.4,114.4,114.4,114.4-51.23,114.4-114.4S177.57,0,114.4,0Zm0,214.79c-55.41,0-100.39-44.98-100.39-100.39S58.99,14.01,114.4,14.01s100.39,44.98,100.39,100.39-44.98,100.39-100.39,100.39Z"/><path class="cls-1" d="M153.29,152.07c-3.79,3.74-8.04,6.92-12.72,9.43-7.92,4.35-18.19,6.86-30.47,6.47-11.33-.39-23.88-5.64-34.43-15.68-2.51-2.4-2.73-5.64-.61-8.04,2.12-2.34,5.52-2.57,8.04-.22,5.08,4.74,10.77,8.48,17.52,10.32,16.13,4.58,30.86,1.95,43.75-9.15,1.34-1.12,2.9-2.23,4.52-2.62,2.34-.67,4.63,.78,5.69,2.9,1.17,2.29,.67,4.74-1.28,6.58Z"/><path class="cls-1" d="M158.71,90.63c-.06,6.08-5.13,11.11-11.16,11.05-6.03-.11-10.99-5.08-10.99-11.1s5.02-11.11,11.11-11.11,11.1,5.13,11.05,11.16Z"/><path class="cls-1" d="M92.3,90.68c-.06,6.08-5.19,11.05-11.22,10.99-6.03-.11-10.99-5.08-10.99-11.1,.06-6.08,5.08-11.16,11.16-11.11,6.08,.06,11.1,5.13,11.05,11.22Z"/></g><g><path class="cls-1" d="M399,0c-63.17,0-114.4,51.23-114.4,114.4s51.23,114.4,114.4,114.4,114.4-51.23,114.4-114.4S462.17,0,399,0Zm0,214.79c-55.41,0-100.39-44.98-100.39-100.39S343.59,14.01,399,14.01s100.39,44.98,100.39,100.39-44.98,100.39-100.39,100.39Z"/><path class="cls-1" d="M431.81,153.57c-1.06,2.46-3.07,3.46-5.69,3.46-9.1-.06-18.19-.06-27.29-.06s-18.08,.06-27.12,0c-4.3,0-7.09-3.85-5.47-7.65,1-2.34,2.96-3.46,5.47-3.46h18.47c12.05,0,24.11,0,36.16,.06,4.3,0,7.09,3.85,5.47,7.65Z"/><path class="cls-1" d="M443.31,90.57c-.06,6.08-5.08,11.16-11.16,11.1-6.08-.06-11.1-5.13-10.99-11.22,.06-6.03,5.02-10.99,11.05-10.99s11.1,5.08,11.1,11.11Z"/><path class="cls-1" d="M376.9,90.63c-.06,6.08-5.13,11.11-11.16,11.05-6.03-.11-10.99-5.08-11.05-11.1,0-6.03,5.08-11.11,11.1-11.11s11.1,5.13,11.1,11.16Z"/></g><g><path class="cls-1" d="M683.6,0c-63.17,0-114.4,51.23-114.4,114.4s51.23,114.4,114.4,114.4,114.4-51.23,114.4-114.4S746.77,0,683.6,0Zm0,214.79c-55.41,0-100.39-44.98-100.39-100.39s44.98-100.39,100.39-100.39,100.39,44.98,100.39,100.39-44.98,100.39-100.39,100.39Z"/><path class="cls-1" d="M722.94,158.65c-1.95,2.23-5.13,2.46-7.65,.56-3.13-2.34-6.14-4.97-9.54-7.03-6.75-4.13-14.4-5.69-22.27-5.8-11.66,.28-21.93,3.96-30.52,11.94-1.06,.89-2.46,1.79-3.79,2.06-2.4,.56-4.69-.78-5.75-2.9-1.06-2.23-.78-4.63,1.06-6.42,4.13-4.07,8.71-7.59,13.9-10.16,14.84-7.31,30.02-8.04,45.54-2.23,7.14,2.73,13.39,6.98,18.81,12.33,2.18,2.23,2.23,5.41,.22,7.65Z"/><path class="cls-1" d="M727.91,90.63c-.06,6.08-5.13,11.11-11.16,11.05-6.03-.11-10.99-5.08-10.99-11.1s5.02-11.11,11.11-11.11,11.1,5.13,11.05,11.16Z"/><path class="cls-1" d="M661.5,90.68c-.06,6.08-5.19,11.05-11.22,10.99-6.03-.11-10.99-5.08-10.99-11.1,.06-6.08,5.08-11.16,11.16-11.11,6.08,.06,11.1,5.13,11.05,11.22Z"/></g></svg>