<?xml version="1.0" encoding="utf-8"?>
<!-- Generator: Adobe Illustrator 26.5.0, SVG Export Plug-In . SVG Version: 6.00 Build 0)  -->
<svg version="1.1" id="Layer_1" xmlns="http://www.w3.org/2000/svg" xmlns:xlink="http://www.w3.org/1999/xlink" x="0px" y="0px"
	 viewBox="0 0 551.8 255.7" style="enable-background:new 0 0 551.8 255.7;" xml:space="preserve">
<style type="text/css">
	.st0{fill:#FFFFFF;}
</style>
<g>
	<g>
		<path class="st0" d="M1.6,233.8C0.9,232,0.4,230-0.1,228c0-1.6,0-3.2,0-4.8C0,227,0.6,230.5,1.6,233.8z"/>
		<path class="st0" d="M17.7,3.5C8,8.3,0.9,18.1,0,31v-3.4c1.9-7.1,4.5-13.8,10.2-19C12.5,6.5,15,4.8,17.7,3.5z"/>
		<path class="st0" d="M109.8,239.6H34c-3.4,0-6.3-0.5-8.8-1.6c2.3,1,5.1,1.5,8.3,1.5c24.4,0.1,48.8,0,73.2,0
			C107.8,239.5,108.8,239.5,109.8,239.6z"/>
		<path class="st0" d="M387.1,252.5c-2.8,1.3-5.9,2.2-9,2.6C381.2,254.6,384.2,253.8,387.1,252.5z"/>
		<path class="st0" d="M403.7,21.8c-5.6-15-18.1-21.8-35-21.8h1.3c8.2,0,15.9,1.3,22.6,6.5C398.1,10.7,401.8,15.9,403.7,21.8z"/>
		<g>
			<path class="st0" d="M105.5,118.5c1.1,0.6,2.1,1.2,3.1,1.7c4.2,2.1,7.2,5.3,8.3,9.7c2.6,10,2.7,20.1-2.3,29.5
				c-3.9,7.4-10.7,10.7-18.7,11c-10.6,0.4-21.3,0.3-32,0.2c-6-0.1-7.7-2.1-7.7-8.1c0-26.7,0-53.5,0-80.2c0-6.3,2-8.4,8.3-8.4
				c10.6,0.1,21.3-0.3,31.9,0.7c11.1,1,17,6.3,18.9,15.9c2,10.3,0.3,21.8-9.3,27.2C105.9,117.9,105.8,118.2,105.5,118.5z
				 M73.7,125.2c0,10.3,0,20.2,0,30.5c4.3,0,8.4,0,12.5,0c11-0.1,15.1-4.2,15.1-15.3c0-1.7-0.1-3.5-0.4-5.2
				c-1.1-6.5-4.4-9.7-10.9-10C84.7,124.9,79.4,125.2,73.7,125.2z M73.6,111.3c0.7,0.1,1.2,0.2,1.8,0.2c4.6,0,9.3,0.1,13.9-0.1
				c6-0.3,9.1-4,9.6-11c0.4-5.8-3-10.6-8.5-11.1s-11.1-0.1-16.8-0.1C73.6,96.6,73.6,103.8,73.6,111.3z"/>
			<path class="st0" d="M193.9,111.9c0,11.4,0.7,22.9-0.2,34.3c-1.1,14.7-10.5,23.7-25.3,25c-9,0.8-17.9,0.4-25.9-4.6
				c-7.2-4.6-10.9-11.4-11.4-19.6c-0.6-10.9-0.6-21.8-0.7-32.7c-0.1-10.9,0-21.8,0-32.7c0-5.3,2.8-7.7,8.8-7.6
				c5.9,0.1,8.5,2.4,8.5,7.5c0,19.7-0.1,39.4,0.1,59.1c0,3.6,1,7.5,2.7,10.6c2.6,4.8,9.8,6.5,16.6,4.8c5.5-1.4,9.1-5.4,9.5-11.4
				c0.4-5.3,0.3-10.6,0.3-16c0-15.6,0-31.1,0-46.7c0-5.6,2.5-7.8,8.5-7.9c6.2,0,8.8,2.3,8.8,8c0,10,0,20,0,29.9
				C194.1,111.9,194,111.9,193.9,111.9z"/>
			<path class="st0" d="M240,115.7c6.6-12.5,12.8-24.2,19.1-35.9c3.6-6.7,11.5-7.5,16.5-1.6c1.9,2.2,1.2,4.4-0.1,6.6
				c-8.1,13.9-16.2,27.8-24,41.9c-1.6,2.9-2.5,6.4-2.6,9.7c-0.4,8.9-0.1,17.8-0.1,26.7c0,5.5-2.6,7.7-8.7,7.7c-6,0-8.6-2.3-8.6-7.8
				c0-9.4,0.1-18.9-0.1-28.3c-0.1-2.4-0.8-5-1.9-7.1c-8-14.1-16.2-28.1-24.4-42.1c-2.8-4.8-1.9-7.4,3.1-9.8
				c6.7-3.1,9.7-2.1,13.2,4.4C227.3,91.6,233.4,103.2,240,115.7z"/>
		</g>
		<path class="st0" d="M150.3,247.7c0,4.3-3.5,7.8-7.9,7.8c-4.4,0-7.9-3.4-8-7.8c-0.1-4.4,3.6-8.1,8.1-8
			C146.8,239.8,150.4,243.4,150.3,247.7z"/>
	</g>
	<g>
		<path class="st0" d="M527,107.6c0.6,7.2-2.7,12.7-7.6,17.6c-6.5,6.8-12.7,13.9-19.3,21.1c1.5,0.7,2.7,1.2,3.9,1.7
			c10.8,4.2,21.6,8.4,32.4,12.6c13.7,5.4,18.7,16.7,13.3,30.6c-1.5,3.8-2.9,7.7-4.6,11.5c-5.2,13-16.8,18.1-29.9,13
			c-11.1-4.2-22.1-8.5-33.2-12.9c-1.2-0.5-2.5-0.9-4.3-1.5c0,10.8,0,21.3,0,31.7c0,4.5-0.8,8.7-3.9,12.2c-5.4,6.1-14.6,7.5-20.8,2.1
			c-6.4-5.7-12.3-12.1-18.3-18.3c-26.9-27.6-53.6-55.3-80.4-83c-11-11.4-11-27,0.2-36.7c4.4-3.9,9.6-5.6,15.3-5.9
			c46.3-2.7,92.7-5.4,139-8.1c6.5-0.3,11.6,2,15.6,7C525.5,104.2,526.2,106,527,107.6z M510.1,111.6c-2.5,0.1-3.8,0.1-5,0.2
			c-33.5,1.9-67,3.9-100.4,5.8c-11.1,0.7-22,1.3-33.1,2c-5.8,0.4-9.8,3.8-9,8.3c0.4,2.7,2.2,5.5,4,7.4
			c30.5,31.8,61.2,63.4,91.9,95.1c0.8,0.9,1.8,1.7,3.3,3.1c0-14.4,0-27.9-0.1-41.5c0-9.3,4.8-12.6,13.4-9.1
			c15.3,6,30.6,11.9,45.8,17.8c4.7,1.9,7.2,0.8,9.1-3.9c1.7-4.1,3.3-8.2,4.8-12.3c1.6-4.5,0.5-7-3.9-8.9c-4.4-1.8-9-3.5-13.4-5.2
			c-11.2-4.4-22.4-8.7-33.5-13.1c-6.7-2.6-8-8.5-3.3-14c0.7-0.9,1.4-1.6,2.1-2.4C491.9,131.6,500.6,122,510.1,111.6z"/>
		<path class="st0" d="M330.6,70.7c-2-4.7-4.1-9.2-6.1-13.9c-2-4.9-0.5-9.3,3.7-11.1c4-1.8,8.6-0.2,10.6,4.3
			c4.4,9.5,8.6,19.2,12.7,28.8c1.9,4.5-0.3,9.1-4.3,10.7c-4.1,1.7-8.3-0.1-10.5-4.7C334.7,80.2,332.7,75.4,330.6,70.7z"/>
		<path class="st0" d="M303,141.9c4.5-2,9-4.1,13.6-5.9c5.1-2,9.3-0.7,11.2,3.5c1.9,4.2,0.2,8.7-4.9,11.1
			c-9.2,4.2-18.5,8.3-27.8,12.2c-4.9,2-9.4,0.3-11.2-3.8c-1.9-4.3,0-8.5,5.1-11C293.7,145.8,298.3,143.9,303,141.9z"/>
		<path class="st0" d="M349.3,167.9c-0.3,3.2-0.2,5.5-1,7.5c-3.5,9.5-7.2,18.9-11.1,28.3c-2,5-6.5,7.1-10.9,5.3
			c-4.2-1.8-6-6.1-4-11.1c3.6-9.4,7.4-18.8,11.1-28.2c1.4-3.6,4-6.1,7.8-5.5C344.1,164.5,346.5,166.5,349.3,167.9z"/>
		<path class="st0" d="M331.1,105.5c2.9,6.5-1.5,12.7-7.4,12.2c-1.2-0.1-2.6-0.5-3.8-1c-8.9-3.4-17.9-6.9-26.8-10.4
			c-5.4-2.2-7.7-6.4-5.9-10.8c1.8-4.6,6.1-6.2,11.8-4.1c9,3.5,18.2,6.9,27.1,10.6C328.1,102.9,329.9,104.7,331.1,105.5z"/>
	</g>
	<path class="st0" d="M380.2,17.7c-2.4-1-5.1-1.5-8.3-1.5c-24.4-0.1-48.8,0-73.2,0c-1.1,0-2.1,0-3.2-0.1h75.9
		C374.8,16.1,377.7,16.6,380.2,17.7z"/>
	<path class="st0" d="M0,31c0,64,0,127.9-0.1,191.9c0-0.2,0-0.4,0-0.6V33.8C-0.1,32.8-0.1,31.9,0,31z"/>
	<path class="st0" d="M27.3,0.6c-3.1,0.5-6.1,1.3-9,2.6C21.1,1.9,24.2,1,27.3,0.6z"/>
	<path class="st0" d="M36.7,255.7h-1.3c-8.2,0-15.9-1.3-22.6-6.5c-5.5-4.2-9.2-9.4-11.1-15.3C7.3,248.9,19.8,255.7,36.7,255.7z"/>
	<path class="st0" d="M54.3,16.1c-0.4,0-0.8,0-1.1,0c-6.5,0.1-13.1,0-19.6,0.1c-11.3,0.1-17.5,6.3-17.5,17.7v188
		c0,6.8,2.2,11.8,6.5,14.7c-4.3-2.9-6.5-7.9-6.5-14.7v-188c0-11.5,6.2-17.8,17.8-17.8H54.3z"/>
	<path class="st0" d="M405.4,41.6c0,4.3-3.5,7.8-7.9,7.8c-4.4,0-7.9-3.4-8-7.8c-0.1-4.4,3.6-8.1,8.1-8
		C401.9,33.7,405.5,37.3,405.4,41.6z"/>
	<path class="st0" d="M405.4,224.7v3.4c-1.9,7.1-4.5,13.8-10.2,19c-2.3,2.1-4.8,3.8-7.5,5.1C397.4,247.4,404.5,237.6,405.4,224.7z"
		/>
	<path class="st0" d="M405.5,27.7c0,1.6,0,3.2,0,4.8c-0.1-3.7-0.6-7.3-1.7-10.5C404.5,23.7,405,25.7,405.5,27.7z"/>
	<path class="st0" d="M403.8,21.9C403.8,21.9,403.8,21.9,403.8,21.9C398.1,6.8,385.6,0,368.7,0H168.8c-16.4,0-32.8,0-49.1,0
		c-28.2,0-56.3,0-84.5,0c-2.7,0-5.4,0.2-7.9,0.6c-3.1,0.5-6.1,1.3-9,2.6c-0.2,0.1-0.4,0.2-0.7,0.3C8,8.3,0.9,18.1,0,31
		c0,64,0,127.9-0.1,191.9v0.4c0.1,3.7,0.6,7.3,1.7,10.5c0,0,0,0.1,0,0.1c5.6,15,18.1,21.8,35,21.8h199.9c44.5,0,89.1-0.1,133.6,0
		c2.7,0,5.3-0.2,7.9-0.6c2-0.3,3.9-0.8,5.8-1.4c1.1-0.4,2.1-0.8,3.2-1.2c0.2-0.1,0.4-0.2,0.7-0.3c9.5-4.7,16.6-14.4,17.6-27.1l0-0.4
		v-8.6c-0.1-0.3-0.3-0.6-0.5-0.9c-1.6-2.5-4.4-4.2-7.5-4.2c-3.1,0-5.7,1.5-7.3,3.9c-0.2,0.4-0.5,0.8-0.7,1.1v5.7
		c0,0.6,0,1.3-0.1,1.9c0,0.5-0.1,0.9-0.1,1.4c-1.1,9.4-7.2,14.5-17.6,14.5H34c-3.4,0-6.3-0.5-8.8-1.6c-0.2-0.1-0.5-0.2-0.7-0.3
		c0,0-0.1,0-0.1,0c-0.2-0.1-0.4-0.2-0.6-0.3c-0.2-0.1-0.4-0.2-0.5-0.3c-0.2-0.1-0.5-0.3-0.7-0.4c-4.3-2.9-6.5-7.9-6.5-14.7v-188
		c0-11.5,6.2-17.8,17.8-17.8h337.6c3.4,0,6.3,0.5,8.8,1.6c0.2,0.1,0.5,0.2,0.7,0.3c0,0,0.1,0,0.1,0c0.2,0.1,0.4,0.2,0.6,0.3
		c0.2,0.1,0.4,0.2,0.5,0.3c0.2,0.1,0.5,0.3,0.7,0.4c3.6,2.4,5.8,6.3,6.4,11.5c0.1,1,0.2,2.1,0.2,3.2v7.6c1,3.6,4.2,6.1,8.1,6.1
		c3.8,0,7-2.5,8-5.9c0-1.5,0-3.1,0-4.6v-4.5C405.4,28.7,404.8,25.2,403.8,21.9z M142.5,239.7c4.3,0.1,7.9,3.7,7.8,8
		c0,4.3-3.5,7.8-7.9,7.8c-2.1,0-4.1-0.8-5.5-2.1c0,0,0,0,0,0c-0.5-0.5-1-1.1-1.4-1.7c0-0.1-0.1-0.1-0.1-0.2c-0.6-1.1-1-2.4-1-3.8
		C134.3,243.3,138,239.6,142.5,239.7z"/>
	<path class="st0" d="M405.4,76.8c0,4.3-3.5,7.8-7.9,7.8c-4.4,0-7.9-3.4-8-7.8c-0.1-4.4,3.6-8.1,8.1-8
		C401.9,68.9,405.5,72.5,405.4,76.8z"/>
</g>
</svg>
