<?xml version="1.0" encoding="utf-8"?>
<!-- Generator: Adobe Illustrator 27.8.1, SVG Export Plug-In . SVG Version: 6.00 Build 0)  -->
<!DOCTYPE svg PUBLIC "-//W3C//DTD SVG 1.1//EN" "http://www.w3.org/Graphics/SVG/1.1/DTD/svg11.dtd" [
	<!ENTITY ns_extend "http://ns.adobe.com/Extensibility/1.0/">
	<!ENTITY ns_ai "http://ns.adobe.com/AdobeIllustrator/10.0/">
	<!ENTITY ns_graphs "http://ns.adobe.com/Graphs/1.0/">
	<!ENTITY ns_vars "http://ns.adobe.com/Variables/1.0/">
	<!ENTITY ns_imrep "http://ns.adobe.com/ImageReplacement/1.0/">
	<!ENTITY ns_sfw "http://ns.adobe.com/SaveForWeb/1.0/">
	<!ENTITY ns_custom "http://ns.adobe.com/GenericCustomNamespace/1.0/">
	<!ENTITY ns_adobe_xpath "http://ns.adobe.com/XPath/1.0/">
]>
<svg version="1.1" id="Layer_1" xmlns:x="&ns_extend;" xmlns:i="&ns_ai;" xmlns:graph="&ns_graphs;"
	 xmlns="http://www.w3.org/2000/svg" xmlns:xlink="http://www.w3.org/1999/xlink" x="0px" y="0px" width="30px" height="30px"
	 viewBox="0 0 30 30" style="enable-background:new 0 0 30 30;" xml:space="preserve">
<metadata>
	<sfw  xmlns="&ns_sfw;">
		<slices></slices>
		<sliceSourceBounds  bottomLeftOrigin="true" height="30" width="22.5054" x="73.7867" y="20.4331"></sliceSourceBounds>
	</sfw>
</metadata>
<g>
	<path d="M17.7524,0c0.1776,0.0459,0.3567,0.0867,0.5325,0.1386c1.3385,0.3947,2.2984,1.642,2.3341,3.0437
		c0.0124,0.487,0.002,0.9746,0.002,1.505c0.1189,0,0.2216,0,0.3243,0c1.3083,0.0003,2.6167-0.0066,3.925,0.0037
		c0.6872,0.0054,1.2468,0.5062,1.3636,1.184c0.1109,0.6439-0.2778,1.3134-0.9087,1.5321c-0.1714,0.0594-0.3621,0.0887-0.5439,0.0889
		C18.2591,7.5004,11.737,7.5005,5.2148,7.4986c-0.8429-0.0003-1.474-0.6179-1.4675-1.4193c0.0064-0.7867,0.6358-1.3885,1.4661-1.391
		c1.2693-0.0038,2.5386-0.001,3.8078-0.0011c0.1055,0,0.2109,0,0.3509,0c0-0.4185,0.0114-0.8156-0.0019-1.2119
		c-0.0666-1.9752,1.4009-3.2678,2.7978-3.4347C12.1946,0.0375,12.2186,0.014,12.2438,0C14.08,0,15.9162,0,17.7524,0z
		 M17.8095,4.6775c0-0.486,0.0086-0.9431-0.0032-1.3997c-0.0072-0.2769-0.1888-0.4601-0.467-0.4613
		c-1.5603-0.0063-3.1207-0.0054-4.681-0.0007c-0.2572,0.0008-0.4464,0.1491-0.4598,0.4022
		c-0.0255,0.4823-0.0074,0.9668-0.0074,1.4595C14.0725,4.6775,15.9224,4.6775,17.8095,4.6775z"/>
	<path d="M24.3744,18.8307c0,2.5581,0.0004,5.1162-0.0001,7.6743c-0.0004,2.0991-1.3886,3.4934-3.479,3.4937
		c-3.9746,0.0005-7.9492,0.0031-11.9237-0.0013c-1.6019-0.0018-2.9035-1.0205-3.2605-2.5462
		c-0.0573-0.2447-0.0853-0.5019-0.0855-0.7533c-0.0048-5.292-0.0048-10.584-0.0025-15.8759
		c0.0003-0.7332,0.4792-1.3053,1.1773-1.4305c0.6343-0.1138,1.2971,0.2514,1.524,0.8732c0.078,0.2137,0.1056,0.4566,0.1059,0.6862
		c0.0057,5.165,0.0044,10.3301,0.0044,15.4952c0,0.6322,0.1104,0.7406,0.7539,0.7406c3.8965,0,7.7929,0.0001,11.6894-0.0001
		c0.5534,0,0.6835-0.1323,0.6835-0.6942c0.0001-5.2041-0.0004-10.4082,0.0006-15.6123c0.0002-0.8257,0.5381-1.4453,1.2951-1.5015
		c0.8372-0.0621,1.514,0.5808,1.5158,1.4557c0.0043,2.0211,0.0014,4.0422,0.0014,6.0633
		C24.3744,17.5419,24.3744,18.1863,24.3744,18.8307z"/>
	<path d="M14.0599,17.8413c0,1.7081,0.0036,3.4162-0.0019,5.1243c-0.002,0.6104-0.3757,1.127-0.9311,1.3255
		c-0.5512,0.197-1.1834,0.0556-1.5293-0.4216c-0.1788-0.2466-0.3326-0.5802-0.3345-0.8755
		c-0.0228-3.4551-0.019-6.9104-0.0113-10.3657c0.0017-0.7769,0.6478-1.3848,1.4172-1.3779c0.7669,0.0069,1.3849,0.6204,1.3885,1.408
		C14.0654,14.3861,14.0599,16.1137,14.0599,17.8413z"/>
	<path d="M18.7479,17.818c0.0001,1.7179,0.004,3.4358-0.0019,5.1536c-0.0021,0.6081-0.3811,1.1267-0.9363,1.3221
		c-0.551,0.194-1.1844,0.0493-1.5278-0.4285c-0.1778-0.2473-0.3291-0.5812-0.331-0.877c-0.0225-3.4551-0.0188-6.9104-0.0107-10.3657
		c0.0018-0.7639,0.6376-1.3682,1.3935-1.372c0.7697-0.0038,1.406,0.6036,1.4107,1.3846
		C18.7549,14.3627,18.7477,16.0903,18.7479,17.818z"/>
</g>
</svg>
