<?xml version="1.0" encoding="utf-8"?>
<!-- Generator: Adobe Illustrator 27.8.1, SVG Export Plug-In . SVG Version: 6.00 Build 0)  -->
<!DOCTYPE svg PUBLIC "-//W3C//DTD SVG 1.1//EN" "http://www.w3.org/Graphics/SVG/1.1/DTD/svg11.dtd" [
	<!ENTITY ns_extend "http://ns.adobe.com/Extensibility/1.0/">
	<!ENTITY ns_ai "http://ns.adobe.com/AdobeIllustrator/10.0/">
	<!ENTITY ns_graphs "http://ns.adobe.com/Graphs/1.0/">
	<!ENTITY ns_vars "http://ns.adobe.com/Variables/1.0/">
	<!ENTITY ns_imrep "http://ns.adobe.com/ImageReplacement/1.0/">
	<!ENTITY ns_sfw "http://ns.adobe.com/SaveForWeb/1.0/">
	<!ENTITY ns_custom "http://ns.adobe.com/GenericCustomNamespace/1.0/">
	<!ENTITY ns_adobe_xpath "http://ns.adobe.com/XPath/1.0/">
]>
<svg version="1.1" id="Layer_1" xmlns:x="&ns_extend;" xmlns:i="&ns_ai;" xmlns:graph="&ns_graphs;"
	 xmlns="http://www.w3.org/2000/svg" xmlns:xlink="http://www.w3.org/1999/xlink" x="0px" y="0px" width="67.3748px"
	 height="61.7602px" viewBox="0 0 67.3748 61.7602" style="enable-background:new 0 0 67.3748 61.7602;" xml:space="preserve">
<style type="text/css">
	.st0{fill:#0096E8;}
</style>
<metadata>
	<sfw  xmlns="&ns_sfw;">
		<slices></slices>
		<sliceSourceBounds  bottomLeftOrigin="true" height="61.7602" width="67.3748" x="116.226" y="-180.7922"></sliceSourceBounds>
	</sfw>
</metadata>
<g>
	<path class="st0" d="M33.6691,61.7574c8.3333,0,16.6667,0.008,25-0.003c5.0499-0.0066,8.6807-3.6344,8.6988-8.6769
		c0.0127-3.538,0.0051-7.076-0.0015-10.614c-0.0006-0.3478-0.0105-0.7076-0.0963-1.0413c-0.3552-1.3815-1.6537-2.268-3.035-2.1048
		c-1.4145,0.1671-2.4644,1.3348-2.4719,2.8343c-0.0181,3.6256-0.0019,7.2514-0.0086,10.8771
		c-0.0037,1.9788-1.1266,3.1121-3.0947,3.1125c-16.6374,0.0034-33.2748,0.0031-49.9122,0.0004
		c-2.0086-0.0003-3.128-1.137-3.1305-3.1657c-0.0042-3.5088,0.0022-7.0175-0.0026-10.5263
		c-0.0026-1.865-1.1441-3.1411-2.7972-3.1462c-1.6621-0.0051-2.8113,1.2632-2.8139,3.1249
		c-0.0049,3.4795-0.0041,6.9591-0.0008,10.4386c0.005,5.3142,3.5932,8.8878,8.9296,8.8896
		C17.1779,61.7595,25.4235,61.7575,33.6691,61.7574z M30.8792,41.8474c-0.381-0.2904-0.6118-0.4595-0.8353-0.6377
		c-2.7879-2.222-5.568-4.4538-8.3647-6.6646c-1.3483-1.0658-3.0584-0.889-4.0483,0.3764c-0.9717,1.2423-0.7571,2.9259,0.5441,3.97
		c4.5127,3.6212,9.0318,7.2344,13.5557,10.8416c1.3272,1.0582,2.5737,1.0687,3.904,0.0091
		c4.6401-3.6959,9.2725-7.4014,13.8966-11.1171c1.3504-1.0851,1.5658-2.7753,0.565-4.031
		c-1.0255-1.2867-2.7252-1.4048-4.1257-0.2855c-2.9218,2.3352-5.8426,4.6717-8.7662,7.0046
		c-0.1916,0.1529-0.4038,0.2799-0.7112,0.4909c0-0.4483,0-0.7627,0-1.077c0-12.3936,0.0001-24.7872-0.0004-37.1808
		c0-0.3215,0.0138-0.6446-0.0131-0.9641c-0.1119-1.3257-1.1707-2.4146-2.4769-2.5639c-1.3266-0.1516-2.5835,0.6459-2.9673,1.9464
		c-0.1292,0.4378-0.15,0.9197-0.1502,1.3815c-0.0076,12.4228-0.0061,24.8457-0.0061,37.2685
		C30.8792,40.9609,30.8792,41.3069,30.8792,41.8474z"/>
	<path class="st0" d="M33.6691,61.7575c-8.2456,0-16.4912,0.0021-24.7368-0.0007c-5.3364-0.0018-8.9246-3.5754-8.9296-8.8896
		c-0.0033-3.4795-0.0041-6.9591,0.0008-10.4386c0.0026-1.8617,1.1518-3.13,2.8139-3.1249c1.6531,0.0051,2.7947,1.2812,2.7972,3.1462
		c0.0048,3.5088-0.0016,7.0175,0.0026,10.5263c0.0024,2.0286,1.1219,3.1653,3.1305,3.1657
		c16.6374,0.0027,33.2748,0.003,49.9122-0.0004c1.9681-0.0004,3.091-1.1337,3.0947-3.1125
		c0.0067-3.6257-0.0095-7.2515,0.0086-10.8771c0.0075-1.4995,1.0574-2.6672,2.4719-2.8343c1.3813-0.1632,2.6798,0.7233,3.035,2.1048
		c0.0858,0.3336,0.0957,0.6934,0.0963,1.0413c0.0066,3.538,0.0143,7.076,0.0015,10.614c-0.0182,5.0424-3.649,8.6702-8.6988,8.6769
		C50.3358,61.7654,42.0024,61.7574,33.6691,61.7575z"/>
	<path class="st0" d="M30.8792,41.8474c0-0.5404,0-0.8865,0-1.2325c0-12.4228-0.0015-24.8457,0.0061-37.2685
		c0.0003-0.4618,0.0211-0.9438,0.1502-1.3815c0.3837-1.3005,1.6406-2.098,2.9673-1.9464c1.3062,0.1493,2.365,1.2382,2.4769,2.5639
		c0.027,0.3195,0.0131,0.6426,0.0131,0.9641c0.0005,12.3936,0.0004,24.7872,0.0004,37.1808c0,0.3143,0,0.6286,0,1.077
		c0.3074-0.211,0.5196-0.338,0.7112-0.4909c2.9236-2.3329,5.8444-4.6694,8.7662-7.0046c1.4005-1.1193,3.1002-1.0012,4.1257,0.2855
		c1.0008,1.2557,0.7854,2.9459-0.565,4.031c-4.6242,3.7157-9.2566,7.4212-13.8966,11.1171
		c-1.3304,1.0596-2.5769,1.0492-3.904-0.0091c-4.5239-3.6072-9.043-7.2204-13.5557-10.8416
		c-1.3011-1.0441-1.5158-2.7278-0.5441-3.97c0.9899-1.2655,2.7-1.4422,4.0483-0.3764c2.7967,2.2108,5.5768,4.4426,8.3647,6.6646
		C30.2675,41.3879,30.4982,41.557,30.8792,41.8474z"/>
</g>
</svg>
