<?xml version="1.0" encoding="utf-8"?>
<!-- Generator: Adobe Illustrator 26.5.0, SVG Export Plug-In . SVG Version: 6.00 Build 0)  -->
<svg version="1.1" id="Layer_1" xmlns="http://www.w3.org/2000/svg" xmlns:xlink="http://www.w3.org/1999/xlink" x="0px" y="0px"
	 viewBox="0 0 308.8 315.2" style="enable-background:new 0 0 308.8 315.2;" xml:space="preserve">
<style type="text/css">
	.st0{fill:url(#SVGID_1_);}
	.st1{fill:#A07D4E;}
	.st2{fill:#A67E4F;}
	.st3{fill:#D9AC80;}
	.st4{fill:#FF6600;}
	.st5{fill:#E2E2E2;}
	.st6{fill:#926E43;}
	.st7{fill:#006838;}
	.st8{fill:none;}
	.st9{fill:#EF5500;}
	.st10{fill:#DD4A00;}
</style>
<g>
	
		<linearGradient id="SVGID_1_" gradientUnits="userSpaceOnUse" x1="0.2" y1="722.9576" x2="154.9" y2="722.9576" gradientTransform="matrix(1 0 0 1 0 -526)">
		<stop  offset="0" style="stop-color:#A07D4E"/>
		<stop  offset="0.42" style="stop-color:#A07D4E"/>
		<stop  offset="1" style="stop-color:#A07D4E"/>
	</linearGradient>
	<path class="st0" d="M154.9,315.2c-1.2,0.1-2.4-0.3-3.8-1C101.9,289,52.6,263.8,3.4,238.7c-2.4-1.2-3.2-2.6-3.2-5.2
		C0.3,183.2,0.3,133,0.3,82.8v-4.1C2,79.6,3,80,4,80.5c49.3,25.3,98.6,50.6,147.9,76l0.1,0.1l0.2,0.1l2.4,1.1v1.1L154.9,315.2
		L154.9,315.2z"/>
	<path class="st1" d="M250.4,111.4v2.1c0-0.6,0-1.1,0-1.7C250.4,111.7,250.4,111.6,250.4,111.4z"/>
</g>
<g>
	<path class="st2" d="M308.8,233.4c0,2.6-0.9,3.9-3.1,5c-49.4,25.2-98.7,50.4-148,75.7c-1.1,0.5-2.1,0.9-3,0.9V157.8l2.2-1l0,0
		c0.2-0.1,0.5-0.2,0.8-0.4c2.4-1.2,4.8-2.5,7.2-3.8l0,0c14.6-7.6,29.3-15.1,44-22.6c0.8-0.4,1.6-0.8,3-1.4v36.2l0.9-1l0.4-0.5
		l1.5-1.8c5.6-7,11.4-13.9,17-20.9c1.5-1.9,2.9-2.4,5.2-1.4c4.1,1.8,8.4,3.2,13.1,5c0.1-1.8,0.2-3,0.2-4.2c0-1.8,0-3.5,0-5.3
		c0-7,0-14.1,0-21.1V109l1.9-1l0,0c0.1-0.1,0.2-0.1,0.3-0.2c18-9.2,36-18.6,53.9-27.8c0.5-0.3,1.1-0.5,2.2-0.9
		c0.1,1.3,0.2,2.3,0.2,3.4C308.7,132.8,308.7,183.1,308.8,233.4L308.8,233.4z"/>
	<path class="st2" d="M250.1,111.3v2.1c0-0.6,0-1.1,0-1.7C250.1,111.6,250.1,111.5,250.1,111.3z"/>
</g>
<path class="st3" d="M158.4,156l-0.7,0.4c0,0-0.3,0.2-0.9,0.4L158.4,156L158.4,156z"/>
<path class="st4" d="M308.5,79.1l-149.3,76.5l-0.8,0.4l-1.6,0.8l-0.9,0.4l-1.2,0.6l-2-1c-0.1,0-0.3-0.1-0.4-0.1
	c-0.2-0.1-0.4-0.2-0.7-0.3C148.3,154.7,0,78.6,0,78.6L154.4,0L308.5,79.1z"/>
<path class="st5" d="M250.7,108.7l-0.7,35.4c0,0-9.8-3.3-13.1-5s-5.2,1.4-5.2,1.4l-19.8,24.3v-36.2L58.2,49l38.6-19.6L250.7,108.7z"
	/>
<path class="st6" d="M250.2,134.7c0,1.8,0,3.5,0,5.3c0,1.2-0.1,2.4-0.2,4.2L250.2,134.7L250.2,134.7z"/>
<path class="st7" d="M164.9,152.6L164.9,152.6c-2.4,1.2-4.8,2.5-7.2,3.8L164.9,152.6z"/>
<path class="st8" d="M308.8,233.4c0,2.6-0.9,3.9-3.1,5c-49.4,25.2-98.7,50.4-148,75.7c-1.1,0.6-2.1,0.9-3.1,0.9l-0.2-157.8
	c1.1,0.1,2.1-0.2,3.3-0.8c17-8.9,34.1-17.6,51.2-26.4c0.8-0.4,1.6-0.8,3-1.4v36.2l0.9-1l0.4-0.5l1.5-1.8c5.6-7,11.4-13.9,17-20.9
	c1.5-1.9,2.9-2.4,5.2-1.4c4.1,1.8,8.4,3.2,13.1,5c0.1-1.8,0.2-3,0.2-4.2c0-1.8,0-3.5,0-5.3c0-7,0-14.1,0-21.1V109l1.9-1l0,0
	c0.1-0.1,0.2-0.1,0.3-0.2c18-9.2,36-18.6,53.9-27.8c0.5-0.3,1.1-0.5,2.2-0.9c0.1,1.3,0.2,2.3,0.2,3.4
	C308.7,132.8,308.7,183.1,308.8,233.4L308.8,233.4z"/>
<polygon class="st3" points="159.2,155.6 159.2,155.6 158.4,156 "/>
<path class="st3" d="M154.7,157.8l-2.4-1.1c0.1,0.1,0.3,0.1,0.4,0.1L154.7,157.8z"/>
<g>
	<path class="st9" d="M154.9,315.2c-1.2,0.1-2.4-0.3-3.8-1C101.9,289,52.6,263.8,3.4,238.7c-2.4-1.2-3.2-2.6-3.2-5.2
		C0.3,183.2,0.3,133,0.3,82.8v-4.1C2,79.6,3,80,4,80.5c49.3,25.3,98.6,50.6,147.9,76l0.1,0.1l0.2,0.1l2.4,1.1v1.1L154.9,315.2
		L154.9,315.2z"/>
	<path class="st9" d="M250.4,111.4v2.1c0-0.6,0-1.1,0-1.7C250.4,111.7,250.4,111.6,250.4,111.4z"/>
</g>
<g>
	<path class="st10" d="M308.8,233.4c0,2.6-0.9,3.9-3.1,5c-49.4,25.2-98.7,50.4-148,75.7c-1.1,0.5-2.1,0.9-3,0.9V157.8l2.2-1l0,0
		c0.2-0.1,0.5-0.2,0.8-0.4c2.4-1.2,4.8-2.5,7.2-3.8l0,0c14.6-7.6,29.3-15.1,44-22.6c0.8-0.4,1.6-0.8,3-1.4v36.2l0.9-1l0.4-0.5
		l1.5-1.8c5.6-7,11.4-13.9,17-20.9c1.5-1.9,2.9-2.4,5.2-1.4c4.1,1.8,8.4,3.2,13.1,5c0.1-1.8,0.2-3,0.2-4.2c0-1.8,0-3.5,0-5.3
		c0-7,0-14.1,0-21.1V109l1.9-1l0,0c0.1-0.1,0.2-0.1,0.3-0.2c18-9.2,36-18.6,53.9-27.8c0.5-0.3,1.1-0.5,2.2-0.9
		c0.1,1.3,0.2,2.3,0.2,3.4C308.7,132.8,308.7,183.1,308.8,233.4L308.8,233.4z"/>
	<path class="st10" d="M250.1,111.3v2.1c0-0.6,0-1.1,0-1.7C250.1,111.6,250.1,111.5,250.1,111.3z"/>
</g>
</svg>
