<?xml version="1.0" encoding="utf-8"?>
<!-- Generator: Adobe Illustrator 27.8.1, SVG Export Plug-In . SVG Version: 6.00 Build 0)  -->
<!DOCTYPE svg PUBLIC "-//W3C//DTD SVG 1.1//EN" "http://www.w3.org/Graphics/SVG/1.1/DTD/svg11.dtd" [
	<!ENTITY ns_extend "http://ns.adobe.com/Extensibility/1.0/">
	<!ENTITY ns_ai "http://ns.adobe.com/AdobeIllustrator/10.0/">
	<!ENTITY ns_graphs "http://ns.adobe.com/Graphs/1.0/">
	<!ENTITY ns_vars "http://ns.adobe.com/Variables/1.0/">
	<!ENTITY ns_imrep "http://ns.adobe.com/ImageReplacement/1.0/">
	<!ENTITY ns_sfw "http://ns.adobe.com/SaveForWeb/1.0/">
	<!ENTITY ns_custom "http://ns.adobe.com/GenericCustomNamespace/1.0/">
	<!ENTITY ns_adobe_xpath "http://ns.adobe.com/XPath/1.0/">
]>
<svg version="1.1" id="Layer_1" xmlns:x="&ns_extend;" xmlns:i="&ns_ai;" xmlns:graph="&ns_graphs;"
	 xmlns="http://www.w3.org/2000/svg" xmlns:xlink="http://www.w3.org/1999/xlink" x="0px" y="0px" width="30px" height="30px"
	 viewBox="0 0 30 30" style="enable-background:new 0 0 30 30;" xml:space="preserve">
<metadata>
	<sfw  xmlns="&ns_sfw;">
		<slices></slices>
		<sliceSourceBounds  bottomLeftOrigin="true" height="22.5173" width="30" x="70.0394" y="24.1744"></sliceSourceBounds>
	</sfw>
</metadata>
<g>
	<path d="M0,14.7655c2.685-4.4324,6.3873-7.5534,11.5094-8.7544c3.3616-0.7881,6.6566-0.4449,9.8334,0.9211
		c0.2303,0.099,0.356,0.0661,0.5227-0.1035c0.9182-0.9337,1.8481-1.8558,2.7744-2.7815c0.271-0.2709,0.5906-0.3733,0.9638-0.2607
		c0.3485,0.1052,0.5649,0.3454,0.6429,0.6958c0.0844,0.3792-0.0659,0.6803-0.3341,0.947c-1.2681,1.2611-2.5308,2.5276-3.7954,3.7922
		c-5.5422,5.5421-11.0851,11.0835-16.6245,16.6284c-0.2704,0.2707-0.5598,0.4659-0.9564,0.3937
		c-0.3646-0.0663-0.6191-0.2803-0.7335-0.639c-0.1183-0.3711-0.0235-0.6945,0.2476-0.9665
		c0.7795-0.7823,1.5604-1.5631,2.3427-2.3425c0.0759-0.0756,0.1654-0.1377,0.2826-0.2341C3.8873,20.2881,1.6333,18.062,0,15.2346
		C0,15.0783,0,14.9219,0,14.7655z M10.4036,18.2388c-1.6645-2.4615-1.1345-5.2971,0.4391-7.0161
		c0.8229-0.899,1.8295-1.4868,3.0238-1.7321c1.5937-0.3273,3.0583,0.0121,4.361,0.8899c0.6447-0.6454,1.2696-1.271,1.8961-1.8982
		c-0.0106-0.006-0.0421-0.0292-0.0773-0.0426c-3.1909-1.2106-6.4136-1.2889-9.6312-0.1619c-3.5,1.2259-6.155,3.5509-8.2642,6.5512
		c-0.1171,0.1666-0.0499,0.2586,0.0357,0.3816c1.1424,1.6418,2.509,3.0694,4.1126,4.2636c0.5601,0.4171,1.1552,0.7872,1.7091,1.1616
		C8.8326,19.8111,9.6122,19.0309,10.4036,18.2388z M16.8674,11.7825c-1.3858-0.9597-3.4962-0.6088-4.697,0.7716
		c-1.2142,1.3957-1.0896,3.3379-0.3613,4.2872C13.4909,15.1593,15.1738,13.4762,16.8674,11.7825z"/>
	<path d="M10.342,23.6373c0.48-0.4755,0.9541-0.9524,1.44-1.4169c0.0551-0.0527,0.1823-0.0651,0.266-0.0477
		c4.7057,0.98,8.8235-0.2699,12.468-3.2936c1.2699-1.0536,2.3546-2.2807,3.3054-3.6294c0.1395-0.1978,0.1217-0.3198-0.0091-0.5046
		c-1.1141-1.5743-2.4226-2.9606-3.9526-4.1365c-0.0836-0.0642-0.1653-0.1309-0.237-0.1879c0.4545-0.4564,0.8943-0.898,1.3688-1.3746
		c0.4513,0.3871,0.9272,0.7732,1.3782,1.1865c1.3102,1.2007,2.4354,2.5564,3.392,4.0563c0.3111,0.4878,0.3225,0.9214,0.0059,1.4097
		c-2.3951,3.6942-5.5393,6.4717-9.7614,7.8848c-3.1236,1.0454-6.2877,1.0664-9.4553,0.1559
		c-0.0466-0.0134-0.0931-0.0279-0.1382-0.0455C10.3955,23.6873,10.3823,23.6704,10.342,23.6373z"/>
	<path d="M20.4537,13.5272c0.478,2.202-0.0113,4.0593-1.5917,5.5588c-1.4806,1.4049-3.2576,1.815-5.3316,1.3488
		c0.4556-0.4458,0.8704-0.8273,1.2557-1.2367c0.2815-0.2992,0.5791-0.485,1.0045-0.5662c1.5735-0.3003,2.7226-1.5838,2.9248-3.1788
		c0.0117-0.0922,0.0368-0.2032,0.097-0.2654C19.3342,14.6492,19.8653,14.1198,20.4537,13.5272z"/>
</g>
</svg>
