<?xml version="1.0" encoding="UTF-8"?><svg id="a" xmlns="http://www.w3.org/2000/svg" viewBox="0 0 200 200"><defs><style>.b{fill:#8f8f8f;}</style></defs><path class="b" d="m38.29,200c-2.31-1.04-4.85-1.74-6.89-3.17-4.71-3.31-7.55-7.84-7.55-13.83,0-55.77-.02-111.55.02-167.32,0-3.45,1.65-6.45,3.78-9.08C31.49,1.86,36.56-.02,42.61,0c26.36.07,52.71.03,79.07.03,2.59,0,4.71.72,6.66,2.68,15.16,15.3,30.41,30.52,45.68,45.71,1.49,1.48,2.12,3.17,2.12,5.12.02,42.69.03,85.38,0,128.08,0,4.84-1.39,9.35-4.87,12.87-2.61,2.64-5.75,4.58-9.54,5.17-.28.04-.53.23-.8.34H38.29ZM117.58,11.75c-.81,0-1.39,0-1.96,0-24.47,0-48.95.05-73.42-.06-3.66-.02-6.72,2.37-6.71,6.7.11,54.41.07,108.83.07,163.24,0,4.6,2.06,6.64,6.66,6.64,38.47,0,76.94-.04,115.4.08,3.44.01,6.84-2.63,6.84-6.81-.03-40.55-.02-81.1-.03-121.65,0-.42-.09-.85-.15-1.28-9.44,0-18.75-.14-28.06.05-6.14.12-11.12-2.03-14.92-6.72-2.26-2.78-3.74-6.01-3.73-9.74,0-10.08,0-20.16,0-30.46Zm11.72,8.96c0,6.92,0,13.95,0,20.98,0,2.66,2.58,5.14,4.72,5.17,7.2.11,14.4.04,21.48.04-8.74-8.73-17.47-17.46-26.21-26.19Z"/><path class="b" d="m99.8,94.54c-11.7,0-23.41,0-35.11,0-3.15,0-5.47-2.42-5.74-5.41-.31-3.47,2.5-6.3,5.65-6.3,23.34,0,46.69-.04,70.03.03,3.47.01,5.54,1.65,6.34,5.39.45,2.11-1.37,4.77-4.04,5.91-.67.29-1.47.36-2.21.36-11.64.02-23.28.01-34.92.01Z"/><path class="b" d="m99.73,117.98c-11.64,0-23.28,0-34.92,0-3.39,0-5.63-2.4-5.88-5.67-.22-2.96,2.4-6.07,5.92-6.06,17.04.05,34.07.02,51.11.02,6.11,0,12.22-.01,18.34,0,3.51,0,5.49,1.54,6.32,4.82.84,3.31-1.92,6.88-5.39,6.89-11.83.02-23.67,0-35.5,0Z"/><path class="b" d="m99.82,141.41c-11.7,0-23.41,0-35.11,0-3.16,0-5.49-2.41-5.76-5.38-.31-3.53,2.52-6.32,5.62-6.32,23.34,0,46.69-.04,70.03.03,3.44.01,5.54,1.6,6.36,5.37.47,2.16-1.45,4.9-4.19,6-.62.25-1.35.3-2.03.3-11.64.02-23.28.01-34.92,0Z"/><path class="b" d="m88,164.84c-7.8,0-15.6,0-23.4,0-3.01,0-5.39-2.44-5.64-5.29-.34-3.77,2.58-6.39,5.52-6.4,15.6-.02,31.2-.07,46.8.03,3.14.02,5.34,1.38,6.23,5.28.48,2.08-1.28,4.82-3.9,5.98-.66.29-1.47.39-2.21.39-7.8.03-15.6.02-23.4.02h0Z"/></svg>