<?xml version="1.0" encoding="UTF-8"?><svg id="a" xmlns="http://www.w3.org/2000/svg" viewBox="0 0 200 200"><defs><style>.b{fill:#8f8f8f;}</style></defs><path class="b" d="m16.01,72.59c1.6-4.7,5.52-7.56,8.97-10.6,3.64-3.21,8.87-2.56,12.44,1,20.41,20.36,40.79,40.76,61.17,61.15.42.43.81.89,1.29,1.41.65-.57,1.23-1.03,1.76-1.55,20.59-20.57,41.16-41.16,61.79-61.7,1.88-1.88,4.27-2.41,7.05-2.02,2.9.41,4.92,1.93,6.76,3.94,1.93,2.11,4.15,4.05,5.69,6.43,1.95,3,1.06,7.87-1.56,10.49-24.91,24.84-49.81,49.69-74.6,74.65-3.41,3.44-9.8,3.94-13.75-.07-10.74-10.92-21.63-21.7-32.47-32.53-13.58-13.58-27.19-27.13-40.7-40.78-1.56-1.57-2.57-3.69-3.83-5.56,0-1.42,0-2.85,0-4.27Z"/></svg>