<?xml version="1.0" encoding="UTF-8"?><svg id="a" xmlns="http://www.w3.org/2000/svg" viewBox="0 0 200 200"><defs><style>.b{fill:#8f8f8f;}</style></defs><path class="b" d="m72.84,114.59c-7.39,0-14.55-.03-21.7.04-.66,0-1.54.46-1.93.98-3.27,4.39-6.48,8.82-9.64,13.28-2.22,3.13-6.76,5.07-10.11,3.97-4.41-1.45-6.51-4.36-6.85-9.08-.21-2.95-.04-5.93-.04-8.98-6.24-.4-11.68-2.52-15.96-6.98C2.34,103.4.06,98.12.08,91.8c.06-18.73-.23-37.47.05-56.19.1-6.65,3.49-12.19,8.82-16.33,4.44-3.46,9.59-4.68,15.13-4.68,26.47.01,52.94-.04,79.4.03,6.83.02,13.02,2.07,17.72,7.31,3.25,3.62,5.62,7.8,5.67,12.8.11,10.61.03,21.22.03,32.14,1.24,0,1.99,0,2.73,0,15.54,0,31.08,0,46.62,0,6.76,0,12.7,2.18,17.39,7.07,3.63,3.78,5.98,8.38,6.04,13.73.2,18.58.33,37.16.31,55.73,0,6.63-2.28,12.57-7.23,17.15-3.89,3.6-8.49,5.91-13.93,6.06-1.31.04-1.75.5-1.71,1.77.07,2.2-.04,4.4.03,6.6.14,4.43-1.45,7.74-5.7,9.6-4.28,1.87-7.69.3-10.69-2.63-4.82-4.71-9.53-9.54-14.33-14.26-.51-.5-1.39-.9-2.1-.9-16.11-.05-32.22-.18-48.32,0-11.05.13-19.71-6.95-22.66-16.98-.39-1.31-.5-2.74-.51-4.12-.04-10.28-.02-20.57-.02-31.13Zm95.37,61.73c0-4.95,0-9.4.01-13.84,0-.61.05-1.26.24-1.84.75-2.25,2.53-2.82,4.69-2.96,2.84-.18,5.83-.02,8.46-.9,6.41-2.14,9.23-7.13,9.25-13.72.05-17.53.04-35.06-.03-52.59,0-1.91-.27-3.94-.95-5.71-2.42-6.26-7.49-8.79-13.85-8.81-26.68-.07-53.36-.04-80.05-.03-8.11,0-14.22,5.7-14.17,14.19.12,17.81.09,35.63-.02,53.44-.02,2.83.65,5.3,2.07,7.65,2.47,4.09,6.08,6.42,10.87,6.44,17.1.07,34.2.04,51.31.06.7,0,1.49-.09,2.07.2,1.45.71,3.02,1.4,4.15,2.49,5.27,5.11,10.4,10.36,15.93,15.91ZM52.05,78.24c-.46,1.05-.91,2.13-1.4,3.19-1.96,4.24-3.87,8.5-5.94,12.69-1.04,2.1-3.96,2.89-5.91,1.86-2.03-1.08-3.02-3.69-2.08-5.79,3.82-8.53,7.68-17.04,11.54-25.55,3.66-8.07,7.31-16.15,11.02-24.2.74-1.6,1.7-2.95,3.91-2.87,2.15.07,3.63.53,4.58,2.75,2.41,5.61,5.1,11.1,7.66,16.64,2.2,4.77,4.39,9.54,6.6,14.36,4.19-3.1,8.78-4.38,13.74-4.41,5.39-.03,10.79,0,16.18,0,2.04,0,4.08,0,6.01,0,.16-.34.27-.46.27-.59.02-9.72.12-19.45-.02-29.17-.06-3.87-1.63-7.36-4.56-9.95-3.04-2.68-6.81-3.53-10.8-3.53-26.18,0-52.37,0-78.55,0-.71,0-1.42,0-2.13.05-7.36.43-12.87,6.07-12.87,12.93,0,18.74-.04,37.47.04,56.21.02,5.19,2.88,8.75,7.3,11.21,3.39,1.89,7.08,1.77,10.75,1.68,1.98-.05,3.33.93,4.06,2.59.43.97.45,2.16.47,3.26.05,3.92.02,7.85.02,12.23,3.92-5.38,7.54-10.35,11.16-15.32,1.49-2.05,3.36-3.2,6.05-3.11,3.83.14,7.66.04,11.49.04,4.02,0,8.03,0,12.01,0,.96-9.17-1.72-18.47,2.99-27.19h-23.58Zm4.17-9.16h14.79c-2.41-5.3-4.79-10.52-7.39-16.22-2.59,5.67-4.97,10.89-7.4,16.22Z"/><path class="b" d="m136.09,129.87c6.21-5.42,9.97-11.84,11.19-19.86-3.98,0-7.94,0-11.9,0-7.17,0-14.33,0-21.5,0-2.83,0-4.8-1.86-4.87-4.55-.06-2.39,1.98-4.43,4.69-4.46,5.61-.07,11.21-.03,16.82-.04.27,0,.54-.04,1.06-.08,0-2.8-.12-5.54.03-8.28.19-3.5,2.36-6.36,6.52-4.73,2.02.79,2.72,2.51,2.8,4.47.12,2.76.07,5.53.1,8.3,0,.05.09.1.29.33,5.57,0,11.3-.07,17.03.06,1.21.03,2.55.6,3.58,1.29,1.7,1.15,2.04,2.83,1.2,4.78-.8,1.86-2.09,2.9-4.14,2.91-.84,0-1.68,0-2.51,0-1.29,9.62-5.08,17.86-12.63,25.02,3.72.82,6.94,1.58,10.19,2.22,1.35.27,2.76.22,4.12.46,2.09.38,3.46,2.41,3.25,4.64-.17,1.8-2.02,3.84-4.07,3.92-6.66.25-12.88-1.24-18.72-4.33-1.72-.91-3.14-.76-4.8.1-5.56,2.88-11.46,4.43-17.79,4.19-2.72-.11-4.84-1.91-4.88-4.35-.05-2.6,1.96-4.58,4.83-4.59,4.2-.01,8.18-.95,11.95-2.46-2.22-2.99-4.57-5.82-6.5-8.9-1.14-1.82-3-3.74-1.81-6.23.52-1.08,1.46-2.54,2.42-2.72,1.84-.35,4.07-.79,5.43,1.41,1.23,1.99,2.4,4.04,3.81,5.91,1.43,1.9,3.11,3.62,4.83,5.58Z"/></svg>