<?xml version="1.0" encoding="UTF-8"?><svg id="a" xmlns="http://www.w3.org/2000/svg" viewBox="0 0 200 200"><defs><style>.b{fill:#8f8f8f;}</style></defs><path class="b" d="m145.06,169.58h-.13v-38.24c-.13-2.23-.58-4.14-.91-5.31-.04-.14-.08-.26-.12-.37l-.18-.55c-.08-.21-.12-.32-.12-.32l-18.18-54.62c2.57-.9,2.82-3.21,2.82-5.64-.13-4.36,0-8.59,0-12.96,0-4.62-1.15-5.9-5.77-5.9h-2.05c-.26-.26-.38-.26-.38-.38-.26-3.21,1.03-5.26,4.1-6.29,3.98-1.41,7.95-2.69,12.19-4.1l.31-.09.19-.05c.69-.4,3.14-2.05,3.3-6.48.13-3.84-1.53-6-2.37-6.86l-.54-.37-.76-.51c-1.15-.77-2.05-1.28-2.82-1.92-7.57-5.64-15.01-11.29-22.58-16.8-1.28-1.03-3.21-1.67-4.87-1.67-16.93-.13-33.99-.13-50.92-.13-4.36,0-5.64,1.28-5.64,5.77s.13,8.72,0,12.96c-.13,2.95.51,5.26,3.72,6.29-.64,5.13-2.57,9.75-5.9,13.6-2.57,2.82-5.77,5-8.34,7.7-1.03,1.15-1.92,3.21-1.54,4.49s2.18,2.82,3.59,2.95c15.91,1.8,30.27-7.44,35.53-22.45.26-.51.51-1.03.9-2.05,2.44,5.64,4.62,10.9,6.93,16.16-5.26.64-6.03,1.41-6.03,6.54v10.13c0,5.26,2.69,8.08,8.08,8.47l-2.62,7.48-4.82,13.83-9.99,28.59-2.15,6.2c-.05.21-.1.41-.13.63-.37,1.9-.55,3.9-.55,6v59.26c0,4.75,1.15,5.9,5.9,5.9,22.19,0,44.51-.13,66.7,0,3.08,0,5.39-.77,6.16-4.1v-13.84c-.15-.78-.24-1.6-.26-2.45h.26v-8.47ZM54.24,43.61c4.1-5.64,6.54-11.67,7.44-18.47h7.95c-.38,7.44-8.08,16.8-15.39,18.47Zm28.99-22.32c-1.41-3.59-3.46-4.87-7.18-4.75-5.9.38-11.93.13-18.09.13v-8.08c.77,0,1.67-.13,2.44-.13,14.49,0,28.99-.13,43.48,0,1.41,0,2.95.51,3.98,1.28,7.18,5.26,14.37,10.65,21.42,16.29.64.38,1.28,1.03,2.31,1.8-5.52,1.8-10.52,3.46-15.52,5.13-4.1,1.28-4.62,2.05-4.62,6.29v6.29h-17.96c-3.46-8.08-7.06-16.03-10.26-24.24Zm36.56,32.71v7.95h-32.71v-7.95h32.71Zm-43.66,71.1l.03-.08,5.81-16.83,2.75-7.91,2.89-8.36,2.9-8.39,4.54-13.11c6.16,0,11.8-.13,17.45.13.18,0,.37.01.56.05l4.17.03,1.87,5.85,16.59,51.8h-60.65c.28-1.13.65-2.18,1.1-3.17Zm60.08,65.12h-61.7v-7.95h61.7v7.95Zm.13-16.55h-61.7v-36.94h61.7v36.94Z"/></svg>