<?xml version="1.0" encoding="utf-8"?>
<!-- Generator: Adobe Illustrator 27.9.0, SVG Export Plug-In . SVG Version: 6.00 Build 0)  -->
<!DOCTYPE svg PUBLIC "-//W3C//DTD SVG 1.1//EN" "http://www.w3.org/Graphics/SVG/1.1/DTD/svg11.dtd" [
	<!ENTITY ns_extend "http://ns.adobe.com/Extensibility/1.0/">
	<!ENTITY ns_ai "http://ns.adobe.com/AdobeIllustrator/10.0/">
	<!ENTITY ns_graphs "http://ns.adobe.com/Graphs/1.0/">
	<!ENTITY ns_vars "http://ns.adobe.com/Variables/1.0/">
	<!ENTITY ns_imrep "http://ns.adobe.com/ImageReplacement/1.0/">
	<!ENTITY ns_sfw "http://ns.adobe.com/SaveForWeb/1.0/">
	<!ENTITY ns_custom "http://ns.adobe.com/GenericCustomNamespace/1.0/">
	<!ENTITY ns_adobe_xpath "http://ns.adobe.com/XPath/1.0/">
]>
<svg version="1.1" id="Layer_1" xmlns:x="&ns_extend;" xmlns:i="&ns_ai;" xmlns:graph="&ns_graphs;"
	 xmlns="http://www.w3.org/2000/svg" xmlns:xlink="http://www.w3.org/1999/xlink" x="0px" y="0px" width="200px" height="200px"
	 viewBox="0 0 200 200" style="enable-background:new 0 0 200 200;" xml:space="preserve">
<style type="text/css">
	.st0{fill:#FFFFFF;}
	.st1{fill:#FF6600;}
</style>
<metadata>
	<sfw  xmlns="&ns_sfw;">
		<slices></slices>
		<sliceSourceBounds  bottomLeftOrigin="true" height="120.4" width="200" x="-50" y="-10.2"></sliceSourceBounds>
	</sfw>
</metadata>
<path class="st0" d="M165.9,68c1.7,0,3.1,0,4.5,0c5,0,10,0,15,0c9.9,0.1,16.5,8.7,14,18.3c-1.4,5.2-2.7,10.5-4.4,15.6
	c-4.1,12.3-13.1,19.2-25.3,22.4c-3,0.8-6.1,1.1-9.1,1.8c-0.8,0.2-1.7,0.7-2.1,1.3c-10.3,18.4-26.1,28.9-46.8,31.9
	c-16.9,2.4-33.2,0.4-48.2-8.6c-9.4-5.6-16.7-13.3-21.9-22.9c-0.6-1.1-1.3-1.8-2.7-1.9c-6.7-0.6-13.1-2.4-19-5.7
	c-7.7-4.3-12.8-10.8-15.4-19.3c-1.4-4.8-2.8-9.6-4.1-14.4c-2.7-9.9,4-18.5,14.3-18.6c5.7,0,11.4-0.1,17.1,0c1.5,0,2.2-0.4,2.1-2
	c-0.1-1.5,0-3.1,0-4.6c0.1-2.5,0.7-3.1,3.2-3.1c8,0,16-0.3,23.9-2.1c3.3-0.8,6.3-2.2,8.9-4.6c5-4.7,10.2-8.9,17.1-10.3
	c11.1-2.2,22.2-2.6,32.7,2.7c3,1.5,5.8,3.6,8.1,5.9c5,5.1,11.2,6.9,17.8,7.5c5.7,0.5,11.5,0.7,17.3,0.9c2,0.1,2.9,0.9,2.9,2.8
	C166,63.3,165.9,65.5,165.9,68z M38.7,63.1c0,1,0,1.9,0,2.7c0,9.8-0.1,19.6,0,29.3c0,3.9,0.2,7.8,0.8,11.5
	c3.3,19.6,13.7,34.1,31.7,42.7c14.5,6.9,29.8,7.6,45.3,4.2c25.6-5.5,44.1-28,44.7-54.2c0.2-11.5,0-22.9,0.1-34.4
	c0-1.7-0.7-2.1-2.2-2.1c-5.3-0.3-10.5-0.5-15.8-1.1c-6.7-0.8-12.8-2.8-17.8-7.7c-2.4-2.4-5.2-4.7-8.3-6.1
	c-10.1-4.8-20.7-4.4-31.3-1.5c-5.2,1.5-9.1,5.2-13,8.7c-3,2.7-6.4,4.7-10.3,5.3c-5.8,0.9-11.7,1.5-17.5,2.2C43.1,63,41,63,38.7,63.1
	z M38.2,121c-0.1-0.4-0.1-0.7-0.2-1c-3.4-8.9-4.2-18.1-4.1-27.5c0.1-5.9,0-11.8,0-17.7c0-1.1,0-2.1-1.6-2.1
	c-6.3,0.1-12.7-0.1-19,0.2c-6,0.3-9.9,5.9-8.5,11.8c1.3,5.3,2.8,10.6,4.5,15.8C13.1,111.5,22.5,119.2,38.2,121z M161.8,121.3
	c3.2-0.8,6.1-1.4,9-2.3c9.6-3,16.5-8.9,19.7-18.6c1.7-5.2,3.2-10.5,4.5-15.8c1.5-5.9-2.4-11.5-8.5-11.8c-6.1-0.3-12.2-0.1-18.3-0.3
	c-1.8,0-2.3,0.6-2.3,2.3c0.1,7.1,0.1,14.2,0,21.3c-0.1,4.2-0.4,8.4-1.1,12.6C164.2,112.9,162.9,116.8,161.8,121.3z"/>
<g>
	<path class="st1" d="M38.7,63.1c2.3-0.1,4.4-0.1,6.5-0.3c5.8-0.7,11.7-1.3,17.5-2.2C66.6,60,70,58,73,55.3c3.9-3.6,7.8-7.3,13-8.7
		c10.6-2.9,21.1-3.3,31.3,1.5c3,1.4,5.8,3.7,8.3,6.1c5,4.9,11.2,6.9,17.8,7.7c5.2,0.6,10.5,0.8,15.8,1.1c1.5,0.1,2.2,0.4,2.2,2.1
		c-0.1,11.5,0.1,22.9-0.1,34.4c-0.5,26.1-19.1,48.6-44.7,54.2c-15.5,3.4-30.8,2.7-45.3-4.2c-17.9-8.6-28.4-23.1-31.7-42.7
		c-0.6-3.8-0.8-7.7-0.8-11.5c-0.1-9.8,0-19.6,0-29.3C38.7,65,38.7,64.2,38.7,63.1z M102.8,135.3c4.5-0.6,12-1.3,19.4-2.6
		c8.8-1.6,17.2-4.8,24.6-10.1c1.4-1,2.1-2.3,1.1-3.8c-1.1-1.6-2.4-1-3.9-0.2c-4,2.2-7.9,4.7-12.1,6.2c-15.5,5.6-31.5,6.9-47.7,4.1
		c-10-1.7-19.6-4.3-28-10.3c-1.3-1-2.7-1.5-3.9,0.1c-0.9,1.2-0.5,2.8,1.3,3.9c3.5,2.1,7,4.2,10.7,5.8
		C75.5,133.3,87.6,134.8,102.8,135.3z M102,107.6c7.4-0.8,16.8-1.5,26.1-2.9c6.6-1,13-2.9,19.4-4.5c1.6-0.4,2.7-1.5,2.1-3.3
		c-0.6-1.7-2-1.7-3.5-1.2c-14.4,4.8-29.4,6.4-44.4,6.8c-13.3,0.3-26.5-1.5-39.5-4.4c-2.9-0.6-5.7-1.6-8.5-2.4
		c-1.4-0.4-2.8-0.4-3.4,1.1c-0.6,1.6,0.1,2.7,1.7,3.3c0.7,0.2,1.3,0.5,2,0.7C69.1,105.5,84.5,106.6,102,107.6z M100.1,74.3
		c-15.5,0-31.1,0-46.6,0c-0.5,0-1.1-0.2-1.4,0.1c-0.7,0.6-1.7,1.4-1.6,2c0,0.8,0.9,1.7,1.6,2.3c0.4,0.3,1.2,0.1,1.9,0.1
		c30.8,0,61.6,0,92.4,0c0.5,0,1.1,0.2,1.4-0.1c0.8-0.6,1.8-1.4,2-2.2c0.3-1.2-0.5-2.1-1.9-2.2c-0.7-0.1-1.4,0-2.1,0
		C130.5,74.3,115.3,74.3,100.1,74.3z"/>
	<path class="st1" d="M38.2,121c-15.7-1.8-25.1-9.4-28.7-20.5C7.8,95.3,6.3,90,5,84.7c-1.5-5.9,2.4-11.5,8.5-11.8
		c6.3-0.3,12.6-0.1,19-0.2c1.6,0,1.6,1,1.6,2.1c0,5.9,0.1,11.8,0,17.7c-0.2,9.4,0.6,18.7,4.1,27.5C38.2,120.2,38.2,120.5,38.2,121z"
		/>
	<path class="st1" d="M161.8,121.3c1.1-4.5,2.4-8.5,3-12.5c0.7-4.1,1-8.4,1.1-12.6c0.2-7.1,0.1-14.2,0-21.3c0-1.7,0.5-2.3,2.3-2.3
		c6.1,0.1,12.2-0.1,18.3,0.3c6,0.3,9.9,5.9,8.5,11.8c-1.3,5.3-2.8,10.6-4.5,15.8c-3.2,9.7-10.1,15.6-19.7,18.6
		C167.9,119.9,165,120.5,161.8,121.3z"/>
</g>
<path class="st0" d="M102.8,135.3c-15.2-0.5-27.2-2-38.6-6.8c-3.7-1.6-7.2-3.8-10.7-5.8c-1.8-1-2.2-2.7-1.3-3.9
	c1.2-1.5,2.5-1,3.9-0.1c8.4,6,18,8.6,28,10.3c16.2,2.8,32.2,1.4,47.7-4.1c4.2-1.5,8.1-4,12.1-6.2c1.4-0.8,2.8-1.4,3.9,0.2
	c1,1.5,0.3,2.8-1.1,3.8c-7.4,5.3-15.7,8.4-24.6,10.1C114.7,134.1,107.3,134.8,102.8,135.3z"/>
<path class="st0" d="M102,107.6c-17.5-1-33-2.1-47.9-6.8c-0.7-0.2-1.3-0.5-2-0.7c-1.6-0.5-2.3-1.7-1.7-3.3c0.6-1.5,1.9-1.6,3.4-1.1
	c2.8,0.9,5.6,1.8,8.5,2.4c13,2.9,26.2,4.7,39.5,4.4c15-0.4,30-2,44.4-6.8c1.5-0.5,2.9-0.4,3.5,1.2c0.6,1.8-0.4,2.9-2.1,3.3
	c-6.5,1.6-12.9,3.5-19.4,4.5C118.8,106.1,109.4,106.8,102,107.6z"/>
<path class="st0" d="M100.1,74.3c15.2,0,30.4,0,45.6,0c0.7,0,1.4,0,2.1,0c1.4,0.1,2.2,1,1.9,2.2c-0.2,0.9-1.2,1.6-2,2.2
	c-0.3,0.2-1,0.1-1.4,0.1c-30.8,0-61.6,0-92.4,0c-0.6,0-1.5,0.2-1.9-0.1c-0.7-0.6-1.5-1.5-1.6-2.3c0-0.7,0.9-1.5,1.6-2
	c0.3-0.3,1-0.1,1.4-0.1C69,74.3,84.5,74.3,100.1,74.3z"/>
</svg>
