<?xml version="1.0" encoding="UTF-8"?><svg id="Layer_1" xmlns="http://www.w3.org/2000/svg" viewBox="0 0 200 200"><defs><style>.cls-1{fill:#fff;}.cls-1,.cls-2{stroke-width:0px;}.cls-2{fill:#f60;}</style></defs><circle class="cls-2" cx="100" cy="100" r="100"/><path class="cls-1" d="m165,65.28c-.34,2.38-.62,4.77-1.04,7.13-1.29,7.36-3.63,14.33-7.95,20.51-5.68,8.15-13.45,12.79-23.35,13.71-2.22.21-4.47.11-6.71.06-.84-.02-1.38.16-1.91.86-3.64,4.81-7.92,8.9-13.37,11.65-.19.09-.36.25-.56.28-2.21.41-2.5,1.85-2.44,3.85.15,4.78.05,9.56.05,14.34,0,.46,0,.91,0,1.49h18.78v11.7h6.16v6.48h-65.33v-6.45h6.13v-11.7h18.75c.03-.48.08-.84.08-1.21,0-5.46,0-10.92,0-16.37,0-.67-.03-1.18-.81-1.49-6.24-2.48-11.06-6.78-15.07-12.04-.85-1.11-1.67-1.46-3.04-1.37-8.74.57-16.69-1.55-23.49-7.26-4.66-3.92-7.92-8.89-10.22-14.47-3.43-8.32-4.85-17.03-4.65-26.02,0-.16.04-.32.08-.59h25.68v-6.48h78.35v6.45c.67,0,1.16,0,1.64,0,7.57,0,15.15,0,22.72,0,.51,0,1.01.04,1.52.06v6.85Zm-94.96,33.03c-.91-1.9-1.77-3.58-2.53-5.31-3.51-7.98-5.2-16.4-6.06-25.02-.1-.96-.43-1.17-1.32-1.16-5.08.04-10.15.02-15.23.02-.32,0-.64.06-1.05.1.11.85.18,1.6.3,2.34,1.02,6.62,2.9,12.95,6.66,18.57,4.52,6.74,10.95,10.07,19.23,10.45Zm86.31-31.48c-5.12,0-9.85,0-14.58,0-3.15,0-3.09,0-3.44,3.17-1.03,9.22-3.18,18.13-7.46,26.43-.29.55-.55,1.12-.87,1.79.34.02.53.06.73.05,6.33-.41,11.83-2.66,16.14-7.44,3.97-4.41,6.24-9.71,7.7-15.37.71-2.77,1.16-5.6,1.78-8.62Z"/></svg>