<?xml version="1.0" encoding="UTF-8"?><svg id="Layer_1" xmlns="http://www.w3.org/2000/svg" viewBox="0 0 200 200"><defs><style>.cls-1{fill:#fff;}.cls-1,.cls-2{stroke-width:0px;}.cls-2{fill:#f60;}</style></defs><circle class="cls-2" cx="100" cy="100" r="100"/><path class="cls-1" d="m162.5,47.7v90.35c-.97,2.12-2.65,2.72-4.92,2.72-38.53-.04-77.05-.03-115.58-.03-3.18,0-4.5-1.33-4.5-4.53,0-28.85,0-57.7,0-86.55,0-3.37,1.27-4.65,4.63-4.65,38.49,0,76.97.01,115.46-.03,2.27,0,3.95.6,4.92,2.72Zm-47.93,41.51c4.51,0,9.03,0,13.54,0,5.24,0,10.49.02,15.73,0,2.02,0,3.55-1.41,3.74-3.31.19-1.82-1.08-3.55-2.93-3.93-.51-.11-1.05-.08-1.58-.08-18.95,0-37.89,0-56.84,0-.37,0-.73-.02-1.1.01-1.5.15-2.6.9-3.18,2.3-1.02,2.49.82,5,3.7,5.01,9.64.01,19.27,0,28.91,0Zm.06,21.98c-2.36,0-4.72,0-7.07,0-7.36,0-14.72,0-22.08,0-2.02,0-3.57,1.39-3.77,3.27-.2,1.82,1.04,3.55,2.9,3.95.51.11,1.05.09,1.58.09,18.5,0,37,0,55.5,0,.77,0,1.55.03,2.32,0,1.56-.08,2.71-.83,3.32-2.28,1.05-2.49-.79-5.03-3.65-5.03-9.68-.01-19.35,0-29.03,0Zm-40.27-3.54c0-2.4.01-4.8,0-7.19-.02-2.38-1.52-3.91-3.88-3.91-4.71-.02-9.43-.02-14.14,0-2.44,0-3.94,1.52-3.95,3.97-.01,4.67-.01,9.35,0,14.02,0,2.45,1.5,3.97,3.94,3.98,4.71.02,9.43.02,14.14,0,2.36,0,3.87-1.53,3.89-3.91.02-2.32,0-4.63,0-6.95Zm29.16-33.09c6.06,0,12.11,0,18.17,0,2.28,0,3.91-1.53,3.93-3.62.03-2.14-1.62-3.68-3.97-3.7-1.5-.01-3.01,0-4.51,0-10.45,0-20.89,0-31.34,0-1.65,0-2.95.55-3.71,2.05-1.28,2.51.54,5.26,3.51,5.28,5.97.02,11.95,0,17.92,0Zm.08,29.3c6.06,0,12.11.01,18.17,0,2.25,0,3.88-1.6,3.86-3.69-.02-2.05-1.62-3.62-3.81-3.62-12.11-.01-24.22-.02-36.34.02-.73,0-1.53.27-2.17.64-1.35.8-1.91,2.46-1.49,3.92.49,1.71,1.84,2.72,3.73,2.72,6.02.01,12.03,0,18.05,0Zm-41.77-25.24c-1-1.06-1.86-2.03-2.79-2.93-1.57-1.52-3.79-1.5-5.24-.02-1.39,1.42-1.39,3.66.07,5.16,1.78,1.84,3.59,3.65,5.43,5.43,1.51,1.47,3.65,1.52,5.15.05,3.71-3.65,7.38-7.34,11.04-11.04.91-.92,1.26-2.08.95-3.37-.7-2.87-4.08-3.77-6.24-1.64-2.75,2.7-5.46,5.45-8.37,8.36Z"/><path class="cls-1" d="m59.77,111.1v-7.17h7.22v7.17h-7.22Z"/><rect class="cls-1" x="84.64" y="148.12" width="30.73" height="7.2"/><path class="cls-1" d="m127.8,166.27c0,1.99-1.35,3.61-3.01,3.61h-49.6c-1.66,0-3.01-1.62-3.01-3.61s1.35-3.6,3.01-3.6h49.6c1.66,0,3.01,1.62,3.01,3.6Z"/></svg>