<?xml version="1.0" encoding="UTF-8"?><svg id="Layer_1" xmlns="http://www.w3.org/2000/svg" viewBox="0 0 200 200"><defs><style>.cls-1{fill:#fff;}.cls-1,.cls-2{stroke-width:0px;}.cls-2{fill:#f60;}</style></defs><circle class="cls-2" cx="100" cy="100" r="100"/><path class="cls-1" d="m60.31,39.74c24.89,0,49.78,0,74.67,0,.06.05.12.13.2.15,4.97,1.48,7.17,4.42,7.17,9.55,0,12.87,0,25.74,0,38.61v1.35c-2.36-.32-4.52-.77-6.7-.86-2.19-.09-4.42-.04-6.57.32-19.61,3.33-31.99,25.76-21.66,44.61.25.45.39,1.03.39,1.55.03,4.99.01,9.99.01,14.98,0,.45,0,.91,0,1.48-.45,0-.78,0-1.1,0-14.9,0-29.8,0-44.7,0-.51,0-1.02-.02-1.52-.11-4.61-.78-7.54-4.36-7.54-9.23,0-30.31,0-60.62,0-90.93,0-.97-.04-1.95.02-2.92.2-3.45,1.81-6.02,4.9-7.61.78-.4,1.63-.64,2.45-.96Zm34.16,28.45c5.67,0,11.34-.01,17.01,0,1.4,0,2.59-.39,3.49-1.48,1.06-1.29,1.29-2.75.57-4.27-.79-1.66-2.16-2.39-3.99-2.39-11.22.01-22.43,0-33.65,0-2.8,0-4.65,1.64-4.63,4.09.02,2.43,1.88,4.03,4.7,4.03,5.5,0,11,0,16.51,0Zm.12,8.13c-5.59,0-11.17,0-16.76,0-2.72,0-4.55,1.63-4.57,4.03-.02,2.4,1.83,4.1,4.51,4.1,11.21,0,22.43,0,33.64,0,2.68,0,4.53-1.7,4.51-4.1-.02-2.39-1.87-4.02-4.57-4.03-5.59,0-11.17,0-16.76,0Zm-7.06,24.38c3.26,0,6.52.01,9.78,0,2.57-.01,4.41-1.73,4.4-4.08,0-2.35-1.84-4.04-4.43-4.04-6.52,0-13.03,0-19.55,0-2.61,0-4.43,1.65-4.46,4.01-.03,2.4,1.82,4.11,4.49,4.11,3.26.01,6.52,0,9.78,0Z"/><path class="cls-1" d="m134.24,96.64c12.32.01,22.34,10.07,22.32,22.41-.03,12.31-10.11,22.33-22.45,22.29-12.26-.04-22.25-10.08-22.25-22.35,0-12.33,10.04-22.36,22.38-22.35Zm-3.19,23.03c-1.01-.66-1.93-1.32-2.91-1.89-1.93-1.12-4.28-.54-5.46,1.29-1.16,1.79-.8,4.15.98,5.42,2.09,1.5,4.24,2.93,6.43,4.29,1.83,1.14,4.1.75,5.31-1.01,2.87-4.18,5.68-8.4,8.42-12.66,1.07-1.66.65-3.63-.78-4.95-1.38-1.27-3.33-1.5-4.9-.41-.67.47-1.21,1.17-1.68,1.86-1.81,2.64-3.58,5.32-5.41,8.06Z"/><path class="cls-1" d="m115.93,143.51c12.27,7.96,24.32,7.95,36.5.05.03.33.07.64.07.95,0,6.9.01,13.79,0,20.69,0,3.86-3.16,5.68-6.54,3.77-3.57-2.02-7.14-4.04-10.67-6.12-.81-.48-1.39-.44-2.18.02-3.5,2.05-7.03,4.05-10.56,6.05-3.52,1.99-6.62.17-6.63-3.88,0-6.77,0-13.54,0-20.31v-1.24Z"/></svg>