<?xml version="1.0" encoding="UTF-8"?><svg id="Layer_1" xmlns="http://www.w3.org/2000/svg" viewBox="0 0 200 200"><defs><style>.cls-1{fill:#fff;}.cls-1,.cls-2{stroke-width:0px;}.cls-2{fill:#f60;}</style></defs><circle class="cls-2" cx="100" cy="100" r="100"/><path class="cls-1" d="m138.06,108.07h-.74c-1.23.17-2.47.28-3.7.51-7.38,1.31-13.6,4.78-18.61,10.34-4.72,5.24-7.39,11.41-8.17,18.41-.05.46-.11.92-.16,1.38v3.81c.17,1.24.28,2.48.51,3.7.38,2.04.91,3.99,1.59,5.82-22.44,0-44.87,0-67.31,0-3.24,0-5.16-1.83-5.05-5.03.76-22.13,10.72-38.86,29.59-50.34.28-.18.58-.32.87-.47.09-.05.18-.07.33-.13,15.78,14.57,39.62,14.6,55.52-.07,1.38.84,2.85,1.64,4.22,2.57,4.2,2.9,7.91,6.07,11.11,9.5Z"/><path class="cls-1" d="m63.41,66.48c-.01-17.31,14.14-31.47,31.48-31.48,17.35-.01,31.51,14.1,31.53,31.43.03,16.95-14.61,31.58-31.59,31.59-17.29,0-31.41-14.16-31.42-31.54Z"/><path class="cls-1" d="m114.84,142.05c0-.95,0-1.91,0-2.86.04-.34.08-.69.12-1.03.58-5.25,2.59-9.88,6.12-13.8,3.75-4.17,8.41-6.77,13.94-7.75.92-.16,1.85-.25,2.77-.38.95,0,1.91,0,2.86,0,.82.1,1.64.18,2.45.31,5.09.85,9.53,3.04,13.18,6.69,5.48,5.47,7.89,12.13,7.19,19.83-.47,5.17-2.49,9.74-5.95,13.63-4.59,5.16-10.37,7.94-17.27,8.27-4.81.23-9.33-.89-13.45-3.4-6.33-3.86-10.21-9.45-11.58-16.76-.17-.91-.26-1.84-.38-2.77Zm20.66,2.67c-.98-.9-1.87-1.71-2.75-2.52-1.35-1.23-2.66-2.5-4.06-3.67-1.31-1.09-3.32-.38-3.72,1.25-.25,1.04.09,1.89.88,2.6,2.62,2.38,5.24,4.76,7.85,7.15,1.29,1.18,2.56,1.15,3.81-.09,5.01-4.98,10.03-9.95,15.04-14.93.16-.16.32-.31.46-.48,1.12-1.34.54-3.37-1.13-3.9-1.08-.34-1.94.03-2.71.8-4.44,4.45-8.89,8.89-13.33,13.34-.12.12-.2.28-.32.45Z"/></svg>