<?xml version="1.0" encoding="UTF-8"?><svg id="Icons" xmlns="http://www.w3.org/2000/svg" viewBox="0 0 48 48"><defs><style>.cls-1{fill:#fff;}</style></defs><path class="cls-1" d="m32.97,29.03v-3.62h-2.03v-7.65h1.09v-2.34h-1.25s0-2.34-1.56-4.37c-1.56-2.03-3.43-2.97-3.43-2.97v-4.06h-.94V.6h-1.72v3.44h-.94v4.06s-1.87.94-3.43,2.97c-1.56,2.03-1.56,4.37-1.56,4.37h-1.25v2.34h1.09v7.65h-2.03v3.62H0v18.37h2.54v-8.07h1.48v8.07h1.48v-8.07h1.48v8.07h1.48v-8.07h1.49v8.07h4.45v-8.07h1.48v8.07h1.48v-8.07h1.49v8.07h1.48v-8.07h1.49v8.07h1.48v-8.07h1.49v8.07h1.48v-8.07h1.49v8.07h1.48v-8.07h1.49v8.07h1.48v-8.07h1.49v8.07h4.45v-8.07h1.49v8.07h1.48v-8.07h1.49v8.07h1.48v-8.07h1.49v8.07h2.41v-18.37h-15.03Zm-28.94,8.82h-1.48v-2.37h1.48v2.37Zm2.97,0h-1.49v-2.37h1.49v2.37Zm20.98-20.08h1.14v7.57h-1.14v-7.57Zm-2.27,0h1.13v7.57h-1.13v-7.57Zm-2.27,0h1.13v7.57h-1.13v-7.57Zm-2.27,0h1.13v7.57h-1.13v-7.57Zm-2.27,0h1.13v7.57h-1.13v-7.57Zm-8.94,20.08h-1.48v-2.37h1.48v2.37Zm5.94,0h-1.49v-2.37h1.49v2.37Zm2.97,0h-1.49v-2.37h1.49v2.37Zm2.97,0h-1.48v-2.37h1.48v2.37Zm2.97,0h-1.49v-2.37h1.49v2.37Zm2.97,0h-1.49v-2.37h1.49v2.37Zm2.97,0h-1.49v-2.37h1.49v2.37Zm2.97,0h-1.48v-2.37h1.48v2.37Zm-19.41-4.04l9.66-2.83,9.9,2.83H14.31Zm25.35,4.04h-1.49v-2.37h1.49v2.37Zm2.97,0h-1.48v-2.37h1.48v2.37Zm2.97,0h-1.49v-2.37h1.49v2.37Z"/></svg>