<?xml version="1.0" encoding="UTF-8"?><svg id="Icons" xmlns="http://www.w3.org/2000/svg" viewBox="0 0 48 48"><defs><style>.cls-1{fill:#fff;}</style></defs><g><path class="cls-1" d="m36.15,41.75c-.52-.4-1.04-.82-1.57-1.24-.44-.35-.88-.7-1.32-1.05-2.66-2.08-5.42-3.97-8.5-4.25-.25-.02-.51-.04-.77-.04s-.51.03-.77.06c-3.08.28-5.86,2.16-8.52,4.25.09.07.19.15.28.22.32.26.64.51.96.76,2.65-2.05,5.23-3.75,8.05-3.75s5.38,1.68,8.02,3.73c.53.41,1.07.84,1.61,1.27.43.34.86.68,1.29,1.02,2.89,2.26,5.9,4.31,9.3,4.31,1.32,0,2.58-.31,3.79-.82v-1.68c-1.23.59-2.49.96-3.79.96-2.82,0-5.4-1.7-8.06-3.75Z"/><path class="cls-1" d="m44.23,35.18c-3.4,0-6.42,2.05-9.32,4.31.09.07.18.14.27.21.33.26.65.51.98.77.96-.74,1.91-1.44,2.87-2.02v4.13c.51.34,1.03.65,1.54.91v-5.87c.95-.44,1.91-.75,2.9-.85v7.65c.24.03.47.05.71.05.28,0,.55-.03.83-.06v-7.65c1.03.11,2.02.44,3,.91v-1.68c-1.21-.5-2.46-.81-3.77-.81Z"/><path class="cls-1" d="m11.81,41.77c-2.64,2.05-5.23,3.74-8.04,3.74-1.3,0-2.54-.39-3.77-1.02v1.69c1.21.53,2.46.86,3.77.86,3.39,0,6.4-2.04,9.28-4.29-.1-.08-.21-.16-.31-.24-.31-.25-.62-.49-.94-.74Z"/><path class="cls-1" d="m32.01,41.78c-.94.73-1.88,1.41-2.82,1.98v-4.06c-.52-.34-1.03-.65-1.54-.91v5.71s.01.06.02.09c-.96.45-1.92.76-2.91.87v-7.64c-.27-.04-.54-.06-.81-.06-.25,0-.49.03-.73.06v7.66c-1-.11-1.97-.41-2.92-.86,0-.04.02-.07.02-.11v-5.75c-.51.26-1.02.57-1.54.91v4.12c-1.48-.9-2.94-2.07-4.45-3.27-3.28-2.62-6.68-5.33-10.59-5.33-1.3,0-2.55.29-3.75.76v1.66c.98-.43,1.97-.74,2.98-.84v7.67h0c.25.03.51.06.77.06s.51-.03.77-.06v-7.67c.99.11,1.96.41,2.92.86,0,.03-.02.07-.02.11v5.74c.51-.27,1.02-.57,1.54-.91v-4.1c1.47.9,2.93,2.06,4.43,3.26,3.29,2.62,6.68,5.33,10.59,5.33,3.39,0,6.4-2.04,9.28-4.28-.11-.08-.21-.17-.32-.25-.31-.25-.62-.48-.93-.73Z"/></g><g><g><path class="cls-1" d="m36.63,6.33c1.49,0,2.69-1.2,2.69-2.69s-1.2-2.69-2.69-2.69-2.69,1.21-2.69,2.69,1.2,2.69,2.69,2.69Z"/><path class="cls-1" d="m30.81,18.37c.86,0,1.55-.69,1.55-1.55v-7.26h.61v22.52c0,.86.69,1.55,1.55,1.55s1.55-.69,1.55-1.55v-11.9h1.14v11.9c0,.86.69,1.55,1.55,1.55s1.55-.69,1.55-1.55V9.56h.61v7.26c0,.85.69,1.55,1.55,1.55s1.55-.69,1.55-1.55v-6.61c0-1.58-.8-3-2.52-3h-9.72c-1.87,0-2.51,1.63-2.51,3v6.61c0,.85.69,1.55,1.55,1.55Z"/></g><path class="cls-1" d="m20.17,19.25l5.11-5.11c1.83-1.83,1.83-4.82,0-6.66l-.15-.14c-1.83-1.84-4.82-1.84-6.66,0l-5.11,5.11-.8-.8-6.88,6.88c-2.26,2.26-2.26,5.95,0,8.21l.19.19c2.26,2.26,5.95,2.26,8.21,0l6.88-6.88-.8-.8Zm-.61-10.83c1.24-1.24,3.25-1.24,4.49,0l.07.07-7.36,7.36-2.32-2.32,5.11-5.11Zm-12.79,11.19l5.79-5.79,3.12,3.12-8.82,8.82-.09-.09c-1.67-1.67-1.67-4.38,0-6.05Z"/></g></svg>