<?xml version="1.0" encoding="UTF-8"?><svg id="Icons" xmlns="http://www.w3.org/2000/svg" viewBox="0 0 48 48"><defs><style>.cls-1{fill:#fff;}</style></defs><path class="cls-1" d="m19.45,35.98c2.52,0,4.57,2.05,4.57,4.57s-2.05,4.57-4.57,4.57-4.57-2.05-4.57-4.57,2.05-4.57,4.57-4.57Z"/><circle class="cls-1" cx="43.43" cy="40.55" r="4.57"/><path class="cls-1" d="m15.59,27.45s.03.1.04.14l-.04-.14Z"/><path class="cls-1" d="m11.07,29.01l-.04-.14s.03.09.04.14Z"/><path class="cls-1" d="m48,8.25H9.93l-1.59-5.37H0l.9,3.03h3.37l6.76,22.95.04.14c1.08,3.39,4.26,5.86,8,5.86h28.92v-4.77h-28.92c-1.61,0-2.97-1.05-3.45-2.5-.02-.05-.03-.1-.04-.14l-.2-.67,32.61-6.38v-12.15Z"/></svg>