<?xml version="1.0" encoding="UTF-8"?><svg id="Icons" xmlns="http://www.w3.org/2000/svg" viewBox="0 0 48 48"><defs><style>.cls-1{fill:#fff;}</style></defs><g id="Layer_1"><path class="cls-1" d="m37.76,35.59c0,.05,0,.1,0,.16,0,5.31-4.33,9.64-9.64,9.64s-9.64-4.33-9.64-9.64c0-3.21,1.58-6.06,4-7.81l-.33-2.88c-3.75,2.1-6.29,6.1-6.29,10.7,0,6.75,5.5,12.25,12.25,12.25,5.73,0,10.54-3.95,11.88-9.27l-2.25-3.14Z"/><path class="cls-1" d="m26.55,12.17c1.72,0,3.12,1.39,3.12,3.12s-1.39,3.12-3.12,3.12-3.12-1.4-3.12-3.12,1.4-3.12,3.12-3.12Z"/><path class="cls-1" d="m46.65,39.43l-6.99-9.78c-.37-.51-.98-.75-1.6-.7-.05,0-.09,0-.14,0h-7.99l-.2-1.74h5.94c.69,0,1.25-.56,1.25-1.25s-.56-1.25-1.25-1.25h-6.22l-.32-2.86c-.19-1.67-1.7-2.87-3.37-2.68-1.67.19-2.87,1.7-2.68,3.37l.92,8.07c.18,1.56,1.5,2.71,3.04,2.7,0,0,0,0,.02,0h10.45l6,8.39c.57.8,1.74.95,2.61.32.87-.62,1.11-1.78.54-2.58Z"/><path class="cls-1" d="m5.51,1.06c-1.42,1.42-1.41,3.72,0,5.13,1.42,1.42,3.71,1.41,5.13,0,1.42-1.42,1.42-3.71,0-5.13-1.42-1.42-3.72-1.42-5.13,0Z"/><path class="cls-1" d="m8.22,44.03c.09.88-.44,1.72-1.31,2.01-.99.33-2.06-.22-2.37-1.21,0,0,0-.02,0-.03l3.74-3.44-.05,2.66Z"/><polygon class="cls-1" points="8.4 34.64 4.19 38.96 3.97 26.39 8.45 32.89 8.4 34.64"/><path class="cls-1" d="m2.21,41.76l7.54-7.93-5.78-8.25h-.01s0,0,0,0c0,0-.81-.48-.83-2.85-.03-3.28-.29-11.88-.29-11.88.21-1.83,1.86-2.62,1.86-2.62,1.8-.91,3.36.57,3.36.57l11.07,11.06c.59.59.59,1.55,0,2.15-.6.6-1.56.6-2.15.01l-7.65-7.62-.02,6.45c0,.08-.01.16-.02.24,0,0,0,0,0,0l-.19,2.78,4.51,9.13c.7,1.32-.05,2.91-.97,3.75-.92.83-.01.02-.01.02l-4.35,4h0l-4.48,4.12-.43.39c-1.95,1.93-3.49-.94-1.17-3.5Z"/></g></svg>