<?xml version="1.0" encoding="UTF-8"?><svg id="Icons" xmlns="http://www.w3.org/2000/svg" viewBox="0 0 48 48"><defs><style>.cls-1{fill:#fff;}</style></defs><g id="Layer_2_copy"><g><path class="cls-1" d="m39.42,6.51h4.46l2.22-2.46h-14.07c-5.13,0-5.46,2.15-4.64,3.39.83,1.24,2.24,4.3.25,4.3h-2.69v-6.25c0-.07,0-.14-.02-.21,1.05-.38,1.8-1.38,1.8-2.57,0-1.51-1.22-2.73-2.73-2.73s-2.73,1.22-2.73,2.73c0,1.18.75,2.19,1.8,2.57-.01.07-.02.13-.02.21v6.25h-2.69c-1.99,0-.58-3.06.25-4.3.83-1.24.5-3.39-4.63-3.39H1.9l2.22,2.46h4.46c.31,0,.56.25.56.56s-.25.56-.56.56h-3.45l2.22,2.45h4.45c.31,0,.56.25.56.56s-.25.56-.56.56h-3.44l2.22,2.45h12.46v11.62c.12.04.25.07.4.12.44.13.87.27,1.3.4.07.02.14.05.21.07,1.16.38,2.24.77,3.02,1.07,4.19-1.24,8.32-2.75,8.32-5.5s-1.3-4.3-3.66-4.45c-.11,0-.23-.01-.34-.02-.02,0-.04,0-.05,0-.01,0-.02,0-.03,0-.37,0-.76.05-1.16.14-1.84.42-3.88,2.65-3.62,3.75.25,1.1,2.69.66,4.53.24.53-.12,1.01-.31,1.43-.54.68.84.68,1.99-1.94,3.05-.18.07-.35.14-.5.21-1.61.61-3.48,1.2-5.18,1.68-.27.08-.54.16-.8.23v-12.08h12.46l2.22-2.45h-3.44c-.31,0-.56-.25-.56-.56s.25-.56.56-.56h4.45l2.22-2.45h-3.45c-.31,0-.56-.25-.56-.56s.25-.56.56-.56Zm-7.71,13.33c-.66.11-1.29-.38-1.34-.7-.05-.32.49-.36,1.14-.47.66-.11,1.18-.26,1.23.06.06.32-.38.99-1.04,1.1Z"/><path class="cls-1" d="m27.4,35.56c2.26-.93,3.75-2.1,3.75-4.12s-1.62-3.3-3.78-4.24c-.77-.28-1.58-.57-2.41-.85-.62-.21-1.26-.41-1.9-.61-.26-.08-.53-.16-.8-.24,0,0-.01,0-.02,0-1.7-.49-3.58-1.07-5.18-1.68-.16-.07-.33-.14-.5-.21-2.62-1.06-2.62-2.21-1.94-3.05.41.23.9.42,1.42.54,1.84.42,4.29.86,4.54-.24.25-1.1-1.78-3.33-3.62-3.75-.4-.09-.79-.13-1.16-.14,0,0-.02,0-.03,0-.02,0-.04,0-.05,0-.12,0-.23,0-.34.01-2.36.16-3.66,1.72-3.66,4.45,0,2.91,4.63,4.43,9.06,5.71,0,0,0,0,0,0,.93.28,1.68.51,1.81.53.2.04,0,.34-.92.08-.4-.12-.94-.25-1.46-.36-1.94.92-3.34,2.14-3.34,4.04,0,2.18,1.74,3.37,4.32,4.34,0,0,0,0,0,0,.68.27,1.25.49,1.34.52.12.04-.02.21-.59,0-.28-.11-.66-.23-1.02-.34-.78.53-1.33,1.16-1.69,1.87-.99,1.95,1.28,4.92,1.82,4.59.47-.28-.69-2.58.01-3.81.33-.57.97-1.12,2.03-1.56v10c0,.53.43.95.95.95s.95-.42.95-.95v-9.99c1.05.45,1.69.99,2.01,1.56.71,1.23-.46,3.53.01,3.81.54.33,2.81-2.64,1.82-4.59-.4-.79-1.03-1.47-1.95-2.04-.51-.25-1.16-.53-1.89-.82-.29-.12-.6-.23-.92-.35-.01,0-.03,0-.04.01-.34-.1-.65-.2-.95-.3-3.12-1.02-4.22-1.81-4.22-2.89s1.21-2.01,4.22-3.04v5.53c.12.03.25.06.4.11.36.11.75.24,1.17.39.11-.04.23-.07.34-.11v-5.92c3,1.03,4.21,1.92,4.21,3.04s-1.1,1.86-4.21,2.88v.23c.76.28,1.6.61,2.45,1Zm-10.93-16.89c.66.11,1.2.15,1.14.47-.05.32-.69.81-1.34.7s-1.09-.78-1.04-1.1c.05-.32.58-.17,1.24-.06Z"/></g></g></svg>