<?xml version="1.0" encoding="UTF-8"?><svg id="Icons" xmlns="http://www.w3.org/2000/svg" viewBox="0 0 48 48"><defs><style>.cls-1{fill:#fff;}</style></defs><path class="cls-1" d="m24,25.98c3.59,0,5.26,2.73,5.61,6.6.08.93,0,2.28-.12,3.84-.4,5.2-.87,11.58,2.59,11.58,2.93,0,4.43-5.61,5.3-12.01.84-6.33-.05-9.49.39-12.3.83-5.33,5.48-10.11,4.05-16.9-.8-3.77-2.87-5.54-4.93-6.29-4.74-1.72-7.79,1.6-12.88,1.6S15.86-1.23,11.12.5c-2.05.75-4.13,2.52-4.93,6.29-1.43,6.79,3.22,11.57,4.05,16.9.44,2.81-.45,5.97.39,12.3.87,6.4,2.37,12.01,5.3,12.01,3.46,0,3-6.38,2.59-11.58-.12-1.56-.21-2.91-.12-3.84.35-3.87,2.04-6.6,5.61-6.6Z"/></svg>