<?xml version="1.0" encoding="UTF-8"?><svg id="Icons" xmlns="http://www.w3.org/2000/svg" viewBox="0 0 48 48"><defs><style>.cls-1{fill:#fff;}</style></defs><path class="cls-1" d="m48,9.66v28.09c0,1.06-.86,1.92-1.91,1.92s-1.92-.86-1.92-1.92l1.06-11.37c0-.5-.19-.96-.51-1.3-.33-.36-.55-.82-.55-1.35v-7.88s-.17-7.46,2.55-7.46c.7,0,1.27.57,1.27,1.27Z"/><path class="cls-1" d="m6.45,17.95l-.84-9.35c-.02-.14-.14-.25-.28-.25-.16,0-.28.13-.28.28l.07,8.74c0,.21-.17.39-.39.39s-.39-.17-.39-.39l-.14-8.74c0-.16-.13-.28-.28-.28s-.28.13-.28.28v8.74c0,.22-.17.39-.39.39s-.39-.17-.39-.39v-8.74c0-.16-.13-.28-.28-.28s-.28.13-.28.28l-.14,8.74c0,.22-.17.39-.39.39s-.39-.17-.39-.39l.07-8.74c0-.16-.13-.28-.28-.28-.15,0-.27.11-.28.25L.03,17.95c-.02.14-.03.28-.03.42,0,.63.18,1.22.5,1.72h0s1.26,2.01,1.26,2.01c.27.47.42,1.01.42,1.6l-.85,13.99c0,1.06.86,1.91,1.91,1.91s1.91-.85,1.91-1.91l-.85-13.99c0-.58.16-1.13.43-1.6l1.26-2.01h0c.31-.5.49-1.09.49-1.72,0-.14,0-.29-.03-.42Z"/><path class="cls-1" d="m24.86,8.34c-8.64,0-15.64,7-15.64,15.65s7,15.64,15.64,15.64,15.64-7,15.64-15.64-7-15.65-15.64-15.65Z"/></svg>