<?xml version="1.0" encoding="UTF-8"?><svg id="Icons" xmlns="http://www.w3.org/2000/svg" viewBox="0 0 48 48"><defs><style>.cls-1{fill:#fff;}</style></defs><path class="cls-1" d="m48,4.18s-1.29,1.35-2.26,1.81c-.97.45-2.51-1.1-6.26-1.1s-7.35,6-7.8,7.22c-.04.1-.07.19-.11.28l-.33.63c-.39.6-.88.89-1.56.89h-1.31s-14.73,0-14.73,0h0s-1.7,0-1.7,0c-.92,0-1.76.26-2.48.68-2.26-.35-5.63-.18-6.94,1.07C1.16,16.96,0,18.57,0,22.18v8.71c2.51-2.07,3.67-5.23,3.67-8.52s1.23-7.61,4.58-6.9l.12-.07c-1.48,1.38-2.31,3.41-2.31,4.71,0,2.13.65,3.55,2.71,6.32l.03.43-2.05,2.68c-.09.12-.16.26-.2.4l-3.35,11.16c-.2.66.18,1.35.83,1.55.12.04.24.05.35.05.54,0,1.03-.34,1.19-.88l3.29-10.95.41-.53,4.57-2.21-.42,1.98c-.03.16-.03.33,0,.49l2.19,11.23c.11.59.63,1,1.22,1,.08,0,.16,0,.24-.02.67-.13,1.11-.78.98-1.46l-2.14-10.98.72-3.43c.01-.05.01-.12.02-.17l.44-.21,17.42.71-4.48,14.93c-.2.66.18,1.35.83,1.54.12.04.24.05.35.05.53,0,1.03-.35,1.19-.88l4.4-14.66,4.51,2.9-.17,7.05c-.02.68.53,1.25,1.21,1.27h.03c.67,0,1.22-.54,1.24-1.21l.19-7.74c.01-.43-.21-.84-.57-1.08l-6.32-4.06.22-.44s3.71-11.42,3.81-11.68c.26-.71.9-.71.97,0,.07.71.97,2.26,2,3.03-.3,1.36-.17,2.2-.17,2.2.13.93.73,1.16,1.91,1.16,1.81,0,1.74-1.16,1.74-1.94s.58-13.55.58-13.55Z"/></svg>