<?xml version="1.0" encoding="UTF-8"?><svg id="Icons" xmlns="http://www.w3.org/2000/svg" viewBox="0 0 48 48"><defs><style>.cls-1{fill:#fff;}</style></defs><path class="cls-1" d="m24,14.98c.3,0,.6,0,.9,0v-1.71h-1.81v1.71c.3,0,.6,0,.91,0Z"/><path class="cls-1" d="m24,15.29c-11.22,0-20.35,7.15-20.35,15.95,0,.3.25.55.55.55h39.59c.3,0,.55-.25.55-.55,0-8.79-9.13-15.95-20.35-15.95ZM4.21,31.23c0-8.5,8.86-15.4,19.79-15.4s19.79,6.89,19.79,15.4H4.21Z"/><path class="cls-1" d="m45.49,35.64c-.5-.26-1.11-.59-1.11-.82v-1.23c0-.3-.25-.55-.55-.55h-18.92v-.95h-1.81v.95H4.17c-.3,0-.55.27-.55.57v1.21c0,.23-.62.56-1.11.82-1.06.56-2.51,1.33-2.51,3.06,0,.3.25.55.55.55h46.9c.31,0,.55-.25.55-.55,0-1.73-1.45-2.5-2.51-3.06Z"/><path class="cls-1" d="m24.02,8.75h-.04c-.52,0-5.56.06-5.6,1.16-.05,1.17,4.53.21,4.56,2.01h2.13c.02-1.8,4.6-.84,4.56-2.01-.04-1.1-5.08-1.16-5.6-1.16Z"/><path class="cls-1" d="m26.01,12.61c0,.24-.2.44-.44.44h-3.15c-.24,0-.44-.2-.44-.44h0c0-.24.2-.44.44-.44h3.15c.24,0,.44.2.44.44h0Z"/><path class="cls-1" d="m24,18.66c5.82,0,10.98,1.38,14.22,3.51-1.4-3.24-7.24-5.67-14.22-5.67s-12.82,2.43-14.23,5.67c3.25-2.13,8.41-3.51,14.23-3.51Z"/></svg>