<?xml version="1.0" encoding="UTF-8"?><svg id="Icons" xmlns="http://www.w3.org/2000/svg" viewBox="0 0 48 48"><defs><style>.cls-1{fill:#fff;}</style></defs><path class="cls-1" d="m22.6,16.02c2.04,0,3.7-1.66,3.7-3.7,0-2.05-1.65-3.7-3.7-3.7-2.04,0-3.7,1.65-3.7,3.7,0,2.04,1.66,3.7,3.7,3.7h0Z"/><path class="cls-1" d="m21.35,22.83l2.52,3.61c.37.55,1,.75,1.52.74h6.66c2.16,0,2.29-3.29-.04-3.29h-5.76l-3.33-4.85c-.96-1.36-2.15-1.98-3.65-1.98-2.25,0-3.76,1.59-4.15,2.84-.3.97-1.91,6.28-2.63,8.63h7.74l1.12-5.7Z"/><path class="cls-1" d="m40.48,32.24c2.05,0,3.7-1.65,3.7-3.7,0-2.04-1.65-3.7-3.7-3.7-2.04,0-3.7,1.66-3.7,3.7,0,2.04,1.66,3.7,3.7,3.7Z"/><path class="cls-1" d="m33.91,34.96c0,.53-.43.96-.96.96H.97C.43,35.93,0,35.49,0,34.96H0c0-.53.43-.97.97-.97h31.98c.53,0,.96.43.96.97h0Z"/><path class="cls-1" d="m45.14,30.88l-4.66,4.66-5.9-5.9c-.27-.27-.56-.42-.85-.48l-.03-.04H2.16c-2.86,0-2.89,4.15-.06,4.15l31.57.09,5.43,5.43h.01c.35.35.83.57,1.37.57s1.02-.22,1.37-.57h0l5.63-5.63c1.53-1.52-.71-3.94-2.35-2.29Z"/></svg>