<?xml version="1.0" encoding="UTF-8"?><svg id="Icons" xmlns="http://www.w3.org/2000/svg" viewBox="0 0 48 48"><defs><style>.cls-1{fill:#fff;}</style></defs><path class="cls-1" d="m48,.01c-2.91,0-6.61,1.9-10.11,4.41l-7.26,7.21-8.98-.84.97-.98c.13-.13.13-.35,0-.48l-.88-.89c-.13-.13-.35-.13-.48,0l-2.1,2.1-4.61-.44,1.05-1.05c.13-.13.13-.36,0-.5l-.88-.87c-.13-.13-.35-.13-.48,0l-2.19,2.19-7.59-.71-2.4,2.57,8.19,2.55,7.16,2.64,4.84,3.05-6.81,6.76c-2.3,3.04-4.18,5.96-5.61,8.38l-8.73-.67-1.09,1.09,7.29,4.16c-.43.85-.67,1.35-.67,1.35,0,0,.51-.23,1.35-.64l4,7.56,1.02-1.02-.39-9.04c2.43-1.42,5.36-3.26,8.42-5.57l6.78-6.8,2.87,4.49,2.71,6.99,2.75,8.74,2.49-2.46-.8-8.64,1.7-1.7c.13-.13.13-.36,0-.5l-.88-.87c-.13-.13-.35-.13-.48,0l-.57.57-.3-3.24,2.23-2.24c.13-.13.13-.35,0-.48l-.88-.88c-.13-.13-.35-.13-.48,0l-1.11,1.11-.85-9.27,7.42-7.44c2.5-3.41,4.4-6.98,4.4-9.74Z"/></svg>