<?xml version="1.0" encoding="UTF-8"?><svg id="Icons" xmlns="http://www.w3.org/2000/svg" viewBox="0 0 48 48"><defs><style>.cls-1{fill:#fff;}</style></defs><path class="cls-1" d="m37.96,15.47h-.29c-.65,0-1.17.47-1.17,1.06v14.94c0,.59.53,1.06,1.17,1.06h.29c.65,0,1.17-.47,1.17-1.06v-14.94c0-.59-.53-1.06-1.17-1.06Z"/><path class="cls-1" d="m41.92,16.66h-.66c-.58,0-1.06.47-1.06,1.06v11.9c0,.58.47,1.06,1.06,1.06h.66c.58,0,1.06-.47,1.06-1.06v-11.9c0-.58-.48-1.06-1.06-1.06Z"/><polygon class="cls-1" points="44.83 22.68 44.83 20.93 43.72 20.93 43.72 21.42 43.72 26.22 44.8 26.22 44.8 24.83 48 24.83 48 22.68 44.83 22.68"/><path class="cls-1" d="m10.33,15.47h-.29c-.65,0-1.18.47-1.18,1.06v14.94c0,.59.53,1.06,1.18,1.06h.29c.65,0,1.18-.47,1.18-1.06v-14.94c0-.59-.53-1.06-1.18-1.06Z"/><path class="cls-1" d="m6.74,17.32h-.66c-.58,0-1.06.47-1.06,1.06v11.9c0,.58.47,1.06,1.06,1.06h.66c.58,0,1.06-.47,1.06-1.06v-11.9c0-.58-.47-1.06-1.06-1.06Z"/><polygon class="cls-1" points="3.19 22.68 0 22.68 0 24.83 3.17 24.83 3.17 26.22 4.27 26.22 4.27 20.93 3.19 20.93 3.19 22.68"/><polygon class="cls-1" points="34.75 22.66 16.26 22.66 15.69 22.66 13.09 22.66 13.09 20.94 11.99 20.94 11.99 21.16 11.99 26.27 13.07 26.27 13.07 24.82 15.69 24.82 16.26 24.82 34.73 24.82 34.73 26.22 35.83 26.22 35.83 20.93 34.75 20.93 34.75 22.66"/></svg>