<?xml version="1.0" encoding="utf-8"?>
<!-- Generator: Adobe Illustrator 27.8.1, SVG Export Plug-In . SVG Version: 6.00 Build 0)  -->
<!DOCTYPE svg PUBLIC "-//W3C//DTD SVG 1.1//EN" "http://www.w3.org/Graphics/SVG/1.1/DTD/svg11.dtd" [
	<!ENTITY ns_extend "http://ns.adobe.com/Extensibility/1.0/">
	<!ENTITY ns_ai "http://ns.adobe.com/AdobeIllustrator/10.0/">
	<!ENTITY ns_graphs "http://ns.adobe.com/Graphs/1.0/">
	<!ENTITY ns_vars "http://ns.adobe.com/Variables/1.0/">
	<!ENTITY ns_imrep "http://ns.adobe.com/ImageReplacement/1.0/">
	<!ENTITY ns_sfw "http://ns.adobe.com/SaveForWeb/1.0/">
	<!ENTITY ns_custom "http://ns.adobe.com/GenericCustomNamespace/1.0/">
	<!ENTITY ns_adobe_xpath "http://ns.adobe.com/XPath/1.0/">
]>
<svg version="1.1" id="Layer_1" xmlns:x="&ns_extend;" xmlns:i="&ns_ai;" xmlns:graph="&ns_graphs;"
	 xmlns="http://www.w3.org/2000/svg" xmlns:xlink="http://www.w3.org/1999/xlink" x="0px" y="0px" width="500px" height="500px"
	 viewBox="0 0 500 500" style="enable-background:new 0 0 500 500;" xml:space="preserve">
<style type="text/css">
	.st0{fill:#FF6600;}
	.st1{fill:#FFFFFF;}
</style>
<metadata>
	<sfw  xmlns="&ns_sfw;">
		<slices></slices>
		<sliceSourceBounds  bottomLeftOrigin="true" height="500" width="500" x="520" y="-500"></sliceSourceBounds>
	</sfw>
</metadata>
<path class="st0" d="M0,0v500h500V0H0z M354.379,331.7957v-55.243c0-13.7892-11.22-25.0092-25.0092-25.0092h-32.5089
	c-16.782,27.1665-46.5471,43.874-78.6656,43.874c-32.1166,0-61.8818-16.7075-78.6638-43.874H50.5793
	c-3.8812,0-7.0289-3.1477-7.0289-7.0289v-75.4434c0-3.8812,3.1477-7.0289,7.0289-7.0289h84.6729
	c4.0917-8.3145,9.4116-15.9177,15.8445-22.6947V104.173c0-3.8812,3.1478-7.0289,7.029-7.0289h53.2858V80.0576
	c-4.7591-1.4034-9.0327-4.2012-12.2222-8.056h-69.0735c-3.8812,0-7.0289-3.1478-7.0289-7.0289V40.2458
	c0-3.8812,3.1477-7.0289,7.0289-7.0289h66.9279c4.4382-7.3997,12.5065-12.1026,21.3967-12.1026s16.9585,4.701,21.3967,12.1026
	h66.4847c3.8812,0,7.0289,3.1477,7.0289,7.0289v24.7268c0,3.8812-3.1477,7.0289-7.0289,7.0289h-68.6282
	c-3.1898,3.8552-7.4639,6.6533-12.2242,8.0565v17.0861h52.8406c3.8812,0,7.0289,3.1477,7.0289,7.0289v35.2365
	c6.3947,6.7214,11.6977,14.3035,15.7994,22.6327h35.4193c63.533,0,115.2205,51.6893,115.2205,115.2224v54.5311
	c0,3.8812-3.1477,7.0289-7.0289,7.0289h-83.3412C357.5267,338.8246,354.379,335.6769,354.379,331.7957z M408.9925,478.8857
	c-15.4837,0-47.4571-11.3455-47.4571-46.4177c0-33.4835,41.1871-68.4164,42.9404-69.8873c2.6123-2.1926,6.421-2.1926,9.0333,0
	c1.7533,1.4709,42.9404,36.4038,42.9404,69.8873C456.4496,467.5402,424.4761,478.8857,408.9925,478.8857z"/>
<g>
	<path class="st1" d="M417.6855,357.6006c-5.0391-4.2285-12.3506-4.2275-17.3877,0.001
		c-4.6328,3.8867-45.2627,39.0107-45.2627,74.8662c0,39.9834,36.3525,52.918,53.957,52.918s53.957-12.9346,53.957-52.918
		C462.9492,396.5918,422.3184,361.4854,417.6855,357.6006z M435.8916,432.4678c0,9.1055-3.542,16.0557-10.5264,20.6582
		c-6.2451,4.1152-13.4404,5.2021-16.373,5.2021c-2.9316,0-10.127-1.0869-16.3721-5.2021
		c-6.9844-4.6025-10.5264-11.5527-10.5264-20.6582c0-13.8623,13.6387-32.4961,26.8984-45.9873
		C422.252,399.9717,435.8916,418.6064,435.8916,432.4678z"/>
	<path class="st1" d="M444.749,345.3242c7.46,0,13.5293-6.0684,13.5293-13.5283v-54.5312
		c0-67.1182-54.6035-121.7227-121.7207-121.7227h-31.4697c-3.6641-6.7139-8.1055-12.9761-13.249-18.6797v-32.6895
		c0-7.46-6.0693-13.5288-13.5293-13.5288h-46.3398v-6.1328c3.1748-1.5093,6.0664-3.5352,8.5742-6.0098h65.7773
		c7.46,0,13.5293-6.0688,13.5293-13.5288V40.2456c0-7.46-6.0693-13.5288-13.5293-13.5288h-63.0801
		c-5.9043-7.5449-15.0967-12.1025-24.8008-12.1025s-18.8965,4.5576-24.8008,12.1025h-63.5234
		c-7.46,0-13.5293,6.0688-13.5293,13.5288v24.7271c0,7.46,6.0693,13.5288,13.5293,13.5288h66.2236
		c2.5059,2.4741,5.3984,4.5,8.5713,6.0088v6.1338H158.126c-7.46,0-13.5293,6.0688-13.5293,13.5288v32.6309
		c-5.1768,5.7471-9.6328,12.0283-13.2939,18.7383H50.5791c-7.46,0-13.5283,6.0693-13.5283,13.5293v75.4434
		c0,7.46,6.0684,13.5283,13.5283,13.5283h85.4092c18.2305,27.1514,49.3926,43.874,82.207,43.874
		c32.8154,0,63.9785-16.7227,82.209-43.874h28.9658c10.2061,0,18.5088,8.3037,18.5088,18.5098v55.2432
		c0,7.46,6.0693,13.5283,13.5293,13.5283H444.749z M222.2822,58.2764c-0.7881,1.3838-2.2598,2.2437-3.8418,2.2437
		c-1.5801,0-3.0518-0.8599-3.8398-2.2437c-1.584-2.7808-4.083-4.8667-6.9941-5.9639c3.0752-1.5605,5.5156-4.2769,6.6826-7.6919
		c0.6035-1.7637,2.2715-2.9487,4.1514-2.9487s3.5498,1.187,4.1533,2.9521c1.168,3.4136,3.6074,6.1284,6.6826,7.6885
		C226.3643,53.4102,223.8652,55.4956,222.2822,58.2764z M171.6543,128.7344v-11.0322h93.127v11.0322H171.6543z M329.3701,230.9854
		h-36.5312c-4.9033,0-9.4326,2.6611-11.8193,6.9463c-12.6865,22.7773-36.7588,36.9277-62.8242,36.9277
		c-26.0645,0-50.1367-14.1494-62.8203-36.9248c-2.3848-4.2866-6.9141-6.9492-11.8213-6.9492H64.1084v-48.3853h75.6406
		c5.4062,0,10.2832-3.2085,12.4258-8.1763c2.9238-6.7876,6.8633-13.0435,11.7285-18.6313h108.5781
		c4.8486,5.5498,8.792,11.8081,11.7393,18.6392c2.1416,4.9624,7.0176,8.1685,12.4229,8.1685h39.9141
		c52.1973,0,94.6621,42.4663,94.6621,94.6646v15.8047h-56.2832v-16.5166C374.9365,251.4268,354.4951,230.9854,329.3701,230.9854z"/>
</g>
<g>
	<rect x="368.4368" y="313.6272" class="st1" width="69.2833" height="11.1396"/>
	<path class="st1" d="M336.5576,176.1h-39.9144c-2.8045,0-5.3423-1.6671-6.4543-4.244c-3.6204-8.39-8.6038-15.9681-14.8326-22.5637
		H161.0204c-6.2464,6.6465-11.2239,14.2227-14.8149,22.5597c-1.112,2.577-3.6498,4.248-6.4563,4.248H57.6083v61.3856h85.9457
		c2.5496,0,4.901,1.3807,6.1405,3.6086c13.8323,24.8366,40.0811,40.2654,68.5008,40.2654c28.4217,0,54.6703-15.4288,68.5027-40.2654
		c1.2415-2.2279,3.591-3.6086,6.1406-3.6086h36.5312c21.5418,0,39.0671,17.5253,39.0671,39.0671v23.0166h69.2833v-22.3047
		C437.7202,221.4822,392.338,176.1,336.5576,176.1z"/>
	<rect x="165.1546" y="111.202" class="st1" width="106.1264" height="24.0325"/>
	<path class="st1" d="M227.9306,61.4934c1.2493-2.1946,3.5812-3.5497,6.1072-3.5497h65.255V47.2747H235.395
		c-3.0046,0-5.6777-1.9102-6.6505-4.754c-1.5042-4.395-5.6443-7.3486-10.3041-7.3486s-8.7999,2.9517-10.3022,7.3467
		c-0.9708,2.8438-3.6439,4.7559-6.6504,4.7559h-64.3431v10.6689h65.7002c2.5261,0,4.8579,1.3552,6.1072,3.5497
		c1.9416,3.4086,5.5776,5.5267,9.4883,5.5267S225.989,64.902,227.9306,61.4934z"/>
	<path class="st1" d="M408.9925,377.3897c-12.285,11.5377-33.3992,35.4526-33.3992,55.0783
		c0,26.4154,24.7346,32.3598,33.3992,32.3598c8.6646,0,33.3992-5.9444,33.3992-32.3598
		C442.3917,412.8423,421.2775,388.9274,408.9925,377.3897z"/>
</g>
<path class="st0" d="M413.5092,362.5807c-2.6124-2.1926-6.421-2.1926-9.0333,0c-1.7533,1.4709-42.9404,36.4038-42.9404,69.8873
	c0,35.0721,31.9734,46.4177,47.4571,46.4177c15.4836,0,47.4571-11.3455,47.4571-46.4177
	C456.4496,398.9845,415.2625,364.0516,413.5092,362.5807z M408.9925,464.8278c-8.6646,0-33.3992-5.9444-33.3992-32.3598
	c0-19.6257,21.1143-43.5406,33.3992-55.0783c12.285,11.5377,33.3992,35.4526,33.3992,55.0783
	C442.3917,458.8834,417.657,464.8278,408.9925,464.8278z"/>
<path class="st0" d="M451.778,331.7957v-54.5311c0-63.5331-51.6874-115.2224-115.2205-115.2224h-35.4193
	c-4.1017-8.3292-9.4047-15.9113-15.7994-22.6327V104.173c0-3.8812-3.1478-7.0289-7.0289-7.0289h-52.8406V80.058
	c4.7603-1.4033,9.0344-4.2013,12.2242-8.0565h68.6282c3.8812,0,7.0289-3.1478,7.0289-7.0289V40.2458
	c0-3.8812-3.1477-7.0289-7.0289-7.0289H239.837c-4.4382-7.4016-12.5065-12.1026-21.3967-12.1026s-16.9585,4.7029-21.3967,12.1026
	h-66.9279c-3.8812,0-7.0289,3.1477-7.0289,7.0289v24.7268c0,3.8812,3.1477,7.0289,7.0289,7.0289h69.0735
	c3.1895,3.8549,7.4631,6.6526,12.2222,8.056v17.0865h-53.2858c-3.8812,0-7.029,3.1477-7.029,7.0289v35.1744
	c-6.4329,6.777-11.7528,14.3802-15.8445,22.6947H50.5793c-3.8812,0-7.0289,3.1477-7.0289,7.0289v75.4434
	c0,3.8812,3.1477,7.0289,7.0289,7.0289h88.9521c16.782,27.1665,46.5471,43.874,78.6638,43.874
	c32.1185,0,61.8837-16.7075,78.6656-43.874h32.5089c13.7892,0,25.0092,11.22,25.0092,25.0092v55.243
	c0,3.8812,3.1477,7.0289,7.0289,7.0289h83.3412C448.6303,338.8246,451.778,335.6769,451.778,331.7957z M208.9521,61.4934
	c-1.2493-2.1946-3.5811-3.5497-6.1072-3.5497h-65.7002V47.2747h64.3431c3.0065,0,5.6796-1.9122,6.6504-4.7559
	c1.5023-4.395,5.6424-7.3467,10.3022-7.3467s8.7999,2.9536,10.3041,7.3486c0.9728,2.8438,3.6459,4.754,6.6505,4.754h63.8978v10.6689
	h-65.255c-2.526,0-4.8578,1.3552-6.1072,3.5497c-1.9416,3.4086-5.5796,5.5267-9.4902,5.5267S210.8937,64.902,208.9521,61.4934z
	 M165.1546,111.202H271.281v24.0325H165.1546V111.202z M437.7202,324.7668h-69.2833v-11.1396h69.2833V324.7668z M437.7202,299.5693
	h-69.2833v-23.0166c0-21.5418-17.5253-39.0671-39.0671-39.0671h-36.5312c-2.5496,0-4.8991,1.3807-6.1406,3.6086
	c-13.8323,24.8366-40.081,40.2654-68.5027,40.2654c-28.4197,0-54.6685-15.4288-68.5008-40.2654
	c-1.2395-2.2279-3.5909-3.6086-6.1405-3.6086H57.6083V176.1h82.1409c2.8065,0,5.3443-1.671,6.4563-4.248
	c3.5909-8.337,8.5685-15.9131,14.8149-22.5597h114.3359c6.2288,6.5955,11.2122,14.1736,14.8326,22.5637
	c1.112,2.577,3.6498,4.244,6.4543,4.244h39.9144c55.7804,0,101.1626,45.3821,101.1626,101.1646V299.5693z"/>
</svg>
