<?xml version="1.0" encoding="utf-8"?>
<!-- Generator: Adobe Illustrator 27.8.1, SVG Export Plug-In . SVG Version: 6.00 Build 0)  -->
<!DOCTYPE svg PUBLIC "-//W3C//DTD SVG 1.1//EN" "http://www.w3.org/Graphics/SVG/1.1/DTD/svg11.dtd" [
	<!ENTITY ns_extend "http://ns.adobe.com/Extensibility/1.0/">
	<!ENTITY ns_ai "http://ns.adobe.com/AdobeIllustrator/10.0/">
	<!ENTITY ns_graphs "http://ns.adobe.com/Graphs/1.0/">
	<!ENTITY ns_vars "http://ns.adobe.com/Variables/1.0/">
	<!ENTITY ns_imrep "http://ns.adobe.com/ImageReplacement/1.0/">
	<!ENTITY ns_sfw "http://ns.adobe.com/SaveForWeb/1.0/">
	<!ENTITY ns_custom "http://ns.adobe.com/GenericCustomNamespace/1.0/">
	<!ENTITY ns_adobe_xpath "http://ns.adobe.com/XPath/1.0/">
]>
<svg version="1.1" id="flag-icons-ly" xmlns:x="&ns_extend;" xmlns:i="&ns_ai;" xmlns:graph="&ns_graphs;"
	 xmlns="http://www.w3.org/2000/svg" xmlns:xlink="http://www.w3.org/1999/xlink" x="0px" y="0px" width="640px" height="480px"
	 viewBox="0 0 640 480" style="enable-background:new 0 0 640 480;" xml:space="preserve">
<style type="text/css">
	.st0{fill:#1D1D1B;}
</style>
<metadata>
	<sfw  xmlns="&ns_sfw;">
		<slices></slices>
		<sliceSourceBounds  bottomLeftOrigin="true" height="480" width="479.7538" x="80.1231" y="0"></sliceSourceBounds>
	</sfw>
</metadata>
<g>
	<g>
		<path class="st0" d="M277.3935,28.5685l1.4777-0.9851l0.9851-0.4926h-1.4777l-0.9851,0.4926h-0.9851l-0.7388,0.4926
			l-1.4777,0.4926l-0.4926,0.4926h1.4777L277.3935,28.5685z"/>
		<path class="st0" d="M174.4484,110.0872l0.9851-1.4777l-0.9851,0.4926l-0.4926,0.9851v2.4628l0.4926,0.4926l1.4777-0.9851
			l-0.9851-0.4926L174.4484,110.0872z"/>
		<path class="st0" d="M274.6844,30.5387l1.4777-0.4926l0.4926-0.4926v-0.4926l-1.4777,0.4926h-1.4777l-0.4926,0.4926l0.4926,0.4926
			H274.6844z"/>
		<path class="st0" d="M271.4828,31.5239l0.9851-0.4926v-0.4926h-0.9851l-0.4926,0.4926v0.4926H271.4828z"/>
		<path class="st0" d="M283.7968,31.0313l-1.4777,0.4926l0.4926,0.9851l-0.7389,0.4926h-1.4777l0.4926-0.4926v-0.4926H279.61
			l-1.7239,0.9851h-1.4777l-0.9851-0.4926h-0.9851l-0.9851,0.9851l-2.2166,0.9851l1.4777-1.4777h-0.4926l-2.7091,0.4926
			l-1.2314-0.4926l-1.4777,0.4926l-0.4926,0.9851l-0.4926,0.4926l0.9851,0.9851l-0.9851,0.9851l2.7091,0.4926l0.9851-0.4926
			l-0.4926-0.4926h6.4033l2.2165-0.9851h0.4926l0.4926-0.4926l0.4926,0.9851h0.9851l0.9851,0.4926l3.2017-0.4926h4.1868
			l-0.4926-0.2463h5.4182l0.4926-0.4926v-2.2165l-0.9851-0.4926h0.4926l-0.4926-0.9851h-3.2016l0.9851-0.4926l-1.7239-0.4926
			h-0.4926v-0.4926h-2.2165l-0.9851,0.4926L283.7968,31.0313z"/>
		<path class="st0" d="M195.1359,102.4525l-2.2165,1.4777l-5.9107,3.4479l-2.4628,1.2314v1.4777h-1.4777l-0.4926,0.9851
			l2.2165,1.9702l1.4777,0.9851l0.4926,1.4777l-2.2165,0.9851l0.9851,0.4926l3.6942-1.4777v0.4926l-2.2165,2.4628l0.4926,0.9851
			l0.4926,0.4926l2.7091-2.4628l0.9851-1.9702l0.9851-1.9702h-0.7388l2.2165-1.9702l-0.4926-1.9702l-0.9851,0.4926l-0.7388-1.4777
			l0.9851-0.9851v-0.9851l-1.4777,0.4926l2.7091-1.9702l2.7091-1.4777l0.9851-0.4926l-0.4926-0.4926L195.1359,102.4525z"/>
		<path class="st0" d="M183.5608,104.4228l0.4926-0.4926V101.96l-0.4926-1.9702h-0.4926l-0.7388,1.9702l0.4926,1.9702
			L183.5608,104.4228z"/>
		<path class="st0" d="M265.0795,31.0313l1.4777-0.4926l2.2165-0.4926h-0.4926l0.4926-0.4926h-0.9851l0.4926-0.4926l-2.7091,0.4926
			l-0.4926,0.4926h-2.2165l-0.4926,0.4926v0.9851L265.0795,31.0313z"/>
		<path class="st0" d="M278.3786,30.0462v0.4926h-2.7091l-1.4777,0.4926l-0.4926,0.9851v0.4926h4.1868l0.9851-0.4926l2.7091-0.4926
			l0.4926-0.4926l0.9851-0.4926l2.2165-0.4926v-0.4926h-2.2165l-1.4777-0.4926l-1.4777,0.4926L278.3786,30.0462z"/>
		<path class="st0" d="M254.982,40.1437l-2.2165,0.9851v0.4926h0.4926v1.4777l0.9851-0.4926l1.4777-1.4777l0.4925-0.9851
			l-0.2462-0.4926L254.982,40.1437z"/>
		<path class="st0" d="M218.04,54.6742h0.9851l0.9851-0.9851l-0.4926-0.4926l2.2165-0.4926l0.9851-1.4777l1.2314-0.9851
			l0.4926-0.9851h-0.4926l1.4777-0.9851l0.4926-0.4926l-3.2016,0.9851l-2.9554,1.4777h-1.4777l0.4926,0.9851l-2.2165,0.9851h3.6942
			l-1.4777,0.9851L218.04,54.6742z"/>
		<path class="st0" d="M262.3704,32.509l1.4777-0.4926h-2.2165l-1.4777,0.4926l-0.4926,0.4926h1.4777L262.3704,32.509z"/>
		<path class="st0" d="M214.3458,54.1816l-0.9851,0.9851v0.4926l2.2165-0.4926h0.4926v-0.9851H214.3458z"/>
		<path class="st0" d="M237.9887,60.3386l-0.4926-0.9851l2.2165-2.4628v-0.9851l0.9851-2.4628h2.7091l2.7091-1.9702l0.9851-1.4777
			l0.9851-1.4777l1.4777-1.4777l-0.9851-0.9851l1.4777-0.9851l0.9851-0.9851l1.4777-1.9702h-1.4777l-0.9851-0.4926l2.2165-0.4926
			l3.6942-1.9702l-1.4777-0.4926l-3.2016,0.4926l2.7091-1.4777h1.9702l-0.4926-0.9851h-1.4777l-3.2016,0.4926l-4.1868,0.9851v0.9851
			h-1.4777l-1.4777,0.4926l-0.4925,0.9851l-0.9851,1.4777l-0.4926,2.4628l0.4926,0.4926h1.4777l-0.9851,0.9851l-0.4926,0.4926
			l-1.4777,1.4777h-0.9851l-1.724,2.2165l-0.9851,1.4777l-0.9851,0.4926l-1.4777,0.9851l-3.6942,0.9851l-2.4628,0.9851
			l-0.9851,0.4926l-0.9851-0.9851l-0.4926-0.9851l-3.2016,0.4926l-0.4926,1.4777l0.9851,1.4777l0.9851-0.4926l-0.9851,1.9702
			l-0.9851,1.9702h-0.9851l-1.4777,1.9702l-0.4926,2.4628v2.9554l0.9851-0.9851l1.4777-1.9702l2.2165-2.9554l-1.4777,3.4479v1.4777
			l2.7091-1.4777l3.2016-2.4628l0.4926-0.4926l0.4926-1.9702l1.4777-1.4777l2.2165-0.9851l0.9851,0.4926l-2.7091,2.4628
			l-0.4926,1.4777l5.4182-0.9851L237.9887,60.3386z"/>
		<path class="st0" d="M259.1688,37.6809l-0.4926,0.9851h2.2165l1.4777-0.4926l1.4777-0.4926v-0.9851l-0.4926-0.4926l-0.4926-0.4926
			v-0.4926l0.4926-0.4926l0.4926-0.4926l0.9851-0.4926l1.4777-0.4926l0.9851-0.4926l0.4926-0.4926l0.9851-0.4926l0.4926-0.9851
			h-0.9851l-1.4777,0.4926l-0.4926,0.9851l-2.2165,0.4926l-1.2314,0.2463l-1.9702,0.4926l-1.4777,1.4777l-0.4926,0.9851v0.4926
			L259.1688,37.6809z"/>
		<path class="st0" d="M213.3607,57.6296l-0.9851,0.9851v0.4926l1.4777-0.9851l0.4926-0.4926V57.137L213.3607,57.6296z"/>
		<path class="st0" d="M233.5556,51.7188l0.4926-0.4926l1.4777-0.4926l0.9851-0.9851h-0.9851l-1.9702,0.4926l-1.4777,0.9851
			l0.4926,0.4926H233.5556z"/>
		<path class="st0" d="M253.2581,35.7106h3.2017l0.9851-0.9851l0.4926-0.9851l-0.9851-0.7388l-0.9851,0.4926h-2.2165l-3.2016,0.9851
			l-0.4926,0.9851l2.7091-0.4926L253.2581,35.7106z"/>
		<path class="st0" d="M411.1236,184.4638l2.7091-1.9702l-0.4926-0.4926v-0.4926l0.9851-1.9702l-2.2165,1.4777l-2.2165,0.4926
			v0.9851l-1.4777,0.4926l0.9851,1.4777L411.1236,184.4638z"/>
		<path class="st0" d="M338.7173,118.707l0.9851-2.4628l-0.9851-1.9702l-3.2017,1.4777l0.4926,1.4777L338.7173,118.707z"/>
		<path class="st0" d="M335.5156,167.4705l0.9851-2.9554l-0.9851-2.9554l-1.4777,1.4777l-0.4926,0.9851l0.9851,2.4628
			L335.5156,167.4705z"/>
		<path class="st0" d="M308.1785,119.6922l-1.4777-3.9405v-0.4926l-2.7091-0.4926l2.7091-2.4628l0.4926-2.9554h-2.2165
			l-2.2165,0.4926l2.7091-3.4479h-4.1868l-2.2165,2.4628l-0.9851,2.9554l0.4926,1.9702l-0.4926,2.9554l1.4777-1.4777l0.4926,0.9851
			l-0.9851,1.4777l0.4926,0.9851l2.7091,0.4926v0.4926l1.4777,1.9702l-0.9851,1.9702l-3.2017-0.4926l-0.4926,1.9702l0.9851,1.9702
			l-3.2017,0.9851l0.4926,1.4777l3.6942,0.4926h0.4925l-2.7091,0.9851l-4.1867,3.4479l1.4777,0.4926l1.4777-0.9851l2.7091,0.4926
			l1.4777-1.4777l0.9851,0.4926l4.1868-0.9851l3.6942,0.4926l2.2165-1.9702l-0.2462-1.2314l1.4777-0.9851l0.4926-2.4628
			l-3.2016-0.4926l-0.4926-1.724l-0.9851-3.9405L308.1785,119.6922z"/>
		<path class="st0" d="M386.2493,188.158l4.1868-0.9851l0.4926-1.4777l-1.4777,0.9851v-0.9851h-2.7091l-2.2165,0.9851
			l-2.2165-1.4777v1.9702h3.6942L386.2493,188.158z"/>
		<path class="st0" d="M242.1754,82.9964l1.4777-1.9702l3.6942-1.4777l2.7091-1.4777l1.4777-1.4777l2.7091-1.4777h5.4182
			l4.1868-0.4926l4.1867-2.4628l2.2165-0.4926l0.9851,0.4926h4.4331l4.6793-1.4777l4.6793-1.4777l-1.4777-0.4926l-2.7091-0.4926
			l2.2165-0.9851l0.9851-1.9702v1.4777l0.4926,1.4777h2.2165l0.9851-2.4628l-0.4926-1.4777l-0.9851-0.9851l0.9851-0.4926
			l1.4777,1.4777l0.4926-0.9851v-1.9702h3.6942l0.9851-0.4926l-0.4926-1.4777l2.2165,0.4926v-2.4628h0.9851l0.9851-1.9702
			l-0.4926-1.4777l2.2165-0.4926l0.9851,0.4926v-1.4777l1.4777-2.4628l1.4777-1.4777l2.2165-1.4777h-1.4777h2.2165l0.9851-0.4926
			l3.2017-0.9851v-0.9851l-0.9851-0.4926h-3.2017l-2.2165,0.4926l1.4777-0.9851V43.099l-1.4777,0.4926l-0.4926-0.9851
			l-1.4777-0.4926v-0.4926l2.7091,0.4926l1.4777,0.4926l1.4777-0.4926l-0.9851-1.9702l-2.7091-0.9851l-1.4777-0.4926l-0.9851,0.4926
			l-1.2314-1.4777l-3.2016,0.4926l-0.9851,0.4926l-0.9851,0.9851l0.4926-0.4926l-0.4926-0.4926l0.4926-0.9851l-2.7091,0.4926
			l0.9851-0.4926l-0.9851-0.9851h-1.4777l-0.9851-0.4926l-1.4777,0.9851l-0.9851-0.4926h-3.2017l-1.4777,0.4926l-0.4926,0.9851
			h-4.1868l-2.7091-0.9851l-1.4777,0.4926l-0.9851,1.4777l0.4926,1.4777l-0.9851-0.4926l-1.4777-0.4926l-3.2017,1.4777
			l-0.4926,0.4926l0.4926,0.9851l0.9851,0.4926l0.4926,0.9851l-0.4926,1.9702l-1.4777,0.4926l-0.4926,1.2314l-3.2017,2.4628
			l-1.4777,1.4777l-1.2314,0.9851l-3.6942,0.9851v0.9851h0.9851l-0.4926,0.9851l-0.4926,1.9702l-0.9851-0.9851l-0.7388-0.4926
			l-2.2165,0.9851l-2.2165,0.9851v1.4777h4.433l-2.7091,1.4777l-1.4777,0.4926h-2.7091l-4.1868,1.9702l-0.4926,1.4777
			l-2.7091,0.9851l-1.4777,2.9554l-2.7091,1.9702l-1.2314,2.4628l-2.2165,3.9405l-1.4777,2.9554l-0.4926,1.9702l2.2165,0.9851
			v3.4479l2.2165,0.4926l3.2016-2.4628L242.1754,82.9964z"/>
		<path class="st0" d="M296.1108,121.6624l1.4777-2.4628l-2.2165-1.9702h-1.4777l-2.2165,1.4777l-3.6942,1.9702l0.4926,3.4479
			l-2.7091,3.4479l3.2017,0.9851l4.6793-1.4777l2.2165-2.9554L296.1108,121.6624z"/>
		<path class="st0" d="M290.6926,84.4741l-0.4926-1.9702l0.9851-1.9702l-2.7091-0.7388l-3.2017,0.9851l-1.4777-0.9851
			l-2.7091,0.9851l-1.4777-1.9702h-2.2165l-2.2165,1.4777l2.7091,1.4777l-0.4926,0.4926h-2.7091l2.2165,1.9702l-2.2165,0.9851
			l4.1867,1.9702l1.4777,0.4926h1.4777l5.9107-1.4777L290.6926,84.4741z"/>
		<path class="st0" d="M352.5089,183.4787l2.7091,0.9851l0.4926-1.9702l-0.4926-0.9851l0.4926-2.9554l-2.2165,0.4926l-3.2017,0.4926
			h-3.6942v1.9702l4.1867,1.4777L352.5089,183.4787z"/>
		<path class="st0" d="M333.7917,176.0903l0.9851,0.9851l0.9851-1.4777h1.4777v-4.9256l-2.2166-2.4628l-0.9851,1.4777
			l-2.2165-0.4925l0.9851,2.4628L333.7917,176.0903z"/>
		<path class="st0" d="M480.0821,347.5013l-0.4926-0.9851l-0.9851-0.9851l-0.9851,1.9702l-0.4926,1.9702l-1.4777,2.4628
			l-0.9851,0.4926v0.9851l-0.9851,1.9702l-2.7091,2.9554l-2.2165,2.4628h-1.4777l-0.9851,0.9851l-1.4777,1.4777l-1.4777,0.4926
			l-0.9851,1.9702l-0.9851,1.9703l-0.4926,2.9554v2.9554l-0.4926,1.9702l-2.2165,2.9554l-0.4926,0.9851l-0.9851,0.4926
			l-1.4777,2.4628v3.9405l-0.4926,2.4628v0.9851l1.4777,0.4926h1.4777l2.7091-1.9702l2.7091-1.4777l2.2165-3.4479l2.7091-4.433
			l3.6942-6.6496l2.7091-4.433l2.2165-3.9405l0.4926-2.9554l0.9851-0.9851l0.4926-1.4777v-1.9702l0.9851-0.9851v1.4777
			l0.9851-0.9851l0.4926-1.9703l-0.4926-0.9851l0.4926-3.9405L480.0821,347.5013z"/>
		<path class="st0" d="M335.023,50.2411l-1.4777,0.4926l0.9851,0.9851l-0.4925,0.4926l2.2165,0.4926l0.9851-1.4777h-1.4777
			L335.023,50.2411z"/>
		<path class="st0" d="M331.0826,47.7783l0.4926,0.4926h2.2165l1.4777-0.4926v-1.4777l-1.4777-0.4926h-1.4777l-0.4926,0.4926
			l-0.9851-0.4926l-1.4777,0.9851l0.9851,0.9851L331.0826,47.7783z"/>
		<path class="st0" d="M327.3884,52.2114l1.4777,0.4926l-0.4926,0.4926l2.2165,1.4777h0.9851V52.704l0.4926-0.4926l-0.4926-1.9702
			l1.4777-0.9851l-3.2017-0.9851l-0.9851-0.9851l-0.9851,0.4926v0.4926h-0.9851l-0.4926-0.4926l-1.4777,0.9851l0.4926,1.4777
			L327.3884,52.2114z"/>
		<path class="st0" d="M116.3263,203.6737v-0.9851l-0.4926-0.9851l-0.9851-0.9851l-0.4926,1.4777l0.4926,0.9851l0.9851,0.9851
			L116.3263,203.6737z"/>
		<path class="st0" d="M346.1057,43.099l0.9851,0.4926l0.4926-0.4926l-0.4926-0.4926v-0.4926h0.4926l-0.4926-0.4926h-0.9851v0.4926
			l0.4926,0.4926l-0.9851-0.4926h-0.4926l-0.4926,0.9851l0.9851-0.4926L346.1057,43.099z"/>
		<path class="st0" d="M358.4197,32.509h4.6793l0.9851-0.4926l-0.4926-0.9851l-3.2016-0.4926h-3.6942l-2.2165,0.4926l0.9851,0.4926
			L358.4197,32.509z"/>
		<path class="st0" d="M367.532,32.0164l-2.2165-1.9702l-1.4777-0.4926l-1.4777,0.4926l-0.4926,0.4926h0.4926L367.532,32.0164z"/>
		<path class="st0" d="M366.3007,44.0841v0.9851l-0.4926,1.4777v1.9702l0.4926,1.9702l0.9851,0.4926l0.9851,2.4628h0.9851
			l0.9851,2.4628l1.4777,0.9851v0.9851l1.4777,0.9851h2.2165l1.4777,0.4926l2.7091-0.9851l0.4926-0.4926l-4.1867-0.9851
			l-2.7091-1.4777l-1.4777-2.4628l-2.2165-1.9702l-0.9851-2.9554v-3.9405l-0.9851-0.4926l-1.4777-0.4926v0.9851H366.3007z"/>
		<path class="st0" d="M115.0949,236.9215v1.4777l-0.4926,0.4926v0.4926l1.4777,0.9851l0.4926-2.9554l-0.4926-0.4926H115.0949z"/>
		<path class="st0" d="M558.8917,215.2488l-4.1868-24.628l-6.4033-24.1355l-9.1124-23.6429l-11.0826-22.1652l-13.5454-21.1801
			l-15.5157-19.7024l-17.4859-17.7322l-19.2099-16.0082L441.6624,32.509l-22.4115-11.5752l-23.3966-9.1124l-24.628-6.6496
			l-25.1205-3.9405L320,0l-24.628,1.4777l-24.8743,3.9405l-24.628,6.6496l-23.3966,9.1124l-22.4115,11.5752l-21.4264,13.5454
			l-19.7024,15.5157l-17.4859,17.7322l-16.0082,19.7024L111.647,120.431l-11.0826,22.1652l-9.1124,23.1503l-5.9107,24.1355
			l-3.6942,24.628l-1.724,25.3669l0.9851,24.628l4.1868,24.628l6.4033,24.1355l9.1124,23.6429l11.0826,22.1652l13.5454,21.1801
			l15.5156,19.7024l17.4859,17.7321l19.2099,16.0082l20.6875,13.5454l22.4115,11.5752l23.3966,9.1124l24.628,6.6496l25.1206,3.9405
			L319.5074,480l24.628-1.4777l25.1206-3.9405l24.628-6.6496l23.3966-9.1124l22.4115-11.5752l21.4264-13.5454l19.7024-15.5157
			l17.4859-17.7321l16.0082-19.7024l13.7917-21.1801l11.0826-22.1652l9.1124-23.1503l6.4033-24.1355l3.6942-24.628l1.4777-25.6131
			L558.8917,215.2488z M459.6408,159.3433l-2.7091,2.4628l-3.6942,0.4926l-2.2165-0.9851h-2.7091l-2.2165-2.4628l-0.9851-1.4777
			l0.4926-0.9851v-1.4777l-0.9851-2.9554l1.4777-0.9851l-0.9851-0.4926h-0.9851l-2.2165-1.9702l-2.2165-1.4777l-3.9406-3.2016
			l-0.9851-2.4628l-3.6942-2.4628v-3.9405l1.4777-1.4777l-0.4926-2.4628l1.4777-1.4777l0.9851-2.4628h2.2165l1.4777-0.9851
			l1.4777,1.9702l1.4777,3.4479h-2.2165l-0.9851,0.9851l1.4777,2.4628l-2.2165,0.4926l0.4926,0.9851l1.4777,0.4926l2.7091,2.4628
			h3.2017l0.9851,0.9851l0.4926,1.4777l0.4926,0.9851l2.2165,1.9702l-0.9851-2.4628l0.9851-1.4777l1.4777,1.4777l2.7091,1.4777
			l-0.9851,1.9702h-2.2165l0.9851,2.9554l1.4777-0.4926l0.9851,2.4628l2.2165,0.4926l1.4777,3.9405l1.4777,2.4628L459.6408,159.3433
			L459.6408,159.3433z M380.3386,30.5387l-1.4777-0.4926h-0.4926C378.1221,30.0462,380.3386,30.5387,380.3386,30.5387z
			 M533.7711,202.196l0.4926,3.9405v-0.4926L533.7711,202.196z M254.4895,32.0164h0.9851H254.4895z M535.9877,262.5346
			l-3.6942,22.6577l-5.9107,22.1652l-7.881,21.1801l-10.0975,20.6875l-12.314,19.2099l-14.2842,17.7321l-16.0082,16.0082
			l-17.4859,14.5305l-19.2098,12.5603l-20.195,10.5901l-21.4264,8.1273l-21.9189,6.157l-22.4115,3.4479l-22.9041,0.9851
			l-22.4115-0.9851l-22.4115-3.4479l-21.9189-6.157l-21.4264-8.1273l-20.195-10.5901l-19.2099-12.5603l-17.4859-14.5305
			l-15.0231-15.0231l-0.9851-2.4628l-0.9851-1.4777l-0.9851-1.9702l0.4926-1.9702l1.4777-0.9851l2.2165,0.4926l0.9851-0.4926
			l3.2016,0.4926l2.7091,0.9851v-1.9702l1.4777-0.4926l-0.4926-2.9554l1.4777-2.9554l-0.4926-3.9405l0.4926-0.9851v-1.9702
			l-0.4926-4.433l-1.4777-6.157l0.4926-1.9702h0.4926l1.4777-1.9702l0.9851-2.9554l3.6942-3.4479l0.9851-1.4777l0.4926-5.4182
			l-0.4926-2.4628l-1.4777-4.9256l-0.9851-1.4777l-2.7091-0.9851l-2.2165-1.9702l-4.1868-5.4182l-4.1868-4.433l-4.1868-1.4777
			l-5.4182-3.9405h-3.2016l0.4926-1.9702l-1.4777-2.4628l-3.6942-3.4479l-3.2016-2.9554l-1.4777,1.4777v-3.4479l-4.1868-2.9554
			l-0.9851-1.4777l1.4777-1.9702v-2.4628l-0.9851-1.4777l-0.9851-7.1421l-0.4926-2.4628h-0.4926l-0.4926-1.4777l-2.2165-4.433
			l-1.7239-3.9404l-0.4926-0.9851l-2.2165-2.4628l-1.4777-0.9851l-0.4926,0.4926l-2.2165-2.4628l-0.4926-1.9703l-0.9851-2.4628
			l-0.4926-0.4925v-1.9703l-0.9851-3.4479l-0.4926-1.4777l-0.4926-1.4777l-0.9851-0.4926v-2.9554l-0.9851-2.9554l-0.9851-1.4777
			v-1.9702h1.4777l-2.4628-2.4628l-2.2165-1.4777v0.9851l-0.9851,0.4926l-0.9851-1.4777l-0.4926-2.4628l-1.4777-0.9851
			l-0.9851-1.4777v-1.4777l-0.4926-2.9554l-0.4926-0.9851v-2.9554l-0.9851,0v1.9702h-0.4926v-5.4182l3.6942-22.6578l0.4926-1.9702
			l0.4926,0.9851l0.4926,0.4926l0.4926,1.4777l-0.4926,0.9851v0.9851l0.9851-1.9702h0.4926v0.9851l0.4926,0.4926l0.4926-0.4926
			l0.4926,0.4926l0.4926,0.4926v1.4777l0.9851-0.9851v-1.9702l0-0.9851l0.4926-0.9851l-0.4926-0.4926v-1.4777l-0.4926-0.4926
			v-1.9702h-0.4926l-0.4926,0.4926l-0.4926-1.9703l-0.4926-0.9851l-0.4926,0.4926l0.4926,1.4777l-0.4926,1.4777v1.9703
			l-0.4926,0.4926l-0.4926-1.4777l4.6793-19.2099l7.881-21.1801l9.6049-18.7173l0.4926-0.4926l0.4926,0.4926l1.4777-0.9851
			l0.9851,0.4926l2.2165-1.4777l2.2165-3.4479l0.4926-0.9851v-0.4926l2.2165-2.9554l0.4926-1.9702v1.4777l1.4777-1.9702
			l0.9851-0.9851l-2.2165,2.4628l-0.4926,1.9702l-1.4777,1.4777l2.2165-1.9702l0.9851-0.9851l0.9851-0.9851l0.4926-0.9851
			l0.9851-1.9702l-0.4926,0.9851v0.4926l-0.4926,0.9851l2.2165-1.4777l2.2165-1.9702v-0.4926l0.9851-0.4926l-0.4926,0.4926
			l0.4926,0.4926l1.4777,0.4926l0.4926-0.9851l-1.4777-0.9851h1.2314l0.4926,0.4926l0.4926,0.4926l0.9851,0.4926l0.4926,0.4926
			l0.9851,0.4926l0.4926-0.9851l0.4926-0.9851l-0.9851,0.9851l-0.4926-0.4926l0.9851-1.9702l1.4777-1.4777l0.4926-0.4926
			l2.2165-0.9851l1.4777,0.4926h1.4777l2.2165-0.4926l0.4926-0.9851l1.4777,0.9851l1.4777,1.4777l-3.6942,1.4777l-2.2165,2.4628
			l0.4926,0.9851l3.2016-0.9851h2.2165l4.1868,0.4926l3.2016-0.9851v-1.4777l1.4777-1.9702l-4.1868,1.4777l-2.2165-0.9851v-2.9554
			l1.4777-2.4628l2.7091-3.4479l2.7091-0.9851l0.4926-1.9702l-1.4777-0.9851l-4.1868,0.4926l-4.6793,1.9702l-0.2463-0.9851
			l3.2016-1.4777l4.6793-1.9702h2.2165l2.7091-0.9851l0.9851,0.9851l1.4777,1.4777l1.4777,2.4628l2.2165,0.9851l3.6942-0.9851
			l2.7091,0.4926l1.4777-0.4926l2.2165-0.4926l3.2016-2.9554l0.4926-1.4777l-0.4926-0.9851l2.2165-2.4628v-1.4777l-0.9851-1.9702
			l0.4926-1.9702l0.4926-2.4628l2.2165-1.4777l2.7091-3.9405l3.2016-3.9405l2.2165-2.4628l-2.2165,0.4926l-4.1868,1.9702h-2.7091
			l1.4777-1.9702v-0.9851l3.6942-2.9554l2.7091-1.9702l0.9851-1.9702l0.9851-0.9851l1.4777-1.9702l0.4926-1.4777h-0.9851v-0.9851
			l0.4926-1.4777h-0.9851l-5.4182,3.4479l-3.2016,1.9702l-3.6942,0.9851l-2.2165,2.4628l-2.7091,2.4628l-1.724,0.9851
			l-2.7091,0.9851l-2.7091,0.4926l-2.2165-0.4926l-1.4777,1.9702l-4.6793,3.9405l-3.2016,1.9702h-0.9851l2.7091-3.4479
			l3.2016-3.4479l3.2016-2.4628l2.7091-1.9702v-2.4628l1.4777-1.9702l0.9851-1.4777l1.4777-1.4777L210.8978,50.98l4.6793-2.4628
			v0.4926l2.2165-0.9851h1.4777v0.9851l2.2165-0.4926l1.4777-0.4926l3.2016-0.4926l1.4777-0.4926l-0.4925,0.7389l0.4926,0.4926
			h2.7091l1.4777-0.4926l2.2165-0.9851l2.2165-0.4926l1.4777-0.4926l1.4777-1.4777l0.4926-0.9851v-0.9851l-2.7091,1.4777
			l-3.2017,0.4926l-2.7091,0.4926l2.7091-1.4777l2.7091-0.9851l2.7091-1.4777h-2.7091l3.6942-0.9851l0.9851-0.9851h1.4777
			l4.1868-1.9702l1.4777-0.9851l0.9851-0.9851h-2.7091l-4.1868,0.9851l-1.4777,0.9851l-2.7091,1.9702l-3.6942,0.9851v-0.4926
			l3.2016-0.9851h0.4926l1.4777-0.4926l0.4926-0.4926l6.4033-2.4628l0.9851,0.4926l4.1868-1.4777l2.2165-0.9851h1.4777
			l0.9851-0.4926v-0.4926l0.9851-0.4926h-0.9851l17.4859-4.433h3.6942l0.4925,0.4926l0.9851-0.4926h0.4926l17.4859-2.4628
			l21.4264-2.4628l22.4115,0.9851l22.4115,3.4479l6.4033,1.4777l-0.9851,0.9851l0.4926,0.9851l0.9851,0.4926h-1.4777v0
			l-0.9851-0.4926l-0.9851,0.4926l2.2165,0.9851l1.4777,0.4926l1.4777,0.4926v0.4926l2.2165,0.9851h-0.9851l0.4926,0.9851
			l0.9851,0.4926l0.4926,0.9851l1.4777,1.4777v0.4926l2.2165,0.9851l2.2165,0.4926v0.9851l-0.4926,0.9851l0.4926,0.9851
			l3.6942,1.4777l3.2016,0.9851h-2.7091l-0.4926,0.9851l0.9851,1.4777l2.7091,0.9851h-0.9851l-3.2016-1.4777l-1.4777-0.4926v0.9851
			l2.7091,0.9851l1.4777,1.9702l3.2016,0.9851l3.2017,1.9702l2.2165,0.9851l0.9851-0.4926l2.2165,1.4777l2.2165,0.4926
			l0.9851,1.4777l1.4777,0.9851l0.4926,0.9851l0.9851,0.9851l-0.9851,0.4926l-3.6942-3.9405l-2.2165-1.4777l-2.7091-0.4926
			l-4.6793-2.4628l-2.7091-0.9851l-1.4777-0.4926l-2.7091-1.9702l-2.2165-0.9851l-2.2165,0.4926l0.4926,0.4926l2.7091,1.9702
			l2.2165,2.4628l0.9851,0.4926l3.2016,0.9851l1.4777,0.9851l0.9851-0.4926l0.4926,0.4926l2.7091,0.4926l1.4777,1.4777
			l-4.6792-0.4926h-2.2165l-3.6942,0.9851l0.4926,0.9851l2.7091,0.4926l0.9851,1.9702l-2.7091-0.9851v1.4777l-1.4777,0.9851
			l0.4926,0.9851l-1.4777,0.4926l-0.4926-1.4777h-0.9851l-0.9851,3.4479l-0.9851,1.9702l1.4777,1.4777l-0.9851,0.9851
			l-1.4777-0.4926l-1.4777-1.4777l0.9851-0.9851h-5.9107l2.2165,1.4777l0.9851,1.4777l2.2165,0.9851l0.9851,1.9702l-2.2165-0.4926
			h-1.2314l-0.9851,3.4479l2.7091,1.4777l-0.4926,0.9851l-4.6793-0.9851v1.4777l1.4777,0.9851l0.4926,1.4777h-1.4777l-2.7091-0.4926
			l-2.2165-2.9554l-0.4926-0.9851l-3.9405-0.9851l0.4926-0.4926l7.3884,0.4926l1.4777-1.4777l0.4926-1.9702l-1.4777-1.4777
			l-2.2166-0.9851l-6.8958-1.4777h-3.6942l-3.2017-0.9851l-0.4926,0.9851l-2.2165-0.9851l0.9851-0.9851l-4.6793-0.9851
			l-1.4777,0.9851h-2.2165l-0.9851,2.4628h-2.2165l-2.7091,1.4777l-2.7091,3.9405l-2.2165,1.9702l-2.7091,5.4182l-2.2165,3.9405
			l-3.2017,2.9554l-4.1868,3.4479l-1.4777,1.9702l0.4926,7.1421l0.9851,3.4479l3.2017,1.4777l2.7091-0.9851l3.6942-3.9405
			l1.4777,1.9702l2.2165,4.433l2.2165,3.4479l0.9851,2.9554l2.7091-0.4926l0.4926-2.4628h2.7091l0.4926-2.9554l-0.4926-5.4182
			l2.2165-0.9851l0.9851-3.4479l-2.7091-1.4777l-2.2165-1.9702v-4.433l2.7091-2.9554l1.4777-2.4628l-0.9851-1.4777l0.4926-1.9702
			l2.2165-0.9851l2.7091,0.9851l0.4926,0.9851l-0.4926,0.9851l-0.9851,2.9554l-0.9851,1.9702v1.9702l1.4777,2.4628l0.4926,2.9554
			l2.2165,0.9851l1.4777,1.4777l2.7091-0.9851l2.7091-1.4777l3.2017-0.9851l2.7091,0.9851l-0.9851,1.9702l-2.2165,0.4926h-2.2165
			l-2.2165,0.9851l-2.2165,0.9851l0.9851,1.9702l1.4777,0.9851l0.4926-0.4926l0.4926,1.9702l0.4926,2.4628h-1.4777l-2.7091-1.9702
			l-0.9851,0.9851l-0.4926,1.9702l0.4926,2.4628l0.9851,2.4628l-2.7091,1.4777v1.4777h-2.2165l-0.4926-0.9851l-2.2165-0.4926
			l-2.7091,2.4628l-3.2017,1.9702l-1.4777,0.9851l-0.9851-0.9851l-2.7091-0.9851l-0.9851,0.9851l-2.7091,0.4926v-0.9851
			l-2.7091-0.4926v-1.4777l-0.4926-1.4777l1.4777-2.4628l0.4926,0.4926l0.4926-1.4777l-0.9851-0.4926l-0.4926-0.9851l0.4926-0.9851
			v-1.4777l-1.4777,0.9851l-0.4926,0.9851l-2.2165,0.4926l-0.4926,0.9851l-0.4926,0.9851l0.4926,3.4479l0.9851,1.9702v2.709
			l0.4926,1.4777l-1.4777,1.4777l-0.4926-0.4926h-2.2165l-0.4926,0.4926h-2.2165l-3.2017,1.4777l-2.2165,4.9256l-0.9851,0.9851
			l-2.2165,0.4926l-2.2165,0.4926l0.0001,3.2016l-6.4033,2.4628l-2.2165-1.4777l0.4926,3.9405l-3.6942-1.9702l-3.2016,0.4926v2.4628
			l3.6942,1.4777l1.4777,1.9702l2.7091,3.9405l-0.9851,7.6347l-1.4777,1.9702h-6.8958l-3.2016-0.7388h-3.6942l-3.2017-0.9851
			l-4.1868,2.4628l0.9851,1.4777l-0.4926,2.4628v1.4777l0.4926,1.4777v1.724l-0.9851,1.9703l-0.4926,1.4777l-1.9702,1.4777
			l-0.4926,2.4628l0.4926,1.4777l0.9851,0.4926v2.4628l-0.9851,2.9554l1.4777-0.4926l1.4777,0.4926l1.4777-0.9851l2.7091,0.9851
			l0.4926,2.4628l0.9851,1.4777l1.4777,0.4926l1.4777-1.4777l2.2166-0.9851h7.3884l2.7091-2.9554l2.7091-0.4926l0.9851-2.4628
			l2.2166-1.4777l-0.9851-1.9702l0.9851-2.9554l2.2165-1.9703l0.4926-1.4777l3.6942-0.4926l2.7091-2.4628v-1.9702l0.4926-2.4628
			l4.1868-0.9851l5.9107,0.9851l2.7091-1.9702l0.9851-0.4926l1.4777-1.9703l0.9851-0.4925l2.7091,0.9851l1.4777,0.4926
			l0.9851,3.4479l2.2165,1.9702l2.7091,2.4628l2.7091,1.4777h2.2165l1.4777,1.4777h0.4926l0.9851,1.4777l0.9851,0.4926
			l0.9851,1.9702l1.4777,1.9703l-0.4926,0.9851l-0.4926,1.9702v0.9851l0.9851-0.4926l0.9851-3.4479l0.9851-0.4926v-1.9702
			l-2.2165-0.9851l0.9851-2.4628l2.7091,0.4925l2.2166,1.4777l0.4926-1.4777v-0.4925l-2.7091-1.4777l-2.2165-0.9851l-2.7091-0.9851
			l0.4926-0.9851l-0.9851-0.9851h-2.2165l-3.6942-2.9554l-1.4777-2.9554l-2.7091-1.4777l-0.9851-1.9702v-0.9851l-0.4926-1.9702
			l2.2165-1.4777l2.2165,0.4926l-0.4926,0.4926v1.4777l0.9851,0.9851l0.4926-1.4777l1.4777,0.4926v0.9851l1.4777,1.4777v0.9851
			l2.7091,2.4628l2.7091,0.9851l2.2165,0.9851l2.7091,0.9851l1.4777,0.4926l0.9851,0.9851h0.4926l0.4926,0.4926v3.4479
			l0.4926,1.9703l1.4777,0.9851v0.9851h0.4926l0.4926,0.9851l2.2166,1.9702l1.4777,1.4777l0.9851,2.4628l1.4777,2.9554
			l2.7091,1.4777l2.2165-0.4926l-1.4777-2.4628l1.4777-0.4926l-0.9851-1.9702l3.2016,0.4926l-0.4926-1.9702l-2.2165-0.9851
			l-2.2165-1.4777l0.9851-0.9851l-1.4777-1.4777l-0.9851-1.9702l0.4926-0.9851l2.2165,1.4777h1.4777l0.9851-0.9851l-2.7091-1.4777
			l3.2016-1.4777h3.2017v0.9851l1.4777,1.4777l1.4777-2.4628l0.9851-1.4777l3.2016-0.9851v-0.9851l-2.7091-0.9851l-0.4926-0.9851
			l-1.4777-1.9703v-2.9554l0.9851-1.4777l-0.4926-4.433h0.9851l0.9851-0.9851l-0.9851-0.4926l0.9851-2.9554v-1.9702l2.2166-0.9851
			l0.4925,1.4777h4.1868l0.9851,0.4926l-1.4777,1.4777v0.9851l3.2017,0.4926v1.9702l1.4777,0.4926l2.7091-2.9554l2.2165-0.9851
			v-1.4777l-2.2165,0.9851l-1.4777-0.4926l-0.9851-1.9702l1.4777-1.9702l2.2165-0.4926l0.9851-1.4777l1.4777-0.4926l1.4777-0.9851
			l0.4926,0.4926l-2.7091,2.4628l2.2165,0.9851l-0.4926,3.4479l-1.4777,0.9851l3.2016,1.4777l3.2017,0.4926l4.1868,1.9702
			l1.4777,0.9851h1.4777l2.2165,0.9851l1.4777,1.9702l0.4926,1.4777l-2.2165,2.4628l-2.2165,0.4926l-2.7091,1.4777l-4.1868-0.4926
			l-5.4182-1.4777l-4.1867,0.9851l-2.7091,1.4777l-2.2165,2.9554l-5.4182,0.4926l-0.4926,2.9554l-4.1867,0.9851l-2.2165,3.9405
			l2.2165,1.4777l-1.4777,2.4628l2.7091,1.4777l2.7091,3.4479l3.2017-0.4926l3.2016,1.4777l2.2165-0.9851v-1.4777l3.2016-0.4926
			l2.7091,1.4777l4.1868-1.4777l0.9851-2.4628l2.7091,0.4925l1.4777-0.4925l-0.4926,1.4777l1.4777,1.4777v1.4777l0.9851,2.9554
			l-0.4926,2.9554v7.881l-0.4926,1.9702l-0.4926,1.4777l-0.9851,1.4777l-2.2165,0.4926l-2.7091-0.4926l-0.4926,1.4777
			l-0.9851-1.9702h-2.2165l-2.7091,0.9851l-0.9851,0.9851l-2.2165,1.4777l-1.4777-0.4926l-3.2017-0.4926h-3.2016l-4.1868,0.4926
			l-0.9851-0.9851h-3.2016l-0.9851-0.4926h0.9849l-1.4777-1.4777h-4.1868l-2.2165,0.9851l-2.2165,1.9703l-0.4926,1.9702
			l0.9851,2.9554l-0.9851,1.9702l-1.4777,0.9851l-3.6942-1.4777l-5.4182-1.4777l-3.2017-0.4926l-2.2165-3.4479l-4.6793-1.4777
			l-2.2165-0.4926l-1.4777,0.4926l-3.6942-0.9851l-0.9851-0.4926l-0.9851-1.9702h-1.4777l-0.9851-1.9703l2.2165-1.9702v-3.4479
			l-0.9851-0.9851v-1.9702l1.4777-1.9703l-0.4926-0.4925l-2.7091,1.4777v-1.9703l-2.2165-0.4926l-3.6942,1.9703h-2.2165
			l-0.9851-0.4926h-3.9405l-3.2016,1.4777l-1.4777-0.4926l-5.4182,0.4926l-5.4182,0.4926l-3.2017,0.9851l-2.2165,1.4777
			l-3.6942,0.4926l-3.2016,1.9702h-1.4777l-3.2016-0.9851h-3.2017l-1.4777-1.9702h-2.2165l-0.9851,2.4628l-2.7091,3.9405
			l-2.7091,1.4777l-3.6942,1.4777l-2.2165,2.2165l-0.4926,1.9702l-1.4777,2.9554v4.9256l-3.2017,3.2016l-1.4777,0.9851
			l-3.2017,2.4628h-3.2016l-2.4628,1.4777l-2.7091,3.4479l-2.7091,0.9851l-1.4777,2.4628l-0.4926,1.9702l-0.9851,1.9702
			l-0.9851,0.9851l-2.2165,2.2165l-1.724,3.2017v1.4777l-1.4777,1.4777l-1.724,0.9851l-0.4926,1.9702l-0.4926,1.4777l1.4777,1.9702
			l0.4926,1.9702l-0.4926,1.9703v6.157l-0.9851,3.4479l-0.9851,1.9702v1.9702l-0.9851,1.9702l-0.9851,1.9702l-1.4777,0.4926
			l1.4777,1.4777l0.9851,3.4479l-0.4926,1.4777l0.4926,2.9554v0.9851l0.9851,0.9851v0.4926l0.4926,0.9851l1.4777,0.4926
			l2.2165,1.9703l0.9851,0.9851l0.4926,0.9851l0.4926,1.9702l0.9851,0.9851l0.9851,0.4926l1.4777,1.4777l1.4777,2.4628
			l0.4926,2.9554l0.4926,1.4777l2.2165,2.4628l2.7091,1.9702l0.9851,0.4926l2.7091,2.4628l3.2017,2.4628l3.2016,2.9554
			l3.6942,1.9702h1.4777l3.6942-0.9851l2.7091-0.9851l4.6793-0.4926h2.7091l2.7091,0.9851h1.4777l3.6942,0.9851l3.6942-0.9851
			l2.2165-0.9851l6.4033-1.9702l4.1868,0.7388l3.2016-0.4926h6.8959l2.7091,2.4628l0.9851,2.4628l2.2165,2.4628h3.2017
			l1.4777-0.9851h1.4777l4.1868-1.4777v0.9851l0.9851,0.4926l0.9851,1.4777l1.4777,0.4926l1.4777,2.4628l-2.2165,3.4479
			l-0.9851,4.4331l0.4926,0.4925l-0.4926,2.4628l-0.9851,2.4628l-0.9851,0.9851v0.9851l2.7091,3.4479l2.7091,2.9554l4.1868,3.4479
			l3.2016,3.4479l0.9851,2.4628l0.4926,0.9851l-0.4926,0.4926l2.2165,1.9702l0.4926,1.9702l0.9851,2.9554l-0.9851,1.4777v0.4926
			l0.9851,1.9702l0.9851,1.9702l0.9851,0.9851v1.9702l-1.4777,3.9405l-0.9851,1.4777l-2.2165,1.9702l-0.9851,1.4777l-1.4777,2.9554
			l-0.4925,1.4777l-1.4777,2.9554l-0.4926,2.4628v4.433l2.7091,2.4628l0.4926,1.9703l1.4777,3.4479l1.4777,1.9702l0.9851,0.9851
			l0.4926,1.4777v3.4479l0.4926,3.9405l0.4926,1.9702l0.4926,2.4628l0.9851,1.4777l2.2165,1.4777l2.2165,2.9554l0.9851,1.9703
			l1.4777,1.9702l0.9851,1.4777l-0.9851,0.4926l0.4926,1.4777l-0.4926,1.4777l0.4926,0.4926v1.9702l0.9851,0.9851h0.9851
			l0.9851,0.4926h1.4777l2.2166-0.9851l2.7091-0.4926l3.6942-1.4777h0.9851l2.2165-0.4926h3.2017l1.4777-0.4926h1.4777
			l0.4926-0.4926l1.4777-0.4926l3.6942-1.4777l2.7091-1.4777l2.7091-1.9702l4.1868-2.9554l2.2165-1.9702l0.9851-1.4777
			l1.4777-1.4777l0.4926-0.4926l2.7091-1.4777l0.9851-1.4777l0.9851-1.9702l1.4777-1.9702l0.4926-1.4777h-0.4926v-0.9851
			l1.4777-1.4777l4.1868-2.4628l2.7091-1.4777l1.4777-1.4777l0.9851-1.4777l-0.4926-0.4926l0.9851-1.4777l0.9851-2.9554
			l-0.4926,0.4926v-3.9405l0.4926-1.9703l1.4777-0.9851l2.7091-2.4628l1.4777-0.9851l4.1868-3.9405l3.6942-2.4628l3.2017-1.9702
			l2.2165-2.4628l1.4777-2.4628l1.4777-2.4628v-1.4777l0.4926-4.9256v-2.9554l0.4926-3.4479v-1.4777l-0.9851-0.4926l-0.9851-2.9554
			l-0.9851-1.9702l0.4926-1.4777v-0.9851l0.9851-2.4628v-0.9851l-2.2165-0.4926v-1.9702l1.4777-4.9256l1.4777-1.4777l0.4926-2.4628
			l0.9851-1.4777l0.4926-2.4628l0.9851-0.4926l0.9851-1.4777l2.2165-1.9702l0.4926-0.9851l0.4926-1.9702l3.2016-5.4182
			l2.7091-3.4479l4.1868-4.9256l4.1867-4.9256l3.2017-6.6496l2.2165-4.9256l2.2165-6.6495l0.9851-5.4182l0.9851-4.9256v-7.3882
			l0.4926-1.4777l-0.4926-1.9702v-3.4479l-0.9851,0.4926l-0.9851,1.9702l-1.4777,0.9851l-0.9851,1.4777l-0.9851,0.4926
			l-1.4777,0.4925l-0.9851,0.9851l-0.9851,0.9851l-2.7091,1.9702l-3.2016,1.4777l-2.7091,1.9702l-1.4777,0.4926l-1.4777-0.9851
			l-0.4926-1.4777l-0.9851-0.4926l-1.4777-0.4926l1.4777-1.4777v-1.4777l-0.9851-0.9851l-1.4777-0.4926l-0.9851-0.9851
			l-2.2165-1.4777l-2.2165-1.4777l-4.6793-2.4628l-2.2165-1.4777l-1.4777-3.4479l-2.2165-4.4331l-2.2165-0.9851l-1.4777-0.4926
			l-1.4777-4.433l-0.9851-3.9405l0.4926-0.9851l-1.4777-3.4479l-0.9851-0.4926l-4.1867-2.4628l-0.4926-2.4628l0.4926-0.9851
			l-3.6942-3.4479l-1.4777-1.9702l-1.4777-1.9703l-3.6942-5.4182l-2.7091-3.4479l-2.2165-3.9405V203.92l3.6942,4.9256l1.4777,1.4777
			l0.9851,0.9851l0.4926-0.4926l0.4926-1.9702v-2.9554l0.4926-1.4777v5.4182l1.4777-0.4926l2.2165,2.4628l2.7091,2.4628
			l2.2165,2.4628l0.9851,0.4926l0.9851,1.9702v0.9851l1.4777,1.9702l1.4777,0.4926l1.4777,0.9851l2.7091,3.9405l0.4926,2.4628
			l0.9851,2.4628l2.7091,2.9554h1.4777l2.7091,1.9702l1.4777,2.9554l2.2165,2.9554l1.4777,0.9851l0.4925,1.4777l0.9851,0.9851
			l0.4926,1.4777l0.4926,1.4777v0.9851l0.4926,1.4777l-0.4926,0.4926l0.9851,1.4777l0.9851,2.4628l0.4926,0.9851v1.9703
			l0.9851,1.9702l2.2165-0.4926l0.9851-0.9851l1.4777-0.4926l0.4926-0.9851l0.4926-0.4926l0.4926-0.9851l0.4926-0.4926
			l2.2165-0.9851l1.4777-1.4777l1.4777-1.9702h0.9851l0.9851-0.4926l2.2165-3.4479l3.6942-3.4479l2.2165-2.4628v-3.4479
			l1.4777-1.9702l0.9851-0.4926l1.4777-1.9702l1.4777-0.4926l0.9851-1.4777l-0.4926-1.4777l0.4926-1.4777l1.4777-0.4926
			l0.4926-0.9851v-1.9703l0.9851-1.9702l0.9851-0.4926v-0.4926l-0.9851-2.4628v-2.9554l0.9851-0.4926v-2.9554l0.4926-1.4777v-3.4479
			l-0.4926-0.9851h-0.9851l-0.4926-2.4628l-1.4777-1.4777h-1.4777l-1.4777,0.4926l-1.4777-0.4926l-2.2165-1.9702l2.463-4.4331
			v-0.9851l-0.4926-1.4777h-0.4926v3.9405l-0.9851,2.9554l-0.4926,3.4479l-1.4777,0.4926l-2.2165,0.9851l-1.4777,1.4777
			l-0.4926-0.9851l-0.4926,0.4926l-0.9851-0.9851v-2.4628l-0.4926-1.9702l-0.9851-0.9851l-0.4926,0.4926v1.9702l0.9851,2.4628
			l-0.4926-0.9851l-0.4926-0.9851l-1.4777-0.4926l-0.4926-0.9851v-1.4777l-0.4926-1.4777l-2.7091-0.9851l-0.9851-0.9851
			l-1.4777-0.4926l-2.2165-2.9554l-1.4777-2.4628v-0.9851l-0.9851-1.4777l1.4777-0.4926l0.4925-1.9702l2.2165,0.4926l0.9851-0.9851
			l3.6942,3.9405l2.7091,3.4479h2.7091l3.2017,1.9702h3.2016l1.4777-2.9554l1.4777-1.4777h0.9851l2.7091,3.9405l2.7091-0.9851
			l2.7091-0.4926l4.1868-0.9851l2.7091-1.9703l2.7091-1.9702l2.7091-2.9554l2.7091,1.9702l0.7386,1.9703h1.4777l3.2017,1.4777
			l0.9851,0.9851v1.9702l3.6942,2.4628l0.9851-0.4926l0.9851-3.9405l1.4777,2.9554l1.4777,4.4331l2.2165,4.433l2.7091,6.6496
			l2.7091,3.9405l0.9851,1.9702l1.4777,3.9405l1.4777,2.9554l0.4926,0.9851l0.9851,2.9554l1.4777,4.4331l1.4777,1.9702v3.9405
			L535.9877,262.5346L535.9877,262.5346z M399.5485,292.8271l-2.7091-1.4777h0.4926L399.5485,292.8271z"/>
	</g>
</g>
</svg>
