<?xml version="1.0" encoding="utf-8"?>
<!-- Generator: Adobe Illustrator 27.8.1, SVG Export Plug-In . SVG Version: 6.00 Build 0)  -->
<!DOCTYPE svg PUBLIC "-//W3C//DTD SVG 1.1//EN" "http://www.w3.org/Graphics/SVG/1.1/DTD/svg11.dtd" [
	<!ENTITY ns_extend "http://ns.adobe.com/Extensibility/1.0/">
	<!ENTITY ns_ai "http://ns.adobe.com/AdobeIllustrator/10.0/">
	<!ENTITY ns_graphs "http://ns.adobe.com/Graphs/1.0/">
	<!ENTITY ns_vars "http://ns.adobe.com/Variables/1.0/">
	<!ENTITY ns_imrep "http://ns.adobe.com/ImageReplacement/1.0/">
	<!ENTITY ns_sfw "http://ns.adobe.com/SaveForWeb/1.0/">
	<!ENTITY ns_custom "http://ns.adobe.com/GenericCustomNamespace/1.0/">
	<!ENTITY ns_adobe_xpath "http://ns.adobe.com/XPath/1.0/">
]>
<svg version="1.1" id="Layer_1" xmlns:x="&ns_extend;" xmlns:i="&ns_ai;" xmlns:graph="&ns_graphs;"
	 xmlns="http://www.w3.org/2000/svg" xmlns:xlink="http://www.w3.org/1999/xlink" x="0px" y="0px" width="500px" height="500px"
	 viewBox="0 0 500 500" style="enable-background:new 0 0 500 500;" xml:space="preserve">
<style type="text/css">
	.st0{fill:#FF6600;}
	.st1{fill:#FFFFFF;}
</style>
<metadata>
	<sfw  xmlns="&ns_sfw;">
		<slices></slices>
		<sliceSourceBounds  bottomLeftOrigin="true" height="500" width="500" x="0" y="0"></sliceSourceBounds>
	</sfw>
</metadata>
<circle class="st0" cx="250" cy="250" r="250"/>
<g>
	<g>
		<path class="st1" d="M423.4258,151.2626l-0.1208-0.2289c-0.1027-0.1886-0.2112-0.3706-0.3238-0.5497
			c-6.1848-10.7484-13.3835-20.9319-21.3998-30.2712c-3.7543-4.3676-10.3581-4.8701-14.7228-1.1208
			c-2.1166,1.8159-3.4001,4.3484-3.6121,7.1297c-0.2128,2.7818,0.6705,5.4794,2.4872,7.5964
			c4.9227,5.7345,9.5142,11.8425,13.695,18.2146l-19.1008,10.2406c-5.7017-8.5131-12.2833-16.473-19.5971-23.7002l-0.6269-0.59
			c-0.1216-0.1023-0.2285-0.1849-0.3114-0.2477c-0.1874-0.1615-0.5004-0.431-0.9285-0.7107
			c-0.3919-0.2551-0.7436-0.4281-0.9926-0.5481c-0.1577-0.0875-0.4478-0.2453-0.8291-0.3985
			c-0.4782-0.1911-0.8948-0.3032-1.2267-0.3866c-0.2293-0.0707-0.4626-0.1307-0.7001-0.1758
			c-0.5143-0.0982-0.9786-0.1351-1.3681-0.1536c-0.2104-0.021-0.4166-0.0316-0.6212-0.0304
			c-0.5193,0.0017-0.9786,0.0526-1.3664,0.108c-0.2095,0.0197-0.419,0.0489-0.6286,0.0904
			c-0.511,0.1015-0.9334,0.2374-1.2604,0.3496c-0.2226,0.0641-0.4445,0.1388-0.6746,0.2321
			c-0.4724,0.1944-0.8365,0.4026-1.0542,0.5267l-0.0066,0.0041c-0.161,0.0805-0.4445,0.2263-0.7691,0.4437
			c-0.3747,0.2502-0.6459,0.4868-0.7675,0.5937c-0.17,0.1298-0.4864,0.3714-0.8381,0.7243l-25.998,26.1118
			c-19.7524-16.2007-44.4267-25.0653-70.0466-25.0653c-6.4979,0-12.9949,0.5723-19.376,1.705l-7.405-24.8957
			c8.8635-1.7757,17.8469-2.6737,26.7811-2.6737c24.1665,0,47.8432,6.3845,68.474,18.464c1.5661,0.9162,3.3459,1.4092,5.1544,1.4293
			l0.2572,0.0008c3.7288,0,7.1988-2.0066,9.0557-5.2361l21.1731-36.8023c1.3911-2.4178,1.7576-5.2325,1.0312-7.9259
			c-0.7264-2.6934-2.4585-4.9424-4.875-6.3319c-0.3336-0.1927-0.6804-0.3657-1.05-0.5242
			c-29.8903-17.3022-64.1897-26.445-99.2205-26.445c-36.186,0-71.6489,9.799-102.5499,28.3353
			c-0.0041,0.002-0.0083,0.0045-0.0123,0.007l-0.2005,0.1237c-0.1175,0.074-0.23,0.1512-0.3459,0.2346
			c-0.1512,0.1027-0.2983,0.2062-0.4174,0.2983c-0.1307,0.099-0.2555,0.2021-0.4207,0.3422
			c-0.1372,0.1146-0.2719,0.2321-0.4018,0.3541c-0.1052,0.099-0.2062,0.2009-0.3525,0.3529
			c-0.1249,0.1274-0.2465,0.2564-0.3566,0.3833c-0.1043,0.1191-0.2029,0.2407-0.3492,0.426
			c-0.0978,0.1237-0.1939,0.2481-0.2703,0.3558c-0.1019,0.1414-0.1972,0.2863-0.3147,0.47
			c-0.0847,0.1302-0.1668,0.2621-0.258,0.4203c-0.0756,0.1323-0.1462,0.2675-0.2161,0.403l4.871,2.4873l-4.9177-2.3952
			c-0.0608,0.1196-0.1208,0.2395-0.1816,0.3734c-0.0707,0.1549-0.1356,0.3127-0.2178,0.5226
			c-0.0567,0.1418-0.1109,0.2847-0.1586,0.4248c-0.0583,0.1701-0.1093,0.3422-0.161,0.5255
			c-0.0427,0.1451-0.083,0.2913-0.1085,0.4006c-0.0386,0.1598-0.0715,0.3208-0.1167,0.5612
			c-0.0279,0.1438-0.0534,0.288-0.0756,0.4474c-0.023,0.1627-0.0395,0.3262-0.06,0.5562c-0.0131,0.1455-0.0246,0.2905-0.0296,0.4088
			c-0.0082,0.1639-0.0098,0.3282-0.0082,0.5193l0.0008,0.0899c0,0.1249,0.0024,0.2498,0.0115,0.4433
			c0.009,0.1635,0.0238,0.3258,0.0411,0.4881l5.4387-0.5752l-5.4296,0.6644c0.0131,0.129,0.0288,0.258,0.0543,0.4347
			c0.0296,0.1857,0.0657,0.3698,0.0978,0.523c0.0329,0.1656,0.069,0.3299,0.0969,0.4359c0.046,0.1861,0.1011,0.3714,0.1759,0.6084
			c0.0386,0.1274,0.0797,0.2543,0.1241,0.3768c0.0657,0.1837,0.1397,0.3657,0.2498,0.6208c0.0443,0.106,0.0904,0.2116,0.1569,0.3525
			c0.0838,0.1758,0.1758,0.3492,0.2712,0.5209c0.0567,0.1076,0.115,0.2145,0.18,0.3233l22.7187,36.1597
			c1.9235,3.0599,5.2308,4.8869,8.847,4.8869c1.9663,0,3.8865-0.5542,5.5521-1.6014c4.8742-3.0632,6.3483-9.522,3.2859-14.3979
			l-16.7458-26.6471c25.3636-13.2056,53.7634-20.1603,82.5033-20.1603c28.1673,0,55.931,6.635,80.657,19.2327l-10.7838,18.745
			c-21.5511-10.7283-45.5926-16.3765-69.8732-16.3765c-14.3383,0-28.7021,1.9901-42.6929,5.9145l-0.2926,0.0855
			c-0.1175,0.0366-0.2333,0.0768-0.3533,0.1208c-0.1668,0.0563-0.3336,0.1159-0.5095,0.1865
			c-0.1414,0.0571-0.2777,0.1183-0.4133,0.182l2.2802,4.9712l-2.3574-4.9358c-0.1471,0.067-0.2926,0.136-0.4593,0.2235
			c-0.1388,0.0731-0.2728,0.1504-0.4683,0.2666c-0.1455,0.0842-0.2893,0.1717-0.4092,0.2518
			c-0.1364,0.09-0.2687,0.1844-0.461,0.3266c-0.1208,0.0875-0.24,0.1767-0.3821,0.2909c-0.1257,0.1027-0.2465,0.2095-0.3895,0.3398
			c-0.1241,0.1093-0.2457,0.2206-0.3238,0.2983c-0.1314,0.1278-0.2555,0.2601-0.4117,0.4322
			c-0.1002,0.108-0.1981,0.2173-0.2958,0.3336c-0.1101,0.1323-0.2153,0.2679-0.3212,0.4109
			c-0.1052,0.1364-0.2062,0.274-0.2703,0.3694c-0.0995,0.1438-0.1923,0.2909-0.3106,0.4864
			c-0.074,0.1179-0.1455,0.237-0.2243,0.3784c-0.083,0.1491-0.1586,0.3003-0.2514,0.4934
			c-0.0666,0.1327-0.1298,0.2662-0.1898,0.4035c-0.0665,0.1541-0.1274,0.3098-0.1988,0.5029
			c-0.0624,0.1623-0.1216,0.3262-0.1561,0.4367c-0.0469,0.1446-0.0888,0.2913-0.134,0.4606l-0.023,0.0838
			c-0.0403,0.1475-0.0781,0.295-0.106,0.4203c-0.0362,0.1643-0.0657,0.3299-0.0978,0.5259
			c-0.0296,0.1656-0.0559,0.3324-0.0755,0.5037c-0.0189,0.1615-0.0321,0.3242-0.046,0.5488
			c-0.0115,0.1495-0.0205,0.2991-0.0238,0.4659c-0.0033,0.1623,0,0.325,0.0082,0.5608c0.0041,0.1693,0.0115,0.3382,0.0205,0.429
			c0.014,0.1918,0.0362,0.3854,0.0731,0.6483c0.0164,0.1339,0.0362,0.2679,0.0649,0.4326c0.0288,0.1545,0.0624,0.3094,0.1109,0.5102
			c0.0255,0.1196,0.0534,0.2395,0.0888,0.3722L210.216,146.75c-11.6638,4.4856-22.643,11.0175-32.2017,19.1587l-57.3525-54.8267
			c-0.3517-0.3356-0.6672-0.5649-0.8135-0.6697c-0.1545-0.1281-0.4404-0.3668-0.8324-0.6134
			c-0.4166-0.2629-0.7897-0.44-1.0904-0.578c-0.1988-0.1056-0.4404-0.2243-0.7395-0.3385
			c-0.4856-0.1861-0.9228-0.3024-1.3204-0.3932c-0.1693-0.0485-0.3829-0.1023-0.6245-0.1434
			c-0.5637-0.0982-1.0707-0.129-1.4297-0.1388l-0.1988-0.0205l-0.3583,0.0061c-0.4659,0.0082-0.9293,0.0517-1.4495,0.1372
			l-0.5357,0.09c-0.5595,0.1187-1.0468,0.2822-1.4116,0.4183c-0.1504,0.048-0.3287,0.1109-0.5209,0.1944
			c-0.5218,0.2235-0.9573,0.4774-1.2374,0.6491c-0.1898,0.1023-0.378,0.2153-0.5719,0.3484
			c-0.4076,0.2806-0.7247,0.5604-0.9754,0.7888c-0.0526,0.0427-0.1183,0.0958-0.1914,0.1594l-0.3262,0.3003
			c-0.0173,0.0177-0.0353,0.0353-0.0534,0.0538l-0.2736,0.2736l-0.0329,0.0448c-32.4408,33.7924-52.0469,78.0408-55.2219,124.64
			c-0.3895,5.7456,3.9679,10.7365,9.6892,11.1243c5.7698,0.422,10.7599-4.0061,11.1494-9.7073
			c2.6006-38.2102,17.7064-74.9672,42.6839-104.1242l49.4874,47.3083c-15.75,19.6045-24.3661,43.9682-24.3661,69.179
			c0,15.925,3.3015,31.2263,9.8208,45.5589l-22.1098,13.4558c-8.8027-18.2676-13.4328-38.5484-13.4328-59.0148
			c0-20.3789,4.3508-39.9674,12.9316-58.2194c1.1873-2.5246,1.3204-5.3602,0.3747-7.9846c-0.9457-2.6244-2.857-4.723-5.3829-5.9103
			c-2.5225-1.1849-5.3565-1.3184-7.9802-0.3738c-2.6261,0.9457-4.7263,2.8578-5.9112,5.3816
			c-9.8988,21.0551-14.9176,43.6333-14.9176,67.1067c0,9.7879,0.9293,19.6258,2.7649,29.3143l-31.4744,10.1951
			c-0.1274,0.041-0.2514,0.0855-0.3771,0.1348c-0.1257,0.046-0.2588,0.097-0.4297,0.1668c-0.1438,0.06-0.2843,0.1224-0.4289,0.1898
			c-0.1619,0.0756-0.3229,0.1561-0.5136,0.258c-0.152,0.0829-0.304,0.1684-0.4026,0.2284c-0.1578,0.0945-0.3098,0.1907-0.475,0.3007
			c-0.1216,0.0822-0.2424,0.1676-0.4166,0.295c-0.1388,0.1043-0.2736,0.2104-0.3681,0.2893
			c-0.1339,0.1093-0.2638,0.2219-0.4215,0.3632c-0.1076,0.0995-0.2128,0.1997-0.3443,0.3304
			c-0.1233,0.1224-0.2424,0.2473-0.3631,0.3812c-0.106,0.1175-0.2095,0.2391-0.3016,0.35c-0.1109,0.134-0.2169,0.2695-0.3352,0.4273
			c-0.0871,0.1183-0.1726,0.2383-0.2654,0.3738c-0.0912,0.1356-0.1791,0.2736-0.2745,0.4281
			c-0.0895,0.1471-0.175,0.2966-0.258,0.4495c-0.0814,0.1504-0.1602,0.3048-0.2243,0.4388
			c-0.0682,0.1414-0.1323,0.2827-0.2112,0.4659c-0.0633,0.1504-0.1233,0.3024-0.166,0.419
			c-0.0641,0.1693-0.1224,0.3385-0.1709,0.493c-0.0543,0.1709-0.1052,0.3443-0.1462,0.5029
			c-0.0411,0.1553-0.0781,0.3114-0.1069,0.4453c-0.0369,0.1709-0.069,0.3426-0.1093,0.5826
			c-0.0205,0.1348-0.0395,0.2712-0.0608,0.4486c-0.0197,0.1734-0.0345,0.3459-0.0485,0.5669
			c-0.0082,0.1348-0.0131,0.2695-0.0164,0.4305c-0.0033,0.1898-0.0008,0.3796,0.0082,0.6277
			c0.0066,0.134,0.0148,0.2671,0.0279,0.4273c0.0156,0.1874,0.0369,0.3755,0.0666,0.5891c0.0214,0.152,0.0469,0.3057,0.0682,0.4174
			c0.0304,0.166,0.0657,0.3328,0.1043,0.4988l0.0814,0.3402c9.1666,33.9724,27.2864,65.0204,52.4076,89.8089
			c0.3607,0.4478,0.7494,0.8578,1.1512,1.2152c0.2087,0.1881,0.4043,0.341,0.5702,0.4626
			c37.5253,36.154,86.7596,56.0575,138.6866,56.0575c5.7584,0,10.4427-4.6844,10.4427-10.4427v-42.3445
			c0-5.7575-4.6844-10.4419-10.4427-10.4419c-8.3828,0-16.6152-0.7247-24.5469-2.157l5.8315-25.2996
			c6.1733,1.0567,12.446,1.5907,18.7155,1.5907c15.8166,0,31.0144-3.2538,45.2565-9.6818l15.8272,32.6412
			c1.7345,3.5768,5.4247,5.8874,9.4009,5.8874c1.5628,0,3.1356-0.3615,4.5529-1.0476c5.1798-2.5127,7.3507-8.7714,4.8389-13.9529
			l-16.4328-33.8911c29.6323-20.7712,47.176-54.2753,47.176-90.5747c0-5.808-0.456-11.6173-1.3599-17.3342l25.1845-6.3947
			c1.3557,7.7817,2.0411,15.7397,2.0411,23.729c0,7.3581-0.6253,14.9759-1.8587,22.643c-0.9121,5.6819,2.9687,11.05,8.6416,11.9645
			c0.5505,0.0904,1.1142,0.1356,1.6746,0.1356c5.1494,0,9.483-3.6934,10.3055-8.7863c1.4076-8.7625,2.1216-17.4953,2.1216-25.9569
			c0-13.0812-1.5818-26.0079-4.7025-38.4333l-0.0009-0.9745l-0.4946-0.7415l-0.0904-0.23c-1.2375-3.1129-3.8997-5.4482-7.1676-6.269
			l-0.2671-0.0612c-0.235-0.053-0.47-0.0982-0.6959-0.1323c-0.1947-0.03-0.3911-0.0509-0.6162-0.0707
			c-0.1348-0.0148-0.2703-0.0267-0.3994-0.0336c-0.2572-0.014-0.5168-0.0168-0.7855-0.0111l-0.0583-0.0013l-0.1849,0.0083
			c-0.2761,0.0127-0.5538,0.0382-0.7864,0.0682l-0.2752,0.0353c-0.189,0.0279-0.3779,0.0653-0.53,0.099
			c-0.1668,0.0304-0.3328,0.0649-0.5045,0.108l-35.7612,9.0808c-4.3738-12.0479-10.9095-23.4002-19.1674-33.2937l18.3498-18.4303
			c5.5389,6.3729,10.4419,13.2385,14.6128,20.4668c1.834,3.1836,5.2374,5.177,8.9078,5.2275l0.2859,0.0009
			c1.7132,0,3.419-0.4294,4.9293-1.2403l28.1581-15.0968c12.3433,24.7289,18.8445,52.2424,18.8445,79.9249
			c0,44.0075-15.9283,85.9396-44.9714,118.6959l-15.7483-14.81c7.4419-8.5077,13.976-17.7722,19.4664-27.6076
			c2.802-5.027,0.995-11.3992-4.0394-14.2118c-5.0222-2.7896-11.3918-0.9835-14.2003,4.0353
			c-6.0772,10.8906-13.6333,20.9726-22.4615,29.9716c-0.4248,0.3319-0.82,0.691-1.1791,1.0731
			c-1.8233,1.9392-2.8241,4.4765-2.8241,7.1511c-0.0395,2.8471,1.0411,5.5168,3.0484,7.5266
			c0.4051,0.4043,0.8438,0.7724,1.3295,1.115l21.8625,20.5576c-18.7376,16.713-41.0166,29.3981-65.0081,37.0151l-6.8241-30.5501
			c-0.6105-2.7296-2.2481-5.0566-4.6104-6.5521c-2.3566-1.4921-5.1512-1.9745-7.8586-1.3623
			c-5.6162,1.2564-9.1675,6.8479-7.9144,12.4674l9.2225,41.283l0.1208,0.4979c0.0657,0.2358,0.1422,0.4593,0.2178,0.6573
			c0.0822,0.258,0.1717,0.5119,0.2769,0.7576c0.1224,0.2859,0.2629,0.5579,0.4462,0.889c0.1233,0.2366,0.2539,0.4676,0.3994,0.6902
			c0.1684,0.2588,0.3533,0.5012,0.5628,0.7617c0.1536,0.2046,0.3147,0.4043,0.4971,0.6031c0.2086,0.226,0.4305,0.4355,0.6779,0.6548
			c0.1824,0.1734,0.3698,0.3402,0.5818,0.507c0.2448,0.1914,0.5012,0.3632,0.7757,0.5349c0.2128,0.1447,0.4314,0.2826,0.6565,0.4051
			c0.2704,0.1471,0.5497,0.2745,0.8447,0.3977c0.2342,0.1093,0.4724,0.2095,0.7018,0.29c0.3878,0.1364,0.7223,0.2169,0.9967,0.2802
			c0.2235,0.0616,0.4486,0.115,0.6861,0.1561c0.9762,0.1684,1.9301,0.2029,2.9992,0.0748c0.1447-0.0173,0.2893-0.0403,0.3771-0.0576
			c0.2276-0.0329,0.456-0.0715,0.6393-0.1134l0.3057-0.0723c88.8081-22.4319,150.8327-102.0897,150.8327-193.7121
			C449.5717,215.4642,440.5324,181.3049,423.4258,151.2626z M100.506,299.6376c3.2227,9.7032,7.3878,19.0605,12.4205,27.8903
			c0.2276,0.6023,0.5069,1.1775,0.8357,1.7198c1.8661,3.0657,5.2423,4.9802,8.8282,5.0139l0.2391,0.0008
			c1.8496,0,3.6729-0.4955,5.2694-1.4305c0.3952-0.2317,0.7814-0.4947,1.1545-0.7864l30.0596-18.2939
			c12.8124,18.1337,30.8213,32.076,51.5177,39.8753l-8.3762,36.3363c-0.0312,0.1364-0.0576,0.2712-0.0805,0.4109
			c-0.0288,0.1512-0.0559,0.3057-0.0805,0.4757c-0.0246,0.1718-0.0427,0.3435-0.0616,0.5571
			c-0.0148,0.1635-0.0271,0.3271-0.0336,0.4897c-0.0066,0.1742-0.0074,0.3451-0.005,0.5464c0.0009,0.166,0.005,0.3328,0.014,0.4683
			c0.0107,0.1923,0.0288,0.3804,0.0502,0.5645c0.0181,0.1685,0.0395,0.3361,0.06,0.461c0.0304,0.1898,0.0666,0.3755,0.106,0.5588
			c0.0312,0.1471,0.0641,0.2925,0.1019,0.4371c0.0493,0.189,0.1052,0.3755,0.1479,0.507c0.0436,0.1388,0.0879,0.2769,0.1414,0.4257
			c0.0666,0.1833,0.1397,0.3632,0.2457,0.6114c0.0526,0.1208,0.106,0.2415,0.1512,0.3344c0.0838,0.1742,0.1734,0.3467,0.2481,0.4823
			c0.0707,0.1298,0.1421,0.2588,0.2186,0.3854c0.1027,0.1717,0.212,0.3385,0.2876,0.4486c0.0912,0.1372,0.1849,0.2728,0.2507,0.3607
			c0.1224,0.1676,0.2506,0.3286,0.355,0.4543c0.1011,0.1233,0.2021,0.2424,0.2761,0.3246c0.1307,0.1462,0.2671,0.2876,0.4216,0.442
			c0.1076,0.1085,0.2178,0.2145,0.29,0.2802c0.1446,0.1339,0.2933,0.2605,0.4536,0.3919c0.1224,0.101,0.2432,0.1981,0.3254,0.2588
			c0.1381,0.1043,0.281,0.2046,0.447,0.318l0.0969,0.0641c0.1159,0.0772,0.2326,0.152,0.3286,0.2095
			c0.1594,0.097,0.3245,0.189,0.5283,0.2983c0.1381,0.0739,0.276,0.1447,0.3738,0.1906c0.1381,0.0657,0.2777,0.1282,0.4224,0.189
			l0.1569,0.1569l0.8783,0.2317l0.6516,0.3253h0.5883c9.1297,2.359,18.6793,3.8636,28.463,4.4864v21.4773
			c-39.5302-2.313-77.2084-17.731-107.1718-43.863l14.3457-16.0762c6.8339,5.9793,14.0647,11.2899,21.5576,15.8272
			c1.6335,0.9876,3.5011,1.5094,5.4017,1.5094c3.6294,0,7.0525-1.9276,8.9374-5.0353c2.9811-4.9243,1.4009-11.3572-3.5234-14.3407
			c-9.0829-5.502-17.6941-12.2957-25.5905-20.1895c-1.6565-1.6582-3.7789-2.682-6.1412-2.9646
			c-0.0624-0.0083-0.1257-0.0148-0.189-0.0214l-0.1429-0.0131c-0.3385-0.0288-0.7419-0.0567-1.2202-0.0436
			c-2.9203,0.0468-5.6967,1.3097-7.6261,3.4716l-20.7392,23.2413c-16.6932-18.4032-29.4597-40.2615-37.2484-63.7846
			L100.506,299.6376z M209.9537,396.4957L209.9537,396.4957l-0.0005,0.0009L209.9537,396.4957z M184.7974,188.1885
			c0.2531-0.2178,0.4881-0.44,0.7181-0.6799c0.1717-0.1804,0.3114-0.3488,0.4207-0.4885
			c10.7427-10.8647,24.0827-18.8407,38.6272-23.0958c0.544-0.0707,1.0583-0.1787,1.5628-0.3282
			c0.3738-0.1117,0.7478-0.2477,1.1166-0.4063c7.3179-1.894,14.8766-2.8541,22.473-2.8541c49.48,0,89.7349,40.255,89.7349,89.7349
			s-40.255,89.7349-89.7349,89.7349s-89.7348-40.255-89.7348-89.7349C159.981,226.9336,168.791,204.9705,184.7974,188.1885z
			 M149.6281,83.4775L149.6281,83.4775l-0.0011-0.0015L149.6281,83.4775z M149.2255,83.7978L149.2255,83.7978l-0.0012-0.0013
			L149.2255,83.7978z M148.6263,84.4309L148.6263,84.4309L148.6263,84.4309L148.6263,84.4309z M147.9024,85.6888L147.9024,85.6888
			l-0.0002-0.0001L147.9024,85.6888z M147.6402,86.5996L147.6402,86.5996L147.6402,86.5996L147.6402,86.5996z M147.5747,87.0729
			L147.5747,87.0729h-0.0003H147.5747z M207.5874,104.231L207.5874,104.231l-0.0007-0.0013L207.5874,104.231z M204.8301,108.3532
			L204.8301,108.3532L204.8301,108.3532L204.8301,108.3532z"/>
		<path class="st1" d="M193.6888,249.1306l18.2767,13.3252l-6.9621,21.5206c-2.4306,7.1888-0.0559,14.7343,6.0566,19.2322
			c2.9958,2.207,6.534,3.373,10.2316,3.373c3.6597,0,7.165-1.1454,10.1371-3.313l18.3046-13.3482l18.3243,13.1419
			c6.0476,4.5357,13.9234,4.6499,20.0819,0.2893c6.1733-4.3656,8.7755-12.1543,6.4683-19.4072l-6.9983-21.6308l18.2808-13.328
			c6.1207-4.4671,8.5554-12.0166,6.2012-19.2327c-2.3508-7.2078-8.7624-11.8651-16.3358-11.8651h-22.5732l-6.9826-21.5851
			c-2.3196-7.2661-8.7649-11.9583-16.423-11.9321c-7.5709,0.0251-14.165,4.8878-16.3909,12.0421l-6.9925,21.6172h-22.574
			c-7.5735,0-13.9859,4.6577-16.335,11.8638C185.1294,237.1098,187.564,244.6602,193.6888,249.1306z M254.0848,226.7023
			c2.1618,7.11,8.8865,12.0705,16.3777,12.0705h13.9858l-11.2029,8.1679c-6.1872,4.3713-8.7591,12.3482-6.2743,19.427l4.3039,13.303
			l-11.5544-8.2875c-3.0189-2.1339-6.4831-3.2037-9.9629-3.2037c-3.5225,0-7.0624,1.0961-10.1732,3.2933l-11.2381,8.1946
			l4.3384-13.4098l0.0345-0.1109c2.092-6.9678-0.4018-14.575-6.2645-18.9718l-11.3277-8.2599h13.985
			c7.6112,0,14.1716-4.8073,16.3465-11.9694l4.3516-13.4526L254.0848,226.7023z"/>
	</g>
	<path class="st1" d="M295.7556,233.3036h-25.2927c-5.1163,0-9.7052-3.3858-11.1582-8.2343l-7.7833-24.0536
		c-0.0028-0.0069-0.0041-0.0146-0.0069-0.0222c-0.3345-1.0484-1.1934-1.2072-1.6805-1.2072c-0.0028,0-0.0056,0-0.0069,0
		c-0.6147,0.0021-1.4182,0.2324-1.7568,1.3183l-7.8319,24.209c-1.4446,4.8228-5.9294,8.1323-11.1262,8.1323h-25.2927
		c-1.0574,0-1.4973,0.6682-1.679,1.228c-0.1527,0.4642-0.2706,1.3419,0.6327,2.0017l20.4595,14.9186
		c3.9978,2.9987,5.6838,8.1982,4.249,12.9801l-7.8472,24.2561c-0.2872,0.8465-0.0902,1.4821,0.5634,1.9635
		c0.326,0.2401,1.1836,0.7202,2.1453,0.0194l20.4636-14.9214c4.2227-2.9821,9.5984-2.9821,13.7572-0.043l20.633,14.7993
		c0.7438,0.5606,1.396,0.5732,2.0427,0.1165c0.3345-0.2359,1.0699-0.9131,0.6938-2.0995l-7.782-24.0522
		c-1.7152-4.8026,0.0222-10.2187,4.2503-13.2056l20.4026-14.8756c0.9006-0.6584,0.7827-1.5361,0.6301-2.0003
		C297.2528,233.9718,296.8128,233.3036,295.7556,233.3036z"/>
	<path class="st1" d="M249.716,154.8667c-8.4049,0-16.5569,1.0999-24.3249,3.1543c-0.2623,0.1327-0.5374,0.2475-0.829,0.3342
		c-0.3509,0.1039-0.7031,0.1549-1.0534,0.181c-16.034,4.5975-30.345,13.3064-41.7226,24.904
		c-0.0804,0.0982-0.1437,0.2053-0.2328,0.2986c-0.1556,0.1628-0.3223,0.308-0.4934,0.445
		c-16.4326,17.1166-26.5478,40.3417-26.5478,65.8868c0,52.4962,42.7078,95.2039,95.204,95.2039s95.2039-42.7078,95.2039-95.2039
		C344.92,197.5751,302.2122,154.8667,249.716,154.8667z M302.666,244.5679l-20.4651,14.9207
		c-0.6314,0.4468-0.8964,1.1989-0.6772,1.7942c0.0236,0.0624,0.0444,0.1249,0.0652,0.1887l7.8153,24.1562
		c1.5764,4.9567-0.204,10.2756-4.4224,13.259c-4.199,2.9724-9.5706,2.8808-13.6851-0.2317l-20.5011-14.7036
		c-0.6675-0.4705-1.4973-0.469-2.1897,0.0222l-20.3999,14.8756c-2.0676,1.5084-4.4905,2.2633-6.9146,2.2633
		c-2.4478,0-4.8984-0.7688-6.9883-2.3077c-4.1657-3.0653-5.7782-8.2107-4.1075-13.1091l7.7903-24.0827
		c0.2137-0.7146-0.0361-1.5472-0.6675-2.0218l-20.4082-14.8798c-4.1741-3.0466-5.8337-8.1962-4.2269-13.121
		c1.6027-4.9157,5.9739-8.0914,11.1359-8.0914h25.2927c0.8062,0,1.4154-0.4281,1.6305-1.144l7.8472-24.2589
		c1.5487-4.9782,5.953-8.2392,11.2053-8.2565c5.2605-0.0118,9.6137,3.1735,11.1942,8.1261l7.8111,24.1452
		c0.2554,0.8451,1.038,1.2461,1.6624,1.2461h25.2927c5.1621,0,9.5332,3.1756,11.1359,8.0914
		C308.4983,236.3732,306.8386,241.5227,302.666,244.5679z"/>
	<path class="st0" d="M418.5044,153.6538c-0.0631-0.1176-0.1336-0.2284-0.2046-0.3388
		c-5.9875-10.4208-12.9548-20.3205-20.8669-29.538c-1.7887-2.0822-4.9289-2.325-7.0132-0.5342
		c-2.0843,1.7887-2.3243,4.9289-0.5356,7.0132c6.4349,7.4963,12.2116,15.4684,17.31,23.819l-28.7262,15.401
		c-6.1215-9.8496-13.4341-18.9894-21.7885-27.2174c-0.0033-0.0033-0.0053-0.0073-0.0087-0.0106
		c-0.0027-0.0027-0.0059-0.0043-0.0085-0.0069c-0.0041-0.0041-0.0081-0.0083-0.0123-0.0125
		c-0.0967-0.0952-0.2082-0.1639-0.3105-0.2497c-0.1528-0.1278-0.2999-0.266-0.4633-0.3726c-0.1595-0.1042-0.3313-0.177-0.4991-0.261
		c-0.1222-0.061-0.2384-0.1378-0.3642-0.1881c-0.2125-0.0851-0.4332-0.1372-0.6533-0.1919
		c-0.0897-0.0222-0.1759-0.0596-0.2665-0.0767c-0.244-0.0464-0.4913-0.0596-0.7385-0.0692c-0.0703-0.0028-0.1396-0.0188-0.21-0.0185
		c-0.2468,0.0008-0.4917,0.0347-0.7361,0.072c-0.071,0.0109-0.1432,0.0083-0.2137,0.0221c-0.2266,0.0447-0.446,0.1223-0.6657,0.1987
		c-0.0848,0.0294-0.173,0.0441-0.2564,0.0783c-0.1837,0.0753-0.3554,0.1822-0.5307,0.2805
		c-0.1112,0.0623-0.2285,0.1088-0.3357,0.1802c-0.1263,0.0844-0.238,0.1961-0.3578,0.2932
		c-0.1379,0.1116-0.2835,0.209-0.4117,0.3375l-29.585,29.7139c-18.6449-16.8093-43.315-27.0573-70.3356-27.0573
		c-7.9674,0-15.7289,0.8958-23.1937,2.5829l-10.5025-35.3089c11.0972-2.7054,22.4087-4.0766,33.6964-4.0766
		c25.1373,0,49.7695,6.6434,71.235,19.2121c0.7896,0.4621,1.6541,0.682,2.5089,0.682c0.0237,0,0.047-0.0041,0.0706-0.0045
		c0.0237,0.0003,0.0474,0.0045,0.071,0.0045c1.7207,0,3.3956-0.8951,4.3156-2.4943l21.1728-36.8026
		c1.3695-2.3806,0.5495-5.4209-1.8317-6.7904c-0.2388-0.1376-0.4856-0.247-0.7355-0.3411
		c-29.1342-16.943-62.589-25.8988-96.8067-25.8988c-35.2033,0-69.6962,9.5317-99.7513,27.5643
		c-0.0162,0.0097-0.0304,0.0213-0.0464,0.0311c-0.0135,0.0083-0.0276,0.0146-0.0411,0.0231
		c-0.0526,0.033-0.0999,0.0711-0.1509,0.1058c-0.0769,0.0524-0.1548,0.1038-0.2279,0.1598
		c-0.0615,0.047-0.1185,0.0974-0.1773,0.1469c-0.0684,0.0575-0.1376,0.1141-0.2023,0.1748
		c-0.0577,0.0541-0.111,0.1114-0.1657,0.1679c-0.0591,0.0609-0.1192,0.121-0.1747,0.1845
		c-0.0534,0.0611-0.1022,0.1251-0.1523,0.1885c-0.0501,0.0635-0.1016,0.126-0.1485,0.1917
		c-0.0483,0.0676-0.0916,0.1378-0.1363,0.2074c-0.0418,0.0653-0.085,0.1297-0.1236,0.1967
		c-0.0424,0.0735-0.0798,0.1493-0.1182,0.2247c-0.0341,0.0668-0.0695,0.1328-0.1006,0.2009
		c-0.0353,0.0777-0.0655,0.1572-0.0967,0.2364c-0.0272,0.069-0.0558,0.1373-0.0799,0.2074
		c-0.0275,0.0799-0.0497,0.1613-0.0731,0.2425c-0.0208,0.0721-0.0429,0.1436-0.0604,0.2165
		c-0.0194,0.0809-0.0336,0.1628-0.0489,0.2445c-0.014,0.0747-0.0294,0.149-0.0401,0.2243c-0.0116,0.0825-0.018,0.1658-0.0254,0.2489
		c-0.0068,0.0755-0.0151,0.1506-0.0184,0.2263c-0.0038,0.0846-0.002,0.1695-0.0013,0.2543
		c0.0005,0.0749-0.0006,0.1495,0.0034,0.2245c0.0045,0.0867,0.0147,0.1732,0.0239,0.26c0.0077,0.0728,0.0135,0.1455,0.0245,0.2181
		c0.0135,0.0895,0.0329,0.1784,0.0513,0.2675c0.0144,0.0692,0.0268,0.1386,0.0443,0.2074c0.0232,0.0921,0.0527,0.183,0.0815,0.2742
		c0.0204,0.0647,0.0387,0.1297,0.0619,0.1939c0.0339,0.0938,0.0743,0.1859,0.1142,0.2783c0.026,0.0603,0.0497,0.121,0.0783,0.1806
		c0.0443,0.0926,0.0955,0.1831,0.1461,0.2739c0.0259,0.0465,0.0473,0.0944,0.075,0.1404c0.0059,0.0098,0.0133,0.0179,0.0192,0.0276
		c0.0119,0.0197,0.0212,0.0403,0.0335,0.0598l22.5924,35.9505c0.945,1.5035,2.563,2.3278,4.2157,2.3278
		c0.9048,0,1.8206-0.2463,2.6421-0.7632c2.3257-1.4612,3.0265-4.5314,1.5653-6.8571l-19.8503-31.5873
		c27.4551-15.4511,58.5407-23.5996,90.239-23.5996c31.0657,0,61.4596,7.7775,88.2208,22.5221l-16.2198,28.1933
		c-21.9605-11.9042-46.7467-18.1757-72.001-18.1757c-13.8599,0-27.7461,1.9268-41.2729,5.7268
		c-0.0135,0.0038-0.0259,0.0093-0.0394,0.0132c-0.0114,0.0033-0.0228,0.005-0.0342,0.0083
		c-0.0648,0.0193-0.1257,0.0451-0.1891,0.0668c-0.0864,0.0294-0.1737,0.0571-0.2574,0.0909
		c-0.074,0.0299-0.1442,0.0649-0.2161,0.0979c-0.079,0.0363-0.1591,0.0708-0.2356,0.111c-0.073,0.0383-0.1419,0.0815-0.2123,0.1231
		c-0.0704,0.0416-0.1422,0.0814-0.2101,0.1261c-0.0698,0.046-0.1354,0.0967-0.2025,0.146
		c-0.0636,0.0467-0.1286,0.0916-0.1896,0.1411c-0.0654,0.053-0.1263,0.1104-0.1886,0.1664c-0.057,0.0513-0.1157,0.101-0.1702,0.1547
		c-0.0602,0.0593-0.1156,0.1227-0.1725,0.1848c-0.0511,0.0558-0.1038,0.1101-0.1522,0.1681c-0.0539,0.0646-0.1032,0.1328-0.1536,0.2
		c-0.0453,0.0602-0.0921,0.119-0.1346,0.181c-0.0473,0.0691-0.0894,0.1412-0.133,0.2125c-0.0395,0.0645-0.0808,0.1278-0.1174,0.194
		c-0.04,0.0724-0.0746,0.1475-0.111,0.2219c-0.0336,0.0687-0.069,0.1365-0.0994,0.2067c-0.0327,0.0754-0.0597,0.1529-0.0887,0.2299
		c-0.0272,0.0723-0.0563,0.1437-0.0801,0.2173c-0.0254,0.0786-0.0451,0.159-0.0666,0.2389
		c-0.0201,0.0745-0.0421,0.1482-0.0587,0.2237c-0.0178,0.0814-0.0297,0.164-0.0436,0.2464
		c-0.0128,0.0764-0.0277,0.1521-0.0369,0.2293c-0.0101,0.0846-0.0139,0.1703-0.0197,0.2558
		c-0.0051,0.0761-0.0125,0.1515-0.0141,0.2281c-0.0018,0.0886,0.003,0.1779,0.006,0.2671c0.0025,0.0747,0.0024,0.149,0.0084,0.224
		c0.0072,0.0906,0.0213,0.1814,0.0336,0.2722c0.0101,0.0743,0.0174,0.1484,0.0309,0.2228c0.0164,0.0902,0.0399,0.1802,0.0615,0.2704
		c0.0154,0.0644,0.0258,0.1288,0.0439,0.193c0.0032,0.0115,0.008,0.0221,0.0113,0.0337c0.0038,0.013,0.0056,0.0262,0.0096,0.0392
		l11.9142,40.0546c-14.7093,4.8382-27.994,12.8383-39.0487,23.1952l-60.9881-58.3023c-0.0001-0.0001-0.0002-0.0002-0.0003-0.0003
		s-0.0003-0.0002-0.0003-0.0003l-0.0135-0.013c-0.1274-0.1218-0.2714-0.2123-0.4077-0.3178
		c-0.1265-0.0979-0.2449-0.2109-0.3781-0.2949c-0.1822-0.1151-0.3772-0.1971-0.5695-0.2862
		c-0.102-0.0472-0.198-0.1106-0.3023-0.1505c-0.2339-0.0895-0.4759-0.1455-0.7181-0.1984
		c-0.0697-0.0151-0.1364-0.0441-0.2065-0.0562c-0.2661-0.0464-0.5355-0.0594-0.8047-0.0622
		c-0.0486-0.0004-0.0968-0.0116-0.1455-0.0107c-0.2763,0.0052-0.5507,0.0433-0.823,0.0942
		c-0.0412,0.0077-0.0835,0.006-0.1245,0.0147c-0.2613,0.0557-0.5154,0.1446-0.7666,0.2427
		c-0.0492,0.0193-0.1015,0.0273-0.1502,0.0482c-0.2274,0.0974-0.4422,0.2279-0.6558,0.3608
		c-0.0658,0.0409-0.1374,0.0678-0.2016,0.112c-0.1784,0.1229-0.3389,0.2782-0.5032,0.4269
		c-0.0853,0.0772-0.1803,0.1376-0.2613,0.2217c-0.0033,0.0034-0.0065,0.0069-0.0098,0.0103
		c-0.0013,0.0014-0.0029,0.0022-0.0041,0.0035c-0.0015,0.0015-0.0024,0.0034-0.0038,0.0049
		c-31.6902,32.8995-50.8444,76.0338-53.9384,121.4597c-0.186,2.7406,1.8844,5.1135,4.625,5.2995
		c0.1138,0.0083,0.2289,0.0118,0.3427,0.0118c2.5921,0,4.7776-2.01,4.9567-4.6355c2.8229-41.4591,19.7571-80.9036,47.8109-111.6342
		l57.3093,54.7859c-16.4109,18.5541-26.389,42.9232-26.389,69.5828c0,17.1425,4.1253,33.3388,11.4324,47.6517l-31.3868,19.1011
		c-10.9404-20.3806-16.7059-43.3469-16.7059-66.7528c0-21.1894,4.5265-41.5609,13.4519-60.5474
		c1.1698-2.486,0.1013-5.4486-2.384-6.617c-2.4852-1.167-5.4493-0.1027-6.6164,2.3847
		c-9.554,20.3208-14.3982,42.1159-14.3982,64.7797c0,11.1636,1.2434,22.2314,3.6387,33.0082l-36.1472,11.709
		c-0.0437,0.0141-0.0843,0.0332-0.1274,0.0484c-0.0794,0.028-0.1576,0.0576-0.2347,0.0894
		c-0.0764,0.0314-0.1513,0.0644-0.2253,0.0992c-0.0777,0.0365-0.154,0.0746-0.2291,0.1148
		c-0.0704,0.0377-0.1396,0.0768-0.2077,0.1176c-0.0724,0.0434-0.1433,0.0883-0.213,0.135
		c-0.0662,0.0444-0.1311,0.0901-0.1947,0.1374c-0.066,0.049-0.1304,0.0994-0.1937,0.1516c-0.0621,0.0511-0.1227,0.1034-0.182,0.1572
		c-0.0592,0.0539-0.1169,0.1089-0.1732,0.1653c-0.0574,0.0574-0.1133,0.1159-0.1676,0.1759
		c-0.0528,0.0584-0.104,0.1178-0.1539,0.1785c-0.0515,0.0626-0.1014,0.126-0.1498,0.191c-0.0469,0.0631-0.092,0.127-0.136,0.1922
		c-0.045,0.0669-0.0884,0.1345-0.1302,0.2033c-0.0408,0.0674-0.0797,0.1355-0.1172,0.2047
		c-0.0383,0.0706-0.075,0.1418-0.1098,0.2141c-0.0342,0.0711-0.0666,0.1429-0.0975,0.2156
		c-0.0315,0.0739-0.0611,0.1483-0.0889,0.2237c-0.0273,0.0739-0.0525,0.1482-0.0762,0.2234
		c-0.0246,0.0777-0.0473,0.1557-0.0681,0.2345c-0.0197,0.0748-0.0374,0.1499-0.0536,0.2258
		c-0.0176,0.0825-0.0331,0.1651-0.0465,0.2485c-0.0119,0.074-0.022,0.1483-0.0305,0.2231c-0.01,0.0872-0.0176,0.1745-0.023,0.2625
		c-0.0044,0.0724-0.0071,0.1449-0.0082,0.2177c-0.0015,0.092-0.0003,0.1839,0.0034,0.2763c0.0029,0.0702,0.0071,0.1402,0.013,0.2107
		c0.0079,0.0954,0.0188,0.1906,0.0322,0.2861c0.0098,0.0694,0.0211,0.1386,0.034,0.2081c0.0175,0.0947,0.0381,0.1891,0.0613,0.2836
		c0.0093,0.0376,0.0143,0.0752,0.0245,0.1128c9.1955,34.0791,27.2326,64.0085,51.2278,87.5965
		c0.2045,0.2803,0.4371,0.5455,0.7065,0.7858c0.1301,0.1162,0.274,0.2044,0.4124,0.3044
		c35.392,34.2386,83.4582,54.813,135.1889,54.813c2.7462,0,4.9733-2.2272,4.9733-4.9733v-42.3442
		c0-2.7462-2.2272-4.9734-4.9733-4.9734c-10.7417,0-21.1911-1.1412-31.1377-3.3834l8.2819-35.929
		c7.3613,1.6381,15.0083,2.5091,22.8558,2.5091c17.2009,0,33.4502-4.1519,47.799-11.5056l18.206,37.5477
		c0.859,1.7721,2.6323,2.8045,4.4794,2.8045c0.7271,0,1.4667-0.1609,2.1661-0.4995c2.4714-1.1989,3.5025-4.1741,2.3049-6.6455
		l-18.5091-38.1728c29.2617-18.6913,48.7043-51.4566,48.7043-88.6793c0-7.3232-0.7549-14.4731-2.1867-21.3782l35.7348-9.0737
		c2.1563,9.8936,3.2551,20.1124,3.2551,30.4519c0,7.6473-0.648,15.5569-1.9275,23.5096c-0.4357,2.7115,1.4099,5.2634,4.1213,5.7005
		c0.2678,0.043,0.5329,0.0638,0.7951,0.0638c2.3992,0,4.5113-1.7415,4.9053-4.1851c1.3613-8.473,2.0524-16.9141,2.0524-25.0887
		c0-12.8559-1.5805-25.5496-4.6976-37.7302c-0.001-0.004-0.0013-0.0079-0.0023-0.0119c-0.0006-0.0023-0.0014-0.0043-0.002-0.0066
		c-0.0002-0.001-0.0005-0.0022-0.0007-0.0032c-0.0076-0.0296-0.0189-0.0573-0.0269-0.0866
		c-0.0373-0.1353-0.0765-0.2695-0.1239-0.399c-0.0034-0.0094-0.0081-0.0181-0.0116-0.0275
		c-0.5846-1.5642-1.8986-2.6888-3.4474-3.0776c-0.015-0.0038-0.0306-0.0056-0.0457-0.0093
		c-0.1389-0.0335-0.2789-0.0632-0.4211-0.0846c-0.1041-0.0158-0.21-0.0232-0.3154-0.0324
		c-0.0547-0.0047-0.1085-0.0135-0.1635-0.0164c-0.1534-0.0082-0.3078-0.008-0.463-0.0016
		c-0.0089,0.0003-0.0176-0.0004-0.0265-0.0001c-0.1465,0.0068-0.2936,0.0225-0.4409,0.0427
		c-0.0193,0.0027-0.0385,0.0029-0.0578,0.0058c-0.0958,0.0143-0.1915,0.0374-0.2873,0.0574
		c-0.0703,0.0146-0.1405,0.0243-0.2108,0.0421l-40.6742,10.3279c-4.6656-15.0864-12.6439-28.7296-23.079-40.0818l26.0131-26.1265
		c7.4009,7.8215,13.8384,16.437,19.1678,25.6733c0.92,1.5965,2.5921,2.4887,4.3114,2.4887c0.0243,0,0.0486-0.0043,0.073-0.0047
		c0.0235,0.0003,0.0465,0.0047,0.07,0.0047c0.7938,0,1.5986-0.1901,2.3452-0.5911l33.045-17.7164
		c14.34,26.6364,22.0114,56.6439,22.0114,87.3647c0,48.3875-18.7515,93.1525-50.1466,126.4793l-23.6974-22.2835
		c8.672-9.2667,16.176-19.5323,22.344-30.581c1.3377-2.3993,0.4788-5.4285-1.919-6.7676c-2.4006-1.3349-5.4271-0.4773-6.7677,1.9191
		c-6.4045,11.4771-14.3607,22.0445-23.6352,31.4444c-0.2826,0.1959-0.5508,0.4205-0.7957,0.681
		c-0.9121,0.97-1.3495,2.2094-1.3402,3.4433c-0.0274,1.3074,0.449,2.6232,1.4471,3.6212c0.271,0.2714,0.5695,0.4954,0.8813,0.6909
		l26.468,24.8886c-21.2337,20.2317-47.4612,35.5465-77.0906,43.9004l-8.1043-36.2818c-0.5995-2.6795-3.2555-4.3766-5.9378-3.7702
		c-2.681,0.5995-4.3683,3.2582-3.7703,5.9378l9.2362,41.3491c0.0034,0.0151,0.0102,0.0283,0.0137,0.0433
		c0.0071,0.0305,0.0105,0.0609,0.0183,0.0913c0.0329,0.1302,0.0866,0.2486,0.129,0.3736c0.0428,0.1262,0.0781,0.256,0.1301,0.3768
		c0.0617,0.1435,0.1399,0.275,0.2137,0.4101c0.0603,0.1103,0.1133,0.2252,0.1813,0.3297c0.0852,0.1312,0.1853,0.2486,0.2817,0.37
		c0.0749,0.0944,0.143,0.1945,0.2242,0.2828c0.1058,0.115,0.2246,0.2145,0.3402,0.3186c0.0874,0.0788,0.1685,0.1646,0.2611,0.2368
		c0.1228,0.0958,0.257,0.1744,0.388,0.2582c0.0985,0.0631,0.1914,0.1344,0.2942,0.1904c0.1387,0.0757,0.2869,0.1319,0.4325,0.1942
		c0.1053,0.0451,0.2059,0.0999,0.3144,0.1377c0.1641,0.0571,0.3356,0.0921,0.5057,0.132c0.0976,0.0229,0.1914,0.0571,0.2907,0.0741
		c0.2723,0.0466,0.55,0.0714,0.8312,0.0714c0.1914,0,0.3849-0.0131,0.5791-0.036c0.0606-0.0072,0.1213-0.0209,0.182-0.0303
		c0.1089-0.0169,0.2177-0.03,0.3268-0.0544c0.0256-0.0057,0.0496-0.0146,0.075-0.0208c0.02-0.0047,0.0397-0.0062,0.0597-0.0112
		c86.3757-21.818,146.7025-99.2947,146.7025-188.4097c0-34.0125-8.9238-67.1978-25.5465-96.308
		C418.5376,153.7266,418.5235,153.6896,418.5044,153.6538z M244.7426,401.8945v32.3991
		c-45.7715-1.2319-88.2334-19.4084-120.35-49.1447l21.6419-24.2524c7.7444,7.261,16.0657,13.6091,24.799,18.8987
		c0.8062,0.4871,1.6943,0.7202,2.5727,0.7202c1.6818,0,3.3235-0.8548,4.2587-2.3979c1.4223-2.3493,0.6716-5.4077-1.6777-6.8314
		c-9.461-5.7296-18.4183-12.7955-26.6262-21.0021c-0.8261-0.8261-1.8719-1.279-2.9483-1.4026
		c-0.0435-0.0062-0.0868-0.0074-0.1304-0.0125c-0.2073-0.0182-0.413-0.032-0.6209-0.0244
		c-1.3529,0.0113-2.6969,0.5542-3.6703,1.6448l-24.719,27.7008c-20.1614-20.7894-35.5695-46.4452-44.1917-75.418l30.998-10.041
		c3.316,11.335,7.9519,22.2589,13.8485,32.5246c0.1192,0.3939,0.2836,0.7803,0.5074,1.1482
		c0.9366,1.5388,2.5754,2.3895,4.2531,2.3895c0.023,0,0.0462-0.0043,0.0693-0.0046c0.0241,0.0003,0.048,0.0046,0.0723,0.0046
		c0.8533,0,1.7192-0.2206,2.5089-0.6827c0.2715-0.159,0.5197-0.3421,0.7491-0.5411l34.8515-21.2095
		c13.0039,20.4369,32.8659,36.0981,56.3201,43.7279l-9.4748,41.1041c-0.013,0.0565-0.0192,0.1127-0.0301,0.1691
		c-0.0166,0.085-0.0332,0.1697-0.0453,0.2545c-0.0116,0.0816-0.0189,0.1627-0.0264,0.2441c-0.0077,0.0842-0.0156,0.168-0.019,0.2518
		c-0.0034,0.0834-0.0026,0.1659-0.0018,0.2487c0.0009,0.08,0.0013,0.1599,0.006,0.2393c0.005,0.086,0.0141,0.1709,0.0236,0.256
		c0.0083,0.075,0.0163,0.1497,0.0279,0.2239c0.0138,0.0879,0.0317,0.1744,0.0502,0.261c0.0148,0.0696,0.0293,0.1392,0.047,0.2079
		c0.0227,0.088,0.0495,0.1744,0.0769,0.2609c0.0208,0.0655,0.0411,0.1308,0.0645,0.1953c0.0315,0.0864,0.0667,0.1709,0.1029,0.2552
		c0.0265,0.062,0.0525,0.1239,0.0815,0.1847c0.0395,0.0829,0.0828,0.1636,0.1267,0.2443c0.0323,0.0592,0.0641,0.1184,0.0988,0.1762
		c0.0469,0.0782,0.0973,0.1539,0.1483,0.2294c0.0383,0.0566,0.0761,0.1133,0.1167,0.1683c0.0536,0.0727,0.1105,0.1425,0.168,0.2122
		c0.0442,0.0535,0.088,0.1071,0.1344,0.1588c0.0597,0.0665,0.1224,0.13,0.1858,0.1933c0.0501,0.0502,0.0999,0.1003,0.1523,0.1483
		c0.0657,0.0602,0.1342,0.1172,0.2033,0.174c0.0552,0.0454,0.1101,0.0909,0.1674,0.134c0.0718,0.0539,0.1462,0.1044,0.2212,0.1545
		c0.0599,0.0401,0.1195,0.0805,0.1814,0.1181c0.0773,0.0469,0.1573,0.0902,0.2375,0.1331c0.0646,0.0346,0.1288,0.0694,0.1954,0.1012
		c0.0818,0.0391,0.1658,0.0741,0.2503,0.1089c0.0702,0.0289,0.14,0.0582,0.212,0.0841c0.084,0.0302,0.1701,0.0562,0.2564,0.0821
		c0.0532,0.016,0.1039,0.0362,0.1579,0.0505c0.0504,0.0134,0.102,0.0243,0.1524,0.0376c0.0015,0.0003,0.0029,0.0009,0.0045,0.0013
		c0.0008,0.0002,0.0015,0.0002,0.0023,0.0004C222.1036,399.9481,233.2578,401.5393,244.7426,401.8945z M344.92,250.0707
		c0,52.4962-42.7078,95.2039-95.2039,95.2039s-95.204-42.7078-95.204-95.2039c0-25.545,10.1152-48.7702,26.5478-65.8868
		c0.1711-0.137,0.3377-0.2822,0.4934-0.445c0.0892-0.0933,0.1524-0.2004,0.2328-0.2986
		c11.3777-11.5975,25.6886-20.3065,41.7226-24.904c0.3504-0.0261,0.7026-0.0771,1.0534-0.181
		c0.2916-0.0867,0.5668-0.2016,0.829-0.3342c7.768-2.0544,15.92-3.1543,24.3249-3.1543
		C302.2122,154.8667,344.92,197.5751,344.92,250.0707z"/>
	<path class="st0" d="M295.7556,223.357h-25.2927c-0.6245,0-1.4071-0.401-1.6624-1.2461l-7.8111-24.1452
		c-1.5805-4.9525-5.9336-8.1379-11.1942-8.1261c-5.2523,0.0173-9.6567,3.2783-11.2053,8.2565l-7.8472,24.2589
		c-0.2151,0.716-0.8242,1.144-1.6305,1.144h-25.2927c-5.1621,0-9.5332,3.1756-11.136,8.0914
		c-1.6069,4.9248,0.0528,10.0743,4.2269,13.121l20.4082,14.8797c0.6314,0.4745,0.8811,1.3072,0.6675,2.0218l-7.7903,24.0827
		c-1.6708,4.8983-0.0583,10.0438,4.1075,13.1091c2.0899,1.5389,4.5404,2.3077,6.9883,2.3077c2.4242,0,4.8471-0.7549,6.9146-2.2633
		l20.3999-14.8756c0.6924-0.4912,1.5223-0.4926,2.1897-0.0222l20.5011,14.7036c4.1145,3.1125,9.486,3.2041,13.6851,0.2317
		c4.2184-2.9835,5.9987-8.3023,4.4224-13.259l-7.8152-24.1562c-0.0208-0.0639-0.0417-0.1263-0.0652-0.1887
		c-0.2193-0.5953,0.0458-1.3474,0.6772-1.7942l20.4651-14.9207c4.1727-3.0452,5.8323-8.1947,4.2255-13.1196
		C305.2887,226.5326,300.9176,223.357,295.7556,223.357z M296.8045,236.532l-20.4026,14.8756
		c-4.2281,2.9869-5.9655,8.4029-4.2504,13.2056l7.782,24.0522c0.3761,1.1864-0.3594,1.8636-0.6938,2.0995
		c-0.6467,0.4566-1.2989,0.4441-2.0427-0.1165l-20.633-14.7993c-4.1588-2.939-9.5345-2.939-13.7572,0.043l-20.4636,14.9214
		c-0.9616,0.7007-1.8193,0.2206-2.1453-0.0194c-0.6536-0.4815-0.8507-1.1171-0.5634-1.9635l7.8472-24.2561
		c1.4348-4.7818-0.2512-9.9814-4.249-12.9801l-20.4595-14.9186c-0.9033-0.6598-0.7854-1.5375-0.6327-2.0017
		c0.1817-0.56,0.6216-1.228,1.679-1.228h25.2927c5.1967,0,9.6816-3.3096,11.1262-8.1323l7.8319-24.209
		c0.3386-1.0858,1.142-1.3162,1.7568-1.3183c0.0013,0,0.0041,0,0.0069,0c0.4871,0,1.3461,0.1589,1.6805,1.2072
		c0.0028,0.0076,0.0041,0.0153,0.0069,0.0222l7.7833,24.0536c1.4529,4.8485,6.0418,8.2343,11.1582,8.2343h25.2927
		c1.0574,0,1.4973,0.6682,1.679,1.2281C297.5872,234.9959,297.7051,235.8736,296.8045,236.532z"/>
	<g>
		<path class="st0" d="M242.2181,431.6826c-42.3026-1.7452-82.7013-18.2569-114.281-46.7142l18.2725-20.4763
			c7.3401,6.663,15.1732,12.5306,23.3168,17.4623c1.175,0.7108,2.5168,1.0854,3.88,1.0854c2.6064,0,5.0648-1.3845,6.4174-3.6137
			c2.1413-3.5374,1.0066-8.1568-2.5283-10.2982c-9.2858-5.6244-18.0844-12.5652-26.15-20.6292
			c-1.1807-1.1816-2.7001-1.9145-4.396-2.1191l-0.2046-0.0214c-0.2826-0.0255-0.5202-0.0403-0.7576-0.0403
			c-0.0748,0-0.1504,0.0017-0.2252,0.0042c-2.0427,0.0164-4.0591,0.9236-5.4543,2.4872l-22.8986,25.6603
			c-18.7368-19.915-32.8516-44.0388-40.9895-70.0606l26.1869-8.483c3.2949,10.5948,7.7295,20.7951,13.2019,30.3603
			c0.175,0.5062,0.3993,0.9852,0.668,1.4272c1.3738,2.258,3.7699,3.6039,6.4107,3.6039h0.1421c1.327,0,2.6351-0.3558,3.7846-1.0288
			c0.3229-0.189,0.6417-0.4117,0.9483-0.6614l32.5986-19.8395c13.0294,19.4738,32.1039,34.2633,54.1249,41.9608l-8.9613,38.8762
			c-0.0205,0.0862-0.0369,0.175-0.0509,0.2646c-0.0222,0.1142-0.0452,0.2383-0.0633,0.3624
			c-0.0189,0.1339-0.0312,0.2572-0.0419,0.3804c-0.014,0.152-0.023,0.2662-0.0279,0.3804c-0.005,0.1249-0.0041,0.2481-0.0033,0.3723
			c0.0017,0.1462,0.0033,0.2596,0.0107,0.3714c0.0066,0.1224,0.0197,0.2555,0.0354,0.3895c0.014,0.1257,0.0271,0.2374,0.046,0.3484
			c0.0181,0.1158,0.0443,0.2481,0.0731,0.3812c0.0238,0.1142,0.046,0.2128,0.0715,0.3123c0.0354,0.1339,0.0748,0.2662,0.1175,0.3985
			c0.023,0.0748,0.055,0.1742,0.0904,0.2712c0.0493,0.1372,0.1019,0.2654,0.1569,0.3945c0.0608,0.1405,0.0953,0.2194,0.134,0.2974
			c0.0534,0.1126,0.1183,0.2358,0.1848,0.3583c0.0411,0.0748,0.0912,0.166,0.1446,0.2556c0.0731,0.1216,0.1512,0.24,0.2317,0.3574
			c0.0443,0.0682,0.1076,0.161,0.1759,0.2514c0.0698,0.0962,0.1594,0.2086,0.2514,0.3188c0.06,0.0731,0.129,0.1553,0.2021,0.2366
			c0.0772,0.0871,0.1742,0.1865,0.2728,0.2843c0.0904,0.0912,0.1643,0.1635,0.2416,0.2333c0.083,0.0772,0.1881,0.166,0.2958,0.2547
			c0.0962,0.0789,0.1783,0.1455,0.2646,0.2095c0.0772,0.0592,0.1791,0.129,0.2819,0.1988l0.0921,0.0616
			c0.0772,0.0517,0.1553,0.1027,0.235,0.1504c0.106,0.0641,0.2252,0.1298,0.3435,0.1931c0.1307,0.0699,0.2226,0.1175,0.3164,0.1619
			c0.1076,0.0518,0.2383,0.1076,0.3698,0.1611c0.115,0.0476,0.2079,0.0855,0.3032,0.12c0.0427,0.0156,0.0838,0.0296,0.1241,0.0428
			l0.0304,0.0296c0,0,0.369,0.0978,0.3738,0.0994l0.295,0.1495l0.2802,0.0009c9.9136,2.5908,20.3415,4.1503,31.0349,4.645V431.6826z
			"/>
		<path class="st1" d="M100.7745,299.1082c3.2353,9.8299,7.4401,19.3068,12.5337,28.2404c0.221,0.5909,0.4936,1.1539,0.814,1.6803
			c1.7905,2.9416,5.029,4.7793,8.4699,4.8126l0.0053,0.0004h0.2319c1.7735,0,3.5228-0.4751,5.06-1.3747
			c0.3867-0.2265,0.7639-0.4844,1.126-0.7697l30.4155-18.5099c12.8485,18.3238,31.0082,32.385,51.8925,40.1749l-8.4594,36.699
			c-0.0299,0.1298-0.0544,0.2588-0.0766,0.3935c-0.0287,0.1495-0.0552,0.2992-0.0767,0.4505
			c-0.0231,0.1622-0.0399,0.3232-0.0555,0.4939c-0.0157,0.1701-0.0292,0.3402-0.0357,0.5023
			c-0.007,0.1676-0.0077,0.3336-0.0057,0.5298c0.0015,0.1552,0.0051,0.3101,0.0139,0.4601c0.0101,0.174,0.0267,0.346,0.048,0.5392
			c0.0162,0.1458,0.034,0.291,0.0566,0.4345c0.0278,0.1771,0.0622,0.3518,0.1034,0.5458c0.0283,0.133,0.0581,0.2656,0.0929,0.4007
			c0.0457,0.1768,0.0976,0.3507,0.1599,0.5471c0.0395,0.1244,0.0801,0.2478,0.1249,0.371c0.0634,0.1747,0.1333,0.3463,0.2135,0.5335
			c0.0504,0.1181,0.102,0.2353,0.1579,0.353c0.0793,0.1663,0.1645,0.3291,0.2621,0.5079c0.0618,0.1136,0.1249,0.2263,0.1906,0.3358
			c0.0945,0.1576,0.1944,0.3111,0.3064,0.4767c0.0735,0.1087,0.1479,0.2165,0.2269,0.3236
			c0.1082,0.1466,0.2215,0.2888,0.3465,0.4401c0.0845,0.1025,0.1699,0.2038,0.2641,0.3089c0.1196,0.1331,0.244,0.2617,0.3834,0.401
			c0.0969,0.097,0.1949,0.1927,0.2959,0.2855c0.1326,0.1216,0.2698,0.2382,0.4178,0.36c0.109,0.0897,0.2187,0.1779,0.3312,0.2625
			c0.1456,0.1095,0.2953,0.2133,0.4598,0.3234c0.117,0.0786,0.2348,0.1555,0.3561,0.2291c0.156,0.0948,0.316,0.1837,0.4954,0.2796
			c0.1249,0.0669,0.2502,0.1321,0.3791,0.1938c0.1643,0.0787,0.3326,0.1511,0.522,0.2294c0.1351,0.0558,0.2705,0.1098,0.4118,0.1606
			c0.1481,0.0533,0.2989,0.1016,0.4477,0.1469c0.1256,0.042,0.2523,0.0807,0.3815,0.1149c0.0292,0.0077,0.0586,0.0153,0.089,0.0229
			l0.0447,0.014l0.118,0.0268c9.4088,2.4753,19.27,4.037,29.3797,4.6557v22.3169c-39.9259-2.2361-77.9931-17.8111-108.1895-44.2708
			l14.9062-16.7043c6.9069,6.0747,14.224,11.4631,21.8119,16.059c1.5676,0.9471,3.3599,1.4477,5.1834,1.4477
			c3.4843,0,6.7704-1.8506,8.5772-4.8317c2.8613-4.7259,1.3451-10.9002-3.3811-13.7643
			c-9.1121-5.5182-17.7494-12.3326-25.6717-20.2536c-1.5924-1.5924-3.6338-2.5755-5.9058-2.8441
			c-0.078-0.0097-0.1563-0.0177-0.2358-0.0245l-0.0626-0.0056c-0.2432-0.0215-0.5705-0.0462-0.9443-0.0462
			c-0.0767,0-0.1535,0.001-0.2305,0.0032c-2.8061,0.0423-5.4733,1.2538-7.3273,3.331l-21.0503,23.5894
			c-16.9814-18.6216-29.9402-40.8053-37.7832-64.6829L100.7745,299.1082 M104.0786,292.7312l-30.998,10.041
			c8.6222,28.9728,24.0303,54.6285,44.1917,75.418l24.719-27.7008c0.9734-1.0906,2.3174-1.6335,3.6703-1.6449
			c0.0403-0.0015,0.0806-0.0022,0.1208-0.0022c0.1669,0,0.333,0.0118,0.5,0.0266c0.0436,0.0051,0.0869,0.0062,0.1304,0.0125
			c1.0765,0.1236,2.1222,0.5765,2.9483,1.4026c8.2079,8.2065,17.1653,15.2725,26.6262,21.0021
			c2.3493,1.4236,3.1,4.4821,1.6777,6.8314c-0.9353,1.5431-2.5769,2.3978-4.2587,2.3978c-0.8783,0-1.7664-0.2331-2.5727-0.7202
			c-8.7333-5.2896-17.0545-11.6377-24.799-18.8987l-21.6419,24.2525c32.1165,29.7364,74.5784,47.9128,120.35,49.1447v-32.3993
			c-11.4849-0.3553-22.6391-1.9464-33.2278-4.7393c-0.0008-0.0002-0.0015-0.0003-0.0023-0.0004
			c-0.0015-0.0003-0.0029-0.0009-0.0045-0.0013c-0.0504-0.0133-0.102-0.0242-0.1524-0.0376
			c-0.054-0.0143-0.1048-0.0345-0.1579-0.0505c-0.0863-0.0259-0.1724-0.0518-0.2564-0.082c-0.072-0.0259-0.1418-0.0552-0.212-0.0841
			c-0.0845-0.0349-0.1686-0.0699-0.2503-0.1089c-0.0665-0.0318-0.1307-0.0666-0.1954-0.1012
			c-0.0804-0.0429-0.1602-0.0862-0.2375-0.1331c-0.062-0.0376-0.1215-0.078-0.1814-0.1182
			c-0.075-0.0502-0.1494-0.1006-0.2212-0.1546c-0.0573-0.0431-0.1122-0.0886-0.1674-0.134
			c-0.0691-0.0568-0.1376-0.1139-0.2033-0.174c-0.0524-0.048-0.1021-0.0983-0.1523-0.1483
			c-0.0634-0.0633-0.126-0.1268-0.1858-0.1932c-0.0464-0.0517-0.0902-0.1052-0.1344-0.1588
			c-0.0576-0.0698-0.1144-0.1395-0.168-0.2122c-0.0406-0.055-0.0784-0.1116-0.1167-0.1683
			c-0.0511-0.0756-0.1015-0.1512-0.1483-0.2294c-0.0347-0.0578-0.0665-0.1171-0.0988-0.1762
			c-0.0439-0.0806-0.0872-0.1613-0.1267-0.2443c-0.0289-0.0609-0.055-0.1228-0.0815-0.1847
			c-0.0361-0.0844-0.0714-0.1689-0.1029-0.2553c-0.0234-0.0645-0.0437-0.1298-0.0645-0.1953
			c-0.0274-0.0864-0.0542-0.1728-0.0769-0.2608c-0.0178-0.0687-0.0321-0.1383-0.047-0.2079
			c-0.0184-0.0867-0.0363-0.1731-0.0502-0.261c-0.0117-0.0742-0.0196-0.149-0.0279-0.2239c-0.0094-0.0851-0.0186-0.17-0.0236-0.256
			c-0.0047-0.0794-0.0051-0.1592-0.006-0.2393c-0.0008-0.0828-0.0017-0.1653,0.0018-0.2487
			c0.0034-0.0837,0.0113-0.1677,0.019-0.2518c0.0075-0.0814,0.0148-0.1625,0.0264-0.2441c0.012-0.0849,0.0287-0.1696,0.0453-0.2545
			c0.011-0.0564,0.0172-0.1127,0.0301-0.1691l9.4748-41.104c-23.4542-7.6297-43.3162-23.291-56.3201-43.7279l-34.8518,21.2096
			c-0.2293,0.199-0.4776,0.3821-0.7491,0.5411c-0.7896,0.4621-1.6555,0.6827-2.5089,0.6827c-0.0242,0-0.048-0.0042-0.0723-0.0045
			c-0.0231,0.0002-0.0463,0.0045-0.0693,0.0045c-1.6777,0-3.3165-0.8506-4.2531-2.3895c-0.2239-0.3679-0.3881-0.7542-0.5074-1.1482
			C112.0305,314.9901,107.3947,304.0662,104.0786,292.7312L104.0786,292.7312z"/>
	</g>
</g>
</svg>
