<?xml version="1.0" encoding="utf-8"?>
<!-- Generator: Adobe Illustrator 27.8.1, SVG Export Plug-In . SVG Version: 6.00 Build 0)  -->
<!DOCTYPE svg PUBLIC "-//W3C//DTD SVG 1.1//EN" "http://www.w3.org/Graphics/SVG/1.1/DTD/svg11.dtd" [
	<!ENTITY ns_extend "http://ns.adobe.com/Extensibility/1.0/">
	<!ENTITY ns_ai "http://ns.adobe.com/AdobeIllustrator/10.0/">
	<!ENTITY ns_graphs "http://ns.adobe.com/Graphs/1.0/">
	<!ENTITY ns_vars "http://ns.adobe.com/Variables/1.0/">
	<!ENTITY ns_imrep "http://ns.adobe.com/ImageReplacement/1.0/">
	<!ENTITY ns_sfw "http://ns.adobe.com/SaveForWeb/1.0/">
	<!ENTITY ns_custom "http://ns.adobe.com/GenericCustomNamespace/1.0/">
	<!ENTITY ns_adobe_xpath "http://ns.adobe.com/XPath/1.0/">
]>
<svg version="1.1" id="Layer_1" xmlns:x="&ns_extend;" xmlns:i="&ns_ai;" xmlns:graph="&ns_graphs;"
	 xmlns="http://www.w3.org/2000/svg" xmlns:xlink="http://www.w3.org/1999/xlink" x="0px" y="0px" width="500px" height="500px"
	 viewBox="0 0 500 500" style="enable-background:new 0 0 500 500;" xml:space="preserve">
<style type="text/css">
	.st0{fill:#FF6600;}
	.st1{fill:#FFFFFF;}
</style>
<metadata>
	<sfw  xmlns="&ns_sfw;">
		<slices></slices>
		<sliceSourceBounds  bottomLeftOrigin="true" height="500" width="500" x="-0.5" y="0.6339"></sliceSourceBounds>
	</sfw>
</metadata>
<circle class="st0" cx="249.5" cy="249.3661" r="250"/>
<g>
	<g>
		<path class="st1" d="M443.833,345.1141l-22.1232-30.3535c-2.2635-3.1689-5.6462-5.2387-9.5256-5.8285
			c-2.9623-0.451-5.9394,0.0172-8.6188,1.3153c-1.0755-3.3488-1.8525-6.7289-2.3075-10.1102
			c-1.7881-12.5197-6.5692-24.3942-13.8262-34.3411l-61.3296-84.0035c-2.8243-3.7656-6.9608-6.0756-11.5146-6.492
			c-0.5589-12.101-6.5331-24.8479-16.9865-36.1052c-3.1876-3.4339-6.6866-10.6541-9.8554-20.2056
			c7.292-0.7819,12.9903-6.968,12.9903-14.4637V66.9253c0-8.0235-6.5277-14.5505-14.5518-14.5505h-84.5997
			c-8.0241,0-14.5518,6.5271-14.5518,14.5505v37.6005c0,7.2044,5.2684,13.1859,12.1521,14.3354
			c-0.9533,2.8777-2.2826,6.2002-4.1556,9.6974c-6.075,11.4395-9.1546,23.5014-9.1546,35.8501v10.7333
			c-4.7874,0.3382-9.179,2.7526-11.8821,6.568l-61.2931,83.9577c-7.2319,9.9091-12.0129,21.7811-13.8325,34.3763
			c-0.4591,3.4151-1.2536,6.8424-2.3551,10.2383c-2.6841-1.3208-5.6941-1.8087-8.6945-1.3503
			c-3.8794,0.5898-7.2621,2.6596-9.5004,5.7933l-22.1736,30.4239c-2.2509,3.15-3.1701,6.9842-2.5917,10.7969
			c0.5898,3.8793,2.6596,7.262,5.7908,9.4991l68.2848,49.8586c2.5351,1.812,5.5129,2.7614,8.5674,2.7614
			c0.7406,0,1.4851-0.0565,2.2296-0.1698c3.8793-0.5885,7.2621-2.6583,9.5004-5.792l22.1232-30.3561
			c2.3402-3.15,3.2947-7.0131,2.6886-10.8774c-0.5139-3.2675-2.0953-6.1809-4.4943-8.3799
			c8.0373-5.7621,15.2675-9.6205,19.8962-10.5467c9.1168-1.7454,25.9334-6.7364,36.1443-20.5689l12.7357-17.4431
			c0.5689,0.8419,1.2191,1.6395,1.9532,2.3781c3.018,3.0193,7.0256,4.6817,11.2873,4.6817c5.3477,0,10.0781-2.652,12.9773-6.7005
			l12.3538,16.9529c7.4495,10.2122,20.3313,17.517,36.25,20.5664c4.6566,0.9179,11.3635,4.4965,19.9652,10.6364
			c-2.4253,2.2038-4.0223,5.1349-4.5395,8.4236c-0.6062,3.8643,0.3482,7.7273,2.6646,10.8434l22.122,30.3548
			c2.2635,3.1689,5.6462,5.2387,9.5256,5.8273c0.7432,0.1132,1.4864,0.1686,2.2258,0.1686c3.0557,0,6.0422-0.9532,8.6088-2.7867
			l68.2094-49.8058c3.1689-2.2635,5.2387-5.6462,5.8285-9.5256C447.0284,352.1335,446.1091,348.2993,443.833,345.1141z
			 M196.0463,104.5258V66.9253c0-3.0532,2.4848-5.5368,5.538-5.5368h84.5997c3.0532,0,5.538,2.4835,5.538,5.5368v37.6005
			c0,3.1048-2.432,5.5368-5.538,5.5368h-84.5997C198.5311,110.0626,196.0463,107.579,196.0463,104.5258z M162.7879,376.4044
			l-22.1722,30.4252c-0.8363,1.1695-2.095,1.9353-3.5449,2.1553c-1.4876,0.2188-2.9753-0.1371-4.1674-0.9884L64.6186,358.138
			c-1.1695-0.8362-1.9353-2.095-2.1554-3.5449c-0.2251-1.4814,0.1345-2.974,0.9884-4.17l22.1736-30.424
			c0.8363-1.1695,2.095-1.9353,3.5449-2.1554c0.2892-0.044,0.5797-0.0654,0.8664-0.0654c1.1858,0,2.3402,0.3673,3.2997,1.0512
			l2.2026,1.6083c0.3019,0.3069,0.662,0.5573,1.0536,0.7694l64.9908,47.4558c0.0139,0.0101,0.0264,0.0189,0.039,0.0276
			c1.1959,0.8551,1.9806,2.1252,2.2082,3.5776C164.0592,373.7222,163.697,375.1796,162.7879,376.4044z M217.0164,326.0403
			c-8.3749,11.3451-22.7507,15.5527-30.6101,17.058c-8.3518,1.6692-18.8585,8.6299-25.7205,13.7487l-56.4805-41.2406
			c1.7354-4.7345,2.9471-9.5441,3.5884-14.3162c1.6046-11.1025,5.8185-21.5826,12.1864-30.3083l61.3296-84.0086
			c1.0365-1.4632,2.7223-2.4556,4.5647-2.7569v20.8439l-28.3629,38.8388c-1.4688,2.0107-1.0286,4.8301,0.9809,6.2975
			c0.8023,0.586,1.7328,0.8677,2.6546,0.8677c1.3895,0,2.7614-0.6401,3.643-1.8485l21.0845-28.873v26.9522l-9.1772,12.5718
			c-1.4675,2.0107-1.0274,4.8301,0.9834,6.2977c0.8011,0.5847,1.7316,0.8664,2.6534,0.8664c1.3908,0,2.7614-0.6413,3.6442-1.8498
			l1.8963-2.5977v5.8698c0,4.3183,1.6939,8.3913,4.771,11.4671c3.0684,3.0684,7.1351,4.7584,11.4533,4.7584
			c2.5924,0,5.036-0.6265,7.2117-1.7122v3.3859c0,4.5698,1.7831,8.8503,5.0023,12.0331c3.2004,3.2016,7.4608,4.9646,11.9941,4.9646
			c2.8849,0,5.6015-0.7274,7.9839-2.0009v1.0316L217.0164,326.0403z M250.2585,311.9776c-1.8523,0-3.5965-0.7243-4.903-2.0321
			c-1.3229-1.3304-2.051-3.0783-2.051-4.9218v-95.4173c0-2.4892-2.0183-4.5068-4.5069-4.5068c-2.4886,0-4.5069,2.0176-4.5069,4.5068
			v10.677c-0.2469,0.5676-0.3861,1.1835-0.3861,1.8138c0,0.283,0.0252,0.579,0.0893,0.8752
			c0.0515,0.2835,0.1421,0.5665,0.2578,0.8369c0.012,0.0282,0.0266,0.0559,0.039,0.084v37.8478
			c-0.2449,0.5556-0.3861,1.1668-0.3861,1.8127v0.1295c0,0.555,0.114,1.0804,0.2976,1.5714
			c-0.453,2.3314-0.4366,4.7776,0.0596,7.0977c0.0071,0.0327,0.0213,0.0616,0.0289,0.0939v13.9058
			c0,4.4025-3.5813,7.9839-7.9839,7.9839c-2.1252,0-4.1221-0.825-5.6386-2.3414c-1.5115-1.4951-2.3439-3.4984-2.3439-5.6425
			v-77.7758c0-2.4892-2.0183-4.5069-4.5069-4.5069c-2.4886,0-4.5069,2.0177-4.5069,4.5069v59.8765
			c0,3.9762-3.2355,7.2118-7.2117,7.2118c-1.9101,0-3.7147-0.752-5.0803-2.1176c-1.3732-1.3745-2.1301-3.1827-2.1301-5.0941
			V164.4087c0-10.8591,2.7262-21.4988,8.0932-31.6085c2.3177-4.3267,4.2092-9.0122,5.5685-13.7238h69.7524
			c2.8932,9.2863,7.2127,20.3479,12.6929,26.251c5.4651,5.8857,14.6336,17.8477,14.6336,31.8298v65.6718
			c0,1.133-0.2414,2.2108-0.7168,3.2029c-0.0264,0.0553-0.0529,0.1131-0.0767,0.171c-1.2575,2.4924-3.8593,4.0944-6.6748,4.0944
			c-2.0095,0-3.8932-0.7809-5.3029-2.1994c-1.3971-1.4046-2.1667-3.2758-2.1667-5.2689v-41.0775
			c0-2.4892-2.0183-4.5069-4.5069-4.5069c-2.4886,0-4.5069,2.0176-4.5069,4.5069v41.0775v41.334c0,4.2605-3.4657,7.726-7.726,7.726
			c-2.0762,0-4.0227-0.8085-5.4726-2.2673c-1.4536-1.4688-2.2534-3.4078-2.2534-5.4588v-74.6855
			c0-2.4892-2.0183-4.5069-4.507-4.5069c-2.4887,0-4.507,2.0176-4.507,4.5069v11.5996c-0.0773,0.3334-0.1282,0.6734-0.1282,1.0201
			c0,0.283,0.0251,0.579,0.0893,0.8752c0.0096,0.0527,0.0268,0.1048,0.039,0.1574v39.3978
			c-0.0775,0.3309-0.1282,0.6718-0.1282,1.0263v0.1295c0,0.1863,0.0329,0.3635,0.0548,0.5438
			c-0.3132,0.7964-0.4049,1.6902-0.212,2.5898c0.2515,1.1758,0.2515,2.4723-0.0013,3.6492
			c-0.2062,0.9639-0.0833,1.9199,0.2867,2.7578v10.9389v19.2247c-0.147,0.6495-0.1663,1.3258-0.0177,1.9852
			C257.0098,309.0444,253.9747,311.9776,250.2585,311.9776z M282.873,325.9334l-16.6481-22.8415v-4.0758
			c2.3565,1.2281,4.9881,1.8867,7.726,1.8867c9.23,0,16.7399-7.5098,16.7399-16.7398v-14.7338l5.2413,7.2064
			c0.8816,1.2134,2.2547,1.8561,3.6481,1.8561c0.9192,0,1.8473-0.2805,2.647-0.8626c2.0132-1.4637,2.4585-4.2818,0.9934-6.295
			l-9.1227-12.5431c1.3133,0.3308,2.6714,0.5201,4.0625,0.5201c3.9565,0,7.7229-1.439,10.6536-3.9101l5.5342,7.5896
			c0.8828,1.2097,2.2547,1.851,3.6455,1.851c0.9205,0,1.851-0.2817,2.652-0.8652c2.0107-1.4662,2.4521-4.2856,0.9859-6.2976
			l-7.6084-10.4339c0.3962-1.4255,0.6192-2.8981,0.6192-4.4159v-21.7802l20.5689,28.167c0.8816,1.2084,2.2534,1.8485,3.6429,1.8485
			c0.9218,0,1.8523-0.2817,2.6546-0.8677c2.0095-1.4675,2.4496-4.2868,0.9808-6.2976l-27.8473-38.1329v-21.3507
			c1.6637,0.3712,3.1563,1.3292,4.2139,2.7388l61.2943,83.9545c6.3907,8.7597,10.6033,19.2385,12.1789,30.2668
			c0.6389,4.7461,1.8296,9.5017,3.5309,14.1829l-56.4843,41.2441c-10.9046-8.0317-19.3661-12.5697-25.8178-13.8401
			C305.63,341.4434,291.0995,337.2119,282.873,325.9334z M437.538,354.5931c-0.2201,1.4498-0.9859,2.7087-2.1931,3.5714
			l-68.2093,49.8058c-1.2299,0.8777-2.7225,1.2374-4.2051,1.0148c-1.4499-0.22-2.7087-0.9859-3.5701-2.1906l-22.171-30.424
			c-0.8853-1.1908-1.2474-2.6483-1.0186-4.102c0.2276-1.4525,1.0122-2.7225,2.2081-3.5776c0.0126-0.0088,0.0252-0.0176,0.039-0.0276
			l3.3607-2.454c0.1594-0.1018,0.3135-0.2133,0.4606-0.3363l61.5538-44.9469c0.0435-0.0287,0.083-0.0614,0.1253-0.0915
			l2.7077-1.9771c0.9922-0.708,2.1528-1.0789,3.3424-1.0789c0.2867,0,0.5747,0.0215,0.8626,0.0654
			c1.45,0.22,2.7087,0.9859,3.57,2.1906l22.1232,30.3535C437.4035,351.6191,437.7631,353.1118,437.538,354.5931z"/>
		<path class="st1" d="M136.1947,423.5279c-4.2233,0-8.2849-1.3074-11.745-3.7801L56.121,369.8577
			c-4.3111-3.08-7.1573-7.7408-7.9706-13.0909c-0.7928-5.2278,0.467-10.4811,3.5479-14.793l22.2039-30.4659
			c3.0817-4.3152,7.7424-7.163,13.0934-7.9763c1.9098-0.2929,3.8302-0.3069,5.7153-0.0517c0.3094-1.3976,0.5573-2.7879,0.7419-4.165
			c1.9524-13.5111,7.0785-26.2418,14.8341-36.8673l61.2937-83.9584c2.6402-3.728,6.4498-6.4552,10.8316-7.8348v-6.2455
			c0-13.2526,3.2943-26.1765,9.7917-38.4122c0.6721-1.254,1.2983-2.5421,1.8769-3.8585
			c-6.3415-3.3993-10.5106-10.056-10.5106-17.6121V66.9254c0-11.0351,8.9784-20.0131,20.0143-20.0131h84.5997
			c11.0359,0,20.0143,8.978,20.0143,20.0131v37.6006c0,7.9189-4.586,14.825-11.3708,18.0602
			c2.3365,6.0715,4.7641,10.7248,6.7765,12.8923c10.0781,10.8537,16.3802,23.2343,18.0446,35.2945
			c4.2742,1.3467,8.0206,4.0054,10.8233,7.742l61.3716,84.0597c7.7827,10.6682,12.9079,23.3898,14.8217,36.7901
			c0.1839,1.3657,0.4259,2.7354,0.7238,4.1043c1.854-0.2413,3.7391-0.2224,5.616,0.0623c5.351,0.8133,10.0207,3.6743,13.1492,8.0535
			l22.1235,30.3535c3.0965,4.3349,4.3653,9.6005,3.5725,14.8275c-0.8133,5.3526-3.6734,10.0224-8.0551,13.1516l-68.162,49.7711
			c-3.5314,2.5229-7.6062,3.8384-11.8303,3.8384c-1.0152,0-2.0402-0.078-3.0481-0.2314c-5.3485-0.8108-10.0191-3.671-13.1484-8.0519
			l-22.0915-30.3132c-3.1761-4.2726-4.4818-9.5808-3.6472-14.9063c0.3546-2.2503,1.0677-4.3752,2.1116-6.3202
			c-6.9808-4.5663-10.9833-6.0978-13.1967-6.5344c-17.2625-3.3066-31.3382-11.3732-39.6059-22.7062l-8.6624-11.8878
			c-3.5577,2.4883-7.8311,3.8778-12.2563,3.8778c-4.5975,0-8.9751-1.4411-12.619-4.1092l-8.9448,12.2513
			c-11.3305,15.3487-29.6288,20.817-39.5288,22.7128c-2.9324,0.5876-7.6579,2.9307-13.1106,6.4597
			c1.0259,1.9286,1.7276,4.0304,2.0772,6.2537c0.8354,5.3263-0.4784,10.6468-3.6989,14.9826l-22.0948,30.3165
			c-3.0826,4.316-7.744,7.1638-13.0958,7.9755C138.2333,423.4499,137.2075,423.5279,136.1947,423.5279z M136.1734,403.6506
			c0,0.0009-0.0008,0.0017-0.0008,0.0017L136.1734,403.6506z M363.7802,403.5866c0.0542,0.0009,0.1083-0.0107,0.1822-0.0623
			l68.1612-49.7711c0.0074-0.0057,0.0131-0.0082,0.0164-0.009c0.0033-0.0476-0.0066-0.1042-0.0615-0.1813l-22.0915-30.3117
			c-0.0575-0.0098-0.1116-0.0024-0.1896,0.0542l-2.6574,1.9401c-0.0508,0.0394-0.1116,0.0837-0.1781,0.1305l-61.3864,44.8248
			c-0.2175,0.174-0.4472,0.3413-0.6861,0.5006l-3.3328,2.4334l22.2187,30.4429
			C363.7776,403.5808,363.7793,403.5841,363.7802,403.5866z M136.1265,403.5841c0.0082,0,0.0427,0.0049,0.0944,0.0017l22.181-30.438
			c0.0082-0.0115,0.0148-0.0214,0.0205-0.0288l-0.0608-0.0443l-64.7463-47.277c-0.5753-0.3414-1.1013-0.7263-1.5716-1.1482
			l-1.9278-1.4075c0.0148,0.0115-0.0296-0.0009-0.0796-0.0009c-0.0066,0-0.0107-0.0009-0.0123-0.0033l-22.158,30.4019
			c0,0.0008-0.009,0.0468-0.005,0.1026l68.2638,49.8416C136.1249,403.5841,136.1249,403.5841,136.1265,403.5841z M67.7963,353.6949
			C67.7971,353.6957,67.7963,353.6949,67.7963,353.6949z M110.658,313.5538l50.0378,36.5366
			c7.3214-5.1679,16.6609-10.7544,24.6405-12.349c7.0932-1.3591,20.0044-5.0924,27.2774-14.9342l10.3925-14.2341
			c-4.7395-0.6935-9.1114-2.8799-12.5566-6.3259c-3.3698-3.332-5.5462-7.5758-6.3029-12.2021
			c-0.6771,0.064-1.3599,0.096-2.0476,0.096c-5.7768,0-11.2156-2.2577-15.3167-6.3587c-3.1358-3.1351-5.1966-7.0505-5.996-11.2993
			c-2.2627,0.1124-4.4843-0.563-6.3251-1.9057c-4.4408-3.2409-5.4166-9.4897-2.1773-13.9305l8.1282-11.1335v-8.4277
			l-11.2107,15.3511c-1.8687,2.5606-4.8798,4.0903-8.0543,4.0903c-2.1256,0-4.1568-0.6631-5.8762-1.9179
			c-4.44-3.245-5.4125-9.4947-2.1699-13.933l27.3111-37.3979v-5.8117l-56.0199,76.7366
			c-5.8442,8.0083-9.7146,17.645-11.1918,27.8683C112.6908,305.8582,111.8373,309.7138,110.658,313.5538z M287.2856,322.7144
			c7.122,9.763,20.1612,13.5152,27.3005,14.8834c6.6911,1.3172,14.6166,5.2967,24.7702,12.4557l50.0608-36.5538
			c-1.1531-3.7924-1.9918-7.6104-2.5015-11.3961c-1.4452-10.1159-5.3124-19.7361-11.1779-27.7748l-55.6324-76.1996v5.8548
			l26.7957,36.6937c1.5708,2.1494,2.2102,4.783,1.8006,7.415c-0.4104,2.6304-1.8203,4.9447-3.9705,6.5155
			c-1.7177,1.2549-3.7498,1.9188-5.877,1.9188c-3.1761,0-6.1872-1.5306-8.0559-4.0936l-10.6928-14.6421v5.0374
			c0,1.0464-0.0796,2.1027-0.238,3.1589l6.1782,8.4721c3.2376,4.4432,2.2594,10.692-2.1805,13.9305
			c-1.7194,1.2523-3.7489,1.9138-5.8712,1.9138c-3.1744,0-6.1872-1.5298-8.0576-4.0928l-2.5408-3.4847
			c-0.9339,0.4342-1.8958,0.8018-2.8799,1.1006l3.1236,4.2939c1.5667,2.1526,2.2011,4.788,1.785,7.4191
			c-0.4152,2.6303-1.831,4.9414-3.9853,6.5073c-1.7111,1.2466-3.7383,1.9065-5.8581,1.9065c-1.1818,0-2.3414-0.2118-3.4272-0.6098
			v0.819c0,11.7762-9.2156,21.4407-20.8145,22.1596L287.2856,322.7144z M90.0683,323.1773l-0.0008,0.0017
			C90.0675,323.1782,90.0683,323.1773,90.0683,323.1773z M238.7972,199.6368c5.497,0,9.9698,4.4724,9.9698,9.9694v95.4174
			c0,0.4021,0.1551,0.7616,0.4621,1.0702c0.2757,0.2766,0.6253,0.4211,1.0291,0.4211c0.659,0,1.2368-0.4571,1.4206-1.0718
			c-0.0878-0.8428-0.064-1.698,0.0697-2.5565v-28.7359c-0.453-1.5683-0.5113-3.2155-0.165-4.8306
			c0.0903-0.4193,0.0903-0.9397,0.0009-1.3591c-0.3094-1.4419-0.2946-2.92,0.0361-4.3414v-0.0656c0-0.513,0.0419-1.025,0.128-1.5495
			v-38.3191c-0.0854-0.5154-0.128-1.0476-0.128-1.588c0-0.508,0.0419-1.0176,0.128-1.5421v-11.0777
			c0-5.497,4.4728-9.9694,9.9698-9.9694c5.497,0,9.969,4.4724,9.969,9.9694v74.6858c0,0.6122,0.2331,1.1703,0.673,1.6151
			c0.4185,0.4219,0.9716,0.6484,1.5905,0.6484c1.2483,0,2.2635-1.0152,2.2635-2.2635v-82.4118c0-5.497,4.4728-9.9694,9.9698-9.9694
			c5.497,0,9.969,4.4724,9.969,9.9694v41.0775c0,0.5474,0.1994,1.0374,0.5769,1.4165c0.3841,0.3866,0.8773,0.5893,1.4304,0.5893
			c0.7132,0,1.4059-0.4021,1.753-1.0086c0.0222-0.0501,0.046-0.0993,0.0689-0.1486c0.1247-0.2602,0.1839-0.5351,0.1839-0.8486
			v-65.6716c0-12.1155-8.2538-22.8141-13.1747-28.1129c-4.5688-4.9217-8.82-13.1549-12.6593-24.5052h-61.7893
			c-1.3049,3.7502-2.8946,7.383-4.7469,10.8406c-4.9373,9.3009-7.4454,19.0742-7.4454,29.0292v104.0445
			c0,0.4653,0.1789,0.8806,0.5318,1.2335c0.3414,0.3414,0.751,0.5154,1.2163,0.5154c0.9644,0,1.7489-0.7846,1.7489-1.7489v-59.8767
			c0-5.497,4.4728-9.9694,9.9698-9.9694s9.969,4.4724,9.969,9.9694v77.7753c0,0.6837,0.2504,1.2918,0.7231,1.7596
			c0.5056,0.5056,1.1202,0.7624,1.7973,0.7624c1.3903,0,2.5212-1.1318,2.5212-2.522v-13.3059
			c-0.4719-2.4161-0.5433-4.9948-0.206-7.5086c-0.1198-0.6155-0.1805-1.2351-0.1805-1.854v-0.1297
			c0-0.9323,0.1297-1.8499,0.3866-2.7395V224.836c-0.0771-0.2676-0.1412-0.5335-0.1929-0.799
			c-0.1288-0.6262-0.1937-1.2782-0.1937-1.9397c0-0.927,0.1297-1.8425,0.3866-2.7346v-9.7565
			C228.8282,204.1092,233.3002,199.6368,238.7972,199.6368z M237.8419,293.2564c-0.0009,0.0009-0.0017,0.0024-0.0017,0.0033
			L237.8419,293.2564z M287.1395,251.3994l1.7342,0.4383c-0.6639-0.6837-1.2442-1.4288-1.7342-2.2233V251.3994z M201.5844,66.8511
			c-0.0369,0-0.0755,0.0382-0.0755,0.0743v37.6006c0,0.0357,0.0386,0.0739,0.0755,0.0739h84.5998l0.0755-0.0739V66.9254
			c0-0.0361-0.0386-0.0743-0.0755-0.0743C286.1842,66.8511,201.5844,66.8511,201.5844,66.8511z"/>
	</g>
	<path class="st1" d="M286.1839,110.0626c3.106,0,5.5381-2.432,5.5381-5.5368V66.9253c0-3.0532-2.4848-5.5368-5.5381-5.5368
		h-84.5997c-3.0532,0-5.538,2.4835-5.538,5.5368v37.6005c0,3.0532,2.4848,5.5368,5.538,5.5368H286.1839z"/>
	<path class="st1" d="M161.6222,368.6909c-0.0126-0.0087-0.0251-0.0175-0.039-0.0276l-64.9908-47.4559
		c-0.3916-0.212-0.7516-0.4625-1.0536-0.7694l-2.2026-1.6083c-0.9595-0.6841-2.1139-1.0512-3.2997-1.0512
		c-0.2868,0-0.5772,0.0214-0.8664,0.0654c-1.4499,0.22-2.7087,0.9859-3.5449,2.1553l-22.1736,30.424
		c-0.8538,1.1959-1.2134,2.6886-0.9884,4.17c0.22,1.4498,0.9859,2.7087,2.1553,3.5449l68.2848,49.8586
		c1.1921,0.8513,2.6797,1.2072,4.1674,0.9884c1.4498-0.22,2.7087-0.9859,3.5449-2.1554l22.1722-30.4252
		c0.9091-1.2248,1.2713-2.6823,1.0424-4.1359C163.6027,370.816,162.8181,369.5461,161.6222,368.6909z"/>
	<path class="st1" d="M266.2249,284.163c0,2.0511,0.7998,3.9901,2.2534,5.4588c1.45,1.4587,3.3965,2.2673,5.4726,2.2673
		c4.2604,0,7.7261-3.4656,7.7261-7.7261v-41.334v-41.0775c0-2.4892,2.0183-4.5069,4.5069-4.5069
		c2.4886,0,4.5068,2.0176,4.5068,4.5069v41.0775c0,1.9931,0.7696,3.8643,2.1667,5.2689c1.4097,1.4185,3.2934,2.1994,5.3029,2.1994
		c2.8156,0,5.4173-1.6021,6.6748-4.0944c0.0239-0.0578,0.0504-0.1157,0.0768-0.171c0.4753-0.9922,0.7168-2.0699,0.7168-3.2029
		v-65.6718c0-13.9821-9.1684-25.9442-14.6336-31.8299c-5.4801-5.9031-9.7996-16.9647-12.6928-26.251h-69.7523
		c-1.3593,4.7116-3.2508,9.3971-5.5685,13.7238c-5.367,10.1097-8.0932,20.7494-8.0932,31.6085v104.0443
		c0,1.9114,0.757,3.7196,2.1301,5.0941c1.3656,1.3657,3.1702,2.1176,5.0803,2.1176c3.9762,0,7.2117-3.2356,7.2117-7.2119v-59.8765
		c0-2.4892,2.0183-4.5069,4.5069-4.5069c2.4887,0,4.5069,2.0177,4.5069,4.5069v77.7758c0,2.1441,0.8324,4.1472,2.3439,5.6425
		c1.5166,1.5165,3.5134,2.3414,5.6386,2.3414c4.4025,0,7.9839-3.5813,7.9839-7.9839v-13.9058
		c-0.0077-0.0324-0.0219-0.0613-0.0289-0.094c-0.4962-2.3201-0.5126-4.7664-0.0596-7.0977
		c-0.1835-0.491-0.2976-1.0164-0.2976-1.5715v-0.1295c0-0.646,0.1412-1.2572,0.3861-1.8127v-37.8478
		c-0.0124-0.0281-0.0269-0.0558-0.039-0.084c-0.1157-0.2704-0.2062-0.5533-0.2578-0.8369
		c-0.0641-0.2962-0.0893-0.5923-0.0893-0.8752c0-0.6303,0.1392-1.2461,0.3861-1.8137v-10.677c0-2.4893,2.0183-4.5069,4.5069-4.5069
		c2.4886,0,4.5069,2.0176,4.5069,4.5069v95.4173c0,1.8435,0.7281,3.5914,2.051,4.9218c1.3065,1.3078,3.0507,2.0321,4.903,2.0321
		c3.7162,0,6.7514-2.9333,6.935-6.6047c-0.1487-0.6594-0.1294-1.3356,0.0177-1.9852v-19.2247V273.224
		c-0.3699-0.838-0.4929-1.7939-0.2867-2.7578c0.2528-1.1771,0.2528-2.4734,0.0013-3.6492c-0.1928-0.8997-0.1012-1.7935,0.212-2.5898
		c-0.0219-0.1804-0.0548-0.3575-0.0548-0.5438v-0.1295c0-0.3545,0.0508-0.6953,0.1282-1.0263v-39.3978
		c-0.0122-0.0526-0.0294-0.1047-0.039-0.1574c-0.0641-0.2962-0.0892-0.5923-0.0892-0.8752c0-0.3467,0.0508-0.6867,0.1282-1.0201
		v-11.5996c0-2.4892,2.0183-4.5069,4.5069-4.5069c2.4886,0,4.507,2.0176,4.507,4.5069v74.6855H266.2249z"/>
	<path class="st1" d="M214.3128,298.3853c-3.2192-3.1827-5.0023-7.4633-5.0023-12.0331v-3.3859
		c-2.1758,1.0857-4.6193,1.7122-7.2117,1.7122c-4.3183,0-8.385-1.69-11.4533-4.7584c-3.0771-3.0758-4.771-7.1489-4.771-11.4671
		v-5.8698l-1.8963,2.5977c-0.8828,1.2085-2.2534,1.8498-3.6442,1.8498c-0.9217,0-1.8523-0.2817-2.6534-0.8664
		c-2.0107-1.4675-2.4509-4.2869-0.9834-6.2977l9.1772-12.5718v-26.9522l-21.0845,28.873c-0.8816,1.2084-2.2535,1.8485-3.643,1.8485
		c-0.9218,0-1.8522-0.2817-2.6546-0.8677c-2.0096-1.4675-2.4497-4.2868-0.9809-6.2975l28.3629-38.8388v-20.8439
		c-1.8425,0.3013-3.5281,1.2937-4.5647,2.7569L119.98,270.9818c-6.368,8.7258-10.5819,19.2058-12.1864,30.3083
		c-0.6413,4.7722-1.853,9.5817-3.5884,14.3162l56.4805,41.2406c6.862-5.1188,17.3687-12.0795,25.7205-13.7487
		c7.8594-1.5052,22.2352-5.7129,30.6101-17.058l17.2744-23.6597v-1.0316c-2.3824,1.2735-5.099,2.0009-7.9839,2.0009
		C221.7734,303.3499,217.5131,301.5869,214.3128,298.3853z"/>
	<path class="st1" d="M395.8605,315.5585c-1.7013-4.6812-2.892-9.4368-3.5309-14.1829
		c-1.5757-11.0283-5.7883-21.5071-12.1789-30.2668l-61.2943-83.9545c-1.0576-1.4097-2.5501-2.3676-4.2139-2.7388v21.3507
		l27.8473,38.1329c1.4688,2.0107,1.0287,4.8301-0.9808,6.2975c-0.8023,0.586-1.7329,0.8677-2.6546,0.8677
		c-1.3895,0-2.7614-0.6401-3.6429-1.8485l-20.5689-28.167v21.7802c0,1.5178-0.2229,2.9905-0.6192,4.4159l7.6084,10.4339
		c1.4662,2.012,1.0249,4.8313-0.9859,6.2975c-0.801,0.5835-1.7315,0.8652-2.652,0.8652c-1.3908,0-2.7628-0.6413-3.6455-1.851
		l-5.5342-7.5896c-2.9307,2.4711-6.697,3.9101-10.6536,3.9101c-1.3912,0-2.7492-0.1893-4.0625-0.5201l9.1227,12.5431
		c1.465,2.0132,1.0198,4.8313-0.9934,6.295c-0.7998,0.5822-1.7278,0.8627-2.647,0.8627c-1.3934,0-2.7665-0.6425-3.6481-1.8561
		l-5.2413-7.2064v14.7338c0,9.23-7.5098,16.7399-16.7399,16.7399c-2.7379,0-5.3695-0.6587-7.726-1.8867v4.0758l16.6481,22.8415
		c8.2265,11.2785,22.757,15.51,30.6855,17.029c6.4516,1.2705,14.9131,5.8085,25.8178,13.8402L395.8605,315.5585z"/>
	<path class="st1" d="M414.4012,320.0344c-0.8614-1.2047-2.1201-1.9705-3.5699-2.1906c-0.288-0.044-0.5759-0.0654-0.8627-0.0654
		c-1.1896,0-2.3503,0.371-3.3424,1.0789l-2.7076,1.9771c-0.0424,0.0301-0.0819,0.0629-0.1253,0.0915l-61.5538,44.9469
		c-0.1471,0.123-0.3012,0.2346-0.4606,0.3363l-3.3607,2.454c-0.0138,0.0101-0.0264,0.0189-0.039,0.0276
		c-1.1959,0.8551-1.9805,2.1252-2.2081,3.5776c-0.2289,1.4536,0.1333,2.9111,1.0186,4.102l22.171,30.424
		c0.8614,1.2047,2.1201,1.9705,3.5701,2.1906c1.4826,0.2226,2.9753-0.1371,4.2051-1.0148l68.2094-49.8058
		c1.2072-0.8626,1.973-2.1215,2.1931-3.5713c0.2251-1.4814-0.1345-2.974-1.0136-4.2051L414.4012,320.0344z"/>
	<path class="st0" d="M421.7098,314.7605c-2.2635-3.169-5.6462-5.2388-9.5256-5.8286c-2.9623-0.451-5.9394,0.0172-8.6188,1.3153
		c-1.0755-3.3488-1.8525-6.7289-2.3075-10.1103c-1.7881-12.5197-6.5692-24.3942-13.8262-34.3411l-61.3296-84.0035
		c-2.8243-3.7656-6.9608-6.0756-11.5146-6.492c-0.5589-12.101-6.5331-24.8479-16.9865-36.1052
		c-3.1876-3.4339-6.6866-10.6541-9.8554-20.2056c7.292-0.7819,12.9903-6.968,12.9903-14.4637V66.9253
		c0-8.0235-6.5277-14.5505-14.5518-14.5505h-84.5997c-8.0241,0-14.5518,6.5271-14.5518,14.5505v37.6005
		c0,7.2044,5.2684,13.1859,12.1521,14.3354c-0.9533,2.8777-2.2826,6.2002-4.1556,9.6974
		c-6.075,11.4395-9.1546,23.5014-9.1546,35.8501v10.7333c-4.7874,0.3382-9.179,2.7526-11.8821,6.568l-61.2931,83.9577
		c-7.2319,9.9091-12.0129,21.7811-13.8325,34.3763c-0.4591,3.4151-1.2536,6.8424-2.3551,10.2383
		c-2.6841-1.3208-5.6941-1.8087-8.6945-1.3503c-3.8794,0.5898-7.2621,2.6596-9.5004,5.7933l-22.1736,30.4239
		c-2.2509,3.15-3.1701,6.9842-2.5917,10.7969c0.5898,3.8793,2.6596,7.262,5.7908,9.4991l68.2848,49.8586
		c2.5351,1.812,5.5129,2.7614,8.5674,2.7614c0.7406,0,1.4851-0.0565,2.2296-0.1698c3.8793-0.5885,7.2621-2.6583,9.5004-5.792
		l22.1232-30.3561c2.3402-3.15,3.2947-7.0131,2.6886-10.8774c-0.5139-3.2675-2.0953-6.1809-4.4943-8.3799
		c8.0373-5.7621,15.2675-9.6205,19.8962-10.5467c9.1168-1.7454,25.9334-6.7364,36.1443-20.5689l12.7357-17.4431
		c0.5689,0.8419,1.2191,1.6395,1.9532,2.3781c3.018,3.0193,7.0256,4.6817,11.2873,4.6817c5.3477,0,10.0781-2.652,12.9773-6.7005
		l12.3538,16.9529c7.4495,10.2122,20.3313,17.517,36.25,20.5664c4.6566,0.9179,11.3635,4.4965,19.9652,10.6364
		c-2.4253,2.2038-4.0223,5.1349-4.5395,8.4236c-0.6062,3.8643,0.3482,7.7273,2.6646,10.8434l22.122,30.3548
		c2.2635,3.1689,5.6462,5.2387,9.5256,5.8273c0.7432,0.1132,1.4864,0.1686,2.2258,0.1686c3.0557,0,6.0422-0.9532,8.6088-2.7867
		l68.2094-49.8058c3.1689-2.2635,5.2387-5.6462,5.8285-9.5256c0.5785-3.8128-0.3408-7.6469-2.6168-10.8321L421.7098,314.7605z
		 M196.0463,104.5258V66.9253c0-3.0532,2.4848-5.5368,5.538-5.5368h84.5997c3.0532,0,5.538,2.4835,5.538,5.5368v37.6005
		c0,3.1048-2.432,5.5368-5.538,5.5368h-84.5997C198.5311,110.0626,196.0463,107.579,196.0463,104.5258z M162.7879,376.4044
		l-22.1722,30.4252c-0.8363,1.1695-2.095,1.9353-3.5449,2.1553c-1.4876,0.2188-2.9753-0.1371-4.1674-0.9884L64.6186,358.138
		c-1.1695-0.8362-1.9353-2.095-2.1554-3.5449c-0.2251-1.4814,0.1345-2.974,0.9884-4.17l22.1736-30.424
		c0.8363-1.1695,2.095-1.9353,3.5449-2.1554c0.2892-0.044,0.5797-0.0654,0.8664-0.0654c1.1858,0,2.3402,0.3673,3.2997,1.0512
		l2.2026,1.6083c0.3019,0.3069,0.662,0.5573,1.0536,0.7694l64.9908,47.4558c0.0139,0.0101,0.0264,0.0189,0.039,0.0276
		c1.1959,0.8551,1.9806,2.1252,2.2082,3.5776C164.0592,373.7222,163.697,375.1796,162.7879,376.4044z M234.2907,302.3806
		l-17.2744,23.6596c-8.3749,11.3451-22.7507,15.5527-30.6101,17.058c-8.3518,1.6692-18.8585,8.6299-25.7205,13.7487
		l-56.4805-41.2406c1.7354-4.7345,2.9471-9.5441,3.5884-14.3163c1.6046-11.1025,5.8185-21.5825,12.1864-30.3083l61.3296-84.0086
		c1.0365-1.4632,2.7223-2.4556,4.5647-2.7569v20.8439l-28.3629,38.8388c-1.4688,2.0107-1.0286,4.8301,0.9809,6.2976
		c0.8023,0.586,1.7328,0.8677,2.6546,0.8677c1.3895,0,2.7614-0.6401,3.643-1.8485l21.0845-28.873v26.9522l-9.1772,12.5719
		c-1.4675,2.0107-1.0274,4.8301,0.9834,6.2977c0.8011,0.5847,1.7316,0.8664,2.6534,0.8664c1.3908,0,2.7614-0.6413,3.6442-1.8498
		l1.8963-2.5977v5.8698c0,4.3183,1.6939,8.3913,4.771,11.4671c3.0684,3.0684,7.1351,4.7584,11.4533,4.7584
		c2.5924,0,5.036-0.6265,7.2118-1.7122v3.3858c0,4.5698,1.7831,8.8503,5.0023,12.0331c3.2004,3.2016,7.4608,4.9646,11.9941,4.9646
		c2.8849,0,5.6015-0.7274,7.9839-2.0009v1.0315H234.2907z M261.718,204.9706c-2.4886,0-4.5069,2.0176-4.5069,4.5069v11.5996
		c-0.0773,0.3334-0.1282,0.6734-0.1282,1.0201c0,0.283,0.0251,0.579,0.0892,0.8752c0.0096,0.0527,0.0268,0.1048,0.039,0.1574
		v39.3978c-0.0775,0.3309-0.1282,0.6718-0.1282,1.0263v0.1295c0,0.1863,0.0328,0.3635,0.0548,0.5438
		c-0.3132,0.7964-0.4049,1.6902-0.212,2.5898c0.2515,1.1758,0.2515,2.4723-0.0013,3.6492
		c-0.2062,0.9639-0.0833,1.9199,0.2867,2.7578v10.9389v19.2247c-0.147,0.6495-0.1663,1.3258-0.0177,1.9852
		c-0.1836,3.6715-3.2188,6.6047-6.935,6.6047c-1.8523,0-3.5965-0.7243-4.903-2.032c-1.3229-1.3304-2.051-3.0784-2.051-4.9218
		v-95.4173c0-2.4893-2.0183-4.5069-4.5069-4.5069c-2.4886,0-4.5069,2.0176-4.5069,4.5069v10.677
		c-0.2469,0.5676-0.3861,1.1834-0.3861,1.8137c0,0.283,0.0252,0.579,0.0893,0.8752c0.0515,0.2836,0.1421,0.5665,0.2578,0.8369
		c0.012,0.0282,0.0266,0.0559,0.039,0.084v37.8478c-0.2449,0.5556-0.3861,1.1668-0.3861,1.8127v0.1295
		c0,0.555,0.114,1.0804,0.2976,1.5714c-0.453,2.3314-0.4366,4.7776,0.0596,7.0977c0.0071,0.0327,0.0213,0.0616,0.0289,0.094v13.9058
		c0,4.4025-3.5813,7.9839-7.9839,7.9839c-2.1252,0-4.1221-0.8249-5.6386-2.3414c-1.5115-1.4951-2.3439-3.4984-2.3439-5.6425
		v-77.7758c0-2.4892-2.0183-4.5069-4.5069-4.5069c-2.4886,0-4.5069,2.0177-4.5069,4.5069v59.8765
		c0,3.9763-3.2355,7.2119-7.2117,7.2119c-1.9101,0-3.7147-0.752-5.0803-2.1176c-1.3732-1.3745-2.1301-3.1827-2.1301-5.0941V164.4087
		c0-10.8591,2.7262-21.4988,8.0932-31.6085c2.3177-4.3267,4.2092-9.0122,5.5685-13.7238h69.7524
		c2.8932,9.2863,7.2127,20.3479,12.6929,26.251c5.4651,5.8857,14.6336,17.8477,14.6336,31.8298v65.6718
		c0,1.133-0.2414,2.2108-0.7168,3.2029c-0.0264,0.0553-0.0529,0.1131-0.0767,0.171c-1.2575,2.4924-3.8593,4.0944-6.6748,4.0944
		c-2.0095,0-3.8932-0.7809-5.3029-2.1994c-1.3971-1.4046-2.1667-3.2758-2.1667-5.2689v-41.0775
		c0-2.4892-2.0183-4.5069-4.5069-4.5069c-2.4886,0-4.5069,2.0176-4.5069,4.5069v41.0775v41.334c0,4.2605-3.4657,7.726-7.726,7.726
		c-2.0762,0-4.0227-0.8085-5.4726-2.2673c-1.4536-1.4688-2.2534-3.4078-2.2534-5.4588v-74.6855
		C266.2249,206.9882,264.2066,204.9706,261.718,204.9706z M313.5585,342.9624c-7.9285-1.5191-22.459-5.7506-30.6855-17.0291
		l-16.6481-22.8415v-4.0758c2.3565,1.2281,4.9881,1.8867,7.726,1.8867c9.23,0,16.7399-7.5098,16.7399-16.7398v-14.7338
		l5.2413,7.2064c0.8816,1.2134,2.2547,1.8561,3.6481,1.8561c0.9192,0,1.8473-0.2805,2.647-0.8626
		c2.0132-1.4637,2.4585-4.2818,0.9934-6.295l-9.1227-12.5431c1.3133,0.3308,2.6714,0.5201,4.0625,0.5201
		c3.9565,0,7.7229-1.439,10.6536-3.9101l5.5342,7.5896c0.8828,1.2097,2.2547,1.851,3.6455,1.851c0.9205,0,1.851-0.2817,2.652-0.8652
		c2.0107-1.4662,2.4521-4.2856,0.9859-6.2976l-7.6084-10.4339c0.3962-1.4255,0.6192-2.8981,0.6192-4.4159v-21.7802l20.5689,28.167
		c0.8816,1.2084,2.2534,1.8485,3.6429,1.8485c0.9218,0,1.8523-0.2817,2.6546-0.8677c2.0095-1.4675,2.4496-4.2868,0.9808-6.2976
		l-27.8473-38.1329v-21.3507c1.6637,0.3712,3.1563,1.3292,4.2139,2.7388l61.2943,83.9545
		c6.3907,8.7597,10.6033,19.2385,12.1789,30.2668c0.6389,4.7461,1.8296,9.5017,3.5309,14.1829l-56.4843,41.2441
		C328.4716,348.7709,320.0101,344.2329,313.5585,342.9624z M437.538,354.5931c-0.2201,1.4498-0.9859,2.7087-2.1931,3.5714
		l-68.2093,49.8058c-1.2299,0.8777-2.7225,1.2374-4.2051,1.0148c-1.4499-0.22-2.7087-0.9859-3.5701-2.1906l-22.171-30.424
		c-0.8853-1.1908-1.2474-2.6483-1.0186-4.102c0.2276-1.4525,1.0122-2.7225,2.2081-3.5776c0.0126-0.0088,0.0252-0.0176,0.039-0.0276
		l3.3607-2.454c0.1594-0.1018,0.3135-0.2133,0.4606-0.3363l61.5538-44.9469c0.0435-0.0287,0.083-0.0614,0.1253-0.0915l2.7077-1.9771
		c0.9922-0.708,2.1528-1.0789,3.3424-1.0789c0.2867,0,0.5747,0.0215,0.8626,0.0654c1.45,0.22,2.7087,0.9859,3.57,2.1906
		l22.1232,30.3535C437.4035,351.6191,437.7631,353.1118,437.538,354.5931z"/>
</g>
</svg>
