<?xml version="1.0" encoding="utf-8"?>
<!-- Generator: Adobe Illustrator 27.8.1, SVG Export Plug-In . SVG Version: 6.00 Build 0)  -->
<!DOCTYPE svg PUBLIC "-//W3C//DTD SVG 1.1//EN" "http://www.w3.org/Graphics/SVG/1.1/DTD/svg11.dtd" [
	<!ENTITY ns_extend "http://ns.adobe.com/Extensibility/1.0/">
	<!ENTITY ns_ai "http://ns.adobe.com/AdobeIllustrator/10.0/">
	<!ENTITY ns_graphs "http://ns.adobe.com/Graphs/1.0/">
	<!ENTITY ns_vars "http://ns.adobe.com/Variables/1.0/">
	<!ENTITY ns_imrep "http://ns.adobe.com/ImageReplacement/1.0/">
	<!ENTITY ns_sfw "http://ns.adobe.com/SaveForWeb/1.0/">
	<!ENTITY ns_custom "http://ns.adobe.com/GenericCustomNamespace/1.0/">
	<!ENTITY ns_adobe_xpath "http://ns.adobe.com/XPath/1.0/">
]>
<svg version="1.1" id="Layer_1" xmlns:x="&ns_extend;" xmlns:i="&ns_ai;" xmlns:graph="&ns_graphs;"
	 xmlns="http://www.w3.org/2000/svg" xmlns:xlink="http://www.w3.org/1999/xlink" x="0px" y="0px" width="500px" height="500px"
	 viewBox="0 0 500 500" style="enable-background:new 0 0 500 500;" xml:space="preserve">
<style type="text/css">
	.st0{fill:#FF6600;}
	.st1{fill:#FFFFFF;}
</style>
<metadata>
	<sfw  xmlns="&ns_sfw;">
		<slices></slices>
		<sliceSourceBounds  bottomLeftOrigin="true" height="500" width="500" x="-0.5" y="0.6339"></sliceSourceBounds>
	</sfw>
</metadata>
<circle class="st0" cx="249.5" cy="249.3661" r="250"/>
<g>
	<g>
		<path class="st1" d="M424.0514,335.5515c16.4908-21.4741,25.4874-48.3291,25.3516-75.7533
			c-0.2781-32.0151-12.9368-62.2863-35.6435-85.2369c-22.7327-22.9763-52.8961-35.937-84.9288-36.4948
			c-11.7327-0.211-23.4092,1.2651-34.8126,4.4c-25.6086-33.5584-65.6353-53.4782-107.846-53.4782
			c-74.7573,0-135.5768,60.8203-135.5768,135.5784c0,30.1402,10.0675,59.5442,28.4096,83.1469l-16.1266,48.6177
			c-1.1456,3.4499-0.3317,7.2592,2.1213,9.9398c1.8977,2.075,4.598,3.2645,7.4095,3.2645c0.7797,0,1.557-0.0911,2.3026-0.2675
			l68.4201-16.1192c13.5653,4.6427,27.9908,6.9957,42.9083,6.9957c19.3309,0,37.8518-3.9092,55.1109-11.6245
			c22.897,22.2359,53.884,34.9142,85.6288,34.9134c0.4813,0,0.9684-0.0024,1.444-0.0082
			c12.3083-0.1366,24.7394-2.227,36.9461-6.2103l46.7696,10.9741c1.3855,0.3243,2.8018,0.4886,4.2093,0.4886
			c5.1102,0,9.8553-2.1018,13.3613-5.9192c4.5289-4.9321,5.9948-11.6765,3.928-18.0209L424.0514,335.5515z M87.5984,345.5995
			l12.2018-36.7859c1.0928-3.3019,0.374-7.0006-1.8757-9.6544c-17.5697-20.7065-27.2452-47.1973-27.2452-74.5926
			c0-63.6843,51.8098-115.4951,115.493-115.4951c37.6949,0,73.0725,18.4881,94.7295,49.482
			c0.2041,0.4065,0.4358,0.8004,0.6936,1.1769c3.1442,4.5955,5.9818,9.4837,8.4381,14.5337l0.4562,0.9591
			c7.3299,15.5777,11.0464,32.179,11.0464,49.3434c0,6.7078-0.5813,13.4413-1.7278,20.0134
			c-6.2493,35.8265-28.5178,66.0208-61.0911,82.8392c-16.2769,8.3885-34.0003,12.6417-52.6766,12.6417
			c-13.606,0-26.6745-2.2815-38.8429-6.7819c-1.8563-0.6879-3.858-0.8106-5.7899-0.3578L87.5984,345.5995z M303.5231,292.7172
			c11.9246-20.5724,18.2275-44.093,18.2275-68.018c0-22.5815-5.6126-44.7699-16.246-64.3722
			c7.5884-1.5985,15.2817-2.3327,22.962-2.1799c55.1304,0.9594,100.3731,46.6305,100.8536,101.7887
			c0.1155,23.2067-7.5559,45.8996-21.5985,63.9035c-3.8662,4.7906-5.0264,11.3293-3.0336,17.0965l8.6682,26.9567l-44.0596-10.3391
			c-3.3035-0.8513-6.82-0.6756-10.1805,0.5114c-10.3268,3.3881-20.7968,5.1638-31.1269,5.2785
			c-24.7231,0.2846-49.1446-8.6804-68.0453-24.8483C277.8714,326.8419,292.8474,311.1357,303.5231,292.7172z"/>
		<path class="st1" d="M137.626,215.2951h44.0499c5.537,0,10.0414-4.5048,10.0414-10.0418c0-5.537-4.5045-10.0418-10.0414-10.0418
			H137.626c-5.537,0-10.0423,4.5048-10.0423,10.0418C127.5838,210.7903,132.089,215.2951,137.626,215.2951z"/>
		<path class="st1" d="M244.4972,243.0855c0-5.537-4.5045-10.0418-10.0414-10.0418H137.626c-5.537,0-10.0423,4.5048-10.0423,10.0418
			c0,5.537,4.5052,10.0414,10.0423,10.0414h96.8297C239.9928,253.127,244.4972,248.6226,244.4972,243.0855z"/>
	</g>
	<path class="st1" d="M434.7317,259.9089c-0.5051-58.0777-48.1333-106.1631-106.1708-107.1727
		c-10.55-0.208-21.0497,1.158-31.3363,4.0587c0.6324,1.0457,1.2635,2.092,1.8654,3.1514
		c11.3063,19.584,17.249,41.7702,17.249,64.7526c0,46.8892-24.8792,89.611-65.3416,112.9323
		c20.5671,20.1899,48.3632,31.4803,77.0597,31.1225c10.8978-0.1201,21.9352-1.9932,32.8083-5.5677
		c2.3809-0.8513,4.8431-0.9805,7.1322-0.3785l47.2884,11.0967c1.8047,0.4224,2.9918-0.6059,3.4169-1.067
		c0.4314-0.4702,1.3706-1.7594,0.7802-3.5731c-0.0026-0.0052-0.0038-0.0117-0.0065-0.0181l-9.6563-30.0283
		c-1.4017-3.9995-0.5968-8.6436,2.1367-12.0088C426.7456,308.2682,434.8531,284.3424,434.7317,259.9089z"/>
	<path class="st1" d="M305.1396,245.51c1.1927-6.8373,1.8078-13.8389,1.8078-20.9434c0-17.9447-3.9652-35.5045-11.5604-51.6479
		c-0.0924-0.1948-0.1763-0.3934-0.2698-0.5877c-0.0703-0.1473-0.1479-0.2916-0.2189-0.4387
		c-2.5565-5.256-5.5016-10.343-8.8372-15.2179c-0.1821-0.266-0.3319-0.5445-0.4517-0.8307
		c-22.6479-32.6807-59.7458-52.1837-99.4371-52.1837c-66.667,0-120.9054,54.2384-120.9054,120.9067
		c0,28.6765,10.133,56.4106,28.5312,78.0938c1.0451,1.2324,1.3719,2.9196,0.8642,4.4529L79.4125,353.088l63.2359-14.8986
		c0.8875-0.2092,1.815-0.1524,2.6676,0.164c12.7722,4.7242,26.4733,7.1192,40.7247,7.1192c19.5485,0,38.1049-4.4553,55.1551-13.2429
		C275.4161,314.5612,298.699,282.4312,305.1396,245.51z M137.6258,200.6233h44.0498c2.5565,0,4.6299,2.0727,4.6299,4.6299
		s-2.0734,4.6299-4.6299,4.6299h-44.0498c-2.5565,0-4.6299-2.0727-4.6299-4.6299S135.0693,200.6233,137.6258,200.6233z
		 M234.4555,247.7154h-96.8297c-2.5565,0-4.6299-2.0734-4.6299-4.6299c0-2.5565,2.0734-4.6299,4.6299-4.6299h96.8297
		c2.5565,0,4.6299,2.0734,4.6299,4.6299C239.0854,245.642,237.0121,247.7154,234.4555,247.7154z"/>
	<g>
		<path class="st0" d="M443.9914,259.8456c-0.2661-30.5993-12.3691-59.5355-34.0782-81.4777
			c-21.7336-21.9661-50.5683-34.3572-81.1819-34.8901c-12.3861-0.2267-24.7657,1.5253-36.8174,5.2383
			c-24.5017-34.0708-63.7747-54.3158-105.7415-54.3158c-71.7736-0.0001-130.1652,58.3922-130.1652,130.1664
			c0,29.9877,10.2997,59.0265,29.0569,82.0713l-17.0495,51.399c-0.5284,1.5916-0.1537,3.3445,0.9792,4.5821
			c0.8875,0.9701,2.1328,1.505,3.4156,1.505c0.3527,0,0.7092-0.04,1.0619-0.1241l69.956-16.4811
			c13.4233,4.7875,27.7522,7.2136,42.6133,7.2136c19.8498,0,38.7586-4.2786,56.2665-12.7157
			c22.1968,22.9667,52.729,36.0059,84.4734,36.0046c0.4586,0,0.9237-0.0026,1.3835-0.0078
			c11.8641-0.1318,23.8612-2.1676,35.6569-6.0522c0.0452-0.0142,0.0904-0.0297,0.1343-0.0464
			c0.6124-0.2209,1.2312-0.2752,1.6988-0.1486c0.0529,0.0143,0.1059,0.0284,0.1589,0.0401l47.3607,11.1135
			c0.9935,0.2325,1.9907,0.3462,2.9751,0.3462c3.5279,0,6.8918-1.4636,9.3748-4.1674c3.1908-3.4751,4.223-8.2237,2.7632-12.7038
			l-9.6887-30.124c-0.385-1.0993-0.1757-2.3343,0.602-3.2929C435.3194,312.3336,444.1232,286.368,443.9914,259.8456z
			 M241.1958,332.2297c-17.0502,8.7876-35.6066,13.2429-55.1551,13.2429c-14.2514,0-27.9525-2.395-40.7247-7.1192
			c-0.8526-0.3165-1.7802-0.3733-2.6676-0.164L79.4125,353.088l15.2499-45.9746c0.5077-1.5334,0.1808-3.2205-0.8642-4.4529
			c-18.3981-21.6832-28.5312-49.4173-28.5312-78.0938c0-66.6683,54.2383-120.9067,120.9054-120.9067
			c39.6913,0,76.7892,19.503,99.4371,52.1837c0.1198,0.2862,0.2696,0.5647,0.4517,0.8307c3.3355,4.875,6.2806,9.9619,8.8372,15.2179
			c0.0709,0.147,0.1486,0.2914,0.2189,0.4387c0.0936,0.1944,0.1773,0.3929,0.2698,0.5877
			c7.5952,16.1434,11.5604,33.7031,11.5604,51.6479c0,7.1045-0.6151,14.1061-1.8078,20.9434
			C298.699,282.4312,275.4161,314.5612,241.1958,332.2297z M409.8202,339.2177l9.6563,30.0284
			c0.0026,0.0065,0.0038,0.0129,0.0065,0.0181c0.5904,1.8137-0.3488,3.103-0.7802,3.5731c-0.425,0.4612-1.6122,1.4895-3.4169,1.067
			l-47.2884-11.0967c-2.2891-0.6021-4.7513-0.4728-7.1322,0.3785c-10.8733,3.5745-21.9105,5.4476-32.8083,5.5677
			c-28.6965,0.3578-56.4926-10.9326-77.0597-31.1225c40.4624-23.3213,65.3416-66.0431,65.3416-112.9323
			c0-22.9826-5.9427-45.1686-17.249-64.7526c-0.6018-1.0595-1.2329-2.1058-1.8654-3.1514
			c10.2865-2.9007,20.7862-4.2667,31.3363-4.0587c58.0376,1.0095,105.6657,49.095,106.1709,107.1727
			c0.1214,24.4335-7.9861,48.3593-22.7747,67.2999C409.2234,330.5741,408.4185,335.2181,409.8202,339.2177z"/>
		<path class="st0" d="M137.6258,209.8831h44.0498c2.5565,0,4.6299-2.0727,4.6299-4.6299s-2.0734-4.6299-4.6299-4.6299h-44.0498
			c-2.5565,0-4.6299,2.0727-4.6299,4.6299S135.0693,209.8831,137.6258,209.8831z"/>
		<path class="st0" d="M234.4555,238.4556h-96.8297c-2.5565,0-4.6299,2.0734-4.6299,4.6299s2.0734,4.6299,4.6299,4.6299h96.8297
			c2.5565,0,4.6299-2.0734,4.6299-4.6299C239.0854,240.529,237.0121,238.4556,234.4555,238.4556z"/>
	</g>
</g>
</svg>
