<?xml version="1.0" encoding="utf-8"?>
<!-- Generator: Adobe Illustrator 27.8.1, SVG Export Plug-In . SVG Version: 6.00 Build 0)  -->
<!DOCTYPE svg PUBLIC "-//W3C//DTD SVG 1.1//EN" "http://www.w3.org/Graphics/SVG/1.1/DTD/svg11.dtd" [
	<!ENTITY ns_extend "http://ns.adobe.com/Extensibility/1.0/">
	<!ENTITY ns_ai "http://ns.adobe.com/AdobeIllustrator/10.0/">
	<!ENTITY ns_graphs "http://ns.adobe.com/Graphs/1.0/">
	<!ENTITY ns_vars "http://ns.adobe.com/Variables/1.0/">
	<!ENTITY ns_imrep "http://ns.adobe.com/ImageReplacement/1.0/">
	<!ENTITY ns_sfw "http://ns.adobe.com/SaveForWeb/1.0/">
	<!ENTITY ns_custom "http://ns.adobe.com/GenericCustomNamespace/1.0/">
	<!ENTITY ns_adobe_xpath "http://ns.adobe.com/XPath/1.0/">
]>
<svg version="1.1" id="Layer_1" xmlns:x="&ns_extend;" xmlns:i="&ns_ai;" xmlns:graph="&ns_graphs;"
	 xmlns="http://www.w3.org/2000/svg" xmlns:xlink="http://www.w3.org/1999/xlink" x="0px" y="0px" width="500px" height="500px"
	 viewBox="0 0 500 500" style="enable-background:new 0 0 500 500;" xml:space="preserve">
<style type="text/css">
	.st0{fill:#FF6600;}
	.st1{fill:#FFFFFF;}
</style>
<metadata>
	<sfw  xmlns="&ns_sfw;">
		<slices></slices>
		<sliceSourceBounds  bottomLeftOrigin="true" height="500" width="500" x="0" y="0"></sliceSourceBounds>
	</sfw>
</metadata>
<circle class="st0" cx="250" cy="250" r="250"/>
<g>
	<g>
		<path class="st1" d="M370.0781,171.8559c0-66.2113-53.8672-120.0781-120.0781-120.0781c-0.703,0-1.4025,0.0112-2.1022,0.0244
			c-0.6476-0.0401-1.2894-0.0252-1.9196,0.0483c-31.1325,1.0305-60.2711,13.944-82.0725,36.3814
			c-21.9153,22.5534-33.9839,52.2516-33.9839,83.6241c0,66.2113,53.8672,120.0781,120.0781,120.0781
			S370.0781,238.0672,370.0781,171.8559z M176.0347,188.9313c0.6517,1.2861,1.3034,2.644,1.9898,4.0751l0.052,0.1086
			c5.5333,11.5152,14.7902,30.7885,35.5161,25.9424c11.8151-2.8988,18.475-14.1204,23.8374-23.156
			c0.9788-1.6471,3.3205-5.5891,4.7676-7.4492c1.7809-0.1107,3.6707-0.3242,5.649-0.548c2.7118-0.3056,9.4626-1.0651,12.2495-0.4473
			c0,0.005,0,0.0099,0,0.0149c0,13.4839-8.2897,27.5845-12.5212,29.0882c-8.6449,3.0727-14.7143,10.0395-16.2349,18.6365
			c-1.2555,7.0949,1.049,14.0588,6.0157,18.1752c7.391,6.1223,27.2471,12.9161,46.397,8.0493
			c3.7219-0.9466,7.0399-1.2869,9.8987-1.2373c-13.5141,6.7087-28.3952,10.2126-43.6513,10.2126
			c-49.1722,0-90.961-36.8914-97.6135-85.0179C164.8722,185.4687,173.8936,187.3495,176.0347,188.9313z M315.9424,245.0163
			c-6.0166-4.2184-13.8586-6.4118-22.6306-6.4118c-4.7321,0-9.7352,0.6389-14.8663,1.9419
			c-10.5464,2.6837-20.9522-0.5637-25.3605-2.632c0.3312-0.3717,0.859-0.7612,1.7007-1.0602
			c15.8219-5.6205,26.8481-30.5362,26.8481-49.3825c0-6.5757-2.2938-12.1008-6.6319-15.9772
			c-8.2889-7.4062-20.6069-6.0091-29.6028-4.9878c-2.1113,0.2383-4.2943,0.4848-5.5028,0.4848
			c-10.3514,0-16.0078,9.5295-20.9985,17.9373c-2.7671,4.6623-7.3976,12.4651-10.3241,13.1833
			c-2.8678,0.6686-5.5573-2.8187-11.0939-14.3496c-0.7524-1.5657-1.6057-3.3407-2.4326-4.956
			c-6.1958-12.2532-25.8437-15.1124-43.2598-15.0194c3.6467-45.1228,37.5555-81.8316,82.0534-89.1446
			c-2.1823,8.9864-4.3712,14.5961-5.3764,16.1317c-4.747,3.2115-14.4962,11.122-15.0513,22.1854
			c-0.3172,6.2362,2.4416,12.0446,7.7693,16.3559c11.2558,9.1024,44.3344,16.2382,58.0278,12.5134
			c5.7696-1.5748,10.6025-5.1055,14.8663-8.2203c2.1996-1.6066,3.8574-2.7439,4.956-3.4019
			c1.6479,1.5417,3.8301,3.7678,5.9637,5.9438c11.45,11.6754,22.2646,22.7033,33.39,22.7033c0.0009,0,0.0017,0,0.0025,0
			c2.4135,0,4.7198-0.5336,6.7913-1.5545c0.7103-0.3391,1.4166-0.6947,2.117-1.066c0.826,5.1571,1.2431,10.3865,1.2431,15.6224
			C348.5403,199.8799,336.7145,226.2931,315.9424,245.0163z M341.2624,134.6961c-0.9928,0.7083-2.1343,1.4467-3.4171,2.1608
			c-2.0179-1.1952-6.7352-4.8382-17.4781-15.7935c-3.6575-3.7302-6.8161-6.952-9.3618-8.9881
			c-3.6261-2.9608-7.3117-4.0795-10.8586-4.0795c-7.529,0-14.4293,5.0448-18.7864,8.2302
			c-2.6217,1.9147-5.8844,4.2968-7.8155,4.8229c-6.4907,1.7673-30.3273-2.8013-37.9809-7.8701
			c0.8599-1.1791,2.5449-2.9823,5.2434-4.749c2.4342-1.5938,9.5948-6.2817,15.3932-34.9111
			C293.6505,75.9018,327.0232,99.8763,341.2624,134.6961z"/>
		<path class="st1" d="M196.5721,339.5535l-69.9939-63.0457c-2.2368-2.0501-4.8296-3.6707-7.6355-4.7883l-9.0182-82.9678
			c-1.405-12.4052-11.872-21.76-24.3487-21.76c-13.5348,0-24.5461,11.0121-24.5461,24.5478v103.142
			c0,27.8682,10.2424,54.7378,28.8471,75.6685l30.5313,34.2135c2.3268,2.5465,3.6088,5.9786,3.6088,9.6633v12.8599
			c0,11.6539,9.4816,21.1356,21.1356,21.1356h43.6976c11.6539,0,21.1356-9.4816,21.1356-21.1356v-57.3455
			C209.9855,358.1945,205.0964,347.1914,196.5721,339.5535z M136.3902,390.1299l-30.4297-34.1045
			c-15.0852-16.9701-23.393-38.7565-23.393-61.3441V191.5394c0-1.6598,1.3497-3.0099,3.0082-3.0099
			c1.51,0,2.7761,1.1279,2.943,2.5982l8.9116,81.9952c-3.1925,1.7743-5.9414,4.2151-8.0708,7.1845
			c-7.6198,10.3869-6.0851,25.1342,3.4519,33.537l49.34,44.3526c2.1402,1.9237,4.9056,2.9034,7.7734,2.7456
			c2.8728-0.1528,5.5135-1.415,7.434-3.5526c1.9237-2.1393,2.8992-4.8998,2.7465-7.7727s-1.415-5.5135-3.5542-7.4364
			l-49.4192-44.4245c-1.2927-1.1391-1.4595-3.2726-0.337-4.804c0.6046-0.8434,1.4752-1.3472,2.4936-1.453
			c1.0606-0.1024,1.9898,0.2016,2.8042,0.9482l70.0972,63.1374c3.9771,3.5617,6.2577,8.7216,6.2577,14.1559v56.9432h-42.8931
			v-12.4576C145.5546,405.149,142.2836,396.5735,136.3902,390.1299z"/>
		<path class="st1" d="M414.4241,166.9916c-12.4758,0-22.9453,9.3656-24.3544,21.8096l-9.0125,82.9141
			c-2.7952,1.1118-5.3682,2.7151-7.5661,4.7296l-70.0509,63.0994c-8.5325,7.6429-13.4257,18.6493-13.4257,30.1967v57.3455
			c0,11.6539,9.4816,21.1356,21.1356,21.1356h43.6975c11.6539,0,21.1356-9.4816,21.1356-21.1356v-12.86
			c0-3.6847,1.2968-7.1333,3.6955-9.7583l30.4594-34.1342c18.5923-20.9175,28.8322-47.7854,28.8322-75.6529V191.5394
			C438.9702,178.0038,427.9588,166.9916,414.4241,166.9916z M354.4453,414.2266v12.4576h-42.893v-56.9432
			c0-5.4342,2.2847-10.5975,6.2809-14.1749l70.1451-63.1837c0.6558-0.6013,1.4331-0.9061,2.3111-0.9061
			c0.1412,0,0.2841,0.0091,0.4006,0.0207c1.0548,0.1099,1.9122,0.6153,2.5837,1.5512c1.0689,1.4571,0.8698,3.5857-0.484,4.7801
			l-49.3408,44.3526c-2.1393,1.9229-3.4015,4.5636-3.5542,7.4364s0.8227,5.6333,2.7465,7.7726
			c1.9229,2.1377,4.5628,3.3998,7.4348,3.5526c2.8737,0.1577,5.6325-0.8219,7.7718-2.7448l49.2623-44.2824
			c9.5988-8.4599,11.1641-23.2014,3.598-33.5138c-2.1699-3.0248-4.9378-5.4904-8.1385-7.2745l8.9067-81.949
			c0.1709-1.5099,1.438-2.6485,2.948-2.6485c1.6586,0,3.0082,1.3501,3.0082,3.0099v103.142
			c0,22.5877-8.3054,44.3708-23.3781,61.3293l-30.3578,34.0227C357.7311,396.557,354.4453,405.149,354.4453,414.2266z"/>
	</g>
	<path class="st1" d="M351.118,147.3596c-2.2473,1.6482-5.0212,3.4115-8.3039,4.9771c-1.4178,0.6986-2.8973,1.0192-4.4253,1.0192
		c-8.8198,0.0015-19.294-10.6817-29.4742-21.0618c-3.162-3.2252-6.149-6.2711-8.0124-7.7608
		c-1.5089-1.2354-4.3209,0.4382-10.0684,4.6357c-4.0709,2.9737-8.2815,6.049-13.0715,7.3564
		c-11.9714,3.2561-43.2487-3.5002-53.123-11.4847c-5.0269-4.0679-5.8946-8.6639-5.7357-11.8023
		c0.4647-9.2492,10.1595-16.2894,13.1186-18.2278c2.4406-1.8181,6.2503-13.5913,8.8538-26.7884
		c-52.314,4.5673-93.6563,48.0106-94.8836,101.2002c13.2758-0.5478,38.1939,0.0888,44.1488,11.8651
		c0.7853,1.5339,1.5766,3.1782,2.3825,4.8563c5.5725,11.6038,9.8022,19.0764,17.3027,17.3219
		c5.2239-1.281,9.7801-8.958,13.7996-15.7305c4.6533-7.8403,9.0492-15.2452,16.2702-15.2452c1.5192,0,3.7562-0.253,6.1254-0.5206
		c8.4035-0.953,18.869-2.1354,25.3166,3.6253c3.1826,2.8429,4.7974,6.8402,4.7974,11.8773c0,16.9762-9.9169,39.4867-23.1899,44.2018
		c-4.6474,1.6516-5.6239,5.2533-5.8122,6.3181c-0.2794,1.578,0.1059,2.7399,0.4545,3.0281
		c3.4297,2.8399,18.0484,8.4595,32.2127,4.8548c15.0453-3.821,28.7054-1.2469,36.1942,6.35
		c23.214-19.0966,38.0435-48.0326,38.0435-80.3686C354.0384,163.42,353.0219,155.2184,351.118,147.3596z"/>
	<path class="st1" d="M282.3979,256.0928c-17.9219,4.5533-35.8967-2.284-41.5354-6.9549c-3.4459-2.8561-5.021-7.83-4.1091-12.9833
		c1.1722-6.624,5.9063-12.0126,12.6627-14.4143c7.1315-2.534,16.1776-19.1764,16.1776-34.2687c0-2.8737-0.9619-3.7341-1.2795-4.0165
		c-2.9252-2.612-11.4597-1.6472-17.1071-1.0118c-2.6253,0.297-5.1077,0.5779-7.1962,0.5883
		c-1.7369,0.6794-5.2254,6.5564-7.3196,10.0831c-5.0783,8.5565-10.8346,18.2543-20.4088,20.603
		c-16.3821,3.8297-23.8224-11.6862-29.2624-23.0091c-0.7662-1.5972-1.5177-3.1634-2.2752-4.6429
		c-2.2983-4.5464-19.0072-6.6668-34.4684-6.092c4.1554,53.588,49.0878,95.9207,103.7236,95.9207
		c21.1553,0,40.8519-6.3527,57.294-17.2422C302.5449,255.0006,293.6697,253.2271,282.3979,256.0928z"/>
	<path class="st1" d="M237.7962,103.8302c-4.7121,3.0855-8.2301,7.2637-8.3639,9.9375c-0.0235,0.4574-0.078,1.5281,1.8369,3.0767
		c7.9697,6.4446,35.4834,11.7509,43.7193,9.5095c2.9149-0.7941,6.3269-3.287,9.6272-5.6974
		c6.2827-4.593,14.8879-10.8743,22.9134-4.3224c2.3179,1.8545,5.3739,4.9695,8.9124,8.5786
		c4.8283,4.9239,17.5292,17.8748,21.7957,17.8748c0.0382,0,0.0779,0,0.1147-0.003c4.366-2.102,7.5886-4.6165,9.4879-6.3104
		c-14.3277-39.4986-51.9305-67.9269-96.1502-68.6354C249.5692,79.5737,245.0428,99.0859,237.7962,103.8302z"/>
	<path class="st1" d="M185.8585,351.4895l-70.086-63.1267c-1.9487-1.7855-4.4341-2.5943-7.0314-2.334
		c-2.6105,0.2721-4.8886,1.5927-6.4138,3.7194c-2.7884,3.8018-2.2605,9.111,1.1693,12.1332l49.3785,44.3886
		c2.1649,1.9457,2.3428,5.2783,0.3956,7.4432c-1.9442,2.1648-5.2783,2.3428-7.4432,0.3956l-49.3402-44.3532
		c-7.4447-6.5593-8.6463-18.0822-2.6944-26.196c2.3649-3.2988,5.7181-5.7578,9.5345-7.0638l-9.3432-85.9622
		c-0.4839-4.2665-4.0988-7.502-8.408-7.502c-4.6901,0-8.5065,3.8164-8.5065,8.5079v103.1414
		c0,23.9355,8.8006,47.0195,24.7812,64.9973l30.4375,34.1113c4.9945,5.4621,7.7682,12.7362,7.7682,20.4368v12.8597
		c0,2.8575,2.2384,5.096,5.0959,5.096h43.6973c2.8575,0,5.0959-2.2385,5.0959-5.096v-57.3452
		C193.9459,362.7477,190.9986,356.0942,185.8585,351.4895z"/>
	<path class="st1" d="M414.4237,183.0316c-4.3092,0-7.9241,3.2355-8.411,7.527l-9.3404,85.9372
		c3.8179,1.3089,7.1785,3.7782,9.5683,7.1108c5.9181,8.0667,4.7165,19.5897-2.7663,26.1842l-49.3021,44.3179
		c-2.1649,1.9472-5.4975,1.7692-7.4432-0.3956c-1.9472-2.1649-1.7693-5.4975,0.3956-7.4432l49.3404-44.3532
		c3.4678-3.0576,3.9958-8.3669,1.2412-12.1215c-1.5589-2.1737-3.837-3.4943-6.4476-3.7665c-0.325-0.0323-0.6486-0.05-0.9691-0.05
		c-2.2429,0-4.3548,0.8177-6.0284,2.3531l-70.1081,63.1487c-5.1518,4.6135-8.099,11.267-8.099,18.2601v57.3453
		c0,2.8575,2.2383,5.096,5.0959,5.096h43.6974c2.8575,0,5.0959-2.2385,5.0959-5.096v-12.8597
		c0-7.7006,2.7738-14.9746,7.8109-20.4839l30.4023-34.0716c15.9732-17.9704,24.7739-41.0544,24.7739-64.9901V191.5396
		C422.9301,186.8481,419.1137,183.0316,414.4237,183.0316z"/>
	<g>
		<path class="st0" d="M364.5804,171.8559c0-63.1796-51.4008-114.5804-114.5804-114.5804c-0.7568,0-1.5102,0.0141-2.2635,0.0288
			c-0.4454-0.0436-0.8845-0.0335-1.3093,0.0324c-61.5325,1.895-111.0075,52.5355-111.0075,114.5193
			c0,63.1796,51.4008,114.5804,114.5804,114.5804S364.5804,235.0354,364.5804,171.8559z M251.6898,67.8388
			c44.2196,0.7085,81.8224,29.1367,96.1502,68.6354c-1.8994,1.6939-5.1219,4.2084-9.488,6.3104
			c-0.0368,0.003-0.0766,0.003-0.1147,0.003c-4.2666,0-16.9674-12.951-21.7957-17.8748c-3.5385-3.6091-6.5946-6.724-8.9124-8.5786
			c-8.0255-6.552-16.6306-0.2706-22.9134,4.3224c-3.3003,2.4105-6.7123,4.9033-9.6272,5.6974
			c-8.2359,2.2413-35.7497-3.0649-43.7193-9.5095c-1.9149-1.5486-1.8605-2.6192-1.8369-3.0767
			c0.1338-2.6737,3.6517-6.852,8.3639-9.9375C245.0428,99.0859,249.5692,79.5737,251.6898,67.8388z M250,275.8943
			c-54.6358,0-99.5681-42.3326-103.7234-95.9205c15.4611-0.5748,32.17,1.5455,34.4684,6.092
			c0.7574,1.4795,1.5089,3.0458,2.2752,4.643c5.4401,11.3229,12.8804,26.8387,29.2624,23.009
			c9.5742-2.3488,15.3305-12.0465,20.4088-20.603c2.0942-3.5267,5.5827-9.4036,7.3196-10.0831
			c2.0884-0.0103,4.5709-0.2912,7.1962-0.5883c5.6474-0.6354,14.1819-1.6001,17.1071,1.0118
			c0.3176,0.2824,1.2795,1.1428,1.2795,4.0165c0,15.0923-9.0463,31.7347-16.1776,34.2687
			c-6.7564,2.4016-11.4905,7.7902-12.6627,14.4143c-0.9118,5.1533,0.6633,10.1272,4.1092,12.9833
			c5.6386,4.6709,23.6135,11.5082,41.5353,6.9549c11.2718-2.8657,20.1471-1.0921,24.896,2.5592
			C290.8519,269.5416,271.1553,275.8943,250,275.8943z M315.9949,252.2244c-7.4888-7.597-21.1489-10.171-36.1942-6.35
			c-14.1642,3.6047-28.7829-2.0148-32.2127-4.8547c-0.3485-0.2883-0.7338-1.4501-0.4545-3.0281
			c0.1883-1.0648,1.1648-4.6665,5.8122-6.3181c13.273-4.7151,23.1899-27.2255,23.1899-44.2018
			c0-5.0371-1.6148-9.0344-4.7974-11.8773c-6.4476-5.7608-16.913-4.5782-25.3166-3.6253c-2.3692,0.2677-4.6062,0.5206-6.1254,0.5206
			c-7.2211,0-11.6171,7.405-16.2702,15.2452c-4.0194,6.7725-8.5757,14.4496-13.7996,15.7305
			c-7.5005,1.7546-11.7302-5.7181-17.3027-17.3219c-0.8059-1.678-1.5972-3.3223-2.3825-4.8563
			c-5.9548-11.7762-30.873-12.4128-44.1488-11.8651c1.2273-53.1896,42.5696-96.6329,94.8836-101.2002
			c-2.6034,13.1971-6.4132,24.9703-8.8538,26.7884c-2.959,1.9384-12.6539,8.9786-13.1186,18.2278
			c-0.1588,3.1385,0.7089,7.7344,5.7357,11.8023c9.8743,7.9844,41.1515,14.7408,53.123,11.4847
			c4.7901-1.3075,9.0007-4.3827,13.0715-7.3564c5.7475-4.1974,8.5594-5.871,10.0684-4.6357
			c1.8634,1.4898,4.8503,4.5356,8.0124,7.7608c10.1802,10.3801,20.6544,21.0633,29.4742,21.0618
			c1.528,0,3.0075-0.3206,4.4253-1.0192c3.2826-1.5656,6.0565-3.329,8.3039-4.9771c1.9039,7.8588,2.9204,16.0604,2.9204,24.4962
			C354.0384,204.1918,339.2088,233.1279,315.9949,252.2244z"/>
		<path class="st0" d="M192.9032,343.6477l-70.0404-63.087c-2.5575-2.3443-5.6695-3.937-8.9963-4.6665l-9.4051-86.5239
			c-1.0898-9.6227-9.2094-16.8807-18.8853-16.8807c-10.5037,0-19.0484,8.5462-19.0484,19.05v103.1414
			c0,26.5195,9.7463,52.0905,27.4505,72.0081l30.4875,34.1657c3.2561,3.562,5.0489,8.3109,5.0489,13.3716v12.8597
			c0,8.6227,7.0152,15.6379,15.6379,15.6379h43.6973c8.6227,0,15.6379-7.0152,15.6379-15.6379v-57.3453
			C204.4878,359.7548,200.261,350.2408,192.9032,343.6477z M193.9459,427.0862c0,2.8575-2.2384,5.096-5.0959,5.096h-43.6973
			c-2.8575,0-5.0959-2.2385-5.0959-5.096v-12.8597c0-7.7006-2.7738-14.9746-7.7682-20.4368l-30.4375-34.1112
			c-15.9806-17.9778-24.7812-41.0618-24.7812-64.9973V191.5396c0-4.6915,3.8164-8.5079,8.5065-8.5079
			c4.3092,0,7.9241,3.2355,8.408,7.502l9.3432,85.9622c-3.8164,1.3059-7.1697,3.7649-9.5345,7.0638
			c-5.9519,8.1138-4.7504,19.6367,2.6944,26.196l49.3403,44.3532c2.1649,1.9472,5.4989,1.7692,7.4432-0.3956
			c1.9472-2.1649,1.7693-5.4975-0.3956-7.4432l-49.3785-44.3885c-3.4297-3.0223-3.9577-8.3315-1.1693-12.1333
			c1.5252-2.1266,3.8032-3.4473,6.4138-3.7194c2.5973-0.2603,5.0827,0.5486,7.0314,2.334l70.086,63.1267
			c5.14,4.6047,8.0873,11.2582,8.0873,18.2513L193.9459,427.0862L193.9459,427.0862z"/>
		<path class="st0" d="M414.4237,172.4896c-9.6758,0-17.7954,7.2579-18.8882,16.9056l-9.4021,86.4975
			c-3.3223,0.728-6.427,2.3134-8.9624,4.6371l-70.0626,63.109c-7.3697,6.6019-11.5964,16.1159-11.5964,26.102v57.3453
			c0,8.6227,7.0152,15.6379,15.6379,15.6379h43.6974c8.6227,0,15.6379-7.0152,15.6379-15.6379v-12.8597
			c0-5.0607,1.7928-9.8095,5.0916-13.4187l30.4522-34.126c17.6969-19.9103,27.4432-45.4813,27.4432-72.0008V191.5396
			C433.4721,181.0359,424.9275,172.4896,414.4237,172.4896z M422.9301,294.6809c0,23.9356-8.8006,47.0196-24.7738,64.9901
			l-30.4023,34.0716c-5.0371,5.5092-7.8109,12.7833-7.8109,20.4839v12.8597c0,2.8575-2.2383,5.096-5.0959,5.096h-43.6974
			c-2.8575,0-5.0959-2.2385-5.0959-5.096v-57.3454c0-6.9932,2.9473-13.6466,8.0991-18.2601l70.108-63.1487
			c1.6737-1.5354,3.7856-2.3531,6.0284-2.3531c0.3206,0,0.6441,0.0177,0.9691,0.05c2.6105,0.2721,4.8885,1.5927,6.4476,3.7665
			c2.7546,3.7547,2.2266,9.0639-1.2412,12.1215l-49.3404,44.3532c-2.1649,1.9457-2.3428,5.2783-0.3956,7.4432
			c1.9457,2.1648,5.2784,2.3428,7.4432,0.3956l49.3021-44.3179c7.4828-6.5947,8.6844-18.1175,2.7663-26.1843
			c-2.3899-3.3326-5.7504-5.8019-9.5683-7.1108l9.3404-85.9372c0.4868-4.2915,4.1018-7.527,8.411-7.527
			c4.6901,0,8.5065,3.8164,8.5065,8.5079L422.9301,294.6809L422.9301,294.6809z"/>
	</g>
</g>
</svg>
