<?xml version="1.0" encoding="utf-8"?>
<!-- Generator: Adobe Illustrator 27.8.1, SVG Export Plug-In . SVG Version: 6.00 Build 0)  -->
<!DOCTYPE svg PUBLIC "-//W3C//DTD SVG 1.1//EN" "http://www.w3.org/Graphics/SVG/1.1/DTD/svg11.dtd" [
	<!ENTITY ns_extend "http://ns.adobe.com/Extensibility/1.0/">
	<!ENTITY ns_ai "http://ns.adobe.com/AdobeIllustrator/10.0/">
	<!ENTITY ns_graphs "http://ns.adobe.com/Graphs/1.0/">
	<!ENTITY ns_vars "http://ns.adobe.com/Variables/1.0/">
	<!ENTITY ns_imrep "http://ns.adobe.com/ImageReplacement/1.0/">
	<!ENTITY ns_sfw "http://ns.adobe.com/SaveForWeb/1.0/">
	<!ENTITY ns_custom "http://ns.adobe.com/GenericCustomNamespace/1.0/">
	<!ENTITY ns_adobe_xpath "http://ns.adobe.com/XPath/1.0/">
]>
<svg version="1.1" id="Layer_1" xmlns:x="&ns_extend;" xmlns:i="&ns_ai;" xmlns:graph="&ns_graphs;"
	 xmlns="http://www.w3.org/2000/svg" xmlns:xlink="http://www.w3.org/1999/xlink" x="0px" y="0px" width="500px" height="500px"
	 viewBox="0 0 500 500" style="enable-background:new 0 0 500 500;" xml:space="preserve">
<style type="text/css">
	.st0{fill:#FF6600;}
	.st1{clip-path:url(#SVGID_00000044895842569301752300000003566631829952959628_);}
	.st2{fill:#FFFFFF;}
	.st3{clip-path:url(#SVGID_00000044895842569301752300000003566631829952959628_);fill:#FFFFFF;}
	.st4{clip-path:url(#SVGID_00000044895842569301752300000003566631829952959628_);fill:#FF6600;}
</style>
<metadata>
	<sfw  xmlns="&ns_sfw;">
		<slices></slices>
		<sliceSourceBounds  bottomLeftOrigin="true" height="500" width="500" x="0" y="0"></sliceSourceBounds>
	</sfw>
</metadata>
<circle class="st0" cx="250" cy="250" r="250"/>
<g>
	<defs>
		<circle id="SVGID_1_" cx="250" cy="250" r="250"/>
	</defs>
	<clipPath id="SVGID_00000165200696532297000200000000383895839520723633_">
		<use xlink:href="#SVGID_1_"  style="overflow:visible;"/>
	</clipPath>
	<g style="clip-path:url(#SVGID_00000165200696532297000200000000383895839520723633_);">
		<path class="st2" d="M424.1111,377.9545h-22.6677V171.9232c0-5.214-4.2418-9.4558-9.4558-9.4558H327.482
			c-5.2133,0-9.455,4.2418-9.455,9.4558v206.0313h-26.3195v-120.967c0-5.214-4.2418-9.4558-9.4558-9.4558h-64.5033
			c-5.214,0-9.4558,4.2418-9.4558,9.4558v120.967h-26.4484v-55.1772c0-5.214-4.2418-9.4558-9.4558-9.4558h-64.5033
			c-5.214,0-9.4558,4.2418-9.4558,9.4558v55.1772H75.8888c-5.214,0-9.4558,4.2418-9.4558,9.4558
			c0,5.214,4.2418,9.4558,9.4558,9.4558h348.2224c5.214,0,9.4558-4.2418,9.4558-9.4558
			C433.567,382.1963,429.3251,377.9545,424.1111,377.9545z M336.9386,377.9545V181.379h45.5932v196.5755H336.9386z
			 M227.2041,377.9545V266.4433h45.5917v111.5112H227.2041z M162.9325,332.2332v45.5917h-45.5918v-45.5917H162.9325z"/>
		<path class="st2" d="M317.4734,100.2299l13.793,9.9866l-5.2095,16.0371c-1.729,5.4058,0.2317,11.243,4.8766,14.5234
			c2.2051,1.5589,4.7916,2.3827,7.4802,2.3827c2.7481,0,5.4568-0.9021,7.6351-2.5418l13.6864-9.9084l13.5986,9.8424
			c4.4944,3.3869,10.5956,3.4801,15.2017,0.2265c4.6486-3.2819,6.6056-9.1273,4.8639-14.5652l-5.1961-15.9969l13.6485-9.8808
			c4.5644-3.2596,6.4737-9.061,4.7506-14.4359c-1.7269-5.3894-6.6711-9.0103-12.3024-9.0103h-17.0082l-5.2162-16.0614
			c-1.7186-5.3433-6.4507-8.8606-12.0818-8.9616c-5.6707-0.041-10.5763,3.3259-12.4863,8.6322
			c-0.035,0.095-0.067,0.1899-0.1065,0.3102l-5.223,16.0804h-17.0082c-5.6364,0-10.4422,3.448-12.2427,8.7842
			C311.1167,91.0363,312.9009,96.7501,317.4734,100.2299z M358.7265,87.1394l1.0079-3.0856l0.9021,2.7758l0.1065,0.3099
			c1.887,5.1808,6.8008,8.6617,12.2271,8.6617h2.8957l-2.1872,1.5834c-4.735,3.3382-6.6518,9.1943-4.7834,14.605l0.8507,2.6207
			l-2.4673-1.786l-0.0655-0.0465c-4.5465-3.1806-10.4406-3.1631-15.0169,0.0436l-2.4733,1.7898l0.8515-2.6215
			c1.9026-5.5128-0.1125-11.5275-4.916-14.7011l-2.0546-1.4873h2.8958C351.9258,95.8011,356.8395,92.3202,358.7265,87.1394z
			 M354.1017,85.3448l-0.0008-0.0002l0,0L354.1017,85.3448z"/>
	</g>
	
		<rect x="112.382" y="327.2745" style="clip-path:url(#SVGID_00000165200696532297000200000000383895839520723633_);fill:#FFFFFF;" width="55.509" height="55.509"/>
	
		<rect x="222.2454" y="261.4846" style="clip-path:url(#SVGID_00000165200696532297000200000000383895839520723633_);fill:#FFFFFF;" width="55.509" height="121.4281"/>
	<path style="clip-path:url(#SVGID_00000165200696532297000200000000383895839520723633_);fill:#FFFFFF;" d="M345.8745,110.4091
		l-5.5677,17.1404l14.7343-10.6673c2.8736-2.0128,6.5113-2.0134,9.3297-0.0414l14.7907,10.7063l-5.5664-17.1373
		c-1.1658-3.3241,0.0175-6.9255,2.9626-8.9884l14.6138-10.5789h-18.2014c-3.3504,0-6.3922-2.1702-7.5679-5.4002
		c-0.0175-0.0495-0.0351-0.0991-0.0514-0.1493l-5.6166-17.291l-5.6154,17.291c-0.0163,0.0502-0.0339,0.0998-0.0514,0.1493
		c-1.1758,3.2299-4.2175,5.4002-7.5679,5.4002h-18.2026l14.5498,10.5319C345.7993,103.2748,347.0616,107.0218,345.8745,110.4091z"/>
	
		<rect x="331.9797" y="176.4205" style="clip-path:url(#SVGID_00000165200696532297000200000000383895839520723633_);fill:#FFFFFF;" width="55.5102" height="206.4922"/>
	<path style="clip-path:url(#SVGID_00000165200696532297000200000000383895839520723633_);fill:#FF6600;" d="M424.1111,382.9127
		h-27.6265V171.9231c0-2.484-2.014-4.4973-4.4973-4.4973h-64.5049c-2.4833,0-4.4973,2.0134-4.4973,4.4973v210.9896h-36.2359
		V256.9873c0-2.4834-2.014-4.4973-4.4973-4.4973h-64.5036c-2.4834,0-4.4973,2.014-4.4973,4.4973v125.9254h-36.3652v-60.1356
		c0-2.4833-2.014-4.4973-4.4973-4.4973h-64.5037c-2.4833,0-4.4973,2.014-4.4973,4.4973v60.1356H75.8888
		c-2.4834,0-4.4973,2.0141-4.4973,4.4973c0,2.4833,2.014,4.4973,4.4973,4.4973h141.8593h64.5036h45.2306h64.5049h32.1238
		c2.4834,0,4.4973-2.014,4.4973-4.4973C428.6084,384.9268,426.5945,382.9127,424.1111,382.9127z M167.891,382.7835h-55.509v-55.509
		h55.509L167.891,382.7835L167.891,382.7835z M277.7545,382.9127h-55.509V261.4846h55.509V382.9127z M387.49,382.9127h-55.5102
		V176.4205H387.49V382.9127z"/>
	<path style="clip-path:url(#SVGID_00000165200696532297000200000000383895839520723633_);fill:#FF6600;" d="M320.4766,96.2841
		l16.6203,12.032l-6.3168,19.4481c-1.0667,3.3354,0.1455,6.9374,3.0154,8.9639c1.3954,0.9863,3.0141,1.4732,4.6178,1.4732
		c1.6677,0,3.3178-0.5276,4.6855-1.5692l16.6354-12.0439l16.5501,11.9787c2.7669,2.1069,6.5414,2.174,9.3913,0.1613
		c2.871-2.0272,4.082-5.6305,3.0078-8.9828l-6.3106-19.4293l16.5978-12.0157c2.8034-2.0021,3.9728-5.5733,2.9099-8.8873
		c-1.0666-3.3285-4.1134-5.5652-7.5804-5.5652h-20.6107l-6.3344-19.5021c-1.0591-3.292-3.9728-5.4591-7.4249-5.5212
		c-3.506-0.0452-6.5678,2.0485-7.7675,5.3813c-0.0163,0.0446-0.0313,0.0897-0.0464,0.1349l-6.3356,19.5071h-20.6108
		c-3.4747,0-6.4361,2.1244-7.5453,5.4114C316.5063,90.5721,317.5918,94.0887,320.4766,96.2841z M346.4994,90.8424
		c3.3504,0,6.3922-2.1702,7.5679-5.4002c0.0176-0.0495,0.0352-0.0991,0.0514-0.1493l5.6154-17.291l5.6166,17.291
		c0.0163,0.0502,0.0339,0.0998,0.0514,0.1493c1.1758,3.2299,4.2175,5.4002,7.5679,5.4002h18.2014l-14.6139,10.5789
		c-2.9451,2.063-4.1284,5.6643-2.9626,8.9884l5.5665,17.1373l-14.7907-10.7063c-2.8184-1.9719-6.4561-1.9713-9.3297,0.0414
		l-14.7343,10.6673l5.5677-17.1404c1.187-3.3874-0.0753-7.1344-3.028-9.0348l-14.5498-10.5319L346.4994,90.8424L346.4994,90.8424z"
		/>
</g>
</svg>
