<?xml version="1.0" encoding="utf-8"?>
<!-- Generator: Adobe Illustrator 27.8.1, SVG Export Plug-In . SVG Version: 6.00 Build 0)  -->
<!DOCTYPE svg PUBLIC "-//W3C//DTD SVG 1.1//EN" "http://www.w3.org/Graphics/SVG/1.1/DTD/svg11.dtd" [
	<!ENTITY ns_extend "http://ns.adobe.com/Extensibility/1.0/">
	<!ENTITY ns_ai "http://ns.adobe.com/AdobeIllustrator/10.0/">
	<!ENTITY ns_graphs "http://ns.adobe.com/Graphs/1.0/">
	<!ENTITY ns_vars "http://ns.adobe.com/Variables/1.0/">
	<!ENTITY ns_imrep "http://ns.adobe.com/ImageReplacement/1.0/">
	<!ENTITY ns_sfw "http://ns.adobe.com/SaveForWeb/1.0/">
	<!ENTITY ns_custom "http://ns.adobe.com/GenericCustomNamespace/1.0/">
	<!ENTITY ns_adobe_xpath "http://ns.adobe.com/XPath/1.0/">
]>
<svg version="1.1" id="Layer_1" xmlns:x="&ns_extend;" xmlns:i="&ns_ai;" xmlns:graph="&ns_graphs;"
	 xmlns="http://www.w3.org/2000/svg" xmlns:xlink="http://www.w3.org/1999/xlink" x="0px" y="0px" width="500px" height="500px"
	 viewBox="0 0 500 500" style="enable-background:new 0 0 500 500;" xml:space="preserve">
<style type="text/css">
	.st0{fill:#FF6600;}
	.st1{fill:#FFFFFF;}
</style>
<metadata>
	<sfw  xmlns="&ns_sfw;">
		<slices></slices>
		<sliceSourceBounds  bottomLeftOrigin="true" height="500" width="500" x="-0.5" y="0.6339"></sliceSourceBounds>
	</sfw>
</metadata>
<circle class="st0" cx="249.5" cy="249.3661" r="250"/>
<g>
	<path class="st1" d="M431.7955,195.2656h-18.3663c-1.7284-5.087-3.6868-10.101-5.8494-14.9816l14.0461-14.0444l0.0858-0.0875
		c7.8053-8.1469,7.7462-20.7053-0.103-28.5591l-53.8751-54.7753c-3.8507-3.8541-9.035-5.9752-14.6528-5.9752
		c-0.0111,0-0.0232,0-0.0344,0c-5.5568,0.0575-10.7378,2.297-14.6056,6.325l-11.7616,12.3658
		c-6.4322-3.1689-12.9759-5.9349-19.5395-8.2597v-17.116c0-11.2429-9.1467-20.3895-20.3899-20.3895H258.643
		c-11.2432,0-20.3907,9.1467-20.3907,20.3895v0.5171c-14.0058-13.6758-32.887-21.5077-52.9594-21.5077
		c-20.2508,0-39.2969,7.8932-53.6279,22.2256c-14.3319,14.3328-22.2256,33.3783-22.2256,53.6283v5.0166
		c-35.1964,4.221-61.7756,36.8888-61.7756,64.4245c0,22.9628,12.4447,42.6413,19.8836,54.4028
		c0.2274,0.36,0.4514,0.714,0.6703,1.0599c-0.2197,0.3475-0.4437,0.7029-0.6737,1.065
		c-7.4354,11.7573-19.8802,31.4358-19.8802,54.3977c0,27.5353,26.5792,60.2034,61.7756,64.4257v5.0171
		c0,20.2483,7.8937,39.2934,22.2256,53.627c14.3319,14.3328,33.3771,22.2256,53.6279,22.2256
		c20.0638,0,39.0686-7.9418,53.1096-21.7553v1.5164c0,11.2424,9.1476,20.3891,20.3907,20.3891h28.1077
		c11.2432,0,20.3899-9.1467,20.3899-20.3891v-17.23c6.7017-2.3438,13.26-5.1071,19.5815-8.2508l11.753,12.3546
		c3.8696,4.0335,9.2841,6.3473,14.8545,6.3473c5.5586,0,10.7146-2.1833,14.4684-6.0966l53.7446-54.6449
		c7.9383-7.9392,7.9374-20.8568,0-28.7942L407.777,320.212c2.1284-4.7595,4.0542-9.7268,5.8264-15.0253h18.343
		c11.2432,0,20.3899-9.1467,20.3899-20.3899v-68.9906C452.3365,204.4802,443.122,195.2656,431.7955,195.2656z M394.5583,290.8598
		c-2.8707,9.968-6.2434,18.6409-10.3095,26.5131c-2.2502,4.358-1.4324,9.6161,2.0365,13.0849l18.0796,18.0796l-50.9315,51.7862
		l-16.1642-16.9915c-3.5504-3.7349-9.163-4.5733-13.653-2.0382c-9.6419,5.4487-19.978,9.8169-30.7234,12.9854
		c-4.7364,1.3989-8.0447,5.8238-8.0447,10.7618v23.3498h-24.0038v-47.2978c0.0549-0.6994,0.103-1.3971,0.1347-2.0605
		c0.0094-0.1605,0.0155-0.5853,0.0155-0.7458v-27.4425c50.7367-5.6907,89.7341-48.8212,89.7341-100.4692
		c0-51.6476-38.9974-94.7772-89.7341-100.4675v-28.4943c0-0.2081-0.0043-0.4201-0.018-0.629
		c-0.0618-1.1655-0.157-2.3793-0.2832-3.6139V72.21h24.0046v23.2005c0,4.9239,3.2937,9.3454,8.0087,10.7515
		c10.3825,3.1011,20.7675,7.4934,30.8625,13.0532c4.4609,2.4609,10.0298,1.6014,13.5475-2.0927l16.1667-16.9957l50.9323,51.7866
		l-18.0805,18.0784c-3.4217,3.4195-4.2678,8.6249-2.1042,12.9554c4.2317,8.4597,7.7229,17.4239,10.3782,26.6427
		c1.3757,4.7798,5.8092,8.1181,10.7823,8.1181h24.7024v65.0368h-24.5531C400.3666,282.7447,395.9331,286.0823,394.5583,290.8598z
		 M328.2866,250.3753c0,39.2085-29.098,72.2834-67.2921,77.8376V172.5393C299.1885,178.0922,328.2866,211.1667,328.2866,250.3753z
		 M229.3776,404.8852c-9.9646,14.6245-26.4445,23.3558-44.0847,23.3558c-14.2555,0-27.6649-5.5586-37.7581-15.6526
		c-10.0941-10.0933-15.6526-23.5026-15.6526-37.7581v-5.7894c26.8891-4.8874,41.5222-22.0042,42.1667-22.7732
		c3.9598-4.7192,3.3486-11.7951-1.3611-15.7745c-4.7089-3.9769-11.7924-3.3925-15.7582,1.2642
		c-0.1192,0.1373-12.0053,13.4376-33.0672,15.7848c-2.336-0.7012-4.9252-0.6024-7.2261,0.2815
		c-24.6732-0.2635-46.5298-23.8347-46.5298-42.4362c0-16.4619,9.8727-32.0726,16.4053-42.4018
		c1.9052-3.0114,3.5512-5.6126,4.7364-7.9083c1.6683-3.226,1.6692-7.0784,0.0018-10.3014
		c-1.1869-2.2991-2.8329-4.9003-4.7399-7.9135c-6.5317-10.3293-16.4036-25.939-16.4036-42.4005
		c0-18.7031,22.0952-42.4301,46.9323-42.4388c0.98,0.3355,1.9987,0.5321,3.0441,0.5857
		c23.0993,1.1912,36.3464,15.5325,36.851,16.0895c2.1343,2.4905,5.2359,3.9172,8.5219,3.9172c2.6467,0,5.2187-0.9419,7.2407-2.6514
		c4.7253-3.9945,5.3199-11.0884,1.3242-15.8153c-0.6454-0.763-15.2793-17.7351-42.1384-22.6989v-6.4292
		c0-14.2568,5.5585-27.667,15.6535-37.7603c10.0924-10.0929,23.5018-15.6514,37.7572-15.6514
		c27.0444,0,49.7558,20.1183,52.9594,46.8486v3.5568c0,0.4613,0.0292,0.929,0.0867,1.3916
		c0.0635,0.5089,0.0635,1.3765,0.0635,2.2159v34.8703c0,0.5994,0.0506,1.2058,0.1511,1.8112v176.1451
		c-0.1004,0.605-0.1511,1.2118-0.1511,1.8107v39.9105c-0.8187,8.8274-3.8533,17.139-9.0213,24.7118L229.3776,404.8852z"/>
	<path class="st1" d="M244.115,125.6221c0-1.0605,0-2.0612-0.1076-2.922c-0.0284-0.2275-0.0431-0.4565-0.0431-0.6855v-3.8894
		c-3.3664-29.562-28.4695-52.2282-58.6714-52.2282c-15.7813,0-30.6257,6.153-41.7973,17.3246
		c-11.1731,11.1731-17.326,26.0183-17.326,41.7995v11.3347c27.8334,3.3389,42.8282,20.6998,43.4896,21.4822
		c1.9645,2.3241,1.6731,5.7994-0.6502,7.7638c-1.0344,0.8746-2.298,1.3019-3.5538,1.3019c-1.5655,0-3.1203-0.6624-4.2101-1.9521
		c-0.1299-0.1506-14.6246-16.6943-40.8681-18.0469c-0.7919-0.0409-1.5341-0.25-2.1988-0.5863
		c-0.3658-0.0052-0.7392-0.007-1.1243-0.007c-28.36,0-52.6599,26.4764-52.6599,48.1508c0,18.1177,10.4054,34.5691,17.2907,45.4563
		c1.8376,2.9051,3.4247,5.4151,4.4898,7.4779c0.8201,1.5863,0.8201,3.4707,0,5.057c-1.0652,2.0628-2.6523,4.5729-4.4898,7.4779
		c-6.8854,10.8872-17.2907,27.3401-17.2907,45.4563c0,21.6745,24.2998,48.1508,52.6599,48.1508c0.2962,0,0.5921-0.0135,0.888-0.0303
		c0.8027-0.457,1.7291-0.7214,2.7188-0.7214c0.8748,0,1.6987,0.2093,2.4333,0.5722c24.5115-2.173,38.0125-17.6965,38.1505-17.8582
		c1.9674-2.3102,5.4382-2.6023,7.7569-0.644c2.3171,1.9582,2.6214,5.4151,0.6717,7.7392
		c-0.6612,0.7879-15.6585,18.2929-43.5034,21.5226v10.7117c0,15.7798,6.153,30.6249,17.326,41.7981
		c11.1715,11.1715,26.016,17.3245,41.7973,17.3245c19.531,0,37.7763-9.6637,48.8056-25.8507
		c5.782-8.4707,9.144-17.7709,10.0164-27.6746v-40.1678c0-0.4345,0.0555-0.8553,0.1506-1.2607V161.7532
		c-0.0952-0.4055-0.1506-0.8262-0.1506-1.2607v-34.8704H244.115z"/>
	<path class="st1" d="M431.7957,211.9957h-26.6039c-2.4562,0-4.6143-1.6247-5.2938-3.9857
		c-2.7498-9.5484-6.3682-18.84-10.758-27.6184c-1.0606-2.1212-0.6441-4.6835,1.033-6.359l19.541-19.5395
		c1.3727-1.4341,1.408-3.7275-0.0015-5.137l-53.8412-54.7434c-0.6624-0.6609-1.5985-1.0406-2.6115-1.0406
		c-0.0138,0-0.0261,0-0.0415,0c-1.0252,0.0108-1.9736,0.4165-2.6714,1.1436l-17.5689,18.4696
		c-1.7261,1.8122-4.456,2.238-6.6494,1.0284c-10.4522-5.7565-21.2149-10.3077-31.9869-13.5249
		c-2.3333-0.6963-3.9318-2.8436-3.9318-5.2783V70.1578c0-2.052-1.6078-3.6598-3.6599-3.6598h-28.1072
		c-2.052,0-3.6613,1.6077-3.6613,3.6598v47.308c0.1273,1.2097,0.2284,2.4277,0.2936,3.6557
		c0.0061,0.0968,0.0076,0.1952,0.0076,0.292v33.7373c49.9752,2.9387,89.7337,44.5255,89.7337,95.2245
		s-39.7585,92.2874-89.7337,95.226v32.6859c0,0.0907-0.0016,0.332-0.0061,0.4227c-0.0356,0.7194-0.0859,1.4375-0.1445,2.1545
		v49.5793c0,2.052,1.6093,3.6599,3.6613,3.6599h28.1072c2.052,0,3.6599-1.6078,3.6599-3.6599v-25.4019
		c0-2.4424,1.6078-4.5928,3.9503-5.2845c11.1593-3.2893,21.8974-7.8284,31.9161-13.4895c2.195-1.2404,4.9602-0.8331,6.7017,0.9991
		l17.5858,18.4866c0.7255,0.7562,1.7138,1.182,2.7652,1.182c0.6779,0,1.6615-0.1814,2.4946-1.0498l53.8565-54.7587
		c1.4955-1.4971,1.4955-3.7044,0.0323-5.1693l-19.5395-19.5395c-1.6954-1.6954-2.0996-4.2931-0.9991-6.4234
		c4.2393-8.208,7.7469-17.22,10.7228-27.5538c0.6794-2.3595,2.839-3.9841,5.2938-3.9841h26.6055
		c2.052,0,3.6598-1.6078,3.6598-3.6598v-68.9906C435.6062,213.7403,433.8616,211.9957,431.7957,211.9957z"/>
	<path class="st1" d="M255.2827,166.1955v168.361c43.8949-2.9215,78.7158-39.5587,78.7158-84.1812
		S299.1776,169.1169,255.2827,166.1955z"/>
	<path class="st0" d="M431.7957,200.9778h-22.5091c-2.3595-7.5163-5.223-14.8621-8.5508-21.9281l16.8511-16.8496
		c5.638-5.884,5.6012-14.9466-0.0507-20.6016l-53.8427-54.7434c-2.8128-2.8144-6.5941-4.3069-10.5874-4.3008
		c-4.0103,0.0415-7.7422,1.6508-10.5259,4.5498l-14.6915,15.4462c-8.6815-4.5268-17.5505-8.2757-26.461-11.1885V70.1578
		c0-8.0927-6.5848-14.6776-14.6776-14.6776h-28.1072c-8.0935,0-14.6784,6.5849-14.6784,14.6776v16.394
		c-12.5462-19.1289-34.2007-31.6726-58.6714-31.6726c-18.7248,0-36.3353,7.2981-49.5888,20.5525
		c-13.2535,13.2542-20.5524,30.8662-20.5524,49.5895v10.3032c-34.3855,1.1374-61.7756,32.823-61.7756,59.1379
		c0,21.3087,11.8917,40.1119,18.9969,51.3465c0.9523,1.5048,1.8322,2.8959,2.5699,4.1164
		c-0.7377,1.2204-1.6178,2.6115-2.5699,4.1163c-7.1052,11.2346-18.9969,30.0378-18.9969,51.3465
		c0,26.315,27.3901,58.0005,61.7756,59.1379v10.3047c0,18.7233,7.2988,36.3337,20.5524,49.588
		c13.2535,13.2543,30.864,20.5524,49.5888,20.5524c23.1785,0,44.8268-11.4636,57.9082-30.6618
		c0.3129-0.4585,0.6123-0.924,0.9138-1.3884v17.5233c0,8.0927,6.5849,14.6776,14.6784,14.6776h28.1072
		c8.0927,0,14.6776-6.5849,14.6776-14.6776v-21.3364c9.1672-2.9543,18.0454-6.7017,26.4871-11.1777l14.6823,15.4339
		c2.799,2.9174,6.7094,4.5898,10.7304,4.5898c0.0016,0,0.0016,0,0.0016,0c3.9872,0,7.6962-1.5755,10.3969-4.3899l53.7766-54.6788
		c5.7118-5.7118,5.7118-15.0051,0-20.7169l-16.7358-16.7373c3.2417-6.7525,6.0545-13.9967,8.5262-21.9558h22.5029
		c8.0927,0,14.6776-6.5849,14.6776-14.6776v-68.9906C446.6241,207.6304,439.9715,200.9778,431.7957,200.9778z M244.2656,338.9989
		c-0.0952,0.4055-0.1506,0.8262-0.1506,1.2607v40.1678c-0.8724,9.9037-4.2344,19.2039-10.0164,27.6746
		c-11.0294,16.187-29.2747,25.8507-48.8056,25.8507c-15.7813,0-30.6257-6.153-41.7973-17.3245
		c-11.1731-11.1732-17.326-26.0183-17.326-41.7981v-10.7117c27.8449-3.2296,42.8423-20.7346,43.5034-21.5226
		c1.9498-2.324,1.6455-5.781-0.6717-7.7392c-2.3187-1.9582-5.7895-1.6662-7.7569,0.644
		c-0.138,0.1617-13.639,15.6852-38.1505,17.8582c-0.7346-0.3629-1.5585-0.5722-2.4333-0.5722c-0.9897,0-1.9161,0.2644-2.7188,0.7214
		c-0.2959,0.0167-0.5919,0.0303-0.888,0.0303c-28.36,0-52.6599-26.4764-52.6599-48.1508c0-18.1161,10.4054-34.5691,17.2907-45.4563
		c1.8376-2.9051,3.4247-5.4151,4.4898-7.4779c0.8201-1.5863,0.8201-3.4707,0-5.057c-1.0652-2.0628-2.6523-4.5729-4.4898-7.4779
		c-6.8854-10.8872-17.2907-27.3387-17.2907-45.4563c0-21.6745,24.2998-48.1508,52.6599-48.1508c0.3852,0,0.7586,0.0019,1.1243,0.007
		c0.6647,0.3362,1.407,0.5455,2.1988,0.5863c26.2434,1.3526,40.7382,17.8963,40.8681,18.0469
		c1.0898,1.2896,2.6446,1.9522,4.2101,1.9522c1.2558,0,2.5193-0.4274,3.5538-1.3019c2.3233-1.9644,2.6146-5.4397,0.6502-7.7638
		c-0.6614-0.7824-15.6562-18.1433-43.4896-21.4822V125.021c0-15.7812,6.153-30.6264,17.3261-41.7995
		c11.1715-11.1716,26.016-17.3246,41.7973-17.3246c30.2019,0,55.3051,22.6662,58.6714,52.2282v3.8894
		c0,0.229,0.0146,0.458,0.043,0.6855c0.1076,0.8608,0.1076,1.8615,0.1076,2.922v34.8704c0,0.4345,0.0555,0.8553,0.1506,1.2607
		L244.2656,338.9989L244.2656,338.9989z M435.6062,284.7968c0,2.052-1.6078,3.6598-3.6599,3.6598h-26.6055
		c-2.4547,0-4.6144,1.6247-5.2938,3.9841c-2.9758,10.3338-6.4834,19.3458-10.7228,27.5538
		c-1.1005,2.1305-0.6963,4.7281,0.9991,6.4235l19.5395,19.5395c1.4633,1.4649,1.4633,3.6721-0.0323,5.1693l-53.8564,54.7587
		c-0.8331,0.8685-1.8168,1.0498-2.4947,1.0498c-1.0514,0-2.0397-0.4258-2.7652-1.182l-17.5858-18.4866
		c-1.7416-1.8322-4.5068-2.2395-6.7017-0.9991c-10.0188,5.6611-20.7569,10.2002-31.9162,13.4895
		c-2.3425,0.6916-3.9504,2.8421-3.9504,5.2845v25.4019c0,2.052-1.6077,3.6598-3.6598,3.6598h-28.1072
		c-2.052,0-3.6613-1.6078-3.6613-3.6598v-49.5793c0.0585-0.7171,0.1089-1.4352,0.1445-2.1545
		c0.0046-0.0907,0.0061-0.332,0.0061-0.4227v-32.6859c49.9752-2.9386,89.7337-44.527,89.7337-95.226
		s-39.7585-92.2858-89.7337-95.2245v-33.7373c0-0.0968-0.0016-0.1952-0.0076-0.292c-0.0652-1.2281-0.1664-2.4459-0.2936-3.6557
		V70.1578c0-2.052,1.6093-3.6598,3.6613-3.6598h28.1072c2.052,0,3.6598,1.6077,3.6598,3.6598v25.2529
		c0,2.4348,1.5985,4.5821,3.9318,5.2783c10.7719,3.2172,21.5347,7.7685,31.9868,13.5249c2.1934,1.2097,4.9233,0.7839,6.6494-1.0284
		l17.5689-18.4696c0.6978-0.727,1.6462-1.1329,2.6714-1.1436c0.0154,0,0.0276,0,0.0415,0c1.0129,0,1.949,0.3796,2.6115,1.0406
		l53.8412,54.7435c1.4095,1.4095,1.3742,3.7029,0.0015,5.137l-19.5409,19.5395c-1.677,1.6754-2.0936,4.2378-1.033,6.359
		c4.3899,8.7784,8.0082,18.07,10.758,27.6184c0.6794,2.361,2.8374,3.9857,5.2938,3.9857h26.6039
		c2.0659,0,3.8105,1.7446,3.8105,3.8104v68.9905H435.6062z M255.2827,334.5565v-168.361
		c43.8949,2.9215,78.7158,39.5572,78.7158,84.1797S299.1776,331.6349,255.2827,334.5565z"/>
</g>
</svg>
