<?xml version="1.0" encoding="UTF-8"?><svg id="Layer_1" xmlns="http://www.w3.org/2000/svg" viewBox="0 0 200 200"><defs><style>.cls-1{fill:#fff;}</style></defs><path class="cls-1" d="M200,85.57v28.85c-1.28,3.36-3.85,4.54-7.31,4.69-5.52,.23-11.03,.74-16.56,1.05-1.17,.06-1.59,.51-2,1.58-1.61,4.24-3.27,8.46-5.15,12.59-.62,1.37-.5,2.13,.45,3.2,3.93,4.42,7.8,8.9,11.63,13.4,2.25,2.64,2.46,5.65,.26,7.94-6.17,6.42-12.43,12.76-18.77,19.02-2.26,2.23-5.3,2.11-7.8,.07-.96-.78-1.86-1.62-2.79-2.44-4.08-3.61-8.16-7.22-12.05-10.67-3.51,1.56-6.79,2.96-10.01,4.5-.6,.29-1.26,1.13-1.31,1.76-.49,6.34-.9,12.7-1.26,19.05-.26,4.6-2.37,6.66-7.04,6.67-6.25,.02-12.5,0-18.74,0-4.66,0-6.05-.99-7.62-5.49-4.25,3.61-9.01,6.19-14.42,7.48-1.5,.36-3.02,.67-4.53,1h-7.03c-.17-.09-.34-.23-.52-.25-12.42-1.71-21.34-8.28-27.06-19.34-.26-.5-1.03-.96-1.62-1.04-18.77-2.64-31.75-18.71-30.31-37.47,.08-1.02-.36-2.28-.99-3.12-2.95-3.96-5.17-8.24-6.35-13.04C.72,123.93,.37,122.29,0,120.66c0-2.47,0-4.94,0-7.41,.12-.43,.3-.85,.36-1.29,1.34-8.92,5.47-16.3,12.41-22.05,1.18-.98,1.33-1.6,.64-2.99-9.75-19.68,.76-43.24,21.86-49.01,1.4-.38,1.77-.94,1.75-2.38C36.69,12.38,58.11-4.53,80.29,1.36c5.11,1.36,9.61,3.88,13.66,7.29,1.57-4.49,2.95-5.47,7.62-5.48,6.25,0,12.5-.01,18.74,0,4.68,.01,6.78,2.07,7.04,6.68,.36,6.35,.78,12.71,1.24,19.05,.04,.58,.48,1.4,.97,1.62,3.39,1.59,6.85,3.06,10.4,4.62,4.59-4.07,9.25-8.22,13.93-12.34,3.61-3.18,6.45-3.06,9.83,.36,5.53,5.6,11.05,11.2,16.58,16.8,3.29,3.34,3.38,6.1,.28,9.7-3.78,4.38-7.56,8.76-11.38,13.11-.73,.83-.87,1.45-.38,2.55,1.9,4.33,3.67,8.72,5.38,13.12,.36,.92,.73,1.32,1.75,1.38,5.59,.32,11.16,.83,16.75,1.06,3.46,.14,6.03,1.32,7.3,4.69ZM20.6,148.8c.09,.71,.1,1.16,.2,1.58,2.32,9.81,11.66,17.26,21.7,17.33,4.76,.03,5.94,.87,7.59,5.37,3.15,8.62,11.15,14.61,20.05,15.01,9.37,.43,17.87-4.73,21.82-13.25,.26-.56,.44-1.15,.68-1.79-.64-.26-1.13-.44-1.6-.65-7.74-3.51-12.4-9.45-13.87-17.81-.52-2.95,1.41-5.81,4.28-6.55,2.97-.77,6.02,.87,7.01,3.82,.27,.8,.37,1.65,.63,2.45,.87,2.64,2.3,4.85,4.96,6.38v-38.81c-.56-.19-1.11-.37-1.65-.58-8.48-3.25-13.56-9.34-15.21-18.24-.57-3.07,1.35-5.9,4.36-6.63,3-.73,5.98,.93,6.94,3.89,.26,.8,.35,1.66,.62,2.45,.89,2.61,2.3,4.81,4.88,6.25V49.3c-6.29,2.65-9.99,7.13-11.39,13.57-.86,3.94-3.66,5.95-7.09,5.21-3.4-.74-5.15-3.77-4.34-7.69,1.24-6.01,4.05-11.19,8.45-15.5,4.05-3.97,8.93-6.42,14.65-7.77-.17-2.11-.15-4.2-.55-6.21-1.66-8.48-6.46-14.55-14.61-17.57-8.04-2.98-15.58-1.62-22.13,3.86-11.37,9.52-11.04,26.48,.56,36.06,2.99,2.47,3.55,6.09,1.36,8.73-2.19,2.64-5.64,2.81-8.69,.39-4.09-3.24-7.29-7.21-9.61-11.88-.28-.56-.58-1.11-.84-1.61-14.08,2.8-23.01,19.04-15.61,33.4,.57,1.1,1.25,1.07,2.22,.82,4.34-1.12,8.73-1.27,13.16-.64,3.31,.47,5.62,3.15,5.38,6.31-.25,3.23-3.05,5.55-6.5,5.34-1.04-.06-2.07-.27-3.1-.31-11.04-.39-20.78,7.32-23.09,18.25-2.29,10.86,3.5,22.01,13.6,26.17,5.82,2.4,11.61,2.23,17.4-.2-.14-.81-.24-1.44-.35-2.08-.99-6,.46-11.34,4.41-15.96,2.46-2.88,6.04-3.33,8.62-1.16,2.59,2.18,2.75,5.73,.32,8.68-2.05,2.5-2.55,5.23-1.25,8.18,1.31,2.98,3.72,4.36,6.95,4.45,3.69,.1,6.15,2.54,6.09,5.93-.06,3.34-2.7,5.77-6.34,5.75-3.8-.02-7.29-1.1-10.52-3.12-.56-.35-1.52-.65-2.04-.42-9.32,4.24-18.7,4.55-28.51,.52Zm95.31,36.22c.43-6.43,.87-12.65,1.25-18.86,.23-3.75,1.52-5.2,4.94-6.6,4.79-1.96,9.54-4.08,14.13-6.47,3.86-2.01,5.82-2.02,9.13,.91,4.32,3.83,8.65,7.66,12.63,11.19,3.68-3.53,7.23-6.95,10.86-10.44-.42-.5-.82-1-1.23-1.49-3.57-4.13-7.14-8.26-10.72-12.39-1.84-2.12-2.53-4.52-1.03-6.99,3.95-6.5,6.75-13.42,8.53-20.8,.61-2.53,2.46-3.9,5.06-4.16,1.68-.17,3.37-.25,5.06-.37,4.53-.32,9.05-.63,13.65-.95v-15.22c-.78-.06-1.48-.13-2.18-.18-5.19-.35-10.39-.66-15.58-1.07-3.96-.31-5.45-1.67-6.39-5.58-1.48-6.16-3.77-12-7.01-17.45-2.77-4.68-2.64-6.1,.93-10.2,3.66-4.21,7.3-8.43,10.94-12.66-3.65-3.54-7.19-6.97-10.82-10.49-.26,.22-.81,.68-1.34,1.15-3.99,3.54-7.97,7.09-11.97,10.61-2.41,2.11-4.84,2.54-7.33,.99-5.11-3.17-10.52-5.64-16.25-7.46-2.49-.79-3.74-2.71-3.96-5.27-.19-2.26-.29-4.54-.44-6.81-.29-4.32-.59-8.64-.88-12.99h-9.93V51.74c12.28,.67,22.84,5.15,31.54,13.72,8.74,8.62,13.53,19.13,14.36,31.33,.75,11.12-1.99,21.42-8.39,30.59-9.08,13.02-21.75,19.87-37.52,20.94v36.7h9.96Zm-9.94-121.42v72.79c17.45-.41,34.49-15.65,34.27-36.8-.22-20.94-17.25-35.66-34.27-35.99Z"/></svg>