<?xml version="1.0" encoding="UTF-8"?><svg id="Layer_1" xmlns="http://www.w3.org/2000/svg" viewBox="0 0 200 200"><defs><style>.cls-1{fill:#fff;}</style></defs><path class="cls-1" d="M70.76,200c-1.89-6.18-4.93-11.76-9.32-16.49-9.61-10.36-19.27-20.66-29.07-30.83-5-5.18-7.49-11.31-8.07-18.34-1.61-19.58-3.19-39.17-4.76-58.76-.1-1.23-.06-2.47,.03-3.7,.15-1.97,.73-3.85,2.75-4.57,1.99-.71,3.64,.34,5.1,1.67,2.58,2.36,4.15,5.32,4.99,8.66,1.74,6.93,3.44,13.88,5.13,20.82,1.25,5.11,2.47,10.24,3.69,15.35,.12,.49,.19,.99,.3,1.61-1.65-.15-3.18-.45-4.69-.41-3.92,.1-5.93,2.22-6.02,6.15-.1,4.26,1.66,8,3.54,11.63,3.48,6.75,8.11,12.71,13.13,18.37,.12,.14,.3,.22,.72,.16-.34-.57-.68-1.14-1.01-1.72-3.89-6.83-7.86-13.61-11.62-20.51-.91-1.66-1.26-3.67-1.62-5.57-.38-2.01,.03-3.9,1.88-5.18,1.93-1.33,3.84-.74,5.44,.44,2.08,1.54,4.05,3.27,5.84,5.14,7.95,8.33,15.79,16.76,23.73,25.11,6.72,7.07,11.94,15.08,15.22,24.28,3.16,8.87,6.2,17.78,9.29,26.67h-24.61Z"/><path class="cls-1" d="M104.74,200c2.76-8.04,5.58-16.07,8.28-24.14,4.06-12.13,11.26-22.14,20.25-31.09,6.45-6.42,12.52-13.23,18.8-19.82,1.79-1.88,3.72-3.63,5.62-5.4,.47-.44,1.06-.76,1.63-1.06,1.62-.85,3.27-1.29,4.96-.13,1.71,1.18,2.1,2.9,1.95,4.81-.32,4.14-2.23,7.74-4.19,11.24-2.86,5.1-5.99,10.05-9.01,15.06-.36,.6-.72,1.2-.89,2.03,.16-.1,.36-.17,.49-.31,6.04-6.94,11.73-14.14,15.11-22.82,.81-2.09,1.35-4.37,1.5-6.6,.32-4.74-2.56-7.27-7.32-6.75-1.03,.11-2.04,.34-3.3,.55,.1-.66,.14-1.21,.27-1.74,2.92-12,5.85-23.99,8.78-35.99,.85-3.49,2.47-6.55,5.17-8.99,1.42-1.27,3.05-2.23,4.96-1.54,2.02,.73,2.75,2.61,2.73,4.57-.04,3.77-.21,7.54-.5,11.3-1.1,14.27-2.2,28.55-3.44,42.81-.51,5.88-.45,11.92-2.82,17.45-1.21,2.82-2.86,5.62-4.92,7.87-9.95,10.84-20.16,21.43-30.16,32.21-4.38,4.72-7.42,10.31-9.32,16.49h-24.61Z"/><path class="cls-1" d="M99.8,0c31.17-.32,57.16,25.35,57.13,56.81-.03,31.65-25.46,56.66-56.61,56.94-31.15,.28-57.14-25.29-57.13-56.8C43.2,25.59,68.24,.37,99.8,0Zm-.95,37.19c0,2.25,.25,4.29-.05,6.23-.84,5.47-6.09,8.8-10.52,5.87-1.22-.81-2.13-.34-2.78,.7-.47,.75-.85,1.61-1.04,2.47-.87,4.02,.56,7.55,2.5,10.94,1.21,2.11,2.46,3.97,5.31,4.36,1.38,.19,2.62,1.56,3.85,2.49,.35,.26,.41,.89,.61,1.35,.17-.19,.34-.37,.52-.56,0-1.43-.09-2.86,.02-4.28,.26-3.28,1.96-5.16,4.93-5.64,3.25-.53,6.09,.88,7.36,3.63,1.49,3.21,3.66,5.52,7.3,6.44,2.61,.66,5.05,1.95,7.59,2.92,.41,.16,.88,.2,1.32,.21,2.18,.02,4.35,0,6.64,0-.07-.6-.13-1.63-.33-2.63-.75-3.75-1.39-7.53-2.4-11.22-.65-2.37-1.46-2.45-3.78-1.7-1.19,.38-2.66,.78-3.75,.42-5.87-1.98-11.35-8.96-7.27-16.34,1.39-2.52,3.52-4.64,5.31-6.95,.99-1.28,2.22-2.43,2.92-3.85,1.59-3.22,4.03-5.36,7.31-6.65,.81-.32,1.63-.61,2.52-.94-15.12-16.14-39.64-17.15-53.58-8.77,1.81,.93,4.02,1.68,5.73,3.06,1.71,1.39,2.91,3.4,4.4,5.23,1.93-1.14,3.87-.78,5.76,.41,1.94,1.22,4.02,1.35,6.18,.82,2.86-.7,5.73,.86,6.79,3.71,.87,2.33-.38,4.85-3.23,6.08-2.07,.89-4.26,1.51-6.12,2.16Zm-44.69,14.47c-3.69,31.39,24.58,56.02,52.55,50.89-.3-2.19-.68-4.37-.87-6.56-.2-2.27-.25-4.55-.3-6.82-.03-1.67-.63-2.93-1.97-4.02-1.05-.86-1.9-2.02-2.66-3.16-.56-.84-.84-1.86-1.28-2.9-1.87,2.49-3.31,2.93-6.01,1.85-1.02-.41-2.04-.9-2.91-1.55-4.17-3.1-8.75-5.34-13.74-6.77-6.51-1.86-11.6-5.74-15.61-11.1-2.37-3.17-4.67-6.39-7.19-9.86Zm67.49,45.46c.15,.13,.31,.26,.46,.39,6.14-3.32,11.27-7.79,15.27-13.36-1.32-.81-2.47-1.52-3.84-2.35-3.95,5.09-7.92,10.21-11.9,15.33Z"/></svg>