<?xml version="1.0" encoding="UTF-8"?><svg id="Layer_1" xmlns="http://www.w3.org/2000/svg" viewBox="0 0 200 200"><defs><style>.cls-1{fill:#fff;}</style></defs><path class="cls-1" d="M0,133.15c.78-1.69,1.35-3.54,2.39-5.05,2.29-3.32,5.64-4.93,9.65-5.04,3.45-.09,6.9-.09,10.34,0,6.76,.17,11.96,5.39,11.98,12.14,.05,16.85,.05,33.7,0,50.55-.02,6.33-4.42,11.39-10.81,12-4.25,.4-8.6,.39-12.85-.03-5.37-.53-8.8-3.82-10.33-9.01C.29,188.4,.13,188.12,0,187.83c0-18.23,0-36.45,0-54.68Z"/><path class="cls-1" d="M151.42,45.31c-2.07,0-3.88,.05-5.69-.02-1.1-.04-2.22-.11-3.27-.39-4.92-1.31-6.62-5.78-3.78-10.02,1.26-1.89,2.75-3.63,4.15-5.43,6-7.7,11.99-15.4,18.01-23.09,4.57-5.83,11-5.88,15.6-.04,7.16,9.1,14.25,18.26,21.37,27.4,.12,.15,.24,.31,.35,.47,1.59,2.16,2.5,4.5,1.3,7.1-1.25,2.71-3.71,3.76-6.5,3.95-2.26,.15-4.54,.03-7.11,.03,0,.92,0,1.73,0,2.55,0,45.95,0,91.91,0,137.86,0,6.03-2.74,10.17-7.83,11.67-1.29,.38-2.68,.54-4.03,.57-3.51,.08-7.03,.05-10.54,.02-7.49-.06-12-4.59-12-12.1,0-45.89,0-91.78,0-137.67,0-.89,0-1.78,0-2.87Z"/><path class="cls-1" d="M135.08,132.13c0,17.64,0,35.28,0,52.91,0,8.37-4.54,12.9-12.92,12.9-3.25,0-6.51,.04-9.76,0-6.9-.1-11.7-4.81-11.71-11.68-.03-36.12-.03-72.24,0-108.36,0-6.81,4.76-11.48,11.57-11.56,3.71-.04,7.42-.04,11.13,0,6.94,.08,11.67,4.87,11.68,11.92,.03,16.86,0,33.71,.01,50.57,0,1.11,0,2.21,0,3.32Z"/><path class="cls-1" d="M50.76,147.22c0-12.88,0-25.77,0-38.65,0-7.5,4.67-12.14,12.19-12.15,3.64,0,7.29-.03,10.93,0,6.25,.07,11.23,4.89,11.24,11.12,.05,26.42,.05,52.83,0,79.25-.01,6.11-4.84,10.88-11.1,11.1-4.03,.14-8.07,.13-12.1,0-6.51-.21-11.14-5.08-11.15-11.64-.03-13.01,0-26.03,0-39.04Z"/></svg>