<?xml version="1.0" encoding="UTF-8"?><svg id="Layer_1" xmlns="http://www.w3.org/2000/svg" viewBox="0 0 200 200"><defs><style>.cls-1{fill:#fff;}</style></defs><path class="cls-1" d="M0,102.85c0-3.39,0-6.77,0-10.16,.12-.43,.3-.85,.34-1.29,1.06-11.95,4.81-23.05,11.17-33.16C28.57,31.16,53.9,17.24,85.04,13.04c14.1-1.9,28.2-1.21,42.16,1.55,20.35,4.02,38.31,12.61,52.68,27.98,20.68,22.13,26.07,56.06,13.12,83.45-9.59,20.27-25.4,33.9-45.98,41.98-25.51,10.02-51.73,10.67-78.26,4.62-1.42-.32-2.35-.19-3.45,.86-7.68,7.33-16.69,12.42-27.25,13.73-7.38,.92-14.91,.59-22.38,.81-.06,0-.12-.19-.28-.45,3.21-3.17,6.48-6.35,9.69-9.58,4.86-4.9,7.81-10.81,9.23-17.53,.34-1.6,.09-2.61-1.46-3.68-15.07-10.39-25.93-23.95-30.63-41.91C1.2,110.95,.73,106.86,0,102.85Z"/></svg>