<?xml version="1.0" encoding="UTF-8"?><svg id="Layer_1" xmlns="http://www.w3.org/2000/svg" viewBox="0 0 200 200"><defs><style>.cls-1{fill:#fff;}</style></defs><path class="cls-1" d="M0,149.6c1.14-2.14,2.9-2.83,5.3-2.78,5.98,.13,11.95,.04,18.2,.04,0-.89,0-1.64,0-2.4,0-12.5,.12-25-.05-37.5-.1-7.39,.48-14.62,2.23-21.84,2.26-9.35,4.15-18.79,6.06-28.21,1.61-7.94,6.04-13.36,13.89-16.15-2.77-5.15-3.35-10.47-1.13-15.93,1.52-3.75,4.1-6.61,7.61-8.61,7.04-4.01,15.88-2.66,21.48,3.26,6.3,6.66,6.25,14.56-.33,24.9,1.38,.18,2.62,.47,3.87,.48,5.01,.05,10.03-.02,15.04,.05,1.17,.02,1.68-.43,2.18-1.41,8.74-16.93,22.67-25.39,41.71-24.69,20.74,.77,38.42,18.18,40.19,38.87,.79,9.32-1.18,17.96-6.06,26.56,2.49-1.08,4.48-2.12,6.59-2.81,1.94-.63,3.98-1.15,6.01-1.25,3.96-.19,7.94-.06,11.91-.06,4.01,0,5.29,1.28,5.29,5.24,0,31.77,0,63.54,0,95.31,0,4.16-1.17,5.34-5.33,5.34-37.17,0-74.34,0-111.52,0-25.97,0-51.95-.02-77.92,.03-2.39,0-4.19-.61-5.23-2.86v-33.59Zm192.09-61.65c-2.78,0-5.32-.15-7.84,.05-1.89,.15-3.89,.41-5.61,1.16-47.97,20.85-95.92,41.74-143.82,62.74-4.45,1.95-8.83,3.16-13.71,2.83-3.82-.26-7.68-.06-11.52-.05-.56,0-1.12,.07-1.65,.11v23.27H192.09V87.95Zm-94.05-26.24c-.04,19.54,15.82,35.45,35.33,35.45,19.38,0,35.29-15.93,35.31-35.32,.02-19.41-15.84-35.28-35.28-35.31-19.48-.03-35.32,15.73-35.36,35.18Zm-6.99-9c-4.08,0-7.98,.11-11.87-.04-2.78-.11-5.58-.37-8.31-.89-5.36-1.02-10.68-2.28-16.01-3.43-8-1.72-13.71,2.02-15.39,9.97-1.88,8.9-3.68,17.82-5.76,26.68-1.71,7.32-2.61,14.65-2.45,22.2,.25,11.71,.07,23.43,.07,35.15v2.44c2.2-.96,4.04-1.91,5.99-2.55,1.63-.53,1.93-1.49,1.93-3.04-.05-12.76-.04-25.52-.02-38.28,0-3.78,1.95-5.59,5.31-4.78,10.23,2.49,20.44,5.05,30.65,7.63,2.5,.63,3.52,2.31,3.13,4.81-.53,3.41-1.1,6.8-1.63,10.21-.33,2.12-.62,4.25-.98,6.66,2.99-1.3,5.64-2.39,8.21-3.63,.57-.27,1.12-1.06,1.24-1.69,.92-4.72,1.7-9.47,2.57-14.2,.9-4.87-1.04-8.27-5.69-9.89-4.05-1.41-8.11-2.78-12.16-4.2-2.42-.85-3.33-2.06-3.08-4.53,.8-7.7,1.65-15.39,2.58-23.08,.31-2.56,1.78-3.68,4.42-3.7,4.75-.03,9.5,0,14.26,0,.69,0,1.39,0,2.05,0,.33-2.68,.62-5.13,.95-7.84Zm-14.32,15.74c-.59,5.25-1.12,10.29-1.75,15.31-.17,1.33,.35,1.8,1.52,2.17,3.03,.96,6.05,1.98,9.02,3.1,7.42,2.81,11.38,9.95,9.97,17.78-.63,3.5-1.22,7.01-1.89,10.86,10.44-4.56,20.55-8.97,30.88-13.48-18.8-5.17-29.97-17.05-33.91-35.75h-13.84Zm-6.65,42.07c-7.79-1.92-15.31-3.77-22.89-5.64v33.01c5.45-2.37,10.6-4.86,15.95-6.86,3.04-1.14,4.47-2.74,4.76-6.05,.42-4.77,1.41-9.49,2.19-14.47ZM60.75,21.8c-5.44,0-9.8,4.37-9.79,9.8,.01,5.39,4.45,9.81,9.84,9.79,5.37-.02,9.84-4.5,9.81-9.85-.03-5.41-4.42-9.75-9.87-9.75Z"/></svg>