<?xml version="1.0" encoding="UTF-8"?><svg id="Layer_1" xmlns="http://www.w3.org/2000/svg" viewBox="0 0 200 200"><defs><style>.cls-1{fill:#fff;}</style></defs><path class="cls-1" d="M100.78,0c2.09,1.05,2.87,2.72,2.82,5.07-.12,5.26-.02,10.53-.04,15.8-.01,2.84-1.56,4.56-3.98,4.52-2.31-.04-3.86-1.78-3.87-4.46-.03-5.2,.09-10.41-.05-15.6C95.6,2.91,96.36,1.17,98.44,0h2.35Z"/><path class="cls-1" d="M62.29,51.36c-.91-4.51-.37-8.74,2.69-12.31,3.67-4.3,8.35-5.77,13.89-4.61,.54,.11,1.32,.32,1.62,.06,3.52-3.07,7.62-2.68,11.7-1.95,8.46,1.52,16.89,3.21,25.34,4.76,1.52,.28,3.13,.1,4.66,.34,7.92,1.24,12.77,8,11.53,15.97-.06,.38-.08,.77-.12,1.28,3.7,1.06,6.74,3.04,8.74,6.39,1.98,3.3,2.34,6.83,1.49,10.66,8.24,2.78,11.76,8.47,10.39,17.27,5.1,1.46,8.77,4.61,10.2,9.88,1.44,5.31-.26,9.85-4.08,13.85,4.23,4.21,8.36,8.35,12.54,12.43,.28,.27,1.08,.24,1.54,.07,5.81-2.17,10.86-1.04,15.22,3.34,2.06,2.08,4.19,4.11,6.22,6.21,5.31,5.49,5.39,13.34,.01,18.73-13.98,14.03-28,28.01-42.07,41.95-5.39,5.34-13.33,5.26-18.77-.03-2.24-2.18-4.47-4.37-6.64-6.62-4.07-4.2-5.05-9.05-3.04-14.57,.22-.59,.04-1.67-.39-2.11-4.74-4.84-9.55-9.61-14.38-14.36-.41-.4-1.1-.71-1.67-.73-4.43-.17-8.86-.14-13.28-.4-3.87-.23-7,.63-9.72,3.73-3.46,3.96-7.39,7.53-11.16,11.22-.81,.79-.97,1.37-.44,2.47,2.42,5.06,1.54,10.58-2.3,14.65-2.37,2.51-4.81,4.96-7.33,7.32-5.4,5.06-13.17,4.97-18.5-.18-2.81-2.72-5.56-5.5-8.3-8.28-1.85-1.88-1.95-4.26-.3-5.89,1.64-1.62,3.97-1.5,5.89,.38,2.52,2.46,4.98,4.97,7.48,7.45,3.24,3.21,5.95,3.19,9.23-.07,1.71-1.7,3.41-3.4,5.12-5.11,3.3-3.3,3.31-5.56,.02-8.9-6.17-6.26-12.31-12.54-18.51-18.77-6.89-6.93-13.83-13.81-20.76-20.69-.97-.96-1.99-1.87-3.05-2.72-1.61-1.3-4.41-1.18-6.13,.43-2.57,2.4-5.09,4.86-7.48,7.44-2.03,2.18-1.82,5.06,.41,7.35,2.68,2.76,5.43,5.44,8.16,8.15,1.21,1.19,1.77,2.58,1.26,4.24-.83,2.71-4.21,3.72-6.32,1.73-3.36-3.17-6.73-6.37-9.77-9.84-4.22-4.82-3.95-12.22,.44-16.97,2.52-2.72,5.14-5.37,7.89-7.86,3.73-3.36,8.13-4.25,12.92-2.72,1.16,.37,1.86,.27,2.72-.61,3.74-3.82,7.55-7.56,11.33-11.33,.14-.14,.24-.3,.47-.59-3.5-3.57-5.27-7.81-4.25-12.88,1-4.99,4.06-8.31,8.87-10.31-2.44-4.08-3.05-8.34-1.32-12.72,1.74-4.41,5.13-7.08,9.68-8.35-1.35-8.69,2.08-14.44,10.41-17.28Zm92.07,67.01c-.54,.69-1,1.42-1.59,2.01-2.22,2.23-4.57,2.45-6.31,.65-1.67-1.72-1.41-4.05,.7-6.17,2.67-2.68,5.38-5.3,8.01-8.02,2.43-2.51,2.49-5.94,.25-8.23-2.32-2.36-5.78-2.35-8.4,.07-.96,.88-1.84,1.85-2.77,2.75-2.06,2-4.32,2.19-6.04,.51-1.67-1.63-1.5-4.05,.45-6.03,2.1-2.13,4.28-4.19,6.34-6.38,2.27-2.42,2.27-5.87,.1-8.1-2.26-2.32-5.72-2.37-8.25-.05-1.2,1.1-2.31,2.3-3.48,3.43-2,1.94-4.4,2.1-6.05,.43-1.66-1.68-1.47-4,.52-6.02,2.33-2.37,4.76-4.64,7.01-7.08,2.24-2.43,2.05-5.89-.24-8.07-2.22-2.11-5.6-2.11-7.97,.06-1.25,1.14-2.39,2.4-3.61,3.57-1.93,1.86-4.27,2.03-5.91,.45-1.71-1.64-1.59-4.06,.35-6.03,2.1-2.14,4.25-4.23,6.37-6.35,2.86-2.87,3.07-6.33,.55-8.79-2.46-2.4-5.88-2.19-8.68,.57-3.2,3.16-6.33,6.38-9.57,9.5-.9,.87-.96,1.5-.44,2.64,3.66,8-.91,17.04-9.52,18.98-.93,.21-1.89,.29-2.86,.44-.07,.43-.14,.75-.18,1.06-1.03,7.24-5.18,11.46-12.4,12.41-1.31,.17-1.33,.87-1.43,1.83-.61,5.77-5.05,10.62-10.71,11.73-.94,.18-1.9,.27-2.87,.4-.05,.49-.1,.8-.12,1.12-.75,8.48-9.02,14.61-17.03,11.86-3.57-1.22-5.32-.27-7.24,2.14-.28,.35-.64,.65-.96,.97-2.75,2.75-5.51,5.49-7.96,7.93,12.13,12.18,24.11,24.21,36.21,36.36,4.55-4.57,9.22-9.19,13.82-13.88,2.41-2.45,5.31-3.85,8.69-3.88,4.82-.04,9.63,.22,14.45,.33,4.5,.1,8.54-.91,11.48-4.65,.32-.41,.73-.74,1.1-1.11,2.03-1.97,4.36-2.18,6.04-.54,1.73,1.69,1.52,3.9-.38,6.04-1.68,1.88-3.21,3.89-4.61,5.61,3.66,3.69,7.86,7.93,11.99,12.1,11.93-11.96,23.92-23.97,35.83-35.9-4-4.01-8.12-8.15-12.67-12.71Zm25.27,13.39c-1.5,.9-3,1.46-4.04,2.49-13.83,13.69-27.6,27.44-41.37,41.19-2.64,2.63-2.63,5.58-.04,8.23,1.96,2,3.95,3.97,5.95,5.92,3.01,2.94,5.77,2.92,8.8-.09,3.01-2.98,5.99-5.97,8.99-8.96,10.65-10.61,21.3-21.22,31.94-31.85,2.83-2.83,2.84-5.69,.06-8.5-2.06-2.08-4.07-4.22-6.27-6.16-1.06-.93-2.49-1.43-4.02-2.27Zm-100.93-46.9c3.24-.1,5.1-1.14,6.07-3.4,.99-2.3,.69-4.53-1.08-6.33-4.75-4.83-9.54-9.62-14.4-14.33-2.45-2.38-5.98-2.24-8.23,.09-2.18,2.26-2.2,5.67,.16,8.07,4.7,4.79,9.43,9.54,14.27,14.18,1,.96,2.54,1.38,3.21,1.72Zm13.78-13.68c3.34-.18,5.12-1.3,6.1-3.54,1.22-2.76,.22-4.97-2.45-6.22-7.91-3.7-13.79-9.38-17.13-17.56-.29-.7-1.13-1.4-1.87-1.65-2.47-.83-5.09,.22-6.45,2.38-1.47,2.32-1.17,5.19,.94,7.31,5.77,5.82,11.55,11.63,17.44,17.32,1.09,1.05,2.71,1.56,3.42,1.95Zm-20.67,21.52c-.52-1.16-.78-2.56-1.6-3.42-3.82-4-7.7-7.95-11.74-11.73-2.15-2.01-5.58-1.65-7.64,.41-2.02,2.03-2.45,5.34-.47,7.45,3.86,4.14,7.9,8.12,12.03,11.99,1.71,1.6,3.99,1.55,6.06,.5,2.02-1.02,3.04-2.77,3.37-5.2Zm-19.86,19.6c2.25-.08,4.01-1.01,5.1-3.01,1.09-2,1.12-4.13-.29-5.87-1.63-2-3.49-3.86-5.49-5.49-1.8-1.47-3.99-1.44-6.05-.3-1.99,1.11-2.96,2.88-2.92,5.14,.06,3.49,6.18,9.49,9.64,9.53ZM108.21,43.53c-7.37-1.13-14.41-3.11-22.17-3.7,2.2,6.79,6.74,10.74,11.96,13.88,3.47-3.46,6.73-6.71,10.21-10.19Z"/><path class="cls-1" d="M36.49,1.12c.49,.3,1.61,.73,2.39,1.5,4.61,4.49,9.16,9.04,13.69,13.61,1.86,1.88,1.91,4.28,.26,5.88-1.64,1.59-4,1.47-5.89-.4-4.58-4.52-9.12-9.08-13.69-13.61-1.33-1.32-1.82-2.85-1.1-4.6,.66-1.6,1.94-2.38,4.34-2.38Z"/><path class="cls-1" d="M144.79,19.61c.76-1.37,1.1-2.48,1.82-3.21,4.61-4.7,9.27-9.34,13.97-13.95,1.8-1.77,4.17-1.78,5.75-.18,1.57,1.58,1.53,3.97-.23,5.75-4.63,4.68-9.31,9.31-13.97,13.95-1.29,1.28-2.95,1.76-4.46,.86-1.14-.68-1.87-2.05-2.87-3.21Z"/><path class="cls-1" d="M27.15,175.84c-2.15-.03-3.84-1.71-3.86-3.84-.02-2.16,1.84-4.02,3.98-3.98,2.08,.04,3.83,1.81,3.85,3.9,.02,2.23-1.72,3.94-3.97,3.92Z"/><path class="cls-1" d="M133.88,137.54c-2.15,0-3.85-1.64-3.89-3.8-.05-2.2,1.73-4.03,3.91-4.03,2.07,0,3.88,1.77,3.93,3.84,.06,2.16-1.74,3.97-3.95,3.98Z"/></svg>