<?xml version="1.0" encoding="utf-8"?>
<!-- Generator: Adobe Illustrator 27.9.0, SVG Export Plug-In . SVG Version: 6.00 Build 0)  -->
<!DOCTYPE svg PUBLIC "-//W3C//DTD SVG 1.1//EN" "http://www.w3.org/Graphics/SVG/1.1/DTD/svg11.dtd" [
	<!ENTITY ns_extend "http://ns.adobe.com/Extensibility/1.0/">
	<!ENTITY ns_ai "http://ns.adobe.com/AdobeIllustrator/10.0/">
	<!ENTITY ns_graphs "http://ns.adobe.com/Graphs/1.0/">
	<!ENTITY ns_vars "http://ns.adobe.com/Variables/1.0/">
	<!ENTITY ns_imrep "http://ns.adobe.com/ImageReplacement/1.0/">
	<!ENTITY ns_sfw "http://ns.adobe.com/SaveForWeb/1.0/">
	<!ENTITY ns_custom "http://ns.adobe.com/GenericCustomNamespace/1.0/">
	<!ENTITY ns_adobe_xpath "http://ns.adobe.com/XPath/1.0/">
]>
<svg version="1.1" id="Layer_1" xmlns:x="&ns_extend;" xmlns:i="&ns_ai;" xmlns:graph="&ns_graphs;"
	 xmlns="http://www.w3.org/2000/svg" xmlns:xlink="http://www.w3.org/1999/xlink" x="0px" y="0px" width="200px" height="200px"
	 viewBox="0 0 200 200" style="enable-background:new 0 0 200 200;" xml:space="preserve">
<style type="text/css">
	.st0{fill:#FF6600;stroke:#FFFFFF;stroke-width:2;stroke-miterlimit:10;}
	.st1{fill:#FFFFFF;}
</style>
<metadata>
	<sfw  xmlns="&ns_sfw;">
		<slices></slices>
		<sliceSourceBounds  bottomLeftOrigin="true" height="97" width="192" x="4" y="51.7"></sliceSourceBounds>
	</sfw>
</metadata>
<g>
	<rect x="5" y="52.3" class="st0" width="190" height="95"/>
	<g>
		<g>
			<rect x="27.8" y="52.7" class="st1" width="3.9" height="4.9"/>
		</g>
		<g>
			<path class="st1" d="M31.7,133.3h-3.9v-9.5h3.9V133.3z M31.7,114.4h-3.9v-9.5h3.9V114.4z M31.7,95.5h-3.9V86h3.9V95.5z
				 M31.7,76.5h-3.9v-9.5h3.9V76.5z"/>
		</g>
		<g>
			<rect x="27.8" y="142.8" class="st1" width="3.9" height="4.9"/>
		</g>
	</g>
	<g>
		<g>
			<rect x="168.3" y="52.3" class="st1" width="3.9" height="4.9"/>
		</g>
		<g>
			<path class="st1" d="M172.2,132.9h-3.9v-9.5h3.9V132.9z M172.2,114h-3.9v-9.5h3.9V114z M172.2,95.1h-3.9v-9.5h3.9V95.1z
				 M172.2,76.2h-3.9v-9.5h3.9V76.2z"/>
		</g>
		<g>
			<rect x="168.3" y="142.4" class="st1" width="3.9" height="4.9"/>
		</g>
	</g>
	<g>
		<path class="st1" d="M91.2,126.5l-3.9-8.7c-1.6-3.4-2.8-6.2-4.1-9.3H83c-1,3.1-2.2,5.9-3.5,9.2l-3.6,8.8H59.7l15.1-27L60.3,73.1
			h16.4l3.6,8.5c1.3,3.2,2.4,5.8,3.6,8.9h0.2c1.2-3.5,2.1-5.9,3.2-8.8l3.3-8.6h16.3L92.3,99.2l15.5,27.4H91.2z"/>
		<path class="st1" d="M113.6,73.1H128v41.5h20.5v12h-34.9V73.1z"/>
	</g>
</g>
</svg>
