<?xml version="1.0" encoding="utf-8"?>
<!-- Generator: Adobe Illustrator 27.9.0, SVG Export Plug-In . SVG Version: 6.00 Build 0)  -->
<!DOCTYPE svg PUBLIC "-//W3C//DTD SVG 1.1//EN" "http://www.w3.org/Graphics/SVG/1.1/DTD/svg11.dtd" [
	<!ENTITY ns_extend "http://ns.adobe.com/Extensibility/1.0/">
	<!ENTITY ns_ai "http://ns.adobe.com/AdobeIllustrator/10.0/">
	<!ENTITY ns_graphs "http://ns.adobe.com/Graphs/1.0/">
	<!ENTITY ns_vars "http://ns.adobe.com/Variables/1.0/">
	<!ENTITY ns_imrep "http://ns.adobe.com/ImageReplacement/1.0/">
	<!ENTITY ns_sfw "http://ns.adobe.com/SaveForWeb/1.0/">
	<!ENTITY ns_custom "http://ns.adobe.com/GenericCustomNamespace/1.0/">
	<!ENTITY ns_adobe_xpath "http://ns.adobe.com/XPath/1.0/">
]>
<svg version="1.1" id="Layer_1" xmlns:x="&ns_extend;" xmlns:i="&ns_ai;" xmlns:graph="&ns_graphs;"
	 xmlns="http://www.w3.org/2000/svg" xmlns:xlink="http://www.w3.org/1999/xlink" x="0px" y="0px" width="200px" height="200px"
	 viewBox="0 0 200 200" style="enable-background:new 0 0 200 200;" xml:space="preserve">
<style type="text/css">
	.st0{fill:#FF6600;stroke:#FFFFFF;stroke-width:2;stroke-miterlimit:10;}
	.st1{fill:#FFFFFF;}
</style>
<metadata>
	<sfw  xmlns="&ns_sfw;">
		<slices></slices>
		<sliceSourceBounds  bottomLeftOrigin="true" height="97" width="192" x="4" y="51.7"></sliceSourceBounds>
	</sfw>
</metadata>
<rect x="5" y="52.3" class="st0" width="190" height="95"/>
<g>
	<g>
		<rect x="27.8" y="52.7" class="st1" width="3.9" height="4.9"/>
	</g>
	<g>
		<path class="st1" d="M31.7,133.3h-3.9v-9.5h3.9V133.3z M31.7,114.4h-3.9v-9.5h3.9V114.4z M31.7,95.5h-3.9V86h3.9V95.5z M31.7,76.5
			h-3.9v-9.5h3.9V76.5z"/>
	</g>
	<g>
		<rect x="27.8" y="142.8" class="st1" width="3.9" height="4.9"/>
	</g>
</g>
<g>
	<g>
		<rect x="168.3" y="52.3" class="st1" width="3.9" height="4.9"/>
	</g>
	<g>
		<path class="st1" d="M172.2,132.9h-3.9v-9.5h3.9V132.9z M172.2,114h-3.9v-9.5h3.9V114z M172.2,95.1h-3.9v-9.5h3.9V95.1z
			 M172.2,76.2h-3.9v-9.5h3.9V76.2z"/>
	</g>
	<g>
		<rect x="168.3" y="142.4" class="st1" width="3.9" height="4.9"/>
	</g>
</g>
<g>
	<path class="st1" d="M116.1,107.7c-0.2-6.2-0.3-13.3-0.3-21.7h-0.2c-1.7,7.1-3.9,15.2-5.7,21.1l-5.4,18.8H93.2l-4.5-18.7
		c-1.4-5.8-3-13.8-4.3-21.2h-0.2c-0.3,7.6-0.6,15.6-0.8,21.7l-0.9,19.3H69.3l3.4-53.8h19.4l3.5,14.5c1.5,6,3.1,13.2,4.2,19.7h0.2
		c1.5-6.6,3.3-14.1,4.9-19.8l4.1-14.4H128l2.7,53.8h-14L116.1,107.7z"/>
</g>
</svg>
