<?xml version="1.0" encoding="UTF-8"?><svg id="Layer_1" xmlns="http://www.w3.org/2000/svg" viewBox="0 0 200 200"><defs><style>.cls-1{fill:#fff;stroke-width:0px;}</style></defs><path class="cls-1" d="m153.22,51.56c4.39,5.37,7.28,11.13,8.38,17.7.26,1.53,1.2,1.94,2.39,1.57,1.11-.35,2.18-1,3.09-1.74,5.77-4.72,13.4-4.76,19.1.02,3.79,3.18,7.56,6.39,11.28,9.65,2.9,2.53,3.31,5.72,1.18,8.25-2.14,2.55-5.35,2.69-8.28.18-3.5-2.99-6.9-6.09-10.33-9.16-2.34-2.09-3.48-2.19-5.95-.48q-5.37,3.71-11.89,4.27c-1.14,6.77-3.69,13.05-8.19,18.69,1.27.72,2.58,1.13,3.43,1.99,2.65,2.68,5.46,5.3,7.59,8.38,2.19,3.18,4.74,5.09,8.58,4.75,3.01-.27,6-.85,8.98-1.41,3.86-.74,6.9.77,7.65,3.93.81,3.43-1.07,6.26-5.06,7.12-3.55.77-7.15,1.5-10.77,1.73-8.31.52-14.77-3.02-18.8-10.2-2.22-3.95-5.61-5.45-9.5-6.53-.5-.14-1.35.17-1.75.56-4.7,4.62-9.34,9.29-14.18,14.13.55.41.91.72,1.32.98,4.38,2.76,7.4,6.62,8.65,11.62,1.55,6.21,4.89,10.52,11.19,12.52,3.03.96,4.28,4.19,3.26,7-1.02,2.8-3.93,4.26-6.99,3.33-8.22-2.5-14.28-7.27-16.76-15.9-1.03-3.59-2.3-7.13-5.67-9.37-2.91-1.93-3.25-1.9-5.67.47-6.25,6.15-12.53,12.26-18.73,18.46-.44.44-.69,1.76-.38,2.15,1.32,1.66,2.64,3.53,4.4,4.59,9.25,5.54,12.89,13.44,10.72,23.96-.46,2.21-.83,4.43-1.34,6.63-.79,3.39-3.43,5.07-6.81,4.44-3.01-.57-4.45-2.71-3.99-6.23.43-3.26,1.14-6.49,1.51-9.76.47-4.15-1.24-7.21-5.02-9.14-4.4-2.25-7.62-5.68-9.7-10.28-2.73.69-5.39,1.36-8.3,2.1.73,4.77-1.25,8.6-4.26,12.07-1.31,1.51-1.25,3.12-.22,4.8,2.39,3.93,4.76,7.87,7.09,11.83,1.83,3.11,1.17,6.25-1.6,7.94-2.75,1.68-5.92.81-7.79-2.24-2.53-4.15-5.05-8.3-7.46-12.52-3.34-5.82-2.7-12.3,1.6-17.45.55-.66,1.18-1.34,1.46-2.12.58-1.58.4-2.81-1.7-3.2-6.08-1.12-11.53-3.69-16.45-7.42-.44-.33-1.1-.64-1.6-.57-3.08.42-6.53,4.05-6.53,7.22.01,8.23-4.11,13.72-11.09,17.43-2.45,1.3-4.91,2.6-7.41,3.79-3.28,1.56-6.38.66-7.86-2.17-1.5-2.87-.48-5.88,2.69-7.66,2.72-1.53,5.48-3,8.25-4.44,2.62-1.36,4.17-3.48,4.24-6.39.19-7.45,3.64-12.85,10.07-16.53-1.23-2.88-2.51-5.69-3.63-8.56-.53-1.36-.82-2.83-1.13-4.27-.7-3.25-2.01-3.6-4.84-1.73-2.35,1.55-4.84,3.07-7.48,3.93-3.62,1.17-7.24.28-10.51-1.62-4.28-2.48-8.51-5.05-12.71-7.64-2.91-1.8-3.74-4.9-2.17-7.61,1.61-2.76,4.89-3.52,7.89-1.76,3.89,2.28,7.75,4.61,11.63,6.91,2.17,1.28,4.08,1.29,6.12-.57,3.08-2.8,6.97-3.73,11.16-3.81.68-2.63,1.35-5.21,2.06-7.94-.36-.24-.74-.58-1.17-.79-3.95-1.93-6.9-4.88-9.07-8.68-2.73-4.79-5.77-6.19-11.27-5.24-2.48.43-4.93,1.01-7.41,1.4-3.59.55-6.37-1.38-6.9-4.68-.47-2.92,1.52-5.73,4.83-6.33,5.09-.93,10.07-2.73,15.41-1.73,6.47,1.22,11.17,4.72,14.62,10.29,1.23,1.97,3.15,3.56,4.95,5.1.42.36,1.9.16,2.37-.31,6.28-6.24,12.4-12.64,18.71-18.86,1.69-1.67,2.06-3.21.59-4.91-1.33-1.54-2.8-3.06-4.49-4.16-1.49-.97-3.31-1.52-5.06-1.98-8.74-2.29-13.42-8.46-16.05-16.6-1.04-3.22.39-6.21,3.28-7.25,2.92-1.05,5.95.26,7.11,3.5,1.96,5.51,5.61,9.03,11.22,10.62,5.85,1.66,10.5,4.91,13.38,10.63.56-.44,1.03-.75,1.43-1.14,4.12-4.1,8.26-8.2,12.33-12.36.59-.61,1.33-1.67,1.17-2.32-.84-3.57-2.03-6.95-5.53-9.02-10.03-5.93-13.27-13.39-10.92-24.74.44-2.12.79-4.27,1.35-6.36.79-2.97,3.48-4.72,6.27-4.23,3.05.53,5.04,2.99,4.69,6.17-.26,2.32-.95,4.58-1.34,6.89-1.14,6.87.14,10.11,5.76,12.96,3.54,1.8,4.88,3.62,9.1,10.22,5.42-4.26,11.52-7,18.62-7.99.07-1.34-.15-2.79.27-4.03.8-2.34,1.66-4.77,3.04-6.78,2.92-4.26,3.05-4.48-.37-8.45-2.66-3.09-5.34-6.18-7.95-9.31-2.41-2.9-2.31-6.2.16-8.33,2.52-2.17,5.71-1.79,8.25,1.09,3.39,3.84,6.76,7.7,10.06,11.62,4.44,5.29,4.31,13.14-.22,18.73-.54.67-1.19,1.3-1.58,2.05-.99,1.91-.32,2.9,1.69,3.58,3.84,1.3,7.58,2.88,11.41,4.22.92.32,2.06.36,3.02.16.99-.2,1.86-.91,2.83-1.29,4.8-1.87,7.63-4.87,7.52-10.51-.08-4.74,2.28-8.87,6.23-11.47,4.1-2.7,8.54-4.94,13-7.02,2.62-1.22,5.6.28,6.79,2.79,1.26,2.66.4,5.66-2.31,7.18-2.87,1.61-5.88,2.97-8.81,4.48-2.32,1.19-3.85,3.05-3.94,5.71-.28,8.62-4.41,14.57-12.21,18.07-.38.17-.72.43-1.31.77Zm-14.46,20.9c.03-6.24-4.73-11.12-10.91-11.18-6.22-.06-11.13,4.73-11.18,10.9-.05,6.22,4.71,11.1,10.91,11.18,6.2.08,11.15-4.75,11.18-10.91Zm-77.76,55.43c2.94,0,5.47-2.47,5.56-5.42.08-3.03-2.51-5.68-5.55-5.68-3.05,0-5.63,2.64-5.55,5.68.08,2.95,2.61,5.43,5.55,5.43Zm33.38-11.1c-2.94-.02-5.48,2.43-5.58,5.39-.1,3.02,2.48,5.69,5.52,5.71,2.93.02,5.48-2.45,5.58-5.4.1-3.02-2.48-5.69-5.52-5.71Zm-.05-38.83c-3.03.01-5.46,2.38-5.53,5.37-.07,3.05,2.5,5.65,5.57,5.64,2.96-.01,5.46-2.46,5.54-5.42.08-3.07-2.45-5.6-5.58-5.59Z"/></svg>