<?xml version="1.0" encoding="UTF-8"?><svg id="Layer_1" xmlns="http://www.w3.org/2000/svg" viewBox="0 0 200 200"><defs><style>.cls-1{fill:#fff;stroke-width:0px;}</style></defs><path class="cls-1" d="m27.91,47.87c-7.72.04-13.95-6.1-13.98-13.77-.03-7.7,6.12-13.89,13.83-13.92,7.73-.03,13.96,6.09,14.02,13.76.06,7.65-6.16,13.89-13.87,13.92Z"/><path class="cls-1" d="m13.98,75.56C6.27,75.6.03,69.46,0,61.79c-.03-7.7,6.12-13.89,13.83-13.92,7.73-.03,13.96,6.09,14.02,13.76.06,7.65-6.16,13.89-13.87,13.92Z"/><path class="cls-1" d="m20.86,106.86c-7.72.04-13.95-6.1-13.98-13.77-.03-7.7,6.12-13.89,13.83-13.92,7.73-.03,13.96,6.09,14.02,13.76.06,7.65-6.16,13.89-13.87,13.92Z"/><path class="cls-1" d="m47.05,120.71c-7.72.04-13.95-6.1-13.98-13.77-.03-7.7,6.12-13.89,13.83-13.92,7.73-.03,13.96,6.09,14.02,13.76.06,7.65-6.16,13.89-13.87,13.92Z"/><path class="cls-1" d="m81.82,122.54c-7.72.04-13.95-6.1-13.98-13.77-.03-7.7,6.12-13.89,13.83-13.92,7.73-.03,13.96,6.09,14.02,13.76.06,7.65-6.16,13.89-13.87,13.92Z"/><path class="cls-1" d="m109.8,143.4c-7.72.04-13.95-6.1-13.98-13.77-.03-7.7,6.12-13.89,13.83-13.92,7.73-.03,13.96,6.09,14.02,13.76.06,7.65-6.16,13.89-13.87,13.92Z"/><path class="cls-1" d="m113.92,179.82c-7.72.04-13.95-6.1-13.98-13.77-.03-7.7,6.12-13.89,13.83-13.92,7.73-.03,13.96,6.09,14.02,13.76.06,7.65-6.16,13.89-13.87,13.92Z"/><path class="cls-1" d="m140.17,99.14c-3.91-6.65-1.74-15.13,4.87-19.02,6.64-3.9,15.08-1.7,18.99,4.95,3.92,6.67,1.76,15.13-4.84,19.04-6.58,3.9-15.1,1.66-19.01-4.98Z"/><path class="cls-1" d="m174.19,113.89c-3.91-6.65-1.74-15.13,4.87-19.02,6.64-3.9,15.08-1.7,18.99,4.95,3.92,6.67,1.76,15.13-4.84,19.04-6.58,3.9-15.1,1.66-19.01-4.98Z"/><path class="cls-1" d="m101.94,100.04c-3.92-6.65-1.06-15.52,6.41-19.91,7.5-4.4,16.63-2.6,20.54,4.05,3.92,6.67,1.08,15.53-6.38,19.94-7.43,4.39-16.66,2.57-20.57-4.07Z"/></svg>