<?xml version="1.0" encoding="UTF-8"?><svg id="Layer_1" xmlns="http://www.w3.org/2000/svg" viewBox="0 0 200 200"><defs><style>.cls-1{fill:#fff;stroke-width:0px;}</style></defs><path class="cls-1" d="m97.66,0c1.43,0,2.86,0,4.3,0,.11.06.22.16.34.19,5.38,1.3,8.89,4.56,9.93,10.04,1,5.24-.97,9.42-5.19,12.59-.29.22-.71.55-.72.83-.05,3.68-.03,7.35-.03,11.01,13.44,1.42,25.14,6.34,35.61,14.82,2.12-2.19,4.08-4.35,6.2-6.36,1.18-1.12,1.64-2.17,1.44-3.89-.98-8.4,6.97-15.28,15.2-13.27,6.5,1.58,10.54,7.72,9.45,14.35-1.06,6.44-7.12,10.88-13.82,10.19-.77-.08-1.83-.07-2.32.38-2.54,2.32-4.94,4.79-7.47,7.29,8.48,10.46,13.38,22.23,14.79,35.57,3.3,0,6.48-.05,9.66.03,1.16.03,1.85-.32,2.57-1.27,3.27-4.35,8.69-6.03,13.74-4.4,5.06,1.63,8.57,6.32,8.68,11.56.11,5.4-3.2,10.24-8.25,12.06-5.1,1.84-10.61.25-14.05-4.01-.46-.56-1.08-1.38-1.65-1.4-3.56-.13-7.12-.07-10.7-.07-1.41,13.44-6.37,25.19-14.79,35.61,2.25,2.2,4.42,4.18,6.41,6.32,1.08,1.16,2.13,1.53,3.73,1.35,8.51-.99,15.41,7.03,13.29,15.33-1.66,6.5-7.86,10.5-14.44,9.31-6.4-1.16-10.76-7.14-10.06-13.74.08-.73.2-1.76-.2-2.19-2.42-2.6-4.99-5.07-7.54-7.62-10.43,8.45-22.15,13.32-35.5,14.74,0,3.31-.08,6.55.06,9.78.03.8.56,1.82,1.19,2.33,2.99,2.45,4.75,5.52,4.97,9.36.35,5.88-3.57,11.25-9.18,12.74-5.77,1.54-11.82-1.18-14.47-6.49-2.63-5.27-1.22-11.56,3.41-15.32.57-.46,1.43-1.06,1.45-1.63.13-3.56.07-7.13.07-10.77-13.38-1.42-25.14-6.34-35.51-14.74-2.2,2.2-4.2,4.33-6.35,6.3-1.22,1.12-1.59,2.22-1.41,3.9.93,8.42-7.03,15.24-15.25,13.2-6.5-1.61-10.51-7.76-9.39-14.38,1.09-6.44,7.14-10.83,13.87-10.12.72.08,1.72.12,2.16-.29,2.56-2.39,4.98-4.92,7.53-7.47-8.45-10.4-13.33-22.18-14.74-35.49-3.2,0-6.25.07-9.3-.03-1.36-.04-2.21.33-3.08,1.45-2.91,3.73-6.86,5.37-11.53,4.67-4.9-.73-8.26-3.57-10.02-8.24-.22-.59-.48-1.17-.72-1.76,0-1.56,0-3.13,0-4.69.11-.15.28-.28.33-.45,1.4-5.21,4.72-8.51,10.02-9.46,5.15-.93,9.29,1,12.43,5.16.28.37.78.8,1.18.8,3.56.06,7.12.04,10.7.04,1.4-13.45,6.36-25.19,14.74-35.54-2.22-2.22-4.36-4.22-6.34-6.37-1.07-1.16-2.11-1.58-3.72-1.37-5.2.66-10.18-2.19-12.44-6.92-2.3-4.8-1.33-10.53,2.41-14.24,3.79-3.76,9.49-4.73,14.24-2.42,4.82,2.34,7.5,7.25,6.97,12.65-.08.78-.14,1.87.3,2.34,2.37,2.57,4.9,4.99,7.45,7.52,10.42-8.48,22.2-13.33,35.49-14.76,0-3.21-.07-6.26.03-9.31.05-1.36-.35-2.2-1.46-3.07-3.77-2.97-5.41-6.98-4.63-11.72.8-4.9,3.7-8.19,8.39-9.89.53-.19,1.05-.43,1.57-.65Zm21.09,121.89c0-6.9-5.63-12.52-12.53-12.51-6.81.02-12.41,5.58-12.46,12.38-.05,6.9,5.55,12.58,12.43,12.61,6.9.03,12.55-5.6,12.56-12.48Zm-50.38-35.94c0,6.02,4.93,10.93,10.94,10.92,6.01,0,10.93-4.93,10.92-10.94,0-6.02-4.92-10.92-10.94-10.92-6.01,0-10.93,4.93-10.92,10.94Zm59.7,4.67c5.1.03,9.36-4.13,9.43-9.21.07-5.2-4.13-9.5-9.31-9.52-5.11-.03-9.36,4.12-9.43,9.21-.07,5.2,4.13,9.5,9.31,9.53Z"/></svg>