<?xml version="1.0" encoding="UTF-8"?><svg id="Layer_1" xmlns="http://www.w3.org/2000/svg" viewBox="0 0 200 200"><defs><style>.cls-1{fill:none;}.cls-1,.cls-2,.cls-3{stroke-width:0px;}.cls-2{fill:#f60;}.cls-3{fill:#231f20;}</style></defs><polygon class="cls-1" points="25.3928 132.7399 35.6198 152.2262 35.6198 126.6598 25.3928 107.9821 25.3928 132.7399"/><path class="cls-3" d="m79.3116,118.6104c-.2198.121-.3648.2036-.3905.2184l.1943.3398c.0115-.0065.4349-.2476,1.0206-.5562-.2798.0002-.553-.0007-.8244-.002Z"/><path class="cls-2" d="m116.0454,89.2617c-1.2137.1578-2.3352.1676-2.554.1676v-.0018c-.0167.0015-.0287.0095-.0464.0095-.0803,0-.1505-.0157-.2108-.0428.0031.5117.1067,1.047.4212,1.5186.7349,1.1025,1.7529,2.0635,2.7441,2.9385.9526.8389,1.356,3.2119,1.356,4.0146v2.8291h-.3916v-2.8291c0-.9316-.4648-3.0518-1.2236-3.7207-1.0112-.8926-2.0513-1.875-2.811-3.0156-.7759-1.1621-.5171-2.7803-.0161-3.9072.2402-.5408,1.1737-2.1703,1.8961-3.4111l-.0656-.087c.0043-.0033.0844-.064.2107-.162.4019-.6885.7123-1.2127.7468-1.2706.0239-.0332.7866-.9941.6387-2.293-.1143-1.0029-.7305-1.9492-1.8311-2.8105-.5635-.4414-1.14-.6392-1.7122-.6771l-.0441.0257c-.0027-.0047-.0114-.0206-.0153-.0273-2.1982-.1006-4.3203,2.2563-5.351,3.4082-.252.2803-.418.4658-.5254.5469-.5815.4346-4.2637,3.8223-4.3008,3.8564l-.2656-.2891c.087-.0797,1.2913-1.1874,2.4203-2.207-.3958-.4101-.7413-1.1606-.9462-1.9958-.5389-.1047-1.6793-.2494-2.777.0807l-.0814.0802c-.0109-.0109-.0192-.0358-.0297-.0486-.3526.117-.698.2856-1.0142.5233-1.7285,1.2959-2.7588,3.333-2.769,3.3535l-.0596.1191-.1333-.0117c-1.2036-.1084-3.1821-.043-3.3657.6025-.0981.3428.062.8652.2314,1.4189.2988.9775.6377,2.0859-.3115,2.7148-.6909.458-.7891,1.1514-.7866,1.5244.0054.6533.3052,1.2812.7461,1.5635,1.019.6523,3.2529,2.6113,3.2529,4.1826,0,1.3838,2.1562,4.0107,2.9023,4.6094l.1133.0908c.1619.1288.3095.2487.4586.3695l.1371-.0092.0085.1265c3.0904,2.5192,3.3694,3.272,3.2117,3.6665-.1479.3672-.5864.8916-1.0947,1.498-.5723.6826-1.2202,1.457-1.5,2.0801-.5361,1.1953-2.3638,3.6523-2.4414,3.7568l-.0415.041-.1019.0745.0145.2703c-.1373.0074-.2816.018-.4196.0256l-1.3817,1.0095-.0679-.002c-3.1548-.1113-6.1313,1.1562-7.7246,1.8389-.4937.2109-.8198.3506-1.0107.3887-.2788.0557-.8887.2734-1.5952.5264-1.1426.4082-2.4375.8711-3.1792.9639-.7205.0896-2.2137.8232-3.2226,1.3549,4.1711-.0027,9.2625-.1678,15.1757-.5707,4.305-.2927,8.1609-.6512,11.5361-1.0417,1.0053-.6409,3.5773-2.2952,4.0781-2.759.6118-.5645,1.5352-1.417,1.7539-3.0078.2314-1.668,1.9004-3.8682,1.9712-3.9609l.3115.2383c-.0166.0215-1.6768,2.2109-1.894,3.7764-.2383,1.7305-1.2637,2.6768-1.8765,3.2412-.4341.403-2.2499,1.5928-3.4512,2.366,5.5152-.6643,9.6637-1.4104,12.2705-2.0814.1709-1.063.749-4.4406,1.3907-5.724.1611-.3223.3364-.6943.5249-1.0947.686-1.4541,1.5396-3.2656,2.5244-4.4492.7754-.9297.5513-1.6289.2671-2.5137-.1367-.4258-.2783-.8662-.3115-1.3662-.0479-.7119-.7427-1.1709-1.478-1.6572-.645-.4258-1.3115-.8662-1.5366-1.5176-.4209-1.2217-2.3091-3.2246-3.9565-4.5723-1.3011-1.0643-1.4168-2.1606-1.3904-2.6559Zm-5.7268,3.399c-1.3721,1.1553-1.7197,3.7363-1.2368,4.3398.2202.2744.3564.6807.5137,1.1504.2993.8926.6387,1.9043,1.6504,2.3652,1.6343.7441,2.7539,1.5986,2.8008,1.6348l-.2388.3105c-.0112-.0088-1.1333-.8643-2.7246-1.5879-1.167-.5322-1.5508-1.6777-1.8594-2.5986-.1455-.4346-.2715-.8096-.4478-1.0303-.7178-.8955-.1509-3.6719,1.2905-4.8848,1.2954-1.0898.8257-2.7012.8052-2.7686l.375-.1152c.0239.0781.5688,1.9248-.9282,3.1846Zm-11.4546-7.4131c.0298.0381.7358.9561.7358,1.9053,0,.3086.0542.8643.4165,1.126.251.1797.6196.1914,1.0928.0342.4624-.1543.9575-.1797,1.4355-.2041.9863-.0518,2.0054-.1035,2.9595-1.2412.5059-.6035.8926-1.1592,1.2334-1.6494.6606-.9502,1.1826-1.7012,2.1118-2.1133,1.002-.4453,2.1387-1.8672,2.0049-2.3291-.0557-.1895-.4604-.1494-.6328-.125l-.0576-.3887c.7534-.1074.9956.1592,1.0669.4043.2354.8115-1.2354,2.3584-2.2222,2.7959-.8291.3682-1.2988,1.0439-1.9492,1.9795-.3457.4971-.7373,1.0605-1.2544,1.6777-1.064,1.2686-2.2202,1.3281-3.2397,1.3799-.4731.0244-.9204.0479-1.332.1846-.2622.0879-.5024.1309-.7197.1309-.2812,0-.5239-.0723-.7261-.2188-.3735-.2686-.5791-.7812-.5791-1.4434,0-.8125-.6475-1.6562-.6538-1.665l.3096-.2402Zm7.5811,17.9941c-.2783-.1699-2.7329-1.6836-3.1909-2.4463-.1006-.168-.2812-.4111-.4907-.6924-.709-.9531-1.7812-2.3955-1.8301-3.6699-.0444-1.1455-1.3945-2.084-2.3799-2.7686-.2876-.2002-.5596-.3887-.7622-.5576-.8784-.7314-2.4883-3.2109-2.1421-4.1377.2314-.6162.0703-2.7939-.0112-3.5811l.3896-.041c.0127.1191.2998,2.9316-.0112,3.7598-.2358.6318,1.1079,2.9346,2.0259,3.6992.1895.1572.4424.333.7349.5361,1.0532.7324,2.4961,1.7354,2.5479,3.0752.0444,1.1543,1.0728,2.5371,1.7534,3.4521.2153.29.4014.54.5117.7246.3457.5752,2.3257,1.8652,3.0591,2.3135l-.2041.334Zm12.2378,2.9189c1.4795-.4404,3.7954-2.8691,4.1992-3.9248l.3662.1406c-.2148.5615-.8237,1.3584-1.5649,2.1094-.3647.7275-1.5181,2.9375-2.1416,3.0957-.2236.0557-.5557.6523-.8491,1.1787-.3364.6035-.7183,1.2891-1.1704,1.6738-.3257.2773-.5312.7305-.73,1.1689-.2827.624-.5742,1.2676-1.2246,1.2676-.0493,0-.1006-.0029-.1543-.0107-.2871-.041-.4146-.2041-.4707-.334-.2871-.6621.6646-2.0771.8584-2.3535l.3213.2246c-.4297.6143-.9678,1.6328-.8198,1.9727.0176.041.0513.0859.1665.1016.4448.0713.6577-.3486.9663-1.0303.2065-.4551.4404-.9717.833-1.3057.3979-.3389.7612-.9912,1.082-1.5664.3955-.71.7085-1.2715,1.0962-1.3682.2344-.0586.8091-.916,1.3647-1.9082-.7031.5928-1.4336,1.0703-2.0161,1.2432-1.1377.3408-1.7251-.1875-2.1553-.5723-.1699-.1523-.3164-.2832-.4497-.3184-.1655-.042-.4341-.1475-.7744-.2803-.9194-.3594-2.3086-.9023-3.3618-.9023-1.1528,0-2.1226-.9023-3.061-1.7744-.3501-.3252-.7119-.6621-1.0767-.9463-1.395-1.0859-1.5586-4.4668-1.5649-4.6104l.3916-.0176c.0015.0332.1616,3.3438,1.4141,4.3193.3784.2939.7466.6367,1.103.9678.9233.8584,1.7954,1.6689,2.7939,1.6689,1.127,0,2.5581.5596,3.5049.9297.3145.123.5864.2295.7295.2666.2256.0586.4141.2266.6128.4053.4009.3584.8564.7656,1.7817.4893Z"/><path class="cls-3" d="m101.3103,79.9899l.0814-.0802c-.037.0111-.0742.0193-.1111.0316.0106.0129.0188.0377.0297.0486Z"/><path class="cls-3" d="m104.4895,79.901c-.0052-.0016-.1257-.0341-.3208-.072.2048.8352.5504,1.5858.9462,1.9958.1999-.1805.3961-.3571.5846-.5258-.4046-.374-.9419-1.6788-.9419-2.9752,0-.8516.4912-3.2178.8857-5.1182.229-1.1035.4268-2.0557.4995-2.5654.1816-1.2764,2.3418-6.4141,4.0913-8.749,1.7837-2.377,3.5864-5.7695,3.604-5.8037l-.6934-.3672c-.0181.0332-1.7915,3.3721-3.5386,5.7002-1.8022,2.4053-4.0234,7.582-4.2407,9.1084-.0693.4854-.2646,1.4268-.4907,2.5166-.4229,2.0371-.9023,4.3467-.9023,5.2783,0,.3553.0385.7242.1039,1.0869.2998.0519.4924.1051.5206.1133l-.1074.377Z"/><path class="cls-3" d="m116.2697,89.0377l.1904.0469c-.002.0082-.0098.056-.0169.1201.9787-.1534,1.9608-.4106,2.533-.8467l.8228-.6357c1.6196-1.2578,4.6348-3.5986,5.7524-4.0781.377-.1611,1.145-.5723,2.208-1.1416,2.8652-1.5342,7.6606-4.1016,9.7925-4.3857.3589-.0479.7295-.0928,1.1074-.1387,2.8345-.3447,6.0474-.7344,8.2324-2.7383,3.9194-3.5947,9.2959-7.4365,12.6318-7.4365l1.2578-.0039c4.0781-.0146,9.6729-.042,14.0977,1.374l.2393-.748c-4.5435-1.4541-10.2075-1.4307-14.3403-1.4111l-1.2544.0039c-4.4819,0-11.2075,5.8506-13.1621,7.6436-2,1.833-5.0796,2.207-7.7964,2.5371-.3813.0469-.7549.0918-1.1167.1406-2.2734.3027-7.1475,2.9121-10.0596,4.4707-1.0063.5391-1.8013.9648-2.147,1.1133-1.21.5186-4.1611,2.8096-5.9243,4.1787l-.8169.6309c-.9795.7471-4.3024.958-5.3634.958v.7852c.2188,0,1.6943-.0567,2.9081-.2145.0084-.1573.0306-.257.0344-.2719l.1899.0479Z"/><path class="cls-3" d="m101.9602,69.1227c.3726-1.1191,2.9072-4.8369,3.8975-6.0244.2651-.3184.6875-.8086,1.1748-1.373,1.4116-1.6367,3.1689-3.6748,3.6211-4.4297.1377-.2285.3379-.584.5796-1.0107.7705-1.3643,2.0596-3.6465,2.9536-4.6895,1.105-1.291,5.1743-2.623,6.8013-2.4453.7661.0859,2.9419.1318,5.6963.1914,3.6416.0781,8.1738.1758,10.5796.4043,4.3262.4141,16.7441.4043,18.1997-.0127,1.2192-.3477,9.3125-2.1504,16.8105-3.1631l-.1055-.7773c-7.1675.9678-15.3789,2.7451-16.9204,3.1855-1.3286.3789-13.8828.3691-17.9102-.0137-2.4341-.2314-6.9824-.3291-10.6367-.4082-2.627-.0557-4.8955-.1045-5.6265-.1855-1.8574-.207-6.1987,1.2119-7.4844,2.7139-.9434,1.1006-2.2056,3.335-3.041,4.8135-.2373.4199-.4336.7686-.5693.9941-.4175.6973-2.2979,2.8779-3.5425,4.3203-.4907.5693-.916,1.0625-1.1831,1.3838-1.0405,1.248-3.6201,5.0205-4.0396,6.2783-.3372,1.0111-.8127,8.703-.1131,10.7114.2485-.0869.4991-.1493.7467-.1929-.5391-.8909-.3472-8.8963.1115-10.2704Z"/><path class="cls-3" d="m113.8308,76.1422c-.2134-.3672-.7217-1.4531-.5186-2.0654.0552-.166.1611-.2783.334-.3525,1.5029-.6455,3.5513-1.6826,3.9937-3.2295.3765-1.3213,1.7397-4.0361,2.645-4.7607.6968-.5576,2.7954-1.5566,3.8535-2.0449.0449.4219.0718.7539.0718.9443,0,1.0439,1.272,3.7207,1.8101,4.8066-.5249.4912-.9824.9453-1.2432,1.3174-.688.9824-7.5752,6.418-8.5723,6.584l.1238.7427c.0065.0087.014.0171.0203.0258,1.3514-.252,8.3561-5.8809,9.0712-6.9022.3003-.4287.9731-1.0469,1.6855-1.7021.8555-.7861,1.7397-1.5996,2.1895-2.2744.6094-.9131,4.1235-3.0859,5.4258-3.8457l-.3955-.6777c-.4951.2891-4.8628,2.8584-5.6836,4.0879-.3896.585-1.2144,1.3477-2.0205,2.0889-.7432-1.5176-1.626-3.5498-1.626-4.251,0-1.208-.9556-7.3398-.9966-7.6006l-.7754.1211c.0073.0469.5396,3.4609.8193,5.7148-.9736.4443-3.4209,1.5898-4.248,2.252-1.0645.8525-2.499,3.7178-2.9097,5.1592-.3906,1.3662-2.7676,2.3877-3.5479,2.7236-.3789.1621-.645.4482-.7705.8271-.2502.7585.1094,1.7302.369,2.2833.2645-.0068.5308.0249.7975.085l.0977-.0568Z"/><path class="cls-3" d="m113.1525,76.5368l.0441-.0257c-.0198-.0013-.0396-.0007-.0594-.0016.0039.0068.0125.0226.0153.0273Z"/><path class="cls-3" d="m116.3286,78.0841c-.3109-.4167-.689-.8217-1.1785-1.2046-.4678-.3665-.9429-.5736-1.417-.6805l-.5364.312c.5722.0378,1.1487.2357,1.7122.6771,1.1006.8613,1.7168,1.8076,1.8311,2.8105.1479,1.2988-.6147,2.2598-.6387,2.293-.0345.0579-.3449.5822-.7468,1.2706.1916-.1486.4973-.3898.8539-.6836.1313-.2235.212-.3605.2133-.3634.0356-.0439.8726-1.0908.709-2.5547-.0725-.6462-.3486-1.2623-.7817-1.8507-.0042.0008-.0112.0043-.0152.005l-.0051-.0308Z"/><path class="cls-3" d="m113.3132,87.2223c-.501,1.127-.7598,2.7451.0161,3.9072.7598,1.1406,1.7998,2.123,2.811,3.0156.7588.6689,1.2236,2.7891,1.2236,3.7207v2.8291h.3916v-2.8291c0-.8027-.4033-3.1758-1.356-4.0146-.9912-.875-2.0093-1.8359-2.7441-2.9385-.8872-1.3301-.1421-3.1748.0161-3.5312.2224-.5002,1.0911-2.0205,1.7937-3.2307l-.256-.3395c-.7224,1.2407-1.6559,2.8703-1.8961,3.4111Z"/><path class="cls-3" d="m100.0866,100.6325l-.1133-.0908c-.7461-.5986-2.9023-3.2256-2.9023-4.6094,0-1.5713-2.2339-3.5303-3.2529-4.1826-.4409-.2822-.7407-.9102-.7461-1.5635-.0024-.373.0957-1.0664.7866-1.5244.9492-.6289.6104-1.7373.3115-2.7148-.1694-.5537-.3296-1.0762-.2314-1.4189.1836-.6455,2.1621-.7109,3.3657-.6025l.1333.0117.0596-.1191c.0103-.0205,1.0405-2.0576,2.769-3.3535.3162-.2377.6616-.4062,1.0142-.5233-.0669-.0813-.1257-.2034-.1786-.3552-.3694.1291-.7332.3105-1.071.564-1.5781,1.1836-2.5708,2.9062-2.8223,3.374-.6899-.0508-3.3408-.1768-3.647.8965-.1299.4541.0464,1.0303.2334,1.6406.3335,1.0918.5034,1.8389-.1533,2.2744-.626.4141-.9678,1.0732-.9614,1.8545.0059.7793.3784,1.5391.9268,1.8896,1.0376.6641,3.0723,2.5361,3.0723,3.8525,0,1.5928,2.2896,4.3066,3.0488,4.916l.1147.0908c.0446.0355.0823.0666.1259.1014l.5764-.0386c-.1491-.1208-.2967-.2407-.4586-.3695Z"/><path class="cls-3" d="m101.3917,79.9097c1.0977-.3301,2.238-.1854,2.777-.0807-.0339-.1384-.0668-.2767-.0923-.4183-.5146-.0891-1.3481-.1726-2.2277-.0176.0073.012.0132.0367.0207.046l-.4777.4706Z"/><path class="cls-3" d="m105.3386,82.0231c-.076-.0507-.1503-.1221-.2238-.1982-1.129,1.0196-2.3333,2.1273-2.4203,2.207l.2656.2891c.0371-.0342,3.7192-3.4219,4.3008-3.8564.1074-.0811.2734-.2666.5254-.5469,1.0307-1.1519,3.1527-3.5089,5.351-3.4082-.0348-.0605-.11-.1999-.2017-.3954-2.3168.0596-4.4824,2.4711-5.4412,3.5419-.2104.2344-.3921.4375-.4688.4941-.1959.1467-.7145.6014-1.3262,1.149.0245.0227.0504.0543.0737.0698l-.4346.6543Z"/><path class="cls-3" d="m111.1921,114.528c.6128-.5645,1.6382-1.5107,1.8765-3.2412.2173-1.5654,1.8774-3.7549,1.894-3.7764l-.3115-.2383c-.0708.0928-1.7397,2.293-1.9712,3.9609-.2188,1.5908-1.1421,2.4434-1.7539,3.0078-.5008.4638-3.0728,2.1181-4.0781,2.759.3026-.035.5981-.0704.893-.106,1.2013-.7732,3.0172-1.963,3.4512-2.366Z"/><path class="cls-3" d="m115.801,110.1725c-.1938.2764-1.1455,1.6914-.8584,2.3535.0562.1299.1836.293.4707.334.0537.0078.105.0107.1543.0107.6504,0,.9419-.6436,1.2246-1.2676.1987-.4385.4043-.8916.73-1.1689.4521-.3848.834-1.0703,1.1704-1.6738.2935-.5264.6255-1.123.8491-1.1787.6235-.1582,1.7769-2.3682,2.1416-3.0957.7412-.751,1.3501-1.5479,1.5649-2.1094l-.3662-.1406c-.4038,1.0557-2.7197,3.4844-4.1992,3.9248-.9253.2764-1.3809-.1309-1.7817-.4893-.1987-.1787-.3872-.3467-.6128-.4053-.1431-.0371-.415-.1436-.7295-.2666-.9468-.3701-2.3779-.9297-3.5049-.9297-.9985,0-1.8706-.8105-2.7939-1.6689-.3564-.3311-.7246-.6738-1.103-.9678-1.2524-.9756-1.4126-4.2861-1.4141-4.3193l-.3916.0176c.0063.1436.1699,3.5244,1.5649,4.6104.3647.2842.7266.6211,1.0767.9463.9385.8721,1.9082,1.7744,3.061,1.7744,1.0532,0,2.4424.543,3.3618.9023.3403.1328.6089.2383.7744.2803.1333.0352.2798.166.4497.3184.4302.3848,1.0176.9131,2.1553.5723.5825-.1729,1.313-.6504,2.0161-1.2432-.5557.9922-1.1304,1.8496-1.3647,1.9082-.3877.0967-.7007.6582-1.0962,1.3682-.3208.5752-.6841,1.2275-1.082,1.5664-.3926.334-.6265.8506-.833,1.3057-.3086.6816-.5215,1.1016-.9663,1.0303-.1152-.0156-.1489-.0605-.1665-.1016-.1479-.3398.3901-1.3584.8198-1.9727l-.3213-.2246Z"/><path class="cls-3" d="m97.7912,93.1071c.2026.1689.4746.3574.7622.5576.9854.6846,2.3354,1.623,2.3799,2.7686.0488,1.2744,1.1211,2.7168,1.8301,3.6699.2095.2812.3901.5244.4907.6924.458.7627,2.9126,2.2764,3.1909,2.4463l.2041-.334c-.7334-.4482-2.7134-1.7383-3.0591-2.3135-.1104-.1846-.2964-.4346-.5117-.7246-.6807-.915-1.709-2.2979-1.7534-3.4521-.0518-1.3398-1.4946-2.3428-2.5479-3.0752-.2925-.2031-.5454-.3789-.7349-.5361-.918-.7646-2.2617-3.0674-2.0259-3.6992.311-.8281.0239-3.6406.0112-3.7598l-.3896.041c.0815.7871.2427,2.9648.0112,3.5811-.3462.9268,1.2637,3.4062,2.1421,4.1377Z"/><path class="cls-3" d="m103.5383,104.6393c-.124.3096-.5645.8359-1.0312,1.3926-.5884.7021-1.2549,1.499-1.5566,2.1719-.4462.9943-1.8737,2.9678-2.2794,3.521.008-.0004.0165-.001.0245-.0015l.0275.5129.1019-.0745.0415-.041c.0776-.1045,1.9053-2.5615,2.4414-3.7568.2798-.623.9277-1.3975,1.5-2.0801.5083-.6064.9468-1.1309,1.0947-1.498.1577-.3945-.1213-1.1473-3.2117-3.6665l.0362.538c2.7675,2.2899,2.8606,2.8593,2.8112,2.982Z"/><path class="cls-3" d="m108.8493,83.1051c-.9292.4121-1.4512,1.1631-2.1118,2.1133-.3408.4902-.7275,1.0459-1.2334,1.6494-.9541,1.1377-1.9731,1.1895-2.9595,1.2412-.478.0244-.9731.0498-1.4355.2041-.4731.1572-.8418.1455-1.0928-.0342-.3623-.2617-.4165-.8174-.4165-1.126,0-.9492-.7061-1.8672-.7358-1.9053l-.3096.2402c.0063.0088.6538.8525.6538,1.665,0,.6621.2056,1.1748.5791,1.4434.2021.1465.4448.2188.7261.2188.2173,0,.4575-.043.7197-.1309.4116-.1367.8589-.1602,1.332-.1846,1.0195-.0518,2.1758-.1113,3.2397-1.3799.5171-.6172.9087-1.1807,1.2544-1.6777.6504-.9356,1.1201-1.6113,1.9492-1.9795.9868-.4375,2.4575-1.9844,2.2222-2.7959-.0713-.2451-.3135-.5117-1.0669-.4043l.0576.3887c.1724-.0244.5771-.0645.6328.125.1338.4619-1.0029,1.8838-2.0049,2.3291Z"/><path class="cls-3" d="m97.5927,112.5764l-.7786.5687c-3.2476-.0928-6.2153,1.1836-7.8247,1.873-.437.1865-.7817.335-.9331.3643-.3071.0615-.9297.2842-1.6504.542-1.0679.3818-2.397.8564-3.0962.9443-.9734.1212-3.1154,1.2554-3.9982,1.7416-.2198.121-.3648.2036-.3905.2184l.1943.3398c.0115-.0065.4349-.2476,1.0206-.5562,1.0089-.5317,2.5021-1.2653,3.2226-1.3549.7417-.0928,2.0366-.5557,3.1792-.9639.7065-.2529,1.3164-.4707,1.5952-.5264.1909-.0381.5171-.1777,1.0107-.3887,1.5933-.6826,4.5698-1.9502,7.7246-1.8389l.0679.002,1.3817-1.0095c-.2385.0131-.4852.0303-.7252.0443Z"/><path class="cls-3" d="m111.2468,89.4762l-.375.1152c.0205.0674.4902,1.6787-.8052,2.7686-1.4414,1.2129-2.0083,3.9893-1.2905,4.8848.1763.2207.3022.5957.4478,1.0303.3086.9209.6924,2.0664,1.8594,2.5986,1.5913.7236,2.7134,1.5791,2.7246,1.5879l.2388-.3105c-.0469-.0361-1.1665-.8906-2.8008-1.6348-1.0117-.4609-1.3511-1.4727-1.6504-2.3652-.1572-.4697-.2935-.876-.5137-1.1504-.4829-.6035-.1353-3.1846,1.2368-4.3398,1.4971-1.2598.9521-3.1064.9282-3.1846Z"/><path class="cls-3" d="m116.0454,89.2617c-.0264.4953.0893,1.5916,1.3904,2.6559,1.6475,1.3477,3.5356,3.3506,3.9565,4.5723.2251.6514.8916,1.0918,1.5366,1.5176.7354.4863,1.4302.9453,1.478,1.6572.0332.5.1748.9404.3115,1.3662.2842.8848.5083,1.584-.2671,2.5137-.9849,1.1836-1.8384,2.9951-2.5244,4.4492-.1885.4004-.3638.7725-.5249,1.0947-.6417,1.2834-1.2198,4.661-1.3907,5.724.1442-.0371.2811-.0738.4159-.1104.0754-.4561.2004-1.1777.359-1.9668-.056-.0089-.0981-.0179-.1567-.0267l.1162-.7754c.0726.0109.1326.0229.2025.034.2344-1.0654.5153-2.1249.8043-2.7029.1626-.3252.3394-.7002.5288-1.1025.6768-1.4355,1.5186-3.2207,2.4712-4.3662.9136-1.0957.6211-2.0049.3389-2.8848-.0778-.2424-.1486-.4931-.2061-.7499l-.2466.0165-.0527-.7832.1673-.0112c-.1814-.754-.9031-1.2364-1.6087-1.7027-.6172-.4082-1.2002-.793-1.3818-1.3184-.4658-1.3506-2.4409-3.4082-4.0791-4.7471-1.2707-1.0397-1.278-2.0729-1.2405-2.4102-.1334.0209-.2657.0399-.3979.057Z"/><path class="cls-3" d="m116.3337,78.1149c.004-.0007.011-.0042.0152-.005-.0063-.0087-.0139-.0171-.0203-.0258l.0051.0308Z"/><path class="cls-3" d="m113.1967,76.5111l.5364-.312c-.2668-.0601-.5331-.0919-.7975-.085.0917.1955.1669.3348.2017.3954.0198.0009.0396.0003.0594.0016Z"/><path class="cls-3" d="m105.3386,82.0231l.4346-.6543c-.0234-.0155-.0492-.0471-.0737-.0698-.1885.1688-.3847.3453-.5846.5258.0735.0761.1477.1476.2238.1982Z"/><path class="cls-3" d="m104.4895,79.901l.1074-.377c-.0281-.0082-.2208-.0615-.5206-.1133.0256.1415.0584.2799.0923.4183.1951.0379.3156.0704.3208.072Z"/><path class="cls-3" d="m101.3917,79.9097l.4777-.4706c-.0075-.0093-.0134-.0341-.0207-.046-.2476.0436-.4982.1061-.7467.1929.0529.1518.1117.2739.1786.3552.0369-.0123.0741-.0204.1111-.0316Z"/><path class="cls-3" d="m116.4602,89.0846l-.1904-.0469.1899.0479-.1899-.0479-.1899-.0479c-.0038.0148-.0261.1146-.0344.2719.1322-.0172.2645-.0361.3979-.057.0071-.0641.0149-.1119.0169-.1201Z"/><path class="cls-3" d="m115.6164,84.3512c.1079-.0811,2.6626-2.0127,3.6094-3.3242.3623-.0234,1.5967,1.7061,2.5166,3.6465l.709-.3359c-.4419-.9326-1.9756-3.9854-3.1499-4.0918-.2861-.0195-.5562.1016-.7422.3604-.4897.6801-1.5424,1.6061-2.351,2.2726-.1757.2992-.444.7571-.743,1.2721l.1511.2004Z"/><path class="cls-3" d="m115.1438,83.7243l.0656.087c.0497-.0854.0977-.1678.1451-.249-.1263.098-.2064.1587-.2107.162Z"/><path class="cls-3" d="m124.8855,100.1609l7.6064-.5089,8.7046,5.2676c-.6968.0352-1.2744.084-1.6753.1484-2.2803.3682-2.9766,1.5039-3.1655,1.9512-.7363-.0117-1.3862-.0215-1.8325-.0215-1.7231,0-4.2036.2822-5.3716.7539-1.2725.5117-.5298,3.2676-.2427,4.1816-.0146.3311.0537.6572.2065.9521.5806,1.1201,3.8936,2.499,5.0234,2.9424.0181.0869.0483.1826.0898.2861.063.1572.1577.3447.2871.5518l-98.4316,9.208-10.4443-19.0752,75.0952-5.0225-.008-.1187c-.2341-.1937-.4843-.3977-.7582-.6168l-75.6083,5.0568.2471.4512v26.2881l11.1831,21.4053,122.5894-15.0635.3447-.042v-9.9414c.96.5635,1.6611,1.0107,1.8555,1.2109.5601.5791,4.3887,3.2578,7.9331,5.7227.7207.501,1.2671.8809,1.4961,1.0449l.4561-.6387c-.23-.1641-.7793-.5469-1.5044-1.0508-2.3574-1.6396-7.2627-5.0508-7.8169-5.624-.834-.8594-7.5986-4.4629-9.936-5.5625-2.6411-1.2441-10.3374-4.6406-12.9717-5.666-2.4175-.9404-3.3232-2.6934-3.3584-2.9072.0347-.0732.0854-.2285.1499-.4326.0356-.1143.0811-.2588.1353-.4199.5986,1.0703,1.772,2.1904,3.6123,1.7803.96-.2129,1.5981-.6465,1.897-1.29.2148-.4619.2065-.9424.1357-1.3252.9316.2666,2.0298.6016,3.3164,1.0186,1.8086.5879,8.4053,2.2324,11.4624,2.7549,2.8701.4912,7.1172,2.9883,7.1597,3.0137l.3994-.6758c-.1787-.1055-4.4131-2.5957-7.4268-3.1113-3.0298-.5186-9.563-2.1465-11.3525-2.7275-7.4272-2.4111-8.2529-2.0215-8.5234-1.8936-.8594.4082-1.314,1.8428-1.5596,2.626-1.6851-.6738-4.1162-1.832-4.4712-2.5176-.0024-.0049-.0049-.0088-.0068-.0127,1.2114.4951,3.2759,1.1826,4.0288.4805.7842-.7285,1.002-2.2236,1.0537-2.7207,1.5122-.0273,3.0806-.0469,3.5879.0361.4233.0703,1.563.0322,3.3862-.0352,1.7861-.0654,3.811-.1426,4.5034-.0312.4521.0723,1.4824.1699,2.6753.2822,1.9316.1816,5.5269.5195,5.9644.7754.7666.459,6.3662.8477,8.064.9561l.0498-.7832c-3.4434-.2197-7.269-.5967-7.71-.8467-.5347-.3203-2.9463-.5684-6.2949-.8838-1.1787-.1104-2.1968-.2061-2.624-.2754-.7705-.124-2.7466-.0508-4.6572.0225-1.4072.0508-2.8633.1035-3.228.0459-.627-.1045-2.3364-.0732-4.1606-.0391.1201-.1914.1899-.3994.21-.623.0361-.4102-.1089-.7891-.2881-1.0879.0527-.001.105-.001.1567-.001.5283,0,1.3438.0127,2.2495.0273,2.5508.041,4.5801.0664,5.2778-.0137l.0015.0029c.0029-.002.0063-.0029.0093-.0049.0498-.0059.0928-.0127.1279-.0195.2422-.0449,1.9258.0107,3.4116.0605,4.6704.1592,6.8481.1826,7.3931-.0908.6548-.2441,7.0537.209,12.7412.7617l.0762-.7812c-2.854-.2783-12.2393-1.1475-13.1587-.6865-.5137.2334-4.5894.0938-7.0254.0127-1.376-.0469-2.3359-.0781-2.9302-.0781h-.0186c.1621-.4707.1934-1.0078.1958-1.3242,4.0264-.0811,9.9907.0918,11.2588.1982.7607.0635,2.4414-.0254,4.3872-.1289,2.7344-.1436,5.8325-.3066,7.1924-.0977,1.2397.1904,3.0732-.1426,4.8457-.4688,1.6953-.3125,3.4478-.6328,4.3447-.4053l.1943-.7598c-1.063-.2725-2.8208.0508-4.6807.3926-1.7085.3135-3.4746.6367-4.583.4658-1.4404-.2236-4.583-.0576-7.355.0889-1.8369.0977-3.5737.1914-4.2803.1299-1.3398-.1113-7.4878-.292-11.5703-.1953l-9.8359-5.9521-.106-.0635-7.9328.5298c.02.0829.0386.1664.0446.2563.0121.18.0492.3512.0874.5216Zm-89.2656,52.0653l-10.2271-19.4863v-24.7578l10.2271,18.6777v25.5664Zm100.5601-39.1016c.2139-.0977,1.2554-.0068,3.7476.667.0957.252.2471.7852.0312,1.2432-.1914.4082-.6465.6943-1.353.8516-2.0039.4385-2.8403-1.4766-3.0337-2.0215.1748-.3428.3799-.6318.6079-.7402Zm-1.1079,4.2773c.6162.6943,1.5562,1.4463,2.8804,1.9619,2.6216,1.0195,10.2891,4.4043,12.9214,5.6445,1.6929.7959,4.9219,2.5049,7.2017,3.8105h-.1357v9.6221l-121.5347,14.9346v-26.7432l98.667-9.2305Zm-5.6807-6.7314c-.2241-1.0791-.2559-2.0664.0537-2.1904.7666-.3105,2.3955-.5732,3.9668-.6641.1992.2158.4941.6221.4604.9883-.022.2422-.189.4561-.5103.6543l.0337.0547c-.5049.0088-.9834.0146-1.4014.0146-1.0928,0-2.0439.4219-2.603,1.1426Zm3.9087,1.7471c-.3438.3184-2.0513-.1338-3.5483-.7822.0347-.1084.084-.2168.1484-.3223.3804-.626,1.1636-1,2.0942-1,.6084,0,1.3438-.0127,2.1021-.0273-.0723.583-.2983,1.6689-.7964,2.1318Zm8.478-5.3838c-.7866.0527-2.832.0254-4.5352-.001.2739-.377.9229-.9512,2.4033-1.1895.5269-.085,1.3901-.1406,2.4424-.1738-.0083.5098-.1084,1.1377-.3105,1.3643Z"/><path class="cls-3" d="m100.6823,100.9928l-.1371.0092c.0474.0383.0995.0798.1456.1173l-.0085-.1265Z"/><path class="cls-3" d="m98.7375,112.5065l-.0145-.2703-.4051.2959c.1379-.0076.2822-.0182.4196-.0256Z"/><path class="cls-3" d="m78.9211,118.8287c.0257-.0148.1707-.0974.3905-.2184-7.6481-.0355-11.9781-.634-12.2689-1.2963.3071-1.1152,10.4214-3.3857,27.9082-4.5762.8956-.0613,1.7672-.1107,2.6418-.1615l.9768-.7135c.0177-.0239.0601-.0818.1015-.1382-1.236.0661-2.4946.1426-3.7739.23-9.9849.6797-28.8198,2.6826-28.6367,5.3984.106,1.5527,6.3301,2.0342,13.5107,2.0332,5.3872,0,11.3135-.2705,15.5942-.5615,9.9854-.6787,28.8208-2.6807,28.6367-5.3984-.0482-.6888-.9724-1.1288-3.0538-1.4592-.0568.258-.1114.5161-.162.7681,2.1956.3469,2.4232.7311,2.4332.7311h.0005c-.0916.3299-1.048.7614-2.7927,1.2357-.0493.2983-.0781.4859-.0794.4948l-.3877-.0586c.004-.0266.0225-.1473.0512-.3258-2.6068.671-6.7553,1.4171-12.2705,2.0814-.5919.3809-1.0369.6624-1.0893.6956l-.209-.332c.0075-.0048.1618-.1024.4053-.2576-3.3752.3906-7.2311.7491-11.5361,1.0417-5.9133.4029-11.0046.568-15.1757.5707-.5856.3087-1.0091.5497-1.0206.5562l-.1943-.3398Z"/><path class="cls-3" d="m100.6909,101.1193c-.0461-.0375-.0983-.079-.1456-.1173l-.5764.0386c.2739.2191.5242.4231.7582.6168l-.0362-.538Z"/><path class="cls-3" d="m120.3479,115.1969c.0013-.0089.0301-.1965.0794-.4948-.1348.0366-.2717.0733-.4159.1104-.0287.1785-.0472.2993-.0512.3258l.3877.0586Z"/><path class="cls-3" d="m124.6389,100.1774l.2466-.0165c-.0382-.1704-.0753-.3416-.0874-.5216-.006-.0898-.0247-.1734-.0446-.2563l-.1673.0112.0527.7832Z"/><path class="cls-3" d="m106.6516,117.5895c.0524-.0332.4974-.3146,1.0893-.6956-.2949.0355-.5904.0709-.893.106-.2435.1552-.3978.2528-.4053.2576l.209.332Z"/><path class="cls-3" d="m115.2093,83.8112l.256.3395c.299-.515.5674-.9729.743-1.2721-.3566.2938-.6623.535-.8539.6836-.0474.0812-.0955.1636-.1451.249Z"/><path class="cls-3" d="m98.671,111.7247c-.0414.0564-.0838.1143-.1015.1382l-.9768.7135c.2401-.014.4868-.0312.7252-.0443l.4051-.2959-.0275-.5129c-.008.0004-.0165.001-.0245.0015Z"/><path class="cls-3" d="m120.7458,111.9332l-.1162.7754c.0586.0088.1007.0178.1567.0267.0507-.252.1053-.5101.162-.7681-.0699-.0111-.1299-.0231-.2025-.034Z"/></svg>