<?xml version="1.0" encoding="UTF-8"?><svg id="Layer_1" xmlns="http://www.w3.org/2000/svg" viewBox="0 0 200 200"><defs><style>.cls-1{fill:#f60;}.cls-1,.cls-2{stroke-width:0px;}.cls-2{fill:#231f20;}</style></defs><path class="cls-1" d="m77.5969,69.9821c-.3154-.1172-.6084-.2285-.8828-.333-1.278-.4863-2.1376-.8069-2.9901-.8359-.0478.0693-.0891.1332-.1398.205l-.2797-.1974c-.3074.0257-.6216.0885-.963.2023-1.3494.4502-3.2356.798-4.8607.9207l-.0695.0578c-.0055-.0065-.0197-.024-.0399-.05-.3659.0255-.7222.0432-1.0494.0432h-7.8257c-.1338.0908-.5464.4043-.5503.7803-.0029.2598.1973.5205.5957.7744.3794.2412.8481.4092,1.3013.5713,1.3184.4727,2.8125,1.0078,2.0474,3.5645-.9292,3.1035-.9692,4.5-.1938,6.7871.2827.8379.874,1.7646,1.4463,2.6611,1.0024,1.5703,1.9497,3.0547,1.4302,4.2051l-.3447-.1562c.4355-.9629-.458-2.3633-1.4043-3.8457-.1899-.2969-.3813-.5977-.5645-.8984-.6401,1.3486-3.0825,6.5898-3.2456,8.333-.0312.334-.0581.7158-.0879,1.1289-.1543,2.166-.3662,5.1318-1.5034,6.7832-1.1719,1.7031-1.4849,6.416-1.4849,8.9326,0,1.2744-.7046,4.5459-1.1709,6.71-.1768.8203-.3164,1.4688-.3691,1.7822-.0596.3584.0278,1.1904.1289,2.1543.2192,2.0879.519,4.9482-.1362,6.9131-.9692,2.915-.978,6.4902-.0229,9.1074.7778,2.1309,1.4126,6.2197,1.7534,8.416.0908.585.1587,1.0205.1997,1.2266.168.8428,2.9644,2.7334,4.043,2.7334.917,0,2.3711-.5166,2.8481-.6963-.0132-.3887-.0273-.7871-.041-1.1904-.127-3.6309-.2705-7.7461.0869-8.9414.5781-1.9297.3638-6.749-.0059-9.3428-.3569-2.5029-5.9351-2.7207-5.9912-2.7227l.0127-.377c.2427.0078,5.9512.2314,6.3525,3.0469.3745,2.627.5874,7.5225-.0059,9.5049-.3398,1.1348-.1909,5.3955-.0718,8.8184.0835,2.3896.1558,4.4531.0791,5.374-.2285,2.748-.3696,13.0615.3218,13.9043.2559.3115.4067.7578.5815,1.2744.3877,1.1455.8701,2.5713,2.8018,3.0859,1.7856.4775,4.2744,1.0098,5.2739.1357.3975-.3467.5444-.8896.4482-1.6592-.4614-3.6973-.4492-7.3154.0317-9.6787.5483-2.6914.5337-8.0283-.0293-10.7734-.4399-2.1436-.4751-4.709.4385-5.6094.2979-.2949.687-.4014,1.123-.3027,1.9902.4404,2.6313,1.873,2.0781,4.6445-.1274.6367-.292,1.3564-.4653,2.1182-.5942,2.6094-1.334,5.8555-.9727,7.6152.4756,2.3066.0229,8.8145.0034,9.0908-.0166.0996-1.3896,8.1113,1.4717,8.6465,1.917.3574,3.5234.1875,4.4102-.4697.4414-.3262.6948-.7598.7534-1.2871.0752-.6777.3457-1.8457.6592-3.1982.4766-2.0557,1.0693-4.6143,1.0693-6.0117,0-1.042.2666-3.4404.5493-5.9795.3486-3.1357.7095-6.3789.6055-7.3691-.1558-1.4824.1016-6.9619,1.1538-8.1299.1494-.166.3159-.251.4937-.251.8374,0,.938,2.5264.9678,8.291.0142,2.7383.0288,5.5693.2598,7.2588.1709,1.2578.2568,2.418.3398,3.54.1943,2.6289.3618,4.8994,1.561,7.165,1.6162,3.0537,3.7827,6.415,6.2456,5.3018,2.5195-1.1436,2.8804-2.6406,2.6641-5.0029-.0972-1.0547-.0073-2.3232.0874-3.666.1318-1.8691.2681-3.8018-.0835-5.3477-.2134-.9326-.6904-2.3848-1.1958-3.9209-1.2114-3.6855-1.9741-6.1494-1.5527-6.8018.5464-.8467.7827-5.1816.7827-7.2061,0-1.1377.8433-6.332,1.7798-6.5049.2251-.0352.4102.1182.5469.4756.5928,1.5625.7104,3.46.835,5.4697.0308.499.062,1.0029.1011,1.5068.1113,1.4492,1.1079,4.6436,1.9082,7.2109.582,1.8662,1.085,3.4775,1.166,4.127.1587,1.2734,1.752,4.5596,2.7402,5.0352.1479.0713.2192.0449.2603.0195,1.022-.624,3.5127-3.0488,2.7764-6.7256-.8486-4.251-.9629-6.292-.9629-7.7285,0-.4648.0654-1.2012.1479-2.1328.2212-2.4873.5557-6.2471-.1372-8.1885-.3193-.8955-.9482-2.3906-1.6758-4.123-1.4307-3.4033-3.3892-8.0635-4.2886-11.2754-.5078-1.8145-.6548-3.6865-.7974-5.4961-.2388-3.0342-.4854-6.1719-2.4106-9.2646-.751-1.207-1.4883-2.3623-2.1812-3.4473-2.1982-3.4443-3.9341-6.1641-4.3115-7.6992-.4236-1.7239-2.7056-7.2923-3.2445-8.5974-1.5193.459-2.8292-.2258-3.7047-1.9778-.4619-.9219-1.042-2.8633-1.5532-4.5762-.3506-1.1719-.6812-2.2793-.8833-2.7412-.0363-.0825-.0383-.1939-.0541-.2937-.6639-.9349-2.8594-3.8486-4.964-4.6301Zm-8.4888,12.2549c.4238-.7803.8237-1.5186,1.0566-2.1152.7485-1.9141,4.106-7.8506,4.2485-8.1016l.3291.1855c-.0347.0615-3.4868,6.165-4.2256,8.0527-.2412.6201-.647,1.3672-1.0767,2.1592-.8999,1.6582-1.9194,3.5381-1.6406,4.6504l.123.498c.3623,1.4844,1.2119,4.9619,2.001,5.1748.0361.0127.1313.0361.2812-.1182l.2725.2617c-.1807.1875-.3564.2422-.5.2422-.0562,0-.1074-.0088-.1523-.0205-.9268-.251-1.6577-2.9453-2.2695-5.4502l-.1221-.4961c-.3154-1.2549.7417-3.2031,1.6748-4.9229Zm1.0996,5.0107l.2661-.2676c.0815.0801,1.9971,1.9971,1.9971,3.5947,0,.1748-.0024.377-.0054.5996-.0195,1.6123-.0566,4.6143.8975,5.4092l-.2422.291c-1.0923-.9111-1.0552-3.9121-1.0332-5.7051.0029-.2207.0054-.4209.0054-.5947,0-1.4404-1.8662-3.3076-1.8853-3.3271Zm.0605,49.3477c-.2856-.9355-1.0601-5.7646-1.0601-7.1719,0-.5645-.3306-1.7031-.7134-3.0215-.4893-1.6865-1.0986-3.7852-1.2075-5.4268-.1812-2.7158-2.4619-3.457-2.5591-3.4873l.1118-.3613c.0264.0078,2.6255.8428,2.8242,3.8232.1064,1.6016.7095,3.6777,1.1938,5.3467.3906,1.3467.728,2.5088.728,3.127,0,1.3447.7695,6.165,1.0435,7.0605l-.3613.1113Zm.1318-25.4541c-.2241.0732-.5508.168-.9453.2822-1.6934.4912-4.5278,1.3115-5.8999,2.3799-1.6787,1.3057-3.7744,5.0957-3.7954,5.1338l-.3311-.1816c.0869-.1592,2.1538-3.8965,3.894-5.251,1.4297-1.1123,4.3076-1.9453,6.0269-2.4434.3892-.1133.7114-.2061.9326-.2793.9209-.3027,3.6685-3.2559,4.6499-4.3682l.2832.25c-.1465.166-3.6089,4.0811-4.8149,4.4775Zm13.5718-19.3232c.4492.6729.396,4.6729.0298,7.0547-.3843,2.5039-2.9722,7.5391-3.082,7.7529l-.3359-.1738c.0269-.0518,2.6694-5.1934,3.0439-7.6357.396-2.5742.355-6.3008.0298-6.7891-.3926-.5898-.6875-5.3076-.7422-6.248l.377-.0215c.1255,2.1367.4209,5.6709.6797,6.0605Zm-1.3013-14.498l.377-.0293c.0156.1992.3682,4.9092-1.207,6.6807-1.5688,1.7646-4.0894,5.6699-4.5918,6.5088l-.3242-.1934c.5063-.8457,3.0474-4.7822,4.6338-6.5674,1.4683-1.6504,1.1162-6.3516,1.1123-6.3994Z"/><path class="cls-2" d="m122.0119,46.3043c4.1704,1.1367,24.1953,7.8027,24.397,7.8701l.2393-.7168c-.2021-.0674-20.2471-6.7402-24.437-7.8818-3.6948-1.0098-5.5005,1.6953-6.0415,2.7295-3.4741-1.5068-13.9805,1.373-15.5195,1.8857-2.1851.7285-10.042,4.2383-11.8486,5.7393-.793.6572-1.7471,1.9033-2.6226,3.2646-.6777.459-5.3389,3.6338-6.272,4.752-.9287,1.1152-4.9995,4.5293-5.0405,4.5635l.1079.129c.2113.059.4332.1309.6631.2102.9539-.8062,4.0151-3.4155,4.8505-4.4183.5688-.6826,2.8853-2.373,4.7451-3.6689-.7314,1.291-1.3145,2.5273-1.5527,3.3184-.5376,1.7949-1.8613,6.21-.4795,7.8438-.3369.8088-.5541,1.4908-.6336,2.0487.3031.4081.4883.6859.5159.7277l-.3154.209c-.0042-.0064-.0811-.1204-.2069-.2976.0157.0998.0178.2112.0541.2937.2021.4619.5327,1.5693.8833,2.7412.5112,1.7129,1.0913,3.6543,1.5532,4.5762.8755,1.752,2.1854,2.4368,3.7047,1.9778-.0698-.1691-.114-.2756-.1173-.2835l.3486-.1445c.0128.0306.0616.1483.1304.3145l.2397-.0889c1.125-.4121,2.4585-.9014,3.0811-1.8389.1655.2334.373.4365.6323.5986.2114.1318.4263.2754.6455.4219,1.2856.8564,2.8662,1.9092,4.7129,1.29.1431.542.4336,1.0586.9312,1.5137,2.9785,2.7285,5.3325,3.916,7.4004,3.7471,2.3389-.1943,6.4751-1.876,6.6499-1.9482l-.1973-.4824c.5435.2275.9888.4854,1.2524.7734,1.2163,1.3281,4.6777,2.3086,7.459,3.0957.5981.1689,1.1489.3252,1.6133.4678,1.7979.5527,6.5186,1.4258,10.1831,1.4258,1.0947,0,2.0962-.0781,2.896-.2656,3.2236-.7598,9.918-2.0977,9.9854-2.1104l-.1484-.7422c-.0674.0137-6.7739,1.3545-10.0098,2.1162-3.0952.7256-10.0693-.3438-12.6846-1.1465-.4688-.1436-1.0249-.3018-1.6294-.4726-2.5469-.7207-6.0356-1.709-7.1069-2.8779-1.4858-1.625-6.8721-2.21-7.1006-2.2344l-.0791.752c1.0454.1104,3.3892.4746,5.0508,1.0938-.9067.3574-4.2754,1.6426-6.1963,1.8018-1.8447.1631-4.0146-.9736-6.8271-3.5498-1.7896-1.6396-.1162-4.4443.5981-5.6416.1133-.1895.2031-.3408.2539-.4434.2114-.4219,2.5415-2.083,4.6724-3.4453l-.4072-.6367c-1.0581.6758-4.541,2.9453-4.9409,3.7441-.0459.0908-.1265.2246-.2271.3945-.4995.8369-1.5581,2.6113-1.5005,4.3076-1.5518.5967-2.8896-.293-4.1846-1.1562-.2251-.1494-.4463-.2969-.6636-.4326-.3394-.2119-.5552-.5518-.6875-.96.001-.0137.002-.0273.0029-.04l-.0161-.001c-.2871-.9385-.1504-2.2236-.0488-3.1748.0264-.2451.0503-.4697.0645-.6631.0796-1.0889,1.8184-3.6309,2.895-4.9775.7676-.96,4.2266-5.1836,4.2266-5.1836l-.585-.4785s-3.4629,4.2295-4.2319,5.1895c-.1196.1494-2.9336,3.6855-3.0586,5.3945-.0137.1865-.0371.4023-.062.6377-.1055.9883-.2446,2.2939.0439,3.3633-.1831,1.0625-1.5723,1.5713-2.9175,2.0645l-.3813.1416c-1.2412.4639-2.2441-.0566-2.9883-1.5449-.4326-.8643-1.0024-2.7715-1.5054-4.4541-.3726-1.2471-.6943-2.3252-.915-2.8291-.1519-.3457.1245-1.2373.522-2.2148.0273.0117.0557.0225.0845.0332l.2578-.7109c-.0156-.0059-.0312-.0117-.0469-.0186.2998-.6807.6226-1.3506.8691-1.8643.356-.7393.6367-1.3242.7544-1.6758.2549-.7637,2.4756-2.8008,3.8022-4.0176.5332-.4883.998-.915,1.2969-1.2139.7026-.7021,1.9585-1.499,3.4126-2.4229.8516-.541,1.7695-1.124,2.6875-1.7588,2.4375-1.6865,5.0981-2.8359,5.1245-2.8467l-.2979-.6953c-.1113.0479-2.7544,1.1895-5.2563,2.9209-.9097.6279-1.8193,1.2061-2.6636,1.7422-1.4912.9473-2.7798,1.7656-3.541,2.5254-.2935.2939-.7505.7129-1.2739,1.1924-2.0195,1.8525-3.7153,3.457-4.0078,4.335-.1025.3066-.3882.9004-.7188,1.5879-.271.5625-.5254,1.0986-.7534,1.6025-.478-1.0527-.1958-3.3311.8452-6.8047.5503-1.8291,3.1689-6.3662,4.8799-7.7852,1.625-1.3506,9.249-4.8184,11.605-5.6045,2.4131-.8037,12.7407-3.3789,15.2495-1.7676,1.9399,1.2451,7.25,4.2734,11.9346,6.9463,1.8423,1.0498,3.5894,2.0469,4.9995,2.8594,4.9756,2.8682,13.2554,5.5752,13.3389,5.6025l.2334-.7188c-.082-.0273-8.2881-2.7109-13.1943-5.5381-1.4116-.8135-3.1597-1.8105-5.0029-2.8623-4.4707-2.5498-9.5112-5.4248-11.627-6.752.4185-.8506,1.9224-3.2637,5.1909-2.373Z"/><path class="cls-2" d="m67.4809,69.9438c-.0367.0027-.073.0053-.1094.0078.0202.0259.0344.0435.0399.05l.0695-.0578Z"/><path class="cls-2" d="m67.9924,69.5182c-.0122-.0146-.7959-.9854-1.1143-2.6309,1.2407-1.21,4.0234-3.4775,5.4414-2.6621l.168.0957c.9326.5342,1.606.9199,1.7241,1.4531.1187.5353-.2516,1.3779-1.1741,2.7018.3179-.0455.6268-.0552.9349-.027.8463-1.2919,1.1325-2.138.9775-2.8378-.1904-.8604-.9858-1.3154-2.0869-1.9453l-.1675-.0967c-1.8218-1.04-4.6265,1.1875-5.9355,2.3887-.0391-.625-.0015-1.3203.1577-2.0742.6509-3.0889,4.9219-5.3779,6.7461-6.3555.2295-.123.4224-.2266.5688-.3105,1.4561-.8301,4.9819-4.5977,6.2632-6.2422,1.355-1.7422,3.6001-6.4033,3.6953-6.6006l-.6816-.3281c-.022.0459-2.1484,4.4619-3.4702,6.2783-1.7202-.3613-5.6387-1.3496-6.4756-2.3203-.291-.3379-.6328-.5195-1.0156-.542-.8232-.0205-1.6147.6748-2.3071,1.3125-.3018.2783-.5874.542-.8091.6729-1.0835.6426-3.6636,4.4531-3.4409,6.1455.1821,1.3779.6821,5.7734.7764,6.6035-.272.4844-.4766.9951-.5894,1.5303-.6188,2.9324.4089,5.0214.9434,5.8628.2813-.0159.5728-.0405.8702-.071l.0009-.0008Zm-1.252-14.0234c-.1763-1.3418,2.2368-4.8984,3.0767-5.3965.29-.1719.604-.4609.9365-.7676.54-.4971,1.209-1.1143,1.7163-1.1143.0117,0,.0234.001.0347.001.1729.0098.332.1016.4868.2812,1.0132,1.1748,4.9458,2.1387,6.5254,2.4863-1.5425,1.8633-4.4917,4.9102-5.6592,5.5762-.1416.0811-.3286.1807-.5513.2998-1.4111.7568-4.2173,2.2607-5.8877,4.3721-.1826-1.5977-.5317-4.6318-.6782-5.7383Z"/><path class="cls-2" d="m58.1945,62.4196c-.7539-.9668-.5391-2.4336-.2676-4.2891.1626-1.1123.3472-2.374.3472-3.7383,0-3.5713.5664-6.4189,1.6831-8.4639,1.1045-2.0225,4.937-6.8213,6.0298-7.5518.9268-.6162,1.9756-2.5176,2.9897-4.3564.3413-.6191.6699-1.2148.9722-1.7178.7671-1.2803,4.1504-1.9297,10.0566-1.9297,1.8662,0,6.2856-.3496,10.5596-.6875,4.0903-.3232,8.3198-.6582,10.0122-.6582,1.8301,0,7.1353-.5742,12.2661-1.1299,4.6621-.5049,9.0649-.9814,10.4214-.9814,2.8677,0,19.145-1.4766,19.8364-1.54l-.0684-.752c-.1689.0146-16.9346,1.5361-19.7681,1.5361-1.397,0-5.8198.4785-10.5024.9854-5.1108.5537-10.396,1.126-12.1851,1.126-1.7222,0-5.7778.3203-10.0718.6602-4.2593.3369-8.6641.6855-10.5.6855-6.4517,0-9.7534.708-10.7051,2.2969-.3062.5098-.6396,1.1143-.9854,1.7412-.8799,1.5947-1.9741,3.5781-2.7476,4.0928-1.2085.8076-5.0786,5.6299-6.2734,7.8184-1.1787,2.1572-1.7759,5.127-1.7759,8.8262,0,1.3096-.1802,2.542-.3394,3.6289-.2861,1.9531-.5327,3.6406.4189,4.8633,1.1243,1.4449,2.7068,5.6308,3.1125,6.7314h.8048c-.1161-.3239-1.9684-5.457-3.3207-7.1963Z"/><path class="cls-2" d="m73.724,68.8132c-.1391-.0047-.2789-.0042-.4195.0076l.2797.1974c.0507-.0718.092-.1357.1398-.205Z"/><path class="cls-2" d="m73.3045,68.8208l-.3375-.2382c.0276-.0392.0438-.0685.0706-.1068-.2618.0374-.5291.0925-.8157.1879-1.1765.3928-2.7708.7058-4.2304.8553l-.5106.4248c1.6251-.1227,3.5113-.4705,4.8607-.9207.3414-.1138.6556-.1766.963-.2023Z"/><path class="cls-2" d="m68.8581,126.2965c-.4844-1.6689-1.0874-3.7451-1.1938-5.3467-.1987-2.9805-2.7979-3.8154-2.8242-3.8232l-.1118.3613c.0972.0303,2.3779.7715,2.5591,3.4873.1089,1.6416.7183,3.7402,1.2075,5.4268.3828,1.3184.7134,2.457.7134,3.0215,0,1.4072.7744,6.2363,1.0601,7.1719l.3613-.1113c-.2739-.8955-1.0435-5.7158-1.0435-7.0605,0-.6182-.3374-1.7803-.728-3.127Z"/><path class="cls-2" d="m73.1208,96.8746l.2422-.291c-.9541-.7949-.917-3.7969-.8975-5.4092.0029-.2227.0054-.4248.0054-.5996,0-1.5977-1.9155-3.5146-1.9971-3.5947l-.2661.2676c.019.0195,1.8853,1.8867,1.8853,3.3271,0,.1738-.0024.374-.0054.5947-.022,1.793-.0591,4.7939,1.0332,5.7051Z"/><path class="cls-2" d="m67.5554,87.6559c.6118,2.5049,1.3428,5.1992,2.2695,5.4502.0449.0117.0962.0205.1523.0205.1436,0,.3193-.0547.5-.2422l-.2725-.2617c-.1499.1543-.2451.1309-.2812.1182-.7891-.2129-1.6387-3.6904-2.001-5.1748l-.123-.498c-.2788-1.1123.7407-2.9922,1.6406-4.6504.4297-.792.8354-1.5391,1.0767-2.1592.7388-1.8877,4.1909-7.9912,4.2256-8.0527l-.3291-.1855c-.1426.251-3.5,6.1875-4.2485,8.1016-.2329.5967-.6328,1.335-1.0566,2.1152-.9331,1.7197-1.9902,3.668-1.6748,4.9229l.1221.4961Z"/><path class="cls-2" d="m70.2819,110.7819c-.2212.0732-.5435.166-.9326.2793-1.7192.498-4.5972,1.3311-6.0269,2.4434-1.7402,1.3545-3.8071,5.0918-3.894,5.251l.3311.1816c.021-.0381,2.1167-3.8281,3.7954-5.1338,1.3721-1.0684,4.2065-1.8887,5.8999-2.3799.3945-.1143.7212-.209.9453-.2822,1.2061-.3965,4.6685-4.3115,4.8149-4.4775l-.2832-.25c-.9814,1.1123-3.729,4.0654-4.6499,4.3682Z"/><path class="cls-2" d="m88.7562,84.2011c.5389,1.3051,2.8209,6.8735,3.2445,8.5974.3774,1.5352,2.1133,4.2549,4.3115,7.6992.6929,1.085,1.4302,2.2402,2.1812,3.4473,1.9253,3.0928,2.1719,6.2305,2.4106,9.2646.1426,1.8096.2896,3.6816.7974,5.4961.8994,3.2119,2.8579,7.8721,4.2886,11.2754.7275,1.7324,1.3564,3.2275,1.6758,4.123.6929,1.9414.3584,5.7012.1372,8.1885-.0825.9316-.1479,1.668-.1479,2.1328,0,1.4365.1143,3.4775.9629,7.7285.7363,3.6768-1.7544,6.1016-2.7764,6.7256-.041.0254-.1123.0518-.2603-.0195-.9883-.4756-2.5815-3.7617-2.7402-5.0352-.0811-.6494-.584-2.2607-1.166-4.127-.8003-2.5674-1.7969-5.7617-1.9082-7.2109-.0391-.5039-.0703-1.0078-.1011-1.5068-.1245-2.0098-.2422-3.9072-.835-5.4697-.1367-.3574-.3218-.5107-.5469-.4756-.9365.1729-1.7798,5.3672-1.7798,6.5049,0,2.0244-.2363,6.3594-.7827,7.2061-.4214.6523.3413,3.1162,1.5527,6.8018.5054,1.5361.9824,2.9883,1.1958,3.9209.3516,1.5459.2153,3.4785.0835,5.3477-.0947,1.3428-.1846,2.6113-.0874,3.666.2163,2.3623-.1445,3.8594-2.6641,5.0029-2.4629,1.1133-4.6294-2.248-6.2456-5.3018-1.1992-2.2656-1.3667-4.5361-1.561-7.165-.083-1.1221-.1689-2.2822-.3398-3.54-.231-1.6895-.2456-4.5205-.2598-7.2588-.0298-5.7646-.1304-8.291-.9678-8.291-.1777,0-.3442.085-.4937.251-1.0522,1.168-1.3096,6.6475-1.1538,8.1299.104.9902-.2568,4.2334-.6055,7.3691-.2827,2.5391-.5493,4.9375-.5493,5.9795,0,1.3975-.5928,3.9561-1.0693,6.0117-.3135,1.3525-.584,2.5205-.6592,3.1982-.0586.5273-.312.9609-.7534,1.2871-.8867.6572-2.4932.8271-4.4102.4697-2.8613-.5352-1.4883-8.5469-1.4717-8.6465.0195-.2764.4722-6.7842-.0034-9.0908-.3613-1.7598.3784-5.0059.9727-7.6152.1733-.7617.3379-1.4814.4653-2.1182.5532-2.7715-.0879-4.2041-2.0781-4.6445-.436-.0986-.8252.0078-1.123.3027-.9136.9004-.8784,3.4658-.4385,5.6094.563,2.7451.5776,8.082.0293,10.7734-.481,2.3633-.4932,5.9814-.0317,9.6787.0962.7695-.0508,1.3125-.4482,1.6592-.9995.874-3.4883.3418-5.2739-.1357-1.9316-.5146-2.4141-1.9404-2.8018-3.0859-.1748-.5166-.3257-.9629-.5815-1.2744-.6914-.8428-.5503-11.1562-.3218-13.9043.0767-.9209.0044-2.9844-.0791-5.374-.1191-3.4229-.2681-7.6836.0718-8.8184.5933-1.9824.3804-6.8779.0059-9.5049-.4014-2.8154-6.1099-3.0391-6.3525-3.0469l-.0127.377c.0562.002,5.6343.2197,5.9912,2.7227.3696,2.5938.584,7.4131.0059,9.3428-.3574,1.1953-.2139,5.3105-.0869,8.9414.0137.4033.0278.8018.041,1.1904-.4771.1797-1.9312.6963-2.8481.6963-1.0786,0-3.875-1.8906-4.043-2.7334-.041-.2061-.1089-.6416-.1997-1.2266-.3408-2.1963-.9756-6.2852-1.7534-8.416-.9551-2.6172-.9463-6.1924.0229-9.1074.6553-1.9648.3555-4.8252.1362-6.9131-.1011-.9639-.1885-1.7959-.1289-2.1543.0527-.3135.1924-.9619.3691-1.7822.4663-2.1641,1.1709-5.4355,1.1709-6.71,0-2.5166.313-7.2295,1.4849-8.9326,1.1372-1.6514,1.3491-4.6172,1.5034-6.7832.0298-.4131.0566-.7949.0879-1.1289.1631-1.7432,2.6055-6.9844,3.2456-8.333.1831.3008.3745.6016.5645.8984.9463,1.4824,1.8398,2.8828,1.4043,3.8457l.3447.1562c.5195-1.1504-.4277-2.6348-1.4302-4.2051-.5723-.8965-1.1636-1.8232-1.4463-2.6611-.7754-2.2871-.7354-3.6836.1938-6.7871.7651-2.5566-.729-3.0918-2.0474-3.5645-.4531-.1621-.9219-.3301-1.3013-.5713-.3984-.2539-.5986-.5146-.5957-.7744.0039-.376.4165-.6895.5503-.7803h7.8257c.3272,0,.6835-.0177,1.0494-.0432-.0492-.0632-.1399-.1882-.2501-.3616-.2772.0156-.5469.0259-.7993.0259h-4.8068c.0012.0035.0051.0143.006.0166l-.7119.2539c-.0025-.0068-.0382-.1058-.0989-.2705h-2.3225l-.0454.0273c-.0312.0186-.7661.4688-.7744,1.126-.0054.4004.2539.7705.7705,1.0986.415.2646.9038.4395,1.377.6094,1.3281.4756,2.4751.8857,1.8125,3.0996-.9565,3.1953-.9956,4.6387-.1899,7.0166.1592.4707.4053.96.6895,1.4531-.4053.8438-3.207,6.7324-3.3896,8.6895-.0317.3369-.0591.7207-.0889,1.1377-.1514,2.1221-.3589,5.0283-1.438,6.5947-1.5078,2.1914-1.5513,8.4424-1.5513,9.1475,0,1.2334-.6997,4.4814-1.1626,6.6309-.1777.8252-.3179,1.4766-.3726,1.7988-.0679.4092.0176,1.2246.126,2.2559.2153,2.0547.5107,4.8672-.1187,6.7549-.9946,2.9912-1.0024,6.6631-.02,9.3555.7656,2.0967,1.3965,6.1611,1.7354,8.3457.0923.5918.1606,1.0332.2021,1.2422.2197,1.0996,3.2344,3.0381,4.4141,3.0381.9199,0,2.2749-.46,2.8608-.6758.0527,1.6416.083,3.0547.0259,3.7393-.1382,1.666-.4873,13.0859.4067,14.1758.2119.2578.3525.6738.5156,1.1553.3945,1.166.9351,2.7627,3.062,3.3301,2.0269.54,4.4966,1.0381,5.6201.0557.4927-.4297.686-1.0996.5747-1.9912-.4565-3.6592-.4463-7.2314.0269-9.5557.5562-2.7305.542-8.1416-.0293-10.9258-.4961-2.417-.3589-4.582.334-5.2646.208-.2051.4629-.2705.7759-.2021,1.3071.2891,2.4282.999,1.7886,4.2012-.1265.6338-.29,1.3506-.4629,2.1084-.6338,2.7822-1.3521,5.9355-.9741,7.7754.4648,2.2559.0015,8.9209-.001,8.9688-.0606.3447-1.4492,8.46,1.7769,9.0635.6914.1299,1.3394.1943,1.9331.1943,1.1646,0,2.1182-.2471,2.7715-.7305.522-.3867.8345-.9229.9043-1.5508.0723-.6553.3408-1.8125.6514-3.1533.5059-2.1836,1.0791-4.6572,1.0791-6.0977,0-1.0205.2656-3.4092.5469-5.9375.3511-3.1562.7144-6.4199.606-7.4502-.1758-1.6709.1743-6.8555,1.0586-7.8379.0752-.083.1465-.125.2129-.125.5488,0,.5742,4.9541.5898,7.9141.0142,2.75.0288,5.5938.2627,7.3076.1699,1.2461.2554,2.4004.3379,3.5176.1973,2.6709.3677,4.9775,1.604,7.3145,1.6934,3.2002,3.9922,6.7197,6.7358,5.4678,2.7114-1.2295,3.1108-2.9043,2.8838-5.3818-.0938-1.0234-.0054-2.2773.0884-3.6045.1338-1.8965.2725-3.8574-.0923-5.458-.2168-.9502-.6968-2.4102-1.2051-3.9551-.8223-2.5029-1.9487-5.9297-1.5942-6.4785.6934-1.0732.8433-6.2002.8433-7.4111,0-1.6172.9805-5.998,1.4556-6.1348.0005.001.0601.0303.1396.2402.5728,1.5078.6885,3.3779.811,5.3584.0312.501.0625,1.0068.1016,1.5127.1147,1.4912,1.0762,4.5742,1.9243,7.2939.5767,1.8486,1.0747,3.4453,1.1519,4.0615.1758,1.4092,1.8315,4.79,2.9512,5.3291.2891.1377.498.0771.6216.001,1.0845-.6621,3.7285-3.2324,2.9502-7.1221-.8423-4.2188-.9561-6.2363-.9561-7.6543,0-.4482.0679-1.2129.147-2.0996.2236-2.5195.5625-6.3291-.1577-8.3486-.3237-.9053-.9541-2.4053-1.6841-4.1426-1.4263-3.3936-3.3799-8.042-4.2725-11.2305-.498-1.7793-.6372-3.5498-.7847-5.4248-.2422-3.0791-.4927-6.2627-2.4663-9.4336-.7524-1.209-1.4902-2.3652-2.1841-3.4521-2.1792-3.4141-3.9004-6.1113-4.2627-7.585-.4333-1.7619-2.6833-7.2507-3.25-8.621l-.1367.0507c-.0764.0284-.1497.04-.225.0628Z"/><path class="cls-2" d="m83.6574,92.027c.3252.4883.3662,4.2148-.0298,6.7891-.3745,2.4424-3.0171,7.584-3.0439,7.6357l.3359.1738c.1099-.2139,2.6978-5.249,3.082-7.7529.3662-2.3818.4194-6.3818-.0298-7.0547-.2588-.3896-.5542-3.9238-.6797-6.0605l-.377.0215c.0547.9404.3496,5.6582.7422,6.248Z"/><path class="cls-2" d="m77.2487,90.4801c.5024-.8389,3.0229-4.7441,4.5918-6.5088,1.5752-1.7715,1.2227-6.4814,1.207-6.6807l-.377.0293c.0039.0479.356,4.749-1.1123,6.3994-1.5864,1.7852-4.1274,5.7217-4.6338,6.5674l.3242.1934Z"/><path class="cls-2" d="m76.7141,69.6491c.2744.1045.5674.2158.8828.333,2.1046.7816,4.3001,3.6952,4.964,4.6301-.0292-.1854-.028-.3978.0064-.639-.9082-1.2227-2.8752-3.6161-4.8386-4.3446-.3149-.1172-.6069-.2285-.8804-.333-.4451-.1692-.8405-.3181-1.2109-.446-.1562.132-.2618.2208-.2857.2409l-.3774-.4511c-.3481-.0972-.6766-.1607-1.0019-.1906-.0759.1158-.1635.2413-.2484.3644.8525.029,1.712.3496,2.9901.8359Z"/><path class="cls-2" d="m88.6389,83.9176c.0033.0079.0475.1144.1173.2835.0753-.0228.1486-.0344.225-.0628l.1367-.0507c-.0687-.1662-.1176-.2839-.1304-.3145l-.3486.1445Z"/><path class="cls-2" d="m61.5212,69.6325c-.0009-.0023-.0048-.0131-.006-.0166h-.8048c.0607.1647.0964.2637.0989.2705l.7119-.2539Z"/><path class="cls-2" d="m67.4809,69.9438l.5106-.4248c-.2974.0305-.5889.0551-.8702.071.1102.1735.2009.2984.2501.3616.0364-.0025.0728-.0051.1094-.0078Z"/><path class="cls-2" d="m82.5609,74.6122c.1258.1772.2027.2912.2069.2976l.3154-.209c-.0276-.0418-.2128-.3196-.5159-.7277-.0344.2412-.0356.4536-.0064.639Z"/><path class="cls-2" d="m75.6375,68.8496c-.23-.0793-.4518-.1512-.6631-.2102l.3774.4511c.0239-.0201.1295-.1089.2857-.2409Z"/><path class="cls-2" d="m73.0376,68.4758c-.0267.0383-.0429.0676-.0706.1068l.3375.2382c.1406-.0118.2804-.0123.4195-.0076.085-.1231.1725-.2486.2484-.3644-.308-.0282-.617-.0184-.9349.027Z"/></svg>