<?xml version="1.0" encoding="UTF-8"?><svg id="Layer_1" xmlns="http://www.w3.org/2000/svg" viewBox="0 0 200 200"><defs><style>.cls-1{opacity:.55;}.cls-1,.cls-2{fill:#f60;}.cls-1,.cls-2,.cls-3,.cls-4{stroke-width:0px;}.cls-3{fill:#231f20;}.cls-4{fill:#959091;}</style></defs><path class="cls-2" d="m128.4768,73.5516c.0228.0073.0464.022.0693.03.0006.0002.0011.0004.0017.0006-.0235-.0082-.0475-.0231-.071-.0306Z"/><path class="cls-2" d="m98.0154,41.4693c.0025.0013.005.0026.0075.0039.1493.0771.2952.1439.4443.2186-.1516-.0761-.3-.144-.4518-.2225Z"/><path class="cls-2" d="m150.2123,57.8388c.1541.0464.3383.077.5347.1028.0052.0007.0104.0014.0157.002-.2035-.0249-.3922-.0579-.551-.1059-.0793-.0235-.1882-.0705-.2849-.1077.0954.0372.2028.0839.2813.1073.0012.0004.0029.0011.0041.0015Z"/><path class="cls-2" d="m156.914,62.1563c.0014-.0038.0021-.0084.0035-.0122-.0042.0114-.0071.024-.0114.0353-.0496.1299-.1118.2583-.1752.3898.0635-.1312.1257-.2587.1754-.3888.0029-.0077.0048-.0164.0077-.0242Z"/><path class="cls-2" d="m118.0693,109.635c-.0889-.0493-.1756-.1207-.2626-.1846-.3116.0695-1.1909.2494-2.1254.2509-.5747-.0018-1.1727-.0609-1.7062-.3241-.3796-.1915-.7574-.4869-1.1638-.8611-.4064-.3724-.8307-.8218-1.2604-1.3177-.5007-.5792-.9999-1.2193-1.4691-1.8635-.4642,1.79-1.498,5.7108-2.3323,8.41-.3742,1.2032-.6983,2.1486-.9454,2.6105-.4082.7592-1.2175,1.8585-2.0232,2.8987-.8039,1.0367-1.6006,2.0053-1.9659,2.4601-.1021.1271-.1755.222-.1844.2363-.0483.0716-.111.1396-.2095.2488-.0967.1039-.222.2363-.3688.3867-.2954.3044-.6768.6893-1.0797,1.0958-.4908.493-1.002,1.0059-1.4344,1.4455l.0079.1485c-.0535.0029-.11.0071-.1636.01-.2123.2169-.4058.4163-.5441.5642-.154.1629-.3617.29-.6213.4225-.2614.1307-.5729.256-.9221.3831-.6982.2507-1.5505.4942-2.4153.7216-1.726.453-3.5217.8415-4.1913,1.0385-.4816.1307-1.1011.7484-1.5899,1.4127-.2687.3588-.5014.7214-.6862,1.0274,2.45-.0928,5.0278-.2275,7.6926-.4092,9.5304-.6481,17.9347-1.726,22.9891-2.8378.0801-.0176.1483-.0353.2267-.053.3581-.6038,1.0941-1.7626,2.2064-3.1461l.009-.0595c.0118.0018.0213.0039.0331.0057.2534-.3137.523-.6363.8145-.9677,2.1682-2.46,3.6113-4.7052,3.7939-6.7714.0645-.718.0859-1.264.0859-1.6705,0-.2507-.0092-.4316-.0203-.5834-1.1044-.2979-2.3108-.7974-3.5574-1.5992-1.2739-.819-2.2302-1.8391-2.9633-2.9056-.1561.0312-.3282.0553-.5254.0563-.3401.0018-.7358-.0698-1.128-.2793Zm-5.7488,15.6724c-.0859.41-.1271.6625-.1271.6625l-.5622-.0931c.0018-.0054.1737-1.0456.521-2.3168.351-1.2712.8648-2.768,1.6042-3.7241,1.2426-1.5845,2.3472-4.4832,2.3383-6.3865,0-.1504-.0054-.2954-.0197-.4315l.5676-.0573c.0143.1575.0233.3205.0233.4888-.0089,2.102-1.1315,5.0186-2.46,6.7356-.4834.6195-.9006,1.597-1.2175,2.5674-.3187.9722-.5425,1.939-.6678,2.5549Zm9.0276-4.1451c1.3339-.9042,2.9775-3.2013,3.6793-4.6659.2364-.4816.3617-.8934.3563-1.042h.5693c-.0054.3474-.1647.7645-.4136,1.2891-.2507.5192-.5998,1.119-1.008,1.7296-.82,1.2192-1.8656,2.4744-2.8611,3.1583-1.6025,1.0958-5.8064,4.3436-7.1116,5.4608-.1844.1558-.3151.2793-.3456.3151l-.0035.0035-.4566-.3419.1469-.154c.0609-.0555.136-.1235.2274-.2023.1808-.1575.4243-.3581.7108-.5927.5765-.4673,1.3321-1.0653,2.1378-1.692,1.6132-1.2533,3.4197-2.614,4.3722-3.2657Z"/><path class="cls-2" d="m127.9741,74.0333c.087.0035.1889.0243.2997.0582-.0006-.0002-.0012-.0004-.0017-.0005-.1079-.0333-.2078-.0535-.2948-.0573-.001,0-.0022-.0003-.0032-.0004Z"/><path class="cls-2" d="m115.0261,37.7891c-.3086-.0655-.6135-.1287-.9427-.2067.0179.0042.0358.0085.054.0128.3096.0728.5978.1326.8888.1939Z"/><path class="cls-2" d="m157.0861,61.1566c0-.3778-.0573-.8594-.2005-1.4968-.0555-.2381-.1612-.41-.317-.555-.1558-.1432-.3706-.2578-.6374-.3438-.5317-.1736-1.2622-.2202-2.0393-.2184-.6534,0-1.341.0304-1.9891.0304-.0062,0-.0116-.0007-.0178-.0007l5.1664,2.978c.0156-.1235.0341-.2413.0347-.3937Z"/><path class="cls-2" d="m109.9408,37.0394c.0333.0103.0682.0208.1017.0311-.0162-.005-.033-.0101-.0493-.0151-.0172-.0053-.0353-.0107-.0525-.0161Z"/><path class="cls-2" d="m95.0991,38.5047c-.222-.3115-.2936-.6696-.2936-1.0223.0036-.6517.2399-1.3446.6338-1.9766.3957-.6266.9579-1.1978,1.692-1.495.2739-.1093.5604-.1469.8505-.1469.5156.0018,1.0582.1182,1.6204.2865.5622.1683,1.144.3903,1.7098.6195,1.1208.4601,2.2094.9543,2.8056,1.0993.2578.0645.8486.1736,1.6024.299.7556.1253,1.6866.2703,2.6695.4189.0985.0143.1988.0286.299.0447.0366.0127.0812.0269.1189.0398-.0112-.0038-.0206-.0073-.0317-.0111-.0275-.0095-.0605-.0199-.0874-.0292.0022.0003.0045.0007.0067.001-.2495-.0865-.4786-.1689-.6683-.2427-1.7385-.6804-7.1688-2.272-9.1669-2.5585-.7645-.111-1.3303-.2166-1.8209-.2166-.419.0018-.786.0698-1.2336.2811-.4458.2112-.9668.5729-1.6436,1.1566-.5854.5049-1.0187.9561-1.298,1.3518-.2811.3975-.4011.7287-.4011,1.0116.0018.2381.0752.4583.2453.6982.1719.2382.4458.4888.8325.7448.6198.4142,1.5333.9789,2.5526,1.5638-.3771-.5171-.57-.9753-.7092-1.3215-.111-.2793-.1934-.4709-.2847-.5962Z"/><path class="cls-2" d="m97.1489,41.0051c.1678.0913.3281.1837.498.2734.0023.0012.0045.0023.0068.0035-.1722-.0911-.3347-.1844-.5048-.2769Z"/><path class="cls-2" d="m114.675,38.3016c-.0109-.0023-.022-.0049-.0328-.0073-.0356-.0078-.0716-.0157-.1075-.0237.0468.0104.0939.0209.1403.0311Z"/><path class="cls-2" d="m113.6632,38.0687c-.0121-.0029-.024-.0056-.0361-.0085.082.02.1616.0381.243.0575-.0306-.0073-.0609-.0143-.0916-.0217-.0388-.0093-.0764-.0178-.1153-.0273Z"/><path class="cls-2" d="m147.9536,81.3834c-.1605-.1036-.3826-.2486-.6633-.4276-.5944-.3814-1.4341-.9167-2.4099-1.5255-1.9515-1.2193-4.4528-2.7411-6.6371-3.9425-1.4539-.8021-2.7751-1.4628-3.6597-1.7886-.9077-.3331-1.7797-.4566-2.5836-.4566h-.0143c-1.1996,0-2.2416.2847-2.9524.5497-.0135-.0071-.0266-.0104-.04-.0173.007.0036.0137.0062.0206.0098.0069.0037.0136.0052.0205.0089-.0004.0001-.0006.0002-.001.0004.1331.0711.2669.1497.4019.2355.512.3294,1.0331.7591,1.5021,1.187.5991.5454,1.1129,1.0855,1.4094,1.4087.4161-.0497.8229-.0809,1.2117-.0809,2.8611-.0018,4.9452,1.2407,6.2522,1.9659.4798.2668,1.572.9561,3.0079,1.8781.9238.5947,1.9888,1.2865,3.0967,2.0089.2707-.0795.6281-.2026,1.0189-.3894.3349-.1583.6841-.3727,1.0193-.6245Z"/><path class="cls-2" d="m112.7494,37.8383c.0519.0136.1037.0275.1559.0409-.013-.0034-.0261-.0069-.0391-.0103-.0391-.0101-.0779-.0204-.1168-.0306Z"/><path class="cls-1" d="m127.63,73.4936c.0066-.0014.0156-.0036.0221-.0049-.0197.0039-.0386.0075-.06.0118l-.1396-.2291c.0501-.0251,1.9193-1.1638,4.5494-1.1692.9203,0,1.9301.1432,2.9739.5282.9973.3688,2.3365,1.0438,3.8171,1.8585,1.4789.8146,3.0867,1.7654,4.5781,2.6713,2.7099,1.6491,5.0229,3.149,5.4225,3.4092.144-.1857.2806-.3801.3896-.5989.7806-1.5594.598-2.8951.8397-4.0016.0842-.3688.2256-.7198.4906-1.0134.4351-.4816,1.2963-1.5415,2.1144-2.7877.8218-1.2479,1.5989-2.6928,1.88-3.9193.6016-2.6122,1.6149-4.3382,1.9981-5.2012.0632-.142.1257-.2671.1861-.3901l-.0005-.0003s-.0002.0004-.0003.0007l-7.4267-4.2791.1396-.2417c.0266.0118.046.0164.072.0276-.0031-.0013-.0065-.0029-.0095-.0043-.0226-.0099-.0393-.0137-.0623-.024l.0018-.0031c-.4431-.1958-.957-.4611-1.5373-.7863-.8845-.4977-1.8925-1.1154-2.9041-1.7546-2.0214-1.2784-4.0554-2.6427-5.0866-3.2801-1.0778-.6696-3.3177-2.5191-5.6237-4.3776-2.2953-1.8531-4.6605-3.7134-5.8458-4.3275-1.8495-.9615-6.2145-3.153-9.1741-4.2612-.9829-.3706-1.8191-.6177-2.3079-.6589-.4244-.0393-.9426-.121-1.5154-.2321l-.0394.281c-.0018,0-5.561-.7609-9.0219-1.3106-1.1584-.1844-2.0644-.3401-2.5102-.4512-.598-.1522-1.3356-.4691-2.1431-.8093-.8021-.3384-1.6633-.6982-2.4207-.9239-.4977-.1486-.9543-.2381-1.2874-.2381-.0018,0-.0054,0-.0071.0018q-.0018-.0018-.0036-.0018c-.1862,0-.3294.0286-.4225.0662-.4351.1701-.8558.5676-1.1512,1.0438-.3008.4691-.4637,1.0152-.4601,1.3697-.0018.1934.0465.3151.0787.3563.2041.2864.308.5693.4172.8361.1093.2686.2202.5335.4136.8415.3868.6105,1.1208,1.4162,2.8593,2.4725l-.1467.2404c.8046.367,1.569.6723,2.2118.8512,1.8602.5211,5.0901,1.4288,7.0274,2.2846.6481.2883,1.1512.5568,1.4503.8612.2578.265.4995.5407.6857.82.1826.2793.3205.5676.3223.8827.0071.29-.1504.5854-.4261.7699-.2739.188-.6517.3079-1.1727.3849-1.341.1898-2.0428.4351-3.2389.4351-.6213,0-1.3661-.0662-2.3956-.2382-2.9506-.4924-8.5941-.9883-11.285-1.3857-1.3392-.1988-2.0876-.3527-2.965-.6696-.8737-.3187-1.8656-.7896-3.7455-1.6293-1.6544-.7412-3.264-1.5344-4.6999-2.1414-1.4341-.6052-2.7017-1.0151-3.6184-1.0134-.2596,0-.4906.0322-.6893.0949-.7216.2274-1.3768.3688-1.8997.5192-.5246.1486-.8988.3169-1.0796.5264-.12.1396-.1862.2972-.1898.5658,0,.3527-.0447.7377-.0447,1.1459.0018.5962.0895,1.2228.521,1.8423.4315.6194,1.2264,1.2533,2.7053,1.794l-.038.1032c.5026.1188,1.0103.2476,1.5068.3875,1.5057.4279,2.8414.897,3.3016,1.1011.2005.0895.7054.2722,1.3804.5013.6786.2327,1.5344.5174,2.469.8254,1.8692.6194,4.0482,1.3374,5.7366,1.9337,2.5012.8826,5.015,1.3822,6.1107,1.5756.3652.0645.5711.0949.5711.0949l-.0823.564c-.0107-.0018-3.3893-.4977-6.7893-1.6973-2.5191-.8898-6.1572-2.059-8.2001-2.7573-.6821-.2327-1.1817-.41-1.4269-.5192-.4029-.179-1.7475-.6553-3.2264-1.0742-1.4789-.4208-3.1207-.7896-4.0965-.7878l-.1736.0054c-.6517.0304-1.3321.3204-1.9211.7376-.5908.4154-1.0886.9579-1.3804,1.4556-.1969.3294-.2954.641-.2936.8522l.0036.0591c.0447.5103.2883,1.3446,1.1119,2.1145.7727.7256,2.0857,1.4031,4.2596,1.6846.0264-.051.0479-.1041.0764-.1541.3276-.5729.7932-1.0797,1.3786-1.3517.2757-.1271.5819-.1773.9006-.1773.7394.0018,1.563.2686,2.3383.6195.7753.351,1.495.7932,2.0035,1.1745.2614.197.8558.5282,1.5988.906.7466.3795,1.6526.8164,2.5746,1.2551,1.8442.8809,3.7455,1.7672,4.614,2.2774.5729.3402,1.5809.6302,2.5961.8397,1.017.2131,2.05.3545,2.7108.4315.4404.0519.7144.077.7144.077l-.0501.5676c-.0054,0-1.1244-.1003-2.4619-.3241-1.3392-.2291-2.8808-.5676-3.7975-1.1011-.6105-.3599-1.8423-.9543-3.1942-1.5989-1.3535-.6445-2.8325-1.3392-3.964-1.9157-.7573-.3868-1.3517-.7126-1.683-.9597-.4709-.3527-1.1656-.7788-1.8961-1.1118s-1.504-.5694-2.1038-.5676c-.2596,0-.4834.043-.6625.1253-.4386.2006-.8397.6195-1.1226,1.1172-.0798.1398-.1472.2857-.2069.4332l-.0058.0595c-.0051-.0005-.0095-.0014-.0146-.0019-.1377.3576-.2184.7227-.2184,1.04,0,.2399.043.4494.1199.6069.009.0269.1235.1755.3008.3455.1791.1773.4243.3975.718.6464.5855.4995,1.3679,1.119,2.2202,1.7761,1.7045,1.3124,3.6954,2.7698,5.015,3.7259.5866.4244,1.019.7352,1.2563.9051.2283-.5237.5885-.9956,1.1269-1.3312.4351-.2722.8469-.3939,1.2264-.3939.6284.0018,1.1208.3187,1.5308.6409.41.3259.7663.6678,1.0778.8075.6786.3151,1.9104,1.0814,3.2407,1.9373,1.3285.8558,2.7394,1.7975,3.7277,2.4403.8272.5372,1.7368.6911,2.4977.6911.8182,0,1.4556-.179,1.5899-.2184l.025-.009.1808.5407c-.0197.0054-.7681.2542-1.7958.256-.8344,0-1.8603-.1665-2.8074-.7824-.9937-.6464-2.4045-1.5864-3.7258-2.4386-1.3196-.8522-2.5621-1.6203-3.1708-1.8996-.4476-.2113-.8093-.5801-1.1924-.8773-.3832-.3008-.7556-.5192-1.1781-.5192-.2596.0018-.5568.0788-.9257.3079-.7949.4977-1.1494,1.35-1.153,2.247-.0018.8236.3133,1.6597.8344,2.1915.5783.5927,1.8961,1.6257,3.2048,2.58s2.623,1.8477,3.1977,2.1825c1.1584.6786,4.7124,2.4207,8.1017,2.7215,2.1342.1915,6.0284.5532,9.5018.5532,2.1628.0018,4.1682-.145,5.4429-.5425,1.7349-.5372,4.2361-1.3016,6.4903-1.9695,2.1758-.6436,4.0992-1.1904,4.9258-1.3688l-.0002-.0003c.0138-.0035.0255-.0054.0386-.0083Zm-12.956-4.7145c-.9973.0841-2.3007.111-3.5809.111-2.3956,0-4.7052-.0948-4.707-.0948l.0233-.5693c.0018,0,.5747.0233,1.4484.0483.8737.0233,2.0447.0465,3.2353.0465,1.2712,0,2.5657-.0269,3.5325-.1092,2.7913-.2363,4.7786-.8111,5.8708-1.4324l.2793.496c-1.2103.684-3.2532,1.2587-6.1017,1.504Zm10.1472-11.0618c-.9095.1522-1.948.3062-3.0688.308-1.0474,0-2.1646-.136-3.3087-.5371-4.0392-1.418-8.56-5.1923-8.5743-5.1994l.3652-.4387s.0681.0573.197.1629c.1307.1039.3205.2543.5622.4405.4834.3724,1.1691.8826,1.9766,1.4359,1.6132,1.1083,3.7223,2.3848,5.6613,3.0616,1.0725.3742,2.1235.5031,3.1207.5031,1.0689,0,2.0733-.1468,2.9739-.2972.9006-.1504,1.6902-.3062,2.3527-.308.2703,0,.5228.0269.7537.0985.2131.068.5085.1021.8487.1002,1.3285.0036,3.28-.4995,4.1573-.752.2936-.0842.4673-.1396.4691-.1396l.1719.5425c-.0143.0018-2.8647.9149-4.7983.9185-.376,0-.7197-.0322-1.0187-.1254-.154-.0483-.351-.0734-.5837-.0734-.5712,0-1.3518.1468-2.2578.299Z"/><path class="cls-2" d="m148.6386,80.7564c.0396-.0451.0823-.0863.1201-.1335.0008-.0009.0012-.0021.002-.0031-.04.0501-.085.0939-.127.1416.0016-.0018.0034-.0032.0049-.005Z"/><path class="cls-2" d="m114.0078,37.5645c-.4772-.1138-.9684-.2384-1.4569-.3683.0229.0061.0454.0125.0683.0185.4422.1172.8851.2294,1.318.3331.0236.0057.047.0111.0706.0167Z"/><polygon class="cls-3" points="36.4498 139.4619 36.3495 139.2787 36.3495 164.0293 37.2404 165.7267 37.4882 165.6962 37.4882 139.3563 36.4498 139.4619"/><polygon class="cls-3" points="123.8279 126.1762 123.9795 126.0691 123.7992 126.0813 123.8279 126.1762"/><polygon class="cls-3" points="123.7992 126.0813 123.9801 126.0687 123.9795 126.0691 124.0374 126.0652 123.9837 126.0652 123.7992 126.0652 123.7992 126.0813"/><polygon class="cls-3" points="123.7992 126.0813 123.9795 126.0691 123.9801 126.0687 123.7992 126.0813"/><polygon class="cls-3" points="123.8619 126.0097 123.8153 125.9846 123.8136 125.9882 123.8619 126.0097"/><path class="cls-3" d="m99.5461,125.2756l-.0079-.1485c-.0527.0536-.1059.1077-.1557.1585.0536-.0029.1101-.0071.1636-.01Z"/><path class="cls-3" d="m121.5362,124.3499l-.009.0595c.0148-.0184.0271-.0353.0421-.0538-.0118-.0018-.0212-.0039-.0331-.0057Z"/><path class="cls-3" d="m95.6914,124.3696c-7.8314.5317-14.9017,1.3518-20.0331,2.2524-2.5674.4494-4.6462.9185-6.1161,1.3929-.7358.2381-1.3177.4727-1.7564.7323-.2184.1307-.4047.2686-.5604.4422-.1522.1701-.2882.4064-.29.6983l.0036.0645v-.0036c.0107.1844.0842.3563.1772.487.1808.2471.41.3903.6768.521.4691.222,1.0868.3885,1.8782.5353,2.3652.4351,6.2791.6553,11.1991.6553,4.4402,0,9.6934-.1826,15.3117-.564,7.8331-.5335,14.9035-1.3517,20.0349-2.2523,2.5675-.4512,4.6462-.9185,6.1143-1.393.7358-.2381,1.3177-.4727,1.7564-.7322.2202-.1325.4064-.2686.5622-.4423.1522-.1701.2883-.4064.2883-.6982l-.0018-.0609c-.0107-.1611-.0662-.3151-.145-.4368-.1378-.2167-.3204-.3527-.521-.4727-.3044-.1737-.6732-.3062-1.1262-.4279-.2763-.0729-.5927-.1383-.9288-.2005-.2929.3547-.5581.6931-.8029,1.0175.8733.1328,1.5516.2907,1.9717.4525.1465.0554.2462.1074.3214.1528.0303-.0241.0616-.0488.0779-.0669l.0322-.0376.0466.025-.0483-.0215.1701.077h.0537l-.0579.0039-.1516.1071-.0018-.0035-.0286-.0251c-.0173-.0151-.0581-.0378-.0922-.0584-.137.109-.4067.2689-.7922.4272-.6508.2725-1.6138.5638-2.8122.8566-.2443.3877-.414.6794-.4886.8133l-.0483.0895-.5031-.2668c.002-.0034.0939-.1734.2601-.4536-.0784.0177-.1467.0354-.2267.053-5.0544,1.1119-13.4587,2.1897-22.9891,2.8378-2.6648.1816-5.2426.3164-7.6926.4092-.1563.2589-.2797.4789-.3469.6036-.0412.0788-.0627.12-.0627.12l-.5085-.2578c.0029-.004.0948-.1817.2422-.441-2.4427.0854-4.7508.1282-6.8663.1282-3.9676,0-7.2762-.1486-9.5734-.4261-1.1459-.1378-2.0429-.3115-2.614-.4995-.242-.0776-.407-.1566-.5131-.2204-.0311.0246-.0629.0495-.0796.0682l-.0305.0376-.0466-.0251.0484.0215-.1701-.077h-.077l.045-.0034.2003-.0844-.0949.0394.0806-.0626.0107.0107.0484.0394c.014.0099.0465.0244.0652.0356.1384-.1094.4078-.2681.7924-.426.8254-.3455,2.1378-.7233,3.819-1.0922,5.0526-1.1118,13.4586-2.1915,22.989-2.8378.9395-.0644,1.8551-.1166,2.7713-.1695.2462-.2598.5799-.6007.9555-.9803l-.0117-.2181c-1.2408.0662-2.5084.1432-3.7939.231Z"/><polygon class="cls-3" points="68.0744 129.8717 67.8556 129.8859 67.8594 129.8844 67.8144 129.8878 67.8914 129.8878 68.0758 129.8878 68.0744 129.8717"/><polygon class="cls-3" points="68.0744 129.8717 68.0758 129.8716 68.0741 129.8681 68.0744 129.8717"/><polygon class="cls-3" points="67.8914 129.8878 68.0615 129.9647 68.0758 129.8878 67.8914 129.8878"/><polygon class="cls-3" points="68.0758 129.8716 68.0597 129.8 67.8594 129.8844 68.0741 129.8681 68.0758 129.8716"/><rect class="cls-3" x="67.8572" y="129.8756" width=".2172" height=".0039" transform="translate(-10.551 6.0929) rotate(-4.7636)"/><path class="cls-3" d="m123.8261,126.1726l.0018.0035-.0287-.0948v-.0161l.0143-.077.0018-.0035-.0322.0376c-.0162.0181-.0475.0428-.0779.0669.0341.0206.0749.0433.0922.0584l.0286.0251Z"/><polygon class="cls-3" points="67.9648 129.8394 68.0597 129.8 68.0454 129.7767 67.9648 129.8394"/><polygon class="cls-3" points="123.9837 126.0652 123.8136 125.9882 123.7992 126.0652 123.9837 126.0652"/><polygon class="cls-3" points="68.0131 129.9433 68.0597 129.9683 68.0615 129.9647 68.0131 129.9433"/><path class="cls-3" d="m68.0561,129.7875l-.0107-.0107.0143.0233.0161.0716h-.0015s.0015.0162.0015.0162l-.0143.077-.0018.0036.0305-.0376c.0167-.0187.0485-.0436.0796-.0682-.0187-.0113-.0513-.0257-.0652-.0356l-.0484-.0394Z"/><path class="cls-3" d="m26.4943,119.0503v2.227l9.8552,18.0014v-.422h1.1387v.4996l120.9747-12.2991v-.2919l-1.3243-.7202-120.0514,12.2065-10.2377-18.6974,80.3472-5.9573c.1147-.37.2327-.7596.3533-1.1692l-82.5499,6.1202.3538.6462v-.1438h1.1405Z"/><polygon class="cls-3" points="37.4882 139.3563 37.4882 138.8567 36.3495 138.8567 36.3495 139.2787 36.4498 139.4619 37.4882 139.3563"/><path class="cls-3" d="m157.1386,126.045l1.8372-.1868.1146,1.1351-.6274.0638v23.775l-120.9747,14.8641v.6435h-1.1387v-2.3104l-9.8552-18.7761v-23.9759l-1.1405-2.0832v26.3401l11.2439,21.4189,123.004-15.113v-25.7535l-26.6835-14.5109c-.077.4121-.2197.7751-.3862,1.0876l24.6067,13.3815Z"/><polygon class="cls-3" points="36.3495 164.0293 36.3495 166.3397 37.4882 166.3397 37.4882 165.6962 37.2404 165.7267 36.3495 164.0293"/><polygon class="cls-3" points="158.4629 127.0571 159.0903 126.9934 158.9757 125.8582 157.1386 126.045 158.4629 126.7652 158.4629 127.0571"/><polygon class="cls-3" points="26.4943 119.0503 25.3538 119.0503 25.3538 119.1941 26.4943 121.2773 26.4943 119.0503"/><path class="cls-3" d="m110.3275,104.379s-.0915.3604-.2458.9557c.4691.6442.9684,1.2843,1.4691,1.8635.4297.4959.8541.9453,1.2604,1.3177.4064.3742.7842.6696,1.1638.8611.5335.2632,1.1315.3223,1.7062.3241.9346-.0015,1.8138-.1814,2.1254-.2509-.204-.15-.4088-.3248-.6397-.5495-.1306-.1285-.2686-.2738-.4068-.4208-.328.0457-.707.0832-1.0789.0824-.4798.0036-.9382-.0698-1.1978-.2041-.2148-.1057-.5425-.3474-.9006-.6804-1.0904-.999-2.5031-2.7949-3.4788-4.3167-.5837-.8934-.9257-2.3956-1.1029-3.9156-.1826-1.5219-.2184-3.0563-.2954-4.1036-.0036-.0609-.0054-.1254-.0054-.197-.0018-.4601.1021-1.1154.2775-1.8209.2632-1.0617.6804-2.2505,1.0939-3.2102.2059-.4781.41-.9024.5891-1.2193.0877-.1576.1701-.2883.2381-.3813l.0859-.111.0341-.0358c.043-.0358.2202-.1522.4619-.2936,1.7242-1.0187,7.0381-3.6918,10.2394-4.9702,1.9301-.7717,3.1315-1.7116,4.3364-2.58,1.2103-.8702,2.4278-1.6848,4.5387-2.358,1.085-.3455,2.0679-.4816,2.9631-.4816,2.5263,0,4.3723,1.085,5.699,1.8227.41.2291,1.5219.9257,2.9452,1.8423,4.2827,2.7537,11.5268,7.5448,12.8607,8.4347.5013.3312,1.3214.7502,2.3311,1.239,1.5093.7287,3.4197,1.5935,5.0991,2.3848.838.3957,1.6186.7717,2.2578,1.1029.6356.3277,1.1387.6195,1.3786.8004.3635.2703.7914.4207,1.2479.5156.4566.0931.9454.1271,1.4413.1271,1.9784-.0036,4.1054-.5425,4.1287-.5461l-.2758-1.1047-.0859.0215c-.2946.0698-1.3188.2939-2.4493.4133l.1677.1113-.6302.949-1.525-1.0122c-.1931-.0173-.3775-.0415-.5443-.0764-.351-.0698-.6266-.1844-.7914-.3097-.4691-.3474-1.2515-.7645-2.2398-1.2551-1.4771-.7305-3.3785-1.5953-5.0776-2.3884-.8505-.3957-1.649-.7734-2.3132-1.1047-.6625-.3312-1.196-.6213-1.4879-.8164-.8934-.5963-4.4098-2.922-7.9262-5.2263-.416-.2721-.8313-.5435-1.2428-.8121-.5665.2073-.9713.2821-.9832.2848l-.1021-.5604s.0358-.0071.111-.0233c.0752-.0179.1862-.0466.3223-.0859.0117-.0034.029-.0099.0411-.0135-1.108-.7224-2.1729-1.4141-3.0967-2.0089-1.436-.9221-2.5281-1.6113-3.0079-1.8781-1.307-.7252-3.3911-1.9677-6.2522-1.9659-.3889,0-.7957.0312-1.2117.0809.1688.184.2687.2993.27.3012l-.4297.3742c0-.0018-.0984-.1146-.2739-.3062-.0695-.0751-.1584-.1693-.2492-.2648-.4578.0849-.9266.1942-1.4141.3501-2.247.7126-3.6292,1.631-4.8593,2.5191-1.2336.8898-2.3096,1.7313-4.0929,2.4457-1.8853.7537-4.417,1.9462-6.5798,3.0276-1.0832.5407-2.0715,1.0546-2.8396,1.4717-.3849.2095-.7144.3939-.9775.5479-.2632.1576-.4494.2722-.5927.3849-.179.1486-.299.3134-.4369.521-.4601.7144-1.0151,1.9641-1.4807,3.3123-.4601,1.3517-.8254,2.7608-.8307,3.8351,0,.0949.0035.188.0107.2793.0734.9991.1092,2.5674.299,4.1573.1951,1.5917.521,3.2084,1.2748,4.3955.1589.2464.3292.4991.5049.7531.0799-.3107.1258-.491.1267-.491l.5515.1396Z"/><path class="cls-3" d="m117.6561,108.3154l.2775,1.1065c-.0046.0007-.0558.0126-.127.0284.087.064.1738.1354.2626.1846.3922.2095.7878.2811,1.128.2793.1972-.001.3693-.0251.5254-.0563-.2498-.3633-.476-.7302-.6752-1.0988-.1425-.0156-.2881-.0478-.4393-.1287-.1074-.0519-.4297-.3187-.7699-.6696-.521-.5282-1.1476-1.2587-1.6633-1.9032-.2578-.3241-.4888-.6266-.6661-.8702-.1754-.2399-.3043-.4422-.324-.4852-.0573-.1129-.2023-.4512-.3849-.8988-.5532-1.35-1.5004-3.7832-2.17-5.493-.1039-.265-.1486-.5192-.1486-.7734-.0054-.7394.4118-1.5291,1.0582-2.2363.6392-.7018,1.4843-1.3016,2.1932-1.6741.4763-.2506,1.2193-.7018,2.0894-1.2461,2.6015-1.6293,6.2772-4.0822,6.2808-4.084l-.632-.9471c-.0018,0-.4082.2704-1.0474.6947-.9597.6338-2.4421,1.6078-3.8476,2.5102-1.4037.8988-2.7465,1.7349-3.3749,2.0643-.8146.4315-1.7474,1.0868-2.5031,1.9158-.752.8254-1.35,1.8406-1.3553,3.0026,0,.3921.0717.7932.2274,1.1888.444,1.1387,1.0151,2.5997,1.5111,3.853.2471.6266.4763,1.1996.6642,1.658.188.4601.3276.7878.4208.9739.0609.1235.1396.2435.2452.3975.3635.53,1.0367,1.3911,1.7332,2.1915.2065.2385.4127.4647.6155.6803.4174-.0581.7501-.1296.8583-.1557l.0376-.009Z"/><path class="cls-3" d="m117.8067,109.4504c.0711-.0158.1223-.0278.127-.0284l-.2775-1.1065-.0376.009c-.1083.0261-.441.0976-.8583.1557.1382.147.2762.2923.4068.4208.2309.2247.4357.3995.6397.5495Z"/><polygon class="cls-3" points="130.793 113.2578 130.7644 113.2273 130.7625 113.2291 130.793 113.2578"/><path class="cls-3" d="m130.7625,113.2291l.0018-.0018s-.0032.0021-.0035.0024c-.006.0086-.0139.0175-.0198.0262l.0215-.0269Z"/><polygon class="cls-3" points="130.9058 113.3652 130.7625 113.2291 130.741 113.2559 130.9058 113.3652"/><path class="cls-3" d="m135.5304,103.6826l-.179-.3563v.4011c.0412,0,.1092-.009.179-.0447Z"/><path class="cls-3" d="m174.5528,111.3474c-.3402.1289-3.5755,1.3231-12.4721,3.4537-2.5872.6194-4.7285.8505-6.5153.8505-2.3455-.0018-4.0804-.3939-5.4376-.8397-1.3625-.444-2.3276-.9507-3.2138-1.1996-.111-.0233-.4494-.2148-.8433-.5353-.7019-.5622-1.6454-1.4986-2.6606-2.5746-1.5237-1.6132-3.2245-3.5468-4.6551-5.083-.7162-.7699-1.3643-1.4395-1.9014-1.9301-.2704-.2471-.5121-.4494-.7359-.6034-.1128-.077-.222-.1432-.3401-.197-.1182-.0519-.2471-.0984-.4261-.1021-.0984,0-.2184.0197-.3312.077-.0376.0215-.2184.0824-.4565.1343-.8469.1915-2.46.3724-3.8315.4977-.6875.0627-1.3213.1128-1.7797.1469-.4601.0358-.7448.0537-.7466.0537l-.1987.0125-3.1744,2.8862,1.1279.2113.0394.0071c.2148.043,1.2623.2686,2.3992.7358,1.1423.4637,2.3544,1.1853,2.9309,2.093.3885.6034.5085,1.0975.5103,1.5272,0,.5085-.179.9507-.41,1.3339-.1164.1916-.2435.3653-.3635.5211-.1127.1463-.2139.2719-.3061.4053.0003-.0004.0034-.0021.0035-.0024l.0286.0305-.0305-.0287.1432.1361-.1647-.1093c.0059-.0087.0138-.0176.0198-.0262-.014.0186-.2307.1424-.5569.2178-.3384.0842-.7968.145-1.3446.145-1.4127,0-3.4054-.4028-5.5575-1.7869-1.9534-1.2551-3.1028-3.0508-3.8046-4.741-.7018-1.6901-.94-3.2389-1.0886-4.0016-.145-.7323-.3133-1.7313-.3115-2.5585-.0018-.4064.043-.7717.1254-1.017.0394-.1235.0877-.2148.1343-.2757l.1324-.1164c.1701-.0823.41-.2184.7287-.4082,2.213-1.3124,8.0426-5.083,8.048-5.0866l-.6194-.9561c-.0018,0-.4763.3079-1.2068.7788-1.0975.7054-2.7698,1.7761-4.2665,2.7179-.7484.4708-1.4539.9113-2.0197,1.2551-.5621.3438-1.0044.5998-1.162.675-.2238.1074-.4082.2722-.546.4565-.2077.2793-.3223.598-.3922.931s-.0948.6857-.0967,1.0456c.0018.9722.1844,2.0178.3348,2.7787.1414.7233.3957,2.3938,1.1548,4.2183.171.4126.3727.835.6013,1.2577.05.0055.101.0164.1498.0164.3276.0018.6195-.1253.6553-.145l.5389,1.0045c-.0331.0153-.285.1461-.6688.223.733,1.0665,1.6893,2.0866,2.9633,2.9056,1.2466.8018,2.453,1.3013,3.5574,1.5992-.0203-.2786-.0492-.4205-.0549-.4426l.5443-.17c.0085.03.0654.2452.0888.7575.7446.1587,1.4319.2236,2.0379.2236.6965,0,1.2855-.0842,1.7492-.2131.2328-.0662.4351-.1414.6105-.2346.1755-.0984.3312-.197.4691-.3939.043-.0663.1522-.2023.2829-.3707.1674-.2198.3757-.5084.5608-.8557l-.5458-.2968.5425-1.0026.3895.2118c.036-.1927.0621-.3923.0627-.6063,0-.6589-.2041-1.3911-.6946-2.1467-.8702-1.3267-2.401-2.1145-3.7008-2.6248-.4957-.192-.9597-.3398-1.347-.4501l-.7908.7187-.3832-.4208.1038-.5604c.0133.0034.439.0828,1.0701.2625l1.2414-1.1282c-.119.0082-.1981.0135-.1988.0135l-.0376-.5676.3831.4208-.1467.1333c.4529-.0312,1.66-.1189,2.9631-.2479.8236-.0806,1.6794-.1772,2.401-.2864.3616-.0555.6893-.1128.9686-.1755.2074-.0472.3785-.0981.5407-.1592-.0024-.0013-.0066-.0043-.0089-.0056l-.0555-.025.0287-.0985-.0215.1003.0555-.256v-.1396l.179.3563c-.0564.0272-.1182.046-.1772.0682.1478.0792.4481.3133.8057.6462,1.2891,1.1942,3.4108,3.6238,5.4142,5.8046,1.0044,1.0922,1.9838,2.1252,2.8342,2.9273.4261.4011.82.7449,1.1781,1.0134.3635.2686.675.4673,1.0277.5693.6893.1844,1.7188.7072,3.1583,1.1835,1.4449.4763,3.3212.8952,5.7938.8952,1.8853,0,4.1179-.2435,6.7803-.8809,9.525-2.2828,12.6189-3.5003,12.6547-3.5146l-.419-1.0581-.0286.0107Z"/><path class="cls-3" d="m135.3514,103.7273l-.0555-.0054-.0072-.0018.0555.025c.0023.0012.0065.0043.0089.0056.0591-.0222.1208-.041.1772-.0682-.0698.0358-.1378.0447-.179.0447Z"/><path class="cls-3" d="m128.2434,104.0657l.0376.5676c.0007,0,.0798-.0052.1988-.0135l.1467-.1333-.3831-.4208Z"/><polygon class="cls-3" points="135.3514 103.4659 135.2959 103.7219 135.3514 103.7273 135.3514 103.4659"/><polygon class="cls-3" points="135.3174 103.6217 135.2887 103.7202 135.2959 103.7219 135.3174 103.6217"/><path class="cls-3" d="m126.0645,106.0459l.3832.4208.7908-.7187c-.6312-.1797-1.0568-.2592-1.0701-.2625l-.1038.5604Z"/><path class="cls-3" d="m131.9861,112.3667l.5458.2968c.1665-.3125.3093-.6755.3862-1.0876l-.3895-.2118-.5425,1.0026Z"/><path class="cls-3" d="m120.3915,109.635l-.5389-1.0045.009.0179-.009-.0179c-.0358.0197-.3276.1468-.6553.145-.0488,0-.0998-.0109-.1498-.0164.1992.3685.4254.7354.6752,1.0988.3839-.0769.6357-.2077.6688-.223Z"/><path class="cls-3" d="m107.7212,113.558l-.5245.0389c-.0892.2875-.1768.5656-.2602.8193-.256.7842-.4852,1.3965-.6339,1.6686-.4243.7914-1.4126,2.1145-2.3114,3.255-.4512.5729-.8809,1.1047-1.2103,1.5111-.1647.2023-.3044.376-.41.5067-.1074.1343-.1736.2167-.2131.2775,0,.0018-.0662.0806-.1558.1772-.4409.4775-1.5762,1.6057-2.5051,2.5444l.0413.7703c.4324-.4396.9436-.9525,1.4344-1.4455.4028-.4064.7842-.7914,1.0797-1.0958.1468-.1504.2721-.2828.3688-.3867.0984-.1092.1611-.1772.2095-.2488.0089-.0143.0823-.1093.1844-.2363.3652-.4548,1.162-1.4234,1.9659-2.4601.8057-1.0402,1.615-2.1395,2.0232-2.8987.2471-.4619.5712-1.4073.9454-2.6105.8343-2.6992,1.8682-6.62,2.3323-8.41-.147-.2019-.2932-.4033-.4323-.6044-.0721.2805-.1718.6667-.2941,1.1347-.3867,1.4789-.9883,3.7384-1.5773,5.7795-.0764.2657-.1526.527-.228.7831l.0889-.0066.0823,1.1369Z"/><path class="cls-3" d="m98.423,125.4613c-.0681.0752-.2327.188-.4619.3008-.8075.4064-2.3723.8541-3.8691,1.23-1.5021.3778-2.9345.6929-3.5629.8773-.4208.1253-.8003.4136-1.153.7592-.716.7111-1.3209,1.6916-1.6395,2.2518.2241-.0078.4495-.0162.6758-.0248.1848-.306.4175-.6686.6862-1.0274.4888-.6642,1.1083-1.282,1.5899-1.4127.6696-.197,2.4654-.5854,4.1913-1.0385.8648-.2274,1.717-.4709,2.4153-.7216.3492-.1271.6607-.2524.9221-.3831.2596-.1325.4673-.2596.6213-.4225.1383-.1479.3318-.3473.5441-.5642-.2756.015-.563.0354-.8411.0515-.0375.0396-.0855.0889-.1184.1242Z"/><path class="cls-3" d="m99.3825,125.2856c.0498-.0508.103-.1049.1557-.1585l-.0413-.7703c-.3756.3796-.7094.7205-.9555.9803.2781-.0161.5654-.0365.8411-.0515Z"/><path class="cls-3" d="m87.4942,131.3214l.5085.2578s.0215-.0412.0627-.12c.0673-.1247.1906-.3448.3469-.6036-.2263.0086-.4518.017-.6758.0248-.1475.2593-.2394.4371-.2422.441Z"/><path class="cls-3" d="m107.7212,113.558l-.0823-1.1369-.0889.0066c-.1206.4095-.2386.7992-.3533,1.1692l.5245-.0389Z"/><path class="cls-3" d="m110.3275,104.379l-.5515-.1396c-.0009,0-.0468.1802-.1267.491.1391.201.2853.4025.4323.6044.1544-.5953.2458-.9553.2458-.9557Z"/><path class="cls-3" d="m126.1776,116.6166c-.1826,2.0662-1.6257,4.3113-3.7939,6.7714-.2914.3314-.561.654-.8145.9677.2294.035.4393.0726.6459.1108.19-.2301.3864-.4636.5965-.7025,2.1897-2.494,3.7188-4.8037,3.9318-7.0955.0681-.7341.0895-1.2963.0895-1.7224,0-.1727-.0056-.3083-.0115-.4385-.1881-.0401-.3831-.0923-.5781-.1449.011.1518.0203.3326.0203.5834,0,.4064-.0215.9525-.0859,1.6705Z"/><path class="cls-3" d="m121.4122,125.4838c-.0162-.0024-.0298-.0052-.0461-.0077l.1611-1.0667c-1.1123,1.3835-1.8483,2.5423-2.2064,3.1461.2697-.0608.5309-.1216.78-.1825.3062-.4859.7425-1.1354,1.3114-1.8892Z"/><path class="cls-3" d="m119.5638,128.2758l.0483-.0895c.0746-.1339.2443-.4256.4886-.8133-.2491.0609-.5104.1217-.78.1825-.1661.2802-.2581.4501-.2601.4536l.5031.2668Z"/><path class="cls-3" d="m121.4122,125.4838c.2448-.3243.51-.6628.8029-1.0175-.2066-.0382-.4165-.0758-.6459-.1108-.015.0185-.0272.0354-.0421.0538l-.1611,1.0667c.0164.0024.03.0052.0461.0077Z"/><path class="cls-3" d="m126.7326,113.7501l-.5443.17.0071-.0018-.0071.0018c.0057.022.0346.164.0549.4426.1951.0526.39.1048.5781.1449-.0234-.5123-.0803-.7275-.0888-.7575Z"/><path class="cls-3" d="m114.8382,126.1199c-.2865.2346-.53.4351-.7108.5927-.0913.0788-.1665.1468-.2274.2023l-.1469.154.4566.3419.0035-.0035c.0305-.0358.1611-.1594.3456-.3151,1.3052-1.1172,5.5091-4.3651,7.1116-5.4608.9955-.6839,2.0411-1.939,2.8611-3.1583.4082-.6106.7573-1.2103,1.008-1.7296.2489-.5246.4082-.9418.4136-1.2891h-.5693c.0054.1486-.1199.5604-.3563,1.042-.7018,1.4646-2.3455,3.7617-3.6793,4.6659-.9525.6517-2.759,2.0124-4.3722,3.2657-.8057.6266-1.5613,1.2247-2.1378,1.692Z"/><path class="cls-3" d="m116.6658,113.4495c0-.1683-.0089-.3312-.0233-.4888l-.5676.0573c.0143.136.0197.2811.0197.4315.0089,1.9033-1.0958,4.8019-2.3383,6.3865-.7394.9561-1.2533,2.4529-1.6042,3.7241-.3473,1.2712-.5192,2.3115-.521,2.3168l.5622.0931s.0412-.2524.1271-.6625c.1253-.6159.3491-1.5827.6678-2.5549.3169-.9704.7341-1.9479,1.2175-2.5674,1.3285-1.717,2.4511-4.6336,2.46-6.7356Z"/><path class="cls-3" d="m148.4625,81.7168l19.6871,13.0678c.2133.019.4376.0292.6697.0292.4323.0005.8821-.0313,1.3177-.0773l-20.8724-13.8545c-.2426.3196-.5117.5989-.8021.8348Z"/><path class="cls-3" d="m168.1496,94.7846l1.525,1.0122.6302-.949-.1677-.1113c-.4357.046-.8854.0778-1.3177.0773-.2321,0-.4564-.0102-.6697-.0292Z"/><path class="cls-3" d="m157.2013,62.9125l12.1082,5.4247.4655-1.0402-12.181-5.458c-.0382.2009-.092.3801-.1552.544-.0737.192-.1556.3624-.2375.5295Z"/><polygon class="cls-3" points="150.2119 57.8387 150.2123 57.8388 150.2082 57.8373 150.2119 57.8387"/><path class="cls-3" d="m77.0398,48.9298c-1.4789-.5407-2.2738-1.1746-2.7053-1.794-.4315-.6195-.5192-1.2462-.521-1.8423,0-.4082.0447-.7932.0447-1.1459.0036-.2686.0698-.4261.1898-.5658.1808-.2095.555-.3777,1.0796-.5264.5228-.1504,1.1781-.2919,1.8997-.5192.1987-.0627.4297-.0949.6893-.0949.9167-.0018,2.1843.4082,3.6184,1.0134,1.4359.607,3.0455,1.4001,4.6999,2.1414,1.8799.8397,2.8718,1.3106,3.7455,1.6293.8773.3169,1.6257.4708,2.965.6696,2.691.3975,8.3344.8934,11.285,1.3857,1.0295.1719,1.7743.2382,2.3956.2382,1.196,0,1.8979-.2453,3.2389-.4351.5211-.077.8988-.197,1.1727-.3849.2758-.1844.4333-.4799.4261-.7699-.0018-.3151-.1396-.6034-.3223-.8827-.1862-.2793-.4279-.5551-.6857-.82-.299-.3044-.8021-.5729-1.4503-.8612-1.9373-.8558-5.1672-1.7635-7.0274-2.2846-.6428-.1789-1.4072-.4842-2.2118-.8512l-.0019.0031s-.0003-.0001-.0004-.0002l-.2947.4865c.8454.3871,1.6578.7137,2.3548.9097,1.2372.3474,3.0813.8666,4.7303,1.4198.8236.2775,1.5989.5622,2.2202.8379.6213.2704,1.0922.5461,1.2729.7377.2435.2507.4655.5049.6177.7377.1558.231.2327.4387.2291.5676-.0053.1164-.0286.1862-.1826.3026-.1539.1093-.4548.222-.9274.2883-1.3929.2006-2.0554.4315-3.1583.4297-.5801,0-1.2909-.0626-2.3007-.231-2.9918-.4977-8.6388-.9937-11.2958-1.3876-1.3339-.197-2.0232-.3401-2.8539-.641-.8326-.3026-1.8227-.7717-3.708-1.6149-1.6418-.7341-3.2532-1.5291-4.7124-2.145-1.4609-.6123-2.7626-1.0545-3.8386-1.0581-.3062,0-.5944.0376-.8612.1218-.9203.2918-1.7564.4368-2.4063.6875-.3241.1253-.6105.2811-.8272.5228-.2166.2417-.3348.5676-.333.9435.0018.3026-.0447.7-.0447,1.1459,0,.6517.1038,1.4252.623,2.1682.2993.4296.736.8421,1.3453,1.2239.5493.0726,1.1632.1995,1.7893.3475l.038-.1032Z"/><path class="cls-3" d="m156.9569,62.0213c-.013.041-.025.0833-.0394.1228-.0013.0038-.0021.0084-.0035.0122.0159-.0433.0287-.09.0429-.135Z"/><path class="cls-3" d="m97.7273,41.9624c.4286.2221.8571.4332,1.2811.6326.0067.0031.0133.0063.02.0095-.4367-.2044-.8788-.4227-1.3203-.6521.0065.0034.0129.0067.0193.01Z"/><path class="cls-3" d="m149.4668,58.16c.0031.0013.0065.003.0095.0043.0798.0345.146.0555.2204.0845-.0776-.0303-.1464-.0522-.2299-.0888Z"/><path class="cls-3" d="m157.1614,62.2726l-.2838.4916-.1855-.1071c-.0604.123-.1229.2482-.1861.3901-.3832.863-1.3965,2.5889-1.9981,5.2012-.2811,1.2264-1.0582,2.6713-1.88,3.9193-.8182,1.2462-1.6794,2.306-2.1144,2.7877-.265.2936-.4064.6446-.4906,1.0134-.2417,1.1064-.0591,2.4421-.8397,4.0016-.109.2189-.2456.4132-.3896.5989.0017.0011.0062.0041.0079.0051-.0126.0163-.0279.0293-.0407.0453-.0007.0009-.0012.0021-.002.0031.0135-.0169.0297-.0306.043-.0479.0358.0233.0555.0358.0555.0358l-.3345.5124.3381-.5092.4037.268c.155-.2042.3056-.415.427-.6575.5712-1.1387.6732-2.1789.7484-3.024.0358-.4225.0681-.795.1379-1.1065.0734-.3133.1772-.5568.358-.7573.4584-.5085,1.3286-1.5792,2.1683-2.8575.8397-1.2784,1.6454-2.7554,1.9587-4.1036.5873-2.537,1.5541-4.1788,1.9641-5.0974.0549-.1249.1148-.2444.1743-.3657l-.2725-.1221.2327-.5179Z"/><path class="cls-3" d="m148.6386,80.7564c-.0016.0018-.0034.0032-.0049.005-.0628.0714-.1234.1455-.19.2117.0684-.0677.1306-.1436.1949-.2167Z"/><path class="cls-3" d="m151.1239,58.5441c-.051-.0032-.1049-.0039-.1573-.006.0007,0,.0014.0002.0021.0003.0494.004.1048.0026.1552.0057Z"/><path class="cls-3" d="m96.3486,40.7475c-.0911-.1089-.175-.2161-.2518-.3197-.0001,0-.0003-.0002-.0004-.0002-.0013-.0018-.0021-.0034-.0034-.0052-1.0193-.5848-1.9329-1.1495-2.5526-1.5638-.3867-.256-.6606-.5067-.8325-.7448-.1701-.2399-.2435-.4601-.2453-.6982,0-.2829.1199-.6141.4011-1.0116.2793-.3957.7126-.8469,1.298-1.3518.6768-.5837,1.1978-.9453,1.6436-1.1566.4476-.2113.8146-.2794,1.2336-.2811.4905,0,1.0563.1057,1.8209.2166,1.9981.2865,7.4285,1.8782,9.1669,2.5585.1896.0737.4188.1562.6683.2427,1.2908.1931,2.6487.3879,3.8123.5541.0375.01.0744.0183.1119.0283-.0229-.006-.0454-.0124-.0683-.0185-.0146-.0039-.0289-.0071-.0435-.011.0021.0003.0039.0005.006.0009-1.722-.4595-3.4033-.983-4.279-1.3264-1.8119-.7054-7.1885-2.2845-9.2941-2.5925-.7502-.1074-1.3303-.2202-1.9014-.222-.4852-.0018-.9633.0895-1.4771.3365-.5175.2453-1.0743.6375-1.7725,1.2408-.6052.5228-1.0689.9973-1.3912,1.452-.3205.453-.5031.8953-.5049,1.3411,0,.3652.1253.7161.3527,1.0312.2291.3151.555.6034.9775.8863.9709.6448,2.5911,1.6264,4.2759,2.5114-.4869-.3894-.86-.7531-1.1508-1.097Z"/><path class="cls-3" d="m114.0686,37.5789c-.0203-.0048-.0402-.0096-.0608-.0145-.0236-.0056-.047-.011-.0706-.0167.0445.0107.0879.0209.1314.0312Z"/><path class="cls-3" d="m148.4625,81.7168l-.2318-.1539h0c-.0046-.0032-.0956-.0632-.2644-.1729-.0004.0002-.0007.0006-.001.0009-.0032-.0021-.0084-.0054-.0117-.0075-.3351.2518-.6844.4662-1.0193.6245-.3907.1868-.7482.3099-1.0189.3894.2039.1329.4044.2635.611.3983.2005-.0734.4202-.1625.6514-.272.4146-.1968.8629-.4644,1.2846-.8067Z"/><path class="cls-3" d="m150.7627,57.9436c-.0053-.0006-.0105-.0013-.0157-.002.0225.0029.0382.009.0612.0118l1.074.6183c.0007,0,.0012,0,.0018,0l.001.0005c.0062,0,.0116.0007.0178.0007.6481,0,1.3357-.0304,1.9891-.0304.7771-.0018,1.5076.0447,2.0393.2184.2668.086.4816.2006.6374.3438.1558.145.2614.3169.317.555.1432.6374.2005,1.119.2005,1.4968-.0006.1523-.0191.2701-.0347.3937l.0106.0061c-.0013.0108-.0042.019-.0056.0296.0015-.0108.0043-.0193.0057-.0303l.3497.2017.1823.0817c.0386-.2029.0614-.4279.0614-.6824,0-.4351-.0645-.9561-.2148-1.6221-.077-.3456-.2507-.6338-.487-.8487-.3545-.324-.829-.4941-1.3517-.5926-.5264-.0967-1.1101-.12-1.7099-.12-.6714,0-1.3589.0305-1.9891.0305-.4006,0-.7724-.0167-1.1016-.0552l.0067.0038c-.017-.0019-.0285-.0066-.0452-.0087Z"/><path class="cls-3" d="m112.0604,37.6549c.025.0068.0497.0137.0748.0204.1305.0353.2612.0703.3923.1049.0281.0074.056.0146.084.022-.1842-.0484-.368-.0975-.5511-.1473Z"/><path class="cls-3" d="m115.4882,37.8905l-.0769.5635c-.2465-.0477-.5052-.1021-.7691-.1597.0109.0024.022.005.0328.0073.2521.0548.5004.1073.7365.153h0c.5728.1111,1.091.1929,1.5154.2322.4888.0412,1.325.2883,2.3079.6589,2.9596,1.1083,7.3246,3.2997,9.1741,4.2612,1.1853.6141,3.5504,2.4744,5.8458,4.3275,2.306,1.8585,4.5459,3.7079,5.6237,4.3776,1.0312.6374,3.0652,2.0017,5.0866,3.2801,1.0116.6392,2.0196,1.2568,2.9041,1.7546.5803.3252,1.0942.5905,1.5373.7863l.2847-.4929s.0001,0,.0002,0l.0013-.0023c-.4236-.1844-.9512-.454-1.5442-.789-2.614-1.4699-6.399-4.0481-7.9692-5.0203-1.0026-.6195-3.2675-2.4815-5.5664-4.3382-2.3097-1.8602-4.6498-3.7133-5.9407-4.3883-1.2426-.6464-3.5969-1.8352-5.9191-2.8915-1.1602-.5282-2.3132-1.0223-3.3176-1.3983-1.0081-.376-1.8549-.6374-2.4565-.6929-.4073-.0362-.9191-.1177-1.4902-.2296v.0009s-.0003,0-.0004,0Z"/><path class="cls-3" d="m110.32,37.1555c.0166.005.0322.0099.049.015.0848.0256.1719.0513.2585.077.017.0051.0352.0101.0522.0151-.1212-.0358-.2421-.0716-.3597-.1071Z"/><path class="cls-3" d="m108.7756,36.6605c.011.0038.0205.0073.0317.0111.0841.0288.1759.059.2653.0887.0143.0048.0309.0099.0454.0147-.1157-.0385-.2347-.0775-.3423-.1145Z"/><path class="cls-3" d="m109.6544,36.9489c.0159.005.0294.0096.0454.0147.0798.0251.1587.0502.241.0758.0172.0053.0353.0107.0525.0161-.1164-.036-.2278-.0714-.3389-.1066Z"/><path class="cls-3" d="m111.3308,37.4514c.0211.006.0408.012.0619.0179.1083.0306.2155.0614.325.0919.0152.0042.0305.0082.0457.0125-.1459-.0405-.2888-.0814-.4326-.1223Z"/><path class="cls-3" d="m112.8662,37.869c.013.0034.0261.0069.0391.0103.2417.0621.483.1229.7217.1809.0121.0029.024.0056.0361.0085-.2634-.0638-.5299-.1309-.7969-.1997Z"/><path class="cls-3" d="m113.7785,38.096c.0307.0074.0609.0143.0916.0217.1922.0457.3824.0899.5695.1318.0149.0034.0295.0065.0443.0098-.231-.0515-.4666-.106-.7054-.1633Z"/><path class="cls-3" d="m97.6884,41.3c.1121.0587.2211.1146.3345.1732-.0025-.0013-.005-.0026-.0075-.0039-.1108-.0573-.2174-.1117-.327-.1693Z"/><path class="cls-3" d="m145.8744,82.4107c-.136.0394-.2471.068-.3223.0859-.0752.0161-.111.0233-.111.0233l.1021.5604c.0119-.0027.4167-.0775.9832-.2848-.2066-.1348-.4071-.2654-.611-.3983-.0121.0035-.0294.0101-.0411.0135Z"/><path class="cls-3" d="m148.5227,81.1232l-.2885.4419s-.0034-.0022-.0035-.0023h0s.2318.154.2318.154c.2905-.2358.5596-.5151.8021-.8348l-.4037-.268-.3381.5092Z"/><path class="cls-3" d="m157.447,61.7777l-.2856.4949-.2327.5179.2725.1221c.082-.1671.1639-.3376.2375-.5295.0632-.1639.117-.3431.1552-.544l-.1823-.0817.0353.0203Z"/><path class="cls-3" d="m76.2263,56.6516c-.0078.0192-.013.0385-.0204.0576.0051.0005.0095.0014.0146.0019l.0058-.0595Z"/><path class="cls-3" d="m71.603,54.405c-.8236-.7699-1.0671-1.6042-1.1119-2.1145l-.0036-.0591c-.0018-.2112.0967-.5228.2936-.8522.2919-.4977.7896-1.0402,1.3804-1.4556.5891-.4172,1.2694-.7072,1.9211-.7376l.1736-.0054c.9758-.0018,2.6176.367,4.0965.7878,1.4789.4189,2.8235.8952,3.2264,1.0742.2452.1093.7448.2865,1.4269.5192,2.0429.6983,5.681,1.8674,8.2001,2.7573,3.4,1.1996,6.7786,1.6956,6.7893,1.6973l.0823-.564s-.2059-.0305-.5711-.0949c-1.0958-.1934-3.6095-.6929-6.1107-1.5756-1.6884-.5963-3.8674-1.3142-5.7366-1.9337-.9346-.308-1.7904-.5927-2.469-.8254-.675-.2292-1.1799-.4118-1.3804-.5013-.4601-.2041-1.7958-.6732-3.3016-1.1011-.4966-.14-1.0042-.2687-1.5068-.3875l-.1589.4321c-.6524-.2386-1.186-.5012-1.6304-.7796-.3469-.0458-.671-.0738-.9561-.0743-.0698,0-.136.0018-.2023.0054-1.0635.0555-2.0751.6356-2.8378,1.3411-.3796.3563-.6983.7448-.9257,1.1315-.2274.3885-.3707.7717-.3724,1.1423l.0054.1093c.0537.6302.3545,1.6042,1.2891,2.4815.8577.8035,2.2459,1.507,4.4156,1.8118.0646-.1852.1425-.3669.2344-.5444-2.174-.2815-3.4869-.959-4.2596-1.6846Z"/><path class="cls-3" d="m77.0018,49.033c-.6261-.1479-1.24-.2748-1.7893-.3475.4444.2784.978.541,1.6304.7796l.1589-.4321Z"/><path class="cls-3" d="m77.5557,55.1011c.1791-.0823.4029-.1253.6625-.1253.5998-.0018,1.3733.2346,2.1038.5676s1.4252.7591,1.8961,1.1118c.3312.2471.9257.5729,1.683.9597,1.1315.5765,2.6105,1.2712,3.964,1.9157,1.3518.6446,2.5836,1.239,3.1942,1.5989.9167.5335,2.4583.8719,3.7975,1.1011,1.3375.2238,2.4565.3241,2.4619.3241l.0501-.5676s-.2739-.0251-.7144-.077c-.6607-.077-1.6938-.2184-2.7108-.4315-1.0151-.2095-2.0231-.4995-2.5961-.8397-.8684-.5103-2.7698-1.3965-4.614-2.2774-.9221-.4387-1.828-.8755-2.5746-1.2551-.743-.3778-1.3374-.709-1.5988-.906-.5085-.3813-1.2282-.8235-2.0035-1.1745-.7753-.3509-1.5989-.6177-2.3383-.6195-.3187,0-.6249.0502-.9006.1773-.5854.2721-1.051.7788-1.3786,1.3517-.0285.05-.05.1031-.0764.1541.1381.0179.2681.0394.4133.054l-.0497.5081c.0597-.1475.1271-.2935.2069-.4332.2829-.4977.684-.9167,1.1226-1.1172Z"/><path class="cls-3" d="m84.3612,64.85c-1.3195-.9561-3.3105-2.4135-5.015-3.7259-.8522-.6571-1.6346-1.2766-2.2202-1.7761-.2936-.2488-.5389-.4691-.718-.6464-.1772-.17-.2918-.3187-.3008-.3455-.077-.1575-.1199-.3671-.1199-.6069,0-.3173.0807-.6824.2184-1.04-.2018-.0203-.3881-.0486-.5776-.0752-.1302.3731-.2092.7536-.2103,1.1152,0,.3043.0519.598.1772.8576.0573.111.1343.2041.2382.3205.3849.4207,1.1655,1.076,2.1395,1.8477,2.716,2.1505,6.8924,5.1421,7.4515,5.5421.0453-.1928.1136-.3796.1931-.562-.2374-.1699-.6697-.4807-1.2563-.9051Z"/><path class="cls-3" d="m76.2263,56.6516l.0497-.5081c-.1452-.0145-.2753-.0361-.4133-.054-.0919.1775-.1697.3593-.2344.5444.1895.0266.3758.0549.5776.0752.0074-.0192.0127-.0385.0204-.0576Z"/><path class="cls-3" d="m130.9375,75.2166c-.4691-.4279-.9901-.8576-1.5021-1.187-.1349-.0858-.2688-.1644-.4019-.2355-.3021.1127-.5453.2218-.7152.3058-.0173-.0059-.0292-.0038-.0461-.009.0005.0001.0011.0004.0017.0005.0167.0051.028.003.0451.0088-.0031.0015-.0041.0022-.0071.0037.2415.0784.5212.2135.8154.4055.7072.453,1.4789,1.1548,2.0679,1.7385.1774.1774.3304.3361.4688.4818.2316-.043.459-.0776.6829-.1044-.2966-.3232-.8104-.8633-1.4094-1.4087Z"/><path class="cls-3" d="m127.9304,74.0269h.0107c.0092,0,.0234.006.033.0064.001,0,.0023.0003.0032.0004-.0109-.0005-.0264-.0071-.0369-.0071h-.0107l-.0179.0018-.3203-.5261c-.8266.1785-2.7499.7252-4.9258,1.3688-2.2542.6678-4.7554,1.4323-6.4903,1.9695-1.2748.3975-3.2801.5443-5.4429.5425-3.4734,0-7.3676-.3617-9.5018-.5532-3.3893-.3008-6.9432-2.0429-8.1017-2.7215-.5747-.3348-1.8889-1.2282-3.1977-2.1825s-2.6265-1.9874-3.2048-2.58c-.5211-.5317-.8361-1.3679-.8344-2.1915.0036-.897.3581-1.7493,1.153-2.247.3688-.2291.6661-.3062.9257-.3079.4225,0,.7949.2184,1.1781.5192.3832.2972.7448.666,1.1924.8773.6087.2793,1.8513,1.0474,3.1708,1.8996,1.3213.8522,2.7322,1.7922,3.7258,2.4386.9471.6159,1.9731.7824,2.8074.7824,1.0277-.0018,1.7761-.2507,1.7958-.256l-.1808-.5407-.025.009c-.1343.0394-.7717.2184-1.5899.2184-.7609,0-1.6705-.1539-2.4977-.6911-.9883-.6428-2.3992-1.5845-3.7277-2.4403-1.3303-.8558-2.5621-1.6221-3.2407-1.9373-.3115-.1396-.6678-.4816-1.0778-.8075-.41-.3223-.9024-.6392-1.5308-.6409-.3796,0-.7914.1217-1.2264.3939-.5384.3356-.8986.8075-1.1269,1.3312.1191.0853.204.1459.2047.1459l-.3312.4637s-.0256-.0183-.0665-.0476c-.0648.2755-.1021.5564-.1016.8372.0018.9633.3545,1.9265.9955,2.5889.6373.65,1.9551,1.6758,3.2783,2.6427,1.3213.965,2.6319,1.8549,3.246,2.213,1.2175.709,4.7947,2.478,8.338,2.7985,2.1342.1898,6.0409.555,9.5519.555,2.1915,0,4.2219-.1379,5.6112-.5676,1.7331-.5371,4.2325-1.3016,6.4831-1.9677,2.2488-.6661,4.263-1.2372,4.9774-1.3787l.1069-.0092-.0004-.0007.0197-.0018Z"/><path class="cls-3" d="m127.63,73.4936c.0115-.0025.0229-.005.0338-.0072-.0038.0007-.0079.0015-.0117.0023-.0065.0013-.0155.0035-.0221.0049Z"/><path class="cls-3" d="m128.5461,73.5817c.1547.0542.3102.1201.4678.2031-.007-.0037-.0137-.0062-.0206-.0098-.1497-.0776-.298-.1411-.4455-.1927-.0006-.0002-.0011-.0004-.0017-.0006Z"/><path class="cls-3" d="m132.1872,77.3007l.4297-.3742c-.0013-.002-.1013-.1172-.27-.3012-.2239.0267-.4513.0614-.6829.1044.0908.0955.1797.1897.2492.2648.1755.1916.2739.3044.2739.3062Z"/><path class="cls-3" d="m85.8222,65.901c-.0006,0-.0856-.0606-.2047-.1459-.0795.1824-.1478.3691-.1931.562.041.0293.0664.0475.0665.0476l.3312-.4637Z"/><path class="cls-4" d="m127.9741,74.0333c-.0138-.0005-.0315-.0058-.0446-.0056l-.0184.0016.1321.2178c.0141-.0088.1077-.0649.2687-.1432-.0127-.0041-.0256-.0087-.038-.0125-.1108-.0339-.2128-.0547-.2997-.0582Z"/><path class="cls-4" d="m138.7929,74.4888c-1.4807-.8146-2.8199-1.4896-3.8171-1.8585-1.0438-.3849-2.0536-.5282-2.9739-.5282-2.6301.0054-4.4993,1.1441-4.5494,1.1692l.1396.2291c.0214-.0043.0403-.0079.06-.0118.0115-.0024.0284-.0066.0394-.0088.0788-.0161.1594-.0233.2381-.0233.163.0018.3281.0372.494.0858.0179.0052.0354.0035.0533.0093.0234.0075.0475.0224.071.0306.1475.0516.2958.1151.4455.1927.0134.007.0266.0102.04.0173.7108-.265,1.7528-.5497,2.9524-.5497h.0143c.8039,0,1.6758.1235,2.5836.4566.8845.3258,2.2058.9865,3.6597,1.7886,2.1843,1.2014,4.6855,2.7232,6.6371,3.9425.9758.6087,1.8155,1.144,2.4099,1.5255.2808.179.5028.324.6633.4276.043-.0323.0873-.0598.1296-.0938.0577-.0462.1139-.0951.17-.1445.1335-.1179.2599-.2471.3805-.3837.042-.0477.087-.0915.127-.1416.0123-.0154.0208-.0349.0328-.0505-.3996-.2602-2.7126-1.7601-5.4225-3.4092-1.4914-.9059-3.0992-1.8567-4.5781-2.6713Z"/><path class="cls-4" d="m148.0832,81.2896c-.0423.0339-.0866.0615-.1296.0938.0033.0021.0084.0054.0117.0075.0004-.0002.0007-.0006.001-.0009-.0003-.0002-.0004-.0002-.0007-.0004.0405-.0304.0777-.0681.1176-.1Z"/><path class="cls-4" d="m148.8014,80.5744c-.0016-.001-.0062-.004-.0079-.0051-.0121.0156-.0205.035-.0328.0505.0128-.0161.0281-.0291.0407-.0453Z"/><path class="cls-4" d="m148.6337,80.7614c-.1206.1367-.2469.2658-.3805.3837.0643-.0566.1288-.111.1905-.172.0667-.0662.1272-.1403.19-.2117Z"/><path class="cls-4" d="m128.2739,74.0914c.0124.0038.0253.0084.038.0125.003-.0015.004-.0022.0071-.0037-.0171-.0058-.0284-.0037-.0451-.0088Z"/><path class="cls-4" d="m127.9297,73.4571c.1633.0016.328.0367.4938.0853-.1659-.0485-.3309-.084-.494-.0858-.0787,0-.1593.0071-.2381.0233-.011.0022-.0279.0064-.0394.0088.0038-.0007.0079-.0015.0117-.0023.009-.0018.0194-.0045.0279-.006.0788-.0161.1575-.0233.2381-.0233Z"/><path class="cls-4" d="m127.9741,74.0333c-.0096-.0004-.0237-.0064-.033-.0064h-.0107l-.0197.0018.0004.0007.0184-.0016c.0131-.0002.0308.005.0446.0056Z"/><path class="cls-3" d="m148.4437,80.9731c-.0621.0617-.1277.1169-.1926.1742-.0535.0473-.1072.0939-.1624.1384-.0416.0334-.0801.0724-.1224.1044.1688.1097.2598.1697.2644.1728l.292-.4396.3345-.5124s-.0197-.0126-.0555-.0358c-.0133.0172-.0295.0309-.043.0479-.0378.0472-.0805.0884-.1201.1335-.0643.0732-.1266.149-.1949.2167Z"/><polygon class="cls-3" points="148.2342 81.5651 148.5227 81.1232 148.2307 81.5628 148.2342 81.5651"/><path class="cls-3" d="m148.2511,81.1473c.0008-.0007.0013-.0015.0021-.0022-.0561.0494-.1123.0983-.17.1445.0018-.0014.0037-.0025.0055-.004.0551-.0444.1089-.0911.1624-.1384Z"/><path class="cls-3" d="m148.4437,80.9731c-.0616.061-.1262.1154-.1905.172-.0008.0007-.0013.0015-.0021.0022.0649-.0573.1305-.1125.1926-.1742Z"/><path class="cls-3" d="m148.0832,81.2896c-.0399.0319-.0771.0696-.1176.1.0003.0002.0004.0002.0007.0004.0423-.0319.0808-.0709.1224-.1044-.0018.0015-.0037.0026-.0055.004Z"/><path class="cls-3" d="m129.0139,73.7848c.0065.0034.013.0058.0195.0093.0004-.0001.0006-.0002.001-.0004-.0069-.0037-.0136-.0052-.0205-.0089Z"/><path class="cls-3" d="m128.4238,73.5425c.0406.0119.0814.0249.1223.0392-.0229-.0081-.0464-.0228-.0693-.03-.0178-.0056-.0352-.004-.053-.0092Z"/><path class="cls-3" d="m127.5913,73.5019l.0002.0003c.012-.0026.0269-.0062.0385-.0086-.0132.0029-.0248.0048-.0386.0083Z"/><path class="cls-3" d="m128.5461,73.5817c-.0408-.0143-.0816-.0273-.1223-.0392-.1655-.0483-.3302-.0834-.4934-.085-.0806,0-.1594.0072-.2381.0233-.0092.0015-.0193.0038-.0286.0056-.0109.0022-.0223.0047-.0338.0072-.0115.0024-.0264.006-.0385.0086l.3203.5261.0179-.0018h.0107c.0105,0,.026.0067.0369.0071.087.0038.1869.024.2948.0573.0168.0052.0288.0031.0461.009.1699-.084.4131-.1931.7152-.3058-.0065-.0035-.013-.0059-.0195-.0093-.1576-.083-.3131-.1489-.4678-.2031Z"/><path class="cls-3" d="m128.4235,73.5424s.0002.0001.0004.0001c.0178.0052.0352.0035.053.0092-.0179-.0057-.0355-.004-.0533-.0093Z"/><path class="cls-3" d="m127.9297,73.4571c-.0806,0-.1593.0072-.2381.0233-.0085.0015-.0189.0042-.0279.006.0093-.0018.0194-.0041.0286-.0056.0787-.0161.1575-.0233.2381-.0233.1632.0016.3279.0367.4934.085-.0001,0-.0002,0-.0004-.0001-.1658-.0485-.3305-.0836-.4938-.0853Z"/><path class="cls-4" d="m97.5125,41.8563c.4369.3473.9651.7161,1.6096,1.1064l.145-.2399c-.085-.0391-.1732-.0875-.2588-.1278-.424-.1994-.8525-.4105-1.2811-.6326-.0718-.0372-.1431-.0684-.2148-.1061Z"/><path class="cls-4" d="m96.8537,39.5162c-.1934-.308-.3043-.5729-.4136-.8415-.1092-.2668-.2131-.5497-.4172-.8361-.0322-.0412-.0806-.163-.0787-.3563-.0036-.3545.1593-.9006.4601-1.3697.2955-.4763.7162-.8737,1.1512-1.0438.0931-.0376.2364-.0662.4225-.0662q.0018,0,.0036.0018c.0018-.0018.0054-.0018.0071-.0018.3331,0,.7896.0895,1.2874.2381.7573.2256,1.6185.5855,2.4207.9239.8075.3401,1.5451.6571,2.1431.8093.4458.111,1.3517.2668,2.5102.4512,3.4609.5497,9.0201,1.3106,9.0219,1.3106l.0394-.281c-.2363-.0458-.4841-.098-.7365-.153-.0464-.0101-.0935-.0207-.1403-.0311-.0163-.0036-.0323-.0071-.0487-.0108-.0156-.0035-.0309-.0068-.0464-.0103-.1871-.0419-.3773-.0861-.5695-.1318-.0814-.0193-.1609-.0375-.243-.0575-.2388-.058-.48-.1188-.7217-.1809-.0522-.0134-.104-.0273-.1559-.0409-.0451-.0118-.0902-.0236-.1356-.0355-.0288-.0076-.0576-.0151-.0863-.0226-.1312-.0346-.2618-.0695-.3923-.1049-.0253-.0068-.0505-.0138-.0757-.0207-.0986-.0268-.1962-.0532-.294-.0803-.0158-.0044-.0319-.0087-.0477-.0131-.1096-.0305-.2167-.0612-.325-.0919-.1047-.0297-.2103-.0593-.3134-.0891-.108-.0312-.2112-.062-.3171-.0931-.045-.0132-.0902-.0265-.1348-.0397-.0866-.0258-.1736-.0515-.2585-.077-.0185-.0056-.0358-.011-.0542-.0165-.0927-.0281-.1824-.0556-.2722-.0833-.0335-.0103-.0684-.0208-.1017-.0311-.0823-.0256-.1612-.0507-.241-.0758-.0444-.014-.0876-.0278-.1312-.0417-.0817-.0261-.1662-.0524-.2448-.078-.0879-.0286-.1678-.0558-.2514-.0836-.0894-.0297-.1812-.0599-.2653-.0887-.0377-.0129-.0823-.0271-.1189-.0398-.1002-.0161-.2005-.0305-.299-.0447-.9829-.1486-1.9139-.2936-2.6695-.4189-.7538-.1254-1.3446-.2346-1.6024-.299-.5963-.145-1.6848-.6392-2.8056-1.0993-.5658-.2292-1.1476-.4512-1.7098-.6195-.5622-.1683-1.1047-.2847-1.6204-.2865-.29,0-.5765.0376-.8505.1469-.7341.2972-1.2963.8683-1.692,1.495-.3939.632-.6302,1.3249-.6338,1.9766,0,.3527.0716.7108.2936,1.0223.0913.1253.1736.3169.2847.5962.1392.3462.3321.8044.7092,1.3215.0287.0165.0547.0323.0836.0488.3123.1786.6448.3557.9725.534.1701.0925.3326.1859.5048.2769.0117.0062.023.0118.0347.0179.1096.0576.2162.1119.327.1693.1518.0786.3002.1464.4518.2225.3019.1513.6039.3052.8995.4427.0662.0308.134.0648.1996.0947l.1467-.2404c-1.7385-1.0563-2.4725-1.862-2.8593-2.4725Z"/><path class="cls-4" d="m112.5275,37.7802c.0287.0076.0575.0151.0863.0226-.0008-.0002-.0015-.0004-.0023-.0006-.028-.0074-.0559-.0146-.084-.022Z"/><path class="cls-4" d="m112.0595,37.6546c.0253.0069.0504.0139.0757.0207-.0251-.0068-.0497-.0137-.0748-.0204-.0003,0-.0007-.0002-.001-.0002Z"/><path class="cls-4" d="m110.3147,37.1539c.0184.0056.0357.011.0542.0165-.0167-.0051-.0323-.0099-.049-.015-.0017-.0005-.0035-.001-.0052-.0016Z"/><path class="cls-4" d="m110.6274,37.2474c.0446.0132.0898.0265.1348.0397-.028-.0082-.0547-.0164-.0825-.0246-.0171-.0051-.0352-.0101-.0522-.0151Z"/><path class="cls-4" d="m109.0725,36.7603c.0836.0278.1635.0551.2514.0836-.0729-.0237-.1364-.0458-.206-.0689-.0145-.0048-.0311-.0099-.0454-.0147Z"/><path class="cls-4" d="m109.5687,36.9219c.0436.0139.0868.0276.1312.0417-.016-.0051-.0295-.0097-.0454-.0147-.0281-.0089-.0579-.0181-.0858-.027Z"/><path class="cls-4" d="m111.0793,37.3803c.1031.0298.2087.0594.3134.0891-.0211-.006-.0408-.012-.0619-.0179-.0836-.0237-.169-.0473-.2515-.0711Z"/><path class="cls-4" d="m111.7177,37.5612c.0158.0044.0319.0087.0477.0131-.0007-.0002-.0013-.0004-.0021-.0006-.0151-.0042-.0305-.0082-.0457-.0125Z"/><path class="cls-4" d="m114.4395,38.2494c.0156.0035.0309.0068.0464.0103-.0007-.0002-.0014-.0003-.0021-.0005-.0148-.0033-.0294-.0065-.0443-.0098Z"/><path class="cls-4" d="m114.0078,37.5645c.0206.0049.0405.0097.0608.0145.0049.0012.0099.0023.0148.0035.3292.078.6342.1412.9427.2067.1404.0297.2947.0672.429.0936.0109.0021.0226.0047.0334.0068l.0392-.282c-.0018,0-.6177-.0841-1.5684-.2184-.4244-.0589-.9148-.1267-1.446-.2032.0126.0034.025.0068.0375.0101.4885.1299.9797.2545,1.4569.3683Z"/><path class="cls-4" d="m112.5509,37.1961c-.0125-.0033-.025-.0068-.0375-.0101-.0021-.0003-.0039-.0005-.006-.0009.0146.0039.0289.0071.0435.011Z"/><path class="cls-4" d="m115.4882,37.89v.0005s.0001,0,.0002,0v-.0009c-.0107-.0021-.0224-.0047-.0333-.0068.0104.002.0228.0052.0331.0072Z"/><path class="cls-4" d="m99.5642,42.2318l-.0002.0004s.0003.0001.0004.0002l.0019-.0031c-.0657-.0299-.1335-.0638-.1996-.0947.0649.0302.1332.0678.1976.0972Z"/><path class="cls-4" d="m96.1765,40.4711c-.0289-.0165-.0549-.0323-.0836-.0488.0013.0018.0021.0034.0034.0052.0001,0,.0003.0002.0004.0002-.0002-.0002-.0004-.0005-.0006-.0008.0256.0147.0545.0294.0803.0441Z"/><path class="cls-4" d="m115.4115,38.4545c-.2361-.0457-.4844-.0981-.7365-.153.2524.0551.5001.1072.7365.153h0Z"/><path class="cls-3" d="m99.267,42.7224l.0023-.0038c-.0797-.0364-.1608-.0765-.241-.1141.079.0369.1602.082.2386.1179Z"/><path class="cls-3" d="m115.4236,37.8763c-.1249-.0249-.2674-.0596-.3975-.0872-.291-.0613-.5792-.1212-.8888-.1939.4484.1055.8815.2009,1.2863.2811Z"/><path class="cls-3" d="m97.5123,41.8558c.0653.0344.1302.0626.1957.0966-.0696-.0361-.1392-.0715-.2087-.1079.0049.0039.0081.0074.013.0113Z"/><path class="cls-3" d="m98.0229,41.4732c.4455.2303.8867.4481,1.3231.6516-.2889-.1349-.5839-.285-.8788-.4329-.1491-.0748-.295-.1415-.4443-.2186Z"/><path class="cls-3" d="m108.7756,36.6605c-.0281-.0097-.0532-.0187-.0807-.0283-.0022-.0003-.0045-.0007-.0067-.001.0269.0093.0599.0198.0874.0292Z"/><path class="cls-3" d="m96.1886,40.4782c.4701.2684.9598.5367,1.4583.8004-.1699-.0898-.3301-.1821-.498-.2734-.3237-.176-.6516-.351-.9603-.527Z"/><path class="cls-3" d="m109.1179,36.775c.1709.0566.3492.1144.5365.1739.1111.0352.2225.0706.3389.1066.0162.005.033.0101.0493.0151.0914.0281.1832.0563.2774.0849.1176.0355.2385.0714.3597.1071.2131.063.4298.1258.6512.1888.1437.0409.2866.0818.4326.1223.0987.0273.1977.0542.2971.0812.183.0499.3669.0989.5511.1473.046.0121.092.0241.1379.0361.0389.0103.0778.0206.1168.0306.267.0688.5336.1359.7969.1997.0389.0095.0765.018.1153.0273.2388.0573.4744.1118.7054.1633.017.0038.0338.0075.0508.0113.0359.008.0718.016.1075.0237.2639.0577.5226.1121.7691.1597l.0769-.5635c-.0201-.004-.0443-.0101-.0646-.0142-.4047-.0802-.8379-.1755-1.2863-.2811-.0181-.0043-.0363-.0085-.0543-.0129-.0049-.0012-.0096-.0023-.0145-.0034-.0435-.0103-.0869-.0205-.1314-.0312-.4329-.1038-.8758-.2159-1.318-.3331-.0375-.0099-.0744-.0182-.1119-.0283-1.1636-.1662-2.5215-.361-3.8123-.5541.0275.0095.0526.0186.0807.0283.1077.037.2266.076.3423.1145Z"/><path class="cls-3" d="m114.1373,37.5952c-.0181-.0043-.036-.0086-.054-.0128-.0001,0-.0002,0-.0004,0,.0181.0043.0363.0086.0543.0129Z"/><path class="cls-3" d="m109.1179,36.775c.0696.0231.1331.0452.206.0689.0786.0256.1631.0519.2448.078.0279.0089.0576.0181.0858.027-.1873-.0594-.3656-.1172-.5365-.1739Z"/><path class="cls-3" d="m110.0426,37.0706c.0898.0277.1795.0552.2722.0833.0017.0005.0035.001.0052.0016-.0942-.0286-.186-.0568-.2774-.0849Z"/><path class="cls-3" d="m114.486,38.2597c.0164.0037.0324.0072.0487.0108-.017-.0038-.0338-.0075-.0508-.0113.0007.0002.0014.0003.0021.0005Z"/><path class="cls-3" d="m110.6796,37.2626c.0278.0082.0546.0164.0825.0246.1059.0312.2091.062.3171.0931.0825.0238.168.0474.2515.0711-.2214-.063-.4381-.1259-.6512-.1888Z"/><path class="cls-3" d="m112.6138,37.8028c.0453.0119.0905.0237.1356.0355-.0458-.012-.0919-.024-.1379-.0361.0008.0002.0015.0004.0023.0006Z"/><path class="cls-3" d="m111.7634,37.5737c.0007.0002.0013.0004.0021.0006.0978.0271.1954.0535.294.0803.0003,0,.0007.0002.001.0002-.0994-.027-.1984-.0539-.2971-.0812Z"/><path class="cls-3" d="m114.0834,37.5824c-.0049-.0012-.0099-.0023-.0148-.0035.0048.0012.0096.0023.0145.0034.0001,0,.0002,0,.0004,0Z"/><path class="cls-3" d="m99.346,42.1247c-.4364-.2035-.8776-.4212-1.3231-.6516-.1134-.0585-.2225-.1144-.3345-.1732-.0116-.0061-.0229-.0117-.0346-.0179-.0023-.0012-.0046-.0023-.0068-.0035-.4985-.2637-.9882-.532-1.4583-.8004-.0295-.0168-.0625-.0336-.0919-.0504.0768.1036.1608.2108.2518.3197.2907.3439.6638.7076,1.1508,1.097.0695.0364.139.0718.2087.1079.4415.2294.8836.4477,1.3203.6521.0802.0376.1613.0776.241.1141l.2947-.4865c-.071-.0325-.1463-.074-.218-.1074Z"/><polygon class="cls-3" points="97.6469 41.2786 97.6538 41.2821 97.6537 41.2821 97.6469 41.2786"/><path class="cls-3" d="m97.6538,41.2821c.0117.0062.023.0118.0346.0179-.0117-.0061-.0229-.0118-.0347-.0179h0Z"/><path class="cls-3" d="m96.1765,40.4711c.0042.0024.0079.0046.0121.007.3087.176.6367.351.9603.527-.3277-.1783-.6602-.3553-.9725-.534Z"/><path class="cls-3" d="m115.4552,37.8828c-.1343-.0264-.2886-.064-.429-.0936.1301.0276.2725.0623.3975.0872.0103.002.0212.0045.0316.0065Z"/><path class="cls-3" d="m98.4672,41.6918c.2949.1479.5899.298.8788.4329.0068.0032.0138.0067.0206.0098-.2955-.1376-.5976-.2914-.8995-.4427Z"/><path class="cls-3" d="m99.3667,42.1345c-.0068-.0032-.0138-.0067-.0206-.0098.0717.0334.1469.075.218.1074l.0002-.0004c-.0644-.0294-.1327-.067-.1976-.0972Z"/><path class="cls-3" d="m96.0961,40.427s.0004.0005.0006.0008c.0294.0168.0623.0335.0919.0504-.0042-.0024-.0079-.0046-.0121-.007-.0258-.0148-.0547-.0294-.0803-.0441Z"/><path class="cls-3" d="m115.4882,37.8905v-.0005c-.0103-.002-.0226-.0052-.033-.0072-.0103-.002-.0212-.0045-.0316-.0065.0203.0041.0444.0102.0646.0142Z"/><path class="cls-4" d="m149.9269,57.73c.0966.0372.2056.0842.2849.1077.1588.048.3475.081.551.1059.0128.0016.0255.0033.0385.0048l-.9673-.5565-.1415.2459c.0127.0055.0272.0125.0396.0179.0735.0316.1288.0486.1948.0743Z"/><path class="cls-4" d="m151.8842,58.5728c-.2286-.0006-.4413-.0139-.6569-.0248-.0847-.0043-.1763-.0029-.2585-.0096-.0175-.0014-.0375-.0007-.0549-.0023-.08-.0071-.1457-.0284-.2228-.0382-.2231-.0283-.4471-.0555-.6421-.1131-.0226-.007-.0535-.022-.0768-.0297-.1504-.0488-.3168-.1136-.4958-.1909-.0261-.0112-.0454-.0158-.072-.0276l-.1396.2417,7.4267,4.2791s.0002-.0004.0003-.0007h-.0001c.0148-.0303.0251-.058.0394-.0875.0634-.1315.1256-.2599.1752-.3898.0043-.0114.0072-.0239.0114-.0353.0396-.108.0717-.2232.0986-.3459.0094-.0423.0175-.0868.025-.1319.0057-.0344.0056-.0797.0102-.116l-5.1664-2.978c-.0006,0-.0012,0-.0018,0l.001.0006Z"/><path class="cls-4" d="m150.9688,58.5384c-.0007,0-.0014-.0002-.0021-.0003-.0176-.0007-.0361-.0005-.0527-.002.0174.0016.0374.0009.0549.0023Z"/><path class="cls-4" d="m157.0564,61.586c.0014-.0106.0043-.0188.0056-.0296l-.0106-.0061c-.0046.0364-.0045.0816-.0102.116.0046-.0275.0112-.0516.0152-.0803Z"/><path class="cls-4" d="m149.6967,58.2488c-.0744-.0291-.1406-.05-.2204-.0845.1791.0773.3455.1421.4958.1909-.0838-.0276-.1825-.07-.2755-.1063Z"/><polygon class="cls-4" points="151.885 58.5723 151.884 58.5717 151.8822 58.5717 151.8831 58.5722 151.885 58.5723"/><path class="cls-4" d="m151.2273,58.548c-.0339-.0018-.0698-.0018-.1033-.0039-.0504-.0031-.1057-.0017-.1552-.0057.0822.0067.1738.0052.2585.0096Z"/><path class="cls-4" d="m150.8079,57.9522l-.0067-.0038c-.013-.0015-.0257-.0032-.0385-.0048.0167.0021.0283.0068.0452.0087Z"/><path class="cls-4" d="m157.0161,61.7982c-.027.1227-.0591.2379-.0986.3459.0144-.0396.0264-.0818.0394-.1228.0222-.0707.0421-.1455.0592-.2231Z"/><path class="cls-4" d="m149.7321,57.6557c-.0125-.0054-.0269-.0124-.0396-.0179l-.0013.0023c.0158.0068.0255.009.041.0156Z"/><path class="cls-3" d="m150.2126,57.8389c.1536.0464.338.0776.5344.1027-.1964-.0258-.3806-.0563-.5347-.1028,0,0,.0002.0001.0003.0001Z"/><path class="cls-3" d="m149.4668,58.16c-.0195-.0085-.0406-.0184-.0605-.0272l-.0018.0031c.023.0104.0397.0142.0623.024Z"/><path class="cls-3" d="m156.914,62.1563c-.0029.0078-.0048.0165-.0077.0242-.0497.1301-.1119.2576-.1754.3888-.0142.0295-.0245.0574-.0393.0875l.0005.0003c.0797-.1625.1548-.3185.215-.4764.0029-.0076.0042-.0168.007-.0244Z"/><path class="cls-3" d="m150.2082,57.8373c-.0786-.0234-.1859-.0701-.2813-.1073-.063-.0242-.116-.0405-.1858-.0703.1758.0753.3367.1383.4671.1776Z"/><path class="cls-3" d="m150.6911,58.4979c.0132.0017.0262.0038.0392.0057-.2378-.0286-.4738-.0585-.6806-.1204-.0128-.0038-.0291-.0112-.0422-.0153.0123.0039.0291.0121.0413.0158.1951.0583.4191.0856.6423.1141Z"/><path class="cls-3" d="m150.9139,58.5361c-.066-.0059-.1194-.0248-.1836-.0325-.013-.002-.026-.004-.0392-.0057.0771.0098.1429.0311.2228.0382Z"/><path class="cls-3" d="m149.6967,58.2488c.1049.041.2177.0898.3109.1191.0131.0041.0294.0114.0422.0153.2068.0619.4428.0919.6806.1204.0783.0119.1531.0276.2363.0345.0524.0021.1063.0028.1573.006.246.015.4944.0276.7582.0276l-1.074-.6183c-.0229-.0027-.0387-.0089-.0612-.0118-.1964-.0251-.3808-.0563-.5344-.1027,0,0-.0002-.0001-.0003-.0001-.0001,0-.0002,0-.0004,0-.001-.0003-.0027-.0011-.0037-.0014-.1304-.0392-.2913-.1023-.4671-.1776-.0189-.0081-.031-.0106-.0504-.019l.0004-.0007s-.0001,0-.0002,0l-.2847.4929c.0198.0088.041.0187.0605.0272.0835.0366.1523.0585.2299.0888Z"/><path class="cls-3" d="m150.9666,58.5381c-.0833-.0069-.158-.0226-.2363-.0345.0641.0077.1176.0266.1836.0325.0167.0015.0352.0013.0527.002Z"/><path class="cls-3" d="m157.0171,61.7949c-.0175.0787-.0374.1548-.0602.2264-.0142.045-.027.0917-.0429.135-.0028.0076-.0041.0168-.007.0244-.0601.158-.1353.314-.215.4764l.1855.1071.2838-.4916.2346-.5223.0157.0071-.3497-.2017c-.0014.011-.0043.0195-.0057.0303-.0038.0291-.0107.0537-.0153.0815-.0073.0436-.0149.0865-.0239.1274Z"/><polygon class="cls-3" points="157.1614 62.2726 157.447 61.7777 157.4118 61.7573 157.396 61.7503 157.1614 62.2726"/><path class="cls-3" d="m149.9269,57.73c-.066-.0257-.1213-.0427-.1948-.0743.0028.0012.0062.0029.009.0041.0698.0298.1228.0461.1858.0703Z"/><path class="cls-3" d="m151.8831,58.5722c-.2281-.0008-.441-.0133-.6559-.0242.2156.0109.4283.0242.6569.0248l-.001-.0006Z"/><path class="cls-3" d="m150.049,58.3848c.195.0576.419.0848.6421.1131-.2231-.0285-.4472-.0558-.6423-.1141-.0121-.0037-.0289-.0119-.0413-.0158-.011-.0035-.0242-.0092-.0354-.0128.0234.0077.0542.0226.0768.0297Z"/><path class="cls-3" d="m156.6915,62.6568h.0001c.0148-.0301.0251-.058.0393-.0875-.0143.0295-.0247.0572-.0394.0875Z"/><path class="cls-3" d="m157.041,61.6675s0-.0009.0001-.0012c-.0076.0451-.0156.0896-.025.1319.0002-.0012.0007-.0021.001-.0033.009-.0409.0167-.0838.0239-.1274Z"/><path class="cls-3" d="m149.7411,57.6597c-.0028-.0012-.0062-.0029-.009-.0041-.0154-.0066-.0251-.0088-.041-.0156l-.0004.0007c.0193.0085.0314.011.0504.019Z"/><path class="cls-3" d="m151.2273,58.548c.2149.0109.4278.0234.6559.0242l-.001-.0005c-.2639,0-.5123-.0126-.7582-.0276.0335.0021.0695.0021.1033.0039Z"/><path class="cls-3" d="m150.0075,58.3679c-.0932-.0293-.2059-.0781-.3109-.1191.093.0363.1917.0787.2755.1063.0112.0036.0244.0093.0354.0128Z"/><path class="cls-3" d="m157.0171,61.7949c-.0002.0012-.0007.0021-.001.0033-.0172.0776-.037.1525-.0592.2231.0228-.0716.0427-.1478.0602-.2264Z"/><path class="cls-3" d="m157.041,61.6675c.0046-.0278.0115-.0524.0153-.0815-.004.0287-.0106.0529-.0152.0803,0,.0004,0,.0009-.0001.0012Z"/><path class="cls-3" d="m128.6814,57.6171c1.9337-.0036,4.784-.9167,4.7983-.9185l-.1719-.5425c-.0018,0-.1755.0555-.4691.1396-.8773.2524-2.8289.7556-4.1573.752-.3402.0018-.6356-.0322-.8487-.1002-.231-.0717-.4834-.0985-.7537-.0985-.6625.0018-1.452.1576-2.3527.308-.9006.1504-1.905.2972-2.9739.2972-.9973,0-2.0482-.1289-3.1207-.5031-1.939-.6768-4.0482-1.9533-5.6613-3.0616-.8075-.5533-1.4932-1.0635-1.9766-1.4359-.2417-.1862-.4315-.3366-.5622-.4405-.1289-.1056-.197-.1629-.197-.1629l-.3652.4387c.0143.0071,4.5352,3.7814,8.5743,5.1994,1.1441.4011,2.2613.5371,3.3087.5371,1.1208-.0018,2.1592-.1558,3.0688-.308.9059-.1522,1.6866-.299,2.2578-.299.2327,0,.4297.025.5837.0734.299.0931.6428.1254,1.0187.1254Z"/><path class="cls-3" d="m114.6256,68.2116c-.9669.0823-2.2613.1092-3.5325.1092-1.1906,0-2.3616-.0233-3.2353-.0465-.8737-.0251-1.4467-.0483-1.4484-.0483l-.0233.5693c.0018,0,2.3115.0948,4.707.0948,1.2802,0,2.5836-.0269,3.5809-.111,2.8486-.2453,4.8914-.82,6.1017-1.504l-.2793-.496c-1.0922.6213-3.0795,1.196-5.8708,1.4324Z"/></svg>