<?xml version="1.0" encoding="utf-8"?>
<!-- Generator: Adobe Illustrator 27.7.0, SVG Export Plug-In . SVG Version: 6.00 Build 0)  -->
<svg version="1.1" id="Layer_1" xmlns="http://www.w3.org/2000/svg" xmlns:xlink="http://www.w3.org/1999/xlink" x="0px" y="0px"
	 width="200px" height="200px" viewBox="0 0 200 200" style="enable-background:new 0 0 200 200;" xml:space="preserve">
<style type="text/css">
	.st0{fill:#FF6600;}
</style>
<g>
	<path class="st0" d="M78.3,84l3.8-4.2c3.1-3.4,4.7-7.9,4.5-12.6s-2.3-8.9-5.7-12.1l-6.4-5.8c-3.2-2.9-7.3-4.5-11.6-4.5
		c-4.9,0-9.6,2.1-12.9,5.7l-3.8,4.2c-0.5,0.5-1,1.1-1.4,1.8l-0.2,0.2c-3.6,3-6.6,10.5-4.8,19.7c8.1,42.5,43.7,74.8,86.7,78.6
		c5.6,0.5,10.9-0.7,14.9-3.1c1.6-0.9,3-2.1,4.2-3.4l3.8-4.2c6.4-7.1,5.9-18.2-1.2-24.6l-6.4-5.8c-3.2-2.9-7.3-4.5-11.6-4.5
		c-4.9,0-9.6,2.1-12.9,5.7l-3.8,4.2c-1.6,1.8-2.8,3.8-3.6,6.1l-0.3,1l-1-0.4c-16.8-6.7-30.6-19.4-38.7-35.7l-0.5-1.1l1.1-0.3
		C73.4,88.1,76.2,86.3,78.3,84"/>
	<g>
		<path class="st0" d="M160.5,163.9c-2.2-2.2-4.3-4.1-6.3-6.1c-2.1-2.1-2.2-4.7-0.4-6.6c1.9-1.9,4.6-1.8,6.8,0.3c3,3,6,6,9,9
			c2.3,2.4,2.3,4.8,0,7.1c-16.9,17-37.2,26.8-61.1,28.9c-43.6,4-84.1-22.1-99.5-63.1C-7.8,88.7,12,36.7,54.4,14.3
			c52.2-27.4,115.6-3.4,136.4,51.8c8,21.1,8.2,42.6,1.3,64.1c-1,3-3.2,4.3-5.8,3.6c-2.5-0.7-3.7-3.3-2.8-6.2
			c3.4-10.6,4.9-21.6,4.2-32.7c-1.3-20.4-8.6-38.3-22.2-53.4c-15.3-17.1-34.5-27-57.3-29C66.8,8.7,29.6,33.3,16.4,72.9
			c-11.9,35.6,1.3,76.3,31.8,98.2c17.9,12.9,37.8,18.6,59.7,16.6C127.8,185.8,145.3,177.9,160.5,163.9z"/>
		<path class="st0" d="M99.7,200c-41.1,0-78.8-25.9-93.6-65.4C-2.2,112.2-2,87.3,6.7,64.4C15.4,41.6,31.8,22.8,53,11.7
			c25.7-13.6,55.8-15.4,82.7-5.2C162.3,16.6,183.4,38,193.6,65c8.1,21.5,8.5,43.7,1.3,66.1c-1.5,4.5-5.3,6.8-9.5,5.6
			c-1.9-0.5-3.5-1.8-4.4-3.5c-1-1.9-1.2-4.2-0.4-6.5c3.4-10.5,4.8-21.2,4.1-31.6c-1.2-19.7-8.4-37.1-21.4-51.6
			c-14.9-16.7-33.5-26.1-55.3-28c-40.2-3.6-75.8,19.8-88.8,58.3c-11.5,34.5,1.1,73.5,30.7,94.8c17.4,12.5,36.8,17.9,57.7,16.1
			c18.2-1.6,34.1-8.4,48.4-20.8c-1.4-1.3-2.7-2.6-4-3.9c-3.2-3.2-3.4-7.8-0.4-10.8c1.4-1.5,3.2-2.3,5.2-2.3c2.1,0,4.2,0.9,5.9,2.6
			c2.5,2.5,5.8,5.7,9.1,9c3.5,3.6,3.5,7.8,0,11.3c-17.5,17.6-38.6,27.6-62.9,29.8C105.7,199.9,102.7,200,99.7,200z M100.2,6.1
			c-15.2,0-30.5,3.7-44.4,11c-40.9,21.5-60.3,72.2-44,115.4c14.9,39.9,54.5,65,96.4,61.2c22.9-2.1,42.8-11.5,59.2-28.1
			c1.2-1.2,1.2-1.7,0-2.9c-3.2-3.3-6.5-6.5-9-9c-0.5-0.5-1.1-0.8-1.6-0.8c-0.3,0-0.6,0.2-0.9,0.5c-0.7,0.7-0.5,1.5,0.4,2.4
			c1.4,1.4,2.7,2.7,4.2,4.1c0.7,0.6,1.4,1.3,2.1,2l2.3,2.2l-2.4,2.2c-15.7,14.4-34,22.6-54.3,24.4c-22.4,2-43.1-3.8-61.7-17.2
			c-15.2-10.9-26.9-27.1-32.9-45.5s-6-38.3,0-56.1c6.7-20.1,19.4-36.7,36.5-48C67.2,12.5,87.4,7.5,108.4,9.4
			c23.4,2.1,43.3,12.3,59.2,30c13.9,15.6,21.7,34.1,23,55.2c0.7,11.1-0.8,22.6-4.4,33.8c-0.2,0.7-0.2,1.4,0,1.9
			c0.1,0.3,0.4,0.5,0.8,0.6c0.4,0.1,1.5,0.4,2.1-1.6c6.8-21.1,6.4-42-1.2-62.2c-9.5-25.4-29.4-45.5-54.4-55
			C122.8,8.1,111.5,6.1,100.2,6.1z"/>
	</g>
</g>
</svg>
