<?xml version="1.0" encoding="utf-8"?>
<!-- Generator: Adobe Illustrator 27.8.1, SVG Export Plug-In . SVG Version: 6.00 Build 0)  -->
<!DOCTYPE svg PUBLIC "-//W3C//DTD SVG 1.1//EN" "http://www.w3.org/Graphics/SVG/1.1/DTD/svg11.dtd" [
	<!ENTITY ns_extend "http://ns.adobe.com/Extensibility/1.0/">
	<!ENTITY ns_ai "http://ns.adobe.com/AdobeIllustrator/10.0/">
	<!ENTITY ns_graphs "http://ns.adobe.com/Graphs/1.0/">
	<!ENTITY ns_vars "http://ns.adobe.com/Variables/1.0/">
	<!ENTITY ns_imrep "http://ns.adobe.com/ImageReplacement/1.0/">
	<!ENTITY ns_sfw "http://ns.adobe.com/SaveForWeb/1.0/">
	<!ENTITY ns_custom "http://ns.adobe.com/GenericCustomNamespace/1.0/">
	<!ENTITY ns_adobe_xpath "http://ns.adobe.com/XPath/1.0/">
]>
<svg version="1.1" id="Layer_1" xmlns:x="&ns_extend;" xmlns:i="&ns_ai;" xmlns:graph="&ns_graphs;"
	 xmlns="http://www.w3.org/2000/svg" xmlns:xlink="http://www.w3.org/1999/xlink" x="0px" y="0px" width="500px" height="500px"
	 viewBox="0 0 500 500" style="enable-background:new 0 0 500 500;" xml:space="preserve">
<style type="text/css">
	.st0{fill:#FE5900;}
</style>
<metadata>
	<sfw  xmlns="&ns_sfw;">
		<slices></slices>
		<sliceSourceBounds  bottomLeftOrigin="true" height="388.7505" width="439.8762" x="30.1238" y="55.5997"></sliceSourceBounds>
	</sfw>
</metadata>
<g>
	<g>
		<g>
			<path class="st0" d="M324.3,441.9c-4.1,0-8.1-0.3-12.2-0.9c-41.3-6-105.7-28.3-178-100.6s-94.6-136.7-100.6-178
				c-3.9-26.9,5.4-54.6,24.8-74L79.7,67c11.8-11.8,31-11.8,42.8,0l57.6,57.6c11.8,11.8,11.8,31,0,42.8l-29,29
				c-2.2,2.2-3.1,5.6-2.1,8.4c10.4,31.5,50.2,69.7,50.6,70c0.1,0.1,0.1,0.1,0.2,0.2c0.4,0.4,38.5,40.1,70,50.6
				c2.9,1,6.2,0.1,8.4-2.1l29-29c11.8-11.8,31-11.8,42.8,0l57.6,57.6c11.8,11.8,11.8,31,0,42.8l0,0l-21.4,21.4
				C369.6,432.7,347.2,441.9,324.3,441.9z M101.1,70.6c-4.6,0-9.1,1.7-12.6,5.2L67.1,97.1c-16.7,16.7-24.6,40.4-21.3,63.4
				c5.7,39.4,27.2,101.1,97.1,171s131.6,91.4,171,97.1c23,3.3,46.8-4.6,63.4-21.3l21.4-21.4l0,0c7-7,7-18.3,0-25.2l-57.6-57.6
				c-7-6.9-18.3-6.9-25.2,0l-29,29c-5.6,5.6-13.7,7.6-21.1,5.1c-33.9-11.2-72.3-50.8-75-53.7c-2.9-2.7-42.4-41.1-53.7-75
				c-2.4-7.3-0.4-15.6,5.1-21.1l29-29c7-7,7-18.3,0-25.2l-57.6-57.6C110.2,72.3,105.7,70.6,101.1,70.6z"/>
			<path class="st0" d="M324.2998,444.4003c-4.1885,0-8.2979-0.3027-12.5615-0.9268
				c-41.6836-6.0557-106.6479-28.5469-179.4058-101.3057C59.5737,269.4091,37.082,204.4447,31.0259,162.7592
				c-4.0137-27.6836,5.5215-56.1421,25.5063-76.1269l21.4004-21.3999c6.1787-6.1792,14.4067-9.5825,23.1675-9.5825
				s16.9888,3.4033,23.1675,9.5825l57.6001,57.6001c12.7749,12.7744,12.7749,33.5605,0,46.335l-29,29
				c-1.5537,1.5542-2.1763,3.936-1.5132,5.792c10.105,30.6055,48.2544,67.4097,49.8394,68.9107l0.4819,0.4727
				c3.9609,4.0752,39.5464,40.0957,68.915,49.8848c1.9424,0.6719,4.2803,0.0654,5.8418-1.4951l29-29
				c12.7754-12.7764,33.5635-12.7744,46.335,0l57.5996,57.5996c12.7754,12.7744,12.7754,33.5615,0,46.3359l-21.3994,21.3994
				C371.0254,434.8066,347.8223,444.4003,324.2998,444.4003z M101.1001,60.6489c-7.1099,0-14.2197,2.7061-19.6323,8.1187
				L60.0674,90.1674c-18.8745,18.8755-27.8813,45.7441-24.0933,71.8735c5.9473,40.9355,28.105,104.8027,99.8936,176.5918
				c71.7881,71.7881,135.6548,93.9463,176.5913,99.8936c4.0244,0.5879,7.8975,0.874,11.8408,0.874
				c22.2178,0,44.1396-9.0684,60.1436-24.8789l21.3887-21.3887c10.8252-10.8252,10.8252-28.4404,0-39.2656l-57.5996-57.5996
				c-5.2354-5.2344-12.207-8.1172-19.6318-8.1172c-7.4258,0-14.3975,2.8828-19.6328,8.1172l-29,29
				c-2.9287,2.9287-7.2422,3.9863-10.9824,2.6953c-30.4673-10.1553-66.8472-46.9707-70.895-51.1348l-0.2622-0.2646l0.0073-0.0078
				c-3.5278-3.3271-40.9092-39.773-51.2095-70.9717c-1.29-3.6108-0.2104-8.0352,2.7065-10.9517l29-29
				c5.2344-5.2349,8.1172-12.207,8.1172-19.6323s-2.8828-14.3975-8.1172-19.6323l-57.6001-57.6001
				C115.3198,63.3549,108.21,60.6489,101.1001,60.6489z M324.3037,431.8408c-3.582,0-7.1758-0.252-10.7588-0.7666
				c-39.792-5.7559-102.0034-27.3965-172.4126-97.8066C70.7236,262.8583,49.082,200.6479,43.3257,160.8578
				c-3.4194-23.832,4.8076-48.3267,22.0068-65.5254l21.4038-21.3042C90.5576,70.207,95.6606,68.1,101.1001,68.1
				c5.3926,0,10.4502,2.0264,14.2412,5.7061l57.6265,57.6265c3.834,3.7783,5.9629,8.8462,5.9824,14.2568
				c0.0195,5.459-2.105,10.6011-5.9824,14.478l-29,29c-4.8423,4.8428-6.606,12.1245-4.4927,18.5518
				c11.3672,34.1025,52.6167,73.5679,53.0283,73.9507l0.126,0.127c0.3848,0.4131,39.4146,41.6182,73.9546,53.0293
				c6.4863,2.1924,13.5869,0.4678,18.5488-4.4941l29-29c7.8643-7.8643,20.748-7.873,28.7217-0.0127l57.6133,57.6133
				c3.834,3.7793,5.9629,8.8467,5.9824,14.2578c0.0195,5.459-2.1055,10.6006-5.9824,14.4775l-21.4004,21.3994
				C364.5225,423.7001,344.6348,431.8408,324.3037,431.8408z M101.1001,73.1c-4.104,0-7.9512,1.5869-10.8325,4.4678L68.8638,98.872
				c-16.0874,16.0869-23.7856,38.9941-20.5894,61.2729c5.6475,39.0366,26.9561,100.1489,96.3931,169.5874
				c69.4385,69.4385,130.5513,90.7461,169.5903,96.3926c22.3613,3.209,45.2646-4.4873,61.2686-20.5879l21.4062-21.4043
				c2.9277-2.9277,4.5322-6.8076,4.5176-10.9248c-0.0146-4.0684-1.6143-7.8779-4.5049-10.7275l-57.6133-57.6133
				c-6.0117-5.9229-15.7344-5.9287-21.6641,0l-29,29c-6.3145,6.3154-15.3828,8.5-23.668,5.7012
				c-35.0571-11.582-74.1812-52.4141-75.9692-54.3008c-1.8984-1.8008-42.5732-40.7886-54.3022-75.9771
				c-2.7002-8.2119-0.46-17.4946,5.7041-23.6582l29-29c2.9277-2.9282,4.5322-6.8081,4.5176-10.9248
				c-0.0146-4.0684-1.6147-7.8779-4.5049-10.7271l-57.6128-57.6128C109.0059,74.6249,105.1851,73.1,101.1001,73.1z"/>
		</g>
	</g>
	<g>
		<g>
			<g>
				<path class="st0" d="M390.7,293.5c-9.1,0-17.4-5.4-21-13.8c-2.4-5.6-2.5-11.8-0.3-17.5s6.6-10.2,12.2-12.6
					c25-10.9,40-26.7,40-42.3c0-28.9-47.9-54.2-103-54.9v42.2c0,2.4-1.4,4.7-3.7,5.7c-2.2,1-4.9,0.6-6.7-1.1L236,134.1
					c-1.3-1.2-2-2.8-2-4.6s0.7-3.4,2-4.6l72.2-65.1c1.8-1.6,4.4-2.1,6.7-1.1c2.2,1,3.7,3.2,3.7,5.7v42.2
					c83.7,0.8,148.9,44.8,148.9,100.8c0,34.5-25.3,66-67.5,84.4C396.9,292.9,393.8,293.5,390.7,293.5z M316.1,139.9
					c65,0,117.8,30.2,117.8,67.3c0,20.7-17.7,40.8-47.4,53.7c-2.6,1.1-4.6,3.2-5.6,5.8c-1,2.6-1,5.5,0.1,8c1.7,3.9,5.5,6.3,9.6,6.3
					c1.4,0,2.8-0.3,4.2-0.9c37.6-16.3,60.1-43.6,60.1-73c0-49.5-61-88.4-138.9-88.4c-1.2,0-2.4,0-3.6,0c-1.6,0.1-3.3-0.6-4.5-1.8
					s-1.9-2.8-1.9-4.4V78.3l-56.7,51.2l56.7,51.1v-34.4c0-3.4,2.7-6.1,6.1-6.2h1.1C314.2,140,315.2,139.9,316.1,139.9z"/>
				<path class="st0" d="M390.7002,295.9999c-10.166,0-19.3105-6.0117-23.2979-15.3154c-2.6523-6.1875-2.7705-13.0723-0.334-19.3848
					c2.4414-6.3291,7.2529-11.2998,13.5469-13.9976c24.0918-10.5044,38.4844-25.4604,38.4844-40.002
					c0-26.8032-45.5068-50.9453-98-52.3506V194.6c0,3.4814-2.042,6.6187-5.2021,7.9927c-3.1133,1.4165-6.9102,0.7891-9.4141-1.5752
					l-72.1577-65.0605c-1.8301-1.6899-2.8257-3.9756-2.8257-6.457c0-2.4814,0.9956-4.7671,2.8042-6.437l72.2222-65.1201
					c2.5801-2.292,6.2549-2.8906,9.3701-1.5356c3.1758,1.4438,5.2031,4.5742,5.2031,7.9927v39.7363
					c40.0469,0.79,77.1572,11.439,104.7383,30.0928C454.3164,153.4892,470,179.4755,470,207.3998
					c0,35.4453-25.7949,67.854-69.001,86.6919l-0.1621,0.0635C397.3896,295.3798,393.9795,295.9999,390.7002,295.9999z
					 M316.0996,149.8676l2.5322,0.0322c57.1689,0.7266,105.4678,27.0127,105.4678,57.4004c0,16.5918-15.5146,33.2612-41.501,44.5913
					c-5.0596,2.1689-8.9131,6.1465-10.8662,11.208c-1.9639,5.0889-1.8691,10.6348,0.2656,15.6162
					c3.1982,7.4619,10.5391,12.2842,18.7021,12.2842c2.6826,0,5.502-0.5137,8.3818-1.5273
					C440.3584,271.4492,465,240.7724,465,207.3998c0-54.3369-64.3174-97.5151-146.4238-98.2998l-2.4766-0.0239V64.3998
					c0-1.4629-0.877-2.8066-2.2344-3.4238c-1.2988-0.5649-2.8877-0.3003-4.0039,0.6924l-72.187,65.0884
					c-0.772,0.7124-1.1743,1.6421-1.1743,2.7432s0.4023,2.0308,1.1958,2.7632l72.1782,65.0801
					c1.085,1.0229,2.6729,1.2808,3.9922,0.6812c1.3506-0.5879,2.2334-1.9575,2.2334-3.4243V149.8676z M390.5996,283.4999
					c-5.1572,0-9.8252-3.0615-11.8916-7.8008c-1.3369-3.04-1.3896-6.6504-0.1406-9.8965c1.2432-3.2344,3.7793-5.8604,6.959-7.2051
					c28.7168-12.4732,45.874-31.6909,45.874-51.3975c0-35.731-51.7236-64.8003-115.3008-64.8003
					c-0.3965,0-0.8154,0.0225-1.2451,0.0449c-0.542,0.0278-1.0977,0.0552-1.6543,0.0552h-1.1006
					c-1.9863,0.0596-3.5996,1.6855-3.5996,3.7002v40.0186l-62.9321-56.7168L308.5,72.6742v39.8257
					c0,0.9307,0.4258,1.8901,1.168,2.6318c0.7051,0.7056,1.7158,1.125,2.5771,1.0732l0.1553-0.0049H316
					c79.29,0,141.4004,39.9282,141.4004,90.8999c0,30.4238-23.0303,58.5708-61.6064,75.2935
					C394.0801,283.1288,392.3359,283.4999,390.5996,283.4999z M316.0996,137.3998c66.334,0,120.3008,31.3125,120.3008,69.8003
					c0,21.7603-18.2822,42.6924-48.9043,55.9932c-1.9863,0.8398-3.4922,2.4014-4.2627,4.4043
					c-0.7783,2.0244-0.7588,4.2461,0.0547,6.0957c1.6992,3.8945,6.2061,5.9678,10.5254,4.1084
					c36.6826-15.9014,58.5869-42.333,58.5869-70.7017c0-48.168-59.9141-85.8999-136.4004-85.8999h-3.5303
					c-2.2842,0.1187-4.6348-0.8291-6.3379-2.5332c-1.6719-1.6714-2.6318-3.9199-2.6318-6.167V83.9262l-50.4678,45.5718
					L303.5,174.9814v-28.7812c0-4.7373,3.7451-8.5581,8.5264-8.6992l1.1738-0.001c0.4697,0,0.9404-0.0254,1.3975-0.0488
					C315.1162,137.4247,315.6211,137.3998,316.0996,137.3998z"/>
			</g>
		</g>
	</g>
</g>
</svg>
