<?xml version="1.0" encoding="utf-8"?>
<!-- Generator: Adobe Illustrator 27.8.1, SVG Export Plug-In . SVG Version: 6.00 Build 0)  -->
<!DOCTYPE svg PUBLIC "-//W3C//DTD SVG 1.1//EN" "http://www.w3.org/Graphics/SVG/1.1/DTD/svg11.dtd" [
	<!ENTITY ns_extend "http://ns.adobe.com/Extensibility/1.0/">
	<!ENTITY ns_ai "http://ns.adobe.com/AdobeIllustrator/10.0/">
	<!ENTITY ns_graphs "http://ns.adobe.com/Graphs/1.0/">
	<!ENTITY ns_vars "http://ns.adobe.com/Variables/1.0/">
	<!ENTITY ns_imrep "http://ns.adobe.com/ImageReplacement/1.0/">
	<!ENTITY ns_sfw "http://ns.adobe.com/SaveForWeb/1.0/">
	<!ENTITY ns_custom "http://ns.adobe.com/GenericCustomNamespace/1.0/">
	<!ENTITY ns_adobe_xpath "http://ns.adobe.com/XPath/1.0/">
]>
<svg version="1.1" id="Layer_1" xmlns:x="&ns_extend;" xmlns:i="&ns_ai;" xmlns:graph="&ns_graphs;"
	 xmlns="http://www.w3.org/2000/svg" xmlns:xlink="http://www.w3.org/1999/xlink" x="0px" y="0px" width="500px" height="500px"
	 viewBox="0 0 500 500" style="enable-background:new 0 0 500 500;" xml:space="preserve">
<style type="text/css">
	.st0{fill:#FE5900;}
</style>
<metadata>
	<sfw  xmlns="&ns_sfw;">
		<slices></slices>
		<sliceSourceBounds  bottomLeftOrigin="true" height="285" width="451.1" x="24.4" y="107.5"></sliceSourceBounds>
	</sfw>
</metadata>
<g>
	<path class="st0" d="M105.3,180.2375V257c0,2.4,1.5,4.5,3.7,5.4l76.9,31c0.4068,0.1743,0.8464,0.2754,1.2816,0.3343
		c0.0333,0.0048,0.067,0.0079,0.1004,0.0121c0.2793,0.0332,0.5563,0.0536,0.8181,0.0536c0.2171,0,0.4354-0.0236,0.6555-0.0562
		c0.1341-0.0176,0.2668-0.0404,0.4016-0.0679c0.3641-0.0751,0.7409-0.1754,1.1429-0.2759l76.9-31c2.2-0.9,3.7-3,3.7-5.4v-76.9
		c0-2-1-3.8-2.6-4.9c-0.6302-0.4333-1.339-0.7216-2.0755-0.8755L190.4,140.8c-1.5-0.7-3.2-0.7-4.7,0l-47.7198,21.0985
		c-0.348,0.1155-0.6835,0.2637-1.0034,0.4436l-27.2069,12.0291c-0.6623,0.1633-1.2986,0.4361-1.8699,0.8289
		c-0.6508,0.4474-1.1955,1.0312-1.6208,1.6895c-0.097,0.1443-0.1865,0.2927-0.2696,0.4447
		c-0.0038,0.0072-0.0083,0.0142-0.0121,0.0214c-0.335,0.6184-0.5526,1.2943-0.6443,1.9972
		c-0.0033,0.0246-0.0065,0.049-0.0095,0.0736c-0.0241,0.2051-0.038,0.4117-0.0402,0.6203
		c-0.0002,0.0178-0.0035,0.0355-0.0035,0.0533v0.0614C105.3002,180.1868,105.2994,180.2121,105.3,180.2375z M139.9055,173.8391
		l60.2375,26.0193l-12.043,4.8548l-61.7442-24.8904L139.9055,173.8391z M162.3823,163.913l61.2735,26.4668l-8.2546,3.3276
		l-60.9207-26.3049L162.3823,163.913z M221.2,203.9879l11.3-4.5581V213.2l-11.3,5V203.9879z M117,188.8l65.2,26.2v64.3L117,253
		V188.8z M259.1,253L194,279.2596v-64.3l15.5-6.2523V227.1c0,2,1,3.8,2.7,4.9c1,0.6,2.1,0.9,3.2,0.9c0.8,0,1.6-0.1,2.3-0.3l23-10.2
		c2.1-1,3.5-3.1,3.5-5.4v-22.2898l14.9-6.0103V253z M188,152.6l61.7396,27.2649l-10.8255,4.364l-61.957-26.7523L188,152.6z"/>
	<path class="st0" d="M475.4999,320.6048c0-0.0016,0.0001-0.0032,0.0001-0.0048c0-0.0008-0.0001-0.0016-0.0001-0.0024V238.5
		c0-8.1-3.1-15.6-8.8-21.3l-30.8-30.8c-5.7-5.7-13.3-8.8-21.3-8.8h-62.9v-64.2c0-3.3-2.7-5.9-5.9-5.9H30.3c-3.3,0-5.9,2.7-5.9,5.9
		v207.2c0,0.4212,0.0451,0.8306,0.1285,1.2251c0.5781,18.6577,15.4409,33.7703,34.0026,34.7263
		C61.4321,376.8364,78.9521,392.5,100,392.5c21.0048,0,38.4977-15.5992,41.2999-35.9h217.3141
		c2.8453,20.2614,20.3548,35.9,41.3859,35.9c21.0204,0,38.523-15.6224,41.382-35.9453c18.9105-0.9285,34.011-16.55,34.1132-35.7598
		c0.0005-0.0319,0.0048-0.0629,0.0048-0.0949V320.6048z M134.2,326.5h211.6H365.8c-3.8,5.4-6.3,11.7-7.2,18.4H141.5
		C140.5,338.2,138,331.9,134.2,326.5z M414.7001,189.3c4.9,0,9.5,1.9,13,5.4l30.8,30.8c3.5,3.5,5.4,8.1,5.4,13v76.2h-42.3823
		c-1.062-0.6209-2.1494-1.1813-3.2499-1.7086c-0.3196-0.1552-0.6411-0.3043-0.964-0.451c-0.4946-0.2225-0.9924-0.434-1.4936-0.6376
		c-0.4537-0.1851-0.908-0.3665-1.3676-0.5352c-0.4817-0.177-0.9678-0.3379-1.4547-0.4976c-0.4075-0.1326-0.813-0.2698-1.2245-0.3897
		c-0.8322-0.246-1.6716-0.4626-2.5165-0.658c-0.0319-0.0071-0.063-0.0165-0.0949-0.0236c-2.9598-0.6774-5.9878-1.0585-9.0519-1.0989
		c-5.1994,0-10.2992,0.9796-15.0699,2.8331c-0.0839,0.0319-0.1666,0.0667-0.2502,0.0992c-0.7134,0.2826-1.4197,0.5817-2.1169,0.9042
		c-0.4114,0.1871-0.817,0.3846-1.2221,0.5856c-0.3451,0.1738-0.688,0.3509-1.0285,0.5347c-0.6229,0.3317-1.237,0.6783-1.8426,1.0432
		h-26.8698V189.3H414.7001z M36.2,119.2H340v63.2471c-0.0627,0.3431-0.1,0.6942-0.1,1.0529v131.2H121.5198
		c-6.4589-3.8322-13.8887-5.9009-21.4197-6c-4.2059,0-8.3451,0.6483-12.3013,1.8688c-0.0272,0.0082-0.0539,0.0176-0.0811,0.0258
		c-0.7855,0.2441-1.5638,0.5074-2.3332,0.798c-0.4677,0.1727-0.9289,0.3616-1.3905,0.5512c-0.288,0.121-0.5763,0.2401-0.8616,0.3677
		c-1.6473,0.7208-3.2506,1.5508-4.8058,2.4885H36.2V119.2z M36.9,326.5h28.8604c-3.7879,5.3803-6.2759,11.6308-7.2213,18.2928
		C48.0667,343.9683,39.3951,336.4805,36.9,326.5z M100.1,380.9c-16.6,0-30.1-13.5-30.2-30.2c0-10.1,5-19.5,13.4-25.1
		c4.9-3.3,10.7-5.1,16.7-5.1s11.8,1.7,16.8,5.2c4.169,2.7794,7.4979,6.4963,9.7963,10.7687
		c2.2688,4.3024,3.5038,9.1675,3.5038,14.2313c0,0.3196,0.0326,0.6302,0.0812,0.9349C129.7863,367.798,116.4521,380.9,100.1,380.9z
		 M400,380.9c-16.5,0-30-13.5-30.1-30.2c0-10.1,5-19.5,13.4-25.1c4.9-3.4,10.7-5.1,16.7-5.1s11.7,1.7,16.8,5.2
		c4.169,2.7794,7.4978,6.4963,9.7962,10.7687c2.2688,4.3024,3.5038,9.1675,3.5038,14.2313c0,0.3115,0.0314,0.6141,0.0776,0.9115
		C429.6994,367.7853,416.36,380.9,400,380.9z M441.4,344.8c-0.0475-0.3482-0.1176-0.6918-0.1739-1.0383
		c-0.0617-0.3759-0.1169-0.7532-0.1886-1.1264c-0.0998-0.5215-0.2198-1.0377-0.3394-1.5542
		c-0.0688-0.2971-0.1301-0.5964-0.2053-0.8915c-0.1378-0.5405-0.2966-1.0742-0.4559-1.6081
		c-0.0812-0.2725-0.1542-0.5477-0.2408-0.8182c-0.1705-0.5314-0.3621-1.0546-0.5536-1.5784
		c-0.0975-0.2667-0.186-0.537-0.2889-0.8015c-0.2062-0.5302-0.4341-1.0508-0.6617-1.5719c-0.1076-0.2463-0.2056-0.4969-0.3179-0.741
		c-0.2663-0.5791-0.5552-1.1469-0.8476-1.7129c-0.0898-0.1736-0.1704-0.3518-0.2626-0.5242
		c-0.7998-1.4966-1.6872-2.9457-2.6638-4.3336h28.9C460.6,336.5,451.9,344,441.4,344.8z"/>
	<path class="st0" d="M388.9,255.9h52.9c4.4,0,8.2-2.6,10-6.7999c1.8-4.3,1-9.2-2.1-12.6l-29.3-31.6c-3.3-3.6-8-5.6-12.7-5.6h-18.8
		c-3.3,0-5.9,2.7-5.9,5.9V250C383,253.3,385.7,255.9,388.9,255.9z M394.7,211.1h13c1.5,0,3,0.7,4.1,1.9l28.9,31.2h-46V211.1z"/>
	<path class="st0" d="M400,335.2c-8.6,0-15.5,6.9-15.5,15.5c0,8.6,7,15.5,15.5,15.5s15.5-6.9,15.5-15.5
		C415.5,342.1,408.6,335.2,400,335.2z M400,354.6c-2.1,0-3.8-1.7-3.8-3.8s1.7-3.8,3.8-3.8c2.1,0,3.8,1.7,3.8,3.8
		S402.1,354.6,400,354.6z"/>
	<path class="st0" d="M100,335.2c-8.6,0-15.5,6.9-15.5,15.5c0,8.6,7,15.5,15.5,15.5s15.5-6.9,15.5-15.5
		C115.5,342.1,108.6,335.2,100,335.2z M100,354.6c-2.1,0-3.8-1.7-3.8-3.8s1.7-3.8,3.8-3.8s3.8,1.7,3.8,3.8S102.1,354.6,100,354.6z"
		/>
</g>
</svg>
