<?xml version="1.0" encoding="utf-8"?>
<!-- Generator: Adobe Illustrator 27.7.0, SVG Export Plug-In . SVG Version: 6.00 Build 0)  -->
<svg version="1.1" id="Layer_1" xmlns="http://www.w3.org/2000/svg" xmlns:xlink="http://www.w3.org/1999/xlink" x="0px" y="0px"
	 width="200px" height="200px" viewBox="0 0 200 200" style="enable-background:new 0 0 200 200;" xml:space="preserve">
<style type="text/css">
	.st0{fill-rule:evenodd;clip-rule:evenodd;fill:#FF6600;}
	.st1{fill:#FF6600;}
</style>
<g>
	<g>
		<path class="st0" d="M102.7,76h60.7v48h-60.7V76L102.7,76z M36.6,76H97v48H36.6V76L36.6,76z M31,129.4h138V70.6H31V129.4L31,129.4
			z"/>
		<g>
			<path class="st0" d="M109.8,108.7h3.8V102h3.8c0.9,0,1.6,0.2,2,0.6c0.4,0.4,0.7,1.1,0.8,2c0.1,0.7,0.1,1.4,0.2,2.2
				c0.1,0.7,0.2,1.4,0.4,1.9h3.8c-0.2-0.3-0.4-0.7-0.5-1.2s-0.2-1-0.2-1.5c0-0.5-0.1-0.9-0.1-1.3c0-0.9-0.2-1.7-0.6-2.5
				c-0.4-0.7-1-1.3-1.9-1.5v-0.2c0.9-0.4,1.6-0.9,2.1-1.7c0.4-0.7,0.7-1.6,0.6-2.6c0-1.3-0.5-2.5-1.4-3.3c-0.9-0.8-2-1.4-3.6-1.4
				h-9.2L109.8,108.7L109.8,108.7z M113.6,94.3h4.1c0.9,0,1.5,0.2,1.9,0.6c0.4,0.4,0.7,1,0.7,1.8c0,0.9-0.2,1.5-0.7,1.9
				c-0.4,0.4-1.1,0.6-1.9,0.6h-4.1V94.3L113.6,94.3z"/>
			<polygon class="st0" points="127.7,108.7 140.7,108.7 140.7,105.5 131.5,105.5 131.5,101.3 139.8,101.3 139.8,98.2 131.5,98.2 
				131.5,94.6 140.5,94.6 140.5,91.4 127.7,91.4 			"/>
			<path class="st0" d="M143.9,108.7h3.8v-6.2h4c1.4,0,2.6-0.3,3.4-0.8c0.9-0.5,1.5-1.2,1.9-2s0.6-1.7,0.6-2.6
				c0-0.9-0.2-1.8-0.6-2.6s-1-1.5-1.9-2s-2-0.8-3.4-0.8H144v17.1h-0.1V108.7z M147.6,94.3h2.9c0.9,0,1.7,0.1,2.3,0.5
				c0.6,0.3,1,1,1,2.1s-0.4,1.8-1,2.1c-0.6,0.3-1.4,0.5-2.3,0.5h-2.9V94.3L147.6,94.3z"/>
		</g>
		<g>
			<polygon class="st0" points="51.2,108.7 64.2,108.7 64.2,105.5 54.9,105.5 54.9,101.3 63.2,101.3 63.2,98.2 54.9,98.2 54.9,94.6 
				64,94.6 64,91.4 51.2,91.4 			"/>
			<path class="st0" d="M82.4,97.2c-0.2-1.3-0.6-2.5-1.3-3.4c-0.7-0.9-1.6-1.6-2.6-2.1c-1-0.5-2.2-0.7-3.5-0.7
				c-1.8,0-3.3,0.4-4.6,1.2c-1.2,0.8-2.2,1.9-2.9,3.2c-0.7,1.4-1,2.9-1,4.6c0,1.7,0.3,3.2,1,4.5s1.6,2.4,2.9,3.2
				c1.3,0.8,2.8,1.2,4.6,1.2c2.1,0,3.9-0.7,5.2-1.9c1.4-1.2,2.1-3,2.3-5.1h-3.6c-0.1,1.2-0.6,2.1-1.2,2.8c-0.7,0.7-1.5,1-2.7,1.1
				c-1.1,0-2-0.3-2.7-0.9c-0.7-0.6-1.2-1.3-1.5-2.1c-0.3-0.9-0.5-1.8-0.4-2.8c0-1,0.1-2,0.4-2.9c0.3-0.9,0.8-1.6,1.5-2.2
				C73,94.3,73.9,94,75,94c1,0,1.8,0.3,2.5,0.9s1.1,1.3,1.3,2.2L82.4,97.2L82.4,97.2z"/>
		</g>
	</g>
	<path class="st1" d="M193.6,65.1c-10.2-27-31.3-48.4-57.9-58.6C108.9-3.7,78.8-1.8,53,11.6c-21.2,11.2-37.6,30-46.3,52.8
		c-8.7,22.9-8.9,47.8-0.5,70.2C21,174.1,58.7,200,99.8,200c3,0,5.9-0.1,8.9-0.4c24.3-2.2,45.5-12.3,62.9-29.8
		c3.5-3.5,3.5-7.8,0-11.4c-3.3-3.3-6.6-6.6-9.1-9c-1.7-1.7-3.8-2.6-5.9-2.6c-1.9,0-3.8,0.8-5.2,2.3c-3,3.1-2.8,7.6,0.4,10.8
		c1.3,1.3,2.6,2.6,4,3.9c-14.3,12.4-30.2,19.1-48.4,20.8c-20.9,1.9-40.3-3.5-57.7-16.1C20.1,147.3,7.5,108.3,19,73.7
		c13.1-38.5,48.8-62,89-58.4c21.8,2,40.4,11.5,55.3,28c13,14.6,20.2,31.8,21.4,51.6c0.7,10.4-0.7,21.1-4.1,31.6
		c-0.7,2.3-0.6,4.6,0.4,6.5c0.9,1.7,2.5,2.9,4.4,3.5c4.2,1.2,8-1,9.5-5.6C202.1,108.8,201.7,86.6,193.6,65.1z"/>
</g>
</svg>
