<?xml version="1.0" encoding="utf-8"?>
<!-- Generator: Adobe Illustrator 27.8.1, SVG Export Plug-In . SVG Version: 6.00 Build 0)  -->
<!DOCTYPE svg PUBLIC "-//W3C//DTD SVG 1.1//EN" "http://www.w3.org/Graphics/SVG/1.1/DTD/svg11.dtd" [
	<!ENTITY ns_extend "http://ns.adobe.com/Extensibility/1.0/">
	<!ENTITY ns_ai "http://ns.adobe.com/AdobeIllustrator/10.0/">
	<!ENTITY ns_graphs "http://ns.adobe.com/Graphs/1.0/">
	<!ENTITY ns_vars "http://ns.adobe.com/Variables/1.0/">
	<!ENTITY ns_imrep "http://ns.adobe.com/ImageReplacement/1.0/">
	<!ENTITY ns_sfw "http://ns.adobe.com/SaveForWeb/1.0/">
	<!ENTITY ns_custom "http://ns.adobe.com/GenericCustomNamespace/1.0/">
	<!ENTITY ns_adobe_xpath "http://ns.adobe.com/XPath/1.0/">
]>
<svg version="1.1" id="Layer_1" xmlns:x="&ns_extend;" xmlns:i="&ns_ai;" xmlns:graph="&ns_graphs;"
	 xmlns="http://www.w3.org/2000/svg" xmlns:xlink="http://www.w3.org/1999/xlink" x="0px" y="0px" width="500px" height="500px"
	 viewBox="0 0 500 500" style="enable-background:new 0 0 500 500;" xml:space="preserve">
<style type="text/css">
	.st0{fill:#FE5900;}
</style>
<metadata>
	<sfw  xmlns="&ns_sfw;">
		<slices></slices>
		<sliceSourceBounds  bottomLeftOrigin="true" height="204.3999" width="442.1997" x="28.8999" y="147.7999"></sliceSourceBounds>
	</sfw>
</metadata>
<g>
	<g>
		<path class="st0" d="M462.8,150.3H250H37.2c-3.2,0-5.8,2.6-5.8,5.8v187.8c0,3.2,2.6,5.8,5.8,5.8H250h212.8c3.2,0,5.8-2.6,5.8-5.9
			V156.1C468.6,152.9,466,150.3,462.8,150.3z M43.1,162h201.1v176H43.1V162z M456.9,338H255.8V162h201.1V338z"/>
		<path class="st0" d="M462.7998,352.2001H37.2002c-4.5767,0-8.3003-3.7236-8.3003-8.2998V156.1
			c0-4.5767,3.7236-8.2998,8.3003-8.2998h425.5996c4.5762,0,8.2998,3.7231,8.2998,8.2998v187.6997
			C471.0996,348.4316,467.376,352.2001,462.7998,352.2001z M37.2002,152.8002c-1.8198,0-3.3003,1.4805-3.3003,3.2998v187.8003
			c0,1.8193,1.4805,3.2998,3.3003,3.2998h425.5996c1.8506,0,3.2998-1.4932,3.2998-3.4004V156.1
			c0-1.8193-1.4805-3.2998-3.2998-3.2998H37.2002z M459.4004,340.4999H253.2998v-181h206.1006V340.4999z M258.2998,335.4999
			h196.1006v-171H258.2998V335.4999z M246.7002,340.4999H40.6001v-181h206.1001V340.4999z M45.6001,335.4999h196.1001v-171H45.6001
			V335.4999z"/>
	</g>
	<g>
		<polygon class="st0" points="107.4068,252.3073 131.4086,252.3073 131.4086,245.7545 107.4068,245.7545 107.4068,226.2482 
			132.8563,226.2482 132.8563,219.543 99.4824,219.543 99.4824,281.2618 134.1517,281.2618 134.1517,274.5566 107.4068,274.5566 		
			"/>
		<path class="st0" d="M136.6519,283.7617H96.9824v-66.7188h38.374v11.7056h-25.4497v14.5059h24.002v11.5532h-24.002v17.249h26.7451
			V283.7617z M101.9824,278.7617h29.6694v-1.7051h-26.7451v-27.249h24.002v-1.5532h-24.002v-24.5059h25.4497v-1.7056h-28.374
			V278.7617z"/>
	</g>
	<g>
		<path class="st0" d="M179.9356,225.0291c5.1813,0,9.4483,1.1429,12.4962,2.5907l1.9049-6.4767
			c-2.0573-1.0668-6.9338-2.7431-14.6296-2.7431c-19.1252,0-32.231,13.1058-32.231,32.4596
			c0,20.2682,13.1058,31.2404,30.4785,31.2404c7.5435,0,13.4105-1.4477,16.306-2.8954l-1.6763-6.4767
			c-3.2003,1.6001-8.153,2.5906-13.0295,2.5906c-15.0107,0-23.697-9.7531-23.697-24.84
			C155.8576,234.2488,165.4583,225.0291,179.9356,225.0291z"/>
		<path class="st0" d="M177.9546,284.5995c-20.0337,0-32.9785-13.2441-32.9785-33.7402c0-20.5835,14.2817-34.9595,34.731-34.9595
			c9.2314,0,14.4126,2.3145,15.7808,3.0239l1.8291,0.9482l-3.313,11.2622l-2.645-1.2563c-3.188-1.5146-7.2451-2.3486-11.4233-2.3486
			c-13.5117,0-21.5781,8.5791-21.5781,22.9492c0,13.9883,7.9243,22.3399,21.1973,22.3399c4.4775,0,9.0415-0.8916,11.9111-2.3271
			l2.7637-1.3818l2.9585,11.4277l-1.8096,0.9043C192.3237,282.9677,186.1426,284.5995,177.9546,284.5995z M179.707,220.8998
			c-17.7832,0-29.731,12.0396-29.731,29.9595c0,17.7276,10.7207,28.7402,27.9785,28.7402c5.8335,0,10.4678-0.8984,13.3398-1.8779
			l-0.416-1.6074c-3.271,1.085-7.2983,1.7041-11.3237,1.7041c-16.1592,0-26.1973-10.4756-26.1973-27.3399
			c0-17.2397,10.1841-27.9492,26.5781-27.9492c4.5396,0,8.1802,0.8032,10.877,1.7358l0.4946-1.6821
			C189.1831,221.8471,185.3525,220.8998,179.707,220.8998z"/>
	</g>
	<g>
		<path class="st0" d="M288.2999,282h8.2v-27.5h7.7c7.4,0.3,10.8,3.6,12.7,12.4c1.7,7.9,3.2,13.4,4.2,15.2h8.5
			c-1.3-2.5-2.8-8.6-4.9-17.5c-1.5-6.6-4.4-11.1-9.3-12.8v-0.3c6.7-2.2,12-7.8,12-16.2c0-4.9-1.8-9.3-5-12.1
			c-4-3.6-9.6-5.2-18.4-5.2c-5.7,0-11.7,0.4-15.8,1.3h0.0999V282z M296.4,225.1c1.3-0.4,4.1-0.8,8.1-0.8c8.7,0.1,14.6,3.7,14.6,11.9
			c0,7.3-5.5,12.1-14.3,12.1h-8.4H296.4V225.1z"/>
		<path class="st0" d="M333.7168,284.5995h-14.0879l-0.7148-1.2861c-1.126-2.0273-2.626-7.3721-4.458-15.8877
			c-1.8369-8.5088-4.915-10.1982-10.3076-10.4258H299v27.5h-13.2002v-62.6997v-4.9419c3.9307-0.8633,11.749-1.3584,18.2002-1.3584
			c9.3936,0,15.584,1.8018,20.0732,5.8418c3.6934,3.2329,5.8271,8.3286,5.8271,13.9585c0,7.0596-3.4785,13.0854-9.3311,16.5845
			c3.1152,2.584,5.3174,6.6533,6.5684,12.1611c1.9316,8.1846,3.5049,14.6416,4.6797,16.9004L333.7168,284.5995z M322.7432,279.5995
			h3.2236c-1.0576-3.3408-2.2305-8.1992-3.7002-14.4258c-1.3867-6.1025-3.8994-9.6983-7.6855-11.0117l-1.6807-0.584v-3.8887
			l1.7197-0.5645c6.4375-2.1138,10.2803-7.2817,10.2803-13.8247c0-4.188-1.5117-7.9126-4.1465-10.2188
			c-3.5283-3.1758-8.6875-4.5815-16.7539-4.5815c-5.0361,0-9.7031,0.3081-13.2002,0.8589v58.1411H294v-27.5l10.3018,0.002
			c8.5547,0.3467,12.9131,4.5098,15.042,14.3711C321.0273,274.1972,322.125,277.8886,322.7432,279.5995z M304.7998,250.7997
			h-10.8994v-27.5464l1.7646-0.543c1.8525-0.5698,5.1553-0.9102,8.835-0.9102c10.8779,0.1245,17.0996,5.373,17.0996,14.3999
			C321.5996,244.933,314.8486,250.7997,304.7998,250.7997z M298.9004,245.8002h5.8994c7.2783,0,11.7998-3.6787,11.7998-9.6001
			c0-6.1455-4.0801-9.3081-12.1279-9.3999c-2.3584,0-4.2412,0.1465-5.5713,0.3345V245.8002z"/>
	</g>
	<g>
		<polygon class="st0" points="374.7,275.1 347.2,275.1 347.2,252.2 371.9,252.2 371.9,245.4 347.2,245.4 347.2,225.3 373.3,225.3 
			373.3,218.4 339,218.4 339,282 374.7,282 		"/>
		<path class="st0" d="M377.2002,284.4999H336.5v-68.6001h39.2998v11.9004h-26.0996v15.0996h24.7002v11.8003h-24.7002v17.8994h27.5
			V284.4999z M341.5,279.4999h30.7002v-1.9004h-27.5v-27.8994h24.7002v-1.8003h-24.7002v-25.0996h26.0996v-1.9004H341.5V279.4999z"
			/>
	</g>
	<g>
		<path class="st0" d="M385.5,282h8.2v-25.4c1.9,0.5,4.1,0.6,6.6,0.6c8,0,15.1-2.4,19.4-7c3.2-3.3,4.9-7.8,4.9-13.6
			c0-5.7-2.1-10.3-5.6-13.3c-3.7-3.4-9.7-5.3-17.8-5.3c-6.6,0-11.8,0.5-15.8,1.2h0.1V282z M393.6,225.2c1.4-0.4,4.1-0.7,7.7-0.7
			c9.1,0,15,4.1,15,12.5c0,8.8-6,13.6-15.9,13.6c-2.7,0-5-0.2-6.8-0.7H393.6V225.2z"/>
		<path class="st0" d="M396.2002,284.4999H383v-67.457l1.9697-0.3052c4.6914-0.8213,10.1523-1.2378,16.2305-1.2378
			c8.5088,0,15.249,2.0605,19.4912,5.9595c4.1094,3.5205,6.4082,8.918,6.4082,15.1406c0,6.3438-1.8857,11.5054-5.6045,15.3403
			c-4.666,4.9922-12.2051,7.7598-21.1953,7.7598c-1.3477,0-2.7373-0.0254-4.0996-0.1533V284.4999z M388,279.4999h3.2002v-26.1436
			l3.1367,0.8252c1.7295,0.4561,3.8887,0.5186,5.9629,0.5186c7.4805,0,13.8867-2.2627,17.5742-6.207
			c2.8535-2.9438,4.2256-6.8232,4.2256-11.8931c0-4.8086-1.6348-8.7515-4.7266-11.4019c-3.3682-3.0933-8.9385-4.6982-16.1729-4.6982
			c-4.8662,0-9.2939,0.2764-13.2002,0.8223V279.4999z M400.4004,253.0995c-3.1113,0-5.5547-0.2588-7.4697-0.79l-1.8311-0.5088
			v-28.4868l1.8135-0.5176c1.7725-0.5063,4.8291-0.7964,8.3867-0.7964c10.958,0,17.5,5.6074,17.5,15
			C418.7998,247.081,411.9219,253.0995,400.4004,253.0995z M396.0996,247.8559c1.1924,0.1636,2.6162,0.2437,4.3008,0.2437
			c6.1123,0,13.3994-1.9258,13.3994-11.0996c0-8.2651-6.7979-10-12.5-10c-2.2002,0-3.9424,0.1157-5.2002,0.2725V247.8559z"/>
	</g>
</g>
</svg>
