<?xml version="1.0" encoding="utf-8"?>
<!-- Generator: Adobe Illustrator 27.8.1, SVG Export Plug-In . SVG Version: 6.00 Build 0)  -->
<!DOCTYPE svg PUBLIC "-//W3C//DTD SVG 1.1//EN" "http://www.w3.org/Graphics/SVG/1.1/DTD/svg11.dtd" [
	<!ENTITY ns_extend "http://ns.adobe.com/Extensibility/1.0/">
	<!ENTITY ns_ai "http://ns.adobe.com/AdobeIllustrator/10.0/">
	<!ENTITY ns_graphs "http://ns.adobe.com/Graphs/1.0/">
	<!ENTITY ns_vars "http://ns.adobe.com/Variables/1.0/">
	<!ENTITY ns_imrep "http://ns.adobe.com/ImageReplacement/1.0/">
	<!ENTITY ns_sfw "http://ns.adobe.com/SaveForWeb/1.0/">
	<!ENTITY ns_custom "http://ns.adobe.com/GenericCustomNamespace/1.0/">
	<!ENTITY ns_adobe_xpath "http://ns.adobe.com/XPath/1.0/">
]>
<svg version="1.1" id="Layer_1" xmlns:x="&ns_extend;" xmlns:i="&ns_ai;" xmlns:graph="&ns_graphs;"
	 xmlns="http://www.w3.org/2000/svg" xmlns:xlink="http://www.w3.org/1999/xlink" x="0px" y="0px" width="500px" height="500px"
	 viewBox="0 0 500 500" style="enable-background:new 0 0 500 500;" xml:space="preserve">
<style type="text/css">
	.st0{fill:#FE5900;}
</style>
<metadata>
	<sfw  xmlns="&ns_sfw;">
		<slices></slices>
		<sliceSourceBounds  bottomLeftOrigin="true" height="296.8003" width="471.1705" x="14.5297" y="101.5997"></sliceSourceBounds>
	</sfw>
</metadata>
<g>
	<g>
		<path class="st0" d="M187.5,279.4c42.9,0,77.9-35,77.9-77.9c0-42.9-35-77.9-77.9-77.9c-42.9,0-77.9,35-77.9,77.9
			C109.6,244.4,144.5,279.4,187.5,279.4z M187.5,133.4c37.5,0,68.1,30.6,68.1,68.1s-30.6,68.1-68.1,68.1s-68.1-30.6-68.1-68.1
			S149.9,133.4,187.5,133.4z"/>
		<path class="st0" d="M187.5,280.9003c-43.7812,0-79.3999-35.6187-79.3999-79.4004c0-43.7812,35.6187-79.3999,79.3999-79.3999
			c43.7817,0,79.4004,35.6186,79.4004,79.3999C266.9004,245.2817,231.2817,280.9003,187.5,280.9003z M187.5,125.1
			c-42.127,0-76.3999,34.2729-76.3999,76.3999c0,42.1274,34.2729,76.4004,76.3999,76.4004c42.1274,0,76.4004-34.273,76.4004-76.4004
			C263.9004,159.373,229.6274,125.1,187.5,125.1z M187.5,271.0995c-38.3774,0-69.6001-31.2222-69.6001-69.5996
			s31.2227-69.6001,69.6001-69.6001s69.5996,31.2227,69.5996,69.6001S225.8774,271.0995,187.5,271.0995z M187.5,134.8998
			c-36.7236,0-66.6001,29.8765-66.6001,66.6001c0,36.7231,29.8765,66.5996,66.6001,66.5996
			c36.7231,0,66.5996-29.8765,66.5996-66.5996C254.0996,164.7763,224.2231,134.8998,187.5,134.8998z"/>
	</g>
	<g>
		<path class="st0" d="M484.2,278.1c0-6.3-2.4-12.3-6.9-16.7l-23.7-23.7c-4.5-4.4-10.4-6.9-16.7-6.9h-48.1v-49.1
			c0-2.7-2.2-4.9-4.9-4.9H282.7506c-11.0046-42.3105-49.5759-73.7-95.2506-73.7c-54.2,0-98.4,44.2-98.4,98.4
			c0,17.5067,4.6063,33.9666,12.6658,48.2342L23,328.5c-9.3,9.4-9.3,24.6,0,33.9c4.5,4.5,10.5,7,16.9,7c6.4,0,12.4-2.4,16.9-7.1
			l77.84-77.84c0.4833,0.3091,0.9709,0.6121,1.46,0.913V341.3c0,14.8207,11.5789,27.0423,26.2657,27.9412
			C164.7307,384.8591,178.3448,396.9,194.6,396.9c16.2428,0,29.767-11.94,32.2068-27.6h166.4894
			c2.4494,15.5895,15.9689,27.6,32.2038,27.6c16.2628,0,29.7989-11.9697,32.2145-27.658
			c14.1929-0.869,25.6141-12.435,26.2534-26.7747c0.1145-0.376,0.2021-0.7631,0.2321-1.1672V278.1z M436.9,240.6
			c3.6,0,7.1,1.4,9.7,4l23.7,23.7c2.6,2.6,4,6,4,9.7v58.3H442.139c-0.5307-0.316-1.0692-0.6125-1.6134-0.8967
			c-0.1083-0.0568-0.2163-0.1136-0.3251-0.1691c-0.5283-0.2686-1.0621-0.522-1.602-0.7606
			c-0.1791-0.0794-0.3588-0.1559-0.5391-0.232c-0.4926-0.207-0.988-0.4042-1.4892-0.5862
			c-0.2381-0.0869-0.4777-0.1667-0.7175-0.2478c-0.4548-0.1532-0.9104-0.3022-1.3715-0.4348
			c-0.3157-0.0914-0.6335-0.17-0.9514-0.2516c-0.3939-0.1003-0.7868-0.2033-1.1848-0.2888c-0.4432-0.096-0.889-0.1719-1.3353-0.249
			c-0.2845-0.0486-0.5667-0.1063-0.853-0.1473c-0.6748-0.0978-1.352-0.1705-2.0308-0.2249
			c-0.0759-0.0061-0.1505-0.0179-0.2264-0.0234c-0.7656-0.0558-1.5325-0.0878-2.2997-0.0878c-0.0175,0-0.0347,0.0018-0.0522,0.0018
			c-0.016,0-0.0317-0.0018-0.0477-0.0018c-0.3571,0-0.7106,0.0275-1.0663,0.0389c-0.3752,0.0131-0.752,0.0155-1.1252,0.0411
			c-0.6285,0.0416-1.2518,0.1122-1.8741,0.1893c-0.1103,0.0139-0.2217,0.0216-0.3318,0.0366
			c-0.7099,0.0953-1.413,0.2184-2.1123,0.3596c-0.0102,0.0021-0.0206,0.0036-0.0308,0.0057
			c-3.578,0.7258-6.9971,2.0474-10.1188,3.9287H388.8v-95.7H436.9z M222.1607,346.8652c-0.1336-0.2217-0.2622-0.4457-0.4005-0.6652
			H383.8c0.0172,0,0.033-0.0049,0.05-0.0051c0.0171,0.0002,0.0328,0.0051,0.05,0.0051h14.4365
			c-2.6633,3.9769-4.4422,8.5393-5.1365,13.3H226.8334C226.165,354.9758,224.5676,350.675,222.1607,346.8652z M187.5,112.8
			c48.9,0,88.6,39.8,88.6,88.6c0,48.8-39.8,88.6-88.6,88.6s-88.6-39.8-88.6-88.6S138.6,112.8,187.5,112.8z M49.9,355.4
			c-2.6,2.6-6.2,4.1-10,4.1c-3.8,0-7.3-1.4-10-4.1c-5.5-5.5-5.5-14.5,0-20l77.2168-77.2168
			c5.4746,7.7408,12.0372,14.6609,19.4653,20.5348L49.9,355.4z M187.5,299.9c54.3,0,98.4-44.2,98.4-98.4
			c0-5.0633-0.3864-10.0391-1.1299-14.9H379v49.1v100.6H211.3223c-5.0552-3.0306-10.691-4.6-16.6223-4.6
			c-0.0172,0-0.0341,0.0017-0.0513,0.0017c-0.0163,0-0.0323-0.0018-0.0486-0.0018c-0.3647,0-0.7248,0.0278-1.0876,0.0398
			c-0.3663,0.013-0.7346,0.0151-1.0984,0.0402c-0.6362,0.0422-1.2665,0.1135-1.8953,0.1923
			c-0.0987,0.0126-0.1988,0.0195-0.2973,0.033c-4.3976,0.5924-8.5905,2.0834-12.4228,4.3947H145.9v-45.7409
			C158.54,296.5815,172.636,299.9,187.5,299.9z M146.5,346.2h20.9813c-2.6389,3.9626-4.3903,8.4951-5.1046,13.2969
			C154.7872,358.7879,148.4979,353.3926,146.5,346.2z M194.6,387.1c-12.4818,0-22.7687-10.1707-22.7986-22.7452
			c0.015-7.6824,3.811-14.7628,10.1982-18.9545c0.0001-0.0001,0.0002-0.0001,0.0004-0.0002c3.7-2.5,8.1-3.8,12.6-3.8
			s8.9,1.3,12.6,3.8c0.1856,0.116,0.3779,0.2186,0.5742,0.3118c6.0478,4.3326,9.6258,11.2245,9.6258,18.6882
			C217.4,376.9,207.1,387.1,194.6,387.1z M425.5,387.1c-12.5,0-22.8-10.2-22.8-22.8c0-7.4595,3.5741-14.3477,9.6158-18.5898
			c0.2023-0.0928,0.3996-0.1947,0.5842-0.3101c3.7-2.5,8.1-3.8,12.6-3.8s8.9,1.3,12.6,3.8c0.1856,0.116,0.3779,0.2186,0.5742,0.3118
			c6.0478,4.3326,9.6258,11.2245,9.6258,18.6882H448.3C448.3,376.9,438,387.1,425.5,387.1z M457.7319,359.4958
			c-0.5073-3.4193-1.5502-6.7023-3.0732-9.7476c-0.0925-0.1855-0.1801-0.373-0.2764-0.5568
			c-0.1803-0.3439-0.3735-0.6805-0.5661-1.0178c-0.113-0.1976-0.2227-0.3967-0.3403-0.5922
			c-0.2369-0.3953-0.4866-0.7824-0.7404-1.1677c-0.0468-0.0705-0.0881-0.1436-0.1355-0.2137h20.9
			C471.5028,353.3898,465.3172,358.7835,457.7319,359.4958z"/>
		<path class="st0" d="M425.5,398.4003c-16.1885,0-30.3496-11.7773-33.4619-27.6006H228.0674
			c-3.1074,16.0703-16.9829,27.6006-33.4673,27.6006c-16.3242,0-30.5254-11.8525-33.5181-27.7588
			c-14.9438-1.5205-26.4819-14.1846-26.4819-29.3418V286.621l-76.7397,76.7393c-4.6465,4.8545-11.0332,7.54-17.9604,7.54
			c-6.7847,0-13.1631-2.6416-17.9604-7.4395c-9.8774-9.8779-9.8799-26.0352-0.0059-36.0156l77.9702-77.9707
			c-8.0522-14.6489-12.3037-31.2114-12.3037-47.9746c0-55.085,44.8149-99.8999,99.8999-99.8999
			c45.0928,0,84.5684,30.2441,96.4043,73.7002h99.9961c3.5283,0,6.3994,2.8711,6.3994,6.3999v47.6001h46.6006
			c6.6123,0,12.915,2.6021,17.748,7.3276l23.7119,23.7119c4.7285,4.623,7.3398,10.9346,7.3398,17.7598l-0.0039,63.3125
			c-0.0312,0.4141-0.1094,0.8428-0.2383,1.3047c-0.7432,14.6689-11.999,26.4619-26.4629,27.9258
			C455.9648,386.5488,441.7725,398.4003,425.5,398.4003z M225.522,367.7997h169.0562l0.1992,1.2676
			c2.3594,15.0117,15.5674,26.333,30.7227,26.333c15.2041,0,28.416-11.3438,30.7324-26.3867l0.1836-1.1943l1.207-0.0742
			c13.5576-0.8301,24.2383-11.7256,24.8467-25.3438l0.0625-0.3691c0.0918-0.3037,0.1455-0.5576,0.168-0.7949v-63.1377
			c0-6.0117-2.29-11.5605-6.4492-15.627l-23.7119-23.7119c-4.2568-4.1616-9.8154-6.4604-15.6387-6.4604h-49.6006v-50.6001
			c0-1.8745-1.5254-3.3999-3.3994-3.3999H281.5908l-0.292-1.1226C270.1846,134.4452,231.6128,104.6,187.5,104.6
			c-53.4307,0-96.8999,43.4692-96.8999,96.8999c0,16.6289,4.3125,33.0532,12.4717,47.4966l0.5605,0.9927l-79.5718,79.5713
			c-8.7114,8.8057-8.7139,23.0645,0,31.7793c4.231,4.2305,9.856,6.5605,15.8394,6.5605c6.1011,0,11.7183-2.3574,15.8164-6.6377
			l78.7168-78.7168l1.0166,0.6514c0.4751,0.3047,0.9546,0.6025,1.436,0.8975l0.7144,0.4395v56.7656
			c0,13.9756,10.9185,25.5918,24.8574,26.4443l1.21,0.0742l0.1812,1.1982c2.2773,15.041,15.4976,26.3838,30.7515,26.3838
			c15.1772,0,28.3862-11.3203,30.7246-26.3311L225.522,367.7997z M425.5,388.5995c-13.3994,0-24.2998-10.9004-24.2998-24.2998
			c0-7.9004,3.833-15.3086,10.2529-19.8174l0.2363-0.1357c0.1436-0.0664,0.2852-0.1367,0.417-0.2188
			c3.8809-2.624,8.5283-4.0273,13.3936-4.0273s9.5127,1.4033,13.4395,4.0566c0.0889,0.0537,0.2305,0.1299,0.375,0.1982
			l0.2334,0.1367c6.4189,4.5996,10.252,12.042,10.252,19.9082C449.7998,377.7441,438.8994,388.5995,425.5,388.5995z
			 M413.0732,347.0117c-5.5586,3.9541-8.873,10.4072-8.873,17.2881c0,11.7451,9.5547,21.2998,21.2998,21.2998
			s21.2998-9.5098,21.2998-21.1992c0-6.8594-3.3242-13.3525-8.8975-17.3955c-0.2021-0.1006-0.4014-0.2109-0.5938-0.3301
			c-3.4785-2.3496-7.5449-3.5742-11.8086-3.5742s-8.3301,1.2246-11.7598,3.543
			C413.5049,346.791,413.2891,346.9072,413.0732,347.0117z M194.6001,388.5995c-13.3662,0-24.2666-10.875-24.2988-24.2412
			c0.0161-8.2002,4.0815-15.7539,10.8755-20.2119c3.9116-2.6426,8.5591-4.0459,13.4233-4.0459s9.5117,1.4033,13.4399,4.0566
			c0.0884,0.0537,0.2305,0.1299,0.3755,0.1982l0.2324,0.1367c6.4194,4.5996,10.252,12.042,10.252,19.9082
			C218.8999,377.7441,207.999,388.5995,194.6001,388.5995z M194.6001,343.1005c-4.2632,0-8.3301,1.2246-11.7603,3.543
			c-5.9648,3.9141-9.5244,10.5322-9.5386,17.7139c0.0283,11.71,9.583,21.2422,21.2988,21.2422
			c11.7446,0,21.2998-9.5098,21.2998-21.1992c0-6.8594-3.3232-13.3525-8.897-17.3955c-0.2026-0.1006-0.4014-0.2109-0.5942-0.3301
			C202.9302,344.3251,198.8633,343.1005,194.6001,343.1005z M163.6514,361.123l-1.4146-0.1328
			c-8.0962-0.7559-15.0015-6.5381-17.1821-14.3887l-0.5283-1.9014h25.7563l-1.5527,2.3311
			c-2.5127,3.7725-4.1963,8.1602-4.8696,12.6865L163.6514,361.123z M148.6001,347.7001c2.1748,5.252,6.9365,9.1113,12.5425,10.1162
			c0.686-3.541,1.9351-6.9775,3.6724-10.1162H148.6001z M456.4561,361.123l-0.208-1.4072
			c-0.4805-3.2402-1.4668-6.3682-2.9316-9.2969l-0.0986-0.2012c-0.0537-0.1113-0.1074-0.2227-0.165-0.333
			c-0.1602-0.3047-0.334-0.6074-0.5068-0.9111l-0.1445-0.2529c-0.0693-0.1221-0.1377-0.2451-0.2109-0.3662
			c-0.2266-0.3789-0.4648-0.748-0.707-1.1143l-0.0889-0.1406l-1.5918-2.3428l2.7969-0.0566h22.874l-0.5283,1.9014
			c-2.1807,7.8516-9.042,13.6328-17.0732,14.3877L456.4561,361.123z M455.2734,347.7001c0.1582,0.2803,0.3018,0.5352,0.4375,0.793
			c0.0723,0.1396,0.1387,0.2764,0.2051,0.4131l0.0869,0.1768c1.3828,2.7646,2.377,5.6963,2.9629,8.7305
			c5.5488-1.0078,10.2695-4.8643,12.4355-10.1133H455.2734z M394.4971,360.9999h-168.958l-0.1895-1.2803
			c-0.6396-4.3291-2.1392-8.3848-4.457-12.0537l-0.1504-0.251c-0.083-0.1396-0.165-0.2783-0.2515-0.416l-1.4458-2.2988h182.1025
			l-1.5645,2.335c-2.5498,3.8057-4.2432,8.1914-4.8984,12.6816L394.4971,360.9999z M228.104,357.9999h163.8257
			c0.6689-3.5879,1.9395-7.0889,3.7314-10.2998H224.3999C226.186,350.9081,227.4277,354.3613,228.104,357.9999z M384.0723,344.7109
			l0.0205,0.0029C384.0859,344.7128,384.0791,344.7119,384.0723,344.7109z M39.8999,360.9999
			c-4.2656,0-8.0903-1.5693-11.0605-4.5391c-6.0991-6.0986-6.0991-16.0225,0-22.1211l78.4746-78.4746l1.0273,1.4522
			c5.3921,7.624,11.8423,14.4277,19.1709,20.2236l1.3223,1.0459l-77.874,77.874C48.0757,359.3456,44.0439,360.9999,39.8999,360.9999
			z M106.9307,260.4911l-75.9702,75.9697c-4.9292,4.9297-4.9292,12.9492,0,17.8789c2.3955,2.3945,5.4868,3.6602,8.9395,3.6602
			c3.3545,0,6.6128-1.334,8.9395-3.6602l75.5005-75.501C117.7847,273.4745,111.9399,267.3154,106.9307,260.4911z M178.2163,337.9003
			h-33.8164v-49.6006l2.1367,1.001c12.8857,6.0381,26.668,9.0996,40.9634,9.0996c53.4312,0,96.9004-43.4697,96.9004-96.9004
			c0-4.9072-0.374-9.8442-1.1123-14.6733l-0.2646-1.7266H380.5v152.6997H210.9072l-0.356-0.2139
			c-4.8555-2.9102-10.1885-4.3857-15.8511-4.3857l-0.1665-0.002c-0.1465,0.002-0.3579,0.0127-0.5688,0.0234l-0.7598,0.0283
			c-0.2295,0.0059-0.459,0.0107-0.6865,0.0264c-0.6123,0.041-1.2134,0.1094-1.813,0.1846l-0.2915,0.0312
			c-4.1763,0.5635-8.1626,1.9736-11.8403,4.1924L178.2163,337.9003z M147.3999,334.9003h29.9863
			c3.9307-2.3076,8.1792-3.7812,12.6353-4.3818l0.3057-0.0332c0.6626-0.084,1.3223-0.1582,1.9883-0.2021
			c0.2656-0.0186,0.5396-0.0254,0.8135-0.0322l0.6885-0.0254c0.2603-0.0127,0.5205-0.0254,0.7827-0.0254h0.1001
			c6.0737,0,11.8018,1.5469,17.0322,4.5996H377.5V188.1h-90.998c0.5967,4.4253,0.8984,8.9248,0.8984,13.3999
			c0,55.085-44.8149,99.9004-99.9004,99.9004c-13.9517,0-27.4302-2.8291-40.1001-8.4121V334.9003z M475.7998,337.7997h-34.0732
			l-0.3545-0.2109c-0.5068-0.3008-1.0205-0.584-1.54-0.8555l-0.3125-0.1621c-0.5029-0.2559-1.0117-0.498-1.5264-0.7256
			l-0.5186-0.2236c-0.4668-0.1953-0.9395-0.3828-1.418-0.5576c-0.207-0.0752-0.415-0.1455-0.624-0.2158
			c-0.4912-0.165-0.9268-0.3076-1.3662-0.4346c-0.2529-0.0732-0.5078-0.1377-0.7627-0.2021l-0.3184-0.0811
			c-0.3174-0.0811-0.6328-0.1631-0.9531-0.2314c-0.4062-0.0879-0.8115-0.1572-1.2158-0.2266l-0.3711-0.0664
			c-0.166-0.0303-0.333-0.0615-0.501-0.0859c-0.6445-0.0928-1.29-0.1621-1.9365-0.2139l-0.165-0.0166
			c-0.8291-0.0625-1.5459-0.0898-2.2432-0.0898l-0.1689-0.002c-0.1338,0.002-0.335,0.0127-0.5361,0.0225l-0.7637,0.0273
			c-0.2402,0.0068-0.4814,0.0127-0.7207,0.0283c-0.6035,0.04-1.1982,0.1084-1.791,0.1816l-0.3193,0.0352
			c-0.6094,0.082-1.2471,0.1895-1.9463,0.3291l-0.1572,0.0303c-3.3701,0.6846-6.6143,1.9443-9.5811,3.7324l-0.3574,0.2148h-21.958
			V239.1h49.6006c4.0762,0,7.8975,1.5767,10.7598,4.4395l23.7002,23.6997c2.8633,2.8623,4.4395,6.6846,4.4395,10.7607V337.7997z
			 M442.5459,334.7997h30.2539v-56.7998c0-3.3223-1.2314-6.3105-3.5605-8.6396l-23.7002-23.6997
			c-2.2959-2.2959-5.3633-3.5605-8.6387-3.5605h-46.6006v92.6997h18.1289c3.1631-1.8516,6.6025-3.1631,10.2324-3.8984l0.0332-0.0068
			c0.7891-0.1582,1.5117-0.2812,2.208-0.375l0.3477-0.0381c0.6514-0.0811,1.3027-0.1553,1.9609-0.1982
			c0.2764-0.0186,0.5596-0.0264,0.8428-0.0342l0.6934-0.0244c0.25-0.0127,0.501-0.0244,0.7529-0.0244h0.0996
			c0.7705,0,1.5586,0.0303,2.4082,0.0918c0.0566,0.0039,0.124,0.0107,0.1924,0.0195c0.7783,0.0625,1.4941,0.1416,2.1719,0.2402
			c0.2041,0.0293,0.4092,0.0664,0.6133,0.1035l0.2783,0.0498c0.5098,0.0879,0.9561,0.166,1.3984,0.2617
			c0.3555,0.0752,0.7109,0.166,1.0674,0.2578l0.3135,0.0801c0.2852,0.0723,0.5703,0.1445,0.8535,0.2266
			c0.4824,0.1387,0.959,0.2949,1.4336,0.4541c0.293,0.0986,0.5244,0.1768,0.7539,0.2607c0.5234,0.1904,1.041,0.3955,1.5566,0.6123
			l0.5654,0.2432c0.5635,0.249,1.1211,0.5146,1.6738,0.7959l0.2754,0.1426C441.6523,334.2988,442.1055,334.5458,442.5459,334.7997z
			 M187.5,291.4999c-49.6812,0-90.1001-40.419-90.1001-90.1001s40.4189-90.0996,90.1001-90.0996s90.0996,40.4184,90.0996,90.0996
			S237.1812,291.4999,187.5,291.4999z M187.5,114.3002c-48.0273,0-87.1001,39.0727-87.1001,87.0996
			c0,48.0273,39.0728,87.1001,87.1001,87.1001c48.0269,0,87.0996-39.0728,87.0996-87.1001
			C274.5996,153.373,235.5269,114.3002,187.5,114.3002z"/>
	</g>
	<g>
		<path class="st0" d="M417,291.8h40.7c3.5,0,6.6-2.1,8.1-5.5c1.5-3.4,0.8-7.4-1.7-10.1l-22.6-24.3c-2.6-2.8-6.2-4.4-10-4.4H417
			c-2.7,0-4.9,2.2-4.9,4.9v34.5C412.1,289.6,414.3,291.8,417,291.8z M421.8,257.3h9.6c1.1,0,2.1,0.5,2.9,1.3L456,282h-34.2V257.3z"
			/>
		<path class="st0" d="M457.7002,293.2997H417c-3.5293,0-6.4004-2.8711-6.4004-6.3994v-34.5c0-3.5293,2.8711-6.4004,6.4004-6.4004
			h14.5c4.1748,0,8.2207,1.7788,11.0996,4.8799l22.5986,24.2988c2.9414,3.1777,3.7158,7.7793,1.9736,11.7266
			C465.4326,290.8495,461.8027,293.2997,457.7002,293.2997z M417,248.9999c-1.875,0-3.4004,1.5254-3.4004,3.4004v34.5
			c0,1.874,1.5254,3.3994,3.4004,3.3994h40.7002c2.8965,0,5.4736-1.7646,6.7275-4.6055c1.2578-2.8516,0.6973-6.1787-1.4287-8.4746
			l-22.5977-24.2979c-2.3135-2.4932-5.5576-3.9219-8.9014-3.9219H417z M459.4365,283.4999h-39.1367v-27.7002h11.1006
			c1.4326,0,2.8389,0.6172,3.96,1.7393L459.4365,283.4999z M423.2998,280.4999h29.2637l-19.3633-20.8809
			c-0.3535-0.3516-0.9912-0.8193-1.7998-0.8193h-8.1006V280.4999z"/>
	</g>
	<g>
		<path class="st0" d="M425.5,352.1c-6.8,0-12.3,5.5-12.3,12.3s5.5,12.3,12.3,12.3s12.3-5.5,12.3-12.3S432.3,352.1,425.5,352.1z
			 M425.5,366.9c-1.4,0-2.5-1.1-2.5-2.5c0-1.4,1.1-2.5,2.5-2.5c1.4,0,2.5,1.2,2.5,2.5C428,365.8,426.9,366.9,425.5,366.9z"/>
		<path class="st0" d="M425.5,378.2001c-7.6094,0-13.7998-6.1904-13.7998-13.7998s6.1904-13.7998,13.7998-13.7998
			s13.7998,6.1904,13.7998,13.7998S433.1094,378.2001,425.5,378.2001z M425.5,353.6005c-5.9551,0-10.7998,4.8447-10.7998,10.7998
			s4.8447,10.7998,10.7998,10.7998s10.7998-4.8447,10.7998-10.7998S431.4551,353.6005,425.5,353.6005z M425.5,368.4003
			c-2.2432,0-4-1.7568-4-4s1.7568-4,4-4c2.168,0,4,1.832,4,4C429.5,366.6435,427.7432,368.4003,425.5,368.4003z M425.5,363.4003
			c-0.5703,0-1,0.4297-1,1s0.4297,1,1,1s1-0.4297,1-1C426.5,363.9286,426.0723,363.4003,425.5,363.4003z"/>
	</g>
	<g>
		<path class="st0" d="M194.6,352.1c-6.8,0-12.3,5.5-12.3,12.3s5.5,12.3,12.3,12.3c6.8,0,12.3-5.5,12.3-12.3
			S201.4,352.1,194.6,352.1z M194.6,366.9c-1.4,0-2.5-1.1-2.5-2.5c0-1.4,1.1-2.5,2.5-2.5c1.4,0,2.5,1.2,2.5,2.5
			C197.1,365.8,196,366.9,194.6,366.9z"/>
		<path class="st0" d="M194.6001,378.2001c-7.6094,0-13.8003-6.1904-13.8003-13.7998s6.1909-13.7998,13.8003-13.7998
			s13.7998,6.1904,13.7998,13.7998S202.2095,378.2001,194.6001,378.2001z M194.6001,353.6005
			c-5.9551,0-10.8003,4.8447-10.8003,10.7998s4.8452,10.7998,10.8003,10.7998s10.7998-4.8447,10.7998-10.7998
			S200.5552,353.6005,194.6001,353.6005z M194.6001,368.4003c-2.2432,0-4-1.7568-4-4s1.7568-4,4-4c2.1685,0,4,1.832,4,4
			C198.6001,366.6435,196.8433,368.4003,194.6001,368.4003z M194.6001,363.4003c-0.5703,0-1,0.4297-1,1s0.4297,1,1,1s1-0.4297,1-1
			C195.6001,363.9286,195.1724,363.4003,194.6001,363.4003z"/>
	</g>
</g>
</svg>
