<?xml version="1.0" encoding="utf-8"?>
<!-- Generator: Adobe Illustrator 27.7.0, SVG Export Plug-In . SVG Version: 6.00 Build 0)  -->
<svg version="1.1" id="Layer_1" xmlns="http://www.w3.org/2000/svg" xmlns:xlink="http://www.w3.org/1999/xlink" x="0px" y="0px"
	 width="200px" height="200px" viewBox="0 0 200 200" style="enable-background:new 0 0 200 200;" xml:space="preserve">
<style type="text/css">
	.st0{fill:#FF6600;}
</style>
<g>
	<path class="st0" d="M116.8,88c-2.1,0-3.6-1.6-3.6-3.6c-0.1-4.3-1.1-7.9-3.1-11c-4.1-6.9-10.3-10.6-18.3-10.9c-1.6-0.1-3-0.8-3.7-2
		c-0.6-1.1-0.5-2.3,0.2-3.5c0.7-1.2,1.9-1.8,3.7-1.8c15.2,0.4,27.6,12.6,28.3,27.8v1.1C120.4,86.3,118.9,87.9,116.8,88z"/>
	<path class="st0" d="M155.6,138.6L137,120c-1.6-1.7-3.5-2.4-5.8-2.3c-0.7,0.1-1.6,0.1-2.3-0.3l-0.2-0.2c-1-1-2.1-2-3.1-3
		c-0.5-0.5-1-1-1.5-1.5l-0.9-0.9l0.8-1.1c14.2-18,11.8-43.6-5.5-58.2c-16.4-13.9-41.1-13-56.3,2c-15.6,15.6-16.8,40-2.7,56.9
		c14.6,17.4,40.2,19.9,58.3,5.6l1.1-0.9l0.9,1c0.6,0.7,1.3,1.3,1.9,2c0.7,0.7,1.3,1.3,1.9,2l0.1,0.1c0.6,0.8,1,1.9,1,2.9
		c-0.1,2.4,0.6,4.4,2.2,6c2.9,2.9,5.9,5.9,8.8,8.8c2.9,2.9,5.8,5.8,8.7,8.8C147.5,144,151.3,141,155.6,138.6z M91.3,120.6
		c-19.9,0-36-16.3-36-36.4c0-19.9,16.2-36,36-36c19.9,0,36.1,16.3,36.1,36.4C127.4,104.4,111.2,120.6,91.3,120.6z"/>
	<path class="st0" d="M91.3,49.6c-19,0-34.5,15.6-34.5,34.5c0,19.3,15.4,34.9,34.5,34.9s34.6-15.6,34.6-34.5
		C125.9,65.2,110.5,49.6,91.3,49.6z M91.3,117.6c-18.2,0-33-15-33-33.4c0-18.2,14.8-33,33-33c18.3,0,33.1,15,33.1,33.4
		C124.4,102.8,109.6,117.6,91.3,117.6z"/>
	<path class="st0" d="M125.7,131c-1.9-1.9-2.7-4.3-2.6-7c0-0.7-0.3-1.5-0.7-2c-1.2-1.3-2.5-2.5-3.8-3.9
		c-19.1,15.1-45.5,11.8-60.3-5.8c-14.5-17.4-13.3-42.9,2.8-59c15.8-15.7,41.3-16.6,58.3-2.1c16.8,14.3,21,40.9,5.7,60.3
		c1.5,1.5,3,3.1,4.5,4.5c0.3,0.2,0.9,0.2,1.3,0.1c2.8-0.2,5.2,0.7,7.1,2.7c6.3,6.3,12.6,12.6,18.9,19c0.5-0.2,0.9-0.5,1.4-0.7
		l-19.2-19.3c-2.2-2.3-5.1-3.4-8.3-3.2h-0.3c0,0-0.1,0-0.2,0c-0.9-0.9-1.8-1.8-2.7-2.7c-0.2-0.2-0.4-0.4-0.6-0.6
		c14.3-19.2,11.4-45.9-6.7-61.3c-17.6-14.9-44.1-14-60.4,2.2c-16.7,16.7-18,42.9-2.9,61c15.3,18.3,42,21.2,61.3,6.9
		c0.3,0.4,0.7,0.7,1,1c0.6,0.6,1.2,1.2,1.8,1.8c0.2,0.3,0.3,0.7,0.3,1c-0.1,3.3,0.9,6,3,8.1c2.9,2.9,5.9,5.9,8.8,8.8
		c2.9,2.9,5.9,5.9,8.9,8.9c0.3-0.4,0.6-0.8,1-1.2C137.5,142.8,131.6,136.9,125.7,131z"/>
	<path class="st0" d="M91.3,48.1c-19.9,0-36,16.2-36,36c0,20.1,16.2,36.4,36,36.4c19.9,0,36.1-16.2,36.1-36
		C127.4,64.5,111.2,48.1,91.3,48.1z M91.3,119.1c-19.1,0-34.5-15.7-34.5-34.9c0-19,15.5-34.5,34.5-34.5c19.2,0,34.6,15.6,34.6,34.9
		C125.9,103.5,110.4,119.1,91.3,119.1z"/>
	<path class="st0" d="M131,116.2c-0.4,0.1-1,0.1-1.3-0.1c-1.5-1.4-3-3-4.5-4.5c15.3-19.5,11.1-46.1-5.7-60.3
		c-17-14.5-42.5-13.6-58.3,2.1c-16.2,16-17.4,41.5-2.9,58.9c14.8,17.7,41.2,20.9,60.3,5.8c1.3,1.4,2.6,2.6,3.8,3.9
		c0.4,0.5,0.7,1.3,0.7,2c-0.1,2.7,0.7,5.1,2.6,7c5.8,5.9,11.7,11.8,17.6,17.7c0.3-0.4,0.7-0.8,1-1.1c-2.9-2.9-5.8-5.9-8.7-8.8
		c-2.9-3-5.9-5.9-8.8-8.8c-1.5-1.5-2.3-3.5-2.2-6c0-1-0.4-2.2-1-2.9l-0.1-0.1c-0.6-0.7-1.3-1.3-1.9-2c-0.6-0.6-1.3-1.3-1.9-2l-0.9-1
		l-1.1,0.9c-18.1,14.3-43.7,11.8-58.3-5.6c-14-16.9-12.9-41.3,2.8-56.9c15.2-15.1,39.9-15.9,56.3-2c17.3,14.6,19.7,40.2,5.5,58.2
		l-0.8,1.1l0.9,0.9c0.5,0.5,1,1,1.5,1.5c1,1,2,2.1,3.1,3l0.2,0.2c0.7,0.5,1.7,0.5,2.3,0.3c2.3-0.2,4.2,0.6,5.8,2.3l18.6,18.7
		c0.5-0.3,0.9-0.5,1.4-0.8c-6.3-6.3-12.6-12.6-18.9-19C136.2,116.9,133.8,116,131,116.2z"/>
	<path class="st0" d="M92,55.5c-1.7,0-2.8,0.5-3.5,1.6c-0.6,1.1-0.7,2.2-0.2,3.2c0.6,1.1,1.9,1.9,3.5,1.9c8.1,0.3,14.3,4,18.5,11
		c2,3.1,3,6.8,3.1,11.1c0,1.9,1.5,3.4,3.4,3.4c1.9-0.1,3.3-1.6,3.3-3.6V83C119.4,68,107.1,55.9,92,55.5z"/>
	<path class="st0" d="M92,55.2c-1.8,0-3,0.6-3.7,1.8c-0.7,1.1-0.7,2.4-0.2,3.5c0.7,1.2,2,2,3.7,2c8,0.3,14.2,4,18.3,10.9
		c2,3.1,3,6.7,3.1,11c0,2.1,1.6,3.6,3.6,3.6c2.1-0.1,3.5-1.7,3.5-3.8v-1.1C119.7,67.9,107.2,55.6,92,55.2z M120.2,84.2
		c0,2.1-1.4,3.6-3.4,3.7c-1.9,0-3.5-1.4-3.5-3.5c-0.1-4-1-7.7-3.1-11c-4.2-7-10.4-10.6-18.4-10.9c-3.1-0.1-4.9-2.8-3.4-5.3
		c0.8-1.3,2.1-1.7,3.6-1.7c15.2,0.4,27.5,12.5,28.2,27.7C120.2,83.5,120.2,83.8,120.2,84.2z"/>
	<path class="st0" d="M92,55.4c-1.5,0-2.8,0.4-3.6,1.7c-1.5,2.5,0.3,5.2,3.4,5.3c8,0.3,14.2,3.9,18.4,10.9c2.1,3.3,3,7,3.1,11
		c0,2.1,1.6,3.5,3.5,3.5c2-0.1,3.4-1.6,3.4-3.7c0-0.4,0-0.7,0-1.1C119.5,67.9,107.2,55.8,92,55.4z M120.1,84.2c0,2-1.4,3.5-3.3,3.6
		c-1.9,0-3.4-1.5-3.4-3.4c-0.1-4.3-1.1-8-3.1-11.1c-4.2-7-10.4-10.7-18.5-11c-1.5,0-2.8-0.8-3.5-1.9c-0.5-1-0.5-2.2,0.2-3.2
		c0.7-1.1,1.8-1.6,3.5-1.6c15.1,0.4,27.4,12.5,28.1,27.6C120.1,83.1,120.1,84.2,120.1,84.2z"/>
	<g>
		<path class="st0" d="M160.5,164c-2.2-2.2-4.3-4.1-6.3-6.1c-2.1-2.1-2.2-4.7-0.4-6.6c1.9-1.9,4.6-1.8,6.8,0.3c3,3,6,6,9,9
			c2.3,2.4,2.3,4.8,0,7.1c-16.9,17-37.2,26.8-61.1,28.9c-43.6,4-84.1-22.1-99.5-63C-7.8,88.7,12,36.7,54.4,14.4
			C106.6-13,170.1,11,190.9,66.2c8,21.1,8.2,42.6,1.3,64c-1,3-3.2,4.3-5.8,3.6c-2.5-0.7-3.7-3.3-2.8-6.2c3.4-10.6,4.9-21.6,4.2-32.7
			c-1.3-20.4-8.6-38.2-22.2-53.4c-15.3-17.1-34.5-27-57.3-29C66.8,8.7,29.6,33.4,16.4,72.8c-11.9,35.5,1.3,76.3,31.8,98.2
			c17.9,12.8,37.8,18.6,59.7,16.6C127.8,185.7,145.3,177.8,160.5,164z"/>
		<path class="st0" d="M99.7,200c-41.1,0-78.8-25.9-93.6-65.3C-2.2,112.2-2,87.3,6.7,64.4C15.4,41.6,31.9,22.8,53,11.7
			c25.7-13.6,55.8-15.4,82.7-5.2C162.3,16.6,183.4,38,193.6,65c8.1,21.5,8.5,43.7,1.3,66c-1.5,4.5-5.3,6.8-9.5,5.6
			c-1.9-0.5-3.5-1.8-4.4-3.5c-1-1.9-1.2-4.2-0.4-6.5c3.4-10.5,4.8-21.2,4.1-31.6c-1.2-19.7-8.4-37-21.4-51.6
			c-14.9-16.7-33.5-26.1-55.3-28c-40.2-3.6-75.8,19.8-88.8,58.3c-11.5,34.5,1.1,73.5,30.7,94.8c17.4,12.4,36.8,17.9,57.7,16.1
			c18.2-1.6,34.1-8.4,48.4-20.8c-1.4-1.3-2.7-2.6-4-3.9c-3.2-3.2-3.4-7.8-0.4-10.8c1.4-1.5,3.2-2.3,5.2-2.3c2.1,0,4.2,0.9,5.9,2.6
			c2.5,2.5,5.8,5.7,9.1,9c3.5,3.6,3.5,7.8,0,11.3c-17.5,17.6-38.6,27.6-62.9,29.8C105.7,199.8,102.7,200,99.7,200z M100.2,6.1
			c-15.2,0-30.5,3.7-44.4,11c-40.9,21.5-60.3,72.2-44,115.3c14.9,39.9,54.5,64.9,96.4,61.1c22.9-2.1,42.8-11.5,59.2-28.1
			c1.2-1.2,1.2-1.7,0-2.9c-3.2-3.3-6.5-6.5-9-9c-0.5-0.5-1.1-0.8-1.6-0.8c-0.3,0-0.6,0.2-0.9,0.5c-0.7,0.7-0.5,1.5,0.4,2.4
			c1.4,1.4,2.7,2.7,4.2,4.1c0.7,0.6,1.4,1.3,2.1,2l2.3,2.2l-2.4,2.2c-15.7,14.4-34,22.6-54.3,24.4c-22.4,2-43.1-3.8-61.7-17.2
			c-15.2-10.9-26.9-27.1-32.9-45.5s-6-38.2,0-56.1c6.7-20.1,19.4-36.6,36.5-48C67.3,12.5,87.5,7.6,108.5,9.5
			c23.4,2.1,43.3,12.2,59.2,30c13.9,15.6,21.7,34.1,23,55.2c0.7,11.1-0.8,22.6-4.4,33.8c-0.2,0.7-0.2,1.4,0,1.9
			c0.1,0.3,0.4,0.5,0.8,0.6c0.4,0.1,1.5,0.4,2.1-1.6c6.8-21.1,6.4-42-1.2-62.1c-9.6-25.4-29.4-45.5-54.5-55
			C122.8,8.1,111.5,6.1,100.2,6.1z"/>
	</g>
</g>
</svg>
