<?xml version="1.0" encoding="utf-8"?>
<!-- Generator: Adobe Illustrator 27.8.1, SVG Export Plug-In . SVG Version: 6.00 Build 0)  -->
<!DOCTYPE svg PUBLIC "-//W3C//DTD SVG 1.1//EN" "http://www.w3.org/Graphics/SVG/1.1/DTD/svg11.dtd" [
	<!ENTITY ns_extend "http://ns.adobe.com/Extensibility/1.0/">
	<!ENTITY ns_ai "http://ns.adobe.com/AdobeIllustrator/10.0/">
	<!ENTITY ns_graphs "http://ns.adobe.com/Graphs/1.0/">
	<!ENTITY ns_vars "http://ns.adobe.com/Variables/1.0/">
	<!ENTITY ns_imrep "http://ns.adobe.com/ImageReplacement/1.0/">
	<!ENTITY ns_sfw "http://ns.adobe.com/SaveForWeb/1.0/">
	<!ENTITY ns_custom "http://ns.adobe.com/GenericCustomNamespace/1.0/">
	<!ENTITY ns_adobe_xpath "http://ns.adobe.com/XPath/1.0/">
]>
<svg version="1.1" id="Layer_1" xmlns:x="&ns_extend;" xmlns:i="&ns_ai;" xmlns:graph="&ns_graphs;"
	 xmlns="http://www.w3.org/2000/svg" xmlns:xlink="http://www.w3.org/1999/xlink" x="0px" y="0px" width="500px" height="500px"
	 viewBox="0 0 500 500" style="enable-background:new 0 0 500 500;" xml:space="preserve">
<style type="text/css">
	.st0{fill:#FE5900;}
</style>
<metadata>
	<sfw  xmlns="&ns_sfw;">
		<slices></slices>
		<sliceSourceBounds  bottomLeftOrigin="true" height="461.5996" width="445.5996" x="27.2002" y="19.2003"></sliceSourceBounds>
	</sfw>
</metadata>
<g>
	<path class="st0" d="M447.9227,139.7632c-4.0267-7.8356-8.5214-15.4755-13.4891-22.8765
		c-41.6318-61.168-110.541-97.6865-184.334-97.6865c-122.9072,0-222.8994,99.9927-222.8994,222.8999
		c0,50.4976,17.2007,99.7153,48.4941,138.9194l-28.0405,84.6074l-0.0376,0.1182c-1.2305,4.0459-0.2568,8.4062,2.5103,11.3467
		c2.1436,2.3223,5.3115,3.708,8.4736,3.708c1.0029,0,1.8599-0.1729,2.4863-0.2988l116.7295-27.4971
		c22.7227,7.9609,46.9331,11.9961,71.9839,11.9961c35.6672,0,69.5398-8.0709,100.7039-23.9642
		c0.381-0.1478,0.764-0.3144,1.1447-0.5211C426.3799,401.9482,472.7998,325.9267,472.7998,242.1
		C472.7998,206.0949,464.2501,171.1774,447.9227,139.7632z M99.5645,382.2167c1.2427-3.9053,0.394-8.167-2.1499-11.0488
		C67.0322,335.3144,50.2998,289.4775,50.2998,242.1c0-110.1699,89.6299-199.7998,199.7998-199.7998
		c65.4367,0,126.6497,32.1028,164.1401,85.9139c0.2653,0.5858,0.5688,1.1618,0.938,1.7155
		c4.6711,6.8052,8.8792,13.8657,12.628,21.1372c14.3761,28.2908,21.8945,59.3365,21.8945,91.0332
		c0,1.431-0.0203,2.8585-0.0504,4.2842c-1.5517,73.4418-42.9141,139.7058-108.7474,173.6752
		c-28.0117,14.4922-58.6631,21.8408-91.1025,21.8408c-23.5112,0-46.1416-3.9668-67.2632-11.7891l-0.1572-0.0557
		c-2.1226-0.7061-4.3716-0.8203-6.5264-0.3223l-99.8867,23.5459L99.5645,382.2167z"/>
	<path class="st0" d="M243.7002,293.2997c-12.2261,0-21.1001,9.2109-21.1001,21.9004c0,12.4463,8.7676,21.5723,20.8999,21.7002
		c12.2256,0,21.0996-9.126,21.0996-21.7002C264.5996,302.5107,255.8105,293.2997,243.7002,293.2997z"/>
	<path class="st0" d="M218.9282,176.3784c5.7197-4.3535,15.3936-7.2783,23.9829-7.2793c9.3926,0.167,20.5889,3.4424,20.5889,18.1011
		c0,10.7856-6.4551,20.4712-17.6313,33.5874c-13.4927,16.0918-19.6636,33.4351-17.8491,50.1626l0.8247,11.5498h31.0747
		l-0.5273-12.292c-0.7461-12.7656,3.3486-23.1914,14.1309-35.9849c13.7559-16.3149,24.2773-30.3506,24.2773-49.9229
		c0-22.1499-15.4297-44.5-49.8999-44.5c-15.2671,0-31.4854,4.5688-41.3188,11.6401l-3.1162,2.2407l10.1318,26.7554
		L218.9282,176.3784z"/>
</g>
</svg>
