<?xml version="1.0" encoding="utf-8"?>
<!-- Generator: Adobe Illustrator 27.7.0, SVG Export Plug-In . SVG Version: 6.00 Build 0)  -->
<svg version="1.1" id="Layer_1" xmlns="http://www.w3.org/2000/svg" xmlns:xlink="http://www.w3.org/1999/xlink" x="0px" y="0px"
	 width="200px" height="200px" viewBox="0 0 200 200" style="enable-background:new 0 0 200 200;" xml:space="preserve">
<style type="text/css">
	.st0{fill:#FF6600;}
</style>
<path class="st0" d="M96.4,158.3c-3.6-0.5-7.3-0.7-10.8-1.7c-5.5-1.5-10.9-3.6-16.3-5.4c-0.8-0.3-1.7-0.5-2.5-0.4
	c-7.3,0.9-14.7,1.9-22.6,2.9c0.6-1.4,0.9-2.1,1.2-2.9c1-3,2.2-6,2.9-9.1c0.7-3,0.3-5.8-1.7-8.4c-19.4-25-14.2-57.3,10-76.8
	c26.3-21.1,67-19.3,91.3,4c23,22.1,23.2,56.2,0.4,78.5c-11.7,11.3-25.9,17.3-42,18.8c-0.9,0.1-1.9,0.3-2.8,0.5
	C101.2,158.3,98.8,158.3,96.4,158.3z M99.7,110.8c2.5,0,4.9,0.1,7.4-0.1c0.6,0,1.6-0.7,1.6-1.1c0.1-5.1,3.6-7.9,7-10.8
	c2.7-2.3,5.5-4.5,7.7-7.2c1.7-2.2,3.1-4.9,3.7-7.6c1.7-8.2-3-16.1-11.2-19.9c-7.2-3.3-14.8-3.5-22.5-2c-10.3,2.1-17,9.2-18.6,19.7
	c-0.3,1.8,0,2.6,2,2.7c4.6,0.4,9.2,1.1,13.7,1.8c1.9,0.3,2.8-0.1,3.1-2.3c1-5.8,4.8-8.4,10-7.3c3.5,0.8,5.2,4.3,3.3,7.4
	c-0.8,1.3-1.9,2.3-3,3.3c-2.4,2.2-4.9,4.3-7.4,6.5c-4.5,3.9-6.4,9-6.3,15c0,1.4,0.5,2,1.9,2C94.8,110.7,97.2,110.8,99.7,110.8z
	 M99.7,115.3c-2.6,0-5.1,0.1-7.7,0c-1.6-0.1-2.3,0.4-2.3,2.1c0.1,4.4,0.1,8.8,0,13.3c0,1.5,0.5,2.1,2.1,2.1c5.2-0.1,10.4-0.1,15.6,0
	c1.5,0,2.2-0.4,2.1-2c-0.1-4.5-0.1-8.9,0-13.5c0-1.7-0.7-2-2.2-2C104.8,115.4,102.2,115.3,99.7,115.3z"/>
<path class="st0" d="M193.6,65.1c-10.2-27-31.3-48.4-57.9-58.5C108.9-3.7,78.8-1.8,53,11.7c-21.1,11-37.6,29.8-46.3,52.7
	s-8.9,47.8-0.5,70.2C21,174.1,58.7,200,99.8,200c3,0,5.9-0.1,8.9-0.4c24.3-2.2,45.5-12.2,62.9-29.8c3.5-3.5,3.5-7.8,0-11.3
	c-3.3-3.3-6.6-6.6-9.1-9c-1.7-1.7-3.8-2.6-5.9-2.6c-1.9,0-3.8,0.8-5.2,2.3c-3,3.1-2.8,7.6,0.4,10.8c1.3,1.3,2.6,2.6,4,3.9
	c-14.3,12.4-30.2,19.1-48.4,20.8c-20.9,1.9-40.3-3.5-57.7-16.1C20.1,147.3,7.5,108.3,19,73.8c13.1-38.6,48.8-62.1,89-58.3
	c21.8,2,40.4,11.4,55.3,28c13,14.6,20.2,31.8,21.4,51.6c0.7,10.4-0.7,21.1-4.1,31.6c-0.7,2.3-0.6,4.6,0.4,6.5
	c0.9,1.7,2.5,2.9,4.4,3.5c4.2,1.2,8-1,9.5-5.6C202.1,108.8,201.7,86.5,193.6,65.1z"/>
</svg>
