<?xml version="1.0" encoding="utf-8"?>
<!-- Generator: Adobe Illustrator 27.8.1, SVG Export Plug-In . SVG Version: 6.00 Build 0)  -->
<!DOCTYPE svg PUBLIC "-//W3C//DTD SVG 1.1//EN" "http://www.w3.org/Graphics/SVG/1.1/DTD/svg11.dtd" [
	<!ENTITY ns_extend "http://ns.adobe.com/Extensibility/1.0/">
	<!ENTITY ns_ai "http://ns.adobe.com/AdobeIllustrator/10.0/">
	<!ENTITY ns_graphs "http://ns.adobe.com/Graphs/1.0/">
	<!ENTITY ns_vars "http://ns.adobe.com/Variables/1.0/">
	<!ENTITY ns_imrep "http://ns.adobe.com/ImageReplacement/1.0/">
	<!ENTITY ns_sfw "http://ns.adobe.com/SaveForWeb/1.0/">
	<!ENTITY ns_custom "http://ns.adobe.com/GenericCustomNamespace/1.0/">
	<!ENTITY ns_adobe_xpath "http://ns.adobe.com/XPath/1.0/">
]>
<svg version="1.1" id="Layer_1" xmlns:x="&ns_extend;" xmlns:i="&ns_ai;" xmlns:graph="&ns_graphs;"
	 xmlns="http://www.w3.org/2000/svg" xmlns:xlink="http://www.w3.org/1999/xlink" x="0px" y="0px" width="500px" height="500px"
	 viewBox="0 0 500 500" style="enable-background:new 0 0 500 500;" xml:space="preserve">
<style type="text/css">
	.st0{fill:#FE5900;}
</style>
<metadata>
	<sfw  xmlns="&ns_sfw;">
		<slices></slices>
		<sliceSourceBounds  bottomLeftOrigin="true" height="409.002" width="401.2998" x="49.5" y="45.5001"></sliceSourceBounds>
	</sfw>
</metadata>
<g>
	<g>
		<g>
			<path class="st0" d="M413.9,452H86.1C67.3,452,52,436.7,52,417.8V224.2c0-2,0.8-3.8,2.2-5.2l53.2-50.2c2.7-2.6,7-2.6,9.8,0
				l48,45.3l48-45.3c2.7-2.6,7-2.6,9.8,0l48,45.3l48-45.3c2.7-2.6,7-2.6,9.8,0l40.5,38.2V87.5c0-10.5,4.1-20.5,11.6-27.9
				c7.6-7.6,17.7-11.7,28.5-11.6c21.5,0.3,38.9,18.4,38.9,40.3v329.5C448,436.7,432.7,452,413.9,452z M66.2,227.2v190.6
				c0,11,8.9,19.9,19.9,19.9h327.7c11,0,19.9-8.9,19.9-19.9V88.3c0-14.2-11.2-25.9-24.9-26.1c-6.9-0.1-13.4,2.5-18.2,7.4
				c-4.8,4.8-7.4,11.1-7.4,17.9v136c0,2.8-1.7,5.4-4.3,6.5c-2.6,1.1-5.6,0.6-7.7-1.4l-2-1.9l-45.6-43l-45.6,43
				c-1.3,1.2-3.1,1.9-4.9,1.9h-4.7c-1.8,0-3.6-0.7-4.9-1.9l-45.6-43l-45.6,43c-1.3,1.2-3.1,1.9-4.9,1.9h-4.7c-1.8,0-3.6-0.7-4.9-1.9
				l-45.6-43L66.2,227.2z"/>
			<path class="st0" d="M413.9004,454.4999H86.1001c-20.1812,0-36.6001-16.4639-36.6001-36.7002V224.2001
				c0-2.603,1.0415-5.0776,2.9326-6.9683l53.2515-50.25c3.6338-3.4995,9.4478-3.5142,13.2173-0.0137l46.2988,43.6943
				l46.2842-43.6807c3.6338-3.5005,9.4473-3.5142,13.2168-0.0137L271,210.6625l46.2842-43.6807
				c3.6328-3.4985,9.4473-3.5142,13.2168-0.0137l36.2988,34.2373V87.4999c0-11.2847,4.3838-21.8252,12.3447-29.6797
				c7.9512-7.9512,18.5498-12.3223,29.8711-12.3223c0.1357,0,0.2715,0.001,0.4082,0.002
				c22.8203,0.3188,41.376,19.519,41.376,42.8003v329.4995C450.4785,438.0536,433.9258,454.4999,413.9004,454.4999z
				 M112.2676,169.3495c-1.1382,0-2.2661,0.416-3.1338,1.2515L55.916,220.8183c-0.9087,0.9097-1.416,2.0962-1.416,3.3818v193.5996
				c0,17.4795,14.1758,31.7002,31.6001,31.7002h327.8003c17.3115,0,31.6221-14.2383,31.8994-31.7402V88.3002
				c0-20.5625-16.3447-37.52-36.4346-37.8008c-0.1191-0.001-0.2393-0.0015-0.3594-0.0015c-9.9756,0-19.3203,3.8516-26.3379,10.8696
				c-7.0127,6.9194-10.8682,16.1958-10.8682,26.1323v125.2944l-44.7158-42.1753c-1.8096-1.6826-4.6064-1.6968-6.3496-0.0181
				L271,217.5375l-49.7158-46.9189c-1.8115-1.6826-4.6069-1.6963-6.3496-0.0176l-49.7344,46.9365l-49.7158-46.9189
				C114.5747,169.7738,113.416,169.3495,112.2676,169.3495z M413.7998,440.2001H86.1001c-12.3516,0-22.3999-10.0488-22.3999-22.4004
				V226.1235l48.4976-45.8618l47.3174,44.6196c0.8198,0.7563,2.0176,1.2188,3.1851,1.2188h4.6997
				c1.167,0,2.3652-0.4624,3.2041-1.2368l47.2959-44.5991l47.3149,44.6172c0.8203,0.7563,2.0176,1.2188,3.1855,1.2188h4.6992
				c1.168,0,2.3652-0.4624,3.2051-1.2368l47.2949-44.5991l49.3223,46.5234c1.3584,1.2944,3.2744,1.6401,5.0049,0.9102
				c1.6582-0.7021,2.7734-2.3892,2.7734-4.1978v-136c0-7.439,2.8877-14.4238,8.1318-19.6675
				c5.2393-5.3486,12.3486-8.2617,20.0039-8.1318c15.0889,0.2197,27.3643,13.0498,27.3643,28.5996v329.4995
				C436.2002,430.1513,426.1514,440.2001,413.7998,440.2001z M68.7002,228.2768v189.523c0,9.5947,7.8057,17.4004,17.3999,17.4004
				h327.6997c9.5947,0,17.4004-7.8057,17.4004-17.4004V88.3002c0-12.833-10.0654-23.4199-22.4365-23.6006
				c-6.2656-0.0728-12.0869,2.271-16.3779,6.6499c-4.3174,4.3179-6.6855,10.0469-6.6855,16.1504v136
				c0,3.7905-2.3408,7.3276-5.8252,8.8022c-3.5391,1.4985-7.6221,0.7539-10.3994-1.8921l-1.9971-1.8975l-43.8789-41.3765
				l-43.8848,41.3828c-1.7842,1.647-4.1875,2.5811-6.6152,2.5811h-4.6992c-2.4277,0-4.8311-0.9341-6.5957-2.563l-43.9048-41.4009
				l-43.8848,41.3828c-1.7842,1.647-4.1885,2.5811-6.6152,2.5811h-4.6997c-2.4268,0-4.8306-0.9341-6.5957-2.5625l-43.9019-41.3989
				L68.7002,228.2768z"/>
		</g>
	</g>
	<g>
		<g>
			<path class="st0" d="M440.9,424.9H59.1c-3.9,0-7.1-3.2-7.1-7.1s3.2-7.1,7.1-7.1h381.8c3.9,0,7.1,3.2,7.1,7.1
				C448,421.8,444.8,424.9,440.9,424.9z"/>
			<path class="st0" d="M440.9004,427.4003H59.1001c-5.2935,0-9.6001-4.3066-9.6001-9.6006c0-5.293,4.3066-9.5996,9.6001-9.5996
				h381.8003c5.293,0,9.5996,4.3066,9.5996,9.5996C450.5,423.0937,446.1934,427.4003,440.9004,427.4003z M59.1001,413.2001
				c-2.5366,0-4.6001,2.0635-4.6001,4.5996c0,2.5371,2.0635,4.6006,4.6001,4.6006h381.8003c2.5791,0,4.5996-2.0205,4.5996-4.6006
				c0-2.5361-2.0635-4.5996-4.5996-4.5996H59.1001z"/>
		</g>
	</g>
</g>
</svg>
