<?xml version="1.0" encoding="utf-8"?>
<!-- Generator: Adobe Illustrator 27.7.0, SVG Export Plug-In . SVG Version: 6.00 Build 0)  -->
<svg version="1.1" id="Layer_1" xmlns="http://www.w3.org/2000/svg" xmlns:xlink="http://www.w3.org/1999/xlink" x="0px" y="0px"
	 width="200px" height="200px" viewBox="0 0 200 200" style="enable-background:new 0 0 200 200;" xml:space="preserve">
<style type="text/css">
	.st0{fill:#FF6600;}
	.st1{fill-rule:evenodd;clip-rule:evenodd;fill:#FF6600;}
	.st2{display:none;}
	.st3{display:inline;}
	.st4{fill:#FF6100;}
	.st5{fill:#FFFFFF;}
</style>
<g id="Layer_1_00000060005612670309492460000011955125982275759498_">
	<path class="st0" d="M193.6,65.1C183.4,38,162.3,16.7,135.7,6.6C108.9-3.7,78.8-1.9,53,11.7C31.9,22.8,15.4,41.5,6.7,64.4
		s-8.9,47.8-0.5,70.2C21,174.1,58.7,200,99.8,200c3,0,5.9-0.1,8.9-0.4c24.3-2.2,45.5-12.3,62.9-29.8c3.5-3.5,3.5-7.8,0-11.3
		c-3.3-3.3-6.6-6.6-9.1-9c-1.7-1.7-3.8-2.6-5.9-2.6c-1.9,0-3.8,0.8-5.2,2.3c-3,3.1-2.8,7.6,0.4,10.8c1.3,1.3,2.6,2.6,4,3.9
		c-14.3,12.4-30.2,19.1-48.4,20.8c-20.9,1.9-40.3-3.5-57.7-16.1C20.1,147.3,7.5,108.3,19,73.7c13.1-38.6,48.8-62,89-58.4
		c21.8,2,40.4,11.5,55.3,28c13,14.6,20.2,31.8,21.4,51.6c0.7,10.4-0.7,21.1-4.1,31.6c-0.7,2.3-0.6,4.6,0.4,6.5
		c0.9,1.7,2.5,2.9,4.4,3.5c4.2,1.2,8-1,9.5-5.6C202.1,108.8,201.7,86.6,193.6,65.1z"/>
	<polygon class="st1" points="122,33.1 145.9,33.1 145.9,144.7 47.3,144.7 47.3,94.8 60.4,66 73.9,89.9 86.5,66 99,90.3 111.6,66 
		122,85.3 	"/>
</g>
<g id="Layer_2_00000143586691607049906940000013310730623304260795_" class="st2">
	<g class="st3">
		<g>
			<g>
				<g>
					<path class="st4" d="M138.5,168.9H65.3l-2-3.3V41.3c0-3.1,2.6-5.7,5.7-5.7h63.7c3.1,0,5.7,2.6,5.7,5.7v127.7H138.5z
						 M67.4,164.9h67.1V41.2c0-1-0.7-1.7-1.7-1.7H69.1c-1,0-1.7,0.7-1.7,1.7V164.9z"/>
					<path class="st4" d="M139.2,169.7H64.9l-1.9-4L62.7,41.3c0-3.5,2.9-6.4,6.4-6.4h63.7c3.5,0,6.4,2.9,6.4,6.4V169.7z M65.7,168.2
						h72.1v-127c0-2.8-2.3-5-5-5H69.1c-2.8,0-5,2.3-5,5v124.2L65.7,168.2z M135.2,165.7H66.7V41.2c0-1.3,1-2.4,2.4-2.4h63.7
						c1.3,0,2.4,1,2.4,2.4V165.7z M68.1,164.2h65.7V41.2c0-0.6-0.4-1-1-1H69.1c-0.6,0-1,0.4-1,1V164.2z"/>
				</g>
			</g>
			<g>
				<path class="st4" d="M112.2,169.8H89.6v-37c0-2.9,2.3-5.2,5.2-5.2H107c2.9,0,5.2,2.3,5.2,5.2V169.8z M93.8,165.6h14.3v-32.8
					c0-0.6-0.5-1.1-1.1-1.1H94.9c-0.6,0-1.1,0.5-1.1,1.1V165.6z"/>
			</g>
			<g>
				<g>
					<rect x="73.6" y="45.2" class="st4" width="8.2" height="8.2"/>
					<rect x="89.1" y="45.2" class="st4" width="8.2" height="8.2"/>
					<rect x="104.6" y="45.2" class="st4" width="8.2" height="8.2"/>
					<rect x="120" y="45.2" class="st4" width="8.2" height="8.2"/>
				</g>
				<g>
					<rect x="73.6" y="62" class="st4" width="8.2" height="8.2"/>
					<rect x="89.1" y="62" class="st4" width="8.2" height="8.2"/>
					<rect x="104.6" y="62" class="st4" width="8.2" height="8.2"/>
					<rect x="120" y="62" class="st4" width="8.2" height="8.2"/>
				</g>
				<g>
					<rect x="73.6" y="78.7" class="st4" width="8.2" height="8.2"/>
					<rect x="89.1" y="78.7" class="st4" width="8.2" height="8.2"/>
					<rect x="104.6" y="78.7" class="st4" width="8.2" height="8.2"/>
					<rect x="120" y="78.7" class="st4" width="8.2" height="8.2"/>
				</g>
				<g>
					<rect x="73.6" y="95.5" class="st4" width="8.2" height="8.2"/>
					<rect x="89.1" y="95.5" class="st4" width="8.2" height="8.2"/>
					<rect x="104.6" y="95.5" class="st4" width="8.2" height="8.2"/>
					<rect x="120" y="95.5" class="st4" width="8.2" height="8.2"/>
				</g>
				<g>
					<rect x="89.1" y="112.2" class="st4" width="8.2" height="8.2"/>
					<rect x="104.6" y="112.2" class="st4" width="8.2" height="8.2"/>
					<rect x="120" y="112.2" class="st4" width="8.2" height="8.2"/>
				</g>
			</g>
			<g>
				<rect x="77.1" y="30.3" class="st4" width="47.7" height="7.9"/>
			</g>
		</g>
		<g>
			<path class="st4" d="M64.5,107.6c-10.6,0.1-19.1,8.7-19,19.3S65,169.8,65,169.8s18.9-32.6,18.9-43.2
				C83.7,116.1,75,107.5,64.5,107.6z M64.7,135.4c-5,0.1-9.2-4.1-9.3-9.1c-0.1-5,4.1-9.2,9.1-9.3c5-0.1,9.2,4.1,9.3,9.1
				C73.8,131.2,69.7,135.4,64.7,135.4z"/>
			<path class="st5" d="M64.7,135.4c-5,0.1-9.2-4.1-9.3-9.1c-0.1-5,4.1-9.2,9.1-9.3c5-0.1,9.2,4.1,9.3,9.1
				C73.8,131.2,69.7,135.4,64.7,135.4z"/>
		</g>
	</g>
</g>
</svg>
