<?xml version="1.0" encoding="utf-8"?>
<!-- Generator: Adobe Illustrator 27.8.1, SVG Export Plug-In . SVG Version: 6.00 Build 0)  -->
<!DOCTYPE svg PUBLIC "-//W3C//DTD SVG 1.1//EN" "http://www.w3.org/Graphics/SVG/1.1/DTD/svg11.dtd" [
	<!ENTITY ns_extend "http://ns.adobe.com/Extensibility/1.0/">
	<!ENTITY ns_ai "http://ns.adobe.com/AdobeIllustrator/10.0/">
	<!ENTITY ns_graphs "http://ns.adobe.com/Graphs/1.0/">
	<!ENTITY ns_vars "http://ns.adobe.com/Variables/1.0/">
	<!ENTITY ns_imrep "http://ns.adobe.com/ImageReplacement/1.0/">
	<!ENTITY ns_sfw "http://ns.adobe.com/SaveForWeb/1.0/">
	<!ENTITY ns_custom "http://ns.adobe.com/GenericCustomNamespace/1.0/">
	<!ENTITY ns_adobe_xpath "http://ns.adobe.com/XPath/1.0/">
]>
<svg version="1.1" id="Layer_1" xmlns:x="&ns_extend;" xmlns:i="&ns_ai;" xmlns:graph="&ns_graphs;"
	 xmlns="http://www.w3.org/2000/svg" xmlns:xlink="http://www.w3.org/1999/xlink" x="0px" y="0px" width="500px" height="500px"
	 viewBox="0 0 500 500" style="enable-background:new 0 0 500 500;" xml:space="preserve">
<style type="text/css">
	.st0{fill:#FE5900;}
</style>
<metadata>
	<sfw  xmlns="&ns_sfw;">
		<slices></slices>
		<sliceSourceBounds  bottomLeftOrigin="true" height="304.3999" width="462.818" x="18.5864" y="97.7999"></sliceSourceBounds>
	</sfw>
</metadata>
<g>
	<g>
		<path class="st0" d="M250.1,237.1c37.7,0,68.4-30.7,68.4-68.4s-30.7-68.4-68.4-68.4c-37.7,0-68.4,30.7-68.4,68.4
			S212.4,237.1,250.1,237.1z M250.1,111.2c31.7,0,57.5,25.8,57.5,57.5c0,31.7-25.8,57.5-57.5,57.5c-31.7,0-57.5-25.8-57.5-57.5
			C192.6,137,218.4,111.2,250.1,111.2z"/>
		<path class="st0" d="M250.0996,239.6c-39.0942,0-70.8994-31.8057-70.8994-70.8999s31.8052-70.8999,70.8994-70.8999
			c39.0947,0,70.9004,31.8057,70.9004,70.8999S289.1943,239.6,250.0996,239.6z M250.0996,102.8002
			c-36.3369,0-65.8994,29.5625-65.8994,65.8999S213.7627,234.6,250.0996,234.6C286.4375,234.6,316,205.0375,316,168.7001
			S286.4375,102.8002,250.0996,102.8002z M250.0996,228.7001c-33.084,0-59.9995-26.916-59.9995-60s26.9155-60,59.9995-60
			s60,26.916,60,60S283.1836,228.7001,250.0996,228.7001z M250.0996,113.7001c-30.3267,0-54.9995,24.6728-54.9995,55
			s24.6729,55,54.9995,55c30.3271,0,55-24.6729,55-55S280.4268,113.7001,250.0996,113.7001z"/>
	</g>
	<g>
		<path class="st0" d="M393.2,242.6c27.3,0,49.4-22.1,49.4-49.4c0-27.2-22.2-49.4-49.4-49.4c-27.2,0-49.4,22.2-49.4,49.4
			S366,242.6,393.2,242.6z M393.2,154.8c21.3,0,38.5,17.3,38.5,38.5s-17.3,38.5-38.5,38.5s-38.5-17.3-38.5-38.5
			S372,154.8,393.2,154.8z"/>
		<path class="st0" d="M393.2002,245.1c-28.6182,0-51.9004-23.2822-51.9004-51.8999s23.2822-51.8999,51.9004-51.8999
			c28.6172,0,51.8994,23.2822,51.8994,51.8999S421.8174,245.1,393.2002,245.1z M393.2002,146.3002
			c-25.8613,0-46.9004,21.0391-46.9004,46.8999S367.3389,240.1,393.2002,240.1c25.8604,0,46.8994-21.0391,46.8994-46.8999
			S419.0605,146.3002,393.2002,146.3002z M393.2002,234.3002c-22.6074,0-41-18.3926-41-41s18.3926-41,41-41s41,18.3926,41,41
			S415.8076,234.3002,393.2002,234.3002z M393.2002,157.3002c-19.8506,0-36,16.1494-36,36s16.1494,36,36,36s36-16.1494,36-36
			S413.0508,157.3002,393.2002,157.3002z"/>
	</g>
	<g>
		<path class="st0" d="M469.9,289.5c-18.8-23.4-46.7-36.8-76.6-36.8c-25.1707,0-48.8282,9.3352-67.0394,26.4904
			C304.0073,264.4442,277.722,256.4,250.2,256.4c-27.7207,0-54.0693,8.0783-76.3459,22.9077
			C155.6543,262.1935,132.0312,252.8,106.9,252.8c-30.6,0-58.8,13.9-77.5,38.1c-9.4,12.1-10.9,28.3-4.1,42.2c7,14.2,21.1,23,36.9,23
			h68.9199c0.9604,4.0457,2.3788,8.0368,4.2801,11.9c9.6,19.6,29,31.7,50.7,31.7h128.1c21.7,0,41.1-12.2,50.5-31.8
			c1.8504-3.8372,3.2355-7.7927,4.1759-11.8H438c15.8,0,29.9-8.8,36.8-23.2C481.7,318.5,479.8,301.9,469.9,289.5z M62.1,345.2
			c-11.6,0-22-6.4-27.1-16.9c-5-10.3-3.9-21.8,3-30.8c16.6-21.5,41.7-33.8,68.9-33.8c21.6843,0,42.0251,7.8255,57.9521,22.1458
			C156.0661,292.7906,148.0449,300.8658,141,310c-7.9033,10.3113-11.7594,22.7194-11.3451,35.2H62.1z M314.1,388.8H186
			c-17.5,0-33.1-9.8-40.9-25.6c-2.0389-4.1582-3.3935-8.4539-4.1139-12.7755c-0.019-0.3915-0.0774-0.77-0.1722-1.1333
			c-1.5993-11.42,1.3491-22.9584,8.7861-32.5912c7.6996-9.9493,16.6375-18.5481,26.5142-25.6604
			c0.1382-0.0829,0.2669-0.1849,0.3994-0.2814C197.7296,275.605,223.2477,267.3,250.2,267.3c38.9,0,75,17.4,99.2,47.8
			c11,13.8,13.1,32.2,5.4,48.1C347.1,379.2,331.9,388.8,314.1,388.8z M464.9,328.1c-5.1,10.7-15.2,17-26.9,17h-67.6686
			c0.4128-13.0617-3.7864-26.056-12.3314-36.8c-6.7655-8.489-14.3967-16.0369-22.7107-22.5781
			C351.2249,271.444,371.5892,263.6,393.3,263.6c26.6,0,51.4,11.9,68,32.7C468.6,305.4,470,317.6,464.9,328.1z"/>
		<path class="st0" d="M314.2002,402.2001H186.1001c-22.6572,0-42.9448-12.6836-52.9453-33.1006
			c-1.6543-3.3604-2.9888-6.8857-3.9766-10.5h-66.978c-16.7266,0-31.7251-9.3477-39.1426-24.3945
			c-7.2627-14.8447-5.5874-32.0234,4.3682-44.8389c19.1836-24.8252,48.1519-39.0664,79.4741-39.0664
			c24.9766,0,48.7661,9.1641,67.2148,25.8477c22.5601-14.5605,48.8237-22.2471,76.0854-22.2471
			c27.0898,0,53.2529,7.6465,75.7949,22.1319c18.4102-16.6738,42.2305-25.832,67.3047-25.832
			c30.6523,0,59.2822,13.7539,78.5498,37.7344l0.0049,0.0059c10.5078,13.1631,12.501,30.8047,5.2002,46.04
			c-7.2764,15.1855-22.2412,24.6191-39.0547,24.6191h-67.1768c-0.9639,3.5654-2.2627,7.0508-3.8711,10.3867
			C357.127,389.4716,336.9131,402.2001,314.2002,402.2001z M106.8999,255.2997c-29.7617,0-57.2886,13.5332-75.522,37.1289
			c-8.7793,11.3008-10.2461,26.4619-3.8325,39.5723c6.5659,13.3203,19.8462,21.5986,34.6548,21.5986h70.896l0.4565,1.9229
			c0.9307,3.9238,2.3071,7.75,4.0903,11.374c9.1562,18.6934,27.7231,30.3037,48.457,30.3037h128.1001
			c20.7715,0,39.2578-11.6416,48.2461-30.3809c1.7412-3.6113,3.085-7.4092,3.9961-11.291l0.4521-1.9287H438
			c14.8711,0,28.1084-8.3457,34.5449-21.7793c6.4648-13.4912,4.7031-29.1094-4.5986-40.7607
			c-18.3125-22.79-45.5186-35.8594-74.6465-35.8594c-24.457,0-47.6572,9.166-65.3252,25.8096l-1.4424,1.3594l-1.6523-1.0947
			c-22.0889-14.6377-47.9121-22.374-74.6797-22.374c-26.939,0-52.8599,7.7764-74.9609,22.4883l-1.6519,1.0996l-1.4458-1.3594
			C154.4287,264.4726,131.2588,255.2997,106.8999,255.2997z M314.0996,391.2997H186c-18.3911,0-34.9224-10.3428-43.1416-26.9932
			c-2.1045-4.292-3.5635-8.8223-4.3379-13.4707l-0.0312-0.29c-0.0103-0.2139-0.042-0.4238-0.0942-0.624l-0.0571-0.2842
			c-1.7153-12.25,1.5815-24.4902,9.2832-34.4648c7.7671-10.0361,16.8613-18.8379,27.0322-26.1611l0.3853-0.2725
			c21.936-15.667,47.9189-23.9395,75.1616-23.9395c39.626,0,76.4961,17.7656,101.1562,48.7432
			c11.6133,14.5703,13.7959,34.0166,5.6934,50.7471C348.9111,381.2001,332.8545,391.2997,314.0996,391.2997z M143.4741,350.1425
			c0.7002,4.124,2.0024,8.1465,3.8706,11.957c7.3682,14.9248,22.1812,24.2002,38.6553,24.2002h128.0996
			c16.7871,0,31.1602-9.041,38.4473-24.1836c7.2588-14.9883,5.3027-32.4053-5.1016-45.458
			c-23.7061-29.7793-59.1504-46.8584-97.2451-46.8584c-26.1948,0-51.1724,7.9502-72.2334,22.9922
			c-0.1743,0.1309-0.3164,0.2334-0.4551,0.3223c-9.7544,7.0342-18.4805,15.4844-25.9346,25.1162
			c-6.8438,8.8643-9.7915,19.7227-8.3052,30.5859C143.3755,349.249,143.4434,349.6943,143.4741,350.1425z M132.2393,347.7001
			H62.1001c-12.6177,0-23.8638-7.0156-29.3486-18.3086c-5.4268-11.1777-4.2061-23.668,3.2646-33.4131
			c17.0669-22.1045,42.9014-34.7783,70.8838-34.7783c22.1064,0,43.2812,8.0928,59.6235,22.7861l2.2046,1.9824l-2.3257,1.8379
			c-8.7173,6.8916-16.5981,14.8721-23.4229,23.7207c-7.3789,9.627-11.2251,21.5586-10.8262,33.5898L132.2393,347.7001z
			 M106.8999,266.2001c-26.4214,0-50.813,11.9648-66.9209,32.8271c-6.2896,8.2041-7.312,18.7412-2.73,28.1807
			c4.6416,9.5557,14.1641,15.4922,24.8511,15.4922h65.0298c0.1562-12.2988,4.3291-24.3613,11.8857-34.2207
			c6.4624-8.3789,13.833-16.002,21.9438-22.7021C145.8628,273.1318,126.7817,266.2001,106.8999,266.2001z M438,347.5995h-70.249
			l0.0811-2.5791c0.3994-12.6152-3.7871-25.1045-11.7891-35.165c-6.5586-8.2295-14.0625-15.6885-22.2998-22.1689l-2.3398-1.8408
			l2.2178-1.9863c16.3818-14.6768,37.5762-22.7598,59.6787-22.7598c27.3945,0,52.8916,12.2617,69.9541,33.6406
			c7.9219,9.876,9.417,23.0752,3.8994,34.4434C461.6523,340.7158,450.7549,347.5995,438,347.5995z M372.8535,342.5995H438
			c10.7822,0,19.9941-5.8223,24.6436-15.5762l0.0078-0.0156c4.6699-9.6152,3.4053-20.7822-3.3018-29.1436
			c-16.1113-20.1885-40.1846-31.7646-66.0498-31.7646c-19.8789,0-38.9766,6.9219-54.1094,19.5527
			c7.6191,6.2646,14.5938,13.3477,20.7646,21.0889C368.1494,317.0449,372.6797,329.6884,372.8535,342.5995z"/>
	</g>
	<g>
		<path class="st0" d="M106.9,242.6c27.2,0,49.4-22.1,49.4-49.4c0-27.2-22.2-49.4-49.4-49.4S57.5,166,57.5,193.2
			S79.7,242.6,106.9,242.6z M106.9,154.8c21.2,0,38.5,17.3,38.5,38.5s-17.3,38.5-38.5,38.5s-38.5-17.3-38.5-38.5
			S85.7,154.8,106.9,154.8z"/>
		<path class="st0" d="M106.8999,245.1C78.2822,245.1,55,221.8178,55,193.2001s23.2822-51.8999,51.8999-51.8999
			s51.8999,23.2822,51.8999,51.8999S135.5176,245.1,106.8999,245.1z M106.8999,146.3002C81.0391,146.3002,60,167.3393,60,193.2001
			S81.0391,240.1,106.8999,240.1s46.8999-21.0391,46.8999-46.8999S132.7607,146.3002,106.8999,146.3002z M106.8999,234.3002
			c-22.6074,0-41-18.3926-41-41s18.3926-41,41-41s41,18.3926,41,41S129.5073,234.3002,106.8999,234.3002z M106.8999,157.3002
			c-19.8506,0-36,16.1494-36,36s16.1494,36,36,36s36-16.1494,36-36S126.7505,157.3002,106.8999,157.3002z"/>
	</g>
</g>
</svg>
