<?xml version="1.0" encoding="utf-8"?>
<!-- Generator: Adobe Illustrator 27.8.1, SVG Export Plug-In . SVG Version: 6.00 Build 0)  -->
<!DOCTYPE svg PUBLIC "-//W3C//DTD SVG 1.1//EN" "http://www.w3.org/Graphics/SVG/1.1/DTD/svg11.dtd" [
	<!ENTITY ns_extend "http://ns.adobe.com/Extensibility/1.0/">
	<!ENTITY ns_ai "http://ns.adobe.com/AdobeIllustrator/10.0/">
	<!ENTITY ns_graphs "http://ns.adobe.com/Graphs/1.0/">
	<!ENTITY ns_vars "http://ns.adobe.com/Variables/1.0/">
	<!ENTITY ns_imrep "http://ns.adobe.com/ImageReplacement/1.0/">
	<!ENTITY ns_sfw "http://ns.adobe.com/SaveForWeb/1.0/">
	<!ENTITY ns_custom "http://ns.adobe.com/GenericCustomNamespace/1.0/">
	<!ENTITY ns_adobe_xpath "http://ns.adobe.com/XPath/1.0/">
]>
<svg version="1.1" id="Layer_1" xmlns:x="&ns_extend;" xmlns:i="&ns_ai;" xmlns:graph="&ns_graphs;"
	 xmlns="http://www.w3.org/2000/svg" xmlns:xlink="http://www.w3.org/1999/xlink" x="0px" y="0px" width="500px" height="500px"
	 viewBox="0 0 500 500" style="enable-background:new 0 0 500 500;" xml:space="preserve">
<style type="text/css">
	.st0{fill:#FE5900;}
	.st1{fill:#F15B22;}
</style>
<metadata>
	<sfw  xmlns="&ns_sfw;">
		<slices></slices>
		<sliceSourceBounds  bottomLeftOrigin="true" height="440.0996" width="419" x="40.5" y="29.9005"></sliceSourceBounds>
	</sfw>
</metadata>
<g>
	<g>
		<path class="st0" d="M455,92.1l-57.5-57.6c-1.3-1.3-3-2-4.8-2H126c-3.7,0-6.7,3-6.7,6.7v175.5H49.7c-3.7,0-6.7,3-6.7,6.7v149.4
			c0,3.7,3,6.7,6.7,6.7h69.5v83.4c0,3.7,3,6.7,6.7,6.7h324.4c3.7,0,6.7-3,6.7-6.7V96.9C457,95.1,456.3,93.4,455,92.1z M399.3,55.4
			L434,90.1h-34.7V55.4z M56.5,228.2h256.3V364H56.5V228.2z M132.6,454.2v-76.7h186.9c3.7,0,6.7-3,6.7-6.8V221.4
			c0-3.7-3-6.7-6.7-6.7H132.7V45.9h253.2v51c0,3.7,3,6.7,6.7,6.7h50.9v350.6H132.6z"/>
		<path class="st1" d="M450.2998,470.0995H125.8999c-5.0728,0-9.1997-4.127-9.1997-9.1992v-80.9004h-67
			c-5.0732,0-9.2002-4.127-9.2002-9.2002V221.3998c0-5.0728,4.127-9.1997,9.2002-9.1997h67.0996v-173
			c0-5.0728,4.127-9.2002,9.2002-9.2002h266.7002c2.4736,0,4.8057,0.9702,6.5674,2.7324l57.502,57.6016
			c1.7607,1.7617,2.7305,4.0933,2.7305,6.5659v364.0005C459.5,465.9726,455.373,470.0995,450.2998,470.0995z M49.7002,217.2001
			c-2.3159,0-4.2002,1.8838-4.2002,4.1997v149.3999c0,2.3164,1.8843,4.2002,4.2002,4.2002h72v85.9004
			c0,2.3154,1.8838,4.1992,4.1997,4.1992h324.3999c2.3164,0,4.2002-1.8838,4.2002-4.1992V96.8998
			c0-1.1543-0.4385-2.2026-1.2676-3.0322l-0.002-0.0015l-57.5-57.6001c-0.8281-0.8276-1.876-1.2661-3.0303-1.2661H126
			c-2.3159,0-4.2002,1.8843-4.2002,4.2002v178H49.7002z M446,456.7001H130.1001v-81.7002H319.5
			c2.3555,0,4.2002-1.8887,4.2002-4.2998V221.3998c0-2.3159-1.8838-4.1997-4.2002-4.1997H130.2002V43.3998h258.2002v53.5
			c0,2.3159,1.8838,4.2002,4.1992,4.2002H446V456.7001z M135.1001,451.7001H441V106.1h-48.4004
			c-5.0723,0-9.1992-4.127-9.1992-9.2002v-48.5H135.2002v163.8003H319.5c5.0732,0,9.2002,4.127,9.2002,9.1997v149.3003
			c0,5.1279-4.127,9.2998-9.2002,9.2998H135.1001V451.7001z M315.2998,366.4999H54V225.7001h261.2998V366.4999z M59,361.4999
			h251.2998V230.7001H59V361.4999z M440.0352,92.6h-43.2354V49.3642L440.0352,92.6z M401.7998,87.6h26.165l-26.165-26.1646V87.6z"/>
	</g>
	<g>
		<path class="st0" d="M112.3,290.2c-12.3-4.8-17.7-8.9-17.7-17.2c0-6,4.7-13.3,16.8-13.3c8.1,0,14,2.6,16.9,4.2l3.2-9.4
			c-4-2.3-10.6-4.4-19.7-4.4c-17.3,0-28.8,10.3-28.8,24.2c0,12.6,8.9,20.1,23.4,25.3c12,4.6,16.8,9.4,16.8,17.7
			c0,9-6.8,15.2-18.6,15.2c-7.9,0-15.4-2.6-20.6-5.8l-2.9,9.6c4.7,3.2,14.1,5.7,22.7,5.7c21,0,31.2-11.9,31.2-25.6
			C135,303.3,127.4,295.9999,112.3,290.2z"/>
		<path class="st1" d="M103.7998,344.4999c-8.8901,0-18.8032-2.5225-24.1069-6.1338l-1.5166-1.0332l4.3691-14.4629l2.7646,1.7012
			c5.5239,3.3994,12.7354,5.4287,19.29,5.4287c10.0815,0,16.1001-4.748,16.1001-12.7002c0-6.042-2.4863-10.4932-15.1953-15.3662
			C94.7998,298.0956,80.5,291.0331,80.5,274.2997c0-15.7207,12.8711-26.7002,31.2998-26.7002
			c11.0625,0,17.8721,2.9658,20.9463,4.7334l1.7837,1.0254l-4.8252,14.1729l-2.6128-1.4424
			c-2.6313-1.4521-8.1689-3.8887-15.6919-3.8887c-9.8784,0-14.2998,5.4238-14.2998,10.7998c0,6.5781,3.7617,10.0527,16.103,14.8691
			c17.0312,6.543,24.2969,15.0752,24.2969,28.5312C137.5,330.3867,127.0796,344.4999,103.7998,344.4999z M84.0566,335.1581
			c4.7783,2.5312,12.8306,4.3418,19.7432,4.3418c17.4346,0,28.7002-9.0674,28.7002-23.0996c0-11.3438-5.915-18.0352-21.0967-23.8662
			l-0.0122-0.0049c-12.2178-4.7676-19.291-9.4922-19.291-19.5293c0-7.6094,6.0396-15.7998,19.2998-15.7998
			c6.6353,0,11.9551,1.666,15.4502,3.2021l1.5879-4.6651c-3.1606-1.4482-8.5767-3.1377-16.6382-3.1377
			c-15.4849,0-26.2998,8.9238-26.2998,21.7002c0,10.4775,6.7061,17.5547,21.7437,22.9463
			c11.0986,4.2549,18.4565,9.2822,18.4565,20.0537c0,10.7529-8.2822,17.7002-21.1001,17.7002c-6.48,0-13.2798-1.6562-19.105-4.6035
			L84.0566,335.1581z"/>
	</g>
	<g>
		<path class="st0" d="M211.2,262c-7.8-7.3-19.6-11.1-36.1-11.1c-9.1,0-17.4,0.8-24.4,1.9h-0.1v87.5c5.8,0.7,12.7,1.1,20.9,1.1
			c17.3,0,31.1-4.5,39.4-12.8c8.3-8.2,12.8-20.1,12.8-34.6C223.7,279.6,219.1,269.3,211.2,262z M173.8,332.2
			c-4.5,0-8.7-0.2-11.6-0.7h-0.1v-70.2c3.1-0.7,7.6-1.2,13.5-1.2c24.3,0,36.2,13.3,36.1,34.3C211.7,318.5,198.4,332.2,173.8,332.2z"
			/>
		<path class="st1" d="M171.5,343.9003c-7.9189,0-15.0513-0.376-21.1997-1.1182l-2.2002-0.2656v-92.2168h2.4058
			c8.0894-1.2603,16.3633-1.8994,24.5942-1.8994c16.9707,0,29.3354,3.8486,37.8013,11.7676
			c8.8242,8.1572,13.2988,19.5391,13.2988,33.832c0,15.0469-4.6831,27.626-13.5435,36.3779
			C203.8154,339.2206,189.5796,343.9003,171.5,343.9003z M153.1001,338.0624c5.437,0.5566,11.6133,0.8379,18.3999,0.8379
			c16.4858,0,29.8506-4.2861,37.6318-12.0684c7.8989-7.8027,12.0684-19.1523,12.0684-32.832
			c0-13.0244-3.8262-22.8906-11.6968-30.1641l-0.0112-0.0107c-7.4961-7.0146-18.7456-10.4248-34.3921-10.4248
			c-7.3564,0-14.7471,0.5264-22,1.5664V338.0624z M173.7998,334.7001c-5.0151,0-8.9858-0.2354-11.8086-0.7002h-2.3911v-74.6992
			l1.9497-0.4395c3.6562-0.8252,8.5146-1.2607,14.0503-1.2607c12.6133,0,22.4023,3.4102,29.0957,10.1348
			c6.3604,6.3906,9.5581,15.3662,9.5044,26.6768C214.2002,320.0117,199.4746,334.7001,173.7998,334.7001z M164.6001,329.3066
			c2.3955,0.2588,5.5249,0.3936,9.1997,0.3936c23.1592,0,35.4004-12.2061,35.4004-35.2998
			c0.0474-9.9434-2.6606-17.7246-8.0483-23.1377c-5.7207-5.748-14.3174-8.6621-25.5518-8.6621c-4.9849,0-8.562,0.3604-11,0.7617
			V329.3066z"/>
	</g>
	<g>
		<path class="st0" d="M265.3,290.2999c-12.3-4.8-17.7-8.9-17.7-17.2c0-6,4.7-13.3,16.8-13.3c8.1,0,14,2.6,16.9,4.2l3.2-9.4
			c-4-2.3-10.6-4.4-19.7-4.4c-17.3,0-28.8,10.3-28.8,24.2c0,12.5,9,20,23.5,25.2c12,4.6,16.8,9.4,16.8,17.7c0,9-6.8,15.2-18.6,15.2
			c-7.9,0-15.4-2.6-20.6-5.8l-3,9.7c4.7,3.2,14.1,5.7,22.7,5.7c21,0,31.2-11.9,31.2-25.6
			C288.0001,303.4,280.4,296.0999,265.3,290.2999z"/>
		<path class="st1" d="M256.7998,344.5995c-8.8892,0-18.8022-2.5215-24.1064-6.1328l-1.5278-1.04l4.499-14.5459l2.7461,1.6904
			c5.5229,3.3994,12.7339,5.4287,19.2896,5.4287c10.0811,0,16.0996-4.748,16.0996-12.7002c0-6.042-2.4863-10.4941-15.1943-15.3662
			C247.8569,298.081,233.5,291.0117,233.5,274.4003c0-15.7207,12.8711-26.7002,31.2998-26.7002
			c11.0635,0,17.8721,2.9648,20.9463,4.7324l1.7832,1.0254l-4.8242,14.1729l-2.6133-1.4424
			c-2.6328-1.4521-8.1719-3.8887-15.6914-3.8887c-9.8789,0-14.3008,5.4238-14.3008,10.7998c0,6.5781,3.7627,10.0527,16.1016,14.8682
			c17.0312,6.543,24.2988,15.0762,24.2988,28.5322C290.5,330.4863,280.0801,344.5995,256.7998,344.5995z M237.0679,335.2646
			c4.7808,2.5273,12.8252,4.335,19.7319,4.335c17.4346,0,28.7002-9.0674,28.7002-23.0996c0-11.3438-5.915-18.0352-21.0967-23.8662
			l-0.0127-0.0049c-12.2168-4.7676-19.2905-9.4922-19.2905-19.5293c0-7.6094,6.0396-15.7998,19.3003-15.7998
			c6.6328,0,11.9541,1.666,15.4492,3.2021l1.5889-4.6651c-3.1602-1.4473-8.5771-3.1367-16.6387-3.1367
			c-15.4849,0-26.2998,8.9238-26.2998,21.7002c0,10.3828,6.7368,17.4287,21.8438,22.8457
			c11.0986,4.2549,18.4561,9.2822,18.4561,20.0537c0,10.7529-8.2822,17.7002-21.0996,17.7002
			c-6.4873,0-13.2944-1.6592-19.1235-4.6123L237.0679,335.2646z"/>
	</g>
</g>
</svg>
