<?xml version="1.0" encoding="utf-8"?>
<!-- Generator: Adobe Illustrator 27.7.0, SVG Export Plug-In . SVG Version: 6.00 Build 0)  -->
<svg version="1.1" id="Layer_1" xmlns="http://www.w3.org/2000/svg" xmlns:xlink="http://www.w3.org/1999/xlink" x="0px" y="0px"
	 width="200px" height="200px" viewBox="0 0 200 200" style="enable-background:new 0 0 200 200;" xml:space="preserve">
<style type="text/css">
	.st0{fill:#FF6600;stroke:#FF6600;stroke-width:4;stroke-miterlimit:10;}
	.st1{fill:#FF6600;stroke:#FF6600;stroke-miterlimit:10;}
	.st2{fill:#FF6600;}
</style>
<g>
	<g>
		<path class="st0" d="M66.1,131.1c2.4,0,4.5,0,6.6,0c0.2,1.3,0.3,2.6,0.5,3.9c0.5,3.4,2,3.9,5.5,4.1c2.7,0.1,5.4,0.1,8,0.2
			c8.8,0.3,17.7,0.6,26.5,0.9c7.5,0.2,14.9,0.3,22.4,0.4c1,0,2.1-0.2,3-0.5c2.6-0.8,3.5-2.9,3.8-5.4c0-0.4,0-0.9,0-1.3
			c0-16.7,0-33.4,0-50.1c0-3.4-0.4-3.9-3.8-4c-6.5-0.2-12.9-0.4-19.4-0.6c-5.3-0.2-7.8-2.3-8.6-7.7c-0.9-6.3-1.5-12.8-2.2-19.1
			c-0.1-1.2-0.2-2.5-0.4-3.7c-0.3-2-0.8-2.5-2.9-2.5c-3.9,0-7.7,0-11.6,0c-4.3,0-8.7-0.1-13-0.1c-1.4,0-2.8,0.1-4.1,0.5
			c-2.3,0.6-3.6,2.6-3.8,5.4c-0.1,1,0,2.1,0,3.1c0,10.6,0,18.3,0,28.9c0,0.6,0,1.1-0.1,1.6c0,0.2-0.4,0.6-0.6,0.6
			c-1.9,0-3.7,0-5.7,0c0-0.8-0.1-1.5-0.1-2.3c0-10.9,0-18.8,0-29.7c0-2.8,0.4-5.5,1.7-8c2-3.8,5.2-5.8,9.3-6.3
			c2.7-0.3,5.4-0.3,8.1-0.3c7.6,0,15.2,0,22.8,0c2.1,0,4,0.7,5.5,2.3c10.7,10.4,21.4,20.9,32.2,31.3c2.2,2.2,3.3,4.7,3.3,7.8
			c0,17.3,0,34.6,0,51.9c0,3.6-0.7,7.1-3.2,9.9c-2.8,3.2-6.5,4.5-10.6,4.5c-12.7,0-25.4-0.1-38.1-0.2c-6.3,0-12.6-0.1-18.8-0.2
			c-5.8-0.2-10.8-4.6-11.8-10.3C66.4,134.3,66.3,133.3,66.1,131.1z M135.7,72c0-0.1-0.1-0.2-0.2-0.2c-6.4-6.3-12.9-12.6-19.4-18.9
			c-0.2-0.2-0.7-0.3-0.9-0.2c-0.2,0.1-0.5,0.6-0.4,0.8c0.1,1.1,0.3,2.2,0.4,3.3c0.6,4.1,1.2,8.2,1.8,12.4c0.2,1.6,1.3,2.8,2.3,2.8
			C124.6,72,130.1,72,135.7,72z"/>
		<path class="st1" d="M75.7,93.1c10.2,0,20.4,0.1,30.6-0.1c3.1,0,6.9,3.7,6.9,6.9c-0.1,6.7,0,13.5,0,20.2c0,3.3-1.6,5.1-4.9,5.5
			c-0.8,0.1-1.7,0.2-2.5,0.2c-20.2,0-40.3,0-60.5,0c-0.3,0-0.7,0-1,0c-2.9-0.1-4.3-1.6-4.3-4.5c0-7.2,0-14.6,0-21.8
			c0-1.1,0.3-2.3,0.7-3.4c0.8-2.2,2.1-2.9,4.4-2.9C55.3,93.1,65.5,93.1,75.7,93.1z M66.5,120.5c2.4,0,4.7,0.1,7,0
			c2.5-0.1,5-0.2,7.1-1.8c3.4-2.5,4.4-6,4-10c-0.4-4.3-3.8-7.7-8-8.1c-2.5-0.2-5.1-0.2-7.7-0.3c-0.8,0-1.6,0-2.4,0
			C66.5,107,66.5,113.7,66.5,120.5z M63.1,106c0-1.7,0-3,0-4.4c0-0.2-0.4-0.6-0.7-0.7c-1.4-0.4-2.9-0.8-4.4-1
			c-3-0.3-5.9,0.1-8.4,2.2c-2.7,2.3-2.5,7.6,1.2,9.3c1,0.4,2.1,0.7,3.1,1.1c1.2,0.4,2.6,0.6,3.8,1.1c1.3,0.6,1.3,2,0.3,2.8
			c-0.4,0.3-1,0.6-1.6,0.6c-2.8,0.4-5.2-0.4-7.5-1.9c-0.3-0.2-0.7-0.4-1.3-0.8c0,1.7,0,3.2,0,4.6c0,0.2,0.4,0.6,0.7,0.7
			c2.8,1.2,5.8,1.5,8.8,1.1c1.4-0.2,2.8-0.8,4-1.5c2.3-1.4,2.9-3.7,2.6-6.2c-0.3-2.2-1.8-3.4-3.8-4.1c-0.4-0.2-0.8-0.3-1.2-0.4
			c-1.3-0.4-2.7-0.7-4-1c-0.9-0.2-1.7-0.7-1.7-1.8c0-1,0.8-1.5,1.7-1.8c2.6-0.7,5,0.1,7.2,1.5C62.2,105.4,62.5,105.6,63.1,106z
			 M101.8,105.9c0-0.6,0.1-0.9,0.1-1.3c0-3.9,0-3.9-3.8-4.6c-3.1-0.5-6.1-0.5-8.9,1.4c-3.8,2.6-3.4,8,0.7,10
			c1.4,0.7,3.1,0.9,4.6,1.4c0.8,0.3,1.6,0.5,2.3,0.9c0.9,0.6,0.9,1.9,0.1,2.5c-0.5,0.4-1.1,0.6-1.7,0.7c-2.8,0.5-5.2-0.4-7.5-1.9
			c-0.3-0.2-0.7-0.4-1.2-0.7c0,1.6,0,2.9,0,4.2c0,0.6,0.3,0.9,0.8,1.1c2.8,1.1,5.8,1.5,8.7,1.1c1.3-0.2,2.7-0.7,3.9-1.4
			c2.2-1.3,3-3.5,2.8-6c-0.3-2.4-1.8-3.7-3.9-4.4c-0.4-0.2-0.8-0.3-1.2-0.4c-1.3-0.4-2.7-0.7-4-1c-0.9-0.2-1.6-0.7-1.6-1.7
			s0.7-1.6,1.6-1.8c1.9-0.6,3.8-0.3,5.6,0.5C99.9,104.7,100.8,105.3,101.8,105.9z"/>
		<path class="st1" d="M71.6,116.5c0-4.1,0-8.3,0-12.5c2.8-0.6,5.4,0.2,6.6,2c1.5,2.2,1.5,6.1,0,8.3C77,116.3,74.4,117.1,71.6,116.5
			z"/>
	</g>
	<g>
		<path class="st2" d="M160.5,163.9c-2.2-2.2-4.3-4.1-6.3-6.1c-2.1-2.1-2.2-4.7-0.4-6.6c1.9-1.9,4.6-1.8,6.8,0.3c3,3,6,6,9,9
			c2.3,2.4,2.3,4.8,0,7.1c-16.9,17-37.2,26.8-61.1,28.9c-43.6,4-84.1-22.1-99.5-63.1C-7.8,88.6,12,36.6,54.4,14.3
			c52.2-27.4,115.6-3.4,136.4,51.8c8,21.1,8.2,42.6,1.3,64.1c-1,3-3.2,4.3-5.8,3.6c-2.5-0.7-3.7-3.3-2.8-6.2
			c3.4-10.6,4.9-21.6,4.2-32.7c-1.3-20.4-8.6-38.3-22.2-53.4c-15.3-17.1-34.5-27-57.3-29C66.8,8.6,29.6,33.3,16.4,72.8
			c-11.9,35.6,1.3,76.3,31.8,98.2c17.9,12.9,37.8,18.6,59.7,16.6C127.8,185.8,145.3,177.8,160.5,163.9z"/>
		<path class="st2" d="M99.7,200c-41.1,0-78.8-25.9-93.6-65.4C-2.2,112.1-2,87.2,6.7,64.4C15.4,41.5,31.9,22.7,53,11.7
			c25.7-13.6,55.8-15.4,82.7-5.2C162.3,16.6,183.4,38,193.6,65c8.1,21.5,8.5,43.7,1.3,66.1c-1.5,4.5-5.3,6.8-9.5,5.6
			c-1.9-0.5-3.5-1.8-4.4-3.5c-1-1.9-1.2-4.2-0.4-6.5c3.4-10.5,4.8-21.2,4.1-31.6c-1.2-19.7-8.4-37.1-21.4-51.6
			c-14.9-16.7-33.5-26.1-55.3-28c-40.2-3.6-75.8,19.8-88.8,58.3c-11.5,34.5,1.1,73.5,30.7,94.8c17.4,12.5,36.8,17.9,57.7,16.1
			c18.2-1.6,34.1-8.4,48.4-20.8c-1.4-1.3-2.7-2.6-4-3.9c-3.2-3.2-3.4-7.8-0.4-10.8c1.4-1.5,3.2-2.3,5.2-2.3c2.1,0,4.2,0.9,5.9,2.6
			c2.5,2.5,5.8,5.7,9.1,9c3.5,3.6,3.5,7.8,0,11.3c-17.5,17.6-38.6,27.6-62.9,29.8C105.7,199.8,102.7,200,99.7,200z M100.2,6
			C85,6,69.7,9.7,55.8,17c-40.9,21.5-60.3,72.2-44,115.4c14.9,39.9,54.5,65,96.4,61.2c22.9-2.1,42.8-11.5,59.2-28.1
			c1.2-1.2,1.2-1.7,0-2.9c-3.2-3.3-6.5-6.5-9-9c-0.5-0.5-1.1-0.8-1.6-0.8c-0.3,0-0.6,0.2-0.9,0.5c-0.7,0.7-0.5,1.5,0.4,2.4
			c1.4,1.4,2.7,2.7,4.2,4.1c0.7,0.6,1.4,1.3,2.1,2l2.3,2.2l-2.4,2.2c-15.7,14.4-34,22.6-54.3,24.4c-22.4,2-43.1-3.8-61.7-17.2
			c-15.2-10.9-26.9-27.1-32.9-45.5s-6-38.3,0-56.1c6.7-20.1,19.4-36.7,36.5-48C67.3,12.5,87.5,7.5,108.5,9.4
			c23.4,2.1,43.3,12.3,59.2,30c13.9,15.6,21.7,34.1,23,55.2c0.7,11.1-0.8,22.6-4.4,33.8c-0.2,0.7-0.2,1.4,0,1.9
			c0.1,0.3,0.4,0.5,0.8,0.6c0.4,0.1,1.5,0.4,2.1-1.6c6.8-21.1,6.4-42-1.2-62.2c-9.6-25.5-29.5-45.6-54.5-55.1
			C122.8,8,111.5,6,100.2,6z"/>
	</g>
</g>
</svg>
