<?xml version="1.0" encoding="utf-8"?>
<!-- Generator: Adobe Illustrator 27.8.1, SVG Export Plug-In . SVG Version: 6.00 Build 0)  -->
<!DOCTYPE svg PUBLIC "-//W3C//DTD SVG 1.1//EN" "http://www.w3.org/Graphics/SVG/1.1/DTD/svg11.dtd" [
	<!ENTITY ns_extend "http://ns.adobe.com/Extensibility/1.0/">
	<!ENTITY ns_ai "http://ns.adobe.com/AdobeIllustrator/10.0/">
	<!ENTITY ns_graphs "http://ns.adobe.com/Graphs/1.0/">
	<!ENTITY ns_vars "http://ns.adobe.com/Variables/1.0/">
	<!ENTITY ns_imrep "http://ns.adobe.com/ImageReplacement/1.0/">
	<!ENTITY ns_sfw "http://ns.adobe.com/SaveForWeb/1.0/">
	<!ENTITY ns_custom "http://ns.adobe.com/GenericCustomNamespace/1.0/">
	<!ENTITY ns_adobe_xpath "http://ns.adobe.com/XPath/1.0/">
]>
<svg version="1.1" id="Layer_1" xmlns:x="&ns_extend;" xmlns:i="&ns_ai;" xmlns:graph="&ns_graphs;"
	 xmlns="http://www.w3.org/2000/svg" xmlns:xlink="http://www.w3.org/1999/xlink" x="0px" y="0px" width="500px" height="500px"
	 viewBox="0 0 500 500" style="enable-background:new 0 0 500 500;" xml:space="preserve">
<style type="text/css">
	.st0{fill:#FE5900;}
</style>
<metadata>
	<sfw  xmlns="&ns_sfw;">
		<slices></slices>
		<sliceSourceBounds  bottomLeftOrigin="true" height="431.8999" width="429.8998" x="35.1001" y="34.0001"></sliceSourceBounds>
	</sfw>
</metadata>
<g>
	<g>
		<path class="st0" d="M148.7,85.1h-25.3c-3.2,0-5.9,2.6-5.9,5.9v44.6c0,3.2,2.6,5.9,5.9,5.9h25.3c3.3,0,6-2.6,5.9-5.9V91
			C154.6,87.8,152,85.1,148.7,85.1z M142.8,129.7h-13.4V97h13.4V129.7z"/>
		<path class="st0" d="M148.7002,143.9999h-25.3003c-4.6318,0-8.3999-3.7681-8.3999-8.3999V90.9999
			c0-4.6318,3.7681-8.3999,8.3999-8.3999h25.3003c4.6318,0,8.3999,3.7681,8.3999,8.3999V135.6
			c0.0664,2.146-0.7485,4.2476-2.2949,5.8418C153.228,143.0673,151.0029,143.9999,148.7002,143.9999z M123.3999,87.6
			c-1.8745,0-3.3999,1.5254-3.3999,3.3999V135.6c0,1.8745,1.5254,3.3999,3.3999,3.3999h25.3003
			c0.9722,0,1.8657-0.3691,2.5161-1.0396c0.5967-0.6152,0.9111-1.4263,0.8848-2.2847l-0.001-44.6758
			c0-1.8745-1.5254-3.3999-3.3999-3.3999L123.3999,87.6L123.3999,87.6z M145.2998,132.2001h-18.3999V94.4999h18.3999V132.2001z
			 M131.8999,127.2001h8.3999V99.4999h-8.3999V127.2001z"/>
	</g>
	<g>
		<path class="st0" d="M183.3,141.5h25.3c3.3,0,5.9-2.6,5.9-5.9V91c0-3.2-2.6-5.9-5.9-5.9h-25.3c-3.2,0-5.9,2.6-5.9,5.9v44.6
			C177.4,138.8,180,141.5,183.3,141.5z M189.2,97h13.4v32.7h-13.4V97z"/>
		<path class="st0" d="M208.6001,143.9999h-25.3003c-4.6318,0-8.3999-3.7681-8.3999-8.3999V90.9999
			c0-4.6318,3.7681-8.3999,8.3999-8.3999h25.3003c4.6318,0,8.3999,3.7681,8.3999,8.3999V135.6
			C217,140.3105,213.3105,143.9999,208.6001,143.9999z M183.2998,87.6c-1.8745,0-3.3999,1.5254-3.3999,3.3999V135.6
			c0,1.8745,1.5254,3.3999,3.3999,3.3999h25.3003c1.9062,0,3.3999-1.4937,3.3999-3.3999V90.9999
			c0-1.8745-1.5254-3.3999-3.3999-3.3999H183.2998z M205.1001,132.2001h-18.3999V94.4999h18.3999V132.2001z M191.7002,127.2001
			h8.3999V99.4999h-8.3999V127.2001z"/>
	</g>
	<g>
		<path class="st0" d="M148.7,171.6h-25.3c-3.2,0-5.9,2.6-5.9,5.9v44.6c0,3.2,2.6,5.9,5.9,5.9h25.3c3.3,0,6-2.7,5.9-5.9v-44.6
			C154.6,174.3,152,171.6,148.7,171.6z M142.8,216.1h-13.4v-32.7h13.4V216.1z"/>
		<path class="st0" d="M148.7002,230.4999h-25.3003c-4.6318,0-8.3999-3.7681-8.3999-8.3999v-44.6001
			c0-4.6318,3.7681-8.3999,8.3999-8.3999h25.3003c4.6318,0,8.3999,3.7681,8.3999,8.3999V222.1
			c0.0674,2.1177-0.7539,4.2139-2.3145,5.8237C153.1987,229.561,150.9805,230.4999,148.7002,230.4999z M123.3999,174.1
			c-1.8745,0-3.3999,1.5254-3.3999,3.3999V222.1c0,1.8745,1.5254,3.3999,3.3999,3.3999h25.3003
			c0.9351,0,1.8447-0.3848,2.4951-1.0562c0.6104-0.6299,0.9321-1.4341,0.9062-2.2656L152.1,177.4999
			c0-1.8745-1.5254-3.3999-3.3999-3.3999H123.3999z M145.2998,218.6h-18.3999v-37.7002h18.3999V218.6z M131.8999,213.6h8.3999
			v-27.7002h-8.3999V213.6z"/>
	</g>
	<g>
		<path class="st0" d="M148.7,258.1h-25.3c-3.2,0-5.9,2.6-5.9,5.9v44.6c0,3.2,2.6,5.9,5.9,5.9h25.3c3.3,0,6-2.7,5.9-5.9V264
			C154.6,260.8,152,258.1,148.7,258.1z M142.8,302.6h-13.4v-32.7h13.4V302.6z"/>
		<path class="st0" d="M148.7002,316.9999h-25.3003c-4.6318,0-8.3999-3.7686-8.3999-8.4004v-44.5996
			c0-4.6318,3.7681-8.4004,8.3999-8.4004h25.3003c4.6318,0,8.3999,3.7686,8.3999,8.4004v44.5996
			c0.0674,2.1182-0.7544,4.2139-2.3149,5.8242C153.1982,316.0605,150.9805,316.9999,148.7002,316.9999z M123.3999,260.5995
			c-1.8745,0-3.3999,1.5254-3.3999,3.4004v44.5996c0,1.875,1.5254,3.4004,3.3999,3.4004h25.3003
			c0.9351,0,1.8442-0.3848,2.4946-1.0557c0.6108-0.6299,0.9326-1.4355,0.9067-2.2666L152.1,263.9999
			c0-1.875-1.5254-3.4004-3.3999-3.4004H123.3999z M145.2998,305.0995h-18.3999v-37.6992h18.3999V305.0995z M131.8999,300.0995
			h8.3999v-27.6992h-8.3999V300.0995z"/>
	</g>
	<g>
		<path class="st0" d="M148.7,344.5h-25.3c-3.2,0-5.9,2.6-5.9,5.9V395c0,3.2,2.6,5.9,5.9,5.9h25.3c3.3,0,6-2.6,5.9-5.9v-44.6
			C154.6,347.2,152,344.5,148.7,344.5z M142.8,389.1h-13.4v-32.7h13.4V389.1z"/>
		<path class="st0" d="M148.7002,403.4003h-25.3003c-4.6318,0-8.3999-3.7686-8.3999-8.4004v-44.5996
			c0-4.6318,3.7681-8.4004,8.3999-8.4004h25.3003c4.6318,0,8.3999,3.7686,8.3999,8.4004v44.5996
			c0.0664,2.1465-0.7485,4.248-2.2954,5.8428C153.2275,402.4677,151.0024,403.4003,148.7002,403.4003z M123.3999,346.9999
			c-1.8745,0-3.3999,1.5254-3.3999,3.4004v44.5996c0,1.875,1.5254,3.4004,3.3999,3.4004h25.3003c0.9722,0,1.8652-0.3691,2.5156-1.04
			c0.5972-0.6152,0.9116-1.4268,0.8853-2.2842l-0.001-44.6758c0-1.875-1.5254-3.4004-3.3999-3.4004L123.3999,346.9999
			L123.3999,346.9999z M145.2998,391.5995h-18.3999v-37.6992h18.3999V391.5995z M131.8999,386.5995h8.3999v-27.6992h-8.3999
			V386.5995z"/>
	</g>
	<g>
		<path class="st0" d="M183.3,228h25.3c3.3,0,5.9-2.7,5.9-5.9v-44.6c0-3.2-2.6-5.9-5.9-5.9h-25.3c-3.2,0-5.9,2.6-5.9,5.9v44.6
			C177.4,225.3,180,228,183.3,228z M189.2,183.4h13.4v32.7h-13.4V183.4z"/>
		<path class="st0" d="M208.6001,230.4999h-25.3003c-4.6318,0-8.3999-3.7681-8.3999-8.3999v-44.6001
			c0-4.6318,3.7681-8.3999,8.3999-8.3999h25.3003c4.6318,0,8.3999,3.7681,8.3999,8.3999V222.1
			C217,226.7319,213.2319,230.4999,208.6001,230.4999z M183.2998,174.1c-1.8745,0-3.3999,1.5254-3.3999,3.3999V222.1
			c0,1.8745,1.5254,3.3999,3.3999,3.3999h25.3003c1.8745,0,3.3999-1.5254,3.3999-3.3999v-44.6001
			c0-1.8745-1.5254-3.3999-3.3999-3.3999H183.2998z M205.1001,218.6h-18.3999v-37.7002h18.3999V218.6z M191.7002,213.6h8.3999
			v-27.7002h-8.3999V213.6z"/>
	</g>
	<path class="st0" d="M456.6,427.8h-18.9V264c0-3.2-2.6-5.9-5.9-5.9h-46.0165c5.1906-7.8151,11.2351-16.8694,18.1166-27.1
		c10.2-15.2,17.9-29.5,22.8-42.5c5.9-15.7,6.3-32.5,1.2-47.2c-0.6-1.7-1.3-3.4-2-5.1c-7.3-16.5-22-29.7-41.4-37.1
		c-19.5-7.5-41.1-6.2-60.7,3.6c-17,8.5-29.5,22.3-35.2,38.7c-5.1,14.8-4.6,31.6,1.3,47.2c4.9,13,12.6,27.3,22.8,42.5
		c6.8646,10.1794,12.9032,19.2021,18.0936,27H269.7V42.5c0-3.2-2.6-5.9-5.9-5.9H68.2c-3.2,0-5.9,2.6-5.9,5.9v385.3H43.5
		c-3.2,0-5.9,2.6-5.9,5.9v23.9c0,3.2,2.6,5.9,5.9,5.9h413c3.3,0,6-2.7,6-5.9v-23.9C462.5,430.5,459.9,427.8,456.6,427.8z
		 M189.2,378.7h236.6v12.1H189.2V378.7z M425.8,366.9H189.2v-12.2h236.6V366.9z M425.8,342.9H189.2v-12.1h236.6V342.9z M189.2,402.6
		h236.6v25.1H263.8012c-0.0004,0-0.0008-0.0001-0.0012-0.0001h-74.6L189.2,402.6L189.2,402.6z M301.0001,184.3
		c-4.9-13-5.3-26.9-1.1-39.1c4.6-13.4,15.1-24.8,29.3-31.9c9.5-4.8,19.6-7.2,29.5-7.2c7.4,0,14.7,1.4,21.5,4.1
		c16.4,6.3,28.8,17.3,34.8,30.9c0.7,1.4,1.2,2.8,1.7,4.2c4.2,12.1,3.8,26-1.1,39.1c-4.6,12.1-11.8,25.6-21.5,40
		c-17.4,25.9-29.5,44.4-35.8,54c-6.3-9.7-18.4-28.1-35.8-54C312.8,209.9,305.6,196.4,301.0001,184.3z M353.4,292.5
		c1.1,1.7,3,2.7,5,2.7s3.9-1.1,4.8-2.8c0.1188-0.1188,5.1749-7.961,14.7703-22.5001H425.8V319H189.2v-49.1h149.4215
		C348.2596,284.4823,353.3405,292.381,353.4,292.5z M74.2,48.4h183.7v209.7h-74.6c-3.2,0-5.9,2.6-5.9,5.9v60.9v23.9v24v23.9v31H74.2
		V48.4z M450.6,451.6H49.4v-12.1h18.8h115.1h80.5h168h18.8L450.6,451.6L450.6,451.6z"/>
	<path class="st0" d="M456.5,465.9999h-413c-4.6318,0-8.3999-3.7686-8.3999-8.4004v-23.8994c0-4.6318,3.7681-8.4004,8.3999-8.4004
		h16.2998V42.4999c0-4.6318,3.7686-8.3999,8.4004-8.3999h195.5996c4.6318,0,8.4004,3.7681,8.4004,8.3999v213.0996h53.9238
		c-4.9609-7.4375-10.1611-15.1899-15.4961-23.1016c-10.377-15.4629-18.1367-29.9341-23.0664-43.0161
		c-6.1328-16.2129-6.6035-33.5786-1.3252-48.8965c5.9414-17.0942,18.8838-31.3403,36.4453-40.1216
		c20.2803-10.1392,42.5527-11.4507,62.7158-3.6973c20.0039,7.6304,35.2031,21.2764,42.7891,38.4219l0.042,0.1001
		c0.6943,1.6875,1.4121,3.4321,2.0293,5.1792c5.3145,15.3184,4.8799,32.6841-1.2178,48.9116
		c-4.9326,13.0854-12.6914,27.5566-23.0635,43.0137c-5.2773,7.8452-10.4883,15.6328-15.5293,23.2065h41.3525
		c4.6318,0,8.4004,3.7686,8.4004,8.4004v161.2998h16.3994c4.6318,0,8.4004,3.7686,8.4004,8.4004v23.8994
		C465,462.2314,461.1865,465.9999,456.5,465.9999z M43.5,430.2997c-1.8745,0-3.3999,1.5254-3.3999,3.4004v23.8994
		c0,1.875,1.5254,3.4004,3.3999,3.4004h413c1.8975,0,3.5-1.5576,3.5-3.4004v-23.8994c0-1.875-1.5254-3.4004-3.4004-3.4004h-21.3994
		V263.9999c0-1.875-1.5254-3.4004-3.4004-3.4004h-50.6787l2.5801-3.8828c5.8389-8.792,11.9375-17.9136,18.125-27.1123
		c10.1562-15.1357,17.7383-29.2627,22.5352-41.9863c5.6865-15.1343,6.1055-31.2935,1.1768-45.4985
		c-0.5693-1.6138-1.2627-3.2993-1.9336-4.9287c-7.0332-15.896-21.2402-28.6011-39.9951-35.7549
		c-18.8447-7.2476-39.6855-6.0029-58.6914,3.5c-16.3887,8.1948-28.4482,21.4355-33.957,37.2847
		c-4.8965,14.21-4.4434,30.3691,1.2773,45.4951c4.7959,12.7251,12.3789,26.8521,22.5381,41.9912
		c6.2734,9.3037,12.3643,18.3921,18.0986,27.0069l2.5859,3.8857h-68.2607V42.4999c0-1.8745-1.5254-3.3999-3.4004-3.3999H68.2002
		c-1.875,0-3.4004,1.5254-3.4004,3.3999v387.7998H43.5z M453.0996,454.0995H46.8999v-17.0996h406.1997V454.0995z M51.8999,449.0995
		h396.1997v-7.0996H51.8999V449.0995z M428.2998,430.2001H186.7002v-30.1006h241.5996V430.2001z M191.7002,425.2001h231.5996
		v-20.1006H191.7002V425.2001z M179.8999,430.2001H71.7002V45.8998h188.7002v214.6997h-77.1006
		c-1.8745,0-3.3999,1.5254-3.3999,3.4004L179.8999,430.2001L179.8999,430.2001z M76.7002,425.2001h98.1997V263.9999
		c0-4.6318,3.7681-8.4004,8.3999-8.4004h72.1006V50.8998H76.7002V425.2001z M428.2998,393.2997H186.7002v-17.0996h241.5996V393.2997
		z M191.7002,388.2997h231.5996v-7.0996H191.7002V388.2997z M428.2998,369.4003H186.7002v-17.2002h241.5996V369.4003z
		 M191.7002,364.4003h231.5996v-7.2002H191.7002V364.4003z M428.2998,345.4003H186.7002v-17.1006h241.5996V345.4003z
		 M191.7002,340.4003h231.5996v-7.1006H191.7002V340.4003z M428.2998,321.4999H186.7002v-54.0996h153.2656l0.7412,1.1211
		c7.8203,11.8311,13.792,21.0195,14.7881,22.624l0.0049-0.0029c0.6211,0.9609,1.7324,1.5576,2.9004,1.5576
		c1.084,0,2.125-0.5908,2.5908-1.4707l0.2812-0.4355c0.2783-0.417,1.0898-1.6592,2.1621-3.3008
		c2.3789-3.6436,6.5596-10.0459,12.4492-18.9697l0.7412-1.123h51.6748v54.0995H428.2998z M191.7002,316.4999h231.5996v-44.0996
		h-43.9834c-5.4941,8.3301-9.4199,14.3418-11.6953,17.8262c-1.3916,2.1318-1.9834,3.0381-2.2773,3.4658
		c-1.3535,2.4395-4.0625,4.0078-6.9434,4.0078c-2.8896,0-5.543-1.4365-7.0996-3.8428l-0.0879-0.1426
		c-0.5762-0.917-5.3877-8.3711-13.9365-21.3145H191.7002V316.4999z M358.2891,282.9736l-2.0859-3.2119
		c-4.1797-6.4355-16.0342-24.5791-35.7783-53.9678c-9.7227-14.5337-17.0439-28.1938-21.7617-40.6055l-0.002-0.0063
		c-5.1133-13.563-5.5127-28.0513-1.125-40.7959c4.8232-14.0508,15.6719-25.8852,30.5459-33.3218
		c9.6611-4.8818,20.252-7.4644,30.6182-7.4644c7.7324,0,15.2764,1.439,22.4229,4.2764
		c17.0137,6.5356,29.8555,17.959,36.1396,32.1597c0.7539,1.5171,1.2812,2.9946,1.792,4.4233
		c4.3965,12.6641,3.998,27.1519-1.1133,40.8164c-4.7529,12.5015-12.0752,26.1309-21.7686,40.5205
		c-16.0752,23.9297-27.4561,41.2808-34.2559,51.648L358.2891,282.9736z M303.3389,183.4184
		c4.585,12.0571,11.7305,25.3779,21.2393,39.5913c17.1221,25.4858,28.3203,42.5293,33.7295,50.8203
		c6.8633-10.4639,18.0664-27.5288,33.7168-50.8242c9.4814-14.0757,16.627-27.3623,21.2383-39.4941
		c4.6992-12.563,5.083-25.8467,1.0762-37.3916c-0.4805-1.3452-0.9414-2.6357-1.5752-3.9019l-0.0508-0.1089
		c-5.7354-12.999-17.5996-23.5024-33.4092-29.5757c-6.582-2.6133-13.5059-3.9336-20.6035-3.9336
		c-9.5869,0-19.3984,2.397-28.3721,6.9316c-13.7051,6.8516-23.668,17.6748-28.0635,30.48
		C298.2549,157.6591,298.6367,170.9433,303.3389,183.4184L303.3389,183.4184z"/>
	<g>
		<path class="st0" d="M389.6,168.2c0-17.2-14-31.2-31.2-31.2s-31.2,14-31.2,31.2s14,31.2,31.2,31.2S389.6,185.4,389.6,168.2z
			 M339,168.2c0-10.7,8.7-19.4,19.4-19.4s19.4,8.7,19.4,19.4s-8.7,19.4-19.4,19.4C347.7,187.6,339,178.9,339,168.2z"/>
		<path class="st0" d="M358.4004,201.8998c-18.582,0-33.7002-15.1177-33.7002-33.6997c0-18.5825,15.1182-33.7002,33.7002-33.7002
			s33.6992,15.1177,33.6992,33.7002C392.0996,186.7822,376.9824,201.8998,358.4004,201.8998z M358.4004,139.4999
			c-15.8252,0-28.7002,12.875-28.7002,28.7002s12.875,28.6997,28.7002,28.6997s28.6992-12.8745,28.6992-28.6997
			S374.2256,139.4999,358.4004,139.4999z M358.4004,190.1c-12.0762,0-21.9004-9.8242-21.9004-21.8999
			s9.8242-21.8999,21.9004-21.8999c12.0752,0,21.8994,9.8242,21.8994,21.8999S370.4756,190.1,358.4004,190.1z M358.4004,151.3002
			c-9.3193,0-16.9004,7.5811-16.9004,16.8999S349.0811,185.1,358.4004,185.1c9.3184,0,16.8994-7.5811,16.8994-16.8999
			S367.7188,151.3002,358.4004,151.3002z"/>
	</g>
</g>
</svg>
