<?xml version="1.0" encoding="utf-8"?>
<!-- Generator: Adobe Illustrator 27.7.0, SVG Export Plug-In . SVG Version: 6.00 Build 0)  -->
<svg version="1.1" id="Layer_1" xmlns="http://www.w3.org/2000/svg" xmlns:xlink="http://www.w3.org/1999/xlink" x="0px" y="0px"
	 width="200px" height="200px" viewBox="0 0 200 200" style="enable-background:new 0 0 200 200;" xml:space="preserve">
<style type="text/css">
	.st0{fill:#FF6600;}
	.st1{display:none;}
	.st2{display:inline;}
	.st3{fill:#FF6100;}
</style>
<g id="Layer_1_00000009584151759391920830000013461330348493585047_">
	<path class="st0" d="M193.6,65.1C183.4,38,162.3,16.7,135.7,6.5C108.9-3.7,78.8-1.9,53,11.7C31.9,22.8,15.4,41.5,6.7,64.4
		s-8.9,47.8-0.5,70.2C21,174.1,58.7,200,99.8,200c3,0,5.9-0.1,8.9-0.4c24.3-2.2,45.5-12.3,62.9-29.8c3.5-3.5,3.5-7.8,0-11.3
		c-3.3-3.3-6.6-6.6-9.1-9c-1.7-1.7-3.8-2.6-5.9-2.6c-1.9,0-3.8,0.8-5.2,2.3c-3,3.1-2.8,7.6,0.4,10.8c1.3,1.3,2.6,2.6,4,3.9
		c-14.3,12.4-30.2,19.1-48.4,20.8c-20.9,1.9-40.3-3.5-57.7-16.1C20.1,147.3,7.5,108.3,19,73.8c13.1-38.6,48.8-62,89-58.3
		c21.8,2,40.4,11.4,55.3,28c13,14.6,20.2,31.8,21.4,51.6c0.7,10.4-0.7,21.1-4.1,31.6c-0.7,2.3-0.6,4.6,0.4,6.5
		c0.9,1.7,2.5,2.9,4.4,3.5c4.2,1.2,8-1,9.5-5.6C202.1,108.8,201.7,86.5,193.6,65.1z"/>
	<g>
		<g>
			<g>
				<g>
					<g>
						<path class="st0" d="M108.6,148.3H50.7l-1.6-2.6V46.8c0-2.5,2.1-4.5,4.5-4.5H104c2.5,0,4.5,2.1,4.5,4.5L108.6,148.3
							L108.6,148.3z M52.4,145.2h53.1V46.8c0-0.8-0.6-1.3-1.3-1.3H53.7c-0.8,0-1.3,0.6-1.3,1.3V145.2z"/>
						<path class="st0" d="M109.2,148.9H48.9l-0.2-102c0-2.8,2.3-5.1,5.1-5.1h50.4c2.8,0,5.1,2.3,5.1,5.1v102H109.2z M51.1,147.8h57
							V46.8c0-2.2-1.8-4-4-4H53.7c-2.2,0-4,1.8-4,4v98.6L51.1,147.8z M106,145.7H51.8V46.8c0-1,0.8-1.9,1.9-1.9h50.4
							c1,0,1.9,0.8,1.9,1.9C106,46.8,106,145.7,106,145.7z M53,144.6h52V46.8c0-0.5-0.3-0.8-0.8-0.8H53.7c-0.5,0-0.8,0.3-0.8,0.8
							v97.7H53z"/>
					</g>
				</g>
				<g>
					<path class="st0" d="M87.8,149H70v-29.4c0-2.3,1.8-4.1,4.1-4.1h9.6c2.3,0,4.1,1.8,4.1,4.1C87.8,119.6,87.8,149,87.8,149z
						 M73.3,145.6h11.3v-26c0-0.5-0.4-0.9-0.9-0.9h-9.6c-0.5,0-0.9,0.4-0.9,0.9v26H73.3z"/>
				</g>
				<g>
					<rect x="58.2" y="50" class="st0" width="8.4" height="8.4"/>
					<rect x="74" y="50" class="st0" width="8.4" height="8.4"/>
					<rect x="89.8" y="50" class="st0" width="8.4" height="8.4"/>
					<rect x="58.2" y="67.2" class="st0" width="8.4" height="8.4"/>
					<rect x="74" y="67.2" class="st0" width="8.4" height="8.4"/>
					<rect x="89.8" y="67.2" class="st0" width="8.4" height="8.4"/>
					<rect x="58.2" y="84.4" class="st0" width="8.4" height="8.4"/>
					<rect x="74" y="84.4" class="st0" width="8.4" height="8.4"/>
					<rect x="89.8" y="84.4" class="st0" width="8.4" height="8.4"/>
					<rect x="58.2" y="101.6" class="st0" width="8.4" height="8.4"/>
					<rect x="74" y="101.6" class="st0" width="8.4" height="8.4"/>
					<rect x="89.8" y="101.6" class="st0" width="8.4" height="8.4"/>
				</g>
				<g>
					<rect x="60.1" y="38.1" class="st0" width="37.7" height="6.2"/>
				</g>
			</g>
		</g>
		<g>
			<g>
				<g>
					<g>
						<path class="st0" d="M150.9,148.5h-43.4l-1.2-2v-74c0-1.8,1.5-3.4,3.4-3.4h37.7c1.8,0,3.4,1.5,3.4,3.4L150.9,148.5
							L150.9,148.5z M108.8,146.1h39.7V72.5c0-0.6-0.4-1-1-1h-37.7c-0.6,0-1,0.4-1,1V146.1z"/>
						<path class="st0" d="M151.3,148.9h-45.1L106,72.6c0-2.1,1.7-3.8,3.8-3.8h37.7c2.1,0,3.8,1.7,3.8,3.8L151.3,148.9L151.3,148.9z
							 M107.8,148.1h42.7V72.5c0-1.7-1.4-3-3-3h-37.7c-1.7,0-3,1.4-3,3v73.9L107.8,148.1z M148.9,146.5h-40.6v-74
							c0-0.8,0.6-1.4,1.4-1.4h37.7c0.8,0,1.4,0.6,1.4,1.4v74H148.9z M109.2,144.6h38.4V73.2c0-0.4-0.2-0.6-0.6-0.6h-37.2
							c-0.4,0-0.6,0.2-0.6,0.6C109.2,73.2,109.2,144.6,109.2,144.6z"/>
					</g>
				</g>
				<g>
					<path class="st0" d="M135.4,148.5H122v-22c0-1.7,1.4-3.1,3.1-3.1h7.2c1.7,0,3.1,1.4,3.1,3.1L135.4,148.5L135.4,148.5z
						 M124.5,146h8.5v-19.5c0-0.4-0.3-0.7-0.7-0.7h-7.2c-0.4,0-0.7,0.3-0.7,0.7V146H124.5z"/>
				</g>
				<g>
					<rect x="113.1" y="74.9" class="st0" width="6.3" height="6.3"/>
					<rect x="125" y="74.9" class="st0" width="6.3" height="6.3"/>
					<rect x="136.8" y="74.9" class="st0" width="6.3" height="6.3"/>
					<rect x="113.1" y="87.7" class="st0" width="6.3" height="6.3"/>
					<rect x="125" y="87.7" class="st0" width="6.3" height="6.3"/>
					<rect x="136.8" y="87.7" class="st0" width="6.3" height="6.3"/>
					<rect x="113.1" y="100.7" class="st0" width="6.3" height="6.3"/>
					<rect x="125" y="100.7" class="st0" width="6.3" height="6.3"/>
					<rect x="136.8" y="100.7" class="st0" width="6.3" height="6.3"/>
					<rect x="113.1" y="113.5" class="st0" width="6.3" height="6.3"/>
					<rect x="125" y="113.5" class="st0" width="6.3" height="6.3"/>
					<rect x="136.8" y="113.5" class="st0" width="6.3" height="6.3"/>
				</g>
				<g>
					<rect x="114.5" y="65.9" class="st0" width="28.3" height="4.7"/>
				</g>
			</g>
		</g>
	</g>
</g>
<g id="Layer_2_00000161595589127313069240000007263206484716705963_" class="st1">
	<g class="st2">
		<g>
			<g>
				<g>
					<path class="st3" d="M138.5,168.9H65.3l-2-3.3V41.3c0-3.1,2.6-5.7,5.7-5.7h63.7c3.1,0,5.7,2.6,5.7,5.7v127.7H138.5z
						 M67.4,164.9h67.1V41.2c0-1-0.7-1.7-1.7-1.7H69.1c-1,0-1.7,0.7-1.7,1.7V164.9z"/>
					<path class="st3" d="M139.2,169.7H63L62.7,41.3c0-3.5,2.9-6.4,6.4-6.4h63.7c3.5,0,6.4,2.9,6.4,6.4V169.7z M65.7,168.2h72.1
						v-127c0-2.8-2.3-5-5-5H69.1c-2.8,0-5,2.3-5,5v124.2L65.7,168.2z M135.2,165.7H66.7V41.2c0-1.3,1-2.4,2.4-2.4h63.7
						c1.3,0,2.4,1,2.4,2.4V165.7z M68.1,164.2h65.7V41.2c0-0.6-0.4-1-1-1H69.1c-0.6,0-1,0.4-1,1V164.2z"/>
				</g>
			</g>
			<g>
				<path class="st3" d="M112.2,169.8H89.6v-37c0-2.9,2.3-5.2,5.2-5.2H107c2.9,0,5.2,2.3,5.2,5.2V169.8z M93.8,165.6h14.3v-32.8
					c0-0.6-0.5-1.1-1.1-1.1H94.9c-0.6,0-1.1,0.5-1.1,1.1V165.6z"/>
			</g>
			<g>
				<rect x="74.7" y="45.2" class="st3" width="10.6" height="10.6"/>
				<rect x="94.7" y="45.2" class="st3" width="10.6" height="10.6"/>
				<rect x="114.7" y="45.2" class="st3" width="10.6" height="10.6"/>
				<rect x="74.7" y="66.9" class="st3" width="10.6" height="10.6"/>
				<rect x="94.7" y="66.9" class="st3" width="10.6" height="10.6"/>
				<rect x="114.7" y="66.9" class="st3" width="10.6" height="10.6"/>
				<rect x="74.7" y="88.6" class="st3" width="10.6" height="10.6"/>
				<rect x="94.7" y="88.6" class="st3" width="10.6" height="10.6"/>
				<rect x="114.7" y="88.6" class="st3" width="10.6" height="10.6"/>
				<rect x="74.7" y="110.2" class="st3" width="10.6" height="10.6"/>
				<rect x="94.7" y="110.2" class="st3" width="10.6" height="10.6"/>
				<rect x="114.7" y="110.2" class="st3" width="10.6" height="10.6"/>
			</g>
			<g>
				<rect x="77.1" y="30.3" class="st3" width="47.7" height="7.9"/>
			</g>
		</g>
	</g>
</g>
</svg>
