<?xml version="1.0" encoding="UTF-8"?><svg id="Layer_1" xmlns="http://www.w3.org/2000/svg" viewBox="0 0 383.31 236.64"><defs><style>.cls-1{fill:#fff;}</style></defs><path class="cls-1" d="m0,105.57c.74-1.54,1.58-3.03,2.2-4.61C14.27,70.38,26.32,39.79,38.38,9.21,41.76.64,47.34-1.83,55.86,1.49c9.17,3.57,18.31,7.2,27.47,10.77,5.61,2.18,8.57,6.1,8.55,12.26,0,.89.9,2.19,1.73,2.6,7.11,3.5,14.45,5.23,22.6,5.38,15.65.28,31.47,0,46.69,4.94.9.29,2.34-.22,3.2-.83,1.4-1,2.56-2.36,3.77-3.62,7.61-7.91,16.84-10.69,27.59-8.87,6.02,1.02,12.06,1.93,18.08,2.9,4.05.65,6.31,3.05,5.98,6.31-.36,3.46-3.2,5.42-7.46,4.83-6.79-.95-13.55-2.09-20.32-3.14-5.7-.88-10.65.75-14.71,4.77-16.23,16.12-33.36,31.14-52.46,43.82-3.33,2.21-3.32,4.31-.26,6.84,6.49,5.35,13.82,5.81,21.53,3.5,9.9-2.97,17.99-9,25.68-15.61,7.72-6.64,13.74-6.5,20.9.49,15.69,15.3,34.32,22.16,56.23,19.14,3.25-.45,5.73.37,8.28,2.27,14.79,11.03,29.67,21.94,44.75,33.06,7.94-5.1,15.88-10.2,24.08-15.47-10.64-26.99-21.22-53.81-31.92-80.93-3.67,1.32-7.13,2.31-10.38,3.78-11.21,5.07-22.75,6.07-34.7,3.37-2.91-.66-5.91-.93-8.85-1.46-3.8-.68-5.77-3.04-5.41-6.36.36-3.26,2.9-5.19,6.77-4.74,4.08.47,8.16,1.07,12.18,1.91,7.8,1.64,15.33,1.11,22.72-1.97,3.79-1.58,7.73-2.79,11.51-4.4.81-.34,1.69-1.68,1.69-2.56.03-5.96,2.73-9.86,8.28-12.02,9.63-3.74,19.2-7.66,28.83-11.4,6.96-2.7,13.05-.09,15.83,6.83,4.79,11.9,9.47,23.84,14.14,35.78,1.54,3.95.36,7.13-2.95,8.36-3.1,1.15-5.92-.39-7.47-4.27-4.29-10.76-8.51-21.54-12.77-32.31-.54-1.37-1.16-2.72-1.83-4.28-10.34,4.09-20.49,8.1-30.86,12.21,12.88,32.66,25.62,64.94,38.54,97.68,10.39-4.09,20.53-8.07,30.98-12.18-3.96-10.06-7.83-19.88-11.7-29.7-.78-1.97-1.66-3.9-2.31-5.92-.99-3.09.33-6.1,3-7.19,2.93-1.2,6.06-.04,7.37,3.21,4.84,12.01,9.65,24.03,14.18,36.16,1.98,5.29-.57,11.26-5.81,13.47-10.55,4.46-21.24,8.6-31.94,12.66-3.71,1.41-7.32.56-10.66-1.71-.88-.6-2.66-.96-3.44-.48-6.69,4.09-13.25,8.39-19.78,12.59,4.19,21.36-5.56,33.02-26.12,31.51-4.28,15.51-10.14,20.05-26.9,20.59-.7,7.3-3.6,13.56-9.94,17.79-6.2,4.14-12.97,4.72-20.3,2.64-2.14,10.34-7.91,17.12-18.37,19.36-10.64,2.28-17.99-4.03-25.87-10.12-1.75,2-3.39,3.98-5.13,5.85-5.67,6.08-12.58,8.44-20.67,6.27-8.07-2.17-12.86-7.61-14.85-15.71-.26-1.06-1.56-2.54-2.52-2.65-11.89-1.36-17.41-6.12-20.35-17.9-.09-.35-.25-.68-.37-1-14.39-1.86-20.07-6.73-22.47-19.24-19.69-3.24-27.08-14.88-19.63-31.66-1.27-.93-2.58-2.01-4-2.91-7.25-4.62-14.49-9.27-21.86-13.7-1.07-.65-2.81-.29-4.23-.24-3.26.12-6.85,1.31-9.7.33-10.24-3.52-20.21-7.8-30.31-11.71-3.8-1.47-5.67-4.6-7.43-7.91,0-2,0-3.99,0-5.99Zm190.51,109.9c4.05,2.49,7.54,5.25,11.48,6.91,5.07,2.13,10.83-.59,13.25-5.43,2.43-4.88,1.23-9.63-3.31-13.14-2.86-2.21-5.76-4.37-8.56-6.66-3.04-2.49-3.56-5.51-1.58-8.16,2.02-2.71,5.32-2.94,8.58-.57,1.41,1.03,2.75,2.15,4.14,3.2,4.78,3.6,9.44,7.37,14.38,10.74,5.35,3.66,12.11,2.41,15.64-2.51,3.56-4.97,2.38-11.3-2.9-15.39-4.64-3.59-9.32-7.11-13.91-10.75-2.99-2.37-3.58-5.56-1.68-8.16,2.04-2.79,5.21-3.06,8.55-.66,1.62,1.16,3.16,2.44,4.75,3.65,5.46,4.14,10.79,8.49,16.44,12.36,5.28,3.61,12.21,2.11,15.57-2.87,3.43-5.1,2.25-11.03-2.98-15.07-5.43-4.18-10.88-8.35-16.29-12.57-2.13-1.66-3.67-4.01-2.15-6.45,1.07-1.73,3.31-3.19,5.31-3.72,1.27-.34,3.22,1.01,4.56,2.02,7.59,5.67,15.04,11.53,22.63,17.2,6.17,4.61,12.78,3.95,16.84-1.49,3.78-5.06,2.42-12.1-3.37-16.4-13.92-10.33-27.87-20.6-41.9-30.78-1.26-.91-3.21-1.43-4.77-1.29-24.27,2.26-44.89-5.65-62.27-22.37-2.44-2.35-3.86-2.42-6.37-.18-8.44,7.5-17.61,13.92-28.5,17.42-11.2,3.61-21.9,2.94-31.64-4.26-10.51-7.76-10.01-18.83.55-26.45,10.7-7.72,20.91-16.12,31.37-24.19.86-.66,1.96-1.02,2.94-1.51-.32-.61-.64-1.21-.95-1.82-7.64-.64-15.28-1.39-22.94-1.88-9.32-.6-18.72-.43-27.94-1.65-5.4-.71-10.53-3.48-16.15-5.46-10.84,27.49-21.68,54.97-32.54,82.5,10.27,6.52,20.14,12.78,30.18,19.16,3.07-3.54,5.96-7.14,9.12-10.47,10.77-11.37,29.8-6.91,34.36,7.99.47,1.52.76,3.1,1.11,4.57,13.75,1.08,18.91,5.46,22.78,19.21,12.78.23,20.26,6.8,22.52,19.39,9.43-.24,16.55,3.44,20.45,11.92,3.98,8.64,1.89,16.53-4.81,24.08ZM42.15,121.06c12.96-32.86,25.71-65.19,38.55-97.75-10.61-4.17-20.72-8.14-30.99-12.18-12.94,32.81-25.7,65.17-38.54,97.71,10.43,4.12,20.47,8.08,30.98,12.22Zm54.06,46.74c.98-.47,3.46-.93,4.83-2.41,5.39-5.86,10.63-11.89,15.52-18.16,2.94-3.78,1.81-9.05-1.87-12.05-3.5-2.86-8.79-2.94-11.92.46-5.31,5.76-10.37,11.77-15.29,17.88-2.29,2.85-2.18,6.33-.45,9.53,1.67,3.07,4.4,4.64,9.17,4.75Zm45.04-6.08c-.53-3.96-2.78-7.45-6.22-8.69-3.86-1.39-7.47-.78-10.24,2.35-4.71,5.31-9.33,10.71-13.84,16.19-3.64,4.42-3.17,9.92.9,13.3,3.97,3.29,9.3,2.87,13.01-1.31,4.63-5.22,9.17-10.52,13.53-15.96,1.33-1.66,1.93-3.9,2.87-5.87Zm23.01,63.69c1.02-.51,3.44-1.05,4.82-2.55,5.3-5.77,10.45-11.71,15.3-17.86,2.94-3.73,1.93-9.12-1.63-12.12-3.43-2.89-8.82-3.11-11.92.22-5.42,5.83-10.56,11.94-15.52,18.17-2.26,2.84-2.09,6.34-.27,9.52,1.75,3.05,4.51,4.52,9.21,4.63Zm-.39-44.41c-.55-4.08-2.7-7.33-6.17-8.77-3.71-1.54-7.56-.74-10.49,2.56-4.63,5.22-9.16,10.52-13.58,15.91-3.7,4.51-3.29,9.87.79,13.31,3.94,3.32,9.51,2.77,13.29-1.51,4.45-5.04,8.85-10.13,13.05-15.38,1.4-1.75,2.1-4.07,3.12-6.12Z"/></svg>