<?xml version="1.0" encoding="utf-8"?>
<!-- Generator: Adobe Illustrator 27.8.1, SVG Export Plug-In . SVG Version: 6.00 Build 0)  -->
<!DOCTYPE svg PUBLIC "-//W3C//DTD SVG 1.1//EN" "http://www.w3.org/Graphics/SVG/1.1/DTD/svg11.dtd" [
	<!ENTITY ns_extend "http://ns.adobe.com/Extensibility/1.0/">
	<!ENTITY ns_ai "http://ns.adobe.com/AdobeIllustrator/10.0/">
	<!ENTITY ns_graphs "http://ns.adobe.com/Graphs/1.0/">
	<!ENTITY ns_vars "http://ns.adobe.com/Variables/1.0/">
	<!ENTITY ns_imrep "http://ns.adobe.com/ImageReplacement/1.0/">
	<!ENTITY ns_sfw "http://ns.adobe.com/SaveForWeb/1.0/">
	<!ENTITY ns_custom "http://ns.adobe.com/GenericCustomNamespace/1.0/">
	<!ENTITY ns_adobe_xpath "http://ns.adobe.com/XPath/1.0/">
]>
<svg version="1.1" id="Layer_1" xmlns:x="&ns_extend;" xmlns:i="&ns_ai;" xmlns:graph="&ns_graphs;"
	 xmlns="http://www.w3.org/2000/svg" xmlns:xlink="http://www.w3.org/1999/xlink" x="0px" y="0px" width="500px" height="500px"
	 viewBox="0 0 500 500" style="enable-background:new 0 0 500 500;" xml:space="preserve">
<style type="text/css">
	.st0{fill:#FF6600;}
	.st1{fill:#FFFFFF;}
</style>
<metadata>
	<sfw  xmlns="&ns_sfw;">
		<slices></slices>
		<sliceSourceBounds  bottomLeftOrigin="true" height="500" width="500" x="520" y="-500"></sliceSourceBounds>
	</sfw>
</metadata>
<path class="st0" d="M0,0v500h500V0H0z M475.3625,306.2842c0,3.2382-2.6262,5.8644-5.8644,5.8644H412.66
	c-2.749,0-5.1281-1.9095-5.7253-4.5914c-0.6118-2.7534-1.6349-6.3943-2.9763-10.7087l-17.9539,11.5297
	c1.1688,3.032,1.8304,6.2663,1.9051,9.5662c0.1784,7.8754-2.96,15.5398-8.6085,21.0295
	c-9.4758,9.2074-23.6509,10.5508-34.4979,3.9729c-0.8934,5.3736-3.4411,10.3119-7.4042,14.2341
	c-7.7511,7.6693-19.2247,9.479-28.7365,5.4276c-0.8525,5.9512-3.6735,11.3853-8.1504,15.5791
	c-5.1412,4.8172-11.683,7.2193-18.2167,7.2193c-4.3345,0-8.663-1.0626-12.5815-3.1711c-2.8934,3.7551-6.7847,6.2982-11.5193,7.4614
	c-1.9848,0.486-4.1202,0.7314-6.4077,0.7314c-22.4286,0-59.4749-23.4823-112.804-71.4337l-2.2482-2.0159
	c-10.4756-9.3378-30.5629-29.8011-40.8873-40.4203c-2.1707,5.3846-4.3898,10.1726-6.642,14.1383
	c-1.0423,1.8343-2.9895,2.9682-5.0995,2.9682H30.502c-3.239,0-5.8644-2.6262-5.8644-5.8644V115.4359
	c0-3.2382,2.6254-5.8644,5.8644-5.8644c2.2238,0,54.9449,0.2274,96.3323,19.9791c2.3546,1.1241,3.6841,3.6686,3.262,6.2424
	c-0.1328,0.809-0.7809,4.7285-1.8691,10.8536c17.6107-0.4363,62.2157-1.1683,82.1609,1.9399
	c28.3669-25.1695,53.6407-20.6415,76.9096-11.3323c17.5126,7.0048,48.1602,17.6584,65.0908,23.4601
	c-0.9385-2.3182-1.486-3.6632-1.5358-3.7854c-1.0996-2.6982-0.0524-5.7925,2.4577-7.2684
	c40.3442-23.7278,113.4274-19.9153,116.5167-19.7467c3.1057,0.1734,5.5356,2.744,5.5356,5.8546V306.2842z"/>
<path class="st1" d="M470.1895,123.4238l-0.0088-0.0005c-7.9707-0.4355-79.0518-3.5469-120.1631,20.6333
	c-2.7412,1.6108-4.6592,4.1733-5.54,7.0576c-17.123-5.9287-40.4346-14.1631-54.7656-19.8955
	c-23.125-9.2505-50.7881-15.1226-81.3428,10.5239c-18.6973-2.3408-52.4561-2.1426-72.3838-1.7666
	c0.2695-1.5859,0.4463-2.6523,0.5244-3.1294c0.8857-5.3931-1.9404-10.8057-6.876-13.1626
	c-42.7012-20.3784-96.8477-20.6128-99.1318-20.6128c-6.8174,0-12.3643,5.5469-12.3643,12.3647v172.3647
	c0,6.8174,5.5469,12.3643,12.3643,12.3643h53.6035c4.4385,0,8.5586-2.3975,10.752-6.2578c1.0137-1.7852,2.0391-3.7598,3.0723-5.9102
	c11.0645,11.2891,25.877,26.165,34.4639,33.8203l2.2432,2.0107c55.4648,49.8721,92.6904,73.1006,117.1504,73.1006
	c2.792,0,5.4678-0.3086,7.958-0.9189c4.3662-1.0732,8.2861-3.1152,11.5498-5.9912c3.5254,1.2432,7.2559,1.8887,11,1.8887
	c8.4365,0,16.4844-3.1885,22.6602-8.9756c3.71-3.4746,6.5059-7.6172,8.2744-12.2109c10.3418,1.8701,21.0586-1.3193,28.7422-8.9199
	c2.9287-2.8984,5.2461-6.25,6.8799-9.9141c12.0557,3.8613,25.5674,0.8955,34.9795-8.252
	c6.9414-6.7451,10.7959-16.1631,10.5762-25.8369c-0.0498-2.2188-0.3125-4.4199-0.7852-6.5869l6.5049-4.1768
	c0.1777,0.7002,0.332,1.3457,0.4629,1.9375c1.2705,5.6973,6.2334,9.6768,12.0703,9.6768h56.8379
	c6.8174,0,12.3643-5.5469,12.3643-12.3643V135.7686C481.8623,129.2114,476.7354,123.7891,470.1895,123.4238z M422.1152,293.9199
	c-9.7314-32.2852-38.1953-103.771-50.0771-133.2427c26.9551-11.2837,65.4541-12.8193,84.3398-12.8193
	c0.2559,0,0.5068,0.0005,0.7559,0.001v146.061H422.1152z M380.3125,290.3672L269.916,192.3745
	c-2.3398-2.0791-5.2754-3.1104-8.207-3.1104c-3.126,0-6.2471,1.1738-8.6338,3.5015c-1.999,1.5708-12.3184,5.0132-24.1162,6.8853
	c-4.1523,0.6611-7.6514,3.3491-9.3574,7.189c-3.1992,7.1968-9.9102,10.5718-14.9766,12.1357
	c-8.2305,2.542-16.0938,1.5552-18.3428,0.2456c-0.0293-0.0854-0.0742-0.2422-0.1152-0.4956
	c-0.207-1.2871-1.2725-13.4727,24.7822-44.5088c3.0449-3.6274,6.1084-6.9219,9.1084-9.7949
	c0.4424-0.3618,0.8555-0.749,1.2354-1.1572c20.6113-19.0483,37.957-17.5996,59.2344-9.084
	c20.4834,8.1919,57.9043,21.0498,72.7217,26.0898c10.6279,26.5698,28.3936,71.6348,39.1191,102.3555L380.3125,290.3672z
	 M352.4619,325.9863l-7.1748-6.8086c-1.1816-1.5938-2.5156-3.0889-3.9717-4.4512l-51.749-48.4287
	c-4.959-4.6455-12.7881-4.3984-17.4482,0.5459c-4.6582,4.9434-4.4404,12.7705,0.4863,17.4492l53.5361,50.8066
	c0.5088,1.0371,0.7744,2.168,0.791,3.3701c0.0303,2.21-0.7832,4.1982-2.3555,5.7529c-3.0732,3.043-8.082,3.0449-11.1611,0.0059
	l-2.8613-2.8262c-1.4941-2.4219-3.3027-4.6504-5.3838-6.6328l-39.2422-37.4326c-4.8887-4.6631-12.6953-4.5117-17.4082,0.3379
	c-4.7051,4.8506-4.6211,12.6602,0.1875,17.4072l41.6074,41.0889c0.2646,0.8311,0.3965,1.707,0.3926,2.6133
	c-0.0107,2.3721-0.9307,4.4814-2.6582,6.1006c-3.29,3.082-8.3916,3.0342-11.5537-0.0469l-0.2949-0.2891
	c-37.9453-36.9932-45.9502-45.792-47.502-47.6055c-1.8857-3.3057-5.1816-5.5635-8.9766-6.1074
	c-3.2695-0.4717-6.5244,0.3555-9.1689,2.335c-2.6475,1.9814-4.3643,4.8779-4.832,8.1543c-0.7373,5.1592,1.252,8.4209,7.2246,15.0205
	c5.3252,5.8848,14.9385,15.5537,35.5068,35.6729c-10.8662-1.6318-37.459-12.7891-97.2861-66.584l-2.3018-2.0645
	c-10.3359-9.2119-31.5488-30.877-41.0928-40.7021c10.2217-31.2036,18.8818-72.5776,23.7139-97.8569
	c12.4121-0.2715,36.1025-0.6182,55.1367,0.1104c-19.085,24.1333-27.2305,43.0693-24.8691,57.7344
	c1.209,7.5088,5.2969,13.7568,11.5098,17.5918c9.2266,5.6992,24.7627,6.646,38.6602,2.3564
	c11.5195-3.5581,20.9785-10.4688,26.959-19.6235c5.958-1.1953,14.335-3.2192,21.2842-6.1953l106.0918,94.1699
	c2.1455,1.9053,3.3623,4.5332,3.4277,7.4014c0.0645,2.8662-1.0322,5.5459-3.0898,7.5459
	C362.6572,329.7314,356.4473,329.7686,352.4619,325.9863z M42.8662,275.4365V128.3555
	c15.7021,1.1025,43.2334,4.3589,67.6016,13.9556c-4.2061,23.6636-15.2832,81.9971-28.291,118.8843L82.0693,261.5
	c-1.8926,5.3428-3.752,10.0117-5.5488,13.9365H42.8662z"/>
<path class="st1" d="M282.9417,148.1453c-23.4952-9.403-43.4108-10.7154-66.2792,10.549c-0.2648,0.3066-0.5615,0.5792-0.8811,0.8235
	c-3.2054,3.0519-6.4688,6.5388-9.8105,10.5193c-25.9196,30.8767-26.9717,45.0568-26.2207,49.7219
	c0.3739,2.3268,1.3565,3.9091,3.0918,4.9808c4.121,2.5428,14.1146,3.4067,23.7007,0.4467
	c6.3546-1.9619,14.8092-6.2817,18.9981-15.7067c0.8067-1.8146,2.479-3.0975,4.4409-3.41
	c10.8159-1.7164,24.4445-5.5012,27.6025-8.6216c2.1959-2.1713,5.7025-2.2679,8.0145-0.2144l112.7598,100.09
	c0.4384,0.3889,0.8588,0.7944,1.2701,1.2078l20.5517-13.1979c-10.9058-31.9457-31.1536-83.166-42.0089-110.2559
	C347.3427,171.407,304.9827,156.9604,282.9417,148.1453z"/>
<path class="st1" d="M370.5731,306.0944l-109.3252-97.04c-7.8411,4.3083-20.2523,6.9624-26.4318,8.0865
	c-5.0062,9.0438-13.7023,15.8213-24.811,19.2526c-12.0177,3.7095-25.7216,3.0222-33.3262-1.6755
	c-4.6495-2.8701-7.5916-7.3993-8.5087-13.0952c-2.2229-13.807,7.473-33.7009,28.8175-59.1255
	c0.9615-1.1454,1.919-2.2499,2.8735-3.3242c-22.4158-1.8558-60.515-1.0818-73.7857-0.7344
	c-5.0889,27.205-14.5295,73.1141-25.7217,105.9176c7.8992,8.1612,32.5887,33.5305,44.1852,43.867l2.2859,2.0503
	c71.9729,64.7151,98.9144,70.4094,108.5734,68.0319c2.2376-0.5493,3.9224-1.6721,5.2258-3.4844
	c-49.1247-47.923-49.0107-48.7814-48.4688-52.5764c0.4581-3.2055,3.424-5.4407,6.6351-4.976
	c2.0233,0.2896,3.6563,1.579,4.4711,3.2955c2.3333,2.9938,16.1672,17.2161,48.5643,48.7983
	c0.0054,0.005,0.0104,0.0103,0.0157,0.0153c0.0193,0.0189,0.0377,0.0368,0.0571,0.0557c5.7139,5.5683,14.7593,5.6583,20.5927,0.1964
	c3.0239-2.8324,4.6978-6.6744,4.7158-10.8159c0.0098-2.2237-0.4581-4.364-1.3581-6.3127l-42.5745-42.0444
	c-2.2908-2.2614-2.3301-5.9462-0.0884-8.2567c2.245-2.3105,5.9299-2.3776,8.2567-0.1588l39.2414,37.4317
	c1.8785,1.7901,3.4575,3.8011,4.7158,5.9757l3.4476,3.4051c5.601,5.5274,14.7102,5.5225,20.3014-0.0114
	c2.816-2.785,4.3362-6.501,4.2822-10.4624c-0.036-2.6312-0.7657-5.1364-2.0977-7.3142l-54.2543-51.4874
	c-2.3432-2.2253-2.4463-5.925-0.2307-8.2763c2.2155-2.3497,5.9168-2.4692,8.2747-0.2602l51.7509,48.4308
	c1.3172,1.2322,2.4872,2.5756,3.5049,4.0089l7.6087,7.2193c6.5239,6.1917,16.6869,6.1345,23.1387-0.1375
	c3.3675-3.2726,5.1641-7.6594,5.0578-12.3539C376.0775,313.5149,374.0845,309.2131,370.5731,306.0944z"/>
<path class="st1" d="M36.3664,121.4705v160.4657H80.601c2.5861-5.0715,5.1378-11.3185,7.6216-18.3405
	c0.0106-0.0256,0.0165-0.0525,0.0275-0.0779c14.3772-40.6873,26.4563-107.5082,29.5208-125.2132
	C87.2607,124.9771,50.4507,122.0939,36.3664,121.4705z"/>
<path class="st1" d="M363.6876,157.3608c8.975,22.1668,44.8931,111.5146,53.541,143.0589h46.4051V141.4365
	C446.8011,141.0568,395.4774,141.3743,363.6876,157.3608z"/>
<path class="st0" d="M469.8269,129.9138c-3.0893-0.1686-76.1724-3.9811-116.5167,19.7467
	c-2.5101,1.4759-3.5573,4.5701-2.4577,7.2684c0.0499,0.1222,0.5974,1.4672,1.5358,3.7854
	c-16.9307-5.8017-47.5782-16.4553-65.0908-23.4601c-23.2689-9.3092-48.5427-13.8372-76.9096,11.3323
	c-19.9452-3.1082-64.5502-2.3762-82.1609-1.9399c1.0882-6.1252,1.7363-10.0447,1.8691-10.8536
	c0.4222-2.5739-0.9073-5.1183-3.262-6.2424c-41.3874-19.7516-94.1085-19.9791-96.3323-19.9791c-3.239,0-5.8644,2.6262-5.8644,5.8644
	v172.3648c0,3.2382,2.6254,5.8644,5.8644,5.8644h53.6039c2.11,0,4.0572-1.1339,5.0995-2.9682
	c2.2521-3.9657,4.4713-8.7537,6.642-14.1383c10.3244,10.6192,30.4117,31.0825,40.8873,40.4203l2.2482,2.0159
	c53.329,47.9514,90.3754,71.4337,112.804,71.4337c2.2875,0,4.4229-0.2454,6.4077-0.7314c4.7346-1.1633,8.6259-3.7063,11.5193-7.4614
	c3.9186,2.1085,8.247,3.1711,12.5815,3.1711c6.5337,0,13.0756-2.4021,18.2167-7.2193c4.4769-4.1938,7.2979-9.6279,8.1504-15.5791
	c9.5117,4.0515,20.9854,2.2417,28.7365-5.4276c3.9631-3.9222,6.5108-8.8605,7.4042-14.2341
	c10.847,6.5779,25.0221,5.2345,34.4979-3.9729c5.6484-5.4897,8.7869-13.1541,8.6085-21.0295
	c-0.0747-3.2999-0.7363-6.5342-1.9051-9.5662l17.9539-11.5297c1.3414,4.3144,2.3646,7.9554,2.9763,10.7087
	c0.5972,2.6819,2.9764,4.5914,5.7253,4.5914h56.8381c3.2382,0,5.8644-2.6263,5.8644-5.8644V135.7684
	C475.3625,132.6578,472.9326,130.0872,469.8269,129.9138z M88.2501,263.5178c-0.011,0.0255-0.017,0.0523-0.0275,0.0779
	c-2.4838,7.0219-5.0355,13.2689-7.6216,18.3405H36.3664V121.4705c14.0844,0.6234,50.8943,3.5065,81.4045,16.8341
	C114.7064,156.0096,102.6273,222.8306,88.2501,263.5178z M371.1261,330.5634c-6.4518,6.2719-16.6148,6.3292-23.1387,0.1375
	l-7.6087-7.2193c-1.0178-1.4333-2.1877-2.7767-3.5049-4.0089l-51.7509-48.4308c-2.3578-2.209-6.0591-2.0895-8.2747,0.2602
	c-2.2156,2.3513-2.1125,6.051,0.2307,8.2763l54.2543,51.4874c1.332,2.1779,2.0617,4.683,2.0977,7.3142
	c0.054,3.9614-1.4661,7.6774-4.2822,10.4624c-5.5912,5.5339-14.7004,5.5388-20.3014,0.0114l-3.4476-3.4051
	c-1.2584-2.1746-2.8373-4.1856-4.7158-5.9757l-39.2414-37.4317c-2.3268-2.2188-6.0117-2.1517-8.2567,0.1588
	c-2.2417,2.3104-2.2025,5.9953,0.0884,8.2567l42.5745,42.0444c0.9,1.9488,1.3679,4.0891,1.3581,6.3127
	c-0.018,4.1415-1.6919,7.9835-4.7158,10.8159c-5.8334,5.4619-14.8787,5.3719-20.5927-0.1964
	c-0.0193-0.0189-0.0377-0.0368-0.0571-0.0557c-0.0053-0.0051-0.0103-0.0103-0.0157-0.0153
	c-32.3971-31.5822-46.231-45.8046-48.5643-48.7983c-0.8148-1.7165-2.4479-3.0059-4.4711-3.2955
	c-3.2112-0.4647-6.177,1.7704-6.6351,4.976c-0.5419,3.795-0.6559,4.6534,48.4688,52.5764
	c-1.3034,1.8123-2.9882,2.9351-5.2258,3.4844c-9.659,2.3776-36.6005-3.3168-108.5734-68.0319l-2.2859-2.0503
	c-11.5964-10.3365-36.286-35.7058-44.1852-43.867c11.1922-32.8035,20.6329-78.7126,25.7217-105.9176
	c13.2707-0.3474,51.3699-1.1214,73.7857,0.7344c-0.9545,1.0742-1.912,2.1788-2.8735,3.3242
	c-21.3445,25.4246-31.0404,45.3185-28.8175,59.1255c0.9172,5.6959,3.8592,10.2252,8.5087,13.0952
	c7.6046,4.6978,21.3085,5.385,33.3262,1.6755c11.1088-3.4313,19.8048-10.2088,24.811-19.2526
	c6.1794-1.1241,18.5906-3.7781,26.4318-8.0865l109.3252,97.04c3.5115,3.1188,5.5045,7.4205,5.6108,12.1151
	C376.2902,322.9039,374.4936,327.2908,371.1261,330.5634z M379.6287,298.5317c-0.4113-0.4135-0.8318-0.8189-1.2701-1.2078
	l-112.7598-100.09c-2.3121-2.0535-5.8186-1.957-8.0145,0.2144c-3.158,3.1204-16.7866,6.9052-27.6025,8.6216
	c-1.9619,0.3126-3.6342,1.5954-4.4409,3.41c-4.1889,9.425-12.6436,13.7448-18.9981,15.7067
	c-9.5862,2.96-19.5798,2.0961-23.7007-0.4467c-1.7353-1.0718-2.7179-2.6541-3.0918-4.9808
	c-0.751-4.6651,0.3011-18.8452,26.2207-49.7219c3.3418-3.9805,6.6052-7.4675,9.8105-10.5193
	c0.3196-0.2443,0.6163-0.5169,0.8811-0.8235c22.8684-21.2643,42.784-19.9519,66.2792-10.549
	c22.041,8.8152,64.401,23.2617,75.2298,26.9326c10.8552,27.0899,31.1031,78.3102,42.0089,110.2559L379.6287,298.5317z
	 M463.6336,300.4197h-46.4051c-8.6478-31.5443-44.5659-120.8921-53.541-143.0589c31.7898-15.9865,83.1135-16.304,99.946-15.9243
	V300.4197z"/>
</svg>
