<?xml version="1.0" encoding="utf-8"?>
<!-- Generator: Adobe Illustrator 27.8.1, SVG Export Plug-In . SVG Version: 6.00 Build 0)  -->
<!DOCTYPE svg PUBLIC "-//W3C//DTD SVG 1.1//EN" "http://www.w3.org/Graphics/SVG/1.1/DTD/svg11.dtd" [
	<!ENTITY ns_extend "http://ns.adobe.com/Extensibility/1.0/">
	<!ENTITY ns_ai "http://ns.adobe.com/AdobeIllustrator/10.0/">
	<!ENTITY ns_graphs "http://ns.adobe.com/Graphs/1.0/">
	<!ENTITY ns_vars "http://ns.adobe.com/Variables/1.0/">
	<!ENTITY ns_imrep "http://ns.adobe.com/ImageReplacement/1.0/">
	<!ENTITY ns_sfw "http://ns.adobe.com/SaveForWeb/1.0/">
	<!ENTITY ns_custom "http://ns.adobe.com/GenericCustomNamespace/1.0/">
	<!ENTITY ns_adobe_xpath "http://ns.adobe.com/XPath/1.0/">
]>
<svg version="1.1" id="Layer_1" xmlns:x="&ns_extend;" xmlns:i="&ns_ai;" xmlns:graph="&ns_graphs;"
	 xmlns="http://www.w3.org/2000/svg" xmlns:xlink="http://www.w3.org/1999/xlink" x="0px" y="0px" width="500px" height="500px"
	 viewBox="0 0 500 500" style="enable-background:new 0 0 500 500;" xml:space="preserve">
<style type="text/css">
	.st0{fill:#FF6600;}
	.st1{fill:#FFFFFF;}
</style>
<metadata>
	<sfw  xmlns="&ns_sfw;">
		<slices></slices>
		<sliceSourceBounds  bottomLeftOrigin="true" height="500" width="500" x="520" y="-500"></sliceSourceBounds>
	</sfw>
</metadata>
<path class="st0" d="M0,0v500h500V0H0z M473.7413,156.4412c-0.0001,0.0112,0.0002,0.0224,0,0.0336v194.8483
	c0,2.5339-1.539,4.8147-3.8909,5.761l-194.9633,78.534c-0.4498,0.1812-0.9141,0.3005-1.3828,0.3724
	c-0.0184,0.0028-0.0368,0.0052-0.0552,0.0079c-0.2933,0.0422-0.5878,0.0703-0.8826,0.0703c-0.0663,0-0.1318-0.0125-0.1981-0.0146
	c-0.1792-0.0057-0.3578-0.0183-0.5364-0.0396c-0.1112-0.0133-0.2213-0.0285-0.3317-0.0477
	c-0.1956-0.0342-0.3898-0.0778-0.5827-0.131c-0.1262-0.0348-0.2498-0.0764-0.3739-0.1192c-0.0994-0.0343-0.1998-0.0641-0.298-0.1037
	l-97.6813-39.3544c-14.9875,10.1475-33.0504,16.08-52.4731,16.08c-51.7396,0-93.8342-42.0947-93.8342-93.8342
	c0-33.9239,18.097-63.6998,45.1432-80.184v-81.7132c-0.0974-2.4718,1.2907-4.8668,3.6898-5.9285l194.9633-86.217
	c1.6014-0.7072,3.4247-0.7072,5.0261,0l194.9632,86.217c0.0667,0.0295,0.1281,0.0659,0.1932,0.0975
	c0.0677,0.0327,0.1346,0.0662,0.2012,0.1014c0.1606,0.085,0.3152,0.1768,0.4655,0.2739c0.0339,0.0219,0.0703,0.0384,0.1038,0.061
	c0.0139,0.0094,0.0258,0.021,0.0396,0.0305c0.3991,0.2737,0.7585,0.5883,1.0754,0.937c0.0371,0.0408,0.0709,0.0837,0.1068,0.1254
	c0.1155,0.1341,0.2255,0.2719,0.3286,0.4146c0.0428,0.0592,0.0843,0.1188,0.1249,0.1794c0.092,0.1373,0.1773,0.278,0.2579,0.4218
	c0.0339,0.0605,0.0698,0.1193,0.1017,0.1809c0.1046,0.2021,0.2009,0.4081,0.2828,0.6202c0.0068,0.0175,0.0112,0.0358,0.0178,0.0533
	c0.0743,0.1976,0.1371,0.3991,0.191,0.6035c0.018,0.0682,0.0317,0.1375,0.0474,0.2065c0.0372,0.1633,0.0683,0.3278,0.0923,0.4941
	c0.0099,0.0692,0.0194,0.1381,0.027,0.2078c0.0212,0.1927,0.033,0.3865,0.0359,0.5815c0.0004,0.0306,0.0056,0.0603,0.0056,0.0909
	V156.4412z"/>
<g>
	<path class="st1" d="M480.2275,155.9009c-0.0107-0.3042-0.0332-0.6108-0.0674-0.936c-0.0146-0.1294-0.0322-0.2573-0.0566-0.4312
		c-0.0488-0.3315-0.1104-0.6602-0.1865-0.9956c-0.0283-0.1304-0.0586-0.2603-0.0967-0.4092
		c-0.085-0.3247-0.1836-0.6465-0.3037-0.9897l-0.1309-0.3638c-0.166-0.4292-0.3564-0.8481-0.5498-1.2173
		c-0.0762-0.1504-0.1572-0.2974-0.2158-0.395c-0.166-0.2998-0.3447-0.5923-0.5566-0.9092
		c-0.0771-0.1138-0.1543-0.2251-0.2295-0.3291c-0.2109-0.293-0.4365-0.5771-0.6699-0.8496l-0.2295-0.2637
		c-0.5801-0.6392-1.2275-1.2192-1.9287-1.7285l-0.4297-0.3027c-0.0986-0.0649-0.1982-0.127-0.2988-0.186
		c-0.2578-0.1616-0.5234-0.3154-0.7988-0.4614c-0.1172-0.0625-0.2363-0.1226-0.3389-0.1724
		c-0.1553-0.0811-0.3115-0.1572-0.4678-0.2266L277.7051,58.5151c-3.2646-1.4419-7.0117-1.4414-10.2803,0.0015L72.459,144.7349
		c-4.75,2.1021-7.7041,6.793-7.5586,11.9785v78.0332c-28.3398,18.6812-45.1436,49.7212-45.1436,83.7573
		c0,55.3252,45.0098,100.335,100.335,100.335c18.9248,0,37.2363-5.2734,53.1846-15.2852l94.5557,38.0947
		c0.1924,0.0771,0.3867,0.1455,0.584,0.21c0.2539,0.0879,0.5068,0.1699,0.7832,0.2461c0.3906,0.1074,0.7842,0.1953,1.168,0.2627
		c0.2236,0.04,0.4473,0.0713,0.6895,0.1006c0.3037,0.0371,0.6084,0.0615,0.9131,0.0752c0.1982,0.0166,0.3975,0.0254,0.5967,0.0254
		c0.5596,0,1.126-0.041,1.7275-0.125l0.1875-0.0273c0.9834-0.1494,1.9365-0.4072,2.834-0.7686l194.9619-78.5332
		c4.8379-1.9473,7.9639-6.5752,7.9639-11.791V156.4746L480.2275,155.9009z M308.8955,206.5566l-36.333,14.6357l-162.2969-65.377
		l40.1934-17.7739L308.8955,206.5566z M334.9453,286.1982c3.5586,2.3174,8.1738,2.6953,12.0732,0.9775l58.3477-25.7598
		c4.5996-2.0352,7.5723-6.5996,7.5723-11.6274v-57.7339l41.8799-16.8691v167.5537l-169.54,68.292V243.4771l43.8936-17.6807v49.7505
		C329.1719,279.8594,331.3291,283.8398,334.9453,286.1982z M342.0586,193.1982l-159.9307-69.1621l25.4609-11.2593l161.1348,69.6802
		L342.0586,193.1982z M354.5957,256.04v-40.4844l32.9189-13.2598v39.21L354.5957,256.04z M401.8877,169.0981L239.2588,98.772
		l33.3076-14.7295l162.2988,71.772L401.8877,169.0981z M220.4238,318.5039c0-55.3232-45.0088-100.332-100.332-100.332
		c-10.1953,0-20.1699,1.5127-29.7686,4.5063v-47.4878l169.5312,68.2905v167.5454l-64.6758-26.0566
		C211.3252,366.707,220.4238,342.9902,220.4238,318.5039z M195.001,318.5039c0,41.3066-33.6045,74.9111-74.9092,74.9111
		c-41.3057,0-74.9111-33.6045-74.9111-74.9111c0-41.3047,33.6055-74.9092,74.9111-74.9092
		C161.3965,243.5947,195.001,277.1992,195.001,318.5039z"/>
	<path class="st1" d="M93.7422,325.1279h36.2744l-14.8574-14.8486h12.7383c9.4297,0,17.1006,7.6709,17.1006,17.0986
		c0,9.4307-7.6709,17.1025-17.1006,17.1025h-21.9482c-7.0098,0-12.7119,5.7021-12.7119,12.7109
		c0,7.0098,5.7021,12.7119,12.7119,12.7119h21.9482c23.4473,0,42.5234-19.0771,42.5234-42.5254
		c0-23.4463-19.0762-42.5215-42.5234-42.5215h-12.7402l14.8594-14.8506H93.7422l-27.5615,27.5615L93.7422,325.1279z"/>
</g>
<polygon class="st1" points="348.0953,266.0142 394.015,245.7416 394.015,192.6697 348.0953,211.1666 "/>
<path class="st1" d="M120.0914,237.095c-44.8902,0-81.4111,36.5209-81.4111,81.4093c0,44.8902,36.5209,81.411,81.4111,81.411
	c44.8884,0,81.4093-36.5208,81.4093-81.411C201.5007,273.6158,164.9798,237.095,120.0914,237.095z M127.8975,363.4031h-21.9485
	c-3.4299,0-6.2116-2.7817-6.2116-6.2116c0-3.4299,2.7817-6.2115,6.2116-6.2115h21.9485c13.0125,0,23.6002-10.5878,23.6002-23.602
	c0-13.0125-10.5878-23.5985-23.6002-23.5985H99.4601l14.8574,14.8487H96.4343l-21.061-21.0612l21.061-21.0612h17.8832
	l-14.8591,14.8505h28.4391c19.8635,0,36.0234,16.1598,36.0234,36.0217C163.9208,347.2416,147.761,363.4031,127.8975,363.4031z"/>
<polygon class="st1" points="451.5679,156.0938 272.5665,76.9351 223.0366,98.8384 401.7983,176.1417 "/>
<path class="st1" d="M83.8235,231.9666c11.1633-4.6959,23.4175-7.2948,36.2678-7.2948c51.7396,0,93.8325,42.0929,93.8325,93.8325
	c0,27.192-11.6306,51.7154-30.1734,68.8689l82.6045,33.2792V239.0916L83.8235,165.5646V231.9666z"/>
<polygon class="st1" points="385.5922,182.6698 207.5596,105.6827 165.9062,124.1028 341.9697,200.2415 "/>
<polygon class="st1" points="150.4294,130.947 93.5629,156.0947 272.5623,228.1999 325.7635,206.7696 "/>
<path class="st1" d="M406.4381,249.7885c0,2.4611-1.4524,4.6882-3.702,5.683l-58.3429,25.7581
	c-0.8024,0.3535-1.6586,0.5286-2.5096,0.5286c-1.1872,0-2.3675-0.3397-3.3918-1.007c-1.7591-1.1473-2.8198-3.1041-2.8198-5.2046
	v-59.3759l-56.8939,22.9174v181.5695l182.54-73.5287V165.5594l-54.8801,22.1061V249.7885z"/>
<g>
	<path class="st0" d="M473.6998,155.6874c-0.0076-0.0697-0.0172-0.1386-0.027-0.2078c-0.024-0.1663-0.0551-0.3308-0.0923-0.4941
		c-0.0157-0.069-0.0294-0.1382-0.0474-0.2065c-0.054-0.2043-0.1168-0.4058-0.191-0.6035c-0.0066-0.0176-0.011-0.0359-0.0178-0.0533
		c-0.0818-0.212-0.1782-0.4181-0.2828-0.6202c-0.0319-0.0616-0.0678-0.1204-0.1017-0.1809
		c-0.0806-0.1438-0.1659-0.2845-0.2579-0.4218c-0.0406-0.0606-0.0821-0.1202-0.1249-0.1794
		c-0.1031-0.1427-0.213-0.2805-0.3286-0.4146c-0.0359-0.0417-0.0696-0.0847-0.1068-0.1254c-0.317-0.3487-0.6763-0.6633-1.0754-0.937
		c-0.0138-0.0095-0.0257-0.0211-0.0396-0.0305c-0.0335-0.0226-0.0699-0.0391-0.1038-0.061
		c-0.1502-0.0971-0.3048-0.1888-0.4655-0.2739c-0.0666-0.0353-0.1335-0.0687-0.2012-0.1014
		c-0.0652-0.0316-0.1265-0.0679-0.1932-0.0975l-194.9632-86.217c-1.6014-0.7072-3.4247-0.7072-5.0261,0l-194.9633,86.217
		c-2.3991,1.0617-3.7872,3.4567-3.6898,5.9285v81.7132c-27.0463,16.4841-45.1432,46.2601-45.1432,80.184
		c0,51.7396,42.0946,93.8342,93.8342,93.8342c19.4227,0,37.4857-5.9326,52.4731-16.08l97.6813,39.3544
		c0.0982,0.0396,0.1985,0.0694,0.298,0.1037c0.1241,0.0428,0.2477,0.0844,0.3739,0.1192c0.1929,0.0532,0.3871,0.0968,0.5827,0.131
		c0.1104,0.0192,0.2205,0.0344,0.3317,0.0477c0.1785,0.0213,0.3572,0.0339,0.5364,0.0396c0.0662,0.0021,0.1317,0.0146,0.1981,0.0146
		c0.2949,0,0.5894-0.0281,0.8826-0.0703c0.0184-0.0027,0.0368-0.0051,0.0552-0.0079c0.4688-0.0718,0.933-0.1912,1.3828-0.3724
		l194.9633-78.534c2.3519-0.9463,3.8909-3.2271,3.8909-5.761V156.4748c0.0002-0.0112-0.0001-0.0224,0-0.0336v-0.0813
		c0-0.0306-0.0052-0.0604-0.0056-0.0909C473.7327,156.0739,473.7209,155.8801,473.6998,155.6874z M272.5665,76.9351
		l179.0014,79.1587l-49.7696,20.048L223.0366,98.8384L272.5665,76.9351z M207.5596,105.6827l178.0325,76.9871l-43.6225,17.5717
		l-176.0634-76.1387L207.5596,105.6827z M394.015,192.6697v53.0719l-45.9197,20.2726v-54.8477L394.015,192.6697z M120.0914,399.9153
		c-44.8902,0-81.4111-36.5208-81.4111-81.411c0-44.8884,36.5209-81.4093,81.4111-81.4093c44.8884,0,81.4093,36.5209,81.4093,81.4093
		C201.5007,363.3945,164.9798,399.9153,120.0914,399.9153z M266.3549,420.6524l-82.6045-33.2792
		c18.5428-17.1535,30.1734-41.6769,30.1734-68.8689c0-51.7396-42.0929-93.8325-93.8325-93.8325
		c-12.8503,0-25.1046,2.5989-36.2678,7.2948v-66.402l182.5314,73.5269V420.6524z M272.5623,228.1999L93.5629,156.0947
		l56.8665-25.1477l175.3342,75.8226L272.5623,228.1999z M461.3182,347.1289l-182.54,73.5287V239.0881l56.8939-22.9174v59.3759
		c0,2.1005,1.0607,4.0573,2.8198,5.2046c1.0243,0.6673,2.2046,1.007,3.3918,1.007c0.851,0,1.7072-0.175,2.5096-0.5286
		l58.3429-25.7581c2.2496-0.9948,3.702-3.2219,3.702-5.683v-62.1229l54.8801-22.1061V347.1289z"/>
	<path class="st0" d="M127.8975,291.3563H99.4584l14.8591-14.8505H96.4343l-21.061,21.0612l21.061,21.0612h17.8832l-14.8574-14.8487
		h28.4373c13.0125,0,23.6002,10.5861,23.6002,23.5985c0,13.0142-10.5878,23.602-23.6002,23.602h-21.9485
		c-3.4299,0-6.2116,2.7817-6.2116,6.2115c0,3.4299,2.7817,6.2116,6.2116,6.2116h21.9485c19.8635,0,36.0234-16.1616,36.0234-36.0251
		C163.9208,307.5161,147.761,291.3563,127.8975,291.3563z"/>
</g>
</svg>
