<?xml version="1.0" encoding="utf-8"?>
<!-- Generator: Adobe Illustrator 27.8.1, SVG Export Plug-In . SVG Version: 6.00 Build 0)  -->
<!DOCTYPE svg PUBLIC "-//W3C//DTD SVG 1.1//EN" "http://www.w3.org/Graphics/SVG/1.1/DTD/svg11.dtd" [
	<!ENTITY ns_extend "http://ns.adobe.com/Extensibility/1.0/">
	<!ENTITY ns_ai "http://ns.adobe.com/AdobeIllustrator/10.0/">
	<!ENTITY ns_graphs "http://ns.adobe.com/Graphs/1.0/">
	<!ENTITY ns_vars "http://ns.adobe.com/Variables/1.0/">
	<!ENTITY ns_imrep "http://ns.adobe.com/ImageReplacement/1.0/">
	<!ENTITY ns_sfw "http://ns.adobe.com/SaveForWeb/1.0/">
	<!ENTITY ns_custom "http://ns.adobe.com/GenericCustomNamespace/1.0/">
	<!ENTITY ns_adobe_xpath "http://ns.adobe.com/XPath/1.0/">
]>
<svg version="1.1" id="Layer_1" xmlns:x="&ns_extend;" xmlns:i="&ns_ai;" xmlns:graph="&ns_graphs;"
	 xmlns="http://www.w3.org/2000/svg" xmlns:xlink="http://www.w3.org/1999/xlink" x="0px" y="0px" width="500px" height="500px"
	 viewBox="0 0 500 500" style="enable-background:new 0 0 500 500;" xml:space="preserve">
<style type="text/css">
	.st0{fill:#FF6600;}
	.st1{fill:#FFFFFF;}
</style>
<metadata>
	<sfw  xmlns="&ns_sfw;">
		<slices></slices>
		<sliceSourceBounds  bottomLeftOrigin="true" height="500" width="500" x="520" y="-500"></sliceSourceBounds>
	</sfw>
</metadata>
<path class="st0" d="M0,0v500h500V0H0z M349.3234,436.0973c-30.7588,15.8522-64.2122,23.8906-99.4348,23.8906
	c-25.0061,0-49.1067-4.1023-71.6683-12.1973l-118.1387,27.834c-0.4984,0.1187-1.0023,0.1753-1.5007,0.1753
	c-1.8129,0-3.5729-0.7558-4.8271-2.1269c-1.6011-1.749-2.1306-4.2264-1.3839-6.4756l28.9222-87.1882
	c-31.6753-38.6621-49.0757-87.4858-49.0757-137.9144c0-120.147,97.7479-217.8948,217.8949-217.8948
	c72.1155,0,139.4935,35.7026,180.235,95.506c5.8568,8.7284,11.0448,17.7911,15.5612,27.1198
	c14.3748,29.4292,21.8759,61.8497,21.8759,95.269C467.7835,324.0307,422.392,398.3681,349.3234,436.0973z"/>
<g>
	<path class="st1" d="M451.7568,143.9927c-4.6611-9.6294-10.0488-19.0195-16.0381-27.9463
		c-41.9541-61.5811-111.3398-98.3462-185.6074-98.3462c-123.7314,0-224.3945,100.6631-224.3945,224.3945
		c0,50.5977,17.123,99.8926,48.29,139.2314l-27.8057,83.8223c-1.4883,4.4814-0.4316,9.4297,2.7559,12.9111
		c2.4648,2.6943,5.9727,4.2402,9.624,4.2402c1.0098,0,2.0186-0.1172,2.9912-0.3477l116.2812-27.3965
		c22.7373,7.9189,46.96,11.9326,72.0352,11.9326c36.2646,0,70.7217-8.2812,102.417-24.6152
		c75.2383-38.8496,121.9775-115.4004,121.9775-199.7783C474.2832,207.6079,466.7031,174.5996,451.7568,143.9927z M101.0273,382.7227
		c1.4248-4.29,0.4922-9.0967-2.4336-12.5479c-30.1738-35.5576-46.791-81.0449-46.791-128.0801
		c0-109.3477,88.9609-198.3086,198.3086-198.3086c64.8359,0,125.6602,31.8423,162.832,85.2134
		c0.292,0.6133,0.6289,1.2012,1.0078,1.7563c5.499,8.0366,10.4346,16.5503,14.6543,25.27l0.415,0.8682
		c12.7246,26.8643,19.1768,55.5298,19.1768,85.2007c0,5.7734-0.252,11.6104-0.749,17.3467
		c-0.1963,2.2627-0.4365,4.5674-0.7129,6.8486c-0.4141,3.3994-0.9199,6.8184-1.5039,10.166
		c-0.2354,1.3467-0.4883,2.6885-0.75,4.0254c-11.6895,59.6963-49.6475,110.0723-104.1377,138.209
		c-27.9531,14.4062-58.3867,21.7109-90.4551,21.7109c-23.3721,0-45.8271-3.9229-66.7402-11.6592
		c-2.4189-0.8965-5.0225-1.0547-7.5176-0.4639L78.3096,451.209L101.0273,382.7227z"/>
	<path class="st1" d="M243.6855,291.7275c-13.1074,0-22.6211,9.8525-22.6211,23.4268c0,13.2021,9.6104,23.1572,22.3535,23.1572
		c13.1055,0,22.6182-9.7393,22.6182-23.1572C266.0361,301.5801,256.6367,291.7275,243.6855,291.7275z"/>
	<path class="st1" d="M219.6777,177.667c5.501-4.1812,14.7988-6.9932,23.1523-7.0044c12.6553,0.2168,19.0723,5.8037,19.0723,16.606
		c0,10.2642-6.3291,19.7256-17.2988,32.6465c-13.7266,16.4702-19.9961,34.1875-18.1367,51.2451l0.9902,12.8818h33.7285
		l-0.5264-13.7354l-0.0068-0.1328c-0.7275-12.3662,3.2666-22.481,13.7969-34.9253c13.957-16.5747,24.6338-30.8501,24.6338-50.9355
		c0-22.8936-15.8838-45.9941-51.3682-45.9941c-15.6426,0-32.2236,4.7056-42.2412,11.9888l-4.0225,2.9238l11.3105,29.6919
		L219.6777,177.667z"/>
</g>
<path class="st1" d="M434.6563,153.6045c-0.0599-0.1255-0.1228-0.2498-0.1829-0.3752c-4.3716-9.0345-9.4292-17.7715-15.1576-26.1439
	c-0.28-0.4092-0.5023-0.8401-0.6782-1.2823c-38.3607-55.4352-101.2452-88.5167-168.5262-88.5167
	c-112.9319,0-204.8085,91.8765-204.8085,204.8085c0,48.5736,17.1649,95.5535,48.3345,132.2858
	c1.4769,1.7417,1.9407,4.126,1.2214,6.2931l-26.3809,79.5295l108.6434-25.5976c1.2543-0.2976,2.5632-0.2155,3.7719,0.2318
	c21.6378,8.0056,44.8529,12.064,68.9955,12.064c33.1145,0,64.5496-7.5485,93.4324-22.434
	c56.6758-29.2643,95.636-81.9481,107.539-142.7371c0.2708-1.3829,0.5322-2.7686,0.7749-4.1597
	c0.6061-3.4745,1.1241-6.9741,1.5524-10.4958c0.2855-2.3479,0.5311-4.7056,0.7363-7.0724c0.513-5.917,0.7735-11.8906,0.7735-17.9077
	c0-30.58-6.7857-60.5035-19.8024-87.9835C434.8142,153.9429,434.7374,153.7728,434.6563,153.6045z M243.4177,331.8119
	c-9.4042,0-15.8528-7.2533-15.8528-16.6575c0-9.9414,6.7161-16.9272,16.1203-16.9272s15.8506,6.9858,15.8506,16.9272
	C259.5358,324.5586,253.3569,331.8119,243.4177,331.8119z M269.4772,231.0621c-11.8206,13.9694-16.1203,25.7921-15.3134,39.4939
	l0.2675,6.9857h-20.9551l-0.5372-6.9857c-1.6116-14.5087,3.2232-30.3593,16.6575-46.4796
	c12.0902-14.2391,18.8063-24.7177,18.8063-36.8079c0-13.7018-8.5974-22.8364-25.5223-23.106c-9.674,0-20.4201,3.2253-27.1362,8.3298
	l-6.4485-16.9272c8.8671-6.4464,24.1805-10.7462,38.4195-10.7462c30.8965,0,44.868,19.076,44.868,39.4938
	C292.5833,202.5819,282.3743,215.7466,269.4772,231.0621z"/>
<path class="st0" d="M430.3464,119.706C389.6049,59.9026,322.2269,24.2,250.1114,24.2
	c-120.147,0-217.8949,97.7479-217.8949,217.8948c0,50.4285,17.4004,99.2523,49.0757,137.9144L52.37,467.1974
	c-0.7467,2.2492-0.2172,4.7266,1.3839,6.4756c1.2542,1.3711,3.0142,2.1269,4.8271,2.1269c0.4984,0,1.0023-0.0566,1.5007-0.1753
	l118.1387-27.834c22.5616,8.095,46.6622,12.1973,71.6683,12.1973c35.2226,0,68.676-8.0384,99.4348-23.8906
	c73.0686-37.7292,118.4601-112.0666,118.4601-194.0024c0-33.4194-7.5011-65.8398-21.8759-95.269
	C441.3912,137.4971,436.2032,128.4344,430.3464,119.706z M453.9236,260.0026c-0.2052,2.3668-0.4508,4.7245-0.7363,7.0724
	c-0.4283,3.5218-0.9463,7.0214-1.5524,10.4958c-0.2427,1.3912-0.5041,2.7768-0.7749,4.1597
	c-11.903,60.7889-50.8632,113.4727-107.539,142.7371c-28.8829,14.8854-60.3179,22.434-93.4324,22.434
	c-24.1426,0-47.3577-4.0585-68.9955-12.064c-1.2086-0.4473-2.5176-0.5294-3.7719-0.2318L68.4778,460.2033l26.3809-79.5295
	c0.7193-2.1671,0.2556-4.5514-1.2214-6.2931c-31.1696-36.7324-48.3345-83.7122-48.3345-132.2858
	c0-112.9319,91.8766-204.8085,204.8085-204.8085c67.2811,0,130.1655,33.0814,168.5262,88.5167
	c0.1759,0.4422,0.3981,0.873,0.6782,1.2823c5.7284,8.3724,10.7859,17.1094,15.1576,26.1439
	c0.0601,0.1254,0.123,0.2497,0.1829,0.3752c0.0811,0.1683,0.1579,0.3384,0.2385,0.5068
	c13.0167,27.48,19.8024,57.4035,19.8024,87.9835C454.6971,248.112,454.4366,254.0856,453.9236,260.0026z"/>
<path class="st0" d="M243.6852,298.2272c-9.4042,0-16.1203,6.9858-16.1203,16.9272c0,9.4042,6.4485,16.6575,15.8528,16.6575
	c9.9393,0,16.1182-7.2533,16.1182-16.6575C259.5358,305.213,253.0894,298.2272,243.6852,298.2272z"/>
<path class="st0" d="M247.7153,144.819c-14.239,0-29.5524,4.2997-38.4195,10.7462l6.4485,16.9272
	c6.7161-5.1045,17.4622-8.3298,27.1362-8.3298c16.925,0.2697,25.5223,9.4042,25.5223,23.106
	c0,12.0903-6.7161,22.5688-18.8063,36.8079c-13.4343,16.1203-18.2691,31.9709-16.6575,46.4796l0.5372,6.9857h20.9551l-0.2675-6.9857
	c-0.8069-13.7018,3.4929-25.5245,15.3134-39.4939c12.8971-15.3156,23.1061-28.4802,23.1061-46.7493
	C292.5833,163.895,278.6118,144.819,247.7153,144.819z"/>
</svg>
