<?xml version="1.0" encoding="utf-8"?>
<!-- Generator: Adobe Illustrator 27.8.1, SVG Export Plug-In . SVG Version: 6.00 Build 0)  -->
<!DOCTYPE svg PUBLIC "-//W3C//DTD SVG 1.1//EN" "http://www.w3.org/Graphics/SVG/1.1/DTD/svg11.dtd" [
	<!ENTITY ns_extend "http://ns.adobe.com/Extensibility/1.0/">
	<!ENTITY ns_ai "http://ns.adobe.com/AdobeIllustrator/10.0/">
	<!ENTITY ns_graphs "http://ns.adobe.com/Graphs/1.0/">
	<!ENTITY ns_vars "http://ns.adobe.com/Variables/1.0/">
	<!ENTITY ns_imrep "http://ns.adobe.com/ImageReplacement/1.0/">
	<!ENTITY ns_sfw "http://ns.adobe.com/SaveForWeb/1.0/">
	<!ENTITY ns_custom "http://ns.adobe.com/GenericCustomNamespace/1.0/">
	<!ENTITY ns_adobe_xpath "http://ns.adobe.com/XPath/1.0/">
]>
<svg version="1.1" id="Layer_1" xmlns:x="&ns_extend;" xmlns:i="&ns_ai;" xmlns:graph="&ns_graphs;"
	 xmlns="http://www.w3.org/2000/svg" xmlns:xlink="http://www.w3.org/1999/xlink" x="0px" y="0px" width="500px" height="500px"
	 viewBox="0 0 500 500" style="enable-background:new 0 0 500 500;" xml:space="preserve">
<style type="text/css">
	.st0{fill:#FF6600;}
	.st1{fill:#FFFFFF;}
</style>
<metadata>
	<sfw  xmlns="&ns_sfw;">
		<slices></slices>
		<sliceSourceBounds  bottomLeftOrigin="true" height="500" width="500" x="520" y="-500"></sliceSourceBounds>
	</sfw>
</metadata>
<path class="st0" d="M0,0v500h500V0H0z M325.635,484.0286c-35.2564,0-66.3092-18.3351-84.1298-45.9695h-138.66
	c-15.7236,0-28.5149-12.7913-28.5149-28.5148V76.9071c0-15.7236,12.7913-28.5162,28.5149-28.5162h88.1285v-1.7507
	c0-16.9108,13.7579-30.6688,30.6674-30.6688c16.9193,0,30.6829,13.7579,30.6829,30.6688v1.7507h89.7274
	c14.837,0,26.9076,12.0719,26.9076,26.9089v218.5343c33.5251,16.1748,56.7108,50.5096,56.7108,90.1584
	C425.6697,439.1522,380.7947,484.0286,325.635,484.0286z"/>
<g>
	<path class="st1" d="M415.3564,326.5996c-9.957-15.5156-23.6943-28.1562-39.8975-36.7588V75.2998
		c0-18.4219-14.9873-33.4092-33.4082-33.4092h-83.5283c-2.3408-18.2603-17.9883-32.4189-36.8818-32.4189
		c-18.8857,0-34.5264,14.1587-36.8652,32.4189h-81.9297c-19.3076,0-35.0156,15.7085-35.0156,35.0166v332.6367
		c0,19.3076,15.708,35.0146,35.0156,35.0146h135.1865c19.9766,28.8516,52.4609,45.9697,87.6025,45.9697
		c58.7441,0,106.5352-47.792,106.5352-106.5361C432.1699,363.585,426.3564,343.7383,415.3564,326.5996z M353.1621,402.9746
		l19.2529-8.499c2.7705-1.2256,4.8906-3.4629,6.0029-6.1631v21.3174l-41.2471,16.6143v-31.6572
		c0.5791,3.0527,2.3701,5.7617,5.0342,7.499C345.4316,404.1904,349.6104,404.5371,353.1621,402.9746z M272.8535,409.6299v-39.4443
		l41.2461,16.6143v39.4443L272.8535,409.6299z M257.0078,428.1191l64.29,25.8965c0.2422,0.0996,0.458,0.1719,0.6387,0.2246
		c0.374,0.127,0.7578,0.2354,1.1396,0.3223c0.1875,0.0449,0.376,0.0869,0.5801,0.1221c0.6885,0.1201,1.3359,0.1787,1.9785,0.1787
		s1.291-0.0586,1.9951-0.1807c0.1875-0.0332,0.373-0.0742,0.5557-0.1182c0.3809-0.0859,0.7598-0.1924,1.1064-0.3096l0.248-0.0645
		l64.7217-26.0703c1.3187-0.5309,2.4938-1.2847,3.4974-2.203c-14.4811,24.8164-41.3782,41.5399-72.1243,41.5399
		c-30.746,0-57.6433-16.7242-72.1242-41.5413C254.5142,426.8344,255.6892,427.5883,257.0078,428.1191z M401.3359,351.2705
		c-0.0273-0.1641-0.0576-0.3262-0.0781-0.4209c-0.1221-0.6201-0.2793-1.1885-0.4775-1.7314l-0.2168-0.541
		c-0.2002-0.4648-0.4375-0.9248-0.7227-1.4023c-0.0771-0.1289-0.1543-0.2549-0.2217-0.3574
		c-0.3496-0.54-0.7432-1.0488-1.2002-1.5479c-0.0977-0.1064-0.2002-0.21-0.3086-0.3135c-0.3574-0.3584-0.7461-0.6982-1.1562-1.0117
		c-0.0557-0.0439-0.1113-0.0869-0.168-0.1299l-0.3867-0.2793c-0.373-0.251-0.7676-0.4814-1.1934-0.6963l-0.1562-0.0977
		l-64.752-28.6348c-2.9619-1.3076-6.3613-1.3076-9.3291,0.002l-64.3477,28.4561l-0.4678,0.2148l-0.1094,0.0693
		c-0.418,0.2129-0.8018,0.4365-1.1504,0.6719l-0.4219,0.3047c-0.0508,0.0381-0.1016,0.0781-0.1523,0.1182
		c-0.4043,0.3086-0.7881,0.6436-1.1553,1.0098l-0.3438,0.3516c-0.4248,0.4639-0.8184,0.9727-1.1533,1.4902
		c-0.082,0.125-0.1592,0.251-0.2402,0.3857c-0.2822,0.4727-0.5195,0.9336-0.7197,1.3984l-0.2168,0.543
		c-0.1982,0.541-0.3535,1.1016-0.4629,1.6602c-0.0342,0.1621-0.0645,0.3242-0.0918,0.4932
		c-0.1035,0.6387-0.1533,1.2363-0.1533,1.916v64.2275c0,0.5331,0.0411,1.0582,0.1112,1.575
		c-4.9427-10.653-7.7216-22.506-7.7216-35.0018c0-46.0215,37.4414-83.4629,83.4629-83.4629
		c46.0225,0,83.4639,37.4414,83.4639,83.4629c0,12.4946-2.7784,24.3466-7.7202,34.9988c0.0699-0.5159,0.1108-1.0399,0.1108-1.572
		v-64.3174C401.4893,352.5117,401.4395,351.9141,401.3359,351.2705z M102.8457,421.4883c-6.5859,0-11.9443-5.3584-11.9443-11.9443
		V76.9072c0-6.5869,5.3584-11.9453,11.9443-11.9453h41.502v23.3975c0,6.3608,5.1748,11.5356,11.5352,11.5356h131.5312
		c6.3613,0,11.5361-5.1748,11.5361-11.5356V64.9619h43.1006c5.7002,0,10.3369,4.6377,10.3369,10.3379v205.5654
		c-8.708-2.2637-17.6719-3.4072-26.7529-3.4072c-33.2695,0-64.707,15.6943-84.8398,42.1689h-35.8213
		c-6.3613,0-11.5361,5.1748-11.5361,11.5352c0,6.3613,5.1748,11.5361,11.5361,11.5361h22.4648
		c-5.4766,13.0137-8.3379,27.1006-8.3379,41.2939c0,12.9785,2.2861,25.5498,6.8086,37.4961H102.8457z M206.6338,57.9277
		c0.6064-1.4307,0.9141-2.9453,0.9141-4.5015l-0.0029-6.7861c0-7.7734,6.3232-14.0977,14.0957-14.0977
		c7.7812,0,14.1123,6.3242,14.1123,14.0977v6.792c0,6.3608,5.1748,11.5356,11.5352,11.5356h28.5908v11.856h-108.46v-11.856h28.5908
		C200.6553,64.9678,204.8262,62.2021,206.6338,57.9277z"/>
	<path class="st1" d="M204.9736,182.7686h100.6299c6.3613,0,11.5361-5.1748,11.5361-11.5352
		c0-6.3608-5.1748-11.5356-11.5361-11.5356H204.9736c-6.3613,0-11.5361,5.1748-11.5361,11.5356
		C193.4375,177.5938,198.6123,182.7686,204.9736,182.7686z"/>
	<path class="st1" d="M204.9736,262.7344h100.6299c6.3613,0,11.5361-5.1748,11.5361-11.5361
		c0-6.3604-5.1748-11.5352-11.5361-11.5352H204.9736c-6.3613,0-11.5361,5.1748-11.5361,11.5352
		C193.4375,257.5596,198.6123,262.7344,204.9736,262.7344z"/>
	<path class="st1" d="M162.3672,136.6958h-46.0029c-6.3604,0-11.5352,5.1748-11.5352,11.5356v46.0034
		c0,6.3608,5.1748,11.5356,11.5352,11.5356h46.0029c6.3613,0,11.5361-5.1748,11.5361-11.5356v-46.0034
		C173.9033,141.8706,168.7285,136.6958,162.3672,136.6958z M127.9004,182.6992v-22.9321h22.9316v22.9321H127.9004z"/>
	<path class="st1" d="M162.3672,216.6611h-46.0029c-6.3604,0-11.5352,5.1748-11.5352,11.5356v46.0015
		c0,6.3613,5.1748,11.5361,11.5352,11.5361h46.0029c6.3613,0,11.5361-5.1748,11.5361-11.5361v-46.0015
		C173.9033,221.8359,168.7285,216.6611,162.3672,216.6611z M127.9004,262.6631v-22.9307h22.9316v22.9307H127.9004z"/>
	<path class="st1" d="M162.3672,296.627h-46.0029c-6.3604,0-11.5352,5.1748-11.5352,11.5352v46.002
		c0,6.3604,5.1748,11.5352,11.5352,11.5352h46.0029c6.3613,0,11.5361-5.1748,11.5361-11.5352v-46.002
		C173.9033,301.8018,168.7285,296.627,162.3672,296.627z M127.9004,342.6279v-22.9297h22.9316v22.9297H127.9004z"/>
</g>
<path class="st1" d="M237.7764,336.1979h-32.803c-2.7805,0-5.0356-2.255-5.0356-5.0356c0-2.7805,2.2551-5.0356,5.0356-5.0356
	h37.3777c0.5414,0,1.053,0.1078,1.5419,0.2661c18.129-25.6519,48.0112-42.4349,81.7421-42.4349
	c11.653,0,22.8438,2.0097,33.2526,5.6891V75.2998c0-9.2844-7.5533-16.8378-16.8364-16.8378h-49.6014v29.8974
	c0,2.7806-2.2551,5.0356-5.0356,5.0356h-131.531c-2.7805,0-5.0356-2.255-5.0356-5.0356V58.462h-48.0025
	c-10.1696,0-18.4437,8.2742-18.4437,18.4451v332.6371c0,10.1695,8.2741,18.4437,18.4437,18.4437h132.9653
	c-6.5333-13.2852-10.2101-28.2181-10.2101-43.9954C225.6004,366.6934,230.0159,350.4069,237.7764,336.1979z M204.9733,166.1976
	h100.6304c2.7805,0,5.0356,2.2551,5.0356,5.0356s-2.2551,5.0356-5.0356,5.0356H204.9733c-2.7805,0-5.0356-2.2551-5.0356-5.0356
	S202.1928,166.1976,204.9733,166.1976z M204.9733,246.1629h100.6304c2.7805,0,5.0356,2.255,5.0356,5.0356
	c0,2.7805-2.2551,5.0356-5.0356,5.0356H204.9733c-2.7805,0-5.0356-2.2551-5.0356-5.0356
	C199.9377,248.4179,202.1928,246.1629,204.9733,246.1629z M167.4031,354.1639c0,2.7806-2.2551,5.0356-5.0356,5.0356h-46.0032
	c-2.7805,0-5.0356-2.255-5.0356-5.0356v-46.0018c0-2.7805,2.2551-5.0356,5.0356-5.0356h46.0032
	c2.7805,0,5.0356,2.2551,5.0356,5.0356V354.1639z M167.4031,274.1987c0,2.7805-2.2551,5.0356-5.0356,5.0356h-46.0032
	c-2.7805,0-5.0356-2.2551-5.0356-5.0356v-46.0018c0-2.7806,2.2551-5.0356,5.0356-5.0356h46.0032
	c2.7805,0,5.0356,2.255,5.0356,5.0356V274.1987z M167.4031,194.2347c0,2.7805-2.2551,5.0356-5.0356,5.0356h-46.0032
	c-2.7805,0-5.0356-2.2551-5.0356-5.0356v-46.0032c0-2.7805,2.2551-5.0356,5.0356-5.0356h46.0032
	c2.7805,0,5.0356,2.2551,5.0356,5.0356V194.2347z"/>
<polygon class="st1" points="355.1738,361.6836 304.2042,339.6423 297.9022,342.4293 348.5751,364.3417 "/>
<polygon class="st1" points="266.353,414.0192 320.5994,435.8701 320.5994,382.4105 266.353,360.5596 "/>
<polygon class="st0" points="362.7149,380.6429 362.7149,369.5032 353.5388,373.1993 353.5388,384.6937 "/>
<rect x="121.3999" y="313.1978" class="st1" width="35.932" height="35.9305"/>
<rect x="121.3999" y="233.2325" class="st1" width="35.932" height="35.9305"/>
<path class="st1" d="M282.3787,58.4677h-35.0903c-2.7806,0-5.0356-2.2551-5.0356-5.0356v-6.7919
	c0-11.3582-9.2465-20.5976-20.6117-20.5976c-11.3568,0-20.5962,9.2394-20.5962,20.5976v6.7584
	c0.0001,0.0095,0.0028,0.0183,0.0028,0.0278c0,0.697-0.1422,1.3607-0.3983,1.9644c-0.7643,1.8078-2.5543,3.0768-4.6401,3.0768
	h-35.0903v24.8562h121.4597V58.4677z"/>
<rect x="121.3999" y="153.2672" class="st1" width="35.932" height="35.932"/>
<path class="st1" d="M325.635,294.0291c-49.6056,0-89.9634,40.3578-89.9634,89.9634c0,49.607,40.3578,89.9648,89.9634,89.9648
	c49.6057,0,89.9634-40.3578,89.9634-89.9648C415.5984,334.3869,375.2407,294.0291,325.635,294.0291z M392.0737,348.543
	c0.2401,0.1115,0.4756,0.2352,0.6988,0.3859c0.0203,0.0137,0.0376,0.0304,0.0576,0.0443c0.0488,0.034,0.0925,0.0721,0.1399,0.1075
	c0.2021,0.1516,0.3909,0.3161,0.5657,0.4937c0.0396,0.0402,0.082,0.0771,0.1201,0.1185c0.19,0.2062,0.3585,0.4287,0.5106,0.662
	c0.035,0.0538,0.0671,0.1083,0.0999,0.1633c0.1459,0.2436,0.278,0.4951,0.3809,0.7602c0.0012,0.003,0.0028,0.0058,0.004,0.0088
	c0.1025,0.2656,0.1746,0.5427,0.2311,0.824c0.0133,0.0657,0.0261,0.1307,0.0368,0.197c0.0417,0.2609,0.0706,0.5248,0.0706,0.7935
	v0.0766c-0.0001,0.0043,0.0001,0.0084,0,0.0128v64.2283c0,2.0541-1.2476,3.9031-3.1542,4.6703l-64.319,25.9086
	c-0.0484,0.0195-0.0995,0.0258-0.1483,0.0438c-0.2039,0.0749-0.4105,0.1355-0.6212,0.1833c-0.0828,0.0189-0.164,0.041-0.2473,0.0556
	c-0.2858,0.0499-0.5742,0.0826-0.8646,0.0826s-0.5787-0.0328-0.8645-0.0826c-0.0833-0.0146-0.1646-0.0368-0.2474-0.0556
	c-0.2106-0.0478-0.4172-0.1084-0.6211-0.1833c-0.0488-0.0179-0.0999-0.0243-0.1483-0.0438l-64.3176-25.9086
	c-1.9066-0.7672-3.1542-2.6161-3.1542-4.6703v-64.2283c-0.0001-0.0043,0.0001-0.0084,0-0.0128v-0.0766
	c0-0.2687,0.0289-0.5326,0.0706-0.7935c0.0107-0.0663,0.0235-0.1313,0.0368-0.197c0.0565-0.2814,0.1285-0.5585,0.2311-0.824
	c0.0012-0.003,0.0028-0.0058,0.004-0.0088c0.103-0.2651,0.235-0.5166,0.3809-0.7602c0.0328-0.055,0.0649-0.1096,0.0999-0.1633
	c0.1521-0.2333,0.3206-0.4558,0.5106-0.662c0.038-0.0414,0.0805-0.0783,0.1201-0.1185c0.1749-0.1776,0.3636-0.3421,0.5657-0.4937
	c0.0474-0.0355,0.0911-0.0735,0.1399-0.1075c0.02-0.0139,0.0374-0.0306,0.0576-0.0443c0.2243-0.1516,0.461-0.276,0.7025-0.3879
	c0.0279-0.0129,0.0505-0.0323,0.0787-0.0448l64.3176-28.4432c1.2982-0.5732,2.7763-0.5732,4.0745,0l64.319,28.4432
	C392.0209,348.5092,392.0446,348.5294,392.0737,348.543z"/>
<polygon class="st1" points="285.3555,347.9778 274.2571,352.886 325.6351,373.5822 335.437,369.6339 "/>
<polygon class="st1" points="316.7506,334.0938 368.3118,356.3915 377.0142,352.886 325.635,330.1648 "/>
<path class="st1" d="M372.7861,383.9237c0,1.9951-1.1774,3.8005-3.0012,4.6071l-19.2474,8.4976
	c-0.6505,0.2866-1.3446,0.4285-2.0344,0.4285c-0.9625,0-1.9193-0.2754-2.7496-0.8163c-1.4261-0.9301-2.286-2.5164-2.286-4.2192
	v-15.1653l-12.7969,5.1545v53.4597l54.2478-21.8509v-53.4596l-12.1323,4.8868V383.9237z"/>
<g>
	<path class="st0" d="M368.9589,293.8341V75.2998c0-14.837-12.0706-26.9089-26.9076-26.9089h-89.7274v-1.7507
		c0-16.9108-13.7636-30.6688-30.6829-30.6688c-16.9094,0-30.6674,13.7579-30.6674,30.6688v1.7507h-88.1285
		c-15.7236,0-28.5149,12.7927-28.5149,28.5162v332.6371c0,15.7236,12.7913,28.5148,28.5149,28.5148h138.66
		c17.8206,27.6343,48.8734,45.9695,84.1298,45.9695c55.1597,0,100.0347-44.8763,100.0347-100.036
		C425.6697,344.3438,402.4839,310.0089,368.9589,293.8341z M160.9189,58.4677h35.0903c2.0858,0,3.8757-1.269,4.6401-3.0768
		c0.2562-0.6037,0.3983-1.2675,0.3983-1.9644c0-0.0095-0.0027-0.0183-0.0028-0.0278v-6.7584
		c0-11.3582,9.2394-20.5976,20.5962-20.5976c11.3652,0,20.6117,9.2394,20.6117,20.5976v6.7919c0,2.7805,2.255,5.0356,5.0356,5.0356
		h35.0903v24.8562H160.9189V58.4677z M102.8452,427.9879c-10.1696,0-18.4437-8.2742-18.4437-18.4437V76.9071
		c0-10.1709,8.2741-18.4451,18.4437-18.4451h48.0025v29.8974c0,2.7806,2.2551,5.0356,5.0356,5.0356h131.531
		c2.7805,0,5.0356-2.255,5.0356-5.0356V58.462h49.6014c9.283,0,16.8364,7.5534,16.8364,16.8378V289.647
		c-10.4088-3.6794-21.5996-5.6891-33.2526-5.6891c-33.7309,0-63.613,16.783-81.7421,42.4349
		c-0.4888-0.1583-1.0004-0.2661-1.5419-0.2661h-37.3777c-2.7805,0-5.0356,2.2551-5.0356,5.0356
		c0,2.7806,2.2551,5.0356,5.0356,5.0356h32.803c-7.7605,14.209-12.176,30.4955-12.176,47.7946
		c0,15.7773,3.6768,30.7102,10.2101,43.9954H102.8452z M325.635,473.9574c-49.6056,0-89.9634-40.3578-89.9634-89.9648
		c0-49.6057,40.3578-89.9634,89.9634-89.9634c49.6057,0,89.9634,40.3578,89.9634,89.9634
		C415.5984,433.5995,375.2407,473.9574,325.635,473.9574z"/>
	<path class="st0" d="M204.9733,176.2687h100.6304c2.7805,0,5.0356-2.2551,5.0356-5.0356s-2.2551-5.0356-5.0356-5.0356H204.9733
		c-2.7805,0-5.0356,2.2551-5.0356,5.0356S202.1928,176.2687,204.9733,176.2687z"/>
	<path class="st0" d="M204.9733,256.2341h100.6304c2.7805,0,5.0356-2.2551,5.0356-5.0356c0-2.7806-2.2551-5.0356-5.0356-5.0356
		H204.9733c-2.7805,0-5.0356,2.255-5.0356,5.0356C199.9377,253.979,202.1928,256.2341,204.9733,256.2341z"/>
	<path class="st0" d="M162.3675,143.196h-46.0032c-2.7805,0-5.0356,2.2551-5.0356,5.0356v46.0032
		c0,2.7805,2.2551,5.0356,5.0356,5.0356h46.0032c2.7805,0,5.0356-2.2551,5.0356-5.0356v-46.0032
		C167.4031,145.451,165.148,143.196,162.3675,143.196z M157.3319,189.1992h-35.932v-35.932h35.932V189.1992z"/>
	<path class="st0" d="M162.3675,223.1613h-46.0032c-2.7805,0-5.0356,2.255-5.0356,5.0356v46.0018
		c0,2.7805,2.2551,5.0356,5.0356,5.0356h46.0032c2.7805,0,5.0356-2.2551,5.0356-5.0356v-46.0018
		C167.4031,225.4163,165.148,223.1613,162.3675,223.1613z M157.3319,269.163h-35.932v-35.9305h35.932V269.163z"/>
	<path class="st0" d="M162.3675,303.1266h-46.0032c-2.7805,0-5.0356,2.2551-5.0356,5.0356v46.0018
		c0,2.7806,2.2551,5.0356,5.0356,5.0356h46.0032c2.7805,0,5.0356-2.255,5.0356-5.0356v-46.0018
		C167.4031,305.3817,165.148,303.1266,162.3675,303.1266z M157.3319,349.1284h-35.932v-35.9305h35.932V349.1284z"/>
	<path class="st0" d="M323.5978,320.0529l-64.3176,28.4432c-0.0283,0.0125-0.0508,0.0319-0.0787,0.0448
		c-0.2415,0.1119-0.4781,0.2364-0.7025,0.3879c-0.0203,0.0137-0.0376,0.0304-0.0576,0.0443
		c-0.0488,0.034-0.0925,0.0721-0.1399,0.1075c-0.2021,0.1516-0.3909,0.3161-0.5657,0.4937
		c-0.0396,0.0402-0.082,0.0771-0.1201,0.1185c-0.19,0.2062-0.3585,0.4287-0.5106,0.662c-0.035,0.0538-0.0671,0.1083-0.0999,0.1633
		c-0.1459,0.2436-0.278,0.4951-0.3809,0.7602c-0.0012,0.003-0.0028,0.0058-0.004,0.0088c-0.1025,0.2656-0.1746,0.5427-0.2311,0.824
		c-0.0133,0.0657-0.0261,0.1307-0.0368,0.197c-0.0417,0.2609-0.0706,0.5248-0.0706,0.7935v0.0766
		c0.0001,0.0043-0.0001,0.0084,0,0.0128v64.2283c0,2.0541,1.2476,3.9031,3.1542,4.6703l64.3176,25.9086
		c0.0484,0.0195,0.0995,0.0258,0.1483,0.0438c0.2039,0.0749,0.4105,0.1355,0.6211,0.1833c0.0828,0.0188,0.1641,0.041,0.2474,0.0556
		c0.2858,0.0499,0.5742,0.0826,0.8645,0.0826s0.5787-0.0328,0.8646-0.0826c0.0833-0.0146,0.1646-0.0367,0.2473-0.0556
		c0.2107-0.0478,0.4174-0.1084,0.6212-0.1833c0.0488-0.0179,0.0999-0.0243,0.1483-0.0438l64.319-25.9086
		c1.9066-0.7672,3.1542-2.6161,3.1542-4.6703v-64.2283c0.0001-0.0043-0.0001-0.0084,0-0.0128v-0.0766
		c0-0.2687-0.0289-0.5326-0.0706-0.7935c-0.0107-0.0663-0.0235-0.1313-0.0368-0.197c-0.0565-0.2814-0.1285-0.5585-0.2311-0.824
		c-0.0012-0.003-0.0028-0.0058-0.004-0.0088c-0.103-0.2651-0.235-0.5166-0.3809-0.7602c-0.0328-0.055-0.0649-0.1096-0.0999-0.1633
		c-0.1521-0.2333-0.3206-0.4558-0.5106-0.662c-0.038-0.0414-0.0805-0.0783-0.1201-0.1185
		c-0.1749-0.1776-0.3636-0.3421-0.5657-0.4937c-0.0474-0.0355-0.0911-0.0735-0.1399-0.1075
		c-0.02-0.0139-0.0374-0.0306-0.0576-0.0443c-0.2232-0.1506-0.4587-0.2744-0.6988-0.3859
		c-0.0292-0.0135-0.0529-0.0338-0.0824-0.0469l-64.319-28.4432C326.3741,319.4796,324.896,319.4796,323.5978,320.0529z
		 M304.2042,339.6423l50.9695,22.0413l-6.5987,2.6581l-50.6729-21.9124L304.2042,339.6423z M362.7149,369.5032v11.1398
		l-9.1761,4.0507v-11.4944L362.7149,369.5032z M320.5994,435.8701l-54.2464-21.8509v-53.4596l54.2464,21.8508V435.8701z
		 M325.6351,373.5822l-51.378-20.6962l11.0984-4.9081l50.0814,21.656L325.6351,373.5822z M384.9185,414.0192l-54.2478,21.8509
		v-53.4597l12.7969-5.1545v15.1653c0,1.7029,0.8599,3.2891,2.286,4.2192c0.8303,0.541,1.7872,0.8163,2.7496,0.8163
		c0.6898,0,1.3839-0.1419,2.0344-0.4285l19.2474-8.4976c1.8237-0.8065,3.0012-2.6119,3.0012-4.6071v-18.4772l12.1323-4.8868
		V414.0192z M368.3118,356.3915l-51.5612-22.2977l8.8844-3.929l51.3792,22.7212L368.3118,356.3915z"/>
</g>
</svg>
