<?xml version="1.0" encoding="utf-8"?>
<!-- Generator: Adobe Illustrator 27.8.1, SVG Export Plug-In . SVG Version: 6.00 Build 0)  -->
<!DOCTYPE svg PUBLIC "-//W3C//DTD SVG 1.1//EN" "http://www.w3.org/Graphics/SVG/1.1/DTD/svg11.dtd" [
	<!ENTITY ns_extend "http://ns.adobe.com/Extensibility/1.0/">
	<!ENTITY ns_ai "http://ns.adobe.com/AdobeIllustrator/10.0/">
	<!ENTITY ns_graphs "http://ns.adobe.com/Graphs/1.0/">
	<!ENTITY ns_vars "http://ns.adobe.com/Variables/1.0/">
	<!ENTITY ns_imrep "http://ns.adobe.com/ImageReplacement/1.0/">
	<!ENTITY ns_sfw "http://ns.adobe.com/SaveForWeb/1.0/">
	<!ENTITY ns_custom "http://ns.adobe.com/GenericCustomNamespace/1.0/">
	<!ENTITY ns_adobe_xpath "http://ns.adobe.com/XPath/1.0/">
]>
<svg version="1.1" id="Layer_1" xmlns:x="&ns_extend;" xmlns:i="&ns_ai;" xmlns:graph="&ns_graphs;"
	 xmlns="http://www.w3.org/2000/svg" xmlns:xlink="http://www.w3.org/1999/xlink" x="0px" y="0px" width="500px" height="500px"
	 viewBox="0 0 500 500" style="enable-background:new 0 0 500 500;" xml:space="preserve">
<style type="text/css">
	.st0{fill:#FF6600;}
	.st1{fill:#FFFFFF;}
</style>
<metadata>
	<sfw  xmlns="&ns_sfw;">
		<slices></slices>
		<sliceSourceBounds  bottomLeftOrigin="true" height="500" width="500" x="520" y="-500"></sliceSourceBounds>
	</sfw>
</metadata>
<path class="st0" d="M0,0v500h500V0H0z M448.7268,315.7153l-52.252,20.1446v55.6744c0,22.0773-17.9615,40.0371-40.0388,40.0371
	H61.4613c-22.0773,0-40.0388-17.9598-40.0388-40.0371V209.9621c0-22.0773,17.9615-40.0388,40.0388-40.0388h38.0588L354.598,71.579
	c11.621-4.4858,24.2986-4.1722,35.6873,0.8826c11.3854,5.0515,20.1181,14.2388,24.589,25.8664l3.9882,10.3426
	c0.0126,0.031,0.0327,0.0576,0.0447,0.0889l7.837,20.3513l48.705,126.3083C484.7062,279.4075,472.7186,306.4567,448.7268,315.7153z"
	/>
<g>
	<path class="st1" d="M96.1387,296.5117h30.6719c19.8691,0,36.0342-16.165,36.0342-36.0342v-9.125
		c0-19.8691-16.165-36.0337-36.0342-36.0337H96.1387c-19.8691,0-36.0342,16.1646-36.0342,36.0337v9.125
		C60.1045,280.3467,76.2695,296.5117,96.1387,296.5117z M137.9541,260.4775c0,6.1436-4.999,11.1426-11.1436,11.1426H96.1387
		c-6.1445,0-11.1436-4.999-11.1436-11.1426v-9.125c0-6.144,4.999-11.1426,11.1436-11.1426h30.6719
		c6.1445,0,11.1436,4.9985,11.1436,11.1426V260.4775z"/>
	<path class="st1" d="M72.5498,328.4863h10.1924c4.0267,0,7.6021-1.9302,9.8784-4.9048c2.2763,2.9746,5.8517,4.9048,9.8784,4.9048
		h19.7578c4.0264,0,7.6017-1.9304,9.878-4.9054c2.2764,2.975,5.8519,4.9054,9.8788,4.9054h19.7578
		c4.0269,0,7.6027-1.931,9.8789-4.9067c2.2762,2.9756,5.852,4.9067,9.8789,4.9067h19.7568c4.0269,0,7.6027-1.931,9.8789-4.9067
		c2.2762,2.9756,5.852,4.9067,9.8789,4.9067h19.7588c4.0264,0,7.6017-1.9304,9.8779-4.9053
		c2.2762,2.9749,5.8516,4.9053,9.8779,4.9053h19.7578c4.0273,0,7.6031-1.9308,9.8794-4.9061
		c2.2763,2.9753,5.8521,4.9061,9.8794,4.9061h10.1924c6.8623,0,12.4453-5.583,12.4453-12.4463
		c0-6.8623-5.583-12.4453-12.4453-12.4453h-10.1924c-4.0273,0-7.6031,1.9308-9.8794,4.9059
		c-2.2763-2.9751-5.8521-4.9059-9.8794-4.9059h-19.7578c-4.0264,0-7.6017,1.9304-9.8779,4.9052
		c-2.2762-2.9747-5.8516-4.9052-9.8779-4.9052h-19.7588c-4.0269,0-7.6027,1.931-9.8789,4.9064
		c-2.2762-2.9755-5.852-4.9064-9.8789-4.9064h-19.7568c-4.0269,0-7.6027,1.931-9.8789,4.9064
		c-2.2762-2.9755-5.852-4.9064-9.8789-4.9064h-19.7578c-4.027,0-7.6025,1.9305-9.8788,4.9052
		c-2.2762-2.9747-5.8516-4.9052-9.878-4.9052H102.499c-4.0267,0-7.6021,1.9302-9.8784,4.9046
		c-2.2763-2.9744-5.8517-4.9046-9.8784-4.9046H72.5498c-6.8623,0-12.4453,5.583-12.4453,12.4453
		C60.1045,322.9033,65.6875,328.4863,72.5498,328.4863z"/>
	<path class="st1" d="M72.5498,360.459h13.5898c6.8633,0,12.4463-5.583,12.4463-12.4453c0-6.8633-5.583-12.4463-12.4463-12.4463
		H72.5498c-6.8623,0-12.4453,5.583-12.4453,12.4463C60.1045,354.876,65.6875,360.459,72.5498,360.459z"/>
	<path class="st1" d="M116.2168,335.5674c-6.8623,0-12.4453,5.583-12.4453,12.4463c0,6.8623,5.583,12.4453,12.4453,12.4453h30.0762
		c6.8633,0,12.4463-5.583,12.4463-12.4453c0-6.8633-5.583-12.4463-12.4463-12.4463H116.2168z"/>
	<path class="st1" d="M176.3701,335.5674c-6.8623,0-12.4453,5.583-12.4453,12.4463c0,6.8623,5.583,12.4453,12.4453,12.4453h30.0771
		c6.8623,0,12.4453-5.583,12.4453-12.4453c0-6.8633-5.583-12.4463-12.4453-12.4463H176.3701z"/>
	<path class="st1" d="M236.5234,335.5674c-6.8623,0-12.4453,5.583-12.4453,12.4463c0,6.8623,5.583,12.4453,12.4453,12.4453h30.0771
		c6.8623,0,12.4453-5.583,12.4453-12.4453c0-6.8633-5.583-12.4463-12.4453-12.4463H236.5234z"/>
	<path class="st1" d="M310.2676,335.5674h-13.5898c-6.8633,0-12.4463,5.583-12.4463,12.4463c0,6.8623,5.583,12.4453,12.4463,12.4453
		h13.5898c6.8623,0,12.4453-5.583,12.4453-12.4453C322.7129,341.1504,317.1299,335.5674,310.2676,335.5674z"/>
	<path class="st1" d="M72.5498,386.1777h241.1934c6.8623,0,12.4453-5.583,12.4453-12.4453c0-6.8633-5.583-12.4463-12.4453-12.4463
		H72.5498c-6.8623,0-12.4453,5.583-12.4453,12.4463C60.1045,380.5947,65.6875,386.1777,72.5498,386.1777z"/>
	<path class="st1" d="M481.5137,253.0791L420.9414,95.9956c-5.0947-13.251-15.0459-23.7192-28.0195-29.4751
		c-12.9785-5.7603-27.4209-6.1191-40.6621-1.0063L98.3105,163.4233H61.4609c-25.6611,0-46.5381,20.877-46.5381,46.5386v181.5723
		c0,25.6602,20.877,46.5371,46.5381,46.5371h294.9756c25.6611,0,46.5381-20.877,46.5381-46.5371v-51.2148l48.0918-18.54
		c13.2236-5.1025,23.6758-15.0664,29.4326-28.0547C486.2549,280.7354,486.6152,266.3008,481.5137,253.0791z M402.9746,313.6436
		V209.9619c0-9.4028-2.9111-18.5928-8.1797-26.2891l28.9717-11.1665l34.5234,89.5327c2.7109,7.0244,2.5186,14.6963-0.543,21.6035
		c-3.0605,6.9062-8.6133,12.2021-15.6367,14.9131L402.9746,313.6436z M39.8135,209.9619c0-11.9365,9.7109-21.6475,21.6475-21.6475
		h38.7725c0.2021,0.0059,0.4043,0.0044,0.6045,0h255.5986c11.9365,0,21.6475,9.7109,21.6475,21.6475v181.5723
		c0,11.9355-9.7109,21.6455-21.6475,21.6455H61.4609c-11.9365,0-21.6475-9.71-21.6475-21.6455V209.9619z M382.8242,89.2705
		c6.5049,2.8877,11.582,8.0083,14.4111,14.5034l-154.7148,59.6494h-75.0176l193.7109-74.6841l0.0049-0.0015
		C368.249,86.0195,375.9248,86.2104,382.8242,89.2705z M356.4365,163.4233h-44.7227l94.501-36.4341l8.5889,22.2944l-43.2451,16.6694
		C366.6934,164.2734,361.6191,163.4233,356.4365,163.4233z"/>
</g>
<path class="st1" d="M405.6633,107.4909l-1.8841-4.8862c-3.3345-8.6696-9.8376-15.5112-18.3182-19.2753
	c-8.4855-3.7642-17.9266-3.9997-26.5847-0.6553l-226.3018,87.2492h111.1561L405.6633,107.4909z"/>
<path class="st1" d="M356.4361,181.8147H244.7062c-0.0294-0.0006-0.0589,0.001-0.0882,0H100.7543
	c-0.1379,0.0035-0.2756,0.0061-0.4124,0H61.4613c-15.5211,0-28.1474,12.6263-28.1474,28.1474v181.5722
	c0,15.5195,12.6263,28.1458,28.1474,28.1458h294.9748c15.5211,0,28.1474-12.6263,28.1474-28.1458V209.9621
	C384.5835,194.441,371.9572,181.8147,356.4361,181.8147z M300.0749,310.0947h10.1926c3.2831,0,5.9457,2.6626,5.9457,5.9457
	s-2.6626,5.9457-5.9457,5.9457h-10.1926c-3.2831,0-5.9457-2.6626-5.9457-5.9457S296.7918,310.0947,300.0749,310.0947z
	 M296.6774,342.0677h13.5901c3.2831,0,5.9457,2.6626,5.9457,5.9457s-2.6626,5.9457-5.9457,5.9457h-13.5901
	c-3.2831,0-5.9457-2.6626-5.9457-5.9457S293.3943,342.0677,296.6774,342.0677z M260.5587,310.0947h19.7581
	c3.2831,0,5.9457,2.6626,5.9457,5.9457s-2.6626,5.9457-5.9457,5.9457h-19.7581c-3.2831,0-5.9457-2.6626-5.9457-5.9457
	S257.2756,310.0947,260.5587,310.0947z M272.5463,348.0134c0,3.2831-2.6627,5.9457-5.9457,5.9457h-30.0768
	c-3.2831,0-5.9457-2.6626-5.9457-5.9457s2.6626-5.9457,5.9457-5.9457h30.0768
	C269.8836,342.0677,272.5463,344.7303,272.5463,348.0134z M221.0441,310.0947h19.7581c3.283,0,5.9457,2.6626,5.9457,5.9457
	s-2.6627,5.9457-5.9457,5.9457h-19.7581c-3.2831,0-5.9457-2.6626-5.9457-5.9457S217.761,310.0947,221.0441,310.0947z
	 M181.5295,310.0947h19.7565c3.2831,0,5.9457,2.6626,5.9457,5.9457s-2.6626,5.9457-5.9457,5.9457h-19.7565
	c-3.283,0-5.9457-2.6626-5.9457-5.9457S178.2465,310.0947,181.5295,310.0947z M176.3702,342.0677h30.0768
	c3.283,0,5.9457,2.6626,5.9457,5.9457s-2.6627,5.9457-5.9457,5.9457h-30.0768c-3.2831,0-5.9457-2.6626-5.9457-5.9457
	S173.0872,342.0677,176.3702,342.0677z M167.7172,316.0404c0,3.2831-2.6627,5.9457-5.9457,5.9457h-19.7581
	c-3.2831,0-5.9457-2.6626-5.9457-5.9457s2.6626-5.9457,5.9457-5.9457h19.7581
	C165.0545,310.0947,167.7172,312.7573,167.7172,316.0404z M116.2167,342.0677h30.0768c3.283,0,5.9457,2.6626,5.9457,5.9457
	s-2.6627,5.9457-5.9457,5.9457h-30.0768c-3.2831,0-5.9457-2.6626-5.9457-5.9457S112.9336,342.0677,116.2167,342.0677z
	 M102.4988,321.9861c-3.283,0-5.9457-2.6626-5.9457-5.9457s2.6627-5.9457,5.9457-5.9457h19.7581
	c3.2831,0,5.9457,2.6626,5.9457,5.9457s-2.6626,5.9457-5.9457,5.9457H102.4988z M66.6041,251.353
	c0-16.2859,13.2484-29.5343,29.5343-29.5343h30.6724c16.2859,0,29.5343,13.2484,29.5343,29.5343v9.1242
	c0,16.2859-13.2484,29.5343-29.5343,29.5343H96.1384c-16.2859,0-29.5343-13.2484-29.5343-29.5343V251.353z M72.5497,310.0947
	h10.1926c3.283,0,5.9457,2.6626,5.9457,5.9457s-2.6627,5.9457-5.9457,5.9457H72.5497c-3.2831,0-5.9457-2.6626-5.9457-5.9457
	S69.2667,310.0947,72.5497,310.0947z M72.5497,342.0677h13.5901c3.2831,0,5.9457,2.6626,5.9457,5.9457s-2.6626,5.9457-5.9457,5.9457
	H72.5497c-3.2831,0-5.9457-2.6626-5.9457-5.9457S69.2667,342.0677,72.5497,342.0677z M313.743,379.6778H72.5497
	c-3.2831,0-5.9457-2.6627-5.9457-5.9457c0-3.2831,2.6626-5.9457,5.9457-5.9457H313.743c3.2831,0,5.9457,2.6626,5.9457,5.9457
	C319.6887,377.0151,317.0261,379.6778,313.743,379.6778z"/>
<path class="st1" d="M96.1384,278.1201h30.6724c9.7281,0,17.6429-7.9149,17.6429-17.6429v-9.1242
	c0-9.7281-7.9149-17.6429-17.6429-17.6429H96.1384c-9.7281,0-17.6429,7.9149-17.6429,17.6429v9.1242
	C78.4954,270.2053,86.4103,278.1201,96.1384,278.1201z"/>
<path class="st1" d="M427.493,164.1038l-43.5646,16.7913c7.7173,7.3031,12.5465,17.6286,12.5465,29.067v113.1537l47.9735-18.4957
	c17.8719-6.8962,26.8037-27.0475,19.9058-44.9211L427.493,164.1038z"/>
<path class="st1" d="M356.4361,169.9233c5.3599,0,10.4733,1.0663,15.1498,2.9855l51.6196-19.8969l-8.1933-21.2757l-5.0707-13.1503
	l-133.1562,51.3373H356.4361z"/>
<g>
	<path class="st0" d="M96.1384,290.0115h30.6724c16.2859,0,29.5343-13.2484,29.5343-29.5343v-9.1242
		c0-16.2859-13.2484-29.5343-29.5343-29.5343H96.1384c-16.2859,0-29.5343,13.2484-29.5343,29.5343v9.1242
		C66.6041,276.7631,79.8525,290.0115,96.1384,290.0115z M78.4954,251.353c0-9.7281,7.9149-17.6429,17.6429-17.6429h30.6724
		c9.7281,0,17.6429,7.9149,17.6429,17.6429v9.1242c0,9.7281-7.9149,17.6429-17.6429,17.6429H96.1384
		c-9.7281,0-17.6429-7.9149-17.6429-17.6429V251.353z"/>
	<path class="st0" d="M72.5497,321.9861h10.1926c3.283,0,5.9457-2.6626,5.9457-5.9457s-2.6627-5.9457-5.9457-5.9457H72.5497
		c-3.2831,0-5.9457,2.6626-5.9457,5.9457S69.2667,321.9861,72.5497,321.9861z"/>
	<path class="st0" d="M181.5295,321.9861h19.7565c3.2831,0,5.9457-2.6626,5.9457-5.9457s-2.6626-5.9457-5.9457-5.9457h-19.7565
		c-3.283,0-5.9457,2.6626-5.9457,5.9457S178.2465,321.9861,181.5295,321.9861z"/>
	<path class="st0" d="M221.0441,321.9861h19.7581c3.283,0,5.9457-2.6626,5.9457-5.9457s-2.6627-5.9457-5.9457-5.9457h-19.7581
		c-3.2831,0-5.9457,2.6626-5.9457,5.9457S217.761,321.9861,221.0441,321.9861z"/>
	<path class="st0" d="M260.5587,321.9861h19.7581c3.2831,0,5.9457-2.6626,5.9457-5.9457s-2.6626-5.9457-5.9457-5.9457h-19.7581
		c-3.2831,0-5.9457,2.6626-5.9457,5.9457S257.2756,321.9861,260.5587,321.9861z"/>
	<path class="st0" d="M128.2026,316.0404c0-3.2831-2.6626-5.9457-5.9457-5.9457h-19.7581c-3.283,0-5.9457,2.6626-5.9457,5.9457
		s2.6627,5.9457,5.9457,5.9457h19.7581C125.54,321.9861,128.2026,319.3235,128.2026,316.0404z"/>
	<path class="st0" d="M136.0677,316.0404c0,3.2831,2.6626,5.9457,5.9457,5.9457h19.7581c3.283,0,5.9457-2.6626,5.9457-5.9457
		s-2.6627-5.9457-5.9457-5.9457h-19.7581C138.7303,310.0947,136.0677,312.7573,136.0677,316.0404z"/>
	<path class="st0" d="M300.0749,321.9861h10.1926c3.2831,0,5.9457-2.6626,5.9457-5.9457s-2.6626-5.9457-5.9457-5.9457h-10.1926
		c-3.2831,0-5.9457,2.6626-5.9457,5.9457S296.7918,321.9861,300.0749,321.9861z"/>
	<path class="st0" d="M72.5497,353.959h13.5901c3.2831,0,5.9457-2.6626,5.9457-5.9457s-2.6626-5.9457-5.9457-5.9457H72.5497
		c-3.2831,0-5.9457,2.6626-5.9457,5.9457S69.2667,353.959,72.5497,353.959z"/>
	<path class="st0" d="M116.2167,353.959h30.0768c3.283,0,5.9457-2.6626,5.9457-5.9457s-2.6627-5.9457-5.9457-5.9457h-30.0768
		c-3.2831,0-5.9457,2.6626-5.9457,5.9457S112.9336,353.959,116.2167,353.959z"/>
	<path class="st0" d="M176.3702,353.959h30.0768c3.283,0,5.9457-2.6626,5.9457-5.9457s-2.6627-5.9457-5.9457-5.9457h-30.0768
		c-3.2831,0-5.9457,2.6626-5.9457,5.9457S173.0872,353.959,176.3702,353.959z"/>
	<path class="st0" d="M236.5238,342.0677c-3.2831,0-5.9457,2.6626-5.9457,5.9457s2.6626,5.9457,5.9457,5.9457h30.0768
		c3.283,0,5.9457-2.6626,5.9457-5.9457s-2.6627-5.9457-5.9457-5.9457H236.5238z"/>
	<path class="st0" d="M296.6774,353.959h13.5901c3.2831,0,5.9457-2.6626,5.9457-5.9457s-2.6626-5.9457-5.9457-5.9457h-13.5901
		c-3.2831,0-5.9457,2.6626-5.9457,5.9457S293.3943,353.959,296.6774,353.959z"/>
	<path class="st0" d="M313.743,367.7864H72.5497c-3.2831,0-5.9457,2.6626-5.9457,5.9457c0,3.283,2.6626,5.9457,5.9457,5.9457
		H313.743c3.2831,0,5.9457-2.6627,5.9457-5.9457C319.6887,370.449,317.0261,367.7864,313.743,367.7864z"/>
	<path class="st0" d="M426.7442,129.1107l-7.837-20.3513c-0.012-0.0312-0.0322-0.0579-0.0447-0.0889l-3.9882-10.3426
		c-4.4709-11.6276-13.2036-20.8149-24.589-25.8664c-11.3887-5.0548-24.0663-5.3683-35.6873-0.8826L99.5201,169.9233H61.4613
		c-22.0773,0-40.0388,17.9615-40.0388,40.0388v181.5722c0,22.0773,17.9615,40.0371,40.0388,40.0371h294.9748
		c22.0773,0,40.0388-17.9598,40.0388-40.0371v-55.6744l52.252-20.1446c23.9918-9.2586,35.9794-36.3078,26.7224-60.2963
		L426.7442,129.1107z M415.0122,131.7363l8.1933,21.2757l-51.6196,19.8969c-4.6765-1.9192-9.7899-2.9855-15.1498-2.9855h-79.6508
		l133.1562-51.3373L415.0122,131.7363z M358.8764,82.6741c8.658-3.3444,18.0991-3.1089,26.5847,0.6553
		c8.4806,3.7642,14.9836,10.6057,18.3182,19.2753l1.8841,4.8862l-161.9326,62.4324H132.5746L358.8764,82.6741z M384.5835,391.5343
		c0,15.5195-12.6263,28.1458-28.1474,28.1458H61.4613c-15.5211,0-28.1474-12.6263-28.1474-28.1458V209.9621
		c0-15.5211,12.6263-28.1474,28.1474-28.1474h38.8806c0.1368,0.0061,0.2745,0.0035,0.4124,0H244.618
		c0.0293,0.001,0.0588-0.0006,0.0882,0h111.7299c15.5211,0,28.1474,12.6263,28.1474,28.1474V391.5343z M444.4484,304.6202
		l-47.9735,18.4957V209.9621c0-11.4384-4.8292-21.7639-12.5465-29.067l43.5646-16.7913l36.8611,95.5953
		C471.2521,277.5726,462.3203,297.7239,444.4484,304.6202z"/>
</g>
</svg>
