<?xml version="1.0" encoding="UTF-8"?><svg id="Layer_1" xmlns="http://www.w3.org/2000/svg" viewBox="0 0 20 20"><defs><style>.cls-1{fill:#fff;}</style></defs><path class="cls-1" d="M0,11.33v-.47c.11-.53,.44-.9,.81-1.27C3.75,6.66,6.67,3.72,9.6,.79,9.96,.42,10.32,.1,10.84,0h.47c.36,.09,.69,.23,.95,.5,1.96,1.96,3.91,3.92,5.87,5.89,.35,.35,.52,.78,.47,1.27-.02,.23-.09,.45-.14,.69,.02,0,.06,.01,.1,.02,.8,.14,1.4,.8,1.4,1.61,0,2.8,0,5.6,0,8.4,0,.69-.46,1.3-1.1,1.53-.11,.04-.22,.07-.33,.1H4.76s-.02-.02-.03-.02c-.96-.25-1.4-.83-1.4-1.83,0-.96,0-1.91,0-2.87,0-.1-.05-.22-.12-.28-.8-.81-1.6-1.62-2.41-2.41-.37-.36-.69-.74-.79-1.26Zm11.64,8.01c2.18,0,4.37,0,6.55,0,.7,0,1.11-.41,1.11-1.12,0-2.7,0-5.4,0-8.1,0-.71-.4-1.12-1.11-1.12-4.36,0-8.72,0-13.08,0-.72,0-1.12,.4-1.12,1.13,0,2.69,0,5.39,0,8.08,0,.72,.4,1.13,1.12,1.13,2.18,0,4.35,0,6.53,0Zm-3.4-11.01s.07,0,.1,0c3.04,0,6.08,0,9.12,0,.08,0,.19-.05,.24-.11,.35-.4,.32-.99-.08-1.39-1.3-1.3-2.6-2.61-3.9-3.91-.02-.02-.05-.04-.04-.04-1.82,1.82-3.63,3.63-5.44,5.45ZM.95,11.78c1.27-1.15,2.38-2.44,3.62-3.61,1.23-1.17,2.4-2.4,3.6-3.6,1.2-1.2,2.4-2.41,3.61-3.61-.45-.41-1.03-.38-1.48,.07C7.21,4.13,4.11,7.23,1.02,10.33c-.05,.06-.11,.11-.16,.17-.3,.4-.26,.93,.08,1.28Zm4.45-3.45c.56,0,1.09,0,1.63,0,.15,0,.25-.04,.36-.15,1.88-1.89,3.76-3.78,5.65-5.66,.05-.05,.12-.07,.15-.09-.36-.36-.66-.66-.95-.95-2.26,2.26-4.54,4.54-6.84,6.85Zm-2.08,2.1c-.63,.63-1.25,1.25-1.85,1.85,.29,.29,.6,.6,.92,.92,.28-.28,.57-.57,.86-.87,.04-.04,.06-.1,.07-.15,0-.58,0-1.16,0-1.74Zm-.01,2.82c-.16,.16-.31,.3-.44,.43,.15,.15,.29,.3,.44,.45v-.88Z"/><path class="cls-1" d="M6.33,12.66c-.32,0-.65,0-.97,0-.42,0-.68-.26-.69-.68,0-.43,0-.86,0-1.29,0-.43,.28-.69,.7-.69,.64,0,1.29,0,1.93,0,.41,0,.69,.28,.69,.68,0,.43,0,.86,0,1.29,0,.41-.28,.68-.69,.69-.01,0-.03,0-.04,0-.31,0-.62,0-.93,0Zm-.99-.68h1.98v-1.3h-1.98v1.3Z"/><path class="cls-1" d="M10.99,15.34c.21,0,.42,0,.62,0,.23,0,.36,.13,.36,.33,0,.19-.13,.33-.35,.33-.42,0-.84,0-1.27,0-.23,0-.37-.15-.37-.34,0-.19,.14-.31,.37-.32,.01,0,.03,0,.04,0,.2,0,.4,0,.6,0Z"/><path class="cls-1" d="M8.32,15.34c.21,0,.43,0,.64,0,.21,0,.34,.13,.35,.32,0,.19-.13,.34-.35,.34-.44,0-.87,0-1.31,0-.21,0-.34-.14-.34-.33,0-.2,.13-.33,.35-.33,.21,0,.43,0,.64,0Z"/><path class="cls-1" d="M8.31,17.34c-.2,0-.4,0-.6,0-.25,0-.39-.13-.38-.34,0-.2,.14-.32,.38-.32,.41,0,.83,0,1.24,0,.22,0,.36,.13,.37,.32,0,.19-.14,.34-.36,.35-.21,0-.43,0-.64,0Z"/><path class="cls-1" d="M5.65,16.67c.21,0,.43,0,.64,0,.22,0,.36,.14,.36,.33,0,.19-.14,.33-.36,.33-.42,0-.84,0-1.27,0-.23,0-.37-.14-.37-.34,0-.19,.14-.32,.37-.32,.21,0,.42,0,.62,0Z"/><path class="cls-1" d="M5.67,15.34c.21,0,.42,0,.62,0,.22,0,.36,.14,.36,.33,0,.19-.14,.33-.36,.33-.42,0-.84,0-1.27,0-.23,0-.37-.15-.36-.34,0-.19,.14-.31,.37-.32,.21,0,.43,0,.64,0Z"/><path class="cls-1" d="M5.32,14c0,.12,.01,.25,0,.37-.02,.18-.16,.29-.33,.29-.18,0-.3-.11-.31-.29-.02-.25-.01-.51,0-.76,.01-.17,.16-.28,.32-.28,.16,0,.3,.11,.32,.28,.02,.13,0,.26,0,.39,0,0,0,0,0,0Z"/><path class="cls-1" d="M10.64,14c0,.12,0,.23,0,.35-.01,.18-.14,.3-.32,.31-.18,0-.33-.12-.34-.31-.01-.23-.01-.47,0-.7,0-.19,.16-.32,.33-.32,.17,0,.32,.13,.33,.32,0,.12,0,.23,0,.35Z"/><path class="cls-1" d="M7.32,13.99c0-.11,0-.22,0-.33,.01-.19,.14-.32,.32-.33,.16,0,.32,.11,.33,.29,.02,.25,.02,.51,0,.76-.01,.18-.17,.29-.34,.28-.17,0-.3-.13-.31-.31,0-.12,0-.23,0-.35Z"/><path class="cls-1" d="M8.65,13.99c0-.11,0-.22,0-.33,.01-.19,.15-.32,.32-.32,.17,0,.32,.12,.33,.3,.01,.25,.01,.49,0,.74-.01,.19-.17,.3-.35,.29-.17-.01-.29-.13-.31-.32,0-.01,0-.03,0-.04,0-.1,0-.21,0-.31h0Z"/><path class="cls-1" d="M13.3,14c0,.12,0,.23,0,.35-.01,.19-.13,.31-.31,.31-.17,0-.33-.1-.34-.28-.02-.26-.02-.52,0-.78,.01-.17,.17-.28,.33-.27,.17,0,.3,.13,.31,.31,0,.12,0,.23,0,.35Z"/><path class="cls-1" d="M6,13.99c0-.12,0-.25,0-.37,.02-.17,.13-.27,.3-.28,.17-.01,.32,.07,.33,.23,.03,.28,.03,.57,0,.85-.01,.17-.18,.26-.35,.23-.17-.02-.27-.12-.28-.3,0-.12,0-.25,0-.37h0Z"/><path class="cls-1" d="M16.64,13.99c0-.12,0-.23,0-.35,.01-.17,.14-.29,.3-.3,.16-.01,.32,.09,.34,.26,.02,.27,.02,.54,0,.81-.02,.18-.16,.26-.34,.25-.17,0-.29-.13-.3-.3,0-.12,0-.25,0-.37Z"/><path class="cls-1" d="M14.63,13.99c0,.13,.01,.26,0,.39-.02,.17-.13,.26-.3,.28-.17,.01-.32-.09-.34-.25-.02-.27-.02-.54,0-.81,.01-.17,.15-.25,.32-.26,.16,0,.3,.12,.32,.29,.01,.12,0,.25,0,.37Z"/><path class="cls-1" d="M15.96,14.01c0,.12,.01,.25,0,.37-.02,.18-.17,.29-.34,.28-.16,0-.3-.12-.3-.29-.01-.25-.01-.49,0-.74,0-.17,.15-.29,.31-.29,.16,0,.3,.1,.33,.27,0,.02,0,.04,0,.06,0,.12,0,.23,0,.35,0,0,0,0,0,0Z"/></svg>