<?xml version="1.0" encoding="UTF-8"?><svg id="Layer_1" xmlns="http://www.w3.org/2000/svg" viewBox="0 0 20 20"><defs><style>.cls-1{fill:#fff;}</style></defs><path class="cls-1" d="M20,15.35c-.1,.08-.19,.18-.3,.24-1.74,.93-3.49,1.86-5.23,2.8-.21,.12-.38,.12-.59-.02-1.76-1.12-3.53-2.23-5.3-3.34-.14-.09-.19-.19-.19-.35,0-1.56,0-3.12,0-4.69,0-.2,.09-.32,.26-.41,1.78-.95,3.57-1.91,5.34-2.87,.17-.09,.28-.02,.41,.05,1.66,.9,3.32,1.81,4.98,2.72,.21,.12,.4,.27,.6,.41v5.47Zm-6.16,2.26c0-.06,.01-.11,.01-.15,0-1.39,0-2.77,0-4.16,0-.14-.07-.19-.17-.25-1.51-.85-3.02-1.71-4.54-2.56-.05-.03-.1-.05-.16-.08,0,.06-.01,.1-.01,.14,0,1.28,0,2.56,0,3.85,0,.13,.06,.18,.15,.24,1.52,.96,3.03,1.92,4.55,2.88,.05,.03,.1,.05,.16,.09Zm.65,.04c.07-.03,.11-.05,.16-.07,1.54-.81,3.07-1.61,4.61-2.42,.11-.06,.14-.13,.14-.25,0-1.4,0-2.8,0-4.2,0-.06,0-.11-.02-.19-.42,.23-.82,.44-1.22,.66-.04,.02-.06,.12-.07,.18,0,.47,0,.94,0,1.41,0,.21-.07,.34-.25,.44-.34,.17-.69,.34-1.01,.55-.44,.3-.72,.14-.68-.4,.02-.35,0-.7,0-1.08-.09,.05-.16,.07-.22,.11-.43,.23-.85,.47-1.29,.7-.12,.06-.16,.13-.16,.27,0,1.37,0,2.73,0,4.1v.19Zm1.3-5.88s-.03-.05-.04-.05c-1.6-.87-3.19-1.75-4.79-2.62-.04-.02-.1-.03-.14,0-.5,.26-.99,.53-1.49,.8,.02,.03,.03,.04,.04,.05,1.58,.89,3.16,1.79,4.74,2.68,.04,.02,.12,.02,.16,0,.51-.28,1.01-.56,1.53-.85Zm-2.85-3.82s.04,.05,.06,.06c1.58,.87,3.15,1.74,4.73,2.6,.04,.02,.12,.03,.16,.01,.39-.21,.78-.42,1.18-.64-.02-.03-.03-.05-.05-.05-1.58-.86-3.16-1.72-4.74-2.58-.04-.02-.11-.04-.14-.02-.4,.2-.79,.41-1.2,.62Zm3.82,5.13c.24-.13,.46-.24,.67-.37,.04-.02,.06-.11,.06-.17,0-.4,0-.79,0-1.19,0-.11-.04-.18-.14-.23-.39-.21-.78-.42-1.16-.63-1.26-.69-2.52-1.38-3.78-2.07-.07-.04-.17-.08-.23-.06-.22,.1-.43,.23-.66,.35,.07,.04,.11,.07,.16,.09,1.59,.86,3.19,1.73,4.79,2.59,.21,.11,.31,.25,.3,.49-.02,.39,0,.78,0,1.2Z"/><path class="cls-1" d="M7.89,0c.48,.14,.9,.36,1.22,.76,.24,.3,.4,.63,.44,1,.02,.12,.07,.18,.17,.23,.48,.26,.88,.61,1.19,1.08,.04,.06,.16,.11,.24,.11,1.1,0,2.2,0,3.3,0,.4,0,.47,.07,.47,.47,0,.72,0,1.43,0,2.15,0,.17-.03,.32-.21,.37-.23,.06-.39-.08-.4-.34,0-.6,0-1.2,0-1.8,0-.07,0-.14,0-.23h-3.01c.02,.35,.06,.7,.07,1.05,0,.29-.09,.38-.38,.38-2.35,0-4.7,0-7.05,0-.3,0-.39-.08-.38-.38,0-.35,.04-.7,.06-1.05H.62v15.58H14.27c0-.1,0-.2,0-.3,.01-.2,.13-.32,.3-.32,.16,0,.3,.14,.31,.32,0,.2,.02,.41,0,.6-.02,.11-.12,.21-.18,.32H0V3.36c.1-.15,.25-.18,.42-.18,1.11,0,2.22,0,3.33,0,.13,0,.21-.03,.29-.15,.3-.45,.68-.81,1.17-1.07,.07-.03,.13-.13,.14-.2,.09-.58,.36-1.06,.85-1.39C6.44,.22,6.72,.13,6.99,0,7.29,0,7.59,0,7.89,0Zm2.82,4.63c0-.05,0-.1,0-.14-.1-.97-.61-1.65-1.5-2.05-.19-.08-.28-.19-.28-.41,0-.79-.65-1.4-1.49-1.42-.84-.01-1.52,.59-1.53,1.39,0,.24-.1,.36-.31,.46-.63,.3-1.09,.77-1.32,1.44-.08,.23-.11,.47-.16,.73h6.59Z"/><path class="cls-1" d="M4.45,16.33c0,.35,0,.7,0,1.05,0,.24-.1,.35-.34,.35-.66,0-1.31,0-1.97,0-.25,0-.35-.1-.35-.34,0-.72,0-1.43,0-2.15,0-.23,.1-.33,.32-.33,.67,0,1.34,0,2.01,0,.23,0,.33,.11,.33,.34,0,.36,0,.72,0,1.07Zm-.62,.78v-1.58h-1.43v1.58h1.43Z"/><path class="cls-1" d="M1.79,8.16c0-.34,0-.68,0-1.01,0-.3,.09-.39,.38-.39,.64,0,1.27,0,1.91,0,.27,0,.37,.1,.37,.36,0,.7,0,1.41,0,2.11,0,.25-.1,.35-.34,.35-.66,0-1.31,0-1.97,0-.25,0-.35-.1-.35-.36,0-.35,0-.7,0-1.05Zm2.05-.81h-1.43v1.58h1.43v-1.58Z"/><path class="cls-1" d="M1.79,12.22c0-.35,0-.7,0-1.05,0-.26,.1-.35,.36-.35,.65,0,1.3,0,1.95,0,.25,0,.35,.1,.35,.36,0,.7,0,1.41,0,2.11,0,.25-.1,.35-.36,.35-.65,0-1.3,0-1.95,0-.26,0-.35-.1-.35-.36,0-.35,0-.7,0-1.05Zm2.04,.8v-1.58h-1.44v1.58h1.44Z"/><path class="cls-1" d="M7.49,7.85c.71,0,1.42,0,2.13,0,.27,0,.43,.25,.27,.45-.07,.09-.22,.15-.33,.15-.66,.01-1.31,0-1.97,0-.73,0-1.46,0-2.18,0-.11,0-.25-.03-.32-.1-.06-.07-.08-.22-.05-.32,.03-.15,.17-.18,.31-.18,.72,0,1.43,0,2.15,0Z"/><path class="cls-1" d="M7.07,16.6c-.63,0-1.26,0-1.89,0-.26,0-.38-.09-.38-.29,0-.2,.14-.31,.38-.31,1.28,0,2.55,0,3.83,0,.26,0,.39,.14,.35,.35-.03,.19-.16,.25-.34,.25-.65,0-1.3,0-1.95,0Z"/><path class="cls-1" d="M6.5,12.54c-.4,0-.79,0-1.19,0-.22,0-.35-.12-.35-.31,0-.18,.12-.29,.34-.29,.81,0,1.62,0,2.44,0,.22,0,.35,.12,.34,.31,0,.19-.12,.29-.36,.29-.41,0-.82,0-1.23,0Z"/><path class="cls-1" d="M8.6,2.36c0,.65-.52,1.18-1.17,1.19-.65,0-1.18-.53-1.18-1.17,0-.66,.53-1.2,1.18-1.19,.66,0,1.17,.52,1.17,1.18Zm-1.17-.57c-.32,0-.59,.26-.59,.57,0,.31,.26,.56,.57,.57,.33,0,.58-.24,.58-.57,0-.31-.25-.57-.57-.57Z"/></svg>