<?xml version="1.0" encoding="utf-8"?>
<!-- Generator: Adobe Illustrator 27.9.0, SVG Export Plug-In . SVG Version: 6.00 Build 0)  -->
<!DOCTYPE svg PUBLIC "-//W3C//DTD SVG 1.1//EN" "http://www.w3.org/Graphics/SVG/1.1/DTD/svg11.dtd" [
	<!ENTITY ns_extend "http://ns.adobe.com/Extensibility/1.0/">
	<!ENTITY ns_ai "http://ns.adobe.com/AdobeIllustrator/10.0/">
	<!ENTITY ns_graphs "http://ns.adobe.com/Graphs/1.0/">
	<!ENTITY ns_vars "http://ns.adobe.com/Variables/1.0/">
	<!ENTITY ns_imrep "http://ns.adobe.com/ImageReplacement/1.0/">
	<!ENTITY ns_sfw "http://ns.adobe.com/SaveForWeb/1.0/">
	<!ENTITY ns_custom "http://ns.adobe.com/GenericCustomNamespace/1.0/">
	<!ENTITY ns_adobe_xpath "http://ns.adobe.com/XPath/1.0/">
]>
<svg version="1.1" id="Layer_1" xmlns:x="&ns_extend;" xmlns:i="&ns_ai;" xmlns:graph="&ns_graphs;"
	 xmlns="http://www.w3.org/2000/svg" xmlns:xlink="http://www.w3.org/1999/xlink" x="0px" y="0px" width="200px" height="200px"
	 viewBox="0 0 200 200" style="enable-background:new 0 0 200 200;" xml:space="preserve">
<style type="text/css">
	.st0{fill:#231F20;}
	.st1{fill:#FFFFFF;}
</style>
<metadata>
	<sfw  xmlns="&ns_sfw;">
		<slices></slices>
		<sliceSourceBounds  bottomLeftOrigin="true" height="190" width="89.6" x="55.2" y="5"></sliceSourceBounds>
	</sfw>
</metadata>
<g>
	<g>
		<path class="st0" d="M84,35.2l0.7-0.3l0.7-0.2l0.8-0.1l0.8,0h1.6l0.2,0.5l0.4,0.9l0.6,1.9l0.5,1.9l0.2,1l0.2,1l0.1,1l0.1,1
			c0,0,0,0,0,0c0,0,0,0,0,0l0.1,0.5l0.2,0.4l0.3,0.4l0.4,0.3l0.4,0.2l0.5,0.1l0.5,0.1c0,0,0,0,0,0h8.8h10c0.1,0,0.1,0,0.1-0.1v-2.1
			c0,0,0,0,0,0c0,0,0-0.1,0-0.1l-0.5-0.8l-0.4-0.8l-0.3-0.9l-0.2-0.9l-0.2-0.9l0-0.9l0.1-0.9l0.1-0.9l0.2-0.9l0.3-0.9l0.4-0.8
			L112,33l0.5-0.7l0.6-0.7l0.6-0.6l0.7-0.6l0.7-0.5l0.8-0.4l0.8-0.4l0.9-0.3c0,0,0,0,0,0c0,0,0,0,0,0c0,0,0,0,0,0c0,0,0,0,0,0
			l0.7-0.4l0.7-0.4l0.7-0.5l0.6-0.6l0.5-0.6l0.5-0.7l0.4-0.7l0.3-0.8l0.2-0.8l0.1-0.8l0-0.8l-0.1-0.8l-0.2-0.8l-0.2-0.8c0,0,0,0,0,0
			c0,0,0,0,0,0l-0.3-0.7l-0.4-0.7l-0.5-0.7l-0.6-0.6l-0.6-0.6l-0.7-0.5l-0.7-0.4c0,0,0,0,0,0c0,0,0,0,0,0c0,0,0,0,0,0c0,0,0,0,0,0
			c0,0,0,0,0,0l-2.9-1.4l-3-1.3l-3-1.2l-3.3-1.1l-3.3-1l-3.4-0.9l-3.4-0.7l-3.4-0.6l-3.5-0.5l-3.5-0.4L82,5.9l-3.5-0.1L75,6
			l-3.5,0.2l-3.4,0.4c-0.1,0-0.1,0-0.1,0.1V7H67c-0.1,0-0.1,0-0.1,0.1v0.5l-8.5,0.2c0,0-0.1,0-0.1,0.1l-0.2,0.1L58.1,8l0,0.1l0,0.2
			c0,0,0,0,0,0c0,0,0,0,0,0v0l-0.8,0c0,0-0.1,0-0.1,0l-0.3,0.1l-0.3,0.2l-0.1,0.3l-0.1,0.3c0,0,0,0,0,0c0,0,0,0,0,0v1.7h-0.2
			c-0.1,0-0.1,0-0.1,0.1v4.8c0,0.1,0,0.1,0.1,0.1h0.2v1.7c0,0,0,0,0,0l0.1,0.2l0.2,0.3l0.3,0.2l0.2,0.1c0,0,0,0,0.1,0l0.8,0v0
			c0,0,0,0,0,0c0,0,0,0,0,0l0,0.2l0,0.1l0.2,0.2l0.1,0c0,0,0,0.1,0.1,0.1l8.5,0.2v0.5c0,0.1,0,0.1,0.1,0.1H68V20v0v0.3h-2
			c0,0,0,0,0,0l-0.1,0c-0.1,0-0.1,0-0.1,0.1v0.9c0,0,0,0.1,0,0.1l0.1,0.3l0.2,0.3l0.2,0.1c0,0,0,0,0,0c0,0,0,0,0,0c0,0,0,0,0,0
			c0,0,0,0,0,0l0.6,0.2l0.5,0.3L68,23l0.4,0.4l0.4,0.5l0.3,0.5l0.2,0.6l0.1,0.6l0.1,0.6v2.5l-0.1,2.5l-0.1,2.5L69,36.1l-0.3,2.5
			L68.4,41L68,43.4l-0.2,1.2L67,48.3l-0.5,1.8l-0.2,0.6L66,51.8l-0.5,1.1l-0.4,0.7l-0.4,0.6L64.2,55l-0.5,0.6l-0.5,0.6l-0.7,0.7
			l-0.5,0.5l-0.5,0.5l-0.7,0.6c0,0,0,0-0.1,0l-0.2,0.2l-0.2,0.3l-0.1,0.4l0,0.4l0.1,0.3c0,0,0,0,0,0c0,0,0,0,0,0l0.4,0.6
			c0,0,0,0,0,0c0,0,0,0,0,0c0,0,0,0,0,0c0,0,0,0,0.1,0c0,0,0,0,0.1,0c0,0,0,0,0,0c0,0,0,0,0,0l0,0l1.4-0.7l1.3-0.8c0,0,0,0,0,0
			c0,0,0,0,0.1,0l0.7-0.5c0,0,0,0,0,0c0,0,0,0,0,0c0,0,0,0,0,0c0,0,0,0,0,0l1-0.8l0.9-0.8l0.9-0.9l0.8-1l0.7-1l0.6-1c0,0,0,0,0,0
			l1.3-2.4l1.2-2.5l1.1-2.5l0.9-2.6l0.8-2.6l8.6-5L84,35.2z"/>
		<path class="st0" d="M143.1,109.1l-1.3-2.9c-0.2-0.3-0.3-0.7-0.6-1l-28.6-41.5c0,0-0.1-0.1-0.1-0.1l0.1-0.5l0-0.4c0,0,0,0,0,0h0
			c0,0,0,0,0,0c0,0,0,0,0,0c0,0,0,0,0,0c0,0,0,0,0,0c0,0,0,0,0,0c0,0,0,0,0,0s0,0,0,0l0-2.5c0,0,0,0,0-0.1c0,0,0,0,0-0.1l-0.1-13.7
			c0,0,0,0,0,0c0,0,0,0,0,0l0-0.2l0-0.1l-0.2-0.1l-0.2,0c0,0,0,0,0,0c0,0,0,0,0,0H89.3c0,0,0,0,0,0c0,0,0,0,0,0L89.1,46l-0.2,0.1
			l0,0.1l0,0.2c0,0,0,0,0,0c0,0,0,0,0,0l-0.1,13.7c0,0,0,0,0,0c0,0,0,0,0,0l0,2.6c0,0,0,0,0,0s0,0,0,0c0,0,0,0,0,0c0,0,0,0,0,0
			c0,0,0,0,0,0c0,0,0,0,0,0c0,0,0,0,0,0h0.3l0,1c-0.1,0-0.1,0-0.1-0.1l-12.9,41.1c-0.1,0.4-0.2,0.8-0.2,1.2l-0.6,6.2
			c0,0.2,0,0.4,0,0.6l0.7,71.5c0,1.2,0.4,2.3,1,3.3l0.4,0.6c0.6,0.9,1.5,1.7,2.6,2.1l6.9,2.9c0.8,0.3,1.6,0.5,2.4,0.5l36.2-0.5
			c0.8,0,1.6-0.2,2.3-0.5l11-4.9c1.3-0.6,2.4-1.6,3-2.9l0.7-1.5c0.4-0.8,0.6-1.7,0.6-2.5l0.6-69.5
			C143.6,110.7,143.5,109.9,143.1,109.1z"/>
	</g>
	<path class="st1" d="M144.2,108.7l-1.3-2.9c-0.2-0.4-0.4-0.8-0.7-1.2l-28.6-41.5c0,0,0,0,0-0.1l0-0.1c0-0.1,0-0.2,0-0.2l0-2.4
		c0-0.1,0-0.1,0-0.2c0-0.1,0-0.1,0-0.2l-0.1-13.4l0,0l-0.1-0.6l-0.2-0.4l-0.1-0.1l0-2c0-0.1-0.1-0.3-0.1-0.4l-0.5-0.8l-0.4-0.8
		l-0.3-0.8l-0.2-0.9l-0.1-0.8l0-0.8l0.1-0.8l0.1-0.8l0.2-0.8l0.6-1.5l0.4-0.7l0.5-0.7l0.5-0.6l0.6-0.5l0.6-0.5l0.7-0.4l1.5-0.7
		l0.7-0.2h0.2l0.2-0.2l0.6-0.3l0.8-0.5l0.7-0.6l0.7-0.7l0.6-0.7l0.5-0.8l0.4-0.8l0.3-0.9l0.2-0.9l0.1-0.9l0-0.9l-0.1-0.9l-0.2-0.9
		l-0.3-0.9l-0.3-0.8l-0.4-0.8l-0.5-0.8l-0.6-0.7l-0.7-0.6l-0.7-0.5l-0.6-0.3c-0.1-0.1-0.2-0.1-0.2-0.2l-2.9-1.4l-3-1.3l-3-1.2
		l-3.3-1.1l-3.4-1l-3.4-0.9L96,6.7l-3.4-0.6L89,5.6l-3.5-0.4L82,5.1L78.5,5L75,5.1l-3.5,0.2L68,5.7c-0.3,0-0.6,0.2-0.7,0.4H67
		c-0.4,0-0.8,0.3-0.9,0.6l-7.7,0.2c-0.2,0-0.4,0.1-0.6,0.2l-0.2,0.1l-0.2,0.2l-0.3,0c-0.2,0-0.3,0-0.4,0.1l-0.3,0.1L56,8.1l-0.3,0.5
		l-0.2,0.7l0,0.1l0,0.9c-0.2,0.2-0.3,0.4-0.3,0.7v4.8c0,0.3,0.1,0.5,0.3,0.7l0,1.2l0,0.1l0.1,0.4l0.3,0.5l0.5,0.4l0.2,0.1
		c0.1,0.1,0.3,0.1,0.4,0.1l0.2,0l0.4,0.3l0.1,0.1c0.1,0.1,0.3,0.1,0.5,0.2l6.5,0.2c-0.1,0.1-0.1,0.3-0.1,0.5v0.9
		c0,0.2,0,0.3,0.1,0.5l0.1,0.3l0.4,0.6l0.2,0.1l0.8,0.4l0.4,0.2l0.4,0.3l0.3,0.3l0.3,0.4l0.4,0.9l0.2,1l0,2.4l-0.2,4.9l-0.5,4.9
		l-0.7,4.8l-1,4.8l-0.6,2.3l-0.4,1.1l-0.5,1L64,53.8l-0.9,1.3L62,56.3l-1,0.9l-0.6,0.5c-0.1,0-0.2,0.1-0.3,0.2l-0.3,0.3l-0.3,0.5
		l-0.1,0.6l0.1,0.6l0.1,0.3l0,0l0.7,1.1l0.2,0.2c0.3,0.2,0.6,0.2,1,0l1.4-0.7l1.1-0.7c0.1,0,0.2-0.1,0.3-0.1l1.8-1.4l1-0.9l0.9-1
		l0.8-1l0.8-1.1l0.6-1c0-0.1,0.1-0.1,0.1-0.2l1.3-2.5l1.2-2.5l1.1-2.6l0.9-2.6l0.7-2.2l8.3-4.8l0.6-0.3l0.6-0.3l0.6-0.2l0.7-0.1
		l1.7,0l0.4,0.8L89,38l0.5,1.8l0.3,1.9l0.2,1.7l0,0l0.2,0.8l0.3,0.6l0.1,0.1l-1.3,0l-0.5,0.2l-0.4,0.3l-0.2,0.3L88,46.5l0,0
		l-0.1,13.7l0,0.2l0,2.7c0,0.1,0,0.2,0,0.2c0,0,0,0,0,0L75,104.4c-0.1,0.5-0.2,1-0.3,1.5l-0.6,6.2c0,0.2,0,0.5,0,0.7l0.7,71.5
		c0,1.4,0.4,2.8,1.3,4l0.4,0.6c0.8,1.1,1.8,2,3.1,2.5l6.9,2.9c0.9,0.4,1.8,0.6,2.8,0.6l36.3-0.5c1,0,1.9-0.2,2.8-0.6l11-4.9
		c1.6-0.7,2.8-1.9,3.6-3.4l0.7-1.5c0.5-0.9,0.7-2,0.7-3l0.6-69.5C144.8,110.6,144.6,109.6,144.2,108.7z M125.4,192.5l-36.2,0.5
		c-0.7,0-1.4-0.1-2.1-0.4l-6.9-2.9c-0.9-0.4-1.7-1-2.3-1.9l-0.4-0.6c-0.6-0.9-0.9-1.9-0.9-2.9L76,112.9c0-0.2,0-0.4,0-0.5l0.6-6.2
		c0-0.4,0.1-0.7,0.2-1.1l12.6-40.3c0.8,0.3,2,0.5,3.5,0.9c2,0.4,4.3,0.6,7,0.6c3.9,0,7.4-0.4,8.7-0.6c1.6-0.2,2.8-0.6,3.5-1
		l28.4,41.1c0.2,0.3,0.4,0.6,0.5,0.9l1.3,2.9c0.3,0.7,0.4,1.4,0.4,2.1l-0.6,69.5c0,0.8-0.2,1.5-0.5,2.2l-0.7,1.5
		c-0.5,1.1-1.5,2-2.6,2.5l-11,4.9C126.8,192.4,126.1,192.5,125.4,192.5z M111.8,62.7L111.8,62.7c-0.2,0.1-0.4,0.2-0.6,0.3
		c-0.8,0.3-1.7,0.6-2.7,0.7c-2.1,0.3-9.6,1.1-15.1,0c-2-0.4-3-0.7-3.5-0.9l-0.2-0.7l0.1-15.4l22,0l0.1,15.1L111.8,62.7z M67.2,50.9
		l0.6-2.4l0.8-3.7l1-6.2l0.5-5l0.2-5l0-2.5l-0.1-0.7l-0.2-0.7l-0.3-0.7l-0.3-0.6L69,22.8l-0.5-0.5l0.3-1.2v-1
		c0.1-0.2,0.2-0.4,0.2-0.6V7.3L71.6,7l3.5-0.2l3.4-0.1l3.4,0.1L85.4,7l3.4,0.4l3.4,0.5l3.4,0.6L99,9.1l3.3,0.9l3.3,1l3.3,1.1l3,1.2
		l3,1.3l2.7,1.3l0.9,0.5l0.6,0.4l1,1l0.4,0.6l0.4,0.6l0.3,0.7l0.2,0.7l0.1,0.7l0.1,0.7l0,0.7l-0.1,0.7l-0.2,0.7l-0.3,0.7l-0.3,0.6
		l-0.4,0.6l-0.5,0.6l-0.5,0.5l-0.6,0.4l-0.6,0.4l-0.6,0.3l-0.9,0.3l-0.9,0.4l-0.9,0.5l-0.8,0.5l-0.8,0.6l-0.7,0.7l-0.6,0.8l-0.6,0.8
		l-0.5,0.8l-0.4,0.9l-0.3,0.9l-0.2,1l-0.1,0.9l-0.1,1l0,1l0.2,1l0.2,1l0.4,1l0.5,0.9l0.4,0.6l0,1.2l-18,0l-0.4,0l-0.3-0.1l-0.2-0.1
		l-0.2-0.2l-0.3-0.6l-0.3-2.3l-0.4-2l-0.5-1.9L90,35.6l-0.9-1.9l-2.2,0l-0.8,0l-0.9,0.1L84.4,34l-0.8,0.3L74,39.9l-0.9,2.9l-0.9,2.6
		l-1.1,2.5l-1.2,2.4l-1.3,2.4l-0.6,1l-0.7,1l-0.8,0.9l-0.8,0.9l-0.9,0.8l-1,0.8l-0.4,0.3l0,0l-1.5,0.9l-0.7,0.4l0-0.1l0-0.1l0-0.1
		l1-0.8l0.6-0.5l1.3-1.3l0.5-0.6l1.1-1.5l0.7-1.4l0.5-1.2L67.2,50.9z M57.3,17.4l0-2.5H57v-3.2h0.3l0-2.5l1.6-0.1l0.1-0.5l8.2-0.2
		v9.7L58.9,18l0-0.5L57.3,17.4z"/>
</g>
</svg>
