<?xml version="1.0" encoding="utf-8"?>
<!-- Generator: Adobe Illustrator 27.9.0, SVG Export Plug-In . SVG Version: 6.00 Build 0)  -->
<!DOCTYPE svg PUBLIC "-//W3C//DTD SVG 1.1//EN" "http://www.w3.org/Graphics/SVG/1.1/DTD/svg11.dtd" [
	<!ENTITY ns_extend "http://ns.adobe.com/Extensibility/1.0/">
	<!ENTITY ns_ai "http://ns.adobe.com/AdobeIllustrator/10.0/">
	<!ENTITY ns_graphs "http://ns.adobe.com/Graphs/1.0/">
	<!ENTITY ns_vars "http://ns.adobe.com/Variables/1.0/">
	<!ENTITY ns_imrep "http://ns.adobe.com/ImageReplacement/1.0/">
	<!ENTITY ns_sfw "http://ns.adobe.com/SaveForWeb/1.0/">
	<!ENTITY ns_custom "http://ns.adobe.com/GenericCustomNamespace/1.0/">
	<!ENTITY ns_adobe_xpath "http://ns.adobe.com/XPath/1.0/">
]>
<svg version="1.1" id="Layer_1" xmlns:x="&ns_extend;" xmlns:i="&ns_ai;" xmlns:graph="&ns_graphs;"
	 xmlns="http://www.w3.org/2000/svg" xmlns:xlink="http://www.w3.org/1999/xlink" x="0px" y="0px" width="200px" height="200px"
	 viewBox="0 0 200 200" style="enable-background:new 0 0 200 200;" xml:space="preserve">
<style type="text/css">
	.st0{fill:#FFFFFF;}
</style>
<metadata>
	<sfw  xmlns="&ns_sfw;">
		<slices></slices>
		<sliceSourceBounds  bottomLeftOrigin="true" height="170" width="95.3" x="48.2" y="6.8"></sliceSourceBounds>
	</sfw>
</metadata>
<g>
	<path d="M73.7,52.2c7.2,2,14.8,2.3,13.9,2.3c2.9,0.2,6.3,0.4,10.2,0.4c20.9,0.4,23.3-3,23.4-3v-3.4l-0.1,0.1
		c-1.3,1.3-5.6,3.3-20.7,3.3c-0.9,0-1.8,0-2.8,0c-17.5-0.3-24-3-25.6-3.8c0,0.8,0,2.5,0,3.5c0.3,0.2,0.8,0.2,0.9,0.3
		C73,52,73.2,52.1,73.7,52.2z"/>
	<path d="M118.9,46.4V27.3c-0.1,0-0.1,0-0.2,0.1c-0.3-0.5-1.1-2-2.9-2.1c-2.5-0.4-13.6-1.2-18.8-1.2c-5.2,0-19,0.9-20.5,1.3
		c-0.8,0.2-1.3,0.9-1.7,1.4c-0.1,0-0.2-0.1-0.3-0.1v0.1l-0.4,19.8c-0.8,0.2-2,1-2.2,1.2c1.2,0.6,7.6,3.5,25.4,3.8
		c21.2,0.4,23.3-3,23.4-3.6C120.8,47.7,119.8,46.9,118.9,46.4z"/>
	<path d="M138.1,54.8l-16.8-2.2c-0.1,0.1-0.3,0.3-0.4,0.4c0,0.1-0.3,0.3-0.4,0.3c-2.7,1.6-8.3,2.3-18,2.3c-1.4,0-3,0-4.7-0.1
		c-21.1-0.4-25.8-3.2-26.1-3.3L71.4,52v-0.2c-4.5,0.4-17.7,1.6-19,2.7c-0.1,0-2,1.3-2.9,3.8h-0.2c-0.1,0.4-0.1,0.8-0.1,1.2
		c-0.1,4.2-0.4,120.5-0.4,121.6c0,0,0.2,3.1,2.1,5.2c1.3,1.3,10.7,5.1,10.7,5.1l0.1,0.1h0.1c0.2,0,0.3,0,0.4,0
		c0.1,0.1,0.1,0.1,0.1,0.2C64.2,192,68,192,68,192c4.2,0.1,50.2,0.3,50.6,0.3c0.1,0,4.1,0.1,5.6-0.1c0.1,0,0.2-0.1,0.3-0.2
		c0.1,0,0.1-0.1,0.2-0.1c0.2,0,0.3,0.1,0.4,0.1h0.1c0,0,0,0-0.1,0.1c0.1,0,0.2,0,0.3,0c0.7-0.1,1.5-0.2,2-0.3c2.7-0.8,9-2.6,9-2.6
		s4.1-2,4.2-7.4c0.1-5.5,1.8-117.5,1.9-122.3l0,0h0.3C142.7,58.6,142.1,55.3,138.1,54.8z M128.4,149.7c0,0,0,0.4,0,0.5v0.1
		c0,0.1-0.1,0.5-0.2,1.1c0,0.1-0.1,0.2-0.1,0.3c-0.3,0.8-1.1,1.2-1.6,1l-0.1-0.1L115,141.5v-0.1l-0.2-46.9c0,0.1-0.1-0.6-0.1-1
		c0.4-0.8,0.4-0.7,0.8-1.2l0.1-0.1l9.7-9l0.8-1l0.3-0.4c0.2-0.1,0.3-0.1,0.4,0c0.1,0,0.3,0,0.4,0h0.1c1.8,0.9,1.9,4.2,1.9,4.4
		L128.4,149.7z"/>
</g>
<path class="st0" d="M125.5,84l-9.7,8.9l-0.1,0.1l0,0c-0.4,0.4-0.4,0.3-0.8,1.2c0,0.4,0.1,1.1,0.1,1l0.2,46.5v0.1l11.4,11l0.1,0.1
	c0.5,0.2,1.3-0.2,1.6-1c0-0.1,0.1-0.2,0.1-0.3c0.2-0.5,0.2-1,0.2-1.1v-0.1c0-0.2,0-0.5,0-0.5l0.7-62.9c0-0.2-0.1-3.5-1.9-4.4l0,0
	h-0.1c-0.1,0-0.3,0-0.4,0c-0.1,0-0.2-0.1-0.3,0c0,0-0.1,0-0.1-0.1l0,0v0.1l-0.3,0.3l0,0L125.5,84z M126.8,83.1
	c1.7,0.4,1.8,3.9,1.8,4l-0.7,62.9c0,0,0,0.4,0,0.4v0.1c0,0,0,0.4-0.2,0.9c0,0.1-0.1,0.2-0.1,0.2c-0.2,0.5-0.6,0.7-0.9,0.6
	l-11.2-10.6L115.3,94c0.3-0.2,0.4-0.4,0.7-0.6l0.1-0.1l9.7-8.9L126.8,83.1z"/>
<path class="st0" d="M126.8,153.1c-0.1,0-0.3,0-0.4-0.1h-0.1l-0.2-0.1l-11.5-11.1v-0.2l-0.2-46.5c-0.1-0.2-0.1-0.4-0.1-1.1V94
	c0.3-0.6,0.4-0.7,0.6-1c0.1-0.1,0.1-0.1,0.2-0.2l0.2-0.2l9.7-8.9l0.5-0.6l0,0l0.5-0.5l0.4-0.2c0.1,0,0.2,0,0.3,0c0.2,0,0.3,0,0.4,0
	l0.5,0.3c1.5,1.2,1.7,4,1.7,4.4l-0.7,62.9l0,0c0,0,0,0.4,0,0.5v0.1c0,0.1-0.1,0.5-0.3,1.1c0,0.1-0.1,0.2-0.1,0.3
	C128.1,152.7,127.4,153.1,126.8,153.1z M126.7,152.6c0.1,0,0.3,0,0.4-0.1C127,152.6,126.8,152.6,126.7,152.6L126.7,152.6z
	 M115.8,141.4l11.1,10.6c0.2,0,0.4-0.2,0.5-0.5c0-0.1,0.1-0.2,0.1-0.2c0.2-0.4,0.2-0.9,0.2-0.9v-0.1c0-0.2,0-0.4,0-0.4l0.7-62.9
	c0-1.1-0.4-3.2-1.4-3.7l-0.9,1.1l-9.7,8.9l-0.1,0.1c-0.2,0.2-0.4,0.4-0.6,0.5L115.8,141.4z M127.9,151.7
	C127.9,151.7,127.9,151.7,127.9,151.7c0,0.1-0.1,0.2-0.1,0.2C127.9,151.8,127.9,151.8,127.9,151.7
	C127.9,151.7,127.9,151.7,127.9,151.7z M128.1,150L128.1,150L128.1,150z M128.9,87C128.9,87,128.9,87.1,128.9,87l-0.7,62.9l0,0
	L128.9,87C128.9,87.1,128.9,87,128.9,87z M115.3,141.6l7.7,7.4L115.3,141.6z M115.1,94l0.1,13L115.1,94L115.1,94z M115.8,93.1
	L115.8,93.1C115.8,93.2,115.8,93.1,115.8,93.1L115.8,93.1z M115.8,93.1L115.8,93.1L115.8,93.1l2.1-1.9L115.8,93.1z M126.3,83.2
	l-0.7,0.9l0,0L126.3,83.2z M127.1,82.9c0.3,0.1,0.4,0.3,0.6,0.4C127.6,83.2,127.4,83.1,127.1,82.9L127.1,82.9L127.1,82.9z M126.6,83
	l-0.1,0.2L126.6,83C126.6,82.9,126.6,82.9,126.6,83L126.6,83z"/>
<g>
	<path class="st0" d="M143.4,58.7c-0.3-2.1-1.6-4.5-5.2-4.9L122,51.7v-4c0-0.2-0.4-1-2.1-1.6V27.3c-0.1-0.1-0.9-2.6-3.7-3
		c-2.5-0.3-13.6-1.2-18.9-1.2c-5.3,0-19.1,0.9-20.7,1.3c-1.7,0.4-2.6,2.4-2.7,2.7l-0.4,19c-1,0.3-2.1,0.7-2.2,1.4
		c-0.1,0.4,0,2.3,0,3.5c-2.1,0.2-17.5,1.4-19.2,2.8c-0.1,0.1-2.4,1.3-3.3,4.1c0,0-0.3,0.8-0.3,1.1v1.4c-0.1,4.2-0.4,119.7-0.4,120.8
		c0,0.2,0.1,3.5,2.2,5.7c1.7,1.9,8.7,4.5,11.7,5.5l0.2,0.1c1.9,0.4,5.9,0.4,5.9,0.4c3.6,0.1,36.1,0.2,49.9,0.3h2.9
		c1.2,0,2.2,0,3-0.4c0.2,0,0.4,0,0.5-0.1c0.1,0,0.2,0,0.2,0c0.3,0,0.7-0.1,1.2-0.1c0.7-0.1,1.6-0.1,2.1-0.3c1.3-0.4,3.1-0.9,4.9-1.4
		c2.1-0.6,4-1.2,4-1.2s0.6-0.4,1.4-1c1.3-1.2,3.2-3.4,3.3-7.2c0.1-4.3,1.3-76,1.7-106.7c0.2-8.9,0.3-14.7,0.3-14.8L143.4,58.7z
		 M73.9,46.9c0.2-0.1,0.5-0.4,0.5-0.4l0.4-18.9c0,0,0-0.1,0-0.2c0.2-1,1.2-1.8,1.5-2c1.5-0.4,15.3-1.3,20.5-1.3
		c5.3,0,16.3,0.8,18.8,1.2c1.3,0.2,2.4,1.2,2.8,1.8c0.4,0.2,0.2,19.3,0.2,19.7c0,0,0.1,0,0.1,0.1c0,0,0,0,0.1,0.1
		c0,0,0.1,0.1,0.2,0.1s0.1,0,0.2,0.1c0,0,0.5,0.2,0.5,0.3c0.4,0.2,0.7,0.4,0.9,0.5c-0.4,0.7-3.5,3.6-23.1,3.3
		c-13.6-0.3-20.6-2-23.6-3c-0.1,0-0.5-0.1-0.5-0.2c-0.3-0.1-0.5-0.3-0.7-0.4C72.9,47.5,73.8,47,73.9,46.9z M72.2,48.5
		c2.1,1,8.9,3.4,25.3,3.7c16.3,0.3,21.6-1.7,23.3-3v2.7c-0.4,0.5-4,3.3-23.2,2.9c-3.7-0.1-7.1-0.2-10.1-0.4
		c-2.3-0.2-8.2-0.7-13.9-2.3c-0.3-0.1-0.5-0.2-0.7-0.2c-0.1-0.1-0.2-0.1-0.3-0.1c-0.2-0.1-0.4-0.1-0.5-0.2
		C72.2,51.5,72.2,48.5,72.2,48.5z M142.4,60.4l-0.1,3c-1.2,73.1-1.9,115.2-1.9,118.4c-0.1,4.9-3.6,6.9-4,7.2
		c-0.4,0.1-6.3,1.8-8.9,2.6c-0.3,0.1-0.9,0.1-1.4,0.2l0.2-0.2l-1,0.2c-0.1,0-0.3-0.1-0.4-0.1h-0.1l-0.1,0.1l-0.2,0.1
		c0,0-0.1,0.1-0.2,0.1c-1.5,0.2-5.5,0.1-5.5,0.1h-0.7c-13.8-0.1-46.3-0.3-49.9-0.3h-3.5c-0.8-0.1-1.5-0.2-2.1-0.3
		c0-0.1-0.1-0.1-0.1-0.2H62l-0.1-0.1c0,0-9.6-3.8-10.7-5.1c-1.9-2.1-2.1-5.2-2.1-5.2c0-1.2,0.3-116.6,0.4-120.7V60
		c0.1-0.7,0.2-1.5,0.2-1.5c0.7-2.4,2.5-3.6,2.8-3.8c1.1-0.9,12.5-2.1,18.6-2.6l0.3,0.2c0.2,0.2,5,3,26.2,3.4
		c1.6,0.1,3.2,0.1,4.7,0.1c9.8,0,15.5-0.7,18.2-2.3c0.2-0.1,0.4-0.2,0.5-0.4c0.2-0.1,0.3-0.2,0.4-0.3l16.7,2.2
		c3.5,0.4,4.4,2.8,4.5,4.3L142.4,60.4L142.4,60.4z"/>
	<path class="st0" d="M87.5,54.3C87.5,54.2,87.4,54.2,87.5,54.3L87.5,54.3z"/>
</g>
</svg>
