<?xml version="1.0" encoding="utf-8"?>
<!-- Generator: Adobe Illustrator 27.9.0, SVG Export Plug-In . SVG Version: 6.00 Build 0)  -->
<!DOCTYPE svg PUBLIC "-//W3C//DTD SVG 1.1//EN" "http://www.w3.org/Graphics/SVG/1.1/DTD/svg11.dtd" [
	<!ENTITY ns_extend "http://ns.adobe.com/Extensibility/1.0/">
	<!ENTITY ns_ai "http://ns.adobe.com/AdobeIllustrator/10.0/">
	<!ENTITY ns_graphs "http://ns.adobe.com/Graphs/1.0/">
	<!ENTITY ns_vars "http://ns.adobe.com/Variables/1.0/">
	<!ENTITY ns_imrep "http://ns.adobe.com/ImageReplacement/1.0/">
	<!ENTITY ns_sfw "http://ns.adobe.com/SaveForWeb/1.0/">
	<!ENTITY ns_custom "http://ns.adobe.com/GenericCustomNamespace/1.0/">
	<!ENTITY ns_adobe_xpath "http://ns.adobe.com/XPath/1.0/">
]>
<svg version="1.1" id="Layer_1" xmlns:x="&ns_extend;" xmlns:i="&ns_ai;" xmlns:graph="&ns_graphs;"
	 xmlns="http://www.w3.org/2000/svg" xmlns:xlink="http://www.w3.org/1999/xlink" x="0px" y="0px" width="200px" height="200px"
	 viewBox="0 0 200 200" style="enable-background:new 0 0 200 200;" xml:space="preserve">
<style type="text/css">
	.st0{fill:none;}
	.st1{fill:#FFFFFF;}
</style>
<metadata>
	<sfw  xmlns="&ns_sfw;">
		<slices></slices>
		<sliceSourceBounds  bottomLeftOrigin="true" height="190" width="85.9" x="57.1" y="5"></sliceSourceBounds>
	</sfw>
</metadata>
<g>
	<g>
		<path d="M103.8,31.6l0.2-5.4c0,0-1.5-1.1-2.1-0.9c0,0-0.1,0-0.1,0c0-6.2,0-16,0-16.9c0-1.3-3-2.2-4.3-2.5
			c-1.3-0.3-9.2-0.7-14.8-0.2c-5.6,0.5-5.7,2.9-5.7,2.9s-0.2,10.2-0.3,16.6c-0.3-0.2-0.4-0.3-0.4-0.3s-1.5,0.5-1.5,1.3
			c-0.1,0.6,0,3.7,0.1,5.1c0,0,0-0.1,0-0.1l0,1.9c0,0-1.4,0.4,5.3,1.8c6.7,1.3,15.8,0.4,19,0c3.2-0.4,4.9-1.6,4.9-1.6l0-1.9
			C103.9,31.5,103.8,31.5,103.8,31.6z"/>
		<path d="M103.9,31.2l0,0.2C104,31.3,103.9,31.2,103.9,31.2z"/>
	</g>
	<path class="st0" d="M103.1,27.1h0.5l0-0.3C103.6,26.9,103.4,27,103.1,27.1z"/>
	<path class="st0" d="M89.6,9.8c6.7-0.1,10.9-1.3,11.9-1.5c-0.3-0.9-2.3-1.6-4.1-2.1C96,5.9,88.1,5.5,82.6,6.1
		c-4.3,0.4-5.2,1.9-5.4,2.4C78.3,8.8,82.9,10,89.6,9.8z"/>
	<path class="st0" d="M101.4,25.3c0,0,0.1,0,0.1-0.1V8.9c-1.2,0.3-5.3,1.4-11.9,1.5c-0.3,0-0.7,0-1,0c-6.1,0-10.3-1-11.5-1.4
		c-0.1,4.8-0.2,11.5-0.2,16.1c1.1,0.7,4.3,2,12.4,2.1C98.5,27.2,100.6,25.8,101.4,25.3z"/>
	<path class="st0" d="M76.9,25.7c-0.2-0.1-0.4-0.2-0.5-0.3c-0.1-0.1-0.2-0.1-0.2-0.2c-0.3,0.1-0.9,0.4-1.1,0.8
		c0.2,0.2,0.6,0.4,1.3,0.8c0.2,0.1,0.3,0.2,0.5,0.2c0.1,0.1,0.3,0.1,0.5,0.2h4.4C79.2,26.7,77.7,26.1,76.9,25.7z"/>
	<path class="st0" d="M102,27.1c0.8-0.3,1.3-0.6,1.6-0.8c-0.5-0.3-1.2-0.7-1.6-0.7c0,0-0.1,0-0.1,0c-0.1,0-0.1,0.1-0.3,0.2
		c-0.1,0-0.1,0.1-0.2,0.1c-0.5,0.3-1.5,0.9-3.8,1.3h4.2C101.9,27.1,101.9,27.1,102,27.1z"/>
	<path class="st0" d="M74.9,26.6c0,0.2,0,0.4,0,0.6h1C75.5,26.9,75.2,26.7,74.9,26.6z"/>
	<path d="M101.5,27.3c0.1,0,0.3-0.1,0.4-0.1h-4.2c-1.8,0.3-4.3,0.5-8,0.5c-0.1,0-0.2,0-0.3,0c-3.2,0-5.7-0.2-7.5-0.5h-4.4
		c2.1,0.8,5.9,1.6,12.2,1.6C95.9,28.7,99.5,28,101.5,27.3z"/>
	<path d="M58.6,86l-0.7,7.7c0,0.3,0,0.5,0,0.8l0.8,88.2c0,1.5,0.5,2.9,1.3,4.1l0.5,0.8c0.8,1.2,1.9,2.1,3.2,2.6l8.5,3.6
		c0.9,0.4,1.9,0.6,3,0.6l44.6-0.7c1,0,1.9-0.2,2.9-0.6l13.6-6c1.6-0.7,2.9-2,3.7-3.5l0.9-1.8c0.5-1,0.7-2,0.7-3.1l0.7-85.6
		c0-1-0.2-2.1-0.6-3l-1.6-3.6c-0.2-0.4-0.4-0.8-0.7-1.2L104,33.9c0-0.1-0.1-0.1-0.1-0.1c-0.6,0.3-2.2,1.1-4.8,1.4
		c-1.7,0.2-6,0.7-10.6,0.7c-2.8,0-5.8-0.2-8.5-0.7c-3.2-0.6-4.5-1.1-5.1-1.4L58.9,84.5C58.8,84.9,58.7,85.4,58.6,86z"/>
	<path d="M75.3,33.4c0.5,0.2,1.8,0.6,4.8,1.2C87,36,96.3,35,99,34.6c1.6-0.2,2.8-0.6,3.6-0.9c0.5-0.2,0.9-0.4,1.1-0.5l0-0.1l0-0.8
		c-0.5,0.3-1.4,0.7-3.3,1.1c-1.7,0.4-4,0.7-7.3,0.9c-0.9,0-1.9,0.1-3,0.1c-1.5,0-2.8,0-4-0.1c-4.2-0.2-7.1-0.7-8.9-1.2
		c-1.1-0.3-1.8-0.5-2.2-0.7l0,0.5l0,0.2c0,0.1,0,0.1,0,0.1C75,33.3,75.1,33.4,75.3,33.4z"/>
	<path d="M102,27.7c-0.2,0.1-0.3,0.1-0.5,0.2c-2.1,0.7-5.7,1.4-11.9,1.4c-6.7,0-10.6-0.9-12.7-1.7c-0.2-0.1-0.4-0.1-0.5-0.2
		c-0.1-0.1-0.3-0.1-0.4-0.2h-1c0,1.1,0.1,3,0.1,4c0,0.3,0,0.6,0,0.7c0.8,0.3,5.3,2,15,2c9.6,0,12.9-1.7,13.5-2.1l0-0.3l0.2-4.3h-0.5
		C102.8,27.3,102.5,27.5,102,27.7z"/>
	<g>
		<path class="st1" d="M142,89.6l-1.6-3.6c-0.2-0.5-0.4-0.9-0.7-1.3l-35.3-51.1c0,0,0,0,0,0c-0.1-0.1-0.1-0.2-0.2-0.2l0-1.8
			c0,0,0,0,0,0c0.1-0.2,0-0.3-0.1-0.4l0.1-3.9l0-0.9c0,0,0,0,0,0c0,0,0-0.1,0-0.1c0,0,0,0,0,0c0,0,0-0.1-0.1-0.1c0,0,0,0,0,0
			c-0.2-0.2-1.4-1-2.1-0.9V8.5c0-1.5-2.8-2.4-4.5-2.8C96.1,5.4,88.1,5,82.6,5.5c-5.8,0.5-5.9,3-6,3.2c-0.1,4.4-0.2,11.2-0.2,16
			c-0.1-0.1-0.2-0.1-0.2,0c-0.1,0-1.2,0.4-1.6,1.1c-0.1,0.1-0.1,0.2-0.1,0.3c0,0,0,0,0,0c0,0.2,0,0.5,0,1c0,1.1,0.1,2.9,0.1,4
			c0,0,0,0.1,0,0.1l0,1.7c-0.1,0.1-0.1,0.2-0.1,0.3c0,0.1,0,0.1,0,0.2c0,0.1-0.1,0.1-0.1,0.2L58.4,84.3c-0.2,0.5-0.3,1.1-0.3,1.6
			l-0.7,7.7c0,0.3,0,0.5,0,0.8l0.8,88.2c0,1.6,0.5,3.1,1.4,4.4l0.5,0.8c0.9,1.2,2,2.2,3.4,2.8l8.5,3.6c1,0.4,2,0.6,3.1,0.6
			c0,0,0.1,0,0.1,0l44.6-0.7c1.1,0,2.1-0.2,3.1-0.7l13.6-6c1.7-0.8,3.1-2.1,3.9-3.8l0.9-1.8c0.5-1,0.8-2.2,0.8-3.3l0.7-85.6
			C142.7,91.7,142.5,90.6,142,89.6z M82.6,6.1C88.1,5.5,96,5.9,97.3,6.3c1.8,0.4,3.8,1.2,4.1,2.1c-1,0.3-5.1,1.4-11.9,1.5
			C82.9,10,78.3,8.8,77.2,8.5C77.4,7.9,78.3,6.5,82.6,6.1z M77.2,9c1.2,0.3,5.4,1.4,11.5,1.4c0.3,0,0.6,0,1,0
			c6.5-0.1,10.7-1.2,11.9-1.5v16.4c0,0-0.1,0-0.1,0.1c-0.8,0.5-2.8,1.9-12,1.8c-8.1,0-11.3-1.4-12.4-2.1C77,20.5,77.1,13.9,77.2,9z
			 M76.2,25.2c0.1,0,0.1,0.1,0.2,0.2c0.1,0.1,0.3,0.2,0.5,0.3c0.8,0.4,2.3,1,4.9,1.4c1.9,0.3,4.3,0.5,7.5,0.5c0.1,0,0.2,0,0.3,0
			c3.7,0,6.2-0.2,8-0.5c2.3-0.4,3.3-0.9,3.8-1.3c0.1,0,0.1-0.1,0.2-0.1c0.1-0.1,0.2-0.1,0.3-0.2c0,0,0.1,0,0.1,0
			c0.3,0,1,0.3,1.6,0.7c-0.2,0.2-0.7,0.5-1.6,0.8c0,0-0.1,0-0.2,0.1c-0.1,0-0.2,0.1-0.4,0.1c-2,0.7-5.6,1.4-11.9,1.4
			c-6.4,0-10.1-0.8-12.2-1.6C77.2,27.1,77,27,76.9,27c-0.2-0.1-0.4-0.2-0.5-0.2c-0.7-0.3-1.1-0.6-1.3-0.8
			C75.3,25.6,75.8,25.4,76.2,25.2z M74.9,26.6c0.2,0.2,0.6,0.4,1,0.6c0.1,0.1,0.3,0.1,0.4,0.2c0.2,0.1,0.3,0.1,0.5,0.2
			c2.1,0.8,6,1.7,12.7,1.7c6.1,0,9.8-0.7,11.9-1.4c0.2-0.1,0.4-0.1,0.5-0.2c0.5-0.2,0.8-0.4,1.2-0.5c0.2-0.1,0.4-0.2,0.5-0.3l0,0.3
			l-0.2,4.3l0,0.3c-0.6,0.4-3.8,2.1-13.5,2.1c-9.7,0-14.2-1.6-15-2c0-0.2,0-0.4,0-0.7c0-1.1-0.1-2.9-0.1-4
			C74.9,26.9,74.9,26.7,74.9,26.6z M75,32.9l0-0.5c0.4,0.1,1.1,0.4,2.2,0.7c1.8,0.5,4.7,1,8.9,1.2c1.2,0.1,2.6,0.1,4,0.1
			c1.1,0,2.1,0,3-0.1c3.3-0.1,5.6-0.5,7.3-0.9c1.8-0.4,2.8-0.9,3.3-1.1l0,0.8l0,0.1c-0.2,0.1-0.5,0.3-1.1,0.5
			c-0.8,0.3-2,0.7-3.6,0.9C96.3,35,87,36,80,34.6c-3-0.6-4.2-1-4.8-1.2c-0.1-0.1-0.2-0.1-0.3-0.1c0,0,0-0.1,0-0.1L75,32.9z
			 M141.5,178.5c0,1.1-0.3,2.2-0.7,3.1l-0.9,1.8c-0.8,1.6-2.1,2.8-3.7,3.5l-13.6,6c-0.9,0.4-1.9,0.6-2.9,0.6l-44.6,0.7
			c-1,0-2-0.2-3-0.6l-8.5-3.6c-1.3-0.5-2.4-1.4-3.2-2.6l-0.5-0.8c-0.8-1.2-1.3-2.6-1.3-4.1l-0.8-88.2c0-0.3,0-0.5,0-0.8l0.7-7.7
			c0-0.5,0.2-1,0.3-1.5l15.9-50.7c0.6,0.3,2,0.7,5.1,1.4c2.6,0.5,5.6,0.7,8.5,0.7c4.7,0,8.9-0.5,10.6-0.7c2.6-0.3,4.2-1.1,4.8-1.4
			c0.1,0,0.1,0.1,0.1,0.1L139.2,85c0.3,0.4,0.5,0.8,0.7,1.2l1.6,3.6c0.4,1,0.6,2,0.6,3L141.5,178.5z"/>
		<path class="st1" d="M75,195c-1.1,0-2.2-0.2-3.2-0.6l-8.5-3.6c-1.4-0.6-2.7-1.6-3.5-2.9l-0.5-0.8c-0.9-1.3-1.4-2.9-1.4-4.5
			l-0.8-88.2c0-0.3,0-0.6,0-0.8l0.7-7.7c0.1-0.6,0.2-1.1,0.3-1.7L74,33.6c0,0,0-0.1,0-0.1c0-0.1,0-0.1,0-0.1c0-0.1,0-0.3,0.1-0.4
			l0-1.6c0-0.1,0-0.1,0-0.2c0-0.8-0.1-2.7-0.1-3.9c0-0.5,0-0.9,0-1l0-0.1c0-0.1,0.1-0.3,0.1-0.4c0.4-0.8,1.5-1.2,1.8-1.2
			c0,0,0,0,0.1,0c0.1-4.8,0.2-11.4,0.2-15.7c0-0.3,0.3-2.9,6.2-3.4c5.6-0.5,13.6-0.1,15,0.2c2.2,0.5,4.7,1.5,4.7,3v16.3
			c0.8,0.1,1.8,0.8,2,1l0,0c0,0,0.1,0.1,0.1,0.1l0,0.1c0,0,0,0.1,0,0.1l0,0l0,1l-0.1,3.8c0.1,0.1,0.1,0.3,0.1,0.6l0,1.7
			c0.1,0.1,0.1,0.1,0.2,0.2l35.3,51.1c0.3,0.4,0.5,0.9,0.8,1.4l1.6,3.6c0.5,1.1,0.7,2.2,0.7,3.3l-0.7,85.6c0,1.2-0.3,2.4-0.8,3.5
			l-0.9,1.8c-0.8,1.8-2.3,3.2-4.1,3.9l-13.6,6c-1,0.4-2.1,0.7-3.2,0.7L75,195z M72.7,194.1c0.7,0.2,1.5,0.3,2.3,0.3l0.1,0
			C74.3,194.5,73.5,194.4,72.7,194.1z M121,193.7c-0.4,0.1-0.8,0.1-1.2,0.1l-44.6,0.7c0,0,0,0,0,0h0l44.6-0.7
			C120.2,193.8,120.6,193.8,121,193.7z M75,34.2L59.2,84.5c-0.1,0.5-0.2,1-0.3,1.4l-0.7,7.7c0,0.2,0,0.5,0,0.7l0.8,88.2
			c0,1.4,0.4,2.8,1.2,3.9l0.5,0.8c0.8,1.1,1.8,2,3.1,2.5l8.5,3.6c0.9,0.4,1.9,0.6,2.9,0.6l44.6-0.7c1,0,1.9-0.2,2.7-0.6l13.6-6
			c1.5-0.7,2.8-1.9,3.5-3.4l0.9-1.8c0.4-0.9,0.7-2,0.7-3l0.7-85.6c0-1-0.2-2-0.6-2.9l-1.6-3.6c-0.2-0.4-0.4-0.8-0.7-1.2l-35.3-51.1
			c-0.7,0.4-2.3,1.1-4.7,1.4c-1.6,0.2-5.9,0.7-10.7,0.7c-3.3,0-6.2-0.2-8.5-0.7C77.5,34.9,75.8,34.5,75,34.2z M121,193.7
			C121,193.7,121,193.7,121,193.7C121,193.7,121,193.7,121,193.7z M121.5,193.6C121.5,193.6,121.5,193.6,121.5,193.6
			C121.5,193.6,121.5,193.6,121.5,193.6z M141.7,178.5c0,1.1-0.3,2.2-0.7,3.2l-0.9,1.8c-0.8,1.6-2.1,2.9-3.8,3.7l-13.6,6
			c-0.4,0.2-0.8,0.3-1.2,0.4c0.4-0.1,0.8-0.2,1.2-0.4l13.6-6c1.7-0.7,3-2,3.8-3.7l0.9-1.8C141.5,180.7,141.7,179.6,141.7,178.5
			l0.7-85.6c0-0.1,0-0.2,0-0.3c0,0.1,0,0.2,0,0.3L141.7,178.5z M57.6,94.4C57.6,94.4,57.6,94.4,57.6,94.4l0.8,88.2
			c0,1.5,0.5,3,1.3,4.2l0.5,0.8c0.1,0.1,0.1,0.2,0.2,0.3c-0.1-0.1-0.1-0.2-0.2-0.3l-0.5-0.8c-0.9-1.3-1.3-2.7-1.3-4.2L57.6,94.4
			C57.6,94.4,57.6,94.4,57.6,94.4z M139.6,85.1c0.2,0.3,0.4,0.7,0.5,1l1.6,3.6c0.1,0.3,0.2,0.6,0.3,0.9c-0.1-0.3-0.2-0.6-0.3-0.9
			l-1.6-3.6C140,85.7,139.8,85.4,139.6,85.1z M139.6,85.1C139.6,85.1,139.6,85.1,139.6,85.1C139.6,85.1,139.6,85.1,139.6,85.1z
			 M74.6,33.7C74.6,33.7,74.6,33.7,74.6,33.7l-5.4,17.1L74.6,33.7z M75.3,33.1C75.3,33.1,75.3,33.2,75.3,33.1
			c0.6,0.3,1.9,0.7,4.8,1.2c6.9,1.4,16.2,0.3,18.8,0c1.3-0.2,2.5-0.5,3.5-0.9c0.4-0.2,0.7-0.3,0.9-0.4l0-0.3c-0.6,0.3-1.5,0.6-2.9,1
			c-2,0.5-4.5,0.8-7.4,0.9c-1,0-2,0.1-3,0.1c-1.4,0-2.7,0-4-0.1c-4.3-0.2-7.3-0.8-8.9-1.2c-0.8-0.2-1.4-0.4-1.8-0.5L75.3,33.1
			L75.3,33.1z M103.9,31.8l0,1.5l-0.1,0.1c-0.1,0.1-0.5,0.3-1.1,0.5c-1.1,0.4-2.3,0.8-3.6,0.9c-0.4,0-0.8,0.1-1.4,0.2
			c0.6-0.1,1-0.1,1.4-0.2c2.5-0.3,4.1-1.1,4.7-1.4l0.1-0.1l0.1,0.1c0,0,0,0,0,0l-0.1-0.1l0-2l0,0c0-0.1,0-0.2,0-0.2l-0.1-0.1
			l0.2-4.9l0,0l-0.3,0.2c-0.3,0.2-0.8,0.5-1.6,0.9l-0.2,0.1c-0.1,0.1-0.3,0.1-0.4,0.1c-1.9,0.7-5.5,1.5-11.9,1.5
			c6.3,0,9.9-0.8,11.8-1.4c0.2-0.1,0.4-0.1,0.5-0.2c0.4-0.2,0.8-0.3,1.1-0.5c0.2-0.1,0.4-0.2,0.5-0.3l0.4-0.3l-0.2,5.6l-0.1,0.1
			c-0.5,0.3-3.5,1.9-12.1,2.1c0.5,0,1,0,1.5,0c2.8-0.1,5.3-0.4,7.3-0.9c1.8-0.4,2.8-0.9,3.2-1.1L103.9,31.8z M75.8,33.9
			c0.7,0.2,1.7,0.5,3,0.8C77.3,34.3,76.4,34.1,75.8,33.9z M90.1,34.1C90.1,34.1,90.1,34.1,90.1,34.1C90.1,34.1,90.1,34.1,90.1,34.1z
			 M74.7,32.1l0.4,0.1c0.4,0.2,1.1,0.4,2.1,0.7c1.5,0.4,4.2,0.9,8,1.1c-6.5-0.4-9.6-1.6-10.3-1.8L74.7,32.1l0-0.9
			c0-0.7-0.1-1.8-0.1-2.8c0,1,0.1,2.1,0.1,2.7l0,0.1l0,0.1L74.7,32.1z M75.3,31.7c1.1,0.4,5.6,1.9,14.7,1.9c9,0,12.4-1.5,13.2-2
			l0.2-4.3c0,0-0.1,0-0.1,0.1c-0.4,0.2-0.7,0.4-1.2,0.5c-0.2,0.1-0.4,0.1-0.5,0.2c-2.8,0.9-6.8,1.4-12,1.4c-6.9,0-10.8-0.9-12.8-1.7
			c-0.2-0.1-0.4-0.1-0.5-0.2c-0.2-0.1-0.3-0.1-0.4-0.2c-0.2-0.1-0.4-0.2-0.6-0.3c0,0,0,0.1,0,0.1c0,1.2,0.1,3,0.1,4L75.3,31.7z
			 M74.7,33.4l0.2,0.1c0,0,0,0,0,0L74.7,33.4L74.7,33.4z M74.7,32.9l0,0.2l-0.1,0.1c0,0,0,0.1,0,0.1c0,0,0,0.1,0,0.1l0.1-0.2
			L74.7,32.9z M74.7,26.1l0.4,0.3c0.3,0.2,0.6,0.4,1,0.6c0.1,0.1,0.3,0.1,0.4,0.2c0.2,0.1,0.3,0.1,0.5,0.2c2,0.8,5.8,1.7,12.6,1.7
			c-6.5,0-10.3-0.9-12.3-1.6c-0.2-0.1-0.3-0.1-0.5-0.2c-0.2-0.1-0.4-0.2-0.5-0.2c-0.7-0.3-1.1-0.6-1.4-0.8L74.7,26.1
			C74.7,26.1,74.7,26.1,74.7,26.1z M89.6,29C89.6,29,89.6,29,89.6,29C89.6,29,89.6,29,89.6,29z M75.4,25.9c0.2,0.1,0.6,0.3,1,0.6
			c0.2,0.1,0.3,0.1,0.5,0.2c0.1,0.1,0.3,0.1,0.5,0.2c2,0.7,5.7,1.6,12.1,1.6c6.4,0,9.9-0.8,11.8-1.4c0.1,0,0.2-0.1,0.3-0.1l0.2-0.1
			c0.5-0.2,0.9-0.4,1.2-0.6c-0.5-0.3-0.9-0.4-1-0.4c0,0-0.1,0.1-0.2,0.1c-0.1,0-0.1,0.1-0.2,0.1c-0.6,0.4-1.6,0.9-3.9,1.3
			c-2.1,0.4-4.8,0.5-8.1,0.5l-0.3,0c-2.9,0-5.4-0.2-7.6-0.5c-2.7-0.4-4.2-1-5-1.5c-0.2-0.1-0.4-0.2-0.6-0.3c0,0-0.1,0-0.1-0.1
			C75.9,25.6,75.6,25.8,75.4,25.9z M89.5,27.4h0.1c2,0,3.8-0.1,5.3-0.2C93.5,27.3,91.7,27.4,89.5,27.4z M89,27.4c0.1,0,0.2,0,0.4,0
			h0C89.2,27.4,89.1,27.4,89,27.4z M77.2,24.9c1.1,0.6,4.4,1.9,12.1,1.9c0.1,0,0.2,0,0.3,0c8.9,0,10.9-1.3,11.6-1.8V9.2
			c-1.5,0.4-5.5,1.3-11.6,1.4C83.4,10.8,79,9.8,77.4,9.4C77.3,14.1,77.3,20.5,77.2,24.9z M76.2,24.9L76.2,24.9
			c0.1,0.1,0.2,0.2,0.3,0.2c0.1,0.1,0.3,0.2,0.5,0.3c0.5,0.3,1.3,0.6,2.6,1c-1.4-0.4-2.3-0.8-2.9-1.1l-0.1-0.1L76.2,24.9z
			 M101.5,25.5L101.5,25.5c-0.3,0.2-0.7,0.5-1.5,0.8c0.6-0.2,1-0.5,1.3-0.6C101.4,25.6,101.5,25.6,101.5,25.5
			C101.5,25.5,101.5,25.5,101.5,25.5z M102.7,25.5c0.4,0.2,0.9,0.4,1,0.6l0.1,0.1C103.5,25.9,103.1,25.6,102.7,25.5z M74.8,25.8
			C74.8,25.8,74.8,25.8,74.8,25.8L74.8,25.8C74.8,25.8,74.8,25.8,74.8,25.8z M75.7,25.1c-0.2,0.1-0.5,0.3-0.7,0.4
			C75.3,25.4,75.5,25.2,75.7,25.1z M101.7,8.5v16.9l0,0c0,0,0.1-0.1,0.1-0.1c0,0,0,0,0.1,0l-0.2,0V8.5l-0.2,0.1L101.7,8.5z
			 M76.9,8.7C76.9,8.7,76.9,8.7,76.9,8.7c-0.1,4.2-0.2,10.6-0.2,15.4c0.1-4.5,0.2-10.5,0.2-15L76.9,8.7z M85,10
			c1.4,0.1,2.9,0.1,4.6,0.1c0.3,0,0.5,0,0.8,0c-0.3,0-0.5,0-0.8,0C87.9,10.1,86.4,10.1,85,10z M77.6,8.3c1.6,0.4,5.8,1.4,12,1.3
			c6.1-0.1,10-1,11.5-1.4c-0.5-0.6-1.9-1.2-3.8-1.6c-1.3-0.3-9.1-0.7-14.6-0.2l0,0C79.1,6.7,78,7.7,77.6,8.3z M76.9,8.7L76.9,8.7
			L76.9,8.7C76.9,8.7,76.9,8.7,76.9,8.7z M101.7,8.2C101.7,8.2,101.7,8.2,101.7,8.2L101.7,8.2C101.7,8.2,101.7,8.2,101.7,8.2z
			 M97.5,6c1,0.2,3.3,0.9,4,1.9C101,7.2,99.7,6.5,97.5,6z M88.8,5.5c-2.1,0-4.3,0.1-6.2,0.2c-0.3,0-0.7,0.1-1,0.1
			c0.3,0,0.6-0.1,1-0.1l0,0c4.3-0.4,10.1-0.2,13.1,0C94,5.6,91.5,5.5,88.8,5.5z"/>
	</g>
</g>
</svg>
