<?xml version="1.0" encoding="UTF-8"?><svg id="a" xmlns="http://www.w3.org/2000/svg" viewBox="0 0 200 200"><defs><style>.b{fill:#8f8f8f;}</style></defs><path class="b" d="m89.55,1c3.57.49,7.15.89,10.72,1.58,17.17,3.27,31.87,11.18,44.08,23.65,11.12,11.28,18.37,24.64,21.54,40.07,3.97,19.59,1.29,38.29-8.64,55.81-2.88,5.05-6.55,9.5-9.93,14.25-.4.49-.79.99-1.59,1.98.6.4,1.29.69,1.79,1.19,16.28,15.93,32.46,31.86,48.74,47.79,1.89,1.88,3.18,3.86,2.58,6.63-.6,2.67-2.48,4.06-4.86,5.05h-2.68c-1.49-1.09-3.18-1.88-4.47-3.17-16.28-15.93-32.46-31.86-48.74-47.79l-1.29-1.29c-.6.4-1.09.69-1.59,1.09-10.72,8.21-22.83,13.56-36.14,15.83-19.85,3.36-38.82.4-56.39-9.7-18.27-10.49-30.97-25.73-37.72-45.72-1.99-5.94-3.28-12.07-3.67-18.31,0-.49-.2-.99-.3-1.48v-10.79c.1-.59.3-1.09.4-1.68.5-3.27.79-6.53,1.49-9.7,3.28-15.34,10.42-28.6,21.34-39.78C36.34,13.86,51.13,5.85,68.41,2.58c3.38-.69,6.85-1.09,10.32-1.58h10.82ZM13.71,82.54c.2,2.87.1,5.24.4,7.62,1.79,15.04,7.54,28.3,18.07,39.28,18.17,19.1,40.6,26.22,66.32,21.27,22.63-4.35,39.51-17.42,49.44-38.29,10.13-21.08,9.43-42.35-1.79-62.64-11.62-20.88-29.88-32.75-53.51-35.62-18.66-2.28-35.94,2.28-50.93,13.66-18.27,13.75-27.3,32.36-27.9,54.62l-.1.1Z"/></svg>