<?xml version="1.0" encoding="UTF-8"?><svg id="a" xmlns="http://www.w3.org/2000/svg" viewBox="0 0 200 200"><defs><style>.b{fill:#8f8f8f;}</style></defs><path class="b" d="m147.34,1c.4.2.79.3,1.19.49,6.23,1.78,10.59,6.92,10.68,13.45.2,12.86.1,25.72.1,38.68,0,2.08-1.29,3.26-3.07,3.26-1.78-.1-2.77-1.19-2.77-3.26V16.93c0-6.63-3.36-9.99-9.99-9.99H47.62c-1.98,0-2.97.99-2.97,2.87v22.56c0,7.12-4.06,11.08-11.18,11.08H8.24c-.1.99-.1,1.88-.1,2.67v137.61c0,6.03,3.46,9.4,9.5,9.4h126.13c6.23,0,9.6-3.46,9.6-9.69v-2.87c.1-1.68,1.19-2.57,2.77-2.67,1.58-.1,2.57.79,2.87,2.28,2.37,9.4-4.75,18.8-14.34,18.8-42.74.1-85.38,0-128.11,0-8.21,0-14.34-6.33-14.34-14.74v-79.24c0-19.49.1-38.88,0-58.37,0-4.95,1.58-8.9,5.14-12.37,8.8-8.71,17.51-17.41,26.02-26.12,3.17-3.17,6.33-6.03,10.78-7.12h103.18ZM12.7,37.6c7.32,0,14.64.1,21.86,0,2.77,0,4.25-1.78,4.25-4.65V12.67c0-.4-.2-.79-.2-.99-8.61,8.61-17.21,17.21-25.92,25.92Z"/><path class="b" d="m136.06,145.04c-6.53-1.78-9.3-5.05-10.09-11.57-.3-2.57-1.78-4.15-4.15-5.05-4.25-1.78-6.73-5.05-7.22-9.69-.3-2.47.2-4.85,1.58-7.02,1.68-2.67,1.58-5.05,0-7.72-3.66-6.13-1.19-13.65,5.34-16.42,2.87-1.19,4.25-3.17,4.55-6.23.69-7.12,7.02-11.77,13.95-10.19,3.17.69,5.44-.1,7.52-2.47,4.75-5.34,12.66-5.24,17.31.1,1.98,2.28,4.15,3.07,7.22,2.37,7.32-1.58,13.45,2.97,14.15,10.39.3,2.87,1.68,4.75,4.35,6.03,6.83,2.97,9.2,10.39,5.44,16.72-1.48,2.57-1.58,4.85,0,7.42,3.76,6.43,1.38,13.95-5.54,16.82-2.67,1.19-4.06,3.07-4.25,5.84-.49,5.34-3.36,8.8-8.41,10.29-1.38.4-1.48.99-1.48,2.18v23.94c0,3.86-2.08,6.53-5.54,6.73-1.38.1-2.97-.4-4.15-1.09-3.07-1.68-5.94-3.56-8.9-5.44-1.09-.69-1.88-.79-3.07-.1-2.87,1.88-5.84,3.56-8.71,5.34-2.28,1.38-4.55,1.78-6.92.4-2.28-1.29-3.17-3.46-3.07-6.03v-23.35c.1-.69.1-1.38.1-2.18h0Zm56.09-46.4c-.1-3.26-1.38-5.05-3.86-6.13-4.65-1.88-7.12-5.34-7.72-10.39-.49-4.45-3.36-6.43-7.62-5.44-4.75,1.09-8.71-.2-11.97-3.86-2.87-3.26-6.63-3.36-9.5-.1-3.17,3.66-7.12,5.05-11.97,3.96-4.55-.99-7.42,1.19-7.82,5.74-.4,4.55-2.67,7.82-6.83,9.79-4.85,2.18-5.84,5.14-3.26,9.69,2.18,3.86,2.18,7.82,0,11.77-2.57,4.55-1.58,7.52,3.17,9.69,4.06,1.88,6.33,5.05,6.83,9.4.59,5.14,3.17,7.12,8.21,6.03,4.35-.89,8.31.1,10.98,3.56,2.77,3.56,7.72,3.66,10.49.1,2.67-3.46,6.73-4.75,10.98-3.56,4.85,1.29,8.21-1.78,8.41-6.03.2-4.65,2.97-7.82,7.22-9.69,4.15-1.78,5.24-5.24,3.07-9.1-2.47-4.15-2.47-8.41,0-12.56.69-.99.99-2.18,1.19-2.87h0Zm-50.16,73.21c2.77-1.68,5.44-2.97,7.62-4.75,4.55-3.66,8.8-3.66,13.36,0,2.18,1.78,4.85,3.07,7.52,4.75v-27.4c-2.08-.2-3.76.49-4.95,1.98-4.55,6.03-13.95,6.23-18.7,0-1.19-1.58-2.87-2.28-4.95-1.98l.1,27.4h0Z"/><path class="b" d="m98.47,20.98h28.79c4.95,0,7.32,2.47,7.42,7.32v7.52c0,5.05-2.47,7.52-7.62,7.52h-39.37c-2.08-.1-3.36-1.29-3.26-3.07.1-1.68,1.29-2.67,3.36-2.67h38.58c1.68,0,2.47-.89,2.47-2.57,0-2.18-.1-4.35,0-6.53,0-1.19-.3-1.68-1.58-1.68h-57.58c-1.19,0-1.78.3-1.68,1.58.1,2.47.1,5.05,0,7.52,0,1.29.49,1.78,1.68,1.68,1.39-.1,2.67,0,4.06,0,1.68.1,2.57.99,2.77,2.67.2,1.48-.89,2.97-2.57,3.07-2.08.1-4.25.2-6.33-.1-3.17-.4-5.24-2.87-5.34-6.13-.1-3.17-.1-6.43,0-9.69.1-3.96,2.77-6.43,6.73-6.43h29.48Z"/><path class="b" d="m64.04,111.9h35.91c.69,0,1.68-.2,2.08.2.79.69,1.78,1.68,1.98,2.77.3,1.39-.69,2.37-2.08,2.77-.69.2-1.39.1-2.08.1H27.63c-2.08-.1-3.36-1.19-3.46-2.87,0-1.68,1.29-2.87,3.36-2.87h29.78c2.18-.1,4.45-.1,6.73-.1Z"/><path class="b" d="m64.04,97.26H28.52c-.59,0-1.29,0-1.98-.1-1.48-.2-2.47-1.19-2.37-2.57.1-.99.99-2.08,1.78-2.77.49-.4,1.58-.3,2.37-.3h71.23c.79,0,1.58,0,2.28.2,1.48.4,2.18,1.48,1.98,3.07-.2,1.48-1.09,2.28-2.57,2.47-.59.1-1.29,0-1.88,0-11.67,0-23.45,0-35.32,0h0Z"/><path class="b" d="m64.24,132.28h35.52c.79,0,1.78-.2,2.28.2.79.59,1.88,1.68,1.88,2.47,0,.99-.99,2.08-1.78,2.77-.49.4-1.58.3-2.37.3H27.54c-2.08-.1-3.36-1.29-3.36-2.97s1.29-2.87,3.46-2.87h33.04c1.19.1,2.37.1,3.56.1Z"/><path class="b" d="m64.24,71.14h35.32c.79,0,1.58,0,2.28.1,1.39.3,2.08,1.19,2.18,2.57.1,1.48-.59,2.47-2.08,2.87-.69.2-1.48.2-2.28.2H27.63c-2.28-.1-3.56-1.19-3.56-2.97s1.38-2.87,3.56-2.87h26.02c3.66.1,7.12.1,10.59.1h0Z"/><path class="b" d="m45.84,162.06h17.61c2.37,0,3.56.99,3.66,2.77.1,1.88-1.29,2.97-3.66,2.97H27.73c-2.67,0-4.25-1.88-3.36-4.06.59-1.48,1.88-1.78,3.36-1.78,6.03.1,12.07.1,18.1.1h0Z"/><path class="b" d="m156.14,83.61c13.36-.1,24.34,10.68,24.34,24.04.1,13.55-10.78,24.44-24.24,24.53-13.36,0-24.34-10.98-24.34-24.34.1-13.36,10.98-24.24,24.24-24.24Zm.2,5.74c-10.19,0-18.4,8.11-18.5,18.3-.1,10.19,8.21,18.6,18.5,18.6s18.4-8.11,18.5-18.3c-.1-10.29-8.31-18.6-18.5-18.6h0Z"/></svg>