<?xml version="1.0" encoding="utf-8"?>
<!-- Generator: Adobe Illustrator 28.0.0, SVG Export Plug-In . SVG Version: 6.00 Build 0)  -->
<!DOCTYPE svg PUBLIC "-//W3C//DTD SVG 1.1//EN" "http://www.w3.org/Graphics/SVG/1.1/DTD/svg11.dtd" [
	<!ENTITY ns_extend "http://ns.adobe.com/Extensibility/1.0/">
	<!ENTITY ns_ai "http://ns.adobe.com/AdobeIllustrator/10.0/">
	<!ENTITY ns_graphs "http://ns.adobe.com/Graphs/1.0/">
	<!ENTITY ns_vars "http://ns.adobe.com/Variables/1.0/">
	<!ENTITY ns_imrep "http://ns.adobe.com/ImageReplacement/1.0/">
	<!ENTITY ns_sfw "http://ns.adobe.com/SaveForWeb/1.0/">
	<!ENTITY ns_custom "http://ns.adobe.com/GenericCustomNamespace/1.0/">
	<!ENTITY ns_adobe_xpath "http://ns.adobe.com/XPath/1.0/">
]>
<svg version="1.1" id="Layer_1" xmlns:x="&ns_extend;" xmlns:i="&ns_ai;" xmlns:graph="&ns_graphs;"
	 xmlns="http://www.w3.org/2000/svg" xmlns:xlink="http://www.w3.org/1999/xlink" x="0px" y="0px" width="200px" height="200px"
	 viewBox="0 0 200 200" style="enable-background:new 0 0 200 200;" xml:space="preserve">
<style type="text/css">
	.st0{fill:#FFFFFF;stroke:#231F20;stroke-width:2;stroke-miterlimit:10;}
</style>
<metadata>
	<sfw  xmlns="&ns_sfw;">
		<slices></slices>
		<sliceSourceBounds  bottomLeftOrigin="true" height="97" width="192" x="4" y="51.7"></sliceSourceBounds>
	</sfw>
</metadata>
<rect x="5" y="52.3" class="st0" width="190" height="95"/>
<g>
	<path d="M116.1,107.7c-0.2-6.2-0.3-13.3-0.3-21.7h-0.2c-1.7,7.1-3.9,15.2-5.7,21.1l-5.4,18.8H93.2l-4.5-18.7
		c-1.4-5.8-3-13.8-4.3-21.2h-0.2c-0.3,7.6-0.6,15.6-0.8,21.7L82.5,127H69.3l3.4-53.8h19.4l3.5,14.5c1.5,6,3.1,13.2,4.2,19.7h0.2
		c1.5-6.6,3.3-14.1,4.9-19.8l4.1-14.4h19l2.7,53.8h-14L116.1,107.7z"/>
</g>
</svg>
