<?xml version="1.0" encoding="utf-8"?>
<!-- Generator: Adobe Illustrator 28.0.0, SVG Export Plug-In . SVG Version: 6.00 Build 0)  -->
<!DOCTYPE svg PUBLIC "-//W3C//DTD SVG 1.1//EN" "http://www.w3.org/Graphics/SVG/1.1/DTD/svg11.dtd" [
	<!ENTITY ns_extend "http://ns.adobe.com/Extensibility/1.0/">
	<!ENTITY ns_ai "http://ns.adobe.com/AdobeIllustrator/10.0/">
	<!ENTITY ns_graphs "http://ns.adobe.com/Graphs/1.0/">
	<!ENTITY ns_vars "http://ns.adobe.com/Variables/1.0/">
	<!ENTITY ns_imrep "http://ns.adobe.com/ImageReplacement/1.0/">
	<!ENTITY ns_sfw "http://ns.adobe.com/SaveForWeb/1.0/">
	<!ENTITY ns_custom "http://ns.adobe.com/GenericCustomNamespace/1.0/">
	<!ENTITY ns_adobe_xpath "http://ns.adobe.com/XPath/1.0/">
]>
<svg version="1.1" id="Layer_1" xmlns:x="&ns_extend;" xmlns:i="&ns_ai;" xmlns:graph="&ns_graphs;"
	 xmlns="http://www.w3.org/2000/svg" xmlns:xlink="http://www.w3.org/1999/xlink" x="0px" y="0px" width="200px" height="200px"
	 viewBox="0 0 200 200" style="enable-background:new 0 0 200 200;" xml:space="preserve">
<style type="text/css">
	.st0{fill:#FFFFFF;stroke:#231F20;stroke-width:2;stroke-miterlimit:10;}
</style>
<metadata>
	<sfw  xmlns="&ns_sfw;">
		<slices></slices>
		<sliceSourceBounds  bottomLeftOrigin="true" height="97" width="192" x="4" y="51.7"></sliceSourceBounds>
	</sfw>
</metadata>
<g>
	<rect x="5" y="52.3" class="st0" width="190" height="95"/>
	<g>
		<path d="M91.2,126.5l-3.9-8.7c-1.6-3.4-2.8-6.2-4.1-9.3H83c-1,3.1-2.2,5.9-3.5,9.2l-3.6,8.8H59.7l15.1-27L60.3,73.1h16.4l3.6,8.5
			c1.3,3.2,2.4,5.8,3.6,8.9h0.2c1.2-3.5,2.1-5.9,3.2-8.8l3.3-8.6h16.3L92.3,99.2l15.5,27.4L91.2,126.5L91.2,126.5z"/>
		<path d="M113.6,73.1H128v41.5h20.5v12h-34.9V73.1z"/>
	</g>
</g>
</svg>
