<?xml version="1.0" encoding="utf-8"?>
<!-- Generator: Adobe Illustrator 28.0.0, SVG Export Plug-In . SVG Version: 6.00 Build 0)  -->
<svg version="1.1" id="Layer_1" xmlns="http://www.w3.org/2000/svg" xmlns:xlink="http://www.w3.org/1999/xlink" x="0px" y="0px"
	 width="200px" height="200px" viewBox="0 0 200 200" style="enable-background:new 0 0 200 200;" xml:space="preserve">
<style type="text/css">
	.st0{fill:#FFFFFF;stroke:#231F20;stroke-width:2;stroke-miterlimit:10;}
</style>
<rect x="5" y="52.3" class="st0" width="190" height="95"/>
<g>
	<path d="M86.1,127l-3.9-8.8c-1.6-3.4-2.8-6.2-4.2-9.3h-0.2c-1,3.1-2.2,5.9-3.5,9.3l-3.6,8.9H54.3l15.2-27.2L54.9,73.1h16.5l3.7,8.5
		c1.4,3.2,2.4,5.8,3.6,8.9h0.2c1.2-3.5,2.1-5.9,3.2-8.9l3.3-8.6h16.5L87.2,99.4l15.6,27.6H86.1z"/>
	<path d="M109.6,112.6c3.3,1.7,8.5,3.4,14,3.4c5,0,7.3-1.7,7.3-4.4c0-2.6-2.4-4.2-8.5-6.2c-9.1-3.2-15.2-8.2-15.2-16.2
		c0-9.5,8.1-16.9,21.6-16.9c6.4,0,11,1.2,14.5,2.8l-3,11.5c-2.3-1-6.3-2.6-11.7-2.6c-4.4,0-6.8,1.6-6.8,4c0,2.7,2.9,3.8,9.7,6.3
		c9.7,3.6,14,8.8,14,16.3c0,9.3-7.2,17.2-22.9,17.2c-6.5,0-12.8-1.7-15.8-3.3L109.6,112.6z"/>
</g>
</svg>
